<?xml version="1.0" encoding="UTF-8"?>
<svg default-mode="split" candidates='[{"id":"0","name":"A","margins":[{"color":"#C82518"},{"color":"#DC493D"},{"color":"#EC7066"},{"color":"#F79C99"}]},{"id":"1","name":"V","margins":[{"color":"#01438E"},{"color":"#3368AC"},{"color":"#668EC7"},{"color":"#99B3DD"}]},{"id":"2","name":"M","margins":[{"color":"#B48CD2"},{"color":"#C49FDF"},{"color":"#D3B4EA"},{"color":"#E2CBF3"}]},{"id":"3","name":"F","margins":[{"color":"#EB94D1"},{"color":"#F4A5DC"},{"color":"#FAB8E6"},{"color":"#FECDEF"}]},{"id":"4","name":"Æ","margins":[{"color":"#1272C2"},{"color":"#388FD8"},{"color":"#66ACE9"},{"color":"#99C8F5"}]},{"id":"5","name":"I","margins":[{"color":"#3FB2BE"},{"color":"#5FC7D2"},{"color":"#82D9E2"},{"color":"#A8E8EF"}]},{"id":"6","name":"C","margins":[{"color":"#00583C"},{"color":"#337E65"},{"color":"#66A28D"},{"color":"#99C3B4"}]},{"id":"7","name":"Ø","margins":[{"color":"#F7660D"},{"color":"#FF8233"},{"color":"#FF9F66"},{"color":"#FFBD99"}]},{"id":"8","name":"B","margins":[{"color":"#733280"},{"color":"#92579E"},{"color":"#AF7EB9"},{"color":"#CBA7D2"}]},{"id":"9","name":"D","margins":[{"color":"#00505B"},{"color":"#337781"},{"color":"#669CA4"},{"color":"#99BFC5"}]},{"id":"10","name":"Å","margins":[{"color":"#00FF00"},{"color":"#33FF33"},{"color":"#66FF66"},{"color":"#99FF99"}]},{"id":"11","name":"O","margins":[{"color":"#FDC03B"},{"color":"#FFD058"},{"color":"#FFDF7A"},{"color":"#FFECA1"}]},{"id":"12","name":"JF","margins":[{"color":"#D20D44"},{"color":"#E63365"},{"color":"#F46688"},{"color":"#FD99AD"}]},{"id":"13","name":"SP","margins":[{"color":"#006CB4"},{"color":"#338BCD"},{"color":"#66AAE0"},{"color":"#99C7EF"}]},{"id":"14","name":"IA","margins":[{"color":"#AB2328"},{"color":"#C3484C"},{"color":"#D87074"},{"color":"#E89C9F"}]},{"id":"15","name":"SIU","margins":[{"color":"#FF0202"},{"color":"#FF3333"},{"color":"#FF6666"},{"color":"#FF9999"}]},{"id":"16","name":"Ind","margins":[{"color":"#DCDCDC"},{"color":"#E3E3E3"},{"color":"#EAEAEA"},{"color":"#F1F1F1"}]}]' defaultMode="split" viewBox="0 0 510 412.16" xmlns="http://www.w3.org/2000/svg">
<g class="regions">
<path long-name="Greenland" region="GL" short-name="GL" value="2" candidates='[{"candidate":"14","count":1,"margin":0},{"candidate":"15","count":1,"margin":0}]' d="m463.81 5.8574c-1.5747-0.015034-5.1824 0.57555-4.4645 2.6862-0.18557 2.6111-2.4273-2.2004-3.4129 0.35279-0.24 1.4873 2.5512 0.80253 2.7676 2.3331-0.96284-0.44256-1.171 0.31426-1.5474-0.9041-1.9195-0.48063-1.3244 1.0131-0.5454 1.9367-0.4272 0.22504-0.26325 1.7499-0.69364 2.2464-0.70935-0.94775-2.8014-4.3089-3.6088-2.5276 0.53087 1.4237 0.57323 2.7136-1.1247 1.6382-1.5154 2.7326 0.67953-3.4136-1.765-1.4464-1.7316-0.16087-2.7492 1.0284-1.5622 2.4054 0.63697 2.5195-1.6788-4.0438-2.3828-0.66211 0.0509 1.4747-1.6594 1.553-2.0876 2.8332-0.0786-2.0183-2.9115 0.45535-3.7472 1.0469-1.3637 2 3.4196 1.3319 1.3148 2.2123-0.62538 1.7915-2.0909 3.8366-4.2277 2.7344-1.3516 1.3456-5.3651-0.67055-5.1324 2.6037-0.19024 1.6876 2.571 1.837 1.1862 3.3664 1.0175 0.18895 3.8942-0.03625 2.7466 1.7223-1.3992-1.1373-3.1694-0.7934-4.85-1.0474 0.33676 1.0866-0.27042 2.2313 1.1148 1.1581-0.80692 0.74556 0.63132 1.6972 1.0049 2.1166-1.1926 0.61425-1.5542-0.4534-1.8785-0.78028-0.4506 1.3689 1.3234 5.0817 2.3905 3.7751-0.47486-0.86837 0.56688-0.42912 1.0178-0.40559 0.0389 1.3809 2.2411-0.43646 1.7795 1.0241 0.98332-1.6766 2.4607 0.84546 3.1436 1.2085 0.65714 1.471 2.9508 2.5292 1.6221 4.5171 0.53434 1.4952 2.5621 3.6666 0.39746 4.7327 1.38 0.09125 1.1414 2.3785 0.76173 1.34-0.49106 0.62447 1.6372 2.4567 0.26394 3.4582 1.4737 1.3057 0.48547 2.7675 0.0494 4.1374-1.039 0.4896-0.22356 1.6357-1.4913 2.1647 0.26688 2.0027 3.0264 1.7714 3.0632-0.25524 9e-3 -1.1237 0.8056-1.0168 0.59564-0.02204 0.93986-0.35288-0.38561 1.0402 0.97702 1.075-1.4542 1.1518 1.6129 1.2043 0.55297 2.5024 0.76038 0.6548 0.33646 1.6488 1.2841 1.7678-0.1453 1.0759-0.17636 1.8664-1.4794 0.87624-0.68352-1.0763-3.5437-2.8862-3.8553-0.99153 1.4326 1.4017 2.7934 3.4232 5.0606 3.2617 1.32 0.20467 0.2542 1.5549-0.36377 0.43048-0.91904 0.62984-0.31813 1.81 0.50497 0.9231 0.40761 0.6376-1.3193 1.909-0.33105 2.2342 1.744-0.1493-1.8391 0.67601-0.52898 1.8374-1.0485 2.3036-2.2698-1.4793-3.2324 0.02653 1.8261 0.8979-1.6776 0.95032 0.12171 1.7261 1.0505 1.0049 2.1225 0.2491 2.8135-0.38006-0.97168 1.1593-0.18693 2.6374-0.048 3.7373-1.4392-0.38454-3.8912-1.8011-5.1886 0.36374-0.4111 1.4355 2.3876-0.84366 3.0043 0.57914 1.2077-0.4734 1.7734 0.08924 0.24817 0.24886-1.1316-0.55852-4.1574-0.27338-2.9788 1.2407 3.0496 0.12971-2.2745 1.4826-0.23143 2.681 0.66507 0.16269-0.93371 2.245 0.82046 1.5881 0.90337-0.3062 4.1069-1.7181 1.7441-0.28061-0.77383 0.47899-4.0863 1.1054-1.7388 1.7729 0.0151 1.1439 0.29127 2.2469 0.67954 3.3234 0.67975-0.02976 1.4617-0.62288 2.181-0.87046 0.75691-0.34377 1.5138-0.68754 2.2707-1.0313-1.6184 0.8804-3.5596 1.2965-4.8159 2.7129-0.87788 1.4627 0.54561 2.7872 1.3239 0.8107 0.72567-1.2885 4.0838-0.81155 2.0689 0.39746-1.7559 0.05768-3.0559 3.0409-2.194 4.0363 1.3115-0.912-0.52324 1.9613 1.3672 1.8376-0.5886 0.4416 1.1911 1.4957 0.10473 2.0461-0.0213 1.3571 1.7603 1.5854 1.2356 2.6702 1.2975 0.18631 1.8164-0.0368 1.2075 1.457 0.79693 1.0931 0.46643 2.7813 1.7788 2.6499 0.42712 0.43355 0.46607 1.9434 0.6196 1.7198 1.0526-1.1392 2.7461-0.69042 3.4434 0.26247 1.8425 0.30598 3.1726 1.3536 3.5738 3.0879 0.55857-0.6492 2.1891-1.8068 2.1643-0.26406-1.8508 1.7141 1.1116 1.1603 1.2277-0.25829 0.61603-1.2872-2.3801-2.3669 0.17503-1.9119 0.36383-0.30116 0.0919-0.63404 0.38814-0.85067-1.0892 0.0816-1.1747-1.1211 0.33141-1.0602-0.0488-1.9071 1.359-3.3487 0.82808-5.312-0.70877-0.73207 0.96479-1.1271-0.66211-1.4551-0.68954-0.73425 2.9857-1.31 1.2236-2.0524 0.15587-1.3182 2.1024 0.07081 1.29-1.1253-1.4647-0.2852 0.5171-1.6723 0.79492-2.1172 0.57326-0.52441 0.0489-2.5444-0.88284-1.6283-0.85923-0.63808 2.8472-1.1769 1.0944-2.5089 0.0876-0.70206-1.5779-1.5146 0.054-1.5562 1.2324 0.01626 1.9819-1.2924 1.0067-2.1078 0.0242-1.4317 1.8591 0.5389 1.8558-1.1859 0.53773 0.20559 1.7921 0.69755 0.96145-0.44401 0.35796-0.80484 0.5573-1.4451 0.26343-2.4115 0.1232 0.70091 1.8189-0.53117 0.76826 0.96145-0.94383 1.0366 0.15193 3.5294 0.78587 1.3962 0.23935-1.66 0.95981 0.6471 1.3741-1.2396 0.94209 0.69605 1.3982-0.39872 1.4567-1.4393 2.364 0.44748 1.825-3.316 3.1176-4.0119-0.2003 2.2933 0.56705-0.78791-0.11173-1.561 0.38451-1.6613 2.7409-3.0247 0.79947-4.3883-0.063-1.4983 1.4546 1.8079 2.5612 0.89378 0.6002-0.77 1.8472-0.68323 1.3944-1.8212 1.496 0.38911 3.4197-1.4344 4.55-2.631 1.8336-0.99203 1.8722-3.2762 2.7812-4.8984 0.60617-1.0867 1.1021-2.5465 1.7984-3.623-1.6822 0.93382-3.85 0.28729-5.4136 0.88916-0.70197 0.92899-1.9745 0.91977-1.8635 2.2545-1.0815 0.60307-1.2415-0.70782-0.14899-0.74463-0.687-1.0216-3.7594 0.0033-1.7385-1.6039 0.74675-0.59545-1.0617-2.9193 1.011-1.5074 0.0133 0.88063-0.7033 0.29064-0.60623 1.338-0.56181 2.0568 2.3752 0.22258 2.8917-0.43609 0.94592-0.71657-0.21107-3.152-1.0944-1.7287 1.3395-1.4852 0.41797-2.3256-1.3667-1.7658-0.74807 0.29451-1.644 0.04188-1.7592-0.80528-1.7272-1.4006 1.8033 1.2242 2.634 0.06832 2.4847-0.31959 3.0494 2.6583 5.1247 3.1649 1.9032 0.78331 0.29707-2.7325 1.6016-0.62987 2.1053-0.19194-0.99843-2.6401-0.54105-3.983-0.53118-0.64256-1.5482 0.85918-1.2369-0.78-0.50589-0.20948-1.0184-0.07589-1.271-0.99029-1.0627-0.2525-1.7841-0.14722-2.6989-0.8166-1.1641-0.45768-0.80667 2.2093-1.678 0.5806 0.90752-0.28934 1.4346-2.1451-0.29322-1.7742-0.39526 0.26893-1.9703 1.2422-1.5618 0.28424 1.9347 0.11103 1.9597-2.4079-0.0871-1.4047-0.96253 0.76848-1.6607 0.56858-0.40746-0.25047-0.69453-0.46466 1.2259-0.2388 1.4913-0.95601 1.0332 0.34222 3.4407-1.0914 1.1239-0.93005-1.0024 0.31283-2.8928-1.5968-1.0142-0.46343 0.79902-0.09305 0.18006-1.5265 1.5435-0.9936 2.1116 0.0762 0.076 0.30676-0.79492 0.26562 0.81275 1.4086 3.2677 1.6604 3.9252-0.22522 1.3103-1.7899-1.0088-2.8613-2.3354-2.0248-0.84814-1.6291 0.80569-3.054 2.1448-1.8957 1.4549-1.2243-0.29222-2.3688-1.4846-1.5476 0.1845-2.0887-1.3777-0.83511-1.8519-0.56184 1.333-0.7553 0.0581-2.4907 1.985-1.7381 0.38288-1.7162-2.2701-2.8107-2.2828-3.9388-0.74569 0.55093-2.4012 0.7275-2.1528-0.59473-1.4764 0.28853-1.5394-0.99254-0.0392-0.82384-1.05-1.9014 1.5242-0.8906 2.4901-2.0067-0.22067-1.0174-1.1482-2.6187-1.7944-1.214-1.2421 0.68631-3.1359-1.6169-1.1274-0.92828 1.8266-0.54691-1.2709-2.3558-1.928-1.0342-1.2675-1.9445-0.78119-3.8054-0.75674-5.876-2.1438-0.89004 1.2932-3.7158-0.83916-3.7878-1.0406 0.44971-0.83125 2.3038-1.4819 0.82719-0.10369-1.4171 3.37-1.3026 1.7569-3.174-0.73225 0.1197-2.4896 1.0257-0.93316-0.19564 1.7869-0.72544 0.53101-2.8853 1.2933-4.3429-0.41693-2.5329-3.5423-1.1143-4.2255 0.4687-0.69674 0.26918 1.2199 1.3848-0.39482 1.1595-0.95456 1.2529-0.63903 3.3895-0.93384 4.5611-0.64117-1.8943 0.33311-4.1867-1.1638-5.8244-1.5949 0.06711-0.42614 3.5242-2.1446 3.3792 0.78489-1.0615 1.2852-3.0651-0.77799-2.1848-0.8905 0.41464-2.2774 1.0679-1.6111-0.21155 1.919 0.15514 5.5331-2.2576 3.0182-3.914-1.6662 1.0488-1.4728-1.6701-2.9014-0.21209-0.27114 0.076701 1.3309-1.8783-0.34758-1.7658-0.34502-0.040019-0.69185-0.065845-1.0392-0.072116zm-5.3652 1.9688c-0.97502 2.0521 2.0493 1.1684 0 0zm-3.1289 1.127c-1.5549 0.66167 1.2933 1.8034 0.11459 0.048988zm-1.1465 0.7832c-1.0936 1.1896 1.6443 0.23106 0 0zm0.8125 1.0059c-1.7438 0.51352 1.9226 3.6347 0.9859 0.76898-0.26211-0.31282-0.52048-0.74568-0.9859-0.76898zm22.914 9.8672c-1.0852 1.1007 1.4019 1.2833 0 4e-6zm0.27344 1.7793c-0.55567 0.11632 0.32415 1.2023-0.7939 0.15022-1.4962 1.0065 2.604 2.1483 1.0606-0.01778l-0.12481-0.09726zm-0.0664 2.168c-0.94526 0.49305 0.94709 0.89712 0 0zm2.5332 1.2422c-1.4419 0.75762 1.0961 2.1106 0.3125 0.42969l-0.17485-0.30172zm-49.949 1.748c-1.8583 0.49705 1.3159 1.5741 0.22054 0.09419l-0.22054-0.0942zm1.1152 0.4707c-1.3919 0.987 1.4098 0.91638 0 0zm50.17 2.9336c-0.75072 0.63796 0.84292 2.9757 1.5986 2.7283-0.38465-0.94017-0.70593-2.1529-1.5986-2.7283zm3.5938 4.8594c-2.352 0.6576 0.30682 3.2905 1.2892 0.96496-1.0431-0.112-1.0844 0.20543-1.2892-0.96496zm-44.068 9.2188c-0.44712 0.4398 0.82331 0.52091 0 0zm43.557 2.6445c-0.94227-0.23705-4.3446 1.6657-1.8367 1.1911 1.162-0.5411 3.4111 0.9178 2.087-1.1825zm-40.381 12.051c-1.6586 1.0872 1.8864 1.3262 0 0zm-1.0195 0.14258c-1.4939 0.14684-0.0461 2.2797 0.15153 0.33322 0.0257-0.08348 0.0554-0.40872-0.15153-0.33322zm-2.4375 2.8027c-1.2562 0.54426 1.3068 1.0972 0 0zm0.89258 1.2578c-1.1518 0.64665-2.0501 3.1426-1.7e-4 3.3924 1.075 0.74893-1.8396 0.291-0.14924 1.3075 1.5552 0.19676 4.7361-0.94767 2.4182-2.7331-0.67105-0.75892-1.2352-1.6779-2.2687-1.9667zm1.1582 9.8125c-0.22816 1.154-2.2625 0.30423-2.168 2.002-0.41076 0.52228 2.021-0.35749 2.3828-0.92578 0.30476-0.30025 0.88262 1.7318 1.8535 0.39648 0.48407-1.0522-1.446-1.1339-2.0684-1.4727zm33.799 2.7754c-0.30669 0.85108 0.097 3.4312 0.14421 1.1942-0.0432-0.36361 0.0598-0.89296-0.14421-1.1942z"/>
<path long-name="Faroe Islands" region="FI" short-name="FI" value="2" candidates='[{"candidate":"12","count":1,"margin":0},{"candidate":"13","count":1,"margin":0}]' d="m362.78 8.7051c-0.53928 0.79464-0.40509 1.4031 0.48397 1.803 0.62499 0.487 1.5316 0.87979 0.9361 1.775-0.34345 0.89488 0.24201 1.8063 0.3436 2.7091-0.84109 0.09221-0.87113-1.1739-1.3485-1.6908 9e-3 -0.76175 0.41693-1.7615-0.76397-1.2119-0.93769 0.06821-1.2234 0.78511-0.96111 1.62-0.0274 0.80188 0.13333 1.5315 0.75132 2.0854 0.0588 1.3015 0.42943 2.6084 0.16992 3.9043-0.36828-1.2249-0.30626-2.6532-1.3146-3.5755-0.62891-0.65711-1.0358-1.418-1.1124-2.3333-0.2496-0.8595-0.14967-1.9295-1.0791-2.3796-0.60849-0.45055-1.5507 0.55585-1.1383 1.289 0.24022 0.79692-0.57146 1.3923 0.0738 2.1296 0.3527 0.78235 0.052 1.7657 0.85073 2.334 0.6446 0.81969 0.903 1.8818 0.94632 2.9127 0.50847 0.67508 0.83059 1.5931 1.7936 1.6757 0.86003-0.17724 1.43-0.41681 1.5268 0.78137-0.60426 0.24188-2.144-0.16405-1.6091 0.86669 0.14619 0.84416 0.32283 1.6738 0.98996 2.27 0.56019 1.1446 1.0152 2.4701 1.9345 3.3388 1.0188 0.60638 0.51602-0.82707 0.47691-1.3732-0.60372-0.89381-0.57903-1.9899-0.78249-3.0125 0.70576 0.44702 1.0398 1.0759 1.1343 1.8455 0.55981 0.50861 1.0043 1.2505 1.6318 1.6222 0.54954-0.13272 2.1054 0.66758 1.7289-0.32368-0.60192-0.79787 0.7266-1.4239 0.0363-2.0399-0.30636-0.81328-1.1597-0.86699-1.8809-1.1041-0.23877-0.62962-1.5668-1.3186-0.79212-1.893 0.56503-0.42696 1.1476 0.96091 1.9381 0.70449 0.76627 0.34598 1.2696-0.42756 1.7201-0.92204 0.79435-0.78048-0.24229-1.2359-0.75177-1.785-0.72768-0.74665-1.781-1.0326-2.6612-1.5635 0.71031-0.4698 1.4584-0.33492 2.2148-0.06641 0.75098 0.15187 1.5124-0.11398 1.3519-0.92676 0.70241-0.50516 1.1319-1.2436 0.25338-1.838-0.51397-1.0265-1.0175-0.53496-1.6723-0.08811-1.1484 0.15175-0.71739-0.95608-0.75186-1.6927-0.38354-0.78316-1.5254-1.25-1.363-2.2814 0.0107-1.0364-0.29641-2.0265-0.94453-2.8327-0.53924-0.70702-1.2899-0.84398-2.1325-0.73288l-0.12804 4e-6zm-9.375 1.7148c-0.32694 0.83879-0.38377 1.6868-0.099 2.5466 4e-3 1.0484 1.1497 1.6834 1.0951 2.7308 0.6777 0.77919 1.1674 1.6572 1.4121 2.6641 0.53691 0.87438 1.602 1.5558 1.4167 2.694 0.10636 0.89593-0.18 1.9494 0.67808 2.5438 0.38162 0.57273 1.697 0.48063 1.8359-0.24645 0.0736-1.0414-0.29541-2.0816-1.1705-2.6973-0.79515-0.4321-0.0328-1.3972-0.80536-1.9965-0.99304-1.7729-2.0473-3.569-2.6824-5.4901 0.0127-0.80441-0.0924-1.5516-0.85904-1.9773-0.27388-0.25717-0.54775-0.51433-0.82163-0.7715zm21.486 1.7148c-0.73709 0.30938-1.7642 0.43288-1.3696 1.4676-0.10506 0.76507 0.25027 1.6051 0.89019 1.9621 0.89595 0.22863 1.4798-0.3509 2.0574-0.94665 0.96065 0.15519 0.92935-1.1106 0.14811-1.1796-0.91318 0.04463-1.2499-0.65984-1.7261-1.3034zm-29.186 1.3379c-0.90373 0.7176-1.6344 1.6078-2.3945 2.4688-0.76628-0.12565-1.5326-0.2513-2.2988-0.37695-0.18982 0.65995-1.1963 1.5545-0.10937 1.8477 1.0176-0.01119 1.1778 0.81011 1.3237 1.6452 0.28467 1.1059 0.56933 2.2118 0.85399 3.3177-0.91399-0.71334-1.1907-1.8929-1.4143-2.9719 0.0458-0.76846-0.78132-1.3775-1.3045-1.7306-0.82065 0.18127-1.6273 0.34662-1.2949-0.78185-0.63633-0.75853-1.2168-0.41645-1.8916 0.0045-0.93535-0.14251-1.5629 0.12552-1.632 1.1385-0.14382 0.76632 0.27345 1.6012-0.32602 2.2797-0.48127 0.84295 0.45754 1.7837 0.0761 2.7018-0.20726 1.3611-0.16117 2.7939-0.51292 4.1123-0.3603 0.69684-1.0102 1.4655 0.0896 1.8002 0.96429 0.22627 0.48016 1.2386 1.2784 1.5668 0.60368 0.52261 1.2212 1.0045 2.0667 0.818-0.0112 0.78312-0.1925 1.6341 0.61058 2.0923 0.65717 0.70464 1.708 0.83753 2.5398 1.2886 0.4095-0.82139 1.3037-0.50981 2.043-0.56055 0.58241 0.93245 1.4849 1.7358 1.8696 2.748 0.19835 0.77031 0.11429 1.5356-8e-3 2.2915 0.0445 0.76247 0.47741 1.5811 1.0981 1.9314 0.61702 0.1475 1.9058-0.61654 1.9087 0.36426 0.1526 1.2223 0.69967 2.327 1.4161 3.3073 0.79652 0.81854 1.7355 1.4497 2.7135 2.0295 0.23633 1.0986 1.4334 1.5653 2.1289 2.3618 0.49731 0.57964 1.4903 0.81084 2.0293 0.16746-0.16306-0.96278 8e-3 -2.0453-0.36505-2.9328-0.41864-0.70238-1.0744-1.3435-1.3485-2.0832-0.19508-0.97649 1.165-0.83552 0.74081-1.8998 0.0359-0.93602 0.0836-2.2664-1.0385-2.5473-0.70529-0.58789-1.4046 0.41573-2.2289 0.11158-0.9452 0.07045 0.68547-0.9769 0.88392-1.4027 0.64145-0.71924-0.0913-1.5656-0.26695-2.3297-0.70037-0.85008-1.7561-1.2408-2.7667-1.5597-0.4373-0.16831-2.2637 0.28927-1.6791-0.33948 0.38314-0.83313 1.1289-0.88628 1.9449-0.78834 0.38636-0.24254 0.35698-1.58-0.25031-1.9234-0.42525-0.74762-1.1921-0.7912-1.9367-1.0072-0.7563-0.23738-0.80198-1.3318-1.5385-1.7062-0.62105-0.82515-1.5894-1.0902-2.5177-1.4198 0.70502-0.57339 1.3904-0.61282 2.0499 0.04833 0.77234 0.48262 1.6618 0.85201 1.9642 1.7891 0.44741 0.5139 1.4739 0.07974 2.0247 0.73238 0.53138 0.49737 1.2596 1.0249 1.4975 1.7096-0.20393 0.97145 0.84334 1.0775 1.3026 1.6894 0.64553 0.73825 1.2911 1.4765 1.9366 2.2147 0.72601-0.11417 0.66502-1.37 0.78238-2.0041-0.17736-0.91405-9e-3 -1.9628-0.76331-2.6415-0.56353-1.2405-1.5447-2.1604-2.4995-3.1006 0.66174-0.91918 1.2653-0.32746 1.8668 0.31693 1.2084 0.99872 1.8554 2.5141 2.4416 3.9367 0.18402 0.6951 0.0756 1.5705-0.16537 2.2386-0.68712 0.68386-0.20239 1.6395-0.20359 2.4824 0.71773 0.47894 0.88227 1.3036 1.1426 2.0684 1.0198 0.64869 1.1498 0.13328 0.91211-0.86328 0.0625-1.038 0.068-2.0898 0.51175-3.0527 0.68767-0.17393 2.0896 0.16502 1.4887-0.93419-0.54213-0.97547-1.3776-1.7883-2.4008-2.2767l2.2129-0.75391c-0.75615-0.29468-1.4817-0.62598-1.8274-1.4116-0.55714-0.73806-1.5071-1.0506-2.3074-1.4692 0.0379-0.79017-0.17338-1.8421 0.96857-1.4727 0.86512-0.12511 1.6406 0.10738 2.3501 0.6037 0.62492 0.77847 1.6007-0.35907 1.0251-1.0018-0.54826-0.50692-1.3033-1.0746-2.1198-0.92809-0.8171-0.12865-1.4828-0.96319-2.2749-1.0961-0.8067 0.38555-1.5355 0.36481-2.1295-0.35851-0.84893-0.30061-0.94828-0.92511-0.84687-1.7661 0.64743 0.49052 1.2923 1.0278 2.0059 0.32812 0.27699-0.68192 0.43098-1.7666-0.45471-2.0365-0.75872-0.36291-1.4749-0.99581-2.3511-0.61243-1.3002 0.53563-0.52801-0.56689-0.25754-1.2728-0.0822-0.46577-1.4132-0.44422-1.9845-0.53985-0.75747 0.23848-1.5149 0.47697-2.2724 0.71545-0.7835-0.7251-0.38756-1.2859 0.37754-1.7953 0.3185-0.47447 1.9517-1.2919 0.66636-1.348-0.84719-0.17711-0.72738-1.6112-1.73-1.6401-0.47703-0.17705-0.95407-0.3541-1.4311-0.53115zm27.885 3.1738c-0.41127 0.62394-1.4477 1.0202-1.3802 1.8185-0.38891 0.51941-1.6016 0.6709-1.8628 1.2048 0.31572 0.89171 1.0706 1.7301 0.65422 2.7107-0.164 0.95644 0.81009 1.0965 1.3368 0.39495 0.72332 0.07708 1.8396 0.03313 1.8277-0.93008 0.1352-0.79006 0.45165-1.6064-0.13671-2.2915-0.58476-0.87325 1.3843-0.04607 1.5782-0.51777 0.21186-0.9386-0.26952-1.4834-1.1086-1.8251-0.30286-0.18817-0.60571-0.37634-0.90856-0.56451zm-38.938 13.328c-0.9471-0.0043-1.1061 0.80976-1.6243 0.94922-0.91337-0.1472-1.7205 0.21703-2.5221 0.60742 0.22997 1.0762-0.48273 1.1583-1.3657 1.0608-0.93654 0.27974-1.3093-0.80784-1.9312-1.2913-0.61812 0.23986-2.0869-0.18462-1.6661 0.86659 0.1348 0.85611-5e-3 1.828 0.7623 2.4175 0.62946 0.7809 1.1795 1.6653 2.2224 1.9073 0.83691 0.29275 1.7278 0.42729 2.5857 0.65825-0.68444 0.43339-1.3617 0.78065-1.9453 0-0.68588 0.24653-1.6773 0.81193-0.66723 1.4258 0.5458 0.62768 1.2067 1.0303 2.0503 1.0752 0.90516-0.07 1.1656 1.0808 2.0635 1.0245 0.80608 0.04151 1.4328 0.33651 1.698 1.1424 0.67978 0.65688 1.5789 0.59564 2.4551 0.60938 0.468-0.41677 1.9444-0.35186 1.67-1.1233-0.53068-0.87666 0.89219-0.95596 1.4913-1.0179 0.79233-0.02408 2.0684-0.09166 1.931-1.1828-0.12818-0.84909 0.95523-1.4113 0.4986-2.2504 0.0285-0.87774-0.60646-1.3654-1.3753-1.6111-0.88796-0.27101-2.0701-0.0054-2.6028-0.9245-0.53686-0.66176-1.2788-1.189-1.5386-2.0325-0.84709-0.40077-1.7895-0.96398-2.1194-1.8585-0.0234-0.15068-0.0468-0.30136-0.0702-0.45204zm-14.229 3.916c-0.87266 0.16596-1.8728 0.03079-2.4918 0.79598-0.97331 0.40559 0.63315 1.0397 1.1309 0.95402 1.0992-7.63e-4 2.2032 0.05922 3.2828-0.19336-0.49249-0.72878-1.119-1.2041-1.9219-1.5566zm38.986 9.0957c-0.26406 1.0539-0.61557 2.2146-0.24133 3.2563 0.67574 0.7087 1.4185 1.3785 1.5508 2.4027 0.24272 0.74314 1.4934-0.45228 0.98903-1.1402-0.30732-0.61005-1.167-0.97816-0.81411-1.8313-0.45005-0.68129-1.3077-1.2122-1.4844-1.9944v-0.69314zm-10.871 4.1465c-0.49898 0.87349 0.57679 1.2762 1.0378 1.8627 0.63962 0.31834 0.61526 1.8777 1.476 1.3467 0.29668-0.43125-0.69536-1.3309-0.9055-1.9463-0.3872-0.76753-0.65044-1.2862-1.6084-1.2631zm-0.97266 4.877c0.14581 0.88552 0.17607 1.8227 0.91742 2.4419 0.57113 0.86052 0.21727 2.1071 0.60212 3.0415 0.79649 0.43121 0.29859 1.4744 0.65389 2.0195 0.76911 0.59223 1.4136 0.23295 2.1124-0.20451 0.74213 0.01029 1.5793-0.2607 2.2665-0.08791 0.53271 0.55688 1.4196 0.92998 1.2839 1.8337 0.109 0.98908 0.11488 2.0127 0.79628 2.8099 0.49109 0.67826 1.5784 0.98375 1.5589 1.9486 0.66889 0.57932 1.328 1.0591 1.8402 0.05007 0.44886-0.5664-0.48869-1.4847-0.24181-2.0996 0.78242-0.48678 0.80836-1.5632 0.36892-2.2968-0.34133-0.66574 1.1212-1.2687 0.96508-1.7708-1.3184-0.33313-2.0022-1.6523-2.3736-2.8625-0.56256-0.21033-1.4653-0.11948-2.0513-0.64727-1.1799-0.5103-2.1108-1.462-2.861-2.4864-0.83973-0.22848-1.6769-0.50598-2.543-0.23047-0.9334-0.80811-2.1828-0.99119-3.2948-1.459zm4.002 11.564c0.0737 0.71193-0.42537 1.6569 0.0108 2.2214 0.58614 0.60735 1.2543 1.0576 2.1125 1.144 0.32755-0.31285-0.0703-1.4929-0.0152-2.1315-0.0285-0.67741-0.93833-1.2226-1.5865-1.2093-0.17387-0.0082-0.34775-0.01643-0.52162-0.02465zm3.9746 7.4668c-0.58431 0.39842-0.73992 1.7063 0.11633 1.6903 1.245 0.3776 0.39631-0.91314 0.32437-1.5849-0.0329-0.14148-0.32646-0.04888-0.4407-0.10539zm-6.918 4.5117c-0.84197 0.19297-1.7199 0.31738-2.2773 1.053-0.43189 0.59106-0.56645 1.3899-0.88477 2.0603 1.0699 0.63786-0.0968 1.3459 0.57515 1.7956 0.99577 0.43387 0.0337 1.8792 1.0255 2.3606 0.8245 0.6871 1.2813 1.706 1.5849 2.7149 0.68185 0.41649 1.6448 0.69162 1.2113 1.6691-0.0563 0.83607-0.39141 1.7412 0.33111 2.3844 0.80831 0.50352-0.0191 1.6344 0.83133 1.9655 1.106 0.50701 1.6932 1.5665 2.4056 2.4927 0.82347 0.11343 1.2407 0.873 1.8125 1.3867-0.20395 0.77153 0.12035 1.6587 0.93652 1.866 0.88214 0.05262 1.3865 0.74656 1.9513 1.2219 0.78876 0.33862 1.4788-0.6535 1.2014-1.2625-0.35131-0.65339-1.3126-1.165-0.9137-1.9928 0.43471-0.94379-0.67094-1.2742-1.1338-1.5306 0.45234-0.99862-0.50363-1.1231-1.2617-1.0806-0.75778 0.39327-1.4721 0.60586-1.916-0.30669-1.1405-0.9233-0.0277-0.52917 0.75282-0.3293 0.79448-0.22113 1.5042-0.94274 2.2681-1.3489 1.0349-0.43017-0.77974-0.78177-1.1184-1.1741-1.0643-0.47817-0.29937-1.213 0.60008-0.79621 0.37962-0.1162 0.13343-1.6615-0.61167-1.7078-0.45319-0.38835-1.9646-0.6904-1.7056-1.1368 0.41742-0.80106 1.5727-0.34149 1.7919-1.0173 0.66614-0.81911-0.7846-1.1895-0.13621-1.9902-0.67987-0.48719-1.2755-1.2009-2.1953-1.0428-0.91144 0.12942-1.5051-0.19616-1.6731-1.1311-0.38383-0.59954-1.439-0.1547-2.0889-0.29482-0.46815 0.06883-2.143-0.06123-1.5365-0.64421 0.40012-0.56117 1.3056-1.1116 1.4137-1.679-0.80077-0.64092-0.93009-1.1839-0.20236-1.5226-0.34597-0.32743-0.69194-0.65487-1.0379-0.9823z"/>
<path long-name="Bornholm" region="BH" short-name="BH" value="2" candidates='[{"candidate":"0","count":1,"margin":0},{"candidate":"1","count":1,"margin":0}]' d="m503.96 313.63c-0.92025 0.12566 0.51826 0.50651 0 0zm0.70312 0.22071c-0.81023 0.77216 0.80977 1.1058 0 0zm-0.40234 0.16015c-0.0712 0.5997 0.35097 0.27344 0 0zm-28.789 2.8164c-0.62647 0.16016-0.63056 0.96209-1.205 1.0839-0.72661 0.44652-5e-3 1.3097 9e-3 1.659-0.41319 0.61383-0.14513 1.3228-0.69277 1.9211-0.24214 1.1363-1.0379 1.9773-1.6515 2.9353-0.26013 0.88141-0.81866 1.7006-0.95133 2.6311-0.25143 0.56931-0.15527 1.1525-0.35922 1.77-0.40427 0.64767 0.0926 1.2947-0.0145 1.9506-0.43364 0.17253-0.0443 0.93799 0.082 1.4667 0.26922 0.81984-0.1984 1.6013 0.0391 2.421-0.20653 1.2338 0.69804 2.8494-0.44142 3.8915 0.22231 0.68931 0.2267 1.2292-6e-3 1.8894-0.31275 0.63643-1.1685 0.10496-1.1742 1.1372 0.5225-0.0422 0.50321-0.23491 0.87717-0.15169 0.57069 0.62353-0.45169 0.33979-0.26393 0.92047 0.27316 0.53319-0.24219 0.82669 0.66627 0.34714 0.26432 0.67005 0.79713 0.91252 1.4688 0.98445 0.74314 0.3916 0.77045 1.4286 1.4259 1.7808 0.36768 0.46581 1.0799 0.37667 1.4687 0.95363 0.58873 0.32821 1.0692 0.96307 1.8369 0.51792 1.1507-0.11999 1.8089 0.98923 2.769 1.4064 0.47841 0.10692 1.1971-0.18371 1.7823 0.30007 0.84478 0.27974 1.6067 0.71857 2.3953 1.1113 0.54396 0.33538 0.84998 1.0843 1.5485 1.0469 0.56704 0.16601 0.87415 1.2517 1.4687 0.76374 0.96084 0.23069 1.5152 1.3108 2.4136 1.471 0.76638-0.1523 1.2663 0.58805 1.9888 0.54133 0.83254 0.18723 1.5892 0.49754 2.4121 0.5814 1.2416-0.34106 2.3385 0.87206 3.5389 0.88168 1.3271-0.62497 1.3955-2.5412 2.7736-3.1532 0.34655-0.46462-0.3578-1.2396 0.22595-1.7108-0.49529-0.33273-1.2246-1.3026-0.48764-1.7071 0.75411-0.35329 0.62032-1.0095 0.78517-1.6094 0.55111 0.0932 1.4315-0.95644 0.78323-0.96486 0.22172 1.3217-0.41725-0.38777 0.0605-0.16014-0.22599-0.80836 0.67601-1.1851 1.0664-1.6484 0.56167-0.53453-0.0256-1.2012 0.25978-1.7695-0.28025-0.37812-0.59384-0.74928-0.70319-1.3066 0.32692-0.5989-0.17983-0.65713-0.10022-1.1703-0.068-0.39546 0.19322-0.99849 0.52203-1.3024 0.28045-4e-3 0.25254-1.493-0.14066-1.2266-0.61964-0.14751-0.0435-1.282-0.75184-0.96206-3e-3 -0.82695-0.94908-0.30198-1.5586-0.40504-0.45513-0.40074-0.74812-0.43178-1.3442-0.71262-0.68874-0.15355-0.97415-0.51302-1.6324-0.81464-0.2759-0.42527-0.94058-0.42914-1.2871-0.9043-0.37808-0.41399-0.87264-0.79365-1.2656-1.1661-0.68464-0.10845-1.2364-0.39543-1.6289-0.9258-0.37834-0.40494-0.86602-0.97001-1.4341-1.3411-0.51754-0.37442-0.66623-1.0022-0.81777-1.5535-0.32877-0.35701-0.33926-0.99036-0.93531-1.315-0.60853-0.17651-1.0982 0.55947-1.758 0.67243-0.89638-0.23348-1.1839-1.1621-2.0293-1.4473-0.76034 5e-3 -1.347-0.63286-2.1113-0.80461-0.57119-0.47485-0.41608-1.2225-1.1987-1.443-0.40349-0.25685-1.1857-0.21487-1.3805-0.86238-0.73324-0.24664-0.94737-0.2414-1.5615-0.69895-0.36741-0.33295-0.74236-0.77634-0.78497-1.3375 0.0335-0.58704-0.51588-1.0334-0.74427-1.5292 0.0407-0.41172-0.55458-0.56387-0.67279-1.0287-0.40658-0.44256-0.84454-0.59636-1.2764-0.84048 0.15728-0.41452 0.17193-0.85977-0.30266-1.0644z"/>
<path long-name="Copenhagen" region="CH" short-name="CH" value="17" candidates='[{"candidate":"0","count":4,"margin":0},{"candidate":"7","count":3,"margin":0},{"candidate":"3","count":2,"margin":0},{"candidate":"2","count":2,"margin":0},{"candidate":"10","count":2,"margin":0},{"candidate":"1","count":1,"margin":0},{"candidate":"5","count":1,"margin":0},{"candidate":"8","count":1,"margin":0},{"candidate":"6","count":1,"margin":0}]' d="m469.61 171.08c0.37487 2.0122-0.85031 2.1853-2.4908 1.8757-1.1214-0.76609-3.2445-0.67779-3.7416 0.51555-0.299-2.2068-1.6626-2.8686-3.7374-2.4063-2.6926-1.695-1.7805 4.0217-4.0238 3.2037-2.1204 0.39962-3.9812-0.96287-5.6669-1.8616-2.4135-1.1844-2.8211 3.2205-5.3405 2.4102-2.1902 0.57132-4.6165 3.1097-2.9309 5.4479 1.1835 0.91821 3.1369 1.4326 2.1828 3.479 0.11025 1.8105 1.1878 3.3415 0.76492 5.2453 0.0428 2.2899 1.4524 4.1011 1.8684 6.3066 2.451-0.0455 0.71593 3.3787 1.2115 5.0409-1.4036 2.7845 1.9569 3.8685 2.6182 6.0867 0.82524 1.9442 3.2142 2.7817 3.8154 4.9847 1.1685 3.0526 3.6572-0.48472 5.8212 0.27358 1.4236-0.60625 2.4684-0.15662 1.7682 1.4135-0.7605 1.567 1.4292-0.90727 1.8441-1.2376 1.5052-0.9677-1.0052-0.4511-0.38958-1.851-0.73837-2.0504 3.9723 0.66144 1.968-1.4842-1.4367 0.52073-2.1011-4.4799 0.38241-3.2196 0.48706 0.39877 0.66806 2.3942 1.655 0.85348 1.0438-1.276-3.8683-1.5426-1.0634-2.9918 1.654 2.5629 4.1148-1.2015 2.6733-2.7326 0.32605-1.4672 3.247-2.4775 4.1668-4.1678-0.14173-1.0691-1.5072-2.5195 0.54398-3.2292 1.1638 0.32037 2.8411 1.4096 3.5855-0.56965 2e-3 -2.3414 2.3374-4.3674 1.0698-6.6941-2.043-0.45973 0.37174-3.0003-1.1712-4.2946-1.393-1.021 0.17267-2.0684 0.93791-1.9972-1.6542 0.12986 0.33531-2.0652-1.4106-0.77832-1.0686-1.3578-2.156-3.1563-2.3281-5.0898-2.057 0.13883-1.2245-2.5782-2.0506-3.6125-1.4216 0.0433-2.484-1.9105-2.4292 0.49973l-0.103 0.58132zm16.361 0.96485c-1.7766 0.38437-2.551 3.2237-4.3538 1.0707-0.43311-0.47587-2.7702-0.42219-1.2182 0.32909 1.3644 0.14974-0.1277 2.6136-1.1727 1.3869-1.3711-1.1311-3.0496 4.0709-1.0252 2.2193 1.1554-0.52018 3.7043 1.8894 3.951 0.54479-1.0485-0.0294-2.9417-1.0183-1.4571-1.8301 1.9171 1.1724 3.7446 1.1927 5.1613-0.71395 1.1572-1.0495 4.2103-2.5993 1.1898-3.1363-0.36528-0.0498-0.71206 0.11042-1.075 0.12943zm-2.8457 12.592c0.2873 1.4814-3.2225 1.8526-0.76878 2.6099 0.73841 1.9653 3.1714-1.0408 4.0584-1.8814 0.52463-1.1237-2.8003-0.72828-3.2896-0.72848zm3.5898 4.0254c-1.5739 0.68241-3.7985 1.4412-4.977 0.54883-1.3214 0.0388-0.55362 1.3553 0.41648 1.0219 0.71442 2.5703-1.1441 4.6714-2.715 3.1946-0.69455 1.3926-2.2279 2.4871-3.2564 3.7567-0.6036 0.89724-1.5594-1.494-2.1154 0.30554-1.493 1.9396-3.0909 3.8428-3.8982 6.1871-0.93294 2.2331-2.1159 4.4025-2.7371 6.7354-0.73485-0.0826-0.64714 1.6096-1.839 2.0271-2.2248 1.8369-4.1085 4.016-5.6644 6.4405-1.2819 1.9371-2.8302 3.729-3.9682 5.7396-0.46385 2.7717 0.21835 5.6762 0.89665 8.3737 1.168 2.445 2.5622 4.7928 3.9329 7.1342 1.6916 3.1625 5.5188 0.3356 7.4609 0.9552 0.85499 2.3619-4e-3 5.6658 2.6773 7.0658 2.039 0.69481 4.1665 0.10722 6.108 1.5787 1.8545-0.82907 2.4093-3.3092 4.3808-3.7335 2.4052-0.91289 3.4473-3.2764 4.8415-5.2808 1.4356-2.2236 4.3648-0.55574 6.1076-2.4681 2.7208-0.28675 4.7534-1.9637 6.631-3.838-1.2879-0.70872 1.2234-1.3365-0.41732-1.598-1.2718-1.6569-1.1233-3.8618-1.6968-5.7694-0.081-1.6763 3.6667-0.98521 2.5533-3.4382 1.0404-2.216 0.22375-4.9385 0.38535-7.3651-0.48306-2.0998-3.1516-2.0978-4.8574-1.9223-2.3952 0.29558-0.67178-2.6494-2.6345-3.595-0.80425-0.46958-1.4113-1.185-1.0532-2.0551-1.3416 0.43613-2.2274-0.55814-0.4575-0.99895-1.36-1.6622-1.8422-4.0354-2.8096-6.0276 0.33749-1.3984-1.8508-1.2694-0.65575-2.8431-0.62018-2.1128-2.0728-3.9249-2.9399-6.0934-0.94206-1.693 1.5746-2.822 2.8273-3.7227 1.1184-0.41219 0.19376-1.2338-0.52661-0.31546zm-0.14258 3.1035c-0.99226 1.0466 1.4614 3.7403 1.0615 1.1098-0.29852-0.96656 1.9978-0.87577 0.53158-2.0239-0.59081 0.11921-1.0331 0.68781-1.5931 0.91418zm3.584 1.6426c0.251 1.8001-2.4182 0.7947-2.4573 1.7878 0.57361 0.62961 1.5221 2.5024 2.0884 0.78159 1.014-0.0122 2.077-2.7508 0.3689-2.5694zm-169.41 70.68c-0.27899 2.3206-3.2761-0.94991-3.7626 1.2131-1.4783-0.31913-3.0458-0.63223-3.8351 0.87689 1.3576 1.0446 0.64078 3.4458 1.7448 4.7511-0.61902 2.0111 2.5619 5.4076 3.6061 2.7585-0.0501-1.0711 0.90579-1.499 1.3852-1.5338-0.65407-0.88721 1.4024-1.1397 0.99408-2.2941 2.5448-0.48578 0.80906-3.1596 0.40066-4.8441-0.70355 0.20449-0.21408-0.6834-0.53321-0.92768zm3.2383 6.1054c-1.6563 0.82481-3.3579 2.101-3.8092 4.4358-1.33 1.7339-4.2004 3.6967-2.6853 6.2506 0.47413 2.5833 2.5112 1.0844 4.1721 1.5092-1.7327 0.52351-1.1626 2.3236 0.55321 2.2598 1.6444-1.0574 2.5913-3.0197 4.7997-3.161 1.6142-0.58106-0.63365-2.8976 1.0258-3.4198 0.65293-1.6993-0.35179-2.2384-1.6583-2.3845-0.74335-1.6305-1.6164-4.1638-2.398-5.4901zm10.262 1.541c-1.3602 0.76242-1.662 4.4084-0.3104 4.6872 0.38266-0.0332 1.0675 2.8786 1.5444 1.6231-0.42114-1.7879-0.28203-3.7688-0.52956-5.6809-0.0623-0.48716-0.17773-0.70841-0.70444-0.62937z"/>
<path long-name="Tillægsmandater" region="TM" short-name="TM" value="40" candidates='[{"candidate":"7","count":5,"margin":0},{"candidate":"8","count":5,"margin":0},{"candidate":"5","count":4,"margin":0},{"candidate":"9","count":4,"margin":0},{"candidate":"10","count":4,"margin":0},{"candidate":"11","count":4,"margin":0},{"candidate":"2","count":3,"margin":0},{"candidate":"3","count":3,"margin":0},{"candidate":"4","count":3,"margin":0},{"candidate":"6","count":3,"margin":0},{"candidate":"1","count":2,"margin":0}]' d="m 386,368 h 108 c 3.324,0 6,2.676 6,6 v 10 c 0,3.324 -2.676,6 -6,6 H 386 c -3.324,0 -6,-2.676 -6,-6 v -10 c 0,-3.324 2.676,-6 6,-6 z"/>
<path long-name="Greater Copenhagen" region="GC" short-name="GC" value="11" candidates='[{"candidate":"0","count":5,"margin":0},{"candidate":"2","count":2,"margin":0},{"candidate":"1","count":1,"margin":0},{"candidate":"3","count":1,"margin":0},{"candidate":"5","count":1,"margin":0},{"candidate":"6","count":1,"margin":0}]' d="m471.18 132.78c-1.43 0.97228-2.6984 2.2149-4.5051 0.99014-0.98819 0.66559-1.7161 2.0178-3.0954 1.8445-1.7248 0.19898-3.5423 0.70654-4.6728-0.48311-1.8917 0.6007-3.367 2.2652-5.4541 2.007-0.46251 1.3124-2.187-1.0175-2.503 0.88758-1.4748 1.0651-0.65656-1.8572-2.2808-0.59604-1.3142-0.0609-1.1034 2.0284-2.6943 1.0787-1.9032 0.14102 1.2379-3.442-1.4655-2.0988-1.0419 1.0682-2.6335 0.40062-4.1434 1.0654-0.63103-1.1337-3.9856 0.95676-4.074-0.86596-1.3742 0.61442-4.2656 1.6152-4.2914 2.7783-0.53005 1.7523-1.4845 3.9606-0.60145 6.0408-0.59132 1.1981-0.9781 3.3996 0.99545 2.0199 1.8922 0.66856 4.498-1.8757 6.0268 0.64941 1.4468 1.6937-0.83614 0.77983-1.5158 0.20954-1.6669 0.85266-3.4348 2.2101-5.012 1.6848-0.48064 2.2907-0.0981 4.7218-0.41441 7.0629 0.86121 2.6196-3.2238 2.9004-4.1868 0.94424-1.0857-1.8985-2.7793-1.3932-4.6103-2.269-1.6942-1.2708-1.154 2.3028-3.0403 1.968-1.6798 1.2497-4.1117 1.1403-5.6648-0.17902-1.6324-0.77753-4.4017 0.50727-5.2749-1.6272-1.7739 1.1894-3.4821-1.0538-5.328-0.19778-1.2835-0.92246-2.859-1.7928-3.4831 0.10251-1.1169 0.2735-1.6599 1.693-3.1825 1.0979-1.6853 0.77367-1.8599-2.0226-3.1372-0.5767-1.377 0.54078 0.19311 3.1896-1.7834 3.935-0.12702 1.352 3.1061-0.737 4.3465-0.86884 1.5373-1.4105 3.7179-0.25335 5.5662-0.2691 1.0919 0.088 1.9135 1.0266 2.9764 1.1501-0.87257 0.96627 0.20845 2.4016 0.37846 3.2814 1.8269-0.99061 4.662-1.2856 4.4484 1.4939 0.68714 1.7454 0.24269 3.3139-1.7652 3.1822-1.3856-0.21053 0.12576 1.5182-1.2225 1.6898 0.37953 2.0706-0.30229 4.6286 1.7257 5.7669 1.2067 1.6063 4.8771 1.0716 3.5934 3.8898-0.84252 1.6639-1.3677 4.5855-3.8333 3.8642-1.8363 0.92259-3.3307 1.9922-4.6927 3.1849-2.3973-1.0032-5.0634-1.5346-7.1167-3.208-2.4433-0.49777-4.488-2.2829-7.158-2.0218-1.3581 0.28819-1.5849-1.8732-2.5053-0.17904-1.821 0.47432-2.2843 2.8478-4.0117 2.8506 0.36991 2.1368-2.9771 1.036-3.0957 3.4318-0.68954 0.86423-1.7075 0.89005-1.8336 2.1192-2.2319-0.32444-4.5726-0.86067-6.8301-0.51053-0.56947 2.1956-2.0506 3.2252-4.277 3.0066 0.45243 2.3655-1.6786 4.6286-3.8559 4.961-1.9584-0.14165-0.13499 1.9497 1.0362 1.5968 0.62387 1.4516-0.94464 3.624 1.2229 4.0201 8e-3 1.1633 1.2028 3.5071-0.90271 2.6437-0.41763 1.7418-0.58957 4.6607-0.55023 6.9597-0.62292 2.2176 3.6867-0.56503 2.4474 2.0875-0.24505 3.0105-0.56131 6.0372-1.6789 8.8728 2.6382 1.1433 5.258 2.4727 8.1851 2.6766 1.7468-0.19339 4.5677 1.9878 4.1667-1.0434-0.18527-1.3023 2.401-1.8905 0.71222-3.189-2.0521 0.12964-1.2921-1.3087 0.24437-0.9684 1.6349-0.14024 5.6378 1.5906 4.2346-1.5207 1.1072 0.0204 2.4446-0.35683 2.6107 1.2207 0.61338 1.0176 1.1271 2.572 2.1854 1.1284 2.5222 0.41869 3.9164-1.7719 6.095-2.5406 2.4018-1.3464 3.4895 2.1278 5.1601 2.3026 1.8985-1.5455 2.2039 2.2386 4.1053 1.5048 0.84183 0.5218 1.6438 0.99107 2.4392 1.1636 1.0125 1.4776 3.5702-0.0636 4.978 1.3521 2.402-0.089 3.0762 2.8966 5.6983 2.5708 0.78295 1.0514 3.3551 0.98617 1.2515 2.2011 0.46842 2.5362 3.38 0.58624 3.8824-0.74541 1.818-1.3235 3.8181-2.4082 5.8347-3.3464-0.34097-2.9169 3.238-3.0761 5.3568-3.0755 1.9628 0.4353 6.4468-0.7863 6.0242 2.3438 0.5322 1.0522 2.4359-0.21253 2.226 1.8204 2.3263 0.29063 4.476 1.2025 6.8511 1.2534 1.8316-0.71051 1.9418 2.6451 3.4066 0.78336 1.9889-1.438 0.61869-4.8503 3.1107-5.353 0.59805-1.2047-1.7652-0.73122-1.2442-2.2722-1.803-0.96258-0.0658-3.5574 0.76737-4.6224 1.0232-1.1997 2.1256-3.9892 0.55555-5.4253-0.84624-2.2665-3.6089-2.81-3.9005-5.4206-1.6646-1.424-3.4637-3.2585-2.4596-5.6352 0.0495-1.2891 4e-3 -2.5814 0.0653-3.8726-2.0929-0.367-1.3699-3.7328-2.8223-5.0195-0.24705-2.6751-0.42791-5.0236-1.1162-7.508 1.3103-2.5819-3.124-2.3303-2.6177-4.9941-0.6056-1.805 1.0881-2.9468 1.6216-4.2205 1.4515-0.88002 3.1612-0.63395 4.4482-1.5877 0.99406-2.258 3.6623-2.3824 5.4609-1.1107 1.3265 1.1338 4.6358 2.2532 4.8874-0.3642 0.37094-2.0628 2.1288-2.2426 3.7596-1.6734 1.7306-0.64569 3.0763 0.76226 4.0917 1.3359 1.5491-0.42884 4.6122 1.946 4.2429-0.92883 0.17179-1.5247 0.26602-2.4195 1.5203-2.9636 0.87649-1.9381 0.30727 2.2225 2.0206 1.488 2.445-0.52045 0.20368 4.6794 2.6738 3.0206 1.4779-1.2042-0.0584-1.574-0.96815-2.1268-0.56869-2.9389 0.83209-5.8025 1.9105-8.4816 0.21558-2.7136 2.9793-4.6251 2.7641-7.3089-1.1252-1.8238-0.46339-4.1707-1.9643-5.7594-0.16155-1.9769 0.34025-3.9665 0.73868-5.8846-0.69092-2.1717-1.6807-4.2763-1.9452-6.5834-0.22795-2.2687-2.4057-2.6619-4.199-3.1342-0.0216-0.0575-0.0993 0.0214-0.07 0.0452zm-34.738 3.5879c0.11673-0.19757-0.10035-0.45488 0 0zm-49.213 43.59 0.0612 0.11379zm-66.371 74.279c-1.7403 0.859-3.9566 0.75526-5.8144 1.4062-1.3907 0.20871-4.7413-1.4324-4.5579 1.3684 0.084 0.77332 3.1668-0.50323 1.3533 1.237-2.2387 0.10355-0.34751 4.4142-3.0077 2.6154-1.2031-1.1519-2.5568 0.97301-4.0234-0.15257-0.83329-0.33803-4.5104-0.80888-1.9277 0.0182 1.0244-0.0133 0.23722 1.1812 1.5797 0.86479 1.3094 1.5741-1.761 2.5076 0.1385 3.6539 1.8951 0.83235-0.26823 2.8821-1.5216 3.0669-1.3442 0.8959-3.4168-1.9258-5.0738-1.0123-1.247 1.2816-2.0624 2.5218-3.9394 2.0431-1.1648 0.9345-2.2303 2.3788-1.1796 4.0801-1.5166 1.0844 0.80273 1.618 0.0275 2.9934-1.4378 1.9626 3.1676 3.0195 2.4742 0.58928 1.1248 0.21709 1.8976-1.1919 2.6665 0.2031 1.8748-1.398 3.6052-0.0831 5.3922 0.80701 1.7475 0.15417 3.9156 2.5534 4.9928 0.056 1.9364-1.3858 3.648 0.11711 5.2342 0.88143 2.6609 0.90294 0.53492-2.2374 2.0615-3.2838-0.46566-1.5323-2.2822-2.7828-2.0362-4.6302-0.60261-1.8508-0.97275-3.7182-1.5986-5.4635 0.84414-1.3264 2.8919-2.2767 4.3371-1.3814 0.77421-2.1389 3.5585 0.79742 3.8289-1.3529 0.63504-2.0058 0.89256 1.4742 1.082-0.66406 1.2913-1.755 0.70712-3.4334 0.65904-5.312-0.0222-0.78704-0.15758-2.6081-1.1473-2.6314z"/>
<path long-name="East Jutland" region="EJ" short-name="EJ" candidates='[{"candidate":"0","count":6,"margin":0},{"candidate":"1","count":3,"margin":0},{"candidate":"5","count":2,"margin":0},{"candidate":"3","count":2,"margin":0},{"candidate":"2","count":1,"margin":0},{"candidate":"4","count":1,"margin":0},{"candidate":"7","count":1,"margin":0},{"candidate":"6","count":1,"margin":0},{"candidate":"8","count":1,"margin":0}]' value="18" d="m254.53 137.63c-1.8188 0.46891-3.6566 1.7104-5.575 0.90396-2.6805-0.2244-1.0081 3.155 0.21083 3.8197 3.0879 0.4397 3.2385-3.7765 5.7254-4.8486l-0.36133 0.125zm-98.488 1.9551c-0.28492 1.1977 1.0416-0.11391 0 0zm7.5 2.0703c-1.7752 0.15615-3.3717 1.7259-5.1309 0.36523-1.9131 0.85319-3.48 2.3346-5.3056 3.3362-1.1328 0.79113-0.97478 3.3154-3.0067 3.3131-2.0092-0.42791 1.3744 1.2716-0.66567 1.2896-0.64963 2.1575-3.3643 2.1032-4.7964 3.7517-1.9141 0.64554-4.4345 2.5057-6.3898 1.4539-0.67267 1.6304-2.3987 2.4579-4.2222 2.6266-0.81433 0.50907-2.2707 0.0981-1.4734 1.7288-0.85682 1.2161-3.072 0.84832-4.2501 1.2303-0.85686-1.5914-2.8336-1.425-2.6773 0.56752 1.1254 2.032 0.0293 4.3595 0.32636 6.5691-0.45978 1.7299 0.60314 3.7284-0.70025 5.2288 0.0413 1.7798-1.9492 2.4398-1.2974 4.2846-0.98764 0.76795-1.263 1.5199-1.2897 2.563-1.3972 0.44706-0.0899 2.4969-1.8573 2.2071-2.0497 0.6862-0.28728 2.6885-0.41229 4.3379 2.2688 0.71646 0.56457 3.1614-1.4368 2.7551-1.3953-0.29172-1.9779 0.77388-0.77248 1.5416 0.19885 1.2731 2.5545 0.0105 3.079 1.5153 1.5916-0.64548 2.51 0.96826 3.9225 0.15338-0.22388 1.4798 0.6058 3.5814-0.17236 4.3181 1.1689 0.8084 1.4416 1.9035 0.77026 2.9207 0.40124 1.1636-0.23398 2.5709-0.29899 3.5668-1.5939 0.39501-0.054 1.6402 0.82144 1.9096 1.2358 0.58445 3.7925-0.81721 4.6995 0.84524 0.22558 1.5257 0.35822 3.9614-1.761 2.9811-1.733 1.151-4.3269 0.20464-5.7726 1.6121-0.4012 1.0523 0.45742 2.6915-1.408 2.8556-1.1206 2.2859-3.7481 3.0606-5.9963 1.6444-2.2518 2.0194 0.86674 4.7163-0.52114 7.0268-1.031 0.0611-3.9106-1.4286-3.9302 0.79782 0.7146 1.3986 2.557 2.5146 1.4722 3.8744 0.34424 1.2214 0.1307 2.5093-1.3124 2.4698-0.37124 2.5598-2.9-2.2168-3.1943 0.46089-0.98729 0.60982-2.622-1.3256-3.1951 0.62861-0.50646 1.1532-2.5797-0.44358-1.0856 1.0596 1.8186 0.92185 1.8863 3.5174 2.5397 4.9379 0.33425 0.94183-0.39357 1.6032 0.69864 2.2788 1.0549 1.311 3.254 0.93286 2.3454 3.2819-0.81934 0.6316-2.5549-0.37685-3.2486 0.93623-1.6975-1.4755-4.3507-0.57074-6.4221-1.5361-0.94129-0.39795-2.6949-1.0412-1.2354 0.40744 1.1222 1.6586 2.5689 2.8824 3.812 4.6201 1.0737 1.2539-1.2932 1.4854-0.15354 2.0884 0.15721 0.73091 0.27388 1.3389-0.43994 1.3757 1.728 0.70815 4.228 0.41044 4.1216 2.9504 0.15135 1.6822 0.86298 3.2594 2.3792 4.0315-0.14568 0.54919 1.1184 0.0767 1.481 0.61732 0.97396-2.2571 3.4695 0.83844 1.9481 1.9257 0.20406 1.7972 2.177-0.61576 3.3096 0.3604 1.2194-0.95164 3.673 0.90146 3.2376 2.5809 0.48501 1.5022-1.5196 3.3269 0.78582 3.8996 2.1037 0.0782 2.6166 3.8285 5.2782 2.8907 1.5367-0.33756 2.7017 1.104 3.753 1.3495 2.0686-1.3478 4.2934-2.5656 6.8462-2.8786 1.9176-0.069 3.7944-0.20851 5.5656-0.98742 1.8857-0.53042-1.993-1.0557-1.0262-2.523 0.53166-1.9603 3.0473-0.98378 3.8326-2.7354 2.5531-0.72397-2.3498 0.0118-2.4241-1.7237-1.2514-2.2696 1.4239-3.4183 2.3051-5.1156 1.3926-1.3223-0.91724-3.0608-2.0742-1.3656-1.1469 0.3341 0.0109-1.648-1.4662-1.004-2.1367-0.47522-4.313-1.2301-6.4573-1.9597-1.1405-0.62684-4.12-0.60812-4.2808-1.5164 1.3228-0.0459 0.24268-2.3789 1.9881-1.606 1.1097-0.97817 2.2358-1.4052 3.5033-0.10707 1.0619-0.81347 2.8493 0.86363 2.6371-1.228 0.63329-3.1073 4.0761-0.0186 5.8824-1.0734 1.6786-0.65081 3.5749-1.1384 5.3315-0.37652 0.23483 1.2352 0.10168 1.2869 0.66109 0.15255 1.7007-0.60727 1.9448 1.9395 1.5001 2.9685 0.67334 0.98961 3.5719 3.5125 2.6477 0.70212 1.6635-0.9005-1.5958-3.7858 0.74688-4.6123 1.4997-0.36747 2.1499-2.6586 3.7105-3.2351-0.22689-2.3611 1.2886-4.8212-0.0602-6.9569-1.3535-1.8112 1.3793-4.1424 0.49344-5.3589-0.32353 1.4207-3.948 2.2929-3.2267 0.20676 1.4716-0.23822 1.9212-2.2619 3.6347-2.2196 0.73667-2.1027-1.0745-3.8095-1.085-5.8627l-0.30629-1.2184c-0.62128-2.1604-1.8109-3.9704-2.8306-5.9871 0.46494-1.9512 0.42504-4.2177 1.9492-5.9316 0.55097-1.8652 3.1848-1.861 3.5524-3.5383 0.52007-1.989 2.4944-2.5486 3.718-3.6456-0.38865-1.2076 1.184-1.2804 0.28296-2.6757 0.53011-1.2067 1.7075-2.0426 2.86-1.9269-0.51864-1.3264 0.15356-3.0793 2.0364-2.6046 1.0156 2e-3 1.9212-0.47941 2.945-0.16329 1.8903-0.84449-0.0267 2.6541 1.8828 1.5736 1.8243-0.53884 4.1594 2.9461 1.8678 3.656-1.2991-0.27147-1.0666 2.468-2.619 2.8498 1.2025 0.73613 1.5314 2.5486 1.446 3.867-1.3245 2.0041-4.0012 1.0786-4.8148-0.75807-0.32593 1.6284-5.3639 1.0257-2.5934 2.8624-0.24704 2.0174 1.7199 3.6368 3.2967 1.915 0.23864-2.7291 3.8262-1.7737 4.9169-0.42933 1.6146-0.0277 2.6633 0.0288 3.3607-1.7378 1.1716-1.4569 1.9196-2.7263 2.7018-4.3833 1.3987-1.66 3.6924-0.95859 5.4998-0.64415 1.3662 0.9076 2.2843 3.2151 1.0759 4.4763 0.31933 1.6811-1.9655 1.7653-2.2805 1.5525 0.19446 2.5999 3.7059 2.084 4.0069 4.1497-1.6692 0.69727 1.7635 0.32453 1.189-1.0694 1.2943-2.2942 0.50449-4.7806 0.753-7.2366 0.33267-1.8542 1.6806-3.484 3.3765-4.2179 2.0276-0.49769 2.5625-2.9736 3.2396-4.7253 0.65783-1.7817 2.8109-1.9338 3.1996-3.879 0.9801-1.5991 2.9513-3.0086 2.71-5.0327-0.20582-2.2609 0.35652-4.442 0.48553-6.649 0.56634-1.5639 0.26348-3.472 2.2442-4.2222 0.62473-1.3398-1.81-3.1077-3.0633-4.0865-2.2754-0.89708-3.0308-2.9252-3.2511-5.2653-1.4416-1.6674-3.6571-2.2688-5.805-2.3838-1.8112 0.42792-3.7315 1.0169-5.6806 0.92717-2.3129 0.13593-4.5349 0.73267-6.7071 1.4712-2.068 0.27943-4.1025 1.004-6.2318 0.69228-1.8662-0.33019-3.5582-1.2441-5.4732-1.4124-2.6276-1.1848-4.519-3.5733-5.9443-6.0165-0.85642-1.6267-0.14043-4.0902-2.5712-4.0093 0.42284 2.3597-2.5537 3.0216-3.2186 5.0134-0.11872 1.8058-2.9314 3.099-1.5499 5.4311 0.90279 1.7194-1.6518 5.1448 1.3708 5.1317 0.90476-0.14029 3.9781 0.22068 2.3771 1.4593-1.9443 0.2862-3.8152-0.0319-5.5883-0.49216-2.611-0.58109-4.6466 2.8561-7.0061 1.7012-1.8373-1.5121-3.881 0.23861-5.4938 0.47958-1.3539 1.1957 0.19525-0.79704-1.2938-0.86401 2.0913-0.37532 3.8852-2.2271 6.1712-1.4788 1.5145-0.65186 1.1529 2.1435 2.6152 0.57658 1.3538-0.96925 3.0651-1.2292 4.4739-1.6853 0.83195-2.2157 1.0206-4.2879 0.28973-6.5621-0.73327-1.8148 0.18383-3.3216 1.3554-4.2263-0.11791-2.3471 2.3366-3.0044 3.1864-4.8068 0.96173-1.6291 3.2197-2.2988 4.5521-3.4792 0.77357-1.1543 1.1011-2.4817-0.0962-3.7793 1.6488-0.70765 0.85775-4.7397-0.7051-4.9329zm-0.51172 10.861c-0.018 2.0681 0.42307-1.4146 0 0zm-1.041 1.3379c0.19739 0.35107 5e-3 -0.29811 0 0zm-6.75 15.859c0.16925 0.77488 0.65686 0.0227 0 0zm-7.041 1.9902c0.7148 0.4802 0.50147-1.013 0 0zm21.594 31.164c0.31149 0.78454 0.30735-0.54871 0 0zm7.9238 7.4199c-0.10036 1.7022-1.3989 2.172-2.8197 1.7945-0.0419 1.6678 1.1654 3.4555 1.7455 5.1156 3.336-0.44966 2.7214-4.6669 1.2946-6.603zm1.6191 20.256c-1.8867 1.4266-2.3042 3.619-1.3509 5.7362 0.3495 1.5176 3.155 0.48538 3.8436 2.3668 0.82718 0.95785 1.0265 2.8365 2.2288 1.1895-2.9001-1.0266-4.0382-4.344-4.3923-7.1474-0.20744-0.59234-0.0455-1.9599-0.3292-2.1451zm3.3711 12.467c0.24444 2.4052-1.2252 4.6592-3.686 4.5464-2.1597 2.0664-0.71514 5.5758-0.95138 8.2015 0.36747 1.9318 1.5976 2.7039 3.4947 2.3836 2.3296 1.7175 2.5808-1.3332 3.4186-2.9121 0.0473-2.2128-0.81301-4.5334 0.477-6.7037 0.0516-1.2646 2.7004-2.45 1.6929-3.1417-1.0301 1.2687-2.9684 0.42064-3.4568-1.3646-0.60874-0.24867-0.54391-2.6799-0.98897-1.0093zm-25.652 1.7305c0.17321 0.52981 0.24579-0.23635 0 0zm-12.271 2.002c-0.78282 0.80384-2.1152 2.7108-0.0742 1.5918 0.96894 0.17097 3.4047-1.6944 1.3692-1.4602-0.42517-0.11225-0.86246-0.0213-1.2949-0.13156zm17.531 10.297c0.25725 1.0662-0.82157 1.7282-0.28649 2.8808-1.3855 0.2926-3.0248 0.38731-4.2318 0.55756-0.35008 1.0391 2.906-0.37786 3.6773 0.76899 1.885 0.97179 1.73-3.8273 0.84096-4.2073z"/>
<path long-name="Funen" region="FN" short-name="FN" value="12" candidates='[{"candidate":"0","count":6,"margin":0},{"candidate":"1","count":2,"margin":0},{"candidate":"2","count":1,"margin":0},{"candidate":"3","count":1,"margin":0},{"candidate":"4","count":1,"margin":0},{"candidate":"5","count":1,"margin":0}]' d="m161.63 277.38c0.96778 1.2306 0.3322 2.8336 1.4668 3.8322-8e-3 1.348-1.718 0.57014-2.0765 1.3982-1.6662-0.35032-1.9735-1.3229-1.2268-2.6922-1.1915-1.3231-4.2772-0.17837-5.2483 1.4279-2.0981 0.19649-3.928 1.6914-5.8298 1.9561-1.9428 0.48283-3.276 2.0334-5.4603 2.1305-1.0521 2.0151-3.606 2.5397-5.0872 4.2646-1.2805 1.487-3.2462 2.0273-5.1403 1.6399-2.4274 0.2603-4.4875-2.077-3.5164-4.4109-0.4382-2.4769-3.294-0.15015-4.5007 0.35751-1.2584-0.29398 0.48551 2.1707-0.97807 2.5834-0.50516 3.4853-3.9671 1.2533-5.6735 0.43722 0.37703 1.4591 1.9832 2.1182 3.3654 2.2252 0.24516 1.5704 1.4193 3.7491 3.1948 2.8015 1.6035 0.5973 1.7567 1.7943 2.4718 3.3093 1.3853 0.24368 1.2683 1.6872 0.92004 2.369 1.6648 1.1524-1.1061 2.2577 0.31767 3.0876 2.8204 2.0038-0.58989 4.2076-2.7613 4.0759 1.4949 1.4122 4.4331 2.8066 6.0283 0.71484-0.16657 1.6384 0.93541 2.0062 1.92 2.894 0.14499 1.6914-2.5203 0.32481-0.93715 2.0786 0.96083 2.0138 0.0668 4.1997 0.29068 6.3208-0.87682 1.3161 1.405 1.9741 0.37885 3.312 1.8737-1e-3 1.262 3.6403 3.7966 2.7497 2.2117-0.17119 2.3895 2.6586 4.5392 2.8751 0.16184 2.0013 2.2063 2.4702 4.0997 2.3577 0.67948-1.7704 3.4814-2.4881 3.336 0.26947 1.1291 1.8556 1.7742 3.3104 3.0089 5.1777 2.297 1.4972-1.6164 2.4049-2.7988 2.7498-1.1871-0.11655-1.5206 2.2737-2.8585 1.2444-0.22041 1.0581-1.6018 3.6604 0.56372 2.1723 1.6533-1.5673 3.3687-0.872 4.9702 0.31079 1.899-0.92993 2.2161 2.6692 3.7136 0.58663 0.1582-1.2969-2.595-1.7926-0.63283-2.9409 1.3485-1.6662 2.9806 2.003 4.7771 1.7644 1.0253 1.188 1.7534 2.4635 3.2406 2.8896-0.18658 1.2483 1.6397 0.82693 2.1201 0.87329-0.0204-1.1348 1.385-2.2898 2.269-0.60138 0.55291 3.2676 4.4955 1.298 6.6347 2.2469 1.2565 2.7056 3.8568 0.61724 5.7208-0.14728 1.6377-0.4346 2.8361-1.3024 3.3066-2.8301 1.585 0.58721 3.7204 1.3666 4.8186 0.16132 1.6955 0.0185 3.9623 0.21355 4.5603-1.8841-0.37579-2.1185 1.7584-2.7796 1.7402-4.7655 0.36386-2.068 0.5546-4.1222 1.3656-6.077 1.029-1.7375 1.0815-3.9908 0.89195-5.9909 0.73111-2.0219-0.80176-3.9796-1.2923-5.9334-0.72642-1.1582 0.88908-3.4227-1.4859-2.9003-1.117 0.2197-2.9916-0.8605-0.94067-1.2191 1.0764-0.40257 2.3857 0.0808 2.424-1.486 1.1578-0.84097 1.4408 1.1845 2.6308 1.2093-1.8119-2.017-1.2987-5.1868-3.0056-7.3497-0.89714-2.149-2.536-3.5953-3.8937-5.4566-1.5864-1.073-2.3987-3.1974-4.042-4.2747-1.4794 1.5343-3.3433 0.38306-4.6789-0.72167-1.4812-1.7784-0.925 1.8771-0.63152 2.6556-1.0155 2.5589-3.2979-1.1394-3.7858-2.4113 0.87136-0.74374 0.86931-1.9842 2.4927-1.9978 1.2535-1.4542 2.8345-0.52262 3.3327 1.1069 0.68428 0.20355 0.99728-1.1811 2.0334-0.31152 1.1076 1.0896 0.76921-2.319 2.5014-1.8114 1.0023-1.7061 2.8799-0.62246 4.1034-1.4152-0.59425-1.7458-2.5904-2.6354-2.924-4.6316-0.39237-1.6764-0.18502-3.1284-1.7826-4.2597-0.82088-1.7702-2.3376-5.0301-3.3427-5.6272 0.80784 1.5675 1.6958 4.6079-0.16224 5.6055 0.15612 0.54964-0.15682 2.773 0.81109 3.6571 0.10544 2.4995-3.0953 1.1915-3.2239-0.45444-1.4426-0.069-1.3587 1.6133 0.16098 1.2633 1.8092 0.48129 3.5421 2.3551 2.4916 4.1621-0.56067 1.3792-1.5269 1.0748-2.4437 0.60031-1.2569 0.3307-2.3486 1.9869-3.6025 1.0811-0.41193 1.9297-2.6456 0.42442-3.2349 0.70821 1.8243 1.4384-0.95622 3.9214-2.2218 3.6105-0.73382-1.0379-1.3762 0.82153-2.3875 0.28484-1.3184 1.0382-4.132 0.98511-2.7174 3.2963-0.81854 0.9535-2.1608 0.60505-1.5948-0.89266-0.61455-1.7091 1.9046-2.4009 3.0718-3.1298 0.48928-2.0071 0.93024-4.2447 2.2943-5.6498 0.28095-1.9 2.3099-0.20722 2.6041-2.1336 1.561 0.55327-1.008-1.2244-0.57446-2.2905-1.8265-0.58179-0.0567-2.0616 0.71765-2.7441-0.42885-2.137-3.5945-2.9364-4.748-5.0111-2.0131-1.4909-4.5169-2.2168-6.422-3.9024-0.44419-0.37724-1.0446-0.61608-1.6325-0.53104zm-38.717 20.83c0.53183 1.1029-0.56571 1.8369 1.2377 1.7065 1.7664 0.26956-0.83302-0.96647-0.89373-1.5812 0.23786 0.15482-0.87218-0.55227-0.34401-0.12525zm4.8301 16.141c-0.23511 1.2726-2.2274-0.47715-1.149 1.247-0.52845 1.8405 2.4914 0.48765 1.1995-0.87136l-0.0507-0.37565zm12.301 19.746c1.2568 1.5665-1.953 3.2531 0.68378 3.744 1.6776 1.091 2.768-0.77614 1.2871-1.9663-0.19881-0.26031-2.4777-3.35-1.9708-1.7778zm66.41-0.10743c-1.8613 2.0629-2.535 4.5441-3.8531 6.9591-0.75744 2.1106-0.75193 4.5237-1.7689 6.5676-0.60341 2.2612-2.0637 4.1756-2.9762 6.3095-0.90135 2.7977-4.1124 2.2277-5.4077 4.7322 0.4238 1.0564 0.0967 1.3112-0.64751 0.79923-0.73917 1.9765-2.8588 3.1041-3.2955 5.1704-0.55661 1.088 1.1776 0.3984 1.3212-0.24207 1.1438 0.12567 0.58607 1.7002 1.5634 1.9442-0.911 1.0533 1.9482 2.6924-0.46469 2.8398-0.94544 0.11516-0.9902 1.724-1.8837 0.45847-1.0649 0.15085-1.2382-1.9626-1.2932 0.12575-0.5926 1.0141 0.42199 2.5021 3e-3 2.8585-1.1505 0.45238-1.892 2.9104-2.8023 2.4006 1.4238 1.3848 2.7445 3.3003 2.3041 5.3913 1.2827 1.5984 0.98414 3.418 0.77731 5.0776 0.97482 2.8811 3.7936-0.0395 3.8069-1.9303 0.76007-2.0762 0.89428-4.3218 1.9018-6.3126 0.60162-2.3438 1.1005-4.7259 2.2053-6.9213 0.65529-1.6756 1.6322-3.3701 1.3226-5.236 0.92585-1.9442 0.9679-4.1979 2.1315-6.1081 0.5766-2.5898 3.697-3.7706 3.4738-6.5216 0.64324-2.5365 1.6688-4.9226 2.1537-7.5036 0.96528-2.9487 1.005-6.1156 1.8594-9.1079 0.20006-0.63645 0.21213-1.3683-0.43117-1.7505zm-56.783 13.008c-0.3009 1.7566 1.7897 2.7036 2.8106 1.248-0.75753-0.68684-2.4978 0.028-2.8106-1.248zm34.543 0.61718c-1.5086 1.4471-2.8483 2.6055-4.5029 3.8633-1.0998 0.32015-1.6231 1.7886-2.673 1.5708 2.2025 0.46876-0.60291 3.3084 1.8984 4.2846 0.65831 1.0322 1.1388 2.1605 2.3041 1.1011 1.3511-0.1062 2.7496 1.5581 3.1383-0.51185 1.2527-0.39661 2.0831-1.8609 0.19587-1.7325-2.2397-1.5849 0.68993-3.036 0.74489-4.8161 0.31534-0.86874 1.4328-1.4361-0.11343-1.7203-1.1795-0.76005 0.63208-1.6091-0.99223-2.0391zm3.0116 8.6028c-124.82-237.48-62.408-118.74 0 0zm-29.273 5.1121c-0.20046 2.279 2.0926 3.5245 3.0856 5.3629 2.1912 0.82211 3.0782 3.0328 4.4708 4.716 1.2806 1.4921 3.4289 3.1824 4.8077 3.7271 0.33221-2.7871 3.6574-2.9272 5.9507-2.9993 1.0829-0.96611-1.2494-3.3935-1.8595-1.5493-0.7116 0.44978-1.1489-1.7196-1.8899-0.17967-1.161 1.2436-3.1619-1.4652-3.4463-2.8729-0.51559-2.3237-2.2176 2.4724-3.1856-0.10517-0.65485-1.2501-2.8708-0.89862-3.0445-2.8735-1.2059-1.5609-2.5126-3.6415-4.7282-3.5974-0.60744-0.63921-0.14823 0.19105-0.16084 0.37122zm25.809 12.771c0.33124 0.3406 0.26969-0.12839 0 0z"/>
<path long-name="North Jutland" region="NJ" short-name="NJ" value="15" candidates='[{"candidate":"0","count":7,"margin":0},{"candidate":"4","count":3,"margin":0},{"candidate":"1","count":2,"margin":0},{"candidate":"5","count":1,"margin":0},{"candidate":"2","count":1,"margin":0},{"candidate":"3","count":1,"margin":0}]' d="m183.28 5.6348c-2.5948 0.29567-4.9326 1.9208-6.7559 3.7006-4.0437 3.4028-8.0066 6.8923-11.939 10.424-1.7602 1.5959-3.9691 2.5684-5.8892 3.9398-2.2359 0.6931-4.301 1.8068-6.4929 2.6282-2.2744 0.81369-4.5672 0.6147-6.9168 0.55654-1.4837-0.16906-2.6792 0.158-4.6193 0.0604-1.6635-0.57157-4.4568-0.67837-4.9703 1.8739-1.7041 2.9552-2.9489 6.2374-5.4221 8.6765-1.3959 2.0308-3.9223 3.1976-4.5871 5.7105-1.8787 3.7394-2.9922 7.8534-5.1734 11.449-1.4601 1.8597-2.0892 4.3036-3.5622 6.2112-2.283 4.2568-5.0111 8.26-7.7432 12.239-1.7619 2.6297-4.696 4.0619-6.961 6.1945-2.3374 2.1866-5.1903 4.3465-8.5766 4.0862-2.2896 0.44169-4.3264 1.8896-6.7656 1.7806-3.9367 0.66031-8.1581 0.66587-11.821-1.0977-1.7659-1.2587-3.5843-0.80204-5.5094-0.85925-2.4469-0.45514-3.82 2.573-5.9301 3.4153-3.2377 2.2098-7.0798 3.3841-10.897 4.0813-1.9921-0.17174-3.6655-1.4135-5.4925-2.138-1.8791-0.47252-3.8982-2.0467-5.5733-0.36738-1.5196 2.5049-2.7547 5.2265-4.6679 7.4925-0.75064 1.5983-2.4989 1.9565-3.7401 2.4399-1.5668 3.2807-3.5278 6.3946-5.7128 9.2994-1.8546 1.072-2.6744 2.7508-3.5985 4.7057-1.7802 3.4413-3.3526 6.9951-4.9513 10.523-0.78444 2.2672-1.4146 4.5998-2.1624 6.8642-0.52155 2.3196-0.37808 4.7387-0.62693 7.098-0.65541 1.1319 1.2751 3.286 0.87421 1.0201 0.21792-2.3268-0.16524-4.771 0.55001-7.01 1.4498 0.55085 4.0218 2.2238 4.131 4.3655-0.1179 2.0182 0.59046 4.1179 2.1628 5.4243 0.98967 1.6809 1.3383 4.2829 3.6744 3.5428-0.76694-1.8368 1.8419-0.45511 2.4568-2.0029 1.8431-1.6263 3.8368 0.0822 5.3652 1.1973 0.3124-1.1129-0.34873-2.1993 0.15468-3.0752-1.2598-0.29769-4.354 0.40033-2.5588-1.7993 0.35198-1.4366 1.3179-3.3415 1.0233-4.5419-2.4418-1.6859-1.496-4.791 0.95523-5.7444 1.1296-0.60514 1.9858-0.73256 2.1171-2.0244 1.693-0.27229 3.2902 0.0896 4.0771-1.8226 1.2772-1.508 2.5169-3.222 2.2382-5.1156 0.20097-1.2671-0.28095-2.5324 0.99694-3.5899-0.68643-2.0602 2.3689-2.598 1.2426-4.5737 0.09005-1.6645 1.4745-2.5442 2.6381-2.495 1.6535-0.65963 4.0119 1.745 5.9003 0.61365 0.88984-1.6018 2.8996-2.2395 4.5445-2.9368-0.12016-0.55582-2.691-2.8286-0.04068-2.9035 1.7632-0.66665 4.0871 0.42586 4.9027 1.325 0.33393-2.0301 2.382-3.3038 4.1727-2.938 0.77622-1.6993 3.431-2.6905 4.964-1.591 0.45719 1.0488 0.2472 1.5006 1.2472 0.42338 1.7465-1.3575 4.0261-3.3185 6.2752-2.8496 1.2502 1.6002 2.6391 2.1703 3.9917 3.8618 1.1343 1.5382 3.0942 3.043 4.888 1.4962 1.5706-1.3507 3.415-2.611 5.5239-3.4173 1.8992-0.24776 4.7472-0.95466 5.5486-2.4825 0.25843-1.4033 1.2296 1.3587 2.3579 0.15612 1.8752-0.92437 3.5979-0.27634 5.6737-0.50698 1.3109 0.34202 2.3042 0.59779 3.0347-0.66776 1.8886 0.74155 3.2298-1.6176 1.3612-2.7474 0.84456-1.5551 2.369-2.2059 3.9678-3.0882 1.209-0.96701 3.631 0.32057 1.7362 1.3-0.94427 1.0011-1.6746 1.7248 0.21056 2.135 1.4218 1.3238 4.7611 0.77472 5.0487-1.5095 1.1988-1.1435-0.23328-4.3563 2.2277-3.2575 2.0071 1.1165 3.6944 2.114 5.2865 3.7431 1.2355 1.6193 3.2131 2.0197 4.9027 2.8751 1.593-0.51553 0.0385-2.4751 1.8422-3.0219 1.5569-2.2467 4.7214-1.7458 5.5964 0.76842 1.4112 1.3618 3.0295 2.0977 4.5242 3.1143 1.6671 1.1839 2.8919 2.9137 4.5587 4.1212 1.202 1.6341 2.8583 3.3592 4.9351 3.6919 1.9499-0.30104 3.9714-1.5242 5.9814-0.38151 1.2138-2.0857 1.9952-4.5617 2.5555-6.9284 0.6901-3.2819 1.5036-6.5449 2.2257-9.8051 1.093-2.5448 1.8844-5.3724 3.6941-7.5889 1.1912-1.7855 2.6913-3.4534 4.6344-4.4083 1.5996-1.0355 2.0704-3.0719 1.9056-4.8799-0.0739-3.2261-1.4329-6.2878-1.5202-9.4934 0.0349-1.8443-1.0247-3.8687-0.86441-5.8956-0.24018-2.0083 0.47656-3.9975 0.86582-5.8642-0.80803-2.2324 2.423-3.2787 0.91127-5.1796-1.0372-2.1378-2.6683-3.7699-3.6124-5.9005-1.2966-1.2753-2.3316-2.9072-3.0753-4.526-1.5543-3.1101-1.874-6.8677-0.48138-10.114 1.7157-4.042 4.3251-7.6696 7.1555-11.006 1.3613-1.6378 3.1112-2.9107 5.0053-3.8562 0.85539-0.91415 3.7841-2.5227 0.85572-2.6455l-0.45989 0.021992zm37.248 55.848c-1.7525 1.1294-3.9821 0.73178-5.9719 0.89379-2.2164-0.92828-2.6528 2.5442-5.0762 1.5893-1.5934 0.44234-3.9363 0.15612-4.5055 2.286-0.30022 1.5823-4.5875 2.77-1.9972 3.9145 1.6975 0.80841 4.0176-0.19277 4.9239 2.041 2.207-0.625 0.17202 2.8421 2.4811 1.9001 1.5125-0.46526 3.9934-1.2588 4.446-2.7086 1.4279-0.90544 2.9289-4.1415 0.62517-4.5142-0.66073-1.8547 2.1242-2.7966 3.6386-3.0042 1.8277-0.41198 3.65 0.28419 4.69-1.7687 0.55779 0.56402 0.4198-1.2442-0.6731-0.49902-0.91879 0.26373-1.9701-1.2967-2.5808-0.12985zm-80.092 31.801c-2.2295 1.1774-1.1331 3.0371-3.5641 3.6849-0.5892 0.93301-2.0902-0.66729-2.6454 0.32981-0.28984-2.7439-3.2668-0.64628-4.3623 0.4431-2.2256 0.39609-4.3793-1.9682-6.5599-0.53088-2.0216 0.73282-6.2319 0.49697-5.4072 3.7802-0.56123 2.203-2.8987 3.3903-3.536 5.5378-0.45933 2.0804-3.8787 0.82457-3.2307 3.3375-0.0194 1.3029-0.65027 4.9346-1.991 2.1648-0.87488-1.4233-2.5465-3.3484-0.91962-4.8008 1.5936-0.19118 1.031-1.8772 2.263-2.6924-1.8026-1.4214-3.9226-2.866-6.2555-3.1485-2.2817 0.13279-4.539-0.51956-6.7054 0.52926-2.3047 0.2431-4.2807 1.4471-6.509 1.8851-0.20564 1.7518-0.71217 3.6198-2.8669 3.4567-1.3655 1.3558-1.923 3.4399-3.5849 4.5407-1.0129 1.4692-2.7548 3.9983-1.7997 5.6647 2.34 1.0388 3.6267 3.9191 2.3074 6.28-0.881 2.1882-3.247 3.9028-1.2688 6.1574 0.18113 1.4198-0.30134 2.6432 1.6186 2.6919 3.0135 0.34742 2.8264 4.1764 1.304 6.0273-1.1226 2.0465-3.0562 3.2875-4.4095 5.1098-0.97975 0.85236 0.80045 2.0075 1.2093 0.57342 1.6716-0.96921 3.1229-1.9889 4.818-2.6714 2.5173-2.0925 4.3364 0.97833 4.9948 3.0338 1.9428-0.82613 2.8718 1.3762 4.9058 0.63016 0.54175 0.72301-0.60346 2.1307 1.2576 2.1308 1.3913-0.067 0.76514 2.0426 2.1486 1.0442 0.64328-1.4544 0.75808-4.3366 2.257-4.592 0.8531-0.12182 0.88156-1.4874 2.2887-0.87307 2.0866-0.058 1.5124 1.7732 2.6412 3.05-1.6522 1.7106 3.0528 0.99368 2.0441 3.0926 0.73818 1.5298 3.6049-0.22108 5.1811 0.49382 2.338-0.29203 3.2933 3.672 0.42027 3.4992-0.59915 0.49579-0.76757 2.5761-0.77598 2.7976 1.3761-1.0328 3.6022-1.7719 4.9967-0.23571 1.4972 0.5114 1.8068 3.9849 3.5854 3.2364 1.4766-0.77784 3.5465-0.57851 4.5173 0.62715 0.9233-0.90957 3.2859 0.59867 2.5466-1.4009 0.86521-2.2889 3.7817-0.70684 5.3402-2.4973 0.0391-1.5162 1.1871-2.2853 2.4316-1.1177 1.7864-0.68407 3.903-0.9154 5.615-2.0754 1.0101-1.6435 4.2166-1.4397 3.5256-3.6391 0.11648-2.3288 3.4378-0.39855 2.666-3.004 0.70713-0.69139 0.90584-1.6681 2.2505-1.6263 0.47616-1.5216-1.5194-3.3731-3.0672-3.3282-2.0307-1.3112-0.92474 2.2853-2.854 2.4977-0.88101 2.3616-3.0351-1.6142-3.6421 0.51004-0.41773 2.2184-3.014 1.2829-3.7164 3.2142-0.51424 1.3428-1.9476 0.16224-2.8582 1.328-2.1767 0.69526-5.0172-0.20499-6.9033 1.1754-1.2002 0.44448-2.5048-0.16682-3.7912 0.11706-2.1182-0.83488 1.7902-2.3929 2.8332-2.1565 1.7886-0.53168 4.0267-0.38764 5.8233-0.83799 1.5482-0.15654 1.1374-2.1402 2.6436-1.6486 1.0577-1.8917 3.3777-1.2754 4.0083-3.2883 1.4885-0.60998 3.2145-1.6886 4.6696-0.56054 1.0449-1.5613 3.1006-3.4404 4.9028-2.8943 1.917-0.6469 0.40564 2.7157 2.6379 1.9061 0.81618-2.199 3.0381-2.2339 4.6018-1.0445 1.5971-0.0264 3.5195 0.64018 4.7594 0.5547 0.42021-2.292-2.5357-3.7366-2.6441-6.0777-0.44785-2.0047-1.0274-3.9045-1.2574-5.961-0.37494-2.7924-0.69154-5.514-0.75798-8.3388-0.22423-2.1932-0.32973-4.1732 0.2659-6.3448-0.069-2.1169 1.1662-3.9323 1.2-5.6802 1.2204-0.61043 1.438-2.4028-0.33167-1.6182-2.3668 0.72677-4.9109 0.18356-6.8893-1.303-1.9529-1.4382-3.8371-2.8851-5.2172-4.8361-1.0732-0.74484-2.2796-1.9418-3.204-2.276-1.741-0.1728-1.632-4.4317-3.9542-4.0326zm-11.215 0.47266c-3.2528-0.03212 0.94019 3.1189 1.484 0.92573-0.33667-0.57274-0.79618-0.92524-1.484-0.92573zm-65.65 14.105c0.21794 0.57079 0.11625-0.15659 0 0zm-1.1504 1.7324c-2.0578-0.34318-3.5397 1.614-3.7776 3.5998 0.20244 3.241-3.3198 2.8676-5.4743 3.3826-1.1474 1.8658-3.4377 0.43245-5.1878 1.2496-1.868-0.9634-2.8162 0.77715-1.9598 2.2595 0.74561 1.5017-1.7121 2.7544 0.04454 3.569 0.51787 2.246-2.5747 0.69137-2.4072 1.7222 1.6864-0.0587 5.0567 0.78883 3.182 3.0741-1.637 1.5158-3.6895 1.8661-5.7166 1.2141-0.53268 0.60526-1.9352 1.1875-1.9911 1.4717 0.4522 1.4152 1.2844 4.0635-1.1695 3.6952-1.0069 0.48138-2.8448 2.1544-1.615 2.3615 0.84321-1.367 2.0839-1.9412 3.2486-0.48227 1.1064 0.28154 2.7847-0.17792 3.021 1.7209 1.3407-1.1138 2.9991 1.0568 0.9781 1.4062 0.5672 1.4821 2.2461 2.4779 1.6808 4.2716 1.6802 0.94566 3.9473-1.7394 6.0318-0.99362 1.3929-0.55753 3.0484-1.0534 2.2774-2.6834 0.99643-2.3132 3.703-3.1511 4.3281-5.4863 0.79757-1.2376-0.22093-3.4447 1.9383-4.1193-1.989-1.8313 3.0676-1.9653 0.43954-3.4656-2.1452-1.8669-1.368-4.9172-2.6574-7.1432 0.17557-1.8815 2.0073-4.5989 3.8591-2.6128 2.3655 0.42848 1.0401-3.1957 2.6663-4.2563-0.77128-1.1378-0.12912-3.5759-1.7394-3.7551zm30.379 36.426c0.99398-0.30247-0.672-0.88418 0 0z"/>
<path long-name="South Jutland" region="SJ" short-name="SJ" value="17" candidates='[{"candidate":"0","count":6,"margin":0},{"candidate":"1","count":3,"margin":0},{"candidate":"4","count":2,"margin":0},{"candidate":"2","count":2,"margin":0},{"candidate":"5","count":1,"margin":0},{"candidate":"9","count":1,"margin":0},{"candidate":"3","count":1,"margin":0},{"candidate":"6","count":1,"margin":0}]' d="m85.992 235.83c0.34326 1.9966-2.3592 2.1511-1.5411 4.4752-1.1869 1.6823-2.8089 2.8904-3.4354 4.8314-1.626-1.075-2.0642 3.1503-3.5253 0.94598-1.3463 0.1838-2.0673 3.1647-1.4606 4.2216-1.0642-0.87084-1.9621-1.13-2.3127 0.46757-1.1872-0.77547-2.0331 0.49134-2.8537 0.94221-0.84198-2.0109-4.3508-0.52524-4.1134-2.6594 0.91988-2.067 1.3102-5.8608-2.0562-5.2334-0.96448-0.0135-2.3566-0.7765-2.7042 0.14405-1.7171-1.3031-0.83971 2.3099-2.7435 1.3886-0.33173 1.9847-1.0698 4.2092-2.5533 5.0126 0.94647 0.99472 3.4154 2.1283 0.82336 2.7674-1.706 0.37071-3.3659 1.7063-4.8807 1.2777-0.87957 0.25258-1.765-0.84661-2.4638-1.1958 0.02156-0.98962-1.7131-1.1098-1.0222-2.4552-0.94921-1.0378-2.0992-1.5067-3.5398-0.97371-1.9074-0.39785-3.094 1.6421-4.7054 0.94329 0.02813-1.6341-3.8448-1.708-2.2118 0.29738 0.51737 1.2364 0.09151 1.2916-0.66552 1.9288 0.51419 0.98026 0.28556 1.6739-0.60717 0.63002-2.3927 0.0694 0.22555 3.2418-1.7085 4.1169 0.26491 1.719-2.3715-0.63403-2.1861 0.96823-2.6853 0.63217-2.6991-2.6905-4.9562-2.8838 0.4527-1.8918-4.8301 0.54333-2.812-1.5631-0.94535-2.7667-2.1049 0.3028-2.6913 1.1153-2.1387 0.15746-4.481 0.99062-5.8121-1.3134-1.1597 8e-3 -2.7245-0.7253-1.8259-2.1342-0.935-0.73194-3.1313-1.0093-1.6071 0.53764 0.67483 1.7484-2.1106-0.27481-1.1328 1.8084 0.96047 7.3542-1.7005 14.487-3.7828 21.416-0.97652 2.9444-1.7421 6.0126-3.3054 8.7149 1.6462 1.1267 3.6882 1.8098 5.5367 2.6385 2.3203 0.58511 3.9836 2.4919 5.7923 3.9637 1.3167 0.69106 2.763 3.4016 3.9262 3.046 0.53421-2.0536-1.9615-3.047-3.1378-4.3724-0.50724-0.69239-1.0896-1.6512 0.27712-1.6273-1.8437-0.77553-2.1922-3.3428-1.6261-4.9945 0.93195-1.5264 2.2789-4.5694 4.6253-2.9186 2.1369 0.68444 2.4462 3.3028 0.10286 3.3833 0.92291 1.8189 2.3999 3.3003 3.7102 4.8854 1.1954 1.4285 2.577 2.6016 3.6269 4.1622 1.389 1.3127 2.4964 3.3505 3.7075 4.2393-0.25512 1.5418 2.1798 0.30014 2.04 0.42402 1.1665-0.0533 2.6071 0.78109 3.7724-0.22439 1.87 0.64708 3.3031 2.1553 5.0827 3.139 1.6512 0.51192 1.2561 2.8964 2.1518 3.4306-0.23764 1.8533 0.98238 4.0409 1.2958 6.0247-0.03103 1.1022 1.0222 1.4306 1.4289 2.1937-0.19804 0.8332 0.8006 1.2631-0.32446 1.7164-0.38425 2.0264-1.7815 3.8844-0.80256 5.963 2.1426-0.16682-1.2109 2.8273 1.0047 1.9938-1.1858 1.6555-0.92374 3.1784-0.55708 4.8269 0.32762 1.5213 0.3274 3.1654 0.89882 4.5768-0.01339 1.7404 1.4906 4.3615-1.3622 4.0067 1.0509 0.0991 2.7955 0.84309 1.3937 1.8984 0.62412 0.73462 1.7178 1.2161-0.08164 1.2597-1.1354 1.5058-1.0428 3.7865-2.3221 5.3258-0.27179 2.1374-1.0621 4.2953-0.66866 6.4231 0.61344 1.74 0.94029 3.5718 1.6498 5.2791 0.0458 2.0988-0.23104 4.1808-0.94706 6.2036-0.55243 1.3315-1.0266 3.7533 1.2667 2.5986 2.3293 0.0437 3.7243 3.3214 6.118 1.737 1.713 0.87099 3.1347-1.8858 5.2629-1.1931 1.0507 0.62003 1.583 1.6504 2.8723 0.73058 1.749-0.89239 3.8034-0.14195 5.7256-0.0923 2.1918 1.1325 4.7428 1.7456 6.5335 3.5255 2.5983 0.58209 5.1333-0.69217 7.6897 0.27367 2.0691 1.2551 4.6998 1.4593 6.4515 3.1044 0.24353 1.2564-1.0998 2.4566 0.25963 3.7418 1.2626 0.66886 4.0488 0.55731 5.8161 1.1481 0.98542-1.0508 2.4584-1.7839 2.4407-3.418 0.89236-1.0833 3.4346-1.7265 4.0264 0.0754 2.5012-0.78503 4.1688-2.6481 5.603-4.7949 1.0663-0.44627 2.2475-1.8522 3.5688-0.7509 1.5942-0.95099-0.27432-3.4559 2.173-3.4407-2.2637-0.67914 1.4393-1.459 1.2658-2.3889 1.0357-2.6871 4.0498 0.26793 5.1351 1.4277 0.35614 2.1525-2.3212 1.6032-3.1391 0.91838-2.2288-0.0728-0.94796 1.6543 0.39968 1.671 0.3659 0.96814 0.95917 1.2098 1.5809 1.8518 0.23425 1.3882-2.6759 2.3483-0.1018 2.7681 2.0646-1.047 3.6401 0.78492 4.6654 2.1351 2.3466 0.24904 1.6118-2.5492 0.38086-3.5136 0.5931-2.4894-4.2652-1.1229-2.5453-3.9979 1.3024-1.936 4.7705 1.7521 5.1587-0.95511-2.2388-1.1593-1.7983-4.2936-1.9886-6.561-0.79642-1.218-0.80555-3.1844-2.8841-2.448-1.9922-0.11867-3.6281-2.441-5.6111-3.0177-1.1265-0.72539-1.4638-4.1928-2.866-3.1648-1.3433 1.2901-4.0494 0.86463-5.2045 2.7892-2.3862 0.22055-4.7803 0.0913-6.41-1.5553-0.25914-1.1944-0.16822-4.6047 1.3283-2.59 1.4348 0.3508 2.3694-1.4788 4.0466-0.67115 1.6325-0.32467 3.0776-2.3624 3.6459-3.8206-1.0301-1.3581-1.9788-2.7133-3.4128-3.6011-0.6168-0.20282-3.4584 1.302-3.0085-1.0228 0.19687-2.2056 2.9543-1.7118 3.3666-1.3669-0.82544-1.5741-1.3109-4.0371 1.2513-4.2379 2.3396-1.0604 3.7748-4.5292 6.6692-3.6785 0.94449 0.29479 1.8455 0.53633 1.963 1.7917 0.98555-1.4719 4.1646-1.2879 2.9974-3.5724-0.39545-1.6194 0.44401-2.5161 1.4725-3.3683 0.27477-1.3607 0.54542-2.6543-1.1844-3.2558-1.5851-0.74246-3.8853-3.2037-4.7952-0.61278-0.7798 0.6136-2.4434-0.0572-1.6816 1.4858-0.93902 1.862-3.055 1.9656-4.989 1.7064-0.87999-0.94353-2.6142 0.85882-3.0132-0.50023 1.6176-2.3017 4.7571 0.63843 6.0528-1.6678 0.46373-0.77514 1.0179-2.3243 2.5834-2.0143 0.42425-1.4955 2.3506-2.4035 2.7597-2.7124 0.18662-1.7914-3.0634 0.40157-1.899-1.6927 2.3049-0.81194 2.0222-4.544-0.38364-4.7812-1.779 0.0585-3.8177-1.0147-3.8535-2.8897 1.3644-1.1952 3.8385 2.1843 3.8808-0.74565 0.18355-1.9618-3.9235-4.8838-0.46868-6.3344 2.1527 0.32243 3.6576-1.3472 5.0763-2.6226 1.0735-1.0936-1.3269-1.8629-1.6672-2.9424-1.2781-1.596-3.3194-2.3418-4.7057-0.39649-1.637-0.84591-3.4163-0.77135-5.0451 0.32717-1.0332-0.98326-2.4805-0.31907-2.9931-1.5331 1.362-1.2014 2.9332-2.0028 4.8894-1.1456 0.99628-0.0446 3.5575-0.25504 1.3581-1.108-1.9338-0.36895 0.37779-4.0268 1.7827-2.2387 0.82908 0.45456 2.0994 0.29177 1.8887 1.5625 1.2725-0.52998 2.535 0.4259 3.2086-1.4178 1.1468-2.2683 4.9759 1.9513 5.0002-0.12471-1.0082-1.7043-1.3568-4.9421 1.4964-4.4919 0.91219-0.20612 1.3641-2.006 2.1434-2.7418-0.0626-2.2728 3.4672-2.921 3.9539-4.3722-2.1799-0.92789-4.7069 0.94315-6.7026 0.0365-1.9788-0.67158 0.40844-1.7064-0.57795-3.0939 0.0268-2.629-3.9876-1.2909-3.8951-4.1341-1.4206-1.6924-4.0518-1.2919-6.2371-0.85374-1.615-0.19068-4.1644-1.6135-3.7793-3.1151 1.0345-0.14484 1.9702-0.76304 2.9969 0.28721 1.9339-0.57663 3.8456-0.24184 5.7249-0.81683 1.0443-1.1844 1.3499-3.8273 0.0819-4.5077-1.4633 0.55841-2.8548-0.83884-4.2736 0.40172-1.3861 0.41749-1.3824-1.5454-1.7515-2.2275 1.7836-1.5751-1.1282 0.68303-1.5821-0.80491-1.2479 1.185-1.8975-0.0182-1.7026-1.1666-1.8017 0.31113-1.8542-2.3734-2.1286-3.6666 0.10121-1.3523-0.61608-1.5739-1.7916-1.6127 0.13068-1.2272-4.281-0.39157-2.3097-2.5101 0.434-0.77375-1.6297-0.77521-0.17149-1.6707 1.0987-1.208-0.63414-2.2525-1.3662-3.4532-1.9244-0.9887-2.2124-3.608-3.3542-5.0338-0.99223-0.68381-1.7572-1.2598-2.5583-0.14067-1.4454-1.0871-3.4273-0.0257-4.4265-1.4625-0.78133-1.7339-2.0514-0.90984-3.3552-1.6662zm-67.123 51.949c-0.03965 1.1898 1.1341-0.33423 0 0zm8.0703 8.3106c-1.2948 0.27969-2.5111 2.3148-3.1915 1.3228-0.76866 2.235 2.4873 2.9424 3.0357 4.9154 1.4562 2.2734 2.1631 4.9153 3.2968 7.3297 0.64351 1.6233 3.7743 2.3388 2.5619 0.13051 0.61243-2.4166-3.5301-4.4668-0.42561-6.2042-0.36344-1.0555-1.0779-4.9338-2.0922-2.1656-1.6114 1.5203-2.8008-2.453-1.9301-3.7578 0.42931-1.4035-0.58643-0.91266-1.2551-1.5707zm7.3281 13.146c0.13132 0.20478 0.34912-0.5339 0 0zm-0.50586 0.0742c0.27016 0.41175 0.34574-0.27859 0 0zm1.0098 0.58008c-0.48536 0.66264-1.5352 1.5757 0.09969 1.1387 0.56685 0.38536 2.422 0.38018 1.8866-0.23828-0.97966 0.47682-1.2276-0.7256-1.9863-0.90039zm81.121 7.9023c0.57427 0.43059 0.22944-0.61964 0 0zm-76.734-0.0586c-1.7224 0.39212-1.7627 3.6396 0.32586 2.5317 0.39161-1.1709 2.1592-2.7617-0.32586-2.5317zm83.121 2.7441c-1.354 0.11617 0.77614 0.9564-0.46875 1.5898 1.7851 2.2067 1.6558-1.9635 0.46875-1.5898zm-86.244 7.8672c-1.4404 1.0728-1.9607 3.0298-2.0173 4.734 0.28313 1.6666-0.2622 3.1105-0.37632 5.1448-0.42711 1.5202-0.56869 2.6358 1.0186 3.4006-0.23778 1.4774-0.91477 0.66139-1.5361 0.22612 1.104 1.24 1.8236 4.3228 3.8909 3.4006 0.87519-1.2583 3.2935-2.4386 1.1333-3.9986 1.304-2.1007-1.0093-4.9242 0.90693-6.5443 0.75148-1.121 0.21803-3.0235 1.8513-3.7397-0.06912-1.1018-2.4891-1.8169-3.4115-2.1063-0.47617 1.3794-1.3625 1.3747-1.0285-0.2832 0.5619-0.74896-0.25077-0.40372-0.43136-0.23383zm78.107 2.2422c0.67825 0.16541 0.47095-0.84251 0 0zm-5.002 7.5352c-0.27206 0.89397 1.4869 1.7951 0.36624 0.37844-0.0991 0.0576-0.14159-0.69862-0.36624-0.37844zm13.029 5.6894c-1.8538 0.68263-3.9222 0.99877-5.2938 2.6183-0.58183 0.7263-2.3286 2.0522-0.24709 1.8063 1.3381 1.3511 3.3446-2.4199 3.8324 0.33981 1.6751 1.313-0.34669 2.3054-1.4392 1.2111-1.02 0.5619-2.6288 0.31174-0.95781 1.4447 1.5302 1.5104 3.6565 0.5387 5.5739 0.46287 1.7976-0.66126 3.2613 0.46441 2.9974 1.8964 2.5066 0.69798-2.9912 1.3945 0.0221 1.7313 1.9711 0.27101 3.2067 0.84181 4.5558 2.2336-0.50507 0.66495-3.0107 1.1945-0.91587 0.92912 2.1685 0.8248-1.6186 1.7208 0.26537 1.471 1.47-1.1458 2.2252 1.3168 0.46691 1.2581-1.5027 0.24008-1.7069 2.2205-3.076 0.86903-1.1861-0.42806-0.0108-1.3642-1.1989-2.2529-0.40791-1.4785-3.2102-3.6417-2.6482-0.94501 0.41304 1.6508 9e-3 3.8191 1.4687 4.8447 0.27988 2.2883 3.4546 3.4979 5.1606 1.7654 1.3294-1.0364 3.157-1.9756 4.5783-0.17093 1.6844 0.76575 3.115 1.76 4.4834 3.0634 0.51015 2.6978 2.3115-1.2034 4.167-0.0823 2.422 0.0341-1.1067-3.1501-0.84139-4.5537 0.34844-2.1644-1.556-3.1903-1.8661-4.9171-0.78598-1.7148-1.4354-3.5247-3.002-4.6596-0.95362-2.7533-3.9655-2.0176-5.9389-3.1048-1.7127-0.75212-2.1522-2.8058-3.8407-3.5607-1.4518-1.7436-3.4997-3.1779-5.7536-3.7363l-0.27662 3.3e-4 -0.27584 0.038zm6.3379 13.377c0.50615 0.0845 0.343-0.77883 0 0zm4.4824 9.8691c-1.8287 0.98845-0.66501 2.7115 1.0748 2.485 0.95388 0.94213 3.91 2.057 4.2768 1.0198-0.83913-0.52715-1.7743-0.65607-2.1212-1.6014-1.3248-0.35319-2.2478-1.4924-3.1219-2.0681zm-27.799 3.8008c0.86045 0.99206 1.0891-0.76177 0 0z"/>
<path long-name="Zealand" region="ZL" short-name="ZL" value="20" candidates='[{"candidate":"0","count":7,"margin":0},{"candidate":"1","count":3,"margin":0},{"candidate":"2","count":2,"margin":0},{"candidate":"3","count":2,"margin":0},{"candidate":"4","count":2,"margin":0},{"candidate":"5","count":1,"margin":0},{"candidate":"6","count":1,"margin":0},{"candidate":"9","count":1,"margin":0},{"candidate":"11","count":1,"margin":0}]' d="m231.39 231.73c1.0728 1.4275 3.7286 1.3136 5.1357 3.0046 2.154 1.0633 4.8953 0.53238 7.221 1.2058 1.545 1.0737 3.9074 1.5371 4.22 3.6946 0.0233 2.1967 0.91094 4.393-0.15067 6.4778-1.0482 1.434-2.1247 4.347-4.4593 3.295-2.2364-0.54433-3.8016 2.9877-5.9766 1.7617 0.23739 1.8924 0.21925 3.7768 0.44204 5.5998 0.42031 1.7472-1.8826 3.3786-3.3251 4.1973-1.1052 0.40146-2.1736-0.38204-2.2071 1.138-1.6125 0.0725-3.3767 3.6615-5.0465 0.96712-1.0722-1.2564-1.6473 1.7383-3.3181 0.75192-0.86635-1.2748-0.8204-3.172-2.752-2.4115-2.3982-0.57844-3.9186 2.5795-6.5302 2.3065-2.757 0.32761-4.6945-2.3066-7.5083-2.1391-1.1699-0.1563-4.0109 0.59213-3.9868 0.98361 2.0111 1.7197 4.6008-0.0985 6.7495 0.98189 1.7194 1.4242 2.4119 3.9855 4.608 5.0156 1.0375 0.83598 2.9632 1.2015 3.5638 0.94867 1.4983 2.6342-2.0019 3.4979-3.8096 2.9426-2.4701-1.1433-5.2019-0.0949-7.5706-1.3014-0.35616 1.0778 3.1813 0.97511 4.4337 1.2153 2.0377 0.22025 3.5508 1.5782 5.2665 2.5379 1.6386 1.0482 3.6768 1.9742 4.226 4.041 0.89628 2.0292 1.8252 4.2447 1.4562 6.4983-0.092 1.3621-1.4777 2.864-2.048 3.0081 0.83379 1.9513 3.3526 2.6988 3.5696 5.0094-0.61036 2.1279 1.7729 3.3139 1.8362 5.3086-0.0182 1.7954-1.3328 3.653 0.59725 4.9686 1.0251 3.3839-3.068 3.5246-4.8312 5.1797-1.2922 0.10612-3.6677 0.37789-3.1035 1.2516 0.54164 0.68685 3.0351 3.0559 3.0422 0.89101-7e-3 -2.9916 4.8991-0.8801 4.4691 1.1507-1.0088 1.5177-2.292 2.129-4.0222 1.6618 1.2453 1.8471 3.4176 2.4397 5.2067 3.5893 1.5361 1.0766 1.088 4.2752 1.7014 5.0997 2.5102 1.5848 0.75281-3.444 2.8831-3.8323 2.5592 0.73077 0.52176 3.7032-0.25384 4.9715-0.1413 1.5375-1.3249 1.9335-2.5905 1.014-1.7094-0.49495 1.7834 2.3081-0.51257 2.2054 0.53949 1.2242 1.3186 1.7329 2.6968 1.6829 1.8329 2.3751 0.90221-2.4491 3.1827-1.3652 0.59743 1.0699 2.0589-0.76007 2.4337 1.334 1.0318 0.13264 1.9952-1.7996 3.3635-0.91502 0.2811-1.0156 1.4615-2.2882 2.3209-0.90932 1.2003-0.87337 1.9201 1.4768 3.3094 1.4062 1.5961 0.63066 3.6565 1.5394 5.5756 1.5692 1.8072-0.19674 3.4942 1.0489 5.0686 1.5154 0.463-2.2029 2.6075-4.186 4.9471-3.8122 0.67449 1.2488 4.1596 1.538 1.6503 2.905 1.6255 0.33638-0.0296 2.4718-1.2183 2.676-0.61561 2.0132 1.7266 0.65726 2.6855 1.0615 1.6829-0.11207 4.2459 0.11851 4.4375 2.4481 0.50971 2.6602-2.2998 0.99854-3.419 1.5572-0.0324 2.4001-2.578 0.38557-3.303 1.579 0.76673 1.258 1.5416 2.4588 3.1102 1.926-0.94732 1.4373 0.36314 0.68522 1.0413 0.98127-0.33858 1.2545 2.5513 1.3427 2.4638 3.1096 1.3748 0.75896 1.6442 3.3348-0.0889 3.3078 1.2755 1.4637 2.7671 2.7628 4.4266 3.7036 0.69606 0.58035 1.2516 1.4465 1.2196-0.0693 1.8549-0.16561 4.2323 0.57041 4.856 2.4774 1.3851 1.5189 3.5757 3.0037 5.6852 2.3505 2.273-0.54349 2.9519-3.6431 5.2821-3.7807 1.718 0.16255 3.3843-0.20244 1.7587-1.9916-0.79986-1.0331-1.1056-2.9614-1.8567-3.4951-0.74334-0.5485-0.35355-2.2665-1.2414-3.1464 0.80847-1.6764-1.9276-1.2125-1.0811-3.0213 1.7157-0.46025 3.694 2.6717 4.9614 0.46018-0.59429-1.6394 1.8732-2.4392-0.0821-3.5448-1.7159-1.7917-3.4599 0.59841-5.62 0.049-0.94212-2.0398-1.3915 1.4268-2.8528-0.0885-2.3055 0.79081 0.55967-2.9753-1.7506-2.4376-2.0666-0.95812 0.30245-3.6999 1.6599-4.3437 1.3122-0.79172 3.5338-0.71721 4.433-0.63373 1.4423-1.406 2.5398-3.0282 3.7838-4.6612 2.0382-0.86554 4.0297-1.7609 5.9858-2.8973 2.1656-1.1668 4.41 0.34717 6.6816-0.0921 1.6468 1.0312 0.96127-2.7389 3.2106-2.0514 1.8568 0.0753 2.6164-1.9909 3.9772-2.76 1.0537-1.7349-1.1008-3.9263 0.32242-5.8964-0.25674-1.92-1.5132-3.461-2.9259-4.8724-1.3594-1.4031-2.4738-3.2176-4.6435-3.2561-2.1463 0.11481-3.9722-0.77964-5.7726-1.9179-2.0835-0.61235-4.1412-2.1534-4.4065-4.4226-0.45703-0.51268-1.7386-0.72724-0.30503-1.587 1.5309-0.53078-1.2319-0.50455 0.11119-1.8001 0.45206-1.9674-0.30062-3.6486 1.3809-5.3014 1.1175-2.2345 2.1163-4.8484 4.4372-6.1292 1.0725-2.0659 4.4243-2.1705 5.0073-4.1167-1.5928-0.93504-3.7056-0.99174-5.0456-2.1742-1.0959 0.71504-2.0988 1.3666-3.1495 0.51444-0.98546 0.55755-0.51046 2.498-2.3357 1.3288-1.8335-0.11917-3.7023-0.98932-2.4837-3.0017-1.082-0.6062-0.26088-3.0455-0.60562-4.5083-0.8696-0.54594-0.59841-1.9261 0.61426-1.6431 0.32974-1.6889 2.2329-1.9655 3.7256-2.1799 0.43941-0.97823 3.1978-1.8968 0.9858-2.4714-0.43498-1.0328-3.1166-2.4237-0.82466-2.9244 0.65723-2.1487-1.7242-0.11053-2.7192-0.89399-1.9242 0.39524-2.9246-1.916-4.7226-2.5841-0.60668-1.7953-1.3519-0.45183-0.28526 0.52004 0.84133 1.1819-0.79031 3.0871 1.4275 3.4679 1.2709 1.5522-2.3449 1.8507-0.25639 2.75 0.089 1.832-1.3693 2.1684-1.7879 3.8816-0.31875 0.34237-1.3527-0.88785-0.98611 0.33985 2.0608 0.0244 1.1255 4.313-0.59821 3.7066-0.86057-0.67796-1.9498-0.88896-1.7451-2.2088-1.0271 0.10558-2.2935 0.0688-3.2127 0.31315 0.0506-1.0767 0.33013-2.0454-0.96907-1.3254-1.4577-0.1613-2.221 0.12769-2.1617 1.461-1.0271 0.39906-1.0558 3.4966-2.3938 1.6077-0.39572-2.1198 1.1652-4.0261 2.044-5.9222 1.0309-1.4364 2.6102-4.092-0.0762-4.5433-0.78631-1.1387-1.6188-1.1744-1.892 0.26738-1.1376 0.28172-1.981 0.38961-3.0143-0.25107-1.9912 0.71282-2.5372 3.4067-2.4712 5.3286 0.20259 1.7701-2.3536 1.3545-2.0075 3.3272-1.1173 1.2378-2.261 1.2209-3.8543 1.0454-0.0605-1.8286 1.4739-2.5265 1.8926-4.1445 1.1478 0.7695 0.64608-1.1825-0.24865-1.2238-0.11176-1.2813 0.11583-3.2801-1.7354-2.4854-2.3567-0.2466-5.1041 0.98819-7.3357 0.39667-2.1986-0.94552-0.39632-3.6242 1.7788-3.0566 1.8644-0.12271 3.958-0.11181 5.3572-1.2491-1.8477-0.57146-1.7143-2.2761-1.2385-3.5631 0.0657-2.6788-3.2438-0.78923-4.1725 0.3099-1.5528 1.01-3.7872 1.3239-5.2099-0.0144-1.544-2.1342 3.2197-1.8613 2.4788-4.35 1.0104-2.7113 3.2823-0.69336 5.1297-0.59125 2.1926-1.8763-0.81122-4.0871-1.2988-6.0342-0.99329-1.5087-3.3503-1.8568-2.6395-4.1708 0.17299-1.5988 0.0655-3.4877 2.351-2.702 2.0028-0.56245 1.9342 3.4795 3.771 1.0974-0.76489-2.089-0.0376-4.3983 1.6955-5.7018 1.6532-0.0834 0.15476-2.9354-0.93774-1.4159-1.6404 1.1006-2.9416 2.9085-5.0866 3.0942-2.1045 1.0676-5.0728 1.2859-6.3891-1.0718-0.66171-1.9172-3.1017 0.78525-4.8123 0.35-2.4461-0.71275-4.7349-1.3652-7.3658-1.3097-2.4567-0.30112-4.4022-1.7659-6.6563-2.6156-0.56785 0.0988-2.3327-1.5075-2.0521-0.74956zm-14.609 9.2168c0.22568 0.8963 2.8639 1.6472 1.2941 0.31942-0.196 0.0112-1.5652-0.88616-1.2941-0.31942zm2.3906 1.543c0.89445 1.3555 1.8581 3.0327 3.5694 3.2557 1.5779 0.76003-1.0243-1.3327-1.5381-1.8494-0.35366-0.79532-1.6617-1.1172-2.0312-1.4062zm49.844 12.934c0.021 1.4924-1.3011 2.6244-2.5086 1.4654-2.0855 0.21122 0.61949 3.7405 1.7493 3.2496 0.82146-1.1748 1.862-3.5662 0.7593-4.715zm-38.311 0.7461c0.0424 0.14342 0.0589-0.15835 0 0zm-13.57 32.529c-1.1622 1.9234 2.2309 1.8586 1.0332 0.041 0.75177-0.55338-1.4956-0.58327-1.0332-0.041zm1.4668 0.56445c1.2189 0.0428-0.24681-1.3817 0 0zm76.742 1.668c0.25158 0.47951 0.42991-0.51172 0 0zm-74.467 22.6c-0.0202-0.1265-0.30062 7e-3 0 0zm2.3027 12.891c0.0825 1.4479-0.28139 2.9084 1.2447 2.4702-0.51884-0.38495-0.50983-3.4624-1.2447-2.4702zm19.695 2.2832-0.0192-0.061zm18.006 0.54102c0.89868-0.0462-0.11215-1.0177 0 0zm-20.045-0.0195c-1.9198-0.16572 1.8423 2.0876 0.76552 0.34819 0.0911-0.61223-0.35843-0.89236-0.76552-0.34819zm-18.557 0.41992c1.6907 0.33595-0.12444-1.6947 0 0zm38.072 0.0156c-0.71241 0.68732-1.2269 2.8001 0.26227 1.7864 0.17173-1.0239 1.2175-1.8478-0.26227-1.7864zm-37.826 3.3555c-1.1538-0.44541-2.2114 2.0167-1.2399 1.5749 0.10644-0.66689 0.95294-1.4508 1.2399-1.5749zm76.688 13.775c-0.72034 0.52531-2.4911 1.871-0.66574 1.3106 1.0947 0.92844 2.2098 2.2265 2.845 3.0103 0.24786 1.4037-1.9327 2.6942-0.30799 3.6277 1.0862-1.9657 1.4136 0.89345 2.7648-0.0317 1.0912-0.84062 3.685 0.65145 1.4106 1.2208-2.4255-0.28782-3.1186 2.4292-5.253 2.8136-2.4149-0.23666 0.21442-1.8125-0.2388-2.7589-1.499 0.74089-3.1829 1.7948-4.7694 1.9988 0.0623-0.59406-1.3342-2.7337-1.3951-1.8346 0.68574 0.63054 0.71134 2.0536 0.61464 2.4191-1.4746 0.72592-2.0124-2.108-3.0182-0.33292-1.8954 0.1638-1.1033 1.8668 0.31035 1.7925 0.43563 1.6646-3.863 2.2611-1.7314 4.0626-0.0872 1.237 3.3268 1.0226 1.4756 2.4623-1.2614 1.2027 2.4547 1.295 3.352 1.0258 2.0918-0.80594 2.4096-3.5504 4.1971-4.829 1.5528-2.4927 4.0245-4.4634 6.8488-5.311 2.1361-0.47859 4.3524 0.0937 6.4285 0.5928 2.1198 0.43607 4.7178 3.1002 6.6743 1.1138 0.98098-2.1589-0.69859-4.3253-1.7359-6.1466-1.6782-0.58171-3.2442-1.6572-4.9957-1.8515-2.0046 0.34196-3.9087-0.63211-5.9543-0.34334-1.8947-0.16491-4.0354 0.0894-5.5338-1.4327-0.77764-0.67202-0.59184-2.0086-1.3223-2.5782zm-25.215 6.8887c0.77129 0.26651-0.058-0.29198 0 0zm-27.086 1.4062c-2.1598 0.86168 1.6442 1.7923 1.0857 3.4716 1.4586-0.01 2.6564-3.16 0.27295-3.2302-0.46274 0.12648-0.95336-0.0119-1.3587-0.24138zm-5.4316 3.209c-0.79311 0.80008-2.0756-0.71161-1.5154 0.92053 0.12021 1.6943-1.5934 0.99457-2.2532 0.44112-1.9816 0.88313 1.6233 3.7767 2.0537 1.3532 0.59605-1.5812 2.2215-1.0518 3.3587-1.3184-0.51909-0.47546-0.72296-1.6497-1.6438-1.3964zm21.688 0.48828c-0.82363 0.50557 0.37993 2.86-1.5555 2.3005-1.6694 0.83812 2.2881-0.0981 2.1184 1.4566 1.7384 1.7055-2.3359 3.7978 0.40773 5.0435-0.0821 1.2809-0.48284 3.6611 1.6614 3.2836 1.1476 0.68234 1.9594 1.4125 2.1339 2.6218 1.5434 1.4875-2.7223 3.7423 0.61218 4.1562 1.201 0.64269 1.7914 1.9879 2.9075 2.9736-0.0775 1.7932 2.7025 3.2483 1.0218 4.8925-1.0954 2.0775 4.2246 1.0126 2.162 3.4805-1.4298 1.6454-2.058 3.3804-2.5768 5.5061-0.0542 2.4068 2.0173 4.2142 2.9482 6.3379 1.09 2.0324 0.3283 4.726 3.1773 5.3109 0.70859-1.0176-0.18206-3.8738-0.26975-5.5824-0.41178-3.7618-0.86671-7.9046 1.1832-11.298 1.4402-1.7184 3.4986-3.0006 3.7183-5.47 0.77463-1.8141 2.203-3.2713 3.3272-4.8908 1.9653-0.80257 3.3239-2.1559 3.8507-4.219 1.2331-0.47968 2.4094-1.015 1.2501-2.3952-1.6109-1.0693-2.1271-3.4115-2.9313-4.6205-1.2647-0.0688-2.4278-1.0722-3.5598-0.0491-1.6385-0.82873-4.5922-0.2038-5.2876-2.355-0.84223-1.405 0.0186-4.9972-2.628-3.5472-1.5432 0.0182-0.70943 3.6678-3.0079 2.2882-2.1929-0.81349-1.6838-3.6026-3.4459-4.6937-1.9556-1.2484-1.2477 3.0678-3.6384 2.5207-0.98255-1.024-1.4977-3.6805-3.5788-3.0515zm-40.059 0.10156c-0.7934 1.147-2.3157 0.67696-3.3081 1.85-0.55016 0.021 0.0676 2.4876-1.3372 1.3875-0.79518-1.8554-2.9994-0.62669-3.6744 0.80863-1.5475 0.66251-3.072 3.1116-2.1776 4.4618 0.94032 0.95333 3.203 1.2714 2.6495 2.9637 1.4155 0.83706 0.97872 3.3918 3.1326 2.9196 1.1579-0.48504 3.2779 1.4461 3.5272 1.5251-1.9298 0.20701-3.8548-0.25493-4.434 1.9276-1.0098 0.91797-2.6318 2.7757-4.2696 1.3769 0.30995-1.1302-1.0763-1.0696-1.2471-1.4864 0.65324 2.4671-3.9049 1.298-1.7557 3.4664 0.6704 2.4106 3.2861 3.046 5.2986 3.9838 1.9115 0.51659 3.8248 0.97871 5.6228 1.8134 2.2611 0.75551 4.359 2.1067 6.5574 2.6927 2.0865 0.79062 3.8964 2.4082 5.2011 4.2073 1.0287 1.762 2.68 1.6778 3.6254 3.2196 2.4663 0.79699 4.1614 3.0492 6.3119 4.1771 1.2643-1.5408 2.4439-3.1669 4.5008-3.3089 1.9927 0.5724 1.3546-3.3608 3.528-2.3443 1.2408-1.7029 2.978 0.55566 4.4318-0.52296 1.1232 1.0034 1.3404-0.44155 2.1471-0.5929 0.88103 0.96839 2.9468-0.0455 3.3254 1.7764-0.66806-2.1601 2.3147-1.7258 1.8789 0.20833 1.8425-0.64135 3.8201 1.6538 5.1309-0.0339-0.0195-1.3545 2.4276-1.8218 1.1525-3.2805 0.0721-0.87467 2.6047-0.60213 0.55208-1.003-1.3314-1.0681-3.3258-0.96191-2.6943-3.0108 1.6166-0.65277-0.52583-3.4062 0.59004-3.3498 1.1022 1.2031 2.7482 2.1889 3.523 0.27667 5e-3 -1.5254-1.4422-1.5982-0.69091-2.9635-0.44098-0.62488-2.3734-3.1425-2.1064-1.0485-0.8909-0.0138-1.1455-2.1122-1.935-2.5322-1.0772-0.83988-2.0066-2.6051-0.77148-3.875-2.2507-0.55042-3.848-2.3667-3.3955-4.7352 0.5099-0.89599-2.0808 0.12854-2.5412-1.1758-1.1571-0.53361-2.4169-2.845-3.2946-2.4982 0.9444 1.3856-0.38851 2.9401 0.69485 4.2894-0.81328 1.3365-3.6536 2.8265-5.1666 1.1474-2.5708 0.83522 0.82633 1.7708 1.3729 2.8767 0.7688 1.2192 3.765 3.3884 3.218 4.2369-1.6088-0.87363-3.3119-1.9691-4.2339-3.4478-2.0119 0.5847-3.7374-0.82098-5.7407-0.73682-1.4687 0.44187-1.8701-1.4134-3.2592-1.1368-0.56676-1.1747 0.34505-4.0776-1.8924-2.4878-1.3829-0.10276-1.2853-2.1703-2.9707-2.1426-1.8857-0.99849-2.8609-2.6886-3.003-4.6862-1.3468-1.0205-3.1787-0.61386-3.6306-2.6805-1.4861-2.4862-4.3858-2.2646-6.9034-2.5553-0.51181 0.14831-1.0366-0.17359-1.539 0.0427zm36.297 1.1738c0.11777 1.0484 0.53527 0.16392 0 0zm25.689 1.3184c-1.3649 0.10366-3.2609 0.81719-4.0035 0.81586 1.1168 1.1512 3.4067 1.339 4.777 1.69 1.1372-1.3085-0.0253-1.5638-0.77344-2.5059zm-4.2227 0.15625 0.0319 0.049zm-9.918 24.904c1.0988 0.39018 0.22612-0.68369 0 0zm-2.5703 1.4277c0.93423 0.85989 0.58055-1.0696 0 0zm0.67774 0.30078c-0.42198 0.41625 0.76468-0.17085 0 0zm-16.445 7.4024c0.55944-0.15536-0.49106-0.36241 0 0zm4.2422 0.31835 0.049 2e-3zm-4.3828 0.88477c0.31738-0.31825-0.083-0.39259 0 0z"/>
<path long-name="North Zealand" region="NZ" short-name="NZ" value="10" candidates='[{"candidate":"0","count":4,"margin":0},{"candidate":"1","count":2,"margin":0},{"candidate":"2","count":1,"margin":0},{"candidate":"5","count":1,"margin":0},{"candidate":"3","count":1,"margin":0},{"candidate":"6","count":1,"margin":0}]' d="m300.69 214.19c-2.2839 0.64222-4.4964 1.5349-6.7058 2.3261-2.8728 2.2158-5.7139 4.5311-8.7413 6.5542-2.1768 2.2781-4.6127 4.3717-7.4957 5.7239-2.2888 1.6222-4.5972 3.2221-7.0121 4.6059-0.13519 1.1784-0.34333 3.5266 1.6322 2.9223 2.1902 0.37795 4.2145-1.3385 6.0386-2.5014 1.4152-0.44955 2.9094-0.32078 4.4754-0.74825-1.2659 1.4046 0.28766 3.602 1.0854 5.2169 1.236 1.9006-0.0766 4.3302 1.5456 6.0784 0.66597 1.1737 0.84107 3.7141-1.0674 3.8312-0.25952 1.3865 1.2989 1.307 0.94672 2.6028 0.63848 1.6337 1.3732 4.0866 1.5113 5.7292 2.0398 0.8572 2.7755 2.9705 5.0006 3.5858 0.82713 1.9595 3.5781-0.82176 4.7944 1.0829 0.81229 0.80423 0.81747 1.9943-0.0525 2.6707 1.5178 1.7749 3.8046 3.3472 6.1902 3.286 1.4634-0.38012 1.7343-1.0738 0.22353-1.6405-0.74506-1.0945 0.19423-2.7818 0.37828-2.9308-1.4099 0.70366-0.97069-2.1771-2.6363-1.0436-1.5498 0.99347-2.3392-0.0195-1.8388-1.3627 0.78841-1.4649 2.3361-0.16347 2.84-1.4569 1.4749 0.8194 3.0472 0.57253 4.4889 1.3407 0.82569-0.34505 0.87018-1.4089 1.8835-0.82314 0.26481-0.97807 1.9023 2.2842 1.4154-0.33673-0.25103-1.451-0.79991-3.9072 1.1624-4.5387 1.1828-0.62749 3.5541 0.23025 4.7556-0.39757 0.68073 0.85745 2.3348-0.61066 3.3298-0.18067 0.91259-0.48144 2.4981-0.42394 1.8223-2.117 0.19134-2.0776-0.52645-4.0384-1.5378-5.8277-0.86053-1.8397-1.4525-3.8086-2.3962-5.6208-0.15542-2.0715 0.5807-3.6164 1.4275-5.4056 0.68215-2.4273 1.4843-5.0879 3.7384-6.5134 1.2079-1.515 2.1882-3.4 0.1866-4.5523-1.8922-1.253-2.9178-3.5573-5.1916-4.2644-1.8875-1.3314-3.7917-0.45999-5.645-0.8689-1.7966-0.80684-4.1594-0.65931-5.3148-2.5928-1.4229-0.97136-3.5169-1.6612-5.2374-1.8331zm-26.072 24.785c-0.41229 2.0402 2.4986 3.5977 1.747 5.8614 1.5097 1.242 2.8639 3.7387 1.5089 5.748-0.13064 2.2839-2.2413 2.8394-3.9657 2.5621-1.7091-0.14943-0.42402 2.2043-2.1496 2.4512-0.1869 2.2447-0.64851 4.2688-0.61952 6.4781 1.6022-0.56336 3.4431 1.8009 3.6991-0.62499 1.8986-1.6313 3.1815 1.927 4.4737 1.2431 0.0296-1.7286 1.465-0.56767 1.5673-0.31109 1.2744-0.51878 0.63436 2.5947 1.7364 0.86605 1.2125-0.49165 2.9154-0.83783 1.6805-2.5031 0.23213-1.3422 0.72948-2.3107-0.31668-3.6619 0.0784-0.95739 0.524-1.3573-0.5466-1.4259-0.2497-1.8306-0.62362-3.3257-0.64587-5.2481 0.5468-2.4428-3.6563-1.887-2.4712-4.4996-1.0069-1.9453 3.3259-3.4282 0.8243-4.6776-2.5862 0.5697-2.7589-3.1302-5.4699-2.7007-0.56606 2e-3 -1.1346-0.45599-1.052 0.44308zm-1.3262 1.5274c0.32209-0.0651-0.32928-0.38092 0 0z"/>
<path long-name="West Jutland" region="WJ" short-name="WJ" value="13" candidates='[{"candidate":"0","count":4,"margin":0},{"candidate":"1","count":3,"margin":0},{"candidate":"4","count":2,"margin":0},{"candidate":"6","count":1,"margin":0},{"candidate":"5","count":1,"margin":0},{"candidate":"2","count":1,"margin":0},{"candidate":"3","count":1,"margin":0}]' d="m72.084 123.12c-1.088 0.51248-4.2482 0.70727-4.1762 1.3504 0.83433 1.0754 1.959 4.5759 3.4468 2.7853 0.23086-1.6244 1.1441-2.859 2.6949-1.6503 1.3896 0.16043-1.1129-1.3695-0.01239-2.2393-0.61651-0.24256-1.2946-0.35107-1.9531-0.24605zm2.7305 5.7598c-0.9186 0.26059-2.23-0.11641-1.2411 1.1205-0.69533 2.486-3.5469-0.38582-5.0973-0.73019-2.5256-0.99861-3.1327 2.6941-5.0963 3.4649-1.9685 0.68136-1.7715 2.4207-3.1382 3.7753-0.31522 1.0315-2.512 4.6273-0.22591 2.9319 1.0943-0.36372 1.4017 1.0178 1.6584-0.62841 1.253-0.6186 0.68519 1.3977 2.0605 0.73773 2.3536 0.54568 0.98899 3.8266-1.1018 3.2334-1.072-0.19347-1.1379-1.8205-1.182 5e-3 -1.4614-0.11445-2.7919 1.51-4.0128-0.13137-1.9012 1.1965-1.9868 3.4736-3.0382 5.2511-1.1119 1.4949-2.4016 4.1131-4.5697 3.7043-0.8124-0.73008-2.4958-0.5616-1.6548 0.78806 1.7038 1.0502 0.88023 3.9133 3.1724 4.6301 2.1332 0.64052 3.7423 3.4942 1.4198 4.844-1.1688 1.9967 0.59162 4.5537-0.30013 6.8175-0.68684 2.0644-3.3536 1.6965-5.0162 2.5132-2.5134 1.1982-4.6856-1.2099-5.4592-2.9843-1.1434 0.3077-3.1895-1.2379-2.9694 0.78093-1.2222 1.2307-4.6429 0.80336-2.3324-0.97233 1.7461 0.45479 0.52621-2.4536 2.6799-2.3379 1.1481-0.20535 1.7584 0.49018 2.0379-1.0136 0.43547-1.7033-2.4074-3.2763-1.672-4.9518-0.86991-1.1404-1.7824 2.4333-3.3985 2.2946-1.9358-0.33125-3.1705-2.4135-5.2194-2.9006-2.1433-1.4798-4.4764-2.0161-6.9621-1.4732-1.966-0.90589-2.5968 1.3103-1.9995 2.7293-2.2583 1.901-1.5915-2.2996-2.6475-3.3608-0.62023-1.0463 0.38709-1.9076 1.2259-1.9949-1.6368-0.39003-4.8314-0.0351-5.144-2.3697 0.25588-1.1863-2.4815 2.1841-1.4175 0.21199 0.22836-1.3225 2.2388-2.163 0.01561-2.4421-0.81705-0.75987-2.064 1.4891-1.6083-0.55138-0.09159-1.4804 0.83976-2.9288 1.9992-3.1862-2.3008-1.402 2.0552-2.4092 0.50033-3.9674-0.40414-2.9375-1.3004 1.1662-1.9409 2.0952-1.2146 2.566-1.8609 5.3479-2.3281 8.1283-0.90907 3.7155-2.0153 7.4076-2.1708 11.255 0.024526 1.1304 1.1923 1.5705 0.12657 2.1216 0.42307 2.3716 0.6557 4.7887 0.32236 7.1918 0.45014 0.85462 1.5003 1.7621 2.3572 0.93793 1.5037 1.3162 0.34947 3.1787 0.85292 4.7534 0.99974 1.6711 1.5722 3.6381 3.5765 4.3629 0.52006 0.60761 1.053 1.2276 1.7114 1.6817 0.85041 1.1167 0.97226 2.6579 2.6019 3.118-1.437 1.6667 3.3685-1.279 1.6019 0.78699-0.9782 2.1083-1.9397 4.2682-4.0986 4.9801-1.3816-0.1261-2.1965-1.9154-1.2139-2.8232-0.14275-2.1368-2.2084-0.80942-3.4237-1.8823-1.2179 1.2076-1.9003-0.93232-2.1708-0.83836-2.5434-0.18482-1.8426 2.3122-1.6928 3.9588 0.63325 5.0424 0.66765 10.164-0.21747 15.179-0.62188 5.1969-1.4506 10.392-1.5887 15.628 0.19888 1.69 0.21029 4.0852 1.0581 5.2328 0.3996-1.7351-0.62936-3.8534-0.011832-5.7221 0.039075-1.9449 0.46668-4.3777 0.93447-5.79 0.16587-1.006-2.3784-3.2454 0.094848-2.4173 1.7874 1.4411 4.0666 1.8745 6.1959 2.7157 1.7881 0.68402 2.7688 2.352 4.3427 3.5971 2.6006 0.80042 1.5889 3.1044 2.0114 4.9784 0.5489 1.8929-0.28872 4.5055 1.5161 5.9325 0.29011 1.158 2.6884 1.6879 1.9371 2.9015 1.2023 0.31678 1.4541 2.5362 1.6939 3.5798-0.49732 0.95027-0.74089 2.6203 0.65989 2.7649-0.98467 1.7478-3.093 3.0004-4.2347 4.856-1.1261 1.4828-3.3764 2.7411-4.7125 4.0933-1.9999-0.40043-0.85717-2.8546-0.76344-4.2239 0.86806-0.50888 0.91558-1.1019-0.16432-0.83227 0.04376 1.4247-2.4146 0.42829-2.2136-0.87062-1.3205-0.92592 0.43178 1.2536-0.82773 1.187 1.4514 2.1326-1.5841 3.3127-1.5554 5.0017 1.4487-0.18628 4.1707 0.78336 2.9264 2.449 1.6735-0.20892 2.5616 1.9604 4.1641 1.5702 2.5222 1.7056 3.0746-4.2096 5.0121-2.2991 0.738 1.6461 1.8226 2.2285 3.5171 2.1194 1.652-1e-3 1.0394 1.4306 2.3933 1.9343 0.57048 1.7638 0.3976 1.0454 0.2594 0.13746 0.80736 0.53101 2.2368 1.077 2.4751 0.2694 2.7307 0.89209-0.24026-3.8707 2.7627-3.9806 1.8506-0.79434-0.1629-2.3225 0.03045-3.1932 1.5839-0.52946 3.1643-2.1897 4.1895-0.12844 1.4606 0.81217 2.715-1.2113 4.4662-0.44181 1.4068-0.42814 2.4735-0.60735 3.4905 0.65295 1.8468-0.13387 0.66877 2.2484 2.164 2.5471 0.6387 2.646 4.136 0.91104 5.7983 0.23323-0.44589-0.98367-3.0155-2.1954-0.7679-3.0518 1.9807-0.67029 1.4949-3.2531 2.2904-4.8956 0.28982-0.47665 1.6627 0.55605 1.5433-0.88012 0.97295-2.3941 4.5156 0.0113 6.5385-0.41735 2.368 0.58418 1.9795 3.3823 1.4243 5.2001-0.88596 1.8996 2.7319 0.83226 2.7348 1.8808 0.9289-0.34544 1.4873-0.97172 2.5181-0.59796 0.47259-0.69366 0.69259-2.1587 1.6248-1.3358 0.67515-1.4762 1.651-4.8502 3.4732-2.6466 1.3084-1.7694 3.5001-2.8623 4.1237-4.8175 1.5907-0.53435 0.32068-2.845 1.8707-3.6606 0.29503-1.7542 1.777-2.7416 3.6655-1.7869 1.5456 0.0719 2.181 2.9526 4.0653 1.9136 1.2949 1.7916 2.7127-1.2289 4.0272 0.74171 1.9753 0.82039 3.322 2.6917 5.5696 2.8144 1.8935 0.11137 4.8654 1.2067 5.9601-0.2754-1.8148-0.76632-1.983-2.9017-2.3055-4.6656 0.14248-1.9836-1.4634-3.2581-2.807-4.4865-1.714-2.0402 2.6727-0.78577 2.4636-2.4572 0.37553-1.3177 2.9775 0.55596 2.715-0.90363 1.5285-0.90339 3.0689 1.5553 4.2086 0.0563 0.35606-0.1871 0.0773-2.1619-0.0117-2.6982-1.581-0.9252-2.4856-4.0802 0.0248-4.2537 0.9728-1.1684 3.8108 1.0261 2.7532-1.458-0.87378-1.802-0.75635-4.7401 1.3833-5.4679 0.96011-0.42405 2.286-1.1178 1.4434 0.50148 2.2168 1.4094 3.0698-1.7691 4.8349-2.3439-0.6867-1.6464-0.36718-3.3528 1.7405-3.1245 1.9767-0.44454 4.0493-0.68717 5.9408-1.3058 0.39613-3.3429-3.893 0.09-4.8755-2.0092-0.49482 1.6008-3.653-1.1476-1.6223-1.4764 0.37952-0.54399-0.30621-1.4984 0.7476-1.7718-0.39539-0.8047 1.6293-2.5361-0.20797-1.8643-1.3897-1.2306 2.2533-2.0009 0.0969-3.2142-2.8353 0.7836-1.2569-2.3205 0.24936-2.2443-0.0522-1.3753-1.2788-1.3572-2.1156-1.6454 0.0778-0.70575-1.9937 0.48406-2.2197-0.92475-1.1386-0.65658-3.1568 0.82303-2.8761-1.419-1.7332-0.44006-0.87562-1.9993-0.39517-3.0536 1.2968 0.17106 4.7084 0.34119 2.4721-1.3266-0.56102-1.5194-0.0205-3.2604-1.3727-4.484 1.0739-0.4544 3.5465-0.95682 1.5205-2.1614-1.5091-1.3735 2.2616 0.88753 1.9748-1.1148 0.16185-1.0846 0.92663-2.0422 1.2187-2.3783-1.3491-1.6926 1.6252-1.6966 1.4376-3.5412 1.5063-2.0072 0.26276-4.3145 0.96748-6.521-0.35765-2.0877 0.48022-3.8346-0.53452-5.7544 1.6881-2.2462-3.0039 0.90772-2.2815-1.8558-1.413-1.3095-2.2958-3.6054-4.5235-2.8557-1.0385 1.3426-4.146 1.1096-3.0526-1.0638 0.87257-1.0581-0.48084-2.8779 1.6405-2.9781 2.4652-1.2002-1.8915-2.1068-3.1268-1.4406-1.2178 0.48477-4.0103-0.3976-3.927-1.1946 1.4886-1.8916-1.7806-0.87487-2.0868-1.4587-1.1706-0.81982 1.0744-2.9551-0.88355-1.9818 0.24412-0.92832 0.42478-2.559-0.94452-1.4546-1.4643 0.46908-2.1502 2.2534-2.5098 3.8351 0.52596 2.3211-4.3522 1.2978-3.7049-0.0276-1.3803 5e-3 -1.716-1.6461-2.3349-2.0336-1.4304 1.0336-2.0309-1.9314-3.3119-0.26123 0.39744 2.153-1.0268 3.8505-0.94555 5.9202-1.1688 1.9721-1.4795 4.4059-1.6315 6.7975 0.76326 1.9604 3.149-0.18238 4.2415-0.89149 1.67-0.97667 2.2703 0.62089 1.3409 1.7034-0.24908 1.1802 0.99307 3.979-1.2275 3.0336-2.1459-2.223-2.8838 3.642-4.4992 1.535 0.32954-2.0225-2.8895-2.9253-2.7896-5.1315-0.4451-1.095-1.5957-1.7993-0.38938-2.9743-0.41563-2.1951 3.7041-1.8802 2.3008-4.2682-1.4533-0.67251-3.3726-0.94938-5.2857-0.88338-0.72735 2.2322-3.8899-0.6926-3.2136 1.8107-0.26755 1.5956-2.6074 2.7502-3.3368 0.81142-2.3329 1.2266 0.9175 4.3352-1.5143 5.3984-0.83585 2.5526-4.2867 0.65353-3.0981-1.5197-1.0322-2.0726-0.81556-4.4436 0.07667-6.4414 0.01568-2.0694 3.1312-2.2439 3.2369-3.992-1.071-1.3082 0.36886-2.6402 1.3588-2.0844 0.06212-2.2757 2.349-3.9126 3.7093-5.0872-1.3837-1.8692-3.2529-3.4805-3.7582-5.8462-0.97498-1.9483-0.18426-4.1321-2.7192-4.9051-0.12149-0.32789-0.31832-0.27299-0.50085-0.21562zm-35.539 14.682c-1.6938 0.43569-3.323 3.9113-5.448 1.8757-0.93368-0.8199-0.95913-2.4245-2.4497-1.0544-2.5313 1.4714 1.0423 2.553 1.7111 4.0353 2.0067 1.029 2.3023 3.4621 3.0679 5.1767 0.55695 0.74461 0.30241 2.1027 1.0096 0.61615 1.1119-1.565 4.5431 0.5308 3.935-2.1257 1.6981-2.3628-2.4301-3.7128-1.2452-5.8342-0.18436-1.7245 2.1728-2.8163-0.58068-2.6895zm3.5938 3.0664c-1.7859-0.0795 0.0772 1.5249 0.11612 2.4221 1.686 1.5377 0.55284-0.53928 0.8408-1.4256 1.1866-0.79817-0.70786-0.60287-0.95692-0.99646zm-33.092 86.697c0.9381 3.1995 1.1688 6.572 1.4735 9.8784 0.16145 1.5299 0.13882 4.7752 0.80891 5.2541 1.2331-1.1632 0.88616-1.7167-0.04324-2.7537 0.92159-1.9406-1.6478-3.8298-0.41993-5.818-0.09552-1.1095-0.32654-2.636-0.73876-3.7689 1.0129 0.0918-1.0509-0.55768-0.38714-1.4975 0.0479-0.11275-0.74831-1.738-0.69332-1.2944zm98.855 7.6094c0.48933 0.71245 0.16627-1.1057 0 0z"/>
</g>
<g data-region-texts fill="currentColor">
<g font-family="Roboto" text-anchor="middle" data-for-region="TM">
<text x="439.46973" y="383.11719" font-size="14px" xml:space="preserve">Tillægsmandater</text>
</g>
</g>
</svg>
