<svg candidates="[{&quot;id&quot;:&quot;GS&quot;,&quot;defaultCount&quot;:0,&quot;name&quot;:&quot;GS&quot;,&quot;margins&quot;:[{&quot;color&quot;:&quot;#005DA3&quot;},{&quot;color&quot;:&quot;#337FBE&quot;},{&quot;color&quot;:&quot;#66A0D5&quot;},{&quot;color&quot;:&quot;#99C0E7&quot;}]},{&quot;id&quot;:&quot;SDS&quot;,&quot;defaultCount&quot;:0,&quot;name&quot;:&quot;SDS&quot;,&quot;margins&quot;:[{&quot;color&quot;:&quot;#FCDC00&quot;},{&quot;color&quot;:&quot;#FFED33&quot;},{&quot;color&quot;:&quot;#FFF966&quot;},{&quot;color&quot;:&quot;#FFFF99&quot;}]},{&quot;id&quot;:&quot;NSI&quot;,&quot;defaultCount&quot;:0,&quot;name&quot;:&quot;NSI&quot;,&quot;margins&quot;:[{&quot;color&quot;:&quot;#009AC7&quot;},{&quot;color&quot;:&quot;#33B4DD&quot;},{&quot;color&quot;:&quot;#66CBED&quot;},{&quot;color&quot;:&quot;#99DFF9&quot;}]},{&quot;id&quot;:&quot;SD&quot;,&quot;defaultCount&quot;:0,&quot;name&quot;:&quot;SD&quot;,&quot;margins&quot;:[{&quot;color&quot;:&quot;#E3000F&quot;},{&quot;color&quot;:&quot;#F53335&quot;},{&quot;color&quot;:&quot;#FF6666&quot;},{&quot;color&quot;:&quot;#FF9999&quot;}]},{&quot;id&quot;:&quot;Levica&quot;,&quot;defaultCount&quot;:0,&quot;name&quot;:&quot;Levica&quot;,&quot;margins&quot;:[{&quot;color&quot;:&quot;#FF2802&quot;},{&quot;color&quot;:&quot;#FF4A33&quot;},{&quot;color&quot;:&quot;#FF7066&quot;},{&quot;color&quot;:&quot;#FF9B99&quot;}]},{&quot;id&quot;:&quot;5&quot;,&quot;defaultCount&quot;:2,&quot;name&quot;:&quot;Minority Representatives&quot;,&quot;margins&quot;:[{&quot;color&quot;:&quot;#818181&quot;},{&quot;color&quot;:&quot;#9A9A9A&quot;},{&quot;color&quot;:&quot;#B3B3B3&quot;},{&quot;color&quot;:&quot;#CDCDCD&quot;}]}]" original-source="[&quot;https://github.com/stefanb/gurs-rpe/tree/master&quot;]" viewBox="0 0 1000 652.07" auto-border-stroke-width="5" auto-border-stroke-width-limit=".5" default-mode="split" version="1.1" country="svn" type="assembly" date="2022114" variant="results" title="2022 Slovenian National Assembly Results" xmlns="http://www.w3.org/2000/svg">
  <g map-type="regions" transform="translate(0 -173.96)">
    <path region="0" short-name="Kranj" long-name="Kranj" value="11" candidates="[{&quot;candidate&quot;:&quot;SDS&quot;,&quot;count&quot;:3,&quot;margin&quot;:0},{&quot;candidate&quot;:&quot;GS&quot;,&quot;count&quot;:5,&quot;margin&quot;:0},{&quot;candidate&quot;:&quot;NSI&quot;,&quot;count&quot;:1,&quot;margin&quot;:0},{&quot;candidate&quot;:&quot;Levica&quot;,&quot;count&quot;:2,&quot;margin&quot;:0}]" d="m232.4 622.92-5.47-1.3-6.57-1.32-1.27-.89-.6-1.47-1.42-.2-.9 1.27-2.12.81-2.43-1.74-1.75 2.25-2.4-2.5-2.03-2.5-1.42-.84 1.03-1.55-.46-1.03-5.73-2.87-2.87-.67-.62.23-1.89-1.17.57-.93-.24-1.1-5.67-3.62-2.5-1.88-2.05-.16.18-2.25-3.82 1.87-.9-1.27-.36-1.3-1.37-1.59-1.81-.96-1.9-.48-1.58-2.32H171l-1.88-2.89-.28-1.25-2.01-1.82-.33-1.46-.78-1.17.11-.96-1.76-.21-1.75.6-1.68-.9-1.54-1.42-2.62-.54-3.21-2.63 1.15-2.14-1.35-3.17-1.46-.35-.67-1.07-1.68-.63-.36-1 4.2-1.83.51-1.9-.56-2.59.11-1.99.46-1.75-.5-.74.89-3.1-1.26-1.4-.18-2.42.88-.34 2.2 1.28.33-.85-1.28-2.43.73-1.33-.49-.53-3.12-.25-1.2-1.92 1.66-1.7-.85-1.92.24-1.01 1.82-.16.86 1.65 3.87 1.97.54-1.36-.17-1.26.5-1.72-.18-1.03 1.64.28.72 1.36 1.42-.82-.36-2.21.54-.37 1.86 1.24 1.73-1.07-.2-1.64-.99-.4-.58-2.63-.84-.85-.57-1.74.75-.65-.92-1.55.6-1.12.04-2.3-.76-1.36 1.34-4.23-1.06-.13-2.84-3.28-1.25-1-.03-1.55-1.19-1.05.33-2.52 1.85-.56.66-.97-.17-1.64-.89-.31-.21-1.5.25-1.65 1.67-.66.15-1.2 1.02-.72 1.1-3.13 1.4-1.23 1.86.48.02-1.47 1-.4.63-1.5 4.32.21 1.39-1.66 1.06.17.38 1.16 1.12-.3.65-1.8 2.7-.48 2.87.5h2.26l1.06-.85.96-2.73 2.99-4 .1-2.66 1.79-3.6 3.36-.95-.4-.87 1.28-2.67-.57-1.24-.02-4.1-1.2-.77-1.17-1.36-2.4-1.35-2.84.11-.91-.52-2.04 1.57-2.18.64-2.14-1.75-1.52.27-1.92 1.9-1.66.5-1.89-.22-2.59.78-2.26.16-1.28-.43-1.16.77-1.3-.66-1.7.01-1.8 1.8-1.5.3-2.18-1.52-3.11 1.43-3.17-.82-.82-.8-.89.61-1.08-.38-.96-1.83-2.36.05-.56-1.13-1.16-.08-1.63-1.24-5.19-.33-1.57.3-1.47-.6-1.26-1.76-3.4-1.7-1.9-1.5-1.49-.43-.53-1.15-1.21-.5-.7-1.5-2.58-1.27-1.88.72-1.75-.78-.55-1.61-.64-.5-.66-2.3-1.11-1.45-1.34-.74-1.11.02-.3-1.66-1.41-1.7-.43-1.2.82-2.6-2.45-1.9.09-.71 1.76-1.19.79-1.5 1.33-.78 2.52-2.71.13-1.77-.49-1.77-.76-.89-.25-1.48v-3.03l.92-1.1.12-1.4 1.76-.27 1.08-1.65 3.54-.47 1.47-1.34 1.84-.48 3.45-2.66.63-1.23 1.65-.62 2.53.59 1.48-2 2.53.35.51-1.14 3-1.2 2.97-5.24-.22-2.48-3.64.1-1.1-1.46-1.63-1.41.38-2.97-1.14-1.73.26-1.02-.64-1.75.75-1.52-.62-1-1.53-.43-1.84.38-.66-1.68-1.02-.34-1.84-1.71-1.87-.7-1.7-1.4-1.85.27-.74-1.08-2.5.51-1.1-.21-2.44-1.54-1.16-2.98-1.87-.91-.52-1.32-2.36.66-1.43.72-3.26 3.14-1.72.27-1.7 1.11-1.8-.08-2.42 1.37-.6-.12-2.12 1.66-2.01-1.93 1.5-1.97-.22-1.63 1.1-1.06.01-1.44.31-.84 1.32-.29 1.38-1.74.43-3.34 1.15-2.45-.75-2.7-.8-.85-.04-1.51 1.6-1.42 1.38-2.37 1.15-.78.73-1.66-1.84-1.2.49-4.78-.77-1.69.48-1.3 3.93-2.43-.28-1.23.42-1.16-.88-4.4 2.06-.5 1.63.53 3.47 2.23 3.16-.08 1.97-.36 1.1.26 2.76 1.34 1.53-.84 2.3-.35.46 2.26 1.1.38 3.1 2.51 3.78-.58 1.52.46 1.32-.63.71-1.23 1.1-.18.67-1.12 1.27-.27.47-1.5.83-.8.94.12 1.12 1.08 1.25.03 2.02.8 2.12.14 2.2-.54 1.1-1.09 1.71-.78 2.29.04.99-1.65 2.04.9 1.18-.19 1.02.85 1.73.23 1.7-.23 1.64-.82 3.4 1.1 1.37 2.1 4.85 1.16 1.74 1.55 1.23.3.77 1.16 1.49.85.22.7 2.78 1.97 1.91-.57 4.08 2.42.24 2.06 2.93.87 2.33 2.27 2.5-.35 1.6.34 1.46-.9.5-1.17 1.56-.4.3-1.13 2.66-1.65 2.86.14 2.51.97 2.32.47 1.97 1.1 3.79.42 3.34.56 1.65 1.56 1.45.69 5.24 1.5-.42.72 1.18 1.17 1.71 2.7-.4.53 2.15 2.94.26 2.43-.32 1 1.97 2.02 2.17 1.58.93.07.4 2.55.65.73 2.66.93 2.24.16 1.9-.33 1.24-1.94.79.03 2.55-1.77 3.1.67 1.23.55 2.22-.2 1.06-1.47 1.92.62 1.55 2.66 1.2.9 1.65.41 2.19-.18 1.63-.5 2.8-2.15 2.07.46 1.58-1.2 1.75-.74 2.59-.44 3.45 1.86 1.43.16 2.86 3.78 2.6-.4 2.67.22 2.21-.4 1.76-1.39 2.11-.9 2.27-.13 1.37-.64 2.4.22 1.3-.72 4.3.31.54-.4 5.47-2.18.84.14 1.65-.81 4.33.45 1.89-.76 1.59 1.92 1.23.9-2.04.64-.6.97.35 1.35 1.18 1.36.8.17 1.41 1.43-.13 1.72 1.53 1 1.47-.39.86.45 3.36-.27 3.52 1.02.46.54.13 2.12 1.9-.7 2.41 1.14.99-1.82 2.42-2.69 2.52-1.46h1.63l1.62-.49.1 1.55 3.06 3.82 1.3.5 1.16 1.19.7 3.58 2.53 3.19 1.06 2.24.28 1.7.69 1.19-.27 2.95.73 1.54 2.13 1.22.02 2.1 1.58.94 5.38 4.85 1.46-2 1.39-.2 5.49 1.04 7.15-2.98.22 3.14.07 4.64-.2 1.08.32 3.63.52.78-.92 1.7 1.51 2.32 1.27.64.55 1.3 1.63 1.25 1.3 1.83h2.17l1.67.8 1.22 1.24.13 1.65.86 2.75.01 3.3-.58 1.38-.54 2.68 2.63 1.03 1.98-.72.97.2 3.93-.93.34 1.03-.09 1.94-.83.99-.88 2.43-1.28 1.59 1.19 1.44 1.63 2.64 3.34.04 2.61.31 1.94-.27 2.84 1.06 1.83-.02 1.97 1.4 1.55.73 1.2-1.13 1.37-.22 1.84 1.4 1.72.26.61-.45 4.24-.66 3.99-1.31 3.08.9 3.53-.18 4.15 1.35 4.65.19 1.94 2.2 2.32 1.35 2.07.7 1.5.15 1.8 1.36.65 1.75 2.55.03.35 1.08 1.08 1.07 1.39-1.08 2.93 5.63 3.4.9-5.18 1.66.66 1.89-.54.38-.47.5-2.8.52-1.37-1.21-4.29.84-1.1 1.08-1.39.47-2.36-.23-2.79.45-.44 1.03-1.97 1.18-3.74-.45-1.66.2-1.78-.94-3.48-.49-1.54-.97-.3 1.82-.9 1.01-.54-1.25-1.07.96-1.77-.2-1.29.69-1.8-.71-1.1.16-1.1 1-2.78-.9-.92.92v2.5l-.79.31-2.96-.52-.59-.71-.06-1.48-2.05.48-1.05-3.07-1.12-.6-1.5.2-1.27-.72-1.33.38-2.1-.82-1.26.61-1.34-.6-.84 2.36-.03 1.16-1.79-.55-.24.8-1.56-.44-.9-.93-2.58.82-1.52-.52-.25-.83-2.77-1.92-1.65-.02-1.46 1.2-.85-.08-.63-1.37-.9-.44-1.06.86-.3 1.2-2.68.53-.91 1.76-3.27 3.2-2.92.78-.03.92-1.64.44-1.56 1.05-.77-.91-.34-1.38-1.63.33-1.82-.32-3.48-1.1-.15-1.82-3.46 3.24-3.44 1.75-1.09.82-1.07 1.74-1.58.4-1.83 1.78-2.23-.1-.48-1.38-1.89-.12-.54-1.54.65-.85.01-1.22-3.45-3.01-1.15.08-.34-2.94-2.03-1.4-.78-1.18-3.2.45-1.7-.93-1.25.7-3.28-.96-2.35.22-.29.8 1.14 1.21 1.9 1.27-2.3 1.02-1.03 1.13-4.95 1.3-3.06.24.11-.96-3.04-.66-2.42 1.4-2.4-.23.34 2.2-.12 1.34 1.49 2.18.33 1.54 2.56 2.49-.5.56-2.38 1.22-.63-.2-2.08.7-2.73 2.1-1.4-.52-3 .36.08 1.9.5.48-1.69 3.47-1.29-.44.2-2.1-1.02-.5-1.36.51-1.16-.26.13 2.75-.92.54-1.7-.96-1.08 1.12-.67 2.56-1.3 1.2-1.57.01-1.48.79-.87 1.13-1.35.5.23 2.59-.73.27.31 3.06 2.6 2.12-.7.99.85 2.07-1.48 1.7-.22 1.68-1.83.6-1.38-.7-.94.11-1.92-2.1-1.84-.32-1.7.77-2.73-.93-.6.27-2.48-.68-1.55-.79-2.9-.41-1.3-.55-.88.6-1.63.12-.7 1.68-.79.33.02 1.45-1.17.75-.7-.45-5.88.72-.5 2.17-1.84.74-2.24 2.95-.95 3.2.58 1.47-.64 2.14 1.24 2.59-.63 2.44-1.61.7-.5 1.45-.4 2.62-.88 1.76-1.2.45-2.53 1.92.05 2.1-3.19 1.43-.83 1.33.65.71-.6 1.91-2.16.55-1.96-.5-1.59 1.62-1.43-.04-.8 1.58.35 1.76-2.17.7-.58 1.32.93 2.07-.88.49-.75 2.3-1.05.63.24 1.6-1.4 2.09-.03 1.3-2 1.12-4.08-.7.61 1.57-1.7 2 .01 2.62 1.37.34 1.08-1.06.91.4-.38 2.09.96 3-.06 2-2.52 1.59-.5 4.31.28.86-1.93.49-2.22 2.04 1.35 4.05-.35 5.02.91 1.39 2.43 1.06 2.78 3.75.65 4.06z"/>
    <path region="1" short-name="Postojna" long-name="Postojna" value="11" candidates="[{&quot;candidate&quot;:&quot;SDS&quot;,&quot;count&quot;:3,&quot;margin&quot;:0},{&quot;candidate&quot;:&quot;GS&quot;,&quot;count&quot;:5,&quot;margin&quot;:0},{&quot;candidate&quot;:&quot;SD&quot;,&quot;count&quot;:1,&quot;margin&quot;:0},{&quot;candidate&quot;:&quot;NSI&quot;,&quot;count&quot;:1,&quot;margin&quot;:0},{&quot;candidate&quot;:&quot;Levica&quot;,&quot;count&quot;:1,&quot;margin&quot;:0}]" d="m349.79 755.99-.98 1.61.5 3.23-.68 1.43-.36 2.52.2 1.77.75 2.6-1.4 2-2.13 3.65-4.13 1.38-2.28 2.65-4.05 3.46-3.95 1.39-2.3 3.4-2.68.3-1.26-.57-2.16-.06-.4.99-2.07 1.37-1.16-.1-1.23.85.1.95-1.85 3.06-1.08-.25-1.2.43-2.43 2.42-5.65 1.74-3.27-.66-1.19.67-1.1 1.26-1.42.71-.55.9-2.64 2.3-1.7.8-.87-1.1-1-4.4-3.3 1.23-4.64-2.08-1.43-2.4-1.14.4-1.1-.38-1.37.85-2.13 2.7-1.06-.24-.78-1.9-2.13-3.36-1.68-1.27-.07-.75-1.21-1.91-2.6-1-2.05.45-2.27 1.5-.38 2.16-.66 1.4-2 .75-.93 1.17-1.28 3.06.92 1.02-.83.57.33 4.1-3.05-1.2-2.52-1.26-1.13-.16-1.62-1.2-2.48-.74-2.97-.1-2.91-.57-1.14.4-2.21 2.26-3.02-.14-4.76-2.6-4.11-.66-4.11.4-3.52-.97-2.93-.58-.59-1.1-3.04-2.61-.81.07-2.23-2.22-1.82.2-3.25-3-2.1-2.82-4.76-3.73-2.81-.17-1.36 1.75.01.93 1.32 2.62-2.54-.17-2.1-.58-1.84-1.23-.8-1-1.23-.06-2 1.69-.66 1.28-1.16.99 1.08 4.36 1.4.1 2.1.94 2.25 1.87.69 1.2 1.46 1.4-1.24 1.2.9.61 2.11 3.3-3.58 1.57.5 1.66-.48 1.46.57 1.17-.7 1.3-3.8 2.63-.58 1.1-4.28-3.5-3.15-.41-.82 1.02-5.71.1-3.5.24-1.52.97-.62 1.84-3.24 2.4.18 1.44-1.57.2-1.75 3.55v1.75l-2.88-.39-4.41-.17-2.88.65.28-1.3-1.33-1.08-.03-.65-7.56-1.29-2.04.06-1.54.44-.25-2.63-1.23-.98-2.27-.64.56-1.27-.02-3.3.99-.56-.86-1.37-.92-.41-1.34-1.38-3.6-1.6-1.52-.06-1.27 1.03-1.39-.7-.86.39-1.27-1.02-2.04 2.12-2.53.8-1.73.03-1-.52-3.44 1.25-1.47-.5-.93 1.65-3.25 1.29-1.46.35-.23-2.13-1.52.5-.17.83-2.34.94-1.58 1.7-1.27.48-1.09 1.33-2.06.8-1.77-1.63-1.62-.47-.97-2.07-2-.16-1.1-.82-4.37-1.82-1.24.18-1.7-.4-.92-.97-1.6-.94-2.39.12-6.12-3.65-2.48-2.1-.78-.32 2.1-1.6 1.23-1.48-.01-2.45-1.09-2.64-1.38-1.43.7-1.38.93-.85 1.49.1.66-1.75-.94-.89-.26-1.96-2.55.12-2.5-1.25-1.1.93-1.28-1.31-.75-1.97.67-2.58-.14-1.36 1.53.52 2.48 1.64 1.18-.48 1.66.28 1.98-.31 1.03.44 1.03-1.13 1.1-.04.23-1.43-2.13-.54.42-2.04 3.08-.45 1.5-.8 2.3 2.03 2.64 1.04 1.82-.17 2.01.61.6-.89 2.19.13 1.22-.95-.6-2.52 2.18-.32.48 1.06 1.33.45L93 772.5l.7-1.1 1.04-.57 3.13-1.02 3.4.12 2.71.5 2.85 1.77 1.76-1.86.2-1.32 2.51-.24 1.42-1.2-2.68.11.6-2 2.92-.12-.2-.67-2.5.1.74-2.47 3.3-.13.36-1.61-1.88-2.37-2.37-.75-1.16-2.04-1.14-.1-1.8-1.18-2.4-.71-2.78-2.41.54-1.09 2.2-.43 1.94 1.28.88-.22 1.23-1.62 6.78-1.42 10.57 6.18 1.9.51 1.57.01 5.58.86 4.8-.47 4.19-.14 2.5-1.04 1.3-.1-.2-1.88 1.32-1.72 1.64-1.1 1.7-.61.71-2.14.34-3.43 3.05-.94 1.38-1.22 2.34-1.3 1.34-1.49 1.84-.75 1.78-1.24 2.04-2 1.52-.76.1-1.03-4.81-4-3.13-1.1-5.8-4.33-5.2-4.93-1.12-2.3-.82-1-1.93-3.31-2.83-2.44-.75-.39-.74-2.57.29-1.27 1.16-.97-.48-1.66-.14-2.45-2.36-3.35-4.82-3.8-1.6-2.42-1.84-5.2-1.65-1.65-3.15-1.87-3.01-.24-2.8-.91V679l-1.01-1.6-1.4.26-3.73.13-1.82-1.18-1.48-2.43-1.6-1.33-2.21-.89-1.02-.81-2.97-1.67-2.91-2.41-1.13-1.55-2.8-2.74-2.39-1.67-1.37.15-1.12-1.3-.9-1.9-3.5-.3-6.11.96-.29-1.4-3.34 1.74-.92-1.21-1.33-.25-1.77-1.1-.78.24-2.21-.6-2.56-1.84.4-5.12-1.48-1.67-1.2-5.34-4.38-3.54.72-3.42-.45-1.22 1.42-1.21 1.54-5.06.75-1.57 1.87-1.5-2.05-2.7.28-1.35 2.04-3.61.6-1.42 1.2-.28 2.8-1.63 1.29-3.37.8-.38.71-3.52 1.23-1.84 1.52-1.07-.05-1.06 1.31-2.37 2.22-3.02-1.45-5.06.48-3.64 1.03-4.06-.24-.55.77-1.9-.18-3.94 1.15-1.44-2.95-2.88-1.1.96-3.96 1.57-1.28-.84-1.43.48-1.63-1.44-1.62-.2-2.3-.93-4.4 4.03-.24 1.91-1.46 1.8-.78 1.78-4.3-.78-2.02.2-.76 1.91-1.2.43-1.03-.48-2.46-.18-.79-.37-.12-1.48-.73-1.25-1.22.08-.96-.77-1.4-2.3-1.63.13-2.14-.39-1.74-2.24-1.55-3-.82-.83-.06-1.03-1.03-1.86-1.93-1.35-.48-1.84 1.2-.87-.43-.84 2.95-1.52.85.23 1.58-.94 1.42-3.6.8-.88.12-1.21 1.13-2.02.64-3.76-1.14-1.67-3.18-1.14.5-1.49-.48-2.67 1.04-.69.5-1.14.93-.37.77.97.74-1 2.12.17 4.12-3.08 1.31-.1.23-1.53.98-.6.41-1.03 1.4-.78.1-1.95.99-.3 1.13.62 1.2-.87 1.88-.78.3-.71 1.65-.1.93-.83.82.42 2.26-4.13 1.53-1.4.75.23.9-.94 2.14-1.12-.03-.93 1.14-.62.35-2.05 2.75-1.4.68-1.26 3.56-2.42.87-2.15 2.48-2.66 1.48.19 1.6-1.47 2.56-4.64.97-3.05-.74-1.7.27-1.6 2.53-2.63 1.29-2.67-2.23-4.3-1.3-1.07-3.1-1.44-3.64-1.15-3.47 2.22-2.43 1.13-.58-2.23-3.24.44-2.27-.17-1.4.27.5-2.25-1.9 1.19-2.5 2.28-1.52.5-.96-1.34-1.42.27.23-3.77-1.36-1.56.07-2.56-5.11-3.6-2.04-.58-2.93.6.08-2.6-2.43.08-2 1.31-1.75-.4-2.14.06-1.77-1.2.36-1.22-4.98-1.7-2.9-.18-2.35.74-2.66-1.13-2.56.43-1.42-.12 1.3 4.12-.61 1.58-3.21.59-3.9 2.4-.4-1.29-3.3-1.29-.72-1.68 1.85-1.4.48-1.81-1.55-1.6 1-1.1 1.1.03 1.39-2.64-3.4-2-1.95-2.18-.38-2.01-.8-1.78-.93-.4-.7-3.66-.93-2.09.36-1.19-.54-.65-.4-3.8.23-1.68-1.3-1.5-.54-2.28-2.03.8-.73-1.1-.67-3.08 8.5-.86 1.12-2.5 3.68-.05-.83-1.79-.08-2.1.86-1.69 2.28-1.93 1.9-.05 1.57.5.91-.51 1.34-3.43 1.34-.38.37-1.66-1.53-2.44-.1-1.83-.9-1.22.4-.56-1.74-2.71.64-2.63 2.25-.45.5-.74 3.91-.05 2.43 1.03 2.13-1.1 2.02-2.45 1.41-.9 2.07.2 1.94-.43 2.54-1.92.41-.65 2.58-.02-.01-2.79 1.53-.71 1.75-1.61 1.86 1.24 1.61-.32 1.52-2.4 1.32-.62 1.22.2.83-.56 1.53-2.2 1.92.23 2.06-2.96.8-1.79.98-.09-.37-2.46.4-1.13.18-3.64 1.07-2.55 1.18-.13 1.06-.9.74-1.67 1.79-1.25 1.41.2 1.9-.4.8-.9 1.25 1.04 1.03-.16.73-1 1.74-.62 1.63.71 1.15-.15.64-.78 1.54-.12 2.24-1.03 1.53 1.16.18 1.94 3.26-.59 1.92.52 1.56-.35 2.38 1.31v1.44l-1.11 1.06.21 1.63-1.5 1.97 2.02 1.93 2.13-1.66.59.12 2.42-1.37 1.8.08 1.7-1.1 1.72-.28 3.26-3.14 1.43-.72 2.36-.66.52 1.32 1.87.9 1.16 2.99 2.44 1.54 1.1.21 2.5-.5.74 1.07 1.85-.27 1.7 1.4 1.87.7 1.84 1.71 1.03.34.65 1.68 1.84-.38 1.53.43.62 1-.75 1.52.64 1.75-.26 1.02 1.14 1.73-.38 2.97 1.63 1.41 1.1 1.46 3.64-.1.22 2.48-2.96 5.23-3 1.21-.51 1.14-2.54-.35-1.48 2-2.53-.6-1.65.63-.63 1.23-3.45 2.66-1.84.48-1.47 1.34-3.54.47-1.08 1.65-1.76.27-.12 1.4-.92 1.1v3.03l.25 1.48.77.89.48 1.77-.13 1.77-2.52 2.71-1.33.77-.79 1.51-1.76 1.19-.1.7 2.46 1.9-.81 2.62.42 1.2 1.4 1.7.3 1.65 1.12-.02 1.34.74 1.1 1.45.67 2.3.64.5.55 1.61 1.75.78 1.88-.72 2.57 1.26.7 1.51 1.22.5.53 1.15 1.49.43 1.9 1.5 3.4 1.7 1.26 1.76 1.47.6 1.58-.3 5.18.33 1.64 1.24 1.15.08.56 1.13 2.36-.05.97 1.83 1.07.38.9-.61.81.8 3.17.82 3.11-1.43 2.18 1.51 1.5-.3 1.8-1.79h1.7l1.3.65 1.16-.77 1.28.43 2.26-.16 2.6-.78 1.88.21 1.66-.5 1.92-1.9 1.52-.26 2.14 1.75 2.18-.64 2.04-1.57.9.52 2.85-.11 2.4 1.35 1.17 1.36 1.2.76.02 4.11.57 1.24-1.29 2.67.41.87-3.36.96-1.78 3.6-.11 2.65-3 4-.95 2.73-1.06.86h-2.26l-2.86-.51-2.71.47-.64 1.82-1.13.3-.38-1.17-1.06-.17-1.4 1.66-4.31-.22-.64 1.51-.99.4-.02 1.47-1.86-.48-1.4 1.23-1.1 3.13-1.02.72-.15 1.2-1.67.66-.25 1.65.21 1.5.89.3.17 1.65-.66.97-1.85.56-.33 2.52 1.19 1.05.03 1.55 1.25 1 2.84 3.28 1.06.13-1.34 4.23.76 1.37-.03 2.29-.6 1.12.91 1.55-.75.65.57 1.74.85.85.57 2.63 1 .4.2 1.64-1.73 1.07-1.87-1.24-.54.37.36 2.21-1.41.82-.73-1.36-1.64-.28.18 1.03-.5 1.72.17 1.26-.54 1.37-3.87-1.98-.86-1.65-1.82.16-.24 1 .85 1.93-1.66 1.7 1.2 1.92 3.12.25.5.54-.74 1.32 1.28 2.43-.32.86-2.2-1.3-.9.35.19 2.42 1.26 1.4-.88 3.1.5.75-.47 1.74-.11 2 .56 2.57-.5 1.91-4.2 1.82.35 1.01 1.68.63.67 1.07 1.46.36 1.35 3.16-1.15 2.14 3.21 2.63 2.62.54 1.54 1.42 1.68.9 1.75-.6 1.76.2-.1.97.78 1.17.32 1.46 2.01 1.82.28 1.25 1.88 2.9 1.02-.01 1.59 2.32 1.89.48 1.81.96 1.37 1.6.36 1.3.9 1.26 3.83-1.87-.19 2.25 2.05.16 2.5 1.88 5.67 3.63.24 1.09-.57.93 1.9 1.17.61-.23 2.87.67 5.73 2.87.46 1.03-1.03 1.56 1.42.82 2.04 2.5 2.39 2.51 1.76-2.25 2.42 1.74 2.13-.81.9-1.27 1.41.2.6 1.47 1.27.89 6.58 1.31 5.47 1.31 1.6 4.02 1.18-1.7 1.72.36 1.63-1.32 1.83-.62 2.33 2.02 1.33.04 4.03-.87 5.08-2.17.67 1.9 1.5-.24 1.84 2.13 1.24.83 2.46-.33 1.34.99 1.61 2.01-1.33 1 .67.96 1.61-.53.98.5 3.95-.7.41 1-1.45.27-.07.86 1.25.26 1.81 2.39.61-.3 1.6-2.35.5.72 3.19.68 1.1-.26 1.35 1.3v.75l1.93 1.3.6 1.03-1.54.54-.62 3.8-1.2.7.07 1.3-.59.68.48 1.04-1.56 3.46-1.27 1.83.57 1.56-.2 1.8-.76 1.08-1.83 1.4-1.85.12-.06.72 6.5 7.99-1.21 1.01 8.04 8.71 2.78.5 6.75-.67 1.5 7.08 2.17 1.84 2.22-.2 2.64 2.75 5.55 6.07 5.87 4.73.69 1.76-2 .56-1.98 1.37.99 1.91 2.7 4.08 2.45 4.27 3.54 3.99 2.96.16 2.23 1.15 1.31.14 1.24 1.22-.22 1.36.55 1.1-1.2 1.34-.83 2.2-.06 2.27.51.71-1.22 1.12.56.75-1 2.88-.55.3.8 2.15-.73 1.64-1.32-.07-.46 1.34 2.1 3.03 4.4.54 1.89 2.37.48 2.12 1 1.09-.95 4.4-3.66-.7.56 2.89 1.41.08 2.16.78 4-1.02.91.13 2.3 1.65.26-1.72 2.04.74 2.11-.96 1.92.22 1.06 1.4z"/>
    <path region="2" short-name="Ljubljana Center" long-name="Ljubljana Center" value="11" candidates="[{&quot;candidate&quot;:&quot;SDS&quot;,&quot;count&quot;:3,&quot;margin&quot;:0},{&quot;candidate&quot;:&quot;GS&quot;,&quot;count&quot;:5,&quot;margin&quot;:0},{&quot;candidate&quot;:&quot;SD&quot;,&quot;count&quot;:1,&quot;margin&quot;:0},{&quot;candidate&quot;:&quot;NSI&quot;,&quot;count&quot;:1,&quot;margin&quot;:0},{&quot;candidate&quot;:&quot;Levica&quot;,&quot;count&quot;:1,&quot;margin&quot;:0}]" d="m370.82 714.43-.35.94-.31 2.91.2 1.94-.74 3.45-1.55 2.65-.96 2.64-.97.8-1.82 3.07-.21 1.67-1.4 2.4-2.59 3.28-2.83 2.1-2.7.25-.81 1.04-2.32.1-1.94-.31 1.3 4.84.47 1.17.07 2.26-.64 2 .07.95-1 1.4-1.88-.55-1.06-1.4-1.92-.22-2.11.96-2.04-.74-.26 1.72-2.3-1.65-.92-.13-3.99 1.02-2.16-.79-1.4-.07-.57-2.88 3.65.68.95-4.39-.99-1.09-.48-2.12-1.88-2.37-4.4-.54-2.11-3.03.46-1.34 1.32.07.72-1.64-.8-2.16.57-.29.99-2.88-.56-.75 1.22-1.12-.52-.7.07-2.28.83-2.2 1.2-1.33-.55-1.1.22-1.37-1.24-1.22-1.3-.15-2.24-1.14-2.96-.16-3.54-3.99-2.46-4.27-2.7-4.08-.98-1.91 1.98-1.37 2-.56-.69-1.76-5.87-4.73-5.55-6.07-2.65-2.76-2.21.2-2.17-1.83-1.5-7.08-6.76.68-2.77-.5-8.04-8.72 1.21-1.01-6.5-8 .06-.72 1.85-.1 1.83-1.41.76-1.09.2-1.8-.57-1.55 1.27-1.83 1.56-3.46-.48-1.04.59-.69-.07-1.3 1.2-.7.62-3.8 1.55-.53-.61-1.03-1.93-1.3v-.76l-1.36-1.29-1.09.26-3.18-.68-.5-.72-1.61 2.36-.6.29-1.82-2.4-1.25-.25.07-.86 1.45-.27-.41-1-3.95.7-.98-.5-1.6.53-.68-.96 1.33-1-1.6-2.01-1.35-.99-2.46.33-1.24-.83-1.84-2.13-1.5.23-.67-1.9-5.08 2.18-4.03.86-1.33-.03-2.33-2.02-1.83.62-1.63 1.32-1.72-.35-1.18 1.7-1.6-4.03-.36-3.8-.65-4.07-2.78-3.75-2.43-1.06-.91-1.4.35-5-1.35-4.06 2.22-2.04 1.93-.5-.27-.85.49-4.31 2.52-1.6.06-1.99-.96-3 .38-2.1-.9-.39-1.09 1.06-1.37-.34-.02-2.61 1.71-2-.6-1.57 4.07.69 2-1.13.03-1.3 1.4-2.07-.24-1.61 1.05-.62.75-2.31.88-.5-.93-2.06.58-1.32 2.17-.7-.36-1.76.81-1.58 1.43.04 1.59-1.62 1.96.5 2.16-.55.6-1.9-.65-.72.83-1.33 3.19-1.43-.05-2.1 2.53-1.92 1.2-.45.87-1.76.4-2.62.51-1.45 1.61-.7.63-2.44-1.24-2.59.64-2.14-.58-1.46.95-3.21 2.24-2.95 1.84-.74.5-2.17 5.88-.72.7.45 1.17-.75-.02-1.45.79-.33.7-1.68 1.63-.12.88-.6 1.3.55 2.9.41 1.55.79 2.48.68.6-.27 2.74.93 1.69-.77 1.84.33 1.92 2.1.94-.11 1.38.7 1.83-.61.22-1.67 1.48-1.7-.86-2.08.7-.99-2.59-2.12-.31-3.06.73-.27-.23-2.6 1.35-.49.87-1.13 1.48-.79 1.56-.02 1.31-1.19.67-2.56 1.09-1.12 1.69.96.92-.54-.13-2.75 1.16.26 1.36-.5 1.02.49-.2 2.1 1.3.44 1.68-3.47-.5-.48-.08-1.9 3-.36 1.4.52 2.73-2.1 2.08-.7.63.2 2.39-1.22.49-.56-2.56-2.5-.33-1.53-1.49-2.18.12-1.34-.33-2.2 2.39.23 2.42-1.4 3.04.66-.11.96 3.06-.24 4.95-1.3 1.03-1.13 2.3-1.02-1.9-1.27-1.14-1.21.3-.8 2.34-.22 3.28.95 1.24-.7 1.71.94 3.2-.45.78 1.18 2.03 1.4.34 2.94 1.15-.08 3.45 3.01-.01 1.22-.65.85.54 1.54 1.9.12.47 1.38 2.23.1.26 1.8-.64 1.2 1.42 1.23.14.93-2.47 1.01-1.59.97-1.08-.03-1.25 2.9.33 1.59-1.4.82-1.15.12.46 1.31-.67 1.06 2.27 2.15-.22 1.18.66 2.63-.36 2.7-1.04 1.09.2.84-.88 1.57-1.26 1.27-.59-.55-4.04-2.3-1.67-.6-2.38.28 1.38 2.6-2.1 1.58-.86 1.67 1.74.37.46 3.08 1.38 2.52 2.1 1.26.48-.41 2.57.25v.58l-1.8 8.34.98 2.04-.56.75.61.92 1.1-.3 4.11-.05.13.62 1.81.34.8.94.21 1.89-1.03 1.13 1.87 1.12-.43 1.16.86.46.7 3.53 2.86 1.13 1.22-.1 1.57.85-.4 1.5 1 2.3 1.67 1.71 3.23.79.88-.83 1.88-.23 1.5.87 1.65 3.83 2.14.62.72.81 1.79.85.85.92 1.16-.42 1.69 1.73-1.15.81-.06 2.66-2.68.25-2.41 1.45h-1.05l-3.04 1.18.15 1.43 1.61 2.3-.28 1.52.07 2.23.38.9 1.76-.61.43.56-.88 1.66.35 2.48-.95 1.22 1.02.65-.52.98-.07 2.4-.48 1.27.6 1.98-1.47 1.49-.25 2.57 1.23 2.21.73 2.31.25 2.11.95.45 1.54 2.07 4.31 3.88 2.12 1 .8 1.6-.09 1-.83.88 1.36 1.95-.14 1.1.68.6.35 1.54.76.7 1.55-.81.86 3.32.03 3.4-2.29 2.5.19 3.9 1.89 1.77.58-.18.83-2.72 3.26 1.92 1.59 2 1.38.9 1.29.1 3 4.25.64-.08 2.16 3.2-.26 1.67-1.52-.7-2.31.2-.08 1.45-.84.58-2.17 2.89-1.51-.03-.45 1.6-2.78 1.07-3.3.88-1.08-1.07-.9 1.34-1.7.08-.67-.8-1.22.26-1.85-.87-.8.06-2.28 1.53-2.3.1-1.35.57.06 2.16-3.03-.06-4.44-.46-1.1-.3-1.06 2.92-1.55.32-1.42-.26-1.04.66-1.08-.51-.43 1.47 2.47 2.36 4.46.52.46.67-.34 1.5.31 1.95.51.62-.21 2-1.43 1.54.37.8-.53 2.46 1.08.66 1.38 4.15 1 .84v1.76l-1.26-.44-2.2.69-.44.92-2.42-.49-.24-.88-2.39-3.23-1.2.4-2.02 1.53 1.45 6.48 1.28 2.93 1.64 3.18 1.02 4.75 1.48 3.4.37 4.76-.22 2.39.27.94 1.79.16z"/>
    <path region="3" short-name="Ljubljana Bežigrad" long-name="Ljubljana Bežigrad" value="11" candidates="[{&quot;candidate&quot;:&quot;SDS&quot;,&quot;count&quot;:3,&quot;margin&quot;:0},{&quot;candidate&quot;:&quot;GS&quot;,&quot;count&quot;:5,&quot;margin&quot;:0},{&quot;candidate&quot;:&quot;SD&quot;,&quot;count&quot;:1,&quot;margin&quot;:0},{&quot;candidate&quot;:&quot;NSI&quot;,&quot;count&quot;:1,&quot;margin&quot;:0},{&quot;candidate&quot;:&quot;Levica&quot;,&quot;count&quot;:1,&quot;margin&quot;:0}]" d="m360.8 491.6 1.84-1.78 1.58-.4 1.07-1.74 1.1-.82 3.43-1.75 3.46-3.24.15 1.82 3.48 1.1 1.82.32 1.63-.33.35 1.38.76.91 1.56-1.05 1.64-.44.03-.92 2.92-.79 3.27-3.2.91-1.75 2.68-.54.3-1.19 1.05-.86.91.44.63 1.37.85.07 1.47-1.19 1.64.02 2.77 1.92.26.83 1.5.52 2.59-.82.9.93 1.56.44.24-.8 1.79.55.04-1.16.83-2.37 1.35.61 1.25-.61 2.1.82 1.33-.38 1.27.71 1.5-.19 1.12.6 1.05 3.07 2.05-.48.06 1.48.59.71 2.96.52.8-.3-.01-2.51.92-.92 2.77.9 1.1-1 1.11-.16 1.8.7 1.3-.67 1.76.19 1.07-.95.54 1.24.9-1.01.3-1.82 1.54.97 3.48.49 1.79.94 1.65-.2 3.74.46 1.97-1.19.44-1.02 2.8-.46 2.35.23 1.39-.47 1.1-1.08 4.29-.84 1.38 1.21.65.79.79 3.36-.68 1.33.17 1.64.54.73-1.72 1.64-.59 1.2-1.63.12.33 2.1-.36 1.28-3.74-1.66-.42.42-1.79-.5-1.5 1.04-1.51.21-.39 1.2-1.71.68-3.13.59-4.32-.24-1.15.33-1.97-.49-2.69-.1.18.74 1.36 1.38 1.97-.04 1.29 1.47-.42 1.56 1.77 1.3-.34.95 1.25 1.36.16.96 2.06.68.34 1.09-2.1 4.53-.74-.6-1.47.54-.75 1.38-1.52 1-1.26 1.37-.74-.69-2.09.26-2.86 1.73 1.49 4.75-2.78-.96-1.31 1.28.83.87.2 1.42-2.29-.34-1.65.07-.4-.54-2.91 1.26-1.18.88-.89-.61-1.15.53v2.1l-2.68.92.57 2.05-1.46 1.65-1.22.66-2.44.32-5.15 1.59-1.34-.47-.45 1.8-.94 1.1.6 1.17h1.13l1.8 1.53-.05 1.19-.85.82 1.1 1 3.64-.44.9-.54 2.44.07.3 1.89-.28 1.73-2.5 1.83-1.6.57-.66 1.16-1.87-.2 1.79 2.88 1.22.45.5 1.61 1.94.7.9 1 .6 1.6 1.16 1.33 1.3.43-.96 1.04-.01 1.45-2.74.38-.72 1.4.76 1.5-.47.73 1.96 1.1-1.12 2.13 1.9.2-1.1 2.03 2.66 1.43.9.83 1.52-.16.8-.83 2.74-.82-.12-1.36 1.23-1.21 2.08-.08 3.45-2.32 1.26 2.17.1.73 2.4 1.09 1.35-.29 1.55.22.25 1.65 2.08.02.37.73 1.39.68 1.96-.87 1.51.69 1.17.03.28.9 2.33.09 1.46-.35 1.5 1.78.3 1.4-.3 1.82 1.06.94 2.18 1.05.83.93.31 1.3.87-.23.52 1.7 2.16-1.08-.54-2.56 1.64-1.23.71 1.48.76.23 2.32 4.23 1.5 1.12.45 1.39 1.65-.07 1.55 1.24-.94.88-1.02 2.4-1.45.52-.17 2.84-1.96.9-1.79-1.5-2.08 1.31-2.47-.35-.14 3.3.93.89-.83.96-.28 1.29-1.32 1.18-.34 1.06.6 1.03-.37 3.4 1 1.88.52 1.96-.17 1.58-1.4.27-.65 1.09-.08 2.04-1.86 1.18-1.01 2.58-1.77 1.22 2.18 1.88 1.35 2.27-.26 1.29 1.5.82-.04 1.12 1.04 1.3 1 .16.26 1.44-.7 1.5-.23 1.93-3.48-.41-.56-.31-1.63.49-1.71-.8-1.93.48-.54-.64-1.47.7.12 2.54.64 2.47 2.24.19-.84 1.56.03 2.24.96.97 1.43-.41-.16 1.67.01 4.47.26 1.44-.44 1.4-.24 3.3.7 1.66-.32 1.01-1.78 2.35-3.07.18-2.4-.18-2.85-1.87-.9.15-1.3-.67-1.5 1.42-.53-.7-2.09.34-.67.97.65 1.12-1.42 3.67-.05 2.32.4 1.88 2.39 6.9 5.07 1.7 1.11.1.81-1 .15-1.13 1.13-1.67 1.01.77-.6 2.31 1.84 1.1 1.17-1.16 1.7.71 2.42-.92 2.19.95 1.87 2.06-.46.86.26 2.2 1.24.52 1.36-.93 1.37-.29.58 1.09 2.26.55 2.42-3.62 1.6-.95-.03-1.4-1.11-2.5 1.1-1.36.9.03 1.36-2.76 2.3.46 1.14-1.1-.14-1.26 2.01-.06 4.18 2.47 2.27.82 2.51.48 2.12-.26 3.66.7.26.7-.63 1.28.82 2.04-1.12 2.3 1.9.54-.05 1-.9 1.35-.98.19-.86 1.63 1.15 1.25-.6 1.77-2.63-.45-.75 1.97.58 2.87-1 .9.63 7.94 2.31.86 1.04.77.1 1.28 1.16-.06.08 1.65 2.49 2.97 3.73 2.42.67 1.06 1.87.9 1.06.04-.35 9.05 2 7.5 4.66 4.15 2.74 5.48-.49.98 1.36 1.03.55 1.32 2.4 1.4 2.94.9-.74 1.34.61.55 2.22.71V749l-1.66 1.79 1.4 1.03 1.89 2.66-1.23 1.35-.82 1.49.58 1.6-.48.42-.07 3.22 1.54 1.57 2.42-.46 2.13.78 1.8 1.27-.5 2.65-.88 1.82-2.07-.25-.4-1.75-1.3-.56-.39 2.23-1.42.15-1.04.72-.54 1.33-1.65-1-1.16.92.5 1.85-1.68 2.88.56 1.06-.1 2.18-.7.83 1.66 2 1.87.5 2.45-.78 3.66-2.18 1.43-1.69 1.07.04 2.84-1 2.44 2.86.95.22.4 1.06-.7.62-.4 1.5-1.54 1.44-2.5-.12-.99-.52-2.73 1.25-1.8 1.49-.86.1-2.17 2.32-1.9.55-.57.9.39 2.26-1.7 1.3-1.17-1.1-1.59.36-1.1 2.08-2.16.95-3.32.44-.76-.47-.42-1.53-2.03-1.19-.77-1.58-.97-.55-3.5.62-3.8-.02-2.6-1.38-2.66-3-1.22-1.83-2.03-.91-2.18-2.34-2.02-1.37-.89-1.11-2.2-1.32-1.38-1.2-3.18.48-.61 2.03-1.91 2.01-.16 3.42 1.08 2.7-1.26 1.26-.12 1.56.88.85.19 1.33-1.64 2.53.48 2.54-.63 1.54-.95.85-1.68.62-2.48-.46-1.53.34-2.54 1.46-1.64.03-1.17 2.32-1.4.5-1.8-.38-1.43.93-3.7 1.1-3.51.74-2.58-.16-2.26.64-.37-.46-.34-3.21.12-1.74-3.46-3.38.38-.95-.49-2.73-1.48-1.16-.26-.99 1.44-1.59-2.7-3.24-1.24 1.43-1.1-.3.53-1.13-.79-1.51-4.31-.43-.82.73-1-.66.23-2.15-2.18 1.02-1.13-1.66-2.4-2.23-.38.1-2.09-2.08-.87-.42-.97-2.46-1 .55-1.94-1.05-1.5-1.44-2.22-.26-.8.78-1.13-.83-1.3.16-.51.96.44 1.16-.44 1.68-3.46-.33-1.38-2.04-.29-1.92 1.03-1.8.02-2-.44-.85 1.18-1.25-.71-1.59.88-1.51 1.23-.13.6-.87.4-1.82-.4-1.96.27-.67-1.15-1.06-.52-3.04-.73-.42-.66-1.65-1.44-.38-1.14-2.48-2.55-.68-2.88-.2-3.51-.61-.95-2.02-1.5-1.96-.92-.1-.57-1.5-1.49.66-.9-.81-.22-1.47-.7-.86-.32-1.73-1.45.04-.91-1.17-2.35-.45-.95-1.58-1-.37-2.97-2.7 1.22-1.25.69-1.55.1-2.46-.25-1.78 1.1-1.24.98-5-.52-2.19-.96-1.49-1.35-.5-.23-.68-2.25.98-1.55-.01-.83.83-1.15-.43-1.8-3.07-1.2-.18-1-.62-1.8-.16-.26-.94.22-2.4-.37-4.75-1.48-3.4-1.02-4.75-1.64-3.18-1.28-2.93-1.45-6.48 2.03-1.54 1.2-.39 2.38 3.23.24.88 2.42.5.45-.93 2.19-.69 1.27.44v-1.76l-1-.84-1.4-4.15-1.07-.66.53-2.45-.37-.8 1.43-1.55.21-2-.5-.62-.32-1.95.34-1.5-.46-.67-4.46-.52-2.47-2.36.43-1.47 1.08.5 1.04-.65 1.42.26 1.55-.32 1.06-2.93 1.1.3 4.44.47 3.03.06-.06-2.16 1.34-.56 2.31-.1 2.27-1.54.81-.06 1.85.87 1.22-.26.67.8 1.7-.08.9-1.34 1.07 1.07 3.3-.88 2.8-1.08.44-1.6 1.51.04 2.17-2.9.84-.57.08-1.45 2.31-.2 1.52.7.26-1.67-2.16-3.2-.64.08-3-4.25-1.3-.1-1.37-.9-1.6-2-3.25-1.92-.83 2.72-.58.18-1.9-1.78-.18-3.9 2.29-2.49-.03-3.4-.86-3.32-1.55.8-.76-.69-.35-1.55-.68-.6.14-1.1-1.36-1.94.83-.88.08-1-.8-1.6-2.1-1-4.32-3.88-1.54-2.07-.95-.45-.25-2.1-.73-2.32-1.23-2.21.25-2.57 1.46-1.49-.59-1.98.48-1.27.07-2.4.52-.98-1.02-.65.95-1.22-.35-2.48.87-1.66-.42-.56-1.76.61-.38-.9-.07-2.23.28-1.52-1.6-2.3-.16-1.43 3.04-1.18h1.05l2.41-1.45 2.68-.25.06-2.66 1.15-.8-1.69-1.74-1.16.42-.85-.92-1.79-.85-.72-.81-2.14-.62-1.66-3.83-1.5-.87-1.87.23-.88.83-3.23-.79-1.68-1.72-.98-2.3.4-1.49-1.58-.86-1.22.11-2.86-1.13-.7-3.53-.86-.46.43-1.16-1.87-1.12 1.03-1.13-.21-1.89-.8-.94-1.81-.34-.13-.62-4.11.05-1.1.3-.61-.92.56-.75-.98-2.04 1.8-8.34v-.58l-2.57-.25-.48.4-2.1-1.25-1.38-2.52-.46-3.08-1.74-.37.87-1.67 2.09-1.57-1.38-2.6 2.38-.28 1.67.6 4.04 2.3.6.54 1.25-1.27.88-1.57-.2-.84 1.04-1.09.36-2.7-.66-2.63.22-1.18-2.27-2.15.67-1.06-.46-1.3 1.15-.13 1.4-.82-.33-1.58 1.25-2.9 1.08.02 1.59-.97 2.47-1-.14-.94-1.42-1.22.64-1.22z"/>
    <path region="4" short-name="Celje" long-name="Celje" value="11" candidates="[{&quot;candidate&quot;:&quot;SDS&quot;,&quot;count&quot;:3,&quot;margin&quot;:0},{&quot;candidate&quot;:&quot;GS&quot;,&quot;count&quot;:5,&quot;margin&quot;:0},{&quot;candidate&quot;:&quot;SD&quot;,&quot;count&quot;:1,&quot;margin&quot;:0},{&quot;candidate&quot;:&quot;NSI&quot;,&quot;count&quot;:2,&quot;margin&quot;:0}]" d="m653.05 537.37-2.02-.64-1.6.98-1.64.17-3.13.83-1.74-1.36-3.3.07-2.87 1.95-1.62-.86h-2.71l-1.34.48-.87-.35-2.1.42-2.82-.9-1.33-1.73-1.62-.67-1.65.57-1.31 1.39-2.21-.96-1-1.04.83-1.17-.31-1.06 1.25-.47-.62-1.39 1.05-1.17 1.42-.46.55-1.39.52-5-2.5-.9.3-3.11 1.22-.13.97-1.6-1.16-1.6-2.1-4.74.16-2.64-.75-1.05-.24-1.44-1.68-1.44.14-.88-2-2.02.98-1.48.34-1.6 1.22-.19 3.14-1.2.02-3.66-.45-1 1.21-1.26-1.3-1.5-1.62-3.4-1.97.56-1.48.98-2.77.03-.4.97-2.78.54-.72-1.6-.71 1.8.31 1.55-2 .26-.53 2.24-2.28.13-2.53.48-1.33.82-1.02.07-.75-1.03-1.64.55-2.5-1.05-.66-2.59 1.08-.78 2.67.04.85-3.66 1.54-.3-.68-1.82-.84-1.01-.73.33-1.27-.85-2.54-.65-3.94.47-3.94-.75-.57-1.34-.13-1.8-1.42-.62-1.15 1.26h-.9l-.93 1.25-1.8.25L575 483l-1.69 1.04-.69-1.97-3.34.75 1.54-2.36-1.07-.27-2.37 2.06-.31 2.86-1.21.3-2.87-.61-3.81.7-.4.93-2.46.11-1.35-1.2 1.41-1.48-1.49-.61-.64-.92-1.84 1.85-1.19-.56-1.41 1.78-3.22.47-.82-.13-4.81 1.64-2.21-.1-1.57-1.34.33-1.21-2.6-1.5-3.14 1.96-3.96 1.38-1.43-.77-2.55-.19-1.37-.89-2.43-.62-1.51-.85-.27-1.54-.84-.43-1.56 1.34-2.68.48-.7-.67-2.32-.06-2 .86-.78-.56-.04-1.46-1.77-.95-2.64 1.1-.96-.37-.97.66-1.28-.3-.92-.96-1.46.31-1 1.13-1.77.01-7.37 3.47-2.91-.31-1.4.52-1.86-1.37-.26-1.42-.85-1.4-1.9-1.11-1.78-.32-.26-4.25.54-.38-.66-1.9 5.19-1.65-3.41-.9-2.93-5.63-1.39 1.08-1.08-1.07-.35-1.08-2.55-.03-.64-1.75-1.82-1.36-1.49-.15-2.07-.7-2.32-1.34-1.94-2.21-4.65-.19-4.15-1.35-3.52.17-3.1-.9-3.98 1.32-4.23.66-.62.45-1.72-.26-1.84-1.4-1.36.22-1.2 1.13-1.56-.73-1.97-1.4-1.83.02-2.84-1.06-1.94.27-2.6-.3-3.35-.05-1.63-2.64-1.2-1.44 1.3-1.59.87-2.43.83-.99.09-1.94-.34-1.03-3.93.92-.97-.19-1.98.72-2.63-1.03.54-2.68.58-1.38v-3.3l-.87-2.75-.13-1.65-1.22-1.25-1.67-.79h-2.18l-1.3-1.83-1.62-1.26-.55-1.29-1.27-.64-1.51-2.33.92-1.7-.52-.77-.32-3.63.2-1.08-.07-4.64-.22-3.14-7.15 2.98-5.49-1.05-1.39.22-1.46 1.99-5.38-4.85-1.58-.94-.02-2.1.07-1 1.13-.5 1.24.13 1.77-.94.88-2.06-.91-.43 1.18-1.71 1.15-2.4.46-1.86-.33-3.52.55-.65.33-2.08-.23-1.85-1.67-.66.36-3.7.59-2.48 1.71-.78 1.38-1.22-.1-1.26 2.71-.06 1.44-1.13 1.89-.22.75.45 4.23-.24 2.92-1.6 3.58-.89 2.25.23 1.17-.88 1-1.58 1.36-.5 1.17.17.59-1.94.8-1.35-1.1-1.62.9-.51 1.43-2.34 1.04 1.1 2 .74 1.9.1 1-1.67-.26-1.69-1.12-1.62 1.08-1.58.23-1.02 2.19-.24.66-2.84.15-1.84.92-3.89 2.2.78.97 1.7 1.49 1.25.38-1 1.64-2.34.44-1.81 1.12-.95 1.19.89 1 2.54 3.25-2.93 3.13-.22 1.27.32 1.19-.33.92 1.9 1.43.4 1.42-.56 1.73-1.26 1.33-.27 2.4-1.6 2.5-.21 1.24-.56.17-1.8-.32-1.78.3-.98-.4-1.24 1.23-.94.24-1.32.82-1.24-.79-1.11.04-1.23 2.2-1.52-.4-1.47-1.72-.64v-1.2l.95-.98 1.94-.27-.11-1.13 1.87-3.12-.15-1.23-.93-1.09 1.5-1.85-.42-.8 1.8-3.62 1.36-1.23 1.2-.37.03-.86 1.15-1.92.66-2.84 2.07-.14.91-2.72-.16-2.25 1.06-1.3 2.25-.4.99-1.4 1.77-.67 1.04.12 3.18 1.33 1.81 1.94 1.67.54 1.62-.47.7 1.44 1.3-.61-.41-1.6.27-1.9-.31-.69-.14-2.68.56-.79 1.65.46.87 1.75.77-.46.88-1.56 1.1.09.49-.83 3.93-4.31.46-.8 3.55 2.22 1.37 2.1.77 2.99.3 3.85 1.37 3 1.62-1.02.57-1.96 2.64-2.65.13-3.66 4.59-5.37 1.87-3.17 4.07-1.79 1.47-1.87 3.1-1.44 3.22.25 1.47-.27 2.46.33 2.9 1.15 1.87 1.7 2.07-2.84 1.09-.7 1.51.03.9-1.4 3.2-1.67 1.59 2.08 2.8.49 1.17 1.8.8-.25.83-2.58 1.26-.68.72.63 1.59-1.55 2.27.7.73 1.09 2.3-.87.67.21.68 1.42 2.01-.02 2.93-.82 2.08 1.47.9 1.97 1.6 1.21 2.72.24.9.57 1.45.07 1.35.72 1.93-.56 3.6 1.83 1.7-.3.82-.77 3.04-.24 2.71-1.1 4.44.52 1.68-.74.57-1.24 1.4-.47 1.5-1.45 2.54-.48 3.02.5 1.31 1.4 1.59.53 2.41-2.42.9.4 2-.37 1.05 1.04 1.87-1.15 2.04-.71.61 1.6 3.86.07 1.3.7 1.11-.97 2.34.17 1.72-.64 1.49.39 2.56-.67 1.35 1.2.4 1.2 1.12.8-.27 1.6.7 1 1.68-.32 2.03 1.74 1.16.25 1.22 1.71.43 6.47.57.42 2.91.16v1.73l-1.04.87.24 2.7-2.03 1.77.24 1.53-1-.07-.3 3.7-.9.66 1.6 2.14 2.33-.65 1.32.2-.87 1.36-.73.2-.83 1.64v2.23l.42 2.56-1.24 1.2-2.2.76-1.19-.1-1.4-.97-2.74-3.3-1.78-1.5-.64-1.73-2.49-1.24-4.6-.07-1.83-.85-.92.1-2.2 1.91.4 1.5 1.39 3.34-.47 3.35-.98.7-2.54-.85-.84 1.56-.46 1.74.09 2.2-1.18-.3-1.33-1.42-.65.89.06 1.78.67.69-.48 1.98-1.22 1.65-.13 2.5-.67 1.17 1.1.71-1.5 1.54-.33 2.01-1.5-.07-.8 1.06-1.14.23.68 2.43-.71 1.24-2.57 3.2-1.08 1.88-.53 4.04 1.45 3.05-.57 1.8-1.19-.34.08 3 .57 2.1 1.59 2.82 1.85 1.64 1.03.46.3 1.72-1.32 1.68-1.37.97-5.66.03-2.08-.37-.76.81-2.9 1.14-1.84.29-1.47-.43-1.7 1.59.1 1.03-.63 1.12-1.6 1.47-.05 1.35-1.13 1.5.4 2.55-1.24 1.55.66 1.64-1.51 1.79-.63-.18-.77 2.75-.62.37-2.39 3.22-1.33-.2-.08 1.5.85 1.55-1.22.13 4.62 3.63 1 1.78.19 1.74 1.66 2.91-.06.5 2.73.1.82 1 1.63-.42 2.53.67.7-.76 1.33.05 2.64 1.51 1.05-2.4 4.31.23.83.42 2.44.15 1.44.72.69-.28 1.47.75.3 3.37-.29 1.25 1.1 1.1-.64 1.83.97 1.05 2.69 2.03 2 .77 1.05 1.13 1.8.73.35 1.34-2.23 2.42.07 1.24 1.8 1.5.45 1.36 1.27.12.3.96 2.16 2.46 1.39.63-.28 1.74 2.73.4 3.19-.97 3.1 1.03 1.7-.06 1.05 1.37.92-.35 2.03.46 1.24 1.32 2.16-.44.95 1.1 2.26-.58 1.63 1.48.18.9 1.57-.25 1.6.69 1.15-.13 1.73 1.08.25 1.5 2.35.35 1.3-.27 2.4 1.05.5-1.4 2.58-.97 3.9 2.58 1.76 1.34-1.42 1.5-.31 1.5-1.03.72-1.97.41.66 1.92-1.2.53-.9 1.44-1.4-.08-.28 2.31-3.21 1.17-.54 1.44-6.09 1.9.45 1.67-1.55.11-4.14 3.63-1.76 1.95-.99.15-1.19 1.02 1.02.64.27 1.58.98 1.25-.71 1.9 1.27 2.39.76 2.02.29 1.72 1.68.48-.07 1.58.55.6h2.6l-.64 2.86 2.3 1.48 1 2.02-.78 2.27.54 3.2 1.82.1-.16 2.27.66.76 1.15-.16 1.46.64.87 1.55 1.73.84 1.97-1.34 1.17-.16 1.17-2.38 2.77-.56 2.5.6 1 1.7 2.06.4-.6 1.36.4 2.11-2.28 2.54-.07 1.69-.69.98.08 2.39-1.44.5-3.44.56-.7 1.37 1.15 2.22-1.76.44-1.83 2.95.58 2.08-2.22.44-2.06 1.29-1.87-1.54-.66-2.14-2.04-.83-1.57 1.7-.5 1.5-2.45-1.01-1.29.32 2.48 2.59-.45 2.87-.42.67 1.39 3.7 2.11 2.04 3 .18.74 1.37.22 1.37-.49 2.78z"/>
    <path region="5" short-name="Novo Mesto" long-name="Novo Mesto" value="11" candidates="[{&quot;candidate&quot;:&quot;SDS&quot;,&quot;count&quot;:4,&quot;margin&quot;:0},{&quot;candidate&quot;:&quot;GS&quot;,&quot;count&quot;:5,&quot;margin&quot;:0},{&quot;candidate&quot;:&quot;SD&quot;,&quot;count&quot;:1,&quot;margin&quot;:0},{&quot;candidate&quot;:&quot;NSI&quot;,&quot;count&quot;:1,&quot;margin&quot;:0}]" d="m472.72 476.67 2.79-.51.47-.51.26 4.25 1.78.32 1.9 1.12.85 1.39.26 1.42 1.86 1.37 1.4-.52 2.9.31 7.38-3.47h1.78l1-1.14 1.45-.3.92.95 1.28.3.97-.65.96.37 2.64-1.1 1.76.94.05 1.46.78.56 2-.86 2.32.06.7.67 2.68-.48 1.56-1.34.84.43.27 1.54 1.5.85 2.44.62 1.37.9 2.55.18 1.43.77 3.95-1.38 3.14-1.96 2.61 1.5-.33 1.21 1.57 1.35 2.2.1 4.81-1.65.83.13 3.22-.47 1.41-1.77 1.19.55 1.84-1.85.64.92 1.5.61-1.42 1.49 1.35 1.2 2.46-.12.4-.92 3.8-.71 2.88.62 1.21-.3.3-2.87 2.38-2.06 1.07.27-1.54 2.36 3.34-.75.69 1.97 1.69-1.03 1.29-1.5 1.8-.26.92-1.25h.91l1.15-1.26 1.42.62.13 1.8.57 1.34 3.94.75 3.94-.47 2.54.65 1.27.85.73-.33.84 1 .68 1.82-1.54.3-.85 3.68-2.67-.05-1.08.78.66 2.59 2.5 1.05 1.64-.55.75 1.03 1.02-.07 1.33-.82 2.53-.48 2.28-.13.53-2.24 2-.26-.31-1.55.71-1.8.72 1.6 2.78-.54.4-.97 2.77-.03 1.48-.98 1.97-.56 1.63 3.4 1.3 1.5-1.22 1.26.45 1-.02 3.65-3.14 1.21-1.22.19-.34 1.6-.97 1.49 1.99 2.02-.14.87 1.68 1.44.24 1.44.75 1.05-.15 2.64 2.09 4.74 1.16 1.6-.97 1.6-1.22.13-.3 3.1 2.5.91-.52 5-.55 1.39-1.42.46-1.05 1.17.62 1.4-1.25.46.31 1.06-.83 1.17 1 1.04 2.21.96 1.31-1.39 1.65-.57 1.62.67 1.33 1.73 2.82.9 2.1-.42.87.35 1.34-.48h2.7l1.63.86 2.87-1.94 3.3-.08 1.74 1.37 3.13-.84 1.65-.16 1.59-.99 2.02.64 2.12.98 2.18 1.9 1.47.84.42 1.57 2.16-.64.59-1.38 1.6-1.07 3.2 1.55.18 2.02 1.56.92.19 1.76.87.83 2.57.54.74 2.34.16 2.56-.52.58.68 1.44.86 3.15-.23 2.45 1.13.16 2.16-1.47 1.3.78 1.32-.35 1.82-1.81 1.77.85 3.87-.74.47-.63 1.34 1.4-2.2 3.62 1 .25-1.29 2.17-1.78 1.94-.82.17-1.49 1.54-.83 1.81 1.29.91 2.67-1.48 1.83-.3.92-1 2.24-.1 1.46-.95 1.17-2.02 1.77-1.52 3.26-1.1 1.19-2.17 1.39-.47.98-1.52 3.8-2.54 1.51.02 1.56-2.06.14-1.35.85-1.15.8-2.04.82-.62 3.45-.54 2.58 1.36 1.01.21 1.3-.7 1.96-2.27 1.82-.44 1.18.2 1.55 1.08.9-.77.85-1.93 1.13 1.1.47 1.57 1.53 1.03.76.97-.9 1.62-1.68-.55-.71 2.12-1.8.94.2 1.47 1.05 1.92-1.5.17-.8 1.8 1 1.32-.65.9-2.42 1.27 1.44.39 1.39 2.44-.97 2.38-1.02.01-1.34 2.2.53 2.05-1.3.65.67.93-.07 1.33.66 3.06.59 6 .68 2.47-.2.6-.02 4.36-.33 1.65.52 2.7-.68 1.03.55 1.54-.19 1.24-.87 1.05-.22 1.64.7 1.48-.68 1.63-.82-.66-.93.57-.52 2.3-1.39.1-.82 1.6-2.2 2.04-1.47.77.76 1.73-.3 1.83.81.45.23 3.67 2.46.97-1.44 1.95-1.63.72-.85.92 1 1.48-1.25 1.97 1.4 2.5 1.08.76 2.33.65 1.36 1.08 2.11 2.91 1.11 2.31-1.68.69-1.2-1.44-1.07-.57-.65.75.25 1.52-1.53.94-1.63-.44-3.44 1.15-2.63-.31-1.17 1.75-3.4 3.09-.82 2.16-1.87 2.33-1.5-1.92-.84-.17-.29-2.33-1.38-1.17-1.5.04-1.8-.47-.32-.72-2.33-1.62-.28-.7-3.2-1.21-.55-.58-4.73-1.3-2.83-2.62-.7 1.91-2.27 2.36-.24 2.55-.49 1.1-1.93-1.27-.68-.82-.37-2.26-2.45-.34-1.4-.62-.37 1.7.6 3.42-1.2 1.83.22 1.23-.85.35-1.67 2.1-1.76.33-.47.8-2.36-.76-.79.94-1-.58-1.94.04.58-2.43-2.11-.8-1.09-1.22-2.03 1.27-2.27.75-.39 2.33.37 1.03-1.07.9-1.36.27-1.58-.48.64 2.12.79.84-.2 1.6.35 1.93 1.52 2.57-2.03 1.3-2.1.7-.93-.5-1.9-.3-1.2.26-1.42-.48-3.24.31-3.01-.42-1.48.02-.6.64-1.54-.25-1.65 1.77-1.12-.66-1.52.3-1.26 1.33-1.02.35-1.79 1.9-.37 1.23-1.21 1.01-2.13-.8-.85 1.48-1.03.6-2.09-.33-.6 1.37-2.47.37-.35.6-2.68 1.39-2.4 1.94-2.95 1.58-2.55.38-1.19 1.13-1.7 1-2.33.17-1.39 1.51-.17 1.46-1.46 1-2.69.87-1.92 1.51.13 1.44-1.36 1-2.63 3.38-.95.48-.86 3.25 1.62-.29 1.7 1.11-.23.86.92 3.43 1.12.43 2.4-2 .7.23 1.4 2.05.4 2.65-.61.73.45 2.63 1.31.31.82 1.16.88-.2.55-1.38-.33-2.13 1-.8 1.64.8.58.8-.23 2.37-.9.53 1.58 1.18.48 1.36 1.6 2.14.2 1.73 1.41.25 1.07-.78-.78-3.38-.92-1.25-.6-2.53.26-1.99 2.62-1.24 1.42-1.3.87-1.48-.22-.92 1.6-3.23 2.52.26 2.05-.18 1.13.5.52 2.41-.78 2.44v1.6l1.37-.14.94.93-.24 2.4-.9 1.04-.29 1.95-1.45-.7-1.24.83-1.06 5.98h.96l1.25-.95-.37-.94 2.74-1.2.11-2.44 1.47-3.05.4 1.92 1.2 1.86.7.48.44 1.75 1.79.74 2.15 3.54.64-.03v2.13l.9.53.25 3.33 1.27 1.37 2.1.23.16 1.28-1.32.74-.67 1.61-1.09 1-2.06 1.18-1.68-.5-.62-.9-2.5-.25-.95-.63-.4-1.46-1.96.82-4.22-1.19-2.18.43-.34.94.8.9h1.67l.75 1.48-1.44 1.38-2.6.93-2.97-.82-4.71.6-2.4.53-1.51 1.02.29 1.4-.38 1.35 1.61 2.39.41 1.87-.88.75-4.03.11-3.47 1.85-1.38 1.51.07.5 2.13 3.21 2.8 2.45 1.84 2.45.55 3.72-.6 6 .44 2.39-.3 4.31.82 2.45-.22 1.92 1.37 2.28 2.69.45-.15 2.55.6 1.58 2.25.39 1.22 1.03.18 1.72 1.26 1.8 1.1.88 5.54 3.22 1.33 1.08 1.39 1.86.96.21 1.5-1.29.91 1.56 1.78.98.7.89 1.67.56-.36 1.6-1.6.24-1.43.7-2.96 2.13-1.6.73-1.21 2.09-.36 1.85-1.77 1.91-.24 1.56-1 1.85-1.24-.3-1.92.63-1.8 1.19-1.61-.18-1.54-1.18-7.11-1.42-1.42-.9-4.03-1.83-1.78-.22-2.29 1.87-2.2 1.24-2.37 1-2 1.3-3.06 4.35-1.86 3.02-.03 2.3-.69 2.08-1.67.72-4.15.12-1.84-.57-2.1-4.2-.97-.01-.8.84.43 2-2.29 2.46-1.77 1.09-1.6-.74-1.72.49-4.1-1.86-2.34-2.34-.57-2.32-1.1-1.37-.66-1.82-.74-.43-3.52-.6-.97-.7-1.24-1.7-1.92-1.63-2.14-2.88-.93-.59-2.38-.11-2.21-1.12-.9-.97-.21-3.98.76-2-.4-.63-2 .43-2.09-2.31-1.24-.3-1.92.16-.95-.65-.36-1.17 1.7-1.31-.39-2.26.57-.9 1.9-.55 2.16-2.31.88-.12 1.79-1.48 2.73-1.25.98.52 2.51.12 1.54-1.44.4-1.5.7-.62-.4-1.06-.95-.22-2.44-2.86-2.84 1-1.07-.04-1.43 1.69-3.66 2.18-2.45.78-1.87-.5-1.66-2 .7-.83.1-2.18-.56-1.06 1.69-2.88-.5-1.86 1.15-.91 1.65 1 .54-1.33 1.04-.72 1.42-.15.39-2.23 1.3.56.4 1.75 2.07.25.88-1.82.5-2.65-1.8-1.27-2.13-.78-2.42.46-1.54-1.57.07-3.22.48-.43-.58-1.6.82-1.48 1.23-1.35-1.89-2.66-1.4-1.03 1.66-1.8v-2.58l-2.22-.7-.6-.56.73-1.34-2.94-.9-2.4-1.4-.55-1.32-1.36-1.03.5-.98-2.75-5.48-4.66-4.14-2-7.51.35-9.05-1.06-.04-1.87-.9-.67-1.06-3.73-2.42-2.49-2.97-.08-1.65-1.16.06-.1-1.28-1.04-.77-2.31-.86-.64-7.95 1-.89-.57-2.87.75-1.97 2.63.45.6-1.77-1.15-1.25.86-1.63.99-.2.89-1.33.05-1.02-1.9-.53 1.12-2.3-.82-2.04.63-1.28-.26-.7-3.66-.7-2.12.26-2.5-.48-2.28-.82-4.18-2.47-2.01.06.14 1.26-1.15 1.1-2.29-.46-1.36 2.76-.9-.03-1.1 1.36 1.11 2.5.03 1.4-1.6.95-2.42 3.62-2.26-.55-.58-1.09-1.37.3-1.36.92-1.24-.52-.26-2.2.46-.86-1.87-2.06-2.2-.95-2.42.92-1.69-.7-1.17 1.14-1.83-1.09.6-2.31-1.02-.77-1.13 1.67-.15 1.13-.8 1-1.12-.1-5.07-1.7-2.39-6.9-.4-1.88.05-2.32 1.41-3.67-.64-1.12.67-.97 2.09-.33.54.69 1.5-1.42 1.3.67.9-.15 2.84 1.87 2.4.18 3.07-.18 1.78-2.35.32-1.01-.7-1.66.24-3.3.44-1.4-.26-1.45-.01-4.46.16-1.67-1.43.4-.96-.97-.03-2.23.84-1.56-2.24-.19-.64-2.47-.12-2.54 1.47-.7.54.64 1.93-.48 1.7.8 1.64-.5.56.32 3.48.41.24-1.93.69-1.5-.27-1.44-1-.16-1.03-1.3.05-1.12-1.5-.82.25-1.3-1.35-2.26-2.18-1.88 1.77-1.22 1-2.59 1.87-1.18.08-2.03.65-1.1 1.4-.26.17-1.58-.52-1.96-1-1.89.37-3.39-.6-1.03.34-1.06 1.32-1.18.28-1.3.83-.95-.93-.89.14-3.3 2.47.35 2.08-1.3 1.79 1.48 1.96-.89.17-2.84 1.44-.52 1.03-2.4.94-.88-1.55-1.24-1.65.07-.46-1.39-1.5-1.12-2.31-4.23-.76-.23-.7-1.48-1.65 1.23.54 2.56-2.17 1.08-.5-1.7-.88.23-.31-1.3-.83-.93-2.18-1.05-1.07-.94.31-1.82-.3-1.4-1.5-1.78-1.46.35-2.33-.09-.28-.9-1.17-.03-1.51-.7-1.96.88-1.4-.68-.36-.73-2.08-.02-.25-1.65-1.55-.22-1.36.29-2.4-1.1-.09-.72-1.26-2.17-3.45 2.32-2.08.08-1.23 1.21.12 1.36-2.74.82-.8.83-1.53.16-.9-.83-2.65-1.43 1.1-2.04-1.9-.2 1.12-2.11-1.96-1.1.47-.75-.76-1.5.72-1.4 2.74-.37.01-1.45.96-1.04-1.3-.43-1.16-1.32-.6-1.6-.9-1-1.94-.7-.5-1.62-1.22-.45-1.79-2.87 1.87.19.67-1.16 1.6-.58 2.49-1.82.27-1.73-.3-1.9-2.43-.06-.9.54-3.64.44-1.1-1 .85-.82.05-1.19-1.8-1.54h-1.13l-.6-1.15.94-1.11.45-1.8 1.34.47 5.15-1.6 2.44-.32 1.21-.65 1.47-1.65-.57-2.05 2.67-.92.01-2.1 1.15-.53.89.61 1.18-.88 2.9-1.26.41.54 1.65-.07 2.28.34-.19-1.42-.84-.87 1.32-1.28 2.78.96-1.5-4.75 2.87-1.73 2.09-.26.74.7 1.26-1.38 1.52-1 .75-1.38 1.47-.54.74.6 2.1-4.53-.34-1.09-2.06-.68-.16-.96-1.25-1.36.34-.95-1.77-1.3.42-1.56-1.3-1.47-1.96.04-1.36-1.38-.18-.74 2.69.1 1.97.48 1.15-.32 4.32.24 3.13-.59 1.71-.68.39-1.2 1.5-.21 1.51-1.03 1.79.5.42-.43 3.74 1.66.36-1.27-.33-2.11 1.63-.11.59-1.21 1.72-1.64-.54-.73-.17-1.64.68-1.33-.8-3.36z"/>
    <path region="6" short-name="Maribor" long-name="Maribor" value="11" candidates="[{&quot;candidate&quot;:&quot;SDS&quot;,&quot;count&quot;:3,&quot;margin&quot;:0},{&quot;candidate&quot;:&quot;GS&quot;,&quot;count&quot;:7,&quot;margin&quot;:0},{&quot;candidate&quot;:&quot;SD&quot;,&quot;count&quot;:1,&quot;margin&quot;:0}]" d="m727.87 544.14-.85 1.93-.9.77-1.55-1.09-1.18-.2-1.82.45-1.96 2.27-1.3.7-1.01-.21-2.58-1.36-3.45.54-.81.62-.81 2.04-.85 1.15-.14 1.35-1.56 2.06-1.52-.02-3.79 2.54-.98 1.52-1.4.47-1.18 2.18-3.26 1.1-1.77 1.51-1.17 2.02-1.46.96-2.24.08-.92 1.01-1.83.3-2.67 1.48-1.29-.9.83-1.82 1.5-1.54.8-.17 1.8-1.94 1.27-2.17-1-.26 2.2-3.6-1.33-1.41-.46.63-3.88.74-1.77-.85-1.82 1.8-1.33.36-1.28-.78-2.17 1.47-1.13-.16.23-2.45-.86-3.15-.68-1.44.52-.58-.16-2.56-.74-2.34-2.57-.54-.87-.83-.2-1.76-1.55-.92-.18-2.02-3.2-1.55-1.6 1.07-.59 1.38-2.16.64-.42-1.57-1.47-.85-2.18-1.9-2.11-.97.88-1.04.5-2.78-.23-1.37-.75-1.36-2.99-.19-2.11-2.04-1.39-3.7.42-.67.45-2.87-2.48-2.59 1.28-.32 2.45 1.02.51-1.5 1.57-1.7 2.04.82.66 2.14 1.87 1.54 2.06-1.3 2.22-.43-.58-2.08 1.83-2.95 1.76-.44-1.14-2.21.69-1.38 3.44-.57 1.44-.5-.08-2.38.7-.98.06-1.7 2.29-2.53-.42-2.1.61-1.37-2.06-.4-1-1.7-2.5-.6-2.77.56-1.17 2.38-1.17.16-1.97 1.34-1.73-.84-.87-1.55-1.46-.64-1.15.16-.66-.76.16-2.27-1.82-.1-.54-3.2.77-2.27-1-2.02-2.3-1.48.65-2.86h-2.6l-.55-.6.07-1.58-1.68-.47-.29-1.73-.76-2.02-1.28-2.4.72-1.88-.98-1.25-.27-1.6-1.02-.63 1.2-1.02.98-.15 1.76-1.95 4.14-3.63 1.55-.11-.45-1.66 6.1-1.91.53-1.44 3.2-1.17.28-2.3 1.41.07.9-1.44 1.2-.53-.66-1.92 1.97-.41 1.03-.72.31-1.5 1.42-1.5-1.75-1.34-3.9-2.58-2.6.97-.49 1.4-2.4-1.05-1.3.28-2.35-.37-.25-1.5-1.73-1.07-1.15.13-1.6-.69-1.57.25-.18-.9-1.63-1.48-2.26.57-.95-1.1-2.17.45-1.23-1.32-2.04-.46-.9.35-1.06-1.37-1.7.06-3.1-1.03-3.19.98-2.73-.41.28-1.74-1.39-.62-2.16-2.47-.3-.96-1.27-.12-.45-1.36-1.8-1.5-.07-1.24 2.23-2.42-.35-1.34-1.8-.73-1.06-1.13-2-.77-2.68-2.03-.97-1.04.64-1.85-1.1-1.09.3-1.25-.31-3.37-1.47-.75-.7.28-1.43-.72-2.44-.15-.83-.42-4.31-.23-1.06 2.4-2.63-1.51-1.33-.05-.7.76-2.53-.67-1.63.41-.82-1-2.73-.1.05-.49-1.65-2.91-.2-1.74-.99-1.78-4.63-3.62 1.23-.14-.86-1.54.09-1.52 1.33.2 2.38-3.2.63-.37.77-2.76.63.18 1.5-1.79-.65-1.64 1.24-1.54-.4-2.55 1.13-1.5.05-1.36 1.6-1.47.63-1.11-.1-1.04 1.7-1.6 1.47.44 1.83-.28 2.9-1.15.77-.8 2.08.36 5.66-.03 1.37-.97 1.31-1.68-.29-1.72-1.03-.46-1.86-1.64-1.58-2.82-.57-2.1-.08-3 1.18.34.58-1.8-1.45-3.05.53-4.04 1.08-1.88 2.57-3.2.7-1.24-.67-2.43 1.14-.23.8-1.06 1.5.08.34-2.01 1.5-1.55-1.11-.7.67-1.17.13-2.51 1.22-1.65.48-1.98-.67-.69-.06-1.78.65-.89 1.33 1.42 1.18.3-.09-2.2.46-1.74.84-1.55 2.53.83.98-.7.48-3.34-1.38-3.34-.4-1.5 2.19-1.9.92-.1 1.82.84 4.61.07 2.49 1.24.64 1.73 1.78 1.5 2.74 3.3 1.4.96 1.2.11 2.19-.75 1.24-1.21-.42-2.56v-2.23l.83-1.64.73-.2.87-1.35-1.32-.21-2.34.65-1.6-2.14.91-.66.3-3.7 1 .07-.24-1.53 2.03-1.76-.24-2.71 1.03-.87.01-1.73-2.9-.16-.59-.42-.42-6.46-1.22-1.72-1.17-.24-2.02-1.75-1.67.32-.7-1 .26-1.6-1.11-.8-.4-1.2-1.36-1.2 3.74-.9 1.82.25 1.05 1.04-.45 1.44.58.9 2 .39 1.08 1.91 1.77 1.16.76-.01 2.43-1.11 2.24 1.52-.56 4 1.5 1.83.7.06.59 1.74-.58 1.92.54 1.48 2.77 1.17 1.74-.53 1.07-1.13.56-1.41 1.39-.86 1.47.18.84.74 1.55.46-.08 1.32 1.15.2 2.41-1.06-.54-1.58 1.76-1.43.96.87 1.18-.68.57-1.24 1.8-1.52.39-.84 2.26-1.57.77.54.36 1.42 2.3.97 2.98-.57.4 1 1.6-.26.16.93 2.27-.72.55.55 2.05-.26.77-1.53 1.91-.08.54.85 1.53-.06 1.75 2.13-.56 1.15.36 1.35 2.55-1.2 1.07 1.98 1.86 1.46 1.94 1.06 1.44 1.34-1.17 4.37 2.37.36 1.47 1.12 2.72 1.13 1.2-.54 1.35.4 1.39-1.06 1.3-.22 1.46.67 1.61-.85 1.96 1.1 1.14.07.64 2.29-.92 1.13.42 1.85-.97.91.95.82 2.55.8 1.02 1.36 4 1.12 1.58 1.35 1.92 2.55.8.64 1.69-.46.98-1.48 2.04-1.67 1.95-.42 1.45-.83 1.64.61.07 1.02 2.13 2.95 2.63.06-.4 2.7-2.67.68-.86 1.7-2.29.51.38 2.16.5.53 2.63-1.01L742 324l1.75-2.06 1.2.98h1.44l.22 1.2 1.85 1.68-.83.78-.15 1.8 1.34 1.37 1.26-.06 1.13 1.75 2.88.78 1.81 2.4 1.07.65 1.18 3.8-2.69-.12-1.48 2.49-.52 1.92.87.47 1.52-.17.29 2-1.12-.3-.83 1.4 1.55.67.58.85-1.08 1.64h-2.48l-1.65 2.54-1.33-.25-1.89 2.2-.85-.27-1.24 1.38-.87 2.71 1.57.13 3.16-.33 2.73-2.12 1.44 2.27-.77 1.34.31 1.91 1.58 1.2 2.71 1.05-1.95 1.79-2.2.5-1.87.06-.84 1.4 1.09 1.46-1.55 1.65 1.35 2.1 1.41.73-1.85 1.94-2-1.9-2.93-1.58-1.17 1.63-1.56 1.21-1.18 2.06-4.04-1.4-.9 1.25-.55-1.7-3.87-1.2-4.62 4.47-1.5.52-2 1.72-3.98 2.32-2.55 1.1-3.45 2.14-4.18 2.03.54.9 6.03-.11.19 1.9-.48.6-2.89-1.08-1.65.72.48 1 3.9 1.79-1.38 2.14.36.47-1.46 3.02-1.86-2.5-.83.73.66.93-1.54 2.36 2.35 2.1-.55.98-.92-.05-.51 3.16.43 3.84.53 2.09 4.33 1.47 1.4-.52.49-.85 2.12-.02 1.1-.98 2.59-.06 1.4 2.98 1.14.67-.01 1.86-1.22-.08-1.46 1.18 1.12.78-.54 2.4.5 2.74-.58 1.08.45 2.62-1 .36-.35 2.14.33 1.71-.6 2.02-.86 1.5-1.4 1.05-1.74 3.94-1.39 2.3-.96-.08-1.38 1.38-1.37.88 1.62 1 4.12-.74-1.53 2.54.9 1.59 2.46-1.26 1.77-.05.77.4 4.36-1.37 1.19.17 1.62.96 1.35.1.14 1.27.94 1.35 2.5-.73 1.63-.04.92.85 2.01 3.28.77-.52 1.26.48 2.61-.46 1.75-1.12 2.6-.6.29 1.82 1.6 2.4v.93l1.24 2.36-.74 1.2-.02 1.2-1.6.26-.11 2.8.22 1.14-1.2 1.24-.31 1.92-1.16 2-1.6 1.38-4.08 2.08-3.38.72-1.77-.87.23-2.34.93-1.08-.23-1.28-3.98-1.01-1.37.58-.18.87-1.87 1.04-1.24-1.36.71-1.63-4.19.37-1.7-.56-2.35.42-2.5-.72-.97.07-3.03-1.47-2.45.33-.43 1.21-1.77.48-4.03 2.39-1.68.2-.53 1.64-1.14.92-.01 1.03 1.94 1.9-.58 2.33.83 3.36-.92.91-.35 1.4-2.8.43.6 1.76-1.45 2.3-1.9 1.45-1.98.84-1.85.13-.45.74-1.85 1.22.61.57-1.6 1.33.04.75 2.12 1.44.91 2.15-1.9.94-2.42.67-1.26 1.17.46 1.5 1.4.53.54 1.23 2.43 1.37.6 1.35-1 2.75.4.86-1.1 3.66-.92.56 1.08 3.36 1.79.63-.5 1.9.78 1.5 1.5-.18 1.29.81-.46 1.99-.67.58.47 1.25 1.56 1.52 1.97 1.13 2.3-.27.33-1.54 2.04.19.01 1 .98 1.1.95-.9.41 1.41.9.83-.51 2.43.09 1.07 1.62.46 1.78-1.61 1.6 1.38 1.79-.22 2.02 2.23 1.55.9.58.82 2.78.7.3.47 2.2.87 1.4-.7.24.89z"/>
    <path region="7" short-name="Ptuj" long-name="Ptuj" value="11" candidates="[{&quot;candidate&quot;:&quot;SDS&quot;,&quot;count&quot;:5,&quot;margin&quot;:0},{&quot;candidate&quot;:&quot;GS&quot;,&quot;count&quot;:4,&quot;margin&quot;:0},{&quot;candidate&quot;:&quot;SD&quot;,&quot;count&quot;:1,&quot;margin&quot;:0},{&quot;candidate&quot;:&quot;NSI&quot;,&quot;count&quot;:1,&quot;margin&quot;:0}]" d="m750.03 452.53-2.59.6-1.75 1.13-2.61.46-1.26-.48-.76.52-2.02-3.28-.92-.85-1.64.04-2.49.73-.94-1.35-.14-1.27-1.35-.1-1.62-.96-1.2-.17-4.35 1.36-.77-.4-1.77.06-2.46 1.26-.9-1.59 1.53-2.54-4.12.74-1.62-1 1.37-.88 1.38-1.39.96.08 1.4-2.3 1.74-3.93 1.39-1.04.85-1.51.6-2.02-.32-1.7.35-2.15 1-.36-.45-2.62.57-1.08-.5-2.73.55-2.41-1.12-.78 1.46-1.18 1.22.08v-1.86l-1.14-.67-1.4-2.98-2.58.06-1.1.98-2.12.01-.48.86-1.4.52-4.34-1.47-.53-2.1-.43-3.83.5-3.16.93.05.55-.97-2.35-2.12 1.54-2.35-.66-.93.83-.72 1.86 2.49 1.46-3.02-.36-.47 1.38-2.14-3.9-1.8-.48-.99 1.65-.72 2.89 1.07.48-.6-.19-1.9-6.03.12-.54-.9 4.18-2.03 3.45-2.15 2.55-1.1 3.98-2.31 2-1.72 1.5-.53 4.62-4.46 3.87 1.2.56 1.7.89-1.24 4.04 1.39 1.18-2.06 1.56-1.2 1.17-1.64 2.93 1.57 2 1.91 1.85-1.94-1.41-.73-1.35-2.1 1.55-1.65-1.09-1.45.84-1.41 1.87-.05 2.2-.52 1.95-1.78-2.71-1.05-1.58-1.2-.3-1.91.76-1.34-1.44-2.27-2.73 2.12-3.16.33-1.57-.13.87-2.71 1.24-1.38.85.26 1.89-2.2 1.33.26 1.65-2.55 2.48.01 1.08-1.64-.58-.85-1.55-.67.83-1.4 1.12.3-.3-2-1.5.17-.88-.47.52-1.92 1.48-2.49 2.69.11-1.18-3.79-1.07-.65-1.81-2.4-2.88-.78-1.13-1.75-1.26.06-1.34-1.36.15-1.81.83-.78-1.85-1.68-.22-1.2h-1.44l-1.2-.98L742 324l-1.15.06-2.63 1-.5-.52-.38-2.16 2.3-.52.85-1.69 2.67-.68.4-2.7-2.63-.06-2.13-2.95-.07-1.02-1.64-.61-1.45.83-1.95.42-2.03 1.66-1 1.49-1.68.46-.8-.64-1.92-2.55-1.59-1.35-3.99-1.12-1.02-1.36-2.55-.8-.95-.82.97-.9-.42-1.86.92-1.13-.64-2.3-1.14-.05-1.96-1.1-1.61.84-1.45-.67-1.31.22-1.38 1.07-1.36-.41-1.2.54-2.72-1.13-1.47-1.12-2.37-.36 1.17-4.37-1.44-1.34-1.94-1.06-1.86-1.46-1.07-1.97-2.55 1.19-.36-1.35.56-1.15-1.75-2.13-1.53.06-.54-.85-1.9.08-.78 1.53-2.05.26-.55-.56-2.27.73-.15-.93-1.6.25-.41-1-2.99.58-2.29-.97.8-2.19 1.89-2.47-2.1-1.63.76-2.2 1.45.47.54-1.11-.06-1.3-1.34-2.8-.67-3.63.84-2.15 1.41-.16 1.68.56.26-1.12 1.47-.99.82.2.28-2.04 3.03-.5 1.17-.74 1.76-.49 2.31-2.85 2.23.21 1.99.84-1.33 1.32.34 1.62 1.31-.85 2 .4 1.2 1.05.96.11 3.17-.93-.3-1.39 1.39-2.52 1.4-.98.64 1.02 1.39-.7 1.53.25.4-.73.04-3.02-.65-.89-.63-1.96 2.38-.33 2.03.05 3.03-.28 2.88 1.03 3.38 2.44 1.15.4 2.1.1 6.06 1.06 4-1.67 1.93-.15 2.72.85 2.65-.53 2.63.06 3.2-2.37 2.42-1.56 2.6-2.34 2.61-1.42 5.52-1.82 2.74-.72 2.87-.33 7.25.17 4.05.93 2.77 1.25 2.93 1.64 3.27.74 2.08.85 2.7 1.84 5.63 5.71 1.8 1.49 2.13.95 4.46.6 6.04 1.05 4.15 1.7 1.05.97 1 1.95.4 1.9.74 1.55 1.3 1.2 3.47.97 1.07.82 3.3 1.7.63-2.41.16-3.6-.5-1.32 1.06-6.23-.97-2.3-1.5-2.76-1.63-1.4-.01-1.81-.54-.36.75-2.83-.6-.36-1.91.64-1.55-2.29-1.62-.72-.88.6-1.57-.42-.56-1.17.5-1.6-3.31-4.12-.3-2.19-1.11-1.57.16-1.46-.7-2.98-.56-.77 1.53-2.46-.45-1.87.3-.98-.15-2.49.45-1.78-.42-1.62.27-1.83.67-1.55.69-4.19-.46-2.12-.07-2.23 1.79-2.79-.19-1-2.84-3.54-.67-3.36 1.07-1.28.43-1.52 1.61-1.17 1.64 1.75 1.92.4 1.05-1.74.9-.72 1.35-.12 1.85-1.66 1.2-.41 1.78 2.47 1.88-.3.32-1.6 2.27.3.8.61 1.2-1.3 1.32.69.8-1.7 1.37-1.5-.1-1.74 1.34-.6.47-.85 2.33.2 1-1.53 1.77-1.58.7-1.91 1.9-.08.48 1.38 2.82-2.07 1.05-1.56 1.11-.11.99 1v1.47l2.17.21.79 2.84 3.2.16 1 .77 2.61.1.2-.47 2.22.85 1.97-2.54.84-.31 3.58 1.2.96-1.17 1.02-2.03 1.94-.92 2.55-.2 1.95-1.08 1.65-.17 2 .56 2.94-1.57 1.84-1.79 3.45-.17 1.21.8 1.75.02 1.89.71 2.84.5 1.15-.3 1.89.29 1.37-.36 3.14-.11.99.78.97 2.19.14 1.67 1.04 1.4 2.22.05-.31 1.28 3.57.4.82 1.99 1.88 1.74.53 1.3 1.6-.7 1.8-.07-.43 1.47 1.5.26 1.17.82.15 2.33.75 2.62-1.86.04-.28 3.55-1.06.04-.12 3.1.45.62-.46 4.36-1.83.88-4.97.68-1.62 1.47.08 1.48-.6 3.47.34 3.8 3.39.33 2.03-.38-.39 3.3-.85 1.86-1.08.98-.3 3.32-.8 1.4 1.34.6.68 1.21 2.32.78.65 2.25 1.85 1.1.7 1.83 1.07.74.9 1.36.51 3.65.53.66.54 2.16.63.96 1.91-.36 1.6-1.18.97-1.3 1.3 2.31 1.47.77.04 1.55-3.5 3.54 4.07 2.78 4.7.36 1.83-.09 3.2.83 1.28-.26 2.12.15 1.44.86-1.69 3.5-.42 4.19-.47 1.29 1.53 1.12-.62 2.08-1.53 1.14.61.64-.3 1.48-1.17.28-2.27-.19-1.6.37.1-1.09-1-.34-1.33-1.23-.68 1.18-.77 2.54-1.19 1.3-.66-.13.2 4.36 1.92 1.53-.75.44.65 2.79 2.53-.14 2.43 1.53.3.94 1.17.42 1.5 3.3 2.34 3.24 2.73.01 3.7 1 .37 1.43 1.68 3.2 1.09 1.3 1.8.44 2.3 4.98 1.41-.8 2.05 2.5 1.25 2-.69 1.44.36 3.8 3.13.68 2.2.98 2.56-1.32 3.2 5.66-.17 1.51.35 1.2-.98 2.5.75 2.6 2.9.22.33.96 1.12.64-.75 1.2.24 1.6-2.03 2.5.28 1.58 2.45.76-1.01 3.09-1.7-.56-.27 1.57 2.7 2.2 1.34.15 3.23 2.5L989 349l1.03-.11 1.46.76.47 1.64 2.67 1.53.4 1.2.93.4 3.63.37.41.39-.82 3.1.54 1.86-.76 1.18-1.22-.44.27-2.71.51-1.46-1.76.19-2.38-.2-1.09.44-3.87-1.38-.56-1.46-3 .84-.88-.8-1.46.78-.87-.55-1.4 1.01.03 1.57-2.04 1.65-1.17.02-.78-1.1 1.16-.54.25-1.35 1.52-1.54-.83-.86-1.9-.16-.7.8-1.3.25-1.71-.5-.65-1 1.7-.19.68-1.64-.51-.48.68-1.83-.96-1.15-2.46.46.46-1.65-2.8-.35-2.13-.66-.61-1.16-1.09-.28-.65-1.08.89-2.3-2.32-.28-.26-1.25-.89-.47-2.1.95.22-2.88-2.91-1.78-.61 2.04-2.5-.48-.84.74-1.9.54-1.47-1.18-.05-2.6.88-.9-1.35-1.57-1.49.56-.26-1.52-.71-.88-1.2.37-.47 1.74-1.53-.46-.98-1.47-1.55-.85.42 2.98-1.38.25-.29-1.2-1.34-1.23.66-1.24-.34-1.98-1.75.84-.21.67-2.92-.02-.26-1.96-1.26-.96-.47.84-1.47-.18-1.67-1.15-.15-1.64 1.8.02 1.7-.79-.26-1.5-2.24-.27-1.22-.85-1.1.9.44 1.42-.48 1.47-1.42-.03-1.43.65-.49-1.64-1 1.25 2.31 1.7-.06 1.64h-1.11l.16-1.69-1.02-.74-1.95.5-.66.75.28 1.7-.94.88.19 2.33-1.97 1.37-.99-1.28-1.74.59-1.08-.2-2.03 1.24-.8 1.34-.08 1.54-1.18-.16-.95 1.45-.75 1.89-1.58.45-2.41-.72-.73-1.14-1.94.45-2.87-.68-1.2.57h-1.46l.54 2.65-.24 2.07-.83.28-1.23 1.48-2.5.23-1.81.83-1.47.04-.18 1.16.32 3.68-.42 1.34 3.37 1.5.15 1 1.89 3 .5 1.74-.18 3.56 1.56 2.5.41 1.63-.6 2.2.83 2.78-.16.83 2.2 4 .24 2.46.53 2.13-.92 1.94.63.43 2.43-.2 1.85 1.56.91 1.46 1.67.41.93.97.5 1.61 1.99 1.82-.2 1.32-.83.16-.33 2.6.57.96-1.09 3.62-9.1-.02-2.13.98-1.83-.38-3.52-1.4-1.43-.05-1.48.66-.61-.75-.14-1.65-1.42-1.47-1.17-.16-1.19 1.32-.02 1.46-1.33 1.28-.59-.7-.79-2.23-1.82.36-1.13 1.3-5.23 1.67-.36-.68.68-1.8v-1.33l-1.1-.37-1.93.94-1.47-.23-.55-.97.05-1.3-1.96-1.3-.9-1.25-4.06-3.33-3.18-.59-1.4.92-2.02.5-13.05 5.95-9.4-2.25-.59 1.66-.74.68-1.06 2.8.63.84 2.62 1.86.13.6 2.06 2.29 1.4 2.13-.03 1.3.85 2.51-.23.69.95 3.1-.3 1.7-1 .45L837 416l-1.1.3-.42-.87-1.13-.17-2.1 1.8-.9 1.35-1.57.1-1.8-1.17-1.96.23-.53.96-2.06 1.4-.34 1.3.61.7-2.12 1.3-1.04 1.36 1.27 1.9-.24 1.3-1.48 1.11-1.09 1.41-1.1-.54-2.62 1.16-3.6-3.3-.15 1.5-2.01.9-1.87-1.35-.31 1.54-.9.07-.8 1.02-1.12 3.05-1.7 1.41-1.51.08-.58 1.03-2 .05-.79 1.13-2.49.92-1.17-.28-1.67.63-1.33.96-2.24.53-1.32-1.92-2.86 1.19-.78-1.04-1.14 2.45-4.16 1.8-1.9-.31-1.39.47-2.16 1.8.57.76-.33 1.4-1.22 1.36-4.7 1.08-1.34-.4-2.68.6-.9.85-3.1.68-1.96-.3-2.27.2-2.41.87-1.5-.18z"/>
  </g>
</svg>