<svg map="usa" type="wa_lower" date="2022" variant="blank" title="Washington 2022 House of Representatives" default-mode="split" auto-border-stroke-width="1" auto-border-stroke-width-limit=".5" original-source='["https://www2.census.gov/geo/tiger/GENZ2022/shp/cb_2022_us_sldl_500k.zip"]' candidates="[{&quot;id&quot;:&quot;0&quot;, &quot;name&quot;:&quot;Democrats&quot;, &quot;margins&quot;: [{ &quot;color&quot;: &quot;#1C408C&quot; }, { &quot;color&quot;: &quot;#577CCC&quot; }, { &quot;color&quot;: &quot;#8AAFFF&quot; }, { &quot;color&quot;: &quot;#949BB3&quot; }]},{&quot;id&quot;:&quot;1&quot;, &quot;name&quot;:&quot;Republicans&quot;, &quot;margins&quot;: [{ &quot;color&quot;: &quot;#BF1D29&quot; }, { &quot;color&quot;: &quot;#FF5865&quot; }, { &quot;color&quot;: &quot;#FF8B98&quot; }, { &quot;color&quot;: &quot;#CF8980&quot; }]}]" version="1.1" xmlns="http://www.w3.org/2000/svg" viewBox="0 0 1000 651.5">
  <g regions="y" transform="translate(0 -174.25)">
    <path region="0" short-name="Legislative District 26" long-name="Legislative District 26" value="2" d="m286.1 453.7 1.73.2 1.52.68-.73.83.14 1.1-.64.42-.97-.43-1.22-2.37zm-21.03 50.97.74-.2.87.45h.96l1.92 1.54.81-.1.13 1.32.7.37 1.83 1.68.7 1.23 1.66 1.12-.21 1.76-1 .97-.54.96-.74-.01-.75-.62-1.02-1.53-.38-1.07-.6-.46-.62-1.18-.82-.6-.7-1.32-1.36-1.72-1.44-1.45zm-16.79-15.47-.02-8.48 10.5.04h7.02l-.62-.84.1-1.9.69-2.03h1.32v-2.08l1.02-1.37h1.7l-.07-6.87h-1.4l-1.35-.47v-1.56l-1.07-.02-.61 1.82-2.38 1.74-2.21.22-2.33 1.07-.4.6-1.88.32-1.06-.22-1.63.1-.97-.27-.69-.67-.69.49v.94l-2.91-.07.26-1.16 1.14-1.15-.32-.42 1.4-1.44h.36l-.15-3.92.5-1 .2-1.28.69-.06.02-1.52-1.36.25-2.77-.03.08-2.73-.67-.02.04-1.36 1.36.03 1.39-1.35h.67l.01-2.72.67-.33 1.35.03.68.35 1.35-.02.67.69-.01 1.36h.67l.04-4.12 2.44-.06.31-1.38h1.9l1.34 1.29.6 1.72 1.11.26 1-.03.6-.51.88.12.37-.47 3.53.07.55.24-.64 1.95-1.28.2-.78.64-1.26.14-2.55 1.74-.47.88.02.64-1.82 1.36-1.04.57.23.4 1.58-.16 2.14-.89.8-1.43 1.72.47 1.23-1.05 1.68-.2.6-.85 1.76.2 1.42-2.62.68-.96 1.73-1.67.88-1.54 1.84-1.36.83.61-.2 1.54.58.56-.91 1.1 2.53.82-.7.46-.72 1.41.46 1.27.09.96-1.05 3.04.37.92 2.02.2 1.03-.28.73.9 1.54.1 1.03 1.33-1.12 1.36-.04.78-.87 1.42-.97 1.22v.85l-.55 1.12-1.18 1.15.3 2.5-.72 1.27.27 1.9-.24.68.45 1-.45 1.15-1.52 3.1-.4.21-.24 2.28.12.94.58 1.18.67.55.4.85-.71 1.48-.54.43-.43 1.18-.55 2.27-1.54 2.47-.44 1.36-.59.15.29 1.5.95 2.25 1.36 1.79 1.04 2.2-.4.98-1.9 2.77-1.62 1.79-.98.38-1.82-1.61.16-.84.82-.97h-1l-1.8.46-.6-.22-1.49-1.2-2.28-.53-.75-.51-.7.06-1.46-.73-.91.06-.3 1.1-.7.12-1.22-.37-.2-.49.8-2.65.9-.96-.78-.8.76-1.26.77-1.73-.16-.86.55-.96 2.13-.03-.4-.76-1.24-.8 1.46-2.12.42-.03 1.03-1.1 1.34-.75.18-.7 1.34-1.76-.21-1.27-1.1.3-1.76 1.17-2 .62-.4.52-1.9.63-1.37 2.09-1.55.83-.55 1.01-1.04.42-.81.71-.52-.06-.08 1 .28.86-.67 2.06-1.18 1.86-.71 2.26-.5 1.01-.05 1.85-.64.77.6.85.8-.06-.46 1.06.06 1.37.46-.15.6-1.07.8.04-.37.88v1.09l.52 1 1.15.24.46-.54.54.7-.67.63-.33 1.64.36 1.28.4.48-.12 1.07-2.19 1.97-.52.79-.6-.06-.3-.82-.07-1.67-.85 1.88.37.3.33 1.67h1.44l-1.1 1.89-.03 1.54.42.46-.91.58-.12.58-1.49 1.18-1-.19-.43-1-.51-2.43-.67.04-.7-.46-1-2.22-1.14-2.1-.1-2.18-.43-.67-1.03-.39-.67-.6-.49-1.46-.64-.87 2.24-5.97.5-.2 1.02-1.46 1-.88 1.08-2.09-.18-1.15-.52-.86-.3-1.67.75-3.62 1.33.1-.2-.72-1.94-.83v-.84l.52-.95.65-.44-.38-.67-1.05.16zm-5.18 18.95.2-1.9.99-.9.9.45-.89 1.64-.24.94z"/>
    <path region="1" short-name="Legislative District 11" long-name="Legislative District 11" value="2" d="m313.1 457.88.3.97-.01 1.73 2.72.1-.03 2.67.8.8.03.6 1.22 1.56 1.46-.27 1.35.16-.1-1.13.7.01.58-.85.09-1.11.4-.88-.09-1.6-2.02-1.5 2.11-1.12 1.4-1.55.5-1.4 1.28-.01.07 1.2.36.33-.02 1.18.68.53.05.83.72.44 2.61-.18.02-.43 2.03.43v3.95l1.03.03.01 1.34 1.32.04.02.67-.98 1.35-.68-.7-1.36-.02-1.7.93.9.44.3.67 1.13.07.1.75 2.76.54-.13 1.36 1.34.26.26.47-.31 1.47-.01 1.3h-.61l-3.48.01-1-.18-.36 1.52-2.71.01-.03 2.73h-1.37v.69l-1.32-.01v-.68h-1.33l.01 2.85-.58-.12-.53-.98h-.53l-.13-3.5.35-2.24.39-.79-3.85-.01-.37 1.47-1.12.04-.12.51-.86.3-.29.64v1.16l-1.37-.06.13-.92.84-1.14.05-.91.58-.64.04-1.7-.8-1.59h-1.26v-.64h-1.32l.35-1.04-.12-1.39-.63-1.48-.32-1.59.37-.26-.27-1.08-1.1-3.38-.58-2.47-1.13-.95 1.7.02.54.5.05.87z"/>
    <path region="2" short-name="Legislative District 14" long-name="Legislative District 14" value="2" d="m411.62 670.52 4.55.02 3.85-.1 1.19.73.2-.61 6.27-.04.36-.33.49-2.12-.12-.65.55-1.04-1.3-2.21-.68-.42-.67-.95-.1-1.64-.33-1.36-.5-.99-.13-1.55-1.25-.8-.56-1.28-.87-1.34.2-.74.83-1.36.68-.6-.87-1.04-1.85-.47-.72-.48-.28-1.29-.42-.52.13-2 .5-1.22-.04-.6 1.39-.4.79-.62.5.03 1.3-1.03.4-.65-.53-.56.19-.54.85-.84-1.12-1.2-.4-.9.68-1.22h.6l.39-.81.74-.27.36-1.03.08-1.18-.68-1.34.85-1.17 8.44-.02 12.74-.08.17.1 16.25-.03 10.43.05 4.18.13 2.19-.1 11.13.06.02-2.66.93-.04 1.41-1.64.09-.69 1.69-1.51.71-.84 1.77-3.05.93-.07 1.3-.46 1.9.44 1.25-.14 2.28.38h1.65l.18-.6 4-.01.18-.5-.51-.84h1.56l.84.34.51-1.01 1.82 1.2-.13-1.15 1.16.2.23.59.96.86.03-3.8 3.07.03.64 1.13 2.26 2.15.09-1.25 1.1.33.25-1.64 2.52-.13.49 1.47 1 .01.23.7 1.11.63.07.72.65.19.02 1.1 1.35.1-.02-2.72 1.86.01.62.69h.67l1.6.7.6-.33.55.34-.64 1.02.16 1.7.68.66 1.37-.21.15.26 1.49-.43.45 2.44-.1 2.28-.28 1 .18 1.34.83.86.94.16-1.57.07-1.02-.96-1.9.64-.47-1.4-.75-.32v1.68h.33l.41 1.24-.94.31.18 1.15.01 2.7.33.67H541v.68l-2.66-.03v.44l1.3.67-1.07 1.29h-3.03l.02 1.26 1.76.12 1.96-.37 2.04.28.46.5 1.05.15.1.5-1.02 1.1 1.45.02v.65l1.35.01.01.65.93.21-.65 1.61.48 1 2-.32.48 1.05v.66l.74 1.84 1.2.67 1.08.94.08.9.9.2.25.54.82-.12.73.63.38 1.2 1.46 1.54 1.7.15 1.28 1.65 1.71 1.52 1.2.41-.05 1.66-.4 1.12.62.77.22.82 1.7.15.54 1.18.86-.04 1.54.86.51.9.84.01.44-.57.66.18 1.32 1.47 1.16.4 1.27-.28.38.46.78.04 1.02 1.41.07.68.73.23.79-.39.93 1.1.1 1.02.42.7.02 1 1.14-.11.14 1.22-.35.46-1.2.2.2.59 1.56.68.92.67.79 1.96.63-.43.78.6.75.01 2.36 2.57 1 .54.6-.72.32 1.13.96-.49 1.54 2.25.2 1.02 1.25.41.27-1.05 1.24 1.53 1.24.76.04 2.26-.26 1.23.36.7-1.01.03-.3.5.6.58-.68.54-.28-1.36-.6-.2-.28.9 1.1 1.1-.37.82.51.47.97-.93 1.14.6h.71l.52 1.17 1.08-.63 1.02.25-.28 1.17 1.17.29.52.74.92-.4 2.32-.37.68.12 1.32 1.03 1.6.37.9-1.17.84-.03 1.49.8 1.67 1.34 2.6.2 1.34.44 1.2.98 1.6.03 1.48.6.74.57 1.22 1.6 1.21.96.14 12.58-.03 15.9-.18 2.77-.04 13.45-.05 18.64-.04 2.77-1.01.23-4 1.2-7.45.7-4.52 2.28-8.81 4.9-9.1 2.2-3.71 2.05-5.15 6.59-9.12.86-.83.2-5.16 1.67-9.57 2.15-10.01.88-3-1.02-2.06-1.8-4.8-5.21-4.04-1.5-5.6.13-4.33 2.87-2.62 2.62-4.44 1.72-8.27 3.7-8.53 2.68-5.1 5.23-2.28.53-3.9-3-1.16-.06-3.18 1.36-.7.18-3.07-.9-3.33.41-3.94-.28-2.62.85-4.49 4.52.38.92-.86.56-1.04.97-.96-.4-.77.74-2.85.33-2.05-.07-1.62-1.87.17-2.34-.66-3.71-1.97-3.91-4.52-1.31-4.61-1.58-3.18-2.36-3.27-.92-4.44.34-3.73 1.87-2.79-.2-5.01-1.35-4.64-3.57-3.14-.74.28-1.29-.44-2.21.27-.58-1.28-2.18-.5-.28-.16-1.88.94-.6.3-.59 1.1-.09.3-.75-11.73-.1.1-11.01-.02-5.09h-.5v-5.23l.03-26.69 11.49.02z"/>
    <path region="3" short-name="Legislative District 38" long-name="Legislative District 38" value="2" d="m308.24 363.59 1.19-.1.26.8.7.65.65.13.4 1.6-2.5-1.12-1.07-1.65zm-4.06-19.64 4.53-.01 17.62.09.73-.01.04 3.66.62.73h.5l-.11-1.37 1.31.12.32 1.02-.25 1.35.37.3 2.8.11.1 2.71-.12 2.1.38.46 1.55.28.02.86.74.26.01.67 1.1.03.09 4.87.1 1.24-1.93-.05-.65.32-.7-.32-1.83.08.2.76-.75 1.13-.07 1.14.39 1.9-.12 1-.78.9-3.27 1.4-.41.54-.24 1.83.36 1.1-.69 2.21 1.37.07 1.13 1.18-.3.94.02 2.91-1.4-.02-.03 1.04-1.36.1-.02 1.05-1.4.04-.49.53-.28 1.52-.74 1.24-.53-.7h-.64l-.16-2.2-1.89.74-.55.77-1.4.24-.15-.96.33-.68-.02-2.94-.33.07v-2l-.43-.75-.84-.07-.57-.6.28-1.07-.13-1.46-2.2.31 1.68-.85 3.7-.57 1.59-1.25.84-.93.23-.8-.33-.95.2-3.68-.24-1.79.67-1.83.88-.37-1.08-2.03-1.38.06-1.1-.69-3.52-2.68-1.97-.8.33-.28 1.58.66.18-1.2-.83-1.21-2.35-.43-.33-1.15-2.61-1.85-.04-.86-.56-1.41-2.19-.91-.2-1.4-.87-1.82-.92-.59z"/>
    <path region="4" short-name="Legislative District 1" long-name="Legislative District 1" value="2" d="m316.87 399.5 1.37 1.2.24-1.03.64-.17.02-1.4 1.26.28.64-.77 1.08.72h1.1l.68 1.18.2 1.57-.03 2.75 1.72-.42 1.04-.46-.06 4.35 1.35.05.39.46.06 1.62.39.7 1.95.01.17-.41 1.88-1.4.22-1.4.6-.44 1.74.17.6-.46.49-1.98.63-.63 1.38-.39 1.87.18.07.85.53.82 1.85 1.75.61 1 .02 2.44-2.5-.05-.74.56.5.92-.24 2.2-.28.3-1.38-.88-.94-.33-1.65-.02.5 1.34-.38.55-1.3-.37.06 1.13-2.75.07-.03 2.38-.8.84-.13.86-1.25-.02.02-.74-.6-.81h-1.5l.02-.6-1.42-.7-.13 1.47h-2.6l.01 1.47-1.09.07-.2.52-.97.67-1.19-.03-.43 1.36-1.7-.03-1.38 1.43-.87-1.87-.36-1.2-.32-2.52h-2.3l-.09-.6-.79-.1.25-2.06-.72-.36-.08-1.75-.47-.4.24-1.64h1.02l-.02-1.39 1.37.02.08-2.76.61-.34v-1.05l-.7-1.4 1.87-.69.18-1.86.32-1.33z"/>
    <path region="5" short-name="Legislative District 45" long-name="Legislative District 45" value="2" d="m317.1 423.8 1.39-1.43 1.7.03.42-1.36 1.2.03.96-.67.2-.52 1.1-.07-.01-1.46h2.59l.13-1.48 1.43.7-.03.6h1.5l.6.8-.02.75 1.25.02.13-.86.8-.84.03-2.38 2.75-.07-.05-1.13 1.3.37.37-.55-.5-1.34 1.65.02.94.33 1.38.88.28-.3.24-2.2-.5-.92.74-.56 2.5.05 6.99.06 5.1-.17.6 1.06-.16.72-3.45 2.88.43.8h.71l.02 1.25h.44l.26-1.25 1.26 1.26 1.3.17.35.36-.28 1.4v1.95l.3 1.3.77.33-.78 1.48.44 2.37.88.82 2.08.86 1.6.89-.06 2.06-.52 2.99h-1.5l-.11 1.12-.48 1.33-.79.18-.56.54v.94h-.7l.03 2.72-.85.02-.24-2.6-.72.2-.78 1.07.68.58.2.8-.42 1.83-.12 1.3.67 1.51-.6-.77h-1.14l-.07-1.24-2.77-.04v.52l-1.34-.02-.25-2.04-1.18-.66.02-.71-2.76.03-1.39.43-1.13-.45-.66.73-.96-.46-1.8-.42.34-1.06-.08-1.72-.55-1.1-1.77-1.98.96-1.16.62-1.41.83-.39-.36-1.4.4-.35-.17-2.8-1.16-.2-.65.46-1 1.18-.75-1h-2.36l-1.24-.58-1.23.02-.51.47-1.9-.38.02-1.67-.7.02-.03 1.39-3.05-.02-.38.9.03 1.06-1.58.77-1.54 1.37-1.05-.13-.12-2.32-.4-.73-2.21-1.68z"/>
    <path region="6" short-name="Legislative District 40" long-name="Legislative District 40" value="2" d="m280.08 266.42.38-.3.8 1.02-.6.74-.45-.5zm-7.96-16.66.47-.5 1.15.33.42 1.23-.55.46-1.12-.62zm-5 12.4 1.07-2.3-.16-.77-.66-.84.09-1.4-.19-1.35.38-.97.87.03.7.77.19 1.1.8 1.24 1.14.85 1.23 1.29 1.14.6.6.7 1.69.55.66.66.56 1.85-.36.84.17.94-1.72-.87-.1-.47-1.25-.13-2.54 1.48-2.63.65-1.13-.56-.65-1.77zm-5.84-13.94.16-.38 1.62-.89 1.43-.43.34.99 1.1.86.06 1.16.7.86-1.18.35-1.35-.38-1.2-.62-.77-.7h-.77zm26.57-23.47.82-.14 1.18-1.21 1.35.07.45-1.43h2.08l.33-.43-.34-.84v-1.57l1.32-.73.71.5.4-2.59.72-1.01 1.42-1.43 1.73-1.14 5.23.07-.03 7h1.48l-.84 2.2 5.98 4.8.27.17 5.64-.03 1.33-.26 4.24.06.31.48.97.08.02 1.75.78.77.97.53-.26.81 1.09.16 1.04 1.25-.3 2.42-1.41.1-.45.57-1.74 3.8-.36 1.43-.24 2.52h-6.18l-1.36.08-7.36-.03-3.76.06.43 1.76 1.07 2.32.65.94 1.87 4.12.25 1.96-.18 1.03-1.3 2.34.38 1.77-.83 2.94-.3 3.35.27 2.56h.45v1.45l6.25.03-.02 2.82.72.06-2.89 1.6-.05 1.04h-.66l.03 4.15-.7.02.03 1.4.64-.01.28-.7 1.16.69.02 1.04.82 1.05h1.1l-.28.7 1.1.32.94.76.82.01.44.64-.21 1.01-.86.56-.37.93.02 1.92h.67v.88l-3.56-.02.01 2.8-4.36-.05-.15-.67.11-1.6.4-.33-.34-.9.1-1.72 1.53-.33v-1.41l-2.48-.03-.34-.14-.73-1.63v-2.79l-.73-.14-.12-2.3.04-2.2-4.29 2.24-.97.42-6.1 1.77-3.9-.18-2.96-.79-3.89-.91-2.29-1.35-.17.82-3.3-.12-.02 1.52-.28.56-1.03.17-.97-1.23-1.65 1.15-1.28.58-.77-.18-1.72.03-.85-.42-.43-2.06-.02-4.98-3.95.05-.14-.43-1.03-.64-1.49-.46-.45.28-1.45-.29.42-1.57h.98l.4-1.18.55-.55.69.26.28.64.7.1 7.18-3.37 1.05-.14.9.23.19 1.7-.75.07-.24.94.57.42.15 2.35 1.02 2.08.9 2.98 1.36.58.4-.58-.37-3.52-.42-.56-.13-.95 1.47-1.33 1.12-.1 1.32 2.68.65 2.1.78 1.67.9.4.66 1.14.52-.46 2.28.58 1.98-.23-.35-.75 2.56-1.15.24-.86-.22-.7-1.12-.94-.03-.7-.57-1.36.1-1.24-.29-2.07-.43-.76.76-.93-.72-3.44-.95-.75-.63-2.04.23-.79-.74-1.93-2.3-.43-1.8-1.43-1.4-.13-1.14-.4-.56-.87.8-1.3.44 1.3 1.1.48.32.54 2.08.14 2.44-.16 1.11.1.57 1.57 1.15 1.57 1 .56.73-.1.37-.57.08-1.09 1.44.02.22-.5.85-.26.35-1.18.69-.24.58-.88.5-2.4.5-1.05-.92-.97-.74-1.65-.84-.4.07-.6-.57-.85-1.99-.6-1.68-2.25-1.2-1.1-.92-1.65-1.2-.98-.83-1.49.84-.25 1.67-1.07-.12-2.4-1.03-2.76-.1-.94-1.02.76.45 1.43-.34.29-1.08-2.25.17-.52-.62-1.72-.01-.78.76-1.04.73.16.18-1.23.82-.93zm-31.83 30.45 1.43-.91-.05-1.16.64-.24-.03-1.22.86-.78.9-.39 1.65 1.77.6.88.27 1.03-.66.42 1.22 1.59 1.16.61 1.24 1.98-1.17.44-1.23 1.19-1.16.7 1.8.42-.04 1.33-2.1.37-.93.48-1.44.23-.65-.17.09-1.32-.3-.48.35-1.75-.18-1.06-1-.21-.72-.66-.42-.94.2-1.5zm-3.33-23.74.22.07.43 2.11-.37.17zm-7.05 22.6.45-.34.43-1.42 1.31.43-.45.92-1.56.83zm-1.2 3.55.51-.8-.23-.5.59-.85h.75l.97-1 2.53 1.69 2.57 3.28.24.74-.4 1.31-1.95 1.92-.93 1.56-1.65.6-1.74-2.93.57-1.1-.88-.03-.46-.42zm-2.19-33.77.97-.46 1.55.5-.74.66zM233.3 220l.58-.54 1.94-.03 1.19.5-.23.49-2.45-.38-.24.85.61.59 1.13.5 1.23-.07.74.69-.44.95-1.59.4-.83-.67-.84-.1-.95-.85zm-3.49 55.88.58-3.91.9-1.67.28-2.07.6-.72 1.43-.34-.33-1.85-.43-1.21.22-2.28 1.85.09.94-1.21.97-.34-.12-1.27.21-.82.7-.8.21 3.47.58.33.82-.12-.03-1.7.79-.18.2 1.64-1.14 1.21-.03.85.48.46h1.5l.75.88.97-1 .38.57-.83.7-1.4.7-.91 4.13-.88 1.03.3 1.37.6.33.74 1.58.88.55-.06.88.42.76-.45.7.15.57-.82 2.1.27.39 1.76-.59-.03.68-.94 1.61.9.29.92-.56 1.3-1.95-.93-1.73v-2.97l-.35-.8-.49-2.65.46-2.64.65-.29.41-.97 1.62-.3 1.61.12 1.34-.22 1.98 1.48.37-.05.65 1.13-.05.82-.78.02-1.12-.47-1.04.95.02.65-.85 1.45-2.15 1.26v1.07l-.35.96.71.9-.74 2.38.07.54.85.93.9.02.61 1.03-.96.7v1.33l-.82 1.12 1.35.12-1.17 1.77-1.34.05-.54-.94-1.16-.57-.33-.61-1.18.79-1.58-.55-.25.8 1.67.63-.53.63-2.43.34-1.46-.11-1.43-.46.84-1.31 1.16.27.3-1.06-1.54-.76.7-.55 1.27.25.3 1 1.21-1.43-.27-.51-1.58-.58-3.55-.18v1.24l-.58-.15-2.2.68-.59-1.1 1.43-.04.42-1.24-.15-1.28-1.12-.88-1 .49-.06.61-1.25-.58.24-1.1-.36-.38.45-.98zm-3.14-59.64.16-.43 1.6.56 1.91.3-.82.6-2.59-.5zm-6.02 37.97.75-.19.6 1.04.9-.26 2.55-1.2 2.89.94 2.1.45.14.65-.42.63 1.33 1.1.34-.37-.42-1 .6-.83 1.22-.37.51.6 1.3.3.12 1.3-2.2 2.58-.46 1.49-.54-.94.32-.82-1.64.18.28.64-.7.82.33.65-.4.75-.66.2-.73-.36-1.56-.06-.26-1.15-1.25.62-1.15-1.01.29-1.03 1.56.72-1.06-1.8-.55-.32-1.82-2.04-1.89.24.13-.75zm-1.65-7.68.9-.89 1.03-1.63.09-1.19.57-1.14 1.56-1.28 1.36-1.46.37-1.1 2.8-1.7 1.1-1.43.64-.52.83-1.63.04-.64-.57-.78 2.47-.27 1.27-.56 3.12-.13.95.44.99-.1.93.61.48.74 1.04.15 2.7.97 4.58 3.34.84.72 2.77 1.52 3.98 1.7.06.37-1.7.77v1.35l-1.82 1.52-1.24.46-.8 1.24-1.3.64-1.06 1.48-.68.36-.06.73.5.68.85 1.9-.7.05-1.17-.84-.79.93-.58.24-.84-.26.35-2.64-.52-.9-.78.45-1.29-.75-1.64-3.37-1.1-1.4-.78.21-.76-1.52-.2-1.33-.04-2.83.15-1.97-.33-.94-1.24-.89-.62.25.07.76-1.1-.36-1.33.33-.28.67.52.56-.03.74.97 1.7-.55.82.43 2.4.7.94.98.44 1.94 1.7.72 2.96 1.77 2.01-.06 1.56-1.01.99-.14.85-1.2.54-.43.61-2.72-.82-1.22.34-1.45-.04-1.35-.4v-.69l-1.36-.03-.73-1.06.25-.94-.61-2.1.4-1.33-.95-1.19-.82.57-2.18-2.63-.25.79-.9.67.6 1.58 1.27 1.45.94 1.83-.04 1.09-.74.9-1.5-.39.03 1.34-.9.33-1.56-.41-.03-.84 2.17-.9-.28-1.13-.91-1.1-.36-1.11h-.52l-.1 1.12-1.78 1.12-.77-.3-.26-1.94zm-3.04 2.2.35-.42 1.45.71.23.94-1.22.25zm-1.76-15.82 1.73-.68 1.11-1 .7-1.6 1.4.15 1.22-.94 1.27-.19.11 1.86.5 1.43-.48.49.52.97-.05.66-1.2 1.82-1.85 1.28-1.7.52.08-.58.76-1.3-.08-.91-1.37-1.1zm-12.21 9.89 1.67.27 1.25.71 1.64.08 1.45.8.62 1.12-.88.07-2.5-1-1.1-.79-2.2-1zm-5.08 10.36.57-1 .4-1.36 1.13-.9.61-.85.31-1 .7.37 2.25.64.67-.48-.15-.76.86-.35 1.05.38.18.58 1.46-.32 2.48-.18.6.69.46 1.38-.57 2 .12.5 1.98.96 1.32.42 2.93 3.13.4 1.13 1.65 1.16 2.47.33.65.48.83 1.6-.05 1.9 1.27 1.15 1.67-.18.43.42 1.15-.36.17 1.66-.46 1.38-1.32 1.12-.54-.37-.68.33-1.66-1.18-1.46.43-.06 1.21-.4 1.82.37 1.25-.36.24 1.4 2.15.2.58-.24.94.43 1 2.42 1.6 1.37.08.6-.3.08-.81.9.16.47.64-.23 1 .13 1.43-.78.08-.98-.53-4.11-.55-1.35-.28-.72.18-1.17-.57-.6.39-.47-.75-1.71-1.15v-.4l-1.46-.57-.38-1.37-1.88-.67-1.18.3-1.23-1.33-1.26-.58-.91-.03-1.04-1.16-.74-.08-.71-1.25-1.5-1.61-.2-1.07-1.46-2.2-.11-1 .41-1.44-.07-1.06-.72-.36-.63-1-.55-1.37.03-1.19.64-1.4-1.64-1.85-2.22-.4zm-4.18-17.29-.18-.78 2.76-.17 1.76.58 2.4.5 1.38.68.48.7 2.5 1.56.72.92 2.05 1.48-1.06-.07-2.84-1.77-1.15.5-1.58.08-.44 1.12-.82-.65-1.42-.34-2.48-1.58-.52-.89-.7-.13-.14-.72z"/>
    <path region="7" short-name="Legislative District 42" long-name="Legislative District 42" value="2" d="m274.81 242.37.8-.74.42-.92.79 2.4zm-7.29-11.78 1.18.67 1.19-.34 1 .7 1.64-1.36.68 2.76-1.29 1.12h-.82l-1-.58zm-9.17-3.74.87-2.9.59-.2.99.78 1.19 1.57.8.15-.35.75.8.77.47 1.43-.1.6 1.66 1.49-.11.4.48 1.78 1.7.61.89.56 2.27 2.4.46 1.03.68.56 1.04 3.92.19 1.94-1.63-1.67-1.79-.54-2.45-2.82-.4-.78-2.03-2-.63-1.37-.03-.57-.82-1.39-.25-1.32-.6-1.29-1.04-.42-.3-.64-2.11.03.06-.7-.47-.57.23-.9zm238.95-52.17-.47.5.51.76-1.84 2.72-2.1.37.17 2.2.94.76 1.5.49.61.68 1 .16 1.13 1.15.6 2.08.74.22 1.23-.58.75-.94.36-.92 1.32-.57v-1l1.15-.12.62.32 1.57.19.82.44 1.41 1.98.43 1.57-.62 1.28-1.46.44-.26.62.06 1.47.52 1.02-.46.6.06.78 1.06.93-.45 1.23.32 1.05-.83 1.16.41 1.05 2.4 1.86 1.65.48-.1 1.2.6.61-.68 2.05-.4.6.51 1.27-.2 1.78-.64.7.04 2.09.86 1.46-.24 1.54.41.64-.18 1.17 1.27 2.54 1.99.3 1.33 2.82.84.17.44 2.06 1.16.83.29 1.24 1.3.28.86 1.22.68.58-.5.92-1.4-.2-.95.54-.43 1.39.48 1.79-.04 1-.77.39-1.44-.47-1.02-.05-1.1 1.75-.16 1.08-.69 1.5.17 1.93-.44.12-1.57-.44-.65.68-1.48.66-.27.44h-19.99v3.11l-69.8-.27-29.84-.16-6.38-.08-23.23-.23-5.69.08-3.79-.13-12.8-.04-14.77-.1.24-2.5.36-1.44 1.74-3.8.45-.57 1.4-.1.3-2.42-1.03-1.25-1.1-.16.27-.81-.97-.53-.78-.77-.02-1.75-.97-.08-.31-.48-4.24-.06-1.33.26-5.64.03-.27-.16-5.98-4.81.84-2.2h-1.48l.03-7-5.23-.07-1.73 1.14-1.42 1.43-.72 1.01-.4 2.59-.7-.5-1.33.73v1.57l.34.84-.33.43h-2.08l-.45 1.43-1.35-.07-1.18 1.2-.82.15-.41-.6.52-1.08-.52-.43-1.52-.25-.76-.48-.23-1.18-1.8-1.01-.97-1.5-3.53-.46-.73.75-1.48.7-.7-.3-1.19 1.05-1.6.85-.26 1.15-2.26 2.36-1.2 1.74-.11.62-.97 1.66-.22 1.22-.57.33-.8-.91-.89-2.19-1.07-.22-.17-.84 1-2.14.75-1.07.86-2.4.88-1.48.22-1.46-.13-.68-1-.22-1.65-1.17-.9-1-.22-.65-.86-.5-1.41.5-.8-.79-.83.47.65 2.91-1.1.06-.11-.86.26-5.11-.34-2.83-.67-2.87-.72-1.1-3.14-1.68-1.16-1.52-3.74-3.05-.96-1.53 1.2-.33.99-.77.79-1.21 1.72-.74.65-.5.75-1.95-.15-1.85-.33-.8-.82-.74-1.9-.75-2.18 2.1-.72-.11-3.2-1.32-.54-1.13.67-2.16 1.16-1.25 1.4-1.92.03-.53 2.9-3.12 1.01-.12 1.52-1.09-.46-1 19.47.02 25.26.02 20.02-.06 19.51.07 19.02.4 25.32.52 40.54-.42 4.9-.06 6.41-.19 11.29.15 1.02-.16 2.43-.05 13.24-.05 8.47.15 10.34.05zm-286-.33 7.05-.03.25.88 1.13 2.65-.07.82.4.65-.58.45-1.84-.62-3.97.67-1.53.47.06-2.1z"/>
    <path region="8" short-name="Legislative District 44" long-name="Legislative District 44" value="2" d="m322.64 387.96.74-1.24.28-1.52.5-.52 1.39-.05.02-1.05 1.36-.1.03-1.04 1.4.02-.02-2.91.3-.94 1.47-.92.1-.72 1.77-.46 1.28-.66.59-1 .35-1.8 2.49.03-.02 1.35.9.01.12-1.38h3.8l.61-1.03 1.66-.02.83.78.03 2.2.47-.42-.18 2.46-.05 2.9 2.4-.13.03.96.82.92 2.26.72.02-2.36 1.26.6.26 1.86 1.17.02.97-.72 1.3.83.45.62 1.5.45.5.9.04 1.99-1.18.79.53 1.63v1.14l-1.69-.06-.48.76-2.48.02-.36-1.68-1.16.26-1.81-.04-.18 4.2-2.75.07.02 2.86h-4.08l-1.06-.08 3.37 3.2.14.61 1.34 1.13 1.45.7 1.18.27.13.48 1.29 1.24.48 2.69-.07 1.09.42.89-.33 1.54-6.99-.06-.02-2.44-.6-1-1.86-1.75-.53-.82-.07-.85-1.87-.18-1.38.4-.63.62-.48 1.98-.61.46-1.74-.17-.6.44-.22 1.4-1.88 1.4-.17.41h-1.95l-.39-.7-.06-1.63-.38-.47-1.36-.04.06-4.35-1.04.46-1.71.42.03-2.75-.21-1.57-.68-1.18h-1.1l-.02-1.56-.59-.22-.02-3.76.63-.68-.01-1.39.64-.57z"/>
    <path region="9" short-name="Legislative District 6" long-name="Legislative District 6" value="2" d="m884.4 400.72.38.85 1.54 1.72 1.98.17.59-1.15.6-1.72 1.8-1.02 1.8.95 1.32-.7.83-1.33 3.35-2.18.8-1.17.75-.23-.51-1.68.54-1.85.68-1.64 1.79-1.03.7.03.8 1.57.06 1.12-.2 2.06.47 1.3-.05 1.28.43 1.25 1.25 1.7 1.32-.25 1.37.34.42.7.86.42.46 1.68.82 1.08 1.26 2.05 1.74 1.55.97.28.9-.52.52-.86 2.07-.17 2.28 1.21-.11-6.74v-3.48l-.1-10.27 8.93-.13v-1.38l4.02-.03.11-.73-.09-7.55h.65v-1.03h3.15v-2.06h1.44l-.01-6.2 5.53-.04v8.33l-.38 1.71.28 1.5-.12 2.87.16.73v2.57l-.56 4.22-.46 1.16.53 9.03.83 2.12.02 2.7-.86 4.83-.7 1.44-.05.68.81.01-.45 2.71-.72.36.39.76-.26 1.01-.7 1.14.15 1.02-1.7-.14.06 3.45h.69l.22.68h3.13l.29 2.41 1.26.34-.11 2.02-1.2-.01-.18 2.56-1.58-.12-1.24-.47-1.3.44-1.3-1v-.72h-2.81l-.02-5.48-2.69-.06.02-1.13-1.02-.48-.8-1.3-.95.17-1.77-.01.17 1.42-1.16.58.04 4.16 1.07 1.44-1.22.52.19 1-.71.25.51 1.41.94 1.37h.6l-.09 4.78-.85.55-.15 1.09h1.04l.02 3.44 4.42.09-.6 1.72-1.55 1.8-1.4 1.7-.75 1.39-1 .97-2.29.8-1.44.9-.2-1.13.6-1.4.01-1.07h-2.8l-3.37.16-.17 1.39-2.22-.23.01 6.19h-3.76l-.4-.8-1.22-1.38-.22-2.47-1.02-.84-2.03-.01-2.17-.46-.92.6-1.3.02v1.2h-2.06v.7l-1.36.01v2.05l-.7.7-1.4-.01-.32-2.29-1.82.07-.86-.34-1.63-.23-.52.67-2.1-.12-.3.15.04 1.34-4.13.06-2.71-.06.04-11.98h.3l-.09-16.5-.04-16.54z"/>
    <path region="10" short-name="Legislative District 9" long-name="Legislative District 9" value="2" d="m736.02 573.18.07-8.47.11-23.9.06-16.89.11-5.5.02-10.97.12-19.1-.05-.53.06-9.24.1-8.7.04-17.47.1-17.43.15-14.83.07-20.31.14-15.32.01-4.19.14-1.56 2.02.03 4.24-.9 2.97-.45 2.9-1.32 1.1-.33 2.89-.22 1.15.53.59.85.46 3.3.8 1.32 1.44 1.14 1.25.46 2.41.41 1.7.53 1.82.83 1.92 1.34 1.32.26 1.97-.35.41-.25.21-1.23-.14-1.8.45-2.74 1.3-1.32 1.16-.42 3.37 1.01 1.28 1.97 1.34.2.92-.73 1.21.44 1.4-.25.87-.45 1.15.4 1.72-.65 1.8.04.9.9 2.86 1.37.96 1.06.18.83-.32 1.77-.97 1.64-.24 1.65.62 1.2 1.01.53 3-.07.86.27 3.24-.63 1.12-1 .77.4.5 1.03-.1 2.92.2.96 1.33 1.71 1.58 1.08 1.2.25.67.54 3.34.95 1.18.06 1.1-.51.85.01 1.42-1.64.02-1.15.36-3.29.77-2.3-.24-1.06.32-.84.79-1.03 2.7-.94-.13-.65.5-1.53 1.77-1.27 1.22-.67 2.52-1.9.28-.72 1.52-.4.1-.53 1.03-1 1.05-.07.65.59 1.06-.02 1.47-.86.94-.1.56.57.51 1.3.29 1.34 1.25.4.23 1.24 1.5 1.78-.26 1.18.17.55 1.35-.26.84 1.06-.29 1.4.24.9 1.54-.3.61.38.74 1.78.97 1.86.55.7.7 1.9.26 1.6-.19.73.29 1.34 1.28.02 1.36.78-.27.91 2 2.68.69 1.8 1.07-.02.8.55.93-.37 1.29.78 1.3-1.44.57-.21.93.32 1.38-.65.4-.79.28-1.45.5-1.12 1.21-1.7.72-.48 1.2.05 1.74.42 1.18.79 2.31.54.44.38 1.16-.4.96-.7.74-1.18 2.26-.2 1.14-.4.4-1.47.35-.31 2.73.9.86.8 3.07 1.04.94 1.44.06 7.05.05 16.55.08 16.5h-.3l-.04 11.97 2.72.06 4.12-.06-.04-1.34.3-.15 2.1.12.52-.67 1.63.23.86.34 1.82-.07.33 2.29h1.4l.7-.69v-2.05l1.35-.02v-.68h2.06v-1.21l1.3-.02.92-.6 2.17.46 2.03.01 1.02.84.23 2.47 1.2 1.39.41.8 3.76-.01-.01-6.2 2.22.24.17-1.4 3.37-.15h2.8l-.01 1.08-.6 1.39.2 1.13 1.44-.9 2.29-.8 1-.97.75-1.39 1.4-1.7 1.2.09v.68h.76l-.01.69 2.54-.12 1.48.18.8-.86.13-.96.55-.5-.86-1.31 3.44.01 1.37.37.34-1.02H945l1.05-1.36.1-1.5-1.22.3.03-3.78 1.35.03v.68l1.88.18.85-.36v-1.16l1.38.02.3-1.29 1.03-.42 1.16-.09 1.35 2.48 1.12 2.74h-.86l-.08 2.02-.62.4v1.1l2.22 1 .7.74.17-1.18.9-.46.3-.7h.7v-1.5l1.26-.03v-1.38l2.02.01v-1.04l2.98.04.06-.37 1.95.06-.85-.7.29-.74h1.76l-.17-1.38 1.54.61.51-.6h.86v-1.39h2.72l.01 1.4h1.37v-.69h1.35l.07-.69 4 .02-.04-6 .7-.96.86-.62 1.34-.4.56.2.1 23.43-.06 3.01.1 6.78.07 8.42v14.87l-.02 6.24.03 3.55-.02 16.56.02 24.81v14.7l.02 25.57v16.17l-.02 1.94.06 21.49-.02 14.78-.02 14.69-.01 19.85v1.72l.65 1.32-.11 1.54-.35.73-.47 2.57-.63 2.33-1.36 1.52-.67 1.13.02 2.36.85 1.3 1.34.56 1.9.4.86.8.12 2.93.29 1 1.68 1.75 1.3.4.96.69.66 1.24-.03.54-.77 1.74-.03.74.48.64 1.45 1.27.73.88.76 1.47.71 2.03.45 2.1-.1.91-1.28 3.05.03 1.12.37.69 1.35 1.14 1.36 1.56.26 1.01.78 1.1 1.23.5.35 1.12-.18.75-1.5 1.2-.18 3.42-1.85 2.25-.13 2.27-.5 1.64-.55.59-1.86.25-.6.36-.47.81.06 1.19.39.9 1.14.6 1.61.24 1.13 1.38.75 1.28-.1 1.21.56 1.75.94.97.26.91-.02 2.04.87.98.24.87.32 2.51.34.82-3.15-.15-5.78-.13-8.35.02-2.4-.12-18.2-.15-15.98-.06-2.08.42-4.7-.41h-6.29l-4.5.13-3.78-.08-12.56-.1-14.65-.18-35.65-.17.18-2.23.3-1.26-.04-1.3.17-2.69-.14-4.07.07-1.3.04-10.5.11-14.77-15.98-.07-.02-7.78.08-8.36-8.77-.01-7.29.08.03-21.45-.02-8.15.07-2.72-.12-15.77.1-1.1 1.71.02-.08-6.13-2-1.37-.86-.08-.86.29-2.05 1.08-.61.1-1.1-.3-2.81-2.15-1.7-.07-5 1.64-2.24 1.88-1.34 1.35-1 .03-2.27-.3-1-.31-2.74-1.63-1.03-.83-1.88-.3-1.1.64-1.08 1.85-1.55 1.8-2.3.75-1.72.7-.25.4-2.3 1.79-.45.65-1.12 2.45-.66.8-2.13.7-1.31.98-.57.97-2.4 2.99-.54 1.77-.1 1.2.29 1.84-.08.79-1.65 3.72.1 1.18-.88 2.69.5 2.12.04 1.47-.46.62-2.27.92-.72.6-1.18 2.67-.57.52-2.13.77-.53.95-.23 2.35-1 .68-2.03-.3-2.76.07-.48.25-1.43 3-.38 2.76-.5.91-1.2 1-.08.9.98 1.78-.19 1.52-1.18.96-.81.14-1.93-.26-1.02.17-1.85.71-1.12.81-.64 1.66-1.02.59-.67.67-.3 1.12-1.29 1.35-.96.36-1.87.12-4.89 1.27-3.8.68-2.8.11-.46.22-1.77 1.53-1.39.7-.66.57-2.18 1.06-1.41-1.5.04-2.96-1.37-.12.04-.81-1.32-.43.1-4.1-2.7.05.1-1.4h-2.1l-.34-1.51.14-9.93 1.1-4.52.19-.47 4.88-9.29-16.89.1-2.6-.02.17-13.82 6.67.05 1.43.4-.02-8.3 2.7.06-.02-2.7 2.57.02-.1-2.78.04-5.44-2.76-.02-.1-10.17.04-6.2.16-10.87 4.03.02 12.32.23-.01-5.45.09-5.43z"/>
    <path region="11" short-name="Legislative District 10" long-name="Legislative District 10" value="2" d="m281.86 298 1.02-.55.73.64-.38.51zm-5.2-6.33.45-1 1.95-.33-.06.79-1.8.65zm-11.28-17 3.95-.04.02 4.98.43 2.06.85.42 1.72-.03.77.18 1.28-.58 1.65-1.15.97 1.23 1.03-.17.28-.56.02-1.52 3.3.12.17-.82 2.3 1.35 3.88.91 2.96.79 3.9.18 6.1-1.77.97-.42 4.3-2.24-.05 2.2.12 2.3.73.14v2.79l.73 1.63.34.14 2.48.03v1.41l-1.53.33-.1 1.73.34.89-.4.33-.11 1.6.15.67h-.67l-.54 1.37-.06 6.43.33 2.47 1.5 3.69.96 1.12 5.22 6.7 2.53 4 2.66 3.74.92.9.76 1.2.5 1.97 8.17-.05.15-.73 1.84-.81.58.29-.1.94.32 1.21 1.44.9.53-1.17.7-.3.14.84.57.99-.9.03.48 1.71.7-.26.01 1.01.37 2.58.57 1.19-.4.34h-1.73l.86 1.52.13 1.19.6 1.13h-1.33v-.7l-2.72-.02-.01.35-4.07-.07v.36l-3.27-.06-.41-3.49-.76.03v1.41l-2.45.05.04.7.95.08.61.6 1.8 3.6-.12 1.27-17.62-.1-4.53.02.17-1.26-.73-.97.49-.97-.1-2.16-.33-.79-.37-1.8 1.63-3.35-.8-.41-.83-1.24.31-1.19-.49-1.56.43-1.79-.37-.98-.65-.85-1.32-.38-.73-.86-1.52.25-1.41.53-1.12-.32-.2-.9-.64-.64-1.35.16-1.08.54-.52.72.37 1.2.17 1.5.63.05.32.99-1.65 2.43-.89.67-1.06-.16-1.06 1.13-.06 2.37.58.84-.17.87 1.26.86.2 1.29 1.08 1.83.75.59.98 2.31 2.45 1.63.22 1.25 1.25.5 4.11 4.94.8 1.24 1.2 2.79.56.67.34 1.15-.8.42-1.8-.57-1.35-1.46-.4-.82-.33-1.72-.93-1.3-1.9-1.41-1.04-1.97-.75-.48-1.73-.3-.83-1.34-2.28-3.12-1.34.25-1.12 1.55-.8-.05-.31-.73-2.12-1.7-.47-1.53.28-1.24-1.34-2.7.16-.6-.94-.88-.05-.83-.86-1.76.52-.6.03-1.64-.7-1.4.02-2.06.49-1.83-.1-3.3.54-1.84 1.13-.28 1.08-.61 1.8-.42.24.62 1.46.47.68-.14.82-.68.99-2.76 1.07.02.92.56 4.43 2.05 1.28.78 1.21-.26.7-2.8.57-1.13 2.49-3.46-.92.01-.28-.76.67-.7-1.61-.32.1-.7-.63-.38.03-.64-1.33-1.13.14-.54-1.42-1.5-1.28-.48-.69-1.05-2.37-.69-.95-.86-1.55-1.82-1.33-.18-.31-1.26-1.28-.57-.49-.88-1.1.75-.38.71-.95-.22.85-1.25 1.28-.55-.53-.83-1.08.39-1.88.36-.56-1.3-1.25.39-.09-1.62-.76-2.65-1.03-.52-.8-1.26.22-.77-.8-2.96 1.28-3.78-.82.27-.97-.45-1.73.24-.4 1.3.1.8-.97 1.63-1.28.64-1.24-.18-.91.97-.25.88-1.06.21-.45-.48-.94.92-.92.32-1.94.18-.1-.85-.87-.57-1.33-1.84-.21-2.28-.4-.56.62-.48.87-.1.73-1.08v-.86l.86-.3-.37-3.63-.88-1zm-5.83 3.23 1.69-.47.6.97-.12.95-.48.39-1.34-.75zm-.12-2.13.6-1.1 1.75-.12.73-.55.21 2.41-2.06.23-1.16-.46zm-7.17 48.21.96-2.07.63-2.55.63-1.62 1.75-2.74.87-.97.41-1.1.2-1.65.6-2.02 1.31-1.23.67-.89.87-2.34.68-.43.99-2.22.55-.47 1.17-2.1.68-1.93.44-1.95.04-5.13 1.73-.26.8-.5 1.78.47.84.48.91-1.28.95-.85 1 .32.66.83.18 1.62 1.32.39-.13 1.85.75 2.06-.01.62-1.1 1.65-1.12 1.05.46.58 1.13.24 2.5.98 1.82 1.16.87 1.18 1.13.72 1.08 1.38 1.44.9 1.2 1.99.23 1.86-.76 1.3-1.54 1.55-1.05.59-2.66.18-.83-.1-2.12-2.47-1.17-.6-1.98-.06-2.41.8-1.06 1 .76 1.15-.53.97-.12 1.25-.67.82-.91-.67-.7-1.06-.03-.67 1.1-.03.54-.55-.64-1.12-.88-.06-.42.45-1.28.6-.82 1.1-.09.73 1.38 1.67-.04 2.61-.73 1.34-2.37 1.12-.6-.3-1.04.36-1.8.06-1.5.37-1.59.7-.51 1.2.79.68-.06.73.7.97 1.3-.06 1.46-.76.84-.8 1.86.25.55-.5 1.85.07 1.45-.71.33.75 1.42.62.8-.53 1.49 1.93.53.11.97 1.05-.12.89.66 1.05 1 1.12.9 1.54.1 1.55.49 1.26.03 1.55 1.12 1.06.54 1.04.2 3.02.81 1.6.3 1.26-.3.92-1.48 1.53-.03.57 1.04 1.97 1.17 2.76 1.06.27.12 2.58-.45 1.67 1.26.67.25 1.52.04 3.08-.61 1.1.45.83h1.25l1.3-1.22.67-2.49.4-.82-.49-1.24.15-.64-.48-.73.26-1.08-.48-.84.49-.63.36-1.63-.74-1.1-.75-1.67-.34-1.3 1.55-.18 1.04.39 1.8.24.9 1.43 1.43 1.75.49.1 2.63 4.35 2.19 1.78.74.3 1.18-.01 1.22.51.41.78 1.41.18.64.34 1.42-.09.51 2.76-.06 1.9.15 1.86.31.96 1.9 2.07.51 2.88.09 2.02-.15 1.06-.77 1.66-.26 1.35-.84.48-1.46 2.14.13 2.56-.6 1.19-1.27-.32-.88-1.28.54-1.42-.29-.42-1.01-.02-1.17 1.74-.87.17-1.5-.5.04-.55-1.9-2.4-.02-1.13.58-1.31.05-1.68-.75-2.16-1.12-1.62-.81-.8-.9-1.36-.06-.73-1.22-.57-1.11.01-1.75.5-1.74 1.14-.37 1.2-.44.36-3.27 1.1-.65-.98.1-.95 1.03-1.65.19-1.34-.77-1.39-1.59-1.19-2.78-.74-.8-1.26-.72-.57-.38-1.1-1.36-1 1.34-1.5.4-1.6-.16-1.74-1.38-1.51-.04-.57-1.02-1.07.1-1.28.76-1.64.33-1.64.82-2.68-.49-4.7-.39-1.72-.96-2.24-1.48-1.13-2.78-.43-2.46.76-1.46 1.15-.36-.2-.45-1.25-.45-2.5-.83-1.3-1-.73-1.35-1.59-3-1.22-.73-1.37-.5-.49-2.35-1.09-.9-1.74z"/>
    <path region="12" short-name="Legislative District 13" long-name="Legislative District 13" value="2" d="m414.75 573.92 1.64-1.02 1.23-.08 1.2-1.29 1.22-.73-.08-.73.97-1.2-.36-1.3.24-1.31-.37-.61v-1l-.65-.68.42-.79 1.68-1.67-.5-1.22 2.4-1.47.78-.09.21-.62 1.64-1.28-.37-.77.4-1.75 1.29-1.35.17-.73-.64-1.9 3.28-4.42-.32-.85.16-2.2-.45-.44-.56-1.72.83-.74-.85-1.2-.97.56-1.52-1.2.4-.6-1.06-3.07 1.07-1.48.62-.5.11-.78.7-.14.92-.7 1-.16 1.12-.69 1.38.23.55.57 1.5.47.38.44 1.83-.5.64.28 1.56-.96.24-1.1.47-.76-1.05-2.47-.94-.7-.56-1.36 1.46-2.77-.02-.95-.66-1.25.32-.63-1.08-1.76-.94-.72-1.31-.6-1.41.09-2.41-1.1-.07-.44.93-1.42-.14-1.26.97-.29.83-.77.72-.09.25-1 .46-.3.27-.9-.48-.31-.69-3.9-1.63-.48-.83-.46.01-.88-.85.01-.78 1.11-.7-.25-.79.22-1.15-.67-1.24.04-2-.37v.66l-1.06-.4-.68-.96-.02-2.06-1.45-.59-.08-.5.83-1.29-.19-.8.51-1.26.54-.2.17-.82-1.06-1.82h-.76l-2.5-2.01.35-.88-.56-1.42.25-.75.6-.47.67.23 1.77-.57-.04-2.06 1.36-.25.46-.47-.17-1.18-.77-.6.46-.81.87-.42.1-1.35-.78-.69.13-.8.64-.32.98.1.5-.52.33-.67.99-.77 1.98-.46.45-.77-.47-1.23.79-1.05-.02-.7 1.98-1.96 2-.1 1.18-2.08.86.5.85-.8 1.17-.35 1.73-1.25.29-1.78 1-1.14.9-2.87.84-1.12 1.99-.09.8-1.07 1.81-1.28-.06-1.36 1.02-.3.26-1.12.04-1.87.53-.98 1.51-.78 1.08.71 1.79-.03.8-.5.78.68 1.26-1.61.31-1.04-.39-.8.1-1.26 2.7-1 1.2.6.34-.62 2.41.78.2-.82.64-.3 1.08 1.4 1.14.09.52.8-.02.64.63 1.4-.35.86.3.63 1.15 1.37.45 1.55.55.02 1.24 1 .9 1.43.71.47h1.05l1.86 1.28.3.97 1.21.43.9.06 1.32.5.68 1.4-.46 1.2 1.5 2.25.54.5 1.33.4 1.31.91.44 1.17 1.06.87-.64 1-.07 1.02 2.74.77-.02.85 1 .89-.16 2.83.79.78 1.23.76.85-.3.88.17.42-.32.86 1 1.65 1.36 1.28-1 .93.83 1.4.85.79-.63.08-.59 1.01-1.07 1.96.77 1.41-.55.42 1.02.6.58.12 1.07.85.73.6.98 1.72-.05 1.5.37 1.23.75 1.63-.01 1.05 1.21-.1 1.24.55 1.58.57.67 1.3.68h1l.92.74.28.8 1.1.9.7.17.95 1.1.65.43.83-.17 1.1.44.86-.32 1.17.32.8-.05 1.03-.61 1.36.61.24.53 1-.3 2.53.67.26 2.1.92.95.15 1.03-.23.92 1.67.8 1.23-.99 2.48-.9-.3-.86-.18-1.5.37-.9.56.12.67 1.06.52 1.42.83.42 1.44.06 1.27 1.23-.1.62 1 .42.56-.3 1.4 1.14.69.15 1.34 1.16.27 1.02 1.52 1.37 1.1 1.33 1.1-.15 1.53.2 1.07 1 1.1 1.48 13.87-.03 2.7-.14 21.07-.06-.23 1.42.52 2.31.47.96 1.4 1.93.6.41 1.46.17 2.25-.37 3.16-.15 1.81 1.05.07-4.68.19-3.08h-.2l-.03-10.86 2.75-.08v-2.68l2.73-.06.06-2.6 2.67-.13.02-2.82 2.73-.02.02-5.46h2.73l.02-2.74 2.73-.07v-5.5l2.78.01 13.63-.36v13.7l-.02 11.04 5.9-.05 2.32-.07-.04 8 1.2.14 1.6-.24.06 2.14 2.8-.35 1.8-.61.57-.88 1.2-.72 1.94-.24.5-.28 1.45-2.13.05-.5 1.53-2.77.34-1.16-.15-3.52-1.2-.07.02-2.56.66-.02.67.66.2.66 2.54-.02.68-.66v-.7l1.73-.01 2.59-1.89 3.65-1.83.08.9h3.68l-.08-4.1 2.71.02.01-1.37 9.2.26-.02 2.73 1.7.05v5.41l5.45.13 19.06.56.06 2.77-.02 10.85 5.34.17h5.38l2.95.12 7.96-.08-.02 10.97-.11 5.5-.06 16.89-.11 23.9-.07 8.47-12.3-.08-7.3-.08H703.5l-5.57-.06h-11.2l-.04 7.47.05.72-.1 13.65-16.15.04-33.94-.05-.82.02-20.53-.14-1.85 4.03-1.03 1.29-1.1.85-1.3 1.54-.4 3.32-52.8-.07-.16 1.57-.84.61-1.05.1-.57.5-.54 1.21-.52.43-1.8.24-1.14 1.19-.48 1.6-.46.53-.01 8.36 3.82.03.02 6.63-.06 2.78 1.54.02.02-1.37 1.34.02v2.7h1.35v1.35l.69.02v1.35h-.69l.03 2.7.95.26.42.8-1.74.01-.7.68-.58-1.05-.65-.43-5.25-2.91-2.03-.23-.56-.62V634l-1.02-1.38-.32-1.3.25-.43-.6-.68-.94-.16-.82-.86-.19-1.34.28-1 .1-2.28-.45-2.44-1.49.43-.15-.26-1.37.21-.68-.66-.16-1.7.64-1.02-.55-.34-.6.33-1.6-.7h-.67l-.62-.69-1.86-.01.02 2.72-1.35-.1-.02-1.1-.64-.19-.08-.72-1.1-.62-.24-.71h-1l-.5-1.48-2.51.13-.26 1.64-1.1-.33-.07 1.25-2.27-2.15-.64-1.13-3.07-.02-.03 3.8-.96-.87-.23-.59-1.16-.2.13 1.15-1.82-1.2-.5 1.01-.85-.33-1.56-.01.51.84-.18.5h-4l-.18.61h-1.65l-2.28-.38-1.25.14-1.9-.44-1.3.46-.93.07-1.77 3.05-.71.84-1.69 1.51-.09.69-1.4 1.64-.94.04-.02 2.66-11.13-.06-2.19.1-4.18-.13-10.43-.05-16.25.03-.17-.1-12.74.08-8.44.02.06-.6 1.39-1.07.36-.76-.36-1.47.41-1.36-.37-.5-1.1-.57.35-.75-2.37-.54-.36-.6.01-1.41.63-1.14-.21-1.9.55-.88 1.27-1.4 2.84.3.28-1.2-.73-1.16.56-1.14.91-.67 1.35-.62-.02-.85-.65-1.16-.7-.6-1.85-.43-1.47.3-1.68-.25-.56-1.36-2.12-.69-.28-.5.94-1.94-.19-.95-1.68-.7-.6-1.2-.47-.02-.12-1-.6-.67-.35-1.33.18-.82.68-.68.76-.21-1.6-1.7-.72-1.84-1.75-1.58.54-1.12-.58-.93-1.21-.54-.16-1.26-1.29-2.6-.23-1.48-1.3-.36-.98-1.15-1-.34.35-1.2.9-1.05-.13-1.15.49-1.05.97-.87z"/>
    <path region="13" short-name="Legislative District 19" long-name="Legislative District 19" value="2" d="m115.43 564.7.83-.17.44-.5 1.12-.5-.46-.67.5-.59-.74-1.3-.4-1.82v-.73l.56-.23 1.9.28.67-.24.36-.66 3.26-.01-.02 2.45 1.14.09 2.01.56 1.88 1.44.92 1.28 1.25.49 2.2-.37 1.1.74 2.54.09 4.71-.01-.12-2.31-.39-1.03 3.87-.04.02.67.74-.02.14 1.44h.6l.58-1.28 1.4-1.43 1.9-.52 2.17-.21 5.28-1.88 1.9-.91 1-.25 1.4.19 3.15.13 2.04.55 1.6-.02 1.84-.73 2.4-.13.47.65 1.73 1.24 3.54 2.82.02-1.48-.3-2.64H181l-.17-8.26.06-2.8-.06-5.19 8.8-.23h7.45l.12 3.18.01 10.81-.28 2.52 2.88.05 2.83.15-.14 2.72-.15 13.41.02 13.5 1.14-.6.79.48 1.68-.6.41.7-.6.72-.02.73.97-.29.2-.86.8.53.1 3.5 2.62-.15.25 1.47 3.75-.05.04-1.5 2.74 2.35.93.08-.03-1.67 1.73-.01.06-1.98 4.34-.05-.05 2.4-2.24 1.34-.4 1.53 1.42 3.47.83.04.09 2.03h-5.27l.65 1.38-.13 1.2 1.04.05.84 1.17-.01 1.58-.75.05.45.93.03.84 1.12 1.52-.14 1.45.66.67.68-.02.92-.7.3.7.9.05.03-.65.7-.06 1.06 2.04-.44 2.01-1.8.56-.07 1.26-.72-.23-.46.45.47.73-.32.98.51.15.02 1.18.7-.08-.23 1.4.64.34 1.2-.01.4.67.02 2.34.59.05.81-1.68.92.73 3.55 4.29 1.14 1.27.11 1.07.56.84-.68.65v2.01l-1.13.51.45.76v1.26h.68v.78l1.34.25 2-1.69.01 2.7h1.45l-.1 3.42v9l-.9 3.85-.94 9.7.2 2.34-1.38 2.32-.95 5.22.22 2.8-.3 3.87-.57 1.56-.3 1.33.53 3.06.92 2.57.81-.67.16 1.94-.44.06 1.14 2.71 1.28.68v1.02l-.34.42-.76 5.9-.23 1.3-.17 2.87-.7 2.9-.67 1.46-.13.83 1.8.27.88.54.93-.47-.04 1.44 1.93 2.53-.27.37-1.37.23-.82.43.37.66h1.38l-.08 3.37-1.32-.01.03 1.33 1.31.01v1.33l1.23 1.33h-1.28l-.35.94.46 1.71h-1.27l-.95-.62-3.14-1.5-.6-.55-2.18.86-4.11-2.14-5.31-5.35-.67-.4-1.62-.57-1.49-.96-.95-.38-1.25-1.33-6.9-4.44-1.38-1.4-6.46-.69-5.95 3.04-2.27 1.52-1.43.6-1.18.84-3.7 2.14-2.66.04-4-.27-1.78.2-1.83-.24-1.38-.01-1.04-.85-1.39-.63-5.18-5.01.43-8.82-2.55-3.78-2.7-2.72-1.4-.85-2.76-.34-1.9.9-2.8 1.02-1.22.27v-1.2l-1.57.1-.57.7-1.55-.15-.65.3-2.76-.21-1.32.3-1.45-.28-1.37-.68-2.01-.04-2.32-.26-1.23-1.05-.12-1 .26-1.58-.32-1.77-2.58-1.58-3 .63.03 1.13-.58 1.17-2.77-.61-.43 2-.76.37v.76l-.91.3-1.07-.2-.97-1.05-1.65-.79-1.35.17-.72.6-.6 1.7-.3.27-1.91.22-.66 1.18-1.28.3-.23.7-1.12 1.35-.8.08-.66 1.36-.58.33-4.32-1.05-1.31-1.06-.45-.1-.4-1.07-1.89-1.77-.98-.74-1.12-1.83-.19-.9-1.34-1.01-.12-1.47-.53-.69-1.36-1.1-2.05-.78-2.47-.46-1.2 1.37-.38.92-1.45.62-.94 1.57 1.09.44.2.61-.06 1.8-1.32.1-1.1-.6-1.81 1.34-.37-.82.23-3.8-.47-.57 1.09-1.1.86-3.95.8-11.03.12-4.22.05-15.58-.63-11.66-.82-8.41-.15-5.44.67-1.97.83-.75.89-.04.56 1.33 1.43.44.15.9-1.26.7-.23.58-.71.08-.13.7 1.47 2.57.32 1.42.77.63 1.12 2.35.05 3.43-.37 6.04.3 3.61-.48.44-.55 2.49.73 6.19 1.14 8.64.24 6.98 1.03 1.34 1.55-.46 1.3-.88 1.07-.18 1.6.54 1.31-.4.27-2.09-.06-2.3.28-1.43-1.98.3-.6-2.91.6-1.64-.6-1.1-2.34-1.09-.43-.7.11-3.13-.42-.58.2-3.67.54-1.55 1.2-.07-.03 1.38.92.7.15 2 1.8 1.16 1.82.73.4-.36-.55-1.87.14-1.97 1.36-1 1.14-1.53.23-1.16.4-.7.75-.5.62 1.21.96-.53.55-.66-.33-3.86.62-.88-.31-.55-.06-1.43-1.53-.56-1.12-1.74-.72-1.4.03-1.28-.84-2.2-1.3-1.38-1.87-1.64-.7-1.57.04-2.66-.23-1.57h1.01l.25.85.85.88h1.03l-.03-1.12-.55-1.45.95-.95 1.44-.8.13-.62.03-2.7-.33-.86.98-1.1 1.45-.08 5.02-3.65 1.73-.73 1.5.2 1.34-.6-.03-1.6-.52-.93-1.74-.05-1-1.26-.92-.45-1.1-.1-.76-.44-1.34-2.8-.2-.88-1.27.04-1.54.65-1.03 1.47.14.78.62.74-.09.74-1.98.26-2.5-.01-2.55-2-.82.5-.6 1.63.58 1.99 1.06 1.64-.87.34-1.77-.78-.86-.08-.59.37-.88-.81-.1-.67-1.35-1-1.53.29-1.11-.86-2.34-1.26-.9-.85-2.28-.25-1.43-1.23-.55-.86.19-1.98-.2-5.14-.6-4.9-.87-4.8-2.3-8.35-.86-2.86-.2-1.4 1.58-.34.8-1.4.65.12 1.43 1.55.83.48.33 1.15-.27 1.58-.33.82.7 1.03.04 1.77 2.07 1.16 1.54-.68.76-1 .74-3.88.38-.51 1.29-.84 2.88-.97.68-1.67 1.59-.34 1.38-1.4.73-.22.72.25 2.08.09 2.6-1.38 2.8-.81 4.13-1.3 1.62-.61 2.5-1.65 1.5-.37z"/>
    <path region="14" short-name="Legislative District 22" long-name="Legislative District 22" value="2" d="m240.96 525.1 1.36 1 .76-.13.43 2.25-.73.67.15 1.33-.47.87 1.26 3.17.58.76.51-1.97-.2-.43.35-1.47-.2-.72.17-1.78-.06-2.25.8-2.93.8-.48.77 2.62.58.1.76 1 .24 1.03.46.24.24 1.4.45.42-.18 1.1.38 1.86.94.24.22.85 1.52.18 1.19.86.31.74 2.3 1.26 1.09.86.16 1.24 1.6.08.28-.42h1l.46-.98.88-.07-.03.92-.51.4-.03.87-1.32.8.22.5-.3.95.54 1.12-1.24.68-2.56.13-3.3.67-.18.47 2.28.04-3.45 1v-.7l-.67-.34-1.68.32-.36 1.03v2.46l.37.8.87.56.63 2.58.8.87-.28 1.05.31 1.15-2-.35-.7.2v.6l.88.93-1.55 1.06-1.33-.47-.05-.6-3.36-.01.01-.84-.7-.5v-1.36l-3.35-.03v.68h-1.53l.2 2.21.89.84.19 1.07.64.48-.51.86.24.72-1.15.76-.7.78.35.7v1.77h-2.03v-.68h-1.28v.68l-1.42-.42-.01-2.22-2.02-.07-.02 4.06h-1.32l-.22 1.1-.8-.41-.35-.68.01-1.35.68-1.37h1.19l.55-2.74-.55-.27-.15-1.07-1.63 1.79-2.34-.41.54-2.42-.64-.3.34-.85v-1.84h1.33l.46-1.39h-1.1l-1.88-.85-2.5-1.53.22-.77 1.28-1.91.11-.8-1.08-.5.02-.84-.66-.55-.72-1.1-.99-.64-.3-.77.46-2 .83-.4 3.53-2.6 2.17-1.8.78-1.13-.54-2.07.04-1.07 1.07-2.1 1.03-1.3 2.07-2.25 1.53-1.96.3.03.5 1.38 3.01-.15 1.1-.53.81-.8z"/>
    <path region="15" short-name="Legislative District 23" long-name="Legislative District 23" value="2" d="m275.13 431.59.66-.42 1.6-1.67.41.18-.11 1.82.65-.42.16-1.07.44-.45-.46-1.5-.1-2.4.35-1.33-.15-1.63 1.4-2.02 1.12.48.12 1.38.3.44 1.4.87.58-.67 1 .43.8-.65.85 1.82.1.9-.5 2.38-.13 2.09.59 1.12.8.59-.36.42-1.82 1.04.86 1.98.78.87 1.66 1.12-.47.68-.46 1.48-1.04-.79-1.26.92-.7-.26-.55.86 1.57.42 1.47-.4.33 1.37-.2.96.13 1.45-2.03.2-.07.45 1.44.4.55.44 1.95.68.47.6-2 .56-1.02.94-1.85.24-.56-.26-1.2-2.68-.8-1.23-.78-.21-.44-1.23-1.14.38-.6 1.5-.77.58-.73-.74-.45-1.1.42-2.9-.47-.82-.07-4.48-.36-.34-1.3-3.06zm-20.28-1.95.6-1.75-.2-3.5-.33-1.4.1-1.78 1.27-3.02.68-.72 1.32-2.13.38-2.3.63-1.25.94-.34.73-1.05 1.1-.23.45-.57.7-3.71 1.18-1.11.2-.52 1.08-1.14.86-.11.56-.45.17-1.13 2.77-2.51.96-.19 1.1-2.78.83-1.13 4.4-.16.07-3.14-1.7-5.32-.23-2.08-1.02-1.39-1.37-.6-1.4-.36.21-.91-.52-.29.42-1.42.65-.34 1.03.06.3 1.67.39.83.8.92 1.32.43h2.45l1.74.23 1.14 1.03 1 .3.9-.05-.3 1.23.19 1.13 1.73 3.46.1.8-.34 2.22.32 1.18.52.9.26 1.15-.04 3.28.5 1.02 2.52 2.07.01 1.19-.35.97-1.3 1.35-.8.39-.03.82 1.62 1.42.72.26.06.9.64 1.53.85.59.14 1.68-.2 1.39-.7.72-1.42.46-1.07-.27-.83.35-1.51-.14-.53-.44-2.3-.18-2.19.28.5.56.12 2.24-.68 1.07-.73.52-.2.63-1.13 1.6-.32-.02-1.25 1.55.13.91-.46.34-.24.95-.68-.6-1.27-.35-.12-1.56-1.11-1.42-.76-.04-1.6 1.3 1.46.14.07 2.22.41 3.52.35 2.01-.22 1.99-.36.63 1.8 1.25.56 1.21 1.05.25-.9 6.24.82 1.52-.65 1.29.06.4-.8 2.14-.62.98-.82.33-.95-.72-.55-.24-3.53-.07-.37.46-.88-.11-.6.5-1 .04-1.11-.27-.6-1.71-1.34-1.29.07-2.06h1.23l.79.28.08-1.8-.5-1.8h-2.87l-.05-1.26.73-2.6-.85-.48.52-1.2-.17-.74.25-1.99.3-.38-.06-1.34-1.1.36-.88-.58-.22-.81-3.01-.03z"/>
    <path region="16" short-name="Legislative District 35" long-name="Legislative District 35" value="2" d="m225.18 442.31-.08.7-.72.88-1.59 2.59-.45.24-.27 1.3-1.22 2.28-.73.82-.06.7-1.03.7.6.8-.7 1.62-1.18.28-.42.97-.67.79.27 1.03-.63.73-.61 1.97.38.45-.53 1.2-1.22 1.12-1.12 1.36v1.04l-.73.12-.85.97-1.69 2.45-1.27.85-.7 3.27-.55.43.06 1-1.24 2.4-.14.8-1.29 2.54-.5 3.1-.54 1.46.27.8-1.32.78-.07.67.38 1.2-.53 1.27.56.8 1.19.75.7.83 1.15.02.49.66.57.07.92-.92.77.06.54-2.7 2.96.2.25.6.68-.08.6.6 2.98.04 2.15-.28 1.28-.63 1.85-1.86 1.73-1.3.46-.64.6-.03 1.8-.82 1.33-.12 1.37-.73 1.27.03 1.52-1.12 1.97.03 2.65-3.5 1.63-.63 1.31-2.1h-1.24l-1.4-.36-.79.52-.85-.06-.06.97-.98.57-.93-.06-1.98 1.04-1.15.97-2.73.63-.37.67h-1.54l-.7.6-.25.92-.94.24-1.58.73-1.09.82-1.43 3.28-.66.46-1.61.03-1.22-1-.67-.86-2.18-.79-1.49-.39-.67.64-.51-.4-1.4.22-.96-.45-.02-1.5-.79-.54-.07-1.12 1.03-1.2 1.44-3.43-.08-.3 1.27-2.92.75-1.13.56-1.31.82-1.08 1-.67-.18-.57 1.22-2.36 1.73-1.9 1.48-2.51.34-1.52-.06-1.75 1.79-2.99 1.18-.94 1.52-2.3 1.6-2.7 1.1-.2-.15-1.27.67-.9.24-1.28.55-1.4 2.03-.27 1.6-.64 1.01-1.24.76-.25.15-.85.73-1.3-.48-1.59.33-.58 2.67-.9.58-.54 2.15-.95.82.03 1.13-1.06.54-1.67 3.09-1.46.5.4-.7 1-.66 1.53.57.38 3.24-2.39 2.52-1.24.36.2 1.17-.97.61.03 1.31-.85 1.13-.47.36-1.08.67.26 3.01.03.22.8.88.59 1.1-.36.06 1.35-.3.37-.26 2 .17.73-.51 1.2.85.49-.73 2.59.05 1.25h2.88l.5 1.8-.1 1.8-.78-.27h-1.23l-.07 2.06h-1.9l-.3 1.38-2.45.06-.04 4.12h-.67v-1.36l-.66-.69-1.35.02-.68-.36-1.35-.02-.67.33v2.72h-.68l-1.4 1.35-1.35-.03-.04 1.36.67.02-.08 2.73 2.77.03 1.36-.25-.02 1.52-.69.06-.2 1.29-.5.99.15 3.92h-.36l-1.4 1.44.32.42-1.14 1.15-.26 1.16 2.9.07.01-.94.7-.49.68.67.97.28 1.63-.1 1.06.21 1.89-.32.39-.6 2.33-1.08 2.21-.2 2.38-1.75.61-1.82 1.08.02v1.56l1.34.47h1.4l.07 6.86-1.7.01-1.02 1.36V476h-1.33l-.68 2.03-.1 1.9.62.85h-7.02l-10.5-.05.02 8.48-.8-.02.08-.85-.71-.81-.6-1.93.4-1.13.16-1.46-.77-2.46-1.2.4.6 1.06-.31 1.94-.92 1.9 1.05 1.26v1.2l-.26 1.1.66 2.02-.36 1.47-.64.81.12.52 1.11.79-.41 1.43-1.1 1.12-.34-.58.42-1.17-.86.05-.67 1.91-.58.49-.88.18.88 2.37-.97.63-.51 1.55-1.19.97-.4.64.16.7.82.21-.58 3.89.61.4-.15 1.87 1.06.77.03 1.33.49 1.06.66.52.16.79.86 1.1-.38 1.78-.42.49-.7 2.58-.91 1.82-.64.7.61.5-.85.46-.82.8-1.09.52-3 .15-.51-1.38-.3-.03-1.53 1.96-2.07 2.26-1.03 1.29-1.07 2.1-.04 1.07.54 2.07-.78 1.14-2.17 1.78-3.53 2.6-.83.41-.46 2 .3.77.99.64.72 1.1.66.55-.02.83 1.08.51-.1.8-1.29 1.91-.22.77 2.5 1.53 1.87.86 1.11-.01-.46 1.38h-1.33v1.85l-.34.85.64.3-.54 2.41 2.34.42 1.63-1.8.15 1.08.55.27-.55 2.74h-1.2l-.67 1.37-.01 1.35.34.68.81.42.22-1.1 1.32-.01.02-4.06 2.02.07V565l1.43.42v-.68h1.28v.69h2.02v-1.78l-.34-.7.7-.78 1.15-.76-.24-.72.5-.86-.63-.48-.2-1.07-.88-.84-.2-2.2 1.54-.02v-.67l3.34.03v1.35l.7.51v.84l3.35.01.05.6 1.33.47 1.55-1.06-.88-.94v-.59l.7-.2 2 .35 1.32.05.01 3.4.37-.21 2.94.26 1.4-.08.07 2.05.31 1.14-1.37.36-.45.76-.56.08.03 1.76h5.34l.01 2.73 2.7-.04v2.75l-.26 1.34-1.76.03-.13 1.98h-.67l-.02 1.4-.71.67v.68l.69.45v.9l-1.36 1.1-.98.42-4.3 1.07-2 .75-1.3.88-2.19.36-4.28.27-.67-.43-1.65-.25v-.43l-1.13-.03-.2.76h-.83l-.03.58-1.49.19-.67 1.22-1.65-.02-.46.54.2.65-6 1.96-2.8 1.85-3.43-.04-4.34.05-.06 1.98h-1.73l.03 1.68-.93-.08-2.74-2.36-.04 1.51-3.75.05-.25-1.47-2.63.14-.1-3.49-.8-.53-.19.86-.97.29.02-.73.6-.72-.4-.7-1.7.6-.78-.49-1.14.6-.02-13.49.15-13.41.14-2.72-2.83-.16-2.88-.04.28-2.52-.01-10.81-.12-3.18h-7.45l-8.8.23-5.05.26h-2.57l-2.66-.16-5.31.06-2.92.13-1.9-.07-.1-1.52-.04-11.34-.15-2.15.15-1.25.03-2.74-.13-8.28v-5.7l-1.82-.07-.03-13.34.03-2.77-.11-32.79V442.7h16.46v-.43l1.28-.1 47.38.11z"/>
    <path region="17" short-name="Legislative District 5" long-name="Legislative District 5" value="2" d="m332.31 459.4.69.01v-1.37l-.66-.69h1.77l.2-.3-.44-1.19 1.82-.54.72.36.23-1.62 1.12-.06.02-2.66 1.5-.03 3.5 2.03.41-.67 2.91-.08.3-2.47.4-.87.79.04.16-.97-.68-.82.7-.29 2.97.16.5-1.16 1.68.82.02-1.1h.69l.36.6 1.06-.05-.63-1.87 1.15-.01.6.77 2.17 1.84.96.47-.04 1.03-1.33.32 1.4 1.08 1.04.1.58.43 1.3.12v-.6l1.68-.19 1.03.3.44-.7 1.33.23-.92 1.97.47.42 1.61.25 1.1-.3.71.78h.6l.35.7 1.85.02.47.7 1.86-.03-.05 1.55.59 1.2.97.86.82-.38 1.02.26.12.55-.7 1.06.09.84h-2.44l-.33.95.36.69-.02 1.76.96.59.84 1.1 1.28.46.38-.34 1.35-.1 2.7 2.04 1.05.09 3.89 1.83.84.86.46 1.81 1.36 1.12 1.15-.05 2.36.21.59.27 2.71 2.05 1.58.37.94-.1 2.34.82 1.2 1.2.53.94 1.59 1.43 1.34.44 1.2.87 3.14.7 1.94-.25 2.53-.07 2.33.28 3.08-1.2.4-.84-.1-.78.22-1.32.36-.6 1.84-1.43 1.14-.07 1.07.78-.49.51-.98-.1-.64.33-.13.8.79.7-.1 1.34-.88.42-.46.82.77.6.17 1.17-.46.47-1.36.24.04 2.07-1.77.57-.68-.23-.6.47-.24.75.56 1.42-.35.88 2.5 2-2.21.04v.82l-24.05-.1-.57.02-7.98-.2-.38-.37-.13 16.33-15.86-.1v5.46h-5.51l-7.4-.1v1.37l-2.11-.04v-1.35l-9.53-.02v-1.55l-.95-1.13-7.24-.04-.01-1.37 2.75-.02-.1-1.36-.04-7.6-.65-.65-.1-1.05-1.2-1.3.04-1.52-.46-1.04-.27-2.59.73-.7.7.04.54-.87 1-.86.56.37.11 1.34 2.5.18.04-.8-.85-.32.16-1.6-.43-1.19-.03-1.57.45-.67.6.01.8-.65-.17-1.38h-1.05l1.23-1.11.25-1.33-.32-.8-.96-1.44-2.4-1.78-2.42.26-1.58-1.2-.57-.22-.77-1.93h.6l.02-1.3.31-1.48-.26-.46-1.34-.26.13-1.36-2.77-.54-.09-.75-1.14-.07-.28-.67-.9-.44 1.7-.93 1.35.02.68.7.98-1.35-.02-.67-1.32-.04-.01-1.35-1.02-.02z"/>
    <path region="18" short-name="Legislative District 7" long-name="Legislative District 7" value="2" d="m497.3 174.68 17.24.02 43.48-.1 43.51.23 4.39.02 15.96-.2 22.35.04h34.82l31.67-.01h43.95l42.52-.01h17.76l21.38-.01 24.95-.01.12.1h14.9l1.06-.12 34.33-.06 22.66.1 16.63.06 22.19.22 11.97-.06.03 24.17-.16 24.24-.04 18-.1 7-.13 23.32.04 24.84-.44 31.28-.32 16.27-.07 14.82-16.87-.06-8.48-.05-13.25-.1-.76 2.02.02 6.25-5.53.03.01 6.21h-1.43v2.06h-3.17l.01 1.03h-.64l.08 7.55-.1.73-4.04.03.01 1.38-8.92.13.1 10.27-.01 3.48.1 6.75-2.27-1.22-2.07.17-.52.86-.9.52-.97-.27-1.74-1.56-1.26-2.05-.82-1.07-.46-1.69-.86-.43-.42-.7-1.37-.33-1.32.24-1.25-1.7-.43-1.24.05-1.27-.47-1.31.2-2.06-.07-1.12-.8-1.57-.7-.03-1.78 1.03-.68 1.64-.54 1.85.51 1.68-.76.23-.8 1.17-3.34 2.18-.83 1.33-1.33.7-1.8-.95-1.8 1.02-.59 1.72-.59 1.15-1.98-.17-1.54-1.72-.37-.85-.94-1.44-3.07-1.04-.86-.8-2.73-.9-.36.31-.4 1.48-1.13.39-2.26.2-.74 1.18-.96.7-1.16.4-.44-.38-2.31-.54-1.18-.8-1.74-.41-1.2-.05-.72.48-1.21 1.7-.5 1.13-.27 1.44-.4.79-1.4.65-.92-.32-.57.21-1.3 1.44-1.29-.78-.92.37-.8-.55-1.08.03-.7-1.8-2-2.69.28-.91-1.36-.78-1.28-.02-.29-1.34.2-.73-.27-1.6-.7-1.9-.55-.7-.97-1.86-.74-1.78-.61-.38-1.54.3-.24-.9.3-1.4-.85-1.06-1.35.26-.17-.55.27-1.18-1.51-1.78-.23-1.23-1.25-.4-.29-1.35-.5-1.3-.57-.57-.94.1-1.47.86-1.06.02-.65-.6-1.05.07-1.04 1.01-.1.53-1.51.4-.28.72-2.52 1.9-1.22.67-1.77 1.27-.5 1.53.14.65-2.71.94-.8 1.03-.3.84.23 1.06-.77 2.3-.36 3.3-.02 1.14-1.42 1.64-.85-.01-1.1.51-1.18-.06-3.34-.95-.68-.53-1.19-.26-1.58-1.08-1.32-1.7-.21-.97.1-2.92-.5-1.04-.77-.39-1.12 1-3.24.63-.87-.27-2.99.07-1.01-.53-.62-1.2.24-1.65.97-1.64.32-1.77-.18-.83-.96-1.05-2.86-1.38-.9-.9-1.8-.04-1.72.64-1.15-.39-.86.45-1.4.25-1.22-.44-.92.73-1.34-.2-1.28-1.96-3.37-1.02-1.16.42-1.3 1.33-.45 2.73.14 1.8-.2 1.23-.42.25-1.97.35-1.32-.26-1.92-1.34-1.81-.82-1.7-.54-2.42-.41-1.25-.46-1.44-1.13-.8-1.32-.46-3.3-.59-.86-1.15-.52-2.9.21-1.1.33-2.9 1.32-2.96.46-4.24.89-2.02-.03-.14 1.56-.01 4.2-.14 15.3-.07 20.32-.16 14.83-.1 17.43-.02 17.47-.1 8.7-.07 9.24.05.52-.12 19.11-7.96.08-2.95-.13-5.38.01-5.34-.17.02-10.85-.06-2.77-19.06-.56-5.45-.13v-5.41l-1.7-.05.02-2.73-9.2-.26v1.37l-2.72-.02.08 4.1H673l-.08-.9-3.65 1.83-2.59 1.89-1.73.01v.7l-.68.67-2.55.01-.19-.66-.67-.66-.66.02-.02 2.57 1.2.06.15 3.52-.34 1.16-1.53 2.78-.05.5-1.44 2.12-.5.28-1.95.24-1.2.72-.58.88-1.8.61-2.8.35-.05-2.14-1.6.24-1.2-.15.04-8-2.32.08-5.9.05.03-11.05-.01-13.69-13.63.36-2.77-.02v5.51l-2.74.07-.02 2.73h-2.73l-.02 5.47-2.73.02-.02 2.82-2.67.12-.06 2.6-2.74.07.01 2.68-2.75.08.04 10.86h.19l-.2 3.08-.06 4.68-1.8-1.05-3.17.15-2.25.37-1.46-.17-.6-.41-1.4-1.93-.47-.96-.52-2.31.23-1.42.24-2.38.34-.44.1-2.52.4-1.84-.23-1.56.06-1.14-.38-.87.9-2.72-.81-1.45-1.1-.19-2.6-3.28-1.4-1.22-1.9-.15-.6.15-2.1-.28-1.15-.74-.53.03-2.92-.95-2.05-.21-1.07-.33-1.34.12-2.12-.54-4.27-2.17-.48-.9 1.1-.47-.02-1.73 2.28.02.45-2.07h.99l-.23-2.87-.76-.67v-1.6l-.85-.21-.6.66.02.54h-5.07l-.62-1.58-.24-1.32.19-2.56.26-1.62.6-2.04.27-2.54.26-.5.36-2.52 1.13-2.66.16-.77.88-1.22 1.57-1.44 1.81-1.18.75-2.67 1.57-1.72.37-.88.15-1.32.46-.82-.38-2.22.2-2.25-.39-.7.15-1.3 1.21-2.94.84-.57.08-1.49.44-1.05 1.56-1.5.7-2.03-.08-1.1-.7-2.66-.91-1.21-.45-1.21-.68-.8-.22-.81.34-1.9.58-1.44 1.02-1.74 2.08-1.8 3.8-1.58 2.38-1.2 1.55-.46 1.72.31 1.31.75 1.73 1.42.8.06 2.28-.65.65-.4 2.35-.79 1-.58 2.27-.64 1.16-.16 1.02.2 1.37-.77.74-1.78.33-.25.85-1.63.28-1.78.34-.45 1.03-2.3.58-3.73.4-.38 3.2-1.33 1.62-1.43.55-1.02.84-2.23-.09-.84-.72-1.98-.04-1.37 1.34-1.74 1.95-1.27.87-1.1 2.44-2.68.47-.94-.23-.97-.84-2.23-.32-.33h-18.03l-4.71-.03-.77-.27-.98-.9-.51.07-.45-.89.87-1.5-.1-.49-2.2-2.2.36-1.2-.63-2.21-.9-1.36-.62-.49-1.68-.48-1.45-.77-.29-.97-1.6-.21-1.54-.78-.12-3.01.9-.2.72.3.23-.89-.96-.81-.35-.65-1.69-.2-.26-.56-.78.11-2.38-1.09-.25-.74-2.28.13-1.3-.36-.69-1-.84-.08-2.48-3.12-.76-.4-1.04-1.4-.97-.13-.9-1.4-.88-.96-1.04-.32-.28-.77-1.04-.11-.64.56-.77-.04-1.27.5-.94-.89.08-.45-.96-1.43-1-.78-.88-.26-.51-.77-.22-1.35-.9-.42-.12-1.38.16-1.48.55-.7.14-1.36.47-.77.14-1.14.58-1.3-.21-1-1.21-2.72-2.06.3-1.2-.38-.47-1.05-.62-.67.83-.84-.25-.93-.69-.9-1.46-.39-1.09-.67-1.12-.24-1.11-1.04-1.66-1.01-1.08-.15-1.3-1.06-1-.48.77-.68-.17-.45-1.51-.67-.77-1.08-.8-.65-1.3-1.48-1.2-2.93-.53-.32-.87.13-1.05.91-2.54-.02-2.3-2.1-2.29-.29-.68-.83.58-.83-.26-1.73.44-1.14 1.64-1.18.43-1.78.78-.56-.38-1.89-.53-.9-2.15-.86-.58-.8-1.38-.3-1.4-1.65-1.35-.86-.53.23-1.9.1-1.26-.2 1.06-2.5-1.1-.7-.22-1.65-.41-1.3.47-.43-.16-1.09-1.3-.9-.75-1.37.28-.33 1.51-.33.5-1.45 1.26-1.14.98-.29-.58-1.04-1.72-.8-.3-.8.6-1.49.94-.58.4-.72 1.09.12v-.73l-2.26-1.1-1.22-.41.19-.85-.27-.74.16-1.07.97-1.12v-1.14l-.42-.8-3.22 1.16-1.3.08-1.05-.38-.79.18-.69-1.01-.15-.96.85-1.8.2-1.52 1.58-.76.25-.69-.3-1.78-.55-.34-1.75-2.56-.74-.13-.89-.97-.43.06-.23 1.39-.8 1.28-1.4.66-1.56-.32-.85-.43-.69-1.2-1.01-.79-1.26-1.7-.21-1.24.37-1.09-.75-2.16.76-.67 1.36-2.71.68-.34 1.12-.04.89-1.77-.16-.63.27-.44 1.48-.66.65-.68 1.57.44.44-.12-.17-1.93.7-1.5.16-1.08 1.09-1.75 1.02.05 1.44.47.78-.39.03-1-.48-1.8.43-1.38.96-.54 1.4.2.5-.92-.69-.58-.85-1.22-1.31-.28-.29-1.24-1.16-.83-.43-2.06-.84-.17-1.34-2.82-2-.3-1.26-2.54.18-1.17-.41-.65.24-1.53-.85-1.47-.05-2.08.64-.7.2-1.78-.5-1.27.4-.6.67-2.05-.6-.6.1-1.22-1.66-.48-2.38-1.85-.42-1.05.83-1.16-.32-1.05.45-1.23-1.06-.93-.06-.78.46-.6-.52-1.03-.06-1.46.26-.62 1.46-.44.62-1.28-.43-1.57-1.41-1.98-.82-.45-1.57-.18-.62-.33-1.16.14.01.99-1.32.57-.36.92-.75.94-1.23.58-.73-.23-.61-2.07-1.12-1.16-1.01-.15-.6-.68-1.51-.5-.94-.76-.17-2.2 2.1-.36 1.84-2.72-.51-.76z"/>
    <path region="19" short-name="Legislative District 12" long-name="Legislative District 12" value="2" d="M350.39 380.05v-2.59l.19-2.96 3.92.13.9.98 1.31.24.78 1.62-.21 1.1 1.15-.02V380l1.36-.1.08 2.73 4.09-.18.57 1.77 1.45 1.5.87.6 1 .04 2.4.56-.32.57 2.02.95-.19 1.18.71.38.24 1.25 1.21.28.11.94 1.7-.38-.34-.62.05-1.1.81-.36 2.53-.03 5.71.94-.08-2.14 1.18-.53 1.12-1.26.46-.08.98-1.42-.2-1.25.26-.26-.16-1.82-1.14-.28.47-1.14-.04-1.36 1.1-1.32 1.22-.47.88.12.06-.66 18.12-.04 11.96-.02-.02-3.48 1.88.66.71-1.31.83.2.65-.36.06-.6 1.3-.4.92.47.35.76 1.21.85.65.98.83.69 1.52-.67h.66l.77-1.32 1.74-.36.48.73.82.38.97-1.15 1.37-.26 1.24-.9h1.25l1.45-.9 1.52.13.45 1.5.97.87.41 1.7.52.35 1.66-.91 1.35-2.1.46-.44 1.58.02 1.18.33.95-.2v-.8h2.64l1.37-1.29 2.16.89.82-.39.61.13.69-.76.74-1.32.84-.64.03-1.76-1.35-1.44-.09-1.14-2.32-1.84-.75-1.96 2.9-1.04 1.1-1.11.76-1.34 1.38.04.46-.94 1.46-.43.9.65 1.4-1.17.97-.48 2.03-.01.95-.47.64-.8 1.41-.25 1.18.65.61-.84.83-.43.75-1.3.74-.33.72-.75.88-.25.34-1.14.72-.56-.04-.86 1.12-.22.97.31 1.25-1.36-.8-.39-.53-1.04-.2-1.25-.61-.42-.32-1.71.15-.5 1.08-.91.05-.82.91-.59h1.3l.65-.33.16-.93 2.13.37 1-.67-.4-1.99-.87-1.18-.41-1.45.17-.59-.8-.26-.91-1.03-1.84-.75-.67-1.55-1.6-.42-.12-1.24.76-1.91-1.7-1.45-.16-.66-.88-1.51-.16-.9-1-.83-1.22-1.4-.73-1.37-.06-.8-.66-.76-.04-1.01.92-.36.47-1-.4-1.7-3.16-.86-.04-.72-.73-.74-1.54.45-.96-1.01-.74-.4-.93.26-.21-.93.38-1.55-.53-.45.11-1.66 1.24-1.47.73.32 1.37-.14.3-.41-.02-1.64-.34-1.46-1.16-1.85-1.18-1.16.38-.53-.13-1.05-.75-.75.1-1.44.33-1.16.88-1.41 1.08.42.7-.16-.6-1.47.52-2.28.57-.26-.42-2.63-1.86-.85-.98-1.85.83-2.24.03-.96.87-1.74 1.72-1.9 1.6-.03 1.04.22 1.85.02 1.04-.94.98.24.37-.33 1.73-.11 2.27.09.28-1.06-.15-1.96-.55-1.36.49-1.4 1.94.06 1.6.79 2.32.3.26-.7-.18-1.18.75.11.48-.59 1.15-.44 1.1.51.63.86 1.1.2.7-1.42-.4-.9.44-1.09 1.63-.55 2.34.78-.02.87 1.2.82.86 1.38.02.58-.94 1.05.1.49 1.91 1.76 1.78.65 2.84-.34 1.76-.78.21-.5 1.07-.5 1.4.05 1.6-.94 1.14-.12.82-.86.12-.73.79-.18 1.06.38 1.3-.08 3.21-1.15.42.79v1.14l-.97 1.12-.16 1.07.27.73-.19.86 1.22.4 2.26 1.1v.74l-1.08-.12-.4.72-.94.58-.6 1.5.29.79 1.72.8.58 1.04-.98.3-1.25 1.13-.5 1.45-1.52.33-.28.33.76 1.37 1.29.9.16 1.09-.48.43.42 1.3.22 1.64 1.1.7-1.06 2.5 1.26.2 1.9-.09.52-.23 1.36.86 1.4 1.66 1.38.28.58.8 2.15.88.53.9.38 1.88-.78.56-.43 1.78-1.64 1.18-.44 1.14.26 1.73-.58.83.68.83 2.29.3 2.3 2.09 2.54.02 1.05-.91.87-.14.52.33 1.2 2.93 1.3 1.48.8.65.77 1.08 1.52.67.17.45-.76.68.99.48 1.3 1.06 1.08.15 1.66 1.01 1.11 1.04 1.12.23 1.1.68 1.45.4.69.89.25.93-.83.84.62.67.47 1.04 1.2.4 2.06-.31 1.2 2.72.22 1-.58 1.3-.14 1.14-.47.77-.15 1.36-.54.7-.16 1.48.12 1.38.9.42.22 1.35.5.77.9.26.99.78.96 1.43-.08.45.93.88 1.28-.49.76.04.65-.56 1.04.11.28.77 1.04.32.88.95.9 1.41.97.13 1.04 1.4.76.4 2.48 3.12.84.09.7 1 1.3.35 2.27-.13.25.74 2.38 1.1.78-.12.26.57 1.7.19.34.65.96.81-.23.9-.73-.3-.9.19.13 3.01 1.53.78 1.61.2.3.98 1.43.77 1.7.48.61.49.9 1.36.63 2.2-.36 1.2 2.2 2.21.1.5-.87 1.5.45.88.51-.07.98.9.77.27 4.71.02h18.03l.32.34.84 2.23.23.97-.47.94-2.44 2.68-.87 1.1-1.95 1.27-1.34 1.74.04 1.37.72 1.98.09.84-.84 2.23-.55 1.02-1.63 1.43-3.2 1.33-.39.38-.58 3.74-1.03 2.29-.34.45-.28 1.78-.85 1.63-.33.25-.75 1.78-1.36.77-1.02-.2-1.16.16-2.28.64-1 .58-2.34.78-.65.4-2.27.66-.81-.06-1.73-1.42-1.3-.75-1.73-.31-1.56.46-2.37 1.2-3.8 1.59-2.08 1.8-1.02 1.73-.58 1.44-.34 1.9.22.81.68.8.45 1.21.9 1.21.7 2.66.1 1.1-.7 2.03-1.57 1.5-.44 1.05-.08 1.49-.84.57-1.22 2.93-.14 1.32.38.7-.2 2.24.4 2.22-.47.81-.16 1.33-.37.88-1.56 1.72-.75 2.67-1.81 1.18-1.57 1.44-.88 1.22-.16.77-1.13 2.66-.37 2.52-.25.5-.27 2.54-.6 2.04-.26 1.62-.19 2.56.24 1.32.62 1.59 5.07-.01-.02-.54.6-.67.86.22-.01 1.6.76.66.23 2.88h-1l-.44 2.06-2.28-.01.01 1.73-1.1.47.49.9 4.27 2.17 2.12.54 1.34-.12 1.07.33 2.05.21 2.92.95.53-.04 1.15.75 2.1.28.6-.15 1.9.15 1.4 1.22 2.6 3.28 1.1.2.81 1.44-.9 2.72.38.87-.06 1.14.23 1.56-.4 1.84-.1 2.52-.34.44-.24 2.38-21.06.06-2.7.13-13.88.04-1.1-1.49-1.07-.99-1.53-.2-1.1.15-1.1-1.34-1.52-1.36-.27-1.02-1.34-1.16-.68-.15-1.4-1.14-.58.3-.98-.42.09-.62-1.27-1.23-1.44-.06-.83-.42-.52-1.42-.67-1.06-.56-.11-.37.9.18 1.5.3.84-2.48.91-1.23 1-1.67-.8.23-.93-.15-1.03-.92-.95-.26-2.1-2.53-.67-1 .3-.24-.53-1.36-.61-1.03.61-.8.05-1.17-.32-.87.32-1.09-.44-.83.17-.65-.43-.95-1.1-.7-.18-1.1-.9-.28-.79-.93-.74h-1l-1.3-.68-.56-.67-.56-1.58.11-1.24-1.05-1.21h-1.63l-1.24-.74-1.5-.37-1.7.05-.6-.98-.86-.73-.12-1.07-.6-.58-.42-1.02-1.41.55-1.96-.77-1 1.07-.1.6-.77.62-1.4-.85-.94-.83-1.28 1-1.65-1.36-.86-1-.42.32-.88-.17-.85.3-1.23-.76-.79-.78.17-2.83-1-.89v-.85l-2.73-.77.07-1.01.64-1.01-1.06-.87-.44-1.17-1.3-.92-1.34-.4-.54-.5-1.5-2.24.46-1.2-.68-1.4-1.33-.5-.89-.06-1.21-.43-.3-.97-1.86-1.27h-1.05l-.7-.48-.9-1.42-1.25-1-.55-.03-.45-1.55-1.16-1.38-.3-.62.36-.87-.63-1.39.02-.64-.52-.8-1.14-.1-1.08-1.4-.63.3-.2.83-2.42-.78-.33.63-1.2-.62-2.72 1.01-.09 1.26.4.8-.32 1.04-1.26 1.61-.78-.67-.8.49-1.8.03-1.07-.72-1.51.8-.53.97-.04 1.87-.26 1.12-1.02.3.06 1.36-1.8 1.28-.81 1.07-1.99.09-.85 1.12-.89 2.87-1 1.14-.29 1.78-1.73 1.25-1.17.35-.85.8-.86-.5-1.18 2.09-2 .09-1.98 1.97.02.7-.8 1.04.47 1.23-.44.77-1.98.46-1 .77-.33.67-1.07-.78-1.15.07-1.83 1.43-.36.6-.21 1.32.1.78-.41.84-3.08 1.2-2.33-.28-2.54.07-1.93.25-3.14-.7-1.2-.87-1.34-.44-1.59-1.43-.53-.95-1.2-1.19-2.34-.81-.94.09-1.58-.37-2.71-2.05-.59-.27-2.36-.21-1.15.05-1.36-1.12-.46-1.81-.85-.86-3.88-1.83-1.04-.1-2.71-2.03-1.35.1-.38.34-1.28-.46-.84-1.1-.96-.59.02-1.76-.36-.7.33-.95h2.44l-.09-.83.7-1.06-.12-.55-1.02-.26-.82.38-.97-.86-.59-1.2.04-1.55-1.85.02-.48-.7h-1.84l-.35-.72-.6.01-.7-.78-1.1.3-1.62-.25-.47-.42.92-1.97-1.34-.22-.43.7-1.03-.3-1.67.17-.01.61-1.3-.12-.58-.43-1.03-.1-1.4-1.08 1.32-.32.04-1.03-.96-.47-2.18-1.84-.67-1.51.12-1.3.43-1.84-.2-.79-.69-.58.78-1.08.72-.2.24 2.6.85-.01-.02-2.73.69.01V437l.56-.54.8-.18.47-1.33.1-1.13h1.51l.52-2.98.07-2.06-1.62-.9-2.07-.85-.88-.82-.45-2.37.79-1.48-.78-.33-.29-1.3v-1.94l.28-1.4-.36-.37-1.29-.17-1.27-1.26-.26 1.26h-.44v-1.26h-.72l-.43-.8 3.45-2.88.15-.72-.59-1.06-5.1.17.33-1.54-.42-.9.07-1.08-.48-2.7-1.29-1.23-.13-.48-1.18-.28-1.45-.7-1.34-1.12-.14-.6-3.37-3.21 1.06.08h4.08l-.02-2.86 2.74-.08.19-4.19 1.81.04 1.16-.26.36 1.68 2.48-.02.48-.76 1.7.06v-1.14l-.54-1.63 1.18-.8-.04-1.99-.5-.89-1.5-.45-.45-.62-1.3-.83-.97.72-1.17-.02-.26-1.86z"/>
    <path region="20" short-name="Legislative District 15" long-name="Legislative District 15" value="2" d="m545.37 630.21.6.68-.25.42.32 1.3 1.02 1.38v.72l.56.62 2.03.23 5.25 2.9.65.43.59 1.06.69-.68h1.74l-.42-.81-.95-.26-.03-2.7h.7l-.01-1.35-.7-.02.01-1.34h-1.35v-2.71l-1.34-.02-.02 1.37-1.54-.02.06-2.78-.02-6.63-3.82-.03.01-8.36.46-.54.48-1.6 1.13-1.18 1.81-.24.52-.43.54-1.22.57-.48 1.05-.1.84-.62.16-1.57 52.8.07.4-3.32 1.3-1.54 1.1-.85 1.03-1.3 1.85-4.03 20.53.14h.82l33.94.04 16.14-.04.1-13.66-.04-.7.03-7.49 11.21.01 5.57.06h12.93l7.3.08 12.3.08-.14 21.76-.09 5.43.01 5.45-12.32-.23-4.03-.02-.16 10.86-.04 6.21.1 10.17 2.76.02-.04 5.44.1 2.78-2.57-.02.01 2.7-2.7-.05.03 8.28-1.43-.4-6.67-.04-.17 13.82 2.6.03 16.89-.1-4.88 9.28-.18.47-1.1 4.52-.15 9.93.34 1.5 2.1.02-.1 1.39 2.7-.05-.1 4.1 1.32.43-.04.81 1.37.12-.04 2.96 1.4 1.5-.46-.38-1.26 1.12-.91.16-.82.56-3.19-1.34-.14-.33-3.13-1.17-.44 1.04-1.11-.57-2.84-.78.85-2.9h.8l.01-.67.7-.64-1.66-.14-1.63-.72-.69-.79 1.36-.19.06-4.97-6.66.02-.09-.34-1.3-.36-2.68-.02.04-.68-2.7-.02-.05 1.36h-1l-.1 2.02-1.97.01-.17-.57.17-1.8 1.76-3.62.3-1.42-.45-3.72-.42-1.95-.73-1.1-1.33.05-.8-1.13-.47-.22-.09 1.37-4.79-.07-9.02-2.92-1.08-.39-.78-.34-1.58-1.6-1.2.07-.03 3.77-1.76-.02-.96 1.07-.96.2-1.05.56-.37.8-.93 1.19-1.5.9-.66 1.1-.09.91-.04 3.96-1.71-.03v2.04h-1.02l.02-.71-1.4.13-.11 1.44-1.18.32-.54-.36h-2.9l-.14 2.33-.46.42-1.24.02-1.21.52-1 1.77-1.44.65-.76-.36-1.26.24-1.37-.96-.99-.13-.53.29-1.84.4.05-1.02-1.07.2-.72-.28-.73.23-.83-.3-2.23.46-1.77-.14-1.45.97-5.27-.32v1.4l-2.69.03v-4.1l-8.03.08.02 2.68 1.35.02-.02 1.35h-1.34l-.02 2.01h-1.35l-.01 4.73h-.45l-.02 3.54-1.21-.97-1.22-1.6-.74-.56-1.47-.6-1.6-.03-1.2-.98-1.34-.44-2.61-.2-1.67-1.33-1.49-.81-.84.03-.9 1.17-1.6-.37-1.32-1.03-.68-.12-2.32.37-.92.4-.52-.74-1.17-.29.28-1.17-1.02-.25-1.08.63-.52-1.17h-.71l-1.14-.6-.97.93-.51-.47.36-.82-1.09-1.1.27-.9.6.2.29 1.36.67-.54-.6-.57.3-.51 1.02-.03-.36-.7.26-1.23-.04-2.26-1.24-.76-1.24-1.53-.27 1.05-1.25-.42-.2-1-1.54-2.26-.96.49-.32-1.13-.6.72-1-.54-2.36-2.57-.75-.02-.78-.59-.63.43-.8-1.96-.91-.67-1.57-.68-.2-.59 1.2-.2.36-.46-.14-1.22-1.14.11-.02-1-.42-.7-.1-1.03-.93-1.09-.79.4-.73-.24-.07-.68-1.02-1.41-.78-.04-.38-.46-1.27.28-1.16-.4-1.32-1.47-.66-.18-.44.57-.84-.01-.5-.9-1.55-.86-.86.04-.55-1.18-1.69-.15-.22-.82-.63-.77.41-1.12.05-1.66-1.2-.4-1.71-1.53-1.28-1.65-1.7-.15-1.46-1.53-.38-1.2-.73-.64-.82.12-.25-.55-.9-.19-.08-.9-1.07-.94-1.21-.67-.74-1.84v-.66l-.47-1.05-2.01.32-.48-1 .65-1.6-.93-.22-.01-.65-1.35-.01v-.65l-1.45-.03 1.01-1.1-.1-.5-1.04-.14-.46-.5-2.04-.28-1.96.37-1.76-.12-.02-1.25 3.03-.01 1.08-1.3-1.3-.66v-.44l2.65.03V636l-1-.01-.34-.67v-2.7l-.19-1.15.94-.31-.4-1.24h-.34v-1.68l.75.32.46 1.4 1.91-.64 1.02.96z"/>
    <path region="21" short-name="Legislative District 24" long-name="Legislative District 24" value="2" d="m230.1 344.02 1.63-1.83 1.26.45.34.62-2.2 1.07zM109.88 563l.94-.22 1.58.34 1.3.79-.27.9h-.49l-1.42-.84-.65-.09zM32.4 429.52l1.34-1.08.1.5-.5.96zM18.22 293.37l1.18 1.73-.82.21zm206.96 148.94-1.81-.03-47.38-.12-1.28.1v.44h-16.46v16.45l.1 32.79-.02 2.77.03 13.34 1.82.06v5.7l.13 8.3-.03 2.73-.15 1.25.15 2.15.04 11.34.1 1.52 1.9.07 2.92-.13 5.3-.06 2.67.15h2.57l5.05-.25.06 5.2-.06 2.79.17 8.26h-2.82l.3 2.64-.02 1.48-3.54-2.83-1.73-1.23-.47-.65-2.4.13-1.84.72-1.6.02-2.04-.54-3.14-.14-1.41-.18-1 .25-1.9.91-5.27 1.88-2.18.2-1.9.53-1.4 1.43-.59 1.27-.6.01-.13-1.44-.74.01-.02-.66-3.87.04.4 1.03.11 2.31h-4.71l-2.54-.08-1.1-.74-2.2.37-1.25-.5-.92-1.27-1.88-1.44-2.01-.56-1.14-.09.02-2.45h-3.26l-.36.67-.67.24-1.9-.28-.56.22v.74l.4 1.81.74 1.31-.5.59.46.67-1.12.5-.44.5-.83.17-.44-.8-1.85-1.24-2.13-.42-1.74.17-1.13-.56h-2.99l-3.23.6-1.57-2.44-3.09.02-1.05.26-2.63-.92-.82-.78.08-.8 1.01-.8.62-1.13-.68-.74-.97-.3.15-1.01-1.2-2.88-.7-.08-1.56-.66-.8-.9-1.34-.83-.64.42-5.18-.28-2 .19-2.49 1.22-.96 1.1-.29 1.52.6 2.11.94 1.3.23.7-.3 2.03.23 3.26.69 1.78.55 2 .1.98 1.04.21.88-.6.82.56-.02 1.32-.48.32-2.2-1.14-1.06-.3-.74.61-1.35.62-.04.92-.82.49-1.95.4-.08-2.68.43-3.15.26-6.75-.56-13.47-.42-5-1.06-7.06.13-.88-.73-2.16-.78-5.1-1.68-8.3-3.5-13.01-.84-1.26-1.85-1.9-2.63-.44-1.06-3.54-.88-2.66-.85-1.7-.97-.75-1.52-.62-.03-.76-.57-1.5-.03-2.1-.74-4.05-.8-.93-.19-1.3.15-.76-.1-3.2-.26-.9-.02-2.99-.4-2 .09-.49-.39-4.21-1.02-7.13-.67-3.98-1-6.57-.7-3.24-.41-.82-.93-5.38-1.76-6.3-2.06-4.87-1.04-6.48-.63-2.5-.69-1.48L38 414.1l-.5-1.47-.7-.57-.7.28-.8-.68-1.34-2.73-.3-1.15-.1-1.67-.3-2.07-.67-1.64-1.05-1.07-1.11-.25-.78.27-.85-.83-.4-1-2.36-.38.19-1.48-.66-.63-.68-.04-.35-1.2-.67-.37-.13-1.8-.9-.86-.93.18-.83-1.5-1.06-.63-1.08-.14-.84 1.38-.7-.74-.11-.9-2.04-1.52-.6-.86.06-.86-.43-1.31-1.06-.76.33-2.16-.85-3.08-.83-1.5-1.23-.64-.03-1.49-.25-1.73-1.1-.19.13-.9-.41-.76.41-.63.07-1.13-.34-1.34-.57-.56-.22-1.6.29-1.63-.2-1.23-.43-.98.02-2.9-.41-2.53-.38-1.09-.68-.72.19-1.04-.55-.98.18-3.4.83-1.03.2-1.19-.54-.3-.07-1.53-.85-2.2-1.32-1.42.19-.84-1.2-2.12-.64-2.02-1.27-1.38-.2-.58.19-1.26.88-.47 1.33-1.66 1.31-.64 1.03-2.71.67-2.69.06-1.36-.26-.8-.82-.8-.03-.76-.87-1.5.78-.78v-.64l1.07-.59.86-.94.49-1.94v-2.28l-.7-1.95.7-1.97.58.48.9-.23.43-.57.49-2.14-.25-1.89.53-.9.12-1.17-1.42-1.97-.8-.27-1.45.76-1.06-1.07-.1-1.04-1.37-.93.11-.91-.92-1.34-1.69-.92-.49-.99-.12-.95.76-.93 1.14-.73 1.34.71 1.92-.78 1.24.07.7-.3.96.56 1.19-.47 3.03.52-.47.51 1.05 1.73.27.82.94.85 1.45.22 2.5-1.33 1.78.7.5.72 1.03-.32 2.37 2.75.95.71 1.71.17 1.9 1.11 1.24 1 .74.22.6.89.58-.04 3.66 2.58 1.4.61.27.7 1.06 1.06 1.01.12 1.78 1 2.35 2.32 1.88.78 1.3-.1 1.2-.45 1.35.7 1.5 1.53.96.2 4.13 1.28-.14 1.24.55.6 1.8.19.37.52 1.8.08 1-.55.78-1.41 1.57.44.86.78 1.15.32.64.66 3.21 1.34 2.17 1.38 1.04.45 3.36 1.8 1.35 1.3.56.18 1.11-.22 2.03.75-.54.85.19.66-.7 1.13.29.58 1.99.65.66.51 1.5.64 3.13 2.48 4.8 1.35.96-.32.9.06.16.65 2.08.75.95.08 3.5-.4 1.44 1.07 2.47.29 1.76-.22 1 .18.95-.28 1.84.43.7.76 1 .1 2.38-.31 1.1-.4.62-.6 1.44 1.08 1.06.14 1.16-.2 2.55.06 3.9-1.17 1.1.25.51-.77.64-.15.59 1.13.9.09 1.54-.9-.41-.8 3.06.72 1.67.21 3.8 1.66.73.72-.58.59.66.91.96.61 1.11.27.91-.22 2.83.78.93-.28 1.77-1.45.15-.72 2.22-.7 2.08 1.07 1.6 1.97 1.93.71 2.38-.12 1.95-.32 2.25-1 2-.51 1.85-.04 2.84.16.23.7-4.51-.34-1.22.64-2 .27.24.95 1.13.72 1.2.33 2.2 1.19 1.68.32.79-.13 1.32.54 1.8-.12.84.15 1.72-.34.9-.37 1.18.04.73.76.8.12 2.3-.14 3.37-1.4 1.03.71 1.44.24 1.86-.22.73.28 1.22-.47 2.8-1.72 3.28-3.18 3.46-4.23 2.5-1.92 1.28-.01 4.2-1.72.15.49-3.07 1.3-.97.18-.88 1.57-.37 1.8 1.37.83.85-.14 1.67.98.67 1.24 2.72 2.82 2.42 1.28.93 1.24 1.54 3.1.8 2.58-.69.28-.03 2.07.7 1.86-.76.88 1.08.8 1.45 2.44.86.85-.05.68.9 1.17.83.65.92.09.48-.92-.25-.5-.3-2-.33-.93-.95-1.7.8-1.79-.37-1.17-1.86-1.69v-1.03l1-.34 1.23-.9 3.16-1.03 4.25-.5.9.43 2.91.17-1.08 2.84-.5 2.48.17.59 1.02 1.26 2.17.78 1.36.82 2.1.61.53 1.56.4.07.49 1.61.45 2.65-.17 1.32-.71 1.08-2.45 1.54.27.98 1.01-.74.88.13 2.64-.66 1.24-1.02.25-.98.51-.51-.07-.92.5-1.44.39-2.7.02-1.93-.29-.42-2.64-1.14-.89-1.29-.12-.9-2.13-1.74-2-.63 1.21-1.7.25-.9-.18-1.4-.62-1.15.4-.62 2.17-1.55 2.12-2 1.31-1.83.61.4 2.78-.56 3.48-1.06 2.75.01 1.04-.3-.93 1.53.14 1.64 1.5 2.06-2.93 1.7-1.2.55-1.65 1.63-.92 1.75.32.58 1.38 1.23.47 1.8 1.3 1.6 1.14.53-.67.79v1.06l.7 1.4 1.43.87.68 1.12 1.1-.2.72-.72-.35-1.62-.67-1.13.29-.91.1-2.88-1.16-.56 1.2-1.7.72-1.96 1.92-1.18 2.75-1.1 1.17.36-.52.73-.17 1.02.23 1.96.7 1.7-.11 1.1.39 2.2-.14 1.25.25 1.21.66 1.26 1.07.88-.44 2.17.25.5-2.05 1.67h-.49l-.79-1.17-1.58-.9-.6-1.06-1.05-.18-1.15.94.37 1.34 1.19 3.1.08 1.97 2.22 2.74 2.23.22.57.82.33 1.76-.43 1.44-.65 1.36.03.85.5 1.53-.2 1.94-1.03-.24-1.16.75 1.28.18.85.52 1.23-.73 1.35-2.26.6-.08.21 1.28.63.65-.37.98.08 1.1-.22.96.97 1.13-.04.6 1.32 1.15 2.37-.06 1.1.56-.95.82-.24 1.04-1.15-.37-.67 2.11-.55.56-1.52.3-2-.5-3.58-.28.7 1.55.4 1.4.45.4.06 1.26-.8 2.43-.81.88-.97.15-1.22 1.55-.3.64-2.34.82-1.46-.02-.75 1.56.63 1.47-.7.96-.05 1.4.24 1.17-.48.56.1.88-.9 1.91.2 1.23-.34.97-.79.3-.88.9-.57 1-.89 2.31.33 1.61-.28 1.95 1.39 1.66v.61l-1.61.83-2.08.37-1.02.6-.58-.06-2.07-1.25-.43-.64.51-.48.28-.94-.07-1 .34-1.07 1.46-.9.15-.8-.34-1.17.88-1.23.06-.88-.4-1.14.14-.82 1.24-2.05v-.74l.54-1.62-.2-.48.96-3.38.21-2.52-1.09-1.21-.12-2.92-1.13-1.22-.42-1.57-.88.03-.51.45v1.98l-.58 1.12.76 2.04.54.67-.88 3.52-.73.79-1.81 1.1-1.5-.2.22-.94.15-2.24.43-.8-.7-.6-1.52-.09-.43 1.1-.06 1.48.22.46.06 2.18.36 1.64 1.74 1.49.17 1.7-.51 1.15.17 1.37-.75.45-.58-1.63-1.24.24-.3 2.52-1.16-.18-.21 3.37-.67 1.42 1.46 3-.34.74-2.06 1.3-.52 1.1-.66.48-.34 1.15.67.1-.24 1.06.53.94-.35 1.58-1.82-.12-.44-.7-1.69 1.06-.18 1.22-.73.39.06.79-1.64.88-.12.55-1.4 1-.78.9-1.16.2zM0 292.16l.97-.46.55.52-.21.73z"/>
    <path region="22" short-name="Legislative District 39" long-name="Legislative District 39" value="2" d="m323.74 243.47 14.77.1 12.8.03 3.79.14 5.7-.08 23.22.23 6.38.08 29.84.16 69.8.27v-3.11h19.99l.16.63-.9 1.77-1.12.04-.67.34-1.36 2.7-.76.68.75 2.16-.37 1.1.21 1.23 1.26 1.7 1.01.79.7 1.2.84.43 1.57.32 1.39-.66.8-1.28.23-1.4.43-.05.9.97.73.13 1.75 2.56.54.35.31 1.77-.25.69-1.59.76-.19 1.53-.85 1.79.15.96.7 1-.13.74-.82.86-1.14.12-1.6.94-1.4-.05-1.07.5-.21.5-1.76.78-2.84.34-1.78-.65-1.91-1.76-.1-.5.94-1.04-.02-.58-.85-1.38-1.21-.82.02-.87-2.34-.78-1.63.56-.44 1.08.4.9-.7 1.41-1.1-.19-.63-.86-1.1-.51-1.14.44-.49.6-.75-.12.18 1.18-.26.7-2.31-.3-1.61-.8-1.94-.04-.48 1.39.54 1.36.15 1.97-.28 1.05-2.27-.1-1.73.13-.37.32-.98-.24-1.04.94-1.85-.02-1.03-.22-1.61.03-1.72 1.9-.87 1.74-.03.96-.83 2.24.98 1.85 1.86.85.42 2.63-.57.26-.52 2.28.6 1.47-.7.16-1.08-.42-.88 1.41-.34 1.16-.1 1.44.76.75.13 1.05-.38.53 1.18 1.16 1.16 1.85.34 1.46.03 1.64-.31.41-1.37.14-.73-.32-1.24 1.47-.11 1.66.53.45-.38 1.55.21.93.93-.26.74.4.97 1 1.53-.44.73.74.04.72 3.17.86.4 1.7-.48 1-.92.36.04 1.01.66.75.06.81.73 1.37 1.21 1.4 1.01.83.16.9.88 1.51.16.66 1.7 1.45-.76 1.91.13 1.24 1.59.42.67 1.55 1.84.75.9 1.03.8.26-.16.6.41 1.44.87 1.18.4 2-1 .66-2.13-.37-.16.93-.65.33h-1.3l-.9.59-.06.82-1.08.9-.15.5.32 1.72.61.42.2 1.25.53 1.04.8.4-1.25 1.35-.97-.31-1.12.22.04.86-.72.56-.34 1.14-.87.25-.73.75-.74.32-.75 1.3-.83.44-.61.84-1.18-.65-1.4.26-.65.79-.94.47-2.04.01-.96.48-1.4 1.17-.9-.65-1.47.43-.46.94-1.38-.04-.76 1.34-1.1 1.1-2.9 1.05.75 1.96 2.32 1.84.1 1.14 1.34 1.44-.03 1.76-.84.64-.74 1.32-.69.76-.6-.13-.83.39-2.16-.89-1.37 1.29h-2.63v.8l-.96.2-1.18-.33-1.58-.02-.46.44-1.35 2.1-1.66.9-.52-.34-.41-1.7-.97-.87-.45-1.5-1.52-.13-1.45.9h-1.25l-1.24.9-1.37.26-.97 1.15-.82-.38-.47-.73-1.74.36-.78 1.33h-.66l-1.52.66-.83-.7-.65-.97-1.21-.85-.35-.76-.92-.46-1.3.38-.06.6-.65.36-.83-.2-.71 1.32-1.88-.66.02 3.48-11.96.02-18.12.04-.06.66-.87-.12-1.23.47-1.1 1.32.04 1.36-.47 1.14 1.14.28.16 1.82-.27.26.21 1.25-.98 1.42-.46.08-1.11 1.26-1.19.53.08 2.15-5.7-.95-2.53.03-.82.36-.04 1.1.34.62-1.7.38-.12-.94-1.2-.28-.25-1.25-.7-.38.18-1.18-2.02-.95.33-.57-2.4-.56-1.01-.04-.87-.6-1.45-1.5-.57-1.77-4.09.18-.08-2.74-1.37.1v-1.44l-1.14.01.21-1.1-.78-1.61-1.3-.24-.91-.98-3.92-.13-.2 2.96v2.59l-.01 2.36-2.26-.73-.82-.92-.03-.96-2.4.13.05-2.9.18-2.46-.47.43-.03-2.2-.83-.8-1.66.03-.62 1.03h-3.79l-.11 1.38h-.9v-1.36l-2.48-.03-.35 1.8-.59 1-1.28.66-1.77.46-.1.72-1.47.92-1.13-1.18-1.37-.06.69-2.21-.36-1.11.24-1.83.41-.54 3.27-1.4.78-.9.12-1-.4-1.9.08-1.14.75-1.13-.2-.76 1.83-.08.7.32.65-.32 1.93.05-.1-1.24-.1-4.87-1.09-.03-.01-.67-.74-.26-.02-.86-1.55-.28-.38-.45.11-2.1-.1-2.72-2.8-.1-.36-.31.25-1.35-.31-1.02-1.32-.12.1 1.38-.49-.01-.62-.73-.04-3.66h-.73l.12-1.26-1.8-3.6-.61-.6-.95-.07-.03-.71 2.43-.05v-1.41l.77-.03.4 3.49 3.28.06v-.36l4.07.07v-.35l2.73.02v.7h1.33l-.6-1.13-.13-1.2-.85-1.52h1.72l.4-.33-.57-1.18-.37-2.59-.02-1.01-.7.26-.48-1.7.92-.04-.58-.99-.14-.84-.7.3-.53 1.18-1.44-.9-.32-1.22.1-.94-.58-.3-1.84.82-.15.73-8.17.05-.5-1.96-.76-1.22-.92-.9-2.66-3.73-2.53-4-5.22-6.7-.96-1.12-1.5-3.69-.33-2.47.06-6.43.54-1.37h.67l4.36.05v-2.8l3.55.03v-.88l-.67-.01-.02-1.92.37-.93.86-.56.21-1.01-.43-.64h-.82l-.96-.76-1.1-.33.28-.7h-1.09l-.82-1.05-.02-1.04-1.16-.69-.28.7h-.64l-.02-1.39.69-.02-.03-4.15h.66l.05-1.03 2.9-1.61-.73-.06.02-2.82-6.25-.03v-1.45h-.44l-.29-2.56.3-3.35.84-2.94-.39-1.77 1.3-2.34.19-1.03-.25-1.96-1.87-4.12-.65-.94-1.06-2.32-.44-1.76 3.76-.06 7.36.03 1.36-.09z"/>
    <path region="23" short-name="Legislative District 2" long-name="Legislative District 2" value="2" d="m260.7 543.15.4.73-.33.53 1.71 1.42-.42.77.96.33 1.07 1.55.23 1.14-.51.83-.05.86.94.85-.24.85.36.8 1.64 1 .66.83 1.83.68.14.6 1-.02-.15 1.92-.66.93-.1 1.13 1.07 1.05 1.35.24.88.56.07-1.78 1.26.1.67.4 1.46-.05.86-.3.11 1.02.48 1.13.6-.9 1.28-3.24-.03-2.86 1.4-.3.4-.76 1.2-.08.92.26 4.48-5.08.2.19 4.87.02 1.47.18 1 .44 1.75 1.18 2.02.5 4.46-.02-.6-1.56.03-1.84-1.33-.02-.79-1.36h1.31l.45-.29v-1.07l-2.5-.04-.5-.54-.01-4.32-.4-.58-1.26-.02.3-.73.03-2 2.75.04v-4.09l1.59.03 2.18 1.4.27.02.09 3.38.49.63.22 1.08.49.98 1.33-.08.1-.57h1.36v-.62l1.52.04-.16.6h2.7l.04-2.74 2.72.01-.02 1.22 1.4.88 1.85.36 1.9-.45v-1.08l-.48-.77-.48-2.14.61-.3v-.96l.94-.02-.5-1.15.81-.33 1.34 2.28 1 .41 1.95 1.83.1.83-.73.85 1.1 1.26h1.24l1.05-.44.9.49.4.75 1.18.35 1.3-.82.69.47 1.88.75 2.49 1.42 3.7-.43 1.23.44.18 1.32-.58 2.14.55 1.3.54.38.1 2.49 2.39-.05.57 1.82 1.82 1.1 1.03.42 1 1.44 1.4.88 3.2 1.45 1.92.5 1.82-.59 2.36-1.24 1.65-.28 2.3-.07 4.25.1 16.02-.02v16.61h29.55l-.64 1.15-.97.87-.49 1.05.13 1.15-.9 1.05-.36 1.2 1.01.34.98 1.15 1.3.36.23 1.49 1.3 2.6.15 1.25 1.21.54.58.93-.54 1.12 1.74 1.58.74 1.85 1.6 1.69-.77.2-.68.7-.18.81-38.78.04-2.24 1.3-1.45 1.27-.37 1.05-1.13.6-.76.9.26.6-.84.95-.95.1-1.09 1.74-.5.51-.44 1.05-1.1.21-3.77-.32-1.2-.46-1.09-.05-1.58-.88-1.36.13-.93-.51-.68.18-.8-.31-1.03-1.44-.97-.46-.77-.77-1.18.13-.24.71-.98.35-.3.47-1.34.27-.38-.43-1.56-.77-.35-.46-.72.13-.55.8-.65.2-.82.9-.6-.24-1.62.2-1.16-.76-1.85-.04-2.23-1-1.22.05-3.09.55-1.66-1.06-.83.39-.46-.4-2.32.18-.93-.69-.53.36-1.17.06-1.9-1.32-.94.29-1-.9-.43-.86-.58.27-.88-.25-.48.24-.52-.65-.7-.12-.58-.56-.92.16-.28.62-1.4.08-.08 1-1.03-.16-1.04-1.52-.89.23-1.06-1.26-.47-.96-1.5-.66-.52-1.27.8-1.93-3.08.08-13.94-.13-.62-.21v-5.27l-5.37-.05.13-1.83-.38-.9-2.92-1.98-1.53-1.17-2.6-1.6-.86.04.02-.84.56-1.24-6 .06-.06 2.73-6.59-.03.02-4.06h.7l.02-1.92-.4-.84-.58.02-.4.72-2.72.76.02-.8-2.02-.01v.68l-.7.68h-.67l.02-1.4h.67l.13-1.98 1.76-.03.26-1.34v-2.75l-2.7.04-.01-2.73h-5.34l-.03-1.76.56-.08.45-.76 1.37-.36-.3-1.14-.08-2.05-1.4.08-2.94-.26-.37.21v-3.4l-1.33-.05-.3-1.15.26-1.06-.79-.86-.63-2.58-.87-.57-.37-.79v-2.46l.36-1.03 1.68-.32.68.34v.7l3.44-1-2.28-.04.18-.47 3.3-.68 2.56-.12z"/>
    <path region="24" short-name="Legislative District 17" long-name="Legislative District 17" value="2" d="m285.98 802.27-.01-3.94-.66-.01v-1.34h-.67v-9.87l1.46-.14.1-1.2-.89-.12v-.67l1.32-.03v-2.66h1.84l-.01-3.97-.01-1.31h6.69l5.33.2 2.48-.12v-1.4l-1.39-1.86-.15-1.43-1.14-1.92-1.2-2.67.57-.65-.14-1.2h-.66l.08-1.22-.25-1.02-1.75-1.05-.26-.8-.65-.37-.09-1.32.78-1.22.61-.48 1.79-.93 2.8-.92 1.19-.85 2.1-.74 1.23-1.21.32-1.04-.55-.6.2-1.06-.59-.4-.03-.94.96-.2 1.38-1 1.06-2.04-.12-1.21.89-.49.46-1.09-.99-.94-.32-.63.06-1.34-.49-.43.37-.57 1.02-.02.48-.8-.19-.84.45-1.33.74-.14 1.43-1.54.03-2.07 1.41-.4.74-1.12 1.08-.4 1.28.34 1.7.72-.02-13.68-.09-13.36.16-1.98.44-.06.1-18.61.1-8.05.12-5.47-.19-.08 16.18-.12-.02-.33 10.52.09 5.4-.03v-.12h59.72v63.62l-11.49-.02-.04 26.69.01 5.22.5.01.02 5.09-.1 11.01 11.73.1-.3.75-1.1.1-.3.59-.94.58.16 1.89.5.28 1.28 2.18-.27.58.44 2.21-.28 1.29-1.2-.3-12.52 4-4.76-.07-4.98 1.87-3.54.15-9.73-2.33-7.14 2.46-4.43 4.13.13 1.6-.95 1.38-3.43 1.87-2.13-.14-.5.25-1 1.97-2.49 1.82-2.64 1.26-2.4.14-2.8 1.03-7.31 4.75-1.37.38-3.63-.56-5.48 1.24-2.3 2.47-6.04 3-2.26.7-3.6.06-4.68-.86-2.72-3.86-3.51-1.19-1.47.25-1.2.63-1.22.64-3.57.73-1.94-.68-2.66-2-2.24-.91-4.02-1.16-3.35-1.37-.4-2.84-.6-1.04.37-.47 2.84.43-.25-.84 1.1-.1.23-.85h-.71l-.12-2.65.67-2.16 1.09-.3.07-1 1.32.23z"/>
    <path region="25" short-name="Legislative District 31" long-name="Legislative District 31" value="2" d="m307.56 506.91.26 1.32.46.04.94-1.35 2.64.3 1.55 1.08 7.88-.06-.07-1.73.73-.46.94-1.03 1.14-.05v-1.73h-.68v-3.53l1.34-.34 1.36.7 1.53.1.4-.49 1.1.42 5.76.02.84-.32 1.92.5 1.97-.27.65.66.04 7.59.1 1.36-2.75.02.01 1.37 7.24.04.95 1.13v1.55l9.54.02-.01 1.35 2.1.04.01-1.37 7.4.1h5.52l-.01-5.45 15.86.1.13-16.34.38.37 7.98.2.57-.03 24.05.1v-.81l2.21-.03h.76l1.06 1.82-.17.82-.54.2-.51 1.26.2.8-.84 1.3.08.5 1.45.58.02 2.06.68.96 1.06.4v-.66l2 .37 1.24-.04 1.15.67.78-.22.7.25.79-1.1.85-.02-.01.88.83.46 1.63.48.69 3.9.48.32-.27.9-.46.3-.25 1-.72.08-.83.77-.97.29.14 1.26-.93 1.42.07.43 2.41 1.1 1.4-.09 1.32.61.94.72 1.08 1.76-.32.62.66 1.26.02.95-1.46 2.77.56 1.36.94.7 1.05 2.47-.47.76-.24 1.1-1.56.96-.64-.27-1.83.49-.39-.44-1.49-.47-.55-.57-1.38-.23-1.12.7-1 .15-.93.7-.69.14-.11.77-.62.51-1.07 1.48 1.06 3.07-.4.6 1.52 1.2.97-.55.85 1.2-.83.73.56 1.72.45.44-.16 2.2.32.85-3.28 4.41.64 1.91-.17.72-1.29 1.36-.4 1.75.37.77-1.64 1.28-.2.62-.79.1-2.4 1.46.5 1.22-1.68 1.67-.42.8.65.66v1l.37.62-.24 1.32.36 1.3-.97 1.19.08.73-1.21.73-1.21 1.3-1.23.07-1.63 1.02H385.2v-16.61l-16.02.01-4.26-.09-2.29.07-1.65.27-2.36 1.25-1.82.59-1.92-.5-3.2-1.45-1.4-.88-1-1.44-1.02-.42-1.83-1.1-.57-1.82-2.4.05-.1-2.49-.53-.39-.55-1.29.59-2.14-.18-1.32-1.23-.44-3.71.43-2.5-1.42-1.87-.75-.68-.47-1.31.82-1.19-.35-.39-.75-.9-.49-1.04.43h-1.25l-1.1-1.25.73-.85-.1-.83-1.95-1.83-1-.41-1.34-2.28-.65-.66-.34-.97.46-.75.55-2.36.53-.6.08-1.04-1.2-.42.02-4.98h-1.55l.19-.9-.7-1.12-1.46-.78.77-.85-3.08-.66-4.7-1.91-1.13-.59.03-1.49-.45-1.28-.9-1.7-.61.28-.06-1.67h-.35l-.15-2.42z"/>
    <path region="26" short-name="Legislative District 16" long-name="Legislative District 16" value="2" d="m622.9 772.28.04-2.77.05-18.64.04-13.45.18-2.77.03-15.9-.14-12.58.02-3.54h.45l.01-4.73h1.35l.02-2.02 1.34.01.02-1.35-1.35-.02-.02-2.68 8.03-.07v4.1l2.68-.04v-1.4l5.28.32 1.45-.97 1.78.14 2.22-.46.84.3.72-.23.72.27 1.07-.18-.05 1 1.84-.4.53-.28.99.13 1.37.96 1.27-.24.76.36 1.43-.65 1-1.77 1.21-.52 1.24-.02.46-.42.14-2.33h2.9l.54.36 1.18-.32.1-1.44 1.41-.13-.02.71h1.01v-2.04l1.72.03.04-3.96.09-.92.66-1.1 1.5-.9.93-1.17.37-.8 1.05-.57.96-.2.96-1.07 1.76.02.04-3.77 1.2-.08 1.57 1.61.78.34.47 1.94 1.5 1 1.03.3.35.53 1.32 1.08 1.44.43.07.87 1.56 1.45-.23.5 1.03 1.07.63.1-.03.76.85.18-.03 1-.86.17-.25.97-.67.52.47.54 1.1.4-.64 1.3 1.25 1.45.6 1.54-1.51-.01-.04 2.43-.67.23v.67h-1.34v1.3l-.35.75 3-.03.65.7 1.3.67-.08 2.95-.7-.6-1.9-.36-1.98-.91-1.36.32.62 1.5-.09 1.1h.57l.63.92 1.26 1.1 1.3.59 1.42.24 3.6.04 2 .63.47.61 3.73 2.57-.5 1.06 1.71.22 2.19.06.37.4.79-.45.7-.01v1.36l7.42.14-.66-.71v-4.7h-2.34l-.34-.53-2.73-.46.06-2.9h-1.52v-1.2l1.39-.54-.04-.69 1.84.4 1.97.72 1.22.73.81-1.9 2.84.79 1.12.57.43-1.03 3.14 1.16.13.33 3.19 1.34.82-.56.91-.16 1.26-1.12.47.38 2.18-1.06.66-.56 1.4-.71 1.76-1.53.46-.22 2.8-.11 3.8-.68 4.9-1.27 1.86-.12.96-.36 1.29-1.35.3-1.12.67-.67 1.02-.6.64-1.65 1.12-.8 1.85-.72 1.02-.17 1.93.26.81-.14 1.18-.96.2-1.52-.99-1.77.07-.91 1.22-1 .49-.91.38-2.77 1.43-3 .48-.24 2.76-.08 2.04.31 1-.68.22-2.35.53-.95 2.13-.77.57-.52 1.18-2.67.72-.6 2.27-.92.46-.62-.05-1.47-.5-2.12.89-2.7-.1-1.17 1.65-3.72.08-.79-.3-1.84.1-1.2.56-1.77 2.4-2.99.56-.97 1.31-.97 2.13-.72.66-.79 1.12-2.45.45-.65 2.3-1.8.25-.38 1.73-.71 2.3-.75 1.54-1.8 1.08-1.85 1.1-.64 1.88.3 1.03.83 2.73 1.63 1.01.31 2.26.3 1-.03 1.35-1.35 2.23-1.88 5-1.64 1.71.07 2.82 2.14 1.09.32.6-.11 2.06-1.08.86-.29.87.08 2 1.37.07 6.13-1.71-.02-.1 1.1.12 15.77-.07 2.72.02 8.15-.03 21.45 7.29-.08h8.77l-.08 8.37.02 7.78 15.98.07-.11 14.77-.04 10.5-.07 1.3.14 4.07-.17 2.69.05 1.3-.3 1.26-.2 2.23-16.5.09-2.54-.08-10.59.05-6.97-.06-4.02.06-12.81-.03h-10.44l-17.97-.07-19.29.04-19.48.04-5.86.13-2.74 3.78-2.36 1.87-4.4 1.94-4.05 2.9-4.2 1.82-5.55.96-3.32-.04-3.86-.9-4.01-1.32-8.35 1.24-5.35 2.13-10.97.78-4.8 2.02-4.7-.42-6-3.1-3.7 1.09-2.91 2.56-5.94 8.95-13.16 2.07-3.8-.36z"/>
    <path region="27" short-name="Legislative District 41" long-name="Legislative District 41" value="2" d="m316.87 441.72.06-.63 2.16.78 1.73.47.62.38 1 1.46.03-2.52.32-.19 1.58.6.5-.41 1.67.02.58 1.3.9-.14 1.4 1.17.63-.13.42-.8 1.9.01-.01-.7 1.41-.2-.08-1.83 4.1.03 1.36 1.04.98-1.17 1.8.43.96.46.66-.74 1.13.46 1.4-.43 2.75-.03-.02.7 1.18.67.25 2.04 1.34.02v-.52l2.77.04.07 1.25.63 1.87-1.06.05-.37-.6h-.68l-.02 1.1-1.68-.82-.5 1.16-2.97-.16-.7.3.68.81-.16.97-.8-.04-.39.87-.3 2.47-2.91.08-.41.67-3.5-2.03-1.5.03-.02 2.66-1.12.06-.23 1.62-.72-.36-1.82.54.44 1.19-.2.3h-1.77l.67.69-.01 1.37-.69-.02-2.03-.43-.02.43-2.61.18-.72-.44-.05-.83-.68-.53.02-1.18-.36-.33-.07-1.2h-1.28l-.5 1.4-1.4 1.56-2.11 1.12-1.33-.9-.83-.97-.3-1.44.35-.98.7-.74.78-1.83-.14-1.86-.52-.98-.69-.69-1.27-.65-.48-.62-.21-2z"/>
    <path region="28" short-name="Legislative District 28" long-name="Legislative District 28" value="2" d="m268.77 528.57.61-2.74.6-.7.3 1.84-.2.82-1.11 1.36zm-6.65 9.03 1.03.8 1.05-.95.86-2.34 1.5-2.36.94-1.05.7-.44 1.14-.1.43-.63.85-.55 1.18-2.82.4-2.38 2.67-1.17 1.03-2.19.28-.94-.17-1.34.44-2.04 1.7-2.15.3-1 .18-1.76-.06-1.3.5-.28.3.85-.5.77 1.18.2.1-1.4 5.91-.04-.01 6.85-.42 1.36-1.61.02.68.67.16.68h.76l.02 1.6.43.51 1.36.27.47.53-.75 3.2 1.69-.09.5-.6 1.52.58.04 2.05-.22 1.46.4 1-.45.7-.01.87 1.41.66v3.14l1.13 1.32-.2.55 2.83.04.14 2.74 1.88.04 1.26.02.4.58v4.33l.5.53 2.52.04-.01 1.08-.45.27-1.3.01.78 1.36 1.33.02-.03 1.84.6 1.56-4.46.02-2.02-.5-1.75-1.18-1-.44-1.47-.18-4.86-.02-.21-.18-4.48 5.07-.92-.26-1.2.09-.4.74-1.4.31.03 2.87-1.28 3.23-.6.9-.48-1.13-.1-1.01-.87.3-1.46.04-.67-.4-1.26-.1-.07 1.78-.88-.56-1.35-.24-1.06-1.05.09-1.13.66-.93.15-1.92-1 .03-.14-.6-1.83-.69-.66-.83-1.64-1-.36-.8.24-.85-.94-.85.05-.86.51-.83-.23-1.14-1.07-1.55-.96-.33.42-.77-1.71-1.42.34-.53-.42-.72-.54-1.12.3-.96-.22-.48 1.32-.8.03-.88.5-.4zm-4.36-19.93.91-.67.39-1.1 1.21-1.51.34-1.15 1.63-.04.84-.23.68.23.49.95 1.1.51-.16 1.43.85.3.3-.96 1.4.69.89 2-.08.78-.68.67-1.22.7-2.61.47-1.92-.37-1.17-.9-1.71-.22-1.48-1.02zm-1.9 9.84 1.86-1.07-.34-1.17.76-1.78.8-.5 1.4-1.56 1.39-.3.4.88 1.4.58 1 1.23.05 4.66-.48.27.22 1.22-1.12.4-.53-.68-.82-.06-.27 1.52.5.94-.22.9-.98.37-1.22-.71-1.3-1.78-.97-.66-.46-1-1.22-1.03z"/>
    <path region="29" short-name="Legislative District 21" long-name="Legislative District 21" value="2" d="m313.42 376.66 2.19-.3.13 1.45-.28 1.07.57.6.84.07.43.75v2l.33-.07.02 2.94-.33.68.15.96 1.4-.24.55-.77 1.9-.74.15 2.2h.64l.53.7.11 2.19-.64.57v1.39l-.62.68.02 3.76.6.22.01 1.56-1.08-.72-.64.77-1.26-.28-.02 1.4-.64.17-.24 1.02-1.37-1.19-1.16-.82-.24-1.89-.87-.24-.79-.63-.99.71-1.7-.22-.67-.36-1.17 1.7-.2 1.03-.83 1.07-.79-.23.24 1.07.01 2.92 1.3.43-.78 1.64-3.13.02.01 1.38-1.36.34-1.24-1.12-.13-.64-.7-.66-1.52-.01.37-.84 1.35-1.18 3.6-5.08.86-.34.84-.82.51-1.06.12-1.72.7-1.54-.08-1.12-.43-.94.74-2.63-.1-.74.76-2.14.08-.75 1.43-2.3.13-.75-.18-1.45.52-2.37z"/>
    <path region="30" short-name="Legislative District 30" long-name="Legislative District 30" value="2" d="m309.09 487.98.9-.45.6.44v.67l.48.68 4.83.03.95.78h2.66l-.16 1.65-.64-.42-2.02.02-.68.69-.02 7.56 1.34-.08 1.02.28 2.48-.25 2.52.13v3.53h.68v1.73l-1.14.05-.94 1.03-.73.46.07 1.73-7.88.06-1.55-1.07-2.64-.31-.94 1.35-.46-.04-.26-1.32-10.33-10.5 1.92-.41.85-.82.66-.28.88.52.9-.38.35-1.03 1.3-.54 3.48-1.03 1.21-.8.33-.54z"/>
    <path region="31" short-name="Legislative District 33" long-name="Legislative District 33" value="2" d="M304.42 466.07h.8l.05-1 .63-.38 4.9-.03.15-1.37h1.8l.26 1.08-.37.26.32 1.6.63 1.47.11 1.39-.34 1.04h1.33l-.01.64h1.26l.8 1.6-.04 1.7-.58.63-.05.9-.84 1.15-.13.92 1.36.06.01-1.16.3-.63.85-.3.12-.52 1.12-.03.37-1.48 3.85.01-.39.79-.35 2.23.13 3.5.53.01.53.98.58.12.01 4.66-.42.32.75 1.65.65.06.34.69-.01 2.04-1.54-.02-.45-.56-3.93.04h-2.66l-.95-.78-4.83-.03-.48-.68v-.67l-.6-.44-.9.45-.03-1.65-.26-2.62.2-.72-.61-.91-.6-2.28-1.64-1.41-.4-1.35v-1.46l-.5-2.1-.69-.12-.84-.96-2.06-.55 1.38-1 .55-.64-.27-1.61.18-.95z"/>
    <path region="32" short-name="Legislative District 37" long-name="Legislative District 37" value="2" d="m308.75 442.76 1.39-.7v-.93l1.61-.98.62-.62.89.71.85-.14.56 1.3 2.2.32-.31 3.76.21 2 .48.62 1.27.65.69.7.52.97.14 1.86-.78 1.83-.7.74-.34.98.29 1.45.83.95 1.33.91 2.03 1.5.08 1.6-.4.88-.1 1.1-.57.86-.7-.01.1 1.13-1.35-.16-1.46.27-1.22-1.56-.02-.6-.81-.8.03-2.67-2.72-.1v-1.73l-.3-.97-.4-2.17-1.12-1.48-1.32-1.36-.7-1.37-.07-.79.34-3.37-.25-2.17-1-.16z"/>
    <path region="33" short-name="Legislative District 48" long-name="Legislative District 48" value="2" d="m320.02 432.44.96-.95.29-.93 1.05.13 1.54-1.37 1.58-.77-.03-1.05.38-.91 3.05.02.03-1.4h.7l-.02 1.66 1.9.38.52-.47 1.22-.02 1.24.57 2.36.01.75 1 1-1.18.65-.46 1.16.2.16 2.8-.4.36.37 1.4-.83.38-.62 1.41-.96 1.16 1.77 1.97.55 1.1.08 1.73-.34 1.06-.98 1.16-1.35-1.04-4.11-.03.08 1.84-1.41.2.01.69h-1.9l-.42.79-.63.13-1.4-1.17-.9.14-.58-1.3-1.68-.02-.49.4-1.58-.59-.32.19-.02 2.52-1.01-1.46-.62-.38-1.73-.47-2.16-.78.58-5.6.28-.86.75-1.16z"/>
    <path region="34" short-name="Legislative District 49" long-name="Legislative District 49" value="2" d="M253.4 787.96h2.3l-.03 3.9 1.11-.66.37 1.4.83 2.23 1.5 2.46.93 1.16.32.96 1.71 1.67 8.6-.01 2.05-2.61.67.85 1.12.6.87 1.14.82 1.97.9 1.5 1.92-1.22 3.18-1.05 3.41.02v2.1l-1.33-.22-.07 1-1.09.3-.67 2.16.12 2.65h.71l-.23.85-1.1.1.25.84-2.84-.43-.37.47.6 1.04.4 2.84-.04-.01-3.98-1.23-2.7-.68-5.28-.38-3.98-1.51-2.04-1.23-2.85-2.32-3.17-1.22-3.1-2.25-.18-.13-1.37-4.26.26-3.5 1.58-6.37z"/>
    <path region="35" short-name="Legislative District 25" long-name="Legislative District 25" value="2" d="m300.24 511.96.29.3 4.66 2.7 2.4 1.97 2.09.78-.03-2.52 1.13.59 4.7 1.9 3.08.67-.77.85 1.46.78.7 1.12-.19.9h1.55l-.02 4.98 1.2.42-.08 1.04-.53.6-.55 2.36-.46.75.34.97.65.66-.82.33.51 1.15-.94.02v.97l-.61.29.48 2.14.47.77.02 1.08-1.91.45-1.86-.36-1.39-.88.02-1.22-2.72-.01-.03 2.73h-2.7l.15-.6-1.52-.03v.62h-1.35l-.11.57-1.33.08-.49-.98-.22-1.08-.49-.63-.09-3.38-.27-.03-2.18-1.39-.65-.93-.95-.8-1.6-.83-1.77-.72.03-4.34 2.3.05.03-4.17.35-2.04z"/>
    <path region="36" short-name="Legislative District 29" long-name="Legislative District 29" value="2" d="M286.05 517.84h3.72l.4-1.56.61.16 4.14.06.25-.3-.01-2.81.72-.73 1.33-.79 2.18-.42.85.51-.02 8.65-.35 2.04-.03 4.17-2.3-.05-.03 4.34 1.77.72 1.6.84.95.79.65.93-1.6-.03.01 4.09-2.75-.04-.02 2-.31.73-1.88-.04-.14-2.74-2.83-.04.2-.55-1.13-1.32v-3.14l-1.41-.66.01-.88.44-.7-.39-.99.22-1.46-.04-2.05-1.52-.58-.5.6-1.7.1.76-3.21-.47-.53-1.36-.27-.43-.51-.02-1.6h-.76l-.16-.68-.68-.67 1.61-.02z"/>
    <path region="37" short-name="Legislative District 32" long-name="Legislative District 32" value="2" d="M300.16 404.99h1.52l.7.67.13.64 1.24 1.12 1.36-.34v-1.39h3.12l.78-1.65-1.3-.43-.01-2.92-.24-1.07.79.23.82-1.08.2-1.02 1.18-1.7.68.36 1.7.22.98-.71.79.62.87.25.24 1.89 1.16.82-.55 1-.32 1.33-.18 1.86-1.87.68.7 1.4v1.06l-.6.34-.09 2.76-1.37-.02.02 1.4-1.02-.01-.24 1.64.47.4.08 1.75.72.35-.24 2.07.78.1.09.6-5.34-.08v1.04h-1.38l.04 4.14-.69-.21-1.84-.26-1.96-.74.44-.62.02-1.15.4-1.26-.41-1.75-.8-1.79.3-2.03-.95-1.14-.86-1.46-.3-1.93.6-.58.1-1.33z"/>
    <path region="38" short-name="Legislative District 18" long-name="Legislative District 18" value="2" d="M288.46 778.32v3.98h-1.82v2.65l-1.33.03v.67l.88.12-.09 1.2-1.46.14v9.87h.66l.01 1.34.66.01.01 3.94-3.41-.02-3.18 1.05-1.92 1.23-.9-1.51-.82-1.97-.87-1.14-1.12-.6-.67-.85-2.06 2.6-8.59.02-1.71-1.67-.32-.96-.93-1.16-1.5-2.46-.83-2.23-.37-1.4 1.07-.03 1.19 1.09 1.38.25 1.21-.07.51.34.02-2.2 4.39-.04-2.28-10.54 1.82-.38.24-2.34 2.41-.02v-1.32l3.62-.07.6.61.99.24.04-2.14 5.3-.1.72.64.62.02.14 2.58.54.66 3.32-.01.04.64 2.63-.06z"/>
    <path region="39" short-name="Legislative District 3" long-name="Legislative District 3" value="2" d="m944.98 429.1.73-.01.84-.76.25-.98.7-.8.9.03.65-.68 1.4.02v.84h-.7l-.5 1.32-1.53.62v1.32l-2.75.8v4.65l-.04 3.79 1.21-.31-.1 1.5-1.04 1.36h-1.07l-.34 1.02-1.37-.37-3.44-.01.86 1.3-.55.51-.14.96-.79.86-1.48-.18-2.54.12v-.69h-.75v-.68l-1.2-.09 1.56-1.8.59-1.72-4.42-.1-.02-3.44-1.04.01.15-1.09.85-.56.1-4.77h-.61l-.94-1.37-.51-1.41.7-.26-.18-.99 1.22-.52-1.07-1.44-.04-4.16 1.16-.58-.17-1.42h1.77l.94-.16.8 1.3 1.03.48-.02 1.13 2.7.06v5.48h2.81l.02.72 1.3 1 1.29-.44 1.24.47z"/>
    <path region="40" short-name="Legislative District 46" long-name="Legislative District 46" value="2" d="m305.88 423.1.7.21-.05-4.14h1.38v-1.04l5.34.08h2.3l.32 2.53.36 1.2.87 1.86 1.44 2.03 2.22 1.68.4.73.1 2.32-.28.93-.96.95-3.85-1.17-.58-.64-.75.11-.92 1.2-.72.03-.36-1.26-.64-.12-.03 1.38-6.28-.03.36-.68v-4.17l-.34-.13z"/>
    <path region="41" short-name="Legislative District 8" long-name="Legislative District 8" value="2" d="m716.5 700.56-.81 1.9-1.23-.74-1.96-.71-1.84-.4.04.68-1.38.53-.02 1.2 1.53.01-.06 2.9 2.73.46.34.53h2.34v4.7l.66.7-7.43-.13.01-1.36-.7.01-.79.45-.37-.4-2.19-.06-1.7-.22.5-1.06-3.74-2.57-.46-.61-2.02-.63-3.6-.04-1.41-.24-1.3-.6-1.26-1.09-.63-.91h-.57l.1-1.11-.63-1.5 1.36-.32 1.97.91 1.9.36.7.6.09-2.95-1.3-.67-.65-.7-3 .03.35-.75v-1.3h1.33v-.67l.68-.23.04-2.43 1.5.01-.59-1.54-1.25-1.44.64-1.32-1.1-.39-.47-.54.67-.52.25-.97.86-.17.03-1-.85-.18.03-.77-.63-.09-1.03-1.06.23-.51-1.56-1.45-.07-.88-1.44-.43-1.33-1.07-.34-.53-1.03-.3-1.5-1-.47-1.94 1.08.39 9.02 2.92 4.8.07.08-1.37.47.22.8 1.13 1.33-.05.73 1.1.42 1.95.44 3.72-.29 1.42-1.76 3.62-.17 1.8.17.57h1.97l.1-2.03h1l.04-1.36 2.7.02-.03.68 2.67.02 1.31.36.09.34 6.66-.02-.06 4.97-1.36.19.7.79 1.62.72 1.65.14-.69.64-.02.67h-.8z"/>
    <path region="42" short-name="Legislative District 34" long-name="Legislative District 34" value="2" d="m306.7 442.3 1.13-.28.92.74-.18 2.25 1 .16.25 2.17-.34 3.37.07.79.7 1.37 1.32 1.36 1.12 1.48.4 2.17h-.87l-.05-.87-.55-.5-1.7-.02 1.14.95.59 2.47 1.1 3.38h-1.8l-.14 1.37-4.91.03-.63.38-.05 1h-.8l-.01-.78-.88-1.34-2.31-1.87-.94-1.4-.62-1.48.46-.5.17-.9-.92-.95.56-1.06-.35-1.96.14-.8-.51-1.37-.94-1.74-.02-.46-1.44-1.34 2.47-1.5 1.87-2.23.7.34.07.67.73.98 1.7.26.79-.66 1.66-.74.44-1.5zm-23.29 46.84.27-1.44.78-.4.2-1.63-1.47-2.82.13-1.2.6-1.63.94-1.28.19-1.75-.1-4.83.64-2.3.83-1.3.59-1.5 1.93-1.37.5-2.6.28-2.68 1.03.19 2.07 1.25-.8.99-.18 2.15 1.61 1.62.31.96 1.49 1.28-1.24 2.45.45.86.12 1.3-.16.8.44 1.42.83 1.24-.1.41-1.18.85.3.83v.98l1.31 1 4.12.54 2.74 1.99-.62.64-2.8.7-.5.57-1.74.7-.42.72-1.07.35-1.05.68-1.35 2-.72 2.2-.44.14-1.56-.38-.77-.46-.18-.76.33-1.52.49-1.27.51-.52.37-1.22.91.64.46-.15 1.36-2.3 1.19-.64-.76-1.22-.06-1.82-1.06.4-1.55.09-.76 1.2.73.34 1.03-.33.9 1.1-.81 1.2-1.73-.81-1.06.03-1.4 1.33-.46 2.83.04 1.48-.28 1.04-.2 3.12-.23.92-1.51-.08-.46-.38-1.32-.11-.58-.82-.6-1.49z"/>
    <path region="43" short-name="Legislative District 47" long-name="Legislative District 47" value="2" d="m319.5 490.13 3.94-.04.45.56 1.54.02v-2.04l-.33-.69-.65-.06-.75-1.65.42-.32v-4.66l-.02-2.86 1.34.01v.68h1.3v-.68h1.38l.03-2.72 2.7-.02.37-1.52 1 .18 3.48-.01.77 1.93.57.21 1.58 1.2 2.42-.25 2.4 1.78.96 1.44.32.8-.25 1.33-1.23 1.1 1.05.01.17 1.38-.8.66-.6-.02-.45.67.03 1.57.43 1.2-.16 1.6.85.31-.04.8-2.5-.18-.1-1.34-.58-.36-1 .85-.53.87-.7-.04-.73.7.27 2.59.46 1.04-.04 1.53 1.2 1.3.1 1.04-1.97.27-1.92-.5-.84.32-5.76-.02-1.1-.42-.4.5-1.53-.12-1.36-.68-1.34.33-2.52-.13-2.49.25-1.01-.28-1.34.08.02-7.56.68-.7h2.02l.64.42z"/>
    <path region="44" short-name="Legislative District 20" long-name="Legislative District 20" value="2" d="m224.27 589.8 3.44.03 2.78-1.85 6-1.96-.2-.65.47-.54 1.65.02.67-1.22 1.49-.18.03-.6h.82l.21-.75 1.13.03v.43l1.65.25.67.43 4.28-.27 2.19-.36 1.3-.88 2-.74 4.3-1.08.98-.42 1.35-1.1v-.9l-.69-.45.01-.68.71-.66h.68l.69-.7v-.67h2.02l-.02.81 2.72-.75.4-.73.57-.02.4.84-.01 1.91h-.7l-.02 4.07 6.6.03.05-2.73 6-.06-.56 1.24-.02.84.85-.04 2.6 1.6 1.54 1.17 2.93 1.98.37.9-.13 1.83 5.37.05v5.27l.63.21 13.93.13 3.08-.08-.8 1.93.52 1.27 1.5.66.47.96 1.07 1.26.88-.23 1.04 1.52 1.03.15.08-1 1.4-.07.28-.62.92-.16.58.56.7.12.52.65.48-.24.88.25.58-.26.43.86 1 .89.94-.3 1.9 1.33 1.17-.06.53-.36.93.69 2.32-.18.46.4.83-.39 1.66 1.06 3.1-.55 1.21-.05 2.23 1 1.85.04 1.16.77 1.62-.2.6.24.82-.92.65-.18.55-.81.72-.13.35.46 1.56.77.38.43 1.35-.27.3-.47.97-.35.24-.71 1.18-.13.78.77.96.47 1.03 1.43.8.3.68-.17.93.51 1.36-.12 1.58.87 1.1.05 1.2.46 3.76.32 1.1-.2.44-1.06.5-.51 1.09-1.74.95-.1.84-.95-.26-.6.77-.9 1.13-.6.36-1.05 1.45-1.26 2.24-1.3 38.78-.05.35 1.33.6.67.12 1 .47.02.6 1.2 1.68.7.19.95-.94 1.95.28.5 2.12.68.56 1.36 1.68.26 1.47-.3 1.85.43.7.59.65 1.16.02.85-1.35.62-.91.67-.56 1.14.73 1.17-.28 1.19-2.84-.3-1.27 1.4-.55.87.21 1.9-.63 1.15v1.41l.35.6 2.37.54-.36.75 1.11.57.37.5-.4 1.35.35 1.47-.36.77-1.4 1.07-.05.6-.85 1.16.68 1.35-.08 1.18-.36 1.03-.74.27-.4.81h-.59l-.68 1.21.4.9 1.12 1.21-.85.84-.19.53.54.57-.41.64-1.3 1.04-.5-.03-.79.62-1.39.4.05.6-.51 1.21-.13 2.01.42.52.28 1.29.72.48 1.85.47.87 1.05-.68.59-.84 1.36-.19.74.87 1.34.56 1.28 1.25.8.12 1.55.5.99.35 1.36.1 1.64.66.95.68.42 1.3 2.2-.55 1.05.12.65-.49 2.12-.36.33-6.27.04-.2.61-1.19-.72-3.85.1-4.55-.03v-.07H351.89v.12l-5.4.03-10.5-.1.02.35-16.19.1.2.1-.12 5.46-.1 8.05-.1 18.61-.45.06-.15 1.98.08 13.36.02 13.68-1.7-.72-1.28-.34-1.07.4-.75 1.11-1.4.41-.04 2.07-1.43 1.54-.74.15-.45 1.32.2.85-.49.8-1.01.01-.38.57.5.43-.07 1.34.32.63.99.94-.46 1.1-.89.48.12 1.2-1.06 2.04-1.38 1.02-.96.19.04.93.58.41-.2 1.06.56.6-.33 1.04-1.23 1.2-2.1.75-1.19.85-2.8.92-1.78.93-.62.48-.78 1.22.1 1.32.64.38.26.79 1.76 1.05.25 1.02-.09 1.23h.66l.14 1.2-.58.64 1.21 2.67 1.14 1.92.15 1.43 1.39 1.86v1.4l-2.48.12-5.33-.2h-6.7l.02 1.31-1.16.63-2.63.06-.04-.64h-3.32l-.54-.64-.14-2.59-.62-.02-.71-.65-5.31.11-.04 2.14-.99-.24-.6-.6-3.62.06v1.32l-2.4.03-.25 2.33-1.82.38 2.28 10.54-4.39.05-.02 2.2-.5-.35-1.22.07-1.38-.25-1.19-1.1-1.07.04-1.11.66.03-3.9h-2.3l-.06-1.61-1.03-3.92-3.33-5.4-.05-2.74 1.31-3.52.09-4.31-1.67-3.05-1.71-5.21.68-3.62-1-5.25-3.02-3.64-2.37-6.19-2.8-3.1-.81-5.33-2.51-4.32-3.37-1.74 2.17-.86.61.56 3.14 1.49.95.62h1.27l-.46-1.7.35-.95h1.28l-1.23-1.33v-1.33h-1.3l-.04-1.34h1.32l.08-3.35-1.38-.01-.37-.66.82-.43 1.37-.23.27-.37-1.93-2.53.05-1.44-.94.47-.88-.54-1.8-.27.13-.83.67-1.46.7-2.9.17-2.87.23-1.3.76-5.9.35-.42-.01-1.03-1.28-.67-1.14-2.7.44-.07-.16-1.94-.81.67-.92-2.57-.52-3.06.29-1.33.56-1.56.31-3.86-.22-2.8.95-5.24 1.37-2.3-.2-2.35.95-9.7.9-3.85v-9l.1-3.42h-1.45v-2.7l-2.01 1.7-1.34-.26v-.78h-.68v-1.26l-.45-.76 1.13-.5v-2.02l.68-.65-.56-.84-.11-1.07-1.14-1.27-3.55-4.3-.91-.72-.82 1.68-.58-.06-.02-2.33-.42-.67h-1.18l-.65-.34.22-1.4-.69.09-.02-1.18-.5-.15.31-.98-.47-.73.47-.45.71.23.07-1.26 1.8-.56.45-2-1.08-2.05-.69.06-.04.65-.88-.05-.3-.7-.93.7-.68.02-.66-.67.14-1.45-1.12-1.52-.03-.84-.45-.93.75-.05.01-1.58-.84-1.18-1.04-.04.13-1.2-.65-1.38h5.27l-.1-2.03-.82-.04-1.43-3.47.4-1.53 2.25-1.35z"/>
    <path region="45" short-name="Legislative District 27" long-name="Legislative District 27" value="2" d="m279.07 510.6.48.1.51-.72v-1.13l1-1.85 1.46-2.3.43-1.31.1-1.85-1.02-2.13-1.4-2.26.83-.47 1.02.43 1.74 1.64 1.52.45.1.5.99 1.5 1.61 1.73 1.92 1.59 1.35.35 1.01.57 1.15 1.07.49.89.91-.28.46-.94 1.06-.33.36-1.07.85-1.24-.25-.47.59-.67-.58-1.01-1.34-.68-1.06.1-1.55-.64.04-1.07 1.24-.27.6-2.29 1.54-.13 10.33 10.5h-.4l.15 2.41h.35l.06 1.68.61-.28.9 1.7.45 1.28-.03 1.5.03 2.51-2.09-.78-2.4-1.97-4.66-2.7-.29-.3-.85-.5-2.18.41-1.33.79-.72.73v2.81l-.24.3-4.14-.06-.6-.16-.41 1.56h-3.72l.01-6.85-5.9.05-.11 1.39-1.17-.2.48-.76z"/>
    <path region="46" short-name="Legislative District 36" long-name="Legislative District 36" value="2" d="m302.08 422.1 1.96.74 1.84.26.03 3.86.34.14v4.16l-.36.68h-.55l-.67.74-.16.84 1.76 1.2 1.12 1.37.02 2.48-.7.2v1.3l-2.3-.01-1.09-1.25-1.73-.22-.04-1.05-1 .36-1.58-.75-1.33-1.1-.46-.9.05-.75-.45-.86-1.08-1.13-.9-.53 1.45-.57 1.24-1.12.85-.21-.06-.85.74-2.5-.3-.69.35-.9 2.27-1.29.67-.86z"/>
    <path region="47" short-name="Legislative District 43" long-name="Legislative District 43" value="2" d="m305.9 431.94 6.27.03.03-1.38.64.12.36 1.26.72-.03.92-1.2.75-.1.58.63 3.85 1.17-1.48 1.03-.75 1.16-.28.87-.58 5.6-.06.62-2.2-.33-.56-1.3-.85.15-.89-.71-.62.62-1.61.98v.92l-1.4.71-.91-.74-1.12.28-.17-.45-2.12-1.8 2.3.01v-1.3l.7-.19-.03-2.48-1.11-1.36-1.76-1.21.15-.84.67-.74z"/>
    <path region="48" short-name="Legislative District 4" long-name="Legislative District 4" value="2" d="m944.61 366.9-.02-6.26.76-2.03 13.25.11 8.48.05 16.87.06-.1 15.1V398.2l.05 3.16v8.32l-.08 3.38.13 4.85v7.15l-.55-.22-1.34.4-.87.63-.69.96.04 6-4-.01-.07.68h-1.36l.01.7-1.37-.01-.01-1.4h-2.72v1.39h-.86l-.5.6-1.56-.6.18 1.38h-1.76l-.29.73.85.7-1.95-.06-.06.37-2.98-.03v1.03h-2.01v1.37l-1.27.03v1.5h-.7l-.3.7-.9.46-.17 1.18-.7-.75-2.23-1 .01-1.1.62-.4.08-2h.85l-1.11-2.75-1.35-2.47-1.16.08-1.02.42-.31 1.3-1.37-.03V436l-.86.36-1.87-.17-.01-.69-1.35-.03v-4.66l2.75-.79.01-1.32 1.53-.62.5-1.32h.7v-.84l-1.4-.02-.66.68-.9-.02-.69.79-.25.98-.84.76h-.73l.18-2.55h1.2l.1-2-1.25-.35-.3-2.4h-3.12l-.22-.68-.69-.01-.05-3.45 1.69.14-.14-1.02.69-1.14.26-1-.38-.77.7-.36.46-2.7-.8-.02.03-.68.7-1.44.87-4.83-.01-2.7-.83-2.12-.54-9.03.46-1.16.56-4.22v-2.57l-.16-.73.12-2.86-.28-1.5.39-1.71z"/>
  </g>
</svg>
