<svg country="usa" type="co_lower" date="2022" variant="blank" title="Colorado 2022 House of Representatives" auto-border-stroke-width="1" auto-border-stroke-width-limit=".5" original-source='["https://www2.census.gov/geo/tiger/GENZ2022/shp/cb_2022_us_sldl_500k.zip"]' candidates="[{&quot;id&quot;:&quot;0&quot;, &quot;name&quot;:&quot;Democrats&quot;, &quot;margins&quot;: [{ &quot;color&quot;: &quot;#1C408C&quot; }, { &quot;color&quot;: &quot;#577CCC&quot; }, { &quot;color&quot;: &quot;#8AAFFF&quot; }, { &quot;color&quot;: &quot;#949BB3&quot; }]},{&quot;id&quot;:&quot;1&quot;, &quot;name&quot;:&quot;Republicans&quot;, &quot;margins&quot;: [{ &quot;color&quot;: &quot;#BF1D29&quot; }, { &quot;color&quot;: &quot;#FF5865&quot; }, { &quot;color&quot;: &quot;#FF8B98&quot; }, { &quot;color&quot;: &quot;#CF8980&quot; }]}]" version="1.1" xmlns="http://www.w3.org/2000/svg" viewBox="0 0 1000 735.67">
  <g map-type="regions" transform="translate(0 -132.16)">
    <path region="0" short-name="13" long-name="State House District 13" value="1" d="m313.8 132.31 57.55.11 9.62.18 9.28.38 14.76.26 3.85.02-.68 1.45.76 2.13.04 1.05.38.37-.05 2.34.46.67-.73 1.75.57 2.25.77.46.92 1.27.62.37.13.84 1.32.78.05.69 1.52 1.12.55-.05 1.02.54.88 1.24-.1.5.54 1.5-.34 1.25-.34.32.78 1.31 1.13.72 1.5.47.6.75-.29.98 1.1.82-.38 1.16 1.22.51.68 1.4 1.64 1.04.72 1.05.93.14 1 .84 1.4 2.35.44 1.3-.07 1.1.81 1.15.64.04.78.75.06 1.53.68.4.09 1.88.46.54-.23.7 1 .36.18 1.16 1.14 1.7 1.38.84.81 1.12.36 1.1-.28.57.19 1.63 1.66 1.31.7 1.47-.2 1.04.5.57-.26.83.74 1.16.23 1.4.91.98.4.78-.12.73.4 1.5.77.87.06 1.2-.17 1.62.6 1.15-.28.85.7 1.42 1.7.55.3 1.15.05 1.56.92 3.6.89.34.59.8.14 1.44-.28 1.14.69 1.84.27 1.41-.4 1.72-.46.75.47 1.26.48.25.77-.77 2.44-.86 1.45.2.6.38.8 1 .7 1.23.68.24.03 1.68-.53.92.12 1.2 1.09.44 1.35.17 2.52 1.32 1.04.02.86.37-.3.53.63 1.28-.45 2.24.28.82-.86.94-.66 1.37.27 1.31-.4.38.27.94.6.4.41.82 1 .9 1.47 2.16.03 2.31.5 1.01.77.73-.02.6.78.79.55.96.5-.01.2.88 1.13.74.38.77 1.33.78.76-.33.87.5.13.67.78.63.12.81 1.1.61 1.18 1.21 1.63.23.57 1.13-.63 1.16 1.03.51 1.24 1.17-.3 1.07.66 1.15-.2.9.63.36.19 1.04-.42 1.07.94 1.1 1.48.07.4.52 1.3.68.3 1.16.59.96-1.7-.06-.17.8-.75 1.47.15.76-.42.42-.3 2.03-.26.56.1 1.73-.67.85-.34 1.12.01 1.63.99.58-.15.63.5 2.08-.45.81.51 1.53.91.33.77.98 1.03.14.56.46 1.3.38.03 1.04.76.44.02 1.42.56.58-.39.71.32.9-.49.85-.66.17-.28 2 .65.99-.38.62.13 1.02-.23 2.5-.82.36-.1.96-.69.5-.62 1.25.37.84 1.57 1.57-.2 1.25-1.99 2.8.13.53-1.18.47-.2.35-1.22-.07-1.12.43-1.68-.1-.18 2.1.07 1.4 1.05.63-.61 1.39.36 1.13-.5.73-.27 1.05.3 1.88-.16 1.14-.71.71.36.64-.2.93 1.47 1.38.57.18v.96l-.97 2.2-.4 1.61.18.55-.65 1.08-1.12 1.28.19 1.96-.34.37.55 1.35-.13.69.24 1.2.82 1.76-.45.77-.4 1.66-1 .41-1.43-.28-.51.51-.33 1.47-.57.4-.27 1.5-.9.55-.66 1.56-2.06.86-2.2 1.2-1.95-.78-.7-.63-1.3.09-.83-.25-.34.73-.8.24-.42 1.22-1.13.27-.64.82-1-.48-1.23.01-.78-.26-.97.08-.7-1.19-.62-.26-1.73.04-.47-.47-1.72.5v1.4l-.67.9.8 3.36.9 1.24-.6 1.2.33 1.35-.2 1.59-.81 1-1.5.52h-.68l-.83 1.5-.18 1-1.37 1-.45 1.2v.82l.65.94-.19 1.78-.81 1.4.1.7.9.65 1.32 1.32 1-.4.98-.04.41.97 1.3.44.75-1.22.85-.4 1.26-.26 1.14 2.1.35 1.26.8.9 1.02-.37.69.6 1.49.38.75-.3.53 1.66 3.5-.47 1.43 1.3v2.05l.93 1.28.06.84-1 1.18-1.27.42-.4.56-.85.3-1.1 1.82-1.42.47-1.2.12-.72.39-.97.95.25.77 1 .72 15.04-.1.35.03 13.92-.33 5.11-.22 20.39.41h6.55l.06 7.62.06 13.39v9.74l-.07 3.93.06 5.05-.07 4.52.08 1.92.2 9.36-.17 2.74.02 16.8-.02 5.34 9.62.02.13 25.07-.06 5.88.08 12.45.02 6.45.03 29.24-.1.06-24.02.01-4.74.22-24.3.23h-6.91l-17.8.07-1.91-.15-1.35.25-6.57.12-3.6-.08-.02-.16-7.53.04.02 5.27-9.46.04.58 2.53.3 1.95.53 1.58.2 1.5-.92 4.86-.04 1.12.62 3.75v.75l-.4 1.89.46 1.24v2.43l2 .08.35-.24 3.55-1.33 1.3.4 2.28-.2.66-.4 1.75.56h1.16v.62l.9.82.66 1.95.5.88 2.45 2.1h1.1l1.33.82-10.17 10.16-.99-.4-.24-1.04-1.6.17-1.8-.75-1.26.62-.92-.5-.53 1.21.61 1.03-1.62 2.64-.94 1.16-1.73.27-22.63-.09-.36-1.9.58-1.08-2.27-.58-.68.11-.88-1.28-.05-1.16-1.14.15-1.18-1.39-.23-2.1-1.78-.62-.9-2-.3-1.26-.98-.06-.25-.46-1.1.07-.37.65-.84-.53-.93-1.13-.75-1.75.62-.9.16-.75-.64-1.32-1.01-.84.07-1.06-.24-.6.26-1.36.98-1.62-.03-1.14.32-.63-1-1.52-.25-.83.3-.37-1.41-2.25.27-.65-.77-1.18.15-.8-.23-1.02-1.47-.98-.5.2-.9-.88.03-1.35.69-.85-1.4-.73-1.57.24-.07-1.1-.89-.35-1.32.5-.65-.34-1.2-1.22.16-.76-.45-1.88-.52-.58-.31-1 .03-1.07-.33-.8-.83-.39-.84-1.7.5-1.21.7-.79 1.68.1.91-.3.3-1.06-.04-.86.86-.88.1-1.47-.47-.93.29-.58-.28-1.74.7-1.02-.3-1.34-.3-.28.53-1.18.24-1.22-.4-1.56.54-.6-.25-1.5-.47-.28-.69-1.41 1.1-1.26-.17-1.57 1.32-1 1.34 1.13.9.07 1.09-.37.08-1.16.57-.73 1.26-.66.82-1.4-.05-1.23 1.12-.4 1.1.02.04-1.82 1.44-1.2.68-1.76.93-.18.12-.92.76-.97.07-.6-.55-1.29-.2-1.48-1.26-.12-.45.54-1.02.3-1.68-1.07-.64.1-.84 1-.85.06-.4-.54-.1-2.4-.49-.4-1.7 1.1-.24 1.2-1.16.3-.78-.76-.64-.16-.73-.96-.14-1.05-.52-.26-1.2.58-.98 1.83-.71-.12-1.66.51-.57.5-1.03-.06-1.03-1.02-1.23-.5-1.3-1.4-.1-.62-.8-.7-1.15-.61-.13-1.38-1.49-.79-.59-.97-.97-.26-.26-.82.95-1.61-.36-.45-.57-1.76-1.1-.5-1.52-1.4-.77-.44-.33-.97-.84.1-.82.81-1.22.18-.35.44-1.37-.41-1.24.26-.53-1.24.68-1.13-.07-3.05.46-.75-.38-.93-.73-.7.32-2.02 1.16-.14 1.2-.58.45-.82.1-1.87-.11-1.72-.27-.88.34-.35-.87-.64-.45-.88.03-1.16.83-1.49.53-.33h1.1l.7-.38-.14-1.46.97-1.14-.32-1.51-.6-.73.58-1 .26-1.1-.56-1.49.2-.69.58-.19.78-.87 1.88.66.42-.95 1.17.37.88.68 1.44-1.14.35-.58-.2-1.46.47-.77 1.01-.92.18-1.5.67-1.16-.17-2.17.14-1.59.59-1.65-1.29-1.33.2-1.43 1.18-1.07.42-.99.43-.24.1-1.03-.24-.84.12-1.34-.94-.09-.48-.82-.76-.31-.78-1 .2-2.46.39-.62 1.05-.47 1.05-1.57 1.27-.4.48 1.16.66.2.3-.73 1-.32.7.14.82-.81.84.25.4-.37 1.1.12.72-1.23-.35-2.03-.59-.58-.22-1.8.23-1.27 1-1.42.7-.35 1.91-1.83.43-.96.64-.38 1.28.3.8.52.77.07.35 1.24.89 1.05.16.57 1.1.26.07.37 1.55.65 1.78-.99.9.15 1.75-.2 1.18-.54 1.24.17 1.05.74.14.81 1.5.29.73-.18 1.24-1.06 1.01-.13.68-.6.94.54 1.07-.92.78-.29.8-1.34 1-.24.18-.99h2.69l-.54-.58 1.05-1.26.1-1.39-2.2-2.06-.16-.74-1.36-.43-.34-.77.13-.63-.38-.74.73-.34.63-.96-.74-1.19-.5-.22-1-1.92.1-.51-1-1.35-.92-.66.18-1.09-.19-.62.38-1.9.5-.89-.25-.35-1.74-.61.37-.93 1.14-.96.35-1.46-.28-.54-1.05-.78.18-1.6-.18-.68.74-1.16.4-1.1.62.07.95-.83.2.75.93 1.13.63 1.33 1.01-.15.68.19.3-.67-.2-.94.17-1.01.39-.55 1.31-.35v-1.45l-1-.06-.41-.63-.17-1.61-.74-.9.15-1.26.44-.88-.05-1.19.31-1.14.48-.83.75-.47 2.07.58 1.02-.85.37-1.17-.01-1.8-.18-1.43.14-.75-1.05-3.04-.76-.22-.74.4-1.11-.53-2.14-.1-.21-1.28-1.11.1-1.12-.2-.8-.91.17-2.47-.59-.11-2.2.2-.47-1.12-.55-.45.4-1.77-.2-.57-1.14-.63-.76.89-1.93-.84-.43-1.53-.62-1.53-2.55-1.22-.6-.83-.71-.3-.84-1.27-.62-1.74-.92-.65-.17-1.06-1.06.34-.46.8-1.62-.06-.74-.69-.52-1.03-.72-.16-.89-.76-.79-1.81.35-1.78-.82-.75-.3-.97-.69-.75-.09-1.43-.61-.68-.9-3.35-1.86-3 .28-.86-.5-1.41-.8-1.54-.18-2.12.84-.89-.2-.91.12-1.49-.3-1.2.05-1.36-.35-.69-.9-.56-.16-.5.83-1.23-7.38-.06H347.9l-1.15.09.07-13.98-.06-.35-1.5-.04v-32.95h.56l.12-30.35H343l.01-8.86.08-10.53.06-.85-.57-.08-.3-4-1.06.2-.25-1.05 1.55-1.78-.42-.9.86-.81-.42-.99.04-1.71-.46-.97-1.15-1.1-.71-.2-.17-1.07.54-1.04-.32-.63-.7-.41-.26-1.16-.7-.06-.2-.82-1.15-1.45.1-1.3-.96-2.17-.5-.54.53-1.02-.15-.48.7-1.12-.07-1.16-1.29-1.73-.26-1.73.74-1.75.96-1.3.75-.41.01-.7 1.18-1.97-1.01-.11-.62-1.48.9-.86-.21-1.8.88-.61-.86-1.03 2.03-1.45.62-1.18-.57-2.6.5-.34-.32-1.15.2-.64-.57-.8.61-.9-.61-1.18 1.6-1.82-.37-.77.25-.98-.78-1.66.59-.5.39-.94 1.37-.95.45-.84 1.76-1.77v-1.9l.2-2.22-.41-1.06-.66-.63-1.18-.51-1.02-.16-.71-.71-.09-1.37.4-1.12-.2-.46 1.17-.41-.44-1.45-1.4-1.24-.11-1-1.4-.52-.33-1.21-.84-1.19.04-.98-.95-.46-.95.54-.76 1.65-1.29.5-2.1.52-1.17-.35-.62.14-.18-.9-.66-.98.85-1.41-.39-.41-1.13-.39-1.44-.02-.84-.85-.21-1.03-1.75-.54-1.17 1.17-1.65.88-.7-.36-.05-1.63-.8-1.84-1-.42-.14-1.25-.51-.94-.83 1.13-1.12.12-1.65-.5-.51-.65.02-.76-.55-.23-.9-1.3.03-1.02-.26-1.21-.84-.57-.03-1.11-.33-.75-.1-1.47.37-1.3 1.17-.46.93-.05.05-.59.7-.67-1.58-1.16z"/>
    <path region="1" short-name="60" long-name="State House District 60" value="1" d="M531.42 481.08h.13l23.76-.02 18.4-.03.9 18.5-.04 1.72-.35 3.65.38 2.62v8.66l-1.98.05.02 1.33 1.87.1.07.93-.04 4.98-.13 5.31-5.39-.08-.28 3.3-.58 7.82.04 1.64 2.54-.01 3.62.26 1.91.04 2.98-.13h6.54l1.27.36.13 15.72-.11 2.6h-.36v8.42l-.04 5.04.08 9.97.06 8.79 1.22-.13h5.31l4.2.08 9.7-.03 11.42.08 10.44-.05v5.32l2.62-.01v15.85l-1.96.01.03-1.33-4.58-.01v.66l-1.94.05v-.68h-1.92l-.05.64h-2.58l.02.67-2.72-.03v1.34h1.36v1.31l-1.37-.01-.01 2.66-.62.03.02 1.33.65-.03v1.33l2.65-.01v2.64h-5.27v1.25l1.56.55-.03.85.33.82-.98 1.13-.14.5-1.71-.1-.22.94-.91-.35-1 .74-.05 1.42.33 1.95-3.98-.86-2.39-.09v-.87l-3.14.02-1.32-.58h-1.04l-.42-.4.29-1.24.44-.3 2.32-.08.02-5.3-.42-.44-.1-1.37-13.73-2.96-.24-.07.08 20.65-15.51.06.07 3.31.06 20.3-.34 2.52.04 3.26.03 17.33.04 15.28-1.9-.27-.37-.69-.03-.99.33-.54.02-1.04-.4-.64.05-1.02-1.17-.78-.5-.8-.94-.44-.52 1.23-1.58.65-1.34.28-1.24-1.03-.77-.01-.51-.43-.03-1.66-1-.42-.3-.76.64-.98-1.36-1.28.15-.87-.62-.59-.58.18-.65-.95-.1-1.57.75-.98-1.87-1.75-1.08-.55-1.46.44-1.26 1.07-.97.55-.78 1.21.42 1.53-.25.4-1.03.1.02 1.15-1.18.54-.33.88.16.88-1.1.31-.45.89-.45-.24-1.34.48.18.9-.6.68-1.17.62-1.08 2.22-.57.17-.32 1.5.28.58-.88 1.33-.82 1.92-.96 1.16-.65.33-.85-.81-.2-.86-.7-.13-.41-.56-.2-1.02.16-.9-.86-1.66-1.5-1.2-1.06.1-1.6.89-1.63 1.57-2.36.49-1.9 1.07-3.75 3.67-.75.25-.7.7-.73.15-1.3-.29-.59-.7-1.18-.4-1.72.31-.98-.27-1.69.35-1.11-.95-1.32-1.69-.43-.97-1.7-1.53-1.14-2.79-1.78-1.6-.5-.27-.89-1.03-1.34-.24-1.05.48-.24.6-1.21-.24-1.48-1.15-1-1.32-.89-.3-.16-.58.5-.87-.62-.8-.32-1.27-1.77-2.82-.58-.5.04-.67 1.03-.88-.12-1.16-.73-1.28-.06-.75-1.38-1.23-.68-1.66.03-1.09-1.1-.44-.24-2.1-1-.39-.33-1.1-1.25-1.24-1.5-1.8.03-.57-.84-.98.02-1.92.53-1.08-.71-.3-1.53-3.31-.41-1.6.45-.32.41-.93-.4-1.09-1.1-.25-.87-1.15-.9.2-1.03-.62-.26-.91-.87-1.39-1.1-.62-1.56-2.61-.9-.37-.49-1.42-.56-.13-.59-.78-.82.07-.84-.87-.01-1.08-.41-.66-.88-.4-.38-.54-2.23-1.06-.83-.86.05-1.42-.9-1.44-.61-1.78-2.7-.67-1.17-.9-.52-1.18-.91-.6-.77-.87-.58.52-.5-.75-1.16-.71-.47-.92-.74-.41-.74-.94-.27-.78-.77-1-.42-1.24-.93-1.25-.28-1.27-.99-1.58-1.23-.58-.56-.57-.32-.94-.84-.42-.2-.6-1.83-.6-1.71-1.48-.42-2.16-.44-.59-1.26-.6-.16-1.1-1.37-1.26-.45.1-1.55-1.86-.43.17-1.35-.28-.43-.6-.25-1.36-.7-.26-.9-1.38.3-1.17 10.15-10.16-1.33-.81h-1.09l-2.44-2.11-.5-.88-.66-1.95-.9-.82-.01-.61-1.16-.02-1.75-.56-.67.42-2.27.18-1.3-.4-3.55 1.34-.36.24-1.99-.08v-2.43l-.47-1.24.4-1.89.01-.75-.62-3.75.04-1.12.92-4.87-.2-1.49-.53-1.58-.3-1.95-.58-2.53 9.46-.04-.02-5.27 7.53-.04.02.16 3.6.08 6.57-.12 1.35-.25 1.9.15 17.8-.07h6.92l24.3-.23 4.74-.22h24.02l.1-.07-.03-29.24-.02-6.45-.08-12.45.06-5.88z"/>
    <path region="2" short-name="27" long-name="State House District 27" value="1" d="m554.82 336.16 2.7.03-2.64.63.02 3.64.01 3.35.2.4 2.17-.06-.62 1.4 1.45.1-.3 1.16.6.02.37.67 1.03.16.88-.15 1.26.24 1.02-.83 1.19-.05v.64l1.34.3 1.32-.06v-.89l2.44-.02 1.7.84-.06 2.24-1.16.68-.18 1-1.34.07-1.35.01-.28.4-1.06.04-.45-.5h-2.24l-.04-2.08-2.68-.01.06 1.74-1.04.36-1.65.1-.3.58-4.27-.02-1.85.07-.82.74v1.87l-.72-.64-1.53-.02-.21-.5-.89-.61v1.82l-.4 1.9 2.2.05.82-.37.05 1.24.75.63.61.02.73 1.9.58-.01.33-.68 1 .11.02 2.81 2.78-.19.33.1.13 1.21h.67l.58.66-.33 1.35-.79 1.34-2.04.02.64 1.09-.8.22.19.89-.54.78.57 1.22 1.56-.03-.05 2.53-5.19-.02-.37 1.4-.89.44-.33-.22-.91 1.2-1.48-.05-1.22-.4-1.28-.04-.76-.59-1.83-.53-1.08.12-2.07-.42-.9-.48-1.57-.23-2.22-.75-.7.12-2.09 2-.5.2-1.29-.43-1.1-1.1-1.09-.47-1.06-.02-1.03-.59-1.09.16-1-.2-1.27.02-.44-.24.06-5.32v-21.24l.04-4.24-.03-5.51 8.31-.17 4.66-.04 3.45.06 2.52-.1 9.14.04z"/>
    <path region="3" short-name="62" long-name="State House District 62" value="1" d="m400.83 610.23 22.63.1 1.73-.28.94-1.16 1.62-2.64-.6-1.03.52-1.2.92.5 1.26-.63 1.8.75 1.6-.17.24 1.05 1 .39-.3 1.17.9 1.38.7.26.25 1.36.43.6 1.35.28.43-.17 1.55 1.86.45-.1 1.37 1.26.16 1.1 1.26.6.44.59.42 2.16 1.71 1.49 1.82.6.2.59.85.42.32.94.56.57 1.24.58.98 1.58.28 1.27.93 1.25.42 1.25.77 1 .27.77.74.94.74.41.47.92 1.16.7.5.76.58-.52.77.86.91.61.52 1.18 1.16.9 2.7.67.63 1.78.89 1.44-.05 1.42.83.86 2.23 1.06.38.54.88.4.41.66v1.08l.85.87.82-.07.59.78.56.13.49 1.42.9.37 1.56 2.61 1.1.62.87 1.39.26.91 1.02.62.91-.2.86 1.15 1.1.25.42 1.1-.42.92-.45.33.4 1.59 1.54 3.3.7.31-.52 1.08-.02 1.92.84.98-.03.58 1.5 1.79 1.26 1.23.33 1.11.99.39.23 2.1 1.1.44-.02 1.09.68 1.66 1.38 1.23.06.75.74 1.28.11 1.16-1.03.88-.04.68.58.5 1.77 2.81.32 1.27.63.8-.5.87.15.58.9.3.99 1.32 1.48 1.15 1.2.24.25-.6 1.05-.48 1.34.24.88 1.03.51.27 1.78 1.6 1.14 2.79 1.7 1.53.43.97 1.32 1.7 1.11.94 1.69-.35.98.27 1.72-.32 1.18.41.6.7 1.3.3.72-.16.7-.7.75-.25 3.75-3.67 1.9-1.07 2.36-.49 1.64-1.57 1.6-.9 1.05-.1 1.5 1.21.86 1.66-.16.9.2 1.02.4.56.72.13.2.86.84.8.65-.32.96-1.16.82-1.92.88-1.33-.28-.57.32-1.51.57-.17 1.08-2.22 1.17-.62.6-.68-.18-.9 1.34-.48.45.24.45-.89 1.1-.3-.16-.89.33-.88 1.18-.54-.02-1.16 1.03-.09.25-.4-.42-1.53.78-1.21.97-.55 1.26-1.07 1.46-.44 1.08.55 1.87 1.75-.75.98.1 1.57.65.95.58-.18.62.59-.15.87 1.36 1.28-.65.98.31.76 1 .42.03 1.66.5.43h.79l1.23 1.04 1.34-.28 1.58-.65.52-1.23.93.44.51.8 1.17.78-.06 1.02.41.64-.02 1.04-.33.54.03 1 .37.68 1.9.27 1.43 1.33.17.66 1.01.05-.46 1.73 1.86 1.28.85.36.3.76 9.67-.68 16.67-1.1v-2.77l.17-1.19 2.19-1.02.63-.88 2.26.06.01-2.48.44-1 1.75-1.16-.14-.4 1.73-.89.24-.58.7-.46-.3-1.15.1-.9-.12-1.87-.22-.52.71-.66-.08-.47 1.9-1.94.55-1.26-.02-.69 1.85-1.4-1.3-.11.83-1.36.36-2.73.3-.7 1.56-2.27 1.55-3.34 4.02-5.52.72-1.53.33-2.03 1.93-3.2 1.9-2.65.92-1.72.21-.79.1-2.65-.78.4-3.2.03-.05-4.78-.43-1.28.4-.7-.01-1.28h1.4v-.67l.75-.44v-.9l3.12-.04v-1.15l.9.16.72-.75.72.02-1.07-1.25 2.54-.79-.28-1.46-.43-1.16.24-1.5 1.13.26.85-.35 1.77-.02v.6l3.3 2.4-.89.33v.52l-.95.34-.02 1.08-.91.58-.62.77-.52.15.03 2.77-.73-.35-.6.5-.03.56 2.41 1.45.2 2.45-.19 2.16-1.63 2.15-.8.42-.13 1.56-1.78 1.11-.64.03-.32.89-.9 1-.04.6-.64 2.4-.85 1.44-1.22 3.44-.14 1.8.94 3.66.05.6v6.25l.18.84 1.13 3.03 1.12 1.46.28 4.14-.03.45-1.07 3.74-.05.96.36 2.04-.03 1.38-.88 3.76-.35.65-.96.61-.7.06-1.8-.27-.88.32-1.32 1.03-.45.8.18 1.98-.7.93-4.7 3.08-1.46 1.55-.98 2.12-2.03 1.73-2.26 4.49-.5.03-23.84-.27-2.74 6.66-4.6 7.92-.38.58-2.8.93-1.02-.1-1.55 1.44.06 5.81h-2.67l-2.06 1.08-1.87.61-1.77.17-.81.54-.9.06-1.92.66-1.22.65-.72-.42-1.32.88-1.66.23-2.28 1.43-.72-.5-1.04.56-.74.1-1.32.92.54 1.01.78-.74.99-.23-.48 1.14-1.04.8-.75 1.22-.67.4-1.06 1.73-.47.18.83 1.45-.59.15-1 1.11-.1 1.04.31.38.13 1.6-1.5-.41-.28.65-1.8 1.5 1.86 1.48.52.04 1.16 1.28.23.82 1.12 1.17.8 1.71-.64-.02-.01 1.48.75.73.19 1.43.69 1.45.03.87-.4.71-.02 1.22.25.6-.73 1.44.45.75-.85 1.49.54.55.45 2.6-.27.87 1.83.27.9-.42.58 1 .37 1.5.39.38.05.9.8 1.46.05 1.76.48.9 1.06.69-.42 1.01-.84.52-2.52.27-.91 1.6-.6.34.22 1.3-.51.99.44 1.04-.45 1.49.28.6.16 1.94.25.38-.55 1.47.7 1.45-.52.93.18 1.24-.21.54.5 2.48-.28.84.11 1.1.95-.68.53-.04-.12 53.23-9.33.03-4.38-.08-23.94-.04-3.98-.03-25.68.06-5.3-.04h-7.66l-39.57.08-14.8.12-14.45.11-6.73-.03-6.35.08-7.1-.06-18.97.06-1.83-3.78-14.26-22.35-1.17-9.8-11.54-6v-31.36l-4.62-.11v1.43l-22.85.46-.63-.06-24.76.3-11.3-.01v-14.57l.44-22.8.27-4.4-.02-9-3.03-.1.63-13.41.1-1.3.38-12.9-.18-6.7.06-1.64v-11.53l1.22.18 1.09-.55 1.6-.45.66-.68.31-1.2 1.33.8.89-.2.4-.53 1.4-.1.53-.26.6-1.07.9.28.72 1.35.6-.15 1.07.68h1.22l.8-.67 1.08-.13.77.86 1.22.45.31-.48.17-1.36.71.12-.15-14.6.07-21.2.08-41.78v-7.54l7.52.06h10.93z"/>
    <path region="4" short-name="49" long-name="State House District 49" value="1" d="m408.86 133.26 18.44.12 41.4.02h6.52l44.47-.17 19.35-.07h3.15l44.37.01.04 21.35-.06 7.7.02 19.54-6.55-.03-4.2.04-5.43-.06-2.73.03-6.21-.07-7.28-.02-.32 6.05-.37 3.6-.46 2.12-1.54 1.02-.18.69.28.9 2.19 2.98.25 1.44.62.76-.08 1.54-.49.49-.04 2-.3.87.29 1.3 1.36 2.7-.08.59.54 1.36.16 2.1.42 1.16.7.95-.08 1.78.2 1.55.42 1.13.77.78-.37.2-1.07 2.44.25 1.45-.13.93.04 3.66 1.33.74.43 1-.55 3.46-.52 1.48.09.64-.71 3.13.22 1.65-1.04 1.12.2.8-.04 1.55-.8.32-.49.8-.09 3.36.68.65 3.4.07v1.36l5.38.03-.01 2.67-7.54-.01v5.6h5.4v2.73l.68-.03.01 2.06.71.66.01 5.45 6.75-.08-.01 10.85-2.7.07-2.72.02-1.3-1.35.06 1.33-1.95.02.01-1.35h-.83l-.03 1.35-8.04-.03-.08 13.53-.67.63v2.01l-.96.19-1.15.9-1.26.58v1.12l-6-.02-.1-.67h-3.96l-.64.86-.03 3.88-.35 1.03.38 1.63-.01 5.7h-.5v2.2l.33 1.5-.6-.03.04.9-.6.27.32.9-.2.75h3.82l1.04 1.86.75.59 2.09 2.87.12-2.66.55.11 1.6.94 1.93 1.14 3.52 1.79 1 .93-.52.32.18 1.33h.85l.86.36-.04 3.69-1.31.67.01 1.35h1.33l-.05.7-4.94.01-9.14-.03-2.52.09-3.45-.06-4.66.04-8.3.17.02 5.51-.04 4.24v21.24l-.06 5.32-.02 5.7.04 9.2-.1 5.6v7.45l-6.55.01-20.39-.4-5.1.21-13.93.33-.35-.02-15.05.1-.99-.73-.25-.77.97-.95.72-.4 1.2-.11 1.43-.47 1.09-1.82.86-.3.39-.56 1.27-.42 1-1.18-.06-.84-.94-1.27V389l-1.43-1.31-3.49.47-.53-1.67-.75.3-1.49-.37-.7-.6-1 .38-.81-.91-.35-1.26-1.14-2.1-1.26.25-.85.41-.75 1.22-1.3-.44-.4-.97-.99.05-1 .4-1.31-1.33-.9-.66-.11-.68.81-1.41.19-1.78-.66-.94.01-.82.45-1.2 1.37-1 .18-1 .83-1.5h.68l1.5-.51.81-1.01.2-1.6-.32-1.34.58-1.2-.89-1.24-.8-3.35.66-.91.01-1.4 1.72-.5.47.47 1.73-.04.62.26.7 1.2.97-.09.78.26 1.22-.01 1 .48.65-.82 1.13-.27.43-1.22.8-.24.33-.73.83.25 1.3-.1.7.64 1.96.77 2.2-1.2 2.05-.85.67-1.56.89-.55.27-1.5.57-.4.33-1.47.51-.5 1.44.27.99-.4.4-1.67.45-.77-.82-1.76-.24-1.2.13-.7-.55-1.34.34-.37-.2-1.96 1.13-1.28.65-1.08-.18-.55.4-1.6.97-2.2v-.97l-.57-.18-1.47-1.38.2-.93-.36-.64.7-.7.18-1.15-.3-1.88.27-1.05.5-.73-.37-1.13.61-1.39-1.05-.63-.07-1.4.18-2.1 1.68.1 1.12-.43 1.22.07.2-.35 1.18-.47-.13-.54 2-2.79.2-1.25-1.58-1.57-.37-.84.62-1.26.7-.5.1-.95.8-.36.24-2.5-.13-1.02.38-.62-.65-1 .28-2 .66-.16.49-.84-.32-.9.39-.72-.56-.58-.02-1.42-.76-.44-.03-1.04-1.3-.38-.56-.46-1.03-.14-.77-.98-.9-.33-.52-1.53.46-.81-.51-2.08.15-.63-.99-.58-.01-1.63.34-1.12.67-.85-.1-1.73.26-.56.3-2.03.42-.42-.15-.76.75-1.48.18-.79 1.69.06-.6-.96-.3-1.16-1.28-.68-.41-.52-1.48-.07-.94-1.1.42-1.07-.19-1.04-.63-.36.2-.9-.66-1.15.3-1.07-1.24-1.16-1.03-.52.63-1.16-.57-1.13-1.63-.23-1.19-1.2-1.09-.62-.12-.8-.78-.64-.13-.67-.87-.5-.76.33-1.33-.78-.38-.77-1.13-.74-.2-.88h-.5l-.55-.95-.78-.79.02-.6-.78-.73-.5-1-.02-2.32-1.48-2.16-.99-.9-.4-.83-.6-.39-.28-.93.4-.39-.27-1.3.66-1.38.86-.94-.28-.82.45-2.24-.63-1.28.3-.53-.86-.37-1.04-.02-2.52-1.32-1.35-.17-1.09-.44-.12-1.2.53-.92-.03-1.68-.68-.24-.7-1.24-.8-.98-.6-.39-1.45-.2-2.44.86-.77.77-.48-.25-.47-1.26.47-.75.4-1.72-.28-1.41-.69-1.84.28-1.14-.14-1.43-.6-.81-.88-.34-.92-3.6-.06-1.56-.3-1.15-1.68-.54-.7-1.43.26-.85-.59-1.15.17-1.63-.06-1.18-.76-.88-.4-1.5.12-.73-.4-.78-.92-.98-.23-1.4-.74-1.16.26-.83-.5-.56.2-1.05-.7-1.47-1.66-1.3-.2-1.64.3-.58-.37-1.09-.8-1.12-1.4-.84-1.13-1.7-.18-1.16-1-.35.23-.7-.46-.55-.09-1.87-.68-.4-.06-1.54-.78-.75-.64-.04-.81-1.14.07-1.1-.44-1.31-1.4-2.35-1-.84-.93-.14-.72-1.05-1.64-1.04-.68-1.4-1.22-.51.39-1.16-1.11-.82.29-.98-.6-.75-1.5-.47-1.13-.72-.78-1.31.34-.32.34-1.25-.54-1.5.1-.5-.88-1.24-1.02-.54-.55.05-1.52-1.12-.05-.7-1.32-.77-.13-.84-.62-.37-.92-1.27-.77-.46-.57-2.25.73-1.75-.46-.67.05-2.34-.38-.37-.04-1.05-.76-2.13z"/>
    <path region="5" short-name="64" long-name="State House District 64" value="1" d="m564.62 255.02 13.52.05 13.69.03-.19-.7.1-12.86 4.63.05-.01 1.35h.63v-1.31l1.38-.04.4-2.99-.06-.57 1.02.03.43-.56.92-.06-.07-3.38.67.66 2.99-.12.62.24.04 1.08 5.44-.12.01-2.69h-.68v-1.36h1.38v-1.34h.68v1.35l1.38-.02.66.35v1h.68l.02 2.04 1.38.23-.06 5.93.02 3.07 2.73-.01v2.7l-5.75-.03v1.35h-4.01l-.11 1.36-2.6.02-.02 1.34h2.7l-.06 3.37.2 2.33-.15 1.2-.21.56-1.13-.2-.84.24-.6 1.23-.67.7-.85.26-.43.54.28 1.06-.67.36-2.03 2.74-.87.07-1.1 1.52-.37.85-.12 1.16.48.74-.04 4.38-1.84-.05-.12-.6v-2.8l-1.32-.66.12-1.38-2.13-.05.02 2.7-2.69-.05.02 10.8-.25.06-5-.07-2.7.04-.01 2.7h-1.36l.02 1.21h-.88l-.42.46v1.09l-.55-.05-1.24.6-.99-.58-2.8.06.09-.24.04-5.18-5.38.04V271.4l-6.74.08-.01-5.45-.71-.66-.01-2.06-.67.03v-2.72h-5.42l.01-5.61z"/>
    <path region="6" short-name="26" long-name="State House District 26" value="1" d="m1.45 132.69 23.64.1h36.05l14.88.1 3.7-.1h35.63l9.89-.06 19.19-.3h18.25l32.35-.02h9.37l36.78-.18 18 .05 17.82-.06 16.45-.06 20.35.15-.55 1.1 1.58 1.17-.7.67-.05.6-.93.04-1.17.47-.38 1.29.1 1.47.34.75.03 1.11.84.57.26 1.21-.04 1.01.9 1.31.56.22-.02.77.51.65 1.65.5 1.12-.12.83-1.13.5.93.14 1.26 1.02.41.79 1.85.05 1.63.7.35 1.65-.87 1.17-1.17 1.75.54.2 1.03.85.84 1.44.03 1.13.39.39.4-.85 1.42.66.98.18.9.62-.14 1.17.35 2.1-.52 1.3-.5.75-1.65.95-.54.95.46-.04.98.84 1.19.33 1.21 1.4.51.1 1.01 1.4 1.24.45 1.45-1.17.41.2.46-.4 1.12.09 1.37.7.7 1.03.17 1.18.5.66.64.41 1.06-.2 2.22v1.9l-1.76 1.77-.45.84-1.37.95-.4.95-.58.5.78 1.65-.25.98.37.77-1.6 1.82.61 1.19-.6.9.56.79-.2.64.33 1.15-.51.34.57 2.6-.62 1.18-2.03 1.45.86 1.03-.88.6.2 1.8-.9.87.63 1.48 1 .1-1.17 1.98-.01.7-.75.4-.96 1.3-.74 1.76.26 1.73 1.3 1.73.07 1.16-.7 1.12.14.48-.52 1.02.49.54.95 2.18-.1 1.3 1.16 1.44.2.82.7.06.25 1.16.71.41.32.63-.54 1.04.17 1.07.7.2 1.16 1.1.46.97-.04 1.71.42.99-.86.81.42.9-1.55 1.78.25 1.04 1.06-.2.3 4 .57.09-.06.85-.08 10.53-.01 8.86h2.93l-.12 30.35h-.55v32.95l1.49.04.06.35-.07 13.98 1.15-.09h18.84l7.38.06-.83 1.23.16.5.9.56.35.69-.05 1.35.3 1.21-.12 1.49.2.91-.84.9.18 2.11.8 1.54.5 1.4-.28.86 1.85 3.01.91 3.35.61.68.09 1.43.7.75.3.97.81.74-.35 1.79.8 1.8.88.77.72.15.52 1.04.74.69 1.62.06.46-.8 1.06-.34.17 1.06.92.65.62 1.74.84 1.28.7.28.61.84 2.55 1.22.62 1.53.43 1.53 1.93.84.76-.9 1.14.64.2.57-.4 1.77.55.45.48 1.12 2.2-.2.58.11-.16 2.47.79.91 1.12.2 1.1-.1.22 1.28 2.14.1 1.1.54.75-.41.76.22 1.05 3.04-.14.75.18 1.43.01 1.8-.37 1.17-1.02.84-2.07-.57-.75.47-.48.83-.31 1.14.05 1.19-.44.88-.15 1.26.74.9.17 1.6.41.64 1 .06v1.45l-1.31.35-.4.55-.15 1 .2.95-.31.67-.68-.2-1.01.16-.63-1.33-.94-1.13-.19-.75-.95.82-.62-.05-.4 1.08-.74 1.17.18.68-.18 1.6 1.05.77.28.55-.35 1.46-1.14.96-.37.93 1.74.61.25.35-.5.89-.38 1.9.19.62-.18 1.09.93.65 1 1.35-.12.52 1 1.92.5.22.75 1.19-.63.96-.73.34.38.74-.13.63.34.77 1.36.43.16.74 2.2 2.06-.1 1.39-1.05 1.26.54.58h-2.7l-.18 1-1 .23-.8 1.34-.77.3-1.07.91-.94-.53-.68.6-1.01.12-1.24 1.06-.74.18-1.5-.29-.13-.81-1.05-.74-1.24-.17-1.18.53-1.75.21-.9-.15-1.78 1-1.55-.66-.08-.37-1.1-.26-.15-.57-.9-1.05-.34-1.24-.77-.07-.8-.53-1.28-.29-.64.38-.43.96-1.92 1.83-.7.35-8.95.01-2.83-.09-.92-1.04-.07-.73-.59-1.56-.38-.25-.12-2.25-2.75-1.46.08-1.15-.26-1.01-.77-1.16-.93-.48-.68-1.35-4.43-2.42-3.74-.04.08 4.44-1.63-.09h-4.07l.48-.98-.41-.63-.8-.53-1-1.46-.52.06-1.66-.5-.3 1.67-2.56.78-.61-.63-.34.92-.88.57-.95-.4-.72.66-1.32-.29-.5.72-.53.1-.65-.53-.81.12-1.4-.36-.36.72-.77.37-1.41-.16-.66-.4-.52-.95-1.44-.28-.75-.4-.65-1.55-1.19-.71v-1.1l-1 .64-.38.6 1.36 1.72.14.66-1.29.87-2 .27-2.3-1.33-.04-.87-1.02.05-1.26-.35-.53-1.08-.85-.1-1.46.63-2-1.77-.14-1.06-.8-1.5-1.13-.83-1.02.08-.38-.86-2.04-.98-.98-1.21-1.19.03-.4-.34-1.3-.02-.57-.75-.18-1.42-1 .88-.92.1-.4-.45-1.37-.54-1.22-.85-.28-.7-.79-.61-1.95-.5-.62-.42-.86.07-.27-2.89 1.05-1.16-.05-1.71.52-1.45.24-2.47-.06-1.74-1.75-1.94-1.29-1-.62-1.47-.8-.74-1.1-.14-1.39-1.03-.78.03-.7-.7-1.68-.15.22-1.26-.15-.92.47-.42.25-1 .43-.44 1.72-.9 1.05-.93 1.73.89 1.07-.2 1.37-1.17.13.72.77.28.66-.32.71.34.84-.31.44-.9-1.8-.05-1.1-.59-1.53-.08-.32-.5-1.18-.02-.59-.5-.08-1.01.6-.52-.02-.58-1.08-.63-1.08.15-.96-.47-.96-.9-1.63-1.12-.8.07-.04-43.5 11.36.03.25-3.86-.06-4.47h.12l-.04-7.29-.76-.03v-16.46l-39.84.14-.01 16.2h-.3l.06 16.5-16.08-.51-.02 16.59-16.06.05-4.83-.12-16.5-.25-13.25.93-12.6.02h-8.96l-.03 21.03.03 3.16h-8.85l-1.81-.14-2.76.12-26.38-.1v.23l-33.16-.05-14.83.09.01 8.05-42.36-.03-.9-.15-2.49.17-2.85-.03v-1.87H1.31l.06-39.76-.03-34.2-.02-30.51v-41.44l.1-9.5-.06-.91.09-7.58.29-14.8-.03-6.44-.12-11.46.1-20.98z"/>
    <path region="7" short-name="48" long-name="State House District 48" value="1" d="M589.58 320.13h5.16l-.05-11.45h1.43v-.66l1.25-.29-.04-2.44h-2.64l-.03-2.74-2.67-.02v-5.39l.1-6.76 2.66.05v-8.21l-2.94-.05.25-.05-.02-10.81 2.69.04-.02-2.69 2.13.05-.12 1.38 1.32.66v2.8l.12.6 1.84.05.04-4.38-.47-.74.1-1.16.38-.85 1.1-1.52.87-.07 2.03-2.74.68-.36-.29-1.06.43-.54.86-.26.67-.7.6-1.23.84-.24 1.12.2.2-.56 3.15-1.3 1.2.05.02 3.94h2.7l.08-6.81 2.64-.02 1.35-1.36 1.44-.56.9.02 1.75-1.48.02-2.02h1.33l-.14-1.7 2.48-.08.36-.97h-1.88l-.15-1.34-1.36-.34-.01-1.01.35-.34v-1.4l.97.36 3.6-.16 1.84.17.7-.69-.05-2.63-.61-.01v-1.36l-.53-.68 6.5-.01.03 4.05-1.01.43.96.67.95.17 1.26.57.7 1.12-.16 1.08.03 2.5h1.58l.78.21.9.7.12.58-2.04.05v.61h-1.33l.02 6.06-.06.23-.1 8-5.26.05-.08 13.49-.03 13.6 2.63-.04v-1.36l2.65-.02-.01 1.42 2.67-.01.02 2.2-.5.41-6.2.03v1.36l1.3-.01.03 1.36h13.64l2.6-2.7h1.36l.88-1.01 1.74 3.62.09 2.79h3.97l.01 8.23-.06 13.35-10.7.02-15.98.02h-13.57l-.04 5.2 2.7.04.05 8.12-7.88-.03-.01 2.7-5.34-.02-.05-1.34h-2.65l-.02-1.34-1.2.15-1.49 1.8v.73h-1.42l-.83 1.04-2.59 1.69-.54-.02-.01-2.7h-3.42l-.24.35h-1.42l-1.5-.35.14-.53 1.17-1.46-.05-.7v-1.1l.66-.12 1.17-1.45h-1.85l-.01-1.34-2.68.17.01-1.5 1.33-.01v-1.33l1.35-.02-.02-4.06-5.34.04z"/>
    <path region="8" short-name="2" long-name="State House District 2" value="1" d="M580.28 370.47h3.88v.65h5.33l.07 2.67-2.62.02v10.75h-2.04l-.64-.68v-.9l-1.32.2v-1l-.67-.34h-2.01l.02-5.35z"/>
    <path region="9" short-name="45" long-name="State House District 45" value="1" d="m607.56 420.81.78 1.26 2.11.09 1.07-.9.46.9.75.01.18-4.66 1.48.66.46-.2 1.42 1.26.62-.24 1.62.95.11.79 1.92.13.63.22.71 1.8-.88.64h-4.36l-.34 1.24-1.02.05-.57.59-2.04-.58-.14 3.95.29 1.45-1.04.02.59 1.25.16 1.42-.03 3.34-.76 1.3-1.7.4-.25 1.2-.72.44-1.22 1.35h-1l-1.01-1.34h-1.3l-1.01.4-1.58-.03-.98-.88-.35 1.22h-1.32l.01 1.33h2.86l.95 2.09.12 2.6-7.1-.02.3-.66.68-2.96-.98-.14-2.08 7.45-2.32.01-1.7.25-.67-.62-.05-1.65.15-3.28-.14-1.07.04-2.82-3.3.13v-1.34h-.63l-.11-1.77-.54-1.08.71-1.6.39-1.73-.65-3.39v-.75l-.38-1.53-1.44-2.25.58-.46 1.15-.01.7.42 1.23.02.1-.51 2.02.62 1 .1 2 .72 1.6-1.38 1.07-1.47.92-.79.22-.66 1.65 1-.58.58-.02.59.6.4.35.8.67-.64 2 .03.66.68v2l1.3-.26 1.06-1.54.4-1.05 1.26-1.62.28-.68z"/>
    <path region="10" short-name="12" long-name="State House District 12" value="1" d="m553.05 295.84 1.37.02.33.81.95-.49.63.37.8-.02 1.35-.77.24-.53h1.11v.62l-.07 5.4.04 10.51 2.68-.63 1.38.2-.04 6.8h.75l.12-.67 3.17-.04v2.7l3.1.02v4.2l-.7.56v1.12l.7.5v1.5l-2.72-.01v1.44l-.66-.07-.01 1.34-2.06.01.03 1.34-2.62-.01-.6.8-.74-.21.02-1.9 1.3-.03.01-1.36-1.6.02-.2-.67h-.86l-.02 2.7-1.34-.02v2h-1.35l-.02 2.8-2.7-.03.05-.7h-1.33l-.02-1.35 1.32-.67.04-3.7-.86-.35h-.85l-.18-1.33.53-.33-1-.92-3.53-1.79-1.92-1.14 1.1.38.04-5.4-.08-1.02.93-.4v-1.1l-.67-.53v-1.02l-2.01-.04-.09-.79 1.08-1.2-2.18-.04-.52.97-.91-.7 1.26-2.3h1.34v-.7l1.36.03v-1.33l1.72-.02.25-1.35.9-.64h1.1v.64h1.37l.02-.67-2.21-.03.82-.61.03-2.64.6-.75h-3.31v1.02l-2.53.63-1.26-.33-.21 1.33-.4.34-3.66.02v-.37l-2.67.06.03-3.88.64-.85 3.95-.01.1.67 6.01.02v-1.12l1.26-.57 1.15-.91.96-.19v-2z"/>
    <path region="11" short-name="57" long-name="State House District 57" value="1" d="m1.27 413.27.04-30.1h22.13v1.88l2.85.03 2.5-.17.89.15 42.36.03-.01-8.05 14.82-.09 33.16.05v-.24l26.4.11 2.74-.12 1.82.14h8.85l-.03-3.16.03-21.04 8.96.01 12.6-.02 13.25-.93 16.5.25 4.83.12 16.06-.05.02-16.59 16.08.51-.07-16.5h.3l.02-16.2 39.84-.14v16.46l.76.03.04 7.3h-.13l.07 4.46-.25 3.86-11.36-.04.03 43.51.8-.07 1.64 1.13.96.89.96.47 1.08-.15 1.08.63.02.58-.6.52.08 1 .58.51 1.19.01.32.51 1.53.08 1.1.6 1.8.05-.44.89-.84.3-.71-.33-.66.32-.77-.28-.13-.72-1.37 1.17-1.07.2-1.73-.89-1.05.93-1.72.9-.43.44-.26 1-.46.42.15.92-.22 1.26 1.68.16.7.7.78-.04 1.38 1.03 1.1.14.81.74.62 1.48 1.3 1 1.74 1.93.05 1.74-.23 2.47-.53 1.45.06 1.71-1.05 1.16.27 2.9.86-.08.62.42 1.95.5.79.6.28.71 1.22.85 1.37.54.4.46.92-.11 1-.89.18 1.43.56.75 1.3.02.41.34 1.2-.03.97 1.21 2.04.98.38.86 1.02-.08 1.14.83.79 1.5.14 1.06 2 1.77 1.46-.63.85.1.53 1.08 1.26.35 1.02-.05.04.87 2.3 1.33 2-.27 1.3-.87-.15-.66-1.36-1.72.38-.6 1-.64v1.1l1.19.71.65 1.55.75.4 1.44.28.52.94.66.4 1.41.17.77-.37.35-.72 1.4.36.82-.12.65.52.52-.09.5-.72 1.33.3.72-.67.95.4.88-.57.34-.92.61.63 2.57-.78.29-1.67 1.66.5.53-.06.98 1.46.81.53.41.63-.48.98h4.07l1.63.09-.08-4.44 3.74.04 4.43 2.42.68 1.35.93.48.77 1.16.26 1-.08 1.16 2.75 1.46.12 2.25.38.25.6 1.56.06.73.92 1.04 2.83.1 8.96-.02-1 1.42-.23 1.27.22 1.8.59.58.35 2.03-.73 1.22-1.1-.11-.39.37-.84-.25-.82.81-.7-.14-1 .32-.3.73-.66-.2-.48-1.17-1.27.4-1.05 1.58-1.05.47-.4.62-.19 2.45.78 1 .76.32.48.82.94.1-.12 1.33.25.84-.1 1.03-.44.24-.42 1-1.18 1.06-.2 1.43 1.29 1.33-.6 1.65-.13 1.6.17 2.16-.67 1.16-.18 1.5-1.01.92-.47.77.2 1.46-.35.58-1.44 1.14-.88-.68-1.17-.37-.42.95-1.88-.66-.78.87-.58.2-.2.68.56 1.49-.26 1.1-.58 1 .6.73.32 1.5-.97 1.15.14 1.46-.7.37h-1.1l-.53.34-.83 1.5-.03 1.15.44.88.88.64-.34.35.27.88.1 1.72-.1 1.87-.45.82-1.2.58-1.15.14-.32 2.02.73.7.38.93-.46.75.07 3.05-.68 1.13-1.77.47-1.1-1.3-.69-.2-.83-1.57-1.12-.46-.06-.83-1.44-.54-.21-.95.48-.64-.24-.95-.57-.53-.47-1.01-1.05.46-1.6-.71-1.6.07-1.1-1.77-1.42-.16-.69.45-.35 1.08-.98-.13-.78.58-.97-.25-.73.29-.87-.18-.84.6.21 2.88-.89.2-1.46 1.77-1.15 1.6-.76.24-.44.9-.63.36-.17.63.22.93-.78 1.18-.99-.1-.74.48-.3.72-1.25-.07-.89-.5-1.47.68-1-.57-.24-.5-1.56-.63-.59-1.23-.84-1.15-.56-1.7-.98.44-1.25-.02-.3.75.28.53-.2 1.05-.9.7-1.25.17-1.02-.55-.87.08-.52-1.45-1.11.15-1.5-.99-.95-.28-1.37-1.53-.9-.4-1.01.2-.94-.37.1-2.01-.48-.43-.92.36-.82-.34-1.2-.01-1.16-.62-.78-1.49.68-1.3 1-.48-.15-1.48.63-.44-.36-1.51-1.14.25-1.2-1.17-.8-1.35-1.22-1.16-1.38-.46-1.01-.56-1.75-1.72-.66-1.15-.99-.25-.87-1.26-29.65.01-1.01-.1-.55-1.05-.02-1.1-.38-1.61-.8-.91-.27-1.64-.67-.54-.45.18-1.11-.72-1.06-1.07-2.2-.2-.4-.49-.83.12-1.5-.85-.1-.56-.82-1.62-.53-.26-.48-1.05-1.24-1.08-.21-1.14-.5-1.12.54-1.87-.35-2.01.5-1.05.6-.41-.65-1.2-2.04-.89-.58-1.05.43-1.4 1.75-.95.25-.57-.34-.65-2.05-.75-.4-.7.13-1.09-.34-1.03-.76.43-.67-.24-.63.38-1.17-.9-2.32-.49-.32-.54.29-.77-1.08-.34-.91.74-.69-.45-.65-1.04-.7-1.75.49-.94 1.67-.52.11-.49.94-1.07.7-.46.25-1 .89-.33.3-2.63-.36-.68-45.96-.01H128.17l-12.55-.07-.27.05-16.66.04-5.5-.05-.49.08-16.54-.04-6.33-.06H46.09l-.45-.02-19.25.06-4.7-.08H1.34z"/>
    <path region="12" short-name="42" long-name="State House District 42" value="1" d="m594.92 368.42 11.97-.02.01 2.72h1.34l.02 5.37h-10.67l-.67-.33.67-1v-1.34l-.67.16v-1.48l-.67-.29v-1.08l-.94.1-.46-.96z"/>
    <path region="13" short-name="63" long-name="State House District 63" value="1" d="m586.56 181.76-.02-19.55.06-7.69-.04-21.35h5.27l7.28.01 3.67-.23 8.05-.12 13.82-.2 10.9-.07 14.58-.1 4.2.08 13.74-.02 22.3-.02h12.99l10.02.05 4.99-.04h9.22l6.72.04 1.44-.07 5.38.02 15.38-.07 22.64.05 13.42.02 1.53-.05 9.22-.02 3.56-.1 4.51.13 8.42-.01 32.55-.07h5.57l5.22-.04 2.93.07 5.22-.03 11.26.06 13.14-.08 4.84.03 12.27-.02 4.62-.05 9.16.07 9.8-.04 15.44.03 12.57.02 23.71-.03h10.45l.03 27.25.02 20.38-.03 19.32-.03 20.44.03 3.32v15l-.05 8.17v6.79l.08 4.05-.09 20.4-.01 15.07.03 27.05.03 28.48.03 1.18.06 18.85.05 12.26.07 4.03-.05 1.44.09 13.31-28.4.38-.19-.02-12.08.2-6.68.06-11.88-.02-12.32.03-2.69.25-5.91.08-18.09.16-9.06.03-8.81-.12-12.55.02-10.74.15-.81-.03-17.25.33-17.04-.1-14.74.05-13.3.06-23.7-.06-9.88-.01.07-32.13v-5.4l.1-42.88.03-.26-22.86.03-16.36.01-24.13.06-24.33.02H661.9l.06-13.35-.01-8.23h-3.97l-.1-2.79-1.73-3.62-.88 1.01h-1.36l-2.6 2.7h-13.64l-.02-1.36-1.31.01v-1.36l6.2-.03.5-.4-.02-2.21h-2.67v-1.41l-2.64.02v1.36l-2.63.04.03-13.6.08-13.49 5.27-.04.09-8.02.06-.22-.02-6.06h1.34l-.01-.62 2.04-.04-.12-.59-.9-.69-.78-.21h-1.58l-.03-2.5.17-1.08-.71-1.12-1.26-.57-.95-.17-.96-.67 1.01-.44-.03-4.04-6.5.01-.06-1.85-.77.03.2 5.34-1.2-.34v-.47l-2.01-.03-.02 1.06 1 .4v.77l-1.92-.33.01-.6-2.13.37-.7-.44-.93-1.17-.16-2.05-.54-1.1L620.5 225l1.18.04.04-6.04.66.35.57-1 .12-.75-1.35-.05v.68l-1.54-.04.16 1.35-1.37-.02-16.57.22.05-10.9-8.1.03-5.4-.03-2.5.14.04-8.15.09-8.17-.05-2.67z"/>
    <path region="14" short-name="46" long-name="State House District 46" value="1" d="m610.62 634 .16-.52h1.33v1.35h1.81l.76-.21.02-1.11 1.38.04.69.61-.69.67v.66h2.63l.01-4.6h2.64v-1.33h.75v.66l1.76.06v-.67l2.44.03.01-1.35-1.08-.65h-.7l-.66.64.06-2.65 1.27.01.17.7.7-.03.48-1.34h.67l.66-.67.63.7 3.22-.05.09-.65h.75l-.24 1.3 1.27 1.3 2.05-.01 1.36-1.35.05-1.33h1.3l.64.66-.06 1.99h.52l.07 2.67 4.6-.09-.02-1.16 2-.2.08 1.35 9.2-.02-.07 2.53 2.16 5.4-1.74-.16v1.43l.6-.05.57.7.02.64.6.22 1.02-.56.68.6 1.2-.28.45.78 2.04.9 1.47.43 1.92-.16.4.85 1.18-.24.65.47 1 .2 1.73-.09.69-.52-.24-.84.62-.68 1.91.54.74.88 1.26-.2.85.27 3.25-.02.04 1.5 1.13.05 1.2.64.49-.16 1.08.3-.32 1-1.31 1.08-1.26 1.57-1.09.7-1.28 1.5-1.46.41-.36.92.16 1.25-1.09 1.3-.33 1.25-.76 1.05-1.6 1.04-.45 1.55-.78.8-6.5-.03-.02-.7-2.5-.7-5.1-1.67-6.59-2.94-1.55-.46-3.17.02-1.14-2.59-.5-1.6-.6-.23-1.56.3-.92 1.93-1.34.8-.9-.27-1.5.74-.15.84-1.25.08.4 2.02-1 .14-.04 1.1-.68-.1-.5 1.1-.87.85-1.2-.04.05-.65.89-.99.32-.9.64-.02 1.78-1.1.12-1.57.8-.42 1.64-2.15.2-2.16-.2-2.45-2.42-1.45.02-.57.6-.49.73.35-.02-2.77.52-.15.61-.77.92-.58.01-1.08.96-.34v-.52l.89-.32-3.3-2.4v-.6l-1.77.01-.85.35-1.13-.27-.24 1.5.43 1.17.28 1.46-2.54.79 1.07 1.25-.72-.02-.73.75-.88-.16v1.15l-3.13.04v.9l-.76.44v.67h-1.39l.01 1.28-.4.7.43 1.28.04 4.78 3.2-.02.8-.4-.1 2.64-.22.79-.91 1.72-1.91 2.66-1.93 3.19-.33 2.03-.72 1.53-4.02 5.52-1.55 3.34-1.56 2.27-.3.7-.36 2.73-.82 1.36 1.29.11-1.85 1.4.02.69-.55 1.26-1.9 1.94.08.47-.7.66.21.52.12 1.86-.1.9.3 1.16-.7.46-.24.58-1.73.89.14.4-1.75 1.17-.44 1-.01 2.47-2.26-.05-.63.88-2.2 1.01-.17 1.19.01 2.78-16.67 1.09-9.68.68-.29-.76-.85-.36-1.86-1.28.46-1.73-1.01-.05-.17-.66-1.43-1.33-.04-15.28-.03-17.33-.04-3.26.34-2.53-.07-20.28-.06-3.32 15.5-.05-.07-20.66.24.07 13.74 2.96.08 1.37.43.43-.02 5.3-2.32.1-.44.29-.3 1.24.43.4h1.04l1.32.58 3.13-.02.01.87 2.4.09z"/>
    <path region="15" short-name="59" long-name="State House District 59" value="1" d="m2.04 808.05.48-.42.87.54 2.8-.25.37-.3 2.23-.7 1.16-.08 2.93.35 1.64-.28 1.39-.06 1.83 1.11 1.46.15.5.62.5-.76h1.9v.72l1.92-.78 1.57-.3.6.16.73-.48 2.55-.38 1.09-.41 1.6-.25 2.33-.78h1.29l1.2.8 1.05.43.83.04 2.16.79v-.65l2.35-.06v-.77l1.95.08v.6l1.36-.38.91.3.64-.57 3.6.04v-.5l1.78-.01v2.24h-.81l-.36.79 1.45.14 1.4.69 1.41 1.04.73.32 1.2-.16 5.34-.03.25-.14.1-1.68-.63-.36.72-1.4.34-1.61.81.01.02-.65.7-1.32h.57l.01-1.1-.53-.9.52-.37v-.91l5.04-.08.17-.5v-6.97l.15-.45 1.3-1.89.41-1.07.34-1.9-.64-.6-1 .63-.72 1.27-1.45.52-.54.58-.86.12 1.28-2.72-.2-.55-.06-1.85-.88-.7-.02-4.74-1.83-.5.4-1.7-.65-1.63.42-.8.78-.28 2.43-.06.33-1.07.87.35 1.12-.2 1.02-1.93-.47-1.08.03-1.6-.3-.9-.79-.78-.67-2.01-1.14-1.65.65-.1 1.2-1.07.03-.82-1.48-.8-.22-.67.33-1.72-.08-1.2 1.7-.67 1.2-.28-.09-1.33-.75-1.65 18.45.02 1.23.1 35.21-.6 5.06-.51 2.51-.12 19.65-.15 1.43-.55.43-1.12-1.06-2.79-.14-1.12-.56-1.55-.8-.8.67-.72.2-1.6.75-.72 1.57-1.13 1.25.14.34.6.6.02 1.05-1.18 2.7-.62.56-.92 1.46-.27.36.3 1.8-.16.52.43.71-1.15-.38-2.96.85-1.23.5-.21.44-1.8-.02-.6-1.04-.47.75-1.61.63-.69 1.42-.13.9.47.52-.1.4-1.1 1.57-1.7.66-1.1-.86-.69.54-.94-.55-.54v-.72l.96-.48.65-.87.85-.3.99-.71 1.12.4.28-1.15.78-1.63.8-.4-.24-1.12.85-.58-.16-2.33-.32-.92 1.22-.25 1.15-1.51h.7l.7-1.03-.02-1.23 1.13-.87 1.42-1.9.81.2 1.17.99 1.1.3 1-.4.33.99.95.34.71-.08 1.08-1.7.68.17.7-.65.97.3 1.12-.12.35-1.07 1.22.1.78-.82.23-.74 1.1-.6.06-.5-.6-1.34-.16-1.01.31-.45-.04-1.49-.28-1.04.42-.86-.25-1.25 10.37-.04.57.68.22.96 1.76 1.13 1.95.37.67.67-.22 1.22-.5.46.05 1.53.4.27-.2.82.74.6.46 1.91 1.04.89-.89.92-.1.87-.9.42.14.9-.57.71.22.93 1.54 1.51.48 1.27.41.47-.1 1.4-.54 1.28.39.17.49 1.2-.05 1.46 1.85.49 1.02.11.87-.21.69.33.94 1.04.59.2.84 1.05.46 1.6.9 1.22-.05 1.42.22.74-.83.9-.73 1.97-1.34-.55-.54.16v23.2l.05 25.08-.04.4v13.48l38.55-.05h11.81v5.48l11.3.02 24.76-.31.63.06 22.86-.46v-1.43l4.61.11v31.36l11.54 6 1.17 9.8 14.26 22.35 1.83 3.79-20.08.15-6.3-.05-12.7.14h-16.99l-1.07-1.37H295.6l-30.11.02H150.97l-4.68.03-21.83.1-8.93.05-.18-.1-18.33.02-22.38.03-11.87.01-18.51.02-29.18.04-12.94-.03.01-20.17-.12-11.66v-4.39l.07-1.61-.01-6.9-.06-.1z"/>
    <path region="16" short-name="47" long-name="State House District 47" value="1" d="m633.24 658.14-.05.65 1.2.04.88-.86.49-1.1.68.11.04-1.1 1-.14-.4-2.02 1.25-.08.16-.83 1.5-.75.89.26 1.34-.8.92-1.92 1.55-.3.61.23.5 1.6 1.14 2.59 3.17-.02 1.55.46 6.6 2.94 5.09 1.68 2.5.69.01.7 6.51.02.78-.79.45-1.55 1.6-1.04.76-1.05.33-1.24 1.09-1.31-.16-1.25.36-.92 1.46-.4 1.28-1.5 1.09-.7 1.26-1.58 1.3-1.09.33-1-1.08-.29-.49.16-1.2-.64-1.13-.05-.04-1.5-3.25.02-.85-.28-1.26.21-.74-.88-1.91-.54-.62.68.24.84-.7.52-1.73.1-1-.21-.64-.47-1.18.24-.4-.85-1.92.16-1.47-.43-2.04-.9-.45-.78-1.2.28-.68-.6-1.03.56-.59-.22-.02-.64-.57-.7-.6.05v-1.43l1.74.15-2.16-5.39.08-2.53-9.2.02-.08-1.34-2.01.19.02 1.16-4.6.1-.07-2.69h-.52l.06-1.98-.63-.66h-1.31l-.05 1.33-1.36 1.35h-2.05l-1.27-1.28.24-1.3-.75-.01-.1.65-3.21.04-.63-.69-.66.67h-.67l-.49 1.34-.69.03-.17-.7h-1.27l-.06 2.64.66-.65.7.02 1.08.64-.01 1.36-2.45-.04v.67l-1.75-.06v-.65h-.75v1.32h-2.64l-.01 4.6h-2.63v-.66l.69-.67-.68-.61-1.38-.04-.03 1.1-.76.21h-1.8v-1.34h-1.34l-.16.52-.33-1.95.04-1.42 1-.73.92.34.22-.93 1.71.09.14-.5.98-1.13-.33-.82.03-.85-1.57-.55.01-1.25h5.27v-2.64l-2.65.01v-1.33l-.65.03-.02-1.33.62-.03v-2.66l1.38.01v-1.3l-1.35-.01-.01-1.34 2.72.03-.02-.67h2.58l.05-.63h1.92v.67l1.94-.05v-.66l4.58.01-.03 1.33 1.96-.01v-15.85h-2.61v-5.31l1.99-.01 2.6-.05 28.4-.05 19.67-.13 15.6-.2 2.2.1 8.54-.05.95-.08h4.21l7.82-.06 5.24-.08 6.15.01 6.62.18 13.32.07 1.3-.07 7.27.06 1.96-.08h3.9l9.24-.05v.85l15.44.26v-1.32h36.2l11.07-.3-.01-15.88 20.99-.46 51.66.3 7.4.02 14.38-.08 7.92-.21 18.1-.06.27-.03 36.59.03h3.35l.01 13-.01 16.42.05 6.18.07.7-.07 5.7.07 22.16.01 2.25.02 24.84-.05 12.2.1 21.24.1 10.86.04 11.62.11 7.82.08 14.36v13.06l-.06 13.05.03 5.24v12.79l.04 10.73-.06 4.01.04 9.85-.04 7.07V860.23l-.02 7.5-23.68-.12-7.48-.12-13.47-.04-48.84-.1-6.26-.45-10.03-.36-9.32.02-15.54.19-2.17-.28-21.9-.02-35.94.17-9.07.04-37.4.18-38.97.32-29.52.24-5.06.04-12.58.2-20.2-.03-5.5-.01-15.01-.11-.14.14-2.78.04-15.72-.02-34.93.04-4.09.1-13.04-.49-4.88.02.12-53.23-.53.04-.95.68-.1-1.1.27-.84-.5-2.48.2-.53-.17-1.25.51-.93-.69-1.45.55-1.47-.25-.38-.16-1.94-.28-.6.45-1.5-.44-1.03.5-1-.2-1.3.59-.33.91-1.6 2.52-.27.84-.52.42-1.01-1.06-.7-.48-.9-.06-1.75-.79-1.45-.05-.91-.4-.38-.36-1.5-.57-1-.9.42-1.84-.27.27-.86-.45-2.6-.54-.56.85-1.49-.45-.75.73-1.45-.25-.59.02-1.22.4-.7-.03-.88-.7-1.45-.18-1.43-.75-.73v-1.48l.66.02-.81-1.71-1.12-1.17-.23-.82-1.16-1.28-.52-.04-1.86-1.47 1.8-1.5.28-.66 1.5.4-.13-1.59-.32-.38.1-1.04 1.01-1.11.59-.15-.83-1.45.47-.18 1.06-1.73.67-.4.75-1.22 1.04-.8.48-1.14-.99.23-.78.74-.54-1 1.32-.93.74-.1 1.04-.57.72.5 2.28-1.42 1.66-.23 1.32-.88.72.42 1.22-.65 1.93-.66.89-.06.81-.54 1.77-.17 1.87-.6 2.06-1.1 2.67.01-.06-5.81 1.55-1.44 1.01.1 2.8-.93.4-.58 4.59-7.92 2.74-6.66 23.84.27.5-.03 2.26-4.49 2.03-1.73.98-2.12 1.46-1.55 4.7-3.08.7-.93-.18-1.97.45-.81 1.32-1.03.88-.32 1.8.27.7-.06.96-.61.35-.65.88-3.76.03-1.38-.36-2.04.05-.96 1.07-3.74.03-.45-.28-4.14-1.12-1.46-1.13-3.03-.17-.84-.01-6.24-.05-.6-.94-3.66.14-1.81 1.22-3.44.85-1.44.64-2.4z"/>
    <path region="17" short-name="58" long-name="State House District 58" value="1" d="M.04 596.18h97l.07-.4v-30.24l25.82-.06 11.9-.02 7.84.03 8.55-.02 21.42.07.32-1.76.03-1.1.45-.36.38-1.15.64-.63v-1.65l-.46-1.2-1.3-1.8.02-.45 1.1-1.15.42-2.5-.12-.65.45-.47.04-.94.8-.9.03-.7-.9-1.56.08-.74-.33-1.24-.03-2.62-2.86-.37-1.85-.55-1.98-.1-4.61.46-1.1.23-.32 1.03-1.22.27-.52-.4-.2-1.78 1.5-2.93.7-1.02.28-.85.69-.8 1.26-.96 1.2-1.8 1.28-.02.82-1.02-.1-.54.55-1.15.48-.26.2-1.17 2.92-.1.92-1.36h3.32l.03-2.85 1.34-1.38.08-13.5.07-16.53 2.11.43 1.34.71.54.85 1.35.78 1.2 1.53.85-.18.3-.46.98-.5.07-.73.71-.02.72-.67.17-.83.95-.69.78.54.44-.59.99-.33.85-1.15.52-1.2 1.24-.77.55.21 1.5-.6.93-1.02.3-1.39 1-.15.57-1.38.75-.15.68-.57-.27-.95 1.13-1.16.35-1.27.5-.09 1.41-1.95.78.2.65-1.48.94-.37.3-.71.7.08.97-1.3.92-.48 1.01-.13 1.46-1.63 1.52-.48.8-.93 1.49.56 2-.7-.08-2.25 1.07-.74 1.07-.11.13-.9.97-.44.98-1.42.57-.47 2.12-.3 1.02-1.36.48-1.77.8.3.58.84 1.6.11 1.77-.41 3.12-2.13-.2-2.63.88-.2.35.38h1.01l1.1.4.97.08.83-.62.58 1.05 2.04.9.65 1.19-.6.41-.5 1.04.35 2.02-.54 1.87.5 1.12.21 1.14 1.24 1.08.48 1.05.53.26.81 1.62.1.56 1.51.85.82-.12.42.49 2.2.2 1.05 1.07 1.1.72.46-.18.67.54.26 1.64.8.9.39 1.63.02 1.1.55 1.03 1 .11 29.66-.01.87 1.25 1 .26.65 1.15 1.75 1.72 1 .55 1.39.47 1.23 1.16.79 1.35 1.2 1.17 1.14-.25.36 1.5-.63.45.16 1.48-1.01.49-.68 1.3.78 1.48 1.16.62h1.2l.82.35.92-.36.48.43-.1 2 .94.38 1.01-.2.9.4 1.37 1.53.95.28 1.5.99 1.1-.15.53 1.45.87-.08 1.02.55 1.25-.17.9-.7.2-1.05-.29-.53.31-.75 1.25.02.98-.45.56 1.7.84 1.16.59 1.23 1.56.63.24.5 1 .57 1.47-.67.89.5 1.25.06.3-.72.74-.47 1 .09.77-1.18-.22-.93.17-.63.63-.37.44-.89.75-.24 1.16-1.6 1.46-1.76.9-.21-.22-2.89.84-.6.87.19.73-.29.97.24.78-.57.98.13.35-1.08.68-.45 1.44.16 1.1 1.77 1.6-.08 1.6.72 1.04-.46.47 1.01.56.53.25.95-.48.64.21.95 1.43.54.07.83 1.12.46.83 1.57.7.2 1.1 1.3 1.76-.47.53 1.24 1.24-.26 1.37.4.35-.43 1.22-.18.81-.8.84-.1.34.96.77.44 1.53 1.4 1.09.5.56 1.76.37.45-.95 1.6.26.83.97.26.6.97 1.48.79.13 1.38 1.16.62.79.7.1.6 1.3 1.41 1.23.5 1.03 1.02 1.02.05.58-.49 1.66-.52.7.13.99-1.83 1.2-.58.51.26.15 1.05.73.96.64.16.78.76 1.16-.3.23-1.2 1.71-1.1.48.4.11 2.4.4.54.84-.06.85-1 .64-.1 1.68 1.07 1.02-.3.44-.54 1.27.12.2 1.48.55 1.3-.07.6-.76.96-.12.92-.93.18-.68 1.75-1.44 1.21-.05 1.82-1.09-.03-1.12.41.05 1.22-.82 1.41-1.26.66-.58.73-.07 1.16-1.1.37-.89-.07-1.34-1.13-1.33 1 .18 1.57-1.1 1.26.69 1.4.47.29.25 1.5-.53.6.4 1.56-.25 1.22-.53 1.18.3.28.3 1.34-.7 1.02.28 1.73-.3.6.47.92-.1 1.47-.85.88.03.86-.29 1.07-.9.29-1.7-.1-.68.79-.5 1.2.83 1.71.83.39.33.8-.03 1.06.3 1 .53.6.45 1.87-.16.76 1.2 1.22.65.34 1.32-.5.89.34.07 1.11 1.57-.24 1.4.73-.69.85-.02 1.35.88.88.51-.2 1.47.97.23 1.04-.15.79.77 1.18-.28.64 1.42 2.26-.3.37.25.83 1 1.52-.32.63.03 1.14-.98 1.62-.26 1.35.24.6-.07 1.07 1 .84.65 1.32-.16.74-.63.9.76 1.76.93 1.13.84.53.36-.65 1.1-.07.26.46.98.05.3 1.26.9 2 1.78.63.23 2.1 1.18 1.4 1.14-.16.05 1.16.88 1.28.68-.1 2.27.57-.58 1.08.36 1.9-88.94-.45h-10.92l-7.52-.06v7.54l-.08 41.77-.07 21.2.15 14.61-.72-.12-.16 1.36-.31.48-1.22-.45-.77-.86-1.09.13-.79.66-1.22.01-1.06-.68-.6.15-.72-1.35-.91-.28-.6 1.07-.52.26-1.41.1-.4.54-.9.2-1.32-.82-.31 1.2-.65.7-1.61.44-1.1.55-1.21-.18v11.53l-.06 1.64.18 6.7-.37 12.9-.11 1.3-.63 13.42 3.03.08.02 9-.27 4.41-.44 22.8v9.1l-11.8-.01-38.56.05v-13.49l.04-.39-.04-25.08-.01-23.2.54-.16 1.34.55.73-1.96.83-.9-.22-.75.06-1.42-.9-1.22-.47-1.6-.84-1.06-.6-.2-.93-1.03-.7-.33-.86.21-1.02-.11-1.85-.5.05-1.46-.5-1.2-.38-.16.54-1.28.1-1.4-.41-.47-.48-1.27-1.54-1.51-.22-.93.57-.7-.14-.91.9-.42.1-.87.9-.92-1.05-.89-.46-1.92-.74-.6.2-.81-.4-.27-.05-1.53.5-.46.22-1.22-.67-.67-1.95-.37-1.76-1.13-.22-.96-.57-.68-10.37.04.25 1.25-.42.85.28 1.05.04 1.5-.31.44.16 1.01.6 1.35-.06.49-1.1.6-.23.74-.78.82-1.22-.1-.35 1.07-1.12.11-.98-.29-.69.65-.68-.16-1.08 1.7-.7.07-.96-.34-.32-1-1 .42-1.11-.31-1.17-.98-.81-.22-1.42 1.91-1.13.87.02 1.23-.7 1.02h-.7l-1.15 1.52-1.22.25.32.92.16 2.33-.85.58.24 1.11-.8.41-.78 1.63-.28 1.15-1.12-.4-.99.7-.85.3-.65.88-.96.48v.72l.55.54-.54.94.86.69-.66 1.1-1.58 1.7-.39 1.1-.52.1-.9-.47-1.42.13-.63.69-.75 1.6 1.04.47.02.6-.43 1.8-.51.22-.85 1.23.38 2.96-.71 1.15-.52-.43-1.8.16-.36-.3-1.46.27-.57.92-2.69.62-1.04 1.18-.6-.03-.35-.6-1.25-.13-1.57 1.13-.75.73-.2 1.58-.68.73.8.8.57 1.55.14 1.12 1.06 2.78-.43 1.13-1.43.55-19.65.15-2.5.12-5.07.5-35.21.61-1.23-.1-18.45-.02.75 1.65.08 1.33-1.18.28-1.71.67.08 1.2-.33 1.72.22.66 1.48.81-.03.82-1.2 1.07-.65.1 1.14 1.65.67 2 .78.8.31.9-.03 1.59.47 1.08-1.02 1.92-1.12.2-.87-.34-.33 1.07-2.43.05-.78.3-.42.79.64 1.62-.39 1.7 1.83.51.02 4.75.88.7.05 1.84.21.55-1.28 2.72.86-.12.54-.58 1.45-.52.71-1.27 1.01-.63.64.6-.34 1.9-.4 1.07-1.3 1.89-.17.45v6.97l-.16.5-5.04.07v.92l-.52.37.53.9-.01 1.1h-.57l-.7 1.32-.02.65-.8-.01-.35 1.6-.72 1.4.63.37-.1 1.68-.25.14-5.34.03-1.2.16-.73-.32-1.41-1.04-1.4-.69-1.45-.14.36-.79h.8v-2.24h-1.76v.5l-3.6-.03-.65.57-.91-.3-1.35.38v-.6l-1.95-.08v.77l-2.37.06.01.65-2.16-.79-.84-.04-1.04-.42-1.2-.81h-1.29l-2.33.78-1.6.25-1.09.41-2.55.38-.73.48-.6-.15-1.57.29-1.92.77v-.72l-1.9.01-.5.76-.5-.62-1.47-.15-1.82-1.12-1.4.06-1.63.28-2.93-.34-1.17.08-2.22.7-.38.3-2.79.25-.87-.54-.48.42.02-8.63.38-22.43.18-5.52v-13.2l-.06-11.14.08-8.12.01-5.23-.06-1.76.09-9.03-.06-13.12.11-6.21-.29-12.11.04-4.53.15-29.94L.8 642.54l-.77-5.55z"/>
    <path region="18" short-name="32" long-name="State House District 32" value="1" d="m580.64 348.91 1-.21.1-1.42.4-.32 3.5-.04.04.68 1.1.01-.7.99-.32.99.62 2.01 1.2-.9 1.17-2.53.42-.3.76-1.31.11-1 .88-.68.19-.7 1.42-1.38 1.1-1.67.82-.96h-1.48v-1.5l.68-.52v-.66h2.25l.76-1.03.24-.34 3.42-.01v2.7l.55.02 2.6-1.7.82-1.03h1.42v-.73l1.48-1.8 1.21-.15.02 1.34h2.65l.04 1.34 5.35.02.01-2.7 7.87.03 5.38.05v4.03l-5.6-.06.02-1.3-1.78-.03v1.36l-1.58-.01-.02 2.03-3.86-.03-.08 9.46-4.46-.04v.67h-4.07v8.07l-5.46.04-5.26-.06v-2.68h-2.61l-.01 2.7-2.72-.02v2.06l.02.63-3.36.02v-1.35l-1.84.01-.08-.67h-2.13l-.68.67-6.59-.01.04-4.22 2.1-1.07 1.17-.25-.13-3.86z"/>
    <path region="19" short-name="18" long-name="State House District 18" value="1" d="m574.57 501.25.87-.48 1.12.27.19 1.3-.32 1.06-1.39 1.8-.04.57 1.16 2.21.87.63.23.88.63.81.27 1 .94.55.5.67.61.1.75 1.2 1.67.28 1.39 1.67.11 2.07.4.18-.51 1.18 1.15.64.36.84 1.01-.32.31-.44.84.13v1.1h1.5l1.34 1.16.59.98-.33 1.11 2.16-.03.3-.65 1.33.02.12-.01-.1 6.23 1.01.44-.28.66 2.32-.74-.55-2.89-.64-1.3-.2-2 .77-.38 5.68-.02-.74 2-.08.85.37 2.46-.12 1.7.3 1.43 3.1.1-.02 1.5-.36.51-.02 1.03-.04 1.05-.45.07-.1 1.7-.76-.04.02 2.14.64.68.05.94 1.99.56.1.5.93.9-.36.7-.01 3.05h-1.94l.24 3.43.45 1.76-.35.75-.96.69-.29.91-.16 2.74-3.73 5.27-.77 1.37-1.5.86-.56 2.6.17 2.18-1.45 3.11-.7.87-1.6 1.17-1.48 1.46-2 3.43-.65.8-2.6 2.26-.5.61-.09-9.97.04-5.04v-8.42h.36l.1-2.6-.12-15.72-1.27-.37h-6.54l-2.98.14-1.91-.04-3.62-.26-2.54.01-.04-1.64.58-7.82.28-3.3 5.39.08.13-5.3.04-4.99-.07-.93-1.87-.1-.02-1.33 1.99-.05-.01-8.66-.38-2.62z"/>
    <path region="20" short-name="39" long-name="State House District 39" value="1" d="m570.93 401.19 1.24 1.1-.2 1.13.71 2.32 1.86 2.73 2.28.12.97-1.13 1.07.25 3.14.12 1.67.55 2.53-.12.7-.49 1.43 1.02 3.77-.01v-8.13h9.26v2.52l1.33-.47.02 8.67.1 1.23 1.47.5.96 1.15v2.6h-1.32l-.04 2.66 4.65-.01-.97 1.31-1.92 1.6-.28.67-1.25 1.62-.41 1.05-1.06 1.54-1.3.26v-2l-.67-.68-1.99-.03-.67.64-.35-.8-.6-.4.02-.6.58-.58-1.65-.99-.22.67-.92.78-1.06 1.47-1.6 1.38-2.01-.72-1-.1-2.03-.62-.1.51-1.22-.02-.7-.42-1.15.01-.58.46 1.44 2.25.39 1.53v.75l.64 3.39-.39 1.74-.71 1.59.54 1.09.1 1.76h.64v1.34l3.3-.13-.04 2.82.14 1.07-.15 3.28.05 1.65.67.62 1.7-.25h2.32l2.08-7.46.98.14-.68 2.96-.3.66 7.1.01-.12-2.59-.94-2.09h-2.87v-1.33h1.31l.35-1.22.98.88 1.58.02 1.01-.4 1.3.01 1 1.34h1.01l1.22-1.35.72-.44.24-1.2 1.72-.4.76-1.3.02-3.34-.16-1.42-.59-1.25 1.04-.02-.29-1.45.14-3.95 2.04.58.57-.6 1.02-.04.34-1.25 4.36.01.88-.64 2.01.01.55-.36.99.84.23 1.1 1 .48-.08 8.05-.05 18.68-.03 18.08.02 11.3-23.9-.03-27.84-.02-1.07.03-18.4.02-23.76.02.95-1.13.17-1.94.85.07.04-1.67.76-1.59.8-.14.6-.68.1-.83 1.72-1.27-.25-.87.4-.4.18-1.52.3-.98.75-.53.2-.8.97-.41.9.26.5-.54-.13-1.06-.42-.83.32-.38-.32-1.02.9-.87.68-1.87.74.6.55-.4 1.1-.3.25-.48-.53-.66 2.91-1.97-.28-1.72.24-.75.88-1.18-.16-.64.99-1.33-.31-1.2.9-.2.67-1.7 1.15-1.63.36-2.01.54-.57-.24-.76.74-.97.22-1.62.76-.72.05-.69.73-1.06-.39-1.13.3-.57-.85-1.02v-1.48l1.05-1-.22-1.58-.58-1.3.65-.31.96-1.08.57.1 2.53-1.7 1.4-1.61.7-.47-.38-1.09.41-1.4-.13-1.33-1.25-1.3.04-1.08-.33-.53.66-.54.28-.68 1.05-.75.48-.73.99.34 1.7-.34 1.05-.72.75-1.04.2-2.15.9-.9.06-1.12-.3-1.04.52-1.57-.19-.94.52-1.4 1.05-1.14.8-1.19.06-.56z"/>
    <path region="21" short-name="54" long-name="State House District 54" value="1" d="M1.35 437.44h20.33l4.7.07 19.26-.06.45.03h23.73l6.33.05 16.55.04.5-.08 5.49.05 16.66-.04.27-.05 12.55.08 22.8-.02 16.6.02 18.6-.01h45.97l.35.7-.3 2.62-.88.34-.26.99-.69.46-.94 1.07-.11.49-1.67.52-.5.94.71 1.75.65 1.04.69.45.9-.74 1.09.34-.3.77.33.54 2.32.5 1.17.9.63-.4.67.25.76-.43.34 1.03-.12 1.1.39.69 2.05.75.34.65-.25.57-1.75.96-.43 1.4-.83.61-.97-.09-1.1-.4h-1.01l-.35-.37-.87.2.19 2.63-3.12 2.13-1.77.41-1.6-.11-.57-.83-.8-.3-.49 1.76-1.02 1.36-2.12.3-.57.47-.98 1.42-.97.44-.13.9-1.07.12-1.07.73.09 2.24-2.01.71-1.5-.56-.8.93-1.5.48-1.47 1.63-1.01.13-.92.47-.97 1.31-.7-.08-.3.7-.94.38-.65 1.49-.78-.2-1.4 1.94-.51.09-.35 1.27-1.13 1.17.27.94-.68.57-.75.15-.57 1.38-1 .15-.3 1.39-.94 1.02-1.49.6-.55-.2-1.24.77-.52 1.2-.85 1.14-.99.34-.44.58-.78-.54-.95.69-.17.83-.72.68-.71.01-.07.74-.99.49-.29.46-.85.18-1.2-1.52-1.35-.78-.54-.86-1.34-.7-2.11-.44-.07 16.53-.08 13.5-1.34 1.38-.03 2.86-3.32-.01-.92 1.35-2.92.12-.2 1.16-.48.26-.55 1.15.1.55-.82 1-1.28.03-1.2 1.8-1.26.97-.7.79-.28.85-.69 1.02-1.5 2.93.2 1.78.52.4 1.22-.27.32-1.03 1.1-.23 4.6-.46 1.99.1 1.85.55 2.86.37.03 2.62.33 1.24-.08.75.9 1.54-.03.7-.8.9-.04.95-.45.47.12.65-.42 2.5-1.1 1.15-.03.46 1.31 1.8.45 1.2v1.64l-.63.63-.38 1.15-.45.36-.03 1.1-.32 1.76-21.42-.07-8.55.02-7.84-.03-11.9.02-25.83.06.01 30.24-.07.4h-97L0 578.08l.1-22 .3-13.8.46-14.54.25-22.9.14-23.14zm44.42 42.08.15 1.19.85 1.8 1.07.18v.65l1.58 1.32 1.74.01-.39 1.03 1.04 1.54 1.98 2.02.64 1.26 1.35 1.39.67.01v1.33h.7v1.33h.66l.01 1.33 1.85 1.45.72.87h.87l.26-.85.79-.85.01-.61h1.32v.67h.8l-.01-.66h1.97l.02-1.32 1.19.2.12 1.14.69-.16 1.17.26.24 1.63 1.43 1.59 2.05.18.71-.32 1 .14.37.64.9.62.45-.55.68.39.79-.04 1.44.76 1.28-.11.3.34 1.01-.22.03-1.17h-1.99l.02-3.98h1.31l-.13-.56-1.2-.2.03-.53v-11.32h-.66v-1.33l-.66-.66h-2.64l-.12-.67h-1.21l-1.32-1.33-.01-2.66-.66.66h-.67v1.33l-2.66-.17.02 1.5H56.46l.01 2.77-.68-.17-.27.97-1.48-1.32-1.04-.32-.64 1.07-3.37-1.6-2.76-2z"/>
    <path region="22" short-name="65" long-name="State House District 65" value="1" d="m586.56 181.76-.03 8.22.05 2.67-.1 8.17-.03 8.15 2.5-.14 5.4.03 8.1-.02-.05 10.89 16.57-.22 1.37.02-.16-1.35 1.55.04v-.68l1.34.05-.12.76-.57.99-.66-.35-.04 6.04-1.18-.04 1.58 10.87-1.05-.03-.01-1.35h-.67v.88l-.61.47-2.41-.17-1.05-.3-1.37-.23-.03-2.04h-.68v-1l-.66-.35-1.38.02v-1.35h-.68v1.33h-1.38v1.38l.68-.01v2.7l-5.45.1-.03-1.07-.63-.24-2.99.11-.67-.65.07 3.38-.92.06-.43.56-1.02-.03.05.57-.38 2.98-1.38.05v1.31h-.64l.01-1.35-4.63-.05-.1 12.86.19.7-13.69-.03-.01-4.64h1.16l-.11-.75h-.83l-.21-1.37h1.22l.16-1.35.05-2.33.55-.38 3.1-.03.35.13.14-5.53-1.2.02.01-.77h-.72l-.01.77h-.8l.03-5.4-1.4.02v-1.4l.26-1.43-.16-.54.04-7.62-.24-2.09-.28-.6-.74-3.22-.16-1.43.67-.75h2.03v-.69l-.67-.68-.2-1.37-1.14-.05.02-1.33.28-.65-.2-.68.58-.8.4-1.9-.98-.02-.74-.66.01-2.1h-4.1l-.74-1.93-.57-.8-2.64-.02-.01 1.03.3.98-.83.48.51 1.05-.07 1.49-.63.08-1.82-.37-1.9 1.02-.01.97-.34.71-.7.28-1.41-.68-1.27-.89-.03 1.9-2.7-.04v1.33l-1.71.08-.73-1.1-.95.02-.02.88-.66.2-1.36-2.7-.29-1.3.3-.87.04-2.01.49-.49.08-1.54-.62-.76-.25-1.44-2.2-2.98-.27-.9.18-.7 1.54-1.01.46-2.11.37-3.6.32-6.06 7.28.02 6.21.07 2.73-.03 5.42.06 4.2-.04z"/>
    <path region="23" short-name="20" long-name="State House District 20" value="1" d="m626.52 481.07 15.83.02-.06 5.32-2.62.02-.1 10.62 4.59-.02.4 1.06.3 3.76v11.28l-2.64-.03-.03 5.42-7.8-.16-.49-1-1.4.97h-.95v-2.3l-.26-.28-6.26-.02.02-2.07h-1.34v.67h-1.3l.48-1.23h-1.76l.05-5.3-8.02.02v-2.67l-1.33.02v-1.35h1.33v-1.32l-1.57.01-1.53.65-.33-1.18.12-1.53.6-2.08-1.98.13-1.34.65v.66l-1.93.03.48-.69v-.66l-2.5-.03.02.83-.65.56 2.03 4.47.66 1.14v1.05l.98 2.78 1.03-.19-.04 4.03-1.67 1.34v.88l-.49.25-1.15-1.15-2.02-1.28-7.95-.04.01.65-1.26-.02v.67l1.29.03.65.65-.64.66.65.66-.05 7.31-1.32-.02-.32.65-2.15.03.33-1.1-.6-.99-1.32-1.16h-1.5v-1.1l-.85-.13-.3.44-1.02.31-.36-.84-1.15-.63.52-1.18-.4-.18-.12-2.07-1.39-1.67-1.67-.28-.75-1.2-.6-.1-.5-.67-.95-.55-.27-1-.63-.8-.23-.89-.87-.63-1.16-2.21.04-.57 1.4-1.8.3-1.06-.18-1.3-1.12-.27-.87.48.04-1.71-.9-18.5 1.07-.03 27.85.01z"/>
    <path region="24" short-name="56" long-name="State House District 56" value="1" d="m623.16 387.27 11.78.02.04-5.37 2.73.05.1-6.7-1.36-.03-.01 1.35-1.44-.03v1.34l-2.21.08-.46-.46.04-9.94.55-.43h.79v-1.28l2.26.07.2 1.23-.86.46-.15.84 5.37.05 8.05.21v-3.52l2.7.06-.03-12.58-18.58-.34.08-8.6 1.98.01.01-1.52h.77l.03-3.29-4.47-.05v-1.36l-1.34-.01-.01-4.03-5.38-.05-.04-8.12-2.7-.03.04-5.2 13.57-.01 15.98-.02 10.7-.02h13.33l24.33-.02 24.13-.06 16.36-.01 22.86-.03-.02.26-.1 42.88v5.4l-.08 32.13 9.87.01 23.7.06 13.3-.06 14.75-.05 17.04.1 17.25-.33.81.03 10.74-.15 12.54-.02 8.82.12 9.06-.03 18.09-.16 5.91-.08 2.68-.25 12.33-.03 11.88.02 6.68-.05 12.08-.21.19.02 28.4-.38.04 6.5-.02 6.04.04 15.3.13 22.14.09 15.25.1 16.65.08 15.17.17 42.8v5.47l.02 15.68.02 5.1-.03 9.94h-3.35l-36.6-.03-.25.03-18.1.06-7.94.21-14.37.08-7.4-.02-51.66-.3-20.99.46v15.88l-11.06.3h-36.2v1.32l-15.44-.26v-.85l-9.25.06-3.9-.01-1.95.08-7.27-.06-1.3.07-13.32-.07-6.62-.18-6.15-.02-5.24.1-7.82.05h-4.2l-.96.07-8.55.05-2.2-.1-15.6.21-19.67.13-28.4.05-2.6.04-1.62-4.18-1.3-3.71h.56l-2.92-4.57-.36-2.2-.36-3.13-1.37-7.24 2.63-.02v-1.31l3.93-.05-.03-2.63.46-.61h.9l.58.6h1.97l.02-1.34.52-.67h.88l.01-.68h-4.06l-.17-.4.37-2.16-.29-2.74h-1.88l.42-.99.88.28 3.3-3.97.1-3.25 7.53.06.44-.42.18-1.36.73-1.35.72.45 3.62-.02-.03-1.3 3.96.01-.07-5.28h-6.56l-.04-3.99-5.3.04-6.45-.07-.2-1.34h.87v-.66l1.99.15v-2.8l-2.64-.03V529l-1.33-.33.02-2.99.66.67h.66V525l-.65-.66h-.67l.01-3.75 1.24-2.28 1.42.04 7.8.16.04-5.42 2.64.03v-11.28l-.3-3.76-.4-1.06-4.6.02.1-10.62 2.63-.02.06-5.32-15.83-.02-.02-11.31.03-18.09.05-18.67.08-8.05-.07-3.99.25-20.3 2.64.01.01-1.55-2.67-.01.01-1.1-2.68-.01v-2.97l-1.06-1.8-1.43-.62h-1.13l-.98-.63-.28-.7 2.28.04v-1.19l2.04-.04.61.52.02-3.3z"/>
    <path region="25" short-name="25" long-name="State House District 25" value="1" d="m521.73 372.69.44.24 1.27-.03 1 .21 1.09-.16 1.03.59 1.06.02 1.1.46 1.1 1.11 1.27.43.51-.2 2.1-2 .7-.12 2.2.75 1.59.23.89.48 2.07.42 1.08-.12 1.83.53.76.6 1.28.03 1.22.4 1.48.05.92-1.2.32.22.8 1.59 1.35-.02.26 1.51v.5l-1.14.01.18 2.02.69 1.33 1.75-.03v-.65l.96-.02v1.34l-.28 1.07-1.31.3-.71.66.54.86 1.47 1.52-.66.6.76.99.92 2.23-.04 1.86.33.68 1 .24.52 1.46.47.64 1.27.05 1.25-.34 1.04-.52 1.33.14.03-3.08h2.64v3.07l.2 1.41.8 1.71.23 1 .03 2.9.78-.7.6.1.77-.58.77.31.42-1.24 1.48.08-.61.56-1.1.58-.05.56-.8 1.19-1.05 1.15-.52 1.4.19.93-.52 1.57.3 1.04-.06 1.11-.9.9-.2 2.16-.75 1.04-1.05.72-1.7.34-1-.34-.47.73-1.06.75-.27.68-.67.54.34.53-.04 1.08 1.24 1.3.14 1.32-.41 1.41.38 1.09-.7.47-1.4 1.6-2.54 1.71-.56-.1-.96 1.08-.66.3.59 1.31.22 1.58-1.05 1v1.48l.84 1.02-.29.57.38 1.13-.72 1.06-.05.7-.76.7-.22 1.63-.74.97.24.76-.54.57-.36 2-1.15 1.64-.67 1.7-.9.2.3 1.2-.98 1.33.16.64-.88 1.18-.24.75.28 1.72-2.92 1.97.54.66-.24.48-1.11.3-.55.4-.74-.6-.68 1.87-.9.87.32 1.02-.32.39.42.82.12 1.06-.49.54-.9-.26-.97.4-.2.81-.74.53-.31.98-.19 1.52-.4.4.26.87-1.72 1.27-.1.83-.6.68-.8.14-.76 1.59-.04 1.67-.85-.07-.17 1.94-.95 1.13h-.13l-9.62-.02.02-5.34-.02-16.8.17-2.74-.2-9.36-.08-1.92.07-4.52-.06-5.05.06-3.93.01-9.74-.06-13.39-.06-7.63v-7.46l.1-5.58-.05-9.2z"/>
    <path region="26" short-name="5" long-name="State House District 5" value="1" d="m574.9 358.44.66.54 2.01.01h6.59l.68-.66h2.13l.08.67-.08 3.36h-2.7l-.05.87-1.93.05-2 2.02v5.17l-.01 6.02-5.36-.03v-.98l-.01-4.33 1.33-.01-.32-2.4.41-2.11.8-.76-.9-.83v-4.69l-1.32-.12z"/>
    <path region="27" short-name="21" long-name="State House District 21" value="1" d="m586.76 583.83.5-.61 2.6-2.26.67-.8 1.99-3.43 1.48-1.46 1.6-1.17.7-.87 1.45-3.11-.17-2.17.56-2.61 1.5-.86.77-1.37 3.73-5.27.16-2.74.29-.91.96-.7.35-.74-.45-1.76-.24-3.43h1.94l1.9.2-.05-1.18.6-.06 1.56 2.04 1.43 1.42.17-1.21-1.03-.66 1.11-1.04.2-1.48.46-.55h2.14l1.21-.18 1.45.09.01 1.84.9.85 3.42-.01.97.57.1.38v4.3h4.68l-.02 1.31h1.63v.33l-.42.98h1.88l.29 2.75-.37 2.16.17.4h4.06v.68h-.89l-.52.67-.02 1.34h-1.97l-.58-.6h-.9l-.46.6.03 2.64-3.92.05v1.3l-2.64.03 1.37 7.24.36 3.13.36 2.2 2.92 4.57h-.55l1.29 3.72 1.63 4.18h-2l-10.44.06-11.42-.08-9.7.03-4.2-.08h-5.3l-1.23.13z"/>
    <path region="28" short-name="19" long-name="State House District 19" value="1" d="M559.82 295.85h2.03l.69-.36 1.35-.28 4.02-.12v-.94l1.28-.03.1.35 1.3-.03.01-4.08-1.75-.02-.94-.68.01-7.34 2.7-.07 5.39-.05-.04 5.2-.09.23 2.8-.06 1 .58 1.23-.6.54.05v-1.09l.43-.45h.88l-.02-1.21 1.36-.01v-2.7l2.7-.04 5 .07 2.94.05v8.2l-2.64-.04-.1 6.76v5.4h2.66l.03 2.75h2.64l.04 2.44-1.25.29v.65h-1.43l.04 11.45h-5.15l-5.6-.01.04-8.14-2.47.05-.2.33-.02 2.37-.92.01v.66h-1.78l.4 1.18-.4.85h1.34v1.34l-2.62.02.01 1.32-6.4.04-3.1-.02v-2.7l-3.16.04-.13.67h-.74l.03-6.8-1.38-.2-2.68.63-.04-10.5z"/>
    <path region="29" short-name="30" long-name="State House District 30" value="1" d="M570.9 365.7v13.44l-1.33 1.35h1.33v1.34h-2.67l-1.33-.44v-.88h-.8l-3.24 1.07v-2.41h-1.47l.07-.98.9-1.21.52-1.28-.03-4.03.03-5.94z"/>
    <path region="30" short-name="6" long-name="State House District 6" value="1" d="m580.28 367.09 1.32-.03.68.7v.69l12.64-.03-.07 1.85.46.97.94-.11v1.08l.68.29v1.48l.65-.16v1.34l-.66 1 .67.34h-1.68l-2.8.05-.88-.42.02-5.02h-8.09v-.64h-3.88z"/>
    <path region="31" short-name="41" long-name="State House District 41" value="1" d="m597.59 376.5 10.66-.01h2.67l-.01 3.59-.96.54-1.69.12-.02 3.8h-5.79l-.76-.75-1.64-.38-1.1-.2h-1.42l.04-1.95-.69-.73-.64-.68v-3.34h-.33z"/>
    <path region="32" short-name="9" long-name="State House District 9" value="1" d="M589.49 371.11h2.76l-.02 5.02.88.42 2.8-.04h.33v3.34l.65.68h-.63l-.13 2-1.26-.65-.74.55.78.86v1.26l-7.97.01v-10.75l2.62-.02z"/>
    <path region="33" short-name="7" long-name="State House District 7" value="1" d="M629.73 337.53h1.34v1.37l4.47.05-.03 3.3-.77-.01-.01 1.52-1.98-.01-.08 8.6-.01.82-5.07-.03-.01 1.78-1.53-.01.02-1.8-13.74-.13-.02 4.64h4.02l-.05 5.42h-4.25l-1.08-.43v-.9l-1.34-.02v.68h-4.04l-2.6.08-5.37-.6v-1.26l-1.48-.03-.71-.56h-2.65l-.52-.31-.01-2.06 2.72.01v-2.69h2.62v2.68l5.26.06 5.45-.03v-8.08h4.07v-.67l4.47.04.08-9.46 3.86.03.02-2.03 1.57.01.01-1.36 1.78.03-.01 1.3z"/>
    <path region="34" short-name="11" long-name="State House District 11" value="1" d="M567.92 282.32v7.34l.93.68 1.76.02-.01 4.08-1.3.03-.1-.35-1.29.03v.94l-4.02.12-1.35.28-.69.37-2.03-.01.01-.62h-1.1l-.25.53-1.35.77-.8.02-.63-.37-.95.49-.33-.8-1.37-.03.08-13.53 8.04.03.03-1.35h.83l-.01 1.35 1.95-.02-.07-1.33 1.3 1.35z"/>
    <path region="35" short-name="31" long-name="State House District 31" value="1" d="M576.28 341.55h1.34v1.2l.63.06.09 1.17 1.06.16.91-.7.13-1.92 3.9.02.34-1.25 1.48 1.26.18-1.32h-.66v-1.35h1.31v-5.37l8-.08.06.69-1.17 1.46-.15.53 1.5.35h1.43l-.77 1.02-2.24.01v.66l-.68.52v1.5h1.48l-.82.96-1.1 1.67-1.42 1.37-.19.71-.88.67-.11 1.01-.76 1.31-.42.3-1.18 2.53-1.19.9-.62-2.01.32-1 .7-.98-1.1-.01-.04-.68-3.5.04-.4.32-.1 1.42-1 .21-.68-.66h-.62l-.36-.68h-1.34l-.01-3.03-1.29.33z"/>
    <path region="36" short-name="38" long-name="State House District 38" value="1" d="m570.21 391.13.65-.62-.32-.95.33-.66-.87-1.08.08-.62h.8v1.34h1.32v.64l1.33.04-.02.68h1.69v-.66l1.32-.31 1.02.06-.01 1.58h1l-.18-.66 1.56.79.28.55h1.09l.08 1.34 2.16-.02.33.67.88-.67 1.5.02.63.57-.07 7.49-14.04-.03-1.2.01-1.49-.08-1.94.06.03-8.05h2.57l.13-.78z"/>
    <path region="37" short-name="1" long-name="State House District 1" value="1" d="m566.9 381.4 1.33.43h2.67v-1.35h-1.33l1.34-1.34v-3.36l1.08-.33 2.92.03v.98l5.37.03-.02 5.36-1.82-.01-.46.2-.12 1.14h-.93l.65-1.34v-1.67l-.33-.35-1-.01-.01 3.36h-1.03v.69l-1.29-.04-.36.7-.02 3.71 1.34.32-.01.53-1.34.14-1.33-.04v-.63l-1.32-.01v-1.35h-.8l-.07.63.86 1.08-.33.66.32.95-.65.62-.02.57-5.52-.02v-.71l4.54-.04-.14-.4-1.43-.64-.58-.97-1.57.97h-2.32l-.34-.53v-1.48h2.68v-.68h2.04l.67-1.3 1.26-.04v-.67l-.6-.69-.65-1.22-.67.11-.68-.5z"/>
    <path region="38" short-name="40" long-name="State House District 40" value="1" d="m596.14 386.16 1.13-.5 1.74-1.3 1.05-.56-.01-.39 1.64.38.76.76 5.79-.01.02-3.8 1.7-.12.95-.54.52-.25 1.01.67 1.17.03-.1 4.03h2.75l-.02 2.7 2.3-.04v2.72l-5-.01.01-2.66-.94-.01-.4.86-.02 1.8-3.22.01-1.73-.82v.82l-1.73.02-.02 2.5-1.34.16v.7l-1.65-.04-1.01.34-.84-.34-.5.33.04-3.69-3.36-.03-.64-.48-.26-.98.34-1.2z"/>
    <path region="39" short-name="44" long-name="State House District 44" value="1" d="m601.36 400.65 7.77-.01 1.5.04v.88l.89.4 1.66.02.8-.32.65.34.66 1.37 8.85.1.04-2.8h2.66l-.25 20.3.07 3.98-1-.48-.23-1.1-.99-.84-.55.36-2-.01-.72-1.8-.63-.22-1.92-.13-.11-.79-1.62-.95-.62.24-1.41-1.26-.47.2-1.48-.66-.18 4.66h-.75l-.46-.9-1.07.89-2.1-.1-.79-1.25.97-1.31-4.65.01.04-2.65h1.31v-2.61l-.95-1.14-1.47-.51-.1-1.23-.02-8.67-1.32.47z"/>
    <path region="40" short-name="61" long-name="State House District 61" value="1" d="m618.54 387.22 4.62.05 1.06.03-.02 3.3-.61-.5-2.04.03v1.2l-2.28-.05.28.7.98.64 1.13-.01 1.43.62 1.05 1.8.01 2.97 2.68.02-.01 1.09h2.67l-.01 1.56H624.18l-.04 2.8-8.85-.1-.67-1.37-.63-.34-.81.32-1.66-.01-.9-.41.01-.88-1.5-.05.3-1.3h3.75l.25-1.3 3.24-.04-.11-.84-.73-.5-1.69-.01.02-1.33h-7.5l-1.17-2.86.02-2.5 1.72-.02.01-.82 1.73.82h3.22l.02-1.81.4-.86h.94l-.01 2.67h5z"/>
    <path region="41" short-name="33" long-name="State House District 33" value="1" d="m557.52 336.2.02-2.8h1.34v-2l1.35.01.02-2.7h.86l.2.68 1.6-.03v1.36l-1.31.02-.02 1.9.75.21.6-.8 2.61.03-.03-1.35h2.06v-1.35l.67.07V328l2.71.02.01-1.5-.7-.51v-1.12l.7-.56v-4.2l6.4-.04-.01-1.32 2.61-.02v-1.34h-1.34l.41-.85-.4-1.18h1.78v-.66l.92-.01.02-2.37.2-.33 2.47-.05-.03 8.14 5.59.01.04 2.58 5.34-.04.02 4.06-1.35.01v1.34h-1.33l-.01 1.51v1.19l-2.69.01v-2.68h-4.88l.14 1.3-.44 1.4-4.22-.03-.03-4.72-1.27-.01-.04-2.36h-2.63v4.9l.52.82h.84v.68h1.3l.01.66-2.64.02.02 4.04-2.7.01.01 1.33-2.65-.01-1 .33-.34 1h-1.34l.01 1.34h-1.78l-.91.18-.87-.17-.48-.45-.08-1.2-1.14-1.01-5.48.04-.04 2.56 2.66.02-.31 1.36-.57.63h-1.79l-2.58-.3-.02-3.64z"/>
    <path region="42" short-name="8" long-name="State House District 8" value="1" d="m587.05 359 1.83-.01v1.35l3.37-.02-.01-.63.53.31h2.64l.7.56 1.48.03v1.26l5.38.6-.02.6-1.33.37-2.67-.26v1.93l1.35.64h-4.7l-.03 1.35-.65-.01v1.35l-12.64.03v-.7l-.68-.69-1.32.03v-1.79l2-2.02 1.94-.05.05-.87h2.7z"/>
    <path region="43" short-name="23" long-name="State House District 23" value="1" d="m550.04 375.63.9-.43.36-1.4 5.2.01.04-2.53-1.56.03-.57-1.22.54-.78-.2-.9.81-.21-.64-1.1h2.04l.8-1.35.32-1.35-.58-.67-.67.01-.13-1.2-.33-.1-1.31-.06.22-.61 3.06-.43.03-1.3.46-1.03.98-.5.37 1.16h.67l.67-1.35h.68v1.53l.7-.7 1.32.22 2-.02-.07.74 2.04.07.04-.51 1-.16.33.84h1.35v5.37l-8.03.03-.03 5.94.03 4.03-.52 1.28-.9 1.21-.07.99.07 1.33-3.94.02V382l-.45.21-.67-1.12-.06-.8-.74-.75-1.26-.16-1.89-.68-.26-1.5h-1.34z"/>
    <path region="44" short-name="36" long-name="State House District 36" value="1" d="m602.97 362.45 2.6-.08h4.04v-.68l1.34.01v.91l1.08.43h4.25l.05-5.42h-4.02l.02-4.64 13.74.12-.02 1.8 1.53.02v-1.78l5.08.03v-.82l18.6.34.02 12.58-2.7-.06v3.52l-8.04-.21-5.38-.05.16-.84.84-.46-.18-1.23-2.27-.07v1.28h-.79l-.55.43-.04 9.94.46.46 2.2-.08.01-1.34 1.44.03.01-1.35 1.36.03-.1 6.7-2.73-.05-.04 5.37-11.78-.02-4.62-.05-2.3.03.02-2.68-2.76-.02.11-4.02-1.17-.03-1.01-.67-.52.25.01-3.58-2.66-.01-.02-5.38h-1.34v-2.71l-11.98.02v-1.35h.65l.03-1.33h4.7l-1.34-.65-.01-1.93 2.67.26 1.33-.37z"/>
    <path region="45" short-name="55" long-name="State House District 55" value="1" d="m45.77 479.52.46-.11 2.76 2 3.37 1.6.64-1.07 1.04.32 1.48 1.32.27-.97.68.17v-2.77h13.25l-.02-1.5 2.66.17v-1.33h.67l.66-.66.01 2.66 1.32 1.32h1.21l.12.68H79l.66.66v1.33h.66v11.32l-.03.53 1.2.2.13.56H80.3l-.02 3.98h1.99l-.03 1.17-1.01.22-.3-.34-1.28.11-1.44-.76-.78.04-.69-.39-.46.55-.9-.62-.35-.64-1-.14-.72.32-2.05-.18-1.42-1.59-.25-1.63-1.17-.26-.69.16-.12-1.14-1.2-.2-.01 1.33-1.97-.01v.66h-.8v-.67h-1.3l-.02.61-.8.85-.25.85h-.87l-.72-.87-1.85-1.45-.01-1.33h-.66v-1.33h-.7v-1.33l-.67-.01-1.35-1.4-.64-1.25-1.98-2.03-1.04-1.53.39-1.03h-1.74l-1.58-1.33v-.65l-1.07-.17-.84-1.81z"/>
    <path region="46" short-name="16" long-name="State House District 16" value="1" d="m602.7 523.73 1.76-.14.24-2.44.5-.67-.24-.93.43-1.12 2.47.02.22.7.78.6-.16 1.2.24.55 3.07 1.66 1.04 1.3.01 6.07 1.35-.37 1.32-1.1 1.47-.03 1.2-.77-.11 6.07-3.9-.14.28 1.05-1.12.37-3.13-.14-.04.88-.62.47-2.07-.13.05-1.26-2.6-.12.02-1.03.36-.51.03-1.5-3.1-.1-.3-1.43.1-1.7-.36-2.46.07-.86z"/>
    <path region="47" short-name="28" long-name="State House District 28" value="1" d="m552.45 378.71 1.89.68 1.26.16.74.75.06.8.67 1.12.44-.21.01-1.48 3.93-.02-.06-1.33 1.47-.01v2.41l3.24-1.08h.8v.9l-.02 1.49.68.5.67-.11.64 1.22.61.69v.67l-1.26.03-.67 1.31h-2.04v.68h-2.68v1.48l.34.53h2.32l1.57-.97.58.97 1.43.64.14.4-4.55.04v.71l5.53.02.02-.57.64.65-.13.77h-2.57l-.03 8.06 1.94-.05-.42 1.23-.77-.3-.77.57-.6-.1-.78.7-.03-2.9-.24-1-.79-1.7-.2-1.42v-3.07h-2.64l-.03 3.08-1.33-.14-1.04.52-1.25.34-1.27-.05-.47-.64-.52-1.46-1-.24-.33-.68.04-1.86-.92-2.23-.76-1 .66-.6-1.47-1.5-.54-.87.71-.67 1.31-.29.29-1.07-.01-1.34-.96.02v.65l-1.75.03-.69-1.33-.17-2.02h1.13z"/>
    <path region="48" short-name="51" long-name="State House District 51" value="1" d="M558.9 231.94h1.83v-1.37l3.33.02.01-1.35h.7l-.02 1.36 2.7-.04.01-.99 1.36.23v.76l4.91-.07.52-.55.95.63 3.13.14v.68h1.24l.05.68v1.39l1.4-.02-.04 5.4h.8l.02-.76h.72v.76l1.18-.02-.14 5.53-.33-.13-3.11.03-.55.38-.05 2.33-.16 1.35h-1.22l.21 1.38h.83l.1.74h-1.15l.01 4.64-13.52-.05.01-2.67-5.38-.03v-1.36l-3.4-.07-.68-.65.1-3.35.48-.8.8-.33.05-1.54-.2-.81 1.03-1.12-.22-1.66.7-3.12-.08-.64.52-1.48z"/>
    <path region="49" short-name="34" long-name="State House District 34" value="1" d="m580.2 330.77 4.22.02.44-1.38-.14-1.31h4.87l.02 2.68 2.68-.01v-1.19l2.68-.17v1.35l1.86-.01-1.17 1.44-.66.14v1.1l-8.01.08v5.38h-1.32v1.33h.67l-.17 1.33-1.49-1.26-.34 1.25-3.9-.02-.13 1.91-.9.71-1.07-.16-.1-1.17-.62-.07v-1.2h-1.34V338.85l2.69-.02v-2.17l.96-.49.28-.99z"/>
    <path region="50" short-name="53" long-name="State House District 53" value="1" d="m555.37 210.11.66-.2.02-.87.95-.01.73 1.09 1.7-.08.01-1.33 2.7.05.03-1.91 1.27.89 1.41.68.7-.28.33-.7.01-.98 1.9-1.02 1.83.37.63-.08.07-1.49-.51-1.05.84-.48-.31-.98.01-1.03 2.63.03.58.8.75 1.93h4.1l-.02 2.1.74.65.98.01-.4 1.92-.58.79.2.68-.28.65-.02 1.33 1.14.05-5.44-.02-1.48.1-2.69-.14-.32.66-.01 4.02-1.36-.25v.99l-4.07-.03v2.73h-1.36l-.02 1.36h-2.74l-2.26.45-.77-.78-.43-1.13-.2-1.55.1-1.78-.7-.95-.43-1.16-.16-2.1-.54-1.36z"/>
    <path region="51" short-name="24" long-name="State House District 24" value="1" d="M568.22 351.67v.6h1.4v.66l1.28.01.27.67 1.03.48.03 2.88-1.28.2-.05 1.82h-1.59l-.08.5-1 .16-.04.5-2.04-.06.07-.74-2 .02-1.32-.22-.7.7v-1.53h-.68l-.67 1.35h-.67l-.37-1.16-.98.5-.46 1.03-.03 1.3-3.06.43-.22.6 1.3.06-2.77.2-.03-2.82-.99-.11-.32.68-.59.02-.73-1.9-.61-.03-.75-.63-.05-1.24-.82.37-2.2-.04.4-1.9v-1.84l.89.61.2.51 1.54.02.72.64v-1.87l.82-.74 1.85-.07 4.28.02.3-.59 1.64-.09 1.04-.36-.06-1.74 2.68.01.04 2.07h2.24l.45.51 1.06-.04.28-.4z"/>
    <path region="52" short-name="43" long-name="State House District 43" value="1" d="m571.54 400.63 1.2-.01 14.05.03h5.32v8.13h-3.78l-1.44-1-.69.48-2.53.12-1.66-.55-3.15-.12-1.07-.25-.97 1.13-2.28-.12-1.86-2.73-.71-2.32.2-1.13-1.24-1.1z"/>
    <path region="53" short-name="15" long-name="State House District 15" value="1" d="m618.29 534.33.1-6.07.06-7.1v-5.38l2.62-.14.06-2.53 1.76-.01-.49 1.23h1.3l.02-.67h1.33l-.02 2.07 6.26.02.27.28v2.3h.94l1.4-.96.48.99-1.42-.03-1.24 2.27-.01 3.75h.67l.66.66v1.33h-.67l-.66-.67-.02 2.99 1.33.33v.69l2.65.03-.01 2.8-1.98-.15v.66h-.87l.2 1.33 6.45.07 5.3-.04.03 3.99h6.56l.07 5.28h-3.95l.02 1.3h-3.62l-.72-.44-.73 1.35-.18 1.36-.44.42-7.53-.05-.1 3.24-3.3 3.97-.88-.28v-.32h-1.63l.02-1.31-4.68-.01v-4.3l1.1-.22h2.18l.01-3.43.86-1.75-.92-1.9-1.26-1.16-1.98-3.3v-2.35l-1.3-.14v.4h-1.35l-.67-.4v1.32h-.67v-.81h-1.16z"/>
    <path region="54" short-name="50" long-name="State House District 50" value="1" d="m616.28 235.36 1.05.3 2.4.17.63-.47-.01-.88h.67v1.35l1.06.03.54 1.1.16 2.05.92 1.17.71.44 2.13-.36v.59l1.9.33.01-.76-1-.41.02-1.07 2.01.04v.47l1.2.34-.2-5.34.76-.03.07 1.85.52.68v1.36h.62l.05 2.64-.7.7-1.84-.18-3.6.16-.98-.35v1.39l-.34.34v1.01l1.37.34.14 1.34h1.88l-.35.97-2.48.08.14 1.7h-1.33l-.02 2.02-1.75 1.48-.9-.02-1.44.56-1.35 1.36-2.64.02-.08 6.8h-2.7l-.02-3.93-1.2-.06-3.14 1.31.15-1.2-.2-2.33.07-3.37h-2.7v-1.34l2.6-.02.12-1.36h4.02v-1.35l5.74.02v-2.7l-2.73.02-.02-3.07z"/>
    <path region="55" short-name="22" long-name="State House District 22" value="1" d="M618.45 515.77v5.39l-.05 7.1-1.2.77-1.47.02-1.32 1.11-1.35.37v-6.07l-1.05-1.3-3.07-1.66-.24-.56.16-1.19-.78-.6-.22-.7-.33-1.25 3.66-.12.64-.35v-.93l-1.29-.02.23-1.1 1-.72.32-1.19 1.95.03 1.04.38h1.48l.78-.36.74.88.35.98z"/>
    <path region="56" short-name="52" long-name="State House District 52" value="1" d="m558.41 221.5 2.27-.43h2.74l.02-1.38h1.35v-2.72l4.08.03v-1l1.36.26.01-4.02.32-.66 2.7.14 1.47-.1 5.44.02.2 1.37.67.68v.69H579l-.66.75.16 1.43.74 3.23.28.6.24 2.08-.04 7.62.16.54-.26 1.44-.05-.68h-1.25l.01-.68-3.13-.14-.95-.63-.52.55-4.9.07v-.76l-1.37-.23v1l-2.71.03.01-1.36h-.69l-.01 1.35-3.32-.02v1.38l-1.84-.01-.43-1-1.33-.75-.04-3.66.13-.93-.25-1.45 1.07-2.43z"/>
    <path region="57" short-name="14" long-name="State House District 14" value="1" d="m621.13 513.1-.06 2.54-2.62.14-.02-1.1-.35-.98-.74-.88-.78.36h-1.48l-1.04-.38-1.95-.03-.33 1.2-1 .7-.22 1.11 1.28.02v.93l-.63.35-3.66.12.33 1.25-2.47-.02-.43 1.12.24.93-.5.67-.24 2.44-1.75.14-5.68.02-.76.38.19 2 .64 1.3.55 2.9-2.32.73.28-.66-1-.44.1-6.23-.13.01.05-7.3-.65-.67.64-.66-.65-.65-1.29-.03v-.67l1.26.02-.01-.65 7.95.04 2.02 1.28 1.15 1.16.49-.26v-.88l1.67-1.34.04-4.03-1.02.19-.99-2.78v-1.05l-.66-1.14-2.03-4.47.65-.56-.01-.83 2.49.03v.66l-.48.7 1.92-.04.01-.66 1.34-.64 1.99-.14-.6 2.08-.13 1.53.33 1.18 1.53-.65h1.56v1.32h-1.31l-.01 1.34 1.33-.01v2.66l8.02-.02z"/>
    <path region="58" short-name="17" long-name="State House District 17" value="1" d="m605.14 535.31 2.6.12-.05 1.26 2.07.13.62-.47.04-.88 3.13.13 1.12-.36-.28-1.05 3.9.14.25.5h1.17l-.01.82h.66v-1.32l.68.4h1.34l.01-.4 1.3.14v2.36l1.98 3.3 1.26 1.15.92 1.9-.86 1.75-.01 3.43h-2.19l-1.09.22-.1-.39-.97-.56h-3.42l-.9-.84-.01-1.84-1.45-.1-1.21.18-2.14.01-.46.55-.2 1.48-1.1 1.04 1.02.66-.17 1.21-1.43-1.42-1.56-2.04-.6.06.06 1.18-1.91-.2.01-3.05.36-.7-.92-.9-.11-.5-1.99-.56-.05-.94-.64-.68-.02-2.14.75.04.11-1.7.45-.07z"/>
    <path region="59" short-name="35" long-name="State House District 35" value="1" d="m570.95 347.68.23-1.5h2.4v-.63h1.34v-4.03h1.36v.03l.06 3.32 1.29-.33v3.04l1.35-.01.36.68h.62l.68.66.11.68.14 3.86-1.18.25-2.1 1.07-.04 4.22h-2l-.66-.55-.02.54h-3.99l.05-1.81 1.28-.2-.03-2.88-1.03-.48-.27-.67h-1.28v-.67h-1.4v-.6l1.34-.07.18-1 1.16-.68z"/>
    <path region="60" short-name="37" long-name="State House District 37" value="1" d="m596.14 386.16.13 1.06-.34 1.2.26.98.64.48 3.36.03-.04 3.7.5-.34.84.33 1.01-.33 1.64.03v-.69l1.35-.16 1.17 2.85h7.5l-.02 1.34h1.69l.73.5.11.85-3.24.03-.25 1.3h-3.74l-.31 1.31-7.77.02h-14.57l.07-7.5-.62-.56-1.5-.02-.89.67-.33-.67-2.16.02-.08-1.34.02-1.33 13.54-.02.02-2.74z"/>
    <path region="61" short-name="3" long-name="State House District 3" value="1" d="m573.53 389.22 1.34-.14v-.53l-1.33-.32.02-3.72.36-.68 1.3.03v-.68h1.02l.01-3.37h1l.33.36v1.67l-.65 1.33h.93l.12-1.13.46-.2H582.26l.67.35v1l1.34-.2v.89l.63.68h2.04l7.96-.01.01-1.26-.78-.86.74-.55 1.25.66.14-2h.62l.7.72-.05 1.95h1.41l1.1.2.02.4-1.04.54-1.75 1.31-1.13.5-1.28 1-.03 2.74-13.53.02-.02 1.33h-1.09l-.28-.55-1.56-.8.17.68h-1l.02-1.59-1.02-.06-1.32.3v.67h-1.7z"/>
    <path region="62" short-name="29" long-name="State House District 29" value="1" d="m554.9 340.46 2.58.3h1.8l.56-.63.32-1.36-2.67-.02.04-2.56 5.48-.04 1.14 1.02.08 1.2.48.44.87.17.9-.18h1.8l-.02-1.33h1.34l.33-1.01 1.01-.33h2.65v-1.31l2.7-.02-.03-4.04 2.64-.02v-.66h-1.3v-.68h-.85l-.52-.82v-4.9h2.63l.04 2.36 1.28.01.02 4.72v4.4l-.27.99-.96.49v2.17l-2.7.02v2.67h-1.35v4.04h-1.34v.63h-2.4l-.23 1.5-1.69-.84-2.43.02-.01.9-1.33.05-1.33-.3v-.64l-1.19.05-1.02.83-1.26-.24-.88.15-1.03-.16-.37-.67-.6-.02.3-1.16-1.45-.1.62-1.4-2.17.06-.2-.4z"/>
    <path region="63" short-name="4" long-name="State House District 4" value="1" d="m570.9 358.99 3.99-.01.02-.54v1.79l1.32.12v4.7l.9.82-.8.76-.41 2.1.32 2.4-1.33.02v4.33l-2.92-.03-1.09.33V365.7l.01-5.37h-1.35l-.33-.84.08-.5z"/>
    <path region="64" short-name="10" long-name="State House District 10" value="1" d="m538.28 305.32 2.67-.06v.37l3.66-.02.4-.34.21-1.33 1.26.33 2.53-.63v-1.02h3.31l-.6.75-.03 2.64-.82.61 2.2.03-.01.67h-1.36v-.65l-1.11.01-.9.64-.25 1.35-1.73.02v1.33l-1.35-.02v.69h-1.33l-1.27 2.3.9.7.54-.97 2.17.03-1.08 1.21.09.79 2 .04.01 1.02.66.53v1.1l-.92.4.08 1.03-.04 5.4-1.1-.39-1.6-.94-.56-.11-.12 2.66-2.09-2.87-.75-.59-1.04-1.86h-3.82l.2-.75-.32-.9.6-.28-.05-.89.61.03-.34-1.5v-2.2h.51l.01-5.7-.38-1.63z"/>
  </g>
</svg>
