<svg xmlns="http://www.w3.org/2000/svg" auto-border-stroke-width="1" auto-border-stroke-width-limit=".5" candidates="[{&quot;id&quot;:&quot;0&quot;, &quot;name&quot;:&quot;Democrats&quot;, &quot;margins&quot;: [{ &quot;color&quot;: &quot;#1C408C&quot; }, { &quot;color&quot;: &quot;#577CCC&quot; }, { &quot;color&quot;: &quot;#8AAFFF&quot; }, { &quot;color&quot;: &quot;#949BB3&quot; }]},{&quot;id&quot;:&quot;1&quot;, &quot;name&quot;:&quot;Republicans&quot;, &quot;margins&quot;: [{ &quot;color&quot;: &quot;#BF1D29&quot; }, { &quot;color&quot;: &quot;#FF5865&quot; }, { &quot;color&quot;: &quot;#FF8B98&quot; }, { &quot;color&quot;: &quot;#CF8980&quot; }]}]" country="usa" date="2024208" original-source="[&quot;https://www.michigan.gov/micrc/mapping-process-2024/final-remedial-state-senate-plan&quot;]" title="Michigan 2026 State Senate" type="mi_upper" variant="blank" version="1.1" viewBox="0 0 1000 1000">
  <g map-type="regions">
    <path long-name="State Senate District 1" region="0" short-name="1" value="1" d="m833.32 905.73-.04-2.1h-.13v-1.05l-3.4.1-.01-1.96-.09-.05-.03-1.13-.47.02-.06-2.1.46-.02-.03-1.06 1.6-.02 2.03-.07h1.1l2.02-.05 1.58 3.14.13.39.6 1.12.17.21 1.4-.68 1.78 3.59 1.16-.67.36 1.04 1.08 2.23.22.66.36.48.34.68.2-.02.15.32-1.08.64.21.38-.95.37-1.48.66-1.75 1.4-1.14 1.58-.75.95-.24.43-.9 2.42-.39 1.35-1.01 2.07-.52 1.13-.1.52-.32 3-.13 1.62-1.23-.02-.42.54-.2.94h-.18l-.28.79-.14.25-2.68.06-.05-2.11-.1-3.1-2.06.04-.02-.36-.05-1.32h-.12l-.07-1.94.62-1.45 1.37-2.22.53.38.43.42.55.18.9-1.4.35-.66-.35-.43-.3-.7-.3-.41.57-.33.33-.02.16-.47.58-.15.21.1.2.43.56-.26.12-.15.12-.52-.22-.94.2-.19.09-.31-.1-.3-1.34-2.46-.35.13-.05-1.41.27-.04.38-.24.15-.3.2-1.3Z"/>
    <path long-name="State Senate District 2" region="1" short-name="2" value="1" d="m815.89 905.25 2.02-.18 3.01-.1.18 2.23.98-.02 1.32-.17 2.86-.06-.03-1.04 2.07-.04 5.02-.14.22.28-.21 1.28-.15.32-.38.23-.27.04.05 1.4.35-.12 1.33 2.47.1.29-.08.31-.2.2.22.93-.12.51-.12.15-.55.27-.2-.43-.22-.1-.58.15-.16.47-.33.02-.57.33.3.4.3.7.35.44-.35.65-.9 1.41-.55-.18-.43-.42-.53-.38-1.37 2.22-.62 1.45.07 1.94h.12l.05 1.32-.48.05-.2-.57-.16-.15-4.35.12-1.1.07-3 .1-2.15.16-.15-6.25-.04-1.05 2.09-.06-.1-4.08-.04-1.14-2.11.05Z"/>
    <path long-name="State Senate District 3" region="2" short-name="3" value="1" d="m855.62 891.5-2.9.06-.44.03-3.39.1-1.19.07-5.23.17-3.58.06-.58-.04-1.08.05-3.1.08.13 4.2 2.01-.04 1.58 3.14.13.39.6 1.12.18.21 1.39-.68 1.79 3.59 1.15-.67.36 1.04 1.08 2.23.22.66.36.48.34.68.2-.02.15.32-1.08.64.2.35 1.51-.66.06-.02.77-.24.53-.1 2.66-.17 2.4-.83.69-.25.62-1-1.4-.78.27-.4.93.07 2.48-.35.4-.2.01-.01.05-.06-.23-.44.06-.04-1-2-.76-1.59 1.21-.4 1.4-.73.4-.69.8-2.3.07-.51-4.36-2.43-.03-.07.96-1.72.2-.3z"/>
    <path long-name="State Senate District 4" region="3" short-name="4" value="1" d="m808.88 913.83-2.7.1.03.35.17.31.01.36-2.74.08.09 3.09-.06.1-3.67.15-2.72.06-1.95.08-4.11.13-.08 2.22.03 2.17.07 2.06v.95l.08 2.63.17 6.52.19 8.93 4.2-.1 4.12-.13 4.37-.08-.02-.83 6.55-.07 6.87-.03.22.27.23.02.13.28.34.3h.23l.12.3.64.49-.35.25.43.28-.1.35.47.24.27-.17.18.35-.13.33.26.33.35-.03.18-.5.3-.21.23.08.27.49.1.32.28.06-.35.52.52.08.14.4.59-.12.24.25h.19l.26.26.24-.15.22.6.37.05-.03.42-.16.3.17.17.42-.11.25.09.4-.06.14.6.5.39.27-.24 1.1.69.47-.14.83-.65.1-1.08-.59-2.02.12-1.64.56-.3.37-.56.46.15.53 1 .4-.15-.37-1.55 1.21-.38.35.6.61-.49 1.05-.25 1.13.09.49-2.13.66-1.8.22-1.12-.65-1.78-.56-3.5-.4-1.84.3-4.06-1.18-.02-.42.54-.2.94h-.18l-.28.79-.14.25-2.68.06-.05-2.11-.1-3.1-2.06.04-.02-.36-.48.05-.2-.57-.16-.15-4.35.12-1.1.07-3 .1-2.15.16-.15-6.26-4.18.12v-.39l-.1-2.75-3.1.1-.04-1.05z"/>
    <path long-name="State Senate District 5" region="4" short-name="5" value="1" d="m790.6 899.84 2.13-.14 2.07-.08 2-.2 2.35-.09 1.92.1 2.11-.08.19 6.29 4-.13 1.7-.04 6.82-.22.2 6.28 2.12-.05.03 1.14.1 4.08-2.08.05.04 1.05-4.18.12v-.39l-.09-2.75-3.1.1-.05-1.05-2.7.1.03.35.17.3.01.37-2.74.08.09 3.09-.06.1-3.67.14-2.72.07-1.95.08-4.11.13-.05-2.09-.13-4.17-.15-4.18-.08-2.09Z"/>
    <path long-name="State Senate District 6" region="5" short-name="6" value="1" d="m815.46 892.69 4.13-.12 4.14-.16 4.15-.13.42-.03 2.7-.07 3.12-.1.13 4.2-1.1.01-2.02.07-1.61.02.03 1.06-.46.02.06 2.1.47-.02.03 1.13.09.05.01 1.96 3.4-.1v1.06h.13l.04 2.09-5.02.14-2.07.04.03 1.04-2.86.06-1.32.17-.98.02-.18-2.22-3 .1-2.03.17-.08-2.48-.15-3.8Z"/>
    <path long-name="State Senate District 7" region="6" short-name="7" value="1" d="m826.44 853.9.13 2.28.07 1.55.07 2.18.24 6.64.11 3.6.2 5.85.3.4.22-.13.54.2 1.04-.03.04.98-.78.02.01.34.83 1.22v.6l-2 .07.24 7v.15l.1 3 .08 2.46-4.15.13-4.14.16-4.13.12-.18-5.25-.08-2.5-.08-1.83-.1-3.02-.05-2.24-.1-2.48-.09-.4.07-.18-.15-4.25-.09-2.1-.06-.41.07-.4-.06-1.57h-.94l-.04-.66.96.11-.11-2.93-.1-.36-.27-.45-.4-.4-.13-.27.01-.3.2-.3-1.22-1.18-.32-.18.02.47-.55-.03v-.76l-.43-.06-1.48-.46-.4-.35.12-1.23-.02-.65.4-.97-.12-.35-.16-.15 4.56-.18 2.39-.17 1.78-.07 1.3-.01 2.7-.13 1.84-.04 1.3-.08Z"/>
    <path long-name="State Senate District 8" region="7" short-name="8" value="1" d="m815.02 880.09.1 3.02.08 1.84.08 2.49.18 5.25.2 6.28.15 3.8.08 2.48-6.83.22-1.68.04-4.01.13-.19-6.3-2.11.09-1.92-.1-2.35.1-2 .2-2.07.07-2.14.14-.07-2.1-.17-4.06-.21-5.25-.14-3.14 2.07-.08 2.13-.1v.11l2.58.75.33.07 1.37.16.12 2.93 3.1-.13 1.14-.07-.27-8.41 3.36-.15 6.32-.25 1.38-.04Z"/>
    <path long-name="State Senate District 9" region="8" short-name="9" value="1" d="m839.1 853.46.17 5.35.2.33.57.06.23.2.16.33.26.15.94-.02 1.94-.11.04 1.6.33.5-1.62.09-.05-.19-.43-.17-.37-.02.07 2.55 1.2-.04.3.16 1.1 1.37.3.27.34-.4-.24-.46h.41l.85-.26v.23l1.05-.02v-.56h1.01l.03.53 2.12-.06.04 1.04-2.11.08.1 1.77-.07.44-.24.56-.2.2-1.06.71-.32.51-.12.9.08 2.64.12 3.43v.75l-.07 1.09-2.01.07-4.5.21-2.56.1-1.32.03-.03-1.07-2.1.08-.04-1.11-2.1.05.04 1.1-.65.06h-1.44l.01.5-.83-1.23-.01-.34.78-.02-.04-.98-1.04.03-.54-.2-.22.12-.3-.39-.2-5.85-.11-3.6-.24-6.64-.07-2.18-.07-1.55-.13-2.29 7.07-.26 1.37-.02 3.68-.11Z"/>
    <path long-name="State Senate District 10" region="9" short-name="10" value="1" d="m829.46 879-.01-.48 1.44-.01.65-.06-.03-1.1 2.09-.05.03 1.1 2.11-.07.03 1.07 1.32-.03 2.56-.1 4.5-.21 2.01-.07.07 3.17.1 3.33 1.24-.02v.92l.05 3.21.08 2.16-5.23.17-3.58.07-.58-.05-1.08.05-3.1.08-3.13.1-2.7.07-.42.03-.07-2.46-.12-3 .01-.14-.23-7 1.98-.09Z"/>
    <path long-name="State Senate District 11" region="10" short-name="11" value="1" d="m850.05 865.91 2.1-.06.12 4.03.14 4.78.4-.01.29 1.1.8-.31.63-.58 1-.25.25-.21 2.1-.09.92-.07 1.72-.06.31.05-1.05 2.66-.8 1.65.54-.01.03 2.16.07 1.55v.56l-1.61.05.05 1.54.08.6-.04 1.33.06 2.04-.22.48-.36.56-.66 2.05-.65.06h-.65l-2.9.05-.44.03-3.39.1-1.19.07-.08-2.16-.06-3.2v-.93l-1.23.02-.1-3.33-.07-3.17.07-1.09v-.75l-.12-3.43-.08-2.64.12-.9.32-.51 1.05-.7.2-.2.25-.57.06-.44-.1-1.77Z"/>
    <path long-name="State Senate District 12" region="11" short-name="12" value="1" d="m890.88 851.7-4.75.15-4.89.24-3.13.16-3.04.1-4.34.13-6.41.16.05 1.07.1 3.19-.02 1.53.08 2.7.09 2.16.04 2.12-.67-.04-1.46.05-1.15.14-.17.66.07.98-.74.03-.02.53h-.39l-.07.45-.04.9-.08.24v.85l-.06 1.06.03.3.29.14-.04.8-.24-.08-.12.24.34.19-.05.55.03.58-1 .04-.15-.3-.17.51 1.72-.05.31.05-1.05 2.66-.8 1.65.54-.01.03 2.16.07 1.55v.56l-1.61.05.05 1.54.08.6-.04 1.33.06 2.04-.22.48-.36.56-.66 2.05-.65.06h-.65l-.2.29-.96 1.72.03.07 4.36 2.43-.07.52-.8 2.3-.4.68-1.4.73-1.21.4.77 1.59 1 2-.07.04.23.44.4-.49.1-.76.9-1.52 1.21-.57 1.05-1.06.57-1.25.3-1.48.76-3 .52-.93-.07-.9.65-1.9-.76-.78-.16-1.7-.78-.67.1-.46.11-3.08.84-3.27.4-.77 1.22-1.89 1-1.13.06-.86.46-.84 1.16-.92 1.41-.42.5.15.67-.24 1.42.04.81.39.5.69.3-1.02-.77-2.03.22-1.1-.67-1.12.06-.7-2.1-.85-.9-.68.02-1.58.74-2.12.84-1.15.9-.77.52-.15 1.23.41 2.2-.62.02-1.06.72-.86.67-.45h1.23l-.01-.4.99-1.04 1.84-.12.87-.87 1.65-.07 1.2.44 1.55 1.22.7.93.56-.43 1.35-.05.47.32.76 1.15.08 1.38-.36 1.23-.48.77-.87.31-.35-.62-1.13-.91-.32.46-.64 1.72-.3.49-.08 1.16-1.06-.37-1.55-.06.67.6.21.63.58.35-1.17 1.43-1.46-.04-1.3 1.26.2 1.02 1.06.72 1.48-.48 1.1-1.18.8.6.94-.39.28.74-.38 1.35-.66.06-.3.61-.47-.35-.64.68.01.63-.7.61.45 1.54.79-.88 1.56-1.02.91.55.53.8-.36.86-1.4 1.03-.7 1.2-.93.35-.2.75.25 1.18 1.24-1.67.55-1.09.62-.57.42-.39.1-.09.92-.85.65-.23.41-.15 1-.04.78.35.66.67.42.26.26-.02.36-.08 1.09-.26.68-.45.46-1.64 2.7-2.8.66-1.05 2.43-2 .71-1.19.94-3.4-.06-2.32v-.06l-3.5-1.54.08-.2-.57-.24-6.35.23.03-.11-.14-3.1-.12-4.17-.05-1.2z"/>
    <path long-name="State Senate District 13" region="12" short-name="13" value="1" d="m776.98 868.89 3.04-.2 1.88-.09 1.95-.12 2.73-.13 2.99-.13 1.95-.15 2.17-.1 8.28-.27.13-.04-.27-7.9 1.89-.07.68-.11 1.49-.03-.02-.56 2.1-.08.08 2.17.65.3-.07-.24.4-.09.67-.65-.01-.26.21-.22.64-.27.2-.21.18.13.24-.1v-.57l.08-.14.42.06v.76l.56.03-.02-.47.32.18 1.22 1.18-.2.3-.01.3.12.27.41.4.28.45.09.36.12 2.93-.97-.11.04.67h.94l.06 1.56-.07.4.07.4.08 2.1.15 4.26-.07.18.09.4.1 2.48.05 2.24h-1.39l-1.38.03-6.32.25-3.36.15.27 8.41-1.13.07-3.12.13-.11-2.93-1.37-.16-.33-.07-2.57-.75v-.12l-2.14.1-2.07.08.14 3.15.21 5.25-6.08.29-5.97.29-.2-4.23-.31-6.18-.06-.78-.3-5.77-.35-5.93Z"/>
    <path long-name="State Senate District 14" region="13" short-name="14" value="1" d="M678.38 895.59h4.22l6.82-.02h14.12v-.37l5.15-.01.03.01h4.87l1.32-.01h2.5l.07-.02h4.68l3.22.02 4.89.04h1.99l2.33.04 3.48.04h2.82l4.14-.02 1.41-.02h1.97l2.1-.06 1.94-.09 2.33-.08 2.14-.1 5.68-.2 5.22-.21 2.1.12 3.41-.17 2.99-.12 1.98-.1 5.97-.3 6.08-.28.17 4.06.07 2.1.23 6.27-4.97.16-3.84.15-3.42.15.09 4.93-.92.03-.73.32-1.1.41.02 1.02.23.54.56.64.22.42-1.7.08h-.9l-2.45.12-.08-.55-.41.02-.52.58-.28.05-.38-.33-.08.58-.98-.04-.15.03-.03.6-.72-.03.02 1.04h-.43l-.5-.22.07-.17-1.9.53-.04.85.04.49.12.3.42.73.04 2.96v.55l.05 1.8-.2.06-.66-.27-.69-.01.03.65-1.04-.03v.5l-1.28.02-.13-.47.4-.04-.05-1.6-1.53.07-.03-1.05h.48l-.01-1.07-1.08.02.01-.37-.54-.03-.03-.64-1.98.08-1.35.13-1.05-.02-1.86.17.16 5.91v.63l.13 3.31.03 1.43-1.07-.02-3.03.27-2.5.07-.4.1-.5-.09-5.07.08-.04.42-5.46.15-5.19.13-2.46.04v1.79l.12 3.96.05 2.56.06 4.45-5.12-.32-1.96.02-5.23.06h-5.23l-3.05-.02h-6.17l-3.9.05-5.4.03-.9-.01-1.19.03-5 .07-4.5.06h-1.58l-.04-3.09-.13-8.36-.12-2.32-.03-1.34-.13-2.67-.06-2.4-.2-4.6-.02-1.35-.04-6.06-.04-5.73v-3.7l.01-5.75Z"/>
    <path long-name="State Senate District 15" region="14" short-name="15" value="1" d="m790.82 906.11.08 2.09.15 4.18.13 4.17.05 2.09-.08 2.22.03 2.17.07 2.06v.95l.08 2.63.17 6.52.19 8.93-4.72.12-6.72.13-.91-.09h-.7l-.1.51.05 1.57-.93.01-.01-.52-.9.02.35.23.02.8-.7-.04-.26-.98-.35.11-.48.01-.5.42-1.39.04-.17-2.05-6.63.17.25 11.48-1.72.05-4.54.08-2.14.06-3.85.07.03 1.05-4.35.13-.73.1-.27-.06v.46l-.92.02v-.32l-.65.02v-.16l-5.74.15-.09-2.6-.06-2.6-.17-4.56-.06-2.1-3.4.06-4.9.14-2.84.02-2.08.07-.06-4.45-.05-2.56-.11-3.96-.01-1.78 2.46-.05 5.19-.13 5.46-.15.04-.42 5.07-.08.5.08.4-.1 2.5-.06 3.03-.27 1.07.01-.03-1.42-.13-3.31v-.63l-.16-5.91 1.86-.17 1.05.02 1.36-.13 1.97-.08.03.64.54.03-.01.38 1.08-.03v1.06H761l.03 1.06 1.53-.06.06 1.59-.4.04.12.47 1.28-.03v-.5l1.04.04-.03-.65.7.01.64.27.2-.05-.04-1.81v-.55l-.04-2.96-.42-.73-.12-.3-.04-.49.04-.85 1.9-.53-.07.17.5.22h.43l-.02-1.04.72.03.02-.6.16-.03.98.04.08-.58.38.33.28-.05.52-.58.4-.02.09.55 2.44-.11.92-.01 1.7-.08-.23-.42-.56-.64-.23-.54-.03-1.02 1.1-.41.74-.32.92-.03-.09-4.93 3.42-.15 3.84-.15Z"/>
    <path long-name="State Senate District 16" region="15" short-name="16" value="1" d="m817.78 942.88-6.87.03-6.55.07.01.83-4.36.08-4.13.12-4.2.11-4.71.12-6.72.13-.91-.09h-.7l-.1.51.05 1.57-.93.01-.01-.52-.9.02.35.23.02.8-.7-.04-.26-.98-.35.11-.48.01-.5.42-1.39.04-.17-2.05-6.63.17.24 11.48-1.7.05-4.55.08-2.14.06-3.85.07.03 1.05-4.35.12-.73.11-.27-.06v.46l-.92.02v-.32l-.65.02v-.16l-5.74.15-.08-2.6-.07-2.6-.17-4.56-.06-2.1-3.4.06-4.9.14-2.84.02-2.08.07-5.12-.32-1.96.02-5.23.06h-5.23l-3.05-.02h-6.17l-3.9.05-5.4.03-.9-.01-1.19.03-5 .07-4.5.06h-1.58v7.49l.01 2.87h-2.7l-.7-.05-1.8.02-1.8-.01-5.46.01v2.69l.02 1.85-.01 4.34v5.76l.03 4.52v13.25l.03 7.23.02.82v2.66l1.4-.03 1.54-.06 1.2-.02 3.36-.1 1.44-.05 2.43-.06h.05l3.06-.08 3.9-.12h.26l.33-.01 9.43-.27.49-.02 4.12-.13 1.91-.05 2.23-.06 9.09-.35.6-.03 2.06-.07h.13l12.26-.45 4.06-.18 2.2-.1.7-.03 3.05-.13.41-.02.64-.02 1.24-.06 2.17-.02 10.58-.45 1.72-.02 1-.05 1.58-.11 10.31-.34 1.36-.05h.15l2.67-.14 1.58-.05 2.56-.2h.89l7.64-.3h.04l2.09-.09 7.8-.28 4.39-.17h.49l1.19-.04.26-1.11-1.75-.04-.08-.67-1-.84-.06-.86.84-.32.24-.45.72.65 2.43-.1.13.13.06 1.76.41-.1.77.64-.13-1.27-1.4-3.87-.26-1.8.5-3.25.58-.78 1.56-.4 1.01-.92.05-.37 1.25-3.03.74-1.06.77-1.53 1.36-1.05 1.38.37 1.21-.37.43-.36.72-1.48.25-2.5.23-1 .45-.29.07-1.17.74-1.31.57-.56 1.41-.97.47-.11 1.31.04 1.54.68.48 1.28.3-1.23.98-.81-.55-1.14.2-.95.7-2.03.84-.57.5-.57 1.18-.93.2-.44-1.23.04.24-.5 1.37-.25.47.5.1.62 1.04-.52-.38-.57.18-1.46.4-.4-.46-.86.86-.5.42.22.53.8.63.35.44-1.49-.43-1.05h-.84l-1.03-1.21-1.02-1 .01-.01-.49-.39-.14-.6-.4.06-.25-.1-.42.12-.17-.17.16-.3.03-.42-.37-.05-.22-.6-.24.15-.26-.27-.2.01-.23-.25-.59.13-.14-.41-.52-.08.35-.52-.29-.06-.09-.32-.27-.5-.24-.07-.3.21-.17.5-.35.03-.26-.33.13-.33-.18-.35-.27.17-.48-.24.11-.35-.43-.28.35-.25-.64-.5-.12-.3-.23.02-.34-.31-.13-.28-.23-.02-.22-.27z"/>
    <path long-name="State Senate District 17" region="16" short-name="17" value="1" d="m641.38 895.56.06 6.82-.02 1.72.05 1.05.05 3.68.06 4.67.03 2.13.63.14-.01-.65h.26l.02 1.04-.05.31H642v.25h-.25l-.12.29.03 2.01h.36l.02.7h-.37l.01 1.69h.35l.04-.5.5.01-.03 1.15h-.2l-.28.41-.35.27.04 1.95.06 9.24.06 6.5.01 5.56-5.2-.05h-7.41l-6.27.04-4.18.02h-1.99l-4.16.03-2.1.03-2.12.01-1.17.04-.87-.01-1.82.03-4.6.02h-4.32l-3.87.03-.01-.01-8.33.06h-2.1l-8.4.1-4.17-.03-2 .01-4.12.06-8.44.08-6.72.01-4.72-.01-.53-.01-4.37-.01-3.97-.03-6.7-.08-1.58.01-5.74-.04-.49-.02-4.09-.05h-2.07l-2.11-.03-1.56.01-4.47-.06.01 12.5h-1.96l-4.24-.07-1.34-.03-3.41-.04-1.51-.01v1.28l-.4.13-.37.33-.32.47-.83.26-.26-.27.17-.5-.13-.58-.52-.2-.17-.16v-.27l.17-.28-.35-.27-.56.03-.66.4-.2-.37-4.96-.02-3.05.02-6.23.02h-2.75l-2.39-.04v.01l-1.09 3.56-.99 2.68-1.68 3.44-1.07 1.68-1.48 2.1-3.09 3.38-1.96 1.82-.83 1.01-.8 1.22-2.3 1.76-1.19 1.23-6.43 4.95-5.08 3.5h4.22l2.32.03h1.65l8.5.05h3.02l1.6.01h1.52l1.04.01h2.4l3.71-.01h7.8l6.02-.02h.56l1.33-.02.25.01 4.49-.02 1.33-.02 2.87-.02 3.05-.04 1.16.02 2.07-.02 1.4.02 5.85-.01h2.08l6.23-.03 4.4.02h2.82l1.56.03 3.26.02.48.02 5.45.03 2.51.01 2.9.05h1.89l8.61.05h18.38l3.87-.02h.87l2.1-.02 1.04-.01h.7l2.2-.01.24.02 10.78-.05.67-.02H596.35l6.44-.04 14.51.07 5.87-.01 8.3-.04 2.44.03h.27l3.56.04 4.35-.03h1.02l3.31-.01 4.83-.02 3.1-.01h.05l2.02-.03h.01l.01 1.15-.02 2.1.01.65v5.27l5.96-.3 3.18-.1h.2l.26-.01.76-.03h.02v-3.48l-.03-7.23v-4.15l-.02-5.43.01-3.67-.02-4.52-.01-5.76.01-4.34-.02-1.85v-2.69l5.46-.01 1.8.01 1.8-.02.7.05h2.7v-2.87l-.01-7.48-.04-3.1-.13-8.36-.12-2.32-.03-1.34-.13-2.67-.06-2.4-.2-4.6-.02-1.35-.04-6.06-.04-5.73v-3.7l.01-5.75v-3.15l-2.14.02h-3.01l-9.04.05-4.76-.01-8.33-.04-2.09-.02-6.29-.02h-1.35zM484.38 930.1l-.26.37.08-.1.18-.27zm-1.16 1.55-.6.77-.1.12.4-.47.3-.42zm-1.49 1.95-2.08 2.8.25-.3 1.63-2.2.2-.3zm-2.88 3.82-1.1 1.28h.01l1.08-1.25.01-.03zm-4.7 9.53-.31.69.3-.64.02-.05zm-3.79 7.6-.33.66.14-.23.2-.43z"/>
    <path long-name="State Senate District 18" region="17" short-name="18" value="1" d="m577.41 832.8 4.45-.11 5.16-.1 2.87-.05-.13-5.82-.15-6.16.04-2.88.03-3.73v-3.38l.03-1.4-.02-1.8 5.8-.04 6.85-.1.02 1.93.03 4.48v6.11H615.02l.02 6.31v6.35h4.24l8.42.02.03 6.92.04 5.64-.06 6.26-.01 2.21-.07 4.2v1.37l.04 8.76.07 8.94.08 6.24.05 3.48.1 5.01.09 4.2 7.67-.08 5.64-.02.07 6.82-.02 1.72.05 1.05.05 3.68.06 4.67.02 2.13.64.14-.01-.65h.26l.02 1.04-.04.31h-.48v.25h-.25l-.12.29.03 2.01h.36l.02.7h-.37l.01 1.69h.35l.04-.5h.5l-.03 1.16h-.2l-.28.41-.35.27.04 1.95.06 9.24.06 6.5.01 5.56-5.2-.05h-7.41l-6.27.04-4.18.02h-1.99l-4.16.03-2.1.03-2.12.01-1.17.03h-.87l-1.82.03-4.6.02h-4.32l-3.87.03-.04-3.68v-.6l-.04-4.12-.07-4.25-.07-9.97-.03-2.46 3.56-.02 1.16-.02h1.91l.56-.02 3.17-.04h2.09l-.02-1.05-.04-9.46-.02-1.04-.03-3.62-.09-5.74-.08-4.13-.14-.07-2.83.01h-4.35l-4.24-.05-1.85-.01-3.18-.08-4.19-.06-1.03-.03-3.06-.02h-3.26l-.95.02-6.3.03-3.1.04-3.15-.02-3.22-.01-1.9.03-2.92.02-5.6.03-4.54.05-3.78.05-.03-3.97-.07-2.64-.03-2.64-.02-3.27 2.07-.02 3.06-.05.46-.04h1.77l5.15-.12-.13-6.33.02-1.06-.05-1.07-.01-2.1-.05-1.06.04-.98 1.64-.03 3.59.03 3.17.02 1.35.06h2.85l-.02-.25.04-5.4.04-4.36.02-.38-.04-6.84-.07-5.94v-2.08l2.03-.02h4.2l6.34.01v-9.51Z"/>
    <path long-name="State Senate District 19" region="18" short-name="19" value="1" d="m554.04 895.77 2.91-.02 1.9-.03h3.23l3.15.03 3.1-.04 6.3-.03.95-.01 3.25-.01 3.06.02 1.04.03 4.2.06 3.17.08h1.85l4.24.06h4.35l2.83-.01.14.07.08 4.13.09 5.74.02 3.62.03 1.04.04 9.46.02 1.04-2.1.01-3.16.04-.56.02h-1.9l-1.17.02-3.56.02.03 2.46.07 9.97.07 4.25.05 4.12-.01.6.04 3.68-.01-.01-8.33.06h-2.09l-8.42.1-4.16-.03-2 .01-4.12.06-8.44.09-.1-8.05-.07-4.61-3.14.02h-6.73l-2.21-.02v-2.07l-.02-4.21-.04-2.1-.05-4.25 5.77.02h2.57l1.6.01h2.1v-7.32l.05-5.25.09-6.26.02-4.32v-2.15Z"/>
    <path long-name="State Senate District 20" region="19" short-name="20" value="1" d="m552.18 832.54-.07 4.25-.01 3.25.01 3.19.03 2.13-4.22.06-2.99.03-3.32.01-2.17-.02-4.2-.11-2.12-.05-3.16-.02h-2.99l.22 6.09.09 3.55.05 2.98-4.46-.01-3.87.02-4.63.07h-4.56l-.35.02h-3.14l-.03.18v.02l-.2 1.3-.22.85-.04.21-.04.11-.13.55-.94 2.1-.22.9-.04.23.06 1.6.03.25v.29l.03 1.08.07.83.11.82.05 1v.02l.02.27-.06.32-.01.2-.23 1.17-.1.6-.54 1.54-.36 2.52-.27 1.4-.05.32-.05.55v.11l-.1.75-.45 4.51-.02 1.17-1.13 5.3-.5 1.65-1.6 4.17-.86 1.66.05 1.05-.92 3.13-.44 2.12-1.24 3.48-2.08 5.21-2.96 6.32-1.66 3-1.45 2.33-2.03 3.02-1.38 1.91-.18.27-.08.1-.48.65-.42.53-.3.42-.4.47-.79 1.06-.2.3-1.63 2.2-.25.3-.53.7-.27.32-.01.03-1.08 1.26v-.01l-.65.74-.29.65-.25 1.23-1.19 2.97-1.22 2.66-.02.05-.3.64-.08.16-.06.12v.02l-.02.03-3.32 6.58-.2.43-.13.23-.17.34-.53 1.5-.5 1.43 2.39.04h2.75l6.23-.02 3.05-.02 4.96.02.2.38.66-.4.56-.04.35.27-.18.28v.27l.18.17.52.19.13.59-.17.49.26.27.83-.26.32-.47.37-.33.4-.13v-1.28h1.5l3.42.05 1.34.03 4.24.07h1.96l-.01-12.5 4.47.06 1.56-.01 2.11.03h2.07l4.09.05.5.02 5.73.04h1.58l6.7.07 3.97.03h4.37l.53.02 4.72.01h6.72l-.1-8.05-.07-4.61-3.14.02-3.09.01-3.64-.01-2.21-.02v-2.08l-.02-4.2-.04-2.1-.05-4.25 5.77.02h2.57l1.6.01h2.1v-7.32l.05-5.25.09-6.26.02-4.32v-2.15l-.02-.14-5.6.03-4.54.05-3.78.05-.03-3.97-.07-2.64-.03-2.64-.02-3.27 2.07-.02 3.06-.05.46-.04h1.77l5.15-.12-.12-6.33v-1.06l-.04-1.07-.01-2.1-.05-1.06.04-.98 1.64-.03 3.59.03 3.17.02 1.35.06h2.85l-.02-.25.04-5.4.04-4.36.02-.39-.04-6.83-.07-5.94v-2.08l2.03-.02h4.2l6.34.01v-9.51l-.03-3.06h-4.64l-3.8-.03-4.49-.04-.53-.02-.17.21-.05.56-.38-.36-.11-.42h-1.6v.45h-.75l-.3-.1-.06-.26-.63-.11v.24l-.8.04-.6-.29h-1.08l-2.08-.06v.1h-1.06l-.01.54-.29.12h-.5v-.4h.18l.01-.4-1.5-.03z"/>
    <path long-name="State Senate District 21" region="20" short-name="21" value="1" d="m714.76 869.65.08 6.13.02 2.96.05 1.84.01 2.6-.01 8.32v3.69l-1.32.01h-4.87l-.03-.01h-5.15v.38h-14.12l-6.82.02h-4.22l-2.13.02h-3.02l-9.04.05h-4.76l-8.33-.05-2.09-.02-6.29-.02-1.35-.01-5.64.02-7.67.09-.1-4.2-.09-5.02-.05-3.48-.08-6.25-.07-8.93-.04-8.76v-1.37l.07-4.2v-2.2l.07-6.27 4.27.01h4.19l4.2.03h12.67l4.43.02h4.87l3.23.02 2.52.04h9.98l2.2.03h5.3l.02 1.5-.68.57v.38h-.63v1.3l.73.05-.03 2.57.39-.1 1.94.57.32-.18v.68h.38l.01 1.08-1.46-.01-.02 3.16.58.04.5.5.1-.43.2-.08 1.25.1.02.93h4.91l6.22-.02 3.29-.01-.01 3.91-.03 3.16v4.9l3.81-.03 5.24-.04Z"/>
    <path long-name="State Senate District 22" region="21" short-name="22" value="1" d="m750.28 830.78 1.9-.1 1.27-.04 6.74-.01h2.72l1.03-.05 7.47-.13 3.47-.07 6.24-.15.55-.03 6.64-.14.08 3.17.21 9.54-3.28.1-.07.4h-.4l-.01-.4-8.86.3.05 2.07.16 6.15.1 2.34.14 3.88.14 2.97.23 4.62.1 1.58.08 2.11.1 2.48.35 5.93.3 5.77.06.78.3 6.18.2 4.23-1.97.1-2.99.12-3.4.17-2.1-.12-5.24.21-5.67.2-2.14.1-2.33.08-1.93.09-2.1.06h-1.98l-1.4.02-4.15.02h-2.82l-3.48-.04-2.33-.04h-2l-4.88-.04-3.22-.02h-4.68l-.07.02h-2.5v-3.69l.01-8.31-.01-2.61-.04-1.84-.03-2.96-.08-6.13v-.74l-.22-7.02-.12-3.7-.07-.93 1.88-.02 1.79.02 2.08.07 6.35.1-.04-.55-.14-3.16-.3-4.69-.36-4.9-.13-4.22-.18-5.8-.08-2.82 2.6-.06h1.6l4.2-.08h.62l3.11-.04.51-.03 6.33-.14Z"/>
    <path long-name="State Senate District 23" region="22" short-name="23" value="1" d="m788.31 830.06-.06-2.42-.06-2.93-.1-4.17-.07-3.34 2.02-.04h1.04l1.22-.05 8.21-.15v-.8l.95-.04 4.67-.07 2.57-.06h.55l4.86-.13 3.14-.07 2.12-.06 2.12-.05 3.18-.1 5.16-.2 1.7-.05 2.07-.1 2.94-.1 2.72-.13 1.09-.1 4.93-.37 3.26-.2 2.06-.18.09 2.26.16 5.08.14 3.49.05 2.1-2.06.08-2.2.39-2.12.05-.91.04-3.3.1-2.14.08.04 1.18.05 2.47.1 2.81.15 5.73.1 2.2.16 5.03.04 1.77.06 1.3.1 3.15-.55.04-3.68.11-1.37.02-7.07.26-1 .03-1.29.08-1.83.04-2.7.13-1.3.01-1.8.07-2.38.17-4.56.18.16.15.11.35-.39.97.02.65-.13 1.23.4.35 1.49.46-.09.14.01.58-.24.1-.17-.14-.21.2-.63.28-.22.22v.26l-.66.65-.4.1.07.23-.65-.3-.07-2.17-2.11.08.02.56-1.49.03-.68.1-1.9.08.28 7.9-.13.04-8.28.27-2.17.1-1.95.15-3 .13-2.72.13-1.95.12-1.88.08-3.04.21-.09-2.11-.1-1.58-.22-4.62-.14-2.97-.14-3.88-.1-2.34-.16-6.15-.05-2.07 8.86-.3v.4h.41l.07-.4 3.28-.1-.21-9.54Z"/>
    <path long-name="State Senate District 24" region="23" short-name="24" value="1" d="m851.04 827.08.11 2.35.01 2.44.08 1.14-.02.57.04 1.38.08.83v1.49l.08 2.74 2.97-.05 5.22-.1 4.31-.1.09 2.79.1 3.64.1 1.77v.37l.1 4.3.06 1.07.1 3.19-.02 1.52.08 2.7.09 2.17.04 2.12-.67-.04-1.46.05-1.15.15-.17.65.07.98-.74.03-.02.53h-.39l-.07.45-.04.9-.08.24v.85l-.06 1.05.03.3.29.15-.04.8-.24-.08-.12.24.35.19-.06.55.02.58-.98.04-.16-.3-.17.51-.91.08-2.11.09-.24.2-1 .26-.65.58-.8.3-.27-1.1-.41.02-.14-4.78-.12-4.03-2.1.06-.04-1.04-2.12.06-.03-.53h-1.02l.01.56-1.05.02v-.23l-.85.25-.4.01.23.46-.34.4-.3-.27-1.1-1.37-.3-.16-1.2.04-.07-2.55.37.02.43.17.05.19 1.62-.1-.33-.5-.04-1.6-1.94.12-.94.02-.26-.15-.16-.34-.23-.2-.57-.05-.2-.33-.17-5.35-.09-3.15-.06-1.3-.04-1.77-.17-5.03-.09-2.2-.15-5.73-.1-2.81-.05-2.47-.04-1.18 2.13-.08 3.3-.1.92-.04 2.12-.05 2.2-.39Z"/>
    <path long-name="State Senate District 25" region="24" short-name="25" value="1" d="m853.1 654.28-.58.46-1.23 1.48-1.07.94-1.18.26-2.43.29-.32-.16-.58 1.55-.4.58-.74 1.92-.3.48-1.3 1.41-.78.43-1.42.33-1.8-.1-1.73-.43-2.4 1.71-1.76.8-1.4.23-.6-.12-.6.58-1 .22-1.41-.3-2.41.44-.91.04-1.95.68-1.59.07.07.94-.76 1.91-1.17 1.58.1.63-.79 1.02-1.03 1.03-1.42 1.07-1.88.7-4.25.36-1.01.04-1.2-.17-1.44-.46-.3.82.78.56.57-.2 1.52-.1 1.46.42 2.1.2 1.5.34.35 1-.03 1.39.15.46-.5.65-.82.55-.21.56-1.68 2.07-1.1.73-.7.19-1.39-.16-.57.7.32.81-.49 1.54-.4 1.94-.78 1.68-1.07.55-.57.85.16.26-.75.79v1.11l-.83-.06-.9 2 .23.32-.72 1.86-1.95 2.62.17.45-.6.92.05 4.71v2.12l.03 2.14h-2.12l.05 4.24 2.13-.01.16 10.65.02 2.1.02 4.13.03 1.1.05 6.97v1.5l.04 3.7.02 3.93 4.74-.1 3.7-.1h1.59l2.65-.07 2.67-.11h2.55l1.07-.03 1.15-.06 5.2-.16.09 3.28.21 9.55 4.2-.13 6.76-.2.09 4.13.05 2.24 2.1-.07h2.12l6.34-.12h2.11v1.14l.09 4.65.1 4.47h-.27l-.1.44.38-.05.18 6.4.07 2.13.08 1.92.22 4.24.06 2.11.24 5.2.06 1 .14 3.63.13 4.43.1 2.56h-.13l.09 2.27.16 5.08.14 3.49.05 2.1.11 2.35.01 2.44.07 1.14-.01.57.04 1.38.08.83v1.49l.08 2.74 2.96-.05 5.23-.1 4.31-.1.09 2.79.1 3.64.1 1.77v.37l.1 4.3 6.42-.16 4.34-.13 3.04-.1 3.13-.16 4.89-.24 4.75-.16.05 1.2.12 4.18.14 3.1-.03.11 6.35-.23.57.24-.09.2 3.51 1.54-.05-1.57 1.76-5.27 1.14-2.5.05-2.25 1.66-4.06.08-1.07-.54-2.5-1.01-2.73-.1-.57.41-2.4.65-1.7.3-1.67v-.04l.02-.07.07-.37.08-1.1-.2-3.25.01-.89.62-1.98.92-3.73.9-1.62 1.97-2.07.36-.6.2-.4.05-.03.66-1.1.36-1.5-.76-1.07-.47-1.34.05-.52.15-.24.1-.25.23-.25.06-.1-.3-.43-.46-1.69-1.48-2.63-1.8-3.8-.63-1.18-.85-2.67-.58-.61-1.02-1.57-.13-1.5-.35-.8-.39-3.73-.79-2.62-.76-4.25-.01-.9-.27-.77-.83-1.57-.42-1.85-.03-2.28-.23-1.3.13-.25-.34-1.21.16-1.46-.18-.3-.06-2.57-.44-2.42.31-1.53-.14-3.21-.65-1.53-.07-.68.16-2.13.23-.74v-1.59l-.56-2.1.1-1.5-.08-1.71-.14-.56.16-1.28-.41-1.5-.53-.76.05-1.3-.7-1.14-.26-1.74.1-.43-.5-.59-.55-1.13-.16-1.81-.6-1.07.03-.92-.48-1.19-.03-.56-.96-2.24.05-1.45-.5-1.32-.17-1.7-.33-1.62-.38-.77-.33-2.14.03-1.03.4-.51-.27-1.98-.35-.87.15-1.15-.3-1.04-.02-1.22-.2-.58.13-2.57-.26-.89.08-.8-.35-1.2.13-1.37.23-.51-.58-2.13.16-1.5-.18-.91-.5-.63-.26-1.44.2-.47-.07-1.38.46-.5-.11-1.12-1-1.14-.08-.47.33-.96-.69-1.78-.32-1.68-.32-.75-.33-1.45-.79-.4-.28-.55-.2-1.23.24-.4-.8-1.43-.09-.85-1.66-1.21-.77-.7-.3-1.63-.46-.87-.07-.8.36-.65-1-1.19-.25-1.04-.64-.6-.07-1.25-.56-.6-.47-1.3-.68-.49-.36-.67-.36-1.48-.3-.34-.46-1.25-.32-.33-.33-1.12-.51-.67-.7-.13-.85-1.58-.4-.16-.66-.83-1.32.07-.5-.19-.54-.64-.52-1.42-1.93-.76-.29-.6-1.38-.19-.66-.46-2.68-.83-1.9-.4-1.48-.87-1.18-1.38-1.2-.31-.86-.48-.14-.35-.9-.04-.87.3-.99.59-1.12-.2-.1-.68-.54-.02zm-50.49 30.6-.89.08-.46.38-.15.5 1.35 2.37-.11-1.6.14-.76.67-.17-.55-.8zm-1.1 5.78-.24.97 1.73-.45-1.49-.52zm-1.21.02-.25.95.26.25.54-1.2h-.55zm-2 9.06-.44.5.67.3.71-.2-.94-.6zm-5.03 6.55-.17.17.2-.14-.03-.03zm-.71.75-.12.14-.24.47.06-.02.25-.36.05-.23zm-.59.66.02.02h.01l-.03-.02zm-3.53 4.74-.07.12.04-.02.03-.1z"/>
    <path long-name="State Senate District 26" region="25" short-name="26" value="1" d="m799.38 704.54-.04.06h-.01l-.2.65-.78.75-1.48 2.46-.72.75-2.44-.01.2-.97.57-.63-1.18-1.28-.2.14-.54.58-.05.23-.25.36-.06.02-.06.1-.14-.04h-.03l-.38-.12-1.14 1.48.2.65-.5.57-.03.74-.8-.2-.88 1.6-.03.1-.03.03-.07.12-.5.28-.84 1.06-1.32 2.25-.51.42-2.62 3.42-1.02 1.06-1.36 1.72-1.74 1.48-.47.64-1.15.2-.7.67-1.49-.6-.02.8v1.46l.05 2.59.02 6.36.02 4.87h-2.1l-3.96.05h-1.4l-5.23-.06-.02 2.4v2.89l-.02 1.07.03 2.67v3.68l-2.82-.03-3.51-.02-1.06-.03-1.13.05-3.27-.06-.02.33h.48v.61h-.53l-.48-.41.39-.4v-.13h-2.76l.01 1 .59-.04.05-.1 1.03-.02.35.36.01.76h-.61l-.02-.2-.33-.19-.02-.65-.61.12H746l-1.03.28-.72-.18-.87-.8-.4-.22-2.05-.16-.72-.34-.67-.58-.54-.4-.93-.43-.55-.46-.1-.34.4-1.02.02-.48-.6-.63v-.4l.16-.66.09-.7-.05-.34-.24-.3-.26-.09-.71.1-.3-.1-.43-.54-1.14-.65-.73-.48.06-.47-.05-.32-.51-.1-.42-.28-.38-.51-.12-.31.43-.89.07-.38v-.48l-.1-.34-8.33-.09-3.54.03-9.3.05.03 6 .02 7.42 4.1-.26 5.36-.3 3.35-.17v5.54l.05 3.08.02 2.06.04 2.1-.02 1.27.02 3.48-.01 1.46v3.11l-.01 2.15.02 2.03v2.63l.04 1.37.04 4.58 1.6-.09-.01.17v2.63l.01 1.46 6.84-.23 4.19-.17 4.55-.05 6.79-.09 1.61-.01 5.82-.06.74.02.86-.03 4.9-.04 2.18-.05 8.38-.04 2.17-.03v1.14l.75-.03.02 2.12-.6.03-.15.1.03 5.22 1.92-.02 2.14-.08h1.06l-.51.98.02 1.86.34-.05.73-.25 1.03-.43V802l.51-.01v.54h.38l.02.77.16.3-.04.5-.74.02-.02-.48-.13-.14-.25-.66-.39.05-.02.3-1.04.24-.53.22.01.5 1.58-.02v.53l2.12-.01.07 3.1-1.57.01v1.1h-.52l.01.71 1.05-.06v.22h-.52l.02.62 1.04-.03.01.66h.98l.6.48.08.54 1-.04.43.2.65-.3.47.04.02-.5-.56-.02.01-.53 1.02.04.07 1.06.14 5.26 2.02-.04h1.04l1.22-.05 8.21-.15v-.8l.95-.04 4.67-.07 2.57-.06h.55l4.86-.13 3.14-.07 2.12-.06 2.12-.05 3.19-.1 5.15-.2 1.7-.05 2.07-.1 2.94-.1 2.72-.12 1.09-.12 4.93-.36 3.26-.2 2.06-.18h.13l-.1-2.57-.13-4.43-.14-3.64-.06-.99-.24-5.2-.06-2.1-.22-4.25-.08-1.92-.07-2.12-.18-6.41-.38.05.1-.44h.27l-.1-4.47-.08-4.65-.01-1.13h-2.1l-6.35.11h-2.13l-2.09.07-.05-2.24-.1-4.13-6.75.2-4.2.13-.21-9.55-.08-3.28-5.21.16-1.15.06-1.07.02h-2.55l-2.67.12-2.65.07h-1.6l-3.7.1-4.73.1-.02-3.92-.05-3.71.01-1.5-.05-6.98-.03-1.1-.02-4.13-.02-2.09-.16-10.65-2.13.01-.05-4.23h2.12l-.03-2.15v-2.12l-.05-4.71z"/>
    <path long-name="State Senate District 27" region="26" short-name="27" value="1" d="m750.07 792.17 5.82-.06.74.02.86-.03 4.9-.04 2.18-.05 8.38-.04 2.17-.03v1.14l.75-.03.02 2.12-.6.03-.15.1.03 5.22 1.92-.02 2.14-.08h1.06l-.51.98.02 1.86.34-.05.73-.25 1.03-.43V802l.51-.01v.54h.38l.02.77.16.3-.04.5-.74.02-.02-.48-.13-.13-.25-.67-.39.05-.02.3-1.04.24-.53.22.01.5 1.58-.02v.53l2.12-.01.07 3.1-1.58.01v1.1h-.51l.01.71 1.05-.06v.22h-.52l.02.62 1.04-.03.01.66h.98l.6.48.08.54 1-.04.43.2.64-.3.48.04.02-.5-.56-.02.01-.53 1.02.04.07 1.06.14 5.26.07 3.34.1 4.17.06 2.93.06 2.42-6.64.14-.55.03-6.24.15-3.47.07-7.47.13-1.03.06-2.72-.01-6.74.01-1.27.05-1.9.1-.17-7.27-.12-4.61v-.99h.1v-.75l.05-7.76.01-4.33v-2.11l-.04-2.21-.02-6.38Z"/>
    <path long-name="State Senate District 28" region="27" short-name="28" value="1" d="m653.04 806.8.07.03 9.32.02 3.22.02 7.29.07 5.32.05.03-3.68.04-2.68.01-5.46.03-.8H688.72l3.93.01 7.42-.02 3.15-.02-.01-1.54 4.45-.05 6.3-.02 4.34.02 1.07.02h5.18l1.54-.05 6.84-.23 4.19-.17 4.55-.05 6.79-.09 1.61-.01.02 2.2.02 6.39.03 2.2.01 2.12v4.33l-.05 7.76v.75h-.12v.99l.13 4.61.17 7.26-6.1.16-6.32.14-.5.03-3.12.05-.62-.01-4.2.07h-1.6l-2.6.07.08 2.83.18 5.8.13 4.21.37 4.9.29 4.69.14 3.16.04.55-6.35-.1-2.08-.07-1.8-.02-1.87.02.07.93.12 3.7.21 7.02v.74h-2.07l-5.24.03-3.81.04v-4.91l.03-3.16v-3.91l-3.28.01-6.22.01-3.36.02-1.55-.01-.01-.93-1.25-.1-.21.08-.1.43-.5-.5-.58-.04.02-3.16h1.46v-1.07h-.4v-.68l-.31.18-1.94-.58-.4.1.04-2.56-.73-.05v-1.3h.62v-.38l.7-.56-.03-1.5-3.27-.02-2.02.01-2.21-.02-4.2-.01h-5.78l-2.52-.04-3.23-.02h-4.87l-4.43-.02v-12.42l-.03-8.56-.03-3.55.02-4.97-.01-5.32.01-2.85Z"/>
    <path long-name="State Senate District 29" region="28" short-name="29" value="1" d="m552.17 824.52.4.09.5-.05.53-.36.42-.9.06-.87.15-.3.32-.16.88-.28.99.04.29-.07.5-.4.71-.37.65-.17.55-.49.11-.28.4-.57.26-.18 1.37-.27.92-.42.66-.53.64-1.04.3-.22.13.22 1.65.04-.01-.33.73.02v.33l.59.01-.01-.74h.53v.75h1.84v.27l.62-.06V817h.86l.37.28 1.04-.25 1.08-.03.83.12.75.82.26.54.1.43.08 1.25 1.67.01.13 2.77.06 1.45.2 4.16.1 3.12-.1.16.25.46-.13.2.01.3h-4.64l-3.8-.03-4.49-.04-.53-.02-.17.21-.05.56-.38-.36-.11-.42h-1.6v.45h-.75l-.3-.1-.06-.26-.63-.11v.24l-.8.04-.6-.29h-1.08l-2.08-.06v.1h-1.06l-.01.54-.29.12h-.5v-.4h.18l.01-.4-1.5-.03-.01-3.03.02-3.31Z"/>
    <path long-name="State Senate District 30" region="29" short-name="30" value="1" d="m526.02 794.29 1.06-.04h5.31l4.27-.03 2.13-.02 4.06.02 4.9.07 3.67.03 4.3.06 4.28.1 3.06.05h3.3l4.11-.04 3.49-.04v-.29l-.3.01v-1.65l.1-.2.76-.02.05.46.28-.13h.42v-1.4h.74l-.24-.33.07-.2h1.05v-.55h.38v.54h.71l.02 1.07.49.01.01.51h-.84l-.28.5.07.58.13.42.16.2.02.34-.23.1.02.86h-.72l.03 1.47.02 4.39-.01 1.4.02 1.64-.01.78.24.21.6 1.62-.27.37-.03.3 1.3-.04.85.06.75-.04.89.01 3.62-.02 4.75-.06h.11l.02 1.8-.03 1.4v3.38l-.03 3.73-.04 2.88.15 6.16.13 5.82-2.87.04-5.16.1-4.45.12v-.3l.13-.2-.27-.46.1-.16-.1-3.12-.2-4.16-.05-1.45-.13-2.77-1.67-.01-.08-1.25-.1-.43-.26-.54-.75-.82-.83-.12-1.08.02-1.04.26-.38-.28h-.86v.22l-.6.06v-.27h-1.85v-.75h-.53v.74h-.58v-.34l-.73-.02v.33l-1.64-.04-.13-.22-.3.22-.64 1.04-.66.53-.92.42-1.37.27-.27.18-.39.57-.1.28-.56.49-.65.17-.7.38-.51.4-.3.06-.98-.04-.88.28-.32.16-.15.3-.06.87-.42.9-.52.36-.51.05-.4-.1-.7-.4-.39-.31-.36-.5-.56-1.13v-.45l.22-.73-.03-.32-.94-1.09-.41-.36-.26-.07-.84.1-.88.36-.72.13-1.42-.17h-.84l-.48-.12-.88-.69-.39-.5-.15-.54-2.96.03.04 2.1h-3.13l-9.63.1-.13-4.18-.05-1.17-.24-7.8-.03-5.56v-1.72Z"/>
    <path long-name="State Senate District 31" region="30" short-name="31" value="1" d="m499.87 794.28.01.04 1.85 5.11.44 2.4-.08 1 .75 1.54 1.23 4.94.69 4.02.34 2.72.74 7.39.18 3.12.03 2.04.33 2.1.09 1.97-.1 3.54.08 5.83-.07 2.14.3 2 .13 2.26.06 5.49-.23 2.53-.32 1.52h3.14l.35-.01 4.56-.01 4.63-.07 3.87-.02 4.46.01-.05-2.98-.1-3.55-.2-6.1h2.98l3.16.03 2.12.05 4.2.1 2.17.03h3.32l3-.04 4.2-.06-.02-2.13-.01-3.19.01-3.25.07-4.25-.02-3.03.02-3.31-.01-1.68-.7-.41-.39-.3-.36-.51-.56-1.14v-.45l.22-.72-.03-.32-.94-1.09-.41-.36-.26-.07-.84.1-.88.36-.72.13-1.42-.17h-.84l-.48-.12-.87-.69-.4-.5-.15-.54-2.96.03.04 2.1h-3.12l-9.64.1-.13-4.18-.05-1.17-.24-7.8-.03-5.56v-1.72l.01-5.23-1.78.02h-2.47l-4.76.05-.74.02-2.97.04-5.3-.06h-1.06l-2.29-.04-4.78-.04zm6 66.05-.08.32.04-.1.04-.22zm-1.37 3.86-.04.17v.07l.04-.24zm.02 1.84.02.54v-.3l-.02-.24zm.13 2.45.15 1.84v-.03l-.04-1-.1-.8zm.12 2.43-.24 1.37.23-1.17.01-.2zm-1.5 7.43-.05.18v.14l.04-.32zm-.11.87-.1.86.1-.75v-.11z"/>
    <path long-name="State Senate District 32" region="31" short-name="32" value="1" d="m526.76 547.97-2.57.02-3.24.06.02.1h-.01l.06 1.23-.42 1.76-1.24 2.45-.66.77-1.11.86-1.6.47-1.46-.07-2.14-.55-1.12 1.15-1.64.87-3.2 1.04-2.33.86-1.7 1.05-.7 1.07-.2.77-.24 3.47.59 2.33.61 1.72.4 1.44.74 1.28.57 1.42.68 2.17.41 2.4.13 1.56-.36 2.87-1.08 3.72-.12 1.16-.4 2.2-.53 1.92-.55.89-.3 2.61-.02 2.09.37 2.51.04 2.07-.42 2.98-.73 2.57-.28 2.25-.42 1.53-.1 1.1-.26.87-.71 1.43-.92 1.26-1.74 2.84-1.69 3.59-.69 2-.5 1.15-.63.89-1.14 1.12-.83 3-.63 1.82-1.1 2.34-1.78 2.52-.58 1.15-.36 1.27-.8 1.71-1.38 2.74-1.73 2.77-1.82 2.06-4.03 3.12-1.68 1.4-.9 1.15-.63 1.44v1.52l.64 2.25.75 1.62 1.96 3.07 1 1.91 1.16 2.57.23 1.47.07 1.88.67 1.22.65 3.28.27 4.2.7 3.4.53 1.65.3 2.2.1 1.95-.1 1.72-.26 2.1-.41 1.84-.34.78-.5 1.85-.96 2.2-.77 1.48-2.18 3.18-3.03 3.9-2.02 3.07-.99 2.82-.25 2.1-.02 1.7.26 2.3.97 3.53.99 2.48 2.58 5.1.97 2 .82 1.95.77 2.14.73 2.38.49 2.27 1.26 5.46 1.46 5.2.67 1.74.2 1.45.55 1.13 1.44 3.64 1.35 3.85 3 6.16 1.2 2.67 1.01 1.96.5 1.62.53 1.17.5.56.75 1.42 2.98 6.46 1.8 4.39.93 2.54 4.78.04 2.29.04H508l5.29.06 2.97-.04.74-.02 4.76-.05h2.47l1.78-.02v-2.75l-.07-5.46-.03-1.37.02-1.42-.01-1.86v-4.81l.03-2.33-.02-5.05-.02-.62h-1.17l-.02-6.38.01-2.13-.03-8.54v-6.52l-.04-4.67v-7.97l-.01-2.13.02-2.58v-3.15l.04-4.65v-6.7l-.02-4.74.03-9.54.1-4.53.03-2.8-.05-2.9-.03-3.48-.01-4.23v-2.27l-.02-2.06v-2.2l-.04-.86-.08-6.01v-4.2l.08-6.07-.03-2.35-.05-2.07-.08-4.8.01-.13-.07-3.13-.05-.9-.18-4.43-2.11-.11v-1.49l.06-1.87-.03-1.07.03-2.4v-2.72l.03-.75.01-2.18-.01-.8.04-1.05.06-3.24.04-4.03-.01-2.15-.08-2.24.08-1.94.04-2.49.07-1.97v-6.57l5.9.22 1.14-.02 2.63.09.39.05 2.83.07-.02-2.12.1-6.51-.02-4.39h2.15l4.3.03h6.49l.03-6.1.01-4.61.04-2.37-.08-2.17.02-4.4-.02-4.46.1-6.64.1-4.37.04-2.57.04-.46v-1.1l-4.32-.22-2.18-.13h-.84l-4.53-.19-.57-.03-4.5-.06h-4.95z"/>
    <path long-name="State Senate District 33" region="32" short-name="33" value="1" d="m524.26 639.5 2.89.01 5.3.2 2.16.07.45.04h1.22l2.07.06h1.06l1.76-.03 1.08.03 4.6.05 2.98-.04 4.23-.04 4.22.03 4.4-.01-.01 2.58.03.7.03 4.14.02.3.02 3.55.03 2.1.04 4.87-.01.9.05 6.11v1l-7.26.04-3.4-.02-2.1.02-.04 10.74v4.27l.01 2.25.06 3.47.08 3.9v1.09l1.91-.06 2.27-.03.95.03.73-.05h2.08l1.34-.09 2 .03 2.24-.03 6 .02 4.39-.01h1.5v6.45l-.02 3.24-.03 6.35.02 1.44.01 3.82-.02 2.16.06 2.17v2.72l-.04 3.75.01 5.24v6.88l.01 2.33v4.72l4.3.04 4.23-.03h1.11l3.14-.02h6.3l1.4-.02 2.93.05 2.17.02h3.12l9.81.07 2.31.05 6.13.1 6.26.04h6.3l4.21-.02h12.79l.09 9.87.02 2.92-.03 4.63v1.73l-.01 4.37-.02 2.04h1.1l-.06 7.36-.06 5.34-.04 4.76-.02 7.52v3.09l-.04 6.45v3.43l-.04.06.02.55-.01 2.85v10.29l.02 3.55.02 8.56.02 6.65v5.77H640.41l-4.2-.02h-4.18l-4.26-.02-.05-5.64-.03-6.92-8.43-.02h-4.24v-6.35l-.01-6.3-.78-.01h-11.85v-6.1l-.03-4.5-.02-1.92-6.85.1-5.8.05-.11-.01-4.75.06-3.62.02h-.89l-.75.03-.84-.06-1.3.04.02-.3.27-.37-.6-1.62-.24-.2.01-.8-.02-1.62.01-1.41-.02-4.39-.03-1.47h.72l-.02-.87.23-.1-.02-.33-.16-.2-.13-.42-.07-.58.28-.5h.84l-.01-.51H578l-.02-1.07h-.7v-.55h-.4v.55h-1.04l-.07.2.24.33h-.74v1.4h-.42l-.28.13-.05-.46-.76.01-.1.2v1.66h.3v.28l-3.49.04-4.1.04h-3.3l-3.07-.06-4.29-.09-4.3-.06-3.66-.03-4.9-.07-4.06-.02-2.13.02-4.27.02-5.31.01-1.06.04v-2.75l-.07-5.46-.03-1.38.02-1.4-.01-1.87v-4.81l.03-2.33-.02-5.04-.02-.63h-1.17l-.01-6.38v-2.13l-.03-8.54v-6.52l-.04-4.67v-7.97l-.01-2.13.02-2.58v-3.15l.04-4.65v-6.7l-.02-4.74.03-9.54.1-4.53.03-2.8-.05-2.9-.03-3.48-.01-4.23v-2.27l-.02-2.06v-2.2l-.04-.86-.08-6.01v-4.2l.08-6.07-.03-2.35-.05-2.07-.08-4.8.01-.13-.07-3.13-.05-.9Z"/>
    <path long-name="State Senate District 34" region="33" short-name="34" value="1" d="m562.68 639.87 3.58-.02 3.47-.04 1.19-.03 1.15.03 3.34.02 3-.01H587l3.24-.03 4.26.01 2.1.04 3.35-.05.56.05h4.52l3.57-.02h5.03l1.32.02 6.54.05h2.93l2.35.04 4.2.1 1.27.01 4.29.08 4.08.12 3.45.05h1.87l1.34.06h1.36l.19-.04 1.03.04h2.42l7.9.1 4.27-.02h4.5l.44.03h4.22l3.96.02 8.46-.02 4.28.02h12.9l1.22-.03 5.43-.07 8.57-.08 6.34-.01-.05 6.12-.02 1.25.03 2.12V652l.02 6.31v6.5l4.44-.03h6.33l2.14.01v1.9l.04 4.4.02 6.46-.1 10.57-.02 4.29-.1 4.21-.04 3.18.02 2-.01 1.17-6.43-.07-4.28-.06-8.48-.15-2.14-.03-5.02-.08-4.82-.06-3.07-.01-.04 4.24-.01 3.2-.05 6.82-.05 4.92-.02 3.22-.03 5.01-.02 5.52.01 2.4v3.14l8.43.02.03 6 .02 7.42 4.1-.26 5.36-.3 3.35-.17v5.54l.05 3.08.01 2.06.05 2.1-.01 1.27.01 3.48v4.57l-.02 2.15.02 2.03v2.63l.04 1.37.04 4.58 1.6-.09-.01.17v2.63l.01 1.46-1.54.05h-5.18l-1.07-.02-4.35-.02-6.3.02-4.44.05.01 1.54-3.15.02-7.42.02h-3.93l-1.05-.01h-9.3l-.03.8-.01 5.46-.04 2.68-.03 3.68-5.32-.05-7.29-.07-3.22-.01-9.32-.03-.07-.02.03-.05.01-3.44.04-6.45v-3.1l.02-7.51.04-4.76.06-5.34.05-7.35h-1.1l.03-2.05.02-4.37v-1.73l.02-4.63-.02-2.92-.09-9.86h-5.23l-7.56-.01-4.21.02h-6.3l-6.26-.05-6.13-.09-2.3-.05-9.82-.06h-3.12l-2.17-.03-2.92-.05-1.41.02h-6.3l-3.14.02h-1.11l-4.24.03-4.28-.04v-4.72l-.02-2.33v-6.88l-.01-5.24.03-3.75v-2.72l-.05-2.17.02-2.16-.01-3.82-.02-1.44.03-6.35.01-3.24v-6.45H563.76l-2.24.02-2-.03-1.34.08-2.08.01-.73.05-.95-.03-2.26.03-1.92.06v-1.1l-.08-3.9-.05-3.46-.02-2.25v-4.27l.04-10.74 2.1-.02 3.4.02 7.26-.03v-1l-.05-6.12v-.9l-.03-4.87-.03-2.1-.02-3.55-.02-.3-.03-4.14-.03-.7Z"/>
    <path long-name="State Senate District 35" region="34" short-name="35" value="1" d="m703.21 702.5-.03 4.25-.01 3.2-.05 6.82-.05 4.92-.02 3.22-.03 5.01-.02 5.52.01 2.41v3.13l8.43.02 9.3-.05 3.54-.03 8.33.1.1.33v.48l-.07.38-.43.89.12.31.38.5.42.3.5.09.06.32-.06.47.73.48 1.14.65.43.54.3.1.71-.1.26.08.24.31.05.35-.1.7-.15.66v.39l.6.63-.03.48-.39 1.02.1.34.55.46.93.43.54.4.67.58.72.34 2.05.16.4.21.87.8.72.19L746 755h1.7l.61-.1.02.64.33.2.02.2.61-.01v-.76l-.36-.36-1.03.02-.05.1-.59.04-.01-1H750v.12l-.39.41.48.41h.53v-.6l-.48-.01.02-.33 3.27.06 1.13-.05 1.06.03 3.51.02 2.81.03v-3.68l-.02-2.67.03-1.07v-2.9l.01-2.4 5.23.07h1.4l3.96-.05h2.1l-.02-4.87-.02-6.37-.04-2.58v-1.46l.01-.8-.05-.01-.17-.08-.92-1.81-2.05-1.67-.64-.68-2.83-1.03-.93-.6-2.74-.8-.47.12-1.54-.34-.19-1.21-.62-.1-1.28-.74-.23-.58-.81.03-.4.59.14.92-.4.04-.63-.62-3.78-2.32-1.48-1.13-.81-1.12-2.8-5.57-.76-2.6-.05-.85-.08-.06-4.29-.03-6.32-.06-6.43-.07-4.28-.06-8.48-.15-2.14-.03-5.02-.08-4.82-.06-3.08-.01zm58.23 9.97-.72.33-.33 1.01.5.35.37-.38.63.1.2-.8-.65-.61z"/>
    <path long-name="State Senate District 36" region="35" short-name="36" value="1" d="m720.52 419.5-4.93.04.14 8.83.05 4.4.1 4.56.12 8.6.06 3.22.03 5.33-.04 2.15.02 2.17-.04 3.82-.08 2.4-.05 2.52-.03 4.36h.3l.03 3.9-.03 2.21.02 4.35-.03 2.18h-2.17l-2.19.01-2.2-.01-2.17.02-2.19-.02h-5.45l-3.88-.04-5.64-.12-8.72-.04-7.37-.14-.25-.02-5.5-.07-4.35-.06-.07 3.69.02 2.57-.04 2.51.04 2.22v2.2l-2.19-.11-4.33-.08-3.28-.1-1.89-.03-1.41.04-.02 2.17-.03 2.2v3.3l.02 2.77.04 2.71.83.02-.02.45v9.2l-.02.95.2 6.57-.02 2.19.04 2.17v2.17l.06 2.19-2.22-.02-3.28-.06-5.33-.05-4.36-.02-2.3.03-4.3-.01-2.34.03h-1.93l-4.38-.02-4.4-.03-.23-.02h-1.9l-2.34-.02-6.08-.02-2.07-.03-2.26.91-1.13.25-.44.18.02.34.38.25.41 1.9-.12.93.1.3.39.38-.01.34-.31.32-.38-.02-.77.61-.27.43-.01 5.97-.03 2.25.01 4.34-.01 2.21v3.36l-.02 1 .03 3.59v4l.02 4.63-.03 2.98v1.94l-.03 1.71-.04 3.68-.02 3.4-6.1-.02-1.43.02h-5.82l-3.56.02-1.67-.01-5.22.01-10.6-.05-2.16-.02-6.47-.03-3.25-.03-2.18.02-3.2-.02h-6.49l-4.3-.03h-2.15l.01 4.39-.1 6.51.03 2.12-2.83-.07-.39-.05-2.63-.1-1.14.03-5.9-.22V607l-.07 1.97-.04 2.5-.08 1.93.08 2.24v2.15l-.03 4.03-.06 3.24-.04 1.06.01.79-.01 2.18-.03.75v2.71l-.03 2.4.03 1.08-.06 1.87v1.49l2.11.11 2.89.01 5.3.2 2.16.07.45.04h1.22l2.07.06h1.06l1.77-.03 1.07.03 4.6.05 2.98-.04 4.23-.04 4.22.03 4.4-.01 3.58-.02 3.47-.04 1.19-.03 1.15.03 3.34.02 3-.02h8.58l3.25-.02 4.26.01 2.1.04 3.35-.05.57.05h4.52l3.56-.02h5.03l1.32.02 6.54.05h2.93l2.35.04 4.2.1 1.27.01 4.29.08 4.08.12 3.45.05h1.87l1.34.06h1.36l.19-.04 1.03.04h2.42l7.9.1 4.27-.02h4.5l.44.03h4.22l3.96.02 8.46-.02 4.28.02h12.9l1.22-.03 5.43-.07 8.57-.08 6.34-.01-.05 6.12-.02 1.25.03 2.12V652l.02 6.31-.01 6.5 4.45-.03h6.33l2.14.01v1.9l.04 4.4.02 6.46-.1 10.57-.02 4.29-.1 4.21-.04 3.18.02 2-.01 1.17 6.32.06 4.3.03-.12-.08-.57-1.58-.28-1.56.26-.47 1.11.08.6-1.5.47.07.53-.6.3-1.56-.16-1.88.66-2.46-.12-1.5.16-.86-.16-1.85.1-.35-.29-1.6.13-.46.68-.87-.18-1.39v-.94l.3-.57.1-1.01.62-3.18.25-.4.84-.16-.14-.63.97-.05.1-1.68.46-1.66.61-.74.44-1.57 1.08-.09.44-.5.27-.83.58-1.01.57-.53-.3-.38.28-.75 1.22-1.03 1.15.8.64-.04.55-.8.66-.03.8.26-.02.75.35.53.81-.45 1.45.48 1.5.08.58-.6.76-.17.1-1.71.97-.4 1.27.28 1.19.7 1.17-.24.78.57.21.6 1.76.7.37-.43-.32-.55-.52-2.62-.48-1.78.03-.43.69-.13.33-.52V659l.87-.82 1.82-1.35.8-.34 2.76-.44h1.14l.99.21 2.27.8-1.12-3-.1-1.44.3-.95.86-1.02 1.22-1.83.5-.1-.5-3.16.15-2.17-.12-.7.1-1.47 1.04-4.15.3-.91.26-3.1.4-2.47.73-2.05.48-1.06 1.29-1.55.1-.44 1.18-1.04.52-.77.9-.44 2.22-.52 1.76.19 1.84.82.63.74.08.52-.44.37-.85 1.42.23.16 1.7-1.86.8-1.22.7-2.29.53-1 1.32-1.09 1.07-1.56.79-.83 1.16-1.48 1-.73.69-.06 1.44.35.4-.05.73-.83.13-.57-.3-2.62.16-2.17.7-2.37.14-1.03.57-1.74-.43-1.22-.28-2.11.04-2.28.24-1.74.74-4.49.1-1.13-.25-2.22.08-.9 1.05-3.81.16-.35-.64-2.64-.28-5.28.12-2.04.75-3.17 1.4-2.5.37-.38.4-1.24.3-1.98.3-1.34.6-1.94.17-2.05.25-.4-.15-.79-1.15-1.19-.7-1.12-.39-1.14-.34-1.7-.08-1.02.78-1.6-.54-1.88-.07-1.36.37-1.36-.06-1.83-.64-1.09-.1-2.02-.41-.75-1.11-1.25-.67-1.62-.02-.83.54-1.04-.3-1.37.38-.56-1.71-.84h-1.47l-.8-.27-1.43-.74-.86-.97-.22-.54-1.48-.2-.94-.62v-.84l-.6-1.09-1-.5-.68-.58-.52-.12-.83-.93-.62-1.2-.52-1.73-.2-1.68-.03-2.62-.55-1.3-.99-.4-.41-.61.2-1.5.88-.78 2.14.87.3-.39-.43-.58-1.58-.88-.7.07-.06-1.14.43-.52-.18-.72.74-1.8 1.06-1.53 1.43-1h.64v-.59l.73-.03 1.35-.74.75.24.37-1.14 1.72-.08.6.14.32 1.61-.38.5 1.03 1.7.94.18.87 1.13 1.38.58.87.02.5.54 1.2.16 1.72 1.07 1.6.47h.9l-.64-1.63-.14-.74-.72-1-.64.08-2.58-.57-.73-.53v-1.04l.5-.94-.44-.43.4-.44-.88-.64.07-.7.6-.74-.64-.65 1.13-.02.66-.81-1.18-.88.2-1.73-.54-.05-.36-.53-.07-.74.53-.77-.73-1.13-.04-.54.71-.74-1.39-.57-.62.51-.54-1.24-.47-.47-.46-1.19-1.2-.22-.88-1.44-.1-1.86-.46-1.43-.73-1.45-.43.04-.95-1.55-.45-.33.21-.6-.98-.88-.41-1.5-.45-.56-.05-.85.38-.57-.85-.46.05-.8 1.5.25 1.2.4.41-.44.12-1 .55-1.16-.66-1-1.38-.34-.13-.69-.58-.55-1.54-.5-.38-.98-.91-1.15-1.19-.51-.74-1.81-.8.22-.54-.57-.03-.97-.23-.65-.88-.02-.05.89-.4.13-.67-.64-.47-.93.23-.86 1.08-.01.06-.5-.72-.5-.54-1.18-.82-.14.64 1.12v1.23l-.4.34-2.15-1.06-.47-.03-1.14-1.15-.9-.6-.85.05.01.68-.96.6-1.14-.25-.7.55-.86-.55-.21-.5-1.78.34-.67-1.28-1.11-.6-.8.1-.85-.2-.89-.81-.79-.4-.43-.5-1.3-1.05-.89-.22-1.09-.89-.34.02-1.67-1.12-.58-.75-.48-1.27-.76-.5-1.73.55-.35-.08-.35 1.13-.47.03-.85-.99-.81-.32-.4.7-.94.1-1.63-.72-.12-.6-.85-.17-1.47-.58-.37-.55-1.12-.42-.67-1-.84-.08-1.6-1.37-.7-.76-2.29-3.02-1.65-1.19-1.3-1.54-1.4-.36-1.43-.64-1.98-.25-1.04.11-.82-.28-1.78.52-.8.1-.84-.16-.58-.4-1.98-.22-.85-.24-.1.48-1.55.69-.99.19-1.92-.29-1.94-1.01-.73-.57-.97-1.1-.77-1.42-.36-1.16-.4-2.62v-2.08l-.2-.88-1.01-1.67-2.04-1.9-.13-.63-.77-.3-.48-.8-1.02-1.13-.78-1.29-1.84-2.1-.11-.12zm93.5 65.3-.7.92.46.46.77.23.53-.37-.46-.99-.6-.26zm4.15 19.63-.83.35.02.39.73.42.08-1.16zm8.43 2.38.66 1.19.1.56.77.89.53-.16-1-1.54-1.06-.94zm-1.17.25-.64.6-.16.6.37.34.92-.16.03-1.2-.52-.18zm-23.3 151.7.12.84-.15.68.7.12.82-.26-.13-.6-1.36-.78z"/>
    <path long-name="State Senate District 37" region="36" short-name="37" value="1" d="m721.76 278.94-3.43.97-3.03 5.14-1.16.99-1.1.24h-1.85l-3.45-1.11-1.72-1.19-3.47-.22-2.22 1.53-2.73-.3-2.66 1.88-1.94 3.35.86.71-.03 1.39-.75 2-.99 1.03-.82.27-1.03-.91.08 6.2.04 1.08-.06 2.35v2.23l-4.47-.02v1.12l.07 3.37h2.17v2.27l2.24-.04.04 2.27 6.62.03 4.5.02v8.13l.04.87-2.7-.02-5.14-.09-1.63.05-2.94-.05-3.09-.02-.1.03-1.92-.02-.34.03-.01-4.51-4.44.02-3.9-.03-3.95.03-7.7.02-1.24.03-10.96.01-2.42-.03-6.32-.05-5.85-.04-1.15.04-6.3-.05-5.83-.05v3.82l.02.5.05 6.23.04 5.75v6.8l.01.3-.04 3.25-.02 3.63v3.14l.03 1.93-.03 1.23-.7-.4-.6-.53-1.15-.73-.28-.01-.33-.22-.26.01-.9-.13-.23.16-.51.02-.29.21-.3.05.27.13 1.1-.46 1.2.17 1.1.55 1.87 1.28h.01l1.37 1.24.66.3.76-.13 1.24.56 2.18.33.89.35 1.25.8 2.22.7 1.1.72 3.22 3.06 3.34 3.82 1.19 1.88 1.87 3.56.57.43h1l.37-.33.77.12.84.93.23.73 1.02.96h.42l.64.8.62.3 1.44.4-.15.4.35.9-.1 1.16.75 1.45 1.09.6 1.9-.34.52.59.18.74.43.47 1.74 1.18.15.24 1.87.99.56.5.4-.9.75-.4 1.9.19.3-.2 1.58-.1.5-.61-.74-1.16-.66-.2-.7-.8-.93-.44.03-.6.99-.18-.32-.93-.31-1.7-.87-.8-.23-2.4.37-.65.85-.38.52.38.72.07-.4-1.27-.53-.6-1.17-.43-.28-.99-.46-.58.14-.6.92-2.37.76-.93 1.39.03-.2-.68.44-.25 1.26.32.89-.03.35-.96-1.02-1.25.73-1.05.35-2-.5-.69-.42-1.08.21-1.69.34-1.06 1.23-1.72.97-.69 1.08-.32.96.45 1.58 1.52 1.2.23.61.4.42 1.3.62-.25 2.08.35.51-.6 1.91-.3 1.06.91 1.03.57.51 1.3-.25.47.73.37.18.49.32 2.21-.17 1.29-.3.62.26 1.45 1.02.16.93-.44-.26-.9.35-.62-.14-1.2.11-.57.83-.8 1.1.5.75-.1.62.45-.14.64.26 1.64.52.16.5.76.94.41-.12-1.18.55-.82-.62-.7-.04-1-.4-1.17.44-.75.45-.08 1.34.58.35-.73.72.02 1.65.74 1.33 1.23 1.05.47.54.63-.5.67-.96.06-.3-.56-1.28-1.02-.59.08 1.19 1.04.61.91-.51.74.23 1.29-.55 1.26.34.62 1.78 1.58 1.31.9-.63-1.3.33-.49.62-.05.52.9 1.23.5 1.46.1 1.05-.86-.06-.4-1.11-1.44.34-.22.8.46.72-.27.6.37.65-.3.81.12.18-.63.75.07.17-.5 1.58 1.44 1.25-.2.64-.64 1.2.61.6-.62.12-1.19-.43-.58-1.15-2.65.67-.4.97 1.25 1.25.07.22.37 1.24.47.23-.56.9.52.04-1.27.6-.04.44.68 1.46 1.26-.08-1.02.67.38.99-.28.36-.52.68.74.41-.15.93.63 1.26.14.3-.73.48-.27 1.07.62-.01-.78 1.63-.37.87.96.8.48.69.1.07.84 1.48-.3 1.3.49.86-.13.76.16 1.97.76.77-.02 1.05.4 1.07.85.75.3.43-1.53.62-.55 1.29-.56.99.53 1-.3.84.26h.92l1.31-.44.22.4.73-.24.94 1-.83.42.54.42.62-.42.57-2.42-.14-.96 1.17-.97-.55-1.92-.86-1.93-1.26-.64-.91-.25-.7-.48-.14-1.51-.75-.2-.47.46-1.13-.2-.53.3.12.86-.4.49-1.2-.04-.45-.8.06-.43-.81-.7-.47-.95-.67-.44-.44-.7-.63.26-.54-.6-.55-.05-.75-.84-.64-1.13.06-.8-.6.02-.84-1.37-1.11-1.23-.72-.43-.84-1.13.18-1.7.76-1.13.89-.36.18-.96 1.4-.89.83.38.08-.77.4-.54-.33-.45-3.28-1.78-1.18.34-1.02-.88-.9.49-.68-.2-.47-.46-.04-.7-.89-.44-.58-.81.1-.84-.17-.81-.84-.74-.52.58-.27.78-.78.05-.59-.46-.26-.99-.7-.42-.32.77-1.1.51-.29-.25-.17-1-1-.6-.3.89.36.63-1.34.68-.6.8-2.6.47-.96-.87-.56-.05-1.73-1.06.72-.7.16-1.7-1.02.7-1.04-.52-1.12-1.73.53-.5-.17-.53.68-.34-.03-.6.59-.6 1.68-.8.61.48 1.1-1.2.26-.56h1.13l.23-1.34-.25-.71.44-.34 2.19.53.14 1.38.57-.2.1-.79-.27-.6.83-.14 1.4 1.41.72 1.09.46.27-.02.99-.51.59.89.15.24-2.16.94.17.54-.54-.05-.46.68-.46.74.59.22-.56 1-.35.04-.1-.02-.05 1.04-2.24-1.86-1.78-.43-7.22.02-.02v-.14l1.35-1.02-1.33-2.23-2.1-5.44-.78-7.17.02-.1v-.06l2.26-8 1.44-5.15-.7-2.05-.6-.52-.58-1.42-1.12-.33-1.46.6-1.38.32-1.22-.1-1.77-2.05zm40.72 66.71-1.61 1.07.79.56.19.58.52-.06.13-.83 1.1.1-.11 1.07.66.12.23-.56.67.2.64.53.49-.2-.58-.93-.98-.6-.1-.85-1.48.3-.56-.5zm18.96.73-1.54.06-1.26.5-4.17-.55-.49.4-1.6.04-.37 1.1-.95 1.08 1.35.86 2.1.9 1.51.12.89.25.26.84-.27.64.6.43.02.87-.78.49-.8.14-.43-.42-.32 1.14.92.86-.42.76-2.16-.4-.3-.31-1.7.82-.5 1.18-.6.5-1.15.16-.72-.43-1.13.15.1.99-.54.58-1.1.25.67.7-.73 1.52-.85-.03-.52.45-.2 1.1-.54.6-.56.13-1.18-1.42-.83.16.1-.84-.45-1.21-.63-.75.96-.92-.26-.57-.87-.71-1-.3-.63 1.31-.38.36-.63 1.22-.74.12-.6 2.09-.54.66-.22.83.25.83-.55.43-.07.94 1.4 1.1 1.17-.17.6.56.97-.08.09 1.12.83-.04.6.62-.77 1.46.89.17.6-.61-.16-.57.23-.95.57-.27.2.63 1.44 1.34.16.58.82-.02.06.56.7.17.83-1.1.2-1.3.53-.22.29-.6 1.27-.11.06.91.59 1.09 1.03.66 1.27-1.09h.59l.47 1.6.8-.3.66.26.5-1.12h.47l.96.95 1.4-.87.92-.1.9-.58.5.43.34-.46.77-.23.14.97 1-.75-.43-1.73h.6l.77 1.03.25.88-1.21 1.09v1.1l1.65-.5.08-.99 1.23.18-.45 1.44v.51l.58.22 1.45 1 .77.37.1-.66.97-.04.5-.35.59.06 1.3.7.63-.37-.1-.67.57-.55.24.78.96.79.74-.45 1-.99-.04-1.68.8-.48.1-.8.6-.49-.15-1.6.9-1.24 1.01-.6.92-1.91-.07-.64-.72-1.17-.83-.51-1.31.73-.62-.07-1.38-2.08-1.32.36-.3-.2.1-.92-.88-.74.1-.43-.26-2.45-.4-1.64-.34-.24-.16-.9-.54-.8-.9-.22-.18-.84-.6-.4v-.77l-.37-1.31-.57-.94-.57-.24-.63.4-1.01-.58-1.41-.56-1.1-.97-1-.26zm-39.33 1.32-.9.6-.1.65 1.8 1.73 2.07 1.07v-.97l-.42-.22-.75-1.13-.84-1.65-.86-.08zm-142.39.27-.56.04v.03l.67.08 1.1.37 1.5.9.25.52.6.02.77.51.07.2.02-.03-.17-.41-.67-.38-.2.07-.42-.12v-.3l-.24-.23-.65-.43-.95-.5-1.12-.34zm167.82.22-.67.2.52.7.53-.4-.38-.5zm-10.64 1.7-.45.47.41 1.03.48.1.79-.3-1.23-1.3zm-152.68 1.04.06.17.2-.02v-.1l-.26-.05zm154.24.43-.05.71.65.55.34-.67-.94-.6zm-152.8.1.06.09.53.16 1.59.9-.16-.18-.73-.5-.78-.38-.52-.1zm149.69.2-.63.05.5.94.4-.25-.27-.73zm13.3.54-.9.36-.63 1.44-.53.46.85.28.46.9.19.83 1.36.56.15-.88.64-.83.4-.1.13-1.1-1.25-.42-.46-1.28-.4-.22zm-159.99.08-.75.37.12.06.45-.33 1.12.6 1.05.36.76-.34.92.23-.07-.2-.83-.14-.43.15-.3.24-.62-.4-.47-.05-.2-.27-.75-.28zm149.55 1.04-.5.16.23.66.84-.27-.57-.55zm-145.66.2.2.27.2-.12-.04-.02-.36-.13zm159.52 1.03-.56.68.99.16-.43-.84zm-154.25.23h.03-.03zm-2.45.13-.08.06.06.08.03-.14h-.01zm59.2 10.4-.42.4-.2.83.59 1.17-.43 1.06.92.46 1.3-.46 1.13-1.4-2.23-1.84-.65-.23zm6.25 1.7-.57 1.02.2.68.54.53.84.44.59-.68.05-1.02-.66-.7-1-.26zm-6.89 12.94-.53.3.14 1.36-.39.7-.24 1.13.06.46 1.2 1.1.99.33 1.13.75.46-.66.93.2.5-.54-2.18-3.9-.7-.72-1.37-.5zm-25.24 2.8-.22.3.03.63 1.19.96.44.14.3-.95-.68-.2-.1-.44-.96-.44zm-75.67 4.05-.8.48.82.58.34-.86-.36-.2zm104.18.96.41 1.37 1.6.58.34-.64-1.2-1.2-1.15-.1zm-97.68 1.03.19 1.27-.5.12.37 1.25.86.74-.05.42-1.26.4.03.35 1.07.06 1.05.3.74-.36.25.73.76.7-.6.74-.43.1-.3.8 1.08.72.42-.12.74-1 .62.17 1.22-.08.21.58.88-.46-.77-.43-.07-1.04 1.18-.33.05-.5-.5-.48-1.01-.06-.54-.84.16-.47-2.25-1.97-2.6-1.25-1-.06zm101.08 1.23-1.03.53-.13.55.2.82.7.75 2.1.92 1.3.99.28.61.84.8.04.49 1.39 1.78.1.66.76.36 1 .82.16 1.36.69 1.2.66.46 1.4.65.75-.4.95.2 1.5.74 1.19-.3.73.03.57.7.91.55.83-.53.66.2 1.29-.9-.2-.64.46-1.09 1.37-.82.57.04.41-.68-.16-1.07.47-.37.17-.63.93-1.26-.48-.46-1.38-.4-1.94-1.15-.86.16-.75-.79-.59-1.87-.38-.45-.5-1.25h-.75l.64.86.13 1.63-.41.74-1.03.53-1.27-.72-1.64-.68-1.44-.44-2.1-1.08-.9-.7-.7-.11-1.68.46-.81-.13-.6.17-1.32-.5-2.5-1.28-.6-.06zm-84.27.27-.98.6 1.03.92-.19.55-.61.28 1.04.58-.69 1.04-1.06.91-.65.98-.67.42.32.4 1.57.82.42-.1.96-1.23.7-.12-.27-1.68.7-.4.36-.55-.05-1.11-.8-1.7-.53-.59-.6-.02zm-25.97.58-.6.53.69.53.73-.68-.82-.38zm89.6 3.83-.62.22-1.38.88-.09.52.5.4.1.74h.64l.2.79-.29.9-.74 1.24-.8.64-1.27.46-1.55-1.17-.5.1-.55.8-.53.3-2.3-.72-2.13-1.04-.8.17-.59.83-.59.39-.9.11-.5-.55-1.5-1.04-1.48-.47-.53.2-5.8.03-1.15-.5-.2.84.8.3.33-.17 1.67.5.76-.1.76 1.17h.94l1.08 1.19.93 1.34.17 1.02-.43 1.96-.69.25-.35.85-.78.57-.72 1.39-.79.89-.53.27-.76-.24-.55.45-.35 1.58-.52 1.29-1.51 1.48-1.88.54-2.3 1.25-.76.05-1.43 1.56-.08.86-.4 1-1.28 1.7-.22.9-1.97 2.17-.53.95-.3 1.62.27 1.1-.05 1.3.23 2.11.4 1.34.31 1.86.73 1.59.4 1.25.48 2.78 1.37 1.65 1.98 2.96 1.6 1.39 1.12 1.1 2.56.5.99.7h.4l.87.8.1-.97 1.26-.24.75.36 1.73-.04 1.36.47 2.25.4.62.66.34 1.18v1.6l-.3.93-.93.33-.57.6-.77.02-1.68 1.04-.83.65-.93.01-1.28.59-.64.46-.7.1-.72-.34-1.32-.1-1.23.47-1.42.9-.57.08-1.34-.49-4.22-.27-1.5-.03-1.36-.3-.69-.47-1.02-.26-1.13.71-.52-.15-.4.41-.56-.13-1.11.71-1.03.37-1.1.1-1.17-.26-2.08 2.34-1.55 1.16-.62-.26-.66.13-.08.78-.49 1.35-.85.94-1.15.61-1.92.2-.76-1.16-.53.5-.97 1.89-.69.46-.86.04-.67.83-.34 1.04-.53.57-1.32.66-.65.8-.63.1-.58.85-.34 1.5-.38.71-.77 2.7-.33.49.2.6-.25 3.18.25.73.05 1.23-.19.88.43.48.4 1.14.17 1.67v2.76l-.24.92.44.54.46 2.37.97 2.22-.38 4.37-.33.99.45.71-.07.47-1.1 1.91-.36 1.5.1.88-.22 1.06-.02 2.2.6 1.66v.63l-.91 2.17.27 1.68-.31 1.84-.3.45-.35 1.38.17.81-.5 1.27-.19 1.3-.87 1.78-.22 1.31-.77 1.54-1.12.83-.03 1.2-.2.78-1 2.03-.83 1.26-.9.89-.15 1.24-1.12 2.33.05.77-.92 1.28-2.12 1.45-.86.4-.85 1.35-.2 1.2.3.56.27 1.6-.3 1.09-.93.88-1.25 1.87-1.19.1-1.71-.29-1.82-.99-.55-.73.43-.82.24-1.07.56-.6.58-1.62-.2-.7.36-1.8-.23-.55.46-1.57 1.7-2.4.79-.72 1.11-.46.34-.54 1.1-.35.17-.7.78-.54-.1-.91.34-1.08-.24-.45.69-1.78.03-.96.46-1.7-.4-1.18.37-1.3-.25-1.41.23-1.55.32-.87.17-1.35-.3-.65.32-.72.5-.1 1.4.52.11-.96-.5-1.63-.02-.71-.49-1.66-1.68.17-.41.37-.58 1.07-1.25.52-.88.55-.22 1.1.2.95-.45 1.46-.5.57v1.71l-.33.5-.15.99-.5.56-.15.8-.65.53-.57.98-1.06 1.15-.35.8.5.9.54-.2.87-1.88h1.25l.7.35.36.72-.63.72.18.77-.25.42-.17 1.3-.55.68-1.16.82-.53.94-.48 1.99-1.07 2.77-1.14 1.16-.33 2.4-.33.62-.54 2.33-.42 1.1.07.9-.6.44-1.46.15-1.62-.35-1.16-.76-.2-.5.48-1.89.3-.65.02-1.2-.89-1.56-1.04-3.13.06-.57-.17-2.06.4-1.78.1-1-.13-.98.38-1.44.9-1.47-.06-.2.75-1.75-.1-.3.72-2.1.46-.23 2.03-.12-.36-2.1.27-1.85-.18-1.19.26-.54-.15-1.34.41-1.54-.06-1.29-.69-.15-.3.85-1.27 1.65-.68.56-.25.58-1.28-.2-.76-.54-.1-.45.84-1.51.08-.67.56-.66.07-.72.84-.9.4.02.92-1.01.65-.48.96-1.2-.05-1.23.26-1 .1-1.28.71-.38-.04-.74.42-.53.8.06.04.6.51 1.24.66.23.17-.86-.15-.46.15-1.25-.73-1.29-.76.15-.84-1.9-1.12-1.89v-.66l.33-.52-.46-.77-.62-.55-.4-.84-.54-2.12.44-.9.89-1.06.22-1.33 1.4-.71 1.76-.18.5.5.29.86-.2 1.31.7.46-.4-1.35.44-.35-.18-1.39-.24-.61.74-.55.28-.73 1-.65.62-.17.6-.67.5-1.84-.58-1.28-.56-.46-.07-.99-.3-.53-1.1.02-.88 1.45-.27.1-.3 1.2-1.18.84-1.1 1.02-.75.27h-1.49l-.5-.4-.61-.88-1.3 1.87-.3.8-.87 1.05-1.66 2.52-.4 1.5-.86 1.74-.84 1.37.01 1.48-.58 1.95-1.22 1.4-.63 1.33-1.47 1.35-3.06 1.52-.67.78-.7 1.43-.72 2.21-.27.57-1.82 1.96.4 1.36-.21 2.64-.23.77-.62 1.1-1.12 1.35-1.14 1.8-1.19.69-1.89.76-1.93.32-1.65-.14-1.1-.64-1.23-2.19-.65-.63-1.95-.95-1.68-.08-.74.64-.38 1.54-1.14 2.05-.94.78-.6.92-.6 2.22-.78 1.3-1.32.92-.98.19-.82-.1-1.3-.5-1.03-.7-.46-.59-.89-.51-1.6.56-.84.8-.46 1.48-.15 1.67.13 2.92.5 4.59v2.27l-.56 2.28-.73 1.56.41 2.34 3.24-.06 2.57-.02h4.94l4.5.06.58.03 4.53.19h.84l2.18.13 4.32.21v1.11l-.04.46-.04 2.57-.1 4.37-.1 6.64.02 4.46-.02 4.4.08 2.17-.04 2.37-.01 4.61-.03 6.1 3.2.02 2.18-.02 3.25.03 6.47.03 2.16.02 10.6.05 5.22-.01h1.67l3.56-.01h5.82l1.43-.02 6.1.01.02-3.39.04-3.68.03-1.71v-1.94l.03-2.98-.02-4.63v-4l-.03-3.59.02-1v-3.36l.01-2.2-.01-4.35.03-2.25v-5.97l.28-.43.77-.61.38.02.3-.32.02-.34-.39-.37-.1-.31.12-.93-.41-1.9-.38-.25-.02-.34.44-.18 1.13-.25 2.26-.9 2.07.02 6.08.02 2.33.03h1.9l.25.01 4.4.03 4.37.02h1.93l2.35-.03h4.29l2.3-.02 4.36.02 5.33.05 3.28.06 2.22.02-.05-2.19-.01-2.17-.04-2.17.02-2.19-.2-6.57.02-.95v-9.2l.02-.45-.83-.02-.04-2.7-.02-2.79v-3.3l.03-2.2.02-2.16 1.41-.04 1.89.03 3.28.1 4.33.08 2.19.1v-2.2l-.04-2.21.04-2.5-.02-2.58.07-3.69 4.35.06 5.5.07.25.02 7.37.14 8.72.04 5.64.12 3.88.04h5.45l2.19.02 2.18-.02 2.2.01 2.18-.01h2.17l.03-2.18-.02-4.35.03-2.2-.04-3.91h-.3l.04-4.36.05-2.52.08-2.4.04-3.82-.02-2.17.04-2.15-.03-5.33-.06-3.22-.13-8.6-.1-4.56-.04-4.4-.14-8.83 4.93-.04-1.1-1.18-1.43-.4-1.2-.07-3.24-1.03-1.77-1.2-.8-.2-.96-.5-2.73-1.12-.54.03-2 .8-1.64.17-.79.37-2.58-1.2-1.39-.9-1.62.05-.42.84.8.24.86.93.1.41-.91 1.03-.87.2-.77-.86-.31-.64-1.8.44-1.07-.8-1.03.05-.38-.77-.78-.2-1.46-1.54-1.38-.81-.7-.9-1.52-.54-.19-.43-1.33-.94-.4-.82-.23-1.03-1.95-.23-3.19-1.72-2.1-1.36-.75-.3-1.8-1.55-1.34-.14-.89-.29-1.09-.59-.12-.99-1.86-.71-1.83-.86-.56-.04-.47-1.25.28-1.41-.33-.48-.68-.2-1.18.7-.85.15-2.27-1.01zm-97.74 2.18-.86.1.34.54.96.11-.44-.75zm66.57 1.3-1.05.1.15.54 1.4.08-.5-.72zm2.74.34.53.5 1.54-.48-2.07-.02zm-56.3.63-.17.25.09 1.25.47 1.13.06 1.16-.6 1.03-.5.16.07 2.49-1.06 1.52-.87.5-.51 1.1-.58.36-.36 1-.15 2.23-.37.52.06 1.3.35.93.07 1.43-.46 1.3-.48.2-.77.88-.24 1.65.12.64-.18.99-.35.22-.04 1 .69 1.86 1.13.34.75-.28.57.46 1.19-.06.96.8 1.62.36 2.18-.43.76-.48-.02-.82.79-1.23.94-.2.94-.54.3-.92 1.23-.47.35-.3.5-2.09-.14-1.33.1-1.13-.3-1.23-.02-1.03-1.08-1.86-.36-.94-.25-1.63.36-1.5.94-1.15-.25-2.55-.6-.86.33-.84-1-.67-.58-.9-.77-.11.03-1.15.58-.7.65.13.02.94.55-.06.65-.54-.4-1.24-.57-.13-1.98.73-1.97-.15-.62-.89-.8-.34-1-.11zm-12.29 1.95-.79.04-.96 1.28-.32.05.65.64.18 1.33.64.89-.23.87-.76.24.3.51-.43 1.77 1.83.24.8-.32.1-.75.89-.81.95-1.15.42-1.02-.03-.76-.37-.82.12-1.14-1.1-.5-1.89-.6zm-16.82 5.7-.54 2.35 1-.24.15-.92-.2-1.04-.41-.15zm6.02 33.36-.74.57-.37.9 1.06.75.56.91.05.55.79.75.33-2.03-.4-1.62-.5-.56-.78-.22zm-10.9 7.12 1.02 2.96 1.06 1.25 2.46 3.97.4 1.29.5.45.37-.7.26-1.38.14-1.91-.58-2.23-2.15-2.5-.79-.38-2.7-.82zm-17.06 43.3-.64.18-.95.93-.55 1.92.25.92.13 1.57.3 1.25-.24 1 .19 1.13.66.83 1.2.74.9 1.4.74.66.97 1.17.99 1.8.85.46.58-.5.68-.13 1.16-.66 1.71.32-.3-.46-1.44-1.43-.6-1.17-.15-.95.2-2.4.31-2.04.5-.94-.23-.56.12-1.11-.12-.72-.83-.84-.51-1.08-1.76-.7-4.12-.59zm-7.84 16.8-2.16.82-.37.42-.62 1.93-.77 1.42-.1.56-.03 1.43.16.33 2.08.87 1.06-.4.99.08.95-.47.6-.51.55-.12.4-.56-.57-.5-.39-.7-.07-.72.51-1.12 1-.3 1.06-.04-.79-1.06-.52-.3-1.37-.24-1.09-.4-.51-.42zm58 26.6-.7.35-.2.93.31.33 1.02-.45-.43-1.15z"/>
    <path long-name="State Senate District 38" region="37" short-name="38" value="1" d="m278.98 11.02-1.24.53-.91.71-.55.77.9-.26 2.29-1.48-.49-.27zm-8.73 7.66-1.71.75-.92.54-1.34-.14-2.37.63-1.06.7-.98 1.17-2.53.47-2.37-1.55-3.36 2.01-1.28.3-2.51.92-2 .99-3.61 2.07-.82 1.36-.15 1.07-2.1 1.58-1.33.87-3.92 1.98-2.11 1.2-.84 1.02-.6 1.75-1.06.79-1.88.79-.56.44-.6-.27-.77.39.1.42-1.39.79-1.47.45 1.42-2.06-6.18 3.55-.14.91-1.52.8-1.55.52-.65-.2-1.22.47-1 .77-3.58 1.4-1.07.52-.8.74-.66.15-1.11.66-1.02.4-7.2 3.54-8.95 5.24-.98 1.02-1.43.95-.16.77-1.88 1.09-.2 1.68-.4.79-2.21 1.1.43.52 1.52-.65.47-.6.8.14.17.61-.94 1.3-1.2.4-1.1-.04-1.01.3-.81 1 .68.22 3.3-1.34 1.6-1.4.7-.1.4.47-.95 1.08-1.45 1.3.1.37-.76 1.23-.6.47v.58l1.98.13.8-.1 1.07.53.66 1.13-.05 1.22.27.29 1.1.1 1.1.96.8.22 1.66-.63.77.07 1.62-.24.53.14.27-.72.91-.55 2.28-1.04 1.51-.84 1.07-.27.23-.33 1.7-.71.95-.05 1.37-.4.9-.65 1.84-.6 2.2-1.14 2.68-.9.81-.52 3.44-1.4.4-.85.94-.64-.06-.29-4.34 1.45-1.08.45-.76-.62-1.2.18-.92-.3-2.52.73-.3-.33-.14-.95.36-.41-.15-1.17 1.82-1 2.2-1.05.3-.33 1.68-1.1 2.4-1-.02-1.05 2.73-1.6.99.24 1.83-1.02.67-.58 1.44-.56 1.98.18 2.69-1.23 1.84-1.11 2.08-.3.7-.6.93.2.43-.57 1.42-.63 2.27-.7 2.62-1.21 2.55-1.39 3.27-2.4.28-.46 1.7-1.08 3.74-2.9 1.21-1.36.02-1.43-.43-1 .2-1.12 1.03-1.39 5.88-4.47 2.88-2.27 1.78-1.22 2.36-1.88 2.8-2.47.17-1.55-.46-1.7zm47.7 113.05-.33.12-6.54.55-.83.16-.03.79-1.87.32-2.64-.03-2.84.52-2.4.33-.22.83-1.88.36-.13-.8-1.68.5-.6-.1-1.98.9-1.42.33-.33.29-.17 1.03-.97 1.03-1.94 1.11-1.84.47-1.45.16-.93.26-1.95 1.6-2.2 1.37-2.15 1.09-1.17.46-1.89.28-.89.9-.9.29-2.63 2-.62.03-.63.5-1.14 1.89-.95 1.16-1.47 1.44-1.2 1.93-.76 2.23-2.48 3.15-2.57 2.55-2.95 2.48-1.01 1.29-1.6 1.46-1.67.52-2.17.37-1.35 1.4-1.51.5-1.5.08-1.98 1.05-2.92 2.24-3.2 2.99-2.21 2.79-.4.86-.78.92-1.48 1-1.55-.1-1.17.66-.47.55-1.03.3-.76.65-.92 1.64-1.1 1.44-.54.46-1.02.06-.66.6-1.15.42-1.79 1.13-.32.73-1.24 1.53.13.53-.63 1.33-.35.08-.02 1.37-.25.92-1.1 2.67-.97 1.78-1.83 2.62-.92.87-1.44 1-1.53.77-1.2.3-1.91.2-.72-.17-.63-.94-1.12.26-1.28.78-1.25.93-1.6.43-1.68.1-1.33-.2-.73-.47-.55-.76-1.11.26-1.48 1.22-.6.8-.06.47-.95 1.16-1.67.84-.42.66-.5 1.29-2.1 3.18-1.83 1.97-.97.87-2.28 1.5-.8.2-2.88 1.91-1.2.3-1.82 1.34-1.49.5-.75.43-2.08 1.63-3.91 1.6-2.8 1.36-2.33.7-3.68.34-1-.25-1.1.07-.5-.4-.73.16-1.2-.28-.69.41-1.64.52-.93.13-.76-.26-.5.33-2.91.83-1.25.45-.6.55-1.32.53-1.77.15-.76-.26-.23-.6-2.3-1.1-1.36-.35-1.46.4-1.28.09-.87-.16-1.4.12-3.26.75-.8.29-3.26.88-4.3 2.11-2.14 1.48-7.57 9.03-3.96 3.15-1.54.87-1.52 1.28-1.2 1.78-3.3 2.8-2.2 1.08-2.18.57-3.4 1.24-2.47.65-.5.02-2.5.65-1.28.18-5 1.95-1 .54-1.85.78-2.97.92-4.41 2.45-.42-.05-2.13-.88-.73.25-1.03 1-2.48 1.77-1.68 1-3.04 2.47-.4.14.02.05.18.25-.03.16.08.43.14.47.1.06.2.13h.23l.04.16.14.08.22.96.17.25.3.25.08-.01.04.1.03.03.65 1.67.2-.14.54-.04.58-.43.39.06.08-.34.96-.44.16.16.25-.02.27-.17.12.16.23.23.72-.23.25-.22.04-.33.25-.4-.2-.1.03-.3.37.14.04-.39-.01-.28.52-.11.17-.13.57.14.06.12h.04l.49.99.59-.1.3.35.1.33.42.42.03.06.31.12.02 1.06-.4 1.36-.36.33.35.7.5-.1.28-.25.17.12h.5l.67-.32-.01-.15.19.07.03-.01.76.24.62-.58.21-.3.32.4.24.25-.05.18-.18.7.34.44v.02l.42.57.24.2-.1.11.06.27.14.2.27-.03.17-.03.27-.24h.6l.62-.06 1-.36.5-.37.17.23-.04.15.2.88.6-.26.22-.02.46.35.01.06.05.02.23.8.23.46-.04.17.1.35.54.76.1.15.02.57.32.57.28.25.62.34v.08l.08.05v.46l.4.07-.38.35.07.69.2.32.14.14.9.24.2.14-.03.1.15.06-.1.87.23.4-.11 1.04.16.06.61-.03.25.2.41.58v.05l.1.12.1 1.02.14.1-.02.19.3.54.07 2 .34.27-.04.1.12.11.1.77.47.3.21.1.27 1.32.19.09-.01.26.05.1.15.22.8.67-.02.02.11.1-.22.32.04.87.2.2.06.34.12.13.29.17.35.49.01.05.14.15.3.47h.03l.02.06.1.14.05.35.06.17v.14l.1.67-.36.16.16 1.61-.13.24 1.05.32 4.09 1.16 5.4 1.5 5.05 1.42 5.77 1.62 1.41.32.17.11.95.24.68.22 1.46.33.49.2 8.07 2.22 3.25.95 10.18 2.8.17.02 2.02.62 1.14.32 3.15.83 7.6 2.14.38.06 3.6 1.04.48.17 1.9.5 1.53.46 6.9 1.93 2.5.64 9.82 2.77.8.25 3 .8 3.18.87 1.63.48.92.3 2.93.78 1.22.37 3.24.91 3.57.94 3.52 2.09 3.43 2.01.48.3 2.36 1.36 7.1 4.17 4.09 2.38 2.15 1.28 2.56 1.5.14.15.03.02.01.02.11.12.14.32.34.24.01.2.13.13.12.03.32.35.33-.04.9.36.28.24.56.04.03.13h.05l.2.3.11.08v.06l.19.3h.02l.25-.2.57.06.28-.28.34-.02.39-.31v-.15l-.38-.4.03-.03-.11-.12.48-.56.52.31.11.27.18.14h.14l.25-.54.66.13-.03.46.11.12-.52.69.15 1.15.1.06.1.01.34-.06.3-.3.4-.17.1-.45-.24-.46.27-.13.27.15.14.32.45.41.34.02.07-.05.43-.5.52-.17.17-.22.45-.04.25-.18.48.2.22.03.1-.12.86.42.3.26v.11l.1.06-.1.66.35.2v.13l.38.29.16.02.1-.56.24.16.25-.04.17-.37h.72l.25.24.5.13.14.1.28.08.15-.1.25.15.6.07.18.3.25.14-.06.23.34.56.1.11v.04l.08.14v.79l.4.25-.06.4.26.13.12.26-.2.09.26.54.48-.24.55.17.4.04.27-.1.06.15.55.29.25.1h.36l.18-.46 1.09-.09.8.14.1-.08.03-.64.04-.07-.11-.15.12-.36.31-.34.04-.74-.1-.26.31-.16.28-.39-.07-.34.22-.37.17-.52.27-.19.46.09.42.48v.02l.05.05.41 1.27.06.03.88-.36.2-.37.29-.03.32-.3.12-.3.66-.28.4.18.27.03.4-.1.44.32.38-.12.36.04.44-.12.4-.53.18-.02.11-.14-.07-.23.9-.07.4.2.78-.1.77.23.15.3.06.06-.03.9.05.1.3.52.32.96.28.13-.1.43.05.14.46.27.12.22.2.11.3.1.42-.22.35.1.56-.24.1-.2v-.03l-.14-.37.06-.27.37-.3.68.03.24.2h.44l.44.27v.15l.13.1-.06.47.43.48.76-.15.35.1.06.21.03.04.42.07.1.41.63.23.15.1.07.02.02.04.2.13.13.37-.08.14.02.05.23.25.39.25.2-.03.46-.62.9-.27.37.13h.38l.69-.34.29-.6.19-.18-.08-.36.46-.29.47.36.23.07.08.2.55.38.05.01.87.5.33.38.22.04.37.3.2.23.27.23.15.04.32.35.4.34.42.13.47.43.24.36v.02l.04.02.13 1.23.1-.04.33-.5.44-.44.6.34.25-.02.5.3.46.17.47.36.05.13h.01l.32.3.18.03.38-.25.3-.38.39.06.31-.19.56-.08.35.02.17-.04.08-.16 1-.32.06-.24.33-.32h.86l.12.17v.07l.08.01-.1.93v.04l.34.73.14.13.46.26.74.16.64-.2.57.16h.89l.76-.08.13-.27.54-.53.86.22.4.43.52.11.31.31h.02l.01.03.19.18.31.6.26.22.02.01.66.17.28-.34.54.47.26.09h.1l.5-.1.25.19-.03.18.36.5.33.28.62.23.62.31.07.13.13.25-.04.22.03.15.63.13.71-.21.58-.03.61.14.78.83v.08l.08.1-.09.1v.1l-.22.14-.43.47-.4.82-.14.84.18.44.16.2.07.34.07.17.08 1.33.01.02.34.34.54.09.56-.12h.46l.28.12.45.57.64.26.03.28-.12.04-.37.86.04.07-.13.15-.14.35-.54-.17-.67 1.38-1 .9-.9 1.38-.54.27-2.34 2.48-.27.62.6 1.25.13.18.94.45.39.28.8.07.34.5-.01.42.11.4.06.09.05.26.07.24.34.15.54.68.64.15.7-.08.31.06.17.23.63.5.04.03 1.32-.13.9-.03.22-.24.27.02.14-.2h.32l.21-.9.66-.04.68.1.38-.14.44-.28.43-.1.43.08.47-.02.59-.29.75-.24.5.13.2.26.05.12.01.01.57 1.56.19.92-.13.08-.03.07h-.1l-.67.45.28.39 1.02.4.47.1.58.35.33.56.05.33.49.12h.04l.43-.15.57.08.39.19.14-.11.61-.11h.41l.5-.33.35.1.35.34h.36l.17-.27h.32l.14.22.44.15.2-.4.37.03.36.4.13.46.26.12.35-.04.26-.16.67.01.62-.13.43.14.26.53.56.15.08.15.42.47.13.06.03.11.02.02v.03l.01.04-.03.05-.2 1.09.35.56.64.97.54.24 1.08 1.06.84.44.55.07.23.27.94.11.33.1.55.5.2.32V407.38l.08.43-.42.48.13.21.4.49.6.48 1.09.72.58.63.15.41v.04l.07.1-.1 1.07-1.47.3-.84.75-1.17.2-.95.36.05 1.02-.21.44.05.86.04.07.64.36.63.61.13.27.05.04.12.3.04.07.06.15.26.66.22.36.66.64v.08l.06.05.1.63.37.29.97.22.22.1.04.12.02.01.05.23.06.21.17.26-.08.22v.01l.13.58.27.29-.02.05.07.08-.3 1.24.03.82-.9.69-.2.4-.03.65v.2l-.03.31-.07 1.19-.36.22-.08.1-.12.02-.37.24-.92-.1-.46-.38-.4-.11h-.03l-1.6-.43-.45.96.06.38.35.34.53.4.59.34.06.14.32.34.16.06.24.33.33.27.13.24.06.06.23.46.11.21v.02l.05.11-.14 1.07.19 1.87v.04l.08.86.3.83.15.15.46.12v.1l.05.02.05.78-.55.9-.03.38v.05l-.03.22-.05.7-.84.92.12.9-.62.8-.16.58-.73.54-1.37.71-.09.19v.04l-.05.07-.22.47-.94.38-.28.64-.83.43-.38.58-.02.04-.02.02-.27.4.04.42.07.21-.01.5.04.5.3.43v.34l.06.16.17.3.33.28.23.54v.04l.06.08-.04.33.02.41-.09.14-.03.28-.87.44.24.9-.27.74-1.23.78-.5.9.35.43v.03l.07.1-.09.13v.1l-.14.12-.58.83-.6.44-.34 1.23v.02l.55.37.27-.01.5-.52.56-.29-.05-.34-.51-.67.03-.02-.1-.13.04-.2.55-.1.3.23.12.28.09.1v.1l.04.1-.03.28.02.56.19.39.44.34.1.06.6.13.25.3.01.09.05.03-.02.16.02.15-.07.14-.04.26.27.2 1.1-.66.14-.2.15-.7.3-.19.3.04.3.22.22-.03.32-.3 1.26.22 1.02-.36 1.08.03.26.13.37.34.28.1.85-.23h.5l.76.42.86-.15.23-.32.08-.22.03-.31.76-.23.44.01.2-.48.47-.73.65-.79.33-.51.57-.68.56-.25.56-.32.17-.4.75-.62.62-.3h.4l.46.18.32.57.69.26.2.24v.1l.05.02.1.63.7.53.9.57.17.33v.03l.05.1v.5l.03.07-.03.34v.38l.3.6h.28l.28.35v.2l.09.07-.04 1.72-.82 1.3-.66.67.04.76-1.18 1.7-.02.02.05.19-.26.02-.46.44-.13.46-.77.71-.3 1.2-.84 1.32-.01.27.04.07-.04.08-.05 1.42-.75.54-.06.11v.01l-.01.02-.43.85.11.22-.01.25.04.23-.24 1.43v.8l-.74.25-.62.77.3.97-.15.29-.02.13-.12.16-.3.62.06 1.44-.89.57-.76 1.12.24.7.1.83.05.1v.18l.05.4.26.92-.14.63.01.03.3.2.37.1.54.47.05.11.44.59.22.25 1.04.54.01.08.04.02.08.38.43.38.48.17.36.04.71.47.48.5.35.59.57.89-.28.6.1.2.24.31.06.34.34.72.42.3.62.83v.05l.05.06v.52l.67.06.33-.08.35.33.26.03.8-.06.37.13.44-.06.31.41.65.14.72.36 2.46.81.08-.03.06-.16-.97-.96-1.06-1.68-.22-1.4.45-.4-.2-.73.28-.71 1.2-.55-.52-1.16.1-.55 1.47-1.23-.25-.39.3-.79.79-.71.51-.09 1.07-1.88 2-1.4.53-.12.72-1.85 1.3-1.2.4-.64.49-.22.02-.66 1.38-2.16.4-.36 1.33-1.98 1.54-1.82.11-.74.73-1.01 1.93-2.09.67-.42-.08-1.74.6-1.66 1.04-1.45 1.48-1.05-.2-1.43.49-.74 1.03-.36.25-.89-.15-1.38.27-.75 1.62-1.47.34-.1.53-1.14.73-.7.36-1.9.83-.84 1.58-.84.9-1.51.13-.7-.78-1.02.06-1.61.53-.83.34-.08.39-1.45.56-.72.67-.43.4-.8.13-1.13.65-.9.7-1.48.43-.36.37-1.78.63-.97.67-2.1.73-1.13.24-1.8 1.2-2.4.97-.74.42-.54.5-1.94.76-.84.64-1.43.39-.46 1.33-2.65.5-.48.38-.99-.02-.77 1.1-.82.15-.44.96-.46.23-1.45.9-.91 1.38-.62.34-.45 1.94-1.32 2.01-.72 1.34-.16v-1.64l.52-.53.86-.36 2.48-.66-.36-.48-.65.43-.82.1-.33-.68 1.42-1.03 1.1-1.76-.09-.42.46-.61.97-.14 1.07-.58.1-.32-1.9-.8-.05-.42-.73-.26-.2-.84.16-2.12.69-.5-.5-1.21.27-1-.03-1.71.15-1.68.55-1.5.7-.73.63-1.1.9-.47 1.33-.25 2.13-1.35-.39-.39-.99-.3-1.09-1.21.86-1.05.75-.33.76-1.22.96-2.01 1.25-.6-.51-.42-.02-.7.66-.65 1.45.17 1.72 1.1.1 1.65-.1 1.5-.49.83-1.3 1.11-.63 1.44-.54.61-.83.52-.42 1.66-1.43.67-.48.51.62 1.13-.09.58 1.05.6.25.47.16 2.08.45.47.19 1.28-.33 1.3.05 1.2.3 1.38.55.69-.22 3.18v.96l-.42.67-.32 2.85.4 1.63 1.18.5.26 1.05-.1 1.05.44.82.77-1.68.52-.17.27-1.05.47-.36.4-1.24.85-.26.87.2.61.91.3.01.8-.83.64-1.09.84-.3 2.03-.04 1.07.16.51-.75 2.02-.69.24-1.57-.5-1.05.7-.76.7-1.43 1.2-.76.15-.71-.46-.73.24-.74 1.5-.91 1.06.21-.95-1.97.4-.89 2-.16.53-.7.6-1.87-.14-1.58-.28-.84-.96-.82-.2-.46.6-.85.15-1.2-.32-1.13.22-.6.71-.39 1.81-.69.94-.08.76.46.23.67.82.82.1.99 1.14.48.44.53 1.07-.28.84.07 1.39.48 1.38.3 1.2.62.21-.46.6-.08.72.64.34-1.44 1.27-.05.07-.9-.15-1.67.94-1.48.64-.1.52-.86 1.57-.08.93-1.54.3-.9.53-.56 1.55-.68.9.2 1.91 1.38.68.67.6 1.66.02 2.9.15.44-.92 1.08-.48 1.36-.86.13-.65.74-.51 1.78.47 1-.18.82-.65.56-.83-.14-.74.76-.2 1.62 1.07.67.22.52.89 1.1-.3.69-1.25-.36-.62-.64-.7-.3-1.04.28-.25.65-.63.17-.3-.96-.75-.06-.08-.64-.86-.18-.86.24.14.8.66.72-1.03.16-.4.99.64.28.88-.17.27.55-.7.87-.82.13.14.95-1.12 1.17-.4 1.13-.43.7-1.21-.13-.48 1.03-.46.2.24 1.52.4.29-.02 1.04-1.12 1.58-1.38.61-1.35-.49-.9.33-.6.76-.3 1.46.14 1.37.5 1.22.59.71.52-.49.74.34.03 1.04.67 1.07.17.87 2.24 1.92 1.5.55.2.31 1.82-.33 1.74 1.75.28 1.02.86-.58-.57-1.56-.56-.42-.35-2.2-.48-1.75-.07-1.4-.23-1.22.74-1.11.99-.4 2.07.68.26-1.34-.2-.84.7-.37.24-.52-.08-1.32-.25-.59.06-1.07.43-1.07.77-.6 1.67.5 1.09-.07.3.51.84.21.42-.4-.21-.69 1.07-.82-.83-.29v-1l1.06-.32.14-.68-1.24-.58.1-1.09 1.25-.25.5.1.23-.65 1.26-.13 1.24.82.62-.35.03-.61.47-.4-.2-.52.36-.66.6-.1.3.46 1.31.68.75-.5.5-.76.63.62.38-.05.16-.93.31-.07.28-1.03.41-.2-.39-.86.5-1.2.93-.63.77-.21.97.07.2.55.78-.73 2.14 1.2.45-.54 1.16-.5.68-.75-.64-.86.24-1.32.76-1.1-.4-1.69.16-.57.81-.97v-.71l1.42-1.25-.23-.74-.6-.6v-.84l1.04-2.72-.16-.88.43-.69-.3-.75.11-.6.9-1.4 1.03-.98 1.5-.69h.7l.87-1.12-.45-.8.64-.77 1.5-.65 1-.26 1.27.22.42.37.67-.26.92-1.3.11-.47 1.32-.63 1.23-.04.65.45.69.07.5.41.52-.14.86.25.37.37 1.33.05.52-.56.84.11.14-.55 1.39-.7h1.36l1.71-.29 3.48.37 4.78 1.35 1.98.7 4.48 1.97 1.38 1.32 1.01.22 1.47 1.13.75.2-.36-1.38-.95-.57-.02-.92.44-1-.13-.45.4-.7 1.11-1.07 1.03-.54.55-.68 1.3-.3.76.1h2.45l1.1.5.96-.43.75-1.3.94-.57.73-.03 2.15.37 1.51.64 1.01.64.77.07 2.23.74 1.04-.27 1.9.36 1.57.68.77-.34.3-.65.73-.22h1.63l.54.2.57-.53-.15-.74.4-.99.92-1.17.73-.29.56-.63.18-.74.45-.63.73-.4.01-.4.6-1.36 1.55-2.48 1.12-1.25 1.36-.85.97-2.13 1.05-1 1.56-1.9 2.05-1.8.95-.54 1.35-.34 2.07.08 1.24.57 1.18.34.53.59 1.34-.68-.15-.73 1.6-.95 1.6.1.29.4.64-.01 1.32.8.1 1 .72.48.31 1.25 1.13-.95.33-.72 1.1-.83 1.19-.2.32.04V348l.56-.04 1.12.33.95.5.65.44.23.22.01.3.43.13.2-.07.66.38.17.41-.02.03.1.3.26.04v.1l.79-.12.38.5.52.09.78.38.73.5.16.18.07.04.75-.37.75.28.2.27.47.04.62.4.3-.23.43-.15.83.15.07.19h.01l.21.3.36.12.04.02.24-.14.55.6.83-.02.72.86.08-.06.17-.76-.47-.33.42-.77.96-.17 1.26.95.08.93.03.02h.03l.24.12.3-.05.29-.2.5-.03.24-.16.9.13.26-.01.33.22h.28l1.15.74.6.53.7.4.03-1.23-.02-1.93-.01-3.14.02-3.63.04-3.25-.02-.3v-6.8l-.03-5.75-.05-6.23-.01-.5v-3.82l5.82.05 6.3.05 1.15-.04 5.85.04 6.32.05 2.42.03 10.96-.01 1.23-.03 7.7-.02 3.95-.03 3.9.03 4.45-.02.01 4.5.34-.02 1.93.02.1-.03 3.08.02 2.94.05 1.63-.05 5.14.09 2.7.02-.04-.87v-8.13l-4.5-.02-6.62-.03-.04-2.27-2.25.04v-2.27h-2.16l-.06-3.37v-1.12l4.46.02v-2.23l.06-2.35-.04-1.08-.08-6.2v-.01h-.02l-.37-.13-.47-1.15-.72.2.1.75-.83 1.16-.75-.25-2.64 2.02-1.8.8-2.55.48-1.39-.26-.75-1.65-.13-1.3.62-1.15h.73l.48.64.08.96.72-.25-.05-.62-1.23-1.3-.78-1-.94-.78-.9-2.33-.55-.99-1-1.03-2.45.4-1.04-.2-.6-.4-.98-.23-1.03.49-2.13 1.53-1.64.98-4.88 2.29-3.32 1.12-1.84.3-1.28-.03-1.05-.27-.7-.69-.04-.55-.84-1.6-.8-.84-1.45.5-1.95.22-2.33-.33-.72-.39-.74-1.1-.6-.5.06-.56-.43-.36-.57.17-.42-.35-.86 1.11-.96.54-2.34-.21-2.05-.08-1.05-.17-1.1-.51-.88-.71-.88-1.67-.84-.87-.54-1.67-.13-1.82.34-.99 1.24-1.08 1.52-.5.17-.51-.3-2.08-.77-3.4-.17-3.01.17-3.74.78-7.8-.2-1.49.27-1.97.8-2.35 1.33-2.47 2.14-2.67 2.27-2.25 1.39-1.24-.31-.62-1.71-.22-2.7.3-2.93 1.32-1.22.39-2.9.4-2-.02-3.23-.38-3.49-.59-1.35-.15-1.37.15-2.17.45-2.81.71-2.25.17-1.97.36-3.54 1.45-2.24 1.02-1.88 1.14-3.7 2.12-.8.34-3.86 1.85-2.37.75-1.85 1.04-3.6 1.64-2.18.7-2.48.27-2.35.07-4.44-.13-3.98-.67-4.71-.23-4.88.5-3.86-.03-4.73-.58-4.93-1.22-3.93-.3-3.34.62-2.5.89-1.77.82-3.18.86-.49-.5 1.29-.5-.02-.5-2.5.99-3.32.74-1.16.2-2.26.97-3.17.94-1.91.15-1.5-.45-.73-1.25-.5-.27-.75-.91-2.49.53-2.82 2.4-14.08 9.73-3.2 2.08-4.33 2.32-1.76.57-1.2.68-2.74 1.2-1-.72-.9-.23-.65.16-.33.73-1.19.78-.21 1.04-.6.5-.6 1.23-1.1.94-.93.4-.97 1.1-.18.59-.75.8-1.73.78-.33-.06-1.82 2.84-1.5 1.44-.9 1.66-.53.66-1-.2-.35.25.1 1.45-1.93 2.62-1.34 2.28-.71.13-.7-.2-1.16-1.01-.04-.52 1.04-1.48-.27-1.7-1.49-.48-1.5 1-1.58.08-.54-.12-.79-.85-.84-1.65-.99-.86-.49-.7.13-.95-.52-.54-.62-.06-1.36-.62-3.56.29-1.68 1.72-.56.94-.36 1.21.06 1.02-.47 1.29-.63.28-1.65.3h-1.36l-2.67-.5-.52-.25-.67-.81.25-1.05-.58-.61v-.62l-2.11-1.18-.97.3h-1.02l-1.59-.73-.48-.43-.23-.96.56-.27-.93-2.23-.28-1.11-.8-1.26-.17-1.08-.67-.49-.66-1.06-.6-.27-1.25.21-.57-.25-.6-.83-.37.2-1.39-.24.2.96-.56.31-1.37-.06-.65.92-1.96.57-1.59.23-.33-.42-.5 1.09-1.86 1.36-.24.67-1.27.49-1.92.14-1.85-.44-.7-.29-.44-1.04-.93.2-.22.79-.69.52-2.41.73-2.76.32-3.25.08-2.87-.2-2.7-.39-2.44-.64-2.74-1.13-.8-.6-1.55-1.54-.85-1.12-.5-1.35.4-1.46.65-.07.83-.5-.53-.62.04-.84-.71-.89-.55-1.47.03-1 .69-.77.7.1.27-1.36-.33-.5-.66.38-.02.88-.95.17-1.35-.54-.5-.6-1.98.2-.38-.7-.5.03-.4-.64.06-.6-.93-.49-1.37-1.39.16-.44-.53-1.33-.04-1.46-2.65-1.09-1.1-.76-.67-1.44-.21-.81-1.45-2.24.27-.72-.32-1.48-.43-.55-1.19-.45-.32-1-.57-.25-.94-.83-.47-.72-1.22-.83-.99-1.6v-1.15l-.5-1.08.13-.3-.48-.99-.2-2.27-.3-1.04.31-1.07-1.65-1.13-1.31-1.74-.83-.86-.56-1.1-.92-.25-.75.26-.89-.19-1.13-.58-.69-1.1.12-.55-.14-1.46-.66-.86-.7.1.27 1.15-.25.7-.73.47-1.54.4-2.03-.23-.56-.94-.45-2.4-.02-.96-.43-1.85-.97.16-.61.6-1.1-.15-1.15-.86-.2-.55.2-1-.6-.48-2.27-.23-1.01-.75-.38-.78-1.1.22-2.05.91-1.59-.58-1.43-.77-2.48-2.55-.39-.15-1.62.04-.55.15-3.66-.07-3.2.48-1.35.1-.92-.53-1.04-.27-.74.24-1.2.04-3.76-1.7-1.23-.13-2.07.49-1.3.7-1.43.46-1.42.14-1.58.32-.74.3-2.44.05-1.24.99-.63.16-1.4.92.44 1.14-1.6 1.15-.66.63-1.1 1.77-1.26 3.46-.81.44-.3 1.06-.86.84-1.11.19.05-1.4 1.22-.93 1.19-2.35.6-2.03 1.28-2.99.92-1.5 2.36-2.23.5.12.72-.99 1.39-.69 4-3.85.32-.57v-1.05l.69-.72.83-.3-1.27-1.02-.62.5-.52-.2-1.25.97-1.19.63-1.24.4-.95 1.3-1.94.67-2.93 1.57-1.14 1.23-.7.99-2.1 1.38-3.1 2.63-.47.82-.8.65-1.28 1.48-.89.82-1 1.35-.34.14-1.45-.18-.76-.7.37-1.58-.8-.03-1.06.77-1.05 1.52-.46.94.1.66 1.44-.73.8 1 .06 1.08-3.6 4.18-.23.45-1.76 2.39-.5 1.06-.13.73-1 1.76-.17 1.18-1.8 1.75-.95.38-.46-.08-1.53-.8-.49-.62.36-1.04.46-.58 1.05-2.05.39-.32.92.63.74-.93.04-.36-1.1-2.4-.05-1.31-.99-2.1.12-2.72.38-1.08-.11-1.75.49-2.34-.17-1.46.67-1.36.37-1.25.85-2.13.3-1.09.73-3.66.23-3.66.82-1.84h.56l.11.99.73-.32H271l1.29-1.12 1.92-3.09 1.24-1.2.68-1.1.04-1.25.87-1.96.57-2.37.06-2.22.33-1.15 2.77-1.65 2.83-1.82.99-2.52.12-.93-.2-1.45.78-1.34 1.49-1.02h1.08l.6.5.47.88.83-.54.82-1.03.04-.57-.8-.24-.36-1.14.08-2.57.32-1.8 1.07-2.02.96-.54.81-1.09 1.94.03 1.55-.58.55.16.88-.57.96-1.64 2.16-1.43 2.1-3.16.9-.62 1.3-.35.82-1.43.7-.76 1.18-1.81 1.22-1.42.56-.4 2.22-.57 1.88-.69 2.92-2.57.4-.1 1.79-1.46 1.09-.3 1.28.03.87-1.27-.06-.71-.92-1.36-.79-.21-.83-.91-.33-.96.07-.91.31-1.02.55-1 1.64-.45 3.36-.46 1.45.2 1.54-.61 1.68.27 1.04-.24 1.42.31.52.54.84.02.37.59 1.26.22 1.61-1.17 1.2-.26 1.06.24 1.25-.27.26-.73.63-.69 1.78-.45 1.09.5 1.17.27.94-.06.2-.76-.5-1.34-.17-1.13.4-.72-.3-2.13-.36-.5-1.23-.96-2.77-1.84-4.75-1.98-.86-.09-.82.3-3.22-.3-.02.59-.49.33-1.47-.15-1.45.18-1.4-.52-1.08-.93-3.83-.44-1.43.1-2.57-.16zm37.6 8.53-.62.61-.9.31-.17.36-1.19.1 1.17.37.74-.1.7.28.93 1h1.84v-.5l.55-.89-.22-.83-1.37-.29-.73.1-.72-.52zm-68.9 55.09-.76.54.87.21-.1-.75zm31.05 19.06.67.62.32-.54-.99-.08zm60.02 54.43-.43.36.38.84.7-.8-.65-.4zm78.76 6.88-2.06.96-1.2 1.47-.05.52.57 2-.07.5.33 1.48v.79l.56 1.18 1.24.6.1.95-.25 1.06v1.36l-.24 2.2.1 1.16 1.14.77.56.1.76-1.43.5-1.6.36-.13 2.2-.05-.57 1.09-.71.27.76 1.27.6.15.59-.4.7-.08 1.42-1.89.3-1.08-.29-2.76-.3-.1-.76.96-.92 1.58-.81-.13-1.18-1.38.75-2.19.57-.53.54-1.95.03-1.65.3-1.03-.64-.47-.64-1.33-.75-.67-.07-.48-.78-1.06-.3.3-1.13.32-1-.07-.26-.58zm-6.94 7-.5.02v.59l.42 1.03.78.2-.04-1.12-.66-.73zm-16.22 4.16-.49.19.55.86.46-.62-.52-.43zM455 421l-.61.55-.38 1.2.01.39 1.22 1.14.5-.02.34-.52.53-.12.85-1.26-.85-.82-1.6-.54zm4 4.58-.6 1.3.48 2.6.06.8.5.5.2 1.34.84.2.7-.28.76-.71-.02-.51.59-1.01-.01-.64-.5-1.42-.74.22-.53-.26-.8-1.63-.44.08-.5-.58zm-.67 8.26-.95.52.33 1.2.76-.12-.14-1.6zm-12.02 3.34-.82.22-.22 1.14-.09.5.5 1.5.51.23.99 1.32.8-.05-.05-2 .12-1.79-.77-.28-.97-.79z"/>
  </g>
</svg>