<svg candidates="[{&quot;id&quot;:&quot;0&quot;, &quot;name&quot;:&quot;Democrats&quot;, &quot;margins&quot;: [{ &quot;color&quot;: &quot;#1C408C&quot; }, { &quot;color&quot;: &quot;#577CCC&quot; }, { &quot;color&quot;: &quot;#8AAFFF&quot; }, { &quot;color&quot;: &quot;#949BB3&quot; }]},{&quot;id&quot;:&quot;1&quot;, &quot;name&quot;:&quot;Republicans&quot;, &quot;margins&quot;: [{ &quot;color&quot;: &quot;#BF1D29&quot; }, { &quot;color&quot;: &quot;#FF5865&quot; }, { &quot;color&quot;: &quot;#FF8B98&quot; }, { &quot;color&quot;: &quot;#CF8980&quot; }]}]" viewBox="0 0 919.04 999.9" auto-border-stroke-width="1" auto-border-stroke-width-limit=".5" version="1.1" title="Ohio 2024 State Senate" country="usa" type="oh_upper" date="2023272" variant="blank" original-source="[&quot;https://www.ohiosos.gov/elections/ohio-candidates/district-maps/&quot;]" xmlns="http://www.w3.org/2000/svg">
  <g map-type="regions" transform="matrix(1.1 0 0 1.1 -90.86 -100.85)">
    <path region="0" short-name="1" long-name="State Senate District 1" value="1" d="M86.04 414.6v-3.67l.02-1.22-.04-1.4-.02-3.24.03-1.98.02-5.42L86 382.9l-.02-5.53-.03-3.6-.05-10.93-.02-1.87-.02-5.6-.02-7.23-.01-7.96.02-3.15-.02-6.74-.03-14.53v-8.48l-.01-4.67.02-.28-.03-1.82.03-.88-.03-10.54.01-2.83v-8.4l-.02-3.98-.08-15.14v-8.85l.03-1.4-.02-3.38v-4.66l.02-1.04-.02-3.64-.02-.87v-5.75l-.04-8.47-.04-5.03v-3.25l-.07-8.86-.05-3.9-.1-12.84-.03-1.26.02-3.23-.06-.68.04-3.21-.02-4.24-.06-3.74.04-.08v-5.52l11.81-.54 5.2-.2 1.87-.04 5.35-.18 5.9-.12 5-.2 4.43-.1h1.88l11.33-.37 6.63-.17 4.66-.08 1.83-.08 5.5-.22 3.04-.08 4.46-.14 7.86-.2 13.52-.5 3.76-.2 3.74-.12 3.88-.1 7.46-.23 8.43-.38 6.6-.28 3.73-.18 3.79-.17 3.8-.12 3.77-.2 3.72-.14 3.5-.03 4.52-.16 7.5-.35 3.74-.11 3.74-.2 2.77-.03.93-.04.02 1.27.11 3.81.12 5.59.14 5.56.2 10.44-.99.01V192.65l-.04 7.66v3.66l-.05 11.21.01 7.56-.02 8.25.02.65-.05 5.59-.02.13v4.5l-.07 13.89.05 3.89v.58l.04 5.04.05 2.56.03 3.64.08 5.93.02 3.66v2.57l.07 6.52.14 10.78v.69l2.59-.05 3.18-.04 4.19-.02 12.74-.02 7.25-.05.81.05 6.63.05 9.24.15h1.87l7.5.09h2.25l1.42.03 1.94.09 1.8.04.92.05 9.66.16 2.19-.1 2.76.03 1.35-.1h1.27l7.74-.1-.05 5.92.04 4.84-.03.57.05 7.45.02 1.53v5.99l.08 11.4-.03 1.73.06 5.6-4.25.06h-3.04l.04 11.1-3.71.03.03 3.75-.02 7.4h-5.15l-2.22-.03-.09 7.7-.14 14.62 3.8.05-.04 1.81-.05 4.31v1.53l.05 7.34-.06 7.43h.22l-.03 5.53.01 1.88 3.43.02 3.48-.18 3.89-.01-.02 3.73 3.96.2.04 6.7v2.23l-.12 7.6.01 4.87.07 2.44v1.86l.25 4.38.1 2.75.16 3.72.14 3.68.17 3.6-.59 2.6-12.65.22-7.06.07-.32 2.93-.2 2.38-.34 3.8-.27 3.25-1.14 13.17-.17 1.83-.3.21-2.44.79-1.14-.62.12-.6-6.77-.53-5.11-.25-.03.45-1.89-.11-3.9-.3-1.38-.03-1.47-.13-4.33-.27-1.46-.06-1.98-.14-4.89-.3-1.3-.06.3-4.04-7.57.82-.04.8-1.02.15-5.9.71-7.11.9-4.9.58-.56 7.57-.3 3.7-3.76-.29-8.8-.71.18-.89.24-.38-6.55.02-1.33.03-5.71.07-.44.06-.08-5.51.56-.08-.02-3.26v-5.23l-.03-9.18-.02-2.37-.01-3.53 1.66.03-.01-2.02-.01-7.9v-3.4l1.14-.02h5.61l.66-.01 9.16-.03 2.83-.43 1.77-.18.93-.23-.04-8.58.02-1.86-.05-5.56.02-7.93.04-7.6.02-10.55.03-6.6-.02-6.57v-5.02l-.02-3.64.01-3.54-.01-4.34-.03-5.56-.02-12.6-.02-7.82-7.42.03H255l-4.89.03-3.72.06-3.7.03v3.8l-5.17.04-6.44.02-1.45.01-1.5-.04-3.3.03-4.33.02-.08 2.68.01 4.74.03.2.03 3.6-1.85.13-2.2.08-7 .07-4.06.07-2.1-.02-1.42.05-3.75.06v-.2l-3.47.08-3.9.02-4.66.01-.62-.01-6.43.1v-.03l-3.37.08.05 6.99.03 4.03-11.11.05.02 3.8.05 11.05-.01 7.34.01.5.04 10.88-3.17.05-1.96-.02h-4.17l-2.23-.01.02-2.53-.01-8.6-3.54.02-8.67.01-6.28.03-11.16.08-5.53.04h-3.08l-9.47-.03-8.85-.07z"/>
    <path region="1" short-name="10" long-name="State Senate District 10" value="1" d="m240.31 787.8.83-10.59 1.07-13.08.58-7.45.35-5.27.69-8.88 1.23-17.29 1.07-14.87.1-1.53-2.15-.17-2.33-.23-14.7-1.23-3.78-.29-3.67-.3.08-1.58.5-6.74.23-3.35.07-.35-.45-.1.14-2.25.03-1.12.45-6.8.2-2.09.1-1.36.12-2.48.22-3.4-.02-.46.15-1.86.03-.81.22-2.44.26-3.38.1-1.47.27-2.9.12-2.12.13-1.31.13-1.9.09-.65.17-3.06v-.89l.18-2.27.06-1.14.11-1.28.05-1.13.38-4.94 3.77.27 3.58.27.02-.73.1-1.05.21-3 .24-2.81.25-4.02.49-6.65.18-3.8.25-3.1.04-.86.2-1.43.4-6.03.13-1.69.15-1.55.15-2.59.21-3.12.05-1.1.22-1.94v-.46l.4-5.7 3.44.27 3.57.21.68-.03 1.85.1 3.02.27 5.24.4.87.1 3.66.23 2.16.33 2.91.24 2.28.16 3.59.18 7.54.52 7.03.54 3.6.34 4.82.39 3 .22 9.34.78 1.62.05 1.88.14.55.09 4.92.44.77.1 9.66.66 4 .26 5.8.27 3.1.34 1.22.07-.83 3.45-.41 1.6-.9 3.15-1.35 5.38-.9 3.97-.59 2.35-.67 2.55-.47 1.68-.65 1.8-.5 1.14-.7 2.86-.35 1.27-.47 1.95-.6 2.76-1.28 5.02-1.23 5.5-.43 2.19-.27 1.22-.44 1.72-.73 3.6-.34 1.3-.61 2.7-.44 1.84-11.48-1.07-.29 1.15-.04 1.85-.65 8.2.01.87-.24 1.88.01.22-.31 3.86-.14 2-.46 5.87-.4 4.88-.3 3.22-.18 2.9-.22 2.78-.14 2-.4 4.79-.2 2.73-.12 1.28-.08 1.44-.17 1.95-.15 2.3 5.43.43 3.36.23.12-.03 7.81.68 1.5.12-.72 10.1-.14 1.4-.82 12.8-.67 10.42-.47 6.97-1.04.74-3.68 2.75-2.98 2.28-3.45 2.63-5.69 4.44-.9.66-2.06 1.65-1.6 1.23-2.96 2.37-1.93 1.52-4.58 3.52-6.45 5.04-.32.23-.14.96-.26.62.07.24-.7.6.08.34-.1.33-.43.25-.58 1.66-.04.47-.58.44-.32.34-.44.2.1.77-.11.14.24.5-.46.17-.22-.2-.31.33-.37 1.42-.5.24-1.55.22-3.3-.12.29-5.61-6.07-.41-10.98-.77-5.23-.37h-.2l-6.44-.45z"/>
    <path d="m415.35 152.78-1 1.2 1.43-.13zm-67.9 2.51h-.14l-1.44.08h-.58l-12.08.44-3.66.18-7.35.24-2.67.08-2.5.1-2.4.1-4.85.2v.91l-.25.47h-.52v.5l.16.15.02.78.37-.01.01.45h-.38v.27h.38l.03 1.18 1.01-.03.02 1-1.2-.02-1.82.02.4.42.06 1.2h.64l-.06-.9 2.02.94.01.18-.98.01.07 1.88-2.88.05.03.9-.24.05.01.35.97-.01-.21-.36 1.4-.04.03.92.48-.01.04 1.08-.32.02-.15.27.02.47-2.48.07.04.93.73.98-3.86.1-2.04.13-.18 1.96-1.6.15-3.88.25-7.45.11.05 1.43h-.33l.06 3.8.03 5.52-4.83.06v9.1l3.35-.09 1.53-.02-.02-1.44h7.23l2.11.01.94-.08.36.13.25-.1 1.14.15.67-.08.95.13.09 2.12v2.06l-.98-.18-.05 1.07-.09.5h1.1l.5 1.93-1.31.42-.84.08v.67h.22l-.01.76-.22.1-2.02-.06-1.66.78v1.07h.4l-.02.9.9 1.02.66.01.49-.43.3-.03.93-.43v-.96l.98-.95 1.15-.92.48.04.08.34-1.06.57-.38.48-.75.78.04.33-.24.33.15.54.32-.37.42-.2.82-.65.81-.77.06.3.86-.66 1.08-.2 1.72-.42 1.13-1.09 1.51-.57.72-.83.66-.5.3-.1 1.4.24.94-.65 1.1-1.9 1.35.09 1.16-.27.62-.64.22-1.22.46-.73.53-.6.5-.83 1.22-.72.26-1.07.42-.36.57-1.66.68-.88.48-.19.72-1.53 1.63-1.6 1.06-.14 5.55-.08 4.52.02 3.54-.08 3.35-.04 9.59-.18 2.28-.02 5.1-.17 1.88-.09h.92l.95-.08 1.71-.03 2.67-.08 3.57-.06 2.64-.12 3.17-.05 6.29-.24 1.36-.06 3.4-.08 2.15-.02 5.73.08 3.32-.04 2.06-.05.89.01-3.47-1.31-2.7-1.43-1.33-.36-5.55-3.58-.2-.49-7.97-5.63-.87-.82-3.27.03-1.18-.27-.72-1.64.81-1.25-2.33-1.9-1.2-.62-1.08-1.37-1.23-.72-.4 1.77-.99 1.75-1.27.57-.42.73-3.98.46-1.45-.12-2.62-1.63-1.32.26-1.85-.08-2.65.46-3.18-.82-.63-.78-2.5-.64-.57.31-.3 1.3-.98.72-1.36.5-1.55 1.32-.76-.7 1.12-1.42 1.35-1.1-1.24-1.03-.2-1.14.82-.42.58-2.93.77-1.78 1.33-1.25.94-.06zm5.39 5.48-3.06 1.9-.34.92 1.3 1.72.77-.72 2.56-1.64zm-4.23.33-2.29 1.24.08 1.17 2.7-1.5z" value="1" short-name="11" long-name="State Senate District 11" region="2"/>
    <path region="3" short-name="12" long-name="State Senate District 12" value="1" d="m234.76 589.9.26-3.95.12-1.4.42-6.28.4-6.43.36-5.26.14-.9.01-1.16.27-3.7.31-3.33.26-4.08-1.3-.1-8.15-.54-3.17-.24-6.14-.54-3.28-.25-4.33-.34-2.45-.18-3.1-.29-2.67-.18-3.5-.27.1-1.15-3.34.1h-.4l-2.04.13-2.24.08-2.94.06-6.44.08-5.1.08-2.37.06-5.56.1h-1.64l-2.06-.08-1.58.01-2.12.09-3.7.05-.04 2.13-.68 2 .78-.02.16 6.6v1.04l.04 1.26.1 5.66.08 2.94.1 4.44-3.85.06-6.14.17-4.16.08-4.35.12-4.16.07-2.7.08-1.03-.02.13 7.3-2.74.05-3.84.05h-3.05l-.84.04-2.43-.05-3.76-.05-4.06.01-3.6.04-1.64-.01-1.45.04-.12-5.54-.03-1.77-6.87.02-5.53-.07-4.77-.1-2.59-.07.01-1.16.08-2.53.18-9.4.15-6.99.13-5.47.04-2.77.1-4.98.08-3.41.15-9.63.09-7.06.02-5-.02-3.75-.03-2.93-.04-6.71v-1.86l-.03-5.38.04-6.03.1-9.58.09-5.1.06-7.4.01-6.38.05-9.66.02-6.44.01-7.35-.02-11.87.04-1.02-.03-2.17.04-.58-.04-2.82.01-6.56 10.6.03 8.85.07 9.47.03h3.08l5.53-.04 11.16-.08 6.28-.03h8.67l3.54-.03.01 8.6-.02 2.53 2.23.02 4.17-.01 1.96.02 3.17-.05-.04-10.88-.01-.5v-7.34l-.04-11.05-.02-3.8 11.11-.05-.03-4.03-.05-6.99 3.37-.08v.03l6.43-.1.62.01h4.66l3.9-.03 3.47-.09v.2l3.75-.05 1.41-.05 2.1.02 4.06-.07 7-.07 2.21-.08 1.85-.12-.03-3.61-.03-.2-.01-4.74.08-2.68 4.34-.02 3.3-.03 1.49.04 1.45-.01 6.44-.02 5.17-.05v-3.8l3.7-.02 3.73-.06 4.88-.03h2.55l7.42-.03.02 7.82.02 12.6.03 5.56.01 4.34v3.54l.02 3.64v5.02l.01 6.57-.03 6.6-.02 10.56-.04 7.59-.02 7.93.05 5.56-.02 1.86.04 8.58-.93.23-1.77.18-2.83.43-9.16.03-.66.01h-5.6l-1.14.02-.01 3.4.01 7.9.01 2.02-1.66-.03v3.53l.03 2.37.04 9.18-.01 5.23.02 3.26-.56.08.08 5.51.44-.06 5.71-.07 1.33-.03 6.55-.02-.24.38-.18.89 8.8.71 3.77.29.3-3.7.54-7.57 4.91-.58 7.1-.9 5.9-.71 1.03-.15.04-.8 7.57-.82-.3 4.04 1.3.06 4.89.3 1.98.14 1.46.06 4.33.27 1.47.13 1.38.03 3.9.3 1.89.11.03-.45 5.1.25 6.78.54-.12.59 1.14.62 2.44-.79.3-.21-.42 4.76-.25 3.14-.52 6.07-.08 1.1-.36 4-.51 6.42-.34 4.13-.38 4.3-.23 2.85-.37 4.1-.14 1.75 2.5.22 3.26.33 3.17.3 2.1.14-.16 2.26-.33 5.37-.17 3.08-.45 6.38-.22 4.06-.23 3.54-.23 4.27-.11 1.37-.37 4.85-.4 4.23-.25 2.5-.24 1.77-.1 1.57-.7 7-.24 2.4-3.1-.35-5.81-.27-4-.26-9.66-.67-.77-.09-4.92-.45-.55-.08-1.88-.14-1.62-.05-9.34-.78-3-.22-4.82-.4-3.6-.33-7.03-.54-7.54-.52-3.59-.18-2.28-.16-2.9-.24-2.17-.33-3.66-.23-.87-.1-5.24-.4-3.02-.27-1.85-.1-.68.03-3.57-.21z"/>
    <path d="m627.53 211.72-2.85.83-3.45 1.37-14.5 4.8-2.76 1.07-3.56 1.64-4.98 1.69-.59-.3-1.61.73-.11.91-4.52 2.9-2.45 1.86-5.64 3.53-2.7.9-2.9.42v-.01l-1.57.21-6.09-.5-4.08.19-.78.34.03.87.08 1.7.02 1.8.09 2.25.06 2.95.12 4.41.15 4.37.18 6.12.08 3.24.2 5.16.01 1.84.1 3.28.02 1.27.1 5.13.12 3.98.14 7.73-3.9.02-2.12-.12-.76-.16-2.16-.1-1.05-.08-1.67.04-2.1-.02h-2.9l-3 .04-.1-9.14-.03-1.93-.05-7.3-5.28-.12-5.85-.16-1.95-.03-4.7-.12-1.86-.02-6.4-.14-.52-.02-7.45-.02-1.38.02-1.99-.1-1.39.05-2.47-.06-1.17.02-2.4-.09-11.2-.2-2.15-.05.31 9.78-.03.04.18 4.07v1l.13 3.95-7.97-.15-3.6-.11-7.72-.27.15 4.2.2 6.58.02 1.2.13 4.35.09 2.13.16 5.25.15 4.1.1 3.64.18 4.8.13 4.88.1 3.11.34 12.53 3.18.08 6.04.1 11.1.08 4.94.05h1.73l4.57.04 2.02.07 2.99.06 4.11.06 3.08.02 6.32.1 3.95.1 5.37.09 5.14.07 3.36.04 9.1-.01-.18-4.17-.5-11.6-.12-2.87 9.99-.07h1.66l9.72-.03v-.06l4.4.1 2.45.02 3 .06 4.1.18h.99l13.27.23 1.94.05.17-10.32.14-8.63 3.58.04 10.07.1 4.91.02.09-3.76.03-2.11.05-1.16.04-3.56.06-2.04.04-2.58.04-1.13 1.8-.01 11.73.02.56-.02 5.04.01.02-1.9-.08-.44.04-3.37.14-4.07.08-5.8.03-.3.05-3.47h8.82l.91-.05.35-.1 1.17-.02 1.6.02 1.63.12 3.84-.03.01-1.64.05-6.06.16-11.84-9.09-.06-6.34-.07-2.88-.03.02-.46.04-5.04.1-3.15v-3.3l.06-2.14-.02-1.37.06-1.47-.02-2.28.04-1.43.03-7.53.04-2.26v-2.4l.06-3.94.14-2.8.01-.22-5.2-2.47-.63.2z" region="4" value="1" short-name="13" long-name="State Senate District 13"/>
    <path region="5" short-name="14" long-name="State Senate District 14" value="1" d="m471.58 958.5-1.03-.64-.53-.54-.4-.23-.43-.44-.14-.26-1.36-1.07-1.15-1.17-.46-.66-.6-1.08-.2-.82-.43-1.06-.35-1.04-.34-1.35-.28-1.68v-.6l-.11-.73-.05-1-.18-.85.11-.32-.01-2.32-.17-.72.17-.02.04-.49-.15-1.22-.1-.02-.15-1.13-.39-1.58-.64-1.7-.53-.98-1.06-1.49-.54-.68-.24-.49-.24-1.02-.03-.65.17-1.57.3-1.71.13-.55.28-1.57.38-1.75.24-1.69-.09-1.27-.12-1.03-.33-1.43-.28-.72-.34-.58-.74-.97h-.46l-.65-.34.11-.3-.3-.32-.65-.22-.67-.09-.65.03-.97.37-.24-.02-.9.42-.39-.03-2.24.62-2.67 1.06-1.07.56-.51.37-1.3.76-1.8 1.22-.47.29-.37.38-.57.38-.18.26-.87.54-.38.04-.77.3-.42.05-1.14-.1-1.66-.52-.94-.2-.9-.14-.85-.05-.78.04-.1.16-.46.04-.79.27-.49-.16-1.05.28-.78.45-.48.57-.15.34-.74 1.18-.96 2.4-.7 1.07-.37.44-.73 1.16-.38.45-.9.6-.69.75-.78.32-.6.38-.68.28-.91.53-1.37.7-.87.18-.88.26-1.28.27-.9.38-.55.35-.84.74-1.25 1.61-.46.82-.31.71v.48l-.24.62-.2 1.13-.23.96-.44 1.2-.41.87-.88 1.54-.6.77-1.11 1.12-.35.13-.58.46-.51.5-.52.3-.98.08-.66-.12-1.14-.05-.57.07-1.53-.07-.64.21-.56.04-1.82.3-1.34.09-.6-.04-1.02-.23-.88-.38-.5-.37-1.45-.91-1.08-.6-.86-.3-1.24-.17-1 .03-.25.08-.82.52-.47.53-.38.21-1 .08-.68.35-.66.77-.21.85-.28.2-.87 1.1-.3.25-1.1 1.35-.57.56-.33.42-.42.3-.54.24-.58.12-.89-.19-.73-.26-.6-.33-.52-.36-.48-.44-.8-.87-.55-.87-.26-.73-.12-.58-.08-1.7-.07-.72-.3-1.34-.3-.46-.21-.52-.22-.22-.3-.6-.62-.58-1.94-1.5-1.11-.66-.93-.68-.7-.33-.41-.42-.65-.36-.47-.34-1.88-.84-.75-.22-1.66-.4-1.96-.32-.8-.2-1.8-.24-.28-.16-.83.17-.6-.19-.27-.3-2.3-.22-1.67-.06-1.24-.19-.39-.1-.5-.28-1.01-.4-.4-.22-.47.05-1.48-.35-.8-.57-1.16-1.4-1.79-1.77-.71-.6-1.28-.86-1.7-.9-.6-.26-.8-.25-1.56-.31-.38.08-.44-.05-.95.07-.71.12-1.79.42-2.4.77-1.57.58-.97.46-1.08.31-1.41.31-.59.22-1.05.15-.69.2-.23.18-.92.43-.54.5-.42-.15-.87-.1-.58.07-.6.2-.56.3-1.35.8-.57.4-.9.98-.56.86-.44 1.26-.23 1.46-.09 1.44-.5 2.06-.63 2.12-.71 1.25-.41.34-.87.47-1.04.33-1.15.2-.53-.03-.72-.26-.52-.3-1.1-.33-.7-.29-1.54-.75-.81-.43-1.19-.74-.37-.18-.6-.01-.38-.17-.23-.29h-.43l-.66-.44-.23-.4-.6-.4-.52-.1-1.12-.06-1.71-.15-1.23-.18-2.02-.47-.9-.29-.72-.14-.68-.33-.68-.57-.41-.65-.26-.64-.06-.5-.34-.9-.34-1.68-.37-2.3-.4-1.74-.59-1.75-.64-.8-.84-.58-1.3-.6-1.6-.5-.85-.1-.72-.15-1.25-.43-.49-.26-.79-.67-1.33-.82-.81-.88-.29-.49-.33-1.07-.15-1.21-.33-1.71-.26-1.05-.52-1.3-.7-1.09-.52-.38-.68-.78-1.35-.83-1.32-.6-.8-.23-.47-.03-.26-.14-1.4-.48-.73-.08-2.06-.4-.83-.22-1.5-.32-.75.05-.62-.11-1.4-.46-.08-.19.44-.18-.07-.19-.67-.28-1.63-1.26-.48-.43-.78-.45-1.1-.44-2.27-.45-.41.05-.92-.03-.6.07-.73-.09-.4.04-.42.21-.76.2-1.03.54-.94.27-.27.15-.81.21-1.23.2-.78.27-1.58.72-1.46.47-.46.08-.87.3-1.3.35-.99.21-.82-.19-.44-.03-.52.1-1.55-.04-.86.04-.9.16-2.4-.6-.64-.25-1-.1-.56-.28-2.61-.92-.59-.37-.26-.32-.53-.14-.33-.2-3.2-1.46-.58-.22-.67-.17-.94-.4-2.3-.7-4.09-.8-1.6-.27-1-.1-.7-.2-.69-.1-1.52-.44-1.4-.78-.33-.43-.67-.65-.8-.94-.49-.72-1.04-2.43-.32-1.53-.13-1.4-.08-.33-.13-1.93-.01-1.65.06-1.59.18-1.63.12-1.49-.06-.74.03-.87-.2-2.06-.2-.93-.24-.71-.25-.47-.54-.73-.37-.7-.33-.3-.55-.92-.28-.62-.34-.48-.36-.7-1.2-2.17-.66-.52-.35-.65-.52-.68-.15-.34-.8-1.23-.5-.62-1.18-1.2-1.57-2.22-.43-.77-.27-.66-.57-1.15-.53-1.58-.16-.99v-.54l-.3-2.75.12-.64-.23-.67v-.3l-.32-1.08-.57-1.55-.53-1.1-.63-1-.88-1.21-.46-.54-.73-.7.25-2.88.35-3 .4-3.81v-.25l.24-1.94 1.2-10.55.21-1.74.7-6.1.2-2.73-.01-1.48.25-1.12.28-.34.66-.31.06-.33-.49-.6-.31-.92.24-.47 1.08-1.09.33-.09.47-.42.02-1.03.26-.61.56-.53.27-.37.2-.54.73-.62.15-.73.18-.27-.02-.74-.3-.6-.35-.34-.37-.65-.18-.47-.34-.29-.6-.07-.43.15-.59.48-.46.25-1 .27-.33-.07-.64.12h-.8l-.43-.3-.4-.78-.26-1.18-.22-.69-.2-.22-.51-.2-.06-.31.26-.4.39-.48 1.5-1.15.41-.75.64.03.16.1.64-.29.58-1.04-.01-.62.14-1.02.49-.75.87-.38.93-.26 2.65-1.96.37-.6.58-.53.73-.19.14-.26.04-.64.25-.7 12.44 1.03 7.92.65 11.03.88 11.76.94 4.95.37.81.08 4.67.36 6.44.45h.2l5.23.37 10.98.77-.07 3.42.02.9-.04.72-.03 3.12-.07 4.05-.01 1.99-.06 2.89-.06 4.69-.03 1.52v2.98l-.05 1.19-.04 3.06-.05 1.77-.04 3.08-.1 4.17-.13 4.53-.01 2.9-.03 1.03-.2 4.2-.27 4.35 6.22.22.79-.02.89.05 2.84.03 13-.07 4.54-.11 4.1-.11 9.01.33 6.53.21.04.03 2.62.04 3.73-.91 9.75-2.16 4.38-.95.8-.13.8-.22 2.53-.46 4.55-.89 6.1-1.17.33-.07 10.88-2.11 2.1.17 4.28.22 1.9.09 3.31.11 2.21.16.16 1.1.16.26.68.19.12.32-.33.37.02.21.45.53.33-.11.65.41.32.53.27.04.27.28h.27l.3.46.37.16.24.47.23.21.63.16v.52l.35.79.16.15.64.01.29.47.44.09.66.34.69 1 .53.47.7-.05.64-.14.16.35.42.03.32-.31.33.51.63.39.74.32.82-.21.3.32.8-.1.17.1.01.43-.12.5.78.5.38.62-.35.65 1.31.2.15.63 1.14.36 1.05.53.25.51.11.8-.13.74-.32.64-.16.74-.13 1.6.4.06.36-.14.53.66v.36l-.56.72-.23.44.09.49.4.31 1.63.05 8.08.27 1.5.12 5.72.13.57-.04 2.38.05 10.5.18 3.6.07 7.21.13 4.87.23.32.39.47-.36 1.2.05 9.76.5 11.96.72 8.63.51 10.64.69-.25 3.33-.04.23-.18 2.36.03.22-.53 8.06-.02.54-.43 2.8-.25 1.38.25 3.65 2.88.17 1.32.04.8.1 9.52.6 6.96.54-.29 3.28-.41 5.37-.24 3.58-.76 7.84-.06 1.44-.45.05-.27 3.09-.02.52-6.3-.5-.32 4.01-.87 10.7-.93 3.26-.1.06-3.9-.19-4.46-.27-2.72-.15-.45 8.77.74 1 .65 2.35.59 1.52 1.87 4.33 1.16 2.6-1.87.82-4.7 2.09z"/>
    <path region="6" short-name="15" long-name="State Senate District 15" value="1" d="m424.35 615.42-.4-1.61.56-.14-.14-2.35-.52.03-.34-2.15.72-.16.8.3 1.13.24 2.11.08-.06-.38 1.32.09.03-.41.73-.01.36-.41.31-.04.71.88.4.02.42-.4.43.15 1.1-.07.22.08 1.39-.2-.2-1.34.78-.53.79-.86.19-.76-.14-.43-2.03-.11.03.2-.9-.05.01-.42-.65-.04-.31-2.11h.23l.1-1.28.94.05-.47-3.14-1.53-7.58-.54-2.6v-.45l3.96.26.59.1.27-.36.83.05-.02.37 1.19.08.02-.46.86.06.73-.07.1-1.86-.2-.57-.02-.38 2.52.11 3.66.25 4.65.28 2.38.13 3.18.21.84.08-.34.8-.05.95.47.39-.01.47-1.13-.05-.02.36-.8-.06-.3-.28-.1 2.1-.6-.02-.1 1.23.26.01-.1 1.5.04.46-.05 1.4.49.03-.1 1.75.3.81.72.34.61.08 2.34.15.91.2.82.38.64.75-.02 1.26.84.3.73-.02.63.29.03.59-.14 1.05.05.45 1.52-.16.87-.2.42.2.02-.38h.42l.84-.24.97-.42 3.04-.97.58.03.06.4.59.03-.28.41-.54-.2-.25.29.87.06.04.45 1.22.07v-.21l.5.02.12-1.96.34-.26.05-.84 1.5.1.06-1.18-1.82-.12.02-.23.55-.2 1.32.09.04-.45 1.86.11-.07 1.09-1.18-.06-.08.83 1.27-.16-.06 1.06-1.14-.03-.03-.3-.72-.11-.15 2.23-.97-.05-.06 1 1.2.07-.04.61-1.28.15-1.36.21.07.48.34.02-.06 1.06-1.8-.12-1.9-.09-1.85-.12-.1 1.92.91.06-.13 1.83 1.83.12-.09 1.5-.4.07-1.44-.1v.23l-.79-.06-.03.5-2.21.03-.3 1.9-.28-.11.12-.82-.3-.08-.17.33-.44.04-.12.72-.22-.05.13-.8-.03-.8-.46.45.08.58-.12.35.07.63-.3.47-.95.73-.28.1-.3.38-.04.78 1 .3 5.52.4-.11 1.83.28.55.95 1.03.17.28.08.47-.25 3.45-.32.07-.33-.3-.03-.4-.59.15-.61-.21-.29-.24-1.13-.17-.64.43-.6.24-.57.05.03-.41-.23-.27.12-1.7-2.23-.15-.2.72-1.17-.08-.09.53-.41.16-.55-.32-.3-.4-.37.1-.3.44-.48-.08-.35.07-.3.22-.87-.06.1-1.2-1.25-.08-.02.54-.32.1-.1 1.04-2.2-1.44-.1 1.66-.06.08 1.6.6.42.05.66-.14.48-.2-3.11 4.12-.84-.01-.12-.5.1-.2.46.04.18-.27-.09-.32.14-.39-.64-.35.27-.31-.23-.36-.04-.39-.5-.03.17-.83-.29-.27-.67-.24-1.34-.1v.22l-1.82-.11-.12.63-3.62-.23.06-1h-.69l-1.13-.08-.21 3.6-3.7-.25.03-.44-.22-.02.05-.82-1.55-.1v-1.2l-.84-.06-.15-.2h-1.49l-.27-.82-.17-.7.26-1.48.28-.7.37-.63.25-1.22.3-1.05.35-.55.23-.53.03-.5.67-.03.03.44 1.03.06-.02.23 1.42.08.22-4-3.29-.2-.98-.11-.75.07-.7.15-1.06.37-.72.18-.3.24.22 1.12-.78.13-3.1.44.03.4.23.22-.19.32-.75-.27-.17-.33-1.6.57-.12-.4z"/>
    <path region="7" short-name="16" long-name="State Senate District 16" value="1" d="m457.47 585.79 3.72.22 8.83.47 1.63.08.01-.13-3.37-.2v.14l-2-.1.07-1.24-.09-.61.79.05.01-.34-.65-.2-1.58-.08.02-.45.19-.27.05-.45-.51-.38-1.03-.06v-.21l-1.04.02.1-1.96-1.77-.1-.72-.1.07-.37-.05-.64.16-.07-.2-.57.43.03.05-.97-2.43-.16.05-.85-.99-.05-.36.25.12.37-.43.09-2.15-.14.06.39-.14.24h-.3l-.3-.83.16-.59.87.08.04-.97-.56-.03-.04.63-1.12-.07-.74-.59-1.33-.54-.41-.37-.1-.44-.5.48-.42.02-1.29-.3-.48-.34.05-.25h-.48l-.08-.62-.68-.12-.27-.58-.62-.05.11-2.13-1.14-.05-.38-.69-.86-.04-.48-.38.01-.32-1.51-.05-.1-.07-1.14-.01-.5-.06-1.48 1.8-.49-.18-.04-.22-.96-.05-.09 1.12-.16 3.47.03.06-.16 3.57-1.09-.06.22 1.22.1 1.85.12-.04.2 3.75-3.86-.2-2.02-.13.31.36.22.65-.16.57-.78 1.61-.14.52.03.94.26.88.5.84-.77-.08-.05-.42-.5.21h-.6l-.46-.18.36 1.76-1.4-.08.09-1.97-.88-.1.11-2.01-1.91-.07.03-.58-.42-.01-2.42-1.22-1.78-.86-2-.2v-.72l-.32.13-1.3-.07-.1-.52-.4.01-.15-.72-.62.01.08.3.23 1.46 1.02 1.07.82 1.41.06.94-.03 2.68-.04.6.18.42.21 1.12-.5-.06.17.72-1.04.2.09.69.61-.12.04.23-.63.13-.1-.2-.85.18-.07-.29-.34.07.2.89.97-.2.13.57.42-.15.26.46-1.15.65-.6.12-.66.28-1.61-1.95-.1.4-.3.02.25 1.79-1.62-1.04-.42-.19-1.05-.67-.13.14-.74-.31-.13.4-1.26.15-.1-.91-1.1.06v.32l-.6.1-.25.25.6.32.4.45v.75l1.1.06.05.42-.69.08.05.76-.18.25-.47.06.02-.86-1.14-.03-.06 1.27-.66-.02.02-.46-.67-.03.11-2.34.07-.1 1.26-.17-.08-.64-2.73.28.1.71-.5.06.1.94-.6.05-.1-.92-.88.1.1 1.25 1.26-.13.07.6.26-.03.06 1.04-1.45.16.07.58.27 4.01-.65-.05v.72l.7.03.02.54.16 1.6.18 1.12-.05.95-1.41.11v.31h-1.7v-1.49h.28l-.03-1.06-1.74-.06-.28.07-1.57.94.3.8 1.08-.01.03.79h-.79l-1.15-.1-.38-.47-.44.33-1.68-2.56-1.04.66.57.99-1.07.6-.15-.31-.27.14-.2-.52-.83.72-.11-.42-.46.05-.02-.43-.26-.6h-.3l-.34.2-.05-.56.2-.2-.14-.75.02-.34.2-.12-.2-1.27.3-.2.5-.78-.68-.8-.31-.3-.6-1.03-.3-.31-.07-.52-.25-.29-.49-.31-.2-.44.2-.37 1.08-.13.38-.54.13-.37-.2-.68-.1-.83.04-.65.25-.7-.12-.84.12-.08-.24-.86.04-.45-.53-.08-.14-.45.02-.56.36-.86.35-1.1-.47-.55-.15-.72.06-.7.3-.24 2.7.1 3.7.24 1.68-.05.23-2.89.14-2.44.14-1.54.32-4.48.21-3.28.1-.5 1.97.04 5.04.16.05-6.12-.01-3.06 1.65.2 1.63.05.9.1 5.6.4 5.9.24 5.8.27 4.24.18 6.08.26 7.01.38 3.32.2 3.06.13 6.66.37 6.36.4 3.25.2 6.16.35 10.1.53 1.5.12-.22 3.93-.16 3.25-.9 14.65-.3 4.56-.53 8.79-3.58.53.04-.61-1.2-.08.06-.99.97.05.15-2.23.72.1.03.31 1.14.03.06-1.06-1.27.16.09-.83 1.18.06.06-1.09-1.86-.1-.04.44-1.32-.08-.55.2-.02.22 1.82.12-.06 1.17-1.5-.1-.05.85-.34.26-.12 1.96-.5-.02v.21l-1.22-.07-.04-.45-.87-.06.25-.3.54.21.28-.41-.6-.04-.05-.39-.58-.03-3.04.97-.97.42-.84.25h-.41l-.03.37-.42-.2-.87.2-1.52.16-.05-.45.14-1.05-.03-.6-.63-.28-.72.03-.85-.31.02-1.26-.64-.75-.81-.39-.92-.19-2.34-.15-.61-.08-.71-.34-.3-.81.09-1.75-.49-.02.05-1.41-.04-.47.1-1.49-.25-.01.1-1.23.59.03.1-2.1.3.27.8.06.02-.36 1.13.05v-.47l-.46-.39.05-.95z"/>
    <path region="8" short-name="17" long-name="State Senate District 17" value="1" d="m267.83 789.75 6.07.4-.29 5.62 3.3.12 1.55-.22.5-.24.37-1.42.3-.32.23.2.46-.19-.24-.5.12-.13-.1-.76.43-.21.32-.34.58-.44.04-.47.58-1.67.44-.24.1-.33-.09-.34.7-.6-.07-.24.26-.62.14-.96.32-.23 6.45-5.04 4.58-3.52 1.93-1.52 2.95-2.37 1.6-1.23 2.06-1.65.91-.66 5.7-4.44 3.44-2.63 2.98-2.28 3.68-2.75 1.04-.75.47-6.96.67-10.42.82-12.8.14-1.4.73-10.1-1.5-.12-7.82-.68-.12.02-3.36-.23-5.43-.43.15-2.3.17-1.94.08-1.44.12-1.28.2-2.73.4-4.78.14-2 .22-2.78.18-2.92.3-3.2.4-4.9.46-5.86.14-2 .31-3.86h.39l5.13.43 1.87.11 14.19 1.1 12.45 1.06.7-.08 1.4.1 1.28.27 4.27.26 3 .08 3.03.24 6.33.43 1.58.08.28-.03 1.6.1h.81l2.41.13.99.08 8.74.5 7.37.55-.53 8.5-.1 1.1-.26 5.56-.12 1.61-.04 1.12-.12 1.87-.98 15.95-.04 1.14-.6 8.3 3.27.15 10.93.59 8.83.45 4.53.18 2.5.12 7.81.34 3 .12 8.8.4 1.18.06 2.4.06.4.11.76-.18.37-.02.25.15-.15.53.42.52.42.1.02.68.16.58-.25.93-.12.76-.31.12-.82-.37-.58-.05-.66.3-.43.43-.21.95-.39 1.08 3.45.13 7.3.43.8.04 10.16.62 5.6.38 2.56.16 5.5.36 5.5.4 7.3.5.03-.21 1.72.16.08-.06.09-1.22.02-.84.43-4.98.23-2.1-.03-.1.25-3 .67-8.57.1-.81.24-3.68 3.55.3 3.55.24 4.38.22 2.68.12 7.23.4.28-6.48.15-3.61.06-1.15 3.08.15 10.31.6 2.7.18 3.77.28 3.71.24.2-2.44.28-3.92.1-1.15.24-3.42.3-3.9 1.05.07 7.4.62 5.5.43 1.08.07 7.96.54 1.23.06 4.36.35 2.54.22.1-.04 1.1.12.98.03 3.73.26 4.82.38 3.5.26.45-6.73.01-.6.5-6.64.35-5.32.16-1.8.06-1 6.2.45.32.12 1.66-.03 5.65.39 7.49.47 1.6.1 1.14.02 4.51.24 2.02.17 2.14.15 1.38.1 9.49.65-.38 5.54-.38 5.71-.93 13.18-.02.93-.43 5.69-.13 2.2-.33 3.39-.4 7.33-1.53-.15-14.07-.94-1.73-.05-2.56-.24-3.3-.22-.52 7.29-1.08 15.42h-.53l-3.13-.25-.27-.05-2.85-.2-7.9-.59-1.85-.16-5.41-.4-1.03 12.84-.76 9.38-1.07 14.05-.65 8.4 7.42.52-.71 9.94-.9 12.4-3.62-.22-3.78-.2-.48 6.5-.26 4.3-.28 3.78-.22 3.92-.16 1.63-.65 9.03-.09 1.89-.08.52-.92 12.9-.2 3.23v.4h.57l1.5.1.64.01 6.96.54 4.68.16 12.13.74 8.32.5 9.54.55-.22 2.89-.01.52-.47 7.67h.02l-.43.88-.68.92-.43.77-.42.63-.33 1.22-.04.55.08.52-.22-.02-.3 1.47-1.83 2.94-.24.55-.25.35-.35.7-.33.43-.1.62-.27.05-.19.3-.25.07-.6.4-.22.33.04.62-.72.05-.5.7-.27 1.6-.14 1.86.1.48.35.7.3 1.04.27 1.23.14.98-.31 2.85-.32 1.87-.32 1.4-.13.35-.5.72-.1.28-.41.33-1.25 1.58-.5.58-.88.76-1.05.56-1.44.69-1.04.42-.51.04-.94.2-.37.15-.4.34-.84 1.06-1.17.84-1.52 1.23-.6.63-.54.75-.42.96-.4 1.15-.04.43.04 1.4.13 1.22.23.66.6.98.67.38.61.5.55.22.73.57.66.65.44.7.41.94.16.71.04.8.25 1.3.7.94.33 1.07.04 1 .23 1.64-.17-.03-.5-1.07-.35-1.17-.02-.72.05-.72-.27-.08-.15.5.22 1.14.28.97.42.8.47 1.08.2.58.21.36.22.74.19 1.02-.08.83-.42 1.56-.35 1.07-.49 1.22-.15.65-.16 1.39.02.35.62 1.91.37 1.82.04 1.44.99 1.99.33.87.39 1.31.33 1.7.16.68.3.88.14 1.07-.02 1.69-.23 1.04.02.5-.37.84-.04.47-.2.23-.19.6-.76.99-1.08.81-.4.38-.97.47-1.4.26-.8.08-1.84.06-.38-.13-.95.18-.33-.1-.4-.38-1.83-.44-.58-.25-1.19-.3-.29.15-.52-.17.1-.35h-1.73l-1.1.12-.22.3-.41-.07-1.2.47-.7.57-.8.97-.2.4-1.37 1.19-.78.94-.43.9.08.49-.15.17v1.07l.11 2.01-.02.82-.27 2.33-.17 2.26-.41 1.3-.49.96-.5 1.54-.21 1.36.11 3.03.06.27-.11 1.3-.28 1.4-.25.7-.28.54-.55 1.32-.17.81-.06.82-.13.12-.11 1.07-.33 1.63-.36.94-.29.88-.4.84-.55.84-.19.46-.66.69-.57.49-1.3.61-.7.27-.73.09-2.02.35-1.27.17-.66.04-1.4.46-1.9.42-.89-.04-.66.14-.46-.26-2.48-.97-5.12 2.1-1.79.59-1.28.37-2.44.57-.63.22-.95.25-3.7 1.2-2.83 1.23-1.48.48-1.31.49-.3.16-1.93.59-2.02.46-.77.1-1.68.08-.92-.1-1.07-.21-1.16.01-.98-.12-1.22-.53-1.06-.67-.7-.56-.8-.82-.47-.67.06-.68-.14-.39-.35-.54-.26-.66-.57-2-.19-.9-.53-4.2.01-.78-.85-2.1-.54-1.06-.22-.27-1.3-1.03-1.21-.68-2.1-.92-.31-.17-1.56-1.07-1.6-1.28-.84-.94-.51-.74-.2-.17-.52-.83-.78-.92-.13-.23-1.39-1.7-.99-1.76-1.47-3-.35-.53-.65-.6-.28-.42-.57-.55-.61-.4-1.66-.9-.66-.42-.72-.6-.55-.22-.45-.55-.64-.49-.46-.17-1.27-.14-.22.1-1.94-.07-.99-.1-2.98-.21-1.13.12-.52.17-1.1.06-1.54-.14-1.5-.52-1.02-.48-.93-.58-.79-.37-.53-.45-.62-.35 8.1-3.64 4.7-2.1 1.86-.8-1.16-2.6-1.87-4.34-.59-1.52-.65-2.35-.74-1 .45-8.77 2.72.15 4.46.27 3.9.2.1-.07.93-3.26.87-10.7.31-4 6.31.5.02-.53.27-3.09.45-.05.06-1.44.76-7.84.24-3.58.41-5.37.29-3.28-6.96-.54-9.53-.6-.8-.1-1.31-.04-2.88-.17-.25-3.65.25-1.38.43-2.8.02-.54.53-8.06-.03-.22.18-2.36.04-.23.25-3.33-10.64-.69-8.63-.51-11.96-.72-9.77-.5-1.2-.05-.46.36-.32-.4-4.87-.22-7.22-.13-3.59-.07-10.5-.18-2.38-.05-.57.04-5.72-.13-1.5-.12-8.08-.27-1.63-.05-.4-.31-.1-.49.24-.44.55-.72v-.36l-.52-.66-.36.14-.4-.06.13-1.6.16-.74.32-.64.13-.75-.1-.79-.26-.51-1.05-.53-1.14-.36-.15-.63-1.3-.2.34-.65-.38-.61-.78-.51.12-.5-.01-.43-.16-.1-.8.1-.31-.32-.82.21-.74-.32-.63-.39-.33-.51-.32.3-.42-.02-.16-.35-.64.14-.7.05-.53-.47-.7-1-.65-.34-.44-.1-.29-.46-.64-.01-.16-.15-.35-.8v-.51l-.63-.16-.23-.2-.24-.48-.36-.16-.3-.46h-.28l-.27-.28-.27-.04-.32-.53-.65-.41-.33.11-.45-.53-.02-.2.33-.38-.12-.32-.68-.19-.16-.27-.16-1.09-2.2-.16-3.32-.11-1.9-.09-4.29-.22-2.1-.17-10.87 2.1-.33.08-6.1 1.17-4.55.9-2.54.45-.79.22-.8.13-4.38.95-9.75 2.16-3.73.91-2.62-.04-.04-.03-6.53-.21-9-.33-4.11.11-4.55.11-12.99.07-2.84-.03-.9-.05-.78.02-6.22-.22.26-4.35.21-4.2.03-1.03.01-2.9.14-4.53.09-4.17.04-3.08.05-1.77.04-3.06.05-1.19v-2.98l.03-1.52.06-4.7.06-2.88v-1.99l.08-4.05.03-3.12.04-.72-.02-.9z"/>
    <path d="m823.6 124-3.18 1.99-3 .81-1.7.91h-.74l-2.37 1.57-2.07.48-3.85 2.08-1.93.55-1.22.78-1.25.18-1.1.75-2.09.83-.91.8-2.86 1.27-.54.56-5.86 3.58-.6.13-3.05 1.94-.42-.04-4.15 2.9-1.57.23-1.9 1.3-4.18 1.1-4.6-.38-2.92 2.5-4.7 2.43-3.3 2.68-1.35.7-.78.25-.85 1.06-1.46.74-3.43 2.71-1.03.54-7.15 6.35-1.73 1-1.56 1.53-4.84 6.52-4.16 4.33-.06.89.08 3.93.05 1.1-.05.7.1 1.9-.02 1.27.03 1.93-1.43-.03v.72h-1.41l.18.38-.17.52.01 1.59h-1.8l.05.78h-.51v1.3l-.17.47.32.4v.66l-2.33.02-.5-.03.09.86.05 2.7.08.24 3.2.05.63.15-.01 1.74 3.72.05.02 1.86 2.54-.02.05 2.77h.26v2.27h.64l.01 1.35-.13.35-.27.23-.03.68-1.65-.01-.63.87-.43 1.15-.07.57-.04 1.73-.12 1.24-.62 4.1.23.06h3.03v.34h1.38l.03.74h.58v.94l.64.01-.06 4.23-.17.16.16.58-.05 1.5 1.64.1-.06 1.55-3.29.01-3.66.05-.1 3.16v2.58h-1.12l.01 4.45-.01 3.17-2.63-.02v-1.9l-.88-.02-.14 1.9-4.5-.02.02-1.45-.04-1.56-.5-.14-.42-.61h-1.04l-.04.4-.34.32-.15.35-.56-.23-.45.33.32.87-.6.26-.58-.11-.34-.47-.6.34-.36-.04-.2.28-.73-.23.18-1.06.31-.3.43-.08.06-.65h-1.38l-.01.48h-.44v.26l-1.88.01-.65-.83-1.91-1.6-.87-.7-3.04-2.51-.79-.97-.53-1.28-1.59-.02-.37-.4-.61-.21.47-.9-.47-1.07.08-.76.44-1.75-.08-.25.47-.74.02-.72h-.24l-.3.43-.73.02-.02.12-.9.01v-.5l-1.25.03.04-.4-.03-2.2h-.19l-.4-.34v-.22l-.59.01-.01-.68-3.53.16-1.2.02.07 1.04-.03.5-1.25-.64.01 1.35.17.6-.28.36-.18.82h-.26l-.3.33.14.18v.64l.28.04v.6h-.28l-.15.34.18.47-.03.64-1.16-.68v-.57h-.83l-.18.37h-1l-.41 1.34-.09 1.63 4.8-.13.01 1.58.06 2.8.06 3.85.04 4.46v5.02l8.47-.04-.01 1.62.04.9-.04 1.22-.02 6-1.41-.1-4.17-.01-.06 9.46 8.79-.08 3.96.03 2.71-.03 4.02-.08.91.03v-.33l.39.12.14-.47-.38-.4-.08-.59-.38-.04-.26-.43.23-.5.35-.02-.27-.5-.41.01-.45-.22-.04-.25.24-.43-.42-.12.19-.51-.28-.16-.14-.68.07-.42-.42.06-.17-.32.08-.5-.6-.55h-.59l-.52-.3-.22-.49.23-.2.12-.48-.08-.46.08-.62-.44-.44-.34-.62.14-.69-.08-.32-.57-.63-.24-.45.06-.88.16-.12.18-.6.3-.58.03-.52-.06-1.12-.32-.28-.97.05-.25-.36-.16-.59.41-.03.36-.27-.02-.26-.48-.23-.35.25-.16-.48h1.8l7.06.12 5 .05 1.56.09 4.29.05 1.46.05 3.92.04.7.06 4.88.09 2.17.05 5.69.07.38.07h1.15l-.03-8.76-.02-4.04.03-6.85 3.3-.04v-2.06l-.04-3.34-3.21.01.04-3.61.05-2.6v-2.69l.07-9.47v-6.59l-.06-7.3 5.13-.07 3.05-.05h4.07l6.21.05.13-6.78.1-11.63 9.97-.06h5.02l5.15-.06 2.34.02.77-.02 14.27-.03-.1-10.13-.03-1.75-.04-7.05 5.93-.04h6.64l5.14-.06 1.44-.11-.14-2.33-.08-.61.1-.69.08-4.05-.02-.25.19-1.1.12-16.89.01-5.73v-4.1z" region="9" value="1" short-name="18" long-name="State Senate District 18"/>
    <path region="10" short-name="19" long-name="State Senate District 19" value="1" d="m593.63 557.75.14-3.92-.07-.18.33-5.6.22-4.74.21-3.8-4.67-.21-4.06-.07-4.81-.1h-5.5v.23l-3.9-.04-4.85-.08-3.94-.13-4.5-.25-1.05-.02-1.1-.09-3.87-.2-2.24-.13-.97-.1-.42.02-2.2-.1-4.4-.26-4.07-.27-.6-.02.12-3.33v-.42l.1-1.06h-.4l-3.9-.26-.05.01-10.28-.65-5.6-.39h-.7l-1.41-.12-1.72-.08-8.22-.5-6.49-.37-5.62-.29-3.22-.19-5.69-.28-.43 7.32-.1 1.55-.48 8.97-.25 4.44-.24 4.79-.65 11.33-1.5-.1-10.1-.54-6.16-.35-3.25-.2-6.36-.4-6.66-.37-3.07-.13-3.3-.2-7.02-.38-6.09-.26-4.22-.18-5.82-.27-5.9-.25-5.59-.39-.9-.1-1.63-.05-1.65-.2-.02-2.15-.13-6.1-.07-4.47-.06-2.7-.04-2.72-.12-5.55-.02-2.02-3.58-.03-9.73-.03-1.46.01-.05-1.57-.08-5.32-.04-3.99-.02-7.26-.04-7.86.01-.8v-6.19l.02-3.68-.01-3.61.04-1.75.05-3.67.06-2.25.03-2.86 8.07.63 4.56.4 3.57.24 4.6.22 5.39.3 4.18.15 5.76.32h.57l7.51.34-.24 3.8 4.19.3 4.37.27.91.04.03-.17 3.77.23 5.61.32-.71 10.92-.22 3.57 8.58.55 7.08.41 1.68.1 6.05.4 3.18.16 3.51.22 3.53.2 2.33.14 5.24.3 5.38.33.24.04 6 .33 2.14.15.46-7.77.18-2.85.2-3.6.29-4.62.14-4 .13-1.95.2-3.7.06-.78-.03-.9.58-9.34.38-5.88-1.88.24-.05-.6.02-4.65.04-.2v-1.67l3.48.05.25-.02 6.41-.01 5.75-.02 4.1-.04 5.9-.1 3.06-.03 6.16-.01 5.62-.04 4.34-.01h6.93l2.97-.4 6.43-.95 2.62-.36 1.52-.24 11-1.6 5.47-.87.01-2.79-.04-4.04.01-1.08-.03-3.4.01-.76-.03-2.46-.07-6.19-.02-4.63 1.77-.02h5.55l3.7-.04 7.4-.2 3.73.06v.08l6.92-.13 3.5-.02 3.78.03 3.76.08h4.38l2.41.05 6.32.08 2.94.06 3.4.1H650l3.78-.1v-.03l3.23.02 7.43-.17h3.63l3.77.02 3.7-.05v.07h1.9l3.71-.06 2.03-.02 3.97.01 5.28.05 5.66.02-.01 3.75-.03 4.76-3.66.54-.07 1.26 1.08.05-.02.9-.31 8.24h.04l-.12 3.61-.12 4.21h.1l-.02 1.5-.12 4.07-.08 1.85-.23 6.98-.05.94-.04 1.76-.23 7.22-.17 5.53-2.65-.07-2.93-.11-2.05-.06-.08 2.47-.03 1.78-.23 5.98-.05 1.13-.05 2.52-.07 1.53-.05 2.4-.05 1.08 2.35.06 6.64.28 3.45.12 2.92.13 3.32.1-.1 1.34-.23 6.28-.06 1.89.03 1.5-.05 1.34-.07 3.05-.04 1.04-.17 5.89-.14 3.07-.03 1.02-.12 2.58v.71l-.2 5.31-.1 2.34-1.66-.05-7.07-.25-.01 3.67-.1 2.4-.19 3.53-.34 8.57-3.9-.14-1.52-.04-3.39-.13v-.17l-3.8-.07-8.26-.28-3.45-.13-4.02-.18-2.6-.08-4.1-.18-1.26-.01-2.83-.14-4.15-.14-4.39-.13-4.92-.17-4.71-.14-6.65-.23-4.88-.16-4.53-.1-7.44-.1-.23-.1-.9-.13-4.49-.23-4.35-.29-4.3-.26-2.08-.1z"/>
    <path d="m309.78 156.71-3.23.13-1.95.04-1.79.07-4.58.34-7.65.3h-.15l-5.98.25-4.29.14-1.79.08-5.56.17-3.74.14-2.87.14-1.23.1.02 1.24.1 3.8.13 5.6.13 5.56.2 10.44-.98.01V192.65l-.04 7.66v3.66l-.05 11.21.01 7.56-.02 8.25.02.65-.05 5.59-.02.13v4.5l-.07 13.89.05 3.89v.58l.05 5.04.04 2.56.03 3.64.08 5.93.02 3.66v2.57l.06 6.52.15 10.78v.69l2.59-.05 3.18-.04 4.19-.02 12.74-.02 7.25-.05.81.05 6.63.05 9.24.15h1.87l7.5.1h2.25l1.42.02 1.94.09 1.8.04.92.05 9.66.16 2.19-.1 2.76.03 1.35-.1h1.27l7.74-.1.02-3.74.15-15.07.06-3.69.2-8.1.15-7.53.1-3.87.07-4.08.22-13.97.05-3.8.08-4.56.08-10.8.06-6.98 7.3-.09 3.6-.08 3.79-.07.06 3.55.06 4.04.03 3.72 3.75-.05 3.75-.03v.03l3.95-.06 3.75-.01 4.94-.05h2.77l3.7-.05h3.6v.14h5.14l5.88.06 3.77.1 3.84-.01 3.64.02 3.65-.05 2-.04-.05-1.87 2.31-.14.41-.58 3.05-.48 1.21.42.27 1.3 1.64.56.53-1.14 1.69-.77 1.33.18 1.25-2.7-.02-.81 1.76-2.02 4.93.51 1.87-.47 3.58-.18 4.46.09 3.41-1.03 1.1-.55 1.13-1.25 1.88-.62 1.42.54 1.35.97 1.13 1.55.6-.33.42-1.94.76-1 1.72-.95 1.75.44 1.5-.58 1.67.1 1.54.98 1.47.02 2.18-1.96 1.27-.49 1.9.2 2.21-.11 1.32 1.64.04 1.54.91-.41-1.53-4.23 1.63-1.75.35-.91-.39-2.45-1.12-1.27-3.12-.33-2.73-.72-4.54 1.57-2.32-.13-1.7-1.5-2.19-3.53-3.03-2.93-2.46-4.04-2.6.42-1.11.53-1.28 1.8 1.05 1.15-.45 1.06.27.94.99.2-1.13 2.02-.27 2.21-.84.71-.05.96-1.33 1.81-1.68 1.58-2.18 1.51-4.36 1.52-3 .44-1.71-.15-.42-.52-3.82-.9-2.45-.93-2.75-1.62-3.2-2.23-7.42-6.08-1.84-2.55-.98-1.72-1.88-1.97-.12-1.32-2.27-2.4-2.12-1.53-3.38-1.67-4.88-.62-1.33.02-3.39-.91-3.24-1.19h.01-.9l-2.05.05-3.32.03-5.73-.07-2.15.01-3.4.08-1.36.07-6.3.23-3.16.06-2.64.11-3.57.07-2.67.07-1.7.03-.96.08h-.92l-1.87.1-5.11.17h-2.28l-9.59.2-3.35.03-3.54.08-4.52-.02-5.55.08-1.06.14-1.63 1.6-.72 1.54-.48.18-.68.88-.57 1.66-.42.37-.26 1.06-1.22.73-.5.83-.53.6-.46.72-.22 1.22-.62.65-1.16.26-1.34-.08-1.1 1.9-.94.64-1.42-.23-.29.1-.66.5-.72.82-1.51.58-1.13 1.08-1.72.43-1.08.2-.86.65-.06-.3-.81.78-.82.65-.42.2-.32.36-.15-.54.24-.33-.04-.33.75-.78.38-.48 1.06-.57-.08-.34-.48-.04-1.15.92-.98.96v.96l-.92.42-.31.03-.49.43-.66-.01-.9-1.01.01-.9h-.4l.01-1.08 1.66-.78 2.02.07.22-.11v-.76h-.21V201l.84-.07 1.31-.43-.5-1.93h-1.1l.1-.5.04-1.07.98.18v-2.06l-.09-2.12-.95-.13-.67.08-1.14-.14-.25.1-.36-.14-.94.08-2.11-.01h-7.23l.02 1.44-1.53.02-3.35.1v-9.11l4.83-.06-.03-5.51-.06-3.8h.33l-.05-1.43 7.45-.12 3.89-.25 1.59-.15.18-1.95 2.04-.14 3.86-.1-.73-.98-.04-.92 2.48-.08-.02-.47.15-.26.32-.03-.04-1.08-.48.02-.03-.93-1.4.04.21.36-.97.01-.01-.35.24-.05-.03-.9 2.89-.05-.08-1.88.98-.01v-.18l-2.03-.95.06.9h-.64l-.05-1.19-.4-.42 1.82-.02 1.2.02-.03-1-1 .03-.04-1.18h-.38v-.26h.38l-.01-.46h-.37l-.02-.77-.16-.15v-.49l.52-.01.25-.47zm160.91.74-1.02.45-.44 1.23-.92.63-.54 1.16 2.38.89 2.7-.29-.58-1.01.22-1.88-.45-.91zm7.08 7.08-3.22.75.23.39 2.48-.23zm-5.4 1.38-2.64 1.82 1.43.62.48.92.36 2 1.58-.25-.32-1.45.78-.93-.03-2.02zm3.15 6.88-1.87.32-1.36 2.47-1.6.33-1-.2-.2-1.4-1.45.66-1.9 2.77 1.41 1.27-.95 3.25 1.26-.2 1.6-1.17.7-1.3 2-1.64.11-1.74 3.06-1.91zm17.11 11.96-2.06.01-.9.68-.3 2.04-2 1.42v.61l1.86 1.39 1.9.21 2.56.98-.08 1.2.67.35 2.54-.63 1.08-2.03.04-2.64-.28-1.6 1.1-1.87-.76-.07-1.95 2.03-1.4.18-.98-.4zM487.82 215l-1.85 1.6.22 1.88 1.1-.3.77-.85.35-1.59zm8.78 2.97-1.38.9.1 1.04 1.42.73.98.96 1.7 3.84-.26 2.36-1.21.07-2.4-.33-1.35-1.14-.44-1.07-3.2 1.4-2.44 1.96-2.57-.1-2.1 1.66-2.25-.46-3.42-2.3-3.33-2.5-2.07-2.86-.18 1.43-1.66.14-1.02-1.1-.69.17.37 3.7-.87 1.44-1 .82-1.65.33-.37.75-1.38.85-1.59.54-1.86-.11-.27.66-5.14 1.68-.2.32h10.52l.02.04.4 11.3.14 4.7.1 2.4.15 4.69.14 3.94.09 3.16.33 10.32.06 2.5.21 7.52.16 4.6 7.73.27 3.59.11 7.97.15-.13-3.94v-1.01l-.18-4.07.03-.04-.31-9.78 2.15.06 11.2.19 2.4.1 1.17-.03 2.47.06 1.4-.05 1.98.1 1.38-.02 7.45.02.51.02 6.4.14 1.88.02 4.69.12 1.95.03 5.85.16 5.28.13.05 7.3.03 1.92.1 9.14 3-.03 2.9-.01 2.1.02 1.67-.04 1.05.08 2.16.1.76.16 2.11.12 3.91-.02-.14-7.73-.12-3.98-.1-5.13-.01-1.27-.1-3.28-.03-1.84-.19-5.16-.08-3.23-.18-6.13-.15-4.37-.12-4.41-.06-2.95-.09-2.25-.02-1.8-.08-1.7-.03-.87-.56.25-2.45.1-1.76 1.37-3.67 1.43-7.74 5-3.6 1.61-2.08 1.12-4 1.29-3.9-.04-2.12-.4-4.76-2.42-2.25-1.55-.63.35-2.3-1.31-1.43-1.46-2.4-.75-3.45-2.3-.45.6-1.66-1-2.72-.76 1.07-2.32-4.18-3.8-3.14-3.42-4.59-5.95z" region="11" value="1" short-name="2" long-name="State Senate District 2"/>
    <path region="12" short-name="20" long-name="State Senate District 20" value="1" d="m479.97 603.35.53-8.8.3-4.55.9-14.65.16-3.25.22-3.94.65-11.33.24-4.8.25-4.43.47-8.97.1-1.55.44-7.32 5.69.28 3.22.2 5.63.28 6.48.36 8.22.5 1.72.09 1.41.11.7.01 5.6.4 10.28.64h.05l3.9.25h.4l-.1 1.06v.42l-.12 3.33.6.02 4.07.27 4.4.27 2.2.1.42-.03.97.1 2.24.14 3.87.2 1.1.08 1.06.03 4.49.24 3.94.13 4.84.08 3.9.04.02-.24 5.49.01 4.8.1 4.07.07 4.67.22-.2 3.79-.22 4.73-.34 5.6.07.19-.14 3.92-.36 9.03-.28 7.73-.14 3.17-.16 3.22-.01.82-.3 7.16-.08 2.34-.1 1.9-.1 2.68-.07 2.77-.13 1.96-.22 5.7-.28 5.4-.03 1.08-2.57-.14h-.84l-.31-.11-.53.05-2.14-.04v.89l-.4 6.84-.05 1.85 6.22.41 1.46.12 6.22.45-.44 7.8-.22 2.79-.83 11.82 7.29.5 1.7.06 9.86.58-.72 11.44-.26 4.13-.2 2.76-.23 4.04-2.14-.15-2.02-.17-4.51-.24-1.14-.03-1.6-.09-7.49-.47-5.65-.39-1.66.03-.32-.12-6.2-.45-.06 1-.16 1.8-.36 5.32-.49 6.65-.01.59-.45 6.73-3.5-.26-4.82-.38-3.73-.26-.97-.03-1.1-.12-.11.04-2.54-.22-4.36-.35-1.23-.06-7.96-.54-1.07-.07-5.51-.43-7.4-.62-1.04-.07-.31 3.9-.23 3.42-.11 1.15-.28 3.92-.2 2.44-3.7-.24-3.78-.28-2.7-.17-10.3-.6-3.09-.16-.06 1.15-.15 3.61-.28 6.48-7.23-.4-2.68-.12-4.38-.22-3.55-.24-3.55-.3-.24 3.68-6.95-.56-2.17-.18-4.5-.41-3.16-.27-4.85-.35.28-3.69.04-1.43.07-.08.13-1.8.5-6.49.65-8.67-.63-.04.27-4.21.54-7.6.43-5.8.24-3.54.44-6.2.5-6.8.04-.8.67-9.14 1.8.2 1.89.13.06-1.9.17-2.19.06-1.4.25-2.52.29-3.66.12-1.77-.08-.3.1-1.83.3-3.04.09-1.62.21-1.98-3.63-.22.45-7.47 2.4.16 3.09.22.12-1.57.12-2.53.35-5.17 1.1.04z"/>
    <path d="M729.2 181.66h-.01l-1.82 1.48-3.37 2.08-1.73.4-1.05.58-2.43 2.1-4.18 4.91-.47.18-1.72 1.96.02.06.24.18.34-.24v.59l.7-.01v.18l.81-.01v-.33h.43l-.01-.96h.25l.7-.7-.03-.63.16-.33 1.07.35h.22v.52l1.88-.03v.39l.23.28.08.4-.53.43-.05.5.54.14.27.2.26.52-4.03 3.43-.89 1.18-.23-.26-.82.6-.88.91.6.58-.56.77-.82-.04-1.37.02-1.76.09v3.72l-1.31-.05.03 2.68-.1.62.1.47.62-.03.16.13.55-.1-.01 1.92h-.77l-.02.18-.53.79.03.98-1.02.03v.38l-.87-.06-.5.2.34.38-.34.24-.22.77-.48.9-.78 1.92.84-.2v.38l.73.1v1.2l-1.5.01v.24h-.75l-.03 1.08.89.25.08.39.35.3v.45l.6-.05v2.46l-1.34.01v.36h-.56l-.4.23v.76l-.86.13.13.7.2.35-1.62 1.57h.24l-.02.72-.47.74.08.25-.44 1.75-.08.76.47 1.06-.48.9.62.23.37.39 1.59.02.53 1.28.8.97 3.03 2.5.87.7 1.9 1.61.66.83 1.88-.01v-.26h.44l.01-.48h1.38l-.06.65-.43.08-.3.3-.19 1.06.74.23.19-.28.37.05.6-.35.33.47.57.11.6-.26-.31-.87.45-.33.56.23.15-.35.34-.32.03-.4h1.05l.42.61.5.14.04 1.56-.02 1.45 4.5.03.14-1.91.88.01v1.9l2.63.03.01-3.17v-4.46l1.11.01v-2.58l.1-3.16 3.66-.05 3.29-.01.06-1.55-1.64-.1.05-1.5-.16-.58.17-.16.06-4.23-.64-.01v-.94h-.58l-.03-.73h-1.37v-.35h-3.04l-.23-.06.62-4.1.12-1.24.04-1.73.07-.57.43-1.15.63-.87 1.65.01.03-.68.27-.23.13-.35-.01-1.35h-.63l-.01-2.28h-.26l-.05-2.76-2.54.02-.02-1.86-3.73-.05.02-1.74-.62-.15-3.22-.05-.07-.25-.05-2.7-.09-.85.5.03 2.33-.02v-.65l-.32-.41.17-.46v-1.31h.5l-.04-.78h1.8v-1.59l.16-.52-.18-.39h1.41v-.71l1.43.03-.04-1.93.02-1.27-.1-1.9.06-.7-.05-1.1-.08-3.93.06-.88zm-16.75 13.75.12.27.1-.08z" region="13" value="1" short-name="21" long-name="State Senate District 21"/>
    <path region="14" short-name="22" long-name="State Senate District 22" value="1" d="m605.45 429.9-7.4.2-3.7.04h-5.55l-1.77.02.02 4.63.07 6.19.04 2.46-.02.77.03 3.39v1.08l.03 4.04v2.8l-5.48.85-11 1.61-1.52.24-2.62.37-6.43.94-2.97.4h-11.27l-5.62.05h-6.16l-3.06.04-5.9.1-4.1.04-5.75.02-6.41.01-.02-.71v-4.07l-.05-4.57-.08-3.9-.13-3.3-.05-1.8.01-1.26.1-2.73-3.76.01-.16-5.72-.01-1.74 1.59.05 2.06.02-.06-3.74-.13-4.08-.01-3-.11-.24-7.67-.22-4.24-.1v-.11l-4.96-.01-2.42-.04.02-5.6.08-5.1.04-5.44.06-5.58.05-3.59.12-3.96.04-2.8.06-8.82v-5.85l.08-3.82.03-5.67-.03-8.1-.02-3.28-.05-1.78-.02-3.6 4.93.06h1.73l4.57.05 2.02.06 2.99.06 4.11.06 3.07.02 6.33.1 3.94.1 5.38.09 5.14.07 3.36.04 9.1-.01-.18-4.17-.5-11.6-.12-2.87 9.99-.08h1.66l9.72-.02v-.06l4.4.1 2.45.02 3 .06 4.1.18h.99l13.28.23 1.93.05.17-10.32.14-8.63 3.58.04 10.08.1 4.9.02.1-3.76.02-2.11.05-1.16.04-3.56.06-2.04.04-2.58.04-1.13 1.8-.01 11.73.02.56-.02 5.04.01.02-1.9-.08-.44.04-3.37.14-4.07.08-5.8.03-.3.05-3.48h8.82l.91-.04.35-.1 1.17-.02 1.6.02 1.63.12 3.85-.03 9.03-.16 8.86-.2 7.96-.1h3.32l1.96-.03 2.43-.08.59.04 3.33-.01-.05 4.16-.05 9.46-.04 3.71.02.37-.08 5.2-.03 1-.07 5.62-.03 2.68-.07 4.22-.02 3.17-.05 4.43-.05 10.76-.04 10.04-.03 2.9-.1 6.64h-4.52l-7.1.08-7.07.02-5.24-.01-2.05-.03-1.27.02-5.87-.13-2-.01-3.06-.08-2.26-.02-4.31-.07-4.06-.04h-1.67l-1.72-.05-7-.06-7.1-.09-15-.3-4.27-.06.02 2.46.1 6.04.16 5.5-.12 1.9.1 4.17.02 3.29h.1l.3 1.96.16 1.8v1.58l-.08 4.54-.01 3.1-.14 5.45-.22 6.37.08 5.06.04 3.6.02 5.23.02.34.02 5.69z"/>
    <path d="m716.03 193.15-.16.33.03.63-.7.7h-.25l.01.96h-.43v.33l-.8.01v-.18h-.71v-.58l-.34.24.33.26-.33-.25-.11.08-.12-.27-.03-.06-.02.03-1.25 1.23-1.43.82-.56 1.14-1.53 1.45-5.35 4.3-.81-1.04-.65.23-.64 1.72-1.59 1.46-1.75 1.07-.04.51-2.33 1.59-.12-.7 1.12-.9-.53-.71-4.62 3.48-.84.98-.42 1.17-2.68 2.26-2.22.84-1.24.93-.04.31-1.04.5-.18-.33-1.18.34-1 1.04-4.38-1.02-1.98-.6-.86-.6-1.64.14-1.5-.55-.42.42-2.32.1-4.78 1.4-5.2 1.86-1.92-.09-.67-.03-7.81-1.6-1.98-.12-3.3-.66-1.52-.76-3.11-2.5-.02.2-.14 2.8-.06 3.95v2.4l-.04 2.26-.03 7.53-.04 1.43.02 2.27-.06 1.48h2l.07-.78 2.59.02.1-1.18.6-.03-.03-2.1.37.07.38-.1.55-.55.61-.05.07-1.18 5.7.08.06-1.92 1.85.04.06-1.88 1.86.04v-.11l1.71.04.04.47-.13 2.38-.04 5.03.2-.2 1.1-.03 2.42-.14.77.1-.18-.35h-.27l.17-.8-.27-.27.25-.23.06-1.4.55.09.43-.55.63.44.29-.46.04-.54-.36-.85.48-.07.2.43.62.53 3.12.06.37-.8.18-.82 1.94.04.16-.27h.64l-.12.62.74-.05 1.64.08-.02 1.31.97.03.3-.14.47-.5.6-.36.4-.03v.99l.73-.65 1.36-1.31.02-1.02 1.03-.95.12.37-.24.27.08.36.88-.9 1.15-.95 2.9-2.7.07.94 1.96.8.14-.4-.53-.37.38-.92h.43v-.46h.26v-.89h.9l-.02 1.33h.12l.02 1.39.21-.28h.36l.55.24.56-1.17 1.97-.02.07-.97h.4l.12-.56.9-.01-.28 1.48.06.48.6.73.56.35.13.48-.07.66 1.25.65.03-.5-.07-1.05 1.2-.02 3.53-.16.01.68h.6l-.02.2.41.35h.2l.02 2.2-.04.4 1.26-.04v.51l.89-.01.02-.12.72-.02.31-.43 1.62-1.58-.2-.34-.13-.7.87-.13v-.76l.4-.22.54-.01v-.36h1.35v-2.47l-.6.05v-.44l-.36-.31-.08-.4-.88-.24.03-1.07h.76v-.25h1.49v-1.22l-.73-.1V220l-.84.2.77-1.93.49-.9.22-.76.34-.24-.34-.38.5-.2.87.06v-.38l1.02-.03-.03-.99.53-.78.02-.18h.77v-1.93l-.54.1-.16-.12-.63.03-.1-.47.11-.62-.04-2.68 1.33.05-.01-3.73 1.76-.08 1.37-.02.82.04.56-.78-.6-.57.88-.92.82-.6.23.27.9-1.18 4.02-3.43-.26-.53-.27-.19-.54-.14.05-.5.53-.43-.08-.4-.22-.28v-.39l-1.9.03v-.52h-.2zm-33.75 24.92-.37.33z" region="15" value="1" short-name="23" long-name="State Senate District 23"/>
    <path region="16" short-name="24" long-name="State Senate District 24" value="1" d="M653.62 273.94v-1.65l.05-6.05.16-11.85-9.09-.05-6.34-.07-2.88-.03.02-.46.04-5.04.1-3.16v-3.28l.06-2.15-.02-1.37h2l.07-.78 2.6.02.08-1.18.6-.03-.02-2.1.37.07.38-.1.55-.55.62-.05.06-1.18 5.7.07.06-1.9 1.85.03.06-1.88 1.86.04v-.11l1.71.03.04.48-.12 2.38-.05 5.03.2-.2 1.1-.03 2.42-.14.77.1-.18-.35h-.27l.17-.8-.27-.27.25-.23.06-1.4.55.09.43-.55.63.44.29-.46.04-.54-.35-.85.47-.07.2.43.62.53 3.12.06.37-.8.18-.82 1.94.04.16-.27h.64l-.11.62.73-.05 1.64.08-.02 1.32.97.02.3-.13.47-.5.6-.37.4-.03v.99l.73-.65 1.36-1.31.02-1.02 1.03-.95.12.37-.24.27.08.36.88-.9 1.15-.95 2.9-2.7.07.94 1.96.8.14-.4-.53-.37.38-.92h.43v-.46h.26v-.89h.9l-.02 1.33h.12l.02 1.39.21-.28h.36l.55.24.56-1.16 1.97-.03.07-.97h.4l.12-.56.9-.01-.28 1.48.06.48.6.73.56.35.13.48-.07.66.01 1.35.17.6-.28.36-.18.82h-.26l-.3.34.14.17v.64l.28.04v.6h-.28l-.15.34.18.47-.03.64-1.16-.68v-.57h-.83l-.18.37h-1l-.41 1.34-.09 1.64 4.8-.14.01 1.58.06 2.8.06 3.85.04 4.47v5.01l8.46-.04v1.62l.04.9-.04 1.22-.02 6-1.41-.1-4.17-.01-.06 9.46-2.86.03-3.33.01-.6-.04-2.42.08-1.96.03h-3.32l-7.96.1-8.86.2z"/>
    <path region="17" short-name="25" long-name="State Senate District 25" value="1" d="m400.95 605.24-.02-.54-.7-.03v-.72l.65.05-.27-4.01-.07-.58 1.45-.16-.06-1.04-.26.03-.07-.6-1.27.13-.09-1.25.87-.1.12.92.6-.05-.1-.94.48-.06-.09-.71 2.73-.28.08.64-1.26.17-.07.1-.1 2.34.66.03-.02.46.66.02.06-1.27 1.14.03-.02.86.47-.06.18-.25-.05-.76.7-.08-.06-.42-1.1-.06v-.75l-.4-.45-.6-.32.24-.25.62-.1-.02-.32 1.11-.06.1.9 1.25-.14.14-.4.74.31.13-.14 1.05.67.42.2 1.62 1.03-.25-1.8.3-.02.1-.4 1.6 1.96.68-.28.59-.12 1.15-.65-.26-.46-.42.15-.13-.56-.98.19-.19-.9.34-.06.07.29.86-.17.1.2.62-.14-.04-.23-.61.12-.1-.7 1.05-.2-.17-.71.5.06-.21-1.12-.18-.43.04-.59.03-2.68-.06-.94-.82-1.41-1.02-1.07-.23-1.46-.08-.3.62-.01.15.72.4-.01.1.52 1.3.07.32-.13v.72l2 .2 1.78.86 2.42 1.22.42.01-.03.58 1.91.07-.1 2.02.87.1-.09 1.96 1.4.08-.36-1.76.45.17.62.01.49-.2.05.41.78.08-.5-.84-.27-.88-.03-.94.14-.52.78-1.6.16-.58-.22-.65-.31-.36 2.02.13 3.87.2-.2-3.75-.12.03-.1-1.84-.23-1.22 1.09.06.16-3.57-.03-.06.16-3.47.1-1.12.95.05.04.22.48.19 1.5-1.81.48.06 1.15.01.1.06 1.51.06-.01.32.48.38.86.04.38.7 1.14.04-.1 2.13.61.05.27.58.68.12.08.61.48.01-.05.25.48.33 1.3.3.42-.02.48-.47.1.44.42.37 1.33.54.74.59 1.12.07.04-.63.56.03-.04.97-.87-.08-.16.58.3.83h.3l.14-.23-.06-.4 2.15.15.43-.09-.12-.37.36-.25.98.05-.04.85 2.43.16-.06.97-.41-.03.19.57-.16.07.05.64-.07.36.71.12 1.79.1-.1 1.95 1.04-.02-.01.2 1.03.07.51.38-.05.45-.19.27-.02.45 1.58.09.65.2-.01.33-.79-.05.1.6-.09 1.25 2 .1v-.14l3.38.2-.01.13-1.63-.08-8.83-.47-3.72-.22-.84-.08-3.18-.21-2.38-.13-4.65-.28-3.66-.25-2.52-.11.02.38.2.57-.1 1.86-.73.06-.86-.05-.03.46-1.18-.08.02-.37-.83-.05-.27.35-.6-.1-3.96-.25v.45l.54 2.6 1.54 7.58.47 3.14-.94-.05-.1 1.29-.23-.01.31 2.11.65.04-.02.42.9.05-.02-.2 2.03.1.14.43-.2.77-.78.86-.79.53.2 1.34-1.38.2-.22-.08-1.1.07-.43-.15-.42.4-.4-.02-.7-.88-.32.04-.36.4-.73.02-.03.41-1.32-.09.06.38-2.11-.08-1.13-.24-.8-.3-.72.16.34 2.15.52-.03.14 2.35-.55.14.39 1.61-.66.26-.77-.18.07-.3-.68-.3-.49-.06.07-.53-4.96.34-.01.28.21.54-.78-.03-.03.75.1.18.43.11-.08.6.34.12-.22.9-.48-.22-1.08-.28.09-.67-.9-.17-.2-.21-.63-.13.31-.74-1-.22-1.13.81-.13.86.04.62.3.97.47.74-.57.5-.92.33-1 .26-.69.24-.4.25-1.06.42-.01-.88-.54.1-.32.4-.81-.02-.08-1.76-.63-.01-.02.29-1.24-.04-.03.96-1.1-.07-.29-.33-.76-.02-.01-.22-.77-.02-.07-.9.77.02.05.69.76-.03-.04-.8 1.55.13.02-.43-1.14-.06.02-.4-.37-.04.04-.74 1.3.01.19.08.6-.04.15-.79h-.57l-1.35-1.65.04-.84-.97.06.06-.65.14-.64.24-.16 1.55-.08.03-.53-.62.04-.33-.1.05-.81-.9-.05.06-1.19.07-.17-.22-.66-.24-.23.04-.4.4.02.02-.51.91.07.04-.55-.64-.08-.33.06-.14-.44 1-.07.03-.7-.47-.13-.37.2-.5-.2.49-.42 1.93.11-.1-.28-2.07-.05-1.17-.18z"/>
    <path d="m370.06 215.43-3.79.08-3.6.08-7.3.1-.06 6.98-.08 10.79-.08 4.57-.05 3.8-.22 13.96-.08 4.08-.1 3.87-.14 7.53-.2 8.1-.06 3.7-.15 15.06-.02 3.75-.05 5.9.04 4.85-.03.57.05 7.45.02 1.53v5.99l.08 11.4-.03 1.73.06 5.6-4.25.06H347l.03 11.1-3.71.03.03 3.74-.02 7.42h-5.15l-2.22-.04-.09 7.7-.14 14.62 3.8.05-.04 1.81-.05 4.31v1.53l.05 7.34-.06 7.43h.22l-.03 5.53.01 1.88 3.43.02 3.48-.18 3.89-.01-.02 3.73 3.96.2.04 6.7v2.23l-.12 7.6.01 4.87.07 2.43v1.87l.25 4.38.1 2.75.16 3.73.14 3.67.17 3.6-.59 2.6-12.65.22-7.06.07-.33 2.93-.2 2.38-.33 3.8-.27 3.25-1.14 13.17-.18 1.83-.41 4.76-.25 3.14-.52 6.07-.08 1.1-.36 4-.51 6.42-.34 4.13-.38 4.3-.23 2.85-.37 4.1-.14 1.75 2.5.22 3.26.33 3.17.3 2.1.14-.16 2.26-.33 5.37-.17 3.08-.45 6.38-.22 4.06-.23 3.54-.23 4.27 2.26.02 2.96.05 7.04.1h2.15l4.75.07 6.5.08 1.27.03 4.68.03 11.86.18 1.3.06 4.67.14 8.3.18 1.96.05 2.06.07 2.95.06.07-8.58v-.57l-.02-2.15-.13-6.1-.07-4.47-.06-2.7-.04-2.72-.12-5.55-.02-2.02-3.58-.03-9.73-.03-1.46.01-.05-1.56-.08-5.33-.04-3.98-.02-7.27-.04-7.86.01-.8v-6.19l.02-3.68-.01-3.61.04-1.75.05-3.67.06-2.25.03-2.86 8.07.63 4.56.4 3.57.24 4.6.22 5.39.3 4.18.15 5.76.32h.57l7.52.34-.26 3.8 4.2.3 4.37.28.91.03.03-.17 3.77.23 5.61.32-.71 10.92-.22 3.58 8.58.54 7.08.41 1.68.1 6.05.4 3.18.16 3.51.23 3.53.19 2.33.14 5.24.3 5.38.33.24.04 6 .33 2.14.15.46-7.77.18-2.85.2-3.6.29-4.62.14-4 .13-1.95.2-3.7.06-.78-.03-.9.58-9.34.38-5.88-1.87.24-.06-.6.02-4.65.04-.2v-1.67l3.48.05.25-.02-.02-.71-.01-4.07-.04-4.57-.08-3.9-.13-3.3-.05-1.8.01-1.26.1-2.73-3.76.01-.16-5.72-.01-1.74 1.59.05 2.06.02-.06-3.74-.13-4.08-.02-3-.1-.24-7.67-.22-4.24-.1v-.11l-4.96-.01-2.42-.04.02-5.6.08-5.1.04-5.44.06-5.58.05-3.59.12-3.96.04-2.8.06-8.83v-5.84l.08-3.82.03-5.67-.03-8.1-.02-3.28-.05-1.78-.02-3.6-11.11-.07-6.04-.1-3.18-.08-.33-12.53-.11-3.1-.13-4.9-.18-4.79-.1-3.63-.15-4.1-.16-5.26-.09-2.13-.13-4.36-.02-1.19-.2-6.58-.15-4.2-.16-4.6-.21-7.53-.06-2.5-.33-10.3-.09-3.17-.14-3.94-.15-4.68-.1-2.41-.14-4.7-.4-11.3-.02-.05-1.95.02h-8.58l-1.57 1.43-1.97.9-.98.78-.95-.41-1.66-.1-.63.34-2.93-1.66-.68-2.2-1.39-1.8-.7-2.12-1.03-1.16-1.91.6.03 1.18-1.36.43-.52.89-1.4 1.13.73 1.3-.41 1.06-1.76-.28-.1-3.1-.62-.95-1.9-.65-.3-1.52-1.07-.25-1.62.92.18-1.77-2 .04-3.65.05-3.64-.02-3.84.01-3.77-.1-5.88-.07h-5.14v-.14l-3.6.01-3.7.05h-2.77l-4.94.05h-3.75l-3.95.07v-.03l-3.74.03-3.76.05-.03-3.72-.06-4.04z" region="18" value="1" short-name="State Senate District 26" long-name="State Senate District 26"/>
    <path region="19" short-name="27" long-name="State Senate District 27" value="1" d="m693.96 273.37 8.79-.08 3.96.03 2.71-.03 4.01-.08.92.03-.01-.33.4.12.14-.47-.38-.4-.08-.59-.38-.04-.26-.43.23-.5.35-.02-.27-.5-.41.02-.45-.23-.04-.25.24-.43-.42-.12.19-.5-.28-.17-.14-.67.07-.43-.42.06-.17-.32.08-.5-.6-.55h-.59l-.52-.3-.22-.49.23-.2.12-.48-.08-.46.08-.62-.44-.44-.34-.62.13-.68-.07-.33-.58-.63-.23-.45.05-.88.17-.12.18-.6.3-.58.03-.52-.07-1.12-.32-.28-.96.05-.26-.36-.15-.59.4-.03.37-.27-.02-.26-.49-.23-.34.25-.16-.48h1.8l7.06.12 5 .06 1.56.08 4.28.05 1.47.06 3.92.03.7.06 4.88.09 2.17.05 5.68.07.38.07h1.15l-.02-8.75-.02-4.05.03-6.85 3.3-.04-.01-2.06.08-.34.37-.32 1.9-.01.21-.36v-.5l1.23-.03.43-.11v-.52l3.38-.04-.03.6 3.22-.04 2.99-.09 1.16-.13.04 1.84-.02 1.93 1.4-.01 1.27.03.9-.05 3.1-.04 10.36-.02.35.02 3.42-.07.02 4.5-.08.19v6.1l-.05 4.5v4.07l-.05.84 5.76.03 2.48-.01 6.81.02 5.38-.03 1.36.02.99-.05 2.8-.03h3.86l7.1-.03v2.15l-.02.4-.02 4.79v2.47l.07 4.12.02 4.83.02 7.07-.02.86.02 3.84.04 9.64v9.99l.05 2.1v2.9l-.02 4.83.02 13.38-.05 2.49.03 3.03.11 1.97-.01 3.26.04 5.65v3.08l-2.27-.03h-2.72l-2.69-.02-1.77.05-2-.04-4.97-.03h-2.75l-7.78-.05h-5.98l-5.99.01-.18.05-5.98-.07-7.49-.05h-1.66l-10.07-.05h-4.88l-6.82.03-.02-2.9.02-1.99v-4.19l.01-5.22.03-4.14.05-.9-.03-.68.02-4.34.04-2.73.06-6.2-.04-.8.06-3.63-.04-1.25.01-6.54.05-6.17-.02-2.4.04-1.29-.02-3.02v-6.33l.03-1.34v-6.21l.03-1.93-1.76-.02-4.97-.02-2.74-.06-6.13-.03-3.35-.05v6.3l-.02 5.4.03 2.82-.05 1.83.04 2.78v4.13l-.02.33v6.52l.91-.67 1.3-.15.96.22.35-.03.42-.27.17 1-.07.8-.33 1.25.28-.03v.98l.5-.05.32.16.68.74.44.15.05-.5.3.23.17-.33.03-.56.29-.14.26.2.66.2-.02 1.42.02 1.73h-.52l-.1 4.42-2.45-.05-.03.48-1.68-.03-2.95-.09-.24-.3-.47.06-.38-.12-.08-.75-.46-.47-.39-.05-.4.2h-.93v-.36h-2.44l-.03-2.97h-.25l-.08-.65-.35-.2-.01.73-.83.12v-.78h-.18l-.03-1.05h-.66v.96l-.16.02v.7h-.92l.06-.83.23.03.02-1.23.86-.01.01-.87-.09-.9.34-.04.34-.26 1.12.17v.61h-.3v1.3l.27-.17.01-.46.92.02-.01.63.44-.02-.13-.55h.35v-1.19h-.62l.06-1.9h.9l-.01-.63.76.02.1-.91-.51-.01v-.5l-1.53-.03-.65.69-.05 1.29-1.41-.05-.17.1v.5l.4.25v.64h-.7l-.38.52-.02 1.38h-.24l.02-1.4-.34.03-.02.87-.93-.03-.01 1 .19-.02-.02.6-.22.32-.49.27.02.26-.35.34-.44-.1.13.4h-.43l-.18-.71.35-.34-.28-.28-.8.06.16-.23-.7-.47v-.39l-.31-.13.13-.5h-.39l-.1-.26-.92.2.11-.52-.1-.35 1.8-.01.01 1.29.54.18-.02.24.42.2.08-.5-.21-.47h.37l.46-.94 1.48-.02.01-1.52-.45.45-.37.2-.04-.5.44.17.03-.7.3-.18h.47l-.02-.56-1.6-.01v.74l-.77-.01.02-1.1-1.13-.03.01-1.9h-1.02l-.37.24-1.33.15-.43.37-.08.4h-.58l.03.62.41.69.13.43.02.88.14.33.47.6.47.85h-.3v1.2l-2.57-.02.02-.25h-.49l.01-.95-.46-.1h-1.21l.01 1.28h-.72v-.48l-.66-.01v-.29h-.64v.85h-.8v-.26h-.39v.26l-1 .01-.46.08-.1-.25-.6.03-.23-.18-.52-.01-.55-.47.1-.31-.44-.31-.47.25v.26l-.99-.01.01-.58-1.05.02v.98l-.99.46-.33.3.17.43-.47.48-.52-.03-.17.3h-.3l-.15.63.42-.09v-.3l.22-.5.5.05.76-.68 1.32-.94h.57v.25h1.12v.37h.4l-.05 1.93-.27-.33-.9-.02v.35h-.32l-.08.56-.31.02v.43l.33.23h.32l.37.63h-2.79v.76l.45.06-.16.29h-.3v.99l.46.17.97-.01.12-.36h.48l-.8 1.75-.46 1.08h4.83l.74-.35.17.39.33-.16-.28-.42.3-.42h.65l.24.6.72.56-.03 1.7.51-.1.6-.28v.39h.75l.2.2v1.56h1.2v1.3l-.13 8.04-.07 4.73 1.36.02.01.4.91.02-.18.83h.36l-.04 2.15-.42.09.13 1.3.28.52h.65l.04.3 1.13.01v.3l.31.02.4.2-.02 1.78h-1.13l-.71.12-.04 1.77h.2v.9l-2.61.02.6.99h-.48v.59h.83l.11.19-.33.25-.4-.12h-.91l-.01.9h-2.28l.1.81.93 1.15.42.3-1.39-.04-.03 1.06-.44-.54-.42-.3-.4-.11-.66.04.01-.3-1.15-.04-.01.4-.36-.01.01-.4-.56-.02-.06-.99-.63-.02v.44l-1.47-.06-.25-.82.38.02-.27-.56-.15.41-.86.11.1.45-.49-.03-.12-.56-1.33-.04v-.34h-7.92l.1-6.65.03-2.89.04-10.04.05-10.76.05-4.43.02-3.17.07-4.22.03-2.68.07-5.61.03-1 .08-5.2-.02-.38.04-3.71.05-9.46.05-4.16z"/>
    <path region="20" short-name="28" long-name="State Senate District 28" value="1" d="m747.71 347.77-4.48.02v.8l-.3 8.64.01.33-.1 2.47-.17 3.17-.22 5.65-5.32-.21-2.15-.11-1 .03-.61-.08-3.22-.13-6.77-.3-4.09-.2-3.73-.22-1.9-.08-4-.2-.95-.02-3.85-.19-3.1-.13-3.44-.09-.04-2.27.05-2.2-.01-2.87.02-5.43v-6.05l1.32.04.12.56.48.03-.1-.45.87-.1.15-.42.27.56-.38-.02.25.82 1.47.06v-.44l.63.02.06 1h.56v.4l.35.02.01-.4 1.15.03v.3l.66-.03.4.1.4.3.45.55.03-1.06 1.39.04-.42-.3-.93-1.15-.1-.8 2.28-.01v-.9h.91l.4.12.34-.25-.11-.2h-.83v-.58h.47l-.6-.99 2.62-.03v-.9l-.2.01.04-1.77.71-.12h1.13l.02-1.77-.4-.21-.31-.01v-.3l-1.13-.02-.04-.3h-.65l-.28-.52-.13-1.3.42-.09.04-2.14h-.36l.18-.84-.91-.01v-.41l-1.37-.02.07-4.73.13-8.04v-1.3h-1.2v-1.55l-.2-.21h-.75v-.4l-.6.29-.5.1.02-1.7-.72-.56-.24-.6h-.65l-.3.42.28.42-.33.16-.17-.39-.74.35h-4.83l.46-1.08.8-1.75h-.48l-.12.36-.97.01-.46-.17v-1h.3l.16-.28-.45-.06v-.75l2.79-.01-.37-.63h-.32l-.34-.23v-.43l.32-.02.08-.57h.31l.01-.34.9.02.27.33.05-1.93h-.4v-.36h-1.12v-.26h-.57l-1.32.94-.75.68-.51-.04-.22.48v.31l-.42.09.14-.63h.3l.18-.3.52.03.47-.48-.17-.44.33-.3 1-.45-.01-.98 1.05-.02v.58l.98.01v-.26l.47-.25.45.3-.1.32.54.47h.52l.22.19.6-.03.11.25.46-.08h1v-.27h.38v.26h.82l-.01-.84h.63l.01.28.66.01v.49l.72-.01-.01-1.27 1.21-.01.46.1v.94h.48l-.02.26 2.58.01v-1.2h.29l-.47-.84-.47-.6-.14-.33-.02-.88-.13-.43-.41-.7-.03-.6h.58l.08-.41.43-.37 1.33-.15.37-.23h1.02l-.01 1.89 1.13.03-.02 1.1.76.01v-.74h1.61l.02.56h-.48l-.3.19-.02.7-.44-.16.04.5.37-.21.45-.45-.01 1.52-1.48.02-.46.94h-.37l.2.47-.07.5-.42-.2.02-.24-.54-.18v-1.3l-1.8.02.09.35-.1.52.92-.2.1.27h.38l-.13.5.3.12.02.39.69.47-.16.23.8-.06.28.28-.35.34.18.71h.43l-.13-.4.44.1.35-.34-.02-.26.5-.27.2-.32.03-.6-.2.02.02-1 .93.03.02-.87.34-.03-.02 1.4h.24l.02-1.38.38-.52h.7v-.64l-.4-.25v-.5l.17-.1 1.41.05.05-1.3.65-.68 1.52.03v.5h.53l-.1.92-.77-.02v.63h-.89l-.06 1.9h.62v1.2h-.35l.13.54-.44.02.01-.63-.92-.02-.01.46-.27.17v-1.3h.3v-.6l-1.12-.18-.34.26-.34.04.1.9-.02.87H720l-.02 1.24-.23-.03-.06.83h.93v-.7l.16-.02-.01-.96h.66l.03 1.05h.18v.78l.83-.12v-.72l.36.2.08.64h.25l.03 2.97h2.43l.01.36h.92l.41-.2.4.05.45.47.08.75.38.12.47-.05.24.3 2.95.08 1.68.03.03-.48 2.45.05.1-4.42h.52l-.02-1.73.02-1.42-.66-.2-.26-.2-.29.14-.03.56-.17.33-.3-.24-.05.5-.44-.14-.68-.74-.32-.16-.5.05v-.98l-.28.03.33-1.25.07-.8-.17-1-.42.27-.35.03-.96-.22-1.3.15-.91.67v-6.52l.02-.33v-4.13l-.04-2.78.05-1.83-.03-2.82.02-5.4v-6.3l3.35.05 6.13.03 2.74.06 4.97.02 1.76.02-.04 1.93.02.97-.01 5.24-.03 1.34v6.33l.02 3.02-.04 1.29.02 2.4-.05 6.17-.01 6.54.04 1.25-.06 3.64.04.78-.06 6.2-.04 2.74-.02 4.34.03.68-.05.9-.03 4.14-.02 5.22v6.19z"/>
    <path region="21" short-name="29" long-name="State Senate District 29" value="1" d="m762.37 434.2.03-1.84.08-2.22.26-5.58.25-5.98.12-3.45-9.96-.4-.2-.03-3.27-.14-3.23-.1-5.85-.23-6.35-.28-5.98-.26h-.63l.03-.98-.39-.01.02-.43-1.37-.58-.61-.03-.03.57-1.7-.01-.49 1.24-1.55-.07-.13.58-.33.78-.07.39-.42.04-.02.27-.5-.03-.5-.8-.2-.07.08-1.23.21-.01.1-1.43-.89-.04 1.16-.92.49-.62.13-.8.05-1.48-.08-.48-.33-.49-.7.4-.81.07-.43-.1-1.27-.56.01-.26.9.03.12-2.56.68.03.02-.63-.83-.02.05-1.53-2.08-.09-.02.5-.57.2.03-.72h.18l.07-1.64.44-.22-1.56-.05v.38h-.42l-.07.42-1.12.23.02-.63-.3.06-.05 1.05-1.2-.05.07-1.57 1.2.05-.03.49.31-.06.02-.57.2-.42.7.03.04-1.08-.71-.02-1.64.15.26-.43.91.03.07-1.3h-.23l-.08.53-.28-.02.04-.67-.62-.19-.25-.26.03-.56-.4-.5-.74.07.15.56.32.02-.08.71-.74.07v.23l-.46-.02.06.44.66.05-.04.74-1.18-.06.03-.64.17-.29-.2-.23-.53.12-.42-.25.08-1.72-.32-.01.02-.38-.56-.03.05-.98 1.35.04.01-.48h.57v-.64l-2.46-.14-1.93-.14-2.62-.1-.42.15-1.07.56-.5.52-.95 1.19-.54.44-.47.2.03-4.11v-4.98l.03-5.1v-8.99l.04-2.6-.02-2.29 3.43.09 3.1.13 3.86.2h.94l4 .21 1.9.08 3.74.22 4.1.2 6.76.3 3.22.13.6.08 1.01-.03 2.15.1 5.32.22.22-5.65.17-3.17.1-2.47-.01-.33.3-8.64v-.8l4.48-.02 6.82-.04 4.88.01 10.07.06h1.67l7.48.04 5.98.07.18-.05 6-.01h5.97l7.78.05h2.75l-.02 1.37-.01 7.28-.03 2.43-.01 4.83-.01 8.65v5.65l-.03 9.15.02.6-.03 7.03-.02 1.06.02 2.57-.03 5.48v5.17l-.03 2.65.02 1.03-.03 1.83-6.8-.07-2.5-.05-.24-.03-2.66-.02-3.58-.09-3.89-.06-1.96-.02-.07 1.78-1.89-.1-5.51-.25-.08 1.63-.17 4.4-.4 9.47-.13 2.66v.53l-1.7-.03-3.6-.03-2.44-.07-3.4-.05z"/>
    <path region="22" short-name="3" long-name="State Senate District 3" value="1" d="m487.96 712.6-.1.82-.67 8.57-.25 3 .03.1-.23 2.1-.43 4.98-.02.84-.1 1.22-.07.06-1.72-.16-.02.21-7.3-.5-5.52-.4-5.49-.36-2.56-.16-5.6-.38-10.15-.62-.81-.04-7.3-.43-3.45-.13.39-1.08.21-.95.43-.43.66-.3.58.05.82.37.3-.12.12-.76.26-.93-.16-.58-.02-.67-.42-.1-.42-.53.15-.53-.25-.15-.37.02-.77.18-.39-.1-2.4-.07-1.18-.06-8.8-.4-3-.12-7.8-.34-2.51-.12-4.53-.18-8.83-.45-10.93-.6-3.26-.15.59-8.3.04-1.13.98-15.95.12-1.87.04-1.12.12-1.6.26-5.57.1-1.1.52-8.5-7.36-.55-8.75-.5-.98-.08-2.4-.12-.83-.01-1.59-.1-.28.03-1.58-.09-6.33-.42-3.04-.24-2.99-.08-4.27-.26-1.28-.28-1.4-.09-.7.08-12.45-1.05-14.19-1.1-1.87-.12-5.13-.43h-.39v-.22l.23-1.88-.01-.87.65-8.2.04-1.86.29-1.14 11.48 1.07.44-1.85.6-2.68.35-1.32.73-3.59.44-1.72.27-1.22.43-2.2 1.23-5.5 1.28-5.01.6-2.77.47-1.94.35-1.27.7-2.86.5-1.14.65-1.8.47-1.68.67-2.55.59-2.35.9-3.97 1.35-5.38.9-3.16.41-1.6.83-3.44-1.21-.07.25-2.38.68-7.01.11-1.57.23-1.77.26-2.5.4-4.23.37-4.85.11-1.37 2.26.02 5.54.1 3.17.03 3.44.02 4.75.07 6.5.08 1.27.03 4.68.03 11.86.18 1.54.07 4.15.13 8.57.18-.1.5-.2 3.29-.33 4.48-.14 1.54-.14 2.44-.24 2.89-1.67.05-3.7-.24-2.7-.1-.3.24-.06.7.15.71.47.55-.36 1.11-.35.85-.02.57.14.45.53.08-.05.45.25.86-.12.08.12.85-.25.68-.05.66.1.83.21.68-.13.37-.38.54-1.09.13-.18.37.2.44.48.31.25.29.07.52.3.3.6 1.05.31.28.68.81-.5.78-.3.2.2 1.27-.2.12-.03.34.16.74-.22.2.06.58.33-.21h.31l.26.6.02.43.46-.06.1.43.84-.72.2.52.27-.14.15.3 1.07-.6-.57-.98 1.04-.67 1.68 2.57.44-.33.37.47 1.16.1h.79l-.03-.8-1.08.03-.3-.81 1.57-.94.28-.07 1.74.05.03 1.08h-.27v1.48h1.7l-.01-.31 1.4-.11.06-.95-.18-1.12-.16-1.6.3.09 1.16.18 2.07.05.1.28-1.93-.1-.5.4.5.22.38-.21.47.12-.03.7-1 .08.14.44.32-.06.65.08-.04.55-.9-.07-.03.51-.4-.02-.04.4.24.23.22.66-.07.17-.07 1.19.9.05-.04.8.33.1.62-.03-.03.53-1.55.08-.24.16-.14.64-.06.65.97-.06-.04.84 1.35 1.66h.57l-.15.78-.6.04-.2-.08-1.3-.01-.03.74.37.03-.02.41 1.14.06-.02.43-1.55-.13.04.8-.76.03-.05-.7h-.77l.07.9.77.01.01.22.76.02.29.33 1.1.07.03-.96 1.24.04.02-.3.63.03.08 1.75.81.03.32-.42.54-.08v.87l1.06-.42.41-.25.7-.24 1-.26.91-.32.57-.5-.48-.75-.29-.97-.04-.62.13-.86 1.14-.81 1 .22-.32.74.62.13.22.2.89.18-.09.67 1.08.28.48.22.22-.9-.34-.11.08-.6-.43-.12-.1-.18.03-.75.78.03-.21-.54.01-.28 4.96-.34-.07.53.49.07.68.29-.07.3.77.18.66-.26.88-.31.11.4 1.61-.57.17.33.75.27.2-.32-.24-.22-.04-.4 3.11-.44.77-.13-.21-1.12.3-.24.72-.18 1.07-.37.7-.15.74-.07.98.11 3.3.2-.23 4-1.42-.08.02-.23-1.03-.06-.03-.44-.67.03-.03.5-.23.53-.34.55-.31 1.05-.26 1.22-.36.63-.28.7-.26 1.49.17.7.27.81h1.5l.13.2.84.06v1.2l1.56.1-.05.83h.22l-.03.45 3.7.25.2-3.6 1.14.07h.69l-.06 1 3.62.24.12-.63 1.81.11.01-.21 1.34.09.67.24.28.27-.16.83.5.03.04.39.23.36-.27.31.64.35-.14.4.1.31-.19.27-.47-.04-.1.2.13.5h.84l3.1-4.12-.47.21-.66.14-.42-.06-1.6-.6.06-.07.1-1.66 2.2 1.44.1-1.04.32-.1.02-.54 1.25.09-.1 1.2.87.05.3-.22.35-.07.48.08.3-.44.37-.1.3.4.55.32.41-.16.09-.53 1.17.08.2-.72 2.23.15-.12 1.7.23.27-.03.4.57-.04.6-.24.64-.43 1.13.17.29.24.61.2.59-.14.03.4.33.3.32-.07.25-3.45-.08-.47-.17-.28-.95-1.03-.28-.55.1-1.83-5.5-.4-1.01-.3.05-.78.29-.38.28-.1.96-.73.29-.47-.07-.63.12-.35-.08-.58.46-.45.03.8-.13.8.22.05.12-.72.44-.04.18-.33.3.08-.13.82.28.1.3-1.9 2.2-.02.04-.5.78.06.01-.23 1.44.1.4-.07.09-1.5-1.83-.12.13-1.83-.91-.06.1-1.92 1.85.12 1.9.09 1.8.12.06-1.06-.34-.02-.07-.48 1.36-.2 1.28-.16 3.58-.53-.22 2.78-1.1-.04-.34 5.17-.12 2.53-.12 1.57-3.09-.22-2.4-.16-.45 7.47 3.63.22-.22 1.98-.07 1.62-.31 3.04-.1 1.83.08.3-.12 1.77-.29 3.66-.25 2.51-.06 1.41-.18 2.2-.05 1.9-1.9-.15-1.8-.19-.66 9.13-.05.82-.49 6.8-.44 6.19-.24 3.53-.43 5.8-.54 7.61-.27 4.2.63.05-.65 8.67-.5 6.5-.13 1.79-.07.08-.04 1.43-.28 3.69 4.84.35 3.17.27 4.5.4 2.17.2z"/>
    <path region="23" short-name="30" long-name="State Senate District 30" value="1" d="m614.38 668.95.23-4.04.2-2.76.26-4.13 7.32.5 2.01.12 1.58.13v-.27l7.23.48 3.6.34 3.66.15 1.74.03h1.74l1.95.08 4.4.23 6.7.4 2.48.13 11.28.62 5.42.3 3.3.17 1.6.06 7.6.41.09-4.02.08-2.16.06-4.85.17-2.93.23-8.03 2.59.18 11.16.39 3.69.15 2.42.02.04.07 2.2.08-.01-.52.2-7.85v-1l.14-5.44 13.18.49 3.54.12v-2.33l.15-1.86.14-3.19-1.94-.05.21-5.52v-.57l.23-5-.02-.81.12-3.07-.32-.09-2.48-.11.05-1.83-4.58-.17.07-3.43.07-1.01.07-1.99v-1.18l.05-1.39.04-2.08.07-.57.17-5.13-.03-1.73.05-1.82.2-2.29.23-6.88.03-1.56.25-6.3.1-1.76-.01-1.34.21-4.48.29-5.4.07-1.86.27-5.28 4.8.12.57.08 2.34.07 3.08.07 4.66.2 8.9.29 6.03.17 5.83.2.1-3.98.1-5.13.09-2.03.15-4.98v-.4l.23-6.4 1.32.07.52-.03 1.46.05 5.08.08 1.24.06h1.88l.05-2.28.12-3.84.06-1.22.14-5.02.22-5.9.07-2.77.2-4.95.08-3.68.1-3.47 3.91.12.64.06 6.63.3.01-.48 2.8.08 1.53.02 2.98.12 4.45.13 2.48.1 4.1.1 3.45.18v.43l1.86.05 1.73.1 6.63.25 2.85.06 2.55.09 2.83.13 1 .06 9.76.33h1.49l.1-2.57.05-2.3.06-.92.01-1.67.12-3.66 3.02.1.07-1.08-.02-1.04.07-.4.07-2.25.03-3.43.07-1.48.13-4.28.1-4.38.19-4.22 4.1.09 7.03.14.14-4.89.17-6.35 1.32.08 3.79.12 5.7.13 2.3.07 9.18.21-.04 3.5 8.13.09 3.86.08.21-.02 3.2.06.04 1.12.16.82.55.64.28.57-.33.04 1.63 1.1.7.8.5.82 1.55 2.68 1.01 1.57.3.23.38.8.41.13.68.61.4 1.43.18 1.07.45 1.4.03.9.22.84-.04.96.26.28.05.48.26.8.03.46.63.26-.1.75.32.6.95 1.56 1.02 1.07.2.3.36.11.27.32.74 1.85.14 1-.25 2.05-.41 1.27-.9 1.76-.3.46-.1.78-.9 1.41-.32.83-.22.76-.13 1.37.08.95.06 1.97-.08 1.62-.33.75.33.85.05.67-.56.74-.31-.2-1.3.9-.89.33-.8.55-.1.8.18.99 1.08.63 1.38.59.9.77.93.99.4 1.37-.2 1.93-.61 1.74-.14.84-.06 1.07.4 1.73 1.2 2.52.33.79.46 1.7.12.9-.4 1.75-.18.94-.72.81-.84 1.61-.77 1.43-.18.98-.2.72.03 1.23.1 2.08-.6 1.8-.63.87-2.83 1.9-.16-.1-1.3.87-1.45 1.6-.97 2.13-.4.67-.47 1.06-.07.74-.17.49-.3 1.47.12.4-.13 1.25-.2.26-.17 1.37-.35 1.67-.87 1.85-1.36 1.53-.43.21-.34.33-.49.67-.43.85-.42.99-.7 1.12-.75 1.46-.68 1.16-.14.45-.6.95-.2.71-.05.87-.18.79-.5 1.53-.1 1.88-.02 1.48.23 1.26.17.58.23 1.18.06.71-.2 1.48-.16.54v.38l-.15.33-.89.95-.4.2-.27.3-1.44.95-.93.93-.28.16-1.17 1.63-.27.81-.08.45.06.85.14.08v1.13l.07.31.55 1.27.26.3.23.94v1.23l.24.51.05 1.16-.24 2.08-.44 1.03-.26.27-.25.61-.12.7.08.25-.17 1.13-.54 1.54-.13 1.11-.09.25v.8l.07 1.37.12.94.18.62.1.66v.65l.16.96.01.86-.14.92-.29 1.27.18.6-.59.42-.53.63-.58.44-1.28.88-.74.78-.72 1.16-.21.73-.03 1.2.14 1.23.13.7.34 2.3.3.93.52 1.09.23 1.2-.08.84-.4.9-.36.28-.66.03-.7-.12-.73-.32-.53-.36-1.42-1.1-.47-.27-.73-.3-1.67-.34-1.08.08-.7.31-.48.65-.26.68-.1.6-.09 1.24.26 1.05.52 1.26.72 1.34 1.02 1.28.35.54.31.75.59 2.23v.63l-.12.63-.46.89-.51.53-1.03.81-.4.06-1 .7-1.58.61-.94.77-.58.71-.36.74-.16.66.12.37.03.58.14.28-.1.53.3 1.06.14.28.2.82.05.68-.02.99-.13.85.2 1.12-.5 2.16-.05.53-.21.63-.54.53-1.25 1.46-.81.5-.87.7-1.5.98-.25.46-1.48.84-.48.44-.63.87-.54 1.36-.16.7.26.3.1.33-.03.62.12.38.44.98.24.23.67 1.03.55.6.27.13.07.33.64.76.37-.02.52.17.43.45-.29.15.86 1.23.43.92.49.7.33.72.4.6.52.42.14.66.27.82v.55l-.21 1.01-.2.55-.4.55-.62.3-.4.32-1.08.4-1.09.13-.83.37-1.38.97-.38.48.01.28-.42 1.04-.1 1.23.19.34-.26.44.12.85-.04.6.08 1.23.12.47-.28 3.38-.34.93-.27.51-.19 1.01.06.28-.1.7-.47 1.09-.26 1.16-.37 1.05-.72 1.31-1.48.72-.82.27h-.83l-1.9-.42-2.2-.07-1.6.33-1.44.65-.2.3-.5.26-1.34 1.43-1.38 1.2-.24.12-3.55 2.91-.6.43-1 1.24-1.76 1.57-.33.5-.29.23-.54.79-.6.53-1.14.8-.36.18-.72.53-.58.71-1.43 1-1.03 1.01-.52.88-.02.29-.35.2-.19.28-.65.6-1.59 1.25-.75.54-.35.35-.76.94-.13.34-.75.64-.1.27-.41.27-.45.56-.68.6-.57.42-.88.81-.45.62-.32.67-1.1 1.2-.18.41-.45.27-1.1 1.24-.55.5-.23.46-.26.25-1.14 1.53-.2.58-.36.48-.43.96-.66 1.2-.47 1.06-.5.95-.25.08-.4.78-.5.83-.87 1.58-.74 1-1.14 1.09-.72.33-.9.11-1.9.04-2.13.5-1.38.5-.3.3-1.01.42-.5.3-1 .92-.19.44-.34.45-.26.63-.3.47-.74.9-1.14 1.17-.93 1.13-.59.92-.5.9-.12.38.1.99-.02.67-.12.62-.27.58-.83.77-.79.36-.43.02-.82-.17-1.48-.58-1.24-.3-.49-.04-.85.12-.21-.06-1.35.68-.58.2-1.68.1-.89.3-.52.33-.95 1.03-1.18.57-.81.21-.88.32-.42.23-1.42.97-1.25 1.08-1.83 1.4-1.91 1.12-.67.54-1.18 1.13-.94.68-1.13.54-1.2.37-1.45.19-1.37-.02.04.15-.91.05-.72-.1-.95-.34-.58-.52-.72-.82-.5-.73-.4-.96-.22-.97-.72-2.47-.4-1.93-.13-.36-.45-1.64-.18-.8-.5-.65-.1-.23-.56-.76-.6-.63-.93-.82-1.58-1.27-1.2-.64-.15-.12-2.11-.48-1.86.27-.89.6-1.36.79-1.06.9-.75.96-.18.36-.96 1.32-1.19 1.4-.84.84-1.05 1.16-.73.55-.13.17-.84.7-1.8 1.32-1.46.9-.74.36-.53.15-.78.43-.38.73-1.07.53-2.95 3.54-.4 2-.1 3.24-.4 2.48-.55 3.54v2.62l-.04 1.82-.4 1.38-.57.75-.7.15-.62-.1-.41-.21-.95-.06-.88-.3-1.17-.86-1.7-.59-.98-.13-1.06.18-.86.2-.16.14-.6.08-.29-.12-.56-.02-1.02-.3-.87-.19-.6-.05-.54-.17-.6-.07h-2.1l-2.08.35h-.65l-1.44.44-1.17.81-1.13 1.23-.5.7-.07.47-.26.02-.09.36-.31.44-.16.5-.04.66.07.55-.1.47.14 1.28.35 1.05.4.85.08.34.18 1.3-.05.56-.56.9-.46.38-.84.5-1.04.26-.62.04-2.9.78-.24.15-.87 1.53-.5 1.09-.14.45.02.39-.23 1.5-.46.87-.6.68-.3.18-.7.2-.95.44-.39.29-.37.42-.39.69-.09.4.02.62.34 1.02.06.46.27.61.3.9.28 1.12.24.57.54 2.1.42.75.17 1.06-.31-.27.02 1.09-.18.3.14 1.23-.07.6.05 1.02.2.72.14 1.42.13.37-.11.58.07.8-.13.65.02.52-.14.88-.35 1.25-.35.67-.5.78-.84.97-1.59 1.3-.48.3-.72.3-.47.28-.52.12-.62.25-.9.03-.83-.13-.91-.27-1.5-.8-.95-.25-.7-.05-.77.2-.33.3-.3.6-.05 1.62.06 1.13.23 1.22.06.63.27.72.27.38.12.42.38.7.43.6.27.58.76.82.82.75.66.45.83.68.35.15.54.5.53.65.72.75.89.85.25.42.56.72.49.85.2.5.05.75v.93l-.12.9-.15.7-.36.51-.73.57-.5.76-.39 1.17-.23 1.42.05.6.14.32-.6 1.33-.39 1.34-.19 1.28.05.66.16.82.37.77.95 1.06.83.74.73.9.65 1.04.3.73.48.2h.3l.17.91-.46 1.4-.29.52-.52.43-.69.3-.69.05-.84-.06-1.39-.46-.85-.35-.75-.45-.75-.55-.58-.57-1.23-1.65-.67-.75-1.57-1.01-1.06-.21-1.03.1-.45.18-.42.37-.4.18-.13.43-.6.53-.53.67-1.25 2.1.02.6-.18.59v.62l-.15 2.07.15.77-.65 2.17-.23.23-1.19 1.93-.57.63-1.97 1.4-1.12.85-2.36 1.52-.76.3-.82-.02-.66-.15-1.62-.75-.67-.43-1.08-1.24-.63-.51-1.14-1.06-.38-.26-.2-.47-.04-.77.3-1.18.48-.6.54-.39.37-.5.34-.83 1.13-1.23.7-.46 1.44-1.73.18-.27.3-1.05-.05-.46-.37-1.55-.7-1.21-.47-.68-.45-.86-.43-.99-.25-.42-.25-.76-.65-1.77-.22-.53-.3-.47-1.32-2.25-1.29-2.54-.67-.65-.98-.74-1.11-.48-.78-.22-.66.03-.86.17-.3.24-1.35.33-1.18.13-.7-.06-.37-.13-.35-.29-.23-.73-.12-1.42-.25-.93-.54-1.32-.84-1.6-.7-1.02-1.06-1.08-.59-.42-.49-.23-.91-.1-2.17.07-1.2.3-.7.32-1.18.79-.2.3-.64 1.47-.02.55-.17.45-.5 2.25-.69 1.62-.56.82-.37.2-.93.78-.9.55-.71.52-1.5.83-.8.3-.83.52-.33.3-1.02.67-.28.38-.27.6-.1.65-.27 1.04-.8 1.55h-.01l.47-7.67v-.53l.23-2.88-9.54-.55-8.32-.5-12.13-.74-4.68-.16-6.96-.54h-.64l-1.5-.11h-.57v-.4l.2-3.22.92-12.91.08-.52.1-1.89.64-9.03.16-1.63.22-3.92.28-3.77.26-4.3.48-6.52 3.78.21 3.62.23.9-12.41.71-9.94-7.42-.52.65-8.4 1.07-14.05.75-9.38 1.04-12.85 5.41.41 1.85.16 7.9.6 2.85.2.27.04 3.13.24.53.01 1.08-15.42.51-7.29 3.3.22 2.57.24 1.73.05 14.07.94 1.54.15.4-7.34.32-3.38.13-2.2.43-5.7.02-.92.93-13.18.38-5.71.37-5.54-9.48-.64z"/>
    <path region="24" short-name="31" long-name="State Senate District 31" value="1" d="m615.07 658.02.72-11.44-9.85-.58-1.71-.07-7.29-.49.83-11.82.22-2.8.44-7.79-6.22-.45-1.46-.12-6.22-.41.05-1.85.4-6.84v-.89l2.14.04.53-.05.31.1h.84l2.57.15.03-1.07.28-5.4.22-5.7.13-1.97.08-2.77.1-2.68.09-1.9.08-2.34.3-7.16v-.82l.17-3.22.14-3.17.28-7.73.36-9.03 3.04.21 2.08.1 4.3.26 4.36.29 4.49.23.89.13.23.1 7.44.1 4.53.1 4.88.16 6.65.24 4.7.13 4.93.17 4.4.13 4.14.14 2.83.14 1.26.01 4.1.18 2.6.09 4.02.17 3.45.13 8.27.28 3.8.07v.18l3.38.12 1.52.04 3.9.14.34-8.57.18-3.53.1-2.4.03-3.67 7.06.25 1.65.05.1-2.34.22-5.3-.01-.72.12-2.58.03-1.02.14-3.07.17-5.89.04-1.04.07-3.04.05-1.36-.02-1.49.05-1.9.23-6.26.1-1.35-3.32-.1-2.92-.13-3.45-.12-6.63-.28-2.36-.06.05-1.08.05-2.4.07-1.53.05-2.52.06-1.13.22-5.98.03-1.78.08-2.47 2.05.06 2.93.11 2.65.07.17-5.53.23-7.22.04-1.76.05-.94.23-6.98.08-1.85.12-4.07.03-1.5h-.1l.11-4.2.12-3.62h-.04l.31-8.24.02-.9-1.08-.05.08-1.25 3.65-.55.03-4.75v-3.76l-5.64-.01-5.29-.06h-3.97l-2.03.01-3.72.06h-1.88v-.06l-3.7.04-3.77-.03-3.64.01-7.43.17-3.23-.02v.04l-3.78.08-3.41.01-3.4-.1-2.94-.06-6.32-.08-2.41-.04h-4.38l-3.76-.1-3.77-.02-3.51.02-6.92.13v-.08l-3.73-.06-.04-14.9-.02-5.68-.02-.34-.02-5.22-.04-3.61-.08-5.06.22-6.37.14-5.45v-3.1l.08-4.54.01-1.58-.16-1.8-.3-1.96h-.1l-.02-3.3-.1-4.17.12-1.88-.16-5.51-.1-6.04-.02-2.46 4.27.05 15 .31 7.1.1 7 .05 1.72.05h1.67l4.06.04 4.31.07 2.26.02 3.06.08h2l5.87.14 1.27-.02 2.05.03h12.31l7.1-.08 4.52-.01h7.92v6.39l-.01 5.43.01 2.86-.05 2.21.04 2.27.02 2.3-.04 2.59v9l-.02 5.09-.01 4.98-.03 4.12.47-.2.54-.45.95-1.19.5-.52 1.07-.56.42-.15 2.62.1 1.93.14 2.46.14v.64h-.57l-.01.48-1.35-.04-.05.98.56.03-.02.38.32.01-.08 1.72.42.25.54-.12.19.23-.17.3-.03.63 1.18.06.04-.74-.66-.05-.06-.44.45.02.01-.23.74-.07.08-.71-.32-.02-.15-.56.74-.07.4.5-.03.56.25.26.62.19-.04.67.28.02.08-.54h.23l-.07 1.31-.91-.03-.26.43 1.64-.15.71.02-.03 1.08-.7-.03-.2.42-.03.57-.3.06.01-.49-1.2-.05-.06 1.57 1.2.05.04-1.05.31-.06-.02.63 1.12-.23.07-.43.41.01.01-.38 1.56.05-.44.22-.07 1.65-.18-.01-.03.72.57-.2.02-.5 2.08.09-.05 1.53.83.02-.02.63-.68-.03-.13 2.56-.89-.03-.01.26 1.27.56.42.1.82-.06.7-.4.33.48.08.48-.06 1.48-.12.8-.5.62-1.15.92.88.04-.09 1.43-.21.01-.08 1.23.2.07.5.8.5.03.01-.27.42-.04.08-.4.33-.77.13-.58 1.55.07.48-1.24h1.71l.03-.56.61.03 1.37.58-.02.43.4.01-.04.99.63-.01 5.98.27 6.35.27 5.85.24 3.23.1 3.26.13.2.03 9.97.4-.12 3.45-.25 5.98-.26 5.58-.09 2.22-.02 1.83-.18 6.5-.3 8.63-.12 2.47-.16 4.12 7.31.26 3.73.15-.37 10.64-.2 5.95-.07 2.63-.1 4.9-.17 5.38-.1 4.08-.1 3.47-.08 3.68-.2 4.95-.07 2.77-.22 5.9-.14 5.02-.06 1.22-.12 3.84-.05 2.28h-1.88l-1.24-.06-5.08-.08-1.46-.05-.52.03-1.32-.06-.24 6.4v.39l-.14 4.98-.09 2.03-.1 5.13-.1 3.97-5.83-.2-6.04-.16-8.89-.29-4.66-.2-3.08-.07-2.34-.07-.57-.08-4.8-.12-.27 5.28-.07 1.86-.29 5.4-.21 4.48.01 1.34-.1 1.75-.25 6.31-.03 1.56-.23 6.88-.2 2.29-.05 1.82.03 1.73-.17 5.13-.07.57-.04 2.08-.06 1.4.01 1.17-.07 1.99-.07 1.01-.07 3.43 4.58.18-.05 1.82 2.48.11.32.1-.12 3.06.02.82-.23 4.99v.57l-.2 5.52 1.93.05-.14 3.19-.15 1.86v2.33l-3.54-.12-13.18-.5-.13 5.45-.02 1-.2 7.85.01.52-2.2-.08-.03-.07-2.42-.01-3.7-.16-11.15-.4-2.59-.17-.23 8.03-.17 2.93-.06 4.85-.08 2.16-.1 4.02-7.6-.4-1.6-.07-3.29-.17-5.42-.3-11.28-.62-2.47-.13-6.71-.4-4.4-.23-1.95-.08h-1.74l-1.74-.03-3.67-.15-3.6-.34-7.21-.48v.27l-1.59-.13-2-.12z"/>
    <path d="m917.32 91.62-2.98 1.13-3.32.93-1.47 1.04-4.27 2.09-2.66.74-3.38 1.5-3.5 1.33-3.1.4-1.44.4-2.7 1.54-2.96.96-2.97 1.37-.6-.07-1.9 1.07-3.88 1.03-3.27.35-4.85 2.19-1.59.3-.26-1.19-3.49.51-1.56 2.1-1.33 1.12-1.9 1.03-3.61 1.03-1.44 1.1-1.97.88-1.57.4-6.01 3.05-2.24.62-3.09.38-2.2.75-2.47-.02-1.05.57-3.35.53-5.33 1.2v4.27l-.02 5.73-.12 16.9-.19 1.1.02.24-.09 4.05-.1.69.1.61.13 2.33-1.44.11-5.14.05h-6.64l-5.93.05.04 7.05.03 1.75.1 10.13-14.27.03-.77.02-2.34-.02-5.15.05h-5.02l-9.96.07-.11 11.63-.13 6.78-6.2-.05h-4.08l-3.05.05-5.13.07.05 7.3v6.59l-.05 9.47-.01 2.69-.05 2.6-.04 3.61 3.2-.01.04 3.34.08-.34.37-.32 1.91-.01.2-.36v-.5l1.23-.03.43-.12v-.51l3.38-.04-.03.6 3.22-.04 2.99-.09 1.17-.13.03 1.84-.02 1.93 1.4-.02 1.27.03.9-.04 3.1-.04 10.36-.02.35.02 3.42-.07.02 4.5-.08.19v6.1l-.05 4.5v4.07l-.05.84 5.77.03h2.47l6.81.01 5.38-.03 1.36.02.99-.05 2.8-.03h3.87l7.08-.03.02 2.15-.03.4-.02 4.79v2.47l.07 4.12.02 4.83.03 7.07-.03.86.03 3.84.03 9.64v9.99l.05 2.1v2.9h7.9l8.49-.04 5-.03h4.98l8.14.04 6.33.06.47-.03 6.98.03 4.5.03h3.38l7.88.07 7.23.05 2.08.02 2.42-.01 2.8.05 1.78-.03 1.4.01h6.28l.8.03h4.04l.9-.04.01-5.08-.02-2.03.05-7.11-.03-5.12.05-.3v-.73l-.04-2.38-.01-5.46v-1.62l.08-.2-.05-4.08-.03-.42v-4.32l.01-4.85-.02-2.38v-3.77l-.04-3.67.02-7.03v-2.85l.02-2.14.03-10.02-.02-2.87v-6.29l-.05-3.27.03-3.78v-.15l-.03-13.01v-39.47l-.01-6.09V150.13l.02-1.3-.01-3.47v-22.92l-.01-7 .02-4.28V100.3l-.01-.01V91.9z" region="25" value="1" short-name="32" long-name="State Senate District 32"/>
    <path region="26" short-name="33" long-name="State Senate District 33" value="1" d="m771.64 489.9.1-4.08.17-5.39.1-4.9.07-2.62.2-5.95.38-10.64-3.74-.15-7.31-.26.16-4.12.12-2.47.3-8.62.18-6.5 3.7.08 3.4.05 2.45.07 3.6.03 1.7.03v-.53l.13-2.66.4-9.47.17-4.4.08-1.63 5.51.25 1.89.1.07-1.78 1.96.02 3.9.06 3.57.1 2.66.01.24.03 2.5.05 6.8.07.03-1.83-.02-1.03.03-2.66V404l.03-5.48-.02-2.58.02-1.05.03-7.03-.02-.6.03-9.15v-14.3l.02-4.83.03-2.43.01-7.28.02-1.37 4.97.03 2 .04 1.77-.05 2.69.03h2.72l2.27.01v-3.07l-.04-5.65.01-3.26-.1-1.98-.04-3.02.05-2.49-.02-13.38.03-4.83h7.89l8.49-.04 5-.03h4.98l8.14.04 6.33.06.47-.03 6.98.03 4.5.03h3.38l7.88.07 7.23.04 2.08.03 2.42-.01 2.8.04 1.78-.02 1.4.02h6.28l.8.02h4.04l.92-.05.01 4.5-.04 2.76.03 5.96.02 2.87v2.18l-.03 4.07.06 1.36-.08 3.5.06 3.19-.02.52v23.59l-.06 2.67.05 3.26v4.48l.03 1.54-.03 1.34-.01 13.63.01 6.58v9.6l.03 9-.02 9.52v10.86l-.47.4-.82.3-.86-.05-.92.4-.84.63-.61.24-.7.41-.79.14-.34.15-.52.46-.4.14-.77.6-.97 1.06-.29.42-.82.59-1.08.4-.38.02-.71-.2-.33-.2-1.02-1.16-.35-.2-.19-.38-.39-.3-.91-.4-.75-.01-2.18.7-.82.4-.9.2h-.72l-1.54 1.05-.47.8-.56.46-1.03 1.92-.5.6-.6.58-.2.33-.44.08-1.86 1.7-.46.78-.33.94-.07.4-3.2-.06-.22.02-3.86-.08-8.13-.1.04-3.49-9.18-.21-2.3-.07-5.7-.13-3.79-.12-1.32-.08-.17 6.35-.14 4.89-7.03-.14-4.1-.1-.19 4.23-.1 4.38-.13 4.28-.07 1.48-.03 3.43-.07 2.25-.07.4.03 1.04-.08 1.07-3.02-.1-.12 3.67v1.67l-.07.92-.06 2.3-.1 2.58-1.48-.01-9.75-.33-1-.06-2.84-.13-2.54-.09-2.86-.06-6.63-.25-1.73-.1-1.87-.05v-.43l-3.44-.17-4.1-.11-2.48-.1-4.44-.13-2.99-.12-1.52-.02-2.8-.08-.01.48-6.64-.3-.64-.06z"/>
    <path region="27" short-name="4" long-name="State Senate District 4" value="1" d="m132.6 774.52-3.32.02-.52-.04-3.22-.1-2.05-.43-1.36-.24-1.67-.16-1.05-.05-1.35.45-.49.36-.39.95-2.43.07-.83-.02-3.79.02h-4.83l-.58.03-4.53-.03h-3l-.95-.04-2.47-.01-.8.02-1.18-.07-4.52-.12-4.56.12.07-4.49v-.96l.07-6.31.04-2.46.16-6.32v-1.9l.09-4.87.06-4.02.08-5.76.07-6.16.07-.32.02-6.7.04-1.93.06-9v-2.98l.04-1.8 8.72.02 1.34.26 1.02-.05h1.5l2-.11 2.38-.07 4.76.01.03 1.9-.02 4.4.04 8.65.06 1v6.52l1.05-.01 1.23.14 5.06-.05 4.56-.06 2.47-.17 6.75-.07 4.76-.06 2.1-.05 1.12 1.55v-.27h.88l-.29-1 .2-.3 9.69-.18 2.9-.07.1.44.34-.2.23.22.53.04.01.66-1.16-.03.02.75.17.01.03 1.1.48-.37.54-.26.43.25-1.45.8.05.3.94-.01.08 2.24 1.52-.04v-1.26l1.37.02-.01 1.23.64-.1h1.87l-.54-1.95.5-.02v-1.9h.2l-.02-.9.28-.01.05-.56.47-.22.06-.44.47-.62.2-.42.1-.67-.16-.34.6-.57.76-1.01-2.28-.03-.3 1.09.17.4-1 .5-.08-1.62-.4-.25h-1.16l-.25-.07.03-.43-.15-.67-.75-.05-.37.07-.3-.2-.19.27v.43l-.35.02-.19-.51h-.31v1.16l-.66.01-.07-7.3-.03-4.34-.08-4.57-.1-3.55.01-1.21-.04-3.11.97.22 2.15.05 1.52-.03 1.34.03 2.52-.03 4.46.05h9.17v.1l.02 1.4.1 3.68.06 6.42.27.28.45.13.43-.15.83-.41 1.14-.2.76-.26 2.2-.64.17.36-.25 3.73-.2 2.48-.26 3.75-.07.7-.15 2.83-.37 5.48-.28 3.83.68.17-.48 5.72-.49 5.98-.2 2.26-.38 4.57-.25 2.66-.35 4.7-.35 5.09-.57 7.98-.13 2.15-3.4-.53-3.96-.8-1.95-.07h-1.58l-.18-.1-3.52-.1-6.24-.93-.96-.14-3.82.35-1.73-.47-2.05-.64-3.67.68-3.24-.68-.83-.12z"/>
    <path region="28" short-name="5" long-name="State Senate District 5" value="1" d="m84.75 576.6 2.6.06 4.76.1 5.53.07 6.88-.02.02 1.77.12 5.54 1.45-.04 1.64.01 3.6-.04 4.07-.02 3.75.06 2.43.05.84-.04h3.05l3.84-.05 2.74-.05-.13-7.3 1.04.02 2.7-.08 4.15-.07 4.35-.12 4.16-.08 6.14-.17 3.84-.06-.08-4.44-.08-2.94-.11-5.66-.05-1.26v-1.04l-.15-6.6-.78.01.68-1.99.05-2.13 3.69-.05 2.12-.09 1.58-.01 2.06.08h1.64l5.56-.1 2.37-.06 5.1-.08 6.44-.08 2.94-.06 2.24-.08 2.05-.14.4.02 3.33-.1-.1 1.14 3.5.27 2.68.18 3.1.3 2.44.17 4.33.34 3.28.25 6.14.53 3.18.25 8.13.54 1.3.1-.25 4.08-.3 3.33-.28 3.7v1.16l-.14.9-.37 5.26-.4 6.43-.42 6.28-.12 1.4-.26 3.95-.4 5.7v.46l-.22 1.94-.05 1.1-.2 3.12-.16 2.59-.15 1.55-.13 1.69-.4 6.03-.2 1.43-.04.86-.25 3.1-.18 3.8-.49 6.65-.25 4.02-.24 2.81-.2 3-.11 1.05-.02.73-3.58-.27-3.77-.27-1.8-.14-.04.45-1.08-.08-.18.37.32.11-.02.3.3.21-.03.43-.21.12-.32-.16-.7-.07-.1 1.35.41.05.16.5-2.43-.2-.18.73-.93 1.09-.58-.05-.25-.37.11-1.48-4.45-.33-.23.34-.54-.06-.32.21.33.57.24.65-.35.07-.01-.6-.41-.77-.48.02-.23-.17-.21.76.05.49-.32.28.32-1.28-.46.02-.07-.4 1.21-.73 1.06-.33-.09-.21-1.3.34.19-2.93.86.05-.07-.3-.04-1.32-.07-.88.29-.05.03-1.24-2.47-.2-.2.77-.42.7-.1.42.2.41.28-.57.83.06-.04 1.54-.57-.24-.55-.02v.35l.27.46-.04.45-.18.38-.4.48-.12.61h-.35l.06 1.87-.1.38.05.5-.34.04.01.76.2.13h.47v.54h-.66l.02 1.17.73.02-.08 1.15-.14.02-.07.72-.36.35-.08.59-.35.02-.35.29-.43.16v.7l1.45-.55.24-.18-.06.82-1.3.84-.79.59-.57.3.04.17-.77.43-.26-.15.01-.76h-.22v-.53h.67l-.17-.28.11-.74-.56-1.84-.15-.73-.29-.9.12-.34-.66-.96.08-.57-.1-.54-.76-.03-.01-.47h.52v-1.16h.27l.02-2.16h.31v-.32l.2-.2h-1.77l.02.94h-.62l.01 1.24-.05.18h-.76v.41l-.7.1h-.89l.25 1.6-.06.48.14.25.68.78 2.24 1.4.2.7-.04 1.41-.35.03-.94-.1-1.44.06-.1.77-.39.01.03.95-.73-.02v-.16l-.77.05-.02.76-.56-.26-.45-.02v-.32h.45l.19-.2h.45l.02-.37-.17-.67-.96.02.01-.68h-.71l.11-.36.5-.02.01-.53-.3-.18h-.33l-.28.89-.36.01-.5-.26v1.09l.22.07.91-.02.1 1.15-.26-.02.04.63-.85.03-.12.25.1.48h-1.47l-.3-.35.04-1.31.16-.33-.13-.46-.25-.08.02-.87-.04-4.8-.05-3.25-4.15.06-4.53.1-7.65.12-5.54.1.02 2.66.02 6.28.09 14.51.01 6.67-.01 3.64v10.17l7.42-.05.11 9.02 1.74-.01-.03-1.38h.3l-.15-.62v-1.14h.44v-1.18h.26l-.01-1.02h1.14l-.01-.69-.8-.01.07-.4v-.93l-.5-.01-.32-.43h-.55l.02-.33.53.06-.05-.75.48.07.25-.3h.78l.03 2.43 1.79.06v-.27l1.69-.08.23-.43-.01-.4-.39-.41-.24-.53v-.4l.59-.01v-.67l1.43-.08-.3.76.77.05.51.15.24-.3 2.58.17-.02.2.95.15-.01.49 1.5.2.31.76.4 1.46.3.2.46-.18-.08 1.15 1.7.13.98-.18.13-.56-.03-.38.71-.24.24-.38-.15-.48.04-.5-1.57.6-.04-.26 1.81-.58-.01.19.92.17-.08 1.22.88.09v.16l-1.44-.2-.06.66.26.05-.02.72.2.34-.17.28-.72-.15-.05.53-.96.42.14 1.14-1.06-.54-.07.96-.18.04-.05.69.13.53-.09 1.28-.35.03-1.48.47-.09 1.39.85-.12.47.02.1.68h.54l.44-.11-.7 2.97-1.86-.06.01-1.02-.9-.02-.5.15-.57-1.32.78-.42-.03-.15-.67.31-.34-.25-.36-.88-.5-.8.3-.2.06-.6-.81-.22-.23-.48-.61-.87-.52-.03-.03 1.36h.08v1.25l-.53.12-.13-.45-2.34-.11-.02.76-.81.4 1.12 1.26.02.35-.33.37-.82.31-.33.33-.06.31-.45-.02-.03-1.7h-.32l.25-.76.14-.14.84-2.83-.1-.42-.13-1.03-1.04-.02-.18.32-.4.03-.27-.42-.41.04.42.98-1.2.07v-1.22l.69.04-.28-1.03-.4-.29-.04-.91-.81-.06-.03.95-.51.02v.91l-.05.32h.5l.01 1.32.26-.01v.81l-.39-.01v.83l1.08-.07.01.62h-.38v1.4l-.9-.05-.01.43h-.26l.01-1.76-1.1-.01.02-.5.16-.22.39-.14-.2-.42-.24.15-.94-.02-.26-.13.04 4.85.1.07.01 2.13-2.18-.01.12.33h-5.4v-.09h-9.16l-4.46-.05-2.52.03-1.34-.03-1.52.03-2.15-.05-.97-.22.04 3.1-.01 1.22.1 3.55.08 4.57.03 4.34.07 7.3.66-.01v-1.16h.31l.2.5h.34v-.44l.19-.27.3.2.37-.06.75.04.15.67-.03.43.25.07h1.17l.38.25.09 1.62 1-.5-.17-.4.3-1.09 2.28.03-.75 1-.61.58.15.34-.1.67-.19.42-.47.62-.06.44-.47.22-.05.56h-.28l.02.91h-.2v1.9l-.5.02.54 1.95h-1.87l-.64.1v-1.23l-1.36-.02v1.26l-1.52.04-.08-2.24-.94.01-.05-.3 1.45-.8-.43-.25-.54.26-.48.38-.03-1.1-.17-.02-.02-.75 1.16.03v-.66l-.54-.04-.23-.22-.33.2-.1-.44-2.91.07-9.68.18-.2.3.28 1h-.88v.28l-1.12-1.56-2.1.05-4.76.06-6.75.07-2.47.17-4.56.06-5.06.05-1.23-.14h-1.06l.01-6.5-.06-1-.04-8.65.02-4.4-.03-1.91-4.76-.01-2.38.07-2 .1h-1.5l-1.02.06-1.34-.26-8.72-.02-.03-2.15.02-5.1.05-7v-4.14l.04-4.92-.02-4.93.05-8.4v-7.72l.02-8.27v-2.53l.03-3.3-.01-3.58.07-3.12-.02-1.77.06-4.34.08-3.81.01-1.95.05-2.78.05-4.62.04-4.94.05-2.54.19-16.12.09-3.31.22-11.9.1-6.23z"/>
    <path region="29" short-name="6" long-name="State Senate District 6" value="1" d="m223.72 641-.38 4.93-.05 1.13-.12 1.28-.05 1.14-.18 2.27v.89l-.17 3.06-.09.66-.13 1.89-.13 1.3-.12 2.13-.27 2.9-.1 1.47-.26 3.38-.22 2.44-.03.8-.15 1.87.02.46-.22 3.4-.13 2.48-.1 1.36-.19 2.09-.45 6.8-.03 1.12-.14 2.25.45.1-.07.35-.22 3.35-.51 6.74-.08 1.58-3.83-.31-3.81-.33-5.12-.46-4.2-.34-5.5-.48-1.48-.15-6.2-.5-3.24-.29-1 .01-8.96.01-.12-.33 2.18.01v-2.13l-.1-.07-.05-4.85.26.13.94.02.24-.15.2.42-.39.14-.16.21-.02.5 1.1.02v1.76h.25v-.43l.9.06v-1.42h.4l-.02-.6-1.09.06.01-.83.4.01v-.81l-.27.01v-1.32h-.51l.06-.32-.01-.91.51-.02.03-.95.81.06.03.91.4.29.29 1.03-.7-.04.01 1.22 1.2-.07-.42-.98.41-.04.26.42.41-.03.18-.32 1.04.02.13 1.03.1.42-.84 2.83-.14.14-.25.76h.32l.03 1.7.45.02.06-.31.33-.33.82-.3.33-.38-.02-.35-1.12-1.26.81-.4.02-.76 2.34.11.13.45.53-.12v-1.24h-.08l.03-1.37.52.03.6.87.24.48.81.23-.06.6-.3.19.5.8.36.88.34.25.67-.3.03.14-.78.42.56 1.32.5-.15.91.02-.01 1.02 1.86.06.7-2.97-.44.11h-.54l-.1-.68-.47-.02-.85.12.1-1.39 1.47-.47.35-.03.09-1.28-.13-.53.05-.7.18-.03.07-.96 1.06.54-.14-1.14.96-.42.05-.53.72.15.17-.28-.2-.34.02-.72-.26-.05.06-.67 1.44.2v-.16l-.88-.08.08-1.22-.92-.17.01-.2-1.8.59.03.25 1.57-.59-.04.5.15.48-.24.38-.7.24.02.38-.13.56-.98.18-1.7-.13.08-1.15-.46.18-.3-.2-.4-1.46-.3-.76-1.51-.2.01-.49-.95-.16.02-.2-2.58-.15-.24.29-.5-.15-.78-.05.3-.76-1.44.08v.67h-.59v.4l.25.54.39.42.01.4-.23.42-1.7.08.01.27-1.8-.06-.02-2.43h-.78l-.25.3-.48-.07.05.75-.53-.06-.02.33h.55l.33.43h.5v.95l-.09.39.8.01.02.68-1.14.01v1.01h-.25v1.19h-.44v1.14l.15.63h-.3l.03 1.37-1.74.01-.11-9.02-7.41.05-.01-10.17.01-3.64-.02-6.67-.08-14.51-.03-6.28-.01-2.66 5.54-.1 7.65-.13 4.53-.09 4.15-.06.05 3.26.03 4.79-.01.86.25.09.13.45-.16.34-.04 1.3.3.35h1.47l-.1-.47.12-.25.85-.03-.04-.63.25.02-.09-1.16-.92.03-.22-.07.01-1.1.5.27.36-.01.28-.9.33.01.3.18v.53l-.5.02-.12.35h.71v.68l.95-.01.17.67-.02.37h-.45l-.19.2h-.45v.32l.45.02.56.26.02-.76.77-.05v.15l.73.03-.03-.95.4-.01.09-.78 1.44-.05.94.1.35-.03.04-1.41-.2-.7-2.24-1.4-.68-.78-.14-.26.06-.48-.25-1.6.89.01.7-.1v-.41h.76l.05-.18-.01-1.24h.62l-.02-.93 1.78-.01-.2.2v.32h-.32l-.02 2.15h-.27v1.17h-.52l.01.47.77.03.09.54-.08.57.66.96-.12.33.3.9.14.74.56 1.84-.1.74.16.27h-.68l.01.55.22-.02-.01.77.26.15.77-.43-.04-.17.57-.3.8-.59 1.3-.84.05-.82-.24.18-1.45.54v-.69l.43-.16.35-.29.35-.02.08-.6.36-.34.07-.72.14-.02.08-1.15-.73-.02-.02-1.18.66.01v-.54h-.46l-.2-.13-.02-.76.34-.04-.06-.5.1-.38-.05-1.87h.35l.11-.6.41-.49.18-.38.04-.45-.28-.46.01-.35.55.02.57.24.04-1.54-.83-.06-.28.57-.2-.41.1-.42.41-.7.21-.78 2.47.2-.04 1.25-.28.05.07.87.03 1.32.08.3-.86-.05-.19 2.94 1.3-.34.09.21-1.06.33-1.22.73.08.4.46-.02-.32 1.28.32-.28-.05-.49.21-.76.23.17.48-.02.4.78.02.59.35-.07-.24-.65-.33-.57.32-.21.54.06.23-.34 4.45.33-.11 1.48.25.37.58.05.93-1.09.18-.72 2.43.18-.16-.5-.4-.04.1-1.35.69.07.32.16.21-.12.04-.43-.31-.2.02-.3-.32-.12.18-.37 1.08.08.04-.45z"/>
    <path region="30" short-name="7" long-name="State Senate District 7" value="1" d="m179.9 795.34-.3.06-.35-.32-.38.5-.73.13-.15-.34.03-.77h.47l.28-.16.14-.36.04-1.15.67.07.1-1.02 1.64.14.05-.7-.3-.03.06-.71-.72-.07.2-2.18-1.46-.09v-.18l-1.11-.09-.01.1-1.53-.02v1.12l-.4-.02-.09 1.4-.09.25-1.44.11-.38 1.2.35-.05.01.83-.35.02.06 1.7-.6.03-.23.38.35.31-.22.3-.4-.18-.15.95-.21.02.18.83.16-.01-.17 1.68.17.02-.1 1.43-.17.3-.88-.03-.07-.28-1.46-.16-.5.5.18.68-.16 2.25-2.16-.15-2.67-.27.03-.42.22.02.07-.8-1.31-.13-.05.55-.82-.08.09-1.16-.96-.09.14-1.87-.43-.03.2-2.7-1.4-.13.02-.42.41-.13.05-.37.95.09.3-.55-.43-.23.07-1.03-1.09-.08.02-.57-.56.1-.4-.15-.3.2-.16.3-.49-.04.03-.4-1.09-.38-.17.53-.38-.2.15-.53.53-1.07-1.24-.07-.91-.11-.95 2.07-.58-.68-.4-.17-.13-.78.2-.98.4-.43.29-.53.08-.58-1.02-.14.2-3.03.24.2 1.35.12.07-1.16.26.02.1-1.29-1.2-.16.18-.44-.5-.05-.29.17.03-.87.46.02.17-.23.04-.51-2.2-.24-.02.85-2.05-.28-.1-.16-1.76-.24-.08 1.24-.79-.08-.2.43-1.03-.01-.4.57-.47-.7-.36.03-.09 1.25-.1.31-.66-.08-1.16-.26-.2-.36-.5-.02-.25-1 .01-.53-3.09.38-3.63-.62-.07 1.04-1.04-.1.06-1.09-2.44-.26-.26-.1-.1-.42.08-1.56-.07-1.44.15-.1.24-3.86 3.46.41.83.12 3.24.68 3.67-.68 2.05.64 1.73.47 3.82-.35.96.14 6.24.93 3.52.1.18.1h1.58l1.95.07 3.97.8 3.4.53.12-2.14.57-7.99.35-5.1.35-4.7.25-2.65.38-4.57.2-2.26.49-5.98.48-5.71-.68-.18.28-3.83.37-5.48.15-2.82.07-.71.26-3.74.2-2.5.25-3.72-.18-.36-2.19.65-.76.25-1.14.2-.83.4-.43.16-.45-.13-.27-.28-.06-6.42-.1-3.69-.02-1.4h14.35l1-.02 3.24.3 6.2.5 1.48.14 5.5.48 4.2.35 5.12.45 3.82.33 3.82.31 3.67.3 3.78.3 14.7 1.23 2.33.22 2.14.17-.1 1.53-1.06 14.87-1.23 17.29-.69 8.88-.35 5.28-.58 7.44-1.07 13.08-.83 10.59-.81-.08-4.95-.37-11.76-.94-11.03-.88-7.91-.65-12.45-1.03-.25.7-.04.64-.14.26-.73.2-.58.53-.37.6-2.65 1.95-.92.26-.88.38-.49.75-.14 1.02.01.62-.58 1.04-.63.3-.17-.11-.64-.03-.42.75-1.5 1.15z"/>
    <path region="31" short-name="8" long-name="State Senate District 8" value="1" d="m82.7 775.25 4.57-.12 4.51.12 1.2.07.8-.02h2.46l.95.05h3l4.53.03.58-.03h4.83l3.79-.02.83.02 2.43-.07.39-.95.5-.36 1.34-.45 1.05.05 1.67.16 1.36.24 2.05.43 3.22.1.52.04 3.33-.02-.24 3.86-.15.1.07 1.44-.08 1.55.1.44.26.1 2.44.25-.06 1.09 1.04.1.07-1.04 3.63.62 3.09-.38v.53l.23 1 .5.02.22.35 1.15.27.66.08.1-.3.1-1.26.35-.03.46.7.41-.57 1.03.01.2-.43.79.08.08-1.24 1.76.24.1.16 2.05.28.01-.85 2.21.24-.04.51-.17.23-.46-.02-.03.87.29-.17.5.05-.18.44 1.2.16-.1 1.3-.26-.03-.07 1.16-1.35-.11-.24-.21-.2 3.03 1.02.14-.08.58-.3.53-.4.43-.2.98.13.78.42.17.57.68.95-2.07.91.11 1.24.07-.53 1.07-.15.53.38.2.17-.53 1.1.38-.03.4.48.03.15-.3.31-.2.4.17.56-.11-.02.57 1.09.08-.07 1.03.44.23-.31.55-.95-.1-.05.38-.41.13-.02.42 1.4.14-.2 2.69.43.03-.14 1.87.96.1-.1 1.15.83.08.05-.56 1.3.14-.06.8-.22-.02-.03.42 2.67.27 2.16.15.16-2.25-.17-.67.49-.51 1.46.16.07.28.88.03.16-.3.11-1.43-.17-.02.17-1.68-.16.01-.18-.83.21-.02.16-.95.39.17.22-.29-.35-.3.23-.39.6-.03-.06-1.7.35-.02-.01-.83-.35.05.39-1.2 1.43-.1.1-.25.07-1.4.4.01.01-1.12 1.53.01.01-.09 1.11.1v.17l1.47.1-.2 2.17.71.07-.06.71.3.03-.05.7-1.65-.14-.1 1.02-.66-.07-.04 1.15-.14.36-.28.16h-.47l-.03.77.15.33.73-.12.38-.5.35.32.3-.06-.26.4.06.3.5.2.2.23.23.7.27 1.17.4.77.41.3h.8l.65-.11.34.07 1-.27.45-.26.6-.47.41-.15.62.07.33.29.18.47.37.65.35.35.3.59.02.74-.18.27-.15.73-.73.62-.2.54-.26.37-.57.53-.26.61-.02 1.03-.47.42-.32.09-1.09 1.09-.24.47.31.93.5.6-.06.32-.67.3-.28.35-.25 1.12.01 1.48-.2 2.73-.7 6.1-.2 1.74-1.21 10.55-.24 1.94v.25l-.4 3.8-.35 3-.25 2.9-.24-.39-.84-.77-.2-.28-1.89-1.36-.89-.58-.77-.3-.66-.4-1.44-.53-.98-.4-1.25-.31-1.22-.16-.67-.18-1.63-.26h-.48l-.36.17-2.14-.49-.4.21-.88-.05-.75-.2-.56-.25-.64-.44-.35-.1-.86-.52 1.17-1.03.63-.5.88-.95.43-.53.53-.87v-.24l-.86-1.6-.37-.3-.24-.35.18-.28-.22-.35.12-.32-.06-.52.45-.07.08.35.87-1.33 1.23.68-.71 1.13.15.22.67-.6.36.12-.04.42.36-.15.46.2.73.07-.06.6.81.1.03-.54.27-.26h.53l.02.23.66.07.34.14-.07.86 1.22.14.07-.19-.97-1.5-.18-.24.84.06.11-.87-.2-.39-.4.1.12-.8.25-2.7-1.09-.08.15-.69-.92-.34-.11-.2-.4-.05-.32-.59-1.24-.11-.24.74-.68.06-.74-.22-.25-.25-.1-.5-.48.32.63.61-.34.38.39.34.46.1-.04.52.53.35-1.05 1.8-.8.18.04.15-1.48-.87.56-.84.66-.72-1.04-.8.62-.8 1.29-.88.19-.2.08-.86.28-.7.01-.82.27-.57.2-.19-.14-1.2-.49-.93.06-.78.12-.35.5-.09.36.3h.21l.27-.41.46.24v.25l.37.14.56-.02.38-.18 1.42-.98 1-.38.46-.11.4.06.56-.2.85.33 1.05.73.38.12 1.88.05.45.19.38-.45.08-1.17.39-.96.55-.22.98.04.51.12.47-.09.1-1.44-.2.15-.29-.25-1.3.58-.96.61h-.17l-.22.61-.53-.03-.36.39.14.15-.4.87-.37-.43h-1l-.32.15-.06-.42.16-.18.13-.67-1.72-.16-.1.2-.45.04-.46-.1-.27-.24h-.25l-.14-.72-.54-.35-.2-.4-.14-.62-.43-.04-.12-.68-.56.06.07-.45.17-.3.07-.75.15.02.1-.64-.15-.01.08-.67-.33-.06-.25 1.28-.27.36-.61-.07.01-.33-.33-.03.03-.5-.2-.27-.38-.04-.03.31-.6-.2-.38-.03-.02.25-.76-.07v-.15l-.85-.1-.16-.46-1.72-.08-.02.28-1.24-.14-.06.94-.47-.13-.44.08-.52-.11v-.17l-.6-.05-.33-.15.07-.9.72.01-.06-.61.57-.03.3-.35-.03-.31.41.03-.03.25.78.08.1.34 2.47.25.13.3.44-.33.13-.65-.42-.37-.05-.48-1.23-.12.04-.49.57.03.06-.55.67.07.08-1.04-1.78-.17-.2-.66.05-.95-1.11-.1-.03.37-1.22-.02-.06 1.22-.25.16-.7.1-.25-.2-1.7-.1.04-.68-2.91-.25.17-1.14.64-1.82-.9-.06.6-.76-1-.06.07-1.32.61.04.32-.2.08-.51.47-.84-.88-.04-.74.42-1.13-.07-2.26.02-.09 1.2-1.18-.14.13-1.11-.5-.33-.82-.15-.34-.22-.81-.06-.14 2.01-.06 1.77-.55.45.5.5-.08.77-.7-.05-2.55-.3-.6-.1-.13-.29h-.31l-.31.22-3.21-.11-.38-.37.2-.52.33.02-.05.72.26.03.06-.93h.79l.1-1.86-.65-.08.1-.81-.88-.08-.03.3-.57-.07-.06.95-1.06-.12-.05.85-.82-.1.01.16-1.75-.11-.1 1.52-1.35-.08-.54-.19-.59-.6-.42-.05-.04.73-1.34-.13v1.17l-.52.03v.42l.46.01-.23 3.83 1.15.07.45-.83h.33l-.21.5-.51.48-.14.78-.54.56-.07.34-.63-.04-.2 2.77-.7-.05-.02.15-1.04-.07v-.18l-1-.05-.03.53-.73-.05-.3.27-.11 1.8-.27.2-.54-.01-.14.51-.03.72-.98-.04-.02.35-1.77-.15-.07.79-.21-.11-.2.4.34.15-.07.7.72.1.13.58-.47-.04-.02.46.3.2.26-.08-.02.72.2.35-.05.61.69.06v-.15l.75.01.1.73.9.03-.06.84-.23.16-.06 1.05h.19l-.03.63-.45.06.03-.56-1.38-.03.05.79h.83l-.05.6.22.24.65.22-.15 1.71 1.78.01 1.27.12-.27.17-.46-.05-.07.72-.3-.03-.01.33.3.03-.05.64.45.16.08-.58.42-.12.37-.35.09-.85 1.9.19-.06 1.4-.15 2.23-1.15-.08-.06 1.02-.2-.24-.49.36-2.03.94-.04-.56-1.15.15-.05.28-1.38.13-.37.14.03-1h-.54l-.48.72-.27.27-.04.26-.42-.08-.97-.48-.38-.53-.64-1.17-.24-.15-.77-.87-.92-.74-.93-.44-1.8-.66-.94-.1-.82-.16-.78-.29-.3-.3-.88-.23-.46-1.37.48-.32.06-.25-.4-1.15-1.01.7-.15-.64-.19-.41-.13-.6.16-.8-.55.21-.27-.26-.6-.1-.24-.5-.53-.35-.26-.44-.32.07v-.49l-.27-.09-.18-.44-.6-.2-.36.35-.68.28-.57-.84-.55-.66-1.22-1.12-.63-.47-.9-.46-.96-.39-1.41-.4h-1.1l-.66.15-.57.3-.57.41-.71.65-1.04 1.1-.45.55-1.53 2.57-1.17 1.77-.63.6-.62.36-.62.26-1.9.56-1.31.35-.36.57-.4.17-1.08.21.02-6.3v-3.73l-.04-.9v-1.85l.09-.5-.03-3-.01-5.82-.02-1.93v-3.58l-.01-3.65.06-3.38-.04-.14.03-4.71.05-1.75.07-7.25z"/>
    <path region="32" short-name="9" long-name="State Senate District 9" value="1" d="m159.55 838.67-.53-.3.02-.4-.85-1.02-.42-2.02-.18-1.76.06-1.04-.16-.75.09-.77-.34-.69.1-1.4.23-.53-.27-1.44-.43-1.03-.65-1.2-.6-.89-.73-.83-.97-.77-1.2-.54-.72-.13-.62-.02-1.17.13-.8.38-.92.6-.31.28-1.24 1.43-.52.87-.54 1.08-.6.64-1.01.86-.76.43-.8.33-1.58.34-.87.08-.73-.14-1.1-.72-.85-.5-.76-.37-.65-.19-.42-.03-.9.11-.6.32-.96 1.1-.52.86-.51.65-1.01.98-.76.5-.63.2-1.6.38-1.5.42-.83.3-.79.55-.59.2-1 .1-.93-.04-.88.04-.92-.22-1.36-.55-.43-.05-.79-.85-.46-.36-.74-.74-.6-.8-.77-.86-.69-.59-1.04-.6-1.34-.5-.5-.03-1 .07-1.4-.29-1-.46-.74-.64-.63-1.1-.46-.57-.76-1.22-1.24-1.92-.5-.66-.65-1.11-.19-.22.68-.28.37-.34.59.2.18.43.27.1v.48l.32-.07.26.44.53.35.25.5.59.1.27.26.55-.22-.16.82.13.59.2.4.14.65 1-.7.4 1.15-.05.25-.49.32.47 1.37.88.23.3.3.77.3.82.15.94.1 1.81.66.93.44.92.74.77.87.24.15.64 1.17.38.53.97.48.42.08.04-.26.27-.27.48-.71h.54l-.03 1 .37-.15 1.38-.13.05-.28 1.15-.15.04.56 2.03-.94.48-.36.2.24.07-1.02 1.15.08.15-2.23.06-1.4-1.9-.18-.1.84-.36.35-.42.12-.09.58-.44-.16.05-.64-.3-.03.01-.33.3.03.07-.72.46.05.27-.17-1.27-.12h-1.78l.14-1.72-.64-.22-.22-.24.05-.6h-.83l-.05-.79 1.38.03-.03.56.45-.06.03-.62h-.19l.06-1.06.23-.16.07-.84-.9-.03-.11-.73-.75-.01v.15l-.69-.06.05-.61-.2-.35.02-.72-.26.08-.3-.2.02-.46.47.04-.13-.59-.72-.08.07-.7-.34-.16.2-.4.21.1.06-.78 1.78.15.02-.35.98.04.03-.72.14-.51h.54l.27-.18.11-1.81.3-.27.73.05.03-.53 1 .05v.18l1.04.07.02-.15.7.05.2-2.77.63.04.07-.34.54-.56.14-.78.5-.49.22-.48-.33-.01-.45.83-1.15-.07.23-3.83h-.46v-.43l.51-.03v-1.17l1.35.13.04-.73.42.05.6.6.53.2 1.36.08.09-1.53 1.75.1v-.16l.8.11.06-.85 1.06.12.05-.95.58.07.03-.3.88.08-.1.8.65.1-.1 1.85h-.79l-.06.93-.26-.02.05-.73-.33-.02-.2.52.38.37 3.2.11.32-.23.3.01.13.3.61.09 2.54.3.7.06.08-.77-.5-.51.56-.45.06-1.77.14-2 .81.05.34.22.82.15.5.33-.13 1.11 1.18.14.1-1.2 2.25-.02 1.13.07.74-.42.88.04-.47.84-.08.52-.32.19-.61-.04-.08 1.32 1 .06-.6.76.91.06-.64 1.83-.17 1.13 2.91.25-.05.69 1.7.09.26.2.7-.1.25-.16.05-1.22 1.23.02.03-.37 1.11.1-.05.95.2.66 1.77.17-.07 1.04-.67-.06-.06.54-.58-.03-.03.49 1.23.12.05.48.42.37-.13.65-.44.33-.13-.3-2.47-.25-.1-.34-.78-.08.03-.25-.41-.03.02.31-.29.35-.57.03.06.62-.72-.03-.08.9.34.16.6.05v.17l.52.1.44-.07.47.13.06-.94 1.24.14.02-.28 1.72.08.16.47.86.1-.01.14.76.07.02-.25.38.03.6.2.03-.3.39.03.2.27-.05.5.34.03-.01.33.6.07.27-.36.26-1.28.33.06-.09.67.16.01-.1.64-.15-.02-.07.75-.17.3-.07.45.56-.06.12.68.43.04.15.63.19.4.54.34.14.71h.25l.27.25.46.1.45-.04.1-.2 1.72.16-.13.67-.16.18.06.42.33-.15h.99l.36.43.4-.87-.13-.15.36-.39.53.03.22-.61h.17l.96-.61 1.3-.58.3.25.19-.15-.1 1.44-.47.1-.52-.13-.97-.04-.55.22-.39.96-.08 1.17-.38.45-.45-.2-1.88-.04-.38-.12-1.05-.73-.85-.32-.56.2-.4-.07-.45.11-1.01.38-1.42.98-.38.18-.56.02-.36-.14-.01-.25-.46-.24-.27.4-.21.02-.36-.31-.5.1-.12.34-.06.78.49.92.14 1.21-.2.2-.27.56v.83l-.29.69-.08.87-.2.2-1.28.88-.62.8 1.04.79-.66.72-.57.84 1.5.87-.05-.15.8-.18 1.05-1.8-.53-.35.04-.52-.47-.1-.38-.34.34-.38-.63-.6.48-.34.1.5.25.26.74.22.68-.06.24-.74 1.24.11.32.59.4.05.1.2.93.34-.15.69 1.09.07-.25 2.7-.13.8.41-.09.2.39-.11.87-.84-.06.18.23.97 1.51-.07.2-1.22-.15.07-.86-.35-.14-.65-.07-.02-.22h-.53l-.27.25-.03.53-.8-.08.05-.6-.73-.09-.46-.19-.36.15.04-.42-.36-.12-.67.6-.15-.22.71-1.13-1.23-.68-.87 1.33-.08-.35-.45.07.06.52-.12.32.22.35-.18.28.24.35.37.3.87 1.6v.24l-.54.87-.43.53-.89.95-.62.5z"/>
  </g>
</svg>