<svg default-mode="split" auto-border-stroke-width="1" auto-border-stroke-width-limit=".5" original-source='["https://www2.census.gov/geo/tiger/GENZ2022/shp/cb_2022_us_sldl_500k.zip"]' candidates="[{&quot;id&quot;:&quot;0&quot;, &quot;name&quot;:&quot;Democrats&quot;, &quot;margins&quot;: [{ &quot;color&quot;: &quot;#1C408C&quot; }, { &quot;color&quot;: &quot;#577CCC&quot; }, { &quot;color&quot;: &quot;#8AAFFF&quot; }, { &quot;color&quot;: &quot;#949BB3&quot; }]},{&quot;id&quot;:&quot;1&quot;, &quot;name&quot;:&quot;Republicans&quot;, &quot;margins&quot;: [{ &quot;color&quot;: &quot;#BF1D29&quot; }, { &quot;color&quot;: &quot;#FF5865&quot; }, { &quot;color&quot;: &quot;#FF8B98&quot; }, { &quot;color&quot;: &quot;#CF8980&quot; }]}]" version="1.1" xmlns="http://www.w3.org/2000/svg" viewBox="0 0 524.07 1000">
  <g regions="y" transform="translate(-237.97)">
    <path region="0" short-name="General Assembly District 25" long-name="General Assembly District 25" value="2" d="m613.07 64.46 7.07 4.78 13.5 8.14 6.93 4.02-.53 2.4-3.23 3.86-2.37 1.73-1.16 2.53-13.6 32.08-5.19 19.78 2.35-.14 1.31 1.36.33 2.77 3.01-.76 3.83 1.9-.56 1.02-.37 4.4.48 14.9-3.57 2.47-7.7-4.82-11.03-.6-.16 2.34-.98.97 1.78 7.66-.32 2.5 1.75.46 1 2.79-3.59 3.8-1.11-3.33-5.31 3.17-1.11 1.43-.57 2.58-2.55-1.01-1.41-1.59.72-.86-8.6-5.85 4.48-4.51-3.54.19-2.25 2.66-1.6.11-1.64-.92-1.63 2.66-2.01 1.05.02 1.45-1.55 2.5-2.11 1.3 2.06 4.34-.18.86-4.91 2.7-3.89 4.17-2.73 19.02 1.24.57 4.45-.5 2.37.5 1.97 1.04 1.38 1.53 7.14 2.07.94 2.55 1.36 1.67 2.46 1.74 4.2.17 1.33-.98 2.82 2.02-.26 5.08-2.04 5.7 3.53 2.52 3.17-.5 6.58 1.43-.89 1.45 2.16 2.57-.82 1.98 1.58 1.37-3.19 4.19-1.02.55-7.73-2.51-1.02-1.69-2.1-1.9 1.12-4.74-2.24-2.32-2.82 7.7-.86 3.37 1.8 11.46-9.57 4.08-10.65 4.07-.04-1.37-1.53-2.18-2.29-1.25.57-1.68-2.22-2.62.46-2.83-3.2-3.03-2.8.03.37-1.36-.45-4.17-1.11-3.68-.95-.86-4.77 1.27-27.2 8.18-.6-6.55.76-2.39 1.1-.96 5-5.77-.16-2.11-3.2-2.2.72-2.65-.62-1.96 1.85-1.87 3.61-1.16.33-2.94 1.73-4.04-2.16-2.63.83-2.3-5.16-2.22.8-2.38 2.44-3.8.86-3 3.48-5.06 1.06-2.2 6.42-10.66-.44-1.6-2.36-5.13-5.29-9.4.74 3.45-2.46.64-2.93 5.55-.2 2.6 1.66 5.05-.33 1.4-1.75-.07-2.56.94-2.97.18.5-3.99 2.25 1.1 2.36-5-3-.25.86-2.06 2.37-.34-4.47-3.7.72-1.9 3.14-1.15 1.62-3.74.43-3.34-1.98-3.64.58-2.34 2.24-3.63 8.1-10.16 18.53-20.83 5.8-6.82 8.22-8.98 6.56-7.41 4.9-6.33 14.33-17.44 9.83-10.56z"/>
    <path region="1" short-name="General Assembly District 23" long-name="General Assembly District 23" value="2" d="m353.32 267.74 2.04-1.93.25-2.53.97-1.47-1.03-3.05-3.01-3.41-.38-2.56 1.5-1.74 2.75-1.46 1.75-2.03.58-3.61 1.27-2 2.5-.27 4.5 1.5 4.7.42.93-.91 2.63-4.49 4.6-1.8 2.42-3.62.16-3.24 3.07-3.46 2.08-3.56-.5-2.34-2.97-2.91-.83-1.61.57-2.55 1.51-.87 4.5-.29 1.84 1.04 2.3-.86-.13-2.49 1.59-2.06 2.3-1.52.23-1.68-.9-2.32-1.56-1.67-2.14-3.34-2.66-2.7-.65-1.47-.04-4.72-1-2.85-5.11-4.27-3.15-5.06-.2-1.4-1.74-3.52-1.91-2.05-.92-3.96.14-2.57-2.78-.12-1.48-.83-.55-2.46.77-1.38.79-4.55 2.25-2.1 4.03-2.52.47-.8 5.19-2.43 3.63-2.88 1.92-.12 10.45-6.08 1.82-1.89 2.8-1.38.22-2.88 2.93-4.31 1.25-4.06 2.12-.44 2.13-2.67 3.23-1.82 2.12-.36 3.65-2.56.82-1.04.4-2.73 8.75 10.5 16.57 20.55 8.3 10.13 11.83 14.8-18.3 9.25-14.93 13.08.96 3.57 3.46 16.6 18.47 9.12.9-.75 3.06-5.92 1.27-3.05 3.35-3.88 3.07 1.72.73-1.57-.14-2.98.7-1.6 1.83-1.6.85 3.01-.75 2.74 1.98 2.4-.54 1.1-1.74.36-.22 2.39-1.31 1.35-2.12.65-.94 2.31 1.27 1.29.43 1.69-2.76 1.93-1.2 1.37.32 1.45-1.45 1.4-2.58 4.48-1.28.24-1.07 2.76-1.45-.01-1.22 1.15-1.77-.72-.81 2.63-2.05.88-2.24 1.66-1.12-.3-1.78 1.54 14.4 12.11.32 1.07 4.9 4.96 1.12.7 2.15-.2 2.78.72 3.21-.44 1.37.77 7.14 1.78 5.69 2.05 4.9 3.94 3.67.87 14.54-4.4.04 4.57.75 2.7.44 6.2 2.38 1.25 5.47-.73 1.99 4.94 2.38.95 3.7 13.07.3.61 4.67 3.96 7.65 7.46 6.8 4.65 2.83 2.22 2.97.46 3-.66 1.13 4.27 5.03 3.81 1.12 1.68-2.7 3.24-1.63 2.5.44 2.6-.69 1.02-2.79.31-3.74 2.88-2.36.98-1.98 1.92-3.18 1.3-2.28.35-.59 1.67-2.78 3.63-2.87.45-3.4-.2.51-1.19 2.24-.9-1.48-4.03 1.43-.35v-3.7l.64-2.37-1.55-.51-5.29.63-1.1-2.08-2-.89-2.18-.09-2.74 1.82-2.54 3.43-7.36 1.81-3.3-3.7.4-1.45 3.31-2.32-1.22-2.58-1.14-5.62 1.44-2.17 1.09-3.27 1.86-1.66.78-1.7-1.15-3.98-2.8-2.64-1.08-3.26-3.54-.97-1.99 1.54.4 2.77-1.87.4-1.97-1.43-.54-2.3-4.18-.75-.35-1.59 1.78-2.15-.61-2.25-5.67-3.27-6.66 12.12-1.2-1.7 1.16-2.37 1.55-1.79-.62-1.96-1.62-1.39.25-2.11 1.04-2.26-1.51-1.7-.33-1.8-1.22-.74-1.71.77-3.52 5.1-12.2-5.77-1.5-4.46-2.36-1.98-1.36-3.71-15 4.96-6.38 1.7-.3 2.72-1.7-.34-1.76 1.6.65 2.9-.37 3.27 1.65-.24.14 1.69-1.3 1.1-.52 3.57-2.33.26.26 1.84 3.75.34-.13 2.57 2.4-.06.2 1.13-1.65 2.53.23 1.91 1.98.22.74 1.81.06 3.71 4.45 1.5-.34 2.05 1.2 2.34.53 2.38 2.49-.5L434 349.1l-5.44 6.7-11.67-23.46-6.78 3.89-11.73 5.95-1.37-.68-3.9.51-.7-2.36-3.1-2.52-1.71-2.1-5.16-5.98-5.34-2.24-6.12-1.04-3.35 1.07-3.48 3.26-1.4.49-3.9-.37-3.6-1.83-2.3-2.84-.2-2.35 1.42-3.5-.67-5.1-1.42-2.44-1.58-3.57 1.24-.89 2.26-.26.67-1.94-.67-4.67-1.48-2.98-1.6-1.58 1.2-3.41 1.83-2.83 2.55-1.67 1.65-2.75-.03-2.13-2.18-.93-1.9.25-2-.8-1.26-1.74-.94-2.5 1.63-5.72z"/>
    <path region="2" short-name="General Assembly District 11" long-name="General Assembly District 11" value="2" d="m637.34 442.39 1.15.42 5.47-1.23 2.22.18 8.2 4.05 2.82 1.16 1.3-.07.53-7.83-.86-10.74.95-2.14-1.34-2.72 3.74-1.74 3.49-.85 2.84.51.23 1.97 3.99 2.58 1.19-.43.83 2.42 1.57.7 4.23.22 3.16 1.24 1.16-.4 2.89 1.55 1 1.23 3.4.26.28-1.35 2.08-.26v-1.33l4.73-.72-.07-2.99 2.83-.27-1.07-2.43 2.26.27-.38-1.57 2.35-5.47 2.95-.25 4.28-4.15 4.4-2.33 1.93-1.36 4.63 6.28-2.46 1.97-7.66 3.18-.31 1.36-3.64 2.65 5.23 3.5 1.29 1.57.65 2.3-3.21 2.23 5.84 6.71-.22 2.05-1.66.95 1.17 2.43 1.71.86.55 4.09.53.58 2.87-.9 4.39-.84.39-2.17.03-3.98-1.86-1.89-.4-2.32-1.11-1.16 2.04-2.8 2.67-2.39.4-2.26-.38-3.05 3.71 1.18.91 1.4 2.34.56-.74 9.4-1.33 8.24-3.65 17.21-4.64 17.34-3.27.12-.9-.9-1.38 5.02-2.63-.87-.75 2.15-1.66.27-4.8-2.72-.96-2.12-2.6-1.1-.25-.96-4.02-2.3-1.18.16-2.84-1.17-2.25-2.37-2.38-.38-3.62-2.25-1.27-1.42-.34-1.93.78-2.9.13-3.43-.5-3.12-26.18-3.86-5.05-.95-4.56 6.96L647.2 473l-3.54 6.42 1.17 14.35 1.57.8-45.7-2.22 13.1-12 10.19-8.57 4.48-12.26 1.04-4.2 4.46-7.68z"/>
    <path region="3" short-name="General Assembly District 13" long-name="General Assembly District 13" value="2" d="m658.67 377.02 4 1.85 1.2 3.36 3.79-.7 1.92-2.66.7-2.28 1.54-2.09 1.23.28 3.69 3.74 2.15.68 4.88-1.57 1.3-1.98 1.02-.1 7.58 4.95 7.29 2.1 9.15 6.48 3.5 1.57 13.06 3.23 1.75-.19 1.68-3.27 1.2-9.69-.95-1.76-2.43-.87.06-1.01-1.22-5.34-1.77-1.8-1.86-.63-.58-1.73.75-1.1 1.91-.32 2.68.75 5.17 9.05.77 4.96.5 9.27 1.8 5.77.68 8.81.73 12.58-1.03 13.25-2.34-.55-.9-1.41-3.72-1.18.38 3.05-.4 2.26-2.67 2.4-2.04 2.78 1.1 1.16.4 2.33 1.87 1.89-.03 3.98-.4 2.17-4.38.84-2.87.9-.53-.58-.55-4.1-1.71-.85-1.17-2.44 1.66-.94.22-2.05-5.84-6.71 3.21-2.23-.65-2.3-1.3-1.57-5.22-3.5 3.63-2.65.32-1.36 7.66-3.18 2.46-1.97-4.63-6.28-1.93 1.36-4.4 2.33-4.28 4.15-2.95.25-2.35 5.47.38 1.57-2.26-.27 1.07 2.43-2.83.27.07 2.99-4.73.72v1.33l-2.08.25-.28 1.36-3.4-.26-1-1.23-2.89-1.55-1.16.4-3.16-1.25-4.23-.2-1.58-.7-.82-2.43-1.19.43-4-2.58-.22-1.97-2.84-.51-3.5.85-3.73 1.74 1.34 2.72-.95 2.14.86 10.74-.53 7.83-1.3.07-2.83-1.16-8.2-4.05-2.21-.18-5.47 1.23-1.15-.42 2.45-8.07-1.3-.9-9.84-9.12-3-2.95 21.08-21.5 3.94-4.11 2.49 1-1.6 2.06-.06 2.54 3.85.96-.17-2.08 1.77-1.4-1.53-3.34 2.77-2.75.7-3.39-.51-1.6-4.45-1.34-.6 1.8-1.78-.76-.75-2 3.5-4.93 1.77-.93 1.35.42z"/>
    <path region="4" short-name="General Assembly District 14" long-name="General Assembly District 14" value="2" d="m530.36 421.96.61-1.19 1.22-7.94 6.81 1.96 4.18.98 2.73.16 2.37-2.33 2.32.63 1.65 1.27 2.93.46-1.81 4.47 1.25 1.34 1.37-.19-.16 3.15 3.45-.37 1.53.93 8.6 2.74 1.53-4.7 5.26.48 8.33-13.62 1.96-2.45 4.15 2.6 3.23 1.9-.13-2.24 2.59-1.62 1.67.54 2.38-2.6 1.33.05 1.67-1.93 1.45 1.43 3.8-.46 1.68 3.98 1.51.09 1.01 4.03.07 3.57-1.18 1.73-.69 2.63.82 4.72 3.22 1.06 2.68 2.23-7.88 8.07-5.25 7.03.27 3.6-21.28 11.77-.71-.41-6.83-.5-.22 1.86 1.32 2.44-19.44 10.8-1.68 3.7-2.77 3.42-1.47 3.66-2.63 1.98-1.22-.55-2.94.93-3.16 2.21-1.07-2.77-.8-.26-4.7 1.81 1.66 4.27 1.64 2.7 5.11 11.2-2.43.2-2.44-.35-3.84-1.31-2.47-.37.06-2.44-3.12-.2-1.7-2.16-2.94-.5-1.3-1.4-3-1.32-.16-1.13-2-.75-2.81-.22.94-1.11-3.2-3.28-1.91.44-1.79-2.42-3.79.35-1.42 2.76 1.38 1.38.67 4.14-2.09 2.35-.3 1.41-2.6.96-.05-4.23-3.62-5.73-1.07-1.27-4.65-2.44 1.85-.89-1.53-2.27-.54-2.95 5.4-1 .93-1.07-1.53-2.6 2.41-2.87.3-1.7-3.36-4.42.53-1.91 1.9-2.5.14-1.5 3.84-1.45 1.58-5.86 1.68-.76.64-1.38 3-.29 2.6.66 1.17-1.03 4.72.27 1.78 1.01 4.6 10.52 13.29-4.7 2.65 2.6 10.04-13.06-.32-3.4-1.26-1.2-.32-4.63-1.92-1.2-1.43-1.81v-1.53l-2.98-1.64-1.33.54-1.75-2.82-4.58-1.5-1.5-.12-.58-1.45.38-2.31-2.43-2.35z"/>
    <path region="5" short-name="General Assembly District 17" long-name="General Assembly District 17" value="2" d="m543.24 345.53 2.78-3.63.6-1.66 2.27-.35 3.18-1.3 1.98-1.93 2.36-.98 3.74-2.88 2.8-.3 2.15 1.6 2.7-1.92 1.27.02 3.12-1.9 3.45-2.76 2.15-.99-.56-1.76 3.65-3.1.24 2 2.89-.34 2.32-3.2-1.7-2.06.83-.71 5.68-.63-1.21 1.4.88 9.22.73 4.23-1.21.91 1.65 1.63 2.21 3.74 5.91 1.1-1.66 5.7-3.45 1.66-4.82 4.52-1.92 3.9 1.53 1.23 1.65 2.6.56 2.34 1.89 1.13 2.34-.36 1.92-1.75 5.13.52 1.9 2.75-2.9 2.27-1.79-.3-1.27-1.45-1.34 3.18-1.26 1.28.06 2.36-2.21.4-3 3.24-2.84-1.87-1.44 1.82.72 3.26-1.87.55.13 2.18-2.41 1.85-2.09-.03-.69 2.2-2.61 2.24-.03 1.98-2.45 1.45-1.86 1.29-1.37-.77-1.99 1.47-3.65 1.4-.35-.64 2.19-4.28-2.89-1.82.33-1.1-4.87-4-1.47 1.25-5.64 3.3-6.94 3.32-2.52 1.5-.57 1.27.06 5.04-.65 3.83-1.25.87-1.26 2.6-2.12 2.07-3.27 2.05-1.73-1.9-2.36-3.53-.61-3.91-1.86-1.39-1.06-3.52 1.6-3.02 1.38-.83 1.44-3.65 1.91-1.33.55-1.5-.82-1.6 1.28-2.04 3.82-2 4.4-5.13 3.44-2.45 1.31-1.56-1.05-1.59.13-1.61-1.47-4.6-2.16-5.17.1-.77 2.5-1.29.65-3.1-1.02-1.1-2.01-.65-.93-1.4z"/>
    <path region="6" short-name="General Assembly District 40" long-name="General Assembly District 40" value="2" d="m644.7 143.64.8.8 4.97 8.29.77-2.63 14.34-19.54 6.18 4.32 1.5 1.78 1.61.57.54 1.66 1.48 1.36 2.87-1.62.23 1.75 2.19-.03-.5 3.54-.64 1.13 4.34 1.16-2.64 2.45-3.14.16 1.48 3.55-.89 1.28 1.23 1.14 1.98-.04.83 2.19 1.23.09 1.46-1.65 1.52-3.6-1.6-.44.65-4.57 3.98.21 1.65 4.14 7.61 1.66 3.12 1.42.19 4.23-3.96-.9-.6.47.13 2.85-1.36 1.23-.08 2.34.64 1.91-1.62 1.85-1.83-1.5-.16-2.37-1.1-1.25-3.53-2.25-4.68.03-1.6 2.65-1.06 4.29-1.15 6-1.85 1.53-2.38.2-1.7 1.46-1.43-3.32.75-1.91.4-6.57-1.05-6.15-12.83-1.3 4.38 4.3.7 14.32-1.36 1.65-.56 3.39-1.34 2.68 3.3 3.88 6.76 2.67-.12.73-1.42 3.28-.07 1.5-2.21 4.65-2.33 3.41-1.04 3.81-2.57-.65-.64 3.15-2.6 4.37-.24 1.49-2.21 4.05-1.74 1.65-.1 2.38-1 2.33-5.84-4.16-4.38-.3-1.32-.72-2.35 5.09-1.1-1.4-1.58-.52-1.7-2.41-2.52-1.92-1 1.15-1.31-1.29-7.34-3.58.32-4.75 1.16-3.43 1.63-.1-.93-2.33-3.93-1.6-1.14-.9.12-2.06-.73-1.9.6-3.38-.5-.51.7-4.11 1.04-2.78 2 .05 2.93-.94v1.81l1.96-.9 2.95.45 3.34-.61.04 2.16 1.14.47 1.82-.74.8 1.4 2.63.24.34-2.45-.82-1.37 2.15-.51-1.57-3.21-3.45-.6-2.08-4.97 1.3-1.07 1.42-3.47.97-6.4-.96-1.13.38-3.1-.8-2.53.2-5.2.58-.78-.47-2.52 1.37-1.01-.29-3.68z"/>
    <path region="7" short-name="General Assembly District 02" long-name="General Assembly District 02" value="2" d="m468.78 742.74 14.33-16.12 16.09 14.45 17.31 15.73 2.53-2.79 2-.06 7.25 6.39 19.6-21.9 14.43 1.75 2.19-.95 1.47-1.6 1.51 1.72 1.99.12 3.07 2.92 1.34 2.82 2.97-1.14 2.14 2.83 1.2-.22 1.29-1.5 1.76-.17.81 3.06h1.93l.26-3.4 2.22-.68.63 1.56-.68 3.43 1.52 1.73 2.03.06.06-1.88-1.3-1.93 1.4-1.77 1.91 1.01 2.52-1.78.77.11.37 3.04 2.1 1.1 2.48 3.75 6.57 16.07 6.24-1.43 2.12-1.44 4.92-.53 3.84.22.96 2.63 3.52 6.65-.3 4.04-1.92 3.73-2.78 4.14.86 2.48-1.02 3.5-6 7.84-6.1 7.5-6.8 6.4-5.34 5.5-.84 3.14-1.4 1.73-3.44 2.2-4.79 1.13-6.62 3.1-10.14 6.2-7.35 4.97-6.43 5.69-4.01 1-.05-.26-2.53 1.2-3.54-.11-1.64-1.04-3.27-2.94-2.54-.2-8.25 6.44-2.08.44-2.57-1.1-2.3-.35-1.16-2.52-4.02-2.11.98-3.94-2.64-1.17-.94-1.52-2.67 1.18-.04-2.16-.72-.95-1.65.62-1.53-1.15-2.51-.1-1.73-.69-.65-2 .37-2.05-2.86-2.26-2.39-5.36.62-2.18-2.22-1.56.72-2.27-1.3-4.58.43-1.9 1.25-1.37.36-5.78-.37-1.65 1.67-4.63.03-1.04-2.54-2.78.21-1.69-1.01-2 .02-1.5-35.88 8.84-9.14-36.44-1-4.12z"/>
    <path region="8" short-name="General Assembly District 07" long-name="General Assembly District 07" value="2" d="m402.93 557.16 7.23-2.4 1.15-1.31 6.2-5.51 4.77-4.48 2.14-1.86 10.8-6.62 3.68-1.07 3.7.5 10.85-4.3 2.49-.53 2.18-1.22 1.64-3.44 5.22-3.14.91-1.24.63-3.31 2.17-4.98 1.16-1.14 2.17-.32 4.73 1.98 3.74.98 2.08-.16 3.97-3.43 3.34-2.01 1.8-.41 2.75.25 1.22-.44 5.09-4.5.7-1.6 2.6-.97.3-1.41 2.1-2.35-.68-4.14-1.38-1.38 1.42-2.76 3.8-.35 1.78 2.42 1.9-.44 3.2 3.28-.93 1.11-1.5 1.45-.11 4.5.77 6.6-.03 4.66-3.4.5-2.73 2.8-4.36 1.22-3.04.44-6.02-5.63-2.16 1.88-3.07.55-1.1-.3-2.32 3.32 2.08.93-.22 2.4 1.19 1.75 1.83 1.51-1.59 1.37-4.46 12.5-1.92-.87-2.45.88-.82-1.15-1.9 1.6-1.54-2.11-.56-2-3.3 1.8 1.22.96-.85 2.4.95 3.95 3.63 2.75-.45 1.41-1.73.98-5.38.8-1.02 4.79-5.73-2.58-4.79-.53-1.82 5.92-.24 2.4-1.01 1.38-1.45 4.51 1.4.67 2.11-.18 2.54 1.66.41 4.15-1.32.54-1.26 2.1.95 1.52-1.68 4.04-.06 17.47-29.8 2.25-1.78-2.43-3.82-.56-2.81-2.34 5.42-4.38-.6-3.1-2.02-3.05-2.41-.24-1.38-2.55-2.26-1.55-3.47-3.88-4.36 2.3 1-1.2.7-4.1-.35-2.06-1.08-1.48-4.38-2.04-.92-.8-3.98.73-.48 1.16-3.34-.15.6-2.37 1.48-2.95 1.99-2.2z"/>
    <path region="9" short-name="General Assembly District 08" long-name="General Assembly District 08" value="2" d="m427.44 598.42 29.8-2.25.06-17.47 1.68-4.04-.95-1.51 1.26-2.1 1.32-.55-.4-4.15-2.55-1.66-2.12.18-1.39-.67 1.45-4.5 1-1.38.25-2.4 1.82-5.93 4.79.53 5.73 2.58 1.02-4.8 5.37-.79 1.74-.98.45-1.4-3.63-2.76-.95-3.96.85-2.39-1.22-.96 3.3-1.8.56 2 1.55 2.12 1.89-1.6.82 1.14 2.45-.88 1.92.86 4.46-12.49 1.59-1.37-1.83-1.5-1.2-1.76.23-2.4-2.08-.93 2.32-3.32 1.1.3 3.07-.55 2.16-1.88 6.02 5.63 3.04-.43 4.36-1.23 2.74-2.8 3.39-.5.03-4.67-.77-6.6.1-4.49 1.5-1.45 2.83.22 1.99.75.17 1.13 2.98 1.32 1.3 1.4 2.94.5 1.71 2.17 3.12.19-.06 2.44 2.47.37 3.84 1.3 2.44.35-2.31 5.14-2.74 7.47-.14 2.93-1.5 10.78-.35 5.69-1.98 6.21-1.11 2.15 7.66-.43 1.3.94 3.5-.51 2.97-2.31 1.3-1.85 1.88.37 2.7-.34 1.63-.75 3.46-.25 1.17-2.14 3.72 8.49 6.9 18.64 3 7.46 8.37 20.78 11.34 27.62 1.51 4 12.5 29.54-.2 59.81-.02 12.6-.6.67-1.67 5.33-.02 1.52-1 2.26-1.36 1.09-3.4-.36-.98 1.08 1.48 2.8-.95 1.51-.77-.11-2.52 1.78-1.91-1-1.4 1.76 1.3 1.93-.06 1.88-2.03-.06-1.52-1.73.68-3.43-.63-1.56-2.22.68-.26 3.4h-1.93l-.81-3.06-1.77.17-1.28 1.5-1.2.22-2.15-2.83-2.96 1.14-1.34-2.82-3.07-2.92-1.99-.12-1.5-1.72-1.48 1.6-2.19.95-14.44-1.74-19.6 21.89-7.24-6.39-2 .06-2.53 2.8-17.31-15.74-16.09-14.45-14.33 16.12-18.4-16.53 20.06-22.47 26.57-29.7-6.16-5.09-3.33-1.78-1.8-1.58-1.52-3.01-1.35-.33-1.24-2.88-1.75-2.32-5.08-4.98-3.5-1.05-.45-.81-7.49-.79-3.4 1.17-4.86 1.12-2.11 1.18-4.27-.21-1.63-.6-1.17-2.56-1.17-.56-1.87-7.65-2.23-10.08-4.83-21.14-5.93-5.08-.92-3.17z"/>
    <path region="10" short-name="General Assembly District 16" long-name="General Assembly District 16" value="2" d="m434 349.09 18.34-24.86-2.5.49-.52-2.38-1.2-2.34.34-2.04-4.45-1.5-.06-3.72-.74-1.81-1.98-.22-.23-1.91 1.65-2.53-.2-1.13-2.4.06.13-2.57-3.75-.34-.26-1.84 2.33-.26.53-3.58 1.3-1.1-.15-1.68-1.65.24.37-3.26-.65-2.91 1.76-1.6 1.7.34.3-2.73 6.39-1.69 14.99-4.96 1.36 3.7 2.36 2 1.5 4.45 12.2 5.78 3.52-5.11 1.71-.77 1.22.74.33 1.8 1.5 1.7-1.03 2.26-.25 2.11 1.62 1.39.62 1.96-1.55 1.8-1.17 2.37 1.21 1.7L495.2 293l5.67 3.27.6 2.25-1.77 2.15.35 1.59 4.18.74.54 2.31 1.97 1.43 1.86-.4-.39-2.77 1.99-1.54 3.54.97 1.08 3.26 2.8 2.64 1.15 3.98-.78 1.7-1.86 1.66-1.09 3.27-1.44 2.17 1.14 5.62 1.22 2.58-3.3 2.32-.42 1.45 3.3 3.7 7.37-1.8 2.54-3.44 2.74-1.82 2.18.1 2 .88 1.1 2.08 5.3-.63 1.54.51-.63 2.37v3.7l-1.44.35 1.48 4.03-2.24.9-.52 1.18 3.4.2 2.88-.44-.02 2.31.93 1.4 2.01.66 1.02 1.08-.65 3.11-2.5 1.29-.1.77 2.16 5.16 1.47 4.6-.13 1.62 1.05 1.6-1.31 1.55-3.45 2.45-4.39 5.13-3.82 2-1.28 2.04.82 1.6-.55 1.5-1.9 1.33-1.45 3.65-1.38.83-1.6 3.02 1.06 3.52 1.86 1.39.61 3.91 2.36 3.52 1.73 1.91 3.27-2.05 2.12-2.07 1.26-2.6 1.25-.87.65-3.83-.06-5.04.57-1.28 2.52-1.5 6.94-3.31 5.64-3.3 1.47-1.26 4.87 4.01-.33 1.1 2.89 1.82-2.19 4.28.35.65 3.65-1.4 1.99-1.48 1.37.77 1.86-1.3.66 1.5 1.68-.16 2.3.99 1.5 2.13 4.17 2.19 1.94-.77 3.07 5.99-1.28 2.1-3.43 3.95-1.96 2.45-8.33 13.62-5.26-.48-1.53 4.7-8.6-2.74-1.53-.93-3.45.36.16-3.14-1.37.2-1.26-1.35 1.82-4.47-2.94-.46-1.64-1.27-2.32-.63-2.37 2.33-2.73-.16-4.18-.98-6.8-1.96-1.23 7.94-.6 1.19-4.33.72-1.65 1.75-1.7 3.88-2.7 2.97-2.66 1.88-1.58 2.4-2.51 2.19-3.28-8.37-5.71-13.76-6.86-16.76-4.13-10.38-10.81-26.31-1.7 1.16-5.24.79-4.1 2.08-2.58 3.05-1.1 2.38-.2 1.85-2.69 2.27-5.6 5.49-.62-1.75-4.6 2.15-.37-2.5-1.28-4.66-2.14-3.76-1.39-1.3-2.68-1.2-.94-2.32-4.18-1.23-.54-1.54-1.93-.02-1.42-2.51-1.09-3.9-.27-4.63z"/>
    <path region="11" short-name="General Assembly District 12" long-name="General Assembly District 12" value="2" d="m541.27 506.6 2.43-.19-5.11-11.2-1.64-2.7-1.66-4.27 4.7-1.81.8.26 1.07 2.77 3.16-2.21 2.94-.93 1.22.55 2.63-1.98 1.47-3.66 2.77-3.41 1.68-3.71 19.44-10.8-1.32-2.44.22-1.86 6.83.5.7.4 21.29-11.75-.27-3.61 5.25-7.04 7.88-8.06-2.68-2.23-3.22-1.06-.82-4.72.69-2.63 1.18-1.73-.06-3.57-1.02-4.03-1.51-.1-1.67-3.97-3.8.46-1.46-1.43-1.67 1.93-1.33-.04-2.38 2.59-1.67-.54-2.59 1.62.13 2.23-3.23-1.89 4.65-6.31 1.2 1.2 6.67-3.59-2.14-1.5-1.17-2.02 3.39-1.06 5.5-2.36 1.62 1.38.93-.91 2.2.77-.56-2.32 3.33-1.12-1.35-.9 10.43-8.26 3.48-4.11 3.46-4.98 9.08 5.31 2.89-2.73-.44-1.14 1.48-2.03 2.21-1.5 2.47.9 1.63 1.42 2.39.13 1.87 2.2 2.8.21-1.24 2.98-1.35-.42-1.76.93-3.51 4.92.76 2 1.77.77.6-1.8 4.45 1.33.5 1.61-.69 3.39-2.77 2.75 1.53 3.33-1.77 1.4.17 2.09-3.85-.96.06-2.54 1.6-2.06-2.49-1-3.94 4.1-21.07 21.5 3 2.96 9.83 9.12 1.3.9-2.45 8.07-3.37 5.25-4.46 7.68-1.04 4.2-4.49 12.26-10.19 8.57-13.1 12 45.71 2.21.93 2.75-.49 1.76.08 2.9 1.97.56 1.43 1.6.81 3.35 1.45 1.93-.93 7.25-4.35-2.85 1.42 24.96-3.57 1.65-28.06 12.97-21.65 10.2-23.1 10.7-3.02-7.46-6.9-18.64-3.71-8.5-1.17 2.15-3.45.25-1.64.75-2.7.34-1.88-.37-1.3 1.85-2.97 2.31-3.5.5-1.3-.93-7.66.43 1.1-2.15 1.99-6.21.35-5.7 1.5-10.77.14-2.93 2.74-7.47z"/>
    <path region="12" short-name="General Assembly District 26" long-name="General Assembly District 26" value="2" d="m640.57 81.4 11.58 6.73 10.03 5.57-12.32 30.36-6.85 17.9 1.7 1.68-3.35 4.57.29 3.68-1.37 1 .47 2.53-.58.78-.2 5.2.8 2.53-.38 3.1.96 1.13-.97 6.4-1.42 3.47-1.3 1.07 2.08 4.96 3.44.61 1.57 3.2-2.15.52.83 1.37-.34 2.45-2.64-.24-.79-1.4-1.83.74-1.14-.47-.03-2.16-3.35.61-2.94-.44-1.97.9v-1.82l-2.92.94-2-.05-1.05 2.78-.7 4.11.5.51-.59 3.37.73 1.9-.12 2.07 1.14.9 3.93 1.6.93 2.33-1.63.1-1.16 3.43-.32 4.75-.28 3.46-1.57 1 .85 2.54-1.96 3.6-1.66-.25-1.92.85-.29 1.74-2.87 3.15-1.3.23-.97 2.5.08 5.31-1.56 1.52.7 2.26-.5 3.06-1.48 1.33 5.7 2.42-.55 1.57-1.79.6-4.86-2.2-3.6 1.54-1.59-1.37.82-1.98-2.16-2.56.89-1.46-6.58-1.43-3.17.5-3.53-2.53 2.04-5.7.26-5.07-2.82-2.02-1.32.98-4.21-.17-2.46-1.73-1.36-1.68-.94-2.55-7.14-2.07-1.38-1.53-1.97-1.04-2.37-.5-4.45.5-1.24-.57 2.73-19.02 3.89-4.17 4.91-2.7.18-.86-2.06-4.33 2.1-1.3 1.56-2.51-.02-1.45 2-1.05 1.64-2.66 1.64.92 1.6-.1 2.25-2.67 3.54-.2-4.48 4.52 8.6 5.85-.72.86 1.42 1.59 2.54 1 .57-2.57 1.1-1.43 5.32-3.17 1.11 3.34 3.6-3.81-1-2.8-1.76-.45.32-2.5-1.78-7.66.98-.96.16-2.35 11.04.6 7.69 4.82 3.57-2.48-.48-14.9.37-4.39.56-1.03-3.83-1.88-3 .75-.34-2.77-1.3-1.36-2.36.14 5.18-19.78 13.6-32.08 1.17-2.53 2.37-1.73 3.23-3.86z"/>
    <path region="13" short-name="General Assembly District 24" long-name="General Assembly District 24" value="2" d="m464.75 33.92 2.73-4.5 2.57-2.78 3.1-1.8 1.63-2.1 4.5-3.13.06-1.45-1.09-1.85 1.17-1.66 6.46-1.1 2.55-2.71 1-3.67 2.22-2.43 5.55-.17 1.65.22 2.97-.58 3.9-2.24 2.5-.77L510 0l16.8 10.29 10.75 6.33 33.9 21.12 13.23 8 16.78 10.86 11.6 7.86-7.12 7.4-9.83 10.56-14.33 17.44-4.9 6.33-6.56 7.41-8.23 8.98-5.8 6.82-18.52 20.83-8.1 10.16-2.24 3.63-.58 2.34 1.98 3.64-.43 3.34-1.62 3.74-3.14 1.15-.72 1.9 4.47 3.7-2.37.34-.86 2.06 3 .25-2.36 5-2.25-1.1-.5 4 2.97-.18 2.56-.95 1.75.07.33-1.4-1.67-5.06.2-2.59 2.94-5.55 2.46-.64-.74-3.45 5.3 9.4 2.35 5.12.45 1.6-6.43 10.67-1.06 2.2-3.48 5.06-.86 3-2.45 3.8-.8 2.38 5.17 2.22-.82 2.3 2.16 2.63-1.74 4.04-.33 2.94-3.6 1.16-1.86 1.87.62 1.96-.71 2.65 3.19 2.2.17 2.11-5 5.77-1.11.96-.75 2.4.59 6.54-6.99 2.1-14.54 4.41-3.67-.87-4.9-3.94-5.7-2.05-7.13-1.78-1.36-.77-3.22.44-2.78-.73-2.15.22-1.13-.7-4.89-4.97-.33-1.07-14.4-12.1 1.8-1.55 1.1.3 2.25-1.66 2.05-.87.8-2.64 1.78.72 1.23-1.15h1.44l1.07-2.75 1.28-.24 2.58-4.49 1.45-1.4-.32-1.43 1.2-1.38 2.76-1.93-.43-1.7-1.27-1.28.95-2.3 2.1-.66 1.32-1.35.22-2.39 1.75-.35.53-1.11-1.98-2.4.76-2.74-.85-3.02-1.83 1.61-.71 1.6.14 2.98-.73 1.57-3.07-1.72-3.35 3.89-1.26 3.05-3.07 5.91-.9.75-18.47-9.12-3.46-16.6-.95-3.57 14.92-13.08 18.3-9.26-11.83-14.8-8.3-10.12-16.57-20.55-8.74-10.5-2.58.11-1.9 1.76-2.18.68-1.09-1.7 3-6.66 2.92-2.12 2.71-.38 5.16-3.9.9-2.29 4.37-1.81 2.51-1.99 5.64-7.32 1.75-4.4 3.23-3.1 2.3-3.02 2.54-7.4 2.13-4.28 2.16-3.63.34-1.28-2.54-3.04.38-1.83 1.3-2.29.12-1.66 1.43-3.1 2.57-.92 1.24-2.87-.4-2.1z"/>
    <path region="14" short-name="General Assembly District 15" long-name="General Assembly District 15" value="2" d="m393.11 342 3.9-.51 1.37.68 11.73-5.95 6.78-3.9 11.67 23.47 5.44-6.7 1.79 2.98.27 4.64 1.1 3.89 1.4 2.51 1.95.02.54 1.54 4.17 1.23.94 2.32 2.68 1.2 1.4 1.3 2.14 3.76 1.27 4.66.38 2.5 4.6-2.15.61 1.75 5.6-5.5 2.7-2.26.2-1.85 1.09-2.38 2.58-3.05 4.1-2.08 5.25-.79 1.69-1.16 10.8 26.31 4.15 10.38 6.85 16.76 5.7 13.76 3.29 8.37 2.52-2.2 1.57-2.4 2.65-1.87 2.7-2.97 1.7-3.88 1.66-1.75 4.32-.72-.24 1.24 2.43 2.35-.38 2.3.58 1.46 1.5.12 4.58 1.5 1.75 2.82 1.33-.54 2.97 1.63v1.54l1.44 1.8 1.92 1.2.32 4.63 1.26 1.2.32 3.4-10.04 13.07-2.65-2.6-13.29 4.7-4.6-10.52-1.78-1-4.72-.28-1.17 1.03-2.6-.66-3 .29-.64 1.38-1.68.76-1.58 5.86-3.84 1.46-.15 1.5-1.89 2.49-.53 1.91 3.36 4.43-.3 1.69-2.4 2.86 1.52 2.6-.93 1.08-5.4 1 .54 2.95 1.53 2.27-1.85.9-1.14-1.32-1.23-4.2-2.57-4.47-1.27-3.1-3.22-2.74-4.2-3.08-7.62-3.75-1.38-1.24-3.9-1.94-1.9-1.77-3.4-7.92-2.31-6.13-2.43-4.39-5.95-6.23-2.93-1.98-3.74-.74-2.87-2.27-2.98-2.91-4.03-3.53-1.28-1.88-.71-5.5-.85-3.67-1.64-4.6-3.16-7.99-1.3-1.6-2.75-1.13-3.8-2.86-2.34-.72-8.94 2.92-3.04-1.08-2.12-1.85-1.57-1.42-4-1.69-.82-1.98-.45-4.36-1.13-5.7-1.28-3.3 1.12-4.2-.22-3.45 1.06-1.3.46-2-.12-7.33-.5-1.71-.32-6.62.24-2.76z"/>
    <path region="15" short-name="General Assembly District 05" long-name="General Assembly District 05" value="2" d="m370.06 609.13.74-.7 2.04-4.21.91-4.76-2.23-6.36-.27-2.13.05-6 .59-2.91 1.17-1.85 3.51-2.8 5.25-2.8 5.18-1.13 3.21-1.2 3.6-3.28 1.3-2.3 3.34.15.48-1.16 3.99-.73.91.8 4.39 2.04 1.08 1.48.35 2.07-.7 4.1-1 1.18.52 3.28 1.34 2.16-4.23.57-3.28 1.25-1.26 1.09-1.95.12-5.88 8.6 2.82 5.28-.6 1.5-2.48-.06-.45 1.38-1.95-1.62-4.18 1.66-1.46-1.47-1.55.64.83 2.69-2.01 1.07-.66 2.64 1.77.05.88 1.5 1.77-.07-.73-2.17 1.8.23.74-1.45 1.35 1.07 1.81-1.62 2.58-1.23 1.58 2.95 2.74 1.79 1.75 2.7 2.57-.55.13 4-3.1 1.86 1.91 3.3-2.56 1.48v3.29l-10.69 4.03-1.17.97 1.2 1.97-.58 1.28.69 1.42-1.82 2.7 1.02 3.22 3.13 3.49-2.7 3.85-2.1.32-.73 2.86-6.28 3.4-1.48 3.18-1.06-.48-2.53 1.43-1.01-.32-1.6-2.63-2.02-.34-2.03-3 3.81 1.3-2.04-8.96-2.64.3-.94 2.97-1.38 1.17-1-1.02-2.7-.32 3.62-11.93-1.3-2.31.4-1.24-2.42-1.05 1.13-4.71 3.9 2.25 2.17-3.3 1.76-.77 2.21-3.44 1.66 1.4 4.81-2.15-.5-1.91-1.65-.02-1.06-3.24-1.93-1.31 1.23-1.7z"/>
    <path region="16" short-name="General Assembly District 03" long-name="General Assembly District 03" value="2" d="m237.97 714.91 1-2.08 2.85-2.3 1.62-2.24 2.17-.49 2.65-3.23 3.8-5.51.92-2.33.75-4.5.1-3.77.59-1 3.43-1.82 1.55-3.96 1.92-1.93 1.98.82.64-1.85-.1-2.6.96-4.41 1.55-3.33 1.8-5.49-.12-1.53 1.4-2.07 2.24-1.3.52-2.48 3.9-3.83 10.35-4.91-3.04-2.26 3.56-2.3 4.16-3.19 5.88-5.04 5.49-5.04 3.97-2.53 3.57-1.2 3.74-.38.63-.02 2.16-.08 5.13.58 6.68-.13 9.04-2.26 2.64-.82 4.3-2.02 6.77-4.8 3.31-3.06 4.65-.71 8.07-.53 1.62-.52 1.29-1.33 3.83 2.77-1.23 1.7 1.93 1.31 1.06 3.24 1.65.02.5 1.91-4.81 2.14-1.66-1.39-2.21 3.44-1.75.77-2.18 3.3-3.9-2.25-1.13 4.7 2.42 1.06-.4 1.24 1.3 2.3-3.61 11.94 2.7.32 1 1.03 1.37-1.18.94-2.97 2.64-.3 2.04 8.95-3.81-1.29 2.03 3 2.03.34 1.59 2.63 1.01.32.56.67 3 .83.62 1.97-1.16 3.12-.57 3.15 2.11 2.38 1.03 2.69 1.9 1.34 2.58 3.19.25 1.49 1.38 1.2.05 2.9 1.63 2.85 10.38 9.45 6.87 6.07-5.42 2.82-18.57 7.09-8.22 7.37 22.71 21.1-1.4 3.37-.11 1.73-1.01 1.27-1.44 3.49 1.08 1.83-.51 1.63.13 4.82-1.08 2.2-.74 2.81.36 2.89-.9 1.41 1.83 3.77.2 2.88-2.23 5.35-.5 3.01.47.94-1.06 2.03.72 1-1.6 2.89.68 1.5-4.95 1.9-2.23 2.01-8.42 1.46-1.74-.52-3.32 1.6-9.83-2.47-.75-1.3-3.36.25-1.07.8-3.15-.17-1.27-8.3-1.22.25-3.38 3.3-2.04 1.1-1.16-.72-3.44-.52-1.71 1.35.56 11.34 2.63 1.35.57 1.25 2.95-.38-.11 3.27 1.6.93.3 3.14-.7 2.16.16 2.2-2.49 1.26-2.73.15-1.18.83-1.88-1.25-1.36 1.25-1.06-.27-.03-1.97-2.42 1-.09-2.16-2.13.4-.5 2.26-1.93-1.38-1.02.76-.31 1.92-2.38-.59-.28-1.84-2.76-.15-.96-3.17-2.78-.3-.41 2.54-1.7.96-1.77-2.24-1.31.88 1.04 2-1.08.9-1.94-.35-2.19-1.8-2.28 2.07 1.81 1.04.15 2.26-2.42.6.44 2.04-.79 1.32-2.2.56-.37 2.15 2.4.44-1.69 1.79.47 1.7 1.36-.15-.95 1.7-1.29-.69-1.22-3.74-2.53-1.5-2-.01-2.31-1.54-1.36-2.23-.26-3.11-1.3-3.3-.9-.72-3.25.14-.07-1.68-1.08-1.05-1.87.45-1.8-.52-4.6-5.9-2.7-5.72-1.8-2.58-2.67-6.63-2.38.74-4.86-2.54-.07-1.88-1.66-.62-1.64.27-2.12-1.67-.86-2.53-8.82-.58-2.04-4.03-.46-3.73.53-6.92 4.67-.64-.7-2.72.03-2.45 1.08-2.55-.08-5.86-.28-1.57-2-2.21.54-1.06 4.19-4.94 2.51-5.2-.16-3.7-2.54-2.47-2.06-.86-4.21-3.63-4.4-3.17-.83-1.79-.8-4.72z"/>
    <path region="17" short-name="General Assembly District 36" long-name="General Assembly District 36" value="2" d="m687.76 224.4 1.98-1.2.82-2.93-.18-1.74-6.7-4.5-1.16-1.68 1.99-8.4 3.42-1.22 3.59-1.97.7.66 1.5 4.08 2.99.66 1.17.97 1.24-1.51 2.44 1.87-1.04 1.5 4.59 3.5-1.23 2.58.8 2.19 4.8 1.91.7-1.08 1.8.61 5.51 3.67.06-1.58 1.51-1.34.03-6.08 1.04.04 1.74 2.7 2.66.4.7-3.3 10.74 7.91 1-2.25.7-3.7 1.04-2.2 4.39-.23-2.84 8.77-1.5 2.51-1.04 1.88-4.26 7.75-2.68-1.5.05-1.85-5.19-3.64-.9-.91.35-1.72-2.02-1.04-.82 1.95-2.44 1.25-1.64 2.32-1.4 1.03-6.72.58-1.46.85-1.6 2.38-2 .75-1.44 2.86-3.2 4.87.67 4.51-.91 2.15-1.6-.36-.9-2.03.09-1.99-2.17-1.92-1.23-.28-3.14 2.27-2.5.42-1-2.58-5.4-3.71 2.89-4.88-.4-2.95.35-3.3.79-2.1z"/>
    <path region="18" short-name="General Assembly District 19" long-name="General Assembly District 19" value="2" d="m622.17 313.33 11.19-1.22-.76 3.35 4.55 3.58 9.85-2.22.59-2.06 4.81 1.16 2.13-1.26 1.85 1.53 5.44-1.66.3 1.87 2 1.84-.56.43-1.47 6.14-.9 5.39-1.87 2.54-3.6-1.42-2.16 1.87-4.26 2.1-.75 1.71.6 5.39 1.12 5.08-3.2 5.03-.92 3.13-1.42 1.94-1.86 4.34 1.8 3.84.27 3.31 1.33 2.66 1.23.44-2.21 1.5-1.48 2.03.44 1.14-2.89 2.73-9.09-5.31-3.45 4.98-3.48 4.1-10.43 8.28-.23-1.87 1.99-.97-.48-2.02 1.2-1.42-1.32-1.15.2-1.68-1.98-3.22-1.5-.45-2.38-3.21-3.23-1.76 1.2-3.5 1.3-.86.42-3.2 1.65-1.47 1.36.25-.18 3.38.87.74 1.97-.8.88-1.27.7-2.9 4.69.12 3.36-2.22-1-9.93 1.49-3.17.12-2 1.83-.16 1.38-1.75-4.05-7.45-.6-7.79-.8-.44-.86-2.56z"/>
    <path region="19" short-name="General Assembly District 06" long-name="General Assembly District 06" value="2" d="m407.95 576.63 4.36-2.3 3.47 3.89 2.26 1.55 1.38 2.55 2.4.24 2.02 3.05.6 3.1-5.41 4.37 2.81 2.35 3.82.56 1.78 2.43 1.51 3.42.92 3.17 5.93 5.08 4.83 21.14 2.23 10.07 1.87 7.66-3.65 5.55-4.3.45-2.08-1.17-1.65.47-2.63-2.75-6.48 7.26-1.35-1.81-2.74-2.17-1.64-.59-5.23-.78-1.5.22-2.08-6.88-2.85-3.2-.47-5.51-1.44-3.12-1.5-1.73 1.97-.93-.4-4.1-2.49-.3-.55-2.78-.95-1.3-2.2.75-.01-3.29 2.56-1.48-1.9-3.3 3.09-1.85-.13-4-2.57.53-1.75-2.7-2.74-1.78-1.58-2.95-2.58 1.23-1.8 1.62-1.36-1.07-.75 1.45-1.79-.23.73 2.17-1.77.08-.88-1.51-1.77-.05.66-2.64 2-1.07-.82-2.69 1.55-.64 1.46 1.47 4.18-1.66 1.95 1.62.45-1.38 2.48.06.6-1.5-2.82-5.28 5.88-8.6 1.95-.12 1.26-1.09 3.28-1.25 4.23-.57-1.34-2.16z"/>
    <path region="20" short-name="General Assembly District 18" long-name="General Assembly District 18" value="2" d="m575.88 389.83 2.45-1.45.03-1.98 2.61-2.24.7-2.2 2.08.03 2.4-1.85-.11-2.18 1.86-.54-.72-3.27 1.44-1.82 2.84 1.87 3-3.24 2.21-.4-.05-2.36 1.25-1.28 1.34-3.18 1.27 1.45 1.8.3 2.9-2.27-1.9-2.75-5.14-.52-1.92 1.75-2.34.36-1.89-1.13-.56-2.34-1.65-2.6-1.53-1.22 1.93-3.9 4.8-4.53 3.46-1.66 1.66-5.7-5.9-1.1-2.22-3.74-1.65-1.63 1.21-.9-.73-4.24-.88-9.21 1.21-1.4 31.03-3.43.74 13.55.86 2.56.8.44.6 7.79 4.05 7.45-1.38 1.75-1.83.16-.12 2-1.49 3.17 1 9.93-3.36 2.23-4.7-.13-.68 2.9-.9 1.27-1.96.8-.87-.74.18-3.37-1.36-.26-1.64 1.47-.43 3.2-1.3.85-1.2 3.51 3.23 1.76 2.37 3.21 1.52.46 1.97 3.2-.2 1.69 1.32 1.15-1.2 1.42.48 2.02-2 .97.24 1.87 1.35.9-3.33 1.1.56 2.33-2.2-.77-.93.91-1.61-1.38-5.51 2.36-3.39 1.06 1.17 2.01 2.14 1.51-6.66 3.6-1.2-1.21-4.66 6.31-4.15-2.6 3.43-3.95 1.28-2.1-3.07-5.99-1.94.77-4.17-2.2-1.5-2.12-2.3-.99-1.68.16z"/>
    <path region="21" short-name="General Assembly District 39" long-name="General Assembly District 39" value="2" d="m662.18 93.7 9.11 5.07 15.93 9.23 15.74 9.23 33.1 19.5 23.24 13.83 2.73.05-.68 6.38-.8 2.94-1.94 6.96-2.95 12.56-1.28 4.27-.51 1.7-2.38-1.64-10.99-8.44-2.54 1.35-2.98.17.12-1.18-7.56.45-2.28-.17.25-4.12 2.25.04.17-3.8-3.08-.16-4.54-1.52 2.61-1.96.59-1.52-2.45-.92-4-.82-.35 3.99-3.44-1.27.91-3.32-1.2-.39-.75 2.28-1.35.48-3.57-3.63-3.27-.92-.19-4.23-3.11-1.42-7.62-1.65-1.65-4.15-3.98-.2-.65 4.56 1.6.43-1.52 3.61-1.46 1.65-1.23-.1-.83-2.18-1.98.04-1.23-1.14.89-1.28-1.48-3.55 3.14-.16 2.64-2.45-4.34-1.16.65-1.13.49-3.54-2.19.03-.23-1.75-2.86 1.62-1.49-1.35-.54-1.67-1.6-.57-1.51-1.77-6.18-4.33-14.33 19.54-.78 2.63-4.97-8.3-.8-.79-1.69-1.69 6.85-17.89z"/>
    <path region="22" short-name="General Assembly District 34" long-name="General Assembly District 34" value="2" d="m687.76 224.4-1.87.68-.79 2.1-.35 3.3.4 2.95-2.9 4.88-.25 2.74-1.4-.3-4.13-2.52-1.81-.65-1.67 2-1.15 2.3-1.92 1.42-2.5 6.33-2.01 3.52-1.63.55-4.38.27-.5 1.54-2.26-.57.8-1.95-2.6.25-6.5-3.14 2.14-4.13.95.52 2.75-4.83 3.15-2.59 1.94-2.13.64.65 11.29-25.18z"/>
    <path region="23" short-name="General Assembly District 30" long-name="General Assembly District 30" value="2" d="m726.15 482.8-.4 3.67-2 7.9-1.54-.68-2.2 1-6.68 2.25-.95.57.49 1.96-1.17 4.36 1.97 1.8 1.73.39-1.3 3.29-1.8-.6-2 2.91-2.21 4.1-1.7.88-.48 1.74-2.13 3.15-2.19 1.42-2.56-3.85-.14-2.57-1.38-5.77-1.36-2.73-1.36-1.07-13.42 15.7-1.43-.04.13 1.87 1.04 1.67-.8 2.21.77 2.58-1.65-.04-.66 6.3-.59 2 .67 2.24-.24 12.02-29.9-14.66-1.41-24.96 4.35 2.86.93-7.26-1.45-1.93-.8-3.35-1.44-1.6-1.97-.56-.08-2.9.5-1.76-.94-2.75-1.57-.79-1.17-14.35 3.54-6.42 6.47-10.27 4.56-6.96 5.05.95 26.18 3.86.5 3.12-.13 3.42-.78 2.9.34 1.94 1.27 1.42 3.62 2.25 2.38.38 2.25 2.37 2.84 1.17 1.18-.16 4.02 2.3.26.96 2.59 1.1.95 2.12 4.8 2.72 1.66-.27.76-2.15 2.63.87 1.38-5.02.9.9z"/>
    <path region="24" short-name="General Assembly District 33" long-name="General Assembly District 33" value="2" d="m700.1 248.49.92-2.15-.67-4.51 3.2-4.87 1.44-2.86 2-.75 1.6-2.38 1.46-.85 6.72-.58 1.4-1.03 1.64-2.32 2.44-1.25.82-1.95 2.03 1.04-.35 1.72.9.9 5.18 3.65-.05 1.86 2.68 1.5-1.07 1.93-5.79 10.5-2.4 4.61-5.52-.96-1.9 3.6-1.33-.78-.51-1.83-2.65-1.78-1.54-3.37-.95 1.36-4.66 3.14-.13 2.18-1.1.96-3.76.75-1.51-1.9z"/>
    <path region="25" short-name="General Assembly District 35" long-name="General Assembly District 35" value="2" d="m682.08 173.75 1.35.46 1.04 1.89-.61 2.68 1.11 2.65 2.06.32 2.82-.8.57 1.77 2.07-.74.47 1.68 3.28 8.4-.35 2.6 1.1 2.91 2.76-.9-.84 3.46-1.27 2.2.68 1.77-1.61 2.06-2.99-.66-1.5-4.08-.7-.66-1.08-1.74-2.7-1.73.5-3.75-9.82 2.26-.64-1.35-4.03-3.14.12-.73-6.77-2.67-3.29-3.88 1.34-2.68.56-3.4 1.35-1.64-.7-14.32-4.37-4.3 12.83 1.3 1.05 6.15-.4 6.57-.75 1.91 1.42 3.32 1.71-1.46 2.39-.2z"/>
    <path region="26" short-name="General Assembly District 21" long-name="General Assembly District 21" value="2" d="m514.87 261.72 6.99-2.11 27.2-8.18 4.77-1.27.95.86 1.1 3.68.46 4.17-.37 1.36 2.8-.03 3.2 3.03-.46 2.83 2.22 2.62-.56 1.68 2.28 1.25 1.53 2.18.04 1.37 10.65-4.07 9.58-4.08-1.8-11.46.85-3.37 2.82-7.7 2.24 2.32-1.13 4.74 2.1 1.9 1.03 1.69 7.73 2.51 1.02-.55 3.2-4.2 3.6-1.52 4.86 2.2.11 1.5-2.18 2.7 4.03 1.52 3.23 2.4 2.27 2.4 4.99 3.05 2.84-.91 2.24 1.85 1.87.67 1.98-.83.1 1.88-1.61 1.21.3 1.3-2.1.55.4 3.87-1.67 1.62.43 4.81-3.8.68-.22 1.93-1.34 4 .54 2.62 1.98-.8 2.19 1.66-2.57 2.8.29 2.1 2.16 1.67-3.84 5.46-2.92-.85-.98 1.22-2.13-1.6-3.24-3.21-2.04-1.43-2.75-6.6-5.47-9.74-3.34 1.82-1.81 3.17.55 1-.32 3.25-1.25 2.95-.46 2.58-2.08.63-8.46 5.06-1.24 1.54-6.08 5.96 2.38 3.72-1.86 1.3 1.52 1.8 1.05-.47-.83.71 1.7 2.06-2.32 3.2-2.89.34-.24-2-3.65 3.1.56 1.76-2.15.99-3.45 2.76-3.12 1.9-1.27-.02-2.7 1.92-2.16-1.6.69-1.03-.44-2.6 1.63-2.5 2.7-3.24-1.12-1.68-5.03-3.8-1.13-4.28-3 .66-2.97-.46-2.82-2.22-6.8-4.65-7.66-7.46-4.67-3.96-.3-.61-3.7-13.07-2.38-.95-1.99-4.94-5.47.73-2.38-1.25-.44-6.2-.75-2.7z"/>
    <path region="27" short-name="General Assembly District 22" long-name="General Assembly District 22" value="2" d="m631 283.16-.44 1.77 1.61.9 4.95-.5 1.47 1.9.3 1.41 3.15-1.03-.25-1.02 5.38-.98 3.12 2.08.75 1.82-11.55 2.06.75 3.45 5.25 5.24 1.62-2.38 2.36-.88 3.26-1.94 2.72-2.1 9.81 8.65-1.48 3.13.5 3.13-.41 5.35 1.58 1.72-.22 1.87-1.11 1.43-2-1.84-.3-1.87-5.44 1.66-1.85-1.53-2.13 1.26-4.81-1.16-.6 2.06-9.84 2.22-4.55-3.58.76-3.35-11.2 1.22-31.02 3.42-5.68.63-1.05.48-1.52-1.82 1.86-1.29-2.38-3.72 6.08-5.96 1.24-1.54 8.47-5.06 2.07-.63.46-2.58 1.25-2.95.32-3.26-.55-.98 1.81-3.18 3.35-1.81 5.46 9.73 2.75 6.6 2.04 1.43 3.24 3.2 2.13 1.62.98-1.23 2.92.85 3.84-5.46-2.16-1.67-.3-2.1 2.58-2.8-2.2-1.65-1.97.8-.54-2.62 1.34-4 .22-1.94z"/>
    <path region="28" short-name="General Assembly District 27" long-name="General Assembly District 27" value="2" d="m625.14 216.67 7.34 3.58 1.3 1.29 1.01-1.14 2.52 1.9 1.7 2.42 1.59.51 1.1 1.4 2.34-5.08 1.32.72 4.37.3 5.85 4.17 1-2.34.1-2.37 1.74-1.66 2.21-4.05.24-1.49 2.6-4.37.64-3.15 2.57.65 1.04-3.8 2.33-3.42 2.21-4.66.07-1.5 1.42-3.27 4.03 3.14.64 1.35 9.82-2.27-.5 3.75 2.7 1.74 1.08 1.74-3.59 1.97-3.42 1.23-1.99 8.39 1.16 1.67 6.7 4.51.18 1.74-.82 2.94-1.98 1.2-16.56-12-11.29 25.18-.64-.65-1.94 2.13-3.15 2.59-2.76 4.82-.95-.52-2.14 4.14-3.93-1.74-7.05 2-.84 2.1 2.42 12.57-2.68.91-1.1 1.98-1.99.83-1.86-.67-2.24-1.85-2.84.91-4.99-3.06-2.27-2.4-3.23-2.39-4.03-1.52 2.18-2.7-.1-1.5 1.78-.6.56-1.58-5.7-2.42 1.47-1.33.5-3.06-.7-2.26 1.56-1.52-.08-5.32.96-2.49 1.31-.23 2.87-3.15.3-1.74 1.9-.85 1.67.26 1.96-3.61-.85-2.54 1.57-1z"/>
    <path region="29" short-name="General Assembly District 32" long-name="General Assembly District 32" value="2" d="m703.91 253.22 1.1-.96.13-2.18 4.66-3.14.95-1.36 1.54 3.37 2.65 1.78.51 1.83 1.33.78 1.9-3.6 5.51.96-.95 5.19-1.82 9.87-.04.21-1.95.39-1.5 3.58-2.3-.33-1.5-2.91-5.17-2.13-.75 1.62-3.64-3.73-2.71-.91-2.6-1.53 1.32-1.73 3.85-2.02.58-1.72z"/>
    <path region="30" short-name="General Assembly District 20" long-name="General Assembly District 20" value="2" d="m631 283.16-.43-4.81 1.67-1.62-.4-3.87 2.1-.55-.3-1.3 1.6-1.21-.09-1.88 1.1-1.98 2.69-.9 9.17 3.62 3.66.88-1.45 4.22.97 1.75 1.9.5.9 3.9 1.47.12 3.13 4.52 2.42-4.76 1.72-1.7 2.34 1.61 1.18-.03 9.06-.72 1.33-.64 2.26 1.75 1.26.01 3.19 2.67 1.54 2.32-3.28 5.77-2.38-1.15-4.1 4.23-3.25 1.98-1.47.3-3.75 3.52-1.5 1.9-9.8-8.64-2.73 2.1-3.26 1.93-2.36.87-1.62 2.4-5.25-5.25-.75-3.45 11.55-2.06-.75-1.82-3.12-2.08-5.38.98.25 1.02-3.16 1.03-.29-1.4-1.47-1.9-4.95.48-1.6-.9z"/>
    <path region="31" short-name="General Assembly District 04" long-name="General Assembly District 04" value="2" d="m373.41 658.18 2.53-1.43 1.06.48 1.48-3.19 6.28-3.39.73-2.86 2.1-.32 2.7-3.85-3.13-3.49-1.02-3.21 1.82-2.71-.69-1.42.58-1.28-1.2-1.97 1.18-.97 10.69-4.03 2.2-.75.95 1.3.55 2.77 2.5.3.4 4.11-1.97.93 1.5 1.73 1.43 3.12.47 5.51 2.85 3.2 2.08 6.88 1.5-.22 5.23.79 1.64.58 2.74 2.17 1.35 1.8 6.49-7.25 2.62 2.75 1.65-.47 2.07 1.17 4.3-.45 3.66-5.55 1.17.56 1.17 2.56 1.63.6 4.27.2 2.1-1.17 4.87-1.12 3.4-1.17 7.49.79.45.8 3.5 1.06 5.08 4.97 1.76 2.33 1.23 2.88 1.35.33 1.52 3 1.8 1.6 3.33 1.77 6.16 5.1-26.56 29.69-20.08 22.47 18.41 16.53-13.82 15.4 1 4.12 9.13 36.44-6 1.5-.08-1.72-4.64-4.4-7.89-6.88-17.15-15.67-34.79-31.68-22.7-21.09 8.21-7.37 18.57-7.09 5.42-2.82-6.87-6.07-10.38-9.45-1.63-2.85-.05-2.9-1.38-1.2-.25-1.5-2.59-3.18-1.89-1.34-1.03-2.7-2.1-2.37.56-3.15 1.16-3.12-.61-1.97-3.01-.83z"/>
    <path region="32" short-name="General Assembly District 09" long-name="General Assembly District 09" value="2" d="m572.33 574.3 23.11-10.72 21.64-10.19 28.07-12.97 2.34 2.06 1.2 3.12.24 3.9 3.44 4.73.98 3 1.38 1.56 1.16 3.42-.44 1.56-11.04 3.32-1.14 1.21 6.14 3.72 2.54 2.87 8.69 7.36 2.32.54-.88 3.66-4.56-1.33 2.36 5.1 4.33-.32 4.47-4.38 1.7.96 2.59.49 2.69-.52 3.2.99 5.64 3 2.8.16 14.07-4.25 1.95-.78-1.17 6.16.95.12.12 2.63-1.55 4.17 2.84.44-2.56 20.49-2.17 25.5-1.84 13.04-.84 2.75.4 2.1-1.2 2.27-2.26 2.26-2.28 4.27-7.78 18.63-15.55 26.37-15.48 28.38-2.77 3.07-4.22 6.85-1.02.45-6.1 7.43-1.72 1.36-10.35.4-.8.6-3.84-.2-4.92.52-2.12 1.44-6.24 1.43-6.57-16.07-2.47-3.75-2.1-1.1-.38-3.04.95-1.52-1.48-2.8.98-1.07 3.4.36 1.37-1.09.99-2.26.02-1.52 1.67-5.33.6-.67.02-12.6.2-59.8-12.5-29.55-1.51-4-11.33-27.63z"/>
    <path region="33" short-name="General Assembly District 28" long-name="General Assembly District 28" value="2" d="m648.33 250.1 6.5 3.14 2.61-.25-.8 1.95 2.27.57.5-1.54 4.37-.27-.91 2.46.53 1.26 1.98.57-1.34 4.84 4 1.48.63.63-.88 3.84 2.4.18-4.52 9.9.68.81-1.18.03-2.34-1.62-1.72 1.7-2.42 4.77-3.13-4.52-1.46-.11-.91-3.91-1.9-.5-.97-1.74 1.45-4.23-3.66-.88-9.17-3.63-2.43-12.58.84-2.09 7.05-2z"/>
    <path region="34" short-name="General Assembly District 29" long-name="General Assembly District 29" value="2" d="m663.78 253.7 1.63-.55 2.01-3.52 2.5-6.33 1.92-1.41 1.15-2.31 1.67-2 1.8.65 4.13 2.52 1.4.3-2.34 3.77-.6 1.96-1.4 1.96-.83 2.77 2.84 1.3.5-1.1 2.71.97 1.12 3.3 1.64 1.03 4.4-.26 1.83 2.07-1.38 6.7.26 1.6-.83 2.04.8 3.2-3.04 5.93-1.82.5-2.4 3.95-3.2-2.67-1.25-.01-2.26-1.75-1.33.64-9.06.72-.68-.82 4.53-9.89-2.4-.18.87-3.84-.62-.63-4.01-1.48 1.34-4.84-1.98-.57-.53-1.26z"/>
    <path region="35" short-name="General Assembly District 38" long-name="General Assembly District 38" value="2" d="m704.04 158.4 3.27.92 3.57 3.63 1.35-.48.74-2.28 1.21.39-.91 3.32 3.44 1.27.36-4 4 .83 2.44.92-.59 1.52-2.61 1.95 4.54 1.53 3.08.17-.17 3.79-2.25-.04-.25 4.12 2.28.17 7.56-.45-.12 1.18-.8 2.7.2 2.55-.8 3.96-2.62.44-2.84-.6-1.05 1.64-3.9-1.5-1.27-2.07-1.2.4-3.29 2.88-3.6-1.6-2.12 2.34-1 2.17-.8 4.23-1.53 2.08-1.18 4.58 2.47 1.86 1.52-1.03 2.21.37 3.25 5.95 1.85.1 1.17 1.68-.56 3.37-.03 6.09-1.51 1.34-.06 1.58-5.52-3.67-1.8-.6-.68 1.07-4.82-1.91-.79-2.2 1.23-2.57-4.6-3.5 1.05-1.5-2.44-1.87-1.23 1.51-1.18-.97 1.61-2.06-.68-1.78 1.27-2.2.84-3.46-2.77.91-1.1-2.91.36-2.6-3.28-8.4-.47-1.68-2.07.74-.57-1.78-2.82.81-2.05-.32-1.12-2.65.61-2.69-1.04-1.88-1.35-.46 1.15-6 1.06-4.3 1.6-2.64 4.69-.03 3.53 2.25 1.09 1.25.16 2.38 1.83 1.5 1.62-1.86-.63-1.9.07-2.35 1.36-1.23-.14-2.85.62-.47z"/>
    <path region="36" short-name="General Assembly District 10" long-name="General Assembly District 10" value="2" d="m645.15 540.42 3.57-1.65 29.9 14.66.23-12.02-.67-2.23.59-2.02.66-6.29 1.65.04-.76-2.58.8-2.21-1.05-1.67-.13-1.88 1.44.04 13.42-15.69 1.36 1.07 1.35 2.73 1.38 5.77.14 2.57 2.56 3.85 2.19-1.42 2.13-3.15.48-1.74 1.7-.89 2.22-4.09 1.98-2.9 1.8.59 1.3-3.3-1.72-.38-1.97-1.8 1.17-4.36-.49-1.96.95-.57 6.68-2.24 2.2-1.01 1.53.69-4.67 18.45-1.14 7.83.16 1.25-1.95 7.86-7.68 42.16-1.8 14.87-2.15 12.29-2.84-.44 1.55-4.17-.12-2.64-.94-.11 1.16-6.16-1.95.78-14.08 4.24-2.79-.15-5.63-3-3.21-.99-2.7.52-2.59-.5-1.7-.95-4.46 4.38-4.33.31-2.36-5.09 4.56 1.33.88-3.67-2.32-.53-8.69-7.36-2.54-2.87-6.14-3.72 1.14-1.2 11.04-3.33.44-1.56-1.16-3.42-1.38-1.56-.98-3-3.44-4.72-.24-3.9-1.2-3.13z"/>
    <path region="37" short-name="General Assembly District 01" long-name="General Assembly District 01" value="2" d="m394.54 739.85 34.78 31.68 17.16 15.67 7.89 6.88 4.64 4.4.07 1.72 6.01-1.5 35.88-8.83-.02 1.5 1.01 2-.21 1.68 2.54 2.78-.03 1.04-1.67 4.63.37 1.65-.36 5.78-1.25 1.36-.44 1.91 1.31 4.58-.72 2.27 2.22 1.56-.62 2.18 2.4 5.36 2.85 2.26-.37 2.05.65 2 1.73.68 2.5.1 1.54 1.16 1.65-.62.72.95.04 2.16 2.67-1.18.94 1.52 2.64 1.17-.98 3.94 4.02 2.1 1.16 2.53 2.3.35 2.57 1.1 2.08-.44 8.25-6.44 2.54.2 3.27 2.94 1.64 1.04 3.54.1 2.53-1.19.05.26-1.24.4.45 2.68-.4 2.88-2.55 3.52-6.13 2.91-5.46 4.94-6.9 7.36-5.25 7.7-3.33 4.58-2.6 5.71-1.72 1.47-3.5 5.14-7.38 12.95-4.57 9.92-1.56 1.47.07 2.1 3.06 2.75-.46 2-9.91 11.34-4.49 7.78-6.17 9.4-2.09 1.17-3-1.54-3.48 2.93 1.19 1.84.3 3.2 1.21 1.92.85 3.27-2.04 2.76-9.13 7.96-8.83 8.07-4.31 5.72-1.9-1.27-4.24.46-7.27 4.21-4.2 1.16-4.14.25-1.16-1.1-3.14-.31-3.15.55-1.96-.22-1.2-.9-1.48-2.81 2.8-8.84-.35-2.72 2.78-13.09 1.86-5.82 3.5-7.92 10.91-21.17 1.85-4.62 1.65-5.82.34-5.66.67-.31-.07-5.06 1.14-1.32-.39-6.17-4-5.88-1.39-.95-3.34-.81-.97.38-2.84-2.1-6.89-2.24-1.64-1.12-2.84-.75-4.13-.1-8.61.55-1.14-.62-5.95-.48-.52-2.38 1.33-1.27-.88-4.3 1.6-2.26-.7-1.42-1.97-1.3-.67 2.04-1.77-.5-1.87.3-1.57 2.31-7.93.45-2.77.7-3.64.13-1.92-2-2.29-.55-1.07 1.64-2.45.88-2.02 4.35-1.48.41.6 4.1-1.9 1.12-2.7.36-2.82-1.34-1.64-3.07-1.3-.39-2.08-1.94.11-1.86 1.26-2.62-1.13-1.87.14-1.41-.83-3.69-.98-2.58-3.18-3.39-2.75-.04-2.27-3.07-.37-1.16-2.11-2.41-2.1-.06-9.16-4.6-.4-2.64 1.62-1.4-1.76-.77-1.51-2.86-1.43-1.42.31-1.59-7.8-1.87-2.05-.21-1.12 1.96.84.84-.45 2.59-.94.25-2.86-2.12-5.6-5.6-3.43-8.93-.23-2.88-1.78-1.14-.4-1.19-2.58-1.37-2.56-.48-2.1.87-.17 1.5-1.35.15-.47-1.7 1.68-1.8-2.4-.43.38-2.15 2.2-.56.79-1.32-.44-2.04 2.42-.6-.15-2.26-1.8-1.04 2.27-2.07 2.2 1.8 1.93.34 1.08-.9-1.04-2 1.3-.87 1.78 2.23 1.7-.95.4-2.54 2.8.3.95 3.17 2.75.15.29 1.84 2.38.59.31-1.92 1.01-.77 1.94 1.4.5-2.28 2.13-.39.09 2.16 2.42-1 .03 1.97 1.06.27 1.36-1.25 1.87 1.25 1.19-.83 2.73-.15 2.5-1.26-.17-2.2.7-2.16-.3-3.14-1.6-.93.11-3.27-2.95.38-.58-1.26-2.62-1.34-.56-11.34 1.71-1.35 3.43.52 1.17.72 2.04-1.1 3.38-3.3 1.21-.24 1.28 8.29 3.15.17 1.06-.8 3.37-.24.75 1.3 9.83 2.46 3.31-1.6 1.75.52 8.41-1.46 2.24-2 4.95-1.9-.68-1.52 1.6-2.88-.72-1 1.06-2.03-.47-.94.5-3.01 2.22-5.35-.19-2.88-1.82-3.77.9-1.41-.37-2.89.74-2.82 1.08-2.2-.13-4.8.5-1.65-1.07-1.82 1.44-3.5 1.01-1.26.12-1.73z"/>
    <path region="38" short-name="General Assembly District 37" long-name="General Assembly District 37" value="2" d="m734.98 176.86 2.98-.17 2.54-1.35 10.99 8.44 2.38 1.64-3.11 10.38-1.25 2.7-6 12.94-.41 1.3-4.4.23-1.02 2.2-.72 3.7-1 2.25-10.73-7.9-.7 3.3-2.66-.4-1.74-2.7-1.04-.06.56-3.37-1.17-1.68-1.85-.1-3.25-5.95-2.21-.37-1.52 1.03-2.47-1.86 1.18-4.58 1.52-2.08.8-4.23 1.01-2.17 2.12-2.35 3.6 1.6 3.3-2.86 1.19-.4 1.27 2.05 3.9 1.52 1.05-1.65 2.84.6 2.62-.43.8-3.97-.2-2.55z"/>
    <path region="39" short-name="General Assembly District 31" long-name="General Assembly District 31" value="2" d="m682 241.05.25-2.74 5.4 3.7 1 2.6 2.51-.44 3.14-2.26 1.23.28 2.17 1.92-.08 1.99.9 2.03 1.59.36-1.47 3.58 1.51 1.9 3.76-.75 1.1 1.33-.58 1.72-3.85 2.02-1.32 1.73 2.6 1.53 2.71.9 3.64 3.74.75-1.62 5.17 2.13 1.5 2.91 2.3.33-.43 1.9-1.23-.18-2.94 2.99-2.07 3.39-3.03-2.13-1.62 2.2.05 2.78-2.47 3.86 4.27 2.4-1.88 3.33-5.26-2.45-1.21 1.3 1.05 4.1-2.4 1.88-3.94-.37-4.04 1.7-5.24.35-2.14.63-.75-1.22.65-1.7 2.26-2.91 10.87-18.36-1.23-1.2-.56-4.63-1.6-.63-2.3.15-.26-1.6 1.38-6.7-1.82-2.07-4.41.26-1.64-1.04-1.12-3.29-2.7-.98-.5 1.11-2.85-1.3.83-2.77 1.4-1.96.6-1.96z"/>
  </g>
</svg>