<svg title="Kansas 2022 State Senate" viewBox="0 0 1000 515.48" auto-border-stroke-width="1" auto-border-stroke-width-limit=".5" original-source='["https://www2.census.gov/geo/tiger/GENZ2022/shp/cb_2022_us_sldl_500k.zip"]' candidates="[{&quot;id&quot;:&quot;0&quot;, &quot;name&quot;:&quot;Democrats&quot;, &quot;margins&quot;: [{ &quot;color&quot;: &quot;#1C408C&quot; }, { &quot;color&quot;: &quot;#577CCC&quot; }, { &quot;color&quot;: &quot;#8AAFFF&quot; }, { &quot;color&quot;: &quot;#949BB3&quot; }]},{&quot;id&quot;:&quot;1&quot;, &quot;name&quot;:&quot;Republicans&quot;, &quot;margins&quot;: [{ &quot;color&quot;: &quot;#BF1D29&quot; }, { &quot;color&quot;: &quot;#FF5865&quot; }, { &quot;color&quot;: &quot;#FF8B98&quot; }, { &quot;color&quot;: &quot;#CF8980&quot; }]}]" version="1.1" xmlns="http://www.w3.org/2000/svg">
  <g regions transform="translate(0 -242.26)">
    <path region="0" short-name="40" long-name="State Senate District 40" value="1" d="m0 242.27 19.77-.01 8.46.07h12.4l16.27.02h12.83l16.26.05 11.51-.06 4.03.02h16.79l14.52.05 16.47.03 23.93-.03 5.05.04 5.05-.03 5.09.06 23.67.03 10.54-.01 25.88.05h27.6l5.73-.05 2.38.05 15.68.02 5.06-.04 2.52.05 1.37-.09h15.85l16.95-.03 2.83.01 7.66-.05 2.7.05.02 8.52.06 16.74-.03 5.09v35.36l.04 10.08-7.99-.04-18.74.03.08 15-.05.17-.07 14.87-.3 15.07-.1 15.1.04 15.14h11.6l15.03-.05h8.57l.05.07 8.13-.12 4.16.03 3.76-.06 12.99.02 5.33-.03 3.89.06 2.55-.03-.04 1.4-.06 14.52-.12 14.27-.1 14.97.08 1.27-.27 19.59-.17 9.12-14.71-.05-22.4.04-14.65.03h-12.67l-18.15.03-14.05-.01-5-.08-.7.07-12.38.02-17.2.04-4.62-.04-24.87-.29-17.2-.19-9.77-.07-22.1-.07-18.26.02-8.25.05h-8.11l-4.85.1-7.75-.03-26.03-.26h-4.37l-2.42-.13-6.85.01-29.81.23-22.37.19-11.24.1-16.02.1-24.82.01-.7.05-.03-14.76.01-5.15-.16-40.24-.07-14.27-.1-15.66-.08-14.33-.12-20.83-.04-14.38.01-5.7-.03-6.1-.08-12.52L.1 287.9l-.06-17.73-.03-1.1Z"/>
    <path region="1" short-name="12" long-name="State Senate District 12" value="1" d="m816.09 654.87.04-19.63-.1-17.33h.44l-.05-6v-13.74l-.07-17.33.07-19.76-.04-2.5.04-15.14h1.14l-.05-8.85-.01-13.5.03-7.45 17.14.06 14.8-.07 5.1-.05 9.9.06 12.28.03-.06-25.78.02-1.64 4.73.06.18 1.06.59-.07.4.68 1.49-.05.08-1.6 5 .03-.04-2.57 4.96-.02.04 10h4.9l.03 5 17.34-.01.01-1.49 4.99-.12.08-9.35-.02-11.52 14.64.08.02 7.48 17.15.17 17.24.1h13.4l-.07 2.4h-.58v2.48l1.24.05-.09 9.94 12.36.17-.12 19.74v6.67l.09 8.47v16.58l-.16 11.57-.03 15.28.01 3.91-3.69.05-9.65-.06-2.48-.05-2.46.05-4.77-.08-14.93.05-2.38-.04-4.98.08-2.33-.08-14.48-.03-.15 14.84-.15 12.32.05 9.86-1.1.02.01 9.88-.03 4.9-3.65.02-1.25-.26-4.83-.05-1.19.23-3.98.05-11.92-.01-12.13-.05-5.9.02-.28-.05-6.17.06h-7.3l-.08 19.61.12 9.84-.04 4.63.06 4.06-.09 9.04.01 11.76-6.15.01-12.63-.1-15.74-.15-13.89-.13-6.14-.08h-3.87l-.12-10.01v-9.47l.11-7.58z"/>
    <path region="2" short-name="18" long-name="State Senate District 18" value="1" d="m733.1 318.43 10.82.05 19.9-.02 18.6-.01h11.44l12.19.02.1 25.34.07 7.6-.06 20.24-.06 7.43 17.46-.02 7.51.02h28.56l6.24.07.06-10v-5.06l7.99-.1 13.18-.04h8.62l.02 2.65h7.6l15.04-.08 2.34.07-.04 15.07.04 12.56h-1.05l.05 9.63.06 5h-11.74l-.65-.53-.65.1-.15.68.4.7-.38 1.12.05-.64-.91-.97-.82-.14-2.3 1.3-1.75.53-2.27-.09-.93-.5-.84-.03-1.02-.8-2.93-1.54-.53-.41-1.2-1.53-2.5-1.23-2.4-.45-2.6.27-3.44 1.96-1.53.5-.76-.3-1.1-1.53-.83-.44-1.08.38-1.68-.2-1.12-.52-.8.14-2.94 2.1-1.55.37-1.94-1.84-.21-1.53.5-1.45-.02-.77-.73-.3-1.78 1.05-.66-.06-1.66-.93-1.93.29-.37.6-.11 1.9-.28.77-.68.67-1.17.32-1.3-.42-.54-.55-2.19-1.06-1.55-.16-2.01.43-1.38.15-.04.51 1 .02-.03 2.83-2.72.04-.44 1.26-3.51.05.56-.64-.62-1.13-1.96.08-1.15.45v1.3l-2.48-.01-.02-1.12-1.42-.26-1.07-.39.03 5.48-2.4-.03-1.24.68-1.44.53-1.13-.03-.02-4.96-8.72-.05v-9.43l-1.28-.07-.8-.52-.39-.72-1-.92-1.11-.29-1.27.54-.92.07-1.6-1.11.53-.98.92-.14.95-.8-.24-1.06-.46-.13-.97.37-.69.68-.49.9-1.04.45-1.22-.36-1.58-.89.14-1.69-.5-.67-1.76-.04-2.76-1.52-1.42-.37-.36-1.1.95-.79 1.74.15 1 .82.77-.09-.15-1.15-.84-1.08-.8-1.73-1.68-2.15-1.7.3-1.1-1.44-.96.01-.52 1.6-.42.44-1 .2-2.33-.8-1.26-.15-1.92.31-1 .35-.62-.6.07-1.79-.6-.76-1-.15-.81.22-.45.72-.68.46-2.04-.2-.65-1.06-1.13-.9-.84.22-.93 1.13-.38 1.17-.64 1.12-1.53 1.83-1.02.21-1.14-.73-.82-1.26-.8-.78-1.23-.36-1.07.28-1.36 1.05-.44.65-.86 3.52.37.83-.4.35-.8-.57-1.24 1.43-1.56-.45-.2-.47.46-1.79-.17-.6-.76.17-1.28 1.36-.88-.08-1.3-1.42-1.23-1.15-1.89-.95-2.34-.3-2.12-.67-1.52-.02-.6.48.24.69-.53.99.45 1.6-.36.4-1.76.38-.3-.7-.05-1.22-.8-.66-.65.28-.38 1.41-1.16.37-2.02-.6-.37-.88.64-1.33-.4-.67-3.83.89-1.1.61-.58-.7-.38-2.37.27-.3 1.48.31 1-.23 1.28.39 1.58-.55.06-1.16-1.18-.91-1.55-.69-.53 1.09-.55-.07-.4-.82-.16-1.51-1.14-2.89-.42-.33-.76.49-1 .16-.5.51-.95-.7-.18-.72 1.01-.58.8.36.54-.51-.03-.58-.8-.46-.14.7-1.74-.15-.56-.48.08-1.37-.33-.62-1.45-.34-.58-.39-1.87-2.19-1.19-1.09-.6-.97.92-.41-.11-.63-1.47-1.53-.8-.32-.84-1.33.9-.43.45-1.16-1.26.32-1.45-.71-.66-1.05.29-.57.84-.18.3-.77-1.25-.08-2.78-2.82.8-1.03.18-.74-.57-.65-.8.24-.88-.99-.08-.5-2.19-2.01-1.17-1.92.88-.1.7-1.19-.06-1.42-1-.34-.71-.94 1.32-.51.64-1.16-.76-.46-.42-.86 1.78-2.82.38-.2 1.35.63 1.05-.83-.26-.98 1.03-2.5.52.26-.4.75.78.76 1.04-.5.82-3.05.64-1.26.95-1.14.73.2.6-.73-.67-1.18.05-.54 1.05-1.03 1.67-1.9 1.13.84.79-.62 2.77-1.82-.27-1.24z"/>
    <path region="3" short-name="3" long-name="State Senate District 3" value="1" d="m818.1 461.36-.05-7.72-.03-14.78h7l12.82.2 14.94-.21h.58v-2.2l-.2-2.78 4.54-.01-.09-5.64 1.26-.01-.24-1.84-.53-.03-.55-.62-.01-1.8-2.48-.04-.04-6.53.96-.63 1.27-1.31 1.73-1.57 1.07-1.29.04-1.21h1.87l.95-.2 1.07.13 2.38-.11-.03 2.7 3.23-.01.64-.54v-.71l1.44-.11.52.16.6 1.21 4.93.03.03 2.46 9.72.06 4.98-.03 2.94.1 1.76.41 1.66.14.07 1.05 1.08.83 1.26-.04v.63h1.27v1.87h1.26v2.5l3.5.23-.04 1.49.23.75-4.98.02.56.26 1.68 1.9 3.6 1.65 1.33.05.35.67.69.15v-.95l1.37-.9-.02-.36 4.17-.04.4.35.83-.23v-1l.63-.33 1.9.03v-1.3l2.61.04-.17 10.04v2.5l-9.93-.04.03 7.3.02 15.28 9.92.04 7.44-.04 7.45.02-.03 7.5h-1.22l.07 7.41-14.64-.08.02 11.52-.08 9.35-4.99.12-.01 1.49h-17.34l-.02-5-4.9.02-.05-10h-4.96l.03 2.58-5-.03-.07 1.6-1.5.05-.39-.68-.6.07-.17-1.06-4.73-.06-.02 1.64.06 25.78-12.27-.03-9.92-.06-5.08.05-14.81.07-17.14-.06.04-7.46-.01-6.97.04-7.83.02-12.97-.01-9.54h.53z"/>
    <path region="4" short-name="20" long-name="State Senate District 20" value="1" d="m743.71 408.93 14.8.07-.08-5 .06-10.03h.2l.05-7.35 1.29 1.42.88.09 1.28-1.37.76-.16.17.6-.46 1.78.2.47 1.56.45 1.25-1.42.79.56.4-.35-.37-.83.86-3.52.44-.65 1.36-1.05 1.07-.28 1.22.36.81.78.82 1.26 1.14.73 1.02-.2 1.53-1.84.64-1.12.38-1.17.93-1.13.84-.22 1.13.9.65 1.06 2.04.2.69-.46.44-.72.82-.22.98.15.6.76-.06 1.79.62.6 1-.35 1.92-.3 1.26.14 2.32.8 1.01-.2.42-.43.52-1.6.96-.02 1.1 1.43 1.7-.28 1.67 2.14.81 1.73.84 1.09.15 1.14-.77.09-1-.82-1.74-.15-.95.79.36 1.1 1.42.37 2.76 1.52 1.75.04.51.67-.14 1.7 1.58.88 1.22.37 1.04-.47.5-.9.68-.67.97-.37.47.13.23 1.07-.95.79-.92.15-.53.97 1.6 1.1.92-.06 1.27-.54 1.11.3 1 .91.38.72.81.53 1.28.06v9.43l8.72.05.02 4.96 1.13.03 1.44-.52 1.25-.7 2.4.04-.04-5.48 1.07.4 1.42.25.02 1.12h2.49v-1.3l1.14-.44 1.96-.08.62 1.13-.56.64 3.5-.05.45-1.26 2.72-.03v1.25l1.25-.01-.01.99.62-.01-.02 1.5.63.7 1.25.02v1.01l-.9-.01-.36.46-.07 2.14-.51.7h3.08v1.53l1.33-.02.98-.53.04 6.54 2.48.03v1.8l.56.62.53.03.24 1.84h-1.26l.09 5.65-4.55.01.2 2.77v2.22l-.57-.01-14.94.2-12.83-.18-6.99-.01.03 14.78.06 7.72-12.41.03-12.4-.02-18.05.03-9.24-.06-7.37.04-.04-2.22-.04-12.71-2.43-.03-2.6.1-9.85-.13-.04-14.91.01-7.61z"/>
    <path region="5" short-name="22" long-name="State Senate District 22" value="1" d="m702.8 318.41 9.46-.01 20.84.03-1.43 2.32.27 1.24-2.77 1.82-.8.62-1.12-.84-1.67 1.9-1.05 1.03-.05.54.66 1.18-.6.74-.72-.2-.95 1.14-.64 1.25-.82 3.05-1.04.5-.77-.76.39-.75-.52-.27-1.04 2.51.26.98-1.05.83-1.34-.64-.38.2-1.78 2.83.42.87.76.45-.64 1.16-1.32.52.72.93.99.34.06 1.42-.7 1.18-.88.11 1.17 1.92 2.19 2 .08.51.88 1 .8-.24.57.64-.18.74-.8 1.03 2.78 2.82 1.24.08-.3.77-.83.18-.3.57.67 1.05 1.45.7 1.26-.3-.44 1.15-.9.43.83 1.33.8.32 1.47 1.53.11.63-.92.41.6.97 1.2 1.1 1.86 2.18.58.4 1.45.34.33.61-.08 1.37.56.48 1.74.14.15-.69.79.46.03.58-.55.51-.79-.36-1 .58.17.72.94.7.5-.51 1.01-.16.76-.49.42.34 1.14 2.88.17 1.51.4.82.54.07.53-1.08 1.55.68 1.18.91-.06 1.16-1.58.55-1.28-.39-1 .23-1.48-.32-.27.31.38 2.37.58.7 1.1-.61 3.83-.89.4.67-.64 1.33.37.88 2.02.6 1.16-.37.38-1.41.65-.28.8.66.05 1.23.3.7 1.76-.4.36-.38-.45-1.61.53-1-.24-.67.6-.49 1.52.02 2.12.68 2.34.3 1.89.94 1.24 1.15-.06 7.35h-.2l-.05 10.03.07 5-14.79-.07.03-5-12.77-.13-5.04.05h-9.68l-.02-3.11-1 .18-1.1-.22-.9.65-.99 1.32-1-.35.01-.98-14.47-.09.02-2.17 1.56-2.56 1-.7.16-3.39h-2.5l-.03-13.79-14.98-.18.1-15V344.5l.2-11.28.1-14.82z"/>
    <path region="6" short-name="1" long-name="State Senate District 1" value="1" d="M732.91 242.64h15.82l21.33.06 10.81-.01 9.31.04h8.65l5.1-.04 12.54.03 10.13.01h13.14l14.94.02 15.39.03 24.5.03h8.98l.15 1.9.62.84 1.71 1.16 2 .98.66.47 1.64 2.54 1 1.1 1.18.64 1.38.2 1.46-.11.86.21 1.25.75.42.83-.1 2.05-.5 1.27v1.2l.52.74 1.08.6 1.93.1 2.63-1.2 1.36.17.78.7.19 1.14-.13 1.06.37 1.34.79.84.88.47 2.98.88 2.11 1.05 1.16.25 5.86-.67 1.32-1.05.38-1.27-.11-1.38.2-.78.76-1.08.75-.45 1.25-.08 1.81.6 1.68-.09 2.48-.73 2.06.62 1.26.83.88 1.27.09 1.02-.57 1.34-.98.98-.48 1.03-.02.78.66 1.19 1.54 1.48 1.23.9 1.85.4 1.4-.1.77.23.8.73.59 1.4.03 2.44-.61 1.67-.43.54-1.19.55-4.37.23-.95.6-.41 1.3.2.91 1.08 1.25 1.26.96 1.41.27.95-.32 2.38-1.74 1.38-.3.53.22.86 1.5.17 1.64-.46 1.86-.97 1.47-.74.7-1.13.65-1.02.34-1.46.12-2.1-.8-1.57-1.15-1.23-1.08-1.28-.7-.88-.02-1.34 1.16-.69 1.2-.08 1.57.35 2.74-.07 2.52-.32 1.14-.67.88-1.04.6-1.27.23-2.07.14-1.24.5-1.25 1.3-2.93 4.8-.52 1.3-.24 1.52.29 1.33.68 1.34.2.81-.38 2.1-1.02 1.56-1.02.6-1.63.06-1.72-.74-.84.07-1 .5-.57.68-.75 2.56-.06.9.57 2.03.86 1.55 1.36 1.58 2.05 1.86 2.4 1.28.98 1.07.31.97.37 3.38.85 1.49.99.95 2.35 1.4 2.69.8.75.35 1.07.98.45.75.3 1.65.49.87.92.76 1.5.6.94.91.2.51.1 2.05 1 1.17-.03 2-.97.02-.03 4.35h.29l-2.3 3.91.74.16-.18 1h-.86l.02.63h1.01l-.04 3.52-1.25.36-.03 1.14 1.25-.01v1.24l-.95.02-.02 1.25.94-.01v1.26l-1.25.02-.05 2.35h1.26v8.98h-2.55l-2.38-.01-18.18-.02-6.9-.04.03-15.07-2.33-.07-15.03.07-7.61.01-.02-2.64-8.62-.01-13.18.05-8 .09.01 5.06-.06 10-6.25-.06h-11.2l-17.35-.01-7.5-.02-17.47.02.06-7.43.06-20.24-.08-7.6-.1-25.34-12.19-.03h-11.43l-18.6.02-19.9.02-10.82-.05-20.84-.03-9.46.01v-10.08l-.02-15.12.02-5.07h24.28l5.84.08-.04-15.2-.01-10.15z"/>
    <path region="7" short-name="36" long-name="State Senate District 36" value="1" d="M354.85 242.47H386.15l7.54-.04h23.95l13.44-.03 16.62.03 2.7-.06 5.06.05 1.58-.04h8.77l1.97.03 22.6-.02 15.8-.02 3.2.04 7.58-.05 12.57.06 22.5.03 14.77.01 20.4.01 21.16.01 19.06-.03 15.08.09 15.29.01.61-.05 11.82.08 17.86-.03 15.17.02 14.55.03 15.11.04-.04 20.23.01 10.15.04 15.2-5.84-.08H702.8l-.02 5.07.02 15.12v10.08h-20.4l-.1 14.82-.2 11.28.01 18.95-.1 15 .09 3.97-.05 11.2h-.24l-12.43-.12-19.13-.09-23.1.27-.01 23.18-.06 6.86-14.86-.05-14.85.04-6.65-.04h-23.36l-14.9-.05v15.04l-19.88.02-4.9.04h-6.98l-.54.05-7.45-.1-3.1-.1-1.93.08-7.49.06-4.97.01-4.98-.04-12.32.03-.09 14.93-.08 14.96h-13.93l-14.92.03h-19.82l-25.9-.01.18-9.12.27-19.6-.08-1.26.1-14.97.12-14.27.06-14.52.04-1.4-2.55.03-3.89-.06-5.33.03-13-.02-3.75.06-4.16-.03-8.13.12-.05-.07h-8.57l-15.03.05h-11.6l-.04-15.14.1-15.1.3-15.07.07-14.87.05-.17-.08-15 18.74-.03 7.99.04-.05-10.08.01-20.2v-15.16l.03-5.1-.06-16.73z"/>
    <path region="8" short-name="37" long-name="State Senate District 37" value="1" d="m937.3 461.45.03-22.52 19.73.08.03-8.28.61.77.63.01v1.25h2.48l.02-1.88 2.48.25v.4l6.19-.03v2.51l-1.24-.01-.02 2.51.48.02-.04 2.3-.63.85-1.01.4.02 3.93h-2.76l-.81 1.68-1.4.6-.03 15.2.8-.02.1.8-.63 1.17-.07.62 3.52-.07.02 2.47 1.25-.05-.24 2.56 2.7-.03-.08-2.46 2.1.01.44-.36.06-4.63 4.94.01 4.97-.02 7.45.04h7.78l-.31 20.2v6.9l-.08 10.52-12.36-.17.09-9.94-1.25-.05.01-2.49.58.01.07-2.4h-13.4l-17.24-.1-17.15-.17-.02-7.48-.07-7.4h1.22z"/>
    <path region="9" short-name="4" long-name="State Senate District 4" value="1" d="m974.92 393.08.61-.21.02-3.09.46-.84.83-.65-.04-1.19 2.5.41.13-.43.72.18 1.73.03 1.27-.24 2.39-1.41 1.22-.86.92-.13 1.5.4.71.5.63.85-.3 1.97.3.85 1.13.65 1.47.06 2.12-.5 1.09-.58.96-.18.93.24 1.48.84.3.85-.2 1.88-1.41 1.8-1.05 1.83.12.78.02 4.1-1.12-2.22-.8-.01.02-.96h-2.5l-.09-.62-2.52.66-.3.66-.65.02-.71.46-.83-.45-.24.73-1.14-.5-2.1-.31-.55.07-1.24.8-.23-1.05-3.54-.16v-.64l-.67-.58-.09-.54-3.73.04-.01-2.12-.53-.87z"/>
    <path region="10" short-name="31" long-name="State Senate District 31" value="1" d="m582.84 558.09 14.7-.06 7.31.03 17.28.05h4.93l14.51-.2 9.72-.01 5.07.05.02 13.5.02 16.16.04 14.9-14.83.07.15 14.82h-.09l.03 7.4h-1.22v-1.23h-1.23v1.23l-.93.1-.86 1.46-.65.66v4.2l-2.7-.06-.13-1.84-.34-.86-2.5.56h-.48l.01 3.21-1.24.28-.8.99.23 1.25-.63-.02-.63.52-1.73-.14-.82-.81-1.7 1.9-1.1-1.41-.06-4.6-.6-.47h-.6l-.02-1.21-3.68.04-.05-6.23 2.46-.01-.02-4.9-7.37-.03-14.52-.03-8.23.03-6.43-.01h-.33l.03-14.81v-17.28l.02-12.35z"/>
    <path region="11" short-name="15" long-name="State Senate District 15" value="1" d="m740.48 654.32 4.29-.04 12.67.08 3.14-.05 16.38.17 3.86-.02 13.34.12 10.21.12 1.76.09h4.18l5.78.08-.09 9.6-.12 7.58v9.47l.13 10.02h3.87l6.14.07 13.89.13 15.74.14 12.63.11h6.15v-11.77l.08-9.04-.06-4.06.04-4.63-.12-9.84.07-19.62 7.31.01 6.17-.06.27.05 5.9-.02 12.14.05 11.92.01 3.98-.05 1.2-.23 4.82.05 1.25.26 3.65-.02.01 9.82.03 13.52-.09 5.53v7.97l.1 7.33-.06 14.76h1.77l-.02 2.47-.03 17.25.15 4.15v16.16l.1 24.61-26.05.01-18.74.04h-13.91l-3.06-.02-21.74.02-12.08-.02-2.84.04-13.7-.04-12.14.08-18.8-.02-5.84-.04-2.05.03-10.23-.04h-15.8l-14.2.1h-3.39l.02-16.95v-17.1l.02-9.78.06-7.28-.04-14.47-.07-10.4v-6.68l-.09-1.73.08-4.68-.04-1.16.07-4.91z"/>
    <path region="12" short-name="38" long-name="State Senate District 38" value="1" d="m244.48 543 24.2.12 6.17.01h16.75l.36-.04h22.91l3.43-.05 14.16-.02.05 9.92.08 18.55-.03 18.67-.02 12.3-.1 14.83h1.39l.08 15.88.25 17.19-.01 2.37.23 25.13.1 13.04-.05 1.57h1.69l-.2 13.41-.01 6.9.1 11.5.24 12.4.14 19.96H322l-1.21-.1-15.61-.11-13.57-.14h-16.05l-16.15-.1-10.45.02-10.22.06-22 .11-15.73.09-24.5.26h-10.7l-5.54.07-6.55.01-5.5.07h-8.98l-7.21.04-.12-21.59-.05-14.65-.03-20.72-.02-8.62-2.9.01.04-12.95-.1-16.47.04-24.55.03-4.95 12.2-.07h7.33l19.56.03h4.9l14.62.05.06-15.67-1.8-.02.05-11 .09-18.5 21.1.21 8.2.1 7.3-.04 22.03-.02.14-14.83-.02-11.16z"/>
    <path region="13" short-name="13" long-name="State Senate District 13" value="1" d="m933.05 633.08.03-4.9-.01-9.88 1.1-.02-.05-9.86.15-12.32.15-14.84 14.48.02 2.33.1 4.98-.09 2.38.04 14.93-.05 4.77.08 2.47-.05 2.47.05 9.65.06 3.7-.05-.07 8.38-.02 7.38-.18 11.22-.24 17.87-.03 8.6.05 11.62.06 16.93.05 5.4-.05 8.76v5.03l-.05 4.88v7.88l-.06 17.23-.07 13.58.06 8.21-.02 3.23.04 9.47v9.71l-.98.04-9.99-.02-5.01.02-15.55-.03-19.04-.11H935l-.08-24.6-.01-16.17-.15-4.15.03-17.25.02-2.47h-1.77l.06-14.77-.1-7.32v-7.97l.1-5.53-.04-13.52z"/>
    <path region="14" short-name="25" long-name="State Senate District 25" value="1" d="m623.35 636.2 1.7-1.9.82.8 1.73.15.63-.52.62.02.86-.05.86.99 1.34-.01v1.54l-.34.1V639l-1.11.39-.93-.3.03 1 .86.23.75.64 5.65-.06.02 3.68 2.46-.02v.62h2.45v-.61l1.78-.01-.02 1.23h.61v2.47l-2.37-.02.02-1.21h-1.25l-1.16 1.19 1.17.08.02 1.22-1.26.04-.6.62-.02.62-1.12.02-.1-1.25h-.62l.01-3.76h-.78l-.05 1.24-4.91.03-.57-.3-2.06.02v-1.23l-1.3.01-.03-4.27h-2.44l-.03-4.22-2.12-.02z"/>
    <path region="15" short-name="24" long-name="State Senate District 24" value="1" d="m681.8 393.63.05 7.9-.02 7.15-.07 12.08.01 1.75.78-.32 1.53-1.4 2-.2.68-.5-.06 18.7 4.88.05.01 9.96h-4.97l-.04 15.72.03 4.24h-.41v2.85l-.37 3.8.38 1.16v7.06l-11.17.03-2.03.03-16.33-.1-7.24.06h-19.88l-2.52-.02-19.76.03-13.68.04-10.99-.03-22.85-.08-.17-.09-6.63.04-.04-14.92-.45-.02v-14.95l-.01-14.98v-15.04l14.9.05h23.36l6.65.04 14.85-.04 14.86.05.06-6.86V393.7l23.11-.27 19.13.09z"/>
    <path region="16" short-name="9" long-name="State Senate District 9" value="1" d="m922.53 426.35-.02-4.25-.93.37-1.67.1-.13-13.71-.06-5.01-.05-9.63h1.05l-.04-12.56 6.9.04 18.18.02 2.38.02-.03 12.54h-.96v4.64l7.46-.02v-2.17l.64.01v.95h.62v-1.26l1.83.16 1.27-.08 5.48-.03.02 2.08 1.15-.25 2.82-.13 1.74.1 1.78.07.02 7.45 1.25-.2-.02 2.95-1.69.4-2.62-1.15-1.18-.9-1.33-.78-.8-.24-2.35.09-1.2.26-.63.38-.96 1.11-.33 1.58-.68 1.87.36 1.8v.7l-.85 1.54-1.87 2.74v6.66l1.46.92 1.95.05 2.54.94h1.57l5.22-.03 3.33.06.63.55v.63l-1.25.01V429l.62-.01-.01 1.88h2.5l.86-.63-2.09 2.52-.76 1.22-4.15.03v-2.5l-6.18.02-.01-.4-2.48-.25-.02 1.88h-2.48v-1.25h-.63l-.61-.77-.03 8.27-19.73-.08-.04 22.52-7.45-.02-7.44.04-9.92-.03-.02-15.28-.03-7.31 9.93.05v-2.5z"/>
    <path region="17" short-name="11" long-name="State Senate District 11" value="1" d="m986.86 436.5 2.5-.01v-2.52l2.5.01.41-.63 1.23-.86-.39-1.02h-1.24l.02-2.51 1.77-.01.74-.9-.01-2.87h1.24v-1.28l1.72.02.03 3.42v15.44l.05 3.38-.26 15.37h-7.78l-.03-7.51h-1.3l.01 3.76h-1.18l-.01-5.04h-2.49l-.02-2.47h2.5v-3.75l-2.52-.01v-2.5h2.53l-.02-5.01h-1.87v-2.5z"/>
    <path region="18" short-name="30" long-name="State Senate District 30" value="1" d="M633.2 661.52h2.94l1.52 1.11 1.02.2.12 1.1.75.61.57 1.49-.47.98.01 1.06 2.1-.05v-3.7l2.4-.04-.04-16.02v-2.47h-.61l.02-1.23h-1.78v-.92h1.15v-1.58l-2.38.05-.01-3.71h.4l-.14-1.24h.96l8.27-.03.43 1.25 1.05.92.5 1.07.05 1.7 4.34-.02v8.68l.04 11.02-.08 14.78-7.34-.02.31.49.05 1.47-2.32.05v.19l-2.42-.14-.15 2.11-2.25-1.03-.4-.35.23-.85-.51-1.33h-1.83l-.05-.63-12.22-.25-.18-12.25h5.96z"/>
    <path region="19" short-name="32" long-name="State Senate District 32" value="1" d="m568.67 676.76 14.72-.05 14.73-.11 14.69-.1 14.62-.26 12.22.25.05.62h1.83l.51 1.34-.22.85.4.35 2.24 1.03.15-2.1 2.42.13v-.19l2.32-.05-.05-1.47-.31-.5 7.34.03 6.1.01 8.57-.05.02-17.21-.03-12.3.01-12.34h2.83l.78-.15 1 .17 10 .02-.06 6.43.02 5.91 15.21-.08.58.05 13.6.05 25.44-.1.08 7.38-.03 7.33-.07 4.9.04 1.17-.08 4.68.08 1.73.01 6.68.07 10.4.04 14.47-.06 7.28-.01 9.78v17.1l-.03 16.95-10.96-.04-17.31-.06-1.78.05-5.65-.03-11.29-.01-7.82.03h-14.9l-13.65-.01-14.48.02-11.65.01-16.02.04H595.6l-4.1-.07-8.03.04-24.03.04-11.9.03-19.66.05-16.84.03h-14.67l-.04-6.4-.09-19.53-.08-9.7-.02-4.89-.09-14.7-.03-9.72 4.2-.02 14.42-.02.13-.03 10.02.03 14.66-.16 17.48-.06 11.8-.12z"/>
    <path region="20" short-name="34" long-name="State Senate District 34" value="1" d="m553.32 558.1 14.79.02 14.73-.03.01 14.83-.02 12.36v17.28l-.03 14.8h.33l.13 15.28-1.3.11-9.68.11-3.64-.01v2.5l.14 11.01-.21 1.23.02 9.86.06 4.5.02 14.81.07 14.83-11.8.12-17.49.06-14.66.16-10.02-.03-.13.03-14.42.01-4.2.03.03 9.72.1 14.7v4.88l.1 9.7.08 19.54.04 6.4-8.28-.1-18.18-.07-22.76-.01-6.3-.07-4.07.03h-10.39l-17.53-.04-.1-20.57-.04-.5v-9.3l-.1-11.51-.05-.22.07-7.93v-12.24l.08-2.45h-1.36l-.04-7.89-.05-.86-.06-5.78 17.83.04 21.98-.09.59-.06 10.99.1 22.03-.1-.04-22.06.02-17.22v-14.83l-.01-5.7h-.99l.04-14.78-.05-14.8-.02-14.79-.04-14.84 13.58-.14 20.82.01.01 2.51 6.17-.05 3.72-.08-.02-2.45h4.87l17.23.14z"/>
    <path region="21" short-name="14" long-name="State Senate District 14" value="1" d="m552.96 483.54 6.63-.04.17.1 22.85.07 10.99.03 13.68-.04 19.76-.03 2.52.02h19.88l7.24-.06 16.33.1 2.03-.03 11.18-.03.04 14.9h14.8l14.8.07h14.94l8.51.05 9.61.01h14.54l-.06 9.9-.09 11.82-.07 22.94h-.1l-.07 9.9-.08 5.06 15.67-.03 18.3.17 8.87.03 10.55.13.04 2.5-.07 19.76.07 17.32v13.74l.05 6.01h-.44l.1 17.33-.04 19.63-5.78-.08h-4.18l-1.76-.09-10.2-.12-13.35-.12-3.86.02-16.38-.16-3.14.04-12.67-.08-4.29.04-.08-7.38-25.43.1-13.61-.05-.58-.05-15.2.08-.03-5.91.06-6.43-10-.02-1-.17-.78.15H671l.02-2.46-.06-14.79.26-.02v-7.4l.04-7.4-.09-8.39.09-1.47-.03-4.94-14.83-.16-.02-16.17-.02-13.5-5.06-.04h-9.73l-14.5.21h-4.93l-17.29-.05-7.31-.03-14.7.06-14.73.03-14.79-.02-.01-13.6-.03-1.19h-.37l.1-14.93-.02-14.54.05-14.1z"/>
    <path region="22" short-name="39" long-name="State Senate District 39" value="1" d="m.88 468.5.7-.05 24.81-.01 16.02-.1 11.24-.1 22.37-.2 29.81-.22 6.85-.01 2.42.14 4.37-.01 26.03.26 7.75.03 4.85-.1h8.11l8.25-.05 18.26-.02 22.1.07 9.77.07 17.2.2-.07 7.5-.11 2.58.22 23.88-.04 1 .18 14.86.2 24.78h2.3l.2 18.5.02 11.17-.14 14.83-22.02.02-7.31.04-8.2-.1-21.1-.21-.09 18.5-.04 11 1.8.02-.07 15.67-14.62-.06H168l-19.56-.03-7.32.01-12.21.07-.03 4.95-.05 24.55.11 16.47-.03 12.95h2.89l.02 8.61.03 20.72.05 14.65.12 21.59-19.43.13-9.61.08-17.66.11-9.43.06-9.36.04-10.36.07-11.49.07-14.5.09-14.57.08-14.32.09.03-7.06-.01-17.91v-19.59l.04-6.65-.04-9.26.06-3.77-.03-10.1v-12.02l-.04-4.93.06-12.28V641.9l-.08-13.5-.1-7.35-.04-10.93-.08-10.22-.1-19.96.04-11.48-.02-23.36-.07-22.95.07-5.37-.07-.66-.05-5.81.01-15.44v-12.24l.02-9.33Z"/>
    <path region="23" short-name="21" long-name="State Senate District 21" value="1" d="M984.34 412.62h3.78v2.5l1.26.02v1.26h-1.26v1.25h-.62v1.26h.62v3.78h-6.23v3.76h-1.87v2.52h-.62l-1.64.01-.1.59-.77.67h-.39l-.86.62h-2.5l.01-1.87h-.62v-1.25l1.25-.01v-.63l-.63-.55-3.33-.06-5.22.02-.06-2.53 1.21.68 1.26.04 1.03.58 1.45-.28-.02-1.57.17-.86-.44-.64-.33-1.28 1.03.85 2.11-.04v-2.5l3.6-.01v-1.25l1.46.06 7.3-.08z"/>
    <path region="24" short-name="23" long-name="State Senate District 23" value="1" d="m969.5 434.01 4.15-.03.76-1.22 2.09-2.52h.4l-.05 11.61-1.22.27-.01 3.11-1.24.05v3.71h2.49l.1 7.52v5l-4.94-.01-.06 4.63-.44.36h-2.1l.08 2.45-2.7.03.24-2.56-1.25.05-.02-2.47-3.52.07.07-.61.62-1.17-.09-.8-.8.01.04-15.2 1.39-.6.81-1.68h2.76l-.02-3.93 1-.4.64-.86.04-2.3-.48-.01.02-2.51z"/>
    <path region="25" short-name="5" long-name="State Senate District 5" value="1" d="m948.14 381.74 2.54-.01.01-8.98h-1.26l.05-2.35 1.24-.02.01-1.26-.94.01.02-1.25.94-.02.02-1.24-1.26.01.03-1.14 1.25-.36.04-3.53h-1.01l-.01-.62h.85l.18-1-.74-.16 2.3-3.9-.29-.01.03-4.35.97-.02.02-2 .61.27 1.41.18 1.82-.76 1.04-.68.91-.13 1.34.65.54 1.02.25 1.42-.3.93-1.28 1.1-1.55.63-.93 1.06-.16 1.03.34 4.27.37 2.03.7 2.04.65 1.03 1.1 1.34 1.17.93 2.84 1.26 1.44.93 1.14 1.05.85 1.06.54 1.1.24 1.41-.28 1.34-.96 1.76.44 1.37 1.05 1.04 1.63.57 1.6.1 1.66-.28.78.26.8.96.7 1.83.96 1.75 1.45 1.15 1.4.52-.14.43-2.5-.4.04 1.18-.83.65-.46.84-.02 3.09-.61.2-1.88-.07-3.88.03.9 3.1.12 2.15-1.73-.1-2.83.13-1.15.25-.02-2.08-5.48.03-1.27.08-1.82-.16-.01 1.27h-.63v-.96l-.62-.01-.01 2.17-7.46.02v-4.64h.97z"/>
    <path region="26" short-name="6" long-name="State Senate District 6" value="1" d="m974.92 393.08-1 .32.52.87v2.12l3.74-.04.09.54.66.58.01.64 3.53.16.24 1.06 1.24-.81.54-.07 2.1.32 1.15.49.24-.73.83.45.7-.46.67-.02.29-.66 2.52-.66.09.62h2.5l-.01.96h.79l1.12 2.23-.04 7.87h-7.97l-1.01.55.31.76-.02 2.46h-4.41v-3.75l-12.81.08 1.68-.4.02-2.95-1.25.19-.02-7.45-1.78-.07-.12-2.14-.9-3.1 3.88-.04z"/>
    <path region="27" short-name="28" long-name="State Senate District 28" value="1" d="m627.17 645.58 1.3-.01v1.23l2.06-.02.57.3 4.9-.03.06-1.23h.78v3.75h.6l.11 1.25 1.12-.02.01-.62.61-.62 1.26-.04-.02-1.22-1.17-.08 1.16-1.19h1.25l-.02 1.22 2.37.01.03 16.02-2.4.03.01 3.7-2.1.06-.01-1.06.47-.98-.57-1.49-.75-.61-.12-1.1-1.02-.2-1.52-1.1h-2.93v-2.45l-1.09-.02v-1.21l-1.57.01-.22 1.18h-1.45v-1.2h-.43l-.3-1.22.3-.61-.6-.61-.01-1.2-3.91-.01-.64-1.61-.51-2.85.03-1.65 1.93-1.31 2.44.04z"/>
    <path region="28" short-name="29" long-name="State Senate District 29" value="1" d="m636.8 631.22 1.16-.04.83-.3 2.92.01.02 6.27h-.96l.15 1.24h-.41l.01 3.7 2.37-.04v1.58h-1.14v1.55l-2.45-.01v-.62l-2.46.02-.02-3.68-5.65.06-.75-.64-.86-.22-.03-1 .93.29 1.1-.39v-1.68l.35-.1v-1.54h-1.34l-.86-.98-.86.05-.22-1.25.8-1 1.24-.27-.01-3.22.48.01 2.5-.56.34.86.14 1.84z"/>
    <path region="29" short-name="8" long-name="State Senate District 8" value="1" d="M979.4 428.97h.63v-2.52h1.87l-.02-3.76h6.25l2.5-.03v1.26l5-.02v1.28h-1.24v2.86l-.73.9-1.77.02-.02 2.5h1.24l.39 1.03-1.23.86-.41.64-2.5-.02v2.52h-2.5v-3.7l-.88-.55-.78-.77h-3.33V434h-2.5z"/>
    <path region="30" short-name="26" long-name="State Senate District 26" value="1" d="m583.13 617.37 6.43.01 8.23-.03 14.52.03.13 9.45.02 5.5-.49.76-.75.5.03 3.67-1.21.02v1.22l1.22-.02.01 1.24 1.2-.04v2.46l10.15-.2-.41-.6 2.5-.03h2.43l.03 4.27.01 1.23-2.44-.04-1.93 1.31-.03 1.65.51 2.85.64 1.6 3.91.02v1.2l.6.6-.3.62.31 1.23h.43v1.2h1.45l.22-1.19 1.57-.01v1.21l1.08.02v2.44l.01 2.46-5.96.01.18 12.25-14.62.26-14.7.1-14.72.1-14.72.06-.02-14.8-.06-4.51-.02-9.86.21-1.23-.14-11.02v-2.5l3.64.02 9.69-.11 1.29-.1z"/>
    <path region="31" short-name="10" long-name="State Senate District 10" value="1" d="m971.52 408.96 12.82-.08v3.74l.02 5.06-7.29.08-1.46-.06v1.25l-3.6.02v2.5l-2.1.03-1.04-.85.33 1.28.44.64-.17.86.02 1.57-1.45.28-1.03-.58-1.26-.04-1.2-.68.05 2.53h-1.57l-2.54-.93-1.95-.05-1.46-.92v-6.67l1.87-2.73.85-1.53v-.7l-.36-1.8.68-1.88.33-1.58.96-1.11.63-.38 1.2-.26 2.35-.09.8.24 1.33.78 1.18.9z"/>
    <path region="32" short-name="19" long-name="State Senate District 19" value="1" d="m906.6 410.92-.13 1.06.41.94.94.64.78.22.5.86 2.67 1.08.74.55.3 1.56-2.23.4-2.05-.55-.08 1.58-1 .46-.28 1.65h-4.7l-.01-1.88h-1.27v-.62l-1.26.04-1.08-.83-.07-1.05-1.66-.14-1.76-.42-2.94-.1-4.98.04-9.73-.06-.02-2.46-4.93-.03-.6-1.21-.52-.16-1.45.1.01.72-.64.54h-3.23l.03-2.7-2.38.12-1.07-.13-.95.2h-1.87l-.04 1.21-1.07 1.3-1.73 1.56-1.27 1.31-.96.63-.98.53-1.33.02v-1.54h-3.08l.5-.69.08-2.14.35-.46.9.01.01-1-1.25-.03-.63-.7.02-1.5h-.62v-.98l-1.25.01.01-1.26.02-2.83-.99-.02.04-.51 1.38-.15 2-.43 1.56.16 2.2 1.06.53.55 1.3.42 1.17-.32.68-.67.28-.77.11-1.9.37-.6 1.93-.3 1.66.94.66.06 1.78-1.06.73.3.02.78-.5 1.45.21 1.53 1.94 1.84 1.55-.36 2.95-2.11.79-.14 1.12.52 1.68.2 1.08-.38.83.44 1.1 1.54.76.3 1.53-.5 3.44-1.97 2.6-.27 2.4.45 2.5 1.23 1.2 1.53.53.41 2.93 1.55 1.02.8.84.02.93.5 2.27.09 1.76-.52 2.29-1.31.82.14.9.97z"/>
    <path region="33" short-name="27" long-name="State Senate District 27" value="1" d="m612.31 617.38 7.37.02.02 4.91h-2.46l.05 6.24 3.68-.04.01 1.22h.6l.6.46.07 4.6 1.1 1.4-.8.88 2.12.02.03 4.22-2.5.03.42.6-10.15.2v-2.46l-1.2.04v-1.24l-1.22.02-.01-1.22 1.2-.02-.02-3.68.75-.5.49-.75-.02-5.5z"/>
    <path region="34" short-name="35" long-name="State Senate District 35" value="1" d="m976.9 430.24.75-.67.1-.59 1.65-.01-.03 5.02h2.5v-2.51h3.33l.78.76.89.54-.01 3.71h-1.88V439h1.88l.02 5.01h-2.52l-.01 2.5h2.53v3.77l-2.5-.01.01 2.48h2.49v5.02l1.2.01-.01-3.76h1.3l.02 7.51-7.45-.04-4.97.02v-5l-.1-7.52h-2.49v-3.71l1.24-.05v-3.1l1.23-.28z"/>
    <path region="35" short-name="7" long-name="State Senate District 7" value="1" d="M988.12 412.62h.63l.02-2.45-.31-.76 1-.55h7.98l-.1 10.74v4.32l-1.72-.02-4.99.02v-1.26l-2.5.03v-3.78h-.63v-1.26h.62v-1.26h1.26v-1.25l-1.26-.01z"/>
    <path region="36" short-name="17" long-name="State Senate District 17" value="1" d="M681.8 393.63h.25l.05-11.2-.1-3.97 14.99.18.03 13.79h2.5l-.17 3.39-1 .7-1.55 2.56-.01 2.17 14.46.09v.98l.99.35 1-1.32.9-.65 1.1.22 1-.18.01 3.12h9.68l5.04-.06 12.77.12-.03 5.01-.06 14.93v7.62l.03 14.91 9.85.12 2.6-.09 2.43.03.04 12.7.04 2.23 7.37-.04 9.24.06 18.04-.03 12.4.02 12.42-.03.03 7.51h-.53l.01 9.54-.02 12.97-.04 7.83v6.97l-.03 7.46-.03 7.46.01 13.49.05 8.85h-1.14l-.04 15.14-10.55-.13-8.88-.03-18.29-.17-15.67.03.08-5.05.08-9.9h.09l.07-22.95.1-11.82.05-9.9h-24.14l-8.52-.06h-14.95l-14.8-.08h-14.8l-.03-14.9v-7.05l-.39-1.16.37-3.8v-2.85h.4l-.02-4.24.04-15.71h4.97v-9.97l-4.9-.04.07-18.7-.68.48-2 .22-1.53 1.39-.78.32-.01-1.75.07-12.08.02-7.15z"/>
    <path region="37" short-name="33" long-name="State Senate District 33" value="1" d="m241.79 468.4 24.87.28 4.62.04 17.2-.04 12.39-.02.7-.07 5 .08 14.04.01 18.16-.03h12.66l14.66-.03 22.39-.04 14.7.04 25.9.01 19.82.01 14.92-.03h13.93l.08-14.96.1-14.93 12.3-.03 5 .04h4.96l7.49-.07 1.93-.07 3.1.1 7.46.1.54-.06h6.97l4.9-.04 19.88-.02.01 14.98v14.95l.44.02.05 14.92.08 16.2-.05 14.1.02 14.54-.1 14.92.37.01.03 1.2.01 13.6-7.4.1-17.23-.13-4.87-.01.02 2.45-3.72.08-6.16.05-.02-2.51h-20.82l-13.58.13.04 14.84.02 14.8.05 14.79-.04 14.78h.99l.01 5.7V638l-.02 17.23.04 22.06-22.03.08-11-.09-.58.06-21.98.09-17.83-.04.06 5.78.05.87.04 7.89h1.36l-.08 2.44v12.24l-.07 7.93.04.22.1 11.52.01 9.29.04.5.1 20.57-3.9-.01-2.72.06-10.07-.03-20.45-.03-13.12-.1-4.24.1-6.59.02-11.37-.02-.15-19.95-.24-12.4-.1-11.5v-6.9l.2-13.42h-1.68l.04-1.57-.09-13.04-.23-25.13.01-2.37-.25-17.19-.08-15.87-1.38-.01.1-14.83.01-12.3.03-18.67-.08-18.55-.05-9.92-14.16.02-3.43.04-22.9.01-.37.04h-16.75l-6.16-.01-24.21-.11-2.32-.01-.2-24.78-.17-14.85.04-1-.22-23.89.1-2.58z"/>
    <path region="38" short-name="2" long-name="State Senate District 2" value="1" d="M903.72 421.37h3.45l.27-1.65 1-.46.09-1.58 2.05.55 2.23-.4-.3-1.56-.74-.55-2.66-1.08-.5-.86-.79-.22-.94-.64-.4-.94.13-1.06.37-1.11-.39-.71.15-.69.65-.09.65.54h11.74l.12 13.71 1.68-.1.93-.37.02 4.25-2.6-.04v1.3l-1.9-.03-.64.33v1l-.83.23-.4-.35-4.17.04.02.35-1.38.91.01.96-.69-.16-.35-.67-1.33-.05-3.6-1.65-1.69-1.9-.55-.26 4.98-.02-.23-.75.05-1.49-3.5-.23z"/>
    <path region="39" short-name="16" long-name="State Senate District 16" value="1" d="m656.4 587.61 14.82.16.03 4.94-.08 1.47.1 8.4-.05 7.39v7.4l-.26.02.06 14.79-.02 2.46-.01 12.33.03 12.31-.02 17.21-8.57.05h-6.1l.08-14.79-.04-11.02v-8.68l-4.34.01-.04-1.7-.51-1.06-1.05-.93-.43-1.24-8.27.03-.02-6.27-2.92-.01-.83.3-1.16.03v-4.2l.66-.65.86-1.47.93-.09v-1.23h1.23v1.22h1.22l-.03-7.4h.09l-.15-14.81 14.83-.08z"/>
  </g>
</svg>
