<svg viewBox="0 0 1000 897.33" auto-border-stroke-width="1" auto-border-stroke-width-limit=".5" original-source='["https://www2.census.gov/geo/tiger/GENZ2022/shp/cb_2022_us_sldl_500k.zip"]' candidates="[{&quot;id&quot;:&quot;0&quot;, &quot;name&quot;:&quot;Democrats&quot;, &quot;margins&quot;: [{ &quot;color&quot;: &quot;#1C408C&quot; }, { &quot;color&quot;: &quot;#577CCC&quot; }, { &quot;color&quot;: &quot;#8AAFFF&quot; }, { &quot;color&quot;: &quot;#949BB3&quot; }]},{&quot;id&quot;:&quot;1&quot;, &quot;name&quot;:&quot;Republicans&quot;, &quot;margins&quot;: [{ &quot;color&quot;: &quot;#BF1D29&quot; }, { &quot;color&quot;: &quot;#FF5865&quot; }, { &quot;color&quot;: &quot;#FF8B98&quot; }, { &quot;color&quot;: &quot;#CF8980&quot; }]}]" version="1.1" xmlns="http://www.w3.org/2000/svg">
  <g regions transform="translate(0 -51.34)">
    <path region="0" short-name="Senate District 10" long-name="Senate District 10" value="2" d="m256.62 751.98 1.54-8 5.97-30.03L266.4 702l1.19-2.99-.47-.64.03-1.44 1.5-.26.74.46.6.3 16.95-21.48 8.28-4.99 18.65-11.14 14.19-8.5 2.22-1 2.7-1.56.99-.92 17.97-11L371 620.31l-1.6-4.1-7.98-1.5-.53-1-1.06.3-1.27-.31-.51-.78 19.47-13.12 1.13.35.29 1.85 1.58 1.2 1.14.01.94.76.53 1.76 1.17.5.22 1.86 1.56-.36.84.82.43-2.27 1.24-.46.72.55.68-1.01.97 1.01.56-1.19 1.22.68 2.04.2 1.87-.3.53.75 2.2-.35.46.76 1.3.74 2.04.49 1.66-.3-5.59 5.99.52.88 7.1 19.69-4.24 3.02 5.42 9.64.3.05 1.62 5.36 2.59-3.26.65 2.13 22.28 14.98.44.24 12.41 8.44 15.53 10.73-.18 8.87-.48 19.9 20.03 17.5 6.35.98 3.54.2 1.13 1.27 1.37-.42 1.14-1.1 1.08.22.82.78.75-.4 1.34.17 1.86 1 1.92-.52 10.73-4.57 20.02-1.42 9.83-.6-1.7 4.12-1.15 1.99.35 1-.63 1.56-1.02.64-1.08 2.17-.1 1.28-.81.24-1 1.4-.23 1.76-1.29 2.12-1.97 1.07-.19 1.12-4.69 4.21-2.47 2.69-1.6 1.34-3.7 2.59-.19.67-2.34 2.6-1.95 2.93-1.29-.2-3.26 3.94.25 1.51-1.2-.06-1.2.98-.48 1.2-2.03 1.77-1.42-1.1-2.7 3.03-1.37 2.05-.63 1.82-.94 1.55-1.04.34-.35 1.52.85 1.81-1.42.52-1.68 1.54-1.67 1.93-.73 2.12-.91.87-1.56.72-1.72 2.8-.49 1.69 1.24 1.32-.19.93 1.72.4.04 1.16-3-.2-1.1 1.32-.9.11-.23 1.2-1.33-.12-.68 1.42.31 1.5-1.54.27-1.1 4.56.5 1.23 1.69.95-.21 1.01-1.03 1.36-1.27.47-4.61 5.74-1.84 1.19 3.4 8.9 2.43 2.81 5.72 2.16 3.71 2.54-1.02 1.98-2.9 3.36-1.93 1.24-1.85 1.7-2.32 1.1-4.98 3.18-6.83 3.7 3.27 4.63-.42.55-2.64 1.05-.57.96 4.25 2.27 3.6-2.33 1.87.76-3.53 6.46-1.94 1.38-2.29 1.03-2.32 1.31-2.38.4-4.68 1.87.74 1.25-1.78 1.52-2.15.94-4.12 2.57-4.63 2.67-3.53 3-2.9 1.5-1.53 1.57-1.62.6-.57.22-3.9-3.1-.5-2.48.88-3.32-3.74-6.12-1.01.82-1.45.4-1.8-.06-.92.8-1.61-.17-1.46.28-1.91.97-.99.82-3.97 2.54-1.12 1.33-1.8 1.35-3.36 1.72-1.2 1.57-1.96.3-.93 1.2-1.82 1.35-1.56.68-6.3 3.8-1.44.74-2.74 1.82-3.74 1.63-1.62.9-2.83 1.18-.65.01-2.27 1.32-2.07.65-1.35-3.01-1.13-1.25-.38-1.42-3.3-.3-1.15-.6-.05-1.54-6.11-5.17-1.06-.41-.95.66-.87-.69-1.3-.25-.51-.64-4.85-4.27-17.78-14.99-25.1-21.46.74-.79.72-1.6 1.34-.63.8.15 1.47-1.4.08-.9 1.01-.57-.51-1.02.06-1.4-.47-.47v-1.48l-.83-1.23 1.54-.77-.58-1.29 5.75-3.03.53-.8 1.97-.7-.25-1.08 1.44-1.75 2.78-.92.74-1.64 3.13-1.59.95-2.12 1.95-.44.41-.83-1.56-1.9.72-2.17 3.02.74 3.02-.89 3.17 1.17 1.14 1.7 2.23.27 1.8 1.19 1.7 2.84-.55 2.88 1.13.98.32-1.19 2.2-.94 1-1.76-.58-1.87-1.98-1.7-.38-4.25-.41-1.37-.98-1.5-3.8-2.08-1.2-1.23.05-.92 1.04-1.59.99-.66 2.27-.57 1.54-2.58-.06-2-1.29-1.66-4.16-3.18-.57-1.82v-1.48l-.42-.9-1.25-.72-1.44-1.33-2.06-.94-1.86-1.88-1.15-.67-2.72-.46-2.75.54-1.94-.08-3.1.44-2.35.02-2.38-1.08-3.08-.05-.8-1.06.03-1.24 1.94-2.02-.16-1.77-.51-.2-1.9.86-2.87.4-3.1.98-1.86-1.3-.09-1.2 3.85-.32h1.8l.48-1.57-.56-2.35 1.8-.96.57-1.05-.85-1.42.27-1.17 1-.94 1.26-.45 4.63-.92 1-.72.04-1.35-1.73-.79-1.72.01-2.83-1.57-.76-1.2-.19-1.67-.78-1.46-.2-1.53-1.66-2.4-.94-.36-1.1-2.07.17-.89.92-.48.26-1.05.93-1.2 1.11-2.5-.73.15-3.03-.46-.02-1.43-2.12.27-1.6.8-.72.96-1.29-.66-.71.8-2.28 1.04-.46-1.11 1.75-.82-.94-.96-.24-2.18 1.37-.95 1.07-1.68 1.02-.83.92.51 1.95-.53.01-1.86-2.37-.2-1.2.82-1.79.1-.88.97-1.56-.18-.43.52-.19 1.7-1.28.61-2.74-.08-1.31.6-.95 2.19-1.55-1.47-.58 2.15 1.08 1.54-.64.88-1.84.12-1.86 1.08-.68.85-1.86-.11-2.05.85-.58.93-1.44.12-.93-.95-1.94-.4-1.67.02-1.61-3.12-.47.82-1.77.07-2.39.85-.6.73-1.76-.3-.8-1.3-2.37 2.82-1.4-.74-1.06.19-.1-1.07-1.84 1.87-1.37-.66-.94.17-1.72-1.83-.83.76-1.59.6-.8-.41-.72.63z"/>
    <path region="1" short-name="Senate District 16" long-name="Senate District 16" value="2" d="m978.48 355 .96.1 2.63.96 2.48.16 1.19-.68.65-1.16 1-.65h2.17l1 .88-.22 1.16-.94.56-3.41 1.1-1.41.84-.56 1.6.53 1.18 1.21.9 2.26 1.1-.4 1-2.57-.58-1.08.36.07 1.24 2.44 2.3-.5 1.16-2.5.52-.34 1.28 2 1.41 3.63.73 2.34-.16 2.07 1.36.09.81 1.05 2.43 1.52 2.43.73 2.37.02 1.3-.9.6-1.82.33-.75.55.03.99 1.85 3.46.06 1.36-.42 1.77-.9.99-1.82 1.09-.36.73.3 1.36.78.9 4.21 1.8 1.55 1.41 1.6.1-.43.74-1.7.74-1 .85-2.5 4.57-1.11 3.05-.08 1.58-.53.73-1.23 3.03-.22 1.2-1.59.83-.04 1.45.73.1-.84 3.3-2.48 3.33-1.04 2.31-.99 1.35-.98 2.76.1 1.77-1.37 3.5-.08 1.37-1.64 2.4-1.96 4.53.14 2.04-1.25 1.97-18.5-15.39-23.03-19.18-15.4-12.61-6.54-5.59-1.46-1.05.7-2.48 1.82-3.43 2.28-3.68 1.46-1.7 1.93-2.98 1.36-2.47 1.53-3.29.79-.61v-1l1.55-3.26 3.64-6.36.86-3.4.8-1.3-.53-3.44-1.21-.36-.27-1.36.62-1.46.38-1.94.55-1.17 1.85-.57.55.25 1.51-.71.53.71 1.15.23.58.72 1.12-.76 1.8 2.66.89 2.07 2.9.71 1.59 1.72 2.27-.12 2.15 1.8-.17.68.6 1.8-.95 2.12-.98 3.93.63 1 1.2.72 1.47 1.66 2.89 1.49.82.77 3.4.48 5.03-1.36 2.37-.92 2.5-.33 2.76-1.22.39-.9 1.93-1.97.78-2.79 1.26-3.27 1.1-2.2z"/>
    <path region="2" short-name="Senate District 12" long-name="Senate District 12" value="2" d="m277.41 506.81.87-.82-.72-1.49 2.3-.64-.62-.76-.66-1.9 8.47-9.03 12.98-14.68.93-.9-.01-1.14 1.57-1.44 4.17-.71.93-.52 1.44 1.49.73-.55 1.02 1.33.35 1.52 1.48.91.48 1.5 1.67-.22.7 1.94 1.92-.47 1.3 1.74 1.36-.18.79.45 3.72-.06 1.62-.94 3.05 1.2 1.2-.67 2.02.52.51-.73 1.3.08 1.74-2.49 1.67-.14-.12-1.25 1.35-.64 1.06.26 1.3-1.07-.37-.95 1.11-.71.67.26 2.18-.81.7-.66 1.73-.56 1.67-.08 1.42.43 1.5-.73 1.71-1.86 1.04-.6-.08-1.24.68-.88 1.95-.01 1.43-2.38 2.3-.2.85.62.95-1.46 1.3-.74-.55-1.1 2.35-.25 1.62.65.8-.9-.16-.76.82-.92 1.83.17.1-1.22 1.53-.84-.44-2.6 12.94 2.5 9.6 2.46.66-1.36 1.66-1.62-.1-.62.86-1.6 1.13-.45-.05-2.48 1-.85 2.42-1.27.35-2.15 1.2-.86 4 .92 1.63-.48 1.1-.81 1.18-2.86 2.67-.55 1.03-1.09.97-2.37 1.08-.66-.42-2.99 2.47 1.06.9.89 2.8-.95.6-2.84.8-.65.75 1.55 1.96-.93.6-1.44 1.2.2.77-.4.57-3.39-.98-.9-3.5-1.08-1.36.64-.67-1.14-1.67-.58-.32-2.26 1.36-.82.7 1 1.03.55.89-.54.17-1.62-.9-1.08-.75.12-1.17-.93-.42-1.34-2.72-2.2-1.42-.39-.81-1.08.25-2.35 1.2-.55.51-2.62-1.64-.11-1.03-.78-1.11-.16-.75.56-.86-.53.65-1.65 2.1-3.24.92.3.21-1.62 2.9-2.5 1.33-.46.07-1.57L424 397l-.18-.7 2.16-1.91.38-1.96 2.28-.83.35-1.34-.93-1.03-1.56-.64.82-1.75-.55-2.13.64-.54-1.59-3.5-.06-1.86 1.76-1.73.23-3.22-1.1-.1-.24-1.63 1.41-.33.9-.81 1.31.61 1.39-.84.42-2.29-.2-1.6.73-.83.5-1.66 3.8-.67-.02-2.22 14.2 3.22 2.1.59 7.28 1.53 6.05 1.43 11.06 2.5.9.54 1.31-.93.62.78 1.92.73 13.52 8.8 1.5 1.02 14.94-2.24 1.12-.33.78-1.7 1.2-.24.44 1.27 1.77 1.12 1.88 3.82 1.6.46 1.65-.54 1.74.58 1.87 2 1.3.11 1.08.88-.95 1.55-2.56.58-.62.73.28.9 1.25 1.18 2.2.04.66.58-.46 2.43 1.16 1.78.23.95-.85 1.54 1.62.67.2-1.27 1.15.57.93 1.16-1.98.72-.51 2.28 1.36 2.96.02 2.57 1.6 1.03.72 1.01.2 2.36.41.67 1.67.73 3.27-.04 2.11 1.2-9.27 3.9-5.7.59-20.12 1.97-3.31-1.05-11.78 18.58-.47 5.22.41 2.48-.23 4.41-.59 2.8-2.37.33-1.7 3.23-10.45-.8-.98 11.09-.1.22-2.52 12.33-3.35 4.4 1.78 5.84 1.17 1.24.12 2.24.36.56-1.05 1-1.28.03-1.07 1.95-1.31 1.19-.5 1.01.97.55-.33 1.61-1.99 2.7.32 1.27-1.44.92-.03.97-1.37.37.31.9-.39 1.42-1.03.87v2.07l-2.45-.25-.9.74.5.86-1.05 1.73-4.58 27.75 3.34 10.61-1.98-.52-.52.75-2.4-.74-1.28.4-.64-.78-1.27.36-.58 1.04-.95-.7-.97.38-.45-1.48-.82-1.04-1.19-.69 1.26-2.6.02-1.95-.43-.99 1.16-2.56 1.07-.34-.8-1.54-2.08.63-1.49-2.26 1.06-.97-.94-2.18-1.24-.44-1.08.85-1.5-.78-.73-.79.38-.83-.06-1.62.93-1.27-.25-.94.75-.69.63-3.23-1.12.08-1.04-1.1-1.3-2.11-2 .15-.94-2.01-3.8-2.72-.9.24-.55 1.39-2.55.72-1.7-1.79-.4-1.4-.79-.41-1.75.54-1.8.94-1 .94-1.3-.96-1.29-2.74.44-2.91-1.05-.96-.61-1.21.43-1.04-1.78-2.14-2.86.42-.55 1.33-1.75-.03-.55 1.32-1.3.7-.14 1.31-1.24-.37-1.12-.87-1.32.38-.07 1.35-1.65.02-.47-2.58-3.29 2.16-1.33 1.1-1.8.32-17.96 13.42-12.33 9.2-16.79 11.86-10.46 7.5-9.49 13.02-10.56 14.52.16-1.8-1.49-2.5-1.24.03-.23-1.65-.94-1.1-1.11-.06-1.35 1.96-1.95.19-1.25-1.03-.33-.87-3.61-.87-1.19-.86-1.47-1.9.66-1.14-.4-1.42-1.02.34.28-1.95.51-1.22-1.91-.77-.46-1.3.55-.54-.49-1.2.94-.77.5-2.35-1.12-2.04.34-.94-.15-2.3-.95-.84 1.17-2.33-.34-2.01-2.29-1.89-.47-1.29-1.69-2.81-.44-1.2-1.55-.7-.07-1.52-1.3-.74.49-1.6-2.97-.25.49-1.11-1.41-.53 1.86-1.61-1.37-1.05.78-2.24-1.17-.37 1.16-1.37-.18-1.39-.6-.57 1.95-1.49-.83-.8-.34-2.51-1.43-.61-.06-1.66-.77.06-1.33 1.24-.7-1.1-.9-.42.44-1.7 1.4.21.4-.94-1.43-.49.13-1.97.83-.81-1.24-2.1-1.1-1.21-.77-.06-1.42-1.37 2.25-.88-1.47-.57-.88-.87.33-1.45-.82-.89-1.15 1.24-.59-.1.26-1.74-1.46.19z"/>
    <path region="3" short-name="Senate District 13" long-name="Senate District 13" value="2" d="M578.8 322.5 561 352.22l-3.67 6.02 1.03 12.19-8.97-4.44-14.7 9.23-2.79 4.18-12.65 4-1.88-3.82-1.77-1.12-.45-1.27-1.2.24-.77 1.7-1.12.33-14.93 2.24-1.5-1.01.26-1.47-.85-1.19-.1-1.06.73-.97-.1-1.35.79-.6.3-1.73-1.5.08.47-1.35-.94-1.3-1.3.58-1.86.27-2.54-.59-.17-.84-1.67-2 2.35-.68 1.32-.68.62-.86.44-2.1 2.1-.45 1.25 2.6 1.43-.76.82.5 2.36-2.44 1.07-.42-.38-1.43 1.05-.94.47-1.37-.3-1.18 3.5-2.13 4.65-3.05-.46-2.97.45-1.23-1.87-.06-2.22-2.47.68-1.08 2.22-.2.49 1.56 2.23-2.17 2.42-.4 1.8-1.24 2.28-2.46 1.1-.56 9.18 8.95.32.85 3.96-.48 1.3.4.92-.42.52-1.29 1.94-1.18 1.22-1.72 1.47-1.18.17-2.67.62-3.75 1.26-2.22-.62-2.07-.22-2.66-1.73-1.5-.89-1.68-.8.13-1.18-.78v-.97l-1.45-1.69-1.38.32-1.36-1.02-1.52-.03-.62-.82.15-1.95.71-.77.1-4.42 2.6-.66-.81-1.3 1.96-1.6 1.08.9 2.32.6.06-.53 1.97-2.12.53-1.15 1.64-2.18.73 1.1-.06 1.45.94.34 3.81.1 2.05-.72.32-.74 1.26-.6 1-2.74.97.5-.12 4.46.92 1.84 2.89-.67-.17 3.06 2.47-.22-1.1 1.9-1.34 4.47 3.16-.1.78 1.85-.2 1.6 1.42.08 1.55-.69.14-1.8 1.3-1.58 1.37-.28.59-1.48 2.2-1.39 2.5 2.45 1.86.74 1.72 1.68.84 2.44 1.35.27z"/>
    <path region="4" short-name="Senate District 5" long-name="Senate District 5" value="2" d="m8.14 680.2 1.96.48 1.81-.04.87-.77 1.45-3.96.01-2.8-.85-1.82-.2-2.58-.62-.97.28-1.28 1.93-3.34.04-1-.74-1.5-.22-1.33-1.65-1.45-1-1.76-1.72-1.13.1-5.16.72-1.82.1-2.18-1.18-2.2v-1.14l.92-1.21-.46-3.13.15-2.01.57-1.07v.92l1.2 1.43 1.74 1.28 1.5.69 2.23.1 2.2.4 4.1-.51 4.45-1.45 4.28-1.9 5.46-1.7 5.14-1.4 5.99-2.4 3.07 1.29 1.62-.11 4.4-1 3.95-.6 2.1-.92 1.28-1.24 1.58.6 2.49-3 .65-2.02.65-.94 1.83.1 1.04-.3 1.28 2.04 1.43.83 1.65 2.02 1.85 1.48.86-.16.68 1.32 1.2.13.63 1.9 1.93-3.05 1.02 2.49.98-.45.53 1.7 1.63.04.66.77-3.59 1.28-2.56 2.04-1.4-.84-1.83.54.93 2 .15 1.42.69 1.06-.06 2.02-1.11.81.12 1.95-1.02 1.2.7.69.2 2.53 2.18 1.3 1.33-1.46 1.2.73.14 2.33 1.26 2.26-.08 2.1 1.98-.34-.02.9 1.87 1.37-1.53.2 1.37 2.5.21 1.74-3.52.16.74.8.54 1.46-.74 3.92-.68 1.34-.87.21-1.54 1.27-1.19.39-.35.73-1.3-.02-.6.75-.69 2.62.53.57-.79 1.71-.68-.69-1.56 1.51-.14 1.6.66 1.25-.83.27-1.14 2.75-.22 1.7.36 1.64-2.31 1.28.11 2.25 1.1 2.75-.63.84.73 1.22-1.16.77.24 1.06.86.47-1.43 2.24-.26 2.13-.74-.09-.42 2.04.75.96 1.42.06 2.16 1 1.52 1.43-.97 2.43-1 .7-.11 1.24 1.05 1.84 1.5.76.32.96 1.36-.33 1.1 1.27.46 1.21-.07 2.94.73 1.28.97-.19.58 1.63 1.62.2 2.95 1-.52.59.18 1.4-1 .26.5 1.33.84.68 1-.3 1.62 1.1-1.22 1.05-.06 1.01-.74.55v1.28l-.85.56.33 1.14-1.01 1-1.57.18-3.53 4.19-1.69.74-.77 1.53-.76.45L75.2 751l-3.36 4.58-3.14 2.97-3.8 3.98-2.3-.2-1.24-.79-.4-1.3-.25-2.44 1.41-.47.06-2.23-.7-1.84-1.18-.74-1.72-.46-.02-1.62-.66-1.27.81-.83-1.89-1.12-1.05.33-1.01-.31-.67-1.28-.86.24-.84.97-1.85-2-.83-.14-.37-.97-1.76-.58-1.42-2.39-1.04-1.05-1.64-2.34-.85-1.79 1.48-.26-.09-1.36 1.06-1.43-.94-1.33-.23-1.51-1.1-1.7 1.26-.75-.9-1.63-.1-1.23-.75-.78.4-.98 2.3-1.89.6-1.33.13-2.78-1.5-3.37.29-.59-.96-1.12-1.32 2.03-3.5.5-.97-.85-1.08-2.6-1.78-.76 1.5-.92.73-1.47 2.05-.4.6-.72 1.72-.04 2.7-2.64 2.99.51 1.54-1.72 3.14-1 1.1.24.91-.88-1-.51-.96-1.5.27-1.01-3.48-1.72-.08-1.76-.94-.4-1.85.2-1.6 2.19-1.27-.3-.43-1.4.33-1.33-.82-1.92.02-1.32-.66-1.26-.97-.2-.44 1.2-1.04 1.28-1.02-.2-.7 1.24-1.74.36-.42-1.24-.93.6-1.76-2.39-.73-1.7-1.13-.47-.58-.95-.9.85-.03.96-2.3 1.76-3.53 2.28-.8 1.6-1.47.76-1.93-.62-.66-.9-2.38.43-3.45 1.12-.68.04-2.15 4.06-1.26 2.06-.69 3.92-.49 1.38-.86-1.07-2.71 2.76-.41 1.1-1.77-.95-.33-4.57L0 701.34l.35-1.05.8-.4 2.77.16 1.22.37 1.64-.65 2.44-6.63.18-5.2-2.13-1.63-.73-2.81 1.1-2.96z"/>
    <path region="5" short-name="Senate District 6" long-name="Senate District 6" value="2" d="m68.7 758.54 23.5-8.02.07.95-1.42 2.1 1.12 1.06.36.89 1.13.06.65 1.25-1.23 1.14 2.11 2.27.97.2-.24 1.61.43.93 1.56.76-.26 1.35.22 1.5.76 1.2 1.52.23 1.45 1.46.77.2 2.44-.19 1 .58.9 1.66-.4 1.37.73 1.36-2.09 1.01.93 1.61.9 3.02 1.15.68-.01 1.24-1.5.25-.56.5-2.12.73-2.31 2.26 1.43 1.05-.02.85 1.13 1.08-.34 1.26.6 1.38-.48.52.51 1.1 1.46-.26.49 1.56.89-.22.7.8 1.82.32.76.84.04.92-1 1.55 1.4.32-.22 2.47-.85 3.1-1.1-.34.21 1.65-1.27 2.09-.05 1.42 2.12-1.02.63 1.26.94-.06 1.37.93.2.77-.86.91 1.63.84.13 1.4-1.11.8 1.13.56-.54 1.05.9.94-.42 1.75 1.22 1.79 1.45-.34 1.71-1.05 1.05.09.71.93.99.27.82-.65 1.12.37.84 2.29.59-.14.5 1.9.97.24.69.91-.2 1.32.6.45-.21 1.6h1.53l1.06.95.65-.2 1.15.72-.36 2.07.6.27v2.34l1.64.38-.04-1.13.94-.9-.88-.86-.04-1.1 1.02.1 1.4-2.54 1.32-.05 1.46.84.36-.7 1.17-.24.66-1.7 2.16.97 1.15-.74.16-.87 1.65-1.16 1.4.62 1.89-.2.73 1.17-.45.77 1.04 1.08.26 1.49.8.4 1.88-.2.77-1.3 1.69-.34 1.42-.66-.06-1.36.65-.95 1.22.28.96 1.72 1.33 1.55 1.51.28 1.68-1.8 1.12.33.57 1.5 1.48.86 1.62 1.61 1.23-1.65 1.1.32.66 1.02v1.26l-.55 1.23v1.16l.93 1.1.47 1.66-.37 1.08-.85.57.45 1.17-.87 2.13-1.57 1.33-.06-1.5-1.54.48-.1.74 1.32 1.34-.29.74-2.31.18-.81.61.3 2.7-.59 1.33-1.38 1.81.81 1.18-1.18.93-1.25-.24-1.95 1.29-.41 1.92.39 1.38 1.13.4 1.63-.38.7 1.1.86 2.16 1.67.18.54 1.45.04 1.95-.5.38-.61 1.77.95.28 1.3 1.54 2.3-.41 1.07.15 1.24-.54.35 1.49 2.76.75.77-1.06 1.04-.04 1.33.65 2.5-1 .9 1.28.65.1 1.59 1.39 1.44.3.88-.56 1.03.37 1.72-.48.87.5 1.14-1.64 1.31.03 2.12-1.05-.8-2.02 1.9-1.18 1.58.43 1.78-1.3 1.73-.44.65.54.93 2 1.12-.52.71 1.18 1.75-.18-.29-1.15 1.83-1.33.8-.03 1 1.2-.07 1.54 1.92.44-.77.82.66 2.54 1.65 1.3 1.7-.98.94 1.85 1.58-.9.75.88 1.3-.8 1.33.4 1.01-.73.45.91 2.05.12 1.33.62 1.3 2.23 2.05-.37.65.45 1.65-.22 1.56.88 1.56-1.87 2.25.48 1.02-.92 1.92-.5 1.78.67.5 1.1.9.4-1.2 1.69.2.88 1.04 1.14.76.15 1.83 2.32.93.57.68-.52.13-1.43.51-.97 1 .35.18.96 1.42-.7 2.09-.02.97-1.41 1.07 1.19 1.55-.38.5 2.33 1.7 2.26 3.33.88 1.73.77.7.86 1.6.12 1.65-.6 1.37 1.74 3.58 1.4.57 1.07 2.04 1.48 2.1-1.7-1-2.16-.06-1.37-1.21-1.9-2.38-2.27.15-.94-.56-1.42 2.2-.8.37-1.83 2.69-.36 1.91-1.97.09-1.53 1.56-1.47.07-1.2 1.05-1 1.73-.77 1.52-.27 1-1.17 1.18.16.7-.74 1.26-.17 1.7.44.22-2.16.89-.81.24-1.23-.66-1.4 1.3-.67.8-1.8-.46-1.52.12-1.9.6-1.48-.48-1.58.53-.28-.07-2.28 1.47-.84 2.94-.34.2-1.07.74-.51 1.56-.26 1.5-.74.43-.67 1.3.51.8-1.33 1.94-.49.93 1.26 1.3.08 1.02 1.1.93-.23 1.36-1.18 1.15 1.1 1.59.25 25.1 21.46 17.78 14.99 4.85 4.27-1.14 2.46.49 2.07-4.16 7.13 6.86 9.46-3.97 2.13-2.25 2.47-4.15 3.55-3.8 2.25-2.41.84-3.4 1.79-3.8.95-1.49.18-1.27-.33-.4-.84.52-1.6-3.34.7-2.52.89-2.74.5-3.1.98-9.5 1.5-2.2.45-3.6 1.05-6.06 2.39-5 1.6-2.26 1.25-5.4 3.82-4.13 2.07-19.3-16.44-8.53-9.8-.84.45-.6 1.37.34.77-1.4 2.28-1.15.2-1.34-.67-1.53 1.04-.87 1.47.35 1.57-1.67 1.45.26.56-1.59 4.16-.83.3-.2 1.51-2.29.56-1.87-.78-.56.82-1.01-.36-1.89 1.35-1.3.37-.3 1.44-2.91 1.22-.75 1.02-2.47.04-1.17-.94-1.04.53-.66 2.06.03 1.33-.51 1.71-2.42 1.44-4.82 1.57-1.86 3.14-1.42.45-23.88 1.33-1.03-1.07-.15-1.39-.55-.5-1.7-.13-.78-1.18-3.4-2.7-.11-1.4-1.39-1.58-2.08.6-1.2-.18-.97-.94.62-2.94-.91-1.04-.13-1.4-1.06-.39-1.26-1.24-.02-1.02-.84-.44-1.24.39-1.39-.15-.94-.66-.77-1.33-1.25-.47-2.84-.38-.8.7-2.52.96-3.02-.6-.87-1.17-1.63.43-1.37-.77-.18-4.82-1.05.46-1.14-1.04 1-1.76-3.66-3.35-.08-.74-3.06.42-.45-.47-.7-2.34-1.71-.68-.6-1.27-1.19-.15-.99-1.81-1.4-1.08.36-1.01-1.36-1.21.47-1.57-.97-.78.03-1.18.79-.6-.42-1.32 1.04-.81-.26-2.93 1.12-.6.21-.95-1.82-.98-.91-1.2-.73-2.34 1.06-1.88-.72-1.04-1.4.06-.73-1.4-1.9-.6-1.88.37-.17-1.25-.93-1.17-1.35-.3-.99.75-.55-1.11-.94-.58-.15-1.93-.54-.35-.19-1.76.74-1.6 1.47-.7 1.65.28.37-.8 1.03-.19 1.16-1.28 2.38.44-.17-2.06.46-.57 1.6-.23.18-1.45 2.19-.86 1.03-.86-1.4-1.06-.95 1.68-1.22-.2.22-1.93-.7-.7.23-2-1.53.95-.84-.46.06-1.37-2.07.61-.09-1.34.62-1.27-1.05-.9-1.27.28-1.24.93-1.34-.18-.71 1.07-.88-.06-.6-1.03-1.53 2.28-1.73-.17-.2-1.08-.83-.5-1.59.73-1.64-1.3-.42-1.33-1.18.31v1.26l.49 1.54-.4 1.73-.78.01-.05-1.27-1.29-.72-1.95-.03v-1.96l-1.8-2.69-3.23-.25-2.2.82-1.08-.37.69-.99-.58-.53-1.2.37-1.34-.12-1.32 2-1.92-.37-.42-1.15.37-.77-.53-.9-1.44-.49.28-1.33 2.48-.26 1.06-1.14-.6-2.62-1-1.71-1.88-.47-1.33 1.12-1.75-.51-.18-1.02.3-2.1-.13-1.09-1.72.38-.87-1.4 1.08-1.8-1.08-.45-1.46.96-.96-.93-.05-1.36 1.66-1 .15-.76-.93-1.97.54-1.24-.6-.62h-1.59l-1.16 1.27.65 1.16.4 2.84-1.3.72-1.79-.59-.94.73-1.54-.04-1.37-2.23.68-1.97-1.36-.7-.52-2.25-1.64-.81-1.27-1.36-2.33 1.2-1.06.03-3.02-1.8-2.1-3.1-.48.15-.7 1.8-1.27-.56v-1.93l-1.6.62-.32-.73 1.57-2-1.1-1.18-.08-1.4 1.08-1.58-.88-.96-1.27-.4-.7-1.44-.21-1.4-.91-.71-.43-2.96-1.73-.82-1.47-1.79 1.34-1.58 1.23-.48.08-1.44.75-.86 1.33-.64-.9-.73-2.47.85-1.35-.73.48-.8 1.65-1.04-.04-.72-2.5.14-.9-2.97-1.63-.18-1.17-1.63-1.96-.49-1.23-1.73-1.26-.07-.7-2.29-1.15-1.67-.8.06-1.57 2.1-1.06-.94.76-2.3-.25-2.14-1.88-1.72-.65-1.86-1.5-.5-.22-.52 1.19-1.97-1.86-1.22.3-.95 2.73-.47-.14-.81-1.46-.18-.45-.83-.03-2.38-.7-1.17-1.92-.84-1.22-2.65-1.87-.94-1.01-1.24-1.56-.22-.59-1.36-.97.16-.26.83.15 1.9-.58 1.09-1.07-.97.43-1.27-1.03-1.74-1.64-.48-.14-.74 1.44-1.22-.18-.64h-2.6l-1.53-1.61.37-.9 1.72.2.4-.9-1.38-.6.3-1.3 1.5.35 1.4-1 1.91-2.55-.22-.43-2.3-.67-.06-2.07.48-.4 2.54-.03.9-.98-.12-2.03-1.53-.5-2.2.66-.44-1.65.03-1.34-.67-.84-2.34-.01-1.3-.64-1.47.59-.97-.5.73-.93-.84-.93-1.24-2.89v-1.76l-1.85-1.5-.75-1.33.28-2.01-.8-.84-.72-1.5-.02-1.1-.92-1.17-.38-2-1.7-.52-1.24-2.01-1.7-.38-2.02-2.2-.29-.94-.04-3.28-1.6-1-.9-1.3-1.74-1.28-1.94.17-1.02-.78v-2.26l-1.51-.88.4-1.09 2.72-2.76.87 1.07.48-1.38.7-3.92 1.25-2.06 2.15-4.06.68-.04 3.45-1.12 2.38-.42.66.89 1.93.62 1.48-.75.79-1.6 3.53-2.29 2.3-1.76.04-.96.9-.85.57.95 1.14.48.72 1.7 1.77 2.38.92-.6.42 1.24 1.74-.36.7-1.23 1.02.2 1.04-1.29.44-1.2.97.2.66 1.26-.02 1.32.82 1.92-.33 1.32.43 1.41 1.26.3 1.61-2.18 1.85-.2.94.4.08 1.75 3.48 1.72-.27 1.01.95 1.5 1.01.51-.9.88-1.1-.24-3.15 1-1.54 1.72-2.98-.5-2.7 2.63-1.72.04-.6.73-2.06.4-.73 1.46-1.5.92 1.78.76 1.08 2.6.96.85 3.51-.5 1.32-2.03.96 1.12-.29.59 1.5 3.37-.12 2.78-.62 1.33-2.3 1.9-.39.97.74.78.12 1.23.89 1.63-1.26.74 1.1 1.71.23 1.5.94 1.34-1.06 1.43.1 1.36-1.5.26.86 1.79 1.64 2.34 1.04 1.05 1.42 2.39 1.76.58.37.97.83.13 1.85 2 .84-.96.86-.24.67 1.28 1.01.3 1.05-.32 1.9 1.12-.82.83.67 1.27.01 1.62 1.73.46 1.17.74.7 1.84-.06 2.23-1.41.47.25 2.44.4 1.3 1.25.8 2.3.19z"/>
    <path region="6" short-name="Senate District 1" long-name="Senate District 1" value="2" d="m388.1 212.6.36-1.09.12-3.1-.45-2.55-.81-1.64-.3-2.84.36-1.17 1.24-1.7 3.6-2.76.56-.71.71-3-.78-3.83.1-3.46 1.1-4.39 3.76-7.11 2.75-2.86.91-1.94.77-5.19.56-2.82 1.92-4.04 1.52-1.67 1.53-.8 2.96-2 .65-.9.63-1.9-.12-3.45.38-1.78 1.69-3.17.75-.85.6-2.83-.6-2.71-1.6-3.47-.41-1.8.2-2 .63-1.82.22-2.02-.42-1.44-1.93-1.81-2.34-.84-.58-1.48 1.11-1.44 2.62-1.07.7-1.07-.25-6.8.36-2.24 1.28-2.37.1-.83 1.24-2.3.71-3.46-.89-3-2-1.84-1.82-3.35-.85-4.93-1.08-4.08-1.13-.78-3.93-6.37-2.94-2.98-.21-2.36 1.1-2.43 2.2-1.64 1.37-1.58 2.15-3.33 1.46-1.03 2.27-.47 2.46-.9 1.04-.05 1.36.74 1.71 1.86 1.4.35 1.8-.89 1.45-1.64 1.95-1.38 1.06-.23 2.67-1.58 1.44-.12 1.35-.73V95.46l.27 3-.06 25.2-.22 6.89v48.53l.02 21.66-.06 37.4.07 12.18-.1 22.43.01 22.39-17.9-.13-4.62.1-20.47.05-.24-1.92.01-2.5.7-.9.35-1.4-.46-1 .26-2.83-1.14-.79-.61-1.08-2.1-2.15-.05-2.06.56-1.13-.37-2.64.35-1.71.82-1.2 3.3-2 .78-1.9-.6-.57.5-1.06 2.05.98.58-.71 1.33.05-.82-2.77-1.21-.3.7-1.29.32-2.29-.4-1.14 1.09-.8.3-1.12-.92-1.01-.34-1.61-1.6-2.25-.33-2.24-.89-.56.27-1.7-.46-1.84.63-.85-.66-.69 1.46-.86 1.1-1.37 2.1-1.89.67-2.33 1.55-1.09 1.54.49.87-.8 1.52-.22.58-.75 1.1-.1 1.2-1-.4-.77.34-1.45-1.04-1.54-.25-1.1-.85-.47-.28-1.04-1.31-1.38.12-1.2-1.5-1.63.07-2.7-.29-.87-2.29-2.13-.1-1.35-.71-.88 1.2-2.38z"/>
    <path region="7" short-name="Senate District 7" long-name="Senate District 7" value="2" d="m68.7 758.54 3.14-2.97 3.36-4.58 4.79-5.22.76-.45.77-1.53 1.69-.74 3.53-4.2 1.57-.16 1-1-.31-1.15.83-.56.01-1.28.74-.55.06-1.01 1.22-1.05-1.62-1.1-1 .3-.84-.68-.5-1.33 1-.26-.18-1.4.52-.59-2.95-1-1.62-.2-.58-1.63-.97.2-.73-1.3.07-2.93-.46-1.2-1.1-1.28-1.36.33-.32-.96-1.5-.75-1.05-1.85.11-1.24 1-.7.97-2.43-1.52-1.43-2.16-1-1.42-.06-.75-.96.42-2.04.74.09.26-2.13 1.43-2.24-.85-.47-.25-1.06 1.16-.76-.73-1.23.63-.84-1.1-2.75-.11-2.25 2.31-1.28-.36-1.65.22-1.69 1.14-2.75.83-.27-.66-1.25.14-1.6 1.56-1.51.69.7.78-1.72-.53-.57.7-2.62.59-.75 1.3.02.35-.73 1.19-.39 1.54-1.27.87-.2.68-1.35.74-3.91-.53-1.47-.75-.8 3.52-.16-.21-1.75.55-1.5 1.47-1.17 1.05-.38 1.16-2.66 1.32 1.05 2.51-.55.84-.67 1.94-.66 1.36.33 1.13-.72.86.3.62-.9 1 .57 1.15-.36-.01-1.2 1.33-2.23.98-.66 1.3-1.47 1.44.15 1.88-.38 1.71-1.38 1.49-.78.8.63 1.96.3.89-.35.18 3.66.64 5.96-1.14 11.1-.03 1.05 1.64 1.24.86-.28 1.67 1.88 1.81-.65.8.63-.2 1.94 1.55-.2 1.6.48.71 1.1 1.15-.64.12-1.73 1.84-.24 13.58-12.65 1.18-7.62 1.86-11.28L161.2 635l.86 5.02 1.1 1.52.23 4.34 2.05 1.5 1.6 2.12 2.04 1.18-.92 2 1.84 1.7-.47 2.5 1.7 1.58-.74 2.18 2.63 3.07.81 2.6-.13.99 1.17 1.21 1.23-.38.96.29 1.76-.96 1.16 1.7.99-.29.67-.95 1.35.77-.1-1.55 1.16-.6 1.29-1.88.96-.61.32 1.26 5.32-1.46 3.34 1.02 1 .99 1.37-1.44.69 1.45 2.04-.02.94-.36 1.4.88.3.83 1.07.32.9.9.77-.43 1.97.53 1.66-.3 1.21.64 1.23-1.18 1.3.63.9 1.14.65 1.6-.51 2.26 1.88 1.51.33 1.64.92.03 1.26 2.25 2.13 3 1.9 1.57 1.5 1.67 3.2 2.6 1.45 2.77 1.42 1.8 2.6.89 4.26-.83 2.2-1.15 1-1.6.89-.3 2.27-2 1.93.16 1.13 1.33 1.11 2.36 1.62.71 1.6-.15 4.83-2.52.83.13.75 1.14.56 2.84.65.98 2.71 1.27.7.7 2.04.93 1.57.07 2.74-.88 1.15.9-.74-.45-1.5.26-.03 1.44.47.64-1.2 2.99-2.27 11.94-5.97 30.03-1.54 8-3.41.47-1.32-1.16-2.07-.44-.67 1.44-1.2.1-1.16-1.1-1.4.95-1.1-.62-.48-1.05-1.1-.2-.63-.88-1.36-.08.65-1.8-1.22-1-1.7.71-2.64.18-.73 1.24-1.08-.52-1.28.03-1.85-1.19-1.58 1.34-.77 1.58-1.42 1.44-2.66.13-1.28 1.52.24.97-2.31 1.76-.2 1.46.38.65-1.67 1.6-.56 2.18-1.13.93.8 1.75 1.12.33-.47 1.73.6 1-.58 1.65 2.11 2.16-1.9 2.74.7.3.31 1.42-1.2.68-.7 1.75 1 1.19-.2 1.51.6 1.26-.3.6.27 2.16.7 1.08-.09 1.02 1.22 2.24 1-.9 1.52.85 1.44-.28.95 1.25 1.57-.05.26 2.4-.5 3 1.4 2.29-1.75 1.18-.9-.8-.75.16-.97 1.59-1.12-.1-1.52 1.74-2.07.64-.85 1.65h-.9l-1.82 1.1-1.26-1.4-.51-1.37.4-.6-1.78-1.48-1-1.16-1.62-.61-1.8.8h-.88l-1.14.9-.77-.83-2.13 2.08-1.24-.38-2.01.15-.63-.33-1.75 1.23-.8-1-1.1 1.59-1.49-.87-2.31.51-.8 1.57-1.2.1-.78.62-3.66.3-.59 1.1-1.4-.74-1.12.18-.5-.64-1.8 1.26-.44.93-1.54-.19-.06 1.67 12.28 12.5-2.27.62-.71-.49-2.05 1.41-1.36.57.12 1.85-.87.87-1.18.02-.85.75-.9-1.46-.87-.1-1.18 1.5-1.85.93-.85-.49-.95.31-1.67 2.03-.91-.57-2.2 2.75-1.1-.32-1.23 1.65-1.62-1.61-1.48-.86-.57-1.5-1.12-.34-1.68 1.81-1.51-.28-1.33-1.55-.96-1.72-1.22-.28-.65.94.06 1.36-1.42.67-1.69.33-.77 1.31-1.89.2-.79-.4-.26-1.49-1.04-1.08.45-.77-.73-1.18-1.89.2-1.4-.6-1.65 1.15-.16.87-1.15.74-2.16-.97-.66 1.7-1.17.25-.36.7-1.46-.86-1.32.06-1.4 2.54-1.02-.1.04 1.1.87.87-.93.9.04 1.12-1.64-.38v-2.34l-.6-.27.36-2.07-1.15-.71-.65.19-1.06-.94h-1.53l.21-1.6-.6-.46.2-1.32-.69-.92-.98-.23-.5-1.9-.58.14-.84-2.3-1.12-.36-.82.65-.99-.27-.7-.93-1.06-.09-1.71 1.05-1.46.33-1.22-1.78.43-1.75-.9-.94.54-1.06-1.14-.54 1.12-.8-.13-1.41-1.63-.84.86-.9-.2-.78-1.37-.93-.94.06-.63-1.26-2.12 1.02.05-1.42 1.27-2.09-.22-1.65 1.1.33.86-3.09.22-2.47-1.4-.32 1-1.56-.04-.91-.76-.85-1.82-.3-.7-.81-.9.22-.48-1.56-1.46.25-.5-1.1.47-.5-.6-1.4.34-1.25-1.13-1.08.02-.85-1.43-1.05 2.3-2.26 2.13-.73.55-.5 1.5-.25.02-1.24-1.15-.68-.9-3.02-.93-1.6 2.09-1.02-.73-1.36.4-1.37-.9-1.66-1-.58-2.44.18-.77-.2-1.45-1.45-1.52-.23-.76-1.2-.23-1.5.27-1.36-1.56-.75-.43-.93.24-1.6-.97-.21-2.1-2.27 1.22-1.14-.65-1.25-1.13-.06-.36-.9-1.12-1.05 1.42-2.1-.08-.95z"/>
    <path region="8" short-name="Senate District 2" long-name="Senate District 2" value="2" d="m309.28 364.6 1.43-2.24 2.76-5.5 1.9-2.58 3.15-3.33 1.09-1.67 3.78-3.5 1.43-1.85 3-2.34 1.27-1.87 3.1-2.76 3.03-2.23 1.21-1.58 3.52-3.4 5.4-4.42 2.14-2.08 3.18-1.02 2.3.07 2.86.44 2.4-1.04.89-1.68 1.01-3.13.25-2.1.64-1.5.22-2.68-.23-4.15.18-2.1.83-1.9 1.97-1.3 1.48-.23 2.2-1.07.84-2.2-.37-2.01-1.02-1.18-1.93-3.66-1.75-1.27-2.16-2.81-.93-2.72.73-2.16.67-.92 5.63-4.1 1.88-2.08.79-3.47-.06-3.5-.77-2.86-.14-1.55.54-1.46 1.6-1.55 3.35-1.56 1.37-1.28.6-2.25-.77-2.78-1.7-2.34-1.35-3.07-.05-1.88.33-1.22.86-1.01 1.56-.25 2.61.67 2.96 1.99 1.55.2.96-2.03-1.1-3.32-.64-4.64.23-1.83.98-1.51 2.49-1.86 1.25-1.2.28-3.8-.67-5.44.3-2.54.56-1.47.08-1.8.84-1.54 8.55.77-1.21 2.38.72.88.1 1.35 2.28 2.13.3.88-.09 2.7 1.5 1.61-.11 1.21 1.3 1.38.3 1.05.85.46.24 1.1 1.04 1.54-.34 1.46.4.76-1.2 1-1.1.1-.58.76-1.52.21-.87.8-1.54-.49-1.54 1.09-.69 2.33-2.09 1.89-1.1 1.37-1.46.86.66.7-.63.84.46 1.85-.27 1.7.9.56.32 2.23 1.6 2.25.34 1.6.92 1.02-.3 1.12-1.1.8.41 1.15-.33 2.29-.69 1.27 1.2.31.83 2.77-1.33-.05-.58.7-2.05-.97-.5 1.06.6.57-.78 1.9-3.3 2-.82 1.2-.35 1.71.37 2.64-.56 1.13.05 2.06 2.1 2.15.6 1.09 1.15.78-.26 2.83.46 1-.36 1.4-.69.9-.01 2.5.24 1.92 20.47-.04 4.61-.11 17.91.13 19.9.05 22.72-.02 27.43-.01h19.98l32.44.11 12.85.05 18.1-.02v6.31l-4.4 10.45-.79 8.83-.96 1.61-1.2.66-1.36-.27-.84-2.44-1.72-1.68-1.86-.74-2.5-2.45-2.2 1.39-.58 1.48-1.38.28-1.3 1.58-.14 1.8-1.55.7-1.41-.1.19-1.59-.78-1.85-3.16.1 1.35-4.47 1.1-1.9-2.48.22.17-3.06-2.88.67-.92-1.84.1-4.47-.96-.5-1 2.76-1.26.59-.32.74-2.05.73-3.81-.11-.94-.34.06-1.44-.73-1.1-1.63 2.17-.54 1.15-1.97 2.12-.06.52-2.32-.6-1.07-.9-1.97 1.6.82 1.31-2.6.66-.1 4.42-.72.77-.15 1.95.62.82 1.52.03 1.36 1.02 1.38-.32 1.44 1.7.01.96 1.17.78.82-.13.88 1.69 1.73 1.5.22 2.65.62 2.07-1.26 2.22-.62 3.75-.17 2.67-1.47 1.18-1.22 1.72-1.94 1.18-.52 1.3-.92.42-1.3-.41-3.96.48-.32-.85-9.18-8.95-1.1.56-2.28 2.46-1.8 1.24-2.42.4-2.23 2.17-.5-1.55-2.21.19-.68 1.08 2.22 2.47 1.87.06-.45 1.23.46 2.97-4.66 3.05-3.48 2.13.29 1.18-.47 1.37-1.05.94.38 1.43-1.07.42-2.36 2.43-.82-.49-1.43.77-1.24-2.61-2.11.45-.44 2.1-.62.86-1.32.68-2.35.67 1.67 2.01.17.84 2.54.59 1.85-.27 1.3-.58.95 1.3-.47 1.35 1.5-.08-.3 1.72-.79.6.1 1.36-.72.97.1 1.06.84 1.2-.27 1.46-13.52-8.8-1.92-.74-.61-.78-1.32.93-.9-.53-11.06-2.5-6.05-1.44-7.27-1.53-2.11-.6-14.2-3.21.02 2.22-3.8.67-.5 1.66-.74.84.2 1.6-.41 2.28-1.38.84-1.32-.61-.9.81-1.4.33.23 1.63 1.1.1-.23 3.22-1.76 1.73.06 1.85 1.59 3.5-.64.55.55 2.13-.82 1.75 1.56.64.93 1.03-.35 1.34-2.28.83-.38 1.96-2.16 1.91.18.7-1.55 1.96-.07 1.57-1.33.47-2.9 2.49-.2 1.62-.94-.3-2.1 3.24-.64 1.65.86.53.75-.56 1.11.16 1.03.78 1.64.11-.52 2.62-1.2.55-.24 2.35.8 1.08 1.43.4 2.72 2.2.42 1.33 1.18.93.73-.13.91 1.1-.17 1.61-.89.54-1.03-.56-.7-.99-1.36.82.32 2.26 1.67.58.67 1.14 1.35-.64 3.51 1.09.98.89-.57 3.38-.77.42-1.2-.21-.6 1.44-1.95.93-.75-1.55-.81.65-.6 2.84-2.8.94-.9-.88-2.47-1.06.43 3-1.09.65-.97 2.37-1.03 1.1-2.67.54-1.18 2.86-1.1.8-1.63.49-4-.92-1.2.85-.35 2.16-2.42 1.26-1 .86.05 2.48-1.13.45-.86 1.6.1.62-1.66 1.62-.67 1.36-9.59-2.46-12.94-2.5-5.47-12.03-7.62-15.75-3.7-7.44-.7-1.63-3-6 5.1-5.6-.24-1.3.5-1.46.71-.77-1.52-1.87.3-1.77-.5-.93.69-1.37.88-.08-.06-2.79.87-1.14-1-1.52.68-.65-.04-1.17-.78-.52-.8-1.45-1.78-2.1-.94.12-.63-1.14-.8.7-1.82-2.43-1.84-.37-.69-.88-1.07.67-1.25 3.37.56.81-.22 2.06-1.4 3.4-1.84 1.6.03.97-1.05.14-1.2-1.21-3.8-.82-.12.86-1.3.77-1.4-.21-1.02-.69-.29-1.69-1.52-15.7-1.6-8.19-.5-5.31-.74-1.4-1.66-.44-1.04.12-2.51-1.9-1.02.87 1.2 1.33-.61 1.08-1.97-.64-2.52-.45-1.33.78-1.15 1.64-.9.28-1.04-1.3-1.2-.37-2.15 1.84z"/>
    <path region="9" short-name="Senate District 8" long-name="Senate District 8" value="2" d="m224.56 482.36 1.32.7-.37 2.5-.62 1.64.86.68.64 2.64-1.73.71-2.26 1.86-.11 1.91 1.67 2.43.6 1.6 2.46.85.22.89 1.9 1.89-.85 1.1 1.12.28.39 1.75 1.35-.22.74.44.93-.45.14-1.08 2.21-.69 1.1.58 2.78-.86 2.33-1.69.3-1.62 1.27-.38 6.72 5.46 8.65 3.83 5.75 2.7 7.16-3.23 6.18-1.77.22.59 1.46-.19-.26 1.74.59.1 1.15-1.24.82.88-.33 1.46.88.87 1.47.57-2.25.88 1.42 1.37.77.06 1.1 1.21 1.25 2.1-.84.8-.13 1.98 1.43.49-.4.94-1.4-.21-.44 1.7.9.42.7 1.1 1.33-1.24.77-.06.06 1.66 1.43.6.34 2.52.83.8-1.94 1.49.59.57.18 1.39-1.16 1.37 1.17.37-.78 2.24 1.37 1.05-1.86 1.6 1.4.54-.48 1.11 2.97.26-.48 1.6 1.3.73.06 1.52 1.55.7.45 1.2 1.69 2.81.46 1.3 2.29 1.88.34 2.01-1.16 2.33.94.84.15 2.3-.34.94 1.12 2.04-.5 2.35-.94.77.5 1.2-.56.54.46 1.3 1.91.77-.51 1.22-.27 1.95 1.02-.34.39 1.42-.66 1.15 1.47 1.9 1.19.85 3.61.87.33.87 1.25 1.03 1.95-.19 1.35-1.96 1.11.06.94 1.1.23 1.65 1.24-.03 1.5 2.5-.17 1.8 10.56-14.52 10.88 10.77-.17 1.5.2 2.5 1.4.08-.31 2.6.47 1.89.76.04 1.8-1.04.26.92 1.87.59.17.86 1.29.86 1.95.42.82 1.01.28 1.97 2.42 2.22-.4 1.9.47 1.59-.38.93 1.1.8 3.2 1.39 1.04 1.93-.18 1.67.74 1.88.73 1.02.14 1.47.5.78 1.28.32 1.06-.31.53 1 7.98 1.5 1.6 4.1-19.06 16.52-17.97 11.01-1 .92-2.7 1.57-2.21.98-14.19 8.52-18.65 11.13-8.28 4.99-4.62-28.17-.05-.66-2.2-9L276.3 622l10.6-8.54 7.62-5.88-5.37-1.1-10.9 2.6-5.94-3.37-9.3-1.68-23.6-2.22-1.24.91-7.29-9.45-2.97-7.8-11.37 9.27-11.1 5.9-.4 2.02-1.86 2.47-.28.93.23 4.4-1.1-1.31-1.12.71-2.15-.78-3.28 2.1.54 2.06-1.07 1.02.79 1.44-.54.91-1.14-.66-.61.74-.05 1.16-1.03.74-.23.93-1.14 1.82-.53-.48-1.54.66-.84 1.3-.25 2.56-1.07-.1.44-1.62-1-.1-5.43 2.66 1.88 1.33 1.37.48.04.83 1.32.85-.8 2.22-1.53.39-.23 1.52 1.12.9 1.5 2.06.1 1.26 1.6 2.45.32 2.15 1.2 1.13.33 1.6 1.2-1.48-.35-.79.21-1.43 1.45-.64.4-.8 2.76-.36 1.27-1.16.4-1.05.97-.1 1.88 1.85 1.06-1.1.8.06 1.38-1.2 3.5.16 1.15.86 1.38 1.94.07 1-.66 1.5.89 1.82 1.63 1.64.38.78-.37 1.43-1 1.28 2.28-.48 1.44.47.58 2-.48 1.54.98.94 1.71.77 1.2-.09.67 1.97-.63 1.26-.96.77-1.39-.83-.42.54-1.62-.35-3.4-.35-2.76-1.32-4.3-4.17-4.2-2.8-2.35-1.71-2.99-.52-2.55.9-2.61 2.04-1.07 1.06-2.85.79-2.19-.28-.74-.68-1.77-2.48-1.27-1.12-4.98-2.37-3.31-1.24-3.05-.53-1.57-.59-1.64-1.21-1.11-1.52-.86-5.02-.18-2.94 1.1-2.45.76-.7 2.22-1.14 2.27-2.6.82-2.35-.3-1.84-2.96-2.81-1.08-1.83-.87-2.11-.88-2.92-.9-1.44-2.77-3.06-1.73-2.28-1.09-.68-2.15-.23-1.3 1.48-1.71 1.46-2.66 1.7-1.5-.1-3.9-2.65-1.77-1.48-3.37-4.38-4.22-3.6-2.22-3.01-.7-2.08.64-3.08 2.4-2.6 2.39-2.91 1.87-3.8.88-2.13 1.6-2.55 16.31-2.7 1.1-.12 19.73-3.3-8.26-8.81 4.52-4.78.67-1.05.93-.5.98-2.08 1.12.54-.24 2.26 1.77-.49 1.19.54 1.46-1.61 2.3-.63-.17-2.35.81-.49-.11-2.62.3-1.7 2.16-.46.73-.78 1.54-.17 2.12-.9 1.82.44 2.68-.43.57-1.22.89.75 1.3-.18-.14-1.67 1.02-.66 1.58 1.18 1.05-.72.06-1.78.9-.83.02-1.98 1.2-.36.88-.91 1.06-2.5.79-.02.14 1.51 1.53-.27.2-1.6 1.06-1.92-.15-1.07-1.63-2.35-.1-1.52.66-1.28.91-.53.45-1.02 1.31.34.88-.98 2.62.61.02-.9 1.03-.4.91-2.54 1.01-.54-1.43-1.71.31-.56-1.76-2.19-1.4-.53-1.25.91-2.14.86-.52-.9-1.42-.27-.18-.94.95-2.71.64-.94-.24-1.1 3.73-5.16 1.9-3.26 1.25-1.54.77-1.61 6.6-10.08z"/>
    <path region="10" short-name="Senate District 3" long-name="Senate District 3" value="2" d="m309.28 364.6.8.31 2.16-1.84 1.2.38 1.03 1.29.91-.28 1.15-1.64 1.33-.78 2.52.45 1.97.64.62-1.08-1.21-1.33 1.02-.88 2.5 1.9 1.05-.11 1.66.44.74 1.4.5 5.31 1.6 8.2 1.52 15.7.29 1.69 1.01.68 1.4.21 1.3-.77.13-.85 3.8.8 1.2 1.22 1.05-.14-.03-.97 1.83-1.6 1.41-3.4.22-2.06-.56-.8 1.25-3.38 1.07-.67.69.88 1.83.37 1.83 2.44.8-.7.62 1.13.95-.11 1.78 2.09.8 1.45.78.52.04 1.17-.68.65 1 1.52-.87 1.14.05 2.8-.88.07-.68 1.37.5.93-.3 1.77 1.52 1.87-.71.77-.5 1.47.24 1.3-5.1 5.6 3 6 .7 1.63 3.7 7.43 7.61 15.75 5.48 12.03.44 2.6-1.53.84-.1 1.22-1.83-.17-.82.92.16.75-.8.9-1.62-.64-2.35.25.56 1.1-1.3.74-.96 1.46-.85-.62-2.3.2-1.43 2.38h-1.95l-.68.9.08 1.23-1.04.6-1.71 1.86-1.5.73-1.42-.43-1.67.08-1.73.56-.7.66-2.18.8-.67-.25-1.11.7.36.96-1.3 1.07-1.05-.26-1.35.64.12 1.25-1.67.14-1.74 2.49-1.3-.08-.5.73-2.04-.52-1.2.68-3.04-1.21-1.62.94-3.72.06-.8-.45-1.35.18-1.3-1.75-1.93.47-.7-1.93-1.66.21-.48-1.49-1.49-.91-.34-1.52-1.02-1.33-.73.55-1.44-1.5-.93.53-4.17.7-1.57 1.45v1.13l-.92.91-12.98 14.68-8.47 9.04.66 1.9.62.75-2.3.64.72 1.49-.87.82-6.19 1.77-7.15 3.23-5.75-2.7-8.66-3.83-6.7-5.46-1.27.38-.3 1.62-2.34 1.7-2.78.85-1.1-.58-2.21.7-.14 1.07-.93.45-.74-.44-1.35.22-.39-1.75-1.12-.29.85-1.1-1.9-1.88-.22-.9-2.47-.84-.59-1.6-1.67-2.43.1-1.9 2.27-1.87 1.73-.7-.64-2.65-.86-.68.62-1.64.37-2.5-1.32-.7-22.36-11.9-4.53-2.37-15.45-8.44.88-2.93.16-2.67-.5-2.63v-5.65l-2.37-7.56.1-.97 1.2-1.44 1.7-.82 1.16-1.75.5-2.51.69-1.58 1.13-1.2 4.76-1.14 1.28-.86.66-1-.17-2.14-.72-1.78-.25-1.54.12-2.17 1.4-2.36 2.27-2.03 1.65-.58 2.85-.36 2.63.04 4.44.93 2.62-.63 2.7.7 1.94 1.22 3.11.28 1.02-2.23.04-4.64 1-6.3.1-3.39.42-2.1 3.09-3.7 1.6-1.4 2.06-.9 4.29-3.05 2.87-2.84 3.22-4.23 1.1-.95 2.36-1.45 1.95-.28 2.21.5 1.42.81 3.24 2.83 1.22 1.71 2.2 8.55.93 1.77 1.36 1.4 1.75.46 3.87-.38 1.9-.68 5.67-4.08 4.48-3.44 3.28-1.28 2.17-1.75 2.22-.2 2.17-.87 1.47-.07 3.7 1.1 1.28-.4.86-.8.45-1.7v-1.7l1.14-1.9 2.95-3.35.97-1.88 1.22-1.16 1.89-1.06 3.67-1.06 2.93-.15 1.94-1.48z"/>
    <path region="11" short-name="Senate District 4" long-name="Senate District 4" value="2" d="m65.12 627.91 1.2-2.23.84-2.65.67-3.9 1.3-3.42.24-2.1-.18-3.44.22-1.43 1.46-3.97.5-5.66-.13-3.22.53-1.64 3.45-3.82 2.48-1.16 3.26-.08 4.84 1.84 3.45-.08 2.3-.36 1.03-.5 2.33-2.28 1.06-4.03v-1.74l-1.42-5.95-1.32-2.78-.1-1.87-.98-3.54.14-1.82 1.04-3.07.53-2.5-.84-3.56-.64-1.84-.72-3.03-.47-2.93-.67-1.38-1.67-1.62-1.93-1.14-.77-1.4-.23-3.51.87-2.21 1.62-1.82 2.03-1.57 1.65-1.68 2.37-.59 3.64-1.89 2.82-3.21.57-.92.66-2.84.49-3.55-.6-3.15-.63-1.67.43-3.8 2.9-3.11 1.6-2.9 1.9-3 .52-3.4 2.07-3.32.81-1.63.35-1.68.83-1.3 1.97-1.33 2.13-1 3.52-2.48 1.2-2.45.72-3.4.88-1.85 1.23-.82 1.85-.62 2.41-.12 1.72.5 1.48 1.42 1.6 2.74.67 1.7.35 2.56.93.79 1.97-.08 3.31-.8 1.96.72 1.75 1.47 1.35 2.65 1.7 2.85 1.16 3.2 2.4 4.35.44 2.1-.3 1.1-1.7 2.09-.73.48-3 3.72-.34 1.55.28.98 2.25 1.91 1.14 1.3 2.39 1.23 1.88.08 2.92-1.8 3.24-2.35 2.08-2.93.68-2.26-.15-.81.32-4.06 1.3-2.19 1.33-1.71 1.32-.76 2.2.11 1.64 1.06 1.98 2.51 2.18 1.65 2.34.84h1.6l1.26-.75.79-2.01-1-1.17-1.22-2.17-2.4-2.5-.6-2.36.4-2.04.84-2.08-.2-1.15.96-3.06 1.39-1.5.18-3.32-1.75-2.85-2.78-2.72-2.8-2.2-.6-.7-1.7-3.1-.34-1.66-.1-3.5 1.22-1.23 1.97.29 1.5.8 1.89.45 1.2-.07 2.17-.95 2.54-2.06 1.03-1.44 15.45 8.44 4.53 2.37 22.36 11.9-1.37 2.25-6.6 10.08-.77 1.6-1.24 1.55-1.91 3.26-3.73 5.16.24 1.1-.64.94-.95 2.7.18.95 1.42.27.52.9 2.14-.86 1.26-.91 1.39.53 1.76 2.19-.31.56 1.43 1.7-1 .55-.92 2.55-1.03.4-.02.9-2.62-.62-.88.98-1.3-.34-.46 1.02-.9.53-.67 1.28.1 1.52 1.63 2.35.15 1.07-1.05 1.92-.21 1.6-1.53.27-.14-1.5h-.8l-1.05 2.51-.87.9-1.2.37-.03 1.98-.9.83-.06 1.78-1.05.72-1.58-1.18-1.02.66.14 1.67-1.3.18-.89-.75-.57 1.22-2.68.43-1.82-.45-2.12.9-1.54.18-.73.78-2.17.46-.3 1.7.12 2.62-.81.49.17 2.35-2.3.63-1.46 1.6-1.19-.53-1.77.5.24-2.27-1.12-.54-.98 2.09-.93.5-.67 1.04-4.52 4.78 8.26 8.82-19.73 3.29-1.1.12-16.32 2.7-1.6 2.55-.86 2.14-1.88 3.79-2.4 2.9-2.4 2.6-.62 3.1.7 2.07 2.21 3.01 4.22 3.6 3.37 4.38 1.77 1.48 3.9 2.66 1.5.09 2.66-1.7 1.72-1.46 1.29-1.48 2.15.23 1.1.68 1.72 2.28 2.76 3.06.91 1.44.88 2.92.87 2.11 1.09 1.83 2.94 2.81.31 1.84-.82 2.35-2.27 2.6-2.22 1.15-.75.7-1.11 2.44.18 2.94-10.04 6.05-1.86 11.28-1.18 7.62-13.58 12.65-1.84.24-.12 1.73-1.15.64-.71-1.1-1.6-.47-1.56.19.2-1.94-.79-.63-1.8.65-1.68-1.88-.86.28-1.64-1.24.03-1.04 1.14-11.1-.64-5.97-.18-3.66-.89.34-1.97-.3-.8-.62-1.48.78-1.71 1.38-1.88.38-1.44-.15-1.3 1.47-.98.66-1.33 2.23v1.2l-1.14.36-1-.57-.62.9-.86-.3-1.13.72-1.36-.33-1.94.66-.84.67-2.51.55-1.32-1.05-1.16 2.66-1.05.38-1.47 1.17-.55 1.5-1.36-2.48 1.53-.2-1.88-1.39.02-.88-1.98.33.09-2.1-1.27-2.26-.13-2.33-1.21-.73-1.33 1.46-2.18-1.3-.2-2.53-.7-.7 1.02-1.19-.12-1.95 1.1-.8.07-2.02-.69-1.07-.15-1.42-.93-2 1.83-.54 1.4.84 2.56-2.04 3.6-1.28-.67-.76-1.63-.06-.53-1.69-.98.45-1.02-2.5-1.93 3.05-.64-1.9-1.2-.12-.67-1.32-.86.16-1.85-1.48-1.65-2.02-1.42-.83-1.3-2.03-1.03.3-1.83-.11-.65.94-.65 2.02-2.48 3z"/>
    <path region="12" short-name="Senate District 9" long-name="Senate District 9" value="2" d="m170.92 831.3 2.19-2.75.91.57 1.67-2.03.95-.3.86.48 1.84-.92 1.18-1.52.87.1.9 1.47.85-.75 1.18-.02.87-.87-.12-1.85 1.36-.56 2.05-1.42.71.5 2.27-.62-12.28-12.5.06-1.67 1.54.18.43-.93 1.8-1.26.52.64 1.11-.18 1.4.75.6-1.1 3.65-.31.79-.62 1.2-.1.79-1.57 2.31-.51 1.49.87 1.1-1.6.8 1 1.75-1.22.63.33 2.01-.15 1.24.38 2.13-2.08.77.82 1.14-.9h.87l1.8-.8 1.63.62 1 1.16 1.79 1.49-.41.59.5 1.36 1.27 1.41 1.82-1.1h.9l.85-1.64 2.07-.65 1.52-1.74 1.12.1.97-1.6.75-.15.9.8 1.74-1.18-1.4-2.29.51-3-.26-2.4-1.57.05-.95-1.25-1.44.28-1.52-.85-1 .9-1.22-2.24.08-1.02-.69-1.08-.26-2.16.28-.6-.59-1.26.2-1.51-1-1.19.7-1.74 1.2-.7-.3-1.41-.71-.3 1.9-2.74-2.1-2.16.56-1.65-.59-1 .47-1.73-1.12-.33-.8-1.75 1.13-.93.57-2.19 1.66-1.6-.38-.64.2-1.46 2.31-1.75-.24-.98 1.28-1.52 2.66-.13 1.42-1.44.77-1.57 1.58-1.34 1.85 1.18 1.28-.03 1.08.52.73-1.24 2.64-.18 1.7-.72 1.22 1-.65 1.8 1.36.09.63.87 1.1.2.49 1.06 1.1.62 1.4-.95 1.15 1.1 1.2-.1.67-1.44 2.07.44 1.32 1.16 3.41-.47 2.22-.34.72-.63.8.4 1.6-.59.82-.76 1.72 1.83.94-.17 1.37.66 1.84-1.87.1 1.07 1.05-.19 1.4.74 2.38-2.83.8 1.32 1.76.3.6-.74 2.4-.85 1.76-.07.47-.82 1.6 3.12 1.68-.02 1.94.4.93.95 1.44-.12.58-.93 2.05-.85 1.86.1.68-.84 1.86-1.08 1.84-.12.64-.88-1.08-1.54.58-2.15 1.55 1.47.95-2.2 1.31-.59 2.74.08 1.28-.62.19-1.69.43-.52 1.56.18.88-.98 1.78-.1 1.2-.82 2.38.2-.01 1.87-1.95.53-.92-.5-1.02.82-1.07 1.68-1.37.95.24 2.18.94.96-1.75.82.46 1.1 2.28-1.03.71-.8 1.29.66.72-.96 1.6-.8 2.12-.27.02 1.43 3.03.46.73-.15-1.1 2.5-.94 1.2-.26 1.05-.92.48-.18.89 1.11 2.07.94.37 1.66 2.39.2 1.53.78 1.46.19 1.66.76 1.21 2.83 1.57h1.72l1.73.78-.05 1.35-.99.72-4.63.92-1.27.45-.99.94-.27 1.17.85 1.42-.57 1.05-1.8.96.56 2.35-.49 1.58-1.8-.01-3.84.32.1 1.2 1.86 1.3 3.09-.98 2.87-.4 1.9-.85.51.19.16 1.77-1.94 2.02-.03 1.24.8 1.06 3.08.05 2.38 1.08 2.34-.02 3.1-.44 1.95.08 2.75-.54 2.72.46 1.15.67 1.86 1.88 2.06.94 1.44 1.33 1.25.73.41.89v1.48l.58 1.82 4.16 3.18 1.29 1.66.06 2-1.54 2.58-2.27.57-1 .66-1.03 1.6-.05.9 1.2 1.24 3.8 2.07.98 1.5.41 1.38.38 4.26 1.98 1.69.58 1.87-1 1.76-2.2.94-.32 1.19-1.13-.98.55-2.88-1.7-2.84-1.8-1.19-2.23-.26-1.14-1.71-3.17-1.17-3.02.9-3.02-.75-.72 2.18 1.56 1.89-.4.83-1.96.44-.95 2.12-3.13 1.59-.74 1.64-2.78.92-1.44 1.75.25 1.09-1.97.68-.53.81-5.75 3.03.58 1.29-1.54.77.82 1.23.01 1.48.47.46-.06 1.41.51 1.02-1 .56-.1.91-1.45 1.4-.8-.15-1.35.63-.72 1.6-.74.79-1.59-.25-1.15-1.1-1.36 1.18-.93.23-1.02-1.1-1.3-.08-.93-1.26-1.93.5-.81 1.32-1.3-.5-.43.66-1.5.74-1.56.26-.74.5-.2 1.08-2.94.34-1.47.84.07 2.28-.53.28.48 1.58-.6 1.47-.12 1.91.46 1.51-.8 1.8-1.3.67.66 1.41-.24 1.23-.9.81-.21 2.16-1.7-.44-1.26.17-.7.74-1.18-.16-1 1.17-1.52.27-1.73.78-1.05 1-.07 1.19-1.56 1.47-.09 1.53-1.91 1.97-2.7.36-.37 1.83-2.19.8.56 1.42-.15.94 2.38 2.27 1.2 1.9.07 1.37 1 2.16-2.1 1.7-2.04-1.48-.57-1.06-3.58-1.4-1.37-1.75-1.64.6-1.62-.12-.7-.86-1.72-.77-3.32-.88-1.72-2.26-.5-2.33-1.54.38-1.07-1.2-.97 1.42-2.1.02-1.4.7-.2-.96-.99-.35-.51.97-.13 1.43-.68.52-.93-.57-1.83-2.32-.76-.15-1.05-1.14-.18-.88 1.18-1.68-.89-.41-.5-1.1-1.78-.67-1.92.5-1.02.92-2.25-.48-1.56 1.87-1.55-.88-1.66.22-.65-.45-2.05.37-1.3-2.23-1.33-.62-2.04-.12-.46-.91-1.01.73-1.33-.4-1.3.8-.75-.89-1.58.9-.95-1.84-1.7.97-1.64-1.29-.66-2.54.77-.82-1.92-.44.08-1.53-1.02-1.2-.8.02-1.82 1.33.29 1.15-1.75.18-.71-1.18-1.12.52-.93-2-.65-.54-1.73.44-1.78 1.3-1.59-.43-1.89 1.18.8 2.02-2.12 1.05-1.31-.03-1.14 1.65-.87-.5-1.72.47-1.03-.37-.88.55-1.44-.3-1.59-1.39-.65-.09-.9-1.27-2.5.99-1.33-.65-1.04.04-.77 1.06-2.76-.75-.35-1.49-1.24.54-1.07-.15-2.3.4-1.3-1.53-.95-.28.6-1.77.51-.38-.04-1.95-.54-1.45-1.67-.18-.85-2.15-.71-1.1-1.63.38-1.13-.41-.39-1.38.4-1.93 1.96-1.28 1.25.23 1.18-.92-.81-1.18 1.38-1.82.59-1.33-.3-2.69.8-.61 2.32-.18.3-.74-1.33-1.34.1-.74 1.54-.49.06 1.51 1.57-1.33.87-2.13-.45-1.18.85-.56.37-1.08-.47-1.66-.93-1.1v-1.16l.55-1.23v-1.26z"/>
    <path region="13" short-name="Senate District 11" long-name="Senate District 11" value="2" d="m541.6 415.76 1.29-.4.75-.85 1.25-.33.96-3.3 1.15-.05.85-1.52.84-.7-.18-1.47 1.25-.4.82.89.14 1.15 1.27.21 2.17-1.53.76 1.36 1.04-.8-.42-1.8.73-.98 2.46 1.08.56-.1 1.96 1.15 1.29-.04.64 1.13.77.14 1.1 1.35.7 1.67-.08 1.43 1.28.93.3 3.67-.5 1.43.63.98 2.26.83.58.66 2.2-.12 1.33.22 1.95 1.23-.2 1.57.28 1.57-1.54 1.26.49 2.44-.76 1.17-.46 1.58-1.34 1.33.83.92-.29 2.12-.93 1.2.33.87-.1 3.72-.98 1.15-.43 2.17.29 1.08-.75 4.21 1.38.26.32 1.2-.53.66 1.53.79.69-.4.81 1.42 3.37 1.17.95 1.78 1.2.97-.16.94 2.03 2.49.87 2.04-.3 1.75.06 3.16-.55.53.45 2.43-.7.44-.36 1.26-.7.68 29.12 8.41 27.1 7.85 1.06 1.36.72-1.26 1.09-.7 1.4.67 2.25-.79 1.15.06 1.59.76.51-.3 2.28.49 2.17-.63 3.6 1.25 2.5-.56 4.02 1 2.44 1.12 2.51-.37 1.39.68 1.58 1.83 5.64 5.14 8.55 7.23 12.95 10.8 16.63 14.44 15.64 13.52-.75 1.23-2.36 2.4-.26 1.4-1.18 1.92-1.54 3.8.14 1.07-1.26 3.56.4 2.55 1.3 1.56-.7 3.3-.9 1.49-.14 2.23-2.72.86-1.05-.9-1.77-.14-.77 1.07-1.42.75-1.32 3.95-1.04.94-.83 2.24-.92 1.35-.83 2.44.2 1.22-.97 1.38.1 2.3-.97 2.4-.94 1.17-.73 1.82.14.9-1.15.68-.86 1.45-.65 2.18-1.9 2.37-1.63 3.79-.9.85-1.03 4.44.81 1.01-.73 2.75-2.2 2.1.1 1.1-.96 1.07-2.93 1.72-.4 1.43-.12 2.63-.95.23-1.17-.66-.87 1.47-.76.54-1.28 2.53-1.44.51-1.68 1.22.63 1.94-.67 1.57-1.53-.69-1.94 1.52-.92-.16-1.56.94-11.78-3.98-21.59-7.77-4.7-10.5-4.4-9.4-2.11-2.3-1.02-2.1-3.78-2.42-3.3-.76-15.7-7.37-1.38 2.62-.05 1.36-1.37 1.5.73 2.08-1.18.39-.85 2.96-.08 1.58.57 1.32-1.24 2.5 1.26 1.14.95 2.28-2.44 1.32-1.28-.05-.52 2.41-1.1 1.34-1.25.5-.62 1.82.7 2.31-.99.82.02 1.37.68.21.9 1.38.56 1.78.03 1.66-.66 1.09.4.97-.44 1.58.4 1.3-3.44 4.07-.47 1.6-1.7 2.07-1.08 3.12-.75.63-.72 1.74-.37 1.8 1 .67.24 1.81-1.3.95-.53.89-1.93.71-2.32-.88-1.8.22-.3 1.25-.9 1.01.54.96-1.1 2.22-1.25 1.01-1.37.19-2.14 1.92-.63 1.63-1.84 2-.29 1.14 1.24 1.66.25 1.7 1.49.47 1.15 2.34.46 2.04-.53 1.46-1.66.44-.6 1.16-1.03.59-1.15-.32-.75 1.38.17.9-1.25.86-.87-.57-1.13.2-.67 1.76-2.5.75-.78 1.72-1.35.59-1.35 1.84-3.14 3.34-2.54 1.64-.27 1.24-1.12 1.76-1.55 1.05-1.7.15-.35 1.04-1.02 1.03.93.62-.41 1.37.46 2.5-.64.1.17 2.02-1.39 1.18-.64 1.37-.07 1.33-.96 1.1-1.83.3-.42.71 1.2 5.15 2.56 1.16-1.78 2.74-1.48 1.27-1.37 1.9-1.07 1-1.16 3.01.05 1.29-9.83.6-20.02 1.42-10.73 4.57-1.92.52-1.86-1-1.34-.16-.75.39-.82-.78-1.08-.21-1.14 1.09-1.37.42-1.13-1.27-3.54-.2-6.35-.99-20.03-17.5.48-19.89.18-8.87-15.53-10.73-12.4-8.45-.45-.23-22.28-14.98-.65-2.13-2.6 3.26-1.6-5.36-.31-.05-5.42-9.64 4.25-3.02-7.1-19.7-.53-.87 5.59-6-1.66.3-2.04-.48-1.3-.74-.46-.76-2.2.35-.53-.75-1.87.3-2.04-.2-1.22-.68-.56 1.2-.97-1.02-.68 1.01-.72-.56-1.24.47-.43 2.27-.84-.82-1.56.36-.22-1.85-1.17-.51-.53-1.76-.93-.76-1.15-.02-1.58-1.2-.28-1.84-1.13-.35-19.48 13.12-.14-1.48-.73-1.01-.73-1.88.17-1.67-1.05-1.93-3.2-1.4-1.09-.8.38-.92-.48-1.6.41-1.89-2.42-2.22-.28-1.97-.82-1-1.95-.43-1.29-.86-.16-.86-1.88-.6-.27-.91-1.8 1.04-.75-.04-.47-1.9.3-2.6-1.39-.08-.2-2.5.17-1.49-10.88-10.77 9.49-13.02 10.46-7.5 16.8-11.86 12.32-9.2 17.96-13.42 1.8-.32 1.33-1.1 3.3-2.16.47 2.58 1.64-.02.08-1.35 1.3-.38 1.14.87 1.23.37.15-1.3 1.3-.7.54-1.33 1.75.03.55-1.33 2.86-.42 1.78 2.13-.43 1.05.61 1.2 1.05.97-.43 2.9 1.29 2.75 1.29.96 1-.94 1.8-.94 1.75-.54.8.4.4 1.41 1.69 1.79 2.56-.72.55-1.4.9-.23 3.79 2.71.94 2.02 2-.15 1.3 2.1 1.04 1.1 1.12-.07-.62 3.23-.76.69.26.94-.94 1.27.06 1.62-.38.83.72.79 1.51.78 1.08-.85 1.24.43.94 2.19-1.06.97 1.5 2.26 2.06-.63.81 1.53-1.06.35-1.16 2.56.42.99-.02 1.96-1.26 2.6 1.2.68.8 1.04.46 1.48.98-.38.94.7.58-1.05 1.28-.35.64.78 1.27-.4 2.4.74.52-.75 1.98.52-3.34-10.6 4.58-27.76 1.05-1.73-.5-.86.9-.74 2.45.25v-2.07l1.03-.87.4-1.42-.32-.9 1.37-.37.03-.97 1.44-.92-.32-1.28 1.99-2.69.33-1.62-.96-.54.49-1.01 1.31-1.2 1.07-1.94 1.28-.02 1.05-1.02-.36-.55-.12-2.24-1.17-1.24-1.78-5.84 3.35-4.4 2.52-12.33.1-.22.99-11.09 10.44.8 1.7-3.23 2.37-.33.6-2.8.22-4.41-.41-2.48.47-5.22 11.78-18.58 3.32 1.05 20.12-1.97 5.7-.59z"/>
    <path region="14" short-name="Senate District 15" long-name="Senate District 15" value="2" d="m809.57 344.26.3.1 5.1-.64 1.58-.63 3.29 1.17.93.78 2.16-1.26-.1 1.34.88 1.02 1.94.36 1.13 1.1 1.37.77 1.79-.55 2.14.14 3.8-.96 1.31-.04 3.7 1.62 2.73.23 1.84-.31 1.32.71 1.12-.14 1.17-1.07.4-1.35-.42-2.02.42-1 2.13-.13-.04-1.6-1.93-.48-.02-1.4 1.86.26 1.85 2.36 1.13.5.33-1.23-.86-2.1 1.45-.13 1 1.54 1.41.32.55-1.1-1.88-2.52-2.36-1.15-3.3-2.85-.8-1.6.24-1.84 1.22-.74 1.62-.25 3.03 1.17 1.95 1.47 2.16.67 1.44-.43 1.14-1.05-.44-1.59-3.13-2.13-1.57-1.28-2.21-2.98-.43-1 .69-1.32 1.97-.2 5.02 2.1 1.02 1.04 1.46.85 1.1.2 1.17-1.1-2.14-2.62.1-1.57 1.89-.6 2.16 1.17 1.75-.44.04-.8-1.02-1.27.1-1.08 1.28-.22 4.06 1.17 4.83 1.7 5.1 2.41 3.29.44.7-.76.24-2.31 1.65-2.54 1.49-1.23 1.76-1.93 2.1-1.25.78-1.53-1.86-2.07-.02-.64 1.18-.85 4.17.03.78-.17 1.27-1.43.86-1.86 1.97-1.58 2.31-.14 1.88.52 1.61.82 2.17.04 2.19.9 5.05 1.28 2.17 1.05 1.48 1.71 1.54.13.96.6 5.2 5.46.86 1.34 2.37 1.95 1.2 2.18 1.26 1.52 2.55 4.64 1.83.95 3.56.28 1.65-.09 1.32-1.4 1.64-.96 2.03.62.3.64-.27 2.96.43 1.47.74.6 1.45-.6.54-1.95.19-3.57-.6-1.19-1.16-.54.44-1.1 1.84.3.84 1 1.1 2.38 1.4.54 5.68 1.44 1.35-.71-.03-2.13-1.02-1.38.38-.64 2.1.39 1.24.83 3.09 1.06 2.16-.03.97.3 1.26 1.32.42 2.65-.2 2.6-.81 3.27-1.51 1.16-2.78-.07-2 .28-2.59.01-1.93 1.14.31 1.9 3.03 2.02 1.25 1.56.21.94-.37 2.65v1.86l1.2.88 1.93-.28 1.79-.81.28-2.82 1.43-.9 1.65.9.37 1.34-.43 1.9-3.95 2.9-.5.66.39 1.24 2.8 1.02 1.3.13-1.33 3.84-1.1 2.2-1.26 3.27-.78 2.8-1.93 1.97-.39.9-2.77 1.21-2.5.33-2.36.92-5.02 1.36-3.41-.48-.82-.77-2.9-1.5-1.46-1.65-1.2-.71-.63-1.01.98-3.93.95-2.13-.6-1.8.17-.67-2.15-1.8-2.27.12-1.6-1.72-2.9-.7-.87-2.08-1.81-2.66-1.12.76-.58-.72-1.15-.23-.53-.71-1.51.7-.55-.24-1.85.57-.55 1.17-.38 1.94-.62 1.46.27 1.36 1.2.36.54 3.44-.8 1.3-.86 3.4-3.64 6.36-1.55 3.26v1l-.8.61-1.52 3.29-1.36 2.47-1.93 2.99-1.46 1.69-2.28 3.68-1.82 3.43-.7 2.48-2.05-1.48-5.92-5.4-3.66-2.93-11.65-10.3-5.12-3.8-12-9.8-.48 1.01.88.72-.54 4.97-1.1 1 1.32 2.4-.92 1.85-1.65 2.12.29 2.2 1.63 1.63-.27 1.72 1.63.68-2.36 4.52-2.44 3.24 3.68 1.19 1.67.33.31.94-1.71 1.7.22 1.14-2.79 5.6-.94.12-.52 1.88-1.52 1.31-2.54 3.07-.32 1.28-.93 1.46-1.45.54-.46 1.43-2.32 3.04-1.06 1.68 2.1 1.3 1.9 2.2-.9.77-.29 2.63-2.5 3.58-2.41 2.75-1.8 2.35 1.59.48.43 2.36 1.98 2.58.83-.13.35 1.1 1.25.72.67.9-2.08 2.37-2.71 1.49-1.9 2.89-.57 2.5-4.15 4.92-1.38.13-1.33 1.23-1.06-.45-3.4 2.32-.16.53-2.47 2.7-1.77-1.1-.02-1.15-.96-.06-.23-1.02-1.28-1.27-1.67-1.05.13-.46-1.95-1.94-.78-1.17-2.26-1.98-8.33-2.33-2.88 3.99-1.43 1.73-1.54-1.51-1.79-.7-1.19.3-2.25.03-2-1.04-.6-1.87-4.4-2.58-8.45-.86-15.63-6.27-6.65-2.76-5.59-1.6-5.95-2.24-16.31-10.1.74-1.48 3.46-4.56 1.18-1.02 1.45-.08 1.32-1.1 1.27-1.85 1.4-.73.63-1.53.23-2.15 1.02-1.53 2.54-2.12 1.63-1.82 1.86-3.04 3.2-.5 1.02.35.84-.58 2.43-.78 1.3-3.23.63-2.16 1.44-.17 2.2-3.07.5-1.44 2.06-1.89 1.3-3.1 1.2-1.88.92-2.38.19-1.46.83-2.31-.08-1.52 1.06-.81 1.94-2.9.9-1.9 1.02-.36 1.7.88 1.4-2.93 2.12-.51.68-1.83 1.24.26 5.33-9.03 2.67-1.39z"/>
    <path region="15" short-name="Senate District 14" long-name="Senate District 14" value="2" d="m578.8 322.5.96-1.61.8-8.83 4.38-10.45v-6.3l31.1-.13 12.62.12 14.58-.08.01 20.28-.24.51-.22 29.14h-.71l-.06 2.72-.13 17.74-.22 28.8h-.35l-.15 12.58-.17 4.31.19.47-.1 3.4.27.07-.2 15.46 2.2.58h1.27l.13-.94 1.64-1.08 1.32.32.83-1 2.16-.8 1.46-1.83.72.1.95-1.18-.13-1.44.93-.53.03-.83 1.68-.44 1.77-2.62 1.01-.63 1.12-2.33 1.11-.45-.07-1.03 1.2.16.61-1.3 1.27-.58 2.28-.23 1.54-.82.56-1.89 1.5-.5-.7-.9.55-.77 2.43-1.68 1.25-.3.9.3 1.43-1.17 2.52 1.27 2.46.06.01-1.1 1.3-1.61-.09-1.35.44-2.17 2.58-2.02.36-1.46 1.58.54 1.2-1.27-.7-.9.76-.97-.03-1.3-.52-1.6 1.4.43 1.44-1 1.9-.05.26-1.3 2.3.37 1.23-.08.45-1.92 1.85-1.86 1.18-2.82.74-.02 1.73.9 1.63-1-.86-1.46 1.37-.17.62 1.06 1.26 1.07.66-1.24-.93-2.37.4-1.26 1.12-1.34-.23-1.47.97-.5 1.16 1-.02 2.3 1.22.14.54-1.36-.25-1.66 1.18-.58 1.65.37.21-1.35-.35-1.82 1.02-.96 2.4.6.33-.47-1.21-1.41.5-1.38 1.25-.64 1.11-1.43.12-1.6-1.22.05.14-1.3 2.39-.14-.31-1.5-1.35-.47-.33-1.1.97-.73 1.85 1.2 1.64.28 2.97-.83.9-1.03.7 1.76 1.08.07.32-2.26 1.38-.86.53.93 1.53.8.62 2.37 1.16.71 2.23-.5 1.44 1.55 2.67 1.6 3.68 1.66 1.76 1.4.94 1.29 1.78-.48.15-2.02-.8-.97 1.15-.8-.86-1.15.16-1.26.9.05 1.36-.65 1.57-2.1-.7-1.8 1.76-1.37 1.35-.22 2.13.12.55-1.9 1.03-.77.98-2.11-.33-1.8 2.55-.32.36-1.61-.46-.83.61-.8 2.3 1.02.89-.37 1.1-2.42-.28-1.83 1.88-.58 1.42-1.94.7-1.5-.04-1.56 1.42-.65 1.14-1.29 1.68.51 1.8 1.25.95-.28.66-1.59-1.34-2.26-1.27-.27.07-3.03 1.45-.4.28-1.12 1.07-.82.59-2.73 2.73.3-.02-1.92-1.17-3.5.88-.52 1.31-2.32 1.95.39 1.24-2.35 1.9-.73.11 1.18-.57 1.24-.91.63-1.19 3.3.2.7 2.91.75 1.32-1.08 1.66-.86 2.5 1.2.5 2.05-1.08 1.11-1.63 1.06-.9-1.12-1.83-.01-1.54.33-1.78 1.23-.26.7 1.55 1.69.61 1.97 2.19 1.8 1-.3 1.1.6 1.25-1.61 1.27-.26.4 2.97 1.42 3 2.37.5 1.27 1.64 2.53.68 1.05 1.97 2.8 1.42 1.4.06.97.89 1.33.45-6.7 8.5-2.67 1.38-5.33 9.03-1.24-.26-.68 1.83-2.12.5-1.4 2.94-1.7-.88-1.02.35-.9 1.91-1.94 2.9-1.06.81.08 1.52-.83 2.31-.19 1.46-.91 2.37-1.21 1.9-1.3 3.1-2.06 1.88-.5 1.44-2.2 3.07-1.44.17-.62 2.16-1.3 3.23-2.44.78-.84.58-1.02-.36-3.2.5-1.86 3.05-1.63 1.82-2.54 2.12-1.02 1.53-.23 2.15-.63 1.53-1.4.73-1.27 1.85-1.32 1.1-1.45.08-1.18 1.02-3.46 4.56-.74 1.48 16.31 10.1 5.95 2.25 5.6 1.6 6.64 2.75 15.63 6.27 8.44.86 4.42 2.58.6 1.87 2 1.04 2.24-.02 1.2-.32 1.78.7 1.54 1.52 1.43-1.73 2.88-4 8.33 2.34 2.26 1.98.78 1.17 1.95 1.94-.13.46 1.67 1.05 1.28 1.27.23 1.02.96.06.02 1.16 1.77 1.1-1.7 1.78-.05 1.1-1.2 1.7-1.83 1.2-1.73 1.54-2.85 3.28-.5.93-3.08 3.27 1.23 1.49 1.26.48.45.8 1.4.87-1.8 1.62-2.25 2.7-2.03 2.87-.5 1.34-2.1 3.53-1.14.62-.57 1.29-1.36-1.34-.57-1.67-1.52.53-.36-2.22-1.85.45-.6 1.6-1.2 2.07-1.66-.34-1.17 1.94-1.36 3.48-1.39 1.51-.97 2.03-1.98 2.22-1.6.14-1.84 2.39-1.41.1-2.4 2.71-.97-1.3.3-2.72-.61-2.91-3.35 1.07-2.35 2.94-1.74 4.04-2.78 1.77-1.3.38-1.8 1.87-.72 1.97-.94.78-2.43 4.8-.56 1.71-2.07 4.86-2.26 4.32-3.23 5.06-4.28 8.33-25.33-22.7-1.27 1.23.26 1.39-.68.93-.77 3.13-1.18 1.06-1.54.66-.92 2.26.2 2.76-.85 1.7-1.2.28-2.72-.28-1.7 1.66-.14.7.8 1.3.03 1.42-.83.44-.33 2.47-15.64-13.52-16.63-14.45-12.95-10.8-8.55-7.22-5.64-5.14-1.58-1.83-1.38-.68-2.52.37-2.44-1.12-4.02-1-2.5.56-3.6-1.25-2.17.63-2.28-.5-.51.3-1.58-.75-1.16-.06-2.25.79-1.4-.68-1.09.71-.72 1.26-1.06-1.36-27.1-7.85-29.13-8.41.71-.68.37-1.26.69-.44-.45-2.43.55-.52-.06-3.17.3-1.75-.87-2.04-2.03-2.49.16-.94-1.2-.97-.95-1.77-3.37-1.18-.81-1.41-.7.39-1.52-.79.53-.65-.32-1.2-1.38-.27.75-4.21-.29-1.07.43-2.18.97-1.15.1-3.72-.32-.87.94-1.2.28-2.12-.83-.92 1.34-1.33.47-1.57.75-1.18-.5-2.44 1.55-1.26-.28-1.57.2-1.57-1.95-1.23-1.32-.22-2.21.12-.58-.65-2.26-.84-.63-.98.5-1.43-.3-3.67-1.28-.93.09-1.43-.7-1.67-1.11-1.35-.77-.14-.64-1.13-1.3.04-1.95-1.14-.56.1-2.46-1.09-.73.98.42 1.8-1.04.8-.76-1.36-2.17 1.53-1.27-.2-.14-1.16-.82-.89-1.25.4.18 1.48-.84.69-.85 1.52-1.15.05-.96 3.3-1.25.33-.75.84-1.29.41-2.11-1.2-3.27.05-1.66-.73-.43-.67-.19-2.36-.72-1-1.6-1.04-.02-2.57-1.36-2.96.51-2.28 1.98-.72-.93-1.16-1.14-.57-.2 1.27-1.63-.67.85-1.54-.23-.95-1.16-1.78.46-2.43-.65-.58-2.21-.04-1.25-1.18-.28-.9.62-.73 2.56-.58.95-1.55-1.08-.88-1.3-.12-1.87-1.99-1.74-.58-1.65.54-1.6-.46 12.65-4 2.8-4.18 14.69-9.23 8.97 4.44-1.02-12.2 3.66-6z"/>
    <path region="16" short-name="Senate District 17" long-name="Senate District 17" value="2" d="m163.17 641.54 1.65 1.21 1.56.6 3.05.52 3.3 1.24 5 2.37 1.26 1.12 1.77 2.48.74.68 2.2.28 2.84-.79 1.07-1.06 2.61-2.04 2.55-.9 3 .52 2.35 1.71 4.18 2.8 4.3 4.17 2.77 1.32 3.4.35 1.62.35.42-.54 1.39.83.96-.77.63-1.26-.67-1.97-1.2.09-1.7-.77-.99-.94.48-1.54-.58-2-1.44-.47-2.28.48 1-1.29.37-1.43-.38-.78-1.63-1.63-.89-1.81.66-1.5-.07-1.02-1.38-1.94-1.15-.85-3.5-.16-1.37 1.2-.81-.07-1.06 1.11-1.88-1.85-.96.1-.41 1.05-1.27 1.16-2.76.35-.4.81-1.45.64-.2 1.43.34.79-1.2 1.47-.34-1.59-1.2-1.13-.32-2.15-1.59-2.46-.1-1.25-1.5-2.07-1.12-.89.23-1.52 1.52-.39.8-2.22-1.3-.85-.05-.83-1.37-.48-1.88-1.33 5.43-2.66 1 .1-.44 1.62 1.07.1.25-2.57.84-1.29 1.54-.66.53.48 1.14-1.82.23-.93 1.03-.74.05-1.16.61-.74 1.14.66.54-.91-.78-1.44 1.06-1.02-.54-2.06 3.28-2.1 2.15.78 1.13-.71 1.09 1.31-.23-4.4.28-.93 1.86-2.47.4-2.03 11.1-5.89 11.37-9.27 2.97 7.8 7.29 9.45 1.23-.9 23.6 2.2 9.31 1.7 5.94 3.36 10.9-2.6 5.37 1.1-7.62 5.87-10.6 8.55 3.77 16.12 2.2 9 .05.66 4.62 28.17-16.94 21.48-.6-.3-1.16-.91-2.74.88-1.57-.07-2.03-.92-.7-.71-2.72-1.27-.65-.98-.56-2.84-.75-1.14-.83-.13-4.83 2.52-1.6.15-1.62-.7-1.11-2.37-1.13-1.33-1.93-.16-2.27 2-.9.3-.98 1.6-2.21 1.15-4.27.83-2.59-.88-1.42-1.8-1.44-2.78-3.2-2.6-1.5-1.67-1.9-1.57-2.14-3-1.26-2.25-.92-.03-.33-1.64-1.88-1.51.5-2.25-.65-1.6-.9-1.15-1.29-.63-1.23 1.18-1.21-.64-1.66.3-1.97-.53-.76.43-.91-.9-1.08-.32-.3-.83-1.4-.88-.93.35-2.04.02-.69-1.44-1.37 1.44-1-.99-3.34-1.02-5.32 1.46-.32-1.26-.96.6-1.29 1.9-1.17.59.1 1.55-1.34-.77-.67.95-.99.3-1.16-1.71-1.76.95-.96-.28-1.23.38-1.17-1.21.13-.98-.8-2.61-2.64-3.07.74-2.18-1.7-1.58.47-2.5-1.84-1.7.92-2-2.05-1.18-1.59-2.13-2.05-1.5z"/>
  </g>
</svg>