<svg xmlns="http://www.w3.org/2000/svg" auto-border-stroke-width="5" auto-border-stroke-width-limit=".5" candidates="[{&quot;id&quot;:&quot;0&quot;,&quot;name&quot;:&quot;Democrats&quot;,&quot;defaultCount&quot;:0,&quot;margins&quot;:[{&quot;color&quot;:&quot;#1C408C&quot;},{&quot;color&quot;:&quot;#577CCC&quot;},{&quot;color&quot;:&quot;#8AAFFF&quot;},{&quot;color&quot;:&quot;#949BB3&quot;}]},{&quot;id&quot;:&quot;1&quot;,&quot;name&quot;:&quot;Republicans&quot;,&quot;defaultCount&quot;:0,&quot;margins&quot;:[{&quot;color&quot;:&quot;#BF1D29&quot;},{&quot;color&quot;:&quot;#FF5865&quot;},{&quot;color&quot;:&quot;#FF8B98&quot;},{&quot;color&quot;:&quot;#CF8980&quot;}]},{&quot;id&quot;:&quot;2&quot;,&quot;defaultCount&quot;:0,&quot;name&quot;:&quot;Independents&quot;,&quot;margins&quot;:[{&quot;color&quot;:&quot;#9A9A9A&quot;},{&quot;color&quot;:&quot;#AEAEAE&quot;},{&quot;color&quot;:&quot;#C2C2C2&quot;},{&quot;color&quot;:&quot;#D7D7D7&quot;}]}]" country="usa" date="2022001" original-source="[&quot;https://opendata.dc.gov/datasets/c5cd8b40fb784548a6680aead5f919ed_53/explore&quot;,&quot;https://opendata.dc.gov/datasets/50d22daaaba148c38de21292f66f1ef7_36/explore&quot;]" title="DC 2022 City Council" type="dc_council" variant="blank" viewBox="0 0 847.96 1080">
  <g map-type="regions" transform="translate(-76.021)">
    <path d="m520.7 733.85-.04-9.06v-2.16l-.02-.28v-1.98l.02-1.15v-8.85l-.02-1.27-.03-.37-.03-.94.02-3.85v-4.32h.36l.26.01h.41l.4.02h1.74l.37-.01h.33l.2-.01h.24l.24-.01.23-.01.24-.01h.23l.24-.02h.24l.23-.01h.24l.2-.02h13.54l-.27-.85-.4-1.44-.69-2.44-.06-.24-.13-.46-.13-.45-.27-.97-.11-.39-.1-.38-.12-.4-.1-.38-.12-.39-.1-.39-.12-.39-.11-.4-.07-.24-.07-.23-.09-.3-.08-.3-.1-.3-.42-1.6-.17-.6-.17-.6-.01-.06-.02-.06-.09-.31-.08-.28-.09-.32-.08-.31-.18-.64-.18-.64-.18-.64-.18-.64-.18-.63-.18-.64-.43-1.57 1.84-.06h1.92l4.77.02-.02.69.61.25 38.11 13.66.94.37v-1.06l.01-.04.02-.03.02-.03.03-.03.02-.02h.03l.03-.01h.28l.66-.64 2.34.81.65.2.63.23.34.12.33.14.32.15.41.23.4.25h2.14l.01 1.82v3.77l.02 5.72.13 4.09v1.61l.01.32.02.42.04.55.03.35.1.76.03.29.05.33.07.41.08.41.12.58.19.77.35 1.1.35 1.07.49 1.2.42.9.27.53-1.77 1.37-5.89 4.5-.17.02-10.65-3.45-10-3.29-3.1-.93-3.8-.58-.01-.54-3.5-.35-4.63.8-.47-.03-.26-1.42-1.22-.23-.52 1-.03 1.74-2.24.2-.02-1.8-3.02 1.38-4.32 2.2v1.34l-.97.9-3.97 1.92-.4 1.46-2.12 1.9-2.13 3.45-1.22 1.22-.5 2.31.24 1.49zm129.79-30.96.2.49.06.15.55 1.3.2.45.19.45.2.44.2.45.03.05.03.06.04.06.17.29.28.34.12.15.13.13.13.13.86.64.65.43.45.3.48.32.6.4.32.23.31.23 1.18.75.52.56.19.17.25.19.28.18.28.18.28.18.26.16.26.16.25.16.26.16.66.4.13.07.28.16.27.16.28.16.27.16.27.16.28.17.27.16.27.17.27.16.38.24.4.24.7.43 1.24.74.96.57 1 .6.13.08.45.28.23.69.4-.14.37-.13 1.16-.74 1.49-.96 1.3-.82.05-.03.33-.22.03.12.03.11.02.12.02.12v.11l.01.1v4.99l.01.97v7.02l-.02 1.64v.15l.02 1.75v.47l-.01 1.78v.79l.01.96v1.93l-.01.14v.28l.02.14.02.14.03.14.02.08.01.05.04.14.05.13.05.13.35.76.25.55.01.03.16.38.23.5.4.83.12.27.12.27.1.27.12.27.1.28.1.27.1.28.08.28.08.28.08.29.08.32.02.1.05.22.06.29v.03l.06.32.01.07.04.25.04.33.04.33.03.32.02.33.01.33.01.3v.94l-.02.31-.02.31-.02.2-.01.11-.04.31-.04.31-.01.1-.04.2-.04.27v.02l-.05.24-.05.26-.06.26-.06.26-.07.26-.07.25-.08.26-.08.25-.09.25-.06.16-.06.15-.06.15-.06.16-.06.15-.03.07-.03.08-.07.15-.06.16-.06.15-.07.15-.24.49-.1.2-.1.22-.08.2-.08.22-.08.22-.07.22-.06.22-.06.23-.05.22-.05.22-.05.28-.05.27v.06l-.03.22-.03.27-.02.28v.27l-.01.28v.28l.02.27.02.28.03.27.03.16.02.1.04.27v.03l.06.24.05.2.01.06.07.26.08.26.09.25.09.26.1.25.07.16.08.17.04.09.03.07.08.17.08.16.08.16.08.16.09.17.08.16.09.15.13.26.6 1.17.07.13.14.25.13.26.14.26.13.26.16.3.15.31.16.3.16.31.16.31.16.3.16.31.15.3.16.31.05.1.11.2.6 1.15.15.29.38.77.08.17.07.16.06.17.06.17.05.17.05.17.02.1.05.05.04.06.04.06.05.06.03.07.04.06.04.06.02.05v.02l.04.07.03.07.3.8.03.06.92 2.54.14.4.27.8.32.95.27.31.27.31.27.32.16.16.17.16.18.16.18.15.18.15.18.14.18.13.01.01.2.14.2.13.06.04-.05.54v.02l-.02.64-.1 2.09-.08 2.39v.27l.01.13.03.4.02.32.01.1.04.4.04.31.01.08.06.4.07.4.07.4.08.4.1.39.07.28.08.28.08.27.09.28.09.27.06.18.03.1.1.27.04.1.17.44v.02l.1.24.08.18.08.17.08.17.08.17.2.43.22.42.09.16.19.36.19.36.19.36.19.36.19.36.22.42.16.3.19.36.02.04.17.32.04.06.15.3.18.33.18.34.17.33.18.34.18.33.18.34.17.33.18.34.18.33.18.34.19.35.19.35.2.35.19.35.2.35.2.34.2.35.22.34.21.34.22.34.27.43.28.45.27.43.28.45.27.43.04.06.24.39.49.72.33.6.21.33.07.1.2.3.28.42.34.48.21.3.22.29.22.29.22.28.23.29.23.28.15.18.15.2.16.18.15.19.15.18.15.2.15.18.16.19.15.18.15.2 1.23 1.5.87 1.07.55.69 1.9 2.33 1.23 1.5.67.79.14.16.15.15.16.14.16.14.17.13.18.11.18.11.2.1.45.2.06.02.13.04.13.04.14.03.07.01.06.02.14.02.13.01.14.01h.28l1.32-.05.28-.02h.21l.22-.02h.07L459.05 1080l.7-2.17-.13-2.3-.39-.95 1.1-1.96 1.78-2.74.69-1.72.9-1.43.35-1.07 1-.54-.09-4.3.44-.57-.4-3.52-.02-2.63.24-6.01-.05-1.2-1.06-.58-4.05-1.6-4.9-1.69-.77-.41-1.18-1.54-2.58-10.52-1.02-4.45-.76-2.27-.76-1.2-1.32-1.26-2.59-2.07-1.24-.77-1.57-2.1 3.48-4.14 1.12-2.14.34-1.24-.1-2.05.67-1.2-1.17-3.5.57-9.43h.07l2.08-33.1 2.42-12.01-.35-.79.12-1.87.45-2.47.43-1.47 1.84-3.85.84-1.04.84-.5-1.37-1.8 1.57-5.15 1.34-2.8.58-5.37-.44-1.33.17-1.53.55-.53 1.54-3.2.45-1.42.54-3.78 1.42-6.52 2.44-13.2.56-3.4.9-4.12 2.15-8.2 1.11-3.74.89-4.44.4-1.19 1.58-6.25.56-1.55 1.1-2.32 1.11-3.15.15-1.1 1.84-3.2 2.11-5.65 1.04-2.37 1.52-3.94 7.83-19.34 1.35-3.75 1.13-2.47 1.65-4.37.97-2 1.35-3.58.92-1.63 2.67-3.43.88.61 2.8-3.26-.52-.55 3-2.26 15.24-9.43 2.72-1.96 2.38-2.24 2.52-3.1 1.54-2.57 3.4-6.56 11.69-22.75.91-1.45 1.9-1.92 1.9-1.2 1.87-.6 2.2-.27 1.12.06 2.33.53 17.5 5.72 2.16.6 3.22.24 2.21-.11 3.34-.75 2.35-.85 1.84-.94 2.05-1.46 1.4-1.26 5.45-5.42.88-.72 7.78-5.14 5.19-3.5 4.92-3.17 1.6-1.2 2.8-1.71 6.89-4.03 8.83-4.15 12.76-5.06Z" long-name="Ward 8" region="0" short-name="Ward 8" value="1"/>
    <path d="m594 720.35-.42-.9-.5-1.2-.34-1.08-.35-1.1-.18-.77-.13-.58-.08-.4-.07-.42-.05-.33-.04-.29-.08-.76-.04-.35-.04-.55-.02-.42v-.32l-.01-.66v-.95l-.13-4.1-.02-5.7v-5.6h-2.14l-.4-.25-.42-.23-.32-.15-.33-.14-.34-.12-.63-.23-.65-.2-2.34-.81-.66.64h-.31l-.03.01-.02.02-.03.03-.02.03-.02.03v.04l-.01.04v1.02l-.94-.37-38.11-13.66-.61-.25.02-.69-4.77-.01h-1.92l-1.84.05.43 1.57.18.64.18.63.18.64.18.64.18.64.17.64.1.3.08.33.08.28.09.3.02.07.01.05.17.61.17.6.42 1.6.1.3.08.3.1.3.06.23.07.24.11.4.11.4.12.38.1.39.11.39.11.39.1.38.12.4.27.96.13.45.13.46.06.24.69 2.44.4 1.44.27.85H527l-.21.01h-.24l-.23.02h-.24l-.24.01h-.23l-.24.02h-.23l-.24.01-.23.01h-.54l-.37.01-.4.01h-1.34l-.4-.01h-.4l-.27-.01-.36-.01v4.32l-.02 3.85.03.94.03.37.02 1.27v8.85l-.01 1.15v2.86l.01 1v.56l.05 9.06 6.87 3.6.02.1-1.72 1.95-.65 2.36.18.84-.28 1-1.82.13-2.67 4.93-.98 2.32-.54.82-.95 2.15-1.26.47-.84 1.97.31.41-.6 1.17h-.48l-1.76 3.4-.31 1.6-1.6 1.02-.57.9-1.42 1.02-1.4.64-1.2-.06-3.34.4-2.36-.45-1.94-2.1-1.18-.58-2.74-.08-.07 10.35-1.2.36-.85.8-3.76 2.43-3.33 1.32-1.85-.02-1.32-.67-.9-1.21-.22-.93-.04-18.7.02-5.87v-19.28l-1.73-8.05-1.18-.71-3.07-7.34-6.98-16.81-7.82-7.9-11.17-11.35-3.8-3.8-.53.92-.65.09-1.66-1-1.04-.11-.15-.63.97-1.76-.87-1.2-.04-.67-3.72-1.32-.88 1.93-1.13-.5.87-2.63-3.91-1.34-.1.28-2.12-.71-1.3.02-1.06.47-.32-.63-1.6.15-1.34-.6 1.07-2.13.8-1.56.31-1.86.25-1.45.14-1.53.1-2.52v-.55l.03-3.15v-2.04l.02-8.3.33.01.65-.02h9.46l2.25.02 1.96-.01h16.46l.92.01h.04l.52.01h.65l.74-.02H468l.85.02.94-.02h15.89l.77-.02h.03l.7.01h.35l.3.02h1.12l1.07.01h5.25l.77-.01.03-3.2-.03-3.3-.08-9.41.06-4.27-4.86-1.69-4.75-1.69-4.12-1.47-5.3-1.9-.1-4.35.1-4.21 3.6-1.4.3-.64.03-6.87-.01-6.27-.01-5.03.01-3.86-.01-3.93v-5.46l.02-1.35-.55-.25-.4-.18-1.29-.59-.14-.06-.9-.39-.23-.1-.5-.22-.37-.2-.25-.1-.75-.3-.67-.31-1.11-.5-.2-.1-.07-.02-.59-.27-1.28-.56-1.2-.53-.3-.12-.19-.07-.21-.06-.86-.14v-.86l-.01-1.32v-2.17l.84-.13 7.28-3.2 3.94-1.73 2.85-1.29 8.24-3.7 3.87-1.7 1.8-.8 3.26-1.46 1.29-.58.97-.43 5.03-2.24 4.52-2.02 3.37-1.5.32-.14.11-.05 1.96-.88.21-.1.83-.37.3-.14.36-.16.56-.25.55-.25.4-.18.74-.34.34-.15 3.13-1.38 2.36-1.06.7-.32 1.86-.82.61-.27.22-.1 1.87-.83 4.53-2.01.69-.31.72.41.05.03.23.13.29.17 1.84 1 .15.08.3.17 2.26 1.24 1.05.57.02.01.4.22 2 1.1.12.07.6.32.36.18.66.35.1.05.02.01 1.48.8 1.48.82h.01l.95.52.24.13.14.08.51.28.46.24.14.08.49.26.07.04.52.25 2.49 1.37.1.05.58.33.52.29 3.18 1.78.71.4.51.28.36.2 1.25.7 1.77.97.07.04 1.04.57.45.25 1.26.7.47.25.3.16.37.2.7.38.22.12.67.33.03.02 3.25 1.81.52.29.64.35.46.26.97.53.13.07 2.46 1.33.19.1.39.22.7.4 1.36.77.45.25.5.28.43.24.24.13.84.45.62.32.98.52 2.36 1.3.3.16.24.14.61.33.27.14.3.17 1.74.95.6.33 1.89 1.08.42.23 1.06.56.47.25.4.2.43.23.15.08.58.32.25.14.24.13.25.14.25.14.25.14.25.13.25.14.25.14.25.13.25.14.42.23.87.48.35.18.6.33.05.03 2.5 1.37.4.21.42.24.03.01.66.37.8.44.48.26.61.34.36.2 1.98 1.07.31.17.33.18.37.2.41.23.28.15.7.22.28.14.79.44h.01l.02.01.17.1.33.18 1.53.86 1.06.57.1.05.12.07.14.07.1.08.07.05.05.03.36.32.91.06 1.47.2.1.01v.84l-.16 5.65-.02 6.28.02 1.9.01 3.41v21.69l.01 2.47v2.79l-.02 2.81.02 5.85v11.42l-.02 2.46-.01 9.19-.01 6.48.02 6.57v9.11l1.94-1.1 3.85-1.95 5.9-3.08 5.73-2.99 1.37-.71v.71l7.01.11v.35h3.2l.01 6.82 17.1.03-3.41 6.13-.71 1.02-.61 1.79.17.28-2.24 2.7-1.33 1.04-2.24 1.15-23.89 7.74-8.84 3.4-9.71 5.14-.6.53-4.33 2.9-2.87 2.1-14 10.66-.53.4zM398.42 687.4l.18-.18.18-.18.18-.18.05-.04.14-.12.18-.15.2-.15.18-.15.2-.14.19-.13v-.01l.2-.14.21-.13.08-.05.13-.08.2-.12.2-.11.06-.03.15-.08.2-.1.2-.1.21-.1.2-.1.22-.09.2-.08.22-.09.21-.08.27-.1.27-.1.27-.1.28-.08.27-.08.28-.06.28-.07.29-.05.28-.05.28-.04.2-.02.21-.01.2-.02h.21l.2-.02h.21l.2-.01h.62l1.42-.4.16-.03.16-.02.23-.05.23-.04.23-.04.23-.04.23-.03.23-.04.22-.04.23-.04.23-.04.17-.02.17-.02.17-.03.17-.03.17-.03.07-.02.2-.04.18-.04.19-.05.18-.05.19-.05.18-.06.54-.19.04-.02.13-.03.12-.04.12-.05.12-.04.12-.05.12-.05.12-.06.12-.05.11-.06.12-.06.12-.07.12-.08.12-.07.12-.08.12-.08.12-.08.11-.08.12-.08.12-.08.11-.08.08-.07.09-.06.08-.07.08-.06.1-.07.08-.07.1-.08.08-.07.1-.07.08-.08.1-.07.07-.07.08-.08.08-.07.08-.08.07-.07.08-.08.07-.08.08-.07.07-.08.07-.08.22-.28.05-.06.18-.24 3.26-5.83 2.82-4.51 1.1 1.01 1.47 3.25 2.1 4.94 18.76 17.88 3.1 3.2 2.52 3.3 4.52 7.1 1.26 2.24 1.23 2.82 1.17 3.58 4.84 16.37.6 2.81.3 2.02.17 2.95 1.18 48.9.21 9.44-.62 1.16-1.03.43-1.22-.33-.57-.69-10.78-25.68-12.74-30.37-1.69-3.93-1.84-3.97-1.92-3.82-2.42-4.52-2.26-3.9-2.22-3.58-3.99-5.88-3.56-4.7-3.02-3.65-4.05-4.52-2.84-2.9-4.92-4.64-3.9-3.32-3.39-2.57-2.06-1.45z" long-name="Ward 6" region="1" short-name="Ward 6" value="1"/>
    <path d="M652.31 673.86v-6.81h-3.2v-.36l-7.02-.11v-.71l-1.37.71-5.74 3-5.89 3.07-3.85 1.96-1.95 1.09.02-.97v-8.14l-.03-6.57v-6.48l.02-9.19.01-2.46v-5.54l.01-5.88-.02-5.85.02-2.81v-5.26l-.02-5.28v-6.63l.01-3.18v-10.01l-.03-1.9.02-6.28.17-5.65-.01-.84 1.71.36.14.02.15.04.16.03.2.04 1.43.28.6.13h.16l1.66.35 1.97.45.4.1.43.13.15.05 1.74.37 2.75.58 1.18.27 1.94.44.08.03.55.18.71.2 1.98.43 2.2.5 1.84.44.42.12.38.06.24.07 1.87.41.84.19.52.12.46.09.8.19.31.06.41.08.61.14.56.13.39.08.53.13.36.08.83.19 1.66.39.98.2.8.17.97.23.47.1.52.12 1.94.45 1.1.24.42.1.5.11 1.18.26 1.48.33.48.1.48.12.7.15 2.13.5.39.09.28.06.18.03.76.17.52.13.83.17.84.18.26.07.22.05.39.08.43.1.4.09.44.09.41.1.37.06.19.04.58.1.64.08.58.1.72.1.98.09 1.06.11.76.08.56.06 1.39.18.26.03 4.85.48 1.98.18 1.52.18 1.98.24 1.62.15 1.7.21.6.1.57.05 6.43.6-.3 3.22-.98 6.75.01.73-1.42 6.17-.9 4.53-.58 1.74-.58 3.36-.75 2.65-.67 3.03-.96 3.62-.9 2.82-.63 3.36-.85 2.47-1.4 2.14-.21.62-2.82 4.32-3.44 4.93-3.65 3.6-6.33 6-.9-.08-.4-1.09.43-.67 2.11-2.13.8-.4.6-1.43 1.16-.7.23-.65 2.67-4.6.65-2.2 2.27-4.3 2.43-3.5 1.13-2.23.67-.86 1.84-1.24.71-1.36.45-1.8.63-1.01 1.22-3.72.4-3.4-.3-1.83.4-1.1.27-1.81-.6-4.68-.7-.97-.26-2.47.03-2.68-.4-3.01-.78-2.73-.62-3.98.12-2.64-.8-.81-2.55-.27-.72.2.13 1.23-1.16 4.06-.62 1.74-2.28 4.24-1.95 2.16-1.51 2.3-1.24 2.87-.8.66-.6 1.6.16.83-.35 1 .54 2.24.53 3.02 1.16 1.9 2.56 4.59.85 2.79-.19 2.59-3 7.73-.65 1.46-1.94 6.6-.84 1.73-1.26 2.13-.95 1.04-1.82 2.56-.36 1.65.14 1.11.81 1.1-.72.3-.84 1.01-2.24 2.1-.95 2.26-3.08 5.6-1.15 2.49-.42.75Zm271.67-59.8L711.72 826.77h-.07l-.22.02-.21.01-.28.02-1.32.06h-.28l-.14-.02-.13-.01-.14-.02-.06-.02-.07-.01-.14-.03-.13-.04-.13-.04-.06-.02-.46-.2-.19-.1-.18-.1-.18-.12-.17-.13-.16-.14-.16-.14-.15-.15-.14-.16-.67-.8-1.22-1.49-1.9-2.33-.56-.69-.87-1.07-1.23-1.5-.15-.2-.15-.18-.16-.2-.15-.18-.15-.19-.15-.18-.15-.2-.16-.18-.15-.19-.15-.18-.23-.28-.23-.29-.22-.28-.22-.3-.22-.28-.21-.3-.34-.48-.28-.41-.2-.3-.07-.11-.2-.34-.34-.6-.5-.72-.23-.38-.04-.06-.27-.43-.28-.45-.27-.43-.28-.45-.27-.43-.22-.34-.21-.34-.21-.34-.2-.35-.21-.34-.2-.35-.2-.35-.2-.35-.18-.35-.2-.35-.17-.34-.18-.33-.18-.34-.17-.33-.18-.34-.18-.33-.18-.34-.17-.33-.18-.34-.18-.34-.15-.29-.04-.06-.17-.32-.02-.04-.2-.36-.15-.3-.22-.42-.2-.36-.18-.36-.2-.36-.18-.36-.19-.36-.09-.16-.21-.42-.21-.43-.08-.17-.08-.17-.08-.17-.07-.18-.1-.24-.01-.02-.17-.44-.04-.1-.1-.27-.03-.1-.06-.18-.1-.27-.08-.28-.08-.27-.08-.28-.07-.28-.1-.4-.08-.39-.07-.4-.07-.4-.06-.4-.01-.08-.04-.32-.04-.4v-.09l-.03-.31-.03-.4v-.14l-.01-.27.08-2.4.1-2.08.02-.64v-.02l.05-.54-.07-.04-.2-.13-.19-.14-.19-.14-.18-.14-.18-.15-.18-.15-.18-.16-.17-.16-.16-.16-.27-.32-.27-.3-.27-.32-.32-.95-.27-.8-.14-.4-.92-2.54-.02-.06-.31-.8-.03-.07-.03-.07-.01-.02-.02-.04-.04-.07-.04-.06-.04-.07-.04-.06-.04-.06-.04-.06-.05-.05-.02-.1-.05-.17-.05-.17-.06-.17-.07-.17-.06-.16-.08-.17-.38-.77-.15-.29-.6-1.14-.1-.2-.06-.1-.16-.31-.16-.3-.15-.31-.16-.31-.16-.3-.16-.31-.16-.3-.15-.32-.16-.3-.13-.26-.14-.26-.13-.26-.14-.25-.07-.13-.6-1.17-.13-.26-.09-.15-.08-.16-.09-.17-.08-.16-.08-.16-.08-.16-.08-.17-.03-.07-.04-.1-.08-.16-.07-.16-.1-.25-.1-.26-.08-.25-.08-.26-.07-.26-.01-.06-.05-.2-.05-.25v-.02l-.05-.26-.02-.12-.03-.15-.03-.27-.02-.28-.01-.27-.01-.28v-.28l.01-.27.02-.28.03-.28.03-.22v-.05l.05-.27.05-.28.05-.22.05-.23.06-.22.06-.22.07-.22.08-.22.08-.21.09-.21.09-.22.1-.2.24-.5.06-.14.07-.15.06-.16.07-.15.03-.08.03-.07.06-.15.06-.16.06-.15.06-.15.06-.16.09-.25.08-.25.08-.26.07-.25.07-.26.06-.26.06-.26.05-.26.05-.24v-.02l.04-.26.04-.2.01-.11.04-.3.04-.32v-.1l.03-.2.02-.32.01-.3.01-.32v-.93l-.02-.33-.02-.33-.03-.32-.04-.33-.04-.33-.04-.25-.01-.07-.06-.32v-.03l-.06-.3-.05-.22-.02-.1-.08-.31-.08-.29-.08-.28-.09-.28-.1-.28-.1-.27-.1-.28-.1-.27-.11-.27-.12-.27-.12-.27-.4-.84-.23-.49-.16-.38-.02-.03-.24-.55-.35-.76-.05-.13-.05-.13-.04-.14-.02-.05-.01-.08-.03-.14-.02-.14-.02-.14v-.42l.01-1.93v-1.34l-.01-.4.01-1.79v-.47l-.01-1.75v-6.21l.01-.4v-8.15l-.01-.11-.01-.1-.02-.13-.02-.12-.03-.11-.03-.12-.33.22-.05.03-1.3.82-1.5.96-1.15.74-.37.13-.4.14-.23-.7-.45-.27-.13-.08-1-.6-.96-.57-1.23-.74-.71-.43-.4-.24-.38-.24-.27-.16-.27-.17-.27-.16-.27-.17-.28-.16-.27-.16-.28-.16-.27-.16-.28-.16-.13-.07-.66-.4-.26-.16-.25-.16-.26-.16-.26-.16-.28-.18-.28-.18-.28-.18-.25-.19-.19-.17-.52-.56-1.18-.75-.31-.23-.32-.22-.6-.4-.48-.32-.45-.3-.65-.44-.86-.64-.13-.13-.13-.13-.12-.15-.28-.34-.17-.29-.04-.06-.03-.06-.04-.05-.2-.45-.2-.44-.19-.45-.2-.44-.54-1.31-.06-.15-.2-.49-.74-.91.25-.1.86-.48 3.83-1.38 9.04-3.57 2.34-1.13 2.37-1.74 1.42-1.44 2.07-3.1 5.28-10.2 1.25-2.18 1.06-2.26 1.41-2.32 2.75-3.2 3.97-4 2-2.43 1.64-1.52.4-.93 2.22-1.47 3.73-3.88 1.03-1.2 2.35-3.21 2.94-4.95 2-4.5.53-2.14.42-.85 1.15-4.63.4-.38.62-3.78.21-.45.75-3.55 1.45-6.32.22-2 .38-.78 1.94-8.6.76-6.75-.07-1.21-.73-2.64-.2-2.06.34-3.07.03-2.57-.28-.3-1.81-4.3-.33-2.54.21-2.01 1.03-2.76 3.84-6.03 1.53-.27 1.72.31 2.22-.19 1.5.26.03-1.6-.24-1.4-.67-.83-1.92-.9 1.44-2.36 1.6-3.26 1.45-2.6 1.16-2.78-.24-1.09.74-1.65.87-.16.5-1.37-.46-1.38.09-1.11 1.37-2.47 2.7-6.24 1.24-3.74 3.27-5.08 1.07-1.23.56-1.33 4.39-6.83.7-1.33 1.13-4.14.48-3.65.1-4.35-.1-2.94 1.1-1.6 1.21-.88 1.67-.52 5.47-.24 1.02-.04 15.94-.7 1.28-.12 2.32-.54 2.94-2.48 2.46-2.27 2.85-2.85 1.08-.8 1.58-.67.52-1.21.4-.77 3.11-2.65.91-1.01.85-1.52 1.45-1.75zm-214.03-2.7-.65-1.23.53-1.24 2.22-1.88 1.37-.4.04 1.46-1.42.84-1.32 1.61Zm-15.9-4.14.94.78-.27 1.79-.06 2.75.23 2.64.5 1.54-.12 1.8.43 2.8.12 2.54-.9 1.63-1.32.6-.93.08-1.92.81-.67-.56.9-1.72.57-3.28.5-2 .17-5.07-.2-4.48.4-2.37Z" long-name="Ward 7" region="2" short-name="Ward 7" value="1"/>
    <path d="m241.29 542.58 1.47.44.27-.46-.01-.72-.07-4.92-.03-1.41 1.42-2.73-.05-2.4-.26-2.15-.25-.95-.98-2.32-1.34-3.46-.35-.01-.3-.05-.19-.15-.14-.23-1.31-3.56-.14-.38-.12-.26-.14-.2-.15-.2-.4-.43-.23-.27-.1-.18-.04-.25-.04-1.99-.05-.16-.17-1.16h-.9l-.12-.51 2.75-.12-.1-1.17-.23-1.59-.78-2.12-.54-.8-.65-1.08-4.2-4.18-.56-.88-1.8-6.19-2.88-5.22.06-1.03 24.14.07.02 2.92 3.36-.06.06 1.78 7.77-.21.36.25.43-.02h.61l.07.01h.07l.08.02.12.02.13.03.13.03.13.04.12.03.13.04.12.05.12.05.12.05.12.05.1.05.09.04.09.05.1.04.09.04.1.04.1.03.1.04.09.03.1.03.12.03.11.03.12.03.12.03.12.02.12.02.12.02.12.01.12.01.12.01h.69l.12-.02.11-.01.12-.01.11-.02.1-.03.12-.02.1-.03.11-.03.11-.03.11-.04.1-.04.11-.03.1-.04.11-.05.42-.16.8-.3.14-.05.14-.05.14-.05.14-.04.14-.03.15-.04.14-.03.14-.02.15-.02.14-.02h.05l.05-.01h.09l.05-.01h.14l.05-.01h.05l.25-.01.33-.01.3-.02.52-.02.27-.01 1.83-.09.41-.02-.01-.5v-.02l-.04-1.12-.05-1.64-.05-1.82v-.08l.01-.08.02-.07.02-.08.03-.08.03-.07.03-.07.04-.07.04-.07.05-.06.5.77.03.03.23.36 1.34 2.08.16.25.28.45.53-.31.04-.02 1.85-1.12.92-.55 1.15-.68.1-.07.1-.07.1-.07.09-.07.1-.08.08-.08.09-.08.09-.08.05-.05.03-.04.08-.09.04-.06.03-.06.03-.06.01-.07.02-.06v-.12l.29-4.95 1.68.26.3-.12 12.09 1.03.58.02.26.04.25.04h.1l.28.03.33.02v-.02l.04-.04h.03l.04-.03h.03l.05-.03h.03l.06-.01h.08l.23-.02.8.03.73.02.74.03.79.03.95.07.87.05.66.03.9.03.74.01 1.03.05 1.02.03 1.09.04 1.05.04 1.4.06 1.38.04.98.04.17.02.29.02h.15l.99.06.77.67.39.37.61.58.62.6.53.5.66.59 1-1.53 3.33-2.42 1.74-.4 1.63-.4 1.05-.6.1-.05 1.25-.7 1.45-.73.77-.83.84-2.41 1.1-1.35 2.95-.74 1.69-.44 1.91.37 3.3 2.24 1.5.18.76-.33 1.17-.5.61-.22.84-.86.37-.74 1.35-3.11 1.5-3.2 1.06 2.36.9 2 1.1 2.44 1.08 2.35.04.09v.01l.1.26.12.23.13.25.13.24.13.32.07.17.06.12.07.18.07.16.08.16.1.25.1.24.07.15.11.18.05.07.07.1.06.06.09.1.11.11.08.08.09.08.09.08.06.02.07.04.18.07.22.07.14.05.22.07.62.22.02.01.3.12.23.1.19.06.57.2.2.05.2.07.05.01.05.02.05.02.05.01.05.02.05.03.05.02.05.02.05.03.04.03.02.01.1.07.1.07.08.07.09.08.08.09.07.09.08.1.06.09.06.1.05.1.2.45.2.52.81 2.06v.01l.14.34.15.37.57 1.45.3.77.84 2.1.14.36.03.1.08.15.03.07.02.06.03.07.38.86.4.86.32.65.1.24.1.41.1.56.09 1.8.1 1.56.1 1.45.08 1.2.02.34.05.48.07.42.1.48.02.14.09.48.32-.28.38-.34.06-.05.06-.04.9-.64.8-.59 1.12-.8.9-.68.11-.07.4-.29.32-.22.47-.33.32-.22.67-.46.34-.23.53-.34.07-.04.09-.06.3-.2.3-.21.18-.12.39-.27.02-.01.29-.2 1.1-.75.13-.08.4-.28.05-.02.02-.01.34-.23.46-.3.35-.23 1.11-.73.53-.34 2.23-1.44 1.59-1 .55-.34.45-.26.47-.31.55-.41.26-.2h.01l.33.01h4.29l1.66.01h8.84l.7.01h7.93l1.26.01h1.99l.53-.01h.07l1.39.02 3.15.01h5.27v4.13l-.01 2.82v8.11l.7.01h5.57l.55.01h5.55l1.96-.01h4.84l.68.01h3.34l.87.04h.43l.91.01.3-.03 2.43-.01 1.23-.01h1.26l.24.04h.72l.64-.02h2.17l1.41-.01h5.24l1.55.01h2.13v-.67l-.01-1.88v-5.17l.07-.02.07-.03.07-.03.07-.03.07-.05.06-.04.06-.05.04-.04.04-.03.02-.03.03-.03.04-.05.03-.04.04-.05.03-.05.03-.06.03-.05.02-.05.02-.06.02-.05.38.2.08.04.57.32 1.16.62.1.05.2.11.27.15.3.18.52.3.08.04.05.03.76.41.92.5.9.5.46.24.24.13.56.3.95.52.56.3 1.03.61h.01l.19.11.4 1.32.47 1.57.14.52.1.37.04.15.1.36.08.28.07.27.14.54.35 1.21.08.29.47 1.67.46 1.62v.04l.11.37.1.39.49 1.74.37 1.3.12.41.06.23.02.06.5 1.76.4 1.43.1.38.11.4.3 1.08.39 1.36.07.27.07.26.1.35.07.26.15.55.07.23.2.72.5 1.76.12.43.02.08.21.76.13.46.03.13.15.53.03.09.04.16.1.36.46 1.62.08.3.19.63.12.42.53 1.93.12.45 1.05 3.72.19.84 1.07 4.03 1.1 4.18.5 1.5-1.8.8-3.86 1.7-8.24 3.71-2.85 1.29-3.94 1.73-7.28 3.2-.85.13v2.17l.01 1.32v.86l.87.14.22.06.17.07.32.12 1.2.53 1.27.56.59.27.06.03.2.09 1.13.5.66.31.75.3.25.1.38.2.49.22.24.1.89.39.15.06 1.28.59.4.18.55.25-.01 1.35-.01 5.46.01 3.93-.01 3.86v5.03l.02 6.27-.04 6.87-.29.65-3.6 1.38-.1 4.22.1 4.35 5.3 1.9 4.12 1.47 4.75 1.7 4.87 1.68-.07 4.27.08 9.4.03 3.3-.03 3.2-.76.02h-7.45l-.3-.02h-.35l-.7-.02h-.03l-.78.02H469.8l-.94.02-.85-.01-.43-.01h-5.25l-.74.01-.65.01-.52-.01h-.96l-.56-.01h-29.57l-.64.01-.34-.01-.02 8.3v2.04l-.02 3.15v.23l-.02.32-.09 2.52-.13 1.53-.25 1.45-.32 1.86-.8 1.56-1.07 2.12-.5-.23-1.23-.8-1.42-3.66-1-1.99-1.35-1.83-1.85-1.67-2.02-1.06-1.64-.36-2.68.08-1.1-.2-.99-.74-.64-.98-1.29-3.65-1.79-2.16-1.46-.77-1.13-1.07-.09-1.03 1.42-1.65-.58-1.24-3.14-1.16-.22-.44-1.87-.32-1.87-.01-2.1.38-3.43 1.86-.35 1.37 1.14 1.01-.18 1.62-.53.84-1.32.8-3.26.02-3.05.17-1.94.43-1.4.63-1.22.93-1.03 1.2-.9 1.77-.12 1.3.5 1.87 1.04 1.73 2.3 2.09 1.9 1.06 2.33.9 1.55.76 1.68 1.07 1.79 2.04.84 2.6.43 2.74.62 1.96 1.39 2.87.26 3.2-.76 1-1.06.78-2.03.44-.9-.42-1.49-1.15-6.73-5.71-5-4.33-13.6-13.18-7.16-7.07-4.2-4.34-3.2-3.41-2.26-3.07-.93-1.82-.79-2.74.05-4.37-.42-1.06-1.48-.88-2.95-2.36-1.6-1.88-1.04-1.6-1.1-2.21-.42-.3-1.48-.01-.31-2.5-1.43-2.38-.3-1.42-2.4-6.98-.55-3.05-.13-2.26.03-5.1.3-10.39-.44-1.08-1.68-1.98-.86-1.4-.5-2.13-2.27-1.2-1.99-2.45-.77-.46-1.53-1.53-3.76-1.6-1.2-.18-1.21-.91-2.16-.99-.27-.52-1.54-.22-.66-.47-3.81-1.69-.58-.02-7.58-1.87-1.23-.14-3.97-1.88-1.42-1.25-1.4-.43-.46.32-3.3-1.3-.39-.59-2.18-.75-2.22-.97-2.16-.51-2.64-.45-1.78-.94-2.03-.32-2.49-.77-1.63-.3-.54.24-3.54-.92-2.08-.1-1.46-.3-6.87-.69-4.2-.23-2.8-.1-1.6-.25-1.58-.1h-.68zM422.04 673l-3.26 5.84-.18.23-.05.06-.22.28-.07.08-.07.08-.08.07-.07.08-.08.08-.07.08-.08.07-.08.07-.08.08-.08.07-.09.07-.09.08-.09.07-.09.07-.09.08-.09.07-.09.07-.08.06-.08.07-.09.06-.08.07-.11.08-.12.08-.12.08-.11.08-.12.08-.12.08-.12.08-.12.07-.12.08-.12.07-.12.06-.11.06-.12.05-.12.06-.12.05-.12.05-.12.04-.12.05-.12.04-.13.03-.04.02-.54.2-.18.05-.18.05-.2.05-.18.05-.19.04-.19.04-.07.02-.17.03-.17.03-.17.03-.17.02-.17.02-.23.04-.23.04-.22.04-.23.04-.23.03-.23.04-.23.04-.23.04-.23.05-.16.02-.16.03-1.42.4H407l-.21.01-.2.01-.21.01-.2.02-.21.01-.2.02-.3.04-.27.05-.29.05-.28.07-.28.06-.27.08-.28.09-.27.09-.27.1-.27.1-.21.08-.21.09-.21.08-.21.1-.21.09-.2.1-.21.1-.2.1-.15.08-.05.03-.2.1-.21.13-.13.08-.08.05-.2.13-.2.14h-.01l-.2.14-.19.14-.19.15-.19.15-.18.15-.14.12-.05.04-.18.18-.18.18-.18.18-.07.08-3.77-2.66-.1-.37.6-2.41.85-1.3 1.43-.91 4.41-.51 1.4-.83.63-.81.38-1.2.24-2.35.57-2.37.9-.94 1.37-.1 1.11-.61 1.25-.24 1.78.31.93.52 1.27.07 1.99.71 1.27-.07 1.58-.85 1.19-1.35 1.96-1.24 1.44-.28 1.42.42.41.39zm-104-55.2 1.25 3.18-.01 3.14-.42 1.8-.11 1.73.25.86-.86.24-2.49-1.35-1.1-1.06-2.24-1.63-.16-.67.33-1.98 1.98-2.46 1.9-.97-.68-2.26-1.1-.1-1.22.71-.22.47-.64 1.58.1.45-1.02 1.69-.38 1.46-1.24 1.98-.77.2-.2.7-1.57-1.67-.93-.66-.99-2.52-1.02-3.78-1.13-1.56-2.97-6.53-2.31-4.82-1.88-2.8-1.4-2.33-3.67-5.73-.93-2.02-.44-2.54-.38-.92-.83-5.15-.04-3.4.7-1.12 3.96.3.95-.12 1.23.35 3.37-.15.59.28.9-.35 1.5.1 1.23-.6 2.71 1.4 1.1.27 2.07.1 1.32.8 3.16 4.9 1.34 2.73.92 3.35.32 3.02v2.32l.4 4.9-.02 1.39.27 1.65.17 2.53-.06 3.46.27 2.34.64.84-.27 1.72zm-18.42 12.2.68-.3 1.07-1.42 1.14 1.22.03.47 4.02.93 3.1 1.09 1.27.75 2.14 2.14 1.4 1.8 2.62 3.8 2.52 4.64 3.15 7.2 1.41 2.28 1.36 1.76 4.86 5.42 4.62 4.79 3.17 3.5 2.58 2.32 2.63 2.58 2.1 1.8 2.57 2.54 4.42 3.56 8.93 9.49 2.87 2.76 2.04 2.37 2.6 2.43.32 1.12-.36 1.26-1.54 1.95-3.32 2.3-2.22 1.83-1.71.35-1.68-.53-.8-.6-1.25-1.7-.7-1.43-1.36-2.06-.52-1.83-.67-1.18-.39-1.65-1.26-2.55-1.45-1.27-4.22-5.5-2.2-3.12-1.16-2.06-2.36-1.7-3.3-2.64-.98-.5-2.24-.68-1.98-.05-1.74.4-4.6.67-3.03-.48-.63-1-1.66-1.14-1.72-2.77-1.19-2.75-1.71-3.6-.73-2.22-1.25-2.64-1.72-2.88-1.01-2.33-1.1-1.9-3-3.76-.6-1.05-.1-1.07-1.81-4.42-1.27-2.12-1.29-1.64-1.93-3.46-.74-4.79.05-1.34z" long-name="Ward 2" region="3" short-name="Ward 2" value="1"/>
    <path d="m415.18 383.52 1.73.01h2.24l.23.02.22.03.23.03.22.03.23.04.22.05.18.05h.04l.22.07.32.1.33.1.44.14.78.26.36.12.32.1 1.27.48.5.18.61.2 1.29.4.37.12.86.3.47.16 2.15.74.67.22.72.24.39.13.43.15 1.3.45.8.27.48.18.37.13.15.05.28.1.33.12.45.16.52.17 1.56.5.17.07 2.25.77.19.07.28.09.44.14 1.36.45.05.02 2.12.75.9.3.34.13.42.14.04.01 1.46.5 1.77.6 1.16.39.22.09.2.14.08.1.18.14 1.23.42.1.02.1.02.11.02.1.02.11.02.13.01.25.01.42-.05.11-.2.22-.38.12-.2 1.1-1.89 1.16-2 .05-.1.45-.77.42-.74 1.08-.31 2.73-.88.8-.25.28-.09.4-.12 1.37-.43 2.55-.8.18-.06.9-.28 1-.3.12-.03.4-.07.47-.1h.05l1.94-.32.87-.14 1.1-.18 1.83-.3.13-.02.09-.02.03-.01.12-.03.12-.03h.05l.07-.03.12-.03.12-.04.04-.01.08-.03.12-.04.12-.04 1.44-.41.52-.15-.16.54-.06.2-.33.87-.05.15-.05.17-.04.16-.04.16-.03.16-.02.17v.01l-.03.86v.46l.01.3v.35l.01.09.03 1.55.03 1.27.01.44v.03l.01.48.03 1.12.02 1.36.01.42v.17l.01.37.02 1.14v.43l.03.96.03 1.24v.39l.02.35v.3l.02.13.01.13.02.13.02.13.02.13.02.13.02.14.02.13.02.13.03.13.02.13.02.1.3 1.36v.07l.08.4.07.37.27 1.47.33 1.68.1.49.07.36.06.3.08.42.18.92.24 1.26.01.04.07.36.07.37.23 1.18.18.97.07.35.06.32v.05l.3 1.64.28 1.51.21.98.08.4.1.4.3 1.69.07.36.21 1.2.12.63.03.18.02.1.06.35.08.42.13.7.02.1.02.1.02.1.01.1.02.11.02.1.01.1.02.11.02.1.01.1.01.09.01.09.01.1v.52l-.01.1-.01.12-.02.11v.06l-.02.07-.02.1-.02.12-.02.1-.03.11-.02.11-.03.11-.03.1-.04.12-.03.1-.16.24-.46.71-.25.37.11.02.12.03.11.03.11.03.1.03.04.02.15.05.14.05.14.05.02.01.12.05.13.06.14.07.13.06.14.07.13.08.13.07.1.06.09.06.1.06.09.06.1.06.08.07.1.06.08.07.09.07.09.08.08.06.08.07.08.08.08.07.07.08.07.07.07.08.07.09.07.08.06.09.33.41.1.14.1.13.1.13.1.13.1.13.1.13.1.13.1.12.11.13.1.13.41.4.66.75.09.07.08.07.08.06.08.07.08.06.08.06.08.07.08.06.09.06.08.06.98.74.86.65 1.26.93.77.57.5.37 1.01.76.18.13.19.13.19.13.19.12.2.11.19.11.2.1.2.11.2.1.2.09.2.09.21.08.2.07.22.08.2.06.21.07.22.05.2.05.22.05.22.04.18.03.19.03.18.03.19.02.18.02.19.02h.18l.19.02h.37l.76.01h2.86l.1-.01h.22l.2-.01h.22l.2-.01.21-.01h.21l.2-.02h.22l.2-.01.21-.01h.15l.15-.01.38-.02v10.99l-.01 2.8v8.41l-.01 2.7v.9h-2.06l-.02.01h-.04l-.05.01-.04.01-.04.01-.04.02-.04.01-.04.02-.04.02-.18.12-.19.12-.18.12-.19.12-.18.1-.2.12-.18.1-.2.11-.19.1-.2.1-.27.14-.29.13-.28.13-.29.12-.29.12-.29.11-.3.11-.28.1-.3.1-.3.1-.28.08-.28.09-.28.07-.28.08-.28.07-.29.07-.28.06-.28.07-.29.06-.29.05-.6.11-.06.02-.56.1.03.26.02.15.15 1.47v.04l.05.36v.01l.03.31v.04l.15 1.5.06.67.04.4.04.44.14 1.64v.09l.04.37v.05l.03.34v.05l.11 1.24.05.47.01.2v.01l.03.3.03.32.06.72.12 1.3.01.14.01.11.03.28.03.24v.06l.02.14.15 1.56v.15l.02.3.02.29v.03l.01.08.22 2.53v.02l.03.37.04.37v.04l.14 1.61.1 1.08.03.3.02.31.03.3v.09l.1.86.02.39.04.4.03.32.01.23.06.71.03.39.04.41v.03l.09.9.02.23.05.44v.04l.06.66.02.3-2.54 1.12-3.39 1.52-3.56 1.6-.78.35-3.88 1.75-.08-.28-.1-.36-.04-.15-.14-.52-.1-.37-.47-1.57-.4-1.32-.19-.1v-.01l-1.04-.6-.55-.3-.96-.53-.56-.3-.24-.13-.46-.25-.9-.49-.92-.5-.76-.41-.05-.04-.08-.04-.52-.3-.3-.17-.26-.15-.2-.1-.11-.06-1.16-.62-.57-.32-.08-.04-.37-.2-.03.05-.02.06-.02.05-.03.05-.03.06-.03.05-.04.04-.03.05-.04.05-.03.03-.02.03-.04.03-.04.04-.06.05-.06.04-.07.04-.07.04-.07.03-.07.03-.07.02v7.46l.01.26h-2.13l-1.55-.01h-6.72l-1.52.01h-.58l-.64.01-.72.01-.24-.05h-.52l-.74.01h-1.23l-2.43.02-.3.03h-.9l-.44-.01-.87-.04h-5.98l-.4-.01h-4.44l-2.46.02h-.5l-.52-.01h-4.17l-.56-.01h-3.47l-.68-.01v-6.27l-.01-.96v-3.7l.01-.46v-3.68l-.8.01h-7.62l-1.39-.03h-1.26l-1.16.02h-.17l-1.26-.01h-3.38l-.28-.01h-13.81l-1.66-.02h-4.29l-.33-.01h-.01l-.26.2-.55.4-.47.32-.45.26-.55.34-1.6 1-2.22 1.44-.53.35-1.1.72-.36.23-.46.3-.34.23-.02.01-.04.03-.41.27-.12.08-1.11.75-.28.2-.03.01-.4.27-.17.12-.3.2-.3.2-.1.07-.06.04-.53.34-.34.23-.67.46-.32.22-.47.33-.32.23-.4.28-.1.07-.91.67-1.11.81-.81.59-.9.64-.06.04-.06.05-.39.34-.31.28-.1-.48-.02-.14-.1-.48-.06-.42-.05-.48-.02-.34-.08-1.2-.1-1.45-.1-1.55-.1-1.8-.1-.57-.1-.4-.1-.25-.3-.65-.41-.86-.38-.86-.03-.06-.02-.06v-.01l-.03-.06-.08-.17-.03-.09-.14-.35-.83-2.1-.31-.78-.57-1.45-.15-.37-.13-.34v-.01l-.82-2.06-.2-.52-.2-.44-.05-.1-.06-.11-.06-.1-.08-.1-.07-.08-.08-.09-.09-.08-.09-.07-.09-.07-.1-.07-.02-.01-.04-.03-.05-.02-.05-.03-.05-.02-.05-.02-.05-.02-.05-.02-.05-.02-.05-.02-.05-.01-.2-.07-.2-.06-.57-.19-.2-.06-.23-.1-.29-.11-.02-.02-.62-.22-.22-.07-.14-.05-.22-.07-.18-.07-.07-.04-.06-.02-.1-.08-.08-.08-.08-.08-.11-.12-.09-.09-.06-.07-.07-.09-.05-.07-.1-.18-.07-.15-.1-.24-.11-.24-.08-.16-.07-.17-.07-.18-.06-.12-.07-.17-.13-.31-.13-.25-.13-.25-.11-.23-.11-.26v-.01l-.04-.09-1.07-2.35-1.1-2.43-.91-2-1.06-2.37 1.83-2.2.57-.4.48-.42 2.8-2.28.5-.74.3-.64.24-1.27.05-.9-.19-3.26-.4-3.06-.17-1.48-.73-2.43-1.08-1.48-1.04-1.37-.19-1.26-.42-3.34-.73-3.69-.3-2.15-.04-.96.11-.76.23-.7.27-.3.35-.23.3-.12.84.04.61.15.5.23.34.35.03.02.47.38.3.25 1.77 1.84.69.95 1.94 1.65 1.88 1.05.66.43.6 1.03.46 1.19.35 1.07.6.27.54.3.5.09h.6l.62.03 2.02-1.6 1.5-1.08.49-.39.86-.83.32-2.16v-.5l-.15-.8v-.58l.13-.53.02-.13.2-.53.6-3.22-.5-1.85-.56-.92-.8-1.15-1.2-1.23-1.56-2-1-1.42-.76-1.46-.57-1.07-.77-1.15-1-1.54-.95-1.5-.53-.65-.77-.69-.91-.61-.88-.42-.92-.31-1.95-.65-1.26-.27-1.45-.65-1.07-.35-.92-.04-1.19-.04-.87-.23-.62-.03-.8-.39-.73-.5-.76-.8-.23-.66-.27-.57v-.5l.12-.35.72-.72.5-.38.11-.08.09-.07.22-.17.47-.5.03-.03.8-.58.77-.5.57-.46.92-.5.57-.3.65-.35.65-.6.57-.74.39-.5.28-.36.5-.64.64-.85.96-1.23 2.35-1.3.59-.28 3.29-1.25.18-.07.18-.07.19-.08.18-.08.17-.08.18-.09.18-.08.17-.1.18-.08.17-.1.6-.3 1.28-.69 1.03-.56.11-.07.12-.06.12-.06.12-.06.12-.06.12-.05.13-.05.12-.05.13-.04.12-.04.13-.05.13-.04.14-.04.13-.04.13-.03.14-.03.13-.03.14-.03.14-.02.13-.01.1-.02h.1l.1-.02h.1l.11-.01h.2l.1-.01h4.43l.23-.01h.22l.23-.01h.22l.23-.01.22-.01.19-.02.18-.01.18-.02.19-.02.18-.02.18-.03.19-.03.18-.03.18-.03.18-.03.2-.06.21-.04.2-.05.2-.05.21-.04.2-.04.21-.05.21-.04.2-.03.21-.04.16-.02.16-.02.16-.01.16-.01.15-.01.16-.01.16-.01h.16l.16-.01h.16l.79.03h.56l.19-.02.18-.01.19-.02.18-.03.19-.03.18-.03.18-.04.16-.04.16-.05.16-.05.16-.05.15-.06.16-.06.15-.06.15-.06.15-.07.15-.07.18-.1.17-.1.17-.1.16-.1.17-.12.16-.11.16-.12.16-.12.15-.13.15-.13.08-.07.09-.07.08-.06.1-.07.08-.06.09-.06.09-.06.09-.06.1-.06.09-.06.12-.07.12-.07.13-.07.12-.07.13-.07.13-.06.13-.06.13-.06.13-.06.13-.06.13-.05.13-.05.13-.05.13-.05.13-.05.13-.05.13-.04.13-.05.13-.04.14-.04.56-.2.9-.32.24-.1.11-.04.06-.02.17-.07.17-.08.16-.07.17-.08.17-.08.16-.08.17-.09.16-.08.16-.09.41-.25.44-.27.4-.3.77-.55 1.34-.97 1.02-.7.25-.17.26-.16.25-.16.26-.16.26-.15.26-.15.26-.15.26-.15.26-.14.27-.15.33-.16.33-.17.33-.16.34-.15.33-.16.34-.14.66-.29v2l-.01.58v1.6h3.04z" long-name="Ward 1" region="4" short-name="Ward 1" value="1"/>
    <path d="m702.2 591.94-.58-.06-.6-.09-1.7-.21-1.62-.15-1.98-.24-1.52-.18-1.98-.18-4.85-.48-.26-.03-1.4-.18-.55-.06-.76-.08-1.06-.11-.98-.1-.72-.1-.58-.09-.64-.08-.58-.1-.19-.04-.37-.07-.41-.1-.44-.08-.4-.1-.43-.09-.4-.08-.21-.05-.26-.07-.84-.18-.83-.17-.52-.13-.76-.16-.18-.04-.28-.06-.39-.1-2.13-.49-.7-.15-.48-.12-.48-.1-1.48-.33-1.18-.26-.5-.11-.42-.1-1.1-.24-1.94-.45-.52-.12-.47-.1-.96-.23-.8-.17-1-.2-1.65-.4-.83-.18-.36-.08-.53-.13-.39-.08-.56-.13-.6-.14-.42-.08-.32-.06-.8-.19-.45-.09-.52-.12-.84-.19-1.87-.41-.24-.07-.38-.06-.42-.12-1.83-.43-2.2-.51-1.99-.43-.71-.2-.55-.18-.08-.03-1.94-.44-1.18-.27-2.75-.58-1.74-.37-.15-.05-.43-.13-.4-.1-1.97-.45-1.66-.34-.16-.01-.6-.13-1.44-.28-.19-.04-.16-.03-.15-.04-.14-.02-1.81-.38-1.47-.2-.91-.05-.36-.32-.05-.03-.06-.05-.11-.08-.14-.07-.13-.07-.1-.05-1.05-.58-1.53-.85-.33-.19-.17-.09h-.02l-.01-.01-.8-.44-.27-.14-.7-.22-.28-.15-.4-.23-.38-.2-.33-.18-.3-.17-2-1.07-.35-.2-.61-.34-.48-.26-.8-.44-.67-.37-.02-.01-.43-.24-.38-.2-2.5-1.38-.06-.03-.6-.33-.35-.18-.87-.49-.42-.22-.25-.14-.25-.13-.25-.14-.25-.14-.25-.13-.25-.14-.25-.14-.25-.14-.24-.13-.25-.14-.58-.32-.15-.08-.43-.23-.4-.2-.47-.25-1.06-.56-.42-.23-1.89-1.08-.6-.33-1.74-.95-.3-.17-.27-.14-.6-.33-.25-.14-.3-.16-2.36-1.3-.99-.52-.6-.32-.85-.45-.24-.13-.43-.24-.5-.28-.45-.25-1.36-.77-.7-.4-.4-.22-.18-.1-2.45-1.33-.14-.07-.97-.53-.46-.26-.64-.35-.52-.29-3.25-1.8-.04-.03-.66-.33-.22-.12-.7-.38-.37-.2-.3-.16-.47-.26-1.26-.7-.45-.24-1.04-.57-.07-.04-1.77-.97-1.25-.7-.36-.2-.5-.29-.72-.4-3.18-1.77-.52-.3-.59-.32-.1-.05-2.48-1.37-.52-.25-.07-.04-.5-.26-.13-.08-.46-.24-.5-.28-.15-.08-.24-.13-.95-.52h-.01l-1.48-.82-1.48-.8h-.02l-.1-.06-.66-.35-.37-.18-.6-.32-.12-.07-2-1.1-.4-.22-1.06-.58-2.26-1.24-.3-.17-.15-.08-1.84-1-.29-.17-.23-.13-.05-.03-.72-.41-.7.3-4.52 2.02-1.87.83-.22.1-.61.27-1.85.82-.71.32-2.36 1.06-3.13 1.38-.34.15-.74.34-.4.18-.55.25-.56.25-.35.16-.3.14-.84.37-.2.1-1.97.88-.1.05-.33.14-3.37 1.5-4.52 2.02-5.03 2.24-.97.43-1.29.58-3.26 1.45-.5-1.5-1.11-4.18-1.08-4.03-.18-.84-1.05-3.72-.12-.45-.53-1.93-.12-.42-.19-.64-.08-.29-.46-1.62-.1-.36-.04-.16-.03-.09-.14-.52v-.01l-.04-.13-.13-.46-.21-.76-.02-.08-.12-.43-.5-1.76-.2-.72-.07-.23-.15-.55-.08-.26-.1-.35-.06-.26-.07-.27-.38-1.36-.3-1.07-.12-.4-.1-.39-.4-1.43-.5-1.76-.02-.06-.06-.23-.12-.4-.37-1.3-.48-1.75-.11-.39-.1-.37-.01-.04-.46-1.62-.47-1.67-.08-.29-.35-1.21-.14-.54-.07-.27 3.88-1.75.78-.35 3.56-1.6 3.39-1.52 2.54-1.13-.02-.29-.06-.66v-.04l-.05-.44-.02-.23-.09-.9v-.03l-.04-.41-.03-.39-.06-.71-.01-.23-.03-.32-.04-.4-.03-.39-.08-.86-.01-.09-.03-.3-.02-.3-.03-.3-.1-1.09-.14-1.6v-.05l-.04-.37-.03-.37v-.02l-.22-2.53v-.11l-.03-.3-.01-.29v-.08l-.01-.07-.15-1.56-.02-.14v-.06l-.03-.24-.02-.28-.02-.11-.01-.15-.11-1.3-.07-.7-.03-.34-.02-.29-.02-.21-.04-.47-.12-1.24v-.05l-.03-.34v-.05l-.04-.38v-.08l-.14-1.64-.04-.44-.04-.4-.06-.66-.15-1.5v-.05l-.03-.3v-.02l-.04-.36v-.04l-.16-1.47-.02-.15-.03-.26.56-.1.07-.02.6-.1.28-.06.29-.06.28-.07.28-.06.29-.07.28-.07.28-.08.28-.07.28-.09.28-.08.3-.1.3-.1.29-.1.3-.1.28-.12.3-.12.28-.12.28-.13.29-.13.28-.13.2-.1.18-.1.2-.11.19-.11.18-.11.2-.12.18-.11.18-.12.19-.12.18-.12.04-.02.04-.02.04-.01.04-.02h.04l.04-.02h.05l.04-.01h.09l1.54-.01h.45v-6.38l.01-2.77v-11.12l.02-3v-2.53l-.4.02h-.14l-.15.01h-.2l-.22.02h-.2l-.21.01-.2.01h-.22l-.2.01h-.21l-.2.02h-2.47l-.72.01h-.94l-.2-.01-.18-.01-.18-.01-.19-.02-.18-.02-.19-.02-.18-.03-.19-.03-.18-.03-.22-.04-.21-.05-.21-.05-.22-.05-.2-.07-.21-.06-.21-.08-.2-.07-.21-.08-.2-.1-.2-.08-.21-.1-.2-.1-.2-.1-.2-.12-.2-.11-.18-.12-.2-.13-.18-.13-.18-.13-1.01-.76-.5-.37-.77-.57-1.26-.93-.86-.65-.98-.73-.09-.07-.08-.06-.08-.06-.08-.06-.08-.07-.08-.06-.08-.07-.08-.06-.08-.06-.08-.07h-.01l-.66-.75-.4-.4-.1-.14-.11-.12-.1-.13-.1-.13-.1-.13-.1-.13-.11-.13-.1-.13-.1-.13-.1-.13-.33-.42-.06-.09-.07-.08-.07-.08-.07-.08-.07-.08-.07-.08-.08-.07-.08-.08-.08-.07-.08-.06-.09-.08-.09-.07-.09-.07-.09-.06-.09-.07-.1-.06-.09-.06-.09-.06-.1-.06-.1-.06-.12-.07-.13-.08-.14-.07-.13-.06-.14-.06-.13-.07-.12-.05h-.02l-.14-.06-.14-.05-.15-.05-.05-.02-.09-.03-.11-.03-.11-.03-.12-.03-.1-.02.24-.37.46-.71.16-.24.03-.1.04-.11.03-.1.03-.12.02-.1.03-.11.02-.11.02-.11.02-.11.01-.07.01-.06.02-.11.01-.11.01-.11v-.63l-.02-.08v-.08l-.02-.1-.02-.1-.02-.11-.01-.1-.02-.1-.02-.11-.01-.1-.02-.1-.02-.11-.02-.1-.13-.7-.08-.42-.06-.36-.02-.09-.03-.18-.12-.64-.21-1.2-.07-.35-.3-1.68-.1-.4-.08-.4-.2-.99-.28-1.51-.3-1.64v-.05l-.07-.32-.07-.35-.18-.97-.23-1.18-.07-.37-.07-.36v-.04l-.25-1.26-.18-.92-.08-.42-.06-.3-.07-.36-.1-.5-.33-1.67-.27-1.47-.07-.37-.08-.4v-.07l-.3-1.36-.02-.1-.02-.13-.03-.13-.02-.14-.02-.13-.02-.13-.02-.13-.02-.13-.02-.13-.02-.13-.01-.13-.01-.13-.01-.3-.01-.35v-.17l-.01-.22-.03-1.24-.02-.97-.01-.43-.02-1.13V395l-.02-.42-.02-1.36-.03-1.12v-.51l-.02-.44-.03-1.27-.03-1.55v-.43l-.01-.31-.01-.4v-.06l.03-.86v-.01l.03-.17.03-.16.03-.16.04-.17.05-.16.05-.15.33-.87.06-.2.16-.54.61-.18.07-.02.42-.13.41-.13.42-.13.41-.14.42-.14.41-.14.41-.14.41-.14.33-.12.09-.03.4-.14.14-.05.14-.06.14-.05.05-.02.08-.04.13-.06.13-.06.13-.07.13-.07.13-.07.12-.08.05-.03.1-.06.14-.1.13-.1.14-.11.13-.12.13-.1.13-.12.12-.12.13-.12.12-.13.34-.4.5-.58.1-.11.3-.35.44-.5.9-1.04.35-.41.26-.3.02-.03.3-.34.28-.31.3-.35.13-.15.22-.25.94-1.09 1.7-1.96.48-.55.18-.2.01-.02.05-.05.04-.06.04-.05.04-.06.03-.06.04-.06.04-.05.03-.06.03-.07.03-.06.33-.68.15-.3.17-.36.65-1.37.83-1.71.03-.07.04-.07.03-.07.04-.07.04-.07.04-.07.04-.07.04-.07.04-.06.04-.07.48-.76.24-.39.25-.39.06-.1.06-.09.06-.1.06-.09.06-.09.06-.09.07-.09.06-.09.07-.09.07-.09.73-.93.86-1.1.95-1.19.46-.52.06-.07.32-.33.35-.37.35-.38.66-.75.4-.5.1-.13.1-.14.1-.13.08-.13.1-.14.08-.14.09-.14.08-.14.08-.14.07-.15.05-.1.05-.1.05-.09.04-.1.04-.1.05-.1.04-.1.04-.1.03-.1.04-.11.4-1.13.07-.17.13-.36.12-.33.27-.76.4-1.12.02-.05.02-.05.02-.05.02-.05.03-.05.02-.05.03-.05.02-.05.03-.05.03-.04.12-.14.12-.13.12-.14.12-.13.12-.14.12-.14.11-.13.12-.14.12-.14.11-.13.05-.06.02-.03.07-.08.07-.09.07-.08.07-.08.07-.09.08-.08.07-.08.07-.08.08-.08.08-.07.08-.07v-.01l.08-.06.08-.07.09-.07.08-.06.07-.05.02-.02.09-.06.08-.07.1-.06.09-.05.64-.36.23-.11.22-.12.21-.12.22-.13h.02l.2-.13.2-.14.15-.1.06-.04.2-.14.12-.1.08-.05.2-.16 1.43-1.12 1.67-1.32 1.73-1.4.14-.1.13-.1.13-.11.14-.11.13-.12.12-.11.67-.61.86-1.17.15-.23.12-.19.03-.04.05-.1.06-.1.03-.04.13-.24.06-.1.05-.1.11-.2.1-.22.09-.2.08-.22.08-.22.07-.22.25-1.06.1-.89.04-.88v-.38l-.02-.3-.09-1.65-.22-2.96-.04-.72-.03-.42-.02-.41-.02-.25-.1-1.62-.1-1.8-.13-2.27v-.15l-.05-.72-.07-1.05-.12-2.32-.02-.46-.06-1.03-.11-1.87v-.1l-.06-.84-.04-.69-.01-.29-.03-.36-.13-2.16-.11-2.12-.07-1.06-.02-.4-.02-.43-.01-.12-.08-1.13-.01-.16-.01-.16-.01-.15-.01-.16v-.16l-.01-.16v-.15l-.01-.16v-2.48l.02-.36v-.04l-.02-1.36v-4.31l.01-1h.36l.16-.01.1-.01h.05l.16-.03.96-.27 1.29-.35.24-.07 1.93-.58h.04l.14-.05 1.39-.4.3-.08.3-.08h.01l1.37-.39.3-.08.29-.1.29-.08.3-.08.29-.09.3-.09.16-.04.13-.04.3-.09.08-.02.2-.07.26-.07.04-.01.16-.05 1.56-.46 3.68-1.09.44-.12 3.2-.9 1.48-.43.63-.19.09-.03.86-.33.53-.24.4-.22.41-.28.32-.26.07-.06.21-.19.57-.65.05-.05.34-.49.4-.63.14-.27.13-.22 1.92 1.89 4.66 4.6.57.62.01.02.05.03.07.05.07.06.07.05.06.06.07.06.04.04.37.37.43-.32 1.09-.8.1-.1.12-.1.1-.09.11-.1.1-.1.11-.09.1-.1.1-.1.1-.1.1-.1.12-.13v-.01l.11-.12.11-.13.11-.13.07-.08.04-.05.11-.13.1-.13.05-.05.06-.08.1-.14.11-.13.57-.81.52-.88.05-.08.16-.26.25-.41.06-.1.1-.15.09-.15.1-.15.1-.15.11-.15.04-.04.08-.1.11-.14.12-.13.12-.13.13-.13.1-.1.08-.09.09-.08v-.01l.1-.09.1-.09.1-.08.04-.04.06-.05.1-.08.1-.08.09-.07.01-.01.16-.12.15-.12.17-.11.16-.11.16-.1.17-.1.17-.1.17-.1.17-.09.18-.09.2-.1.2-.08.22-.1.14-.05.07-.02.2-.08.22-.08.22-.06.21-.07.22-.06.15-.03.07-.02.2-.04.21-.04h.04l.17-.04.21-.03.2-.02.22-.02.21-.02h.15l.06-.01h.21l.21-.01h9.6l.7-.01h6.42l.16.01h.17l.17.01.17.01.17.01.17.01.16.02.17.01.17.02.17.02 1.87.19h.55l.14-.02.1-.01h.04l.13-.03.14-.03.13-.04.11-.03h.02v-.01h.01l.03-.01.78-.25 198.5 199.33-.85.9-4.35 5.58-2.19 2.13-1.31 1.74-3.96 4.06-1.31 1.14-3.22 1.93-3.23 1.01-1.92.2-8 .05-6.85-.14-3.61.24-2.35.65-2.35 1.43-1.56 1.54-.3 1.5-.3 3.97-1.21 6.06-.7 2.36-1.88 4.67-1.64 2.84-3.1 4.65-2.2 3.17-1.93 3.32-1.23 1.22-1.14 2.52-1.02.38-.63-1.11-.92-.88-1.42-.72-1.56-.34-3.9.2-2.22.74-2.69 1.35-2.41 1.89-1.38 1.8-.37 1.27-1.79 2.88-1.57 1.77-.63 1.57-.15 2.9-.7 1.73-.75 1.08-3.69 2.3-1.18.99-1.28 1.6-1.02 2.21-.19 1.92-.36 1.26-.48 3.07-.54 1.74-1 2.04-.3 1.04-.29 4.46.2 3.79.41 2.21.3 2.66-.18 2.66 1.5.67.61.7.52-.96.32-3.83-.23-1.17.08-1.78-.66-2.09.14-1.72-.22-1.47.35-.87 1.47-1.62 1.15-2.17 2.04-1.98 1.85-.63 2.74-.71 1.91-2.1 1.3-2.69 1.03-3.54.62-2.68 1.32-2.59 1.72-1.84 1.95-1.53 2.34-2.34.68-1.63.42-1.98 1.42-3.5.89-1.01 2.77-1.84.58-.09 1.7 1.15.23.63-2.88 7.62-.32 1.16-2.1 4.5-1.05 2.61-2.04 3.95-1.18 1.8-2.3 3.08-2.43 3.92-1.3 2.32-1.52 2.15-1.18 2.38-.51 2.12-.15 1.61.2 3.3 1.15 6.08-.2 2.13zm5.24-38.4-1.58.04-.1-.39.71-4.62.55-.26 1.12 2.3.77.7-.7.9zm2.46-5.3-.55-.7-.01-.89 1.1-1.56 2.32-1.58 1.85-2.87.81.02.45.83.15 1.7-.79 1.57-2.22.92-1.92 2.17Zm-8.42 13.3.05-1.5.73-.7h1.32l.78.38-.44 1.57-.9 1.36-.13 1.34-.52 1.45-2.35 2.45-1.01 1.37-1.12.48-.64-.4-.13-1.82.42-.9 2.44-2.12.97-1.25z" long-name="Ward 5" region="5" short-name="Ward 5" value="1"/>
    <path d="m76.02 397.77 192.02-193.2.16.3.23.41.25.46.03.05 1.11 2 .2.35.2.37.02.03 1.19 2.05.44.8.21.38.2.38.48.85.25.45.71 1.29.36.63.23.42.16.34.13.39.53 1.5.35 1.02.77 2.2.14.4.14.4.02.06.54 1.63.8 2.34.15.42.15.42.12.35.87 2.49.49 1.4.14.39.11.33.06.17 1.03 3.02.3.85.13.38.11.33.1.28.2.56.96 2.8.1.3.15.43.15.41.05.15 1.28 3.75.13.38.13.38.65 1.86.68 2.02.09.25.04.11.12.36.5 1.4.55 1.64.2.6.32.9.12.34.14.42.59 1.66.14.41.5 1.49.07.2.1.3.04.1.17.56.06.13.09.12.07.1.14.14.2 1.13.07.17.46 1.28.9 2.66.27.76.12.34.14.41.26.74 1.18 3.42.03.09.1.31.1.28.23.7.04.2.03.1.05.1.13.2.18.26.64.17.13.04.16.05.3.1.3.08.3.1.29.09.3.09.33.1.34.11.34.11.33.12.34.12.33.12.34.13.33.12.33.13.33.14.18.08.2.07.18.06.2.07.18.05.2.05.2.04.2.04.19.03.2.03.92.09 1.22.12 1.94.2h.07l.18.02.3.02 1.29.13 1.6.14.28.03.28.03.28.02.28.03.28.03.28.03.28.04.28.03.28.04.27.04.26.03.25.05.26.04.25.04.26.05.25.05.26.05.25.05.25.05.26.06.23.06.23.05.24.06.23.06.23.07.23.06.24.06.23.07.23.07.23.07.09.03.09.02.09.03.09.02.09.03.09.03.09.03.09.03.09.03.09.03.11.04.11.04.12.04.11.05.11.04.11.05.11.05.11.06.11.05.1.06.13.07.12.07.11.08.12.08.11.09.11.08.11.1.1.09.1.1.1.1.4.4.13.12.14.14.13.13.13.13.13.13.13.13.13.14.13.13.13.13.13.14.29.3.06.06.05.07.05.07.05.07.04.08.04.07.04.08.03.08.03.08.03.08.05.21.07-.02.11-.03.12-.03h.14l.08-.01h.62l.04.01h.05l.04.01h.04l.04.01h.05l.04.01h.09l.04.01h.4l.06-.02h.07l.06-.02h.06l.06-.02.08-.02.07-.03.07-.03.07-.03.07-.04.07-.04.06-.05.06-.04.06-.06.05-.05.09-.1.07-.1.08-.1.07-.11.06-.11.06-.11.05-.12.05-.12.05-.11.04-.13.03-.13.04-.14.03-.13.03-.14.04-.13.03-.14.03-.13.03-.14.02-.14.03-.13.04-.15.03-.15.04-.15.04-.14.04-.15.04-.14.04-.15.04-.15.04-.14.04-.15.04-.15.04-.16.04-.16.05-.15.05-.15.05-.15.06-.15.06-.15.07-.15.06-.15.06-.1.05-.1.06-.09.07-.1.06-.08.07-.1.07-.08.07-.09.08-.08.07-.08.75-.64.38-.32.05-.04.05-.03.05-.03.05-.04.04-.04.05-.04.04-.05.04-.04.04-.05.03-.05.08-.1.07-.1.08-.12.07-.1.07-.11.07-.11.07-.11.06-.11.07-.12.02-.04.04-.07.08-.14.07-.14.06-.15.07-.14.06-.15.05-.15.05-.15.05-.15.04-.15.04-.16.01-.08.01-.09.01-.08.01-.09v-.34l-.01-.08-.01-.09-.02-.13-.02-.13-.02-.13-.01-.13-.02-.13-.02-.13-.01-.13-.02-.13-.02-.13-.01-.13-.16-1.22-.02-.16-.02-.17-.02-.16-.03-.17-.02-.16-.03-.16-.03-.17-.02-.16-.03-.16-.03-.16-.03-.13-.02-.13-.02-.13-.03-.13-.01-.12-.02-.13-.02-.13-.01-.13-.02-.13v-.13l-.02-.16-.01-.16v-.16l-.02-.16v-1.28l.01-.16v-1.08l.02-1.07.01-.27v-.73h1.81l.8-.03.7-.05.8-.06.44-.05.33-.03.25-.04.25-.05.19-.02.19-.03.19-.03.19-.04.16-.02.17-.03.17-.03.16-.03.17-.03.17-.03.16-.03.17-.04.17-.03.16-.04.2-.04.2-.05.19-.05.2-.05.19-.05.2-.05.19-.05.19-.06.2-.05.19-.06.13-.04.3-.1.32-.1.4-.15.46-.19.6-.27.04-.03.16-.11.59-.28.8-.4.18-.06.46-.07.43-.22.63-.26.51-.25 1.15-.5.25-.12.25-.07.25-.07.25-.06.25-.05.26-.05.25-.04.26-.03.25-.02.27-.01.27-.01h.54l.27.02.27.03.27.03.27.03.26.05.27.05.3.07.28.09.29.1.28.1.28.12.28.12.26.16.25.15.26.16.25.19.2.14.17.14.17.17.18.15.16.19.15.14.15.15.16.19.2.18.17.2 1.02 1.08.27.26.26.22.28.26.25.2.28.22.3.2.3.2.28.18.26.17.34.2.29.13.29.15.3.15.18.1.6.24.8.26.92.26.55.13.67.13.74.12.75.1.77.05 1.49.05 1.64-.1 1.35-.19 1.3-.27.06-.02 1.57-.48 1.4-.54.1-.03 1.78-.99 1.22-.8 1.35-.89.16-.1.97-.72h.01l.04-.04.32.42.64.81.55.56.8.99.87.87 1.17.93.34.26.58.47.44.35.9.68.53.25.2.09.86.12.96.04h.59l.49.15.58.19.37.27.4.56.1.53.07.5.05.33-.06.5-.52.74-.59.68-.74.78-.4.55-.25.72-.03.65-.27.52-.44.8-.52.57-.62.37-.37.28-.43.37-.43.53-.46.52-.34.53-.12.5-.13.64.1.62-.07.65.13.8.1.6-.16.86-.07 1-.24 1.17-.34 1.52-.06.8.18.87.31.96.34 1.15.12.86v1.09l-.06 1.2-.15.62-.3.62-.29.4-.52.25-.68.47-.58.52-.62.96-.8 1.12-.56.96-.74.99-.78.85-.07.08-.2.22-.8.9-.83.92-.47.52-.11.13-.5.9-1.32 1.8-.46.77-.34.74-.13.62v.44l.03.5.04.8-.13.62-.24.86-.68.9-.43.61-.37.54-.68.99-.62.71-.74.56-.83.56-.92.55-.77.5-.56.5-.99.7-.49.56-.25.47-.18.62.1.43.05.78.34.83.28.56.03.4-.03.74-.22.75-.18.68-.03.74.06.34.06.4.46.38.84.27.95.5.96.87.83.5.8.2h.77l.65-.15.4-.18.5-.34.43-.65.3-.62.13-.78.03-.07.16-.37.05-.11.25-.47.3-.34.35-.15.43-.07.46.04.46.21.5.28.28.25.15.3.15.38.16.59-.03.46.03.75-.16.46-.4.62-.8.8-.83.93-1.05 1.61-.77.87-.52.56-.4.46-.28.47-.28.62-.15.86-.31 1.09-.28.9-.34.86-.18.56-.28.37-.28.19-.24.28-.22.27-.34.16-.46.1-.34-.07-.52-.25-1.08-.55-.9-.25-.83-.22-.8-.1-.74.07-.83.1-.65.15-.3.25-.2.21-.4.5-.43 1.02-.4.9-.43.87-.5.7-1.1 1.1-.93.86-.89.83-.68.62-.34.62-.34.68-.1.3-.11.32-.25.34-.16.18-.2.23-.38.24-.28.13-.35 1.3-.26.83-.26.72-.67 1.02-.64 1.05-.5.55-.68.95-.75 1.13-.59 1.09-.39 1.38-.55 1.15-.11 1.13.03 1.18.08 1.1.43.98.08.59-.04.43-.7 1.57-.67 1.79-.16.42-.1.3-.51 2.5-.7 2.28-.57 1.4-.02.06-.03.1-.32 1.19.03.94.24.67.39.59.43.5.55.24.93.4 2.85 1.01 1.57.55.97.04 1.13-.04 2-.23 1.91-.44 1.37.12 1.52.2.47.35.54.7.4.99.06.63.01.1v.84l-.11 1.29-.08.78.27 1.18.08.98-.08.98-.2.79-.69 1.82-1.08 1.28-.96 1.23-.64.85-.5.64-.28.36-.39.5-.57.73-.65.6-.65.35-.57.31-.92.5-.57.46-.77.5-.8.58-.03.02-.47.51-.22.17-.09.07-.11.08-.5.38-.72.72-.12.35v.5l.27.57.23.66.76.8.73.5.8.39.62.03.87.23 1.19.04.92.04 1.07.35 1.45.65 1.26.27 1.95.65.92.3.88.43.91.61.77.7.53.65.96 1.5 1 1.53.76 1.15.57 1.07.77 1.46.99 1.42 1.57 2 1.18 1.23.8 1.15.58.92.49 1.85-.6 3.22-.2.53-.02.13-.13.53v.57l.15.8v.5l-.32 2.17-.86.83-.5.39-1.49 1.07-2.02 1.6-.62-.02h-.6l-.5-.08-.54-.3-.6-.28-.35-1.07-.46-1.2-.6-1.01-.66-.44-1.88-1.05-1.95-1.65-.69-.95-1.75-1.84-.32-.25-.46-.38-.03-.02-.34-.35-.5-.23-.6-.15-.85-.04-.3.12-.35.23-.27.3-.23.7-.11.76.04.96.3 2.15.73 3.69.42 3.34.2 1.26 1.03 1.37 1.08 1.48.73 2.42.17 1.49.4 3.06.2 3.25-.06.9-.24 1.27-.3.65-.5.74-2.8 2.28-.48.43-.57.39-1.83 2.2-1.5 3.2-1.35 3.1-.37.75-.84.86-.6.22-1.18.5-.77.33-1.48-.18-3.3-2.24-1.92-.37-1.69.44-2.95.74-1.1 1.35-.84 2.4-.77.83-1.44.74-1.26.7-.1.05-1.05.6-1.63.4-1.74.4-3.32 2.42-1 1.53-.67-.6-.53-.5-.62-.59-.61-.58-.4-.37-.76-.67-.99-.06h-.15l-.29-.02-.17-.02-.98-.04-1.38-.04-1.4-.06-1.05-.04-1.1-.04-1-.03-1.04-.04-.74-.02-.9-.03-.66-.03-.87-.05-.95-.07-.8-.03-.73-.03-.73-.02-.8-.03-.23.01h-.08l-.06.01-.03.01-.05.02-.03.01-.04.02-.03.02-.03.03-.01.02-.33-.02-.28-.02-.1-.01-.25-.04-.26-.04-.58-.02-12.1-1.03-.29.12-1.68-.26-.28 4.95v.05l-.01.07-.02.06-.01.07-.03.06-.03.06-.04.06-.08.1-.03.02-.05.06-.09.08-.09.08-.09.08-.1.08-.09.07-.1.07-.1.07-.1.07-1.14.68-.92.55-1.84 1.12-.05.02-.53.3-.28-.44-.16-.25-1.34-2.08-.23-.36-.03-.03-.5-.77-.05.06-.04.07-.04.07-.03.07-.03.07-.03.08-.02.07-.02.08v.08l-.01.08.05 1.82.05 1.64.04 1.12v.02l.01.5-.41.02-1.83.09-.27.01-.51.02-.3.01-.34.02h-.25l-.05.01h-.19l-.05.01h-.09l-.05.01h-.05l-.14.03-.15.02-.14.03-.14.03-.15.03-.14.03-.14.05-.14.04-.14.04-.13.06-.8.3-.43.16-.1.04-.1.05-.11.03-.11.04-.1.03-.12.04-.1.03-.11.03-.11.02-.11.03-.11.01-.12.02-.11.01-.12.01h-.11l-.12.01h-.58l-.12-.02-.12-.01-.12-.02-.12-.02-.12-.02-.12-.03-.12-.03-.12-.03-.11-.03-.1-.03-.1-.03-.1-.04-.1-.03-.09-.04-.1-.04-.09-.04-.1-.05-.09-.04-.09-.05-.12-.05-.12-.05-.12-.05-.12-.05-.13-.04-.12-.03-.13-.04-.13-.03-.13-.03-.13-.02-.07-.01-.07-.01h-.08l-.07-.01h-.54l-.42.02-.36-.25-7.77.21-.06-1.78-3.36.06-.02-2.92-24.14-.07-.06 1.03 2.88 5.22 1.8 6.19.56.88 4.2 4.18.65 1.07.54.8.78 2.13.24 1.59.09 1.17-2.75.12.12.51h.9l.17 1.16.05.16.04 2 .04.24.1.18.22.27.41.42.15.2.14.21.12.26.14.38 1.3 3.56.15.23.18.16.31.04.35.01 1.34 3.46.98 2.32.25.95.26 2.16.05 2.4-1.42 2.72.03 1.4.07 4.93v.72l-.26.46-1.47-.44.04 9.64-1.35-.01-2.11-.31-.74.35-2.14-.11-2.89.33-1.85.06-2.34.4-1.02.36-3.6-.65-2.94-1.22-2.4-1.28-2.64-1-.97-.7-4.75-2.13-4.2-1.53-1.6-.17-1.06-.63-3.44-1.12-1.23.05-2.29-.54-.52-.99-.81 1.12-1.78-1.71-2.29-.6-1.94-.79-1.63-1.27-4.03-1.2-2.26-.51-3.07-1.3-2.14-2.19-2.97-2.83-.43-.03-1.37-2.1-1.74-1.5-.05-.6-1-.95-1.74-1.22-1.52-1.63-1.84-1.35-1-1-2.58-2.1-.19-.7-1.32-.44-1.16-1.05-1.73-.58-.8-.88-.44-2.56-.75-.06-.38-1.52-.92-2.05-1.22-1.2-.42.11.65 2.2 1.17 3.07-.63.63-.66-1.36-1.15-1.13-.96-2.28-.95-1.04.55-3.74.63-.43-.46-1.04-.09-1.27.62-1.04.14-1.32-.63-2.39-.94-2.08-.94-2.82-1.25-2-.28-1.09-.61-.76-.64-5.2.82-.77-1.4-1.49-.3-2.14-1.4.26-.9 1.78.46 1.09-1.15 1.02-1-1.1-1.28-.7-.95-.84-.02-.73-.83-1.12.05-.73-1.17-.81-1.1-1.63-.77-2.48-.86-1.13-2.03-.33-1.86-1.74-.51-.93-1.35-.43-1.91-2.18-1.32-2-1.94-.45-1.22-.79-.19-1.65-2.4-2.3-1.55-.43-.8-1.5-1.59-.51.22-1.03 1.1-.93-1.45-.9-1.63-.43-.76-.64-2.07-.77-.56-.91.02-.84-1.05-.4-.1-1.3-3.42-3.62-.49-.06-1.25-1.18-1.58-2.15-1.25-1.04-.32-1.79-.83-.42-1.02-1.5-.8-.6-1.08-1.46-.77-.5-.2-.87-.9-.62-1.37-2.12.37-.54-.31-1.64-.66.43-.64-.31-.5-2.06.11-.47-.67-1.47.62-1.12-.39-2.51-.68-1.06-1.06-1 .17-1.07-.35-1 .75-.08-.62-2.8-1.52-1.25-.53-2-1.24-.76-.29-.68-.94.16-1.2-2.86.17-.68-.55-.72-1.03-.37-.01-.99-1.06-.8-1.18-1.63-.58-.21z" long-name="Ward 3" region="6" short-name="Ward 3" value="1"/>
    <path d="M392.14 80 591.8 280.5l-.78.24H591v.01h-.03l-.1.04-.14.04-.14.03-.13.02h-.04l-.1.02-.14.01-.14.01h-.41l-1.87-.19-.17-.02-.17-.02-.17-.01-.16-.02h-.17l-.17-.02h-.17l-.17-.01h-.17l-.17-.01h-6.14l-.27-.01H578l-1.94.01h-7.13l-.06.01-.15.01-.21.02-.21.02-.2.02h-.01l-.2.03-.18.03h-.04l-.2.05-.21.04-.07.02-.15.03-.22.06-.21.07-.22.06-.21.08-.21.07-.07.03-.14.06-.21.08-.2.1-.21.1-.18.08-.17.09-.17.1-.17.1-.17.1-.16.1-.16.1-.17.12-.15.12-.16.12-.01.01-.09.07-.1.08-.1.08-.06.05-.04.04-.1.08-.1.1-.1.08v.01l-.09.08-.09.1-.09.09-.13.13-.12.13-.12.13-.11.14-.08.1-.04.04-.1.15-.11.15-.1.15-.1.15-.09.16-.06.09-.25.4-.16.27-.05.08-.52.88-.57.81-.1.13-.1.14-.07.08-.04.05-.11.13-.1.13-.05.05-.07.08-.1.13-.12.13-.1.12h-.01l-.12.13-.1.1-.1.1-.1.11-.1.1-.1.1-.1.1-.12.1-.1.09-.11.1-.11.08-1.09.8-.43.33-.37-.37-.04-.04-.06-.06-.07-.06-.07-.05-.06-.06-.07-.05-.05-.03-.02-.02-.57-.62-4.66-4.6-1.92-1.9-.13.23-.15.27-.4.63-.33.5-.05.04-.57.65-.21.2-.07.05-.32.26-.41.28-.4.22-.53.24-.86.33-.1.03-.62.2-1.48.42-3.2.9-.44.12-3.68 1.1-1.56.45-.16.05h-.03l-.26.08-.21.07-.09.02-.3.09-.12.04-.16.04-.3.09-.3.09-.29.08-.3.09-.29.09-.3.08-1.36.38-.02.01-.3.08-.3.09-1.38.4-.14.03-.04.01-1.93.58-.24.07-1.3.35-.95.26-.15.03h-.06l-.1.02-.16.01h-.36v7.06l-.01.42v2.39l.01.15v.16l.02.16v.15l.02.16v.16l.09 1.13v.12l.03.42.02.4.07 1.07.1 2.12.14 2.16.03.36.01.3.04.68.05.84v.1l.12 1.87.06 1.03.02.46.12 2.32.07 1.05.04.72.01.15.13 2.28.1 1.79.1 1.62.02.25.02.41.02.42.05.72.22 2.96.1 1.65.01.3v.38l-.04.88-.1.89-.25 1.06-.07.22-.08.22-.08.21-.1.21-.09.21-.1.2-.06.1-.06.1-.13.25-.03.04-.06.1-.05.1-.03.04-.12.19-.15.23-.86 1.17-.67.6-.12.12-.13.12-.13.1-.14.12-.13.1-.14.1-1.74 1.4-1.66 1.32-1.43 1.12-.2.16-.08.06-.12.09-.2.14-.06.04-.15.1-.2.14-.2.12-.02.01-.21.13-.22.12-.22.12-.23.11-.64.36-.1.05-.09.07-.08.06-.1.06-.01.02-.07.05-.08.06-.09.07-.08.07-.07.06h-.01l-.08.08-.09.07-.07.08-.07.08-.07.08-.08.08-.07.09-.07.08-.07.08-.07.09-.07.08-.02.03-.05.06-.11.13-.12.14-.12.14-.12.14-.11.13-.12.14-.12.13-.12.14-.12.13-.12.14-.03.04-.03.05-.02.05-.03.05-.02.05-.03.05-.02.05-.02.05-.02.05-.02.05-.4 1.12-.27.76-.13.34-.12.35-.06.17-.41 1.13-.04.1-.04.1-.03.1-.04.1-.05.11-.04.1-.04.1-.05.1-.05.1-.05.1-.07.14-.08.14-.09.14-.08.14-.09.14-.09.14-.09.13-.1.13-.09.13-.1.13-.4.5-.66.76-.35.38-.35.36-.32.34-.06.07-.46.52-.95 1.2-.86 1.09-.73.93-.07.1-.07.08-.06.09-.07.09-.06.1-.06.08-.06.1-.06.09-.06.1-.06.09-.25.4-.24.38-.48.76-.04.07-.04.06-.04.07-.04.07-.04.07-.04.07-.04.07-.03.07-.04.07-.03.07-.83 1.71-.65 1.37-.17.36-.15.3-.33.68-.03.06-.03.07-.03.06-.04.05-.04.06-.03.06-.04.06-.04.05-.04.06-.05.05-.01.01-.18.2-.48.56-1.7 1.96-.94 1.09-.22.25-.13.15-.3.35-.27.3-.3.35-.03.03-.26.3-.35.4-.9 1.04-.44.5-.3.36-.1.1-.5.6-.34.4-.12.11-.13.13-.12.12-.13.11-.13.11-.13.12-.14.1-.13.1-.14.1-.1.07-.05.03-.12.08-.13.07-.13.07-.13.07-.13.06-.13.06-.08.04-.05.02-.14.05-.14.06-.13.05-.41.14-.08.03-.34.12-.4.14-.42.14-.41.14-.42.14-.41.14-.42.13-.41.13-.42.13-.07.02-.61.18-.52.15-1.44.41-.12.04-.12.04-.08.03-.04.01-.12.04-.12.03-.07.02-.05.01-.12.03-.12.03h-.03l-.1.03-.12.02-1.83.3-1.1.18-.88.14-1.93.32h-.05l-.48.1-.39.07-.12.03-1 .3-.9.28-.18.05-2.55.81-1.37.43-.4.12-.29.1-.79.24-2.73.88-1.08.3-.42.75-.45.77-.05.1-1.17 2-1.1 1.89-.1.2-.23.38-.11.2-.42.05h-.25l-.13-.02-.1-.02-.1-.02-.11-.02-.1-.02-.1-.03-1.24-.4-.18-.14-.07-.11-.2-.14-.23-.1-1.16-.39-1.77-.6-1.46-.49-.04-.01-.42-.14-.34-.12-.9-.31-2.12-.75-.05-.02-1.36-.45-.45-.14-.27-.1-.2-.06-2.24-.77-.17-.06-1.56-.51-.52-.17-.45-.16-.33-.12-.28-.1-.15-.05-.37-.13-.48-.17-.8-.28-1.3-.45-.43-.15-.39-.13-.72-.24-.67-.22-2.15-.73-.47-.17-.86-.3-.37-.13-1.29-.4-.6-.19-.51-.18-1.27-.47-.32-.11-.36-.12-.78-.26-.44-.14-.33-.1-.32-.1-.22-.06-.04-.01-.18-.05-.22-.05-.23-.04-.22-.03-.23-.03-.22-.03-.23-.01-.23-.01h-8.65v-2.18l.01-1.05v-.95l-.66.28-.34.15-.33.16-.34.15-.33.16-.33.17-.33.16-.27.14-.26.15-.26.15-.26.14-.26.16-.26.15-.26.16-.25.16-.26.16-.25.16-1.02.7-1.34.98-.76.55-.41.3-.44.27-.4.25-.17.09-.16.08-.17.09-.16.08-.17.08-.17.07-.16.08-.17.07-.17.08-.06.02-.11.05-.24.1-.9.3-.56.2-.14.05-.13.04-.13.05-.13.04-.13.05-.13.05-.13.05-.13.05-.13.05-.13.05-.13.06-.13.05-.13.07-.13.06-.13.06-.13.07-.12.07-.13.07-.12.07-.12.07-.1.06-.09.05-.1.06-.08.06-.1.07-.08.06-.09.07-.08.06-.09.07-.08.07-.15.13-.15.12-.16.13-.16.12-.16.11-.17.11-.16.1-.17.11-.17.1-.18.1-.15.07-.15.07-.15.06-.15.06-.16.06-.15.06-.16.05-.16.05-.16.05-.16.04-.18.04-.18.03-.19.03-.18.02-.19.02-.18.02-.2.01h-.18l-.19.01h-.18l-.8-.03h-.31l-.16.01h-.16l-.16.02h-.15l-.16.02-.16.01-.16.02-.16.02-.2.03-.21.04-.2.04-.21.04-.2.05-.21.04-.2.05-.21.04-.2.05-.2.05-.19.04-.18.03-.18.03-.19.03-.18.02-.18.03-.19.02-.18.02-.18.01-.19.02h-.22l-.23.01-.22.01h-.23l-.23.01h-2.68l-1.76.01h-.5l-.11.01-.1.01-.1.01-.1.01-.1.02-.14.01-.14.02-.14.03-.13.02-.14.03-.13.04-.14.04-.13.04-.13.04-.13.05-.13.04-.12.04-.13.05-.12.05-.12.05-.12.06-.12.06-.12.06-.12.06-.11.07-1.03.56-1.28.68-.6.31-.17.1-.18.09-.17.09-.18.08-.18.09-.17.08-.18.08-.19.07-.18.08-.18.07-3.3 1.24-.58.3-2.35 1.29 1.09-1.29.69-1.81.2-.79.07-.98-.08-.98-.27-1.18.08-.78.11-1.3v-.93l-.07-.63-.4-.98-.54-.71-.47-.35-1.52-.2-1.37-.12-1.91.43-2 .24-1.13.04-.97-.04-1.57-.55-2.85-1.02-.93-.39-.55-.23-.43-.51-.4-.6-.23-.66-.03-.94.32-1.2.03-.1.02-.06.56-1.39.7-2.27.51-2.51.12-.3.15-.42.67-1.8.7-1.56.04-.43-.08-.6-.43-.97-.07-1.1-.04-1.18.11-1.13.55-1.15.4-1.38.58-1.09.75-1.13.68-.96.5-.54.64-1.05.67-1.02.26-.72.26-.84.35-1.3.28-.12.37-.24.2-.23.17-.18.25-.34.1-.31.11-.3.34-.69.34-.62.68-.62.9-.83.92-.87 1.1-1.08.5-.72.43-.86.4-.9.44-1.02.4-.5.18-.21.3-.25.66-.16.83-.09.74-.06.8.1.83.2.9.25 1.08.56.52.25.34.06.46-.1.34-.15.22-.28.24-.27.28-.19.28-.37.18-.56.34-.87.28-.9.3-1.08.16-.86.28-.62.28-.47.4-.46.52-.56.77-.87 1.05-1.6.83-.94.8-.8.4-.62.16-.47-.03-.74.03-.46-.16-.6-.15-.36-.16-.31-.27-.25-.5-.28-.46-.21-.46-.04-.43.07-.34.15-.31.34-.25.47-.05.1-.16.38-.03.07-.13.78-.3.62-.44.65-.49.34-.4.18-.65.16h-.77l-.8-.22-.83-.5-.96-.86-.95-.5-.84-.27-.46-.38-.06-.4-.06-.34.03-.74.18-.68.22-.75.03-.74-.03-.4-.28-.56-.34-.83-.06-.78-.1-.43.2-.62.24-.47.5-.55.98-.72.56-.5.76-.49.93-.56.83-.55.74-.56.62-.71.68-1 .37-.53.43-.6.68-.9.24-.87.12-.62-.03-.8-.03-.5v-.44l.13-.62.33-.74.47-.77 1.32-1.8.5-.9.11-.13.47-.52.83-.93.8-.9.2-.2.07-.09.78-.85.74-1 .56-.95.8-1.12.62-.96.58-.52.68-.47.52-.24.28-.4.3-.63.16-.62.06-1.2v-1.09l-.12-.86-.34-1.15-.3-.96-.2-.87.07-.8.34-1.52.24-1.18.07-.99.15-.86-.1-.6-.12-.8.07-.65-.1-.62.13-.65.12-.5.34-.52.46-.52.43-.53.43-.37.37-.28.62-.37.52-.56.44-.8.27-.53.03-.65.25-.72.4-.55.74-.78.59-.68.52-.74.06-.5-.05-.33-.07-.5-.1-.53-.4-.56-.37-.28-.58-.18-.5-.16h-.58l-.96-.03-.86-.12-.2-.1-.54-.24-.9-.68-.43-.35-.58-.47-.34-.26-1.17-.93-.86-.87-.8-1-.56-.55-.64-.81-.32-.42-.04.03-.01.01-.97.71-.16.11-1.35.9-1.22.8-1.78.98-.1.03-1.4.54-1.57.48-.06.02-1.3.27-1.35.2-1.64.09-1.49-.05-.77-.05-.75-.1-.74-.12-.67-.13-.55-.13-.93-.26-.78-.26-.61-.24-.18-.1-.3-.15-.3-.15-.28-.13-.34-.2-.26-.17-.28-.18-.3-.2-.3-.2-.28-.22-.25-.2-.28-.26-.26-.22-.27-.26-1.02-1.08-.17-.2-.2-.18-.16-.19-.15-.15-.15-.14-.16-.18-.18-.16-.17-.16-.18-.15-.18-.14-.25-.2-.27-.15-.25-.15-.26-.16-.28-.12-.28-.12-.28-.1-.29-.1-.29-.09-.3-.07-.26-.05-.26-.05-.27-.03-.27-.03-.27-.03-.27-.01h-.27l-.27-.01h-.27l-.27.02-.25.02-.26.03-.25.04-.26.05-.25.05-.25.06-.25.07-.25.07-.25.13-1.15.5-.51.24-.63.26-.43.22-.46.07-.18.06-.8.4-.59.28-.16.11-.04.03-.6.27-.45.2-.4.15-.33.1-.3.09-.13.04-.2.06-.19.05-.2.06-.19.05-.2.05-.19.05-.2.05-.19.05-.2.05-.19.04-.16.04-.17.03-.17.04-.16.03-.17.03-.16.03-.17.03-.17.03-.16.03-.17.02-.2.04-.18.03-.2.03-.18.02-.24.05-.26.04-.33.03-.44.05-.8.06-.7.05-.8.02-.73.01h-1.08v1l-.02 1.07v.93l-.01.15v.47l-.01.16v.81l.01.16v.16l.02.16.01.16.01.13.02.13.01.13.02.13.02.13.01.12.03.13.02.13.02.13.03.12.03.17.03.16.03.16.02.17.03.16.02.16.03.17.02.16.02.17.02.16.16 1.22.01.13.02.13.02.13.01.13.02.13.02.13.01.13.02.13.02.13.02.13v.09l.01.08.01.09v.34l-.02.08v.09l-.02.08-.04.16-.04.15-.05.15-.05.15-.05.15-.06.15-.07.14-.06.15-.07.14-.08.14-.04.07-.02.04-.07.11-.06.12-.07.1-.07.12-.07.1-.07.11-.08.11-.07.1-.08.11-.03.05-.04.05-.04.04-.04.05-.05.04-.04.04-.05.04-.05.03-.05.03-.05.03-.38.33-.75.64-.07.08-.08.08-.07.09-.07.09-.07.09-.06.09-.06.1-.06.09-.06.1-.06.1-.06.14-.07.15-.06.15-.05.15-.06.15-.05.15-.05.15-.04.16-.04.16-.04.15-.04.15-.04.14-.04.15-.04.15-.04.14-.04.15-.04.14-.04.15-.03.15-.04.15-.03.13-.02.14-.03.14-.03.13-.03.14-.04.13-.03.14-.03.13-.04.14-.03.13-.04.13-.05.11-.05.12-.05.12-.06.11-.06.11-.07.1-.08.11-.07.1-.08.1-.06.05-.06.05-.06.05-.06.05-.07.04-.07.04-.07.03-.07.03-.07.03-.07.02-.07.01-.06.01-.06.01-.07.01-.06.01h-.06l-.06.01h-.41l-.04-.01h-.04l-.05-.01h-.04l-.04-.01h-.05l-.04-.01h-.16l-.03-.01h-.54l-.11.01-.12.03-.1.03-.08.02-.05-.2-.03-.09-.03-.08-.03-.08-.03-.08-.04-.07-.05-.08-.05-.07-.05-.07-.05-.07-.06-.06-.29-.3-.13-.13-.13-.14-.13-.13-.13-.13-.13-.14-.13-.13-.13-.13-.13-.13-.14-.14-.13-.13-.4-.4-.1-.1-.1-.1-.1-.09-.1-.09-.12-.08-.1-.09-.12-.08-.12-.07-.12-.08-.12-.07-.11-.06-.1-.05-.12-.06-.1-.05-.12-.05-.1-.04-.12-.05-.12-.04-.11-.04-.11-.04-.1-.03-.08-.03-.1-.03-.08-.03-.1-.03-.08-.02-.1-.03-.08-.03-.1-.02-.08-.03-.23-.07-.23-.07-.23-.06-.24-.07-.23-.06-.23-.07-.23-.06-.24-.06-.23-.06-.23-.05-.26-.06-.25-.05-.25-.06-.26-.05-.25-.04-.26-.05-.25-.04-.26-.05-.25-.04-.26-.03-.28-.04-.27-.04-.28-.03-.28-.04-.28-.03-.28-.03-.28-.03-.28-.02-.28-.03-.28-.03-1.6-.14-1.3-.13-.3-.02-.17-.02h-.07l-1.94-.2-1.21-.12-.93-.1-.2-.02-.2-.03-.2-.04-.2-.04-.19-.05-.19-.05-.19-.07-.19-.06-.19-.07-.18-.08-.33-.13-.33-.14-.33-.12-.34-.13-.33-.12-.33-.12-.34-.12-.34-.1-.34-.12-.34-.1-.3-.1-.29-.09-.3-.09-.29-.09-.3-.09-.16-.05-.13-.04-.64-.17-.18-.27-.13-.2-.05-.1-.03-.1-.04-.2-.23-.7-.1-.27-.1-.31-.03-.09-1.18-3.42-.26-.74-.14-.4-.12-.35-.26-.76-.92-2.66-.45-1.28-.07-.17-.2-1.13-.14-.15-.07-.1-.1-.11-.05-.14-.17-.54-.03-.1-.1-.31-.08-.2-.5-1.49-.14-.4-.59-1.67-.14-.42-.12-.34-.32-.9-.2-.6-.55-1.64-.5-1.4-.12-.36-.04-.1-.09-.26-.68-2.02-.65-1.86-.13-.38-.13-.38-1.28-3.75-.05-.15-.15-.41-.14-.42-.1-.3-.98-2.81-.2-.56-.09-.28-.11-.33-.13-.38-.3-.85-1.03-3.02-.06-.17-.11-.33-.14-.4-.49-1.4-.87-2.48-.12-.35-.15-.42-.15-.42-.8-2.34-.54-1.63-.02-.06-.14-.4-.14-.4-.77-2.2-.35-1.02-.53-1.5-.13-.39-.16-.34-.23-.42-.36-.63-.71-1.29-.25-.45-.47-.85-.2-.38-.22-.38-.44-.8-1.19-2.05-.01-.03-.21-.37-.2-.36-1.11-1.99-.03-.05-.25-.46-.23-.4-.16-.3z" long-name="Ward 4" region="7" short-name="Ward 4" value="1"/>
    <path d="M700.42 140h171.2c7.97 0 14.4 6.43 14.4 14.4v20c0 7.97-6.43 14.4-14.4 14.4h-171.2c-7.97 0-14.4-6.43-14.4-14.4v-20c0-7.97 6.43-14.4 14.4-14.4" long-name="Chairperson" region="Chairperson" short-name="Chairperson" value="1"/>
    <path d="M700.42 198.8h54.1c7.97 0 14.4 6.43 14.4 14.4v16c0 7.97-6.43 14.4-14.4 14.4h-54.1c-7.97 0-14.4-6.43-14.4-14.4v-16c0-7.97 6.43-14.4 14.4-14.4" long-name="At Large 1" region="AL-1" short-name="At Large 1" value="1"/>
    <path d="M817.52 198.8h54.1c7.97 0 14.4 6.43 14.4 14.4v16c0 7.97-6.43 14.4-14.4 14.4h-54.1c-7.97 0-14.4-6.43-14.4-14.4v-16c0-7.97 6.43-14.4 14.4-14.4" long-name="At Large 2" region="AL-2" short-name="At Large 2" value="1"/>
    <path d="M700.42 253.6h54.1c7.97 0 14.4 6.43 14.4 14.4v16c0 7.97-6.43 14.4-14.4 14.4h-54.1c-7.97 0-14.4-6.43-14.4-14.4v-16c0-7.97 6.43-14.4 14.4-14.4" long-name="At Large 3" region="AL-3" short-name="At Large 3" value="1"/>
    <path d="M817.52 253.6h54.1c7.97 0 14.4 6.43 14.4 14.4v16c0 7.97-6.43 14.4-14.4 14.4h-54.1c-7.97 0-14.4-6.43-14.4-14.4v-16c0-7.97 6.43-14.4 14.4-14.4" long-name="At Large 4" region="AL-4" short-name="At Large 4" value="1"/>
  </g>
  <g fill="currentColor" font-family="Roboto" font-size="33.6" map-type="region-texts" text-anchor="middle" transform="translate(0,80)">
    <text xml:space="preserve" x="710.67" y="93.83" for-region="Chairperson">Chairperson</text>
    <text xml:space="preserve" x="652.91" y="153.04" for-region="AL-1">AL-1</text>
    <text xml:space="preserve" x="769.91" y="153.04" for-region="AL-2">AL-2</text>
    <text xml:space="preserve" x="651.91" y="207.84" for-region="AL-3">AL-3</text>
    <text xml:space="preserve" x="768.61" y="207.84" for-region="AL-4">AL-4</text>
  </g>
</svg>