<svg map="usa" type="ct_lower" date="2022" variant="blank" title="Connecticut 2022 House of Representatives" auto-border-stroke-width="1" auto-border-stroke-width-limit=".5" original-source='["https://www2.census.gov/geo/tiger/GENZ2022/shp/cb_2022_us_sldl_500k.zip"]' candidates="[{&quot;id&quot;:&quot;0&quot;, &quot;name&quot;:&quot;Democrats&quot;, &quot;margins&quot;: [{ &quot;color&quot;: &quot;#1C408C&quot; }, { &quot;color&quot;: &quot;#577CCC&quot; }, { &quot;color&quot;: &quot;#8AAFFF&quot; }, { &quot;color&quot;: &quot;#949BB3&quot; }]},{&quot;id&quot;:&quot;1&quot;, &quot;name&quot;:&quot;Republicans&quot;, &quot;margins&quot;: [{ &quot;color&quot;: &quot;#BF1D29&quot; }, { &quot;color&quot;: &quot;#FF5865&quot; }, { &quot;color&quot;: &quot;#FF8B98&quot; }, { &quot;color&quot;: &quot;#CF8980&quot; }]}]" version="1.1" xmlns="http://www.w3.org/2000/svg" viewBox="0 0 1000 731.5">
  <g regions="y" transform="translate(0 -134.25)">
    <path region="0" short-name="State House District 18" long-name="State House District 18" value="1" d="m503.68 306.5 4.83-.71 10.15 4.13 2.92 3.69.79 9.97-1.29 4.39.56 7.12.15 7.2-7.25-1.04-.1-2.9-4.39 1.1-3.04-1.43 1.01-3.97-1.67-7.95-1.03-8.46.21-4.3z"/>
    <path region="1" short-name="State House District 14" long-name="State House District 14" value="1" d="m561.4 287.45 4.27-5.38 2.23-5.9 3.27-15.6 7.04.17 45.48-1.29-.51 9 11.08-2.58-2.84 17.9-1.6 9.99-15.52 5.06-10.2 3.38-5.63-.7-4-1.24-1 2.05-17.27-7.96-2.72 9.73-15.2-5.28z"/>
    <path region="2" short-name="State House District 116" long-name="State House District 116" value="1" d="m381.61 664.08 1.49-13.26-2.52-7.9 16.93 1.95v6.07l2.69 2.98 5.32 7.73 1.11 3.33-.27.6-4.02-.96-2.34 1.91-2.24-1.24-6.21 3.63-2.65.8-4.4 3.19-2.91 1.33-2.49-.31 6.23-7.62z"/>
    <path region="3" short-name="State House District 1" long-name="State House District 1" value="1" d="m521.58 313.6-.1-1.53 3.03 1.08 1.47 5.08 10.68.78 1.23.55-1.66 6.57 1.62 3.7-7.4-1.36-.23 4.58-8.58 2.04-.56-7.12 1.29-4.4z"/>
    <path region="4" short-name="State House District 9" long-name="State House District 9" value="1" d="m607.01 320.92.35 3.94 4.68 1.4-.06 3.05.55 3.1 4.4-.33-.48 3.66 1.6 4.62-.22 7.82-1.64 2.21-20.27 3.13-.96-6.98-1.88-.02-14.62 2.72-.32-8.26 2.22-2.01.9-3.41-.29-4.1-.35-2.9-3.35-6.74 6.13-2.21 5.18-.67 6.14 2.5 7.17-.66z"/>
    <path region="5" short-name="State House District 56" long-name="State House District 56" value="1" d="m629.82 293.76 1.6-9.99 1.99.48.84-4 3.13-2.74-.77-3.34 2.44-3.87-1.3-3.32.78-3.88 1.84-2 29.34-4.9 1.45 13.37-4.37 1.75-6.3 6.45-10.72 7.55 1.4 3.8-8.33.23 1.08 4.1-3.6-1.3-1.26 5.31 1.08 1.88-11.4 1.75z"/>
    <path region="6" short-name="State House District 140" long-name="State House District 140" value="1" d="M154.77 775.82v3.84l2.2 4.9 2.86 1.57 1.4 8.3 1.2 2.69-2.91 6.24-2.34.9-.67-.67-1.97-1.3-2.43-13.52-4.55-3.19 2.46-3.76-1.46-4.17 1.83-1.45z"/>
    <path region="7" short-name="State House District 25" long-name="State House District 25" value="1" d="m499.89 384.25 2.08 14.83-4.7.63-1.28 2.21.41 3.43-9.48 1.48-.96-2.36-.45-6.82-1.24-8.23 10.46-1.22 1.14-3.54z"/>
    <path region="8" short-name="State House District 46" long-name="State House District 46" value="1" d="m864.35 485.9 2.68.85-.95 3.71 3.4 2.8-5.97 9.4-3.48 3.7-4.66-3.76-2.67 17.69-4.2-.2-6.52-3.5-2.02 1.17-4.6-2.81-.75-2.23-3.84 1.34.13-4.84-1.42-3.02-.55-5.76 3.03-10.88 2.95-1.56 4.43-.7 1.63-3.16 6.77-.84 1.42 2.2.86 5.08 2.95-.75 1.36-2.55 7.6 3.78 1.42-.39z"/>
    <path region="9" short-name="State House District 105" long-name="State House District 105" value="1" d="m359.84 538.85 1.88 3.6.4 5.75-.12 11.46-2.19 10.36-6.28-.97-3.03 17.22-.8 10.15 1 14.09-12.94-.06-4.33-1.56-2.68-.03-4.61 1.54-3.89 5.35 3.55 9.38-3.41 5.18-6.4-.72-5.23-8.62-5.87-4.05-1.08-1.86-.73-5.02-4.12-4.45 10.62-8.04 5.73-4.71 2.73-8.13 11.62-1.31 2.26-2.58-4.7-6.65 3.25-13.94 1.52-3.71 2.5-12.82.64-5.1 8.03 6.14 4.15-3.68.83-5.05 4.54.55z"/>
    <path region="10" short-name="State House District 26" long-name="State House District 26" value="1" d="m480.13 374.51 6.68-6.52 10.83-2.04 2.25 18.3-4.02.4-1.14 3.55-10.46 1.22 1.24 8.23-6.92-.04.16-2.76-4.83.13.21-5.77 1.91-.29 1.4-3.5 5.05-7.23z"/>
    <path region="11" short-name="State House District 12" long-name="State House District 12" value="1" d="m607.01 320.92 7.57-.45-1.1-8.86 1.64-5.98-.82-6.8 15.52-5.07-1.08 7.33 11.4-1.75 4.83-.53 1.32 10.18 1.24 9.6-6.05-1.34-7.69.93-5.3 4.8-6.95 1.47-4.59 2.14.58 2.33-5.55.39.06-3.04-4.68-1.4z"/>
    <path region="12" short-name="State House District 138" long-name="State House District 138" value="1" d="m98.25 556.12 8.18-2.94 6.84-.26 5.2 3.43 9.08-.55 1.45 3.26 8.9 8.73 2.63.96 2.15 5.18-5.26 5.83 1.8 4.17-5.38 1.47 1.18 3.33-2.24 7.4-2.2-.48-16.7-5.15-7.16-.64-3.37-1.34-2.8.13-5.07 2.27.67-11.63z"/>
    <path region="13" short-name="State House District 29" long-name="State House District 29" value="1" d="m521.69 409.48 6.33-1.08-1.56-10.02 6.46-1.5 12.14.75 1.53-1.9.84-5.14 3.24-1.44-.12-9.49.5-1.48-2.73-9.95 3.39-.78 6.68 1.87 1.8-2.49 9.55 1.6 3.14 3.53-1.94 3.2-8.05 2.62-.69 3.99 2.06 2.08 8.73 1.22 3.66 4.7-.46 4.61-1.29 1.45-6.58 2.2-1.66 2.26-.06 2.99 2.37 7.86-.47 3.59-1.75 3.38L542 423l-19.6 3.7.81-1.99-.77-3.86z"/>
    <path region="14" short-name="State House District 62" long-name="State House District 62" value="1" d="m336.73 303.78 3.4-16.99 4.07-22.9 6.12-31.82 7.14-39.37 2.31-.21 4.64-23.22 6.07-26.88 4.74.14 70.04.66 8.5.56 17.3.28-1.64 26.98 21.63-3.15-1.88 8.8 7.97 2.46-2.23 8.18-9.37 38.86-21.11-.63-14.7-.97-11.18-.34-15.1-.62-4.84 17.24-13.04 1.1-2.85 12.44-.08 2.22-3.76 13.9v5.01l1.26 2.76 2.4-.64 3.83.77 1.34 1.55-6.45 23.4-26.04 4.42-8.95 1.28-30.79-.19z"/>
    <path region="15" short-name="State House District 4" long-name="State House District 4" value="1" d="m532.56 347.33.56-6.47 3.09-.12.26-7.84 2.88.5 2.18-5.67 2.1-.71 4.02 1.83-.1 2.6 1.94 4.88 3.7 3.82-3.64.19-1.52 1.38-1.14 8.7-4.6.82-3.71-.98-.41-6.1z"/>
    <path region="16" short-name="State House District 96" long-name="State House District 96" value="1" d="m407.77 649.84 3.3-5.11 3 1.69 6-17.15 5.14 4.12 4.76-1.17 2.3-2.54 9.74-1.5 4.96-1.27-1.17 3.47-5.38-.46-9.8 11.24-7.01 1.42-4.34 1.78-.69 7.12-4.63-.43-.77 1.72-5.81.43-1.68-2.4z"/>
    <path region="17" short-name="State House District 19" long-name="State House District 19" value="1" d="m463.1 293 15.69-2.41.67 13.95 22.75-.6 1.47 2.56 1.85 6.84-.2 4.3 1.03 8.46 1.66 7.95-1 3.97 3.03 1.43-2.93.77-1.16 2.78.8 6.54-5.23 1.66-4.27-5.13-2.16.58-1.05 2.89-5.22 6.45-1.62-12.43-6.58.53-.9-7.83-12.23.59-3.75-.81-24.58-3.72 1.7-1.26-2.52-5.24-.2-4.24 4.96-1.61 1.93.85.72 3.8 9.48-1.6 3.1-12.14 4.07-10.08z"/>
    <path region="18" short-name="State House District 65" long-name="State House District 65" value="1" d="m336.73 303.78-1.25 5.08-14.12.04.21 2.3-3.4 4.95-1.13 3.93-2.41.59-1.35 3.95-17.7-5.57 4.66-1.86 2.53-1.96-1.72-9.7-5.22-3.8-1.35-2.52.57-6.03 1.87 1.44 3.93.61 2.71 2.25 6.12-.07.3-4.25 3.38-.3 6.6-6.22.98-.14 4.6-7.8 2.53 6.49.32 4.68-2.26 11.2 3.48 1.18 2.24-1.73 2.63 2.79z"/>
    <path region="19" short-name="State House District 10" long-name="State House District 10" value="1" d="m547.65 328.85.39-1.84 3.2-3.25 2.42 1.5 6.48.47 7.92-1.44 2.6-1.38 1.03 8.06 4.22-.79.5 2.13 4.56-.85.3 4.1-.9 3.4-2.23 2.02.32 8.26 14.62-2.72 1.88.02.96 6.98-16.86 3-16.69 3.15-5.92-2.07 2.68-5.04-1.03-7.25-4.91-5.16-3.7-3.82-1.95-4.88z"/>
    <path region="20" short-name="State House District 39" long-name="State House District 39" value="1" d="m842.37 592.34-.15 6.8 2.66 9.13-3.01.17-.8 3.68 1.25 3.03-1.71 2.06-3.93 13.47 1.85 5.8-2.43.57-1.83-4.6-1.93-8.8-1.12-2.1-7.2-9.05.11-5.27 9.6-12.12z"/>
    <path region="21" short-name="State House District 145" long-name="State House District 145" value="1" d="m87.25 813.32 4.78-.95 2.57 2.52.53 4.46-1.28 2.31.6 8.65.83 3.8 2.09 2.94-4.45 4.65-2.8-.31-5.3-11.54-2.67-13.14 4.34.4z"/>
    <path region="22" short-name="State House District 143" long-name="State House District 143" value="1" d="m159.11 747.41 1.84-1.42 10.6-6.08 4 .87-.27 5.52 6.07-.98.52 3.44 2.76 3.45 2.94 10.41-.66 2.78-2.78 3.93-2.32 7.3-3.94 2.4-.97 8-4.02-2.27-1.58-3.28-5.63 1.62-.97-6.2 1.64-6.35-1.15-6.19-2.62-.83-3.5 2.02-2.02 2.97-.81-.85-1.55-7.6 3.11-1.02-.2-6.8z"/>
    <path region="23" short-name="State House District 7" long-name="State House District 7" value="1" d="m534.13 303.92-1.15 3.34 1.78 3.26 4.18 2 1.97 5.67 3.92 1.1-1.3 4.53.1 3.2-2.1.7-2.17 5.68-2.9-.5-6.24.16.24-4.59 7.4 1.37-1.63-3.7 1.66-6.58-1.23-.55-10.68-.78-1.47-5.08-3.03-1.08-.97-8.86 13.5-.65z"/>
    <path region="24" short-name="State House District 71" long-name="State House District 71" value="1" d="m300.26 474.87 14.71-4.46 11.66-4.07 1.34 9.96.45 2.93 6.43 5.5 2.42-2.2 7.68-2.51 2.11.8 3.07 7.13 2.16 1.22.18 4.33 2.68-.74 6.13 2.33 2.29-.85-.67 4.15.52 3.2-12.93 2.61-3.85.38-20 .51-1.14 4.03.38 4.46-3.38 3.18-1.22 5.2-10.7 1.26-16.94-1.27.54-2.45-1.81-3.5 1.84-5.12-.83-1.83.78-2.24h.68l.07-2.35-.16-.31-4.6-28.78z"/>
    <path region="25" short-name="State House District 90" long-name="State House District 90" value="1" d="m450.6 518.4 3.59-5.68-2.06-8.88 28.02 7.58 1.65.77 10.34 4.7 14.36-.98-1.18-20.03-.94-11.7 7.22-.02.66-1.26 5.65-1.24 5.82.04 8.75-.9 3.6 8.98 2.47 3.49.88 5.77-.21 4.01 1.14 6.12.6 8.09-.65 1.12-5.64.88-16.83 4.01-5.73 1.46-2.7 32.36-3.62 10.31-15.64 6.82-11.4 5.66-9.84 3.9-5.1 1.93.34-15.7 2.96-3.77 7.36-4.3 4.99-4.4 8.68-11.8-1.65.03.33-4.75-3.36.84-3.99-.28.74-3.15-3.27-1.34-5-.3-3.85-2.52-3.96 9.1-4.81-2.04-1.4 2.88-2.82-1.65-1.2-2.37 1.77-3.97 4.42 2.77 2.5-7.37-4.1-.84-1.1-2.72-7.59-1.66-1.36-3.5z"/>
    <path region="26" short-name="State House District 129" long-name="State House District 129" value="1" d="m261.74 729.65 1.24-1.3 8.74-5.57 1.75 3.46-4.98 5.9-5.36 3.5.38 2.96 3.88 2.16.67 6.68-5.14 5.4-5.19 6.75-3.74-.66 1.02-2.49-.43-3.07-1.82-1.07 4.68-5.8 3.03-4.65-2.77-.35 2.35-4.75 1.96-2.05z"/>
    <path region="27" short-name="State House District 51" long-name="State House District 51" value="1" d="m909.3 151.14 40.75 1.34 42.92.51.72 10.76.68 50.36.4 13.25 2.06 68.56-3.7 2-3.9.43-10.51-2.54-1.06-2.84-3.28-1.8-4.3 2.5-5.78-4.98-5.42-6-5.22 3.87-4.14.89-.2-5.4-2.44-4.31.06-2.39-6.77-.77-3.45 3.72-1.78.09-3.92-4.7-3.16-.64.44-4.23 3.59-7.92-2.98-4.65 1.93-8.46-3.07-9.69-2.59-3.67-.85-7.49 3.35-.13-2.39-10.55-10-42.46z"/>
    <path region="28" short-name="State House District 144" long-name="State House District 144" value="1" d="m83.36 786.92 3.13-1.64 1.47 1.29 4.58.32.28 5 3.95 4.37.47 6.12 1.49 2.4-1.59 3.83 2.57.85 1.63 7.83-6.22 2.06-.52-4.46-2.57-2.52-4.78.95.73-8.43-1.9-5.46.54-2.77-2.28-5.35z"/>
    <path region="29" short-name="State House District 77" long-name="State House District 77" value="1" d="m375.74 368.23 13.95-2.15 12.05-1.37 2.58-.85 19.6-2.31 3.49-.7 1.35 7.44 1.43 10.85 2.24 14.85-9.7 2.23-3.3-.1-4.45 1.66 1.13-4.97 4.39-.77-.51-6.66-.99-4.01-10.73 4.26-2.1-3.81-2.74-2.15-2.9-.23-4.02-2.06-6.9 2.63-1.48 1.8-9.81 1.86z"/>
    <path region="30" short-name="State House District 54" long-name="State House District 54" value="1" d="m730.45 282.86 20.79.03 23.74.52-.12 7.82 1.78 5.13.25 4.41 4.94 7.38.56 9.05 3.17 9.94 3.98 8.8 7.71-1.53.72.82 7.7-3.8 3.24.1.8 8.4-2.31 2.32-3.96-1.45-1.63 2.6-5.95-5.29-3.2 4.16-3.24 9.02 2.27 2.78-.42 1.8-3.1 1.54-28.1-.02-3.63-.98-.5-3.12-2.63-6.59-1.9-1.48 1.79-2.88-.08-2.32-2.44-4.43 1.04-1.9-1.83-3.2.22-2.8-1.74-3.38-2.5-2.16-.2-3.43-5.65-7.7-2.28.22-3.47-1.7-1.65 1.44-3.56-2.02 1.35-3.2-3-1.8 1.58-14.93 2.3-4.15z"/>
    <path region="31" short-name="State House District 103" long-name="State House District 103" value="1" d="m412.92 474.1 18.71-2.94-.9 12.28-1.8 11.24 5.12.66-.52 6.96 4.93 3.48.85 3.73-1.86 4.52 5.44.88 5.37 1.9 2.34 1.6-2.16 4.48 1.36 3.51 7.59 1.67 1.1 2.7 4.1.85-2.5 7.37-4.42-2.77-1.77 3.97-4.86-.09-5.85-4.74-1.87.3-3.15 5.7.38 1.04-5.16 8.05-6.92-3.46-2.62 4.3 1.38 5.32-4.34.27 1.42 4.55-2.66 6.06-4.81 3.71-11.34-3.96-2.6 4.13-1.46-1.27.95-5.8-5.6-3.18-.86-4.79 2.74-3.98-.1-2.5 4.68-4.79.51-5.7 6.24.96 4.74 1.65 4.5.3-3.01-9.02.19-3.34-1.77-.52.86-6.3 2.49.87.65-3.88-1.22-5.3 3.6.8-.53-6.85-5.95-5.37 1.55-3.27 1.98-7.34-.33-2.53-4.01-2.7.55-4.83 1.48-2.13z"/>
    <path region="32" short-name="State House District 63" long-name="State House District 63" value="1" d="m271 314.7 18.97-85.25 11.28-52.22 8.16-37 38.13 1.46 22.94.7-6.07 26.88-4.64 23.22-2.3.2-7.15 39.38-6.12 31.83-4.08 22.89-3.4 17-2.24-.48-2.63-2.79-2.24 1.73-3.48-1.18 2.26-11.2-.32-4.69-2.54-6.47-4.59 7.8-.98.13-6.6 6.23-3.38.3-.3 4.24-6.12.07-2.7-2.25-3.94-.61-1.87-1.44-.57 6.03 1.35 2.53 5.22 3.78 1.72 9.7-2.53 1.97-4.67 1.86-2.3-.73-2.36-6.38z"/>
    <path region="33" short-name="State House District 24" long-name="State House District 24" value="1" d="m470.09 385.26 10.04-10.75 2.36 3.68-5.04 7.24-1.4 3.5-1.92.28-.21 5.77 4.83-.13-.15 2.76 6.9.04.46 6.82.96 2.36 9.48-1.48 2.77 1.6.44 4.59-6.78.91-12.93.83-11.74 1.51-.8-7.38h-.95l-1.57-8.82 3.01-10.08z"/>
    <path region="34" short-name="State House District 120" long-name="State House District 120" value="1" d="m293.77 701.14 3.7-2.75 2.18-3.19 8.12-.78 6.73-1.9 7.66-2.9 5.83-.84-5.33 4.34-4.32 7.32-.26 2.81 1.08 4.8-1.02 3.42.56 6.3-3.14 7.26-2.79 3.42-.64 6.56-3.17-.35-1.13-4 .04-5.07-1.97-.92-.21-2.82-2.84-2.96-1.56-3.36-5.02 1.56-2.68-.23-2.04-8.32.44-4.79z"/>
    <path region="35" short-name="State House District 102" long-name="State House District 102" value="1" d="m465.76 639.48 12.71-4.12 9.7 7.76 4.64 5.43-.28 3.45-8.2 5.22 1 3.49-3.64 7.61 3.57 1.85-.65 4.16-1.7 3.97-4.19 2-4.06 2.02-2.4 3.87-3.28-1.3-3.08-2.71 1.5-2.13-3.59-3.96-1.7 3.38-1.56 6.47-3.4-1.74-.64-4.06-4.24 2.55-.2 3.2-4.74 2.95 1.22-4.02 2.56-4.7-.55-3.48-3.7-.95-1.09-5.53 1.7-5.1-.77-1.37 2.58-5.39 6.22-3.78 1.84-2.34 1.49-8.76z"/>
    <path region="36" short-name="State House District 127" long-name="State House District 127" value="1" d="m262.09 701.53.65 4.37 3.44 5.68 4.44 1.74 1.45 2.86.24 3.5-.59 3.1-8.74 5.57-1.24 1.3.01-3.32 2.96-.08 3.72-2.44-4.98-5.58-1.49-2.94-3.23 1.65-6.9-10.52-2.65-4.06z"/>
    <path region="37" short-name="State House District 92" long-name="State House District 92" value="1" d="m385.06 625.46 2.76 4.28 4.1 2.53 3.78.7 2.39-.68 3.13 6.68 5.09 2.42.12 5.96 1.34 2.5-2.08.94-5.5 3.13-2.68-2.98v-6.07l-16.93-1.95-4.58-.55.85-6.62 3.84-3.53z"/>
    <path region="38" short-name="State House District 79" long-name="State House District 79" value="1" d="m416.1 392.8-1.12 4.98 4.44-1.66 3.32.1 9.69-2.23 2.65 17.72-10.11 1.36-10.77 1.39 1 3-3 .28-.42-3.26-18.2 2.85.07-4.66-1.03-4.53 1.54-2.09-.52-4.67 1.23-4.13 2.33-2.77 3.48-.14.47-4.77 6.62-.72.95 1.34 5.65-1.3z"/>
    <path region="39" short-name="State House District 149" long-name="State House District 149" value="1" d="m76.58 741.96-1.21 3.25 3.3 2.32.1 2.5 2.26 4.37-.18 7.32-1.41.19h-4.38l-.34 3.03-2.43.62-1.17 2.76-.41 11.1 1.48 2.08.67 4.2 2.14 2.9 6.48-.66 1.87-1.02.99 4.4 2.28 5.34-.53 2.77 1.9 5.46-.74 8.43-.76 3.78-4.34-.39-4.65-8.2-11.23-18.83-6.1 4.1-5.9 2.13-.58 3.33-2.5-1.56-4.58.57.53 5.96-2.2.71.67 7.27-.05 7.05 2.86 12.45.16 2.82 2.1 3.63-13.52 10.54-3.62-5.35-22.4-36.68L0 788.53l45.4-27.9Z"/>
    <path region="40" short-name="State House District 97" long-name="State House District 97" value="1" d="m422.74 655.3 1.45-2.7 5.98-1.98 2.28-4.9-1.84-4.56 9.81-11.24 5.38.46-2.57 7.65-2.5 7.98-7.88 15.84.31 20.94-2.03 2.72-4.78 3.04-1.95-1.92.71-2.3 4.16-2.48.42-2.31-1.88-4.02-4.05-3.34 1.16-4.63-1.6-3.96z"/>
    <path region="41" short-name="State House District 31" long-name="State House District 31" value="1" d="m562.37 359.67 16.69-3.15.7 3.96 5.43-2.27 5.42.14 1.29 4.4 1.77 2.42 4.9-.86 8 1.72 8.1-.83 4.17 3.29 2.19.7 3.31 6-3.78 7-6.34 3.64-1.83 1.99-.78 4.86 4.51 7.59 2.04 1.78 6.48 2.88 4.13 1.01 2.87 2.54-1.82 4.94-8.45 1.03-11.54 1.93-44.46 6.5 1.38-4.78 1.75-3.37.47-3.59-2.37-7.86.06-3 1.66-2.24 6.58-2.21 1.29-1.45.46-4.6-3.66-4.71-8.74-1.22-2.05-2.08.7-3.99 8.04-2.63 1.94-3.2-3.14-3.51-9.55-1.61-4.28-5.92z"/>
    <path region="42" short-name="State House District 122" long-name="State House District 122" value="1" d="m282.82 628.2 2.53.07 2.85 1.94-1.63 4.36-.24 6.48 1.95 5.52 2.38 3.72 2.22 6.54 1.93.32 1.15-3.32 5.69.3 2.3-2.64 2.76-.7 4.21-4.62.1 3.71 2.49-.86 3.98 1.44.74 3.67 3.49 6.74 7.46.72 3.8 2.21-1.14.93-2.53 6.72.67 13.65-1.99 3.68-5.83.83-7.66 2.9-6.73 1.9-8.12.8-2.19 3.18-3.7 2.75-6.13 3.85-9.13 1.53-1.85-3.09-2.26-1.52-.3-5.25 8.95-1.67 4.49.44 3.3-.92 4.98.53 3.6-12.17-4.42-9.63-9.44.33-16.08-21.09z"/>
    <path region="43" short-name="State House District 68" long-name="State House District 68" value="1" d="m302.07 395.69 5.09 7.61 3.23-1.76 2.92 1.84 3.07.33-.16 2.9 5.28-.73 4.76 2.33.78 2.03 5.35 2.75 2.77 9.48-.2 1.8 4.63 3.13 1.14 2.42 3.8 2.36.56 8.99-1.37 4.08.28 5.05 1.4 2.87-3.5.57-6.89.69-.79 3.28-3.31 2.54 2.33 4.33-1.85 4.12.09 3.2-1.15 5.24-2.36-.84-1.34-9.96-11.66 4.07-14.7 4.46-4.87-28.92-1.7-8.89-6.7-38.95z"/>
    <path region="44" short-name="State House District 13" long-name="State House District 13" value="1" d="m579.06 356.52 16.86-3 20.26-3.13 1.65-2.2.22-7.83-1.6-4.63.48-3.65-4.4.32-.55-3.1 5.55-.38-.58-2.33 4.59-2.14 6.95-1.46 5.3-4.81 7.7-.93 6.04 1.34 1.2 9.6 2.25 16.4 1.03 5.77-.53 1.45-.12 8.88-4.56 8.66-2.08 2.18-4.69-1.56-4 .56-10.9-.44-4.1-.9-2.2-.7-4.16-3.29-8.1.83-8-1.72-4.9.86-1.77-2.42-1.3-4.4-5.41-.14-5.43 2.27z"/>
    <path region="45" short-name="State House District 136" long-name="State House District 136" value="1" d="m187.31 796.56 4.72 3.74-2.6 1-4.97-4.64zm-11.76-55.78 3.87-10.46 4.7 6.88 16.48-12.88 5.05 9.28 11.19 19.61 1.83 4.43 2.36.72.48 4.45.9 3.16-1.35 6.09.07 3.13-5.4 3.7-2.34-1.35-3.73 1.03-5.04 3.6-2.97-1.2-7.18 3.67-1.2 3.26-8.02-3.81.12 3.8 1.35 2.93-1.96 1.23-7 .1-.45 3.83.37-6.92-.78-2.03.97-8 3.94-2.4 2.32-7.3 2.78-3.93.66-2.78-2.94-10.4-2.76-3.46-.52-3.44-6.07.98z"/>
    <path region="46" short-name="State House District 15" long-name="State House District 15" value="1" d="m478.79 290.59 7.84-1.4-.08-6.67-.86-4.75.37-8.5 7.23-17.35-.5-3 3.26-12.11 2.3-2.14-.2 1.55 5.95 4.53 5.99 3.15-2.66 10.4 22.32 6.45 5.13 1.23.09 4.22 1.3 23.73.5 17.74-2.09-.46-.55-3.29-.13-1.36-13.5.65.98 8.86.1 1.54-2.92-3.7-10.15-4.12-4.83.7-1.47-2.55-22.74.6z"/>
    <path region="47" short-name="State House District 17" long-name="State House District 17" value="1" d="m438.55 224.22 1.19 34.52.68 23.2 1.45 14.7 21.23-3.63-.69 7.8-4.08 10.07-3.1 12.14-9.47 1.6-.72-3.8-1.93-.85-4.96 1.6.2 4.26 2.53 5.23-1.71 1.26-4.5-.76-6.06.51-2.72-2.65-.91-4.84-2.83-.23-6.1-2.31-2.39-5.8-.3-7.55-1.32-2.86 3.46-1.63-2.33-2.74-11.91 1.89 6.45-23.4-1.34-1.55-3.83-.77-2.4.64-1.27-2.76v-5l3.77-13.91.08-2.22 2.85-12.44 13.04-1.1 4.84-17.24z"/>
    <path region="48" short-name="State House District 111" long-name="State House District 111" value="1" d="m94.33 606.38.56-5.87 19.15-1.59 2.5 10.49 8.35 3.79 7.88 20.72 1.94 9.19 7.75 4.73 2.14 18.96 4.61 9.11-24.09 13.78-1.9-3.05-3.37.44-1.92-5.04.94-1.54-1.22-4.05-1.23-7.94-9.3 1.58-3.3 5.2-12.72-20.1 1.05-8.36-.33-5.71.3-7.12z"/>
    <path region="49" short-name="State House District 139" long-name="State House District 139" value="1" d="m772.96 501.8 17.6 4.62 1.25-1.5 4.47.87.07-2.32 5.7 1.6 4.74 2.63 10.06 4.09 3.26-.47 1.67-2.79-4-18.84 4.1-8.38.3-11.28 3.56 1.03 3.33-7.6 3.29 1.04 1.87 5.16.4 6.13 2.25-.87 5.26-7.7 14.3-9.57 1.14 3.14-1.6 2.44 1.77 2.66 6.96-2.93 2.57 6.08.7 3.57-1.5 3.51.16 4.61-2.29 5.16-1 4.78-1.41.4-7.6-3.8-1.37 2.56-2.95.75-.86-5.08-1.42-2.2-6.77.84-1.63 3.17-4.43.7-2.95 1.55-3.03 10.88.55 5.76 1.42 3.02-.13 4.84 3.84-1.34.75 2.23 4.6 2.8 2.02-1.17 6.52 3.52.27 2.01 3.13 5.07.41 4.7 1.91 6.3 1.84.37-1.94 7.51-4.07 4.34-2.08 3.22 2.45 8.06 5.19 2.17 5.9 3.77 4.74 4.5.75 4.42-.26 7.21-25.86-.62-.1-5.77 1.54-4.8-1.34-6.53-5.54-1.3-1.98.37.23-6.48-4.5-1.24.3-6.52 1.4-9.23-3.2-3.12-1.7-.18-10.79-8.21-8.27-3.88-7.85-6.31-3.52-1.6-5.97-.96-3.13-4.16-5.94.08-2.78 1.06-4.08-8.85z"/>
    <path region="50" short-name="State House District 141" long-name="State House District 141" value="1" d="m112.33 786.99-.88-2.93 5.52-4.91 3.78-.04.4 8.31 6.36 3.42 1.74 2.73 4.39-.58-2.04-7.76 2.5-.9 7.16 10.77-.11 2.29 3.28 1.86.83 7.22 7.77.5 3.48-3.38.67.67 1.22 1.57v4.78l-.84 2.85-5.8 5.75-3.91-.04-2.58-1.63-6.73 1.17-2.97-2.87-2.22.45-.78 4.09-2 3.3 2.13 1.42-2.97 2.24-1.6 5-1.92-6.57-2.05 2.71-4.61-3.71-3.47-5.67-1.97-2-1.85-6.7-4.18-7.7 1.81-5.68-.24-4.02z"/>
    <path region="51" short-name="State House District 21" long-name="State House District 21" value="1" d="m422.15 324.35 2.83.23.91 4.84 2.72 2.65 6.05-.5 4.5.75 24.59 3.72 3.75.8 12.22-.58.91 7.82 6.59-.52 1.61 12.43 5.22-6.46 3.33 1.3.26 15.12L486.8 368l-6.68 6.52-10.04 10.75-15.07-3.1.7-7.96-4.17-1.8 2.15-3.34.42-5.4-8-6.1-7.99-5.22-2.06.7-3.05 7.09 2.67 4.3 1.2 7.93 1.28-.2 3.26 3.27.88 3.83-4.35-1.09-7.77.97-1.43-10.85-1.35-7.43-3.08-18.69-.35-5.42z"/>
    <path region="52" short-name="State House District 23" long-name="State House District 23" value="1" d="m671 635.43 11.74-5.06 9.71-.27 4.82-3.85 2.77-3.25-4.4-2.83-.88-2.26 1.05-10.11 1.27-6.06-.57-2.03-2.88-2.98-1.67-3.15-8.85-2.3-7.32-.56-3.76-1.74-1.45-4.74.63-6.72-.51-3.1-3.92-7.5 3.14.49 14.33-1.94 48.57-7 .34 2.45 9.43-4.36 5.12-.95-2.84 23.74 1.5 12.16 1.3 15.04 1.14 7 4.85 11.55 4.48 9.18-.85 2.1 1.04 4.97 3.72 11.15-1.3 6.4-5.23 4.85-3.77-1.03-4.73.25-3.46 2.24-7.27 1.29-9.77.78-5.07-.47-3.24-3.05-4.03-9.24-2.45-10.17-2.08-.37-2.94 8.33-.12 5.76 3.67 4.53 3.46 10.8-2.83-.88-5.65 1.39-4.4 3.14-5.65-.72-4.15 1.9-6.22-11.22-3.62.94-6.17-1.12-4.36 2.96-6.09-3.16-7.19-.1-5.32 3.01-3.01 3.75-2.29-.75-7.05-.4-4.12-14.64 3.21-1.37 4.47.49 3.53 2.64 6.61 1.44 2.66-1 3.25 2.26 7.29 3.53h4.95l1.51-2.18-5.7-20.19.33-2.82z"/>
    <path region="53" short-name="State House District 147" long-name="State House District 147" value="1" d="m79.44 761.9-.2 5.62 5.05 7.37 3.79.47 2.96 2.23 2.4 3.2 5.83-2.89 5.28-.15 4.44 9.13 3.34.1-2.68 6.02.24 4.02-1.8 5.67 4.17 7.7-5.5-.01-7.05-.92-2.57-.85 1.59-3.82-1.5-2.41-.46-6.12-3.95-4.37-.28-5-4.58-.32-1.47-1.29-3.14 1.64-1.87 1.02-6.48.65-2.14-2.88-.67-4.2-1.48-2.09.4-11.1 1.18-2.76 2.43-.62.34-3.03z"/>
    <path region="54" short-name="State House District 148" long-name="State House District 148" value="1" d="m112.26 810.4 1.85 6.7 1.97 2 3.47 5.67-5.26 3.33-1.03 2.94-4.8-.95-2.02 1.43 2.23-4.05-2.51-4.57-1.4-.72.18-4.28-3.6-.6-1.63-7.84 7.06.92z"/>
    <path region="55" short-name="State House District 27" long-name="State House District 27" value="1" d="m501.98 399.08.84 5.95 1.62 1.79 4.63-1.37.06-1.23 6.76-1.02-2.17-15.16-6.1 2.36-1.33-10.3-1.99.4 1.58-6.07 7.39-12.62 2.84-.4 10.4-1.33-1.08 9.62 3.95 24.7-3.39.6.47 3.38 1.56 10.02-6.33 1.08-6.22.35.1 1.87-11.7 1.74-.25-2.2-4.01.3-.44-4.6-2.77-1.59-.4-3.43 1.27-2.2z"/>
    <path region="56" short-name="State House District 28" long-name="State House District 28" value="1" d="m526.5 360.08 6.4-.6 19.55-3.27 4 1.39 5.92 2.07-6.46 1.24 4.28 5.92-1.8 2.5-6.68-1.88-3.4.78 2.73 9.95-.5 1.48.13 9.49-3.24 1.44-.84 5.14-1.53 1.9-12.14-.75-6.46 1.5-.47-3.39 3.4-.6-3.96-24.7z"/>
    <path region="57" short-name="State House District 151" long-name="State House District 151" value="1" d="m82.15 816.71 2.67 13.14-3.65 1.35-1.55 4.22-11.01.87 2.6-6.88-.64-.88-5.81 3.74-5.07-.17-.92 4.74-4.84-.67-3.25 1.97-2.1-3.63-.16-2.82-2.86-12.44.05-7.06-.68-7.26 2.21-.72-.53-5.96 4.58-.57 2.5 1.57.58-3.34 5.9-2.13 6.1-4.1L77.5 808.5z"/>
    <path region="58" short-name="State House District 35" long-name="State House District 35" value="1" d="m576.48 553.8 20.07 19.46 16.09-4.62 7.58 31.13 5.21 20.44 8.1-.82 10.98 8.99 21.2 2.42 1.93 3.03 3.35 1.6-3.28 4.87-.32 2.82 5.7 20.2-1.52 2.17h-4.95l-7.3-3.53-3.24-2.26-2.66 1-6.61-1.44-3.53-2.65-4.47-.48-3.2 1.37 4.1 14.64-6.85 3.3-5.55 6.35-3.97-.79-1.7-5.37-6.15 2-1.59 5.4-4.9-3.77-.93-2.75.31-5 1.4-1.43-1.92-2.55-.43-3.04-3.16.85-5.47-8.08-2.32-1.39-.29-2.46-6.08-5.75-1.6-.66-.5-3.83-1.46-1.5 2.11-2.4-.23-2.99-3.11.14-2.01-3.6-2.62 1.52-7.02-2.85v-4.83l1.65-4.28-.84-4.8.31-8.54 2.11-3.25-.36-4.2-2.66-4.98.86-3.71-2.93-3.76-2.29-1.33-3.38-5.25-1.67-4.73-.03-2.88-4.8-.98-4.56-3.7 4.2-7.01-2.32-1.26-.79-2.74 1.72-2.79 15.58-1.75z"/>
    <path region="59" short-name="State House District 40" long-name="State House District 40" value="1" d="m836.1 637.05 2.43-.58-1.85-5.79 3.93-13.47 1.7-2.06-1.24-3.02.8-3.7 3-.16-2.65-9.13.15-6.8-.67-3.92-1.54-2.4.72-2.89 25.86.62 17.73.33 25.72.77.52 5.81-2.02 4.7.35 2.4-1.29 4.2-3.67 1.37-7.18-.7-4.97.55-10.08 5.72-13.8 2.28-.37 3-2.87-.1-2.18 3.73-2.7-.22-5.52-3.15.15 6.55.76 4.24-9.03-.08 1.7 15.08-6.4 2.1.7 3.25-2.76 1.22-1.38 2.43.27-6.2z"/>
    <path region="60" short-name="State House District 42" long-name="State House District 42" value="1" d="m103.82 675.28 3.3-5.19 9.3-1.58 1.23 7.94 1.22 4.05-.94 1.54 1.92 5.04 3.37-.44 1.9 3.05 24.1-13.78 6.69 11.66 16.9 30.96 6.6 11.79-3.86 10.46-4-.87-10.6 6.08-1.84 1.42-15.42 4.83-2.04-4.1-1.81 1.58-3.33-1.65-1.29 1.24-4.16-.3-2.53-1.39-5.8 2.9v3.38l-1.6-1.58-1.34-6.76.37-4.1-4.07-11.67 1.17-2.86-1.93-8.6 10.94-6.5-18.38-30.11z"/>
    <path region="61" short-name="State House District 43" long-name="State House District 43" value="1" d="m996.62 510.7-2.12 61.23-1.94.8-5.9-2.66-3.83.02-2.19 2.85-4.91 2.51-2.86-.37-1.97 4.32 1.2 4.53-.5 2.66 2.03 3.28 2.85 2.36.52 4.9.01 6.26-3.1 3.7-.12 3.68 1.12 4.52 2.26 1.56 1 6.1-3.5 4.39-5.95 4.4-2.17 3.38-4.43 3.03.49-1.47-4.72-3.72-4.53-5.63-2.5-.15-.26-6.42 6.6-5.85-4.53-8.74-2.37-.98-3.53.88-6.63.12-2.4-3.54-4.6-1.62-5.09 1.3-4.55.2-10.56-1.96-5.19 1.38 1.3-4.2-.36-2.39 2.02-4.7-.52-5.81-25.72-.77-17.73-.33.26-7.21-.75-4.43-4.75-4.5.57-2.83 3.73-2.08-.69-4.77 3.37-1.5 1.79-3.87 6.37 1.13 4.24-1.63.62-5.28 3.75-7.12 3.19-4.02-2.38-10.38 26.54-1.93-2.26-10.04-3.2-18.35 33.16 5.78 31.78 5.78z"/>
    <path region="62" short-name="State House District 49" long-name="State House District 49" value="1" d="m760.07 357.39 28.1.02 3.1-1.55.42-1.8-2.27-2.77 3.24-9.02 3.2-4.16 5.95 5.28 1.63-2.6 3.96 1.46 2.3-2.32 17.42 3.26 5.4 1.98-5.38 22.88.71 10.56.6 23.56-16.39-2.9-2.99 6.82-15-12.87-11.12-11.02-4.6-3.97-13.98-13.2-1.18-3.98-3.3-1.4z"/>
    <path region="63" short-name="State House District 53" long-name="State House District 53" value="1" d="m669.71 256.2-1.65-27.6 10.14-2.2 17.32-2.49 29.04-4.78 7.12-.85-.76-2.88 1.53-4.97 35.84.58.04-11.2.89-1.07 9.23-.4-.14 6.1.49 39.15-.31 5.78-.42 34.1-3.1-.06-23.73-.52-20.8-.03-1.32-1.06-12.7 2.27-8.91 1.27-2.64-5.68-7.07-1.61-3.78-2.37-4.58 1.38-4.98 6.38-.07 2.45-2.9 3.22-8.44 1.05 1.36 13.1-18.67 3.53-9.45 2.2-1.32-10.18-4.83.53-1.08-1.88 1.27-5.3 3.59 1.3-1.08-4.11 8.33-.22-1.4-3.8 10.73-7.56 6.3-6.45 4.36-1.75z"/>
    <path region="64" short-name="State House District 55" long-name="State House District 55" value="1" d="m621.03 369.18 4.1.9 10.9.45 4-.56 4.69 1.56 2.08-2.18 4.56-8.66.12-8.88.53-1.45-1.03-5.77-2.24-16.4 2.29.72 6.53 5.19 5.47 1.15-1.39-7.34 3.71-.26 2.03 1.29 6.68-.9 4.33.54.48 3.05 15.1 1.13 13.42-2.25.83.88 12.58 18.67-11.26 18.6-2.91 7.16 2.52 9.9 8.89 30.04 5 17.26-1.84 9.02-7.86 4.24-4.65.19-1.8.99-2.95-2.2-5.04.9-2.1-1.26-5.22 8.08-8.09-4.16-4.82-4.25-3.4 7.72-25.5 4.62-3.93-7.76-3.86-8.97-11.87-25.75-.29-1.01 1.81-4.94-2.86-2.54-4.13-1-6.48-2.9-2.04-1.77-4.51-7.59.78-4.86 1.83-2 6.34-3.63 3.78-7z"/>
    <path region="65" short-name="State House District 59" long-name="State House District 59" value="1" d="m569.02 214.87 23.74-3.02 1.4-14.77-2.3-2.23-5.94-.29 1.69-8.75 5.38.16 6.02-1.49-.82-4.8 4.68-.15 5.87-1.32 3.54-2.86-1.6-10.9.24-5.65 1.42-3.49-6.96-8.18 12.75-1.58 9.75.06 4.88 34.67.41 4.38 3.2 21.07-10.62 1.45-.4 8.9-2.14.9-3.57-1.91-6 4.74-2.05 3.12-3.07 8.9-6.43 8.6-13.8 4.36-.48.98-10.52 3.43-1 6.44 1.92 5.1-7.04-.18-.22-10.06-.85-6.46.34-3.84-1.76-21.8z"/>
    <path region="66" short-name="State House District 61" long-name="State House District 61" value="1" d="m491.05 167.86 4.13-.6.31-3.26 7.42-15.6-2.99-2.15.88-2.01 30.87-.41 27.2 3.04 18.1 1.11.54 3.93 1.06 9.17-1.36 8.75 2.04 6.6-1.78 11.07-2.37 9.02-1.2 12-12.22-.87 2.58 5.5-.3 7.52-11.4-.43-.07 1.76-7.53 1.56-2.16 3.98-9.74-2.83-1.38-1.62-9.14-3.16-4.42-.65-3.6 8.55-4.43 16.07-5.99-3.15-5.95-4.53.2-1.55.85-1.69-4.2-4.78-.55-1.85-8.9-.2 9.36-38.85 2.23-8.18-7.97-2.46z"/>
    <path region="67" short-name="State House District 100" long-name="State House District 100" value="1" d="m532.5 444.83 5.28-.3 1.93 3.1 3.08-1.68.6 3.52 2.67 1.92 1.35 3.3-1.4 2.46 6.67 4.2.57 3.55 2.7-2.03.18 5.1 2.14 3.4 2.9 1.73 7.64-.12 7.18-1.57 7.57 3.27 7.92.1 9.81 2.68 3.3 2.35 1.45 3.54.13 7.02-2.33 7.12.49 9.57-40.6 7.46-22.62 3.7-.15-.96-.6-8.1-1.14-6.1.21-4.02-.88-5.77-2.47-3.49 3.23-2.1 1.75 2.13-.38 3.47 6.33.17 1.6-.7.37-4.2 1.57-5.64 2.95-.95.68-5.18 2.6-1.13-1.96-3.9-3.74 1.71-4.87-1.46-1.5-2.98-1.37-11.76-10.01 1 .66-6.43-3.16-1.8z"/>
    <path region="68" short-name="State House District 106" long-name="State House District 106" value="1" d="m221.24 549.8 2.3 1.07 3.16-2.04 4.92-1.6 2.35.69 3.2 5.54 1.96 6.22 3.47.47 6.02-4.16 1.5 2.63.03 4.28 3.29 2.54 4.86-2.86 4.24.85 3.3 4.33 2.14 1.53 5.63 6.29 3.35.75 2.78 2.75-1.6 6.18 2.42 3.84-2.3 1.91-3.7.27-1.6 3.98-2.86 2.46.74 4.75-8.7 5.32-4.51-.38-.64-3.61-16.63 10.5-23.04 15.55-14.08 9.61-7.07-22.01-10.9-32.06-5.37-15.72 2-3.3 4.54 1.43 2.94-.07 4.62-1.96 13.75-.72 5.18-1.66-.43-3.28 1.36-5.65 1.45-2.82 2.67.57z"/>
    <path region="69" short-name="State House District 108" long-name="State House District 108" value="1" d="m101.87 495.95 4.65-63.76.53-14.77.92-17.61 5.83.64 1.53 2.78 3.09 1.98 2.05-1.53 1.45 4.5 6.08 6.8 2.8 6.84 5.5 5.44 1.8 5.48 5.52 3.63-.37 3.5-3.74 2.95.22 2.61 4.16 6.23 4.87 5.56.92 2.26-.67 3.92-2.35 1.66.9 5.44-.26 5.18-1.26 3.13-.27 5.97.32 10.5-.43 3.85 1.2 5.84-1.3 3.16 1.96 12.52-.96 12.86 3.23 4.95 1.9-4.62 1.89 1.64 2.5 7 3.4 14.88-1.59.7-4.12-1-7-13.91-2.3 8.82-1.65.33-2.01 5.57 2.35 8.73-2.63 2.15-2.63-.96-8.9-8.73-1.45-3.26-9.09.55-5.19-3.43-6.84.26-8.18 2.94z"/>
    <path region="70" short-name="State House District 104" long-name="State House District 104" value="1" d="m350.7 610.5.42 9.93 1.35 2.58 1.92 6.84.43 3.91-8.53 1.89-8.45-2.03-2.66-2.38-4.58-2.51-1.65 2.66 1.42 4.89-1.33 3.8-2.1-2.45-11.6-7.67-4.58-9 5.23 8.63 6.4.72 3.41-5.17-3.55-9.39 3.89-5.35 4.61-1.54 2.68.03 4.33 1.56z"/>
    <path region="71" short-name="State House District 135" long-name="State House District 135" value="1" d="m132.77 633.92 56.88-14.13 6.52-2.34 7.07 22.01 14.08-9.61 4.25 2.5.48 2.96 2.32 2.98.02 7.54 3.43 5.87-4.82 12.04.33 4.53-.7 4.8 16.7 25.98-5.66 3.95-2.57-4.03-2.75 4.4-8.9 8.49-8.47-.01-5.51-.47-2.21 7.24-.07 2.57-2.6 3.13-16.48 12.88-4.7-6.88-6.6-11.8-16.9-30.95-6.7-11.66-4.61-9.1-2.14-18.97-7.75-4.73z"/>
    <path region="72" short-name="State House District 70" long-name="State House District 70" value="1" d="m363.42 501.59 2.27.64 3.65 14.16 2.2 9.72 3.01 9.24-1.28 4.95-11.55 2.15-1.88-3.6.8-2.92-5.03-1.34-5.04-4.9-1.65-5.37-4.8-2.79-3.32-2.9-2.93-.23-1.69-3.4 3.6-3.84-3.17-1.56-6 1.6-.88 4.07-3.85-1.69-.38-4.46 1.14-4.03 20-.51 3.85-.38z"/>
    <path region="73" short-name="State House District 73" long-name="State House District 73" value="1" d="m327.96 476.3 2.37.84 1.15-5.24-.09-3.2 1.85-4.12-2.34-4.33 3.32-2.54.8-3.29 6.89-.68-.24 6.6 3.26 1.77 2.1-1.59 1.23-4.36-.8-2.3 2.4-5.03 1.85-1.64 3.88 1.66 3.84.05 1.33 2.78-.96 5.11-2.8.16-.55 6.82-2.9.38.57 5.38-1.18.44-3.83 4.2 2.25 4.83-4.3 1.81-2.11-.8-7.69 2.53-2.41 2.2-6.43-5.5z"/>
    <path region="74" short-name="State House District 75" long-name="State House District 75" value="1" d="m347.06 480.81 4.3-1.81-2.25-4.84 3.83-4.19 1.36 2.56 7.37 3.14 3.24 4.05-.43 1.6 6.01 3.37-.93 3.09-3.42 1.5-2.57 4.96-2.29.85-6.13-2.33-2.68.74-.18-4.33-2.16-1.22z"/>
    <path region="75" short-name="State House District 114" long-name="State House District 114" value="1" d="m350.7 610.5-1-14.08.8-10.15 2.36.18 2.58 2.5 4.1 2.33 15.16-1.35 23.54-2.73.7-3.62 5.65-5.07-.74 1.27 2.03 4.05.62 4.14-3.27-.03-.49 5.85 1.06.85-3.58 7.38.2 3.03-2.27 3.3.75 3.81 3.29 1.48-3.12.99-1.06 2.94-9.06 1.96 1.4 3.08-5.3 2.85-4.36 6.76-3.84 3.53-.85 6.63 4.58.54 2.52 7.9-1.49 13.26-1.64-.44-9 2.96-2.44-1.12-6.1 3.03-2.07-4.54-2.76-1.23-3.33-1.12-.4-4.68-1.67-7.6-4.31-.16-4.34.86-2.28-1.31-1.24 2.63-5.05-4.6-.67-2.67-3.9-1.96-1.37-2.06 1.33-3.8-1.42-4.88 1.65-2.66 4.58 2.5 2.66 2.4 8.45 2.02 8.53-1.89-.43-3.91-1.92-6.84-1.35-2.58z"/>
    <path region="76" short-name="State House District 119" long-name="State House District 119" value="1" d="m328 688.78 1.98-3.68-.67-13.65 2.53-6.72 1.14-.93 5.3-3.04 3.1-5.22-1.35-4.18 1.24-2.63 2.28 1.31 4.34-.86 4.3.16 1.68 7.6.4 4.68 3.33 1.11-2 5.56-1.06 5.58-2.17 4.73-.12 3.05 7.13 2.77 12.29 3.2-6.43 5.48-.74 2.28 4.36.25.4 5.74-4.66 8-.06 6.64-4.82-.6-2.7 1-1.58 2.92-3.5-5.05-2.15-1.05-2.67-3-.77-5.23 3.03-.1-1.56-3.6-2.63-.66-.24-5.62-3.92 1.4-3.75 3.6-2.74 5.23-4.26 1.55-4.35.2-4.32-1.39-3.47 5.86 1.02-3.42-1.08-4.8.26-2.8 4.31-7.33z"/>
    <path region="77" short-name="State House District 86" long-name="State House District 86" value="1" d="m443.23 638.03 2.57-7.65 1.17-3.47 16.65-3.93.44-13.13 2.37-1.86 2.85.22-.37-24.43 9.84-3.9 11.4-5.66 15.64-6.82 3.62-10.3 2.7-32.37 5.73-1.46-2.7 7.45 2.86 3.56 5.83-.41 3.66-1.92 1.23 5.2-.81 2.87 1.88 3.45.63 4.93-2.01 2.4-6.82 5.87.39 3.52 2.22 3.24 14.3-3.23 2.02-.02-.48 37.13.75 5.42-.22 7.86 1.28 4.5-8.42 1.18-7.41-2.83-11.12 4.12-7.8 3.83 1.11 14.4-2.4 8.96-13 3.8-4.63-5.43-9.71-7.76-12.71 4.12 2.52-11.9-8.83.13-2.14 7.82-4.44 1.39-4.6.1z"/>
    <path region="78" short-name="State House District 87" long-name="State House District 87" value="1" d="m451.58 559.78.89 3.9 2.75 1.8 3.31-.74 2.75 2.13 2.64-.21.23 3.36-.33 15.7 5.1-1.94.36 24.43-2.85-.22-2.37 1.86-.44 13.13-16.65 3.93-4.96 1.28-9.75 1.5.45-4.86 4.03-2.55 3.56-4.13-1.92-2.8-3.86-.86 1.4-4.23-9.23-2.56-4.3-1.3 2.18-7.96 2.15-1.47 3.15-4.05 1.38-4.96 1.7-2.38 1.52-10.01.73-8.18 4.6-2.06 6.41.26 3.82-3.38z"/>
    <path region="79" short-name="State House District 89" long-name="State House District 89" value="1" d="m361.72 542.45 11.55-2.15 1.28-4.95-3.01-9.24-2.2-9.72-3.65-14.16-2.27-.64-.52-3.2.67-4.15 2.57-4.96 3.46 1.59.4 1.83 5.22 4.12 11.3-5.43 4.26 2.47 6.48-17.25 15.65-2.5.86 6.45-1.48 2.13-.55 4.83 4 2.7.34 2.53-1.98 7.34-1.55 3.27 5.94 5.37.55 6.85-3.61-.8 1.21 5.3-.64 3.88-2.5-.86-.85 6.29 1.77.52-.2 3.34 3.03 9.02-4.51-.3-4.74-1.65-6.24-.97-.52 5.71-4.68 4.79.11 2.5-2.74 3.98.86 4.8 5.6 3.17-.95 5.8 1.45 1.27 4.94 4.32-1.24 2.82-5.65 5.07-.7 3.62-23.54 2.73-15.16 1.35-4.1-2.32-2.58-2.5-2.37-.2 3.04-17.21 6.28.96 2.19-10.36.13-11.45z"/>
    <path region="80" short-name="State House District 2" long-name="State House District 2" value="1" d="m95.48 590.92 5.07-2.27 2.8-.13 3.37 1.34 7.15.64 16.71 5.15 8.01 3.03 6.98-2.74 3.79 5.89 2.7-3.64 4.1-2.53 8.97-9.33 1.28-4.58 1.87-.3-1.11 4.54 1.97 1.94 3.04.63 2.69-.99 1.56 1.24 3.79-2.4 5.05-1.02 10.9 32.06-6.52 2.34-56.88 14.13-7.88-20.72-8.36-3.8-2.49-10.48-19.15 1.6z"/>
    <path region="81" short-name="State House District 124" long-name="State House District 124" value="1" d="m286.85 730.37-.3-5.3-4.44-3.1 6.37-8.81.06-1.95 3-2.67 2.05 8.32 1.6 6.69.33 8.65-2.33 6.4-3.11 11.48-3.81-1.49.77-4.01-2.66-.88-2.37-3.47z"/>
    <path region="82" short-name="State House District 5" long-name="State House District 5" value="1" d="m534.13 303.92.55 3.29 2.08.46-.48-17.74-1.31-23.73 5.42 2.83 1.22-2.98 3.4-1.07 3.6 1.11-.75 5.46-.48 9.97 3.9-1.4 2.98.87 3.3-1.46.84 5.13 3 2.8-3.11 11.34 15.19 5.28 2.72-9.73 17.27 7.96 1-2.05 4 1.23 5.64.71-14.5 5.15-29.07 1.62-3.17.48.06 8.09-3.04 4.76-3.15 1.45-3.2 3.26-.39 1.84-4.01-1.83-.1-3.2 1.3-4.52-3.93-1.1-1.98-5.67-4.17-2-1.78-3.27z"/>
    <path region="83" short-name="State House District 128" long-name="State House District 128" value="1" d="m268.5 732.15 4.97-5.9-1.75-3.47.59-3.1 1.33 1.83 4.18-2.84 4.29 3.3 4.44 3.1.3 5.3-5.04-.02.1-2.4-3.85-.29.28 2.46-3.09.56-.73 3.4-2.21 3.87z"/>
    <path region="84" short-name="State House District 8" long-name="State House District 8" value="1" d="m730.45 282.86.84 2.02-2.3 4.15-1.58 14.92 3 1.82-1.35 3.19 3.56 2.01 1.65-1.42 3.47 1.69 2.28-.22 5.65 7.7.2 3.43 2.5 2.16 1.74 3.38-.22 2.8 1.83 3.2-1.04 1.9 2.44 4.43.08 2.32-1.8 2.87 1.9 1.5 2.63 6.58.5 3.12 3.64.98-.18 2.26 3.3 1.4 1.18 3.97 13.98 13.2 4.6 3.98 11.13 11.02 15 12.87-2.9 6.7-9.57 24.17-5.2-1.55-2.8-2.63-.18-4.48-1.11-1.92-5.28-3.69-3.93-5.69-3.2-3.1-2.24.44-7.99-4.1-1.26-2.01-6.23.68-2.96-.47-2.9-2.84-7.77-3.67-.82-1.9-8.94 8.57-15.76 7.16-8.89-30.04-2.52-9.9 2.9-7.16 11.27-18.6-12.58-18.67-.83-.88-13.41 2.25-15.11-1.13-.48-3.05-4.33-.54-6.67.9-2.04-1.29-3.7.25 1.38 7.35-5.47-1.15-6.53-5.19-2.3-.72-1.2-9.6-1.24-9.6 9.45-2.2 18.67-3.53-1.36-13.1 8.44-1.05 2.9-3.22.07-2.45 4.98-6.39 4.58-1.37 3.78 2.37 7.07 1.61 2.64 5.67 8.92-1.26 12.69-2.27z"/>
    <path region="85" short-name="State House District 94" long-name="State House District 94" value="1" d="m398 617.57 1.07-2.94 3.12-.99 1.52 4.23 8.67 4.3.5 2.58 2.26.73-.19 2.87 5.11.92-5.98 17.15-3.02-1.69.74-1.35-.88-5.34-2.51-2.2-.03-8.13-9.04-1.21-2.19-1.8 2.9-2.8z"/>
    <path region="86" short-name="State House District 11" long-name="State House District 11" value="1" d="m551.24 323.75 3.15-1.45 3.04-4.76-.05-8.09 3.16-.47 29.06-1.63 14.5-5.15 10.2-3.38.82 6.81-1.65 5.98 1.11 8.86-7.57.45-5.12-.15-7.18.68-6.13-2.51-5.18.67-6.13 2.21 3.35 6.74.35 2.9-4.56.85-.5-2.13-4.22.8-1.03-8.07-2.6 1.38-7.92 1.44-6.48-.46z"/>
    <path region="87" short-name="State House District 99" long-name="State House District 99" value="1" d="m426.35 688.55 4.78-3.04 2.03-2.72-.3-20.94 7.86-15.84 2.5-7.98 5.05-1.01 4.6-.1 4.44-1.39 2.14-7.82 8.83-.12-2.52 11.89-6.93 3.94-1.49 8.76-1.84 2.34-6.22 3.78-2.58 5.4.77 1.37-1.7 5.09 1.1 5.53 3.69.95.55 3.48-2.56 4.7-1.22 4.02-5.42.7-5.87 1.52-4.4-1.07-2.33 1.47z"/>
    <path region="88" short-name="State House District 112" long-name="State House District 112" value="1" d="m280.56 589.1 5.1 5.57 7.58.14.83 4.6-6.97 12.9-3.21 13.95-1.07 1.95-13.35 24.27-11.63 1.2-8.44 1.22-7.26.3-8.52 1.1-.06 6.79 10.7 16.97 4.03 3.15-.58-4.18 2.57-.17 3.44 1.54-.32 2.56 5.26 1.82 3.1-.28-.45 2.91-.55 2.92-5.04 3.69-2.38.23-7.86 5.66-2.68 7.45-2.86 4.4-6.27-8.76 5.66-3.95-16.7-25.99.7-4.78-.33-4.54 4.82-12.04-3.43-5.87-.02-7.53-2.32-2.99-.48-2.95-4.25-2.51 23.04-15.55 16.63-10.5.64 3.6 4.5.39 8.71-5.32-.74-4.75 2.87-2.46 1.6-3.98 3.7-.27z"/>
    <path region="89" short-name="State House District 113" long-name="State House District 113" value="1" d="m294.07 599.41 4.9 6.18 4.1 4.45.74 5.02 1.08 1.86 5.87 4.05 4.59 8.99 11.6 7.67 2.1 2.44 1.36 2.06 3.9 1.96.67 2.67 5.05 4.6 1.34 4.18-3.1 5.22-5.29 3.04-3.8-2.2-7.46-.73-3.5-6.74-.73-3.67-3.98-1.44-2.49.86-.1-3.71-4.21 4.62-2.76.7-2.3 2.65-5.69-.31-1.15 3.32-1.93-.32-2.22-6.54-2.38-3.72-1.95-5.52.24-6.48 1.63-4.36-2.85-1.94-2.53-.06 1.07-1.95 3.2-13.94z"/>
    <path region="90" short-name="State House District 64" long-name="State House District 64" value="1" d="m117.64 251.15.6-7.35.91-20.68 1.83-25.03 1.73-28.82 1.19-34.36 28.08-.66 71.31 2.5 33.3 1.46 52.82 2.02-8.17 37-11.27 52.22L271 314.69l-11.73 1.3-12.85 1.95-25.26 4.34-45.52-1.37-3.25 13.88-4.3 4.53 1.5 12.34 7.82 18.77 2.44 6.85 17.75 1.73 20.33-5.66 5.45-2.48 3.1 2.7 14.27 14.45-.46 13.23 4.09 41.44-7.13.92-22.99 2.87-8.14 1.7-10.75.95-.16-.92-3.85-23.06-1.38-11.4-5.84-6.05-3.83-2.55-2.2-16.79-62.84 9.81-1.46 2.28-5.83-.64.74-14.38 2.51-36.84.5-12.3 3.1-45.29 1.52-23.81z"/>
    <path region="91" short-name="State House District 132" long-name="State House District 132" value="1" d="m221.51 762.81 5.15-.47 3.22-2.05 3.22-.47 1.46-3.3.97-5.44-2.07-2.21 3.09-6.35-1.92-1.96 2.03-2.05 3.4 3.9 4.54-5.44.68-3.82 4.79 2.55-2.32 1.43 5.8 6.9-3.17 2.27 2.57 1.75-2.21 2.45 2.02 1.8 1.82 1.07.43 3.07-1.02 2.5-3.98 10.78-5.18 2.2-5.04 4.64-6.55-1.98-1.88-3.12-4.12-1.53-6.18 2.13 1.35-6.09z"/>
    <path region="92" short-name="State House District 37" long-name="State House District 37" value="1" d="m760.29 492.65 17.06-4.7-3.78 9.3-.6 4.55.69 3.7 4.08 8.85 2.78-1.06 5.94-.08 3.13 4.16 5.97.96 3.52 1.6 7.85 6.3-.12 3.92-1.97 4.7-2.19 2.47 2.98 5.22-5.97 3.1-2.8 2.38-7.43 1.37-2.51-2.68-3.08 2.84 1.6 4.45-3.08 1.23-3.8 7.74-2.16 1.5-1.5 2.96 2.69 2.31-.88 4.37 14.22 26.09-.14 5.8 1.85 5.93.63 8.83 3.66 2 .93 5.53-.61 4.5 1.56 3.96-3.43-1.17-3.56.55-5.35 5.15-.83 1.71-.51 9.67.89 3.43-.72 4.72-3.45.86-1.42-4.12-3.41-1.08-2.8-5.42-1.21 2.08-4.22-1.65-6.74 1.02-3.72-11.15-1.04-4.97.85-2.1-4.48-9.18-4.85-11.54-1.14-7-1.3-15.05-1.5-12.16 2.84-23.74-3.35-9.44 2.43-7.44 7.12-8.02-3.8-3.96 1.42-8.98 2.44.84 4.47-.5 2.07-2.63-2.25-2.9.16-4.67 5.44-4.84z"/>
    <path region="93" short-name="State House District 20" long-name="State House District 20" value="1" d="m494.05 349.54 1.05-2.9 2.16-.57 4.27 5.13 5.23-1.66-.8-6.54 1.16-2.78 2.93-.77 4.4-1.1.1 2.9 7.24 1.04.01 2.75-4.28 11.09-1.4 5.28-2.85.4-7.39 12.62-1.57 6.07 1.98-.4 1.33 10.3 6.1-2.36 2.17 15.16-6.76 1.02-.06 1.23-4.63 1.37-1.62-1.79-.84-5.95-2.09-14.83-2.25-18.3-.26-15.12z"/>
    <path region="94" short-name="State House District 33" long-name="State House District 33" value="1" d="m513.25 448.7.9-3.92 7.93-1.94 3.11.37 6.18 2.37 1.14-.75-1.68 5.2 3.16 1.8-.66 6.43 10-1 1.39 11.76 1.5 2.98 4.86 1.46 3.74-1.7 1.95 3.89-2.6 1.13-.67 5.18-2.95.95-1.56 5.63-.37 4.2-1.62.71-6.32-.17.38-3.47-1.75-2.13-3.23 2.1-3.6-8.98-8.75.9-5.82-.04-5.64 1.24-.66 1.26-7.23.03-1.7-23.84-.39-9.37z"/>
    <path region="95" short-name="State House District 36" long-name="State House District 36" value="1" d="m563.73 514.52 40.6-7.46 36-5.29 1.6 4.26-3.08 8.38 1.15 6.16 4.33 1.9-.28 9 4.26 4.69 2.4 11.14 3.97 9.54 1.53 2.29 8.4 4.85 2.17 2.94 3.92 7.5.51 3.1-.63 6.72 1.45 4.74 3.76 1.74 7.32.55 8.85 2.3 1.67 3.16 2.88 2.98.57 2.03-1.27 6.06-1.05 10.11.88 2.26 4.4 2.83-2.77 3.25-4.81 3.85-9.72.27-11.75 5.06-3.35-1.6-1.93-3.03-21.2-2.42-10.98-9-8.1.83-5.2-20.44-7.6-31.13-16.08 4.62-20.07-19.46-7.05-7.92-7.42-6.34 4.7-14.84z"/>
    <path region="96" short-name="State House District 134" long-name="State House District 134" value="1" d="m233.67 703 6.27 8.76 2.86-4.4 2.68-7.45 7.86-5.66 2.38-.23 5.04-3.69.55-2.92 3.15.75 1.77-2.7 7.73 4.67.13 6.53.3 5.25-3-.71-9.3.33-12.9.83 2.64 4.06-3.54 1.65-1.74-2.78-2.26 1.57 4.28 6.54-2.1 3.62-2.72 1.69-1.75 6.27.67 5.31 2.61 2.86-.68 3.82-4.55 5.44-3.39-3.9-2.03 2.05 1.92 1.96-3.1 6.35 2.08 2.2-.97 5.44-1.46 3.31-3.22.47-3.22 2.05-5.15.47-.48-4.45-2.36-.72-1.83-4.43-11.19-19.61-5.05-9.28 2.6-3.13.06-2.57 2.2-7.24 5.52.47h8.47l8.9-8.48 2.75-4.4z"/>
    <path region="97" short-name="State House District 67" long-name="State House District 67" value="1" d="m113.8 400.45 1.46-2.28 62.84-9.81 2.2 16.8 3.83 2.54 5.84 6.05 1.38 11.4 3.85 23.06-12.15 3.03 3.06 5.46-.88 1.97-4.95-1.54-7.26 2.17-2.16 3.62-3.65 2.03 4.07 4.4 2.15 12.52-4.52 2.44-1.85 2.43-.5 6.44.99 4.2 2.67 4.7 5.39 2.4-8.1 4-7.75 4.82-6.79 2.8-5.45 4.55-1.95-12.52 1.28-3.16-1.2-5.84.44-3.86-.32-10.49.27-5.97 1.26-3.13.25-5.18-.9-5.44 2.36-1.66.68-3.92-.93-2.26-4.87-5.56-4.16-6.23-.22-2.61 3.74-2.95.37-3.5-5.52-3.63-1.8-5.48-5.5-5.44-2.8-6.84-6.08-6.8-1.45-4.5-2.05 1.53-3.1-1.98z"/>
    <path region="98" short-name="State House District 142" long-name="State House District 142" value="1" d="m159.11 747.41-1.51 4.84.2 6.8-3.1 1.02 1.54 7.6.81.85.23 2.28-3.56.3 2.91 3.16-1.86 1.56-4.38.38-1.83 1.45 1.46 4.17-2.46 3.76 4.55 3.19 2.43 13.52 1.97 1.3-3.48 3.38-7.77-.5-.83-7.22-3.28-1.86.1-2.29-7.15-10.78-3.63-5.36 8.11-13.83 4.8-10.4-1.05-2.04-3.62 1.04-2.25-1.62-3.2 1.12-1.49 2.33-3.26-1.23-.84 3.4-3.76.48-1.18-4.3v-3.4l5.8-2.89 2.53 1.39 4.16.3 1.28-1.24 3.34 1.65 1.8-1.59 2.05 4.1z"/>
    <path region="99" short-name="State House District 131" long-name="State House District 131" value="1" d="m267.98 569.3 9.66-7.7.03-1.67-3.25-4.1-1.89-8.2-.07-2.52 7.18-4.28 3.74-5.13 5.86-.94-2.11-5.94-.6-4.54-1.7-3.07-3.11-2.24-.45-7.62-1.6-4.16 15.2-2.37-.12-.67.16.31-.07 2.36-.68-.01-.78 2.24.83 1.83-1.84 5.12 1.81 3.5-.54 2.45 16.94 1.27 10.7-1.26 1.22-5.2 3.38-3.18 3.85 1.7.89-4.07 5.99-1.61 3.17 1.56-3.6 3.83 1.69 3.4 2.93.24 3.32 2.9 4.8 2.8 1.65 5.35 5.04 4.9 5.02 1.35-.79 2.92-7.16-2.29-4.54-.55-.83 5.05-4.14 3.68-8.04-6.14-.64 5.1-2.5 12.82-1.52 3.71-3.24 13.94 4.7 6.65-2.27 2.58-11.62 1.3-2.73 8.14-5.73 4.71-10.62 8.04-4.9-6.18-.82-4.6-7.57-.14-5.1-5.57-2.42-3.84 1.6-6.18-2.79-2.75-3.35-.75z"/>
    <path region="100" short-name="State House District 6" long-name="State House District 6" value="1" d="m521.8 345.04.04 10.17 6.96-1.95 3.76-5.93 5.6-3.16.42 6.09 3.71.98 4.6-.81 1.14-8.7 1.52-1.4 3.64-.18 4.9 5.16 1.04 7.25-2.68 5.04-4-1.39-19.55 3.26-6.4.61-10.39 1.33 1.41-5.28z"/>
    <path region="101" short-name="State House District 58" long-name="State House District 58" value="1" d="m573.9 208.52 1.2-12 2.37-9.02 1.78-11.07-2.04-6.6 1.36-8.75-1.06-9.17 12.69.3 4.69-3.77 10.5-1.3 6.95 8.17-1.42 3.49-.24 5.66 1.6 10.89-3.54 2.86-5.87 1.32-4.68.15.82 4.8-6.02 1.5-5.38-.17-1.69 8.75 5.94.3 2.3 2.22-1.4 14.77-23.74 3.02z"/>
    <path region="102" short-name="State House District 76" long-name="State House District 76" value="1" d="m313.28 324.62 1.35-3.95 2.41-.6 1.13-3.92 3.4-4.96-.21-2.29 14.12-.04 30.78.19 8.96-1.27 26.04-4.43 11.91-1.9 2.33 2.75-3.46 1.63 1.33 2.86.3 7.54 2.37 5.81 6.1 2.3 1.84 12.4.35 5.43 3.08 18.69-3.48.69-19.61 2.3-2.58.86-12.05 1.37-13.95 2.15-.2-1.31-29.02 4.3-1.91 17.58-.94 5.79-.2 6.28-1.88 16.66 7.45 21.57-3.95 2.07-.56-8.99-3.8-2.36-1.13-2.42-4.65-3.13.2-1.8-2.76-9.48-5.35-2.75-.78-2.03-4.76-2.33-5.28.74.16-2.9-3.07-.34-2.92-1.84-3.23 1.76-5.1-7.61-.87-5.58 3.15-1.1-.98-4.03 2.66-4.89-.32-6.57 5.92.12-2.13-8.55 3.3-2.7 2.23-3.56 2.88-1.65 1.1-3.59-1.36-3.7-2.2-1.98 1.79-6.06-2.58-3.96.47-9.24z"/>
    <path region="103" short-name="State House District 130" long-name="State House District 130" value="1" d="m262.92 752.84 5.14-5.4-.67-6.68-3.88-2.16-.38-2.95 5.36-3.5 3.82 5.8 2.21-3.88.73-3.39 3.1-.56-.29-2.46 3.86.28-.1 2.4 5.03.03-4.84 9.86 2.37 3.47-4.38 1.24-.94 3.5-8.49.82-3.47 2.3-3.15 4.3z"/>
    <path region="104" short-name="State House District 60" long-name="State House District 60" value="1" d="m510.09 243.9 4.42-16.07 3.61-8.55 4.42.65 9.14 3.16 1.38 1.62 9.74 2.83 2.16-3.98 7.53-1.56.07-1.75 11.4.42.3-7.51-2.58-5.5 12.22.86-4.88 6.35-.34 3.53 1.76 21.8-.34 3.84.85 6.46.22 10.06-3.27 15.61-2.23 5.9-4.27 5.39-3-2.8-.84-5.13-3.3 1.46-2.97-.86-3.9 1.4.47-9.98.75-5.46-3.6-1.1-3.4 1.06-1.22 2.98-5.42-2.83-.09-4.22-5.13-1.23-22.32-6.45z"/>
    <path region="105" short-name="State House District 72" long-name="State House District 72" value="1" d="m341.9 453.74 3.5-.57-1.4-2.87-.28-5.05 1.37-4.08 3.95-2.07 7.32-3.76 9.02.76 3.4 20.86 7.24 8.93-2.57 5.36-3-1.33-2.05 5.01-3.5 4.79-3.23-4.05-7.37-3.14-1.36-2.56 1.19-.44-.58-5.38 2.9-.38.55-6.82 2.8-.16.96-5.1-1.33-2.78-3.84-.06-3.88-1.66-1.86 1.64-2.4 5.02.8 2.32-1.22 4.36-2.1 1.58-3.26-1.77z"/>
    <path region="106" short-name="State House District 146" long-name="State House District 146" value="1" d="m95.13 819.35 6.2-2.06 3.6.61-.17 4.28 1.4.72 2.51 4.57-2.23 4.05 1.4 4.38-.39 4.83-1.97 2.91-4.2-1.64.53-4.32-1.34-1.98-3.1 1.35-2.09-2.94-.82-3.8-.61-8.65z"/>
    <path region="107" short-name="State House District 52" long-name="State House District 52" value="1" d="m627.88 145.6 27.06.16 71.9 1.45 23.95.14 10.9.06 58.65.95 18.52 1 18.67 1.01 39.25.33 12.52.44 6 22.66-8.16-.21-.05-2.69-5 .14-1.9-2.31-2.25 2.01-7.05 4.07-6.26-.77-2.34.53-1.81 4.86-2.41 2.62-4.54 1.46-4.05 2.74-2.54 4.39-.04 8.04-.61 1.77-5.3 2.61-1.63 1.92.5 5.86-1.74 8.42-.53 6.26-2.35 2.95-14.98-.23-1.14-30.45-27.01-.24-22.48-.02-11.18.8-9.23.4-.89 1.07-.04 11.22-35.84-.59-31.2-.55-2.55-.21-18.28.28.25-10.92-20.91 2.81-23.4 3.89-3.19-21.07-.4-4.38z"/>
    <path region="108" short-name="State House District 115" long-name="State House District 115" value="1" d="m384.5 672.9 4.4-3.19 2.65-.8 6.2-3.62 2.25 1.24 2.34-1.91 4.02.95 1.4 4.95 2.38 2.66.4 4.46-2.67 1.9-8.74 3.07-3.54 2.24-5.11-3.04-2.04 2.81-4.78-3.25-1.82-3.23 5.53-3.7z"/>
    <path region="109" short-name="State House District 78" long-name="State House District 78" value="1" d="m375.74 368.23 2.58 15.44 9.81-1.85 1.47-1.81 6.9-2.63 4.02 2.06 2.91.23 2.73 2.15 2.1 3.81 10.74-4.26.99 4.01.5 6.66-4.38.77-1.74-3.91-5.65 1.3-.95-1.35-6.62.72-.47 4.77-3.48.15-2.33 2.76-1.23 4.13.52 4.67-1.54 2.09 1.03 4.53-.07 4.66-9.87 1.25-10.34 7.19-9.44 1.36 1.45 8.97-9.02-.76-7.32 3.76-7.45-21.57 1.88-16.66.2-6.28.94-5.8 1.9-17.57 29.02-4.3z"/>
    <path region="110" short-name="State House District 117" long-name="State House District 117" value="1" d="m357.6 662.74 2.76 1.23 2.08 4.54 6.1-3.03 2.43 1.12 9-2.96 1.64.44 3.72 2.23-6.23 7.61 2.49.32 2.91-1.33 2.87 1.53-5.53 3.7 1.82 3.23 4.78 3.25 2.04-2.82 5.1 3.05-4.56 5.64-1.62 4.63-3.25 2.64-3.73-1.76-3.33 8.33-5.41.66-.8.93-2.21 7.71-3.18 3.7-2.95-1.32.06-6.64 4.66-8-.4-5.74-4.36-.25.74-2.28 6.43-5.49-12.3-3.2-7.12-2.76.12-3.05 2.17-4.73 1.06-5.58z"/>
    <path region="111" short-name="State House District 118" long-name="State House District 118" value="1" d="m318.14 711.47 3.47-5.86 4.32 1.4 4.35-.21 4.26-1.55 2.74-5.23 3.75-3.6 3.92-1.4.24 5.63 2.63.64 1.56 3.61-3.03.1.77 5.24 2.67 3-3.37 1.09-2.77 2.3-2.64 5.04-3.61.53-4.68 3.2-3.5 3.8-6.52 9.3-3.36 3.47-6.1-4.75-1.1-2.21.63-6.56 2.78-3.42 3.15-7.26z"/>
    <path region="112" short-name="State House District 81" long-name="State House District 81" value="1" d="m427.1 438.59 12.62-1.94-1.92 4.97 3.57-1.2 3.39 2.34 3.48-.9.46 5.91 7.3.4-.04 8.55 4.63.64-1.37 1.86-1.91 7.88-4.28 1.22 2.2 15.56-12.13-2.96-.87-3.79-2.3-3.18-5.1-3.21-3.2.42-18.71 2.95-.1-1.9 4.14-13-.42-6.22 10.94-1.4z"/>
    <path region="113" short-name="State House District 84" long-name="State House District 84" value="1" d="m467.06 486.75 2.83-3.78.88-2.84 2.1.42 6.22 3.56 2.46-2.52 5.41.3-3.61 7.77-.18 2.17-2.06 5.64-2.7-.72-1.46 3.7-6.06-2.5-4.65 4.63-6.02-1.48-.75-2.68 2.86-5.6z"/>
    <path region="114" short-name="State House District 88" long-name="State House District 88" value="1" d="m433.39 550.45 18.19 9.33-1.55 2.44-3.82 3.37-6.4-.26-4.61 2.06-.73 8.18-1.52 10.01-1.7 2.38-1.38 4.96-3.15 4.05-2.15 1.47-2.19 7.96 4.31 1.3-1.62 7.67-6.57-2.6-2.82.64-2.48-1.85 5.05-10.7-5.2-3.82.68-3.64-6.27.2-.96-5.64-.62-4.14-2.03-4.04.74-1.27 1.24-2.82-4.94-4.32 2.61-4.13 11.34 3.96 4.81-3.71 2.66-6.06-1.42-4.55 4.34-.27-1.38-5.33 2.62-4.29z"/>
    <path region="115" short-name="State House District 123" long-name="State House District 123" value="1" d="m269.47 652.48 16.07 21.1 9.45-.34 4.43 9.63-3.62 12.17-4.97-.53-3.3.92-4.5-.44-8.94 1.67-.13-6.53-7.73-4.67-1.78 2.7-3.15-.75.45-2.91-3.1.28-5.25-1.82.32-2.56-3.44-1.54-2.57.17.58 4.18-4.02-3.15-10.71-16.97.06-6.8 8.52-1.09 7.25-.3 8.45-1.21z"/>
    <path region="116" short-name="State House District 3" long-name="State House District 3" value="1" d="m521.64 335.09 8.58-2.04 6.25-.15-.26 7.84-3.09.12-.56 6.47-3.76 5.93-6.96 1.95-.04-10.17-.01-2.75z"/>
    <path region="117" short-name="State House District 126" long-name="State House District 126" value="1" d="m262.09 701.53 9.3-.33 3 .7 2.26 1.53 1.85 3.09 9.13-1.53 6.14-3.85-1.78 2.61-.44 4.8-3.01 2.66-.06 1.95-6.37 8.82-4.29-3.31-4.18 2.84-1.33-1.83-.24-3.5-1.45-2.85-4.44-1.75-3.44-5.68z"/>
    <path region="118" short-name="State House District 82" long-name="State House District 82" value="1" d="m502.68 460.35 1.7 23.84.94 11.7 1.18 20.02-14.36.99-10.34-4.71 5.66-6.05-4.37-1.58 2.6-3.54 2.95-6.77-5.47-2.42.18-2.17 3.61-7.76-5.4-.3-2.47 2.51-6.21-3.56-2.11-.42-.88 2.84-2.83 3.78-6.86-1.61 4.37-8.95 3.6 1.1 7.17-8.47 2.06-4.47 17.1-2.9z"/>
    <path region="119" short-name="State House District 93" long-name="State House District 93" value="1" d="m398 617.57 2.05 4.32-2.9 2.82 2.19 1.79 9.04 1.21.03 8.14 2.51 2.2.87 5.33-.73 1.35-3.29 5.11-1.34-2.5-.12-5.94-5.09-2.43-3.13-6.68-2.4.68-3.76-.7-4.11-2.53-2.76-4.28 5.3-2.85-1.4-3.08z"/>
    <path region="120" short-name="State House District 98" long-name="State House District 98" value="1" d="m497.92 691.58 1.32-7.89 2.17-1.43 7.4-.36-.4 2.58-4.54 3.69zm-5.11-43.03 13-3.8 2.4-8.96-1.11-14.4 7.8-3.83 11.12-4.12 7.4 2.83 8.43-1.17.62 3.62 4.99 9.05 3.52 3.5 1.78-.3 2.33 2.77 4.17 2.9 5.48 8.92-1.13 3.7.35 3.22-5.47 5.32-1.82 3.88 1.54 2.96-2.5 1.42.66 2.5-3.28 1.32-1.14 2.82 1.05 2.82-5.74-3-1.62 2.9-2.27-1.17-3.31 4.2 1.11 4.6-3.9-2.23-.25 4.61-4.74 4.34-2.24-1.45-3.63 2.22-3.66-3.4 5.47-4.87-1.63-2.74-5.91 2.78 1.27-3.77-1.34-1.07-2.72 2.5-3.4.66-1.64 2.18-2.37-1.52.9-2.53-2.49-.84-4.88 1.98-1.32-4.29-4.31-.28-.79-1.13-5.93 2.6-3.02-1.15-4.04.7-1.97 3.22-3.9.74 4.18-2 1.7-3.98.65-4.16-3.57-1.85 3.65-7.61-1.01-3.49 8.2-5.22z"/>
    <path region="121" short-name="State House District 133" long-name="State House District 133" value="1" d="m251.83 706.42 6.9 10.52 3.23-1.65 1.49 2.94 4.98 5.58-3.72 2.44-2.96.08v3.32l.26 5.05-1.96 2.05-2.35 4.75 2.77.35-3.03 4.64-4.68 5.8-2.02-1.8 2.21-2.44-2.57-1.75 3.17-2.27-5.8-6.9 2.32-1.43-4.79-2.55-2.61-2.86-.67-5.31 1.75-6.27 2.73-1.69 2.09-3.62-4.28-6.54 2.26-1.57 1.74 2.78z"/>
    <path region="122" short-name="State House District 85" long-name="State House District 85" value="1" d="m453.9 540.2 1.2 2.36 2.83 1.65 1.39-2.88 4.8 2.05 3.97-9.11 3.85 2.52 5 .3 3.27 1.34-.74 3.15 4 .28 3.35-.84-.33 4.75 1.65-.04-8.68 11.81-4.99 4.4-7.36 4.3-2.96 3.78-.23-3.36-2.64.2-2.75-2.12-3.31.74-2.75-1.8-.89-3.9-18.2-9.33 5.17-8.05-.38-1.04 3.15-5.7 1.87-.3 5.85 4.75z"/>
    <path region="123" short-name="State House District 50" long-name="State House District 50" value="1" d="m774.98 283.4 3.09.07.42-34.1.3-5.78-.48-39.15.14-6.1 11.18-.8h22.48l27.01.25 1.14 30.45 14.98.23 2.35-2.95.53-6.26 1.74-8.42-.5-5.86 1.64-1.92 5.29-2.61.6-1.77.05-8.04 2.54-4.39 4.05-2.74 4.54-1.46 2.4-2.62 1.82-4.86 2.34-.53 6.26.77 7.05-4.07 2.26-2.01 1.89 2.3 5-.13.05 2.69 8.15.2 10 42.47 2.39 10.55-3.35.13.85 7.49 2.6 3.67 3.06 9.69-1.93 8.45 2.98 4.66-3.6 7.92-.43 4.23 3.16.64 2.48 3.06 4.52 8.46 1.54.96-1.59 3.79.6 7.15 3.44-.7 2.24 2.93-1.97 3.24 6.07 3.96.6 4.3-2.08 1.94.76 4.4-1.01 1.81-6.2 2.2-1.58 5.18-4.03 4.9-1.92 4.36.43 2.5-2.2 2.32-2.73-4.04-5.65-4.8-.7-5.32-3.6-4.08-2.8-1.6-6.14-.1-5.94 2.32-4.99-.31-4.22 6.43-3.45 2.67-3.05 3.95-3.7 1.35-5.7-1.23-11.82 20.13-18.1-3.22-11.16-6.42 3.08-16.34 2.17-43.94-11.1-.02-10.3-2-15.73-.23 3.42 47.88-3.24-.1-7.7 3.8-.72-.82-7.72 1.54-3.97-8.81-3.17-9.94-.56-9.05-4.94-7.38-.25-4.41-1.78-5.13z"/>
    <path region="124" short-name="State House District 66" long-name="State House District 66" value="1" d="m271 314.7 19.91-2.76 2.37 6.38 2.3.73 17.7 5.57 1.84 4.03-.47 9.24 2.58 3.96-1.79 6.06 2.2 1.98 1.37 3.7-1.11 3.59-2.88 1.65-2.23 3.55-3.3 2.71 2.13 8.55-5.92-.12.32 6.57-2.66 4.9.98 4.02-3.15 1.1.88 5.57-15.06 2.43 6.7 38.95 1.69 8.89 4.86 28.92-10.12.5 4.61 28.78.12.67-15.2 2.38-9.9 1.6-19.6-3.05-5.16.56-2.97-17.07-1.63-17.67-3.16-27.96 7.12-.92-4.09-41.44.46-13.23-14.26-14.45-3.11-2.7-5.45 2.48-20.33 5.66-17.75-1.73-2.44-6.85-7.81-18.77-1.51-12.34 4.3-4.53 3.25-13.88 45.52 1.37 25.26-4.34 12.85-1.95z"/>
    <path region="125" short-name="State House District 69" long-name="State House District 69" value="1" d="m195.2 448.2.16.93 10.75-.95 8.14-1.7 23-2.87 3.16 27.96 1.63 17.67 2.97 17.07 5.16-.56 19.6 3.04 9.9-1.6 1.6 4.16.45 7.62 3.11 2.24 1.7 3.07.6 4.54 2.1 5.94-5.85.94-3.74 5.13-7.18 4.28.07 2.52 1.89 8.2 3.25 4.1-.02 1.67-9.67 7.7-2.14-1.54-3.3-4.33-4.24-.85-4.86 2.86-3.29-2.54-.03-4.28-1.5-2.63-6.02 4.16-3.47-.47-1.97-6.22-3.2-5.54-2.34-.68-4.92 1.6-3.17 2.03-2.3-1.08-1.22-4.8 1.27-6.1-.66-3.67-2.8-.71-4.04 2.56-7.16-1.44-5.1-4.25-5.66-1.65-5.78-2.75-2.7-2.2-5.75-2.68-.77-6.75-1.13-2-4.95-3.16 1.86-3.1-1.03-2.6-5.39-2.4-2.67-4.7-.99-4.2.5-6.45 1.84-2.43 4.53-2.44-2.15-12.52-4.07-4.4 3.65-2.03 2.16-3.62 7.26-2.17 4.95 1.54.88-1.97-3.06-5.46z"/>
    <path region="126" short-name="State House District 107" long-name="State House District 107" value="1" d="m147.52 520.65 5.45-4.56 6.79-2.8 7.75-4.82 8.1-3.99 1.03 2.62-1.86 3.1 4.95 3.16 1.13 2 .77 6.74 5.75 2.69 2.7 2.19 5.78 2.75 5.66 1.65 5.1 4.25 7.16 1.44 4.04-2.57 2.8.72.66 3.67-1.27 6.1 1.23 4.8-3.26 2.41-2.67-.56-1.45 2.82-1.36 5.65.43 3.28-5.18 1.66-13.75.72-4.62 1.96-2.94.07-4.54-1.43-2 3.3 5.37 15.72-5.05 1.02-3.79 2.4-1.57-1.24-2.68 1-3.04-.64-1.97-1.94 1.11-4.54-2.54-9.08.07-8.34-5.06-1.47-1.28-5.2-3.39-14.88-2.5-7-1.89-1.63-1.9 4.61-3.23-4.95z"/>
    <path region="127" short-name="State House District 109" long-name="State House District 109" value="1" d="m140.53 568.75 2.63-2.15-2.35-8.73 2-5.57 1.66-.33 2.3-8.82 7 13.9 4.12 1.02 1.58-.72 1.28 5.21 5.06 1.48-.07 8.33 2.54 9.08-1.87.3-1.28 4.58-8.98 9.33 1.1-3.74-.45-3.63-4.04-4.4-8.46.03-1.85 1.13-3.24-1.12-1.79-4.17 5.26-5.83z"/>
    <path region="128" short-name="State House District 30" long-name="State House District 30" value="1" d="m429.66 432.87 3.45-1.14 7.2-.92-.18-3.89 3.68-.8 10.68-1.08-1.34-13.71.8-2.33 12.46-1.59h.95l.8 7.38 11.74-1.51 12.93-.82 6.77-.92 4.02-.3.25 2.2 11.7-1.74-.1-1.87 6.22-.35.75 11.38.77 3.86-.8 2-.84 3.36 2.19 3.54-2.4 7.77.72 1.45-7.94 1.94-.89 3.92.96-4.4-3.79.76.4-6.67-5.43-.01 1.63-3.08-1.37-1.77-7.6 1.34-3.95 1.45-12.87 1.73-1.72 5.72-10.74 1.17-3.13 2.93-1.23 7-3.82 2.49-4.63-.64.04-8.56-7.3-.39-.46-5.91-3.48.9-3.39-2.33-3.57 1.19 1.92-4.97-12.62 1.94z"/>
    <path region="129" short-name="State House District 38" long-name="State House District 38" value="1" d="m806.93 526.24 8.27 3.88 10.79 8.2 1.7.2 3.2 3.11-1.4 9.23-.3 6.52 4.5 1.24-.23 6.48 1.98-.37 5.54 1.3 1.34 6.52-1.55 4.81.1 5.77-.71 2.89 1.54 2.4.67 3.92-8.64 2.77-9.6 12.12-.1 5.27 7.2 9.05 1.1 2.1 1.94 8.8 1.83 4.6 2.32 5.97-.27 6.21-3.44.85-2.08 2.58-5.78-1.82-5.76 1.62-5.06-2.41-2.9-5.45-3.43-1.6-2.7 2 .25 2.3-1.7 2.2-4.3-4.04-.62-5.49-1.82-3.22-1.56-3.95.61-4.5-.94-5.55-3.65-1.99-.63-8.83-1.85-5.93.14-5.8-14.22-26.09.88-4.37-2.7-2.31 1.5-2.96 2.17-1.5 3.8-7.74 3.09-1.23-1.61-4.45 3.08-2.83 2.5 2.67 7.44-1.37 2.8-2.39 5.97-3.09-2.98-5.22 2.2-2.47 1.96-4.7z"/>
    <path region="130" short-name="State House District 41" long-name="State House District 41" value="1" d="m907.75 601.95 5.19-1.38 10.55 1.96 4.56-.2 5.09-1.3 4.6 1.62 2.4 3.54 6.63-.12 3.52-.88 2.38.99 4.53 8.73-6.6 5.85.25 6.42-2.02-.11-3.28 2.15-2.73-.18-3.44 4.24-8.53-.4-3.31-2.99-2.6-.72-1.86-3.17-4.83.11-4.37 6.79-4.28 4.37-3.52.35-5.24-6.15-1.42.09-3.07 6.37-6.45 1.6-2.3 7.93-2.94-.24-5.7-6.73-2.88.56-1.42 2.68-2.62-.48-.57-2.1-2.62-1.79-3.91-.44-3.07 4.2-2.81.62-3.31-4.66-3.68-.06-4.07 1.2-1.71-15.07 9.03.08-.77-4.24-.14-6.55 5.52 3.15 2.7.21 2.18-3.72 2.87.1.38-3 13.8-2.28 10.07-5.72 4.97-.55 7.18.7z"/>
    <path region="131" short-name="State House District 44" long-name="State House District 44" value="1" d="m933.32 338.12-.43-2.5 1.92-4.35 4.03-4.9 1.58-5.18 6.2-2.2 1-1.82-.75-4.39 2.08-1.94-.6-4.3-6.07-3.96 1.97-3.24-2.24-2.93-3.44.7-.6-7.15 1.6-3.8-1.55-.95-4.52-8.46-2.48-3.06 3.92 4.7 1.78-.09 3.45-3.72 6.77.77-.06 2.39 2.44 4.3.2 5.4 4.14-.88 5.22-3.88 5.42 6.01 5.79 4.98 4.3-2.5 3.27 1.8 1.06 2.84 10.5 2.54 3.91-.43 3.7-2 1.08 32.41.71 31.45 1.38 47.35-.33 11.17-30.58-2.65-5.63-.32-13.58 2.07-2.47-4.6 2-2.82-.68-5.98 1.42-4.41-4.06-2.2-7.2 1.02-1.86-2.69.78-9.78 4.88-15.14-2.14.71-3.62 3.97-1.21-.57-2.71-5.48-3.78-2.33-6.33 2.4-1.5-5.74-3.18-2.45 1.57-2.64 3.72-2.16 3.09-3.8 2.94.6 2.47-1.4 2.46-3.68-.59-3.52 1.22-3.1z"/>
    <path region="132" short-name="State House District 47" long-name="State House District 47" value="1" d="m933.32 338.12 1.78 3.48-1.22 3.1.59 3.53-2.46 3.68-2.47 1.4-2.94-.6-3.1 3.8-3.71 2.16-1.57 2.64 3.18 2.45 1.5 5.74 6.33-2.4 3.78 2.32 2.7 5.49 1.22.57 3.62-3.97 2.14-.71-4.88 15.14-.78 9.78 1.86 2.69 7.2-1.03 4.06 2.2-1.42 4.42.68 5.98-2 2.83 2.47 4.6-34.86 4.74-20.52-4.46-5.19 8.15 1.78 2.5 4.7 3.6-7.26 9.87-5.26 5.53-2.58.39-.5 2.82-3.7 8.8-3.33 6.24-2.9 2.48-2.98.97-2.57-6.08-6.96 2.93-1.77-2.66 1.6-2.44-1.14-3.14-14.3 9.57-5.26 7.7-2.24.87-.41-6.13-1.87-5.17-3.3-1.03 7.54-18.2-3.7-19.25-3.55-17.17-.9-6.67-.6-23.56-.71-10.56 5.38-22.88-5.4-1.98-17.42-3.26-.79-8.4-3.42-47.88 15.72.23 10.3 2 11.1.02-2.16 43.94-3.08 16.34 11.15 6.42 18.11 3.22 11.82-20.13 5.7 1.23 3.7-1.35 3.05-3.96 3.45-2.66 4.22-6.43 5 .3 5.93-2.3 6.14.08 2.8 1.61 3.6 4.08.7 5.32 5.65 4.8 2.72 4.04z"/>
    <path region="133" short-name="State House District 91" long-name="State House District 91" value="1" d="m406.5 587.97.96 5.62 6.27-.2-.69 3.65 5.2 3.81-5.04 10.71 2.49 1.85 2.8-.65 6.58 2.6 1.63-7.66 9.22 2.56-1.4 4.23 3.86.86 1.92 2.8-3.56 4.13-4.02 2.55-.45 4.85-2.3 2.54-4.76 1.17-5.15-4.12-5.1-.92.18-2.87-2.27-.73-.49-2.58-8.67-4.3-1.52-4.23-3.3-1.47-.74-3.82 2.28-3.3-.21-3.03 3.58-7.38-1.06-.85.5-5.85z"/>
    <path region="134" short-name="State House District 74" long-name="State House District 74" value="1" d="m364.9 479.72 3.5-4.79 2.05-5.01 3 1.33 2.57-5.36 9.35 12.05 11.89-1.34-6.48 17.26-4.26-2.47-11.3 5.43-5.21-4.12-.4-1.83-3.47-1.59 3.42-1.5.93-3.1-6-3.37z"/>
    <path region="135" short-name="State House District 83" long-name="State House District 83" value="1" d="m431.63 471.16 3.2-.42 5.1 3.2 2.3 3.2.87 3.78 12.13 2.96-2.2-15.56 4.28-1.22 1.9-7.88 1.38-1.86 3.82-2.5 1.23-6.99 3.13-2.93 10.74-1.17 1.72-5.72 12.87-1.73 3.95-1.45 7.6-1.34 1.37 1.77-1.63 3.08 5.43.01-.4 6.67 3.8-.76-.97 4.4-10.96 2.28.4 9.37-8.2 1.1-17.09 2.9-2.06 4.47-7.16 8.47-3.6-1.1-4.38 8.95 6.86 1.6-4.73 6.08-2.86 5.6.75 2.68 6.02 1.48 4.65-4.64 6.07 2.5 1.44-3.7 2.71.73 2.06-5.64 5.47 2.42-2.96 6.77-2.6 3.54 4.38 1.58-5.66 6.05-1.65-.77-28.02-7.58 2.06 8.88-3.6 5.68-2.33-1.58-5.37-1.91-5.44-.88 1.86-4.52-.85-3.73-4.93-3.48.52-6.96-5.13-.66 1.8-11.24z"/>
    <path region="136" short-name="State House District 125" long-name="State House District 125" value="1" d="m76.58 741.96 38.75-23.63 1.93 8.6-1.17 2.86 4.07 11.67-.37 4.1 1.35 6.76 1.59 1.58 1.18 4.31 3.76-.48.84-3.4 3.27 1.23 1.49-2.33 3.2-1.12 2.24 1.62 3.62-1.04 1.05 2.05-4.8 10.4-8.11 13.82 3.63 5.36-2.5.9 2.04 7.77-4.4.58-1.73-2.73-6.35-3.42-.4-8.31-3.79.04-5.52 4.91.88 2.93-3.34-.11-4.44-9.13-5.28.15-5.83 2.9-2.4-3.2-2.96-2.24-3.8-.47-5.05-7.37.2-5.61 1.42-.18.18-7.33-2.26-4.37-.1-2.5-3.3-2.32z"/>
    <path region="137" short-name="State House District 110" long-name="State House District 110" value="1" d="m130.58 595.65 2.2.47 2.24-7.4-1.18-3.32 5.37-1.47 3.25 1.12 1.84-1.13 8.46-.02 4.04 4.4.44 3.62-1.09 3.74-4.08 2.53-2.71 3.64-3.79-5.89-6.98 2.74z"/>
    <path region="138" short-name="State House District 121" long-name="State House District 121" value="1" d="m293.59 716.86 2.68.23 5.02-1.56 1.56 3.36 2.84 2.96.2 2.82 1.98.91-.04 5.08 1.13 4 3.17.35 1.1 2.2 6.11 4.76-1.2 6.2 3.77 5.67-4.14.42-9.9 2.74-17.79-6.92 3.11-11.47 2.33-6.41-.32-8.65z"/>
    <path region="139" short-name="State House District 16" long-name="State House District 16" value="1" d="m438.55 224.22 11.18.34 14.7.97 21.11.63 8.91.2.55 1.84 4.2 4.78-.85 1.69-2.3 2.14-3.26 12.11.5 3-7.23 17.36-.37 8.5.86 4.74.08 6.67-7.84 1.4L463.1 293l-21.23 3.63-1.45-14.7-.68-23.2z"/>
    <path region="140" short-name="State House District 22" long-name="State House District 22" value="1" d="m424.97 413.07 10.1-1.36-2.64-17.72-2.25-14.85 7.78-.97 4.35 1.09-.88-3.83-3.26-3.27-1.28.2-1.2-7.92-2.67-4.31 3.05-7.1 2.06-.7 8 5.24 7.99 6.1-.43 5.39-2.15 3.34 4.17 1.8-.7 7.95 15.08 3.11-2.24 3.25-3.01 10.09 1.57 8.81-12.46 1.59-.8 2.33 1.34 13.7-10.68 1.08-3.68.81.19 3.9-7.2.9-3.46 1.15-2.9-.73-.26-10.19z"/>
    <path region="141" short-name="State House District 150" long-name="State House District 150" value="1" d="m42.26 860.06 1.44-1.25 2.84 3.85-1.74 2.02zm-5.1-11.38 13.52-10.54 3.25-1.97 4.84.67.92-4.75 5.07.17 5.81-3.73.64.88-2.6 6.88 11.02-.87 1.54-4.22 3.65-1.35 5.3 11.54-2.21 4.22-2.48.25-2.93 4.03-1.24 6.35-7.16.48-.6-3.12-4.15-4.75-1.3-2.44-4.25.64-5.55 4.27-5.26 1.6-1.1 3.17-6.6-.89-5.82 5.39-2.88 5.16-1.16-.81-.65-7.94 2.17-5.76z"/>
    <path region="142" short-name="State House District 45" long-name="State House District 45" value="1" d="m848.5 520.1 4.2.19 2.66-17.7 4.67 3.76 3.48-3.69 5.97-9.4-3.4-2.8.95-3.71-2.68-.86 2.29-5.16-.15-4.6 1.5-3.52-.7-3.57 2.97-.96 2.9-2.49 3.33-6.25 3.7-8.79.5-2.82 2.58-.39 5.26-5.53 7.26-9.86-4.7-3.61-1.78-2.5 5.19-8.15 20.52 4.46 34.86-4.75 13.58-2.07 5.63.32 30.58 2.65-.89 29.68-1.66 48.24-.5 14.48-24.54-4.2-31.78-5.78-33.16-5.78 3.2 18.35 2.26 10.04-26.54 1.93 2.38 10.38-3.19 4.02-3.75 7.12-.62 5.28-4.24 1.63-6.37-1.13-1.79 3.86-3.37 1.51.7 4.77-3.74 2.08-.57 2.84-5.9-3.77-5.18-2.17-2.45-8.06 2.08-3.22 4.07-4.34 1.94-7.51-1.84-.37-1.9-6.3-.42-4.7-3.13-5.07z"/>
    <path region="143" short-name="State House District 48" long-name="State House District 48" value="1" d="m649.76 456.9 25.5-4.61 3.41-7.72 4.82 4.25 8.09 4.16 5.22-8.08 2.1 1.27 5.04-.9 2.95 2.19 1.8-1 4.65-.18 7.86-4.24 1.84-9.03-5-17.25 15.76-7.16 8.94-8.58.82 1.9 7.76 3.68 2.91 2.84 2.96.47 6.23-.68 1.26 2 7.99 4.11 2.23-.45 3.2 3.11 3.94 5.7 5.28 3.68 1.11 1.92.18 4.48 2.8 2.63 5.2 1.55 9.57-24.17 2.9-6.7 2.98-6.82 16.38 2.9.9 6.67L832.9 426l3.7 19.25-7.53 18.2-3.33 7.6-3.57-1.03-.28 11.28-4.11 8.38 4 18.84-1.67 2.8-3.26.46-10.06-4.09-4.73-2.63-5.71-1.6-.07 2.32-4.47-.87-1.26 1.5-17.59-4.62.61-4.55 3.78-9.3-17.06 4.7-32.04 8.83-4.4.71-.23-11.1-18.13 1.94-37.2 4.73-6.79-15.05-4.07-8.36z"/>
    <path region="144" short-name="State House District 32" long-name="State House District 32" value="1" d="M522.4 426.72 542 423l24.75-4.9-1.38 4.77 44.46-6.49 7.7 17.42-7.83 1.11 1.9 7.2-1.4 6.8-5.45 9.64-1.85 2.4-.95 10.8-1.67 2.7 1.01 3.01-9.81-2.68-7.92-.1-7.57-3.27-7.18 1.57-7.65.12-2.89-1.74-2.14-3.4-.18-5.09-2.7 2.03-.57-3.56-6.67-4.2 1.4-2.44-1.35-3.3-2.68-1.93-.59-3.52-3.08 1.67-1.93-3.1-5.27.31-1.14.75-6.18-2.37-3.11-.37-.72-1.45 2.4-7.77-2.2-3.53z"/>
    <path region="145" short-name="State House District 137" long-name="State House District 137" value="1" d="m177.3 807.8.05 2.11-3.3 3.5-2.7-.1 1.52-4.36 2.1-1.68zm-17.11 12.7 6.24-5.6 2.55-.2-.88 5.94-4.13.5-6.5 3.7zm-3.14-51.98 2.02-2.97 3.5-2.02 2.62.83 1.15 6.19-1.64 6.36.97 6.19 5.63-1.62 1.58 3.28 4.02 2.27.78 2.03-.37 6.92-2.1-1.05-2.28 2.49-.42 3.81-2.7.12-2.2-2.81-2.77 3.38-.29 6.9h-2.33l-4.67 4.64.85-2.85v-4.79l-1.22-1.56 2.34-.9 2.91-6.24-1.2-2.68-1.4-8.31-2.86-1.58-2.2-4.89v-3.84l1.86-1.56-2.9-3.16 3.55-.3z"/>
    <path region="146" short-name="State House District 80" long-name="State House District 80" value="1" d="m393.58 417.33 18.2-2.85.42 3.26 3-.28-1-3 10.77-1.39 1.53 8.88.27 10.2 2.9.72-2.57 5.72.38 13-10.94 1.4.41 6.23-4.12 13 .08 1.89-15.65 2.5-11.89 1.33-9.35-12.05-7.24-8.93-3.4-20.86-1.45-8.97 9.44-1.36 10.34-7.2z"/>
    <path region="147" short-name="State House District 95" long-name="State House District 95" value="1" d="m400.2 653.92 5.49-3.12 1.68 2.4 5.81-.43.77-1.72 4.63.43.7-7.12 4.33-1.78 7-1.42 1.84 4.55-2.28 4.9-5.98 2-1.45 2.69-2.97-1.02-4.53 5.08-1.06 2.62-2.94 3.15-4.6-.15-1.12-3.33z"/>
    <path region="148" short-name="State House District 57" long-name="State House District 57" value="1" d="m636.37 205.73 23.39-3.89 20.91-2.81-.25 10.92 18.28-.28 2.56.21 31.19.55-1.53 4.97.76 2.88-7.12.85-29.04 4.78-17.32 2.5-10.14 2.18 1.65 27.61-29.34 4.9-1.84 2-.79 3.88 1.31 3.32-2.44 3.87.77 3.34-3.13 2.74-.84 4-1.98-.48 2.83-17.9-11.08 2.58.51-9-45.48 1.29-1.92-5.1 1-6.44 10.52-3.43.48-.98 13.8-4.37 6.43-8.6 3.07-8.9 2.04-3.1 6-4.75 3.59 1.9 2.12-.9.41-8.9z"/>
    <path region="149" short-name="State House District 34" long-name="State House District 34" value="1" d="m609.83 416.38 11.54-1.93 8.45-1.03.29 1 11.87 25.76 3.86 8.97 3.92 7.76 7.67 17.44 4.07 8.36 6.8 15.05 37.19-4.73 18.13-1.94.24 11.1 4.4-.7 32.03-8.84 3.57 10.42-5.44 4.84-.16 4.67 2.25 2.9-2.07 2.64-4.47.5-2.44-.85-1.42 8.98 3.8 3.96-7.12 8.02-2.43 7.44 3.35 9.44-5.12.95-9.43 4.36-.34-2.44-48.57 6.99-14.33 1.94-3.14-.49-2.16-2.94-8.41-4.85-1.53-2.29-3.97-9.54-2.4-11.14-4.26-4.68.28-9-4.33-1.91-1.15-6.16 3.08-8.38-1.6-4.26-36 5.29-.5-9.57 2.34-7.12-.13-7.02-1.45-3.54-3.3-2.35-1.01-3.01 1.67-2.7.95-10.8 1.85-2.4 5.44-9.64 1.41-6.8-1.9-7.2 7.83-1.11z"/>
    <path region="150" short-name="State House District 101" long-name="State House District 101" value="1" d="m517.84 523.27 16.83-4.01 5.64-.88.65-1.12.15.95 22.62-3.69 2.99 10.18-4.71 14.84 7.42 6.34 7.05 7.92-3 .92-15.58 1.75-1.72 2.79.78 2.74 2.31 1.26-4.19 7.01 4.56 3.7 4.8.98.03 2.88 1.67 4.73 3.38 5.25 2.3 1.33 2.92 3.76-.86 3.7 2.66 5 .37 4.2-2.12 3.24-.3 8.55.83 4.8-1.65 4.27v4.83l7.02 2.85 2.62-1.53 2 3.6 3.12-.13.23 3-2.11 2.38 1.47 1.51.5 3.83 1.6.66 6.07 5.75.29 2.46 2.33 1.4 5.46 8.07 3.16-.85.44 3.04 1.9 2.55-1.38 1.44-.32 4.99.93 2.75 4.9 3.77-.22 2.68-3.7 1.5-14.01-13.3-6.29-2.46-7.57 2.06-3.12-1.42-6.78-.85-12.52 3.43-6.7.85-1.04-2.82 1.14-2.82 3.28-1.31-.67-2.5 2.51-1.43-1.54-2.96 1.82-3.88 5.47-5.32-.35-3.21 1.13-3.7-5.48-8.94-4.17-2.89-2.33-2.76-1.78.28-3.52-3.49-4.99-9.05-.62-3.62-1.28-4.5.22-7.87-.75-5.42.48-37.13-2.02.02-14.3 3.23-2.22-3.24-.38-3.52 6.81-5.88 2.01-2.4-.63-4.92-1.88-3.45.81-2.87-1.23-5.2-3.66 1.91-5.83.42-2.86-3.56z"/>
  </g>
</svg>
