<svg title="Colorado 2022 State Senate" viewBox="0 0 1000 735.67" auto-border-stroke-width="1" auto-border-stroke-width-limit=".5" original-source='["https://www2.census.gov/geo/tiger/GENZ2022/shp/cb_2022_us_sldl_500k.zip"]' candidates="[{&quot;id&quot;:&quot;0&quot;, &quot;name&quot;:&quot;Democrats&quot;, &quot;margins&quot;: [{ &quot;color&quot;: &quot;#1C408C&quot; }, { &quot;color&quot;: &quot;#577CCC&quot; }, { &quot;color&quot;: &quot;#8AAFFF&quot; }, { &quot;color&quot;: &quot;#949BB3&quot; }]},{&quot;id&quot;:&quot;1&quot;, &quot;name&quot;:&quot;Republicans&quot;, &quot;margins&quot;: [{ &quot;color&quot;: &quot;#BF1D29&quot; }, { &quot;color&quot;: &quot;#FF5865&quot; }, { &quot;color&quot;: &quot;#FF8B98&quot; }, { &quot;color&quot;: &quot;#CF8980&quot; }]}]" version="1.1" xmlns="http://www.w3.org/2000/svg">
  <g regions transform="translate(0 -132.16)">
    <path region="0" short-name="15" long-name="State Senate District 15" value="1" d="m408.86 133.26 18.44.12 41.4.02h6.52l44.47-.17 19.35-.07h3.15l44.37.01.04 21.35-.06 7.7.02 11.44-.02 13.54.04 5.45-7.84-.04-.36 2.74-9.1-.13-.77-.67.3-2-3.68-.1-1.6-.63.13-.58-1.29-.17-.13 10.8 1.09 1.18-1.11.27-.01 1.9-.96.14-1.02-.88-1.62-.33-.1 1.13.28.72.68.02-.03 4.02-1.71.08-.73-1.1-.95.02-.02.88-.61.17.12.98.58 1.2.3 2.04.51 1.39.59-.03.83.72-.08.85-.61.44-.08 1.27.79 1.9 1.02.16v-.61l1.34-.02v-.68h2.7v1.36h-1.35v1.37h-1.37v2.73l1.36.02-.13 2.72h-1.29v1.16l-1.34-.16-.67.44v-1.43l-.68.53.92 2.17.38 1.33h1.47v-1.37l3.33.02.01-1.35h.7l-.02 1.36 2.7-.04.01-.99 1.36.23v.76l1.52.03 3.4-.1.51-.55.95.63 3.13.14v.68h1.24l.04 2.07 1.41-.02-.04 5.4h.8l.02-.76h.72v.76l3.91.01-.02 4.07-1.51-.03.02-1.35-1.3-.03-.05 2.72-3.45.02-.55.38-.21 3.68h-1.22l.21 1.38h.83l.42.59 1.23 3.1.27 1.7-24.02-.07.03 8.26.2.13 5.85-.09.01 2.06.71.66.01 5.45 6.75-.08-.02 13.19-.67-.08-.08-2.25-4.64.08-1.33-1.35.07 1.33-1.95.02.01-1.35h-.84l-.02 1.35-4.05-.02v1.02l1.03.68-.8.72-1.02.02-.42.5.51.62.04 3.2-.74-.02-1-.7-.27.44-1.36.3-.04 6.74 1.37.02.33.81.95-.49 1.43.35 1.35-.77.24-.53h1.11v3.28l-1.76 1.37-.98-.1-1.32 1.05v-2.26l-.29.03-2.35 2.66-1.02 1.36H549v1.02l-2.53.63-1.26-.33-.21 1.33-.4.34-3.66.02v-.37l-4.97.05-.05 2.24.2.8-.55 1.1v1.94l.96.02-.1 1.03.36.52-.15 2.5-.93.7-.1 1.68 1.17-.04.36.45-.06 1.92 1.04.02.1 1.35.72-.03.06 1.34-1.3.08.01 2.59 1.32.67.01 1.34.39.67 2-.07v-1.32l1.59.01.37-1.16 1.38-.17.13-2.66.55.11 3.53 2.08 3.52 1.79 1 .92-.52.33.18 1.33 1.7.36-.03 3.69h-4.17l-.06 1.59-1.51 1.13-8.36-.02-2.52.09-3.45-.06-4.66.04-8.3.17-.02-4.09-1.15.59-.78-.18-1.09.72-.42-.52-1.03.07-1.53-1.33-1.13.35-1.1.78-24.21-.01-.45.05-6.7-.07-1.02-.25-1.46-1.38.2-.93-.36-.64.7-.7.18-1.15-.3-1.88.27-1.05.5-.73-.37-1.13.61-1.39-1.05-.63-.07-1.4.18-2.1 1.68.1 1.12-.43 1.21.07 1.39-.82-.13-.54 2-2.79.2-1.25-1.58-1.57-.37-.84.62-1.26.7-.5.1-.95.8-.36.24-2.5-.13-1.02.38-.62-.65-1 .28-2 .66-.16.49-.84-.32-.9.39-.72-.56-.58-.02-1.42-.76-.44-.03-1.04-1.3-.38-.56-.46-1.04-.14-.76-.98-.9-.33-.52-1.53.46-.81-.51-2.08.15-.63-.99-.58-.01-1.63.34-1.12.67-.85-.1-1.73.26-.56.3-2.03.42-.42-.15-.76.74-1.48.19-.79 1.69.06-.6-.96-.3-1.16-1.29-.68-.4-.52-1.48-.07-.94-1.1.42-1.07-.19-1.04-.63-.36.2-.9-.66-1.15.3-1.07-1.24-1.17-1.04-.51.64-1.16-.57-1.13-1.64-.23-1.18-1.2-1.09-.62-.12-.8-.78-.64-.13-.67-.87-.5-.76.33-1.33-.78-.38-.77-1.13-.74-1.25-1.83-.78-.79.02-.6-.78-.73-.5-1-.02-2.32-1.48-2.16-.99-.9-.4-.83-.6-.39-.28-.94.4-.38-.27-1.3.66-1.38.86-.94-.28-.82.45-2.24-1.19-2.18-1.04-.02-2.52-1.32-1.35-.17-1.09-.44-.12-1.2.53-.92-.03-1.68-.68-.24-.7-1.24-1.4-1.37-1.45-.2-2.44.86-.77.77-.48-.25-.47-1.26.47-.75.4-1.72-.28-1.41-.69-1.84.28-1.14-.14-1.43-.6-.81-.88-.34-.92-3.6-.06-1.56-.3-1.15-1.68-.55-.7-1.42.26-.85-.59-1.15.11-2.82-.76-.87-.4-1.5.12-.73-.4-.78-.92-.98-.23-1.4-.74-1.16.26-.83-.5-.57.2-1.04-.7-1.47-1.66-1.3-.2-1.64.3-.58-.37-1.09-.8-1.12-1.4-.84-1.13-1.7-.18-1.16-1-.35.23-.7-.46-.55-.09-1.87-.68-.4-.06-1.54-.78-.75-.64-.04-.81-1.15.07-1.1-.44-1.3-1.4-2.35-1-.84-.93-.14-.72-1.06-1.64-1.03-.68-1.4-1.23-.51.4-1.16-1.11-.82.28-.98-.58-.75-1.5-.47-1.14-.72-.79-1.31.69-1.58-.54-1.5.1-.5-.88-1.23-1.02-.54-.55.05-1.52-1.13-.05-.68-1.32-.78-.13-.85-.62-.36-.93-1.27-.76-.46-.57-2.25.72-1.75-.45-.67.05-2.35-.38-.36-.04-1.05-.76-2.13z"/>
    <path region="1" short-name="13" long-name="State Senate District 13" value="1" d="m589.58 320.13 7.84-.01-.03-10.78h-2.7v-.66h1.43v-.66l1.25-.29-.04-2.44h-2.64l-.03-2.74H596v.97l1.33.37.44-1.41 2.26.07.01-3.53.43-.77-.41-.42.02-8.73-1.26-.02-.07-1.37-3.98-.1-.02-5.39h2.63l-.03-5.34h2.15l.52 1.39 2.7.09.01-4.05-2.73-.11.06-6.39.78-.37 1.9.1v1.33h1.32l.05-2.72h1.3l.01-5.17.97-1.16.6-1.23.84-.24 1.13.2.36-1.76-.2-2.33.07-3.37h-2.7v-1.34l2.69-.03.03-1.35 4.02-.03-.02-4.05 3.03.07v-5.23l-1.38-.3v-.94h1.4l.02-2.5 1.04.3 2.42.14.62-.47-.01-.88h.67v1.35l1.12.05.48 1.08.16 2.05.92 1.17.71.44 2.13-.36v.59l1.9.33.01-.76-1-.41.02-1.06 2.01.03v.47l1.2.34-.2-5.34.76-.03.1 2.53h.5v1.36h.61l.05 2.64-.7.7-1.84-.18-3.6.16-.98-.35v1.39l-.34.34v1.01l1.37.34.14 1.34 1.88.01-.35.96-2.48.08.14 1.7h-1.33l-.02 2.02-1.75 1.48-.9-.02-.13 1.63.4.8-.27 1.53.02 7.42-3.8-.03-4.02.12-.4.44.03 23.54-.04 11.13h2.74v3.1l-.93-.4-3.12.02v1.35h.68l.1 1.35 1.93.02v1.26l-5.4.04v2.58l-1.35.13v.56l-1.35.12.68.67V312h.68l.02 4.1 2.66-.02v1.32h2.02l.66-.67.03 3.38h8.06l-.04 5.2-7.05.02-.98.53-2.45 3-1.87 1.87-1.18 1.9-.12.95h-.76l-1.48 1.8v.73h-1.42l-.83 1.04-2.59 1.69-.54-.02-.01-2.7h-3.42l1.89-3.22.77-1.78-1.96-1.86.52-1.46.83-1.12.22-.9 1.24-2.07.19-1.14-1.17.07-9.81.07z"/>
    <path region="2" short-name="2" long-name="State Senate District 2" value="1" d="m592.03 426.3 2.19 1.15.76-.63.92-.37-.23-.82.16-1.15.85-2 1.41-.34 1.93.02-.01 2.7.67.01.66.68v2l1.3-.26 1.06-1.54.4-1.05 1.27-1.62.27-.67 1.92-1.6.97-1.31-4.65.01.04-2.65h1.31v-2.61l-.95-1.14-.62-.31.25-1.34.94-.02.25-.84.03-4.02.17-.49-2.6.03v-3.42l-1.33.47-.01-2.52 9.27.03v.88l.89.4 1.66.02.8-.32.65.34.04-1.3 1.34-.03-.01 2.72 4.52.05.16-1.71-.5-1.08 6.66.02-.24 18.9-4-.03-1.8-1.29-1.07-.97-.97-.47-.56 1.59.43 2.33 1.91.13.63.22.71 1.8-.88.64h-4.36l-.34 1.24-1.02.05-.57.59-2.04-.58-.14 3.95.29 1.45-1.04.02.59 1.25.1 1.13-.51.25-1.93-.63-1.5-.28-.66.31v.66h-1.33l-.05 1 .7.63.67-.32 1.32-.01v2.67h.67v1.34l-2 .02v2.68h-1l-1.01-1.34h-1.3l-1.01.4-1.58-.03-.98-.88-.35 1.22h-1.31v1.33h2.87l.94 2.09.12 2.6-7.1-.02.3-.66.68-2.96-.98-.14-2.08 7.45-2.32.01-1.4.26.18-.75.72-1.04-.91-1.07-.44-1.64.65-.27v-.7l-.72-.48.85-.76 1.34.03v-.67l3.09.02-.11-1.03-.58-.4.02-.63-1.2-.65.16-2.23 1.03-1.75-2.4-.03-.02-.67h-1.33v-1.31h-.66l-.01-4.72.66-.7 1.3-.06z"/>
    <path region="3" short-name="22" long-name="State Senate District 22" value="1" d="m558.92 359.01.88-.5.38 1.16h.67l.67-1.35h.68v1.53l.7-.7 1.32.22 2-.02-.07.74 2.04.07.04-.51 1-.16.33.84h1.35v18.81l-1.34 1.35h1.33v1.34h-2.67l-1.33-.44-.02-4.9h-4.35l.35-.8v-1.87l-2.84.04-.9-.25-2.65.2.05-2.52-2.18-.02-.79.2v1.01l-2 .1.01 1.2-.55 1.42-.99.43-2.25.12-.8-.16v-1.77l-2.54.01 1.3-1.36v-1.33l1.2-.01-.08-2.67h-1.57l-.48-.53.75-1.16-1.35-.84.01-5.49h1.24l.02.67.81.04.16.97.62.95h.93l.32.62 1.02-.64 2.08-.47-.19-.85.42-1.33.91-.7 1 .11.02 2.81 1.47-.24.22-.61 3.06-.43.03-1.3z"/>
    <path region="4" short-name="12" long-name="State Senate District 12" value="1" d="m574.57 501.25.87-.48 1.12.27 3.11-.06v1.37l2.67-.08 2.71.33 2.59-.01.06 18.55 6.91-.02-.03 2.62-1.32-.02-.32.65-2.15.03-.13 1.33.1 2.68h.64v1.35l3.2-.07v1.55l1.33.32.7.5.84-.7.46-1.16.03-1.02 1.86-1.6 2.15-.1 1.25.29 4.5.23.1 2.15-.05 4.5-4.35-.18-.77.23-.53 1-.3 1.54.22.62 1.12.81.63.06.11 5.3 1.2 2.38.11 1.15h1.93l1.91.2-.05-1.18.6-.06 1.56 2.04 1.43 1.42.17-1.21-1.03-.66 1.11-1.04.2-1.48.46-.55h2.14l1.21-.18 1.45.09.01 1.84.9.85 3.42-.01 1.07.95v4.3l5.46.01-.25 1.25 1.08.05-.42 1.31h1.88l.12 2h-4.27l-.4-.22-1.14.81-.77.09v2.46l.31.16 10.3.01v.68h-.89l-.52.67-.02 1.34h-1.97l-.58-.6h-.9l-.46.6.03 2.64-3.92.04v1.32l-2.64.02v-1.15l-1.78.07-.53.95.6 2.35.8 4.7.32.87 1.28 2.32 1.19 2.8.47.1 2.66 4.13h-.56l1.3 3.71 1.63 4.18-12.44.07-11.42-.08-9.7.03-4.2-.09h-5.3l-1.23.14-.14-18.76.04-5.04v-8.42h.36l.1-2.6-.12-15.72-1.27-.37h-6.55l-2.97.14-1.92-.04-3.6-.26-2.55.01-.05-1.64.59-7.82.28-3.3 5.39.08.13-5.3.04-4.99-.07-.93-1.87-.1-.02-1.33 1.98-.05v-8.66l-.38-2.62z"/>
    <path region="5" short-name="35" long-name="State Senate District 35" value="1" d="m511.07 705.69.89.08 1.1-.3.98.27 1.72-.32 1.18.42.6.69 1.3.3.72-.16.7-.7.75-.25 3.75-3.66 1.9-1.08 2.36-.49 1.64-1.57 1.6-.9 1.05-.1 1.5 1.21.86 1.66-.16.9.6 1.58.72.14.2.85.84.8.65-.32.96-1.16.82-1.92.88-1.33-.28-.57.32-1.51.57-.17 1.08-2.22 1.17-.62.6-.68-.18-.9 1.34-.48.45.24.45-.89 1.1-.3-.16-.88.33-.89 1.18-.54-.02-1.16 1.03-.09.25-.4-.42-1.53.78-1.21.97-.55 1.26-1.06 1.46-.45 1.08.56 1.87 1.74-.75.98.1 1.57.65.95.58-.18.62.59-.15.87 1.36 1.28-.65.98.31.77 1 .4.03 1.67.5.43h.79l1.23 1.04 1.34-.27 1.58-.66.52-1.23.93.44.51.8 1.17.78-.06 1.03.41.63-.02 1.04-.33.54.03 1 .37.68 1.9.27 1.43 1.33.17.66 1.01.05-.46 1.73 1.86 1.28.85.36.3.76 9.67-.68 16.67-1.1 25.99-1.7 10.6 3.77 31.47 11.22 29.63 10.67 2.62.93 9.06 3.32-.1-15.86.26-.06.14-48.9.15-8.66-.03-.9-.03-20.74.53-.19.07-46.85.04-.5-4.2-.01-.96.08-8.55.04-2.2-.1-15.6.21-19.66.13-28.4.05-2.6.05-1.63-4.18-1.3-3.72h.56l-2.66-4.13-.47-.1-1.2-2.8-1.26-2.32-.32-.88-.81-4.7-.6-2.34.53-.95 1.77-.06.01 1.14 2.63-.02v-1.31l3.93-.05-.03-2.63.46-.61h.9l.58.6h1.97l.02-1.34.52-.67h.89v-.68h-10.3l-.3-.17v-2.46l.76-.08 1.14-.82.4.23h4.28l2.64.12-.01-3.1.09-3.68-.03-3.26.03-7.96-1.32-.02.02-4.61-1.98-.01v-.66l1.99-.01-.2-1.3h.86v-.66l1.99.14v-2.8l-2.64-.02v-.69l-1.33-.33.02-2.99.66.67h.66V525l-.65-.66h-.67v-3.31l.01-.44 1.24-2.27 1.42.03-.48-1-1.4.98-.95-.02v-2.29l-.55.5-3.93-.02-.79-.7-1.25-.13.02-2.02h-1.33l-.01.67h-1.3l.48-1.23h-1.76l.05-5.3-8.01.02-.01-2.66-1.33.01v-1.35h1.33v-1.31h-1.57l-1.52.65-.34-1.18.12-1.53.9-2.9.5-.25.88-1.36v-1.47l.36-1.6-.12-1.49-.71-1.09-.46-1.55-.1-4.56.66-1.8-.01-1.34 14.77.03-.02-11.31.03-18.08.05-18.68.12-12.04-.1-1.38.24-18.91h7.95l10.42.23 14.85.2 1.34-.03 8-.1 26.74-.18 22.77-.14 5.1-.06h38.69l9.87.02 23.7.06 28.05-.1 17.04.1 17.25-.34.81.03 10.74-.15 12.55-.02 8.8.12 9.07-.02 18.09-.17 5.91-.08 2.69-.25 12.32-.03 11.88.02 6.68-.05 12.08-.21.19.03 28.4-.39.04 6.5-.02 6.04.04 15.3.13 22.14.09 15.25.1 16.65.08 15.17.17 42.8v5.47l.03 15.68.01 5.1-.03 9.92.01 13.03-.01 16.4.05 6.19.07.7-.07 5.7.08 24.41.02 24.84-.05 12.2.1 21.24.1 10.86.04 11.62.11 7.82.08 14.36v13.06l-.06 13.05.03 5.24v12.79l.04 10.73-.06 4.01.04 9.85-.04 7.07V860.23l-.02 7.5-23.68-.12-7.48-.12-13.47-.04-48.84-.1-6.26-.45-10.03-.36-9.32.02-15.54.19-2.17-.28-21.9-.02-35.94.17-9.07.04-37.4.18-38.97.32-29.52.24-5.06.04-12.58.2-25.7-.04-15.01-.11-.14.14-2.78.04-15.72-.02-34.93.04-4.09.1-13.04-.49-4.88.02.12-53.23-.53.04-.95.68-.1-1.1.27-.84-.5-2.48.2-.53-.17-1.25.51-.93-.69-1.45.55-1.47-.25-.38-.16-1.94-.28-.6.45-1.5-.44-1.03.5-1-.2-1.3.59-.33.91-1.6 2.52-.27.84-.52.42-1.01-1.06-.7-.48-.9-.06-1.75-.79-1.45-.05-.91-.4-.38-.36-1.5-.57-1-.9.42-1.84-.27.27-.86-.45-2.6-.54-.56.85-1.49-.45-.75.73-1.45-.25-.59.02-1.22.4-.7-.03-.88-.7-1.45-.18-1.43-.75-.73v-1.48l.66.02-.81-1.71-1.12-1.17-.23-.82-1.16-1.28-.52-.04-1.86-1.47 1.8-1.5.28-.66 1.5.4-.13-1.59-.32-.38.1-1.04 1.01-1.11.15-.82-2 .09-1.5-.78-.35-.52-.95.94-2.1.07-.8-.53-.26-.99-1.25-.18-.33-.55-.12-1.25-1.65.34-.86-.48-.82-.96-.89.09-1.52-1.54-1.92.18-.1.52-1.22.31-1.6 1.05-2.26.17-.44.77-1.8.2-.4-.33-.97.04-.87.68-.56 1.17-.82.28-.68 1.45-1.21.74-1.22-.68-.93.38-1.22-.16-.71.52-1.4.11-.57.26-.79 2.09-1.05 1.13.1.62-2.19 1.55-2.28.5-1.25-1.16-.14-1.24-.8-1.1 1.14-.42.03-.8-.79-1.58.31-.91.7-1.05-.13-1.76.66-1.75.12-1.61.78-.9.6-1.39-.18-1.29.27-1.04-.15-.98-.46-.47-.07-1.18.58-2.5 1.91-1.11.32-.65.65-.34.4-.84.1-1.45-.2-.82.32-.7-.65-1.18.21-1.71-.26-.66.57-1.29.5-.6.12-1.56-.33-1.37-.5-.7.03-.89 1.08-.78 1.74-.85-.23-2.61.38-.95-.21-.72.98-2.74-.32-.67.3-.78-.66-1.05-.78-.68-.26-1.5-1.4-1.54-1.36-.4-1.28.29-1.2-.3.07-1.36z"/>
    <path region="6" short-name="4" long-name="State Senate District 4" value="1" d="m375.25 438.32.7-.35 1.91-1.83.43-.96.64-.38 1.28.3.8.52.77.07.35 1.24.88 1.05.17.57 2.72 1.28 1.78-.99.9.15 1.75-.2 1.18-.54 1.24.17 1.04.74.15.81 1.5.29.73-.18 1.24-1.06 1.01-.13.68-.6.94.54 1.06-.92.79-.29.8-1.34 1-.24.18-.99 12.7-.01.72.03 1.58.54 2.03-.25 1.32.01 1.6 1.5 1.62.2.82.78 1.76 1.1 1.73.2 1.32-.18 1.81-.62.62-.7.12-1.74-.23-1.19.65-1.01.77-.08.73-.82 1.05-.6.77-1.32.99-.04.24-.66.72-.47 3.58-1.12-.52-1.52.08-.62-.84-.52-.61-.81-.26-.85.72-.38 1.16.29 1.35-.44.28-2.19.5-1.05 1.26-.16 2.75.18.65-.24.59-.85.03-.99 1.34-2.1.43-.43 1.44-.08.1-1.08.85-.96.83.09.43-1.47 1.02-.52-.5-1.3-1-.84.57-1.9.74-.94.45.78 1.31.76.15-.42 2.04-1.11.87.27.9-1.43-.19-1.39.45-1.14-.93-.19-.5-.5-.55-1.69 15.05-.1.35.03 13.92-.33 5.11-.21 20.39.4h6.55v-7.47l.57-.38 2.6-.18 1.54 1.52.19.85 1.09.13.96 1.26 1.06-1.16.08-1.22.6-1.32.74-.3.62-1.16.6-.25V390l3.78.04.44.68 1.8 1.24 1.13 1.43.03.64.81 2.39 1.17.4.93.04 1.17-.67 2.71-.38.42-.61-.75-1.1-.63-2.48.8-.9 1.3.4.72-.22 1.13.1 1.16-.48.86-.78 1.47-.47 1.2-1.04.75.98.92 2.24-.04 1.85.64 1 .09 1.72 1.38 2.52.3 1.92 1.44 2.66.72.16 1.56-.24.62.35.34.75v2.02l2.5-.02.72-1.83 2.2.17-.68 1.58.19.94-.52 1.57.3 1.04-.06 1.11-.9.9-.2 2.16-.75 1.04-.11.65-.67.42-.83-.07.21 1.07.06 2.68.63.67h.66l.03 7.35h2.64l.03 1.56.44.4 1.46-.02.32-1.09.65-.6.12-.64 1.1-1-.17-1.06.34-1.48-.8-.24-.9-.87.3-1.12-.3-.76.23-.7.13-1.78.94.02v.69l.95.02.13 1.56.9-.81 1.24-1.84-.5-.39-.01-3.88 1.11-.01.42.95 1.63-.64 1.14 1.14 1.12 3.19.68 2.26 1.14 1.54.5 1.33.53.42 2.85 1.02 1.36.21 2.03.62 1 .1 1.83.6-.06 2.47-1.31.06-.66.7v4.71h.67v1.33H592l.01.66 2.4.03-1.02 1.75-.16 2.23 1.2.65-.02.64.58.39.1 1.03-3.07-.02v.67l-1.35-.03-.85.76.73.48v.7l-.66.27.44 1.64.9 1.07-.71 1.04-.18.75 1.4-.26h2.32l2.08-7.46.98.14-.68 2.96-.3.66 7.1.02-.12-2.6-.94-2.09h-2.87v-1.33h1.31l.35-1.22.98.88 1.58.02 1.01-.4 1.3.01 1 1.34h1.01v-2.69l2-.01v-1.34h-.66v-2.67h-1.33l-.67.33-.7-.62.05-1.01h1.34v-.66l.65-.31 1.5.28 1.93.63.5-.25-.1-1.13-.58-1.25 1.04-.02-.29-1.45.14-3.95 2.04.58.57-.6 1.02-.04.34-1.25 4.36.01.88-.64-.7-1.8-.64-.22-1.91-.13-.43-2.33.56-1.59.97.47 1.06.97 1.81 1.29 4 .04.1 1.38-.12 12.04-.05 18.67-.03 18.09.02 11.3-14.77-.02-22.4-.03-15.65.01.91 18.52-.04 1.7-.35 3.66.38 2.62v8.66l-1.98.05.02 1.33 1.87.1.07.93-.04 4.98-.13 5.31-5.39-.08-.28 3.3-.58 7.82.04 1.64 2.54-.01 3.62.26 1.91.04 2.98-.13h6.54l1.27.36.13 15.72-.11 2.6h-.36v8.42l-.04 5.04.14 18.76.09 18.51v8.33l.08 20.65-15.51.06.07 3.31.06 20.3-.34 2.52.04 3.26.03 17.33.04 15.28-1.9-.27-.37-.69-.03-.99.33-.54.02-1.04-.4-.63.05-1.03-1.17-.78-.5-.8-.94-.44-.52 1.23-1.58.65-1.34.28-1.24-1.03-.77-.01-.51-.43-.03-1.66-1-.41-.3-.77.64-.98-1.36-1.28.15-.87-.62-.59-.58.18-.65-.95-.1-1.57.75-.98-1.87-1.74-1.08-.56-1.46.45-1.26 1.06-.97.55-.78 1.21.42 1.53-.25.4-1.03.1.02 1.15-1.18.54-.33.89.16.87-1.1.31-.45.89-.45-.24-1.34.48.18.9-.6.68-1.17.62-1.08 2.22-.57.17-.32 1.5.28.58-.88 1.33-.82 1.92-.96 1.16-.65.33-.85-.81-.2-.85-.7-.14-.61-1.58.16-.9-.86-1.66-1.5-1.2-1.06.1-1.6.89-1.63 1.57-2.36.49-1.9 1.07-3.75 3.67-.75.25-.7.7-.72.15-1.3-.29-.6-.7-1.18-.4-1.72.31-.98-.27-1.1.3-.9-.08-2.12-2.5-.43-.98-1.7-1.53-1.14-2.79-3.17-2.9-1.34-.24-1.05.48-.24.6-1.21-.24-1.48-1.15-1-1.32-.89-.3-.16-.58.5-.87-.62-.8-.32-1.27-1.77-2.82-.58-.5.04-.67 1.03-.88-.12-1.16-.73-1.28-.06-.75-1.38-1.23-.68-1.66.03-1.09-1.1-.44-.24-2.1-1-.39-.33-1.1-1.25-1.24-1.5-1.8.03-.57-.84-.98.02-1.92.53-1.08-.71-.3-1.53-3.31-.41-1.6.86-1.24-.4-1.1-1.1-.25-.87-1.15-.9.2-1.03-.62-.26-.91-.87-1.39-1.1-.62-1.56-2.61-.9-.37-.49-1.42-.56-.13-.59-.78-.82.07-.84-.87-.01-1.08-.41-.66-.88-.4-.38-.54-2.23-1.06-.83-.86.05-1.42-.9-1.44-.61-1.78-2.7-.67-1.17-.9-.52-1.18-.91-.6-.77-.87-.58.53-.5-.76-1.16-.71-.47-.92-.74-.41-.74-.94-.27-.78-.77-1-.42-1.24-.93-1.25-.28-1.27-.99-1.58-1.23-.58-.56-.57-.32-.94-.84-.42-.2-.6-1.83-.6-1.71-1.48-.42-2.16-.44-.59-1.26-.6-.16-1.1-1.37-1.26-.45.1-1.55-1.86-.43.17-1.35-.28-.43-.6-.25-1.36-.7-.26-.9-1.38.07-.95-.77-.61-.24-1.05-1.6.17-1.8-.75-1.26.62-.92-.5-.53 1.21.61 1.03-1.62 2.64-.94 1.16-1.73.27-22.63-.09-.36-1.9.58-1.08-2.27-.58-.68.11-.88-1.28-.05-1.16-1.14.15-1.18-1.39-.23-2.1-1.78-.62-.9-2-.3-1.26-.98-.06-.26-.46-1.1.07-.36.65-.84-.53-.93-1.13-.76-1.75.63-.9.16-.75-.65-1.32-1-.84-.17-1.67.26-1.35.98-1.62-.03-1.14.32-.63-1-1.52.05-1.2-1.42-2.25.28-.65-.77-1.18.15-.8-.23-1.02-1.47-.98-.5.2-.9-.88.03-1.35.69-.85-1.4-.73-1.57.24-.07-1.1-.89-.35-1.32.5-.66-.34-1.19-1.22.16-.75-.45-1.88-.52-.6-.31-1 .03-1.06-.33-.8-.83-.39-.84-1.7.5-1.21.7-.78 1.68.09.91-.3.26-1.92.86-.88.1-1.47-.48-.93.3-.58-.28-1.74.7-1.02-.3-1.34-.3-.28.53-1.18.24-1.22-.4-1.56.54-.6-.25-1.5-.47-.28-.69-1.41 1.1-1.26-.18-1.57 1.33-1 1.34 1.13.9.07 1.09-.37.07-1.16.58-.73 1.26-.66.82-1.4-.05-1.23 1.12-.4 1.1.02.04-1.82 1.44-1.2.68-1.76.93-.18.12-.92.76-.97.07-.6-.55-1.29-.2-1.48-1.27-.12-.44.54-1.02.3-1.68-1.07-.64.1-.85 1-.84.06-.4-.54-.1-2.4-.49-.4-1.7 1.1-.24 1.2-1.16.3-.78-.76-.64-.16-.73-.96-.15-1.05-.5-.26-1.21.58-.99 1.83-.7-.12-1.66.51-.58.5-1.02-.06-1.03-1.02-1.24-.5-1.28-1.4-.11-.62-.8-.7-1.15-.61-.13-1.38-1.49-.78-.59-.98-.97-.26-.26-.82.95-1.61-.37-.44-.56-1.77-1.1-.5-1.52-1.4-.77-.44-.34-.97-.84.1-.8.82-1.23.17-.35.44-1.37-.41-1.24.26-.53-1.24.68-1.13-.07-3.05.46-.75-.38-.93-.73-.7.32-2.02 1.15-.14 1.2-.58.45-.82.1-1.87-.1-1.72-.27-.88-.98-1.87.03-1.16.83-1.49.53-.33h1.1l.7-.38-.14-1.46.97-1.14-.32-1.51-.6-.73.58-1 .26-1.1-.56-1.49 1.56-1.75 1.87.66.43-.95 1.17.37.88.68 1.44-1.14.35-.58-.2-1.46.47-.77 1.01-.92.18-1.5.67-1.16-.17-2.17.14-1.59.58-1.65-1.28-1.33.2-1.43 1.18-1.07.42-.99.43-.24.1-1.03-.24-.84.11-1.34-.93-.09-.48-.82-.76-.31-.78-1 .2-2.45.39-.63 1.05-.47 1.05-1.57 1.27-.4.48 1.16.65.2.31-.73 1-.32.7.14.82-.81.84.25.4-.37 1.1.12.72-1.23-.35-2.03-.59-.57-.22-1.8.23-1.28z"/>
    <path region="7" short-name="20" long-name="State Senate District 20" value="1" d="m521.8 336.38 8.31-.17 4.66-.04 3.45.06 2.52-.1 8.36.03 8.42.03-2.64.63.02 3.64.04 8.17-.58.55-1 .03-1.5-.27-.19.68.14 1.32-.9.1-.07 1.57-.59.49v1.87l-.72-.64-1.7-.02-.89-.35-.03 1.68h1.34v.68l3.74-.02.3-.66 1.3-.07.7.7 1.66-.42.37 1.17.67-.69 1.5-.06.34 1.55-.67.46v.74l.76-.01-.56 1.03-.02 1.3-3.06.43-.22.6-1.47.25-.03-2.8-.99-.12-.9.7-.43 1.33.18.85-2.07.47-1.02.64-.32-.62h-.93l-.62-.95-.16-.97-.8-.04-.03-.67h-1.24v5.49l1.34.84-.75 1.16.48.53h1.57l.07 2.67h-1.2v1.34l-1.29 1.36 2.53-.01.02 1.77.79.16 2.25-.12.99-.44.55-1.4v-1.2l2-.1v-1.02l.78-.2 2.18.01-.05 2.53 2.66-.2.9.25 2.83-.04v1.88l-.35.8 4.35-.01.02 4.9-.02 1.5.68.5.67-.11.64 1.22.78.39 1.18-.1-1.35.4v.67l-1.26.03-.67 1.31h-2.04v.68h-2.68v1.48l.34.53h2.32l1.57-.97.58.97 1.43.64.14.4-4.55.04v.71l.8.04v.85h-2.64l-.03 3.08-1.33-.14-1.04.52-1.25.34-1.27-.05-.47-.64-.52-1.46-.7.09-.63-1 .04-1.87-.92-2.23-.75-.98-1.2 1.04-1.47.47-.86.78-1.16.47-1.13-.09-.72.22-1.3-.4-.8.9.62 2.49.76 1.09-.42.61-2.72.38-1.16.67-.93-.04-1.17-.4-.82-2.4-.02-.63-1.14-1.43-1.79-1.24-.44-.68-3.78-.04v.97l-.6.24-.62 1.17-.74.3-.6 1.32-.08 1.21-1.06 1.17-.97-1.26-1.08-.13-.19-.85-1.53-1.52-2.61.17-.56.4.09-5.6-.05-9.2.09-11.02v-21.24l.04-4.24z"/>
    <path region="8" short-name="17" long-name="State Senate District 17" value="1" d="m570.62 284.59.54-.93.78-.07.67.44.67-.45.13 1.35 1.25-.01v-1.36H576l-.02 3.83-1.8.24-.87.8-.05 1.9 1.95-.07 2.14.07v.63l1.34-.02-.24.67h-2.46v1.4l-2.03-.17.33 1.52-3.68.08v9.4h1.28v-1.33l-.64.02.47-1.23.86-.15-.01 1.34-.48.01v1.34l3.77.14 3.4-.12-.6.68v2.04h.67v-1.35l1.9.01v4.1h-2.6V312l2.93.02-.2.33-.02 2.37-.92.01v.66h-1.78l.4 1.18-.4.85h1.34v1.34l-2.62.02.01 1.32-6.4.04v4.2l-.7.56v1.12l.7.5v1.5l-2.72-.01v1.44l-.66-.07-.01 1.34-2.06.01.03 1.34-2.61-.01-.6.8-.75-.21.02-1.9 1.3-.03.01-1.36-1.6.02-.2-.67-.86.46v-1.14l2.66-.27.01-3.13-1.73.6-.68-.1-.2-.68.81-.23-.85-1.56 1.32-.01v-1.05l-.6-.32h-2.07l-.45-.75-.54.63-1.2.12-.65-.38.06-.74 2.32-.02v-1.33h1.33v-.87h-.65v-1.16h.68l-.06-15.52.06-2.75.01-3.28h-1.1l-.25.53-1.35.77-1.43-.35-.95.49-.33-.8-1.37-.03.04-6.74 1.36-.3.27-.44 1 .7.74.02-.04-3.2-.5-.62.4-.5 1.02-.02.8-.72-1.02-.68v-1.02l4.05.02.03-1.35h.83l-.01 1.35 1.95-.02-.07-1.33 1.33 1.35 4.64-.08.08 2.25z"/>
    <path region="9" short-name="5" long-name="State Senate District 5" value="1" d="m126.86 437.51.3-.9 2.4-2.26 2.79-1.3 1.08-1.07 1.21-.72 2.55-1.81 1.22-1.67 1.88-1.71 2.35-3-.62-.1v-1.78l-.23-.99.96-.56 1.51.9.47-.86.93-.47 2.43-1.54.68-.23 4.97-.54.97-.21 2.66-1.84 2.29-1.9 1.27-.35 1.85.37 2.38-.83 2.25-.61 8.14-3.73.77-.42 1.36.07 2.05-.12-.11-.95.65-.09.01-2.94.4-.54.93-.14v-1.6l.87-1.34-1.96.02.62-.68 2-.02.43 1.3-.03 1.5.73.08.02 1.4h1.34v1.36l-.96-.02.38 1.28-.75.05.02.67.66.43 4.3-2.18 3.44-.82 2.36-.2 3.06.25.3-.39-.02-1.7.77.02-.08 1.12.9-.23.3-.87 1.48.26.63-.55.03 2.03h1.11l.6.47 9.45-2.18.9-.7.4-.66 1.01-.66v-2.45l.65-.69h2l-.07-1.92.68-.01.77 1.17.55 1.57-.18.78.92 1.07 2.5-.07.66.32 1.78-.71 2 .83 1.58-.77 1.93.08 1.36 1.19 2.22.57 1.47 1.14 2.14-.68 1.27.1 2.15-.9v-.68h2.2l-.12 1.4.75-.54-.26-.87h1.45l.38.68-.03 1.24.27.51h1.62l.05-1.18.62-.57.6.75 1.14-.1 2.23.32.57-.15.84-1.02 1.04.65.9.05 1.48.43.73.58 1.08-1.33 1.64-1.12.25-.93.7-.31 1.17.17.73-.38 1.4-1.54.75-.02 1.5-.93 1.2-1.54 1.82-.61.51-.89 1.39-.5.93-.8 1.66-.66.68-1.06 1.14-.05.03 10.85-.04 10.67.05 2.43 2.13-.1.02 1.54h6.79v.53l17.37.04 1.28.16 2.05-.14h4.09v-.24l3.38.02-.1 7.67 4.69-.01 18.38.1 14.21.13 1.96 1.1.08 13.8 11.01-.04 1.6.1 8.96-.02-1 1.42-.23 1.27.22 1.8.59.58.35 2.03-.73 1.23-1.1-.12-.39.37-.84-.25-.82.81-.7-.14-1 .32-.3.73-.66-.2-.48-1.17-1.27.4-1.05 1.58-1.05.47-.4.63-.19 2.45.78 1 .76.3.48.83.93.1-.1 1.33.24.84-.1 1.03-.44.24-.42 1-1.18 1.06-.2 1.43 1.28 1.33-.58 1.65-.14 1.6.17 2.16-.67 1.16-.18 1.5-1.01.92-.47.77.2 1.46-.35.58-1.44 1.14-.88-.68-1.17-.37-.43.95-1.87-.66-1.56 1.75.56 1.49-.26 1.1-.58 1 .6.73.32 1.5-.97 1.15.14 1.46-.7.37h-1.1l-.53.34-.83 1.5-.03 1.15.98 1.87.27.88.1 1.72-.1 1.87-.45.82-1.2.58-1.15.14-.32 2.02.73.7.38.93-.46.75.07 3.05-.68 1.13.53 1.24 1.24-.26 1.37.4.35-.43 1.22-.17.81-.82.84-.1.34.97.77.44 1.53 1.4 1.09.5.56 1.77.37.44-.95 1.6.26.83.97.26.6.98 1.48.78.13 1.38 1.16.62.79.7.1.6 1.3 1.41 1.23.5 1.03 1.02 1.02.05.58-.49 1.66-.51.7.12.99-1.83 1.2-.58.51.26.15 1.05.73.96.64.16.78.76 1.16-.3.23-1.2 1.71-1.1.48.4.11 2.4.4.54.84-.06.85-1 .64-.1 1.68 1.07 1.02-.3.44-.54 1.27.12.2 1.48.55 1.3-.07.6-.76.96-.12.92-.93.18-.68 1.75-1.44 1.21-.05 1.82-1.09-.03-1.12.41.05 1.22-.82 1.41-1.26.66-.58.73-.07 1.16-1.1.37-.89-.07-1.34-1.13-1.33 1 .18 1.57-1.1 1.26.69 1.4.47.29.25 1.5-.53.6.4 1.56-.25 1.22-.53 1.18.3.28.3 1.34-.7 1.02.28 1.74-.3.58.47.93-.1 1.47-.85.88-.26 1.93-.9.29-1.7-.1-.68.79-.5 1.2.83 1.71.83.39.33.8-.03 1.07.3 1 .53.59.45 1.88-.16.75 1.2 1.22.65.34 1.32-.5.89.34.07 1.11 1.57-.24 1.4.73-.69.85-.02 1.35.88.89.51-.2 1.47.97.23 1.03-.15.79.77 1.18-.28.65 1.42 2.25-.05 1.2 1 1.52-.32.63.03 1.14-.98 1.62-.26 1.35.17 1.67 1 .84.65 1.32-.16.74-.63.9.76 1.76.93 1.13.84.53.36-.65 1.1-.07.26.46.98.06.3 1.25.9 2 1.78.63.23 2.1 1.18 1.4 1.14-.16.05 1.16.88 1.28.68-.1 2.27.57-.58 1.08.36 1.9-88.94-.45h-10.92l-7.52-.06v7.54l-.08 41.77-.07 21.2.15 14.61-.72-.12-.16 1.36-.31.48-1.22-.45-.77-.86-1.09.13-.79.66-1.22.01-1.06-.68-.6.15-.72-1.35-.91-.28-.6 1.07-.52.26-1.41.1-.4.54-.9.2-1.32-.82-.31 1.2-.65.7-1.61.44-1.1.55-1.21-.18v11.53l-.06 1.65.18 6.68-.37 12.91-.11 1.3-.63 13.42 3.03.08.02 9-.27 4.41-.44 22.8v9.1l-11.8-.01-38.56.05v-13.49l.04-.39-.04-25.07-.01-23.2.54-.17 1.34.55.73-1.96.83-.9-.22-.74.06-1.43-.9-1.22-.47-1.6-.84-1.06-.6-.2-.93-1.03-.7-.33-.86.21-1.02-.11-1.85-.5.05-1.45-.5-1.2-.38-.17.54-1.28.1-1.4-.41-.47-.48-1.27-1.54-1.51-.22-.93.57-.7-.14-.91.9-.42.1-.87.9-.92-1.05-.89-.46-1.91-.74-.6-.25-2.62.5-.45.22-1.23-.67-.67-1.95-.37-1.76-1.13-.22-.95-.59-.88-2.73-.77.58-1.03-.68-1.56-.35-1.37.65-.28.01-1.02.9-.2.87-.75 1.14-.11 1.4 1.1.94.16.93-1.35.77-.57-.2-1.59.4-.9-.47-.8.37-1.01.87-1.13.83-.02.66-1.27-.23-2.02.92-.11.7-.49-.84-1.66-1.07-.55-1.25-1.25-1.6-.19-.85.45-.54-.23-.78-1.4-.04-.8-.68-.96.54-2.45-.48-1.55-.07-1.6-.76-1.23-.5-.05.17-1.13.53-1.1.56-.46.34-1.46-.28-1.6-.53-.86.2-.94-.52-.86-.3-1.1-.04-1.2-.39-.98-.03-1.87-.74-.48.25-1.85-.17-1.49-1.04-1.7.12-.51-.57-1.63-1.35-.34-1.63-1.26-.78-2.15-1.06-1.28-.3-1.13-.38-.34-.05-1.15-.77-1.4.3-1.39-.5-1.23.78-1.7-.68-1.18-21-.01-.97-2.27-9.5-14-3.61.03-.25-1.34-1.05.01v-1.33h-.67l-.05-.79-4.56 1.47-2.67-1.51.04-3.55h-2.94l-.03-2.65-4.97-.03-2.5-2.3-4.82-6.23-7.58-12.93.92-.2.57-.8.02-4.18.16-2.6-.1-6.02h-14.47l-25.83.07-.03-29.4.09-.07 17.44-7.36 3.62.03 7.42.15.23-.5 8.02-.01 8.54.02 6.53-.01.67-.42.59.44 9.02.03.54-.56.8.48 9.22-.12 1.57-.1.93-1.36h3.32l.03-2.85 1.34-1.38.08-13.5.07-16.53 2.11.43 1.33.71.55.85 1.35.78 1.2 1.53.85-.18.3-.46.98-.5.07-.73.71-.02.72-.67.17-.83.95-.69.78.54.44-.59.99-.33.84-1.15.53-1.2 1.24-.77.55.21 1.5-.6.93-1.02.3-1.39 1-.15.57-1.38.75-.15.68-.57-.28-.95 1.14-1.16.35-1.27.5-.09 1.41-1.95.78.2.65-1.48.94-.37.3-.71.7.08.97-1.3.91-.48 1.02-.13 1.46-1.63 1.52-.48.8-.93 1.49.56 2-.7-.08-2.25 1.07-.74 1.07-.11.13-.9.97-.44.98-1.42.57-.47 2.11-.3 1.03-1.36.48-1.77.8.3.58.84 1.6.11 1.77-.41 3.12-2.13-.2-2.63.88-.2.35.38h1.01l2.07.48.83-.62.43-1.4 1.75-.95-.1-1.23-2.04-.74-.4-.7.12-1.09-.33-1.03-.76.43-.67-.24-.63.38-1.17-.9-2.32-.49-.33-.54.3-.77-1.09-.34-.9.74-.69-.45-.65-1.04-.7-1.75.49-.94 1.67-.52.11-.49.94-1.07.7-.47.25-.98.89-.34.3-2.63-.36-.68-45.96-.01h-35.21z"/>
    <path region="10" short-name="6" long-name="State Senate District 6" value="1" d="M.04 596.18h97l.07-.4v-30.24l25.82-.06 14.48-.01.1 6.01-.17 2.6-.02 4.2-.56.8-.92.19 7.57 12.93 4.82 6.22 2.5 2.3 4.97.04.04 2.65h2.93l-.03 3.55 2.66 1.51 4.56-1.47.05.8.66-.01v1.33h1.06l.25 1.33 3.61-.02 9.5 13.99.97 2.27 21 .01.68 1.18-.79 1.7.5 1.23-.3 1.39.78 1.4.05 1.14.39.35.3 1.13 1.05 1.28.78 2.15 1.63 1.26 1.35.33.57 1.64-.11.5 1.03 1.71.17 1.48-.25 1.85.74.49.03 1.87.4.98.03 1.2.3 1.1.52.86-.2.94.53.87.28 1.58-.34 1.47-.56.46-.53 1.1-.17 1.13.5.05.76 1.23.07 1.6.48 1.55-.54 2.45.68.96.04.8.78 1.4.54.23.85-.45 1.6.2 1.25 1.24 1.07.55.83 1.66-.7.48-.9.12.22 2.02-.66 1.27-.83.02-.87 1.13-.37 1.01.47.8-.4.9.2 1.6-.77.56-.93 1.35-.94-.15-1.4-1.11-1.14.11-.87.75-.9.2v1.02l-.66.28.35 1.37.68 1.56-.58 1.03 2.73.77.59.88.22.95 1.76 1.13 1.95.37.68.67-.23 1.23-.5.45.25 2.62.74.6.46 1.91 1.05.89-.9.92-.1.87-.9.42.14.9-.57.71.22.93 1.54 1.51.48 1.27.41.47-.1 1.4-.54 1.28.39.17.49 1.2-.05 1.46 1.85.49 1.02.11.87-.21.69.33.94 1.04.59.2.84 1.05.46 1.6.9 1.22-.05 1.43.22.73-.82.9-.74 1.97-1.34-.55-.54.16v23.2l.05 25.08-.04.4v13.48l38.55-.05h11.81v-9.09l.44-22.8.27-4.4-.02-9-3.03-.1.63-13.41.1-1.3.38-12.9-.18-6.7.06-1.64v-11.53l1.22.18 1.09-.55 1.6-.45.66-.68.31-1.2 1.33.8.89-.2.4-.53 1.4-.1.53-.26.6-1.07.9.28.72 1.35.6-.15 1.07.68h1.22l.8-.67 1.08-.13.77.86 1.22.45.31-.48.17-1.36.71.12-.15-14.6.07-21.2.08-41.78v-7.54l7.52.06h10.93l88.93.45 22.63.1 1.73-.28.94-1.16 1.62-2.64-.6-1.03.52-1.2.92.5 1.26-.63 1.8.75 1.6-.17.24 1.05.77.6-.06.96.89 1.38.7.26.25 1.36.43.6 1.35.28.43-.17 1.55 1.86.45-.1 1.37 1.26.16 1.1 1.26.6.44.59.42 2.16 1.71 1.49 1.82.6.2.59.85.42.32.94.56.57 1.24.58.98 1.58.28 1.27.93 1.25.42 1.25.77 1 .27.77.74.94.74.41.47.92 1.16.7.5.77.58-.53.77.87.91.6.52 1.18 1.16.9 2.7.67.63 1.78.89 1.44-.05 1.42.83.86 2.23 1.06.38.54.88.4.41.66v1.08l.85.87.82-.07.59.78.56.13.49 1.42.9.37 1.56 2.61 1.1.62.87 1.39.26.91 1.02.62.91-.2.86 1.15 1.1.25.42 1.1-.87 1.25.4 1.59 1.54 3.3.7.31-.52 1.08-.02 1.92.84.98-.03.58 1.5 1.79 1.26 1.23.33 1.11.99.39.23 2.1 1.1.44-.02 1.09.68 1.66 1.38 1.23.06.75.74 1.28.11 1.16-1.03.88-.04.68.58.5 1.77 2.81.32 1.27.63.8-.5.87.15.58.9.3.99 1.32 1.48 1.15 1.2.24.25-.6 1.05-.48 1.34.24 3.17 2.9 1.14 2.79 1.7 1.53.43.97 2.13 2.51-.55 1.45-.07 1.35 1.2.3 1.28-.28 1.37.4 1.4 1.54.25 1.5.78.68.65 1.04-.29.8.32.66-.98 2.73.21.73-.38.95.23 2.6-1.74.85-1.08.8-.03.87.5.7.33 1.38-.13 1.56-.5.6-.56 1.3.26.65-.21 1.7.65 1.2-.32.69.2.82-.1 1.45-.4.84-.65.34-.32.65-1.9 1.1-.59 2.51.07 1.18.46.47.15.98-.27 1.04.18 1.3-.6 1.37-.78.9-.12 1.62-.65 1.75.12 1.76-.7 1.05-.31.9.8 1.6-.04.78-1.14.42.8 1.1.14 1.25 1.25 1.16 2.29-.5 2.18-1.55-.1-.62 1.05-1.14.8-2.08.56-.26 1.4-.11.7-.52 1.23.16.93-.38 1.22.68 1.2-.74.7-1.46.81-.27.56-1.17.87-.68.96-.04.42.32 1.79-.2.44-.76 2.27-.17 1.6-1.05 1.2-.3.1-.53 1.93-.18 1.52 1.54.9-.09.8.96.87.48 1.65-.34.12 1.25.33.55 1.26.18.25 1 .8.52 2.1-.07.95-.94.35.52 1.5.78 2-.09-.15.82-1 1.11-.1 1.04.31.38.13 1.6-1.5-.41-.28.65-1.8 1.5 1.86 1.48.52.04 1.16 1.28.23.82 1.12 1.17.8 1.71-.64-.02-.01 1.48.75.73.19 1.43.69 1.45.03.87-.4.71-.02 1.22.25.6-.73 1.44.45.75-.85 1.49.54.55.45 2.6-.27.87 1.83.27.9-.42.58 1 .37 1.5.39.38.05.9.8 1.46.05 1.76.48.9 1.06.69-.42 1.01-.84.52-2.52.27-.91 1.6-.6.34.22 1.3-.51.99.44 1.04-.45 1.49.28.6.16 1.94.25.38-.55 1.47.7 1.45-.52.93.18 1.24-.21.54.5 2.48-.28.84.11 1.1.95-.68.53-.04-.12 53.23-9.34.03-4.37-.08-24-.05-3.92-.02-25.68.06-12.97-.03-39.56.07-1.45.02-13.35.1-14.45.11-6.73-.03-6.35.08-6.62-.06-22.92.08-16.6.14-6.3-.05-12.72.14H312.1l-1.07-1.37H295.6l-30.11.02H150.97l-4.68.03-21.83.1-8.93.05-.18-.1-18.33.02-22.38.03-11.87.01-18.51.02-29.18.04-12.94-.03.01-20.17-.12-11.66v-4.39l.07-1.61-.01-6.9-.06-.1.03-22.4.38-22.43.18-5.52v-13.2l-.06-11.14.08-8.12.01-5.23-.06-1.76.09-9.03-.06-13.11.12-6.22-.3-12.11.04-4.53.16-29.94L.8 642.54l-.77-5.55z"/>
    <path region="11" short-name="7" long-name="State Senate District 7" value="1" d="M1.35 437.44h20.33l4.7.07 19.26-.06.45.03h23.73l6.33.05 16.55.04.5-.08 5.49.05 16.66-.04.27-.05 11.24.06h24.11l16.6.02 18.6-.01h45.97l.35.7-.3 2.62-.88.34-.26.99-.69.46-.94 1.07-.11.49-1.67.52-.5.94.71 1.75.65 1.04.69.45.9-.74 1.09.34-.3.77.33.54 2.32.5 1.17.9.63-.4.67.25.76-.43.34 1.03-.12 1.1.39.69 2.05.75.1 1.22-1.76.96-.43 1.4-.83.61-2.07-.49h-1.01l-.35-.37-.87.2.19 2.63-3.12 2.13-1.77.41-1.6-.11-.57-.83-.8-.3-.49 1.76-1.02 1.36-2.12.3-.57.47-.98 1.42-.97.44-.13.9-1.07.12-1.07.73.09 2.24-2.01.71-1.5-.56-.8.93-1.5.48-1.47 1.63-1.01.13-.92.47-.97 1.31-.7-.08-.3.7-.94.38-.65 1.49-.78-.2-1.4 1.94-.51.09-.35 1.27-1.13 1.17.27.94-.68.57-.75.15-.57 1.38-1 .15-.3 1.39-.94 1.02-1.49.6-.55-.2-1.24.77-.52 1.2-.85 1.14-.99.34-.44.58-.78-.54-.95.69-.17.83-.72.68-.71.01-.07.74-.99.49-.29.46-.85.18-1.2-1.52-1.35-.78-.54-.86-1.34-.7-2.11-.44-.07 16.53-.08 13.5-1.34 1.38-.03 2.86-3.32-.01-.92 1.35-1.58.1-9.23.13-.8-.48-.53.56-9.02-.03-.6-.44-.66.42-6.53.01-8.54-.02-8.02.02-.23.5-7.42-.16-3.62-.03-17.44 7.36-.1.07.04 29.4.01 30.24-.07.4h-97L0 578.08l.1-22 .3-13.8.46-14.54.25-22.9.14-23.14z"/>
    <path region="12" short-name="21" long-name="State Senate District 21" value="1" d="m570.9 349.57 1.57-.14-.38-.87 1.5-.67v-1h1.35l1.34.04.02.96.46.34 3.2.02.34.66 1.34-.21.1-1.42.4-.32 3.5-.02.04.66 1.1.01-.7.99-.32.99.62 2.01 1.2-.9 1.17-2.53.42-.3.76-1.31.11-1 .88-.68.19-.7 1.39.02 1.32-1.92.97-2.11h-1.82v-1.5l.68-.52v-.66l2.43.08.82-1.45 3.42-.01v2.7l.55.02 2.6-1.7.82-1.03h1.42v-.73l1.48-1.8h.76l.12-.95 1.18-1.9 1.87-1.86 2.45-3 .98-.54 7.05-.02.04-5.2 13.57-.01 15.98-.02 24.03-.02 24.33-.02 24.13-.06 16.36-.01 22.85-.03-.01.26-.1 42.88v5.4l-.08 32.13-38.7-.02-5.09.07-22.77.14-26.74.17-8 .1.25-13.46.23-18.55-.08-.24h-2.44l-.21 2.74-2.66-.01.04-2.75-7.86-.01-.1-3.57 2.71.06-.03-12.58v-16.22l-13.4-.18-.01 2.68-2.3-.02-4.47-.05v-1.36l-6.94-.07.01-1.3-1.78-.03v1.36l-1.58-.01-.02 2.03-3.86-.03-.08 9.46-4.46-.04v.67h-4.07v8.07l-5.46.04-5.26-.06v-2.68h-2.61l-.01 2.7-2.72-.02.02 2.69-3.36.02v-1.35l-1.84.01-.08-.67h-2.13l-.68.66H570.9l.05-1.82 1.28-.2-.03-2.88-1.3-.47z"/>
    <path region="13" short-name="23" long-name="State Senate District 23" value="1" d="m570.35 230.59.65-.93.38-1.56 1.5.54.01-8.91 2.71.03.05-4-.34-.2-1.8-3.02.31-.86 4.51-.02v-8.17l.08-2.71-.03-5.43.36-2.73 7.83.03-.03-5.45 2.81-.08 5.25.1-.02 10.83-.14 2.56-.09 9.6h-2.7l-.03 6.8-2.65-.02-2.53.17v1.66l.74.05.8-1 .96.25-.06 1.57 2.67.05.06 3.56.4-.78 1.32-.01.98.37.02 3.67h1.33v-1.36l1.32-.02.01 4.69.42.77 2.24.04.43-1.38.49-.77-.87-.62v-1.37l2.66.01v4.09l5.7-.2v5.42l-2.73.07-.03-1.08-.63-.24-2.99.12-.67-.66.07 3.38-.92.06-.43.56-1.02-.03.05.57-.38 2.99-1.38.04v1.31h-.64l.01-1.35-4.63-.05-.06 5.46 2.75-.01-.01 1.35 1.31.02v-1.37h1.28v2.71l9.49.05-.02 1.34h2.7l-.05 3.37.19 2.33-.36 1.76-1.13-.2-.84.24-.6 1.23-.97 1.16v5.17h-1.31l-.05 2.72h-1.32v-1.33l-1.9-.1-.78.37-.05 6.39 2.72.11-.02 4.05-2.7-.1-.51-1.38h-2.15l.03 5.35-2.63-.01.02 5.39 3.98.1.07 1.37 1.26.02-.02 8.73.4.42-.42.77-.01 3.53-2.26-.07-.44 1.41-1.33-.37v-.97h-1.34l.03 2.74h2.64l.04 2.44-1.25.29v.66h-1.43v.67h2.7l.03 10.77h-13.44l.04-8.15-2.47.05-2.93-.02v-2.67h2.6v-4.09h-1.9v1.34h-.67v-2.04l.6-.68-3.4.12-3.78-.14.01-1.34.48-.01v-1.34l-.85.15-.47 1.23.65-.02-.01 1.34-1.29-.01v-9.4l3.7-.08-.34-1.52 2.03.17v-1.4h2.46l.24-.67-1.34.02v-.63l-2.14-.07-1.95.08.05-1.92.87-.79 1.8-.24.02-3.83h-1.33v1.36l-1.25.01-.13-1.35-.67.45-.67-.44-.78.07-.54.93.02-13.19-6.75.08-.01-5.45-.71-.66-.01-2.06-5.86.1-.19-.14-.03-8.26 24.02.07-.27-1.7-1.23-3.1-.42-.6h-.83l-.21-1.37h1.22l.21-3.68.55-.38 3.45-.02.06-2.72 1.29.03-.02 1.35 1.5.03.04-4.06-3.92-.02v-.77h-.72l-.01.77h-.8l.03-5.4-1.4.02-.04-2.07h-1.26l.01-.68-3.13-.14-.95-.63-.52.55z"/>
    <path region="14" short-name="1" long-name="State Senate District 1" value="1" d="m586.54 187.2.02-13.54-.02-11.45.06-7.69-.04-21.35 12.55.01 3.67-.23 8.05-.12 13.82-.2 10.9-.07 14.58-.1 4.2.08 13.74-.02 22.3-.02h12.99l10.02.05 4.99-.04 15.94.04 1.44-.07 5.38.02 15.38-.07 22.64.05 13.42.02 1.53-.05 9.22-.02 3.56-.1 2.06.06 2.45.07 8.42-.01 32.55-.07 10.8-.04 2.92.07 5.22-.03 11.26.06 13.14-.08 4.84.03 12.27-.02 4.62-.05 9.16.07 9.8-.04 15.44.03 12.57.02 23.71-.03h10.44l.02 8.06.02 19.19.02 20.38-.03 19.32-.03 20.44.03 3.32v15l-.05 8.17v6.79l.08 4.06-.09 20.39-.01 15.07.03 27.05.03 28.48.03 1.18.06 18.85.07 17.73.09 13.31-28.4.39-.19-.03-12.08.2-6.68.06-11.88-.02-12.32.03-2.69.25-5.91.08-18.09.17-9.06.02-8.81-.12-12.55.02-10.74.15-.81-.03-17.25.33-17.04-.1-28.04.1-23.7-.05-9.88-.01.07-32.13v-5.4l.1-42.88.03-.26-22.86.03-16.36.01-24.13.06-24.33.02-24.03.02-15.98.02H613.58l-.03-3.37-.66.66h-2.02v-1.3h-2.66l-.02-4.09h-.67v-2.68l-.69-.67 1.35-.12v-.56l1.34-.13.01-2.58 5.4-.04v-1.26l-1.93-.02-.1-1.36h-.68v-1.34l3.12-.01.93.4v-3.12h-2.74l.04-11.12-.03-23.54.4-.44 4.02-.12 3.8.03-.02-7.42.28-1.53-.4-.8.12-1.63.9.02 1.75-1.48.02-2.02h1.33l-.14-1.7 2.48-.08.36-.96h-1.88l-.15-1.35-1.36-.34-.01-1.01.35-.34v-1.4l.97.36 3.6-.16 1.84.17.7-.69-.05-2.63-.61-.01v-1.36h-.5l-.1-2.53-.76.03.2 5.34-1.2-.34v-.47l-2.01-.03-.02 1.06 1 .4v.77l-1.92-.33.01-.6-2.13.37-.7-.44-.93-1.17-.16-2.05-.48-1.08-1.11-.05-.01-1.35h-.67v.88l-.61.47-2.42-.14-1.04-.3-.02 2.5h-1.4v.93l1.39.31-.01 5.23-3.03-.07.02 4.05-4.02.03-.03 1.35-2.68.03-9.49-.05V247h-1.28v1.36l-1.31-.02v-1.35h-2.74l.06-5.45 4.63.05-.01 1.35h.64v-1.31l1.38-.04.38-2.99-.05-.57 1.02.03.43-.56.92-.06-.07-3.38.67.66 2.99-.12.63.24.03 1.08 2.74-.07-.01-5.42-5.7.2v-4.09l-2.66-.01v1.37l.87.62-.48.77-.44 1.38-2.24-.04-.42-.77-.01-4.7-1.32.03v1.37h-1.33l-.02-3.68-.98-.37-1.32.01-.4.78-.06-3.56-2.67-.05.06-1.57-.96-.24-.8.99-.74-.05v-1.66l2.53-.17 2.65.01.03-6.78h2.7l.09-9.6.14-2.57.02-10.83-5.25-.1z"/>
    <path region="15" short-name="18" long-name="State Senate District 18" value="1" d="m559.82 298.51-.06 2.75.06 15.52h-.68v1.17h.65v.86h-1.32l-.01 1.34-2.32.01-.06.74.65.38 1.2-.12.54-.63.45.74h2.07l.6.33v1.05l-1.32.01.85 1.56-.82.23.2.68.7.1 1.72-.6-.01 3.13-2.67.27v1.14l-.01 2.24-1.34-.02v2h-1.35l-.02 2.8-8.42-.03 1.5-1.13.07-1.58 4.17-.01.04-3.7-1.7-.35-.2-1.33.54-.33-1-.92-3.53-1.79-3.53-2.08-.55-.11-.12 2.66-1.4.17-.36 1.16h-1.6v1.31l-2 .07-.38-.67-.01-1.34-1.32-.67-.01-2.59 1.3-.08-.06-1.34-.73.03-.09-1.35-1.04-.02.06-1.92-.36-.45-1.17.04.1-1.68.93-.7.15-2.5-.37-.52.11-1.03-.96-.02v-1.95l.55-1.1-.2-.79.05-2.24 4.97-.05v.37l3.66-.02.4-.34.21-1.33 1.26.33 2.53-.63v-1.02h3.1l1.02-1.36 2.35-2.66.29-.03v2.26l1.32-1.05.98.1z"/>
    <path region="16" short-name="26" long-name="State Senate District 26" value="1" d="m570.83 384.8 1.02.37 1.7.02.37-1.37 1.3.04v-.69h1.02l.01-3.36 1.33.35v1.68l-.65 1.33h.93l.12-1.13.46-.2h3.83l.66.35v1l1.34-.2v.89l.63.68 6-.01v-2.7h1.34v-2.03l1.28.03.06-2.64-.68.63h-.66v-1.7l.87.41 2.8-.04h.33v3.34l1.33 1.4-.04 1.96 2.52.2v.4l-1.03.54-1.75 1.31-1.05.38.01-1.2-.66-.29-.03 1.33h.6l.13 1.34-.34 1.2.26.98.64.48 3.36.03-.04 4.02-2.01.01v.72l-1.6.2.25 1.1h-1.01l-1-.6-1.75-.07.42-1.35h-1.3v-1.34l-7.42-.03-.88.67-.33-.67-2.16.02.17-1.34h-1.34l-.28-.55-2.38-.13V389l-1.01-.06-1.32.3v.67h-1.7l-.43-.5-.87-.22v-.63l-1.32-.01v-1.34h-.8l-.07.62.86 1.09-.33.65.32.95-.47.22-.2.97-4.72.02-.8-.04v-.71l4.54-.04-.14-.4-1.43-.64-.58-.97-1.57.97h-2.32l-.34-.53v-1.48h2.68v-.68h2.04l.67-1.3 1.26-.04v-.67z"/>
    <path region="17" short-name="8" long-name="State Senate District 8" value="1" d="m1.27 413.27.04-30.1.06-39.75-.03-34.2-.02-30.51v-41.44l.1-9.5-.06-.91.09-7.58.29-14.8-.03-6.44-.12-11.46.1-20.98-.24-32.91 23.64.1h36.05l14.88.1 3.7-.1h35.63l9.89-.06 19.19-.3h18.25l32.35-.02h9.37l36.78-.18 18 .05 17.82-.06 16.45-.06 20.35.15 57.55.11 9.62.18 9.28.38 14.76.26 3.85.02-.68 1.45.76 2.13.04 1.05.38.36-.05 2.35.46.67-.73 1.75.57 2.25.77.46.92 1.27.62.36.13.85 1.32.78.05.68 1.52 1.13.55-.05 1.02.54.88 1.24-.1.5.54 1.5-.68 1.57.78 1.31 1.13.72 1.5.47.6.75-.29.98 1.1.82-.38 1.16 1.22.51.68 1.4 1.64 1.03.72 1.06.93.14 1 .84 1.4 2.35.44 1.3-.07 1.1.81 1.15.64.04.78.75.07 1.53.67.4.09 1.88.46.54-.23.7 1 .36.18 1.16 1.14 1.7 1.38.84.81 1.12.36 1.1-.28.57.19 1.63 1.66 1.31.7 1.47-.2 1.04.5.57-.26.83.74 1.16.23 1.4.92.98.4.78-.13.73.4 1.5.77.87-.1 2.82.58 1.15-.27.85.7 1.42 1.7.55.3 1.15.05 1.56.92 3.6.89.34.59.8.14 1.44-.28 1.14.69 1.84.27 1.41-.4 1.72-.46.75.47 1.26.48.25.77-.77 2.44-.86 1.45.2 1.4 1.37.7 1.24.68.24.04 1.68-.54.92.12 1.2 1.09.44 1.35.17 2.52 1.32 1.05.02 1.18 2.18-.45 2.24.28.82-.86.94-.66 1.37.27 1.31-.4.38.27.94.6.4.41.82 1 .9 1.47 2.16.03 2.31.5 1.01.77.73-.02.6.79.79 1.24 1.83 1.13.74.38.77 1.33.78.76-.33.87.5.13.67.78.63.12.81 1.1.61 1.18 1.21 1.63.23.57 1.13-.63 1.16 1.03.51 1.24 1.17-.3 1.07.66 1.15-.2.9.63.36.19 1.04-.42 1.07.94 1.1 1.48.07.4.52 1.3.68.3 1.16.59.96-1.7-.06-.17.8-.75 1.47.15.76-.42.42-.3 2.03-.26.56.1 1.73-.67.85-.34 1.12.01 1.63.99.58-.15.63.5 2.08-.45.81.51 1.53.91.33.77.98 1.03.14.56.46 1.3.38.03 1.04.76.44.02 1.42.56.58-.39.71.32.9-.49.85-.66.17-.28 2 .65.99-.38.62.13 1.02-.23 2.5-.82.36-.1.96-.69.5-.62 1.25.37.84 1.57 1.57-.2 1.25-1.99 2.8.13.53-1.38.82-1.22-.07-1.12.43-1.68-.1-.18 2.1.07 1.4 1.05.63-.61 1.39.36 1.13-.5.73-.27 1.05.3 1.88-.16 1.14-.71.71.36.64-.2.93 1.47 1.38 1.01.25 6.7.07.45-.05 24.22.01 1.09-.78 1.13-.35 1.53 1.33 1.04-.07.42.52 1.08-.72.78.18 1.15-.59.01 4.09.03 5.51-.04 4.24v21.24l-.08 11.03.04 9.2-.1 5.58v7.46l-6.55.01-20.39-.4-5.1.21-13.93.33-.35-.02-15.05.1.56 1.69.49.5.93.18-.45 1.14.19 1.39-.9 1.43-.87-.27-2.04 1.11-.15.42-1.3-.76-.46-.78-.74.95-.56 1.89.99.84.5 1.3-1.02.52-.43 1.47-.83-.09-.84.96-.11 1.08-1.44.08-.43.42-1.34 2.11-.03 1-.59.84-.65.24-2.75-.18-1.26.15-.5 1.06-.28 2.19-1.35.44-1.16-.29-.72.38.26.85.6.81.85.52-.08.62.52 1.52-3.58 1.11-.72.48-.24.65-.99.05-.77 1.33-1.05.6-.73.8-.77.09-.65 1.01.23 1.19-.12 1.74-.62.7-1.81.62-1.32.18-1.73-.2-1.76-1.1-.82-.77-1.63-.2-1.59-1.51h-1.32l-2.03.24-1.58-.54-.71-.03-12.71.01-.19 1-1 .23-.8 1.34-.78.3-1.06.91-.94-.53-.68.6-1.01.12-1.24 1.06-.74.18-1.5-.29-.14-.81-1.04-.74-1.24-.17-1.18.53-1.75.21-.9-.15-1.78 1-2.72-1.29-.17-.57-.88-1.05-.35-1.24-.77-.07-.8-.53-1.28-.29-.64.38-.43.96-1.92 1.83-.7.35-8.95.01-1.6-.09-11.01.04-.08-13.8-1.96-1.1-14.21-.13-18.38-.1-4.7.01.11-7.67-3.38-.02v.24h-4.1l-2.04.13-1.28-.15-17.37-.04v-.53h-6.8l-.01-1.55-2.13.1-.05-2.42.04-10.67-.03-10.86-1.14.06-.68 1.06-1.66.66-.93.8-1.39.5-.51.89-1.82.6-1.2 1.55-1.5.93-.76.02-1.4 1.54-.72.38-1.18-.18-.7.32-.24.93-1.64 1.12-1.08 1.33-.73-.58-1.47-.43-.9-.05-1.05-.66-.84 1.03-.57.15-2.22-.32-1.16.1-.59-.75-.62.57-.05 1.18h-1.62l-.27-.51.03-1.24-.38-.69-1.44.01.26.87-.76.54.12-1.4h-2.2v.68l-2.15.9-1.27-.1-2.14.67-1.46-1.13-2.23-.58-1.36-1.18-1.93-.09-1.58.78-2-.83-1.78.71-.67-.32-2.49.07-.92-1.07.18-.78-.55-1.57-.77-1.18-.68.02.07 1.92h-2l-.64.68v2.46l-1.02.65-.4.67-.9.7-9.45 2.18-.6-.48h-1.11l-.03-2.02-.63.55-1.48-.26-.3.87-.9.23.08-1.12-.76-.02.01 1.7-.3.39-3.06-.25-2.36.2-3.44.82-4.3 2.18-.65-.43-.03-.67.75-.05-.38-1.28.96.02v-1.36h-1.34l-.02-1.4-.73-.07.03-1.52-.43-1.29-2 .02-.62.67 1.96-.01-.87 1.34v1.6l-.92.13-.4.55-.02 2.94-.65.1.1.94-2.04.12-1.36-.07-.77.42-8.14 3.73-2.25.61-2.38.83-1.85-.37-1.27.35-2.3 1.9-2.65 1.84-.97.21-4.97.54-.68.23-2.42 1.54-.94.47-.46.86-1.52-.9-.96.56.23.98v1.79l.62.1-2.35 3-1.88 1.7-1.22 1.68-2.55 1.81-1.2.72-1.1 1.07-2.78 1.3-2.4 2.26-.3.9-11.24-.06-.27.05-16.66.04-5.5-.06-.49.08-16.54-.03-6.33-.06H46.09l-.45-.02-19.25.06-4.7-.08H1.34z"/>
    <path region="18" short-name="9" long-name="State Senate District 9" value="1" d="M611.75 481.04v1.35l-.65 1.8.1 4.55.46 1.55.7 1.1.13 1.49-.35 1.6v1.46l-.9 1.36-.5.26-.89 2.9-.12 1.52.34 1.18 1.52-.65h1.56v1.32h-1.31l-.01 1.34 1.33-.02v2.67l8.02-.02-.05 5.3h1.76l-.49 1.23h1.3l.02-.67h1.33l-.02 2.02-1.42-.1-5.16.2-4.08.02-1.82.5-1.36.78-6.04.04-.27 2.28-.3.85-1.12 1.17-1.5 4.19.01 1.88-2.15.09-1.86 1.6-.03 1.03-.46 1.16-.83.7-.7-.5-1.34-.33v-1.55l-3.2.07v-1.35h-.63l-.1-2.68.12-1.33 2.16-.03.3-.65 1.33.02.03-2.62-6.91.02-.06-18.55-2.59.01-2.71-.33-2.67.08v-1.37l-3.1.06-1.13-.27-.87.48.04-1.71-.9-18.52h15.64z"/>
    <path region="19" short-name="28" long-name="State Senate District 28" value="1" d="M594.92 367.07h.65l.03-1.33h4.7l-1.34-.65-.01-1.93 2.67.26 1.33-.37.02-.6 2.6-.08h4.04v-.68l1.34.01v.91l1.08.43h4.25l.05-5.42h-4.02l.02-4.64 13.74.12-.02 1.8 1.53.02v-1.78l5.08.03.09-9.42 1.98.01.01-1.52h.77l.03-3.29 2.3.02v-2.68l13.4.18.01 16.22.03 12.58-2.7-.06.09 3.57-2.78-.08-.08 5.34-3.3.2.06 1.36.38.72-.09 1.3-.32.52.76 1.34.02 1.1-.4 1.22.08.98-.54 1.2-.06 1.12.32 1.07-.44 1.24-7.34-.11-16.04-.08-5.39.01.07-2.68h-2.67l.01-8.05-.57-1.3-1.09-.44-2.41-.22-1.73-.28-.9-.46-6.64.02-.66.16v-1.48l-.67-.29v-1.08l-.94.1-.67-.78.27-.67z"/>
    <path region="20" short-name="34" long-name="State Senate District 34" value="1" d="M570.9 358.99h13.26l.68-.66h2.13l.08.67-.08 3.36h-3.99l-.7.92-2 2.02-.6.88-1.25 1.25.26.99 1.23 2.15.36.3v5.62l-9.37-.03v-16.12l-1.35-.01-.33-.84.08-.5z"/>
    <path region="21" short-name="27" long-name="State Senate District 27" value="1" d="M592.15 393.94h1.3l-.42 1.35 1.75.07 1 .6h1.01l-.25-1.1 1.6-.2v-.72h2l.05-4.03-3.36-.03-.64-.48-.26-.99.34-1.2-.13-1.33h-.6l.03-1.33.66.3-.01 1.2 1.05-.39 1.74-1.3 1.05-.56-.01-.39 1.64.38.98 1.13.19 2.31h16.05l16.03.06 7.34.12.43-1.24-.31-1.07.06-1.13.53-1.2-.07-.97.4-1.23-.02-1.09-.76-1.34.32-.52.09-1.3-.38-.72-.06-1.36 3.3-.2.07-5.34 2.79.08 7.86.01-.04 2.75 2.66.01.2-2.75h2.45l.08.25-.23 18.55-.25 13.47-1.34.02-14.85-.2-10.42-.22h-7.95l-6.66-.02.5 1.08-.16 1.71-4.52-.05.01-2.72-1.34.02-.05 1.31-.63-.34-.81.32-1.66-.01-.9-.41.01-.88-9.27-.03h-9.25z"/>
    <path region="22" short-name="24" long-name="State Senate District 24" value="1" d="M583.99 320.12h5.59l.04 2.58 9.81-.07 1.17-.07-.19 1.14-1.24 2.08-.22.9-.83 1.1-.52 1.47 1.96 1.86-.78 1.78-1.88 3.23-.82 1.45-2.43-.07v.65l-.68.52v1.5h1.82l-.97 2.11-1.32 1.92-1.4-.02-.18.7-.88.67-.11 1.01-.76 1.31-.42.3-1.18 2.53-1.19.9-.62-2.01.32-1 .7-.98-1.1-.01-.04-.66-3.5.02-.4.32-.1 1.42-1.34.21-.34-.66-3.2-.02-.46-.34-.02-.96-1.34-.04-.02-5.37 2.7.03v1.2l.63.06.09 1.17 1.06.17.91-.72.13-1.91 3.9.02.34-1.25 1.48 1.26.18-1.32h-.66v-1.35h-1.33l-.03-3.22-.35-.82-.99-.04v1.36h-3.05l.28-.99-.03-10.47.08-2.1.94-2.47z"/>
    <path region="23" short-name="11" long-name="State Senate District 11" value="1" d="m607.81 530.15 1.02.48 4.27-.01 1.31-.46 1.32-1.1 1.47-.03.81-.66.63-.1 1.33.72 4.72.03-.62-.66v-.94h.94v1.55l.8.15.6.64.69-.77 1.89-3.25 2.52-4.75.2.05v3.31h.67l.66.66v1.33h-.67l-.66-.67-.02 2.99 1.33.33v.68l2.65.04-.01 2.8-1.98-.16v.67h-.87l.2 1.3-2 .01v.66H633l-.02 4.62 1.32.02-.03 7.95.03 3.26-.1 3.7.01 3.09-2.64-.13-.12-2h-1.88l.42-1.3-1.08-.06.25-1.25-5.46-.01v-4.3l-1.07-.95h-3.42l-.9-.84-.01-1.84-1.45-.1-1.21.18-2.14.01-.47.55-.19 1.48-1.1 1.04 1.02.66-.17 1.21-1.43-1.42-1.56-2.04-.6.06.06 1.18-1.91-.2h-1.94l-.1-1.15-1.2-2.37-.12-5.31-.63-.06-1.12-.8-.23-.63.31-1.55.54-1 .76-.22 4.35.18z"/>
    <path region="24" short-name="16" long-name="State Senate District 16" value="1" d="m556.22 394.3.7-.08.5 1.46.48.64 1.27.05 1.25-.34 1.04-.52 1.33.14.03-3.08h2.64v-.85l4.73-.02.2-.97.47-.22-.32-.95.33-.65-.86-1.09.07-.62h.8v1.34h1.32v.64l.87.22.44.5h1.69v-.66l1.32-.31 1.02.06-.01 1.58 2.38.13.28.55h1.34l-.17 1.34 2.16-.02.33.67.88-.67 7.42.03v1.34l-.04 6.72-19.36-.04-1.2.02-.38.52-.84.17-1.35 2.19-.9.96-2.19-.17-.72 1.83-2.5.02v-2.02l-.34-.75-.63-.35-1.55.24-.72-.16-1.44-2.66-.3-1.92-1.38-2.52z"/>
    <path region="25" short-name="31" long-name="State Senate District 31" value="1" d="M580.29 365.3v.48l1.3 1.28.7-.6h1.93l.15 1.26 2.55.04.01.67h5.31v-2.02l.67.66h2.01v2.7l-.28.68.67.79.94-.11v1.08l.68.29v1.48l-1.89.6-1.3-.8-6.8.03v5.2l-1.02-.28-2.34-.15-1.64-1.07-1-1.03h-.66v-5.6l-.36-.31-1.23-2.15-.26-.99 1.24-1.25z"/>
    <path region="26" short-name="29" long-name="State Senate District 29" value="1" d="m597.58 373.81 6.65-.01.89.45 1.73.29 2.41.21 1.1.45.56 1.3-.01 8.04 2.67.01-.07 2.68h-10.65l-.2-2.3-.97-1.14-1.64-.38-2.52-.2.04-1.95-1.33-1.41v-3.34h-.33l1-.35.67-1z"/>
    <path region="27" short-name="32" long-name="State Senate District 32" value="1" d="m566.9 381.4 1.33.43h2.67v-1.35h-1.33l1.34-1.34v-2.68l9.37.03.66-.01 1 1.03 1.64 1.07 2.34.15 1.02.29v-5.21l6.8-.02 1.3.79 1.88-.6.66-.17v1.35l-.66 1-1.01.35-2.8.04-.88-.42v1.7h.68l.67-.62-.06 2.64-1.27-.03-.01 2.04h-1.34v2.69l-6 .01-.64-.68v-.9l-1.32.2v-1l-.67-.34h-3.83l-.46.2-.12 1.14h-.93l.65-1.34v-1.68l-1.33-.35-.01 3.36h-1.03v.69l-1.29-.04-.36 1.37-1.7-.02-1.03-.37-1.17.09-.78-.39-.65-1.22-.67.11-.68-.5z"/>
    <path region="28" short-name="3" long-name="State Senate District 3" value="1" d="m586.82 592.62 1.22-.13h5.31l4.2.08 9.7-.03 11.42.08 12.44-.07 2.6-.04 28.4-.05 19.67-.13 15.6-.2 2.2.1 8.54-.06.95-.07h4.21l-.04.51-.07 46.85-.53.19.03 20.73.03.91-.15 8.67-.14 48.9-.26.05.1 15.86-9.06-3.32-2.62-.93-29.63-10.67-31.48-11.22-10.59-3.76-25.99 1.7-16.67 1.09-9.68.68-.29-.76-.85-.36-1.86-1.28.46-1.73-1.01-.05-.17-.66-1.43-1.33-.04-15.28-.03-17.33-.04-3.26.34-2.53-.07-20.28-.06-3.32 15.5-.05-.07-20.66v-8.33z"/>
    <path region="29" short-name="25" long-name="State Senate District 25" value="1" d="m557.52 336.2.02-2.8h1.34v-2l1.35.01.02-2.24.86-.46.2.68 1.6-.03v1.36l-1.31.02-.02 1.9.75.21.6-.8 2.61.03-.03-1.35h2.06v-1.35l.67.07V328l2.71.02.01-1.5-.7-.51v-1.12l.7-.56v-4.2l6.4-.04-.01-1.32 2.61-.02v-1.34h-1.34l.41-.85-.4-1.18h1.78v-.66l.92-.01.02-2.37.2-.33 2.47-.05-.03 8.15h-2.79l-.94 2.47-.08 2.1.03 10.48-.28.99h3.05v-1.36l1 .04.34.82.03 3.21 1.32.01v1.34h.67l-.18 1.33-1.48-1.26-.34 1.25-3.9-.02-.13 1.91-.9.71-1.07-.16-.1-1.17-.62-.07v-1.2l-2.7-.02.02 5.37h-1.35v1l-1.5.67.38.87-1.57.14.04-13.35-1 .24-.34 1h-1.34l.01 1.34h-1.78l-.91.18-1.35-.62-.08-1.2-1.14-1.01-5.48.04-.04 2.56 2.66.02-.31 1.36-.57.63h-1.79l-2.58-.3-.02-3.64z"/>
    <path region="30" short-name="33" long-name="State Senate District 33" value="1" d="m580.29 365.3 2-2.02.69-.93h3.99l.08-3.35 1.83-.01v1.35l3.37-.02-.02-2.7 2.72.02v-2.69h2.62v2.68l5.26.06 5.45-.04v-8.07h4.07v-.67l4.47.04.08-9.46 3.86.03.02-2.03 1.57.01.01-1.36 1.78.03-.01 1.3 6.94.07v1.36l4.47.05-.03 3.3-.77-.01-.01 1.52-1.98-.02-.1 9.43-5.06-.03-.01 1.78-1.53-.02.02-1.8-13.74-.12-.02 4.64h4.02l-.05 5.42h-4.25l-1.08-.43v-.9l-1.34-.02v.68h-4.04l-2.6.08-.02.6-1.33.37-2.67-.26v1.93l1.35.64h-4.7l-.03 1.35-.65-.01h-2l-.67-.66v2.01h-5.32v-.66l-2.56-.04-.15-1.25h-1.94l-.68.6-1.31-1.29z"/>
    <path region="31" short-name="14" long-name="State Senate District 14" value="1" d="m578.38 195.35.03 5.43-.08 2.71v8.17l-4.5.02-.33.86 1.81 3.02.34.2-.05 4-2.7-.03-.02 8.91-1.5-.54-.38 1.56-.65.93-1.53-.03v-.76l-1.36-.23v1l-2.71.03.01-1.36h-.69l-.01 1.35-3.32-.02v1.38h-1.48l-.38-1.34-.92-2.17.67-.53.01 1.43.67-.44 1.34.16v-1.16h1.29l.13-2.72-1.36-.02v-2.73h1.38v-1.37h1.33l.02-1.37-2.7.01-.01.68-1.34.02v.61l-1.02-.15-.8-1.9.09-1.28.61-.44.08-.85-.83-.72-.59.03-.5-1.4-.31-2.03-.58-1.2-.12-.98.61-.17.02-.88.95-.01.73 1.09 1.7-.08.04-4.02-.68-.02-.29-.72.1-1.13 1.63.33 1.02.88.96-.13.01-1.91 1.11-.27-1.1-1.18.14-10.8 1.29.17-.12.58 1.59.63 3.67.1-.29 2 .76.67z"/>
    <path region="32" short-name="10" long-name="State Senate District 10" value="1" d="m625.03 515.68 1.25.13.8.7 3.92.03.55-.5v2.28l.95.01 1.4-.96.48.99-1.42-.04-1.24 2.28-.02.44-.19-.05-2.52 4.75-1.89 3.25-.7.77-.59-.64-.8-.15v-1.56h-.94v.95l.62.66-4.72-.03-1.33-.72-.63.1-.81.66-1.47.02-1.32 1.11-1.31.46-4.27.01-1.02-.48-.1-2.15-4.49-.23-1.25-.28v-1.88l1.5-4.2 1.1-1.16.31-.85.27-2.28 6.04-.04 1.36-.78 1.82-.5 4.07-.03 5.17-.18z"/>
    <path region="33" short-name="19" long-name="State Senate District 19" value="1" d="m554.9 340.46 2.58.3h1.8l.56-.63.32-1.36-2.67-.02.04-2.56 5.48-.04 1.14 1.02.08 1.2 1.35.6.9-.17h1.8l-.02-1.33h1.34l.33-1.01 1.01-.24-.04 13.35v4.05l1.3.47.03 2.88-1.28.2-.05 1.82h-1.59l-.08.5-1 .15-.04.52-2.04-.07.07-.74-2 .02-1.32-.22-.7.7v-1.53h-.68l-.67 1.35h-.67l-.37-1.16-.88.5h-.76v-.73l.66-.46-.34-1.56-1.5.07-.67.69-.37-1.17-1.66.41-.7-.69-1.3.07-.3.66-3.74.02v-.68h-1.34l.03-1.68.89.35 1.7.02.72.64v-1.87l.6-.49.07-1.57.89-.1-.14-1.33.18-.67 1.52.27 1-.03.57-.55z"/>
    <path region="34" short-name="30" long-name="State Senate District 30" value="1" d="m568.08 404.48.9-.96 1.35-2.19.84-.17.37-.53 1.2-.01 19.37.03h9.25v2.52l1.33-.47.02 3.42 2.59-.03-.17.49-.04 4.02-.24.83-.94.03-.25 1.34.62.3.96 1.15v2.6h-1.32l-.04 2.66 4.65-.01-.97 1.31-1.92 1.6-.28.67-1.25 1.62-.41 1.05-1.06 1.54-1.3.26v-2l-.67-.68h-.66l.01-2.71-1.93-.02-1.41.34-.86 2-.15 1.15.23.82-.92.37-.76.63-2.19-1.16-1.83-.6-1-.1-2.03-.62-1.36-.22-2.85-1-.53-.44-.5-1.32-1.14-1.54-.68-2.26L579 415l-1.14-1.14-1.63.64-.42-.95h-1.11l.01 3.9.5.38-1.25 1.84-.9.81-.12-1.56-.95-.02v-.69l-.95-.02-.12 1.78-.23.7.3.76-.3 1.12.9.87.8.24-.34 1.48.18 1.07-1.11.99-.12.64-.65.6-.32 1.09-1.46.01-.44-.4-.03-1.55h-2.64l-.03-7.35h-.66l-.63-.67-.06-2.69-.2-1.06.82.06.67-.4.11-.66.75-1.04.2-2.15.9-.9.06-1.12-.3-1.04.52-1.57-.19-.94z"/>
  </g>
</svg>
