<svg map="usa" type="vt_lower" date="2022" variant="blank" title="Vermont 2022 House of Representatives" default-mode="split" auto-border-stroke-width="1" auto-border-stroke-width-limit=".5" original-source='["https://www2.census.gov/geo/tiger/GENZ2022/shp/cb_2022_us_sldl_500k.zip"]' candidates="[{&quot;id&quot;:&quot;0&quot;,&quot;name&quot;:&quot;Democrats&quot;,&quot;margins&quot;:[{&quot;color&quot;:&quot;#1C408C&quot;},{&quot;color&quot;:&quot;#577CCC&quot;},{&quot;color&quot;:&quot;#8AAFFF&quot;},{&quot;color&quot;:&quot;#949BB3&quot;}]},{&quot;id&quot;:&quot;1&quot;,&quot;name&quot;:&quot;Republicans&quot;,&quot;margins&quot;:[{&quot;color&quot;:&quot;#BF1D29&quot;},{&quot;color&quot;:&quot;#FF5865&quot;},{&quot;color&quot;:&quot;#FF8B98&quot;},{&quot;color&quot;:&quot;#CF8980&quot;}]},{&quot;id&quot;:&quot;2&quot;,&quot;name&quot;:&quot;Progressive&quot;,&quot;margins&quot;:[{&quot;color&quot;:&quot;#1c8c28&quot;},{&quot;color&quot;:&quot;#50c85e&quot;},{&quot;color&quot;:&quot;#8aff97&quot;},{&quot;color&quot;:&quot;#7a997e&quot;}]},{&quot;id&quot;:&quot;3&quot;,&quot;name&quot;:&quot;Libertarian&quot;,&quot;margins&quot;:[{&quot;color&quot;:&quot;#e6b700&quot;},{&quot;color&quot;:&quot;#e8c84d&quot;},{&quot;color&quot;:&quot;#ffe78a&quot;},{&quot;color&quot;:&quot;#b8a252&quot;}]},{&quot;id&quot;:&quot;4&quot;,&quot;name&quot;:&quot;Independent&quot;,&quot;margins&quot;:[{&quot;color&quot;:&quot;#DCDCDC&quot;},{&quot;color&quot;:&quot;#E3E3E3&quot;},{&quot;color&quot;:&quot;#EAEAEA&quot;},{&quot;color&quot;:&quot;#F1F1F1&quot;}]}]" version="1.1" xmlns="http://www.w3.org/2000/svg" viewBox="0 0 621.09 1000">
  <g regions="y" transform="translate(-189.45)">
    <path region="0" short-name="Bennington-4" long-name="Bennington-4 State House District" value="2" d="m243.45 845.16.2-3.9 1.94-52.06 3.1.02 20.92.9 16.66.45 1.57-.25 38.87 1.46-.4 10.25-1.43 30.42-25.66-1.06-2.4 2.08-2.14.34-1.07 3.64-1.3 2.88.06 6.64-1.66 1.93-2.18 4.4-.86 4.3-2.77.14-1.28-.57-.64 14.44-.58-.14-13.45-.43-26.72-1.27z"/>
    <path region="1" short-name="Chittenden-16" long-name="Chittenden-16 State House District" value="2" d="m262.85 232.92-.43 2.76-1.07 1.93-.44 2.99-5.19.2-.21-1.03 2.87-.54-.21-4.68.52-1.65z"/>
    <path region="2" short-name="Chittenden-15" long-name="Chittenden-15 State House District" value="2" d="m262.85 232.92.9.03 3.66 1.67 2.44-.69.27 1.57 1.66.3-4.35 5.37-1.19-.72-2.15-1.61-1.56.12-1.18-1.35 1.07-1.93z"/>
    <path region="3" short-name="Chittenden-5" long-name="Chittenden-5 State House District" value="1" d="m224.32 298.06 27.8-4.45 13.35-2.24 9.74-1.6 4.05 24.2 1.47-1.82 4.63-.6.29 5.35-.53 2.76.8 3.2-.57 5.25-9.05 1.55-11 2.15-10.74 1.4-12.43 1.47-13.55-1.8.76-4.41-.4-2.55-1.43-3.36-1.71-6.09-.62-3.74.07-10.48z"/>
    <path region="4" short-name="Washington-4" long-name="Washington-4 State House District" value="2" d="m449.23 335.33 12.11-24.05 3.04 1.55-2.4 4.46 3.19 1.68-1.42 2.77 1.61.87-1.41 2.9 2.7 1.41.51 1.53-.58 2.19 6.67 3.47-1.37 2.62 4.85 2.74-2.12 3.97-3.17-1.03-1.7.34-1.88 3-11.66-3.87.73-2.15-3.1-.9-1.32-1.15-.34-2.06z"/>
    <path region="5" short-name="Chittenden-13" long-name="Chittenden-13 State House District" value="2" d="m246.88 239.96 8.63-.19.21 1.03 5.2-.2.64 1.41 2.6.33-.27 1.73 2.78-.42.75 5.48-5.84-.35-.26 4.1-6.94-.45z"/>
    <path region="6" short-name="Rutland-3" long-name="Rutland-3 State House District" value="1" d="m252.57 588.31 11.34.3 29.26 1.52 1.16 5.5 2.84 13.34-4.87.17-.52 10.08-1.4 10.4-.92.16-38.81-1.2 1.5-34.59z"/>
    <path region="7" short-name="Rutland-Windsor" long-name="Rutland-Windsor State House District" value="1" d="m347.96 634.14 50.58-2.18-2.64 15.6-2.54 21.43 6.55 1.32-.7 5.51 17.34 5.35 17.46 5.58-.03 23.47-.34 5.98-.16 14.94-5.27-.36-.7 12.78-24.6-13.56-20.88-12.37 1.24 2.87-9.57-.25-.36-7.5-7.12-.32.21-7.19.45-3.58 1.04-26.25-6.7.57-11.55.23v-1.64z"/>
    <path region="8" short-name="Chittenden-11" long-name="Chittenden-11 State House District" value="1" d="m266.67 243.65-.43-3.2 1.19.72 2.8 1.5.77 7.12.5 4.29-3.11.41-2.71-1.28-4.36-.33.26-4.1 5.84.35z"/>
    <path region="9" short-name="Essex-Caledonia" long-name="Essex-Caledonia State House District" value="1" d="m686.87 128.7 7.18-10.25 8.64-10.7-.96-2.41 13.97-17.51 11.14 8.26 21.03-34.87 2.44 1.74 29.72 22.52-3.76 1.65-1.07 2.42.25 1.23 2.32 2.2-1.4 4.22.57 2.05-2.64 3.82-4.02.9-.84 1.12.02 2.11-2.25 1.94-.75 1.46-2.25 1.5-.34 2.37-1.2 1.2-4.8 1.7.27 1.75 1.28.67.58 1.88-.35 6.08 2.9.35-.53 2.56 1.94 1.46.02 1.1 4.31 5.94-.53 2.01 2 .8-1.2 2.29 1.17 3.52-.59 2.73 3.13 1.46-.25 1.72.58 3.25-.2 2.31 1.4 1.08.78 1.98 3.08.3 1.96-.9.36 2.44 1.2 2.48-1.7 2.02 3.5 2.9-1.38 4.65.91 4.99-.5 1.89-2.1.4.46 1.48 1.97.8.25 2.12 4.25 1.41.85 2.09-1.04 1.95-1.9 1.33-1.7-1.57-.94.77 2.12 3.08-.38 1.34-2.67-.28-.38 2.57-3.32.74-1.42-.76-4.26-.58-1.22.29-1.45 1.88-.32 3.11 3.1 2.84 4.05 3 .78 1.62-.81 2.3-2.65 3.71-3.56.74 2.26 2.83 1.33 3.13 1.9 1.8-3.85 2.6-1.52-1.25-.42 3.37-1.3 3.14-3.2.92-2.62-.72-2.12 4.7-2.27.51-.52-1.85 2.23-.89-.41-1.75-1.62.14-1.74 2.64-2.07 1.2-.2 2.76 2.06 1.99-1.43 1.68-2.84.04-1.2 2.36-.18 2.89-.87 3.15-1.18 1.62-4.98 1.52 1.03 2.48-2.1.6-.4 1.49-5.74 4.47-3.91 1.88-2.52-.58-2.66.1-2.41 1.4-10.86-25.4-7.13-17.66-11.8 7.64-6.46-4.89-.89 1.15-16.44-22.8 3.36-4.4-7.02-5.2-4.14-1.05.59-3.62-5.57-1.06-15.82-3.33 8.34-39.42 19.86 14.36 7.73-10.22 15.3-20.57z"/>
    <path region="10" short-name="Orange-Washington-Addison" long-name="Orange-Washington-Addison State House District" value="2" d="m356.86 432.77.22-7.84-1.58-7.92 4.19-.51 15.19 5.77 9.34 3.76 15.27-32.78 44.5 17.03 28.6 11.11 8.8 42.15-18.03 35.55-2.17 5.02-9.35-3.88-19.47-7.34-2.38-.81-11.25-4.52-.97 1.52-19.57-7.38 1.35-2.8-1.96-.8 1.39-2.86-5.63-2.58 1.5-3-2.07-.78 1.5-3-1.27-.62-3.92 7.25-2.04 4.19-2-.75-30.19-12.16 1.43-2.7z"/>
    <path region="11" short-name="Windsor-3" long-name="Windsor-3 State House District" value="2" d="m470.32 733.69 24.05 1.76 8.9.46 10.84.82-.12.23-1.15 2.6.52 1.74 1.94 3.15 1.55 1.43.68 1.77-1.95 4.15-1.95 8.86-4.32 8.41-4.3 2.15-1.09 2.4-.08 3.75 1.63 4.84-.27-.1-20.14-.69-15.9-.44.35-24.37.5-17z"/>
    <path region="12" short-name="Franklin-3" long-name="Franklin-3 State House District" value="1" d="m305.18 90.51-.68 2.97-3.54-1.98-3.16-.19-.98 2.06-1.5-.77 1.16-4.91 1.2.2 1.21-2.35 2.13 1.1.83-1.46 1.7.5v1.55l2.03.67z"/>
    <path region="13" short-name="Chittenden-4" long-name="Chittenden-4 State House District" value="1" d="m299.14 286.54 2.46-.33 14.5-2.06.82 5.5 3.9 25.84 1.22 8.09-16.84 2.39-.18-1.72-19.67 3.86.56-5.24-.8-3.2.54-2.77-.3-5.36-4.62.6-1.47 1.84-4.05-24.22 2.29.1z"/>
    <path region="14" short-name="Addison-4" long-name="Addison-4 State House District" value="2" d="m265.3 331.81 11-2.15 9.05-1.55 19.67-3.86.18 1.72 16.84-2.4-1.21-8.08 14 3.83 3.29 27.98 4.16 30.72 5.71-.62.6 3.21 3.28 26.66 1.57 10 2.06-.26 1.58 7.92-.22 7.84-16.67-.07-.03 1.17-23.2-1.13.14-3.7-9.8 1.23-.41-6.74-9.7 1.4-5.2-39.32-10.27-2.22-1.58-12.08-8.66 1.21z"/>
    <path region="15" short-name="Windham-9" long-name="Windham-9 State House District" value="1" d="m446.17 926.48 21.64.62 6.45.35-2.45 2.82-3.82 1.9-.81 4.1-.25 3.63.62 2.97-.74 3.49-2.92 1.08-2.34.28-3.88-.33.58-1.22-1.41-2.86.93-2.53-1.83-3.45.54-1.73-1.32-2.02-3.37 1.78-3.36-6.49-2.1-1.28z"/>
    <path region="16" short-name="Orleans-4" long-name="Orleans-4 State House District" value="1" d="m491.89 166.22 18.85-36.04 16.3-31.48 35.45 18.55-1.96 3.84 34.55 17.04.8.94-1.08 2.5-15.51 30.78-2.48 5.11-9.48 17.69-8.07 15.12-12.45-6.62-20.17-10.3-2.31-1.5 1.72-3.83-.84-.21-35.17-18.03z"/>
    <path region="17" short-name="Chittenden-1" long-name="Chittenden-1 State House District" value="1" d="m301.6 286.2 9.34-24.01 2.98 1.22 6.83-5.1 32.07 2-2.3 11.44-3.2 12.25-5.01 13.15-25.4-7.5-.81-5.5z"/>
    <path region="18" short-name="Franklin-8" long-name="Franklin-8 State House District" value="1" d="m296.82 93.37.98-2.06 3.16.2 3.54 1.97.68-2.97 1.67.32-.08 3.66-2.17 5.99-.88 6.35-3.18 1.44-6.47-3.27 3.48-6.38.6-3.35z"/>
    <path region="19" short-name="Orange-1" long-name="Orange-1 State House District" value="1" d="m494.76 399.63 3.86-9.3 3.83 2 7.6-40.37 15.84 7.42 20.05 9.13-2.31 11.57-5.93 28.2 33.55 9.47 10.46 4.04-12.95 30.14h-.32l-6.8 16.54-8.53 21.14-.73 1.45-32.44-10.22-2.02-1.03.77-4.55 3.1-30.07-37.93-18.49z"/>
    <path region="20" short-name="Caledonia-2" long-name="Caledonia-2 State House District" value="1" d="m506.72 223.72.42-.23 17.19-31.63 2.3 1.5 20.18 10.29 12.45 6.62 8.07-15.12 17.11 14.14 14.2 11.52-4.24 8.18-18.67 35.45-33.68-18.27-1.2-.89-1.43-.59-31.58-16.98-2.66-1z"/>
    <path region="21" short-name="Chittenden-3" long-name="Chittenden-3 State House District" value="2" d="m317.18 242.99 19.09-36.2 19.31-35.73 16.22 22.75 9.88 12.84 5.38 1.75-6.55 13.38 8.52 4.5-1.34 2.72-9.66 18.01-15.6-4.89-8.87 16.55-.74 1.64-32.07-2-3.95-2.2 1.4-1.66 2.86-.5.2-3.33-1.84-2.09 1.09-1.91-1.55-1.35-.1-1.48z"/>
    <path region="22" short-name="Caledonia-Washington" long-name="Caledonia-Washington State House District" value="1" d="m540.85 245.28 1.2.89 33.68 18.27L594.4 229l4.24-8.18 17.08 3.64 2.5 9.52 8.76 37.06.83 2.53-15.47 18.42-29.55 35.45-40.51-9.75 14.7-18.3-32.82-18.06-2.02-.87.29-.43z"/>
    <path region="23" short-name="Washington-6" long-name="Washington-6 State House District" value="1" d="m468.64 297.15 18.01-34.6.1-.81 19.31 10.12 16.08 8.59 2.02.87 32.82 18.05-14.7 18.3.06 11.68-5.81 10.86-.56.57-10.07 18.6-15.84-7.42-2.42-1.13-16.8-4.62 16.05-29.33-29.99-15.65z"/>
    <path region="24" short-name="Chittenden-17" long-name="Chittenden-17 State House District" value="1" d="m246.82 218.08 1.75.9.41-1.7 1.9-1.04 1.66 2.74-.31 2.8 3.3 1.8.25 2.23 1.15.51 2.03-2.05 1.45 2.34 2.85 1.96.35 3.69.13.68-.9-.02-4.14-.02-.53 1.65.21 4.68-2.87.54-8.63.19-5.85-9.69 1.49-3.1 4 .72 4.38-4.05.38-2.58z"/>
    <path region="25" short-name="Chittenden-19" long-name="Chittenden-19 State House District" value="2" d="m213.46 200.98 1.5-.22 13.59-3.91 6.2-2.45 5.7-3.41 2.51-2.17 3.54 2.04 5.87 2.2 3.61 2.32 1.76 1.68 2.14.38 8.53.32 2.1.39-.07 3.82-1.73 3.76-3.4 4.28-.83 2.6 1.3 3 2.78.33 2.45-.72 2.1 1.05-.3 3.02-4.25-1.33-2.09.68.57 4.57 1.13 2.1 3.36 2.03 1.06 2.03-5.82-3-3.16 5.89-.35-3.69-2.85-1.96-1.45-2.34-2.03 2.05-1.15-.5-.25-2.25-3.3-1.8.31-2.79-1.67-2.74-1.89 1.04-.4 1.7-1.76-.9-1.5.72-2.15-1.87 1.31-3.27-.86-2.1-2.7 1.08 1.26 2.3-1.78.91-.09.25-14.14 6.33-.3-4.57-2.04-1.4-.97-3.29-2.32-3.26.1-1.56-1.34-2.24-4.37-2.65z"/>
    <path region="26" short-name="Windham-5" long-name="Windham-5 State House District" value="1" d="m390.9 916.13 6.52-.02 1.55-4.1 1.87-7.9 2.11-7.6 2.63-12.88L411 861l8.01-32.48 5.16 1.7.37-4.27 2.84-.34 13.75-2.3-1.18 13.53 14.4.83-2.93 13.98-4.85 23.14-9.37-.38v2.32l2.93 2.66.63 1.55.17 3.47 1.98.65-.66 1.58 1.03 3.36-1.88 1.35-2.3.48-.77 3.99 3.64.14-1.25 5.34-1.57 8.28-1.12 4.36-1.06 2.5-7.8-.34-.37 9.76-1.02 31.08-38.5-.8z"/>
    <path region="27" short-name="Windham-4" long-name="Windham-4 State House District" value="1" d="m441.96 895.95 8.66.36.23-7.76.45-1.87 2.03.18 1.56-6.55.78-1.5 1.15-6.21 19.69.63 17.1.7 3.74-.03.8 1.36 3.9 2.9.28 1.85-1.56 2.19-3.54.47-1.5 2.8-.2 1.72 1.17 2.87-3.84 4.67-2.48-.84-3.43 2.73-3.66.79-1.15.7-3.32.44-4.33 3.53-.74 2.18 1.89 1.96.6 2.33-.15 4.87.9 4.33-.32 1.78-1.56 1.2-.43 1.9.04 3.95-.46.87-6.45-.35-21.64-.62-17.38-.63.38-9.76 7.8.35 1.04-2.51 1.13-4.36 1.57-8.28z"/>
    <path region="28" short-name="Orange-Caledonia" long-name="Orange-Caledonia State House District" value="1" d="m525.9 359.38 10.07-18.6.56-.57 5.8-10.86-.05-11.67 40.51 9.75 6.86 37.7 38.64 14.8 1.23.6-1 2.07.3 5.86 2.67 2.86-1.1 2.55-3 .6-1.86 1.76-.88 4.16.87 4.09 1.27 1.83 1.64-.15.97-2.68 2.88 1.6-.46 3.59-1.15 1.12-2.35.03-.28 1.27 3.5 1.97.44 1.3-1.95.87-1.58-1.2-2.97 1.13 1.12 3.37-1.43 1.88-1.2 2.8-3.25.13-.48 1.4 2.07 1.34-.96 1.15-4 2.53-.35 1.23 1.45 3.32-1.36 1.45-33.1-13-2.28-.97-10.46-4.04-33.55-9.47 5.93-28.2 2.3-11.57z"/>
    <path region="29" short-name="Franklin-2" long-name="Franklin-2 State House District" value="1" d="m266.21 57.75 29.27 14.9 28.7 14.29 4.06 2.25 6.74 3.62-17.76 7.9-13.5 6.12.88-6.35 2.17-5.99.08-3.66-1.67-.32.4-2.6-2.03-.68v-1.55l-1.7-.5-.83 1.47-2.13-1.11-1.21 2.34-1.2-.2-1.16 4.92 1.5.77 1.32 1.9-.6 3.35-3.47 6.38-13.78-7.08-4.6 6-.94 2.38-1.4 1.5-3.69 2.53-6.7 7.73-2.32 3.07-5.44 9.36-6.7-12.12-2.46-5.93-.29-4.66.94-4.02 3.2-7.28 2.74-4.47 4.06-3.77 4.19-1.75 2.4-5.12-.21-2.89-1.16-2.64.15-2.6 1.12-4.38.06-1.86 2.17-4.19z"/>
    <path region="30" short-name="Orleans-3" long-name="Orleans-3 State House District" value="1" d="m562.49 117.25 18.2-35.66-1.5-.76 12.07-23.12 13.15 10 24.6 18.81 12.2 8.87 8.72 6.57 11.19 7.88-18.98 25.88-3.74 5.41-32.39-22.58 7.89 28.67-17.84-8.6-.19.45-.8-.94-34.54-17.04z"/>
    <path region="31" short-name="Chittenden-20" long-name="Chittenden-20 State House District" value="2" d="m264.77 181.46 17.97 9.21 4.1 2.21 9.58 5.02-9.82 18.61-9.22 17.04-3.06.03-1.24.68.3-2.26 1.6-2.65-2.39.02-1.06-2.03-3.36-2.04-1.13-2.1-.57-4.56 2.09-.68 4.25 1.33.3-3.02-2.1-1.05-2.45.72-2.78-.33-1.3-3 .83-2.6 3.4-4.28 1.72-3.76.08-3.82-2.1-.4-8.53-.31-2.14-.38-1.76-1.68-3.6-2.33-5.88-2.2-3.54-2.03 2.95-4.13 1.23-3.32 4-.9 1.97-1.5 1.8.34 1.56 1.7 2.42 1.57 4.14.8z"/>
    <path region="32" short-name="Addison-5" long-name="Addison-5 State House District" value="1" d="m198.92 439.51 3.46-.14 41.99-5.7-.43-1.5-1.87-1.75-.56-5.09-1.2.19-1.1-7.66 1.63-1.12 3.87-.98-.1-1.63 3.78-.27 1.97-.62 1.62 1.3 7.23 3.84 3.33-.29 2.02.84.59-1.08 3.45 1.5 2.9 2.43 2.45-1.78-1.56-3.26-.67-3.92 1.06-7.68-1.16-7.56-1.93-2.65.55-1.92-.97-2.85-.04-2.8 2.42-5.56.93-.33-1.1-8.95 8.66-1.21 1.58 12.08 10.27 2.22 5.2 39.31-21.54 2.9.71 4.53-1.89 3.74.7 3.65-.48 2.4-1.94.94-2.8-2.87-2.69.27-20.83 3-.8 28.35-2.07.69-41.37 6.36-3.34.28-.22-1.08.96-6.94-.4-8.1-1.83-5.53 2.1-13.79z"/>
    <path region="33" short-name="Orleans-Lamoille" long-name="Orleans-Lamoille State House District" value="2" d="m453.8 102.03 1.1-1.43 4.83 4.17 14.42-23.6-2.55-40.82 1.53-.06-5.47-36.55 6.73.18 16.2-.45 10.13.15 14.97.86 16.6.43 12.12.8 5.73-.3 6.6.14 7.6-.2 4.7 8.43 1.72 14.26-2.39 1.4-2.29-.56-.33 1.69 1.22 1.83-1.66 3.18 1.38 1.02-1.25 1.68 17.38 13.23 1.49.86 6.95 5.34-12.06 23.12 1.49.75-18.2 35.67-35.45-18.55-16.3 31.48-18.85 36.04-36.6-18.79-1.18 2.35-20.29-10.02z"/>
    <path region="34" short-name="Chittenden-9" long-name="Chittenden-9 State House District" value="1" d="m271 249.8 4.01-.54-1.15-1.41-.56-4.26 5.22 1.66 2.96 1.99 2.95.18-.94 2.49-.05 2.27 1.16 2.36-1.9-1-5.12-1.51-.36 4.19-1.68.18-1.04-1.57-1.51-.15-1.26 1.49-.23-2.1z"/>
    <path region="35" short-name="Windham-2" long-name="Windham-2 State House District" value="1" d="m328.08 832.97.12-1.55 15.28.67 15.78 1.22 9.45.31 1.08-22.53 29.4 10.55L419 828.5 411 861l-5.42 22.64-2.63 12.88-2.11 7.6-1.87 7.9-1.55 4.1-6.51.02-13.53-.94-11.73-.69-14.42-.59-26.15-1.12.02-.2-.38-.3.75-16.98.79-22.8.8.05-.01-6.7.38-21.88.23-8.37z"/>
    <path region="36" short-name="Chittenden-14" long-name="Chittenden-14 State House District" value="2" d="m261.35 237.6 1.18 1.36 1.57-.12 2.14 1.61.43 3.2-2.78.42.27-1.73-2.6-.33-.65-1.41z"/>
    <path region="37" short-name="Lamoille-2" long-name="Lamoille-2 State House District" value="2" d="m407.26 106.98-.34-6.3 5.6-6.18 15.95.7 20.4.9-.99 2.04 5.93 3.9-19.99 37.72 20.3 10.02 1.17-2.35 36.6 18.8-1.85 3.55 35.17 18.03.84.21-1.72 3.84-17.2 31.63-.4.23-33.98-17.7-.65-.59 4.46-8.46-3.1-1.03-7.38-4.18-2.83 4.84-13.88-7-3.82 1.23-3.99-5.05-.15-1.17-4.06-1.45-1.02 1.97-2.86-1.39-6.38 11.52-8.4-1.86-6.27-3.08-.54 1.08-5.87-2.92 7.32-14.37-11.69-5.74 17.86-35.94-11.5-6.17z"/>
    <path region="38" short-name="Chittenden-25" long-name="Chittenden-25 State House District" value="1" d="m300.2 154 15.05 8.22 35.96 8.04 4.37.8-19.31 35.73-21.92-4.84-17.93-4.05-9.58-5.02-.82-4.53 2.04-6.24 1.33-5.34 2.85 1.54.53-4.65 1.42-5.37 1.23-.59.53-2.66 2.72-5.06.44-3.47z"/>
    <path region="39" short-name="Chittenden-8" long-name="Chittenden-8 State House District" value="1" d="m271.73 256.17 1.26-1.49 1.51.15 1.04 1.57 1.68-.18.36-4.2 5.12 1.52 1.9 1 2.6.83 3.78.5-1.92 5 6.2 3.37 2.99.38 1.61 2.01-3.33 13.69 1.48 4.74-7.44-9.77-7.92-2.92-22.16-8.43.06-.65 4.98.73.96-4.67 2.43.03 1.2 1.11 2.07-.3z"/>
    <path region="40" short-name="Addison-1" long-name="Addison-1 State House District" value="2" d="m267.26 440.48 2.69-.27 2.8 2.87 1.94-.95.47-2.39-.69-3.65 1.9-3.74-.72-4.54 21.54-2.89 9.7-1.4.42 6.76 1.63 34.71-35.17 4.85-1.15-6.91-3.73-6.1-.34-3.06-1.28-1.46.5-8.04z"/>
    <path region="41" short-name="Windsor-6" long-name="Windsor-6 State House District" value="2" d="m527.97 575.86 17.92 7.14-.2 4.06.91 2.17-.84 5.03-2.6 4.51-.38 6.52-3.83 1.91.05 2.72-1.61 2.37-.75 4.6 2.1 3.79-22.16-5.75-18.76-4.62.02-1.74 1.63-1.38 1.57-.2 1.75-2.04-.34-3.85 2.5-2.85 1.44.4 1.88 4 1.91.69 1.7-1.02 2.62-4.24.55-1.62 4.46-2.37.84-4.1-2.86-2.69-1.14-1.78 3.41-1.4 1.15-2.9z"/>
    <path region="42" short-name="Addison-3" long-name="Addison-3 State House District" value="2" d="m228.58 332.88 13.55 1.8 12.43-1.47 10.73-1.4 6.2 40.71 1.09 8.95-.93.33-2.42 5.57.04 2.79.97 2.84-.55 1.93 1.93 2.65 1.16 7.56-1.06 7.68.67 3.92 1.56 3.26-2.44 1.78-2.9-2.44-3.46-1.49-.6 1.08-2.01-.84-3.33.3-7.23-3.86-1.62-1.29-1.97.62-3.78.27.1 1.63-3.87.98-1.64 1.12 1.1 7.66 1.21-.19.56 5.09 1.87 1.75.43 1.5-41.99 5.7-3.46.14-.98-2.56-3.88-2.54-1.54-2.17-2.8-2.13-.27-1.06 1.81-8.08.87-7 4.07-8.76 1.57-5.82-.13-2.13-1.27-6.7 2.4-2.87 1.81-2.84 1.15-7.2 1-1.7-.57-2.4.48-1.84 1.95-2.4-.36-3.43 2.14-1.8.55-1.76 2.19-1.18 1.45-2.05 2.73-1.76 2.12-4.83.17-1.78 1.24-1.03.29-1.94 2.38-1.83-.29-1.55 2.03-.66 1.98-2.06 2.17.15 1.2-2.48z"/>
    <path region="43" short-name="Chittenden-21" long-name="Chittenden-21 State House District" value="2" d="m263.61 232.26 3.16-5.9 5.82 3.01 2.4-.02-1.62 2.65-.29 2.26-1.3 1.55-1.66-.3-.27-1.58-2.44.69-3.67-1.67z"/>
    <path region="44" short-name="Windsor-4" long-name="Windsor-4 State House District" value="1" d="m403.43 628.66 10.62-23.74 7.68-18.52 1.86-3.77-6.95-3.04 17.8-41.02 4.64 1.85 19.24 7.63 17.38 7.02 22.04 8.62 7.25 3.25 1.23 2.46 1.56.7 1.32-1.84 18.86 7.6-7.05 5.37-1.15 2.9-3.41 1.39 1.14 1.78 2.86 2.7-.84 4.08-4.46 2.38-.55 1.61-2.62 4.25-1.7 1.02-1.9-.69-1.9-4-1.43-.4-2.5 2.85.34 3.85-1.75 2.05-1.57.19-1.63 1.38-.02 1.74-2.57-.62-.86-.37-.78-2.66-3.66-.27-24.06-9.03-1.84-.8-.89 1.78-2.72-.87-19.17 43.57-2.25-.42-34.69-11.74z"/>
    <path region="45" short-name="Rutland-6" long-name="Rutland-6 State House District" value="1" d="M324.93 621.34h1.8l7.5-1.67 2.53-1.4.77 3.65-1.19.33.65 2.62 1.68 2.17-8.38 1.91-3.47-3.76-3.14-1.86z"/>
    <path region="46" short-name="Chittenden-Franklin" long-name="Chittenden-Franklin State House District" value="2" d="m286.89 147.02 2.59-3.9 4.26-2.06-.43 1.81 3.1 2.65 1.27 2.41 2.68.72.79 1.37-.96 3.97-1.08 2.52-.44 3.47-2.72 5.06-.53 2.66-1.23.6-1.42 5.36-.53 4.65-2.85-1.54-1.33 5.34-2.04 6.24.82 4.53-4.1-2.21-17.97-9.21.44-1.9 2.4-1.2 3.6-.2.14-2.13 1.02-3.47 1.45-2.63 3.64-3.74 1.12.77 2.94-1.92 1.72 1.64-.22-3.56.8-5.5 2.5-7.78z"/>
    <path region="47" short-name="Rutland-5" long-name="Rutland-5 State House District" value="1" d="m336.76 618.26 4.56-3.41.5-1 1.89-.13.45 1.66-.33 4.18.28 6.25-5.44 1.23-1.68-2.17-.65-2.62 1.2-.33z"/>
    <path region="48" short-name="Windsor-5" long-name="Windsor-5 State House District" value="1" d="m398.54 631.96.62-4.9 4.27 1.6.9.22 34.69 11.74 2.25.42 19.17-43.57 2.72.87.9-1.79 1.83.8 24.06 9.04 3.66.27.78 2.66.86.37-1.83 2-2.23 4.42-15.4 35.37-1.5.44.11 2.59.65 36.58-40.98-5.86-.06 1.52-17.46-5.58-17.35-5.35.7-5.51-6.54-1.32 2.53-21.44z"/>
    <path region="49" short-name="Orleans-2" long-name="Orleans-2 State House District" value="1" d="m570.76 28.04 1.9-1.3 6.01-3.05 2.01-.52.75 1.15-.48 3.7.76 1.22 3.63-.03-.06 2.15 3.35-.97-.4 2.53-1.3.08-.01 2.92-1.87 1.72-4.14-.2-.47 2.6-.94 1.35.6 5.3 3.97 3.14-1.25 1.68-17.38-13.22 1.25-1.7-1.38-1.01 1.66-3.18-1.21-1.83.32-1.7 2.3.58z"/>
    <path region="50" short-name="Franklin-6" long-name="Franklin-6 State House District" value="1" d="m303.72 106.83 13.5-6.12 17.76-7.9-6.74-3.62 2.42-3.98-6.23-12.1-.12-2.85 2-10.57 1.22.31 50.28 11.26 1.53.39-1.57 7.69 19.03-.31 12.21.93 19.45-1.14.01 16.37-15.96-.69-5.59 6.19.34 6.29-2.92-.5-1.1 5.93-3.16-.6-1.83 9.68-1.89 1.3-4.03 21.95-18.13-9.05-12.92 24.55-2.59 2.26-.9 1.86-4.7.07-1.5-1.73-13.38-24.85-12.45-24.07-25.22-5.5z"/>
    <path region="51" short-name="Chittenden-10" long-name="Chittenden-10 State House District" value="1" d="m271.78 235.8 1.3-1.54 1.24-.68 3.06-.03 1.22.63 3.34-.76-1.26-1.44 2.11-3.06 1.2-.18-.9 1.46.17 3.1-1.05 1.1-.42 3.41 2.5 1.01.16 1.24-.53 2.1.51 5.26-2.95-.18-2.96-1.99-5.22-1.66.56 4.26 1.15 1.4-4.01.54-.78-7.12-2.79-1.5z"/>
    <path region="52" short-name="Addison-2" long-name="Addison-2 State House District" value="1" d="m267.26 440.48.5 3.79-.5 8.04 1.3 1.46.33 3.06 3.73 6.1 1.15 6.91 35.17-4.85-1.63-34.71 9.78-1.24-.13 3.7 23.2 1.13.03-1.17 16.66.07-.56 28.32-1.43 2.7-10.69-3.76-10.74 22.84-6.7 14.57 6.76 2.49-.03 8.27 2.31-1.22 4.14 17.76-9.35 5-8.7 4.26-3.07-16.26-.97-2-23.98 1.07-15.76.85-1.65-9.99-1.01 1.01-2.36-.25-1.52-2.16.87-6.47-1.67-2.34-2.41-.96-.5-1.75 1.56-1.44 1.37-4.5-6.03-.26-13.58 1.81-5.52-18.53.8-28.35z"/>
    <path region="53" short-name="Rutland-9" long-name="Rutland-9 State House District" value="1" d="m278.08 517.66 15.76-.85 23.98-1.08.97 2.01 3.07 16.26 2.53 13.28.89 2.4-.18 1.42 1.03 3.79-16.64.75-1.13 1.95-2.38-1.02-.91-1.63-2.27-.89-.82 1.95-16.12.93-7.6-38.12z"/>
    <path region="54" short-name="Bennington-3" long-name="Bennington-3 State House District" value="1" d="m242.23 869.77 26.72 1.27 13.45.43.58.14.64-14.43 1.29.56 2.76-.14.86-4.3 2.19-4.4 1.65-1.93-.06-6.64 1.3-2.88 1.08-3.64 2.13-.34 2.4-2.08 25.66 1.06 3.2.52-.42 2.64-.23 8.37-.38 21.88v6.7l-.8-.06-.78 22.8-.75 17 .38.29-1.14.11-30.74-1.03-5.15.07-6.79.65-40.5-1.48z"/>
    <path region="55" short-name="Washington-Chittenden" long-name="Washington-Chittenden State House District" value="2" d="m316.92 289.65 25.39 7.5 5.02-13.15 3.2-12.25 2.29-11.44.74-1.64 8.87-16.55 15.6 4.9 10.63 3.24 12.37 4 14.37 7.8 20.64 11.81-5.3 9.88 2.5 1.36-1.67 2.89 2.6 1.17-3.6 7.1-2.05-.98-5.4 11.09-3.08-1.72-3.59 6.97-2.6-1.1-.6-1.54-2.1-1.71-2.24-.46-1.13-1.85-3.15-.39-2.93-2.6.42-3.24-1-.89-2.34.1-.85-3-7.27-2.2-1.42-2.06-2.21.8-1.03-.89-3.03 1.26-1.7-1.31-1.27.57-7.37-2.72-8.98 18.93-6.8 18.36 3.45 1.08-3.6 10.45-9.17 25.77-3.63 9.99-1.62 5.04-4.17-30.72-3.28-27.98-14-3.83z"/>
    <path region="56" short-name="Rutland-7" long-name="Rutland-7 State House District" value="1" d="m330.87 610.21 3.83-.3.74 5.73-1.67.6.45 3.43-7.49 1.67h-1.8l.51-1.9-.37-9.17z"/>
    <path region="57" short-name="Washington-5" long-name="Washington-5 State House District" value="1" d="m436.04 273.87.57.35 32.03 22.93 8.26 4.08 29.99 15.65-16.04 29.33-12.07-3.3-.38.13-1.51 1.41-2.28-1.01 2.12-3.97-4.85-2.74 1.37-2.62-6.67-3.47.58-2.2-.5-1.52-2.71-1.4 1.41-2.91-1.6-.87 1.4-2.77-3.17-1.68 2.39-4.46-3.03-1.55-12.12 24.05-5.07-2.86-1.06-1.74-2.27-1.26-3.95-1.6-2.32.23-.78-3.13-2.54-1.82-.2-1.4-3.35-.9-4.72-3.32-.11-5.21-1.45-1.13-3.03-.33-1.93.77 3.59-6.97 3.09 1.72 5.39-11.09 2.05.98 3.6-7.1-2.6-1.17 1.67-2.9-2.5-1.35z"/>
    <path region="58" short-name="Windham-3" long-name="Windham-3 State House District" value="2" d="m451.4 851.63 10.29.55 5.07-24.53-.4.03.4-39.94.4-6.5 2-.26 15.9.44 20.14.7.27.1-2.12 6.04-.02 1.63.9 5.4-3.96 4.44.27 1.43 1.79 3-.36 1.83-2.41 2.53.14 4.65.17 2.67-1.57 2.43-.1 1.28 1.54 3.3 3.48 1.34-.63 2.42 3.13 4.54.1 2.4-.69 1.8-1.8 1.63-.78 2.28 2.47 6.13-.31 2.11-2.84 4.47-3 3.4-2.86 2.61-1.11 2.05.46 2.22 1.77 2.94-.86 5.23 1.06 3.44.02.05-3.74.02-17.1-.7-19.7-.63-1.14 6.2-.78 1.51-1.56 6.55-2.03-.18-.45 1.87-.23 7.76-8.66-.36-3.65-.14.78-3.99 2.3-.48 1.88-1.35-1.03-3.36.66-1.58-1.98-.65-.17-3.47-.63-1.55-2.94-2.66v-2.32l9.38.38z"/>
    <path region="59" short-name="Chittenden-2" long-name="Chittenden-2 State House District" value="2" d="m284.43 247.42-.51-5.26.53-2.1 3.63-.65 3.82-2.9 4.4 4.67 1.34-2.95 1.5-.68 1.35.88 1.52-1.33 1.88-.28 1.77 1.52 2.28.43 1.38 2.16 1.53-1.29 1.02 1.94 4.13.36 1.18 1.05 1.68.8.1 1.48 1.55 1.35-1.09 1.91 1.85 2.1-.21 3.33-2.87.5-1.4 1.65 3.96 2.2-6.82 5.1-2.99-1.22-9.34 24.02-2.46.33-1.13-1.48-1.48-4.74 3.33-13.69-1.61-2-2.98-.4-6.2-3.36 1.91-5-3.78-.5-2.6-.83-1.16-2.36.05-2.27z"/>
    <path region="60" short-name="Windsor-1" long-name="Windsor-1 State House District" value="2" d="m495.25 609.69 2.57.62 18.76 4.62 22.15 5.75-.5 2.43-.85.36-5.52 5.06-4.4 1.77-2.98 1.73-2.13 2.62.09 3.06-.87 1.07.45 4 .25 6.1-.92 2.47-1.82 3-1.61.38-1.37 6.06.71 2.33 3.63 3.39 1.22 2.98-.26 5.77-.87 2.56-2.21 2.35-.35 1.6.65 6-1.6 5.5-.25 4.17-.02.1-2.9-.62-15.48-2.19-14.29-1.51-9.48-2.13-.65-36.58-.11-2.6 1.5-.43 15.4-35.37 2.23-4.42z"/>
    <path region="61" short-name="Essex-Orleans" long-name="Essex-Orleans State House District" value="1" d="m625.87 4.57 8.8-.18 11.52-.48 12.44-.21 10.13.25 46.44-1.63 23.79.01 25.83-.57 15.5.07 18.73-.36 11.5-.12-4.38 2.73-.66 2.3-2.52.46-2.61-1.18-2.33-1.9-3.2 1.76-3.26 1.04-3.6 3.26-.77 3.27.65 1.73L791 20.2l3.27 3.19.44 2.38-.32 2.66-.99 1.17 1.28 2.65-.68 3.69 1.15 3.14-.63.84 3.45 3.5 1.75 3.61.91.9-1.1 1.83-4.59 5.17 1.08 1.2-2.54 2.5-1.45 2.5-1.74 1 .04 1.53-1.76 1.79-3.52 1.48-1.33 2.07.7 2.1-1.8 2.17-.7 2.15 1.52 3.78-1.98 1.9-1.44 4.37-29.72-22.52-2.44-1.74-21.03 34.87-11.14-8.26-13.97 17.5.96 2.43-8.64 10.7-7.18 10.24-25.76-18.86-11.18-7.89-8.72-6.56-12.2-8.87-24.6-18.82 16.38-22.19-9.49-7.1 10-.3z"/>
    <path region="62" short-name="Orleans-1" long-name="Orleans-1 State House District" value="1" d="m625.87 4.57-4.57 33.54-10 .3 9.49 7.1-16.38 22.2-13.15-10-6.95-5.34-1.49-.86 1.25-1.68-3.97-3.14-.6-5.3.94-1.36.47-2.6 4.14.21 1.87-1.72V33l1.32-.08.39-2.53-3.35.97.06-2.15-3.63.03-.76-1.22.48-3.7-.75-1.15-2 .52-6.02 3.05-1.9 1.3-1.73-14.26-4.69-8.42 27.14-.7 18.09.26z"/>
    <path region="63" short-name="Rutland-10" long-name="Rutland-10 State House District" value="1" d="m213 556.53 41.6-4.95-2.03 36.73-.42 5.68-1.5 34.6-.74 20.47-1.4-1.29-.1-3.04.56-1.49-1.24-1.3-1.9-3.52-3.38-3.05-3.26-.98-1.63-2.19-2.72.33.37-2.86-1.43-.97 1.16-2.27.31-4.35-1.82-3.25-.71-.34-.57-5.89-1.3-1.59-1.38 1.7-2.19-1.41-3.2.63-4.55-.07-1.71 1.55-3.45-1.12-4.38 1.01.8 1.6-1.91 2.82 1.15 2.86-1.52 3.23-1.98.53.56 1.91-1.44.74 1.21 2.26-.88 1.22.85 1.76-.52 1.6-1.75.36-.7 2.08-1.94.8-2.36-1.35-3.57-2.85-1.07-1.63-2.6-1.1-.53-2.83 2.74-5.43-.66-4.06 1.85-3.58-.15-1.19-3.02-4.83.45-3.55 2.43-2.3 1.02-1.98.3-2.51 2.05-4.89 1.44-6.64-.56-1.6 1-2.06 2.63-2.65 2.47-5.29 2.55-2.77 2.25-3.32.28-8.25z"/>
    <path region="64" short-name="Addison-Rutland" long-name="Addison-Rutland State House District" value="1" d="m198.84 479.16 3.35-.28 41.37-6.36 2.07-.69 5.52 18.53 13.58-1.8 6.03.24-1.37 4.5-1.57 1.45.5 1.76 2.42.95 1.67 2.34-.87 6.47 1.52 2.16 2.36.25 1.01-1 1.65 9.98.19 1.15 7.58 38.11 7.32 33.21-29.26-1.52-11.34-.3 2.03-36.73-41.6 4.95 2.62-4.8 1.26-3.38-1.3-2.08-.89-4.02-1.55-1.86-4.37-3.74-.6-3.15-1.57-3.19-2.22-1.77-.77-2.1 1.38-4.46 2.05-2.14 1.66-.9 1.37-2.6-2.75-3.19-.17-2.88 2.32-6.52-.68-2.67-2.26-4.66-3.9-5.28-1.59-6.12z"/>
    <path region="65" short-name="Caledonia-Essex" long-name="Caledonia-Essex State House District" value="2" d="m615.72 224.45 26.06 5.45 13.4 2.95 7.7-35.63 4.13 1.05 7.02 5.2-3.36 4.4 16.45 22.8.88-1.15 6.47 4.9 11.79-7.65 7.13 17.66 10.86 25.4-1.13 2.67-2.27-.24-2.07-1.96-3.02.04-4.07 2.87-3.8-.2-3.67 3.03-.36 1.32 1.13 1.95-1.12 1.15-1.69-.23-1.75.85-.43 2.85 1.05 1.29-1.22 2.26 1.22 4.44-2.02 1.93-4.54 1.23-1.42 1.06L663.03 255l-32.12 23.22-3.1-4.65-.83-2.53-8.76-37.06z"/>
    <path region="66" short-name="Rutland-4" long-name="Rutland-4 State House District" value="1" d="m326.27 594.12 19.87-1.14.77 15.04-2.87 2.82-2.22 3-.5 1-4.56 3.43-2.54 1.4-.45-3.42 1.67-.61-.74-5.74-3.83.31-.25-1.72-2.04-5.72-.04-3.04-1.09-3.44z"/>
    <path region="67" short-name="Lamoille-Washington" long-name="Lamoille-Washington State House District" value="2" d="m406.01 188.47 5.87 2.93.54-1.08 6.27 3.08 8.4 1.86 6.38-11.52 2.86 1.39 1.02-1.98 4.06 1.46.16 1.17 3.98 5.05 3.82-1.23 13.88 7 2.83-4.84 7.39 4.18 3.09 1.02-4.46 8.47.65.6 33.97 17.7-1.54 2.99 2.66 1 31.58 16.97 1.43.6-18.43 34.73-.28.43-16.08-8.6-19.31-10.11-.1.82-18.01 34.6-32.03-22.94-.57-.35 17.02-33.36.94-2.39-8.09-4.5-2.69-.6 1.31 2.48-.38 1.5 1.17 1.67-.38 2.81-3.38.36-1.78 1.03-2.59-.4-1.76-1.27-1.9 1-2.98-2.03 1.73-1.84 1.1-5.15 1.06-1.86-.24-2.7-1.73-2.7-13.2-7.29 4.8-9.47-12.6-3.33-6.14-2.8-.42.75-5.17-2.75 6.1-11.82z"/>
    <path region="68" short-name="Rutland-8" long-name="Rutland-8 State House District" value="1" d="m285.86 556.92 16.12-.92.82-1.95 2.27.9.9 1.62 2.39 1.02 1.13-1.95 16.64-.75 1.6 3.39 18.4 34.7-19.86 1.14-3.32.19-.15 2.27 1.72 1.05.23 4.02-1.04 1.11-1.73.1.51 3.92-2.55.03-.37 5.3h-2.32l1.06 2.82 2.12.53.47 1.53-1.37 1.47-4.03.08-1.87-1.9-1.3.15-.13-2.61 1.33-.04-.14-2.77-1.42.07-.52-5.18.93-.05-.72-3.47-.47-5.47H310l-.16-2.4-15.5.76-1.17-5.5z"/>
    <path region="69" short-name="Lamoille-3" long-name="Lamoille-3 State House District" value="1" d="m351.59 162.7 1.5 1.73 4.7-.07.9-1.86 2.59-2.26 12.93-24.55 18.12 9.05 4.03-21.95 1.9-1.3 1.82-9.68 3.16.6 1.1-5.93 2.92.5.75 19.27 11.49 6.18-17.86 35.94 11.69 5.74-7.32 14.36-.16.74-6.11 11.82-4.63 9.87-8.05-2.5-5.38-1.75-9.88-12.84-16.22-22.75-4.37-.8.03-3.95-1.11-1.68z"/>
    <path region="70" short-name="Windsor-Orange-1" long-name="Windsor-Orange-1 State House District" value="1" d="m439.08 540.42 7.06-11.81 15.32-24.39-.27-.11 2.17-5.02 18.03-35.55 36.53 16.27-20.56 39.69-.64.54-21.02 35.03-17.38-7.02z"/>
    <path region="71" short-name="Windham-1" long-name="Windham-1 State House District" value="1" d="m427.77 956.93 8.63.15 20.3.88 11.13.38 2.5-.13 1.83 8.36 6.69 6.08 2.98 4.6.16 2.28-2.63 2.55 1.14 2.07 1.6-.25 2.3-1.39.6-1.85 2.42-.21 1.96 2.97 1.74 1.04 1.08 2.32.9 5.05 3.8 5.45.78 2.72-18.32-.7-53.2-2 .6-11.93.06-6.4.54-16.82z"/>
    <path region="72" short-name="Bennington-1" long-name="Bennington-1 State House District" value="1" d="m239.58 952.59 9.16.16.28-.99 15.62.73-.14 1.08-6.47 13.24-.9 4.07 3.55-.74 5.22.22 1.85-2.38 1.8.54 1.74-.41 7.96 2.32 4.04.94.8-18-4.8-.45.78-20-.06-1.79 1.27-18.74 6.79-.65 5.15-.07 30.74 1.03 1.14-.11-.03.2 26.16 1.12.48 7.37-1.19 34.58-.7 17.83-.63 21.04-29.2-.85-37.66-1.02-38.5-1.04-3.6-.03-4.57-23.97 2.26-5.13-1.04-2.7.53-5.98 2.11.3z"/>
    <path region="73" short-name="Grand Isle-Chittenden" long-name="Grand Isle-Chittenden State House District" value="2" d="m219.24 2.6 29.52-.6 2.6-.26 15.34-.38-4.02 9.51-3.76 6.78-2.42 5.39-1.57 2.48-2.96 2.71-.57 1.93.94 3.67 1.16 1.61.41 2.22 2.15 5.52.73.77 5.7 3.01 3.26.23 1.27 2.21-.21 5.82-.6 2.53-.8 5.06-2.17 4.2-.06 1.85-1.12 4.38-.15 2.6 1.16 2.64.2 2.89-2.39 5.12-4.19 1.75-4.06 3.77-2.74 4.47-3.2 7.28-.94 4.02.29 4.66 2.46 5.93 6.7 12.12 31.69 16.53-.57 2.82-2.5 7.78-.8 5.5.22 3.56-1.72-1.64-2.94 1.92-1.12-.77-3.64 3.74-1.45 2.63-1.02 3.47-.15 2.12-3.6.2-2.39 1.2-.44 1.9-1.74 1.92-4.14-.8-2.42-1.56-1.55-1.7-1.81-.33-1.97 1.5-4 .89-1.23 3.32-2.95 4.13-2.52 2.17-5.68 3.41-6.21 2.45-13.58 3.91-1.52.22-1.82-1.78-2.24-3.5-.4-2.9-1.94-3.22 1.24-2 .33-2.54-1.22-2.5-.7-3.07-2.16-2.22 1.23-6.12-.28-2.35 2.6-2.26-1.46-1.9 1.64-3.16-.35-1.71 2.83-4.12-.83-1.18.51-3.89 1.22-.43-.92-2.81 1.53-1.2 1.25-3.08-1.47-1.35.29-12.44-.16-7.15.56-1.53 2.97-4.45 2.3-7.85 3.57-4.03.8-2.96-.72-7.03-4.64-5.23-1.03-1.77-3.84-2.7-1.78-1.9-1.27-2.47-1.29-.75-.6-3.12.48-5.33 2.48-2.39.9-1.9 2.76-13.57 1.3-3.22 2.63-3.03 2.12-1.48.67-1.35.16-2.86-.36-8.57.54-7.63-.26-2.38-1.9-2.04-2.56-4.53-.55-2.98 1.4-3.1z"/>
    <path region="74" short-name="Franklin-4" long-name="Franklin-4 State House District" value="2" d="m266.7 1.36 6.89-.18.99 2.87 3.48 1.77 1.9 3.28-.42 3.74-.94 2.85-4.3 4.3.74 3.16-.1 2.63 1.1 2.98 2.31 2.38 3.15 1.35 1.6 1.35 26.7 13.32 27.62-6.17 21.4-4.52 24.34 6.33 2.38.61-5.1 17.05-2.63 10.8L327.53 60l-1.22-.31-2 10.57.12 2.85 6.23 12.1-2.42 3.98-4.06-2.25-28.7-14.3-29.27-14.9.6-2.52.2-5.82-1.26-2.21-3.26-.23-5.7-3-.73-.78-2.15-5.52-.4-2.22-1.17-1.61-.94-3.67.57-1.93 2.96-2.7 1.57-2.5 2.42-5.38 3.76-6.78z"/>
    <path region="75" short-name="Orange-3" long-name="Orange-3 State House District" value="1" d="m465.83 377.36 16.58 6.57-1.45 3.43.5 1.54-1.59 5.09 8.54 3.24 3.34-.01 3.01 2.4-10.9 27.08 37.94 18.49-3.1 30.07-.77 4.55-36.54-16.27-8.8-42.15-28.6-11.1 13.39-31.76 7.1 2.4z"/>
    <path region="76" short-name="Washington-1" long-name="Washington-1 State House District" value="2" d="m440.83 329.47 2.27 1.26 1.05 1.74 5.08 2.86 2.94.29.34 2.06 1.31 1.15 3.11.9-.73 2.15 11.66 3.87 1.87-3 1.7-.34 3.18 1.03 2.28 1.01 1.5-1.41-4 10.96-1.79 4.9-6.35 17.04-.42 1.42-1.35 3.57-7.1-2.4-13.4 31.75-44.5-17.03-3.96-1.57 6.03-8.57-2.23-1.74 6.84-10.08-1.7-1.6 4.37-7.31-2.39-1.82 3.33-5.2 17.03 12.2 10.44-28.48 1.56-3.72z"/>
    <path region="77" short-name="Lamoille-1" long-name="Lamoille-1 State House District" value="1" d="m387.06 208.4 8.05 2.5 4.63-9.87 5.17 2.75.42-.75 6.14 2.8 12.6 3.33-4.8 9.47 13.2 7.3 1.73 2.68.24 2.7-1.05 1.87-1.1 5.15-1.73 1.84 2.96 2.03 1.91-1 1.76 1.28 2.59.4 1.78-1.04 3.38-.36.39-2.81-1.18-1.67.38-1.5-1.3-2.47 2.68.6 8.1 4.5-.95 2.38-17.02 33.36-20.64-11.8-14.37-7.81-12.37-4-10.63-3.24L387.7 229l1.34-2.72-8.52-4.51z"/>
    <path region="78" short-name="Chittenden-22" long-name="Chittenden-22 State House District" value="2" d="m284 228.74 2.43.69.9-1.88 3.56-.19 1.21 2.72 1.67.78 2.8.07 2.89-1.41 2.12.6-.88 1.66-.25 2.67-1.32 3.1-1.49.68-1.34 2.95-4.4-4.68-3.82 2.9-3.63.66-.16-1.24-2.5-1 .42-3.42 1.05-1.1-.17-3.1z"/>
    <path region="79" short-name="Chittenden-23" long-name="Chittenden-23 State House District" value="2" d="m277.38 233.55 9.23-17.04 1.02.88 1.51 4.25 1.4-.45 6.04 2.2 2.83 2.53 1.55-1.38 5.6-.32 1.98-.43 1.2 1.2 5.38 2.03-3.46 4.47-.25 5.07.32 1.75-5.52-.42-.55.45-1.77-1.52-1.88.28-1.52 1.33-1.36-.88 1.32-3.1.25-2.67.88-1.67-2.12-.6-2.89 1.42-2.8-.07-1.67-.78-1.2-2.72-3.56.19-.91 1.88-2.44-.69-1.2.18-2.11 3.06 1.26 1.44-3.35.76z"/>
    <path region="80" short-name="Rutland-11" long-name="Rutland-11 State House District" value="1" d="m321.86 534 8.7-4.26 9.35-5 26.83-13.96.2 8.05 11.18 4.52 2.42-4.3 10.62 4.35 1.64 5.57 2.3 1.11-1.22 3.23 1.66 1.18-11.41 25.03 4.83 2.32-5.06 10.58 37.83 13.98-7.68 18.52-10.62 23.74-4.27-1.6-.62 4.9-50.58 2.19-1.05-26.13-.77-15.04-18.4-34.7-1.6-3.4-1.04-3.78.18-1.41-.89-2.41z"/>
    <path region="81" short-name="Windham-6" long-name="Windham-6 State House District" value="1" d="m349.2 994.73.62-21.04.7-17.83 1.2-34.58-.5-7.37 14.43.6 11.73.68 13.53.94-1.63 40 38.49.8-.41 5.22-.54 16.82-.06 6.4-.6 11.93-38.84-1.47z"/>
    <path region="82" short-name="Bennington-2" long-name="Bennington-2 State House District" value="2" d="m240.79 910.91 40.5 1.48-1.28 18.74.06 1.8-3.6-.53-5.2.78-4.66-2.86-.17 3.29-2.84.42-1.02 4.82-1.27.95 1.05 2.28-.06 2.74 1.12 2.38 1.22 5.3-15.62-.74-.28 1-9.16-.17.85-25.7z"/>
    <path region="83" short-name="Bennington-Rutland" long-name="Bennington-Rutland State House District" value="1" d="m286.27 790.57.8-.61.97-8.6.55-15.79.04-16.5.56-40.4 26.34 1.18 4.87.44 8.9.7 36.92 1.44 7.12.32.36 7.5-.72 11.7-3.24.25-1.15 20.84 15.34.5.09 18.75-8.97-2.96-1.1 25.06-45.67-2.34-1.57-.27-38.87-1.46z"/>
    <path region="84" short-name="Washington-3" long-name="Washington-3 State House District" value="2" d="m474.4 354 5.7 1.87.27-.82 3.29 1 .26-2.09 3.15 1.02-1.19 3.6 2.11.7.27 1.44 1.77.59-1.28 4.32-.12 2.97-2.02-.7-.8 1.9-2.7-.85.35-1-3.33-1.14.35-1.27-2.83-1.08.12-1.17-3.83-1.77.5-1.93-1.84-.69z"/>
    <path region="85" short-name="Windsor-Orange-2" long-name="Windsor-Orange-2 State House District" value="2" d="m517.92 479.8 2.02 1.03 32.44 10.23 4.15 1.49 32.27 12.3.35 1.1-2.14 1.12-2.56.45-1.6 4.1 1.6 4.82.2 4.83-1.98 4.69.33 2.6 1.03 2.1-.2 3.4-1.87 1.7-1.36 3.7-3.29 3.38.12 5.86-4.7 3.27-3.26 6.22-1.18 1.48-3.42 1.25-6.1 4-2.31.22-1.1 2.56-3 3.12-2.33 3.94-2.32 2.2-1.81 6v.04l-17.93-7.14-18.87-7.6-1.32 1.84-1.56-.7-1.23-2.46-7.25-3.25-22.04-8.62 21.02-35.03.64-.54z"/>
    <path region="86" short-name="Windsor-Windham" long-name="Windsor-Windham State House District" value="1" d="m427.51 743.56.7-12.78 5.27.36 17.44 1.3 19.4 1.25-.3 5.92-.51 17-.36 24.37-2 .26-.39 6.5-.4 39.93.4-.02-5.07 24.53-10.28-.55 2.94-13.97-14.41-.83 1.18-13.53-13.75 2.3-2.84.34-.37 4.26-5.16-1.69-19.81-6.87-.61-4.57.97-5.72 1.55-1.76.43-2.51-.44-2.36 1.71-2.52 1.76-1.16 5.77-8.28-.7-2.9 1.25-3.47 2.04-1.32-.77-2.97 14.1 4.63z"/>
    <path region="87" short-name="Chittenden-12" long-name="Chittenden-12 State House District" value="1" d="m226.17 222.43 14.14-6.34.1-.24 1.46 2.52.7 3.57-2.5 4.51 1.42 2.11-.46 1.71 5.85 9.69 7.5 12.47 6.94.45 4.36.33 2.7 1.28 3.12-.42.23 2.1.46 4.02-2.07.3-1.2-1.11-2.43-.03-.96 4.67-4.98-.73-.06.65-1.97-.75.35-1.65-.84-2.08.29-1.47-.63-3.29-3.34-.52-.06-1.48-5.72-.63h-5.18l-1.27.35-1.79 3.63-5.7 1.2-.31-4.35-1.55-3.9.44-4.07-.36-5.6-1.43-4-.72-6.45z"/>
    <path region="88" short-name="Caledonia-1" long-name="Caledonia-1 State House District" value="1" d="m582.8 327.43 29.54-35.45 15.47-18.42 3.1 4.65 32.12-23.22 30.04 41.15-4.68 3.02-2.93.33-3.31 1.54-9.4-4.79-2.23-.4-2.52.83-2.41 1.98-1.27 1.96-1.98.8-3.07-.88-5.66.53-5.66-.42-1.1.56-.59 2.2-5.47 3.14-4.73 1.7-3.2-.95-1.18.86.29 2.1-.26 5.8-2.14 2.87-2.14 1.75-2.22.65-1.74 1.87-2.06 3.96-.94 2.61.4 1.35 2.7-.37-.82 2.5.44 2.86 1.82 4.37 1.22 1.27.7 2.44-1.79 5.47.34 3.14-.9 2.66-1.31 1.1.46 1.87-.63 2.47-1.42 1.53-.5 3.15 2.73 4.54 1.4 5.06 1.72 2.68 1.64.04-.38 2.03-38.64-14.79z"/>
    <path region="89" short-name="Windham-Windsor-Bennington" long-name="Windham-Windsor-Bennington State House District" value="1" d="m324.88 832.45 1.43-30.42.4-10.25 1.57.27 45.66 2.35 1.1-25.07 8.98 2.96-.09-18.75-15.34-.5 1.15-20.84 3.24-.25.72-11.7 9.57.25-1.24-2.87L402.9 730l24.61 13.56-1.26 43.17-14.1-4.63.77 2.97-2.04 1.32-1.25 3.47.7 2.9-5.77 8.28-1.76 1.16-1.71 2.52.44 2.36-.43 2.51-1.55 1.76-.97 5.72.6 4.57-29.39-10.55-1.08 22.53-9.45-.3-15.78-1.23-15.28-.67-.12 1.55z"/>
    <path region="90" short-name="Rutland-2" long-name="Rutland-2 State House District" value="2" d="m294.33 595.63 15.51-.75.16 2.38 1.19.01.47 5.47.72 3.47-.93.05.52 5.18 1.42-.07.14 2.77-1.33.04.13 2.61 1.3-.16 1.87 1.91 4.03-.08 1.37-1.46-.47-1.54-2.12-.52-1.06-2.84 2.32.02.37-5.31 2.55-.03-.5-3.91 1.72-.1 1.04-1.12-.23-4.02-1.72-1.05.15-2.27 3.32-.2 1.18 2.18 1.09 3.44.04 3.04 2.04 5.72.25 1.72-5.8.06.37 9.16-.51 1.9-1.25 2 3.14 1.86 3.47 3.76 8.38-1.9 5.44-1.23-.28-6.25.33-4.19-.45-1.66-1.89.13 2.22-3 2.87-2.83 1.05 26.13 1.7 40.42v1.64l11.57-.23 6.69-.57-1.04 26.25-.45 3.58-.2 7.2-36.94-1.45-8.9-.7 2.31-19.87 2.3-1.62.57-19-14.31-.65 4.97-33.24-13.46.24-5.6-27.18z"/>
    <path region="91" short-name="Windham-8" long-name="Windham-8 State House District" value="1" d="m457.67 947.4 3.88.32 2.34-.28 2.92-1.08 2.53 4.25.99 7.6-2.5.13-11.14-.38-.16-2.16 2.56-2.08.3-4.69z"/>
    <path region="92" short-name="Windsor-2" long-name="Windsor-2 State House District" value="1" d="m434 686.75.07-1.52 40.98 5.86 9.48 2.13 14.3 1.51 15.47 2.19 2.9.63-1.1 5.82-.04 1.85-1.16 8.25-2.94 3.31-.89 3.37.28 4.6.54 1.37 2.97 2 3.7.1.4 1.25-3.17 4-1.68 3.26-10.83-.82-8.91-.46-24.05-1.76-19.4-1.25-17.44-1.3.16-14.94.34-5.98z"/>
    <path region="93" short-name="Washington-2" long-name="Washington-2 State House District" value="2" d="m416.45 311.63 1.93-.77 3.03.33 1.44 1.13.12 5.2 4.72 3.34 3.36.89.2 1.4 2.53 1.82.78 3.13 2.32-.22 3.95 1.6-2.03 5.88-1.56 3.72-10.43 28.47-17.03-12.2-3.34 5.21 2.4 1.82-4.38 7.32 1.7 1.6-6.84 10.07 2.23 1.74-6.03 8.57 3.97 1.57-15.27 32.78-9.34-3.76-15.19-5.77-4.2.51-2.06.26-1.56-10-3.27-26.66-.61-3.2-5.7.61 1.6-5.04 3.64-10 9.16-25.76 3.6-10.45-3.45-1.08 6.81-18.36 8.98-18.92 7.37 2.71 1.26-.57 1.71 1.31 3.03-1.26 1.03.89 2.21-.8 1.42 2.06 7.27 2.2.85 3 2.34-.1 1 .9-.42 3.24 2.93 2.6 3.15.38 1.13 1.85 2.23.46 2.1 1.7.62 1.54z"/>
    <path region="94" short-name="Bennington-5" long-name="Bennington-5 State House District" value="2" d="m264.64 952.5-1.22-5.3-1.12-2.38.06-2.74-1.05-2.28 1.27-.95 1.02-4.82 2.84-.42.17-3.3 4.66 2.87 5.2-.78 3.6.53-.77 20 4.78.44-.79 18-4.04-.94-7.96-2.32-1.74.4-1.8-.53-1.85 2.38-5.22-.22-3.55.74.9-4.07 6.47-13.24z"/>
    <path region="95" short-name="Windham-7" long-name="Windham-7 State House District" value="1" d="m428.8 925.85 17.37.63.17 1.1 2.09 1.29 3.36 6.49 3.36-1.78 1.33 2.01-.54 1.74 1.83 3.45-.93 2.53 1.4 2.85-.57 1.23 1.72 1.64-.3 4.69-2.56 2.08.16 2.16-20.29-.88-8.63-.15z"/>
    <path region="96" short-name="Chittenden-7" long-name="Chittenden-7 State House District" value="1" d="m258.52 263.2 1.97.74 22.16 8.43 7.92 2.92 7.44 9.77 1.13 1.48-21.64 3.32-2.29-.1-9.74 1.61-1.66-3.72-.29-2.94.5-7.1-2.6 1.61-2.85-3.8.7-2.98-.42-1.96-1.61-.3.01-2.14 1.18-1.54z"/>
    <path region="97" short-name="Franklin-7" long-name="Franklin-7 State House District" value="1" d="m377.81 71.26 2.62-10.8 5.11-17.05-2.38-.61-.1-2.1 12.8.26 33.31-1.7 1.19 3.06 41.24-1.97 2.55 40.82-14.42 23.6-4.82-4.17-1.1 1.43-5.93-3.9.99-2.02-20.4-.92-.01-16.37L409 79.96l-12.21-.93-19.03.3 1.57-7.68z"/>
    <path region="98" short-name="Chittenden-24" long-name="Chittenden-24 State House District" value="1" d="m286.6 216.51 9.82-18.61 17.93 4.04 21.92 4.85-19.09 36.2-1.18-1.05-4.13-.36-1.02-1.94-1.53 1.29-1.38-2.16-2.28-.43.55-.45 5.53.42-.33-1.75.25-5.07 3.46-4.47-5.38-2.02-1.2-1.2-1.99.42-5.59.32-1.55 1.38-2.83-2.52-6.04-2.21-1.4.45-1.51-4.25z"/>
    <path region="99" short-name="Chittenden-6" long-name="Chittenden-6 State House District" value="1" d="m234.63 257.24 5.7-1.19 1.79-3.63 1.27-.35h5.18l5.72.63.06 1.48 3.34.52.63 3.3-.29 1.46.84 2.08-.35 1.65-.1 3.31-1.17 1.54-.01 2.15 1.6.28.43 1.97-.7 2.98 2.84 3.8 2.6-1.6-.49 7.09.3 2.94 1.65 3.72-13.35 2.24-27.8 4.45-2.41-5.95-.1-3.33.43-3.45 1.01-1.63 2.96-2.94 1.87-2.58 1.43-6.2 4.55-11.35z"/>
    <path region="100" short-name="Franklin-5" long-name="Franklin-5 State House District" value="2" d="m273.58 1.18 26.6-.66.31.33 6.26-.02 1.7-.48 3.56.48 10.58-.08 14.7.39 9.96-.07 1.83-.4L375.83 0l21.5.35 32.28.18 26.72 1 2.37.75 8.96 1.46 5.47 36.55-1.53.06-41.24 1.97-1.19-3.07-33.32 1.71-12.79-.25.1 2.09-24.35-6.33-21.39 4.52-27.62 6.17-26.7-13.32-1.6-1.35-3.15-1.34-2.3-2.4-1.11-2.97.1-2.63-.75-3.15 4.3-4.31.95-2.85.42-3.74-1.9-3.28-3.48-1.77z"/>
    <path region="101" short-name="Caledonia-3" long-name="Caledonia-3 State House District" value="2" d="m567.33 195.15 9.48-17.69 2.48-5.1 15.51-30.8 1.07-2.49.2-.45 17.83 8.6-7.89-28.67 32.4 22.58 3.73-5.4 18.98-25.89 25.75 18.86 6.42 4.66L678 153.93l-7.73 10.22-19.86-14.36-8.34 39.42 15.82 3.33 5.57 1.06-.59 3.62-7.7 35.63-13.39-2.95-26.06-5.45-17.08-3.64-14.2-11.52z"/>
    <path region="102" short-name="Windsor-Addison" long-name="Windsor-Addison State House District" value="1" d="m354.86 463.79 30.2 12.16 1.99.75 2.04-4.19 3.92-7.25 1.27.61-1.5 3.01 2.07.78-1.5 3 5.63 2.58-1.39 2.86 1.96.8-1.35 2.8 19.56 7.38.98-1.52 11.25 4.52 2.38.8 19.47 7.35 9.35 3.88.27.11-15.32 24.39-7.06 11.8-4.64-1.84-17.8 41.02 6.95 3.04-1.86 3.77-37.83-13.98 5.06-10.57-4.83-2.33 11.4-25.03-1.65-1.18 1.22-3.23-2.3-1.1-1.64-5.58-10.62-4.35-2.42 4.3-11.18-4.52-.2-8.05-26.83 13.96-4.14-17.76-2.3 1.22.02-8.27-6.77-2.49 6.71-14.57 10.74-22.84z"/>
    <path region="103" short-name="Rutland-Bennington" long-name="Rutland-Bennington State House District" value="1" d="m248.23 706.25 7.8.34.51-2.01 2.62-1.73 3.97-.29 1.68-2.48 1.08-3.28-.17-5-1.98-1.28-1.24-5.89-.06-2.43 7.73-.48.56-.29.33-13.17 3.17.1 11-12.73-.57-3.6 4.77.08.1-2.26 4.96.22 5.83 18.64 10.94.44 14.3.65-.56 19-2.3 1.62-2.3 19.87-4.87-.44-26.34-1.17-.56 40.38-.04 16.51-.55 15.79-.97 8.6-.8.61-16.66-.45-20.92-.9-3.1-.02.91-18.31 1.08-41.3z"/>
    <path region="104" short-name="Chittenden-18" long-name="Chittenden-18 State House District" value="2" d="m240.4 215.85 1.78-.9-1.26-2.3 2.7-1.09.86 2.1-1.31 3.27 2.15 1.87 1.5-.72 4.46 3.18-.38 2.57-4.39 4.06-4-.73-1.48 3.11.46-1.7-1.43-2.12 2.5-4.51-.69-3.57z"/>
    <path region="105" short-name="Washington-Orange" long-name="Washington-Orange State House District" value="2" d="m472.6 358.9 1.84.69-.5 1.93 3.83 1.77-.12 1.17 2.83 1.08-.35 1.27 3.33 1.15-.36.99 2.7.85.8-1.9 2.03.7.11-2.97 1.29-4.32-1.77-.59-.27-1.43-2.1-.71 1.18-3.6-3.15-1.02-.26 2.1-3.29-1.01-.26.82-5.71-1.87 4-10.96.38-.12 12.07 3.3 16.79 4.6 2.42 1.14-7.61 40.37-3.83-2-3.86 9.3-3.01-2.41-3.34.01-8.54-3.24 1.6-5.09-.51-1.54 1.45-3.43-16.58-6.57.42-1.42z"/>
    <path region="106" short-name="Orange-2" long-name="Orange-2 State House District" value="1" d="m581.7 421.79 2.29.96 33.1 13.01-.8 2.64-1.19 1.04-2.45-1.2-.6 3.21-2.3.78-1.02 1.66.67 3-4.22 4.27 1.52 3.34-.32 5.66-.48 2.44 1.44.47 1.57-1.15 2.25.59 2.07 1.35-2.85 1 .44 2.53-1.69 2.84-2.02 1.41-1.9.07-.72 1.79.71 3.94-.38 4.71-1.82 2.87-2.81 1.76-.83 1.5-4.98 3.44-2.3 3.91-.95 2.62-2.81.25-.95 2.85 1.3 3.08.14.41-32.28-12.3-4.15-1.48.73-1.45 8.52-21.14 6.8-16.55.33.01z"/>
    <path region="107" short-name="Rutland-1" long-name="Rutland-1 State House District" value="1" d="m249.9 649.06.75-20.48 38.81 1.2.93-.17 1.4-10.39.51-10.08 4.87-.17 5.6 27.18 13.46-.24-4.97 33.24-10.94-.44-5.83-18.64-4.95-.22-.11 2.26-4.77-.08.57 3.6-11 12.74-3.17-.11-.33 13.17-.56.29-7.73.48.06 2.43 1.24 5.9 1.98 1.27.17 5-1.08 3.28-1.68 2.48-3.97.29-2.62 1.73-.51 2-7.8-.33.82-26.8.5-24.02 1.55-1.58-.05-2.39z"/>
    <path region="108" short-name="Franklin-1" long-name="Franklin-1 State House District" value="2" d="m255.2 130.49 5.44-9.36 2.33-3.07 6.7-7.73 3.67-2.54 1.41-1.49.94-2.38 4.6-6 13.78 7.08 6.47 3.27 25.22 5.51 12.45 24.07 13.38 24.84-1.46 1.94 1.1 1.68-.02 3.95-35.96-8.04L300.2 154l.96-3.97-.79-1.37-2.68-.72-1.27-2.4-3.1-2.66.43-1.8-4.27 2.05-2.58 3.9z"/>
  </g>
</svg>
