<svg map="usa" type="sd_lower" date="2022" variant="blank" title="South Dakota 2022 House of Representatives" default-mode="split" auto-border-stroke-width="1" auto-border-stroke-width-limit=".5" original-source='["https://www2.census.gov/geo/tiger/GENZ2022/shp/cb_2022_us_sldl_500k.zip"]' candidates="[{&quot;id&quot;:&quot;0&quot;, &quot;name&quot;:&quot;Democrats&quot;, &quot;margins&quot;: [{ &quot;color&quot;: &quot;#1C408C&quot; }, { &quot;color&quot;: &quot;#577CCC&quot; }, { &quot;color&quot;: &quot;#8AAFFF&quot; }, { &quot;color&quot;: &quot;#949BB3&quot; }]},{&quot;id&quot;:&quot;1&quot;, &quot;name&quot;:&quot;Republicans&quot;, &quot;margins&quot;: [{ &quot;color&quot;: &quot;#BF1D29&quot; }, { &quot;color&quot;: &quot;#FF5865&quot; }, { &quot;color&quot;: &quot;#FF8B98&quot; }, { &quot;color&quot;: &quot;#CF8980&quot; }]}]" version="1.1" xmlns="http://www.w3.org/2000/svg" viewBox="0 0 1000 634.67">
  <g regions="y" transform="translate(0 -182.67)">
    <path region="0" short-name="28A" long-name="State House District 28A" value="1" d="M269.93 182.84h.25l3.28.01 11.4-.02 21.45.07 5.46-.05 16.34.07 18.02.06 6.06-.1 1.1.04 12.31-.02 8.89.06h13.44l15.83-.03 5.92.05 5.96-.02 15.8.02 6.41-.05 12.23.08h16.84l1.4 2.52 2.28 1.6 1.16.42 4.09 4.2 1.8 2.5 2.29 1.7 1.72 1.1.84 2.07-.23 3.69.16 1.64.73 2.62 1.16 2.63 1.84 4.92.2.75 1.85 4.12 2.45 4.79 1.23 3.13.11 1.25-.09 2.17-1.17 3.03-.69.67-1.87 1.26-2.2.5-3.44-.04-1.59.5-1.84 1.52-.87 1.62-.48 1.26-.4 1.84h-.53l.06 1.63-.97 4.59-.45 1.12-.87 1.27-1.8 1.64-1.6.82-1.14 1.2-1.29 2.29-.17 2 .97 2.14.93.98 1.57 1.06 2.12.81 3.04.04 1.47.15 2.35-.58 1.25.24 2.21 1.98 2.33 3.51.82 1.77.7 3 .59 2.14 1.38 2.11.92.83 1.23 1.45 1 1.55 1.27 3 1.02 1.46.7 1.3-.01 1.27-.52 1.26-.54 2.42-3.4 4.34-.61 1-.5 1.64 1.22 4.85.61.89 2.43 2.73 2.12 2.12.83 1.88.58 2.33-.53 2.65-1.8 4.85.1 1.06-.17 1.62-.14 2.93-.3 1.72-1.55 3.82-1.67 2.49-2.88 4.77-.14 2.4.35 2.27.96 2.77.57.9 1.37 1.55 2.64 2.36.47 1.05-.3 1.73-1.21.73-3.45-.22-4-1.69-2.21-.8-1.9-.2-.95.2-.91.57-2.17 2.63-1.28 2.05-.76 2 .02 3.13.68 4.44.37 4.75.52 2.34.92 2.45 1.54 4.2-.06 1.17-1.21 2.2-2.1 2.5-2.55 1.7-2.7 1.6-2.15 1.68-1.62 1.61-1.23 1.49-.68 1.15-1.38 1.44-1.02 1.83-1.22 1.74-1.82.97-.9.14-1.49-.4-3.12-.41-3.1-.87-1.37-1.17-2.91-2.98-2.61-3.91-1.94-1.88-1.27-.64-1.56-.42-.56.1-1.46 1.01-1.43 2.82-.55 2.32-.11 1.33.24 1.48.45.85.84.8-1.62 1.21-.84.13-.45-.92.46-.68-.38-.64h-.8l-1.02.58.45 1.35-.69.9-1.94.43-.84-.56.66-1.15-.15-.61-.73-.25-.6.72-1.47.7-.85-1.15-1.08.57-.5-.09-.66-2.1-.77-.46-1.08-.27-.7.2-.9.98-.62-.05-.73-.64-.75.61-.93.22-.93.6-1.9.6-.68-.4-.32-1.1-1.6-1.06-.52.07v1.34l-.7 1.17-1.87.54-1.1.77-2.02-.55-.4.79.4 1.27-1.55.55-1.18.06-.5.96-.18 1.31-.86 1.26-1.04-1.33-.6.13-.81 1.79-2.13.85-1.75-.6-2.57-2.35-.97-.44-.9.02-1.76.73-2.25-.25-1.65-.37-.59-.32-2.23-.65-1.34.16-.67.71-.51 2.5-1.28 1.47-1.89 1.04-3.46 2.27-3.32 1.96-.9.3-.1-1.07-.36-.37-1.25-.07-2.17 1-.8 1.33-1 .27-2-.84-.64.03-.65.7-1.9.9-.72-.18-.15-1.26-.32-.5-.76.24-.33 1-.78.14-1.9-1.07-.65.28.52 2.5-.36.38-1.52-.3-.23.78 1.19 1.41.18.77-.69.3-1.08-.47-.57.93h-.45l-.73-.74-1.04.2-.65.96-.75.32-.42 1.05-2.51.62-.83-.57-1.07 1-1.34.27.26 1.03-1.67 2.2.23.57.75.15.52.68-1.8-.02-.8.9-.2.93-.91.13-.84-.32-1.05.72.04.7.62 1.47-.13.6-.94.5-.9-.87-.53.1-.36.75.1.99-1.16.6-1.07.9-.63-1.06-1 .28-.65-.58-.83.14v.67l-.67.2-.75-1.09-1.11-.43h-.96l-1.21.74-2.12-.6-.43.92-.9-.27-1.34-.04.07-1.1-.3-1.02-.59-.27-.93 1.37-.74-1.06-1.2.53-.78-1.04-.46.78-.88.04-.61.58-.8 1.71-1.08-.03-.03-.68h-1.41l-1.02-.84h-.78l-.13 1.26-1.68 1.21-.85-.45-1.53.14-.29.78.67.7.08.68-.75.34-1.19 1.07-.99.07-.4.85-1.56 1.28-.52-.8-1.22-.47-.82.33-.8 1.84.14 1.11-.78.58-.48-.6-.22-1.04-1.47-.08-.4.45-.15 1.06-.8.2-.3-.78-.94-.5-1.06.51-.93-.86-1.8-.4-.64.06-1.02-.98-.9.47-1.18.14-.76.47-.95-.1-.98.58-1.23-.3-.49-.63-.56.25-.48.92-1.69.04-1.12.62-.8-.32-.61.75-1.08-.37-1.05.88-.36 1.28-.38.25V390.22l.04-21.5.01-15.97-.16-.27-4.83-.06-26.93-.1-3.7.03-18.32-.02-13.36-.11-15.95.19-10.35-.08-15.97-.06h-12.01l-4.03-.04V326.33l.03-.5-.04-12.76.13-1.73-.1-7.48.05-16.22h.82l.05-10.4-.1-11.28v-10.83l.1-16.34 10.89.03 7.89.08 13.57.02 16.16.01.62-.04 9.91.02 1.57.08 3.9-.06.2.08 21.13-.08 11.28.03h15.42l.8.05 11.27-.2-.05-15.94.04-16.36.05-21.8z"/>
    <path region="1" short-name="16" long-name="State House District 16" value="2" d="m909.09 634.42 15.7-.02 11.15-.03v12.26l.05 7.85 15.49.06 15.58.07-.01-7.85h10.8l2.07-.14 1.9.08.65.57-.44 1.7 1.42 1.16.67 1.08 2.69 2.12 1.72.06.32 1.64.03 2-.79 1.17.1 2.94.3.83-1.4 1.94.25 1.42.56 2.17.43.74-.64 2.24-1.4.8-1.58.5-.28-.36-1.82-.13-.58-.66-1.96.51.2.82.76-.59.06 1.1.38 1.63-.4.93-.72.08.15.98 1.1.1 1.66 1.46 1.52.45-.05 1.88-1.61.55-.78.95.35 1.34 1.06 1.32.72-.46 1.95.2.57-.36 1.17.65 1 1.14 2.42-.55.57-.52 1.46-.1 1.13.4.77 3.04-.39 1.14v1.61l.18.75.99.65-.2 2.03-.13 2 .11 1.68.86 1.22 1.26.23.91 1.51.24 1.65.66.69-.36 1.24-1.65 2.42-1.13 1-.28.95.96.27.16.7-.14 1.65-.74 1.97-.97.4-1.14-.1-1.29 1.24-.48.84-1.49.4-1.12-.24-1.07 1.41.35.48.87.38-.52 1.59.28.67 1.02.88.53.1.98 1.7-.35 1.42-.45.66-1.25.3-.73.9.08 1-1.05 1.48.57.85 1.28.28.4.56.37 1.58-.6.85-.6 1.7-.71.27-.67.7.47.78-1.2-.02-2.04 1.98.6 3.37-.83.35 1.83 1.03.15 1.32-1.62.16.3 2.01-1.13.72-.43.75-.1 1.27.51 1.06.67-.08-.53 1.39-1.09.43-.05.7.55.52-.17.73h-.64l-.58-.49-.66 1.6-.75-1.2-1.1-.17-.35.8.58 1.07-.86 1.55-.86.65h-.6l1.04-1.25-13.02.02-.1-.03-.02 15.5-14.72.06-.85-.04.03-15.6.11-18.21-.01-12.92-.02-15.63-15.54-.01-15.5.05-15.52.05v-15.6l-.1-15.62-8.76.01-1.71.06-5.05-.01-.07-15.65-15.81.05-.06-18.66-.05-9.68h20z"/>
    <path region="2" short-name="29" long-name="State House District 29" value="2" d="m64.32 432.79 13.18-.07 2.65-.06 20.4.1.61-.08 3.78.07 1.47-.05 37.1.05.07-15.92h.65v-16l.01-36.6-.03-.54v-11.46h.19l4.03.04h12.01l15.97.06 10.35.08 15.95-.2 13.36.12 18.32.02 3.7-.02 26.93.09 4.83.06.16.27-.01 15.97-.04 21.5v59.59l-.08.14-1.41 1.03-.74-.05-2.65.34-.92.57-.59 1.13-.7.77v1.29l-.32.46-.8-.02-1.7 1.07-.04.64.52.64-.3.7-1.24.9.14.81-1.45.06-1.37 1.5-.23 1.59-.83.36-1.43-.42-1.18-.14-1.53-.96-1.27-.2-.77.6.73.77-.57 1.4-.56.44-.93-.13-1.32.24h-1.26l-1.22-.28.21-.97-1.81-1.17-.95-.17-.56-.44.3-1.11-.25-.49-.96.07-1.06.46-1.18.09-1.07.41-1.73.04-.94-.76-1.04.38-.2 1.36-1.05 1.13-.13.57-.71.22-.59-.53-1 1.7 1.05.85-.36 2.01.4.22-.02 2.25-.23.7.83.5-.48.75.44 1.05-.2.75-.79.43.07.9-.81.72-1.47-.78-.46.22-.31 1.65-.89 1.1-.8.57.62 1.15-.79.41.1 2.07-.74.48.42.96-.54.54-.29 1.55.4.63-.43.79-.58-.17-.64.86.03.9-.62.82-.37 2.08 1.17 2.17-.55 1.28.48 2.06-.76.52.02.76 1.06 1.8-2.04 1.62-.14.44.13 1.82-.5.38-1.68.2-.57.6-.34 1.27.15.44-.78 2.8 1.3.05.5.59-.13 2.7-.92-.3-.84.04-.27 1.04.78-.08-.21.9.46.46.42 1.06.6.52h-10.45l-15.86-.01-10.5-.03-21-.06-13.27.02-15.85-.02-18.5-.02-5.01-.01h-9.7l-.12-.57-1.3-3.52-.75-1.14-1.32.04.38-.68.9-.01-.38-1.18-.75-.81-6.94.01-1.2.06-8.05.02-.07-13.4-15.92.1.01-16.16.64-.01.12-14.55-.06-.7.08-16.6-.04-.38z"/>
    <path region="3" short-name="23" long-name="State House District 23" value="2" d="M466.92 183h9.02l2.65.04 15.26.04 2.54.06 13.64.08 13.35.06 13.55.07 11.25.03 5.43.07 11.58.07 21.2-.03 12.93.14 14.67-.01 15.84.06 21.64-.02 24.58.12 23.77.16-.04 16.31-.05 24.55.02 8.18-.02 16.31h.37l-.01 16.24v5.43l16.26.17 9.47.1 1.31-.05.09 2.37-.22.42 3.45.08v1.16l-1.26.2.03 1.28.72.01-.02 5.42-.74.03-12.85-.17-16.22-.16v18.83l-.05 13.6h.62l.01 16.03.02 13.43.11 14.83.03 20.14 1.46.02-.02 16.44v16.06l-.03 16.05v16h.58v21.88l.02 26.5.05 15.57.04.4-14.09.01-1.97.06-13.52-.04h-14.4l-17-.02-9.38.05-.02.27-8.3.02-.04-7.88.02-2.22-.02-16.52.03-13.28-.06-8 .02-16.81-1.57-.02-.01-15.98.1-16.2v-18.58l-.02-5.84.03-8H588.5l-18.67-.07-5.3.03-24.2-.02-18.71-.03-29.55-.07-5.43-.03-7.32.11-.93-2.45-.5-2.34-.38-4.74-.68-4.44-.02-3.14.76-2 1.28-2.05 2.17-2.63.91-.57.95-.2 1.9.2 2.21.8 4 1.7 3.45.21 1.2-.73.31-1.73-.47-1.05-2.64-2.36-1.37-1.54-.57-.91-.96-2.77-.35-2.26.14-2.41 2.88-4.77 1.67-2.5 1.54-3.81.31-1.72.14-2.93.18-1.62-.1-1.06 1.79-4.85.53-2.65-.58-2.33-.83-1.88-2.12-2.12-2.43-2.73-.61-.89-1.22-4.85.5-1.64.6-1 3.4-4.34.55-2.42.52-1.26v-1.28l-.69-1.3-1.02-1.44-1.27-3.01-1-1.55-1.23-1.45-.92-.83-1.38-2.11-.6-2.15-.69-3-.82-1.76-2.33-3.51-2.21-1.98-1.25-.24-2.35.58-1.47-.15-3.04-.04-2.12-.8-1.57-1.07-.93-.98-.97-2.14.17-2 1.29-2.3 1.15-1.19 1.59-.82 1.8-1.64.87-1.27.45-1.12.97-4.59-.06-1.62h.53l.4-1.85.48-1.26.87-1.62 1.84-1.51 1.6-.5 3.43.03 2.2-.5 1.87-1.26.7-.67 1.16-3.03.1-2.17-.12-1.25-1.23-3.13-2.45-4.79-1.85-4.12-.2-.75-1.84-4.92-1.16-2.63-.73-2.62-.16-1.64.23-3.69-.84-2.07-1.72-1.1-2.28-1.7-1.81-2.5-4.09-4.2-1.16-.42-2.28-1.6z"/>
    <path region="4" short-name="30" long-name="State House District 30" value="2" d="m.42 517.78 43.15.03 17.9.05-.15.74-.55.37-.05.9.55 1.09-.44 1.75.21.43-.13 1.64-.52 1.93-.5.8.56.7-.55.61.62 2.5.14 1.92.8 1.75.4 1.4.6.83 1.35 1.05-.43 1.05.32.85 7.95-4.28.34.99-.92.74 1.05.66.55.01.17 1.03 1.18.2 1.07-.68 1.24.58 1.14.13.54 1.22.6.85-.1.6 1.16 1.4.51 1.82-1.21.4-1.18-.25-2.47.86.71.46 1.12.13.83 1.34 1.7-.64 1.21-.8 1.15-.17.45-.45 1.2-.22.36-.52 1.34-.05 1 .48.53-.14 1.2 1.09-.06.83.54.69.05.68.93.33.47-.64 1.02-.27.13-1.4 1.28.35.65-.18.33-.88.64.07.3-.65 1.36.02 1.82-.39 1.5-.03-.13-.88.9.17.07.55 1.4.26 1.16-.42.56.59.96-1.22 1.57-1.38.81.05.67.6.02.66h1.31v-.67l-.66-.63-.68-.01.02-2.67h.66v1.32h.66v-2.64h.65v-.97l.74-.33 1.22.01.68.63v1.32h1.99l-.01-2.63 2.64-.02v-.33l1.98-.16v1.17h1.33v-1.33h-.64l-.02-5.3 1.57.01-.01 1.14h1.09v2.49l1.43 1.1 3.85 1.85.05 6.73 5.23-.04.02 9.9h14.61l.01 15.27 10.5.05 19.4.12h3.16l.05.55-.9.85.09.56.63.4-.06.56-.64 1.06-.7 1.93-.26 2.03.23 1.73.47.78-1.45.3.16.72-.3.55-2.37 2.5-.85.2-.89.9.7 1-.56.68-1.27.74-.66.84-.14.92-.65 1.01-1.25.3-.66 1.05.35.51-.33.68-.56.06-.07.99-1.78-.09-.5 1.56-1.07.55-.08.6.4 1.48-1.26.25-.84 1.12.12.43 1.04.58-.96 1.88.21 1.4-1.34.63-.22.84-.81.45-1.03-.98-.93-.53-.28.96-.47.3-1.05-.08-.34-.7.16-.87-.67-.25-.62.34-1.32-.7-.66-.07-2.06-.66-1.13.38.32 1.19-.41.53-1.02.38.2.83-.61.68-.19.7.43.83-.18.8-1 .65-.38 1 .77.87-.75 1.34-.64.31-1.21-.04-1.52.67-.7-.5-1.43-.44-.6.32v.72l-.76.53-.6-.31-.87.83-.65.25.02 23.2v15.73l.01 18.69v28.26l.03 23.26-17.37-.05-25.15-.02-10.49.03-22.54-.02-5.5.03-4.54-.13-8.16.07L32 724.2l-14.56.08-5.43-.14H8.77l-8.13.2-.03-5.39-.01-14.96-.08-22.47-.01-9.6-.03-2.1-.06-16.85-.02-14.58-.03-14.41.02-4.83-.01-16.15-.04-16.06-.02-15.31.06-16.7.04-17.06Z"/>
    <path region="5" short-name="33" long-name="State House District 33" value="2" d="m61.46 517.86 17.98-.02-.01-7.8 8.06-.02 1.19-.06 6.94-.01.75.8.38 1.19h-.9l-.38.69 1.32-.04.76 1.14 1.3 3.52.1.57h9.7l1.05 2.57.01 2.6-1.98.4.2.5-1.54.17-.02-2.82-.6-.63-2.63-.03.05-1.32-.92.57.34 1.98-.17 1.43h-2.09l-.46-2.66-.3-1.06-.81.62-1.57-.08-1.58.44-.63.9.5.38-.86.62-.74-1.3-.9.64-1.65-.4-.16 1.24.13 1.17.97.75.61 2.33-.53.53.13.72-.76.56.78.6.57-.32.45.62 1.03-.04 1.4 1.64-7.4.05.23.69.25 2.97.29 1.68 11.12-.03v1.34h.49l.66.66v.66l1.34-.06.17.73 1.95-.02.65.68.6-3.34.27-1.28.62-1.39 1.17-.4 1 .3.42.74.91-.7.07-1.02 1.44.46 1.43.02v3.32l.01 2.64-2-.01v-1.32l-.67-.63h-1.22l-.74.32v.96h-.65v2.65h-.67l.01-1.32h-.66l-.02 2.67h.68l.66.64v.67h-1.31l-.02-.66-.67-.6-.8-.05-1.58 1.38-.96 1.22-.56-.6-1.16.43-1.4-.26-.07-.55-.9-.17.14.88-1.51.03-1.82.39-1.36-.02-.3.66-.64-.07-.32.87-.66.18-1.28-.35-.13 1.4-1.02.27-.47.64-.93-.33-.05-.68-.54-.69.06-.83-1.2-1.1-.53.15-1-.48-1.34.05-.36.52-1.2.22-.45.45-1.15.18-1.21.8-1.7.63-.83-1.34-1.12-.13-.71-.45 2.47-.87 1.18.25 1.21-.4-.51-1.82-1.16-1.4.1-.6-.6-.85-.54-1.22-1.14-.13-1.24-.58-1.07.68-1.18-.2-.17-1.02-.55-.02-1.05-.66.92-.74-.34-.99-7.95 4.29-.32-.86.43-1.05-1.35-1.05-.6-.82-.4-1.41-.8-1.75-.14-1.93-.62-2.49.55-.62-.55-.69.49-.8.52-1.93.13-1.63-.2-.44.43-1.75-.55-1.1.06-.9.54-.36z"/>
    <path region="6" short-name="17" long-name="State House District 17" value="2" d="m920.53 709.46 15.5-.05h15.54l.02 15.64.01 12.92-.11 18.22-.03 15.6.85.03 14.72-.06.03-15.5.09.03 13.02-.02-1.03 1.25-.01.88.62.26-.2 1.4-.82.6.22 1.05-.84-.08.11.82-.26.85-1.96-.18-.4 1.28-.5.79-1.12.3.31.61-.34.74.95 1.22.7-.37.26.88-1.3.56-.07 1.05-.54.77.62 1.84-.41 1.02 1.16-.23.02 1.76-.26.95 1.01 1.9.5.11.7-.6.53.07.02 1.39.68-.68.65.72.06.82 1.07-.13.17 1.26 1.33.05-.25.95.7-.03-.61 1.23h.56l.73-.92.27.77 1.1 1.2-.48.37.2.93 1.52-.7.66.2.51.89-.05 1.13.6.99.95.41.32 1.19 1 .74-.03 1.43-.6.66-.92.04-.45.6.23.83.55.2 1.13-1.18 1 .57.63 1.38.59 1.94.14 1.01.89.11-.43.91.08.69 1.1.5.09.45-1.69 2.22.43.82 1.44-.08 1 .15-.1 3.65-.3 2.03-1.42.68-.29.55.38.86.85.37.56-.14.79 1.35-.6 1.64.33.84.76-.32.8.17 1.02-.37 1.34.34-1.87.66-2.07 1.22h-1.83l-1.55-.48-.96-.7-.95-1.35-.63-1.86-.59-.98-.85-.88-.84-.52-1.41-.43-1.18.03-1.93.82-1.56 1.4-.89.44-1.62.17-1.05-.3-1.9-1.32-.72-1.92-.25-1.36v-1.47l-.26-1.32-.35-.77-1.33-1.59-1.4-.99-2.25-.92-1.28-1.13-2.71-3.82-.6-1.56-.05-1.65.53-1.41 1.93-2.98.46-.37.19-1.61-1.31-1.08-3.99-1.38-2.48.12-.57.33-1.68.43-1.85-.18-1.98-.54-1.01-.67-.16-.44.26-2.16-.19-2.58-.6-.96-1.74-.65-1.32-.12-1.82-.64-2.23-1.56-1.62-.6-1.85-.2-2.62-1.52-1.5.34-2 1.44-.54.75-2.4.08-1-.26-.3-1.16.6-1.69v-.72l-1-2.44-.85-.73-.9-.4-1.4.2-4.2-.53-1.1-.62-2.48-.77-2.58-.37-1.79.4-1.4.13-2.03-.01-2.59-.46-.4-.46-.5-1.6-1.65-2.16-1.26-.75-.04-19.65 5.16-.06 10.1-.01.22-.12.07-7.67z"/>
    <path region="7" short-name="19" long-name="State House District 19" value="2" d="m779.8 634.67 19.7-.13-.25-18.4.04-2.65-.02-10.56-.24-15.97.04-9.12.09-7.1 15.76.17h10.02l5.25.04 16.04.1 9.11.04 11.81.04 18.36.02 23.63.09v15.79l-.06 2.7.01 12.98.03 1.44v16.56l-.03 3.2v10.51l-15.69-.01h-20l.05 9.68.05 18.66 15.82-.05.07 15.65h5.05l1.7-.05h8.77l.1 15.6-15.52.07-11.77.01-19.67.1-15.62.04.12 18.14.16 12.91.01 9.75-.02 16.14-2.94 1.22-1.37.28-2.4.11-1.9-.24-2.55-.65-3.92-.37-1.89.07-1.27-.12-1.84-.65-1.7-.82-2.06-.68-1.5-1.26-2.2.2-2.68.87-1.26.74-.22.77.15 1.2-.4.72-.13 1.48-1.13 3.25-.77 1-1.4 2.28-1.43 1.6-.72.29-1.51 1.81-2.26 1.53-1.56.17-2.04-.22-2.98 1.2-.71-.17-.96.33-2.88-.34-1.27-.68-.91-.13-1.08-.72-.4-1.5-.59-.64-2.02-1.72-1.55-.88-1.72-2.03-2.8-1.9-1.16-2.05-1.19-1.27-.8.13-.14-1.4-.95-.66 2.1-.58.94-.9-.17-1.05.67-.25.46-.64.94.2.48-.5.26-.92.53-.77-.04-1.5.24-1.24-.39-.18-.11-1.16-.75-.4-.16-.9 1.43-.4.07-1.28.68-1.08-.87-.45.34-.63-.15-.61 1.06-.4-.65-.88.97-2.78.44-.1.05-2.09.63-.6-.15-.85-.91-.65-.1-1.15-.65-.66-.07-1.1-.8-.5.2-2.13.5-.6-.38-.68 1.87-2.03-.83-1-.17-1.27.17-.78-.06-1.43-.7-1.54.07-2.4.22-.88-.4-.74.38-1.2-.16-1.4.63-1.93.95-.42.38-.72.05-2.9.4-1.83-.05-1.3 1.67-2.83 1.05-2.98-5.3-2.15-.03-10.25-.15-13.06-.23-18.21-.08-10.37z"/>
    <path region="8" short-name="21" long-name="State House District 21" value="2" d="m502.15 595.61.62-.12.33 1.01-.1 2.1.3.72 1.74 1.8 1.05-2.08.21-1.16.48-.71 1.68-.23 1.66.1 2.1.78 1.05 1 .7-1.45 1.07.18 1.27 1.22.46 1.48.56.52.6-.07.63-1.55 1.75 1.05.7.62.49-.12.45-.97 1.81-.06 1.27-.26.83.13.53-.4-.13-1.57.82-.25.97.52.42.69 2.22-1.82.68.2.1.84-.42 1 .63.8.7-.3.32-1.48 1 .68.67.81.52 1.2 1.41-1.1 1.13.84.86-.76.06-.98 2.55.42.5.77.18.93.65-.05 2.91-2.41.65-.14.62.42.3 1.3.7.78.05.67-.5.94.64.18 1.67 1.17.63-.42.64-1.06-.3-1.1-1.1-.61.8-.6 1.23.08.47-.46-1.09-1 .3-.36.87.11.8.91.73 1.19h.47l3.55-1.84 1.14-.26.52-.58-.07-1.42 1.94.35 1-.2.6-.47 1.83.86 1.61-.4-.3-.82-.87-.47-.45-1.48-.7-.68-.09-1.24.67-1.05 1.06-.95.61-.2.74.32.55 2.73-.51 1.58.95.75.68-.04.87-1.16 1.33-1.33.06-1.64.5-1.42.8-.64.6-1.06.53-.2.72.39.52.77.19.85-.27.8-.76 1.16-.24 1 .83.95 1.17-.02.94-.36.8-1.12-.02-1.19-.67-3.78.73-.54.79.11 1.58 1.26.3 1.1-.06 1.85-.21.75.27.51 1.36-.27.99-.95-.02 4.6.04 7.87-.04.12.04 6.45v9.2l-.02 15.72h7.9l2.37.04h32.45l.02-.04 19.31.04 15.7.02 15.45.04 15.57.02.03-15.69v-15.8l-.1-11.8-.24-20.09-1.29.02-.04-2.65-.09-13.15 1.34.06 14.36-.15 15.46-.1 2.57-.07 13-.04 15.77-.15v15.8l.82-.02-.04 8.39-.04 21.22.08 18.41.07 2.79.54 13.12h6.48l4.98.12 4.09.01 11.46-.06.2 2.5.08 10.37.23 18.2.15 13.07.03 10.25 5.3 2.15-1.05 2.98-1.67 2.84.05 1.29-.4 1.82-.05 2.9-.38.74-.95.42-.63 1.92.16 1.4-.39 1.2.41.74-.22.88-.08 2.4.71 1.54.06 1.43-.17.78.17 1.28.83.99-1.87 2.03.39.67-.52.61-.18 2.14.79.48.08 1.11.63.66.1 1.15.92.65.15.85-.63.6-.05 2.1-.44.1-.97 2.77.65.88-1.06.4.15.6-.34.64.87.45-.68 1.08-.07 1.27-1.43.42.16.88.75.41.11 1.16.4.18-.25 1.24.04 1.5-.53.77-.26.93-.48.49-.94-.2-.46.64-.67.25.17 1.05-.95.9-2.09.58.94.66.15 1.4-1.34.35h-1.03l-2.45-.8-1.93-.94-2.01-1.13-1.59-1.43-1.95-1.3-.4-.61-1.1-.46-2.86-.1-2.29-.91-2.9-.8-.82-.36-1-.9-.31-.74-.86-.93-2.06-1.2-2.27-1-1.45-.94-2.8-1.32-1.7-1.1-1.34.07-1.16.6-.8-.44-.15-.8-1.51-1.49-1.16-.75-1.52-2.86-1.51-2.59-.7-1.8-.36-1.9-21.92.01-17.8.05-12.95.03-16.05-.02-14.92-.02-3.33-.02-4.44.06-19.96-.02-16.28.04-3-.02-9.84.02-17.06.02-9.09-.04-4.17.02-6.52-.03-8.97.02-5.62-.05-9.6-.02-12.14-.05-9.38.03v-8.5l-.02-14.87h-2l-.02-23.02v-11.05l-.02-20.32-.05-8.47-2.17-.12.05-5.23-.04-3.92.03-14.4-.04-3.95z"/>
    <path region="9" short-name="24" long-name="State House District 24" value="2" d="m269.88 449.94.08-.13.38-.25.36-1.28 1.05-.88 1.08.37.62-.75.79.32 1.12-.62 1.69-.04.47-.92.57-.25.49.63 1.23.3.98-.58.95.1.76-.47 1.18-.14.9-.47 1.02.99.65-.08 1.8.41.92.86 1.06-.51.94.5.3.79.8-.21.15-1.06.4-.45 1.47.08.22 1.04.48.6.78-.58-.15-1.1.81-1.85.82-.33 1.22.47.52.8 1.56-1.27.4-.86 1-.07 1.18-1.07.75-.34-.08-.67-.67-.71.29-.78 1.53-.14.85.45 1.68-1.21.13-1.26h.78l1.02.83h1.4l.04.7 1.09.03.79-1.72.61-.58.88-.04.46-.78.78 1.04 1.2-.53.74 1.06.93-1.36.59.26.3 1.02-.07 1.1 1.33.04.91.27.43-.93 2.12.6 1.21-.74.96.01 1.11.43.75 1.1.67-.2v-.67l.83-.15.64.58 1.01-.28.63 1.05 1.07-.89 1.16-.6-.1-1 .36-.74.53-.1.9.87.94-.5.13-.6-.62-1.47-.04-.7 1.05-.72.84.32.92-.13.2-.92.79-.91 1.8.02-.52-.68-.75-.15-.23-.57 1.67-2.2-.26-1.03 1.34-.27 1.07-1 .83.57 2.51-.62.42-1.05.75-.32.65-.95 1.04-.2.73.72h.45l.57-.92 1.08.48.7-.3-.2-.78-1.18-1.4.23-.78 1.52.3.36-.4-.52-2.5.64-.27 1.91 1.07.78-.15.33-.99.76-.23.31.49.16 1.26.72.17 1.9-.89.65-.7.64-.03 2 .84 1-.27.8-1.33 2.17-1 1.25.07.36.37.1 1.06.9-.29 3.32-1.96 3.46-2.27 1.89-1.04 1.27-1.47.52-2.5.67-.71 1.34-.16 2.23.65.59.32 1.65.37 2.25.25 1.77-.73.9-.02.96.44 2.57 2.34 1.75.61 2.13-.85.8-1.8.6-.12 1.05 1.33.86-1.26.19-1.3.48-.96 1.19-.07 1.56-.55-.42-1.27.4-.8 2.02.56 1.11-.77 1.86-.54.71-1.17v-1.34l.51-.07 1.61 1.05.32 1.12.68.39 1.9-.6.93-.6.93-.22.75-.61.73.64.61.05.9-.98.7-.2 1.09.27.77.47.66 2.1.5.08 1.07-.57.86 1.15 1.47-.7.6-.72.73.25.15.61-.66 1.15.84.56 1.94-.43.7-.9-.46-1.35 1.02-.59.8.01.38.64-.46.69.45.9.84-.12 1.62-1.2-.84-.81-.46-.85-.24-1.48.12-1.33.55-2.32 1.43-2.82 1.46-1.01.56-.1 1.56.42 1.27.64 1.94 1.88 2.6 3.91 2.92 2.98 1.38 1.17 3.1.87 3.11.4 1.48.41.9-.14 1.83-.97 1.22-1.74 1.02-1.83 1.38-1.44.68-1.15 1.23-1.49 1.62-1.61 2.14-1.68 2.7-1.6 2.56-1.7 2.1-2.5 1.21-2.2.06-1.16-1.54-4.2 7.32-.12 5.43.03 29.55.07 18.7.03 24.21.02 5.3-.03 18.67.07H622.74l-.02 8 .02 5.84v18.57l-.1 16.2.01 15.99 1.57.02-.02 16.82.06 8-.03 13.27.02 16.52-.02 2.22-7.89-.05-1.94.16-6.09-.03.04-7.84-31.87.05H560.6l-.04 7.91-14.24-.06-1.57 2.1-3.76 3.58-.45 1.05v.94l-.98.04-15.77.02-23.71.04h-15.83v4.75l-.45.03-10.56-.01-22.25.04-15.9.01-2.05-.07-3.12.13-3.27-.07-12.3.07-.5-.03-18.78-.06.04 15.9-.02 15.8h-2.27l-45.03-.04-8.52.02-1.36.12-2.34-.12-5.4.03-15.66.01h-44l-1.46.05-.02-15.83.01-7.8-.04-.19.03-8.21.04-31.86h.82l.02-15.57z"/>
    <path region="10" short-name="4" long-name="State House District 4" value="2" d="m797.25 331.1 12.4.12 5.37.1 16.7-.03 13.39.1 16.11.01 16.13-.05 17.2.13 1.83-.12.04-16.27-.03-10.89 6.68.07 22.01.08 4.95-14.58.2-.87 2.21-6.28 2.26-6.82.5-1.27 1.17-3.83 1.49-4.3 3.52-9.95.26-.9 2.84-8.13.37-.75 2.81 3.58 4.4 5.76 1.06.88 1.68 2.76 2.07 2.73 1.63 3.6.97 2.52.26 1.5.66 1.35.21 1.25.72 1.83.94 1.04 1.76 2.72 1.15 2 1.25 1.66 1.58 1.28 1.33-.01 1.06.29 1.88-.21 3.96.38 2.17.92 2.16 1.4.77.63 2.2 1.16 2.12.94 1.97.48 1.2.53 1.8 1.46.8.44 1.7 1.57 1.27 3.25 1.32 2.75.35 1.45.62.61 1.16 2.94.01 5.45.09 11.16v15.8l.03 27.23-.04 2.74.05 13.46.06 15.66-.04 2.77.08 13.33-.04 2.81-.03 13.24-.03 16.16-24.97-.04-20.24.02H941.1l-16.05.05h-5.23l-2.52.07-6.95.02-24.97-.08-19.8-.09-3.95.01-15.89-.06h-10.78l-5.29-.02-15.52-.02h-.43V427.8l.01-16.07v-16.01h15.9l.01-12.11h-.66l-1.12-1.31.01-.76.97-.6.02-1.31-15.69-.05-.05-16.06-15.7-.1-.28.01.09-4-.03-10.8zm95.4 45.22.75 1.41-.02 2.17.13.42-.05 15.52 15.93.16 7.37-.1 8.53-.08-.06-15.87h.23l.12-16.06-16.1-.04-4.46.07-3.12-.02-.31-.25-8.23.07.1 10.73z"/>
    <path region="11" short-name="27" long-name="State House District 27" value="2" d="m132.17 517.85 15.85.02 13.26-.02 21.01.06 10.5.03 15.86.02 10.45-.02-.6-.5-.42-1.07-.46-.46.21-.9-.78.08.27-1.04.84-.04.92.3.14-2.7-.52-.6-1.3-.05.79-2.8-.15-.43.34-1.27.57-.6 1.69-.2.5-.38-.14-1.82.14-.44 2.04-1.61-1.06-1.82-.02-.75.76-.52-.48-2.07.55-1.27-1.17-2.17.37-2.08.62-.82-.03-.9.64-.86.58.17.43-.79-.4-.63.3-1.55.53-.54-.42-.96.74-.48-.1-2.07.79-.41-.62-1.15.8-.56.88-1.1.32-1.66.46-.22 1.47.77.8-.72-.06-.89.8-.43.19-.75-.44-1.05.48-.75-.83-.5.23-.7.03-2.25-.4-.22.35-2.01-1.05-.84 1-1.72.59.53.71-.21.13-.58 1.05-1.12.2-1.36 1.04-.38.94.75 1.73-.03 1.07-.41 1.18-.1 1.06-.45.96-.07.26.49-.3 1.1.55.45.95.17 1.81 1.17-.21.97 1.22.28h1.26l1.32-.24.93.13.56-.44.57-1.4-.73-.77.77-.6 1.27.2 1.53.96 1.18.14 1.43.42.83-.36.23-1.59 1.37-1.5 1.45-.06-.14-.8 1.23-.9.3-.7-.5-.65.03-.64 1.7-1.07.8.02.31-.46.02-1.29.69-.77.59-1.13.92-.57 2.65-.34.74.05 1.4-1.04.04 15.14-.02 15.57h-.82l-.04 31.86-.03 8.21.04.2v7.79l.01 15.83 1.46-.06 28.34.02 15.66-.01 15.66-.01 5.4-.03 2.35.12 1.35-.12 8.52-.02 45.03.04-.02 10.46-.01 17.56-1.63-.2-1 .16.13-.8-.58-.66-1.46.95-.55-.64-.64.27.54.83-.42.88-1.06-.79-1.27-.59-.37.7-1.35-.15-.62 1.21.15.42.93.32-.37 1.25-.67.68-1.74.59.33-1.06-.4-.79-.7-.57-.39 1.05-.7.34-.1 1.3-.74-.63-.58.07-.18 2.15-1.2.7-.45-.3-.28-1.11-.46-.37-.76.06-.36 1.05-1.25.66.22.71-1.53.58.01 1.2.01 21.93-.03 19.07v23.59l.02 15.75.02 20.92V724.82l-25.47.1-10.27.04-16.4.15-11.57-.06-17.9-.49H259.2l-35.69-.04h-17.43l-11.63-.02-15.5-.03-12.86-.03-27.35-.08-.03-23.27v-46.95l-.01-15.74-.02-23.2.65-.24.86-.83.61.3.75-.52v-.72l.61-.32 1.43.44.7.5 1.52-.67 1.21.04.64-.3.75-1.35-.77-.87.39-1 1-.64.17-.81-.43-.84.19-.7.6-.67-.19-.83 1.02-.37.41-.54-.32-1.2 1.13-.37 2.06.66.66.07 1.32.7.62-.33.67.25-.16.87.34.7 1.05.08.47-.3.28-.97.93.53 1.03.98.81-.45.22-.84 1.34-.63-.2-1.4.95-1.88-1.04-.58-.12-.42.84-1.13 1.25-.25-.39-1.48.08-.6 1.07-.55.5-1.56 1.78.09.07-1 .56-.05.33-.68-.35-.5.66-1.07 1.25-.29.65-1 .14-.93.66-.84 1.27-.74.56-.68-.7-1 .89-.9.85-.2 2.36-2.5.31-.55-.16-.72 1.45-.3-.47-.78-.23-1.73.26-2.03.7-1.93.64-1.06.06-.57-.63-.39-.1-.56.91-.85-.05-.55h-3.16l-19.4-.12-10.5-.04v-15.27l-14.62-.01-.02-9.9-5.23.04-.05-6.73.03-9.9.52-.66-.53-1.3 3.3-.16 2.32.01-.33-.56z"/>
    <path region="12" short-name="28B" long-name="State House District 28B" value="1" d="m0 360.02 2.39-.09-.05-17.2.06-6.2-.05-.17L2.33 320l-.03-22.95.03-7.14-.04-3.6-.05-12.94-.13-5.26.09-2.35-.1-10.22-.1-36.06-.16-22.28-.2-14.5h61.45l2.4.03 19.35-.03 4.7.09.83-.07h11.16l16.12-.03h14.89l16.7.05h28.29l6.99-.07 13.2.08 9.84-.03 19.39.07 19.84.03 23.14.02.05 1.87-.05 21.8-.03 16.36.05 15.95-11.26.19-.81-.05h-15.43l-11.27-.03-21.13.08-.2-.08-3.9.06-1.57-.08-9.92-.01-.6.03-16.17-.01-13.57-.02-7.9-.07-10.88-.04-.1 16.34v10.83l.1 11.28-.05 10.4h-.83l-.04 16.22.1 7.48-.13 1.73.04 12.77-.04.49.02 9.8-.01 16.1h-.19v11.46l.03.54-.02 36.6.01 16h-.65l-.07 15.92-37.1-.05-1.47.05-3.78-.07-.61.08-20.4-.1-2.65.06-13.18.07-17.75-.1-15.42-.03-1.03.67.3 1.11-1.97 1.34-1.46-.82-1.47 1.07-.54-.26-.41-.83-.81-.94-1.27-.14-1.36.17-.82.47-.63 1.21-1.36-.18-.75.44-1.19 1.32-.98-.57-1.75.95h-1.24l-1.23-.5-1.83.8-.46-.53-1.16.13-.57.85-2.5-.84-.9.16-.71-.69-.56.29-.32.73-.72-.16-1.18.97v-11.5l-.02-26.27-.07-16.84.08-1.52-.1-10.92z"/>
    <path region="13" short-name="26A" long-name="State House District 26A" value="1" d="M392.82 544.47h2.27l.02-15.8-.04-15.9 18.77.06.5.03 12.32-.07.04 29.03h5.18l.07 2.77v15.67h7.88v2.67l-2.63-.05v1.26l1.2.03.26.64 1.17-.15-.01 11.35.63.04 15.04.14V560.2h15.7l13.14-.43.06 11.64 3.52-.01.05 23.64 1.06.24 1.37-.38 1.45-.96.55-.05.5.58.62 2.56.79 1.32 1.4.35.67-.53.36-.91.86-.8.9.12.32.77.54.2 2.8-1.95-.02 15.24.04 3.95-.03 14.4.03 3.92-.04 5.23 2.17.12.05 8.47.02 20.32v11.05l.01 23.02h2.01l.02 14.87v8.5l-19.84-.03-16.16-.1-8.08.05-2.47.05-9.48.02-.83.1-15.24-.02-15.7-.02-2.67.07-9.25.01-5.52.05-5.6-.08-24.26.02v-41.61l-.02-20.9-.03-15.76.01-10.54v-13.05l.03-19.07v-21.93l-.02-1.2 1.53-.58-.22-.7 1.25-.67.36-1.05.76-.07.46.38.28 1.12.45.29 1.2-.7.18-2.16.58-.06.74.63.1-1.3.7-.34.39-1.05.7.57.4.8-.33 1.05 1.74-.59.67-.68.37-1.25-.93-.32-.15-.42.62-1.2 1.35.14.37-.7 1.27.59 1.06.8.42-.89-.54-.83.64-.27.55.64 1.46-.95.58.66-.14.8 1.01-.15 1.63.2v-17.57z"/>
    <path region="14" short-name="3" long-name="State House District 3" value="2" d="m729.92 282.12.02-5.42h-.72l-.03-1.28 1.25-.2.01-1.17-3.45-.08.22-.42-.09-2.37-1.31.05-.02-4.02h1.36v-1.38l5.44.05v-2.7l8.1.03-.01 2.7 2.7.02.01 16.27z"/>
    <path region="15" short-name="14" long-name="State House District 14" value="2" d="m965.2 630.4.73-.7-.31-1 .6-.97h5.54l.04 5.26.22 1.31h-7.59l-.43-1.06-.1-1 .9-.43z"/>
    <path region="16" short-name="1" long-name="State House District 1" value="2" d="m699.82 183.94 12.99.09 15.53.18 12.13.14 17.88.04 12.16.02h15.1l24.68.1 13.83.05 18.76.02 20.16.03 16.57.01h16.5l10.94-.04 5.48-.13 13.5.14.22-.09 25.39.06 1.8-.08h11.83l8.16.1 9.9.01-.05 2.96-.63.47-.18.95.76.5-.51 1.22-.06 2.8-.34.26-.17 1.92.1.87-.37.95.22.99-.2 3.48-.4.97-.28 2.28-.97 1.77-1.26.88-2.07 3.26-1.69 1.23-1.75 3.34-.42 1.94-1.35 2.45-1.36 1.53-1.33 1.2-1.9 1.2-3.15 1.57-5.14 3.53-1.38 2.11-5.15 3.6-3.42 2.67-.85.46-1.06 1.2-.45 1.07-.98 3.79-.1.86-.56 1.09-.03.7-.37.76-2.84 8.13-.25.9-3.53 9.94-1.49 4.31-1.18 3.83-.5 1.27-2.25 6.82-2.2 6.28-.21.87-4.95 14.58-22-.08-6.7-.07.04 10.9-.04 16.26-1.83.12-17.2-.13-16.13.05h-16.11l-13.39-.1-16.7.02-5.37-.1-12.4-.13.04-3.5v-12.72l-16.11-.03-12.14-.07-28.4-.15-10.8-.07-5.43-.09-23.72-.2-.62-.01.04-13.6v-18.83l16.22.16 12.85.17.74-.03 13.48.08v-16.27l-2.71-.01v-2.7l-8.09-.05v2.71l-5.44-.05v1.39l-1.36-.01.02 4.02-9.47-.1-16.25-.17-.01-5.43.02-16.24h-.38l.02-16.3-.02-8.19.05-24.55z"/>
    <path region="17" short-name="26B" long-name="State House District 26B" value="1" d="m426.65 512.8 3.27.06 3.12-.13 2.04.07 15.91-.01 22.25-.04 10.56.01.46-.03V508l15.82-.01 23.71-.04 15.77-.02.99-.04-.01-.94.45-1.05 3.76-3.58 1.57-2.1 14.24.06.04-7.9h15.88l31.87-.06-.04 7.84 6.1.03 1.93-.16 7.89.05.03 7.88 8.31-.02.02-.27 9.38-.05 17 .03 14.4-.01-.07 16.14-.02 13.18.03 1.22-.09 6.7.01 10.5h11.8l3.84-.02.09 13.15.04 2.65 1.3-.02.24 20.1.1 11.8-.02 15.8-.02 15.68-15.57-.02-15.46-.04-15.69-.02-19.31-.04-.02.04H592.1l-2.36-.04h-7.9l.02-15.72v-9.2l-.04-6.45.04-.12-.04-7.87.02-4.6-.99.95-1.36.27-.27-.51.21-.75.06-1.84-.3-1.1-1.58-1.27-.8-.11-.72.54.67 3.78.02 1.19-.8 1.12-.94.36-1.17.02-.83-.95.24-1 .76-1.16.27-.8-.19-.85-.52-.77-.72-.4-.54.21-.59 1.06-.8.64-.5 1.42-.06 1.64-1.33 1.33-.87 1.16-.68.04-.95-.75.5-1.58-.54-2.73-.74-.31-.6.2-1.07.94-.67 1.05.1 1.24.69.68.45 1.48.88.47.3.82-1.62.4-1.84-.86-.6.46-1 .2-1.93-.34.07 1.42-.52.58-1.14.26-3.55 1.83h-.47l-.73-1.18-.8-.9-.87-.12-.3.35 1.09 1.01-.47.46-1.24-.09-.8.6 1.11.62.3 1.1-.64 1.06-.63.42-1.67-1.17-.64-.18.5-.94-.05-.67-.7-.78-.3-1.3-.62-.42-.65.14-2.91 2.41-.65.05-.18-.93-.5-.77-2.55-.42-.06.98-.86.76-1.13-.84-1.41 1.1-.52-1.2-.68-.81-1-.68-.3 1.49-.71.3-.63-.81.41-1-.1-.85-.67-.2-2.22 1.83-.42-.69-.97-.52-.82.25.13 1.57-.54.4-.82-.13-1.27.26-1.81.06-.45.97-.5.12-.69-.62-1.75-1.05-.63 1.55-.6.07-.56-.52-.46-1.48-1.27-1.22-1.07-.18-.7 1.45-1.05-1-2.1-.77-1.66-.1-1.68.22-.48.71-.21 1.16-1.05 2.08-1.74-1.8-.3-.71.1-2.1-.33-1.02-.62.12-2.8 1.94-.54-.19-.32-.77-.9-.12-.86.8-.36.91-.67.53-1.4-.35-.79-1.32-.63-2.56-.49-.58-.55.05-1.45.96-1.37.38-1.06-.24-.05-23.64-3.52.01-.06-11.64-13.14.43h-15.7v15.98l-15.04-.14-.63-.04v-11.35l-1.16.15-.26-.64-1.2-.03v-1.26l2.63.05v-2.67h-7.87V544.6l-.08-2.77h-5.18z"/>
    <path region="18" short-name="5" long-name="State House District 5" value="2" d="m892.64 376.32.81-1.87-.1-10.73 8.24-.07.31.25 3.12.02 4.47-.07 16.09.04-.12 16.07h-.23l.06 15.86-8.53.08-7.37.1-15.93-.16.05-15.52-.13-.42.02-2.17z"/>
    <path region="19" short-name="10" long-name="State House District 10" value="2" d="M961.33 627.73v-.86h2.61l.05-5.7 2.29-.02.04-1.81.3-2.1-.02-1.34h.75v1.33h.9l-.3-1.34 3.18-.03.66.75v1.96h1.22l-.11 1.13-.44 1.1-.02.84-.56 2.16-2.71-.02.01 3.95h-2.95l-.61.98.31 1-.73.68-2.53-.02v-.41l-1.34.06z"/>
    <path region="20" short-name="8" long-name="State House District 8" value="2" d="m814.15 443.78 15.52.02 5.29.02h10.79l15.88.06 3.94-.01 19.8.09 24.98.08 6.95-.02 2.53-.08 5.22.01 16.05-.05h11.67l20.24-.02 24.97.04-.02 13 .04 2.32-.07 24.68.02 5.01-.05 2.93-.02 15.73-9.58.2-6.99.02-16.92.03-5.14-.07-2.59.04-.18-13.25 1.39-.03-.05-2.33-.73-.3 8.66.05v1.21l1.3-.03v-.66l1.34.01.01-.51 3.96.02.05-7.33h-.67l.04-2.01h.64l.03-6.62-15.87-.07-17-.08-.19 2.3v5.75h1.39l-.03 2.6h.98l.06 2.65 1.43.03.03 2.64-2.53-.01-.03 6.55-.08 9.4.08 10.5v18.5l-.04 14.73.03 19.65-15.78.03-15.76.04-23.63-.1-18.36-.01-11.8-.04-9.12-.05-16.04-.1.02-15.84v-13.15l.06-18.59-15.84-.05.06-2.64.12-12.8h-.55l.01-15.86.05-14.1v-34.03z"/>
    <path region="21" short-name="35" long-name="State House District 35" value="2" d="m108.66 517.82 5 .01 18.51.02.01 7.4.33.56-2.32-.01-3.3.16.53 1.3-.52.67-.03 9.89-3.85-1.85-1.44-1.1v-2.49h-1.08l.01-1.14h-1.57l.02 5.29h.64v1.33h-1.33v-1.17l-1.98.16v.33l-2.64.02v-5.97h-.46l-.56-.84-1.26.53-.17-.97-.82-.22.65-2.12 2.62-.05 1.1-.88.46-.83-.55-.56-1.67-.8-3.28-.02v-1.48l-.01-2.6z"/>
    <path region="22" short-name="22" long-name="State House District 22" value="2" d="m700.68 314.25 23.73.21 5.42.09 10.8.07 28.4.15 12.15.07 16.12.03-.01 12.71-.04 3.51-.05 17.53.03 10.8-.09 4.01.28-.01 15.7.1.05 16.06 15.7.05-.03 1.32-.97.6v.75l1.1 1.31h.67v12.12l-15.91-.01v48.06h.42l-.03.1v34.03l-.05 14.1v15.87l-15.3.1-12.3-.19-9.7-.04-9.43-.13h-32.53l-15.95-.03-15.9.01-.05-.4-.05-15.56-.02-26.51v-21.88h-.57l-.01-16 .03-16.05v-16.06l.02-16.44-1.46-.01-.03-20.15-.1-14.83-.02-13.43z"/>
    <path region="23" short-name="12" long-name="State House District 12" value="2" d="m953.86 634.31.95-2.1.1-4.47 6.42-.01v3.29h-2.6v1.82l.45 1.62.05 5.05v1.13l-.73.16-1.9.02-.66-.68.01-1.12-.93-.2-.12-.65-2.06-.02-.02-.87.5-1.8z"/>
    <path region="24" short-name="34" long-name="State House District 34" value="2" d="m106.4 524.06 1.93.26.04 2.8-.36 1.43-1.04-.04-.36 1.14-.72 1.27.28 1.03-.32 1.29.86.91-.4 3-.59 3.34-.65-.68-1.95.02-.17-.73-1.35.06v-.66l-.65-.65h-.49v-1.35l-11.12.03-.3-1.68-.24-2.97-.22-.7 7.39-.04-1.4-1.64-1.03.04-.45-.62-.57.33-.78-.6.76-.57-.13-.72.53-.53-.61-2.33-.97-.75-.13-1.17.16-1.24 1.66.4.89-.65.73 1.31.87-.62-.5-.37.63-.91 1.58-.44 1.57.08.81-.62.3 1.06.46 2.66h2.09l.17-1.43-.34-1.98.92-.57-.05 1.32 2.63.03.6.63z"/>
    <path region="25" short-name="13" long-name="State House District 13" value="2" d="m961.33 630.02 1.34-.06v.4l2.53.03-.4 1.42-.9.42.1 1 .43 1.07h10.33l.01.65-3.29.67v.65h-2.6l-.65 1.33h-.65v-.74l-1.2-.24-1.08.31-.2.65-.62.2-.72 1.12-1.75.92-1.48-.3h-1.3l-.05-5.05-.44-1.63-.01-1.82h2.6z"/>
    <path region="26" short-name="20" long-name="State House District 20" value="2" d="m673.37 507.63 13.52.04 1.97-.06h14.1l15.9-.02 15.95.02h32.53l9.42.13 9.7.05 12.3.2 15.3-.12h.55l-.12 12.8-.06 2.64 15.83.05-.06 18.58.01 13.16-.02 15.85-5.25-.04h-10.02l-15.76-.16-.1 7.09-.03 9.12.24 15.97.02 10.56-.04 2.65.26 18.4-19.7.14-11.46.06h-4.1l-4.97-.13h-6.48l-.54-13.12-.07-2.79-.08-18.4.04-21.23.04-8.4-.82.02V554.9l-15.76.15-13.02.04-2.57.06-15.45.1-14.36.16-1.34-.06-3.85.02h-11.79v-10.5l.08-6.7-.03-1.22.02-13.18z"/>
    <path region="27" short-name="25" long-name="State House District 25" value="2" d="m909.14 571.24 15.76-.04 15.78-.04-.03-19.65.03-14.71v-18.5l-.07-10.51 16.05.02 2.6-.04 5.13.07 16.92-.03 7-.03 9.57-.19-.03 15.66-.03 13.3.02 5.37-.04 5.63.02 18.1.02 13.38-.03 2.5-.02 26.4-10.27.23-7.88-.1h-7.85v8.55l-.66-.75-3.19.03.32 1.33h-.91v-1.32h-.75l-10.5.04-2.6-.03v2.62l-13.06.07-.04-7.54.05-3-2.63.01H924.8v26.33l-15.71.02v-10.5l.03-3.2v-16.57l-.03-1.44v-12.98l.05-2.7z"/>
    <path region="28" short-name="7" long-name="State House District 7" value="2" d="m956.66 507.81-16.05-.02.09-9.4.02-6.55 2.53.01-.02-2.64-1.44-.04-.06-2.63h-.98l.03-2.62-1.4.01.01-5.76.18-2.29 17.02.08 15.86.07-.03 6.62h-.64l-.04 2h.68l-.06 7.33-3.96-.01-.01.51h-1.33l-.02.65-1.3.03.01-1.21-8.66-.04.73.3.05 2.32-1.39.03z"/>
    <path region="29" short-name="11" long-name="State House District 11" value="2" d="M954.9 626.43v1.3l-.1 4.48-.94 2.1h-5.57l-.01-2.62h1.3l-.06-2.53.72-.1.12-2.63z"/>
    <path region="30" short-name="31" long-name="State House District 31" value="2" d="m.27 438.88 1.18-.97.72.16.32-.73.56-.29.7.69.9-.16 2.5.84.58-.85 1.16-.13.46.53 1.83-.8 1.23.5h1.24l1.75-.95.98.57 1.19-1.32.75-.44 1.36.18.63-1.21.82-.47 1.36-.17 1.27.14.81.94.4.83.55.26 1.47-1.07 1.46.82 1.97-1.34-.3-1.1 1.02-.68 15.43.04 17.75.09-.13 15.55.04.38-.08 16.6.06.7-.12 14.55h-.64l-.01 16.16 15.93-.1.06 13.4v7.8l-17.97.03-17.9-.05-43.14-.03-.05-15.06-.06-17.29-.03-20.8-.02-14.59Z"/>
    <path region="31" short-name="2" long-name="State House District 2" value="2" d="M971.78 616.6v-8.53h7.86l7.88.09 10.27-.22.02 26.36-19.11-.01h-3.94l-2.74.01-.22-1.3-.04-5.27h-2.58l-.01-3.95 2.72.02.55-2.16.02-.85.44-1.09.11-1.13h-1.22z"/>
    <path region="32" short-name="6" long-name="State House District 6" value="2" d="m935.94 634.37 12.35-.06h5.57l-.54 1.18-.5 1.8.02.86 2.06.02.12.65.93.2-.01 1.12.67.68 1.89-.02.72-.16v-1.13l1.3.01 1.5.3 1.74-.92.72-1.11.62-.22.2-.64 1.07-.31 1.21.24v.74h.65l.65-1.33h2.6v-.65l3.29-.67v-.66h3.93l-.03.8.58.49 1.11.4-.04 2.27.38.76-.2.58.36.73-1.43.77-.08.72-.8.32-.33 1.34 1.1 2.8.6.35-2.07.15h-10.8l.01 7.84-15.58-.07-15.5-.06-.04-7.85z"/>
    <path region="33" short-name="15" long-name="State House District 15" value="2" d="m956.1 615.94 10.5-.04.03 1.35-.31 2.09-.04 1.81-2.3.02-.04 5.7h-2.6v.86h-6.44v-1.3l-.02-1.94.3-2.55.9-1.64z"/>
    <path region="34" short-name="32" long-name="State House District 32" value="2" d="m106.4 524.06 1.54-.17-.21-.5 1.98-.4v1.48l3.28.02 1.67.8.55.56-.46.83-1.1.88-2.62.05-.65 2.13.82.2.18.98 1.25-.53.56.84h.47v2.65l-1.44-.02-1.44-.45-.07 1.02-.91.69-.41-.75-1-.3-1.18.41-.62 1.4-.27 1.27.39-3-.86-.91.32-1.29-.28-1.03.72-1.27.36-1.14 1.04.04.36-1.42-.04-2.8z"/>
    <path region="35" short-name="9" long-name="State House District 9" value="2" d="m956.1 615.94-.02 4.36-.9 1.64-.3 2.55.01 1.94h-4.53l-.12 2.63-.71.1.06 2.53h-1.31l.01 2.62-12.35.06-11.15.03v-26.33h13.03l2.63-.02-.05 3.01.04 7.54 13.05-.07v-2.62z"/>
    <path region="36" short-name="18" long-name="State House District 18" value="2" d="M905 693.9v15.61l15.53-.05v23.34l-.06 7.67-.21.12h-10.11l-5.16.07.04 19.65-1.53-.57-2.04-.34-1.68-.12-1.28-.68-.38-.66-.12-1.28-.56-1.69.1-2.5-.18-.4-1.72-1-2.18-.72-2.54.5-2.88-.52-1.6-1.82-.6-.34-1.5.78-1.09.35-.57.51-1.37.46-2.41.19-1.2-.65-1.05-1.21-2.27.17-.7-.1-1.18-.63-1.15.43-.8.85-.31.8-.84.92-1.36.95-1.3.04-1.24-.56-1.17-.23-1.88.01-1.49-.51-.54-.71-.59-.23-1.45.85-2.1.65-2.04.37-1.9.09-1.65-.38-2.28-.75-1.56-.8h-1.05l-1.11.3-1.99.93.02-16.14v-9.75l-.17-12.91-.12-18.14 15.62-.05 19.67-.08 11.77-.02z"/>
  </g>
</svg>
