<svg country="usa" type="nh_upper" date="2022" variant="blank" title="New Hampshire 2022 State Senate" viewBox="0 0 510.99 1000" auto-border-stroke-width="1" auto-border-stroke-width-limit=".5" original-source='["https://www2.census.gov/geo/tiger/GENZ2022/shp/cb_2022_us_sldl_500k.zip"]' candidates="[{&quot;id&quot;:&quot;0&quot;, &quot;name&quot;:&quot;Democrats&quot;, &quot;margins&quot;: [{ &quot;color&quot;: &quot;#1C408C&quot; }, { &quot;color&quot;: &quot;#577CCC&quot; }, { &quot;color&quot;: &quot;#8AAFFF&quot; }, { &quot;color&quot;: &quot;#949BB3&quot; }]},{&quot;id&quot;:&quot;1&quot;, &quot;name&quot;:&quot;Republicans&quot;, &quot;margins&quot;: [{ &quot;color&quot;: &quot;#BF1D29&quot; }, { &quot;color&quot;: &quot;#FF5865&quot; }, { &quot;color&quot;: &quot;#FF8B98&quot; }, { &quot;color&quot;: &quot;#CF8980&quot; }]}]" version="1.1" xmlns="http://www.w3.org/2000/svg">
  <g map-type="regions" transform="translate(-244.5)">
    <path region="0" short-name="State Senate District 01" long-name="State Senate District 01" value="1" d="m376.32 494.59 1.19-1.27-1.27-2.91.3-1.08 3.5-2.2.85-1.02-1.82-1.16.43-1.24 2.84-.12 1.05-2.45 1.26-1.64-.98-2.96 2.6-.98 1.38 1.05 1.71-.77-.39-1.14-3.07-1.72.25-1.11 2.06-.03 1-.98.41-3.15-2.52-1.4-.85 2.35-1.44.13-1.12-1.6-.75-3.58.77-3.64 1.63-1.55 2.62-.52.97-2.24-2.34-2.5-.26-5.13.48-1.27-3.29-5.24-1.23-4.43-2.4-3.97.45-2.76 1.24-1.35.55-2.16-.4-1.63 1.14-.97.8-2.33-.3-2.75 1.57-4.8-.62-2.13-1.07-1.11-1.6-3.83-.38-2.5.72-2.2-2.36.33-.36-1.18 2.64-5.76 1.52-1.64 1.94-.57 1.88-1.52 1.87-2.52.22-5.08-.25-1.84 1.04-.76 2.8.84 4.14-1.49 4.8-2.75.51-1.93.96-.49 4.96.37 4.96-.46 2.69.76 1.73-.7 1.11-1.71 2.11-1.74 2.21-.72 1.96.35 8.23 4.19 2.9-1.34 2.57-.3 4.1-2.64 1.24-.93 3.98-1.08 1.77-1.69-1.07-3.89 1.06-1.97-.92-1.14.38-2.5 1.53-.73 1.48.2.99-1.01-1-1.71.32-1.16 3.22-2.65 3.33.18 3.75-2.62 2.45.07 1.81 1.71 2 .21 1.56-3.1 3.86-.55 2.2.5 3.44-1.64 5.03-3.92.34-1.3 1.85-.52-.91-2.17 4.36-1.34 1.04-1.42.76-2.75.16-2.54 1.05-2.07 2.49-.02 1.25-1.48-1.81-1.74.18-2.43 1.81-1.04 1.53-2.32 1.41-.12.37 1.54-1.96.78.45 1.62 2-.45 1.85-4.12 2.3.63 2.8-.8 1.14-2.75.36-2.95 1.34 1.1 3.37-2.28-1.66-1.58-1.17-2.75-1.98-2.47 3.12-.65 2.32-3.25.71-2.02-.69-1.42-3.55-2.62-2.7-2.49.27-2.72 2.34-1.9 3.73.5 1.25.67 2.9-.65.34-2.25 2.34.24.33-1.17-1.85-2.7.8-.67 1.5 1.38 1.67-1.17.9-1.71-.74-1.83-3.72-1.23-.21-1.86-1.73-.7-.4-1.3 1.83-.35.45-1.65-.8-4.37 1.2-4.07-3.07-2.54 1.5-1.77-1.05-2.18-.32-2.14-1.71.8-2.7-.27-.7-1.73-1.21-.95.17-2.02-.5-2.85.21-1.5-2.73-1.28.51-2.4-1.03-3.08 1.06-2-1.76-.7.47-1.76-3.78-5.2-.01-.98-1.7-1.27.46-2.24-2.54-.3.3-5.33-1.85-3.77 4.2-1.49 1.04-1.05.3-2.07 1.98-1.32.86-1.68 1.76-1.3.72-2.82 3.52-.8 2.32-3.34-.5-1.8 1.22-3.7-2.03-1.92-.22-1.08.94-2.12 3.06-1.02 1.5-4.25 1.72-1.67-1.33-3.3.63-1.9 1.57-1.9-.62-1.82 1.17-1.82 3.08-1.3 1.54-1.57-.04-1.33 1.53-.88 1.27-2.19 2.23-2.19-.95-1.05 4.02-4.53.97-1.6-2.34-3.96-3.02-3.06.55-.74-1-2.75.6-3.22-1.13-2.32.87-1.03.28-2.34-.4-2.08-2.85-2.8-2.75-4.71-.57-1.52.68-2.86 3.14-2.86 2.85-.9 2.82-1.55 4.01 2.76 2.52-.47.58-2 3.83-2.4-10.07.1.31-5.05 1.64-3.13.79-2.9-.55-1.56-2.13.26-1.2-1.44 2.06-2.32-.43-1.16.88-2.88-.63-1.77 2.55-1.54.77-1.93 2.49-1.73 2.49-.45.95-3.49 1.34-.79 1.25-2.5 1.7-1.2.33-2.96 1.77-.38.85-1.85 2.69-2.37.57-2.26-.58-2.36-1.91-1.55.72-3.71 1.77-1.6.87-3.07-.28-1.86 1.53-1.8 1.26-3.42-.1-2.23 1.17-.5 1.47-2.67-.1-2 2.16-2.12-1.5-4.62-3.39-1.04-.46-1.28-5.88-4.5-1.47-1.68 1.47-.76 1.53.53 1.01 1.34 2.48.6 2.32-2.4 2.56-1.47 2.27.54.69 1.56 2.4.9 1.8-3.91 3.77-1.3 1.58-2 .12-1.5-1.76-3.63.7-1.33 2.48.25 4.21-1.52 1.29-2.7 2.98-.93 1.82-1.84 1.46-.08 2.18-3.66 4.8-2.12 1.24 2.74 1.9-.67 2.03 1.28.53 6.28 4.04 3.68 1.07-.05 1.42 2.44 1.1.61 2.01 4.18 2.05-.56 2.43.26 2.42-1.5 1.76.27.49 1.2 2.05 1.1 2.44 2.48 1.44-1.94 2.9-1.56 4.05 3.1 3.9-.69 1.67-3.72 2.22-3.38 1.1-4.8 2.36-1.6-.93-2.33 1.54-3.94 2.03-2.85L650.7 0l1.93 22.94 1.2 25.82.88 14.42 2.86 54.32.31 1.9 1.43 26.96 2.22 33.39 1.96 34.75.23 7.42 1.56 31.43 1.2 37.68 1.02 22.47.6 10.17 1.5 36.91.72 14.36-16.62.65-15.84-.7-7.57-.01-24.12.41-32.52 16.9-16.6 8.7-4.7 1.22 8.12 16.35 4.5 5.08-8.72 1.45 3.68 16.7-34.31-11.55-12.1 32.83-40.15-17.86-12.47 33.46 36.17 18.38-8.94 23.85-6.11 15.96-9.9-4.12 2.48 28.61-7.35 20.3-2.08 3.75-2.3 6.19-.5 3.07-38.62-13.63 7.69-11.06 14.66-20.17-36.65-9.74-.06-2.06-2.59-1.09-.7 1.47-10.54-4.47-24.74-11.52-.39-2.22 2.5-.87-1.8-1.18-1.98-.52-1.38 1.01-1.26-.41.42-2.14.28-4.95-1.32-2.93 3.7-3.74-.6-2.63.9-1.45 2-.68.54-2.82 2.14 1.06 1.05-.92z"/>
    <path region="1" short-name="State Senate District 05" long-name="State Senate District 05" value="1" d="m351.54 555.1-1.26-3.06.84-2.5 2.46-.21.84-2.3 2-3.42 4.37-3.01.72-1.32 2.46-1.54 1.6-2.52.33-4.12-.62-3.46.63-1.56 1.66-.06 1.78-1.24 1.47-2.49 24.74 11.51 10.53 4.47.71-1.46 2.59 1.09.06 2.06 36.65 9.74-14.66 20.17-7.7 11.06 38.62 13.63.5-3.07 2.31-6.19 2.08-3.74 3.4 1.67 1.4 1.34.18 1.74 2.22.2.07 2.62 13.75.1-.3 1.94-1 .72-.49 2.85-1.85 2.09.78 4.22 1.73 1.66-.1 2.42 2.58 2.24.22 1.15 1.7 1.25.74 4.2-7.32 4.59-5.39 2.92-8.01 4.73-6.05-14.1-12.1-6.1-10.35 16.14-2.08 3.36-24.12-7.17-4.1 3.55-13.92 22.87-6.26 9.66-13.6 22.16.64 3.5 36.35 5.74-15.16 24.3 5.13 3.08 3.76 3.7 7.71 3.36 2.55 2-3.97 6.75 7.78 4.71-29.6 7.37-9.74 1.17.27-2.08.53-9.53-3.1-4.7 1.19-6.78-17.03-2.14 1.14-8.75-6.88-2.7-1.99 3.05-23.91-9.3-3.87 7.68-4.94-2.08-1.93.61-.73 7.8.66 12.43-15.46-.77-18.2-1.02-1.34-.2.22-3.64 1.4-4.81-.57-5.26.3-1.41 1.95-2.06.76-2.24.23-5.05-1.07-2.61-3.18-2.97-.62-2.04 1.2-5.31 1.4-.33 1.6-2.63.8-2.17-.21-5.34-.4-3.5.76-.94-.08-2.67 1.87-2.3 2.6-1.52 3.87-1.55 4.83-4.43 1.07-.55.08-2.3-1.8-2.92.66-4.02 1.41-2.08-.04-2.38 3.35-1.67.33-5.71 2.28-3.96.74-4.4-.81-1.9.24-4.67 1.54-4.18 2.03-1.93 2.04-3.44 2.63-2.74.96-2.24 2.02-.18 5.34-3.51 3-1.1 1.04-1.3 2.84-5.44 4.13-2.87-.1-5.13 2.88-2.96 1.19-3.24 1.63-1.49.18-2.99-.9-1.83-.3-2.28 1.75-4.1-.19-4.24-1.39-4.21 1.4-3.6 2.24-.4 1.88-.97z"/>
    <path region="2" short-name="State Senate District 07" long-name="State Senate District 07" value="1" d="m384.43 742.26 9.73-1.17 29.61-7.37-7.78-4.71 3.97-6.76-2.55-1.99-7.7-3.36-3.77-3.7-5.13-3.08 15.16-24.3-36.35-5.74-.65-3.5 13.61-22.16 6.26-9.66 13.91-22.87 4.11-3.55 24.12 7.17 2.07-3.36 10.35-16.14 12.11 6.1 6.04 14.1 8.02-4.73 5.39-2.92 7.32-4.6 1.14 2.5-.69 3.17 2.15 3.15.54 1.52-1.12 3.9.66 2.65-.48 2.5-1.26 2.07.26 2.93.95 3.25-.8 1.47.39 1.72-1.25 1.8 1.54 4.13-3.83 2.87.56 2.1-.43 1.37-1.6-.04-4.88 3.66-2.65.25-1.9-.4-.86-2.16-1.54.18-1.88 2.02-1.34-.22-1.56 1.22-.23 1.57 3.08 2.16 1.27 1.87-.78 1.62-1.73 1.16.16 1.6-1.34 2.1 1.9 3.01 1.81.65 1.46 2.43 1.1 2.75 4.87 3.18.33 1.69-1.1 3.3 3.07 3.9.84 2.05 1.96 1.3 1.64.34 2.58 1.59.38 1.66 4.26-1.57 2.21 5.47.67-.27.96 3.12 21.34-8.39 10.04-4.05-1.34 2.21-1.8 1.56.76 1.17-.3 1.6-1.25 1.6-3.14-.16.88 3.85-1.9 5.39-2.7 1.85-1.66-.97-1.57.06-.21 1.62-2.35-.47-1.34 1.98-2.58.75-1.07 1.11-1.26-.55-.54 1.91-1.66 1.16-.55-1.88-1.28-.25-1.15 1.07-1.57-2.32-2.9.3 1.35 2.31.7 2.57-2.5.32 1.26 8.5-4.52.5.05 3.34-.97 3.54-.94.85-1.03 3.92.42 1.97 1.4 1.7v1.5l3 2.29.77 2.05-.6 2.21.37 1.63 1.9 2.27-.57 1.97.9 1.43 2.1-1.41 1.3 1.2-.5 1.2-1.64 1.14 3.4 1.79 2.47-.58 1.24.33-1.85 3.51.42 1.69 3.25-.88.59 1.23-1.3 1.48.71 1.94-.22 1.56-21.96 10.31-15.25 7.44-.67-1.4-17.11 4.67 8.85 19.89 6.38 14.92-17.54 4.61-3.88 1.25-24.63 6.76-1.9-1.03-1.01 1.7-20.24 4.87-11-25.85-3.69-8.44 7.66-2.05-8.95-13.18-1.04-12.13-5.55-.11.57 2.25-23.84-.21-1.13-12.09-1.6.28-1.6-10.43.87.29.92-2.55 2.18.76 2.26-6.22 4.26.77.02-1.1 9.85-4.24 3.6.85 7.46-14.23z"/>
    <path region="3" short-name="State Senate District 22" long-name="State Senate District 22" value="1" d="m573.37 966.87 1.75.04 1.8 1.7.14 3.17 18.4 4.53 10.27-17.21 2.76-6.11-1.52-9.73 9.82-1.56-.45-2.62 1.75-2.59 1.23-.25 2.02 4.31 1.13-1.9 1.45 1.62 1.82-.23 3.27.47 1.98-.2 3.21.92 2.02-2.65 3.1-6.47 2.39-.8 6.97 7.56 3.31.81-2.09 3.14 9.17 6.05-2.93 10.1-18.83-5.68-4.75 2.22-4.38 2.55-4.6 5.43-1.05 1.33 1.18 19.94-11.6-3.41-2.62.45-3.34 1.09-2.67 2.23-3.5 4.04-3.04 5.49-4.21 5.35-9.93-.08-5.97-.36-9.67-.3 6.08-28.61z"/>
    <path region="4" short-name="State Senate District 19" long-name="State Senate District 19" value="1" d="m588.1 910.27 25.14 5.95.1 2.89 6.46.6.03.6 8.93 3.9 8.6.83 7.12.4-5.17 6.67-3.1 6.47-2 2.65-3.22-.93-1.98.21-3.27-.47-1.82.23-1.45-1.62-1.13 1.9-2.02-4.3-1.23.24-1.75 2.59.45 2.62-9.82 1.56 1.52 9.73-2.76 6.1-10.26 17.22-18.41-4.53-.14-3.17-1.8-1.7-1.75-.04-.18-2.46 1.2-2.7.9-.14.96-2.4 1.86-1.58-.43-1.08 1.14-1.65.16-2.06-1.29-.66.57-4.59-.79-.95 4.64-.67-.84-12.66-.9-9.27-2.11-16.03z"/>
    <path region="5" short-name="State Senate District 18" long-name="State Senate District 18" value="1" d="m549.06 919.56-.42-3.2.18-3.01-1.5-4.78-.48-2.67-2.94-2.63-1.26-4.58 1.12-2.89 3.88.2-1.14-2 1.23-.91v-3.03h4.78l1.48.75 5.11-.13-.31-2.26.75-2.44-2.34-.53 2.1-1.76 6.39-1.03 2.78 15.2 1.86 11.06-20.5 3.1-.4.24 2.1 12.9 3.32 19.47 2.69 16.1-3 .38-8.44 1.54-1.4-1.56-1.35-2.09-.27-4.1-1.5-1.53.19-1.59-1.63-4.9.85-2.89-.05-1.65-1.15-4.16.4-1.76 3.63-5.56 2.2-2.53 1.18-2.97 1.23-1.69z"/>
    <path region="6" short-name="State Senate District 10" long-name="State Senate District 10" value="1" d="m273.5 825.15 5.51.58.13 9.14 16.43 1.33-1.21-9.66 12.7.95-.5-2.9 17.03-2.3 2.18-.4 1.72 12.52 3.63 24.93-18 2.07 3.69 28.45 12.54-3.82-2.77-17.54.88-.38 15.67-2.2 6.95.4.08 8.12 5.8.34-.58 3.02 26.78 1.12-.23 5.21 26.56-4.31 5.6-.83.7 4.71-.1 2.57.72 1.9-2.77.47.23.92 2.83-.39.5 1.7.7 2.83-.21 2.62.42 5.76-2.31.6-.03 1.8-2 1.41.5 2.98 14.43-2.34 1.57 11.02 3.24 21.26-3.41.83.9 3.64-1.64.37-25.87 4.97-1.78-11.77-17.84-.36-1.72.05-22.9-1.14 1.35 8.47-2.12.55-.52-2.78-11.33 1.92-.47-1.37-1.95-2.04-3.09-4.58-3.63.4-.04 3.28.33 5.91-2.27-.1.42 3.73-1.56.5.24 2.66-.65 3.75-15.01-.76-2.19 4.3-6.05-1.09-6.28-1.48-1.73-12.63-10.87-.78-29.85-2.31-15.87-1.47-.32-3.32.22-3.2.71-3.58 3.35-1.66 2.54-3.23-.03-3.46.38-1.67 1.36-1.04.29-1.56-.8-3.8.14-4.26-.53-2.04-1.66-1.72.66-1.9 3.8-3.1 2.9-.38 1-.62 3.21-.7 3-2.38 2.18.73 3.36-4.1-1.02-2.5.17-1.52 1.31-2.44 3.1-.42 1.36-1.91-.24-1.63-3.42-2.53-1.64-4.24.76-4.58-1.56-2.58-.4-1.94.98-1.8 2.5-2.29 2.63-2.97 2.48-3.91.28-1.85-2.17-5.37.68-2 1.58-1.43.6-1.57-.08-2.1-2.75-3.99.56-2.11-3.05-1.18-1.36-2.89.1-1.12 1.38-2.13z"/>
    <path region="7" short-name="State Senate District 13" long-name="State Senate District 13" value="1" d="m544.06 963.78.63-2.69 1.41 1.56 1.68 2.1.07 4.99.54 1.22 3.12 3.72 1.16 4.03-.42 2.08.5 3.3 1.4 3.25-1.13 2.56.65 6.75.97 2.2-15.35-.5-.27-1.24-1.72-1.42 1.15-1.36-.3-1.64-1.74-1.12 1.26-1.43-1.73-3.13.02-1.94 2.06-3.8-.2-6.46.14-4.72 1.84 1.22-.1 1.33 2.54.07 1.7-1.03-2.14-4.17 2.97-1.24z"/>
    <path region="8" short-name="State Senate District 14" long-name="State Senate District 14" value="1" d="m546.1 962.65 8.44-1.54 3-.39-2.69-16.09-3.33-19.47-2.09-12.9.4-.24 20.5-3.1-1.86-11.07-2.78-15.2-.03-.1-1.08-2.86-.36-3.17-1.48-5.95 2.96.67.28-.63 28.41 7.4-.49 4.52-1.35 7.04-.9 2.94 1.14.2-1.24 4.78-.44-.07-3 12.85-9.85-2.3 2.12 16.03.9 9.27.83 12.66-4.64.67.79.95-.57 4.6 1.3.65-.17 2.06-1.14 1.65.43 1.08-1.86 1.58-.97 2.4-.88.15-1.2 2.7.17 2.45-.13 3.78-6.08 28.6-12.52-.4-.97-2.2-.65-6.75 1.14-2.56-1.41-3.25-.5-3.3.42-2.08-1.16-4.03-3.12-3.71-.54-1.23-.07-4.98z"/>
    <path region="9" short-name="State Senate District 17" long-name="State Senate District 17" value="1" d="m522.36 714.88 16.68 11.94 4.82 3.66 33.74 24.55 3.17-4.5 15.57-22.73 12.13 8.7 15.07 10.63 6.36 4.67-9.33 11.73-3.96 6.13-10.86 12.04-.1.37L626 799.6l11 9.57 13.18 11.04 16.3 13.77-12.75 21.25-13.47.12-2.52 7.1-22.61-5.44-9.81-2.43-18.29-4.27-28.29-6.85-10.79-2.67-2.58.89-.1-1.77 1.24-4.27-1.55-3.62-4.39-4.13-1.98-.5-1.23-1.1.56-2.64.84-1.57-.58-2.51-1.94.56-.21-1.9 1.5-.38 1.06-1.28-1.48-4.87 1.42-1.66 2.26.62 1.92-1.45.14-2.07-1.34-.08.69-5.47 1.26-.23 3-4.72.47-2.74.93-1.89-13.6-10.05-6.42-12.87-16.21 8.37.22-1.56-.7-1.94 1.29-1.48-.6-1.23-3.24.88-.42-1.69 1.85-3.51-1.24-.33-2.47.58-3.4-1.8 1.65-1.13.5-1.2-1.31-1.2-2.1 1.4-.9-1.42.58-1.97-1.9-2.27-.38-1.63.6-2.21-.77-2.05-3-2.3v-1.5l-1.4-1.69-.42-1.97 1.03-3.92.94-.85.97-3.54-.05-3.34 4.52-.5-1.26-8.5 2.5-.32-.7-2.57-1.35-2.31 2.9-.3 1.57 2.32 1.15-1.07 1.28.25.55 1.88 1.66-1.16.53-1.91 1.26.55 1.07-1.1 2.59-.76 1.34-1.98 2.35.47.2-1.62 1.58-.06z"/>
    <path region="10" short-name="State Senate District 23" long-name="State Senate District 23" value="1" d="m588.1 910.27 3.01-12.85.44.07 1.24-4.78-1.14-.2.9-2.94 1.35-7.04.49-4.53 7.4 2.01-1.75 5.1 13.3 3.76-.12.63 5.1-.2 4.32 1.53 4.9 1.07 2.69-7.94 7.51-21.5 2.52-7.1 13.47-.12 16.64-.11-.33 18.13 2.72 16.68 1.1 7.48-2.18.7.6 3.56 6.33.69 13.53-.65 2.1-.81.9 8.44 1.2 7.14.18 4.71 3.95 1.69 2.35-1.1 4.61.68h2.88l2.32-.5 2.46 1.39 3.08-.14.35 1.67 1.96 1.06.09-1.54 2.2.22 2.77 3.11-.9 1.8-.43 4.6-3.72 1.28-1.82 1.47-3.1 1.53-10.34-8.15-4.59-1.48-3.26-.01-4.46.74-5.08 3.2-4.77 2.67-17.83 3.72-3.64 3.88-2.53 5.88-9.17-6.05 2.1-3.14-3.32-.81-6.97-7.57-2.4.81 5.17-6.67-7.11-.4-8.61-.83-8.93-3.9-.03-.6-6.46-.6-.1-2.9z"/>
    <path region="11" short-name="State Senate District 24" long-name="State Senate District 24" value="1" d="m670.04 873.26 11.57 2.65 3.74 1.16 2.94 1.74.6-.85 2.88-.59.09-2.2-.64-1.46 3.2-3.55 2.42-1.14 1.4-3.94 1.79-2.3 2.96-2 3.94-3.82 1.5 1.84 2.97 2.65 1.84.83 6.24 1.52 1.97-1.4h2.53l.83 4.72 1.43 11.37 2.35 1.26 5.39 1.21 11.49-16.1 2.65-1.08 1.54 1.2 2.52.17 1.1 1.92-.07 2.5-1.88 4.29-2.63 1.79-1.01 1.95-.15 2.08-.77 1.78-1.35.38-1.4 2.7.67.89-1.66 2.33-.26 1.43-1.86.13-1.31 1.75-.85 2.45.06 2.43-2.06 2.14.59 1.37-1.64 2.72-.95.15-1.67 2.27-.29 2.54-2.16 1.56-1.05 3.71-.1 3.43.94 1.06-3.09.6-1.3 3.63-.09 5.46-.4 1.15-2.76-3.11-2.21-.22-.1 1.54-1.95-1.07-.35-1.66-3.08.13-2.46-1.39-2.32.51h-2.88l-4.6-.68-2.36 1.1-3.95-1.69-.17-4.71-1.2-7.14-.9-8.44-2.11.81-13.53.65-6.32-.7-.61-3.55 2.18-.7-1.1-7.48z"/>
    <path region="12" short-name="State Senate District 06" long-name="State Senate District 06" value="1" d="m579.1 647.8 2.88 3.42.77-.14 19.97 18.6 8.35 2.56 5.16 5.35 1.39-.73 1.22-2.55 10.15 7.67 2.75-3.29 6.86-9.58 4.5 25.14 6.35 32.37.86-1.1 2.35 1.4 5.44 4.74.28-.4 15.6 11.89 2.28 1.54 1.56-2.02.33 1.16 2.2 3.36.61 1.65-.2 1.88 2.11 5.38 1.87 1.03 1.08 2.41h1.38l3.97-1.01 1.21.23.54 2.72 1.98 1.9 2.26 1.78.94.02.1 3.74 1.16 1.95 1.4-.03.26 2.31-1.66 1.97 1.96.8.45 1.65-7.97 12.18-1.31 2.31-5.63 8.74-8.8-7.43-16.97-14.64-2.25-2.14L637 809.18l-11-9.57-20.35-17.54.1-.37 10.86-12.04 3.95-6.13 9.34-11.74-6.36-4.66-15.07-10.64-12.13-8.69-15.57 22.73-3.17 4.5-33.74-24.55 2-.85 3.12-4.6 3.13-4.11 6.07-8.92 7.9-10.37 4.5-1.73 15.76-6.67-1.24-9.3-1.93-11.88 1.64-.1 1.49.75 1.6-1.08-.27-3.18-.63-1.57-3.57-.11-1.3-.4z"/>
    <path region="13" short-name="State Senate District 15" long-name="State Senate District 15" value="1" d="m511.63 777.47 16.2-8.37 6.43 12.87 13.6 10.06-.93 1.88-.47 2.74-3 4.72-1.26.23-.69 5.47 1.34.09-.14 2.06-1.92 1.45-2.26-.62-1.42 1.66 1.48 4.87-1.06 1.28-1.5.39.21 1.9 1.94-.57.58 2.52-.84 1.56-.56 2.63 1.23 1.11 1.98.5 4.39 4.13 1.55 3.62-1.24 4.27-12.75 17.48-18.3-13.76-.31-2.28 2.02-2.83-2.28-1.5.84-.8-10.01-7.55-3.82-3.1-28.79 7.72-6.38-14.92-8.85-19.9 17.11-4.65.67 1.4 15.25-7.45z"/>
    <path region="14" short-name="State Senate District 21" long-name="State Senate District 21" value="1" d="m666.48 834 15.43-25.43 2.53-4.01 12.93 14.77 8.7 9.64 12.48 12 3.32.55 1.6-1.72 3.1 2.08 4.09 3.91 2.76 2.21 1.32 1.88 3.06.87 1.38 1.55 1.82 3.58 4 .98 1.05 1.35 8.7-.57.74 5.85-2.12.7-.09 2.88-1.1-1.92-2.52-.16-1.54-1.21-2.65 1.08-11.49 16.1-5.39-1.2-2.35-1.27-1.43-11.37-.83-4.71h-2.53l-1.97 1.39-6.24-1.52-1.84-.83-2.96-2.65-1.52-1.84-3.93 3.81-2.96 2.01-1.8 2.3-1.39 3.94-2.43 1.14-3.2 3.55.65 1.46-.1 2.2-2.88.59-.59.85-2.94-1.74-3.74-1.16-11.57-2.65.33-18.13-16.64.11z"/>
    <path region="15" short-name="State Senate District 02" long-name="State Senate District 02" value="1" d="m467.25 581.56 7.34-20.3-2.47-28.62 9.9 4.12 6.11-15.96 8.94-23.85 2.58 1.3 1.04-3.27 6.67 21.1 9.66 30.96 53.47-8.38 3.55-.5 3.23 17.84 5.9 33.09-9.02.96-47.08 5.87.19 1.47 19.65 19.56 32.2 30.84 3.02 18.56 1.3.4 3.57.12.63 1.57.28 3.18-1.61 1.08-1.5-.74-1.63.09 1.93 11.88 1.24 9.3-15.76 6.67-4.5 1.74-7.9 10.36-6.07 8.92-3.13 4.11-3.11 4.6-2.01.85-4.82-3.66-16.68-11.94 2.7-1.85 1.9-5.39-.88-3.85 3.14.17 1.25-1.6.3-1.6-.76-1.18 1.8-1.56 1.34-2.21-10.04 4.05-21.34 8.4-.96-3.13-.67.27-2.21-5.47-4.26 1.57-.38-1.66-2.58-1.59-1.64-.35-1.96-1.29-.84-2.05-3.07-3.9 1.1-3.3-.33-1.69-4.87-3.18-1.1-2.74-1.46-2.44-1.81-.65-1.9-3 1.34-2.1-.16-1.6 1.73-1.17.78-1.62-1.27-1.87-3.08-2.16.23-1.57 1.56-1.22 1.34.23 1.88-2.03 1.54-.18.87 2.15 1.89.41 2.65-.25 4.88-3.66 1.6.04.43-1.36-.56-2.11 3.83-2.87-1.54-4.14 1.25-1.79-.4-1.72.8-1.47-.94-3.25-.26-2.93 1.26-2.07.48-2.5-.66-2.65 1.12-3.9-.54-1.52-2.15-3.15.7-3.17-1.15-2.5-.74-4.2-1.7-1.24-.22-1.15-2.58-2.24.1-2.42-1.73-1.66-.78-4.22 1.85-2.08.5-2.86 1-.72.28-1.94-13.74-.1-.07-2.63-2.22-.19-.18-1.74-1.4-1.34z"/>
    <path region="16" short-name="State Senate District 04" long-name="State Senate District 04" value="1" d="m637 809.18 21.84-32.59 2.25 2.14 16.97 14.64 8.8 7.43 5.63-8.74 1.31-2.31 7.97-12.18 3.36 1.64 1.32 3.9 2.04.23 1.1 2.1 1.95.46 1 2.94 2.1.2 2.4.94 1.27 4.32 3.75.75 2 1.22.66 3.29 1.59 1.69-.95 2.76-1.04 1-1.07 5.61.02 3.07-1.8.82-.3 1.06 1.33 4.58-1.33 2.12-.22 4.19-1.3 4.16 1.06 3.2.88 4.28 1.87 1.7-1.6 1.72-3.31-.55-12.49-12-8.7-9.64-12.92-14.77-2.53 4L666.48 834l-16.3-13.77z"/>
    <path region="17" short-name="State Senate District 08" long-name="State Senate District 08" value="1" d="m278.55 798.04-1.42-4.24.06-3.28.96-2.11 3.76-1.88 3.79-7.36 1.7-7.77 1.71-3.64-.6-1.54-1.35-1.26-1.7-2.76-.45-1.52 2.58-5.34 2.77-3.5-.34-1.09-3.25-.08-2.6-1.76-.47-1.2-.25-4.03.78-2.95 2.58-2.9 1.01-7.23.05-1.61.97-5.2 1.34.2 18.2 1.02 15.46.76-.66-12.42.72-7.8 1.94-.62 4.93 2.08 3.87-7.69 23.92 9.31 2-3.06 6.87 2.71-1.14 8.75 17.03 2.14-1.18 6.78 3.1 4.7-.54 9.53-.27 2.08-.51 1.57-7.46 14.23-3.6-.85-9.85 4.25-.02 1.1-4.26-.78-2.26 6.22-2.18-.76-.92 2.55-.88-.29 1.61 10.43 1.6-.28 1.13 12.09 23.84.2-.57-2.24 5.55.12 1.03 12.12 8.96 13.18-7.66 2.05 3.69 8.44 11 25.86 20.24-4.88 1.01-1.7 1.9 1.04 24.62-6.77 3.9-1.25 17.53-4.61 28.78-7.73 3.83 3.1 10.01 7.56-.85.8 2.29 1.5-2.02 2.83.3 2.28 18.31 13.76.4 2.38-24.84 4.1-11.05 1.75 1.76 7.77-1.01.22-34.3 7.1 4.25 20.97-17.55 3.19-1.04-2.58-1.66.35-.5-3.23 1.9-.37-.24-1.3-13.94 2.01-1.53-9.18-13.25 1.91-3.73-1.62-.49-1.7-2.84.39-.22-.92 2.77-.47-.71-1.9.09-2.57-.7-4.7-5.6.82-26.56 4.31.23-5.2-26.78-1.13.58-3.02-5.8-.34-.08-8.12-6.95-.4-15.68 2.2-.87.38 2.77 17.54-12.54 3.82-3.7-28.45 18.01-2.07-3.64-24.93-1.7-12.51-2.19.39-17.02 2.3.5 2.9-12.72-.95 1.22 9.66-16.43-1.33-.13-9.14-5.51-.58-.13-4.07 2.11-2.21.32-1.6-1.57-2.64-.23-1.25 3.46-3.88-.77-6.17z"/>
    <path region="18" short-name="State Senate District 03" long-name="State Senate District 03" value="1" d="m670.32 374.94.4 15.04.7 16.57.06 5.13 1.76 51.85 1.03 26.68 1.54 47.82.18 11.49.62 17.98.24 17.88 1.15 15.06.78 14.48.03 5.37 1.73 28.92.82 20.87 1.15.53 1.85 2.24 1.65 1.21.23 2.11 1.15 1.22-.71 2.53-2.74 3.48 1.41 1.39.28 2.5.88 2.36-.78 2.31-.64 5.08-.76.61-2.1 4.4.12 2.29-1.41 1.04.9 1.33 1.8.24 1.1 2.54-1.78 6.13 1.45 2.82.14 1.79-2.1 1.3.11 2.13-1.73 2.38-2.28 1.4-1.08 1.92.04 4.07 1.06 1.6-.01 1.71-1.25.51.6 2.55-.09 2.87-1.56 2.02-2.28-1.54-15.6-11.89-.28.4-5.44-4.75-2.35-1.38-.86 1.1-6.35-32.38-4.5-25.14-6.86 9.58L629 682l-10.14-7.68-1.23 2.55-1.39.73-5.16-5.35-8.35-2.56-19.97-18.6-.77.14-2.88-3.43-32.2-30.84-19.64-19.56-.19-1.47 47.08-5.87 9.03-.97-5.91-33.08-3.23-17.84-3.55.5-53.47 8.38-9.66-30.95-6.67-21.1-1.05 3.27-2.57-1.3-36.17-18.4 12.46-33.45 40.16 17.86 12.1-32.83 34.3 11.55-3.67-16.7 8.72-1.45-4.5-5.08-8.13-16.35 4.72-1.22 16.6-8.7 32.51-16.9 24.12-.41h7.57l15.84.7z"/>
    <path region="19" short-name="State Senate District 12" long-name="State Senate District 12" value="1" d="m450.34 965.9 25.27-3.45 1.55 10.65 6.23-.77-.95-7.33 13.55-1.78.94 7.9 4-1.45 1.2-3.13 1.33-.2 3.34-1.85-.4-2.66 13.61-1.84.48 4.22 1.99-3.34 1.54-1.72 2.65 1.47 1.31-.28 3.7.7 2.1-1.75 3.5.06.61 1.24-.67 1.81.63.98 3.45.52 1 .9 1.76-1.02.71 2.49-2.97 1.24 2.14 4.17-1.7 1.03-2.53-.07.09-1.33-1.84-1.21-.14 4.71.2 6.47-2.06 3.79-.02 1.94 1.73 3.13-1.26 1.43 1.74 1.12.3 1.64-1.15 1.36 1.72 1.42.27 1.24-45.16-1.44-25.91-.77-42.17-1.55-22.78-.7-26.8-1.11-3.5-28.94 21.37 1.01 19.16.83 12.03.2 21.84.6z"/>
    <path region="20" short-name="State Senate District 09" long-name="State Senate District 09" value="1" d="m245.11 939.48 15.87 1.47 29.85 2.31 10.88.78 1.72 12.63 6.29 1.48 6.04 1.08 2.19-4.3 15.01.77.65-3.75-.24-2.66 1.56-.5-.42-3.72 2.27.1-.33-5.92.04-3.27 3.63-.4 3.09 4.57 1.95 2.04.47 1.37 11.33-1.92.53 2.78 2.12-.55-1.35-8.47 22.9 1.14 1.72-.05 17.83.36 1.78 11.77 25.87-4.97 1.64-.37-.9-3.64 3.41-.83-3.24-21.26-1.57-11.02-14.43 2.34-.5-2.98 2-1.4.03-1.8 2.3-.61-.41-5.76.22-2.62-.72-2.83 3.73 1.62 13.25-1.91 1.53 9.18 13.95-2 .22 1.29-1.88.36.49 3.24 1.66-.35 1.04 2.58 17.56-3.19-4.25-20.97 34.29-7.1-.73 2.7 2.6 1.09 2.23 9.86 2 10.34 17.55-2.6 15.56-2.42.54-.08 1 6.99 4.11-.81 1.26 4.58 2.94 2.63.48 2.67 1.5 4.78-.18 3 .42 3.2-32.49 5.58-3.2-17.7-16.33 2.93.94 4.17-1.37.27 1.39 8.12-1.14.16 1.89 5.94-7.8 1.4.38 2.68-1.14.24.41 2.89-8.28 1.16.51 2.83-6.18 1.5-3.98.58-1.39-9.2-25.7 3.77 4.76 29.03-2.97.59-21.84-.6-12.03-.2-19.16-.84-21.36-1 3.48 28.93-12.65-.53-44.5-1.5-47.58-1.96-.69-2.38-3.33-4.77-.79-4.43-.94-2.03-1.52-.9-1.72-2.61-2.11.18-.53 1.63-3.42 1.44-1-1.82 2.3-2.23-.13-2-2.62-4.03-5.86-5.33-.83-4.46-.6-1.42-1.03-8.1-1.35-1.76-1.05-2.37z"/>
    <path region="21" short-name="State Senate District 11" long-name="State Senate District 11" value="1" d="m549.06 919.56-.63 4.11-1.23 1.69-1.17 2.97-2.21 2.53-3.63 5.56-.4 1.76 1.16 4.16.04 1.65-.85 2.88 1.63 4.91-.19 1.59 1.5 1.54.27 4.1 1.34 2.08-.63 2.69-1.75 1.02-1.01-.9-3.45-.52-.63-.98.67-1.81-.61-1.24-3.5-.06-2.1 1.74-3.7-.69-1.3.28-2.66-1.48-1.54 1.72-1.99 3.35-.48-4.23-13.62 1.85.4 2.66-3.33 1.85-1.34.2-1.18 3.13-4 1.44-.95-7.89-13.55 1.78.95 7.33-6.23.77-1.55-10.65-25.27 3.45-4.77-29.03 25.71-3.77 1.39 9.2 3.98-.59 6.18-1.5-.51-2.82 8.28-1.16-.4-2.89 1.13-.24-.38-2.68 7.8-1.4-1.89-5.94 1.14-.16-1.39-8.12 1.37-.27-.94-4.17 16.34-2.93 3.2 17.7z"/>
    <path region="22" short-name="State Senate District 16" long-name="State Senate District 16" value="1" d="m532.52 857.4 12.75-17.48.1 1.77 2.58-.89 10.8 2.67 28.28 6.85 18.29 4.27 9.8 2.43 22.62 5.45-7.51 21.49-2.68 7.94-4.91-1.07-4.31-1.53-5.11.2.12-.63-13.3-3.76 1.75-5.1-7.4-2-28.41-7.4-.28.63-2.96-.67 1.48 5.95.35 3.17 1.09 2.85-13.3-3.42 1.17 1.9-1.95 1.8-6.83.98-1.27-1.05-2-5.66.18-1.55 1.46-2.49-.46-1.18-2.14-1.54-1.53-3.8-6.52.81 3.13 17.97 1.39 7.28-15.56 2.41-17.55 2.6-2-10.33-2.22-9.86-2.6-1.09.72-2.7 1.01-.22-1.76-7.77 11.05-1.74 24.83-4.1z"/>
    <path region="23" short-name="State Senate District 20" long-name="State Senate District 20" value="1" d="m565.66 882.54.03.12-6.39 1.03-2.1 1.76 2.34.53-.75 2.44.31 2.26-5.11.13-1.48-.76h-4.78v3.03l-1.23.91 1.14 2.02-3.88-.2-1.12 2.88-4.11.8-1-6.98-.54.08-1.39-7.28-3.13-17.97 6.52-.81 1.53 3.8 2.14 1.54.46 1.18-1.46 2.5-.19 1.54 2.01 5.65 1.27 1.06 6.83-.97 1.95-1.8-1.17-1.9z"/>
  </g>
</svg>
