<svg country="usa" type="vt_upper" date="2022" variant="blank" title="Vermont 2022 State Senate" viewBox="0 0 621.09 1000" default-mode="split" auto-border-stroke-width="1" auto-border-stroke-width-limit=".5" original-source='["https://www2.census.gov/geo/tiger/GENZ2022/shp/cb_2022_us_sldl_500k.zip"]' candidates="[{&quot;id&quot;:&quot;0&quot;,&quot;name&quot;:&quot;Democrats&quot;,&quot;margins&quot;:[{&quot;color&quot;:&quot;#1C408C&quot;},{&quot;color&quot;:&quot;#577CCC&quot;},{&quot;color&quot;:&quot;#8AAFFF&quot;},{&quot;color&quot;:&quot;#949BB3&quot;}]},{&quot;id&quot;:&quot;1&quot;,&quot;name&quot;:&quot;Republicans&quot;,&quot;margins&quot;:[{&quot;color&quot;:&quot;#BF1D29&quot;},{&quot;color&quot;:&quot;#FF5865&quot;},{&quot;color&quot;:&quot;#FF8B98&quot;},{&quot;color&quot;:&quot;#CF8980&quot;}]},{&quot;id&quot;:&quot;2&quot;,&quot;name&quot;:&quot;Progressive&quot;,&quot;margins&quot;:[{&quot;color&quot;:&quot;#1c8c28&quot;},{&quot;color&quot;:&quot;#50c85e&quot;},{&quot;color&quot;:&quot;#8aff97&quot;},{&quot;color&quot;:&quot;#7a997e&quot;}]}]" version="1.1" xmlns="http://www.w3.org/2000/svg">
  <g regions transform="translate(-189.45)">
    <path region="0" short-name="Grand Isle Senate District" long-name="Grand Isle Senate District" value="1" d="m219.34 45.76 1.78-.03 4.17 1.25 3.64 5.25.28 2.64-1.4 10.6-.3 4.93-1.12 3.61-.01 2.63 5.28.77 2.75 1.14 1.17-1.47.28-2.25 2.95-7.94 1.45-5.03 1.08-7.5 1.55-3.45 1.94-3.04 2.25-5.26 2.83-2.41 4.6-.72 2.28 4.47 5.7 3.01 3.26.23 1.27 2.21-.21 5.82-1.16 4.24-.24 3.35-2.17 4.2-.06 1.85-1.12 4.38-.15 2.6 1.16 2.64.2 2.89-2.39 5.12-4.19 1.75-4.06 3.77-2.74 4.47-3.2 7.28-.94 4.02.29 4.66 2.47 5.93 6.7 12.12-.17 6.08.41 9.24-1.75 7.45.13 9.58-.77 1.26-5.38 2.6-1.34 5.35.8 9.32 4-.9 1.97-1.5 1.8.34 3.98 3.27 4.14.8 1.74-1.93 18.99 9.75 12.66 6.7-9.81 18.61-5 9.23-2.38.9-1.12 2.52-4.42-1.9-2.88-3.15-1 3.82-3.03-1.57-2.9 5.23-.62-3.02-2.85-1.96-1.45-2.34-2.03 2.05-1.15-.5-.25-2.25-3.3-1.8.31-2.79-1.67-2.74-5.55 2.56-2.15-1.87 1.31-3.27-.86-2.1-2.7 1.08 1.26 2.3-1.78.91-.09.24-14.14 6.34-.3-4.57-2.04-1.4-.97-3.29-2.32-3.26.07-2.1-1.31-1.7-4.37-2.66-1.03-2.04-2.27-2.2-2.24-3.5-.4-2.91-1.94-3.22 1.24-2 .33-2.54-1.22-2.5-.7-3.07-2.16-2.22 1.23-6.12-.28-2.35 2.6-2.26-1.46-1.9 1.64-3.17-.35-1.7 2.84-4.12-.84-1.18.51-3.89 1.22-.43-.92-2.81 1.53-1.2 1.25-3.08-1.47-1.35.29-12.44-.16-7.15.56-1.53 2.97-4.45 2.3-7.85 3.57-4.03.8-2.96-.72-7.03-4.64-5.23-1.03-1.77-3.84-2.7-1.78-1.9-1.27-2.47-1.29-.75-.6-3.12.48-5.33 2.48-2.39.9-1.9 2.76-13.57 2.1-4.5z"/>
    <path region="1" short-name="Windsor Senate District" long-name="Windsor Senate District" value="3" d="m366.94 518.83 11.18 4.52 2.42-4.3 10.62 4.35 1.64 5.57 2.3 1.11-1.23 3.23 1.73.91 3.7-8.84 1.57.57 12.8-27.79 4.1-9.08.97-1.52 2.04.8 11.6 4.53 19.46 7.34 10.89 4.52 34.63 14.75 7.56 2.78 9.58 2.73 18.56 6.05 2.13.5 4.7-9.23 16.64-29.78 32.27 12.3.35 1.1-2.14 1.12-2.56.45-1.6 4.1 1.6 4.82.2 4.83-1.98 4.69.33 2.6 1.03 2.1-.2 3.4-1.87 1.7-1.36 3.7-3.29 3.38.12 5.86-4.7 3.27-3.26 6.22-1.18 1.48-3.42 1.25-6.1 4-2.31.22-1.1 2.56-3 3.12-2.33 3.94-2.32 2.2-1.75 4.77-.28 5.33.92 2.17-.84 5.03-2.6 4.51-.38 6.52-3.83 1.91.05 2.72-1.61 2.37-.75 4.6 2.05 3.33-.09 2.62-1.22.63-5.52 5.06-4.4 1.77-2.98 1.73-2.13 2.62.09 3.06-.87 1.07.45 4 .25 6.1-.92 2.47-1.82 3-1.61.38-1.37 6.06.71 2.33 3.63 3.39 1.22 2.98-.26 5.77-.87 2.56-2.21 2.35-.35 1.6.65 6-1.6 5.5-.25 4.17-1.11 5.93-.05 1.85-1.16 8.25-2.94 3.31-.89 3.36.28 4.61.54 1.37 2.97 2 3.7.1.4 1.25-3.17 4-2.95 6.1.52 1.72 1.94 3.16 1.55 1.43.68 1.77-1.95 4.15-1.95 8.86-4.32 8.41-4.3 2.15-1.09 2.4-.08 3.75 1.63 4.84-.27-.1-20.14-.69-15.9-.44-40.01 5.1-2.9.65-14.1-4.63-8.37-2.76-19.76-7.05-.09-18.75-15.34-.5 1.15-20.85 3.24-.25.72-11.69 9.57.25-1.24-2.87L402.9 730l.3-.15-1.16-7.49 7.54-19.76 4.99-18.66-1.51-.43.99-3.08-14.85-4.61.7-5.51-6.54-1.32 2.54-21.44 2.64-15.59.62-4.9 4.27 1.6 10.62-23.75 7.68-18.5-40.09-14.78-2.76-.4 3.1-7.98-14.6-29.38-.6-14.48z"/>
    <path region="2" short-name="Windham Senate District" long-name="Windham Senate District" value="2" d="m349.2 994.73.62-21.04.7-17.83 38.71 1.34 1.68-41.07-25.26-1.63-14.42-.59 1.14-28.07 12.82.75.54-11.44.76.03.94-15.58 2.36-48.5 29.4 10.54-.62-4.57.98-5.72 1.55-1.76.43-2.51-.44-2.36 1.71-2.52 1.76-1.16 5.77-8.28-.7-2.9 1.25-3.47 2.04-1.32-.77-2.97 14.1 4.63 2.9-.65 40-5.1 15.91.44 20.14.7.27.1-2.12 6.04.88 7.03-3.96 4.44.27 1.43 1.79 3-.36 1.83-2.41 2.53.14 4.65.17 2.67-1.57 2.43-.1 1.28 1.54 3.3 3.48 1.34-.63 2.42 3.13 4.54.1 2.4-.69 1.8-1.8 1.63-.78 2.28 2.47 6.13-.31 2.11-2.84 4.47-3 3.4-2.86 2.61-1.11 2.05.46 2.22 1.77 2.94-.86 5.23 1.88 4.84 3.9 2.9.28 1.85-1.56 2.19-3.54.47-1.5 2.8-.2 1.72 1.17 2.87-3.84 4.67-2.48-.83-3.43 2.72-3.66.79-1.15.7-3.32.44-4.33 3.53-.74 2.18 1.89 1.96.6 2.33-.15 4.87.9 4.33-.32 1.78-1.56 1.2-.43 1.9.04 3.96-2.91 3.68-3.82 1.9-.81 4.1-.25 3.63.36 3.8-.69 2.18 1.2 2.71 1.54 2.02 1.19 9.25.68 1.61.95 5.1 6.69 6.08 2.98 4.6.16 2.28-2.63 2.55 1.14 2.07 3.9-1.64.6-1.85 2.42-.21 1.96 2.97 1.74 1.04 1.08 2.32.9 5.05 3.8 5.45.78 2.72-49.68-1.88-18.36-.69-42.32-1.6z"/>
    <path region="3" short-name="Essex Senate District" long-name="Essex Senate District" value="1" d="m799.05 1.47 11.5-.12-4.38 2.73-.66 2.3-2.87.53-4.59-3.15-3.2 1.76-3.26 1.04-3.6 3.26-.76 3.27.64 1.73 3.15 5.39 3.26 3.19.44 2.38-.32 2.66-.99 1.17 1.28 2.65-.68 3.69 1.15 3.14-.63.84 3.45 3.5 2.66 4.5-1.1 1.84-4.58 5.17 1.07 1.2-2.54 2.5-1.45 2.5-1.74 1 .04 1.53-1.76 1.79-3.52 1.48-1.33 2.07.7 2.1-1.8 2.17-.7 2.15 1.52 3.78-1.98 1.9-1.7 4.85-3.5 1.17-1.07 2.42.25 1.23 2.32 2.2-1.4 4.22.57 2.05-2.64 3.82-4.02.9-.82 3.23-2.01 1.48-.99 1.92-2.25 1.5-.34 2.37-1.2 1.2-4.8 1.7 2.13 4.3-.35 6.08 2.9.35-.53 2.56 1.94 1.46.02 1.1 4.31 5.94-.53 2.01 2 .8-1.2 2.29 1.17 3.52-.59 2.74 3.13 1.45-.25 1.72.58 3.25-.2 2.31 1.4 1.08.78 1.98 3.08.3 1.96-.9.36 2.44 1.2 2.48-1.7 2.02 3.5 2.9-1.38 4.65.91 4.99-.5 1.89-2.1.4.46 1.48 1.97.8.25 2.12 4.25 1.41.85 2.09-1.04 1.95-1.9 1.33-1.7-1.57-.94.77 2.12 3.08-.38 1.34-2.67-.28-.38 2.57-3.32.74-1.42-.76-4.26-.58-2.67 2.17-.31 3.11 3.08 2.84 4.06 3 .78 1.62-.81 2.3-2.65 3.71-3.56.74 2.26 2.83 1.33 3.13 1.9 1.8-3.85 2.6-1.52-1.25-.42 3.37-1.3 3.14-3.2.92-2.62-.72-2.12 4.7-2.27.51-.52-1.85 2.23-.89-.41-1.75-1.62.14-1.74 2.64-2.07 1.2-.2 2.76 2.06 1.99-1.43 1.68-2.84.04-1.2 2.36-.18 2.89-.87 3.15-1.18 1.62-4.98 1.52 1.03 2.48-2.1.6-.4 1.49-5.74 4.47-3.91 1.88-2.52-.58-4.41.63-1.8 3.54-2.27-.24-2.06-1.96-2.8-.08-4.29 2.99-3.8-.2-3.67 3.03-.36 1.32 1.13 1.95-1.12 1.15-1.69-.23-1.75.85-.44 2.85 1.06 1.29-1.22 2.26 1.22 4.44-2.02 1.93-4.54 1.23-1.42 1.06L663.03 255l-7.86-22.14-13.39-2.95-26.06-5.45 8.13-38.9 23.92 4.77 15.69 3.28-.59 3.62 4.14 1.05 7.02 5.2 17.6-23.42-21.36-15.9 7.73-10.22 15.3-20.57-32.19-23.52-11.18-7.88 14.33-18.82 2.94-3.22-46.41-34.4L604.4 67.7l-20.1-15.33-1.49-.86-17.38-13.22 1.25-1.7-1.38-1.01 1.66-3.18-1.22-1.83.33-1.7 2.3.58 2.38-1.4-1.73-14.27-4.69-8.42 27.14-.7 18.09.27 25.1-.54 11.52-.48 12.44-.21 10.13.25 46.44-1.62H739l25.83-.57 15.5.07z"/>
    <path region="4" short-name="Chittenden South East Senate District" long-name="Chittenden South East Senate District" value="3" d="m226.17 222.43 14.14-6.34.1-.24 1.46 2.52.7 3.57-2.5 4.51 1.42 2.11-.46 1.71 5.85 9.69 8.63-.19.21 1.03 5.2-.2.64 1.41 2.6.33-.27 1.73 2.78-.42.76-2.48 6.02-7.32 1.3 1.03 1.2-1.3 2.65.6 3.34-.76-1.26-1.44 2.4-1.78.18 3.1-1.05 1.1-.42 3.41 2.5 1.01.58 1.5 3.21-.91 3.82-2.9 4.4 4.67 2.18-3.81 2.01 1.06 1.52-1.33 1.88-.28 1.77 1.52 2.28.43 1.38 2.16 1.53-1.29 1.02 1.94 4.13.36 1.18 1.05 19.09-36.2 19.31-35.73 16.22 22.75 9.88 12.84 5.38 1.75-6.55 13.38 8.52 4.5-1.34 2.72-9.66 18.01 10.59 3.33-10.74 21.3 10.9 5.68-6.68 13.3-2.1.5-7.37-2.72-7.43 15.7-22.9-6.95-25.38-7.5 5.12 33.93-16.84 2.39-.18-1.72-3.07.67-22.62 4.33-3.03.4-11 2.16-23.17 2.87-13.55-1.8.76-4.41-.4-2.55-1.43-3.36-1.71-6.09-.62-3.74.07-10.48-1.05-4.63-2.3-5.5-.09-3.34.43-3.45 1.01-1.63 2.96-2.94 1.87-2.58 1.43-6.2 4.55-11.35.76-5.38-2.05-6.24.44-4.08-.37-5.6-1.42-4-.72-6.45z"/>
    <path region="5" short-name="Lamoille Senate District" long-name="Lamoille Senate District" value="1" d="m325.76 113.78 45.08 9.77 22.77 4.62 1.73-.14 1.02-5.24 1.9-1.3 1.82-9.67 3.16.6 1.1-5.94 2.92.5-.34-6.3 5.6-6.18 15.95.7 20.4.9-.99 2.04 5.93 3.9 1.1-1.44 4.82 4.17 24.62 12.53 24.55 12.41 1.75.76-2 3.67-18.61 35.64 35.17 18.03.84.21-1.72 3.84-17.2 31.63-1.83 2.85-2.66 5.3-8.17 15.27-.5 2.21-2.17 4.27-2.37 2.49-.11 1.04-2.67 5.64L454 238.12l-29.56-16.7-5.17-2.79 4.8-9.47-12.6-3.33-6.14-2.8-.42.75-5.17-2.74-4.63 9.87-8.05-2.5-5.38-1.76-9.88-12.84-16.22-22.75-4.37-.8.03-3.95-1.11-1.68 1.46-1.93-13.38-24.85z"/>
    <path region="6" short-name="Addison Senate District" long-name="Addison Senate District" value="2" d="m228.58 332.88 13.55 1.8 23.16-2.87 11.01-2.15 3.03-.4 22.62-4.34 3.07-.67.18 1.72 16.84-2.4-5.12-33.92 25.39 7.5 22.9 6.95-1.56 3.23-6.8 18.36 3.45 1.08-3.6 10.45-9.17 25.77-3.63 9.99-1.62 5.04 5.71-.62.6 3.21 3.28 26.66 1.57 10 6.25-.78 15.19 5.78 33.5 13.5-3.74 7.72L393 465.26l1.27.61-1.5 3.01 2.07.78-1.5 3 5.63 2.58-1.39 2.86 1.96.8-1.35 2.8 19.57 7.38-4.1 9.08-12.8 27.79-1.56-.57-3.7 8.84-1.73-.91 1.22-3.23-2.3-1.1-1.64-5.58-10.62-4.35-2.42 4.3-11.18-4.52-.2-8.05-16.99 8.78-19.18 10.18-8.71 4.26-3.07-16.26-.97-2-23.98 1.07-15.76.85.19 1.15-19.95 1.04 3.98 30.75-7.7.98-41.6 4.95 2.62-4.8 1.26-3.38-1.3-2.08-.88-4.02-1.56-1.86-4.37-3.74-.6-3.15-1.57-3.19-2.21-1.77-.78-2.1 1.38-4.46 2.05-2.14 1.66-.9 1.37-2.6-2.75-3.19-.16-2.88 2.3-6.52-.67-2.67-2.26-4.66-3.9-5.28-1.59-6.12-2.41-6.94.96-6.94-.4-8.1-1.83-5.53 2.1-13.79-.02-2.07-1.5-4.7-3.88-2.54-1.54-2.17-2.8-2.13-.27-1.06 1.81-8.08.87-7 4.07-8.76 1.57-5.82-.13-2.13-1.27-6.7 4.21-5.71 1.15-7.2 1-1.7-.57-2.4.48-1.84 1.95-2.4-.36-3.43 2.14-1.8.55-1.76 2.19-1.18 1.45-2.05 2.73-1.76 2.12-4.83.17-1.78 1.24-1.03.29-1.94 2.38-1.83-.29-1.55 2.03-.66 1.98-2.06 2.17.15 1.2-2.48z"/>
    <path region="7" short-name="Rutland Senate District" long-name="Rutland Senate District" value="3" d="m213 556.53 41.6-4.95 7.7-.98-3.98-30.75 19.95-1.04-.19-1.15 15.76-.85 23.98-1.08.97 2.01 3.07 16.26 8.7-4.26 19.2-10.18 16.98-8.78.2 8.05-.15.56.6 14.48 14.6 29.38-3.11 7.97 2.76.4 40.1 14.78-7.7 18.52-10.61 23.74-4.27-1.6-.62 4.9-2.64 15.6-2.54 21.43 6.55 1.32-.7 5.51 14.84 4.6-1 3.1 1.52.42-4.99 18.66-7.54 19.76 1.16 7.49-.3.15-20.87-12.37 1.24 2.87-9.57-.24-.72 11.69-3.24.25-1.15 20.84-33.57-1.57-.19 5.88-5.18-.07 1.5-6.18-18.64-.89-14.4.06-23.92-1.92-27.07-1.35.62-24.46 1.31-43.1.5-24 1.55-1.59-.05-2.39-1.43-3-1.11-.69-.1-3.04.57-1.49-1.25-1.3-1.9-3.52-3.38-3.05-3.26-.98-1.63-2.19-2.72.33.37-2.86-1.43-.97 1.16-2.27.31-4.35-2.53-3.59-.56-5.89-1.31-1.59-1.38 1.7-2.19-1.41-3.33.62-4.42-.06-1.71 1.55-3.45-1.12-4.38 1.01.8 1.6-1.91 2.82 1.15 2.86-1.52 3.23-1.98.53.56 1.91-1.44.74 1.21 2.26-.88 1.22.85 1.76-.52 1.6-1.75.36-.7 2.08-1.94.8-2.36-1.35-3.57-2.85-1.07-1.63-2.6-1.1-.53-2.83 2.74-5.43-.66-4.06 1.85-3.58-.15-1.19-3.02-4.83.45-3.55 2.43-2.3 1.02-1.98.3-2.51 2.05-4.89 1.44-6.64-.56-1.6 1-2.06 2.63-2.65 2.47-5.29 2.55-2.77 2.25-3.32.28-8.25z"/>
    <path region="8" short-name="Washington Senate District" long-name="Washington Senate District" value="3" d="m365.2 304.1 7.43-15.7 7.37 2.72 2.1-.5 6.69-13.3-10.91-5.68 10.74-21.3-10.59-3.33 9.66-18 1.34-2.73-8.52-4.5 6.55-13.38 8.05 2.5 4.63-9.87 5.17 2.75.42-.75 6.14 2.8 12.6 3.33-4.8 9.47 5.17 2.78L454 238.12l32.65 24.44 2.67-5.64.1-1.05 2.39-2.48 2.16-4.27.5-2.2 8.17-15.27 2.66-5.31 34.12 18.35 32.14 17.47 1.37 2.97-.81 1.72 1.56 1.29-16.7 31.23-14.7 18.3.06 11.68-5.81 10.86-.56.57-10.07 18.6 20.04 9.13-2.31 11.57-5.93 28.2-5.01-1.46-30.24-14.5-3.83-1.99-20.9-8.2-11.9-4.77-1.34 3.57-7.1-2.4-13.4 31.75-1.69-.64-15.23 33.5 14.35 5.32-10.68 20.56-9.95 19.34-2.04-.8-.97 1.52-19.57-7.38 1.35-2.8-1.96-.8 1.39-2.86-5.63-2.58 1.5-3-2.07-.78 1.5-3-1.27-.62 11.63-21.77 3.73-7.72-33.5-13.5-15.18-5.78-6.25.78-1.57-10-3.27-26.66-.61-3.2-5.7.61 1.6-5.04 3.64-10 9.16-25.76 3.6-10.45-3.45-1.08 6.81-18.36z"/>
    <path region="9" short-name="Chittenden Central Senate District" long-name="Chittenden Central Senate District" value="3" d="m240.4 215.85 1.78-.9-1.26-2.3 2.7-1.09.86 2.1-1.31 3.27 2.15 1.87 5.55-2.56 1.67 2.74-.31 2.8 3.3 1.8.25 2.23 1.15.51 2.03-2.05 1.45 2.34 2.85 1.96.61 3.02 2.9-5.22 3.05 1.56 1-3.81 2.87 3.15 4.42 1.9 1.12-2.53 2.38-.9 5-9.23 1.02.88 1.26 3.57 3.2.65 4.5 1.78 2.82 2.53 1.55-1.38 5.6-.32 1.98-.43 1.2 1.2 5.38 2.03-3.46 4.47-.25 5.07.33 1.75-5.53-.42-.55.45-1.77-1.52-1.88.28-1.52 1.33-2.01-1.06-2.18 3.8-4.4-4.67-3.82 2.9-3.21.92-.58-1.5-2.5-1 .42-3.42 1.05-1.1-.17-3.1-2.41 1.78 1.26 1.44-3.34.76-2.64-.6-1.21 1.3-1.3-1.03-6.02 7.32-.76 2.48-2.78.42.27-1.73-2.6-.33-.65-1.41-5.19.2-.21-1.03-8.63.19-5.85-9.69.46-1.7-1.43-2.12 2.5-4.51-.69-3.57z"/>
    <path region="10" short-name="Franklin Senate District" long-name="Franklin Senate District" value="2" d="m219.24 2.6 29.52-.6 2.6-.26L300.18.52l.31.33 6.26-.02 1.7-.48 3.56.48 10.58-.08 14.7.39 9.96-.07 1.83-.4L375.83 0l21.5.35 32.28.18 26.72 1 2.37.75 8.96 1.46 5.47 36.55-42.77 2.03 3.41 36.18-5.31.32.02 16.37-15.97-.69-5.59 6.19.34 6.29-2.92-.5-1.1 5.93-3.16-.6-1.83 9.68-1.89 1.3-1.02 5.24-1.73.14-22.77-4.62-45.08-9.77-25.22-5.5 2.18 8.3 8.58 31.58 3.97 14.07-16.53-9.08-21.56-11.18-21.98-11.48-6.7-12.12-2.46-5.93-.29-4.66.94-4.02 3.2-7.28 2.74-4.47 4.06-3.77 4.19-1.75 2.4-5.12-.21-2.89-1.16-2.64.15-2.6 1.12-4.38.06-1.86 2.17-4.19.24-3.35 1.16-4.24.2-5.82-1.26-2.21-3.26-.23-5.7-3-2.27-4.48-4.61.72-2.83 2.41-2.25 5.26-1.94 3.04-1.55 3.46-1.08 7.49-1.45 5.02-2.95 7.95-.28 2.25-1.18 1.47-2.74-1.14-5.28-.77v-2.63l1.12-3.6.31-4.94 1.4-10.6-.28-2.65-3.64-5.24-4.17-1.25-1.78.03 1.2-1.73.16-2.85-.36-8.57.54-7.63-.26-2.38-1.9-2.04-2.56-4.53-.55-2.98 1.4-3.1z"/>
    <path region="11" short-name="Bennington Senate District" long-name="Bennington Senate District" value="2" d="m247.12 747 27.06 1.35 23.92 1.92 14.4-.06 18.65.9-1.5 6.17 5.18.07.19-5.88 33.57 1.57 15.34.5.09 18.75 19.76 7.05 8.37 2.76.77 2.97-2.04 1.32-1.25 3.47.7 2.9-5.77 8.28-1.76 1.16-1.71 2.52.44 2.36-.43 2.51-1.55 1.76-.97 5.72.6 4.57-29.39-10.55-2.36 48.51-.94 15.58-.76-.03-.54 11.44-12.82-.75-1.14 28.07 14.42.6 25.26 1.62-1.68 41.07-38.7-1.34-.7 17.83-.64 21.04-27.82-.81-39.04-1.06-38.5-1.04-3.6-.03-4.57-23.98 2.26-5.12-1.04-2.7.53-5.98 2.11.3.9-27.42.45-19.45 1.45-40.2 1.32-25.99 2.16-57.68.7-12.68z"/>
    <path region="12" short-name="Orange Senate District" long-name="Orange Senate District" value="1" d="m420.78 488.36 9.95-19.34 10.68-20.56-14.35-5.32 15.23-33.5 1.7.64 13.39-31.75 7.1 2.4 1.35-3.57 11.89 4.76 20.9 8.21 3.83 2 30.24 14.49 5.01 1.46 5.93-28.2 2.3-11.57 26.82-2.7 14.37-1.5 1.16.3-7.56 36.33-4.05 18.9 30.7 12.13 9.72 3.79-.8 2.64-1.19 1.04-2.45-1.2-.6 3.21-2.3.78-1.02 1.66.67 3-4.22 4.27 1.52 3.34-.32 5.66-.48 2.44 1.44.47 1.57-1.15 2.25.59 2.07 1.35-2.85 1 .44 2.53-1.69 2.84-2.02 1.41-1.9.07-.72 1.79.71 3.94-.38 4.71-1.82 2.87-2.81 1.76-.83 1.5-4.98 3.44-2.3 3.91-.95 2.62-2.81.25-.95 2.85 1.44 3.5-32.28-12.3-16.64 29.78-4.7 9.23-2.12-.5L514.5 525l-9.6-2.73-7.54-2.78-34.64-14.75-10.9-4.52-19.46-7.34z"/>
    <path region="13" short-name="Orleans Senate District" long-name="Orleans Senate District" value="1" d="m467.66 3.74 6.73.18 16.2-.45 10.13.15 14.97.86 16.6.43 12.12.8 5.73-.3 6.6.14 7.6-.2 4.7 8.43 1.72 14.26-2.39 1.4-2.29-.56-.32 1.69 1.21 1.83-1.66 3.18 1.38 1.02-1.25 1.68 17.38 13.23 1.49.86 20.1 15.33 16.38-22.19 46.41 34.41-2.94 3.22-14.33 18.81 11.19 7.9 32.17 23.51-15.28 20.57-7.74 10.22 21.35 15.9-17.6 23.42-7.01-5.2-4.14-1.05.59-3.62-15.7-3.28-23.91-4.76-2.74-11.09-6.87 13.5-2.07 3.69-10.94-5.69-20.38-10.25-2.58-1.52-1.46 3.26-17.55 32.81-12.45-6.62-20.17-10.3-2.31-1.5 1.72-3.83-.84-.21-35.17-18.03 18.62-35.64 1.99-3.67-1.75-.76-24.55-12.4-24.62-12.55-4.82-4.17-1.1 1.44-5.93-3.9.99-2.02-20.4-.92-.01-16.37 5.31-.32-3.41-36.18 42.77-2.03z"/>
    <path region="14" short-name="Caledonia Senate District" long-name="Caledonia Senate District" value="1" d="m505.3 226.34 1.84-2.85 17.19-31.63 2.3 1.5 20.18 10.29 12.45 6.62 17.55-32.8 1.46-3.27 2.58 1.52 20.38 10.25 10.94 5.69 2.07-3.69 6.87-13.5 2.74 11.09-8.13 38.9 26.06 5.44 13.4 2.95 7.85 22.14 30.04 41.15-4.68 3.02-2.93.33-3.31 1.54-9.4-4.79-2.23-.4-2.52.83-2.41 1.98-1.27 1.96-1.98.8-3.07-.88-5.66.53-5.66-.42-1.1.56-.59 2.2-5.48 3.14-4.72 1.7-3.2-.95-1.18.86.28 2.1-.25 5.8-2.14 2.87-2.14 1.75-2.22.65-1.74 1.87-3 6.57.4 1.35 2.7-.37-.82 2.5.44 2.86 1.82 4.37 1.22 1.27.7 2.44-1.79 5.47.34 3.14-.9 2.66-1.31 1.1.46 1.87-.63 2.47-1.42 1.53-.5 3.15 2.73 4.54 1.4 5.06 3.77 5.98-.55 1.45.3 5.86 2.66 2.86-1.1 2.55-3 .6-1.86 1.76-.88 4.16.87 4.08 1.27 1.84 1.64-.15.97-2.68 2.88 1.6-.46 3.59-1.15 1.12-2.35.03-.28 1.27 3.5 1.97.44 1.3-1.95.87-1.58-1.2-2.97 1.13 1.12 3.37-1.43 1.88-1.2 2.8-3.25.13-.48 1.4 2.07 1.34-.96 1.15-4 2.53-.35 1.23 1.45 3.32-1.36 1.45-9.71-3.79-30.7-12.12 4.04-18.9 7.56-36.34-1.16-.3-14.37 1.5-26.81 2.7-20.05-9.13 10.08-18.6.56-.57 5.8-10.86-.05-11.67 14.7-18.3 16.7-31.24-1.57-1.3.82-1.71-1.37-2.97-32.14-17.47z"/>
    <path region="15" short-name="Chittenden North Senate District" long-name="Chittenden North Senate District" value="1" d="m255.2 130.49 21.98 11.48 21.56 11.18 16.53 9.08-3.97-14.07-8.58-31.59-2.18-8.3 25.22 5.51 12.45 24.07 13.38 24.85-1.46 1.93 1.1 1.68-.02 3.95 4.37.8-19.31 35.73-19.09 36.2-1.18-1.05-4.13-.36-1.02-1.94-1.53 1.29-1.38-2.16-2.28-.43.55-.45 5.53.42-.33-1.75.25-5.07 3.46-4.47-5.38-2.02-1.2-1.2-1.99.42-5.59.32-1.55 1.38-2.83-2.52-4.48-1.79-3.2-.65-1.27-3.57-1.02-.88 9.8-18.61-12.65-6.7-18.99-9.74-1.74 1.91-4.14-.8-3.97-3.26-1.81-.33-1.97 1.5-4 .89-.8-9.32 1.34-5.34 5.38-2.61.77-1.26-.13-9.58 1.75-7.45-.4-9.24z"/>
  </g>
</svg>
