<svg country="usa" type="mo_upper" date="2022" variant="blank" title="Missouri 2022 State Senate" viewBox="0 0 1000 882.04" auto-border-stroke-width="1" auto-border-stroke-width-limit=".5" original-source='["https://www2.census.gov/geo/tiger/GENZ2022/shp/cb_2022_us_sldl_500k.zip"]' candidates="[{&quot;id&quot;:&quot;0&quot;, &quot;name&quot;:&quot;Democrats&quot;, &quot;margins&quot;: [{ &quot;color&quot;: &quot;#1C408C&quot; }, { &quot;color&quot;: &quot;#577CCC&quot; }, { &quot;color&quot;: &quot;#8AAFFF&quot; }, { &quot;color&quot;: &quot;#949BB3&quot; }]},{&quot;id&quot;:&quot;1&quot;, &quot;name&quot;:&quot;Republicans&quot;, &quot;margins&quot;: [{ &quot;color&quot;: &quot;#BF1D29&quot; }, { &quot;color&quot;: &quot;#FF5865&quot; }, { &quot;color&quot;: &quot;#FF8B98&quot; }, { &quot;color&quot;: &quot;#CF8980&quot; }]}]" version="1.1" xmlns="http://www.w3.org/2000/svg">
  <g regions transform="translate(0 -58.98)">
    <path region="0" short-name="Missouri State Senate District 28" long-name="Missouri State Senate District 28" value="1" d="m173.87 558.01-.01-4.37 14.59.38 10.77.33 24.61.82 5.96.23.45 1.33-.42 1.1.74 1.25-1.01-.23-.3.94 1.15.34 1.7-.2-.26-1.43.59-1.14 1.27 1.05.09-.9.5-.55-.11-1.28.27-.54 1.28-.46.85.17v.57l-.8.79.41 1.22 1.26-1.02.82.06 2.87-1.15.7-.86.72-.26.8.6 2.22-.8.58.03.73 1.17 1.77.92-.61.92 1.8 1 .43-.7-.02-1.33.76.16.53 1.15.47.23 1.05 1.34.69.16 1.38-.91.79.1.72.82.46-.96.57-15.62.43-11.04.25-7.11-3.79-.1.23-8.31.86-24.9.44-14.79-.42-.04.14-6.31.38-13.1 20.02.57 10.3.24 13.79.27 5.5.16.05-.08 16.93.44 8.7.31 7.6.24.51-15.26-.24-1.75.41-6.65.25-5.61.65-12.29.68-15.77.42-8.52-.83-.03.2-5.61.14-2.77 27.75 1.29 5.6.2.77-.09 15.64.66.01-.12 5.83.27 2.88-.03 5.41.28 2.9.35v1.9l-.3 8.3-.3 11.18-.15 3.8-.52 16.16-.15 3.86-.1 1.49-.2 6.94-.22 5.43-.58 17.4-.71 16.8h.5l-.04 1.64-.45 9.65-.76 20.86-.77 16.67 3.46.16-.91 23.46-.47 11.07-.62 19.3 4.03.22 9.5.4 18.98.7-.4 13.72-.1 7.09.02 3.99-.2 8.28 2.05.04-.27 8.5-.25 9.67.03.35-.31 13.1-.28 13.2-.14.02-15.47-.35h-3.33l-13.73-.32-.27 13.67-6.89-.12-5.83-.22-3.62-.08-5.48-.2-8.16-.19-8.1-.24-5.5-.24-11.63-.35-3-.15-7.1-.17-1.7.02-15.04-.4.11-5.47.65-21.97-13.65-.38-10-.36-9.54-.3-12.71-.15-20.44-.36-2.46-.12.28-11-13.53-.73-9.19-.36-8.8-.27-14.2-.36-.6-.06-6.59-.16-19.5-.5-9.09-.18-.06-12.99.04-9.62.27-19.98.2-12.54.02-8.25z"/>
    <path region="1" short-name="Missouri State Senate District 12" long-name="Missouri State Senate District 12" value="1" d="m1.36 64.6 11.71.16 6.83.02 4.61.15 12.84.28 22.68.31 2.42.08 20.41.25 15.09.28 7.77.1 11.57.24 3.77-.03 10.44.22 10.94.15 1.89.08 14.16.27 12.67.2 14.7.08 6.69.01 26.74-.16h3.5l31.03-.27 9.7-.2 7.73-.17 9.82-.24 11.92-.22 10.26-.12 1.12.04 7.86-.07 5.1-.1 16.17-.4 3.62-.02 12.34.12 10.1-.09-.13 5.46.06 15.78 1.17.15v17.48l8.56-.1 17.02-.38 3.9-.02 12.92-.18 17.16.28 2.24.01 14.85-.18-.05 8.48.02 25.72-.08 17-.03 17.18h1.3l-.44 18.73-.43 12.85-.42 17.05-.14 11.47-.12 5.73 13.93.08 11.32.28-.24 8.49-.18 8.6-.67-.02-.3 8.08-.26 8.48.06 1.42-.2 5.92-.32 11.19-.29 12.67-.3 8.27-6.95-2.34-5.49-1.92-3.68 9.64-4.01 10.41-1.1 1.82-.88-.95-1.54-.07-1.1.56-1.73 1.5-1.8.64-1.5-.08-1.36-.76-.65-1.03-.06-1.67.42-.95.25-1.6-.19-.88-1.03-1.05-1.95-.6-1.6-.7-1.32-1.37-.42-1.13.15-.98.7-2-.15-1.53-.83-1.2-1.3-.51-1.24-.06-3.77.48-3.27-.02-3.14-.89-2.52-1.53-1.7-1.92-.6-1.36-.17-1.06.25-2.46-.58-2.14-1.12-1.39-1.63-.83-1.12-.1-2.86 1.17-2.16-.19-.97-.65-.89-1-1.12-2.28-.72-1.18-1.52-1.16-.93-.16-1.31.26-1.1.7-.6.99.11 1.12.44 1.08 1.03 1.67.2.8-.1 1.41-.37.91-2.2 2.58-1.3 2.77-.94 1.31-1.26.67-1.53-1.65-1.12-.44-1.22.16-1.19 1.32-.6 1.14.2.96-.43.7-1.25.97-.85.32-1.61.13-2.44-.3-2.15.03-1.12.2-.69.5-1.08 1.9.05 1.95.9 1.97 1.32 2.21.09 1.65-.75 1.35-3.63 1.8-1.58 1.43-3.04 1.14-2.02.1-1.43-.8-.57-.75v-1.33l1.61-2.4.24-1.14-.64-.97-1.01-.52-2.85.1-1.69-.24-.97-.87-.77-2.39-1.37-1.36-1.99-.06-.86.51-.88.95-.82 1.87-.13 2.05.3 1.77 1 3.36-.05 1.84-.61 1.04-1.24 1.06-2.37.52-2.03.06-2.16-.15-2.87-.82-.68-1.39-1.55-1.73-1.03-.83-1.65-.32-1.38.24-1.23-.32-2.24-.13-1.2-.77-1.05.34-1.07-.55-1.04.52.2.88-.87 1.01-1.86.35-1.09.53-1.17 1.26-.66 1.71-.93 1.19-1.67.67-1.2-.03-2.96-.63-1.05.03-1.87.48-.06-8.27-.02-12.3v-26.98l-.02-13.92-2.84-.12-13.8-.19-4.35.17-12.78.12-16.8-.3-8.9-.05-7.83-.2-.37 13.92.04.16-7.04-.1-10.32-.08-7.72.02-7.07-.04-1.5.06-24.36-.09-.44-.06-.05-6.98v-7.38l-28.05-.3.05-4.8-.19-6.95.18-7.72-.02-9.84-.06-7.13 4.45.01-.03-5.75 2.1.03v-.86l-.49-.5-1.25-.01.01-1.73-.34-.26.14-5.79.03-4.32.16-.68-7.3-.07-10.65.09-.66-1.57-.89-.81-.86-.25-1.57.1-2.06-.45-1.38-1-1.73-1.66-.73-1.33.02-.87.54-1.15 1.1-1.1.63-1.5-.1-1.14-.98-1.42-1.4-.93-2.31-.69-2.77.82-1.88.1-2.03-.67-1.4.09-.83.5-.85 1.2-.23.88.12 1.54-.42 1.43-1.47 1.17-6.56.74-1.29-.28-2.36-1.17-3.33-.98-.99-.52-.88-.95-.42-1.5.15-1.18-.2-1.27-.88-.78-1.53-.2-2.94 1.35-2.15-.13-1.21-.65-.57-.83v-1.34l.56-1.42.1-2.3-.47-.93-1.4-.83-.96-.24-1.63.13-1.54-.23-1.33-.72-1.1-1.22-1.84-2.84-.73-.53-2.24-1.1-1.92-1.3-.69-.92-.17-2.13-.6-1.84-.86-.75-1.57-.47-1.16-.68-1.55-1.79-1.54-.64h-1.07l-2.84.87H57.4l-1.67-.68-1.64-1.54-.86-1.96-.34-2.05.49-1.48 1.27-1.53.21-.95-.33-2.42.46-1.27 1.57-1.4.6-1.18-.04-1.57-.8-1.41-1.61-.72-1.46-.1-.83-.43-.94-1.1-.35-1.51-.07-1.34-.38-1.13-.97-.9-1.8-.64-.88-.51-1.55-1.52-.78-1-.94-2.01.04-1.65.65-1.56.67-.95.51-1.58.05-1.25-.42-1.6-.74-1.3-1.27-1-1.11-.35-3.4.07-1.21-.38-1.57-1.14-1.36-.73-1.31-.24-.57-1.74.72-2.02.07-.96-.34-1.03-.82-.9-1.4-.66-2.05-.09-1.26-.71-1.27-1.3-1.76-.82-1.92.3-1.96.94-1.35.39-.93-.2-.87-.82-.06-.96.6-1.34.87-.58 2.11-.74 1.3-.98.37-1.29-.16-1.12-.5-1.23-1.48-1.68-.81-1.67.04-1.65-.27-1.7-.82-1.82-1.46-2.47-.35-1.43.78-2.52.1-1.17-.39-1.4L16.37 91l-.95-1.08-1.89-1.32-1.31-1.19-.54-1.86.3-2.9-.18-1.08-.6-1.22 1.18-.57 3.6-1.34.95-.46.9-1.23.51-2.87-.54-1.68-.93-.66-.51-1.32-.94-1.18-1.04.02-1.26.37-1.05.74-.38 2.32-.1 1.61.34.76-.32.92-1.7 1.36-.86-1.11-1.22-.18-2.22.82-1.71-.06-1.27-.34-1.46-1.1-.36-1 .85-2.3-.21-1.7-1.01-1.82L0 66.9l.17-.92Z"/>
    <path region="2" short-name="Missouri State Senate District 24" long-name="Missouri State Senate District 24" value="1" d="m785.17 427.33-.1-1.13.62-1.13 5.06-2.98 1.58-2.1.44-1 4.82 2.27-1.02.17-.53.92-1.05 1.04.5 1 1.65-1.45.89.46 1.26-.31.84.81.54.93.04.95H802l.36.8.64.41 1.01.09-.23 2.81 1.41.95.49-.13.74.89-.42 2.44-.09 4.79 4.2.04v.52l1.91.23.75.22-.37 3.19-1.58-.38-.08 4.46-.14.74-1.24-.18-1.1.16-.11.93-1.32-.29-1.92-.02-.02 1.4 1.6.08 1.94-.41.83.68-.42 2.97-.33.7-2.09-.03-.05 2.84-.9.02-.07 4.46 2.71.07-.07 5.93-.35-.3-1.11 1.15 1.43 1.23-.2 1.76 1-.01.75.78 1.05.64 1.11.03-2.5 3.94-.59 2.32-2.18.45.05-.92-.6-.6-.84.82-1.25.32-.86-.85-.1-1.14-1.04-2.91.3-1.07.82.56.98-.48.4-.9-.63-2.42-9.94-.16-1.22.08-3.95-.04-.29-2.65.1-1.6-.56-1.26.63-1.7-.41-1.36-1-.16v-.98l2.03-.54-.19-1.06h.85l1-1.12.65.46 1.1.17.92-1.25.59-.28.58-.9.79-.62-.24-1.1-.12-2.36-.97.04.35-1.08.63-.33 1.4-.04.05-.68 1.36.03.04-2.11 2.8.03v-1.05h-.57l.02-2.82-.83-.32-2.1-.08h-4.2l-.2-1.45.2-2.3.53-1.07-.23-.47-1.87-.48.53-1.5.03-.75-.59-.47-.46-1.19-.46-.23-1.9.76-3.03 1.71-1.29-1.39.82-.98.52-1.3v-1.83z"/>
    <path region="3" short-name="Missouri State Senate District 31" long-name="Missouri State Senate District 31" value="1" d="m174.1 466.1.08-11.76v-7.73l.36-22.57.28-17.2-.06-3.77 6.5.39 8.32.56 11.67.51 6.17.2 15.34.67 18.3.1 6.99.26.42-7.26.35-8.85-.08-.07.6-.06 11.12.48 16.06.59 6.2.34 7.64.3.24-5.61 8.34.4 6.46.22 8.95.22 6.86.28h2.84l17.1.7-.2 5.6.82.04-.42 8.52-.68 15.77-.65 12.29-.25 5.61-.4 6.65.23 1.75-.52 15.26-7.59-.24-8.7-.31-16.93-.44-.05.08-5.5-.16-13.78-.27-10.31-.24-20.01-.56-.4 13.09-.13 6.31.42.04-.44 14.8-.86 24.89-.23 8.3 3.8.1-.26 7.12-.43 11.04-.57 15.62-.46.96-.72-.82-.79-.1-1.38.91-.69-.16-1.04-1.34-.48-.23-.53-1.15-.76-.16.02 1.33-.43.7-1.8-1 .6-.92-1.76-.92-.73-1.17-.58-.02-2.22.8-.8-.6-.71.25-.7.86-2.88 1.15-.82-.06-1.26 1.02-.41-1.22.8-.8v-.56l-.85-.17-1.28.46-.27.54.11 1.28-.5.55-.1.9-1.26-1.05-.6 1.14.28 1.42-1.71.2-1.15-.33.3-.94 1 .23-.73-1.25.42-1.1-.45-1.33-5.96-.23-24.6-.82-10.78-.33-14.6-.38.04-17.08.18-12.93v-18.55l-.1-9.46v-7.46z"/>
    <path region="4" short-name="Missouri State Senate District 14" long-name="Missouri State Senate District 14" value="1" d="m805.59 407.6 4.55 3.54-.19 1.23-1.03 1.56 1.52.98-.69.9 1.9.7.85.09.19.57.82.1.58 1.63 2.26.02.18-1.38 1.19.13.59.88.96-.67 1.34-.3 5.37.17.23 1.32-.8-.01-1.17 1.4-.7 1.4.19 1.6.95-.42.62.25-.87 1.42-1.04-.01.16 1.4h-1.96l-.4.44.38 1.37h1.3l-.62 1.25 2.2 1.13.83.7-2.62 4.26-2.86 4.62-.15 1.18-1.8-.4-.19 1.09-2-.25-.02-1.02-.81-.1.05-.7-2.53-.3-.34.25-1.91-.23v-.52l-4.2-.04.1-4.79.41-2.44-.74-.89-.49.13-1.41-.95.23-2.81-1-.09-.65-.4-.36-.81h-1.28l-.03-.95-.55-.93-.84-.81-1.26.31-.89-.46-1.65 1.45-.5-1 1.06-1.04.52-.92 1.02-.17-4.82-2.26 1.36-5.12 3.54-5.56 1.34-1.49 1.45-.41 2.3.18z"/>
    <path region="5" short-name="Missouri State Senate District 16" long-name="Missouri State Senate District 16" value="1" d="m437.3 584.87 12.79.2 12.46.2 8.14.21h1.84l-.12 1.15.58 1.48-.24.91.65.44-.05 1.52.9 1.4 1.42.82-.31.49.18 1.69.67.7.95.4.58 1.23 1.21.87.86-.03.64 1.74.42.4-.12 1.02.44.43 1.99.79 1.42-.3 1.18-1.71 2.13-.4.6.44.97-2.1.83-1.1 3.16-.23.68.3h1.2l.89.47 1.34.16v-.83l.6-.72-.08-.59 1.09-.8.62-.9 1.88-1.49.11-.69.8-.75 1.53.11.35-22.52.09-8.25 4.02.18 12.55.25v.1l16.52.4.05-.72.55-26.86-2.46-.06.32-24.92 25.8.67 1.7.1 5.9-.21 13.28-.12 3.13-.7 13.15.3 2.68.37.02.26 5-.09 2.95.07 8.91.06v11.6l-.02 14.1 8.3.09 1.38.09 6.87.03 1.4.03v5.5l-.14 21.3-.06 13.34-.17 12.9-.2 16.02 16.5.1 16.54.25-.23 9.42-.13 7.08 5.5.13 18.07.38-.16 5.63-.1 15.04-3.51-.1-5.12-.05-4.95-.27-5.37-.37-4.63-.1-.26 16.57 15.46.6-.01 5.1-.12 11.25-18.31-.4-5.5-.15-8.46.03-3.18-.16h-2.27l-3.67-.17-23.73-.55-16.24-.26-.02-10.38.05-6.1v-16.5L586 641.1l-10.9-.3-8.55-.33-2.8.02-11.01-.29-14.76-.3-9.05.16-.86-.03-.42 24.86-.16 18.02.19 1.04.02 5.5-.05 8.25-.1 8.3.86-.02-.05.91-.24 17.02v5.22l-.34 13.55-5.49-.12-2.6-.18-16.32-.24-9.32-.08-10.3-.22-13.06-.45-8-.1.32-9.56.15-6.87.57-20.43-2-.07.16-8.22.12-8.18h.13l.23-16.43.13-2.75.08-5.51-10.45-.22-4.4-.04-10.14-.2.28-13.2.31-13.1-.03-.35.25-9.68.27-8.5-2.04-.03.2-8.28-.03-4 .1-7.08z"/>
    <path region="6" short-name="Missouri State Senate District 23" long-name="Missouri State Senate District 23" value="1" d="M765.63 386.32v1.32l2.42 2.95 1.71 1.57 1.11 2.37.5.57 4.46 2.61 1.8 1.16 2.52.04 1.62-.37 1.75-.83 1.94-2.3 2.12-2.27 1.42-.76 1.1-1.47 1.97-3 .63-1.68.05-1.88 1.54-2.77 1.46-1.05 1.74-.67 1.6.08 2.3.7 2.75.23 1.58.48 1.9.89 5.5 2.82 1.93 1.4 2.4 1.08 1.2.73 1.62.14 2.24-.13 2.08.3 1.06.42 1.88.19 1.28.87 2.8 1.43.9.84 2.9 2.96 1.6.5 3.08 1.68 2.23 1.77 5.72 3.43.58 1.1.05 1.18-.84 4.3-.45 1.8-1.36-3-2.22-1.56-1.39-.1-1.13.22-1.35.8-.9.82-1.44.45-.88-.1-1-.52-5.97-4.1-3.1-1.84-1.8-1.7-1.15-2.18-1.8-1.8-1.63-1.17-1.5-.5-1.71-.15-1.77.89-.66.76-.65 1.75-.28 1.33.02 1.54-.37 1.76-.62 1.48-1.96 2.66-1.16.78-1.85.36-2.17-.34-2.81-1-2.32-.17-1.44.41-1.34 1.5-3.54 5.55-1.36 5.12-.44.98-1.58 2.11-5.06 2.98-.61 1.13.09 1.13-1.34.77-.87-1.26-1.13.68-1.34-.9-1.3-.02-.66 1.03-4.08-.22-1.94-.03-.51-2.16-1 .42-1.52.15.37.78.83-.4.32.62-1.61.45-.82-1.38.42-.64-.49-1.58 1.1-.2.35-.55-.28-2.33.7-.26 1.06-1.06-.31-.71-1.69-1.31-.95 1.67-.5-.45-2.04.48-.7-.8.8-.81 1.16-1.98v-.58l-1.73.37-1.64-.77.58-.77-.7-1.91 3.84.01.26-1.56-.32-.82-1.1-1.46-5.49-3.95.14-.76 1.42-.6.02-.85h-.73l.01-1.4-1.47.03-.02 2.04-.73-.8-1.52-2.76-.04-.74-1.2.08-1.18-2.5-1.73-4.29-.52-1.85-.83-1 .87-1.25.63-.25 1.82-.07.77 1-.36.64-1.28.56.14 1.05 1.12-.18.25 1.04 1.05-.1 1.03.42.7.9 1-.85-.6-.84-.99-.27-.58.3-.55-.64 1.52-1.17.96.32 1.06.82 1.42-.3-.78-1.25-1.19-.88.14-.89.75-.28z"/>
    <path region="7" short-name="Missouri State Senate District 29" long-name="Missouri State Senate District 29" value="1" d="m173.22 797.6 14.3.56 10.63.5 25.53 1.12 22.74.9 9.1.42.1-2 .48-13.4-.18-2.17.22-6.01.13-6.38.18-5.85.39-14.98.37-16.1.65-27.64.14-7.2 14.5.37.6.05 8.36.08 16.53.38 7.47.21 19.53.52-.09 7.24-.16 8.04-.32 19.2 10.3.1 7.46.18 6.18.07 11.71.21 10.98.13 3.82.11 8.09.31 6.73.25 15.43.4 11.47.2h5.46l.03.16 8.1.3-.06 2.74.04 2.74-.23 10.83-.18 10.93-.33 13.56-.2 10.94-10.9-.33-13.4-.34-11.28-.2-11.87-.3-3.61-.15-13.76-.2.4-19.79.28-13.03-5.63-.1-18.91-.2-8.14-.19-8.16-.13-.13 13.68-.13 6.89v4.14l-.16 8.12 5.86.1-.4 15.7-.63 20-.16 8.01-.36 12.46-.02 3.8-20.16-.06-1.37.03-20.77.05-13.86.01H254.3l-5.03.02-10.6-.05-26.93-.13h-3.38l-20.32.07-5.97-.06-8.78.02.01-21.1-.03-10.33z"/>
    <path region="8" short-name="Missouri State Senate District 10" long-name="Missouri State Senate District 10" value="1" d="m548.9 361.27 2.86-.02 8.7.25 8.5.19 16.94.1 13.3.14 4.43.13 5.05.05 9.17.15h2.4l.66-17.14 10.99.34 10.68.24 11.37.45-3.64-28.42-4.06-31.23 2.49-1.84 2.35-1.88 1.34-.9 6.6-4.87 1.2-.6 17.53-13.32.3-.33 6.64-4.93 3.85.03.5.95.46 2.22.48 3.3.72 1.23 1.5 2 .8.48 3.24.7 1.85.21 2.1.47 1.1 1.83 1 2.36 1.64 2.77 1.65 1.6.28 3.98.45 1.02.95 1.3 2.22 2.66 2.2 1.9 2.98 2.14 1.48.9 2.42.9.77.81 2.25 1 1.37.29 1.13.68.5.62.52 1.68.78.89 1.17.75 1.94.55.76.64.42 1 .95.97 5.2 3.1 2.84 2.11 2.82 3.25.66.62 2.63 1.43.88.7.42 1.27 1.03 1.11 1.21.85 1.2 2.47 2.4 2.82 1.88.69 1.37 1.16.45.91.8 3.57-.03 1.67.7 1.97-.04 3.19.46 2.34.58 1.73.2 4.1.6 2.31.7 1.5.82 1.1 1.34 2.3.74 3.32-.25 2.36-2.65 3.2-.25 1.2-1.56 1.64-.16.6.3 1.38.56.87 1.09 2.55 1.23 2.4.53 1.79 1.01 1.65.58 1.33.27 1.5.07 4.23 1 2.69.31 1.5.57 1.19h-4.22l-.75.27-.13.9 1.18.87.78 1.24-1.42.32-1.06-.83-.96-.32-1.52 1.17.55.64.58-.3 1 .27.59.84-1 .85-.7-.9-1.03-.42-1.05.1-.25-1.04-1.12.18-.14-1.05 1.28-.56.36-.64-.77-1-1.82.07-.63.25-.86 1.25-.87.61-1.66-.48-1.56-.04-.57.76-1.4.13-1.95 1.3.93.93-.3 1-.86-.12-.15 1.25-.5 1.85.6 1.27-1.05.01-.68.58-1.25.02.35 2.18-1.18.4.18 1.05-.14 2.64.01 2.27.75.05.03 1.1 1.16-.01 1.01.89.23 2.12 1.38.2.17-1.26 1.27.91 1.77.02-.3 1.21-4-.22-1.26.38-.01 1.44-1.3-.03-.17.71-.71.01-.3.88-.03 3.03-1.44-.1v1.12l-.72-.1.17-2.04h-2l-.84.7-.38-.74-.14-2.76-1.3-.37-.44.3-.32 2.12-.72-.07v-1.08l-1.41.51-1.3-.7-.76-.71-1.39-.03-.7.69-.03-1.8-1.22-.88-1.51 1.25-1.8-.04-.01.78-.97.17.11-4.72.38-10.51-7.59-.22-9.66-.14-2.5.07-3.12-.07.15-11.39-11.85-.05.14-11.49-9.11-.2-2.26.02-.1 5.6.2 1.4-.16 7.23-.09 8.5.06 5.94-2.77.07-4.55-.35-7.65.15-7.64-.15-.11 2.76.04 1.99-.2 15.53-.15 5.76-3.63.11-2.2.56-.75-.35-1.46.1-1.04-.8-.88-.3-1.7.74-.89 1.26-.03 1.51-3.01 1.3-3.38 2.18-1.93.05-2.67-.8-1.75-.27-2.83-1.53-1.42-1.22-1.37-.8-2.42-.62-2.24.41-1.38-.04-2.57-.5-1.1-.44-1.8-.17-2.33.07-2.2.3-3.4 3.43-.71.54-3.32.58-2.93-.18-1.95.24-4.08 1.6-1.97.6-2.2 1.23-1.17 1.2-1.18 1.82-1.28 2.71-2.88 2.72-1.14.86-3.5 3.52-1.22.47-2.34.38-2.14.95-1.45 1.03-2.59 2.18-1 .67-1.51.54-4.96 1.31-1.38.06-4.5-.46-1.87-.35-2.07-.63-2.19-.85-.8-.55-2.13-.87-1.6-.93-2.48-1.84-1.96-1.7-.62-.99-.07-1.24.17-2.18-.35-1.37-.76-1.33-1.63-1.14.33-8.8-.42-.22-.72-1.47.8-.72.76-.17.19-.9-.3-1.4.63-1.09 1.2-.03 1.35-.66.41-.46-.45-1.68.28-.38 1.12.18.73-1.1-.72-.76.65-.67-.01-.63.86-.3.28-1.25.48-.93 1.17.07.25-1.37-.51-2.01.98-.45-.26-1.04.66-1.07-.56-.88.83-.71.73 1.46.6-.32-.91-1.46.98-.1 1.39-1.46-.45-.74-.96.54.28-1.3-1.36-.56-.19-.66 1.14-.91-.8-1.15 1.41-.68.16-.62h-1.2l.37-.7-1.26-1.1 1.01-.7-.25-1.49-.45-.24-.85.55-.21-1.6.48-1.48.95.15.16-1.13-.92.28-.58-.88.2-.71-.95-.97-.2-.65.14-1.17.98-.85.46-1.24-.04-1.12.36-1.47-.22-.33.23-1.59-.16-.44.39-1.93.6-.96-.3-.47.8-1.29-.54-1.9.1-.65.83-.4.56-1.7-.25-.9.32-.6-.28-1.2.81-1.3-.07-1.06.44-1.39-1.52-.93.72-.43.49-2.46.63-.65-.51-.44-.1-1.66.16-.98z"/>
    <path region="9" short-name="Missouri State Senate District 2" long-name="Missouri State Senate District 2" value="1" d="m720.94 413.75.96-.17.02-.78 1.8.04 1.51-1.25 1.22.89.03 1.79.7-.7 1.39.04.76.7 1.3.71 1.4-.51v1.08l.73.07.32-2.11.44-.31 1.3.37.14 2.77.38.73.84-.7h2l-.17 2.03.72.1v-1.12l1.44.11.02-3.03.3-.88h.72l.16-.72 1.31.03v-1.44l1.26-.38 4.02.22.3-1.21-1.78-.02-1.27-.91-.17 1.25-1.38-.19-.23-2.12-1.01-.9-1.16.02-.03-1.1-.75-.05-.01-2.27.14-2.64-.18-1.05 1.18-.4-.35-2.18 1.25-.02.68-.58h1.06l-.6-1.28.49-1.85.15-1.25.87.13.3-1-.94-.94 1.95-1.3 1.4-.13.57-.76 1.56.04 1.66.48.87-.61.83 1 .5 1.85 1.74 4.28 1.18 2.5 1.2-.07.04.74 1.52 2.76.73.8.02-2.04 1.48-.04-.02 1.42.73-.01-.01.86-1.43.59-.14.77 5.49 3.94 1.1 1.46.32.82-.26 1.56-3.84-.01.7 1.91-.58.77 1.64.77 1.73-.37v.58l-1.17 1.98-.78.82.7.8 2.04-.5.49.46.95-1.67 1.69 1.3.3.72-1.05 1.07-.7.25.28 2.33-.35.54-1.1.21.5 1.58-.43.64.82 1.38 1.61-.45-.32-.61-.83.39-.37-.78 1.52-.15 1-.41.52 2.16 1.93.02 4.08.22.67-1.02h1.29l1.34.91 1.13-.68.87 1.26 1.34-.77.4 2.45v1.84l-.51 1.29-.83.98-1.7.85-.93.16-1.72-.46-1.67.47-1.37.19-2.29-.29-1.13-.43-1.85-1.16-1.32-.15-2.2.1-1.98.38-2.1 1.22-.41 2.38-.3.8-.86.54-1.94.47-.98.93.08 1.02-1.06 1.05-3.18 1.04-1.52.9-.24.71-1 1.11-.85 2.77-1.04 1.67-1.54 1.4-1.14.52-2.17.34-2.59.88-2.43 1.97-.99 1.06-2.1 1.44-3.5 1.6-2.91 2.24-1.81.9-1.77.53-1.01.11-1.43-.16-2.23-.76-2.5-1.64.09-6.64.05-12.84.16-21.33z"/>
    <path region="10" short-name="Missouri State Senate District 21" long-name="Missouri State Senate District 21" value="1" d="m175.84 285.44.44.07 24.36.08 1.5-.06 7.08.04 7.71-.02 10.32.08 7.04.1-.04-.16.37-13.92 7.83.2 8.9.05 16.8.3 12.78-.12 4.35-.17 13.8.19 2.84.12.03 13.92-.01 26.98.02 12.3.06 8.27 1.87-.48 1.05-.03 2.95.63 1.2.03 1.68-.67.93-1.19.66-1.71 1.17-1.26 1.1-.53 1.85-.35.87-1.01-.2-.87 1.04-.52 1.07.54 1.05-.34 1.2.77 2.24.13 1.23.32 1.39-.23 1.64.31 1.03.83 1.55 1.73.68 1.39 2.87.82 2.16.15 2.03-.06 2.37-.52 1.24-1.06.61-1.04.04-1.83-.98-3.37-.3-1.77.12-2.05.82-1.87.88-.95.86-.5 2 .05 1.36 1.36.77 2.4.97.86 1.69.24 2.85-.1 1.02.52.63.98-.24 1.12-1.6 2.4v1.34l.57.74 1.42.8 2.02-.1 3.04-1.13 1.58-1.43 3.63-1.8.75-1.35-.1-1.64-1.31-2.21-.9-1.98-.05-1.95 1.08-1.9.7-.5 1.12-.2 2.14-.02 2.44.3 1.61-.14.85-.32 1.25-.97.43-.7-.2-.96.6-1.14 1.19-1.32 1.22-.16 1.12.44 1.53 1.65 1.26-.67.95-1.31 1.28-2.77 2.2-2.58.38-.9.1-1.42-.2-.8-1.03-1.67-.44-1.08-.1-1.12.6-.98 1.09-.7 1.31-.27.93.16 1.52 1.16.72 1.18 1.13 2.28.88 1 .97.65 2.16.2 2.86-1.18 1.13.1 1.62.83 1.12 1.39.58 2.14-.25 2.47.17 1.05.6 1.36 1.7 1.93 2.52 1.53 3.14.88 3.27.02 3.77-.48 1.25.06 1.3.51.82 1.2.15 1.52-.7 2.02-.15.97.43 1.14 1.3 1.36 1.61.7 1.95.6 1.03 1.05.2.89-.26 1.59-.42.95.06 1.67.66 1.03 1.35.76 1.5.09 1.8-.64 1.73-1.5 1.1-.57 1.54.07.88.95 1.1-1.82 4.01-10.4 3.68-9.64 5.5 1.91 6.94 2.34L481.6 319l19.37 6.61-6.77 16.59-3.84 9.69-2.84 6.92-2.35 5.46-3.94 8.77-.05 1.2-.46 1.2.5.83-1.21 1.29.62 1.05 1.02.21 2.14 2.6.72 1.15 3.76 3 .95 1.05 1.54 2.04-.27.52-3.05 7.26-6.75 16.83-1.05 2.5-3.35 8.36-3.24 8.29-.08 2.77-16.41-.6-16.94-.35-2.75.24-13.83-.44-13.43-1.15-2.97-.2.15-3.87.52-16.15.15-3.81.3-11.17.3-8.31v-1.9l-2.9-.35-5.41-.28-2.88.03-5.83-.27-.01.12-15.64-.66-.78.08-5.59-.2-27.75-1.28-.14 2.77-17.1-.7h-2.83l-6.86-.28-8.95-.22-6.46-.23-8.34-.4-.24 5.63-7.65-.31-6.19-.34-16.06-.6-11.13-.47-.6.06v-2.16l.2-6.23.21-4.23.11-.98.11-5.1.28-9.25.2-5.66.3-10-1.38-1.2-2.38-3.71-1.04-.71-1.54-.5-3.28-.5-1.17-.07-1.35-.57-.2-.54.48-1.27 1.3-1.3.76-1.42.12-1.18-.61-.62-2.3.07-1.6 1.01-1.16.37-1.43-.33-1.9-1.42-1.34-2.49-.73-.73-1.81-.81-1.8.15-3.36-.33-2.2 1.1-1.42 1.97-.53 1.5-.27 1.72-.44 1.15-2.3 3.46-1.27 1.33-1.2.66-1.4 1.31h-.89l-1.36-1.3-.95-3.25-.73-1.22-.8-.54-1.06-.13-2.4.66-.2.5-1.48-.7-.78.15-1.25 1-.5.69-.22 1.78-.67-.67-.23-1.9 1.2-1.03-1.64-.04v-1.4l-2.07.01v-.72l-.89-.04-.18-.6.65-1.35 1.06-.07.09-1.39h-.65l.73-1.38 1.33-3 .14-3.96 1.2-.01.28-2.78 1.22.01.02-1.38 2.37-.02v-1.4h-3.52v-1.48l-2.18-.03v-2.68h-.62l-1.18.7-.3-.7.01-3.15-.39.19-2.39.07-7.05-.04-3.54-.2-5.72-.01-.04-9.77.06-6.5z"/>
    <path region="11" short-name="Missouri State Senate District 7" long-name="Missouri State Senate District 7" value="1" d="m174.84 365.15.04-8.8-.02-4.58.52.49 1.22.17 4.48-2.56 1.13-.48 1.3-1 1.56-2.27.77-.62.36.98 2.37 3.5 1.15.56-.18 1.48-3.14-.14-.06 1.4 1.8.08.64.76-.13 3.5-1.2-.05-.64-.03.13-2.06-.46-.75-6.4-.28.29 2.82-.65 14.97-.71.67-.35 9.31h-.7l-.1 2.76.7.16 5.65.34.7-.08.76-.68.59.7 1.3.09-.07 2.61 1.75.43-.82 1.86.2.67 1.01-.03.44.36 2.58.12-.06 1.4 2.9.13-.25 5.5 5.44.25.8.12-.23 5.6-11.67-.51-8.32-.56-6.5-.39v-17.25l-.03-3.83-.02-4.83z"/>
    <path region="12" short-name="Missouri State Senate District 34" long-name="Missouri State Senate District 34" value="1" d="m134.53 214.5 10.65-.09 7.3.07-.16.68-.02 4.32-.15 5.79.34.26-.01 1.73h1.25l.5.51v.86l-2.1-.03.02 5.75-4.45-.01.06 7.13.02 9.84-.18 7.72.19 6.96-.05 4.78 28.04.3v7.4l.06 6.97.03 7.55-.06 6.5.04 9.77.06 7.07-.1 9.75-.01 9.77-.1 7-1.03-.27-1.08.2-1.21.65-2.38.56-1.64-.07-1.27-.73-.32-.94.33-2.2-.7-.96-.8-.56-1.67-.45-1.03.16-1.37.95-2.66 1.58-1.43.27-1.93-.04-.8-.2-1.57-.57-1.61-1.3-1.08-1.95-.78-2.05-.9-1.07-.87-.3-1.84.32-1.8-.1-1.82-.64-1.18-1.17-.48-1.53 1.06-1.97.32-1.49-.27-1.58-.6-1.23-.96-1.2-1.26-1.17-1.61-1.03-3.19-1.41-1.3-1.04-1.23-1.5-.72-1.15-.8-2.28-.4-2.27-.39-4.78.19-1.14 1.03-1.19 1.73-.7 1.44-1.24.34-1.03-.29-1.59-.6-1.14-1.5-.73-1.02.15-1.16.76-2.03.85-1.58-.2-.68-.3-1.1-1.31-.1-2.3-.24-.56-1.05-1.02-1.68-.67-1.03-.85-.55-.97-.33-1.85-.5-.84-1.2-1.1-.84-.38-3-.9-2.64-1.56-1.1-1.07-.95-1.67-.41-3.77-.35-1.08-1.1-1.2-2.68-1.44-2.3-2.07-1.52-1.77-.96-1.74-.63-2.26.07-1 .84-2.87.63-.76 1.13-.55.93-.08 1.92.82 1.82-.06 1.14-.67 1.14-1.76.43-2.33-.22-.91-.76-1.5-.33-1.5.27-1.68.58-1.47 3.28-5.36 1.4-1.45 1.38-.56 2.32-.16 1.41-.25 1.17-.68.75-.98.35-1.28.08-2.8-.4-3.07.1-1.75.77-1.35 1.5-1.3.99.02 1.42.79 1.38 1.2 1.75 1.29 2.35.9 1.63-.14 1.14-.37 1.27-.73.83-.8 1.08-1.63.52-2.08-.2-1.84-.95-1.67-.6-.26-1.54.34-2.66 1.95-1.06.36-1.58-.3-1.41-1.08-1.2-1.4-.23-1.02.45-1.44 1.07-.67 4.89-.26 1.33-.62.47-.6.69-1.86z"/>
    <path region="13" short-name="Missouri State Senate District 20" long-name="Missouri State Senate District 20" value="1" d="m173.33 630.76 9.08.18 19.51.5 6.58.16.61.06 14.2.36 8.8.27 9.19.36 13.53.73-.28 11 2.46.12 20.44.36 12.71.16 9.54.29 10 .36 13.65.38-.65 21.97-.11 5.46 15.03.4 1.72-.01 7.1.17 3 .15 11.61.35 5.51.24 8.1.24 8.16.18 5.48.2 3.62.09 5.83.22 6.9.12.26-13.68 13.73.33h3.33l15.47.35.14-.02 10.15.2 4.39.04 10.45.22-.08 5.51-.13 2.75-.23 16.43H462l-.12 8.18-.16 8.23 2 .06-.57 20.43-.15 6.87-.31 9.57-9.63-.18-14.82-.15-1.2-.1-6.92-.25.05-2.74-8.09-.3-.03-.15h-5.46l-11.47-.21-15.43-.4-6.73-.25v-2.73l-.67-.15.03-3.5.57-.46.69-1.26.36-1.5-.9-.03-.66-.64.03-2.04 1.35.01-.18-1.43 1.25.05-.35-.7-.66-.03-.52-2.43.56.1.02-1.15h-.68l.03-1.36 1.36.05-.33-2.77-1.58-.06-.09-1.38.67.03.37-1.36.67.02.03-1.38.35-.67-1.34-.09v-.6l1.93.04.65-.36 1-1.2.55-.12-.03 1.64 1.4-.8.05-2.26-1.4-.28-.01 1.16-3.63.01.01-1.3-.48-.72-.66-.02-.2 2.08-1.17-2.13-1.2.23-1.05-.32-.65.66-2.17-.1.36-.83-1.37.11-.02.7-1.68-.06-.33-.69-2.06.2v.46l-2.03-.02-.01.58-.93-.05-.44-.57-1.03-.03.32 1.38.57.33-.04 1.06-4.25-.08-4.17-4.09-.84-.62-1.58-.52-.71-.75-1.89-.05-.14 3.85.66.01-.08 2.74-.4 1.36 1.02.01-.07 2.03-1.37-.09-.03.8 1.38.01-.05 1.39 2.76.2-.03 1.05 1.1.19-.02 1.04 2.94.05v1.72l-.26.33.03 3.08-.58 1.3.03 1.13-1-.32.03-1.42-.33-.7-.67-.01-.05 2.25-2.17.08-.03.87-.67.53-1.38.4-.03 1.34 2.03.02-.02.7 2.84.05.69-.66.08-2.06.52.01 1.35 1.18.32-1.38 1.17-.04.78-.38 2.74.04-.49.68-.25 1.36-.65.85-1.25-.22-.12.8h2.67l-.01.54 1.35.1-.03 1.6.68-.22 1.37.02-.23 2.05.72.02.19.88.54.5 2.08.26.02-.63 1.62.08-.27 1.2-.03 1.53-.28.38-3.82-.11-10.98-.13-11.71-.21-6.18-.07-7.46-.18-10.3-.1.32-19.2.17-8.04.08-7.24-19.53-.52-7.47-.21-16.53-.38-8.37-.08-.58-.05-14.5-.37-4.73-.15.26-11-13.66-.42-16.45-.45-4.22-.19-12.22-.3v-.08l-9.46-.27-4.15-.2-4.96-.35-11.66-.45-3.42-.1v-8.81l.06-5.46-.01-5.63.06-9.79-.06-6.04z"/>
    <path region="14" short-name="Missouri State Senate District 22" long-name="Missouri State Senate District 22" value="1" d="m776.47 469.37 12.1.07 3.94.04 1.22-.08 9.94.16.63 2.43-.4.89-.98.48-.83-.56-.29 1.07 1.05 2.91.09 1.14.86.85 1.25-.32.84-.82.6.6-.05.92 2.18-.45 3.42-1.02 2.2.55.42.36.06 1.01-.77 1.4-.9.9-.2 1.5.28 2.15-.24 2.24.55 1.68.02.97.42.63-1.17 2.05-1.07 3.27-1.78 3.84-.4 1.28-.25 1.95.12 3.62-.14 3.46.68 4.97.26 2.73 1.02 4.08.62 1.56-.74.14-.95-.55-.76.27-.3 1.2-1.47.59.33.87-.64.19.29 1.11-.13 2.2.14.93-2.18-2.67-.82-.16-.08-1.3-.95.14-.54.98-1.08.09v.67l-.86.03.01-1.5.3-2.19-1.2-.54-2.05-1.48-.73-1.11-1.62-.52-1.15.16-1.16-.23-.94.33-.41-.27-1.54.13-1.07.46-.61.6-1.28.16.17-5.27-5.6.17-.01-1.53-1.45.16.03 1.2-1.35-1.54-.08-.63-2.45-.04-1.92-1.21-.59-.66-1.2-.27-.6-.5 1.09-.72.35-.98-.07-1.08-1.86-.34-1.5-.63v-5.87l-16.81-.58-1.9-.11 2.23-13.24.46-3.16.21-9.74.86-3.05 1.04.13 1.4 1.34-.7.98.5.23 1.43-.64.86-.07.7.36.31 1.14 1.52 1.44.68-.15.26.82-.52.58.27.9 2.11-.56 1.49-1.4-.9-4.42.77-1.44 1.8-.23 1.47.41.77 1.54 1.59 1.1.65.13 1.65-1.59 1-2.7z"/>
    <path region="15" short-name="Missouri State Senate District 6" long-name="Missouri State Senate District 6" value="1" d="m406.65 432.68 2.97.2 13.43 1.16 13.83.43 2.75-.23 16.94.35 16.41.6.08-2.77 3.24-8.29 3.35-8.37 1.05-2.5 6.75-16.82 3.05-7.26.27-.52 2.87 2.74.75 1.2-.16 1.21-.75 2.7.38 1.39 1.4 1.05 1.75 1.6.97 2.06.8 2.17.75 1.34 1.17 1.2 1.64 1.03.64.17 2.94-.18.98.18.95.65.46 1.3.25 1.66-.4 1.63-.6 1.35-.67.76-2.12 1.22-.54.78-.13 1.14.39 2.23 1.04 2.02 1.8 1.3 3.55.72.59.29 2.17 2.4.46 1.13-.1 1.28-2.71 2.5-.33 1.12.87 1.29 1.08.6 2 .62 2.9.45 3.67.81 2.63 1.6 2.04 2.27 2.43.46 2.48-.39 1.31.55 1.63 1.14.76 1.33.35 1.37-.17 2.18.07 1.24.62 1 1.96 1.69 2.47 1.84 1.6.93 2.14.87.8.55 2.19.85 2.07.63 1.87.35 4.5.46 1.38-.06 4.96-1.3 1.52-.55.99-.67.82 2.04-1.59.05-1.2.6-.56.93-.45 2.66.55 2.68 2.47 4.61-.02 1.58-.93 2.06-.82.9-1.47 1.07-1.97.81-3.08-.15-2.68.39-2.8 1.23-2.34.24-2.1-.88-1.17-1.5-.65-.48-1.37-.43-1.56.33-1.03 1.19.72 1.49.47 2.93.49.9 1.25 1.5 1.64.72 2.04 1.43.8.95.62 1.51.04.97-.43 1.13-.8 1.11-1.81 1.23-2.03.82-1.76.47-3.01-.26-.25.42-1.62 1.03-.2 6.74-.18 8.27-.3 24.92 2.45.06-.55 26.86-.05.71-16.52-.4v-.09l-12.55-.25-4.02-.18-.1 8.25-.34 22.52-1.54-.1-.79.74-.11.7-1.88 1.48-.62.9-1.09.8.09.59-.61.72v.83l-1.34-.16-.9-.47h-1.19l-.68-.3-3.16.24-.83 1.09-.97 2.1-.6-.44-2.13.4-1.18 1.72-1.42.29-2-.79-.43-.43.12-1.01-.42-.41-.64-1.74-.86.03-1.21-.87-.58-1.23-.95-.4-.67-.7-.18-1.69.31-.5-1.42-.8-.9-1.41.05-1.52-.65-.44.24-.9-.58-1.49.12-1.15h-1.84l-8.14-.22-12.46-.18-12.8-.21-18.99-.7-9.49-.4-4.03-.21.62-19.31.47-11.07.91-23.46-3.45-.16.76-16.67.76-20.86.45-9.65.03-1.65h-.5l.72-16.78.58-17.4.22-5.44.2-6.94z"/>
    <path region="16" short-name="Missouri State Senate District 8" long-name="Missouri State Senate District 8" value="1" d="m192.66 391.53.62-.32.08-1.35 1.27-1.21.42.18 1.12-.57 2.26.08.19-.83.13-2.8 5.64.36-.04-1.25-.64-.79 1.5-2.1 1.37.2.02.58h1.4l.1-2.82-.66-.03.21-1.64-.06-2.54.44-3.9-.15-.53 1.88-.98 1.4-.27.23-.4 3.55.11.36.36 1.01-.3-.97-.78.71-.7.03-.92 4 .58-.14-.67-.95-1.3.04-.85-.42-.91 2.56.2.59-.15 3.51.2.15-.72-1.12-1.55 2.09.23.31 1.06-.03 1.05 1.67.08-.02.7 1.08.02.37-.48 1.03-.12-.03 1.12.7.05-.03.96.66-.06-.1 2.19.67.03-.03 1.03-.8-.13.15 1.17-.68-.01-.2.77-1.25.54-.03.67 1.4.05-.1 3.48.72-.67 4.17.18.09-2.92 1.69-.51.86-1.42 1.68.04 1.31 1.58 1.33.82.01 1.3-.72-.02-.05 1.4 1.39.1.03-.75 1.4.08.67.7-.1 1.38.7.7.81-.67 2.02.03-.22 4.24-.2 6.23.02 2.16.08.07-.35 8.84-.42 7.27-7-.26-18.3-.1-15.33-.66-6.17-.2.23-5.61-.8-.12-5.44-.25.26-5.5-2.91-.12z"/>
    <path region="17" short-name="Missouri State Senate District 30" long-name="Missouri State Senate District 30" value="1" d="m382.96 736.57-8.09-.3.28-.39.03-1.53.27-1.2-1.62-.08-.02.63-2.08-.26-.54-.5-.2-.88-.7-.02.22-2.05-1.37-.02-.68.23.03-1.6-1.36-.11.02-.55h-2.67l.11-.79 1.26.22.65-.85.25-1.36.5-.68-2.75-.04-.79.38-1.16.04-.32 1.38-1.35-1.18h-.52l-.08 2.05-.69.66-2.84-.06.02-.7-2.04-.01.04-1.33 1.38-.4.67-.54.03-.87 2.17-.09.05-2.24h.67l.33.7-.03 1.43 1 .32-.03-1.13.58-1.3-.03-3.08.26-.33v-1.72l-2.94-.05.03-1.04-1.1-.2.02-1.03-2.76-.21.05-1.39-1.38-.01.03-.8 1.37.09.07-2.03h-1.02l.4-1.37.08-2.74-.67-.01.15-3.85 1.89.05.7.75 1.59.52.84.62 4.17 4.09 4.25.08.04-1.06-.57-.33-.32-1.38 1.03.03.44.57.93.05.01-.58 2.02.02.01-.46 2.05-.2.34.69 1.68.06.02-.7 1.37-.11-.36.82 2.17.1.64-.65 1.06.32 1.2-.23 1.17 2.13.2-2.08.66.02.48.72-.02 1.3h3.64l.02-1.17 1.39.28-.05 2.25-1.4.81.03-1.65-.55.12-1 1.21-.65.35-1.93-.02v.6l1.33.08-.34.67-.03 1.38-.67-.02-.37 1.36-.67-.03.1 1.38 1.57.06.32 2.77-1.35-.05-.03 1.37.68-.02-.02 1.17-.56-.1.52 2.42.66.03.35.7-1.25-.05.18 1.43h-1.35l-.03 2.03.66.64.9.02-.36 1.51-.7 1.26-.56.46-.03 3.5.67.15z"/>
    <path region="18" short-name="Missouri State Senate District 4" long-name="Missouri State Senate District 4" value="1" d="m812.01 439.62.34-.25 2.53.3-.05.7.8.1.04 1.02 2 .25.17-1.1 1.8.4.16-1.17 2.86-4.62.1 1 .48.31-.64 1.15 1.05.73-.33.95.87.11-.31 2.4 1.47.22-.24 1.89.12.53 1.15.26-.25.64.48 1.9 1.26.15 1.19.47-.28 1.63.7.11-.25 1.55-.69.26-1.09-.14-.1.82-1.03.6-.17.6.76 1.44.8.53-.42.63.63.43-.85 1.14-1.13.2-.74 1.7-2.12.3-1.87-1.37-.78 1.03-.7-1.02-1.12-1.07-3.6-.47.18-1-.96-.17.48-3.6 1.45-1.8-1.21-.49-.14-1.17-1.2-.11-.69.93-1.62-.69-.17 1.7-1.88-.26-.83-.68-1.94.4-1.6-.06.02-1.41 1.92.02 1.32.29.12-.93 1.1-.16 1.23.18.14-.74.08-4.46 1.58.38.37-3.19z"/>
    <path region="19" short-name="Missouri State Senate District 18" long-name="Missouri State Senate District 18" value="1" d="m359.55 65.55 17.04-.09 18.7-.4 5.77-.23 1.76-.08 21.56-.66 5.7-.02 3.65-.1 18.24-.1 10.6-.19 15.93-.46 14.34-.54 4.62-.08 11.1-.24 12.11-.38 17.83-.41 12.49-.26 10-.37 12.27-.35 1.26-.13 10.62-.38 6.53-.42 4.4-.18 9.93-.5 1.36 2.4.5.58.7.7 2.35 1.35 1.13.94.46 1.3-.87 2.35.11.98 1.36 1.36 1.6.41 2.5.34 2.44.72 1.93.4.93.88.03 2.52-.51 1.82.12 1.37.66 1.04 1.3.94 2.04 1 1.17 1.52.98 3.2.84 1.05 1.63.92 1.67.44 1.33.12 2.28-.17.7.53-.02 1.55-1.42 1.5.1.8.56.49 1.38.12.13.46-1.13 2.25.3 1.8 2.32.78.57.64 1.08.31 1.54-.38-.48 2.04.97 1.89.64.41 2.58-.44-.43 1.12.3.53 1.84-.07.94-.66.61-1.36 2.34.75.93.83-1.08 1.23-1.9 1.07-.82.66-2.6 4.08-.67 1.57-.78 3.36-2.13 4.7-1 2.98-.02 1.63.35 1v1.05l-1.13 2.37-.77.77-.5 1.41.34.9v1.46l-.4 1.71.04 2.12.33 1.27-.99 1.86-.28 1.52.15 2.08.56 2.5-.53 2.08.24 3.91.62 3.72 1.6 7.28.86 2.64-.79 4.1 1.13 2.6 1.5 2.78 1.2 2.67.84 2.64.62.38.74 1.68.72 1.18.39 1.13 1.52 2.55 1.2 1.11 1.08 1.52.45 2.12-.3 1.42-3.4 4.15-.65 3.05.22 1.48 1.55 4.85.98 1.5 2.25 1.53 1.24.69 1.25 1.04 2.98 1.92 1.5 2.12.68 1.48.25 1.5-.46 1.12-.16 2.81.12 1.22-.73 2.66v2.44l.33.68 2.25 2.68 1.12 1.14 2.05 1.75 2.06 1.53 1.87 1.68.43.84 2.87 1.85 1.07.85 1.41 1.7.94 1.55 1.75 1.59 1.13 2.1 1.79 1.8 1.9 1.1 4.6 1.95 1.18 1.35-3.85-.03-6.65 4.93-.3.33-17.53 13.32-1.2.6-6.59 4.87-1.34.9-2.35 1.88-2.5 1.84 4.07 31.23 3.64 28.42-11.37-.45-10.68-.24-10.99-.34-.66 17.14h-2.4l-9.17-.15-5.05-.04-4.42-.14-13.31-.14-16.95-.1-8.5-.2-8.7-.24-2.86.02.08-4.3.43-12.73.2-8.4-.05-.58.24-7.9-14.12-.5-17.35-.8-14.16-.33-3.18-.12-19.37-6.6-22.14-7.49.3-8.27.3-12.67.3-11.2.21-5.9-.06-1.43.25-8.48.31-8.08.67.02.18-8.6.24-8.49-11.32-.28-13.94-.08.13-5.73.14-11.47.42-17.05.43-12.85.45-18.74-1.3.01.02-17.18.08-17-.02-25.72.05-8.48-14.85.18h-2.24l-17.16-.3-12.92.19-3.9.02-17.02.38-8.55.1V86.94l-1.18-.15-.06-15.78z"/>
    <path region="20" short-name="Missouri State Senate District 26" long-name="Missouri State Senate District 26" value="1" d="m564.08 456.11 2.59-2.18 1.45-1.03 2.14-.95 2.34-.38 1.22-.47 3.5-3.52 1.14-.86 2.88-2.72 1.28-2.71 1.18-1.83 1.18-1.19 2.19-1.22 1.97-.6 4.08-1.6 1.95-.25 2.93.18 3.32-.58.72-.54 3.39-3.44 2.2-.3 2.33-.06 1.8.17 1.1.44 2.57.5 1.38.04 2.24-.41 2.42.62 1.37.8 1.42 1.22 2.83 1.53 1.75.26 2.67.8 1.93-.04 3.38-2.18 3.01-1.3.03-1.5.88-1.27 1.71-.74.88.3 1.04.8 1.46-.1.74.35 2.21-.56 3.63-.11.15-5.76.2-15.53-.04-1.99.11-2.76 7.64.15 7.65-.15 4.55.35 2.77-.07-.06-5.94.1-8.5.15-7.24-.2-1.38.1-5.61 2.26-.01 9.1.2-.13 11.48 11.85.05-.16 11.4 3.14.06 2.48-.07 9.67.14 7.59.22-.38 10.51-.1 4.72-.1 6.03-.16 21.33-.05 12.84-.1 6.64 2.51 1.64 2.23.76 1.43.16 1-.1 1.77-.54 1.82-.9 2.9-2.24 3.51-1.6 2.1-1.44.99-1.06 2.43-1.97 2.59-.88 2.17-.34 1.14-.51 1.54-1.4 1.04-1.68.85-2.77 1-1.1.24-.71 1.51-.91.02 3.44-.06 8.58-.24 6.64-.2 9.49 4.24-1.7 2.53-.5.06-1.4 1.38.05.05-1.36 4.12.15.03-.82 2.13.17.73-.68 1.2.23 2.62 1.22-.7 2.28.78.56 2.47.02-.72 1.52-1.01 2.7-1.65 1.59-.65-.13-1.59-1.1-.77-1.54-1.46-.4-1.8.22-.78 1.44.9 4.42-1.49 1.4-2.11.55-.27-.9.52-.57-.26-.82-.68.15-1.52-1.44-.32-1.14-.7-.36-.85.07-1.43.64-.5-.23.7-.98-1.4-1.34-1.04-.13-.86 3.05-.2 9.74-.46 3.16-2.24 13.24-2.5 15.27-.05.8-1.13 7.96-5.85-.03-5.86-.16-3.97.05-12.79-.13v-.22l-2.9.45-2.88.04h-11.5l-5.93-.03-6.63.04h-29.69l.02-1.09-7.7-.07-.89-.29-2.28.25-4.52-.1-9.75-.01.14 11.11-6.87-.03-1.39-.1-8.3-.07.03-14.11v-11.6l-8.91-.06-2.95-.07-5 .09-.02-.26-2.68-.37-13.15-.3-3.13.7-13.28.12-5.9.22-1.7-.1-25.8-.68.18-8.27.19-6.74 1.62-1.03.24-.42 3.02.26 1.76-.47 2.03-.82 1.82-1.23.79-1.1.43-1.13-.04-.98-.62-1.5-.8-.96-2.04-1.43-1.64-.72-1.25-1.5-.5-.9-.46-2.93-.72-1.49 1.03-1.19 1.56-.33 1.37.43.65.48 1.17 1.5 2.1.88 2.34-.24 2.8-1.23 2.68-.39 3.08.15 1.97-.8 1.47-1.07.82-.91.93-2.06.02-1.58-2.47-4.61-.55-2.68.45-2.66.56-.94 1.2-.58 1.6-.06z"/>
    <path region="21" short-name="Missouri State Senate District 27" long-name="Missouri State Senate District 27" value="1" d="m692.25 622.48.95.02.07-8.26 9.07.23 12.78.17 2.72-.3-.02.25 2.6.09 10.85.69 2.65-.24.15.37 5.17-.11 8.47-.36 3.15-.35.02.25h3.53l13.97.45-.37 14.29-.04 3.13 8.63.01 5.51-.05 2.76-.38v.26l2.74.18 9.46-.01 19.6.2 10.05.02 5.42.08 10.89-.1 5.42-5.61 8.85-14.8.11-.1 7.61-13.55 9.19-10.01.06-.16 2.25.84 1.48.2 1.72-.04 3.05-1.85.73-.7 2.04-2.59 1.78-1.34.94-.3 1.28.72 3.39 2.67 2.33 1.53.06 1.03-.4 1.06.64 1.73 1.45 1.48.65-.64 1.16.56 1.36.07 1.67 1.03 2.13-.11 1.56 2.25 1.8 1.77 2.18 1.69.95.47 2.83 1.76 1.2.97 1.38 2.59-.12 2-1.02 3.08.37 1.4 1.06.83 1.34.42 2.42-.06 1.4-.63 1.01-.11.25 1.4 1.03.5 1.82 1.28 1.4 2.92.59.8 2.49 1.15 6.13 1.66 1.37 1.08.69 1.36v.86l-.62 2.46-.1 2.25.14 2-.28.82.31.9.77.89.6 1.26 3.1 3.39 1.11 1.57.36 1.63-.23.82-1.27.95-1.2.14-2.32-.76-1.05-.07-.7 1.05-.1 3.44.12 1.31.7 3.45 1.34 2.12 1.08 2.15.38 1.51.85 2.07 2.48 4.27.64.92 3.03 3.1 1.68 2.43.85 1.95 1.22 3.65.52 1.95.21 1.79-.14 1.34-.92 4.6-.7 1.71-.48.5-1.73.74-1.07.23-2.97.2-1.45.48-1.04.81-.6 1.24-1.95 1.72-.55.9-.97 4.78.67 1.57 1.73 2.52 1.86 2.34 1.6-.33 1.3-.05 1.48.52.36.66v1.26l-1.38 3.49-.02.68.86 3.52.86 2.14 2.67 5.04.47 1.73 1.44 2.6 1.66 2.48 1.05 1.08 2.1 1.53 1.39 1.48.82 1.64.46 1.62-.01 1.02-.48 1.88-.94 2.4.07 1.77.96 1.63 2.38 1.77 2.46.87 2.22 1.05 2.1 1.34.58.6-5.08.09-.02 1.34-4.05 1.45-.1 5.49-5.43.03-.03 2.75-2.76-.03v2.75l-5.32-.02.03 5.52h-5.44v5.5l-2.75-.01.01 1.37-7.02.05-.13-.3-5.55.89-.2.85-12.83.4-.33-1.92-.53-.81.88-1.76.71-.66-.71-.98-.35-1.38.33-2 .67-.7.04-.85-.41-1.35.43-.42-.88-1.38.05-.99-.75.08-.88-1.37-.79.07-.97-.93-.14-1.66-.44-1.89-.56-.89.37-2.06-1.46-2.71-1.1-1.11.22-.65-1-1.19-.65-1.2.06-.82-1.14-.4.24-1.1-.92-.49.3-1.13-.33-1.18H900l-.58-1.09.1-.54-1.4-2.4.13-.72-1.16-1.4-.14-.83 1.23-1.4.6-.37-.14-1.13 1.49-2.87.05-1.4h-7.91l-7.12-.05-14.08-.18.05 13.68-5.49-.06.02 2.74-17.3-.2.13-8.39-2.21.04-6.65-.08-2.58-.12-5.47.04.1-5.62.14-1.62.17-8.04.2-15.31.23-12.37-2.8-.26-13.43.17-3.03.16-13.83-.3-11.03-.04-5.62-.23-.13 8.47-2.77-.15-2.75.01-2.77.22h-5.45l-2.92-.48-2.38.26-4.33.26-4.32.18-.1 8.27.25-.01-.07 3.22-.31 5.47-.03 2.73-2.8-.06-.14 5.45-3.33.02.03 3.04-.1 13.35-14.54-.3-4.8-.08-8.37-.23.14-8.22-5.46-.05.02-.52-2.68.89-.02-5.52.1-3.46-2.68.62.11-5.48-5.5 1.25.07-2.8-2.73.64.09-5.46h-2.84l-.01.76-2.8-.06.1-7.63h.32v-2.72l-5.42-.1.14-10.9-2.66.07-.01-2.78.12-16.49-5.46-.09.12-11.25.01-5.1-15.46-.6.26-16.57 4.63.1 5.37.37 4.95.27 5.12.04 3.51.11.1-15.04z"/>
    <path region="22" short-name="Missouri State Senate District 19" long-name="Missouri State Senate District 19" value="1" d="m500.98 325.61 3.19.12 14.15.34 17.35.79 14.12.5-.24 7.9.04.58-.18 8.4-.44 12.73-.08 4.3-3.16-.05-.16.98.1 1.66.51.44-.63.65-.5 2.46-.71.43 1.52.94-.44 1.38.07 1.06-.81 1.3.28 1.2-.32.6.25.9-.56 1.7-.82.4-.11.65.55 1.9-.81 1.3.3.47-.6.95-.39 1.93.16.44-.24 1.59.23.33-.36 1.47.04 1.12-.46 1.24-.98.85-.15 1.17.21.65.95.97-.2.71.58.88.92-.28-.16 1.13-.95-.15-.48 1.49.21 1.6.85-.56.45.24.25 1.5-1.01.69 1.26 1.1-.38.7h1.21l-.16.63-1.4.67.79 1.15-1.14.91.2.66 1.35.57-.28 1.3.96-.55.45.74-1.4 1.46-.97.1.91 1.46-.6.32-.73-1.46-.83.7.56.9-.66 1.06.26 1.04-.98.45.5 2-.24 1.38-1.17-.07-.48.93-.28 1.25-.86.3.01.63-.65.67.72.75-.73 1.11-1.12-.18-.28.38.45 1.68-.4.46-1.37.66-1.19.03-.63 1.08.3 1.42-.2.89-.75.17-.8.72.72 1.47.42.22-.33 8.8-1.3-.55-2.5.39-2.42-.46-2.04-2.27-2.63-1.6-3.66-.8-2.92-.46-2-.63-1.07-.6-.87-1.28.33-1.12 2.72-2.5.09-1.28-.46-1.14-2.17-2.39-.6-.3-3.54-.72-1.8-1.3-1.04-2-.4-2.24.13-1.13.55-.78 2.12-1.23.66-.76.61-1.35.4-1.63-.25-1.66-.46-1.3-.95-.65-.98-.18-2.94.18-.64-.17-1.64-1.02-1.17-1.2-.74-1.35-.8-2.17-.98-2.05-1.76-1.6-1.4-1.06-.37-1.39.75-2.7.15-1.2-.74-1.21-2.87-2.74-1.54-2.04-.95-1.04-3.76-3.01-.72-1.15-2.14-2.6-1.02-.2-.62-1.06 1.2-1.3-.49-.81.46-1.2.05-1.21 3.94-8.77 2.34-5.46 2.85-6.92 3.84-9.7z"/>
    <path region="23" short-name="Missouri State Senate District 11" long-name="Missouri State Senate District 11" value="1" d="m185.84 345.5 1.97-.64 2.17-.33 1.65.1 1.62.95 2.29 2.86.31 1.23.85.76 3.13-2 1.54-1.4 1.03-1.17.83-1.37 2.34-2.63.36-1.94-.4-1.24-.96-2.1.27-.62.76-.33 1.07.13.79.54.73 1.22.95 3.26 1.36 1.29h.88l1.41-1.31 1.2-.66 1.27-1.33 2.3-3.46.44-1.15.27-1.71.53-1.51 1.41-1.96 2.2-1.1 3.37.32 1.8-.15 1.81.81.73.73 1.33 2.49 1.91 1.42 1.43.33 1.16-.37 1.6-1.01 2.3-.07.61.62-.12 1.18-.76 1.41-1.3 1.3-.48 1.28.2.54 1.35.57 1.17.07 3.28.5 1.54.5 1.04.7 2.38 3.72 1.38 1.2-.3 10-.2 5.66-.28 9.26-.1 5.09-.12.98-2.02-.04-.8.68-.72-.71.1-1.37-.65-.7-1.41-.08-.03.75-1.39-.11.05-1.4.72.02-.01-1.3-1.33-.81-1.31-1.6-1.68-.03-.86 1.42-1.69.51-.09 2.92-4.17-.18-.72.67.1-3.48-1.4-.05.03-.67 1.25-.54.2-.77h.68l-.14-1.16.79.13.03-1.03-.68-.03.1-2.2-.65.07.02-.96-.7-.05.04-1.12-1.03.12-.37.48-1.08-.01.02-.71-1.67-.08.03-1.05-.31-1.06-2.09-.23 1.12 1.55-.15.72-3.51-.2-.59.15-2.56-.2.42.91-.04.86.95 1.29.15.67-4.01-.58-.03.92-.71.7.97.78-1.01.3-.36-.36-3.55-.1-.23.4-1.4.26-1.88.98-.18-.51.15-2.71-.13-.18-3.97-.23-1.58.25-.05 1.71-1.84-.09.06-1.78.6-1.1-.48-.4-3.03-1.74-2.37-1.21-.63-.6-2.15-.26-1.58-1.14-1.4.12-1.81-.71-.05-2.1 1.21.05.13-3.5-.64-.76-1.8-.08.06-1.4 3.14.14.18-1.48-1.15-.56-2.37-3.5z"/>
    <path region="24" short-name="Missouri State Senate District 15" long-name="Missouri State Senate District 15" value="1" d="m755.32 443 3.18-1.04 1.06-1.05-.08-1.02.98-.93 1.93-.47.87-.53.3-.8.41-2.39 2.1-1.22 1.97-.38 2.2-.1 1.33.15 1.85 1.16 1.13.43 2.3.29 1.36-.2 1.67-.46 1.72.46.92-.16 1.71-.85 1.29 1.39 3.03-1.7 1.9-.77.46.24.46 1.18.59.47-.03.74-.53 1.5 1.87.49.23.47-.53 1.07-.2 2.3.2 1.45h4.2l2.1.08.83.32-.02 2.81.58.01-.02 1.05-2.8-.03-.03 2.1-1.36-.02-.04.68-1.41.04-.63.33-.35 1.08.97-.04.12 2.36.24 1.1-.8.63-.57.89-.59.28-.93 1.25-1.1-.17-.63-.46-1.01 1.13-.85-.01.2 1.06-2.03.54-.02.98 1 .16.42 1.37-.63 1.7.56 1.24-.1 1.6.3 2.66-12.1-.07-2.47-.02-.79-.56.71-2.28-2.62-1.22-1.2-.23-.73.68-2.13-.17-.03.82-4.12-.14-.05 1.35-1.38-.05-.06 1.4-2.53.5-4.24 1.7.2-9.5.24-6.63.06-8.58z"/>
    <path region="25" short-name="Missouri State Senate District 33" long-name="Missouri State Senate District 33" value="1" d="m430.12 740.62 6.93.25 1.19.1 14.82.15 9.63.17 8 .1 13.06.45 10.29.22 9.32.08 16.31.24 2.61.18 5.5.12.33-13.55v-5.22l.24-17.02.05-.9h-.87l.11-8.29.05-8.26-.02-5.49-.19-1.04.16-18.02.42-24.86.86.03 9.05-.16 14.76.3 11.01.29 2.8-.02 8.55.33 10.9.3 16.17.02v16.5l-.06 6.11.02 10.38 16.24.26 23.73.55 3.67.17h2.27l3.18.16 8.46-.03 5.5.14 18.31.41 5.47.1-.13 16.48.01 2.77 2.66-.06-.14 10.9 5.42.1v2.72h-.32l-.1 7.63 2.8.05.01-.76 2.84.01-.1 5.46 2.74-.64-.06 2.8 5.5-1.25-.12 5.48 2.69-.62-.11 3.46.02 5.52-2.74.37-4.6-.01.2.99-1.06-.09-2.68.43h-2.89v.5l-16.1-.41-.28 14.44-.24 8.26-.33 15.24-16.03-.31-5.91-.03-.87.06-17.68-.13-1.05-.16-5.5-.02-6.72-.2-11.44-.12-.02 9-.27 9.94-2.13-.05-.35 17.55-.26 12.86.05 3.41.85.03.06 11.55-.09 4.87.03 3.56-8.14.05-20.87.08-17.95.06-20.14-.08-11.85.1-2.55-.01-13.93.1-6.12.01-3.73.11-1.46-.12-5.31-.01-3.56-.11-10.9-.04-7.1.09-9.94.03-21.22.06-9.93-.06-8.3.04-17.94-.05-8.2-.02-8.6.07-14.36-.05-16.18-.06-14.56-.03-12.04-.06H328.1l.02-3.79.36-12.46.16-8.01.64-20 .4-15.7-5.87-.1.15-8.12.01-4.14.13-6.89.13-13.68 8.16.13 8.14.2 18.9.2 5.64.1-.29 13.02-.4 19.8 13.77.2 3.61.14 11.87.3 11.28.2 13.4.34 10.9.33.2-10.94.33-13.56.18-10.93.23-10.83z"/>
    <path region="26" short-name="Missouri State Senate District 25" long-name="Missouri State Senate District 25" value="1" d="m712.56 735.92 2.68-.89-.02.52 5.46.05-.14 8.22 8.37.23 4.8.07 14.53.31.1-13.35-.02-3.04 3.33-.02.14-5.45 2.8.06.03-2.73.31-5.47.07-3.22h-.26l.1-8.26 4.33-.18 4.33-.26 2.38-.26 2.92.48h5.45l2.77-.22 2.75-.01 2.77.15.13-8.47 5.62.23 11.03.05 13.83.3 3.03-.17 13.43-.17 2.8.26-.24 12.37-.19 15.3-.17 8.05-.14 1.62-.1 5.62 5.47-.04 2.58.12 6.65.08 2.21-.04-.13 8.39 17.3.2-.02-2.74 5.5.06-.06-13.68 14.08.18 7.12.04h7.91l-.05 1.4-1.5 2.88.16 1.13-.61.36-1.23 1.41.14.83 1.16 1.4-.13.72 1.4 2.4-.1.54.58 1.08h1.17l.32 1.19-.29 1.13.92.49-.24 1.1 1.14.4-.06.82.66 1.2 1 1.2-.23.64 1.1 1.11 1.46 2.7-.37 2.07.56.9.44 1.88.14 1.66.97.92.8-.06.87 1.37.75-.08-.05.99.88 1.38-.43.42.4 1.35-.02.86-.68.7-.33 1.99.35 1.38.71.98-.71.66-.88 1.76.53.8.33 1.93 12.83-.4.2-.85 5.55-.88.13.3 7.02-.06v-1.37h2.74v-5.5l5.44.01-.03-5.52 5.31.02.01-2.75 2.76.03.03-2.75 5.42-.03.11-5.49 4.05-1.45.02-1.34 5.08-.09 3.17 3.26 2.02.66 1.85-1.43.41-.7.89-2.9-.36-1.46-.94-1.01-1.71-1.4-2.02-.8-1.53-.86-.9-1.03-.51-1.4.46-2.2 2.05.43 1.55.11.5.29 3.06.21.75-1.49 1.39 2.67 1.1 2.8.64 1.05 1.28 1.17 3.06 2.07.98 1.56.52 2.19v1.93l.44 1.83 1 1.21 1.23.5 1.08.1 3.01-1.37 2.58-.85 1.14-.25 1.01.3 1.32 1 1 1.29.49.97.11 1.25-.29 2.6-1.29 4.48-1.23 6.13-1.36 2.86-.79 2.74-.9 1.89-2.33.14-.9.77h-1.1l-.98.5-.82 1.58.05 2.77.17 1.74.95 1.71 1.53 1.35.74.33 4.04.28.82.45 1 1.8.04 1.5-.4 1.46-1.04 1.5-1.4-.04-1.02-.63-2.2-.12-1.48-.68-1.9.65-.74.47-1.06 1.2-.93 1.46-.49 2.55.23 1.82 2.27 2.76 2.22 2.31.23.63-.1 2.55 1.44 1.03-2.35 2.98-1.95 1.73-1.48 2.28-.49 2-.25 3.1-1.64 4-.59.74-1.47 1.27-1.39.47-3.26.35-1.46-.73-1.63-1.64-2.35-3-1.03-1.94-1.78-2.98-2-2.25-1.1-.01-3.36.7-1.35.64-1.48 1.74-.39 1.42-.4 3.17-.3 1.4-1.98 4.47-.41 3.23-1.05 2.64-1.74 5.44-.85 1.79-2.07 2.79-2.44 2.44-1.66.77-1.85-.13-1.46-.7-1.04-1.58-.05-1.6 1.21-3.5 1.95-3.03.56-1.4.42-1.62.07-1.16-.35-2-.84-2.43-.86-1.54-.86-.68-2.28-.83-2.16-.28-1.96-.63-2.23.11-1.53.63-.81.69-1.3 1.73-.71 2.17.04.98 1.63 4.08.9 1.57 1.7 2.25.56 1.3.7 1.22 1.78 1.89.48 1.1-.03 1.56-.56 1.94-.58.94-2.03 1.86-.63 1.23-.03 1.46.44 1.3 2.55 3.66 1.7 2.9.53 1.21.1.88-.51 2.56-.88 2.1-.55.7-1.37 1.04-1.97.45-2.31-.17-3.18-.86-2.83-.12-1.52.47-.77.81-.6 1.22-.06 1.22 1.26 2.58 3.3 2.28 1.7 1.58 3.62 1.97 1.42-.5.8.57.59 1.27.15 1.62-.03 1.71-.68.7-.82.25-1.99-.66-1.05.18-1.33 1.16-2.01.8-2.26.26-1.3-.21-2-.75-1.85-.9-2.36-.48-3.82.45-1.23-.23-1.35-.6-.5.4-1 1.99v.62l1.9 2.15 1.95 1.68 3.7 2.67 2.7 2.34 2.79 1.67 1.68 1.63.92 1.22.97 1.7.33.98.01 2.69-.28 1.57-1.19 1.43-1.98 1.05-1.97 1.29-2.2.6-3.54 1.45-.87.73-1.14 1.73-.29 1.89-.37 3.82-.42 3.27-.78 2.5-1.66 2.32-.5 1.3-3.92.04-21.35.23-14.53.1-19.66.16-3.52.1-18.04.16-19.49.19 2.01-3.32 1.06-.85.84-1.32.12-1.15.4-.65.06-1.27 1.61-1.08.25-2.59.33-1.07 1.88-.7.33-.78-.32-2.16.22-.52 1.02-.84.92-.05.95-.65.22-1.57.8-1.42 3.1-.69.92-.45.84-1.27h1.11l.66-.45.68-1.24 1.3-.55.63-1.46v-1.21l-.6-.98.76-1.47.15-1.22 1.33-2.06 1.37.25 1.03-.66 1.09-1.68.29-.8.77-.22.28-.72.8.05.47-.59 2.78-1.39.75.38 2.09-2.56 1.48.2.9-.55.25-1.14-.82-.89.85-.72.93-1.73.5-2.24 1.45-.23.76-.4 2.46-.63 1.17-1.7-.28-1.27 1.15-1.18.92-1.55-.8-1.88-1.08-1.13-.82-.54.96-2.22-.4-.46.16-.9.47-.28-.55-1.04 1.71-2.01.36-2.55-.1-1.7-.65-1.22-1.17-1.34-.56-.9-2.08-.6-2.27-.02-1.79-1.28-2.03-.52.12-1.7-.8.26-.63-.55.15-1.26.78-.14.51-.87-.28-1.18-.2-2.32-.6-.83-.03-.58-2.14-.1.44-1.38.98.26.62-.2-.22-1.01-.7-.03-1.57-.63.66-3.22.3-.2-11.46.03-16.62-.09-26.1-.03h-20.13l-9.4.02-20.85-.05-4.3.03h-12.2l-8.6.06-16.25.07-13.61.04-1.5-.02-26.89.09-6.46-.08-7.5-.24-5.51-.06h-14.17l-6.12-.06-.03-3.55.09-4.88-.06-11.55-.85-.02-.05-3.42.26-12.86.35-17.55 2.13.05.27-9.95.02-8.99 11.44.13 6.72.19 5.5.02 1.05.16 17.68.13.87-.06 5.9.03 16.04.31.33-15.24.24-8.26.28-14.44 16.1.4v-.49h2.89l2.68-.43 1.06.09-.2-1 4.6.02z"/>
    <path region="27" short-name="Missouri State Senate District 5" long-name="Missouri State Senate District 5" value="1" d="m822.66 435.25 2.62-4.26 2.02-3.25 4.5-2.17 1.32-1.16 2.32-2.51 1.35-1.84.5-1.15.13-1.82 2.62.39-1.26 2.3-.18 1.12-1.06 1.46-1.18.75-2.09 2.07-.7 1.17-.3 1.56-.01 1.19.41 1.73 1.05 1.78.73.79.32.34 1.32 2.46.57 1.8.73 4.34-.16 2.6-.86 3.38-1.09 2.42-1.6 1.97-2.13 1.9-1.12.7-3.7 5.81-1.33 2.44-1.36-.43-.63-.85-.18-1.81-1.15-.7 2.12-.31.74-1.7 1.13-.2.85-1.15-.63-.42.41-.63-.79-.53-.76-1.45.17-.59 1.04-.6.09-.82 1.1.14.68-.26.25-1.55-.7-.1.28-1.64-1.2-.47-1.25-.15-.48-1.9.25-.64-1.15-.26-.12-.53.24-1.9-1.47-.2.3-2.4-.86-.12.33-.95-1.05-.73.64-1.15-.47-.31z"/>
    <path region="28" short-name="Missouri State Senate District 9" long-name="Missouri State Senate District 9" value="1" d="m187.44 357.57.05 2.1 1.8.7 1.41-.1 1.58 1.13 2.14.25.64.6 2.37 1.22 3.03 1.75.47.4-.59 1.1-.06 1.77 1.84.09.05-1.71 1.57-.25 3.98.23.13.18-.15 2.7.18.52.15.52-.44 3.9.06 2.55-.21 1.64.66.03-.1 2.83h-1.4l-.02-.6-1.37-.18-1.5 2.1.64.78.04 1.25-5.64-.35-.14 2.8-.18.82-2.26-.08-1.12.57-.42-.18-1.27 1.2-.09 1.36-.62.32-2.58-.12-.44-.36-1 .03-.21-.67.82-1.86-1.75-.43.07-2.61-1.3-.09-.59-.7-.76.68-.7.08-5.65-.34-.7-.16.1-2.76h.7l.35-9.31.71-.67.65-14.97-.3-2.82 6.41.28.46.75-.13 2.06z"/>
    <path region="29" short-name="Missouri State Senate District 1" long-name="Missouri State Senate District 1" value="1" d="m809.25 450.2 1.88.27.17-1.7 1.62.68.7-.93 1.18.11.15 1.17 1.2.5-1.44 1.79-.48 3.6.96.17-.19 1 3.61.47 1.11 1.07.7 1.02.79-1.03 1.87 1.37 1.15.7.18 1.82.63.85 1.36.43-.9 2.2-.75 2.75-.38 1.93-.54 1.88-.15 1.28-.5 1.36-.7 3.94-.58 2.41-.74 2.03-2.93 2.7-2.08 2.65-1.24 1.16-1.03 1.22-.42-.63-.02-.97-.55-1.68.24-2.24-.27-2.15.19-1.5.9-.9.77-1.4-.06-1.01-.42-.36-2.2-.55-3.42 1.02.58-2.32 2.51-3.94-1.11-.03-1.05-.64-.75-.78-1 .01.2-1.76-1.43-1.23 1.11-1.15.35.3.07-5.93-2.71-.07.08-4.46.9-.02.04-2.84 2.1.02.32-.7z"/>
    <path region="30" short-name="Missouri State Senate District 3" long-name="Missouri State Senate District 3" value="1" d="m751.83 502.18 1.9.11 16.8.58.02 5.87 1.49.62 1.86.35.07 1.08-.35.98-1.1.72.62.5 1.2.27.58.66 1.92 1.2 2.45.05.08.63 1.35 1.54-.03-1.2 1.45-.17v1.54l5.61-.17-.17 5.27 1.28-.16.61-.6 1.07-.46 1.54-.13.41.27.94-.33 1.16.23 1.15-.16 1.62.52.73 1.11 2.05 1.48 1.2.54-.3 2.19-.01 1.5.85-.03.01-.67 1.08-.1.54-.97.95-.14.08 1.3.82.16 2.18 2.67-.14-.94.13-2.19-.29-1.11.65-.2-.34-.86 1.47-.6.3-1.19.76-.27.95.55.74-.14.23.47 2.94 4.56 1.79 1.59 3.27 1.2 1.46.92 2.37 2.45 3.36 5.72.36.48 1.05 2.36 3.65 3.48 2.5 1.83 3.73 2.59.74.29 1.32-.9.83-.09 4.05 2.37.66 1.42.03 2.7 1.31 1.71 1.04.98 2.5 1.66.83.4 1.1.06 1.3-.3 1.93.28.6.68.44 1.1 2.52 1.6 2.1 2.35 2.43 3.3 1.24.91 1.26.27 3.67-.53 3.5-1.23.74 2.18 1.61-.08-.04 1.12-1.06 1.26-.82.24-1.42 1.12-1.83.02-.4 1.11-1.89 1.45.1 1.43 3.26 6.83 2.14 1.54-.06.16-9.19 10-7.6 13.55-.12.1-8.84 14.8-5.43 5.61-10.9.11-5.4-.08-10.05-.03-19.61-.2-9.46.02-2.74-.18v-.26l-2.76.38-5.5.05-8.64-.02.04-3.12.37-14.3-13.97-.44h-3.53l-.02-.25-3.15.35-8.47.36-5.17.1-.15-.36-2.65.24-10.85-.7-2.6-.08.02-.26-2.72.3-12.78-.16-9.07-.23-.07 8.26-.95-.03-18.08-.38-5.48-.13.12-7.08.23-9.42-16.55-.24-16.48-.1.19-16.03.17-12.9.06-13.34.15-21.3v-5.5l-1.4-.03-.15-11.11 9.76.01 4.5.1 2.3-.25.89.29 7.7.07-.03 1.1h11.46l18.23-.01 6.63-.04 5.93.03h11.5l2.87-.04 2.92-.45v.22l12.78.13 3.97-.05 5.86.16 5.85.03 1.13-7.96.05-.8z"/>
    <path region="31" short-name="Missouri State Senate District 13" long-name="Missouri State Senate District 13" value="1" d="m847.38 411.04-.8 1.48-3.54 2.89-3 2.07-2.62-.4-.13 1.83-.5 1.15-1.35 1.84-2.32 2.51-1.33 1.16-4.5 2.17-2 3.25-.85-.7-2.19-1.13.62-1.25h-1.3l-.39-1.37.4-.43h1.97l-.16-1.41h1.04l.87-1.4-.62-.26-.95.43-.2-1.6.7-1.42 1.18-1.39h.8l-.23-1.31-5.37-.17-1.34.3-.96.67-.6-.88-1.18-.13-.18 1.38-2.26-.02-.58-1.62-.82-.1-.2-.58-.84-.08-1.9-.7.69-.9-1.52-.99 1.03-1.56.19-1.23-4.56-3.55 2.17.34 1.85-.36 1.16-.78 1.96-2.66.62-1.47.37-1.77-.02-1.54.28-1.33.65-1.75.66-.76 1.77-.9 1.7.17 1.51.49 1.62 1.18 1.8 1.8 1.16 2.16 1.8 1.72 3.1 1.83 5.96 4.1 1.01.53.88.09 1.43-.45.91-.82 1.35-.8 1.13-.21 1.4.09 2.21 1.56z"/>
    <path region="32" short-name="Missouri State Senate District 32" long-name="Missouri State Senate District 32" value="1" d="m173.27 754.08.01-10.86-.05-10.59.03-3.6-.07-9.18.08-15.19.07-19.25 3.42.1 11.65.45 4.97.34 4.15.21 9.47.27v.09l12.21.3 4.22.18 16.45.45 13.66.41-.26 11 4.72.16-.15 7.2-.65 27.63-.36 16.11-.39 14.98-.18 5.85-.13 6.38-.22 6 .18 2.17-.48 13.4-.1 2-9.1-.41-22.74-.9-25.53-1.13-10.64-.49-14.29-.57-.01-15.1-.04-6.14.06-3.17z"/>
    <path region="33" short-name="Missouri State Senate District 17" long-name="Missouri State Senate District 17" value="1" d="m175.7 342.85.1-7 .02-9.77.09-9.75-.06-7.07 5.72.02 3.54.19 7.05.04 2.4-.07.38-.19v3.15l.3.7 1.17-.7h.63l-.01 2.68 2.18.03v1.48h3.51v1.4l-2.36.01-.02 1.4-1.22-.02-.28 2.78-1.2.01-.14 3.97-1.33 3-.73 1.37h.65l-.09 1.4-1.07.06-.64 1.36.18.59.9.04-.01.72 2.06-.02v1.41l1.65.04-1.2 1.03.22 1.9.68.66.22-1.77.5-.7 1.25-1 .78-.14 1.48.7.2-.5 2.4-.66-.76.33-.27.61.96 2.11.4 1.24-.36 1.94-2.34 2.63-.83 1.36-1.03 1.17-1.54 1.4-3.13 2.01-.85-.76-.31-1.23-2.3-2.86-1.61-.95-1.65-.1-2.17.33-1.97.64-.77.62-1.55 2.28-1.31 1-1.13.47-4.48 2.56-1.22-.17-.52-.5-.14-.86 1.18-2.04 1.58-2.02.22-2.1-.34-.95z"/>
  </g>
</svg>
