<svg country="usa" type="wi_lower" date="2022" variant="blank" title="Wisconsin 2022 State Assembly" auto-border-stroke-width="1" auto-border-stroke-width-limit=".5" original-source='["https://www2.census.gov/geo/tiger/GENZ2022/shp/cb_2022_us_sldl_500k.zip"]' candidates="[{&quot;id&quot;:&quot;0&quot;, &quot;name&quot;:&quot;Democrats&quot;, &quot;margins&quot;: [{ &quot;color&quot;: &quot;#1C408C&quot; }, { &quot;color&quot;: &quot;#577CCC&quot; }, { &quot;color&quot;: &quot;#8AAFFF&quot; }, { &quot;color&quot;: &quot;#949BB3&quot; }]},{&quot;id&quot;:&quot;1&quot;, &quot;name&quot;:&quot;Republicans&quot;, &quot;margins&quot;: [{ &quot;color&quot;: &quot;#BF1D29&quot; }, { &quot;color&quot;: &quot;#FF5865&quot; }, { &quot;color&quot;: &quot;#FF8B98&quot; }, { &quot;color&quot;: &quot;#CF8980&quot; }]}]" version="1.1" xmlns="http://www.w3.org/2000/svg" viewBox="0 0 940.22 1000">
  <g map-type="regions" transform="translate(-29.89)">
    <path region="0" short-name="28" long-name="Assembly District 28" value="1" d="M30.05 321.66v-.02l20.5.18 21.4.05 13.43.23.14-19.16 6.38.1 12.4.37 6.28.1 7.16-.1 4.08.14 7.11-.01 14.37.08-.13 3.09.06 15.9-.01 23-.15 10.2-.05 11.28.03 6.2-.8-.03v1.69l-.81.77-.01.77h-1.58v.79l1.58.02.39 1.16 1.18-.67-.06 9.58v11.25l-19.95-.19-.05 6.94.2 5.77.14 6.28h-22.93l-13.36-.08-4.03-.09.04 5.74h2.38l.08 9.48 1.66-.01v.78l-.76.8 2.35-.01 2.14-.8h2.59l.01.81 1.6.02-.3 1.71-.42.65h-.24l-.36.01h-.85l-.37-.02h-1.02l-.39-1.57-.8-.01.04 1.58-2.09-.02-.32-1.57h-1.38l-.88 1.56 1.9.03-.58 2.42 1.79.03v1.1l-1.55.62-.79.68.01.75-1.87-.02-.5 1.26-.89.33h-1.5v-1.47h-.8v-2.48l-1.57.02.18-.8h1.38v-.81l-1.59.63v-.62H77.7l-.03-1.64-10.66-.04.16 1.08-1.32 1.37-.7-1.53-.79.02v-.97h-.78v1.78l-1.18 1.19-1.94.04-.03-2.22.47-.7-.8-.5-.07-2.78 1.59-.01 1.36-.49 1.01.5.01-1.56h.8l-.01 2.38 1.56.01.1-16.75-16.46.13.62-.7.35-1.3-.88-2.6-.01-1.71-.43-2.48.21-.84 1.11-1.81-.14-1.73-1.23-2.04-.2-1.34.5-1.33 2.02-1.07 1.3-1.01 1.46-1.94 2.75-2.64.8-1.15.9-2.17-.09-1.33-.7-2.47.2-1.06.97-1.1 2.67-2.03.35-1.63 1.15-1.98.84-.92 2.11-1.15-.02-1.05.6-2.19-.56-1.3.18-2.3.39-2.65-.94-2.84-1.3-.83-2.96-1.34-1.01-1.75-.75-.88-1.64-3.7-1.5-2.25-2.28-2.47-.2-2.47.52-2.44-.22-.97-3.02-2.63-1.75-.99-2.06-2.08-.89-.34-1.5.13-2.44 1.11-1.64.38-1.73.05-3.58-1.24-3.8-.23-1.97-1.75-.18-.73.26-2.44-.49-1.11.24-2.24.36-1.15-.64-2.1-.22-1.91.2-1.11z"/>
    <path region="1" short-name="26" long-name="Assembly District 26" value="1" d="m779.18 740.5 12.25-.1 10.85-.1 6.31.07.01-1.35-2.34.05-.76-.31v-1.54h.78l.77-.77v-1.08l1.56.56v1.32l.78.02-.03-1.2 1.66 1.17-.08-1.5.64.01.16-2.23 1.45.15.07.54 2.06.04v.78l1.03.02v3.64l-.68 1.2.63.6h5l.01.8 1.02-.15.31-.62.2-2.88.81-.08-.4 1.44 2.42-.03v-.8l-.62-.75h-.93l.06-.8-1.21.03-.18-1.2 1.93.1.2-1.1-.67-.94-.7.05-.17-1.22-1.5.44-.11-.93 1.62.34.1-.97-.58-.75 2.96-.05.52.78 5.3.1-.5 1.03.2 1.67-.84 1.1-.3 1.24.32 3.04.64 2.22.17 2.35-.2 1.43.24 1.55-.55 1.72-4.34 8.62-4.05 7-3.2 5.96-1.38 3.3-.4 2.2.12 2.07-7.57-.02-12.39-.06-7.71.14-10.75.08v-9.33l.09-8.4V749.8z"/>
    <path region="2" short-name="2" long-name="Assembly District 2" value="1" d="m772.05 581.42 1.2-.06 1.24-1.94 2.04.86.91-.01 1.8.92-.4.81 4.03 1.98.43.96-.45.68-1.66-.8-.4.79-1.22-.6-.79.44-.51 1.59-1.55.01-.05 2.49-.46.8 1.63.02.9-1.52.92.36-.72 2.08-1.64-.8-.63.47-.56 1.76-.66-.78h-1.57l-.79.77-2.65-.07-.72.95-1.56 1.4-.86 1.3-.26 1.4-.76.92-.84.49-.56 1.1-.9.57-.8 2.22 10.24-.06 10.61.01v6.29l9.42.1 9.4.07 18.78.09 18.83-.08h15.65l-.38 1.33.1 3.14.55 2.96 1.16 3.06 1.84 4.1 2.07 6.54.15 4.07-.85 3.88-1.04 2.79-3.14 4.35-2.58 2.26-1 1.07-5.84 2.7-2.97 2-.07-3.56-1.16.01-.37-.77.02-1.22.79-.34v-.84l-5.46-.01v-12.48h-3.17v-6.25l-11.54.08h-7.14l-13.32-.07-5.51.01-17.16-.14-18.21-.04-6.2-.15.27-10.11-.04-3.8-.22-2.1.02-1.46-1.43-1.15v1.55l-1.41-.12-.02-1.02.9-1.7.37-.18 1.17-2.42.57-.23.01-9.59 6.37-8.54.5.3 1.06-1.82.67-.13.45-1.45 3.62.04v-.44l1.57-.33zm-1.36 10.87h1.18l.23-1.17-.93-.01zm1.26-2.01.5-.47 1.6-.58.97.07-.66-2.4-.98 1.67z"/>
    <path region="3" short-name="36" long-name="Assembly District 36" value="1" d="m641.28 226.3 12.75 7.45.49.87 1.32 1.39 1.09.1 1.1.7.82.04.87 1.26 1.19-.2 1.47-1.18-.68-.7.7-.82 1.34 1.08.47-.86.88.85-.76 1 .24 1.75.91.13 1.76-1.5.74.64 1.21-.84 1.89-.83 1.44.17 1.47 1.01-.15 1.04 1.4 1.04 1.3-1.22 3.95 1.03 1.22 1.97-.01 1.26 1.22 2.52.87-.36 1.53.14 1.6.83.53-.68 1.57-.14 1.16.2.52-.64-.44-.6.67-1.23v-1.08l.71-1.06.46-1.72.91-.32.74.7.67 2.1 1.28-.43 1.41-1.52.94-.43 1.62.17.66.46 1.5-.2 1.33-1.65 1.44.38 2.1.07.52.46-.05 1.34.51.86.9 2.69 1.64.93 1.9-.6-.03-1.14.59-.5 1.88.37.76.52-.08.8.86.82 1.23-.24 1.07 1.16 1.2.34.47 1.23.95.72.9-.85 1.27-.46 1.17.18 1.14-.61 1.2-1.9 1.89 1.45 2.62 1.77 1.89 1.7 1.6 1.23.22 2 1-1.1 1.7.14 1.93 1.15.72.68 1.4-.88 3.7-.98.7-.9 1.41.18-.13 1.37.62 1.38 1.45.66 1.45-.3.72.28 2.37-.1.95-1.14 1.21.19.7.72 1.12.41.84 1.36 1.34.6 2.44.17 1.1 1.54 2.03.9.23 1.13 1.71-.16 1.92.07 1.22 1.34-1.07 1.18-.58 1.19-.2 1.2.7 1.68.1 1.94.83.8 1.79-.18 1.3 1.04.83.3-1 2.4-.78-.24-.96 2.01-1.47 1.27-1.28 2.01-.79.42-3.39 3.56-.38.91 1.03 2.16 2.08 1.16 1.19.13.78 2.69 1.42 1.26 2.43.31 1.2.96 3.08-.23 1.38-.61.3-1.3 1.94.09 1.5-.72 1.62.06 2.12-.76.83.56.83 2.25.27 1.32-1.39.9.53.73 2.16.73.85.5.54 1.3 1.39-.05 1.23.38.66-.21 1.18-.1.84-.5 1.1.75.55-.48 1.31.54.83-.54.72 1.25 3.12-.3 1 .98.8.21.92.99-.33 1.74 1.37 2.26 1.38.98 1.42 1.24 2.04.94 1.83.3 1 1 .12.72-.63.71 1.12 1.43 2.2 1.48 1.06 1.51-.13 1.57-2.12.43-1.22 1.07-1.7.3-1.38.53.08 1.47-.3.64.08 1.34 1.05.71 1.1 1.15.88 2.16 1.16 1.18.17 1.05.6.47 1.73.47.5 2.34.45.44-.44 1.81.05 1.18-1.3 1-.3.57.04 1.43-.23 1.98-1.35.84-1.33-.16-.67-.54-2.92-.77-.66 1.38.1.68.89.85 1.3.78 1.8 1.89.58 1.16-.2 1.55.38 4.01.53 1.5.86.27.07 1.12-.8 1.3-.15 1.97-1.23 1.33.17 1.31-.88 1.14-.23.84-1.06.79-1.99 1.03-.51 1.1-1.36.55-.4.94-1.22.61-1 1.52.2 2.42.66 1.63 1 1.45-.2 1.67-1.26.65.36 1.3-.4 1.07-1.77 1.12-.74 1.34.63.78-1.17 1.7-.88.65-.5 1.78 1.08.76 1.66-1.1.04-.6-.86-1.15.84-.49.65.71.04 1.53.35.71 2.02 1.22-.16 1.13.48.37 1.58-.98.85-1.57 1.2.34.28-.43 2 .3 1.5-.5 1.56.03 1.12.82 2.15-.33 1.09.62 1.24-.23.49-1.23 1.75-.31.96-1.76 2.24-2.86 1.63-.83.25-.58 1.98-1.33 1.24.26.47.83 1.29.72.16 1.04 2.29 1.59.32.53v1.91l.47.97.9.77-.06 2.49-1.18 1.88-.97.97.08 1.1-1.72 2.46-1 .97-.19.66-1.1 1.05-.45 1.7-1.22 1.93-.19 1.07.11 1.59-1.09.78-.71 1.44.2 1.02-.36 2.07.02 1.16-1.07.35-.91 1.12-.12.72.55.68-.86 1.74.11 2.1-1.3.82-1.1 1.63.35 1 .28 2.17.38 1.34-.2.93 1.84 1.3 1.03 1.38 1.5.76.13.66 1.05.77.86.14 1.72 1.4 1.25 2-.42.84 1.17 2.44 1.5 1.64v.77l-.15.5-9.45.09h-8.46l-6.9-.05.06-6.37.16-1.94-1.41.27-1.21 1.25-1.33.91-.8-.23-1.48.12-3.11 1.36-.51-.3-1.16.95-.92.34-.73-.34-3.35.3-.06 1.19-1.57-.4-1.21-1.91-.35-.05-.18 4.64-4.06-.14-7.46-.1-15.1-.34-.2 9.5-.15 9.46 18.12.5-.42 18.6-12.53-.16-5.65.05-.32 15.83-.22 7.62-.3 7.9-.17 6.32.04 3.16-.1 15.76-7.76.7-5.84.06.04-1.35-1.93.02.02-.79-1.5-.01-.26-.65-.26-4.8-.8-9.13-.44-3.6-9.43.2-4.72.06-3.73.14-17-.38-7.58-.08-.16-6.33 3.16.01v-3.16l3.05.07-.19-9.85-8.2-.03-13.14-.18-13.38-.02-9.6.07-11.22.03-7.94.1-11.04-.02-.01-3.15h-1.57l.05-11.86-.14-7.03v-5.76l.1-6.88-.04-3.15-.12-19.5 8.02.04 22.42.04 22.31.06 21.8.2 2.54-.1-.37 19 18.75.5.5-18.98 7.57.16.57-19.24-.03-12.6.15-6.33.36-19.07-5.33-.09-13.57-.46-19.52-.14-19.08-.28-.03.06-19.25.1-19.09-.1-.08-3.06.2-3.08.34-12.9-9.99.01-5.99.16-3.1-.02-.02-23.7-.05-14.44.02-16.02-.09-1.6.02-20.93-.07-25.09-.01-12.9 2.7-.01 15 .03v-1.91z"/>
    <path region="4" short-name="41" long-name="Assembly District 41" value="1" d="m482.08 687.22 2.52-.04 4.46.1 3.07-.07-.02-3.24 13.82-.04 25.8-.11 20.42.02 27.67-.12.35.03h11.92l7.66-.1 5.07.01 6.25-.07 18.84-.04-.05-18.42h18.65l-.05 5.11.02 13.34.08 18.9.04 5.98-.05 12.7-6.2.1-.07-3.13-.28-1.34-1.12-1.6-2.25.27-2.52-.04-.1-1.35-1.17 1.86-.65.31-2.19-.07-1.35.6-.85 1.47-1.24.54-.3.95-1.3.05-1.43-.34-.54.84.23.68 1.45.18-.48.8-2.62-.46-2.27.3-1.05 1.38-.08 1.04.4 1.55 1.41 1.9h-9.03l-.74-2.07-1.41-2.24-1.37-.76-.47-1.36-1.02-1-2.08-.38-.94.87.06 9.55-1.15-.2-1.6.37-.86-.29-2.7.12-2.13-.15-.81-.36-1.3.04-1.16.95-.24-.82-.23-10.87-18.36-.03.03 4.84-.04 17.12-12.47-.01-.32-.78-.84-.4-1.13 1.4v1.46l-2.3-.02v-1.95l.72-.5-1.13-1.43.95.03.13-1.02-4.95-.03-.07 6.33.05 12.48 3.07.01-.06 16.31 2.3-2.33.7.2 2.3-.01.76.6v.76l-.85 1.1 2.35.43.14 2.4-.05 3.58.5 1.13-.5.67-1.03.03-8.13.16-.03-3.1-.96.2-1.62.88-1.34.15-1.72-1.32-.72-.3-2.33-.07-2.93-.6-2.44-1.02-1.59-1.09-1.64-1.68-1.85-.6-2.42.47h-1.36l-2.2-.57-.91-.58-1.69-.18-3.23.74-3.84-.5.07 3.03-6.12-.01-.06 9.22-.8.03-11.36-.11-.02-16.91-.1-4.74.01-6.02 5.91-.01-.61-.79v-.67l-.74-1.05-1.23.2-.3-1.58 1.08-.01 1.62 2.63 1.16.6.64-.22.48-1.12-.34-3.89-.8-.62-1.8-.83-.85-1.14-2.04-4.12-.26-1.2-.6-1.22-.16-1.15-.85-1.6-.83-2.68-.25-4.45-.94-1.2-.43-1.45-1.04-1.04-1.03-1.86-1.83-1.58-1.98-1.27-1.12-1.7-.3-1.19-.6-.83-1.13-.44-.93-1.15-.3-2.33-.65-1.3-2.12-1.76-.63-.84-1.34-.83-1.92-2.05-.37-1.06.1-3.1-1.18-2.14-1.24-1.24-.22-1.22-.62-1.19.2-1.25.52-.52 1.19-.43 1.43.2 1.24-.48.5-.99-.8-3.02.17-3.14-1.08-1.82z"/>
    <path region="5" short-name="78" long-name="Assembly District 78" value="1" d="M543.3 877.95h.51l.31.01.74.46-.01.39h-.77l-.03 1.54H545.56l1.52-.01.75-.01.12-5.26.4-.19.21.14.26-.34h1.46l-.04 2.55 2.2-.05-.43.53.4 1.85-1.5-.03v.56l-.01.13-.04 1.18 1.2.41h1.06l.1-4.94.64.3v1.6l2.4-.08.01-1.52 2.36.24-.24 1.68-.51.71-.18 3.48 3.93 2.38.69.03v.04l-.22.65-.35.8-1.64-.82-.07 1.94h-.5l.06-1.68-.83.66-2.67.16-.05 3.82-.42.02-.36.76-1.01.63-3.25.1.02-1.52-1.08-.02.01-1.36-.77-.18-3.05-.07-1.51-.82.75-.74.02-.88-.72-.7-.96.02.03-.77-.54-.77.03-.77 1.5.1-.03.67 1.14-.01.44-1.92-1.51.39h-1.52l.02-3.07h-.76l.06-2.4zm5.22 7.92.75-.96 1.52-.03.03-1.3-1.65.03-.6.24zm.14-2.49 1.41-.02v-.77l-.99.03zm.55 3.97.76-.21.14.92 2.57-1.66-3.15.06zm2.19-.96.87-.02v-.74h-.87z"/>
    <path region="6" short-name="37" long-name="Assembly District 37" value="1" d="M574.96 851.9h2.4l-.4 1.56-1.24-.03-.05-1.5zm-.2-18.41 2.88.02 13.78-.12 1.49-.07 13.74-.13 4.57.05.02-18.52 18.92-.44 17.58-.05-.02 2.99h2.58l1.8 1.32.75.88.7.13.06 3.76 3.8.04.11-2.7 1.22-1.14.3.8h1.5l-.03 3.06 5.37.07.1-9.13 18.31.08-.1 10.7-.14 7.72 7.45.08 8.63.19 20.53.27.09 6.16.1 12.35-6.12-.2-12.1-.08-6.87-.16-17.54-.08-.1 6.64-2.54-.12.09.72-1.35-.02-.1 2.3-1.34-.07-.34 1.1-.62-.05.14-4.2-3.22-.23v-1.14l-.76.02-.78-1.12.05-2.33-.58-1.03 1.24-.04v-.55l-11.17-.04-6.24-.05-.4.07-13.32-.05-7.36.07-7.7.36-7.71.16-2.81-.06-6.11.08h-5.59l.8-.5 1.39-.26.31-1.96h-1.45l-.84-.4-1.53.01v1.4l-2.3-.09-.95-.46-2.65-.03-.76.78h-1.51l-.04 1.54-4.56.06-2.9.02-.38 1.44-1.51.3-.3-1.68-2.42-.03.14-1.96.48-.38h1.53l.78-.77-.1-6.15h-.77l.02 1.54-2.3-.14-.02-1.4-.76-.31.02 1.73.75.1.02 1.56h-.77l.04 1.55-2.18-.14-.57-2.44h.53l-.03-1.54h-.98l-1.03-2.6.5-.21.1-1.18 1.4-.17-.64-.74.01-1.24.62-.11z"/>
    <path region="7" short-name="58" long-name="Assembly District 58" value="1" d="m761.95 828.31 1.52.04-.21.76-1.32-.03zm-1.45-37.96-.03 7.58h3.44l1.16.71.04 1.65 2.4.05-.02 1.53-.78 1.28.32 1.11-.63 1-.39 1.99-.77-.01.18-1.54-.44-1.46-1.08-.38-.85.23.05 1.31-.95 1.04h-1.55l.63 1.15.2 1.17h-.86l.38 1.54h1.27v.78l-1.63-.01V813l1.66-.38.01 2.33-4.88-.05v6.69l.36-.34 2.52.11.82.46.88 1.13v1.19l.76.36v2.3l.75.78-3.82-.1-.27-1.54-1.25-.04v1.16l-.74.35-.01 6.19h-1.1l.24-1.55h-.67l.37 1.54-15.6-.1h-4.65l.03-3.07-2.28.01-.27-1.24-2.05-.36.05-1.3-.77-.02v-1.4l.8-.33 4.14.03v-.53l1.06-.6.95.04-.04 2.23 1.55-.22.03-1.73-.76-.75-2.3.04-.81.94-2.28-.22.02-.72-1.53-.81-.79.76-1.52.19.06-1.8.76-1.78.1-4.07 1.07-2.12 10.83.12-.17-18.46.07-6.2 9.25.15z"/>
    <path region="8" short-name="59" long-name="Assembly District 59" value="1" d="m723.47 759.04 3.21-.04 7.78.07 7.7.14-.09-18.7-.08-15.5-13.16-.15v-.78l-2.33-.42-.09-1.79h-1.5l-.28.72.68.43.05 1.01h-2.05l-.02-2.54.87-.55 1.14-1.98.31-2.47-.1-2.2.22-.68 1.88-2.2.75-2.7 1.38-1.96 1.44-2.8.3-1.06.9-1.63 1.44-2.17.22-1.06.96-.63 1.24-1.56.48-1.59-.26-3.37-.59-3.52-.05-1.41-1.02-2.39.96-7.1.05-3.9-.1-1.63-.54-2.35-.13-1.53-.62-1.96.12-1.62.66-2.15-.46-2.49.28-2.46.92-2.77 17.9.2h6.25l1.99.16.1 11.77v4.76l-5.02-.01.02 6.24 4.93-.02.04 7.81 3.97-.04 12.83-.02.05 11.93-.59-.92-.97.6.78 1.18v2.8l.78.01-.02 3.18.14 12.48v6.2l-2.33-.01v2.43l2.3-.1-.02 5.64.12 10.64.1 9.29v10.42l-.09 8.39v9.33h-9.09l-9.52-.13.03 6.33-.12 6.21-9.33-.08-9.25-.14-.07 6.2.18 18.45-10.84-.11-1.08 2.1-.08 4.08-.77 1.77-.06 1.8 1.53-.18.78-.76 1.53.81-.02.72 2.28.22.8-.94 2.31-.04.76.75-.03 1.73-1.55.22.04-2.23-.95-.04-1.06.6v.53l-4.14-.03-.8.33v1.4l.77.03-.05 1.3 2.05.35.27 1.24 2.28-.01-.03 3.07-15.3-.13.07-9.21h-1.23l-.32-1.24v-1.71l1.16-.17.38-1.5.05-4.93 2.61.03.14-18.45.04-18.5z"/>
    <path region="9" short-name="81" long-name="Assembly District 81" value="1" d="m501.35 831 .17-13.86.07-10.88-.07-7.43-.04-14.26 11.37.1.8-.02.05-9.22 6.12.01-.07-3.03 3.84.5 3.23-.74 1.69.18.92.58 2.19.57h1.36l2.42-.47 1.85.6 1.64 1.68 1.6 1.1 2.43 1.01 2.93.6 2.33.07.72.3 1.72 1.32 1.34-.15 1.62-.89.96-.19.03 3.1 8.13-.16 1.78 3.79.04.58-.54 2.1-.85 1.52-.49 2.55-.95 1.86-1.2.9-4.24 1.7-1.36 1.32-.69 1.25-.35 1.23-1.5 1.53-3.47 2.66-1.24 1.28-2.7 3.22-1.86 1.33-3.27 1.9 1.15.27.08 10.41.01 8.13 15.39-.18 18.31.01.01 2.7.03 3.42-.62.1v1.25l.64.74-1.41.17-.1 1.18-.5.2 1.03 2.6.98.02.03 1.53h-.53l.57 2.44.06 2.16-12.32.08-6.16-.05-.04 13.15.05 5.4-3.09-.36-2.24-1.1-.01 1.55-9.21.12-8.47-.08-.02 1.54-.77-.04-.66.42-1.65-.34-.01 1.42-1.54.02-.77-.79h-.7l-.63-.79 1.52-.56.65-.93-19.47-.02-8.04.06-.05 18.38 18.2-.06v3.1l-1.54-.1v-.67l-1.42-.02.03.77-1.67.02v3.85l.78.96.57 1.33h1.45l.04-1.54h-.98v-.77l1.98.02.76.28v11.21l-8.55-.03-9.7.03.07 6.19h-9.22l-6.13-.09-2.84.17-5.27-.04-6.91-.23-.1-3.1.04-17.63.01-12.97V856.5l.88-.99.67-1.23 3.83-2.4 2.7-.2.85.36 2.7.36 1.53-.26 1.44.38 1.37.1 1.53.43 2.75.21 1.58-.49 1.76-1.03.92-.25 1.58.4 1.13-.2 2.61-1.47.61-.95z"/>
    <path region="10" short-name="5" long-name="Assembly District 5" value="1" d="m728.66 609.1.24-.57 1.2-.18-.02.76zm-1.05-18.55.26-12.49.18-6.25 6.29.14.62.43 1-.01v-1.87h1.24l.31-.55-.6-1.1-.82-.01v-3.14l-1.54-.03.6-9.33-.02-3.15 12.43.5 4-.26 3.84-.14.67.47 9.26 5.09 5.12 3.07-1.21.81h-1.7l-.98.32-.12 1.42-1.03.6-.02 1.81-1.54.03v3.9l.6.79-.68.69 1.64 1.18v1.07h2.2l1.75.86 1.54-.33.99.46.4.92.85.44.09 1.53-.23 1.07-.95 1.93-1.94 1.76-1.57.33v.44l-3.62-.04-.45 1.45-.67.13-1.06 1.82-.5-.3-6.37 8.54-.01 9.59-.57.23-1.17 2.42-.38.18-.89 1.7.02 1.02 1.4.12v-1.55l1.44 1.15-.02 1.46-1.17-.22-1.9.68-1.38.93-.3 1.33-.53.38-2.37 3.54.1 1.19-.85.23-.12 1.37.85.21-.01.77 1.54.24-.02 2.14-.79-.02-.02 1.53-2.42-.04-.97-.55.04-2.44-1-.17.12 1.42-1.31.45-.02 1.24h-.78l-.78.76v-1.9l-1.44-.58.02-3.6-3.3.32-1.44-1.23-2.32.04-1.77.74-.74-.26-.2-1.7.43-.56-.02-4.31 1.6.03.02-4.68-2.33-.04.05-1.15.8-1.33.02-2.6-1.3.79-1.18-.8-.99-.25zm18.47 32.95.24 1.19 1.05-1.14zm-8.57-53.55 2.08.46-.14-1.21-1.91-.34z"/>
    <path region="11" short-name="70" long-name="Assembly District 70" value="1" d="m355.64 687.4 1.38.23.14-.48 1.5.7-2.28 2.09-.2-1.73zm-29.74-22.66-.09-9.84.9-.36-.47-1.06-1.06-.7.38-.72.95-.02.32-1.25 1.31-.32.2-.9.85-.03.82-1.26.48.78.82-.8 1.36.35 1.18-.35.86-1.13 1.78-1.21 1.82-.04-.01-3.09h1.5l-.04-3.13.77-.01-.02-3.1.78-.02.15-2.5-.84-.86.45-1.54-1.69-1.16-.69-.8 1.27-.38.76-1.03-.68-1.9.24-.82 1.05.02.56.97 28.5.12.82-.04-.09-6.26.1-6.34-.04-6.28 13.34-.04 5.5.04-.05-18.82 9.5-.07 9.42.01 5.99-.16h3.35l9.26-.28 18.35.04-.07-3.14-.2-3.16.12-12.65-.03-3.15.04-15.6 8.97.13 9.33.12 17.8-.24v-4.88l.1-13.92 18.4-.03 18.28.03 18.33-.14 18.27-.08 6.71.29 14 .55 1.55.13.08 19.49.02 9.57-1.7-.2-4.48-.24-7.36-.77-8.74-.68.08 9.57-3.05-.06-.04-.83.74-.18v-1.07l1.36-.32.18-1.57-2.32.15-.03-2.69h.77l-.07-4.54-.75.47-1.33-.47H549l-.43-.45-1.06.46-.02 1.56h1.54l-.47 1.58h-1.83l-.07.83-1.36-.7-.9-.04-.01-1.6-1.57.04-1.58.75-1.4.03-.17 1.58-.78.8v1.58l-1.88.03v1.6l-18.5.12.1 16.54-3.76.07-.35 1.05-.93.64-.76-.3-1.2.55-2.83 1.77.12 1.1-2.42.7h-2.7v-.78h-2.33v.78h-4.3l.04 2.89-.9 1.13.9 1.7.01 6.8h-3.08l-.07 5.53-1.59.03.03 1.31.98.27-.14.62.54 1.71-.69 1.6-.75.22-.45.98.88 2.5 1.12 1.8-.32 1.51-1 .43-1.26-.03-.87.35-.76 1.37.4.54 2.24.21.52 1.02-1.46 2.35-.13.79-8.5.05-13.96.06-6.68-.03-22.7.02-1.85.12-9.67-.07.03 20.17.03 9.4-.05 18.45-.01 9.56-4.64-.31-7.73-.4-6.44-.45-6.2.02-.02 1.32 2 .4-1.23.87 1.56.38v.84l-2.34-.08-2.3.1.13.7-1.25.9-.08-.79-1.16.02.02 1.11-.47.82-1.1.5.06-1.46.71-.01.08-.95-1.04-.1-.6-.67-.2-1.44-2.09-1.34-.13-.97-5.55-.01-12.36.07-3.07-.02v-4.64l-.26-10.88.02-2.99-18.38.1.01 18.38.12 7 .81-.03.06 1.43 1.52-.09v-.6h2.35l-.15 1.38-1.27.09-.12 1-1.7.31-.07-1.21-1.38.2.1 9.14-15.98-.04-2.58.02-13.95.03v-.78l-1.72-.33-.47 1.11-2.56-.02-.21-18.48 9.3-.01-.07-4.64 3.08-.01-.06-6.02.01-7.78z"/>
    <path region="12" short-name="72" long-name="Assembly District 72" value="1" d="m491.34 626.26.13-.79 1.46-2.35-.52-1.02-2.24-.21-.4-.54.76-1.37.87-.35 1.26.03 1-.43.32-1.52-1.12-1.79-.88-2.5.45-.98.75-.22.7-1.6-.55-1.71.14-.62-.98-.27-.03-1.31 1.6-.03.06-5.52h3.08l-.02-6.81-.89-1.7.9-1.13-.04-2.9 4.3.01v-.78h2.32v.79h2.7l2.43-.71-.12-1.1 2.83-1.77 1.2-.54.76.29.93-.64.35-1.05 3.76-.07.2 11.74.07 7.84.02 20.89-.04 3.12 18.31.4-.15-19.72 13.06-.18 5.41-.14-.1 11.06.14 9.37 15.26.04 3.01-.02 18.9.05.03 6.48-.06 6.23 2.78-.02v.78h-1.57l.03 3.15h-1.24v2.34h18.35l-.03 12.92.03 10.4.55-.8v-1.68l2.8-.06-.04-1.33-1.56-.19 1.16-.88.39.29h1.56l.01 2.11h-.77l.02 2.34 1.56 1.56 1.56-.02v.77h-.99l-.28.78-1.44.03-1.16-.37-.01 1.17-3.36.01.05 10.08-6.25.07h-5.07l-7.66.09h-11.92l-.35-.03-27.67.12-20.43-.02-25.79.11-13.82.04.02 3.24-3.07.07-4.46-.1-2.52.04.01-2.78-.14-.96-.71-1.7-.95-.96-3-1.75-1.89-.9.04-.74.88-1 .15-1.62-1.07-2.24-1.5-1.58-.48-1.33-.2-1.93.05-1.48-.89-2.02.29-1.24-.38-1.02.01-1.72.38-.92 1.01-.98.93.05.95-.5-.03-1.18-.84-1.17.02-1.13.5-.6 1.16-.2.85-.92 1.29 1.01 1.36-.1.23-1.17-1.3-.08.05-.81 1.37-.18.67-3.26.15-2.16-.17-1.93 1.48.23.92.56h2.04l.52 1.73.83 1.08 1.49-.44.34-3.1-.68-1.62.8-.92 2.05.5.56-.33.52-1.4-.53-1.54-.75-.09-1.62.33-1.14-.27v-.79l1.05-.7 1.49.06.75-.73-.73-1.29-1.66-.27-.66-.94.82-1.16 1.77-.43.39-1.8.54.39.67-.59-.89-2.5z"/>
    <path region="13" short-name="74" long-name="Assembly District 74" value="1" d="m404.39 17.52 1.21-2.27.34-2.54-.17-4.84.25-1.58 1-2.96 1.9-1.87 2.91-.75 1.1.77 1.33-.75.99-.04-.14 1.1.42.74-.26 2.24-.67 1.2-.3 1.92-.98 1.66.52 3-1.53 2.5-1.1.18-1.47 1.66-.12.81-1.58.76-1.44-.2-.87.57-1.33-.14zm-7.6 28.35 1.45-.75 1.25-1.17 1.72-.33 2.9-1.37 1.33-.85 1.12-.36.1 1.37-1.64 1.14-.66 1.08-1.16.37-.4 1.42-1.43.56-2.22.28-2.33-.65zm-9.43-35.4.87-1.12.83-.4.3.8-.58 1.38.64.83 2.67 2.25-.25 2.73-1.88 2.07-.72-.08-.72-2.95-.29-3.98-.8-.5zm-2.38-7.12.2-1.62.92-.13-.17 2.35zm-5.27 13.9 1.05-.92 1.89.22.52 1.03-.09 1.62-1.01.94-1.2.4-.7-.88-.8-2.1zm-4.09-6.51 1-1.7.64.03.57.82-.29 1.75-.85.78-1.07-1.1zm-.44 25 .57-.79 2.08-3.65 1.3-.55 1.68-.06 2.58-1.77 3.82-1.36 2.85-.27 1.32-.41 1.16-.8 2.03-.8.86.2 1.8 1.41.34 1.54-2.15 2.42-.25 2.27-.66.39-1.6-.47-.92.6-.34 1.69.64 2.2.6.96-1.62.49.06-1.94-1.42-1.49-1.48-.45-1.32.7-1.33 1.32-1.57.13-.9-1.03-1.43.12-.54 1.6-2.15 1-1.66.38-.78-.43-1.65-2.52zm-3.74-7.72.9-.84.6-1.55 1.6-1.27.54-.99 1.85-.92 1.37.31v1.96l-1.04 1.2-1.19.56-.73 1.28-2.84 1.95zM369.2 11.1l.17-1.38.5-1.37.8-.47 1.82.2 1.9-.97.36-.97 1.03-.4v.95l-1.5 1.4-1.6.73-.42 1.98-.46.61-.64 2.44-1.94-1zm-1.5 32.64 2.35-1.42 1.48-.6 1.05.32.56.7-.88 1.83-2.55.98-1.1-.2-.9-.93zm-1.4-22.78.04-.69 1.45-3.23.85-.81 2.49.27 1.74 1.62-.77.56-3.18 3.35h-1.93zM363.33 0l1.06.47.5 1.05-.18 2.3-.74.24-.51-.8-.29-2.69zm-5 55.87.83-3.87 1.3-2.72 2.08-2.35 1.45.11.94 1.51-.31 1.24-1.58 2.86-1.74 2.24-1.18 1-1.28.52zm2.01-21.44-.28-.18-.5-1.83-1.13-1.06-.42-1.21 2.45-2.72 1.38-1.17.97 1 1.03.35 1.84-.03.6 1.57.97 1.57 1.7 1.76.57 1.74.29 2.62-.66.3-4.83.26-1.89.35-1.83-3.14zm-3.82-21.84.86-1.26 1.62-1.05.3.76 2.5 3.04.1 1.81-1.62 2.16-.75.25-.73-.69-.88.07-.76-.68-.57-2.33zm-2.57 54.2.82-.74 2.97-.73 1.3-1.07.96-.43 1.43-.02 1.57-.46.69-.93.11-1.37 1.07-1.24 1.32-1.1 5.72-2.97 2.85-2.16 2.12-2.34 1.42-2.39 1.85-1.91.87-.36 2.15.4 2.34 3.3 1.09 1.03 1.6.87-1.28 1.81-.96.42-4.54.42-4.45 2.3-1.73.48-3.1 1.35-.45 1.6.23 1.63.81 1.33 2.28.07.48 1.05-.77 1.29-1.74.3-2.12.75-2.21.48-3.1-.77-1.15.84-2.4 3.1-1.41.46-.66 1.17-1.67 1.32-1.17.42-2.57.06-.22-1.4 1.1-2.02-.14-1.13-1.22-1.9zm-2.19-42.25 1.29-.98-.03-.77 1.58.01-.53 2.05-1.67.36zm-.06 54.6 1.82-.17 1.53.36 1.67 1.44-.24.46-1.7-1.24zM340.5 20.1l1.14 1 1.2.36 1.07-.32.81.3-.78 2.05h-.52l-1.64-1.59-.93-.36zm-16.16 2.08.16-.84 1.76-.72 2.28-.5.87.21 1.92-1.39.06-1.5 1.02.22.4 1.78.7 1.44-1.65 1.23.02 1 .62 2.41-.25.97-2.24.1-1.01-.33-1.38.6-.6-.16-.78-1.84-1.47-.28-.55-1.76zm-87.84 51.2 2.2.2 4.03-.6 1.76-.85 1.12-1.22 3.44-.51 3.23-1 1.65-.68.74-.9h1l1.24-1.46 1.29-.76.4-.9 2.23.92 1.24.14.29-.56 1.78-.17 1.09-.52 1.13-1.18.93-1.62 2.16-2.33 3.62-2.06 1.93-.8 1.85-.04.26-.65 2.07.18 1.46-.3 1.41-.66.91-.96 2.8-4.27 1.84-1.28 1.5-.23 1.41-1 2.38-3.3h1.07l-.74 1.82-1.45.9-.35 1.11-1.29 2.25.67 1.09 1.52 1.27 1.85.93 1.65-.1.47-2.31 1.65-.2.65-.5.84-2.77.64-.66 1.05.65-.49 2.12.24.45 1.83.63 2.73-.33 1.37-.88.45-4.15.43-.63 1.54-.21 1.97 1.2 2.35-.69 2.03-1.78.5-1 .33-2.13 2.37-1.91 2.16-1.07 1.55-.3 1.63-1.82 1.68-3.56 1.37-.56 1.6 1.21.93.05 2.71 1.32 1.42.24 1.23-.47.8-1.79 1.28-.78 1.72-.54 1.28-1.03.2-1.45 2.44-1.03 1.24.1 1.41.8 1.4.28.92.8.38 1.21-.13 2.85.81.77 1.53.35 1.46-1.54.88.1 1.2.81 1 1.67.4 1.33-.03 1.92.43.7 1.94.19 2.06 2.23.57 1.19-.02 1.14-.58.7-1.05.39-.9-.38h-1.43l.9 1 .1.93-.38 1.16-1.3 2.75-1.24 1.3.04 1.73.48.81-1.3 1.54.05.68-.86 2.04-2 2.17-.4 1.17-1 .31-.74.7-.3 1.46-1.17 1.73-1.3.19-1.04-.3-.9.31-1.08 1.88.64 1.48-.45 1.32-.66.85-2.85 1.82.26 2.1 2 5.35 2.74 5.34-.17 1.39-1.56 1.75-.7 1.2-1.3.54-1.41 1.67-.84.56-2.02.41-1.1.64-.52.96-.07 2.75-.9 2.18-.1 2.12-.65.63-.45 1.47-1.1 1.22-.46.96-1.51 1-.43.76 1.1 3 .64-.15 3.09 1.18 1.62.14 1.32-.65 1.85-1.24 1.44-1.7.96-.62 1.12-.18 5.8-3.18 1.02-.76 4.28-1.23 3.8-2.52 3.45-3.48 1.58-.84-.36-1.06-.9-.83-2.34.75-.1-.3 2.09-1.83.63-.16 1.9.3 3.01.74 2.59 1.42.3-.48-1.4-.81-.09-.52-2.45-1.98-2.42-2.45.3-.62 6.3 5.89 1.8 1.78 8.11 7.24 6.44 5.4 4.34 3.03 3.12 1.2 1.93-1.32 1.96-.7 1.06.1 4.97 3.47 3.89 2.15 1.7.7 3.01-1.04.55 1.98 1.04.63.35 1.55.86.72 1.04 2.65 1.14-.27.88-.65 2.03-1 1-.05.5.53 1.1-.33.76-1.3.16-1.3 1.15-.45.77.17.8 1.6.94-.1.67 1.3.84.33.04 1.53-.59 1.97-.52.48.6 1.23 3.02-.6-.06-.63 1.75.63.98-1.27.7.76-.33 1.28 1.26 1.7.2.9 2.97-.22 1.51-.51.73-.62.44 1.86.98-.4.9.36.74 2.56.94 1.33v.83l.61 1.05 1.29.8.02 2.1.6.97 1.75.67-.13 1.25.33.58-.18 1.67 1.34.06.9 1.2.17 1.6.58 1.08.11 3 .6.58.16 1.21.96.48.45 2.11.69 1.06 1.1.84-.3.48.05 1.63 1.7 1.84.63.98.32 1.93-.53.22.22 2.34-.27.53 29.57 8.3v7.05l.06 5.7v18.25l-.14 4.4.12 2.88.06 13.17.06 3.4-.1 16.04-10.44-.08-.59.09h-6.77l.17 20.92-.36 15.58.26 19.33.07 3.17-.11 11.82.06 8.42-.04 9.28.03 6.07.14 27.03.04 11.15-10.85-.17-3.94.07-.9.13-19.46.18h-3.25l-12.6.44-.45-.06-19.87.44-27.07-.16.13-25.5-.14-1.63-.12-7.32.02-11.58.12-11.4.15-9.66v-9.56l.06-4.84-.08-14.25.01-7.44-.13-5.24.2-1.45-.23-14.21.3-9.48-38.08.12-.3-.04-.16-3.17.26-4.03.08-4.4-.16-7.7-12.88-.16-8.5-.06-17.32.1-3.2-.23-16.28-.2-12.8.06-.03 6.57-7.2.02-8.89-.2-9.64.07.05-6.51-.1-19.33-1.61-.18h-36.53l-19.32.09-19.57-.04-.1-19.37-.03-19.4.03-19.41 12.85.01 6.58.13-.19-12.97v-6.44h-.76l-.07-9.76 6.6.09 16.14-.05 8.11.13-.03 9.72-1.14-.01.11 3.24 3.2-.1.25 1.58v1.65l6.25.04-.09-6.35 12.45.05 6.53-.06-.07-3.32.1-8.42-.04-1.22.09-14.18.09-1.21.05-7.32.02-19.88z"/>
    <path region="14" short-name="79" long-name="Assembly District 79" value="1" d="m584.66 858.22-.14.77-.77.48-.08 2.84-1.52-.23.03-1.53 1.58-1.58-.17-1.07zm-28.2 9.65-.04-5.4.04-13.15 6.16.05 12.32-.08-.06-2.16 2.18.14-.04-1.54h.77l-.02-1.56-.75-.1-.02-1.74.76.31.01 1.4 2.3.14-.01-1.54h.78l.1 6.15-.79.77h-1.53l-.48.38-.13 1.96 2.4.03.3 1.68 1.52-.3.38-1.44 2.9-.02.18.98-1.87 2.76-.03 1.2-2.03-.09-.62.38-.39 1.21-.17 3.78-1.5-.05.03-.78-1.19-.42-.93 3.45-2.17-.09.02-.75 1.14-.04.02-.7-1.22-.03.02-.76.7-.62-2.25-.4.08-.7.71-.89.85.2.02-1.6-1.53-.04-.08-.77-.91-.03-1.31 2.02-.82.77-1.56.26-.16.68 1.69.14-.02.76h-1.06l3.87 5.13-.83 1.08h-6.64l-.09 3.1h-9.23l.14 2.26.37.65 1.16.85.5.84.84.5.18 1.03-.79.3-2.36-.25v1.52l-2.4.08v-1.6l-.64-.3-.1 4.93-1.08.01-1.19-.4.04-1.2v-.12l.01-.56 1.5.03-.4-1.85.43-.53-2.2.05.04-2.55h-1.46l-.26.34-.21-.14-.4.2-.12 5.25h-.75v-.77l-1.5.02-.02.77H544.05l.03-1.54h1.52l.06-1.54h-.52l-.28 1.15-.74-.46H543.29l.44-1.96 1.93-.27-.04-.77h-1.48v-.76l3.83-.02.24-1.49 3.6-.1.05-1.38.63-.38 1.92-.48.49-.88.03-1.49zm18.5-15.97.7.04.06 1.49 1.24.03.4-1.56z"/>
    <path region="15" short-name="85" long-name="Assembly District 85" value="1" d="m554.83 437.11 22.56.17.04 24.08-.16 4.87v9.5l5.82-.05 13.26.06-.09 18.9.02 3.27-.07 9.43.1 25.37h-18.89l-1.56-.13-13.99-.55-6.7-.3-18.28.09-.1-18.76 18.2-.22.04-12.45-.02-16.16-.54 1.23-1.9-.8-2.17-1.86-.86-.25-.79.75-.02-2.64h-1.58l-.05-.78 1.56-.01-.03-.78h-1.57l-.04-.78h-1.6l-.48.75-1.7.05-.1-.8-3.96.06.85.52.02 1-.79.8.03 1.6-1.08.02-.46.82h-.96l-.07 3.16 3.32.02.8.73.01.82-1.62-.03.1 4.73.4.8-.4.8-6.5.03.57.78.02.79h-1.3l.25-1.58h-3.38l.76-1.22 1.52-.78.49-.53.5-2.2-.23-.52.73-1.92.6-.15.3-2.5-1.7-.16-.15-1.67.55-.7 2.68-.27-.34-1.12-1.8-1.16-1.38-.51-1.16-2.92-1.03-.5-2.1.01-.23-1.56-.85-.32-2.05-.08-.85.58-.06.37-.2.15.12.39-.34.15-1.32.19-.58-1.27 1.58.32.78-.23.01-1.04-.8.02-1.57-.76v.79h1.19l-.07 1.12-.9-.26-1.01.04v.69l-1.58.02-.86-.8-1.43.06-.07-1.64-.77-.8-2.4-.01-.8-.27.78-.92.8.4 2.4.01-.02-.79 3.14.08v.72l1.76-.02.65-1.06.74.67.02 1.94.65-.33.13-1 .77-.27h1.72l-.13-.8 1.11.1.32-1.3h.93l-.09-2.79 1.2-.7-1.13-1.9 2.62.22.48 2.26h.75l.79-.59.38.7 1.92-.1-.86-2.34v-.75l2.46-.14.07-3.01-.05-3.3 18.33-.02zm-30.8 35.1h1.18v-.8l-1.06.28z"/>
    <path region="16" short-name="1" long-name="Assembly District 1" value="1" d="m954.08 392.5.07 1.34 1.28 1.13.47 1.85.04 1.54-1.2-.17.28-1.14-.57-1.85-.6-.78-1.17-.66-1.39-2.79 1.1-.68 1 1.56zm-7.16-7.53.38 1.02 1.5-.14-.5-1.5-.15-1.46-1.05-2.91-.14-.9 1.88-6.93.87-1.26 1.07.75.53 1.85-.33 2.24.88.37.7-1.62.73-.79 1.42.05.53-.32 1.35.1 2.38-1.1 2.48.43 1.28 1.43 3.53-1.17.18-1.24-.27-2.1.35-.55 1.79.35 1.08.95.65 2.14.07 1.23-.44.28-1.52-.46-.97.44-2.03 3.19-.56 1.11-1.28 3.63-.57-.16-1.62 1.31v1.98l-.77 1.4.47 1.88-.14 1.16-1.34 1.06-1.7-.88-.83-.73-1.39.48-.29.44-1.06-1.46-1.37-2.88-1.65-.01-.37.69-1.24.88-.06 1.1.52.73-.7 1-1.14-.33-1.24-1.53zm-.71 9.94.33-.72 1.6.6.68 1.7-.16.87-2.01-.9zm-64.54 28.07.5-1.2-.13-1.93h.92l.92-.89.55 1 1.08-.07 1.09-.93.27-1.16 1.07-.9.72 1.15-.8.89.38 1.5-.15 3.24-.4 1.08.1 1.27.86 1.72-.36.3-6.53-3.8zm-29.08 77.34h.78l.21 1.11 1.29-.36 1.4-1.22.29-2.35 1.58-1.87 2.35.26 1.62-1.25-1.03-1.36-1.62-1.57.97-.5 1.73 1.5.72.16-.22 1.29 1.1.8 1.21.04.66-.58.44-1.38 3.24-3.46 2.2-1.34.15-.95 1.42-.61 1.98 1.12.2.48-2.68-.48-.34 1.44.92.14.77-.44 2.06 2.76.67 1.68.69.43.85 2.19.4 1.76.63.8.51 1.55 1.06-.49-.04.54.77.97 1.16.86 1.8.58 1.59 1.54.98.25.96.83.33-.59-.96-.98-1.11-1.61-.75.2-1.23-.98-2.07-.93-.24.2-1.37-1.84-.48-2.52.63-.8-.18-3.6-.26-.92.4-2.48-.27-1.06-1.24-1.8-1.97-1.37.18-1.6 1.51-1.94-.48-.98.76-2 .95-1.1 1.93-3.76 2.24-6.78.85-1.58 1.52-1.84.38-1.97 1.6-.72 1.07-2.8.54-.73.06-1.42 1.1-.53.88-.84.22-1.4 1.1-.66.45.82.66.84 1.36-.04.25-2.42-.29-1.34.6-2.57.52-.4h1.1l.78-.9.49-1.07.18-1.38.07-4.53.4-1.84 1.11-2.09.98.78.7-.1-.06-1.87-.48-2.8.63-1.5.02-.75.75-.68-.59-1.19 1-1.03 1.26-.38.16 2.23 1.62-.32 1.18.59 1.44.19.15.93 1 1.72 1.32.42 1.37-.99-.39-.84-.03-1.87-.4-1.71 1.22-2.32 1.52-.68.88.44.83-1.58.73.17 1.32-.38 1.44.65.58-.26.09-3.15-.34-.95-.2-2.9.59-1.67.4-2.4 1.02-1.49.17-1.9 1.4-.58 1.2.83 2.23.7.44-.63-.4-.84-.16-1.4.71-1.4.41-1.82.15-2 .4-1.4 1.2-.65.33 1.31.91 1.53 1.2.25.87-.7 2.5.1-.22-1.02.53-1.26.9-.2 1.05.94.79-.13.73-.7 2.22.64 1.68 2.47.33 1.24-.65 1.46-1.53 1.64-.08 1.25.4 2.3 1.36.52-.39 1-1.38.6-.22 1.14 1.05 1.82-.9 2.03-1.09-.46-.6.88-.99.46-.4-.42-.33-1.85-.5-1.01-2.6-1.51-1.43.45-.4.92.56.51-.43.76.88.67-.13 1.02-1.22.56.4 2.85-1.16 5.7.12 3 2.38 2.3.07.61-1.67 1.73-1.51.18-.02-.7-.82-.6v-1.07l-1.02-1.03-.55-1.14-2.06.24-.2 1.82-.67.66 1.15 2.1.17 1.42.9.48 2.06.48.97 1.83.34 2.29-.6.94.87 1.63-1.6 1.43-.88 1.78-.75-.05-.26-1.14-.96-.57-.8-1.12-.73-.52-1.07.48-.55 1.21.04 1.14.62.6h1.1l.11.95.67.29.14 3.45-1.96.57-.8-.12-.07-2.32-.51-.77-1.4-.3-1.5.4-.6.74-.26 2.16.01 3.05-.88 1.22.05 1.17-1.42 4.08-2.27.76-1.46.92-.78 1.43-1.02 2.73-1.04 1.09-1.16 2.68.23 2.85-.07 1.64 1.56 1.27.87 1.45.14.9-.5.82-1.82.5-2.7 1.88-1.27 1.25-.55.98-.19 1.91 1.69 2.6-.1.7.37 1.56-.84.78-.68-.09-1.53.87-.17.7-1.7 1.15-3.88 1.94-1.54 1.8-.71 2.1-.77 3.53-.24.49-1.44.68-2 1.52-.18 1.12-1 .97-.94 1.42-.4 1.57.33 2.17-.35.87-2.16 3.83-.37 2.6-.91 4.04-1.3 2.8-.3.96-1.06 1.56-.26.9-1.77 2.9-.71 1.52-.02 1.11-1.03 2.46-1.2 2.09-.08.78-1.84 2.92-1.95 1.38-.44 1.28-1.63 1.19-.94.96-.4 1.84-1.07 2.24-.8 2.9-2.46 4.55-.8 2.7-.07 1.73-1.54 4.37-.01 2.56-.58 1.81-.4 3.02-.62 1.57.2 1.07-.6.23-.57 1.69-.33 2.46.1 2.02-.7 2.53-.81 2.11-.25 1.75-.73 2.51.16 2.3-.1 1.74-.54 1.76-1.09 1.8-.84 1.75-.24 1.02.27 1.08-1.16 1.87-.32 1.13h-15.65l-18.83.07.07-6.26.04-12.62-18.84-.06V573.1l.05-5.93 1.18-.27-1.13-1.57-3.14-.1-.01-1.54.97.01 1.29-3.1-.6-.42.03-4.3h-.56l-1.62-1.24 1.5-.81 1.99-1.77.9-1.2.2-1.19 1.66-.65.43-.46.44-1.53 1.15-.92 1.3.3 1.15-.08 1.53-1.06 3.4-2.77 1.08-.33 2.93-.07 2.64-.84 1.79-1.86.51-1.22v-.86l.55-1.7 2.71-3.05 1.55-2.44.34-1.03-.12-2.14-.53-2.43.14-1.2 1.1-1.41 1-.61.23-.97 3.02-5.06 2-2.42 1.61-1.58.28-1.89 2.3-2.22 1.41-3.23 1.88-2.1 1.55-2.57.75-.74 2.57-1 .63-.89 1.71-1.38 3.33.22 1 .24.12.86-1.58.7z"/>
    <path region="17" short-name="94" long-name="Assembly District 94" value="1" d="m291.51 732.63 1.1-.93.33 1.08zm-35.5-49.28 1.38.02 14.49-.05-.1-1.37-.82-.18-.22-.79.3-.98-1.56-1.6.06-1.34-.85-.13-.09-.81.84-2.27-.27-1.03.43-.9.78.37.7-.44-.72-.96.32-.63 1.3-.67.76-1.14.14-1.42 1.33-1 1.84.34 1.76.63 1.17-1.43.95-.35.47-.78 1.87 1.2.42 1.27.8.7 1.11.2.9-.38.78.15 1.16.98.83-1.11-.1-1.23 1.38-1 .05-1.13 1.32-.77.18-2.13 1.74.44 1.51.1.83-.7.6.05.24 1.1 1.27.04.97.63.01 1.86 19.86-.07 7.77.1 3.1-.06-.02 7.78.06 6.02-3.08.01.08 4.64h-9.31l.2 18.5 2.57.01.47-1.11 1.71.33.01.78 13.95-.03-.14 17.02.05 20.23-11.32.02-6.33.05-12.97.01-6.38-.13-7.8.02.04-4.5 1.86.09.02-1.01 1.4.01.12-1.72-.24-1-1.16 1.12-.68-1.43-.08-.87 1.59-1.53-.17-1.03-1.56-1.7.44-.3-.07-1.45.99-2.85-.3-1.11.28-.78-.03-1.55-1.16-.1-.42-1.8v-1.16l-.4-.76-1.15.6.03 1.74h-1.14l-.6.97.38.83-1.71-.28v-1.57l1.4.04.56-.82-1.59.15-.02-1.82 1.93-.6.77-.8 1.37-.01.18-.78 1.12-.6.77.46 1.21.06-.49-1.54.5-.44 1.54.09v-2.35l1.15-.13-.05-2.6-1.78.97-.1 3.5-1.11-.36-1.14.1-.06.6-1.6.86-1.62.02.55-1.18-2.76-.08-1.29.15-.23-.69-2.04.03-.15-1 .7-1.05-.24-.79-1.44-.78-.77-.15v-2.27l-5.33.03-.1-3.08-8.88.05-1.5-1.13-.9-2-.23-1.79-3.25-4.15-1.44-1.12-1.69-.97-1-2.03z"/>
    <path region="18" short-name="96" long-name="Assembly District 96" value="1" d="m281.9 738.8 8.85.03 7.8-.02 6.38.13 12.97-.01 6.33-.05 11.32-.02-.05-20.24.14-17.01 2.58-.02 15.98.04-.1-9.13 1.38-.21.07 1.21 1.7-.3.12-1.01 1.27-.09.15-1.38h-2.35v.6l-1.52.1-.06-1.44-.8.02-.13-6.99-.01-18.38 18.38-.1-.02 2.99.27 10.88-.01 4.64 3.07.02 12.36-.07 5.55.01.13.97 2.08 1.34.22 1.44.59.67 1.04.1-.08.95-.7.01-.07 1.47 1.1-.51.47-.82-.02-1.11 1.16-.02.08.78 1.25-.9-.12-.69 2.3-.1 2.33.08v-.84l-1.56-.38 1.23-.87-2-.4.02-1.32 6.2-.02 6.44.44 7.73.4 4.64.32.08 11.64-.02 5.7.08 12.85-.07 11.2v12.17l-6.11.35-3.46.27-9.08.57.03 17.2.19 19.58-14.77.18H372.5l.14 8.5-1.53-.02-.82 1.54.14 1.53h1.54l.73-.76.29 7.66-.03 18.42.4.07.04 12.36-.08 10.5-.1 5.2.03 16.02-1.84-.37-1.73.12-1.28 1.01-.01 1.58-1.61 1.4-1.66.87-1.13 1.09-.83 1.26-.44 1.65-1.17 1.6-1.2-.09-2.02 1.79-1.81.21-3.84 1.32-1.24 1.09-.3 1.26-1.52 1.21-.49.71-1.3.58-1.13-.06-1.12 1.71-2.05.69-2.07.42-1.63-.18-1.43.66-.93.14-.89.87-1.89.55-2.41-.55-1.28.73-2 3.84-1.61 1.14-.4.66-1.66 1.18-1.38.75-1.86.18-1.03.6-1.18 1.96-1.68 1.18-1.7.7h-1.43l-1.46.55-.72 1.6-1.24.42-1.85-.5-.38.2-1.75-.22-1.6-1.18-5.44.26-1.93 1.2-1.2 1.07-.1-.7-1.67-5.9-1-4.09-.52-4.93-.2-1.14.33-1.18v-1.53l.32-4.98-.4-3.17-.02-2.15.41-1.23 2.95-1.75 1.54-2 .45-.85.72-2.88.7-.94 1.5-2.85.08-1.2.74-1.45 1.73-1.32 4.43-4.6 2.58-3.16.72-2.29-.6-1.27-1.26-.07-.42-.4.14-1.96-2.15-4.35-3.33-4.62-3.39-2.7-1.27-.73-2.7-1.07-2.51-1.3-1.55-1.06-1.07-.36-2.14-.32-.74-.72-1.26-2.84.22-.9 1.13-1.04 1.1-3.16.2-1.17-.44-2.8.02-.9-.43-1.5-.62-1.12-3.34-4.36-.71-2.05.17-1.04 1.19-1.17.64-1.23.8-2.87-.37-1.33-.01-2.03.05-2.54-.8-1.16-1.6-1.29-.6-1.91-.99-1.57-.1-1.89.5-1.25 1.2-2.1.2-2.3-.05-1.32-1.12-1.7-2.13-2.26-.83-.66-1.05-1.39-.57-1.15.04-2.56.82-2.32-.1-2.02-1.22-1.55-.24-2.5.08-2.13.77-4.07-.1-3.03zm73.74-51.4.54.81.2 1.73 2.27-2.09-1.49-.7-.14.48z"/>
    <path region="19" short-name="99" long-name="Assembly District 99" value="1" d="m702.1 867.72 2.6 1.11-.44.38.17 1.15-2.38-.04zm.53-16.14 12.1.07 6.12.21 5.98.24 9.18.13 12.07-.05-.27 10.7-1.37.31-1.73-.04-.06 2.3 1.54.02.78.77.18 1.55-4.07-.02.13 3-4.7.1v6.68l-.14 8.8v3.06l-2.98-.05-5.46.05.78.59-.04 1 2.3.01-.02.77-1.54.75-1.7-.03-.11.59-2.45.18.27.6-.56.92-1.92 1.52-1.17-.01.02-.76.75-.77.01-1.52-.86-.4.12-1.15 1.12.02v-.64l1.95-1.1v-.58l-6.77-.15-6.12-.03.02-3.08-1.5-.03-.04 1.53-.96-.34-.35-1.27-.98-2.2.08-.8h2.6l-.32-.94.02-1.17.04-2.5 1.4.42 2.33 1.01.14-1.52-.84-.01-.05-2.9-1.33-.12-1.55-1.5.02-.9-.76-.4-.28-1.62-.67-.44.12-.78-.6-1.17-.03-1.1.67-.75 1.5.8 1.5.04.07-3.89-.75-.02-.5-.73-1.01.33-.03 1.96-.47-.01-.26-1.16-1.5.36-.01.65-.76.87-.14 1.53-6.7-.12.07-3.28-1.5.42.2-2 1.35-.12.21-6.55zm11.38 34.56h1.51l-.03-.76h-1.23z"/>
    <path region="20" short-name="30" long-name="Assembly District 30" value="1" d="m48.29 493.38.83-2.2-.07-.83-.84-1.54-.82-2.15.28-1.87 2.1-1.41.3-.74 1.07-5.69-.03-.93-.58-3.1-.95-2.02-1-.67-.35-.9-.14-2.43.2-1.07-.33-2.88 1.34-4.2-.34-1.82-2.18-2.28-1.4-.91-1.42-1.56-.77-1.49-.13-1.74.32-.9 1.44-2.22 2.7-2.08 3.04-3.07 1.46-1.13.84-1.8-.96-1.44-.57-3.29-.42-.86.47-1.4-.3-2 .19-1.26-.4-.62v-1.7l-1.93-1.95-.35-1.12.03-1.58.47-2.14.91-1.03 16.46-.13-.1 16.75H64.8v-2.4h-.79l-.01 1.58-1-.5-1.37.48h-1.6l.08 2.78.8.5-.47.71.03 2.22 1.94-.04 1.17-1.19.01-1.78h.78v.97l.79-.02.7 1.53 1.32-1.37-.16-1.08 10.66.04.03 1.64h1.57l.01.62 1.59-.63v.8H79.5l-.18.8h1.57v2.48h.8v1.45h1.5l.9-.32.5-1.26 1.86.02v-.75l.78-.68 1.55-.62v-1.1l-1.79-.04.58-2.41.68-.02 2.09.02h2.17l.37.01.85.01.36-.01h.24l14.78.1.06 11.12v7.85l-6.2-.04H90.4l-.05 18.9 18.87.05-.01.8-1.56-.01.51.79.29 1.56 1.84.04.52 1.6.78-.76 1.57.1v-.77l-1.15-.09-.4-1.16v-2l9.44.5-.03.57 1.19.3-.06 1.57 1.02-.56.63 1.42.92-.7.27-1.86-.78-.57 3.17.15-.14 12.18v6.74l-18.02-.92-31.68-.04-12.38-.03-.03 18.87-11.77.01-6.28.1.03 2.32-2.37.03v-.8l-1.26.04-.01.78-.9.01.9-2.79 1.77-2.27.9-2.25.4-3.15 1.2-1.92.06-1.45.95-1.5.13-1.33-.51-2.9z"/>
    <path region="21" short-name="31" long-name="Assembly District 31" value="1" d="m624.81 980.63 4.35.04-.08-8.91V970l1.42-.02-.02-1.35-1.03-1.56 1.4-.12-.38-.73v-2.52l.76.55v-1.94l1.57.04.66 1.12 1.7-.29v-.46l1.6-.27 10.45.2-.08-6.07-.2-12.34 9.67.28 3.97.2 4.5.09.2-10.7.08-7.83.82-.02 25.13.07 10.45-.11-.34 13.59-.03 4.53 5.36-.03 12.87.19 18.27.15.16 13.01-1.67-.46-.17.5 1.86.65.12 4.55-10.62-.12-17.44-.12.01 1.55-2.25.1v1.61l-3.1-1.21-.01.89 1.28.17-.06.68h-1.22v-.77l-1.53.03.01.95h1.03l.5.9v1.18h-2.97l-.01-1.2-.9-.3-1.36.01-.04-1.52-.79.02.03-3.03-.64-.03-10 .14h-4.52l-.01 6.1-.22 1.1-.65.18-1.37-.36-.75.7.08 2.37 1.91-.92 1.03.2.1 8.9-16.05.41h-2.2l-.04 5.18.01 13.31-6.7-.13-26.7-.7-3-.02.02-3.22.41-1.11 1-.38 1.07-1.73-.72-1.33-1 .19-3.03-.01-.02.63h-1.34l.07.88-1.87-.08-.72-.66.2-1.73.77-.52.06-1.64-1.65-.02-.58-1.53.75-.14 1.96.15-.26-2.2.67-1.35 1.05-.78zm79.97-16.5 2.32-.14-.8-1.35-1.52-.03z"/>
    <path region="22" short-name="39" long-name="Assembly District 39" value="1" d="m685.82 758.59 14.52.2 9.27.07 13.86.18.1 18.65-.04 18.48-.14 18.46-2.6-.03-.06 4.92-.38 1.51-1.15.17-.01 1.71.32 1.24h1.23l-.08 9.2-20.53-.27-8.63-.2-7.45-.07.14-7.73.1-10.69-18.3-.08-.1 9.13-5.38-.07.03-3.05-1.5-.01-.3-.8-1.22 1.14-.1 2.7-3.81-.04-.06-3.76-.7-.13-.76-.88-1.79-1.33h-2.58l.02-2.98-17.58.05-18.92.44-.02 18.52-4.57-.05-13.74.13.05-1.92.12-14.47.14-2.12-.17-15.51.66.77.66-.77H596l-.01-3.1 15.37-.02-.04-9.15-.13-7.85.86-.03.01 1.73.78-.03-.03-2.37 2.82.2.02-.98.64-.23 12.54-.22.23 2.25.77.42.03 1.12.95.03v-.78l1.56.06-.41-.78-.12-2.35 10.48-.05.07 4.02 2.92 1.73 3.37 2.18 1.23 1.27 10.56.03.92-1.32.64-1.76 2.02.1-.75.74.02 1.55-.77.73 4.61.01-.07-9.23 9.35-.03 9.43.07z"/>
    <path region="23" short-name="40" long-name="Assembly District 40" value="1" d="m592.7 627.5 3.44.07.05-6.72.1-28.02.1-31.39-.08-12.38V532.7l6.06.05 6.47.13h6.18l6.11.09 18.12.11 6.3-.02v-1.56l1.64.53.02-1.33h.76l.77.8.03 1.47 1.57.08 11.78.12 9.4.02.1.12-.04 9.63.56.4.3 1.16-.87.88-.02.7 2.07.02.04 3.14-2.05.02-.04 3.16v11.28l-.04 7.86 9.25.02 6.35-.04.06 2.85-1.57-.06-.01 1.63h-1.56l-.1 4.82-1.52-.02v4.74l-1.64.02.03 2.37-1.63.01-.77.8.03 1.57-5.5-.02-.02 2.8 1.57.02.09 3.15-1.33.02-.08 1.21.79.15.05 1.77-.9.22-1.55-.15-.27 12.43-.19 15.7h-6l-4.42.1-12.29.05.1 20.3.05 8.13-.04 8.97h-18.65l.05 18.42-18.84.04-.05-10.08 3.36-.01v-1.17l1.17.36 1.44-.02.28-.79.99.01v-.77l-1.56.02-1.56-1.56-.02-2.33h.77v-2.12h-1.57l-.39-.3-1.16.9 1.56.18.03 1.33-2.8.06.01 1.68-.55.8-.03-10.4.03-12.91h-18.34l-.01-2.35h1.24l-.03-3.14h1.57v-.79l-2.78.02.06-6.23z"/>
    <path region="24" short-name="44" long-name="Assembly District 44" value="1" d="m619.8 956.13-.08-4.1 2.39.8-.05 1.08.71.03.31-.97 1.72-.5.47.49-.31 1.16.68 1.17.46-.08-.08-3.12-.85.01-.75-.6.58-.53.1-1 .79.05 2.5.95 5.75 2.11-.03-2.87-.69-.01-.53-.9 2.6-1.96.14 2 .4.93 1.42.03-.27 1.51.76.02.03 1.53-3.02.04-.2 1.5 1.71.05.03.65 1.52.03.04 2.46-.68-.27.07-.92-.83-.54.05 3.77-3.24-.63.04 3.97-.66-1.12-1.56-.04-.01 1.94-.75-.55-.01 2.52.39.73-1.4.12 1.02 1.57.02 1.34-1.42.02v1.76l-1.47-.04v.97l-1.46.1v1.55l.73.18.01 1.54-2.27.22-1.26-.23-1.04-.88.76-1.42-.02-.96-.77-.19-.38-.92h-.83l.3-1.12.47-.17 1.23 1.07H625l-.35-1.43 1.81-.09.38.77.76.02v-2.29l-2.07-.03-.98.57-.18-1.15-1.36-.21.02 2.15-.54-.01.12-1.56-.56-.56h-.76l-.08 2.54-.28 1.5h-.58l.4-2.51h-.78l.02 2.3-1.53-.02-.02-2.28h1l.21-1.29.55-.7.88-.29.77-2.28-1.98-.78v-1l1.01-.57 1.3-.01-.04-1.27-1.9-.25-.21 1.3-1.46.22.08-.66 1.22-.85-.06-2.32h-.78l-.02-2.3zm0 0-.2 2.16.59.07.37.83h.81l.1-1.15 1.37.36-.03-1.18-1.51-.15-.2-.95 1.69-.01-.01-1.53h-2.27l.02 1.54z"/>
    <path region="25" short-name="49" long-name="Assembly District 49" value="1" d="m297.5 895.58 1.2-1.07 1.93-1.2 5.43-.26 1.61 1.18 1.75.23.38-.2 1.85.5 1.24-.43.72-1.6 1.45-.56h1.44l1.7-.69 1.67-1.18 1.19-1.97 1.03-.6 1.86-.17 1.38-.75 1.66-1.17.4-.67 1.6-1.14 2.01-3.84 1.27-.73 2.42.56 1.9-.56.88-.87.93-.14 1.43-.66 1.63.18 2.07-.42 2.05-.69 1.12-1.7 1.12.05 1.31-.57.5-.71 1.51-1.22.3-1.26 1.24-1.1 3.84-1.3 1.8-.22 2.03-1.79 1.2.09 1.17-1.6.44-1.65.83-1.26 1.13-1.09 1.66-.86 1.6-1.4.02-1.59 1.28-1.01 1.73-.12 1.84.37-.02-16.01.09-5.21.08-10.5-.03-12.36-.4-.07.01-18.42-.28-7.66-.73.76h-1.54l-.14-1.53.82-1.54 1.53.01-.15-8.49h22.36l14.77-.18 10.22-.09 8.4.03.12 7.16-.07 4.41.02 6.97h-17.66l-.82.03.04 11.92.1 7.34-.12.3-.04 17.5 8.67-.11 6.72.05 3.04-.04-.02 9.2.03 9.15-1.65-.12-2.15-.54-2.65.03-5.32 1.33-1.1.05-2.4.62-1.65-.35-1.46.18.03 1.7.86.21v1.1l1.7.1.06 2.16h-.96v-.76l-.8-.76-.85.06-.05 13.7.24 24.5-.02 7.81.13 12.3.64-.01.03 3.07-.64.01.02 9.78.15 13.15.07 24.53v6.12l10.58-.06-.02 10.77-1.53.02-.02 4.59h1.23l.43-1.4.58.14.05 1.26-1 .13-1.28.63-.06 11.45-5.87.04-13.26-.15-9.92.02-9.56-.12-3.88-.08 1.06-1.46v-.69l-.88-2.28-.37-2.15-.46-.95-1.1-1.16-.77-1.68-.37-2.12-2.76-2.83-1.17-2.16-.16-1.56-.93-3.21-.94-1.67-.4-1.74-1.01-1.12-1.7-.99-3.63-1-3.99-1.24-1.53-.33-11.3-2.48-2.26-.83-3.14-.78-1.46-.59-2.55-1.61-1.2-.52-2.46.42-2.37-.71-1.96-1.36-1.42-.42-.98-.78-1.26-2.05-1.05-1.05-2.17-1.35-1.18.11-1.93-1.51-.36-1.62-.52-.6-1.35-.27-1.1.34-.55-.75v-.87l-.83-1.22-.7-.1-.12-1.3.62-.18.19-.81-1.44-1.64-.25-2.82-.67-2.63-.4-2.33-.19-2.9.1-1.55-.63-.49-1.14.16-.6-.33-.17-.88.57-3.14-.96-2.1-.18-.97.09-2.4-.36-1.53-1.8-1.7-.8-1-3.19-1.67-.83-.19-.43-1.1.35-2.27-.07-1.26-.84-2.88.1-1.33.55-2.1-.15-1.45-1.55-3.14z"/>
    <path region="26" short-name="51" long-name="Assembly District 51" value="1" d="m428.24 831 .08-18.46 8.42-.12 9.9.08.03-18.58 3.72-.03-.02-1.55h3.1v1.54h22.21l7.7-.03.06 18.6h-6.13l-.2 14.41.04 4.06 24.2.08v18.26l-.6.95-2.62 1.47-1.13.2-1.58-.4-.92.25-1.76 1.03-1.58.5-2.75-.22-1.53-.43-1.37-.1-1.44-.38-1.53.26-2.7-.36-.85-.36-2.7.2-3.83 2.4-.67 1.23-.89.99.01 20.56v12.97l-.05 17.64.1 3.09-6 .02.06 21.6 9.67-.03 9.18.12 11.75.02 1.13-.55 1.57-.15.14.63 2.83-.04-.02 9.16.07 1.53.13 16.8 4.6.06 5.16-.07 28.3.02 7 .08h9.22l.04 6.06.18 12.23.16 19.79-6.01-.1-8-.21-3.98-.16-10.45-.27-11.56-.1-4.2.02-24.24-.1-4.47.04-6.8-.27-11.5-.29-3.3.09-10.71-.09-6.45.11-15.1.06-9.92.08.06-11.45 1.27-.63 1.01-.13-.05-1.26-.58-.13-.43 1.4-1.23-.01.02-4.59 1.53-.02.02-10.77-10.58.06v-6.12l-.07-24.53-.15-13.15-.02-9.78.64-.01-.03-3.07-.64.01-.13-12.3.02-7.8-.24-24.51.05-13.7.85-.06.8.76v.77l.96-.01-.06-2.16-1.7-.1v-1.1l-.86-.22-.03-1.7 1.46-.17 1.64.35 2.41-.62 1.1-.05 5.32-1.33 2.65-.03 2.15.54 1.65.12-.03-9.14z"/>
    <path region="27" short-name="60" long-name="Assembly District 60" value="1" d="m791.74 832.26.78-.03.02 1.56-.77.01zm-31.24-41.9.12-6.22-.03-6.33 9.52.13h9.09l10.75-.08 7.71-.14 12.4.07h7.56l-.33 3.92.08 5.26.29 1.65-1.43 3.8-.48 2.35-1.22 1.86-.1.9-.64.46-1.64 2.85-4.37 6.26-2.16 3.89.18.49-.63 1-.77 2.32-.78 3.85-2.05-.08-.01-.7 1.34-.28.48-1.52-1.1.01-.51 1.52-1.38.08-.72-1.03-1.24.02.2-1.16 1.32-.03.06-.52-6.63.14.16 1.59-.8.05.28-1.64-2.3.03.12 6.36-.07 3.68-.85-.45-1.12.1-.1 1.3.66.03.19 1.16.6-.01.05 1.61.72.28.08 4.63-2.35.06-.7.71h-1l-.24-.67-1.87.05-9.16.03-13.51-.33-4.79-.07.01-6.19.74-.35v-1.16l1.25.04.27 1.55 3.82.1-.76-.79v-2.3l-.76-.36.01-1.2-.88-1.12-.82-.46-2.52-.1-.36.33v-6.7l4.88.06-.01-2.33-1.65.38-.02-1.93h1.65l-.01-.77h-1.27l-.38-1.54h.85l-.2-1.17-.62-1.16h1.55l.95-1.03-.05-1.3.85-.24 1.08.38.44 1.46-.18 1.54.77.01.39-2 .63-.99-.32-1.11.78-1.28.02-1.53-2.4-.05-.04-1.65-1.16-.71h-3.44zm1.44 37.95v.77l1.31.03.22-.76z"/>
    <path region="28" short-name="61" long-name="Assembly District 61" value="1" d="m794.75 976.48.78-.02v1.18l-.75.39zm-38.38-1.54-.02-12.24 3 .13 9.04-.07 4.09-.1 8.8.06h11.38l10.61.17-1.04 9.15 2.23.03v3.6l-.75 3.63-.78-.27.25-.87-4.6-.08.68-.75v-.74l-4.92-.17.14-1.45-3.28-1.47-.76.3-.37 1.33.4 1.33.77.26.41 1.28 2.02.02-.6.63.47 3.22-.78-.22-.14-1.91-.7.84-1.2.46v1.63l-.94-.38-1.5-.02-.05-.4-1.53-.02-.77.77.02 1.06.8.58 3.86-.01 3.57-.12.15-.14 3.63.33-.03-1.55 1.15.01.02 1.49 1.62-.16.57.75v1.84l2.8-.04.11-1.17 1.36-1.85 1.25.43.3 1.12h-1.2l-.2 1.12 2.18.62.04 1.32h-.95l.06 1.15 1.25-.14 1.23.36.26-.56 2 .04v.4l1.53.34-.04-3.42 1.17.07.04 1.45-.22 1.43.29 4.65.17 1.1.88 2.73-.1.54.55 1.5-24.17-.45-10.3-.1-3.82-.03-10.12-.19-20.84.08-3.34.21-4.78.01-.32-.74-.01-2.3h1.08l-.01-1.53-1.08.01-.07-7.58 2.57-.06 6.48.03 9.1-.13z"/>
    <path region="29" short-name="67" long-name="Assembly District 67" value="1" d="m330.19 475.14.37-.92 1.59.4.02-.78 1.56-.08-.04 1.63h-3.5zm-66.87 25.58.11-.82 1.44-1.18v1.59zm-63.51-83.07 6.25-.04 19.88.16 9.3.18-.06-.76 2.75.05-.01-3.82.12-5.19.03-9.02 9.44.14 9.52-.08 9.19.06 19.29-.07 3.21-.05 6.25.04 9.66-.02 11.24.06 17.43-.05-.1 14.4-.01 14.03.02 9.03.46.44-.08 19.3.08 6.82-.09.97.11 4.84-6.38.05.04 3.16h-1.52l-.53.36-.25 1.1 3.03.1.1 1.57-10.24.03-.01-3.96h-4.67v3.94h-8.66l-.34-1.17-1.04.7-.7-.58-1.06-2.12-.84-.1v-1.47l-4.5-.05.02 3.13-1.6.04-.65 1.04-.92.39-.75-.73-1.22-.12-.38 1.07-2.14-.3-.42.62-1.03-.43-.59-.76-2.5.2-1.05.8-.6-.23-.05-1.46-.78-.53-.8.02-.91 1.5-.59-.89-1.04.11-.58-1.16-1.99-1.3-.37-.88-1.53-.34-1.37.53-.61 1.1.02 1.47-.89 1.99-.8.47-.31 1.04-.96-.34.02 1.12-.77.8v6.33l.13 9.5-14.77-.04-.6.7-.02 1.57.57 1.18.8.28-.16 1.09-1.26 1-1.73-1 .02-.11-.38-1.68-.8.22-1.03-1.8 1.16-1.42-9.86-.02v3.06h-.78v-1.58h.75v-1.48l-3.13.16.25 2.66-.6.1-2-.73-.01.78-3.93-.06.03 2.84 1.1-.36 2-.2.7 1.01.89.7v.9l1.04.01-1.03.15-.8-.18.18 1.59.98.01 2-.38.8 1.59-.01 1.9-2.33.06 1.54 3.24.96.89-.64.2-1.3-.92h-1.6l-2.22 1.62-.88 1.38.34 2.46-.9.57-1.07-.65-.83-1.63-1.36-.84-4.72-.1-.63-.28-.6-1.22-.91-.52-.13-16.45-.09-22.26-.06-15.71-18.87-.18-18.76-.05v-2.75l1.45-.4-.02-.81-1.36.14-.04-2.66-.03-13.34 16.37.07-.02-9.4z"/>
    <path region="30" short-name="68" long-name="Assembly District 68" value="1" d="m249.12 510.03 1.02-1.92.01 1.93.45 1.3 1.74-.95-.59 1.22h-1.13zm-.57 4.23-.03.89.76.42 2.35.22.05-.95-.86-.2-.13-2.24.97-.52.89.14.14-1.2.74.03-.75-1.84-1.7-1.05-.22-.65-1.42-.52v-3.39l1.66-1.63-.05-1.2-1.13-.73-.34-.86.3-1.34.8-.22.38 1.68-.02.1 1.72 1 1.27-1 .16-1.08-.8-.28-.57-1.18.02-1.57.6-.7 14.77.03-.14-9.49.01-6.32.77-.8-.02-1.13.96.34.32-1.04.8-.47.88-2-.02-1.45.61-1.11 1.37-.52 1.53.33.37.88 2 1.3.57 1.17 1.04-.12.59.9.9-1.5.81-.03.78.54.06 1.45.59.23 1.05-.8 2.5-.2.59.76 1.03.43.42-.61 2.14.29.38-1.07 1.22.12.75.73.91-.4.66-1.03 1.6-.04-.01-3.13 4.49.05v1.47l.83.1 1.07 2.12.7.58 1.04-.7.34 1.17h8.65v-3.93h4.68v3.95l10.25-.03-.1-1.56-3.04-.1.26-1.1.53-.37h1.52l-.04-3.16 6.38-.05-.1-4.84.08-.97-.08-6.82 12.3-.1 25.51.07 18.8.04 19.06.03-.05 15.82.94-.01.17 3.1-1.01-.23-.12 1.88-.04 15.8-.06 20.52-17.32.04-1.64-.03.02 12.58-.04 10.95v14.26h-15.66l-21.96.05-.09 18.77-18.74-.03.1-18.76-13.46-.07-17.7.01-6.46-.09.09-18.79-14.9.01-6.9-.02-3.12.08v-4.7l-.06-18.86-7.13-.86-.01 1.87-1.16-.3v3.7l-4.13.02-.05 9.6-8.73-.11-.02-3.78-1.13-1.45-.38-1.82-1.2-.3-.54-.92zm14.77-13.54 1.55-.41v-1.59l-1.44 1.18zm66.87-25.58v.26h3.5l.04-1.64-1.56.08-.02.78-1.6-.4z"/>
    <path region="31" short-name="93" long-name="Assembly District 93" value="1" d="m42.56 514.61.9-.01.02-.79 1.25-.04v.8l2.38-.02-.03-2.33 6.28-.09h11.77l.03-18.88 12.38.03 31.67.04 18.02.92 1.13.02.2-.8-.9-1.28.35-1.09h.8l.4-1.58 1.25.02-.08 1.31.4 1.04.06 2.42 2.91-.05 5.45.06 6.9-.02 18.79.03.05 9.34h13.95l14.18.16-.18-9.44 9.45.1 9.41.17 9.45.05.13 16.45.91.52.6 1.22.63.28 4.72.1 1.36.84.82 1.63 1.08.65.9-.57-.34-2.46.88-1.38 2.21-1.62h1.6l1.31.92.63-.2 2.2 1.1 1.47-.58-.28 1.28 1.45.82.6-.53.54-2.54 1.04-.44.58 1.4.78.01.18 1.75.57.86.78.05-1.78.15.54.92 1.2.3.38 1.82 1.13 1.45.02 3.78 8.73.11.05-9.6 4.12-.02v-3.7l1.17.3v-1.87l7.14.85.07 18.87-.01 4.7-12.49-.05-.09 18.98-15.6-.06-3.17.02-18.73-.1-.02-18.9-29.17-.01-8.3-.04-.04 18.95h-11.04l-5.98-.04-1.42 1.09-1.18.08-1.42 1.12-.76 3.11-.85 1.68.2 1.73-.09 2.01-.3 1.1-.85 1.62-.22 1.61.62 1.42.05 1.32-.29.9-13.92-.11-.01-6.25-17.74-.03-10.21-.27-.58-.87-1.4-1.29-1.1-.67-1.77-.68-3.2-.44-3.2.32-1.6-.13-2.43-.45-1.75.34-1.7 1.3-.52-.1-2.8-2.06-3.42-1.2-1.98.48-2.31-.92-1.49-1.06-1.39.36-2.04 1.36-1.45-.37-.24-.57.27-2.07-1.7-3-1.34-1.86-1.2-.33-.68.91-1.12-.18-.25-.92-1.71-1.33-2.02.07-1.06-.71-.18-1.85.44-1.24-.3-2.12-1.6-2.18-3.67-1.96-1.38-1.16-3.37-4.07-2.23-2.53-1.9-1.6-2.9-2.73-.81-.76-3.05-1.45-1.4-1.26-3.38-1.7-2.27-1.82-.84-1.24z"/>
    <path region="32" short-name="50" long-name="Assembly District 50" value="1" d="M427.98 683.99v-9.56l.06-18.46-.03-9.39-.03-20.17 9.67.07 1.85-.12 22.7-.02 6.68.03 13.96-.06 8.5-.05-.09 1.74.9 2.5-.68.58-.54-.38-.4 1.8-1.76.42-.82 1.16.66.94 1.66.27.73 1.3-.75.72-1.5-.05-1.05.7.02.78 1.14.28 1.6-.34.76.1.53 1.53-.52 1.4-.56.33-2.06-.5-.8.92.69 1.61-.34 3.11-1.49.45-.83-1.1-.52-1.72h-2.04l-.92-.56-1.48-.23.17 1.93-.15 2.16-.67 3.26-1.36.18-.06.8 1.3.09-.23 1.18-1.36.1-1.3-1.01-.84.9-1.16.2-.5.6-.02 1.15.84 1.16.03 1.17-.95.51-.93-.05-1 .98-.39.92-.01 1.72.38 1.02-.29 1.24.9 2.02-.07 1.48.21 1.93.48 1.33 1.5 1.58 1.07 2.24-.14 1.62-.9 1-.03.74 1.88.9 3 1.75.96.96.7 1.7.16.96-.02 2.78.07.54 1.08 1.82-.16 3.14.79 3.02-.5.99-1.24.47-1.43-.2-1.2.44-.5.52-.21 1.25.62 1.2.22 1.2 1.24 1.25 1.18 2.15-.1 3.1.37 1.05 1.92 2.05 1.34.83.63.84 2.12 1.76.64 1.3.3 2.33.94 1.15 1.13.44.6.83.3 1.2 1.12 1.7 1.98 1.26 1.83 1.58 1.03 1.86 1.04 1.04.43 1.45.94 1.2.25 4.45.83 2.68.84 1.6.18 1.15.59 1.22.26 1.2 2.04 4.12.85 1.14 1.8.83.8.62.34 3.89-.49 1.12-.63.22-1.16-.6-1.62-2.63h-1.08l.3 1.58 1.23-.2.75 1.06-.01.67.61.79-5.9.01-.01 6.02.09 4.74.02 16.9.04 14.27.07 7.43-.07 10.88-.17 13.86-24.2-.08-.04-4.06.2-14.42h6.13l-.07-18.59-7.68.03h-22.21l-.02-1.54h-3.09l.02 1.55-3.72.03-.02 18.58-9.91-.08-8.42.12-.08 18.45-3.04.04-6.71-.05-8.68.11.05-17.5.12-.3-.1-7.34-.05-11.92.82-.03h17.66l-.02-6.97.07-4.41-.13-7.16-8.39-.03-10.22.09-.2-19.57-.02-17.2 9.08-.58 3.46-.27 6.12-.35v-12.17l.06-11.2-.08-12.84.02-5.7z"/>
    <path region="33" short-name="42" long-name="Assembly District 42" value="1" d="m562.7 781.42 1.03-.03.5-.67-.5-1.13.05-3.57-.14-2.4-2.35-.43.85-1.11v-.76l-.77-.6h-2.3l-.7-.19-2.3 2.33.07-16.31-3.07-.01-.05-12.48.07-6.33 4.95.03-.13 1.02-.95-.03 1.13 1.43-.72.5v1.95l2.3.02v-1.47l1.13-1.4.84.4.32.79h12.47l.04-17.1-.03-4.85 18.36.03.23 10.87.24.82 1.16-.95 1.3-.04.81.36 2.12.15 2.71-.12.87.3 1.6-.39 1.14.21-.06-9.55.94-.87 2.08.38 1.02 1 .47 1.36 1.37.76 1.4 2.24.75 2.07h9.03l-1.41-1.9-.4-1.55.08-1.04 1.05-1.39 2.27-.3 2.62.46.48-.79-1.45-.18-.23-.68.54-.84 1.44.34 1.3-.06.29-.94 1.24-.55.85-1.45 1.35-.6 2.2.06.64-.31 1.17-1.86.1 1.35 2.52.04 2.25-.26 1.12 1.6.28 1.33.07 3.12 6.2-.09.05-12.7-.04-5.98 7.5.04 11.18.02-.12 9.33.01 12.53.07 15.54-.02 14.9-.04.64h-1.2v1.1h1.22v2l.38.76 1.19.21 1.56 1.2v1.99l1.56-1.08.05 2.14.96-.03 1.03.63.48-2.03 1.4-.2v-.77l-1.33-.03.31-2.82 11.07.04.04 18.67-9.43-.07-9.35.03.07 9.23h-4.61l.77-.74-.02-1.55.76-.74-2.03-.1-.63 1.76-.92 1.32-10.57-.03-1.23-1.27-3.37-2.18-2.92-1.73-.07-4.02-10.48.05.12 2.35.4.78-1.55-.06v.78l-.95-.03-.03-1.12-.77-.42-.23-2.25-12.54.22-.64.23-.02.97-2.82-.19.03 2.37-.78.03-.01-1.73-.86.03.13 7.85.04 9.15-15.37.03.01 3.08h-1.62l-.66.78-.66-.77.17 15.51-.14 2.12-.12 14.47-.05 1.92-1.5.07-13.77.12-2.88-.02v-2.7l-18.32-.02-15.39.18-.01-8.13-.08-10.42-1.15-.26 3.27-1.9 1.87-1.33 2.69-3.22 1.24-1.28 3.48-2.66 1.49-1.54.35-1.22.7-1.25 1.35-1.31 4.25-1.7 1.19-.9.95-1.87.49-2.55.85-1.52.54-2.1-.04-.59z"/>
    <path region="34" short-name="73" long-name="Assembly District 73" value="1" d="m121.77 207.71-.02-5.13.03-14.3.13-16.83-.03-.58.02-21.35.08-17.58.06-1.9.05-27.18-.09-8.78.74-.77.19 1.58 1.82.65.6 1.5.7-.06 1.46-1.73 2.18 2.14 2.5-.8 1.53.66.62-.02 1.56-1.15.01-.88-.5-1.3 2-2.7 1.72-.8.82-1.37-.06-.88-1.02-1.13-2.38-.2-1.04-.5-.08-.94 1.92-1.96.65-1.42 2.29.07 1.08-.61 1.87.9 1 .18.6-.81 1.32-1.18.2-1.11-1.29-.58v-.03l1.32.59 1.54-.81.02-1.65 1.4-.6 1.95.59.78-.79-.49-1.3h.03l1.82 1.64.82.49 2.28 2.4.67-.5 4.76 5.05 2.12 1.1.77-.55 1.11.13 3.13 2.97 2.24 1.42 1.78.88 2.92.58 2.58-.46 6.1-1.72 4.54-.62 2.65.6 3.14-.1 4.62-1.02 6.25-3.26 8.25-3.18 7.85-2.59 4.89-2.63 3.59-1.79 2.53-.71 3.54.4-.08 1.37-.02 19.88-.05 7.32-.1 1.2-.08 14.2.04 1.2-.1 8.43.07 3.32-6.53.06-12.45-.05.1 6.35-6.26-.04v-1.65l-.26-1.58-3.19.1-.11-3.24h1.14l.03-9.71-8.11-.13-16.15.05-6.59-.1.07 9.77h.77v6.44l.18 12.97-6.58-.13-12.85-.01-.03 19.42.02 19.4.1 19.36 19.58.04 19.32-.1h36.53l1.6.19.1 19.33-.04 6.5-.13 12.87-15.96.13-6.16-.14-6.37.02-2.8-.1-5.27.05.18 2.77.17 22.3-2.27-.14-13.56-.26-3.02.03-.23-3.14-.06-2.89-9.66-.1h-6.87l-2.46-.06.12 18.84.08 19.92v18.92l-19.08.04-.06-15.9.13-3.1-14.37-.07h-7.11l-4.08-.13-7.16.1-6.27-.1-12.4-.37-6.39-.1-.14 19.16-13.42-.23-21.42-.05-20.49-.18.21-.41.5-2.98.55-1.36.31-2.14.22-3.03.83-1.72-.25-.66.45-2.7-.06-1.24 1.02-1.04 1.87-.47.26-.97.89-.09 1.1-.8 1.08-.2 1.92-1.85 1.04-.47 1.11-1.71.62-.4 2.17-2.33.5-1.97.27-2.1.48-1.65.69-1.16 1.58-1.34.62-1.17-.02-1.03-1.2-3.56.62-1.47 1.93-1.52.56-.16.98-1.36.8-4.56 2-3.48 2.08-2.47 1.34-.34 2.33-1.66 1.13-.54.07-1.27 2.57-2.41.53-.34 2.63-.02-.16-1.76.59-.48 1.1.5 1-.63 1.3.15 1.83-1.4 1.9-.21 2.37-1.4.79-.02 1.31-.63 1.44-.15.32-1.2.01-2.43.64-.47 1.23-1.72 1.11-.9 1.32-.52 3 .94 1.8.99.98-.07 1.83.65 1.28-.74.52-.88-.47-.49.26-1.2 1.4-1.13.28-1.68 1.13-1.94.32-1.56 1.02-1.13 2.3-1.23 1.56-.1 2.78 1.71 3.09 1.2 1.63.23 1.6-.57.39-1.77.85-1.09.2-1.34-.15-1.88.75-1.59.5-2.07 1.16-1.5 1.32-.7 1.94-.7 1.97-.43.08-8.8z"/>
    <path region="35" short-name="38" long-name="Assembly District 38" value="1" d="m662.15 887.1-.58 1.53-.88-.01-.09-1.53zm-51.4 1.43.1-18.46.22-5.35.23-13.04 2.8.06 7.72-.16 7.7-.36 7.36-.07 13.31.05.41-.07 6.24.05 11.18.04v.55l-1.25.04.58 1.03-.05 2.33.78 1.12.77-.02v1.14l3.21.22-.14 4.21.62.05.34-1.1 1.34.08.1-2.31 1.35.02-.1-.72 2.55.12.1-6.64 17.54.08 6.87.16-.19 4.14-.21 6.55-1.34.12-.21 2 1.5-.42-.08 3.28 6.71.12.14-1.53.76-.87.01-.65 1.5-.36.26 1.16.47.01.03-1.96 1.01-.33.5.73.75.02-.07 3.89-1.5-.04-1.5-.8-.67.75.03 1.1.6 1.17-.12.78.67.44.28 1.62.76.4-.02.9 1.55 1.5 1.33.11.05 2.91h.84l-.14 1.53-2.34-1.01-1.39-.43-.04 2.5-1.54-.03.12-5.04-2.27-.3-.7-.4-.85.2v1.42l-2.32-.05-.02-1.53-2.16.45-.84.41-.13 9.51-.1 3.43h-5.54l-.59-.56-.76.56-11.42-.03-9.18-.23-11.5-.08.17-1.55h-.78l.02-.77-1.54.01-.57-.46-.55 1.53-.17 1.2-12.13-.22-4.6.03-9.05-.16-4.58-.14-.01.96.82 3.05-.83.96-.1 13.66-9.56.2-8.77.08.09-5.42zm91.35-20.81-.05 2.6 2.38.04-.17-1.15.43-.38z"/>
    <path region="36" short-name="95" long-name="Assembly District 95" value="1" d="m267.99 698.88 8.88-.05.1 3.08 5.33-.03v2.27l.77.15 1.44.78.24.79-.7 1.05.15 1 2.04-.03.23.7 1.3-.16 2.75.08-.55 1.18 1.62-.02 1.6-.85.06-.61 1.14-.1 1.11.36.1-3.5 1.78-.98.05 2.6-1.16.14.01 2.35-1.55-.1-.49.45.49 1.54-1.2-.06-.78-.45-1.12.6-.18.77-1.37.02-.77.8-1.93.59.02 1.82 1.6-.15-.56.82-1.41-.04v1.57l1.7.28-.36-.83.6-.97h1.12l-.02-1.74 1.16-.6.38.76.01 1.16.42 1.8 1.16.1.03 1.55-.28.78.3 1.11-1 2.85.08 1.45-.44.3 1.56 1.7.17 1.03-1.6 1.53.1.87.67 1.43 1.16-1.11.24.99-.11 1.72-1.4-.01-.03 1-1.86-.08-.04 4.5-8.85-.04.44-1.68-.08-2.43 1.77-6.03-.03-.34-2.82-3.75-.31-1.76-1.18-2.87-.57-2.38-.3-2.75-1-2-1.06-1.22-.89-.52-2.2-2.62-.67-3.1-.82-1.42-1.16-1.07-1.55-.9-.65-1.08zm23.52 33.75 1.43.15-.34-1.08z"/>
    <path region="37" short-name="64" long-name="Assembly District 64" value="1" d="m803.27 962.89 6 .15.06-4 .33-1.33 1.19-.21.25-.5-3.11-.14.2-.82-1.14-.7-2.28.24v-1.8l2.62-.06.41.38v1.05l1.06-.2-.07-1.1 1.1-.05.41.53.9-.59 1.15.27-.18 1.45.2 2.3 1.46.02-.08 2.26 1.67-.02.74-.77.04-1.12-.79-.79 1.54-.39-.01-1.21 1.43.6-.22.72-.98 1.39-.42 1.37-.85 1.68-1.8 6.6-.37 1.8-.4 4.12.05 1.93.47 1.01.09 1.28-.74-.1v-.95l-.84-.39-4.6-.1v1.56l-.77-.02-.39 1.53-1.2-.03.2 1.53-.04 2.37-1.36 1.85-.11 1.17-2.8.04v-1.84l-.57-.75-1.62.16-.02-1.49-1.14-.01.02 1.55-3.63-.33-.14.14-3.58.12-3.86.01-.8-.58-.02-1.06.77-.77 1.53.03.05.39 1.5.02.94.38v-1.63l1.2-.46.7-.84.14 1.91.78.22-.47-3.22.6-.63-2.02-.02-.4-1.28-.79-.26-.39-1.33.37-1.34.76-.29 3.28 1.47-.14 1.45 4.92.17v.74l-.68.75 4.6.08-.25.87.78.27.75-3.63v-3.6l-2.23-.03zm-8.52 13.59.03 1.55.76-.39-.01-1.18z"/>
    <path region="38" short-name="77" long-name="Assembly District 77" value="1" d="m572.19 867.9-.5.62.37.66 1.22.14.59 2.04-.07.24-.03.95-.4.18-.57 1.6-1.26 1.56-1.53.72-1.04.15v.82l-1.3-.02v1.19l.76.01v.97l2.26-.17 1.93-2.15 3.03-1.79 1.17-1.27 1.95-.4 1.4.9.48 1.4-1.23 1.52-1.08.11-1.38 1.45-.36 1.57.7.7 1.07-.88.45 1.82-.57.58-1.6-.01-.51.68h-.77l.15 2.35 4.31.03.05-1.72 1.37.3-.19.84-1.12 1.44v.66h-5.46l.02-.64L573 887l-.77.25-.2-1.12.5-1.91.52-1-.68-1.02-.95.75.09 1.44-1.32-.13-.57 1.44v.77l.65.98-2 .43.06-1.3-1.87-.15v.54l-1.2.53-.35.49-1.3-.1.07-1.5h-1.57l.22-.66v-.04l-.7-.03-3.92-2.38.18-3.48.5-.71.25-1.68.8-.3-.19-1.02-.85-.5-.49-.84-1.16-.85-.37-.65-.14-2.27 9.24.02.09-3.12zm.33 17.09 1.65.02v-1.1l-1.14.37z"/>
    <path region="39" short-name="80" long-name="Assembly District 80" value="1" d="M547.08 880.34h-1.52l.03-.76 1.5-.02zm-2.22-1.92.28-1.15h.52l-.06 1.53h-.75zm-73.9 32.33 6.9.23 5.28.04 2.84-.17 6.13.09h9.22l-.06-6.19 9.7-.03 8.54.03v-11.2l-.76-.3h-1.97v.76h.97l-.03 1.54h-1.46l-.56-1.33-.78-.97-.01-3.84 1.67-.02-.03-.77 1.43.02v.67l1.53.1v-3.1l-18.2.06.05-18.38 8.04-.06 19.47.02-.65.93-1.52.56.62.78.7.01.78.79 1.54-.02v-1.42l1.66.34.66-.42.77.04.02-1.54 8.47.08 9.21-.12.01-1.55 2.24 1.1 3.09.36-1.54.11-.03 1.5-.5.87-1.9.48-.64.38-.04 1.38-3.6.1-.25 1.49-3.83.02v.77h1.48l.04.76-1.93.27-.43 1.95h-.72l-.06 2.4h.76l-.02 3.08 1.52-.02 1.51-.38-.44 1.92h-1.14l.03-.66-1.5-.1-.03.77.54.77-.03.77.96-.01.72.7-.02.87-.75.74 1.5.82 3.06.07.77.18v1.36l1.07.02-.02 1.52 3.25-.1 1.01-.63.36-.76.4.32-.06 4.26 2.57.04.92.54-.12.96 5.13.02.26-4.6 3.35-.15 4.65.13.02-.93 1.56.11-.34 13.15h-3.81l-.02 1.41-3.06-.02-.06 1.54.76.01-.02 1.52-2.3.02.29 1.54h5.2l.04 1.54.57.4 1.53-.36.25-1.17.5-.34v11.14l-.8.38-1.38.02-.01.65-.85.03-15-.04-6.16-.06v.73l-2.19-.21.24-.52-9.88-.15-.04 7.15-.13 11.21-10.66-.06-14.5.03-11.21.01.02-9.16-2.83.05-.14-.64-1.57.15-1.13.55-11.75-.02-9.18-.12-9.67.03-.05-21.6zm80.44-24.36v-.75l.87-.02v.75zm-2.2.96.33-.9 3.15-.05-2.57 1.66-.14-.92zm-.54-3.96.42-.77 1-.03-.01.77zm-.14 2.48.06-2.02.59-.24 1.65-.03-.03 1.3-1.52.03z"/>
    <path region="40" short-name="92" long-name="Assembly District 92" value="1" d="m118.29 563.2 10.2.27 17.75.03.01 6.25 13.92.11.3-.9-.06-1.32-.62-1.42.22-1.6.85-1.62.3-1.1.09-2.02-.2-1.73.85-1.68.76-3.1 1.42-1.13 1.18-.08 1.42-1.08 5.98.04 11.04-.01.04-18.95 8.3.04 29.17.02.02 18.9 18.73.1 3.18-.02 15.6.05.08-18.98 12.49.05 3.12-.08 6.9.02h14.9l-.09 18.78 6.47.1 17.7-.02 13.45.07-.1 18.76 18.74.03v11.09l-.12 20.48-18.7-.04-.02 15.67h8.69l-.03 1.57.73.59.52 1.14.92.29-.47 1.3-1.53.49-.99 1.29.81.4.28 1.1-.62 1.18-.56-.97-1.05-.02-.24.82.68 1.9-.76 1.03-1.27.38.7.8 1.68 1.16-.45 1.54.84.86-.15 2.5-.78.01.02 3.1-.77.02.04 3.13h-1.5l.01 3.1-1.82.03-1.78 1.2-.86 1.14-1.18.35-1.36-.34-.82.79-.48-.78-.82 1.26-.84.02-.2.9-1.32.33-.32 1.25-.95.02-.38.73 1.06.7.46 1.05-.89.36.09 9.84-7.77-.1-19.86.07-.01-1.86-.97-.63-1.27-.04-.24-1.1-.6-.04-.83.7-1.51-.1-1.74-.45-.18 2.13-1.32.77-.05 1.14-1.38 1 .1 1.22-.83 1.11-1.16-.98-.77-.15-.9.39-1.12-.2-.8-.71-.42-1.27-1.87-1.2-.47.78-.95.35-1.17 1.43-1.76-.63-1.84-.34-1.33 1-.14 1.42-.75 1.14-1.31.67-.32.63.71.96-.7.44-.77-.37-.43.9.27 1.02-.84 2.27.09.82.85.13-.06 1.33 1.55 1.6-.3 1 .23.78.82.18.1 1.37-14.49.05-1.37-.02-.73-2.06-1.64-1.64-4.32-1.71-1.92.29-2.18-.95-1.88-1.38-2.65-.53-3.52-.17-1.85-.67-3.64-.44-1.47-.86-.86-.77-1.5-2.66-1.24-.92-1.94-.9-1.58-1.61-1.02.1-2.28-2.45-1.16-2.75-2.25-2.24-2.13-.25-1.88-1.15-.09-1.51-.39-2.06-1.31-1.8-1.79-.87-3.26-.41-.77-.43-2.74-2.32-3.43-1.46-3.2-2.13-1.83-3.05-1.47-.92-.94-.48-3.03-2.52-1.67-.87-.18-1.94-.6-1.5-1.48-2.1-.49-1.91.78-2.43.14-1.16-.33-.93-1.06-1.47.06-2.18-.47-.9-1.1-.96-2.24-1.06-.67-1.15.08-1.14 1.5-2.4.13-.68-.78-2.44-1.08-2.35-2.43-1.6-2.82-3.99-1.65-1.39-1.3-.55-1.34-.16-3.29-2.27-1.66-.34-2.9-1.63-1.27-1.23-1.12-1.5-1.25-.6-2.62-.16-1.34-.86-3.68-1.1-2.08-1.77-2.33-.56-3.53-.55-5.1-1.42-3.05-1.02-2.68-1.5-1.92-2.47-.64-.58-2.07-1.22-2.22-1.84-2.2-2.56-1.73-3.22-.04-3.5-.16-.73-1.13-1.93z"/>
    <path region="41" short-name="97" long-name="Assembly District 97" value="1" d="m714 886.14.26-.77 1.23.01.03.77zm-12.25 2.84.1-3.43.13-9.5.84-.42 2.16-.45.01 1.53 2.32.05v-1.42l.87-.2.69.4 2.27.3-.12 5.04 1.54.04-.02 1.17.33.95h-2.6l-.1.79 1 2.2.34 1.27.96.34.05-1.53 1.49.03-.02 3.08 6.12.03 6.78.15v.57l-1.95 1.11v.64l-1.13-.02-.12 1.15.86.4-.01 1.52-.75.77-.02.76 1.17.01 1.91-1.52.57-.92-.27-.6 2.45-.18.1-.6 1.71.04 1.54-.75.01-.77-2.3-.02.05-1-.78-.58 5.46-.05 2.98.05-.05 1.54 2.8-.07.13-.57 2.27.17-.06 1.08.73 1.4 1.23-.41.85.33 1.51-.87 1.13-1.18 1.06-.56.72-.02 1.38-.78.12.85.81-.2h1.88l-.42-.69 1.44-.03.77.02-.18 7.1-1.85-.1.3.81-.04 1.38-1.2-.04-.33-.74-.76.14.17-2.2-.87-.36.34 1.66-1.35.55-.2.54-1.2.69-.15 1.3-1.02.02-.03 1.52-.4.96h-.76l.04-2.45-1.11-.24-.45.8-.36 1.66v1.17l.34 1.22v3.02l-4.58.03-.02 1.67-1.53.03v1.54l-1.4.02.07 8.2-.6.24-.15-1.63-.59-.67-1.62 1.54-1.59-.15v-.78l-3.06-.06v1.34l-1.54-1-.01-4.13-2.2.03.49-1 .16-2.51-.78-.07-.03-.97-.75-.02-.34-1.07-1.24-.01-.75.69-1.53-.22-.02-1.07-7.91-.01-12.4-.12.07-9.26z"/>
    <path region="42" short-name="27" long-name="Assembly District 27" value="1" d="m778.95 684.45 24.8.05 12.37-.04.02 18.72 7.97-.1 2.88.04-.75 2.53.03 1.43 1.13 4.55.06 1.52-.2 2.92.13 2.11.39 1.16-.03 1.3 1.56 3.92 1.19 2.55.48 1.46 1.46 2.22-.75.52-5.3-.11-.52-.78-2.96.05.59.75-.11.97-1.62-.34.11.93 1.5-.44.16 1.22.71-.05.67.94-.2 1.1-1.93-.1.18 1.2 1.2-.03-.05.8h.93l.62.75v.8l-2.41.03.4-1.44-.82.08-.2 2.88-.3.62-1.03.15v-.8h-5.01l-.63-.6.67-1.2.01-3.64-1.03-.02v-.78l-2.06-.04-.07-.54-1.45-.15-.16 2.23h-.64l.08 1.49-1.66-1.17.03 1.2-.78-.02v-1.32l-1.56-.56v1.08l-.77.77h-.78v1.54l.76.3 2.34-.04v1.35l-6.32-.07-10.85.1-12.25.1-.1-10.63.01-5.64-2.3.1v-2.43l2.32.01v-6.2l-.14-12.48.02-3.18h-.76l-.01-2.81-.79-1.17.98-.61.6.92z"/>
    <path region="43" short-name="48" long-name="Assembly District 48" value="1" d="m573.8 871.6.62.03-.45.92h-.2zm6.95-13.3.4-1.22.6-.38 2.04.1 1.53-.13v1.54l-.66.01-1.08-.32.18 1.07-1.58 1.58-.03 1.53 1.52.23.83.5.9 1.9.76 2.7-.1.02.57 2.3-.08.73 3.11.02V873.58l.02 1.54-2.61.08.47 2.23-3.94.2-.81.36-2.3.45.04-1.6.29-.66-.65-1.33-1.4-.9-1.95.4-.14-1.77.55-1.07 1.36-1.06.44.08-.05 1.3 1.52.48.04-1.27-.75-.53.02-2.85-2.64-.22-.59-.53-.57.45.04 3.12h-1.41l-.03.83-.05.03-.69.02-.6-2.05-1.21-.13-.37-.66.5-.63.83-1.08-3.87-5.13h1.06l.02-.76-1.69-.14.16-.68 1.56-.26.82-.77 1.31-2.02.9.03.1.77 1.52.04-.02 1.6-.85-.2-.7.89-.1.7 2.27.4-.71.62-.02.76 1.22.04-.02.7-1.14.03-.02.75 2.17.09.93-3.45 1.19.42-.02.78 1.49.06z"/>
    <path region="44" short-name="89" long-name="Assembly District 89" value="1" d="m861.96 450.17 1.23-.29.66 1.18zm-74.84 99.21.93.97.7 2.56-.4.37-.56-2.31zm-21.94-15.7.1-15.76-.04-3.16.18-6.32.29-7.9.22-7.62.32-15.83 5.65-.05 12.53.15.42-18.59-18.12-.5.15-9.47.2-9.5 15.1.35 7.46.1 4.06.14.18-4.64.35.05 1.2 1.9 1.58.4.06-1.19 3.35-.29.73.34.92-.34 1.16-.95.5.3 3.12-1.36 1.48-.12.8.23 1.33-.91 1.2-1.25 1.42-.27-.16 1.94-.06 6.37 6.9.05h8.46l9.45-.08.16-.51 1.51.1.5.49 2.58.03.6.63 5.48 1.88.74 1.68-2.2.97-1.11 1.08-.38.78-2.24 6.35.16 6.77-.64 6-.36.51-2.2-.18-1.97 1.17-.17 1.6-2.16-.56-3.61-.02-12.15 2.24-5.84 2.39-1.31.96-1.64 3-1.11.68-.74 1.86-.04 1.25.73 2.82 1.3 2.23.03.61-.72 1.08-1.78 1.54.2 1.37-1.07 2.06-.38 1.51-1.75 3.33-1.62.6-2.87 2.28-1.06.35.1 1.22-.87 1.44-.18 1-1.3 2.36-.38 2.16-1.14 2.56-.27 1.1-.9 1.7-.84.33-.51 1.35-1.3 1.06-2.7 2.91-.98 1.85-.1.8-1.02 1.26-1.09 4.54-.1 2.89.44 3.33 1 2.29-.78-.35-1.22-3.01-1.26 2.86-.38 1.84.03 2.1-.59.01-1.08 2.38.9-.06.06 1.62-.75 1.21.07 4.28-.47 2.24.22 1.43-.9.24.05.88-1.24.27-1.48.66-1.82 2.45 1.58 1.19-3.13 6.38-2.06-1.03.99-2.2.65.2.76-1.29-1.07-.41 1.2-1.65-.95-.65-2.29.02-1.08-.72.06-5.5-7.02.13-.19-12.54z"/>
    <path region="46" short-name="91" long-name="Assembly District 91" value="1" d="m249.77 497.64-.29 1.34.34.86 1.13.74.05 1.19-1.66 1.63v3.39l1.42.51.23.66 1.7 1.05.74 1.84-.74-.03-.14 1.2-.89-.14-.97.52.13 2.24.86.2-.05.95-2.35-.22-.76-.42.03-.89-.78-.05-.57-.86-.18-1.75h-.78l-.58-1.4-1.03.43-.55 2.54-.6.53-1.45-.82.28-1.28-1.46.59-2.2-1.11-.96-.9-1.54-3.23 2.33-.06v-1.9l-.79-1.6-2 .4-.98-.02-.17-1.59.79.18 1.03-.15-1.03-.02-.01-.89-.89-.7-.7-1-2 .18-1.1.37-.03-2.84 3.93.06v-.78l2.01.73.6-.1-.25-2.66 3.12-.17.01 1.49h-.75v1.58h.79v-3.07l9.85.02-1.16 1.43zm-.65 12.4 1.5 1.57h1.13l.6-1.23-1.75.95-.45-1.3v-1.92z"/>
    <path region="47" short-name="17" long-name="Assembly District 17" value="1" d="m779.63 875.29 2.33-.03v-1.15l.78-.01.06-3.23h.56l3.06.03-.16-1.55 1.33.03-.04 1.55 4.93.02-.35 1.7-1.57-.06-.04 3.04h-1.16l-.03 3.08-.4 1.54h-1.54l-.26-1.47-7.43.1.32-1v-1.25l-.55-.24z"/>
    <path region="48" short-name="29" long-name="Assembly District 29" value="1" d="m91.5 436.42-1.16-.02-.04-1.57h.8zm-3.25-.03-.68.02-1.9-.03.88-1.56h1.38zm54.69-37.77.04 4.48v14.26l18.18.15 5.51-.01 14.81.1h9.65l2.62.08 6.06-.03-.04 9.7.02 9.4-16.37-.07.03 13.34.04 2.66 1.36-.14.02.8-1.45.4v2.76l18.76.05 18.87.18.06 15.71.09 22.26-9.45-.05-9.4-.17-9.46-.1.18 9.44-14.18-.17-13.95.01-.05-9.34-18.8-.03-6.9.02-5.44-.06-2.91.05-.06-2.42-.4-1.04.08-1.31-1.26-.02-.4 1.58h-.79l-.36 1.09.91 1.27-.2.8-1.13-.01v-6.74l.15-12.18-3.17-.15.78.57-.27 1.85-.92.71-.63-1.43-1.02.56.06-1.57-1.19-.3.03-.55-9.43-.51-.01 2 .4 1.16 1.15.08v.79l-1.57-.1-.78.75-.52-1.6-1.84-.04-.29-1.56-.51-.8 1.56.01v-.8l-18.86-.04.05-18.9h12.56l6.21.04v-7.85l-.06-11.12-14.78-.1.42-.65.3-1.71-1.6-.02-.01-.8-2.6-.01-2.13.8h-2.35l.77-.8v-.77h-1.67l-.08-9.47H83l-.04-5.74 4.03.1 13.36.06h22.93l-.13-6.27-.2-5.77.04-6.94z"/>
    <path region="49" short-name="45" long-name="Assembly District 45" value="1" d="M501.27 941.53h11.2l14.51-.04 10.66.06.13-11.21.04-7.15 9.88.15-.24.52 2.2.2v-.72l6.15.06 15 .04.85-.03-.02 2.37 12.24-.16 8.33-.02.06 18.44.16 18.2 4.55-.02.02 1.42 1.22.03.33.66.06 8.5.77.02.02 1.53-.76.05.07 6.1 26.11.1 1.05 1.94-1.05.78-.67 1.35.26 2.2-1.96-.15-.75.14.58 1.53 1.65.02-.06 1.64-.77.51-.2 1.73.72.67 1.87.08-.07-.88h1.34l.02-.63h3.04l.99-.18.72 1.33-1.06 1.73-1 .38-.42 1.1-.02 3.23-9.13-.03-8.34-.15-6.43-.07-9.2-.14-3.8-.01-6.2-.18-10.92-.24-18.87-.3-.16-19.8-.18-12.22-.04-6.06h-9.23l-6.99-.08-28.3-.02-5.16.07-4.6-.05-.13-16.8z"/>
    <path region="50" short-name="6" long-name="Assembly District 6" value="1" d="m737.51 569.95.03-1.09 1.9.34.15 1.21zm-141.25-75.32 12.13.1 12.2-.11 11.59.12.02-3.18 1.55.04h1.56l.02 3.16 11.03.02 7.95-.1 11.22-.03 9.6-.07 13.38.02 13.13.18 8.21.03.19 9.84-3.04-.06-.01 3.16h-3.16l.16 6.32 7.59.08 16.99.38 3.73-.14 4.72-.06 9.43-.2.44 3.6.8 9.14.26 4.79.25.64 1.51.02-.02.78 1.93-.01-.04 1.35 5.84-.05 7.76-.71.03 6.28.2 12.54-10 .8-3.86.13-4 .27-12.42-.5.01 3.14-.6 9.33 1.56.03v3.14l.81.01.6 1.1-.31.56-1.24-.01v1.87l-1 .01-.62-.43-6.3-.15-.17 6.26-.26 12.49-14.07-.13-4.76-.08-.06 18.5-18.44-.12-.05 3.14-3.08.06-3.15-.15-12.7.11.26-12.43 1.56.15.9-.22-.05-1.77-.79-.15.08-1.2 1.33-.03-.1-3.15-1.56-.02.01-2.8 5.51.02-.03-1.57.76-.8h1.64l-.03-2.38 1.64-.02v-4.74l1.52.02.1-4.82h1.56v-1.63l1.58.06-.06-2.86-6.35.05-9.25-.02.04-7.86v-11.28l.04-3.16 2.05-.02-.05-3.14-2.06-.01.01-.7.87-.89-.3-1.17-.55-.39.05-9.63-.12-.13-9.39-.01-11.78-.12-1.57-.08-.03-1.47-.77-.8h-.76l-.03 1.33-1.63-.53v1.55l-6.3.03-18.12-.11-6.1-.1h-6.2l-6.47-.13-6.06-.04-.1-25.37.08-9.43z"/>
    <path region="51" short-name="34" long-name="Assembly District 34" value="1" d="m487.26 175.83 3.24.83 22.22 6.25 14.97 4.09 4.51 1.34 16.18 4.4 5.88 1.74 16.96 4.73 2.04.51 14.83 4.19 8.8 2.4 3.93 1.2 4.27 1.14 6.45 1.86 5.18 1.34 15.59 9.2 8.97 5.25-.09 18.44.02 1.91-15.02-.03-2.7.02.02 12.89.07 25.1-.02 20.92.1 1.6-.03 16.02.05 14.44.02 23.7-3.27-.24-8.88-.4-10.84-.23-3.21.1-4.88-.15-14.95-.3-12.45.62v-2.42l-.23-5.9-.17-1.58-.16-8.13.03-1.42-21.77-.11-15.95.03-.08-19.73-11.89.04-7.13-.04-.07 10.16.06 9.6-19.17.1H469.6l-.03-6.06.04-9.28-.06-8.42.1-11.82-.06-3.17-.26-19.33.36-15.58-.17-20.92h6.77l.59-.1 10.43.1.11-16.05-.06-3.4-.06-13.17-.12-2.89.14-4.39v-18.26l-.07-5.7z"/>
    <path region="52" short-name="84" long-name="Assembly District 84" value="1" d="m781.22 895.57 3.06-.01.86-.01.43 1.53 2.43.32-.01 1.2h2.38l-.07 4.59h2.33l-.03 1.53h-.66l-.65.38-.13 1.15-1.5-.54.02-.99-8.6.03-.04 3.05-6.32.07.04-6.17.1-4.6 3.27.03.03-.76.78-.77z"/>
    <path region="53" short-name="9" long-name="Assembly District 9" value="1" d="m790.34 885.98.78.24 1.71.02 1.4-.7 1.6.03v.58l-.01 2.07-1.65.12.22 1.14-.87.01-.03 2.92 1.51.03-.02 1.54 1.3.04.2.76h1.5l-.4 1.53.36.65-.01 1.66h-1.51l-.02 3.06-3.01-.03.03-3.06-1.3-1.38-.18-1.7-.44-1.02-1.08.9-1.54.14.07-4.22-.72-.38-.08-1.73 2.02-.5.25-.87z"/>
    <path region="54" short-name="11" long-name="Assembly District 11" value="1" d="m786.27 858.54 3.08.01-.07 3.08h1.52l.04-1.54 1.19.01-.44-1.37 1.48-.16.66.7.21.22-.05 2.2-1.44-.03 1.36 4.29v2.7l2.88.06-.06-.77 1.07.03-.53 1.6-1.04.66-.06.78-3.59-.06-4.93-.02.05-1.55-1.34-.02.16 1.54-3.06-.03-.34-1.53.27-1.56 1.24.01.02-2.12-1.52.36.01-1.33-.34-1.87v-1.21h-1.13l.06-1.54 3.06-.03.06-1.53z"/>
    <path region="55" short-name="35" long-name="Assembly District 35" value="1" d="m469.78 379.5-.04-11.15-.14-27.03h19.1l19.16-.12-.06-9.59.07-10.16 7.13.04 11.9-.04.07 19.73 15.95-.03 21.77.1-.03 1.43.16 8.13.17 1.58.23 5.9v2.42l12.45-.63 14.95.31 4.88.15 3.21-.1 10.84.23 8.88.4 3.27.24 3.1.02 6-.16 9.98-.01-.34 12.9-.2 3.08.08 3.07 19.09.09 19.25-.1.03-.06 19.08.28 19.52.14 13.57.46 5.33.09-.36 19.07-.15 6.33.03 12.6-.57 19.24-7.58-.16-.5 18.98-18.74-.5.37-19-2.54.1-21.8-.2-22.32-.07-22.4-.03-8.03-.04.12 19.5.05 3.15-.11 6.88v5.76l.14 7.03-.05 11.85-1.55-.04-.02 3.18-11.59-.12-12.2.12-12.13-.1.09-18.9-13.26-.06-5.82.04v-9.49l.16-4.87-.04-24.08-22.56-.17-21.8-.1-14.5-.01-.02 19.2-18.16-.11v-19.12l-18.55-.01-12.24-.02-.36-24.63-.02-23.67.12-2.53.45-3.58z"/>
    <path region="56" short-name="14" long-name="Assembly District 14" value="1" d="m775.24 872.29.01-1.26 4.4-.04v1.35h-.78l-.01 1.56.7.32.07 1.07-.16 1.1.55.24v1.25l-.32 1 7.43-.1.26 1.46v2.27l-2.42-.48-1.95 1.32-.71.04-.23 1.55-1.5.03.03.61-2.42.08.33 1.78 3.3.6 3.64-.07-.04 2.93-.73.05-.02 1.53-.37.39-.02 2.69-3.06.01 1.3-1.3-.5-1.18-.76-.58-1.7.02.23-1.54-.27-1.39-4.45.01.05-6.9 1.47-.02.01.77 1.54-.02-.05-3.03h-.88l-.02-1.58-1.49.03-.1-1.54-.43.01z"/>
    <path region="57" short-name="82" long-name="Assembly District 82" value="1" d="M773.43 907.88h1.29l6.32-.08.04-3.05 8.6-.03-.02.99 1.5.54h2.15l-.02 1.54-.16 6.03-1.54.01-.1 4.37 1.54-.1-.03 1.41h-1.53v.46h-7.58l-.06 3.07-3.04.01-.05 3.06-14.39.06-9.96.08-.1-6.9 4.58-.07 1.27.2 1.63-2.55 1.76-1.8-.07-2.72 1.5-.89.9-.92 2.86-1.42.54.9 3.44 1.31v-1.83l-1 .64-.35-.33z"/>
    <path region="58" short-name="90" long-name="Assembly District 90" value="1" d="m774.14 564.57 2.07 1.03 3.13-6.38 1.02.1 2.14 2.1 2.58 2.28 1.17.34 3.74 1.47 2.4.3 1.76-.17.66-.4.26.43-1.57 1.3-.82 1.07 1.64 1.08.83 1.7.1.92-1.47-.73-.25.54-.03 3.9-1.56-.65-1.45-.04-.82-.44.4-1.8-1.78.08-1.57-.82-1.07.96.6.98-.36.72-4.1-2.03-.4 1.43-1.26 1.45-1.14-.59.64-.99-1.17-.21-1.3-.63.86-1.92.68-.42-2.16-1.05-1 .7-.6-.3 1.26-2.62-1.3-.62-.87.08-.6-.58z"/>
    <path region="59" short-name="20" long-name="Assembly District 20" value="1" d="m791.94 904.72 4.43.03.03-3.07.02-3.06h1.5l.03-1.66 1.5.13.03-2.04.4-.96 1.34-.1.8-.37.66 1.95 2.67.03 1.05.84 2.25 2.84.77 2.01-.09 1.36.33.79.02 1.46-.35 2.92-6.53.04-6.52-.05-.1 2-1.52-.02.05-2h-1.42l.02-1.53h-2.15l.13-1.16z"/>
    <path region="60" short-name="10" long-name="Assembly District 10" value="1" d="m792.13 872.66.35-1.7 3.6.05.05-.78 1.04-.67.53-1.6-1.07-.02.06.77-2.89-.07v-2.7l-1.35-4.28 1.44.02.05-2.19-.2-.21 1.73.18.82 1.37-.09.8.4.98 1.27.73.49-.67.17-3.94.57.08-.12 1.86.65.78.03 3.14-.62.45.1 1.8-.08 3.79.76.45v.78l3.05.04.38.3 1.36-.07.81 2.54.12 1.1-4.24-.03-.04 2.3-1.15-.39-.67.76h-1.15l-.43-.38-1.46.35-1.27-.03.06-4.22-3.1-.07z"/>
    <path region="61" short-name="98" long-name="Assembly District 98" value="1" d="M738.37 889.41v-3.07l.14-8.8v-6.66l4.7-.1.43.07 13.13.09-.05 14.43 1.02-.66.84 1.26-1.65 1.08-.03.84-.99.4v1.11l-1.46.03.43.69H753l-.81.2-.12-.85-1.38.78-.72.02-1.06.56-1.13 1.18-1.5.87-.86-.33-1.23.4-.73-1.4.06-1.07-2.27-.17-.13.57-2.8.07z"/>
    <path region="62" short-name="16" long-name="Assembly District 16" value="1" d="m792.1 874.06 3.09.07-.06 4.22 1.26.03 1.47-.35.43.37 1.15.01.67-.76 1.15.4-.04 3.01-.98.5-1.33 1.53-.05.83.44.84-.05 1.54-3.43-.15v-.58l-.76-.13.2-.87-.18-1.77h-1.55l-.17.58H792z"/>
    <path region="63" short-name="32" long-name="Assembly District 32" value="1" d="M704.78 964.14v-1.53l1.53.03.79 1.35zm33.4-1.24-.95.77v.76l.88.4.07 10.24 18.2-.13.04 12.18-9.1.13-6.48-.03-2.57.06.07 7.58h1.08l.01 1.52h-1.08l.01 2.3.32.74h-.05l-24.49.04-7.04-.06-20.36-.03-10.62.3-8.96.32-1.74.01v-13.31l.04-5.18h2.19l16.04-.41-.1-8.9-1.02-.2-1.91.92-.08-2.38.75-.68 1.37.35.65-.19.22-1.1.01-6.09h4.51l10.01-.14.64.03-.03 3.03.79-.02.04 1.53 1.36-.02.9.3v1.2h2.98v-1.18l-.5-.9h-1.03v-.95l1.52-.03v.78H706l.06-.69-1.28-.17v-.9l3.1 1.22.01-1.61 2.25-.1v-1.55l17.43.12z"/>
    <path region="64" short-name="33" long-name="Assembly District 33" value="1" d="m628.87 906.74.1-13.66.82-.96-.82-3.05v-.96l4.59.14 9.05.16 4.6-.03 12.13.22.17-1.2.55-1.53.57.46h1.54l-.02.76h.78l-.18 1.55 11.5.08 9.19.23 11.42.03.76-.56.6.55 5.53.01v9.43l-.07 9.26-.02 10.89.1 7.66-10.46.11-25.13-.08-.83.03-.08 7.83-.2 10.7-4.5-.09-3.96-.2-9.67-.28.2 12.34.07 6.07-10.45-.2-1.59.27v.46l-1.7.29-.04-3.97 3.24.63-.05-3.77.83.54-.07.92.68.26-.04-2.45-1.52-.03-.03-.65-1.7-.05.19-1.5 3.02-.05-.03-1.52-.76-.02.28-1.5-1.44-.05-.39-.93-.13-2-2.61 1.97.53.9.7.01.02 2.87-5.76-2.11.47-.95-.07-6.35.06-14.43-.05-4.35.05-4.96zm33.28-19.65h-1.55l.1 1.53h.87z"/>
    <path region="65" short-name="19" long-name="Assembly District 19" value="1" d="m801.26 878.04.04-2.3 4.24.02.97 2.38-2.86 3.71-.63.21-1.33 2.02-.57 3.55.19 1.2.9 2.76 2 3.1 1.14.9-2.67-.02-.67-1.95-.79.38-1.35.1-.02-1.63-.3-1.05.45-.47.47-1.6-.47-.9.15-1.28-.9-.87.05-1.54-.43-.84.04-.83 1.33-1.54.98-.49z"/>
    <path region="66" short-name="52" long-name="Assembly District 52" value="1" d="m712.75 721.4 1.59.83 3.82 1.63 1.33-.62 1.07-1.26 1.13.04 1.6-.53.02 2.55h2.05l-.06-1.02-.67-.43.28-.73 1.5.02.1 1.78 2.31.42v.78L742 725l.08 15.5.09 18.7-7.7-.14-7.78-.07-3.21.04-13.86-.18-9.27-.08-14.53-.19.08-18.58-.12-22.1.07-15.31 18.62.2-.04 12.47.01 6.19 3.54.03.03.45 1.33 1.13 2.57.02.8.38z"/>
    <path region="67" short-name="56" long-name="Assembly District 56" value="1" d="m671.3 611.88 12.7-.11 3.15.15 3.08-.06.05-3.14 18.44.13.06-18.5 4.76.07 14.07.13-.1 13.22.99.26 1.18.79 1.3-.79-.01 2.6-.81 1.33-.05 1.15 2.33.04-.03 4.68-1.59-.03.02 4.31-.44.56.2 1.7.01 1.91-2.69 1.07-.41-.47-.01-1.71-1.83-.35-.04-2.06-.4-.62-2.5-.04-.02 1.12-2.04.35-1.03.5v1.1l-1.6-.04v1.77l-1.5.2-.78.48H715l-.12-5.64.11-1.55-1.17.04-.44 1.5-2.85.23-1.75-.02-.1 9.27-9.37.09h-10.33l-1.34.08h-16.52zm57.36-2.78 1.42.01.03-.76-1.21.18z"/>
    <path region="68" short-name="57" long-name="Assembly District 57" value="1" d="m715.76 623.58.78-.49 1.5-.19v-1.77l1.6.03v-1.08l1.03-.51 2.04-.34.01-1.13 2.51.04.4.62.04 2.06 1.83.35v1.7l.42.48.1 1.6-.94.63 1.1.58 1.64.02.23 1.27-7.05-.03-.05 7.51-1.91.7-2.67 2.68-4.8-.06-1.2-.17-.15-1.8.69-.64-.1-.67.73-1.43.69.02-.12-1.22 1.59-2.4.43-1.32 1.46-1.24-1.7.03-.23-.72.1-1.63.78-.79.55.8.65-.8-.76-.69z"/>
    <path region="69" short-name="65" long-name="Assembly District 65" value="1" d="m813.94 978.24.6 1.45-.32 1.97.2 2.16.02 2.67-1.16-.07.03 3.42-1.53-.34v-.4l-2-.04-.26.56-1.23-.36-1.25.14-.06-1.15h.95l-.04-1.32-2.17-.62.2-1.13 1.18.01-.3-1.12-1.24-.43.03-2.37-.2-1.53 1.21.03.4-1.53.76.02v-1.56l4.6.1.84.4v.95z"/>
    <path region="70" short-name="86" long-name="Assembly District 86" value="1" d="m524.04 472.21.11-.52 1.05-.28.02.8zm-42.16 21.96 18.33.06.11-14.97-1.58-.05-.13-1.97-.56-.77-.05-1.84h-.79l-1-.8-1.36.01v-.78l2.34-.01.02.55 1.57-.12.79.37v1.58h.78V456.1l18.16.1.03-19.2 14.5.03 21.8.1-.03 19.06-18.33.02.05 3.3-.07 3.01-2.47.14v.75l.87 2.34-1.92.1-.38-.7-.79.58h-.75l-.48-2.25-2.62-.22 1.13 1.9-1.2.7.09 2.79H527l-.32 1.3-1.11-.1.13.8h-1.72l-.77.26-.13 1.01-.65.33-.02-1.94-.74-.67-.65 1.06-1.76.02V470l-3.14-.08.02.8-2.4-.02-.8-.4-.78.92.8.27 2.4.01.77.8.07 1.64 1.43-.06.86.8 1.58-.02v-.69l1.01-.04.9.26.07-1.11-1.19-.01v-.79l1.58.76.8-.02-.02 1.04-.78.23-1.59-.32.6 1.27 1.3-.19.35-.15-.12-.4.2-.14.06-.37.85-.58 2.05.08.85.32.22 1.56 2.1-.02 1.03.5 1.17 2.93 1.38.5 1.8 1.17.34 1.11-2.68.29-.55.69.14 1.67 1.7.16-.3 2.5-.6.14-.72 1.93.24.52-.51 2.2-.5.53-1.5.78-.77 1.21 3.38.01-.24 1.57 1.29.01-.02-.79-.58-.78 6.5-.04.4-.79-.39-.8-.1-4.73 1.62.03-.01-.82-.8-.73-3.32-.02.07-3.16h.96l.46-.83 1.07-.01-.02-1.6.79-.8-.02-1-.85-.53 3.97-.04.08.78 1.7-.04.48-.75h1.6l.05.78h1.57l.03.78-1.56.01.05.78h1.58l.02 2.64.79-.75.86.25 2.17 1.86 1.9.8.54-1.23.02 16.16-.04 12.45-18.2.22.1 18.76-18.33.14-18.28-.03-18.4.03-.1 13.92v4.88l-17.8.24-9.33-.12.03-8.1 1.85.3.47-.77v-2.33l-1.54-.01-.75-.4-.03-1.2-3.86-1.96.42-.9-1.25-.63 1.5-3h12.54V513l17.82.02z"/>
    <path region="71" short-name="75" long-name="Assembly District 75" value="1" d="m143.23 322.62 19.08-.05v-18.92l-.08-19.91-.12-18.85 2.46.07 6.87-.01 9.66.1.06 2.9.23 3.13 3.02-.03 13.56.26 2.27.13-.17-22.3-.18-2.76 5.27-.04 2.8.09 6.37-.02 6.16.14 15.96-.13 1.54.17-.05 3.11v8.76l.13 4.83-.02 11.49.2 9.45-.17 10.32.09 20.07.18 23.8-.14 22.72-.12 11.04.03 23.84-.05 3.19-.03 9.02-.12 5.2.01 3.82-2.75-.06.07.76-9.31-.18-19.88-.16-6.25.04-6.06.03-2.62-.08h-9.65l-14.8-.1-5.52.01-18.18-.15V403.1l-.04-4.48v-11.25l.06-9.58-1.19.67-.38-1.16-1.59-.02v-.78l1.59-.01v-.77l.81-.77.01-1.69.8.03-.03-6.2.05-11.28.14-10.2z"/>
    <path region="72" short-name="88" long-name="Assembly District 88" value="1" d="m771.95 590.28 1.43-1.71.98-1.68.66 2.4-.98-.06-1.58.58zm-1.26 2 .48-1.17h.93l-.23 1.19zm12.18-8.3-.49-1.7.9-1.39.62-.47.41-1.35-.9-.69 1.38-1 .25-.8-.58-1.36 1.43-.78.36-.73-.6-.97 1.07-.97 1.57.83 1.79-.08-.4 1.8.8.44 1.46.04 1.56.66.03-3.9.25-.55 1.47.73-.1-.93-.83-1.7-1.64-1.07.83-1.07 1.56-1.3-.26-.43 1.63-.96.9-1.66.95-.97 2.45-4.52.25-1.24h.55l-.02 4.3.59.4-1.3 3.11-.96-.01v1.55l3.15.09 1.13 1.57-1.18.27-.06 5.93.01 17.43 18.84.06-.04 12.62-.07 6.26-18.78-.08-9.4-.07-9.41-.1v-6.29h-10.62l-10.23.05.79-2.22.9-.56.56-1.12.84-.48.76-.91.26-1.4.86-1.3 1.56-1.41.72-.95 2.65.07.79-.78h1.57l.66.8.56-1.77.63-.48 1.64.8.72-2.07-.92-.36-.9 1.52-1.63-.02.46-.8.05-2.49 1.55-.02.51-1.58.79-.43 1.21.59.4-.8 1.66.8.46-.67z"/>
    <path region="73" short-name="24" long-name="Assembly District 24" value="1" d="m757.38 833.6 4.79.06 13.5.34 9.17-.03 1.87-.05.24.66 1 .01.7-.72 2.35-.05-.08-4.63-.71-.28-.06-1.61-.6.01-.2-1.16-.65-.04.1-1.29 1.12-.1.85.45.07-3.68-.11-6.36 2.3-.03-.29 1.64.8-.06-.16-1.58 6.63-.14-.06.52-1.32.03-.2 1.16 1.24-.02.72 1.03 1.38-.08.5-1.52 1.12-.01-.49 1.52-1.34.29v.69l2.06.08-.27 2.4-.3 4.04-.46 2.8-.4 1.25-1.56 3.75-1.53 7.16-4.48-.07 1.29 1.42-.51.94-1.9.41-1.28.78-.76-.19-.4-.85-.73-.11-.2-1.36.92-.06-.48-.96-5.68-.04.01 6.16-3.08.05-.03 6.16-6.12.08-.15 6.72-3.03-2.94-.06 3.98-1.24-1.22-.31 1.17v1.54l-1.55.03.1-4.64-4.62.01.02-1.04-.88.11-.62-.95.08-2.76-6.12-.1.04-16.5zm34.36-1.34.03 1.54.77-.01-.02-1.56z"/>
    <path region="74" short-name="25" long-name="Assembly District 25" value="1" d="m762.17 665.73 16.65-.03-.1-18.75 12.3.02-.07-1.56 3.2.02V647h3.12l-.02-18.78 5.5-.01 13.33.07h7.14l11.55-.08-.02 6.24 3.18.01v12.47l5.46.02v.84l-.8.34-.01 1.22.37.77 1.16-.02.07 3.57-2.95 2.46-1.37 1.57-.57 2.43.26.9-.79 1.36-.13 1.44.4 1.72-.08 1.94-.33 1.37-2.35 3.1-1 1.7-.87 2-1.87 6.57-.53 5.08-.78 2-1.22 1.6-1.11 2.45-.77 4.87-.32.92-.11 1.64-.7 2.35-2.88-.04-7.97.1-.02-18.73-12.38.05-24.8-.05-12.82.02-3.97.04-.04-7.81-4.93.01-.02-6.23h5.02z"/>
    <path region="75" short-name="43" long-name="Assembly District 43" value="1" d="M619.8 956.13h.73l-.02-1.54 2.27-.01v1.53l-1.68.01.2.95 1.51.15.03 1.18-1.36-.36-.1 1.14h-.82l-.37-.82-.59-.07zm-45.5-64.15.12-2.76 9.39-.07-.58 1.38.16.74.8.22-.01 1.16 1.38-.12.93-.53 1.12-.01.12.77 1.03-.04.07-2.28.77-.54.05-.91 3.04-.13.22-.01.93-.04 4.12-.15 12.8-.13-.14 13.07-.09 5.42 8.77-.08 9.57-.2-.03 13.19-.05 4.96.05 4.35-.06 14.43.07 6.35-.47.95-2.49-.95-.8-.05-.1 1-.56.54.74.6.85-.02.08 3.12-.45.08-.7-1.17.32-1.16-.47-.48-1.72.5-.3.96-.72-.03.05-1.08-2.39-.8.08 4.1-.79-.02.02 2.3.78.01.06 2.32-1.22.85-.08.66 1.46-.21.2-1.31 1.91.25.04 1.27h-1.3l-1 .58-.01 1 1.98.78-.77 2.28-.88.28-.54.71-.22 1.3h-1l.02 2.27 1.53.01-.02-2.29h.79l-.4 2.5h.57l.28-1.49.08-2.53.76-.01.56.56-.12 1.55.54.02-.02-2.15 1.36.2.18 1.15.98-.56 2.07.03v2.29l-.76-.02-.38-.77-1.81.09.35 1.43h-1.92l-1.23-1.07-.46.17-.3 1.12h.82l.38.92.77.19.02.96-.76 1.42 1.04.88 1.26.22 2.27-.21v-1.54l-.73-.18-.01-1.56 1.47-.09-.01-.98 1.47.04.08 8.92-4.35-.05-26.11-.1-.07-6.1.76-.04-.02-1.53-.77-.01-.06-8.5-.33-.67-1.22-.04-.02-1.4h-4.55l-.16-18.2-.06-18.43-8.33.02-12.24.16.02-2.37v-.65l1.39-.02.8-.38v-11.14l-.5.34-.25 1.17-1.53.35-.57-.39-.04-1.54h-5.2l-.29-1.54 2.3-.02.02-1.52h-.76l.06-1.55 3.06.02.02-1.41h3.81z"/>
    <path region="76" short-name="47" long-name="Assembly District 47" value="1" d="m590.24 870.47 2.46-.07-.76.61-1.33.14zm-11.2.06.75-.02.75.53-.04 1.27-1.52-.49zm-4.62 1.1.14-.29.05-.03.03 1.24h-.67zm-1.9 13.35.5-.7 1.16-.38-.01 1.11zm-16.9 6.3.43-.02.05-3.82 2.67-.16.83-.66-.06 1.69h.5l.07-1.95 1.64.82.35-.8h1.57l-.07 1.5 1.3.1.35-.48 1.2-.53v-.54l1.87.15-.05 1.3 2-.43-.66-.98v-.77l.57-1.44 1.32.13-.09-1.44.95-.75.68 1.02-.53 1-.49 1.91.2 1.12.77-.25 1.51.05-.02.64h5.46v-.66l1.12-1.44.2-.83-1.38-.3-.05 1.71-4.31-.03-.15-2.35h.77l.5-.68 1.6.01.58-.58-.45-1.82-1.07.88-.7-.7.36-1.57 1.38-1.45 1.08-.11 1.23-1.52-.48-1.4.65 1.33-.29.65-.05 1.6 2.31-.44.81-.36 3.94-.2-.47-2.23 2.61-.08-.03-1.54.39 1.53 1.4-.14-.03-1.4.52-.02-.03 1.27.81-.37.05 6.7-.06 6.31 1.15-.18 1.19.71-.48.73-.72.09-.93.04-.22.01-3.04.12-.05.91-.77.55-.07 2.28-1.03.03-.12-.76-1.12.01-.93.53-1.38.12v-1.16l-.8-.23-.15-.73.58-1.38-9.39.07-.11 2.76-1.56-.1-.02.92-4.66-.13-3.34.15-.27 4.6-5.12-.02.11-.96-.91-.54-2.57-.04.07-4.27z"/>
    <path region="77" short-name="53" long-name="Assembly District 53" value="1" d="m696.27 682.5 2.15-.09-.75.77zm-47.76-17.37.04-8.97-.05-8.14 18.73.1.01-1.5h8.38l10.24-.05.16 12.44 2.95.13 16.24-.17 5.16-.08.35 1.34-1.46.32-.98-.22-1.48.88-.48.87-.41.58-.9.02-.39 2.54 1.31.02.6.8-1.3-.3-1.03.46-.35 1.37.84-.08.74-.12-.56 1.55-.7-.14-.32 1.93-2.28-.8-.03-1.32-1.54-.18.18.98-1.13.13-.64-1.11-1.85.06.36.77-1.73 1.69.1 2.07-1.64.06-1.26 1.62-.02 1.36.67.76-2.78.01.4 1.31.01 1.05h-.82l.03 1.56-.8.77.04 1.57h.74l.32.8 2.02.01.79.82.79-.2.77 1.8-.04 4.7.78.78.06-7.86 2.42.05.04 1.11 1.14-.37 1.06.23.2 2.28 1.26.01.07-1.56 2.12.14.38-.6.12.83.94.87.81 2.5.86.55.12.88 1.1.73.45-.6 2.14.1.7.59.33 1.33-.14 1.14.84.2-.83 1.39 1.27-.35-.65 1.57.98.72-.53 1.73.31 1.48.6.63-.36 1.9.82 1.28-.14 1.6.7.52-.38 2.43.17 1.6-.3 1.1.13 1.78-.43 1.23-.06 1.7-.87 4.76-.03 2.07-.81-.38-2.58-.02-1.33-1.13-.02-.45-3.54-.03-.01-6.19.04-12.48-18.63-.2-.06 15.32.12 22.1-.08 18.58-11.06-.04-.32 2.82 1.35.03v.77l-1.4.2-.5 2.03-1.02-.63-.96.03-.05-2.14-1.56 1.08v-2l-1.56-1.19-1.19-.2-.39-.77v-2h-1.21v-1.1h1.2l.04-.64.02-14.9-.07-15.54v-12.53l.1-9.33-11.18-.02-7.5-.04-.07-18.9-.02-13.34z"/>
    <path region="78" short-name="3" long-name="Assembly District 3" value="1" d="m746.08 623.5 1.3.05-1.06 1.14zm-18.16-.15 2.7-1.07-.01-1.91.74.26 1.77-.74 2.32-.04 1.44 1.23 3.3-.32-.02 3.6 1.45.58-.01 1.9.78-.76h.78l.02-1.24 1.31-.45-.12-1.42 1 .17-.04 2.44.97.55 2.42.05.02-1.54.79.02.02-2.14-1.54-.24v-.77l-.84-.2.12-1.38.84-.23-.1-1.2 2.38-3.53.54-.38.29-1.33 1.38-.93 1.9-.68 1.17.22.22 2.1.04 3.8-.26 10.11 6.19.15 18.21.04 17.16.14.02 18.78h-3.13l.01-1.56-3.2-.02.08 1.56-12.32-.02.11 18.75-16.65.03-.1-11.77-1.98-.16h-6.25l-17.9-.2 1.52-4.1 1.05-1.9 1.48-2.32-.43-.85.12-.74-.64-1.2-1.78-2.01-1.85-1.47-2.2-1.19-1.01-.8-2.92-1.02-3.76-.82-2.57-.25.05-7.51 7.05.03-.23-1.27-1.64-.02-1.1-.58.93-.63z"/>
    <path region="79" short-name="7" long-name="Assembly District 7" value="1" d="m782.08 884.94-.26 1.46 1.13.05.02-.98.9.2 1.23-.14.86.35.52-.44 2.66-.14 1.28-.43-.08 1.1.08 1.86-.25.87-2.02.5.08 1.73.72.38-.07 4.22 1.54-.14 1.08-.9.44 1.03.17 1.69 1.3 1.38-.02 3.06 3.01.03-.03 3.07-4.43-.03h.66l.03-1.53h-2.33l.07-4.6H788v-1.19l-2.42-.32-.43-1.53h-.86l.02-2.68.37-.39.02-1.53.73-.05.04-2.93-3.64.07-3.3-.6-.33-1.78 2.42-.08-.03-.61z"/>
    <path region="80" short-name="8" long-name="Assembly District 8" value="1" d="m795.82 886.14 3.43.16.9.87-.15 1.28.46.9-.46 1.6-.45.47.3 1.05.02 1.62-.4.95-.02 2.04-1.5-.12-.37-.65.4-1.53h-1.5l-.2-.77-1.3-.03.02-1.54-1.51-.03.03-2.92.87-.01-.22-1.14 1.65-.12z"/>
    <path region="81" short-name="12" long-name="Assembly District 12" value="1" d="m775.52 859.13.15-6.72 6.12-.08 4.57-.01.08 1.42 1.42.19-.03 3.09-1.54-.03-.02 1.55-1.52-.02-.06 1.53-3.06.03-.06 1.55 1.13-.01v1.21l.34 1.87-.02 1.32 1.53-.35-.02 2.12h-1.24l-.27 1.54.34 1.54h-.56l-.06 3.23-.78.01v1.15l-2.33.03-.08-1.07-.69-.32v-1.56h.78l.01-1.35-4.4.04.07-4.49.18-4.78z"/>
    <path region="82" short-name="23" long-name="Assembly District 23" value="1" d="m799.1 840.05.26 3.07.96 2.52 1.1 2.07.15 1.17-.25.96.17 1.51 1.35 2.23 1 3.39-1.73 4.64-1.24 2.42-.17.86.45 2.57.82 1.5 2.64 3.17-1.37.07-.38-.3-3.03-.04-.01-.78-.76-.45.07-3.8-.1-1.8.63-.44-.03-3.14-.65-.78.12-1.86-.57-.08-.17 3.94-.5.67-1.25-.73-.4-.98.08-.8-.82-1.37-1.74-.18-.66-.7-1.48.15.44 1.37h-1.19l-.04 1.54h-1.52l.07-3.09h-3.08l.02-1.55 1.54.02.03-3.09-1.42-.19-.08-1.42-4.57.01.03-6.16 3.08-.05v-6.16l5.67.04.48.96-.91.06.2 1.36.71.1.41.86.76.2 1.27-.79 1.9-.4.52-.94-1.29-1.43z"/>
    <path region="83" short-name="87" long-name="Assembly District 87" value="1" d="m236.58 233.56 9.64-.06 8.9.19 7.2-.02.02-6.57 12.8-.05 16.27.19 3.21.23 17.32-.1 8.5.06 12.88.16.16 7.7-.08 4.4-.26 4.03.17 3.17.3.04 38.06-.12-.29 9.48.22 14.21-.19 1.45.13 5.24-.01 7.44.08 14.25-.06 4.84v9.56l-.15 9.66-.12 11.4-.02 11.57.12 7.33.14 1.63-.13 25.5 27.07.16 19.87-.44.45.06 12.6-.44h3.25l19.46-.18.9-.13 3.94-.07 10.85.17-.03 3.03-.44 3.58-.13 2.53.02 23.67.36 24.63 12.24.02 18.55.01v38.46h-.78v-1.58l-.8-.38-1.56.13-.02-.55h-2.35l.01.8 1.35-.01 1.01.8h.79l.05 1.83.56.77.13 1.97 1.58.05-.11 14.97-18.33-.06v-11.04h-1.6l.04-4.73h1.57v-2.97l-14.43.02-4.95-.32-10.9.05-22.48-.1.8-.32.04-2.07-1.57.02-.02.8-1-.05.12-9.4 1-.6.06-.99-1.04-.4.1-6.22-14.13.51-4.23.12-19.05-.03-18.8-.04-25.52-.06-12.3.1.08-19.3-.46-.45-.02-9.03.01-14.04.1-14.39-17.44.05-11.23-.06-9.66.03-6.25-.05-3.21.05-19.3.07-9.18-.06-9.52.08-9.44-.14.05-3.19-.03-23.84.12-11.04.14-22.72-.18-23.8-.09-20.07.16-10.32-.19-9.45.02-11.49-.13-4.83v-8.76l.05-3.11-1.54-.17z"/>
    <path region="84" short-name="15" long-name="Assembly District 15" value="1" d="m750.7 898.16.2-.54 1.35-.55-.34-1.66.87.35-.17 2.2.76-.13.33.74 1.2.04.04-1.38-.3-.8 1.85.09.18-7.1 6.1.03 12.3.16h4.45l.27 1.38-.24 1.54 1.71-.02.76.58.5 1.18-1.3 1.3-2.28.03-.78.77-.02.76-3.29-.03-.1 4.6-.03 6.17-1.29.01-12.53-.02-.4 1.4-4.24.11.02-1.55h-10.69v-3l-.34-1.23.01-1.17.36-1.66.45-.8 1.11.24-.04 2.46.76-.01.4-.96.03-1.52 1.02-.02.15-1.3z"/>
    <path region="85" short-name="4" long-name="Assembly District 4" value="1" d="m755.4 553.3 10-.8 7.02-.13-.06 5.5 1.08.72 2.29-.02.95.65-1.2 1.65 1.07.41-.76 1.3-.65-.2-1 2.2-.72 1.56.61.58.86-.08 1.31.62-1.27 2.63.6.29 1.01-.7 2.16 1.05-.68.42-.86 1.92 1.3.62 1.17.22-.64 1 1.14.58 1.26-1.45.4-1.43 4.1 2.03-1.43.78.58 1.36-.25.8-1.38 1 .9.69-.4 1.35-.63.48-.9 1.38.49 1.7-4.03-1.98.4-.8-1.8-.93-.91.01-2.04-.86-1.24 1.94-1.2.06.95-1.93.23-1.07-.1-1.53-.84-.44-.4-.92-1-.46-1.53.33-1.75-.86h-2.2v-1.07l-1.64-1.18.69-.7-.6-.78-.01-3.9 1.54-.03.02-1.8 1.03-.61.12-1.42.98-.32h1.7l1.21-.82-5.12-3.06-9.26-5.1z"/>
    <path region="86" short-name="13" long-name="Assembly District 13" value="1" d="M756.77 870.94h16.93l-.03 1.7 1.57-.35-.08 5.04h.44l.1 1.53 1.49-.03.02 1.58h.88l.05 3.03-1.54.02-.01-.77-1.47.02-.05 6.9-12.3-.16-6.1-.03-.77-.02.02-1.11.98-.4.03-.84 1.65-1.08-.84-1.26-1.02.66z"/>
    <path region="87" short-name="21" long-name="Assembly District 21" value="1" d="M793.28 907.79h1.43l-.05 2 1.53.01.09-2 6.52.06 6.53-.04.25 1.77.66 1.52-.47 1.63-.37.44-.42 1.79.2 2.57.47 2.3.7 1.7.53 1.83 1.1 2.23.2.78-2.55.02-7.76-.13h-3.13l-5.85-.17-12.15.01.05-3.06h3.04l.06-3.07 7.57-.01.01-.47 1.53.01.03-1.41-1.54.1.1-4.37 1.54-.01z"/>
    <path region="88" short-name="83" long-name="Assembly District 83" value="1" d="m701.75 926.22-.1-7.66.03-10.9 12.4.13h7.91l.02 1.08 1.53.22.75-.7 1.24.02.34 1.07.75.02.03.97.78.07-.16 2.51-.49 1 2.2-.03.01 4.13 1.55 1v-1.34l3.05.06v.78l1.6.15 1.61-1.54.59.67.14 1.63.6-.24-.06-8.2 1.4-.02v-1.54l1.53-.03.01-1.67 4.58-.03 10.69-.01-.02 1.55 4.23-.1.41-1.4 12.53.01-.08 1.99.35.33 1-.64v1.83l-3.44-1.3-.54-.91-2.86 1.42-.9.92-1.5.9.07 2.71-1.76 1.8-1.63 2.54-1.27-.19-4.59.07.1 6.9-3.82.1-.02 2.87-2.84.05-.12-.76-.83-.49-1.52.02-.06 6.47.76.74v.68l.7.98 1.56-.02-.09 4.16 1.02.42 2-.03 1.56-.91.8.38-.85 2.35-.03 1.2-2.68.05-.69 2.15-1.17-.53-.05-1.58-12.13.1-18.27-.15-12.87-.2-5.36.04.03-4.53z"/>
    <path region="89" short-name="69" long-name="Assembly District 69" value="1" d="m352.4 569.98.1-18.77 21.95-.06h15.65l.01-14.25.04-10.95-.01-12.58 1.63.03 17.32-.04.07-20.52.03-15.8.12-1.88 1.01.24-.17-3.11-.94.01.05-15.82 4.23-.12 14.13-.5-.1 6.22 1.04.4-.06.98-1 .6-.12 9.4 1 .05.02-.8 1.57-.02-.04 2.07-.8.31 22.47.1 10.9-.04 4.96.32 14.43-.02v2.97h-1.57l-.03 4.72 1.58.01v11.04l-.01 18.85-17.83-.02v18.89l-12.53-.02-1.51 3 1.25.64-.42.9 3.86 1.95.03 1.22.75.39H457v2.34l-.47.78-1.85-.32-.03 8.1-8.97-.11-.04 15.59.03 3.15-.12 12.65.2 3.16.07 3.14-18.35-.04-9.26.27-3.35.01-6 .16-9.4-.01-9.51.07.06 18.82-5.51-.04-13.34.04.04 6.28-.1 6.34.1 6.26-.83.04-28.5-.12.62-1.18-.28-1.1-.8-.4.98-1.3 1.53-.47.47-1.31-.92-.29-.52-1.14-.73-.6.03-1.55-8.7-.01.03-15.67 18.7.03.12-20.47z"/>
    <path region="90" short-name="63" long-name="Assembly District 63" value="1" d="m737.88 944.65 12.13-.1.05 1.58 1.17.53.7-2.15 2.67-.04 13.69-.14 12.24-.05 12.04.06 16.65.33.06 7.17-.26 1.25.88.71-1.11.06.07 1.1-1.05.2v-1.06l-.42-.38-2.63.06.01 1.8 2.28-.24 1.13.7-.2.82 3.11.13-.25.5-1.18.22-.33 1.33-.06 4-6-.15-10.61-.16-11.37-.01-8.81-.06-4.09.1-9.04.07-3-.13.02 12.24-18.2.13-.06-10.24-.88-.4v-.76l.95-.77-.12-4.55-1.86-.66.17-.5 1.67.47z"/>
    <path region="91" short-name="18" long-name="Assembly District 18" value="1" d="m782.08 884.94.23-1.55.71-.04 1.95-1.32 2.41.48v-2.27l1.55.01.4-1.54.03-3.07 1.17-.01.03-3.04 1.57.07-.04 1.4-.09 9.32h1.36l.17-.59 1.55.01.17 1.77-.2.87.78.13-1.6-.04-1.4.71-1.71-.02-.78-.24.08-1.1-1.28.41-2.66.15-.52.43-.86-.34-1.24.15-.89-.21-.02.98-1.13-.05z"/>
    <path region="92" short-name="54" long-name="Assembly District 54" value="1" d="m706.32 662.08-.23 2.1.78 1.58-.34.28-.6-.8-1.3-.02.38-2.54.9-.02zm-2.12 4.12.5 1.3-.85.07zm-14.32 14.53-.03-1.57.82.01v-1.05l-.4-1.3 2.77-.02-.67-.76.02-1.36 1.26-1.62 1.64-.06-.1-2.07 1.74-1.69-.37-.77 1.85-.06.64 1.11 1.14-.13-.2-.97 1.56.17.02 1.33 2.28.8.33-1.94.7.14.05.48-.26.17-.16.2.27.52.89.15.57-.3h.65l.07.52-.24 1.6-.64-.11-1.1.9.32 1.8.6 1.52-.71 2.04-1.75-.86-.42 1.5-.65.64.41 1.53-.12.7 1.07 1.2.3 2.09-.37.6-2.12-.14-.07 1.56-1.26-.01-.2-2.28-1.06-.23-1.14.37-.04-1.11-2.41-.05-.06 7.86-.8-.78.05-4.7-.77-1.8-.79.2-.79-.82-2.02-.02-.32-.78-.74-.01-.04-1.57zm6.39 1.77 1.4.68.75-.77z"/>
    <path region="93" short-name="55" long-name="Assembly District 55" value="1" d="M671.11 627.59h16.52l1.34-.08 10.33-.01 9.37-.08.1-9.28 1.75.02 2.85-.22.44-1.5 1.17-.05-.1 1.55.1 5.64h2l.76.7-.65.79-.55-.8-.78.79-.1 1.63.22.72 1.7-.03-1.45 1.24-.43 1.33-1.6 2.4.13 1.2-.69-.01-.73 1.43.1.67-.69.64.16 1.8 1.18.17 4.8.06-1 1.46-.86 1.7.1 1.64.54.36h1.14l-.36 1.91-.46 1.12-1.06.41-.56.92-1.47.8-.13.89-1.39 2.14.3.86.76.42-.8 1.05-.34 1.19-1.43.4-.66.92.1 1.65-.4.74-5.17.08-16.24.17-2.95-.13-.16-12.44-10.24.05h-8.38l-.01 1.5-18.73-.1-.1-20.29 12.29-.04 4.41-.1z"/>
    <path region="94" short-name="76" long-name="Assembly District 76" value="1" d="m573.87 871.36.7-.01-.15.28-.61-.03zm-.1 1.2.2-.01h.67l-.03-1.24.03-.82 1.42-.01-.05-3.12.57-.44.6.52 2.63.22-.02 2.85-.76.02-.43-.08-1.37 1.06-.55 1.07.14 1.77-1.17 1.27-3.02 1.79-1.93 2.15-2.27.17v-.97l-.76-.01v-1.19l1.3.02v-.82l1.04-.15 1.53-.72 1.26-1.55.57-1.61z"/>
    <path region="95" short-name="66" long-name="Assembly District 66" value="1" d="m809.02 953.1 1.8.06v-.37l3.05-.03-.2-1.9.44-.56-.25-.96-.6-.17.59-1.15-.02-1.3-1.02-1.17-1.4-.55.43-.86 1.18.55v-2.31l1.17-.41 1.83.47 1.6-.07.08.76 1.44-.86 1.03-.08-.42.92-.55 2.69.02 1.35.53 2.03-.43.78.36.63.1 1.76-.44.18-.24 2.07-.73 1.74-1.43-.6v1.21l-1.52.4.78.78-.04 1.12-.74.77-1.67.02.08-2.26-1.46-.02-.2-2.3.18-1.45-1.14-.27-.9.6-.41-.54zm-2.79-13.07 3.04.07-.03 1.14-1.51.34-.02 2.6-.33-.1.02-2.13-.6-.38v-.77z"/>
    <path region="96" short-name="71" long-name="Assembly District 71" value="1" d="m577.42 532.7 18.88.01.01 16.35.08 12.38-.1 31.39-.1 28.02-.05 6.72-3.43-.07-18.9-.05-3.02.02-15.26-.04-.13-9.37.09-11.06-5.41.14-13.06.18.15 19.73-18.3-.4.02-3.13-.01-20.89-.08-7.84-.2-11.74-.09-16.54 18.5-.12v-1.6l1.88-.03v-1.58l.78-.8.17-1.58 1.4-.03 1.58-.75 1.57-.05v1.6l.9.05 1.37.7.07-.82 1.83-.01.47-1.58h-1.54l.02-1.56 1.07-.46.42.45h1.78l1.33.48.75-.48.07 4.53-.77.01.03 2.7 2.32-.16-.18 1.57-1.36.32v1.07l-.74.18.04.84 3.05.05-.08-9.56 8.74.67 7.36.77 4.48.24 1.7.2-.02-9.57z"/>
    <path region="97" short-name="22" long-name="Assembly District 22" value="1" d="m720.66 833.36 15.3.13h4.65l15.6.1-.36-1.54h.67l-.24 1.54h1.1l-.05 2.22-.04 16.5 6.12.11-.08 2.76.62.95.88-.1-.02 1.03 4.62-.01-.1 4.64 1.54-.03v-1.54l.32-1.17 1.24 1.22.06-3.98 3.03 2.94-.01 2.63-.2 4.78-.05 4.5-.02 1.25-1.57.35.03-1.7h-16.93l-13.12-.09-.44-.08-.13-3 4.07.02-.18-1.55-.78-.77-1.54-.02.06-2.3 1.73.04 1.37-.31.27-10.7-12.07.05-9.18-.13-5.98-.24-.1-12.35z"/>
    <path region="98" short-name="46" long-name="Assembly District 46" value="1" d="m584.66 858.22.66-.01v-1.54l-1.53.13.03-1.21 1.87-2.76-.18-.98 4.56-.06.04-1.54h1.52l.75-.78 2.65.03.96.46 2.3.08-.01-1.39h1.53l.84.38h1.46l-.32 1.97-1.39.26-.8.5h5.59l6.11-.08-.23 13.04-.21 5.35-.1 18.46-12.8.13-4.12.15.72-.1.48-.72-1.19-.71-1.15.18.06-6.3-.05-6.7-.8.36.02-1.27-.52.01.03 1.4-1.4.15-.39-1.53v-1.55l.01-1.55-3.1-.02.07-.74-.56-2.3.09-.02-.76-2.69-.9-1.9-.83-.5.08-2.84.77-.48zm5.58 12.25.37.67 1.33-.13.76-.6z"/>
    <path region="99" short-name="62" long-name="Assembly District 62" value="1" d="m756.38 926.25 9.97-.08 14.39-.06h12.16l5.84.17 3.13-.01 7.76.13 2.55-.02.41 1.58 1.87 2.62 2.85 3.39 3.13 2.68 1.01.66 1.43 1.73-.08.52-.95.47-1.4 1.58-.28.58-1.02.08-1.45.86-.08-.76-1.6.07-1.83-.47-1.17.4v2.32l-1.18-.55-.42.86 1.39.55 1.02 1.18.01 1.3-.58 1.14.6.17.25.96-.45.55.21 1.91-3.05.03v.37l-1.8-.06.26-1.26-.06-7.17-16.65-.33-12.04-.05-12.24.04-13.69.14.03-1.21.85-2.35-.8-.38-1.55.9-2 .04-1.03-.42.1-4.16-1.56.02-.7-.98v-.68l-.77-.74.06-6.47 1.52-.02.83.49.12.76 2.84-.05.02-2.87zm49.85 13.78.57.77v.77l.6.38-.01 2.13.33.1v-2.6l1.52-.35.03-1.14z"/>
  </g>
</svg>
