<svg title="Alabama 2022 State Senate" viewBox="0 0 630.65 1000" auto-border-stroke-width="1" auto-border-stroke-width-limit=".5" original-source='["https://www2.census.gov/geo/tiger/GENZ2022/shp/cb_2022_us_sldl_500k.zip"]' candidates="[{&quot;id&quot;:&quot;0&quot;, &quot;name&quot;:&quot;Democrats&quot;, &quot;margins&quot;: [{ &quot;color&quot;: &quot;#1C408C&quot; }, { &quot;color&quot;: &quot;#577CCC&quot; }, { &quot;color&quot;: &quot;#8AAFFF&quot; }, { &quot;color&quot;: &quot;#949BB3&quot; }]},{&quot;id&quot;:&quot;1&quot;, &quot;name&quot;:&quot;Republicans&quot;, &quot;margins&quot;: [{ &quot;color&quot;: &quot;#BF1D29&quot; }, { &quot;color&quot;: &quot;#FF5865&quot; }, { &quot;color&quot;: &quot;#FF8B98&quot; }, { &quot;color&quot;: &quot;#CF8980&quot; }]}]" version="1.1" xmlns="http://www.w3.org/2000/svg">
  <g regions transform="translate(-184.68)">
    <path region="0" short-name="33" long-name="State Senate District 33" value="1" d="m250.35 884.77.81 3.05-.76 1.15 1.43.01.01.58 1.82.07 1.86 1.56.54 1.83.81-1.6.01-1.11 1.82.53-.02.77.87.05-.15 2.27.66 1.13h.58l1.16-3.53 1-2.05 1.24-1.53v-.47l.97-1.35 1.03-.72 2.09-.62 1.15-.74.32-.6-.17-2.5.79-1.04 1.78-.6 2.38-1.27 2.18-.19 2.6 2.38 2.9 1.2.76 1.46 1.8 1.1 1.38.4 1.78 1.47 1.4.25 1.8 1.25 1.37.1.87.63.22 1.2-.47.96 1.68 1.64.33.57 1.09.52.36.78 1.02.95 1.41-.12.32-.77.72-.06.04 6.28-.76.55 1.23 1.05 1.54.41.05-.5 1.94.3.42.89.53 3.29-.53.91-.12 1.39.21 1.77-2.27-2.56-9.67-.05-1.66.06-1.63.83-2.63.37-1.4-.17-2.75.96-12.13-2.28-2.3-1.44-.67.75-1.4-.8-1.53 1.94-.69 3.2-.91.2-.95 1.09-.67 1.19-1.11-.42-1.22.7-1.8.6 1.03 1.23.23.78-.98 1.47.12 1.53.98 1.35-.89.86-.37 2.4-.65 1.68-1.76 1.93-1.45 1.23-.76 1.6-.74-.45-.5-1.07-1.3-.52-1.29-1.52-.87-2.04-.13-1.44.68-1.81-1.6-1.72-1.17-.32-.09-3.16 1.46-1.56-.64-2.2-.91.65-1.24 1.38-.91.4-2.86.01-.6-.37-.24-1.32.02-1.96-.62-1.45 1.48.02 1.1.73 3.98-.12v-4.68l.8-4.43-2.59-1.03-2.52.53-1.31-.2-4.27-1.99h-4.04l-.29-1.48-.78-.03v1.5h-1.5v-3.5l1.44-.2.75-.76-.01-1.54 5.96.04-.06-9 .28-2.58-.13-1.81 1.1-.1.74-1.08 1.88 1.84.39 1.66.83-.02.43 2.46 2.59 1.63 1.04-.5 1.21.48.44.77 1.42-1.46z"/>
    <path region="1" short-name="29" long-name="State Senate District 29" value="1" d="m722.48 766.51-.06 5.37-.08.4-.04 6.42.1 3.5 1.17 3.2-1.28.67 1 .82.06 2.34-.94.13-1.3.69-.96 1.3-.27 1.02-.1 1.9 2.52.08 3.61.74-.07 3 .77.21-.78 1.5.02.54-.7 1.73 1.24.14 2.63-.67.67-.34-.68-1.43 2 .13.93-1.89.3-1.16 1.93 2.08 3.05 1.9.05-2.92 1.5.05.06-2.58 5.7-.01 3.35-2.5 1.49-.03 1.02-.37 1.85-.04 2.11.67 1-2.54.75-1.5-.05-3.23-.43-3 .45-1.58.1-2.6-.7.03-.02-1.05 8.84.35 16.1-.2-.38 2.8-.6 1.1-1.04 1.14-1.97.5-.76.91.48 1-.24 1.68.27 1.3.45.7.86 2.62.95 1.92.37 1.42-.34 1.26v1.7l-1.46 1.76-.2 1.45.1 1.9.97.35.62.94-.3 3.01 1.43 1.07 1.5.14 1.22.55 1.14 1.7 1.08 1.27.52 1.7 1.12 2.76.8.39 2.56 2.2.49 1.57.54.9.65 2.47-.42 1.77-.02.2 1.83 3.15 1.2 1.17.5 2.2-.16 2.15.77 1.57.08 1.14.9 1.1-.03.97-.5 1.72-8.73.02-16.5-.02-1.12-.03h-16.08l-28.84.52-15.97.28-14.96.12-29.26.22-.06.1-25.27.27-18.49.13-6.4-.1-14.41.09-12.38-.23.06-1.86h-.58l-.11-2.93-.05-4.55-.38-17.59.02-13.4-.05-.4 11.96-.1.1 2.2 1.44-.01v-2.25l10.24-.22 10.31-.32 10.85-.14 2.33.04 10.5-.05h13.01l-.02-11.47.06-8.53.2-7.52.05-5.46 6.02.04-.06 3.58 2.67.6 1.41.02 2.08-.43.16-.51 2.03.51.6-2.28-.1-2.52.25-2.93.24-1.16 1.12-1.6 1.98-4.28 1.01-1.1.24-1.7.65-1.5 1.18-.94.63-1.5 1.07-1.15-1.72-2.23v-.47l1.59-2.3 5.25.9.26-1.2 1-.9 1.12-2.32.42-.3 1.18.3.73 1.17.79.55.52-.83 2.15-2.58 1.82 1.02-.1 1.24-.54.17.33 1.11-.33 1.33.56 1.2.72.73 2.03-1.43h2.46l2.55-.8-.74 1.17-.23.87-.8.5-.57 2.63-.73.98v.97l.6 1.26.17 2.95.46.18.52 1.56 1.2 1.72-.54 1.4.6 2.12-1.56 1.27-.8.05-.42 1.16-.07 1.9.86.87 1.88-1.41 1.3-1.3.58 1.4 1.59 2.18 3.37-.41 1.07.2.01 1.64.91-.56 1.67-.01.84-.24 1.73.44 1.3 1.3 2.42.23.52-1.38 1.54-.93z"/>
    <path region="2" short-name="18" long-name="State Senate District 18" value="1" d="m463.95 319.71 3.4-2.28 3.04-.85.68-.9 1.62-1.14 1.64-.82 2-.12.1-.84 1.83-.98 1.25-.28 1.3.52.18-2.17 1.1.13 5.03.08 1.73.4.66-1.58.5-.53 2.15-1.33 1.1-2.01.52-.3.84 1.3 1.79 1.37 1.26-.06-1.13 2.2.63.84 1.43-.82 1.66 1.11-2.64 2.52-.63.8-1.13.6h-.85l-3.78 1.9-1.04.05-3.68 2.77-2.15 1.21-.03.5-1 .83.3.45-.01 2.21-2.22-.12-.07 2-1.44-.16-1.79.26-.05 2.58.3 1.1-1.57 1.17-.81.27-1.93 2.25-1.2.42-1.07.9-.02 1.37-2.57 3-.01-1.84-1 .9-.73 1.18-.13 1.22.52.61-.28 2.5.6.3.92 1.33-10.6-.28-.05-1.56-1.16-.77h-1.16l-.03-2.31.77-.83.7-1.38 2.48-2.65 1.42-1 1.57-.84.79-.9-.02-1.5-2.35-.32-.07-5.9.74.01 1.67-2.13-.05-2.2z"/>
    <path region="3" short-name="31" long-name="State Senate District 31" value="1" d="m532.01 733.1 14.75-.04 2.72-.32.25 15.51.42-.05 1.4-1.1.75-1.01 1.53-1.18-.37-.86 1.24-.29 1.12-2.69 1.36-.15.42.57 1.06-.22.19-.83 1.43.46 1.94-3.11 1.48-.65-.13-.65.87-1.05 2.81-1.97.01-1.02h3.3l.36 3.13.19 11.91 2.96-.02-.3 3 9-.11 2.95.34-.14-18.55 6.72-.05-.03-1.51 2.25-.03-.34-16.54-3 .04-2.94.24-.12-1.16.3-1.28 1.78-1.28-.1-1.01 1.3-.42.5-1.29-.43-1.16.26-1.5 2.24-.53.04-2.36-.08-8.45v-12.58l-.18-3.08-8.98.1v-3.6l1.13-.86-.11-1.43.94-1.05.93-1.74-.57-1.04.47-1.88-.16-.88.27-2.82.53-.5-.43-.73.62-1.1.23-2.22.78-1.26-.45-1.76.09-3.71-.48-1.31.5-1.14-.85-1.11.12-.63-.5-1.08.04-1.03-.67-1.88-.04-.9-.98-.8 11.68-.07.59-.1 20.2-.01 1.98-.05-.23-17.33.76.75h1.5v-.75l1.43-.04v-.66l4.52-.03-.74-.74-.02-.75 1.45-.03v1.52l6.08-.04.05 1.54h3.13l.18 12.1.64.02v1.49l.84-.02-.02 3.03h16.6l-.18 10.82v7.2l23.47.01-.25.59-1.38 1.54-.8 1.66-.62.33-.47 1.69.9 1.31.74 2.3-.57 1.27v.88l-.54.97.46.87-.34 1.85.6 1.46-.07.86 1.29 2.7-.56.47.1 1.5-.88 2.46-1.28.92-3 1.8-1.2 1.8-.48 1.53.3 1.52-.29 1.23-.69 1.39.57.6-1.03.98-.37 1.27-.74-.02-.48 1.02.57.47-.04 3.03.3 1.72-.51.71.47.8-.15 1.13-.51.97-1.26 1.35-.5 2.37-1.24 1.8-1.5.98 2.79.18 16.38.06 12.91-.05 11.12-.47 14.7.17.06 12.1.13 12.53-.48 12.25.1 7.02.13 3.84v5.1l-1 1.62-1.53.93-.52 1.39-2.41-.24-1.3-1.3-1.74-.44-.84.24h-1.67l-.9.57-.02-1.64-1.07-.2-3.37.4-1.59-2.18-.58-1.38-1.3 1.29-1.88 1.41-.86-.87.07-1.9.41-1.16.81-.05 1.55-1.27-.6-2.11.55-1.4-1.2-1.73-.52-1.56-.46-.18-.16-2.95-.61-1.26v-.97l.73-.98.56-2.64.81-.49.23-.87.74-1.16-2.55.78h-2.46l-2.03 1.44-.72-.73-.56-1.2.34-1.32-.33-1.12.52-.17.11-1.24-1.82-1.02-2.15 2.58-.52.84-.79-.56-.73-1.18-1.18-.29-.42.3-1.12 2.31-1 .92-.26 1.2-5.25-.9-1.59 2.3v.46l1.72 2.23-1.07 1.14-.63 1.5-1.18.95-.65 1.5-.23 1.7-1.02 1.1-1.98 4.29-1.12 1.6-.23 1.15-.25 2.93.1 2.52-.6 2.28-2.04-.51-.16.5-2.07.44-1.42-.02-2.67-.6.06-3.58-6.02-.04-.06 5.46-.2 7.52-.05 8.53.03 11.48h-13.02l-10.5.04-2.33-.04-10.85.14-10.3.32-10.25.22v2.25l-1.44.01-.1-2.2-11.96.1.05.4-.02 13.4.38 17.59.05 4.55.1 2.94h.59l-.05 1.85-9-.07-3.18.1-5.77.02-14.08-.14-3.41.06-11.62.08-.64-.04-10.84.15-7.66-.4-17.81.14-4.16-.02-.05-1.2h-2.04l-.1-25.16.06-.46.02-13.78-.14-25.41-.1-4.5.46-.63-.66-1 .6-.55 1.7-.15.5-.83.6.02.84-1-.13-.84.92-.2 1.19-1.31-.02-.95-.5-1.83-.83-.56-.05-.88 1.69-.53v-1.53l.66-.69-.88-1.06-.35-1.23.65-1-.95-.75-.66-1.44.3-.8-.36-.68-4.64-.01-.06-18.02 4.53.06 26.24-.15z"/>
    <path region="4" short-name="24" long-name="State Senate District 24" value="1" d="m184.68 656.88.8-8.15 2.4-22.1 2.88-27.64 1.83-16.09 2.54-25.77.23-1.27 1.51-14.32.7-7.64 2.99-29.55 1.7-17.74.87-7.5 2.47-26.69 2.44-24.33 9.1-.36 20.57-.62-.03-1.6.8-1.9.8-.67-.11-.71 1.51-.1 2.17-1.3-1.34-2 1.3-1.1.9.01.38.83 1.17-.04.39-.73 2.02-.33 1.6 1.21h2.14l.41-.6.98.56 1.06-.41-.08-.84 1.21-.49-1.16-1.01.43-.7 1.1.37 1.15-.1.08.69 1.31 1.76.83.55.47-.46 1.47.27-.02-.67 1.34.06.43-.34-1.4-2.33.63-.89.85-.12.74-1.24 2.39-.64.3-.82 1.17-.46 1.06.45.38-.41 1.25.03.62-1.06h3.1l1.39-2.1 1.08-.7.65-1.44.05-1.06.6-.99 1.05-.39.26-.69 1.9-.71 1.36-.94.44.17 1.05-.7 1.32.17.45-1.1.94-.38 1.24-.01.92-.44 1.41-1.5 1.64-.23 1.03-.8.87.82 1.6-1.46 1.35-.62.33 2.78 2.46-.3 2.92.41 1.08.97 1.97.62 2.29-.39 3.1-2.62 1.1-.6 1.12-2.51 2.55-2.13.9.27.41 1.65.5-.18 1.67 1.8 1.35-.72.75-1.64 1.28-.86.3-1.4-.61-2.28 2.23 1.42.68 1.29 1.37-.7-.86-1.53-.09-.91-1-.84.76-.9 1.02.9 1.5.58.5-.2.02-2.81 1.1-.54 1.38.9 2.42.58.73-.1 1.88-.95 2.87-.86 2.75-1.07 2.13-.64 1.2 3.06 2.83.14 1.34.56.04 1 1.34.6 1.63.34.27 2.51-.07.81 3.63-.91-1.6-2.09 3.39-.84 1.66-1.43-.73-1.67.6-.34 1.64-.11.24.63-.54 1.32.65.62 2.4 1.25-.73 1.05-.03 2.04 1.46.5.05 2.45.69.76.36 1.91-.67 2.26-.93.21-1.82-1.27-1.18 1.06-.67-.19-.82 1.51h-.65l-3.99-2.15.44 2.85.59.35-.06 1.5-2.2.97.12 1.38-.55 1.14v.8l1.1 2.56-.07 1.31.96 1.5.23 2.1 2.07-.74 1 .29.52.62.43 1.69.02 1.18-.82 1.88 1.33.69.86 1.41.83-.54.9.12-.75 2.28-.6.69-1.38.15-.44.91-.74.52.15.96 11.76.15.12 1.78.12 21.87-.11 3.37-.04 9.15-8.93.05-.08 2.86.07 15.38-.28 3.2-.02 15.11-9.02.03-.03 7.66.1 24.1.05 4.5.02 19.24-.23 2.09.25 15.09 9-.07.16 8.89-.75-.58-1.04.33-.96-.42-2.35.02-2.26.43-.86.92-.79 1.4.23 25.37-17.93.1.22 26.34-7.95.69.03 2.24-15.92.23-10.31-.06h-8.86l-22.48.14-9.64-.02-4.18-.05 1.26 1.46-1.4.86-.29.74.15 1.1.91 1.76-.15.62-1.32 1.06-.46-.07-.88-1.52-.63-.52-1.27-.27-4.35 3.06-.2.54.94 1.74 1.91-.6.71.45 1.02 1.56.95 1.92.53.27 3.59-3.1.98.55 1.1 1.21.11 1.01-.75.66-1.5-.6-1.58.29-1.26 1.72-.78.57-1.81.32-1.12-.1-1.4.62-1.79-.06-1.06.43-.94 4.28-1 2.76-.27 1.37-.66.9-1.48.6-.88 1-.5 2.38-1.87 3.3-1.39.98.02 1.15 1.06 2.41 1.6 2.89.38 3.18.8 1.54 2.8 2.83.76.27.95-.44 1.92-1.54 1.76-.37 1.25.36 2.03 4.82.18 4.66.72 3.24-32.48.18-22.34.02-.98.07-10.38.01-.12-5.04-.63-14.15-.43-12.48-.27-5z"/>
    <path region="5" short-name="17" long-name="State Senate District 17" value="1" d="m450.35 245.3.7-.23-.49-1.78 1.52.79.36-1.6 1.01.95 2.36-.05 2.13-1.3-.7-.65.77-1.72-.24-2.19-1.1-.62.2-1.71.33-.7 1.67-1.4 1.26.65 1.34-.5 2.38-.38.6-1.66-.51-1.85 1.53-.61 3.05 1.55-.07-1.13.9-1.14 2.12-1.87 1.25-.44 1.54 1.36 1.2.6.38-.46-.99-1.95.44-.93 1.8.76 1.34-.26 1.17.48 1.28-.3.32-1.12-.65-.92 1.17-.56.44-.64 1.63.8.36-.79-.65-.88 1.92-.19.28-.44-.02-1.84.9-1.1-.69-1.13 1.8-.49 1.64-.22.2-.97-.35-1.25 1.8-.98 1.67-1.23-.34-1.07.8-1.62.42-.1 1.44.8 1.41-1.38.05-.87-1.04-.88-.38-.77.57-1.37.34-.88 1.43-.7v.7l1.2 1.14.22.13.2.03.34-.23.16-.32-.16-.96-.95-1.02-.24-.37-.22-.57-1.25-1.92-.13-.14-.53-.4-.08-.26.22-.26.9-.59.3-.28.71 2.1 1.2.5 2.82-.52-.03 3.15 1.73.53.68.87 1.66.69 2.18-.74 1.31-1.93 2.5-2.42.76.8 1.47.04-.02 1.56 1.62.03-.02 1.47 1.3-2.21 1.45.03 1.24 1.76 2.72-3.42 2.38-2.2 2.13-2.25 1.96-2.37h2.51l.68-.36 1.76.9 1.2.26 2.22 1.02 1.37-.27-.11 2.84-1 1-.93-.37-1.63.3-1.53.91-.65.71.7.77 1.29-.22-.45 2.67.23 2.22 1.35-.95 1.57-.1.84 1.13.06 1.55-.25.65 2.48-.02 1.92-1.12 1.53-1.2.6-1.12 1.25 2.05.91.83.81 1.23 2.51-.71.61-.64 1.06.47 1.84-.33.07-.64 1.24-1.51 1.31-.33.76.17 2.38-.04.8 2.2.98.89-.06 10.97-.52.5-.24 1.44-.82-.03.41 1.2-.94.84.01.63-1.21.94.36.6-.8.74-.8.18-.44 1.28-1.6 1.51 7.84-.08-.1-.56 1.28-2.65.93-.3 1-1.13 2.07-3.19 1.08-1.41h1.38l.77-1.19.6.15 1.05 2.06.1.76.75.67 1.28.35.87 1.02.83-1.24 1.27-.77 1.63-1.61 1.22-.16.38-.51 1.54-.37 1 .22 1.38-.47.26.67 1.33.48-.02 1.3-.49.76 2.35.63.64.95 1.33.23.33 1.67-.15 1.18.33.92-.42 1.16.47.8-.31 2.12 1.2 1.2 1.04.45.84-.03.54.73.62 2.02-.02 1.73 1.73.52.54-1.17 1.89.5 1.16-.82.75.93-.4 1.19.28 2.7 1.15.93.4.79-.1.9.57 1.58 1.3-.3 1.7.12 1.27-.74.89.02.92.52 1.04 1.15.4 2.53-1.86.77-.12.92 1.74.97.76 1.31-.29 1.25-1.4 1.5-.64 1.1.1 2.36 1.08 1.92 1.69 2.12.67 1.44.15 1.76-.59.34-1.08-.12-1.6.56-1.4.99-1 1.09-.95 1.5-.7.5-2.39.89-3.06 2.67-.39.74-.09 1.47-.8.54-1.02-.29-.59-.66-.77-.01-1.12 1.31-.44 1.47.38 2.68-.26 2.2-1.08 1.3-.6.28-1.37-.25-1.1-.74-.3-.64-.2-2.18-.62-2.28-1.06-1.58 2.43-1.07v-1.91l.83-1.93.09-1.16-1.51 1.33-1.4-.6-1.29 1.62-.04.42-2.38.53-.53.53-1.15.26-2.16 1.45-1.68.16-.62 1.63-.94 1.17-.5 1.17-1.79.19.18-.94-1.58-.64-.3.96-1.3.03-1.68 1.82-.32-1.33.27-1.02-.5-1.35-.12-1.26-.72-1.6-.25-1.5.55-1.29-.23-.85.52-1.54.9-1.42.7-1.6-1.74.4-.3.64-4.65 2.6-1.35.54-.44.8-2.63 3.2-.54 1.63-1.63 2.26-1.58-.9.17-.7-1.89.65-.05-2.75 1.63-2.15.63-.43-.78-1.02-2.58-.74.32-1.8.46-1.12.93-.73-.84-1.57-1.29-.23.53-.8.3-1.56 1.07-.53-.75-1.04-.71.6-.8-.01-1.3.5-1.5-1.6-.07-.77 1.75-.94 2.74-2.32-2.25-3.54.25-.73-.52-.7.09-.8 1.06-1.78.02-1.48-.32-1.44-.01-1.85-1.86 1.3v.7l-1.24 1.57-.87.52-.43.77-3.94 2.76-.33.71-1.44-.13-1.44-.94-4.18.8-1.75 1.2-1.07.37-2.08.13-1.2.87-.63-.56-.72.15-1.6 1.84-9.8-.02-.05 7.76 6.16.03.02 6.25 1.56.04-.02 3 1.55.01-.05 10.78 1.11-.03.43.85.77-.02.32 1.47-.55 1.1.12 1.98-.53.9-.96-.05-.01.75 2.46.03v.7h-1.61l-1.03 1.44-2 .03.02-1.56h-1.6v3.07l-1.51-.03-.02 3.07-1.96.89-.13-.97-1.38-.35-.63-.5-.88.82-1.21.11-1.3 1.07-.6-.95-1.12-.07-.87.72-.83-.63-.03-1.16.57-.72-.38-.98-1.22.48-1.1 1.17-2.72 2.2-1.37 1.3-.44-1.4 1.3-1.47 2.43-4.1 1.83-2.3-1.87-1.34.55-1.05.16-1.56.99.03-.02-2.31.98-.04-.08-1.72-1.04-.01.01-1.33-1.2.17-.25.5-1.71-.13.1-1.32-.35-.97 1.46-.44-.11-1.73-1.53-.92-.4-1.34-1.18-.47-1.53-.1-.93 1.63-1.36 1.43.05.62-2.35 1.4-.8-2.05-.64-1.1-.91.46-2.07-1.24-.8.09-1.8 1.4-1.27.01.08.72-.46 1.59-1.35 1.8-.96.61.04 1.36.76.01v2.16l-3.06-.74.32 1.72-2.12 1.92-.93 1.23-1.13 1.94-2.26-.52-.04 1.35-1.5-.02-.22-.6h-1.28l-.06 2.11-3.07-.12-.76-.79v-.77l-1.54-.06-1.25.4-.94-.61-1.55.2-1.63.21-.81-.42.06-.82h.9l1.39-.58-.7-.82.06-1.31-1.59-1.98-3.67.46-.1-.76-1.12-2.34-1-.28.27 2.38.83 1.77-.07.58-4.53-.62-.04-1.54-2.07-1.53-1.03-.32-.27-.66-.06-1.78.25-.88 1.26-.39-.02-1.09-1.55-.06-.04-3.5-.26-.54-.08-.52-1.29-.87-.38-.75 1.42-1.66.36-1 .65.1.5 1.17.78-.17.06-2.15 3.2.44.84-.2.18-1.52-.65.15-.73-1.02-.4-1.85-1.4-1.33.17-1.38-1.44-1.53-.97-.53-.09-1.8-1.1-2.28.35-.41.02-6.24-.12-3.1h-1.53z"/>
    <path region="6" short-name="1" long-name="State Senate District 1" value="1" d="m404.48 1.87 10.78.26 26.67.63 1.97.01 24.25.68 4.55.04 9.27-.03v6.3l-.1 14.6-.06 7.4-2.28.49-2.65 1.27-1.72-.12-1.54-1.8-.26 9.26v9.31l-1.17-.1-.38-1.17-.8-.2-.03 2.8.8.13.2 1.35-.38 1.72.24.27-.15 4.76-14.03-.23-.01.3-2.44-.07-.12-.28-.43-2.57.08-1.8-.26-5.08.22-7.8-.07-2.77-1.5.22-.01.97-4.26-.18-14.41-.32-9.34.01-.15 12.96 3.06 1.8-.03 2.45-3.06.04v3.12l-2.35-.02v1.22l-1.59.27.41.7.5 1.86-.72.14-.62-2.22-1.1-1.56-2.78-2.1-1.5-.82-1.47-1.1-2.6-1.29-1.99-.26-2.68-2.05-1.74-.76-1.22-.17-3.57.37-5.03 2.04-3.4.42-6.18-7.55-1.97-2.24-4.58-1.82-4.11.69-3.42.22-1.4.3-.97-.14-1.55-.84-2.58-.93-3.21-.78-1.74-.11-1.5-.44-1.52-.98-2.41-.87-.91-1.52-1.8-.47-1.95.61-1.9-.19-1.7.93-1.82.01-2.53.91-.92.86-.64 1.51-2.7 1.5-1.55 1.01-1.94.64-3.33.71-1.83 1.05-2.5 1.1-1.62.23-5.3 1.86-1.6 1.58-2.27 3.8-.73.55-2.33.57-2.35 1.5-2.18.2-3.62.55h-2.41l-1.99-.65-3.1-1.31-2.25-1.79-2.22-2.87-3.8-3.04-2.5-2.36-3-2.3-1.08-1.19-1.3-2.6-.45-1.55-.43-2.69-.8-2.35-2.16-3.67-1.45-1.7-2.72-2.18-.75-.1-1.88-.92-1.13-.28-3.1-1.48-3.36-1.87-1.69-.5-1.74.09-2.28.88-1.53 1.14-2.14.61-2.29-.17-.05.53-.37-.4-4.4-1.75-2.06-1.15-1.7-1.45-1.45-1.72L239.5 16l-2.55-6.24-2-2.66-2-3.5-.22-.95-.5-2.66 35.7.45 21.48.1L294 .51l13.77.15 19.26.3 6.88-.04 23.25.14 11.31.06 22.78.4z"/>
    <path region="7" short-name="4" long-name="State Senate District 4" value="1" d="m236.78 153.1.61-6.14 25.62 1.16 15.16.5 10.35.28 10.44.2 6.57.02 9.77.16 16.92.68 10.8.35 7.67.16 5.56.03 21.8.77 10.32.23 10.59.12h19.98l5.62-.02-.04-3.09 3.06.32 20.09.15 24.62.73 18.84.33 9.67.14 1.17.11 4.62-.02 10.87.18 4.92.19 13.45.22.1 2.86 3.08.04-.03 3.1 1.5.01-.91 2.38.57.86-6-.18-.81 1.12-1.4 1.27-.6-.83-1.38-.44-1.52.67v.72l-1.03 2.12.5.92-.25 1.7-2.5.48-.64 1.36-.85.56.58.86-1.03.97-.9.23.93 1.05-1.34 1.52.3 1.1 1.72.13-.84 1.28-1.23.52-1.21 1.77-.55-.06-1.23 1.14-.29 1.64-.78.4-.72 1.14-.2 1.08-.95-.12.54 1.62-.26.46-1.74.62-.94 1.72.8.73-1.95 1.68-1.75-1.77-.59-.01-2.83 2.05.32.86-2.65.27-.18 1.76-.4 1.55-2.1 1.68-.56-.96-.64.62-2.14.98-.1-2.52-.67-.01-.58 1.17-1.25.93-.31.27-.05.1.08.28.56.41.7 1.17.64.87.27.65.2.28.92.99.18.99-.34.46-.25.05-.47-.32-.44-.58-.5-.3-.05-.82-.63.1-.84.63-.34.91-.57 1.37.38.77 1.04.88-.05.86-1.41 1.39-1.44-.8-.42.1-.8 1.62.34 1.07-1.66 1.23-1.81.98.36 1.25-.2.97-1.64.22-1.8.5.68 1.12-.9 1.1.02 1.84-.28.44-1.92.19.65.88-.36.78-1.63-.79-.44.64-1.17.56.65.92-.32 1.12-1.28.3-1.17-.48-1.34.26-1.8-.76-.44.93.99 1.95-.38.46-1.2-.6-1.54-1.36-1.25.44-2.12 1.87-.9 1.14.07 1.13-3.05-1.55-1.53.6.51 1.86-.6 1.66-2.38.37-1.34.5-1.26-.64-1.67 1.4-.32.7-.21 1.71 1.1.62.23 2.19-.76 1.72.7.64-2.13 1.3-2.36.06-1-.94-.37 1.59-1.52-.79.48 1.78-.7.23-1.99-.48-.83.27-2.24-.09-.73-1.86-.9-.34-.93.73-.07-4.74-14.91-.24.27-.53-1.82-1.36 3.28-1.57-.63-2.7-1.28-1.93-2.18-1.64-.1-1.86-1.05-1.28.2-1.21-.3-.64-1.82-1.03-2-.16-.88-1.38.15-1.28-1.62-2.75-1.53-1.58-2.25-1.5-2.03.51-1.62-.06-1.34 2.35-.41 1.47-1.04-.23-.52-.82-1.46-.84-5.06-.15h-4.76l-16.77-.26-8.83.05-10.8-.24-3.62.02-13.02-.82-10.93-.36.03 18.44-18.2.11-13.19-.55-8.6-.46-3.28.12-12.3-.21-.05-18.22.02-3.48-6.25-.15.1-6.2-3.15-.11-3-.24-7.2-.16-25.42-.81 1.24-12.24 1.42-12.63.25-3.14.54-3.12.17-3.44z"/>
    <path region="8" short-name="27" long-name="State Senate District 27" value="1" d="m618.24 407.3 1.62-.1 4.47.05-.03-3.1 18.28.08 5.2.09 12.03-.05 4.48-.13 16.5-.28 10.64-.15.04 19.15-.06 6.68-.06 29.17.08 8.3v16.1l2.89-.07v-1.57l1.53-.03v1.57l13.62-.34-.01-1.48 1.56-.02-.03 1.52 8.43.05.12.8 1.6.87.12 2.03 3.3.1-.05 5.36.5 1.66 3.22-.23 2.45-.03-.02 1.47.67 1.58-1.41 2.05-1.59 1.47 1.36 1.56.8-.05v1.22l-.41.84-2.53 1.55v1.03l-.66 1.66.7.07.46 1.53 2.06-.08.36.94.13 2.94-.04 3.53 2.54.6 2.11.68 1.87 1.05 1.26.42 1.07-.07 2.43.5 1.4-.44-.35-1.04 1.92-.46 1.19.02 1.98-.56.99-1.42.63.08 1.52 1.75 1.27-.99 1.43 1.79 1.35 1.26-.2 2.97.42.53-.36.9.86.85 1.67-.6-.94 1.35.48 5.14-1.15.04.18 1.55-.72 1.8.1 1.05.75 1.69 19.63-.28 9.48-.28-.25-6.4 1.33 1.52 1.8 1.04.24 4.72.35.86-.29.97.2 3.38-2.2 1.4-2.64.42-1.8 1.45-2.09.9-.4.78-.33 1.96-1.65.3-.16 1.25.57 3.92 1.69.7 1.04-.08.8.75-.84.64-1.32 2.72-.57 1.9-1.65 1.06-1.03.3-2.78.13-4.56 2.08-.87 1-.98-.01-.55.48-1.6-.18-2.17.34-1.77-1.36-1.08-.06-4.03-.92-2.37-.08-.85-.77-1.85-.27-1.12-.45-3.36-.98-4.1-.3-1.11-.64-2.12-.26-1.05.3-2.65 1.33-.93.04-1.12-.48-2.05-.16-.46-.42-1.9-4.12.3-1.86 1.5-2.37 2.48-3.44-13.59.13-.44-10.81-.35-7.38-8.94.03-13.41-6.61-2.76-.98-2.07-1.39-11.97-5.84-.03-3-6.06.06-.03-2.9-2.98.04.02 2.9-2.05.06-13.07.1.11 9.9.14 8.22-15.66.25-.39-.45-.47-1.89.17-2.1-.17-.54.46-3.4.54-2.07-.03-1.02-.87-4.3.18-1.28-.37-3.2-.53-2.73v-2.42l.47-2.17.73-4.7-.36-.86-1.97-1.77-.86-1.55-.19-1.12-.83-1.02.02-1.37.72-3.12.67-.9.89-.32.74-.9.67-1.58-.55-1.56.06-.67 2.03-2.07.28-1.52-.3-1.34.37-.69h-2.73l.7-2.73-1.15-1.43.36-2.2-.2-1.45.55-1.42.4-3.08 2.01-2.01.27-1.16-.83-1.26-.62-.25-1.38-1.55-.66-1.5-.2-1.39-1.04-1.42.48-2.68.94-1.61.93-.92.28-1.42 1.52-2.8.22-.84.93-.44.82.2.62-.47v-.94l-.75-.81.65-1.13.6-2.31 1.08-.47.05-.75-1.4-1.36.32-.85 1.15-1.29.89.27 1.35-.82-.56-.52-.24-1.2-.83-.78-.9-.17-3.34.05-2.54.93-.65.57v3.35l-1.56-.92-.37-.98-1.03.04-.97-1.12-2.23-1.76.6-1.15-2.73-.12v-.8l-.77-.81-.15-2.27-1.3.28-2.4-.08-.75.41-1.3-.19-1.44.6-1.3-.31-.66.64-.66-.7-.69.34z"/>
    <path region="9" short-name="8" long-name="State Senate District 8" value="1" d="M527.92 3.73h9.62l12.42-.21 15.12.12 27.86.2 15.11.11 35.74.27 6.96.05 22.8.44 15.78.3 1.01 7.07.1 1.47.64 4.46 2.12 13.68 3.82 23.64 1.64 9.33 3.13 17.41 1.24 7.79 1.8 9.84.59 3.94-.97-.45-.83.36-.33.75.5.68-1.84.81-.73 1.35-.66.39-.54 1.25-1.33-.7-1.3.45.2 1.2-.39 1.22-1.18-.07-.69.88-1.01.36.94 2.42-.56.72-1-.12.36 1.3-.12.92-.88.41.57 1.33.21 2.46-.76 1.63-1.18.74.2 1.05-1.99.7.11 1.27-1.09.63-.9 1.4-.6 2.3-.71.15-1.35-.82.08.98.97.92-.78 1.39-.93.69.35 1.1-1.38 1.5-.8.13-1.02-.61-.15 1.04-2.96.5-.84.9.06.69-1.39 1.52.2.84-15.05 15.54-1.64-.54-.37-.72-1.2-.25-.97.42-2.75.47-.51-.78-1.1.78-2.96-.07-.47-1.74.41-.63-1.03-1.63-.8.84-.7-.2-.74 1.22-1.09-.29-1.06 1.77h-1.54l-1.27-1.25-7.85-3.63.46-1.67-.1-.8.9-1 2.23-1.78h1.29l.9-.97.89-1.78 1.47-1.8 1.07-2.48 1.02-1.39-.07-1 1.3-2.31 1.24-1.17.06-1-1.02.42-2.02-.42-1.64-.81-.5-3.14.45-2.1v-1l-.41-.81h-1.1l-.79-.75v-.8l-3.1.03v-1.56h-.77v1.56l-2.74.17.44-1.73h-1.58v-.74l1.55-.03.78-.77-.04-2.3-.78-.76h-1.95l.4-.78-.02-2.34.38-.47-1.9-2.12-.6-.37-2.31-.16-1.87-1.48-.82.37-.67.9-1.75.44-.83.8-2.56 1.45-3.2-.32-.7 1.29-1.56.44-.8-.75-2.6.38-.62-.18-2.16 1.12-.77.87-1.48.47-.86-.44-.38-.9.41-1.56-.2-1.01-1.33-1.27-.71-1.8.36-.54-.3-.96-.8-.5 1.24-1.55-.45-1.64-.77.58-1.03-.37.34-1.3-.97-.6-1.03 1.05-.7-.62-.5-1.26-.69.79-2.69 2.05-.38-.2 1.4-2.64-1.76-.07 1-.14.15-1.47-2.08-1.93 1 .1.17-10.55-15.58-.2h-5.65l-10.18.06-.72-.68.1-1.15.81-.27-4.91-4.17-.92-.76.15-21.06-1.54-.37-2.99.2-.29 1.57-.86 1.99v2.03l-4.22.29-.66-1.52h-1.34v.78h-1.58v-.8l-.78-.78H541V62l-3.13-.02v.77h-2.34v-.79h-1.81l-.08-.6-2.8-.19-.04-.8-2.42-.03-.02 1.57-1.56-.03-.08 2.27-1.23-.65-1.15.14-.04-2.4-2.23-.9-.27-1.13.46-1.06-.36-.54 2-.93 1.65-1.79-.93-.5-.2-.8-1.84-2.2-1.27 1.34-.18.57-1.04.16-1.19-.47 1.6-2.07-1.39.14-1.84-.2 1.6-3.38.3-.28.06-3.21.53-1.52-.47-.66.01-8.17h4.4l.82-.69 1.05-.08.36 2.16 1.93-.37 2.26.54.24 1.8 1.57.93-.09-1.13.02-9.48-3.17-.02-.02-3.15h-1.55l-.03-1.56h-4.7l-.05-6.3 4.15-.1-.84-.5-1.72-1.59-1-1.46-.1-1.23-.48-.83.99-.86.96-1.86-.08-1.23 1.33-.82 1.3-.06.56-1.76z"/>
    <path region="10" short-name="30" long-name="State Senate District 30" value="1" d="m440.53 460.4 12.16-.13 13 .3-.01-2.43 1.32-.61 3.07 1.02.63-.69 1.85.41-.34 1.16.78.37 1.22-.1 1.75.77.17 2.14.34 1.62-.32.68-.03 1.7-.41.9-1.14 1.29v.54l-.95 1.1 1.41-.11.99.68 1.2-.5 2.1-1.89 1.6-.75 1.03.55 1.94-.5 1.54-1.45.65.06.89-.8.88-1.97 1.62-.29 1.7-.55.99-.65 2.34-.66.87.14 4.01-.23 3.43-.62 1.1-.44 3.86-.5 2.03-.74.29.6 1.01-.61 2.54-.24 2.05.08 2.1-.68 2.41.37.6-.5.01-1.54-.63-1.02-.93-.85-.05-.63.89-1.65.08-1.7-.78-1.57.18-.62 1.18-.2.59-.63.95-.29.9.77.05-1.26 1.16.47.52 2.32 1.52.7.9-1.19.51 1.95.75-.66.58.93 1.29.24 1.07.56 1.33-.14 1.45.57 1.74 1.7.82.16 1.03-.98-1.62-.32-.67-.42-.44-.94-.24-1.42-1.07-2.5-.33-2.05-1.4-1.26-.97-.14-1.36-2.1-.74-1.47.32-1.3-.36-1.6.17-2.21-.53-3.51 1.05-1.34.29-1.79-.33-.92-1.4-2.17-.33-.9.87-3.4.16-4.54-.42-.83-.22-2.27 2.13-1.55.34-.7-.8-2.12-.27-1.7.54-1.05 2.74-1.73.43-.8 16.25-.18 3 .17 11.67-.16 11.3-.11.35.05 13.15-.07 8.84-.06h20.2l.03 3.03.14 19.4.69-.33.66.7.66-.64 1.3.32 1.44-.6 1.3.18.76-.4 2.4.07 1.29-.28.15 2.27.77.8v.8l2.72.13-.6 1.15 2.24 1.76.97 1.12 1.03-.04.37.98 1.56.92v-3.35l.66-.57 2.53-.93 3.34-.05.9.17.83.78.24 1.2.56.52-1.35.82-.89-.27-1.15 1.3-.32.84 1.4 1.36-.05.75-1.08.47-.6 2.3-.65 1.14.75.81v.94l-.62.47-.82-.2-.93.44-.22.83-1.52 2.81-.28 1.42-.93.92-.94 1.61-.48 2.68 1.05 1.42.19 1.38.66 1.51 1.38 1.55.62.25.83 1.26-.27 1.16-2 2.01-.4 3.08-.55 1.42.19 1.46-.36 2.2 1.15 1.42-.7 2.72-10.47-.05-.12-3-3.03-.01.11 2.99h-15.63l-13.24.13-10.86.06-1.59.1-4.33.01-15.46-.04.05-2.96-3.08-.06-.01 3-6.73.04.68.62h-7.43l.1 23.99 1.93.7 1-.07 1.7 1.28 1.04 1.21 1.2.32-.01.8 1.09 1.29 1.93-.26-.01 2.8 1.79 2.51 1.44 1.47 1.08-.13 1.66.59 1.01-.58 1.65-.52.27-.56 2.46.02.93.63.82-.17 1.14 1.03.61 1.07.5 1.63.25 2.73-.27 2.38-.95 2.17-1.1 1.4.71.58-.19 1.47.53.55 1.59.73.57 1.04-.4 1.96.82.43-.26.68-1.55.56-1.28-.46-.99 1.3-.76.6-.39.9-1.38-.87-1.28-2.5-1.39-.04v1.14l.8 1.33.18 1.85-.5 1.77-.95 2.11-1.18.73-.28 1.2 1.3.72.89 1.4.9 2.27-.4 1.25-1.25.17-.38-1.3-2.56-1.44-.92-.85-1.14-.6-1.6-.05-.73.47-2.65.02-1.8.62-2.4.06-.54.69.67 1.65-.34.67-2.35.6-2.44 1.56-3.46.54-1.46-1.03-1-.2-.45.48.37 1.6-.6 1.55.01 2.13-1.12 1.02-1.38 1.83-1.7-.51-.97.53-.15.57.5 1.86-.17 1.23-1.04.49-4.1.85-2.19.32-.82-.51-.36-.82-.58-3.82-.94-1.2-1.95.05-2.04-1.24-.85-.23-1.14.23-1.13 1.51-.4 1.17-.84.16-3.43-2.69-.32-1.17.61-2.93-.1-1.2-.75-1.25-.85-.2-1.03.81-2.94.1-1.07.62-.43.64-.33 1.58.35 1.67-.31.94-4.09 4.33-1.3.34-1.9-.8-2.52-.66-1.35-2.36-.17-3.98.38-1-.01-1.43-.54-.41-1.1.06-.86 1.14-1.77 1.52-1.38.55-2.39-.33-1.97-.93-1.16.56-.16.75.18 1.96-.17 1.91.3.35 1.3 5.8-3.16 5.45-1.27 1.24-2.2.22-.94-.5-.73-1.05-.11-3.8.21-.73 1.84-1.82.33-1.84-1.41-3.43-2.08-1.66-1.13-2.26-1.18-1.23-.6-1.02-.42-1.94.12-1.18 1.6-.99 1.46-.12.61-.51-.66-1.05-2.32-.74-1.47-1.37-2.54-.23-.33-.9 1.1-1.43-.85-1.66-.73.1-.4-1.23.17-1.04-1.2-1.15-.12-.85-1.05-.55.79-1.37-.61-.51-.32-1.29-1.09-1.88.04-1.55-.73-.43-.03-1.25-1.56-2.13.23-1.1-.77-.13.34-3.46.91-.71.23-2.24-.53-1.57.46-.46-.88-1.25.01-1.92-.45-1.02-.1-1.47-.5-.76-.05-2.08-.51-1.45.34-.84-.89-2.38-.5-.8.99-.73-.88-.74-.53-1.02.63-1.66-.84-.02-16.77.2V478.6z"/>
    <path region="11" short-name="11" long-name="State Senate District 11" value="1" d="m495.36 370.98.99-.7-.06-1.19 1.09-.7 1.12-1.35.97-.61 2.63.25.95.53 1.16-.88.9.72 2.67 1.44.96.76 1.8.82.15-.7 2.46.35.99-1.77.56-.18.97 1.02 1.25-.21.13-2.07 1.2-.7 1.04-1.46 1.17 1 2.01.64.1-.87.8-.19.93.56 1.73.55.55-.99 2.34 2.43 2.12-.94 1.48-1.71.7-.4-.9-2.16 2.19-.59 1.2-1.19.27 2.13.43.86.62.21.64 1.25 1.33 1.94.9.55-1.42 1.12.17 1.57 1.05.06.9 2.16.52.51-.57.84-1.18.58 1.71.43.12.58 1.38.35 1.16-.72.72-1.22.72-2.2-.5-1.3-1.2-1.84.1-1.5.86-.02 1.2 1.21 2.02.85 1.02.04 1.96-.56 2.52-2.24 3.19-1.34.58-1.29-.82-2.56-.72-1.05-.18-1 .55-1.52-.64-1.83.2-1.66.8-.57 2.1-.05.94-.28.65-.7-.05-.77-2-3.6-1.24-.98-2.4-1.22-.86-.88.05-6.56v-17.74l-11.13.03-7.13-.05.07-9.2-6.2.02v-1.55l-4.62-.13v-1.52l-1.57.03.09-9.38.02-3.07 1.5.03v-3.07h1.6v1.56l1.99-.03 1.03-1.44h1.62v-.7l-2.47-.03v-.75l.97.05.53-.9-.12-1.97.55-1.11-.32-1.47-.77.02-.43-.84-1.11.02.05-10.78h-1.55l.02-3-1.56-.05-.02-6.25-6.16-.03.04-7.76 9.81.02 1.6-1.84.72-.15.63.56 1.2-.87 2.08-.13 1.07-.38 1.75-1.2 4.18-.79 1.44.94 1.44.13.33-.71 3.94-2.76.43-.77.88-.52 1.24-1.57v-.7l1.85-1.3v1.85l.33 1.44-.02 1.48-1.06 1.79-.09.8.53.69-.26.73 2.25 3.54-2.74 2.32-1.75.94.07.77 1.5 1.6 1.3-.5h.8l.71-.59.76 1.04-1.08.53-.3 1.56-.52.8 1.28.23.84 1.57-.93.73-.46 1.12-.32 1.8 2.58.74.78 1.02-.63.43-1.63 2.15.05 2.75 1.89-.65-.17.7 1.58.9 1.63-2.26.54-1.62 2.63-3.21.44-.8 1.36-.54 4.63-2.6.31-.64 1.73-.4-.7 1.6-.9 1.42-.51 1.54.23.85-.55 1.29.25 1.5.72 1.6.11 1.26.51 1.35-.27 1.02.32 1.33 1.67-1.82 1.32-.03.3-.96 1.57.64-.18.94 1.79-.19.5-1.17.94-1.17.62-1.63 1.68-.16 2.16-1.45 1.15-.26.53-.53 2.38-.53.04-.42 1.29-1.61 1.4.6 1.51-1.34-.09 1.16-.83 1.93v1.91l-2.42 1.07 1.05 1.58.62 2.28.2 2.18.3.64 1.1.74 1.37.25.6-.27 1.08-1.3 16.7.95.6 1.14.27 1.32 1.68 1.38.52.9 1.3 1.24-.08 3.04 1.05 4.22-.23 2.28 4.58.05-.12.77.23 2.28 8.19.14v2.82l-1.7 1.76-1.7.14-.05.63-1.23.59-.51 1.21-.85-.51-1.11.31-.35.72.34 1.44-.44.16-.98-.84-.24-.66-1.17-.54-.99 2.85.72 1.3-.05 1.67-.83 1.2-.72 1.69-2.68-1.24-.7-1.67-1.33-.93.2 2.06-.26 1.63.55.95.37 3.14-.43 1.36-1.03 1.1-.25 1.91-.98 2.68v3.49l-.13 2.05.05 5.72-1.5-.01v.93l-2.08.86-5.57-.04.01-.5h-1.67l-.03 1.6-1.18-.01-1.56-.94.77-.84-.79-1.16-1.73-.07-2-1.74-1.8.07-.63 2.77h-.84l.16.95-.35.68.7.71-.82.96-.95-.14-1.27.87-.64.03-1.53 3.06-1.06 1.37-.7.49-.07.8-1.2.28-.19-.57-1.18-1.2-.8-.08-1.4.41-1.59 1.05-1.6.67-.84.73-1.18.48-1-.54-1.6.25-.45.4-1.4-.11-.95 1.58-.83.14.78 2.23.62 2.63-.06 3.08 1.1 1.48 3.04 2.57 1.86 2.28-1.9.42 1.03 4.23-.67 1.37-.66 3.24-.5.63-.4 1.74-1.04 1.72 1.65.95.15.57-.52 1.55-1.62 1.22 1.66 2.55 1.82.75-2.17 1.34-2.6-.02-1.3-.87-1.82.1.44 1.13-1 .62-.67-.3-1.39-.02-.84-.6-4.4-.23v.28l-2.71 1.03-3.55.2-3.62.32-.86-.82-.22-1.93-.39-.53-5.4-.07-1.36.3-1.85 1.27-3.1.67.26 1.14-.03 1.58.85 1.35 2 1.16.87 1.12.34 1.24-1.09 1.29-2.5.76-1.4 1.44-.49 1.16-.43.8-2.74 1.73-.53 1.06.25 1.69.81 2.11-.34.7-2.12 1.56.21 2.27.42.83-.16 4.55-.99-.54-2.44-.27-2.4 1.18-2.25-.16-.74-1.65-2.29-1.5-.86-1.3-2.27-1.15-.52-1.5-.49-.36-1.9.33-.64-1.1.63-1.15 1.02-.46-.18-.75-12.26.11-16.18.07-5.38.06-.45-1-.75-.46-1.06-.04-.4-.52.15-2.23.34-.72 1.4-.13-.75-.97-.39-1.2.51-1.3.07-1 .46-.84 1.34-.94 2.8 1.57 1.18-.74 1.53-.5.44-.74 1.15.03v-.76l1.23.15.6-3.82-.3-1.71.27-.7 1.7.32-.2.72 1.34 1.2 1.18-.45 1.6 1.04 1.87.19 1-.62.84-1.5-1.16-2.32-.63-.17 4.45-1.84-1.32-.96.12-1.01-.63-1.6.3-.98-.24-.71-1.12-.08.54-1.53-.29-.44-.25-1.94-.92-1.66-1.16-.05-.8.37.07-1.64.87-.86-.24-1.45-.8-1.12.5-.9v-1.37z"/>
    <path region="12" short-name="12" long-name="State Senate District 12" value="1" d="m594.24 283.21.26-2.2-.38-2.68.45-1.47 1.1-1.31.78.01.6.66 1 .3.82-.55.08-1.47.39-.74 3.06-2.67 2.4-.9.7-.49.95-1.5.99-1.1 1.4-.98 1.6-.56 1.08.12.6-.34-.16-1.76-.67-1.44-1.7-2.12-1.06-1.92-.1-2.36.63-1.1 1.4-1.5.3-1.25-.76-1.3-1.74-.98.1-.92 2.86.13.05-2.35 4.84.25-.04-3.09 4.63.26.04-3.12 1.3.08.2-.44v-2.63l3.04.17v-4.6l3.06.21v-1.55l3.04-.02.04 3.1h6.1l-.01-7.76 3.13-.02.02-1.53 6.22.06.04-1.54 2.27.9 3.84 1.25 10.82 2.07 1.58.44.35-7.03 29.2 2.1 7.67.54-.12 3.1-.42 11.07-12.2-.12-.01 3.15-6.18-.23-.02 6.24 9.14.13-.14 9.28-3.06-.05-.02 3.08-3.06-.04-.06 3.06-2.96.04-.1 26.42-1.48-.07-.03 1.53-.72.75-.75-.04-.05 2.32-6.13-.13.13 3.14-6.16-.13.07 2.98-3.12-.12-.01 2.84-.31 6.44-9.14-.03-.14 3.03-9.25 8.81-.26.3h-9.5l-.08 9.28-3.08.02-.16 12.31-3.02.03-.06 3.02-3.24.06-2.97-.09-.03 2.8-.63 15.67-6.7-.04-17.57-.41-.21 9.72-.2 11.7-.78-.08-8.42-.17-.27 19.19-13.15.07-.35-.05-11.3.1-11.66.17-3.01-.17-16.25.18.49-1.16 1.4-1.44 2.5-.76 1.09-1.3-.34-1.23-.87-1.12-2-1.16-.85-1.35.03-1.58-.26-1.14 3.1-.67 1.85-1.26 1.36-.3 5.4.06.39.53.22 1.93.86.82 3.62-.33 3.55-.2 2.72-1.02v-.28l4.39.23.84.6 1.4.02.67.3.99-.62-.44-1.13 1.81-.1 1.3.87 2.6.02 2.18-1.34-1.83-.75-1.65-2.55 1.62-1.22.52-1.55-.15-.57-1.65-.95 1.04-1.73.4-1.74.5-.62.66-3.24.67-1.37-1.03-4.23 1.9-.42-1.86-2.28-3.04-2.57-1.1-1.48.06-3.08-.62-2.63-.78-2.24.83-.13.96-1.59 1.4.12.45-.4 1.59-.25 1 .54 1.18-.49.84-.72 1.6-.67 1.6-1.05 1.4-.42.79.1 1.18 1.2.2.56 1.2-.28.06-.8.7-.5 1.06-1.36 1.53-3.06.64-.03 1.26-.87.96.14.83-.96-.71-.71.35-.68-.16-.95h.84l.64-2.77 1.78-.08 2 1.75 1.74.07.8 1.16-.78.84 1.56.94 1.17.01.04-1.6h1.67v.5l5.56.04 2.08-.86v-.93l1.5.01-.05-5.72.13-2.06v-3.48l.98-2.68.25-1.91 1.03-1.1.43-1.36-.37-3.14-.55-.95.26-1.63-.2-2.06 1.32.93.71 1.66 2.68 1.25.72-1.69.83-1.2.05-1.67-.72-1.3.98-2.86 1.18.54.24.67.98.84.43-.16-.33-1.44.35-.72 1.1-.31.86.51.5-1.21 1.24-.59.05-.63 1.7-.14 1.7-1.76v-2.82l-8.19-.14-.23-2.28.12-.77-4.58-.06.23-2.27-1.05-4.22.08-3.04-1.3-1.25-.52-.89-1.68-1.38-.27-1.32-.6-1.14z"/>
    <path region="13" short-name="15" long-name="State Senate District 15" value="1" d="m481.33 326.38.07-2.01 2.22.12v-2.21l-.3-.45 1-.83.04-.5 2.15-1.21 3.68-2.77 1.04-.05 3.78-1.9h.85l-.28.55-3.48 2.77 2.27.07.7-.75 2.1.08 2.9-2.88 1.21-.4.6 1.06.71.33.94 1.14.87.4.65 1.07v.81l1.19-.06-.13-1.38 1.19-1.26.54-.94 1.28-.64-.19-.67.41-1.18.8-.8.31-1.06v-1.53l2.3.22v-2.25l-.5-.8-1 1.13-.8-1.1-1.42-.15-1.5.16-.35-2.1-1.52-3.2 1.37-1.3 2.73-2.2 1.09-1.17 1.22-.48.38.98-.56.72.02 1.16.83.63.87-.72 1.11.07.6.95 1.3-1.07 1.22-.1.88-.84.63.51 1.38.35.13.97 1.96-.9-.1 9.4 1.57-.04.01 1.52 4.63.13v1.55l6.2-.01-.08 9.19 7.13.05 11.12-.03v17.74l-.04 6.56.87.88 2.4 1.22 1.24.99 2 3.59.04.77-.65.7-.93.28-2.11.06-.8.56-.2 1.66.64 1.83-.55 1.51.18 1.02.72 1.04.82 2.56-.58 1.3-3.18 1.33-2.53 2.24-1.96.56-1.02-.04-2.02-.85-1.2-1.21-.87.02-.1 1.5 1.22 1.85.5 1.3-.73 2.2-.72 1.2-1.16.73-1.38-.35-.12-.58-1.71-.43 1.18-.57.57-.85-.53-.5-.89-2.17-1.05-.06-.17-1.57 1.41-1.12-.89-.55-1.33-1.94-.64-1.25-.62-.2-.43-.87-.27-2.13-1.2 1.2-2.2.58.91 2.15-.7.41-1.48 1.71-2.12.94-2.34-2.43-.55.99-1.73-.55-.93-.56-.8.2-.1.86-2.01-.65-1.17-.99-1.04 1.46-1.2.7-.13 2.07-1.25.21-.97-1.02-.56.18-.99 1.77-2.46-.36-.14.7-1.8-.81-.97-.75-2.67-1.44-.9-.73-1.16.88-.95-.52-2.63-.26-.97.61-1.12 1.36-1.1.7.07 1.18-.99.7-1.08.02-.99 1.12-1.24.4-.12-.72-1.69-.12-1.94.38-1.9 1.14-2.45-.27-.9.71-.31 1.58-1.45-.06-.3-.5.36-1.07.72-.4-.47-1.53-1.26.07-.21-.58 2.17-2.97-2-.15-1.23-.67.25-2.21 1.08-2.58-.7-.05-1.51-.84.79-1.53-1.56-2.14.43-.94-.98-.44 1.66-2.39 2.05-.99 2.08-1.44-.17 1.9.18 2.54-.58 1.25.01 2.6.76-.2-.03 2.26 1.53.05-.02.76-.74.75 3.77.15.08-1.6.72.03-.02-1.54 1.5.06.07-.68 1.44.03 2.36-2.23.01-.78 1.37.06-.01-.77.95.01v-1.54l.8-.73 1.52.03v-4.56l.76-.77.76-.01v-1.54l.76-.02-.01-1.56.8-.8-3.06.09-1.14 1.5-.6-.26 1.5-2.06-1.86-.16-.52-.94 1.15-1.2 1.13 1.08 2.02-3.37.07-1.43-1.04.1-1.23-.44.97-1.5.03-1.1-1.7-.97-.33 1.37-3.06-.03-.02 3.05-6.5-.22 2.68-3.48-.6-.95-1.72-1.64-.49-.76-1.08-.03-.19-1.32 1.03-1.3-.15-1.2-2.24.05.06-.88-1.32.75z"/>
    <path region="14" short-name="19" long-name="State Senate District 19" value="1" d="M412.27 357.3h.53l2.63-2.14 1-.41.63.47 1.4-1.89.22-1.04-.55-1.59.19-.9-1.25-2.31.18-3.29-.54-1.86-1.88-.44-.24-.52.73-.88 1.26-.53.42-.58-.7-2.4 1.84-.36.59-.36 1.09.16 1.79-2.84.92-.45.18-.6-.44-1.4 1.17-1.05.63.12.7-1.7 1.24-.94-.82-.3.64-1.99-.44-.34.66-1.09-1.54-.97-.29-1.37.3-.58 2.03-1.94.19-1.71.74-1.14.63-.1.71-.82 1.62-.7 2.65 1.65.05-3.33.68-.94 1.14-.78.37.5.02 1.58h1l.81-.63.02 1.59.95-.62v-.99l.9.01 1-.68-.01-2-1.96-.3 2.35-1.93 1.51-2.2-1.12-.24-.49-1.55-1.35-1.29.77-3.52 1.7.69.58-1.03.97-.27-.3-1.4-1.46.5-.45.78-.86-3.13.83-.55H443l-.03-3.28-1.2-1.37.8-.65.02-1.04 6 .07.48-2.48-.34-2.29-.94-2.34-1.76-1.6.53-1.48 1.68-.75 1.71.63.11-1.43 1.33.8.66-.65.26.54.04 3.5 1.55.06.02 1.1-1.26.38-.25.88.06 1.78.27.66 1.03.32 2.07 1.53.04 1.54 4.53.62.07-.58-.83-1.77-.26-2.38 1 .28 1.11 2.34.1.76 3.67-.46 1.6 1.98-.07 1.31.7.82-1.39.59-.9-.01-.06.82.81.42 1.63-.21-2.23.8-1.03.75-.41 1.35-.87.06-1.17 1.04-.33 3.05-.75-.02-.02 1.67-.37.22-1.97-.04-.62.73 1.13 1.58-1.2.37-.1 1.92-.7.9v3.08l.18.84 1 .08.45 1.44 1.3.2.57.48 1.54.57.52.9-1.34 2.34 1.59 1.04-.52 1.18.63.49 1.07-.7-.23 1.46.05 2.2-1.67 2.12-.74-.02.06 5.91 2.36.32.02 1.5-.79.9-1.57.83-1.42 1.01-2.47 2.65-.71 1.38-.77.83.03 2.3 1.16.01 1.16.77.05 1.56 10.6.28v1.44l-1.51.08-1.8 4.6-1.8-.19-.1 1.4-.97.76-1.37-.23-1.62 2.82-.56.47 1.42 1.16.36 1.21 1.1.54-.68.23-.06 1.54-1.13.01-.35.8-1.55.03-.1.74-.72.79h-.74v3.86h-1.48l-.02.77-2.31.01v1.55l-3.83-.08-.01 1.54-.78.01-1.53 1.5-.02 1.47-14.58-.2v-6.1l-1.56-.02v-.77h-2.28l.01-2.31-6.9-.04-.07-3.19-6.14-.12-.03-3.04-3.07-.02z"/>
    <path region="15" short-name="23" long-name="State Senate District 23" value="1" d="m369.79 452.55 17.9-.13.05 9.14 12.25-.04 2.86-.11 1.7-.61 9.08-.14 2.94.1 23.96-.36.26 18.2v18.16l16.77-.21.84.02-.63 1.66.53 1.02.88.74-1 .73.51.8.9 2.38-.35.84.5 1.45.06 2.08.5.76.1 1.47.45 1.02-.01 1.92.88 1.24-.46.47.53 1.57-.23 2.24-.9.7-.35 3.47.77.12-.24 1.11 1.57 2.13.03 1.25.73.43-.04 1.55 1.1 1.88.3 1.28.62.52-.8 1.37 1.06.55.12.85 1.2 1.15-.17 1.04.4 1.23.73-.1.85 1.66-1.1 1.43.33.9 2.54.23 1.47 1.36 2.32.75.66 1.05-.61.5-1.47.13-1.59.99-.12 1.18.42 1.94.6 1.01 1.18 1.24 1.12 2.25 2.09 1.67 1.41 3.43-.33 1.84-1.84 1.82-.21.74.11 3.8.73 1.04.94.5 2.2-.22 1.27-1.24 3.15-5.44-1.28-5.8-.31-.36.17-1.91-.18-1.96.16-.76 1.16-.55 1.97.93 2.39.33 1.38-.55 1.77-1.52.86-1.14 1.1-.06.53.41.02 1.42-.38 1.01.17 3.98 1.35 2.35 2.53.67 1.9.8 1.3-.34 4.08-4.33.3-.95-.34-1.66.33-1.58.43-.64 1.07-.62 2.94-.1 1.03-.8.85.19.75 1.25.1 1.2-.6 2.93.3 1.17 3.44 2.7.84-.17.4-1.17 1.13-1.51 1.14-.23.85.23 2.04 1.24 1.95-.04.94 1.2.58 3.8.36.83.82.51 2.2-.32 4.1-.85.34 1.24 1.03-.81.2.78.9-.36-.22 1.5.92.41.84 1.2-.75.98-.35 1.16-.85.54.06 1.3-.87 2.7.8 2.41.04 1.11 1.17.22.16.53 1.18.58 2.12-.85 1.79 1.24-.07.94 1.32.33 1.75 1.15.71-.13.89.71-.14 1.14 1.47.27 1.04.55.08 7.14.08 12.97.2 10.46-.01 6.57.1 4.52 1.7-.03.03 1.45-1.7.03.18 15.16-1.62-.22-5.98.04.09 2.47.03 16.08.16 5.95.7.74h.75v1.52l-.69.8h-.73l.03 11.9h.76l-.07 3.08-.69-.02.05 12.05-.42 3.33-.05 6.08-8.95.08.05 17.93-.83-.05.03 3.03.78.02.02 5.9-4.83.2-26.24.15-4.53-.06.06 18.02 4.64.01.36.68-.3.8.66 1.44.95.75-.65 1 .35 1.23.88 1.06-.66.69v1.52l-1.69.54.05.88.83.56.5 1.83.02.95-1.2 1.32-.91.19.13.83-.85 1-.58-.01-.52.83-1.7.15-.59.56.65.99-.45.63.1 4.5.14 25.4-1.12-.54-.18.94-2.24-.2.63 1-.73.6-1.58-.44-.95.04-.6-1.9-1.4.41-1.75-.1-.72 1.14-.48 1.34-.61-.34.75-.87.09-1-.63-.16-.3-.82-.89-1.16 1.27-.98-1.28-.75 1.59-2.1-.98-1.85.05-1.53-.66-1.09.06-1.66.91-.66.55-1.53-14.43-.14-13.46.04-13.64.16-6.42-.06-13.05.08-20.27.06-24.54.05-.05-.04-21.75.1-.62.98-2.64 1.36-1.97.37-.72-.2-1.22 1.1-.67.22-.4.86-2.2 1.44-1.84.6-3.79-1.3-.13-.5-2.05-.83-1.14-.06-.62-.49-1.02.37-1.26-.7-1.68.21-2.7-.19-.9-.94-1.57-.15-1.35-.69-.74-.99-1.71-.86-2.05-2.77-.45-1.54-2.03-.56-.56-1.82-1.24-1.37-1.56-.32-.58.48-1.04-.43-2.45.15-.76.94-2.9-.04-1.13.75-1.47-.83-1.5.07-1.26-1.1-.43-1.09-.15-1.69-.67-.53-.77.22-.47 1.5.15.79 1.08 1.08 1.28 1.86.19.93 1.53 1 .33 1.07-1.84 1.44-1.26.2-2.94-1.82-1.04-.13-.74.82-.38 2.13-.57 1.2-1.33.65-1.4-.83-.71.83.42.55.87-.4 1.56 1.64-1.33 1.63.1.66 1.43 1.05.05.5-1 .66-1.28-1.94-.76-.44-1.25.32-.65.89.02 1.02 1 2 1.43 1 .05 1.12-.7.55-1.13-.25-1.73-2.29-1.08.74.45 1.57-.1.63-.93.72-1.83-1.3-1.7 1.43-1.23-.37-1.3 2.43-.81.35-1.3-.1-1.4-.8-1.22.05-1.07-.65-.62-1.63.3-1.23 1.36-.94.36-1.85 1.29-.86.06-.52-.85-.9-1.45-2.64-.6-.47-1.75-.25-1.05-.49-1.03-1.68-.89-.26-1.12.78-.77.1-.21-.91 2.08-2.2 1.42-.2 1.17.74.8.02.37-.86-.77-1.6.27-1.02.72-.34.8-1-.05-1.06-.58-.65-1.57-.81-.7-1.06-.02-1.12.74-.46 3.53.4.64.74.96.3 1.04-.76-.03-1.62.51-1.34-.25-1.5.26-1.02.52-.26 1.11.54.42.84-1.01 1.03-.02 1.03 1.39.2.38-.7-.04-1 .44-1.06 1.18-1.27-.02-1.31.6-1.49.77-.91.07-.7-.7-1.7.83-2.5-1.74.69-1-1.5-1.24-.53-1.39.27-.43 1.08.67 1.58-.34.26-1.04-.87-.88.05-1.73.88-1.05-.58 1.23-.68.86-.91.07-1.3 1.04-.94 2.76.42 1.23-.77v-1.05l-.4-.56-1.78-.46-.7.65h-.94l-.19-.56 1.13-1.71 1.81-1.31v-.39l-1.9-2.5-1.59-.04-.77-.92.78-.77 1.7-.23 1.02-.77.02-.58-.66-3 .14-.64.9-1.27 1.24-3.17-.22-.56-3-1.77-.8-1.9-.91-1.5-1.6-1.55-4.77-.73-.84-.45-.7-1.07-2.73-.86-2.98-1.84-1.24-.28-2.23-1.68-1.55-2.43 1.32-.48 1.62.76.85-.22.14-.94-.76-1.11-.99-.49-1.68.17-2.5-.01-1.54-.8-2.12-1.48-1.32-1.65-.04-.67.84-1.31.17-.89-1.22-1.81-.5-1.07-.45-1.87-.11-1.98-.7-1.67.31-.35 1.47-.29.39-.5.02-1.68-.33-1.48-1.12-1.72-.23-2.72-.72-3.24-.18-4.66-2.03-4.82-1.25-.36-1.76.37-1.92 1.54-.95.44-.75-.27-2.81-2.83-.8-1.54-.38-3.18-1.6-2.89-1.06-2.4-.02-1.16 1.4-.98 1.87-3.3.5-2.38.87-1 1.48-.6.66-.9.28-1.37 1-2.76.93-4.28 1.06-.43 1.78.07 1.4-.63 1.13.1 1.8-.32.8-.57 1.25-1.72 1.58-.3 1.5.61.75-.65-.1-1.02-1.1-1.21-1-.56-3.58 3.1-.53-.26-.95-1.92-1.02-1.56-.7-.46-1.92.6-.95-1.73.21-.54 4.35-3.06 1.27.27.63.52.88 1.52.46.07 1.32-1.06.15-.62-.9-1.77-.16-1.1.3-.73 1.39-.86-1.26-1.46 4.18.06h9.64l22.48-.14 8.86.01 10.31.06 15.92-.23-.03-2.24 7.95-.7-.22-26.33 17.93-.1-.23-25.37.79-1.4.86-.92 2.26-.43 2.35-.02.96.42 1.04-.33.75.58-.15-8.89-9.01.07-.25-15.09.23-2.1-.02-19.22-.04-4.52-.11-24.09.03-7.65 9.02-.04.02-15.12.28-3.19-.07-15.38.08-2.86 8.93-.05z"/>
    <path region="16" short-name="5" long-name="State Senate District 5" value="1" d="m230.42 213.02 1.06-10.17 25.42.8 7.2.17 3 .24 3.14.11-.08 6.2 6.24.15-.02 3.48.05 18.22 12.3.21 3.28-.12 8.6.45 13.2.56 18.2-.1-.04-18.45 10.93.36 13.02.82 3.63-.02 10.8.24 8.82-.05 16.77.25h4.76l5.06.16 1.46.84.52.81 1.04.24.41-1.47 1.35-2.35 1.61.06 2.03-.51 2.25 1.5 1.53 1.58 1.62 2.75-.15 1.28.88 1.38 2 .16 1.81 1.03.3.64-.19 1.2 1.05 1.3.1 1.85 2.18 1.64 1.28 1.92.63 2.7-3.28 1.58 1.82 1.36-.27.52 14.91.25.07 4.73.92-.72.91.34.73 1.86 2.24.1.83-.28 2 .48.07 2.83h1.52l.12 3.1-.02 6.24-.35.41 1.1 2.28.09 1.8.97.53 1.44 1.53-.17 1.38 1.4 1.33.4 1.85.73 1.02.65-.15-.18 1.52-.85.2-3.2-.44-.05 2.15-.77.17-.51-1.18-.64-.09-.37 1-1.42 1.66.38.75 1.3.87.08.52-.67.64-1.33-.79-.1 1.43-1.72-.63-1.67.75-.53 1.48 1.75 1.6.94 2.34.34 2.29-.47 2.47-6-.06-.04 1.04-.8.65 1.21 1.37.03 3.28h-2.27l-.83.55.86 3.13.45-.78 1.46-.5.3 1.4-.97.27-.58 1.03-1.7-.7-.77 3.53 1.35 1.28.5 1.56 1.11.24-1.51 2.2-2.35 1.93 1.96.3v2l-1 .68h-.89v.98l-.95.61-.02-1.58-.8.63h-1l-.03-1.59-.37-.49-1.14.78-.68.94-.05 3.33-2.65-1.66-1.62.71-.7.82-.64.1-.74 1.14-.19 1.71-2.03 1.94-.3.58.29 1.37 1.54.97-.66 1.1.44.33-.64 2 .82.3-1.24.92-.7 1.71-.63-.12-1.17 1.05.44 1.4-.18.6-.92.45-1.8 2.84-1.08-.16-.6.36-1.82.37.7 2.39-.43.58-1.26.53-.73.88.24.52 1.88.44.54 1.86-.18 3.29 1.25 2.3-.2.91.56 1.6-.21 1.03-1.41 1.89-.63-.47-1 .4-2.63 2.14h-.53l-.04-3.15-2.61-.01-.75.53-1.27-1.55-.97.75-1.73.82-1.41.96h-.78l-.46.78-.9.02-.7 1.12-2.1.6-1.62 1.46-1.6.29-1.39 1.6-1.94.61-3.56-1.76-.72.1-2.7-.42-1.81.88h-1.1l-1.12-.41-.86-.8-2.67-.76-.99.14-1.36 1.02-.68 1.74.5 1.92-.14 1.7-.58.63-2.64.47-1.96 1.1-.17.76.33 1.16-.11 1.56-.74 1.21-1.09.63-1.52-.26-1.74.2-.96-1.23-.8.3-.25-1.37-1.51-.26-.6-.54-1.73-2.55.4-1.5-1.01-.59-1.62-1.56-.1-1.2-.46-1.28-.07-2.7-3.65 2.07.24 1.24-.22 1.48.92 1.24-1.34 1.76-1.25.8-1.57 1.94-.95.36-1.07-1.1-.16-.87-.74-.4-1.33-1.31-1.17-.29.38-1.55-.11-.84-3.6-.36-.75-.41-1.34-.06.59 2.57-.07 1.07 1.29.26.67.59-.53 1.54.33 2.48-1.23 1.07-1.9.16.58-1.4-1.9-.84-.47 1-1.18-1.27-.74-.31-.44.83.06 1.47-.6-.04-1.16-1.73-.84 1.16-.11 1.37 1.01 2.3-.36 1.32.39 1.3-2.73-.56-3.02-1.61-6.67-4.04-1.4-.62-1.82-.47-2.79-.4-6.19-1.68-10.48-1.13-.05-9.32.02-8.84-.1-15.1-.33-14.67v-2.8l-3.15-.11-15.48.26-9.64-.5-8.66-.21-5.5-.31-28.94-.87-.66-.1-4.33-.1.9-8.21 2.32-23.07.72-7.94 1.43-13.14.2-2.96.52-3.22.8-7.7 1.6-13.92z"/>
    <path region="17" short-name="25" long-name="State Senate District 25" value="1" d="m548 591.26 3.26-3.6.78.6 1.95-.4 1.61 2.16 1.07.14.87.92.92.01.03-3.37.73-2.82 3.57 4.07 1.02.4 3.12-.1-.06 1.73-1.4 3.05-.18 1.71.23 2.36.11 3.28 6.51-.08 1.52.39.74.62 2.78 1.23 1.15.11 1.04-.3 1.87-1.18.79-.92-.28-2.22-.61-.3.1-1.33-.66-.57.52-1.12 1.21-.24.42.94.94-.02.15.62 1.25-.03 1.9 1.29 1.72.77.45 1-.05 1.85 1.41-.31.74.3.88-.48.36-1.05 2.38-2.57.6 1.26-.32 1.49.31.85.05 1.64 2.64-.41 1.19.38.85-.16-.95-2.9-.11-11.54-.62-1.47-2.16-2.5-2.76-2.25-3.02-2.93-3.42-3.89-.83-1.16 2.66-.61.1-1.84-1.89.42-1.72.17-1.27-.9.3-1.57-.96-2.23.06-1.02 1.03-.03-.02-1.45.78-.84 1.88.2.52-1.22-.7-1.05-1.17-.33.28-2.32-.84-.1-1.65 1.53-1.19.55-.79-.97-1.51.33-.6-.57-.74.67-1.91.23-.04-1.03-3.68-.13v1.21l-2.36-2.34 1.48-.49 1.1-2.22 1.24.27 1.74-.73.19-1.4 2.02-.05.81-.3 2.17-.07 1.17-.25 1.22.32.53-.86 1.08-.21 1.4-1.9.72-.34 2.03-.12.03-1.29-1.59-.59-.08-3.91-1.59.23-.96-1.44.13-.55 2.12-.95-1.22-2.15-.44-.03-1.18 1.05-.63-.12-.58-1.35-1.2-1.95.07-1-.81-.32-.7 1.02-1.16.13-.3-1.44.4-.69.8-.22-1.41-1.98-.95.67-.74-.28.35-1.56-1.66-.1-.9-.95-1.99-.26-.57-1.04-1.6-.73-.52-.55.2-1.47-.72-.59 1.1-1.4.95-2.16.27-2.38-.25-2.73-.5-1.63-.61-1.07-1.14-1.03-.82.17-.93-.63-2.47-.02-.26.56-1.65.52-1.01.58-1.66-.6-1.08.14-1.44-1.47-1.79-2.51v-2.8l-1.92.26-1.1-1.3.02-.8-1.2-.3-1.04-1.22-1.7-1.28-1 .07-1.94-.7-.09-23.98 7.43-.01-.68-.62 6.73-.04v-3l3.1.06-.06 2.96 15.46.04h4.33l1.59-.11 10.86-.06 13.24-.13h15.63l-.1-3 3.02.03.12 3 10.47.04 2.73.01-.37.7.3 1.33-.28 1.52-2.03 2.07-.06.67.55 1.56-.67 1.59-.74.89-.89.32-.67.9-.72 3.12-.02 1.37.83 1.02.2 1.12.85 1.55 1.97 1.77.36.86-.73 4.7-.47 2.17v2.42l.53 2.74.37 3.2-.18 1.26.87 4.3.03 1.03-.54 2.08-.46 3.39.17.54-.17 2.1.47 1.9.4.44 1.32.98 1.46 1.43 1.02.38 1.6-.15.14 1.16-.95-.32-2.23.52-1.02 2.03v1.06l-.65.85.41 1.14-2.56.4-1.11-.59-.92.05-2.9-.35-.92-.46-.72.11-1.85 1.67-2.02.92-1.2-.2-.6-1.56-1.67-.81-.74-.1-.52.7 1.1.9-.91 1.12-1 .08-.74-1.07.03-1.18-.74-.05-.52 1.2.96 1.9.06.75-.84 1.04-.8.23-1.3-.36-2.47 2.39.2 1.5.98.17.66 1.02-.56 1.5.45 1.59-.53.77 1.97 2.96.6 1.9 1.1.95-.23 1.27.72 2.15.2 1.13.95.41 2.69.11.54 1.82 1.24.17.03 1.3.54.29-.25.92.42.86.08 1.17 1.76 1.87.65 1.2.97.13 2 .8.86 1.11-.08.68-11.83.42v4.52l-2.22.02.23 22.65.17 18.81.23 17.33-1.98.05-20.2.01-.59.1-11.68.06.98.8.04.9.67 1.9-.04 1.02.5 1.08-.12.63.85 1.1-.5 1.15.48 1.31-.1 3.7.46 1.77-.78 1.26-.23 2.21-.62 1.1.43.74-.53.5-.27 2.82.16.88-.47 1.87.57 1.05-.93 1.74-.94 1.05.11 1.43-1.14.86.01 3.6 8.98-.1.18 3.08v12.58l.08 8.45-.04 2.36-2.24.53-.26 1.5.43 1.16-.5 1.3-1.3.4.1 1.02-1.79 1.28-.3 1.28.13 1.16 2.94-.24 3-.04.34 16.54-2.25.03.03 1.51-6.72.05.14 18.55-2.94-.34-9 .11.29-3-2.96.02-.19-11.9-.36-3.14h-3.3v1.02l-2.82 1.97-.87 1.05.13.65-1.48.65-1.94 3.11-1.43-.46-.2.83-1.05.22-.42-.57-1.36.15-1.12 2.7-1.24.28.37.86-1.53 1.18-.76 1-1.39 1.11-.42.05-.25-15.51-2.72.32-14.75.05-.02-5.9-.78-.03-.03-3.03.83.05-.05-17.93 8.95-.08.05-6.08.42-3.33-.05-12.05.69.02.07-3.08h-.76l-.03-11.9h.73l.7-.8-.01-1.52h-.75l-.7-.74-.16-5.95-.03-16.08-.1-2.47 5.99-.04 1.62.22-.18-15.16 1.7-.03-.03-1.45-1.7.03-.1-4.52.01-6.57-.2-10.46z"/>
    <path region="18" short-name="10" long-name="State Senate District 10" value="1" d="M561.37 207.2v-1.83l1.7-5.47 3.38-5.7 18.13-16.58 2.2-1.41 1.16.27 2.5-1.08 10.83.26-.2-8.43-.56-33-.02-2.59h-1.55v-2.32h1.55l-.06-5.11 9.27-10.29.62.18 2.6-.38.8.75 1.55-.44.72-1.3 3.19.33 2.56-1.46.83-.79 1.75-.44.67-.9.82-.37 1.87 1.48 2.3.16.6.37 1.91 2.12-.38.47.02 2.34-.4.78h1.95l.78.77.04 2.29-.78.77-1.55.03v.74h1.58l-.44 1.73 2.75-.17-.01-1.56h.78v1.56l3.1-.03v.8l.77.75h1.1l.43.81-.01 1-.45 2.1.5 3.14 1.64.81 2.02.42 1.02-.42-.06 1-1.25 1.17-1.3 2.32.08.99-1.02 1.39-1.07 2.48-1.47 1.8-.9 1.78-.9.96-1.28.01-2.24 1.78-.9 1 .11.8-.46 1.67 7.85 3.63 1.27 1.24 1.54.01 1.06-1.77 1.1.29.72-1.22.7.2.8-.84 1.04 1.63-.4.63.46 1.74 2.96.07 1.1-.78.51.78 2.75-.47.98-.42 1.2.25.36.72 1.64.54 15.06-15.54-.2-.84 1.38-1.52-.06-.69.84-.9 2.96-.5.15-1.04 1.02.61.8-.12 1.38-1.52-.35-1.1.93-.68.78-1.39-.97-.92-.08-.98 1.35.82.71-.15.6-2.3.9-1.4 1.09-.63-.1-1.28 1.97-.7-.2-1.04 1.2-.74.75-1.63-.21-2.46-.57-1.33.88-.41.12-.91-.36-1.31 1 .12.56-.72-.94-2.42 1.01-.37.7-.87 1.17.07.4-1.21-.22-1.2 1.3-.45 1.34.7.54-1.26.66-.39.73-1.35 1.85-.81-.51-.69.33-.74.83-.36.97.45.28 1.26 1.72 9.46 5.6 31.07 1.48 8.92 1.24 7.6 4.5 26.71.22 2.28 1.12 7.13 2.66 16.67.14.47 1.25 7.64-1.55-.02-.03.78-3.1-.03-.04.76-12.25.04-.1 3.08-6.03.2.12-3.09-7.66-.54-29.21-2.1-.35 7.03-1.58-.44-10.82-2.07-3.84-1.24-2.27-.9-.04 1.53-6.23-.06-.01 1.53-3.13.02.01 7.76h-6.1l-.04-3.1-3.04.02v1.55l-3.06-.21v4.6l-3.05-.17v2.63l-.19.44-1.3-.08-.04 3.11-4.63-.25.04 3.1-4.84-.26-.05 2.35-2.85-.13 1.86-.77-.4-2.53-1.04-1.15-.92-.52-.89-.02-1.27.74-1.7-.12-1.3.3-.58-1.58.12-.9-.41-.8-1.15-.91-.28-2.71.4-1.19-.75-.93-1.16.81-1.9-.49-.53 1.17-1.73-.52.02-1.73-.62-2.02-.54-.73-.84.03-1.03-.45-1.21-1.2.31-2.12-.47-.8.42-1.16-.33-.92.15-1.18-.33-1.67-1.33-.23-.64-.95-2.35-.63.5-.75.01-1.31-1.33-.48-.26-.67-1.39.47-.99-.22-1.54.37-.38.51-1.22.16-1.63 1.61-1.27.77-.83 1.24-.87-1.02-1.28-.35-.75-.67-.1-.76-1.05-2.06-.6-.15-.77 1.19h-1.38l-1.08 1.41-2.08 3.19-1 1.14-.92.29-1.29 2.65.1.56-7.83.08 1.6-1.51.43-1.28.82-.18.79-.74-.36-.6 1.21-.94v-.63l.93-.84-.41-1.2.82.03.24-1.44.52-.5z"/>
    <path region="19" short-name="13" long-name="State Senate District 13" value="1" d="m702.53 227.66 6.03-.2.1-3.08 12.26-.04.03-.76 3.1.03.03-.78 1.55.01 2.17 13.24 1.6 9.68 3.52 22.43 2.58 15.69 4.88 29.59.18 1.28 1.68 9.9 1.85 11.56 2.2 13.7 3.3 20.53 4.6 28.6.73 4.52 5.25 31.32 2.43 14.48.7 4.03.06 1.93.89 1.26 1.63.58 1.37-.83 1.41 1.89-.05 1.6-1.06.33-.72.72-.59 1.17.7 1.66-.68 2.03 1.02 1.54 1.8 2.12 1.08.63.68-.15.46 1.44.8.22.84.89.66.1.7 1.21-1.52.8-1.15.1-.9 1.76 1.04 2.56.77.84 2.4.75.67.57.28 1.1-.33.84-1.02 1.23-.33 1.5.66 1.2-.05 1.27.4 2.5.77 1.8 1.51.79 1.85 2.07.89 2.5-.22.44-1.87 1.15-.88 1.1.87 1.62 1.6.65 1.35-.41.22.45-1.24 1.75.38 1.04.88.88.35 2.65.68 1.86 1.56 3.16 1.39.58.48 1.15 2.88 3.26 1 .76.5 1.37 1.67.52.4 1.7.72.76.42 1.05 1.18.47.98 1.9.13.95-10.56.21v1.17l.26 6.39-9.48.28-19.63.28-.76-1.69-.1-1.06.73-1.8-.18-1.54 1.15-.04-.48-5.14.94-1.36-1.68.61-.86-.85.37-.9-.41-.53.19-2.97-1.35-1.26-1.43-1.79-1.27.99-1.52-1.75-.63-.08-1 1.42-1.98.56-1.18-.02-1.92.46.36 1.04-1.4.44-2.44-.5-1.08.07-1.25-.42-1.87-1.05-2.11-.68-2.55-.6.05-3.53-.13-2.94-.36-.94-2.06.08-.45-1.53-.71-.07.65-1.66v-1.03l2.54-1.55.42-.84-.01-1.22-.8.05-1.36-1.56 1.59-1.47 1.41-2.05-.67-1.58.02-1.47-2.45.03-3.23.23-.5-1.66.05-5.35-3.3-.11-.12-2.03-1.59-.87-.12-.8-8.43-.05.03-1.52-1.56.02.01 1.48-13.62.34v-1.57l-1.53.03v1.57l-2.88.07-.01-16.1-.08-8.3.06-29.17.06-6.68-.04-19.15-10.64.15-16.5.28-4.48.13-12.03.05-5.2-.09-18.28-.09.03 3.1-4.47-.04-1.62.1-.03-3.02-20.2-.01-8.84.06.27-19.19 8.42.17.78.08.2-11.7.21-9.72 17.58.4 6.69.05.63-15.67.03-2.8 2.97.09 3.24-.06.06-3.02 3.02-.03.16-12.3 3.08-.03.07-9.27 9.51-.02.26-.29 9.25-8.8.14-3.04 9.13.03.32-6.44v-2.84l3.13.12-.07-2.98 6.16.13-.13-3.14 6.13.13.05-2.32.75.04.72-.76.03-1.53 1.48.08.1-26.42 2.95-.04.07-3.06 3.06.04.02-3.08 3.06.05.14-9.28-9.14-.13.02-6.24 6.18.23v-3.15l12.21.12z"/>
    <path region="20" short-name="22" long-name="State Senate District 22" value="1" d="M186.23 697.44h10.38l.98-.08 22.34-.02 32.48-.18.23 2.72 1.12 1.72.33 1.48-.02 1.68-.4.5-1.46.29-.31.35.7 1.67.1 1.98.47 1.87.5 1.07 1.2 1.81-.16.89-.84 1.3.04.68 1.32 1.65 2.12 1.48 1.54.8 2.5.01 1.68-.17 1 .49.75 1.1-.14.95-.85.21-1.62-.75-1.32.48 1.55 2.43 2.23 1.68 1.24.28 2.98 1.84 2.73.86.7 1.07.84.45 4.78.73 1.59 1.56.9 1.49.8 1.9 3 1.77.23.56-1.24 3.17-.9 1.27-.14.63.66 3-.02.59-1.01.77-1.7.23-.8.77.78.92 1.58.04 1.9 2.5.01.39-1.81 1.3-1.13 1.72.19.57h.93l.71-.66 1.78.46.4.56v1.05l-1.23.77-2.76-.42-1.04.95-.07 1.29-.86.91-1.23.68 1.05.58 1.73-.88.88-.05 1.04.87.34-.26-.67-1.58.43-1.08 1.39-.27 1.24.52 1 1.51 1.74-.68-.83 2.48.7 1.72-.07.69-.76.91-.61 1.49.02 1.3-1.18 1.28-.44 1.07.04 1-.38.7-1.39-.21.02-1.04 1-1.02-.41-.84-1.1-.54-.53.26-.26 1.01.25 1.51-.51 1.34.03 1.62-1.04.75-.96-.29-.64-.75-3.53-.4-.74.47.03 1.12.7 1.06 1.56.8.58.66.05 1.05-.8 1-.72.35-.27 1.02.77 1.6-.37.85h-.8l-1.17-.75-1.42.2-2.08 2.2.21.9.77-.1 1.12-.77.89.26 1.03 1.68 1.05.49 1.74.25.61.47 1.45 2.64.85.9-.06.52-1.29.86-.36 1.85-1.36.94-.3 1.23.62 1.63 1.07.65 1.21-.05 1.4.8 1.3.1.82-.35 1.3-2.43 1.24.37 1.7-1.44 1.82 1.3.93-.71.1-.63-.45-1.57 1.08-.74 1.73 2.3 1.13.24.7-.55-.05-1.13-1.43-1-1-1.99-.02-1.02.65-.89 1.25-.32.76.44 1.28 1.94 1-.67-.05-.5-1.43-1.04-.1-.66 1.33-1.63-1.56-1.65-.87.41-.42-.55.7-.83 1.41.83 1.33-.64.57-1.21.38-2.13.74-.82 1.04.13 2.94 1.82 1.26-.2 1.84-1.44-.33-1.06-1.53-1-.2-.94-1.27-1.86-1.08-1.08-.15-.8.47-1.49.77-.22.67.53.15 1.69.43 1.09 1.26 1.1 1.5-.07 1.47.83 1.14-.75 2.89.04.76-.94 2.45-.15 1.04.43.58-.48 1.56.32 1.24 1.37.56 1.82 2.03.56.45 1.54 2.05 2.77 1.7.86.75 1 1.35.68 1.57.15.9.94 2.7.2 1.68-.22 1.26.7 1.02-.37.62.5 1.14.05 2.05.83.13.5 3.8 1.3 1.82-.6 2.21-1.44.4-.86.67-.23 1.22-1.1.72.21 1.97-.37 2.64-1.36.62-.98 21.75-.1.05.04 24.54-.05 20.27-.06 13.05-.08 6.42.06 13.64-.16 13.46-.04 14.43.14-.55 1.53-.91.66-.06 1.66.66 1.09-.05 1.53.98 1.84-1.59 2.11 1.28.75-1.27.98.9 1.16.3.82.62.16-.09 1-.75.87.6.34.5-1.34.71-1.14 1.76.1 1.4-.4.6 1.89.94-.04 1.58.45.73-.62-.63-.99 2.24.2.18-.94 1.12.55-.02 13.78-.06.46.1 25.17h2.04l.05 1.2-3.16-.03-3.36-.44-3.5.11-7.15-.14-15.32-.13-9.65-.02-12.43-.2-1.04-.13-6.27-.05-2.42.1-11.46-.07-1.07.13-2.78-.15-3.84.1-10.94.38-2.27.16-3.05-.38-10.06-.04-19.99.08-5.79-.07-10.7.17-5.11-.07-8.87.1.4 2.02.58.95-.14 1.1.88 2.7-.5 2.66-.86 2.12-1.02 1.41-.9 2-.42 1.62-.7 1.66-.32 1.45-1.1.81.23 1.56-.2.92-1.3 1.09-.96 2.91 1.17 1.18.51 1.19-.34 1.3 1.76 1.57.24 1.16 1.79.7.73 1.25.2.93 1.09.75 2.18.93.89.87.84 1.57.7.3 2.82 2.62 1.23 1.55-.2 1.37 1.6 1.94.3 2.61.5 1.29 1.58 1.06 2.09.98 1.15 1.47.5.97 2.7.63 1.01.41 1.2 2.03.7.27.72.9 1.66.68.97-.46 2.7 2.28h1l1.91 1.77 2.21 1 .2 1.74.9 1.94.6.57.02 1.27.63 3.53-.5 2.85.25.34-.75 1.97-.93.46-.35.7-.38 3.32-.7 2.14-1.02.75.33.67-.35.91-1.3.36-.33 1.21-.63.8-.7.23-1.96 4.5.29 2.48-.5.62.54.9.88.18 1.5 2.21.1.96-.87 2.17.88.8.17 1.22.8 1.02 1.82 1.7 1.2.18.56.71 1.38.47.86-.2 1.9.3 1.83.66.67 1.3.06.79-.8 1.25-2.68 2.04-1.63.6-1.38 1.5-.95.29-1.8-.29-1.24.2-.6.56-.83 1.83-1.12 1.23-.04.98.4 1.2-.56.92-1.68 1.85-.11 1.41.18 2.86-1.59 2.03-.86.62-1.88.38-2.9.11-.39-1.62-.15-1.7-.37-.95.03-2.12-.35-.42.47-1.1-.47-.46.44-1.04-.62-.43-.24-1.6-.84-1.39-.67-.3.01-3.93-9.62.02v2.97l-1.48.01.02 7.5h-5.05l-.33-1.49h-8.78l.12-2.03.92-1.67-.01-4.78-.18-3.9-.67-1.28.3-2.75 2.44.01-.02-4.5-5.19.01v3h-2.97v4.48l-10.4.02.01-7.42-1.5-.04v-11.2l-2.22-.03-.02-3.66h-4.34l.57-.77 1.6-.67.15-1.38.84-1.3-1.03-.34v-1.45h-1.48l-.01.97-3.28-3.3-.07-1.07 1.66-.4.73-.43.94-1.33.99-.92.73.85 1.3.68.36-.25.17-1.7.94.02.01-3.61h-3.02v-1.49h1.11l-.1-1.37-1.03-.3-.02-.97-.89-1.01-.97.97-.75-.67-.43-2 .23-.99-.2-1.77.11-1.39.53-.91-.53-3.3-.42-.88-1.94-.3-.05.5-1.54-.41-1.23-1.05.76-.55-.04-6.28-.72.06-.32.77-1.41.12-1.02-.95-.36-.78-1.1-.52-.32-.57-1.68-1.64.47-.95-.22-1.2-.87-.63-1.37-.1-1.8-1.26-1.4-.25-1.78-1.48-1.37-.38-1.8-1.1-.76-1.47-2.92-1.2-2.6-2.38-2.17.2-2.38 1.26-1.78.6-.8 1.04.18 2.5-.32.6-1.15.74-2.09.62-1.03.72-.97 1.35v.47l-1.24 1.53-1 2.05-1.16 3.52-.58.01-.66-1.13.15-2.27-.88-.05.03-.77-1.82-.54v1.13l-.82 1.6-.54-1.84-1.86-1.56-1.82-.07-.01-.58h-1.44l.77-1.16-.81-3.05-.76-2.33.23-2.32 1.17-2.04 1.18.21.9 1.15 2.18-.61 2.26.65.18-1.13 1.26-1 1.28-.08.93-1.9.56-.5.02-1.66H261l-.04 1.75-1.75-.02-1.02-.49-.73 1.16-1.59-.62h-1.27l-.19-.97-.6-.01.74-1.57-2.42.03-.05-3.06.12-3.03.86-.4.66-1.57 2.07-1.96.08 3.82 2 .22-.21.76 1.04-.02 1.08-1.1 1.21-.64.25.77 1.28.54.64.93-.41 1.76-.61.72 1.82.05 8.72-.12-1.39-.56-.72-.95-.24-1.78.52-1.72.67-1.11 2.1-2.18 1.56-.9.78-1.6.1-2.2.7-.85 1.1-.46 1.4-.18 2-1.15-.25-1.54-.46-.69-2.15-1.16-.52-2.02-1.22-.86-2.25-.02-.34-.36.7-1.45.11-1.64.7-1.42-.32-2.74-1.12-.95 1.03-1.05.88.08.65-1.46-.05-.51-1.2-1.5-.08-.7.74-.99 1.58-1.12.6-1.05-.06-2.7-.57-1.02-.69-.32-2.66-.09-.31 1.16-1.56-.5-1.13 1.38-1.7.64-1.27.04-.86-1.83-1.66 1.63-.06-1.46-2.31-.3.03-1.2 1.26-1.62 2.26-.03-.02-.9.63-.59v-3.1h-.64V819h-.73l-.06-7.35h-8.5l-.72.07-23.67-.07-15.38.08-8-.03-.02 6.05-17.96.02-1.23-27.27.04-1.19-1.13-21.28-.61-13.38-.42-7.95-.1-4.55-.25-3.85-1.13-25.09z"/>
    <path region="21" short-name="6" long-name="State Senate District 6" value="1" d="m250.72 24.86.05-.53 2.29.17 2.13-.6 1.54-1.15 2.28-.88 1.74-.1 1.7.51 3.34 1.87 3.11 1.48 1.13.28 1.88.92.74.1 2.72 2.18 1.46 1.7 2.16 3.67.8 2.35.43 2.69.46 1.54 1.29 2.61 1.07 1.2 3.01 2.3 2.5 2.35 3.8 3.04 2.22 2.87 2.26 1.79 3.1 1.3 1.98.66h2.41l3.62-.55 2.18-.2 2.35-1.5 2.33-.57.73-.56 2.27-3.8 1.6-1.57 5.3-1.86 1.62-.23 2.5-1.1 1.83-1.05 3.33-.7 1.94-.65 1.55-1.02 2.7-1.49.64-1.5.92-.87 2.53-.9 1.82-.02 1.7-.93 1.9.19 1.95-.6 1.8.46.9 1.52 2.42.87 1.53.98 1.5.44 1.73.1 3.21.79 2.58.94 1.55.83.96.13 1.4-.29 3.43-.22 4.11-.69 4.58 1.82 1.97 2.24 6.18 7.55 3.4-.42 5.03-2.04 3.57-.37 1.22.17 1.74.76 2.68 2.05 1.98.26 2.6 1.3 1.48 1.09 1.5.82 2.78 2.1 1.1 1.56.62 2.22.72-.14-.5-1.87-.4-.7 1.57-.26v-1.22l2.35.02.01-3.12 3.05-.04.04-2.45-3.06-1.8.15-12.96h9.34l14.4.31 4.27.18v-.97l1.51-.22.06 2.78-.2 7.8.25 5.08-.08 1.79.43 2.57-3.6-.08.06 3.1-1.71-.06.04-1.51 1.55-.26-.02-4.38-7.8-.28-.03 12.5-3.03.03-.08 1.53h-2.08l-1.34.36-.73 1.32-.49 3.02-.1 1.85-1.37-.08-2.54-2.18-2.97-1.76-1.54-1.5-.72-1.02-1.18-1.02-.15 21.05-.1 5.72-.09 13.22-.42 17.74-.13 8.12v13.63l.04 3.09-5.62.03h-19.98l-10.6-.13-10.3-.23-21.81-.77-5.56-.03-7.66-.16-10.81-.35-16.92-.68-9.77-.16-6.57-.02-10.44-.2-10.35-.27-15.16-.5-25.62-1.17 1.41-13.22 1.64-17.09 2.87-25.3 1.01-8.76 2.79-21.74.35-4.72 1.56-13.99z"/>
    <path region="22" short-name="14" long-name="State Senate District 14" value="1" d="m369.66 425.54 18.19-.6.09-3.47 1.13-14.94 5.22-8.22 9.17.38 5.37.12.03-13.85 8.28-7.56h1.5l.04-.78 3.77.08.07 2.96 3.06.06 4.83-5.34 1.92-.01 14.58.19.02-1.47 1.53-1.5.78-.01.01-1.54 3.83.08v-1.55h2.31l.02-.78h1.48v-3.86h.74l.71-.79.11-.74 1.55-.04.35-.79h1.13l.06-1.55.69-.23.78-.52.02-1.5 1.53.02v-1.54l9.13.2-.01 1.55 1.35-.15.33-.56 1.12.03.39-.69.98.44-.43.94 1.56 2.14-.8 1.53 1.52.84.7.05-1.08 2.58-.25 2.2 1.22.68 2.01.15-2.17 2.97.21.58 1.26-.07.47 1.52-.72.41-.36 1.06.3.5 1.45.06.31-1.57.9-.71 2.45.27 1.9-1.14 1.94-.38 1.7.12.11.72 1.24-.4 1-1.12 1.07-.02-.7.88v1.38l-.49.9.8 1.11.24 1.45-.87.86-.06 1.64.8-.38 1.15.06.92 1.66.25 1.94.29.44-.54 1.53 1.12.08.23.7-.29.99.63 1.6-.12 1 1.32.97-4.45 1.84.63.17 1.16 2.33-.85 1.5-.99.6-1.86-.18-1.61-1.04-1.18.44-1.34-1.19.2-.72-1.7-.31-.27.69.3 1.7-.6 3.83-1.24-.15.01.76-1.15-.03-.44.73-1.53.5-1.18.75-2.8-1.57-1.34.94-.46.84-.07 1-.5 1.3.38 1.2.76.97-1.41.12-.34.72-.14 2.24.39.52 1.06.04.75.46.45 1 5.38-.06 16.18-.07 12.26-.1.18.74-1.02.46-.63 1.15.63 1.1 1.91-.33.5.35.51 1.5 2.27 1.17.86 1.28 2.29 1.51.74 1.65 2.25.15 2.4-1.17 2.44.27 1 .54-.88 3.4.33.89 1.4 2.17.33.92-.29 1.79-1.05 1.34.53 3.5-.17 2.22.36 1.6-.32 1.3.75 1.48 1.35 2.1.98.13 1.4 1.26.32 2.06 1.07 2.5.24 1.4.44.95.67.42 1.63.32-1.04.98-.82-.16-1.74-1.7-1.45-.57-1.32.14-1.08-.56-1.28-.24-.59-.93-.75.66-.51-1.95-.9 1.2-1.52-.7-.52-2.33-1.16-.47-.05 1.26-.9-.77-.95.29-.59.64-1.18.19-.18.62.78 1.57-.08 1.7-.89 1.65.06.63.92.85.63 1.02-.01 1.53-.6.5-2.42-.36-2.09.68-2.05-.08-2.54.24-1.01.6-.29-.59-2.03.74-3.87.5-1.1.44-3.42.62-4 .23-.88-.14-2.34.66-.99.65-1.7.55-1.61.3-.9 1.97-.87.79-.66-.06-1.54 1.46-1.94.5-1.02-.56-1.6.75-2.12 1.9-1.2.49-.98-.68-1.41.12.95-1.1v-.55l1.14-1.28.41-.92.03-1.7.32-.67-.34-1.62-.17-2.14-1.75-.78-1.22.1-.78-.36.34-1.16-1.85-.4-.63.68-3.07-1.02-1.32.61.02 2.42-13.01-.29-12.16.13-23.96.37-2.94-.1-9.09.13-1.69.6-2.86.12-12.25.04-.05-9.14-17.9.13.1-3.37-.11-21.87z"/>
    <path region="23" short-name="26" long-name="State Senate District 26" value="1" d="m532.44 563.28 1.04-.49.16-1.23-.5-1.86.16-.57.97-.53 1.7.51 1.38-1.83 1.12-1.02-.01-2.13.6-1.55-.37-1.6.44-.47 1 .19 1.47 1.03 3.46-.54 2.44-1.56 2.35-.6.34-.67-.67-1.65.54-.69 2.4-.06 1.8-.62 2.65-.02.74-.47 1.6.05 1.13.6.92.85 2.56 1.44.38 1.3 1.25-.17.4-1.25-.9-2.27-.89-1.4-1.3-.73.28-1.19 1.18-.73.96-2.11.5-1.77-.2-1.85-.79-1.33v-1.14l1.39.04 1.28 2.5 1.38.87.39-.9.76-.6 1-1.3 1.27.46 1.55-.56.26-.68-.81-.43.4-1.96 1.98.26.9.96 1.66.09-.35 1.56.74.28.95-.67 1.42 1.98-.82.22-.38.7.29 1.43 1.17-.13.69-1.02.8.32-.06 1 1.2 1.95.58 1.35.63.12 1.18-1.05.44.03 1.22 2.15-2.12.95-.13.55.96 1.44 1.6-.23.07 3.91 1.59.6-.03 1.28-2.03.12-.72.34-1.4 1.9-1.08.21-.53.86-1.22-.32-1.17.25-2.17.07-.81.3-2.02.05-.19 1.4-1.74.73-1.23-.27-1.1 2.22-1.49.49 2.36 2.34v-1.2l3.68.12.04 1.03 1.9-.23.74-.67.6.57 1.52-.33.8.97 1.18-.55 1.65-1.52.84.1-.27 2.31 1.16.33.7 1.05-.52 1.22-1.88-.2-.78.84.02 1.45-1.03.03-.06 1.02.95 2.23-.29 1.57 1.27.9 1.72-.17 1.9-.42-.11 1.84-2.66.61.83 1.16 3.42 3.89 3.02 2.93 2.76 2.25 2.16 2.5.62 1.47.11 11.55.95 2.89-.85.16-1.19-.38-2.64.41-.05-1.64-.3-.85.3-1.5-.6-1.25-2.37 2.57-.36 1.05-.88.49-.74-.31-1.41.31.05-1.85-.45-1-1.71-.77-1.91-1.29-1.25.03-.15-.62-.94.02-.42-.94-1.2.24-.53 1.12.67.57-.11 1.32.61.3.28 2.23-.79.92-1.87 1.19-1.04.3-1.15-.12-2.78-1.23-.74-.62-1.52-.4-6.5.1-.12-3.29-.23-2.36.19-1.71 1.4-3.05.05-1.73-3.12.1-1.01-.4-3.58-4.07-.73 2.82-.03 3.37-.92-.01-.87-.92-1.07-.14-1.6-2.15-1.96.39-.78-.6-3.25 3.6-.08-7.14-1.04-.55-1.46-.27.13-1.14-.89-.71-.7.13-1.76-1.15-1.32-.32.07-.95-1.78-1.24-2.13.85-1.18-.58-.16-.53-1.17-.22-.05-1.1-.8-2.43.88-2.7-.06-1.29.85-.54.35-1.16.75-.98-.84-1.2-.92-.4.23-1.5-.9.35-.2-.78-1.03.81z"/>
    <path region="24" short-name="35" long-name="State Senate District 35" value="1" d="m258.55 942.19 1.36-1.3 1.23-1.44.63-.32 1.04.47.52.62.48 4.91-.57.3-3.22-2.06zm-36.69 35.07 1.47-.45-.01 1.28-.31.98-.77-.29zm-11.5 21.44 1.25-.44 1.25.14 2.35-.1 3.61-.68 3.66-.9 5.94-1.22 4.08-1.14 1.64.19 1.01-.2 4.3-.44 1.45.05 2.2-.38 1.86-1.45 1.04-2.33 1.23-1.13 5.44 3.92 2.1 2.19-.17.6-2.91.52-3 .06-2.34-.86-2.65-.43-5.1-.02-5.81.4-6.17 1.32-4.46 1.05-7.84 1.65-3.8-.08zm30.13-88.82-1.48-.02.62 1.45-.02 1.96.24 1.32.6.37h2.86l.9-.41 1.25-1.38.9-.64.65 2.2-1.46 1.55.1 3.16 1.15.32 1.61 1.72-.68 1.8.13 1.45.87 2.04 1.28 1.52 1.3.52.51 1.08.74.43.34.37.68 3.46-.2 3.6-1.4 1.05-1.79 2.82-.5 1.8.13 1.62 1.08 4.48-.66 2.01-1.02 1.73.41 5.2-.56 10.2-1.44 4.22-1.61 3.05-1.2 1.49-1.5 4.3-.83-1.63.03-1.15-.32-.84-1.02.1-.73.6-3.01.31-3.2 1.5-.72-.53.43-.97-.6-2.33.05-1.25 1.37-.3.24-1.54.01-2.06-1.61-.16-1.45.28-.83.43-1.27-1.55-1.42-.75-1.75-.09-.97-.65-3.65-1.52-1.2.26-2.66-.36-.83-.28-.13-.63-2.07.35-.65 1.3-.2 1.61-1.2.23-.54-.25.42-1.05-.46-1.6-.05-1.47-1.06-.96-.88-.3-2.1-1.42-1 .57-1.1-.63-1.3-.32-1.17 3.8-1.87.49-3.58 3.3-.8-18.12-.7-15.29-.44-11.58 1-2.15.23-1.13 1.22.07 1.22-.54-.18-.9 1.1-.26 2.35 1.14.67-.1.72.66h1.12l.06 1.63 1.3.94.17.78.78-.08.43-.7.88-.41 1.93 1.37 1.03.48 1.08-.11.74-.64 1.1.29 1.03-.5.01-2.63-1.48-.02.02-3.47 1.49-1.53v-2.41l-.64-.5-.25-1.47-.65-.43-.1-1.8 3.04-1.92.5-.15 3.91-.4.07-2.17 1.4.02v1.9l3.77-1.58-.38 1.14-.79 1.29-.33 2.13.14.88 2.85.82.57.88.65 2.13 1.1-.82.1-4.32 5.57-.01.85-.3.15-2.72h1.17l.04 1.12-.39.5z"/>
    <path region="25" short-name="9" long-name="State Senate District 9" value="1" d="m493.73 72.56.14-4.6 6.06-2.95.8-.5 5.79-1.93.83.7 2.2.02h3.12l-.25 10.96 1.54.26 3-1.86 1.9-.5 1.28 4.78.03.5 2.52.07-.12.86-1.46 1 .46 1.3 1.67 1.5-.15 6.3 2.58.08 1.07-.16.15-.85.78-.9-.4-1.1.13-.9 1.49-.05.25-3 .66-.8-.01 2.37 1.27-.13.81.96h1.39l.3 1.5.03 1.65.87.74 2.03.03.94.8 1.68-.06.03-.76 4.6-.2 1.38-.75 5.03-.34.1-3.16 2.48.08.84.8 1.46.82 1.92.2.05-1.37.6-2.75 4.91 4.17-.81.27-.1 1.15.72.68 10.18-.07 5.65.01 15.58.2-.17 10.55-1-.1 2.08 1.93-.15 1.47-1 .14 1.75.07-1.39 2.65.38.19 2.7-2.05.68-.8.5 1.27.7.62 1.03-1.04.97.6-.34 1.3 1.03.36.77-.58.45 1.64-1.24 1.54.8.5.3.97-.36.54.71 1.8 1.34 1.27.19 1.01-.41 1.56.38.9.86.44 1.48-.47.77-.87 2.16-1.12-9.27 10.29.06 5.1h-1.56l.01 2.32 1.55.01.02 2.59.56 33 .2 8.43-10.83-.26-2.5 1.08-1.16-.27-2.2 1.41-18.13 16.57-3.38 5.71-1.7 5.47v1.84l-.98-.9-.8-2.2-2.38.05-.76-.17-1.3.33-1.25 1.51-.07.64-1.84.33-1.06-.47-.6.64-2.52.71-.81-1.23-.91-.83-1.25-2.05-.6 1.12-1.53 1.2-1.92 1.12-2.48.02.25-.65-.06-1.55-.84-1.13-1.57.1-1.35.95-.23-2.22.45-2.67-1.3.22-.69-.76.65-.72 1.53-.9 1.63-.31.93.36 1-.99.1-2.84-1.36.27-2.21-1.02-1.2-.26-1.77-.9-.68.36h-2.5l-1.97 2.37L525 197l-2.38 2.2-2.72 3.42-1.24-1.76-1.45-.03-1.3 2.2.02-1.46-1.62-.03.02-1.56-1.47-.04-.76-.8-2.5 2.42-1.31 1.93-2.18.74-1.66-.7-.68-.86-1.73-.53.03-3.15-2.83.52-1.19-.5-.7-2.1-.32.28-.89.6-.22.25.08.26.53.4.13.14 1.25 1.92.22.57.24.37.95 1.02.16.96-.16.32-.34.23-.2-.03-.22-.13-1.2-1.15v-.69l-1.43.7-.34.88.34-.9.84-.64.63-.1.05.82.5.3.44.58.47.33.25-.06.35-.46-.2-1-.9-.98-.21-.28-.27-.65-.63-.87-.7-1.17-.57-.41-.08-.29.05-.1.31-.26 1.25-.93.58-1.17h.66l.1 2.53 2.15-.98.64-.62.55.96 2.1-1.68.4-1.55.2-1.76 2.64-.27-.32-.86 2.83-2.05h.6l1.74 1.78 1.95-1.68-.8-.73.94-1.72 1.74-.62.26-.46-.53-1.62.95.12.2-1.08.71-1.14.78-.4.29-1.64 1.23-1.14.55.06 1.21-1.77 1.23-.52.84-1.28-1.71-.13-.31-1.1 1.34-1.52-.92-1.05.89-.23 1.03-.97-.58-.86.85-.56.65-1.36 2.49-.48.25-1.7-.5-.92 1.04-2.12-.01-.72 1.52-.67 1.38.44.6.83 1.4-1.27.81-1.12 6 .18-.57-.86.9-2.38h-1.5l.04-3.11-3.09-.04-.1-2.86-13.44-.22-4.92-.2.1-14.14 2.18-16.31.66-4.73 2.19-15 .46-1.28.03-1.2-.63-2.15-.8-1.41-1.2-1.16-2.45-1.64-2.5-.31-2.1.47-1.61.72-2.91 2.92-.74 1.44-1.08 1.26-.94.43-2.16-.26-1.14-.42-1.2-.97-.55-1.32v-2.51l-1.13-1.8-1.38-.73-2.26-.55-1.27.13-1.95 1.03-.59.55.1-3.58.42-.67.04-1.58.45-.32.09-7.75z"/>
    <path region="26" short-name="32" long-name="State Senate District 32" value="1" d="m267.34 906.57.68-.75 2.3 1.44 12.12 2.28 2.76-.96 1.4.17 2.62-.37 1.63-.83 1.66-.06 9.67.05 2.27 2.56-.23 1 .43 2 .75.66.97-.97.9 1.01.01.97 1.03.3.1 1.37h-1.11v1.49h3.02l-.01 3.61-.94-.01-.17 1.7-.37.24-1.29-.68-.73-.85-.99.92-.94 1.33-.72.44-1.66.39.06 1.07 3.28 3.3.01-.97h1.48v1.45l1.03.34-.84 1.3-.15 1.38-1.6.67-.57.77h4.34l.03 3.66 2.21.03v11.2l1.5.04-.02 7.42 10.4-.02.02-4.48h2.96v-3l5.2-.01v4.5l-2.43-.01-.3 2.75.67 1.27.18 3.91v4.79l-.9 1.66-.13 2.04h8.79l.32 1.48h5.05l-.02-7.5h1.48v-2.98l9.62-.02-.01 3.92.68.31.83 1.4.24 1.59.63.43-.45 1.04.47.47-.47 1.09.35.42-.03 2.12.37.95.15 1.7.4 1.62-1.4.4-.84 1-.19 2.35.53 1.06 1.4.47 1.96.04 1.38-.64 2.86-.08 1.68-.57-.41 2.22-8.38 2.5-3.23.82v.71l-7.1 1.86-1.11-.09-2.87.5-10.61 3-3.23.81-3.84.47-3.68.7-5.77.85-11.44 2.3-6.67.45-15.43-.65-6.35.17-6.65.77-2.4.46-2.47-.03-.15-.64.8-.73 2.16-.42 7.9-.65 3.14-4.27 2.28-1 3.13 1.67.79 1.11 2.34 1.29 1.28.46 2.43.14 3.4-.35 7.44-2.85 2.76.25 2.52-.24 3.47-1.68 2.12-3.1 1.55-2.05-.55-.95-1.03.02-2.92-3.95-4.22-2.55-2.2-1.73-3.63-4.3-1.34-2.93.02-1.67-1.14-.37-1.75-.07-1.98-1.01-7.27-5.29-.45-1-.92-6.5-1.04-5-.9-1.39-1.2-.86-.88-.3 1.84-2.78.27-1.28.77-2.02.82-.94 1.87-4.1.64-2.72-.43-3.09-.66-1.45-.62-.65-.62-1.96.42-6.12-.25-.88-1.31-1.39.5-.78-.13-1.1-.94-1.11-.13-1.5-.78-.3-.33-.82-.88-.63-3.4-.3-5.2-3.8z"/>
    <path region="27" short-name="21" long-name="State Senate District 21" value="1" d="m208.04 428.09 1.66-17.06 2.44-23.46.34-4.03.47-3.7 1.43-14.18 3.25-32.3 1.5-14.94.5-4.55 4.32.1.66.1 28.94.87 5.5.31 8.66.22 9.64.5 15.48-.27 3.15.1v2.8l.33 14.68.1 15.1-.03 8.84.06 9.32 10.48 1.13 6.2 1.68 2.78.4 1.82.47 1.4.62 6.67 4.04 3.02 1.61 2.73.55-.4-1.29.37-1.32-1.02-2.3.12-1.37.83-1.15 1.16 1.72.61.04-.06-1.47.44-.83.74.3 1.18 1.28.48-1 1.89.84-.59 1.4 1.91-.16 1.23-1.07-.33-2.48.53-1.54-.67-.6-1.3-.24.08-1.08-.6-2.57 1.35.06.74.4 3.6.37.12.84-.38 1.56 1.17.28 1.33 1.3.74.41.16.87 1.07 1.1.95-.36 1.57-1.94 1.25-.8 1.34-1.76-.92-1.24.22-1.48-.24-1.24 3.65-2.06.07 2.69.46 1.29.1 1.2 1.62 1.55 1 .59-.4 1.5 1.74 2.55.6.54 1.51.26.24 1.38.8-.31.97 1.22 1.74-.19 1.52.26 1.09-.63.74-1.21.1-1.56-.32-1.16.17-.75 1.96-1.11 2.64-.47.58-.64.14-1.69-.5-1.92.68-1.74 1.36-1.02.99-.14 2.67.75.86.81 1.11.41h1.11l1.82-.88 2.69.42.72-.1 3.56 1.76 1.94-.62 1.38-1.6 1.61-.28 1.62-1.46 2.1-.6.7-1.12.9-.02.46-.79.78.01 1.41-.96 1.73-.82.97-.75 1.27 1.56.75-.54 2.6.02.05 3.15.02 1.45 3.07.02.03 3.04 6.14.12.06 3.2 6.91.03v2.32h2.27v.76l1.56.02v6.1l-1.92.02-4.83 5.34-3.06-.06-.07-2.96-3.77-.07-.04.78h-1.5l-8.28 7.55-.03 13.85-5.37-.12-9.17-.38-5.22 8.22-1.13 14.94-.1 3.48-18.18.59-11.76-.16-.15-.96.74-.52.44-.91 1.38-.15.6-.68.76-2.29-.9-.11-.83.53-.87-1.41-1.33-.69.82-1.88-.02-1.18-.43-1.7-.51-.61-1.01-.3-2.07.75-.23-2.1-.96-1.5.07-1.31-1.1-2.56v-.8l.55-1.14-.13-1.38 2.22-.96.05-1.5-.6-.36-.43-2.85 4 2.15h.64l.82-1.5.67.18 1.18-1.06 1.82 1.27.93-.2.67-2.27-.36-1.91-.7-.76-.04-2.44-1.46-.51.03-2.04.73-1.05-2.4-1.25-.65-.62.54-1.32-.24-.63-1.65.11-.6.35.74 1.66-1.66 1.43-3.38.85 1.59 2.08-3.63.91.07-.8-.27-2.52-1.63-.34-1.34-.6-.04-1-1.34-.56-2.84-.14-1.2-3.06-2.12.64-2.75 1.07-2.87.86-1.88.95-.73.1-2.42-.58-1.38-.9-1.1.54-.01 2.8-.5.21-1.5-.57-1.03-.92-.76.9 1 .85.09.92.86 1.52-1.37.7-.68-1.28-2.23-1.43.61 2.27-.3 1.41-1.28.86-.75 1.64-1.35.72-1.66-1.8-.5.18-.43-1.65-.9-.27-2.54 2.13-1.12 2.5-1.1.6-3.1 2.64-2.29.38-1.97-.62-1.08-.97-2.92-.4-2.46.29-.33-2.78-1.36.62-1.6 1.47-.86-.83-1.03.8-1.64.23-1.4 1.5-.93.44-1.24.01-.94.37-.45 1.11-1.31-.16-1.05.7-.44-.18-1.37.94-1.9.71-.26.7-1.04.38-.6.99-.06 1.06-.65 1.44-1.08.7-1.39 2.1h-3.1l-.62 1.06-1.25-.03-.38.41-1.06-.44-1.16.45-.31.82-2.39.64-.73 1.24-.86.12-.63.89 1.4 2.33-.43.34-1.34-.06.02.67-1.47-.27-.47.46-.82-.55-1.32-1.76-.08-.68-1.14.09-1.11-.37-.43.7 1.17 1.01-1.22.5.08.83-1.06.4-.98-.54-.41.6h-2.14l-1.6-1.22-2.02.33-.39.73-1.17.04-.37-.83h-.9l-1.3 1.09 1.33 2-2.17 1.3-1.51.1.12.71-.8.67-.8 1.9.02 1.6-20.58.62z"/>
    <path region="28" short-name="34" long-name="State Senate District 34" value="1" d="m191.93 817.77 17.96-.01.03-6.06 8 .03 15.37-.08 23.67.07.72-.07h8.5l.06 7.36h.74v1.53h.63v3.1l-.63.58.02.91-2.26.04-1.26 1.6-.03 1.22 2.31.3.06 1.45 1.66-1.63.86 1.83 1.27-.04 1.7-.64 1.13-1.39 1.56.5.3-1.15 2.67.09.69.32.57 1.02.07 2.7-.6 1.05-1.6 1.12-.73.98.08.71 1.2 1.5.05.52-.65 1.45-.88-.08-1.03 1.05 1.12.95.32 2.74-.7 1.42-.1 1.64-.71 1.46.34.35 2.25.02 1.22.86.53 2.02 2.14 1.16.46.69.26 1.54-2.01 1.15-1.4.18-1.1.46-.7.85-.1 2.2-.77 1.6-1.56.9-2.11 2.18-.67 1.1-.52 1.73.25 1.78.71.95 1.4.56-8.73.12-1.82-.05.6-.72.42-1.76-.64-.93-1.27-.54-.25-.77-1.22.64-1.08 1.1-1.04.02.2-.76-1.99-.22-.08-3.82-2.07 1.96-.66 1.57-.86.4-.11 3.04.04 3.05 2.43-.03-.75 1.57.6.01.19.97h1.28l1.58.62.73-1.16 1.02.49 1.75.02.04-1.75h.74l-.01 1.66-.57.5-.93 1.9-1.28.09-1.26 1-.18 1.12-2.26-.65-2.18.6-.9-1.14-1.18-.2-1.17 2.03-.23 2.32.76 2.33-.98.24-1.42 1.46-.44-.77-1.2-.48-1.05.5-2.59-1.63-.43-2.46-.83.02-.4-1.66-1.87-1.84-.74 1.08-1.1.1.13 1.81-.28 2.58.06 9-5.96-.04v1.54l-.74.76-1.44.2v3.5h1.5v-1.5l.78.03.3 1.48h4.03l4.27 2 1.31.19 2.52-.53 2.59 1.03-.8 4.43v4.68l-3.98.12-1.1-.73-1.62-.6.4-.5-.05-1.13h-1.17l-.15 2.72-.85.3-5.57.01-.1 4.32-1.1.82-.65-2.13-.57-.88-2.85-.82-.14-.88.33-2.14.79-1.28.38-1.14-3.77 1.58v-1.9l-1.4-.02-.07 2.17-3.91.4-.5.15-3.03 1.92.09 1.8.65.43.25 1.48.64.49v2.41l-1.5 1.53v3.47l1.47.02-.01 2.63-1.03.5-1.1-.29-.74.64-1.08.11-1.03-.48-1.93-1.37-.88.41-.43.7-.78.08-.18-.78-1.3-.95-.05-1.62h-1.12l-.72-.65-.67.1-2.35-1.15-1.1.26.18.9-1.22.54-1.22-.07-.22 1.13-1 2.15-.23-5.72-.71-18.12-.2-5.99-1.09-26.82-.16-1.77-1.07-25.26z"/>
    <path region="29" short-name="2" long-name="State Senate District 2" value="1" d="m481.87 24.36.52.65.92.25.15-1.37 4.67.04 2.05 3.13 9.3.16-.2 1.51h1.5l1.98.28.97 1.34h.93l2.11 1.33v8.15l-3.15-.02-.02 6.25h-1.47l2.12 3.12 7.11.05-.02 1.55-6.04-.05.97 1.56 5.17.06.53.82.12 1.03.72 2.08.39.54-2.5-.02.99 1.5-2.21.24-.08 3.56.14 1.2-2.19-.02-.83-.7-5.8 1.92-.8.5-6.05 2.95-.14 4.6-3.25-.06-.56-1.1-.78-.44-3.01 1.48h-1.42l-3.32 1.62.07-9.82h-.64l-.54-1.3-2.37.01.02-3.13-6.24-.08.15-4.76-.24-.27.37-1.72-.2-1.35-.8-.13.05-2.8.79.2.38 1.16 1.18.11-.01-9.31.26-9.27 1.54 1.81 1.72.12 2.65-1.27 2.28-.48z"/>
    <path region="30" short-name="20" long-name="State Senate District 20" value="1" d="m467.6 293.4 1.55-.2.94.6 1.25-.39 1.55.06-.01.77.76.8 3.07.11.06-2.1h1.28l.21.59 1.5.02.05-1.35 2.26.52 1.13-1.94.93-1.23 2.12-1.92-.32-1.72 3.05.74.01-2.16h-.76l-.04-1.37.96-.61 1.35-1.8.46-1.6-.08-.71 1.27-.01 1.8-1.4.8-.09 2.07 1.24.9-.47.64 1.1.81 2.05 2.35-1.38-.05-.63 1.36-1.43.93-1.63 1.53.1 1.17.47.4 1.34 1.54.92.11 1.73-1.46.44.34.98-.1 1.3 1.72.15.26-.51 1.2-.17-.02 1.33 1.04.01.08 1.72-.98.04.02 2.31-1-.03-.15 1.56-.55 1.05 1.87 1.34-1.83 2.3-2.44 4.1-1.29 1.46.44 1.4 1.52 3.22.35 2.09 1.5-.16 1.43.15.8 1.1 1-1.14.5.81-.02 2.25-2.28-.22-.01 1.53-.3 1.06-.81.8-.4 1.18.18.67-1.28.64-.54.94-1.2 1.26.14 1.38-1.19.06v-.81l-.65-1.07-.87-.4-.94-1.14-.71-.33-.6-1.06-1.22.4-2.88 2.88-2.1-.08-.71.75-2.27-.07 3.48-2.77.28-.55 1.13-.6.63-.8 2.64-2.52-1.66-1.11-1.43.82-.63-.83 1.13-2.2-1.26.05-1.79-1.37-.84-1.3-.53.3-1.1 2-2.14 1.34-.5.53-.67 1.57-1.72-.39-5.03-.08-1.1-.13-.17 2.17-1.3-.52-1.26.28-1.84.98-.1.84-1.99.12-1.64.82-1.62 1.14-.68.9-3.05.85-3.39 2.28-1.07.7-.63-.48.52-1.17-1.59-1.05 1.34-2.34-.52-.9-1.54-.57-.57-.47-1.3-.21-.44-1.43-1.01-.1-.18-.83v-3.08l.7-.9.1-1.92 1.2-.37-1.13-1.58.62-.73 1.97.04.37-.22.02-1.67.75.02.33-3.05 1.17-1.04.87-.06.4-1.35 1.04-.75z"/>
    <path region="31" short-name="28" long-name="State Senate District 28" value="1" d="m639.88 532.3 15.66-.25-.14-8.22-.1-9.9 13.06-.1 2.05-.06-.02-2.9 2.98-.05.03 2.9 6.06-.06.03 3.01 11.97 5.84 2.07 1.38 2.76.99 13.41 6.6 8.94-.02.35 7.38.44 10.81 13.59-.14-2.47 3.45-1.51 2.37-.3 1.86 1.9 4.12.46.42 2.05.16 1.12.47.93-.03 2.65-1.33 1.05-.3 2.12.26 1.11.64 4.1.3 3.36.98 1.12.44 1.85.27.84.78 2.38.08 4.03.92 1.08.06 1.77 1.36 2.16-.34 1.6.18.56-.48h.98l.87-.99 4.56-2.08 2.78-.13 1.03-.3 1.65-1.05.57-1.92 1.32-2.71.84-.64-.8-.76-1.04.1-1.69-.7-.57-3.93.16-1.25 1.65-.3.32-1.96.41-.79 2.09-.89 1.8-1.45 2.63-.42 2.21-1.4-.2-3.38.3-.97-.36-.86-.23-4.72-1.8-1.04-1.34-1.51v-1.17l10.55-.2.09.64.48 1.33-.14 1.37.62 1.7-.07 2.24-.53 1.13.03 1.69.8 2.3 1.7 1.06 2.11.58.85 1.56.7 2.32-.07.35-1.48 1.31-1.34.84-.29 1.96 1.27 1.59.37.96-2.04-.24-.91 1.6.4.78 2.2.1-.1 1.1-1.72.22-.38.8.53.95-.62 1.26-3.13 2.89-.62 1.77.18 1.73.92 1.32 2.17.57 8.94 3.87.86.51 1.93 2.7 2.06 1.74 1.25.66 1.77 1.65.86 1.02-.56.55-1.62.18-.46 1.37-1.06.52-2.27-.52-.2 1.08 1.22-.06.8.54-.64 1.41-1.18 1.19.02 1.27-1.27 1.18-1.62.23-1.78-.12-2.1.1-1.06-.27-.83.23-1.16 1.18-.27 1 .99.85 1.35-.16.92 1.2-.51.73-1.6.75-3.9 1.4-2.23.6-3.17 3.29-1.3 2.03-2.05 2.61-2.31 1.61-.58.74 1.23 3.9.97 3.8.7 1.77-1.35 1.3-.46 1.28.3 1.34-.47 1.71.03 1.17-.39 1.55.74 2.07-.28 1.73 1.22 1.18-.77.42-.24 2.06-1.48 1.37-.8 2.23-.06 1.37-.45 1.06.88 2.18-.34.79-1.07.66-1.64.35-.63.98.77 2.57.62 1.08-1.32.87-.95 1.47-1.13.54-.74 1.84-1.88 1.14.58.8-.3 1.4.16.91-.6.73-3.32.06-.25.33.88 1.87.09 1.26-.86 1.3-.37 1.58-.76.77.42 2.67-.72 1.37.46 1.05 1.08 1.14-.22.84.53 1.46-.28 1.97v3.25l-1.59 2.15.27.48 2.48 2.23.12.91-.63 1.2.93 2.3.88 3.08-.58 2.05-.76 1.24-.05 1.61.23 2.9.56.76 1.48.91.8 1.95 2.98 3.62 2.2.96-.92 2.31.12 1.05.78.45 1.1 1.5 1.09.9 1.42.73.36.64-.54 2.15.8.63-.37 2.44-.06 2 .56 1.36-.47 1.3.88 1.63.37 1.52 1.46 1.98.22 1.02-.3 1.2-.74 1.35-.08 1.01.55.59-2.53 5.14-.56 1.65-.63.8-1.05 3.25.42 3.07.45 1.28.2 1.6-.05 1.84-1.2.48-.5.73-.22 1.8-.57 1.14.46 1.57-.89 3.78-1.71 4.11-.08 1.46.92.63.27.88-.21 2.03-.34 1.24.85 1.23.07 2.08-.69 1.97-16.1.2-8.83-.35.03 1.04.7-.03-.11 2.61-.45 1.58.43 3 .05 3.22-.75 1.51-1 2.54-2.1-.67-1.85.04-1.03.37-1.49.03-3.35 2.5-5.7.01-.06 2.58-1.5-.05-.05 2.92-3.05-1.9-1.94-2.08-.29 1.16-.92 1.89-2.01-.13.68 1.43-.67.34-2.63.67-1.24-.14.7-1.73-.02-.55.78-1.49-.77-.22.07-2.99-3.6-.74-2.53-.07.1-1.91.27-1.02.96-1.3 1.3-.69.94-.13-.07-2.34-.99-.82 1.28-.68-1.16-3.2-.11-3.5.04-6.4.08-.4.06-5.38v-5.1l-.13-3.84-.1-7.02.48-12.25-.12-12.53-.08-12.1-14.7-.17-11.1.46-12.92.06-16.38-.06-2.79-.18 1.5-.99 1.25-1.8.5-2.36 1.25-1.35.51-.97.15-1.13-.47-.8.5-.72-.3-1.7.05-3.04-.57-.47.48-1.03.74.03.37-1.27 1.03-.98-.57-.6.69-1.4.29-1.22-.3-1.52.47-1.53 1.2-1.8 3-1.8 1.29-.92.88-2.47-.1-1.49.56-.47-1.29-2.7.07-.87-.6-1.45.34-1.85-.46-.87.54-.97v-.88l.57-1.26-.74-2.3-.9-1.32.47-1.69.62-.34.8-1.65 1.38-1.54.25-.59-23.47-.02v-7.19l.17-10.82H640.2l.02-3.03-.84.02v-1.5l-.64-.01-.18-12.1h-3.13l-.05-1.54-6.08.04v-1.52l-1.45.03.02.75.74.74-4.52.03v.66l-1.43.04v.75h-1.5l-.75-.75-.18-18.8-.23-22.66 2.22-.02v-4.52l11.83-.42.08-.68-.86-1.1-2-.81-.97-.13-.65-1.2-1.76-1.87-.08-1.17-.42-.86.25-.92-.54-.29-.03-1.3-1.24-.17-.54-1.82-2.7-.1-.94-.43-.2-1.12-.72-2.15.24-1.27-1.1-.95-.61-1.9-1.97-2.96.53-.77-.45-1.6.56-1.49-.66-1.02-.98-.17-.2-1.5 2.47-2.39 1.3.36.8-.23.84-1.04-.06-.75-.96-1.9.52-1.2.74.05-.03 1.18.74 1.07 1-.08.92-1.13-1.11-.88.52-.71.74.1 1.66.8.6 1.57 1.2.2 2.03-.92 1.85-1.67.72-.1.93.45 2.89.35.92-.05 1.1.6 2.57-.41-.41-1.14.64-.86v-1.05l1.03-2.03 2.23-.52.95.32-.14-1.16-1.6.15-1.02-.38-1.46-1.43z"/>
    <path region="32" short-name="3" long-name="State Senate District 3" value="1" d="m455.09 59.45.12.28 2.44.07v-.3l14.04.23 6.24.08-.02 3.13h2.37l.54 1.28.64.01-.07 9.82 3.32-1.62h1.42l3-1.48.79.43.56 1.12 3.25.06-.14 5.04-.1 7.75-.44.32-.04 1.58-.43.67-.09 3.58.6-.55 1.94-1.03 1.27-.13 2.26.55 1.38.74 1.13 1.79v2.51l.56 1.32 1.19.97 1.14.42 2.16.26.94-.43 1.08-1.26.74-1.44 2.9-2.92 1.62-.72 2.1-.47 2.5.31 2.46 1.64 1.19 1.16.8 1.41.63 2.15-.03 1.2-.46 1.29-2.2 15-.65 4.72-2.17 16.31-.11 14.15-10.87-.18-4.62.02-1.17-.1-9.67-.15-18.84-.33-24.62-.73-20.09-.15-3.06-.32v-13.63l.13-8.12.42-17.74.1-13.22.1-5.72.14-21.04 1.18 1.01.72 1.03 1.54 1.49 2.97 1.77 2.54 2.17 1.36.08.11-1.85.5-3.02.72-1.32 1.34-.35h2.08l.08-1.54 3.03-.03.03-12.5 7.8.29.02 4.37-1.55.26-.04 1.52 1.7.04-.06-3.09z"/>
    <path region="33" short-name="7" long-name="State Senate District 7" value="1" d="m481.97 3.46 18.8-.03 13.5.18 13.65.12-.5.27-.55 1.76-1.31.06-1.33.82.08 1.23-.96 1.86-1 .86.5.84.09 1.22 1 1.46 1.72 1.6.84.48-4.15.1.04 6.32 4.7-.01.04 1.56h1.55l.02 3.15 3.17.02-.02 9.48.1 1.13-1.58-.93-.24-1.8-2.26-.54-1.93.37-.36-2.16-1.05.08-.82.69h-4.4l-.01 8.17.47.66-.53 1.52-.06 3.2-.3.29-1.6 3.38 1.84.2 1.39-.14-1.6 2.07 1.2.47 1.03-.16.18-.57 1.27-1.34 1.83 2.2.21.8.93.5-1.65 1.79-2 .93.36.54-.46 1.06.27 1.13 2.23.9.04 2.4 1.15-.14 1.23.65.08-2.27 1.56.03.02-1.57 2.42.03.04.8 2.8.19.08.6h1.82v.78l2.33.01V62l3.13.02v.77l1.56.01.79.78-.01.8h1.58v-.79l1.34.01.66 1.52 4.22-.3V62.8l.86-2 .3-1.57 2.99-.19 1.53.37-.15 21.06.92.76-.6 2.75-.05 1.36-1.92-.19-1.46-.81-.84-.81-2.48-.08-.1 3.16-5.03.34-1.37.75-4.61.2-.03.76-1.68.05-.94-.8-2.03-.02-.87-.74-.02-1.65-.31-1.5h-1.39l-.81-.96-1.27.13.01-2.37-.66.8-.25 3-1.5.04-.12.9.4 1.11-.78.9-.15.85-1.07.16-2.58-.08.15-6.3-1.67-1.5-.46-1.3 1.46-1 .12-.86-2.52-.07-.03-.5-1.28-4.79-1.9.5-3 1.87-1.54-.26.25-10.95h-3.13l-.14-1.2.08-3.57 2.2-.23-.98-1.5h2.5l-.4-.53-.7-2.08-.13-1.03-.53-.82-5.17-.06-.97-1.56 6.04.06.02-1.56-7.1-.05-2.13-3.13 1.48.02.01-6.26 3.14.02.01-8.15-2.1-1.33h-.94l-.97-1.34-1.98-.29-1.5.01.2-1.5-9.3-.16-2.05-3.14-4.67-.04-.15 1.37-.92-.25-.52-.65.1-14.6z"/>
    <path region="34" short-name="16" long-name="State Senate District 16" value="1" d="m469.07 345.73-.92-1.34-.6-.3.28-2.49-.52-.61.13-1.22.73-1.19 1-.89.01 1.83 2.57-3 .02-1.36 1.07-.9 1.2-.42 1.93-2.25.8-.27 1.58-1.17-.3-1.1.05-2.58 1.79-.26 1.44.17 1.69 1.33 1.32-.75-.06.88 2.24-.04.15 1.2-1.03 1.3.2 1.3 1.07.04.49.76 1.71 1.64.61.95-2.69 3.48 6.5.22.03-3.05 3.06.03.33-1.37 1.7.97-.03 1.1-.97 1.5 1.23.45 1.04-.11-.07 1.43-2.02 3.37-1.13-1.08-1.15 1.2.52.94 1.86.16-1.5 2.06.6.26 1.14-1.5 3.05-.08-.8.8.02 1.55-.77.02.01 1.54-.76.01-.76.77v4.56l-1.53-.03-.78.73v1.54l-.96-.01v.77l-1.36-.06v.78l-2.37 2.23-1.44-.03-.07.68-1.5-.06.02 1.54-.72-.03-.08 1.6-3.77-.15.74-.75.02-.76-1.53-.05.03-2.26-.76.2-.02-2.6.6-1.25-.19-2.55.17-1.9-2.09 1.45-2.04 1-1.66 2.38-.39.69-1.12-.03-.33.56-1.35.15v-1.55l-9.11-.2v1.54l-1.54-.03-.02 1.5-.78.53-1.1-.54-.37-1.21-1.42-1.15.56-.48 1.62-2.82 1.37.23.97-.76.1-1.4 1.8.2 1.8-4.6 1.51-.1z"/>
  </g>
</svg>
