<svg map="usa" type="va_upper" date="2023" variant="blank" title="Virginia 2023 State Senate" viewBox="0 0 1000 440.33" auto-border-stroke-width="1" auto-border-stroke-width-limit=".5" original-source='["https://www2.census.gov/geo/tiger/GENZ2022/shp/cb_2022_us_sldl_500k.zip"]' candidates="[{&quot;id&quot;:&quot;0&quot;, &quot;name&quot;:&quot;Democrats&quot;, &quot;margins&quot;: [{ &quot;color&quot;: &quot;#1C408C&quot; }, { &quot;color&quot;: &quot;#577CCC&quot; }, { &quot;color&quot;: &quot;#8AAFFF&quot; }, { &quot;color&quot;: &quot;#949BB3&quot; }]},{&quot;id&quot;:&quot;1&quot;, &quot;name&quot;:&quot;Republicans&quot;, &quot;margins&quot;: [{ &quot;color&quot;: &quot;#BF1D29&quot; }, { &quot;color&quot;: &quot;#FF5865&quot; }, { &quot;color&quot;: &quot;#FF8B98&quot; }, { &quot;color&quot;: &quot;#CF8980&quot; }]}]" version="1.1" xmlns="http://www.w3.org/2000/svg">
  <g regions transform="translate(0 -279.83)">
    <path region="0" short-name="15" long-name="State Senate District 15" value="1" d="m728.92 573.88.37-.35 2.07-.9.3.44 2 1.47-.05.88.96.12.8-.3.47.14-.21 1.01.62.92-.46.63-.1.98.63 1.11 1.36.06.71-.34v-1.1l1-.27.44.52 1.75-1.06.06 2.69-.05 1.45.5 2.75-1.22 2.44-.15.66.25.9.97.72 1.4-.26.46.75.55-.3.48 2.45 1.15.9.08.39-.32 1.17.34.41.95.4.36-1.27.89-.1.89 1.1-.02 1.06 1.02-.3 2 .14.87-.07 1.12-.73.71-1.43.12-1.73.52-.29.73.41-.01 1.66-.85 1.53-.09.45-.64.83.09 1.12.68 1.08 1.44.76.76.22 1.64-.2.66-1.1-.1-1.6.24-.7.87-.53 1.47.25.23 1.3-.43 1.24-1.99 2.52-.3.6-.8 2.83-1.02.36-1.27.88-1.26.13-1.77.52-.51-.01-1.84-.97-1.08.25-.58.46-.02 1.82-.46 2.21-.46.87-.99.7-.58.84-.43 1.7.07 1.6-.84.88-2.35.23.37-.41.6.11 1.16-.26.64-.66.13-3.28.44-1.04 1.01-.58.58-.81-.27-.96-.43-.64-.57-.35-.65 1.86-1.32-.43-.45.7-.83-.09-.33.47.4 1.23-.78-.33-.25-.92-1.93-.5-.26.77-.65.37.35-1.27-.27-.82-.8-.94-.73-.47-.97-1.45-.72-1.39-.16-1.15.03-1.1-.9-1.02-.49-1.29-1.38-.6-1.33-.15-.39-.69-.1-.98-.5-1.6.6-1.08.04-.6-2.15.02.04-.98-1.28-.6-1.06-.83-1-.53-.85-.2-3.78-.46-1.06-.03-2.2.23-.8-.25-1.42-1.51.56-1 1.66-.85 3.35-1.42-1.2-2.57 1.65-.3 1.35-.84.48-1.16.48-.53.99-.58.32-.78.15-2.7 1.04-.92.5-1.26z"/>
    <path region="1" short-name="25" long-name="State Senate District 25" value="1" d="m698.8 492.54 1.1-.84 1.3-1.58 1.48-1.16 1.35-.22.8-.62.68-1.17.18-.81 1.23-2.28 5.92-4.05 1.56-1.49 1-.14 1.05.9 1.67.68.82-.04 1.26.34.37-1.15.42-.58.1-1.43.79.8.73-.33 2.39 1.01-.23-.82-.3-7.1-.47-.56 1.27-2.44.21-.2 2.27-.8 1.02.3.53-.07v-.9l1.24-.31 2.03-1.3.26-1.3-1.35-.67-.94-.01.37-1.7 1.48.04.74.18-.2.7 1.4.21 1.07.35.87-1.49.7.33.36.97.87-.52-.5-1.32.35-.12 1.27.28.33.33.13.82.48.72 1.03.52.48 1.31.32.25 1.4.34 1.75 1.29.75.04.38-.53.93.03.95.9.6.03 1.23-1.16 1.12-.37.93 1.02.7.2-.16-1.27-2-1.3.21-1.05-.5-.57.8-1.56.21-1.17-.16-.37.12-1.57.38.09.36-.8-.14-.63.9-1.01-.2-2.01.06-.65.74-.28.02-1.07 1.42.02 2.65-.56.89 1.42 1.79 1.06 2.9.21 1.4-.38 2.82-1.04 2.88-.1 2.07-.74.9-.77 1.11-1.57.9-.98 1.6.18 2.37-.44 1.73.36.63-.16 1.67-1.41 2.05-3.2 1.41-.21 2.73 2.76.8 1.12-.49.53.17 1.33-.03 1.18-.26 1.93.24 1.35-.72.52-.09.74-1.2.76-.92.09-.32-.56-1.43-.06-.4.35.33.76.35.04 1.08.88 1.45-.33.52 1.35 1.06.62.78 1.06.1.42.95 1.07.12 1.04.64.24 1.68-.15 1.21 1.26 1.06 1.42.52 2.01.1.96-.64 1.02-.59.44.6 1.97 1.57.86 1.41.9 1.76.23 1.36.58 1 1 3.22 2.75 1.92.18.6.57.55.05 1.25.52 1.73-.03 2.89-.8 1.35-.03 1.7.3 1.65.09.63.34 1.26 1.31.7 1.2v2.03l1.16.38.82-.9 1.55-1.12.54-.63.4-1.64h1.3l.57.55 1.35.61 1 .73 1.01 1.85.56.21.9.92.54.89.85-.8-.02-.52-.5-.7.14-.6-.58-.39-.33-.96.53-.48 1.12-.24.57.35 1.5.31-.2.81.28.9.84 1.07.4 2.36v.68l1.51 1.18 1.03 1.11 1.57.9 1.03.42 1.03.83 1.6 1.05.01 1.16 1.65 2.94-.89.02-1.35 1.08-1.2-.22-.08 1.05.17.48-.75.4.46.72.49-.17 1.35.48.45-.77 1.11.38.85-.4 2.44 1.23 2.25.56.3.64.75.75.55-.01.02 1.32-.8-.24-.67.86.44.52-.13.68.68.2.76-.53 1.1.3.68-.17.57.31-.22.52.27.49 1.35-.12 1.51 1.62 1 .6 1.95.61.76.35.71.04 2.23.58 1.94.75 3.17 1.81.8.57 2.51 1.5 2.76 1.52 1.55 1.62.3.73 1.59.8-.21 1.32-.72 1.9.06.49-.32 1.92-.3.17-.16 1.22.22.23-.18 1.08-.74.87-1.1 1.77-1.08.71-.88-.22.07-.59-.35-.64-1.02-.06-1.55.12-.66 1.17.56.27-.01 1.81-1.06 1.12.14 1.62.7-.15.32-.67.97.6.7-.39.84.3-.15.92-.6-.75-.7.34-.64-.1-.28.73-.5.23.2 1.6-.94.1.27 1 .42.64-.65.45.17 1.09.66.28.17 1.4-1.55-1-.21.13-.09 1.33.43.07-.13 1.17.44.55.58-.11.1.87.91 1.32.24 1.03-.16.68-1.08-.54-.42.7.3.8-1.37-.51-1.22.5 1.1 1.46-.66.36-.76 1.23.1.84-.43.4.87 1.52.1 2.4.67.35.75.07.2-.62.59-.04.2-.52-.53-.47.35-.63.84.17 1.01.62.57.12 1.55 2.68-.3.6-1.2-.12-.83-.7-.92-.08-.2-.66-.49-.03-1.11.7-1.24-.65-1.33.1-1.3.52-.9 1.5-1.47-1.78-.76-.72-1.06-.5-.65.06-.75.39-1.56-1.63-.4-.25-.8.06-.48-.26-1.26-1.67-1.46.54-.74-.86-.16-.76-1.5-.92.29-.67 1.84-1.04-.23-.9-.43-.05-.32-1-.72-.83-1.03.18-1.15 1.37.18.42.91.72-.62.4-1.03 1.72-1.32 1.42.96.16-.32.9-.47.5-1.03.21-.2-.4-1.55-1.28-.63-1-.47-.1-.41-1.2.18-.85.1-1.94-.23-1.7-.56-1.36-1.64-1.32-.55-1.66-.42-.62-.66-.37-.22-1.85-.59-1.61-1.12-2.11-1.92-.18-2.01-1.63-.19-.63-.85-.1-.39.31-.56-.47.95-.59.27-.4-.18-.64-.88-.1-.47-.58-.48-.08-.75.76-.32.63-.81-1.6-1.32-.8-.42-.46-.86-1.56-1.49.43-1.05.02-.8-.72-.6-.78-1.04-.6-.47.06-.12-.9-.48-1.14-.59-.59-.6-.22.13-1.23.2-.3-.8-.88-.28-.69-2.15-.51.04-1.5-.4-1.49-1.24-1.86-2.29-2.05-1.38.14-.63-.93-.62-.41-1.44.22-.45-.38-1.6-2.55.4-.74-.38-1.39-.04-.81-.32-.59-.55.18-.68-.6-.93-1.28-2.48-.05-.72-.92-.22-.92.25-1.01-.34-1.4-.6-.68.1-1.3-.49-1.02-.66-2.89-.94-2.63-.7.38.14 1.4.91 3.05.3 1.42-.6.6-.42-.68-.57.88 1.5 3.24-.46 1.79-.43.42-.24.94.76.86.6.37 1.3.17 1.57-.38 1.7.69-.32.89-.96 1.9.9.13 1.26 1.4 1.2.96-.04.31.95 1.88.57.65.79.17.96-.14.74.32-.04.42.56 1.33.74.08 1.12.8 1.4.22.04 1.5 1.1 2.05.25 1.25 1.4 1.26.38 1.07.35.26-.17.83.28.77.9 1.3.61.38.95 1.92 1.05 1.9 1.24 1.53 1 .4 2.08-.09.96.18 1.1.76-.33.65v1.55l.28.88.47.53 1.55.63 2.84.14 1.32.36 1.08.56.36.44-.77.38.48.78-.01.48 1.51.92 1.1 1.13.15.64-.25.58.2 1.41.9.9-.11.78.2.56 1.03 1.72-.03.27-1.2.85 1.88 1.4-.06.84-.34.23.92.96.47.78 1 .61.93 1.83.78.68 1.05.65.78.18 2.69-.07 1.45-.2 1.97.34 1.45-.1.83-.24.93.11 1.8-.07.31.26-.14.72.06 1.34-.7.07.94.9.1.51.67.3.94.74.8-.18 2.75 1.3 2.2.05 1.04-.15 2.98.55 1.4.69.63.68 1.06-.36.77.23.26.62-.57.94-1.09.74-.98.02-1-.28-.45 1.01-.7-.25-.2.7-1.07.27-.75-.16-.74.44.1.94-2.1-.5-1.08.24-.89-.17-1.07-.64-.55 1.05-.57 2.33-.75.4-.75-.09-.7-.6-.88.06-1.99-.96-.7-.97-1.24-.5-1.02-.82-2.2-.15-.4-.94-.48-.6-.56-.18-1.19.06-.5-.33-.13-.57-.83-.64-1-.13-.03-.72-.59-.54-.49.23.17.77-.7.23-.6-.35-1 .09-.41-.23-.3-1.02.13-.6-.7-.28-.2-.43-.75-.2-.09-.53-.73-.7-.68-.01-.53.73-.77.2-.3-.3.39-.95h-.67l-.46.59-.83-.77-1.03.1-.37-.6-1.66-1.25-.81 4.42-.13 1.03.06 1.32-1.61.67-1.87 1.27-.66.2-.9-.06.6.9-.91.49-.49-.2-.85.14-1.54-1.14-.35-.81-.48.1-1.72.86-1.35-.54-1.79-.1-1.16 1.33.28 1.43-.04.78-.5.66-.63-.3-1.17-1.65-1.1-2.4-.33-.51-.71-.28-.34.21-.6 1.48-2.25 2.23-.76.48-.89-.11-1.53-1 .25-1.08.9-.9.51-.84.92-2.33.29-1.18-.58-1.03-1.19-.28-1.6.73.22 1.28.82 1.56-.17.75-2.28 1.03h-.65l-.74-.58.3-1.27v-1.16l-.49-.43-1.7-.05-1.87.87-.73.9.04 1.88-.13.86-.34.5-.7-.05-1.67-.65-.82-.16v-.9l1.35-.71.7-.75.2-1.02-.24-1.21-.5-.65-.28-1.02-.59-.47-.89.04-1.97.75.1.62 1.1.42.17 1.03-.34.3-1.13.11-.77.38-1.27-.3-1-.54-.79-.9v-.3l.82-1.04-2.46-.73-1-1.26-2.26-1.23-.44.93-1.02.19-.55-.29-.82-.86-.14-.55.3-1.28-.98-.15-.92-1.03-1.73-.08-.8-.84-.3-.78.77-.24.61.2.45-.27-.37-.96.9-1.25.2-.94-.56-.76-.63.48-.53.05-1.47-.52-.1-.42-.94-.45-.43.78-1.89-.22-.37.73-1.83.58-.58-.1-.56-.92 1.1-1.53-.06-1.39-.23-.55-1.18-.55-.56.13-.34.52-.03 1.16-.5.24-.74-.18.43-.7-.17-.66-.46-.26-.83.1-1.56.46-.82-.23.55-.66-.82-1.2.95-1 .65-1.21-.6-.57.2-.43-.34-.88-.46.17-.41-.75-.5.04-.14.92.66 1.77-.6.44-1.3-.66-.39-.92-.84-.55-.45.36-.67 1.07-1.13-.2-.95-1.36-.01-.85.43-.68.01-.8-.52.08-.94.63-1.38.23-.46-.7.05-.76.8-.15.73.45.5-.44.3-1.06-.27-.58-1.47.33-.68-.35-1.08.33-.43-.23-.48-1.28.8-.72 1 .07.15-.44-.9-1.13.01-1.68-.26-.43-1.99.48-.54-.94-.52-.29-1 .48-.65.99.07.54-.47 1.09-1.52-.36-1.04.23-1.12-.62.25-.69 1.26.21.26-.33-.9-.6.38-1.75-.8-.5-.39.4-.92-.32-.59-.59-.52.05.1-.86.73-.1.5-1.17-.97-.3-.66.02-.4-.7.2-.52-.3-1.34.3-.91-.19-1.27.74-1.28-.76-.61-.08-.57-.48-.34-.4-1.54-.76-.6-.31-.81-.81.24-.4.45-.77.3-1.02-.13-.84.8-.75.04-.4-.66-.57-.2-.15-1.27-1.13-.63-1.38-.39-.48-.37-.43-.85-.49-.44-.3-.82-.89-.05-1.11.8-1.34-1.05.31-.5h.8l-.99-1.45-.69-.08-.5-1.12.26-.4-.75-1.27-.74-.48-.54 1.13-1.02.2-1.18-.8-1 .02-.38.7-.56.12-.23-.55.48-1-.55-.37-.27-.72-.73.29-.65-.1.21-.87-.7-1.02-.64-.07-.17-.53.08-1.62-.5-.2-1.59.14-.58-.56-.7-1.08-1.52-.64-1.35.13-.5-.76-1.56-.34-.84-.53-.27-.77-1.07.3.35-.98-.32-.5-1-.3-.6 1.2-.47-.55.08-2.89-.1-.74-.89.7-1.47-.53-.4-.86-.78-.2-.76-.96z"/>
    <path region="2" short-name="6" long-name="State Senate District 6" value="1" d="m131.63 623.03 1.78-1.25.54.2.53-.5 1.16-.4-.03-.44.87-.42.52.3 1.26-.9.18-.56 1.08-.64.87.29.5-.4.1-.51 2.77-1.06h.72l.93-.83 2.15-.43 1.53-.68 4.13-1.31.8.03 1.42-.67 1.1-.12.52-.28 1.05-1.04.03-1.01.58.17.63-.37.83-.15.67-.64.35-1.1.78-.77 2.08-1.73 4.45-3.9 6.13-5.4.11-.17 9.12-7.78 7.35-6.52 1.42-1.44 9.83-8.6.05.79 1.2-.36-.03.8.5.27.88-.55-.12 1.17.4.4-.13 1.13.72.11.55-.98.82.62-.6.5-1.28.5-.1.85-.95.14-.26.33.1 1.2-1.4-.25-.67.75-.6.11-.22.46-.96-.16-.86.4-.43.94.1 1.03.33.2.08 1.13.55.34.32.65.58-.43.79.17.54.68.1.73 1.1-.21 1.1.35.43.82.82-.04.42.6-.62 1.1.43 1.37.53.7 1.07.57-.13.56-.65.35.15 1.7-.6.49.24.77-.46.35-.02.68.57.46-.28.92.8.7-.22.6.82.62.58 1.06.7.1.34.73 1 .4.42 1.36.26.28 1.79-.25.04.44 2.14 1.95-.58 1.03.66.6.61-.26.1 2.81.8.45.96-.25.51.69 1.76.35 1.47-.57.47-.4 1.66.22.73.27.45.78.55.38.81.09.72-.22.5.25v.6l.75.72.61.23.08.82.53.6-.36 1.72.56.55-.48.98.38.41-.11.56-1.55.8-.33 1.92-.95 1.02-1.07-.48-.42.63-.8.28-.01.66-1.56 1.09-1.76.14-1.17.94-.76-.3-1.15.4-.65.63-.55.16-1.08-.23-.4.67-1.04.33-.34.48.64.98-1.4.93-.45-.1-.84.46-.88-.47-.54 1.86 1.1 2.3.26 1.22-.09.44 2.2 2.9.94.87.94 1.29 3.5 3.75 1.05 1.67 1.53 3.56 2.95 8.91-.98.46-2 .52-1.55.7-.37 1.13-.63.5-.82 1.08h-.36l9.01 11.4 7.3 9.31 3.33 8.06 6.22 14.91 1.56-.6-.08 1.6-.52 1.52-1.28.35-.7.44-2.29-.04-10.67-.07-10.65-.27-11.37-.3-1.37 3.25-9.5-.03-15.92-.04-3.02.01-4.33-.17-10.26.01-20.1.18-1.78-.19-15.14.25-8.38.06-17.85-.01-6.83.04-16.64-.06h-27.6l-1.8-.64-11.7.12-11.52.02-10.05-.02-7.8-.1-2.73-.28L0 711.3l.27-.57.89-.17 1.9-1.6.15-.9 1-.3.58.28 1.18-.34.6-.42.65-.88 1.05-.57.31.14 1.04-.57 2.01-.16.3-.36 1.11-.52.33-.52 2.47-.78 1.03-.79.14-.46 1.89-.38.51-.22 2.11-.15 1.34.58 1.91.22 1-.16.4.14 1.65-.3.5.1 1.53-.18 1.4-.5 1.9-.89.06-.4 1.1-1.05 2.2-.9.87-.13 2.06-1.14 3.21-1.02 1.02-.48 2.3-.35 1.45-.62.74-.08.67-.37.96-.12 1.1-.51 1.17-.24 1.94-.65 3.01-1.21 3.93-.06.57-.34 1.26.05 1.15-.19.64-.99.37-.15-.12-1.04.25-.47-.68-.5-.02-1.06.43-.63-.5-1.1.17-.32 1-.19.5-.42 1-1.61.9-.93.55-1.13-.05-1.29-.34-.9.34-.4.9-.39.51-.56 1.4-.4.17-.6-.21-.84.35-.59 1.02.43.42-.31 1.53.3.64-.39 1.81-.16.6.81 1.1.4.77-.09.91-1.3 1.15-.36 1.12-.09 1.07.3 1.1-.72 1.1-.53 1.67-.17 1.8-.98 1.74-.12.17-.75 1.93-.67.64-.62.61-.1.1-.72.64-.49.38-.66-.88-.92 2.07-2.56.24-.64-.44-1.45.2-1.45.46-.5-.8-.79-.87-1.15.12-1.29.74-.86.73.13.36-.9 1.04.2.77-.47.91-.96.03-1.11.24-.7.7.23.82-.46.26.28 1.54-.39.36-.25.48.62.54-.4.8-.01.57-1.05.66-.06.64-1.1.86-.63 1.32.32.3-.7.21-1.7 1.2-.47.87.36.35-.82.13-1.54-.49-1.32-.08-.92.39-.37.64-.03.13-.57-.69-.8-.22-1.03.32-.36.03-1.7-.51-.91v-.6l.5-.64 1.68-.79 1.45-.9 1.31-.64.93.13 1.07-1.04 1.22-.45.32-.83.37-.2 2.15-.35 1.02-1.29 1.97-1.5 1.29-.6.59-.86 1.6-.84z"/>
    <path region="3" short-name="31" long-name="State Senate District 31" value="1" d="m693.37 330.95.72-1.15-.08-1.19 1.15-2.64.96-1.4.04-.8.8-2.05-.06-1.04.58-1.61.57-.78.61-1.36 1.45-1.94.5-1.93-.44-.06.03-.84.93-.49.12-.7.72-1.77.31-.42.05-.93.64-1.78 1.47-2.67.58-.5 1-.43.24-.43 1.4-.04 1.22.45 1.23-.2.64-.57.54-.07.69.37.62.72 1.79.95 1.77.46 2.39.78 1.19-.15.83.28 1.26-.02 1.16-.5 1.4-.13.57.64-.1 1.14.22 1.28 1.78 2.24.31.7 1.04.7 1.42.5 1.67 1 1.4.23 1.16.53.71.91 1.14 1.1 1.3.94.3.5-.14.73-1.75 1.82-.27.98.1 1.08-.42.88-.87.54-2.28.55-.65.55-.68 1.16-.57 1.5-.43 1.93-.29.34.07 1.37.25 1.45.55 1.05.55.36 2.41.85 1.09.57 1.04 1.37.9 2.13.8 1.55 1.17.57 1.83.29 1.68.57 2.2.36.65-.04 1.6.43.66-.13.6.23 4.12-.26 1.43.8-5.1 6.64-6.75-4.52-.8-.68-5.54-3.53-.48 2.14-.34.6-.8.2-.58-.44-.34-.67.32-.99-.82-.42-.73 1.53-.75.57v1.77l-1.43 3.32.02 1.66.16.75-.7.34-.64.78-.88 1.53-.7.41-.63-.12.33 1.14.59 1.38.61.63-.32.7-1.22-.57-1.83-.08-.3.93-.3 1.58-.27.27-1.08.12-.58 1.23-3.22.29-.1.73-.75-.47-.72-1.04-2.1-.15-.28 1.18-.28.2-.63 2.58-1.8 3.58-1.45.95-.62 1.8-.33 2.23-.1 1.36-.4 1.28h-1.28v1.68l.68 1.28-1.51-.39-1.03.3-.44.82-.8-.08-1.23.41-2 3.36-.4.45-1.1.6-.48.92.67 1.11-.13 1.16.19 1.14-.46 1.3.34.48 1.24.95.41.56 1.52.54-.27.74-.68.42.44.7-.34.4-1.57-.14-.83.41-.02-1.05.3-.46-.52-.62-1.84-1-.64.08-.82 1.15-.91.76-.6 1.21.84.22.4.67 2.27 1.87.85 1.9-.03 1.36-.66.89-1.37 3.93-.02.4-.78.34-.77 1.8-.96-1.09-1.5-.68-1.57.22-.93-.37.35 1.01-.55 1.11.42.16-.1.7-1.19-.21-.45-1.35-.52.2-.45-.85.85-.49.2-1.34-1.48-2.74-1.42.7-.6-.53-.27-.7.3-.7.81-.68-.05-.34-1-.42.1-.92-.47-.86-.96-.3-2.03-.07-.23.5-1.05-.55-.23.37-.91-.29-.64.35-.59-.47-1.93-.76-.74-.56-1.31-.42-.66-1.1-.68-.27-.88-1.16.59-.37-.37-.5.11-.66-.76-.34.29-1.18-.4-.3.3-.75-1-.08-.39-.45.15-1.07.5-.85-.45-.68.73-.41-.2-.62-.64-.07-.5-1.83.68-.3-1.22-.68-.39.27-.99-.53-.86-1-1.74-1.35-.49-.1-.86-1.06-.36.13-.7-.6-1.15-.34-.73-1.14-.2-.7-.8-.6-.36-.9-.58-.6-.16-1.4-.83.09.06-.79.44-.44 1.44-.6.23-.52 1.24.18.82-.11.35-.88 2.17-.15.06-.68 1.32-.13.03-1.27-1.23-.51-.38-.56v-.7l1.37-1.85-.1-.47.66-.84.9-.48 1.17-.36.55-1.39.54-.53.4.08 1.73-3.26 1.45-1.56 1.43-1.76-.01-.49 1.06-.9.83-.14 1.04-.82 1.08-1.85 1.8-.4 1.34-1.04.37-.77 1.09-.57 1.28-1.03.92-1.09.69-.38.64-1.38 1.22-2.08.43-.32 1.32-.13.84-1.8.24-1.26 1.18-2.86.57-.32z"/>
    <path region="4" short-name="11" long-name="State Senate District 11" value="1" d="m502.6 560.18 1.26.23.8-1.52 1.55-.17.56.13.76-.54.98-.96.8-1.02.62-.3 1.14-.14.56-.65.28-.86 1.57-.72.02-.87.4-.8.13-1.03 1.5-1.65.66-.46.3-1.11.54-.95-.33-.97 1-2.03.55-.62-.22-.43.65-1.31.37-1.2.45-.59.56-1.19 1.22-1.6.68-1.21.2-.69.88-1.4.44.51.78-.75 1.03-1.37.82-.44.56-.59 1.28.77.3.69.52.2-.15.79.59.31.38.72 1.25.18 1.08-.94 1.06-.15 1.16-.77v-.78l.5-.52.3-1.1.74-.51-.25-.38.59-1.87-.46-.5.7-1.16v-.43l1.04-1.12-.03-.63-.46-.28-.27-.75.5-.47-.1-.85-.61-.77.08-.78-.65-.71.8-.25.47.57 1.09-.38.96-.63.8-.03.51-.8 2.21-.57.1-.41.9-.5 1.54-.44 1.05.08.85-.63 1.19 1.11.32 1.05-.08.48.53.33.17 1.03.77-.15 2.4-.06.13.64 1.26.97.88-1 .66-.42.64-.72.27-.93.48-.6 1.22-.96 1.65-.63-.25-.58.25-.82.6-.9 1.16-1.26 1.51.06.95-.43.18-.53 1.23.14 1.06-.6-.22-1.34.28-.9.86-1.45-.1-.5-1.18.36-.5-.21.22-1.3-.12-.4 1.27-1.19.48.14 1.19-2.04.02-1.53.98-1.57 1.2.12.65-.24.07-.49 3.27-3.22.4-.06.58-.72.52-.06 1.28-.54 1.62-.95-.13-1.2.93-.63.6.14.25-.55.12-1.52-.7-.81.54-1.06-.17-.89-.82-.68.27-.3-.33-1.07 1.02-.86.05-1.17.43-.17.15-1.34.45-1.68-.16-.77.4-1.1 1.37-2.08.5-1.06.04-1.07.84-1.98.9-.73 1.32-1.62.02-.3 1.27-.59.51-.41.56-1.18 1.04.1.95-.46 1.04-.92 1.45.64.78-.42.59-1.07-1.09-.83.62-.45-.23-1.35 5.02 2.22 3.21 1.47 8.37 3.34 9.57 3.64 3.04 1.2 2.38 1.1.76.2 2.53.99 2.92.96 5.32 2.25 10.68 4.79 2.64.52.67-.36 1.2.05.37-.57.83-.63.79.13.6-.3.62-.63.7.17.53.47 1.9-.22.55-.49.43 1.5-.26 1.13-.6.8-.47 1.38.08.98-1.35 1.34-.85 2.19-.67.77-.52.15-.1.77.34.73.9.59-.07.59 1.1.35-.34.7.28.68-.16.6.74 1.8-.19 1.44-.36.52-.14 1.15-.68.16-.07.96.59.45.76-.3.43.68.6.13.35.8.62.34.58-.13.26.47.8-.47 1.3.58.35-.57 1.47.36 1.2.63.56.6.38-.47 1.27.13.52.37.32 1 1.43-.44-.13 1.3-.41.6.3.38-.34 1.58.17.72-.38.38-.2 1.11-.37.66.12.41.82.86-.1.68-.52 1.26-.65.38-.17 1.15-.66.54-.8-.93-.67-.45-1.08-.3-7.12-3.53-3.3-1.66-2.53-1.48-2.27-.34-1.43-.74-2.97-3.19-1.62-.6-2.76-.87-1.12-.48-3.58-2.25-7.1 10.26-12.08 17.38-2.71 3.85-.63.44-.23 1.4.38 1.84-.14 1.2-.35.42-1.3.62-1.79-.11-1.3-.61-1.07-.26-1.37.24-2.8 1.26-1.68-.33-2.03-.01-1.74 1.24-.67.77-.83.55-.54.92-.34 1.63-.61.52-.32.78-.16 1.44.21.52 1.14.96.45 1.2-.18.46-1.15.74-1 .04-.47-.36-.67-1.52-.84-.89-.54-.3-1.15-.03-.42.4.02 1 .65.78.1.86-.58.47-1.5.15-.53.24-1.02 1.63.34 1.78.4 1.3-.36.65-.87.4-.88.02-1.05.34-1.1-.43-1.91-.31-.96-.33h-1.19l-.61-.5-1.48.02-1.27.93-1.18.58-.24.36-.03 1.15.32.6 1.23 1.44-.07.96-.9.6-1.25.46-.44.61-.03.55.33.89 1.72 1.46.3.6-.26.62-1.1.56-.06 1 .32 1.22-.28 1.06-.71.25-.85-.07-1.02-.33-1.13-.91-.62-.1-1.21.72-1.17 1.23-.96-.27-1.05.36.75 1.77-.4.95-.95.6-.51.6-.7.22-1.18.93-1.25-.2-1.48-.79-.42.38.96.64.41 1.05-.18.9-.4.4-2.32.81-1.55 1.18-1.13 1.31-.4.18-.94 1.19-1.24.53-.52.42-.24 1.33-.37.68-.55.2-.79-.03-.64-.45-.83-.19-.46.46.44.65-.04 1.04-.87.49-.92-.3-.88-.67-.84.17-.02.85.8.94.04 1.33.38 1.44-.85.74-1.45-.76-.6-.58-1.9-1.41-1-.39-.32.4-.2.96-.76-.07-.75-.65-.9-1.12-.58-.99.02-.89-.54-1.52-.74.03-1.6-1.2-1.56-1.4-1.05-1.34v-1.37l-.49-1.05-2.37-.34-.75-1.02-.24-.63-.86-.88.18-.74.49-.83-.92-.27-1.57.1-2.1 1.79-.48-.56-.03-1.39-.57-.32-.8.5-1.09.15-.94.78-.83-.17-.54-.6-1.32-.8-1.6-.3-1.42-.65-1.26-1.39-.4-1-1.07-1.46-.6-1.31.05-.85-.39-1.12v-.68l-.34-.7-.88-1.2.02-1.35-.6-.66-.68-.1-.68-.48-.42-.93-.49-.37-1.4.18-.75.7-1-.03-.6-.55.18-.96z"/>
    <path region="5" short-name="30" long-name="State Senate District 30" value="1" d="m717.47 361.58.88.19.54.93.17 1.06.48.84.52.14.59 1.26.82.58 1.27 1.22.75-.04 1.23.77.97-.36.41.3.27 1.03-.24.7.45 1.87-.5 1.01.99.93.96.43-.12.7.25.52.62.36.91-.04 1.28-.62.37.7-.51.97 1 .72-.27.64.14.8.44.33 1.2.4.17.84-.53.83.18.42 3.6.33 1.2-.13.58-1.15.5.04.44.7.76 1.84.03 1.1 1.15.43.43 1.09-.5.05.36 1.08-.8 1.32-.37-.37-.65.14-.63.83-.65-1.04.4-.24-.02-.86-1.8-1.3-.22.33.47.63 1.05.77-.46 3.43-.28.36-2.04 1.26-1.65-.79-1.04 1.13-.66-1.41v-.37l-.88-.51-.96.71.2.72.67 1.23-.16.26.77.88-.44 1.43-.85-1.53-.7.02-.41-.46-.2-.74-.66.06-.2-.41-.04-1.19-.3-.47-.98.39-.53.5-1.55-.32-1.94.12-1.47-.25-.9-.35-.77-.61-1.68-2.04.28-.26-.41-.72-1.15-1.33-.58.12-.49-.63-2.26.65-.7-.56-.75.34-.15.96-4.77-9.18-.68-1.28v-1.69l1.27.01.4-1.28.1-1.36.34-2.23.62-1.8 1.45-.95 1.8-3.58.63-2.57.28-.21.29-1.18 2.09.15.72 1.04z"/>
    <path region="6" short-name="10" long-name="State Senate District 10" value="1" d="m659.57 481.1.12-.64 1.25-.74 1.05.15.84.75.48-.08.62.84.68-.17 1.46.31 1.26.72 1.06.16.61-.2.43-.53.66.46.34-.84 1.09.46.25-.16 1 .4 1.43 1.45.7 1.06.44.2 1.4-.42.75.54 1.43.17.36-.36 1.31.62.21.27 1.25-.06.83-.58.76.92 1.2.42 1.4-.55.72.63.96.38 1.7.18 1.36.51.34-.38.87-.28.24.76 1.4.79.55.53.25 1.02.56.05.03.61.73.41h1.52l.84.38.48 1.28-.28.36.76.96.78.2.4.86 1.47.52.9-.69.09.74-.08 2.89.47.54.6-1.19 1 .3.32.5-.35.98 1.07-.3.27.77.84.53 1.57.34.49.76 1.35-.13 1.52.64.7 1.08.58.56 1.58-.14.51.2-.08 1.62.17.53.64.07.7 1.02-.21.87.65.1.73-.3.27.73.55.37-.48 1 .23.54.56-.11.37-.7 1.01-.01 1.18.79 1.02-.2.54-1.13.74.48.75 1.26-.25.4.49 1.13.7.08.98 1.44h-.8l-.31.5 1.34 1.05 1.11-.8.9.06.3.82.48.44.43.85.48.37 1.38.39 1.13.63.15 1.27.57.2.4.66.75-.03.84-.81 1.02.12.77-.29.4-.45.8-.24.32.8.77.6.39 1.55.48.34.08.57.76.61-.74 1.27.18 1.27-.3.91.3 1.35-.19.51.4.7h.66l.96.29-.49 1.16-.73.1-.1.87.52-.05.59.58.92.33.38-.4.8.5-.36 1.74.89.61-.26.33-1.26-.2-.25.68 1.12.62 1.04-.23 1.52.36.47-1.09-.07-.54.65-.99 1-.48.52.3.54.93 1.99-.48.26.43-.02 1.68.91 1.13-.15.43-1-.06-.8.71.48 1.29-.55.4-.57-.1-.95.7-.86.14-.34-1.17-.56.74-.55.31-.98 1.13-1.74 1.1-.75-.09-1.12.14-.06-.38-.94-.9-1.24.41-.82-.7-1.27-.59-.51-1.07-.36-.26-.37.85.46 2.11.45.4.35.93 1.32 1.21.95.46 1.66.1-.44.75-.84.72 1.05 2.76-.83-.15-1.05.1-.3.39-.75-.96-.36.4-1.08.1.11 1.16-1.09.31-1.3-1.41-.6.33-.15.68-.65-.3-.83-.88-.57-1.91-.93.27-1.02-.31-1.13.62-.82.13-.66.8-.8.49-.4.53-.82.34-.89.07-1.09-.3-.66-.58-.7-.1-.44-.54-1.56-.75.09-.5-.4-.49-1.5-1.01-.85.35-.55.48-.92-.37-.89 3.1-.5-.19.12 1.47-.4 1.3-.22 1.53-.28.35-.23 1.23-.47 1.19.45 2.5-.16 1.07 1 .41.34.93.05.78 1.65.58-.23.63.45.7.73.15-.06.6.29 1.1-.89.27-1 .04-.75 1.31-1 .06-.98.35-.1.47-1.08.95-10 9.08-5.7 5.22.03 1.17-.16.92-.73 1.08.01.43-.5 1.3-2.09.54-.76-.05-.85.68-.32-.1-.7.6-.53-.55-.64.6-1.64-.59-.34.37.36 1.55.07.92.53.84-.66.27-.2.8-.43.47.17.81-.09 1.77.45.57 1.52.03.96.83.06 1.34.22.38 1.56 1 2.36.05 2.24.56-.01 1 .28.54-.59.8-.92.49.27 1.61 1.14.77 1.46.43 1.82 1.72.18 1.47.52.65.59.3 1.67.28.77-.53.3-2.06.9-.23.8.37.44-.24.15-1.79.88-.48.86.6.4 1.25.66.93.66-.14.37-.54.17-.85 1.78-.11.32.7.26 1.35.98 1.7.44.33-.15.64.34.8-.52.06-.45.56.1.7-.6.1v.77h-1.62v.56l-.73.38-.48-.2-.41 1.12.44.34-.57.67-1.31-.22-.62.62-.6.07-.47.53-.95.57-.7 1.24-.89.3-1.33 1.17-1.15.07-.75-.34-2.46-.37-1.27.3-.09.36-3.28-1.3-5.1-1.65-.96-.2-8.37-2.52-8.7-2.53-1.43-.37-12.49-3.55-11.29-3.32-.45-10.72-.44.66-.99.69-1.42-.24-.17.67.5.56-.32 1.43-1.61-.84-.64.26-.08.9-.4.8-.77-.23-.65.59.2 1.2h-.91l-1.18.58-.19.65-1.3 1.12h-1.35l-.23-.32.13-.82-1.02-.32-.8.94-.65 1.06-.62-.72-1.2.42-.02 1.18.38.32.23 1.29-.29.43.6.8-.13.41-1.08 1.1-1.6 1-.04.66-.55.14-.56.7-.6 1.22-1.26 1.28-.89-.63-.29.52-1.12-.05-.27.53-1.03.64-.16-.75.05-1.63.68-.64-.77-.51-1.54-.56-.5.81-2.1-.8h-.82l.1-1.09.43-.74-.69-.06-1.28.18-.15.4-1.14.9-.9-.15-.44.25-.72-.17-.58.4-.34.78-.79.87-1.63.69-.7.57-1.41.34-.5-.23-.75-.84-.56.12-1.28-.27-.87-.35-.64-1.24-.88-.5-.7-.04-2.77-1.38 4.07-2.77-.64-1.13-.77-1.94-.87-1.08-.46 1.2-.62.9-1.03 1-1.2 1.9-.47.45-1 1.38-.77 1.44.03 1.04-.24.46-1.16.4-.34.44-1.84.94-.45-.2-.8.17-.45.52-.35 1.2-.94.78-.73-.64-1.52.53-1.2-1.15-1.57-.06-.52.38-1.18 1.27-1.54 2.16-.42.25-1.9-.52-1.52-.46-2.37-.6-.1-.72.27-.33.09-1.05-.69-1.76-.3-.32-1.53-.46-.2-.25-1.78-.5-1.72.79-.28-.19-.92.29-.5-.48-.12-.6.15-1.52-.25-1.52-.36-1-.69-.6-1-.59-.29-1.1-.77-.02-.45-3.66-8.09-16.74.55-.2.37-.67.24-1.33.52-.42 1.24-.53.93-1.19.41-.18 1.13-1.31 1.55-1.18 2.32-.8.4-.4.18-.91-.4-1.05-.97-.64.42-.38 1.48.8 1.25.19 1.18-.93.7-.22.51-.6.95-.6.4-.95-.75-1.77 1.05-.36.96.27 1.17-1.23 1.21-.73.62.1 1.13.92 1.02.33.85.07.71-.25.28-1.06-.32-1.21.06-1 1.1-.57.27-.62-.31-.6-1.72-1.46-.33-.9.03-.54.44-.61 1.26-.45.89-.61.07-.96-1.23-1.44-.32-.6.03-1.15.24-.36 1.18-.58 1.27-.93 1.48-.02.61.5h1.19l.96.33 1.9.31 1.11.43 1.05-.34.88-.01.87-.41.37-.66-.4-1.29-.35-1.78 1.02-1.63.53-.24 1.5-.15.59-.47-.1-.86-.66-.78-.02-1 .42-.4 1.15.03.54.3.84.89.67 1.52.48.36 1-.04 1.14-.74.18-.47-.45-1.19-1.14-.96-.2-.52.15-1.44.32-.78.61-.52.34-1.63.54-.92.83-.55.67-.77 1.74-1.24h2.03l1.67.34 2.81-1.26 1.37-.24 1.07.26 1.3.61 1.79.1 1.3-.6.35-.42.14-1.21-.38-1.84.23-1.4.63-.44 2.71-3.85 12.09-17.38 7.09-10.26 3.58 2.25 1.12.48 2.76.87 1.62.6 2.97 3.2 1.43.73 2.27.34 2.54 1.48 3.3 1.66 7.1 3.53 1.1.3.65.45.8.93.67-.54.17-1.15.65-.38.51-1.26.11-.68-.82-.86-.12-.41.37-.66.2-1.11.38-.38-.17-.72.34-1.58-.3-.38.4-.6.14-1.3-1.43.43-.32-.99-.52-.37-1.27-.13-.38.47-.56-.6-1.2-.63-1.47-.36-.35.57-1.3-.58-.8.47-.26-.47-.58.13-.62-.33-.35-.8-.6-.14-.43-.68-.76.3-.6-.45.08-.96.68-.16.14-1.15.36-.52.2-1.44-.75-1.8.16-.6-.28-.68.34-.7-1.1-.35.07-.59-.9-.6-.34-.72.1-.77.52-.15.67-.77.85-2.2 1.35-1.33-.08-.98.47-1.38.6-.8.26-1.14z"/>
    <path region="7" short-name="13" long-name="State Senate District 13" value="1" d="m721.72 615.55.62.03.42.47.18.75.4.22.97-.22v.88l.55.19.27.75 1.57-.19 1.31.1 1.18.53.43.83.9-.14 1.8-.92 1.62-.16.78.12 1.55-.1 1.53.37 1.34-.1 1.06-.24.5-.54 1.9-.84.38.08.74-.54 2.35-.23.84-.88-.07-1.6.43-1.7.58-.84 1-.7.45-.87.46-2.2.02-1.83.58-.46 1.08-.25 1.84.97.51.01 1.77-.52 1.26-.13 1.27-.88 1.03-.36.8-2.84.3-.6 1.98-2.5.43-1.25-.23-1.3-1.47-.25-.87.54-.24.69.1 1.6-.66 1.1-1.64.2-.76-.22-1.44-.76-.68-1.08-.1-1.12.65-.83.1-.45.84-1.53v-1.66l-.72-.4-.52.28-.12 1.73-.7 1.43-1.13.73-.87.07-2-.15-1.02.31.02-1.06-.89-1.1-.89.1-.36 1.27-.95-.4-.34-.4.32-1.18-.08-.38-1.15-.91-.48-2.45-.55.3-.46-.75-1.4.26-.97-.72-.25-.9.15-.66 1.21-2.44-.5-2.75.06-1.45-.06-2.69.4-.63.2-.86.02-1.22.75-.01.22.99.98.34.73.5.03-1.21.74-.6-.82-1.14.37-.8.61.17.06-.94-.92-.31-.34-1.35.13-.46.8-.12.79-1.27.47-.39.8-.14 2.51-1.1 1.1-.81.42-.11 1.16.58.7.6.54.05 1.28.97.8.2.94-.14.51.64 1.33.51 1.16.16 2.27 1.88.82.2.95-.25.64.86.62.1.12.9.64.27.54.74.39 1.04.45.06 1.21.97.13.8 1.5 1.41.3.46.65.22.29.95.5-.57.8-.2-.45 1.42.45.3.9-.41.98.14.03 1.19 1.23-.48h.53l.5 1.26.6.74.27.81h.68l1.6 1.85 1.15.07 1.53-.1.55.4 1.08.43.5.5 1.02-.02 1.02.4 1.38.02.35.92-.11.4.4.62.62.3.57-.31.43.35 1.11-.67 1.11.49.68-.8 1.37.29.26.46-.39.76.46.55 1.46.4.55-.02 1.05-.96.54.45.06 1.17-.87.8.06 1.53.46.03.9-.64.26-1.24.64-.46 1.07.6.68-.62.35-.83.47.19-.27 1.67-.22.26-1.08.25-.07.74 2.35 1.36-.1.5-1.13.81-.88 2.05.74.6.51-.3.4-.84.66-.69.62-.18.76-.97.91-.1.43.87-.58 1.21-.2.99.64.4.12.51-.35 1.4.16 2.3-.56 1.17.36 1.07.59.65.03.41-1.17 1.5-.18 1.44.12.63.82 1.62-.78.5-.5.69-.48-.04-.88.38-.03.74-.84.47-1.11-.18-.53.94.09.45-1.82-.68-.86.17-.94 1.02.15.42 1.6 1.3.88.5 1 .82.52.66 1.29.92 1.37.05 1.25-.52 1.74-.9 3.22.28.28.17 2.1.1 2.07-.1-.17 1.15.66 1.32.85.25.52.52.31.9 2.47 1.5 1.21 1.7.48.91 1.23.66.83.11 1.78-.4.9-1.59.16-.97.41-.8.62-.55.56-1.75.11-1.32.64-.34 1.06 1.3.92.74.73 1.44-.58 1.06-.33 1.2.13 1.05-.15 1.43-.45.45.33.76-.67.52-.24.61.04 1.28.57 1.35-.33.66-.74.04.25.78-.25.25-.04 1.31-1.1.53.04.62-.32 1.17-.6.95.38.73-.16.42-.82.4-.65.05-7.1 3.64-7.82 4.26-13.75 8.57-3.45 2.2-2.31 1.32-2.96 1.94-5.08 3.43-6.16 3.97-12.36 7.51-14.08 8.07-10.12 6.64-.55-.58-.56.24-2.1-.74-1.2-.03-.61-.62-.82-.07-.5-.33-.76.16 2.75-15.34.97-5.68-1.09.26-.87.01-1.3 1.15-.6.73-1.19.5h-1.08l-.5-.43-1.35-.43-.45-.3H727l-1.53 1.09-.78-.5-.46-.65-1 .26-.44-.7-.75-.43-.3-.87-.68-.9-1.25.03-.16-.96-.96.2-1.42-.77-.53-.94-.82.24-.02.55.71.52-.13.53-.69.21-.68-.44-.37-.7.28-1.05-.04-.64-.44-.79-.58.54-1.1-.02-.85-.84-.1-.82.53-.95.56-.37.85-1.43-.25-1.46.15-1.11.87-1.04.38-1.96-.18-1.2.4-.79.42-2.28v-1.01l.33-1.52-.35-.72.32-1.61-.35-1.6v-1l-.45-.82-1.1-.71-.9-.78.01-1.07.74-1.14 1.17-1-.24-.35-1.17-.34-.01-.63.28-2.02.74-.82.8-.5.8-.8 1.15-.55.37-1.81-.15-.91.35-.61 1.65.11.86.29.06-1.2-.45-.5-.09-1.69-.28-1.17-1-.92v-.61l.46-.99 1.08-.88.02-.32 2.07-.19.1-.82-.1-1.46.12-.73-.7-2.5-1-.68.17-.77z"/>
    <path region="8" short-name="14" long-name="State Senate District 14" value="1" d="m720.98 569.36 1.27-.41.79-.08 2.12.51 1.47-.68 2.13.14.47-1.35-1.22-.06-1.34-.58.08-.45.97-1.1.52-.2.32-1.13 1.78 1.51.38-.13 1.58 1.07.84-.96 1.25 1.3 1.16-.84-1.04-2.17-1.19-.64.07-.5-.63-1.31.19-.63-.74-2.01 1.07.36 1.37-.66.18-.91 1.4-.34.64.37 1.39-.25.64-.53 1.3-.7h.63l.78.5.38 1.27 1.53 1.07.08.51-.48 1.2.49.7 1.6 1.77h.46l.65.54 1.05.19 1.21.68 1.15 1.14 1.77.58.13.22-.42.1-1.1.82-2.51 1.1-.8.14-.47.39-.8 1.27-.8.12-.12.46.35 1.35.91.32-.06.93-.61-.18-.37.81.82 1.14-.74.6-.03 1.21-.73-.5-.98-.34-.22-.99-.75.01-.01 1.22-.2.86-.41.63-1.75 1.06-.44-.52-1 .27v1.1l-.71.35-1.36-.07-.63-1.11.1-.98.46-.63-.62-.92.2-1.01-.47-.14-.79.3-.96-.12.05-.87-2-1.48-.3-.44-2.07.9-.37.36-.05-.96-1.91.56-.89-2.04-.57.2-1.07.76-1.45.47-1.68-.22-.43-.34-.57-1.38.63-.1z"/>
    <path region="9" short-name="16" long-name="State Senate District 16" value="1" d="m738.09 550.72.27-.61.67.32.37.8.07 1.31 1.04 1.5.08 1.02.68.38.34 1.06-.78-.5h-.64l-1.3.7-.63.53-1.4.25-.63-.37-1.4.34-.18.91-1.37.66-1.07-.36.74 2.01-.19.63.63 1.31-.07.5 1.19.64 1.04 2.17-1.16.84-1.25-1.3-.84.96-1.58-1.07-.38.13-1.78-1.51-.32 1.13-.52.2-.97 1.1-.08.45 1.34.58 1.22.06-.47 1.35-2.13-.14-1.47.68-2.12-.5-.8.07-1.27.4-1.24.05-1.37-.23h-1.06l-1-.28-1.19-.03-.82-.26-.42-.47.98-.36 1-.06.75-1.31 1-.04.89-.26-.3-1.1.07-.61-.73-.15-.45-.7.23-.63-1.65-.58-.05-.78-.33-.92-1.01-.42.16-1.07-.45-2.5.47-1.2.23-1.22.28-.35.22-1.52.4-1.3-.11-1.48.5.19.88-3.1.92.37.55-.47.86-.36 1.49 1.01.4.48-.09.51 1.56.75.45.53.69.11.66.58 1.1.3.88-.07.82-.34.4-.53.8-.49.66-.8.82-.13 1.13-.62 1.02.31.93-.27.57 1.91.83.87.65.31.15-.68.6-.33 1.3 1.41z"/>
    <path region="10" short-name="20" long-name="State Senate District 20" value="1" d="m927.19 547.33.67-.4.07.84zm-1.21 2.94.42-1.14.73.19-.1.93zm-13.56 87.48.36-.92 1.89-.62 1.07.26.7.4.5.74-.24 1.5-.57.36-2.07.14-.52-.12-.85-.82zm-2.16-109.45.06-2.35.22-.76.51.23.54 1.17 1.07.91.65.23-.28.82-.98.94-.42.62-.96.76-.39-.9zm-1.05-6.47.46.35.48 1.01-.25.27zm42.67-14.12.42-.46.34-.93.73-.53.38-1.08.7-.33.25-.8 9.81-1.08h.21l12.25-1.33 4.7-.49 14.55-1.68 3.78-.36-1.9 2.91-3.15 5.16-1.57 2.5-1.1 2.05-1.8 3.75-1.53 3.4-1.28 2.6-.56.92-.89 1.07-1.3.84-1.42 1.23-.38-.04-.5-.7-.16-1.2-.5-1.2.7-.62.54.09 1.3.97.35.43.92-.12 1.49-1.68.44-1.96-.6-.2-.44.28-1.45-.32h-1.7l-.57-.97-1.58.18-.8-.18-.62.4-.57.92-1.79 2.32-.93.4-1.68 1.34-4.24 4.68-2.72 3.76-1.73 2.8-1.63 3.25-.44 1.11-.9 1.73-1.31 1.75-.55 1.44-1 3.3-.54 1.22-1.04.83.11.92-.3 1.37.02 1.28-1.02 4.57-.53 1.32-.97 1.45-.3 1.35-.03 2.26.23 2.54 1.17.01.34.87-.24.64-.58.55-2.03 3.27-2.5 3.87-2.04 3.74-.84.94-.4.1-1.02-.77-.4.22-.17 1.31-.56.75.49 1.22 1 .84 1.4-.45.4.25.27.94-.13 1.7-1.56 1.75-2.42 4.03-1.75 3.39-.88 1.5-.56.5-.57 1.24-.58 2.37-1.34 2.38-1.61 2.15-.66.58-.78 1.06-.78.66-.98-.55-1.04.1-.56.83.66 2.1-.3 2.93-.6 1.7-1.54.37-.7.63.57 1.13 1.19-.3.46 1.14-.19 1.57-.73.65-1.55.45-1.03.89-.01.44 1.04.13.24.63-.24.9-1.77 1.76.01.98-1.11.84-1.77 1.8-1.99 2.74-2.59 2.95-.97.59-1.71.42 1.12-1.65-1.93-1.1-1.08.66-2.16.9-1.21.12-.56.27v-1.74l-.77-3.8-.6-1.29-.66-.5-.13-.97-1.23-2.35-1.38-1.69-.33-.88.04-2.34.35-1.85-.6-.35-1.3-3.12.25-1.72.42-.76.85-.8-.4-1.48.62-.82-.08-.38-.92.05-.24-.5.35-2.59.77-2.38 1.36-1.96 1.05-2.07.36-.93.56-.42-.25-.54v-1.3l1.4-.49-.09-.56.54-.27.37-1.31-.86-.75-.63.03-.37-1.67.41-3.36.38-.98.71-1.01.24-.89 1.19-1.77-.6-.88.13-1.49.4-2.22 1.07-3.25 1.15-1.9.3-1.2.65-1.2-1.05-1.16v-.81l.64-1.62.44-.73 1.04-.7.67-.25-.93-1.56.45-1.32.62-.74.81-1.89.87-.4.28.76-.1.71.37 1.16.57.5 1.28-.42.7-1.15-.32-.79-.37.07-.3-1.83-.78-.4-.16-.42.28-1.21-.06-.6.39-.54 1.24-.07-.03-1.05 1.02-1.14.36-.07 1.09.6.73-.22.5-.54-.15-.97-.62-.14v-1.23l1-.53-.53-.34.35-1.16.96-.42.17-1.21.87-.55.68-.8.38.2.91-.77.29.76 1.71-1.38-.67-.94-2.99.73h-.72l.28-1.03.85-1.03 1.23-1.14.43.52 1.88-.69.63-.97.03-.89-.38-.32-1.23.53.17-1.43-.6-1.54-.51-.18-.38.59-.55-1.6.49-.8.42.07 1.06-.7.76-.84 1.04-.35 1.66.33.74.82.85.63.57.94.98.4.4-.28.88.3.58-.3.3-1.27.84.46.08-.97-.2-1 .05-2.13.4.1-.12-1.17 1.27-.04-.51-1.18.5-.77-.33-.28.75-1.02.66.12.14 1.24.83.62 1.3-.15-.37-1 1.07-1.02-1.3-.94-.71-.36-.43-1.24.51-.54 1-.58-.12-.72.26-1.24-.8-.11-.33.29-1.15-.72 1-.52.16-.55-1-.42-1.3.22-1.5-.24-1.05.54-.88.2.29-1.38-.82-.13-.27-.75 1.72-1.4.46-.6.68-1.37.85-.55.18.65.75.72 1.23-.2 1.81-1.86 1.55.86 1.78.29.9-.19.75-1.4-.02-1.5-.52-1.14zm-47.23 1.98.61-.06 5.63.07-.32.34-.13.84-.68-.71-1.58.59-.47.92.55 1.58-1.03.4-.15.75-.4.07-.35-1.75.86-1.56-.45-1.1-.97-.1-.57.32zm-22.34 150.63 1.58.83 1.88.66 2.97.77.62-.03 1.13.34 3.13.71 1.88.85 3.34 1.26.6.15.93-.65 2.9-.7 1.97-1.92.39-.2 1.38-.14 1.53.2.73.26 1.34 1.04.47.9.28 1.58 2 8.85-.95.22.2.96-.46-.02-.34-1.57-1.32.28-.56.41-.26.82-3.42-.02-1.62.27.13.87-.8.01-.06.47.3 2.02-.52.8-.45-1.04-1.03.1-1.62 1.38-.14-1.3-.72-.65-1.12-.3.27-1.39.84-.32-.22-1.02-1.19.18-1.85.74-.94-.22-.38-.85.31-.24.16-.86-.47-.41.47-.93-.34-1.03-.6-.4-.48.14-1.18 1.2-.58-1.32-.98-.6-1.66-.2-.1-1.18-.77-1.13-1.64 1.42-.63-1.37.53-1.07 1.42-1.9-.86-.8-.4-.89-.61.03-1.82.4-.9.01-.88-.23-1.1.47-.48-.18-.42-3.48.5-.08z"/>
    <path region="11" short-name="24" long-name="State Senate District 24" value="1" d="m850.13 615.98-.32.59.64.83.73.58.4.68 1.23.46 1.41.94 1.88-.37 2.22-.08 1.88-.63 1.27.12 1.58-.26 1.03-.51.21.22-.97 1.36-.07.73-.76.83 1.07 1.18.27.84-.18.63.07 1.13-.27 1-.78-.68-.88.6-.05 1.2-.46.8 2.08.59 1.58.28.35.73.92.08.4-.55-.66-.4-.13-.56.83-.77.87-.42 1.3-.05.85 1.47.1 1.2.97.94 1.33.47.6.54.57.03 1.14 1.1h.3l.42 1.01-.58.69-.14.67.69.65-.66.97-1.2.18-.67-.15-3.24.92-.75-1.47-1.96-.94-1.03.7-.66-.56-.61.62-.77-.06-.92.42.33 1.32-1.33.7-.39-.24-1.5.19-.5-.54-.87.29-.92-.1-1.7-.94-4.88-6.92-1.22-.23-1.12 1.56 1.44 2.31-.8.42 1.49 2.4 7.95 16.1-.4.18-.84-1.78-.42-.3-.73-.84-.09-.45-1-1.54-3.7-2.52-1.98-1.54-.75-.13-.9-1.07-.04-2.32-1.97-1.57-.07-.69-1.03-.73-.5-1.4-.43-.47-.79-.33-.36.75.83.5.11 1.16.6.51.77 1.83-1-.07.22.86-.76-.3-.43-.83-.82-.77-.65-1.14-2-1.46-.23-.73-.7-.4h-.6l-1.05-.94-.29-.92-.58-.1.49-1.27-.1-.95.65-.24 1.46-2.42-.4-1.43-.6-.22-.4-1.16-.37-1.97-.47-.98-.78-1.19-1.33-1.38.27-.01.68-1.39.56-.67-.52-.96-1.57-.43-.63.01-.9-.91-.55-1.38-.28-1.42-.4-.29-1.19.06-.2.75.62.01.96.92.32.61-.97.39h-2.06l-.9-.2-.95.17-2.4-.31-1.16-1.09-.58-1.3.42-2.12 1.49-.09-.07-.54-1.02-.3.32-.7-.27-.27-.1-1.07-.56-.32-.16-.53 1.14-.64.16-.43-.48-.73-.27-.83.16-1.19-2.37-1.3.19-.84-.3-1.26 1.13-1.23.33-1.16 1.05-.23 1.72.39.38.41.92.25.94-.25.77.13.67-.62.68-.04.37.46.74-.12 1.78-1.86 1.09.88 1.45 2.79.94 1.28.55 1 1 1.07.68 1.24 1.32 1.79 1.57 1.5 1.12.87.8 1.16 1.03.83.94.38 2.01 1.47 1.13 1.58.78.89.5.86z"/>
    <path region="12" short-name="4" long-name="State Senate District 4" value="1" d="m384.74 605.1 1.96-1.28 1.69-.52 1.65-.84 1-.66 1.47-.68 1.64-.9 1.67-1.27 1.5-1.67 1.79 1.37 4.6 2.33 1.04.38.45 4.93 2.3 3.31 4.23 5.96.09.7.96.64.23.43 1.56-1.14.6-1.3.12-.75.64-.62 1.52-.56 1.08-.25.65.14.22-.85.86-.05.97.4.7-.52.88-1-.9-1.55 1.34-.48-.25-.46.64-.3.61.46 1.73-.64 2.48-1.95 1.72-1 1.13-.39.72-.42.49 1.2v.6l.68.4 1.02-1.17 1.03.09 1.34-1.35 1.75-1.15 1.44-.45.4.37.52 1.9 1.1-.9.42.79.52-.22 1.34.08.97-.8.37.95.8.18.83-.33 2.09 2.08 1.01.57-.17.26.3 1.52.66.43-.04.86.38.75 2.23-.87.38.87-.37.71-.9.97.75 1.01-.08.36.75 1.58-.05.9.53 1.65-.56.72-.56.25v1.3l-.88.22-.25-.61-.97.14-.71.64-.83.4-.56 1.4-.78.15.21 1.82-.36.78-.72.35-.73.01-.53.36v1.06l-.4.72-.68.63-1.06.36-.87.68-.17.41-.9.14-.9 1.57-1.06.34-1.14-.34-.3-.55-1.74-.03-.23-.47.03-.91-1.17.16-.48-1.22.52-.85-.53-.34-.46-.72-1.68.34-.86-.66-1.17.99-1.29.46h-1.15l-1.34.57-.74.13-.88-.24-.52.75.04.65-1.04.39-.66-.05-.33.34.04 1.45-1.26.93-1 1.12-.53.2-.34.57-.67.02-1.42.6-.06.35-1.32.54-.38-.27-.93.28-.54-.64-4.5 2.11-1.47.46-6.55 2.57-2.29 2.48-5.03 5.3-.3.72-1.13.2-1.3-.24-1 .48-1.5-.45-.7.74-1.1.33-.98-1.15.5-.92-.32-1.14-.6-.45-.04-.44 1.07-.66.4-.43-.49-2.34.2-2.02.64-.9.91-.3.55-.48.1-.64.52-.37.12-.96.56-.75-.29-.67-.87.5-1.88.17-.95-.91-.92.43-.5-.04-.4.72-.66-.54 1.13-.51-.03-.71-1.3.16-.46-1.2.33-.4 1.16-.3-.64-.66.73-.64-1.1-.52-.42.5-.95-.48-.72-.8-.05-1.38.37-.9.04-2.08 1.35-.39 2.38.52 1.68-1.6.7.48 1.12-.3.5-1.15-.52-.66-.84-.37.16-.49.69-.51-.21-.91.9-1.36.06-.38-1.47.1-.39-.36-.06-1.3.48-.71-1.25-.62-.6-1.07.97-.08.18-.58-.65-.51.93-.5-.27-.56-1.02-1.26-.59.1-1.05-.44-2.03-.28-.6-.4-1.3-.44-1.3-.14-1.33.18.51-.78 1.25-1.03 1.25-.86 1.62-1.42z"/>
    <path region="13" short-name="5" long-name="State Senate District 5" value="1" d="m229.59 616.66.7.1 1.22-.35.81.92.06.83 2 1.57.45.7 1 .06.31.3.1.81.6.62 13.94-.77.83-.26 1.09-1.84 2.8-.91 1.42-.84.3-1-.02-.78.39-1.2.6-.32.69.55 1.44-.02.44-.6 1.7-.7.18-.85.76-.21 1.1-.8.59.22.33-.48 1.09.46 1.34-.33.11-.88.49-.18.93-2.43-.16-.32.98-.85-.2-.92.5-.86.9-.6.78.39.67-.12.82-1.33-.2-.45.35-.8.49-.26 4.99 5.72 11.26 9.6 2.41-1.21 3.16-2.23 1.32-.73 2.92-.94 3.53-1.39 2.11-.62 1.28-.26 5.56-.87 1.8-.58 1.6-.29 1.48-.52 1.95-.4-.31.93.24.49.74.2.87-.11 2.21-.56 2-1.04 1.4-.5 2.22-1.3 2.42-2.08 1.32-1.44 2.32-1.25-4-5.52 2.42-4.17-.28-1.2.66-1.44.3.37.76.15.5.4.56-.39.62.24 3.57 3.03.03.9.67.35 1.93.17.22.83.66.73.79 1.76 1.2-.38 1.33-.77.38-.01 1.66-.69.94-.53 2.18-.95 1.6-1.06.85-.43 3.67-2.22.92-.4 1.06-.8.54-.69 1.15-.17.7-.92 1.97-1 1.04-.8.66-.77 2.32-1.48.57-.48 1.12-.57.85-.16.94.1.54-.47 1.05.03.85-.23.59-.48 2.18 3.58-.51 1.93.29 1.45 2.28 1.81.33-.12 4.36 12.54-1.28 1.14.23 1.46.32.35.66-.37.68.9-.87.64-1.63 1.42-1.25.86-1.25 1.03-.51.78 1.34-.18 1.3.14 1.3.43.59.41 2.03.28 1.05.45.6-.1 1.01 1.25.27.56-.93.5.65.5-.18.59-.97.08.6 1.07 1.25.62-.48.7.07 1.3.38.37 1.47-.1-.07.38-.89 1.36.2.91-.68.51-.15.49.83.37.52.66-.5 1.15-1.12.3-.7-.49-1.67 1.6-2.4-.51-1.33.39-.05 2.08-.37.9.05 1.38.72.8.95.49.43-.51 1.1.52-.74.64.64.66-1.16.3-.33.4.45 1.2 1.3-.16.04.71-1.13.5.65.55.4-.72.5.03.93-.42.95.9 1.88-.17.87-.49.29.67-.56.75-.12.96-.51.37-.11.64-.55.49-.91.3-.63.89-.2 2.02.47 2.34-.38.43-1.08.66.04.44.6.45.31 1.14-.49.92.97 1.15-1.05-1.15-.39.95.69.93-.2.97-1.07.1-.17-1.24-.55-.66-.75-.22-.3.79-.67.62-.32-.44-.07-1.27-.7-.42-.24 1.43-1.09.1.14 1.18-.51.5-.9-.2.24 1-.73.13-.5-.67-.5-.15.15 1.61-1.47.01-.78-.5-.48-.99-.07-.71-.85-1.2-.81.33.61.54.04.41-.52.88-.53.17-.38.6-1.23.34-.16.43-.92.54-.02 1.04-.52.8-1.32.2-.74 1.38-1.13.28-1.33 1.56-.72.58-.58-.07-1.33.31-.66.6-1-.01-.5.32-.5 1.15-1.12.12-1.14.84-.45.59-.06.56-2.46.88.02 1.24-.34.6-.65-.09-.62.4-3.93 1.57-1.67.51-5.8-8-1.46-1.6-.9.5-.03-.77-.3-1.04.32-.12-3.05-3.8-3.26-3.66-1.45-1.13-2.18-2.4-2.3-6.83-1.02.21-1.58.78-.47.01-2.47.97.37.68 1.1.46.18.8-.25.93-.58.8-.9.78-1.73.44.18 1.6-1.23.07-1.02.36-2.02 1.33-1.49 1.23-.07.91.6 1.2-.02.6 1.35.54 1.16-.4-.1.51.32 1.16-.09.5-1.04 1.06-.87.35-.52-.03-1.37 1.26.46.45-.84 1.47-.2 1.18-.95.76-.5-.53-.96-.5-1.85-.57-.3-.54-.8-.55-.41.86-.53-.48-.73.25-.12.73-.75-.52-.78 1.2-.33.05-.82-.8-.44-.03-.28.6.8 1.28-.27.28-.77-.32-.54-.56-.16-.79-.4-.65-1.5.54-1.75.41-1.24.95-2.14 1 .6 1.25.41.53.63-.17.96 1.46-.03 1.3-.6.66-.24.64-2 .14-2.5.3-.37-.6-.72-.45-1.45.26-.86-.02-.78.25-.7-.06-2.29.14.1.75-.6 1.46-2 .42-.5.51-.56.17 2.68 6.4.83 2.1 1.24 4.31-.72.08-3.67 1.46-.22-.14-9.86 2.01-2.1 1.2-1.54.63-1.36 1.04-1.5.55-.8.12-1.2-.37-.6.4-2.3.36-1.54.4-1.02-.08-.85.68-1.89-.13-.8.45-1.47.44.1.67 1.39.47-.16.47.19.83-.22 1.3-.69 1.68-1 1.24-1.5-.32-1.22.55-1.26 1.25-.79.1-1.75.58-.43.56-1.56.6-6.22-14.9-3.33-8.07-7.3-9.3-9-11.4h.35l.82-1.09.63-.5.37-1.12 1.55-.71 2-.52.98-.46-2.95-8.91-1.53-3.56-1.06-1.67-3.5-3.75-.93-1.29-.93-.87-2.2-2.9.08-.44-.27-1.22-1.09-2.3.54-1.86.88.47.84-.45.45.09 1.4-.93-.64-.98.34-.48 1.04-.33.4-.67 1.08.23.55-.16.65-.63 1.15-.4.76.3 1.17-.94 1.76-.14 1.56-1.09v-.66l.8-.28.43-.63 1.07.48.95-1.02.33-1.92 1.55-.8.1-.56-.37-.41z"/>
    <path region="14" short-name="7" long-name="State Senate District 7" value="1" d="m240.54 709.66 2.3.04.7-.44 1.27-.35.52-1.51.08-1.6.43-.57 1.75-.58.8-.1 1.25-1.25 1.21-.55 1.51.32 1-1.24.69-1.69.21-1.29-.18-.83.16-.47-1.39-.47-.1-.67 1.47-.44.8-.45 1.89.13.85-.68 1.02.08 1.54-.4 2.3-.35.6-.4 1.2.36.8-.12 1.5-.55 1.36-1.04 1.53-.62 2.1-1.2 9.86-2.02.23.14 3.67-1.46.72-.08-1.24-4.3-.83-2.1-2.68-6.4.57-.18.5-.51 1.99-.42.6-1.46-.1-.75 2.3-.14.7.06.77-.25.86.02 1.45-.26.72.45.36.6 2.51-.3 2-.14.23-.64.6-.66.03-1.3-.95-1.46-.63.17-.41-.53-.6-1.25 2.14-1 1.24-.95 1.76-.41 1.48-.54.41.65.16.8.53.55.78.32.27-.28-.8-1.29.28-.59.44.04.82.79.33-.05.78-1.2.75.52.12-.73.73-.24.53.47.4-.85.81.54.3.54 1.84.58.98.5.49.52.94-.76.2-1.18.85-1.47-.46-.45 1.37-1.26.52.03.87-.35 1.04-1.06.1-.5-.32-1.15.09-.52-1.16.4-1.35-.54.01-.6-.6-1.2.08-.9 1.5-1.24 2.01-1.33 1.02-.36 1.23-.07-.18-1.6 1.74-.44.89-.78.58-.8.25-.94-.17-.79-1.1-.46-.38-.68 2.47-.97h.47l1.58-.79 1.01-.2 2.3 6.82 2.2 2.4 1.44 1.13 3.25 3.67 3.06 3.79-.32.12.3 1.04.03.77.9-.5 1.46 1.6 5.8 8 1.67-.51 3.93-1.56.62-.4.64.08.35-.6-.02-1.23 2.46-.89.06-.56.45-.59 1.14-.84 1.11-.12.51-1.15.5-.32 1 .01.66-.6 1.33-.3.58.06.72-.58 1.33-1.56 1.13-.28.74-1.38 1.32-.2.52-.8.02-1.04.92-.54.16-.43 1.23-.33.38-.6.53-.18.52-.88-.04-.4-.61-.55.8-.33.86 1.2.07.71.48.99.78.5h1.47l-.14-1.62.5.15.5.67.72-.13-.24-1 .9.2.51-.5-.14-1.18 1.09-.1.24-1.43.7.43.07 1.26.32.44.67-.62.3-.8.75.23.55.66.17 1.25 1.07-.11.2-.96-.69-.94.39-.95 1.05 1.15 1.1-.33.72-.74 1.48.45 1-.48 1.31.25 1.14-.2.29-.74 5.03-5.3 2.29-2.47 6.56-2.57 1.46-.46 4.5-2.11.55.64.92-.28.38.26 1.32-.53.06-.35 1.42-.6.67-.03.34-.57.53-.2 1-1.12 1.26-.92-.04-1.45.33-.34.66.05 1.04-.39-.04-.65.52-.75.88.24.74-.13 1.34-.58h1.15l1.3-.45 1.16-.99.86.66 1.68-.34.46.72.53.34-.52.85.48 1.22 1.17-.17-.03.92.23.47 1.74.03.3.55 1.14.34 1.07-.34.89-1.57.9-.14.18-.4.86-.69 1.07-.36.66-.63.4-.72.02-1.06.52-.36h.73l.73-.36.35-.78-.2-1.82.77-.15.56-1.4.83-.4.71-.64.97-.14.25.61.87-.23.01-1.29.56-.25.53 1.32 1.15.07.34-.53.96-.93.46-.05 1 .9.22.53.5.16.75-.7.33-1.61.53-.29 1.21.22-.06 1.03.58.63.13.77-.65.27.39 1.6.85.7.98.3.41.89 2.14.1.8.33.7-.64.55-.14.49.38.08 1.13 1.01 2.1-.25.55.48 1.47.5.75.78-.5-.72-1.27.62-.13 1.06 1.85.3-.03.52-.86.39.09 1.58 1.66.15.94 1.45 1.62.13 1.04.88 1.54.2.94.7.83 1.03.8.9-.12.85.96-.36.73-.8-.23-.11.67 1.55 1.61.51.37 1.1 1.37.4.8-.93.9.73.36-1.45 6.25-3.22 16.91-2.9 15.21-2.73 14.5-1.14 5.93-2.89 15.27-20.44-.12-2.07.06-14.54-.01-11.25-.02-12.24-.17-8.28-.03-17.2-.98-10.54-.56-11.34-.6-3.39-.11-6.1-.46h-3.03l-5.13.3-3.6-.08-4 .25-7.58-.38-5.26-.22-6.85-.06-.9-.12-5.63-.38-2.9-.05-4.92-.28-2.02-.04-3.49-.22-.65-.14-8.67-.19-1.48-.1-5.36-.16-7.98.05-8-.32-2.38-.2-3.2-.13-3.76-.22-9.47-.96-9.09-.16z"/>
    <path region="15" short-name="29" long-name="State Senate District 29" value="1" d="m740.27 384.73.33-.21 2.06 1.44-.38.63.36.73-.38.7 1.1.64-.58.98.37.37.84-1.1.46.47 1.11.07-.19.87 1.08.83.38 1.22-.37 1.06-.8-.31.13-.58-.6-.4-.43.66-.12.86.26.82-.55.3-.27-.95-.38-.22-.6 1.01-.14.68.26 1.32.53.53.95.17.54.42.59.97 1.1.2.77.48 1.22.33-.47.46-.01.86 1.25.02.5-.89 1.38.74.55.97 1.8 1.9.58 1.12.47.04.78-.63.35 1.77-.5 1.8 1.27-.1-.71 1.87-1.46 1.86-.58 1.5 1.08 1.03-.26.46 1.31 1.17.7-.04.32-.35.66.06.03-1.8 1.35.64.1.36.85-.04-.13.53.53 2.27.45.63-.55.68-1.3.8-.47.65.03 1.14-.33.85-.47.15-.4.76.44.27-1 1.6-.78.13-.18.72.35.45-.85 1.19-.59.4-.86 2.38.02.3-.84 1.78-.17 1.95-.26 1.62.35.77.1 1.33.4 1.8 1 3.05-.75.63-.35-.11-1.2-1.04-.89-1.1-1.73-1.77-.38-.73v-.93l-.93-.4-.66-1.52.11-.98-.66-1.44 1-.57.05-.96-.84-1.49-1 .15-.75 1.03-.92-.31.12-.68.56-.67-.37-.42-.9 1.13-1.05 1.92-1.04-1.3-.95-.24-1.66.35-.75.01-.16-.57.68-1.3-.5-.43-.1-.82-.62-.28-2.33.25-.67 1.17-.72-.13-.65.29-.69-.38-.76.1-1.3.48-1.61-.68-.44.29-1.43-.49-.13-.47-1.6-.5-.18-.42-1-.8-1.17.02-.67-.41-.34.5-.65-.09 3.3-3.49 3.51-4.47-.18-.1-9.53-18.41-6.7-12.9.15-.96.75-.34.7.56 2.26-.65.49.63.58-.12 1.15 1.33.4.72-.27.26 1.68 2.04.77.61.9.35 1.47.25 1.94-.11 1.55.32.53-.51.98-.39.3.47.04 1.19.2.41.67-.06.18.74.43.46.7-.02.84 1.53.44-1.43-.77-.88.16-.26-.68-1.23-.2-.72.97-.71.88.51v.37l.66 1.41 1.04-1.13 1.65.8 2.04-1.27.28-.36.46-3.43-1.05-.77-.47-.63.22-.34 1.8 1.32.02.85-.4.24.65 1.04.63-.83.64-.14.38.37.8-1.32-.36-1.08.5-.05-.43-1.09z"/>
    <path region="16" short-name="8" long-name="State Senate District 8" value="1" d="m453.51 609.88.2-.5-.13-1.1 1.15-.46-.01-.73-.8-.94.4-1.25 1.35-1.07 2.6-1.54 1.06-1.22.83-.25.74-.63.27-.78-.03-.68.4-1.5.85-.72.09-.5-.39-.66-.88-.07-.73.21-1.49-1.74.02-.6-.46-.22-.68-.84 1.75-.79 1.06.02 1.4-.97 1.25-.64.48-.53.94-.34.52-.94.59-.13 1.05-.8.36-.5 1.01-.56 1.76-1.46.17-.73.52-.1 1.86-2.4 1.35-.7.14-.36 1.5.07.72-.3.63.46 1.63 1.62.16 1.45.5.65.71.52 1.3-.66 1.78.66 1 .7 1.3-.45.25-.55-.3-1.18.57-1.5.6-1.02.48-.37.23-.73.5-.4.5-.9.46-.35 1.07 1.42.88-.96.2-.83.45-.6 1.68-.48.56-1.21.73-.18.4-.46-.02-1.27.73-.52.13-.48 1.63-1.23.58-.62.95.1.82-.28.64-1.07.04-.47 1.07-.17.97-.36.17-.64.67-.7-.57-.82-.87.24-.48-1.9-.86-1.55-.05-1 .87-.81.63-1.02.99.17.27.77-.17.96.59.55 1 .03.74-.7 1.41-.18.5.37.41.93.68.49.69.08.59.67-.02 1.36.88 1.18.34.71v.68l.39 1.12-.05.84.6 1.32 1.07 1.47.4 1 1.26 1.38 1.42.65 1.6.3 1.32.8.54.6.83.17.94-.78 1.1-.15.8-.5.56.32.03 1.38.49.56 2.09-1.79 1.57-.1.92.28-.49.83-.18.74.86.88.24.62.75 1.03 2.37.34.48 1.05.01 1.36 1.05 1.35 1.56 1.4 1.6 1.2.74-.03.54 1.52-.02.9.58.98.9 1.12.75.65.76.07.2-.96.32-.4 1 .39 1.9 1.4.6.6 1.45.75.85-.74-.38-1.44-.04-1.33-.8-.94.02-.85.84-.17.88.66.92.3.87-.48.04-1.04-.44-.65.46-.46.83.19.64.45.79.02 8.1 16.74.44 3.66.77.02.3 1.1 1 .58.68.6.36 1.01.25 1.52-.15 1.52.11.6.51.48.92-.29.28.19 1.72-.79 1.78.5.2.25 1.52.46.31.32.69 1.76-.1 1.05-.27.33.11.72 2.37.6 1.52.46-5.96 17.34-3.43 9.57-1-.24-1.1-.02-1.53-1.2-1.82-.74-.48-.32-1.78-.7-.28-.52-.67.15-.91 1-1.33.52-.75 1.09-.92-.06-.68-1.13-1.06-.27-1.93-.72-.74.18-1.44-.24-.52-.45-3.23-1.67-.73-.56-1.73-.7-.74-2.6-.36-.38-.8-.15-.63.22-.54.62-.14.74-.63.5-2.02.6-1.05.72-.82-.58-.55.03-.63 1.1-.15.81-.84.3-.73-1.15-.62-1.94.44-1.18.17-2.06-.52-1.84-.93-1.06-.7-.06-.37.43.07 1.96-.76.55-.89-.37-.21-.47-.18-1.43-.65-1.56-.92-1.21-.68.09-.8.74-.62 1.16-.36 1.17-.9.44-.3.39-1.45.11-.65-.14-.66-.79-2.6-1.98-.5-.17-.46-.72-.16-.9-.88.24.46.65-.44.7-.85.47-1.55.47-1.3-.24-.66.14-.24.44 1.39.53.24.46-.16.7-.53.86-1.22.7-.2.35-1.68-.04-.36.21.2.94.01 2.55-.15.62-.44.28-1.14.27-1-.1-.98.16-.7.5-1.45.15-.84-.45-2.18-.82-.98.02-.63.68.17.57.98 1.2.18.6-.41.8.04.43 1.04.75 1.78 1.48.06.5-.49.32-1.02.1-.87 1.14-.63-.17-.51-1.03-.77-1.11-1.16-.8-.8-.76-1.84-.56-1-.73-.34-.52-.11-.85-1.12-.42.78 1.09-.82.57-1.21-.28-.32.34.15.8-.4.23-1.78-.29-1.75-.83-.73-.36.93-.9-.4-.8-1.1-1.37-.51-.37-1.55-1.6.1-.68.8.23.37-.73-.85-.96-.9.12-1.02-.8-.72-.83-.19-.94-.88-1.54-.13-1.04-1.45-1.62-.15-.94-1.58-1.66-.39-.1-.52.87-.3.03-1.06-1.85-.62.13.72 1.26-.78.5-.5-.74-.48-1.47.25-.56-1-2.09-.1-1.13-.48-.38-.55.14-.7.64-.8-.33-2.14-.1-.41-.9-.98-.3-.85-.69-.4-1.6.66-.27-.13-.77-.58-.63.06-1.03-1.2-.22-.54.29-.33 1.6-.74.71-.51-.16-.22-.53-1-.9-.46.05-.96.93-.34.53-1.15-.07-.53-1.32.56-.73-.53-1.64.05-.9-.75-1.58.08-.36-.74-1 .9-.98.36-.71z"/>
    <path region="17" short-name="9" long-name="State Senate District 9" value="1" d="m483.98 645.91 1.75.84 1.77.28.4-.22-.14-.8.32-.35 1.2.28.83-.57-.78-1.1 1.12.43.1.85.36.52.99.73 1.84.56.8.75 1.16.8.77 1.12.51 1.03.63.17.87-1.13 1.02-.11.5-.33-.07-.49-1.78-1.48-1.04-.75-.04-.44.41-.78-.18-.61-.98-1.2-.17-.57.63-.68.98-.02 2.18.82.84.45 1.46-.14.69-.5.98-.16 1 .09 1.14-.27.44-.28.15-.62v-2.55l-.21-.94.36-.21 1.68.04.2-.34 1.22-.71.53-.87.16-.69-.24-.46-1.4-.53.25-.44.66-.14 1.3.24 1.55-.47.85-.46.44-.7-.46-.66.88-.25.16.91.46.72.5.17 2.6 1.98.66.79.65.14 1.44-.11.3-.4.9-.43.37-1.17.62-1.16.8-.74.68-.1.92 1.22.65 1.56.18 1.43.21.47.89.37.76-.55-.07-1.96.36-.43.71.06.93 1.06.51 1.84-.16 2.06-.44 1.18.62 1.94.73 1.15.84-.3.15-.81.63-1.1.55-.03.82.58 1.04-.72 2.03-.6.63-.5.14-.74.54-.62.62-.22.8.15.37.37.74 2.62 1.73.7.73.55 3.23 1.67.52.45 1.44.24.74-.18 1.93.72 1.06.27.68 1.13.92.06.75-1.09 1.33-.51.9-1.01.68-.15.28.52 1.78.7.48.32 1.82.74 1.53 1.2 1.1.02 1 .24 3.43-9.57 5.96-17.34 1.9.52.42-.25 1.54-2.16 1.18-1.27.52-.38 1.56.06 1.2 1.15 1.53-.53.73.64.94-.77.35-1.2.44-.53.8-.16.46.19 1.84-.94.34-.44 1.16-.4.24-.46-.03-1.04.77-1.44 1-1.38.47-.45 1.2-1.9 1.03-1 .62-.9.46-1.2.87 1.08.77 1.94.64 1.13-4.07 2.77 2.77 1.38.7.05.88.49.64 1.24.87.35 1.28.27.56-.12.74.84.5.23 1.42-.34.7-.57 1.63-.7.79-.86.34-.78.58-.4.72.17.44-.25.9.15 1.14-.9.15-.4 1.28-.18.7.06-.45.74-.09 1.09h.82l2.1.8.5-.8 1.54.55.77.5-.68.65-.05 1.63.16.75 1.03-.64.27-.53 1.12.05.3-.52.88.63 1.27-1.28.59-1.22.56-.7.55-.14.03-.67 1.6-.99 1.09-1.1.14-.42-.61-.8.29-.42-.23-1.3-.38-.31.03-1.18 1.2-.42.6.72.66-1.06.8-.94 1.02.32-.13.82.23.32h1.36l1.3-1.12.18-.65 1.18-.57.9-.02-.19-1.2.65-.58.77.23.4-.8.08-.9.64-.26 1.61.84.32-1.43-.5-.56.17-.67 1.42.24 1-.69.43-.66.45 10.72 11.3 3.32 12.48 3.55 1.43.37 8.7 2.53 8.37 2.52.96.2 5.1 1.65 3.28 1.3-.37.42-.04.66-.56.2-.22 1.2-.93.93-1.32.37-.83-.47-.87.21-.69.52-1.22.19-.25.55-.74.57-.8.93-2.09.85-.53-.23-.9.35.15 3.98.9 17.38.18 1.68-1.37-.06-.95.58-.98-.16-.34.54-1.45-.22-.4-.58-1.1.21-1.15-.68-1.03.23-.52.37-1.43-1.91-.05-.41-1.16-1.1-.1-.4-.72-.43.15-.99-.9-.03-1.3 16.6-.82 10.57-.74 9.96-.67 9.46-.5 8.74.01.4-1.03 15.13-10.28.05-13.34-.08-9.32.08-15.76.2-6.29.21h-11.3l-6.88-.14-15.77.04-20.82-.06-18.13.08-1.57-.02-8.39.03-4.86.06h-11.04l-12.23-.01-8.03.06-10.95-.09-12.9-.09 2.88-15.27 1.14-5.93 2.73-14.5 2.9-15.2 3.22-16.92z"/>
    <path region="18" short-name="28" long-name="State Senate District 28" value="1" d="m639.23 387.84.65-.44.99.06.71.49.93-.14.52.36 1-.93.7.18.45-.82.52-.26.66.16.7-.74.73-.3.7.12.7-.38.67-.73.2-.88 1.04-.85.72-3.5-.09-.4 1.03-.15.25-2.17.67-.4.72-1.32.65-.5-.15-.93 1.26-.19.44-.6 1-.49-.08-.31.83-.1.16 1.41.58.6.36.9.8.6.2.7.73 1.14 1.16.34.69.6.36-.13.86 1.05.49.1 1.74 1.37.86.99 1 .53.38-.27 1.22.68-.69.3.5 1.83.65.07.2.62-.73.41.45.68-.5.85-.15 1.07.4.45.98.08-.3.75.4.3-.28 1.18.76.34-.11.66.37.5-.59.37.88 1.16.68.27.66 1.1 1.3.42.75.56 1.93.76.59.47.64-.35.91.3.23-.38 1.05.55.23-.5 2.03.07.96.3.48.86-.1.92 1 .42.04.34-.8.68-.3.7.25.7.61.52 1.42-.7 1.48 2.75-.2 1.34-.85.5.45.84.52-.2.45 1.35 1.19.21.1-.7-.42-.16.55-1.1-.35-1.02.93.37 1.56-.22 1.51.68.96 1.09.77-1.8.78-.34.02-.4 1.37-3.93.66-.89.03-1.36-.85-1.9-2.26-1.87-.41-.67-.83-.22.59-1.21.91-.77.82-1.14.64-.09 1.84 1 .53.63-.31.46.02 1.05.83-.41 1.57.14.34-.4-.43-.7.67-.42.27-.74-1.52-.54-.4-.56-1.25-.95-.33-.49.45-1.3-.2-1.13.14-1.16-.67-1.11.48-.91 1.1-.6.4-.46 2-3.36 1.24-.4.79.07.44-.82 1.03-.3 1.5.39 4.78 9.18 6.7 12.9 9.53 18.41.18.1-3.5 4.47-3.31 3.5-4.17 4.39-.5.83-.67.4-.02.85.64 1.4-.15.86-.5.62.6.53.1.79-.4.74.2.89-.46.45-.15 1.45.3.43-.2 1.23.24.98 1.04.34.5 1.99.05 1.44-1.14-.03-.6 1.19-.73.17-.58-.51.24-1.05.62-.38-.48-.8-.54-.14-1.32.4-1.03.7-.81.14-.56.7-.59 1.46.48-.07.74 1.6.78.56.9 1.16-.54.7.1.68-.31.51.65.5-.47.72.15.44 1.18-.02-.14.71.67.8-.2.9-.05 1.39.25.52 1.24 1.07.12 1.37.66.25.4.81.48-.16-.17 1.81 1.07.1 2.01-.25.92.1.6-.3.28-1.12.9 1.33.68.04 1.34.9-.15 1.35-1.27 2.44.46.56.31 7.1.23.82-2.39-1-.73.31-.78-.8-.11 1.44-.41.58-.38 1.15-1.26-.34-.82.04-1.67-.68-1.05-.9-1 .14-1.56 1.5-5.92 4.04-1.23 2.28-.18.81-.67 1.17-.8.62-1.36.22-1.48 1.16-1.3 1.58-1.1.84-.5-1.28-.83-.38h-1.52l-.72-.4-.04-.62-.56-.05-.25-1.02-.54-.53-1.41-.78-.24-.77-.87.28-.34.38-1.35-.51-1.71-.18-.96-.38-.72-.63-1.4.56-1.2-.43-.76-.92-.83.58-1.24.06-.22-.27-1.3-.62-.37.36-1.43-.17-.75-.54-1.4.43-.44-.2-.7-1.06-1.43-1.47-1-.4-.25.17-1.09-.46-.34.84-.66-.46-.43.54-.61.19-1.06-.16-1.26-.72-1.46-.31-.68.17-.62-.84-.48.08-.84-.75-1.05-.15-1.24.74-.13.64-.55.49-1.9.22-.54-.47-.7-.17-.61.64-.6.29-.8-.13-.81.63-.38.57-1.2-.05-.67.36-2.63-.52-10.69-4.79-5.32-2.25-2.92-.96-2.53-.99-.76-.2-2.38-1.1-3.04-1.2-9.57-3.64-8.37-3.34-3.21-1.47-5.02-2.22.57-1.3.84-1.04 1.3.41.7-.2.7-1.2 1.09-.52 1.96-.52.12-1 .75-1 .94-.71.73-.12.69-.43.64.08.64-.41.91-.2.65-.66-.27-1.84.77-.58.42-.92-.09-.62.46-.43 1.04-.11 1.08-.52-.43-.44.53-1.12.4-.22.4-1.88 1.02-.05.85-.84.07-.47.67-.54-.14-.42.9-1.07-.05-.55.66-1.65.6-.23-.13-.97.6-1.35.68-.01.57-1.09-.07-.72.59-.8.26-1.17.32-.46 1.26-2.86-.54-.74.52-.97-.05-.95.77-1.54-.77-.85.51-.46.63.63 1.59-1.18.7-1.94 1.16-.76 1.15-.53.64.12.98-1.03-.1-1-.29-.34.18-.74-.38-1.1.3-.86 1.07-.93.75-1.18.42-1.16.47-.56.6.25.36-.55.92-.64v-.44l1.1-.92.46.12.64-.42.74-1.9V405l.48-.78-.49-1.4.26-1.33-.75-.4.36-.91.76-.66-.23-1.23-.44-1.2-1.04-.64h-.34l.24-1.34.7-1.48.6-2.53 1.64-.04 1.05-1.97.65.11z"/>
    <path region="19" short-name="26" long-name="State Senate District 26" value="1" d="m751.93 539.57.43.22 1.08-.32.68.35 1.47-.33.28.58-.32 1.06-.49.44-.72-.46-.81.16-.05.77.46.69 1.38-.23.94-.63.52-.08v.8l-.44.68v.85l.96 1.37 1.14.2.66-1.08.45-.36.84.55.38.92 1.3.66.61-.44-.66-1.77.13-.92.5-.04.42.75.46-.17.35.88-.22.43.61.57-.65 1.22-.95.99.82 1.2-.55.66.82.23 1.56-.46.83-.1.46.26.17.66-.43.7.74.18.5-.24.03-1.16.34-.52.56-.13 1.18.55.23.55.06 1.4-1.1 1.52.56.92.58.1 1.83-.59.37-.73 1.9.22.42-.77.95.45.09.42 1.47.52.53-.05.63-.48.56.76-.2.94-.9 1.25.37.96-.45.27-.6-.2-.78.24.3.78.8.84 1.73.08.92 1.03.98.15-.3 1.28.14.55.82.86.55.29 1.02-.19.44-.93 2.25 1.23 1 1.26 2.47.73-.83 1.04.01.3.8.9 1 .54 1.26.3.77-.38 1.13-.12.34-.3-.17-1.02-1.1-.42-.1-.62 1.97-.75.9-.04.58.47.28 1.02.5.65.23 1.21-.2 1.01-.7.76-1.33.71v.9l.8.16 1.68.65.7.04.34-.49.13-.86-.04-1.88.73-.9 1.87-.87 1.7.05.48.42v1.17l-.29 1.27.74.58h.65l2.28-1.03.17-.75-.82-1.56-.22-1.28 1.6-.73 1.2.28.57 1.03-.29 1.18-.92 2.33-.52.84-.9.9-.24 1.07 1.53 1 .9.12.75-.48 2.26-2.23.6-1.48.33-.22.71.29.34.52 1.09 2.39 1.17 1.65.64.3.5-.66.03-.78-.28-1.43 1.16-1.33 1.79.1 1.35.54 1.72-.85.48-.11.35.81 1.54 1.14.85-.14.49.2.92-.49-.62-.9.91.07.66-.21 1.87-1.27 1.61-.67-.06-1.32.13-1.03.8-4.42 1.67 1.26.37.59 1.03-.1.83.77.46-.6h.67l-.39.95.3.32.77-.2.53-.74.68.01.73.7.09.54.74.2.2.42.71.28-.12.6.29 1.02.4.23 1-.1.6.36.7-.23-.16-.77.5-.23.58.54.03.72 1 .13.83.64.14.57.49.33 1.19-.06.56.18.49.6.39.94 2.2.15 1.02.82 1.24.5.7.96 1.99.97.89-.06.69.6.75.08.75-.4.57-2.32.55-1.05 1.07.64.9.17 1.06-.25 2.1.51.17 2.24.8 1.27 1.96.07.52.67.49 1.52.51.66.71.04.47-1.08.35-.27 1.5-1.9.01-1.28.48-.16.65.35.84.94.92 2.15.17 1.06-1.1.12-1.5-.86.15-.55-1.71.02-.24.94.83.14.26.6.66.15.32.42 1.43.76-.15 1.33 1.09.55.5.8.84-.03.5.65-.12 1.35.55 1.05.08 2.22.3.88-.14.42.3 2.78.01 2.32-1.37 2.48-.66.72-.85.27-.31.89.3 1.93-.46.18.14.66.4.22-.1 1.2-.27 1.2-.4.44-.29-.96-2-1.52-1.34-.33-.62-2.4-.81.2-.03-.67-.5-.1-1.33-1.78-.18-.68-1.28-.86-.77.3-1.38-.74-.47-.9-.37.03-1.35-.6-.74-.89-.64-1.75-.25-2.2-.58-.28-1.07.08-.38 1.31.1 1.07-.41.65.28.56.17 2.12.61.75-.01.91-.56.05-1.06-1.1-.62-.87-1.04.27-1.6-.22v-.83l-1.19-.09-.73 1.13-.02.98-.26.4.26.58 1.29 1.1.88-.23.58-.85 1.09 1.8 1.13.58-.12.3.66.78.88.42 1.16.28-.32.86-.72-.1-.46.64.4 1-1 .3-.49-.4-1.5.2-.05 1.2 2.3.92.9.02 1.45-.86.55.07.73.65-.35.56-.63.26.44.66 1.31.87-.1.96.5.08.29.77 2.81.34-.23.9-.93.54-1.98.06-1.3.7-.7-.27-.84.13-1.68-.1-.75.43.07 1.1-.74.23-.57-.54-.67.34-.66.01-1.57.36-.73.34-.51-.17-.99.13-.67-.7-1.24.8-.65.13-.89.78-1.16-.8-.5-.86-.78-.9-1.13-1.57-2-1.47-.95-.38-1.03-.83-.8-1.16-1.12-.86-1.57-1.51-1.32-1.79-.69-1.24-.99-1.07-.55-1-.94-1.28-1.45-2.8-1.08-.87-1.8 1.86-.73.12-.37-.46-.68.04-.67.62-.77-.13-.94.25-.92-.25-.38-.41-1.72-.39-1.05.23-.33 1.16-1.13 1.23.3 1.26-.19.84 2.37 1.3-.16 1.2.27.82.48.73-.16.43-1.14.64.16.53.56.32.1 1.07.27.26-.32.7 1.02.31.07.54-1.5.09-.41 2.12.58 1.3 1.17 1.09 2.4.31.94-.18.9.22 2.06-.01.97-.39-.32-.61-.95-.92-.63-.01.2-.75 1.19-.06.4.3.28 1.41.55 1.38.9.91.63-.01 1.57.43.52.96-.56.67-.68 1.39-.27.01-1.04-.73-1.19-.34-2.87.01-1.06-.08-1.14.97-3.42.73-1.36-.17-.62-.25-1.2-.07-.18.47 1.93.86.64.04.37.47-.67.73-.28.84-.88.38-.87-.23-.79-1.08-1.1-1.07-.8-.49-1.55-3.26-.63-.52-2.77-1.32-1.2.23-2.15.19-1.37-.24-.9.04-.48-1.18.7-.29.19-.52-.17-.77-.55-.31-.35.29-.82-1.62-.12-.63.18-1.43 1.17-1.5-.03-.42-.59-.65-.36-1.07.56-1.16-.16-2.32.35-1.39-.12-.51-.65-.4.21-.99.58-1.21-.43-.86-.9.1-.77.96-.62.18-.66.7-.4.82-.5.3-.75-.59.88-2.05 1.13-.81.1-.5-2.35-1.36.07-.74 1.08-.25.22-.26.27-1.67-.47-.19-.35.83-.68.62-1.07-.6-.64.46-.25 1.24-.91.64-.46-.03-.06-1.52.87-.81-.06-1.17-.54-.45-1.05.96-.55.02-1.46-.4-.46-.55.39-.75-.26-.47-1.37-.28-.68.79-1.1-.49-1.12.67-.43-.35-.57.3-.62-.29-.4-.62.11-.4-.35-.92-1.38-.03-1.02-.39-1.03.02-.49-.5-1.08-.43-.55-.4-1.53.1-1.16-.07-1.6-1.86-.67.01-.27-.81-.6-.74-.5-1.26h-.53l-1.23.48-.03-1.2-.99-.13-.9.41-.44-.3.46-1.42-.82.2-.5.57-.28-.95-.66-.22-.3-.45-1.5-1.42-.11-.8-1.22-.96-.45-.07-.39-1.04-.54-.74-.64-.28-.12-.9-.62-.1-.64-.85-.95.25-.82-.2-2.26-1.88-1.17-.16-1.33-.5-.5-.65-.95.13-.8-.19-1.28-.97-.54-.04-.7-.6-1.16-.6-.13-.21-1.77-.58-1.15-1.14-1.2-.68-1.06-.2-.65-.52h-.46l-1.6-1.78-.49-.7.48-1.2-.08-.51-1.53-1.07-.38-1.27-.34-1.06-.68-.38-.08-1.03-1.04-1.49-.07-1.32-.37-.79-.67-.32-.27.6-.11-1.17 1.09-.1.35-.38.74.95.3-.4 1.06-.09.83.15-1.05-2.76.84-.72.44-.75-1.66-.1-.95-.46-1.32-1.21-.35-.93-.45-.4-.46-2.1.37-.85.36.25.51 1.07 1.27.59.83.7 1.23-.4.94.9.06.37 1.12-.14.75.1 1.74-1.1.99-1.14.54-.31.56-.74.34 1.17.87-.15.94-.7.58.1z"/>
    <path region="20" short-name="1" long-name="State Senate District 1" value="1" d="m612.75 337.65 1.44-1.58.1-.31 1.98-1.36.62.26.78-.72.8-.07 2.43-2.87.32-1.46 1.12-1.7 1.58-.86 1.21-1.38-.38-.53-.74-.42-.2-.64-.48.07-1.16-1.5-.26-1.38-.92-.28 1.05-1.38 1.41-1.6 1.46-2.1.16-1.53.53-.45-1.11-1.29-1.22-.75.62-.99 1.35-1.77.27-.83.85-.32.54-.85.18-.75 1.49-1.8.89-.76.3-1.1.55-.07 1.63-3.27-.13-.66 1-1-.18-.55-.97-.19-2.16-.7 1.43-1.89 1.38-2.63-.95-.4.15-1-.95-.96-.17-1.28.96-1.24.54-1.08-.77-1.4.64-.59.32-2.9-.52-.42.29-.59 7 5.73 3 2.21 6.8 6.02 2.14 1.7 3.46 3.16 1.19.87.85.61 3.82 3.26 9 7.37 13.45 11.2 10.8 9-1.26 1.61-.57.32-1.18 2.86-.24 1.26-.84 1.8-1.32.13-.43.32-1.22 2.08-.64 1.38-.69.38-.91 1.1-1.29 1.02-1.09.57-.37.77-1.34 1.04-1.8.4-1.07 1.85-1.05.82-.83.14-1.06.9v.49l-1.42 1.76-1.45 1.56-1.72 3.26-.41-.08-.53.53-.56 1.39-1.17.36-.9.48-.66.84.1.47-1.36 1.85v.7l.37.56 1.23.5-.03 1.28-1.32.13-.06.68-2.17.15-.35.88-.82.11-1.24-.18-.23.52-1.44.6-.44.44-.06.79.08.31-1 .49-.44.6-1.26.2.15.91-.65.51-.72 1.31-.67.41-.25 2.17-1.03.14.1.41-.73 3.5-1.03.85-.2.88-.69.73-.68.38-.71-.11-.73.29-.7.74-.66-.16-.52.26-.45.82-.7-.18-1 .93-.52-.36-.93.13-.71-.49-.99-.05-.65.44-.74-1.41.22-1.12-.14-.67-.53-.57-.85.02-.42-.26-1.86-.58-1.15-.64-.67-.63-.4-.8-.54-.44-.64-.11-5.31-2.44-1.28 1.12-2.32 2.57-1.15 1.77-1.62 1.76-.95 1.4-.67.67-.95 1.39-2.12 1.62-.72.11-1.85 2.35-4.66-1.95-.33 1.15-1.12 1.8-1.76 2.3-1.65 2.67-1.14 2.6-1.5 3.99-.61 1.23-.67 1.72-.53 1.03-1.6 1.6-.1.24-3.17-2.88-9.73-8.48-5.88-5.27-1.12-.9-7.08-6.52 2.5-4.86 1.9-2.96 1.3-2.52 1.22-2.84.33-1 1.42-2.8.54-.46.43-1.15 1.05-1.09.75-.22 1.63-1.03 1.02-2.37 1.37-1.71 1.95-.63.36 1.7-.17 1.59.56.76 1.4-1.58.83-.06 1.08-1.4.92-.08 1.16-1.3.57-1.18.81-.88.8-2.03.68-1.14.97.2.7-1.2.35-.94 1.08-.27.21 1.3.89-.31.33.98.8.78.33-.75.66-.37 1.23-2.06.3-.78 1.18-1.68 1.3-1.57 1.07-.95-.82-.5-.27-.47-.73-.29-.72-.86 1.8-1.92.29-.54 1.66-1.92 1.01-.9 1.07-.69.7-1 .04-.64z"/>
    <path region="21" short-name="12" long-name="State Senate District 12" value="1" d="m713.87 568.13.42.47.82.26 1.18.03 1.01.29h1.07l1.36.22 1.24-.04-.04 1.48-.63.1.57 1.38.43.34 1.68.22 1.45-.47 1.07-.75.57-.21.89 2.04 1.91-.56.05.96-.53.59-.5 1.26-1.04.93-.16 2.69-.32.78-1 .58-.47.53-.48 1.16-1.35.85-1.65.3 1.2 2.56-3.35 1.42-1.66.85-.56 1 1.42 1.51.8.25 2.2-.23 1.06.03 3.78.46.86.2 1 .53 1.05.83 1.28.6-.04.98 2.15-.02-.05.6-.59 1.08.5 1.6.1.98.39.69 1.33.15 1.38.6.49 1.29.9 1.02-.03 1.1.16 1.15.72 1.4.97 1.44.73.47.8.94.27.82-.35 1.27.65-.37.26-.77 1.93.5.25.92.78.33-.4-1.22.34-.48.82.08.45-.69 1.32.43.65-1.86.57.35.43.64.27.96-.58.81-1 .58-.45 1.04-.13 3.28-.64.66-1.15.26-.61-.11-.37.41-.74.54-.38-.08-1.9.84-.5.54-1.06.24-1.34.1-1.53-.38-1.55.11-.78-.12-1.61.16-1.8.92-.9.14-.44-.83-1.18-.54-1.31-.09-1.57.2-.27-.76-.55-.2v-.87l-.96.22-.41-.22-.18-.75-.42-.47-.62-.03-.27-.46-1.07-.65-.33-1.51-1.2-1.04-.82.6h-.52l-.94-.42-1.16.85-.97-.17-.44-.33-.98-1.7-.26-1.35-.32-.7-1.78.1-.17.86-.37.54-.66.14-.66-.93-.4-1.26-.86-.58-.88.47-.15 1.8-.45.23-.78-.37-.91.23-.3 2.07-.77.52-1.67-.28-.59-.3-.52-.65-.17-1.47-1.83-1.72-1.46-.43-1.14-.77-.27-1.61.92-.49.6-.8-.3-.54.02-1-2.24-.56-2.36-.05-1.56-1-.22-.38-.06-1.34-.96-.83-1.52-.03-.45-.57.09-1.77-.17-.8.43-.47.2-.81.66-.27-.52-.83-.08-.93-.36-1.55.34-.37 1.65.59.63-.6.53.56.7-.62.32.11.85-.68.77.05 2.07-.55.51-1.3-.01-.42.73-1.08.16-.92-.04-1.17 5.7-5.22 10.01-9.08 1.08-.95z"/>
    <path region="22" short-name="27" long-name="State Senate District 27" value="1" d="m721.77 426.6.65.08.34-.5.67.41 1.16-.01 1 .79.2.43 1.6.49.12.47 1.43.49.44-.29 1.6.68 1.3-.49.77-.1.7.39.63-.3.73.14.67-1.17 2.33-.25.63.28.1.82.49.44-.68 1.29.16.57.75-.01 1.66-.35.95.24 1.04 1.3 1.05-1.92.9-1.13.37.42-.56.67-.12.68.92.31.74-1.03 1.01-.15.84 1.5-.04.95-1.01.57.66 1.44-.11.98.66 1.52.93.4v.93l.38.73 1.74 1.78.88 1.1 1.2 1.03.35.1.19.7-.23.81.61.6 1.9 1.49.95 1.56.12 1.61-2.65.56-1.42-.02-.02 1.07-.74.27-.05.66.19 2-.9 1.01.14.64-.36.8-.38-.09-.12 1.57.16.37-.21 1.17-.8 1.56.5.57-.22 1.06 2 1.29.16 1.28-.69-.21-.93-1.03-1.12.38-1.23 1.16-.6-.03-.95-.9-.93-.03-.38.53-.75-.04-1.74-1.29-1.41-.34-.32-.25-.48-1.3-1.03-.54-.48-.71-.13-.82-.33-.33-1.27-.28-.35.12.5 1.32-.87.52-.36-.98-.7-.32-.87 1.49-1.07-.35-1.4-.22.2-.7-.74-.17-1.48-.04-.37 1.7h.94l1.35.67-.26 1.31-2.03 1.3-1.24.32v.89l-.53.06-1.02-.29-2.27.8-.2.2.14-1.36-1.34-.89-.68-.04-.9-1.33-.28 1.12-.6.3-.92-.1-2.01.26-1.07-.1.17-1.82-.48.16-.4-.8-.66-.26-.12-1.37-1.24-1.07-.25-.52.05-1.38.2-.91-.67-.8.14-.71-1.18.02-.15-.44.47-.72-.65-.5.3-.5-.09-.7.54-.69-.9-1.16-.78-.57-.74-1.6-.48.08.59-1.46.56-.7.81-.13 1.03-.7 1.32-.41.54.14.48.8-.62.38-.24 1.05.58.51.73-.17.6-1.2 1.14.04-.05-1.44-.5-1.99-1.04-.34-.24-.98.2-1.23-.3-.43.15-1.45.47-.45-.2-.89.39-.74-.1-.8-.6-.52.5-.62.15-.87-.64-1.39.02-.85.67-.4.5-.83z"/>
    <path region="23" short-name="33" long-name="State Senate District 33" value="1" d="m746.46 393.43.18.7.56.86.53.31.75-.78.37-1.04-.41-.42-.4-1.4 1.11.01 1-.9.97-.37.27-1.36-.14-1.12.82-.07.54-.64-.83-.72-.9-.37-.43.21-.62-.43.2-.49 1.3-1.2 1.4.15.25-2.81 1.92.08.96.4 2.82-.14.57.28-.08.6.43.6.89.53.95.16.1.5 1.05.88.44.65.03.53.72.22.36.87.53.4.51 1.78-.36 1 1.05 1.65.41 1.62-.9-.13-1-.55-1.35-.1-.28-.4-.9-.39-.24.48.27 1.05-.76 1.5-.49-.09.53 1.4.05 1.11-.2 1.14.89 1.6.74.43 1.21 1.52.07.71.63.62.48 1-.52 1.23-.7.2-.5-.34-.98.55-.26 1 .45 1.2-.57 2.21-.6.44-.18.63 1.13 1.29-.99.56-.31.53-.74-.06-.86.05-.09-.37-1.35-.64-.04 1.8-.65-.06-.31.35-.7.04-1.32-1.16.26-.47-1.08-1.02.58-1.51 1.46-1.86.7-1.87-1.26.1.5-1.8-.35-1.77-.79.63-.46-.04-.58-1.12-1.8-1.9-.55-.97-1.38-.74-.5.9-1.25-.03.01-.86.46-.46-1.22-.33-.75-.47-1.11-.2-.6-.98-.53-.42-.95-.17-.53-.53-.26-1.32.13-.68.6-1.01.39.22.27.95.55-.3-.26-.82.12-.86.42-.65.61.4-.13.57z"/>
    <path region="24" short-name="3" long-name="State Senate District 3" value="1" d="m429.16 509.88 3.42 1.4.9-1.02 1.1-.74 1.04-.87 1.36.02.7.56.99.4 4.83-.06.76 1.22 4.12 7.25.83.76 3.85.78 5.54 1.05 6.99-.7 3.34 2.58 3.34 3.58 1.36-1.3 2.46-2.86.7.63.84-.99 1.58-2.95.7-1.69.1-.71.59-.77.53-1.17 1.06-1.9.76-.5.6-.7.94-.68.93-.93 2.98-3.8.9-1.26 1.01-2.12.74-.13.07-.85 1.13-1.9 1.56-2.11-1.59-.88.89-1.23.8-.32 1.4-2 .32-.74 1.55-2.48 17.19 12.93 5.27 3.71.52-.37 4.57-2.15 7.8-4.34.27-.7-.3-.38 1.03-.33.48-.98-.13-.63.73-.85.2-.82.64-.74.37-.05.33-.99.35-1.7-1.08-.19.34-1.55.7-1.27-.57-.8-.9-.03-.35-.66.18-1.13-.16-.94.41-1.02-.03-.5.93-1.78.54-.23.36-1.64 1.3-.42.24-.78 1.05-.88.33-1.23.74-1.04.56-1.63-.4-.82-.15-.98.2-.67.6-.52.29-1.26 1.28 1.02.51.05.68.7-.22.38.76.56 1.14-.57.39.14 1.25-.29.13 1.95.23.63-.5.6 1.86-.49 1.27-1.35 1.04.47.03.56.5.35 1.1 1.22-1.08.02-.46.77 1.33 1.24.08.32-.45 1.35-.49 2.04-1.22 1.64-2.15 1.62 1.75.85 2.86 1.98 1 1.05.88 1.26 1.22 1.41 1.57 1.2 2.35.93.05-.76 1.35-1.03.46-.08.49-1.77.25-.4.87.42.27-.61.75.04 1.07-1.13 1.09.48.48-.27.72.53.89.33 1.11.13.59.28-.34 1.15.31.67.8.53v.77l-1.13 1.05-.16.82.15 1.54-.62.99.07.62.44.43 1.1.06-.08.49-.65.24-1.2-.12-.98 1.57-.02 1.53-1.19 2.03-.48-.13-1.27 1.18.12.42-.21 1.28.49.22 1.18-.36.1.5-.86 1.44-.28.9.22 1.34-1.06.6-1.23-.13-.18.53-.95.43-1.5-.06-1.17 1.26-.6.9-.25.82.25.58-1.65.63-1.22.97-.48.6-.27.91-.64.73-.66.42-.88 1-1.26-.97-.14-.64-2.4.06-.77.15-.16-1.03-.53-.33.08-.48-.32-1.05-1.2-1.1-.84.62-1.05-.08-1.54.44-.9.5-.1.4-2.2.58-.53.8-.79.03-.96.63-1.09.38-.47-.57-.8.25.65.71-.08.78.62.77.1.85-.5.47.26.75.46.28.03.63-1.04 1.12v.43l-.7 1.16.46.5-.6 1.87.26.38-.74.51-.3 1.1-.5.52v.78l-1.16.77-1.06.15-1.08.93-1.25-.17-.38-.72-.6-.31.16-.79-.53-.2-.29-.7-1.28-.76-.56.6-.82.43-1.03 1.37-.78.75-.44-.5-.88 1.4-.2.68-.68 1.22-1.22 1.6-.56 1.18-.45.59-.37 1.2-.65 1.31.22.43-.55.62-1 2.03.33.97-.54.95-.3 1.1-.66.47-1.5 1.65-.14 1.04-.4.79v.87l-1.58.72-.28.85-.56.66-1.14.15-.61.3-.81 1-.98.97-.76.53-.56-.12-1.55.17-.8 1.52-1.25-.23-1-.18-.62 1.03-.87.8.05 1 .86 1.56.48 1.9.87-.24.57.83-.67.7-.16.63-.97.36-1.08.17-.04.47-.64 1.07-.82.28-.95-.1-.58.62-1.63 1.23-.13.48-.73.52.02 1.27-.4.46-.73.17-.56 1.22-1.68.48-.45.6-.2.83-.88.96-1.07-1.42-.46.35-.5.9-.5.4-.23.73-.48.37-.6 1.02-.57 1.5.3 1.18-.24.55-1.3.45-1.01-.7-1.78-.66-1.3.66-.71-.52-.5-.65-.16-1.45-1.63-1.62-.63-.46-.72.3-1.5-.07-.14.35-1.35.71-1.86 2.4-.52.1-.17.73-1.76 1.46-1 .55-.37.51-1.05.8-.59.13-.52.94-.94.34-.48.53-1.26.64-1.39.97-1.06-.02-1.75.78.68.85.46.21-.02.61 1.5 1.74.72-.21.88.07.39.66-.08.5-.87.72-.4 1.5.04.68-.27.78-.74.63-.83.25-1.05 1.22-2.6 1.53-1.37 1.08-.38 1.25.79.94v.73l-1.14.46.13 1.1-.2.5-2.23.88-.38-.75.04-.86-.66-.43-.3-1.52.17-.26-1.01-.57-2.1-2.08-.82.33-.8-.18-.37-.94-.97.79-1.33-.08-.53.21-.42-.79-1.1.91-.52-1.9-.4-.37-1.44.45-1.75 1.15-1.34 1.34-1.02-.09-1.03 1.18-.67-.4-.01-.6-.5-1.2-.7.42-1.14.38-1.72 1-2.48 1.95-1.73.65-.6-.46-.65.3.26.46-1.36.48.9 1.56-.87 1-.7.5-.97-.39-.86.05-.22.85-.65-.14-1.08.25-1.52.56-.63.62-.12.74-.6 1.3-1.57 1.14-.23-.42-.96-.63-.1-.71-4.21-5.96-2.3-3.3-.46-4.95-1.03-.37-4.61-2.33-1.8-1.37-1.5 1.67-1.66 1.26-1.64.91-1.47.68-1 .66-1.65.84-1.7.52-1.95 1.29-.68-.91-.66.37-.32-.36-.23-1.45 1.28-1.14-4.36-12.54.95-.35.89-.92 1.7-.87 2.05-1.76 2.71-1.56 2.4-1.5 1.26-.55 1.04-.89-.43-.73 2.73-1.08 1.4-.24 1.35-.77 1.34-.6 1.13-.8 2.06-3.78-1.1-.45-2.1 1.37-2.48-1.33.33-.56 1.55-.61.24-.32-1.9-2.7 3.98-2.17 2.91-1.85 1.36-.65 1.08-1 1.13-.72 1.69-1.96.6-1.15-2.18-1.48-3.34-1.27-1.41-1.64-1.99-5.2 1.07-.7 2.7-3.35.74-.27.6-.8.12-.58-.98-.56-.3-.72.64-2.66.9-.15-.17-.88.4-.83.77.06.14-.7.52-.06.64-.77 1.76.12-.03-.68-1-.24.1-.54-.71-.77.28-.98 1-1.64.91-.42.53-.5.43-1.25.98-1.13.98-.9.83-.3-.5-1.06.2-.88.61-.2.55-.9.37-1.07.8-1.2 1.58-1.77.83.65 1.18-1.04.29-.7.7-.57.7.04-.15-.89 1.9-2.3.76.12 1.14-1.72 1.36-1.51.11-.4z"/>
    <path region="25" short-name="34" long-name="State Senate District 34" value="1" d="m764.67 388.11 2.27-.03.46.22.67-.32 1.05-.11.67.23-.29 1.52-.45 1.08.53.27.56-1.73.96-1.97 1.22-.86.59-.9.33-2.4.58-.8 1.82-.44 3.63-.75 3.13.41 1.71.67.34.34 2.35 1.34-.23 6.7.1 2.34-.21 1.05-.35.7-.83.68-2.21-.02-.74-.51-.22.67-.75.45-1.51 1.13-.82.27-1.91 1.67-1.25 1.83-.4 3.64.48.85.2 1.4-2.07-.02-1.24-.26-1.28 1.73-1.34.33-1.36.62-1.22.23-.4-.46-.03-.8-.65-.62-.46-1.19.74.04.63-.38 1.2-1.63-.54-.8-.67-.36-.84.3-1.69-.17-.15-.4-.93-.16-1.2-1.52-.75-.42-.9-1.6.21-1.15-.05-1.12-.53-1.39.5.1.75-1.51-.27-1.05.25-.48.89.39.28.4 1.35.1 1 .55.9.13-.41-1.62-1.05-1.65.36-1z"/>
    <path region="26" short-name="32" long-name="State Senate District 32" value="1" d="m747.55 349-7.21 9.4-12.31 16.04-.96-.43-1-.93.5-1.01-.44-1.87.24-.7-.27-1.03-.41-.3-.97.36-1.23-.77-.75.04-1.27-1.22-.83-.58-.58-1.26-.52-.14-.48-.84-.17-1.06-.54-.93-.88-.2.1-.72 3.21-.3.58-1.22 1.08-.12.26-.27.3-1.58.31-.93 1.83.08 1.22.57.32-.7-.61-.63-.6-1.38-.32-1.14.62.12.71-.41.88-1.53.65-.78.69-.33-.16-.76-.02-1.66 1.44-3.32v-1.77l.74-.57.73-1.53.82.42-.31 1 .33.66.58.44.8-.2.34-.6.48-2.14 5.55 3.53.79.68z"/>
    <path region="27" short-name="40" long-name="State Senate District 40" value="1" d="m777.38 361.19.76 1.4.84.92.35.95 1.15 1.07 1.81.66 1.32.36.45 1.61.62 1.3.36.01.72 1.42.63-.55.04.03-.59.98-.58.25-.85-.18-.79.23-.12 2.07.16 1.25-1.48.15-.76-.16.13.83-.1 1.26-.28.44-7.34-7.36-2.67-2.67z"/>
    <path region="28" short-name="36" long-name="State Senate District 36" value="1" d="m728.03 374.44 12.3-16.04.2.88.8.7 1.19.03.1.77 1.04.69 1.02-.75.28.2.77-.78.34.25 1.04 1.67.18.56-1.09 3.06.3 1.8.54 1.2 1.03.87 1.58.65 1.3-.41.67.55.19.84.78.75-.7 1.53v.36l-.39.5-.79 1.81 1.18.67 1.62.37.56.32-.09.62-.5 1.14 1.44.98 1.4.42.23 1.16-.69.22-.96-.4-1.92-.08-.25 2.8-1.4-.14-1.3 1.2-.2.5.62.42.43-.2.9.36.83.72-.54.64-.82.07.14 1.12-.27 1.36-.97.37-1 .9h-1.1l.39 1.39.41.42-.37 1.04-.75.78-.53-.31-.56-.86-.18-.7.37-1.06-.38-1.22-1.08-.83.2-.87-1.12-.07-.46-.46-.84 1.1-.38-.38.6-.98-1.1-.65.37-.69-.36-.73.38-.63-2.06-1.44-.33.21-.03-1.1-.76-1.82-.44-.71-.5-.04-.59 1.15-1.2.13-3.6-.33-.17-.42.53-.83-.18-.84-1.19-.4-.44-.33-.14-.8.27-.64-1-.72.51-.98-.37-.7-1.28.63-.9.04-.63-.36-.25-.51z"/>
    <path region="29" short-name="37" long-name="State Senate District 37" value="1" d="m747.29 362.62.19.07 1.34 2.48 2.7-.3 1.8-1.52.6-.31.45.17.52-1.1.52-.25-.03 1.5.88.7 1.15.54.98.82 1.75-1.55.48.47.48-.23.3-.65.22-2.03 1.2-.33 1.13.15 1.95.04 2.1 1.05 1.37 2.28-.06 1.2.56.6-.67.58 1.96.46 2.68 2.67-.74.56-1.2 1.79-.34.31-.12.96-.57.83-1.71-.16-1.19-1.2-.76.17-.8-.61-.02-1.17-6.81.14.1 1.94-.32.58.15 1.16-1.85-.13-.14.86-1.12-.19-.05.36-1.3-.29-.96.07-.3-.79-.78-.71-.7-.16-.43-.63v-.36l.71-1.53-.78-.75-.19-.85-.66-.55-1.31.42-1.58-.65-1.03-.87-.55-1.2-.29-1.8z"/>
    <path region="30" short-name="18" long-name="State Senate District 18" value="1" d="m867.39 674.5-.74 1.1-.83.82.41.34 1.46-.28-.08-.7 1.5-1.66.77-.36 2.52-.48 1.32 1.52.68-.5.87 1.37-.08 1.23.6 1.67.66.01.88-.43.26-.47 2.05 1.08 1.4-1.8.22-.58 2.1-.46-.23 1.05.88 2.77 2 6.58v1l-1.24-.59-.65 2.04-.62.01-.11 1.16-1.94-2.18-.84.34.4 1.24-.33.08-.56.92-.47-.39-1.17-1.59-1.63.83-.56.6-1.94 2.75-.95-.3-.72-.7-1-.6-1-.26-.73.19-1.1-.53-.77.06-1.39 1.15-.63-.26.74-.87.13-1.92-1.26-.53-1.54.31-.06-.42-9.25 1.94 1.1-10.16.8-1.76 1.2-2.2-.05-.14 2.45-3.53 2.24-.03.3.82 2.5-1.31.14 1.28-.24.8 1.63.33z"/>
    <path region="31" short-name="19" long-name="State Senate District 19" value="1" d="m854.82 689.8 9.25-1.94.06.42 1.54-.3 1.26.52-.13 1.92-.74.87.63.25 1.4-1.14.75-.06 1.11.53.73-.19 1 .25 1 .6.72.7.95.31 1.94-2.74.56-.61 1.63-.83 1.17 1.6.47.38.56-.92.33-.08-.4-1.24.84-.34 1.94 2.18.11-1.16.62-.01.65-2.04 1.24.58v-1l2.04.9 5.13.99.17-.51 1.2-.83.99-.33.12-.95.78-.25 1.09.28 1.43.07 1.08-.72.75-1.08-.28-1.15-.53-.94.6-.75 1.62-1.37 1.03-.11.45 1.04.52-.8-.3-2.02.06-.47h.8l-.13-.88 1.62-.27 3.42.02.26-.82.57-.41 1.3-.28.35 1.57.47.02-.21-.96.95-.22.9 4.91 1.9 7.6 3.29 10.22 1.03 2.79.88 1.95 1.74 4.32 2 6.93.77 4.94-4.4-.04-11.03.03H887.3l-14.28-.01-18.03-.06-3.11.03.37-2.92.19-2.9z"/>
    <path region="32" short-name="21" long-name="State Senate District 21" value="1" d="m882.3 660.32-.68.96-.5.08.42 3.48.49.18 1.09-.47.89.23h.89l1.82-.41.62-.03.4.9.85.79-1.42 1.9-.53 1.07.63 1.37.39.56-.4 1.24.4.42 1.53.8-.3 1.09-.83 1.05-.6.47-.4.93.02.47-.65.3-.79-.7-.84.05-1.44-1.13-2.1.46-.23.59-1.4 1.8-2.04-1.09-.26.47-.88.43h-.66l-.6-1.68.09-1.23-.88-1.37-.62-.73-.11-.71-2.28-1.93-.1-.36.73-1.35.72-.45.18-2.12 1.41-.14.97.63.53-.05.2-.58-1.77-.93-.25.2-1.53-.47-.36.13-.24 1-.37.03-.45-4.19-.05-1.5.54-3.14.5.13.14.68.52.36 1.83-.15.24-1.37.27-.5 1.92.08 1.44.58 2.25 1.54z"/>
    <path region="33" short-name="23" long-name="State Senate District 23" value="1" d="m875.07 635.87.48.18.78.93.65.16.64 1 .37 1.03-.26 1.02-.51.98-.34 1.09-.17 1.2-1.27 3.5-.89 3.9-.46 1.12-.92.14-.32-1.54-.55-.35-.42.24-2.1-.55-.89 1.26-.98.56-.69.08-1.81.8-.7.55-1.54 1.63-.6 1.11-.85.85-.29.91-1.1-.14-.59-.36-1.15-1.48-2.03-3.24.5-.57-.14-.96.42.3.84 1.78.4-.18-7.95-16.1-1.5-2.4.8-.41-1.43-2.32 1.12-1.56 1.22.23 4.89 6.92 1.7.93.91.1.88-.28.5.54 1.5-.19.38.25 1.33-.71-.33-1.32.92-.41.77.05.61-.62.66.56 1.03-.7 1.96.94.75 1.47 3.24-.92.66.16 1.21-.19z"/>
    <path region="34" short-name="2" long-name="State Senate District 2" value="1" d="m429.16 509.88.94-.78 1.44-1.57 2.74-2.45.11-.66 1.15-.63.76-1.23.13-1.04.58-.8.47-.15.06-.75.64-1.27.6-.37.36-.9-.2-.6.67-1.16.99-2.4-.03-.75.68-1.77.62-.58.8-1.1.87-.75 1.04-1.6-1.5-.67-.7-3.01.25-.42 1.07-.18.55-.64.05-.78.37-.8.81-.68-.1-1.19.38-.05-.27-1.46.24-.8-.55-.36.6-.6.2-.61 1-.1.9-.6.66-1.03.15-.72 1.49-.96 1.83-1.96.79-1.07.79-.34.46-1.01 1.45-.44.4-1.02.66-.12.5.33.73-.5-.1-.52.44-.81.67.18.6-.34.36-.68.97-.26.3-.85-.26-1.19-.67-1.37-.87-.27-.15-1-.72-.96.16-.67 1.08-1.16.36-.96 1.26-1.12.8-.11.73-.6.64-1.28-.32-.57.53-.58.17-.73 1.06-.13 1.35.51 1.13-.42.3-.52.77-.55-.14-1.06-.58-.39.2-1.05.43-1.02.44-.37.62-1.82 1-1.2.28-.94 2-2.38-.23-.76.25-.92-.23-.57.4-.63-.03-.97-.32-1.04-.53-.8-.4-.13v-.8l.56-.48-.4-1.35.37-1.06.73-.3.63-.77.31-1.41.75.03 1.42-.78-.56-1.33-.73-.67.72-1.45-.33-.78.05-.92.5-1.73.68-.23-.42-1.21.8-.88.03-.79.8-1.53 9.17 4.3 1.93.45 2.2 1.4.6 1.24 1.23 1.34 2.58 5.5 2.74 6.12 12.61 4.54 6.88 2.33.91-.55.54.1 1.13-.9.9.4.39-.91-.37-1.13.98-.71.84-.3.75-1.48.44-.31.51-.86.68.38.56-.13.07-1.54.24-.84 1.7-1 .56-.62-.05-.65 1.28-1.22.43-1.6-.47-.6.6-2.6.52-.5.95-2.2 1.12-1.38.38-1.28.5-.85.67-.4-.08-.52.42-1.06.55-.69.57-1.4-.06-1.34.57-.8-.12-.72.49-1.43.53-.79.49-1.3.6-.55.77-2.3.83-.45.45-.62 1.03.08.62.53 1.59-.5.08-1.3.52-.87.42-1.93-.76-.91-.24-1.5.74-2.08-.08-.62.9-2.22.68-1.12.16-.82 1.37-1.4.44-.72.2-1.44.48-.26-.01-.82-.48-.76.09-.41 1-.98 1.58.17.7-.17.5-.99-.12-1.6.53-1.33.9-.38.7-.63.44-1.82.4-.55-.15-.8.74-.72 14.8 13.25 7.07 6.51 1.12.9 5.88 5.28 9.73 8.48 3.17 2.88.1-.23 1.6-1.61.53-1.03.67-1.72.62-1.23 1.5-4 1.13-2.59 1.65-2.68 1.76-2.28 1.12-1.8.33-1.16 4.66 1.95 1.85-2.35.72-.1 2.12-1.63.95-1.39.67-.66.95-1.4 1.62-1.77 1.15-1.77 2.32-2.57 1.28-1.13 5.3 2.45.65.11.54.43.4.81.67.63 1.15.64 1.86.57.42.27.85-.02.53.57.14.67-.22 1.12.74 1.41-.68 1.36-.65-.11-1.05 1.97-1.65.04-.58 2.53-.71 1.48-.24 1.35h.34l1.04.64.44 1.2.23 1.22-.76.66-.36.92.75.4-.26 1.33.5 1.39-.49.78v.48l-.74 1.9-.64.42-.46-.12-1.1.92v.44l-.92.64-.36.54-.6-.24-.47.56-.42 1.16-.75 1.18-1.08.93-.29.86.38 1.1-.18.74.3.34.1 1-.99 1.03-.64-.12-1.15.53-1.15.76-.71 1.94-1.59 1.18-.63-.64-.51.47.77.85-.77 1.54.05.95-.52.97.54.74-1.26 2.86-.32.46-.26 1.17-.59.8.07.72-.57 1.09-.69.01-.6 1.35.14.97-.6.23-.66 1.65.06.55-.9 1.07.13.42-.67.54-.07.47-.85.84-1.01.05-.42 1.88-.39.22-.53 1.12.43.44-1.08.51-1.04.12-.46.43.1.62-.43.92-.77.58.27 1.84-.65.65-.91.2-.64.42-.64-.08-.69.42-.73.12-.94.72-.75 1-.12 1-1.96.52-1.1.51-.69 1.21-.7.2-1.3-.42-.84 1.05-.57 1.3.23 1.35-.62.45 1.09.82-.59 1.07-.77.43-1.46-.64-1.04.92-.95.46-1.04-.1-.56 1.18-.51.41-1.27.6-.02.3-1.33 1.6-.9.74-.83 1.98-.04 1.07-.5 1.06-1.37 2.07-.4 1.11.16.77-.45 1.68-.15 1.34-.43.16-.05 1.18-1.02.86.33 1.08-.26.3.81.67.17.9-.53 1.05.69.8-.12 1.53-.26.55-.58-.14-.94.62.13 1.21-1.62.95-1.28.54-.52.06-.58.72-.4.06-3.26 3.22-1.1-.06-.44-.43-.07-.62.62-.99-.15-1.54.16-.82 1.13-1.05v-.77l-.8-.53-.31-.67.34-1.15-.59-.28-1.11-.13-.89-.33-.72-.53-.48.27-1.09-.48-1.07 1.13-.75-.04-.27.61-.87-.42-.25.4-.49 1.77-.46.08-1.35 1.03-.05.76-2.35-.93-1.57-1.2-1.22-1.4-.89-1.27-1-1.05-2.85-1.98-1.75-.85 2.15-1.62 1.22-1.64.49-2.04.45-1.35-.08-.32-1.33-1.24.46-.77 1.07-.02-1.08-1.22-.51-.35-.03-.56-1.03-.47-1.28 1.35-1.85.48.49-.59-.23-.63-.13-1.95-1.25.29-.39-.14-1.14.57-.76-.56.22-.38-.67-.7-.52-.05-1.28-1.02-.3 1.26-.58.52-.21.67.15.98.4.82-.56 1.63-.74 1.04-.33 1.23-1.05.88-.23.78-1.3.42-.37 1.64-.54.23-.93 1.77.03.51-.41 1.02.16.94-.18 1.13.35.66.9.03.56.8-.7 1.28-.33 1.54 1.08.19-.35 1.7-.33 1-.37.04-.63.74-.2.82-.74.85.13.63-.47.98-1.04.34.3.38-.26.69-7.8 4.34-4.57 2.15-.52.37-5.28-3.71-17.18-12.93-1.56 2.48-.32.75-1.4 1.99-.8.32-.88 1.23 1.58.88-1.56 2.12-1.12 1.9-.08.84-.74.13-1 2.12-.91 1.26-2.98 3.8-.93.93-.93.69-.61.7-.76.5-1.06 1.9-.53 1.16-.6.77-.09.71-.7 1.7-1.58 2.94-.85 1-.7-.63-2.44 2.86-1.37 1.29-3.34-3.58-3.34-2.58-7 .7-5.52-1.05-3.86-.78-.83-.76-4.12-7.25-.76-1.22-4.83.06-1-.4-.69-.56-1.36-.02-1.03.87-1.12.74-.88 1.02z"/>
    <path region="35" short-name="39" long-name="State Senate District 39" value="1" d="m773.84 370.13 7.34 7.36.27-.44.1-1.26-.13-.83.76.16 1.48-.15-.16-1.25.12-2.07.79-.22.85.17.58-.25.6-.98.51.92-.02.57.63 1.1.25.95-.32 1.58-1.14.04-.09.84.68.38.01 1.64.2 1.1-.18 2.04v1.4l-.17.95-2.34-1.34-.35-.34-1.71-.67-3.12-.4-3.64.74-.66-.3-.44-1.1v-.98l.78-1.1-.44-.83.7-.6-.17-.96-.6-.42.1-.85-.2-.53-.61-.49.65-.77-.46-.35-1.19-1.9z"/>
    <path region="36" short-name="17" long-name="State Senate District 17" value="1" d="m697.2 623.55.09-.37 1.27-.3 2.46.38.75.34 1.15-.07 1.33-1.17.9-.3.7-1.24.94-.56.47-.54.6-.07.62-.62 1.31.22.58-.67-.45-.34.41-1.13.48.21.72-.38.02-.56h1.62l-.01-.78.6-.1-.1-.69.45-.56.52-.05-.34-.8.15-.65.97.17 1.16-.85.94.41.52.02.82-.61 1.2 1.04.33 1.51 1.07.65.27.46-.77.66-.18.77 1.01.68.7 2.5-.12.73.1 1.46-.1.82-2.07.19-.02.32-1.08.88-.46.99v.61l1 .92.28 1.18.09 1.67.45.51-.06 1.2-.86-.29-1.65-.11-.35.6.15.92-.37 1.81-1.16.54-.79.82-.8.49-.74.82-.28 2.02.01.63 1.17.34.24.35-1.17 1-.74 1.14v1.07l.89.78 1.1.71.44.82.01 1 .35 1.6-.32 1.61.35.72-.34 1.52.01 1.01-.43 2.28-.4.78.19 1.21-.38 1.96-.87 1.04-.15 1.1.25 1.47-.85 1.43-.56.37-.52.95.09.82.85.84 1.1.02.58-.54.44.8.04.63-.28 1.04.37.7.68.45.7-.2.12-.53-.7-.53.01-.55.82-.24.53.94 1.42.77.96-.2.16.96 1.25-.02.67.9.3.86.76.43.44.7 1-.26.46.66.78.49 1.53-1.1 1.77.02.45.3 1.36.43.49.42h1.08l1.18-.5.6-.73 1.3-1.15.88-.01 1.09-.26-.97 5.68-2.75 15.34.76-.15.5.32.82.07.61.62 1.2.03 2.1.74.56-.24.55.59 10.12-6.65 14.08-8.07 12.36-7.5 6.16-3.98 5.08-3.43 2.96-1.94 2.31-1.31 3.45-2.2 13.75-8.58 7.82-4.26 7.1-3.64.65-.05.82-.4.16-.42-.38-.73.6-.95.32-1.17-.03-.62 1.1-.53.03-1.31.25-.25-.25-.78.73-.04.34-.66-.57-1.35-.04-1.28.24-.6.67-.52-.33-.77.45-.45.53.24.33 1.12-.09 1.12.26 1.05.71 1.26-.18.97.04.97-1.13 3.06-.27 2.43.43 1.43.85 1.16 1.55.92.9.12 3.12-.03 1.43.38 1.61.64 1.01 1.01.23.97-1.04 1.38.55 1.35 1.1-.17.36-.74.59-.1 1.38.73 1.26 1.59.77.45 1.1.2.09.82.37.76.9.76 2.07.46 1.12 1.25-.13.62.25 2.05-1.16-.43-.46.58-.07 1.21.71 1.23.53-.1.81.65.27.46-.38 2.68-1.16.65.19 1.6 1.2.4.93-.63 2.24-.22.09-1.28.77-1.56.7-.43 1.22.24 2.82 1.05.44-.06 1.55.31.37-.56.2-3.52.2-.17 3.3.05.22.2.5 4.06 1.2.25.18.7-.17.67-.51.1-.82.56.44 1.88.53.38.16.68-1.83.5-.42 1.06-.5-.6-1.63-.32.24-.8-.14-1.28-2.5 1.3-.3-.81-2.24.03-2.45 3.53.04.14-1.18 2.2-.8 1.76-1.11 10.16-2.37 23.07-.19 2.9-.37 2.92-5.95.07-4.01-.07-19.31-.03-1.35.08-6.8-.03-12.91-.22-.02 1.22-21.23-.12-3.52.1-3.3-.01-2.02-.48-2.43.17-1.78.23-19.87-.04-12.06-.03-20.3-.04-12.34-.03-17.91.13-17.26.07 1.03-15.13v-.4l.49-8.74.67-9.46.74-9.96.82-10.57 1.3-16.6.9.04-.15.98.72.43.1.4 1.16 1.1.05.4 1.44 1.92.51-.37 1.03-.23 1.16.68 1.08-.21.4.58 1.46.22.34-.54.98.16.95-.58 1.37.06-.18-1.68-.9-17.38-.16-3.98.9-.35.55.23 2.08-.85.8-.93.74-.57.25-.55 1.22-.2.7-.51.86-.2.83.46 1.32-.37.93-.93.22-1.2.56-.2.04-.66z"/>
    <path region="37" short-name="38" long-name="State Senate District 38" value="1" d="m740.34 358.4 7.21-9.4 5.1-6.64 1.6.85 1.64.41.94.46 2.18 1.9 2.3.62.82.47.45 1.04-.27.8-.58.53-.46 1.37.32 1.02.45.3.54 1.71 1.16.95.76-.32.82 1.09 1.19.28.26-.15 1.4.55 1.72-.3 1.31.2.79-.08 1.68.33.53.25 1.06 1.36 1.2 2.33.92.86-6.22 6.27-1.96-.46.67-.58-.56-.6.06-1.2-1.37-2.28-2.1-1.05-1.95-.04-1.12-.15-1.21.33-.22 2.03-.3.65-.48.23-.48-.47-1.75 1.55-.98-.82-1.15-.54-.88-.7.03-1.5-.52.25-.52 1.1-.45-.17-.6.31-1.8 1.52-2.7.3-1.34-2.48-.19-.07-.18-.56-1.04-1.67-.33-.25-.78.79-.28-.2-1.02.74-1.05-.7-.1-.76-1.19-.02-.8-.71z"/>
    <path region="38" short-name="22" long-name="State Senate District 22" value="1" d="m883.36 675.92 1.44 1.13.84-.05.8.7.64-.3-.03-.47.42-.93.58-.47.84-1.05.3-1.08-1.52-.81-.42-.42.4-1.24-.38-.56 1.64-1.42.76 1.13.1 1.18 1.67.2.98.6.58 1.31 1.18-1.19.48-.15.6.4.34 1.04-.47.93.47.41-.16.86-.3.24.37.85.95.22 1.85-.74 1.18-.18.23 1.02-.85.32-.27 1.38 1.12.31.72.65.14 1.3-.6.76.53.93.28 1.15-.75 1.08-1.08.72-1.43-.07-1.09-.28-.78.25-.12.95-1 .33-1.19.83-.17.5-5.13-.99-2.03-.88-2.01-6.58-.88-2.77z"/>
    <path region="39" short-name="35" long-name="State Senate District 35" value="1" d="m751.88 373.82.43.63.7.16.78.71.3.8.97-.08 1.29.29.05-.36 1.12.19.14-.86 1.85.13-.15-1.16.33-.58-.11-1.94 6.8-.14.03 1.17.8.61.76-.18 1.19 1.21 1.71.16.57-.83.12-.96.34-.31 1.2-1.79 1.19 1.9.46.35-.65.77.61.5.2.52-.1.85.6.42.18.96-.7.6.43.82-.78 1.11v.98l.44 1.1.66.3-1.82.43-.58.81-.33 2.4-.59.9-1.22.86-.96 1.97-.56 1.73-.53-.27.45-1.08.3-1.52-.68-.23-1.05.11-.67.32-.46-.21-2.27.02-.53-.4-.36-.87-.72-.22-.03-.53-.44-.65-1.04-.87-.11-.51-.95-.16-.89-.53-.43-.6.08-.6-.56-.28-2.83.14.69-.22-.23-1.16-1.4-.42-1.44-.98.5-1.14.09-.62-.56-.32-1.62-.37-1.18-.67.8-1.82z"/>
  </g>
</svg>
