<svg xmlns="http://www.w3.org/2000/svg" auto-border-stroke-width="5" auto-border-stroke-width-limit=".5" candidates="[{&quot;id&quot;:&quot;0&quot;,&quot;name&quot;:&quot;Democrats&quot;,&quot;defaultCount&quot;:0,&quot;margins&quot;:[{&quot;color&quot;:&quot;#1C408C&quot;},{&quot;color&quot;:&quot;#577CCC&quot;},{&quot;color&quot;:&quot;#8AAFFF&quot;},{&quot;color&quot;:&quot;#949BB3&quot;}]},{&quot;id&quot;:&quot;1&quot;,&quot;name&quot;:&quot;Republicans&quot;,&quot;defaultCount&quot;:0,&quot;margins&quot;:[{&quot;color&quot;:&quot;#BF1D29&quot;},{&quot;color&quot;:&quot;#FF5865&quot;},{&quot;color&quot;:&quot;#FF8B98&quot;},{&quot;color&quot;:&quot;#CF8980&quot;}]}]" country="usa" date="2024009" original-source="[&quot;https://catalog.data.gov/dataset/tiger-line-shapefile-current-state-north-dakota-state-legislative-district-sld-lower-chamber&quot;]" title="North Dakota 2024 House of Representatives" type="nd_lower" variant="blank" viewBox="0 0 1000 605.31">
  <g map-type="regions" transform="translate(0,-197.345)">
    <path d="m50.64 374.55.06-3.43-.07-3.08.05-2.9h7.23l1.32-.03.13-.16v-5.6l2.83-.01v9.41l.69-.08.21.22 1.28-1.68.72-.73V369l-.47.29-.94.17.03.6-.13.87.08 1.44-2.17.01-.29-.32-1.14-.01-1.02.77-.85 1.5-1.1 1.2-.6.5-.97.6-.78.07-.86-.16-.56-.28-1.5-1.21z" long-name="State House District 1" region="0" short-name="1" value="2"/>
    <path d="m270.56 197.69-.02 6.65.01 8.8-.02 8.8-.03.54.04 8.26-.04 5.87h-11.7l-5.72-.01-.03 8.79-.02 8.8h-10.81l-.06 20.37.02 8.92v5.83h-11.55l-5.9-.01.02 15.52.04 5.27-.02 14.2h7.27l-.02 6.19v11.62l-.07-.02-5.72.02h-17.27l-17.29-.02-1.74-.04-13.47.05-10.78-.11-2.8.04-.02 3.37.05 5.2-.03 3.1v10.4l.03.59-.03 9.2-.04.27-1.54-1.23-2-.98-1.31-.44-1.3.18-1.25.9-1.14 1.05-.96.6-.96.3h-1.73l-1.18-.37-.43-.49-.87-1.29-1.2-.69-.88-.26-1.81-.17-.7.02-2.8.43-1.33.71-.68.07-2.48-.7-.96-.03-1.27.1-2.2.41-1.12.13-.75.4-.83.73-.69.41-.37.01-.57-.62.02-.82.23-1.23-.1-1.02-.64-.53-1.37-.15-1.26.25-1.2.48h-.85l-.9.3-.9.59-1.57.44-1.98.26-1.72.15-.92-.05-.79-.18-.56.02-.72.4-.87.92-.47.72-1.33 1.68-1.33 1.53-.55.78-1.49 2.41-.18.69.45.54 1.02.4.95.26.7.52.44.6.16.56-.22 1.4-.96 1.23-.56.34-.9.02-1.92-.5-1.01.1-.68.22-.6.6-.35 1.98-.5 1-.62.6-.39.13-.72-.04-1.67-.5-.95.12-.86.32-2.48 1.2-.64.4-1.4.64-2.18.64-.9.08-.76-.24-1.46-.3-2.51-1.34-.64-.22-1.12-.06-.75.28-1.3 1.16-.75.42-.9.22-.7.3-.69.63-1.18 1.72-1.3 1.1-1.19.3-.96-.14-1.17-1.14-.88-1.58-.55-1.45-.64-1.3-.33-.36-.52-.14-.52.16-1.53.18-1.32-.02-1.64-.3-1.7-1.15-.34-.54-.12-.92.1-1.06.49-.98 1.1-1.14 1.94-1.53.92-1.08.4-.82.17-.78-.18-.38-1.3.1-1.12-.1-.73-.23-1.67-.73-.6-.44-2.47-2.94-.06-.93.65-.58 1.45-.7.9-.8v-.43l-.32-1.17 2.17-.01-.08-1.44.14-.86-.04-.61.95-.17.45-.29.01-2.52-.72.72-1.28 1.7-.21-.23-.68.08v-9.41l-.04-8.7h-2.28l-.88-.59-.4-.14-2.1.02-1.91.15-1.03.49-.47.1-1.46-.04-1.46.07-1.75-.14-3.98.04-.85.34-.44.64-.31.94-.39.6-1.02.48-1.17.13-.8.58-.4 1.04v3.92l.18 2.73.15.49.46.58 1.6.69.42.53.14.5.09 2.79.2.56.94.97.17.4.02 1.3-1.36.05h-6.96l-1.18-.1-.8.06H21.92l-8.65-.01v-.22l-10.12-.01v.26h-1.5v-.28l-1.18-.13-.01-8.29L.4 350.6l-.01-.64-.02-10.98.03-2.07-.08-5.38.01-1.17-.06-9.11-.1-20.4-.01-8.14-.04-18.33-.02-11.82-.04-8.5-.03-15.26-.04-8.2v-19.75l.03-13.36 13.07.03 12.2.03 17.59.03 17.45.04h10.78l15.52-.02h64.29l10.83.01 11.8.02 12.34.02 11.72.02 14.85.03h43.39z" long-name="State House District 2" region="1" short-name="2" value="2"/>
    <path d="m370.23 376.88-.02-5.76v-8.69l.03-2.85-.02-3v-3.25l-1.12-.58-.3-.41-1.47.04-.02-1.51v-1.44l.2-.9-.09-.56 4.2.04 1.47-.04v-5.82l14.52-.04 11.5.04h5.8l-.02 11.38-.01 11.84.01 3.14-.05 3.81v4.65l-14.01-.03-1.09.04-2.86-.06H373.1z" long-name="State House District 3" region="2" short-name="3" value="2"/>
    <path d="m199.6 399.1 5.17.02 2.09-.03 3.84.01h12.6l4.26.02 11.53.02.88-.12 13.37.1 5.64-.01 11.01.02 3.38.1h11.4l3.87-.03 1.88-.08 6.63-.01v24.61l.12 5.47.04 5.76.05 11.84-.15 5.4-.09 5.74-.02 4.94.02 6.23v11.48l4.09-.03 5.1.02h7.81V486l-.52.17-.28.57-1.7 4.04-2.7.93-1.08.58-6.4 4.56-1.04.47-.93.74-1 .6-1.41.47-1.37-.04-.4-.13-5.85 4.5-3.7 2.91-4.36.01v-1.58l-7.04-.01-.04-1.28-4.2-.04-1.49.04v-.74l-8.48-.04V502l-1.4.01-2.08.13-1.49-.05-8.25-.05-.95-.02h-2.83l-.01.74-3.15-.1h-5.3l-.07.42.12 1.1-7-.08-4.34.01-.09 1.42-8.4.2v-1.01l-2.85.09v-2.07l-.1-4.95v-2.2l-.4.25-.78-.53-.76-.33-2.28-.45-.48.22-.98 1.49-.23-.82-1.09.69-.7-.27-.7-1.36-2.29-.99-1.86-.63-1.9-.4-1.25-.41-.9-.74-.18-1.17-.21-.5-.67-.69-1.3-.1-.77.42-2.28 1.6-.76.14-.51-.99-.35-.35-.54.02-.99 1.19-1.75 1.49-.63.31-.85.17-.66-.55-1.32-1.66-.6-1.65.13-.82.34-.46 1.23-.53.44-.38.15-.5-1.77-2.48-.71-1.07-.6-.6-.48.01-1.7 1.35-1.5 1.05-.3-.24.45-.76-.03-.97-.3-.4-1.17.26-.96-.06-.5-.2-.05-.34.4-.7.28-1.28-.18-.52-.73-.36-.08.32.35.9-.43.28-1.08-1.3-1.45-.62-.72.06-1.4.76.08-2.54.1-5.85-.1-19.3-.04-3.14.02-10.84.02-5.5v-6.87l-.05-1.58-.03-3.22.03-7.14.02-7.22-.02-2.88h.07l-.04-4.27 3.42-.03h4.07l13.78.08z" long-name="State House District 4A" region="3" short-name="4A" value="1"/>
    <path d="m270.5 236.61.02 14.65v2.93l8.76.01 11.67.02 3.49.01-.02 2.9-.02 8.78-.04 11.68v5.85l-.02 20.47.02 2.88.11.02h7.32l4.14.01 14.52.04 8.72.01-.04 16.34-.06 1.14-1.85.02-3.11-.06-.79.03h-4.96l-.01 10.83-.01 9.8v14.53l-.02 8.69v6.49l.08 2.2 8.52.03 8.61-.01 4.51.03 7.1-.02h20.17v16.17l.43 1.61.03 1.92.3 1.1.07.87-.16 1.06-.02 3.4-.27 1.17.04 1.18v5.8l-.11 1.6.33 1.48-.07.69-.3.82-.08.65.32 2.61-.08 1.33v13h1.4l.01 2.9-1.28-.01-.14 1.43-.01 5.77.02 1.69-.02 4.06.02 8.4-.29 2.08.16 1.71.53 1.6.26 1.83-.07.82-.34.85-.13.73.02 3.44.34.9.42.45 1.56 1.1.6.77.24 1.07 1.02 5.5h-10.6l-2.18.04-2.56 2.14-5.6 4.62-.53-.65-.88-.8-1.1-.41-1.37-.06-1.02.24-2.54 1.22-.86.31-1.5-.24-1.04.06-1.85 1.06-1.8.61-1.11.28-2.08.73-.77.58-.7.38-.47.08-1.8.69-2.43.6-2.03.44-.92.03-1.1-.1-1.13.3-.9-.15-3.07-1.24-1.33-.37-1.43-.3-1.63-.2-1.32.15-.8.28 1.71-4.04.28-.57.52-.17v-5.43h-7.82l-5.1-.02-4.07.03-.02-5.45.01-6.03-.02-6.23.02-4.94.09-5.75.15-5.4-.05-11.83-.04-5.76-.11-5.47-.01-14.7v-9.91l-6.63.01-1.88.08-3.87.03h-11.4l-3.38-.1-11.01-.02h-5.64l-13.37-.09-.88.12-11.53-.02-4.27-.03-12.6.01-3.83-.01-2.09.03-5.17-.01-.38-.35-2.24-.76-1.6-.73-1.23-.75-.51-.6-.2-1 .06-1.4-.1-2.11-.4-.81-.79-1-.57-.16-.5.16-1.2 1.1-.94.5-.98.23-1.4-.24-.59-.18-.93-.72-.62-.84-.23-.76.11-.67.47-.92.18-1.94-.05-1.27-.1-.35-.57-.65-1.27-.55-1.56-.2-1.96-.85-1.2-.06-1.53.08-1.21-.1-1.47-.54-1.56-.28-.33-.53.35-.27 1.5-.58.38-.28.38-1.04.13-.88.03-1.25-.3-.66-.66-.8-1.74-1-1.13-.29-.43.17-1.05.9-1.05.65-1.27.52-1.56.04-2.35-.7-.59-.24.04-.27.03-9.2-.03-.6v-10.4l.03-3.08-.05-5.2.02-3.38 2.8-.04 10.78.11 13.47-.05 1.74.04 17.29.02h17.27l5.72-.02.07.02v-11.62l.02-6.18h-7.27l.02-14.21-.04-5.28-.02-15.51 5.9.02 11.55-.01v-5.83l-.02-8.92.06-20.37h10.81l.02-8.8.03-8.8 5.72.01z" long-name="State House District 4B" region="4" short-name="4B" value="1"/>
    <path d="m370.22 356.58-.7.08-1.04.46-1.15.21.01 2.24-5.8-.02.02-2.9-.61-.34.07-1.9.43-1.98 2.97-.26-.15-.95.15-.37h.66l.34.26 1.27-.01.62-.23.02 1.5 1.46-.03.31.4 1.12.6Z" long-name="State House District 5" region="5" short-name="5" value="2"/>
    <path d="m270.5 236.61.04-5.87-.04-8.26.03-.53.02-8.8v-15.47h7.42l10.08-.03 11.65-.01 11.62-.02 13.82-.02 15.42-.03h29.14l11.68-.01h11.71l11.4-.01h14.75l16.9.01 18.35.01 17.32.01 19.49.01 15.9.01h8.69v6.62l.02 3.02-.05.31.02 12.53-.01 4.53.03 1.06-.06 1.96v14.61l-.01 12.23h5l-.02 17.52v11.7l-.02 5.85-17.45.08.02 5.83-.02 5.82.03 2.9-.03 9.03-.01 10 .01 1.32 5.28.02-.04 6.04v5.83l.05.26v5.5l-.03 8.76.01 8.72-.02 8.7-.03 2.9.05 2.75.02 3.1.01 14.5-.01 2.88h5.26l-.03 8.82.02 3.22-.02 8.32-.03 14.33-5.18.01-.58.04-11.51.01-14.38-.02-2.78-.02h-5.77l-2.87-.02-8.59-.02-.02 2.87.03 2.86-.01 4.48-.03 1.3.07 11.22-.05.27.04 3.02-.02 8.45h-8.6l-1.42-.04-1.64.08-.05 13.98-.02 14.12-.02 9.84.02 4.68v8.56l-.01 5.8.02 2.6-.03 3.1v5.71h-10.16l.02 7.82-8.83.05-8.08.04-11.31-.02-.77.27-.65-.25-1.46-.02V539l-1.6-2.17-.7-.35h-4.82l-1.31-.1-1.26.09-.72-.49-.38-.48-1.75-3.5-.25-1.03v-2.9l-.24-1.1-1.91-3.35-.33-.52-.4-.13-.05-2.49-1.36-5.63-1.07-2.27-.37-1.2-.06-.55v-3.07l-.2-1-.62-1.04-3.72-3.86-.4-.53-3.52-6.61-.32-.5-1.65-1.9-2.31-1.84-.29.02-1.1-.86v-.24l-2.97-2.36-1.16-1.1-.21-.71-.03-4.77h-.05l-1.02-5.5-.24-1.08-.6-.78-1.56-1.1-.42-.45-.34-.89-.02-3.44.13-.73.34-.85.07-.82-.26-1.82-.53-1.61-.16-1.7.29-2.1-.02-8.39.02-4.07-.02-1.68v-5.77l.15-1.43h1.28v-2.9h-1.41v-12.99l.08-1.32-.32-2.62.07-.65.3-.82.08-.7-.33-1.48.11-1.6v-5.8l-.04-1.17.27-1.16.02-3.41.16-1.05-.07-.89-.3-1.1-.03-1.91-.42-1.6-.01-10.38v-5.8l2.92-.03 2.86.03 8.66.02h5.13l2.86.05 1.09-.04 14.02.03-.01-4.65.05-3.8-.01-3.15.01-11.84.02-11.38.04-5.8-.02-2.9.02-5.84-.03-3.1-6.1-.01.02-17.5-11.64-.01-4.54-.03h-9.98l-8.67-.02-14.55-.03-11.6-.03-8.69-.01-8.72-.01-14.52-.04-4.14-.01h-7.32l-.11-.02-.02-2.88.01-20.47.01-5.85.04-11.68.02-8.78.02-2.9-3.49-.01-11.67-.02-8.75-.01-.01-2.93z" long-name="State House District 6" region="6" short-name="6" value="2"/>
    <path d="m444.72 628.93-1.08.34-.88.05-5.63-.01.06-4.15h-2.84l.02-2.82-2.7.02-4.29-.1-.2-1.02-.48-1.3-.4-1.39-.37-.5h-2.36l-.15 1.1-1.33.62.65 1.01h-.49l-2.56-4.2 2.28-.02 3.52.1h9.73l10.43.03-.07 11.8z" long-name="State House District 7" region="7" short-name="7" value="2"/>
    <path d="M556.25 801.45h-1.97l-8.82-.07-8.6-.03-12.88-.08-2.64-.03-2.5.02-11.52-.12-5.17.02-3.02-.06h-6.26l-2.31-.03-.85.04-4.7-.06-13.07-.04.02-.8.55-1.43.13-1.2-.04-.96-.54-1.4-.73-1.62-.72-1.37-.76-1.3-.73-.82-.87-.08-1.39-.48-.68-.4-.68-.56-.64-.85-.37-.65-.9-1.94-.62-.73-1.62-2.42-1.16-1.39-1.07-1.8-.5-1.22-.36-1.19-.32-1.92-.03-1.18.44-1.84-.03-2.24-.17-1.01-.36-.7-1.11-1.73-.36-1.36-.05-1.75.06-.55.3-1.06.93-2.37.59-1.14 2.39-3.89.7-1.25.9-1.12.99-.89.48-.73.72-1.56 1.18-2.92.34-1.5-.13-1.62-1.04-1.35-1.63-2.64-.39-1 .15-1.07.7-1.43.7-.88.43-.74 1.01-2.09.77-2.2.55-1.91.08-.77-.12-1.43-.1-3.27-.13-1.14-.6-2.17-.49-1.35-1.23-2.53-.67-1.84-.58-1.28-.38-.99-.98-1.66-1.2-2.8-.18-1.04.06-1.33.72-2.7.2-1.5.04-1.15.57-2.67.52-1.42.53-1.08.53-.43 1.6-.82.53-.42 1.08-1.06.65-1.07.23-1.02-.06-.65-1.79-2.31-1.41-2-1.03-1.29-1.44-2.1-.1-.61.28-.5.64-.28 1.27.57.8-.15.58-1.13v-.69l-.95-1.2-2.21-1.06-2.28-.81-3.15-1.66-.54-.4-1.54-1.65-2.62-2.07-.28-.4-.12-.8.17-.87.38-1.18.97-1.56.83-.68.56-.8.25-1.22.04-.72-.27-.51-.9-.26-.01-2.77.07-2.84v-2.62l-1.3.02-4.3-.04-.01-2.42.07-3.2-2.83-.03.03-2.83h-.75l.21-.4h.54l.07-5.66.04-5.91-.72-.03-.12-1.17.87-.43.06-11.8-10.42-.04h-9.74l-3.52-.1-2.28.02-.3-.65-.32-1.13.19-1.83.27-1.49.09-1.72-.3-2.56-.38-1.25-.4-.43-2.83-2.2-.62-.95-.16-.68.1-.99.33-1 .45-.87.56-.6 1.5-.98 2.07-.9.8-.53 1.8-2.43.33-1.38.15-3.05-.75-1.86-1.14-1.45-1.46-1.33-1.19-1.19-1.71-1.84-1.4-2.5-.2-.74-.1-2.42-.19-1.85-.02-1.65-.5-2.5-.3-.97-.41-.73-.56-.67-1-.73-.66-.97 3.3.04 11.33-.02 8.24-.02v-1.4l.34-.12.94.11.3.76.73.5.45.13h3.2l-.04 8.55-.01 10 .06 12.7-.03 2.9 8.52.02 11.29.04 2.71.05-.15 11.28-.06 5.65 4.67.02 8.5.08 3.69.07-.02 3.88-.09 4.55v2.96l-.05 5.51 8.4.03 2.83-.06 2.8.05 11.2.07h1.19l4.57.06 11.17.03 8.44.02-.06 5.64-.1 5.63-.02 3.21-.1 5.03-.03 5.77-.12 8.55 5.58.02 2.5.05h3.12l2.52.03 3.27-.05 2.31.04h2.8l-.02 5.36-.03 9.01-.07 9.02-.06 13.42v8.43l-.02 5.63.01 2.85v8.41l-.05 3.7.08 1.92 2.3.05 2.82-.04-.02 4.39v5.66l-.06.34.07 2.64.01 5.31-.05 2.8-.04 5.57-.01 8.44-.07 16.68-.03 2.69v8.47z" long-name="State House District 8" region="8" short-name="8" value="2"/>
    <path d="m603.53 197.58.03 7.15v8.77l-.03.09v23.44l-.02 17.54h4.4l-.02 14.58-.01 20.46-.02 17.51.03 5.81-.01 8.46-.03 2.66.06.55 10.18.01 11.6.02 17.27.03v17.84l.03 3.83v19.38l.02 2.11.62.59.35.73.87-.18 1.52.46 2.18 1.06 1.2.72.38-.07.96-.98.67-.02.72.68-.36.75.57.5-.11.44.8.68.75 1.56.11.5-.36.81.16.61 1.06.69 1.15-.03 4.03-.01-.04 5.79.05 5.17-.02 3.66.03 2.53h1.35l1.3-1.73.1-1.5.6-.66.44-.1.68-1.09.65.12.66-.5.26-.4.77.33h.48l.58-.52 1.35.45-.09.93-.32.68.93 2.98.02.74.38 1.04.47.24.35-.1.1.68-.16.2.22 1.13-.32.3.1.8-.56.68-.1.37.31 1.25.69-.49.46-.6 1.22-.43.67.08.6-.2.74-.66.55-.28 1.5.14.68.5 1.22.6 1.51-1.42.21-.9-.27-.4-.27-1.47.28-.56 1.65-.4.58-.44-.06-.36.52-.06.52.34-.5.26-.2.72.14.74.67 1-.08.8.63-.35.16-.87.3-.52.3-1.24-.03-.36.72-.96 1.3-.91.64-.7 2.1-1.34.78-.26.87-.72.45-.84.7-.77.05-.96.17-.1 2.34.52 1.44.55.25.4-.8.06-.17.58.1.88.66 1.66.48.54.2.6.8.7-.2.8.3 1.77.03.76-.4.42.07.83.48.28.01.78.9.2.9.38.3-.26-.23-.84.03-1.46.45-.08.25.86.6.56-.58.76.29.71 1.05.82.39 2.17-.4.93-.46.28-.32.5-.76-.25h-.47l-1.33.33-.75.82-.06.73-.35.23-.16.52-.48.58-.67.53.02.35.36.65.59.06.68-.8.66-1.14.91-.71.32-.69.73-.36.28-.42.64.2.55-.08 2.11-1.56.44-.41.33-.8.55-.9.65-1.61.38-.22.9.02.53-.3.48-.66.86.04.8-.1 1.37.51 1.55.15 1.1 1.66-.16.35v.95l-.55.56-.22.47.68 1.11.19.86.1 1.16.49.9 1.56 1.69.36.17.38.52.98.7.93.82.3.42-.6 1.13-.63.36.3.36.17 1.13.85 1.42 5.62-.04.12.3h7.58v5.87l.02 14.51.38 1.03.01 6.25.03.54-.46-.05-.99.5-.5-.2-1.94.19-.44-.45-1.05-.76-.82-.3-.54-.05.05-.44-.8-.6.08-.58-.2-.7-.35-.39-1.09-.5-.71.2-.57-.12-.29-.54-1.06.18-.84.41-.31-.38-.47.3-1.1.08-.38-.43-1.1-.32-.16.55-1.12-.04-.17-.47-.69.02-.66.25-.04-.33-.5-.09-.52-.78-.74.03-.55-.17-.73.2-.47-.4-1.14.1-.35-.2-.25.39h-1.52l-.28-.34-.49-.1-.64.93-1.96.8-.52-.48h-1l-.39-.47-.5.43-.62.26.13.44-.24.48.44.3-.5 1.15-1.14.05-.24.43-.5.18-1.25-.02-.36.53-.6.17-.27.3-.37-.12.03-.48H700l.06.58-.34.4-.39-.34-.94.74.08.52-1.15.16.06.37-.43.17.05.43-.31.54-.42.13-.65.57.2.67-.63.32-.02.71-.61-.38-.22.26-.5-.12-.12.42-.39.13-.59-.16-.43-.39-.3.06-.78-.82-1.22-.76-.39-.66.38-.37-.1-.65-.72-.44-.25.32-.35-.75-.8-.81.33-.4-.14-.72-.27-.39-.4.4-.48-.65-.22-.78.56-.75-.32-.58.43-.6-.21-.39.42-1.16-.43-.4-.08-.51-.55-1.02-.02-.44-.42-.25-.49-.9-1.02-.8-1.74-.32-.36-.34v-.38l-.74-.36-.66.07-.18-1.06-.33-.15-.82-1.1-2.71.02-8.59-.02-5.72-.03-2.13-.1-.44.48-.76.11-.34.55-.67-.13-.26.29-.63.23-.84.1-2.09-.17-.73-.17-1.87-.64-.23-.42-.43-.26-5.3.03-.4.05-3.07-.02-5.56.06-8.17-.02-.42.04-8.58-.02h-2.84v-7.08l-.03-3.7h-2.86l.03-6.5h-2.89l-.03-17.43h-1.54v-2.88l-5.77-.02v-5.79h-2.89v-17.36h-2.89v-7.21l-2.8-.03v-1.45l-1.46-.01.01-1.01.21-1.88h1.24l.02-8.7.03-11.61-2.9-.03.01-8.3-1.63-3.78h-.27v-.82l-2.2-5h-.71v-1.73l-.51-1.18-.64-1.72-2.78-7.04h-1.88l.01-17.5-7.92.02-3.7.02-6.4-.02-2.32-.02h-5.73l-2.94-.04-5.83.04-17.42-.04h-8.68l.01-5.85.01-11.7.03-17.52h-5.01v-12.23l.02-11.06-.01-3.55.06-1.96-.03-1.06v-17.06l.04-.3-.03-3.03v-6.62h14.49l14.55.01h11.82l13 .02 16.03-.03Z" long-name="State House District 9" region="9" short-name="9" value="2"/>
    <path d="m957.56 624.74.03-2.83 1.4.03v1.42l2.7.04.11 2.8.2 5.62-.81.04-2.15-.03-.07-2.25-1.62.13-1.2-.04-.01-1.42.41-.4.83-.03.16-1.68Z" long-name="State House District 10" region="10" short-name="10" value="2"/>
    <path d="m961.8 626.2-.1-2.8 2.93.02v-.84h3.28l-.01.81h1.47l.85.8.24.57-.25.16-.8-.38-.12.72.55.18.52-.27.3.53-.85.42-1.4-.24-.98.07v.95l-1.43.05-.28.12-1.13.04.02-.91z" long-name="State House District 11" region="11" short-name="11" value="2"/>
    <path d="M744.8 549.21v3.94l-.03 8.86-.02 19.69v10.13l-.02 8.51h3.71l.03 2.87.04 14.13-.02 2.9.07 11.22-.01 2.97-7.18.01-3-.02-6.68.06.01-2.85-.06-8.51.03-2.84-.05-2.85-3.9-.05h-4.49v2.23l-2.18-.01v-.7h-.69l-.01-.78h-1l-.28-.57-.7.16.43.6 1.5 1.37-1-.47-1.6-1.25-.17.1.01 2.23-1.49.02-3.47-.04h-1.99l-.16-.84.17-.55-4.27-.03v-.73h-.69v-.36l.69-.36 5.06.08.83-1.56-.7-.04.06-.46-.83-.73-.61-.14-.54.21-.44-.36.04-1.58.74-.8-.78-.23v-1.36l.92-.06 1.71.04.2-.6.53.04.13-1.25-.16-1 .28-2.34-.18-2.47-.26-2.41h-1.47l.02-3.05-.08-1.09v-1.9l.12-7.02-.06-3.96.01-8.07.03-.46v-7.68l.01-2.33-.05-4.31.04-2.9v-25.36l9.7.02h24.17l.04 5.53-.02 2.85-.01 5.7-.04 2.62z" long-name="State House District 12" region="12" short-name="12" value="2"/>
    <path d="m957.68 620.5-.1 1.4-.02 2.84-1.4-.03-.04 1.43-1.95.06-.4-.05-.88-.42-2.5-2.31-.73-.75-.94-1.33-.47-.45-.77-.44-.72-.19-2.03-.02.01-2.7 5.64-.02 2.52.14.16.76.37.43-.2.72.6.41-.48.41z" long-name="State House District 13" region="13" short-name="13" value="2"/>
    <path d="m440.26 565.54.04-11.4.01-5.73-.02-8.54-.02-7.83 10.15.01.01-5.7.03-3.1-.02-2.61.01-5.8v-8.56l-.02-4.68.02-9.84.02-14.12.05-13.98 1.64-.08 1.42.05h8.6l.02-8.46-.04-3.02.05-.27-.07-11.23.03-1.3.01-4.47-.03-2.86.02-2.87 8.6.02 2.86.02h5.77l2.78.02 14.38.02h11.51l.58-.04 5.18-.02.03-14.33.02-8.32-.02-3.22.03-8.82h-5.26l.01-2.87-.01-14.5-.02-3.1-.05-2.75.03-2.9.02-8.7-.01-8.73.03-8.76v-5.5l-.04-.26v-5.83l.02-6.04-5.27-.02-.01-1.33.01-9.99.03-9.03-.03-2.9.02-5.82-.02-5.83 17.45-.08h8.68l17.42.04 5.83-.04 2.94.04h5.73l2.32.02 6.4.02 3.7-.02 7.92-.01v17.5h1.87l2.78 7.03.64 1.72.51 1.18v1.73h.7l2.2 5v.82h.28l1.63 3.78-.01 8.3 2.9.03-.03 11.61-.02 8.7h-1.23l-.22 1.88-.01 1 1.46.02v1.45l2.8.03v7.2l2.89.01v17.36h2.9l-.01 5.79 5.77.02v2.88h1.54l.03 17.43H614l-.03 6.5h2.86l.03 3.7v7.09h2.84l8.58.01.42-.04 8.17.02 5.56-.06 3.07.02.4-.05 5.3-.03.43.26.23.42 1.87.64.73.17 2.09.17.84-.1.63-.23.26-.3.67.14.34-.55.76-.1.44-.5 2.13.1 5.72.04 8.59.02 2.71-.02.82 1.1.33.15.18 1.06.66-.07.74.36v.38l.36.34 1.74.33 1.02.79.49.9.42.25.02.44.55 1.02.08.51.43.4-.42 1.16.21.4-.43.59.32.59-.56.75.22.77.48.65.4-.4.27.39.14.72-.33.4.8.8.35.76.25-.32.72.44.1.65-.38.37.4.66 1.2.76.8.82.29-.06.43.4.6.15.38-.13.11-.42.51.12.22-.26.6.38.03-.7.62-.33-.19-.67.65-.56.42-.14.32-.54-.06-.43.43-.17-.06-.37 1.15-.16-.08-.52.94-.74.4.34.33-.4-.06-.58h.68l-.03.48.37.13.28-.3.6-.18.35-.53 1.25.02.5-.18.24-.43 1.15-.05.49-1.15-.44-.3.24-.48-.13-.44.62-.26.5-.43.39.47h1l.52.49 1.96-.8.64-.94.5.1.27.34h1.52l.25-.4.35.22 1.14-.11.47.4.73-.2.55.17.74-.03.51.78.5.09.05.33.66-.25.69-.02.17.47 1.12.04.17-.55 1.1.32.38.43 1.1-.08.46-.3.3.38.85-.41 1.06-.18.29.54.57.12.71-.2 1.09.5.36.38.19.7-.08.58.8.61-.05.44.54.05.82.3 1.05.76.44.45 1.94-.2.5.22 1-.51-.02 8.62.02 8.57.03 2.88 3.37-.02v16.86H726l-14.08-.04-8.52-.03-8.58.03-2.83.04h-5.62l-5.67-.04-2.85.02-4.12-.04-1.43.03-8.58-.04-8.41-.04h-11.5l-5.6.04-.03 8.59-.03 17.11v25.15l-.1.54-7.01.01-.44.03-7.13.01-13.98-.02.03 2.68-.04 5.74v6.73l.05 1.79-.02 3.88v4.6l-.03 8.58-.03 14.2.02 14.17.04 2.84-.01 2.81 4.69.04-.06 8.6-.1 11.58-.11 16.71-.08 8.02.01 5.7-.08 7.46.03.11-.07 4.13-.05 5.63-8.52-.01-8.21-.05h-3.5l-8.23-.04-5.23-.04h-11.77l-5.07-.06h-3.25l-8.39-.05h-2.79l-2.31-.04-3.27.05-2.52-.04-3.11.02-2.5-.05-5.6-.03.13-8.55.03-5.77.1-5.03.03-3.2.1-5.64.06-5.64-8.45-.02-11.17-.03-4.57-.07-1.19.01-11.2-.07-2.8-.05-2.84.06-8.39-.03.06-5.5-.01-2.97.1-4.55.01-3.88-3.69-.07-8.5-.08-4.67-.02.06-5.65.15-11.28-2.71-.05-11.3-.04-8.51-.03.03-2.9-.06-12.7.01-9.99Z" long-name="State House District 14" region="14" short-name="14" value="2"/>
    <path d="m603.53 197.58 7.02-.01 16.84-.03 11.93-.02 10.57-.01 9.11-.02 11.73-.02 20.43-.03h17.6l19.64-.02h15.38l17.6-.01h17.6l-.11 11.12-.03 7.94.04 3.08-.04 3.83.02 13.74-.02 7.39.06 3.65-.05.7v5.86h3.3l-.02 6-.02 14.62v11.25l-.02 3.34-17.41-.1-.02 2.89v8.8l.02 8.75-.06 13.22.01 1.36h3.54l-.03 8.84v8.72l-.04 5.82-.01 8.7.04 2.91h-2.93l-14.4.08-.03 17.37-.03 17.34-5.21-.03-5.18.03h-3.37l.01 21.13h-7.58l-.12-.3-5.62.04-.85-1.42-.17-1.13-.3-.36.64-.36.6-1.13-.3-.42-.94-.82-.98-.7-.38-.52-.36-.17-1.56-1.7-.49-.9-.1-1.15-.19-.86-.67-1.11.2-.46.56-.57v-.95l.16-.35-1.1-1.66-1.55-.15-1.36-.5-.81.09-.86-.04-.48.66-.53.3-.9-.02-.38.22-.65 1.61-.55.9-.33.8-.44.42-2.11 1.55-.55.08-.64-.2-.28.42-.73.36-.32.69-.9.7-.67 1.15-.68.8-.6-.06-.35-.65-.02-.35.67-.53.48-.58.16-.52.35-.23.06-.73.75-.82 1.33-.34.47.01.76.25.32-.5.47-.28.39-.93-.4-2.17-1.04-.82-.3-.71.58-.76-.58-.56-.26-.86-.45.08-.03 1.46.23.84-.3.26-.9-.38-.9-.2-.01-.78-.48-.28-.07-.83.4-.42-.04-.76-.3-1.78.2-.8-.8-.7-.2-.6-.47-.53-.67-1.66-.1-.88.18-.57.8-.06-.25-.4-1.44-.56-2.34-.52-.17.1-.04.96-.7.77-.46.84-.87.72-.79.26-2.1 1.34-.63.7-1.3.91-.72.96.03.36-.3 1.24-.3.52-.16.87-.63.34.08-.8-.67-1-.14-.73.2-.72.5-.26-.52-.34-.52.06.06.36-.58.44-1.65.4-.28.56.26 1.48.28.4-.2.9-1.52 1.41-1.22-.6-.67-.5-1.5-.14-.56.28-.74.66-.6.2-.67-.08-1.22.43-.46.6-.69.49-.3-1.25.1-.37.55-.68-.1-.8.32-.3-.22-1.13.16-.2-.1-.68-.35.1-.47-.24-.38-1.04-.02-.74-.93-2.98.32-.68.1-.93-1.36-.46-.58.54-.48-.01-.77-.33-.26.4-.66.5-.65-.12-.68 1.09-.44.1-.6.65-.1 1.5-1.3 1.73h-1.35l-.03-2.52.02-3.66-.05-5.17.04-5.8-4.03.02-1.15.03-1.06-.69-.16-.6.36-.83-.1-.49-.75-1.56-.81-.68.11-.44-.57-.5.36-.75-.72-.68-.67.02-.96.98-.38.07-1.2-.72-2.18-1.06-1.52-.46-.87.18-.35-.73-.62-.59-.02-2.1v-19.4l-.03-3.82v-17.84l-17.26-.03-11.61-.02-10.18-.01-.06-.55.03-2.66.01-8.45-.03-5.82.02-17.5v-20.47l.02-14.57h-4.39l.02-17.55v-23.44l.04-.1-.01-8.76z" long-name="State House District 15" region="15" short-name="15" value="2"/>
    <path d="m957.56 624.74-.02 1.4-.16 1.68-.83.03-.41.4.01 1.42.07 2.12-4.22-.09-.02-.49-1.62-.78.04-3.85v-3.16l2.49 2.3.89.43.4.05 1.94-.06.03-1.43z" long-name="State House District 16" region="16" short-name="16" value="2"/>
    <path d="m934.51 419.02.04-1.04 2.14-.02v1.2l.66-.01-.12.63.7.6.05.45-.77.56v.6l.93 1.02-.14.38-.54.35.28.49.78.26 1.3.2.48.41-.05.38-.44.45.84.75.33 1.22-.07 1.11.44.5-.54.59.75.2-.2.71.96.16.24.89.4.5-.2.55.2.44.7.07.33.32-.33.32-.52.08.03 1.02.31 1.12-.51.37-.82-.18-.37.48.53.09.95.6.7.08-.37.76.13.4h.4l.6-.34.35.1.3.84.69.41.14.56-.55.25-.48.92.49.15.55.67.65.22-.45.43.1.38 1.2-.03.07.42.81.8.66.44-.46.64.13.75-.82.05h-10.75l-7.14.02-.02-15.39-.15-.82-.51-1.02-.5-1.05-.13-.74.02-6.07-.12-.81h2.85l-.02 1.45h2.85z" long-name="State House District 17" region="17" short-name="17" value="2"/>
    <path d="M933.08 415.08h.88v-1.35h-.78v-1.56l-5.14.01v-6.76l-.25-1.94.05-.83.3-1.22.06-.72-.2-.96-.3-.59-.5-.6-1.88-1.49-.54-.6-.9-1.52-.86-.04-10.9-.02v-5.77l.02-2.87-.1-8.71.09-2.9.13-8.65.13-5.85 5.8.02 3.51-.02-.22.54-.91 1.04-.01.46.4.29.68-.19.67.43.09.82-.4.42-.83.12-.3.33.27.99.16 1 .3.45.46.15 1.49-.66.79.26.04.55-.44.43-1.96 1-.29.3-.7 1.2v.37l.4.24.9-.45 1.36.35.57.49-.1.41-.6.16-.75-.06.5.68.08.82.27.95.7 1.47.08.92-.28.56-.01.57.46.25.87-.16.5.3.1.89.86.7-.04.45-.93.4.2.39.78.28.27.46.1.94-.18.93-.45.58.04.53.67.09.4.77.5.64.57 1.07.43.48 1.2.78.21.3.36 1.08.12.8.09 1.69.14 1.12-.5 1.53.09.4.43.42.7.19.04.36-.48.56-.02.3.3 1.1.01.89.2.5.9.56.37.45.04.4-.48 1.86-.34.93.27.94-.12.4-.47.6.04.41.8.6.34.45.08.47-.45 1.35.3.84.68.57.6.24.66.06.35.23.08.62-.23.6.4.78.78.48 1.38 1.33-.04.42-.7.38.17.26.71.42.29.84-.09.42-.57.1-.4-.45-.21.53.52.62-.03.56-.43.32-.67.01.01-1.2-2.15.02-.03 1.04-.05 1.12-.73-.02v-.52l-.64-.19.04-3.71z" long-name="State House District 18" region="18" short-name="18" value="2"/>
    <path d="m820.02 359.91-8.67.01-4.27.05-1.5-.04-2.87.04-4.38-.04-10.06-.03-2.86.03-5.79-.05-11.5-.04-.03-2.9v-8.71l.05-5.82v-8.72l.03-8.84h-3.54v-1.36l.05-13.22-.02-8.76v-8.8l.02-2.88 17.41.1.02-3.34v-11.25l.02-14.62.02-6h-3.3v-5.86l.05-.7-.06-3.65.02-7.4-.02-13.73.04-3.84-.04-3.07.03-7.94.11-11.13h3.21l14.33-.02 17.26-.01 8.75-.01h11.57l14.67-.02 17.46.01h12.57l13.81.01H910l-.61.47.12.64.81.26-.21.38-.62.41-.65.96-.09 1.05.07 1.28-.17.91.24.76 1.14.33.16.3-.56 1.26-.32 1.68.24.3.76.12-.06 1.3.16.83.51.57.66-.03.31.57-.6 1.12-.03.66.33.4.52.2.35.65-.29 1.22.34.96.43.38 1.08.42.74.4.45.63-.24.69-.54.07-.64-.22-.07.37.48.87-.32.78.43.7.8.47.6.07.7-.15.39.53-.18.3-1.21 1.15-.3.62.2.26.73-.16.47.08.18.33v1.06l.77 1.01-.3.61-.8.12-.2.3.85.27.34.95-.09.77-.5.36-.74.16-.13.48.2.45.71.91-.1.78-.24.39-1.1.5-.04.53.95-.2.46.16.62.5.63.14.57-.14.83.23.15.6-.47.46-.75.16-1.76.83-.25.43.22.28.6-.1.5-.58.72-.17.59.39-.24.7-.8-.12-.59.43.4.52.9.21.62-.12.4.32-.36.88.08.48.48.2.64-.06.41.22-.37.58-.85.28-.3.54.23.28.72.25.22.53.55.74.05.45-.28.43-.8.47-.15.5.45 1.05.4.23.8-.15.56.14.27.78-.07.83-.66.86-.06.38.6.4 1.07.05.17.45-.43.51-.6.11-.04.59 1.4 1.01.33.56.25.88.34.46 1.18.66-.06.4-1.13.3-.22.22.2.6.54.59.6 1.04.7.57 1.8.75.2.53-.26.25-1.02-.23-.24.5.23 1.96-.1.63-.95.56.09.54.93-.03.21.28-.15.55-.6.7-.3.59-.1.74-.52.5-.41.1-.16.4.54.58.27.66.07.74-.23.47-.53.21-1.28-.73-.46.02-.47.52.2.68 1.28 1.26.12.55-.6.17-.96-.94-.5.05-.08.36.6.54.26.54-.5.45-.74-.3-.51-.05-.82.22-.34.43.18.58.74.16.8-.17.4.15-.04.4-.6.58-.57.99-1.12.13-.24.46.18.3.9-.03.51.36-.04 1.33-.3.83-.34.13-.95-.34-.67.13-.12.6.23.18 1.07.14.31.36.03.64-.37.84-.5.33-2.34.35-.34.25-.05.6.47.4.93.34 1.77-.08 1.25.17.48.52-.1.4-.38.16-2.06-.05-.58-.5-.42.05-.2.54.12.82.23.56.53.57 1.87.66.57.53.02.46-.36.33-.81.06-.38.2-.28.75.11.98.7.57.82-.11 1.16-.66h.43l.53.5-.18.49-1.13 1.12-.73.14-.95-.17-.08 2.08.6.83 1.14.52.6.59.1.68-.34.25-.36-.13-.43-.72-.45.13.43.53.07.67-.8.49-1.82.37-.41.39.09.6.4.2h1l1.4-.46.8-.01.76.36.08.58-.55.32-1.1-.69-.72.13-.28.67.16.62.66.86.53.08 1-.1.28.64-.1 1.25-.8 1.04-1.87 1.11-.07.85.45.22.71-.1.88-.96.66-.14.7.56.12.6-.16.94-.29.36-.63.13-.93-.48-.9.2-.07.46.42.52.47.25.59.06 1.33.79.31.54-.27.64-.4-.1-.82-.82-.65-.15-.79.12-.88.32-.6.55.28.74.59.03.3-.21.29-.66.61-.25.2.79.82.84.1.76-1.13.83-.61.89-.48.25-.7-.04-.7.13-.46.32-.16.55.92.32-.1.94.51.47.84.4 1.44-.5.39.34-.3.36-.53.08-.23.47.48.82-.22.64-.54.03-1.05-.2-.48.26-.2.75.11.5.94.6.38.54.27.76.98.42.03.35-.6.67.12.57 1.01.06.7.36.12.76-.42 1.1-1.17.42-.6.66.44.49.49-.45.82-.16 1.19.2.63.64-.24.47-1.07.4h-.79l-.4.4-.49 1.13.03.45.6.12.46-.4.6-.12.41.6-.55.59-.05.36.34.37.55.21.93.67.1.48-.4.3-.52-.07-.66-.83-.55-.1-1.3 1.6.02.6.31.17.44-.27.36-.48.64-.18.35.32.59 1.32.14.56-3.83.02-5.8-.05h-5.53l-2.73-.05-3.4.03-6.54-.04-5.75-.06-2-.09.01-2.9-.02-8.74-.03-2.92-.1-2.92-20.2-.03h-14.38l-.02 1.53-.01 10.2v5.8l-.01 11.62-.03 2.89.02 2.92-6.67-.01h-16.44l-5.75-.02z" long-name="State House District 19" region="19" short-name="19" value="2"/>
    <path d="m924.98 342.71-.12.54-.3.23-.56-.03-.22.26.25.66-.46.52-1.19-.24-.93.12-.25.33.15.6h1.18l1.17.28.43.43-.3.45-.68.1.05.46.68.81.06.5-.4.25-.8-.09-1.3.63-.47.45-.05.46.35.2.8-.06.63.48-.28.44-.77.09-.4.58.3.51.4.16 1.2.1.67.21.5.35.12.43-.35.34-.44-.15-.68-.52-.54-.13-.67.17-1 .5-.37.32-.15.5.32.3.36-.14.47-.54.6-.09 1.57.7.6.4.51.72.15.62-.35.5-.54-.13-.44-1.3-.47-.55-.55-.14-.5.22-.04.48.55.58.83.3-.33.58-1 .25-.28.58.6.68.14.48-.74.69-3.51.02-5.8-.02-.13 5.85-.13 8.66-.1 2.89.11 8.7-.02 2.88v5.77h-5.69l-2.25-.08-3.56.04-3.9-.03-2.6-.04-3.36.02-.3-.04-7.12-.04-.09 17.43 8.33-.04h8.5l2.62.06h5.94l.04.53v3.83l-.05 4.28v7.4l-.03 1.25 5.75.02 11.5.05h3.68l.5 1.02.16.82.02 15.4 7.14-.02h10.75l.82-.06 1.02.62-.34.32-.65-.31-.2.48 1.1.52.22.35.01 1-.47.72-.11.62.26.55.8 1.03.07.62.74.36-.3.69-1.24.69-.07.46.63.1.61-.56.37.54-.17.52.06.48.38.27.52.06.15.3-.4.68-.44.05-.36.38.49.36.42-.46.33.15.57 1.47-.33.38v.44l.53.12.55-.55.32.41.02.78.42 1.55-.02.75.31.2 1.04-.24.08.27-.6.5.07.4.53.89-.28 1.18.18 1.11.49.45-.01 1.62-.74.44.06.38.74.9.08.62.29.26.45-.03.08.46-.52-.03-.08.38.53.26-.51.64.1.28 1 .1.08.24-.42.44.26.25.5-.17.23.33.94.16.48.45.13.78-.26.53.14.43.5.24.11.49-.25.24-.66-.04-.1.22 1.1.6.1.26-.45 1.41.03.66-.32.58-.64.59 1.05.67.06.53-.4.2-.66-.01-.84-.44-.37.38.28.7.68.3.83-.5.8-.31.25.4-.82.81h-.75l-.31.31.35.55.98.32.17.56-.6.63-.62.3.18.43.95.3.64.48.14.44-.53.28-.67-.85-.45-.11-.55.16-.24.4.36.4.83-.19.15.41-.44.46-.28.58-.47.4h-.88l-.13.53.36.1.44 1 .06.53.33.48.96.23.88-.46.43-.03.28.45-.54.46-.63-.25-.33.17.14.57.7-.12.6.2-.12.36-.76.22-.53-.09-.09.92.63.86-.8.52-.15.29-.64.33-.54.06.17.4 1.47.53.04.36-.53.42-.86-.18-.76 1.28.47.14.59-.74.59-.1.54.38-.05.42-.37.42-.77.43.12 1 .2.48.57.65.04.35-.55.35-.67.11.12.47h.7l.32.43-.62.32.28.46-.33.66.5 1.18-.23.4-.58.09.04.51.88.28-.76.7-.42.2.07.47.8-.12.4.43-.24.23-.79.28-.32.3-.88.2.16.36.54-.18.67.3-.12.6.44.75.45.22 1.44-.5.27.35-.68.47-.6.14-.04.37.94.44.76.67-.49.58-.64.2-.12.45.51.24.7-.09.3.6-.58.78.5.58-.4.4-.93-.4-.17.51.6.37.16.47-.3.22-.94-.05-.15.48.6.37h.62l.74-.56.29.45-.83.61-.97-.28-.87.12.06.55.79-.04.32.35v.4l-.44.42.15.66.53.13 1.01.04.13.54-.7-.24-.24.21.27.6-.52.16.09.61.54.53.16.52.81.07.5.28.08.3-.48 1-.49.21-.67-.03-.43.63.31.42.48-.02.67-.8.57.15.29.42-.33.44-.64.06-.12.43.3.51-.32.45-.52-.03-.68.3v.45l.45.2-.16.66.26.35.4-.45.43-.05.65 1.17-.56.46-.2.63-.74.86-.24.46.06.9.3 1 .14 1.56-.18.29-.63.19-.15.54.32.27.87-.09.41.18.04.52-.6.22-.73-.14-.32.54.37.29.37-.31.8.03-.02.62-.54.35.2.32-.55.48-.23.44.32.36.36-.64.25-.08.68 1.05-.3.48-.58.2-.53.41-.1.5.45.06.13-.45.45-.06.34.76-1.83.06-4.26-.09-2.85-.02-5.7-.1-8.24.01h-25.64l-11.38.04-2.87-.03-14.1-.04-5.6-.03.02-8.54v-5.7l-.05-2.55-3.01-.03v-8.56l-.02-1.36.05-7.19.01-5.45.06-.36.02-2.77v-8.57l-.03-3.24.03-.75.03-7.45.03-20.07.02-2.85h-11.41l-.16-.03-11.25.02-3.23-.02h-17.17l-5.62-.01-5.8.01-.03-1.42v-12.95l-.03-1.1.04-1.79.02-5.75.02-11.49v-34.82l-2.87-.01.02-5.8v-8.69l.02-20.27 5.75-.02 5.75.02h23.11l-.02-2.91.03-2.89V336.7l.02-10.2.02-1.54 14.39.01 20.18.03.1 2.92.04 2.92.02 8.74v2.9l2 .1 5.74.05 6.55.04 3.4-.03 2.72.04 5.53.01 5.8.05z" long-name="State House District 20" region="20" short-name="20" value="2"/>
    <path d="m970.4 621-.62.35.06.67-.47 1.1v.26l-1.47.01v-.8h-3.27v.83l-2.94-.02-2.7-.04v-1.42l-1.4-.03.09-1.41 4.13.05.18-2.16v-.64l3.16.02.62.69 1.22.72h.64l.4.27-.01 1.38Z" long-name="State House District 21" region="21" short-name="21" value="2"/>
    <path d="M903.2 668.62h-11.26l-8.8-.02-2.8-.03-5.23.02-5.6-.01-10.87-.04-9.1-.03.03-11.28.02-14.11v-22.09l.02-3.38-.02-4.4.02-2.7v-9.99l-3.29-.01.03-2.7.02-5.83.04-2.84-.01-2.82.03-3.1-.05-14 .02-2.84-.02-5.68.01-2.87-.03-2.82v-5.76l5.6.07 11.4.12 3.51.02 9.27-.07 4.16.04 5.6.03 14.11.04 2.87.03 11.38-.05 14.1.01h2.83l-.03 5.66.07 15.04v4.89l.04 8.53-.04 5.8-.02 5.67-.05 5.67 16.7-.01 2.81.05-.06 5.33-.1 5.67-.13 5.7-5.64.01v2.7l2.02.02.71.19.78.44.47.45.94 1.33.73.75v3.16l-.03 3.85 1.62.78.02.5 4.22.08.1 2.84-3.18.04-1.03-.05v2.07l-1.75-.06v2.13h-2.8v1.41h1.4l.01 1.42h1.4v1.43h.18v1.74l-.16.39.01 8.46-1.4.01v.7h1.4l-.03 14.12-8.7.06-10.9.02-5.6.02-2.96.04-10.91.01-5.75.03Z" long-name="State House District 22" region="22" short-name="22" value="2"/>
    <path d="m50.64 374.55-.77-.15-1.05.14-1.66.66-.94.54-1.94 1.32-.71.89-1.92 1.79-.73.46-.28.61.06.55.47.83 2.57 2.27 1.07.52.48.8v.62l-.21.86-.49.66-1.53 1.15-.6.22-1.16.83-.29.5-.8.09-.97-.5-.63-.86-1.47-1.78-.7-.35-1.15-.25-.83.76-.67 1.64-.28 1.7v.68l.64 1.6.22 1.8-.04 1.03-.7 2.65-.53 1.15-1.36 1.67-.83.84-.9.54-.65-.23.38-1.35.07-1.17-.08-.7-.47-.75-3.56-3h-.47l-.5.8-.11.48.45.86.47.52.3.78-.1.54-.48.72-.63.7-.24 1.32-.43 1.71-.82 1.15-.79.58-.89.42-1.03.14-1.1.42-2.1.65-.47-.33-.79-1-.9-1.52-.9-1.1-1.57-1.19-1.17-.6-.56-.16-1.89.1-.52.2-.16.31.12.76-.07.54-.48.82-1.26.83-1.03.07-.6-.81-.34-1.63-.4-1.05-.8-1.04-1.01-.4-.68-.41-1.1-.39-.02-5.73-.13-17.25-.03-6.2 1.19.12v.28h1.48l.01-.26h10.11v.23l8.66.01h11.21l.8-.07 1.18.1h6.96l1.36-.04-.02-1.3-.17-.4-.94-.97-.2-.56-.1-2.8-.13-.5-.41-.52-1.6-.69-.47-.58-.15-.5-.18-2.72v-3.92l.4-1.04.8-.57 1.17-.14 1.02-.48.39-.6.31-.94.44-.64.85-.34 3.98-.04 1.75.14 1.46-.07 1.46.05.47-.11 1.03-.5 1.9-.14 2.1-.02.4.14.89.59h2.29l.02 8.7h-2.83v5.61l-.13.16-1.32.03h-7.23l-.05 2.9.07 3.08z" long-name="State House District 23" region="23" short-name="23" value="2"/>
    <path d="m748.53 668.27.03-11.27-.04-5.66-.02-5.66.05-11.25.01-2.97-.07-11.22.02-2.9-.04-14.13-.03-2.87h-3.7v-8.51l.01-10.13.02-19.7.04-8.85-.02-3.94 2.7-.04 2.83.02 8.52-.02h5.35l14.2-.09 5.45.05 4.57-.06 6.87-.03 6.85.1 4.45-.01 5.71.1 8.5-.07 8.55.08 5.6-.01 11.41.06.01 5.76.03 2.82-.01 2.87.02 5.68-.02 2.85.05 14-.03 3.09.01 2.82-.04 2.84-.02 5.83-.03 2.7 3.3.01v9.98l-.03 2.7.02 4.4-.02 3.4v22.07l-.02 14.12-.02 11.28 9.1.03 10.87.04h10.81l2.81.02 8.8.01h11.25l.04 8.37-.03 5.67v5.56l-.02 5.59.02 2.79-.03 2.45-.02 6 .01 8.4-.07 5.46.04 10.77-.02 6.15h-22.37l-16.13-.01-11.87.02-4.9-.02H842l-6.02-.01-18.66.02-14.8-.05-.02-2.8v-11.21l-.04-2.65.06-2.93-.01-1.75.01-5.38.04-4.12.1-19.65-.03-5.72-.02-11.2-14.77-.08-10.38-.02h-14.88z" long-name="State House District 24" region="24" short-name="24" value="2"/>
    <path d="m876.45 802.65-1.2-5.72-1.47-6.72h.06l-1.23-5.67v-.17l4.59.86 3.93.77 9.4 1.8 8.42 1.69 6.96 1.33-.02-7.72.02-5.38v-5.58l.01-2.8.02-8.81-.01-5.13.02-11.18-.02-8.4h-2.82l.02-6.15-.04-10.77.07-5.47-.01-8.39.02-6 .03-2.45-.02-2.8.02-5.58v-5.56l.03-5.66-.04-8.37h2.36l5.75-.03h10.91l2.95-.05 5.61-.02 10.9-.02 8.7-.06 12.66.02 4.45-.03.28-.17.86.38.62-.4-.09.74-.71.37 1.16.78.42.4.53-.26.04.6-.25.17-.55-.07-.06.34.46.32.52.02.02.98-.54.12.19.52.92-.26-.08.83-.32.34.12.86.68-.5.33.79.37.12.54-.26.24.12-.3.66-.44-.12-.22.54.72.48.67-.25.13.67.48.4-.64.2-.06.49-.57.18.47.41h.83l.05.5-.5-.03-.12.55.8-.04.25.75-.43.92-.48-.08.4.85-.76.1.21.46.47-.12.3.18-.25.7.44.25-.13.45-.65.77.72.2.43-.17.41.13-.45.48-.4-.25-.67.22.42.4.4-.3.31.66-.59.36.41.38.13.75-.37.9.79-.16.28.26-.09.43-.39.06.39.79-.08.37.48.62-.1.33-.64-.15.19.54.43.23-.1.49-.54.68.48.22-.22.5.64.16-.2.39.23.4-.47.35.34.41-.54.14v.57l.76.4-.52.31-.33.47.38.33.13-.6.58.35.54.51-.07.73.54.32.43-.5.62.15.06.4-.66-.05-.4.34.17.73.4-.5.64.54-.46.28-.15.42.72.13.09 1.02-.7.05.07.42.45.2-.12.48h-.8l-.15.27.5.4.6-.52.27.4-.66.49-.27.45.11 1.05.62-.28.18.43.5-.05.41-.44.2.27-.16.53-.44.6.12.38.5-.22.34.56-.3 1-.29.64.3.21 1.16-.85.26 1.06-.32.18-.35-.29-.54.07-.06.34.31.38.44.06.42-.24.87-.11.17.42-.67.56.34.76.67-.38.33.2.51 1.34.48.83-.34.61.16.3.57-.2.2.32-.19.93.35 1.02-.08.73.42.34.83-.03-.3.56.5.4.15.59.85.66.63.1.16.26-.6.41-.06.47.34 1.08.48.16.2-.23.89-.24.4-.3.45.96.83.32.6.04.04.35-.5.74.06.35 1.44.83.06.43.34.45.84.12-.19.67-.02 1.43.51.34-.14 1.28-.25.46-.02.78-.42.47.85.83-.16.24-.81.36-.11.37 1.03.22.18.75-.68.12.2.33.53.14-.55.55-.06.29.6.67.1.56-.27.23.05.95-.47 1.25.48.17.54.73-.31.79.53.63.85-.17-.18.67-.6.37-.44-.08-.64.57.1.84-.14.4.24.55-.08.74.09.58.32.68-.15.58.5.28-.11.8.59.35.19.5.43.3-.55.32-.13.42.25.46.45.27-.18.7-.53.02-.24.34.46.24-.04.4-.37.25.4.5v.43l-.44.35.31.95-.44.11-.13.63.33.06.6-.47.77.02-.32.45.7.65-.86.07.04.26 1 .03-.14.33-.07.98-.35.27.49.36-.29.67.02.5-.27.47.16.73.58.72.24.55.14 1.07.4.33.04.6-.19.3.34 1.7.7.12.27.53-.9.35.5 1.18.56.72.04.75.26.77.04 1-.1.84.37.62-.17.87-.2.35.1.53-.17.35.13.76v.88l-.2.21-.11.98-.39.8-.54.49-.77 2.14-.32.7-.49 1.93.1.78.4 1.38-.23 1.5.27.84.18 2.7v2.4l.29 2.58.33.98.34.22.07 1.34.46.9-.09.99-.22 1.01h-7.3l-2.77-.02-10.28-.12-6.35.04-17.39-.01-1.7.06-1.07-.04-2.4.05h-1.77l-3.55-.08-.65.07-2.79-.05h-10.2l-9.34.03h-2.8l-8.32.05-7.18-.07-3.38.02-8.97-.07h-2.84l-2.8-.03-1.87.03-2.52.16z" long-name="State House District 25" region="25" short-name="25" value="2"/>
    <path d="M.52 531.56v-4.64l.02-11.88.05-8.91.04-13.37.03-8.76.02-11.23-.01-3.02.08-14.68-.02-3.02.04-6.6.1-8.5L1 426.2l-.08-5.01v-2.77l-.09-6.5-.12-7.32-.05-4.99 1.1.39.68.4 1 .41.8 1.04.41 1.05.34 1.63.6.8 1.03-.06 1.26-.83.48-.82.07-.54-.12-.76.16-.3.52-.2 1.9-.1.55.16 1.17.6 1.57 1.19.9 1.1.9 1.51.79 1 .47.33 2.1-.65 1.1-.42 1.03-.14.9-.42.78-.58.82-1.15.43-1.71.24-1.31.63-.7.49-.73.09-.54-.3-.78-.47-.52-.45-.86.1-.48.52-.8h.46l3.57 3 .46.75.09.7-.08 1.17-.38 1.35.64.23.9-.54.84-.84 1.36-1.67.52-1.15.71-2.65.04-1.02-.22-1.82-.64-1.6v-.67l.28-1.7.67-1.64.83-.76 1.15.25.7.35 1.47 1.78.63.86.97.5.8-.1.3-.5 1.15-.83.6-.21 1.53-1.15.49-.66.2-.86.01-.62-.48-.8-1.07-.52-2.57-2.27-.47-.83-.07-.55.29-.61.73-.46 1.92-1.8.7-.88 1.95-1.32.94-.54 1.66-.66 1.04-.14.78.15 1.17.49 1.51 1.21.56.28.86.16.78-.08.98-.58.6-.51 1.1-1.2.84-1.5 1.02-.77 1.14.01.29.32.32 1.17v.42l-.9.8-1.45.7-.66.59.07.93 2.47 2.94.6.44 1.67.73.73.23 1.12.1 1.3-.1.18.38-.17.78-.4.82-.92 1.08-1.95 1.53-1.1 1.14-.47.98-.1 1.06.11.92.35.54 1.7 1.15 1.63.3 1.32.02 1.53-.18.52-.16.52.14.33.36.64 1.3.55 1.45.88 1.58 1.17 1.14.96.14 1.2-.3 1.29-1.1 1.18-1.71.68-.64.71-.3.9-.22.75-.42 1.3-1.16.75-.28 1.12.06.64.22 2.5 1.34 1.47.3.75.24.9-.08 2.2-.64 1.39-.64.64-.4 2.48-1.2.86-.31.95-.12 1.67.5.72.03.39-.14.62-.6.5-1 .36-1.97.59-.6.68-.22 1.01-.1 1.92.5.9-.02.56-.34.96-1.23.22-1.4-.16-.56-.45-.6-.7-.52-.94-.26-1.01-.4-.46-.54.18-.69 1.49-2.4.55-.79 1.33-1.53 1.34-1.68.46-.72.87-.92.72-.4.56-.02.79.18.92.05 1.73-.15 1.97-.26 1.57-.44.9-.59.9-.3h.85l1.2-.48 1.26-.25 1.37.15.63.53.1 1.03-.22 1.22-.02.82.57.62h.37l.7-.42.82-.73.75-.4 1.11-.13 2.21-.41 1.26-.1.97.03 2.48.7.68-.07 1.33-.71 2.8-.43.7-.02 1.81.17.88.26 1.2.7.87 1.28.43.49 1.17.37h1.74l.96-.3.96-.6 1.14-1.04 1.25-.91 1.3-.18 1.32.44 1.99.98 1.54 1.23.59.25 2.35.7 1.56-.05 1.27-.52 1.05-.65 1.05-.9.43-.17 1.13.3 1.73 1 .68.8.3.65-.04 1.25-.13.88-.38 1.04-.39.28-1.5.58-.34.27.33.53 1.56.28 1.47.54 1.21.1 1.52-.08 1.2.06 1.97.85 1.56.2 1.27.55.57.65.1.35.05 1.27-.18 1.94-.47.92-.11.67.23.76.62.84.93.72.58.18 1.41.24.98-.24.93-.49 1.21-1.1.5-.16.57.15.8 1 .4.82.1 2.12-.07 1.39.2 1 .5.6 1.24.75 1.6.73 2.24.76.38.35-9.67-.01-13.78-.08h-4.07l-3.42.03.04 4.27h-.07l.02 2.88-.02 7.22-.03 7.14.03 3.22.05 1.58v6.87l-.02 5.5-.02 10.84.03 3.14.11 19.3-.1 5.85-.08 2.54 1.4-.76.72-.06 1.45.63 1.08 1.3.43-.29-.35-.9.08-.32.73.36.18.52-.29 1.28-.4.7.06.34.5.2.96.06 1.16-.26.31.4.03.97-.45.76.3.24 1.5-1.05 1.7-1.35.47-.01.6.6.72 1.07 1.77 2.48-.15.5-.44.38-1.23.53-.34.46-.13.82.6 1.65 1.32 1.66.66.55.85-.17.63-.31 1.75-1.5 1-1.18.53-.02.35.35.51.99.76-.14 2.28-1.6.76-.41 1.31.09.67.69.21.5.18 1.17.9.74 1.25.4 1.9.4 1.86.64 2.3 1 .68 1.35.71.27 1.1-.7.22.83.98-1.5.48-.21 2.28.44.76.34.78.53.4-.25v2.2l.1 4.95v2.07l2.85-.1v1.02l8.4-.2.09-1.42h4.34l7 .06-.12-1.09.07-.43 5.3.01 3.15.1.01-.74h2.83l.03 4.32-.03 5.67.01 5.7-.04 5.8.03 8.45h8.15l.03 5.54-.05 11.47.04 11.35-.02 5.48-8.56.01-2.76.07-.24-.5-.5.15-2.02-.89-.61.35-.6.15-1.72.77-12.05-.02-3.09.05-4.64-.02v1.98l-.32.15.03.43-.52-.05-.59.2-1.23-1.17-.01.53-1.24-.52-.16-.27-.8.22-.28-.73-.28.4.2.47.02.63.3.36-.09.53-.65.11-.11-.78-.7.14-.44.33-.16-.41-.43-.26-.4.2.3-1.04-.53.08-.22-.46-.43.92-.56-.18-.52-.88-.18-.86-3.98.02v.09l-2.82.02-2.87-.1h-7.03l-1.47-.03v2.84h-.9l-10.38-.05-3.12.03-4.83.07.32 1.85-.3.79-.48.21h-7.24l-.19-.85-.97-1.17-.06-.81-.29.01-9.84.02-.45.16-.98-.3-.77.15h-1.56l-.42-.18-.39.18h-2.29v1.2l.21.91-.29.86.63 1.53-.12.45-1.01.72-.74.64-.04 1.83-.4.38-3.72-.02-.12.06v2.73l-.37.07-2.44.02-.03-2.85-.01-8.5.02-2.85-.01-5.7.05-2.82-.04-8.52.03-1.76.03-9.44v-6.04l-2.83-.02-7.81.01-2.63-.01-4.17.04-8.01-.01-5.69.05-2.78-.1-8.52.07-11.83-.01-2.86-.05-5.34.02-3.54.06h-4.48l-6.5-.02-.02-.05-8.47-.12-2.02.03-13.76-.1-4.83.03-9.42-.07-2.7.01-7.73-.02-2-.03-6.67.01z" long-name="State House District 26" region="26" short-name="26" value="2"/>
    <path d="m967.48 668.43-4.45.03-12.66-.02.04-14.12H949v-.7l1.4-.01-.01-8.46.17-.4-.01-1.73h-.17v-1.42h-1.4l-.01-1.43h-1.41v-1.42l2.8.01v-2.12l1.75.05v-2.07l1.03.05 3.19-.04-.12-2.84-.06-2.12 1.2.04 1.62-.13.07 2.25.07 2.85-.01 1.3 1.4.03.55.25.2-.32.83.07-.02 1.44 1.57.06v1.41h-.36l.06.73 2.83.03-.01.5.44.21h.81l.06-.69.46-.59-.46-.12-.1-.53 1.04.46-.73.88.3.32.41-.07.44-.36.52-.07.15.39-.16.4-.77-.05.07.55.46.51 1.32.26.07.34-.42.3-.92-.33-.45.27.5.3.76.05-1.02.52v1.03l.57.11-.22.6.05.96.46.1-.17.4-.58-.11.02.38.68.03-.22.41.26.36-.29.48.3.27-.5.37.21.72.5-.11.02.57-.39.28.13.61-.7.42.34.4-.09.37-.4.38.46.56-.7.23.08.3.64.38-.98.52.64 1.1.2.73-.16.56-.6.3.1.3.68.2.1.32-.6.78-.38-.27-.34.33.83.62-.15.32h-.45l-.4-.58-.5.17-.08.67.71.71.09.35-.2.5-.5-.35-.43.16.45.57.19.58-.35.2.37.4-.27.3.01.69.52.31.6.67-.48.5.45.76.63.47-.63.29-.29.85-.4.21Z" long-name="State House District 27" region="27" short-name="27" value="2"/>
    <path d="m551.51 667.92 8.39.06 3.25-.01 5.07.05H580l5.23.05 8.23.04h3.5l8.2.05 8.53.02 5.64.02h3.96l21.28.1 7.5.04 13.93.06 2.3-.02 14.24-.01 8.25-.01 12.75-.03 14.07-.02 5.63.01h7.52l10.4-.03 7.38-.01 14.04-.02h14.88l10.38.02 14.77.07.02 11.21.03 5.72-.1 19.65-.04 4.12-.01 5.38.01 1.76-.06 2.92.03 2.65v11.2l.02 2.8 14.81.06 18.66-.02 6.02.02h10.75l11.87-.01h16.13l16.84.02 5.53-.01h2.82l.02 8.4-.02 11.18v13.95l-.03 2.8v5.57l-.01 5.38.02 7.72-6.96-1.33-8.42-1.69-9.4-1.8-3.93-.77-4.59-.86v.17l1.23 5.67h-.06l1.47 6.72 1.2 5.72h-3.89l-16.61-.04-13.87-.03h-9.91l-4.95-.03h-4.41l-3-.02-9.86-.02-1.12-.02-5.52.04-5.6-.03-7.81-.01-5.97-.04h-5.63l-1.6.01h-9.5l-11.1-.04-4.27-.03-9.6-.08-5.54-.06-8.3-.13-8.35-.06-6.9-.08-6.94-.03-15.3-.09-2.81-.02h-3.19l-6.43-.03-11.1-.07-11.1-.03-8.85.02-13.33-.02-13.95-.05-5.54.01-8.36-.04-11.1-.1-5.52-.02h-8.37l-4.63.05h-3.72l-13.03-.06-3.62-.05.03-2.78v-8.47l.04-2.69.06-16.68.01-8.44.04-5.57.05-2.8v-5.31l-.08-2.64.05-.34v-5.66l.03-4.39-2.82.04-2.3-.05-.07-1.92.05-3.7v-8.4l-.02-2.86.02-5.63v-8.43l.06-13.42.07-9.01.04-9.01z" long-name="State House District 28" region="28" short-name="28" value="2"/>
    <path d="m880.3 549.47-4.16-.04-9.27.07-3.5-.02-11.42-.12-5.6-.07-11.4-.06-5.61.01-8.56-.08-8.49.07-5.7-.1h-4.46l-6.85-.1-6.87.04-4.57.06-5.44-.05-14.2.1-5.36-.01-8.52.02-2.84-.02-2.69.04-.05-.24.04-2.62v-5.7l.03-2.85-.04-5.53H720.6l-9.69-.02v25.36l-.04 2.9.05 4.31-.02 2.33.01 7.68-.03.46v8.07l.05 3.96-.12 7.02v1.9l.08 1.1-.02 3.05 1.47-.01.26 2.41.18 2.47-.28 2.33.16 1.01-.13 1.25-.53-.05-.2.61-1.7-.04-.93.06v1.36l.78.23-.74.8-.04 1.58.44.36.54-.2.61.13.83.73-.07.46.7.04-.82 1.56-5.06-.08-.7.36.01.36h.69v.73l4.27.03-.17.55.17.85 1.98-.01 3.47.04 1.5-.02-.02-2.22.17-.12 1.6 1.26 1 .47-1.5-1.38-.43-.6.7-.15.27.56h1l.02.78h.7v.71h2.18v-2.22h4.49l3.89.06.05 2.85-.03 2.83.07 8.5-.02 2.86 6.69-.06 2.99.03 7.18-.02-.05 11.25.02 5.66.04 5.66-.03 11.27-7.38.02-10.4.02-7.52.01h-5.63l-14.07.01-12.75.03h-8.25l-14.23.02-2.31.02-13.93-.06-7.5-.04-21.28-.1h-3.96l-5.64-.03.05-5.63.07-4.13-.03-.11.08-7.45-.01-5.7.08-8.03.1-16.7.1-11.6.07-8.6-4.69-.03v-2.8l-.03-2.85-.02-14.18.03-14.19.04-8.58-.01-4.6.02-3.88-.05-1.8v-6.72l.04-5.74-.03-2.68 13.98.02h7.13l.44-.04 7.01-.01.1-.53v-25.16l.03-17.11.04-8.6 5.59-.02 11.5-.02 8.41.05 8.59.04 1.42-.03 4.12.04 2.85-.02 5.67.03 5.62.01 2.83-.04 8.58-.03 8.52.03 14.08.04h14.39l-.01-16.86-3.37.02-.03-2.88-.02-8.58.01-8.61.45.05-.02-.54v-6.25l-.39-1.03-.03-14.5.01-5.88v-21.13h3.36l5.18-.03 5.21.03.04-17.34.02-17.37 14.4-.07h2.93l11.5.03 5.78.05 2.86-.03 10.06.03 4.38.04 2.87-.04 1.5.04 4.27-.05 8.67-.01-.02 20.27v8.7l-.02 5.79 2.87.01v34.82l-.02 11.5-.02 5.74-.04 1.78.04 1.1-.01 12.96.02 1.42 5.81-.01 5.62.02h17.17l3.23.01 11.25-.02.15.02h11.42l-.02 2.86-.03 20.07-.03 7.45-.03.75.03 3.23v8.58l-.02 2.77-.06.36-.01 5.45-.05 7.2.02 1.35v8.55l3.01.04.04 2.55.01 5.7z" long-name="State House District 29" region="29" short-name="29" value="2"/>
    <path d="M438.4 632.7v-.5l.82-.42.7-.12-.22-.85h3.08l-.02-1.5.88-.04 1.08-.34.12 1.17.72.03-.04 5.91-.07 5.67h-.54l-.21.4h.75l-.03 2.82 2.83.02-.07 3.2v2.43l4.3.04 1.32-.02v2.62l-.08 2.84.01 2.77-.48-.04-1.96.83-1.2.37-.85.51-.84.79-1.16.9-.64.38-1.36.58-1.07.24-1.06.1-1.18-.44-.96-.85-.19-.66.38-1.38.56-.7.02-.77-.2-.82-.54-1.01-.6-.53-.41-.1-.65.23-1.73.87-1.19.18-.92-.4-.5-.61-.46-2.24-.39-1.45-.35-.89.26-.43.65-.26 1.2-.1.47-.15.45-.48.16-1.21-.2-.75-.55-.78-.61-.14-.94.2-.5-.16-1.43.32-.53-.02-1.07-.35-1.37-1.01-.75-.93-.2-.52-.18-1.4-.4-1.13v-.52l.2-.69 1.01-1.3.52-1 .92-2.03-.02-.98.82.26.96.06v1.4l1.56.04-.04 4.23H437l.03-3.55h.76l.66-.87.02-3.47Z" long-name="State House District 30" region="30" short-name="30" value="2"/>
    <path d="m216.95 668.5 6.34-.02 10.42-.1.17.01 7.4-.06 8.11-.04 3.06.01h8.03l.02-3.98.06-4.62-.04-5.47.03-2.8 4.36-.02 6.82.02h5.61l12.26-.02 4.36.04 5.75-.04 3.32.02 7.96-.02-.03 6.38.01 2.07-.02 8.38.47.07 6.93-.01 1.07.02 8.4.01 2.68.03 9.55.04 4.38-.04 9.32.04 11.81-.01.04-.47-.07-4.64.35-.47.9-.04 2.34.06.6-.46.01-.4-.15-13.27v-2.81l-.2-8.47-.05-2.8v-4.23l.17-.85-.19-.59-.07-5.47.83-.05 1.42-.33.66-.03 2 .26 3.5-.06.91-.1 1.88-.36.64-.03 1.01.22 1.06.43.73.1 2.66-.04 2.2-.27 2.94-.01.93-.05 4.08-.52h.5l3.92.49.83.01 6.6-.1v-.1l4.3-.06v-1.43l2.88-.02v.45l.34 1.09.84.94.6 1.33 1.08.89.7.15-.05-.65.65-.01v.99l.4.27.83.13 4.2-.08.38.63.66.81 1.6 1.58 1.02 1.18 1 .74 1 1.98v.02l-.65.1-.7-.15-.73-.41-4.22-3.16-.33-.56-.07-.82-.68-.85-2.47-.66.06 1.06-4.12.09v1.34l1.4.02-.06 1.14 1.11-.22v1.77l-.1 1.53 2.85-.03v.67l.23.66 1.3.06.16-.19v-.93l.48-.36 1.03 1.75.54 1.87.7 1.84.08.64.3.88-.04.97.48.67.8 2.68-.07.34.31.44.64 2.06h2.46l1.1-.13 1.43-.32.5.15.94-.2.61.15.56.78.2.75-.17 1.21-.45.48-.48.15-1.19.1-.65.26-.26.43.35.9.4 1.44.45 2.24.5.61.92.4 1.2-.18 1.72-.87.65-.22.42.1.59.52.54 1.01.2.82-.02.78-.56.7-.38 1.37.19.66.96.85 1.18.45 1.05-.1 1.08-.25 1.36-.58.64-.39 1.16-.89.84-.79.85-.5 1.2-.38 1.96-.83.48.04.9.26.27.51-.04.72-.25 1.23-.56.79-.83.68-.97 1.56-.38 1.18-.17.86.12.81.28.4 2.62 2.07 1.54 1.66.54.4 3.15 1.65 2.28.81 2.21 1.06.95 1.2v.7l-.58 1.12-.8.15-1.27-.57-.65.27-.27.5.1.63 1.44 2.1 1.03 1.29 1.41 1.99 1.79 2.31.06.65-.23 1.02-.65 1.07-1.08 1.06-.54.42-1.59.82-.53.43-.53 1.08-.52 1.42-.57 2.67-.04 1.15-.2 1.5-.72 2.7-.06 1.33.18 1.03 1.2 2.8.98 1.67.38.99.59 1.28.66 1.84 1.23 2.53.5 1.35.6 2.17.11 1.14.11 3.27.12 1.43-.08.77-.55 1.91-.77 2.2-1.01 2.1-.43.72-.7.9-.7 1.42-.15 1.06.39 1 1.62 2.65 1.05 1.35.13 1.62-.34 1.5-1.18 2.92-.72 1.56-.48.73-.99.9-.9 1.11-.7 1.25-2.39 3.9-.59 1.13-.94 2.37-.3 1.06-.05.55.05 1.75.36 1.36 1.1 1.72.37.7.17 1.02.03 2.24-.44 1.84.03 1.18.32 1.92.36 1.2.5 1.2 1.07 1.81 1.16 1.39 1.62 2.42.61.73.9 1.94.38.65.64.85.68.55.68.4 1.4.49.86.08.73.82.76 1.3.72 1.37.73 1.61.54 1.41.04.96-.13 1.2-.55 1.44-.02.79H467l-4.92-.01-2.92.03-5.5-.01-9.7-.07-3.85.07-2.38-.04-8.33.04h-6.12l-2.12-.04-9.52.02-2.2-.01-2.65.04-5.45.03-5.11-.02-3.71-.1-2.46.03-6.62-.02-4.07.02-4.8-.02-1.13-.03-4.93.03-10.19-.02-1.34-.02-6.25.08-5.12-.02-5.47-.08-.09.04-8.17-.02-3.71-.02-7.45.01h-11.13l-3.94-.03-3.71.02-6.22-.06-8.66-.03-5.55.06-7.94-.03.02-11.12.03-5.51v-8.41l.04-2.8-.01-5.57-.03-1.26.01-7.11.03-2.8.01-5.56.02-15.09-.03-.03-10.93.02-.17.05-5.56-.09-2.74.04h-5.65l-5.6-.04-5.1-.05-.96.02-5.05-.06-16.33.1-2.99.06-11.11.1-4.4.03-12.21.03-1.36.01-.02-2.8-.11-8.67-.12-5.33.02-1.67-.05-9.48-.05-5.73 4.09.04 2.16-.02 2.08.05 8.39-.06 5.9-.06 6.78-.08 4.39-.02v-4.12l.02-2.33.01-9.95-.01-4.95.01-5.3Z" long-name="State House District 31" region="31" short-name="31" value="2"/>
    <path d="m438.4 632.7.07 1.5-.02 3.47-.66.86-.76.01-.02 3.55h-2.82l.04-4.23-1.56-.04v-1.4l-.96-.06-.82-.26.3-1.7-.21-.53-.01-.02.72-.21 1.36.01.41-.56.02-1.05.8.02v1.05h.48l-.01 1.02 1.62.03.02-1.48z" long-name="State House District 32" region="32" short-name="32" value="2"/>
    <path d="m369.24 623.48-.07-8.65-.07-14.76-19.82-.01-8.15-.03h-6.67l-3.49-.02-5.33.03-17.41-.03h-16.91l-6.25-.02-2.85.02-16.18.01-11.98-.03.03-16.98v-5.55l.02-5.83v-5.82l.02-5.48-.04-11.35.05-11.47-.03-5.54h-8.15l-.03-8.44.04-5.8-.01-5.7.03-5.68-.03-4.32.95.03 8.25.04 1.5.05 2.07-.13 1.4-.01v.72l8.48.04v.74l1.5-.04 4.19.04.04 1.28 7.05.01v1.58h4.34l3.72-2.92 5.84-4.5.4.13 1.37.04 1.4-.47 1.01-.6.93-.74 1.05-.47 6.39-4.56 1.08-.58 2.7-.93.8-.28 1.31-.14 1.63.2 1.43.3 1.33.36 3.08 1.24.89.15 1.13-.3 1.1.1.92-.03 2.03-.44 2.44-.6 1.8-.69.45-.08.71-.38.77-.58 2.08-.73 1.1-.28 1.81-.61 1.85-1.06 1.04-.06 1.5.25.86-.32 2.54-1.22 1.02-.24 1.37.06 1.1.42.88.79.53.65 5.6-4.62 2.56-2.14 2.18-.04h10.65l.03 4.77.21.72 1.16 1.1 2.97 2.36v.23l1.1.87.29-.02 2.3 1.84 1.66 1.9.32.5 3.52 6.61.4.54 3.72 3.85.63 1.04.19 1v3.07l.06.55.37 1.2 1.07 2.27 1.36 5.63.04 2.5.41.12.33.52 1.91 3.34.23 1.1v2.91l.26 1.02 1.75 3.5.38.5.72.48 1.26-.1 1.31.1h4.81l.72.35 1.59 2.18v.93l1.46.02.65.25.77-.27 11.31.02 8.08-.04 8.83-.05.02 8.54-.01 5.72-.04 11.41h-3.2l-.45-.13-.73-.5-.3-.76-.94-.1-.34.11v1.4l-8.24.02-11.32.02-3.3-.04.65.97 1 .73.56.67.4.73.3.97.51 2.5.02 1.65.2 1.85.09 2.42.2.73 1.4 2.51 1.71 1.84 1.2 1.2 1.45 1.32 1.14 1.45.75 1.86-.15 3.05-.33 1.38-1.8 2.43-.8.53-2.07.9-1.5.98-.56.6-.45.88-.33 1-.1.98.16.68.62.94 2.83 2.21.4.43.39 1.25.29 2.56-.09 1.72-.27 1.49-.2 1.83.33 1.13.3.65 2.56 4.2 1.19 1.92 1.57 3.64.3.6-4.2.07-.84-.12-.38-.28-.01-1-.65.02.04.65-.7-.15-1.07-.9-.6-1.32-.84-.94-.35-1.1v-.44l-2.87.03v1.42l-4.3.06v.1l-6.6.1-.83-.01-3.93-.48h-.5l-4.07.51-.93.05-2.93.01-2.2.27-2.67.05-.74-.11-1.05-.43-1-.22-.65.03-1.88.36-.9.1-3.51.06-2-.26-.66.03-1.42.33z" long-name="State House District 33" region="33" short-name="33" value="2"/>
    <path d="m430.98 633.87.2.52-.3 1.71.03.98-.92 2.02-.52 1.01-1 1.3-.21.7v.5l.4 1.14.18 1.4.2.52.75.93 1.37 1.01 1.07.35.53.02-1.1.14-2.46-.01-.64-2.06-.31-.44.07-.34-.8-2.68-.48-.67.05-.97-.3-.88-.08-.64-.7-1.84-.55-1.87-1.03-1.75-.48.36v.93l-.16.19-1.3-.06-.23-.67v-.66l-2.86.02.11-1.52v-1.77l-1.1.22.04-1.14-1.38-.03v-1.33l4.1-.09-.06-1.06 2.48.66.68.85.07.82.33.56 4.22 3.16.73.4.7.15z" long-name="State House District 34" region="34" short-name="34" value="2"/>
    <path d="m438.4 632.7-2-.02-.03 1.48-1.62-.03.01-1.01-.49-.01.01-1.05-.8-.02-.02 1.05-.41.56-1.36-.01-.72.2-1-1.97-1-.74 1.74-.83 2.02-.9.63-.1h3.78l5.62.02.02 1.5h-3.08l.21.84-.7.12-.8.42z" long-name="State House District 35" region="35" short-name="35" value="2"/>
    <path d="m216.95 668.5-6.9.01-2.81-.01h-8.2l-.2-.6-.18-16.31v-6.8l-.04-3.79-.18-.87-1.03-2.02-.15-.63.04-1 .22-.96-.03-.7-.23-1.43v-4.9l-2.83.08-1.27-.02-2.81-.46-1.93-.27-3.7-.09-2.8.08-2.8-.05-8.29.04-.01-1.56-1.41-.01v-.45h-.92l.07-.26-.01-2.12h-1.97l.03-1.5h-.72l-.18-.2-.52.23v-1.96l2.8.02 2.84.3v-3.97l-1.5.02v-1.35l-.2-.04-2.53-.03.01-2.82h1.4v-2.67l.23-.16h5.4v-.43l.56-.27.05-.53.84-.2h1.35l-.01 1.47 2.68-.03-.01-5.68.14-.47-.15-.4-.01-2.72h6.89l8.87-.02 6.93.03 4.3-.03 3.53.02 2.1-1.2 2.63-1.62 4.8-2.87 4.16.02h5.36l.02-5.68-.01-5.64h2.82l.01 2.82 2.61.01 1.35-.69.32.69 1.97-.01.26.06.55-.49.02-1.84 4.24-2.17-.03-6.47-.03-.45 2.72.03.77-.12.34-.42-.04-.55.92.3.51-.18.77-.54.8.24-.07-.62.57-.27.23-.55.61.43.3-.36-.15-.45.35-.35.88-.06.53.42.62-.3.46.63.24-.13-.02 5.83v5.55l-.03 16.98 11.98.03h16.18l2.85-.03 6.25.01 16.9.01 17.42.02 5.33-.02 3.49.02h6.67l8.15.03h19.82l.07 14.77.07 8.65.07 5.47.2.6-.18.84v4.24l.04 2.8.2 8.46.01 2.81.15 13.26-.01.41-.6.46-2.34-.06-.9.04-.35.47.07 4.64-.04.47h-11.8l-9.33-.03-4.38.04-9.55-.04-2.68-.03-8.4-.01-1.07-.02-6.93.01-.47-.07.02-8.38v-2.07l.01-6.38-7.95.02-3.32-.02-5.75.04-4.36-.04-12.26.02h-5.61l-6.82-.02-4.36.01-.03 2.8.04 5.48-.06 4.62-.02 3.97-8.03.01h-3.06l-8.1.03-7.41.06-.17-.02-10.42.1z" long-name="State House District 36" region="36" short-name="36" value="2"/>
    <path d="M166.61 612.1v2.82l2.52.03.2.04v1.35l1.5-.02v3.96l-2.84-.29-2.8-.02-1.2.08-1.63.47v-2.94l-1.02.15h-1.62l-.02-5.64z" long-name="State House District 37" region="37" short-name="37" value="2"/>
    <path d="m364.43 350.85-.16.37.15.95-2.97.27-.43 1.96-.07 1.9.6.35v2.9l5.8.02-.02-2.24 1.15-.21 1.04-.46.7-.08.02 3-.03 2.85v8.7l.02 5.75-2.92.03h-20.17l-7.1.02-4.5-.03-8.62.01-8.52-.03-.08-2.2v-6.5l.01-8.68.01-14.53v-9.8l.02-10.82h4.96l.79-.04 3.1.06 1.86-.02.06-1.14.04-16.34 8.69.02 11.6.02 14.55.03v6.62l-1.63 2.26 1.63 1.15-.01 3.72-.04 3.1.05.64h-2.46l-.02 17.72.01 5.03 2.54-.05-.22.95.58.6z" long-name="State House District 38" region="38" short-name="38" value="2"/>
    <path d="M254.11 565.8v5.83l-.24.13-.46-.63-.62.3-.53-.42-.88.06-.35.35.15.46-.3.35-.6-.43-.24.55-.57.27.07.62-.8-.24-.77.54-.51.18-.92-.3.04.55-.34.42-.77.12-2.72-.03.03.45.03 6.47-4.24 2.17-.02 1.84-.55.49-.26-.06h-1.97l-.32-.68-1.35.7-2.6-.02-.02-2.83h-2.82v11.32l-5.37.01-4.15-.02-4.8 2.87-2.64 1.62-2.1 1.2-3.52-.02-4.3.03-6.95-.03-8.86.02h-6.9l.03 2.72.14.4-.14.47.01 5.68-2.69.03.02-1.46h-1.35l-.84.19-.05.53-.56.27v.42h-5.4l-.24.17v2.67h-1.39l-6.9-.01v5.64h1.63l1.03-.16-.01 2.95 1.62-.47 1.2-.08.01 1.96.52-.24.18.21h.72l-.03 1.5h1.97l.01 2.12-.07.26h.92v.45h1.4l.02 1.56 8.28-.03 2.82.04 2.8-.07 3.69.09 1.93.27 2.81.46 1.27.02 2.84-.09v4.91l.22 1.42.03.71-.22.96-.04 1 .15.63 1.03 2.02.18.87.03 3.8v6.79l.2 16.3.2.62 8.19-.01 2.82.01 6.9-.02.02 6.82-.01 5.3.01 4.95v9.95l-.04 2.33v4.12l-4.38.02-6.78.08-5.9.06-8.39.06-2.08-.05-2.17.02-4.08-.04.05 5.73.05 9.48-.02 1.67.12 5.33.11 8.67.02 2.8 1.36-.01 12.2-.03 4.4-.02 11.12-.11 2.99-.05 16.33-.1 5.05.05.96-.02 5.1.05 5.6.04h5.65l2.74-.04 5.56.1.17-.06 10.92-.02.04.04-.02 15.08-.01 5.56-.03 2.8-.01 7.11.03 1.26.01 5.57-.04 2.8v8.4l-.02 5.52-.03 11.12-5.85.01-7.2-.06-2.4.04h-3.63l-11.39-.03-2.76-.01-4.97.01-5.83-.02h-8.57l-2.35-.02-4.73.03-.5-.03-11.77.02-1.6.02-4.08-.04-7.67.03-1.92-.07-7 .04-3.96-.04-7.29.04-5.2-.02-5.67.02h-15.05l-6.82-.05-1.72.04h-15.68l-.41-.03-10.3.02H90.73l-2.88.03-5.48-.06-4.67.02-3.65.05-.87-.06h-4.7l-2.8.02-.08-.04-8.14.01-16.6.05-1.01-.04-4.92.01-15.22.01-.87-.04-12.38.03-6-.02-.16-10.53-.01-4.66.08-5.73.03-4.39.03-10.76.03-6.38.01-7.67-.01-8.9v-2.88l-.03-5.65.03-2.7v-8.02l.04-19.63v-36.54l-.02-3.05v-8.23l-.05-1.73.03-7.23-.04-11.1-.02-8.6v-5.7l.05-14.15.03-11.13.05-5.8-.01-3.73.02-7.7-.01-2.75.02-13.88V546.2l-.12-1.17.12-.89-.02-8.64v-3.94l.5.01 6.68-.01 2 .03 7.74.02 2.7-.01 9.4.07 4.84-.02 13.76.09 2.02-.03 8.47.12.02.05 6.5.03 4.48-.01 3.54-.06 5.34-.02 2.86.05 11.83.01 8.52-.06 2.78.09 5.69-.05h8.02l4.16-.03 2.63.01h10.64v6.05l-.03 9.44-.03 1.76.04 8.52-.05 2.83.01 5.69-.02 2.85.01 8.5.03 2.85 2.44-.02.38-.07-.01-2.73.12-.06 3.73.02.39-.38.04-1.83.74-.64 1-.72.13-.45-.63-1.53.29-.86-.2-.9v-1.2l2.28-.01.4-.18.4.18h1.57l.77-.14.98.3.45-.17 9.84-.02.29-.01.06.8.97 1.18.2.86h7.23l.48-.22.3-.79-.32-1.85 4.83-.07 3.12-.03 10.37.06.9-.01.01-2.84 1.47.04h7.02l2.88.09 2.81-.02v-.09l3.98-.02.19.86.53.88.55.18.43-.92.22.46.53-.08-.3 1.04.4-.2.43.26.16.4.44-.32.7-.14.11.78.65-.1.1-.54-.31-.36-.02-.63-.2-.47.28-.4.28.73.8-.22.16.27 1.24.52.01-.53 1.23 1.17.6-.2.5.05-.02-.43.33-.15v-1.98l4.63.02 3.1-.05 12.04.02 1.72-.77.6-.15.6-.35 2.02.9.5-.15.25.49 2.76-.07z" long-name="State House District 39" region="39" short-name="39" value="2"/>
    <path d="m364.01 306.94 8.67.02h9.98l4.54.03 11.64.02-.02 17.49h6.1l.03 3.11-.02 5.83.02 2.9-.04 5.81h-5.8l-11.5-.04-14.52.05v5.8l-1.47.05-4.2-.04.1.55-.2.9-.01 1.45-.62.23-1.27.01-.34-.26h-.65v-2.17l-.57-.6.22-.94-2.54.04v-22.75h2.47l-.05-.65.04-3.09v-3.72l-1.62-1.15 1.63-2.26z" long-name="State House District 40" region="40" short-name="40" value="2"/>
    <path d="m965.72 627.07.1.36v1h-.59l-.06.62h-.6l.18 5.7-.71-.01-.1.53.17.41-.45.76-.03 1.07-1.57-.06.02-1.44-.83-.07-.2.32-.54-.25-1.41-.02.01-1.31-.07-2.85 2.15.03.81-.04-.2-5.63h2.8l-.01.92z" long-name="State House District 41" region="41" short-name="41" value="2"/>
    <path d="m933.08 415.08-4.99-.02.01 3.7.14.7.56 1.4.12.81-.02 6.07.12.74.5 1.05h-3.66l-11.5-.05-5.76-.02.03-1.26v-7.39l.05-4.28v-3.83l-.04-.52h-5.94l-2.63-.07h-8.5l-8.32.04.1-17.43 7.11.04.3.04 3.36-.02 2.6.04 3.9.03 3.56-.04 2.25.08h5.7l10.9.02.84.04.91 1.52.54.6 1.89 1.49.5.6.3.59.19.96-.05.72-.3 1.22-.06.83.25 1.94v6.76h5.14v1.55h.78v1.35z" long-name="State House District 42" region="42" short-name="42" value="2"/>
    <path d="m928.8 420.86-.56-1.4-.14-.7-.01-3.7 4.99.02.05.62-.04 3.71.64.19v.52l.73.02.05-1.12-.03 3.29h-2.85l.02-1.45z" long-name="State House District 43" region="43" short-name="43" value="2"/>
    <path d="m971.98 614.44-.35.51-.34-.3-.56.54.44.42-.1.31-.57.23-.15.55.13.34.8.18-.05.36-.6.3.06.8.35.3.56.14-.3 1.12-1.44-.5-.14.22.27.58.42.46-2.4-.17.03-1.38-.4-.26h-.65l-1.22-.73-.62-.69 2.33.01.03-4.24 2.82-.06v.98z" long-name="State House District 44" region="44" short-name="44" value="2"/>
    <path d="m950.38 617.52.14-5.7.1-5.66.05-5.33-2.81-.05h-16.7l.05-5.66.02-5.68.04-5.8-.04-8.52v-4.9l-.07-15.03.03-5.66h16.95l5.7.1 2.85.01 4.26.1 1.83-.07.57.66.05.42-.39.25-.72-.73-.59.35-.18.44.4.37.45-.07.48.16.15.49-1.54.66-.32.36.23.6.37-.03.35-.94.4.02.35.54-.47.52-.03.43.79.68v.43l-.66.17-.12.38.68.33.58.69-.36.21-.19-.5-.42-.05-.71 1.01-.62.65.04.58.58.1-.08-.83.47-.1.27.25.85.4.36.46-.13.33-.9.26-.34.35.46.44.93-.43.47.08-.21.59-.4-.05.29.8-.35.21-.66-.09-.18.28.33.37 1.02.1.11.23-.34.69v.44l.78.35-.12.45-.6.36-.75.04.08.53.67-.08.2.58-.65.2-.52-.09-.56-.32-.02.53-.68.46.5.56.77-.13.41.6-.8.48.17.36.64.45.3.96-.6.98.9.45-.1.66-.25.28-1.1-.18-.35.35.6.3.55-.1.32.48.43.2.36.73-.27.8.32.33.54-.1.07.75-.71.74.5.6-.1 1.26-.98.23.06.41.72-.31.4.19.04.38-.48.43-.02.47.56.42-.13.32-1.25.38-.42.37.33.4.36-.62.42-.07.1.52-.52.21.08 1.26.5.83-.33.17-.66-.24-.23.52.78-.05-.27.8.69.36.29.51-.37.7.35.45-.62 1.25-.03.38.44.22.3-.6.37-.2.19.42-.45.78-.32.13-.6-.12-.44.15.19.57.52-.11.85 1.05-1.67.46-.28.26-.24.64-.47.17.33.44-.21.47-.12 1.08.25.6.62-.08.01.46.64.27.16.32-.3.6-.02.56.3.53-.5.6.47.32.33 1.27.01.5-.35 1.34.42.5.83.25.47.45.29-.15.08-.52.72-.2.83.42-.6 1.36-.5.42.54.53.05.84-.64.69.6.44.87-.46.19.33-.04 1.06.26.48-.19.34.05.92-.11.36.35.25.24-.51.34.32-.1.62.24.17.37-.62.81-.05v-.53l1.76-.78.09.52.48.22.1.54-.39.04-.36-.29-.4.32.21.28.95.14.45.18-.13.38-.8-.24-.37.45.39.55.43.28.25.68-.68-.25-.53.58.1.48-.15.43-1.66.02v-.98l-2.81.06-.03 4.24h-2.33l-3.16-.03v.64l-.18 2.16-4.13-.05-4.33-.1.47-.42-.6-.41.21-.72-.37-.43-.16-.76z" long-name="State House District 45" region="45" short-name="45" value="2"/>
    <path d="m968.4 638.92-1.04-.46.1.53.46.12-.46.6-.06.69-.81-.01-.44-.21v-.5l-2.82-.03-.06-.74.35.01.01-1.41.03-1.07.45-.76-.17-.41.1-.53.7.01-.17-5.7h.6l.06-.62h.6v-1l-.11-.36.28-.12 1.42-.05.01-.95.97-.07 1.4.24-.14.39.23.37.7.66-.46.27-.48-.37-.52-.1-.3.27.69.72-.3.69-.23.06-.81-.36.14.48.57.25.54.84-1.07-.29-.2.34.13.42-.3.29h-.41l-.37.52.05 1.05-.37.43.18.4.49.15.2.48-.92.24.17.28.45-.1.36.67-.13.39-.62.22.91.59-.35.68.25.54.75-.15-.05.5.37.36Z" long-name="State House District 46" region="46" short-name="46" value="2"/>
    <path d="m428.97 631.13-1.02-1.18-1.6-1.58-.66-.8-.38-.64-.3-.59-1.57-3.64-1.19-1.92h.5l-.66-1 1.33-.63.15-1.1h2.36l.36.5.4 1.39.5 1.3.2 1.01 4.29.12 2.69-.03-.02 2.81 2.84.02-.06 4.14h-3.77l-.63.1-2.02.9Z" long-name="State House District 47" region="47" short-name="47" value="2"/>
  </g>
</svg>