<svg country="usa" type="ks_lower" date="2022" variant="blank" title="Kansas 2022 House of Representatives" auto-border-stroke-width="1" auto-border-stroke-width-limit=".5" original-source='["https://www2.census.gov/geo/tiger/GENZ2022/shp/cb_2022_us_sldl_500k.zip"]' candidates="[{&quot;id&quot;:&quot;0&quot;, &quot;name&quot;:&quot;Democrats&quot;, &quot;margins&quot;: [{ &quot;color&quot;: &quot;#1C408C&quot; }, { &quot;color&quot;: &quot;#577CCC&quot; }, { &quot;color&quot;: &quot;#8AAFFF&quot; }, { &quot;color&quot;: &quot;#949BB3&quot; }]},{&quot;id&quot;:&quot;1&quot;, &quot;name&quot;:&quot;Republicans&quot;, &quot;margins&quot;: [{ &quot;color&quot;: &quot;#BF1D29&quot; }, { &quot;color&quot;: &quot;#FF5865&quot; }, { &quot;color&quot;: &quot;#FF8B98&quot; }, { &quot;color&quot;: &quot;#CF8980&quot; }]}]" version="1.1" xmlns="http://www.w3.org/2000/svg" viewBox="0 0 1000 515.48">
  <g regions="y" transform="translate(0 -242.26)">
    <path region="0" short-name="95" long-name="State House District 95" value="1" d="m624.69 639.47 2.49-.02.6.42 1.78.23.86.22.4.72.14 1.12-.48 2.42-.32 1.43.26.76h-.27l-5.2.06-1.52.8-.32-1.59-.04-2.93-.45-1.16-.41-.61 2.5-.03z"/>
    <path region="1" short-name="100" long-name="State House District 100" value="1" d="m612.43 632.33 4.89-.1 2.44-.03.03 4.89h-2.44v4.96l-2.44.04-.03-7.36-2.47.06z"/>
    <path region="2" short-name="18" long-name="State House District 18" value="1" d="m977.4 408.92 7.9-.05-.01 3.77-.95-.02.02 3.17-1.25.01v.72l-1.25-.08.01 1.26-1.78-.03-.72-.4v-3.2l-.02-1.66-.47-1.33-.43-.26-.5-1.41z"/>
    <path region="3" short-name="3" long-name="State House District 3" value="1" d="m996.14 680.04-.04 7.4v7.88l-.02 4.34-6.5.03-14.97-.14.02-7.27-.08-12.28 6.05-.01-.36-1.9.44.21.38 1.68h.86v2.3l1.2-.44.03-1.86.62.66v1.2h1.1v.62l3.2.04v-1.62l1.27-.22.26-.62z"/>
    <path region="4" short-name="81" long-name="State House District 81" value="1" d="M640.19 647.03h1.58l-.02 1.22 3.7.01.12 1.24 10.8-.05.04 12.3-12.29.1.02 1.12-2.39.11v-1.23h-1.89l-1.03-4.64-.65-1.48-.3-1.23-.6-3.26-.23-.57-1.45-1.95-.34-1.66z"/>
    <path region="5" short-name="125" long-name="State House District 125" value="1" d="M187.45 691.37h2.53l-.09 7.35 19.45.02-.02 7.37h7.28l.02 4.9-.05 3.82.07 18.14.12 22.3-.04 1.11-15.72.09-10.47.1-14.04.16h-10.68l-5.55.07-6.55.01-5.5.07h-8.98l-7.21.04-.12-21.59-.05-14.65-.03-20.72-.02-8.62 21.79.01 18.84.02z"/>
    <path region="6" short-name="110" long-name="State House District 110" value="1" d="m251.09 242.53 13 .01 12.04.01 5.72-.05 2.38.05 15.68.02 5.06-.04 2.52.05 1.37-.09h15.85l16.95-.03 2.83.01 7.66-.05 2.7.05H386.15l7.54-.04h6.23l-.01 15.08.03 2.44.03 12.71.02 15.2.03 15.17v15.09l2.93.01.04 2.81-.04 12.38-.15 6.25.03 8.8-.11 5.03-.08 7.44-.26 2.59.15 7.5-.08 7.6.06 14.98 1.36-.02-.04 1.4-.06 14.52-.12 14.27-.1 14.97.08 1.27-.27 19.59-.17 9.11-14.71-.04-22.4.04-14.65.03-20.93.02h-1.77l.08-4.96.24-17.45.16-18.98.03-5.97.2-18.44.17-9.25-1.8-.02-14.99.03-15.25.05-10.16.02-9.51-.03-7.77.07-17.22-.07.08-20 .2-25.14v-20.14l.06-10.13-2.5.07.05-15.13v-11.28l-.03-4.14.02-7.26.1-10.1-.03-2.52.05-10.1.13-14.5zm107.35 197.6.07 2.67 1.2.88h6.51v2.49l5 .02 9.91-.06 9.99.02.43-1 1.16.51.1.5h.79l.06-5-.06-3.05-1.17-.53-.96-.17-3.9-.01-4.83-.33-3.14.11-1.42.19-1.95.03.02-1.22-2.45.02.06-5h-4.98l.02-2.51-9.86.02-.07 1.32-.8 1.54z"/>
    <path region="7" short-name="84" long-name="State House District 84" value="1" d="m634.23 634.74 2.58-.01v1.22l2.46-.02v1.24l.02 5.24h-1.38l-1.08.32-.01-1.83-2.45.03h-1.23v-3.71h.87l-.33-1.33z"/>
    <path region="8" short-name="89" long-name="State House District 89" value="1" d="M634.35 627.66v-.4h2.46l-.01-2.46h4.9l.03 7.42h1.1l.02 2.46h-1.12v2.48h-2.45v-1.22l-2.47.01v-1.22l-2.58.01.2-1.7-.07-1.36z"/>
    <path region="9" short-name="12" long-name="State House District 12" value="1" d="m678.65 739.83 7.25.03-.04-3.64 2.46-.04-.04-3.45.03-3.84-.13-8.5-.03-14.67-2.43.04.04-1.27v-13.44h.33l-.25-8.51-.26-5.88-.35-.16h-7.98l-.17-.96.94-.54.64-2.13.46-.5.16-1.06.96-.25-.32-.73h-1.73l-.01-3.7h-.96l.94-2.41.04-2.46v-7.4l7.34.02.05-10.93-.04-2.34.08-8.9 14.57.02.05-.03 14.7.07-.04-14.87h18.54l6.97-.02-.03 4.38.05 9.31.04 1.13-.09 4.15.05 9.72-.04.87.08 7.38 4.29-.04 12.67.08 3.14-.05 16.38.17 3.86-.02 13.34.12 10.21.12 1.76.09h4.18l5.78.08-.09 9.6-.12 7.58v9.47l.13 10.02h3.87l6.14.07 9.03.07.01 14.68-.03 7.33 12.53.1v.61l2.06.01.6.64-.04 3.26h-1.11v.74l-1.25-.02-.1 1.48h-1.14v.6h-1.8l-.02 7.31.02 17.07.05 11.2-8.24.03-13.7-.04-12.14.08-18.8-.02-5.84-.04-2.05.03-10.23-.04h-15.8l-14.2.1-14.35-.04-17.31-.06-1.78.05-5.65-.03h-17.86l-15.32.03.01-5.5.06-1.2 1.48-.11.87.16.88 1.27.62-.14.93-.87.54-1.46-.05-.68h.64l1.52.58.66.68 1.7.24.46.93 2.83 1.09 1.27.01-.01-3.35-4.66-.02-.19-1.05-.32-.16h-1.62l-.05-1.23h-.43z"/>
    <path region="10" short-name="15" long-name="State House District 15" value="1" d="m962.09 441.53.03-2.49 4.16-.04-.25-1.33 1-.14v-1.04l1.85.04v-1.18l.3-1.35H972v2.5h3.28l.46.69.02.65-.96.38.1.8-2.1-.05-.63-.33-2.65 2.83-.06 6.56-.94 1.22-.25.66v1.57l-3.77.02v-5l-.4.19-2.01-.4z"/>
    <path region="11" short-name="32" long-name="State House District 32" value="1" d="m987.5 396.33 8.08.02 1.89 1.32v1.8l-.7.13-1.8.95-2.11-.15-1.03-.55-1.24-.16-1.18-.38-1.38-1-.62-1.14z"/>
    <path region="12" short-name="42" long-name="State House District 42" value="1" d="m920.62 343.97 15.3.04v2.06l.29.81.64.61.31.81-.06 1.47.2 1.47.75 1.56-.97.3-.1 12.28-.04 5 .02 5.06h-1.24l-.02 1.96.28.97.69.04.08 1.26 1.28-.1.52.96-.01 1.33.5.75-.79 1.1.12.72.74.22-.63.75-.03 2.84.5.06.2 1.2.7.1.79 1.2v.95h1.24l.54 1.4 1 .67-.91.37-.2.7.82.05.25.51-.01 1.81-.66.23-.64 1.74-.65.2.28.8-.41.71.9.6-1.7 1.83 1.08.85.04.5-1.14.18-1.22.52-1.59.96-.35.03-.01 11.55-1.66.73 1.08.25.6.6v6.73l-1.58.02-.53.21-2.52 1.82-1.4.38-4.99-1-3.81-.13-1.33.6-1.03 1.13-.85.33h-1.9l.02-4.55h-1.25l.06-1.2h.56l-.3-1-.02-1.08-.3-.27-.04-2.66h-2.37l.7-1.32 3.73-.06 1.68-.47-.07-8.16-7.4-.02-.02-3-.63-1.05-.02-1.93-.72-1.59.07-4.09-.23-.76.06-2.2-.15-.5-.01-14.6-.01-12.56 7.66-.04 2.33.07.04-5.06-.05-9.9.05-5.15z"/>
    <path region="13" short-name="55" long-name="State House District 55" value="1" d="m846.82 404.26 1.38-.15 2-.43h1.8l1.7.95.79.82-1.03 3.08-1.18-.23-.08 1.8h.53l-.18 1.24-4.83.04.05-6.59-.99-.02z"/>
    <path region="14" short-name="61" long-name="State House District 61" value="1" d="m733.1 318.43 10.82.05 19.9-.02 15.02-.01h15.01l12.2.02-.03 2.63.09 12.68 2.53.03 15-.04 8.53.03h11.13l3.87.07.45 1.24.02 1.27.32 1.02h-1.17l-.9.24.02 11.3.02 5.08-.02 7.46.01 10.07-7.41-.03-.02 7.55H806.1l-.02 12.53-.03 2.47-.42.56-.37-.56.23-1.3-.52-.67-1.74-.04-.57-.18-1.06-.78-1.14-.56-1.42-.37-.35-1.1.94-.79 1.74.15 1 .82.77-.09-.15-1.15-.83-1.08-.82-1.73-1.67-2.15-1.7.3-1.1-1.44-.96.01-.52 1.6-.41.44-1.02.2-2.32-.8-1.26-.15-1.91.31-1.01.35-.62-.6.07-1.79-.6-.76-1-.15-.81.22-.44.72-.7.46-2.03-.2-.95-1.44-1.05-.72-2.72.65-1.46.08-1.45-.1-3.77-.1-.08-1.16-5-.03-.4.53-.77-.5-2.49-.03-.02 1.18-2.85.04-2.71.15-.04-2.11-1.23.03-5.35-.12-.28-.62-5-.02-.01 1.27h-2.03l-1.23 1.53-1.81-.92-.53 1.09-1.93-.26-1.51-.15-.23-.33.46-1-1.6-.08-.75-1.8.42-.02 1.22-.83-.51-.5-.5.51-.95-.7-.17-.72 1-.58.8.36.54-.51-.03-.58-.8-.46-.14.7-1.74-.15-.56-.48.08-1.37-.33-.62-1.45-.34-.58-.39-1.87-2.19-1.19-1.09-.6-.97.92-.41-.11-.63-1.47-1.53-.8-.32-.84-1.33.9-.43.45-1.16-1.26.32-1.45-.71-.66-1.05.29-.57.84-.18.3-.77-1.25-.08-2.78-2.82.8-1.03.18-.74-.57-.65-.8.24-.88-.99-.08-.5-2.19-2.01-1.17-1.92.88-.1.7-1.19-.06-1.42-1-.34-.71-.94 1.32-.51.64-1.16-.76-.46-.42-.86 1.78-2.82.38-.2.82.59.53.04 1.05-.83-.26-.98 1.03-2.5.52.26-.4.75.78.76 1.04-.5.82-3.05.64-1.26.95-1.14.73.2.6-.73-.67-1.18.05-.54 1.05-1.03 1.67-1.9 1.13.84.79-.62 2.77-1.82-.27-1.24.7-1.3z"/>
    <path region="15" short-name="106" long-name="State House District 106" value="1" d="M475.3 242.4h15.08l15.8-.03 3.2.04 7.58-.05 12.57.06 22.5.03h7.44l5.07.03 8.2-.05.86.04h13.6l21.16.01 19.06-.03 15.08.09 15.29.01.61-.05 11.82.08 17.9-.03 15.13.02 24.22.04 1.61.05 5.3-.04 14.36.02 21.32.06h8.75l-.01 12.18-.04 20.68v12.6l-.01 15.15.1 15.14h-15.03l-19.9.03-10.82-.05-20.84-.03h-9.94l-20.04.02-21.14-.04-8.47.01-2.38-.04-7.73.02-15.07-.06.03-1.73-.04-13.4-20.06.07-10.23.03-8.77-.02-16.87-.03-13.13.03-6.35-.04-.05 15.1-15.1-.03h-15.09l-9.52-.05h-19.86l-14.87-.02h-2.25l-.13-.15.05-13.18-.03-1.8.09-15.13v-9.76l.05-5.4-.06-15.18.01-6.96-.05-5.4z"/>
    <path region="16" short-name="8" long-name="State House District 8" value="1" d="m981.87 434.78.8.3 1.2-.1.49-.39.62.66V439l-.6.85-.01.53.89.25.67-.2.59.33.35.75 1.01.31-.56 1.76.07.42h-.51v2.52l-5.02-.05.01-2.49h-2.5v-6.32l1.22.01.02-1.17h1.26z"/>
    <path region="17" short-name="17" long-name="State House District 17" value="1" d="m968.83 414.88 1.85.02 1.33-.23 1.86-.02 2.14.42 1.61-.25 1.74-.74v3.19l.02 4.18-5.01.01-4.47.04-1.28-1.05-.58-.2-3.65.01.13-2.53.45-1.25 1.39.12v-1.53l1.15-.19z"/>
    <path region="18" short-name="53" long-name="State House District 53" value="1" d="m840.3 404.9 1.27-.63h2.45l2.8-.01-.04.51 1 .02-.06 6.59-.01 2.08-.63 1.36-2.2-.85-2.88-.02.06-.94-1-.38.08-1.17-.92.01.09-2.5z"/>
    <path region="19" short-name="99" long-name="State House District 99" value="1" d="m651.46 634.67 4.92-.03.01-2.48 7.57-.02h2.76l.02 2.52-.6.12-.02 7.24-7.37.03h-2.38l.01 2.47-4.9.03v-2.49z"/>
    <path region="20" short-name="5" long-name="State House District 5" value="1" d="m877.76 438.8.07.1h7.9l11.4.03 7.81-.06h5.64l-1.26 3.51-.38 1.54-.11 1.25 3.12-.01.47.33.51.91 4.44.04.01-2.52 12.49-.02v10.04l-.03 2.5 13.9.02.96-.27.3.27 6.48.03.62-.32 3.1-2.64 3.49-3.28-1.64-.32v-.97l2.95-.73.65-.45 1.45-1.49 2 .4.41-.18v4.99l3.77-.02v4.12l-.34.86-1.43 2.34-.13.47.08 2.7.66 1.02-.08 1h-3.67l-1.06.8-.16 1.02-.58-.31-.59 2.3-.45.45-.5 1.32-.56.49-.05.8-.69.21-1.21 1.84.59.4.57 1.66-1.68 1.49-1.22.18.2 1.03-.27 1-.43.36-1.33.01-.68.65.03 9.27-2.5-.03.06 7.48v5.4h.4l.34 1.55-.02 1.19.57.6-.02 2.16-.27.71-4.96 3.69-1.6.74-7.52 5.47-1.76 1 .03-7.62.02-11.77.06-6.95-.03-9.95.05-1.68-.04-4.59-14.64-.08.04-7.34h.87l.02-7.47-9.92-.03h-6.24l-16.15-.04-12.33.01-.04-.15.06-11.03.02-8.18z"/>
    <path region="21" short-name="20" long-name="State House District 20" value="1" d="m989.4 426.5 5-.07-.03-2.53 2.98.02.03 3.38v9.18h-3.03v-2.5h-2.5l-.64-.61-.2-.63-1.64-.02z"/>
    <path region="22" short-name="38" long-name="State House District 38" value="1" d="m936.99 365.38 8.53.03.72.33 1.43.18.73-.3.42-.98.74-.51h1.24l1.16.3.31-.28 3.19-.06-.03 1.26-.9.01v1.25h-1.61l-1.41 1.26-1.11 1.25-1.37 1.24-.8 2.41-.07 6.42.25.6-.17.86.21 1.09 8.73-.03 1.04-.28 16.48.33.23.07.6 1.57-2.05.55-.47.3-1.8 1.68-1.04.8h-7.1l-4.91-.02-.03 5.05-.07 2.5h-.92l-.06 6.63v17.06l-.68.84-.75.51-.2-.9.62-1.1-.1-.64-.85-.65-1.15.26-.94 1.11-.21.81-1.04 1-1.1.38-1.12-.03-.9-.52-1.18-1.25-2.07-.57-2.09-.88-1.4.2-.56 1.26.32.71-.6 1.67-.93.63-.75.13-1.23-.67-.86-.7-.6-.6-1.07-.26 1.66-.73V406.4l.36-.03 1.59-.96 1.22-.52 1.14-.18-.04-.5-1.08-.85 1.7-1.84-.9-.59.41-.7-.28-.82.65-.19.64-1.74.66-.23.01-1.8-.25-.52-.83-.05.2-.7.92-.37-1-.67-.54-1.4h-1.23l-.01-.95-.8-1.2-.7-.1-.2-1.2-.49-.06.03-2.84.63-.75-.74-.22-.12-.72.8-1.1-.51-.75.01-1.33-.52-.95-1.28.09-.08-1.26-.69-.04-.28-.97.02-1.95 1.24-.01-.02-5.05z"/>
    <path region="23" short-name="64" long-name="State House District 64" value="1" d="m588.42 303.26 8.77.02 10.23-.03 20.06-.08.04 13.41-.03 1.73 15.07.06 7.73-.02 2.38.04h8.47l21.14.03 20.04-.01 9.94-.01 20.84.03-.74 1.02-.7 1.3.28 1.24-2.77 1.82-.8.62-1.12-.84-1.67 1.9-1.05 1.03-.05.54.66 1.18-.6.74-.72-.2-.95 1.14-.64 1.25-.82 3.05-1.04.5-.77-.76.39-.75-.52-.27-1.04 2.51.26.98-1.05.83-.52-.04-.82-.6-.38.2-1.78 2.83.42.86.76.46-.64 1.16-1.32.51.72.94.99.34.06 1.42-.7 1.18-.88.11 1.17 1.92 2.19 2 .08.51.88 1 .8-.25.57.65-.18.74-.8 1.03 2.78 2.82 1.24.08-.3.77-.83.18-.3.57.67 1.05 1.45.7 1.26-.3-.44 1.15-.9.43.83 1.33.8.32 1.47 1.53.11.63-.92.41.6.97 1.2 1.1 1.86 2.18.58.4 1.45.33.33.62-.08 1.37.56.48 1.74.14.15-.69.79.46.03.58-.55.51-.79-.36-1 .58.17.72.94.7.5-.51.52.5-1.22.83-.42.02.75 1.8-3.82.15-3.75-.02v-.52l-.94-.74-.29.7-1.24 1.26v1.8l1.21.05.01 2.5-.62-.02v1.27l.32 1.25-4.68-.02.01 3.75-.07 2.16-.72.78.06.8-7.76-.03-1.1-.41h-1.07l-.69.66-.63 1.02-1.34.45-.58-.19-1.48.23-.23 2.52.29 1.9-.46-.03-1.46-.97-.27.5-.08 1.82-1.78.01h-3.35l.02-2.18 1.56-2.56 1-.7.16-3.39h-2.5l-.03-13.79-14.98-.18.09 3.97-.05 11.2h-.24l.04 7.9-.04 9.61-12.38-.08-12.4-.12-7.47.11h-7.5l-10 .13-4.92.03V393.7l.07-15.04.11-15.06-14.82-.09-15-.01-10.01-.01.07-7.39.11-1.6-.08-2.12v-7.91l-.02-12.06.37-1.28.6-1.12.38-1.5-.01-2.85h1.15l-.05-6.7 1.26-.55 6.11-.02-.02-1.26h-4.27l-.74-.5-.3.52h-2.08l-.17-.76-.7.13-.35-.58-.24-2.76-.05-2.3z"/>
    <path region="24" short-name="31" long-name="State House District 31" value="1" d="M997.47 402.37v1.62l-.03 4.87h-9.16l-.4-.81-.04-1.7-.16-3.8h.59l4.44 1.46 1.35-.05 1.15-.3z"/>
    <path region="25" short-name="78" long-name="State House District 78" value="1" d="M974.9 439.01h1.98l-.03 4.96v2.5l-2.21-.05-.4-.85.15-1.6h-.63l-.14-.6-.86-.26.35-1.62-3.58-.02 2.65-2.83.62.33z"/>
    <path region="26" short-name="94" long-name="State House District 94" value="1" d="m605.13 632.46 7.3-.13-.02 2.46 2.47-.06.03 7.36.04 2.46-.6.05.02 2.4-1.92.04.02-4.9v-2.46l-7.28.08z"/>
    <path region="27" short-name="63" long-name="State House District 63" value="1" d="M899.31 242.81h4.24l.15 1.9.62.84 1.71 1.16 2 .98.66.47 1.64 2.54 1 1.1 1.18.64 1.38.2 1.46-.11.86.21 1.25.75.42.83.08 1.05-.18 1-.5 1.27v1.2l.51.74 1.1.6 1.92.1.96-.34 1.67-.87 1.36.18.78.7.19 1.14-.13 1.06.37 1.34.79.84.88.47 2.98.88 2.11 1.05 1.16.25 5.86-.67 1.32-1.05.38-1.27-.11-1.38.2-.78.76-1.08.75-.45 1.25-.08 1.4.46.86.2 1.23-.15 2.48-.73 2.06.62 1.26.83.88 1.27.09 1.02-.57 1.34-.98.98-.48 1.03-.02.78.66 1.19 1.54 1.48 1.23.9 1.85.4 1.4-.1.77.23.8.73.59 1.4.03 2.44-.61 1.67-.43.54-1.19.55-4.37.23-.95.6-.41 1.3.2.91 1.08 1.25 1.26.96 1.41.27.95-.32 2.38-1.74 1.38-.3.53.22.86 1.5.17 1.64-.16.84-.3 1.02-.97 1.47-.74.7-1.13.65-1.02.34-1.46.12-2.1-.8-1.57-1.15-1.23-1.08-1.28-.7-.88-.02-1.34 1.16-.69 1.2-.08 1.57.35 2.74-.07 2.52-.32 1.14-.67.88-1.04.6-1.03.19-2.3.18-1.25.5-1.25 1.3-2.93 4.8-.52 1.3-.24 1.52.29 1.33.68 1.34.2.81-.38 2.1-1.02 1.56-1.02.6-1.63.06-1.72-.74-.84.07-1 .5-.57.68-.75 2.56-.06.9.57 2.03.86 1.55 1.36 1.58 2.05 1.86 2.4 1.28.98 1.07.31.97.37 3.38.85 1.49.99.95 2.35 1.4 2.69.8.75.35 1.07.98.45.75.3 1.65 1.04 1.32-.36.05-12.76-.03-15.3-.04h-5.99l-13.37-.12h-3l-5.02-.08-10.02-.1-14.78.33.03-21.37-.03-4.12h.81l.03-15.13 8.16.02 21.9-.04.01-19-.03-13.95.03-10.17z"/>
    <path region="28" short-name="83" long-name="State House District 83" value="1" d="m636.83 642.73 1.08-.32h1.39l-.02-5.24 2.45-.01.02 3.09h1.14v1.88h1.23v1.2l-1.22.3-1.15.01v2.39l-1.32 1h-.24l.7-1.23h-1.59v-1.24l-2.46.02z"/>
    <path region="29" short-name="76" long-name="State House District 76" value="1" d="m763.62 461.38 2.39-.04 9.24.06 18.04-.03 12.4.02 12.42-.03.03 7.51h-.53v2.51l14.92.01v1.23l3.73.01v-1.25l11.38-.11v1.25l5.68.02v-1.23l6.18.05.08-2.25-.46-.23v-2.68l1.68.19-.52-1.08.24-1.4 2.32-.03 7.4.04h7.51l-.06 4.97h-.91l-.13 6.23.05 5.52-.02 3.3.05 22.48.03 9.71-.02 5 .05 7.47.07 14.92-1.25-.01-.18 20.35-.08 6.17-.03 11.14-3.64.04-7.18-.1-1.35.02-4.31-.12-8 .03-5-.02-9.78-.1h-2.46l-17.25-.08.07-19.76-.04-2.5-10.55-.13-8.88-.03-7.1-.07.08-14.11-.75.26-.37-.78-.9.05.04-15.21h-1.24l-.01-5.32-.28-.77.29-.76.01-1.85 4.5.01 1.69-1.85v-1.85l1.32-.74.79-1.75-5.7-.02-1.84.05-4.22-.05-.23-.12v-6.11l.05-6.37.07-4.77-.02-2.5.05-9.9-19.63-.18-.03-2.5.04-12.36z"/>
    <path region="30" short-name="97" long-name="State House District 97" value="1" d="m612.45 647.04 1.92-.04-.02-2.4.6-.05-.04-2.46 2.45-.04 5.26-.1.45 1.16.04 2.93.32 1.59 1.53-.8 5.2-.05.57 1.22-3.08.04.01 1.22h-.47l.04 4.92v2.45l-13.54.13-1.13.1-.06-7.98z"/>
    <path region="31" short-name="68" long-name="State House District 68" value="1" d="m681.77 417.42 5.92-1.07 5.74.05 2.01.18v-1.06l.43-.8h.77l.5-1.2.89-.3h1.43v-3.93l.4-1.04.07-3.43-.7-.65.9-2.91 1.78-.01.08-1.82.27-.5 1.46.97.46.02-.3-1.89.24-2.52 1.48-.23.58.2 1.34-.46.63-1.02.69-.66h1.06l1.11.41 7.76.03-.05-.8.7-.78.08-2.16v-3.75l4.67.02h.31l.08 4.84 1.18-.58.86-.65 1.14.89.9-.05 3.2 3.47.99-.36 2.5.09h5.93l-.03 9.93 2.51.04-.09 19.94v7.6l.03 14.92 5.28.04 4.57.08 2.6-.09 2.43.03.04 12.7.04 2.23h4.98l-.06 7.47-.04 12.36.03 2.5-.06 6.46-.03 8.49h-24.14l-8.52-.06h-14.95l-14.8-.08h-14.8l-.03-14.9v-7.05l-.39-1.16.37-3.8v-2.85h.4l-.02-4.24.04-15.71h4.97v-9.97l-4.9-.04.07-18.7-.68.48-2 .22-1.53 1.39-.78.32z"/>
    <path region="32" short-name="14" long-name="State House District 14" value="1" d="m960.17 425.5 2.86 1.02 10.12.03.63.55v.63l-1.25.01V429h.62l-.01 1.88 1.06-.01.19.62-2.39.03.01 2.5h-2.83l-2.45.02-.24.16-1.84-2.68-1.58.05-.34-.17-1.9.1-.02 1.27h-2.48v-5.54l.68-.43.06-.56 1.01-.33z"/>
    <path region="33" short-name="115" long-name="State House District 115" value="1" d="m391.18 587.7 14.75-.07-.02 17.3-.04 12.4h1.24l-.03 15.67-14.7-.09-1.3.04-8.4-.05-4.88.04-19.46-.1-10.16-.05-14.15-.12-.12.5.25 17.19-.01 2.37.24 25.13.08 13.04-.04 1.57h1.69l-.2 13.41-.01 6.9.1 11.5.24 12.4.15 19.96h-14.41l-1.21-.1-15.61-.11-13.57-.14h-16.05l-16.14-.1-10.46.02-10.21.06-22.02.11.04-1.12-.12-22.29-.07-18.14.05-3.83-.02-4.9h-7.28l.02-7.36-19.45-.02.1-7.34-2.54-.01.01-14.72.04-14.74.01-22.1v-7.37l.07-15.67-1.8-.02.05-11 .09-18.5 21.1.21 8.2.1 7.3-.04 22.03-.02-.07 14.79 9.78.04 7.18.06 12.22.07 14.69-.06h6.13l8.54.06 14.82-.05 9.9.08 19.58-.09v-14.82l14.64-.03 7.52.04 7.17.1 7.2.02zm-125.6 41.52 2.46.17-.01 1.17 2.32.18-.12 1.66 5.13.03 5.3 2.28.43-.28.91.08 1.76-.94-.04-.5-3.53-1.27-.01-1.44-1.07.18-1.4-.33-.03-.78-2.32.03.01-1.93-2.66-.03.03-2.47.8-.2.03-1.9-.67-.4h-1.2l-.04-2.46h-1.2v2.98l-.61.1v.61h-1.83V626l-.68.22-1.75-.01z"/>
    <path region="34" short-name="70" long-name="State House District 70" value="1" d="m612.23 483.65 14.81-.02-.01-17.41.03-12.47-.04-7.52v-14.97l-1.22-.03v-2.51h1.27l.01-5 .06-12.5 4.92-.04 10-.13h7.5l7.47-.11 12.4.12 12.38.08-.04 6.28v5.1l.78-.33 1.53-1.4 2-.2.68-.5-.06 18.7 4.88.05.01 9.96h-4.97l-.04 15.72.03 4.24h-.41v2.85l-.37 3.8.38 1.16v7.06l.05 14.9h14.8l-.05 7.45.05 22.3-2.43-.03-.02 14.65-.42.27-.03 10.14.07 2.48-.02 17.32-12.24-.03-14.75-.13.01-3.58-.01-14.24v-11.94h.22l.05-4.95v-9.91l-14.81.02.02-6-.02-7.72-.08-1.17-14.72.04-14.83-.02-14.77.03-.04-14.89z"/>
    <path region="35" short-name="57" long-name="State House District 57" value="1" d="m861.54 402.26-.02 1.53h1.26l-.03 1.26 1.03-.08.19 1.34h-2.52l-.04 2.52h1.24l-.06 2.59 2.1-.06-.02.77.9 1.03.76-.02v.72l-5.79-.01-.5-.8.04-1.71-3.75-.01.08-2.5h-1.23l-1.03.2-.7-.5 1.04-3.08-.79-.82-1.7-.95h-1.8l-2 .43-1.38.15h-2.8l-.01-1.6 2.94-.14.02-1.37.7-.34 6.99-.07 6.2-.02.48.08z"/>
    <path region="36" short-name="118" long-name="State House District 118" value="1" d="m.86 482.63.03-9.34-.01-4.8.7-.04 24.81-.02 16.02-.09 11.24-.1 22.37-.2.16-10.01.05-4.99.13-7.4.05-11.65.14-10.94.04-6.59.05-.24.12-15.65.09-7.36 22.24-.12 19.29.22 10.42.16 4.62.02 14.88.01 10.28-.04h14.94l4.75-.02-.03-10 .03-12.5.04-16.44.04-6.17.03-15.19.06-14.53-.03-.48 15 .03h7.23l13.42.05 1.74.04 4.89-.06 14.99.01 5.68.09 9.39.04 2.5-.07-.07 10.13.02 20.14-.2 25.14-.1 20 17.23.07 7.77-.07 9.51.03 10.16-.02 15.25-.05 14.99-.03 1.8.02-.16 9.25-.2 18.44-.04 5.97-.16 18.98-.24 17.45-.08 4.96h1.77l-.18 24.63.08 15.23.1 9.66.12 24.83-12.32.02-3.43.04-22.9.01-.37.04h-16.74l-6.17-.01-24.21-.11-8.79-.04-22.99-.13-4.79-.04-17.38-.08-7.36-.04-29.47-.18-26.61.11-14.7.05-14.7.04-15.96.08-.1-.01-13.37.07-28.77.12-38.52.02-.06-20.84.07-5.37-.07-.66-.05-5.81.01-15.44z"/>
    <path region="37" short-name="50" long-name="State House District 50" value="1" d="m838.49 379.07 9.94.01h11.2l6.24.07-.01 10 .03 5.02-.72-.02v7.4l-.74-.3-1.78 1.06-1.1-.04-.21-1.47-.49-.08-6.2.02-6.99.07-.69.34-.02 1.37-2.94.14v1.6h-2.44l-1.26.65-1.95.55-2.89.4-.93-.06-1.6-.7-1.77-.14-.94-.8-.32-1.58-1.04-.7-1.02-.1-.85.24-2.44-.08-1.59-.4-.41-.35-.86-.04.08-.58-1.34-1.53-1.08-.08-1.36.48-1.28-.06-.8-.53-.39-.72-1-.92-1.11-.29-1.27.54-.92.07-1.6-1.11.53-.97.92-.15.95-.8-.24-1.06-.46-.13-.97.37-.69.68-.49.9-1.04.45-1.22-.36-1.29-.72.42-.56.03-2.47.02-12.53h17.46z"/>
    <path region="38" short-name="9" long-name="State House District 9" value="1" d="m875.32 581.17.03-11.14.08-6.17.18-20.35h1.25l-.07-14.9-.05-7.47 6.9.03 5.52-.02 14.96.02 12.59-.06 9.5.09.57-.05 9.25.04-.01-2.27 1.76-1 7.53-5.47 1.6-.74 4.96-3.69.26-.71.02-2.15.53-.18.3-1.07.46-.56 1.07-.67 9.86.05 1.6-.95 1-.24.43.28.35.91-.05 1.22 7.98-.1v2.5h7.49l3.73.1 9.82.08-.06 12.36v2.51l-9.92-.01-6.13-.04-15.82.04-8.97-.06.02 19.84-19.74-.03.03 2.48-1.39-.01.02 1.22-.2 11.75v14.69l-.03.09-.18 14.82-.08 9.92-.15 12.32.05 9.86-1.1.02.01 9.88-.03 4.9-3.65.02-1.24-.26-4.84-.05-1.19.23-3.98.05-11.92-.01-12.13-.05-5.9.02-.28-.05-6.17.06h-7.3l.08-4.92v-9.92h.74l.04-8.66-.05-13.55z"/>
    <path region="39" short-name="86" long-name="State House District 86" value="1" d="m630.48 644.58 3.02.02-.35-1.22 1.23-.02-.01-2.43 2.45-.03.01 1.83v1.85l2.47-.02v1.24h1.59l-.7 1.23-4.93.03h-1.17l-3 .02-.67-.3-.26-.77z"/>
    <path region="40" short-name="58" long-name="State House District 58" value="1" d="m853.46 408.53.69.5 1.03-.2h1.23l-.07 2.5 3.75.01-.04 1.7.49.8 5.79.02-.05 5-1.24.01-5-.03-.05-1.24h-4.97l-.98.28-1.33.02.01-4.06.3-1.25h-.47v-1.25l.18-1.25h-.53l.08-1.8z"/>
    <path region="41" short-name="33" long-name="State House District 33" value="1" d="m958.06 394.26 13.9.01v7.12l6.97-.03 1.22.06-1.19.89-.06.68-1.19.62-.8.92.5.6 2.25-.01.55.3.84-.28.2 1.2-.12.65h3.85l1.88.08.01.8.94-.57.03-.95.05 1.7.39.81-2.99.01-7.89.05-6.2.04-2.3-1.16-1.18-.9-1.33-.78-.8-.24-2.35.09-1.2.26-.63.38-.96 1.11-.33 1.58-.68 1.87.37 1.8v.7l-.86 1.54-1.87 2.73V400.9l.06-6.63z"/>
    <path region="42" short-name="105" long-name="State House District 105" value="1" d="m619.76 632.2 6.88.01-.13.37-1.46 1.71.82.82-.16 1.38-1.05-.01.03 2.99.01 1.84-2.5.03.42.6-5.26.1-.01-4.94 2.44-.01z"/>
    <path region="43" short-name="75" long-name="State House District 75" value="1" d="M656.32 617.37h.17l-.03-3.68-.03-18.62.6-.6 1.22-.28.08-.8-.7.13-.5-.67-.7.55-.03-5.79-.01-14.86 14.83.2 14.75.13 12.24.03 4.08.01 3.28-.06 19.62-.08 2.32.05 13.3-.05-.08 16.49-.04 5.7-.2 12.34-.07 9.87-6.97.01-18.54.01.04 14.87-14.7-.07-.05.03-14.56-.01-9.41.03-9.51-.1-2.76-.01-.16-.9-.01-2.74-.13-.1-.01-3.64h-7.29z"/>
    <path region="44" short-name="69" long-name="State House District 69" value="1" d="m552.47 449.78 10.99 3.92 4.6 1.76 6.92-4.07 8.57-5.08 1.32-.08h10.38l-.02 2.18.27.32 1.76.01-.03 4.81.05.2 3.64-.04 11.2-.01 14.93.05-.02 12.47.01 17.41-14.81.02-18.63.05-10.99-.03-22.85-.08-.17-.09-6.63.04-.05-14.92-.44-.02z"/>
    <path region="45" short-name="13" long-name="State House District 13" value="1" d="m701.06 498.52 14.8.08h14.94l8.52.05 9.6.01h14.54l-.13 19.85 2.94.02 2.27-.07 2.9.37 2.79.09 1.12.22 8.27.11 3.1.01v.6l-.01 1.85-.28.76.27.77v5.32h1.25l-.03 15.21.89-.06.37.79.75-.26-.08 14.11 7.1.07 8.88.03 10.55.13.04 2.5-.07 19.76 17.25.09 2.46-.01 9.79.1 5 .02 7.99-.03 4.31.12 1.35-.02 7.18.1 3.64-.04-.06 14.82.05 13.55-.04 8.66h-.74v9.92l-.09 4.91-.04 12.3-.03 7.32.12 9.84-.04 4.63.06 4.06-.09 9.04.01 11.76-6.15.01-12.63-.1-20.6-.2-9.03-.08-6.14-.08h-3.87l-.12-10.01v-9.47l.11-7.59.09-9.6-5.78-.07h-4.18l-1.76-.09-10.2-.12-13.35-.12-3.86.02-16.38-.17-3.14.05-12.67-.08-4.29.04-.08-7.38.04-.87-.05-9.72.09-4.15-.04-1.13-.05-9.31.03-4.38.06-9.87.2-12.34.05-5.7.09-16.49-13.3.05-2.33-.05-19.62.08-3.27.06-4.09-.01.02-17.32-.07-2.49.03-10.13.42-.27.02-14.65 2.43.03-.05-22.3z"/>
    <path region="46" short-name="19" long-name="State House District 19" value="1" d="m989.38 420.16 5.63-.03v-.62l.76-.31 1.57-.04v4.76l-2.97-.02.03 2.53-5 .07-.02-2.58z"/>
    <path region="47" short-name="21" long-name="State House District 21" value="1" d="m988.75 418.9.15-.3.02-2.2-.14-1.26h1.85l3.74-.02.12 1.25h2.87l-.02 2.79-1.57.04-.77.3v.63l-5.62.03v-1.26z"/>
    <path region="48" short-name="22" long-name="State House District 22" value="1" d="m984.37 419.08.2-.15 4.18-.02.63-.01v5.02h-1.25v1.17l-1.24.17-2.5-.06v-1.25z"/>
    <path region="49" short-name="25" long-name="State House District 25" value="1" d="m990.93 408.87 6.51-.01v.22l-.08 7.29h-2.87l-.12-1.25-3.74.02v-5.57z"/>
    <path region="50" short-name="29" long-name="State House District 29" value="1" d="m984.38 425.2 2.51.06 1.25-.16v-1.17h1.24l.02 2.57-.03 6.22v3.77h-2.51v-3.7l-.88-.55-.78-.77-.4-.6-.4-1.25z"/>
    <path region="51" short-name="30" long-name="State House District 30" value="1" d="M964.39 420.26h3.65l.58.19 1.28 1.05 4.47-.04.02 2.51h1.97l-.22-1.2h1.61l.98 1.06-.62 1.55-.01 2.1-1.75 2.76h.54l-.01 3.13-.65-.45-1.08.57.1.5.04 1.3-.9-.16v1.37h-2.38v-5l2.38-.02-.2-.62h-1.05l.01-1.87h-.62v-1.25l1.25-.01v-.63l-.63-.55-10.12-.03-2.86-1.01-1.86-.03.13-.44 1.4-.17 1.6-1.42.98.05.79.48h1.3l-.02-2.46z"/>
    <path region="52" short-name="34" long-name="State House District 34" value="1" d="m976.95 395.98 1.13-1.26.86-.44h4.8l-.17-1.32 5.67.09-.02 1.25 2.38-.04.69-.16 1.45.1.64.57 1.2.25v1.33l-8.07-.02-7.55-.02-3.02.07z"/>
    <path region="53" short-name="37" long-name="State House District 37" value="1" d="M971.96 394.27h3.73v1.38l1.24-.21.02.54v.4l3.01-.07 7.55.02-.1.83.62 1.15 1.38 1 1.18.38 1.24.16 1.03.55 2.11.15 1.8-.95.7-.13v2.9l-2.26 1.3-1.15.3-1.35.04-4.44-1.45-.6-.01.17 3.8-.03.95-.94.58-.01-.81-1.88-.08h-3.85l.11-.66-.2-1.2-.83.3-.55-.31-2.25.01-.5-.6.8-.92 1.2-.62.05-.68 1.2-.9-1.23-.05-6.96.03z"/>
    <path region="54" short-name="40" long-name="State House District 40" value="1" d="M955.46 364.09h.96l-.01-1.31 1.13-.22.7 2.04.65 1.03 1.1 1.34 1.17.93 2.84 1.26 1.44.93 1.14 1.05.85 1.06.54 1.1.24 1.41-.28 1.34-.96 1.76-.02.55.46.82 1.05 1.04 1.63.57 1.6.1 1.66-.28.78.26.8.96-.23-.07-16.47-.33-1.05.28-8.73.03-.2-1.1.17-.85-.26-.6.07-6.42.8-2.4 1.37-1.25 1.1-1.25 1.42-1.26h1.6l.02-1.25h.9z"/>
    <path region="55" short-name="44" long-name="State House District 44" value="1" d="m909.95 418.86-.11 2.07.12.55-.01 3.6v1.95l-.34.48-.92.1-.47 1.24-.78.04.06.94-2.83-1.3-.95-1.03 1.22.1v-1.25h-1.25l.03-4.98h4.49l.27-.68.2-1.41z"/>
    <path region="56" short-name="45" long-name="State House District 45" value="1" d="m912.38 408.84 7.4.01.07 8.17-1.68.47-3.73.06-3.86.68-.63.63-1.28.42-.19 1.4-.27.69h-4.49l-.03 4.98h1.26v1.25l-1.23-.1-.73-.88-2.1-1.11-.22-.6.55-.41.02-.62-1.24.02.05-3.38-.27-1.04-.73-.94-.26-.85v-1.3l-8.86-.02.01-7.45 1.5-.77.02-1.7.9 1.18.53.41 2.93 1.55 1.02.8.84.02.93.5 2.27.09 1.09-.47.67-.05 2.29-1.31.82.14.9.97.33-.47-.39-.71.15-.69.65-.09.65.54z"/>
    <path region="57" short-name="52" long-name="State House District 52" value="1" d="m832.95 405.1 1.6.7.92.06 2.89-.4 1.95-.55v4.07l-.1 2.5.93-.02-.07 1.17 1 .38-.07.94 2.89.02 2.19.85-.08.2.02 4.68.7.5.02 3.71-7.49.1-7.37-.05.09-9.98-.05-6.73z"/>
    <path region="58" short-name="60" long-name="State House District 60" value="1" d="m763.46 498.66.03-8.5.06-6.45 19.64.18-.06 9.9.02 2.5-.07 4.77-.05 6.37v6.11l.23.12 4.22.05 1.84-.05 5.7.02-.8 1.75-1.3.74-.01 1.85-1.68 1.85h-4.5v-.61l-3.1-.01-8.28-.12-1.12-.21-2.8-.08-2.89-.38-2.27.07-2.94-.01z"/>
    <path region="59" short-name="65" long-name="State House District 65" value="1" d="m681.81 411.14.04-9.6-.04-7.9.24-.01.05-11.2-.1-3.97 14.99.18.03 13.79h2.5l-.17 3.39-1 .7-1.55 2.56-.01 2.17 3.34.01-.9 2.9.7.66-.07 3.43-.4 1.04v3.92l-1.43.01-.9.3-.5 1.2h-.76l-.42.8-.01 1.06-2-.18-5.75-.05-5.92 1.07z"/>
    <path region="60" short-name="66" long-name="State House District 66" value="1" d="m729.47 378.78 3.82-.15 1.6.08-.46 1 .23.33 1.5.15-.42.82.22 1.18-.27.31.38 2.37.58.7-.29 1.3-1.87.07-.88-.3-1.8.06-.17-.98.33-.99-.93.28-.32-1.23V380l-1.25-.05z"/>
    <path region="61" short-name="67" long-name="State House District 67" value="1" d="M729.47 378.78v1.17l1.25.06v3.77l.32 1.23.93-.28-.34.99.18.98 1.8-.06.88.3 1.87-.07-.23 1.92h-1.35l-.4.56 1.48 2.17-.05.45-1.96.11-.82.96-.2.83-.99.36-3.2-3.47-.9.05-1.14-.9-.86.66-1.18.58-.08-4.85h-.3l-.33-1.24v-1.27l.62.02v-2.5l-1.23-.05.01-1.8 1.24-1.26.29-.7.94.74v.52z"/>
    <path region="62" short-name="102" long-name="State House District 102" value="1" d="m548.38 574.15 1.25.03 1.2-.28v1.18h1.18v.4l6.22-.1 1.45.08 1 1.15.04 1.26.6.3 1.86-.29v4.97l-5.95-.06-.2.83h-.94l-.61-.34-.86 1.4-.78-.43-.82-.94-1.1-2.28-.95-.71h-1.34v-1.44l-.76-.31h-1.37l-.05-4.3z"/>
    <path region="63" short-name="107" long-name="State House District 107" value="1" d="m477.58 318.23 14.87.01h19.86l9.52.05h15.09l15.1.03.05-15.1 6.35.04 13.13-.03 16.87.03.04 7.61.05 2.3.24 2.76.34.58.71-.13.18.75h2.06l.31-.52.74.5h4.27l.02 1.27-6.1.01-1.27.55.05 6.72-1.15-.01.01 2.85-.37 1.5-.61 1.12-.37 1.28.03 12.06-.01 7.91.09 2.11-.12 1.61-.07 7.39h10.02l14.99.02 14.82.09-.11 15.06-.06 15.04-.01 17.52-.06 12.52-14.86-.05-17.35.03-.03 14.03-.24 1.62-.4.64-.3 1.7-.43.4-.53 1.08-.6.55h2.48l.44.2-.01 2.3h-10.38l-1.32.08-8.57 5.08-6.92 4.07-4.6-1.76-11-3.92-.01-13.26v-12.89l.04-12.5-.08-2.5.01-12.52.06-2.44-.22-.07.04-15-4.25.08-6.97-.07-22 .02-1.81-.04h-7.4l-2.57-.04-15.05.03-15.04-.07.02-15.07.04-15.04.05-7.81.11-7.2z"/>
    <path region="64" short-name="108" long-name="State House District 108" value="1" d="m974.37 421.46 5.01-.01h3.12l-1.82 2.5-1.28 1.93.62.57v1.24l1.86-.04.02 1.32h-2.5l-.03 5.02-1.22.08-2.9-.08-.1-.5 1.08-.57.65.45.01-3.13h-.54l1.75-2.76.01-2.1.62-1.55-.98-1.05h-1.6l.21 1.18-1.97.01z"/>
    <path region="65" short-name="109" long-name="State House District 109" value="1" d="M399.92 242.43h17.72l13.44-.03 16.62.03 2.7-.06 5.06.05 1.58-.04h8.77l1.97.04 7.52-.01-.04 2.85.05 5.4-.02 6.96.07 15.18-.06 5.4v9.76l-.08 15.13.03 1.8-.05 13.19.13.13 2.25.02-.15 15.15-.1 7.2-.06 7.82-.04 15.04-.02 15.07 15.04.07 15.05-.03 2.57.04h7.4l1.8.04 22-.02 6.98.08 4.25-.1-.04 15 .22.08-.06 2.44v12.53l.07 2.5-.03 12.5-.01 12.88.02 13.26v18.82l.44.02.05 14.92.07 14.93-12.41.06-.17.03-24.57.02-7.44-.01-15.06.07-1.53-.02h-13.33l.07-14.93-.01-15.08h-14.76l-14.92.03h-19.82l-10.97-.02-13.63.01h-1.3l.18-9.12.27-19.6-.08-1.26.1-14.97.12-14.27.06-14.52.04-1.4-1.36.02-.06-14.98.08-7.6-.15-7.5.26-2.6.08-7.43.11-5.03-.03-8.8.15-6.24.04-12.38-.04-2.82-2.92-.01-.01-15.09-.03-15.18-.02-15.19-.03-12.7-.03-2.45z"/>
    <path region="66" short-name="71" long-name="State House District 71" value="1" d="m627.08 423.73-.01 4.98h-1.27v2.52l1.22.03v14.97l.04 7.52-14.94-.05-11.2.01-3.64.03-.05-.19.03-4.81-1.76-.01-.27-.32.02-2.18.01-2.3-.44-.2h-2.47l.6-.55.52-1.08.44-.4.29-1.7.4-.64.24-1.62.03-14.03 17.35-.03z"/>
    <path region="67" short-name="73" long-name="State House District 73" value="1" d="m553.03 498.47-.07-14.93 6.63-.04.17.1 22.85.07 10.99.03 18.63-.05.01 14.97.04 14.9v12.36l-.03 17.37-9.74.03h-32.08l-17.15.03h-.37l.1-14.93-.02-14.54z"/>
    <path region="68" short-name="74" long-name="State House District 74" value="1" d="M582.81 543.27h19.7l9.74-.02.04-17.37-.01-12.37 14.77-.03 14.83.01 14.72-.03.08 1.17.02 7.71-.02 6.01 14.81-.03v9.92l-.05 4.96h-.22v11.93l.01 14.24-.01 3.58-14.83-.2-2.56.13-12.3.04-3.36.05-1.5 2.49h-5.3l-.73.21v.8l-1.13-1-7.43-.08.04 12.39-.01 9.44-.9 1.37-.6 1.52-.95-.17-.17.87-.77.85-.31.9-6.12.02-14.75-.02h-14.7l-.02.18v-27.36l.03-2.46-.01-14.83z"/>
    <path region="69" short-name="79" long-name="State House District 79" value="1" d="m568.67 676.76 14.72-.05 14.73-.11 14.69-.1 14.62-.26 12.22.25.05.62h1.83l.51 1.34-.22.85.4.35 1.86.77.51.5 11.95.18-.2-4.57 6.1.01 8.56-.05 6.25.02h7.98l.35.15.26 5.88.25 8.51h-.33v13.44l-.04 1.27 2.43-.04.03 14.66.13 8.5-.03 3.85.04 3.45-2.46.04.04 3.64-7.25-.03-2.5.03.1-4.92-4.8-.01-14.57.04-.04-6.14v-6.13l-.06-1.86-.27-.64-.85.01-9.58-.25-3.78.06v-14.7l-14.59.08-3.77.09-.67 2.43-.45-.6-.6.64-.61.02.02 2-1.2.48-.3 1.03.18.95.37.54-.2.82.12 11.27-.03 2.47-4.88.13-1.26.1-3.52-.05-12.21.24v-7.3l-.24-14.57-.01-14.7h-.17l-.03-2.44h-9.8l-14.63.18h-5.1z"/>
    <path region="70" short-name="113" long-name="State House District 113" value="1" d="m330.5 468.67 20.93-.02 14.66-.03 22.39-.04 14.7.05h1.3l.02 6.9-.04 8.1.04 14.93-.03 4.99.05 9.94-.1 2.4.14 12.41 12.36.22 2.48-.01-.03 14.67 1.24.02 17.13.04H449v-13.87l.53-.6 1.44-.72.42-.8.96-.08.96-.45.6.32v-6.02l24.6-.02-.01-7.46.03-14.91 13.33-.02 1.53.02 15.06-.06 7.44.01 24.57-.02.17-.03 12.41-.06-.04 15.37.02 14.54-.1 14.92.37.01.03 1.2.01 13.6-7.4.1-17.23-.13-4.87-.01.02 2.45-3.72.08-6.16.05-.02-2.51h-20.82l-13.58.13.04 14.84.02 14.8.05 14.79-.04 14.78-14.75.03-10.07-.01-11.54-.1-7.88-.05-14.74-.02h-14.76l.04-12.4.02-17.3-14.75.07.03-14.86.04-14.84-.08-14.86-14.7.06-16.31-.18h-29.54l-.12-24.83-.1-9.66-.08-15.23z"/>
    <path region="71" short-name="116" long-name="State House District 116" value="1" d="m407.11 617.34 13.51-.01 14.75.02 7.88.05.53.89.09 22-.03 4.96h2.37l-.06 1.28.5.6-.4.45-2.44.14v17.35l.18.84.74.76 2.08 1.15 3.08 2.93 1.15.97.21.54.9.18v.56l3.21.78 3.05 1 2.59.67 5.92 1.9 13.7-.05-.03 14.67h14.72l19.33-.04.13-.03 10.02.03 14.66-.16 17.48-.06 11.8-.12v-2.46h5.09l14.64-.18h9.79l.03 2.44h.17v14.7l.25 14.57v7.3l-.06 7.64.19 9.24.01 11.95h-3.23l-4.1-.07-8.04.05-24.03.03-11.9.03-19.66.05-16.84.03h-15.6l-7.35-.1-18.21-.07-22.73-.01-6.3-.06-4.07.02h-10.39l-21.42-.05-2.73.06-10.07-.03-20.45-.03-13.12-.1-4.24.1-6.59.02-11.37-.02-.15-19.95-.24-12.4-.1-11.5v-6.9l.2-13.42h-1.68l.04-1.57-.08-13.04-.24-25.13.01-2.37-.25-17.19.12-.5 14.15.12 10.16.06 19.46.1 4.87-.05 8.41.05 1.3-.04 14.7.09z"/>
    <path region="72" short-name="117" long-name="State House District 117" value="1" d="m909.96 431.8 1.12-.2 1.04.44.54-.67 1.1-.32.3.32.83-.24.43-1.03 2.07-.02v-.44l1.9-.01.84-.34 1.03-1.11 1.33-.6 3.81.12 5 1 1.4-.38 2.5-1.82.54-.21 1.58-.02v-6.73l.85.7 1.23.68.75-.13.93-.63.6-1.67-.32-.7.57-1.26 1.4-.2 2.09.87 2.06.57 1.18 1.25.9.52 1.12.03 1.1-.39 1.04-.99.22-.8.93-1.12 1.15-.26.85.65.1.64-.61 1.1.19.9.75-.5.68-.86.55-.35 1.8-2.55.54-1.09 1.99.01v1.59l.82-.34 1.66.02v-1.5l1.14-1.04.79-1.23 2.73-.08-.44 1.64.17 1.86h-1.32l-1.15.19v1.53l-1.39-.12-.45 1.25-.13 2.53.1 1.26.01 2.46h-1.29l-.8-.48-.96-.05-1.6 1.42-1.41.17-.12.44-1.72-1.25-.75-.33-2.3-.56h-4.57l-1.89-.08-.46 1.03-.71.64-.01 4.39-.97.05-.31.74-1.22.16-.34-.35-2.23.02-1.01.2v3.74l-2.47.04-.03 10-7.46-.02-12.49.02v2.52l-4.45-.04-.5-.91-.48-.33-3.12.01.1-1.25.4-1.54 1.25-3.5h-5.64l-.01-2.48.7.08 1.82-.6v-4.53h1.4l.77.74z"/>
    <path region="73" short-name="119" long-name="State House District 119" value="1" d="M265.58 629.22v-3h1.76l.69-.2-.01-2.26h1.83v-.62l.61-.09v-2.98h1.2l.03 2.46h1.21l.67.4-.03 1.9-.8.2-.03 2.47 2.66.03v1.93l2.31-.03.03.78 1.4.33 1.07-.18v1.44l3.54 1.27.04.5-1.76.94-.9-.08-.45.28-5.29-2.28-5.13-.03.12-1.66-2.32-.18.01-1.17z"/>
    <path region="74" short-name="82" long-name="State House District 82" value="1" d="M639.86 661.85h1.9v1.23l2.38-.12-.01-1.12 12.28-.09-.08 14.78.21 4.57-11.95-.18-.51-.5-1.87-.77-.4-.35.23-.85-.51-1.33h-1.83l-.05-.63 2.28.04.25-2.81v-1.15l-.23-.64-.85-1.03-1.07-.03-.7-.57.49-1.21-.17-2.08.3-.58.16-.76-.56-1.13-.75-.61-.12-1.1-.4-1z"/>
    <path region="75" short-name="85" long-name="State House District 85" value="1" d="M641.67 617.4h.09l14.55-.03.05 7.4 7.29-.02v3.65l.14.1v2.74l.17.9-7.57.02v2.48l-4.93.03-8.6.01-.03-2.47h-1.1l-.03-7.41z"/>
    <path region="76" short-name="120" long-name="State House District 120" value="1" d="m0 242.27 19.77-.01 8.46.07h12.4l16.27.02h12.83l16.26.05 11.51-.06 4.03.02h16.79l14.52.05 16.47.03 23.93-.03 5.05.04 5.05-.03 5.09.06 23.67.03 10.54-.01 25.88.05 2.57-.02-.05.76-.13 14.51-.05 10.1.03 2.53-.1 10.1-.02 7.25.03 4.14v11.28l-.06 15.13-9.38-.04-5.69-.09H220.7l-4.89.05-1.74-.04-13.42-.05h-7.23l-15-.03.03.48-.06 14.53-.03 15.2-.04 6.16-.04 16.44-.03 12.5.02 10-4.74.02h-14.94l-10.28.04h-14.88l-4.62-.03-10.42-.15-19.3-.23-22.23.12-.09 7.36-.12 15.65-.06.24-.03 6.6-.14 10.93-.05 11.64-.13 7.41-.05 4.99-.16 10.02-22.37.19-11.24.1-16.02.1-24.82.01-.7.05-.03-14.76.01-5.15-.16-40.24-.07-14.27-.1-15.66-.08-14.33-.12-20.83-.04-14.38.01-5.7-.03-6.1-.08-12.52.04-1.35-.07-3.79-.04-11.53-.06-17.73-.03-1.1Z"/>
    <path region="77" short-name="88" long-name="State House District 88" value="1" d="m640.43 647.03 1.32-1v-2.39h1.15l1.22-.31 1.14-.29.3.28 1.01.02v1.22l4.91-.01 4.9-.03-.01-2.47h2.38l-.03 7.36-2.35.04-10.8.05-.12-1.24-3.7-.01.02-1.22z"/>
    <path region="78" short-name="121" long-name="State House District 121" value="1" d="m958.32 425.48 1.85.03-.09.39-1 .33-.07.56-.68.43v5.54h2.48l.02-1.28 1.9-.1.34.18 1.58-.06 1.84 2.69.24-.16 2.45-.03-.3 1.35v1.18l-1.86-.04.01 1.04-1 .14.25 1.33-4.16.04-.03 2.5-10-.07.01 2.52-14.77-.07.03-10 2.47-.04v-3.75l1.01-.2 2.23-.01.34.35 1.22-.16.3-.74.98-.05v-4.4l.72-.63.46-1.03 1.9.09 4.57-.01 2.3.56.74.33z"/>
    <path region="79" short-name="122" long-name="State House District 122" value="1" d="m68.26 542.84 13.37-.07.1.02 15.96-.09 14.7-.04 14.7-.05 26.61-.1 29.47.17 7.36.04 17.38.08 4.8.05 22.98.12 8.79.04 24.2.1 6.17.03h16.75l.36-.05h22.91l3.43-.05 12.32-.02h29.54l16.3.18 14.71-.06.08 14.86-.04 14.84-.03 14.86h-7.33l-7.2-.02-7.17-.1-7.52-.03-14.64.03v14.82l-19.58.09-9.9-.08-14.82.05-8.54-.05h-6.13l-14.7.05-12.2-.07-7.19-.06-9.78-.04.07-14.79-22.03.02-7.3.04-8.2-.1-21.1-.21-.09 18.5-.05 11 1.8.02-.06 15.67-14.62-.06H168l-19.56-.03-7.32.01-12.21.07-.28-.03-14.3.04-44.03-.01.01-15.48H68.2l.14-18 .07-24.04-.08-17.26zm87.04 49.09h2.84l-.2.9-1.73-.33v.72l1.5.52 6.12 1.47v-6.94l-1.28-.02-.08-.8-.44-.36-5.5-.01.02 2.38-1.25-.03z"/>
    <path region="80" short-name="2" long-name="State House District 2" value="1" d="m874.44 633.03 7.31.01 6.17-.06.27.05 5.9-.02 12.14.05 11.92.01 3.98-.05 1.2-.23 4.82.05 1.25.26 3.65-.02.01 9.82 2.44.01 4.87-.08 17.03.05 2.56-.04 2.4.08 4.86.07 7.57-.03 4.92.02 4.36.14 10.47-.04 1.53.05.02 3.31.06 16.93.05 5.4-.06 11.27h-6.54l-.26.62-1.27.21v1.63l-3.2-.04v-.62h-1.1v-1.2l-.62-.66-.03 1.86-1.2.44v-2.3h-.86l-.38-1.68-.44-.21.36 1.9-6.04.01.07 12.28-.02 7.27-17-.14h-22.83l.03-7.4-11.11-.09-14.6.06h-15.07l.02-14.7v-9.57l-.04-14.98-9.79.03-.02-7.42 1.23-.03.02-2.32-.1-1.29-4.74-.08v3.74l-6.21-.04z"/>
    <path region="81" short-name="124" long-name="State House District 124" value="1" d="m.97 542.98 38.52-.02 28.77-.12.07 14.81.08 17.26-.07 24.03-.14 18.02 2.11-.01v15.48l44.02.01 14.3-.04.28.03 12.2-.07h7.33l19.56.03h4.9l14.62.05v7.37l-.02 22.1-.04 14.74v14.72h-15.03l-18.84-.02h-21.8l.03 8.61.03 20.72.05 14.65.12 21.59-19.43.13-9.61.08-17.66.11-9.43.06-9.36.04-10.36.07-11.49.07-14.5.09-14.57.08-14.32.09.03-7.06-.01-17.91v-19.59l.04-6.65-.04-9.26.06-3.77-.03-10.1v-12.02l-.04-4.93.06-12.28V641.9l-.08-13.5-.1-7.35-.04-10.93-.08-10.22-.1-19.96.04-11.48-.02-23.36Z"/>
    <path region="82" short-name="92" long-name="State House District 92" value="1" d="M626.64 632.22v-2.66l1.94.18.16.33.84.58-.73 1.13.58.72-.8 1 .23 1.25.85-.05.86.99 1.34-.01v1.54l-.34.1V639l-1.11.39-.93-.3.03 1-1.78-.22-.6-.42-2.5.02-.02-2.99 1.05.01.16-1.38-.82-.82 1.46-1.7z"/>
    <path region="83" short-name="93" long-name="State House District 93" value="1" d="m568.57 647.59 7.37-.08 12.31-.27 2.33.03 7.35-.15 7.29-.06v-1.38l2.43-.35v-.7l2.41-.01v-2.43l2.41-.05-.02 4.9.05 1.84.06 7.98 1.13-.1 13.54-.13.01 4.91 4.19-.02.1 1.5-.16.96h3.22v2.47l5.36-.02-.3.58.17 2.08-.5 1.21.71.57 1.07.03.85 1.03.23.65v1.14l-.25 2.81-2.28-.04-12.22-.25-14.62.26-14.7.1-14.72.1-14.72.06-.02-14.8-.06-4.51z"/>
    <path region="84" short-name="96" long-name="State House District 96" value="1" d="M630.15 646.78h.27l.68.3 3-.01-.06 3.24.51 1.03v3.49l-.65.16-.47.59v1l-1.32.02.01-2.44-4.9.02-.03-4.92h.47v-1.22l3.07-.04z"/>
    <path region="85" short-name="11" long-name="State House District 11" value="1" d="m835.05 691.68 20.6.2 12.63.11h6.75l.2 7.48.03 5 .19 7.33v2.47l-.28 6.7-.18 3.05.02 5.22-.1 2.08.04 5.05-.02 7.26-.12 2.47.05 10.59h-30.03l-.05-11.2-.01-17.07v-7.32l1.82.02v-.61h1.13l.1-1.48 1.24.02.01-.75 1.1.01.05-3.26-.6-.64h-2.05v-.62l-12.54-.1.03-7.33z"/>
    <path region="86" short-name="48" long-name="State House District 48" value="1" d="m985.2 431.47.78.77.89.54-.01 3.71h2.5v5.01l.01 2.48-1.98.02-.07-.42.56-1.76-1-.31-.37-.75-.58-.33-.67.2-.9-.25.01-.53.62-.85v-3.75l-.63-.65v-3.12z"/>
    <path region="87" short-name="1" long-name="State House District 1" value="1" d="M934.78 699.4h22.82l17 .15 14.97.14 6.51-.03-.09 25.2-.02 1.27.06 8.21-.02 3.23.04 9.47v9.71l-.98.04-9.99-.02-5.01.02-15.55-.03-19.04-.11H935l-26.04.01-14.66.03-.01-13.06.01-7.2 20.84-.13 8.6-.02-.1-14.64 4.84-.04 2.72-.09 3.71.07v-5.7l-.15-4.15z"/>
    <path region="88" short-name="6" long-name="State House District 6" value="1" d="M967.04 464v1.23h1.24v-1.87l1.34.01-.12-1.88 9.96.02 4.95.02h12.76l-.31 20.2v6.9l-.04.62-.07 16-.03 1.28-9.82-.09-3.73-.1-7.5.01v-2.5l-7.97.1.05-1.22-.35-.9-.44-.29-.98.24-1.6.95-9.87-.05-1.07.67-.46.56-.3 1.07-.53.18-.57-.61.02-1.19-.34-1.55h-.4v-5.4l-.05-7.48 2.5.03-.04-9.27.68-.65 1.33-.01.43-.36.27-1-.2-1.03 1.22-.18 1.68-1.49-.57-1.66-.59-.4 1.21-1.84.7-.22.04-.8.57-.48.5-1.32.44-.44.59-2.32.58.31.16-1 1.06-.8z"/>
    <path region="89" short-name="62" long-name="State House District 62" value="1" d="m778.81 242.7 11.37.03h8.65l5.1-.04 12.54.03 10.13.01h13.14l14.94.02 15.39.03 12.65.01 16.59.02.03 17.43-.03 10.17.04 13.95-.02 19-21.9.04-8.16-.02-.03 15.13h-.8l.02 4.12-.03 21.37h-2.54l.03 5.02-11.23-.02-8.78-.06-.01-11.3.9-.24h1.16l-.32-1.02-.02-1.27-.45-1.24-3.87-.07h-11.13l-8.53-.03-15 .04-2.53-.03-.1-12.68.04-2.63-12.2-.03h-15l-.1-15.13v-27.75l.05-20.68z"/>
    <path region="90" short-name="90" long-name="State House District 90" value="1" d="m597.54 602.56 14.75.02 6.12-.02 1.24.18v1.37h1.22l-.54-1.16.88-.37 6.96.02 13.44-.02.15 14.81h-.09l-22 .01.03 7.39.06 4.95-2.47.03.03 2.46-4.89.1-7.3.13-7.24.07-.1-15.18h-.25z"/>
    <path region="91" short-name="91" long-name="State House District 91" value="1" d="m641.67 617.4.03 7.4h-4.9v2.47h-2.46v.4l-1.32.77-2.8.83-1.48.8-.16-.34-1.93-.17-.01 2.66-6.87-.02-2.45.03-.03-2.45 2.47-.04-.06-4.95-.02-7.39z"/>
    <path region="92" short-name="98" long-name="State House District 98" value="1" d="m627.23 654.18 4.9-.02-.02 2.44 1.33-.01-.01-1.01.47-.6.66-.15v-3.5l-.52-1.02.05-3.24 1.17-.01.34 1.66 1.45 1.95.24.57.6 3.26.3 1.23.64 1.48 1.03 4.63-1.57-.02.4 1.01.1 1.1.76.61.56 1.13-.16.76-5.37.02v-2.47h-3.21l.17-.96-.11-1.5-4.19.02-.01-4.9z"/>
    <path region="93" short-name="56" long-name="State House District 56" value="1" d="m847.08 414.82.63-1.36.01-2.08 4.83-.04v1.25h.47l-.3 1.26-.01 4.05 1.33-.02.98-.28h4.97l.06 1.24 4.98.03.03 5h-12.31l-5 .04-.03-3.7-.7-.5-.02-4.68z"/>
    <path region="94" short-name="7" long-name="State House District 7" value="1" d="m874.4 645.32 6.2.04v-3.74l4.74.08.11 1.3-.02 2.31-1.23.03.02 7.42 9.79-.03.04 14.98v9.58l-.02 14.69h15.07l14.6-.06 11.1.09-.02 7.4-.02 12.32.15 4.15v5.7l-3.71-.07-2.72.1-4.84.03.1 14.63-8.6.03-20.84.13-.01 7.2.01 13.06H874.86l-.05-10.59.12-2.47.02-7.26-.04-5.05.1-2.08-.02-5.22.18-3.05.27-6.7v-2.47l-.18-7.33-.02-5-.21-7.49h-.6v-11.76l.08-9.04-.06-4.06.04-4.63-.12-9.84z"/>
    <path region="95" short-name="114" long-name="State House District 114" value="1" d="m443.25 617.4 11.54.1 10.07.01 14.75-.03.04-14.78-.05-14.8-.02-14.79-.04-14.84 13.58-.14 20.82.01.01 2.51 6.17-.05 3.72-.08-.02-2.45h4.87l17.23.14 7.4-.1.01 13-1.26.08v-.64l-2.18.07.02 1.25-1.59.02.06 2.26-.93.11.05 4.3h1.37l.76.32v1.43h1.34l.94.72 1.11 2.28.82.94.78.43.86-1.4.6.34h.95l.2-.83 5.95.06v-4.97l4.95.02-.02-2.47 14.7-.04.02 9.89-.01 17.46-.03.67-1.37-.79-.4-.78-.68-.54.02 1.26-12.24.04h-14.78l-14.72.05v14.8l.58.01v8.03l.02 7.45 14.65-.1 6.18.07 8.59-.06v2.5l.15 11.01-.22 1.23.02 9.86.06 4.5.02 14.81.05 12.37.02 2.46-11.8.12-17.49.06-14.66.16-10.02-.03-.13.03-19.33.04H480.6l.04-14.67-13.71.05-5.92-1.9-2.6-.67-3.04-1-3.21-.78v-.56l-.9-.18-.22-.54-1.14-.97-3.08-2.94-2.08-1.14-.74-.77-.19-.84v-17.34l2.45-.14.4-.45-.5-.6.06-1.27-2.37-.01.02-4.96-.08-22z"/>
    <path region="96" short-name="101" long-name="State House District 101" value="1" d="m582.82 602.74.02-.19 14.7.01v14.8h.25l.1 15.17 7.24-.07.06 7.3 7.28-.08v2.46l-2.4.05v2.43l-2.43.02v.69l-2.43.34v1.4l-7.28.05-7.35.15-2.33-.03-12.31.27-7.37.08.21-1.23-.14-11.02v-2.5l-8.59.07-6.18-.07-14.64.1-.03-7.45v-8.03h-.58v-14.81l14.72-.06 14.78.01 12.25-.04-.03-1.26.67.54.41.78 1.37.79z"/>
    <path region="97" short-name="10" long-name="State House District 10" value="1" d="m909.95 425.09 2.02-.03.32-.88.64-.3h3.28l-.06 1.2h1.26l-.02 4.56v.45l-2.07.01-.43 1.03-.82.24-.3-.32-1.1.32-.55.67-1.04-.44-1.12.2v-1.54h-1.25l-1.2-.43-.06-.93.77-.05.47-1.24.92-.1.34-.48z"/>
    <path region="98" short-name="27" long-name="State House District 27" value="1" d="m981.86 446.47 5.02.05V444h.5l2-.02-.01-2.48h2.5l-.02-2.5h2.5l.02 2.48 3-.04v1.34l.06 3.38-.26 15.37h-12.76l-4.95-.02-.09-12.5 1.01.14 1.5-.14z"/>
    <path region="99" short-name="36" long-name="State House District 36" value="1" d="m975.53 383.4.01.05 1.05 1.96 1.45 1.15 1.4.52-.14.43 4.92.26 1.13.42-.95.82-.12 1.86-1.25-.02v-.34h-1.26v1.25h-2.83v2.52l-.86.44-1.13 1.26-.02-.54-1.24.21v-1.38h-3.74l-13.89-.01.08-2.5.02-5.05 4.9.03h7.11l1.04-.8 1.8-1.69.47-.3z"/>
    <path region="100" short-name="24" long-name="State House District 24" value="1" d="M985.3 408.87h5.63l-.3.7v5.57h-1.85l.14 1.26-.02 2.2-.15.3-4.18.03-.2.15-.01-3.29-.02-3.17.95.02z"/>
    <path region="101" short-name="43" long-name="State House District 43" value="1" d="m929.87 443.9 7.46.02 14.77.07-.01-2.52 10 .06v4.76l-1.44 1.49-.65.45-2.95.73v.97l1.64.32-3.49 3.28-3.1 2.64-.62.32-6.49-.03-.29-.27-.96.27-13.9-.02.02-2.5z"/>
    <path region="102" short-name="47" long-name="State House District 47" value="1" d="m845.9 348.94 8.79.06 11.23.02-.03-5.03h2.54l14.78-.32 10.02.1 5.02.09 3-.01 13.37.12h6l.13 2.5-.05 5.17.05 9.89-.04 5.06-2.33-.07-7.66.04.01 12.56.01 14.6.15.5-.06 2.2.23.76-.06 4.1.72 1.58.01 1.93.63 1.04.03 3.01-4.35.02-.65-.54-.65.1-.15.68.4.7-.33.48-.91-.97-.82-.14-2.3 1.3-.66.06-1.1.47-2.26-.09-.93-.5-.84-.03-1.02-.8-2.93-1.54-.53-.41-.9-1.18-.02 1.7-1.5.77-.01 7.45 8.85.02.01 1.3.26.85.73.94.27 1.04-.05 3.38 1.24-.02-.02.62-.55.42.22.59 2.1 1.11.73.88.95 1.02 2.83 1.3 1.2.44h1.25v1.54l-.33.3-.77-.75h-1.4v4.54l-1.83.59-.7-.08.02 2.47-7.81.06-11.4-.03h-7.9l-.07-.1.06-2.4-.08-9.99.08-7.52-.08-1.42-.08-8.54.16-2.24-.99-1.37-.84-.44-1.07.38-1.68-.2-1.12-.52-.8.14-2.94 2.1-1.56.37-1.93-1.84-.21-1.53.5-1.45-.02-.77v-7.4l.73.01-.03-5.03.01-9.99-6.25-.06h-11.2l-9.93-.02.02-7.55 7.41.03v-10.07l.01-7.46z"/>
    <path region="103" short-name="59" long-name="State House District 59" value="1" d="M877.75 463.91v-2.5l12.34-.01 16.15.04h6.24l9.92.03-.02 7.46h-.87l-.04 7.35 14.64.08.04 4.59-.05 1.68.03 9.95-.06 6.95-.02 11.77-.03 7.61.01 2.28-9.25-.04-.56.05-9.51-.1-12.6.07-14.95-.02-5.52.02-6.9-.03.02-5-.03-9.72-.05-22.48.02-3.3-.05-5.52.13-6.23h.91z"/>
    <path region="104" short-name="41" long-name="State House District 41" value="1" d="m935.91 344.01 12.76.03.36-.05 1.88.91.93.91.2.51.1 2.05.48.75 1.12.69 1.41.18 1.82-.76 1.04-.68.91-.13.8.2.54.45.54 1.02.25 1.42-.3.93-1.28 1.1-.8.15-.75.48-.93 1.06-.16 1.03.34 4.27.37 2.03-1.13.22v1.3h-.95l-3.19.07-.31.28-1.16-.3h-1.24l-.73.52-.43.96-.72.31-1.44-.18-.72-.33-8.53-.03.1-12.28.97-.3-.76-1.56-.2-1.47.06-1.47-.3-.8-.65-.62-.3-.8z"/>
    <path region="105" short-name="72" long-name="State House District 72" value="1" d="m656.39 572.75.01 14.86.03 5.8.7-.56.5.67.7-.14-.08.81-1.22.28-.6.6.03 18.62.03 3.68h-.18l-14.55.02-.15-14.81-13.44.02-6.96-.02-.88.37.54 1.17h-1.22v-1.38l-1.24-.18.3-.9.78-.85.17-.87.95.17.6-1.52.9-1.37.01-9.44-.04-12.4 7.43.08 1.13 1v-.79l.74-.2 5.29-.01 1.5-2.48 3.36-.06 12.3-.04z"/>
    <path region="106" short-name="51" long-name="State House District 51" value="1" d="m736.36 386.87.3-1.3-.59-.7-.38-2.37.27-.3-.22-1.2.43-.8 1.93.25.53-1.08 1.8.9 1.24-1.52h2.03v-1.27l5.01.02.28.62 5.35.12 1.23-.03.04 2.11 2.7-.15 2.86-.04.02-1.18 2.49.04.76.5.4-.54 5 .03.09 1.15 3.77.1 1.45.11 1.46-.08 2.72-.65 1.05.72.95 1.44 2.04.2.68-.46.45-.72.81-.22 1 .16.6.75-.07 1.79.62.6 1-.35 1.92-.3 1.26.14 2.32.8 1.01-.2.42-.43.52-1.6.96-.02 1.1 1.43 1.7-.28 1.67 2.14.81 1.73.84 1.09.15 1.14-.77.09-1-.82-1.74-.15-.95.79.36 1.1 1.42.37 1.13.56 1.07.79.56.17 1.75.04.51.67-.22 1.3.37.56 1.3.72 1.2.37 1.05-.47.5-.9.68-.67.97-.37.46.13.24 1.07-.95.79-.92.15-.53.97 1.6 1.1.92-.06 1.27-.54 1.11.3 1 .91.38.72.81.53 1.28.06.02 4.46-.02 14.9-.03 3.81.05 16.25.03 14.78.06 7.72-12.41.03-12.4-.02-18.05.03-9.24-.06-2.4.04h-4.97l-.04-2.22-.04-12.71-2.43-.03-2.6.1-4.57-.09-5.28-.04-.04-14.91.01-7.61.1-19.94-2.52-.04.03-9.93h-5.94l-2.49-.1.2-.82.82-.96 1.96-.1.05-.46-1.48-2.17.4-.56h1.35z"/>
    <path region="107" short-name="80" long-name="State House District 80" value="1" d="m598.7 727.96 12.2-.24 3.53.06 1.26-.1 4.88-.14.03-2.47-.12-11.27.2-.82-.37-.54-.18-.95.3-1.03 1.2-.48-.02-2 .6-.02.61-.63.45.6.67-2.44 3.77-.09 14.59-.09v14.7l3.78-.05 9.58.25.85-.01.27.64.06 1.85v6.14l.04 6.14 14.57-.04h4.8l-.1 4.93 2.5-.03.05 6.1h.43l.05 1.23h1.62l.32.16.2 1.05 4.65.02.01 3.35-1.27-.01-2.83-1.1-.47-.92-1.69-.24-.66-.68-1.52-.59h-.64l.05.7-.54 1.45-.93.87-.62.14-.88-1.27-.87-.17-1.48.11-.05 1.21-.02 5.5-14.48-.02-14.47.02-11.66.01-16.01.04h-16.1l-.01-11.95-.2-9.24z"/>
    <path region="108" short-name="87" long-name="State House District 87" value="1" d="m642.85 634.68 8.61-.01.02 7.4v2.48l-4.9.01v-1.21l-1.01-.03-.31-.28-1.14.29v-1.2h-1.23v-1.89h-1.14l-.02-3.08v-2.48z"/>
    <path region="109" short-name="123" long-name="State House District 123" value="1" d="M155.3 591.93v-2.5l1.25.03-.02-2.38h5.5l.44.38.08.79 1.28.02v6.94l-6.11-1.47-1.51-.52v-.72l1.72.33.21-.9z"/>
    <path region="110" short-name="16" long-name="State House District 16" value="1" d="M981.88 427.65v-3.7h2.5v1.25l.02 4.41.4 1.27.4.6h-.84v3.11l-.48.39-1.21.1-.8-.3-1.06.46-1.44-.18v-1.07l.03-5.02h2.5z"/>
    <path region="111" short-name="28" long-name="State House District 28" value="1" d="M989.37 436.49v-3.77l1.64.02.2.63.65.61h2.5v2.5h3.01v4.95l-3 .04-.02-2.47h-2.5l.01 2.5h-2.5z"/>
    <path region="112" short-name="39" long-name="State House District 39" value="1" d="m957.08 417.94 1.87-2.73.85-1.53v-.7l-.36-1.8.68-1.88.33-1.58.96-1.11.63-.38 1.2-.26 2.35-.09.8.24 1.33.78 1.18.9 2.3 1.16 6.2-.04.55.49.5 1.41.43.26.47 1.33.01 1.67-1.74.74-1.61.25-2.14-.42-1.86.02-1.33.23-1.85-.02-.17-1.86.44-1.64-2.73.08-.79 1.24-1.13 1.03-.01 1.5-1.66-.02-.81.34-.01-1.59h-2l-.53 1.08-1.8 2.55z"/>
    <path region="113" short-name="49" long-name="State House District 49" value="1" d="m975.25 434 2.9.07 1.22-.08v1.07l1.44.18 1.06-.46v1.72h-1.26l-.02 1.17-1.22-.01v6.32h-2.52l.03-4.97h-1.98l-.1-.79.97-.38-.02-.65-.47-.68h-.89v-1.38l.9.15z"/>
    <path region="114" short-name="104" long-name="State House District 104" value="1" d="m553.32 558.1-.01-13.6-.03-1.19 17.15-.03h12.38l.03 14.8.01 14.84-.04 2.47-14.7.04.02 2.47-4.95-.01-1.87.29-.59-.3-.03-1.27-1-1.14-1.46-.1-6.22.1v-.4l-1.18.01v-1.18l-1.2.28-1.25-.03-.06-2.26 1.59-.02-.02-1.25 2.18-.06v.63l1.26-.07z"/>
    <path region="115" short-name="54" long-name="State House District 54" value="1" d="m818.1 461.36-.05-7.72-.03-14.78-.05-16.25.03-3.8.02-14.9-.02-4.47 1.36-.48 1.08.08 1.34 1.53-.08.58.86.04.41.36 1.6.4 2.43.07.85-.24 1.02.1 1.04.7.32 1.58.94.8 1.78.13-.03 2.16.05 6.73-.1 9.98 7.38.04 7.5-.09 5-.05h12.3l-.01-4.99h1.24l.05-5.01v-.72l-.75.02-.9-1.03.02-.77-2.11.06.06-2.6-1.24.01.04-2.52h2.52l-.19-1.34-1.03.08.03-1.25h-1.26l.02-1.54 1.1.05 1.79-1.06.73.3.02.78-.5 1.45.21 1.53 1.94 1.84 1.55-.36 2.95-2.11.79-.14 1.12.52 1.68.2 1.08-.38.83.44 1 1.37-.17 2.24.08 8.54.08 1.42-.08 7.52.09 10-.07 2.4.04 3.24-.02 8.18-.06 11.03.04.15-.01 2.5-7.5.01-7.41-.04-2.32.03-.24 1.4.52 1.08-1.67-.19-.01 2.69.46.22-.08 2.25-6.17-.05v1.23l-5.69-.02v-1.25l-11.37.12-.01 1.24-3.74-.01v-1.22l-14.9-.02-.01-2.51h.53z"/>
    <path region="116" short-name="26" long-name="State House District 26" value="1" d="M968.28 451.48v-1.57l.25-.66.94-1.22.06-6.57 3.58.03-.35 1.62.86.25.14.62h.63l-.15 1.59.4.85 2.2.05v-2.5l2.52.01h2.51l-.01 2.5.01 2.53-1.49.14-1-.14.08 12.5-9.96-.02.12 1.88h-1.35v1.86h-1.22V464l.07-1-.66-1.03-.08-2.7.13-.46 1.43-2.34.35-.87z"/>
    <path region="117" short-name="35" long-name="State House District 35" value="1" d="m979.43 387.08.72.18 1.73.03 1.27-.24 2.39-1.41 1.22-.86.92-.13 1.5.4.71.5.63.85-.3 1.97.3.85 1.13.65 1.47.06 2.12-.5 1.09-.58.96-.18.93.24 1.48.84.3.85-.2 1.88-1.41 1.8-1.05 1.83.12.78v.78l-1.88-1.32v-1.33l-1.2-.25-.64-.56-1.45-.11-.69.16-2.38.04.02-1.25-5.67-.1.16 1.34-4.8-.01v-2.53l2.84.01v-1.25h1.27v.34l1.24.02.12-1.86.96-.82-1.14-.42-4.92-.26z"/>
    <path region="118" short-name="112" long-name="State House District 112" value="1" d="M404.48 468.63h24.6l19.82.01 14.92-.02 14.76-.01v15.08l-.06 14.94-.03 14.92V521h-24.6l.02 6.03-.61-.32-.96.45-.96.09-.42.8-1.43.72-.54.6v13.86h-11.25l-17.13-.04-1.24-.02.03-14.67-2.48.01-12.36-.21-.14-12.41.1-2.41-.05-9.94.03-4.99-.04-14.93.04-8.1z"/>
    <path region="119" short-name="111" long-name="State House District 111" value="1" d="m358.44 440.14-.27-8.57.8-1.54.07-1.32 9.86-.02-.02 2.52 4.98-.02-.06 5 2.46-.01-.02 1.22 1.94-.03 1.42-.19 3.14-.11 4.83.33 3.9.01.96.17 1.17.53.06 3.04-.06 5.01h-.79l-.1-.5-1.16-.5-.43 1-9.99-.03-9.91.06-5-.02v-2.5l-6.5.01-1.2-.88z"/>
    <path region="120" short-name="23" long-name="State House District 23" value="1" d="m979.37 417.26.72.4 1.78.04v-1.26l1.24.08v-.71l1.25-.02.01 3.29.01 4.87h-2.5v3.7l-1.86.04v-1.24l-.62-.57 1.28-1.92 1.82-2.52h-3.12z"/>
    <path region="121" short-name="46" long-name="State House District 46" value="1" d="m909.95 418.86.63-.63 3.86-.68-.7 1.32h2.37l.03 2.66.32.27v1.07l.31 1h-3.84l-.64.3-.32.9-2.02.02.01-3.6-.12-.57z"/>
    <path region="122" short-name="103" long-name="State House District 103" value="1" d="m628.74 630.07 1.49-.8 2.8-.83 1.32-.78v4.02l.07 1.35-.19 1.71-.55 1.15.33 1.32h-.88l.02 3.73 1.22-.01v2.43l-1.22.02.35 1.22-3.02-.02.48-2.42-.14-1.12-.4-.72-.86-.23-.03-1 .93.3 1.1-.39v-1.68l.35-.1v-1.54h-1.34l-.86-.98-.86.05-.22-1.25.8-1-.58-.72.73-1.13z"/>
    <path region="123" short-name="77" long-name="State House District 77" value="1" d="m656.4 661.75-.03-12.3 2.36-.04.02-7.36 7.38-.03v-7.24l.61-.12-.02-2.52 9.5.1 9.41-.02-.08 8.89.04 2.34-.05 10.93-7.34-.02v7.4l-.04 2.46-.94 2.42h.96l.02 3.7h1.72l.32.71-.96.26-.16 1.07-.45.5-.65 2.12-.94.55.17.96-6.25-.02-8.57.05h-6.1z"/>
    <path region="124" short-name="4" long-name="State House District 4" value="1" d="m933.05 633.08.03-4.9-.01-9.88 1.1-.02-.05-9.86.15-12.32.08-9.92.18-14.82.04-.1v-14.68l.19-11.75-.02-1.22h1.39l-.03-2.47 19.74.03-.02-19.84 8.97.06 15.82-.04 6.12.04 9.94.01v4.16l.08 8.76v16.3l-.16 11.56-.03 14.04.01 5.17-.06 8.36-.02 7.38-.18 11.22-.24 17.87-.03 8.6.03 8.31-1.53-.05-10.47.04-4.36-.14-4.92-.02-7.57.03-4.86-.07-2.4-.08-2.56.04-17.03-.05-4.87.08-2.44-.01z"/>
  </g>
</svg>
