<svg title="Maryland 2022 State Senate" viewBox="0 0 1000 523.79" auto-border-stroke-width="1" auto-border-stroke-width-limit=".5" original-source='["https://www2.census.gov/geo/tiger/GENZ2022/shp/cb_2022_us_sldl_500k.zip"]' candidates="[{&quot;id&quot;:&quot;0&quot;, &quot;name&quot;:&quot;Democrats&quot;, &quot;margins&quot;: [{ &quot;color&quot;: &quot;#1C408C&quot; }, { &quot;color&quot;: &quot;#577CCC&quot; }, { &quot;color&quot;: &quot;#8AAFFF&quot; }, { &quot;color&quot;: &quot;#949BB3&quot; }]},{&quot;id&quot;:&quot;1&quot;, &quot;name&quot;:&quot;Republicans&quot;, &quot;margins&quot;: [{ &quot;color&quot;: &quot;#BF1D29&quot; }, { &quot;color&quot;: &quot;#FF5865&quot; }, { &quot;color&quot;: &quot;#FF8B98&quot; }, { &quot;color&quot;: &quot;#CF8980&quot; }]}]" version="1.1" xmlns="http://www.w3.org/2000/svg">
  <g regions transform="translate(0 -238.1)">
    <path region="0" short-name="37" long-name="State Senate District 37" value="1" d="m765.73 689.98.3-2.1 1.44-1.55-.72-1.5-.05-2.49 4.25.48 1.53-.83.61-1.77-1.9-.96-.35-.88 2.43.33 1.43-.38 2.78 3.29-1.41 1.17.18 1.16 1.61-.32 2 .93.83 2.37-1.46 1.54-2.28.35.86 2.11 1.41 1.62-.75 1.7-1.77-.17-2.49.37-.69-.81-.53-2.7-.83-2.58-.78-.61-.99.9-.48 1.27-1.45 1.47-1.07-.27-.75.72zm-39.55-51.31 1.1.22.17 1.25 1.55 2.68-1.32.77v-1.93l-.64-.63zm14.12-145.9 1.94-4.25.54-.36 1.9 1.58.98-1.9 1.8-.14 1.39-4.01 3.13-.96 4 .97.92 1.01 1.22-1.75 1.86.35 2.43-.43.2-2.27-.43-1.15-1.98-3 .42-1.88-.9-.79 1.07-2-.06-1.74 1.07-1.86.58-1.72 1.51-1.52 1.46-.25.42.77 2.4.67 2.76.07 17.89 4.24 3.24.99 1.2.08 3.89.93-.06-1.66-.7-1.5 1.07-.76-.75-4.08 2.04-1.14.05-1.82.82-1.31-.39-1.7 3.04-.03 2.87 2.54.01 1.03 1.04 1.13-.03 3.08 1.44.65.84 1.08 1.04-.42.44 4.1-.4 1.72 6.73-.82 2.5 1.99.33 1.1 4.89-.26 2.68-1.1 1.16-.08 1.02-1.18 1.74.19 1.32-.4.81.69 2.84-1.1.26-.62 3.97-.47 2.52-2.16 1.52-.55 1.62.22.93-.63 1.87 29.88 2.2 35.89 1.24 20.3 1.61 26.68.32 5.97 1.15 17.82 6.94.38 18.24.7-1.3 1.52 1.05 1.44-.84 4.1-1.75-.39-1.74 2.45-1.53-2.26-2.26.41.03 1.06-.73 1.3 3.56 2.74.61.75 2.2.61.39 3.05-.7 3.11-1.16 2.59-.84 3.44.85-.17.47-1.28 1.95-2.42 1.41-1.26 2.35.07.13 2.4-2.03.38.15 1.3-1.65.56.3 1.23 1.38.48 1.06.98.77 1.53-.6.81-1.59.65-1.67-1.3-.66 1.3-1.2-.06-.9-2.85-1.24-.18-1.25-.84-1.3-.01-1.23 1.03-2.32-.64-1.11-1.99-1.02.35-.5 2.1-1.34.13 1.17 2.86 2.07-.72-.89 3.02-.13 1.78-1.35 1.6 1.23 1.18-1.17 2.13.85.94 1.99-1.47.65 3.05-.3 1.73 1.64-.34-.87-1.04.93-1.55.64 1.56.83.5 2.75-1.55 1.6-.02-1.12-1.67.65-2.76 1.02-1.24 1.04.8.85 1.47 1.41.69.62 2.6 3.1 3.03-.46 1.5.1 4.15-10 .61-2.96-1.05-1.62-1.92-2.42-.06-1.55-1.48-1.45-.28-1.25-1.01-2.38 1.5-1.85.18-1.3.87.24.95-2.3 3.57.44 2.1-1.13.57-1.6-.4-1.05.47-.76-.7-1.4-.01-1.5-2.38-.11-1.24-1.48-.94-1.33 1.05-2.86-.77-.3-.98-2-.15-1.52.58-.21 2.13-1.12 1.85-1.19.74-3.25.4-1.29 2.94-2.15-.14-1.15-1.12-1.31-.46-2.79 1.29-2.57.02-1.34 2.68-2.76.16-1.3 1.1-.78-.72.7-1.61-1.5-.88-1.19 1.39-.34 1.57-1.15.87-.14 1.39.55 2.05-2.03.24-.9-1.22-1.84-4.2-.3-2.4-1.76-2.12 2.1-2.69 1.42-3.85-1.55-1.8 1.96-2.51 1.66-3.08 2.2-4.98.95.5 1.3-.48-.72-1.06 1.27-2.76 1.85-1.5 1.23-.57 1-3.4.58-1.04-1.6-2.09-1.45-1.15-.56-1.42-1.32 1.1.57 1.93 1.23 2.33-.08.88-2.04 1.1-4.7 1.66-1.48.1-.7.89-2.03.93-.54 1.13.23 3.5-1.38.33-1.71 1.31-1.1 2.62-.8.24-.6 1.32.34.91-.9 1.5-.02 1.28 1.11 1.78-.63.95.2 2.37-.52 1.51-2.03.87-1.28 1.12.74 2.25-.65.94 1.3 1.17 1.81.54-1.92 2.7-4.74 1.06 1.39-2.09.49-2.95-1-1.04-3.64-2.71.32-1.19-.4-2.4-.66.14-1.03-1.85-2.6-3.55.35-.73-1.27-.83-.3-1.03-2.02-.83-.24-.55 1.97-.9 6.15-.83 1.2-.4 2.41-1.71.86-2.44-.11-3.56.86-.8-1.98-1.57-1.56-4.09-3.24-1.03-1.07-.03-1.04-1.34-3.46-.19.49 1.1 1.28.75-1.18 1.4-.53 2.19.1 1.28-1.12 5.33-1.74.72-2.02 2.07-1.73.31-.9 1.12-.9 2.48-2.8 1.2 2.66.38 2.07 1.74 1.26 2.4 1.1.5.81 1.87-1.3 1.8-.02 1.78-1.1 2.67-.65 2.7h-2.21l-.54.7 1.96 1.75 1.9 3.2-.2 1.65.83.87.19 1.45-2.05-1.56.08-.82-1.23-.6-2.69-.37-2.94-4.15v-1.09l-.9-1.88-.73-.64-.96.8-1.32-.57-1.48.21.24-2.56 1.7.14 1.98-1.45-.3-1.02-1.44-.4-.27-2-1.91.18-.84-.61.37-1.16-1.12-2.14-.67.91-1.4.03-.8-1.07 2.1-.78-2.04-1.5-1.64.51-.88-.96-.75 1.28-.7 2.39 1.18 1.74-2.58.58-.58 1.18-1.98 1.13.3-1.58-.3-1.67 2.36-2.32-.14-1.15 1.72-1.45-.35-2.27-2.3-1.18-.22 1.04-2.06-.76-1.2-.84h-1.08l-2.32-2.55-2.23.32-.21 1.02-1.74 1.02-.91-2.14 2.14-.3.64-.88-.96-1.42 1.47-1.1 1.07.75.75 1.58 1.6 1.98 1.88-.08-.59-2.4-1.5-.54-.8-.83.35-1.69-.38-1.42-2.2-2.76-.13-1.15-1.6-.3-1.72-.9.33-.78-2.01-1.31-.94 1.34-1.87.45-.3-2.09.86-.53.19-1.26-.4-3.24-1.85-1.47-1.64.4-.29 1.23 1.18 2.33-.78.22-.5 1.52.29 2.22-.54.54 1.1 2.6-.03.75 1.96 3.24 1.92 1.23.27 2.54-1.82.62-.59.88.43 1.07-.56 1.9.96 1.69 2.63 2.14 1.12 2.49 1.1.16.37-.94 1.66-.1 1.58.75 1.82-1.48.43 1.1-1.71.83.95 1.52-1.51.81-.16 3.37 1.17 2.61 2.26 2.13.57 1.5 2.5.07 1.32-.3 4.43 1.94.2 1.13-.96 1.26-2.38.8-2.08-.77-.02-.57-2.14-2.49-2.79-.77-1.68-3.13-1.47-1.5-1.08-3.77-.95-1.88-1.13-.73-1.51-3.5-1.12-1.22-2.9-1.44-1.2-1.92-.09-2-.76-.51.72-1.75-.8-1.95.19-2.65-1.25-.8-1.27-3.04-1.15-.73-.1-.89-1.62-.85-1.52-1.6-1.49-.53-.2-1.44-1.57-.8-.09-1.16-.77-.8.6-4.03-.82-3.6-1.16-2.08-1.17-.76-2.86-6.48-1.32-.64-.32-1.85-1.9-1.47-.99-2.09-1.38-1.95-.32-1.76 2.26-3.2-1.09-1.39 1.36-.26 2.6.74 2.5-1.42 2.73-.65-.14 1.4 1.47.75 1.8.35 1.87-.75.5-1.5 2.52-4.73 1.05-1.36 3.37-.84 1.26.37 1.47-1.85-.59-2.27-2.73-.43-2.13 1.24-2.42-1.32-2.76-.3-1.6 2.15-1.07-.13.88-3.33-.05-1.54-1.29-2.49-1.97-2.32-2.07-.1-.1-1.6 1.6-1.83.61 1.18 2.01.75 1.2-1.8 2.12-1.46-.16-1.1-1.17-.64.78-1.64 1.25-.3-.22-1.5-2.06.57-.43-1.52-.84-1.22-.44-2.3.99-.48 1.03 1.59-.55 1.12.99.5 1.07-.34.22-1.12 3.2-.06-1.03-2 3.62-1.48.83.89-.76 2.2.43 1.22 1.14-.45 3.56 1.32.67.77 2.1-1.15 2.52-2.58 1.22-.4 2.23-1.9 1.81-.07.86 1.73.08 2-.96 3.68 1.66 2.04 1.95-.2 2.55-2.94 1.87 3 2.81 2.7 1.4.94 2.86-1.31 2.6-1.55.8 2.03 1.96.24v1.6l1.55 1.35 1.6.7.51.74 1.77.67 1.47 1.34.91.21 3.75-1.36-1.15-4.18-1.71-1.04-1.9-1.98-1.18-.67-.1-2.79-2.37-1.23-2.06-1.4-1.66-.5-.61-2.54-1.23-.7-2.5.3-3.1 1.01-2.28-2.2-.93-1.81-1.58-1.05-2.82.6-1-2.7-.9-3.43-1.57-1.16-.93-1.63-1.45-.93-.94-1.46.77-1.68.19-1.61-.94-1.6-1.66-.6-2.43 3.67-.73 1.6-1.25.37-1.95-1.84-.64-1.54.5-1.49-1.4-1.4-1.64-.25-2.66-4.26-.08-1.9.53-1.33 1.63-.62-.52-1.55-1.16-.49-.27-1.07 2-.64 1.53.83 1.6 2.25 1.45-1.37.78-1.71-1.8-1.05-2.5-2.46.45-1.82-.46-.8-2.6-.89-1.44 1.05.05 1.85-.45 1.12-2.36.1-.56 1.9.5 1.78-2.75 2.38-.68 1.1-.3 3.23-2.42-.86-.4-1.3-2.66-1-.69-1.05.96-.92.06-1.37-.94-4.04-3.32.18.13.94-2.73 1.66.86.67 1.45.05.43 2-1.48.44-1.16 3.09-1.57 1.5-.58 2.92 1.5 2.66 1.24 1.27-.92 3.32-1.67-.2-1.52.78-.81-1.64-.62-2.99.79-1.85-.47-1.55.57-2.95.9-2.38-.46-2.32.32-2.29-.76-3.1 1.18-3.4 1.63-.78.14-1.55-1.17-1.18 1-1.16 1.31.53.13-1.21 1.11-2.45 1.98-2.63.26-4.77 1.27-2.18.23-1.23 1-.92 2.1.28 1.6-1.26.73-1.1-.77-.7 3.4-4.31 3.09-2.85.32 1.47-1.01.2-1.53 1.43-.72 1.3 1.43 1.26.96 2.97 1.15.78-.06 1.36 1.86 2.34.62-.79 2.25-.37.95 1.3 3.07 3.29-1.42 1.55.75 1.53-.78 1.44.35.91 2.06 1.72 1.12 1.31 1.53.88.37.97 1.48.64.9 1.66.3 1.55 2.57.8 1.1-1.41.7-2.39 1.36-.59.27-.99-1.1-.77-1.12.21-1.29 1.07-2.09-1.84.32-1.02-.74-1.26-.97-.35-.4-1.74-2.09-1.82-.64-1.34.45-1.52-.24-1.1 1.33-2.8.52-2.29-.97-1.68-.52-2.38zm-42.58 23.67 2.45-4.03 1.03-.68 1.2 1.13-.55 1.33.34 2.43 1.5 3.27.2 2.23-3.17 1.1-1.41-.77-.16-1.36-1.36-1.97z"/>
    <path region="1" short-name="36" long-name="State Senate District 36" value="1" d="m729.6 475.17 1.37-.9-.03 1.55zm67.73-195.86 1.73.56.31-1.35 1.76-.12 3.38 2.42.84-1.65-.32-1.11.58-2.66-1.13-2.1-.1-1.15-1.33-1.11-2.3.43 1.18-2.27 1.78-1.15v-1.27l3.05-1.07-2.1-1.41 1.23-2.78 2.04-8.87-.85.21-4.62-4.53-.09-.9-1.23-2.64 4.48.74 3.18-.06 2.52-.84.56 1.86 2.2.7 1.63-.1.7 1.56 1.65.15 1.15-.48-.71-1.3.36-1.36-.5-1.08-2.93-.67-.07-2-.7-.88-1.42-.68.62-1.88 7.5-.02h9.53l2.47-.1.05 6.5-.06 12.23.25 5.62.56 9.6.96 16.35 2.89 45.8 1.77 28.12.94 14.8 1.1 19.83.38 3.76.8 14.49.45 5.88 1.17 18.85 1.74 28-.93.63-1.62-.22-1.52.55-2.52 2.16-3.97.47-.26.61-2.84 1.11-.8-.69-1.33.4-1.73-.19-1.03 1.18-1.16.09-2.68 1.1-4.89.26-.34-1.11-2.49-2-6.72.83.4-1.71-.45-4.1-1.04.41-.83-1.08-1.45-.65.03-3.08-1.03-1.13-.02-1.03-2.86-2.54-3.05.02.39 1.7-.82 1.32-.05 1.82-2.04 1.14.75 4.08-1.08.76.71 1.5.06 1.66-3.9-.93-1.19-.08-3.24-1-17.9-4.23-2.74-.07-2.4-.67-.43-.77-1.46.25-1.51 1.52-.58 1.72-1.07 1.85.06 1.76-1.08 2 .91.78-.42 1.87 1.98 3 .42 1.16-.18 2.27-2.44.43-1.86-.35-1.22 1.75-.92-1-4-.98-3.13.96-1.4 4.01-1.79.15-.98 1.89-1.9-1.58-.54.35-1.94 4.27-1.05-2.17.84-2.03.57-5.86.74-3.54-1.57-.22-.33-3.75.28-4.41-.24-1.97-1.8-.79-.18-1.1 1-.42.19-1.5-2.82-1.02-.77.08-.68 1.64-1.65-.27-.56-1.98.18-1.4-1.58-3.32-1.15-.32-1.07.54.34 1.79.17 5.36-2.2 2.17 1.08 1.63 1.82.95-1.89 1.44-1.31-.33-1.38-3.9-.27-1.35-.8-1.1-1.79 1.57-1.6.96-.13.74-1.62.56v1.18l-.8 1.75 1.26 2.44-.5.56.63 1.43-1.42.17-.73-5.6-1.39-.78-1.71.49-.32 3.4-1.37.03-.7-2.01h-1.52l-1.42 1.82.93 1.7-.01 2.68-.53 1.22 1.1 3.45-.07 1.02.66 3.68-.68 1.18-1.48 1.3-2.2-.48-2.95 2.15-.41 2.37-.66 1.63-1.55-.96.1-4.59 1.24-2.2 1-3.15.19-2.98-.3-2.4-.1-4.36.75-6.32.13-2.86 1.78-5.23 2.92-5.03 1.1-.26.68-3.28 1.9-2.58.72-2.24-.5-1.6.74-4.08 1.92-3.55 2.23-1.28-.1 1.9-.6 1.95 1.68 2.07.11 1.67.69 2.77 1.12 2.1 1.78 2.29.81 1.83 3.96-.37-.43 1.67 1.18.75 1.2-.4-.34-1.08 1.95-.05.4 1.4.83.69 2.8-.32 1.64 1.17 2.44-.85 1.3.12 2.46-1.9 4.37-4.55 1.81-1.22.08-3.05-1.53-3.97-.9-.64-.87-1.66.65-2.18-.4-1.45-1.58-.6 2-3.64 1.4-1.16 2.28-.78 1.9-4.04 1.68-2.45-.47-1.44-4.43-.92-4.3-.1-4.38 3.1-.28 2.5-.64 1.35-.97.77.54 3.22-.67 2.62.53 1.22-.6 1.23 1.21 2.37-.52 1.7 1.82 3.95-1.12.11-.76 1.26-1.38-.35-.3-1-3.26-1.48-.75-1.43-1.71-1.58.4-3.16.87-1.66 1.5-.04.68-2.16-.84-2.3-.15-6.32-.95-4.95-1.54-2.63-1-2.84.64-.96-.1-2.5-2.74-1.48-1.88-2.4-2.41-.65-.3-1.58.62-4.02 1.81-4.37 2.43-3.22 1.08-2.21 2.18-6.36 2.1-3.56 1.2-3.2.95-3.9 1.94-3.02.6-.5 1.58.35.57-.94-.19-1.33.55-1.05 2.23-.38 1.01-1.17.58-1.64.96-.15 1.4.96.85-.61.13-1.26-.99-1.07-1.44-.51.55-1.15-.55-1.77-1.56-.69.1-2 2.24-1.22 1.17-2.5 2.42-1.1 3.19.43.52 1.78.88-.9 1.32-.44.05-2.21-.84-1.15.07-1.11.97-1.31 3.6-2.39 1.31-3.3 5.57.55 5.3-.47 2.8.4 3.82.93 2.24 1.61 2.58-1.37 2.05-.26 2.07-1.32 1.6-2.17-2.03-1.53-3.1-.35-4.94.13-1.62-.37-.74-1.14.83-2.57 1.03-1.07 3.72-1.55 2.18-1.77.98-2.62 1.15-1.99 1.45-.89 1.89-.56 1.31-2.72.04-.93 1.1-2.64 1.15-1.74-2.63-2.25-1.63.19-.27 2.51-.74.77-1.61.52.26.88-1.47 1.06-1.56.3-.65-1.15.62-1.29 2.3-2.45 1-1.74.2-1.25-.4-2.4.22-1.54 1.02-.85.5-1.29.4-3.9 1.09-1.71.22-3.76 1.64-1.04 1.57.15.88-1.15-1.55-1.62.6-1.3-.85-3.38.25-1.07 1.36-.24 1.58-1.58-.02-1.82z"/>
    <path region="2" short-name="31" long-name="State Senate District 31" value="1" d="m628.1 417.56.88-4.66-.36-3.13V406l2.27-.4.54 2.34-.18 1.18 2.93.66 3.55-.71-.51 1.04.66.78 3 1.68-.4.81.67 4.17 2.37-.03-.3-.92 1.78-.37 1.15-1.63 1.17-.23.88-1.2.71-2.69-.95-1.36-1.6-.9-.37-3.26 1.3-.77 3.2 4.58.88.61 5.49 1.17 2 .15-.32-2.06-.95-1.56-.25-2.4-.87-.98-2.29 1-.82-1.58-1.76 1.61-1.69-2.34-.75-5.08.27-1.42 1.6.6 1.04-.23 2-1.57 1.77-.15.7-1.92-1.54-3.8 6.8 2.72 3.84-3.03-.52 1.11 1.01.83.68 1.58-1.34.68.1.8 1.64 2.74.07.9 1.83 1.36 1.19.21 1.96 1.9.7 1.13-.56 1.34.48.6 1.58.07 1.2-.64.54-1.47 1.34-1.22.75.1.21 1.5 1.01 1.86 4.22 3.26 2.85 1.76 2.05 1.54-.5 3.01.28.64-.26 2.42 2.48 7.95.05 2-1.8 4.1-1.28 1.84-3.8-1.95-7.44-1.62-5.43-2.18-1.4.72-2.14.26-1.51 1.78-.26.92-7.26-10.36-1.33.96.42 1.07-.58 2.2-.07 1.81-2.85-1.15-3.72-.68-1.93-1.45-2.27 1.23-.8-.25-1.53 3.93.01 2.1.6 1.75-1.37 1.5-3.33-.88-1.9.08-1.32-1.08-.33-1-2.9-2.25-1.64-1.77 1.93-.92-.24-1.84-2.09-4.21-3.27-.36z"/>
    <path region="3" short-name="22" long-name="State Senate District 22" value="1" d="m568.51 453.2 3.2.06.57 1 2.15 1.21-.03 1.72 3-.05-.13-1.2 2.54.06 1-2.9-2.1-.52-.9-1.3 1.63-4.25 1.77-2.54 1.57.38 2.2-1.81 2.93-1.18 3.21.08 1.2 1.06 1.93 1.03.47-1.3.03-3.76 1.5.29 1.83 2.16.82 1.45 2.1 2.35 2.17 1.54-3.24 1.53-.97.9 1.85 1.21.63 1.76-2.17 1.76-2.7 1.82-.62-2.16-2.47 1.53-1.34.04-1.72-.65.78 5.32 1.36-.53-.17 2.29 6.2-1.7.93.82.76-.93 2.17-.08.1 1.54.8 1.41-2.18.4.13 1.2-3.67-.14-2.29.2-2.46 2.02.64 1.66-1.51.7-.7-1.83-1.47-.75-.8 1.37.5 1.16-.47 1.12.54.9-.25 1.46-1.67-.04 1.04-1.9-1.48-.37-1.33.22-2.1-.95 4.38-4.08 4.12-.44-1.44-3.27-.81 1.26-1.1-.88-1.18.8-1.3.13-1 1.26-2.62 1.02-1.6 1.49-.87-.85.36-1.25-.02-2-2.9-.13-1.62 2.65-.85.44-1.45-.74-.76.55-2.19-1.32-1.05-.1-1.86-1.98-.91-2.05 1.61-.48.8-.75 2.49.19-.19-1.38-.84-1.72-1 .19.79 1.87-2.36-.28-.27-1.66.78-.94z"/>
    <path region="4" short-name="21" long-name="State Senate District 21" value="1" d="m568.06 441.2 3.25-5.55 6.8-11.86 3.19-5.82.8-2.43-.77-.96 2.93-1.73 1.3-2.06 2.97 4.1 1.43 1.35 1.52.54 1.24-.11 1.72.47 1.7.94.27.8.63 1.82 2.9 1 .12 1.3 2.97-.02 2.75-3.08 4.74-4.26 2.35 5.14 2.8 2.04.8.26 5.36.42 1.38-.35.98-1.1.7 1.28 1.72.26-1.26 2.16.67 1.19-.9 1.88-1.46.58-3.13 2.63 1.26 2.62 2.51.2.52-1.42 1.86.75 1.8 1.3 1.46-.92 1.1.58-.96 2.27-.1 1.91 3.37 2.1 1.03-2.24 2.02 1.1.98 2.92-1.23 2-2.71-1.32-1.47 1.48-2.97-2.16-1.21 6.54.64 1.37 3.86-.03-3.31 1.92-1.8-.61-1.15-1.69-2.8-1.82-.6-1.3-1.13-.84-1.04-.06-1.02-1.52-1.44-1.33.31-1.9-1.01-2.83-2.11-1.26-.97.7-3.43-2.89-1.62-.27-.87.47-1.14-.45-.7-2.43-1.13-.24-.72-2.05-1.48.44-1.52-.24-2.08-1.14-1.13-1-2.32.05-.45-1.44-1.1-.97-1.59.16-.69 1-1.53-.66-3.93 3.37.41 1.17 2.18.98 3.25.76-1 1.28 1.8.75.7 2.38-.77 1.61 1.4-.2-.03 3.77-.47 1.3-1.94-1.03-1.2-1.06-3.21-.08-2.94 1.18-2.19 1.81-1.57-.38-1.77 2.54-1.63 4.26.9 1.29 2.1.52-1 2.9-2.54-.06.13 1.2-3 .04.03-1.71-2.15-1.21-.56-1-3.2-.06-2.15.24-.55-.67 1.04-2.07-.92-.34 1.03-2.91 1.57.6 1.18-.5 2.4-4.8-.35-1.4-1.23-1.38z"/>
    <path region="5" short-name="35" long-name="State Senate District 35" value="1" d="m683.96 238.63 47.75-.02 23.48-.07 24.32-.08 6.53.07 27.82-.06-.62 1.88 1.43.68.7.88.06 2 2.93.68.5 1.08-.36 1.35.71 1.3-1.15.48-1.65-.15-.7-1.56-1.62.1-2.21-.7-.56-1.86-2.52.84-3.18.06-4.48-.74 1.23 2.64.1.9 4.61 4.53.85-.2-2.04 8.86-1.24 2.78 2.1 1.4-3.04 1.09v1.26l-1.78 1.16-1.19 2.26 2.3-.43 1.34 1.11.1 1.15 1.13 2.1-.58 2.66.32 1.11-.84 1.65-3.38-2.42-1.76.12-.3 1.35-1.74-.56-.09-3.2-1.98.18-1.6 1.77-.1 2.23-1.75 2.46-6 2.91-1.51 4.17.89 1.3-.96.85-1.22-.14-1.26-2.11-2.44-.57-1.88-1.27-1.95.08-.35 1.8-3.77-.05-2.78.86-2.21-4.49-.62-.68-3.92-5.6-1.84.99-3.07.22-2.25 1.47-1.37 2.01-2.67 2.57-2.86 3.04-1.28 2.43-1.02 1.29-1.61-1.01.26-1.24-1.5-1.23-2.78 2.56 1.56.8.16.83 1.61.66-2.66 2.57-2.85 3.45-4.39 2.53-2.02 2.76-2.15 1.4-2.1-2.68-2.08-4.06-1.23-.34-.81-2.34-2.01-1.82-1.96 2.03-2.44-2.13-1.54-.14-.69-1.54-1.7-.97-.3-1.47-3.3-1.42 1.08-1.9-2.16-.55-4.4 1.73 1.32 2.72.5 2-1.76-.78-.64 1.69-1.2 1.53-1.03-.44-1.55.13-.67-1.08-1.55 1.03-1.71.55-1.26 1.28-1.28-1.2-7.43-3.81 1.04-3.88-.9-.84-.36-2.63-.66-1.86-2.3-.5-1.48-4.31-1.3-1.93-1.2-4.97.01-2.07.43-3.85 1.24-3.93-.25-1.4.54-1.69 1.38-1.58 1.5-.65 2.52-2.6-.82-1.48-.26-1.94.44-2.98-.52-.8-.36-7.67z"/>
    <path region="6" short-name="3" long-name="State Senate District 3" value="1" d="m446.8 316.71 2.07.14.56 1.26 1.86 1.55 1.73.18 1.45 1.13.62-.47.05-1.82 1.65.23.66-1-.87-2.72 1.5-1.59.38-1.93 1.88-.05.75-1.24 2.28.19 1 1.38 2.38.24.78-1.37-1.67-1-.13-2.84.92-.3.95 2.14.97.32.72-1.39 1.55-.24.12.87 1.76 1.14-.45 3 4.43-1.54.19 2.25.83 1.61-.68 1.62.27 1.08 2.5 1.7.98 1.57 1.88-.03-.16 1.6 4.82.88-1.13 1.74-.01 1.21.7 1.63 2.35.4.84 1.23.7 2.1-.53 2.3.35 2.12-3.44-1.18.01 2.61 1.11 3.16-.1 1.06-1.36 1.96-1.62-1.45-1.55.46-2.46.13.53 1.43-.62 1.6.59 1.47-.24 2.61 1.64 3.63-1.46 1.06-2.87.67-1.99-1.9-2.47-.1-2.24-1.48-2.17.36-1.8 1.74-.79.2-1.83-1.8-1.15.43-1.26-.48 1.42-4.73-1.34-2.73-1.38-1.35-1.2.56-2.48-2.42.63-1.22-.72-4.16-1.1.73-1.3-2.1.64-.47-.79-3.35-1.26-1.16-1.1-1.86-1.93-1.74-.8-1.66-.1-2.63-.52-1.01-2.14-1.4z"/>
    <path region="7" short-name="28" long-name="State Senate District 28" value="1" d="m531.11 554.33-.38-2.66-.9-1.61.76-6.92 2.37-3.47 3.63-3.17 1.55-.52 2.87-2.14 1.73 3.44 4.67 15.7 1.72 5.47.9.16 1.4-1.67.4-1.17 2.14-1.05 2.25-4.28 1.74-1 1.3-.22 3.14-1.27.42.2 2.85-.65.98.07 1.14-.74 2.9.74 1.79-.14 1.58 1.25 2.72-.07 3.15.55-.67 4.16.54 1.23-.8 1.29 4.2 2.91 3.87 1.5-2.8 3.48.55 1.32-.25 1.4 2.5-.85.97.08 2.04 1.04 1.4 2.13.2.93-.01 4.03 1.56 1.96-2.34 2.12-.53 1.34 1.27 1.97 1.23 3.1 3.17.52.21 1.99.72.22 2.18-1.1 1.13-.22.93-1.13 1.74-.1 1.5.52 7.44-2.13 2.09-1.54 3.26.48 1.91-5.34 1.4.22 2.25 1.74 1.83.47.55.58 2.6.89 1.94 1 .62 1.03 2.6.65 1.89.77 1.55 1.75-2.5 7.77-2.37 1.33-3.31-.61-1.35-1.31-1.25-2.23-3.56-.68-4.82-.2-.9-.36-3.35.13-1.74 1.23-2.2 4.76-3 5.93-5.07 10.59-.56 1.92-1.55 2.09-1.2.91-1.11 1.98-1.87 1.43-.5 2.23-1.39 1.05-3.37 1.36-.65 2.12.69 1.42 2.93 1.7 1.88 1.7.58 1.72-.11 1.25-1.86-.9-1.74 4.24-1.23 1.47-.13 1.98.85 1.26 1.66.75 1.61 2.54-.64.86.32 2.35 1.42 1.3.11 2.44 1.31.74.67 3.47.6.89-1.3 2.78.62.77-.98 2.05-1.11-.48-1.36-1.53-2.52-2.14-5.52-2.76-4.2-2.84-2.4-.87-1.54.22.1-2.31.52-3.6-.33-1.04-1.5-2.34-3.54-2.52-1.45-.4-3.32-2.39-2.5-.2.71-1.86-.22-2.07-1.69-2.03-.16-3.36-.9-5.83-.86-1.13-1.46-2.98-.69-3.64-1.31-2.7-1.12-1.55-.88-2.55-5.47.28-5.43 3.91-1.16 1.4-1.26.41-2.46 2.87-1.05 2.07-1.98-.08-1.52.46-.9-.86-2.87-.41-1 2.82-2.02 2.6-2.38 1.6-2.07.93-2.16 2-1.24.42-1.78 1.73-1.62.84-4.65 1.65-2.12-.94-1.64-1.57-2.22-1.58-.57-.04-3.1-2.45-.65-1.52-.14-1.57-.81-1.1-.07-1.41-1.7-3.23.4-2.11 1.49-2.77-.18-1.01-1.89-2.83.67-1.6-.4-1.92-1.06-1.22-.33-1.09.8-.98.26-1.84-1.26-1.1-.56-1.17.41-2.35 1.22-2.49-.1-.8.87-3.16 1.55-1.9-.2-.82 4.48-8.67 1.77-.73 1.97-.23 2.42-3.59.84-1.7 1.6-1.37 1.76-2.04.08-.77 1.84-3.54 3.05-1.87 4.73.36 1.76-1.4 2.65-1.13 1-1.56 2.03-1.06 1.93-2.1-.67-.77z"/>
    <path region="8" short-name="12" long-name="State Senate District 12" value="1" d="m613.48 376.46.3.8 1.37-.34 1.2.87 2.65 3.52 2.3 1 1.2.1 1.64.91.94 1.1 1.45.13.13.86 1.28 1.54.77-1.18 2.08-1.23 1.53.38 2.49-2.45 2.53-.75 2.58.57 2.27 1.61 1.58-.32 2.6-3.72 1.56.87 6.22 7.7.85.38 1.53 3.8-.7 1.93-1.77.15-2 1.57-1.03.22-1.6-.59-.27 1.42.75 5.08 1.69 2.34 1.76-1.6.82 1.58 2.29-1.01.87.98.25 2.4.95 1.56.31 2.06-2-.14-5.48-1.18-.88-.61-3.2-4.58-1.47-2.1-.17-1.87 1.87-4.18-.02-3.48-3.35-.64-.87-.42.17-1.56-2.28-1.05-.44-2.45-1.16 1.31-2.15-2.61-4.81 2.16-3.45 3.26-2.31 1.15-2.26 2.67-1.05-.72-.45 2-1.7-.22-1.13 1-1.38.33-3.6-2.82-2.25-2.45-1.4 1.67-1.54-1.35-.33-.82-2.2-1.03h-1.02l-1.03-2.36-1.28 1.1-2.13-.38-.5-1.2-1.64-2.32 1.72-1.62-2.15-.62-.78-1.44-1.19-.42-1.44.4-4.06 9-2.16 3.54-1.18 2.35-1.58-1.47-1.82.17-1.47-.57-.43-2.15-1.76-2.26.18-2.94-1.4-1.6-.4-2-.9-1.01 1.7-.77 5.73-.97 3.49-.07 1.24-.53 3.57-.57.31-1.75 2.62-.14 1.09 1.19-.42.94 1.96.72 1.88.18.86-1.04 1.05.68.88-.84 2.52 3.33 1.81-1.5.15-1.17 1.11-.98.54-1.44 1.3-1.25z"/>
    <path region="9" short-name="30" long-name="State Senate District 30" value="1" d="m633.38 479.16 1.08.27.05 1.64 2 .14 1.84-.65 2.43.3 1.7.57.78 2.27 1.47 2.16-.11.85 1.48 1.02 2.1-2.65 1.2-.97 2.05-4.3 3.4-4.68-.53-1.2-2.11-1.34-1.23-2.7-2.88-.17.9-2.37 2.12-3.44 1.96-.55.64-.81 1.64 2.67 2.55-3.18-1.87-.55-2.72-1.88-1.35.2-1.79-2.83-.53-2.5.92-.86 5.65-.32 1.46.16.37-1.54-.3-2.38 1.98-1.1 2.25-3.76 1.89-.94 2.99-.28.94-.73-2.39-3.2.83-1.7-1.18-.6.58-3.88.91-.98 2 2.28 3.68 5.69.33-.94 2.12-1.1.27-.78 2.79.47.95 2.65-.14 2.9.26.89 2.38 1.14 1.64 1.3.28 2.54 1.4 1.2.13 1.96-.4 2.71-1.8-2.04-1.04 1.04-1.37-.45-1.58.32-.9 1.1 1.35 1.47-.15 1.55.81 3.13 1.85 2.28 1.2.06 1.68 2.12-2.11 2.08-.9 1.87 1.1 3.55-.34 2.33-2.05-.13-.03-1.13L678 473l-.03-.73-2.52-2.43-1.74.53-2.68 1.64.4 2 1.72 1.26 1.18-.21.14 2.81.67 1.48.34 2.05-.3.76-6.47 6.27-3.38.1-.9.4.45 2.78-.27.94 2.76-.86 1.23.4 1.12-.58 2.63 1.92.8-1.94 1.2.43.3 1.86.72 1.61-1.33 2.5-.49 4.42-1.96 1.45-.77 2.48-3.29 1.8-.63.92.11 1.38-2.79 3.56-2.3.54-2.32 1.58.16 2.51 1.11 1.37-.74 2.67 1.08 2.7 1.86 2.2 3.3-.2.82 1.2-.48 3.33-1.64-2.52-15.3.08-2.8.11-1.58-1.69-.03-11.73-2.57.17-1.93-.75-1.85.55-.4.65-1.66.3-2.9 2.5-2.7-.11-.25 2.12-1.8-.12-1.1-1.3-.38-4.44-2.62-1.78-.41-1.69.48-1.04 1.38-.38.8-1.36-1.7-1.62.39-2.06-.88-2.84.65-.96 1.72.2 1.08-.93.14-1.14-.76-4.06.72-3 1.21-2.1-.16-1.4.85-1.54 1.11-.63 1.49-2.67.3-2.8z"/>
    <path region="10" short-name="14" long-name="State Senate District 14" value="1" d="m502.4 377.8 1.96-1.07.5.27 1.87-1.22 1.13.46 1.24-1.31 1.44-2.26 2.09.74 2.15-.15-.54-2.14.3-3.14.42-1.58 2.38-2.77 2.05-.77.67.2 1.3-1.32 1.9-.1 1.48.62 2.56.2 2.08 2.63-.48 1.37 1.36 2.11-.14.9.9 1.36 3.07.26 1.39.99 1.62-.54 2.35 1.02 2.5.71.97 1.03 1.73.7 1.78 1.97.15 1.76 2.54 1.07 1.23-.02.86 1 2 2.86-.05 1.18 2.26 1.84 1.07 1.24 1.83.88-.62 3.35 1.64.56.13 1.17-.92 2.23 1.91.85.56 1.32-.9.94.93 1.28 2.3.05 2.6.9.58.52-.84 2.1.25 1.29 2.6.45.25.68 1.67.28.56 1.72-1.23 1.43 2.24 1.29 2.32-.92 2.07-1.64.6.9 1.68.92.75 1.5 1.88.43 2.26-.43 1.97-1.16-1.3 2.07-2.93 1.72.76.96-.8 2.43-3.18 5.82-6.8 11.86-.5-2.9-1.08-1.8-3.68-1.32-.75.23-1.7-.78-.97-1.71-.83-.47-2.24-.02-3.52 2.6-2.2.03 1.4-3.09-.17-2.4-.57-2.3-1.23.11-1.21-.63-.76-1.91.72-1.67.18-2.67.58-1.11-2.43.23-1.65 1.26-1.8.88-2.92.1-.34-2.02.53-2.09-1.64-.2-1.32-1.96-1.57-3-1.77.62-.75-1.46-.21-3.12-.91-.82-.46-1.33 1-4.69-2.6-1.57-1.57-.33-3.44.84-2.46-.16-.53-2.85-1.96.05-1.24 1.13h-1.94l-.97-.73-2.94-1.26-1.41.06-1.62-1.82-3.1-1.09-2.05-.1-2.27-.63.63-4.23-.03-1.94-2.6-.19-1.18.46 1.09-1.62z"/>
    <path region="11" short-name="38" long-name="State Senate District 38" value="1" d="m830.48 663.39 1.3-2.95 3.24-.4 1.2-.73 1.1-1.84.22-2.14 1.52-.58 2 .15.3.98 2.86.77 1.33-1.05 1.48.94.11 1.24 1.5 2.38 1.4.01.76.7 1.05-.47 1.6.4 1.13-.57-.45-2.1 2.3-3.57-.23-.95 1.3-.87 1.85-.18 2.38-1.5 1.25 1 1.45.3 1.55 1.47 2.42.06 1.62 1.92 2.96 1.05 10-.6-.1-4.16.46-1.5-3.1-3.03-.62-2.6-1.41-.69-.85-1.46-1.03-.8-1.03 1.23-.65 2.76 1.11 1.67-1.58.02-2.76 1.55-.83-.5-.64-1.56-.93 1.55.87 1.04-1.64.34.3-1.73-.65-3.05-1.99 1.47-.85-.94 1.17-2.13-1.23-1.19 1.35-1.59.13-1.78.9-3.02-2.08.72-1.17-2.86 1.33-.13.5-2.1 1.03-.35 1.11 1.99 2.32.64 1.24-1.03 1.3.01 1.24.84 1.24.18.9 2.85 1.2.05.66-1.3 1.67 1.31 1.58-.65.6-.81-.76-1.53-1.06-.98-1.38-.48-.3-1.23 1.65-.55-.15-1.31 2.04-.39-.14-2.4-2.35-.06-1.4 1.26-1.96 2.42-.47 1.28-.85.17.84-3.44 1.16-2.59.7-3.11-.39-3.04-2.2-.62-.6-.75-3.57-2.73.73-1.31-.03-1.06 2.26-.4 1.53 2.25 1.74-2.45 1.75.4.84-4.11-1.05-1.44 1.3-1.52 4.95.22 13.47.4 16.09.43 10.03.16 29.59.2 15.16.06 30.78-.01-1.27 10.48-1.53 7.29-1.01 3.54-1.5 6.28-2 5.55-.93 3.36-1.89.24-2.04 3.42-4.19 12.03-1.96 6.52-4 10.52-2.47 7.44-4.55 16.58-3.3 8.7-5.02 9.8-5.94 9.93-7.18.7-27.63 3.19-8.94.93-23.27 2.53h-.4l-18.64 2.04-.5 1.52-1.32.63-.72 2.04-1.37 1.02-.65 1.77-.8.86-1.07.24-1.15 1.85-1.9-.84-1.16-1.2-1.2-.39-3.02.3-5.57-3.23.5-2.94-.72-.14-1.76 1.53.48 1.02-.2 2.5-1.18 1.16-1.93 1.15-.79-1.47-.05-1.74.72-.64-.48-2.06-2.03-.72.7 1.7-.85 1.02-1.17.33 1.69 1.71-.84.26-1.8-.55-3.17-.46-2.6-.05-1.73 2.19-2.75 2.65-1.25.14-.99-1.23.11-1.98-1.23-.25-1.2 1.85-.49 2.28 1.7 1.83.04 1.49-.57.65-2.01.1-.74 2.23-3.66 1.84-1.37.48-1.18 1.23-2.52.2-1.3.43-1.65 1.26-1.73-1.47-1.03-2.7.95-.67v-3.22l.45-1.4.26-2.53 2.72 1 1.23.1 1.5-.48 1.01-1.1-.7-1.12-.2-1.66.74-2.38-1.33-1.15-1.34.7-1.1 1.5-2.57-2.07-.72.72-1.16-.1 2.3-3.73.62-2.35.95-1.31.64-1.85 1.11-1.7 1.43-3.55-1.6-.83.78-1.88 2.99-1.09 1.57.6 1.58 2.64 1.4-1.5.67-.08.96-1.5-.18-.86 1-1.33 1.7.5 1.6-.96 1.4-1.55 1.98-.2 1.04-.82.64-1.47 2.04-1 .02-.74 1.45-2.68-1.82-.56-.83-2.15-1.02.78.06 3.32-1.21.46-1.74-.62-.13 1.55.93.54-.3 1.02-2.24-.08-2.03-1.33-1.48-.42-1.55.21-2.53-1.35-2.66.98-.9.89.27 1.6-2.73.26-.65-.73.6-2.12-.96-1.96-.03-1.2 2.63-.03-.4-2.2.61-1.65-1.03-.59.47-.97 1.2.67.98-2.22 1.7-1 1.28-1.42 1.13-.18-.15-3.57.96-.28 1.42-1.8 1.57 2.25.49-1.66 1.07-.83 1.01.32.89 1.37 1.98-2.06 1.98-.54-.16-2.38-2 .43-.38.59-2.04.5-.88-.85-2.3-1.26-3.22-.78-1.12 1.66-1.9.1-2.17 1.11-2.73-.43.68 2.2-2.63-.76.5-.77-.61-2.38-3.03-.03-1.63.72-.75.94-2.85-.71-.82-1.27-1.04-.5-1.56.5.65 1.95 1.82 1.58.24 1.58-1.85 1.29-1.86.77.56 1.99-1.62 1.53-.72-.47-.63-1.67.58-1.46-2.34-1.75-.9-1.87 1-2.7.87-4.4.9-2.54-.96-2.1 2.07-2.57 1.27-.7 2.8-.21 2.6-1.23.66-.68 3.14-.96 1.76-1.02.78 1.17 1.55.41 3.07-.73 5.18-3.3.88-1.67.97-.21.93.83 2.28-2.9-.38-1.33-1.15.48-2.25-.51-2.22-.1-1.38 1.38-.9-.74-1.17-.06-.16-.99.99-.94 4.5-3.2 3.05-1.64.5.43 1.64-.35 2.4-.03zm-43.37 86.58-10.7-.15-1.16.12-.11-7.18-.58-1.4-.08-1.86.51-.94-.12-3.02.69-1.37-.58-1.04.1-2.03 1.42-3.57 1.28.15 3.11-2 1.89-.38 1.3.88.02 1.17 1.02 2.2 3.17 1.59 1.93 4.13-.94.26-.15 1.83.63 2.59-1.57-.55-.93 1.57.05 2.61-1.07 2.35 1.6 1.33zm-13.59-40.27 1.64.43.59 1 2.43-.49-.21-1.34.4-1.55-1.63-.14-1.81-2.04 1.35-.07v-2.36l1.4-.85 2.3-.57.5-1.98 1.07-.82 1.27.76-.12 2.41-1.76 1.27-.3 2.94 1.6.79 1.67 3.41-.08 1.96.49 1.74-1.45 1.85-.6-1.34-1.92-1.98-2.46.5 1.15 1.13-.65.64-2.21-1.77-2.06-2.14z"/>
    <path region="12" short-name="17" long-name="State Senate District 17" value="1" d="m503.5 414.58.65-1.3 1.36-1.17-.23-1.89 1.07-3.1-1-.5.34-1.26 2.76.71 1.58 1.03 1.56-1.5-.74-1-2.78-2.52.49-1.36 2.08-.33 1.57.18 1.43.66.77 1.65 1.35 1.7 1.34-.05 1.09.55 1.09 2.17-.19.93 1 .68-1.57 1.27.75 2.08 4.54 3.71.9 1.96h.51l.61 2.18 1.36-.24 2.52.56.27-1.55 1.52-1.05.83 1.5 1.43.44-.17 1.45.71.76 1.42 2.86.45 2.04-.76.82-.52.35-1.66 3.9-1.25.09-2.16 1.42-3.92-.9-.5-1.6-1.33.78-1.23.33-2.37-.75.4-1.12-1.05-1-1.6-.53.52-.92-1.37-1.14-1.49-.23-.54-.88 1.29-2.7-.5-.97.98-1.97.99-2.98-1.64.9-3.43-1.53-.42 1.12-1.32.16-.55 1.52-1.66-.3-1.6-1.09-2.55-2.43z"/>
    <path region="13" short-name="1" long-name="State Senate District 1" value="1" d="m2.48 238.68 18.97-.1 41.47-.23 36.68-.2 25.77.03 26.09-.04 20.69-.04 33.26.14 6.64-.09 1.96.11 17.19-.1 5.09.1h13.12l11.24-.05 28.8.08 23.37.02 23.33.02 27.23.01 34.48.4-.44 1.47 1.08 2.13-.85.15.04 1.56-3.85.7 1.33 3.14v1.97l-.44 3.49-1.76-.8-.75.8.8 1.32-2.34 1.62-.78-.46-2.2.07.18 2.1.91.72 1.87-.22 2-1.55.57 1.6-.52.98-.08 2.23-3.18 1.84-1.35-.93-1.76 2.69 2.74.18 2.11-.94v1.5l2.24 1.55-.95 1.63.96.9-2.88 8.73-1.84-.17-2.13-1.2-2.17 3.56-12.03 2.15.89-3.64.23-2.88-.47-2.94-1.4-1.47-1.07-.33-2.4.04-3.43-1.18-1.36-.92-2.35-.43-.4.71 1.12 1.53.03 2.36-1.5.79-6.3-1.6-1.55-.6-1.22-2.65-.93-1.1-2.05-.32-.49 1.22 1.3.6.66 1.31-.21 3.97-.6 2.15-1.61.68-.83-.67-.47-1.64.3-3.28-.34-.7-2.25-.7-1.81 1.06-1.47 1.57-1.84.1-3.94-.32-2.03-1.05-2.83-5.15-1.4-1.69-1.33-2.42-2.63-2.16-.96-1.49-5.76-6.05-1.07-.67-1.7-.15-1.65-1.9-2.41-1.16-5.6-1.42-2.43-1-2.4-.04-1.8-.9-2.08-.58-2.57.14-2.18 1.76-.96 2.06-1.4 1.59-.87.19-4.63-.04-1.31.95.03.7 2.06 2.3-.86 1.7-2.34 1.39-1.95 2.14-1.66 1.37-1.83 2.81-.26 2.57-.78.84-3.65-.49-5.66-2.67-5.36-1.88-4.5-1.3-1.43.24-.1 1.2 1.13 1.4-.04.9-1.94.48-2.4-1.29-2.1.66-.11 1.75 2.37 2.9-1.3 1.21-1.22-.22-1.61-.93-1.14-1.16-5.57-2.32-2.19.21-.76 1.47.47 1.1 2.46 3.31 1.75 1.42 3.47 2.37.48 1.76-1.26 1.17-1.6.47-2.4-.74-2.16-1.64-3.36-1.3-1.8.29-1.36.82-.26 2.03.9 1.79 3.65 3.15 2.62 1.28 2.08 2.8-.6 1.22-1.58-.35-1.1-1.71-1.61.15.96 2.32-.37 1.37-1.26-.56-2.05-2.62-2.06-.3.02 1.57 2.15.54.04 1.77-2.36.15-.48 1.1.47 2.24-.44 1.5-1.3 1.19-1.24.16-1.47-.8-2.04.34-3.03-.25-4.1-1.79-1.46.04-4.22 1.07-2.37-.16-1.99.61-1.52-.85-1.25-1.23-2.15-.4-.98-1.13.11-1.49-2.39 1.4-1.04-.87-3.64-1.29-1.76.7-5.66.7-.33-.1-1.48-.5-1.07-1-1.55-.05-3.11-1.58-1.17-2.18-2.8-.77-1.41-1.8-2.63-.57-1.58-3.33-.45-3.29-1.4.29-1.4 1.78-1.22-.67-1.1.34-2.43-2-.68-2.18-1.71-1.87.28-.78 1.97-1.36 1.72-.38 2.02.01 1 1.25 1.81-1.17 1.2-1.24-.55-2.28-2.78-1.33-1.84.96-1.46 1.2-3.23-.83-.22-.79 1.31-3.65 1.02-.7.63-1.37-.11-1.32-2.12.82-1.38 2.6-2.16-.44-1.45 2.59-.98.57 1.3 3.89.02 2.12-3.03-.33-.65 3.03-1.19.91-.32 1.24-1.6.45-.08 3.36 1.41.3 1.49 2.5-.74 1.77-1.04.31-2-1.38-1.86-.57-1.27 1.43-1.58.73.04 1.71-.77 1.68-1.58 2.15-2.08.64.3 2.03-1.22 2.69-.98.4-2.55-1.11-.68.88.5.91-.39 1.8-2.83.35.37 2-1.1 2.33-1.14.86-.6 2.1-2.37-.13-1.49.24-1.96 1.52.77 2.01-1.74 2.32-1.51.73-.99-.06-.18 1.4.95 1.27-1.28.9.9 1.08-.17 2.23-1.97.53-1.05-1.42-1.96-1.56-4.08-1.83-2.96-1.78-1.59-1.73-2.48.56-1.3-.79-.67-2.64-1.7-.87-.59-1.04-1.54.95-.34 2.51-1.2-.07-.79-1.96-.99 1.15-3.3.91-1.81-.3-2.06-1.34-1.07.8.36 1.24 1.5.52.34 1.66-2.65.16-.16 1.43 1.36-.05-.13 1.78-1.23 1.58-1.39.71-.56 1.54 1.35 1.56-.37.53-2.66-.68-1.13 1.07.38 2.02-.23 1.5-1.83-.41-1.3.64.27 1.85-.6 1.5-1.36-.15.03-2.55-1.29-1.12-1.08.56.26 1.63-1.24 1.49-.45 1.4 1.03 2.63-.73 1.37-1.4-1.18-.68-1.18-1.52.19.95 1.62-1.8 1.1-1.93-1-.82.03-1.3 3.13-2.07 2.07-.5 2.12-1.36.1-2.55-.42-.28 1.44-2.11.06-1.61 1.1-1.55-.46.58 1.78.03 1.43-.85 1.08.78 1-1.32 1.4-1.76-.59-.4 1.62-2.86 2.24-.49 2.4.11 1.5-1.45 1.79-.01 1.22-2.73-.07-2.8-1.4-1.59 1.3-1-.34-1.38.33-2.7 1.86-.6.86.77 1-1.66.56-.62 2.1-1.71.9-2.54.26-1.4.64-.69 1.44-1.32-.17.08 1.14-1.23.5-1.24 2.58-1.13.7-1.96 2.91-1.87.49-.03.91-1.03.6.15 1.6-1.06 1.3-.8-.1-1.62 2.03-2.4.88-.92 1.12L6 387.4l-1.82 1.2-.15 1.04h-1.4L.17 389l.23-17.15-.32-.08.13-3.77-.21-.52.19-4.78.17-13.96h.38l.24-31.96.15-19.69.06-3.01h.79l.25-32.33.27-.57z"/>
    <path region="14" short-name="23" long-name="State Senate District 23" value="1" d="m627.19 452.39 1.19 1.1-.84 1.15-.02 2.81.64.31.1 1.85 1.09 1.7.16 1.56-.42 1.06.96 2-.26 1.31.74.8 1.69.67-.39 1.44-1.67.44 1.23 1.96 1.59 1.1-.1 1.06 2.02 1.77-1.52 2.68.23 2.75-.3 2.8-1.48 2.68-1.12.63-.85 1.55.16 1.39-1.21 2.1-.72 3 .76 4.06-.14 1.14-1.08.94-1.72-.21-.65.96.88 2.84-.39 2.06 1.7 1.62-.8 1.36-1.38.38-.48 1.04.41 1.7 2.62 1.77.38 4.43.48 2.66-1.83-.9-.05.92-5.88 2.95-2.44.78-3.08.07-1.44-.46-.16 1.03-.96 1.09-1.82-.04-2.15-1.35-1.8-.22-1.57-.8-2.72-2.02-1.96.29.95-1.85-1.75-1.26-1.81-.86-.1 2.57-3.1-.51 1.17-2.98 2.35-1.75.18-3.13-2.9-4.02 1.54-2 2.22-1.74.51-1.2-.2-2.81 2.2.86 3.84-.65 2.13.45 2.78-.35.85-.87 2.01-.92-1.3-1.96 1-.39-.23-1.25-1.14.16-.57-2.02 1.64-.36 1.33-1.23-1.06-1.03.46-.78 2.4-.76 1.03-5.57-.19-.61-3.4-.41-1.1-.68-2.7.14-.02-1.1-1.14-3.5-1.63-2.26 2.53-2.08.46-1.22 1.28-.65.8-1.84 1.89-.25-.08-.85-1.74-.08-1.99-.71-3.46 1.62-.33-3.57 1.25-1.07-.02-1.73 4.56-.48-.26-.85.25-3.45 1.13-.12 1.13 1.06 1.57-.24-.37-1.34-2.36-.35-.04-.86 2.07.24-.36-1.1-1.68.56-1.75-.05-.1-1.29-1.15-1.6 2.23-.2 2.79-.62-1.14-.78-1.19-3.52-.82-1.07-2.3.97.1 1.12-2.16.88-1.63.18-.45-2.26 2.6-1.98-.83-.62 1.74-1.62h-2.7l-1.66.38-1.05 1.2-.66-.5-2.16-1.54-2.11-2.35-.82-1.44-1.84-2.17-1.49-.3-1.39.2.77-1.61-.7-2.38-1.8-.75 1-1.28-3.25-.76-2.18-.98-.4-1.17 3.92-3.37 1.53.66.7-1 1.59-.16 1.09.97.45 1.45 2.32-.07 1.13 1 2.08 1.15 1.52.24 1.48-.44.72 2.05 1.14.24.7 2.43 1.13.45.87-.47 1.62.27 3.43 2.88.97-.69 2.1 1.26 1.02 2.82-.3 1.9 1.43 1.34 1.02 1.52 1.04.06 1.12.84.62 1.3 2.79 1.82z"/>
    <path region="15" short-name="27" long-name="State Senate District 27" value="1" d="m576.86 520.57-.13.93 3.07 1.48 2.48-2.7 1.8-.66-.68-2.89 3-.88 1.3 3.24-.1 1.92 1.3.46.28 1.13 1.13 1.28 1.68 1.17 3.03-2.81 3.09.51.1-2.57 1.8.86 1.76 1.26-.95 1.85 1.96-.3 2.72 2.04 1.58.8 1.79.21 2.15 1.35 1.82.04.96-1.1.16-1.02 1.44.46 3.09-.07 2.43-.78 5.88-2.95.05-.91 1.83.89-.48-2.66 1.1 1.31 1.8.12.25-2.12 2.7.12 2.9-2.51 1.66-.3.4-.65 1.85-.55 1.93.76 2.57-.18.03 11.73 1.59 1.7 2.79-.12 15.3-.08 1.64 2.52-.67 1.8-.28 1.97.03 6.15 1.75 9.35 2.05 4.79.09 1.62.87 2.3-1.14 7.36-.2 4.93.48 5-.54 4.79.4 2.93 2.18 7.02 3 6.26 1.97 2.51 2.35 2.21 4 4.38 1.1 2.53 3.3 2.59.87 1-1.61 1.03-1.46-1.14.53-1.17-2.02-.45-1.21.4-1.9.02.18 1.27-1.68 1.55-1.62-.61-.75.25-.68 1.54 1 1.63-.46 1.25.6 1.93-.26 1.37-.71.43-.08 1.34-1.55.88-.48-.47-2.83 4.03-2-1.2-1.8-2.5-2.12-2.13-4.36.79-1.47-.66-.89-2.5-3.31-1.51-2.94-2.18-1.32-1.32-2.45-.29-1.26-1.56-.55-1.36-1.86-2.6-2.2-2.25-4.48-3.95.5-2.46-1.85-3.92-1.27-2.02-1.84-1.5 2.5-7.78-1.54-1.75-1.9-.77-2.6-.65-.6-1.02-1.95-1.01-2.6-.9-.55-.57-1.83-.47-2.26-1.74-1.39-.22-1.91 5.34-3.26-.48-2.1 1.54-7.44 2.13-1.5-.51-1.73.1-.93 1.12-1.13.23-2.18 1.09-.72-.22-.2-1.99-3.18-.51-1.23-3.11-1.27-1.98.53-1.33 2.34-2.12-1.56-1.97v-4.02l-.19-.93-1.4-2.13-2.04-1.04-.97-.08-2.5.85.25-1.4-.56-1.32 2.81-3.48-3.87-1.5-4.2-2.91.8-1.29-.54-1.24.67-4.15-3.15-.55-2.72.07-1.58-1.25-1.79.14-2.9-.74-1.57-3.1.67-1.57 1.08-.99-1.44-2.56-1.08-.98.57-1 .16-2 3.3-1.34 1.35-.08.65.67 2.15-.69 1.08-1.38.6-1.51 1.76-1.19.95-2.19-1.6-2.27-.66-2.84z"/>
    <path region="16" short-name="5" long-name="State Senate District 5" value="1" d="m492.27 262.35 2.51 2.82 3.21-.21-.45-1.46 1.79-1.67-.98-1.5.7-1.3 1.43-1.03-.1-1.85 1-1.1 1.43.57.36-1.35 1.11.1 1.38-.72 1.96-2.24-.33-2.23-1.91-2.07.32-.8 3.84.34 1.84-.73.58-.84-.77-1.1-1.28-.45-.32-1.56 2.32-.93-.36-2.05 35.62-.03 13.43.08 14.13-.25 8.8.09 13.47-.06-.32 1.03-1.28-.39-1.66 1.28-.43 2.02-.66-.12-2.58 1.96-2.86 4.13-1.45 1.35.45 2.93 3.09 2.14-1.14 1.06 1.08 1.72-.8 1.21-1.83 1.27-1.85 2.9-1.8-.24.7-1.34-1.05-1.76 1.32-1.02 1.23-2.63-2.4.05-.59-2.18-4.46 3.42-.69-.76-1.47-.19-1.66-2.26-1.6 1.54-1.88-.8-1.27-1.7-1.59-1.15.18-1.73-1.14-1.3-1.11.49L564 252l-.02 2.24-1.3 2.57-1.31.25-3.12-1.69-2.3-.93-1.42.57-.25.82 1.21 4.67-.38 1.26-3.47-1.33-1.73.85.05 3.47-2.64 8.6 2.27 1.62 1.99.51 1.74 1.43 1.14.1 1.27-1.71 2-1.68.68-1.71-2.35-.15-1.05-.92 1.49-1.28 1.01-1.43 3.5 1.7 1.45.24.33 1.86-1.98.68-.18 2.41.8.1-.12 1.95 3.54 1.5.97-.13 3.84 2.96 1.85.82 1.57 1.18-1.51 1.4-1.63 3.33-2.8 3.73-.65 1.7-1.5.57-2.36 2.24.5.9 2.53 1.73.6 2.46.17 4.52.6.64 1.94.36.16-.99 2.57-1.73-.08-1.31.77-1.54 1.62 1.6.38 1.29 1.3 1.34.48 1.78-.38 2.72-.65.27-1.64 2.02-1.6-1.66-1.09 2.15.08 2.03-.61 1.49 1.2.86 2.81 2.85.6-.1 1.34-1.73 1.82.26 1.12.84 6.66 1.27-1.17.7-.46 1.04 2.95 5-.25 2.5-.43 1.23 1.15.67-1.4 1.37 1.26.8.2 2-.67.12-2.1 1.57.54 3.4.92 1.62.64.19.52 2.18-.57 1.94-1.86-.87-1.66.45-1.78-.73-2.47 1.02-2.83-.96-1.01-1.1-1.7.07-1.73-.84-.3.7-2.7-.04-1.5-1.67-1.22.7-3.38.02-1.83 1.57-2.61.33-3.03 1.19-1.8-.16-.67-1.16-2.74-1.38-1.29.27-1.99-.2-1.06-.63-2.11-.2-.76-1.03-1.87-.52-3.76-.32-1 .66-2.16.1-4.28 1.82-2.12 2.62-1.43.72-3.74-1.53-.38-.33.48-2.44-1.15-.66-1.38-.09-.14-3.72 1.46.34.85-2.75.84-.85.53 1.8 1.56.27.41-2.45 1.36-4.08.27-4 1.51-1.5 1.58-2.4 1.52-3.34.65-2.23 1.75-2.59-.88-1.53.51-3.8 1.69-2.16.75-1.65-1.26-1.7-3.9-3.52-.85.3-1.02-2.2-.1-1.3-2.57-.42-.55-3.08-2.2.01-1.48-.38-.62-1.6.55-.9-.62-1.26.48-.94-1.23-2.93-1.33.05-1.37-.95.02-1.09-1.69-1.62-1.27-1.86-2.47-.08-1.03 1.27-1.45-.55.67-1.04-.77-.92-1.68-.1-1-1.35-.98-.27-2.17-1.78-.55-1.9-1.28-.64-.82.37-.8 2.26-1.62-1.89-.15-1.46-3.2-.44-.44.94-1.8-2.01-.91-.26-1.72-2 1.26-.6.28-1.17-1.08-.37-.95-1.27-.36-2.62z"/>
    <path region="17" short-name="29" long-name="State Senate District 29" value="1" d="m633.86 593.34 1.84 1.5 1.27 2.03 1.84 3.92-.5 2.46 4.48 3.95 2.21 2.24 1.86 2.6.55 1.37 1.26 1.56 2.45.3 1.32 1.3 2.93 2.19 3.32 1.51.9 2.5 1.46.66 4.36-.79 2.13 2.14 1.8 2.49 1.98 1.2 2.84-4.03.48.47 1.55-.88.08-1.34.7-.44.27-1.36-.6-1.93.45-1.25-.99-1.63.67-1.54.76-.25 1.62.6 1.68-1.54-.18-1.27 1.9-.01 1.21-.4 2.02.44-.53 1.17 1.46 1.14 1.6-1.04 3.84 4.4.42 1.54 1.34 1.83 1.14 2.46 1.73 1.44 2.92.86-2.03 3.26.88 3.96-4.04 5.8-3.22 5.22-.49 1.14-1.24-1.1-2.51-.72-3 .58-1 1.93-1.41-2.43-1.4-1.13-1.47 1.96-.35 2.46 1.24 1.28 1.58 2.82 1.04 1.39 3.9.8 2.85-.8 1.2-1.8.27-1.17 3.1.08 2.98-1.2 3.2 1.59 1.47 1.06-.36 1.4-2.37 2.57-1.59 2.12-1.05 3.22-.1 2.21 3.16 11.92 5.27 7.36 1.05 2.66.83 1.33 4.32 5.3 1.35 3.06.6.39 1.25 2.65-3.08 3.65-1.58 2.63 2 4.82.5 7.78 1.79 6.5.21 1.75-2.1-2.18-1.64-.66-3.45.1-.53-1.06-1.38-.77-1-2.11-1.38-3.62.04-.62-2.84-2.92-1.45-.6.18-1.08-.55-1.46-2.94-1.16-1.76.02-.76.7-1.05-.46-.96-2.46-1.12-1.36.05-1.9-1.65-2.89.47-3.01-1.36-1.26 1.45-1.12-.86-1.69-2.52.46-2.6 1.3-1.82.38.2 1.23 1.7 2.79-.14 2.28-1.79 3.47.02 1.07.75 1.18.2 1.37-1.75 1.02-1.02-1.66-.73-2.01-3.9-5.24-.85-1.35-1.5-.53-2.19-.06-2.56 1.96-.7-3.59-.55.06-1.12-1.88-1.11-3.55-.45-2.95-1.27-3.3-1.62-1.95-2.8-2.76-1.81-1-2.26-2.04-6.53-2.46-2.91-.82-3.33.15-1.23-.36-1.6-1.2-3.06-1.1-2.36.08-.75-.4.03-1.67-2.68.19-1.32 2.02-3.37.14.14-1.36-.67-.9-2.22-1.43-.89.94-.91 2.15-1.04.77-.03 1.37-1.69 1.62-2.62-1.11-3.31-.7-.05-1.72.7-.34-.46-2.1-1.74-.74v-1.1l-1.15-.56-2.3.4-1-1.07-.1-2.5-.75-1.9 1.55-2.22-.05-1.15-1.06-1.35-1.38-.39-.19-1.3-2.57-3.34.54-1.76-1.26-1.28-1.45-5.84-1.47-.83 1.71-1.36.94-.11.62-1.58-4.68-2.32.11-1.25-.58-1.72-1.87-1.7-2.94-1.7-.69-1.42.65-2.12 3.37-1.36 1.4-1.05.49-2.23 1.87-1.43 1.11-1.98 1.2-.91 1.55-2.09.56-1.92 5.06-10.6 3-5.92 2.2-4.76 1.75-1.23 3.35-.13.9.36 4.82.2 3.56.68 1.25 2.23 1.35 1.31 3.31.6z"/>
    <path region="18" short-name="10" long-name="State Senate District 10" value="1" d="m585.84 320.7-.28-1.64 1.51.06-.47-1.37-2.05-1.37 1.65-.33-1.42-1.57 1.14-.42.55-1.07.27-2.29 1.44-.56.47-1.56 1.24-.13.62-1.5-.48-.54.45-3.34 2.18-8.67 2.16-2.46 1-.42 1.19-1.72-.4-1.37.48-1.83 3.26 1.48 2.68.58 1.58 1.68 2.33.62 1.73 1.63 1.95 2.95.63 1.53 1.94-.04 1.08-.43 2.38-.04 3.64-2.34 1.41-1.27 1.32 2.7 3.02 7.88.06 1.03-4.55.25-2.52-.18-.91 1.27-1.93-.11-1.8 1.34-1.03 3-1.48-.51-2 2.34.04 1.8-1.45 4.21.8 1.93-.94 1.36-3.2 1.84.95.7-1.11 1.73-1.27.97-.3 1.58-1.6 2.38.85.5-.58 2.21 1.28 1.57-.91.94 1.07.74 3.25 1.08 1.18.11.53-1.65 2.86-.61 1.98.71.5.68-1.35 1.57.41 2.99 2.05.97-.8 1.46 1.08 1.2-.33 1.04-1.53 1.4.28 1.7.69 1.22.5 2.65.07 2.72 1.45-.54 1.6.13.2 4.64-3.53-.43-2.61 2.09.62 1.76 1.23 1.72-.94 1.43-.62 1.96.3 1.1 2 1.66 2.1-.32.19 1.23 1.15-.16.28 1.31 1.5-.52 2.13 2.24 2.2 3.35 1.13.35 1.44 2.05 1.48 1.3.6 1.26-2.12 2.14-.13-.86-1.45-.13-.94-1.1-1.64-.9-1.2-.12-2.3-.99-2.64-3.52-1.21-.87-1.37.33-.3-.8-1.61-1.76-2.3-.92-1.58-1.62-1.25-.8 2.1-4.72-.05-2.4 1.54-1.13-.13-.63-1.89-.9-1.46-1.91.35-1.36-.5-.82-2.21-.71-1.27.43-1.03-.77-.93 1.27-1.01-1.6-3.7 1.1-.96-.85-1.2.66-.99-.46-.39-1.67-1.58-1.92-.93-.55-1.9-.13-.75-1.2.73-1.02-.67-.73-.94-2.3.57-1.95-.52-2.18-.64-.2-.92-1.62-.53-3.4 2.1-1.56.66-.11-.2-2.01-1.25-.8 1.39-1.37-1.15-.67.43-1.22.25-2.5-2.95-5 .46-1.04z"/>
    <path region="19" short-name="33" long-name="State Senate District 33" value="1" d="m624.19 422.05-.78-1.16-.42-2.57 1.8-.62.55-1.41 2.76 1.26-.25 1.22 3.27.36 2.09 4.2.24 1.85-1.93.92 1.63 1.77 2.91 2.24.33 1.02 1.32 1.07 1.9-.08 3.33.88 1.37-1.5-.6-1.75-.01-2.1 1.54-3.93.8.25 2.26-1.23 1.93 1.46 3.72.67 2.85 1.15.07-1.82.58-2.19-.42-1.07 1.33-.96 7.26 10.37.26-.93 1.5-1.78 2.14-.26 1.41-.72 5.43 2.18 7.43 1.62 3.8 1.95-.74 1.07 1.73 1.7 3.94 2.34 1.95 1.64 1.65 3.08.74 2.88-2.62 1.73-1.77 1.53.16 1.3-1.95.68.2 1.57-1.4-.14.7-1.3.05-1.56-1.66-.56-.72 1.39-3.34.86-1.4-1.2-.28-2.55-1.64-1.3-2.38-1.14-.26-.9.15-2.9-.96-2.64-2.79-.47-.27.78-2.12 1.1-.33.94-3.68-5.7-2-2.27-.91.98-.58 3.88 1.18.6-.83 1.7 2.39 3.2-.94.73-3 .29-1.88.93-2.25 3.76-1.97 1.1.29 2.38-.37 1.54-1.46-.16-5.65.32-.92.86.53 2.5 1.8 2.83 1.34-.2 2.72 1.88 1.87.55-2.55 3.18-1.64-2.67-.64.8-1.96.56-2.12 3.44-.9 2.37 2.88.17 1.23 2.7 2.11 1.33.53 1.22-3.4 4.66-2.05 4.3-1.2.98-2.1 2.65-1.48-1.02.1-.85-1.46-2.16-.78-2.27-1.7-.56-2.43-.31-1.85.65-1.99-.14-.05-1.64-1.08-.27 1.52-2.68-2.03-1.77.1-1.06-1.58-1.1-1.23-1.96 1.67-.44.39-1.44-1.69-.66-.74-.8.26-1.31-.96-2.01.42-1.06-.16-1.55-1.09-1.71-.1-1.85-.64-.31.02-2.81.84-1.15-1.2-1.1 1.8.6 3.31-1.9-3.86.02-.64-1.37 1.2-6.54 2.98 2.16 1.47-1.48 2.71 1.33 1.23-2.01-.97-2.91-2.03-1.11-1.03 2.24-3.38-2.1.1-1.91.97-2.27-1.1-.58-1.46.91-1.8-1.3-1.86-.74-.52 1.42-2.51-.2-1.26-2.62 3.13-2.63 1.47-.58.9-1.88-.68-1.2 1.26-2.15-1.72-.26z"/>
    <path region="20" short-name="15" long-name="State Senate District 15" value="1" d="m457.05 384.82.94-.39 13.14-7.66 16.1-9.65 1.14 1.93 1.31 1.18.5 1.52 3.06 5.3 1.79.2 2.8 2.57 1.52-.64 1.42-1.62 1.63.24 1.95 2.46-1.1 1.62-1 1.34-.3 1.26-1.73 1.73-2.2.37.84 2.22 2.14 2.42 1.36 3.05.73 1-2.73 1.53-2.71 4.21-2.14.88.26.85-1.69 1.81-1.58.69-1.43 1.12 4.26 3.7 3.34 2.72 2.33 2.29.52-.44 1.98-.05 1.43.6 2.55 2.43 1.6 1.1 1.66.29.55-1.52 1.32-.16.42-1.12 3.43 1.54 1.64-.9-.99 2.97-.97 1.97.48.97-1.29 2.7.55.88 1.49.23 1.37 1.14-.52.92 1.6.54 1.05.99-.4 1.12 2.36.75 1.24-.33 1.57.77.86 2.64 2.06 5.16-.26 2.24-2.35-.42-2.1-.05-1.6.4-2.34-.5-1.63.03-2.08-.97-2.21.5-.62 2.07-2.04-1.8-.88-1.39-1.02-.03-3.14-1.7-1.8 2.36-1.56-.9-4.37-1.2-4.15-3.6-1.78-.86-3.13-.79-3.01-1.62-2.7-1.5-7.85.49-1.13-.44-1.26.24-3.04-.82-1.22.09-4.18-.7-3.2-1.08-3.48-.54-2.2-1.1-1.55-2.94-1.7-4.04-1.98-2.6-2.06-1.1-4.6-1.6-1.03-.68-1.04-2-.5-2.76-.12-2.6.55-.64.82-3.66 1.08-2.86 1.3-2.2 1.24-1.04 4.32-1.05 1.66-1.02.8-1.68-.2-2.06.52-1.85z"/>
    <path region="21" short-name="42" long-name="State Senate District 42" value="1" d="m597 238.82 27.52-.15 32.92-.03.35 10.55.12.26.11 8.63.38 11.79 1.3 4.92 1.4 2.41 1.21.36 1.48 3.85.2 1.74 1.83 2.2.27 1.8-.25 3.33 2.96 2.13.56 2.2.9.04.44 1.3 1.27-.14 1.62.68-1.17 1.2-1.34 2.15 1.41 1-1.05 1.14-3 1.4-1.18 1.03.8 2.14 1.44-.14 2.22.57.88 11.44-3.94 2.31-1.66 1.6-1.25-1.77-.05-2.72-1.84-1.47-1.1.16-2.75 2.5.03 1.7 1.12.43-1.84 3.72-1.64 2.08-1.33.82.7.87 1.89-.4-.7 3.12-.7.28-2.3-2.08-1.5-1.2-1.61-.24-1.68.35-.78 1.37-1.83.83-1.83-.9-1.3 2.01-.28 1.83.17-1.17-1-.92-3.22.13.2-2.74.55-.45 2.57-.09.3-1.21 1.85.96 1.44-.71-2.67-7.03-.84.35-1.12-2.68 1.19.08-1.18-3.55 1.04-.7-.55-1.84.12-1.43-2.3-1.1-1.75-5.12-.07-1.48-1.93.43.02 1.08-2.76.18-2.48-.85-1.46.8-1.78-.41-2.67.21-.06-1.03-3.02-7.87-1.32-2.7-1.4 1.26-3.65 2.34-2.38.04-1.08.42-1.94.05-.63-1.53-1.95-2.95-1.73-1.63-2.33-.63-1.58-1.67-2.68-.58-3.26-1.48-.48 1.83.4 1.37-1.2 1.72-1 .42-2.15 2.46-2.18 8.67-.45 3.34.48.53-.62 1.51-1.24.13-.47 1.56-1.44.56-.27 2.29-.55 1.07-1.14.42 1.42 1.57-1.65.32 2.05 1.38.47 1.37-1.5-.06.27 1.63-6.66-1.27-1.12-.84-1.82-.26-1.33 1.74-.6.1-2.82-2.86-1.2-.86.6-1.49-.07-2.03 1.09-2.15 1.6 1.66 1.64-2.02.65-.27.38-2.72-.47-1.78-1.31-1.34-.38-1.29-1.62-1.6-.77 1.54.08 1.3-2.57 1.74-.16 1-1.93-.37-.61-.64-.18-4.52-.59-2.46-2.52-1.73-.51-.9 2.36-2.24 1.5-.58.66-1.68 2.79-3.74 1.63-3.33 1.5-1.4-1.56-1.18-1.85-.82-3.84-2.96-.97.13-3.54-1.5.12-1.95-.8-.1.18-2.4 1.98-.68-.33-1.87-1.45-.23-3.5-1.7-1.01 1.42-1.49 1.28 1.05.93 2.35.14-.69 1.7-1.99 1.69-1.27 1.7-1.15-.09-1.74-1.43-1.98-.51-2.27-1.61 2.64-8.6-.06-3.48 1.74-.85 3.47 1.33.38-1.25-1.2-4.68.24-.82 1.43-.57 2.29.93 3.12 1.7 1.3-.26 1.3-2.57.03-2.23 1.47-2.26 1.11-.48 1.14 1.3-.18 1.72 1.59 1.16 1.27 1.69 1.87.8 1.61-1.54 1.66 2.26 1.47.2.7.76 4.45-3.43.6 2.18 2.4-.05-1.24 2.63-1.32 1.03 1.04 1.75-.68 1.34 1.79.24 1.85-2.9 1.84-1.27.79-1.21-1.08-1.71 1.14-1.07-3.09-2.14-.45-2.93 1.45-1.35 2.86-4.13 2.58-1.96.66.12.43-2.02 1.66-1.28 1.28.4z"/>
    <path region="22" short-name="26" long-name="State Senate District 26" value="1" d="m551.35 510.92.3-1.82 8.48-8.63 4.93-4.71 3.96-4.08.86-.88 2.95 4.99-.56 1-1.8 1.6-.96-1.25-1.55.78-.52 2.29 1.39 1.95-2.37 2.78 1.65.38 1.67-.07 1.92-2.04.29-1.51 3.96-.46.9-2.45 3.5-2.04 3.55-.5.33.22-.13 3.47 1.26 1.15-1.12 1.27-.6 1.6-1.49 2.19.46.85-.72 2.38-.87.66-3.02 1.12-.49 2.67-.62 1.7-1.59-.06-1.02 1.02-.79 2.13 3.37 1.95-1.1 1.24.66 2.84 1.6 2.27-.95 2.2-1.76 1.18-.6 1.5-1.08 1.4-2.15.68-.65-.67-1.34.08-3.3 1.34-.17 2-.57 1 1.08.98 1.44 2.57-1.08.98-.67 1.57 1.57 3.1-1.14.74-.98-.07-2.85.65-.42-.2-3.14 1.27-1.3.22-1.74 1-2.25 4.28-2.15 1.05-.39 1.17-1.4 1.67-.9-.16-1.72-5.46-4.67-15.71-1.73-3.44 1.42-.86.43-1.28 1.4.97 4.2.05 1.58-1.3.66-1.33.4-2-.18-4.43z"/>
    <path region="23" short-name="7" long-name="State Senate District 7" value="1" d="m657.44 238.64 26.52-.01-.07 1.74.36 7.66.52.81-.44 2.98.26 1.94.82 1.48-2.53 2.6-1.49.65-1.38 1.58-.54 1.7.25 1.39-1.24 3.93-.43 3.85-.01 2.07 1.2 4.97 1.3 1.93 1.47 4.31 2.3.5.67 1.86.36 2.63.9.84-1.04 3.88 7.43 3.81 1.28 1.2 1.26-1.28 1.7-.55 1.56-1.03.67 1.08 1.55-.13 1.02.44 1.2-1.53 2.4.46 1.15 1.2 1.47 3.19 3.28 2.86.9 1.92-.46.66.34 2.36-.67.68.82 1.59-.7 2.76 1.03.94 1.69 4.98 1.35.5.3.98 1.57-.06.16.75-11.9 2.34.29 1.76-1.05-.15-.86 1.38 2.68 2.22 1.43 1.54-.81 2.05v1.3l-2 .08-.06 2.46-.42 1.24 1.25.29.8 1.53 1.4-.14 1.4.67-.73 3.91-.91.64 1.36 2.3 1.06 2.95-2.42-.19-1 .33.04 1.5-.75 1.36 2.35 1.02 1.98.53-.13 1.14 1.07 1.5-1.55.17-.89.91-1.64-.82-1.84.57-.05-1.08-2.17-1.7-1.26.3 1.47 2.57-1.5 2.24-2.06 1.62-1.07-.96.78-1.16-.54-.75-1.7.11-.97.59-1.61-1.55-1.34-.11-.47 1.23-2.79-2.18-1.35-2.45-1.86-1.42-.3-1.3-.21-.72 1.08-1.77-.37-3.45 1.6-1.42-1.69-1.49-1.85-2.13-2.01-1.18 1.9-2.28-2.06-.59-.7.27-2.59-.57-1.11-1.94.1-1.44 1.5-3.74-2.4-.83v1.57l-.57.6-3.25-1.22-.38 1.81 1.21.07.96 1.47-1.37.95-2.56-.24-.37 1.18-1.47.16.02-1.22-2.43.06-2.37-1.05-.23-1.43.54-.7-1.88-.94-1.25 2-1.4-.41-.9.56-2.12-.47.7-3.13-1.89.41-.69-.87 1.33-.82 1.64-2.07 1.84-3.73-1.12-.43-.03-1.7 2.75-2.5 1.1-.15 1.84 1.47.05 2.71 1.25 1.78 1.66-1.6 3.94-2.32-.88-11.44-2.22-.57-1.43.14-.8-2.14 1.17-1.03 3-1.4 1.05-1.14-1.4-1 1.33-2.14 1.17-1.2-1.62-.69-1.27.14-.44-1.3-.9-.04-.56-2.2-2.96-2.12.25-3.34-.27-1.8-1.83-2.2-.2-1.74-1.47-3.85-1.23-.36-1.4-2.4-1.29-4.93-.38-11.8-.11-8.62-.12-.26z"/>
    <path region="24" short-name="25" long-name="State Senate District 25" value="1" d="m572.83 495.79 2.35.53.1-1.9 1.2-.6 1.43-1.87 3.38-.68 1.05-.43.04-1.8 3.61-.66.34-2.31-1.39.76-.6-.39-.46-2.22 1.04-2.13-.3-.7 9.31-1.03.9-.33-.71-2.46.12-1.84 1.86.9-.12 1.61.67 1.04 2.4-1.22 4.19.43 1.45-.69-2.24-4.04-.4-1.73 2.68-.38 1.5 4.7.84 1.16 1.63 2.27 1.14 3.5.02 1.1 2.7-.14 1.1.68 3.4.4.2.62-1.04 5.57-2.4.76-.46.78 1.06 1.03-1.33 1.22-1.64.37.57 2.02 1.14-.16.23 1.25-1 .39 1.3 1.96-2 .92-.86.87-2.78.35-2.13-.45-3.84.64-2.2-.85.2 2.8-.5 1.21-2.23 1.74-1.54 2 2.9 4.02-.18 3.13-2.35 1.75-1.16 2.98-3.03 2.8-1.68-1.16-1.13-1.28-.27-1.13-1.3-.46.08-1.92-1.3-3.24-2.99.88.69 2.89-1.81.66-2.48 2.7-3.07-1.48.13-.93-3.37-1.96.79-2.12 1.02-1.02 1.6.06.61-1.7.49-2.67 3.02-1.12.87-.67.72-2.38-.46-.84 1.5-2.19.59-1.6 1.12-1.27-1.26-1.15.13-3.47-.33-.21-3.56.5-3.48 2.03-.9 2.45-3.97.45-.3 1.52-1.92 2.04-1.67.07-1.64-.39 2.37-2.77-1.39-1.95.52-2.3 1.55-.77.95 1.25 1.81-1.6z"/>
    <path region="25" short-name="9" long-name="State Senate District 9" value="1" d="m487.23 367.12 5.32-3.1 7.6-4.77 1.34-.7 9.96-6.06 11.13-6.57 3.74 1.54 1.43-.73 2.13-2.62 4.27-1.82 2.17-.1 1-.66 3.75.32 1.88.52.75 1.02 2.1.21 1.08.63 1.98.2 1.29-.27 2.74 1.38.68 1.16 1.79.16 3.03-1.19 2.6-.33 1.84-1.57 3.38-.01 1.22-.71 1.5 1.67 2.7.03.3-.7 1.72.85 1.7-.08 1.02 1.1 2.83.97 2.47-1.02 1.78.73 1.66-.45 1.86.87.94 2.31.67.73-.73 1.01.75 1.2 1.9.14.93.55 1.58 1.92.4 1.67.97.46 1.2-.66.97.84 3.7-1.09 1 1.6.94-1.27 1.03.77 1.27-.43 2.2.71.5.82-.34 1.36 1.46 1.92 1.9.9.12.62-1.54 1.13.05 2.4-2.1 4.73 1.25.79 1.58 1.62 2.3.92 1.61 1.77-.95-.26-1.3 1.24-.54 1.44-1.1.98-.16 1.18-1.8 1.5-2.53-3.34-.88.84-1.05-.68-.86 1.04-1.88-.18-1.96-.72.42-.94-1.09-1.2-2.62.15-.31 1.75-3.57.58-1.24.52-3.5.07-5.71.98-1.72.76.9 1 .4 2 1.42 1.61-.18 2.94-5.4 1.12-1.05 1.98 2.75 1.4-1.61.77-1.74 3.13-1.32.32-.22 1.94-2.12-1.96-.63-1.2-1.9-1.9-1.54-.87-1.3-3.08-1.02-1.14 1.68-5.87-.53-2.74-2.9-2.88-1.24-3.53-2.54.72-.5 1.7-2.73 1.7-1.5-1.12-.5.8-1.75.64-.85 1.14-.86-1.01-1.23.02-2.54-1.07-.15-1.76-1.78-1.97-1.73-.7-.97-1.03-2.5-.7-2.35-1.03-1.62.54-1.4-1-3.06-.25-.9-1.35.14-.9-1.36-2.12.48-1.37-2.08-2.63-2.56-.2-1.48-.61-1.9.09-1.3 1.31-.67-.2-2.05.78-2.38 2.77-.42 1.58-.3 3.14.54 2.14-2.15.15-2.09-.74-1.44 2.26-1.24 1.3-1.13-.45-1.87 1.22-.5-.27-1.96 1.07-1.63-.24-1.42 1.63-1.52.63-2.8-2.57-1.8-.2-3.05-5.3-.5-1.52-1.31-1.17z"/>
    <path region="26" short-name="47" long-name="State Senate District 47" value="1" d="m559.86 458.8 1.9-2.84 1.64-.47.47-2.98-1.42-1.51 5.61-9.8 2.48-1.23 1.23 1.39.34 1.4-2.4 4.79-1.17.5-1.57-.6-1.03 2.9.92.35-1.04 2.07.55.67 2.14-.24.45 1.44-.77.94.26 1.66 2.36.28-.78-1.87.99-.19.84 1.72.19 1.38-2.48-.2-.8.76-1.62.48.9 2.05 1.87 1.98 1.05.1 2.19 1.32.76-.55 1.45.74.85-.44 1.61-2.65 2.91.13.03 2-.37 1.25.88.85 1.59-1.5 2.62-1 1-1.27 1.3-.14 1.17-.79 1.1.88.82-1.26 1.44 3.27-4.12.44-4.39 4.08 2.1.95 1.34-.22 1.48.38-1.04 1.9 1.67.03.37 1.83-3.32.1-1.65.93-1.9 2.14-2.3.74-.18-1.77-2.69.5-4.16-4.22-11.26-11.19z"/>
    <path region="27" short-name="2" long-name="State Senate District 2" value="1" d="m372.39 283.25 12.03-2.15 2.17-3.55 2.13 1.19 1.84.17 2.88-8.72-.96-.91.95-1.63-2.24-1.56v-1.49l-2.11.94-2.74-.18 1.76-2.69 1.35.93 3.18-1.84.08-2.23.52-.99-.58-1.59-1.98 1.55-1.88.22-.91-.72-.18-2.1 2.2-.07.78.46 2.34-1.62-.8-1.33.75-.8 1.76.8.44-3.48v-1.97l-1.33-3.14 3.85-.7-.04-1.57.85-.14-1.08-2.13.44-1.48 33.18.17 23.71.09h56.8l.36 2.05-2.32.93.32 1.56 1.28.45.77 1.1-.58.84-1.84.73-3.84-.34-.32.8 1.9 2.07.34 2.23-1.96 2.24-1.38.72-1.11-.1-.36 1.35-1.43-.57-1 1.1.1 1.85-1.42 1.03-.71 1.3.98 1.5-1.8 1.67.46 1.46-3.2.2-2.52-2.81.1-4.18-2.95-.13-.72-1.57-2.67.35-1.76-.53-1.92-1.1-1.57 1.1-2.13.74 1.16 1.84-1.21 1.52.34 1.13-.64.72-.42 1.73.34.73-.27 2.14 1.59 3.33-2.6.27-2.2.9-1.56-.82-.88 1.19-1.15.45-1.05 1.67-1.1.3-1.34-1.04.21-2.02-1.6-.1-1.87-1.3v-1.5l-2.58-.25.03-1.39-1.49-.27.13-.93-1.28-.98-2.36.6.19-4.31-1.33 1.05-1.3.05-.43-1.06-1.05-.5-2.06 1.37-2.14-1.45.7-1.04-.2-1.12-1.01-1.43-1.44-.45-1.7 2.2-.26 1.25-1.56 2.7-1.26.92-1.04 1.71-2.33-.54-1.74.68-.53 1.73-4.37 1.55-1.25 3.01-.5 3.2-1.48 5.02-.5 3-1.63 2.17-.44 3.74-.79.41.39 2.6-1.89 1.2-1.67 2.35-.3 1.9-.74 1.04-1.01 3.21-.1 2.1 1.94 2.59-1.71 2.86.9 2.02.42 1.88-1.26 1.29-.02 1.25-1.12.75-.55 2.48-1.03.52-.72 2.42-.29 2.4.13 1.6-.72 2.94.17 3.25-2.56 8.3-2.06 3.5-1.4 3.6-1.48 1.9-.4 1.8-.42 4.07-1.04.12-1.22 1.1-2.33.36-2.3-.85-2.67.07-1.77-.1-1.72-1.56-4.68-2-.86-1-.33-1.52.4-.8 2-1.21 1.01-1.1.47-1.96-.06-1.51-2.06-3.84-.03-1.1.83-.61 2.02-.36 1-.68-.02-1.44-.81-2.63-1.68-2.7-1.18-2.69-.09-.9-2.3-1.5-2.6.16-4.03-.8-2.21-1.56.38-1.43 2.77-.58.55-1.27-2.71-2.56-.07-1.37 1.2-.4 2.85.63.44-1.1-2.5-1.22-1.35-1-.58-1.3.6-1.78 1.58-.95 3.78-1.21 1.05-.62.24-1.28-1.11-.98h-2.4l-1.11.72-.73 1.28-1.32.76-2.75-.18-2.92-1.07-1.06-.1-1.45-.15-3.1-1.13-.43-1.38.56-.73 4.38-3.22.48-2.1-.41-1.5-1.84-1-1.58 1-.31 3.14-2 .9-2.12.3-1.34-.97v-2.06l.41-2.95-.23-1.04-1.4-1.72-3.35-2.24-.35-2.12 2.15-1.26 2.86-.01 2.23-.31 3.08.08z"/>
    <path region="28" short-name="19" long-name="State Senate District 19" value="1" d="m520.09 408.86.72.94 1.87-2.35-.37-1.43-1.17-1 1.9-1.74-1.11-.22-.76-1.94h1.64l.07.85 1.42.68 1.78-3.87.42-1.75-.03-2.01 2.46.16 3.44-.84 1.57.33 2.6 1.57-1 4.7.46 1.32.9.82.23 3.12.74 1.46 1.77-.62 1.57 3 1.32 1.96 1.64.2-.53 2.09.35 2.01 2.91-.1 1.8-.87 1.65-1.26 2.43-.23-.58 1.11-.18 2.67-.72 1.67.76 1.91 1.2.63 1.24-.1.57 2.29.16 2.4-1.4 3.09 1.23 1.63 1.62-.08 1.16.5.38 1.86-.2 1.48.8.42-.62 2.12-.03 1.45.93 1.2-.92.8-.59 2.02-1.43-1.3-1.2-2.8-1.14-.6.3-.9-1.4-2.31-1.77-.25-1.76-2.14-.26-1.3-1.88-1.87-3.15 1-.6-2.07-2.07.95-.86 2.1-4.96-3.77.76-.82-.45-2.04-1.42-2.86-.7-.76.16-1.45-1.43-.44-.83-1.5-1.52 1.05-.27 1.55-2.52-.56-1.36.24-.61-2.18h-.5l-.9-1.96-4.55-3.71-.75-2.08z"/>
    <path region="29" short-name="24" long-name="State Senate District 24" value="1" d="m569.88 490.8 10.98-10.96-3.17-3.24 2.69-.5.18 1.77 2.3-.74 1.9-2.14 1.64-.93 3.33-.1-.37-1.83.25-1.47-.54-.89.47-1.12-.5-1.16.8-1.37 1.47.75.7 1.83 1.51-.7-.64-1.66 2.47-2.01 2.28-.21 3.67.14-.13-1.2 2.19-.4-.8-1.41-.1-1.54-2.18.08-.76.93-.93-.81-6.2 1.69.17-2.29-1.36.53-.78-5.31 1.72.64 1.34-.04 2.47-1.53.61 2.16 2.7-1.82 2.18-1.76-.63-1.76-1.85-1.2.97-.91 3.24-1.53.66.5 1.05-1.2 1.66-.39 2.7.01-1.74 1.62.83.62-2.6 1.98.45 2.26 1.63-.18 2.16-.88-.1-1.12 2.3-.97.82 1.07 1.19 3.52 1.14.77-2.79.63-2.23.2 1.16 1.6.1 1.3 1.74.04 1.69-.56.35 1.1-2.07-.25.04.87 2.36.35.37 1.33-1.57.25-1.13-1.06-1.13.12-.25 3.45.26.85-4.56.48.02 1.73-1.25 1.07.33 3.57 3.46-1.62 2 .7 1.73.08.08.86-1.9.25-.79 1.83-1.28.66-.46 1.22-2.52 2.07-.85-1.16-1.5-4.7-2.67.38.4 1.73 2.23 4.04-1.45.69-4.2-.43-2.4 1.22-.66-1.04.12-1.61-1.86-.9-.12 1.84.72 2.46-.91.33-9.31 1.02.3.72-1.04 2.13.46 2.22.6.38 1.39-.76-.34 2.32-3.61.64-.04 1.81-1.05.43-3.38.68-1.44 1.87-1.2.6-.09 1.9-2.35-.53z"/>
    <path region="30" short-name="4" long-name="State Senate District 4" value="1" d="m492.27 262.35-1.93.14.36 2.62.95 1.28 1.08.36-.28 1.16-1.26.62 1.72 1.99.9.26 1.8 2.01.44-.94 3.21.44.15 1.46 1.63 1.9.8-2.27.82-.37 1.27.64.55 1.9 2.17 1.78.98.27 1 1.36 1.68.1.77.9-.67 1.05 1.45.55 1.03-1.27 2.47.08 1.27 1.86 1.7 1.62-.03 1.1 1.37.94 1.33-.05 1.23 2.93-.48.94.62 1.27-.55.9.63 1.6 1.48.37 2.2-.01.54 3.08 2.58.42.1 1.3 1 2.2.86-.3 3.9 3.52 1.27 1.7-.76 1.66-1.69 2.15-.5 3.8.87 1.53-1.75 2.6-.65 2.22-1.52 3.34-1.58 2.4-1.51 1.5-.27 4-1.36 4.08-.4 2.45-1.57-.28-.52-1.79-.85.85-.85 2.75-1.46-.34.14 3.72 1.38.09 1.16.66-.48 2.44.37.33-11.13 6.57-9.96 6.06-1.34.7-7.6 4.76-5.32 3.1-16.1 9.66-13.14 7.66-.94.39.28-1.36-.57-.97-2.48-1.8-2.16-2.07-1.35-1.73-2.2-1-2.67-.46-3.17-1.88-2.7-.96-1.97-1.33-.59-1.34-3.38-4.25-.43-2.43.21-2.16-1.07-1.22-2.68.26-2.2.95-2.4.02-1.58-.53-2.26.29-4.54-1.48-3.36-.87-3.4-1.81-1.18-1.36-1.3-.7.42-4.06.4-1.81 1.48-1.9 1.4-3.6 2.06-3.5 2.56-8.3-.17-3.25.72-2.94-.13-1.6.3-2.4.7-2.42 1.04-.52.55-2.48 1.12-.75.02-1.25 1.26-1.29-.42-1.88-.9-2.02 1.71-2.86-1.95-2.6.1-2.09 1.02-3.2.74-1.05.3-1.9 1.67-2.36 1.89-1.18-.39-2.61.8-.4.43-3.75 1.62-2.18.51-3 1.49-5.02.5-3.19 1.24-3 4.37-1.56.53-1.73 1.74-.68 2.33.54 1.04-1.7 1.26-.93 1.56-2.7.26-1.25 1.7-2.2 1.44.45 1.02 1.43.18 1.12-.69 1.04 2.14 1.45 2.06-1.37 1.05.5.42 1.06 1.3-.05 1.34-1.05-.19 4.3 2.36-.6 1.28 1-.13.92 1.49.27-.03 1.4 2.58.25v1.48l1.86 1.31 1.61.1-.2 2.02 1.33 1.04 1.1-.3 1.05-1.67 1.15-.45.88-1.19 1.57.82 2.2-.9 2.59-.27-1.6-3.34.28-2.13-.34-.73.42-1.73.64-.72-.34-1.13 1.2-1.52-1.15-1.84 2.13-.75 1.57-1.1 1.92 1.1 1.76.54 2.67-.35.72 1.57 2.95.13zm-45.46 54.37.78 2.77 2.14 1.39.52 1.01.1 2.63.8 1.66 1.94 1.75 1.09 1.86 1.26 1.15.79 3.35-.64.47 1.3 2.1 1.1-.73.72 4.16-.63 1.22 2.48 2.42 1.2-.56 1.38 1.35 1.34 2.74-1.42 4.72 1.26.48 1.15-.43 1.83 1.8.79-.2 1.8-1.74 2.17-.36 2.24 1.47 2.47.12 2 1.89 2.86-.67 1.46-1.06-1.64-3.63.24-2.6-.59-1.48.62-1.6-.53-1.43 2.46-.13 1.55-.46 1.62 1.45 1.36-1.96.1-1.06-1.1-3.16-.02-2.61 3.44 1.18-.35-2.11.53-2.3-.7-2.1-.84-1.25-2.36-.39-.7-1.62.02-1.21 1.13-1.75-4.82-.87.16-1.6-1.88.03-.98-1.58-2.5-1.7-.27-1.08.68-1.62-.83-1.61-.2-2.25-4.42 1.54.45-3-1.76-1.14-.12-.87-1.55.24-.72 1.4-.97-.33-.95-2.14-.92.3.13 2.83 1.67 1.01-.78 1.37-2.38-.24-1-1.38-2.28-.19-.74 1.24-1.9.06-.36 1.92-1.51 1.6.87 2.71-.66 1-1.65-.23-.05 1.82-.62.47-1.45-1.13-1.73-.18-1.86-1.55-.56-1.26z"/>
    <path region="31" short-name="6" long-name="State Senate District 6" value="1" d="m698.56 376.42 1.36-.1.49-.78 4.98-2.5.74-.05 2.14 1.09-.93 2.08-5.3 3.54-2.18-.5-.8-.75zm-32.12-13.92-.06-3.89 9.84-8.58 2.6 2.22.77-.87 2.06-1.1 1.1.89 2.88 1.17 1.24-.23.29 1.3 1.86 1.41 1.35 2.45 2.8 2.18.62 2.17 2.06.88-.05 1.37 1.34 1.77 2.4-.06-.05 2.6-2.35-.05-1.34 2.16.85 1-2.13 3.29.08 1.82-2.52.43-2.55-2.06-2.16.42-1.05 3.06 2.52 1.12 1.71 1.9 2.76.3 2.06-.35.45 1.07-2.39 1.14-1.8 1.54-1.7 4.1-2.54 1.03-1.34 1.97-1.17-.68-.43-1.76 1.23-1.93-.62-2.28-2.49-.24-1.04.96.19 1.85-.4 1.02-3.74.24-2.7 1.06-.82-.12-1.2-2.18.02-1.41.91-.24-.1-3.45-1.32-1.5-.83-.03-1.28 1.07-.91-1.1-.14-2.7-1.15-.24-1.63.6-.05-12z"/>
    <path region="32" short-name="39" long-name="State Senate District 39" value="1" d="m503.26 381.88 1.18-.46 2.6.2.04 1.93-.64 4.23 2.27.64 2.04.1 3.1 1.08 1.63 1.82 1.41-.06 2.94 1.26.97.73h1.94l1.24-1.13 1.96-.05.53 2.85.03 2-.42 1.76-1.78 3.87-1.42-.68-.07-.85h-1.64l.76 1.94 1.1.22-1.89 1.74 1.17 1 .37 1.42-1.87 2.36-.72-.94-1-.68.19-.93-1.1-2.17-1.08-.55-1.34.05-1.35-1.7-.77-1.65-1.43-.67-1.57-.17-2.08.33-.5 1.36 2.8 2.52.73 1-1.56 1.5-1.58-1.03-2.76-.71-.35 1.27 1 .49-1.06 3.1.23 1.89-1.36 1.18-.65 1.29-1.98.05-.52.44-2.33-2.3-3.34-2.7-4.26-3.7 1.43-1.13 1.58-.69 1.69-1.81-.26-.85 2.14-.88 2.71-4.21 2.73-1.54-.73-1-1.36-3.04-2.14-2.42-.84-2.22 2.2-.37 1.73-1.73.3-1.26z"/>
    <path region="33" short-name="34" long-name="State Senate District 34" value="1" d="m724.4 369.05.52-2.58.8-2.08 1.36-.55.53 1.35-1.85 1.69.28.72zm-21.52-73.11.64-1.69 1.75.78-.49-2-1.32-2.72 4.4-1.73 2.16.55-1.07 1.9 3.3 1.42.29 1.47 1.7.97.7 1.54 1.53.14 2.44 2.13 1.96-2.03 2 1.82.82 2.34 1.23.34 2.08 4.06 2.1 2.68 2.15-1.4 2.02-2.76 4.39-2.53 2.85-3.45 2.66-2.57-1.61-.66-.16-.84-1.56-.8 2.78-2.55 1.5 1.23-.26 1.24 1.6 1 1.03-1.28 1.28-2.43 2.86-3.04 2.67-2.57 1.37-2.01 2.25-1.47 3.07-.22 1.84-1 3.92 5.61.62.68 2.2 4.5-1.66.5-1.13 1.08-1.69.38-.48 2.17-1.5 2.3-1.4 3.55-.03 1-1.36 2.9-1.32 2.1-1.13.65 1.29 1.55h1.34l.99-1.42 1.67 2.17 1.43.78 3.38-.5.83.83 1.72-.02.6 2.15 2.1 5.2-1.38.9-3.4 2.94-1.81-2.46-2.5.57-.43 2.2-.58.7-2.7 1.64-1.15 1.87-3.25 2.97-2.26 1.67-2.8-.3-3.45 4.98-.42 2.04-.92 1.35-1.5-.97-2.3 3.82-1.5 1.13-4.08 2.21-1.2 1.88-1.52-.6-1.38-2.75-2.3.03-.58-2.53 1.45-.09-1.61-2.46.8-.1 1.15-1.31-1.14-1.55.62-1 1.22-3.4-.24-1.02 2.84-3.1 1.23-2.2-2.78-3.61.13-2.17 1.2-3.19-.42-.88-1.93-.54-.64 1.72-1.64 1.68-.45 2.07 1.39 2.19-.7 1.15.16 1.07-.99 3.14-.13 1.39-1.95 1.1-1.26 1.47.88 3.13-2.36 3.35.77.8-1.25 1.93-2.06.72.75 1.15.8-.3 1.48 1.35 1.79.66-.32.89.37 1.78 1.53.9.32 2.65-1.47 1.03-.73 1.35-2.46 2.2v1.91l-.79 1.51-.11 3.12-3.35-.7 1.4-2.25.18-2.15-.88-2.3-1.19-1.2v-3.21l.86-1.86-.16-1-3.1-1.2-.89-1.06.91-.54 1.42-3.21.13-1.93-1.04-2.38-.96-.89-2.63-.42-1.39.67-1.4-.8-2.03-.38-.86-.78v-1.3l.81-2.05-1.43-1.54-2.68-2.22.86-1.38 1.05.15-.29-1.76 11.9-2.34-.16-.75-1.57.06-.3-.97-1.35-.51-1.7-4.98-1.01-.95.7-2.75-.83-1.6.67-.67-.34-2.36.46-.66-.9-1.92-3.28-2.86-1.47-3.19-1.14-1.2z"/>
    <path region="34" short-name="45" long-name="State Senate District 45" value="1" d="m647.41 357.46.68.9 1.08-.1 2.63-3.3.85-1.58 1.08-.18 2.41-1.82.87-1.73-1.01-2.12.4-1.65-1.82-1.06.9-1.42v-1.56l1.04-.17.8-1.04 9.06.02v17.96l.06 3.89-.77-.5-4.56.51-1-.82-3.39.17-.68 1.33-4.15.2-1.73-.25-.7-1.94-1.37-.3-.26-.94-1.28-.95z"/>
    <path region="35" short-name="44" long-name="State Senate District 44" value="1" d="m614.92 342.27 2.08-.88.6 2.84 2.7-.65 2.88-.33.81 1.96 1.52.59-.06 5.77.1 16.5 6.98 3.93 4.55 2.59 3.52 1.91 5.77 3.36-2.6 3.72-1.58.32-2.27-1.61-2.57-.57-2.54.75-2.49 2.45-1.53-.38-2.08 1.23-.77 1.18-1.28-1.54 2.11-2.14-.59-1.26-1.48-1.3-1.44-2.05-1.13-.35-2.2-3.35-2.12-2.24-1.51.52-.28-1.31-1.15.16-.19-1.23-2.1.32-2-1.66-.3-1.1.62-1.95.94-1.44-1.23-1.72-.62-1.76 2.6-2.09 3.53.43-.18-4.64-1.6-.13-1.46.54-.06-2.72-.51-2.65-.7-1.22-.27-1.7 1.53-1.4.33-1.04-1.07-1.2z"/>
    <path region="36" short-name="8" long-name="State Senate District 8" value="1" d="m655.24 329.77 2.3 2.08.7-.28 2.1.47.92-.56 1.4.4 1.23-2 1.89.95-.54.7.23 1.43 2.37 1.05 2.43-.06-.03 1.22 1.48-.16.37-1.18 2.55.24 1.38-.95-.96-1.47-1.21-.07.38-1.81 3.25 1.22.57-.6v-1.57l2.4.83-1.5 3.74-.1 1.44 1.11 1.94 2.59.57.7-.27 2.06.58-1.9 2.29 2.01 1.18 1.85 2.13 1.7 1.5-1.61 1.41.37 3.45-1.08 1.77.22.73-1.24.23-2.88-1.17-1.1-.9-2.06 1.1-.77.88-2.6-2.22-9.84 8.58v-17.96l-9.06-.02-.27-1.78-1.58.11-.3-2.74-.83-1.01-.23-1.38-.94-1.8 1.22-.47z"/>
    <path region="37" short-name="32" long-name="State Senate District 32" value="1" d="m618.88 396.77 1.39-.32 1.12-1 1.7.21.45-2 1.05.72 2.26-2.67 2.31-1.15 3.45-3.26 4.8-2.16 2.16 2.61 1.16-1.3.44 2.44 2.28 1.05-.17 1.56.87.42 3.35.64.02 3.48-1.87 4.18.17 1.87 1.46 2.1-1.3.77.38 3.26 1.6.9.95 1.36-.7 2.7-.89 1.19-1.17.23-1.15 1.63-1.79.37.31.92-2.37.03-.67-4.17.4-.81-3-1.68-.66-.77.51-1.05-3.55.7-2.93-.65.18-1.17-.54-2.35-2.27.4v3.77l.36 3.13-.88 4.66-2.76-1.27-.55 1.4-1.8.63.42 2.57.78 1.16-.98 1.1-1.38.35-5.36-.42-.8-.26-2.8-2.04-2.35-5.13-4.74 4.26-2.75 3.07-2.97.02-.13-1.3-2.89-1-.63-1.83 2.23-1 .86-.97.2-1.63.68-.9 2.41-1.19 2.45.16 2.4-.96 1.2-1.91.22-2.19.6-1.71 4.01-6.02 3.07-2.56.84-1.3z"/>
    <path region="38" short-name="16" long-name="State Senate District 16" value="1" d="m504.49 441 1.8-2.36 3.14 1.7 1.02.03.88 1.4 2.04 1.8.62-2.09 2.21-.5 2.08.98 1.63-.03 2.35.5 1.6-.4 2.09.05 2.35.42.26-2.24-2.06-5.16-.86-2.64-1.57-.77 1.34-.78.48 1.6 3.93.9 2.16-1.42 1.25-.09 2.01 3.93 1.74 4.71.3 1.74 2.14 2.71 1.3.8.92 1.41.03 1.55-1.08.37.13 2.48-1.74.21 1.13 3.83.38 2.65.63 1.83-3.36 3.48-4.3 4.22v-.01l-1.76-1.63-2.28-4.44-2-2.57-1.01-.47-3.2-.63-1.5.14-2.5-.38-3.26.58-2.66-1.04-.5.29-2.25-.55-1.55-2.06-1.44.6-2.22-1.8-1.03-3.23-.85-.58-.61-1.94.88-2.61 1.1-1 .52-1.53z"/>
    <path region="39" short-name="40" long-name="State Senate District 40" value="1" d="m645.15 351.02.57 1.65.8.54-1.85 1.49.78.93-1.13.78 1.69 2.04 1.4-1-.86 1.56 1.28.95.26.94-1.13.04.19 3.48-.94 1.2-1.85.08-.46 1.56-1.97 2.43.43.4-3.63 3.66-1.66.84-4.54-2.6 1.11-1.1 1.42-.35-.6-1.3-.25-4.89.1-1.63-.66-1.34.62-1.84-.17-4 .89-2.32-1.13-.44.9-1.23-1.82-1.46.71-1.65 3.65.27.65 3.16 1.07-.98 3.17-1.48 1.04 1.43z"/>
    <path region="40" short-name="41" long-name="State Senate District 41" value="1" d="m646.43 340.66.1 1.29 1.25 1.77-.98.27.13 1.98-1.67.17.48 3.53-.6 1.35-1.91-.18-1.04-1.43-3.17 1.48-1.07.98-.65-3.16-3.65-.27-.71 1.65 1.82 1.46-.9 1.23 1.13.44-.89 2.33.17 4-.62 1.83.65 1.34-.09 1.63.24 4.89.61 1.3-1.42.34-1.1 1.12-7-3.93-.1-16.5.07-5.77-.03-5.11z"/>
    <path region="41" short-name="43" long-name="State Senate District 43" value="1" d="m644.43 333.82.28-1.83 1.3-2.01 1.83.9 1.83-.83.78-1.37 1.68-.35 1.6.25 1.51 1.19-.85 1.8-1.22.47.94 1.8.23 1.37.84 1.01.29 2.74 1.58-.1.27 1.77-.8 1.04-1.04.17v1.56l-.9 1.42 1.83 1.06-.41 1.65 1.01 2.12-.87 1.73-2.4 1.82-1.09.18-.85 1.59-2.63 3.29-1.08.1-.68-.9-1.4 1-1.7-2.05 1.14-.79-.78-.93 1.85-1.48-.8-.54-.57-1.65.59-1.35-.48-3.53 1.67-.17-.13-1.98.99-.27-1.27-1.77-.1-1.3-.81-1.97-1.25-1.08.73-1.45-.94-.8z"/>
    <path region="42" short-name="46" long-name="State Senate District 46" value="1" d="m648.09 360.9 1.36.3.71 1.94 1.73.26 4.15-.2.68-1.34 3.39-.17 1 .83 4.56-.51.77.49-.06 4.52.05 12-.83.3-1.28-1.82-.3-1.42-2.81-2.06-2.38.16-1.85-1.1-.16-1.18-1.18.06-.45.88-1.58.05.45 2.2 1.34 1.44 2.92 2.23.75 1.7-.51 3.12 2.06 2.22 1.15-.11.27 1.04 1.63.43 1.7-.27.27 1.62-3.83 3.03-6.8-2.73-.86-.38-6.22-7.7-1.56-.87-5.77-3.36-3.52-1.91 1.65-.84 3.63-3.65-.43-.41 1.97-2.43.46-1.56 1.85-.08.94-1.2-.19-3.48z"/>
    <path region="43" short-name="20" long-name="State Senate District 20" value="1" d="m553.82 438.22 1.14.58 1.2 2.82 1.43 1.3.6-2.03.91-.8-.93-1.2.03-1.45.62-2.12-.8-.42.2-1.47-.38-1.87-1.16-.5-1.62.08-1.23-1.63 2.2-.03 3.53-2.6 2.24.02.83.47.96 1.7 1.71.8.75-.24 3.68 1.31 1.08 1.8.5 2.91-3.25 5.55-5.61 9.8 1.42 1.5-.47 3-1.65.46-1.89 2.84-2.93-3.02-5.72-5.57-.32.3.04-1.78 1.02.52.9-.77-1.2-1.47-.63-2.08 2.16-.45-.16-1.57.91-2.27z"/>
    <path region="44" short-name="13" long-name="State Senate District 13" value="1" d="m581.66 389.72 1.76 2.26.43 2.15 1.47.57 1.82-.17 1.58 1.47 1.18-2.34 2.16-3.56 4.06-9 1.44-.39 1.2.42.77 1.44 2.15.62-1.72 1.62 1.63 2.32.5 1.2 2.14.37 1.28-1.1 1.04 2.36 1.02.01 2.19 1.04.33.81 1.53 1.35 1.4-1.67 2.27 2.45 3.59 2.82-1.3-.08-.84 1.3-3.07 2.56-4 6.02-.6 1.71-.23 2.19-1.2 1.9-2.4.97-2.45-.16-2.4 1.18-.68.9-.22 1.64-.85.96-2.23 1.01-.28-.79-1.69-.94-1.71-.47-1.24.1-1.53-.53-1.43-1.34-2.97-4.1-1.96 1.15-2.27.43-1.88-.44-.75-1.49-1.68-.92-.6-.9-2.07 1.64-2.32.92-2.24-1.29 1.23-1.43-.56-1.72-1.67-.28-.25-.68-2.6-.45-.25-1.28.84-2.11-.58-.52-2.6-.9-2.3-.05-.92-1.28.9-.94-.57-1.32-1.91-.85.92-2.24-.13-1.16-1.64-.56.62-3.36-1.83-.87-1.07-1.24-2.26-1.84.06-1.18-2.01-2.85.85-1.14 1.74-.63.52-.8 1.49 1.11 2.73-1.7.5-1.7 2.54-.72 1.25 3.53 2.89 2.87.53 2.75-1.68 5.87 1.02 1.14 1.3 3.08 1.55.86 1.89 1.9.63 1.21 2.12 1.96.22-1.94 1.32-.32 1.74-3.13 1.6-.77-2.74-1.4 1.06-1.98z"/>
    <path region="45" short-name="11" long-name="State Senate District 11" value="1" d="m626.1 304.56 2.67-.21 1.77.42 1.47-.81 2.48.85 2.76-.18-.02-1.08 1.93-.43.07 1.48 1.75 5.12 2.3 1.1-.12 1.43.55 1.85-1.04.7 1.18 3.54-1.19-.08 1.12 2.68.84-.35 2.67 7.03-1.44.71-1.84-.96-.31 1.21-2.57.09-.54.45-.2 2.74 3.22-.13.99.92-.17 1.17-.28 1.54.94.79-.73 1.45 1.25 1.08.82 1.98-20.95.03.03 5.11-1.52-.58-.8-1.97-2.9.33-2.7.65-.59-2.84-2.08.88-2.05-.97-.41-2.99 1.36-1.57-.51-.68-1.98-.71-2.86.6-.53 1.66-1.18-.1-3.25-1.1-1.07-.73.91-.94-1.29-1.57.59-2.21-.85-.5 1.6-2.38.3-1.58 1.27-.97 1.1-1.73-.95-.7 3.2-1.84.94-1.36-.8-1.93 1.46-4.21-.05-1.8 2.01-2.34 1.48.5 1.02-2.99 1.81-1.34 1.93.11.9-1.27 2.53.19z"/>
    <path region="46" short-name="18" long-name="State Senate District 18" value="1" d="m535.4 427.65 4.97 3.76.86-2.09 2.07-.95.6 2.07 3.15-1 1.88 1.87.26 1.3 1.76 2.14 1.77.25 1.4 2.3-.3.92.12 2.42-.92 2.27.16 1.57-2.16.45.64 2.08 1.19 1.47-.9.77-1.02-.52-.04 1.78-6.59 6.46-3.18 3.15-.63-1.83-.38-2.65-1.13-3.83 1.74-.2-.13-2.49 1.08-.37-.03-1.55-.93-1.42-1.3-.79-2.13-2.7-.3-1.75-1.74-4.71-2.01-3.93 1.66-3.9z"/>
  </g>
</svg>
