<svg map="usa" type="nd_lower" date="2022" variant="blank" title="North Dakota 2022 House of Representatives" default-mode="split" auto-border-stroke-width="1" auto-border-stroke-width-limit=".5" original-source='["https://www2.census.gov/geo/tiger/GENZ2022/shp/cb_2022_us_sldl_500k.zip"]' candidates="[{&quot;id&quot;:&quot;0&quot;, &quot;name&quot;:&quot;Democrats&quot;, &quot;margins&quot;: [{ &quot;color&quot;: &quot;#1C408C&quot; }, { &quot;color&quot;: &quot;#577CCC&quot; }, { &quot;color&quot;: &quot;#8AAFFF&quot; }, { &quot;color&quot;: &quot;#949BB3&quot; }]},{&quot;id&quot;:&quot;1&quot;, &quot;name&quot;:&quot;Republicans&quot;, &quot;margins&quot;: [{ &quot;color&quot;: &quot;#BF1D29&quot; }, { &quot;color&quot;: &quot;#FF5865&quot; }, { &quot;color&quot;: &quot;#FF8B98&quot; }, { &quot;color&quot;: &quot;#CF8980&quot; }]}]" version="1.1" xmlns="http://www.w3.org/2000/svg" viewBox="0 0 1000 605.33">
  <g regions="y" transform="translate(0 -197.34)">
    <path region="0" short-name="41" long-name="State House District 41" value="2" d="M959.04 631.83h2.97l-.2-5.64h2.8l-.01.91 1.13-.03.1 1.35-1.25.63.18 5.7-.71-.01.06 1.16-.4.4-.06 1.2-1.58-.05-.04-1.47h-2.92z"/>
    <path region="1" short-name="7" long-name="State House District 7" value="2" d="m419.7 616.58 6.3.08 19.66.03-.07 11.8-1.4.64-1.4.18h-5.65l.06-4.15-2.85-.01.03-2.79-7-.11-.17-.93-.91-2.77-.37-.5h-2.36l-.06 1.38h-.7l-1.06.5z"/>
    <path region="2" short-name="15" long-name="State House District 15" value="2" d="m607.88 289.6 17.43.06h20.38l17.95.02 28.4.11h20.4l17.39.06h17.43l17.43-.03-.01 17.53-.04 17.49h3.54l-.03 17.56-.03 4.35.02 13.09-17.33.08-.03 17.36-.03 17.34H737v29.06l.03 12.46.38 1.02.01 6.26-.43.48-1 .51-.5-.21-1.93.2-1.49-1.21-.82-.31-1.3-1.1-.1-1.27-1.45-.89-1.28.08-.29-.53-1.9.59h-1.87l-1.39-.77-.26.56-1.13-.03-.16-.47-1.9-.16-.51-.77-2.5-.35-1.73.3h-1.52l-.77-.44-.64.93-1.96.8-.52-.49h-1l-.4-.47-.9.4-.32 1.22.44.3-.5 1.14-1.14.06-.75.6-1.24-.02-.36.54-2.56.5-.94.74.07.53-1.14.15-.39.57-.27 1.52-1.04.12-.44 1.68-1.48-.13-.44.46-1.24-.5-.8-.8-1.21-.76-.4-.67.35-.94-1.39-.95-.8-.8.34-.4-.82-.71-.7-1.43.57-.75-.32-.59.41-.8.22-1.35-1.98-3.52-1.66-1.05h-.93l-.54-.8-1.4-.28-.17-1.06-1.15-1.24-6.93.03-10.1-.07-2.12-.1-1.48 1.1-2.22.53-2.32-.17-2.6-.8-.67-.69-5.71.08-11.46.04v-18.02l-.06-.23.06-16.43h-4.29l-.02-17.36 8.2-.04 6.99.13-.42.76 2.28.14 3.34-.33 1.5.37.45.95.2 1.54.88-.28 3.42.13.1-1.56.84-.9 1.44-1.06-.9-.49.2-1.42-.84-2.06-.81-.67-.46-.95.35-.74-.71-.69-.67.02-1.34 1.05-3.38-1.78-1.52-.45-.87.17-.97-1.32-.02-21.5-.03-3.82v-17.84l-17.27-.02-21.78-.04-.06-.55.03-14.03-.02-2.9z"/>
    <path region="3" short-name="31" long-name="State House District 31" value="2" d="m216.96 668.49 14.37-.08 18.06-.12h11.1l.07-11.02-.01-5.85h14l16.82.02 19.62-.03-.02 16.86 11.23.04 22.09.07.15-.03 21.13.04-.03-4.86.51-.76h3.34l.35-.81-.4-27.34v-4.24l.53-.52h.95l1.29-.93-.63-.79.63-.58.05-.9.88-1.03v-1.25l-1.27-.88.38-.43 2.36.27 3.15-.07 3-.49.83.04 2.4.71 2.47-.03 2.4-.28 3.6-.03 4.43-.56 4.41.5 7.34-.1 4.3-.16.1-1.42 2.78-.03.44 1.63.77.89.57 1.3.89.76 2.28 1.01 4.65-.08 1.03 1.44 2.63 2.75 1 .75 1 1.97v.02l-.6.11-1.34-.46-4.36-3.26-.4-1.39-.68-.84-2.48-.66.06 1.06-4.11.08v1.34l1.39.03.17.82.89.1-.11 3.3 2.85-.03.05 1.13 1.61.5.04-1.37.47-.35 1.13 1.94.45 1.67.67 1.66.41 1.7-.09.9.57.88 1.63 5.38 2.47.01 1.1-.13 1.42-.32 2.06.1.75 1.53-.16 1.21-.46.48-1.66.25-.93.61.76 2.42.46 2.23.5.62.92.4 1.13-.15 1.79-.9 1.06-.13 1.14 1.54.18 1.6-.57.69-.37 1.37.19.67.95.84 1.19.45 2.13-.35 1.36-.58 3.48-2.57 3.16-1.2.49.04.9.25.27.52-.3 1.94-1.38 1.47-.98 1.57-.55 2.04.22.98 2.8 2.3 2.09 2.05 3.15 1.65 2.27.82 2.22 1.06.95 1.2v.69l-.58 1.13-.8.15-1.27-.58-.65.28-.17 1.12 1.43 2.1 4.24 5.6-.17 1.66-.65 1.08-1.62 1.48-2.13 1.25-1.04 2.5-.58 2.67-.24 2.65-.72 2.7.12 2.36 1.2 2.8.99 1.67 1.63 4.1 1.23 2.54 1.09 3.52.12 1.14.15 5.47-1.32 4.11-1.02 2.09-1.13 1.62-.7 1.43-.14 1.06.22.7 1.8 2.95 1.09 1.49.08 1.48-.34 1.5-1.19 2.92-1.02 2.08-1.03.95-1.15 1.42-.59 1.1-2.39 3.9-.58 1.13-.94 2.37-.35 1.6.05 1.76.35 1.36 1.37 2.17.28 1.27.03 2.23-.44 1.85.02 1.18.32 1.92.87 2.4 1.07 1.81 1.16 1.38 1.61 2.43.62.73.9 1.94 1.02 1.5 1.36.96 2.5.65 1.25 2.03 1.45 2.98.53 1.41-.08 2.16-.56 1.43-.01.8H456.5l-12.43-.06-6.52.05-16.07-.02-6.06.02-6.02-.06-16.1.04-13.67-.01-9.04-.06-12.5.02-1.14-.03-6.15.1-18.34-.07-16.61-.06-5.55.04-21.8-.07-11.6.02-3.34-.02.05-20.88.06-29.27-.02-15.12-20.55.03-21.24-.14-14.93.1-15.47.17-17.96.06-.25-16.8.01-.63-.1-16.25 8.33.07 8.39-.06 14.1-.16h2.97l.03-16.9z"/>
    <path region="4" short-name="32" long-name="State House District 32" value="2" d="M430.98 633.86v-.02l2.12-.18.37-.57v-1.05l.82.01-.01 1.06.47 1.02 1.63.03.02-1.48h2.01l.03 5.04-.46.85-.94-.03-.03 3.55h-2.81l.03-4.24h-.59l-.01-1.4-1.92-.09-.82-.26.3-1.7z"/>
    <path region="5" short-name="33" long-name="State House District 33" value="2" d="m245.96 502.03 10.7.11 3.48-.14v.72l8.48.05v.73h5.68l.04 1.29h7.05v1.59l4.35-.01 9.56-7.42 1.6.22 1.57-.52 1.94-1.33 1.04-.47 6.39-4.56 1.08-.59 2.7-.93 2.12-.42 1.62.2 2.77.67 3.07 1.23.9.15 1.12-.3 2.02.07 4.47-1.04 2.97-1.14.76-.58 5-1.63 1.84-1.06 1.04-.06 1.5.25 3.4-1.53 1.02-.24 1.38.05 1.09.42 1.42 1.44 8.15-6.76 12.78-.03.08 4.77.39.95 3.96 3.23 3.52 2.74 2.15 2.57 3.51 6.61.39.53 3.73 3.86.63 1.04.2 1v3.08l.6 2.16.9 1.85 1.35 5.64.05 2.49.82.8 1.85 3.25.2 1.04v2.62l.26 1.31 1.75 3.5 1.16 1 2.52-.11.63.7h1.58l-.01 1.43h.76v1.43h5.54l.72.25.77-.27 23.95-.04 4.28-.02.01 8.54-.04 17.13h-3.2l-1.18-.62-.38-.84-1.2.08v1.4l-19.57.03-3.3-.03.65.97 1 .72 1.11 1.77.67 3.1.3 5.9.2.76 1.4 2.51 3.13 3.27 1.23 1.09 1.14 1.44.75 1.77-.15 3.15-.32 1.38-1.81 2.43-.8.53-2.07.9-1.5.98-.56.6-.77 1.87.05 1.66.62.95 2.82 2.2.41.44.4 1.25.29 2.59-.1 1.69-.46 3.32.63 1.78 2.05 3.35 1.7 2.77 1.87 4.23-4.65.08-2.28-1-.89-.78-.57-1.3-.77-.88-.44-1.63-2.79.03-.1 1.42-4.3.16-7.33.1-4.4-.5-4.45.56-3.6.03-2.4.28-2.47.03-2.4-.7-.82-.05-3 .49-3.15.07-2.36-.27-2.9.4-.04-4.15-.11-19.26-13.46-.01-13.48-.02h-23.25l-28.23-.02-2.21-.02h-34.41l.06-28.36V531.96h-8.16l-.02-8.44.04-5.8z"/>
    <path region="6" short-name="37" long-name="State House District 37" value="2" d="M166.61 612.1v2.82l2.72.07v1.34l1.5-.01v3.96l-2.83-.3-2.81-.02-1.2.08-1.63.48.01-2.95-2.65.15-.01-5.64z"/>
    <path region="7" short-name="39" long-name="State House District 39" value="2" d="M.48 666.25v-15.52L.4 629.4l.04-21.56.07-19.5-.04-7.38.08-9.58-.1-17.31.05-12.05-.02-10.47 17.1.05 16.8.04 7.15.07 10.77.03 6.35.14 14.25-.01.27-.03 31.34.06 20.4-.08 10.73.02-.03 11.54-.02 19.92.01 17.02 2.82-.08.07-2.8 3.77.02.39-.37v-1.65l1.79-1.54.13-.45-.63-1.54.21-.94-.13-2.02 16.98-.05v.7l1 1.21.27.94 7.2-.01.77-.85-.32-2 19.23-.05v-2.85l3.28.06 5.22-.02 2.88.1 5.36-.16 5.91-.04 10.16.01 3.1-.05 12.05.03 8.44-.1 8.57-.02v5.83l-2.26-.7-1.58.86-.23.55-2.59 1.37-.69-.25-.53.93-.77.12-2.72-.03.06 6.92-4.23 2.16-.03 1.85-.45.46-2.33-.03-.31-.68-1.35.69-2.61-.01-.02-2.83h-2.82v11.32l-9.52-.02-2.12 1.27v1.59h-5.28V600h-20.4l-.42.03-11.84-.02.04 9.27-2.7.02.03-2.86h-2.81v2.82h-5.4l-.24.16.01 2.68h-1.4l-6.9-.02v5.64l2.66-.15v2.95l1.62-.47 1.2-.09.06 1.67 1.36.26-.03 1.51h1.97l.01 2.11.85.71h1.37l.05 1.57 2.82-.02 14.77.04 4.82.75 4.03-.08v5.09l.24 1.36-.2 1.54.1 1.64 1.03 2.02.18 1.22.1 15.86.13 10.68.2.62 17.9-.02.03 16.58-.03 16.89h-2.97l-14.1.16-8.39.06-8.33-.07.1 16.25-.01.63.25 16.8 17.96-.06 15.47-.17 14.93-.1 21.24.14 20.55-.03.02 15.12-.06 29.27-.05 20.88-.26.01-23.53-.02-20.18-.03-19.72-.08-10 .04-13.43-.09-7.1.07h-15.09l-13.68.01-16.99-.06h-15.14l-16.4.04H90.7l-.84.07-4.79-.1-19.66.03-2.45-.03-11.17.01H40.84L.46 800.7l-.18-10.54.14-23.8.07-.2-.02-29.9-.01-16.77-.09-3.3.14-24.37Z"/>
    <path region="8" short-name="45" long-name="State House District 45" value="2" d="M931.2 549.52h16.95l12.81.21 1.84-.1.59.78-.37.58-.77-.72-.71.72 1.14.44.28.62-.35.7.17.69-.31.86.71.64-.76.52.32 1.13-.6 1.27 1.3.7.3.73-.85.28.1.82 1.38-.17-.66 1.37.41.66-.15 1.46.74.32-.7.75-.1 1.22-1.49.26-.48.6 1.03.17.45.63-.72.77.61.3.85 1.9-.31 1.56-1.27-.09 1.55 1.23.36.75-.28.8.79.1.12.97-.69.82.5.37.18 1.88-.59 1.07.5.9-1.68.75.69.77.42 1.91-.5 1.1.95.73-.46.55.46.57-.7 1.6 1.35-.11-.49.87-1.02.01 1.22 1.67-1.53.4-.58.86-.38 1.7-.56.25.59.86.47-.18.88 1.43.08 2.37.36 1.68-.45 1.27.5.66 1.3.7 1.13-.4.84.1-1.08 1.75.47.42.2 1.9.87.03.2 1.33-.23 1.8.9-.14 1.12.54.2-.87 1.79-.75.57.76-.21.6.77.62-1.13.87 1.1 1.06-1.07.06-.4 1.35-1.65.01v-.97l-2.81.05-.03 4.25-2.33-.01-3.16-.02-.18 2.8-4.13-.06-4.26-.18.01-1.46-.5-1.13-2.55-.2.08-2.84.21-13.85-2.81-.06-16.7.01.11-17.13-.07-17.07-.03-11.32z"/>
    <path region="9" short-name="5" long-name="State House District 5" value="2" d="m364.43 350.84 1.13.25 1.75-.23.03 1.51 1.46-.04 1.42 1v3.25l-2.88.75v2.23l-5.79-.02.01-2.9-.58-.33.05-1.91.42-1.97 2.98-.26z"/>
    <path region="10" short-name="19" long-name="State House District 19" value="2" d="m764.69 289.82 17.4.1.03-17.5.04-17.71h-3.3v-17.6l.01-16.63-.02-4.02.04-8.71.1-10.38 34.8-.02 17.5-.01h78.75l-.64.48.18.65.73.42-1 .8-.56 1.3.11 3.5 1.07.27-.6 3.34 1 .4-.04 1.48.57 1.15h.87l-.5 2.17 1.15 1.09-.2 1.73.66 1.12 1.79.78.6.87-.57.64-1.02-.08.58 1.02-.15 1.3 1.23.76 1.3-.1-.08.9-1.12 1.07-.2.77 1.42.1.05 1.17.77 1.42-.52.96.44 1.46-1.42 1 .08.63.82 1.1-.25.96-1.2.64 1.94.98 2.04.24v.9l-.95.25-1.75.84.41.72.8-.73.98.21-.1.8-1.07-.07.02.92 1.89.4-.33.9.27.59 1 .02.2.68-1.2.46 1.55 2.3-.18.78-1 .87.75 1.43 1.45.02.17 1.69-.68.9.58.66h1l-.04.96-.85.69 1.4 1 1 1.97 1.19.72-.3.47-1.1.33.06.49 1.38 1.97 2.3 1.1-.17.85-1.07.17.26 1.98-.9 1.8.8-.04.15.72-.81 1.03-.3 1.27-1.06.65.8 1.13.05 1.26-.56.46-1.32-.69-.98.34v.58l1.42 1.53-.48.72-.85-.9-.61.47.65.63-.42.75-1.62-.25-.63.38.2.89 1.44-.1.36.5-1.2 1.61-.96.06-.22.84.99-.03.48.65-.17 1.43-.74.55-1.34-.26-.23.66 1.41.43.23.46-.5 1.41-2.56.5-.6.54.43.68.86.4 2.62-.04 1.03.59-.35.62-1.98.03-.9-.6-.47 1 .85 1.58 2.3.97v.89l-1.49.52-.15 1.08.55.95 1.06.01.8-.54 1.22.16-.1.73-1.43 1.21-1.46-.07.02 2.02.71.9 1.63 1.03v.8l-.99.07-.08.67-.71.36-1.58.28-.56.35.09.81.8.18 1.91-.51 1.56.34-.07.86-1.67-.64-.83.79.82 1.49 1.15-.1.65.71-.1 1.26-.8 1.04-1.7.97-.33.57.55.63.71-.1.88-.96 1.06.04.35.66-.1 1.26-.92.5-.92-.48-.9.19.35.99 2.1.86.59 1.02-.48.44-1-.97-.91-.13-1.41.42-.52.4.2.9.73-.04.58-.97 1.58 1.71.02.6-2.22 1.97-.7-.04-1.16.44.74.83-.1.98.9.68.83.15 1.08-.47.23.64-.91.46.49.99-.22.63-1.4-.14-.67.23-.09 1.24.93.62.62 1.25 1 .42-.55 1.07.12.56 1.6.32.23.87-1.05 2.1 1.54.1.62.3.15.76-2.31.76-.56 1.27.57.6.9-.58.63.4-.6 1.06.26.43 1.56.94-.3.79-1.73-1-1.3 1.6.33.76 1.36-.96.43.36.73 1.88-3.35.01-15.06-.1h-10.86l-6.31-.15-.05-14.57-.1-2.92-17.28-.02-17.3-.02-.02 17.55-.02 17.42h-34.61l-14.36.02-17.4-.03-2.85.02-8.5-.06-8.78-.02-.02-13.09.03-4.35.03-17.56h-3.54l.04-17.49z"/>
    <path region="11" short-name="26" long-name="State House District 26" value="2" d="m.51 518.37.13-24.97.05-20.06.07-24.2.1-11.15-.01-.99.12-10.74-.33-26.65 2.18.85.82.53 1 1.92.34 1.62.8.86.83-.12 1.26-.83.48-.82-.05-1.3.68-.5 1.9-.1 1.72.76 1.57 1.2.9 1.09.9 1.51 1.26 1.33 3.2-1.07 1.03-.14 1.68-1 .82-1.14.67-3.03 1.12-1.43-.2-1.31-.93-1.38.62-1.28h.46l3.57 3 .4.58.07 2.04-.38 1.35.64.22.9-.54 2.2-2.5.52-1.15.71-2.65-.18-2.84-.64-1.6.28-2.37.68-1.64.82-.77 1.86.6 2.09 2.65.98.49 2.84-1.64 1.53-1.14.5-.67.2-1.48-.48-.8-1.07-.51-2.57-2.27-.47-.83.22-1.17.73-.46 1.92-1.79.7-.88 2.89-1.87 1.67-.66 1.81.02 1.17.48 1.51 1.22 1.24.42.83-.02 1.1-.63 1.7-1.7.86-1.5 1.17-.82 1.27.38.31 1.59-.88.8-1.46.7-.65.58.06.94 2.47 2.94.6.44 2.2.91 2.62.04.19.38-.58 1.6-.92 1.08-1.95 1.54-1.09 1.14-.48.97.01 1.98.35.54 1.7 1.16 1.64.3 1.32.02 2.04-.34.85.5 1.19 2.75.88 1.57 1.17 1.14.63.14 1.52-.3 1.3-1.1 1.18-1.71.94-.78 2.1-.8 1.3-1.15.75-.28 1.76.28 2.5 1.33 2.22.54.91-.08 2.19-.64 4.51-2.23 1.81-.44 2.4.54 1-.74.5-1 .36-1.97.47-.52 1.81-.4 1.92.5.9-.02.81-.62.71-.96.23-1.4-.62-1.16-.7-.52-1.95-.66-.36-1.05 2.12-3.36 1.33-1.54 1.8-2.4 1.59-1.31 2.27.2 3.7-.4 1.58-.45 1.8-.9.85.01 2.45-.72 1.37.14.63.53.1 1.03-.24 2.05 1.08.54 2.13-1.48 3.33-.54 2.22-.07 2.48.7.68-.06 1.33-.72 2.8-.42 2.52.14 2.07.96 1.3 1.77 1.18.37h1.73l1.92-.9 2.4-1.95 1.29-.18 1.32.44 1.99.98 1.54 1.23 2.94.95 1.56-.04 1.27-.53 2.53-1.71 1.14.3 1.73 1 .97 1.44-.17 2.13-.38 1.04-2.1 1-.04.48 3.27 1 3.94.09 1.97.84 1.56.2 1.27.56.56.65.16 1.61-.2 1.94-.57 1.6.85 1.6.93.71 2 .43 1.9-.73 1.22-1.1 1.07-.01 1.2 1.81.02 3.51.2 1.01.51.6 2.84 1.47 2.12.7.5.41-26.47-.09-4.47.03.03 4.27-.08 2.8.07 19.24-.04 21.03.1 17.24-.14 15.78 1.4-.76 1.1.04 1.06.52 1.08 1.3 1.08-.63-.69 1.99.55.53.96.07 1.17-.27.3.4-.12 1.98 3.2-2.4 1.08.59 2.48 3.54-.58.89-1.24.53-.46 1.28.59 1.65 1.32 1.66.66.54 1.48-.47 1.76-1.5.99-1.18.53-.03.86 1.34.76-.13 3.04-2.02 1.32.1.66.68.4 1.68.9.73 3.15.81 1.85.64 2.3.99.68 1.36.72.26 2.78-1.58 2.27.45 1.54.86.4-.24.1 9.21 2.86-.08-.02 1 8.41-.19.1-1.42 11.34.06-.06-1.52h5.3l3.15.1.01-.73h2.83l.02 15.69-.04 5.8.02 8.44h8.16V565.8l-8.57.02-8.44.1-12.05-.03-3.1.05H211.8l-5.9.03-5.37.15-2.88-.1-5.22.03-3.27-.06-.01 2.85-19.23.05.32 2-.78.85-7.2.01-.25-.94-1-1.21v-.7l-17 .05.14 2.02-.21.94.62 1.54-.12.45-1.8 1.54v1.65l-.38.37-3.77-.02-.07 2.8-2.82.08-.01-17.02.02-19.92.03-11.54-10.73-.02-20.4.08-31.34-.06-.27.03-14.25.01-6.35-.14-10.77-.03-7.15-.07-16.8-.04-17.1-.05.06-8.83z"/>
    <path region="12" short-name="8" long-name="State House District 8" value="2" d="m440.27 565.54-.06 17.08.09 14.2-.06 2.86 19.81.07 2.72.05-.21 16.93 16.86.17-.16 16.9 16.84.03 16.83.11 16.93.06-.27 18.69-.04 6.59-.13 8.55 8.1.07 14 .02-.06 17.32-.1 30.87-.03.08-.01 16.5.04 2.98 5.13.06-.03 10-.05.34.06 10.41-.05.37-.07 22.28-.09 22.27-11.44-.03-13.77-.07-13.59-.07-13.87-.08-2.58-.06-15.51-.04-2.7-.03h-10.85l.02-.8.55-1.44.08-2.16-.53-1.41-1.45-2.98-1.26-2.03-2.5-.65-1.35-.96-1.02-1.5-.9-1.94-.62-.73-1.61-2.43-1.16-1.38-1.07-1.8-.87-2.41-.32-1.93-.02-1.17.44-1.85-.03-2.23-.28-1.27-1.37-2.17-.35-1.36-.05-1.75.35-1.61.94-2.37.59-1.14 2.38-3.89.6-1.1 1.14-1.43 1.03-.94 1.02-2.08 1.19-2.92.34-1.5-.08-1.49-1.1-1.48-1.79-2.95-.22-.7.14-1.06.7-1.43 1.13-1.62 1.02-2.09 1.32-4.11-.15-5.47-.12-1.14-1.1-3.52-1.22-2.54-1.63-4.1-.99-1.67-1.2-2.8-.12-2.36.72-2.7.24-2.65.58-2.68 1.04-2.49 2.13-1.25 1.62-1.48.65-1.08.17-1.66-4.24-5.6-1.43-2.1.17-1.12.65-.28 1.26.58.8-.15.58-1.13v-.7l-.94-1.2-2.22-1.05-2.27-.82-3.15-1.65-2.08-2.05-2.8-2.3-.23-.98.55-2.04.98-1.57 1.39-1.47.29-1.94-.27-.52-.9-.25.06-8.23-5.61-.02.06-5.63-2.82-.02.13-14.8-1.42-.36h-1.35v-.46l1.4-.18 1.4-.64.07-11.8-19.66-.03-6.3-.08-.63-1.78.47-3.32.09-1.7-.3-2.58-.39-1.25-.41-.44-2.81-2.2-.63-.95-.05-1.66.77-1.87.57-.6 1.5-.98 2.07-.9.79-.53 1.8-2.43.33-1.38.15-3.15-.75-1.77-1.14-1.44-1.23-1.1-3.13-3.26-1.4-2.51-.2-.77-.3-5.88-.67-3.11-1.1-1.77-1-.72-.66-.97 3.3.03 19.57-.03v-1.4l1.2-.08.38.84 1.17.62z"/>
    <path region="13" short-name="25" long-name="State House District 25" value="2" d="m903.12 735.82-.02-16.92.07-9.56-.01-4.3.06-19.67-.02-16.75 16.41-.05 16.63-.07 14.14-.06 16.93.01.2-.03 1.17.22.56-.22.15.79-.42 1.38 1.54-.4-.2 1.42.61.87-.8.3.8.81.08 1.32.6-.38.45.82.86-.15.09 1.67.73.91-.12 1.13.72.12.4 1.66-.56 1.7.3.49-.45 1.2 1.12 1.73-.34 1.37-.03 1.43.91.43-.4.82.7 1.69-.04.75-.52 1.17.53 1.12-.25.66.33.68-.52.64.71.53.77 1.19v.85l.88.36.9.98-.68.59.93.4-.33 2.02-.9.01.3 1.85 1.28.9.45 1.26.63.3-.49 1.52.2.37 1.3-.9.2 1.08-1.06-.1.3.86 1.4-.38-.37.99.29.75.77-.43.46.58.8 1.8-.35.71.94.9-.22.5.5 1.94 1.26 1 .18.67 1.53.7-.6 1.06.39 1.16 1.61-.37.63.62 1.65.7-.57.89 1.27.88.38.81 1.1.64-.16 1.88.54.38-.86 2.84.81.84-1.04.75 1.1.54.16 1.32-.62.83.65.78-.18 1.7-.38 1.1.69.55-.09 1.04.55.82.8.38-1.74.89-.12 1.38.2 1.58.78 1.85-.15.82.8.77-.3 1 .62.11-.07 1.34-.37.37-.12 1.08-.4.96.58.38-.17.67 1.18.56-.06.9.52 2.33-.43 2.3.62.87.82 2.08-.14 1.19.32 1.22.94.61-.89.36 1.04 1.88.33 1.5-.07 1.48.36 1.06-.48 2.3.16 1.39-.54 1.8-.71.78-.98 2.6-.58 2.11.5 1.99-.22 1.64.3 1.1.16 4.23.28 3.2.66 1.2.08 1.34.46.9-.31 2-10.06-.01-8.3-.1h-12.04l-1.83.07-25.81-.05-.23.1-13.73-.15-5.57.13-11.12.03-16.78.01-16.86-.01-3.83-18.28 16.65 3.18 9.69 1.93 6.96 1.34-.02-7.73.04-19.47.02-19.4-.02-8.4z"/>
    <path region="14" short-name="2" long-name="State House District 2" value="2" d="m.02 197.48 10.58.07h15.63l16.66.02 17.45.04 17.59.03 11.93.03 2.66-.13h20.5l17.57.01 17.51.01 17.53.02 17.48.04 18.97.04 16.03.03 27.09.06 7.93-.05 17.43-.05-.02 21.36-.04 17.6h-12.37l-5.04-.02-.05 17.6h-10.82l-.04 20.5v14.61h-17.45l.02 16.92.03.61v17.46h7.26l-.02 17.8-17.28.01-17.29-.02-7.52-.04-11.29.04-12.75-.08-3 .01v31.86l-.05.27-1.54-1.23-1.99-.98-1.32-.44-1.3.18-2.39 1.95-1.92.9h-1.73l-1.17-.37-1.31-1.77-2.07-.96-2.52-.14-2.8.42-1.33.72-.68.06-2.48-.7-2.22.07-3.33.54-2.13 1.48-1.08-.54.25-2.05-.1-1.03-.64-.53-1.37-.14-2.45.72h-.86l-1.8.89-1.57.45-3.7.4-2.27-.2-1.59 1.32-1.8 2.39-1.33 1.54-2.12 3.36.36 1.05 1.96.66.7.52.6 1.16-.22 1.4-.7.96-.82.62-.9.02-1.92-.5-1.81.4-.47.52-.36 1.97-.5 1-1 .74-2.4-.54-1.81.44-4.51 2.23-2.19.64-.9.08-2.22-.54-2.5-1.33-1.77-.28-.75.28-1.3 1.15-2.1.8-.93.78-1.2 1.71-1.29 1.1-1.52.3-.62-.14-1.18-1.14-.88-1.57-1.19-2.75-.85-.5-2.04.34-1.32-.02-1.64-.3-1.7-1.16-.35-.54-.01-1.98.48-.97 1.1-1.14 1.94-1.54.92-1.08.58-1.6-.19-.38-2.61-.04-2.2-.91-.6-.44-2.48-2.94-.06-.94.65-.58 1.46-.7.89-.8-.32-1.6 2.16-.05.03-2.87 1.4-.45.02-2.56-2 2.45-.9-.14v-9.42l-.03-8.7H59.8l-1.14-.72-4 .14-1.4.6-3.1.04-1.75-.13-4.1.05-.95.57-.91 1.93-1.03.49-1.17.13-.71.48-.48 1.14v3.92l.18 2.72.6 1.07 1.4.54.72.94.13 3.03 1.33 2.06v1.14l-1.36.08-17.28-.03H5.23l-.58-.26-1.5.27-2.66-.01-.06-20.24-.05-3.08-.04-23.55-.1-7.42.02-2-.08-14.71-.07-1.19.08-5.21-.1-14.75.09-5.36-.04-4.9-.07-19.66-.07-20.3.03-3.73L0 207.7l.06-7.6z"/>
    <path region="15" short-name="14" long-name="State House District 14" value="2" d="m440.27 565.54.05-17.13-.02-8.54-.03-7.83h10.16l.04-8.8-.03-25.52.02-17.23.07-16.84 11.65-.03.03-11.74-.07-11.23.05-5.78-.01-5.72 28.17.08h6.22l17.27-.06.05-22.64v-12.06h-5.26l-.02-8.73.02-8.64-.06-5.85.05-11.6.01-22.98-.04-.26-.01-9.17.04-2.7-5.27-.02.01-17.45-.01-17.46 17.44-.08 26.1.04 23.23.05 19.06-.04 18.7.03-.01 17.5.02 2.9-.03 14.04.06.54 21.78.04 17.26.02v17.84l.04 3.83.02 21.5.97 1.31.87-.17 1.52.45 3.38 1.78 1.34-1.05.67-.02.71.69-.35.74.46.95.8.67.86 2.06-.2 1.42.89.49-1.44 1.05-.84.9-.1 1.57-3.42-.13-.88.28-.2-1.54-.45-.95-1.5-.37-3.34.33-2.28-.14.42-.76-7-.13-8.2.04.03 17.36h4.3l-.07 16.43.06.23v18.02l11.46-.04 5.7-.08.67.69 2.6.8 2.32.17 2.23-.54 1.48-1.1 2.12.11 10.1.07 6.93-.03 1.15 1.24.18 1.06 1.4.29.53.79h.93l1.66 1.05 1.98 3.52-.22 1.34-.41.81.32.59-.56.75.7 1.43.8.7-.32.4.8.81 1.38.95-.34.94.39.67 1.21.75.8.82 1.24.5.44-.47 1.48.13.44-1.68 1.04-.12.27-1.52.39-.57 1.14-.15-.07-.53.94-.74 2.56-.5.36-.54 1.24.03.75-.61 1.15-.06.48-1.15-.43-.3.32-1.21.9-.4.4.47h1l.52.5 1.96-.81.64-.93.77.43h1.51l1.75-.29 2.49.35.51.77 1.9.16.16.47 1.13.03.26-.56 1.38.77h1.87l1.91-.6.29.54 1.28-.08 1.44.89.12 1.28 1.29 1.09.82.3 1.49 1.21 1.94-.19.5.21.99-.5-.01 8.61.05 11.45 3.36-.02.03 5.5-.01 11.37h-20.04l-14.1-.07-19.88.06-14.07-.03-17.06-.08-17.03.04-.04 17.17-.02 17.05v17.21H609.5l-.01 15.14.05 1.8-.06 17.06-.01 17.03.04 16.92 4.68.1-.16 20.98-.15 21.53-.08 15.68-.12 9.76-20.22-.06-13.47-.09-10.35-.02-6.48-.04-3.22.04-8.42-.08-14-.02-8.1-.07.12-8.55.05-6.6.27-18.68-16.93-.06-16.83-.1-16.84-.04.15-16.9-16.85-.17.2-16.93-2.7-.05-19.82-.07.05-2.86-.08-14.2z"/>
    <path region="16" short-name="35" long-name="State House District 35" value="2" d="m428.98 631.12 3.75-1.71.46-.1H442.79v1.5h-3.08l.2.85-.65.11-.85.92h-2.01l-.03 1.47-1.62-.03-.47-1.02v-1.06l-.8-.01-.01 1.05-.37.57-2.13.18-.99-1.97z"/>
    <path region="17" short-name="6" long-name="State House District 6" value="2" d="m270.5 236.6.04-17.59.02-21.36h17.5l17.48-.02h17.83l16.68-.11 5.83.07 12.18-.02 18.62-.02 13.4.09 22.3-.08 15.7-.02 17.61.01 17.55.01 19.42.01 15.62.02 17.61.02-.02 9.93v18.93l-.03 1.15v26.84h5l-.02 17.52-.03 17.55-17.44.08.01 17.46-.01 17.45 5.27.01-.04 2.7.01 9.17.04.27-.01 22.98-.06 11.6.07 5.85-.02 8.64.02 8.73h5.27l-.01 12.06-.05 22.64-17.28.06h-6.22l-28.17-.08.02 5.72-.05 5.78.07 11.23-.03 11.74-11.65.03-.08 16.84v17.23l.02 25.52-.04 8.8h-10.16l.03 7.83-4.28.02-23.95.04-.77.27-.72-.26h-5.53l-.01-1.41h-.76l.01-1.43-1.58-.01-.63-.7-2.52.1-1.16-.99-1.75-3.5-.26-1.31v-2.62l-.2-1.04-1.85-3.25-.82-.8-.05-2.5-1.35-5.62-.9-1.85-.6-2.17v-3.08l-.2-1-.63-1.04-3.73-3.86-.39-.52-3.51-6.62-2.15-2.57-3.52-2.74-3.96-3.23-.39-.95-.08-4.77-1.15-6.27-.7-1.08-1.57-1.1-.67-.98-.1-3.8.55-2.2-.28-2.03-.5-1.46-.19-1.85.3-2.09-.02-20.58.14-.77h1.28v-2.89h-1.4v-13.41l.07-.91-.32-2.61.46-2.17-.34-1.27.12-1.8-.05-7.03.28-1.14.01-3.39.16-1.05-.36-1.98-.04-1.92-.42-1.6V376.9l2.91-.02 4.3.04 13.04.02 17.28.03.03-13.09.03-21.73.04-5.81-.02-11.84h-6.1l.01-17.5-21.53-.04-13.3-.03-17.42-.04-17.41-.03-11.64-.02-23.18-.05v-17.52l.02-14.6.06-20.44-23.9-.05z"/>
    <path region="18" short-name="20" long-name="State House District 20" value="2" d="M820.02 359.9h17.27l17.35.01.02-17.42.03-17.55 17.29.02 17.28.02.1 2.92.05 14.57 6.3.14 10.87.01 15.06.1 3.35-.01-.12.53-1.05.38.01 1.14-2-.13-.47 1.07 1.18-.01 1.45.45-.1.7-.73.5.73.88-.03.64-1.1.02-1.48.75v1l1.17.05-.02.8-1.13.37.22.78 2.43.56-.12 1-1.06-.71h-.52l-1.66.76.34.86.87-.66 2.1.95.71.78.22.75-.9.35-.43-1.28-.47-.56-1.01.02-.07.56 1.16.67.16.6-1.1.35-.42.7.7 1.12-.73.69h-9.32l-.36 17.4.1 17.35h-5.7l-2.25-.08-12.13-.02-8.7-.08-.1 17.44 8.64-.05 10.81.07h5.94l.05 1.27-.09 16.01 17.26.07h3.67l.66 1.84.02 15.4 18.02-.03.7-.07 1.08 1.84.08 1.08-.6.98.02.56 1 1.37.18.81.6.72-1.5.98.6.5.96.12-.14.8.98.41-.03.72-1.05.66.4.43.84-.26.57 1.3 1.06.89.44 2.22-.1.7.65.31.85 1.93-.28.9.09 1.16.61.8-.06 1.44-.76.65.82.98.12.69.82.26-.53.8-.02.8 1.15.51.8 1.13 1.03.31.3.88-.27.79.62.5.18 2.22-.31 1.8-.88 1.06.77.42.32.7-.9.26-.83-.46-.5.73.79.65 1.77-.84.24.35-.87.88-1.05.2.58.84 1 .54-1.2 1.46.43.59-1 .66 1.26.56-.9 1.27-1.2.14.83 2.29 1.21.57 1.12-.52.52.35-.5.94.26.61-1.25.11.02 1.18.52.6-1.92 1.6 1.37.47-.39.83-.97-.1-.68.91.53.37.53-.69 1.05.13-.01.63-1.1.83.19 1.13.72 1.02-.2 1.77-.52 1.4.5 1.14-.88.5.2 1.4.67 1.23-.94.33.14 1.57 1.48 1.9.76.33.7.95-1.19.65 1.5 1.12-.56.44.47.95-.56.3-.5 1.17 1.11.77-.96.55-.98-.33.56 1.36-.53.57 1.1 1.04.13.73-.59.3.9 1.66h.75l.58.46-.56 1.21-.94.06-.56.45.74.63.57-.74.95.7-1.06.47.32.84-1.65.87 1.5.98.57.76-1.66 2.75.5 3.15-.75.78.26.87.93-.1.3.41-.77.84.52 2.08.54.83-.57 1.08.46.84-1.84.1-12.81-.22H914.27l-14.25.02-19.71-.07-.02-16.8-3.01-.03.04-22.55.05-.37.03-6.67-.03-7.87.06-8.23.05-22.93-23.18-.01-16.64-.01-.06.02-14.77-.02-.02-14.38.04-20.12v-14.32l.01-20.5-2.87-.01.02-14.5z"/>
    <path region="19" short-name="29" long-name="State House District 29" value="2" d="m736.98 443.9.43-.48v-6.26l-.4-1.02-.01-12.46-.01-29.06h13.76l.03-17.34.03-17.36 17.33-.08 8.78.02 8.5.06 2.86-.02 17.39.03 14.36-.03-.02 20.28-.02 14.48 2.87.01v34.83l-.05 20.12.02 14.38 14.77.02.06-.02h16.64l23.18.02-.05 22.93-.06 8.23.03 7.87-.03 6.67-.05.37-.04 22.55 3.01.03.02 16.8-4.16-.04-12.77.05-17.02-.19-17.14-.05-5.63-.07-11.3.05-11.37-.1-5.63-.09-14.24.07-2.65-.02-16.73.1h-14.1l-2.77.03-.05-.24.07-11.18-.04-5.53h-21.35l-12.52-.02-.01 16.96v25.63l-.03 8.53.04 3.73-.1 8.6.06 4.7 1.47-.02.44 4.88-.29 2.34.17 1-.13 1.25-.72.56-2.64.01v1.38l.78.22-.74.8v1.59l.4.36 1.15-.07.82.72.45 1-.63 1.07-5.06-.09v1.45l4.26.03v1.4l6.95.02-.01-2.23 1.54-.52.27.57h1l.02.78.7.7 2.17.01v-2.23l8.39.06.08 16.09-.02.96 11.22-.07 5.64.02-.04 11.24.04 14.16-.01 8.44-16.85.04h-16.88l-24.02.04-21.7.03-1.78.02-15.25-.06-21.54-.11-16.84-.06.12-9.76.08-15.68.15-21.53.16-20.98-4.68-.1-.04-16.92.01-17.04.06-17.06-.05-1.79v-15.14h28.68l-.01-17.22.02-17.04.04-17.17 17.04-.04 17.05.08 14.07.03 19.88-.06 14.1.06h20.04v-11.35l-.02-5.5-3.36.01-.05-11.45z"/>
    <path region="20" short-name="43" long-name="State House District 43" value="2" d="m933.09 415.07.01 4.34 1.37.72.05-1.12-.03 3.3h-2.85l.01-1.46h-2.84l-.7-2.15-.01-3.64z"/>
    <path region="21" short-name="28" long-name="State House District 28" value="2" d="m551.52 667.92 8.42.08 3.22-.04 6.49.04 10.35.02 13.46.09 20.22.06 16.84.06 21.54.11 15.25.06 1.77-.02 21.7-.03 24.03-.03h16.88l16.85-.05 20.54-.02 16.8.03 16.73.07.05 16.92-.14 28.07-.03 8.42.02 14 16.72.07 16.75-.04 16.77.04 13.98-.03 19.56.01h16.83l2.82.01.02 8.4-.01 19.4-.05 19.48.02 7.72-6.96-1.33-9.69-1.94-16.65-3.18 3.83 18.28-20.5-.03-19.08-.02-14.06-.05-25.1-.1h-15.36l-12.36-.03-18.18-.03-12.34-.15-15.8-.18-13.2-.1-24.17-.15-25-.13-22 .03-16.11-.07h-14.92l-13.14-.13-21.57.03-11.78-.07-5.52-.07.09-22.27.07-22.28.05-.37-.06-10.4.05-.36.03-9.99-5.13-.06-.04-2.98v-16.5l.03-.08.1-30.87z"/>
    <path region="22" short-name="4B" long-name="State House District 4B" value="1" d="m270.5 236.6.03 17.58 23.91.05-.06 20.44-.03 14.6.01 17.52 23.18.05 11.64.02-.05 16.7-.05.78h-10.72l-.02 23.53-.02 26.8.09 2.2 13.88.03h35.03v16.18l.42 1.6.04 1.92.36 1.98-.16 1.05v3.39l-.29 1.14.05 7.02-.12 1.81.34 1.27-.46 2.17.32 2.61-.08.9v13.42h1.41v2.9h-1.28l-.14.76.01 20.58-.29 2.09.19 1.85.5 1.46.28 2.02-.55 2.2.1 3.8.67.99 1.57 1.1.7 1.08 1.15 6.27-12.78.03-8.15 6.76-1.42-1.44-1.1-.42-1.37-.05-1.02.24-3.4 1.53-1.5-.25-1.04.06-1.85 1.06-4.99 1.63-.76.58-2.97 1.14-4.47 1.04-2.02-.06-1.13.3-.89-.16-3.07-1.23-2.77-.67-1.62-.2-2.12.42 1.98-4.6.52-.17v-5.43h-16.99l-.02-16.93.16-14.34.06-2.87-.05-17.24-.12-17.29-.01-12.8-6.62.01-1.88.09-15.28.02-8.63-.1h-8.52l-15.22-.1-1.91.12-17.2-.05-17.12.02h-5.17l-.5-.43L197 398l-2.84-1.48-.51-.59-.2-1.01-.03-3.5-1.2-1.83-1.06.02-1.22 1.1-1.9.73-2-.43-.93-.72-.85-1.6.58-1.59.19-1.94-.16-1.61-.56-.65-1.27-.56-1.56-.2-1.97-.84-3.94-.08-3.27-1 .05-.49 2.1-1 .37-1.04.17-2.13-.97-1.45-1.73-1-1.14-.3-2.53 1.72-1.27.53-1.56.04-2.94-.95.05-.27v-31.86h3l12.75.07 11.3-.04 7.51.04 17.3.02h17.27l.02-17.81h-7.27l.01-17.46-.03-.61-.02-16.93 17.45.01v-14.6l.04-20.52h10.82l.05-17.6 5.04.03z"/>
    <path region="23" short-name="23" long-name="State House District 23" value="2" d="m.5 370.82 2.65.01 1.5-.27.58.25h19.56l17.28.04 1.36-.08v-1.14l-1.33-2.06-.13-3.03-.73-.94-1.39-.54-.6-1.07-.19-2.72.01-3.92.48-1.14.71-.48 1.17-.13 1.03-.49.9-1.93.97-.57 4.09-.05 1.75.13 3.1-.04 1.4-.6 4-.14 1.14.72h2.36l.02 8.7h-2.83l-.04 5.72-.4.08-8.24.01-.05 2.9.07 3.4-.06 3.1h-1.81l-1.67.65-2.88 1.87-.7.88-1.93 1.79-.73.46-.22 1.17.48.83 2.56 2.27 1.07.51.48.8-.2 1.48-.5.67-1.52 1.14-2.85 1.64-.98-.5-2.1-2.64-1.85-.6-.82.77-.68 1.64-.28 2.37.64 1.6.18 2.84-.7 2.65-.53 1.15-2.2 2.5-.9.54-.63-.22.37-1.35-.06-2.04-.41-.58-3.57-3h-.46l-.62 1.28.93 1.38.2 1.31-1.11 1.43-.68 3.03-.82 1.15-1.68 1-1.03.13-3.2 1.07-1.26-1.33-.9-1.51-.9-1.1-1.57-1.2-1.72-.75-1.9.1-.68.5.05 1.3-.48.82-1.26.83-.83.12-.8-.86-.33-1.62-1-1.92-.83-.53-2.18-.85z"/>
    <path region="24" short-name="11" long-name="State House District 11" value="2" d="m961.7 623.4 2.94.02v-.84h3.28l-.01.81 1.47-.01.9.86-.1.64.55.78-.91.46-1.4-.24-.98.07v.94l-1.72.18-1.12.04.02-.92h-2.8z"/>
    <path region="25" short-name="9A" long-name="State House District 9A" value="1" d="m515.9 197.6 17.74.03-.37.44.07 11.65.45 2.47.06 2.22.27 2.37-.78 3.2.04 2.28v8.38l-.26.9-.9 1.5-.12.9h-1.61v2.93h2.94l-.02-2.93h2.86v-5.87l14.66.03.01-8.79 19.9.08 15.18-.05-.01 8.82-.06 8.8 17.59.05-.02 17.56h4.39l-.02 17.5v17.54l-18.71-.03-19.06.04-23.23-.05-26.1-.04.03-17.55.02-17.51h-5v-26.85l.03-1.15v-18.93z"/>
    <path region="26" short-name="30" long-name="State House District 30" value="2" d="m430.9 636.1.81.26 1.92.08.02 1.4.58.01-.03 4.24H437l.03-3.55.94.03.46-.85-.03-5.03.86-.92.65-.11-.21-.85h3.08v-1.04h1.35l1.42.36-.13 14.8 2.82.02-.06 5.63 5.61.02-.06 8.23-.49-.04-3.16 1.2-3.48 2.57-1.36.58-2.13.35-1.19-.45-.95-.84-.2-.67.38-1.37.57-.7-.18-1.59-1.14-1.54-1.06.12-1.8.9-1.12.16-.92-.4-.5-.62-.46-2.23-.76-2.42.93-.61 1.66-.25.46-.48.16-1.21-.75-1.53-2.06-.1-1.42.31-1.6-.36-1.7-1.34-.6-.96-.2-1.56-.42-1.29.4-1.36.83-.99 1.44-3.04z"/>
    <path region="27" short-name="34" long-name="State House District 34" value="2" d="m430.98 633.86.2.53-.29 1.7.03.98-1.44 3.04-.83 1-.4 1.35.42 1.29.2 1.57.6.95 1.7 1.34 1.6.36-1.1.14h-2.47l-1.63-5.4-.57-.88.09-.89-.4-1.7-.68-1.66-.45-1.67-1.13-1.94-.47.35-.04 1.36-1.6-.49-.06-1.13-2.85.02.1-3.3-.88-.09-.17-.82-1.39-.03v-1.34l4.11-.08-.06-1.06 2.48.66.68.84.4 1.39 4.36 3.26 1.35.46z"/>
    <path region="28" short-name="36" long-name="State House District 36" value="2" d="m165.19 619.96 2.8.03 2.84.29v-3.96l-1.5.01V615l-2.72-.07v-2.82h1.4v-2.68l.23-.16h5.4v-2.82h2.81l-.02 2.86 2.69-.02-.04-9.27 11.84.02.43-.03h20.4l-.01-2.83h5.28v-1.6l2.12-1.26 9.51.02V583h2.83l.02 2.83h2.6l1.36-.68.31.68 2.33.03.45-.46.03-1.85 4.23-2.16-.06-6.92 2.73.03.76-.12.53-.93.7.25 2.58-1.37.23-.55 1.58-.85 2.26.69-.06 28.35 6.53.02h27.88l2.21.01 28.23.02h23.25l13.48.02 13.46.01.1 19.26.05 4.16 2.9-.41-.38.43 1.28.88v1.25l-.9 1.04-.04.89-.63.58.63.79-1.29.93h-.95l-.53.52v4.24l.4 27.34-.35.8-3.34.01-.51.76.03 4.86-21.13-.04-.15.03-22.09-.07-11.23-.04.02-16.86-19.62.03-16.82-.01-14-.01.01 5.85-.08 11.02H249.4l-18.06.12-14.37.08-17.91.02-.2-.62-.13-10.68-.1-15.86-.18-1.22-1.03-2.02-.1-1.64.2-1.54-.24-1.36v-5.09l-4.03.08-4.82-.75-14.77-.04-2.81.02-.06-1.56h-1.37l-.85-.72-.01-2.11h-1.97l.03-1.5-1.35-.27z"/>
    <path region="29" short-name="40" long-name="State House District 40" value="2" d="m364.02 306.93 13.3.03 21.52.04-.01 17.5h6.1l.02 11.84-.04 5.8-17.3-.03-14.51.04v5.81l-5.46-.07-.32 1.53v1.44l-1.76.23-1.13-.25.01-2.16-.6-.71.25-.84-2.54.04v-22.75h2.46l-.05-.64.05-6.82-1.63-1.15 1.63-2.25z"/>
    <path region="30" short-name="42" long-name="State House District 42" value="2" d="m912.13 394.89 11.54.02 1.37 1.87 2.18 1.77.76 1.12.23 1.04-.4 2.91.24 1.8v6.76l5.13-.01v1.55h.79v1.35h-.88l-5-.01.01 3.64.71 2.15.1.58v6.3l.62 1.8h-3.66l-17.26-.08.08-16.01-.04-1.27h-5.94l-10.81-.07-8.64.05.1-17.44 8.7.08 12.13.02 2.25.07z"/>
    <path region="31" short-name="47" long-name="State House District 47" value="2" d="m421.75 619.93 1.06-.5h.7l.06-1.38h2.36l.37.5.91 2.77.18.93 6.99.11-.02 2.79 2.84.01-.06 4.14h-3.95l-.46.1-3.75 1.72-2.63-2.75-1.03-1.44-1.88-4.23z"/>
    <path region="32" short-name="3" long-name="State House District 3" value="2" d="m367.31 350.86.01-1.44.32-1.53 5.45.07v-5.81l14.52-.05 17.3.04-.03 21.74-.03 13.09-17.28-.03-13.05-.02-4.29-.04v-23.55l-1.43-1-1.46.04z"/>
    <path region="33" short-name="10" long-name="State House District 10" value="2" d="m957.57 624.73.03-2.83 1.4.03v1.43l2.7.04.11 2.79.2 5.63h-2.97l-.07-2.24-2.8.08-.02-1.42 1.24-.42z"/>
    <path region="34" short-name="12" long-name="State House District 12" value="2" d="m744.8 549.2-.02 12.8-.01 21.32-.03 17.02h3.7l.04 4.15.07 29.94-5.64-.02-11.22.07.02-.96-.09-16.09-8.38-.05v2.22h-2.18l-.7-.71v-.78h-1.01l-.27-.56-1.54.51v2.23l-6.94-.02v-1.4l-4.26-.03v-1.45l5.06.09.63-1.06-.45-1-.82-.73-1.15.07-.4-.36v-1.59l.74-.8-.78-.22v-1.38h2.64l.72-.57.13-1.24-.17-1.01.29-2.34-.44-4.88-1.47.01-.06-4.7.1-8.6-.04-3.72.04-8.53-.02-25.63.02-16.96 12.52.02h21.35l.04 5.53-.07 11.18z"/>
    <path region="35" short-name="13" long-name="State House District 13" value="2" d="m950.39 617.52 2.55.2.5 1.13v1.46l4.25.18-.1 1.41-.02 2.83-1.4-.02-.04 1.43-1.95.05-1.28-.47-2.5-2.3-1.67-2.08-1.03-.8-1.2-.3h-1.76l.01-2.7z"/>
    <path region="36" short-name="18" long-name="State House District 18" value="2" d="m921.72 360.14-.88 1.21-.27.82 1.7.47.08 1.03-1.33.56.29 2.15.83.59 1.42-.64.83.33-.33.81-2.22 1.23-.75 1.16.31.82.75-.45 1.51.34.47.91-.85.77.16 1.19.9 2.05.07.93-.3 1.12 1.83.39.15.98.82.62-.23.58.56 1.58-.13 1.69-.3 1.15.7.12 1.44 2.57 1.51 1.1.45.92.25 1.26.23 2.8-.47 1.72.4.59.8.23-.47 1.09.33 2.2 1.24 1.11.2 1-.78 2.78.29.7-.57 1.37.98.78.2.98-.34.8.08.89 1.28 1.04 1.19.33-.18 1.22.22.62.81.51 1.59 1.56-.8.77.86.56.3 1.18-1.22.37.54.96-.51.48-.67.02.01-1.2-2.15.01-.03 1.04-.05 1.12-1.37-.72-.01-4.34h.88v-1.34h-.78v-1.56h-5.14v-6.76l-.24-1.79.4-2.91-.23-1.04-.76-1.12-2.18-1.76-1.37-1.88-11.54-.02-.09-17.36.36-17.4z"/>
    <path region="37" short-name="21" long-name="State House District 21" value="2" d="m957.69 620.5 4.13.04.18-2.79 3.16.02.66.72 1.18.69 1.04.27-.01 1.37 1.78.18.24-.4-.4 1 .16.7-.43 1.08-1.47.01v-.81h-3.27v.84l-2.94-.02-2.7-.04v-1.43l-1.4-.03z"/>
    <path region="38" short-name="27" long-name="State House District 27" value="2" d="m956.22 631.79-.06-2.12 2.82-.1.07 2.26.06 4.15h2.92l.04 1.47 1.58.05-.02 1.42-.33.72 2.87.04.03.56 1.21.15-.12-2.11 1.63.02-1.24 1.5.71.25.74-.47.36.47-.7 1.13 1.63.5-.39 1.48-1.14.44.44.57-.13 2.4.36.37.4 2.1-.02 1.3-1.5 1.08 1 1.24-.75.51-.05.8.61 2-.65 1.16.26.75-.06 1.15-1.46.08.04.75.67 1-.99.14.5 1.27-.28.26.1 1.27 1.1.97-.45.48.44.8-.29 1.61-.68.77-.19.02-16.93-.01.03-14.12h-1.4v-.7l1.4-.01-.01-8.47.16-.39-.18-3.16h-1.4v-1.42h-1.41v-1.42h2.8v-2.12l1.75.05v-2.06h4.22z"/>
    <path region="39" short-name="17" long-name="State House District 17" value="2" d="M928.81 420.85h2.85l-.02 1.45h2.85l.03-3.29.03-1.04 2.15-.01v1.2l.66-.02-.13.61.8.78-.8.84-.06.51.8.8-.25 1.53 2.12.48.5.55-.52.68.98 1.01.1 1.78.68 1.55-.08.84.83.06.67 1.43-.34 1.03.55.57-.04 1.34.33.8-1.1.93.94.58.7 1.26.9-.43.48 1.04.76.51-1 1.41 1.03.15-.15.76.81.11-.4 1 1.19-.07.18.54 1.42 1.18-.49.8.18.56-.71.07-18.02.03-.02-15.4-.66-1.84-.63-1.79v-6.3z"/>
    <path region="40" short-name="4A" long-name="State House District 4A" value="1" d="m199.6 399.1 5.17.01 17.12-.02 17.2.05 1.9-.12 15.23.1h8.52l8.63.1 15.28-.02 1.88-.09h6.62v12.8l.13 17.28.06 17.24-.07 2.87-.16 14.34.02 16.93h17l-.01 5.43-.52.16-1.98 4.61-2.7.93-1.08.59-6.39 4.56-1.04.47-1.94 1.33-1.57.52-1.6-.22-9.56 7.42h-4.36l.01-1.57-7.05-.01-.04-1.28h-5.68v-.74l-8.48-.05V502l-3.48.14-10.7-.11h-2.82l-.02.74-3.15-.1-5.3-.01.06 1.52-11.35-.06-.09 1.42-8.4.2v-1.01l-2.85.08-.1-9.21-.4.24-1.54-.86-2.27-.45-2.78 1.58-.71-.26-.7-1.36-2.28-1-1.86-.63-3.16-.8-.9-.74-.4-1.68-.65-.68-1.31-.1-3.05 2.02-.75.13-.87-1.34-.53.03-1 1.18-1.75 1.5-1.47.47-.67-.54-1.32-1.66-.6-1.65.47-1.28 1.24-.53.58-.89-2.48-3.54-1.07-.6-3.21 2.4.12-1.97-.3-.4-1.17.27-.96-.07-.55-.53.69-1.99-1.07.63-1.09-1.3-1.06-.52-1.1-.04-1.4.76.14-15.78-.1-17.24.04-21.03-.07-19.23.08-2.8-.03-4.28 4.47-.03z"/>
    <path region="41" short-name="9B" long-name="State House District 9B" value="1" d="m533.64 197.63 18.12.02 12.32-.04h21.7l17.75-.02h19.98l15.12-.05 17.32-.04 17.76-.05 17.45-.04h17.6l17.5-.02h17.53l17.6-.02H779l-.1 10.38-.04 8.71.02 4.02v16.63l-.01 17.6h3.3l-.04 17.7-.02 17.51-17.41-.1-17.43.03h-17.43l-17.39-.05h-20.4l-28.4-.12-17.95-.01-20.38-.01-17.43-.05.01-17.54.02-17.5h-4.4l.03-17.56-17.59-.06.06-8.8v-8.8l-15.18.04-19.89-.08v8.79l-14.66-.03v5.88l-2.87-.01.01 2.93h-2.93v-2.93h1.61l.12-.9.9-1.5.25-.9v-8.38l-.03-2.28.78-3.2-.27-2.37-.06-2.22-.45-2.47-.07-11.65z"/>
    <path region="42" short-name="24" long-name="State House District 24" value="2" d="m744.8 549.2 2.77-.02h14.1l16.73-.1 2.65.02 14.24-.07 5.63.09 11.38.1 11.3-.05 5.62.07 17.14.05.03 5.93.02 16.9.02 14.48-.1 13.94 3.3.02v11.83l-.04 22.25v16.94l-.04 16.92 19.98.08 18.2.02 15.47.02.02 16.75-.07 19.67.02 4.3-.07 9.56.02 16.92h-16.83l-19.56-.02-13.98.03-16.78-.04-16.74.04-16.72-.06-.02-14.01.03-8.42.14-28.07-.06-16.92-16.73-.07-16.79-.03-20.54.02.01-8.44-.05-14.16.05-11.24-.07-29.94-.03-4.16h-3.71l.03-17.01V562z"/>
    <path region="43" short-name="38" long-name="State House District 38" value="2" d="m329.18 306.86 17.4.03 17.44.04v6.63l-1.63 2.25 1.62 1.15-.05 6.82.05.64h-2.46v22.75l2.54-.04-.26.84.61.7-.01 2.17v1.33l-2.98.26-.42 1.97-.05 1.91.58.33v2.9l5.79.02-.01-2.23 2.88-.75.01 20.3-2.91.02h-35.03l-13.88-.03-.09-2.2.02-26.8.03-23.53h10.7l.06-.78z"/>
    <path region="44" short-name="44" long-name="State House District 44" value="2" d="m971.98 614.44-.8.13-.4.63-.4 1.54.92.72-.54.48.01.93.83.21-.32 1.2-1.42-.51.2.84-.25.39-1.78-.18.01-1.37-1.04-.27-1.18-.69-.66-.72 2.33.01.02-4.25 2.83-.05v.97z"/>
    <path region="45" short-name="46" long-name="State House District 46" value="2" d="m963.64 637.5.07-1.2.4-.4-.06-1.16h.7l-.17-5.7 1.26-.62-.12-1.35 1.71-.18v-.94l.98-.07 1.4.24.53 1.06-.8 1-.55 1.32-.62.47-.13.9-.73.17-.25.8-.36 1.32.81.55-.17.8.24.84-.7.41.93.69-.26.93 1.17.92-1.63-.02.12 2.11-1.2-.15-.04-.56-2.87-.04.33-.72z"/>
    <path region="46" short-name="1" long-name="State House District 1" value="2" d="M62.2 359.33v9.42l.9.14 2-2.45-.02 2.56-1.4.45-.03 2.87-2.16.06-1.27-.38-1.17.81-.86 1.5-1.7 1.71-1.1.63-.83.02-1.24-.42-1.5-1.22-1.18-.48.06-3.1-.07-3.41.05-2.9 8.23-.01.41-.08.04-5.71z"/>
    <path region="47" short-name="16" long-name="State House District 16" value="2" d="m950.4 623.41 2.5 2.31 1.28.47 1.95-.06.03-1.42 1.4.02-.17 3.09-1.24.42.01 1.42.06 2.13-4.21-.1-.02-.48-1.62-.79z"/>
    <path region="48" short-name="22" long-name="State House District 22" value="2" d="m846.36 549.29 17.02.19 12.77-.05 4.16.04 19.71.07 14.25-.02h16.93l-.02 5.74.03 11.32.07 17.06-.11 17.14h16.7l2.81.05-.21 13.85-.08 2.84-5.64.02-.01 2.7h1.77l1.19.3 1.03.8 1.67 2.07-.03 7.01 1.62.79.02.49 4.21.09.12 2.84-4.22-.01v2.06l-1.75-.05v2.13l-2.8-.01v1.42h1.4l.01 1.42h1.4l.19 3.16-.17.4.01 8.45-1.4.02v.7h1.4l-.03 14.12-14.14.06-16.63.07-16.4.04-15.48-.01-18.2-.02-19.98-.08.04-16.92v-16.94l.04-22.25v-11.83l-3.3-.02.1-13.94-.02-14.48-.02-16.9z"/>
  </g>
</svg>
