<svg title="Oklahoma 2022 State Senate" viewBox="0 0 1000 484.26" auto-border-stroke-width="1" auto-border-stroke-width-limit=".5" original-source='["https://www2.census.gov/geo/tiger/GENZ2022/shp/cb_2022_us_sldl_500k.zip"]' candidates="[{&quot;id&quot;:&quot;0&quot;, &quot;name&quot;:&quot;Democrats&quot;, &quot;margins&quot;: [{ &quot;color&quot;: &quot;#1C408C&quot; }, { &quot;color&quot;: &quot;#577CCC&quot; }, { &quot;color&quot;: &quot;#8AAFFF&quot; }, { &quot;color&quot;: &quot;#949BB3&quot; }]},{&quot;id&quot;:&quot;1&quot;, &quot;name&quot;:&quot;Republicans&quot;, &quot;margins&quot;: [{ &quot;color&quot;: &quot;#BF1D29&quot; }, { &quot;color&quot;: &quot;#FF5865&quot; }, { &quot;color&quot;: &quot;#FF8B98&quot; }, { &quot;color&quot;: &quot;#CF8980&quot; }]}]" version="1.1" xmlns="http://www.w3.org/2000/svg">
  <g regions transform="translate(0 -257.87)">
    <path region="0" short-name="13" long-name="State Senate District 13" value="1" d="m683.67 556.85.76.54.4-.25-.3-.92.24-.29 1.04.08.84-.15 1.26.32.66.47 1.49-.27.92.37.51.92.7.4 1.01-.23h.95l.35.42 1.6.77 1.15.08 1.17.7 1.8-.98.53-.1 1.47-.92.63-.6.61-1.39.62.1.4-.84.59-.75.22-.72 1.23-1.08 2.12-.95.82.18.85.7.4.05.86 1.8.74.55.74 1.36.06.45.53.46 1.06.03.96-.48.83-.1.93.18 1.36-.7.74-.8 1.58-.96.46-.03.67.4.93.97.66.95-.2 2.78.15.65.93.72.65.24 1.1-.11 1.75-.13.6.15.78 1.35.19 1.21.6 1.77.97 1.37 1.26.42 1.23-.42 2.12-1.25.9-2.09.02-.76-.34-1-.75-1.14-.92-.81-.86-.35-.07-.65.59-1.09.81-.9.88-.43.98.04 1.85.5.66.52.47.7.58 1.5.82 1.28 1.5.4 1.32-.05 1.01-.22 2.03-.78 2.18-1.5 1.52-.1.84.43.19.96-.07 1.33.73 1.56.68 1 1.16 1.13.61.37.83-.05 1.04-.79.74-1.57.7-.99.26-1.31.84-1.12.03-15.76.01-13.48h5.73l.02-8.29-.02-16.6 18.58.02h12.4l9.28.02 13.38.01.02 12.42h-.2v7.3l-2.57.42-.84.53-.15.47.55 2.8-.17.67-.41.13-1.44-.58-.44.04-1.39 2.28-1.52 1-.9 1.32-.2 2.41-.57 2.08-.47.45-1.81.5-.03 14.04.01.33v13.4l-.34.04-.02 12.37-19.3.09h-4.13l-13.25-.07.01 12.4-12.34-.02V616.83l-.2.03-13.43-.04-15-.04-.1.01-11.8-.04-2.65.01-2.44-.59-1.37-.09-.1.71v4.04l-4.08.02v6.13h-.63l.18 1.04-1.6 1.1-.86.75-1.05-.58-.02-.42-1-.23-1.84-.65-.71-.61-.81.2-.59-.18-.11-.6.43-.35-.35-.66-1.61-1.48.25-1.6.83-1.38.08-.72-.28-.52.53-.88.81-.71-1.14-1.78h-1.63l.02-1.54-.51-.52h-.54l.04-4.12-.04-2.05-1 .04-1.05-1.07-4.08.01v4.1h-6.41l.25 1.11-.01.73.41 1.13.82.05-.38.65.32.5.73.48v.47l-16.13-.04h-14.32l-18.35-.02-.11-1.2.05-7.04-.02-16.44-12.3-.03.04-21.85.78.6.73-.1-.14.72 1.57.66.25.37 1.6.04.73.4.4-.22.91.72.49-.88 1.34.13 1.12-1.75.9.4.31-.49-.79-.34v-1.06l1.73.02.31-.28-.1-1.79 8.08.02.09-.02 22.61.01h4.06l-.01-8.26h-2.05l-.01-5.84.07-.98 1.2-.08.65 1.58.6.75h.93l.37-.5.49-.04 1.58 1.04-.04.63.83.4.23-.9.7-.47 1.48.6.8.03.32.54-.06 1.11 1.04-.2 1.27.14 1.13-.3 1.41-.08z"/>
    <path region="1" short-name="47" long-name="State Senate District 47" value="1" d="m644.1 453.23-.43 3.91-.18.35-1.08-.02v1.29l-.54.79-3.62.02-1.16-.1-2.98-.02v4.25h-1.52l-.44-1.02-.15-1.05h-3.1l-7.26-.02.01-8.35 12.46-.02 9.36.03z"/>
    <path region="2" short-name="27" long-name="State Senate District 27" value="1" d="m.04 258.18 1.78.23 12.73-.16 7.63-.02 8.21.3 5.12.37 40 .09 11.03.02 6.12.1 19.4.1 12.46-.08 12.68-.07 12.63-.07 10-.06 9.02-.07 8.16-.03 8.2-.05 15.38-.1 8.36-.07 16.92-.11 6.28-.04h7.83l4.78-.06h5.7l4.83-.07h9.3l21.35-.23 13.68-.07 19.17-.1 8.9-.05 9.1-.01 14.06.08h13.97l11.81.12 13.6.1 1.05.08h12.54l9.9.02 5.75-.02 3.69-.08 11.41.08 17.81.03 8.77.03 2.38-.06 3.38.01 15.27.04h9.04l3.54-.02 5.5.05h19.81l-.04 8.3h.56v11.63l-.04 20.08v18.97h.83l-.02 19.02h18.8l17.74-.02 13.53.04-.01 6.3v23.07l.1 2.09-.03 11.71-5.22.03-9.53-.04-10.14.02-18.66-.01-16.55-.07-2.08.07.09 30.05v8.34h.47l.01 12.44-9-.01-1.64.05-12.57-.05-1.59-.04-4.45.04-15 .02-17.77-.02-22.81.04h-1.94l-.1 10.36-.04 16.61v10.43h1.5v6.16l-14.38-.02h-10.3l-.02 12.5-4.2.02-14.26-.08-16.6-.01-14.47-.03V331.04h-37.77l-1.2.04-12.44-.01-9.47.03-14.71-.03-13.24-.02-10.38-.01-9.95.01-12.74.01-4.65.04h-13.96l-18.9-.02-25.22-.01h-13.5l-1.24-.04-13.68.01-12.09-.12-11.91-.02h-10.47l-.4.05h-4.31l-9.63-.06-.64.05H.02l-.02-3.8.04-11.06L0 305.54l.04-6.44v-6.42l.03-21.29-.03-.29Z"/>
    <path region="3" short-name="3" long-name="State Senate District 3" value="1" d="m844.74 415.14.02-2.2-.01-14.22h1.56l2.6 1.06v1.05l6.23.04.01-10.52-.03-10.46 6.17-.05v-1.28l-.28-.38.28-.54.14-1.1 1.37-.64 2.2-.23 6.82-.03 2.1.04h8.35v-2.13l.18-6.24h.34v-4.2h2.1v.6l1.88-.6h2.3l-.01-2.12 4.19.02v6.3H910l-.03-1.3 2.12-.02v1.95l.25 2.05 2.39-.94 1-.93.35-1.2.12-1.57 1.34-.54 1.32-.7.97-.05.82.48 1.15-.18.28-.98.68-.79.68.03 1.01.65.2-.42 1.16-.01 1.08.29.38-.09 1.77.52 1 .47 1.28 1.19h1.62l.01 2.18-.54-.01-.13 4.27v8.31l10.38.04 14.58-.02V408.91l-.98.1-.79.79.22.61-.37.47-.76.23-.02.42-.7.67-.42.78.52.61-.91.95-.39.16-.64-.92-.63.57-.83-.93-1.61.01-1.48.68-.52.36-2.24.2-1.45-.54-1.18-.28-.23.14-.95.18-.54-.24-.15-.5-1.67-.5v-1.05h-1.05v-.54l-5.2.01v6.27l-3.14.01v2.21h-.65l-.37.74v.83h1.03l.04.52h2.03v.82l-1.17.05-.4 1.07-.87.52-1.03-.1-1.42.37-1.59.75-.26.7-.67-.02-.42.8-1.5.83-.1.48h-3.01v2.1l-11.96-.05-4.2-.03h-8.4l-.8-.05-.92-.52-.93-.75-.4.4-1.16.61-1.04.18-4.39 2.1-.7.17-2.34-.22-2-.69-1.64.07-2.33.68-2.7 1.04-2.09.24-.7.34-1.05.15-.32-.22-.8.12-.6.71-1.05 1.64-.3.26-.56.6-.64.02-.4-.31-.97-1.5-.87.22-1.42-.17-1.17-.69-.79-.74-.17-.48.26-2.03-.46-1.49.22-.9.06-1.61-1.17-1.33.13-.76-.36-.91.08-.42-13.5.05H838v-6.45l6.7-.01z"/>
    <path region="4" short-name="4" long-name="State Senate District 4" value="1" d="m918.76 461.46-.05-3.5.05-2.67 13.38.03 1.36-1.1 1.77-1.98.88-1.55.34-1.6.66-1.13 1.17-.83.27-.47-.75-1.3.43-.7 1.06-.17.68-1-.27-1.15-.48-1.08.55-.28.94.34.55-.15.82-1.21.23-1.25.75-.26.44.63.84.22.7-1.44-.85-.64-.62-.91-.46-1.5-.92-.4-.89-.78-2.13-.64-1.3-.06-.5-.6-.03-5.16.02-5.23 4.38-.02-.36-.66-.68-.37-.57-.65-.05-.55.67-.08.25-1.63.75-.34.1-.67-.3-.45.18-.94.64-.85-.58-.74.23-.14 1.18.28 1.44.54 2.25-.2.52-.36 1.48-.68h1.6l.84.92.63-.57.64.92.39-.16.9-.95-.51-.6.43-.8.69-.66.02-.41.76-.24.37-.47-.22-.61.79-.79.97-.1V379.99l-14.57.02-10.38-.04v-8.31l.13-4.27.54.01v-2.19l-.02-6.3.04-12.58-.04-3.15.02-6.55-.02-4.44.92-.17.97-.42 3.03-2.08.6-.52.42-1 .13-1.25.6-1.28.6-.43 2.07-.3.74-.24 1.1-.85.98-1.6.67-.54 1.46-.3 1.15.28 1.51 1.04 1.83 1.13 1.06-.15.7-.6.32-.72-.35-.93-.91-1.1-.76-1.21-1.09-2.58.08-1.5.3-1.1 1.55-1.71 1.29-1.04 1.45-.45 2.11.38 1.16-.34.93-.63.55-.82.27-1.42-.51-1.13 2.95.05 1.94-.04 13.41-.02.03 8.04-.02 16.44.48 3.36.98 7.88.4 2.87 1 8.17.84 6.63 1.75 12.88 1.18 8.5 1.55 10.66 1.52 10.9 1.42 9.87.6 4.67 1.18 8.25.9 6.85.74 5.04.67 5.14 1.74 12.58 1.1 8.02 1.58 12.32 2.2 14.79-.55 1.05-1.22.86-1.7.2-1.43.42-1.26.9-.36.66.1.64.62 1.16-.68.78-5.22-.04v-4.16l-1.04.06-.03-2.14h-1v-3.12h-1.07l.05-1.06-1.04-.02-.02-2.06-2.04.03-.05-2.07-4.12-.05-.02 1.94-1 .15-.02.5-3.1.01v1.56h-5.15l-3.23-2.18-1.62-1.4 1.8-.05v-1.2l-2.22-1.26-.79-.14-.03-4.16h-8.04l-.08.82-.4 1.27-.82-.27h-1.05l.01.79-3.1-.01v2.85h-3.07l-.04 3.94-4.16-.03-.16.43.35.87-1.94 2.24-.78-.84h-.92l-.79.23-1.05-.18-1.38-.06-1.57-.52-.73-.37-1.57-1.49-.44-.76-.1-.7.15-1.9-.19-.66-1.28-.56h-.88l-.76-.27-1.34-.89-.48.04-1.36.86-.42-.04-.88-.82-.47-2.13-.44-.86-1.34-1.06-1.54-1.8-.44-.91-.34-1.33-.55-.69v-3.69h.58z"/>
    <path region="5" short-name="5" long-name="State Senate District 5" value="1" d="m918.2 592.03 8.44-.02-.04-8.26.06-16.5 7.2.02-.02-10.79-.02-1.59h8.22l-.02-16.56v-20.6l13.25.05v-6.2l1.98.06.26-.14 3.22.12.72-.06v-.5l1.2-.07 1.78 1.46 1.29.4 2.84.2 1.97-.42 1.22.02-.01-2.1-.84-.7-1.75-1.2-.73-1.12.16-1.12h1.81l.06-.61-.44-2.48-.7-.05-1.08.5h-.58v-1.53h.97l.06-.52 1-.01-.01-2.16.7.37.51.66.18.61.07 1.95.32.6.79.8.66.35 1.77.19 1.7-.37.95-.53 1.1-.94 1.4-2.52.58-.68.47-.22 2.14-.12.86.46 1.69 2.2 1.39.75 1.07.1 1.68-.56.93.53 1.17-.19.77.67 1.07-.52.5-.68-.26-1.22-1.02-1.05-.32-.63v-1.82l.98-.61.68-.78-.62-1.16-.1-.64.37-.65 1.26-.91 1.42-.41 1.7-.21 1.22-.86.46 2.37-.07.85-.22 8.17-.12 2.14-.04 2.32-.13 3.6-.14 1.54.02 1.2-.17 4.8.02 1.44-.27 9.62-.38 12.98-.56 18.9.03.76-.5 17.7-.5 17.47.01 1.13-.3 12.34-.27 12.03-.35 14.62-.05 1.05-.52 22.86-.28 12.3-.26 11.41-.24 9.08-.22 10.67-.13 4.23-.46 18.9-.07 4.04-.12 3.44-.04 3.57-.61.23.42 1.02-.47.54-.73.15-.8.47-.8-.34-.67-1.35-.35.41.26.96-.21.69-.88.31-.91-.85.01-.45 1.88-1.69-.34-.5-.65-.08-1.6.67-1.2 1.13-1.47.3-.75-.5.24-1.02 1.1-.67 1.58-.6.33-.72-.08-.6-.74-.7-1.23.52-1.21.66-.85.94-.63.24-.88-.25.44-.64 1.34-1.3 1.43-.45.34-.55-.21-.34-.8.06-1.26.34-.05-1.78-.8-.98-.7.36.36 1.04-.36 1.46-1.15.33-.55-.35-.47-.64-.19-.78-.5-.78-.55-.16-.68.19-.32 1.07-.83 1.24-2.08.62-.86-.13-.71-.46-.2-.56.25-.5.83-.45 1.22.66.67-.44-.39-1.47.4-.18.8-1.47-.66-.82-.5.52.15.74-.2.75-.47.02-1.01-.83-.72-.21-.46.18-.71.77-.8.49-2.42-.52-1.38-.13.52-1.2 1.24.01.06-.84-1.13-.77-1.92-.93-.81.23.4.96 1.16.35.42.38.14.94-.48.86-1.76-.36-.7-1.35-1.19-.52-.14-.75 1.7-.6.68-.77-.27-.92-.77-.03-.26.26-.13 1-.82.56-.6-.6 1.05-.92-.36-1.27-.36.05-.72.89-1.46-.02-1.11-.43-.66-.71 1.27-1.39.42-.18 1.4-.04.47-.47.07-.66-.34-.48-1.21-.38-.52.4-.7 1.87-1.74 1.01-.75.67-1.03-.28-.58-.62.37-.87.09-.77-.53-.6.06-1.15-.28-.6-.79-.12-.56.68-.08.79.9 1.48.35 1.78-.28.3-.68-.32-.28-.78-2.17.13-1.33-.33-1.63-1.01-.08-.81 1-.97-.16-.99-.66-.2-.01 1.37-.3.44-.86-.82-.45-.8-1.17.02-.75-.62v-.56l-.85-.16-1.22-1.86.03-.6.54-1.75.51-.05.29-.52-.22-1.13-.32-.57-.84-.6-.47.04-.03.83.37 1-.24.95-1.73.43-.92-.38-.66-1.14 1.13-1.8-.66-.6-1.74-.49-.17-1.6-.35-1.75-.85.15-.64 1.06-.8.18-.48-.2-.57-1.13-.52-.36-1.21.7-2.9-.3-1.1-.33-.49-.97.03-1.13-.9-1.41-.21-2.02-.64-.23-.8.12.23-.8.53-.05.31-.64-.64-.6-.62.3-.12.91-.43.83-.21 2.92-.21.33-.84-.13-1.09-1.41-.15-.74.4-.5 1.17-.58.73-.55.48-1.08-.7-.9-.79 1.07-1.82.65-.91.7-.53.14-1.1-.49-.55-.73-.05-.53 1.04-1.22.18-.93-.4-.47-.75-.32-1.05.3-1.85-.3-.1-.84.03-4.55v-25.59h-13.63l-12.71.02h-12.3l-.73-.86-.03-.66.44-1.11.5-.85 1.1-1.05-.9-1.11-.23-.5-.7-2.55-.2-2 .58-.55-.38-.6-.88.19-.32-.16-1.05-1.74-.35-.33-1.3.69-.7-.76-.42-.05-1.17.64-.32.62-.73-.43-.52.07-1.79 1.34-.54.05.03-.83-.53-.56-1.29.1-2.33-.17-.83-.59-.73-.08-.14-.55.34-1.1.5.18.67.89.3-.18.04-1.5-1.21-1.36-.4-.96-.07-1.2-.58-1.47.54-.69-.06-1.16.26-.54-.52-.34-.82-.07-.84.43-.17-.55.65-1.46 1.03-.58 2.45.49.66-.17.25-1.17.31-.61.08-.76.33-.47.38-1.7.45-.55.8.5.29-.89-.24-.5-.93-.05-.57.18-.1-.58.63-2-.02-.59 1.67-1.4.58-1.12-1.16-.95.21-1.33.54-1.15.5-.32.99.13.45-.36 1.2-.43-.07-1.03 1.1-1.57 1.02-.2.55-.9.03-.63.36-1.3 1-.79.5-1.14 1.55.07 1.3.26.81-1.52.9-.16.06-1.05-.13-1.87.87-.49.97.58 1.17-1.5.03-.63 1.16-.1 1.95.6.93-.6.28-.75 1.21-.78.61-.24.65.22.82-.02 1.86-.4.52-1 .91-.45.81.17.6-.22.32-1.06-.43-.67.58-.42.88-.99.14-.54.63-.19 1.32-.8.9-.3.24-.39 1.35.35 1.32-.06-.04.47.97.32.21-.29 1.14-.56 1.28-.16.4.6.41-.35.05-.79.32-.62h.52l.62.45 1.35-.11.82-.81 2.01-.64.82-.02.5.77.84-.24 1.52-.1.39-.4-.63-1.28 3.69-1.22 1.94-1-.63-1.83-1.28-.33-.26-.84z"/>
    <path region="6" short-name="8" long-name="State Senate District 8" value="1" d="m744.64 436.4 8.56-4.85.56-.25 9.68-3.22v6.7l3.1-1.68 5.23-.12v1.36l6.42.06-.18-1.27.03-1.65 2.03-1.05v-.21h2.68l.04-.25 3.95.01.03.24 3.6-.02v3.16l4.12-.01v-9.42l12.4-.03 6.18.05h6.23l9.37.07 9.33.02 6.22-.01 13.5-.05-.08.42.36.9-.13.77 1.17 1.33-.06 1.61-.22.9.46 1.49-.26 2.03.17.48.79.74 1.17.7 1.42.17.87-.24.98 1.5.4.32.63-.02.56-.6-.01 2.14h1.05v8.34h2.07v18.74h-2.08v2.09h26.4l.49-.55.04-1.54h13.57l.36-1.55-.16-.47 1.02-1.2 1.65-1.2 1.9-.04-.06-.57 1.09.51.2.33 2.17-.02 1.52-.11 1.59.08-.01 6.31h-.58v3.7l.55.68.34 1.33.44.9 1.54 1.8 1.34 1.07.44.86.47 2.13.88.82.42.04 1.36-.86.48-.04 1.34.89-.9.46-1.3.97-.6.9-.7 1.38-.4 3.08-.52 1.01-1.63.98-.35.45-1.18 2.26-.6.8-.37.1-.78-.92-1.08-.18-2.16 1.22-.47.51.7.73.97.24.72.8-.35 1-.73.39-.85-.73-.92-.3-1.08.36-.8 1.24-.09.71 1.18 2.58.23 1.25-.15.65-.55.6-.45.01-.89-.52-.71-.05-.6.24-.43.64-.29 1.39-.47.8-1.54 1.73-1.02.82-1.1.52-.6.07-1.29-.56-.6-.46-1.35-2-1.63-1.7-1.55-.94-1.26-.18-.57.09-2.31.67-1.44.93-.45-.2-.07-1.35-.28-.43-1.28-1.04-1-.66-1.23-1.36-.94-.21-.99.2-1.04.4-.66.73-1.2 1.83-.64.53-1.4.58-1.99.68-2.14-.8-1.4-.33h-.97l-.84.57-.52 1.11-.55.59-.29.66.18.71.5.96-.19.78-.78.12-2.52 1.5-1.6.35-.7.43-1.13.3-1.59 1.46-.93 1.32-.6.46-1.02.18-1.02-.15-.65-.47.3-.81 1.53-.67.39-.62-.3-1.1-.5-.37h-.63l-1.44.42-.8.72-2.63 1.48-1.7.58-1.04.9-.21.66.26.58.74.49-.68.78-.8-.22-1.2.28-1.17.1-.6.74-.45 1.11-.7-.02-.89-.37-1.19-.1-.45.13-.67 1.16-.74.93-.94.02-.52-.27-1.58-2.07-.65-.42-.67-.13-1.27.15-1.06.4-1.28.85-1.7.46-1.04-.58-1.05.25-1.16-.1-.46.19-.45.82-1.06 2.52-1 1.5-1.6 1.15-1.4.22-1.24-.16-2.11-.91-.72-.2-1.5-.16-2.04.11v-7.3h.2l-.02-12.42-13.38-.01-9.27-.02h-12.41l-18.58-.01.02-20.72-.01-4.7-.26.95-.32.38-.74.04-.46-.44-.67.05-.39.4-.69-.7-.5-.06-.1.65-.51.72-.78.67.55 1.34-.53 1.04-1.06.52-1.73-.1-.84-.23-.34-1.04-1.26-1.13-.48-.11-.45-.9-.62.1-.93-.23.04.64-1.06.82-.68.28-.16.38.58.5 1.02.2-.56 1.46.06.42.88-.2.56.63-.26.51.7.45.8.13-.11.81.75.68-.4 1.3-.8-.16-.94.05-.78-.4-.02-1.06-1.17.43-1.14-.37-.23-.75-.82-.61-.7.38-.65 1.43-.29.27-.6-.35-.22.5h-1.23l-.75-.7-.06-.56-.05-8.3.35-12.77.1-12.52v-2.35l.09-6.68-.04-1.13z"/>
    <path region="7" short-name="9" long-name="State Senate District 9" value="1" d="m865.95 436.48.3-.26 1.06-1.64.6-.71.79-.12.32.22 1.05-.15.7-.34 2.08-.24 2.7-1.04 2.34-.67 1.63-.08 2.01.69 2.34.22.7-.17 4.4-2.1 1.03-.18 1.15-.62.4-.39.94.75.93.52.78.05h8.4l4.21.03 11.95.04v-2.09h3.02l.1-.48 1.5-.83.42-.8.67.01.26-.7 1.6-.74 1.41-.38 1.03.11.87-.52.4-1.07 1.17-.05v-.81l-2.03-.01-.04-.51h-1.03v-.84l.37-.74h.64l.01-2.2 3.15-.02v-6.27l5.19-.01v.54h1.05v1.05l1.67.5.15.5.54.24.95-.18.58.74-.64.85-.19.94.32.45-.1.67-.76.34-.25 1.63-.67.08.05.55.57.65.68.37.36.66-4.38.02-.02 5.23.02 5.16.52.6 1.29.06 2.13.64.89.78.92.4.46 1.5.62.91.85.64-.7 1.44-.84-.22-.44-.63-.75.26-.23 1.25-.82 1.21-.55.14-.94-.33-.55.28.48 1.08.27 1.15-.68 1-1.06.17-.43.7.74 1.3-.26.47-1.17.83-.66 1.13-.34 1.6-.88 1.55-1.77 1.98-1.36 1.1-13.38-.03-.05 2.67.05 3.5-1.6-.09-1.51.12-2.18.02-.2-.33-1.08-.51.05.57-1.9.04-1.64 1.2-1.02 1.2.16.47-.36 1.55h-13.57l-.04 1.54-.5.54h-26.39v-2.07h2.08v-18.75h-2.07v-8.34h-1.05z"/>
    <path region="8" short-name="31" long-name="State Senate District 31" value="1" d="M573.22 573.45v18.5l6.07-.05v5.15l.03 7.17h4.63l3.47.06.05.5v4.64l-.02 7.2-.25 1.79.21 1.37.29.95h2.05v2.05h7.2v-1.07l-.54-.04.02-3 8.63-.01v-2.04l.85-.12-.01-2.98 4.1.02v-3.04l2.04-.05V591.9l10.25.02 12.3.03.02 16.44-.05 7.04.11 1.2v14.4l-.03 12.3.01 4.1v16.4l.02 14.35 11.18-.01 20.1.02h14.83l13.02.01h10.02l-.01 8.17h4.07v8.24l-2.04 1.38-2.36 1.23-.52-.23-.33-.58-.14-1.07.2-.84-1 .07-.87 1.03-.1.79.14 1.36.73 1.9.44 1.92.13 1.96-.49.7-1.05 2.1-1.5 1.58-1.35 1.88-2.03 1.14-.85-.18-1.13-2.28-.46-.37-.97-.29-.88.25-1.35.74-.38 1.2.82.62 1.63.15 1.3.37.62.4.43.58.14 1.73-1.7.2-1.85.46-1.1.56-.8 1.44.1 1.33.72 2.1.3 1.2.07 1.74-.18 1.3-.57 1.23-.7 1.02-.87.73-1.02.54-1.5.26-1.33-.24-1.38-.47-1.6-1.03-1.06-1.15-1.13-2.57-.4.05-.88-.8.6-1.21-.36-1.68-1.13-1.6-.61-1.37.09-1.73.16-.92.45-.77.7-.56 1.44-.01 1.13-.56.56-.71.03-.97-1.52-6.32-.68-1.18-2.41-1.91-.56-.25-1.82.2-1.82 1.17-.47.84-.36 3.54-.58 1.38-.28.28-1 .13-.6.59h-.62l.03-.7-1.24-.75-2.28-2.52-.54-.3.03 1.99-.52 1.04-.45.27-1.22 1.36-.7-.26.15-.97 1.16-2-.27-.77-.78-.05-.4.71-.39 2.4-1.06 2.56-1.19 1.95-.82.88-.86.6-4.37.09-1.88-.08-2.07-.62-1.03-.67-.7-.84-.44-1.01.16-1.1.45-.78.72-2.22.06-2.88-1.1-1.76-3.05-1.83-1.69-.38-2.83 1.11-.87.73-2.2 1.21-.78.12-.53-.54-.7-.06-.43.3-1-.06-.96-.6-.2-.8-.62-.58-.08-.9.64-1.13.03-.43-.49-1.08.16-.8.61-1.02-.19-.31-1.05-.31-.18-.61-.94-1.05-.76-.2-2.12-1.65-2.62-1.16-1.82-.27-1.9.68-.58.4-.57.9-.72 1.97-.65 1.17-.82 1.03-1.81 1.55-.73-.1-1.69.05-1.14.37.34 1.3.05.89-.5.64-1.05-.02-.82-.75-.63.41-.11.5.67 1.19.03 1.32-.54.67-.39-.17-.32-.9-.81-.15-.5.71.07 1.12-.14.89-.57.5-.58-.67-.79.3.03 1.28-1.39 1.14-.4.58-1.04.12-2.63 1.05-1.35-.12-.68-.58-1.58-.51-1.02-.78-3.65-2.2-.7-.1-.99.2-.84-.1-1.09-.46-1.17-1.05-.7-1.02-.08-.5.53-1.5.35-.16.83.92.63-.2.85-.99.52-2.11-.08-.98-.25-.24-.92.27-.9-.13-.34-.44.16-.6.81-.4.63-.64.4-.92 1.28-4.2-.2-.38-1.25.03-.54-.48-1.01-1.57h-.77l-1.07.79-2.13.54-1.61.3-2.52.05-1.65-.33-3.22-.93-.63-.43.65-.75-.8-1.2-1.04-.65-.91-1.44.31-.61.65.04.66.6 1-.38v-.71l-1.79-.98-1.8-1.92-.66-1.38-.1-1.29.2-.45 1.75-1.94 1.08-1.83.52-1.52.1-.87-.26-.53-1 .08-.3-.54.3-.98-.16-.66-.88-1.03-1.62-.06-.87.57-.7.78-.7 1.22-1.35 1.92-1.72 1.2-3.6-.36-1.92-.71-.83-.47-.87-1.25-1.17.13-.8.33-1 .18-.6-.3-1.33-.09-.85.2-2.32-.53-2.95-2.32-4.5-.86-.75.7-1.3.42-.64 1.16.1.45.6.42-.22.74-.66-.52-.74.27-.7 1.28.33.12-.03 2.37-.43.83-.54-.35-.54.11.2.89-.22.84-.85.76-.55-.02-.65-.39-1.28.18-.42.3-.62 1.23-.66.12-1.32-.07-.64 1.05-1.23.47-.5-.04-.92-1.02-1.16-.35-1.49-1.93-1.32-1.26-.94-1.74-1.7-1.7-1.14-.59.24-.66.88.06-.21-.8-.86.04-.82-.69-.61-.98-.55-.55-.98-.47-1.66-1.17-1.19.49.06-19.63-.02-5.3-6.1.05v-10.25l-.03-3.07.02-11.3h-2.74v-12.33l17.35.01 5.19-.04 6.13.04v-1.1l.9.16 5.22.01.07-2.46-.12-2.45.12-1.41.63-2.54.01-.67-1.04-3.9h.72l1.63-2.7 2.07-1.56v-5.99h6.15l6.03-.02v-1.03h7.28l-.01-2.57h1.02v-.52h1.06v-1.02h1.8l.07-1.05z"/>
    <path region="9" short-name="38" long-name="State Senate District 38" value="1" d="m350.24 486.32 14.47.03 16.6.01 14.26.08 4.2-.02.01-12.5h10.3l14.39.02-.01 6.23 14.4-.01 10.34.02h20.58l16.42.02 12.36.1 11.05-.01 1.28.03v18.64l-.05 16.49.02 2.07h.65l-.01 14.56-.3.67.04 11.75.02 10.34.03 4.13-.03 4.12.04 4.12-.64.08-4.94-.08h-9.42l-4.54-.03-4.52.06.02 8.8-.05 1.6.01 14.27.03 12.34-.02 12.33 16.4-.02h2.75l-.02 11.3.03 3.07v10.25l6.1-.04.02 5.29-.06 19.63-1.36-.01-2.52-1.03h-.56l-.89.88-2.53 2.22-.79.52-.75.82-.7-.07-.42-.35-.7.14-.44.48-.49-.08-.23-.54-.77.1-1.35-.07-.6 1.18-1.15.44-.9-.05-.31-.32-.1-.77-.6-.57-1.6-.54-1.05-.9-.91.54-.96-1.57-1-.64-.27.05-1.85-.57-.65.8-2.4-.65-.13 1.18-.48.51-.65-.07-.8-1.05.4-1.12-.39-.36-1.3-.05-.72-.63-2-.72-1.33-.84-.87-1.3-1.4-1.56-1.2-1.12-.94-.31-.44.36-.02.93-.45.48-.91-.32-.53-.94-.32-1.04-1.1-.57-1.16.56-.31.45.06.8-1.19.79-2.7-.52-.84 1.23h-.62l-1.09-.34-.26-.59-.71-.51-1.53-.44-1.1.43-.74-.48-.8.9-1.25-.05-.74.58-1.23-.38-.25-.42.51-.9-.11-.7-1.14-.06-.67.62-.45.75-1.05.32-.25-.24-3.56-.77-.3-.33v-.78l.24-.7-.13-.73-.7-1.69.62-1.71-.72-.89.41-1.29-.2-1.35-.47.04-.88-.38-.43-1.26.14-1.15-.38-1.38.8-.89.1-.44-.46-.68-.12-.86.08-.95-.85-.54-1.39.71-.58-.61.66-1.09-.66-.7-.26-.71-.13-1.15-.8.42-.43-.53.62-.74-.72-.47-.66.5-.46-.02-.06-.6-1.42-.67-.3-.84 1.1-.08.66-.56-.35-.42.05-1.2-.75-.2-.2.43-1.09.23-.5-.38.03-.64-.42-.78-.96-.33-1.58.75-1.33.16-.54-.79-.51-1.12-.63-.72-.85-.5-1.8-1.57.24-1.38-.48-.56-1.26-.4-.67-.02-.66.27-1.63 2.1-.13 1 .36.43-.03.61-.41.42-.04.74.37.59.74.46-.97 2.3-.1 2.3-.72.85-.5.12-.68-.62-.9-.48-.34-.74-.44.07-.3.58.08.74-.2.66h-.84l-1.68-2.42-.33.3-.1.81-.55-.04-.16-1.48-.46-.67-.86.08-1.57-.37-1.48-1.65-.82.01-.49-.45-.76-.25-1.42.43-2.27-.18-1.5-.65-1.43-.14-.66.23-.52 1.27-.1 1.35.1.98-.36.76-.63.49-.39.74-.43.35-.84-.32-1.98.47-.9-.58-1.27-.54-.62-.11-.71.82-1 .4-1.81-.87-1.95.21-.72-.97-.64-.1-.7-.7-.44-1.69-.45-.5-1.17-.69-1.24-.5-1.55-.92-1.52-1.3.2-1-1.19-.95-.84-.02-.3-.8-.95-.54-2.41-3.16-.52-1.24.24-.67-.65-1.19-1.24-.28-2.35-1.63-1.85-2.27-.64-1.34-1.49-1.7-1.03-.91-.34-.04-2.67-2.05-.16-.6-.72-.31-1.91-.37-1.03.16-.35.77-.94.98-.7.52-1.66.3-1.7-.07V503.8Z"/>
    <path region="10" short-name="1" long-name="State Senate District 1" value="1" d="m886.03 258.3 16.32-.03H934.15l16.58.09 13.53.03 4.37-.02 8.7.02.84-.04-.03 14.87-.05 2.48.03 4.77.01 11.77.03 14.36-13.4.02-1.95.04-2.95-.05.52 1.13-.28 1.42-.55.82-.93.63-1.16.34-2.11-.38-1.45.45-1.29 1.04-1.54 1.71-.3 1.1-.09 1.5 1.09 2.58.76 1.2.9 1.1.36.94-.32.72-.7.6-1.06.15-1.83-1.13-1.5-1.04-1.16-.27-1.46.29-.67.54-.97 1.6-1.11.85-.74.24-2.07.3-.6.43-.6 1.28-.13 1.26-.42.99-.6.52-3.03 2.08-.97.42-.92.17.03 4.44-.03 6.55.04 3.15-.04 12.58.01 6.3h-1.62l-1.28-1.18-1-.47-1.77-.52-.38.09-1.08-.29h-1.16l-.2.43-1.01-.65-.68-.03-.68.79-.28.98-1.15.18-.82-.48-.97.05-1.32.7-1.34.54-.12 1.56-.34 1.2-1.01.94-2.4.94-.23-2.05v-1.95l-2.13.02.03 1.3h-16.75v-6.3l-4.2-.02.01 2.11-2.29.01-1.89.6v-.6h-2.09V348.8l.1-.47-.1-.28-.01-16.43-2.1-.02v-14.77h2.57l-.01-14.76-.01-21.1v-14.4l2.79-.01z"/>
    <path region="11" short-name="26" long-name="State Senate District 26" value="1" d="m571.5 379.52.75-.02 15.88.04-.05 13.2v5.23l.06 8.6 1.97.7.9 1.04.97.8 1.48.59.15.66 1.96 2.3.73.39 1.86.53.96.65 1.12-.01 1.31-.48.94-.17 1.1-1.05.91-.28 1.25.68.76-.01.79-.43.44-.59 2.48.56.39.58-.08.67-.39.3-1.78.2-.06.7.73.62.5.08 1.15-.23.77.1 1.76-.34.64-.25.74.91-.01.5.6.46.9-.75.85.7.2 1.03-.5 1.25.04.58.45.36 1.18-.48.8 1.33-.13 1.25-.53 1.54.58.72 1.26.34.75-.4.57-.79.03 7.87.01 11.47-13.48.04-5.2-.03.04 5.27-.04 6.7.03 2.7v6.25l-14.6-.02-.02 1.67.4 1.29.1 1.2h-4.12l-.02 2.92-.97 1.2-2.85.01-2.01-.9-.67-.15h-4.88l-.99.05-.02 12.35.04 1.1-2.34.02-1.33.19.34.7 1.26 1.2-2.09.05.12 6.16 4.07-.04.08 10.38.04 8.27v6.23h.43l.03 16.34-.22.33-.01 8.27v20.63l-.01 4.11-20.49-.02H529.77l-18.47-.03-.04-4.12.03-4.12-.03-4.13-.02-10.34-.05-11.75.3-.67.02-14.56h-.65l-.02-2.07.05-16.5v-18.63l-1.28-.03h-11.05l-12.36-.09-16.42-.01H449.2l-10.35-.03h-14.4l.02-6.22v-6.15h-1.5v-10.44l.05-16.6.09-10.37h1.94l22.8-.04 17.79.02 14.99-.02 4.45-.04 1.59.04 12.57.05 1.65-.05h9l-.02-12.43h-.47v-8.34l-.09-30.05 2.08-.07 16.56.06 18.65.01h10.14l9.53.03z"/>
    <path region="12" short-name="41" long-name="State Senate District 41" value="1" d="m640.3 442.83 11.05.05.37.03 5.2-.04v10.44l2.08-.01v6.25l.01 6.23v2.09h-11.94l.41-1.79 1.21-2.35-2.14-.01.01-3.02h-2.84l-1.42.23-1.34-.02.9-1.36.55-.8v-1.28l1.08.02.18-.35.43-3.92.4.06v-2.08l-4.2-.03z"/>
    <path region="13" short-name="6" long-name="State Senate District 6" value="1" d="m806.2 592.03.41.03 18.53-.02h5.54l.02 12.33 21.48-.02 14.87-.06h6.53V592l23.25-.03 13.43.06h7.93v.72l.26.84 1.28.33.63 1.83-1.95 1-3.68 1.22.63 1.28-.4.4-1.51.1-.84.24-.5-.77-.82.02-2.01.64-.82.81-1.35.1-.62-.44h-.52l-.32.62-.05.8-.42.34-.4-.6-1.27.16-1.14.56-.21.29-.97-.32.04-.47-1.32.06-1.35-.35-.24.4-.9.29-1.32.8-.64.19-.13.54-.88 1-.58.41.43.67-.31 1.06-.6.22-.82-.17-.91.45-.52 1-1.86.4-.82.02-.65-.22-.6.24-1.22.78-.28.74-.94.61-1.94-.6-1.16.1-.03.63-1.17 1.5-.98-.58-.86.5.13 1.86-.06 1.05-.9.16-.81 1.52-1.3-.26-1.55-.07-.5 1.14-1 .79-.36 1.3-.03.64-.55.89-1.02.2-1.1 1.57.07 1.03-1.2.43-.45.36-1-.13-.49.32-.54 1.15-.2 1.33 1.15.95-.58 1.12-1.67 1.4.02.6-.63 2 .1.57.57-.18.93.05.24.5-.29.9-.8-.51-.45.56-.38 1.69-.33.47-.08.76-.3.6-.26 1.18-.66.17-2.46-.49-1.02.58-.65 1.46.17.55.84-.43.81.07.53.34-.26.54.06 1.16-.54.69.58 1.46.06 1.2.41.97 1.21 1.37-.04 1.5-.3.17-.66-.9-.51-.16-.34 1.1.14.54.73.08.83.6 2.33.17 1.28-.1.54.55-.03.83.54-.05 1.8-1.34.51-.07.73.43.32-.62 1.17-.64.41.05.7.76 1.3-.7.36.34 1.05 1.74.32.16.88-.18.38.59-.58.54.2 2.01.7 2.55.24.5.9 1.1-1.1 1.06-.51.85-.44 1.11.03.66.74.86H889l12.71-.01h13.63v25.58l-.03 4.55.1.85-.87-.56-.9-.8-1.62-.42-1.68-.62-.38-.42-1.34-.73-1.43.02-.5.3.03.57-.29.85-.8.31-.71.53-.5.74.22 2.58-.18 2.45-.34 1.2-.92.92-.4-.3-.22-.78.08-1.44-.1-.59-.54-.24-.92.18-.82.96.15.58.46.35.28 1.3-.1 1.35-.24.35-.98.33-1.92-.24-1.01-.96-1.4-.63-.4.08-.59 1.22-1 .6-1.53.45-.7.4-1.48-.24-1.1-.03-.95.19-1.07.4-2.95-.87-1.59.56-2.06-.73h-.44l-.2-.63.54-1.43-.78-.03-.75.87-1.4.62-1.5.22-.96-.4.13-.91-.08-1.6-.64-.4-1.1 1.2-1.53 1.15-1.4.12-.36-.34-.3-1.44.28-.53v-1.65l-.7-2.75-1.08-.69-2-.12-1-1.1-.84-.06-.23 1.13-.6.68-1.47.25-.7 1.28-.52 1.47-.62.4h-.93l-1.12-.34-.23-.25-.98-.12-.63.15-.52.44-.81 1.21-.92.99-1.53.58-1.47.15-.9-.65-1.72-.88-1.5-.06-1.23.52-.65 1.3-.07 1.27 1.27 1.86-.01.78-.67.78-.71.45-.82.22-1.38-.82-.87-.93-1.28-.5h-.5l-1.46.31-.47.34.32 1.7-.21.56-.88.63-1.08.06-.9-.48-1.2-1.43-1.33-.32-.93-.62-1.37-1.25-.92-.36-3.64-2.48-.78.25-.49 1.77-.54 1.27-1.33.46-2.27.28-1.42.52v-1.65l-.57-.6-1.1-.5-.68.35.36.88.8.28-.45 1.46-.81.78-1.67.7-.42-.27.43-1.55-.51-.5-.65.1-.22 1.28-.68.84-1.36.67-1.76-.7-2.42-.73-1.8-.18-.16.17.45 1.24-.2 1.04-1.24-.27-1.52-1.06-1.86.11-1.07.2-.41.82.33 1.79-.23.3-.69-.17-.95.06-1.3.45-.35.57.44 1.2.56.37.07-.78.33-.87.58-.29.33.42-.23.62-.01 1.41-.18.98-.78 2.62-1 1.34-1 .59-1.55.6-2.4.66-1-.1-2.24-1.53-.86-.43-.93-.76-1.67-.42-1.21-.1-.64.25-.33.5-.75 2.1-.51 2.22.04 2.11-.34 1.33-.82 1.61-.48.55-1.26.23-.72.66-1.2.33-.89-.1-.73-.66-.12-1.3-.74-2.2-1.15-1.27-2.8-2.87-1.16-1.6-.32-1.18-.76-1.4-.88-.36-2.08-.33-1.3.8-1.62-.02-1.52.34-1.66.06-1.35-1.25-.47-.88-.08-2.16-.39-1.15-.78-1.34-.73-.3-2.14.55-1.76.08-.77-.08-1.65-1.25-1.66-.89-2.55-1-.72-.57.04-.97.42-.58 1.56-1.75 1.71-.86.84-.78.56-1.16-.37-.84.16-.3-.45-.7.26-.46.82-.65.08-2.12-.84-.24-.57-.88.26-.42-.15-.64-.5-.73.65-.77.35.45.42-.34.76-1.13.1-.84-.87-.3-.03-.62-1.05-.01-.54-.55-.24-.63-.55-.16.13-.68-1.02-.63-.19-1-.66-.35-.08-.88.43-.64 1.48.33.23-.89 1.1-.34.33.75.83.62.47-.31.56-1.07-.56-.96.69-.72-.82-.36.43-.37.28-1.15.5-.25.24-.59 1.12-.35.23-.83.93-.98-.32-1.19-.6-.3-.51.06.52-1.09-1.04-.13-.48-.55.36-.34-.5-.92-1.32-1.39.26-.45-.53-.44.17-2-.74-.2-1.43-1.24.25-.68-.5-.74-.45.81-.81-.3.47-.69-.4-.71-.7-.3-.07-1-.64.09-.4.96-1.45-.66.1-.64.45-.41-.42-.5 1.64-.63 1.58-.9.82-3.4 1.03-.62h1.54l-.03-3.07-1.02.02.01-1.5.16-.57-.2-2.26v-1.84h1.03v-2.05l1.11.01-.28-1.16.15-.56-.39-.88.7-.42-.1-.53-1.17-.51.06-2.12 8.14-.01-.02 2.08h2.05v2.06l2.02-.01v-3.64l2.56.02.42-.38 3.34.02-.03 3.07 2.05.02v-15.4l7.1.01 13.24-.01 10.2.01.02-1.97-.03-10.43 6.23-.03v-14.36z"/>
    <path region="14" short-name="10" long-name="State Senate District 10" value="1" d="m694.92 258.34 12.98-.01 6.8-.03 9.83.01 4.93.03 1.54-.04 15.08.05 9.54.03 2.95.01 12.37-.08 13.76-.01 8.9.03 1.78-.02 5.08.03 16.38.02v19l.02 16.96v11.07l-.02 13.93-.04 22.74h15.74v14.72l-11.49-.02-.6-.19-.35-.91-.88.22-.62-.34.12-.49.65-.36-2.59-.01-.02 7.4.02 5.13v.76l-8.25.02-.19-.1-.02 10.05.06 2.13-1.25.03-10.6-.03-10.9-.13-.21-.81.11-.88.55-.83 1.98-1.75.42-.78.13-1.13-.41-1.44-.89-1.31-.64-.4-.92-.13-2.7.08-1.28-.2-2.95.25-1.55-.5-1.34-1.08-1.29-1.82-2.83-2.47-1.69-.92-2.46-.58-.63-.39-.7-.83-.49-1.2-.06-1.57-.4-1.46-.45-.89-1.29-1.58-.88-.27-1.13.07-1.17.36-.47.46-1.07 1.53-.48 1.45-.5.62-1.11.68-1.17.28h-1.3l-1.87-.5-1.34-.9-1.12-1.4.12-2.44 1.57-2.3.59-.4.87-.13 1.44-.55 1.29-1.34.51-1.8-.43-1.37-.49-1.04-1.13-.81-.51-.08-.91.59-1.45 1.46-.64.84-1.08.88-.87.13-.95-.23-1.24-1.04-.27-2.32-.26-.73-.77-.3-.84-.67-.26-.93-.57-.85-.98-.53-1.38.3-1.65.17-1.5.33-1.82-.54-2.4-1.96-.74-1.12-.11-1.25 1.38-3.42v-1.26l-.4-.72-1.2-.82-.57-.92.2-.83-.05-1.64-.4-.86-.15-.85-.52-1.63-.53-1-1.9-1.82-1.86-.4-1.6.7-.9.73-.85.29-2.62 2.06-.67 1.43-.93.71-.4.56-.01 1.3-1.14 1.88-.5 1.13-.64.75-.95.69-.28.53-.86.95-1-.23-.76.07-.73.48-1.84.13-.6.57-.93.18-.96.93-.75.1-1.65-.65-1.5-.01-1.72-.86-.21-.64-1.04-1.08-.94-.48-.73-1.17-.32-2.13.03-1.25.2-.84.73-1.04.62-.5 2-.9.88-.12 1.51.24 1-.43.7-.9.65-.49 1.6-.83 1.4-.05 1.17.22.42-.26 1.18-1.92.08-1.33-1.89-1.94-.5-1-.47-.46-.9-.25-.7.16-.84.59-.92.21-.82.6-3.18.69-.55-.1-1.43.14-1.34.34-3.68-.52-2.33-.91-.2-.2-7.61-.03h-14.46l-4.22.03h-8.37l-12.48.02h-.1l.02-20.52.57.53 10.96-.04-.01-1.05 3.13-.03v1.04h1.04l-.01-1.06 4.2.01v1.07h10.53l-.04-5.27h5.24v-2.11l8.38.04v-4.19h2.07v-4.21l-4.17-.05.01-4.22-.28-1.26.3-.7V271l5.57.05-.16-1.7.19-2.48.3-1.43.55-1.74.66-2.62-.06-1.7z"/>
    <path region="15" short-name="14" long-name="State Senate District 14" value="1" d="m634.67 616.63 18.35.02h14.32l16.14.04v-.47l-.74-.48-.32-.5.38-.65-.82-.05-.41-1.12.02-.73-.26-1.12h6.41v-4.1l4.08-.01 1.05 1.07 1-.04.04 2.06-.04 4.1h.54l.51.53-.02 1.55 1.63-.01 1.15 1.78-.82.7-.53.9.28.5-.08.73-.83 1.38-.25 1.6 1.61 1.48.35.66-.43.35.11.6.59.18.81-.2.71.61 1.85.66.99.22.02.42 1.05.58.85-.76 1.61-1.1-.18-1.02h.63v-6.14l4.08-.02v-4.04l.1-.7 1.37.09 2.44.58h2.65l11.8.04.1-.02 15 .04 13.44.04.2-.03v-12.36l-.01-12.37 12.34.01-.01-12.4 13.25.07h4.14l19.3-.08-.01 12.33v24.72l-6.23.03.03 10.43-.03 1.97-10.2-.01-13.23.01-7.1-.01v15.4l-2.05-.02.03-3.07-3.34-.02-.42.38-2.57-.02v3.64h-2v-2.04l-2.06-.02.02-2.07h-8.14l-.06 2.13 1.17.51.1.53-.7.42.39.88-.15.56.28 1.16-1.11-.01v2.05h-1.03v1.84l.2 2.26-.16.57v1.5l1-.02.04 3.07h-1.54l-1.03.62-.82 3.4-1.58.9-1.63.64.42.49-.46.4-.1.65 1.46.66.4-.96.63-.1.07 1.01.7.3.4.71-.47.7.81.3.45-.82.5.74-.25.68 1.43 1.24.74.2-.17 2 .53.44-.26.45 1.32 1.4.5.91-.36.34.48.55 1.04.13-.52 1.1.52-.07.6.3.31 1.19-.93.98-.23.83-1.12.35-.23.6-.51.24-.28 1.15-.43.37.82.36-.69.72.56.96-.56 1.06-.47.32-.83-.62-.33-.75-1.1.34-.23.9-1.48-.34-.43.64.08.88.66.34.19 1 1.02.64-.13.68.55.15.24.64.54.55 1.05.01.03.62.86.3-.09.84-.76 1.13-.42.34-.35-.45-.65.77.5.73.15.64-.26.42.57.88.84.24-.08 2.12-.82.65-.26.46.45.7-.16.3-.52-.1-1.7.12-2.42.04-1.84-1.61-1.85-1.5-.85-.05-.73.66-.87 2.26-.3 1.68.15 1.46-.3 1.54-.7 1.82-1.03 1.53-.57.56-.93.48-3.92.83-1.81.18-.91-.43-.86-2.03-.33-2.25-.46-.78-1.26-.75-2.15-.53-2.26-.3-.9.9-.2 2.17-1.06.8-.64-.04-1.2-.8-1.94-2.08-1.48-4-.17-.91.08-1.46-.34-2.87-.68-1.9-1.29-1.48-.68-.25-1.48.73v-8.24h-4.07v-8.18l-10.01.01h-13.02l-14.82-.02-20.1-.01h-11.19l-.02-14.34v-16.4l-.01-4.1.02-12.3z"/>
    <path region="16" short-name="17" long-name="State Senate District 17" value="1" d="m672.39 492.77 1 .02v-6.23l.05-11.7.08-4.87-.07-8.9.01-1.5 10.35.05-.01 4.16.04 4.08-.07.13.02 8.26-.02 4.1 3.03-.03.78.09H704.34v8.3l10.4.02 6.04-.02-.05 4.14v6.22h-4.12v2.06l-2.06.1v8.2h-2.04v2.06h2.05l.01 6.2h-.23v2.05l4.1.01v4.57l-.23.74.26.9 3.04.03 1.01.4v5.77h2.06v.27l.95 2.23.93.24.02 5.55v14.47l.03 5.69-.07.24-1.1.11-.64-.24-.93-.72-.16-.65.2-2.77-.65-.96-.93-.97-.67-.4-.46.03-1.58.95-.74.8-1.36.71-.93-.18-.83.1-.96.48-1.06-.03-.53-.46-.06-.45-.74-1.36-.74-.56-.87-1.78-.39-.06-.85-.7-.82-.18-2.12.95-1.23 1.08-.22.73-.59.74-.4.85-.62-.1-.61 1.39-.63.59-1.47.93-.54.1-1.8.98-1.16-.71-1.15-.08-1.6-.77-.35-.42h-.95l-1.01.22-.7-.39-.52-.92-.91-.37-1.5.27-.65-.47-1.26-.32-.85.15-1.03-.08-.24.3.3.9-.4.26-.76-.54v-13.33l.02-7.26.01-13.42.04-5.16-.03-9.3.02-3.1-.03-7.27-.7-.02-1.35.34-1.08-.02-.99-.41-2.08-.06-1.7.22-.33.4-1.08.03-.08-.51h-1.92l-.07-3.14z"/>
    <path region="17" short-name="7" long-name="State Senate District 7" value="1" d="m806.2 579.7.02-12.37.33-.03.02-13.4-.02-.33.03-14.05 1.81-.5.47-.45.58-2.08.18-2.41.9-1.32 1.54-1 1.38-2.28.44-.04 1.44.58.4-.13.18-.68-.55-2.8.15-.46.84-.53 2.57-.42 2.05-.11 1.49.16.72.2 2.11.91 1.25.16 1.39-.22 1.6-1.15 1-1.5 1.06-2.52.45-.82.46-.19 1.16.1 1.05-.25 1.03.58 1.7-.45 1.3-.86 1.05-.4 1.27-.14.67.12.65.42 1.58 2.07.52.27.94-.01.74-.93.67-1.17.45-.13 1.2.1.88.38.7.01.44-1.11.61-.74 1.17-.1 1.2-.28.8.22.68-.78-.74-.5-.26-.57.2-.66 1.04-.9 1.7-.58 2.63-1.47.8-.73 1.45-.42h.63l.5.37.3 1.1-.39.62-1.53.67-.3.81.65.47 1.02.15 1.02-.18.6-.46.93-1.32 1.6-1.46 1.13-.3.7-.43 1.6-.35 2.51-1.5.78-.12.2-.78-.51-.96-.18-.71.3-.66.54-.59.52-1.11.84-.57h.96l1.4.34 2.15.79 2-.68 1.39-.58.65-.53 1.19-1.83.66-.73 1.04-.4 1-.2.93.21 1.22 1.36 1 .66 1.29 1.04.28.43.07 1.36.45.19 1.44-.93 2.3-.67.58-.1 1.26.2 1.55.94 1.63 1.7 1.35 1.99.6.46 1.3.56.6-.07 1.1-.52 1.01-.82 1.54-1.73.47-.8.3-1.4.42-.63.6-.24.72.05.89.52h.44l.55-.61.15-.65-.23-1.25-1.18-2.58.09-.71.8-1.24 1.08-.36.92.3.85.73.73-.4.35-1-.72-.8-.97-.23-.7-.73.47-.51 2.16-1.22 1.08.18.78.92.37-.1.6-.8 1.18-2.26.35-.45 1.63-.98.53-1.01.4-3.08.7-1.38.59-.9 1.3-.97.9-.46.76.27h.88l1.28.56.19.66-.15 1.9.1.7.45.76 1.56 1.5.73.36 1.57.52 1.38.06 1.05.18.8-.22.9-.01.8.84 1.93-2.23-.35-.88.16-.43 4.16.03.04-3.93 3.07-.01v-2.85h3.1v-.78h1.04l.83.27.39-1.27.08-.81 8.04-.01.04 4.16.78.15 2.22 1.25v1.2l-1.8.05 1.62 1.4 3.23 2.19 5.15-.01v-1.56h3.1l.01-.5 1-.16.03-1.93 4.12.04.05 2.07 2.04-.03.02 2.06 1.04.02-.05 1.05h1.06v3.13h1.01l.03 2.14 1.04-.06v4.16l5.22.04-.98.6v1.83l.32.63 1.02 1.05.25 1.23-.49.67-1.07.52-.77-.67-1.17.19-.93-.53-1.68.56-1.07-.1-1.4-.75-1.68-2.2-.86-.46-2.14.13-.47.21-.59.68-1.4 2.52-1.09.94-.96.54-1.7.36-1.76-.2-.66-.34-.8-.8-.31-.6-.07-1.95-.18-.6-.52-.67-.7-.37.01 2.16-.99.01-.06.52h-.97v1.53h.58l1.08-.5.7.05.44 2.48-.06.6-1.8.01-.17 1.13.73 1.1 1.75 1.21.84.7v2.1l-1.2-.02-1.98.43-2.84-.22-1.3-.39-1.77-1.45-1.2.07v.5l-.72.05-3.22-.12-.26.14-1.98-.06v6.2l-13.24-.04-.01 20.6.02 16.54-8.22.01.02 1.6.01 10.78-7.2-.01-.05 16.5.04 8.25-8.45.02h-7.93l-13.43-.05-23.25.03v12.28h-6.53l-14.87.06-21.48.03-.02-12.33-5.54-.01-18.53.02-.41-.02z"/>
    <path region="18" short-name="28" long-name="State Senate District 28" value="1" d="m683.87 411.69 2.32-.04 18.01.05 4.59-.02 2.04.07 4.17-.08 6.24-.03 6.19.03h10.43l2.07.06 2.06-.03 2.66.05-.09 1.6.1 9.53-.02 13.51-.08 8.71.04 1.13-.1 6.68.01 2.35-.1 12.52-.35 12.76.05 8.31.07.57.74.7h1.23l.23-.51.6.35.28-.27.65-1.43.7-.38.82.61.23.75 1.14.37 1.17-.43.02 1.06.78.4.95-.05.79.17.4-1.31-.75-.68.11-.81-.8-.13-.7-.45.26-.51-.56-.64-.87.2-.07-.4.56-1.48-1.02-.2-.58-.5.17-.37.67-.28 1.06-.82-.04-.63.93.23.62-.1.45.89.48.11 1.26 1.13.34 1.04.85.23 1.72.1 1.06-.51.53-1.05-.55-1.34.78-.67.5-.72.12-.65.49.06.7.7.38-.4.67-.05.46.44.74-.04.32-.38.26-.94.01 4.69-.02 20.72.02 16.6-.02 8.29-5.73-.01-.01 13.48-.03 15.76-.84 1.12-.27 1.31-.68 1-.75 1.56-1.04.8-.83.04-.6-.37-1.17-1.13-.68-1-.73-1.56.07-1.33-.19-.96-.84-.44-1.52.1-2.18 1.51-2.03.78-1.01.22-1.32.05-1.5-.4-.82-1.27-.57-1.51-.48-.7-.66-.53-1.85-.49-.98-.04-.88.44-.81.89-.59 1.1.07.65.86.34.92.8.76 1.15.33 1-.02.76-.9 2.1-2.12 1.25-1.23.4-1.26-.4-.98-1.38-.6-1.77-.18-1.2-.78-1.36-.6-.15-1.75.13.06-.24-.04-5.69.01-14.47-.02-5.55-.92-.24-.96-2.23v-.27h-2.05v-5.76l-1.02-.41-3.04-.02-.26-.9.23-.75v-4.57l-4.1-.01v-2.05h.23v-6.2h-2.06v-2.06h2.04v-8.2l2.06-.1v-2.07l4.11.01.01-6.22.06-4.14-6.04.02-10.4-.01-.01-8.32-7.21.01h-9.55l-.78-.09-3.03.02.02-4.1-.02-8.25.07-.13-.04-4.08.01-4.16-10.35-.05-2.02-.03-12.44-.01v-6.25h-2.08v-10.43l-5.2.04v-12.6h5.2l-.02-4.16 2.08.03v-4.17l12.47.1 11.41.11.9-.03.02-4.24h.1z"/>
    <path region="19" short-name="43" long-name="State Senate District 43" value="1" d="m572.75 563.15 9.46.01 1.64-.03h14.58l.02-11.4 2.05-.02.01-1.05 1.17-.03 1.9.1-.01-.83-.46-.7.16-.63.8-.28.47.36 4.18-.02v-1.03h1v-9.82l-2.06.58V524.1l-.1-.22 3.33-3.57 3.5-2.75H622V499.2l-.06-.51.98-.1 1.22.46 1.19 1.06.5.7 1.24.92 1.12 1.35 2.21.27 2.04.12.55.23 2.02 1.45.28.33.25 3.78-1.02 1.14-.34.94.36.57.58.19.2.45-.64.62.84 1.03.02.44 1.56 1.45 1.4.21.98.9 3.85 2.65 3.43 2.52.88 1.08.85.28.4.76.25 1.18.6.46 1.06.45.69-.15 1.28.5.3.87.06.85.32.18-.45 2.27.41 1 .16 1.49-.21.73 1.21.54.72.05 1.41-.4 1.09.07.44.27.71.86.18.62-.2 1 .53 1.17-.07.84-.62 1.51-.26.98.15.69.46-.08 12.26-.01.03-6.21 8.17.04h4.1v7.26l-.01 13.33-1.43-.45-1.4.08-1.14.3-1.27-.14-1.04.2.06-1.1-.32-.55-.8-.02-1.47-.6-.71.46-.23.9-.83-.4.04-.63-1.58-1.03-.5.04-.36.49h-.93l-.6-.75-.65-1.58-1.2.08-.07.99.01 5.83h2.05v8.26h-26.66l-.08.02-8.08-.03.1 1.79-.32.28-1.72-.02v1.06l.78.35-.3.47-.91-.4-1.12 1.76-1.34-.13-.49.88-.92-.72-.4.23-.71-.41-1.61-.04-.25-.37-1.57-.66.14-.73-.73.12-.78-.61-.04 21.85-10.25-.02v18.55l-2.04.05v3.04l-4.1-.02v2.98l-.84.12v2.04h-8.63l-.02 3.01.55.05-.01 1.06h-7.2v-2.05h-2.05l-.29-.95-.21-1.37.25-1.79.02-7.2v-4.64l-.05-.5-3.47-.06h-4.63l-.03-7.17v-5.15l-6.07.05v-22.66l-.06-2.02h-.41z"/>
    <path region="20" short-name="15" long-name="State Senate District 15" value="1" d="m635.02 505.15 13.77-.01V501h-2.09v-2.07l2.09-.01v-2.08l-2.08.02-.01-2.07-2.05-.03-.02-1.05v-.95h6.23l10.27.01h11.26l-.07 2.06.07 3.13h1.92l.08.52 1.08-.03.33-.4 1.7-.22 2.08.06 1 .4 1.07.02L683 498l.7.02.03 7.28-.02 3.09.03 9.3-.04 5.16-.01 13.42h-4.1l-8.18-.05-.03 6.22h-12.26l-.46.09-.15-.7.26-.97.62-1.51.07-.84-.53-1.17.2-1-.18-.62-.71-.86-.45-.27-1.08-.07-1.4.4-.73-.05-1.21-.54.21-.73-.16-1.48-.41-1 .45-2.28-.32-.18-.06-.85-.3-.86-1.29-.5-.68.14-1.06-.45-.6-.46-.25-1.19-.4-.75 6.47.01.02-2.06 8.2.02-.01-8.27h-2.06v-2.07h-8.2l-6.34-.03 1.05 2.08-5.04.01.02 3.45.79.67.88.01-.2.83 1.08.3 1.52 1.65 1.08.36.01 1.83-.12.93-.89-1.08-3.42-2.52-3.85-2.64-.98-.9-1.4-.22-1.56-1.45-.02-.44-.85-1.04.66-.61-.21-.45-.58-.19-.36-.58.34-.94 1.02-1.13-.25-3.78z"/>
    <path region="21" short-name="33" long-name="State Senate District 33" value="1" d="M833.36 392.45h6l1.21.65v1.43h2.09v4.19h2.09v14.22l-.01 2.2-.68-1.02-.53-1.8.14-1.2-.96-.94-1.13-.77-1.04-.47-.35.25-1.66-.05-.03-2.04h-2.08l-.01-2.1h-2.08l-.01-8.35-2.04-.02v-4.18z"/>
    <path region="22" short-name="35" long-name="State Senate District 35" value="1" d="m816.62 382 .26.35.64.02 1.56.5.33-.25 1.36.07v-.42l.78-.28h2.34v-1.67l2.6.05.9-.5 1.72.09v-1.67l-.25-.53h1.3v4.2h1.04v1.06h-1.03v3.15l3.15-.02v2.1h-2.04l-1.1-.59-.01.6h-2.57l-1.53 1.35-1.32.6-3.11.07-.84.1-2.46-.03.25-2.07-.18-2.45-.56-1.53-1-1.19-.6-.39z"/>
    <path region="23" short-name="36" long-name="State Senate District 36" value="1" d="m833.32 386.15 5.71.03 5.72-.03v-6.32l4.1.05 2.13.07 1-.07 3.14.01.03 10.46-.01 10.52-6.23-.04v-1.05l-2.6-1.05h-1.56l-2.1-.01v-4.2h-2.08v-1.42l-1.2-.66h-6.01l.08-2.1-.12-2.09z"/>
    <path region="24" short-name="16" long-name="State Senate District 16" value="1" d="m648.5 523.73-.85-.28.12-.93v-1.83l-1.09-.36-1.52-1.64-1.08-.3.2-.84-.88-.01-.79-.67-.02-3.45h5.04l-1.05-2.08 6.33.02h8.21v2.08h2.06l.01 8.27-8.2-.03-.02 2.06z"/>
    <path region="25" short-name="39" long-name="State Senate District 39" value="1" d="m818.34 390.35 2.46.03.84-.1 3.11-.06 1.32-.6 1.53-1.36h2.57v-.6l1.1.58 2.05.01.12 2.1h-3.26l.02 4.2h-2.09l-.02 13.34-1.09-.77-.97-.95-.68-.95-1.73-1.34-.58-1.39-.3-1.65 1.13-.02.06-2.1-1.04.02-.01-2.11h1.06l-.14-.93.15-1.15h-4.56l-.83-2.07z"/>
    <path region="26" short-name="40" long-name="State Senate District 40" value="1" d="m621.64 464.74 4.16 2.16v-3.18l3.1-.01v-2.08h3.1l.16 1.05.43 1.02h1.52l3.13.01v2.09l.35.71v1.36h.88V472l1.4-.02-.02.45.39 1.65H636.38l.04-.91-1.02.4-4.22.02v-3.67l-5.18-.02v3.4l-1.54-.28-2.52.04v-5.19h-.3z"/>
    <path region="27" short-name="21" long-name="State Senate District 21" value="1" d="M782.18 379.9v12.5l.05 3.16-3.12-.01v5.22l-3.13-.07-.03 3.94.02 5.59h-4.09l-2.17.13v-2.22h-1.03v-1.05l-11.48.01-.02-1.03-1.08-.18v-.9h-1.53l-.51-.52-.02-5.74-1.43.36-.77-.75-1-.02-.6-.63-1.2-.07-.23.5-.61.04-.6.58-.55-.02-.32 1.03-2.26-.02-.04 5.47.22 6.55-2.67-.05-2.05.03-2.08-.05-10.42-.01-6.19-.03-6.24.03-4.17.08-2.04-.07-4.59.02-18-.05-2.33.04-.27-1.76-.99.83-.8.47-1 .34v-1.15l-1.03-.04-.04-.78h2.09l.03-5.21-.01-5.23h.5v-1.04l-.46-.01-.01-1.03 2-.01.02-4.18 2.06-.01-.04-8.36h2.6l-.01-2.1h-.53l-.03-6.29h9.2l1.23-.04.12 5.2-.05 3.17 5.18-.02 5.28-.06 2.1.01v2.1l8.24.13.06-6.25 2.08.02 4.09-.05 18.88-.1.14-.5.86-.03 11.76.02 15.94.1z"/>
    <path region="28" short-name="22" long-name="State Senate District 22" value="1" d="m621.64 442.77 18.66.06v8.34l4.2.03v2.08l-.4-.05-.63.04-9.36-.03-12.46.02-.01 8.35 7.26.02v2.08l-3.1.01v3.18l-4.16-2.16h-1.73v1.04l-2.39.02-14.53-.03v-8.33l-.03-2.69.04-6.7-.03-5.27 5.19.03z"/>
    <path region="29" short-name="2" long-name="State Senate District 2" value="1" d="m832.54 342.05 4.2.04 4.19-.01.01 4.21 14.42.05.62 1.7 2.25 2.49 7.83-.01.03 4.21-.04 4.21h.17l7.16-3.91.88-.45 3.87-1.23 1.58-.9.52-.55 2.67-3.57-.11.47v18.52h-.34l-.17 6.23v2.14l-8.37-.01-2.1-.04-6.81.03-2.2.23-1.37.63-.14 1.11-.28.54.27.38v1.28l-6.16.05h-3.14l-1 .06-2.12-.07-4.12-.05-6.27.02.01-12.57h.38l-.01-8.39h-6.3l-.01-2.11z"/>
    <path region="30" short-name="23" long-name="State Senate District 23" value="1" d="m603 463.7-.01 2.07-.05 2.1h.4l.03 3.84-.03 3.4 3.64-.04 1.6.31 3.02 1.73 1.53 1.11 2.6 1.57v.51h-2.08l.02 4.15v8.34h3.88l-.59 1.78-.2 2.35-.8 1.7-.13 1.41.44-.28.73.08.08.35.8.07 1.14-.35 1.33-.98 1.6-.23.07.5-.01 18.38h-7.62l-3.5 2.75-3.34 3.57.1.22v14.25l2.08-.58-.01 9.82h-1v1.03l-4.18.02-.47-.36-.8.28-.16.64.45.7.03.83-1.91-.11-1.17.03-.01 1.05-2.06.03-.01 11.38-14.58.01-1.64.03-9.46-.01.01-10.02v-10.6l.01-8.28.21-.33-.02-16.34h-.43v-6.23l-.04-8.27-.08-10.38-4.07.04-.12-6.16 2.09-.05-1.26-1.2-.34-.7 1.33-.2 2.34-.01-.04-1.1.02-12.35.99-.04 4.88-.01.67.15 2 .9h2.86l.97-1.21.02-2.91h4.12l-.1-1.21-.4-1.3.01-1.66z"/>
    <path region="31" short-name="48" long-name="State Senate District 48" value="1" d="m641.87 459.55-.9 1.36 1.33.02 1.42-.23h2.84l-.01 3.02h2.14l-1.2 2.36-.42 1.8 11.94-.01v-2.09l4.16-.01-.01 2.1h4.11l.01 8.31-6.16.02v2.07l-10.3-.01h-2.42l-.8.47-.87.92-1.36.83-.34-.12-2.73-.04-1.48 1.1-.36.06.11-4.42-.23-1.3-.1-1.68-.39-1.65.02-.45-1.4.02v-4.13h-.88v-1.36l-.36-.71v-2.09l-3.12-.01v-4.25l2.98.02 1.16.1z"/>
    <path region="32" short-name="45" long-name="State Senate District 45" value="1" d="m613.67 484.45 2.07.01v1.05l2.07.01v1.04l4.13-.02 7.06.02.54-.3 1.43.04.94.42.65.8.38 1.01.48.1h2.93l.01 2.11h3.1l.69-.07 2.38.02 4.16.06.01 2.01h-2.07v.96l-4.12.01.01 1.03-2.08.02v2.07l-4.12.03v2.07l-3.12.01-.5 1.83-.29 2.56-2.2-.27-1.13-1.35-1.25-.93-.5-.7-1.18-1.05-1.22-.46-.98.1-1.6.23-1.33.98-1.14.35-.8-.07-.08-.35-.73-.08-.44.28.12-1.41.8-1.7.21-2.35.6-1.78h-3.89z"/>
    <path region="33" short-name="25" long-name="State Senate District 25" value="1" d="M817.66 407.12h8.29l1.24.22.27.48.63.07.02-13.34h2.08l-.01-4.2h3.25l-.07 2.1h-1.09v4.18l2.05.02V405h2.09l.01 2.09h2.08l.03 2.04 1.66.05.35-.25 1.04.47 1.13.77.95.94-.13 1.2.53 1.8.68 1.02-.04 2.43H838v6.47l-9.33-.02-9.37-.08-6.23.01.02-6.34 4.56-.03z"/>
    <path region="34" short-name="29" long-name="State Senate District 29" value="1" d="m816.84 258.36 10.58-.07 11.92.03 2.47-.03 10.52.02 18.93-.02 2.66.01h12.11l-.01 8.26-2.79.02v35.49l.02 14.76h-2.57v14.77l2.1.02.01 16.43.1.28-2.66 3.57-.52.55-1.58.9-3.87 1.23-.88.45-7.17 3.91h-.16l.04-4.2-.03-4.22h-7.83l-2.25-2.49-.62-1.7-14.42-.04-.01-4.21h-4.2l-4.19-.03-15.74.01.04-22.74.02-13.93v-11.07l-.01-16.96z"/>
    <path region="35" short-name="32" long-name="State Senate District 32" value="1" d="m511.3 567.21 18.47.03H552.26l20.49.02.41.01.07 2.02-.01 4.16-7.3-.03-.06 1.05h-1.81v1.01h-1.06v.54h-1.02v2.56h-7.28v1.03l-6.02.02h-6.14v5.99l-2.08 1.55-1.63 2.72h-.72l1.04 3.9v.66l-.64 2.54-.12 1.4.12 2.46-.07 2.46h-5.21l-.9-.17v1.1l-6.14-.04-5.19.04-17.35-.01v12.33l-16.4.02v-12.33l-.02-12.34v-14.26l.04-1.6-.02-8.8 4.52-.07 4.54.02h9.42l4.94.09z"/>
    <path region="36" short-name="46" long-name="State Senate District 46" value="1" d="m636.36 480.34.02-4.18h1.86l-.31-.59v-1.48h2.3l.11 1.68.23 1.29-.11 4.42.36-.06 1.48-1.1 2.73.04.34.12 1.36-.83.87-.92.8-.47h2.41l.05 6.22v8.29h-4.16v-2.02l-4.17-.06.02-1.59.77-2.56-3.87.01v-3.1h-3.1z"/>
    <path region="37" short-name="30" long-name="State Senate District 30" value="1" d="M637.93 474.09v1.48l.31.6h-1.86l-.03 4.17h-8.26l-2.08-.04v-7l-.01-3.4 5.17.02v3.67l4.23-.01 1.02-.41-.04.92z"/>
    <path region="38" short-name="20" long-name="State Senate District 20" value="1" d="m588.13 379.54.46.04 7.52-.03 11.97.01h13.38l10.44-.02 14.62.04.03-11.65-.09-.19.02-14.58-.01-10.46-.04-9.43V317.4l12.47-.03h8.37l4.22-.01 14.45-.01 7.62.02.2.2 2.33.92 3.68.52 1.34-.34 1.43-.15.55.11 3.18-.7.82-.59.92-.21.85-.6.7-.15.9.25.47.46.5 1 1.88 1.94-.08 1.33-1.18 1.92-.42.26-1.17-.22-1.4.05-1.6.84-.65.48-.7.9-1 .43-1.5-.24-.88.11-2.01.9-.62.5-.73 1.05-.2.84-.03 1.26.32 2.12.73 1.17.94.48 1.04 1.08.21.64 1.72.86h1.5l1.65.67.74-.11.97-.93.94-.18.59-.57 1.84-.13.73-.48.75-.07 1.01.23.86-.95.28-.53.95-.69.65-.75.5-1.13 1.13-1.87.02-1.31.39-.56.93-.71.67-1.43 2.62-2.06.85-.3.9-.71 1.6-.71 1.86.4 1.9 1.82.53 1 .52 1.63.15.85.4.86.04 1.64-.2.83.58.92 1.2.82.4.72v1.26l-1.38 3.42.1 1.25.75 1.12 2.4 1.96 1.83.54 1.5-.33 1.64-.18 1.38-.29.98.53.57.85.26.93.84.67.77.3.26.73.27 2.32 1.24 1.04.95.23.87-.13 1.08-.88.64-.84 1.45-1.46.9-.6.52.09 1.13.81.5 1.04.42 1.38-.51 1.79-1.3 1.34-1.43.55-.87.13-.59.4-1.57 2.3-.12 2.45 1.12 1.39 1.34.9 1.87.5h1.3l1.17-.28 1.11-.68.5-.62.48-1.45 1.07-1.53.47-.46 1.17-.36 1.13-.07.88.27 1.3 1.58.43.9.4 1.45.07 1.58.49 1.2.7.82.63.4 2.46.57 1.7.92 2.82 2.47 1.3 1.82 1.33 1.08 1.55.5 2.95-.24 1.28.2 2.7-.1.92.15.64.39.89 1.31.4 1.44-.12 1.13-.42.78-1.98 1.75-.55.83-.12.88.23.81-3.46-.04-9.12-.07-15.94-.1-11.76-.02-.86.02-.14.51-18.88.1-4.09.05-2.08-.02-.06 6.25-8.24-.12v-2.1l-2.1-.02-5.28.06-5.18.02.05-3.18-.12-5.2-1.22.04-9.2.01.02 6.28h.53l.01 2.1h-2.6l.04 8.37h-2.06l-.01 4.19h-2.01l.01 1.04h.46v1.05h-.5v5.23l-.02 5.21h-2.09l.04.78 1.02.04v1.15l1.02-.34.8-.47.98-.83.27 1.76.01 6.26h-.1l-.01 4.24-.9.03-11.42-.11-12.46-.1-.01 4.17-2.08-.03.02 4.17-5.2-.01v12.6l-.37-.03-11.04-.05-18.67-.06-.01-11.46-.03-7.88-.57.8-.75.39-1.26-.34-.58-.72.53-1.54.13-1.25-.8-1.33-1.18.48-.45-.36-.04-.58.5-1.25-.2-1.03-.85-.7-.9.75-.6-.46v-.5l-.73-.9-.64.24-1.76.35-.77-.1-1.15.22-.5-.07-.73-.64.06-.68 1.78-.2.4-.3.07-.68-.39-.58-2.48-.56-.44.6-.79.42-.76.01-1.25-.68-.92.29-1.1 1.04-.93.17-1.31.48h-1.12l-.96-.64-1.86-.53-.73-.39-1.96-2.3-.15-.66-1.48-.58-.98-.81-.89-1.04-1.97-.7-.06-8.6v-5.24z"/>
    <path region="39" short-name="44" long-name="State Senate District 44" value="1" d="m626 480.3 2.1.03h8.25v3.12h3.1v3.1l3.87-.01-.77 2.56-.02 1.6-2.38-.03-.69.07h-3.1v-2.1h-2.94l-.48-.1-.38-1.02-.65-.8-.94-.42-1.43-.05-.54.3h-7.05v-2.1l-2.08.05.02-4.18z"/>
    <path region="40" short-name="42" long-name="State Senate District 42" value="1" d="m650.81 478.25 10.32.02-.01-2.07 6.16-.02v-8.32h-4.12v-2.1l-4.15.02v-6.23h12.43l2.02.04-.01 1.5.07 8.9-.08 4.87-.05 11.7v6.23l-1-.02-11.26.01-10.27-.01v-8.3z"/>
    <path region="41" short-name="12" long-name="State Senate District 12" value="1" d="m782.18 379.9 3.46.04 10.88.13.2.86 1.04.85.18.49.94.23 1.5 1.15.75 1.33 1.46.57h.81l-.12 2.67 6.05.02-.03 4.2 4.19.01v16.76h2.09l.02-2.09h2.06v10.45l-4.57.04-.02 6.34-6.18-.05-12.4.03v9.42h-4.13v-3.15l-3.6.02-.02-.24h-3.95l-.04.24h-2.68v.2l-2.03 1.06-.03 1.65.18 1.27-6.42-.06v-1.36l-5.22.12-3.12 1.68v-6.7l-9.67 3.22-.56.25-8.56 4.84.03-13.52-.11-9.52.09-1.6-.22-6.55.04-5.47 2.26.02.32-1.03.55.02.6-.59.61-.03.24-.5 1.18.07.61.62 1 .03.77.75 1.43-.36.02 5.74.51.52h1.52v.9l1.09.18.02 1.03 11.48-.01v1.05h1.03v2.22l2.17-.13h4.09l-.02-5.59.03-3.94 3.14.07v-5.22h3.1l-.04-3.16z"/>
    <path region="42" short-name="19" long-name="State Senate District 19" value="1" d="m520.07 258.34 15.83.07 7.21.08h12.77l14.67-.02 17.11-.05 10.37-.02 20.92-.04 7-.03 3.56.06h16.83l13.95-.04 10.15-.01 12.6-.02 11.88.02.4 1.03.05 1.7-.66 2.62-.55 1.74-.3 1.43-.2 2.49.17 1.69-5.56-.04v4.38l-.31.69.28 1.26v4.22l4.16.05v4.21h-2.07V290l-8.37-.04v2.11h-5.25l.04 5.27h-10.53v-1.07h-4.2v1.04H661v-1.03l-3.13.03v1.05l-10.95.04-.57-.53-.02 20.53h.1l.01 15.87.04 9.43.01 10.46-.02 14.58.09.2-.03 11.64-14.62-.04-10.44.01-13.38.01h-11.97l-7.52.02-.46-.04-15.88-.04-.76.02.02-11.71-.08-2.1v-11.49l-.01-11.58.01-6.3-13.53-.03-17.74.03-18.8-.01.02-19.02h-.82v-18.97l.02-20.08v-11.63h-.55z"/>
    <path region="43" short-name="11" long-name="State Senate District 11" value="1" d="m816.78 367.21.83.1 8.36-.03v2.09h4.2l-.01 2.87-1.15.95-3.02.45-.01 4.12h2.88l.25.53v1.66l-1.73-.09-.9.5-2.58-.04V382h-2.35l-.78.28v.41l-1.36-.06-.33.25-1.56-.5-.64-.02-.26-.36.14-1.07-.3-.28-.73.23-.82-.18-1.38-.05v-.59l-5.15.02-.06-2.13.02-10.05.19.1 8.24-.02z"/>
    <path region="44" short-name="34" long-name="State Senate District 34" value="1" d="M832.54 356.78v2.11h6.3l.02 8.4h-.38v12.56l6.26-.02v6.33l-5.7.02-5.72-.03-3.15.02v-3.15h1.03v-1.06h-1.04v-4.2h-4.18v-4.12l3.03-.45 1.15-.95.01-2.87h-4.2v-2.09l-8.36.03-.83-.1-.02-5.13.02-7.4 2.59.01-.65.36-.12.49.62.34.88-.22.36.91.59.2z"/>
    <path region="45" short-name="18" long-name="State Senate District 18" value="1" d="m602.99 465.77 14.53.03 2.38-.02v-1.04h1.74v3.13h.3v5.2l2.52-.05 1.55.28v7l-6.12.02-.02 4.18 2.08-.06v2.1l-4.14.02v-1.04l-2.07-.01v-1.05h-2.07l-.02-4.16h2.07v-.5l-2.58-1.58-1.54-1.1-3.03-1.74-1.59-.31-3.64.03.03-3.4-.03-3.83h-.4z"/>
    <path region="46" short-name="24" long-name="State Senate District 24" value="1" d="m644.63 493.72.02 1.05 2.05.03v2.07l2.08-.02v2.08h-2.07v2.08h2.08v4.13l-13.77.01-2.02-1.45-.55-.23-2.04-.12.28-2.56.51-1.83h3.12v-2.08l4.13-.03v-2.08h2.07l-.01-1.04z"/>
    <path region="47" short-name="37" long-name="State Senate District 37" value="1" d="m808.38 380.07 5.15-.02v.59l1.38.05.82.18.73-.23.3.28-.14 1.07-.37.73.6.4 1 1.18.56 1.53.18 2.45-.25 2.07.22 2.13.83 2.08 4.56-.01-.15 1.15.14.93h-1.06l.01 2.1h1.04l-.06 2.09-1.13.02.3 1.65.58 1.39 1.73 1.34.68.95.97.95 1.1.77-.64-.07-.27-.48-1.24-.22H815.6l-.02 2.1-2.08-.01-.01-16.76-4.19-.02.03-4.2h-6.05l.12-2.69h-.8l-1.47-.56-.75-1.33-1.5-1.15-.94-.23-.18-.49-1.03-.85-.2-.86 10.6.03z"/>
  </g>
</svg>
