<svg auto-border-stroke-width="1" auto-border-stroke-width-limit=".5" original-source='["https://www2.census.gov/geo/tiger/GENZ2022/shp/cb_2022_us_sldl_500k.zip"]' candidates="[{&quot;id&quot;:&quot;0&quot;, &quot;name&quot;:&quot;Democrats&quot;, &quot;margins&quot;: [{ &quot;color&quot;: &quot;#1C408C&quot; }, { &quot;color&quot;: &quot;#577CCC&quot; }, { &quot;color&quot;: &quot;#8AAFFF&quot; }, { &quot;color&quot;: &quot;#949BB3&quot; }]},{&quot;id&quot;:&quot;1&quot;, &quot;name&quot;:&quot;Republicans&quot;, &quot;margins&quot;: [{ &quot;color&quot;: &quot;#BF1D29&quot; }, { &quot;color&quot;: &quot;#FF5865&quot; }, { &quot;color&quot;: &quot;#FF8B98&quot; }, { &quot;color&quot;: &quot;#CF8980&quot; }]}]" version="1.1" xmlns="http://www.w3.org/2000/svg" viewBox="0 0 905.35 1000">
  <g regions="y" transform="translate(-47.33)">
    <path region="0" short-name="12A" long-name="State House District 12A" value="1" d="m220.37 628.52 19.35.11 9.72.05-.03 14.47.13.02 16.77.13 12-.07 4.19.05 10.3-.02 14.44-.12 14.5-.02.02 8.68-.04 5.88h14.5v-8.7l.04-6.3-.01-14.7.06-1.8 5.38.04h5.37l3.62-.05v5.76l.05 3.82-.08 3.6.05 1.44-.04 12.17.05 4.82h.53l-.06 12.99-.02 11.66-.63-.01.04 1.82h.61l-.04 2.38-14.36-.11-14.44-.02-14.32.12-14.38-.04-14.43-.04v16.94l.04 4.86-.03 7.14h1l.02.55v13.77l-14.37-.05-16.69.19-11.9.04h-4.74l-23.79-.08-14.3-.02-6.61-.04-.6-.65-.75-.39-.9.32-.48-.41-1.68-.91-1.2-.21-1-.63-.4-.77-1.02-.58-.26-.92-2.87-1.44-.7-.23-1.35.43-2.66-.34-.23-.3-1.57-.7-.66-.62-1.25-.49-.64-.72-.17-.57-1.04-1.04-.46-.2-.75.43-.85-.28-.4.29-1.13-.16-1.05-.6-.94.15-1.05-.32-.66-2.2h-.53l-.12-.76.52-.9-2.17-.5-1.16.31-.34-.43-1.51.08-.08-.3-1.1-.66-.99-.17-.44.26-2.18-.36-.66-.53-3.44.7-1.28-.78-.33-.88-1.54-.47-2.6.07-.02-4.85-1.03-2.62-.55-.55-.3-1.29-1.19-2.44-1.14-2.9-1.5-1.4-.73-.4-1.6-1.3-1.06-.47-1.76-.43-1.9-.83-1.95-1.04-.69-.57-1.92-1.24-1.93-.82-3.53-.34-1.68.19-.94-.26-1.19.01-1.4-1.14-1.12-1.48-1.02-1.78-1.58-2.43-.83-.92-.64-1.63-.19-1.12-.59-1.19-.23-1.35-.86-2.24-1.45-3.21-1.85-2.43-1.5-2.46-.95-.79-3.9-5.13 23.29.07 14.64.05 9.71-.02 14.58.05 1.18-.05h4.7l-.12-14.58v-14.58h11.2l3.28.03 14.53.03 9.68-.02z"/>
    <path region="1" short-name="15B" long-name="State House District 15B" value="1" d="m266.94 804.75.7.4 2.18.2 1.02.5.73-.23.77.26.38.69-.24.71.06 1.14 1.16 1.32 1.02.64.4.47 2.53.37 1.43-.38.9-.94.96.43.82 1.42.81.69.4-.04.63 1.07.58-.2.27.82.44.13 1.05.85.57 1.03.6.2.15.62.95.25.48.64.88-.43.66.3.49.64.7.1.5 1.28 1.53 1.08.1.75.76-.21.96.47.35.9 1.47.65.38 1.91.2.32 1.32.02.45.42.75-.78.94.3.45.65.72.24-.1.7.9.1.16.59h1.03l1 .26-.13.45 1.09.77.83-.35.22 1.42 1.88-.81 1.2.74.51.53.95-.14 1.04.3-.16.9 1.3.14.44.6.83-.1.44.61.95.5.48-.32 1 .73.21.6.7.12 1.43-.24.45-.58 2.33 1 .1 1 .46.5-.03 1 .94.2.86.56.47.77.99-.4 1.64.59.4.82.56-.25.96 1 .51-.34.13 1.66 1.95 1.71.37.75 1.12-.06-.03 1.14.46.48.97-.01.12.63.55-.01.55-.6 1.06-.5 2 1.29.68 1.33 2.24-.09 1.5 1.39-.25.67-.75.84.45.56.46-.7.74.02.44.93-.48.61-.93.19.48.75.53-.79.78-.32.8.24.58.77-.85.98.98.4.71-.11.1-.7.64.26.44.66.92-.63.82.33.58.57.6.13.12 1.1.6.4.74-.55.85.1.84-.19.75.49.2 1.03.78.41.59-.46.24.81.98-.66.82-.03.3.78.95-.07.4.25.26.93 2.82-.1.6 1.2 2.1.94.4-.3-.42-.9.27-.35.83.5-.13 1.05.84.54.4.78.64.02.33.54 1.34 1.36.94-.26.2.83-.25.68.22 1.35.92 1.2 1.88 3.01.8.14.83.53.41 1.15-.2.99 1.36.43.27.45 2.28.5 1.59.22.63.53.47-.18.79.61 1.38.18.79.47.23.69.92.59.1.43 1.85.27.45-.14.22.79.85-.29.65 1.05-.18.76.82-.08.88.78 1.2-.08.71.17.25.46.68.12-.39.87 1.1.13.38.7.63-.46 1.04.12.3 1.02h.54l.86.87 1.3-.4.96.72 1.18.1.87.4 1.9.2.57.34 1.02-.36 1.07 1.16.58.33-.04 9.77.15 2.66-6.2-.01.28-.32v-2.01l-5.44-.03-.38-.5-.02-2.46h-2.34v5.31l-.17.06-9.82-.04-18.1-.04h-10.63l-4.64-.02-13.89.01-4.7.08-9.5.06-14.07.05-14.04-.05-.1-14.16-4.44-.07-10.63.02-16.56-.08-11.82-.03-5.25.08-8.89-.02.04-14.27-.1-14.27.04-9.52-.1-11.83.03-4.73-.05-2.1 1.42-.03 6 .08 15.52.04h4.47l.01-8.2-.01-8.46z"/>
    <path region="2" short-name="21A" long-name="State House District 21A" value="1" d="m139.19 886.93.02-14.02.04-2.61-.01-4.47.06-22-.04-2.06.02-11.58.03-14.4 15.77.1 11.88-.1 4.6.03 9.7.11-.04 4.46.03 9.67 1.49.17.05 5.38v8.45l.06 7.16.03 13.09-.02 8.4.08 14.25 1.73.03 6.53-.02 7.57.03 22.56.02 14.85.17 3.47-.06 8.9.02 5.24-.08 11.82.03 16.56.08 10.63-.01 4.45.06.09 14.16 14.04.05 14.07-.04.07 9.42v14.1l.01 4.7-6.43-.02-.88.47-1.48-.01-.59-.44-4.66.04h-5.3l-5.37-.07-14.91.01-11.28-.1-5.39.07-.05 7.05-.01 7.02-8.76.02h-18.3l-14.01-.02-13.97-.03-.03.42-.06 13.7-.07 9.4-.12 6.65-.02 3.84.03 5.92v11.72l-.1 4.3-.08.34h-19.02l-17.03-.02-12.31-.02-12.03-.02-7.97.01h-6.2l-.01-23.5v-23.54l.03-2.21-.01-11.92-.02-16.14.04-5.01-.02-4.8.02-11.85z"/>
    <path region="3" short-name="39B" long-name="State House District 39B" value="1" d="m516.32 742.6 1-.05.06 1.82 1.38-.04 2.41-.4-.2 2.77.58.03v1.2h-.58v1.18h-2.39l.05 4.89-1.17.03-.02-1.22-1.05.03-.01-3.71-5.27.02-.01-.88.5-.01-.02-1.2h1.5l.9-.3v-1.93h2.37z"/>
    <path region="4" short-name="16A" long-name="State House District 16A" value="1" d="m187.84 729.84 6.6.03 14.31.02 23.79.08h4.74l11.9-.04 16.69-.2 14.37.06-.04 4.81-.01 9.6-.17 14.42-.04 7.2.02 7.16 8.45.01 6.8-.04 11.04-.01 2.4-.03v-7.23l.07-12.1.1-8.1-.03-1.52 14.27.08 14.36.01.02-14.43-.05-4.8-.02-9.41h-.7l.05-14.46 14.38.08 9.73-.05 2.64-.04 4.52.04 8.37-.04 4.73-.08.02 7.29.02 7.28h-13.8l.03 2.38-.14 8.7-.04 7.44h1.2l-.35.75.72.12.13.75-1.68-.5.04 9 .02 10.74v9.31l-.06 8.7h.55l-.04 5.71.03 8.69-.03 14.46-15.37.08.04 14.37-.01 14.28h.57l.02 14.14-13.96-.04-4.33-.06-1.12.06-.37-.75-1.95-1.7-.13-1.67-.5.33-.97-1-.56.26-.4-.82-1.64-.58-.99.39-.47-.77-.86-.56-.94-.2.03-1-.46-.5-.1-1-2.33-1-.45.58-1.43.24-.7-.13-.2-.59-1.01-.73-.48.32-.95-.5-.44-.6-.83.1-.44-.6-1.3-.15.16-.9-1.04-.3-.94.14-.52-.53-1.2-.74-1.88.8-.22-1.41-.83.35-1.09-.77.13-.46-1-.25h-1.03l-.16-.58-.9-.1.1-.7-.72-.25-.45-.65-.94-.3-.75.78-.45-.42-1.31-.02-.2-.32-.4-1.9-1.46-.65-.35-.9-.96-.48-.76.2-.1-.74-1.53-1.08-.5-1.28-.7-.1-.5-.64-.65-.3-.88.43-.48-.64-.95-.25-.14-.62-.61-.2-.57-1.03-1.05-.85-.44-.13-.27-.82-.58.2-.63-1.07-.4.03-.8-.68-.83-1.42-.95-.43-.91.94-1.43.38-2.53-.37-.4-.47-1.02-.64-1.16-1.32-.06-1.14.24-.71-.38-.69-.77-.26-.73.23-1.02-.5-2.19-.2-.69-.4-2.06-.73-.9-1.08-1.24-.66-.61-.9.49-.8-1.26-1.11-1.03-.66-.8-.25-2.05-1.22-1.99.44-.53-.55-.12-.75-.55-.06-.39-.67-.64-.48-1.13.88-.53-.33-.01-1.54.21-.34-.66-.92-1.12-.52-1.25 1.04-.34-.83-.8.35-.61-.82.89-.11-.3-1.3 1.46-.05 1.7-.58.1-.32 1.7-.02-.01-2.42-1.79.01v-1.2l-2.32-.03-.65-.35-.02-.86-.83-.02-.37-.61-2.36-.1v-.55l-1.12-.01-.34-.45.14-.73-.9-1.15-.4.24-2.75-.7.45-.78-.52-.51-.93.28-.74-.24-.14-.6.22-.87-.74-1.3-.68-.23-.72-1.48-.5.76-.47-.15-1.54-1.75.54-.25-1.7-1.3-1-.4.08-1.25-.93-.51-.84.82-1.04-.3-1.56.09-1.01-.39-.62-.55.55-.35-.24-.73.17-.86-.91-1.4-.76-.9-.65-.37-.5-1.17-.38.47-1.05-.83-.07.8-1.54-1.05-.08.73-.8.17-.32-.59-.58-.29-.67.22-1.61-.45-.05-.42-.74-1.6-1.04.06-.48-1.4.11-.97-.26-1.04.08-.86-.74-.62-1.7-1.9-1.11-.48-.96-1.22-.73-1.9-.57.3-.78-.41-.51-1.4-1.1-.57-10.01-10.11-1.47-2.2-.96-.35.15-1.06-.84-.7-.64-.03-.28-.82-1.22-1.25-.36-1.08-.99-1.22z"/>
    <path region="5" short-name="6A" long-name="State House District 6A" value="1" d="m378.55 421.74 14.93.09.34.07 14.2.28 13.84.05.75-.02-.06-4.37.02-7.52-.24-3.2.17-15.13 3.4.18 5.14.02 6.36.17.06-14.95 2.24.17 6.5-.06 1.91.34.86.32.06 1.26.41.42.13-2.28 2.84.05.03-3.02 5.83.07v-.63l2.49.1.03-4.34 11.48.05 12.36-.05.28 1 1.3 1.5.2.72-.35.95.2.54-.46.82.74 1.81.22 1.34.48.51.17 1.12-.91 1.3-.16.8.45 1.12 1.36 1.34 2.29-.03-.05 14.95h.45l.15 7.8.02 6.05-14.91-.18-9.59.08-11.32-.17-2.92-.07-.03 1.48.07 7.9-.02 14.78-.11 14.79-.18 9.03.06.16-.15 20.33.04 5.93v.9l-.9-.01-1.3.65-1.72.28.01 11.6-.1 1.98.24 14.75-.04 7.31-.03 20.5.27.75.49.27.62-.25.32.93-8.66-.02-.58-.06-7.2.04-.03-14.69-6.46.02-18.04-.02-4.04-.08-.88-.01v-1.84l2.47-.26.62-.32.28-.61.76-.58.8.04-.03-1.21-2.1-.1-.36-1.26.58-.44 1.2-.11.56-.6.66-1.25-.28-.59-1.54-.2-.13 2.1-.93.29-.16-2.75-.54-1.1.77-.65.82-1.02.63-1.6.6-.55.61-1.52.04-1.23.33-.62 1.65-.25.92.06.49-.52 1.7-.76.72-.65 1.6-.11.96-.8.38-1.06-.48-.98-1.03-.78-.02-.73-.63-.77-.96-.66.2-.93.8-.75.27-.66-.23-.88 1.03-.36.06-.68.67-.81-.41-.66-.57-1.68.18-.62.86-.26.92.38 1.22-1.12.27-1.06.7-.2.9.15.52-.25-12.76.12-.12-14.8-9.55-.05-2.63.01-.06 1.86-.64.62-1.74.09-.04-2.55-1.7.03-.13-8.8.12-6-7.45-.04.22-3.98.01-7.97.09-2.9-7.55-.07.05-11.65-.04-.15.04-8.29z"/>
    <path region="6" short-name="1A" long-name="State House District 1A" value="1" d="m48.46 68.67 11.94.02h22.87v.08h111.74l11.5.04 12.93.04 32.98.1 13.53.05 5.7-.01.26.46-1.06 2.51.15 2.18.67 1.11-.17.67.4 1.32 1.39.5.13.64-1.24.02-.88 1.02.02.85.79 1.97.6 1.08 1.12 1.36.57.42-.54.73 1.2.49.32.65 1.25.39.32.45 2.3 1.53 2.26.53 1.06-.04 1.8-.54 1.46-.13 4.3-1.16 1.58-.05 1.2-.46 2.54-1.56.3-.57 1.37-1.13 1.24-1.32.13 18.86V112l.07 1.24-.01 6.52-8.7.03-20.87-.02.05 13.51-.04.1.01 16.96-2.43-.02-10.3.07-4.44.13-10.83.1-2.37-.04.14 1.2.02 7.58-.22 16.6.14 5.2h1l-.03 14.78-.04 2.96-.03 16.07.1 11.45.07 15.23 1.12-.02.05 5.14.04 10-8.7-.18-3.31-.02-2.9-.12-.02-4.98-15.02-.03-13.88.06-1.22-.05-14.44.17-.6-.04-6.62.12-9.44.04-7.71-.03-1.25-.05-10.04-.02-10.13-.04v-10.15h-2.15l-.02-15.22.03-11.47-3.83.07-24.07.06-17.68.05-15.18-.02H58.08l1.17-.5-.07-.9-1.5-.4.24-.72.77-1.07.65-.6-.62-.98.38-.61.95-.32-.14-.51-1.01-.6.05-.48.9-.02.4.48.39 1.13.78-.31-.19-.66-.63-.68-1.84-.83-.76.58-.3-.76 1.46-.67h.46l.92.64.11-.89-2.13-.49-.2-.68 1-.32.01-.7-1.02-.05v-.87l1.29-.66.97-.02.03-.56-.65-.77.65-.45.08-.6-1.27-.4-1.03.01.4-.94 1.76.12v-1l.92-.33.1-.47-.64-1.65-.38-.31-1.19.84-.3-.67 1.15-1.4 1.52.87.26-.68-1.37-.82-.23-.38.53-.93-.55-.35-.79.51-.5-.53.49-1.12 2.02-.66-.12-.67-.55-.26-1.35-.08.92-1.84-.2-.77-1.4-.28-.1-.5.48-.93-.88-.37-.54-1.1-.82-.53.08-1.1.59-.2 1.22.13.2-.56-.44-.86.8-.4-.2-.56-.94.4-.74-.13-.77-.59.07-.86-.64-.73 1.01-.39.62.04 1.95-1.73-.02-.52-1.39-1.5-.5.85-.64.03-.18-.78.45-.35 1.24-.37.8.12.87.84.42-.38-.5-.9-1.85-.75-.3-.87.78-.17.81.42.8-.43.1-1.1-.32-.58-.93-.04-.77.84-.62.1-.48-.56.28-.5 1.5-.85.7-.91.1-1.1-.58-.63-1.01.09-.72-1.3.73-.7 1.46.56.07-.75-1.37-.3-1.67.45-.71-.16-.08-.71.5-.3 1.38-.25.62-.31.07-.6.87-.06v-.7l-1.43-.9-.62-.79-.02-1.76 1.28.05 1.25-1.06.1-.64-1.07-.13-.71.47-.93-.01-.49-.83.14-.95 1.3-.46V151l-2.01-.85-.74-1.38.41-.87.78.52 1.74-.03.3-.54-.9-.52-2.3.03-.75-.35-.37-.59.52-.47 2.25-.44.44-1.24-.2-.4-1.24-.38.2-.57 1.18.22.64-.48.16-1.25-.43-.57-.87.02.2-.73.83-.05 1.06-1.42-.32-.44-1.26.09-.17-.77.55-.34 1.42.22.37-.66-.57-.55.54-.41.73.79.42-.64-1.24-1.33v-.51l.86-.3 1.16.6.49-.4-.04-1.1-.7-1 .91-.57.27-1.1.72-.9-.14-.64-.7.03.8-1.57-.24-1.74.94-.15.15-.74-2.02-.97-1.2-1.73-.06-.42.96-.3.27-.4-1.05-.63-.87-1.73-1.22-.88.74-.6.04-.84h-.88l-.51-.58.6-.8-.15-1.47-1.28-.02-.66-1.25.89-.77.15-.68-1.35-2.01 1.04-.4-.16-.6-.88-.02-.24-.52.28-.79-1.65-.34-.02-.81.94.06.1-.7-.86-.19-.7.65-.37-.63 1.53-.74.84-.22v-.79l-1.79-.2-1.7-.87 1.05-.56.22-.83-.72-.97-.07-.56 1.25-.87-.4-1.28.46-.85-.67-1.24-.05-1.03-1.24-.08.17-.68.99-.93.06-.8-1.14.1-1.07-.66.13-1.15-.5-.9.9.07.5-.55-.54-.77-1.56-.68-.59-.98.18-1.52-1-.96.43-1.89h-.76l-.5-1.01.04-1.3-.89-.35.53-2.92-.93-.24-.1-3.08.48-1.12.89-.7-.64-.38-.16-.56z"/>
    <path region="7" short-name="66B" long-name="State House District 66B" value="1" d="m526.38 756.36 4.15.01 4.66-.02.01 3.58-1.18.02v.78l-.86.1-.69-.3.06-1.72-3.65-.04-.14 1.49-.6-.3h-1.77l-.6.46-.03-1.9.45-.97-.97-1.19z"/>
    <path region="8" short-name="22B" long-name="State House District 22B" value="1" d="m420.65 897.52.56-.01.92-.46.68.72.8.2.18 1 3.46-.06v-1.18h1.18l.03-1.18 2.92-.01-.02-1.18 3.54-.02 1.95.95.99.24h1.18l-.02-2.36h1.18l.49.75.1-2.33.58.1v-2.64l-1.27.02-.19 1.14-.87-.05-.02-7.65.02-3.54-4.23-.06-4.02.06-.02-5.24.5-2.98-.25-2.33-.31-.53.73-1.76.32-.38-.23-.7.48-.96.59-.12-.19-1.26.48-.36.6.25.39-.85-.41-.85-.86-.8-1.22-.34-.41-1-.54-.45.01-.8.74-.48-.18-.93-.7-.36.09-.44 1.19-.23-.24-.6.63-1.24-.2-1.61-.4-.47.78-.57.75.13.36-1.35.4-.83.13-1.23.64-2-.64-1 .64-.28-.2-.58.8-.32.7-.73-.51-.7-.7-.41.8-.73.78.52.71-.27.6-2.81.9-.32.56-1.02-.11-.93.41-.1-.06-1.27.28-1.1-.32-1.25-.82.02-.68-.5.03-1.05-.43-.44-.91.08.1-1.25.54-.89.95.17-.1.75.91-.12v-.99l-1-.52.28-1.09.76-.59-.18-.49-.88-.13-.06-.44.68-.4-.06-.9.34-.81-.54-.7.9-1.23.85.08v-.68l.6.01-.08-.89.62-.08.43.62.98-.62.76-1.8-.42-.64 1.44-.22.52-.34.5.99 2.18-1.74.29-.65 1.93-.31.51.18.44.86.95-.5 1-1.02.64 1.04.59-.44.96-.27.22-.38-.78-.61 1.53-.57 1.04-.11 1.38-1.8.48.43.81-.78-.7-.76.91-.62 1.87-.38 2.25-2.84.38-.91 1.12-.55.7.04.51.92 1-.9.34.47-.05 1.82h-1.2l-.03 1.24h1.2v3.58h-1.03l-.11 1.2 1.18.14.02 2.23-.05 6.22-.16 8.01 11.27.06 2.92-.01-.02 14.18 2.82.03 4.35-.07 3.54.05 3.57-.04-.03 4.77.05 4.71-.1 4.73-14.22.02-.06 9.5v18.95l-15.27.04-6.67-.04-6.44.05-.04 24.18v4.11h-14.05l-.02-14.15h-5.14l-1.18.07-1.9-.07-6.55.09-3.14.01.03-.69-.62-.48-1.2-.51.21-.83.84-.12z"/>
    <path region="9" short-name="63A" long-name="State House District 63A" value="1" d="M518.62 761.64v1.12l.49.37.4 1.56-.07 1.2.11 1.21-.16 1.5-.87-.1-.75.36-.6-.86h-.95v-.6h-2.23v-3.84h1.05l-.74-1.55-.86-1.37.99.24 1.55.01.68-.4.77.12z"/>
    <path region="10" short-name="9A" long-name="State House District 9A" value="1" d="m126.22 599.1.27-1.76-.4-.79-.06-1.17-.59-1.06-.24-2.8-.14-3.71-.27-.96.2-1.44-.44-1.74.5-1.86.86-2.27.63-.68.47-1.58-.14-1.23.42-2-.31-.94.06-1.3-.3-1.3-.9-1.65.78-.31-.83-.54-.27-1.07.12-1.04-.72-1.83-.55-.75.38-2.02-.46-2.05.06-.79-1.03-.49.15-.59-.51-.32.35-.85.1-.94.32-.33.07-1.17-.54-.1.26-.87-.7-.68.13-.72-.7-1.62-.16-1.38.1-1.22 1.53-.77-.7-.33-.48-.72.07-.92-.6-.47.33-.98.16-1.48-.57-.69.55-.73-.15-1.15-.96-.48.91-.65-.71-.73.75-2.5-.47-.33.13-1.64-.95-.56-.34-.72-1.1-.77.49-.77-1.44-.62-.56-.54-1.41.32-.34-1.02.53-.93-1.34-.6-.16-.59-1.1-.88-.45-1.7.2-.44-.83-.79.3-.61-.69-1.59-.4-.5-.68.37-.25-.66.33-.86-1.24.33-.26-.76.93.1-.18-.95-1.13.79-.18-.33.43-1.33-.55-.27-.4-1.1-1.11-.79-.27-1.62h.79l.29-1.78-.82-.35.6-.52-.8-.85-.76-.32v-.75l-.67-1.03-.63-.47.46-.56-.3-.6.22-.57-.45-1 .45-1.01.04-.66-.63-1.48.36-.72-.8-.37.03-1.26.3-1.2-.99-1.5.4-1.07-.26-.42.5-1.5-.36-1.45-.64-.1.11-1-.64-.8-.07-1.46-.76.13-.4-.71-.52.33-.07-1.15-.7-.71.7-.27-.54-.77.18-1.23-1.35.34.37-1.21-.13-.69 15.11-.02h12.76l11.91-.02 2.9-.03h16.23l12.72.02-.17-9.15-.08-5.71 3.35-.03 11.45.05.24 14.93 1.6.01.12 14.86.06 14.76 4.63-.05 9.97-.04.05 11.07.1 11.01.04 7.37 1.07.03.03 14.72 14.6.09.02 14.74v10.6l.03 18.66h1.26l.04 19.42-.01 9.75-19.25.06-9.68.02-14.53-.03-3.28-.04h-11.2v14.6l.11 14.57h-4.7l-1.17.05-14.58-.05-9.71.02-14.64-.05-23.3-.07-2.51-3.19.03-.64.5-.97.1-.76.86-3.37.4-.96.95-1.07.76-.41 3.04-2.38 4.6-3.2 1.22-1.89 4.59-3.14 2.8-1.4 1.7-1.08 1.17-1.06 1.22-1.36 1.2-2.2.38-1.72 1.56-2.97 1.5-1.1 1.85-2.9 1.12-.79.86-1.57.26-2.03.35-.87.18-3.1-.2-.88.33-.85-.09-.77.15-1.72.3-.23.06-2.5.45-1.09-.67-.44.15-.85.57-.41z"/>
    <path region="11" short-name="1B" long-name="State House District 1B" value="1" d="M58.09 214.92H72.8l15.18.02 17.68-.05 24.07-.06 3.83-.07-.02 11.47.01 15.23h2.14v10.14l10.14.04 10.04.02 1.25.05 7.71.03 9.44-.04 6.61-.12.6.04 14.46-.17 1.2.05 13.9-.06 15 .03.03 4.98 2.9.12 3.32.02 8.69.18.12 12.59.16 13.9-.03 3.72.13 10.07v5.03l2.98.02-.04 5.02.02 10.04-.08 15.05h-3.38l-11.19.1-8.51.03-4.31-.05-9.43.02-.7.04h-22.5l.02 15 .09 15.48v6.74l-.05 11.47v11.22l-14.92.11.06 14.99-7.5-.06-7.47.06-13.41-.02-7.47.02-7.38-.1-.03-14.94-14.73.02-17.5.15.42-.53 1.31-.23.08-1.07.62-.65-.65-.29.13-1.27-.36-.59.58-1.2-1.21.15-.09-.71.74-.25-.26-.64-1.13-.61.52-1.12-.28-.98.67-.46-.63-.57.27-.75-.14-.6.3-.62-.24-.54-1-.38.62-.63.68.63.32-.5-.51-.69-.4-.73.49-.95-.47-.73-.46-1.82.68-.73-.27-.36-.81.08-.23-.76.65-.68-.43-2.76 1.45-2.4-.5-.68-1.3-.86 1.43-.76-.27-.73.92-.41-.83-.62-.5.64-.65-.54.5-.4.82-.05.49-1.06-.51-.41h-.66l-.78-1.45.51-.26-.1-.64-.98-.91.47-.5-.49-1.2.86.3.84-.48-.97-.68.43-1.03.5-.26-.42-.83.5-.4-1.32-.97 1.04-.57-.61-.84-.67-.29-1.3-1.65-.12-1.38.83-.3-.58-1.07-.18-1.22.76-.44-.43-1 .45-1.23.18-1.56-.64-.88-.17-1 .97-.72.01-.55-.92-.12-.46.61-.46-.32.59-.8.85.08.34-.73-1.2-.4 1.68-1.4-.46-.54v-1.03l1.09-.1-.23-.53.43-.82-.45-.3-.98.45-1.06-.5-.72-2 1.04-.13.8-1.11-1.12-.5.89-.58-.38-.51 1.05-1.28-.88-.48-.5-.73.91-.17.77-.78-.21-.3-1.56.73-.69-.57.44-.63.72.4.8-.24-.28-.6-.68-.38.77-.92.27-1.58-.15-1.95-.55-.43.25-.7-.27-.77-.91-.27-.7-.99-1-.44.01-.7.47-.7-.72-.24-.1-.6-.73-.86.67-.57.06-1.26-.54-.7-.08-1.01.24-.8-.74-1.68-.56-.28.08-.62-.39-1.94-.92-.78-.5-1.14-.75.23-.34-.38.92-.58.02-.62-.86-.36.13-.7-.84-.1-.52-.45 1.3-.86-.52-.63-.16-.71-.87-1.2-.03-.49.53-.86-.06-.95-.95-1.6-.15-.5.43-.7-1.25-1.03-.15-.47-1.04.06.35-.88-.72-.1.14-.66-.9-.14.87-1.23-.66-.45-.42-.91-.8.38-.6-1.1-.83-.52.96-.81-.29-.7.03-1.17-.48-.5.3-.9-.58-1.26-.74-.05.08-.74-.6-1.36-.08-1.55-.87-.9.47-.58-.44-.5-1.86-.41.22-1.34-.7-.7.04-.45.7-.74-.7-.68.12-.53.45-.43-.47-.83 1.06-.33-.26-1.03-.76-.5.7-.67-1.39-1.36-.7-.46-.2-.54.16-1.06-1.04-.3-1.13-.9-.07-.8.3-.7-.17-.85-.86-.68.5-1.2-.26-.61.68-2.44-.16-.87-1.1-.98-.28-1.93.4-.95-.7-.2-.34-.52.4-1.5-.2-2.46-.2-1.1-.4-.82-1.33-.96-1.26-2.25-.62-.1.27-1.01.11-1.48-.5-1.39.22-.5-.73-.55-.13-.86-1.6-.34.26-.98-.06-.82-.79-1.8-.13-1.03.74-.68-.41-.8-1.32-.3-.67.4-.27-.72.66-1.02 1.94-1.07.3-.71-.73-.3-1.24.57-.73-.52z"/>
    <path region="12" short-name="38A" long-name="State House District 38A" value="1" d="M495.9 734.63h6.54l1.2.29-.63 1.82v2.06h-.66l-1.11.44.02 1.35h.6l.15 3.57-5.95-.01-.13-2.13-.05-5.31-.14-.8-.44-.66-.75-.1v-.56z"/>
    <path region="13" short-name="42B" long-name="State House District 42B" value="1" d="M486.59 744.15h9.47l-.01 9.64-.4.64.1.77-.66.63-.64.05-.63 1.14-1.42-.48-1.06-1.24-.76-1.34-1.35-.86-2.65-1.18z"/>
    <path region="14" short-name="15A" long-name="State House District 15A" value="1" d="m139.17 710.45 2.6-.07 1.54.47.33.88 1.28.79 3.44-.71.67.53 2.18.36.43-.26.98.17 1.11.67.08.3 1.51-.09.34.43 1.16-.31 2.17.5-.52.9.12.76h.53l.67 2.2 1.04.32.94-.14 1.05.59 1.14.16.4-.29.84.28.75-.44.46.21 1.04 1.04.17.57.65.72 1.24.5.66.6 1.57.72.23.3 2.67.33 1.33-.43.71.23 2.87 1.44.27.92 1 .58.4.77 1.01.63 1.2.2 1.68.92.48.41.9-.32.75.4.6.64-.02.34 1 1.22.35 1.08 1.22 1.25.28.82.64.03.84.7-.15 1.06.96.36 1.47 2.19 10 10.11 1.1.57.52 1.4.78.4.57-.29.73 1.9.96 1.22 1.12.48 1.7 1.9.73.62-.08.86.26 1.04-.11.98.48 1.4 1.04-.07.74 1.6.05.42 1.6.45.68-.22.58.3.33.58.8-.17.07-.73 1.54 1.05.07-.8 1.05.83.38-.47.5 1.17.65.37.76.9.9 1.4-.16.86.24.73-.55.35.62.55 1 .39 1.57-.09 1.04.3.84-.82.93.5-.07 1.26 1 .4 1.69 1.3-.54.25 1.54 1.75.46.15.51-.76.72 1.48.68.23.74 1.3-.22.87.14.6.74.24.93-.28.52.5-.45.78 2.75.7.4-.23.9 1.15-.14.73.34.45h1.11l.01.55 2.36.1.37.62.83.02.02.86.65.35 2.33.02v1.21l1.78-.01v2.42l-1.68.02-.1.33-1.7.57-1.47.05.3 1.3-.9.1.61.83.81-.35.34.83 1.25-1.04 1.12.52.66.92-.21.34v1.54l.54.34 1.13-.9.64.49.39.67.55.06.12.75.53.55 1.99-.44 2.05 1.22.8.25 1.03.66 1.26 1.11-.5.8.62.9 1.25.66.89 1.08 2.06.73-.02 9.1.01 8.45-.01 8.2h-4.47l-15.52-.04-6-.08-1.42.03.05 2.1-.03 4.73.1 11.83-.03 9.52.09 14.27-.04 14.27-3.47.06-14.85-.17-22.56-.02-7.57-.03-6.53.02-1.73-.03-.08-14.26.02-8.4-.03-13.08-.06-7.16v-8.44l-.05-5.39-1.5-.17-.02-9.67.04-4.46-9.7-.11-4.6-.03-11.88.1-15.77-.1.02-11.8.04-2.5-.07-11.88.03-2.47-.05-13.95-.04-12 .03-2.44-.03-24.26V720.4z"/>
    <path region="15" short-name="4B" long-name="State House District 4B" value="1" d="m93.94 392.49 17.5-.15 14.73-.02.03 14.94 7.38.1 7.47-.02 13.41.02 7.48-.06 7.49.06-.06-14.99 14.92-.11-.05 4.61.12 10.4-.07 2.49.12 12.45 4.52-.03 3.52.06 1.39-.07 9.7.05 5.59-.03 3.45.08 3.58-.05.04 2.95.01 11.83-.2 10.43-.04 5.6.05 3.86h.57l.05.88-.62.01.1 9.02-14.75-.05-14.85-.16-11.45-.05-3.35.03.08 5.7.17 9.16-12.72-.02h-16.24l-2.88.03-11.92.01-12.75.01-15.12.02-.5.2-1.02-.2.59-.66.25-1.42-.38-.7.4-.41-.97-.85-.1-1.12.26-.23-.44-1.1.87-.13-.6-.88-.02-.66 1.27-.06.06-1.01-.23-.66.57-1.02-.53-1.75.04-.7.65-.45-.88-1.09 1.32-.94.02-1.13-.35-1.85-.32-.33.12-2.1-.39-.5 1-.38.34-1.3-1.43-.44.62-.98-.32-.42-.64.4-.63-.21 1.09-1.31-1.03-.81.23-.81-.82-.6.62-.37-.22-.73.16-.7-.71-.49.31-1.16.2 1.08h1.02l.06-1.08 2.48-.02-.02-1.25 6.19-.03v-.76l1.1-.07.36-.41 3.5-.01.16-1.24 1.95.97.8-.98-1.91.01-1.9-1.03-2.63-.05-.2-1.4.01-2.45-1.23.02v-.63l-1.24-.06-.03-3-4.97.05-.63.17.48-.42-.82-.63.35-1.36.36-.54.7-.12.35-1.18.94-.06-.97-.92 1-.77-.68-.55.18-.51-.5-.67-1.57.65-.17.77-.99-.48-.78.12.2-1.57-.18-1.17-.76-.02-.18-1.67-.4-.36.94-1.54-.74-.09-.99.35-1.14-.6-.43-.59.4-1.11-.33-1.47-.06-2.08-.78-1.25-.41.16-.51-.76.49-.22.33-1.5.5-.75 1.35-.35-1.07-1.45.9-.01.42-.77-1.18.1.6-1.4-.39-.5.4-.49-.83-.63.44-.97-.37-1.67-.6-.68 1.46-.66-.43-.78.52-.94-.15-1.64-.45-.33.6-.72-.1-.85-.69-.09.25-.7-.32-.65-1.36-1.08 1.11.07.27-1.37-.74-1.65-.54-.27.64-.67-.4-.56z"/>
    <path region="16" short-name="20B" long-name="State House District 20B" value="1" d="m567.4 858.65 4.55.05 9.44.05 14.06.13-.03 14.22 3.59-.02 10.25.05-.08-1.07.26-.73h1.16l-.01 1.18.44.58 9.82.1 6.55.09 16.7.05 7.64.1.02-11.74 7.03-.1v-2.31l4.53.04 1.26 1.05 2.12 3.01 1.84 1.22.82 1.78.6 1.84-.1.52-1.14 1.81-.06.87.5.87 1.7.8.83.72.35.68-.04 1.65.8 1.12.25.7-.1.87-.6 1.84.38 1.45 1.11 1.58.46 1.14.14 1.47 1.26.65 2.3 1.91.7.37-.06 6.5v12.9l.03 7.02-4.95-.1-9.13.1.01 5.84h2.3l.02 2.35h-2.33l.02 7.77-.01 12.18-3.55-.02-19.77.01-5.84-.01-5.05-.1-7.76-.05-14.06-.02v-16.7l-.01-4.4.44-.59h.7v1.12l1.17.21v-.74l1.17.01 1.14-.3.03 1.08.64.07.21-1.14-.37-.87-.49-.44v-3.08h1.17v-.57l-.64-.23-.1-.8-.45-.73 9.37.05v-14.12l-14-.04.03-14.1-12.88-.06v1.2h-.85v.59l-.72.47.45.7h1.71v.58l-1.71.01-.02 10.55-4.69-.01-9.34.02-.05-14.21-13.15-.17-.06-4.35.1-11 1.1-.13v-.63l-.55-.42 2.25.03v-.69l-.94-.49-.77-.04-.04-1.16-1.04-.02z"/>
    <path region="17" short-name="29A" long-name="State House District 29A" value="1" d="m381.15 708.15 2.16.08 9.73-.12 2.45-.15-.08-2.29.8-.5-.27-.92.5-.34 1.17.01.51-.24 1.99-.4.36-.59 1.35.03 1.45-.58.9.13.78.83.76 1.95 1.1.04.85-.46 4.67-4 .86-1.6 1.23-.95.72.15.38-.7-.4-.26-.06-.86.53-1 .2-.81.68-.42-.55-1.24v-.92l.93-.7.7-1.79.57-.77-.2-.77.36-.81 1.12-1.2-.04-.84.43-.43.66.13.7 1.16 1.05.58.78 1.33.61.25 1.47-.28.26.57-.53.55.05 1.12.55-.07.09-.99.95-.69 1.17.35.9 1.44.57.35.01 3.2-4.73.07-.01 7.3-.05 5.92-.02 7.3-1.2-.02v1.23h.78v2.9h.64v4.18l2.52.04 1.1.13 4.88.13 3.6-.02.54 1.18h.58l-.02 1.2-1.18-.01v.97l.98.2.2-.6 1.17.29-.02 3.92-.06 7.05.75.48-.08.66.62.58.66-.3.37.42-.1.73.72.13.4 1.05.65.29-.3.52 1.26.82 1.06-.01.97-1.63.73.24 1.7-.04.86-.48.72.12.83-.54.27-.75 1.2.33.04-.72h.7l.55.38-.04-1.95.94.33 1.2 1.23h.57l-.32-1.2 2.12-.05.42-.51-.41 1.7v1.81l-.65.79-1.77.44-1.6-.36.4 1.38-.7.31-.26 1.8-.01 5.3-.08 8.35-.86-.05-8.64-.08-1.32.09-17.21-.12-14.86-.03-.01-12.45.02-11.34-.04-4.92-14.17-.07h-10.83l-3.58.05-.01-14.13-.49-.23z"/>
    <path region="18" short-name="17B" long-name="State House District 17B" value="1" d="m352.98 830.41 5.4-.06 4.25.01 8.75-.06 10.65-.02-.02-14.34 4.69-.04 9.5.06v-2.21l.08-12.18 3.22-.01 11 .06.07-1.15.05-7.18 1.46-.2-.33-1-1.14-.02v-4.82l.04-14.26-.42-.55.04-4.07.01-9.84 14.85.03 17.22.12 1.32-.1 8.64.09.86.05v.1l-.04 9.46-.06 4.77-11.21-.04v-.7l-1.8.08-1.15.6h-2.28l.01.79.65.34v.72l.57.45h1.2l-.04 6.01.02 6.38-.03 14.02 14.1.01.03-14.28 9.3-.24 5.4-.04-.05 4.76 5.64.05-.7 1.03-.65.35-1.16.22-.72.66.12.4 1.16.56.28.47-.7.78-.74-.74-.14 1.05-.95 1.16-.15.46.34.91-.45.81.1.6.7-.05-.08 1.3.97 1.38-.88.66-.42.71-.76.2-.26.68-.7.15-.35-.47-.99.9-.51-.92-.7-.04-1.12.55-.38.92-2.25 2.83-1.87.38-.9.62.7.76-.82.78-.47-.44-1.39 1.8-1.04.12-1.53.57.78.6-.22.4-.96.26-.59.44-.64-1.04-1 1.03-.95.49-.44-.86-.51-.18-1.93.31-.3.65-2.16 1.74-.51-.99-.52.34-1.44.22.42.65-.75 1.8-.99.61-.43-.62-.62.08.09.9-.6-.02-.01.68-.85-.08-.9 1.22.54.7-.34.81.06.91-.68.4.06.44.88.13.18.5-.76.58-.29 1.1 1.01.51v1l-.91.11.1-.75-.95-.17-.55.9-.1 1.24.92-.08.43.44-.03 1.05.68.5.82-.02.32 1.25-.28 1.1.06 1.27-.41.1.11.93-.56 1.02-.9.32-.6 2.81-.7.27-.8-.52-.78.73.69.41.5.7-.7.73-.79.32-9.35.04-12.84-.06-3.56.06-2.61-.07-9.19.05h-15.3l-5.9.04h-8.21l-8.27.08-6-.02z"/>
    <path region="19" short-name="25B" long-name="State House District 25B" value="1" d="m611.42 915.5-.6-.01.01 1.54-1.1-.03-2.19.75-1.86.07-.17 1.15-1.19-.01-1.01-.23.13-1.24-.64-1.52.02-4.05-1.44-3.58.32-.4.84.01.14.99 3.08.03 1.54.6.83.08.42.55.95.23-.1.88.28.65v1.75l.93.01v.5l.82-.09z"/>
    <path region="20" short-name="7A" long-name="State House District 7A" value="1" d="m452.4 324.52 4.24.03 13.17-.12 5.66.05 3.88.14h5.08l1.62.06 8.65-.02 4.34-.12.17.06 11.2-.09-.26 7.7-.02 2.3.1 5.07 4.33-.02 7.85.03 2.54-.11 2.5.2 2.45-.21 4.98.01.17-2.4.02-2.5.22-2.44.12-4.07-.06-.88.12-2.7 15.1.2-.5 7.46-.18 3.8-.16 1.23 2.85.1 1.35.27 2.73.13 3.85.04 1.3-.08 3.68.15.07 6.62-.54 8.9-.26 1.07 7.37-.06.3-.04 7.31.02.25.08-.07 26.48-.08 13.72.08 4.94-5.05-.02-7.78.1h-16.1l-.05 14.21 14.78.12v4.26l-.16 10.56v14.86l-.22 14.74-9.95-.09-4.95.07-14.7-.05-.4 15.35.09 8.06.15 6.1-11.26-.09-18.5-.07-14.74-.1-3.73.08-9.87-.11-7.3.05-2.56-.06-5 .1-2.07-.08h-8.6l-.04-5.93.15-20.33-.06-.16.17-9.03.12-14.79.02-14.79-.07-7.89.02-1.48 2.93.07 11.32.17 9.59-.08 14.9.18v-6.06l-.16-7.79h-.45l.05-14.95-2.29.03-1.36-1.34-.45-1.11.16-.81.91-1.3-.17-1.12-.48-.51-.22-1.34-.74-1.81.45-.82-.2-.54.37-.95-.2-.72-1.32-1.5-.27-1-12.36.05-11.48-.05.01-1.15.46-.93-.51-.51.08-3.65-.63-.03-.14-1.3-6.05.03-.01.42-1.15.05-.42-.25-.01 1.9-.66-.69-1.3.2-1.1-.7.03-5.07-.12-10.6h3.11l.04-8.01-.1-7.29z"/>
    <path region="21" short-name="59A" long-name="State House District 59A" value="1" d="m509.91 746.56.17 1.26-.3 1.36.61 1.9.36 1.5.08 1.72-.12.9-2.18-.03-.02-1.13-2.03-.01-.8-1.13-.1-4.56h-.46l.44-.29v-1.5z"/>
    <path region="22" short-name="30A" long-name="State House District 30A" value="1" d="m438.84 730.02.83.7-.11.46.96.32.01.71.78-.17.25-1.31.35-.7 5.74.02 5.7-.04.02-14.4 7.2-.01-.03-3.59-1.2-.92 1.19-.27.02-5.15 1.2-.32.97-.9 1.46 1.47.7.17.93-.13 1.18.1.77-.15.98.1h1.3l1.18.47.13.5-.02 1.63 1.34-.17 1.07.14.05 4.61-1.2.23-.02 2.16h5.42l.34 1.84-1.21.66-.85.74h-.65l-1.63.62-.52.95-.94.16-.25-.78-.8.78-1.52-.25-.1 1.13-.72-.01-.43-1.05-.62-.02-.66 1.27-.44.46-.91.23-.21.66.26.84.63.98 1.48 1.4h1.02l-.06 3.58h-.58l-.02 1.2-4.74.03-.02-.98-.91.17-.63 1.1-.6.33-.77.94-.15.68-2.13 2.84-.4 1.12-.42.5-2.12.06.32 1.2h-.57l-1.2-1.23-.95-.33.05 1.95-.55-.38h-.7l-.05.72-1.2-.33-.26.75-.83.54-.73-.12-.85.48-1.7.04-.73-.24-.98 1.63-1.05.01-1.26-.82.3-.52-.66-.29-.4-1.05-.7-.13.09-.73-.37-.43-.67.31-.6-.58.07-.66-.75-.48z"/>
    <path region="23" short-name="46A" long-name="State House District 46A" value="1" d="m494.92 758.57 1.15.01v1.19l5.21.04 1.44.1.09.63 1.67.03-.02 2.97-.02 2.96h-1.2l-.46-.3-.78.33.22-2.18-1.32.89-.7-.01-2.78.53-1.35-.01v-.6l-.02-4.18-.56-.01.15-1.47-.73.02z"/>
    <path region="24" short-name="18A" long-name="State House District 18A" value="1" d="m334.7 844.45 4.34.06 13.96.04 5.99.03 8.27-.09h8.21l5.9-.04 15.3.01 9.19-.06 2.6.08 3.57-.06 12.84.05 9.35-.03.2.58-.64.28.64 1-.63 2-.14 1.23-.4.83-.36 1.35-.75-.13-.78.57.4.47.2 1.6-.63 1.24.24.6-1.2.24-.07.44.7.36.17.93-.74.49v.79l.53.44.4 1.01 1.23.33.86.8.4.85-.38.86-.6-.25-.48.36.19 1.26-.6.12-.47.97.23.7-.32.37-.73 1.76.31.53.25 2.33-.5 2.97.02 5.25 4.02-.06 4.23.06-.02 3.54.02 7.65-3.39-.13-1.03-.32-1.48-.07-2.51-.34-.4-.19-1.02-1.4-1.14-.42-2.16 3.12-1.35 1.45.16.46-.9.39-.95-.35-.73.52-.24-.52-1.16.52-1.2.02-.44-.44-.28-.97-1.44.68-1.29-.4-.1-.42-.75-.1-.23-.7-.68.05-.42-.47-.76-.22-.15-1.16-1.64-.07.02-.71-.47-.1-.58-.33-1.07-1.17-1.02.37-.57-.34-1.9-.2-.87-.4-1.18-.1-.96-.73-1.3.4-.86-.85-.54-.01-.3-1.02-1.04-.12-.63.45-.38-.7-1.1-.12.39-.87-.68-.12-.25-.47-.71-.16-1.2.08-.88-.78-.82.07.19-.75-.66-1.05-.85.29-.22-.8-.45.15-1.85-.27-.1-.43-.92-.6-.23-.68-.79-.47-1.38-.18-.8-.6-.46.16-.63-.52-1.59-.21-2.28-.51-.27-.45-1.35-.43.2-1-.42-1.14-.82-.53-.8-.14-1.9-3-.9-1.22-.23-1.34.25-.68-.2-.83-.94.26-1.34-1.36-.32-.54-.65-.02-.4-.78-.84-.54.14-1.05-.84-.5-.27.35.42.9-.4.3-2.1-.94-.6-1.2-2.82.1-.26-.93-.4-.25-.94.07-.31-.78-.82.03-.98.66-.24-.8-.59.45-.78-.41-.2-1.04-.75-.48-.84.19-.85-.1-.74.55-.6-.4-.13-1.1-.6-.13-.57-.57-.82-.34-.92.63-.44-.65-.63-.26-.11.7-.71.12-.98-.41.85-.98-.57-.77-.8-.25-.79.33-.53.79-.48-.76.93-.18.48-.61-.44-.93-.74-.02-.46.7-.45-.56.75-.84.24-.67-1.49-1.39-2.24.1-.69-1.34-2-1.29-1.05.5-.55.6h-.55l-.12-.62h-.97l-.46-.47z"/>
    <path region="25" short-name="10A" long-name="State House District 10A" value="1" d="m387.72 539.28.49-.96.53-.39.53.27.01 8.9h12.52l2.14-.07-.03-11.45.15-1.93 1.15.05-.41-1.34 4.04.08 18.04.02 6.46-.02.04 14.7 7.2-.05.57.06 8.66.02-.32-.93-.62.25-.49-.27-.27-.75.03-20.5.04-7.31-.23-14.75.09-1.97v-11.61l1.71-.28 1.3-.65h.9v-.89h8.6l2.06.08 5.01-.1 2.57.06 7.3-.05 9.86.1 3.73-.08 14.73.11 18.51.08 11.26.08h.93l-.13 2.42.08 12.27.04 14.87.13 14.78-.05 12.31v11.23l.02 5.85-9.63-.02-4.99-.04-.06 7.42-.02 7.27-.12 6-.06 9.24h-5.02l-9.7-.1-9.63-.02.03 13.12-5.18-.32-9.9-.44-1.94.04-5.16-.05-3.72.11h-3.75l-.07-3.81.22-3.49v-5.15l-4.98-.1-9.91-.04-4.84-.1-9.57.05-5.18-.08-5.5-.03-13.44.02v-.6h-1.82v.6l-12.24.02-.01 4.6-.08 7.4-10.47.04-4.27.06-3.92.16-.43-1.64.04-1-.85-.8-.04-.39-5.96-.08-2.51.03-6.06-.04-12.08.07-3.05.06-.61-.11.11-18.94v-7.69l.04-10.63-.02-6.66 15.36.1 5.92-.22 6.16-.06 3.11.08-.16-1.54-.47-.41-.45-.94.15-2.85.63-.75.01-.85 1.18-.39.9-.6.9-1.34.95-.53.2-.82-.23-.47.59-.75 1.07-.35.4-1.07-.44-.37.1-.94.97.63z"/>
    <path region="26" short-name="11B" long-name="State House District 11B" value="1" d="m536.63 532.13 14.78-.03 14.48.13-.02 14.71 14.66-.04 6.23.05 8.47.01-.08 14.7 9.2.09 11.62.07 1.45-.1h8.08l.02 7.3-.06 6.65-1.49.33-1.47.53-1 .52-.87 1.14-.38 1.57-.57 1.2.12 1.42-.15 1.01-.65.83-.29 1.34-1.21.43-1.24-.18-2.33-.9-2.1-1.3-1.18.08-1.74.93-.78.85-.24 1.18-.86 1.47-.2 1.27-1.06.85-.2.91.35.38-.39.66-.97.56-1.38-.5-.75.06-1.35-.75-2.28-.7-.99.38-.84.69-.93 1.3-.49.35v1.85l-.24.9-1.1.11-.99.48h-.6l-1.78 1.07-1.44.16-1.39 1.06-.98-.11-.77.47-.82-.38-.45.36.12 1.34-1.99.02-.4.25-1.94 1.82-.05.96-.86.41-1.76 1.26-1.02.26-1.57 1.86-1.5 2.64-.62 3.45-.73 1.02-.43.13-1.46 1.15-.47 1.1.9 2.7.02.78-.47.89-1.2 1.01-.51.88-.37 1.24-.2 1.6-.38 1.48-1.64 1.77-.47.3-.84 1.29-.79.36-1.45 1.4-.81.14-.84.61-.67.07-.2.74-1.41.35-.77.79.04.93-.34 2.05.19.5-.63 1.3-.16 2.3-.24 1.61-.42 1.03-.37 2.25-.16.31v.02l-8.63.03-7.2-.04-7.81-.07-6.14.04.02-9.62-.03-4.84-4.85.03-5.2-.06-10.47-.01-8.38.03.02-10.9-.05-18.12-.03-13.12 9.63.02 9.7.1h5.02l.06-9.24.12-6 .02-7.27.06-7.42 4.99.04 9.63.02-.02-5.85v-11.23z"/>
    <path region="27" short-name="2B" long-name="State House District 2B" value="1" d="M244.35 302.1h14.83l5.62.04 11.2.01h11.43l.04 15.12.15 15.1.01 14.9 11.69.11 10.5.14 5.22-.02 2.52.13 14.9.15-.02-12.54.03-5.44v-13.73l-.09-5.52-.04-8.24h-.52l-.04-4.6-.15-8.79.06-9.22.36-.17-.05-3.05.02-4.37 1.37-.03 13.36.03-.06-5.01.09-3.46.06-6.71.04-12.35-.02-2.8 14.46.09 6.41.08 4.36-.04 1.84-.14 2.52.01h.69l.01 17.68-.1 12.68-.07 11.95-.02 10.2.13 8.07 7.57-.03.49.06 7.04-.04 15.02-.09 14.81-.04 11.52-.13 1.93.05 4.68-.07.17.06 12.12.05v7.25l-.05 1.32.04 6.48-.03 7.3-.07 7.7.09 7.29-.04 8.01h-3.1l.11 10.6-.04 5.07 1.1.7 1.31-.2.66.7.01-1.91.42.25 1.15-.05v-.42l6.06-.02.14 1.29.63.03-.08 3.65.51.5-.46.94-.01 1.15-.03 4.34-2.49-.1v.63l-5.83-.07-.03 3.02-2.84-.05-.13 2.28-.4-.42-.07-1.26-.86-.32-1.91-.34-6.5.06-2.24-.17-.06 14.95-6.36-.17-5.13-.02-3.4-.18-.18 15.14.24 3.2-.02 7.5.06 4.38-.75.02-13.83-.05-14.2-.28-.35-.07-14.93-.1-15.02.11-.98.07-14.16.37-.04-4.96.02-9.91.06-7.43-.07-6.22-.96-.82-1-.37-.46-.84.06-1.7-.03-12.4-17.53-.24-8.9-.18-7.78-.1-8.09.06.03 14.92-9.26-.01-1.92.1-3.24-.04-14.98.12-.06 4.92.06 7.47-.04 2.6.02 7 .07 7.92-14.75.03-13.71.13-1.97.05-5.15-.07-7.51.02-15.1-.11-3.58.05-3.45-.08-5.6.03-9.7-.05-1.38.06-3.52-.05-4.52.03-.12-12.46.07-2.48-.12-10.4.05-4.61v-11.22l.06-11.48-.01-6.73-.1-15.47-.02-15.02 22.5.01.7-.04 9.44-.02 4.3.05 8.52-.04 11.19-.1 3.38.01.08-15.05-.02-10.04z"/>
    <path region="28" short-name="61B" long-name="State House District 61B" value="1" d="M504.46 763.54h1.3l.72-.34 1.56.21v-.44h1.19l-.02 3.55v4.19h-1.79v1.18l-.6.6-1.19-.02v-1.79h-1.19v-4.18z"/>
    <path region="29" short-name="66A" long-name="State House District 66A" value="1" d="m518.62 761.64.02-4.64v-3l1.03-.69h6.11l.01.66 1.19.02v1.07l-.6.1v1.2h-1.16l.97 1.2-.45.95.03 1.91v.72l-2.38.02v1.87l-1.42-.06-2.67-1.28h-.68z"/>
    <path region="30" short-name="58B" long-name="State House District 58B" value="1" d="m510 830.14 14.56.04-.04-5.94.02-8.35h-5.9l.04-7.12v-2.38l5.94-.01v-4.73h1.14l.01-.97 1.18.06.01-1.46 2-.04.7-.28.74-.9 8.45.03.08-3.57-.1-2.45h2.22l1.17.64.6-.04.7-.46 1.02-.1 1.32.5.05 3.83.01 5.3h11.8v1.2l3.54-.01v1.2h1.18v-.6h1.19v-.6h-1.18v-1.18h2.37v-5.02l1.18.24 1.71 1.38 2.56 1.28 1.06.96 2.3 1.1.62.57-.05 5.54.05 8.3L553 816l-.03 14.2-.6.06-.01 5.76.03 8.4v10.52l-.04 3.6-2.75.02-11.4-.08-9.4.1h-4.73l.04-10 2.32-.05v-2.3l.98-.26.38-1.08-.19-.48-.7.01-.47-.58v-1.22l-.6.01.01-1.18-.68.6h-1.68l-.54-1.17h-1.17v.6l-1-.02-.8-.3-.87-.01v-.6l-.88-.27-1.2-.02v1.78l-7.05-.1z"/>
    <path region="31" short-name="59B" long-name="State House District 59B" value="1" d="m505.67 752.9.81 1.13 2.03.01.02 1.13 2.18.02.2 1.02.7.55 2.13-.27-.36.65.57.54-.44.7.6.52-.78 1.09-1.04-.64-.6-.79-1.05-.57-.8.52-2.1-.33-2.07.03z"/>
    <path region="32" short-name="45A" long-name="State House District 45A" value="1" d="m453.17 758.83.12-.1 9.38-.09 4.77-.08-.02-3.6 7.2.05 2.3.1 4.91-.05-.02 3v.6h-2.37l-.17 1.9.16 1.06-.03 4.17-1.77 1.83 1.1.91.05.8.6.6-.03.72 1.12-.34.3 1.22.96.35-.01 1.08-3.37.05-7.9-.04-4.55.06-.54-.07-5 .13-7.3-.04.07-4.77z"/>
    <path region="33" short-name="37B" long-name="State House District 37B" value="1" d="m483.85 729.74 3.86.06 8.24.05-.05 4.78-1.35-.04v.56l.75.1.44.65.14.8.05 5.32.13 2.13h-9.47l-.28-.94.27-.97.44-.7.1-.19.13-3.4-.32-.48.16-1.57-1-2.01-1.03-1.74-.65-1.68z"/>
    <path region="34" short-name="46B" long-name="State House District 46B" value="1" d="m492.98 766.36.7-.23.17-1.04-.17-1.62 1.19-.1v1.5l1.2.28v.6h1.35l2.77-.52.71.01 1.32-.9-.22 2.2.77-.34.48.3v1.8l-1.22-.01-.12 1.5.1.89-.05 2.55h-.9l-1.29.39-3.57-.55-.25-.14.04-2.4-2.42-.03-.02-1.85-.57-.55-.19-1.17z"/>
    <path region="35" short-name="24A" long-name="State House District 24A" value="1" d="m537.6 929.42-.05-14.16.02-14.26-.03-14.06 8.43-.03 18.35.02 3 .04 13.16.17.05 14.2 9.34-.01 4.69.01v4.7l-.58.03v.82h.58v5.04l.03 12.9h11.04l.18-3.5h1.8l.53-.8.42 1.98.02 4.4-.01 16.7-1.22-.01v2.3h-14.1l-14 .04-.02-2.39-22.22-.03-6.46.03-13.01.02.06-3.54z"/>
    <path region="36" short-name="43B" long-name="State House District 43B" value="1" d="m493.82 757.02.63-1.14.64-.05.66-.63-.1-.78.4-.63 4 .03.02-1.21 1.98.03v-1.8h-.79v-1.22l.79.01-.07-1.22 1.2-.05 1.94-.02h.46l.1 4.56v5.88l-1.2.03v1.76l-1.67-.03-.09-.63-1.44-.1-5.2-.04v-1.19h-1.16l-1.2-.03z"/>
    <path region="37" short-name="4A" long-name="State House District 4A" value="1" d="m100.84 444.41.8-.4-.49-.68.1-.57-.79-.75.38-.94-.15-.62.36-.87-.17-.73 1.24.44.28-1.04-.72-.19-.01-.82.63-.16 4.97-.05.03 3 1.24.05v.64l1.23-.02v2.46l.2 1.4 2.61.04 1.9 1.03 1.91-.01-.79.98-1.95-.97-.16 1.24h-3.5l-.36.42-1.1.07v.76l-6.19.03.02 1.25-2.48.02-.06 1.09-1.02-.01-.2-1.08.23-.7.63-.15.11-.78.55-.41.48-1.16.7-.88z"/>
    <path region="38" short-name="26A" long-name="State House District 26A" value="1" d="m678.7 889.24 1.12.7 1.38 2.3 2.42 1.61 2.6 1.1 2.07 1.76.58.32 2.47.31 1.35.66 1 1.37.28 1.55.07 1.14 1.43.87 1.61.2 1.7 1.7.87 2.07 1.73 1.86.78-.08 1.2 1.21 1.45.69.95.69 1.13 2.01.65.59 1.1.65 2.77.33 1.4.5 2.65.13 2.01.4 1.42 1.05 1.65.71 1.45-.21 3.27 1.3 1.24 1.23.55 1.56 1.49 1.77.76 1.54 1.27.74 1.1.84 2.45 3.14.18 1.35.68 1.51 1.13.86.63 1.5.5.82 1.16.69.88.8.62 1.08.5 2.34 1.67 1.98.67.4.8.92h-9.04l-4.83.03-19.7-.03-8.13.02-13 .01-5.1-.05-9.3.06-9.84-.04V923.86l2.32-.01-.01-2.35h-2.3l-.02-5.84 9.13-.1 4.95.1-.03-7.02v-12.9z"/>
    <path region="39" short-name="12B" long-name="State House District 12B" value="1" d="m292 570.2-.03 7.4-.06 7.26.04 4.9v9.74l.87.02-.17 12.13.07 14.6 14.47-.1 10.92-.04 3.61.04 5.44-.07 9.15.1-.06 1.8v14.7l-.03 6.3v8.7h-14.5l.04-5.88-.01-8.67-14.51.01-14.43.12-10.31.02-4.2-.05-12 .07-16.76-.13-.13-.02.03-14.47.01-5.06-.06-2.47.08-2.37-.02-4.83v-14.56l.47.62h1.17l.11-.61 11.62-.02v-14.6l8.81.1 5.73-.11.03-6.75-.09-7.94 2.43.05z"/>
    <path region="40" short-name="13A" long-name="State House District 13A" value="1" d="m336.78 686.5 14.36.12.04-2.38h-.6l-.04-1.82h.62l.02-11.65.06-12.99h-.53l-.05-4.82.04-12.17-.05-1.44.08-3.6-.04-3.82v-5.76l3.2-.04h8.44l3.64-.03.17 14 .08 2.96 4.94.01 9.52-.1v6.07l.03 8.46 2.83.05 5.64-.06 6.4.03v5.27l-3.85-1.78-.53-.17-2.5-.16.24.92.02 2.06.77.72.9.27.56 1.12-.48.82-.45-.23-.5.69.32.3 2.92 1.97.36.8 1.27 1.43.9.6-.05 5.04-.05 9.11 14.4.19v-7.24l2.52.05.39.6 1.32-.59.71.92 1.72.6.3.7-.07.8 1.15-.1.47 1 1.22-.42.45.1.19 1.4.25.53-.66-.13-.43.43.04.84-1.12 1.2-.35.8.19.77-.56.78-.71 1.79-.92.7v.92l.54 1.24-.69.42-.19.8-.53 1 .06.87.4.26-.38.7-.72-.16-1.23.96-.86 1.6-4.67 4-.84.46-1.11-.04-.76-1.95-.78-.83-.9-.13-1.45.58-1.35-.03-.36.59-1.99.4-.5.24-1.17-.01-.51.33.27.94-.8.5.08 2.28-2.45.15-9.73.12-2.16-.08-.02-7.3-4.73.1-8.37.03-4.52-.04-2.64.04-9.73.05-14.38-.08z"/>
    <path region="41" short-name="50A" long-name="State House District 50A" value="1" d="m496.2 773.07 3.57.55 1.3-.39h.9l.03-2.55-.09-.88.12-1.51h1.21v-1.8h1.2v4.18l1.2.01V777.82l1.18-.01-.01 1.72-4.86-.02-1.47-.34.19-1.36-2.95.01-.53.32-.9-.33.03-1.16-.12-3.55z"/>
    <path region="42" short-name="35A" long-name="State House District 35A" value="1" d="m493.06 719.42.73-.42-.01-1.52.41.2 2.88.38.33-1.12-.83-.56.1-.8 1.48.12.6.62-.01 1.07 1.24.07.08.83 1.05.37-.01 1.2 2.95-.02.39.64h.84l-.01.92h.44l.09 1.99.95.15-.94 1.72-.08 4.91 1.19.05-.43 1-1.4-.61-.83-.92-1.83-1.19-.91-1.66-.56-.79-1.94-.61-2.36-2.1-1.92-1.14-.38-.41-.84-1.79z"/>
    <path region="43" short-name="45B" long-name="State House District 45B" value="1" d="m481.81 758.07 1.24-.03.31.59 10.36-.08 1.2.02v.94l.72-.02-.15 1.47.56.01.02 4.18-1.2-.29v-1.5l-1.19.11.17 1.62-.17 1.04-.7.23-1.17.76-1.02.1-1.98.58-3.08.67-2.65 1.34-1.33-.15-.02 2.22-.97-.35-.29-1.22-1.12.35.03-.72-.6-.6-.05-.81-1.1-.9 1.77-1.84.03-4.16-.16-1.08.17-1.9h2.37z"/>
    <path region="44" short-name="65A" long-name="State House District 65A" value="1" d="m525.77 760.42.6-.47h1.77l.6.3.14-1.48 3.65.04-.06 1.72-.2 1.46-.7.31-1.05.03-.15 1.1-1.03-.25v.54l-4.76-.01v-.64l-1.2-.04v-1.86l2.4-.03z"/>
    <path region="45" short-name="35B" long-name="State House District 35B" value="1" d="m507.1 716.3 4.77.07-.08 10.8-.05 4.12-.91-1.47-.36.81-1.09.83-.66.8-.79 1.39-1.07-1.46-.37-.97.42-1-1.19-.05.09-4.9.94-1.73-.95-.15-.09-1.99h-.44v-.91l-.83-.01-.39-.64-.47-1.18 3.55.03z"/>
    <path region="46" short-name="51A" long-name="State House District 51A" value="1" d="m505.63 773.08 2.69.04 4.56-.07-.1-1.46h.79l1-.33h4.07v-.6h1.58l.78 1.7 1.2.19-.16.92-.52.5.49.85-1.06.85-.24.58-1.18 1 .24.57-8.21.02-4.74-.03h-1.19z"/>
    <path region="47" short-name="32B" long-name="State House District 32B" value="1" d="m511.74 731.3.05-4.13h3.66l.04-2.45.55-.45.9-.1.3.49.78.12 1.42-.7 1.16-1.68 5.64.1-.04 7.2-2.38-.04-.04 2.38.61.02-.02 1.82.6.58-8.68-.05h-4.45l-.13-.01z"/>
    <path region="48" short-name="34A" long-name="State House District 34A" value="1" d="m478.33 717.42.53.04.6-.97 1 .33.09.83.55.52.24-1.03.56-.63.22-.97-.2-1.38 1.1.15 1.4.85.4 1.05 1.33 1.42 1.78-.04.68.22.83.74.77.11 1 .52 1.05-.26.8.5.46.58.84 1.79.38.41 1.92 1.14 2.36 2.1 1.94.61.56.8-.23.65h-.54v2.38l-4.8-.03-8.24-.05-3.86-.06-4.37-.01-10.28.04.06-3.59h-1.02l-1.48-1.38-.63-.99-.26-.84.2-.66.92-.23.44-.46.66-1.27.63.02.42 1.05h.72l.1-1.12 1.53.25.8-.78.24.79.94-.17.52-.95 1.64-.63.64.01.85-.74z"/>
    <path region="49" short-name="37A" long-name="State House District 37A" value="1" d="m453.17 758.72.07-8.35.02-5.3.26-1.8.7-.3-.4-1.39 1.6.36 1.77-.44.66-.79-.01-1.82.4-1.69.41-1.12 2.13-2.84.15-.68.78-.93.59-.34.63-1.1.9-.17.04.98 4.74-.03.01-1.2h.58l10.28-.04h4.37l.56.74.65 1.68 1.04 1.74 1 2.01-.16 1.57.31.47-.13 3.41-.1.2-.37-.36-1.53-.16-1.5.43-.59.67-.61-.44-.54.04-.04 6.29-.01 7.04-4.9.05-2.3-.1-7.21-.06.02 3.6-4.77.1-9.37.07-.13.1z"/>
    <path region="50" short-name="8A" long-name="State House District 8A" value="1" d="M639.4 451.25h4.43l1.8.17.7-.21.28-.57 1.7-.09-.33 1.83 1.02.91.76.11-.94 1.13.32 1.7 1.71 3.33 1.45 2.3 1.73 2.48 2.63 3.42.91.06.48.7-.58.4-1.6-.83-3.6-3.81-2.9-3.06h-1.35l-1.81.1-2.5 1.55-.62.84v.54l.23 1.06-.4 1.1-.46.62-.76-.13-1.42-.69-.82.46-1.73-.05-.49 1.08-1.45 1.48.06.72.78.37 1.8.16.78.85.04.66-.62 1.04-1.3.6-1.52 2.04.39 1-.01.66-1.18.87-.47.01-1.16-.5-.02-2.99h-1.05l-.01-1-1.26.84h-.79l-.87-.8-.03-1.03-.39-.74.62-.58-.01-2.17h.61v-1.23l.92-.01v.61h.87l.04-2.46 2.46-.02v-4.95h.61l.01-1.21h-.62l.02-1.25h4.92z"/>
    <path region="51" short-name="31A" long-name="State House District 31A" value="1" d="m498.75 705.5 3.58.07.03 5.91h3.6l-.03 3.76 1.18-.05-.01 1.11.03 2.4-3.55-.04.47 1.18-2.95.02v-1.2l-1.04-.37-.08-.83-1.24-.07.01-1.07-.6-.62-1.48-.13-.1.81.83.56-.33 1.12-2.88-.38-.41-.2V719l-.73.42-.79-.5-1.06.26-.99-.52-.77-.1-.83-.75-.68-.22-1.78.04-1.34-1.42-.39-1.05-1.4-.85-.05-.17.2-8.74h7.48z"/>
    <path region="52" short-name="10B" long-name="State House District 10B" value="1" d="m350.73 599.5 3.05-.07 12.08-.07 6.06.04 2.51-.03 5.96.08.04.38.85.8-.04 1 .43 1.65 3.92-.16 4.27-.06 10.47-.04.07-7.4.02-4.6 12.25-.02v-.6h1.8v.6l13.44-.02 5.5.03 5.19.08 9.56-.05 4.85.1 9.91.04 4.98.1v5.15l-.22 3.49.07 3.81h3.75l3.71-.1 5.17.04 1.94-.04 9.9.44 5.18.32.05 18.12-.02 10.9.01 14.45-5.45-.1-9.04-.03-2.43-.19-11.29-.32-4.23-.09-1.22-.08-3.64.1-1.82-.05-4.33.03.06 10.01.06 4.89h-3.56l-8.53-.1-16.84.17-.1-4.9-.1-9.81-4.88-.08-9.78.07-8.17-.02.68-.84v-2.71l.28-.58 1.1-.43.08-.95-1.44.63-.6-.27-.26-1.55-.56-2.29-1.18-.92-.4-.59-.14-.87 1.2-1.06-.1-.77-2.58-.68-1.2-.82-1.41-1.2-.81-2.05.22-1.41-.95-.79.13-1.25h-7.1l-13.78-.02-7.36.16-3.64.04h-8.44l-3.2.03-.01-6.56.04-5.68z"/>
    <path region="53" short-name="52B" long-name="State House District 52B" value="1" d="m519.77 777.82-.24-.58 1.18-1 .23-.57 1.07-.85-.49-.85.52-.5 1.12.02 1.86-.89 1.63-.94 1.51-1.58-.02 1.8 2.4-.01-.05 6.08.03 6.84-.03 4.88-3.03-.01-1.09-.17-.73.17h-6.27l1.72-3.2 1.17-.75.4-.57.06-1.05 1-1.59 2-3.77.16-.9z"/>
    <path region="54" short-name="33A" long-name="State House District 33A" value="1" d="m540.6 720.11.04-3.84v-8.72l.41.07.92 1.05 2.93.1.23.86.77.2.78-.3 1.02.53-.04.57.63.56.97.08.6-.61 1.22 1.35.49.11.64.9h.92l.45-.4.26-.85.47.06.66 1.18-.08 21.56h3.96l.03 3.34-.6-.75-.47-.07-4.89.01.07 1.41.55 1.22.03 1.52-2.3-.27-1.89-.65v6.95l-1.19-.01-.59.62.01 1.2h-.6l-.29.49-2.03-.41v-2.46h.31l.25-1.2.56.6h.6l-.2-1.13-.62-.51-.9-.35.03-5.18v-4.38l-4.2-.04.03-8.35z"/>
    <path region="55" short-name="6B" long-name="State House District 6B" value="1" d="m385.57 466.46 7.45.04-.12 6 .13 8.8 1.7-.03.04 2.55 1.74-.1.64-.61.06-1.86 2.62-.01 9.56.05.12 14.8 12.76-.12-.52.25-.9-.14-.7.2-.27 1.05-1.22 1.12-.92-.38-.86.26-.18.62.57 1.68.4.66-.66.81-.07.68-1.02.36.23.88-.27.66-.8.75-.2.93.95.66.64.77.02.73 1.03.78.48.98-.38 1.07-.97.79-1.6.11-.72.65-1.69.76-.5.52-.9-.06-1.66.25-.33.62-.04 1.23-.61 1.52-.6.56-.63 1.6-.82 1.01-.77.66.54 1.09.16 2.75.93-.29.13-2.1 1.54.2.28.59-.66 1.25-.56.6-1.2.1-.58.45.36 1.27 2.1.09.02 1.2-.79-.03-.76.58-.28.61-.62.32-2.48.26v1.84h.89l.41 1.35-1.15-.05-.15 1.93.03 11.45-2.14.06h-12.52l-.01-8.9-.53-.26-.53.4-.5.95-.02-8.66-.07-4.79.03-6.18-.23-20.92-.13-17.38-1.69-.06-.07-7.4z"/>
    <path region="56" short-name="36A" long-name="State House District 36A" value="1" d="m526.24 722.5.03-2.42 14.34.03-.06 6.06-.03 8.35 4.2.04v4.38l-.76-.12-.44-.66-2.4.98-2.4.69-1.71.37-1.15.66-.8.25-.96.79-3.64.04-1.25-.04-.18-.58.22-.91-.78-.02-.4-.55-.04-2.72 1.8-.01.55-.62.02-2-5.42-.03-.6-.58.01-1.82-.6-.02.03-2.38 2.38.04z"/>
    <path region="57" short-name="38B" long-name="State House District 38B" value="1" d="m503.01 738.8 1.18-.24 1.38.45.6.37 2.78.02.29 1.2h.81l-.32 1.12.06 1.09.29.35-.38 1.12-.14 1.07.35 1.21-4.35-.01v1.5l-.44.29-1.94.01.01-4.18-1.18-.01-.15-3.57h-.6l-.02-1.35 1.1-.44z"/>
    <path region="58" short-name="14B" long-name="State House District 14B" value="1" d="m395.59 657.52.19-.62 1.43-.02.87.65 5.54.1 1.15-.46.25.44 1.22-.03.38 2 1.47.1-.29-.6 1.85.01.86.47-.07-1.7.67-.03v-1.82l.36-.01.27-1.23.53-.7v-1.13l-.58.02-.01-.76-1.31-.01-.05-4.8 9.78-.09 4.88.09.1 9.8.1 4.9-4.84.01.01 3.05.62.01-.01 1.22-.6 1.8-4.6-.05-2.6-3.17V666l-1.67.01.44.95h-1.74l-.54-.61-1.09.15.26-.7-.03-1.99.17-.75-.75-1.28-2.38 1.22-1.24.1-2.57-.03-.05.61-.99-.02.01-.88.75-.37.07-.8-1.74.05-1.67-.17-.39 1.2-.6-.13-1.83.23z"/>
    <path region="59" short-name="44B" long-name="State House District 44B" value="1" d="M544.7 749.4v-.23l2.02.4.3-.47h.6l-.02-1.2.6-.63h1.18v1.8l-1.11 1.19v1.26h.52l.3 1.04.34.33.02 8.18h1.2l-.04 2.38-5.9.09-.02-4.5-1.75.98-.03-1.29-.6-.53.01-1.85.01-1.2-1.18.02v-2.1l1.48-.08.87-.3 1.2-.97z"/>
    <path region="60" short-name="58A" long-name="State House District 58A" value="1" d="m467.62 815.92 3.86-.03 5.63.04h13.12l5.97-.02-.01 7.12-.1 7.13 5.92-.04 7.99.02-.02 11.8 7.06.1-.02-1.78 1.21.02.88.27v.6h.88l.78.3 1 .02v-.58l1.18-.01.54 1.17h1.68l.68-.6v1.18h.6v1.2l.46.6.7-.02.19.48-.38 1.08-.98.26v2.3l-2.32.06-.04 9.98h-6.46l-5.05-.04h-7.35l-9.44.03.1-4.73-.05-4.71.03-4.77-3.57.04-3.54-.05-4.35.07-2.82-.03.02-14.18h-2.92l-11.27-.05.16-8.01z"/>
    <path region="61" short-name="17A" long-name="State House District 17A" value="1" d="m381.17 715.43.49.24v14.13l3.6-.04h10.82l14.17.06.04 4.92-.02 11.34.01 12.45-.01 9.84-.04 4.07.42.55-.05 14.26.01 4.82 1.14.02.33 1-1.46.2-.05 7.18-.07 1.15-11-.06h-3.22l-.08 12.19v2.21l-9.5-.06-4.7.04.03 14.34-10.65.02-8.75.06h-4.25l-5.4.05h-.57v-14.28l-.03-14.37 15.37-.08.03-14.46-.03-8.69.04-5.72-.55.01.05-8.7v-9.31l-.01-10.75-.04-9 1.68.5-.13-.73-.72-.13.34-.74-1.19-.01.04-7.45.14-8.7-.03-2.37z"/>
    <path region="62" short-name="3B" long-name="State House District 3B" value="1" d="m639.3 334.25 12.06-.38 2.52-.05.14 5.43.3 7.6h-.07l.05 7.47 14.9-.08 1.51.01.7.33 1.1-.22 1.64.2 5.2-.35 4.85.01-.1 15.1.04 14.9-.03 14.91-.25-.02v5.64l1.78.22 1.06 1.37.5.17 11.52-.05.02 4.88 2.48.1v.53l-.65.7.56 1-.54-.46-.92.44-.13 2.05-.37.42-.61-.75-.82-.07-.39 1.15-.93.84-1.2-.22-.84.35-1.74 1.91-2.06 1.93-2.27 2.58-.32.72-.91 1.04-1.22.86-.37 1.58-1.46.47-2.2 1.7-.65 1.17-1-.58h-1.03l-.76.34-1.12.92-.5.97-1.29.94-1.14.16-.76.47-1.56 1.3-1.06 1.07-.85 1.14-1.07.71-4.86-.02v1.25h-1.25v1.26l-8.7.03v-1.87h-1.24l.01 1.87-3.71.01.01 2.5-8.64-.02v-1.24l-1.27-1.24-.13 2.48h-2.33v-1.86h-1.86l1.24 1.24-.61.62v1.24h-.62v1.21l2.33.02-.16.62.92.45v-1.07h1.23v4.95l.01 7.42h-4.92l-.02 1.24h.62v1.22h-.63v4.95l-2.45.02-.04 2.45-.87.01v-.61h-.93l.01 1.23h-.61v2.18l-.6.58.38.74.03 1.03.87.8h.79l1.26-.84v1h1.06l.02 2.99-1.9.6-1.64-1.61-1.1 1.3-.54.06-.44-1.14-1.38-.5-.14-1.19-.56.58-1.07-.5-.04-16.59-2.53-.15-6.18-.01-6.12.04v-4.99l.04-9.78.01-7.4-.07-22.33.04-14.8 2.43.03 2.48-.07 2.52.08 7.28-.03-.03-14.92-.05-14.97 14.97-.1v-14.9h-.06l-.1-8.86.23-7.47z"/>
    <path region="63" short-name="8B" long-name="State House District 8B" value="1" d="m669.04 438.82-.84.45-2.75 1.82-1.56 1.51-1.01.47-1.3 1-1.57 1.82-2.67 1.3-.86 1.14-1.14.73-.82.21-1.07 1.3-.57.22-.28.9-1.92 1.27-.92.44-.76-.1-1.02-.92.32-1.83-1.69.09-.28.57-.7.2-1.8-.16h-4.42v-4.94h-1.24v1.06l-.92-.45.16-.62-2.33-.02v-1.22h.62v-1.23l.61-.62-1.24-1.23h1.86v1.85h2.33l.14-2.48 1.27 1.24v1.24l8.64.01-.02-2.49H653v-1.87h1.22l.01 1.86 8.7-.03v-1.25h1.25v-1.25z"/>
    <path region="64" short-name="22A" long-name="State House District 22A" value="1" d="m353.54 901.24 4.64.02h10.64l18.1.04 9.81.04.17-.06v-5.31h2.34l.02 2.47.38.49 5.45.03-.01 2.01-.29.32 6.21.01-.15-2.66.04-9.77.47.1-.02.71 1.64.07.15 1.16.75.22.42.47.7-.04.22.68.76.11.1.43 1.27.39 1.45-.68.28.97.43.44 1.2-.02 1.17-.52.24.52-.01.94-1.16.41.32.5.04 1.07-.66.72-.29 1.17-.84.12-.2.83 1.19.51.62.48-.03.7 3.14-.02 6.55-.1 1.9.08 1.18-.07h5.14l.02 14.16h14.06l.02 14.15.03 14.12h-9.34l-14.04-.04-4.53.02-.07 3.26-.03 8.58-.03 14.06.01 2.35-.06 14.03-14.02-.01v4.38l-.03 9.61h-15.25l-15.92-.04-12.99-.02-7.1.02-5.47-.06-7.62-.02-20.59-.02V971.7h14.1l.07-.04 7.58.1 5.12.02.83-.14.35-.36.05-22.96-.01-4.7h-.58l-.02-19.5.3-.55-.3-1.12 1.15-.44.16-1.42 1.02-.52-1.96.03-.37.42z"/>
    <path region="65" short-name="54A" long-name="State House District 54A" value="1" d="m472.85 790.88 1.18-.15.82.22.25-1.86.64-.36.99-.13 1.37-.53.7.67.83-.5.09-.98 2.34-.05 2 .05.5-.92.84.94.96-.52.28.5.65.07 1.4-.38.82.57 1.5-.4.3-.93.84.02 1.6.69.8-.11 1.17.68.53.78.03.05-.02 7.36-2.38-.02.02-1.19-1.2-.02v-.85l-.77-.2-.02-1-1.2-.68.13-.76-1.62-.1-1.22.17v4.65h-1.17l-.02 1.17h-2.35l.16 2.08.95 1 .02.6-.83-.1-.36 1.18h-2.38l.06-8.33-1.2.18v.9l-2.4.02-3.59-.07v-2.39l-1.46.06z"/>
    <path region="66" short-name="39A" long-name="State House District 39A" value="1" d="m511.84 734.4 4.45.01.03 8.18.03 2.24h-2.37v1.93l-.9.3h-1.5l.02 1.2-.5.01v.88l-1.33.03.3-1.36-.16-1.26-.35-1.2.14-1.08.38-1.12.2-1.4-.12-.61.2-3.18-.22-.45-1.73-1.58.24-.57h1.85l-.32-.95z"/>
    <path region="67" short-name="27A" long-name="State House District 27A" value="1" d="m408.56 666.5 1.1-.15.53.61h1.74l-.44-.95 1.67-.01v-1.04l2.6 3.17 4.6.05.6-1.8v-1.22h-.6l-.02-3.06h4.84l16.84-.17 8.53.1h3.57l.13 5.7v8.8l14.58.1.08 4.5.02 5.07-.15 4.8-.07 4.79.1 6.1-.07 4.12-.98-.1-.77.16-1.18-.1-.94.12-.7-.17-1.45-1.47-.97.9-1.2.32-1.45-.28-2.2-.08-1.2.34-.98.5-1.79-.52-2.34-1.68-1.47-.46-1.28-1.12-.35-.72-1.13-1.03-.63-1.12-1.16-.28-.86.03-2.24-.5-1.35-1.2-.94-1.7-.2-1.05-2.15-1.35-.3-.36-.24-1.16-.78-.68-.98-.22-1.23.3-.75-.22-.69.83-.9.38-1.9-1.8-.56-.36-.9-1.44-1.17-.35-.95.7-.1.98-.54.07-.05-1.12.53-.55-.26-.57-1.47.28-.6-.25-.8-1.33-1.04-.58-.7-1.16-.25-.53-.19-1.4-.45-.1-1.22.42-.47-1-1.15.1.06-.8-.3-.7-1.7-.6-.72-.92.2-1.77-1.74-2.07-1.26-.59-1.88-1.77-.12-2.53.42-1.33-1.3-2.13z"/>
    <path region="68" short-name="55A" long-name="State House District 55A" value="1" d="m496.26 795.66.03-7.36.28.22 1.03-.25.32.22.45 1.89.32.1 1.36-.61 1.23.57.88-.97.57.47.9.33.75-.76.45-.26 1.35.03 1.13-.33 1.7-.93.16 2.95-.01 4.08-1.98.05-1.42.88.06.91-1.33-.03.03 4.76-8.24.04v-1.73l1.33-.85.78-1.3.13-.9-2.26-.04z"/>
    <path region="69" short-name="28B" long-name="State House District 28B" value="1" d="m547.49 647.95 8.63-.03.03 1.78-.15.84.17 1.44.48 1.6-.28.87-.18 1.69.37.84-.2 1.84.15.56 1.48 1.32 2.88.18 2.7.93 1.32-.03 1.23-.29 1.85-.84 1.14-.1.67.26 1.56 1.58 1.32.74 2.28 2 .17.72-.4 1.85.16 1.87 1.73 1.87 1.13 1.7 1.24 2.8.57.67.76 1.32 2.24 1 .98.64.72 2.14-.3 2-.13 1.75.42.99-.46 1.65.02.8-1.6.86-.63.7-.87 1.5-.26 1.23-2.03 1.53-.73.84-.15.8.53 1.87.06 1-.68 1.65-.6.87-2.08 2-1.1 1.46-.99.77-8.14-.08h-13.1l-10.78-.1.02-4.8-.03-2.72.13-5.46-.13-6.13-.25-9.77h4.84l-.07-4.83.38-9.65h4.43l-.01-4.88-1.06.01-.16-.6-1.22.02.02-1.8z"/>
    <path region="70" short-name="44A" long-name="State House District 44A" value="1" d="m530.49 747.9 2.27-.01v1.2l5.85.02.07-.25 2.87.03 3.14.5v2.33l-1.2.96-.86.31-1.48.07v2.1h1.18v1.2h-7.15l-4.65.01z"/>
    <path region="71" short-name="29B" long-name="State House District 29B" value="1" d="m429.07 690.51 1.9 1.81.9-.38.68-.83.75.21 1.23-.3.98.23.78.68.24 1.16.3.36 2.15 1.35.2 1.05.94 1.7 1.35 1.2 2.24.5.86-.03 1.16.28.63 1.12 1.13 1.03.35.72 1.28 1.12 1.47.45 2.34 1.7 1.79.5.98-.49 1.2-.34 2.2.08 1.45.28-.02 5.15-1.2.27 1.21.92.03 3.59-7.2.02-.02 14.38-5.7.05-5.74-.03-.35.7-.25 1.32-.78.17v-.7l-.97-.33.11-.46-.83-.7.02-3.92-1.18-.3-.2.6-.97-.19v-.97l1.18.01.02-1.2h-.58l-.55-1.18-3.59.02-4.88-.14-1.1-.12-2.51-.04v-4.17l-.64-.01v-2.9h-.8l.02-1.23 1.19.02.02-7.3.05-5.93v-7.3l4.74-.06z"/>
    <path region="72" short-name="5B" long-name="State House District 5B" value="1" d="M290.87 481.55h5.82l-.04-1.88 1.47-.1 2.24.1v1.88h5.14v9.9l.03 4.93 7.9-.04h9.1l12.3-.14 5.54.14 8.18-.03h9.33l7.38-.06.03 4.9.12 9.84-.01 14.94 1.4-.09 6.32-.06h6.95l2.63.08 4.92-.03.07 4.8.03 8.65-.62 1.74-.97-.63-.1.94.43.37-.39 1.07-1.07.35-.59.75.23.47-.2.82-.95.53-.9 1.34-.9.6-1.18.4v.84l-.64.75-.15 2.85.45.94.47.41.16 1.54-3.11-.08-6.16.06-5.92.21-15.36-.1.02 6.67-.04 10.63v7.7l-.11 18.93.61.11-.02 14.44-.03 5.68v6.56l-3.62.05h-5.37l-5.38-.05-9.15-.09-5.44.07-3.61-.04-10.92.05-14.47.1-.07-14.6.17-12.14-.86-.02-.01-9.75-.04-4.9.06-7.24.03-7.4-.06-17.2.06-2.45.01-10.02h-.99l-.15-10.97v-12.93l.02-19.04z"/>
    <path region="73" short-name="57A" long-name="State House District 57A" value="1" d="m496.2 815.9-.02-2.26.1-11.98 8.24-.04 5.34.02-.4 2.64-.03.84.87 1.8.1.65h3.15l-.19.61.75.12.06.47h4.5l-.02 7.12h5.89l-.02 8.35.04 5.94-14.56-.04-8-.02-5.91.04.1-7.13z"/>
    <path region="74" short-name="57B" long-name="State House District 57B" value="1" d="M509.86 801.63h4.02l10.7.02h.03v4.72l-5.93.02v2.38h-4.5l-.07-.47-.75-.12.19-.6-3.15-.01-.1-.66-.87-1.8.02-.83z"/>
    <path region="75" short-name="21B" long-name="State House District 21B" value="1" d="m325.45 901.4 9.5-.07 4.7-.08 13.89-.01.01 19.27.37-.43 1.96-.02-1.02.52-.16 1.42-1.15.44.3 1.12-.3.54.02 19.51h.58v4.7l-.04 22.96-.35.36-.83.14-5.12-.03-7.58-.1-.08.05h-14.1v14l.01 14.06-7.01.01-18.44-.01-6.04.01-3.63.07-1.46-.09-5.13.03-3.92-.06-.72.12h-6.46l-9.53.04-5.39.02-3.11-.06-3.34.07-15.9.02H221.4l-7.7-.02.07-.34.1-4.3v-11.72l-.03-5.92.02-3.84.12-6.65.07-9.4.06-13.7.03-.42 13.97.03 14.01.02h18.3l8.76-.02v-7.03l.06-7.05 5.4-.05 11.27.1 14.91-.02 5.37.06h5.3l4.66-.03.59.44 1.48.01.88-.47 6.43.03-.02-4.72.01-14.09z"/>
    <path region="76" short-name="34B" long-name="State House District 34B" value="1" d="m495.95 729.85 4.8.03v-2.39h.54l.23-.65.91 1.66 1.83 1.19.84.92 1.39.61.37.97 1.07 1.46.8-1.4.65-.8 1.1-.82.35-.81.9 1.47-.02 3.1.13.01-1.66.02.32.94-1.85.01-.24.57 1.73 1.58.23.45-.21 3.18.13.61-.21 1.4-.29-.35-.06-1.1.32-1.11h-.81l-.29-1.2-2.78-.02-.6-.37-1.38-.45-1.17.24v-2.06l.62-1.82-1.2-.28-6.54-.01z"/>
    <path region="77" short-name="62B" long-name="State House District 62B" value="1" d="M509.2 766.52h1.52l.06-1.2.85-.01-.02-.9h.6v-3.71l.69-.01.55-.05.85 1.37.74 1.55h-1.06l.02 3.84v1.2h-2.39l-.86.3v-.6l-1.55.02z"/>
    <path region="78" short-name="7B" long-name="State House District 7B" value="1" d="m639.3 334.25.14 3.79-.23 7.47.09 8.86h.06v14.9l-14.97.1.05 14.97.03 14.93-7.28.02-2.52-.08-2.48.07-2.43-.04-.04 14.8.07 22.34-.01 7.4-4.93.01-9.87-.3.02-14.84-3.75-.12-10.9-.23-2.47.11-7.42.23-4.9.11.16-10.56v-4.26l-14.78-.12.05-14.21h16.1l7.78-.1 5.06.02-.09-4.94.08-13.72.07-26.48-.25-.07-7.3-.03-.31.04-7.37.06.26-1.07.54-8.9-.07-6.62-3.68-.15-1.3.08-3.85-.04-2.73-.13-1.35-.27-2.85-.1.16-1.23.18-3.8.5-7.45-15.1-.21-.01-12.7-.08-1.26.1-3.02-.01-2.93.22-4.23.06-2.53-.03-3.85-2.4-.03-.04-4.98-.16-9.97 2.54.06 12.53-.27 13.74-.06 1.3.54 15.1.09 1.34.26 14.59.07 14.02.16.23-.05-.02 5 .14 5.09-.02 5.04 5.06.09 8.7.04 10.23.03 5.86-.04.21 14.73.1 2.5-.25 2.49.17 2.29-.02 7.66.38.72.12 5z"/>
    <path region="79" short-name="47A" long-name="State House District 47A" value="1" d="m542.32 758.2.6.53.02 1.3 1.75-.98.02 4.49 5.9-.1 3.6-.01-.02 1.87-.21 1.51.22 1.45-3.57-.01-.13.84-1.05 1.73v1.86l-.41.38h-3.73l-2.91.01-.08-12.85z"/>
    <path region="80" short-name="23A" long-name="State House District 23A" value="1" d="m453.08 915.37 14.16-.01 14.06.01 3.12-.04.4-.1 10.59.18v-.03l14.08-.03 7.4-.03 4.29-.06 2.38.03 14-.03.04 14.16-14.09.03.01 14.14h-.42v11.78l.05 16.47-14.03.14-.02 2.35.06 7.2v4.54l1.17-.02-.02 1.14 1.1.57.04 1.73-.4.56-.45-.54-1.44.03-.04 10.46-13.99-.02-10.37-.01h-10.78l-12.48-.01h-13.12l-18.98-.04-18.4-.03.04-9.61-.01-4.38h14.02l.06-14.03v-2.34l.02-14.06.03-8.58.07-3.26 4.53-.02 14.04.04h9.34l-.03-14.12z"/>
    <path region="81" short-name="11A" long-name="State House District 11A" value="1" d="m565.56 428.75 4.9-.11 7.42-.23 2.47-.1 10.9.22 3.75.12-.02 14.84 9.87.3 4.93-.01-.05 9.78.01 5 6.12-.05h6.18l2.53.16.04 16.59 1.07.5.07 6.64-.05 20.57-.04 1.43-.06 13.3-.02 16.15.03.44-.1 12.74-.03 10.8.02 3.9h-8.08l-1.45.1-11.62-.08-9.2-.09.08-14.7-8.47-.01-6.23-.05-14.66.04.02-14.7-14.48-.14-14.78.03-.13-14.78-.04-14.87-.08-12.27.13-2.41-.93-.01-.15-6.1-.1-8.06.41-15.35 14.7.05 4.95-.07 9.95.09.22-14.74z"/>
    <path region="82" short-name="63B" long-name="State House District 63B" value="1" d="m505.63 772.47 1.2.01.59-.59v-1.19h1.78v-2.38l1.55-.02v.6l.86-.3h2.4l-.02-1.2h2.23v.6h.95l.6.85.75-.36.87.12.1 1.35.74.7h-1.59v.6h-4.08l-1 .33h-.78l.1 1.46-4.56.07-2.69-.04z"/>
    <path region="83" short-name="51B" long-name="State House District 51B" value="1" d="m506.8 779.53.02-1.72 4.74.03 8.2-.02-.03.63-.6.96-.5 1.44-.44.64-1.13.2.24 1.04-.98.52-.87.73-.52.73-1.01.8-.46.64-2.4.76-.98.08-1.08 1.03-1.7.93-1.12.33-1.35-.03-.45.26-.25-.95.4-.33.15-.98.89.01.01-1.37.64-.28.58-.71z"/>
    <path region="84" short-name="48A" long-name="State House District 48A" value="1" d="m453.07 773.05 7.28.04 5.01-.13.54.07 4.55-.06-.63.55-.28 1.08-.01 1.68.6.11.07 2.56-1.22-.2.03 1.18-2.32.07-.02 2.5.55-.44.66-.01-.02 1.21-.45.7 1.23.38 2.09-1.26.42.84.15 1.86 1.18-.31.12 3.24-.09 1 .34 1.17.58 1.08-5.64-.05.05-4.75-5.4.03-9.3.24-.04 14.28H439l.04-14.03-.02-6.38.04-6h-1.2l-.56-.46v-.72l-.66-.34-.01-.79h2.28l1.15-.6 1.8-.08v.7z"/>
    <path region="85" short-name="36B" long-name="State House District 36B" value="1" d="m544.72 738.94-.03 5.18.9.35.62.51.2 1.13h-.6l-.56-.6-.25 1.2h-.3v2.68l-3.15-.5-2.87-.03-.07.25-5.85-.03v-1.2l-2.27.02-.03-5.96 3.64-.04.96-.8.8-.24 1.15-.66 1.72-.37 2.38-.7 2.4-.97.45.66z"/>
    <path region="86" short-name="49A" long-name="State House District 49A" value="1" d="m481.73 771.88.02-2.22 1.33.15 2.65-1.34 3.07-.67 1.98-.59 1.03-.09 1.17-.76-.19.57.2 1.17.57.55.01 1.85 2.42.04-.04 2.39.25.14v.03l-1.06.5-.67 1.6-.2 1.3-.64.67-2.2.44-1.13.39-1.12-.2-2.02.1-1.3-.22-2.73.17v.57l-1.1-.03v-5.44h-.31z"/>
    <path region="87" short-name="49B" long-name="State House District 49B" value="1" d="m482.04 778.4 1.08.02v-.57l2.74-.17 1.3.22 2.01-.1 1.13.2 1.14-.39 2.19-.44.63-.68.2-1.29.68-1.6 1.06-.5.13 3.55-.04 1.16-.02 3.66.06 5.21-.08 1.57-.53-.78-1.17-.68-.8.1-1.6-.68-.83-.02-.32.93-1.5.4-.8-.57-1.41.38-.65-.07-.28-.5-.96.52-.85-.94-.49.92-2-.05-.05-5.98z"/>
    <path region="88" short-name="25A" long-name="State House District 25A" value="1" d="m594.56 901.34.02-10.55h1.71v-.59h-1.71l-.45-.7.72-.47v-.59h.85v-1.2l12.88.06-.03 14.1 14 .04v14.12l-9.37-.05-1.76-.02.02-1.36-.83.08v-.48l-.93-.02v-1.75l-.28-.65.1-.88-.95-.23-.42-.55-.83-.08-1.54-.6-3.08-.03-.14-.98-.84-.02-.32.4 1.44 3.58-3.78-.04-4.48.05v-5.03h-.58v-.83l.58-.02z"/>
    <path region="89" short-name="26B" long-name="State House District 26B" value="1" d="M593.25 945.9h14.1v-2.3h1.22l14.06.03 7.76.06 5.05.09 5.84.01h19.77l3.55.01 9.84.04 9.3-.06 5.1.05 13-.01 8.14-.02 19.7.03 4.82-.03h9.05l.75 1.5.23 2.1.43 1.8.89 2.16.23 1.33 2.14 2.84.03.26-1.35 4.56.07 1.84-.34 1.27-1.25 2.56.08 2.3-.58 3.07-.06 1.62.18 1.89.92 1.17.08 1.53-.62 1.75-.03 1.94.42.87.8 1.05.63.5 1.61 1.71.85 1.29.04 1-.15 1.74-.92 1.58-.37.95.08 1.42.75 1.2.44 1.44 1.21.98.62.87-.05 1.93h-3.54l-1.1-.07-20.95.04-15.72.03-4.65-.02-2.5.03-8.01-.04h-45.46l-9.64-.01-7.32.03h-16.45l-10.12.04-10.68.02h-1.85l.01-6.03-.05-12.67-.05-13.75.18-.27 1-.03.02-1.18-.42-.35-.78.2-.01-5.73z"/>
    <path region="90" short-name="14A" long-name="State House District 14A" value="1" d="m395.58 662.79 1.84-.23.59.13.4-1.2 1.66.17 1.74-.05-.07.8-.75.37v.89l.98.01.05-.61 2.57.03 1.24-.1 2.38-1.22.76 1.28-.18.76.03 1.98-.25.7-.18.62 1.29 2.13-.41 1.33.11 2.53 1.88 1.77 1.26.6 1.74 2.06-.2 1.77-1.32.6-.4-.61-2.5-.05-.01 7.24-14.4-.19.05-9.1.06-5.05-.91-.6-1.26-1.43-.36-.8-2.93-1.97-.32-.3.5-.7.45.24.48-.82-.56-1.11-.9-.28-.77-.72-.02-2.06-.24-.92 2.5.16.53.17z"/>
    <path region="91" short-name="60A" long-name="State House District 60A" value="1" d="m509.77 749.18 1.34-.03 5.27-.02v3.71l1.06-.03.02 1.22 1.17-.03.01 3-3.27.03-.04-.6-1.6.06-2.11.27-.7-.55-.21-1.02.12-.9-.08-1.7-.36-1.5z"/>
    <path region="92" short-name="32A" long-name="State House District 32A" value="1" d="m511.87 716.37 1.08-.03.95-.55 1.54-.04.27-2.73-.2-2.11 1.32-.02 4.66.13 3.61.01.07-2.89 1.1-.35-.05-6.89 14.44.1-.02 4.8v10.47l-.03 3.84-14.34-.03-.03 2.42-5.64-.1-1.16 1.69-1.42.69-.78-.12-.3-.49-.9.1-.55.45-.04 2.44-3.66.01z"/>
    <path region="93" short-name="56B" long-name="State House District 56B" value="1" d="M522.93 789.66h2.71l.73-.17 1.1.17h3.01v2.39l8.35.02.1 2.45-.08 3.57-8.45-.04-.74.91-.7.28-2 .04v1.46l-1.19-.06-.01.97h-1.18l-.34-.9-.97-.03-1.04-.29.01-3.57h-1.2l.01-4.84.12-.82.62-.26z"/>
    <path region="94" short-name="43A" long-name="State House District 43A" value="1" d="M496.06 744.15h5.95l1.19.02-.02 4.19-1.2.05.07 1.22-.8-.01.01 1.21h.79v1.8l-1.98-.02-.02 1.2-4-.02z"/>
    <path region="95" short-name="42A" long-name="State House District 42A" value="1" d="m487.02 741.54-.44.7-.27.97.28.94v7.77l2.64 1.18 1.35.86.76 1.34 1.06 1.24 1.42.48-.1 1.53-10.36.08-.3-.6-1.25.04.02-3v-7.05l.05-6.3.54-.03.61.44.58-.67 1.51-.43 1.53.16z"/>
    <path region="96" short-name="28A" long-name="State House District 28A" value="1" d="m482.95 647.74 9.04.02 5.45.1V633.4l8.37-.03h10.47l5.2.07 4.85-.03.03 4.84-.02 9.62 6.14-.04 7.8.07 7.2.04.05 7.24-.02 1.8 1.22-.01.16.6 1.06-.02.01 4.87-4.43.01-.38 9.65.07 4.82h-4.84l.25 9.78-7.45-.16-1.17-.17-5.73.02-.02-9.6h-12l-4.2-.02h-7.3l-2.9.07-2.41-.03.03-10.83-.05-3.67-14.23-.13-.11-4.89z"/>
    <path region="97" short-name="24B" long-name="State House District 24B" value="1" d="m594.56 911.93 4.48-.05 3.78.04-.02 4.05.64 1.52-.13 1.24 1.01.23 1.2.01.16-1.15 1.86-.07 2.18-.75 1.11.03-.02-1.54h.61l1.76.02.45.73.1.8.64.24v.56h-1.17v3.08l.5.44.37.87-.22 1.15-.64-.08-.03-1.08-1.13.3h-1.18v.73l-1.17-.2v-1.13h-.7l-.44.59-.42-1.98-.54.8h-1.79l-.18 3.5h-11.04z"/>
    <path region="98" short-name="41B" long-name="State House District 41B" value="1" d="m540.41 789.74 1.47-.07v-.62l1.76.03v.6l1.17-.01.73-1.78-.74.01v-2.48l.58 1.69.88.77h.7l.09-1.79h2.35l.97.28.2-.85-2.08-1.7-.95-.66-2.75-3.1 1.5.1 2.57-.04-.02 2.37 6.87.04.85.1.07-.73 2.34.04v.6l2.48.03 5.14-.06-.01-2.36 3.13-.04-.28-2.28.48-.02.06 1.27.39 2.2-.1 1-.72 1.14-.04 1.09-.91 1.46-.3 2.38-.68 1.7-1.35 1.72-.68 2.1-.21 2.16.63.94-1.18-.24v5.02h-2.36l-.01 1.18h1.18v.6h-1.19v.6h-1.18v-1.2l-3.54.01v-1.2h-11.8v-5.3l-.06-3.84-1.32-.5-1.02.1-.7.47-.6.04-1.17-.64-.44-1.02z"/>
    <path region="99" short-name="53A" long-name="State House District 53A" value="1" d="m525.02 772.6.46-.63 1.47-1.43.54-1.64.38-.6 2.67-.01v2.39h1.15l1.24.32 1.15-.3-.02-1.2h1.21l.01 4.76.52.31.08 2.66 2.49.01-.41 1.9.9.37v1.21l.4.43.8.03v.73l.82-.18.65.15.83 3.71-1.26 2.02-.57 1.38-.12.75.2 1.31.44 1.02h-2.22l-8.34-.02v-2.38l.03-4.88-.03-6.84.05-6.08h-2.4l.02-1.79-1.51 1.58z"/>
    <path region="100" short-name="33B" long-name="State House District 33B" value="1" d="m540.64 705.8 10.77.1h13.11l8.14.08-1.53.8-.37 1.01.14 1.02.93 1.53.12 1.32-.85 1.37-.15.63.32 1.88v1.29l.68 1.97-.27.98-.47.53-.69.78-.35 1.62-.03 1.2.27.84 1.45 1.47v1.29l.31.47-.14.95.23 1.51-.36 1.06.31.66.44 2.49.72 1.09-.63 1.36-1.1.85-2.3 2.32-2.05 1.58-1.09 1.68-.24.67.1 1.33.58 1.12 1.07 1.18 1.07.7 1.64 1.72h-.64l.18 1.12-.74-.14.36 1.36-.67 2.46-.44.02-.1-1.2h-1.01l-.33.32-.42-1.97.65-.01v-.74l-1.8.02-.02-1.23-2.98-.01-.61.4h-2.12l-.23-.81-.52-.01-.1-11.92-.03-3.35-3.96.01.08-21.56-.65-1.18-.48-.06-.26.86-.45.38h-.92l-.64-.89-.49-.11-1.23-1.35-.6.61-.96-.08-.63-.56.04-.57-1.02-.54-.78.31-.77-.2-.23-.87-2.93-.09-.92-1.05-.41-.07z"/>
    <path region="101" short-name="3A" long-name="State House District 3A" value="1" d="m941.4 251.06.98-1.01.39-.93.84-.2 1.62-.07.6 1.24-3.77 2.35zM375.67 121.91l1.04-1.38.61-.4 1.16.08 2.04-.25 1.24.3 1.13.68 3.02.54 1.67-.2 2.34-1.02 2.07.45 1.05.44.87.95 1.15.17 1.56 2.73.06.93-.47 2.54.52 1.34.68.51 1.26.2 1.1.5 1.14.02 1.75-.28 3.71.5 1.21.42 2.19.01 1.44.22 1.91.05 1.18-.3 1.02.4 1.7-.1 1.27-.34.65.53.91-.16 1.09.1.88.43.72.03 2.63-.41.74.07 2.67.76 2.12.23.78.54 2.22.27 2-.04.4-.42 2.54.54 5.55.34 1.27.82.49 1.41.92 1.5.34 2.44 1.23 2.66.31 1.77-.17 1.5-.62 1.97.1 1.46-.74 1.15-.08 1.03.71.93 1.24.74.83.8 1.14.1 2.52-.11 1.2.17 1.3-.4 2.11.01 1.7-.12 1.7.57 2.35-.27 2.1.1 1.3-.27.85-.93.69-1.33.68-.16.95 1.24.9.4.8-.29 1.1-.96.75-.02 1.13.42 1.9-.42 1.74.04 1.77-.67 1.94-.41 1.8-1.13 2.18-.35 1.63-.44.78-.87.49-1.99-.05-.95-.55-1.2-.5-2.35.2-.8 3.02-.27 1.52-1.4 1.98-1.26.57.14 1.01.76 1.32-.32h1.47l.41-.34.65-1.2.79.4.92-2.66 10.83-2.86 5.55.05 2.73 2.5.7.89 10.48-.75 12.1.68 3.52-1.37.56.19.03 3.91 2.36.25 2.3 1.87 1.79.25 19.48 9.82 8.2-1.23 2.7.6 1.13 5.27-.67.68.43 1.02-1.1.7-1.22-.08-.81-.3-.87.89-2.74-.19-1.63.48-.29 1.82-.93 2.03.07.48-.46 1.3 2.88 3.37 2.89.65.84.61 9.4-.72 4.5-1.22 2.6-.1.9.07 2.11 3.1.83.29.76 1.74 2.26.8-.01 2.31-2.38 5.17.8 3.5 1.9 3.93 1.44 2.45.4 1.01.69.84.7.1 1.14 1.6 1.12 2.82 1.63 3.59-.08.25.98 1.36-.36.53.58 1.47.5.45.11 1.08 1.03 1.65.19-.65.63.19 1.05-1.3 1.4-.39.5-.5.54.26 2.06-1.17 3.97-.66 1.28-.7-.46-1.49-1.95-1.54-.49-1.06.18-.85-.31-.3-.68-1.84.81-3.14-1.37-1.76.2-1.15 1.07-.17.75-3.35 3.12-2.1 4.62 1.01.68.72 1.2-.08.36-1.14 1.18.6 1.77-.57.12-.94 1.78-1.07 2-.41.17 1.67 6 .27 1.03.13.65-.77 1.36-.24 1.3.07.76 1.82.25 2.48 1.03.28.8 1.3 3.6.78-1.5 4.21.1 1.78.57 1.21.07 2.63 2 .91 1.02 2.18.58.58.56-.55.1-1.04h1.24l.6.33.57 1.26-1.02.13-.1 1.31.16.58 1.86.42.53-.63 1.93-.45.59-.37 1.4.32 1.2-.11 1.04 1.82 1.96 1.44.4 2.12 2.92-.46.88.06 1.9-.43.15.54 1.91 1.03.73.06.33 1.04.92-.68 1.93-.03.44-.74.53-.18.28.81.57.42.84-.05.36-.89 2.8.89.51.91-.22 1.13-1.05 1.27-.37 1.68 1.77-.36.48.34.02 1.94-.4 1.23.58 1.28.63.65-.2 1.72-.5 1.22-.46.33-.45 1.45.99.2 1.25-.49.05-.52 1.12-.48-.56 1.82 1.25.78 1.62-.28.05-.46 1.1-.47-.04.8.63.7.94 1.52 2.9-.87 3.09-.05 1.53-.76 1.94-.3.73.91-1.96 1.7-.67 4.73.29 1.57-.31 1.5.98.88 2.9-1.67 6.3-2.6 2.7.24 1.77-.36.44.25-.06.73 1.06 1.94.05.5.93.11 1.85-.86 2.66-.62 1.36-1.44 1-.72.67.43 1.71-.82 1.22-.28.42.64.76-.04.61-.48 1.18-.15 1.42.07 1.45-.16 1.66-.8 1.12-.03 1.9-.94 1.78-2.08 1.02-.65 1.38-.58 2.8-3.84.85.47.82-.63 2.35-2.57 2.15-1.52-.62-.9 2.68-1.07.6-1 2.65-1.23.42-.74.7-.6.82.27 1.19-.35.3-.7.68-.38 1.58-.32 1.4.13.87-.29.18-.42 1.2-.98 1.06-.37-.1-.43 3.19-2.95 6.06-1.83 1.18-.13.95-1.18 2.5-1.48.47.93.74.47.94-.07 2.3-1.1.97.87.16.84-.24 1.13.3.47.28 4.11.08 2.37-.25 2.05.44.57 1.04-.77-.24-.95.54-.2.4.9.82-.02.75.32.42 2.56.47.68 1.26-.27.29-.53.83.35-.53 2.82-.58.06-1.3 1.05.18.7.91.46.05.9 1.2.64.45 1.15.7.53-.07.74.7 2.1 1.17 1.28 1.18-.63 4.43-.25 2-.79 5.26-.53 1.72-1.45 1.25-.12 1.14-.6 1.75-.28.1-.4.98-.7.74.5 1.14-.3.8.17.4.81-1.62 1.77.26 1.01 1.25.9 4.65-.59.72.36.63-.4 1.1.15.27-.44.79.39.79-.53.3-.59.78-.1.39-.49.68.41 1.15.26 1.6 1.1 3.28-1.1.83-.02 1.14.84.83.37.48.88 1.7-.24 1.64-.08.82.16.97-.37.14-.62.84-.46 2.85-.48 1.9 1.07 1.73-.74 2.42.18 2.35-.85 1.07-.19 1.55.33 1.9-.37.76.08 1.4-.79 1.46.48 1.57-.1.82-.41 1.3.15 1.17 1.08.74.23 2.88-.06 2.08.61 1.9.84 1 .82 2.27.71.7.5.57 2.22.44.85.77-.2 1.24 1.88.47 1.5-.34 2.38.43 1.23 2.19.97.71 1.46.56-.03 1.33.68.45-.9.83.31.78-.26.44 1.3.62.27-.25.84.7.34 1.2 1.16.76.17.86.82 1.28.22 1.78.07.37-.7 2.56-.49.88-1.66.97.34 1.24-2.59 1.44-.37.3.6 1.02-.19.5-.58 1.46-.03 1.37-.74 2.15-.13.73.59 1.06-.33.33.54.84-.04v.93l.92-.48-.03 1.08.96.01.79.7 1.47-.8.34.17 1.42-.3.52.56.72-.4.72.11.45.93.9-.27.97.22v-.77l1.42-.38.84.1.72-1.15.38.88.08 1.03 1.52.4 1.03.77.58.7 1.2-.37 2.05-.24.94-.3 2.1.28.5-.34 1.2-.2.15-.44 1.63-.17.21.58-2 .37-2.13.74-1 .04-3.14.59-.78.56-.19.87-1.68.57-.8-.1-.6.28-.93-.05-.57-.76.9-.67-.1-.47-1.16-.88-.89.32-.65.82-.96.46-1.32 1.4.2 1.22.94 2.19.04 1.09-1.38-1.1-.23-.88-.5-.37-2.17.28-1.03.65-.66 1.44 1 .64.02.84-2.5.94-1.13.95-.06.43-1.9 1.1-.98 1.43-2.41 1.7-.14.59-1.65.35-2.36 1.75-1.11.3-.82.62-1.55.56-.58.58-.56-.34-1.1.47-1.28.95-2.11-.04-.92.52-.43.62-1.03.3-.38-.36-1.8.62-.94.09-1.04.58-.38.66.26 1.07-1.04.22.13.63-1.99 1-.9-.13-1.15.32.08 1.07-.45.3-4.3 1.32-1.06.5-.48.48-2.08.06-.72.19-1.17.77-1.6.17-1.12 1.3-1.3.2-1.18.67-1.72.68-1.7-.17-1.96.2-1.86.41-1.63 1-.98 1.16-.13.47-1.54.34-1.43-.34-2.14.18-2.89.86-1.65.92-.93.2-3.1 1.34-.76-.1-2.17 1.16-.33.5-1.03-.1-.32.61-4.86.69-.53.01-.83.64-2.75.38-.32.26-1.6.36-.4 1.19-3.45.89-3.2 1.33-3 1.02-.36-.06-1.2.6-.57.58-1.1 1.63-3.93 1.66-1.5.97-3.76 1.94-.92.72-2.28 1.26-.22.33-1.42.74-1.76.49-3.37 2.02-1.57.7-3.98 2.98-1.67.78-1.42 1.67-.9.74-4.47 3.28-1.5 1.36-1.73.92-3.33 2.94-1.91 1.8-.31.47-1.38 1.18-.96 1.01-1.05.52-.84.94-.59.19-1.83 1.62-1.77 1.73.02.4-1.11.55-2.07 1.8-.36.57-1.27.78-1.15 1.16-1.49.3-.35.8-1.9 1.93-.7 1.22-1.96 1.94-.93 1.34-1.24.5-2.73 2.3-.06.57-1.41 1.22-.05.47-.96 1.03-.47-.17-.9 1.14-.98 1.87-.63.77-.34 1.02-.77 1.04.2.5-1.32 1-1.31 1.33-.44 1.73-.44.47-.65-.11-.53 1.03-.52.02-.08.83-1.1.38-.93 1.82-.3 1.76-1.26.84-.68-.11-.94.8-.56 1.52-1.04-.04-1.07 1.82-1.04.44-.5.8-1.84 1.68-.43 1.25-.96.51-.1.45-1.7 1.64-.43 1.45-.9.48-.28.95-1.24.36-1.08 1.78-1.44.26-.39.68H729l-.23.97-1.2 1.04-.1.66-.59.22-1.14 1-.78 1.44-.75.83-.56.1-.2.99-1.2 1.34-1.73 1.33-.64-.16-.48.37-.91.11-.97.58-1.41 1.92-.25.65-1.02.34-1.13.1-.67.41-.58 1.01-.88-.16-1.34.37-.56.4-.71 1.4-.5.53-.05.86-.6.47-.62 1.47-.97-.25-1.68 1.32-.5.86-.57.2-1.09 1.5-.7.45-.1.58.78.73-.12.64-1.12.01-.56-.99.65-.7v-.53l-2.48-.1-.02-4.88-11.53.05-.48-.17-1.07-1.37-1.77-.22-.01-5.64.25.02.03-14.9-.04-14.92.1-15.09-4.85-.01-5.2.36-1.64-.22-1.1.23-.7-.33-1.5-.01-14.91.08-.05-7.47h.07l-.3-7.6-.14-5.43-2.52.05-12.05.38-.14-3.82-.12-5-.38-.72.02-7.66-.17-2.3.24-2.49-.09-2.49-.2-14.73-5.87.04-10.22-.03-8.71-.04-5.06-.09.02-5.04-.14-5.1.02-5-.23.06-14.02-.16-14.59-.07-1.33-.26-15.1-.1-1.3-.54-13.75.07-12.53.27-2.54-.06.16 9.97.04 4.98 2.4.03.03 3.85-.06 2.53-.22 4.23.01 2.93-.1 3.02.08 1.26v12.7l-.11 2.7.06.88-.12 4.07-.22 2.44-.02 2.5-.17 2.4-4.98-.01-2.44.2-2.51-.2-2.54.12-7.85-.03-4.33.02-.1-5.07.02-2.3.25-7.7-11.18.1-.18-.07-4.34.12-8.65.02-1.62-.06h-5.08l-3.88-.14-5.66-.05-13.17.12-4.24-.03.03-7.29-.04-6.48.05-1.32v-7.25l-12.12-.05-.17-.06-4.68.07-1.93-.05-11.52.14-14.8.04-15.03.09-7.04.03-.49-.06-7.57.03-.13-8.07.02-10.2.07-11.95.1-12.68-.01-17.68h-.69v-9.5l.04-5.54-.04-5.04.12-3.87-.1-.59-.1-20.92-.03-.14-.14-15.38h-.34l-.09-8.93.04-5.57-.12-7.8v-8.23l.13-8.97-.06-6.38z"/>
    <path region="102" short-name="64B" long-name="State House District 64B" value="1" d="m519.44 765.88 5.13.02v1.2h1.4l.6-.69 1.13-.14.4-.35h1.25l-.33 1.05.16.64-1.3.7-.4.6-.53 1.63-1.47 1.43-.46.63-1.86.9-1.12-.03.15-.92-1.19-.2-.77-1.7-.74-.7-.1-1.34.16-1.5z"/>
    <path region="103" short-name="54B" long-name="State House District 54B" value="1" d="m467.64 805.7.7-.14.26-.68.76-.2.42-.7.88-.67-.97-1.38.07-1.3-.68.05-.1-.6.44-.8-.34-.92.15-.46.95-1.16.14-1.05.74.74.7-.78-.28-.47-1.16-.57-.12-.39.72-.66 1.16-.22.66-.35.69-1.03 1.46-.06v2.4l3.6.06 2.38-.01v-.9l1.21-.19-.06 8.33h2.38l.36-1.18.83.1-.01-.6-.95-1-.17-2.08h2.35l.02-1.18H488v-4.64l1.22-.18 1.62.11-.13.76 1.2.67.02 1 .78.21v.84l1.19.03-.02 1.19 2.38.02v1.19l2.26.03-.13.9-.78 1.3-1.34.85v1.73l-.09 11.98.02 2.27-5.97.01h-13.12l-5.63-.03-3.86.03-.02-2.23-1.18-.15.12-1.2 1.02.02v-3.6l-1.2.01.03-1.23 1.2-.01z"/>
    <path region="104" short-name="48B" long-name="State House District 48B" value="1" d="m470.45 772.97 7.9.04 3.37-.05h.3l.02 5.43-.04 2.84.06 5.98-2.34.05-.09.99-.82.5-.71-.68-1.37.53-.99.13-.64.36-.25 1.86-.82-.22-1.18.15-.34-1.18.08-.99-.1-3.24-1.2.3-.14-1.85-.42-.84-2.1 1.26-1.22-.38.45-.7.02-1.21-.66.01-.55.44.02-2.5 2.32-.07-.03-1.18 1.22.2-.08-2.56-.6-.1.02-1.7.28-1.07z"/>
    <path region="105" short-name="40B" long-name="State House District 40B" value="1" d="M520.97 749.11h4.75l-.05-8.9.23.52h2.87l.26.6.18.57 1.25.04.03 5.96.04 8.47-4.15-.01v-1.2l.6-.1V754l-1.19-.03v-.65h-6.12l-1.03.69-.06-4.89z"/>
    <path region="106" short-name="40A" long-name="State House District 40A" value="1" d="m516.29 734.41 8.69.05 5.42.02-.02 2.01-.55.61-1.8.02.03 2.72.41.55.77.02-.21.91-.26-.59h-2.87l-.23-.53.05 8.91h-4.75v-1.18h.59v-1.2l-.6-.03.21-2.76-2.4.4-1.39.03-.05-1.82-1 .04z"/>
    <path region="107" short-name="64A" long-name="State House District 64A" value="1" d="m518.62 761.7.68-.01 2.67 1.28 1.42.06 1.19.04v.64l4.76.01v-.54l1.03.25.35.4-.91.9-1.71 1.19-.4.35-1.14.14-.6.7-1.38-.01v-1.2l-5.14-.02.08-1.19-.41-1.56-.49-.37z"/>
    <path region="108" short-name="2A" long-name="State House District 2A" value="1" d="m271.65 68.99 19.44-.02.04-32-.01-12.87.01-24.1.42.68.93.4 1.79 1.6 1.24.52 1.49.27.03.27 1.53.43 3.67 1.43 1.05.02 4.1-.6 2.98-2.24 1.7.2 1.97-.43.63.27 5 3.32.27.3 3.34 2.75 2.83 1.62 2.03.01 2.42.56-.95 2.17-.15 2.6 3.32 14.35-.1 2.93 2.79 13.03.11.76 2.69 3.84 3.66 17.71 4.05 20.66.01 2.05-.97.62.27.99-.33 1.77.86 2.36-1.33.78-.57.7-.28 1.33 1.1 2.68-.12 1.67.19 3.13.85 1.27 1.66 1 1.5 1.61.94.79.78 1.2v.89l.48.5 2.6.68.99.98 1.07.62 1.38 1.86 2.48.42 1.46-.12 1.21.7.81 1.7.61.25 1.02-.06 1.85.21 1.08.43 1.55.01 2.55.42 1.42.55 1.6-.44.98-1.07.09 13 .06 6.4-.12 8.96v8.22l.1 7.8-.03 5.58.09 8.93h.34l.13 15.38.04.14.1 20.92.1.58-.12 3.88.04 5.04-.05 5.54.01 9.5h-2.52l-1.84.13-4.36.04-6.4-.08-14.47-.1.02 2.81-.04 12.35-.06 6.7-.1 3.47.07 5.01-13.36-.03-1.37.03-.02 4.37.05 3.05-.36.17-.06 9.22.15 8.8.04 4.58h.52l.04 8.25.1 5.52-.01 13.73-.03 5.44.01 12.54-14.9-.15-2.52-.13-5.21.02-10.5-.14-11.69-.1v-14.9l-.16-15.1-.04-15.12h-11.44l-11.2-.02-5.61-.05h-17.81v-5.04l-.14-10.07.04-3.72-.16-13.9-.12-12.59-.04-10-.05-5.14-1.12.02-.06-15.23-.1-11.45.02-16.07.04-2.96.02-14.79h-.99l-.14-5.2.22-16.59-.02-7.58-.14-1.2 2.37.04 10.83-.1 4.45-.13 10.29-.07 2.43.02V133.4l.03-.1-.05-13.52 20.87.02 8.7-.03v-6.52l-.06-1.24v-10.23l-.13-18.86-1.24 1.32-1.36 1.13-.3.57-2.56 1.56-1.2.46-1.57.05-4.3 1.16-1.47.13-1.79.54-1.06.04-2.25-.53-2.3-1.53-.33-.45-1.25-.4-.33-.65-1.2-.49.55-.72-.57-.42-1.12-1.36-.6-1.08-.8-1.97v-.85l.87-1.02 1.24-.02-.13-.63-1.38-.5-.4-1.33.16-.67-.67-1.11-.15-2.18 1.06-2.51z"/>
    <path region="109" short-name="9B" long-name="State House District 9B" value="1" d="m186.52 466.6 14.85.15 14.75.05 10 .17h9.66l9.82-.08 2.65-.18 3.7-.09 5.12.13 1.07.15 8.6-.07 1.28-.07h7.07l4.97.08 2.45-.15 7.4-.08-.04 4.99.08 9.95h.92l.02 16.05-.02 19.04v12.93l.15 10.96 1 .02-.02 10-.06 2.46.06 17.2-12.27-.08-2.43-.05.1 7.94-.04 6.75-5.73.12-8.82-.1.01 14.6H251.2l-.11.62h-1.17l-.48-.62v14.56l.03 4.83-.08 2.37.06 2.47-.01 5.06-9.72-.05-19.35-.11v-9.75l-.03-19.42h-1.27l-.02-18.66v-10.6l-.03-14.74-14.6-.09-.02-14.72-1.07-.03-.04-7.37-.1-11-.05-11.08-9.97.04-4.63.05-.06-14.76-.11-14.86h-1.61z"/>
    <path region="110" short-name="41A" long-name="State House District 41A" value="1" d="M544.78 777.83H559l-.03-14.4h-4.76l-3.6.02.04-2.38h-1.2l-.02-8.18-.34-.33-.3-1.05h-.51l-.01-1.25 1.11-1.18v-8.75l1.88.65 2.31.27-.03-1.52-.55-1.22-.07-1.4 4.9-.02.46.07.6.75.1 11.92h.52l.23.81h2.12l.61-.39 2.98.01.02 1.23 1.8-.02v.74l-.65.01.42 1.97.33-.32h1.02l.09 1.2.44-.02.67-2.46-.36-1.36.74.14-.17-1.12h.63l.26 1.38-1.02 3.17.26 2.18-.15.8.1 1.85.26.67.77.52.7 1.52.45 2.34.02.7-.8 4.32-.24.55-1.59 1.07-.2 1.42.61 1.62.64 1.16.05.63-.63 1.66-.48.02.28 2.28-3.13.05.01 2.35-5.14.06-2.48-.03v-.6l-2.34-.04-.07.74-.85-.11-6.87-.04.02-2.37-2.57.03-1.5-.08z"/>
    <path region="111" short-name="55B" long-name="State House District 55B" value="1" d="m509.17 790.97.81-.08.8-.68.93-.5 1.01-.08v1.1l1.19-.6v4.6l-.03 6.9h-4.02l-5.34-.01-.03-4.75 1.33.02-.06-.9 1.42-.88 1.98-.05z"/>
    <path region="112" short-name="30B" long-name="State House District 30B" value="1" d="m468.78 691 14.53.04 6.97.1 8.98.05v.52l-.56.56 3 .06.01-1.16h.6l-.07 4.05-.28.72.32 1.26.01 4.76-.38-.08-1.62-1.06-.62.24.07.9-.73 1.2-.05 1.61-.2.73-8.1-.1h-7.5l-.19 8.74.05.17-1.1-.15.2 1.38-.22.97-.56.63-.24 1.03-.56-.52-.08-.83-1-.33-.6.97-.53-.04-.34-1.84h-5.42l.02-2.16 1.2-.23-.05-4.61-1.07-.14-1.34.17.02-1.63-.13-.5-1.18-.46-1.3-.01.06-4.12-.1-6.1z"/>
    <path region="113" short-name="27B" long-name="State House District 27B" value="1" d="m482.95 647.74.14 9.54.1 4.9 14.24.12.05 3.67-.03 10.83 2.4.03 2.9-.07h7.3v1.83l-.61.6-1.18.59-.02.56-1.17.66v1.18l-.57.6-.62.01-1.79 1.79-.01 1.2h-1.2v.6h2.4v-1.2h1.3l.1.75.42.44h4.77l.54.6.06 2.4h-.58v1.82l-9.59-.02h-.59l-.02 1.16-3-.06.57-.56v-.52l-8.98-.05-6.97-.1-14.53-.03.15-4.81-.03-5.08-.07-4.49-14.59-.1.01-8.8-.14-5.7-.06-4.89-.06-10.01 4.33-.03 1.82.06 3.64-.11 1.22.08 4.23.1 11.3.31z"/>
    <path region="114" short-name="31B" long-name="State House District 31B" value="1" d="m498.75 705.5.21-.73.06-1.6.72-1.2-.07-.9.62-.25 1.62 1.06.38.08v-4.76l-.33-1.26.28-.72.07-4.05 9.58.02v-1.83l.58.01-.06-2.4-.54-.6h-4.77l-.42-.43-.1-.75h-1.3v1.19h-2.4v-.6h1.2l.01-1.2 1.8-1.79h.6l.58-.6v-1.2l1.17-.65.02-.56 1.18-.59.6-.6.02-1.83 4.2.03h12l.02 9.59 5.73-.02 1.17.17 7.45.16.13 6.13-.13 5.46.03 2.73-14.44-.1.05 6.88-1.1.35-.07 2.9-3.61-.02-4.66-.13-1.32.02.2 2.11-.27 2.73-1.54.04-.95.56-1.09.02-4.77-.07.02-1.11-1.18.05.03-3.76h-3.6l-.03-5.91z"/>
    <path region="115" short-name="56A" long-name="State House District 56A" value="1" d="m513.91 794.72 3.2-2.73 3.94.03v4.84h1.19v3.57l1.03.29.97.03.34.9-10.7-.02z"/>
    <path region="116" short-name="67B" long-name="State House District 67B" value="1" d="m534.02 761.15 5.93-.02v-.77l1.1-.2 1.27.06.08 12.85h-1.83l-.53-.54-1.19-.62-.86-1.2-.36-1.2-.75-1.18.23-1.37-.03-1.15-.26-.63-1.1-1.22-1.44-.68-.6-.92z"/>
    <path region="117" short-name="62A" long-name="State House District 62A" value="1" d="m509.23 762.97.27-2.08 1.08-.35 1.64.16-.01 3.72h-.6l.01.89h-.85l-.05 1.2-1.51.01z"/>
    <path region="118" short-name="61A" long-name="State House District 61A" value="1" d="M504.48 760.57v-1.77l1.2-.02v-.57l2.07-.03 2.09.33.8-.51 1.05.56.6.8 1.04.63-.43.7h-.68l-1.64-.15-1.08.35-.27 2.08h-1.2v.44l-1.55-.21-.73.33-1.29.01z"/>
    <path region="119" short-name="19B" long-name="State House District 19B" value="1" d="m537.54 886.94.03 14.06-.02 14.26-13.99.03-2.38-.03-4.29.06-7.4.03-14.08.03v.03l-10.58-.17-.4.09-3.13.04-14.06-.01V901.7l.04-.5 6.28-.03 7.73.02 14.09.01V887l6.15.02 7.89-.04 14.52-.02z"/>
    <path region="120" short-name="19A" long-name="State House District 19A" value="1" d="m495.78 858.56 9.44-.04 7.35.01 5.05.04h11.18l9.4-.1 11.41.09 2.75-.01 15.04.1-.01 9.42 1.03.02.04 1.16.77.04.94.5v.68l-2.25-.03.55.42v.63l-1.1.12-.1 11.01.06 4.36-3-.05-18.36-.02-8.43.03-13.6.02-14.52.02-7.9.04-6.14-.02v14.2h-14.1l-7.72-.03-6.28.03-.04.5v13.66l-14.15.01-.01-4.11.04-24.18 6.44-.04 6.67.03 15.27-.04V868.1l.06-9.51z"/>
    <path region="121" short-name="52A" long-name="State House District 52A" value="1" d="m519.77 777.82 6.12.01-.17.9-2 3.77-1 1.6-.06 1.04-.4.57-1.17.74-1.72 3.21h3.56l-1.14 1.28-.62.26-.12.82-3.94-.03-3.2 2.73v-4.59l-1.2.6.01-1.1-1.01.07-.93.5-.8.69-.81.08-.17-2.95 1.08-1.03.98-.08 2.4-.76.46-.63 1-.8.52-.73.88-.74.98-.52-.24-1.03 1.13-.21.43-.64.51-1.44.6-.96z"/>
    <path region="122" short-name="13B" long-name="State House District 13B" value="1" d="m365.97 626.1 7.36-.16 13.78.03 7.1-.01-.13 1.25.95.79-.22 1.41.8 2.05 1.41 1.2 1.2.82 2.6.68.09.77-1.2 1.06.14.87.4.6 1.18.91.56 2.29.25 1.55.6.27 1.45-.63-.07.95-1.1.43-.3.58.01 2.71-.68.84 8.17.02.05 4.8 1.3.02.02.76.58-.02v1.13l-.53.7-.27 1.23h-.36v1.83l-.67.02.07 1.7-.86-.45-1.85-.01.29.58-1.47-.08-.38-2-1.22.02-.25-.44-1.15.46-5.54-.1-.87-.65-1.43.02-.2.62-6.4-.02-5.64.05-2.83-.05-.04-8.46.01-6.07-9.52.1h-4.94l-.08-2.96z"/>
    <path region="123" short-name="67A" long-name="State House District 67A" value="1" d="M534.02 760.74v-.8h1.18l-.02-3.59h7.14v3.87l-1.28-.07-1.08.21v.77l-5.94.02z"/>
    <path region="124" short-name="20A" long-name="State House District 20A" value="1" d="m574.25 802.26 2.2 2.07 1.43 1.2 1.69 1.92 2.55 3.08 1.04.88 2.77 1.48 1.21 1.65.23 1.6-.32.94.13 1.4.8.54 1.53-.06 1.29 1 .2.7.84.14.52-.69.9.25 1 1.41 1.3 2.27-.2 1.56.18.43 1.1.29 1.54-1.04 1.05-.26 1.12.8 1.75.7 1.5-.37 2.58.9 2.13 1.56.4.08 1.27-.99 1.33-.25 1.85.34 1.2.1 2.42-.25 2.42.34 1.34.51.83.51 1.06.98.44.65.63 2 .85 1.47.13.55.02 2.65 1.32 2.43 1.66 1.94 1.67 1.4 1.57.91.49.44 1.45 1.87 2.02 1.14 2.32.77 3.85 1.07 2.67.42 1.76.42 1.57 1.34 2.8.83 1 .65 1.99.12.94.45.85 1.15.95.92 2.2 1.23 1.26.26 2.49 1.72 1.02.12.97.42-4.53-.04v2.3l-7.03.1-.02 11.75-7.64-.1-16.7-.05-6.55-.1-9.82-.09-.44-.58v-1.18h-1.15l-.26.73.08 1.08-10.25-.06-3.6.02.04-14.22-14.06-.12-9.44-.05-4.55-.06-15.04-.1.04-3.61v-10.52l-.03-8.4.02-5.76.59-.06.03-14.2 21.24.1-.05-8.3z"/>
    <path region="125" short-name="5A" long-name="State House District 5A" value="1" d="m216.16 422.22 15.1.1 7.5-.01 5.16.07 1.97-.05 13.71-.12 14.75-.04-.07-7.93-.02-7 .04-2.59-.06-7.47.06-4.92 14.98-.12 3.24.05 1.92-.11 9.26.01-.03-14.92 8.1-.06 7.77.1 8.9.18 17.53.25.02 12.4-.05 1.7.45.83 1.01.37.96.82.07 6.22-.06 7.43-.03 9.9.05 4.97 14.16-.37.98-.07 15.02-.1-.16 9.71-.04 8.29.04.15-.05 11.65 7.55.06-.09 2.91-.01 7.97-.22 3.98-.04 7.43.07 7.4 1.69.06.13 17.38.23 20.92-.03 6.18-4.92.03-2.63-.08h-6.95l-6.33.06-1.39.1v-14.95l-.11-9.84-.03-4.9-7.38.06h-9.33l-8.18.03-5.54-.14-12.3.15-9.1-.01-7.9.04-.03-4.93v-9.9h-5.13v-1.88l-2.26-.1-1.46.1.04 1.89h-6.74l-.08-9.96.04-5-7.4.09-2.45.15-4.97-.08h-7.07l-1.27.07-8.61.07-1.07-.15-5.13-.13-3.69.09-2.65.19-9.82.06h-9.66l-10-.16-.1-9.02h.62l-.05-.9-.57.01-.05-3.85.03-5.61.21-10.43v-11.83z"/>
    <path region="126" short-name="65B" long-name="State House District 65B" value="1" d="m528.1 765.92 1.7-1.2.92-.9-.36-.39.16-1.1 1.05-.03.7-.3.2-1.47.69.3.86-.1v.42l-.33 1.21.59.92 1.45.68 1.09 1.22.26.63.03 1.15-.23 1.37h-1.61v1.18h-1.2l.01 1.18-1.15.31-1.24-.31-1.15-.01v-2.4l-2.67.02 1.3-.7-.15-.63.33-1.06z"/>
    <path region="127" short-name="50B" long-name="State House District 50B" value="1" d="m496.25 788.25.08-1.57-.06-5.2.02-3.67.9.34.53-.33h2.95l-.19 1.35 1.47.34 4.86.02v5.37l-.59.71-.64.28-.01 1.37h-.9l-.15.97-.39.33.25.95-.75.76-.9-.33-.57-.47-.88.97-1.23-.57-1.36.61-.32-.1-.45-1.9-.32-.2-1.03.24-.29-.22z"/>
    <path region="128" short-name="60B" long-name="State House District 60B" value="1" d="m512.9 760.69.43-.7.77-1.09-.58-.51.43-.7-.57-.55.36-.65 1.6-.06.03.6 3.27-.03-.02 4.64-1.19-1.03-.77-.12-.68.4-1.55-.01-.98-.24z"/>
    <path region="129" short-name="47B" long-name="State House District 47B" value="1" d="M545.32 773.06h3.72l.42-.38v-1.86l1.04-1.73.13-.84 3.57.01-.22-1.45.2-1.51.03-1.87h4.76l.03 14.4h-14.22v-4.2l.76.65.43.01v-.97z"/>
    <path region="130" short-name="53B" long-name="State House District 53B" value="1" d="m536.88 768.33.75 1.19.36 1.19.86 1.2 1.19.62.53.55h1.83l2.91-.02.66.26v.97l-.43-.01-.77-.66.01 4.2v2.25l2.76 3.09.94.66 2.08 1.7-.2.85-.96-.28h-2.35l-.1 1.8h-.7l-.87-.78-.58-1.69v2.48h.74l-.73 1.77h-1.18l.01-.6-1.77-.02.01.62-1.47.07.12-.75.57-1.38 1.26-2.02-.83-3.71-.65-.15-.81.18-.01-.73-.8-.03-.4-.43v-1.21l-.9-.37.4-1.9h-2.48l-.08-2.67-.52-.3-.01-4.76v-1.19z"/>
    <path region="131" short-name="16B" long-name="State House District 16B" value="1" d="m336.78 686.5-.02 14.45-.05 14.46h.7l.02 9.41.05 4.8-.02 14.43H323.1l-14.27-.1.02 1.53-.1 8.1-.06 12.1v7.23l-2.4.03-11.04.01-6.8.04H280l-.02-7.17.04-7.2.17-14.41v-9.61l.05-4.81v-13.77l-.02-.54-1-.01.03-7.14-.04-4.86v-16.94l14.43.04 14.38.04 14.32-.12z"/>
    <path region="132" short-name="18B" long-name="State House District 18B" value="1" d="m422.12 893.88.73-.52.95.35.9-.4-.16-.45 1.35-1.45 2.16-3.12 1.14.42 1.01 1.4.41.2 2.5.33 1.49.07 1.03.32 3.4.13.86.05.2-1.15h1.27l-.01 2.63-.59-.1-.1 2.33-.48-.74-1.18-.01.02 2.35-1.18.01-.99-.24-1.95-.95-3.54.02.02 1.18h-2.92l-.03 1.18-1.18.01v1.18l-3.46.05-.18-.99-.8-.2-.68-.72-.92.46-.55.01.65-.72-.04-1.07-.32-.5 1.16-.4z"/>
    <path region="133" short-name="23B" long-name="State House District 23B" value="1" d="M537.6 929.42v10.61l-.06 3.54 13.01-.02 6.46-.03 22.22.03.01 2.39 14.01-.04-.03 14.16.01 5.73.78-.2.42.35-.01 1.18-1 .03-.2.27.06 13.75.05 12.67v6.03l-12.13.01-13.43.03-16.63.03-9.15.03-3-.02-18.19.03-11.68.02.04-10.46 1.44-.03.45.54.4-.56-.04-1.73-1.1-.57.02-1.14-1.18.02.01-4.54-.06-7.2.02-2.36 14.03-.13-.05-16.47v-11.78h.42l-.01-14.14z"/>
  </g>
</svg>