<svg title="Montana 2022 State Senate" viewBox="0 0 1000 564.06" auto-border-stroke-width="1" auto-border-stroke-width-limit=".5" original-source='["https://www2.census.gov/geo/tiger/GENZ2022/shp/cb_2022_us_sldl_500k.zip"]' candidates="[{&quot;id&quot;:&quot;0&quot;, &quot;name&quot;:&quot;Democrats&quot;, &quot;margins&quot;: [{ &quot;color&quot;: &quot;#1C408C&quot; }, { &quot;color&quot;: &quot;#577CCC&quot; }, { &quot;color&quot;: &quot;#8AAFFF&quot; }, { &quot;color&quot;: &quot;#949BB3&quot; }]},{&quot;id&quot;:&quot;1&quot;, &quot;name&quot;:&quot;Republicans&quot;, &quot;margins&quot;: [{ &quot;color&quot;: &quot;#BF1D29&quot; }, { &quot;color&quot;: &quot;#FF5865&quot; }, { &quot;color&quot;: &quot;#FF8B98&quot; }, { &quot;color&quot;: &quot;#CF8980&quot; }]}]" version="1.1" xmlns="http://www.w3.org/2000/svg">
  <g regions transform="translate(0 -217.97)">
    <path region="0" short-name="6" long-name="State Senate District 6" value="1" d="m133.76 317.54 2-.04.2-.3.66-.1.66.37H140l-.1.9-.03 2.47 1.57 1.1 2.68 3.2.3-.47 1.35.02v-1.82l.9.01-.01-1.83.45.09.26.76.77-.26.45 1.2.37.38.67.13.34.66-.37.64h-.6l.01.7.69.15 3.05-1.46.11-.31-.36-.5.11-.4 1.47.47.23.32-.02.66.6.49h.6l.76-.3.18-.3-.15-1.08.61.1.12 1.44.45.01.07-.64.38-.45.82.1.24.86-.48.83-.16.84-.03 1.45.15.62.5.51 1.56.72-.02 1.17.6.22-.07 1.24.3 1.17-.61.71-.35 1.37-.57 1.09-.16.62 1.15 2.17.68 9.24h5.96l.5 1.74-.07 1.16.65.1.54-.22.75.25.85-.32.7-.09.43.16.94-.13.64-.28.32-.4.86-.11.09.86.51.82.02.45.96.86-.25.28.19 1.2.42.67.12.24-.2 2.44.58.1-.15 1.39-.71.31-.67-.13-.62 1.3.16 1-.57.56.05.54.38.85 1.2-.02.66.62-.06 1.26.21 1.24.36.85-.21.25.1.88-.47 1.32-.41.6.34.3.58 1.39-.31 1.41-1.6.1-.7-.14-.48.54.33.78-.24.99-.75.5-.34 1.5.39.59.1 1.15 1.13.47-.09 2-.4-.26.01-.54-.27-.6-.63-.28-.52-.47-1.18-.15-.4-.27-.9-.2-1.12-.06-.44.23-1.24.26-.51.7-.1.43-.78.96-5.37-.03.12 1.1.63.33.31.65-.07.47-.5 1-.02 2.52-2.55-.03-.05-.66-.3-.45-3.35-.02v-1.17l.22-.75-.77-.16-.28-.56-.59-.37-.48.36-1.08.48-.35-.08-.54-1.17-.61-.14-1.03-.55-.51.19-.54 1.07-.18.65.25.4-.84.73-.72-.02-.38.3-1.45.14-.7-.04-1.28.4-.82.11-.85.8-.2 1.03-.2.36-.68.24-.33 1.1.6.88.82-.1-.28.86.3.86-7 .02-12.43.03-.04-8.5-.02-9.39h-1.7l.03-5.39h10.6l-.02-10.6-1.22-.01v-10.76h10.33l-.3-.38-.43-1.35-.5-.59.72-.5 1.22.29-.54-1.67.4-.46-.4-.49-.07-1.14.36-.1.46-.73.24-1.29.26-.76h-.46l-.12-7.18-2.87.04v-.61l-1.04-.53-.13-.4-1.7-.17h-1.23l-1 .37-.68-.55.28-.6.28-1.35-.42-.95.07-.46.98-1.32h-1l-.13-1.58.05-1.98 1.84-1.69.01-.56-.42-.6z"/>
    <path region="1" short-name="36" long-name="State Senate District 36" value="1" d="m210.92 595.37 1.23-.24.48.56.56 1.74.18.92.79 1.3.53.63.3.9-.07.52.95 1.23-.25.5.44.36.26.63.58.47.25.45.26 1.27-.17.65.56.44.34.61-.15.8.24.18.07.98-.64.86.37.79.88 1.45.96.64.38.8.36.27.2.68 1.04.73.65.3 1.1.15.2-.38-.25-1.13.62-.88.3-.7.05-1.19.25-.38.2-.86.51-.25.44-.78 1.05.28.17.35.57-.03.51.22.85-1.46.5-.33.44.53.95-.13 1.02-1.06.3-.73.8-.8-.42-.7.45-.71.9-.23.52-.72.3-.84.54-.55 1.16-.64.96.22.66-.38.77-.87 1.02.1.78-.13 1.51.37.95-.14 2.36.2.63.63.55.99-.01.74.29.04.6-.42 1.23-.55.67.32.58-.22.89.07.92-.37.37-.87.5-.63 1.43-.95.53.2.54-.27.1-.56 1.43-1-.24-.43.21-1.1.45-.52.85-.24.7.12 1.07-.41.12-.71.27-.1-.11-1.04-.27-.34-.33-1.16.04-.96-.53-.64.22-.47-.22-.5.11-.58-.4-.66.24-.74.97-.64.45-.71.81.36.89.2 1.01-.18.47.36 1.33-1.5-.28-.71.21-.27-.12-1.13.56-1.04.43-.13.45-1.26 6.25.02.02-2.3 3.02 2.95 1.13 2.26 1.19 1.33.68.36 1.77.03 2.24.32 2.02-.17-.44.12-1.19 1.2-.3 1.04v1.89l-.91 2.98-.48 2.27-.04.88.36 1.76.02.73-.34 1.18-.05.99 1.09.25.13-.43.55-.61 1.19-.3.29-.53h1.07l.85-.3.21-.29.02-.93.65-.08.57.5 1.87-.8.17.59 1.18-.01.36.6 1.33-.15.52-1.15 1.45-.87.25-.4.01-1.93.18.13 2.24 2.43.82 1.03.48-.15.12-.67 1.2.12.62-.13 1.7-.11.25-.43.69.38 1.66.29 2.28.24.87.38 1.56-.12.4.5.59-.27 1.56-.14 1.35-.47 1.3.25 1.47.72 2.82.66 3.23.95.07 1.3 3.26.4 1 .2 1.14.76.41.06.02.52 1.32.08.43-.36 1.62.2 2.33-.53.37-.03 2.65-.62 2.2.45.45.57-.52.81.56.22.53.8.84.3.34-.57.53-.14.29.44.71-.2-.2-1.07-.37-.25-.3-.58 1.26-.62.95-.78 1.15.02.64.74.33.05.68-.4.58-.08 1.08-1 1.28-.72 2.1-.65 2.7-1.2 3.06-.66 2.2-.02 1.52-.5.76-.15 2.18.1 1.04-.07.03 5.44v4.89l-.1.58-.63.5-1 .34-.31.7-.48.18-.1.7-.52.94-.65.57-1.79.27-.43-.52h-.5l-.6-.45-.87-.31-.66.51-.82.15-1.22.74-.44-.32-.68-.02-.3 1.02h3.5v1.7l3.45.02.01 3.47 1.7.03 3.46-.04v1.74h1.67v1.73h1.72v1.72l1.73-.01v1.77l1.71-.02v1.73l1.73-.03v1.74l1.72-.05v1.73l15.4.04.03 17.13-.02 7.03h.08l.02 10.46h-1.91l-.02 12.38.05 10.49v18.57h.03v10.34H389l.03 18.86-.66-.44-.61.3-.41.65.24.24-.4 1.23.19.75-.06.45-.5.32-.88 1.24-.9-.46-.55-.7-.92.05-.3.3-1.65.5-1.1.77-.5-.11-.28.25-.1.6.61 1.1-.19.41.67.7.67.26-.24.52-.4.15.05.5.3.3-.52.59-.3.7-.45.25-.64 1.1-.42-.53-.34.5-.31-.12-.67.18.56 1.22.58.8-1.12.75-.78 1.77.5.4-.4.39.12.96.27.18.13.77.9.63.47.5-.72.86.22.36 1.28.14.88.57 1-.18.2 1.23.28.63-.5.18-.84-.24-.34.15-1.4.04-.67.5-.55-.1-.26-.76-.43-.5-1.07-.32-.63-.39-.25-.38-.68.24-.64-.01-.16-.28-1.28-.25-.53-.34-1.21 1-.97.62-1.67-.52-.33.08-1.3-.27-.58.26-.33-.33-.86-.15-.96-.48-.5.5-1.09-.36-.43 1.1-.52.8-.98-.07-.82.1-.76.28-1.07.9-.2.73-.92-.39-.41.59-.66.17-.82-.35-.79.34-.28.62.18.27-.45.55-.84.28-.78-.92.08-.3-1.03-.79-.58-1.6-.58-.7-.08-.37-.53-.27-.11-.67-.46-.75-.75.36-.86-.5-.82.84-1.41.14-.23-.13-1.3-.07-.52.22-.65-.02-.18.75-.85.1-.44.5-.42.84-.48.2-2.33-.3-.46-.55-.46.14-.84-.46-.51-.09-.2.46.22 1.63-.53-.47-.33.06-1-.47-1.23-.07-.45.39-.5-.03-1.03.44-.25.8-.44.27-.58-.34-1.47-.59-.24-.83-.66-.45-.67.05-.32.3-1.31-.55-1.08.74-.53.25-.83-.45-2.31-.78-.65-.7.18-.93-.3-.3.13-.47-1.12-.47-.67.05-.5-.42-.78.64h-.78l-.87-.33-.45.4-.11.41-.45.32-.51-.02-.71.66-.18.4v.95l-.35.33-1.95.16-.51-.11-.45.36-.4.79.19.5-.13.55.14 3.12-.16.86-.5.74-.18 1.44-.28.16-.7 1.17-.66.92-1.03-.63-.32-.36-.56-.1-.6.45-.54-.16-.38.13-.58-.26-.03-.63-.58-.58-.5-.21-.62.15-.02-.52-.4-.47-.34.02-.8-.5-.92.98-.5.06-.5.33-.26.53-.94-.48-.16-.89-1.77-.42-.59-.64-.63-.08-.8.2h-.9l-.62.27-.64-.08-1.42-1.12-1.45.43-.77.5-.09-.65-.28-.32-1.86.46-.68.1-.7-.6-1.16-.22-.23-.57-.78-.2-.82-.37-.94-.15-1.23.53-.45 1.02-.4.33-.4-.21-1.21.32-.73.43-.64-.12-.47.65-.33.76-.64.66-.03.58-.85 1.03-.41-.16-.46.87-.64.35-.2.43.06.86-.98 1.07.3.21 1.15 1.7.17.84.73.15-.33.49.26.8-.18.48.08.82-.6.67-.8.63-1 .54-.27.34-.82-.23-.7-1.1-.82-.35-.28-.6-.4-.24-.33-2 .07-.62-.55-.4-.53.6-.42.15-1.16-.6-.17-.55-.6-.18-.4-.33-.75.1-.96-.58-.15-.84-.94.1-1.26-1.14-1.1-1.4-.78-.5-.26-.45-.3-1.42.17-.67-1.11-1.4-.54-1.47.78-.9.13-1.43.84-.46-.2-.83-.45-.11-1.02-1.15-.45.12-.58-.28-.53-.47-.3-.57.23-.9.69-.51-.08-.55-2.45-1.64.37-.86-.93-.88-1.14-.65.73-1 .35-.7.87-.48.59-.05.3-.4.3-.83-.13-.92-1.18-1.44.1-.48-.31-.57-.13-1.27.2-.56-.04-.58-.7-.21-.43-.32.12-.65-.28-.38-.89-.37-.61-1.28-.02-1.18.15-.17-.21-.95.05-.41-.87-.46h-.44l.08-.72-.42-.9-1.07-.6-.28-.93.52-.6-.03-.91-.74-.43-1.56-.5-.33.25-1.35-.98-.32-.75-.57-.73-1.13-.51-.44-.58-1.05-.19-.84-.43-.49.06-.73-1.04-1.05.4-.36.34-1.38.5-.44.46-1.17.65-.13.37-1.55.6-.83.68-.88.44-1.08-.7-.12-.54.7-.6-.83-2.26-.97-.62-.7-.62-.09-.52-.6-.32-.83.07-1.26-.45-1.01.38-.07-.6-.53-1.36-.88-.15-.36-.74-.95-.43-.1-.8-.52-1.13.11-.57-.48-.47-.92-.53.3-1.22.2-.45-.39-.27-.66-.98-.58-.53-.29-.8-.27-1.21.16-.66.73.04.57-.4.7.25.6.04.4-.52h.68l.45-.37.24-.56-.46-1.16.36-.3-.14-1.69.14-.6-.1-.85.7-.95-.43-.9-.47-.67.2-1.5-.79-.8.5-.63-.19-1.6-.64-.65-.44.21-.84.12-.85-.2-.28-1 .13-.31-.73-.73-.51-.05-1-.42-.71-.93.91-.85.48-1.1-.61-.9-.58.22-.79-.17-.76.49-.94-.1-.36-.66-1.28-.66-.57-.85.82-1.46.11-.57-1.2.04-.33-.64-.57-.25-.02-.7-.28-.58.39-1.28-.2-.78-.44-.27-.2-.62-.47-.12-.44-.54-.32-.1-.33-.54-1.55-1.2v-.46l-.88-1.17-.13-.87-.72-.87-1.18-.87-.55-.1-.55-.66-.6-.98.12-1.11.62-.01.35-.31-.13-.45-.64-.87-1-.69-.27-.79-.52-.22-.72-1.75-.87-.55-.74-.94-.18-1.85.48-.54v-.54l.4-.3-.31-.88-.46-.6.47-.55-.08-.58.14-1.03-.16-.7-.79-.51-.43-.74h-.3l-.69-.43-1.1-.01-.15-.23-.06-1 1.04-.63.34-.62-.4-.43-.72-.07-.27-.4.17-1.44-.73-.57v-.44l.74-.87-.14-.88.69-.42.67-.8-.03-.71-.25-.57-.19-1.14-.44-.8-.14-.77.5-.79-.94-.28-.3.17-1.78-.16-.52.4-.99-.37-1.09.29.48-1.4-.1-.57.62-1.18.39-1.63-.29-.64.47-.4.75-1.05.76-.46-.1-.51-.51-.93-.25-1.01-.43-.45-.46-.16-.4-.5-.5-.06-.42.29-.75-.27-.47-.92-1.05-.41-2.04.73-.63-.36-.86-.13.3-.8-.18-1.13.58-.67-.7-.93-.75-.3-.57-.5-.15-.78-.65-.7-.17-.87-.26-.55.02-1.12-.35-.45 1.33-1.02.77.59.54-.61-.25-1.33.54-.74-.53-.62.42-.51-.46-1.3-.39-.28.27-.9.41-.4.61-.97.26-.62 1.02-.65.49-.12.63-.8.65.3.63.7.16.95.4.97-.1.54 1.6.23.25-.32.96-.22.45-.6.49-.34.35-1.16.36-.09.72-.58-.42-.6-.12-.52.14-.52 1.13.02.83-1.02.35-.26.46.1.7-.64.52-.94.79-.17.43-.36v-.7l.44-.43.72-.2.24-.92.55.01.33-.54.36-.1.98.6 1.16-.17.34.55.47-.07.63-.52.76.22.32-.2 1.6-.13.96-1.1.6-.13.65.08.38-1.44 1-1.19.53.14.68-.14.45-.4.84.1 1.42-.36-.01-1.67-.34-.18-.06-.9.18-.56v-.85l.48-.75.05-.47.45-.84.65-.67z"/>
    <path region="2" short-name="38" long-name="State Senate District 38" value="1" d="m295.65 546.91.66-.03.41.28 1.01-.1.74 1.44h.88l.38-.63-.2-1.11.05-.8.36-.23.9.1.4-.55.45-.23-.2-.89.2-.5.94-.3-.24-.62.82-.6.33-.6 1.51.4.96-.46 1.53.36.47-.12.48-.78.63-1.51.69-.47 1.81-1.8.28.33.62-.24.74.03.1.39.6-.09.72.53.44-.36.85-.38.25-.28.73.11 1.07-1 .33-.07.47-.58.42-1.72.6.21.78-.39.96.13.9-.67.04-.43-.33-1.34-.6-.7-.8-.02-.55-.36.22-.7-.43-1.7.5.19.36-.25.97-.1.53-.52 2-.7.9-.87.88-.2.93.64.47-.35.3.2h1.58l.65-.09.91-.49.23-.39.65.03.5-.69 1.1-.53.87-1.13.32-.93.03-.84-.34-.87.36-.46h.81l2.59-.05 6.07-.03 1.82.02 6.33-.03h2.47v10.14h.14v21.2l-.02 20.93h.17l.02 6.87-.03 3.5 10.34.08v15.5l-1.04.08-2.18-.1-.76.14-1.52.5-2.2.02-3.06.65-2.7 1.21-2.1.65-1.28.72-1.08 1-.58.08-.68.4-.33-.05-.64-.74-1.15-.02-.95.78-1.27.61.3.59.38.26.2 1.05-.71.2-.29-.43-.53.14-.34.56-.84-.3-.53-.8-.56-.2.52-.82-.44-.57-2.21-.45-2.65.62-.37.03-2.33.53-1.62-.2-.43.36-1.32-.08-.02-.52-.4-.06-1.16-.76-1-.2-3.25-.4-.07-1.3-3.23-.95-2.82-.66-1.48-.72-1.29-.25-1.35.47-1.56.14-.6.27-.39-.5-1.56.12-.87-.38-2.28-.24-1.66-.29-.69-.38-.26.43-1.7.1-.6.14-1.21-.12-.12.67-.48.15-.82-1.03-2.24-2.43-.18-.13-.01-5.84h.46l.05-1.66h.88l.2.38h1.67l.59-.84.13-3.42-.2-.56-.8.07v-1.06l-.38-.46.52-.6-.02-.54.43-.77.33-.97-.75-.81.37-1.23-.43-.56-.83-.38-.66-.81-.96-.59-.23-.41.16-.67-1.06-.44.08-.4-.55-1.1.51-1.3.12-1.16-.37-.97.99-2.1-.82-.17-.94-.02-.4.58-1.18.61-.62-.53-.32.45-1.24-.14-.47-.26.04-.64-.19-1.15-.27-.58.33-.4.38-1.18-.47-1.08-1.26-.86.14-.52-.4-.32.13-.41.78-.11.57-.3.6-.73.41-1 .57-.6.22-.79.04-1.22-.38-1.28-.85-1 .2-1 1.14-.3.43-.8.61-.61.09-.46.76-.95.08-.51.6.54.58.04.45-.29.76.3z"/>
    <path region="3" short-name="47" long-name="State Senate District 47" value="1" d="m141.45 393.14-.3-.86.28-.87-.83.1-.59-.86.33-1.1.68-.25.2-.36.2-1.04.85-.79.82-.12 1.28-.4.7.05 1.45-.14.38-.3.72.02.84-.73-.25-.4.18-.65.54-1.07.5-.2 1.04.56.61.14.54 1.17.35.08 1.08-.48.48-.36.6.37.27.56.77.16-.22.75v1.17l3.35.02.3.45.05.66 2.55.03.02-2.52.5-1 .07-.47-.3-.65-.64-.33-.12-1.1 5.37.03.78-.96.1-.44.54.88.92.08 1.62-.45.38.44-.68.58-.04.96-.2.7.06 1.22-1 .51v.33l-.71.7-.52-.07-.24.87h-.57l-.04 3.58h-6.18V394l.1.02-.1 3.13h1.33l.02.73.43.73v2.36l.4.66.94.66-.17.68-.57.19-.14 1v4.19l3.08-.02.48.31v4.17h-.9v.9l1 .17-.1.3v5.77h1.77v1.77l1.24.02-.1 1.78.47.65.16 1.13-.05 1.66-.23.12-6.83-.02-.29.45-1.78 1.77.17.2 1.42-.64h.9l1.5.85.95.33.68.59v3.54l2.28.02 1.95-.1.48.1 5.43.01h9.01v-.7l.38.3.67-.27.47.07 1.13-.41.43-.6.58-.51h.4l.7.47.7-.21.33-.63.4.2.5.65.9-.07.36.18.04.92-.61.76.41.73.3 1.5-.24.35.35.56-1.23 1.1-.22.74.5.54.68.16.54.9.76.06.55.37.44-.03.57.36-.45 1.81.21.9-.42.48-1.45.71-.55.46.12.7.67.77.35.75.14.72.61.21.36.42.82.34.5-.03 1.01 1.18.03.41.5.44-.08.29-1.26.98-.82-.36-.56.08-1.97-.38-.9.2.1 1.12.55 1.07.1.88-.45.7.73.53.78-.03.14.88.57.43.15.76.61.36.14.48.41.27v1.08h-3.84l-9-.07-.14.52-1.1.71.49 1.22.53 1 .24 1.42-7.96-.16.09-4.84-3.68-.05-.2 13.8.33.42.85.49.39.7-.47.42.18.38-.38.42-1.32-.12-.02 1.76h-.88v.8l-.24.4.42.51.22.66-.24.35-1.9-1.4-.7.23-.32-.6-.73.15.03-1.77.4-.97-.52-.33-1.9-.6-2.72-1.95-1.07-.34-.99-.71.2-.37.65-.31-.52-1.25-.04-.37-2.37-.1-.47.27-1.09-.92-.74-1.19-1.75-2.05-.63-.48-.83-.85-.78.27-.3-.59-.7.03-3.75-1.2.27-.58-1.5-.1-.06-.28-1.38-.23.03-.5-1.03-.02-.52-.41-.89-.04-.77.28-1.1 1.53-.49.43-.46.05-.78-.33-.02-.35-.54-.58-.36-.01.47-.32-.4-1.66-.4-.55.05-.84-.1-1.12.66.25 1.25-.2.8.12 1.05.63.53-.27.92-.07-.01-.51.82-.94.67-.31-.32-.88 1.63.65.27-.72 1.5-.83-.13-.7.26-.18-.15-.69-.4-.67.38-1.47.68-.11 1.57.22.9-.83.63-.84 1 .25.98.57.49-.38.5-.78.48-.19.6.07.01-5.35h-1.34v-12.06l.01-9.28-.52-.02h-6.6l-.37-.4-1.02-.41-1.68.75-.23-.46.34-.6-.43-1.05-.7-.42-.49-.78-.8-.8.14-.71.7-1.5.2-1.86-.16-1.66.16-.51.8-.65.37-.74.04-1.89.47-.23.58.2.73.65.92-.03.8-.75.12-.41-.18-.82-.94-2-.86-.3-.91.23-.97-.1-.25.13-1.53-.2-1.04.7-.62 1.22-.33.13-.7-.2.12-1.15.66-.87.27-1.28.49-1.53-.28-1.57.41-.94.41-.3 1.08-.38.66-.45.49-.55.28-.95-.26-.62-.7-.23-.16-1.6.12-.33.98-.34.62-.56-.15-.45-.68-.3-.68.52-.3.6-.35-.4z"/>
    <path region="4" short-name="40" long-name="State Senate District 40" value="1" d="m215.05 393.4 11.71-.02v.57h15.11l.18.3.95.67.31 1.45.78.67-.03 1.23-.55.32.18 1.58-.27.41.34 2.19.28.43-.4.6.55.91.14.9-.3.28.32 1.03.48.16.47.58.43.06.53.4.35-.42.59-.18.98.44.48-.03.3-.79.02 37.97h.8v.3l21.12.01-.03 26.22.03 2.82 1.25-.34 1.84.7.33-.23.2-.6-.11-.69-.37-.48.46-.51 3.04-.92 2-.92.63-.18 3.32-.1 5.43.52 1.38-.45.95-.63 2.07-1.02 2.12-1.8 1.22-.79 2.33-2.34.95-.7.59-.82.84-.66 1.29-.02 1.2.36 1.15-.33.45-.62.54-1.26.06-.94.24-.98.47-.47.85.13.8 1.56.72.24.9.54.08.91.5 1.3.48.47-.32.68-.01 1.08.43.7.7.18.37-.23.54.13.4.39 1.14.5.85.9 2.56 2.03.46.78.4-.02.81.86.96.16.75.37 1.3.36 1.05.9.43.11 1.17 1.2 1.16.5.42.5.67-.95.45-.2.38-.6.6-.33.43-.47.19-.7.87-.97.04-.8.57-.85-.2-.54.1-.46-.42-.94.18-.27.64-.06.83.14.66-.57.37-.53.39-1.14 1.4-1.32.77-.36.67.19h1.25l-.03-1.15.25-.4 1.13-.62 1.04-.23.13-.56-.1-.77.4-.6.03-.79.38-.84-.05-.8.66.14.24-.32-.38-1.55.27-.28-.03-.84.85-.92h1.03l.86-.76 1.15.24.45.32v.24l1.83-.02-.04-.89 7.13-.03-.08 4.4v21.88l-.34.53-1.27.52-1.13-.45-1.83-.1-1.17-.2-.6.16-1.17-.35-1.11.48-1.48-.64-.11.64-.88 1.4-.04.4.43.79.4 1.2.68.46.29.53-.95 2.64-.64.65-.63 1.33-.55.26-.09.56-.65.62.25.64.65.76.75.47.42.55v.82l1.1.07.25.22.19 1-.17.63.15.39.75.55.18.46.41.19-.1.8.44 1.78-.7.83-.1.74.44.16.56 1.3-.38.87-1.31.67-.38.5-.47 1.43.33.2.04.64-.2.42-.64.02v3.98l-1.78.06v.85l-1.3.09-.03.46-1.96.85-.28-.85-.46-.7.5-.44.34-.78-.15-.44.08-.84-3 .02-.03-5.33-4.33.02.25 1.12.64 1.18.49 4.51.03 4.13-.5.5.96.4-.25 1.1v.7h-.42l-.19.42.6.59.66.24h.57l.02 1.08h1.16l-.33.46h-.81l-.36.46.34.87-.03.84-.32.93-.87 1.13-1.1.53-.5.7-.64-.04-.24.4-.91.48-.65.09h-1.57l-.31-.2-.47.35-.92-.65-.9.21-.89.87-2 .7-.53.52-.97.1-.37.25-.5-.19.44 1.7-.22.7.55.36.8.03.6.7.33 1.33-.03.43-.9.67-.97-.13-.79.4-.6-.22-.4 1.72-.48.58-.33.08-1.07 1-.73-.12-.25.28-.85.38-.44.36-.72-.53-.6.09-.1-.4-.74-.02-.62.24-.28-.34-1.81 1.8-.69.48-.63 1.5-.48.8-.46.11-1.54-.36-.96.45-1.51-.39-.33.6-.82.6.24.62-.95.3-.2.5.2.9-.44.22-.4.55-.9-.1-.36.22-.05.8.2 1.12-.38.62-.88.01-.74-1.45-1.01.11-.41-.28-.66.03.03-.69.4-.7-.5-.44.05-.4-.46-.83.58-.47.38-.02.3-1.24-.53-.55.07-.68-.2-.5-.73-.53-.05-.53-.5-.26-.13-.93-.64-.16.09-.92-.43-.6-1.25-.59-.62.31-.75-.4-.12-.33-.66-.01-.33.24-.3-.8-.84-.2-.9.36-.79.08-.66.33-.05.33-.82.42-1.71.16-.5.38-1.53.05-3.31-.01-.2.44-1.24-.46-.4-.45-.25-.76-.28.02-.33.63-1.14-.15-.3-.24-1.59-.06-.6-.24-1.25-.03-.83.18-.16.23-.91.31-.98.06-.7-.96-.61-.24-.12-.55-.34-.28-2.23.59-.8.3-1.54.04-.51.83-1.94.43-.98 1.18-.52.47-.32.63-.4.06-.54.73-.58.1-.77.67-.8.35-.85-.32-1.91-.33-.43-.28-.02-9.88h-.17v-7.04l-.03-23.48-.7-.14-.46.57-.74.08-1.1.78-.32.53-.82-.16-.67.1-.18.29-1.37.63-.48-.58-.46-.2-.44-.7-1.58-.57-.94.28-.43-.68-.83.35-.36-.37-.1-1.39.8-1.07-.4-.36-.13-.48-.5-.19-.45-.68-.66-.22-1.05-1.13-1.05-.5-.36.01-.24-.6-.95-1.61.16-.53-.11-.98-.62-.82-.44.06-.44-.57-.35-.01-.97 1.47-1.3.71v-3.07h-.96l-.02-15.99.03-15.72-.01-10.72-8.92.04-4.7.02v-20.5z"/>
    <path region="5" short-name="44" long-name="State Senate District 44" value="1" d="m142.93 508.38 3.88.02h9.6l1.07-.06 10.18.02 16.92-.03.39.01.4.87.02.96.36.2.06.83 1.23.95v.85l-.23.44-.6.1-.3.4.55.73.06 1.05-.2 1.31-.95-.01-.35.42-.76.48.46.63.17.63-.61 1.01-.08.6-.33.4.03.5-.36.43-.02 1.2-.28.87.22.4-.04.63-.3.82-1.35.26-.7.53-.31.62v.7l1.03.64-.16.87.42.58-.12.6.62.56.1 1.46.25.32.28.94v.85l-.54.85-.22 1.66.5.32 1.33.37.33.7.55-.17.46.34-.12.49.42.5-9.64-.04-4.65-.06-3.23.02-.6-.8-.11.8h-2.2l.03 6.55-1.53.02.25.56v.76l-.44.01v.86l-1.83-.01.08 1.47-.47.79-.84.35-.05-.85h-2.46l-.55-.05.43-2.85h-.97v-.64l-3.58.03-.72.42h-.4l.04.86h.87v.88l-.65.1-1.09-.1-.02-.89h-.43l-.04-.87-.46-.42-3.33.05h-11.14l.29-2.85-.53-1.25-.45-1.43.98-1.06.06-.4.7-.26.67-.93.69-.24.1-.95-.1-1.02.3-.76 1.05-.32-.3-.76h-.32l-.65-.45.35-1.72-.27-.66-.96-.39-.55-1.17-.01-1.19-.17-.62.07-.74.22-.24 1.4-.32.62.37.6-.39h.73l.64-.33.4-.91.36-.37-.03-.54-.5-.82.04-.52.4-.9-.28-1.35.39-.34.25-1.07.7-1.02.12-.57-.33-.22-.54-1-.3-.3.61-.46.52-.72.03-.47.61-.96-.38-.71.41-1.16v-.94l.15-.5-.2-.42.14-.66-.31-.75z"/>
    <path region="6" short-name="46" long-name="State Senate District 46" value="1" d="m185.25 433.48-.5.03-.41.32-.62-.04-.27-.65-.55-.24-.23-.72-.8-.48-.48.1-.3-.76.08-.56-.36-.7-.42-.43-.36.09-.9-.23-.23-.48 1.17-.63-.03-1.34.42-1.15-.26-.36-.34-1.67.26-1.68.84-.29.06-.66.37-1.02-.03-.9-.28-.19-.36-.9-.6-.76-.45-1.2.18-.84-.13-.99-.34-.25-.09-.6-.4-.39-.24-.72-.83-.24-.5-.52-1.07-.47.12-.28-.17-.89-.52-.54-.45-.05-.54-.5.7-.46.28-1-.25-.62 1-.92.32.27 1.03-.37.22-1.27-.26-.5-1.08-.63.33-1.24.03-.7-.53-.45.63-.62.22-.55-.12-1.04-.27-.3v-.64l-.63-1.18.26-1.4-.15-.45.2-.46-.19-.59-1.3.2-.24-.38 3.8-.03H191l10.1.03h13.96V445.15l4.7-.02 8.92-.04v10.72l-.02 15.72.02 16h-9.47l-.04 3.6-.83-.03h-4.4v7.06h-5.42v1.66l-.54.37-1.8-.5-1.34.16-.61-.18-5.53-.88-.79-.04-.65-.3-.34-.44-1.43.36.46.96-.4-.04-.96-1.3-.74-.54.29-.58-.2-.34.12-1.06-.46-.77v-1l-.75-.4-.31.2-.9-.29.1-.32-.7-.35-.42-.67-.86-.52-1.3-1.22-2.46-2.18-.7-.43h-.9l-.7-1.46-.74-.41-.44-.57-1.6-1.33-.98-.52-.76-.9-1-.41-.45-.66-.56-.4-.6.11-.3.49.13 1.15-.22.36-.97.8-1.85.25-1.1-.53-.73.03v.6h-.54l-.52-.35v-.49h.4l.32-1.1-.18-.17.24-.35-.22-.66-.42-.51.24-.4v-.8h.88l.02-1.76 1.32.12.38-.42-.18-.38.47-.41-.39-.71-.85-.49-.33-.42.2-13.8 3.68.05-.09 4.84 7.96.16-.24-1.42-.53-1-.5-1.22 1.11-.71.13-.52 9 .07h3.85v-1.08l-.4-.27-.15-.48-.6-.36-.16-.76-.57-.43-.14-.88-.78.03-.73-.53.44-.7-.09-.88-.56-1.08-.08-1.1.89-.21 1.97.37.56-.08.82.37 1.26-.98.08-.29-.5-.44-.03-.41-1.02-1.18-.5.03-.81-.34-.36-.42-.61-.2-.14-.73-.35-.75-.67-.77-.12-.7.55-.46 1.45-.7.42-.5-.2-.89.44-1.8-.57-.37-.44.03-.55-.37-.76-.05-.54-.91-.68-.16-.5-.54.22-.75 1.23-1.1-.35-.55.23-.35-.29-1.5-.41-.73.61-.76-.04-.92-.35-.18-.92.07-.49-.65-.4-.2-.33.63-.7.2-.7-.46h-.4l-.58.5-.43.6-1.13.42-.47-.07-.67.28z"/>
    <path region="7" short-name="48" long-name="State Senate District 48" value="1" d="m138.78 464.42.78.33.46-.06.5-.42 1.09-1.53.77-.28.89.04.52.4 1.03.03-.03.5 1.38.23.06.28 1.5.1-.27.58 3.74 1.2.71-.03.3.59.78-.27.83.85.63.48 1.75 2.05.74 1.19 1.1.92.46-.27 2.37.1.04.37.52 1.25-.66.31-.19.37 1 .7 1.06.35 2.73 1.95 1.89.6.51.33-.39.97-.03 1.77.73-.15.32.6.7-.23 1.9 1.4.18.18-.32 1.1h-2.73l-.14-.61h-.66l-.2-.63-1.32.64-.53-.4-.4.81-.93-.26-.45.54-.88-.04-.66-.24.25-.44.44-.04.75-.65.01-.98-1.03-.49-.4-.4-1.06-.18-.73.03-.73-.77-.2.13-1.14.02.01-.69-.54-.5-1.17.59-.63-.59-.91-.63-.41-1.19-.48-.07-.88-.79.05-.91-4.88-.03.02-4.24-.48-.25-1.13-.28-.63.02-1.1.59-.97.25-.68-.59-.27.3-1.32-.1-.82.43-.83-.26-.3-.46-.48-.05.02-3.91-.42-.29z"/>
    <path region="8" short-name="49" long-name="State Senate District 49" value="1" d="m137.86 463.48.36.01.54.58.02.35.12 1.27.4.29-.01 3.9.48.06.3.46.83.26.82-.44 1.32.11.27-.3.68.6.97-.26 1.1-.59.63-.02 1.13.28.49.25-.03 4.24 4.89.03-.06.91.89.8.47.06.4 1.2.92.62.63.59 1.17-.58.54.49-.01.7 1.13-.03.22-.13.72.78.74-.04 1.04.18.4.4 1.04.49v.98l-.76.65-.44.04-.25.44.66.24.88.05.45-.55.94.26.39-.81.53.4 1.32-.64.2.64.66-.01.14.6-.36.45.35.58v1.19l-.21.55h-.58v1.22l-1.36.01.05.79-1.26.45-.62.3-.67.84-.73 1.3-.33.93.54.82 1.25 1.5.97.27.48.53-.36 1.33.19.64.06 1.49.36.92.5.78-5.3.03v1.76l-3.53.01-.06.97-.03 5.39-1.07.06h-9.6l-3.88-.02-.43-.22-.55.05-.7-.19-.43-.62-1.67.19-.4.52-.97-.25-.81.65-.47-.2-.27.53-.94-.47-1.04.6-1.04.76-.34.03.07.89-1.2 1.23-1.17-.02-.53-.15-.88-.55-.27-.45-.61.24-1.07-.1-.6-.25-.35-.45-.8-.44-.38.6-.72.01-.64.46-.54-.3-1.13 1.22-.46-.24-.46.17-.45-.28-.45.03-.74-.39-.18-.55.39-.47-.24-.87-.54-.4-1.23-.18-.34-.8.56-.48-.73-.3.02-.82.82-.57.72-.94-.09-.46.27-1.3-.3-.68-.73-.46-.69-.84-.25-.05-.18-.97-.33-.32-.65-.12-.5-.56-.86.27v-1.28h10.47l.01-10.49-1.43.01v-15.82h1.65l-.06-3.55 1.81.02v-2.07l1.9.02 1.37 1.2.62-.1.7.14 1.58.7v-1.92h2.66l-.02-1.75h1.22z"/>
    <path region="9" short-name="8" long-name="State Senate District 8" value="1" d="m166.98 381.01.51-.7 1.24-.26.44-.22 1.11.05.92.2.39.28 1.18.15.52.47.63.28.27.6-.01.54.4.26.1-2-1.13-.48-.11-1.14-.39-.6.34-1.5.75-.5.24-.99-.33-.77.49-.54.7.15 1.59-.1.31-1.42-.58-1.39-.34-.3.41-.6.47-1.32-.1-.88.21-.25-.36-.85-.2-1.24.05-1.26-.65-.62-1.21.02-.38-.85-.05-.54.58-.56-.17-1 .62-1.3.67.13.7-.31.16-1.39-.58-.1.2-2.44-.12-.25.39-.21 1.17.33-.3 1.3 1.2-1.12.41.16.09.48-.27.63.38.18v.47l.66-.18.25-.75.52-.48.62.43-.1.9 1.62.52h1.42l-.1 1.37 1.2.18.88-.75.16-.39.52-.2.07-.4-.8-.74.45-.63-.12-.83-.72-.8-.06-1.4.31-.17.59.27.68.05 1.21-.56.54-.08.35-.38 1.97-1.2.75.23-.34-.79-.42.06-.34-.84-.9-.32-.66.51-.32-.34.15-.94-.48-.13-.33-.69-1.73-1.38-.91-.93-.65.56-.68-.3-.26.58-.77-.23-.24-.4.04-.6-.9-1.22-.15-.66-.46-.73-.22-.85.09-.54.41-.1v-.78l-.88-1.11.28-.88.5.1 1.6.94.72.67 1.49 1.82 1.16.64.87-.32 1.65-.2 1.44-1 2.84-.36 1.14-.62.75-1 .56-1.04.09-1.43.73-.86.3-.1-.56-1.9-.5-.72-.06-.7-.64-1.3-.52-.33-.56-.65-.41-.07-.95-1.01.23-1.16-.66-.47-.5-1.1-.63-.86-1.8-.8-1.33-1.43.07-.5.99-1.4-.2-2.17-.6-.95-.28-.7-.72-.56-.62-1.46v-.3l-1.29-2.3-.77-.7-.97-.18-1-1.52-.96-.6-.76-.87-.84-.34-1.7-.97-1.23-.8-.5-.6-1.05.05-.9.42-.41-.46-.12-.65-.64-1.83.05-.34 1.1-1.38 1.03-.76 1.3-.12 1.51-1.54.81-.27 1.6.02.46-.1.36-.93.91-.43.7-.87 1.01-.39 1.11-.88h1.77l-.01 3.47h2.43v4.65h2.12v2.54h4.87l-.03 9.44 29.09-.04h5.22l.01-4.69-.61.08-.51-.5-.71-.25.1-.55-.37-.57-.43-1.26-1.09-.36-.96-.06-.6-.43.02-.5-.35-.38-1.18-.62v-1l-.57-.67-.88-.38-.14-.36-.6-.2.04-.86-.38-.64-.72-.7.94-.83.45-.7.57-.23 1-.78 1.02-1.2.43-1.32.09-.71-1.13-.81-.38-1.49.22-.86-.63-1.4-.94.1-.84.37-.35.4-.66.08-2-.57-.93-1.22-1.19-.52-.56-.91-.5-.48-.85.1-.56-.38-.36-.5-.5-.13-.15-.82.31-.4.28-.88.6-.59-.44-1.64.48-1.33-.64-.83.12-1.6-.04-.94.34-.66-.1-.71.2-1.47-.5-.62-.9-.18-.67.2-.81-.72-.69-.22-.55-1.65-.5-.13-1.38-.85-.63-.51-.95.12-1.13.61-.52-.66-.68.08-.36.65-.81.43-.72-.25-.41-.44-.3-1.02-1.21-1.29-.75-.22-.93 1.22-.93.66-1.35-.98-.45-.1-.7.2-1.2-.26-.99-.74-.38.06-.84-1.11-.2.02-1.12-.7-.3-.53.54-.7.07-.92.38-.53-.38-.5.1-1.67.34-.35.2-.95 1.1-1.05-.47-.47-.54-1.18-.22-1.06 1.73-.25.82-1.17.58-1.98-.56-.53.21-.85-.64-1.49-1.05-.33-.98-.96-.36-1.19.07-.38-.9-.45-.68-.57-.4-1.5-.32-.17-.28-1.35.07-.46.74-.36.32-.85v-.67l.27-.33-1.6-.98-.78-.87-.1-.9-.32-.69-.77.38-.49.46-.77-.1-.26-.38-.06-.69-.72-.08-.96-.38-.22-.51-.58.44-.61.14-.8.5-.65.68-.2.59-1.22-.55-.12-.32-.62-.35-.6.04-.34-.26-.35.67v.45l-.33.6-.77.73-1.28.71-.8.7-.33.08-.62-.71-.54-.02-.37.45-.47-.77-1.3-.48-.64-.46.42-.73.8-.25.02-.6-.31-1.07-.93-.97-.2-.4-.89.03-.62-.76-.53-1.16-2.25-1.16.3-.76.68.13.69-.17 1.6-.97.42-.7-.2-1.67-.74-1.48-.93.25-.5-.08-.45-.59.48-.5-.05-.66 1.38-1.44.4-.52-.57-.43-1.6.27-.27-.1-.15-.93-.22-.2-.3-.96.17-.79-.74-.78-.24-.85 13.38.01 3.61.08 14.25.08 9.73-.11 16.67-.01 1.59.04 13.5-.09 6.53.06 8.86-.02 53.7-.03h14.29l.01 10.76h.35V263.81h-7.21l-.16.45-2.53-.02-.1.99-1.74-1.28-.63.8-.36 1.27-.66.78.87.54.15.4-.2.97.66.22.25 1.67.41.19.33.6-.04.46.77.26.42-.14.72.25 1.03 1.68-.73.67-1.23.6.52.9-.3.15.06 1.5.48.47.85.15-.03.32.39 1.2 1.02.28.7 1.15.88.4.06.86.76.75.35-.13.35-.72h.39l.17.9-8.69.01-20.28.02-.01 13.53-.01 7.73.11.52-.73.03-.45.7-.05.72-.58 1.51-.74 1.5.05 1.31-.23.7-1.03.5-.85.9-.43.1-.38.47-.34-.25-1.44.34-1.38-.83-.77.4h-.67l-.6.33-.78.12-.54.59-1.41.6-.93.17-.7.51-.06.86-.49.95-.62.82-.66.37-.75-.04-.68.96-.68.33-.35-.24-.54.69-.03.43-.76.49-1.01.07-.98.57-.85.13-.51.46-.09.42-.64.66-.48-.14-.4.53-.71.14-.81-.09.03 3.54h-9.5l.4.35.78-.31.43.65.88.63-.05.5-.64.2.2.88-.44.21.15.94.99 1.01-.04.5.39.78-.3.8.9.12.6-.26.33.64.9.71.54.05.4.34.05.67-.71.3-.42.4-.1 1.14.15.9.25.32.95-.52.72.43.46-.06.47.45.68-.13.31.67.6.65.12 1.08.28.82.59 2.28.51 1.03-.73.27-.4-.17-.46.48-.21.96-.46.3-.16 1.41-.4.57-2.14.23-.73-.3-.38.27-.54-.83-.66-.07-.41-.3-.9-.1-1.26 1.13-.12.26-.89.1-.4.22-.64 1.42-.05.37-1.72.19-.24-.2-1.48.26-1.37.52-.56.34v.94l-.56.53.2.67-.13.6.54.37.98.3.46.49.46.14-.17 1.03.6.81-.23 1.63.25.46-.03 1.43-.69.54.05.45-.29.65.58.9-.14 1.05.34.68-.54.82.04.77.37.87-.5 1 .09.48-.51.34-.66.12-.33.52.29 2.28-1.09.79-.32-.11-2 .35-1.34-.52-.37.21-.56 1.01-.45.43-.8.3-.13 1.27.18.86.28.5.2 1.61.73 1.1.22 1.29.48.64.44.98.58.29.03 1.78-.38.92-.99.24.08 1.47.65.62-.28.3-.6 1.28-.07.63.23.85h-15.1v-.57l-11.72.01H201.1l-10.11-.02h-12.3l-3.8.03.24.38 1.3-.2.2.6-.2.45.15.45-.27 1.4.64 1.18-.01.64.27.3.12 1.04-.22.55-.63.62.53.45-.03.7-.33 1.24 1.08.63.26.5-.22 1.27-1.03.37-.32-.27-1 .92.25.62-.29 1-.69.45.54.5.45.06.52.54.17.89-.12.28 1.06.47.51.52.83.24.24.72.4.4.09.6.34.24.13 1-.18.83.45 1.2.6.76.36.9.28.2.03.89-.37 1.02-.06.66-.84.3-.25 1.67.33 1.67.27.36-.43 1.15.03 1.34-1.17.63.22.48.91.23.36-.1.42.45.36.69-.08.56.3.75.48-.09.8.48.23.72.55.24.27.65.62.04.4-.32.51-.03v.7h-9l-5.44-.01-.48-.1-1.95.1-2.29-.03v-3.53l-.67-.59-.95-.33-1.5-.85h-.9l-1.42.64-.17-.2 1.78-1.77.29-.45 6.83.02.24-.12.04-1.66-.16-1.13-.47-.65.1-1.79h-1.24v-1.78h-1.78v-5.78l.1-.3-1-.17v-.9h.91v-4.16l-.48-.3h-3.08v-4.18l.14-1 .57-.19.17-.68-.94-.66-.4-.66v-2.36l-.43-.73-.02-.73h-1.34l.1-3.13-.1-.02v-2.66h6.2l.03-3.57h.57l.24-.88.52.07.7-.7.01-.33 1-.5-.06-1.23.2-.7.04-.96.69-.58-.4-.44-1.61.45-.92-.08z"/>
    <path region="10" short-name="14" long-name="State Senate District 14" value="1" d="m386.36 381.27.03-10.8.02-10.67v-14.39l-.05-18.07v-10.9h11.14v-15.39l-.01-15.8v-12.31h.17v-43.9h.29V218.5l22.15-.04 9.76-.07 11.96-.06 12.54-.06 4.1.07.38.43 1.08-.3.66.82.45.02.5-.37 1.33.92.48-.25.95.55.6-.24.53-.6.36-.8.3.6.71.65 1.1-.34.07.52-.6.3.56.43.54-.27-.02.96.7.3 1.15.96.85-.23.28 1 .57.27 1.18.04.28 1.01.64.07.43.45.42-.2.38.71.47.08.28.41-.33.47.58.32.77.08.78-.16.33.73.53.2.13.55-.12 1 .72.54.2.54.96.26.35.3.4.9-.05.6.5.51.68.12 1.73-.34.61.61.94.6.6.58.1.44-.4.66.27.22.56-.26.45 1.57.38-.33.7 1.09.78.34.56.63.39-.1.52.9.55.48.02.8.9.92-.24.57.63.87-.12.61-.7.86.22.72.52.6-.68 1.9.14.62 1.04 2.46.75.59.94.14.55.55.38 1.32.6.22.67 1.1.88.18.59-.07.7-.59.43.07.66.6 1.1.54 1.26 1.4.64.42 1.17 1 .34.83.28 1.3.67 1.1.5 1.48-.16 2.19.62 1.02-.04 1.17 1 .94-.22.46.59.6.61.87.01 2.6 3.25.4 5 .12 2.25-.4 1.02-.42.7.1 1.14.7.88.12.9.32 1.57.14 1.83-.24 1.75.11 2.25.29.5.32.53-.24.68-.6.84-.47 1.19-.44 3.08-.16 1.7.16-.32.1-.03 3.16-5.96.03-.59-.07-.33.56.12.87-1.82-.01-.66-.22-.25-.85-.68.17-.23.41-.52-.07.07-1.25-1.22.04-2.66 1.3-.78 1.02-1.56 1.2-2.4 1.27-.58.53-.71.97-4.57 6.84h-6.18v5.45l-1.97.2-.42.54-1.4 1.48-.27-.23h-1.56l.45.52v1.12l-.75-.65-.6-.04v.91l-.96-.02-.1.33-.9.96-.03.6-.28.38-.04 1.68.3.92-.51.31.38.41-.14 1.24-.45.45h4.08l.04 3.16.4.48.93-.03-.02 2.56-.07 1.08h2.69l.6.93v.6l.28.53-.48.24-.08 1.75h1.67l-.42.41-.01.74.84.01v.42l1.22.01v.27l2.4-.08.45-.44v-.91h.37v.83h.42v-.85h.96v.5h.91l.44.44v.48h1.47l1.34 6.71h7.57v1.8l10.72.05V327l5.31.05.08 27.4.04 5.39h-.48l-.01 12.31v4.08l-.86-.26-.37-.41-1.53-.15-.65-.29-.68.24-.81.7-.4.65-.48.35-.45-.08-.4-.47-1.26-.35-1.3.49-1.8-.03-.9.23-.8.66-.52 1.26-1.2.9-.6.82-.4.26-1.94-.16-.52.1-.63-.59-.73-.26-1.17.2-1.32-.58-1.15.08-.83-.43-.52-.05-.28.85-.5.3.2 1.02-.21.27.47 2.07-.54.37v.4l.5.72-.05 1.28-.37.32.62.7-.68 1.68.63.4-.47.27.1.57-.2.73-.52.83.27.29-.53.6.4.57-.17.6-.66 1.14.38.3-.25.5.35.58-.22 1.31.3.24.07.65-.16.62.26.46-.59 1.12-.7.18-.8 1.44-1 .34-.83.08-.34-.33-1.05.5-.43.61-1.76.67.02.8-.55.57-.4-.11-.92.41-1.18 1.2-.3-.35-1.28 1.55-.81-.25-.25.62-.48-.32-.76.24-.14-.32-.96-.07-.03.53-.5.08-.43.57-.83.35-.28.5-.92.2-.18.37-.82.37-.15.6-1.43 1.13-1.2.27-.61.42-.26.48-.42-.44-.58.8-.43-.04-1.05 1-.75.44-.76.07-7.13.02-24.82.02h-7.09v-3.56l-.09-.1-10.7.02.06-9.8-7.67.1-.28-.03-.28-.72-.05-.9-1.08-.3-.59.08-.26-.75-1.34.48-.2-.38-2.28-.2-.08-.72-.32-.22-.65.17-.2-.63-1.11-.7-.37-.52v-.44l-.44-.33-.4.08-1.24-.18-.65.34-1.93-1.18-.4-.05-.02-.57-.68-.22-.42-.35-.07-.8-.42-.03-.61.92-.32 1.31-.4.25-.71.08-.65-.23-.28.23-.12 1.23-.76-.03-.83.3-.99-.16-.43-.42-.88.6-.66 1.17-1.43.95-1.14.08-1.1.94-.47.08-.86.8-.85-.56-1.42.15-.67.58-.52.2-.14-.47-.54-.12-.87.17-1.67.05.01-.8h-.47l-.32-.44-.55.01.01.43h-.68l-.42-.36-.36.37.04.53-.8.21-.05-2.57v-2.46l-.44-.25-.74.42-.73-.03-.84.57-2.51-.02-.16-8.96-1.61.05z"/>
    <path region="11" short-name="16" long-name="State Senate District 16" value="1" d="m539.55 273.06 1.99.17 1.62.5.6.06 1.83-.4 2.65-.24.54-.23 2.33-2.24.61-.33 4.15-.9 9.77-.33 1.56.3v1.46h.91v-1.48l10.66 1.3 3.69-.14 4.78.82 4.13.75 3.2 1.18 1.07.35 8.86 3.25.66-.39.14.63 1.6.67.08 2.19h-1.36l1.32 2.67.56-.53.38.06.47.7.29-.35h.56l.49-.93.18.9.66.48.33-.64-.67-.39.78-.48.93.64.71.33-.44.39.07.37 1.92.9.63-.94 1 .28-.08-.76.63-.15 1.17.63-.17.75.6.28-.06.62.68-.26v-.5l1.2.22.76-.53.69.27.56-.12.65.14.26-.29 1.58.82-.37.42-.1.71-.44-.09.2 1.1.91.25.38.54-.12.87.2.56.41.42 1.04-.87.38.54.46.04.42-.43.33.97 1.03-.02.82.72-.64.15.26.54.62-.06.56-.4.3 1.43.25-.84.43-.25.56.18.72 1.05.8-.65-.64-.6.34-.6.75.3v-.67h.55l.1-.4-.24-.68.31-.46.8-.1.74-.27.15.76.95.36.63-.06.83-.33.63-.07.25.33-.21.72.71.5.62.19.65.94.47-.67.86-.38.07.72-.24.46.35.32.9-.02-.1.77.5-.17 1 .69.38.49.62-.09 1.85.59.9.1v.37l.83.42.18-.6 5.04 1.56.92.36.76.02.96-.4.72-.07 9.86 1.45 2.56-.01 4.13.92.42.06 3.82-.01.7.35-.09.81-.27.33.96.68.62 1 .05-1.22.84-.12.03-.73-.41-.46 1.55.02.66-.14 2.9-1.31.7-.57 7.13-9.01 1.13-.6 16.34-2.88.53-.03 3.1.32 2.69-.23 1.43.06 1.8.55 2.02 1.13 1 .66 3.63 2 2.65 1.58.66.48 2.84.92 4.86.41.36.08 4.85 1.67 2.4 1.2 4.1 1.65 1.3.47h2.05l.76.2.86-.28 1.11.05 1.34.48.73.63 2.86 2.07 3.98 2.8.38.34 4.08 5.37 4.59 5.07 5.47 3.88 2.11 1.03-.11.33.74 1.04 1.31-.18.86 1.2.21.5 1.49 1.4.21.92-.52 1.07v.78h1.1l.8-.46h1.7l.06 2.27h.43l.77-.38 1.5-.36.9.31 7.71.01-.01.48.71-.12.3.4.96-1.16.39.45.63-.2-.02.77.17.68.8.3.48-1.36.65.24 1.1.02.45-.54 1.13.18-.25-.7-1.06-.22-1-.53-.15-.28h-.63l-.15-.66-.42-.54-.52-.26-.27-.45.23-.43-.15-.62-.51-.63.04-.74-.22-.47.42-.8-.4-.52-.07-1.04.31-.44.43.1-.05-.75.19-.81.5-.22 7.9-.09.08 1.99 8.97-.08-.02 5.4 5 .06-.09-7.29h2.55l.13.37 2.3 1.42.87.03.02 1.8h3.6v1.81l.47.06.37-.32 1.07.03-.14 2.02 1.73.04.67-.38.5-.52h.64l.05 1.8 3.06-.03.52-.14v-2.56h1.62l.16-.9.44-.25.64.24 2.37-.02.1.92h1.77l.42.17.7-.32.02-6.38.27.18 1.02.04.87.26.3-.44.98-.4.47.57 1.36-.01 1.14-.49 1.13.5.34.76 1.25 1.48.34-.87 12.87-.02.6.11 1.4-.11.05-.89v-2.74h3.61l.02-1.19.6-.62 4.78.02.06 3.6h3.52l.42.04.2-.47-.22-1.37 5.97.01.04 1.79h2.51l.5.13.62.46.85.07-.17 1.37v1.57l3.28.02.67.42.62-.76.04-1.06 1.3-.1.19-.86-.3-.35.95-.3 1.21.35-.14-.56.57-.7.2-.55.85-.24.45-1.04.82.04.32-.35.29-1.2h20.3l6.48.01v-5.44h6.04l-.35 1.28-.61.27-.11.35-1.23.8-.75 1.24.05.63-.32.72.82 1.63.36-.03-.22 1.1-.23.19-.13.8.83.46.18-.84.46.47-.44.66 1.6 1.18.25.62.42-.04.2 1.02.72.64-.26.51.41.71.16.61.52.5.35 1.34.99-.04.27-.25.68.39.67 1.6.2-.57.52-.1.27.59.43.3.1.63-.75.06-.08.56.31.2-.05.9-.73.47-.63.07-.08.78.58.49.06.4-.5.52-1.1.1-.68.37-1.03.13-.83.36-1 .11-.2-1.24-.22-.28-.93-.4-1.36-.02-.8.68-.8.04-.63.32-.55-.1-1.09-1.87-.87-.43-1.5.2-.8.35-1.06.28-.92.53-1.12-.16-1.42-.6-.76-.7-.8-1.65-.85-.69-.83-.15-1.93.81-.65.98-.24 3.21-.35.33-.68 1.5-.76.2-.63-.56-.65-.07-.94-.5-.8.21v.3l.66 1.15.07.69-.6 1.46-.69.78-.67-.08-.08-.5.57-1.2-.26-.49-.88-.09-.4.5-.3.78.06.72-.46.32-1.47.42-.35.46-.19.77-.69-.33-.09-.62.36-1.2-.15-.48-.56-.38-.61-.01-.57.4-1.13 1.28-.9.45-1.63.2-.22-.44.57-.3.27-.44-.01-.66-.44-.57-.61.01-.92.53-.9.14-.73-.17-.4-.32-1.45-.62-.25-.83.41-.76.36-.23-.43-.65-.45-.18-.43.68.1 2.24-.5 1.27-.6.36-.85.06-.48.36-.65-.1-.46-.91.44-1.26-.84-.98-1.12-.18-.67.22h-1l-1.36.61h-.72l-1.3.48-1.2.15-.66-.4.07-.74-.56-.55-.81-.28-.4.04-1.56.72-1.58-.52-1.12.14-1.83-.1-.67.05-.34.31-1.98.02-.88-.5-.43-.05-.97.36-.83-.23-.48-.62-.78.1-.93 1.1-.43 1.74-.62.78-.78.2-1.2-.89-.72-.98-.4-.26-1.37.46-.85-.24-1.01.44-.86.62-.82-.32-1.71-.18-.44.5.3.48.83.43.08.86-.4 1-.67.57-.82.09-.21-.32-.2-1.09-.42-.3-.73.05-1.2.69-.92 1.02-.43.97-.84.7-1.48.16-1 .65-.83-.2-.4-.45-.17-1.56-.27-.51-.6.01-.34.58.07 1.25-.1.67-.33.57-1.16-.37-.73.1-1.17.54-.42.46-1.06.69-.93.32-.42-.1-.15-.58-1.54-.92-.38-.46-.22-1.13-.23-.31-.61-.19-.4.5.24 2.47-.53.9-.76.33-.63.07-.38-.23-.93-.95-.57-.17-.8.16-.82-.04-1.08-.26-.83-.6-.42-.72-1.38-.9-1.1.1-.48.85.16.48.73.72.27.64-.27.6-.49.24-.76.06-1.22-.55-.38-1.4-.8-1.14-.67-.5-1.07-.33-.55.1-.25.6.33.53-.2.9-.7.98-.58.36-1.44.45-.98-.23-.86-.06-.31-.4.22-.4 1.25-.74.43-.67.01-.51-.76-.53-1.16.33-.95-.1-1.5.36-.47-.21-.71.04-1.23.32-2.1.02-1.28-.44-.74-.7-.66-.36-.67-.79-.5-.22-.83.16-.35.5-.93-.02-.36-1.08-.69-.6-.65-.07-1.44 1.17-1.07.29-1.08-.38-.13-1.16-.63-.78-1.71-.3-.54.35-.44.6-.7 1.49-.29.28-.54 2.07-.3.22-.16.78.38.41.16 1.43.33.9-.13 1.06.55 1.86.04.7-.4 1.2-.33.44-.53-.08-.42-.84.44-1.1-.02-.74-.27-.43-.95-.39-.53.1-.15.35-.05 1.09-.85.63-.68.25-1.61.13-.97.5-.64 1.03.2.5.98.32.55 1.34-.06.65-.57 1.34-.49.35-.92.03-1.05.53-.42.7.54.81 1.19.74.23 1.04-.25.47-1.01-.29-.69.06-1 .62.07.72 1.23 1.12.03.54-.2.82-.42.28-1.44.02-.63.26-.35.6.48 1.5-.26.97-.47.72-.4.25-1.53.14-1.23.43-.5.43.54.92.12.6-.07.98-.56.93-.29.01-.7-1.7-.26-.16-1.5-.11-.77.28-.17 1.01-.35.94-.83.74-.9-.9-1.21-.05-.7.16-.82.41.1 1.74-.12.52-.46.8-1.4 1.64-1 .35-1.14-.01-2.12-1.37-2.3-.24-1.74.13-1.63.38-.66.36-1.1 1.48-.36.91.59 1.24.19.72-.02 1-.35 1.02-.45.86-1.09.51-1.97.58-.76.09-.96-.7-.62-.15-1.35.51-1.49-.06-1.24-.24-.41.08-.47.74-.6.6-1.47.33-.67-.21-1.66-.08-1.13.05-.87-.14-1.09-.4-1.67-.28-2.73.07-.99.08-.7.25-.66.48-1.61.08-.51-.28-1.24.21-2.79.03-.56-.27-1.3-1.42-1.08-.64-2.27-.08-1.68.05-.56-.12-.94-.48-.87-.7-1.5-.2-2.58.04-.47.1-.38.38-.76 1.5-.01.65.74 1.1-.08.57-.56.78-.8.2-.17.37.42.84-.05 1.06-.67.96-.73.18-2.3-.22h-1.69l-.95-.77-.83-1.57-1.04-.08-1.16-.32-.54-.03-1.16.42-.47-.09-1.75-.74-1.02.03-.36.26-.34 1.46-.43.47-.34-.77-.75-.73-.48-.71-.76-.36-.55.26.59.74.16.63-.08 1.22-.63 1-.65.06-.4-.77-.36-.34-1.26-.17-.7.18-.03 1.09-1.03 1.55-.18 1-.67.74-.27.59-.89.51-.06 1.67-.42.36-1.28.18-.84.45.28 1.31-.2.64-.9.62-.44-.08-.6-1.03-.64-.15-.28.9-.88.4-.59-.38-.68.08-.69.8-.76.52-.24 1.18-.94.94-.6.1-.4.44.06.6.58.62.62 1.36-.07.55-.79.26-.45.35-.23.6.12.84.45.44.17.9-.3.48-1.86.33-1.6.5-.33-.17-.26-.3.11-.79-.1-.76.6-1.12-.35-1.04v-.59l.51-.7.49-1.28-.08-.74-1.16-.54-.6-.75.13-1.18-.15-.62-.9-1.13.08-.72.46-.7-.2-1.15-.4-.48-.42-.02-.69.36-1.43-.44-.36-1.06-.86-.92-1.07-.36-.63.54-1.38.38-.9-.12-1.88-.76-.55-.74-1.02-.47-1.18.78-.52.07-.53-.34-1.24.34-.48.01-.53-.34-1.05.01-.45.2-.86 1.08-1.11.36-1.47.08-.6-.33-.38-.51-.77-.35-1.2.54-2 .37-.59-.1-.52-.57-.69-.03-.57.61-1.33.43-1.89-.14-.93-.59h-.63l-.76.34.03.3.6.46-.08.72-.79.41h-1.2l-.05-.88-.45-.7-.87.51-.93-.19-.24-.49.11-.63-.57-.65-1.18-.4-.45.23.01.51-.56.53-1 .02-.37-.46.39-.4.23-.64-.3-.9-.62.28-.57-.07-.05-1.37-.91-.34-.5.08-.36.48-.04.57-.4.53-.77.65-1.22-.39-.77.14-.8-.19-.1-.4.25-.58-.49-.72-1.14-.76-.5.65-.45.24-.8-.02-2.03.57-.8-.74-1.14-.06-.78-.92-.49-.12-1.7.6-2.12-.3-.61.26-.6.03-.6-.85-.62-.57-1.33.15-.69-.46-.22-1-1.24-1.01-.85.32-.95.04-.5.38h-.91l-.43-.2-1.22-1.29-.3-.87.5-.85.2-.71-.22-.8-1.02-1-.61-.33-.58-.64-.42-.9-.48-.47-2.26-1.45-.73-.16-.42-.32-2.5-1.3-.68-.09-1.57.06-.85.27-.59.55-.58-.05-.53-.96.33-.7.57-.42.7-.28.7-.58.17-.44-.32-.5-1.79-1.54-.07-.79.62-.72v-.63l-.3-.2-1.44-.1-.45-.2-.72-.9-.74-.17-.58.1-.9-.13-.6.3-.63.07-.85.74-.95.25-.64-.14-1.76-.97-.85.09-.68.52-1.19.4-.63.42-.69.16-1.05.51-.48.37-2.3.17-.47-.13-.27-.44-1.74-.8-.74-.05-.84.14-.61-.42-1.11-.18-1.47.22-.65-.1-.84.2-.73-.1-.45.27-.36.57.08 1.28-.43.4-1.08.32-.98 1.47-.5.28-1.33.18-.6.36-.64.12-1.86.99-1.13-.02-.34.24-.12.59-1.07.72-.62.72-1.15.56-.46-.07-.5-.62-1.07-.02-.43.26-.77-.17-.45-.7-.98.13-.5-.15-.56-.62-.93-.35-.48-.71-1-.18-1.31.88-.01-4.08v-12.3l.49-.01-.04-5.38-.08-27.41-5.3-.05-.01.3-10.73-.04v-1.8h-7.56l-1.34-6.71h-1.47v-.48l-.44-.44h-.9v-.5h-.98v.84h-.41v-.82h-.37v.91l-.44.44-2.4.07-.01-.26-1.23-.02v-.4l-.83-.02.01-.74.42-.4-1.67-.02.08-1.74.48-.24-.29-.53v-.6l-.6-.93h-2.68l.07-1.08.02-2.56-.93.03-.4-.48-.04-3.16h-4.08l.45-.45.14-1.24-.38-.4.5-.32-.29-.92.04-1.69.28-.37.03-.6.9-.96.1-.33.96.02v-.9l.6.03.74.65.01-1.13-.45-.5h1.56l.26.22 1.41-1.48.41-.55 1.98-.2v-5.44h6.18l4.57-6.84.71-.98.58-.52 2.4-1.27 1.56-1.2.78-1.01 2.65-1.3 1.23-.05-.07 1.25.52.07.23-.41.68-.17.25.85.66.22 1.81.01-.1-.87.32-.56.59.07 5.96-.03.03-3.16z"/>
    <path region="12" short-name="19" long-name="State Senate District 19" value="1" d="m677.8 411.81.32.16 1.6-.49 1.87-.33.3-.49-.18-.89-.45-.44-.12-.84.23-.6.45-.35.8-.26.06-.55-.62-1.36-.58-.61-.05-.61.4-.45.6-.09.93-.94.24-1.18.76-.51.69-.81.68-.08.59.38.88-.4.28-.9.63.15.61 1.03.43.08.9-.62.21-.64-.28-1.31.84-.45 1.28-.18.42-.36.06-1.67.89-.51.27-.6.67-.72.18-1 1.03-1.56.03-1.09.7-.18 1.26.17.36.34.4.77.65-.06.63-1 .08-1.22-.16-.63-.6-.74.56-.26.76.36.48.7.75.74.34.77.43-.47.34-1.46.36-.26 1.02-.03 1.75.74.47.1 1.16-.43.54.03 1.16.32 1.04.08.83 1.57.95.76h1.7l2.29.23.73-.18.67-.96.05-1.06-.42-.84.16-.36.81-.2.56-.8.08-.56-.74-1.1.01-.66.76-1.49.38-.39.47-.1 2.57-.04 1.5.2.88.71.94.48.56.12 1.68-.05 2.27.08 1.09.64 1.3 1.42.55.27 2.8-.03 1.23-.21.5.28 1.63-.08.65-.48.7-.25 1-.08 2.72-.07 1.67.27 1.1.41.86.14 1.13-.05 1.66.08.67.21 1.47-.33.6-.6.47-.74.41-.08 1.24.24 1.5.06 1.34-.5.62.14.96.7.76-.1 1.97-.57 1.1-.5.44-.87.35-1.02.02-1-.2-.72-.58-1.24.36-.9 1.1-1.49.66-.36 1.63-.38 1.74-.13 2.3.24 2.12 1.37 1.14.01 1-.35 1.4-1.64.46-.8.11-.52-.1-1.74.84-.41.69-.16 1.2.05.91.9.83-.74.35-.94.17-1.01.78-.28 1.5.11.25.16.7 1.7.3-.01.55-.93.07-.97-.12-.6-.54-.93.5-.43 1.23-.43 1.53-.14.4-.25.47-.72.26-.97-.48-1.5.35-.6.63-.26 1.44-.02.41-.28.21-.82-.03-.54-1.23-1.12-.07-.72 1-.62.69-.06 1 .29.26-.47-.23-1.04-1.2-.74-.53-.8.42-.7 1.05-.54.92-.03.49-.35.57-1.34.06-.65-.55-1.34-.99-.33-.2-.5.65-1.03.97-.5 1.61-.12.68-.25.85-.63.05-1.09.15-.35.53-.1.95.39.27.43.02.74-.44 1.1.42.84.53.08.33-.43.4-1.2-.04-.71-.55-1.86.13-1.05-.33-.91-.16-1.43-.38-.41.16-.78.3-.22.54-2.07.29-.28.7-1.48.44-.6.54-.35 1.71.3.63.77.13 1.16 1.08.38 1.07-.3 1.44-1.16.65.07.69.6.36 1.08.93.01.35-.5.83-.15.5.22.67.8.66.34.74.7 1.29.45 2.1-.02 1.22-.32.71-.04.46.2 1.5-.34.96.1 1.16-.34.76.53-.01.5-.43.68-1.25.75-.22.4.31.39.86.06.98.23 1.44-.45.59-.36.68-.98.2-.9-.32-.54.25-.59.55-.1 1.07.34.67.49.8 1.15.38 1.4 1.22.54.76-.06.5-.24.26-.6-.27-.64-.73-.72-.16-.48.49-.85 1.09-.1 1.38.9.42.72.83.6 1.08.26.81.04.81-.16.57.17.93.95.38.23.63-.07.76-.32.53-.91-.23-2.47.39-.5.61.19.23.3.22 1.14.38.46 1.54.92.15.58.42.1.93-.32 1.06-.7.42-.45 1.17-.54.73-.1 1.16.37.32-.57.1-.67-.06-1.25.34-.58.6-.01.27.51.16 1.56.4.45.84.2 1-.65 1.48-.16.84-.7.43-.97.91-1.02 1.21-.7.73-.03.42.3.2 1.08.21.32.82-.1.67-.57.4-.99-.08-.86-.82-.43-.3-.48.43-.5 1.71.18.82.32.86-.62 1.01-.44.85.24 1.36-.46.4.26.72.98 1.21.9.78-.2.62-.79.43-1.74.93-1.1.78-.1.48.62.83.23.97-.36.43.04.88.51 1.98-.02.34-.31.67-.06 1.83.1 1.12-.13 1.58.52 1.57-.72.39-.04.81.28.56.55-.07.74.65.4 1.2-.15 1.31-.48h.72l1.36-.62h1l.67-.2 1.12.17.84.98-.44 1.26.46.9.65.11.48-.36.86-.06-.01 13.88-.02 10.81h-3.3v9.62l-10.7.01.01 3.61-.02 12.54-.01 16.1h-3.59l.03 14.34V444.86l6.78.01v24.98h10.67l-.03 7.08h10.62v1.7h1.72v1.77l1.77.02v3.54l1.9.01 33.4.07.02 3.53h-.32l.02 17.86h15.74v1.75l5.27.01-.01 3.52 20.17-.03 5.6.01.02 15.96-.09 15.21.06 2.06v10.46l.02 18.66-.05.13-.08 14.85.11 6.57.14 9.2.1 14.15.05 22.88.07 6.49-.05 1.49.08 3.33.03 8.22.02 2.28-.02 4.54.02 14.56.02 10.38.03.11-.04 3.93.03 10.92-1.52.06-5.93-.05-11.15-.02-10.66-.02-9.63-.02-10.37-.04-11.34-.07-10.13-.07h-8.1l-15.22-.01-16.83-.02-.14-.7-.54-1.3-.15-.76v-3.33l.07-.55.67-1.47.96-1.27-.5-.11-.68-.59-.92-1.18.07-.69.8-.36 1.23-.18.52.31.72-.06.65.12.06-3.05-.08-.42-.53-1.15-.15-1.93.2-.8 1.04-2.44.07-.37-.02-1.78.2-3.32-.04-.75-.53-1.92-.45-2.37-.16-1.36.1-1.6.29-1.49-.1-1.4-.15-.26-1.51-1.49-.24-.46-.25-1.46-.95.4-.2.44h-1l-.45.8-1.62-1.17-.43-.7-1.15.31-.14.4-.56-.12-.92-.7-.63-.04.84-2.27-.56-.3-.3 1.44-.62-.62-.17 1.02-.37-.09-.6.2-.71-.94-.4.28-.08.45-.62.35-.11.36-.6.03.14.65-.23.45.54.51-.44.3-.73-.66-.46.04-.82.52.5 1.95-.52.01-.9-1.16-.47-.1 2.31-2.4.5-1.35 1.08-1.26 1.81-1.5.55-.67 1.34-2.07 1.3-1.27 1.9-1.64.7.23.14-1.1.5-.17.42.14-.13 1.08-.25.8.65.85 1.49-1.25.82-.57 1.05-.23 1.06-.97.82-1 .55-.2.99-.05v-.9l.34-.84.06-.6.5-.55h.43l.23-.75-.7-1.28-.06-1.14.47-.43.87-1.17.21-1.34.25-.83.64-.72 1.81-2.82.73-1.37.66-.55.06-1.47.44-.8.75-.42.37-.85.96-.58.49-.83.66-.14.59-.77.05-.58.35-.87.28-.27.58-.02.03-5.67-.12-.55 1.07-.52.77.04.58-.3.83-1.39.46-.4 1.24-1.62.36-.6-.41-.47.43-.64.39.15.26.63.61-.4.53-.04-3.32-1.23-.88-.74-.45-.21-1.45-1.25-.35-.5.78.01.18-.25-10.53-.03-2.72-.06-10.6-.03h-18.02l-1.23-.86-.28-.61-.35-5.48.11-.56.75-1.3.15-1.23.5-2.2.33-3.1 1.06-3.02.7-1.18.84-1.9 1.9-3.27.13-.69.8-1.8 2.25-5.83.43-2.24.39-1.42.1-1.08-.36-1.86-1.35-3.89-.26-.5-1.77-2.26-.58-.51-1.42-.9-1.5-1.51-1.65-1.2-.84-.41-.5-.42-.72-1.19-.52-.54-1.75-1.47-1.01-.72-1.7-2.98-.67-1.6.09-1.1-.36-1.38-1.77-4.84-.33-.53-1.31-1.08-.8-.95h.6v-1.75h1.74v-1.75l.46.22.58-.21 4.13-.03v-.86l-.37-.62.06-1.9-2.65-.82-.24-.03-2.34.6-1.15 2.21-.37.54-.75.7.68.22-.4 1.18-.2 1.2-.69 1-.87-.02-.84-.81-.43-1.07-.76.47-1.32-.24.14-1.18.48-1.06.37-.23-.66-.67.24-1.12 1.4-1.16.53-.27v-1.17l-1.85-.23 1.76-1.41.16-.51-.3-1.37-.02-1.85.31-.59 1.06-.46.1-.65.28-.28v-.63l-.49-1 .06-1.54-.68-1.07-.45-.25-.57-.67-.58-1.21-.35-.31.04-.5-.22-.84-.34-.47-17.37-.1-.44-.54-1.9-3-1.11-2.28-.4-.63-.02-25.1h2.85v-1.76l-34.08.05-.4-.01-18.3.05v-1.76l-26.1.05h-7.35l-19.37.01-9.42-.02v.99l-20.97-.02-12.45.04-1.93-.03-.19-.29-.58.13-.48-.57.56-1.04-.64.1-.52-.36-.5-.08.33-.85-.8-.3-.4.07-.32.46-.38-.32-.17-.84.4-.51-.4-.48.04-.42.8-.32-.25-.9.48-.44-.5-.7.04-.39.49-.12.43.2.48-.52-.49-.24-.48-.58.73-.12-.69-.61.74-.42 1.01.16-.71-.71-.03-.58.37-.66.46-.2-.04-.46-.36-.45.55-.2-.37-.75.19-.55.55-.31.45-.5.84-.6-.48-1.42.55-.22-1-1.14-.02-.86-.47-.59-.37.67-.38.13-.74-.53-.18-.84 1-.96.2-.77-.16-.29-1.3-.37-.25-.37.56-.26-.2-.6.3-.66-.4-.4.4-.76-.57-.11.2-.76.54-.46-.37-.36-.47.44-.46-.01.04-1.28-.1-1.01-.3-.26v-.53l-.39-.3-.92-.27.34-.3.43.24 1.04-.24.07-.46-.6-.08-.35-.6-1-.03-.52-.57.37-.31-.08-.7 1.07.05.48-1.1-.02-.4-.74-.31-.1-.64-.52-.5.4-.5.4.3.35.69.35-.04-.27-.78.1-.29-.53-.44-.07-.44.37-.26.3.6.5.17.3-.33-.46-.67.93-.67-.58-.5-.09.58-.32.2-.35-.58.63-.48-.93-.82-.37-.75.6-1.26.2-.72-.12-.37-.9-1.36-.24.6-.7-.23.45-.39.02-.52-.53-.6.55-.27.47.24.04-.66-1.63-.8.61-.9.8.45.24-.78-.54.06-.66-.58.22-.5.44.13.21-.78-.97-.23.2-.64.91-.86-.8-.44-.06-.26.67-.34.6-.54-.89-.42.08-.83.95-1.17-1.06-.3-.56-.77.3-.71.42-.3-.12-.54.44-.21-.3-.5-.44-.18-.3-.65 1.1-.23-.5-.62 1.33-.72-.18-.35.28-.5-.24-.46.98.11.03-.74-.56-.15.22-.6.52.29.42-.27-.35-.52.22-.5.64-.06.26-.6.35.08-.21-1.89.25-.57-.36-.44.3-.48-.57-1.28.25-.29-.27-.6z"/>
    <path region="13" short-name="21" long-name="State Senate District 21" value="1" d="m616.5 651.97.38-.46 1.47-.88v-.74l-1.26-2.4 4.1-2.35.9-.91.02-1.3h1.47l-.01-1.3h.85v-.87h.86l-.03-2.6h.86l-.03-1.53h-1.75l.01-2.82.57-.37.26-.6.64-.67.12-.43.9-.88.55-.32.79-1.01.57-.45v-.55l.25-.55.55-.45-.01-.69-.3-.96.57-.63.66-.08.42.38.76-.17.38.38.83.46.06.42.54.12 1.14.59h.86l-.06-3.02h.87v-.32h.85v-4.86h.87l.8-.77h.57v-.43l.7-.02-.02-1.54h-.2l.01-2.48h1.97l-.03-4.12 1.2.1 1.23-.06 1.19.28.7-.92-.4-.68-.24-1.77.14-.5-.07-1.15-.35-.59-.06-.92-.38-.74-.22-.97 1.09-.76 1.63-.64.77-.42.63.04 7.04-.02 2.81-.02 7.8.05h13.77v-3.45l3.46.01v-3.44h3.46v-3.46l10.35-.01v-6.94l13.57.03h7.21l-.02 10.4 20.72-.02v5.2l10.36-.02-.02 5.2h9.41v-1.1l.77-.34.53-.72.46-.29 1.72-.09 1.6.12.62.35 1.43.02 1.04.9.73.26.66-.19.65.2.43.36 1.11-.19 3.8.02.47.16 2.52.26 1.06.23.48.26.56.72.73.36 1.45-.7 2.1-1.3h1.04l-.35-.8.4-.14-.18-.83.22-.77.54.07.16.41.5.07 1-.34.27-.67.75-.33 1.2-1.38 1.35-.12.5 1.09 1.71-.01.37.17.99-.03.69.23.86-.02 1.2-.23 1.12.44 1.14.03 2.87.6 1.74.63.98.08-.1-1.92.44-1.39h3.04l.01 5.08 2.46-.01v.1l5.38-.04h5.03l-.01 10.46h6.92l27.77.02h27.7l10.6.03 2.72.06 10.53.03-.18.25-.78-.01.35.5 1.45 1.25.45.2.88.75 3.32 1.23-.53.03-.6.4-.27-.62-.39-.15-.43.64.4.47-.35.6-1.24 1.62-.46.4-.83 1.4-.58.3-.77-.05-1.07.52.12.55-.03 5.67-.58.02-.28.27-.35.87-.05.58-.6.77-.65.14-.49.83-.96.58-.37.85-.75.41-.44.8-.06 1.48-.66.55-.73 1.37-1.81 2.82-.64.72-.25.83-.21 1.34-.87 1.17-.47.43.05 1.14.7 1.28-.22.75h-.44l-.49.55-.06.6-.34.84v.9l-1 .04-.54.2-.82 1-1.06.98-1.05.23-.82.57-1.5 1.25-.64-.85.25-.8.13-1.08-.42-.14-.5.16-.15 1.11-.69-.23-1.9 1.64-1.3 1.27-1.34 2.07-.55.67-1.8 1.5-1.09 1.26-.5 1.35-2.31 2.4.47.1.9 1.16h.52l-.5-1.96.82-.52.46-.04.73.66.44-.3-.54-.5.23-.46-.14-.65.6-.03.11-.36.62-.35.08-.45.4-.28.7.95.6-.2.38.08.17-1.02.62.62.3-1.44.56.3-.84 2.27.63.03.92.71.56.12.14-.4 1.15-.3.43.69 1.62 1.16.45-.79h1l.2-.44.95-.4.25 1.46.24.46 1.51 1.5.14.25.11 1.4-.28 1.48-.1 1.61.15 1.36.45 2.37.53 1.92.03.75-.2 3.32.03 1.78-.07.37-1.04 2.44-.2.8.15 1.93.53 1.15.08.42-.06 3.05-.65-.12-.72.06-.52-.31-1.22.18-.81.36-.07.7.92 1.17.68.59.5.1-.96 1.28-.67 1.47-.07.55v3.33l.15.77.54 1.28.14.71-21.4-.01h-12.25l-11.47.02-1.25.8h-13.13l-14.8-.05-25.59-.12-26.13-.13-13.83-.06-1.98-.07-.85.05-1.72-.22-1.83-.16-4.28-.04-15.76-.09-9.63-.05-11.82.09-10.4-.02-13.4.01-7.79.02-12.92.01h-5.63l-1.8.06.3-.37-.2-.44-.72.04-.1-.32.4-.5-.06-.54.54-.48-.23-.57.05-.55.6-1.55.62-.37.95.2.14-.75-1.05-.15-.43-.39.02-.63.7-.1.32-.34-.21-.53.8-.9-.02-.9.24-.96.91-.03.18-.99.95.55.33-.18.18-.66-.17-.41-.54-.3-.07-.46.83.4.4-1.5-.61-.53.1-.33h1.15l.33-.12.5-.61-.16-.6-.5-.2.18-.73-.37-.86.47-.39.64-.04.13-.33-.62-.3-.15-.43.63-.22.39.52.38-.14.32-1.85.43.02.34.34.52.02-.89-1.44.97.02-.43-1.27.88-.7.31-.68 1.03-.02.98-.47-50.09.33.03-11.33.24-.82-.25-.87-.02-2.51 1.16-5.09.3-4.9z"/>
    <path region="14" short-name="9" long-name="State Senate District 9" value="1" d="M321.06 218.29h4.13l11.65.04.25-.05 12.22.11 7.7.06 21.72.08 19.23-.03-.01 10.54h-.28v21.97l-.01 21.93h-.18v12.32l.02 15.8v15.38h-11.13v10.9l.04 18.07v14.4l-.02 10.67-.03 10.8-19.69.03h-1.74l.02 10.7-1.8.04-5.31-.04-1 .08-2.62-.06h-8.83l-1.78-.02-.02 1.78.05 8.98-.05 2.34-.15.48-.39.08-.78-.64-1.34-.18-.63.38-.7-.89-.45.48h-1.06l-.56-.45-.32.47-.85-.66-.78-.22-.7-.45-1.7.25.18 20.4.06 11.33v8.01l.74-.11.3-.35.77-.05.59.4.41-.22.23.57-.45.27.31.51-.11.52.88.07.38.2.35-.88.6.21.6-.09-.13 1.27.68.21.34-.2.44.57-.24 1.23.45.35.43-.14.99 1.68.67.28.32-.32.84 1h1.99V452l-.46-.32-1.15-.24-.86.77-1.03-.01-.85.92.03.84-.27.28.38 1.55-.24.32-.66-.13.05.79-.38.84-.03.8-.4.59.1.77-.13.56-1.04.23-1.13.63-.25.4.03 1.14h-1.25l-.67-.19-.76.36-1.41 1.32-.4 1.14-.36.53-.66.57-.83-.14-.64.06-.18.27.42.94-.1.46.2.54-.57.84-.04.81-.87.97-.2.7-.41.47-.61.32-.38.62-.45.19-.67.96-.42-.5-1.16-.5-1.17-1.2-.43-.12-1.05-.9-1.3-.36-.75-.37-.96-.16-.8-.86-.41.02-.46-.78-2.56-2.03-.85-.9-1.13-.5-.4-.4-.55-.12-.37.23-.7-.18-.43-.7v-1.08l.33-.68-.49-.48-.49-1.29-.08-.91-.9-.54-.72-.24-.8-1.56-.85-.13-.47.47-.24.98-.06.94-.54 1.26-.45.62-1.15.33-1.2-.36-1.3.02-.83.66-.59.82-.95.7-2.33 2.34-1.22.8-2.12 1.8-2.07 1.01-.95.63-1.38.45-5.43-.53-3.32.11-.63.18-2 .92-3.04.92-.46.51.36.49.12.69-.2.6-.33.21-1.85-.69-1.24.34-.03-2.82.03-26.22-21.12-.01v-.3h-.8l-.02-37.97-.3.79-.48.03-.98-.44-.59.18-.35.42-.53-.4-.43-.06-.47-.58-.48-.16-.31-1.03.3-.28-.15-.9-.55-.91.4-.6-.28-.43-.34-2.19.27-.41-.18-1.58.55-.32.03-1.22-.78-.67-.31-1.46-.95-.66-.18-.3-.23-.86.07-.63.6-1.27.28-.31-.65-.62-.08-1.47 1-.24.37-.92-.03-1.78-.58-.3-.44-.97-.48-.64-.22-1.3-.73-1.09-.2-1.6-.28-.51-.18-.86.14-1.27.8-.3.44-.43.56-1 .37-.22 1.35.52 2-.35.31.1 1.09-.78-.29-2.28.33-.52.66-.12.51-.34-.09-.48.5-1-.37-.87-.04-.77.54-.82-.34-.68.14-1.05-.58-.9.3-.65-.06-.45.69-.54.03-1.43-.25-.46.22-1.63-.6-.81.17-1.03-.45-.14-.46-.5-.98-.3-.54-.36.13-.6-.2-.67.57-.53-.01-.94.56-.34 1.37-.52 1.47-.25.25.19 1.72-.19.04-.37.65-1.42.4-.23.89-.09.12-.26 1.26-1.13.9.1.4.3.67.07.54.83.38-.27.73.3 2.14-.23.4-.57.16-1.4.46-.31.2-.96.47-.48.4.17.73-.27-.51-1.03-.59-2.28-.28-.82-.11-1.08-.6-.65-.32-.67-.69.13-.46-.45-.46.06-.72-.43-.95.52-.25-.32-.16-.9.1-1.15.43-.4.7-.29-.05-.67-.4-.33-.54-.06-.89-.71-.33-.64-.6.27-.9-.13.3-.8-.39-.78.04-.5-.99-1-.15-.95.45-.21-.21-.88.64-.2.05-.5-.88-.63-.43-.65-.77.3-.41-.34h9.5l-.03-3.53.8.08.72-.14.4-.53.48.14.64-.66.09-.42.5-.46.86-.13.98-.57 1-.07.77-.49.03-.43.54-.69.35.24.68-.33.68-.96.75.04.66-.37.62-.82.5-.95.04-.85.7-.52.94-.17 1.4-.6.55-.59.78-.12.6-.33h.67l.77-.4 1.38.84 1.44-.35.34.25.38-.48.43-.08.85-.91 1.03-.5.23-.7-.05-1.3.74-1.5.58-1.52.05-.72.45-.7.73-.03-.11-.52v-7.73l.02-13.53 20.28-.02 8.69-.01-.17-.9h-.39l-.35.72-.35.13-.76-.75-.06-.86-.89-.4-.69-1.15-1.02-.28-.39-1.2.03-.32-.85-.15-.48-.48-.05-1.48.3-.16-.53-.9 1.23-.6.73-.67-1.03-1.68-.72-.25-.42.14-.77-.26.04-.45-.33-.61-.4-.19-.26-1.67-.66-.22.2-.96-.15-.41-.87-.53.66-.79.35-1.27.64-.8 1.73 1.28.1-.98 2.54.01.15-.45h7.21V262l.01-32.95h-.35z"/>
    <path region="15" short-name="18" long-name="State Senate District 18" value="1" d="m903.8 335.52.6-.36.5-1.27-.1-2.24.43-.68.45.18.43.65-.36.23-.41.77.25.82 1.45.62.4.32.74.17.89-.14.92-.53h.6l.45.56v.66l-.26.43-.57.3.22.46 1.62-.2.91-.46 1.13-1.28.57-.4.6.01.57.38.15.48-.36 1.2.1.62.68.33.2-.77.34-.46 1.47-.41.47-.33-.08-.72.3-.78.4-.5.89.09.26.5-.57 1.18.08.51.67.08.68-.77.62-1.47-.08-.7-.66-1.14v-.3l.8-.21.94.5.65.07.63.56.76-.2.68-1.5.35-.33.24-3.2.65-.99 1.93-.8.83.14.84.7.81 1.63.76.7 1.42.61 1.12.16.92-.53 1.06-.28.8-.35 1.5-.2.87.43 1.1 1.86.54.1.63-.3.8-.05.8-.68 1.36.01.93.4.22.3.2 1.24 1-.12.83-.36 1.03-.13.67-.37 1.1-.1.51-.53-.06-.4-.58-.48.08-.78.63-.07.73-.46.05-.92.14-.13 1.08.92.65 1.22-.5 1.97.74.2 1.22-.93.9-.88 1.2-.55.68.03.67.25.6.61.79 1.19.93-.34 1.12-1.16.88-.24.65.1.72.43.39.66.34 1.35.67 1.05.93.48 1.22.85 1.86.93.6.1.94-.08.75.42.6.58.3.9.3 1.6.76.37.61-.1 1.33.17 1.59-.72h.93l.65.43.8.77 2.26 1.28.53.14 1.29-.07 1.32-.45.62-.4.15-.43-.08-.96-.55-.88.02-.93.25-.39 1.18-.3.5.3-.3 1.08-.14 1.04.55.99.92.71.29-.01.97-1.1.52-.83.57-.5h.8l.25.48.53 1.68.57.7.8.3.48-.14.23-.5.49.32-.2.78-.54.66-.43.85.42.81-.02.72.25.18 1.04.04 1.68-.46.62.1 1.22.81.2 16.63-.07 6.7.01.62-.07 6.96-.04 15.1-.03 12.52-.08 15.53.02 2.76-.04 5.52.02 6.53-.04 7.52.06 10.8-.04 5.98.02 4.61-.04 12.16-.03 13.46.05 13.3v9.7l-5.6-.02-20.17.03v-3.52h-5.26v-1.76h-15.74l-.02-17.86h.32l-.03-3.53-33.39-.07h-1.9v-3.55l-1.77-.02v-1.77h-1.73v-1.7h-10.6l.02-7.07h-10.66v-14.19l-.01-10.8h-6.79l.01-5.32V416.43l-.03-14.33h3.59V386l.03-12.55-.01-3.6 10.7-.02v-9.62h3.3l.02-10.81z"/>
    <path region="16" short-name="29" long-name="State Senate District 29" value="1" d="m552.23 582.67.07-10.51 20.14.05h6.75l14.05-.06-.07 12.06.2 5.21.06 3.48h1.72l-.03 7.04v13.91h-.24l.03 10.37-.02 1.73 1.7-.01V629.4l1.7.01.02 1.7h1.71l.01 3.38.62-.27.63-.67.9-.6.73-.11.89-1.23.73-.1.58-.3v2.73l-.4.92-.58.37.32.44-.1.48-.5.08.14.65-.57.41.05 4.23 3.4.02.05 3.44 5.08.03.1 6.95h4.4l-3.08 3.68-.3 4.9-1.15 5.08.02 2.51.25.87-.24.82-.03 11.33 50.1-.33-.99.47-1.03.02-.3.69-.89.7.43 1.26-.97-.02.9 1.44-.53-.02-.34-.34-.43-.02-.32 1.85-.38.14-.39-.52-.63.22.15.43.62.3-.13.33-.64.04-.47.39.37.87-.18.72.5.2.16.6-.5.61-.33.12h-1.16l-.09.33.6.53-.39 1.5-.83-.4.07.46.54.3.17.4-.18.67-.33.18-.95-.55-.18 1-.9.02-.25.97.02.9-.8.89.21.53-.32.34-.7.1-.02.63.43.4 1.05.14-.14.75-.95-.2-.62.37-.6 1.55-.05.55.23.57-.54.48.07.55-.41.5.1.31.73-.04.2.44-.3.38-1.83-.04-20.28.06-1.62-.08-12.44.02-13.25.03-6.92.03-13.06.02-1.7-.74-9.06.02-7.44.04-7.66.07-17.04.21-13.57.13-3.12-.05-.01-20.04h-22.14v-20.89h11.04v-20.61h.07l-.07-7.71-.18-11.89v-.67h-1.54v-4.89h3.26v-.75h2.3v-.92h.8l-.02-4.98h1.94v1.23h.8v1.14h.45v-.75h.75v-1.73l.4-.01.36-.4.55.19.76-.1.35-.56h3.68l.25-.1.04-5.7.06-1.01.15-.27-.47-1.45.44-1.1-.12-.89.42-.21 4.6-.03.01-1.68 1.76-.05v1.71h1.76v3.69h3.26v-1.62l1.26-.12.51.1 1.6-.01 5.28.08.02-1.93-.07-8.71 6.96-.1v-8.76l.36-.7z"/>
    <path region="17" short-name="32" long-name="State Senate District 32" value="1" d="M391.17 630.82v-.78l.71-.11 1.03-1.15 1.02-.08 1.36-.56 1.08.1v-6.16h1.68l.01-3.39 3.58.03.15.76.42.99.3 1.58.76.1h5.1v-.62l.6.08.15-.34h.98l.09.89.23.5.02.63-.28 1.4.31.5-.01 1.25-.31.92 1.6-.03v-.86h3.46v.38l1.22.12.21 1.08-.55.15h-.9l-.02.88h-1.69l-.02 7.83-1.73-.04-.04 2.6h-.63l-.2.63.25.7.95 1.52.4.47 1.1.77v1.12l8.6.02 4.4-.02.6.07V655h.14l-.04 10.36-10.01-.01v10.45l-.04 10.25h-.66l-.01 8.94.13.84v10.91h-.79l.02 16.53.03 15.74.03 7.03.1 21.96-.28.19-.74-.22-.46-.41-2.56-.66-.52.1-.65-.8-.39-.06-.91-.68-.67-1.95v-.23l.6-1.59-.78-.4-.81.1-.7-1.31-1.23-.36-.58-.65-.03-1.68-1.7-.78-1.46.06-.7-.2-.39-.93-.01-1.46-.28-.4.04-.52-.4-1.1 1.06-.41.59-.44-1.85-2.45-.58-.13-.33-.82-.78.17-.52.3-.63-.28-.34-.61.4-.23.33-.68.38-.25-.2-.5-.6-.82-.3-.83-.84-.35-.49-.6.03-1.28-1.82-1.46-.39-.5-.04-1.15-.49-.34-.7-.2-.9.92-.59-.22-.56-.9-.4-.42.04-.44-.9-1.05-.04-18.86h.44v-10.34h-.02v-9.53l-.01-9.04-.05-10.5.02-12.37h1.91l-.02-10.46h-.08l.02-7.03z"/>
    <path region="18" short-name="43" long-name="State Senate District 43" value="1" d="M136.16 546.98h11.14l3.33-.05.46.42.04.87h.43l.02.89 1.1.1.64-.1v-.87h-.86l-.05-.88h.4l.72-.41 3.58-.03v.64h.97l-.43 2.85.55.06 2.46-.01.05.85.84-.35.47-.8-.07-1.46h1.82v-.85l.44-.01v-.76l-.25-.56 1.53-.02-.02-6.54h2.19l.12-.81.59.8 3.23-.02 4.65.06 9.64.04.52.53.2.82.59.33.4 1.48.84.34-.08.43.35.28.07.57-.34.73.05 1.73.28 1.04.32.65.53.46-.32 1.28-.55.72.09.36-.32.6-.06 1.04.53.54 1.06.75.9.24.45.39.2.8-1.09.9-.21 1.43-.83.12-.33.82.22 1.2-1.16.58-.65.2-.3.35-.66.1-.78.32-.44.8-.07.8.2.25.28 1.07.42.2.45-.32.43.1.22.6 1.18.8-.5.63.13 1.44-.43 1.2.79.9.45.07.26 1.24.74.45.34 1 .91 1.12-.07.7-.25.38-.82.27-.35 1.83-.21.37-1.15 1.05.13.55-.59.8.07.55-.25.54-.7.61.16.56-.17.8.3.27.7.02.76.4.65.12.48.38.69-.27.43-1.7.38-.44.55-.1.38.3.63.92 1.98-.08 1.23.23.56.27-.32 1.09.5.34 1.1.16-.38.81.36.31-.1.64.36.51.09.55-.22.36.5 1 .04.77.55.48.74 1.37.36.22.45-.32.75-.02.28-.45h.93l.13 1.2.39 1.2 1.3.07.36.32.43-.05.35.34-.06.49.51.09.9-.33.75-.63 1.37.34.95-.08.86.75.05.34-.65.68-.45.83-.05.47-.48.75v.86l-.18.55.06.9.34.18v1.67l-1.41.36-.84-.1-.45.4-.68.14-.52-.14-1.01 1.2-.38 1.43-.64-.08-.6.13-.97 1.1-1.6.13-.32.2-.76-.22-.63.52-.47.08-.34-.55-1.16.15-.98-.58-.36.09-.33.54-.55-.01-.24.93-.72.2-.44.42v.7l-.43.36-.8.17-.5.94-.7.64-.47-.1-.35.26-.83 1.02-1.13-.02-.14.52.12.52.42.6-.72.58-.36.09-.35 1.16-.5.34-.44.6-.96.22-.26.32-1.58-.23.08-.54-.4-.97-.15-.94-.63-.71-.65-.3-.63.8-.5.12-1 .65-.27.62-.6.97-.42.4-.27.9.39.29.46 1.29-.42.51.53.62-.54.74.25 1.33-.54.6-.77-.58-1.33 1.02-1.6.63-.37.05-.6-.36-.2-1.19h-.82l-.56-.36-.5.3-.3.78-.64.3-1.14.17.35 1.1-1.04.92.3.62.3.03.4.82.06 1-.35.78-1.21.04-.82.92-.14.4-.58.52-.56.13-.7.44-.46.8-.12.8-.63.4-.13.95.07.76-.36.67h-.35l-.59.52-1.98.3-.62.81-.25.63.26.8-.6 1-1.19-.09-.29.6-.96.05-.53.21-.74-.02-.48.61-.48 1.01-.95.18-1.96-1.22-1-.08-.76.13-.27.94.24.35-.07.63.2.49-.53 1.2-.42.45-.18 1.73-.32.54-.46.15-.03.77-.71.51-1.3.07-.55.73-.7.48-.34-.07-.42.45h-.43l-.88.83-.81-.07-.54-.8-.04-.48-.83-.46.07-.46-.41-.87-.08-.64-.86-.49-.95-.82-2.51-.92-.55-.02-.4-.9-.1-1.43-.53-.15-.25-.74-.8-.32-.06-.3-1.13-.37.19-.66-.1-.37.54-.83-.74.05-.71-.32-.96.17-.55.56-.53.2-.72-.46-.7-.78-1.02-.6-.45.6-.76.25-.73.5-.15.3-.7-.26-.33.17-.04-.57.58-.41.2-.87.26-.39-.16-.66-.28-.25.35-.83.4-.49.17-.56.34-.17.39-.75-.54-1.11-.7-.21-.51-1.13-.33-.47-.04-.63.36-.36 1.13-.28.53-.37-.05-.5 1.02-.2.41.31 1.17-.89.79-1.52-.2-.46.24-.63-.15-.42-1.17-.33 1.13-1.03.5-1.12-.24-1.03-.5-1.19-.92-.68-.95-.03-.75-1.37-.9-.46-.03-1.16.23-.69-.6-.65-.52-.04-.74-1.08.4-.85.72-.83.71-.32-.04-.94.3-.16.29-.63.57-.64-.13-.67.25-.45 1.26-.94.15-.3-.38-.46.17-.75.49-.69.44-.04.42-.58.53.12.57-.23.9.6.4-.58.72-.44.38.06.81-.78.74-.16 1.4.88.99.34.47-2.34.61.1.4-1.01.27-.32.1-.67-.1-.52-.43-.1-.11-.94-.77-.32-.74-.96-.25-.86.11-.37-1.37-1.7.54-.91.95-.74.19-.4.72-.58.02-.71-.32-.73-.34-.27-.13-.68-1.47-1.04-.74-.14-.77.05-.6-.59-.23-.61-.56-.02-.82.63-.5-.08-.41-.47-.23-.82.3-.54.9-.58-.04-.43-.55-1.66-.74.31-.9-.07-.6-.4.1-.86.65-.37.46-.98-.05-.26 1.01-.35.99-.78.2-.45-.36-.37v-1.02l.74-.15.22-1.8-.06-.53-.63-.87-.24-.11-.35-.87-1.21-.04-.47-.5-.75-.08-1.34-.79.22-1.21-.25-.12-.52-1.23.46-.56.57-.32-.08-1.51.73.18 1.04-.4.46.05.78.75.3.08 1.08-.9.53-.26.94.28-.06-.72.15-3.12.08-.37-.49-.74-.18-.77.45-.49-.22-1.61-.28-.93-1.22-.77.12-.63-.47-1.66.48-.86.94.27 1-.33.52-.35.68-.84.15-.51-.26-.56-.35-1.64.16-.66.7-1.5.1-.8.58-.58z"/>
    <path region="19" short-name="3" long-name="State Senate District 3" value="1" d="m117.42 261.3.94-.21 5.7.01.82 1.03.11.62-.2.44.73 1.23.77.91-.04 1.05 1.01.73.94 1.15 1.28-.14 1.57 1.82.41 1.34.57.67.9 1.93.38 1.79-.08 1.11 1.23 3.85.76-.42.2-.48 1.3-.73.04.57.56-.07.32.56 1.16-.32-.09.93.69.06.53-.78.52.41.41-.34.6.1.11.65.51-.06.56.25-.22-.9 1.06-.28.56-.43.97 1.1h.64l2.28-.38 1.05.28.7-.02v5.53l-.01 6.03.55.5.38.9-.08.38.05 3.85h-5.12l-1.1-.06 1.24 2.76.03 4.43-.3 2-.41 1.15.02 6.43.77-.3.47.45.05 1.24-3.12.02h-2.57l-.34.21-.14 1.16-.48.46h-2.28l-.67-.37-.67.1-.2.3-2 .04-1.45.02-.01-1.91-14.3-.03H100l-.04-16.64v-5.07h-.09l-.01-16.23v-5.63h-3.24v-10.71l1.24-.03z"/>
    <path region="20" short-name="2" long-name="State Senate District 2" value="1" d="M110.09 218.07h4.38l16.61-.07 8.24-.03 10.4.06 2.18.16 1.98.05 1.74-.05 9.33.1.24.84.74.78-.17.79.3.96.22.2.15.94.28.09 1.59-.27.56.43-.39.53-1.38 1.43.05.67-.48.5.45.58.5.08.93-.25.75 1.48.19 1.68-.43.7-1.6.96-.68.17-.68-.13-.3.76 2.25 1.16.53 1.16.62.76.88-.03.2.4.94.98.31 1.05-.02.6-.8.26-.42.73.64.46 1.3.48.47.77.37-.45.54.02.62.71.33-.08.8-.7 1.28-.7.77-.74.33-.6V238l.35-.67.34.26.6-.04.61.35.13.32 1.22.55.2-.6.65-.67.8-.5.61-.14.58-.44.21.51.97.38.72.08.06.69.26.38.77.1.5-.46.76-.38.33.7.08.9.8.86 1.58.98-.27.33v.67l-.3.85-.75.36-.07.46.28 1.35.32.18.4 1.5.68.56.9.45-.07.38.36 1.2.98.95 1.05.33.64 1.49-.2.85.55.53-.58 1.98-.82 1.17-1.73.25.22 1.06.54 1.18.46.47-1.1 1.05-.2.95-.34.35-.09 1.68.38.5-.38.52-.07.93-.54.69.3.53 1.13.7.19-.02.84 1.11.38-.06 1 .74 1.2.25.69-.19.45.1 1.35.98.93-.66.93-1.22.75.22 1.2 1.29.3 1.02.42.44.72.25.8-.43.37-.65.68-.08.52.66 1.13-.6.95-.13.63.51 1.38.85.5.13.55 1.65.69.22.81.72.67-.2.9.18.5.62-.2 1.47.1.7-.34.67.04.94-.12 1.6.64.83-.48 1.33.43 1.64-.59.59-.28.87-.32.4.17.83.5.13.35.5.56.37.84-.09.5.48.57.9 1.2.53.93 1.22 1.99.57.66-.09.35-.39.84-.37.94-.1.63 1.4-.22.86.38 1.49 1.13.8-.09.72-.43 1.33-1.03 1.19-1 .78-.56.23-.45.7-.94.84.72.7.38.63-.04.87.6.2.14.35.88.38.57.68v1l1.18.61.35.37-.02.5.6.44.96.06 1.1.36.42 1.26.36.57-.09.55.7.25.52.5.61-.08-.02 4.7-5.21-.01-29.1.04.04-9.44h-4.87v-2.54h-2.11v-4.65h-2.44l.01-3.47h-1.77l-1.1.88-1.01.39-.7.87-.92.43-.36.93-.45.1-1.6-.02-.82.27-1.52 1.54-1.3.12-1.01.76-1.12 1.38-.05.34.65 1.83.12.65.41.46.9-.42 1.05-.05.5.6 1.23.8 1.7.97.84.34.76.86.97.61.99 1.52.97.19.77.7 1.29 2.29v.3l-1.15.85-.16.37-1.16 1.55.39.38-.89.3-.9.93-.38.2-.37 1.54-.5-.56-.1-.42-1-.49-.52-.6-.66-.03-.67.45-1.03-.14-1-.49-.3-.01-1.4.73-.17.45-.91-1.16-.37-.25-.32-.67-.72.02-.72-.62-.4.96-.7.46-.14.37-.82.7-.66.16-1.54 1.3-1.59.02-.12-1.2-.65-.25-.8-1.16-.3-.1-.07-.64-1.09-.56-1.49-.15-.05-.44-4.52.04.01-1.38-.48-.44h-2.09l-1.3.78-.78.24-1.56-.04-.68-.43.46-.93.73-.16-.28-.6-.62-.69-.02-1.81h-3.63l-.42.99-.8-.01.46 1-.21.37-.47-.45-.77.3-.03-6.43.43-1.15.29-2-.03-4.43-1.25-2.76 1.11.06h5.12l-.05-3.85.08-.38-.38-.9-.55-.5.02-6.03-.02-5.53-.69.02-1.05-.28-2.28.37-.64.01-.97-1.1-.56.43-1.06.28.22.9-.56-.25-.51.06-.1-.65-.6-.1-.42.34-.52-.4-.53.77-.69-.06.1-.93-1.17.32-.32-.56-.56.07-.04-.57-1.3.72-.2.49-.76.42-1.23-3.85.08-1.11-.37-1.8-.9-1.92-.58-.67-.4-1.34-1.58-1.82-1.28.14-.94-1.15-1-.73.03-1.05-.77-.9-.74-1.24.21-.44-.11-.62-.81-1.03-5.7-.01-.95.2-.24-.67-1.17-.8-1.72-.76-.93.04-.4-.49.48-.98.05-.57.44-.27-.15-.77-.6-.37-.11-.66.68-.85-.06-.43.39-.67.67-.45.67-.06 1.64-.56.35.1.6-.67.5-.13.56-.54.01-.77.58-.4-.5-.97-.81.13-.64-.1-.4-.99-.02-.39-.67-1.15-.63-.34-.47.12-.25-.57-.71-.48.1-1.25-.78.27-.71-.5-.61.05-.55-.27-.88.16-.68-.65-.82-.33.15-.92.28-.28.4-1.62 1.21-.1.23-.78 1.1-.41-.12-1.04.35-.63v-1.12l-.23-.36-.13-.95-.71-.78-.64-1-.06-.34.4-.76.2-.83-.05-.86-.26-1.04-.19-1.45-.73-.23-.06-.88.74-.87.36-.75.72-.3.47-1.34.38-.18.15-.95-.99-.84-2.3.02-.88-.38-.36-1.02.5-.87z"/>
    <path region="21" short-name="20" long-name="State Senate District 20" value="1" d="m679.2 485.21 1.93.03 12.45-.04 20.96.02v-.99l9.43.02 19.37-.01h7.34l26.12-.05-.01 1.76 18.3-.05h.4l34.07-.04.01 1.76h-2.85l.02 25.1.4.63 1.11 2.28 1.9 3 .44.54 17.37.1.34.47.22.83-.04.51.35.3.58 1.22.57.67.45.25.68 1.07-.06 1.54.5 1-.01.63-.27.28-.1.65-1.07.46-.31.6.02 1.84.3 1.37-.16.5-1.76 1.42 1.85.23v1.17l-.53.27-1.4 1.16-.24 1.12.67.67-.37.23-.49 1.06-.14 1.18 1.32.24.76-.47.44 1.07.83.81.87.01.69-1 .2-1.2.4-1.17-.68-.22.76-.7.36-.54 1.15-2.21 2.34-.6.24.03 2.65.83-.06 1.9.38.6v.87l-4.14.03-.58.21-.46-.22v1.74l-1.74.01v1.75h-.6l.8.95 1.31 1.08.33.53 1.77 4.84.36 1.39-.1 1.08.67 1.6 1.71 3 1.01.71 1.75 1.47.52.54.72 1.2.5.4.84.41 1.65 1.2 1.5 1.52 1.42.9.58.51 1.77 2.26.26.5 1.35 3.9.36 1.85-.1 1.08-.39 1.42-.43 2.24-2.25 5.84-.8 1.8-.14.68-1.9 3.27-.84 1.9-.69 1.18-1.06 3.02-.33 3.1-.5 2.2-.15 1.23-.75 1.3-.11.56.35 5.48.28.6 1.23.88-9.68-.01-27.76-.02h-6.93l.02-10.46h-5.04l-5.38.04v-.1l-2.46.01v-5.09l-3.05.01-.45 1.39.11 1.92-.98-.08-1.74-.64-2.87-.6-1.14-.02-1.12-.44-1.2.23-.86.02-.7-.23-.98.04-.37-.18-1.71.01-.5-1.09-1.35.12-1.2 1.38-.75.33-.28.67-1 .34-.5-.07-.15-.4-.54-.08-.22.77.19.83-.4.13.34.81h-1.04l-2.1 1.3-1.45.7-.73-.36-.56-.72-.48-.26-1.06-.23-2.52-.26-.47-.16-3.8-.02-1.11.2-.43-.38-.65-.19-.66.2-.73-.28-1.04-.9h-1.43l-.62-.36-1.6-.12-1.72.1-.46.28-.53.72-.77.35v1.1l-9.4-.01v-5.2l-10.35.02v-5.2l-20.71.01.01-10.39h-7.21l-13.57-.03v6.94h-10.35v3.48l-3.46-.01v3.44l-3.46-.01v3.46l-13.78-.01-7.79-.05-2.81.02-7.04.02-.63-.04-.77.42-1.63.64-1.09.76-.7-.44.2-.57h-2.32v.86h-.86V600h-5.6l-.48-.58-.8.15-.03-.43h-.85v.88h-.8v-.65h-.91l-.06 2.37-.36 1.06-.02.46.44 2.02-1.65-.17-.08-1.6h-2.1l.14.45.8.34-.3.45.51 1.1.14.67-1.73.01v.43h-2.57v-1.69l-1.68-.09-3.5.03v-1.73h-1.73l-.02-5.16-3.46-.05.01 3.26-.14.21-1.58.02v3.47l.25.85h.62v.86h-.86l.02 1.71-2.52.02-.03 1.67-1.8.09v.86l2.59-.01-.03 2.6h-1.01l-1.14.32v1.42l-3.5-.01-.6-.56-.51-.14-.06 1.12-.48 2.31.05 3.07.2.33 1.23.83 1.04 1.95-.48-.04-.11.75-.8-.43-.2.35-.48-.07-1.08.67-.92-.08-.3.28-.96-.42-.97-.03-.91.92-.28.03-.87.63-.57 1.12-.38.27.01-2.53-1.7.01.02-1.73-.03-10.37h.25v-13.91l.02-7.04h-1.72l-.05-3.48-.2-5.2.06-12.06 12.06-.01.05-10.45.05-3.47-.06-3.52h-1.74v-3.5h-1.75v-1.76h-.87l.03-3.5h-.87l.03-1.75h-1.74l.12-10.52h-1.75l.14-4.6-2.1-.01.04-10.54-7-.12.07-3.53-.05-1.73-1.77.01.03-15.72 31.49.16 21-.02.98-.12 8.8-.45H669.26v-.09l15.31-.11.18-.68-.4-.44-.52.28-.38-.62.32-.51-.26-.38-1.1-.45.28-.42.65-.44.28-.57-.04-.47-.64-.07-.52-.4.25-.31.74-.34-.5-.83-.6-.21.05-.76-.32-.72-.72-.63.41-.73-.97.07-.2-.25-.07-.97-.75.14z"/>
    <path region="22" short-name="17" long-name="State Senate District 17" value="1" d="m458.45 218.34.98.01 7.78-.1H489.4l14.66-.06 14.68-.03 26.53-.07 3.89-.09 1.38.07 4.44.03 8.17-.01 2.93.06 15.84.04 4.98.05h27.04l15.65-.01 20.96-.02 21.98-.03h7.33l14.96-.02 21.95.07 6.45-.09 15.3.02 29 .02 17.82.02h8.27l3.22.03 8.74-.03 10.69.04 1.02-.02 15.27.03 18.02-.07 15.31.04 3.14-.04 7.49.02h9.21l4.67.03 7.56-.02 17.28.03 15.16.03 19-.04 8.64-.03h12.06l7.8-.02 21.35-.02.02 1.64-.03 4.74.01 10.62-.02 2.33.05 12.67.04 12.26.02 3.06-.05 3.35.06 9.2-.05 3.26.05.74.04 9.17-.01 1.26.06 4.63.03 14.7.03 1.91.04 12.63.1 17.97-1.23-.8-.62-.1-1.68.45-1.04-.04-.25-.19.03-.7-.43-.82.43-.85.55-.66.19-.78-.5-.32-.22.5-.48.14-.8-.3-.57-.7-.52-1.68-.26-.49h-.8l-.57.51-.52.83-.97 1.1-.3.01-.91-.71-.54-.99.13-1.05.3-1.07-.5-.3-1.17.3-.26.39-.01.93.54.88.08.96-.15.42-.62.41-1.32.45-1.28.07-.54-.14-2.26-1.28-.8-.77-.65-.44-.93.01-1.59.72-1.33-.16-.61.09-.77-.38-.3-1.6-.3-.89-.59-.58-.75-.42-.94.08-.6-.1-1.86-.93-1.22-.85-.93-.48-.67-1.05-.34-1.35-.39-.67-.72-.41-.65-.12-.88.25-1.12 1.16-.93.34-.78-1.19-.6-.6-.68-.26-.68-.03-1.2.55-.9.88-1.22.92-.75-.19.51-1.97-.65-1.22-1.08-.92-.14.13-.3-.19.07-.56.75-.06-.1-.63-.43-.3-.27-.59-.52.1-.2.56-.67-1.59-.68-.39-.27.25-.99.04-.35-1.35-.52-.49-.15-.61-.41-.71.25-.5-.72-.65-.2-1.02-.42.04-.24-.62-1.61-1.18.44-.66-.45-.47-.19.84-.83-.46.13-.8.24-.2.2-1.09-.35.03-.82-1.63.32-.72-.05-.63.75-1.24 1.23-.8.1-.35.62-.27.35-1.27h-6.03l-.01 5.43H913.4l-.28 1.19-.32.35-.82-.04-.45 1.04-.84.24-.2.54-.58.71.14.56-1.2-.34-.95.3.29.34-.19.86-1.3.1-.04 1.06-.62.76-.67-.42-3.28-.02v-1.57l.17-1.37-.84-.07-.62-.46-.51-.14h-2.5l-.05-1.78h-5.97l.22 1.36-.2.47-.41-.04h-3.53l-.06-3.6-4.77-.02-.6.62-.03 1.2h-3.6v2.73l-.06.89-1.4.11-.6-.11-12.87.02-.34.87-1.25-1.48-.34-.76-1.13-.5-1.13.49h-1.37l-.47-.55-.98.4-.3.43-.87-.26-1.02-.04-.27-.18-.02 6.38-.7.32-.42-.16h-1.77l-.1-.93-2.37.02-.64-.24-.44.25-.16.9h-1.62v2.56l-.52.14-3.06.02-.05-1.8-.64.01-.5.52-.67.38-1.73-.04.14-2.02-1.07-.03-.37.32-.48-.06v-1.8h-3.6l-.01-1.81-.88-.03-2.3-1.42-.12-.37h-2.55l.1 7.3-5.01-.06.02-5.41-8.97.08-.08-1.99-7.9.09-.5.22-.19.81.05.75-.42-.1-.31.44.07 1.04.4.53-.43.8.22.46-.04.74.51.63.15.62-.23.43.27.45.52.26.42.54.15.66h.63l.15.28 1 .53 1.06.21.25.71-1.13-.18-.45.54-1.1-.02-.65-.24-.49 1.36-.79-.3-.17-.68.03-.77-.64.2-.4-.45-.96 1.16-.28-.4-.72.12.01-.48-7.71-.01-.9-.31-1.5.36-.77.38h-.43l-.05-2.27h-1.7l-.8.45h-1.1v-.77l.52-1.07-.22-.93-1.49-1.4-.2-.49-.87-1.2-1.31.18-.74-1.04.11-.33-2.11-1.03-5.47-3.88-4.59-5.07-4.08-5.37-.38-.34-3.98-2.8-2.86-2.07-.73-.63-1.34-.48-1.1-.05-.87.27-.76-.2h-2.06l-1.3-.46-4.1-1.66-2.4-1.19-4.84-1.67-.36-.08-4.86-.41-2.84-.92-.66-.48-2.65-1.58-3.63-2-1-.66-2.02-1.13-1.8-.55-1.43-.06-2.7.23-3.1-.32-.52.03-16.34 2.88-1.13.6-7.13 9.01-.7.57-2.9 1.3-.66.15-1.55-.02.4.46-.02.73-.84.12-.05 1.22-.62-1-.96-.68.27-.33.1-.8-.71-.36h-3.82l-.42-.05-4.13-.92h-2.56l-9.86-1.44-.72.07-.96.4-.76-.02-.92-.36-5.04-1.56-.18.6-.83-.42v-.37l-.9-.1-1.85-.59-.62.09-.39-.5-.98-.68-.5.17.1-.77-.91.02-.34-.32.24-.46-.08-.72-.86.38-.47.67-.65-.94-.61-.2-.72-.5.2-.7-.24-.34-.63.07-.83.33-.63.06-.95-.36-.14-.76-.74.28-.8.1-.32.45.24.69-.1.4h-.56v.67l-.73-.32-.35.6.65.6-.81.66-.72-1.05-.56-.18-.43.25-.26.84-.28-1.43-.56.4-.63.06-.26-.54.65-.15-.83-.72-1.03.02-.33-.97-.42.43-.46-.04-.37-.54-1.04.87-.42-.42-.2-.56.12-.87-.38-.54-.9-.24-.21-1.1.43.08.11-.7.37-.43-1.57-.82-.27.3-.65-.15-.56.12-.69-.27-.76.53-1.2-.23v.51l-.68.26.06-.62-.6-.28.17-.75-1.17-.63-.63.15.08.76-1-.28-.63.93-1.92-.89-.07-.37.45-.39-.72-.33-.92-.64-.79.48.67.4-.33.63-.65-.48-.19-.9-.49.93h-.56l-.3.35-.45-.7-.39-.06-.56.53-1.32-2.67h1.36l-.07-2.2-1.61-.66-.14-.63-.66.4-8.86-3.26-1.07-.35-3.2-1.18-4.13-.75-4.78-.82-3.68.13-10.67-1.3v1.48h-.9v-1.46l-1.57-.29-9.77.33-4.15.9-.6.33-2.34 2.24-.54.23-2.65.25-1.82.4-.61-.08-1.62-.5-1.99-.16-1.7-.16-3.08.16-1.2.44-.83.47-.68.6-.52.24-.51-.32-2.25-.29-1.75-.11-1.83.24-1.57-.14-.9-.32-.88-.11-1.15-.7-.69-.1-1.02.41-2.24.4-5.01-.13-3.25-.38v-2.6l-.62-.89-.6-.59.24-.46-1.01-.94.04-1.17-.62-1.02.17-2.2-.5-1.47-.68-1.1-.28-1.3-.34-.83-1.17-1-.64-.42-1.26-1.4-1.1-.54-.66-.6-.43-.07-.7.6-.6.06-.87-.19-.67-1.1-.6-.21-.38-1.32-.55-.55-.94-.14-.75-.6-1.04-2.45-.14-.62.68-1.9-.52-.6-.22-.72.7-.86.12-.62-.63-.86.24-.57-.9-.92-.02-.8-.55-.49-.52-.9-.4.1-.55-.62-.78-.35-.7-1.08-.38.33-.45-1.57-.56.25-.27-.21.4-.66-.1-.44-.6-.58-.94-.6-.61-.6-1.73.33-.68-.12-.5-.52.04-.58-.4-.91-.34-.3-.95-.26-.2-.54-.73-.54.12-1-.13-.55-.53-.2-.33-.74-.78.16-.77-.07-.58-.32.33-.47-.28-.41-.47-.08-.38-.7-.42.2-.43-.46-.64-.07-.28-1-1.18-.05-.57-.28-.28-.99-.85.23-1.15-.97-.7-.29.02-.96-.54.27-.56-.44.6-.29-.07-.52-1.1.34-.72-.65-.29-.6-.36.8-.52.6-.6.24-.96-.55-.48.25-1.32-.92-.5.37-.46-.02-.66-.82-1.08.3z"/>
    <path region="23" short-name="5" long-name="State Senate District 5" value="1" d="m143.1 315.64 3.12-.02-.05-1.24.2-.37-.45-1h.8l.43-.99h3.62l.02 1.82.62.7.29.59-.74.16-.46.93.68.43 1.56.04.78-.24 1.3-.79 2.1.01.47.44-.01 1.38 4.52-.04.05.44 1.5.15 1.08.56.07.63.3.11.8 1.16.65.26.12 1.19 1.59-.01 1.54-1.3.66-.17.82-.7.15-.37.7-.46.39-.96.72.62.72-.02.32.67.37.25.9 1.16.18-.45 1.4-.73.3.01 1 .49 1.03.14.67-.45.66.02.53.61 1 .49.1.42.5.56.36-1.55.38-.19.9-.93.89-.3-.4-.38 1.17-1.55.16-.37 1.15-.85.62 1.46.72.56.29.7.6.95.19 2.17-.99 1.4-.08.5 1.34 1.43 1.8.8.62.85.51 1.11.66.47-.23 1.16.95 1.01.4.07.57.65.52.33.64 1.3.06.7.5.72.56 1.9-.3.1-.73.86-.1 1.43-.55 1.04-.75 1-1.14.62-2.84.36-1.44 1-1.65.2-.87.32-1.16-.64-1.49-1.82-.72-.67-1.6-.95-.5-.09-.28.88.89 1.1-.01.8-.41.09-.1.54.23.85.46.73.15.66.9 1.22-.04.6.24.4.77.23.26-.58.67.3.66-.56.91.93 1.73 1.38.33.69.48.13-.15.94.32.34.66-.5.9.31.34.84.42-.06.34.8-.75-.23-1.97 1.19-.36.39-.53.07-1.2.56-.7-.05-.58-.27-.31.17.06 1.4.72.8.12.83-.44.64.8.73-.08.4-.53.2-.15.4-.88.74-1.2-.18.1-1.38h-1.42l-1.62-.52.1-.89-.62-.43-.52.48-.26.75-.64.18v-.47l-.4-.18.28-.63-.09-.47-.41-.17-1.2 1.13.3-1.3-1.17-.34-.39.22-.42-.67-.19-1.2.25-.28-.96-.86-.02-.45-.51-.82-.09-.86-.86.1-.32.41-.64.28-.94.13-.43-.16-.7.09-.85.32-.75-.25-.54.23-.65-.11.07-1.16-.5-1.75h-5.96l-.68-9.23-1.15-2.17.16-.62.57-1.1.35-1.36.61-.71-.3-1.17.07-1.24-.6-.22.02-1.17-1.56-.72-.5-.51-.15-.62.03-1.45.16-.84.48-.83-.24-.87-.82-.1-.38.46-.07.64-.45-.01-.12-1.45-.6-.1.14 1.1-.18.28-.75.3h-.6l-.6-.48.01-.66-.23-.32-1.47-.47-.1.4.35.5-.11.3-3.05 1.47-.69-.16-.01-.68h.6l.37-.65-.34-.66-.67-.13-.37-.37-.45-1.2-.77.25-.26-.76-.45-.09-.01-2.55.5-.12-.05-.44-.86-.2-1.15-.07-1.6.52-.37-.08.05-1.38z"/>
    <path region="24" short-name="45" long-name="State Senate District 45" value="1" d="m164.75 488.52.36.06-.01.8-.43.4.19.34 1.55.74.44-.1-.01-1.02.15-.7 1.22-.1.06-.42.84-.97v-2.02l1.87-.02v-1.38h.54v-.6l.73-.03 1.1.53 1.85-.26.98-.79.2-.36-.13-1.15.31-.49.6-.1.56.39.45.66 1 .42.76.9.99.5 1.59 1.34.44.57.74.41.7 1.45h.9l.7.44 2.46 2.18 1.3 1.22.86.52.42.67.7.35-.1.32.9.3.3-.22.76.4v1l.46.78-.12 1.06.2.34-.3.58.75.54.96 1.3.4.04-.46-.96 1.43-.36.34.45.65.3.8.03 5.52.88.61.18 1.34-.17 1.8.51v1.4l-9.71.03.01 7.02-10.45.02v-.32h-2.85l-.39-.02-16.92.04-10.18-.03.03-5.4.06-.96h3.53v-1.77l5.3-.03-.5-.78-.36-.92-.06-1.49-.19-.64.36-1.33-.48-.53-.97-.28-1.25-1.5-.54-.81.33-.92.73-1.31.67-.83z"/>
    <path region="25" short-name="7" long-name="State Senate District 7" value="1" d="m.01 316.86.45.26 2.24.98-.16.42.42.53v.55l-.7.97.05.43.4.33-.21.58.1.77.7.63.02.6.82.39.45-.22 1.4.38.63.05 1.03.73.32-1.08.97-1.98v-.72l.4-.59 1.3.29 1.07-.1.63-1.43 1.04-.37.45-.7.88-.3.48.23.73-.33.16-.62.6.14.34-.33.53.2.57-.08.23-.78 1.16-.24.14-.3 1.08-.12.96-1.69.51-.42.46-1.33-.13-.28.6-.81.4-.07.62-.55 1.33.23 1.12.97.91.23.74.52.3.77.63.47-.04.61.48 1.13.37.2.47.87.91 1.2-.25.69.1.8-.78.1-.11.52-.52 1.06-.41.44.18 1.31.25.25 1-.08.56.62.2.73.42.2.56.73.04.63.98 1.02-.32 1.24.8 1.26.19.89-.06 1.44.52.85-.28.87-.39.14.27.73.83.52.73.87.75.42.08.44-.28.92.84.98.01.72.42.6.38-.02.62 1.14.84.4.5-.2.29.6.93.65.4.97.33.36.3 1 .13 1.43-.38 1.47-.37 1.01.1.45-.42.36-.47 1.38.15.83.72.5.2.42-.1.76.64.54.89.45.23.64.5.15.7-.24.95.07.55-.26.64-.64.6.05.66.34.24-.5.46-.38 2.19.97.57.2.33-.4-.02-1.75.29-.69 1.8-.29.06.56-.25 1.26.22 1.12 1.52 1.03 1.32-.5.18-.43 1.24-.08.3-.42.84-.25.53.03.75-.51.7.89.75.24.46.92.23.83 1 1 .97-.65.12-.54.47-.45.9-.21.27-1.2.45.02.87.63.64.17.63-.67.47-.17.53-.53.42.4 1.3-.4-.14-.4.53-1.18.02-1.6.13-.38-.43-.62-.06-.69.75-.17.16-.79-.03-.7.35-.37.4.27.36 1.13.24.26.78-.25.3-1.72.49-.21.2-.65-1.2-1.4.01-1.56-.33-1.2h11.98v-9.94l.05-.9v-4.3h-.8l-.03-10.84 2.76-.03H100l7.15.01H118l14.3.03v1.91l1.47-.02-.05 1.71.42.6-.01.56-1.84 1.7-.05 1.96.14 1.58h.99l-.98 1.33-.07.46.42.94-.28 1.35-.28.61.67.55 1.01-.37h1.24l1.69.18.13.4 1.04.52v.61l2.87-.04.12 7.19.46-.01-.26.76-.24 1.29-.46.74-.36.09.08 1.14.4.5-.4.45.53 1.67-1.22-.3-.73.51.51.6.43 1.34.3.38h-10.34v10.76h1.23l.01 10.6-10.59.01-.03 5.38 1.7.01.02 9.39.04 8.5 12.43-.03 7-.02.34 1.19.36.39.29-.6.68-.52.68.3.15.45-.62.56-.98.34-.12.33.15 1.6.71.23.26.62-.29.95-.48.55-.66.45-1.08.37-.4.31-.42.94.28 1.57-.5 1.53-.26 1.28-.66.87-.12 1.14.7.21.33-.13.62-1.23 1.04-.7 1.53.21.25-.13.96.1.91-.24.87.3.94 2 .18.83-.13.4-.8.76-.9.03-.74-.65-.58-.2-.47.23-.04 1.89-.37.74-.8.65-.16.51.16 1.66-.2 1.86-.7 1.5-.13.7.8.81.48.78.7.42.43 1.05-.34.6.23.46 1.68-.75 1.02.42.37.4h6.6l.52.01v21.33h1.33v5.36l-.6-.07-.5.19-.5.78-.48.38-.98-.57-1-.25-.63.84-.9.83-1.58-.22-.67.11-.37 1.47.4.67.14.69-.26.18.12.7-1.5.83-.27.72-1.62-.65.32.88-.67.31-.82.94.01.5-.92.08-.53.27-1.06-.63-.79-.11-1.25.19-.67-.25.11 1.12-.06.84.41.55.4 1.66-.47.32-.95.74-1.22.01.02 1.75h-2.67l.01 1.92-1.58-.7-.7-.15-.62.12-1.37-1.2-1.9-.03v2.07l-1.82-.02.07 3.55h-1.64l-.01 15.82h1.43v10.48h-10.48v1.28l-.59-.24-.62.27-.6-.47-.34.34.06.48-.72.8.05.46-.23.74-.55.4-.73-.07-1.13.32-1.07 1.8-1.22-.01-.15-.95-.82-.2-.77-.67.49-.87-.04-.85.4-.63.66-.43.37-1.29-.2-.43.23-1.1-.72-.54v-.3l-.81-.43-.24-1.12-.26-.15-.8.4-.73-.77-.95.1-.85-.2-.6-1.16-.9-.4-.64-.58-.44-.62-.05-.72-.38-.35-1.78.61-.32.82-.35.14-.27-.99.27-.94-.37-.63-.56.03-1.2-.57-.37-.8-.29-1.22.37-.47-.39-.9-1.1-.2-.52-.55.38-.86.27-.03.74-1.02-.07-1.33-.35-1.18.61-1.53.6-.31-.26-.77-.83-.12-.56-.53-.89-.3-.69-.47.17-.37-.45-.49-.49-.15-1.07-1.29-.27-.6-.56-.62-.07-.36-.59-.67-.03-.5-.83-.28-.48.03-.94-.22-.11.39-.64.24-.92.08-.25-.55.1-.84-.54-.44-.37-.86-.51-.38.14-.68-.6-1.56.28-.22-.2-1.3h-.32l-.45-.5-.07-1.01-.54-.36.06-.57-.86-.34-.39.14-1.18-1.28-.43-.67-.76-.68-.31-.82-.4-.54-.25-1.47.2-.57-.34-.64-1.33-.03-.99-.6-.05-.6-.5-.66-.08-.4-.56-.5.04-.57-1.02-.94-.07-.3-1.12-.3-.78-.86-1.76-.2-.4-.54-.1-.49-.53-.57-.06-1.38-.52-.82-1.27-.05-.77-.17-.34-.4-.8-.17-.05-.65.43-1.5.37-.53-.26-1.18-.34-.72-1.47-.96-.38-1.13-.29-.4.48-.68-.4-.6-1.4-.81-.45.28-.67-.2-.45.31-1-.69-.45.08-.7-.37-.59.28-1.66.1-.22-.45-.56-.46.03-.69-.4-.33-.94.14-.63.26-1.04-.16-.02-.45-.77-.64-.43.36-.98.26-.6-.9-.46.02-.89-.3-.7-.61-1.09-.32.02-1.21-.73-1.06-.33-.98.18-.4-.94-.57.09-1.66-.7-.78-.7.14-.76-.42-.28-.65.06-.77-1.5-.53-.53-.72-.63-.38-.8-.2-.9.36-.55-.05-.52.3-.46-.66.17-.58-.35-.64-.53-.39-.03-.55-.5-.32-.33.15-.84-.1.14-.86-.93-.28-.44-.45h-1.66l-.7-.67-.08-.6-.75.1-.74-.13-.28.3-.78.15-.6-.2.24-.69.33-.33.37-1.17.66-.14 1.22-.59.7-.61h1.24l.7-.25.14-.3.8.02.5.47 1.01-.1 1.27-.29.74-.43.68-1.71.16-.74-.36-.23-.82.2-.26.23h-1.08l-.15-.64-.5-.7-.52.32-1 .16-.31-1.95-.71-.18-.87-1.64-.18-.95 1.3-.53-.56-.82-.75.23-1.6-.43-.33-.42-.57.12-.87-.46-.32-.78.1-.53.85-.79.45-.67.64-.6.72-.29.1-.57 1.3-.22.05-.78.72-.56.67-.83-.44-.8-.3-.2-.13-1 .53-.63-.16-.85-1.13-1.36-.34-.05-1.53-.88-.5-1.53.42-.9-.08-.73.49-.66-.15-1.05.45-1.6-.74-1.3-2.28-1.73-.38.2-.86-.05-.54-.74-.31-.75.05-.82.23-.73-.41-.73-.66-.44-.3-.64-.56-.14-.9.27-.85.46-.57-.45-.3-.71v-1.1l-.42-1.21-.58-.6.14-.99-.26-.87.13-.4-.1-.9.3-.52-.48-.81.01-.49-.72-.7-.96-.49-.37-1.03-.56-.76-1.62.78-.45-.4.03-.52-.3-.31-.72-.08-.05-.47-1-1.79-.35-.28-.1-.67-.74-.79-.64-1.01-.58-.5-.68-.2.25-1.39-.3-.42-.77-.04-.4-.22-.15-.8-.73-.43-.11-.86-.38-.76-.58-.5-.08-.93-1.02-1.55-.67-.67-.22-.5-.66.15-.9-.74v-10.16l.02-8.22z"/>
    <path region="26" short-name="15" long-name="State Senate District 15" value="1" d="M365.63 477.63h9.9L375.5 467l21.16-.05v-1.31h10.57l-.02-9.36.71.04 12.17.02-.01-17.76.72-1.33.46-1.3-.02-.79.48-.03v-1.55l-.4-1.66.2-2.91.26-.39 1.27-1.26.27-1.7.5-2.09.2-1.38-.02-1.75.66-.23 2.57 1.42-.17-.83-.37-.21.2-.75-.07-.85-.26-.34.25-.96-.05-.6-.3-.5.25-.6.2-1.62.42-.28-.46-1.05.27-.8.38-.24-.34-.71.53-.25.16-1 .82-1.73.02-.5.35-.3-.11-1.17.53-.05.54-.37.2-1.02.58-.1.6.2.73-.91-.54-.45.67-.2-.51-.8.28.03 7.67-.1-.06 9.8 10.7-.02.09.11v3.56h7.09l24.82-.02 7.13-.02.76-.07.75-.43 1.05-1 .43.04.58-.8.42.43.26-.48.61-.42 1.2-.27 1.43-1.13.15-.6.82-.37.18-.37.92-.2.28-.5.83-.35.44-.57.5-.08.02-.54.96.08.14.31.76-.23.48.32.24-.62.82.25 1.28-1.55.3.34 1.18-1.19.93-.42.4.12.54-.57-.02-.8 1.76-.67.43-.6 1.05-.5.33.32.85-.08 1-.34.79-1.44.7-.19.6-1.11-.27-.46.16-.62-.07-.65-.3-.24.22-1.3-.35-.6.25-.48-.39-.3.67-1.15.17-.6-.4-.57.53-.6-.27-.3.51-.82.22-.73-.11-.57.47-.28-.64-.4.7-1.66-.63-.7.37-.33.06-1.28-.52-.72.01-.4.54-.37-.47-2.07.2-.27-.18-1.02.5-.3.27-.85.52.05.83.43 1.15-.08 1.32.59 1.17-.22.73.27.63.58.52-.1 1.95.17.4-.26.6-.81 1.19-.91.53-1.26.79-.66.9-.23 1.8.03 1.3-.5 1.25.36.41.47.45.07.48-.34.4-.65.81-.7.68-.24.65.3 1.53.14.37.4.87.27 1.32-.88.99.18.48.7.93.36.56.62.5.15.98-.12.45.7.77.16.43-.26 1.08.02.5.62.45.07 1.15-.56.62-.72 1.07-.72.12-.6.34-.22 1.13.01 1.86-.99.64-.12.6-.36 1.33-.18.5-.28.98-1.47 1.08-.32.43-.4-.08-1.28.36-.57.45-.28.73.1.84-.2.65.1 1.47-.2 1.1.17.62.42.84-.14.74.04 1.74.81.27.44.48.13 2.3-.17.47-.37 1.05-.51.69-.16.63-.43 1.19-.39.68-.52.85-.09 1.76.97.64.14.95-.25.85-.74.63-.08.6-.3.9.15.58-.11.74.17.72.9.45.2 1.44.1.3.2v.63l-.62.72.07.8 1.8 1.52.3.5-.17.45-.7.58-.7.28-.56.43-.33.7.53.96.58.04.59-.55.85-.27 1.57-.06.68.1 2.5 1.3.42.3.73.17 2.26 1.45.48.47.42.9.58.64.61.33 1.02 1 .21.8-.19.71-.5.85.3.87 1.22 1.29.43.2h.91l.5-.38.95-.04.85-.32 1.24 1.02.22.99.69.46 1.33-.15.62.57.6.86.6-.04.61-.26 2.12.3 1.7-.6.49.12.78.92 1.13.06.81.74 2.04-.57.79.02.45-.24.5-.65 1.14.76.49.72-.25.58.1.4.8.19.77-.13 1.22.38.77-.65.4-.53.04-.57.36-.48.5-.08.9.35.06 1.36.57.07.62-.27.3.89-.23.63-.4.42.38.45 1-.02.56-.53-.01-.51.45-.23 1.18.4.57.65-.1.63.23.5.93.18.87-.5.45.69.04.88h1.21l.79-.41.08-.72-.6-.46-.03-.3.76-.33h.63l.93.58 1.9.14 1.32-.43.57-.6.7.02.51.58.6.09 2-.37 1.19-.54.77.35.37.5.61.34 1.47-.08 1.11-.36.86-1.08.45-.2h1.05l.53.33.48-.01 1.24-.34.53.34.52-.07 1.18-.78 1.02.47.55.74 1.87.76.9.12 1.4-.37.62-.55 1.07.36.86.92.36 1.06 1.43.44.69-.36.41.02.41.48.2 1.15-.46.7-.07.72.89 1.13.15.62-.12 1.18.59.75 1.16.55.08.74-.49 1.27-.5.7-.01.6.36 1.03-.6 1.12.1.76-.12.78.26.31-.66.5.27.6-.24.3.57 1.27-.3.48.36.44-.26.57.22 1.89-.35-.07-.26.6-.64.06-.22.49.35.52-.42.27-.52-.29-.22.6.56.15-.03.75-.98-.12.24.45-.28.51.18.35-1.32.72.48.62-1.09.24.3.64.43.18.3.5-.43.2.12.56-.42.29-.3.7.56.78 1.06.3-.96 1.17-.07.84.9.42-.6.53-.68.34.05.26.81.44-.92.86-.2.64.98.23-.21.78-.44-.13-.22.5.66.58.54-.06-.24.78-.8-.45-.61.9 1.63.8-.04.66-.47-.24-.55.28.53.59-.02.52-.45.39.7.23.25-.6.9 1.37.12.36-.2.72-.6 1.26.36.75.93.82-.63.48.35.58.32-.2.1-.58.57.5-.93.67.46.67-.3.33-.5-.16-.3-.61-.37.26.07.44.53.44-.1.29.27.78-.35.04-.34-.7-.42-.28-.39.48.52.51.1.64.74.3.02.4-.48 1.12-1.07-.07.08.71-.37.31.52.57 1 .03.36.6.59.08-.07.46-1.04.24-.43-.23-.34.29.92.28.4.29-.01.53.3.26.1 1-.04 1.29.46.01.47-.44.37.36-.54.46-.2.76.57.11-.4.77.4.39-.3.66.2.6-.56.27.24.36 1.31.37.16.3-.2.76-1 .96.18.84.74.53.38-.13.37-.67.47.59.02.87 1 1.13-.55.22.48 1.42-.84.6-.45.5-.55.3-.19.56.37.75-.55.2.36.45.04.46-.46.2-.37.66.03.58.71.71-1.01-.16-.74.42.69.6-.73.13.48.59.49.23-.48.51-.43-.19-.49.12-.05.4.5.7-.47.42.26.91-.8.32-.04.42.38.48-.39.51.17.84.38.32.33-.46.39-.07.8.3-.34.85.5.08.53.37.64-.1-.56 1.03.48.58.58-.14.2.3.53.88.75-.14.07.97.2.25.97-.07-.41.73.72.63.32.72-.06.76.62.21.49.83-.74.34-.25.3.52.4.64.08.04.47-.28.57-.65.44-.28.42 1.1.45.26.38-.32.51.38.62.52-.28.4.44-.18.68-15.31.11v.09h-20.83l-8.8.45-.99.12-21 .02-31.48-.16-.03 15.72h1.77l.05 1.72-.07 3.53 7 .12-.03 10.54h2.1l-.15 4.6h1.75l-.12 10.52h1.74l-.03 1.76h.87l-.03 3.5h.87v1.76h1.75v3.5h1.74l.06 3.52-.05 3.47-.05 10.45h-12.06l-14.05.06h-6.75l-20.14-.05-.08 10.51-15.65-.02.08-10.5h-4.13v-10.46l-6.47.04-13.79-.03-32.05-.15v4.35h-10.6v-.92l-13.86-.03-13.12-.06-4.2.01h-17.44l-5.72-.01.16-.75-.2-.46.15-.9-.22-.82.12-.43-.33-.36-.01-.48-.4-.56-1.02-.27.1-.91.3-.73-.8-.5-.6-.62-1.09-.15.06-.64-.57-.14-1.06-.95.34-1.6.33-1.02-.13-1.4.18-.33.01-.93.71-.73.14-.45.8-1.23.39-.27-.07-.6.65-.57.93.23.52-.54-.2-.52.25-.47-.4-1.2.19-.72.61-.77-.2-.97.26-.54.51-.44v-.6l-.56-.84-1.17-.46-.17-.42-.8-.7-.42-.09-.29-1.08-1.1-.3-.44-.37-.62-.1-.17-.42.5-.73-.18-.44-.67.05-.8.26-.8-.12-.39.27-.39-.14-1.17.34-.3.38v.7l-.97.9-1.74.41-1.08-.32-.5.12-.63-.83-.92-.3-.4-1.24.31-1.1-.27-.78-.12-1.48-.4-.65.32-.93-.34-1.12-1.05.08-.25-1-.35-.43-.05-1.08-.29-.41-.88-.66-1.95-.33-.44-.4-1.53-.67-.49-.78.12-.3.79-.5.42-.47.62-.25.1-1.39-.71-.5-.46-.58-.05-.52.46-.5-.05-.96-.27-.39-.15-1.11.8-1.06-.3-.2.23-.6-.35-1.32-.82-.3-.66-.03-.64.19-.98-.16-.12-.55-.83-.73-.27.16-1.4.12-1.04.41-.12-.84.37-.9-.43-1.18-.13-1.16-.55-.2-.29-.63-.6-.12-.37.17-1.04-.09.06-.48.44-.64-.3-.7-.04-.61-1.23-.4.77-1.04.38-.28-.34-.57-.3.15-.57-.73.54-.45.1-1.67-.8-1.11-1.6-.44-.66-.64-.5-.24.29-1.46-.12-1.91-.57-1.13-.72-1.06.48-.71-.28-.26-1.22-.1v.96l-.7.58-.6-.1-1.11.14-.93-.54-.7-.2-1.06.58-.47-.45-.5.19-.54-.3-1.23-1.36-.06-.64-.74-.74-1 .04-.51-1.36.34-.2v-.5l.52-.23v-.37l-.48-.54-.07-.72 1-.45.4-.41.45-.06.28-.48.6-.19.5-1.76-.46-.05-.42-.55-.84-.75-.9-.15-1.28-.47z"/>
    <path region="27" short-name="1" long-name="State Senate District 1" value="1" d="m0 218.04 4-.05 3.05.04 38.6.03 7.38.05 17.02.13 12.66-.05 27.38-.12-.53.37-.5.87.36 1.02.87.38 2.31-.02 1 .84-.16.95-.38.18-.47 1.34-.72.3-.36.75-.74.88.06.87.73.23.19 1.46.26 1.04.05.85-.2.83-.4.76.06.34.64 1 .7.78.14.95.22.36v1.12l-.34.63.12 1.04-1.1.42-.23.77-1.22.1-.4 1.62-.27.28-.14.92.81.33.68.65.88-.15.55.26.6-.05.72.5.78-.27-.1 1.25.71.49.25.56.48-.12.62.34.67 1.15.01.4.41.98.64.1.8-.13.51.97-.58.4-.01.77-.55.54-.5.13-.61.68-.35-.1-1.64.55-.67.06-.67.45-.4.67.07.43-.68.85.1.66.62.37.14.77-.44.27-.05.58-.47.97.4.5.92-.05 1.72.76 1.17.8.24.68H97.87l-1.23.04-.01 10.7h3.24v5.63l.01 16.24h.08v5.07l.05 16.64H88.45l-2.76.02.03 10.84h.8v4.3l-.05.9v9.94H74.5l.33 1.2-.01 1.56 1.2 1.4-.2.65-.5.21-.28 1.72-.8.25-.23-.26-.37-1.13-.39-.27-.35.37.03.7-.16.79-.75.17.06.69.43.62-.12.38-.03 1.6-.53 1.18.14.4-1.3.4-.42-.4-.53.53-.47.17-.63.67-.64-.17-.87-.63-.45-.03-.27 1.21-.9.2-.47.46-.12.54-.97.66-1-1-.23-.84-.46-.92-.74-.24-.71-.9-.75.52-.53-.03-.84.25-.3.42-1.24.08-.18.43-1.32.5-1.52-1.03-.22-1.12.25-1.26-.06-.56-1.8.3-.29.68.02 1.74-.33.4-.57-.19-2.18-.97-.47.37-.24.51-.67-.34-.6-.05-.63.64-.55.26-.94-.07-.72.24-.49-.15-.23-.64-.89-.45-.64-.54.1-.76-.2-.43-.71-.49-.15-.83.46-1.38.41-.36-.1-.44.38-1.02.38-1.47-.12-1.43-.3-1-.34-.35-.4-.97-.93-.66-.29-.6-.5.2-.84-.4-.62-1.14-.38.01-.42-.59-.01-.72-.84-.98.28-.92-.08-.44-.75-.42-.73-.87-.83-.52-.27-.73.4-.14.27-.87-.52-.85.06-1.44-.2-.89-.79-1.26.32-1.24-.98-1.02-.04-.62-.56-.74-.42-.2-.2-.72-.57-.63-.99.08-.25-.25-.18-1.3.4-.45.53-1.05.1-.52.8-.1-.1-.81.25-.69-.92-1.2-.47-.88-.37-.2-.48-1.12.04-.61-.63-.47-.3-.77-.74-.52-.91-.23-1.12-.97-1.33-.23-.63.55-.4.07-.59.81.13.28-.46 1.33-.51.42-.96 1.69-1.08.12-.14.3-1.15.24-.24.78-.57.08-.53-.2-.34.33-.6-.14-.16.62-.73.33-.48-.23-.88.3-.45.7-1.04.37-.63 1.42-1.07.11-1.3-.29-.4.59v.72l-.97 1.98-.32 1.08-1.03-.73-.64-.05-1.39-.38-.45.22-.82-.38-.02-.6-.7-.64-.1-.77.22-.58-.41-.32-.04-.44.68-.97v-.55l-.41-.53.16-.42-2.24-.98-.45-.26v-22.22l-.01-11v-39.08Z"/>
    <path region="28" short-name="39" long-name="State Senate District 39" value="1" d="M184.97 508.34h2.85v.33l10.45-.02-.01-7.02 9.7-.04.01-1.39.53-.37v-1.65l5.44-.01v-7.06h4.4l.82.03.04-3.6h9.47l.95-.01v3.07l1.31-.71.97-1.47.35.01.44.57.44-.06.62.82.11.98-.16.53.95 1.61.24.6h.36l1.05.49 1.05 1.13.66.22.46.68.5.19.12.48.4.36-.8 1.07.1 1.39.36.37.83-.35.44.68.93-.28 1.58.57.44.7.46.2.48.58 1.38-.63.17-.28.67-.1.82.15.31-.53 1.11-.78.74-.08.46-.57.7.14.02 23.48.01 7.04h.17l.02 9.88.43.28 1.91.33.85.32.8-.35.77-.67.58-.1.55-.73.39-.06.32-.63.52-.47.98-1.18 1.94-.43.51-.83 1.54-.05.8-.3 2.23-.58.34.28.12.56.62.23.69.97.98-.07.9-.3.17-.24.83-.18 1.25.03.6.24 1.58.06.31.24 1.14.15.33-.63.28-.02.24.76.41.45 1.25.46.19-.44 3.31.01 1.52-.05.5-.38 1.72-.16.82-.42.05-.33.66-.33.8-.08.9-.37.82.2.31.81.33-.24h.66l.12.34.75.4.62-.3 1.25.59.43.6-.09.91.64.16.14.93.49.26.05.53.72.53.21.5-.07.68.52.55-.3 1.24-.37.02-.58.47.46.83-.05.4.5.44-.4.7-.03.7-.45 1.42-.76-.3-.45.3-.58-.05-.6-.54-.08.5-.76.96-.09.46-.61.61-.43.8-1.15.3-.2 1 .86 1 .38 1.28-.04 1.22-.22.79-.56.6-.41 1-.6.72-.58.3-.78.12-.13.4.4.33-.14.52 1.26.86.47 1.08-.37 1.17-.34.41.27.58.19 1.15-.04.64.47.26 1.24.14.33-.45.61.53 1.18-.6.4-.6.94.03.82.17-1 2.1.38.97-.11 1.15-.52 1.32.55 1.1-.08.39 1.06.44-.15.66.22.42.96.59.66.81.84.38.42.56-.37 1.22.75.81-.33.98-.43.77.02.54-.52.6.38.46v1.06l.8-.07.2.56-.13 3.42-.59.84h-1.66l-.2-.38h-1.67l-.55-.95-.45-.34v-.63l-.81.01-.23-.87-.6.01-.26.51-.55.1-.16.44h-1.3v1.47l-.42-.1-2.85-.15-1.08-.2h-.84l-2.03.17-2.24-.32-1.76-.04-.7-.35-1.18-1.33-1.13-2.26-3.02-2.95-.02 2.3-6.25-.02-.45 1.26-.43.13-.56 1.04.12 1.13-.21.27.28.72-1.33 1.49-.47-.37-1.01.2-.89-.22-.81-.35-.45.71-.97.64-.24.74.4.66-.11.58.22.5-.22.47.53.64-.04.96.33 1.16.27.34.11 1.03-.27.1-.12.72-1.08.4-.7-.1-.84.23-.44.53-.22 1.09.24.42-1.42 1.01-.1.56-.55.27-.53-.2-1.43.95-.5.63-.37.87-.92.37-.88-.07-.59.22-.67-.32-1.22.55-.61.42-.3-.04.02-.74-.55-.99-.63-.64-2.36-.2-.95.15-1.5-.37-.79.13-1.02-.1-.77.87-.65.38-.97-.22-1.16.64-.53.55-.31.84-.52.72-.9.23-.45.7.42.72-.8.79-.3.73-1.02 1.06-.95.13-.43-.53-.51.33-.85 1.46-.51-.22-.57.03-.17-.35-1.05-.28-.44.78-.5.25-.2.86-.26.38-.05 1.19-.3.7-.62.88.25 1.13-.2.38-1.1-.15-.65-.3-1.03-.73-.21-.68-.36-.27-.38-.8-.96-.64-.88-1.45-.36-.79.63-.86-.07-.98-.24-.18.15-.8-.34-.61-.56-.44.17-.65-.26-1.27-.24-.45-.6-.47-.25-.63-.44-.36.25-.5-.95-1.24.07-.51-.3-.9-.53-.63-.8-1.3-.17-.92-.56-1.74-.48-.56-1.23.24-.86-.75-.95.08-1.37-.34-.75.63-.9.33-.51-.1.06-.48-.35-.34-.43.05-.36-.32-1.3-.08-.4-1.19-.12-1.2h-.93l-.28.45-.75.02-.45.31-.36-.2-.74-1.38-.55-.49-.03-.77-.51-1 .22-.35-.1-.55-.36-.51.1-.64-.35-.3.38-.82-1.1-.16-.5-.34.32-1.1-.56-.26-1.23-.23-1.98.08-.63-.92-.38-.3-.55.1-.38.45-.43 1.69-.7.27-.47-.38-.65-.13-.77-.4-.7-.02-.29-.26.17-.8-.15-.56.69-.61.25-.54-.07-.56.59-.79-.13-.55 1.15-1.05.2-.37.36-1.83.82-.27.25-.38.07-.7-.91-1.13-.34-1-.74-.44-.26-1.24-.45-.08-.8-.9.44-1.19-.14-1.44.51-.64-1.18-.79-.22-.6-.43-.1-.45.32-.42-.2-.28-1.07-.2-.24.07-.81.44-.8.78-.32.66-.1.3-.36.65-.19 1.16-.58-.22-1.2.33-.82.83-.12.21-1.44 1.08-.89-.2-.8-.44-.39-.9-.25-1.06-.75-.53-.53.06-1.04.32-.6-.1-.36.56-.72.32-1.29-.53-.45-.32-.65-.28-1.04-.05-1.73.34-.73-.07-.57-.35-.28.08-.43-.84-.34-.4-1.48-.6-.33-.2-.82-.5-.53-.43-.5.12-.49-.46-.34-.55.16-.33-.7-1.33-.36-.5-.32.22-1.66.54-.85v-.85l-.28-.94-.26-.32-.09-1.46-.62-.57.12-.59-.42-.58.16-.87-1.03-.64v-.7l.3-.62.7-.53 1.35-.26.31-.82.04-.63-.22-.4.28-.86.02-1.2.36-.44-.03-.5.33-.4.08-.6.6-1.01-.16-.63-.46-.63.76-.48.35-.42.94.01.2-1.31-.05-1.05-.54-.74.29-.4.6-.1.22-.43.01-.85-1.23-.95-.06-.82-.36-.21-.03-.96z"/>
    <path region="29" short-name="23" long-name="State Senate District 23" value="1" d="M635.24 600h-.45l.01 3.47h-.85l.02.84-2.25 2.27-.3.39h-1.78l-.3.61.3.5-.26 1-.9.83-.48-.06-.25.37.27.4.04.85.91.33-.02.47-1.57-.2-1.24-.3-1.98-.1-1.25-.2-1.03.66v.87h.33l.02.88H619.34l-.02-.84-.52-.09-.03-.81-1.92-.02.13-.48-.96-.87-.2-.45-.02-.78h-2.63l-.02.45-.7-.13v-2.92h.84v-.85h-.61l-.25-.86v-3.47l1.58-.02.14-.21v-3.26l3.45.05.02 5.16h1.74v1.73l3.49-.03 1.68.09v1.7h2.57v-.44h1.73l-.14-.68-.5-1.1.3-.45-.81-.34-.13-.46h2.09l.08 1.61 1.65.17-.44-2.02.02-.46.36-1.06.06-2.37h.92v.65h.79v-.87h.85l.03.42.8-.15z"/>
    <path region="30" short-name="30" long-name="State Senate District 30" value="1" d="M427.15 644.75h5.08l.07-7.82 3.47.06v-.15l1.75.08v-2.7l-.06-1.63-.04-6.98.05-1.93h-2l-.41.27-.35-.26h-.7l-.86-.47-.64-.53-.2-.76-.9-.48-.2-.49-.5-.43-.76-.12-.8-.43-.79.2.18 1.19h-.58l.05-1.26.48-.62 1.02-1.83.9-.5-.37-.48-1.02-.9-.9-.35-.9-1.01-1.06-.1-.63.06-.22.84-.37.75-1.11-.41v-2.05h.4l.03-6.4-1.92-3.83.08-8.86-1.84.01v-1.63h.17v-3.47l-.08-18.3.3-.01.02-6.13 17.44.01 4.2-.01 13.12.06 13.86.03v.92h10.6v-4.36l32.05.16 13.8.03 6.45-.04v10.45h4.14l-.08 10.5 15.65.03-.13.7-.35.71v8.75l-6.96.11.07 8.71-.02 1.93-5.28-.09-1.6.02-.52-.1-1.24.12v1.62h-3.27v-3.7l-1.75.01v-1.71l-1.77.04v1.68l-4.6.04-.43.21.12.89-.45 1.1.48 1.45-.15.27-.06 1.01-.04 5.7-.25.1h-3.68l-.35.55-.76.11-.55-.2-.36.41h-.4v1.74h-.75v.75h-.46v-1.14h-.79v-1.23h-1.94l.02 4.98h-.8v.92h-2.3v.75h-3.26v4.89h1.55l-.01.67.18 11.89.07 7.7h-.08v20.62h-11.03v20.9h22.14l.01 20.03-2.26-.12-12.15-.01-11.17-.02-6.45.77-3.2.03-5.26-.08-3.37-.27-6.82.02-3.21.69-3.53.1-7.4.04-10.62.03-7.13-1.02-16.65.01-4.58-.02v-10.92l-.13-.83v-8.93h.67l.03-10.26v-10.45l10.02.01.04-10.36h-.13z"/>
    <path region="31" short-name="35" long-name="State Senate District 35" value="1" d="m354.63 477.6.69.01 10.3.02.68.66 1.28.47.9.15.84.75.42.55.47.06-.52 1.75-.6.19-.27.48-.44.06-.41.41-1 .45.07.72.47.54v.37l-.51.23v.5l-.34.2.52 1.36.99-.04.74.74.06.64 1.23 1.36.54.3.5-.19.47.45 1.06-.57.7.2.93.53 1.11-.13.6.1.7-.6v-.95l1.22.1.28.26-.48.7.72 1.07.57 1.13.12 1.9-.29 1.47.5.24.66.64 1.6.44.8 1.11-.1 1.67-.54.45.57.73.3-.15.34.57-.38.28-.77 1.04 1.23.4.03.62.31.7-.44.63-.06.48 1.04.09.36-.17.61.12.3.63.54.2.13 1.16.43 1.19-.37.9.12.83 1.04-.41 1.4-.12.27-.16.83.73.12.55.98.16.64-.19.66.04.82.29.35 1.33-.24.59.31.2-.8 1.06.15 1.11.27.4.05.95-.46.5.05.52.46.58.7.5-.09 1.4-.62.24-.42.46-.8.51-.1.3.48.78 1.53.67.44.4 1.95.33.88.66.29.41.05 1.08.35.43.25 1 1.05-.08.34 1.12-.31.93.39.65.12 1.48.27.78-.3 1.1.39 1.24.92.3.63.83.5-.12 1.08.32 1.74-.42.97-.89v-.7l.3-.38 1.17-.34.4.14.37-.27.8.12.8-.26.68-.05.18.44-.5.73.17.41.63.1.43.38 1.1.3.3 1.08.4.08.81.7.17.43 1.17.46.56.83v.6l-.51.45-.26.54.2.97-.61.77-.18.73.4 1.19-.26.47.2.52-.52.54-.92-.23-.66.57.07.6-.38.27-.81 1.23-.14.45-.7.73-.02.93-.18.33.13 1.4-.33 1.03-.33 1.6 1.05.94.57.14-.06.64 1.08.15.62.62.79.5-.3.73-.1.9 1.03.28.39.56v.48l.35.36-.13.43.22.82-.14.9.2.46-.17.75h5.72l-.02 6.13h-.3l.08 18.31v3.47h-.17v1.63h1.84l-.07 8.85 1.9 3.83-.02 6.4h-.4v2.05h-.87l-.7.5-.52-.03-.72.21-1.44-.07v.4l-2.52-.08-.42-.44-3.02.01-.04-1.3-2.22.02-.76-1.06-.18-.74-.49-.23-.39-.83-.1-.57-1.11.01-.75-.64-.13-.74-8.5.04-1.03-.77-.23.78.34 1.39.48.19.46.79.06.83.54.38.43.62-.19.23.7.78v.54l.55.74.06.84.52 1.36-3.58-.03v3.39h-1.7v6.16l-1.07-.1-1.35.56-1.03.08-1.03 1.15-.7.1-.01.8-15.4-.04v-1.74l-1.72.05v-1.74l-1.73.03v-1.73l-1.7.02-.01-1.77-1.73.01v-1.73h-1.72v-1.72h-1.67v-1.73l-3.46.03-1.7-.03v-3.47l-3.46-.02v-1.7h-3.5l.3-1.02.68.03.45.3 1.2-.73.83-.15.66-.51.87.31.6.46h.5l.43.51 1.8-.27.64-.57.51-.94.11-.7.48-.18.3-.7 1.02-.35.62-.5.1-.57v-4.89l-.03-5.44v-15.5l-10.34-.07.03-3.5-.02-6.89h-.17l.02-20.92v-21.2h-.13l-.01-10.13-2.47-.01-.7-.31-2.44-1.42-.3-.87-.56-.59-.35-.67-2 .08v-1.99l-1.74.02-.01-3.56v-3.98l.64-.02.2-.42-.04-.63-.33-.21.47-1.42.38-.5 1.3-.67.39-.88-.56-1.3-.45-.16.12-.74.7-.83-.45-1.77.1-.81-.41-.2-.18-.45-.75-.55-.15-.4.17-.61-.2-1-.24-.23-1.1-.07v-.82l-.42-.55-.75-.47-.65-.76-.25-.64.65-.62.09-.56.55-.26.63-1.33.64-.65.95-2.63-.3-.54-.66-.46-.41-1.2-.43-.8.04-.4.88-1.39.11-.64 1.48.64 1.11-.48 1.16.35.6-.16 1.18.2 1.83.1 1.13.45 1.27-.52z"/>
    <path region="32" short-name="25" long-name="State Senate District 25" value="1" d="M621.95 613.88h5.4l.3-.21.43.62 1.64-1.14.5-.5.9-.26-.13.43-.8 1.5.47.94-.02.31-8.4.01v-.85h-.89l.14-.7z"/>
    <path region="33" short-name="33" long-name="State Senate District 33" value="1" d="m413.56 620.83 1.28 1 .42.7.12.75.71.83 1.71.57-.04 2.33-1.33-.04-1.22-.12v-.38h-3.46v.86l-1.6.03.3-.92.02-1.25-.31-.5.28-1.4-.01-.63-.24-.5-.1-.89.02-.87 2.17.03.62-.09z"/>
    <path region="34" short-name="4" long-name="State Senate District 4" value="1" d="m143.1 315.64.07 1.09-.05 1.38.37.08 1.6-.53 1.15.09.87.19.03.44-.5.12.02 2.55v1.83h-.9v1.8h-1.34l-.3.45-2.68-3.2-1.57-1.09.02-2.47.1-.9h-.42l.48-.46.14-1.16.34-.2z"/>
    <path region="35" short-name="10" long-name="State Senate District 10" value="1" d="m366.67 381.3 4.63 7.06.37.8 1.26 3.9.28.7 2.53 4.08.94.8-.45 1.3.3.42-.23 1.23.33.25.56-.07.3.5.85.6.59-.05 1.56-.73.7.03 1-.19.24-.4-.12-.69.82-.16.66.73.15.6.52.68.55-.36.88.37-.33 1.06.7.03.72-.2.64.88.99-.2v.56l.77-.21.54.81 1.24.45.72-.06.03 1.7 1.51-.74.92-.22-.09.6.37.58 1.33.03-.1 1.38 2.69-.01v-1.62l.9-.32h1v-.73l2.03.08.97.53.46.07.22-.68 1.64.86h.81v-.9h.85l.02-.9h.35l.01-2.63-.68-1-.45-.28-.52.07-.93-.32-.24-.54 1.09-.94 1.14-.08 1.43-.95.66-1.16.88-.6.43.4.99.17.83-.3.76.03.12-1.23.28-.23.65.23.71-.08.4-.25.32-1.31.6-.92.43.03.07.8.42.35.68.22.02.57.4.05 1.93 1.18.65-.34 1.25.18.39-.08.43.33.01.44.37.53 1.12.7.18.62.66-.17.32.22.08.72 2.27.2.21.38 1.34-.48.26.75.6-.07 1.07.28.05.9.28.73.51.8-.67.19.54.45-.74.9-.6-.18-.58.1-.2 1-.53.39-.53.04.11 1.17-.34.3-.03.5-.82 1.73-.16 1-.53.25.34.71-.38.24-.27.8.46 1.05-.42.28-.2 1.62-.25.6.3.5.05.6-.25.96.26.34.07.85-.2.75.37.21.17.83-2.57-1.42-.66.23.01 1.75-.19 1.38-.5 2.08-.27 1.71-1.27 1.26-.27.39-.18 2.9.4 1.67v1.55l-.5.03.03.8-.46 1.29-.72 1.33.01 17.76-12.17-.02-.7-.04v9.35h-10.55v1.32l-21.16.05v10.64h-9.9l-10.3-.03-.7-.02v-21.88l.09-4.4-7.13.03.04.9h-1.83v-1.76h-1.98l-.84-1-.32.32-.67-.28-1-1.68-.42.14-.45-.35.24-1.23-.44-.58-.34.21-.68-.2.12-1.27-.58.08-.61-.2-.35.88-.38-.21-.88-.07.11-.52-.31-.51.45-.27-.23-.57-.41.22-.59-.4-.78.05-.3.35-.72.11-.01-8-.07-11.33-.17-20.41 1.7-.24.7.44.78.22.85.66.32-.47.56.46h1.06l.46-.49.7.9.62-.4 1.34.2.78.63.39-.08.15-.48.05-2.34-.05-8.98.02-1.78 1.78.02h8.83l2.63.06.99-.08 5.3.04 1.81-.04-.02-10.7z"/>
    <path region="36" short-name="11" long-name="State Senate District 11" value="1" d="m366.67 381.3 19.7-.03-.03 7.14 1.61-.05.16 8.96 2.5.02.85-.57.73.03.74-.42.45.25-.01 2.46.06 2.57.79-.2-.04-.54.36-.37.42.37.68-.01v-.43l.54-.01.32.44h.47v.8l1.66-.05.87-.17.54.12.14.47-.93.84-1.16.4-.67-.34-.44-.01v.54l-.29.5h-.72v.67h-.73l-.9.52.28.83-.28.53-.92.22-1.51.75-.03-1.7-.72.05-1.24-.45-.54-.81-.77.2v-.56l-1 .2-.63-.86-.73.2-.7-.04.34-1.06-.88-.37-.55.36-.52-.69-.15-.58-.66-.74-.82.16.12.68-.24.41-1 .2-.7-.04-1.56.73-.6.05-.85-.6-.29-.5-.56.07-.33-.25.23-1.23-.3-.42.45-1.3-.94-.8-2.53-4.08-.28-.7-1.26-3.9-.37-.8z"/>
    <path region="37" short-name="13" long-name="State Senate District 13" value="1" d="M395.24 404.68h.72V404l.73.01.3-.5-.01-.54h.44l.67.36 1.17-.4.92-.85.52-.2.67-.58 1.42-.15.85.56.86-.8.48-.09.24.55.93.31.52-.06.45.28.68 1v2.62h-.36l-.02.9-.86.01.01.9h-.8l-1.65-.86-.22.68-.46-.07-.97-.53.02-1-5.8-.05-1.46-.14z"/>
    <path region="38" short-name="27" long-name="State Senate District 27" value="1" d="M612.46 608.65v1.2l.7.14.01-.45h2.63l.02.78.2.45.96.87-.13.48 1.92.02.03.81.52.09.02.83h2.6l-.45.15-.14.71.05 1.72-2.6.02.03 5.03h.91l.45.2.31.46-.25.54-.78.83-.82.34.02.48-.48.2-1.08-.19-1.08.86-.15.34-.86-.26v-1.05h-1.21l-1.8 1.21-.98.57-.42-.1-1.67.2-.46.18-.93-.06-.7.14v-.43h-.98l-.14-.48-.43-.25.1-.75.49.03-1.04-1.94-1.22-.83-.21-.33-.05-3.07.48-2.3.06-1.14.51.15.6.56 3.5.01v-1.42l1.14-.32h1l.04-2.6-2.59.01v-.86l1.8-.1.03-1.66z"/>
    <path region="39" short-name="34" long-name="State Senate District 34" value="1" d="M417.06 616.5v.5l-.67.05-.1.44.4.62-1.27.97h-.53l-.4.31-.06 1.01h-.86l-.01.43-.66-.49-.62.09-2.17-.03-.01.87h-.98l-.15.33-.6-.07v.62h-5.1l-.75-.1-.31-1.59-.42-.98-.15-.76-.52-1.36-.06-.84-.56-.74v-.54l-.69-.78.2-.23-.44-.62-.54-.38-.06-.83-.46-.8-.48-.18-.34-1.4.23-.77 1.04.77 8.49-.04.13.73.75.65h1.12l.1.56.38.83.49.23.17.74.77 1.06 2.22-.02.04 1.3h3.02z"/>
    <path region="40" short-name="12" long-name="State Senate District 12" value="1" d="m394.34 406.56.28-.53-.28-.83.9-.53v.69l1.44.14 5.8.05-.01 1-2.03-.08v.74h-1l-.9.3v1.62l-2.69.02.1-1.38-1.33-.03-.36-.58z"/>
    <path region="41" short-name="50" long-name="State Senate District 50" value="1" d="m164.75 488.52 1.27-.45-.05-.78 1.37-.01v-1.22h.57l.2-.56.01-1.18-.35-.58.36-.44h2.33v.48l.52.35v1.38l-1.88.02v2.02l-.83.97-.06.42-1.22.1-.15.7.01 1.02-.44.1-1.55-.74-.2-.35.44-.39v-.8z"/>
    <path region="42" short-name="22" long-name="State Senate District 22" value="1" d="M635.24 600h5.6v1.72h.86v-.86h2.33l-.2.56-.64.73-.8.28-.61.43-.85.32-2.64 1.58-.98 1.25-.96.04-1.27.9-.22.42.28.68-.54.97-1.06.8-.7.28-1.29 1.3-.44.99-.9.26-.05-.59-.57.23-.64-.02.02-.47-.91-.32-.04-.85-.27-.4.25-.38.48.06.9-.82.26-1.02-.3-.49.3-.6 1.77-.01.3-.39 2.25-2.27-.01-.84h.85V600z"/>
    <path region="43" short-name="42" long-name="State Senate District 42" value="1" d="m339.18 512.42 1.96-.85.03-.46 1.3-.09v-.84l1.78-.07.01 3.56 1.73-.02.01 1.99 2-.08.35.67.57.59.29.87 2.44 1.42.7.3-6.33.04-1.82-.02-6.07.03-2.59.05.33-.47h-1.16l-.02-1.08-.01-.62h.79l-.03-1.85h.63l.25-.35-.08-1.42 1.68-.01.72-.95z"/>
    <path region="44" short-name="41" long-name="State Senate District 41" value="1" d="m339.18 512.42-.54.34-.72.95h-1.68l.08 1.43-.25.35h-.63l.03 1.84h-.79l.01.63h-.57l-.66-.23-.6-.59.19-.42h.43l-.01-.7.25-1.1-.97-.4.5-.5-.02-4.13-.5-4.51-.63-1.18-.25-1.12 4.33-.02.04 5.33 2.99-.02-.08.84.15.44-.34.78-.5.43.46.71z"/>
    <path region="45" short-name="26" long-name="State Senate District 26" value="1" d="M621.35 614.73h.9v.85h8.4l.07.73-.16.47-.72.8-.85.6-1 .33-.72.1-.52.73-1.6.42-.54.41-.5.01-.52-.27-1.02 1.25-1.46.2-.6.8-.32-.45-.45-.21h-.91l-.02-5.03 2.59-.02z"/>
    <path region="46" short-name="28" long-name="State Senate District 28" value="1" d="m596.58 628.47.38-.27.57-1.12.87-.63.28-.03.91-.92.97.03.96.42.3-.28.92.08 1.08-.67.48.07.2-.35.8.43.43.25.14.48h.97v.43l.7-.14.94.06.46-.17 1.67-.2.42.09.97-.57 1.8-1.21h1.22v1.05l.86.26.15-.34 1.08-.86 1.07.19.5-.2-.03-.48.81-.34.78-.83.26-.54.61-.8 1.46-.2 1.02-1.25.52.27.5-.01.55-.4 1.59-.43.52-.73.72-.1 1-.34.85-.6.72-.79.16-.47-.08-.74.02-.3-.47-.96.8-1.5.12-.42.44-1 1.28-1.29.71-.29 1.06-.8.54-.96-.28-.68.22-.41 1.27-.91.96-.04.98-1.25 2.64-1.58.85-.32.61-.43.8-.28.64-.72.7.44.21.97.38.74.06.92.35.6.07 1.14-.14.5.23 1.77.41.68-.7.92-1.2-.28-1.22.06-1.2-.1.03 4.12h-1.97v2.49h.2v1.53l-.7.02.01.43h-.58l-.79.77h-.86v4.86h-.86v.32h-.87l.06 3.01-.86.01-1.14-.59-.53-.12-.07-.42-.83-.46-.38-.38-.76.17-.42-.38-.66.08-.57.63.3.96v.7l-.54.44-.25.55v.55l-.57.45-.79 1.02-.55.3-.9.9-.12.43-.64.67-.26.59-.57.37v2.82h1.74l.03 1.53h-.86l.03 2.6h-.86v.87h-.85l.01 1.3h-1.47l-.02 1.3-.9.91-4.1 2.36 1.26 2.39v.74l-1.47.88-.39.46h-4.4l-.09-6.95-5.08-.03-.04-3.44-3.41-.02-.05-4.23.57-.41-.14-.65.5-.08.1-.48-.31-.44.56-.37.42-.92v-2.73l-.59.3-.73.1-.9 1.23-.71.12-.91.6-.63.66-.62.27v-3.38h-1.72l-.01-1.7h-1.72z"/>
    <path region="47" short-name="37" long-name="State Senate District 37" value="1" d="M284.48 587.03h.84l1.08.2 2.85.16.43.09V586h1.29l.16-.45.55-.09.25-.5.61-.02.23.87.8-.01v.63l.46.34.55.95h.78l-.05 1.66h-.46l.01 5.84v1.92l-.26.41-1.45.87-.52 1.15-1.33.16-.36-.61h-1.18l-.17-.59-1.87.81-.57-.5-.65.08-.02.93-.21.29-.85.3h-1.07l-.29.52-1.19.3-.55.62-.13.43-1.1-.26.06-.99.34-1.18-.02-.72-.36-1.76.04-.88.48-2.27.92-2.98-.01-1.89.3-1.04 1.19-1.2z"/>
    <path region="48" short-name="31" long-name="State Senate District 31" value="1" d="m416.43 626.97 1.33.04.04-2.33-1.7-.57-.73-.83-.1-.75-.43-.7-1.28-1v-.43h.87l.06-1.01.4-.3h.53l1.26-.98-.39-.62.1-.44.67-.05v-.5l2.53.06v-.39l1.43.07.72-.21.53.03.7-.5h.86l1.1.4.38-.74.22-.84.63-.07 1.06.11.9 1.01.9.34 1.02.9.36.49-.9.5-1 1.83-.5.62-.04 1.27.58-.01-.18-1.19.78-.2.81.43.76.13.5.42.2.49.9.48.2.76.64.53.87.47h.7l.34.26.42-.26h2l-.06 1.92.04 6.98.06 1.63v2.7l-1.75-.08v.15l-3.47-.06-.07 7.82h-5.08l-.59-.07-4.4.02-8.6-.02v-1.12l-1.1-.77-.4-.47-.95-1.52-.26-.7.21-.63h.63l.04-2.6 1.73.04.02-7.83h1.7l.02-.87.89-.01.55-.15z"/>
    <path region="49" short-name="24" long-name="State Senate District 24" value="1" d="m628.95 612.27.64.02.57-.23.05.59-.49.5-1.64 1.14-.42-.62-.3.21h-5.13l-.02-.88h-.34v-.87l1.04-.66 1.25.2 1.98.1 1.23.3z"/>
  </g>
</svg>
