<svg country="usa" type="sc_upper" date="2022" variant="blank" title="South Carolina 2022 State Senate" viewBox="0 0 1000 794.27" auto-border-stroke-width="1" auto-border-stroke-width-limit=".5" original-source='["https://www2.census.gov/geo/tiger/GENZ2022/shp/cb_2022_us_sldl_500k.zip"]' candidates="[{&quot;id&quot;:&quot;0&quot;,&quot;name&quot;:&quot;Democrats&quot;,&quot;margins&quot;:[{&quot;color&quot;:&quot;#1C408C&quot;},{&quot;color&quot;:&quot;#577CCC&quot;},{&quot;color&quot;:&quot;#8AAFFF&quot;},{&quot;color&quot;:&quot;#949BB3&quot;}]},{&quot;id&quot;:&quot;1&quot;,&quot;name&quot;:&quot;Republicans&quot;,&quot;margins&quot;:[{&quot;color&quot;:&quot;#BF1D29&quot;},{&quot;color&quot;:&quot;#FF5865&quot;},{&quot;color&quot;:&quot;#FF8B98&quot;},{&quot;color&quot;:&quot;#CF8980&quot;}]},{&quot;id&quot;:&quot;2&quot;,&quot;name&quot;:&quot;Independent&quot;,&quot;margins&quot;:[{&quot;color&quot;:&quot;#DCDCDC&quot;},{&quot;color&quot;:&quot;#E3E3E3&quot;},{&quot;color&quot;:&quot;#EAEAEA&quot;},{&quot;color&quot;:&quot;#F1F1F1&quot;}]}]" version="1.1" xmlns="http://www.w3.org/2000/svg">
  <g map-type="regions" transform="translate(0 -102.86)">
    <path region="0" short-name="45" long-name="State Senate District 45" value="1" d="m405.39 722.83 2.3.03 5.42-3.9 6.12-1.94 1.6-4.25.84-1.3 11.38-10.07 2.18-1.88-3.13-13.11 1.48-.69 1.97-2.01 2.06-.86 1.65-.4.96.33.15-8.31.33.1 2.95-1.99.34-1.36 2.56-1.74 7.7-4.8 18.3-11.64.78 1.36 1.9 1.53 1 .34.22 1.65 1.67 1.26v1.89l.47 1.17 1.82.98 1.5 1.6 1.6 1.3.54 1.84 1.34.63.32 1.28 1.31-1.76 2.24 3.36 2.54-.52 1.98-1.59.87-1.24 2.14-1.04 2.48.48 7.82-.67 1.9-.3 1-1.07 2.26 1.88 1.9 1.23.77 1.68.43 2.03-.12 1.06.63 2.18.9.98-1.04 1.46-.05 3.2.54.63-.53 1.14.6.57 3.1-1.22-.45-1.37.62-6.07 4.6-.13 3.27.7-.68 2.23-.03 1.72-.97.35 1.33 1.67 1.71 1.08 1.87.7.87 1.37 4.54 1.4-.04 2.86-.44 1.28 2.68.72 5.23-.84.12-1.7 1.31-1.81-.02-1.47-.4-1.04 2.23.7 2.21.37 1.18.46 2.01-3.92.93-2.98 1.12-1.72 2.52 2.5.66-.46 2.07.21 1.72.45 1.19-2.07.41-1.2 1.17-1.16 2.39-.82.74-1.04-.38-.98 2.45.29 1.4.6 2.8-1.29 1.22-.1-.27 1.8-.89 1.47-.9 3.08 3.23-.29 1.44-.68 3.91 11.55.4 4.25 2.22-.87 1.98-.1.94-1.28 3-.78.95-.53 2.31 1.1 1.22-1.02 3.04 2.5.42.06 3.96 1.9 4.16-1.52 3.46.04 2.33 3.89 2.23-1.5.29-2 .69.35-.42 1.49 18.6 1.72 1.9-.13 3.81 1.41 2.85 7.77.21 3.6 1.9 2.91-1.62 2.27-1.59 6.62 1.1-.31 2.44-.2 1.99-.7 1.34.96 2.05.36 2.11-1 .82-1.29.23-1.35 6.26-.9 2.2 1.9h1.35l1.46-.78.48.2-3.87 6.2-4.36.31.36.72-4 1.38.27 1.86-1.9.07-1.7.38-.65.96-1.85-1.2-.71.85-2.18.2-2.88 1.35-.8 2.34.22 2.4-2.1.4-2.68 1.41.02.56 1.26 2.73 1.35 1.42 1.76 1.3 2.1.09 1.15 1.02-.5 3.05 1.21-1.04 2.44-1.42 1.59-.7.63-.87.11-1.38-.99-2.3.48-.98 3.2-1.22.52-.6-.1-1.75 1.33-.8 1.1.39 1.15-1.18 2.98-2.08 2.1.1 1.28.5 1-.37.74.38h2.23l1.44-.7 1.96-.43.69.57 2.03.88 1.54-1.35 2.54-1.28 1.54-.3.73.5 2.05.51 1.2 1.87 2.21-.87 3.07.31 5.9-1.9.93-.77.42.9 1.1-.72.62.5 2.32-1.54 1.81.57.82 1.1-.25 1.87 2.65.17 2.13-2.37 1.86-.94-.37 2.23.33 1.97 1.63-.45 1.36-1.25 2.7-1.34 2.85 1.13-.5 1.39.35.86-1.65.9-1.21 2.1-1.2.36-2.49 1.39-.73 1.7.9 1.67-1.15 1.7-.35 1.1-1.28 1.58-2.5 1.46-2.83 2.8-1.03.58-4.42-.96-1.08-1-7.47.67-1.63 1.3-2.58 1.4-2.91 1.85-2 .1-1.54.66-3.27-.01-.66.59-.62 1.65-.78.79-1.88-.2-.72-.95-2.35.12-2.46 1-1.5.2-.97 2.01-2.5-1.11-.46.08-2.34 2.32-1.22 2.5-2.58-1.5-1.61-3-1.56-2.02-3.75-1.58-1.14-.7-2.27-2.48-3.03.68-2.2-.56-2.75-1.48-1.73-.37.03-.91.91-1.34-1.91-.96-.38 1.34-.84.94-1.22-.56-1.84.6-1.2-.64 1.03-.92-.83-1.2-.77-.28-1.29.72-.82-.62-1.57-.12.86-1.53-1.74-.75-.36 1.37-.85-.22-.7-.98-2.52.42-1.76.81-2.05-2.2-1.48-2.24-.48-.14-2.49 1.02-1.9.03-8.29 1.55-1.62-.63-1.06 1.34-.91-.75 1.18-1.58-.47-.96-3.12-.42-.86-.48-1.76.61-.48.82-1.3.89 1.6.92.46 1.06 1.26.53-.3.9-2.67.87-.9.55-2.77.17-1.37-.84-1.6 1.97.97 1.23 1 .1.27.85 1.52-.43-.64 1.5.77 1.24-.04 1.47.64.29.78-1.07.81.21.75 1.49-1.76 1.65-.03 1.49 1.17-.03.25.65-.96.87.66 1.22-.28 1.45.6 2.18-.67.23-1.62-.74.15 1 .96-.22.08 3.4-.84.98.9 1.24.47 1.5.34 2.93.4.8 1.9.97 1.62.3 1.67 2-1.51.27 1.27 2.14-1.86.33-4.98.06-2.7.58-1.58 1.24-1.05.44-4.1.58-1.59-.56-3.15-2.6-2.53-1.24-1.77-.06-1.71.83-1.8.24-1.41-.12-1.58-.6-4.1 1.76.15.93-1.38.83-1.24 1.19.24.56-.23 2.62.23 2.4.65 2.16.61.83 3.72.33 1.76 3.99-.9 2-1.87.33-.15-1.59-2.75-.04-.4-.65-1.34-.16-.77-.85-1.97.28v2.02l-1.17-.25-.68.48-5.53 3.03-1.06.9-2.66 3.47-1.67 1.7-2.68 2.1-5.17-12.44-.69-3.2-1.2-3.25-.6-.42-2.38.46-.78 1.28-2.87 6.88-.52 3.13.47 1.15 2.73-.81 1.16.85-2.84 4.45.2 2.1-1.23.23-.56 1.13-1.72-.08-.56 1.52-2.54 1.1 1.09 1.31-1.22 1.11-.68 3.28-2.74-.39-.27-1.54-1.54-.05-2.1-.1-2.56.62-1.13 1.67-.3 3.39-4.3-2.77.72-2.71-.4-2.36-1.95-.35-5.26-3.65-2.87-.76-4.54-.38-.25 2.17 1.1 1.85.17.92 1.46 1.6.48 2.05-.07 1.58.68 1.9.67.74.24 1.6-.74.39-.78 1.46-.51 2.82.4 1.4 1.2.69.93 1.84-.7 2.27.18 1.02.88 1.1-.66 2.64-1.93 2.78-1.14.2-1.19 1.37.53 1.93-.12 1.05.46 2.5-.08.88 1.28.63.28 2 1.24.61.6 1.23-.77 1.31 2.3 1.32 1.89-.1.34 1 1.22.09.81.57.9-.5.75 2.58 1.35-.07 1.1 1.88-1.65.34 1.07.96.23 1.43-.83 1.95.67.82-.6.81-1.14-1.01-.24-1.33-1.59.42-.2 1.08.37 1.09 1.8.82-.6 1.06.45 1.49 1.08-1.1 1.4.5 1.27-1.9 1.39.54.81-.82.82.37.34 1.37 1.22-.02.85-.89 1.14.06.28 1.05-.89.7-2.94.87-.03 1.12 5.48 1.93 1.02.96-.2 1.27-2.83 3.6-.38 1.24.82 1.14 1.84.12 1.7-.91 2.45.1-.8.22-.72 2-1.89 2.17-.85 1.74-1.6 1.25-.11.65 1.32 1.37 1.5-.58 1.2 1.27-.17.57-3.02-.58-.75.44-2.79-.45-.84-.48-5.99-6.93-1.18-.66-2.57-.44-2.42-1.2-.69-1.13-1.1-2.65-1.54-1.35-1-.48-1.39.08-1.32.8-.89 1.75-.96.87-2.47 1.08-.36-.19-.77-.4-3.33-.61-3.07-2.16-2.9-.62.27-1-.9-1.7-.77-.22-2.44.52-1.8-1.23-.39-1.25.41-1.4-.97-2.09.16-2 1.01-2.43-1.42-.6-.19-1.8-1.33-.64.06-1.16 1.45-1.43.71.93 1.38-.38-.17-1.3-.92.45-.85-.53.52-1.72-.06-.96-.7-.74 1.56-.42-.37-.62-1.28.23-.23-1.43-1.07-1.8-1.76-1.23-.35-1.38-.98-.6-.32-1.14-.23-1.48-1.37-.97-.88-1.87.77-.96 1.2-.43-.25-1.37.75-.9-.13-1.28 1.07.1.68-.63-1.04-1.38 1.32-.18 1.16-.82 1.4-.29-.8-.94.3-.7 1.21-.63-.03-.92-.7-.96.22-2.84-2.23-.9.69-1.21-.4-1.37.21-1.45-1.18.1-.34-.9 1.37-1.78.4-1.4-.95.09-1.11-.96-.45-1.29-1.2.05-.3 1.19-1.32.28.05-1.33-1.41-.21.12-1.35-1.27-.7-.39-1.57.23-.79-1.64-1.85-1.26-.87.7-1.26.24-1.3-.3-.96-1.37-1.58-.95-1.73-1.05-1.09-2.2-2.98.1-.46-.7-2.85 1.82-1.13-.29-1.14-1.17-.46.7-1.2 2.43-.55-.44-1.1 1.07-.39v-1l-1.3.05-1.08-.71-3.49-3.66-1.7-2.24-1.79-1.63-.14-1.05-.7-.58-.16-1.26 1.13-.37-.1-1.54-1.4.4-.61-.96-2.03.47-2.74-2.22-1.33-.77-.8-2 .27-1.55-1.26-1.2.47-.66-.53-1.02-2.05-.18-.9-.46-.51-.98-1.52.38-3.45.48-1.4-.38-6.2-3.1.97-1.05-.84-1.04-1.22.08-1.4-1.21-.26-1.31-.86.62-1.1-.04-1.72-1.42-.96-1.71-3.6-3.8-.4-1.75-1.04-.88-.07-1.57 1.04-.66.4 1.1.69.4 1.14-1.41-1.9-.59 1.4-.81 2.2-1.7.15-.97-1.36-1.24.59-1.01-1.33-1.06v-.93l.6-1.7-.16-.9-1-.92.16-1.38-1.37-.4-.24-.84-1.1-.18-.36-.9-1.28-.25 1.16-2.75.94-.08.19-.89-.98-.98.77-2.2-.32-.53 1.4-.73-.48-.9 1.3-.7z"/>
    <path region="1" short-name="10" long-name="State Senate District 10" value="1" d="m230.35 307.06.36 1.57 3.38.26-.65 2.2.64.64 1.6.22-.06 1.24 2.46 2.42 1.73-.3.83.5v1.4l1.02-.24 1.46 1.35.77 1.4.68.33 1 1.84.64 2.7.17 2.36.66.28 2.3-.51 2.37 1.49 2 .5.46.85 1.23.99-.04 1.44.65 1.57.62.18 1.94-1.07 2 .77 1.36.93 1-.07 1.26.6 1.62 1.46.66 1.24 1.44.83.59.88 2.37 1.9.17 1.37 1.73 1.05 2.36.55 1.16.98 1.8 2.85 2.02 1.41 2.27-.4 2.34 1.12 1.38.14-.18 1.45 1.36 1.48.34 1.09 2.16.9 1.67 1.9.4 1.06 1.2.92 1.23 1.93 2.57-.1 1.51 1.3-.63 1.13 1.15 2.32 1.85-.52.75.67-.65 2.2-.02 1.44 1.89 1.38.08 2.22.74.6 2.3.65 1.29 1.45 1.53.38.7-1.4-1.26-1.23.37-1.05-1.03-1.46-.09-3.03 2.05-1.06 1.23-1.84 1.5-.18 2.27 1.75.74.24.98-1.46 1.12 1.1 1.04.3 2.7-.75 2.26.75 1.33.78 1.96-.85 1.12 2.02 1.07-.49.55-1.82 1.6-.03 1.97-.94.97.15 1.1-.52 1.24-1.63 1.32-.5 1.1.83 1.6 1.95 2 .86 3.64.06 1.54 1.56 1.55.88.83 1.82 2.62.93 1.08.98 1.56.6 2.17-.04 1.17 1.14 1.36 3.24 1.01 1.01 2.3.3.96.81.38 1.4.72.4.77-1.34 1.19.32.84 1.4 2.95 3 1.65.11 1.93 1.3 1.17.05 1.29 2.43.72.62 1.81-.29 2.36.38 1.04-.22.88 1.33 1.48.78 4.23-2.02 1.97 1.36.7-.68.2-1.3.56-.8 1.2.81 3.17 1.62.77-.13 2.24-1.28 1.14.08 2.08 2.26 2.14.43.34.41 1.82-.18 1.08.58 3.92.97 4.2-.73 3.94.84 3.52.48 3.95.85 1.95-.1 1.46.77 5.87.45 1.73.71 1.87.12 3.4-.39 1.45.67 1.35.06 2.6 1.07-.1 1.01.45 4.26-.67 1.4-2.03 2.39.07 1.23.96 2.05-1.15 1.66h-1.71l-.29 1.04-1.63 1.8-1.62.48-1.65-.97.44-2.08-2 .46-1.33.72-2.7.65.1 3.28-1.95 1.7-2.15.12-2.84.84-.72-2.44-.21-1.82-.73-1.08 2.68-.35.16-1.78.44-.97-3.95-.3-10.16-3.5-1.62-1.24-3.28-.18-3.02.42-.86-.12-3.82-1.75-2.44.42-1.05-.28-1.11-1-1.23.4-2.03-.44-3.3-1.36-1.81-.4-1.89-1.02-7.43-1.85-2.59-.12-1.77-.5-1.98.87-3.23 1.74-5.79.77-5.47 1.06-3.84-1.05-.73-1.02.23-1.34.7-.93.47-1.63.14-1.7-1.96.9-.68-.72-2.03-.92v-1.4l-.7-.54-.69 1.8-1.31 1.05-1.82.5.45.8-.28 1.17-1.25-.15-.42.81-.96-.44-2.03.65-.57 1.42-1.16.69-1.26.02-1.3-.7-2.01.63-2.39-.15-.23-1.36-.97-1.4-.34-1.8-.48-.25-.6-1.81-1.12.03-1.07 4.26-.2 1.86-1.5.46-4.24 2.02-2.09-2.5-1.96 1.06.77 1.27-1.26.8-.34.86-2-.67-1.8-2.18-4.19-1.97-3.03.34.69-2.62.07-1.16-1.59-1.26-.1-.57 1.24-1.73-2.81-.16-1.4-1.49-1.06-.57-3.72-.11-.9-.46-1 .6.23.83-1.53.8-3.22 7.75-1.53 2.2-6.16 7.07-1.2.9-.51 1.64-.76.89-.42 1.4-.85 1.2-.02.75-1.02.94-.87 1.81.52.7-8.16 2.02-.1-.9.33-3.36.15-3.32-4.85.76-1.6.4-5.96-1.42-1.53.53-8.1-1.05-3.46 3.38-1.48.15-5.3-1.54-2.84-1.88-1.44-1.26-1.88-2.21-1.13-2.7-1.73-1.81-4.06 3.7-5.83 5.73-3.06 2.14-.48-2.05-3.9-21.13 5.07-4.14 7.02-6.67 3.96-6.88 1.92-7.27.1-7.23-1.3-5.08-.4-2.06-3.55-6.03-2.7-3.6-3.34-3.12-2.76-1.6-.71-6.8.19-.42-.2-3.58-2.65-1.22-.4-1.93-1.77-2.44z"/>
    <path region="2" short-name="6" long-name="State Senate District 6" value="1" d="m172.21 169.75.61-2.02-.38-1.08 1.04-.69-.36-1.05.32-1.57 1.2-.71.71 1.65 1 .08 1.08-1.36 2.13-.7 1.1-2.37 1.08-1.29-.38-1.94 1.7-1.57.38-.9 2.28-.88.73.96.3 1.48-.76 1.35.4 2.03 3.3.46.9 1.07 1.02-.22 1.24 1.65-.06.67 2.06.84.03 3.41 1.25.18.95-1.1 1.44-.28 1.3.57 2.82 2.49.87.1 1.44 1.16 2.5.86 1.07 1.94.76.3 1.4-.56 1.48.42.49.9-.7 1.54v1.75l-.43 2.45 1.97.09.1.84 2.67-2.39.69.29 1.45-.34-.08 2.06 1.6.12 1.02 1.22 1.04-.14 1.4-.8.82.68 1.83-2.5 1.83-.13 1.18 3.2.34 3.42-.9.17-1.26-1.87-1.06 1.08-.13.95 1.08 2.59-1 1.32-1.37-.57-.31-1.16-1.67.15-.02 2.66 2.62 1.45.94 1.12-.48.98-1.6.76-.58.66-1.52-.43-.24-1.17-1.08-.04-.41-.99-2.14-.45-2.2-.77-1.01.06-.13 1.1-1.2 1.76-1.16.13-3.2-1.29-1.86.06-.42-2.68-3.3 2.09-1.59-1.18-.88.32-2.01-.9.13-1.83 1.17-1.29-.42-1.79-1.15-.26-1.39-.91-2.74.4-1.28 1.07-1.16 1.88-1.66-1.66-.81-2.31-2.33.66-.74 1.2-1.26-.01-1.57 1.31.04-2.27-.47-1.12-2.27-.64-2.62 1.04-.12-1.03-.77-.4-.88-1.25-.38-1.86-1.1-.8-.21-.96-1.35-.31.32-1.73-1.09-.34.74-1.67-1.64-1.41z"/>
    <path region="3" short-name="24" long-name="State Senate District 24" value="1" d="m279 527.24 14.98-14.02.62 5.36.91 2.13-.07.8-1.14 1.57-.85 2.97-1.14-.19-.33 2.08 1.63-.63.61.99-.46 1.43.34.59-.64 1.21 2.62 1.9-.22 1.72 3.05 1.82-.81.8.75 1.02 1.96 1.88 2.36-1.78 1.8 1.68 1.39 1.85 2.38 1.27 1.83.16 1.3.59 1.2 1.07 1.24-1.5.68-3.51.6-1.02 2.68-1.43 1.34-2.99 2.37-.72-.36-2.22-3.01-1.86-2.26-.9-1.27-.19 1.88-2.55 1.1-.84 1.68-3.29 1.18-.79 6.73-1.84.24-2.03 3.75-3.59.02-.8 1.82-1.95 1.41-.11 1.53.35 2.38-.25 1.12 3 3.86.47.38-1.14 1-1.04 1.46-2.36.53-1.4-1.34-.5-2.28-2.85-1.47-2.38-.6-1.62-1.44-1.95-.07-1.27 2.97-1.59 4.06-1.77 2.46-1.36 1.94-.95 7.82-2.83 1.6-1.1 1.58-1.81 1.32.84.65 1.05-.03 2.12 2.81 2.05.62.98 1.45.43 1.27 1.38v.88l1.1 2.5 1.18 1.67.76 1.9.72.59.16 2.47.9.85.59 1.25.63.31.28 1.5 1.07 1.6 1.85 1.9 1.06.56 1.86 2.7 1.55.6.94 1.48-1.12.45-4.95.1-3.45 1.76-1.76.38-1.1-.46-.94.41-1.02-.25-.1 1.4-.57.92-.45 4.05-1.06 2.8-.23 2.36.45 2.36-.55 2.1.3 1.55-1.7 3.01-1.91 1.76.62 2.29-.7 1.33-.4 1.9-.83 2.51-.24 1.43.31 1.05-.61 1.63.57.97.21 1.93-.55 2.05 1.98-.13 2.28.55 2.23-.29 1.96-1.29.79.57 1.9-.59.43 1.47 1.47-.45 2.2 1.86 1.63-.37 1.13 2.26.9.57-49 45-1.1.85-1.34-1.37-.91-3.16-1.27-1.2-1.46.33.71 1.12-.27 1.37-1.16.42-1.19-.08-1.67-.8-1.18.08-.83-.6-.05-1.41-.74-1.1-3.38-1.21-.79-1.2-1.29-1.2-1.79-.84-1.33-1.74.65-1.04.98.1 1.06-.53-1.31-.94-.38-1.52.9-.52 1.96 2.05 1.16-.9-1.5-.38.1-1.97-1.79-1.84-.42-1.36-1.13.2-1.9-.58-.54-.85.69-2.46 2.16-.1.75-1.2-.33-.7-1.26-.79-1.75 1.96-.53-.22-.06-2.11-.9-.48-1.37 1.57-.75 1.27-1.08-1.72.64-1.2-.77-.84-1.1.65-.46-.47.75-1.09-1.33-.13-.78-.94.49-1.28-1.18.07-.72 1.05-.01 1.1-1.25.62.83-2-2.23-1.56.96-2.1-1.05.38-.87-1.14-1.93.34-1.46-.35.33-1.2.7-1-.1-.75-1.97-1.8-.33-1.65 1.4-.47 1.87 1.09 1.02-.74.18-.75-1.25-1.48-.88-4.28-1.95-1.6.27-1.34 1.75.56 2.27-.91 1.27.81 1.12-.22.33-1.73-2.14-.6-2.22-1.76.2-1.13 2.87-.89.8-1.43-.35-1.29-.96-1.4-1.44-3.45-1.62-1.34-2.56-.85-4.29-2.22-2.83-.85-1.1-.62-1.04-1.92.11-1.63-2.27-4.84-1.32-.8-.5-1.77z"/>
    <path region="4" short-name="40" long-name="State Senate District 40" value="1" d="m332.15 610.44 1.08-.86 49.01-44.99-.9-.57-1.13-2.26-1.62.37-2.2-1.86-1.48.45-.43-1.47-1.9.6-.79-.58-1.96 1.29-2.23.29-2.28-.55-1.98.14.55-2.06-.21-1.93-.57-.97.61-1.62-.31-1.06.24-1.43.82-2.5.4-1.9.71-1.34-.62-2.29 1.9-1.76 1.71-3.01-.3-1.56.55-2.09-.45-2.36.23-2.36 1.06-2.8.45-4.05.57-.92.1-1.4 1.02.26.94-.42 1.1.46 1.76-.38 3.45-1.76 4.95-.1 1.12-.45-.94-1.48-1.55-.6-1.86-2.7-1.06-.56-1.85-1.9-1.07-1.6-.28-1.5-.63-.3-.6-1.26-.89-.85-.16-2.47-.72-.6-.76-1.89-1.18-1.66-1.1-2.5v-.9l-1.27-1.37-1.45-.43-.62-.98-2.8-2.04.02-2.12-.65-1.06-1.32-.84-1.59 1.81-1.6 1.1-7.8 2.83-1.95.95.45-1.82-1.12-.58-1.3-1.42-2.37-1.2-1.12-1.1-.71-2.08-.88-.62-1.71-2.16-2.01-.72-1.57-1.03 2.55-4.28.4-1.22 1.95-1.97.26-2.28.46-1.15-.06-1.13-1.87.18 29.98-28.24.48 1.37 1.6 2.2 3.02 1.1 1.27 1.69-.24 1.25 1.57 2.37.2 1.35 1.32.57 1.43 1.46.43 1.55 1.29 1.25 1.35.33.6.87 2.02-.37.6 1.19 1.38.7.95-.1.86.98h1.06l1.88.31 1.55 1.53 2.25 3.01 1.37.95.83 1.56.03 2.86 1.25 2.72-.3.47 1.88 2.6 1.49.85 1.5-.3 2.18 1.35.69-.08 2.89.59 1.92-.92 1.94 1.4 1.62.59 1.11-.13 2.24 1.23 1.16.25 1.04.97 1.4.26 2.78 1.39.46 1.1 2.12 1.55h2.31l.93-.52 1.08.75.86 1.5 1.8.59 1.08.8 1.6.54 1.27 1.1.94.37.53.87 1.93.5.83.99 1.15.24.97 1.07.83-.15 2.86 1.02.57.62 13.3-6.68 7.98-4.1 8.7-2.78 4.15 5.4 1.6 1.9 3.2 4.29 7.14 8.87 4.49-4.57.87 1.64-.2 1.82.57 1.34-.32 1.66-.06 2.24 4.19.82 7.96-3.55 15.29 3.89 15.89 13.64-12.31 7.45-1.17-1.41-4.63-6.86-1.73-2.24-6.07 16.27-2.92 2.4-1 2.28.25.63-.3 3.57.51 1.6 1.67 1.4.4 1.72.53.24.12 2.23-.47 1.97.58.7.12 1.6-.88 1.33-.88.63-.01.79-1.66 2.18-.59 1.7.28.95-.54.88.17 1.13-.77.51-.73 1.24.39 1.64-.42.5-.08 2.74-.35 1.12.78 1.17.7 2.78-.32.87 1.25.76.7 1.3-.3 1.25-1 .2-1.26 2.53.44 4.05-.43.32.7 1.55-.1.9-1.28 1.65.08 1.8 2.07 1.38 1.6.5.24.98 1.1.2 1.84 1.54-.5.87 2.34.06.15 3.38-.34.85 1.1.3.27 2.98 1.21 1.15 2.06.48 1.56 1.55-.28 1.14.33.81 1.8 1.11.99 1.31 1.6.21 1.06-1.05.84 1.5 1.6-.4 1.47 1.29 1.8-.52 2.06-.15 1.24.5.78 1 1.32-.54 5.04 3.38 1.36.49.1 1.14.66 1.45 1.77.9.6.8-.4 1.29.38 1.05 2.2.91.6 2.19 1.04.85-.07 1.04.65 1.11 1.12 1.02 1.14.46.34 1.33.99-.23.66.74-1.57 3.71-2.4 6.63-.18 1.4.35 1.97-5.75 7.82-.8-1.04-.76-.07-2.37-1.57-2.08-2.28-.99-.58-1.51-.23-.74-1.21-2.62-1.82-1.76-.5.29 3.32-1.3 2.22.72.4v2.23l-2.64 2.35-1.68 1.13.3 1.71 3.64 2.16.05 3.16-.48 1.78-2.05 2.2-2.6-.95-4.6-3.56-2.36-.91-.22 2.09 1.27 2.19-.2 1.65-.03 2.8-3.26-.68-4.61.12-.62 6.07.44 1.37-3.08 1.22-.6-.57.52-1.14-.54-.64.05-3.2 1.05-1.45-.91-.98-.63-2.18.12-1.06-.43-2.03-.77-1.68-1.9-1.23-2.27-1.88-.99 1.07-1.9.3-7.82.67-2.48-.48-2.14 1.04-.87 1.24-1.98 1.59-2.54.52-2.24-3.36-1.31 1.76-.32-1.28-1.34-.63-.54-1.84-1.6-1.3-1.5-1.6-1.82-.98-.46-1.17-.01-1.89-1.67-1.26-.23-1.65-1-.33-1.9-1.54-.77-1.36-18.3 11.65-7.7 4.79-2.56 1.74-.34 1.36-2.95 2-.33-.11-.15 8.3-.96-.32-1.65.4-2.06.86-1.97 2.01-1.48.69 3.13 13.11-2.18 1.88-11.38 10.06-.84 1.3-1.6 4.26-6.12 1.94-5.41 3.9-2.31-.03-.16-1.03-2.65.28-.26-.44 1.2-1.4.47-1.9-2.13-1.3-1.47.12-.16-1.05 2.6-.3.25-1.6-1.49.32-1.4-.8 1.63-.55-1.11-.73.53-.84-.39-2.95.97-.22-.85-1.68 1.37-.95-.57-2.26-1.47-1.06 1.22-.28.64-.73-.21-.98-1.01-1.38-1.74-.69-1.07.79-1.02-2.63-2.22 1.1-.29-1.5.82-1.74.34-1.87-.42-1.66-1.5-.32-.93-1.42-.62 1.05-1.64-.24-.73-.86.48-1.58 1.84-1.19.75-.92-.26-.97-1.18-.03.2 1.23-2.12-.88.34-1.74-.47-.8.3-1.14-1.47-.32-.04-.77.85-.98-2.48-2.43-.99-.25-.6-1.5.68-1.57-1.9-1.87-.57-3.51 1.31.78 1.16-.3.34-2.04.64-1.49.09-1.8-.38-1.15.81-.65.22-1.07-1.8-.7.23-1.1 1.42-.4-2.1-2.09-.76-.21-.53 1.35-.7-.44.7-1.3-.5-2.05-.54-.68-1.34-.16-1.83-1.6-.47-1.3-1 .59-.95-.53-.43-1.56-.91-.48-1.1 1.35-2.11-.6.53-2.25-1.44.36-1.04-.85-1.55-2.32-.9.3-.26-1.22-1.7-.78-1.75.06.92-1.76-1-1.78-1.95 1.77-.47-1 .97-1.26-.35-.99-1.05-.63-5.69.6-.85-.35-2.5-2.14-2.78-1.14-1.09-.72-4.14-1.46-1.6.02-1.35-1.3-2.2-1.18-1.63-1.82-3.12-2.08-.38-.97-1.62-1.12-1.87-2.21-.27-1.52-.77-.67.29-.8-.4-1.74.77-.27-.58-1.27.38-.8 1.1-.34z"/>
    <path region="5" short-name="32" long-name="State Senate District 32" value="1" d="m723.62 438.9 1.91.24 2.4-1.86 1.61 1.82 2.56.47 1.64-.78 2.4-.35 4.74-.17 2.12-.98 6.42-.55 3.85.28 1.64-.99 1.64-1.55.4 1.78.82.43 1.17 2.39 1.4.04.21.66 1.52.42.63.87 1.08-.27-.08 2.27.25 1.01-1.77.01-.95 2.16 1.36 1.67.37 1.07 1.92 1.13.74 1.7 2.22 1.77-.07.7 1.6 1.73 2.44.65 1.5.15.4 1.35 6.75 1.9 22.05 6.36.42-.45 4.4-1.65 1.08.5 1-.28.93.45 2.06-.87 1.54.04 1.65-2.06 1.87-.76 1.24-.95 1.83-.53 2.2.24 1-1.16 1.18-.51 1-1.07-.42-1.16.7-.6 1.3.37 1.81-.33 1.3.91 1.92-.09.47.9 1.2.82.8 1.37 1.57.07.42.56 1.35.3.07 1.03.74 1.12.16 1.27.7 1.72 1.55 1.65.45 1.44 2.94 4.02-.3 2.25 1.61.94-1.07 1.25-.04.86 1.07 2.85.72.4 2.27-1.46.45 1.25-1.04.63-.03 1.36 1.2-.5.9.15-.03 1.07 1.46.81 1.73-.17 1.02-.57.58 1.05-1.1.17.2 1.37 2.44.28 1.25-1.05 2.31-.66 3-.5.84.48.84-2.51.01-1.37.56-1.13-.74-1.68-2.9-3.5-.57.04-1.46-2.26.29-1.09-2.22-.73-.17-1.01-1.2-.58.22-.9-.72-1.87-.96-.55-1.17-1.7-1-3.46.4-1.07-.9-.24.53-1.19-1.57-1.66-.12-1 .65-1.72 1-.01.84-1-.72-.46-.07-1.17-1.71-.56-.13-1.45.48-1.41-.28-2.63.68-.88.16-2.41-1.52-3.2.38-2.65-.8-1.44 1.36-2.25.2-1.7 1.92-.77 1.48-1.22 1.74.9.62.83 1.14.21 1.9-.19.61-.6 1.47-.04.58.82 2.24-.47 1.05 3.85 1.47.57 3.06-.87.26.9-.44 1.15.06 2.05-1.24 1.85 2.5-.7 2.18-1.13 1.63-1.24.71.09.73-1.6.83.36 1.35 1.7 3.38-3.11.64 1.02 1-.44 1.05 2.74.15.96 1.03 1.6 1.39-.6 2.03.56 1.13 2.89-1.94-.54-1.86.58-1.53 2.64-1.56 1-1.29-.32-2.4.43.59 1.7-.43 1.49 1.05.65.67 1.9-.19 1.35-1.43-.17-.25.51-2.45.68-1.17 1.7.94 2.86 2.02 1.95 2.2 1.28-3.36 3.71-.84 1.14 1.18 1.06 1.9.57 2.22.34 2.88.75-.16.94-2.18.7-2.16 1.87-1.07 3.11 3.28 1.45 3.22-.1.7.46-.48 1.41-1.93 2.26.89 1.59 2.74-.78 3.93-2.67 1.62.2.03 2.54-.77 1.12.87 2.57-1.45.66-.6 2.04-1.35.48-.28 1.33.67.9 1.14.58-.47.89-2.85 1.36-.56.9-2.26.37-.96 1.07.2 1.73-.66 4.3-.7 1.7.29.64 1.23.2.7 1.22-.5.7.26 1.71-1.36.82-.63-2.16-.97-.54-.64 2.48-.73.19-2.3-1.31-.23-4.38-1.2-.68-.4-1.51.22-1.85-.8-.77.09-1.7 1.25 1.41.8-1.29-1.61-.9-1.08-2.85-1.07 1.3-1.21.74-2.68.72.3 3.92-.54 2.44 1.88 4.42 1.3 1.36.05 1.04-.65 1.1.64.72 1.45-.33-.31 1.19-1.59-.28-.11 1.99-1.76.93-.59.94-.95.07-.39 1.82.71 1.16-.4.61-1.14-.16-.98 2.2-.05 1.02.53 1.43.92.59 1.74-.46 1.17.88-1.46 1.44-.1.68.52 2.35 2.68 2.21-.05 1.64 1.37.32-1.63 3.68-1.04 1.41-.82 2.91.02 1.07-1 1.8-1.6 2.34-2.89 3.14-2.13 1.8-2.69 1.06-1 .64-.39 1.8-1.32 2.53-4.73 6.49-1.6 1-.61 2.24-1 2-1 .62-1.81.19-2.64 5.24-.67 1.6.06 2.83.87 4.43 1.02 2.17 1.63 1.85 1.6 1.32 2.54 1.18 3.58 3.34 5.11 2.48 1.7 2.44 1.18 3 .48 3.2.5 1.57 1.45 2.7-.15 1.86-1.04 2.25-.69 2.1-.62.87-6.08 4.97-2.68 3.03-2.04 2.88-4.75 1.6-7.64 4.07-2.1.98-1.52 1.65-1 .54-.42.95-2.35 8.13-3.81 8.48-.52 2.63-3.68-.08-7.6.64-1.03-1.08 2.04.2 2.2-.2.09-1.57-.79-.53-.6 1.28-1.88-.41-7.6.85-3.68.65-.85-.33-1.8.4-1.13-1.5-3.19-2.87-.6-1.34-3.22-.63-.58-.48-1.44.85-1.85.01-.9-.57.5-.81-1.79-.76-1.82.92-4.23 3.85-1.68 1.93-3.83 4.93-3.17 3.42-1.5 2.12-1.8 2.87-2.2 3.07-1.24 2.42-1.3 1.44.12 1.61-.44 1.81-1.86 2.04-1.28 2.47-3.06.34-.79-1.37-.6.2-3.9-2.37-.68-1.14-.91-.54-1.81.28-.32.99-.9.56-1.78.09-2.63-1.26-1.55-.2-1.84-1.75-1.85-.98-2.75.6.27-1.4 3.15-2.32 1.75.37.6-.55.56-1.9 1.16-1.65-1.2-2.57.17-1.73 1.33-3.36 1.82-2.1 2.15-1.95 2.91-2.16 1.55-4.19 1.45-2.4 2.41-1.3.91-2.26 1.42-1.28 2.52-3.4 1.1-1.74 2.9-2.48 1.05-2.48 1.62-2.93.51-1.95-1.25-.24-.9-1.52-1.1-.42-.31-3.39-1.82-1.07.13-3.07 1-2.19.06-1-.94-2.25-.61-3.16.76-3.72-.4-1.48.2-1.47-1.71-4.95.01-.49 3.35 2.3 5.16-1.09.64 1.3 2.26 2.75 1.5-.64 1.96-2.66 3.18-2.75.12-1.85 2.52.95.8-.67 1.4-.38.1-.64 1.84.76.93-.58 1.65-.07-.67-2.24-1.2.9-1.14-.24.7-1.56-.95-.98-3.25-.56-3.68-1.12h-2.3l-1.25-1.46-1.46-.92-2.37-1.02-3.45-.8-3.47-.54-.94-.78-2.65-1.25-2.9-1.88-.8-.9-1.45-.17-.69-.73-2 .66-1.59-.87-1.1.53-2.05-.42-1.43.73-1.73 2.2-1.14.02-.16.82.93 1.04.85 1.75-.22 2.22-4.26-1.06-4.5.17-9.32.7.23-.78-1.08-1-1.2-1.75 1.02-1.19-2.1-1.26-1.97-2.19-.26-1.75-1.94-1.95.08-1.81-5.94 3.95-2.5-.28.58-1.6-.06-2.14-2.14-1.19-.82-.83-.68-3.05-.81-.88-1.44 4.73-3.42-.65-.64-.43-1.4.38-1.55-1.23-3.87 3.07-3.7 3.32-2.25 2.4-2.96 4.05-.3.02-20.52-9.43-2.25-2.09-1.56.04-3.57-2.12-3.6-1.4-2.22-.5-3.54-2.65-4.59-1.7.65-2 1.26 1.74.52-1.85 1.52.07.14-3.3-.69-1.2.29-1.42-.19-2.6.68-2.28-.18-3.28 3.28 1.44-.16-2.64 1.42-.09.69.6-.61 1.17 1 .3 1.1-1.12.89-.31.99-1.06.8.37.3 1.13 1.07-.28 1.13-1.45.5-1.29.84 1.4-.5 1.57 2.16.16.5-.43-.49-2.59 1.36.48.46.91.8-.08-.34-1.33 1.6-.9-.6-.69-2.77-1.82-.8-1.14.59-2.06.82.57 1.83-.9.36-1.01 1.56-.26-.08-1.72.44-.57 2.59.91.87-.28 1.5.75 5.96-13.05 3.9-8.34 5.72-13.35 1.24-2.44 4.3-10.54 1.45-4.13 1.5-.72 2.42-3.56-4.42-11.6 1.76-1.55 8.88-9.04 2.37-.13 3.7-1.98z"/>
    <path region="6" short-name="34" long-name="State Senate District 34" value="1" d="m895.05 480.37 1.41-.41.45-1.79 2.08.02.11-.76 1.65.04-.14 3.49 1.65 3.48 1.03-.95 1.38-3.64.61-.88 2.77-1.59.34-.6 1.78-.01.9.47 2.07 3.44-.38.64-1.87 1 1 1.01-.99 1.87 4.12 1.36 3.09-.59-4.3 3.4-.96 1.96.44 2.42 1.07.8 5 5.1-.66.68-14.42 18.3-4.43 8.28-1.62.03-1.57 3.51-4.36 4.45-4.09 4.42-3.49 5.65-1.58 3.42-1.33 2.04-4.18 8.8-1.62 3.7-.89 2.68-1.15 6.53-1.14 3.8-.87 1.4-1.12-.04-.84.54v.99l1.37 1.65.37 1.61-.54.88-1.1 3.32-1 4.47-.8 5.75-.06 4.03 1.01 6.69-1.41 3.18-1.45-2.7-.5-1.57-.48-3.2-1.17-3-1.7-2.44-5.12-2.48-3.58-3.34-2.53-1.18-1.6-1.31-1.64-1.86-1.02-2.17-.87-4.43-.06-2.82.67-1.6 2.64-5.25 1.8-.2 1-.6 1-2.01.61-2.24 1.61-1 4.73-6.49 1.32-2.52.4-1.8.99-.65 2.69-1.06 2.13-1.8 2.88-3.14 1.61-2.33 1-1.81-.02-1.07.82-2.9 1.04-1.42 1.63-3.68-1.37-.32.04-1.64-2.67-2.2-.53-2.36.11-.68 1.46-1.44-1.17-.88-1.74.46-.92-.6-.53-1.42.04-1.02.99-2.2 1.13.16.41-.61-.7-1.16.38-1.82.95-.07.6-.94 1.75-.93.11-2 1.59.29.31-1.19-1.45.33-.64-.72.65-1.1-.05-1.04-1.3-1.36-1.88-4.42.54-2.44-.3-3.92 2.68-.72 1.21-.74 1.07-1.3 1.08 2.85 1.6.9-.79 1.3-1.25-1.43-.08 1.7.79.78-.22 1.85.4 1.51 1.2.68.22 4.38 2.31 1.3.73-.18.64-2.48.97.54.63 2.16 1.36-.82-.26-1.7.5-.71-.7-1.22-1.23-.2-.3-.65.71-1.69.66-4.3-.2-1.73.96-1.07 2.26-.37.56-.9 2.85-1.36.47-.89-1.14-.58-.67-.9.28-1.33 1.34-.47.6-2.05 1.46-.66-.87-2.57.77-1.12z"/>
    <path region="7" short-name="36" long-name="State Senate District 36" value="1" d="m529.64 509.25 1.87-4.94.89-2.03 1.18-1.67.82-3.06 2.56-5.3 1.64-1.1 9.26-3.65 1.37-1.58.8-3.14 1.81-3.83-.7-.4-5.29-.08-1.63.45-1.72 1.34-1.44.62-1.42-.76 1.11-1.97-2.7 1.32-2.27.5-.08-2.35.58-1.6 1.4-.67 1.07-1.01 1.03-2.7 2.46-1.8.52-.57-1.4-1.64.75-1.31 1.33.49.19 1.25 1 .84-.95 1.6.64.62.73-.84 1.22-.46.07-1.4 1.06.02 1.04 1.63.66-.2.14-2.16.64-.17 1.3 1.11-.2 1.68 1.17.7 2.03-.06.7.3 1.89-1.74 2.34-1.34 1.5-1.16.91-.13.62.88-.94 1.06-.03 1.09 1.42.91.48.89 1.15.48.27 1.18 1.59.97 2.09-.5.55.61-1.8.77-.19.7 1.08.7-.64.9 2.3 2.87.25 1.92 1.6.69 1.24 1.6 1.56.06.32.86-.83.99.66.7.66 1.85 1.07.78 2.29.68 1.85-.18.6.33.38 1.71-1.02 1.37.6.77 1.78.46.06 1.15 1.6 1.95 2.48 1.21 4.48-4.1 3.1-3.5 1.36-4.87 2.58-5.12 5.05.18 1.07-6 3.82-.2 1.04 3.56-1.45.73-.32 2.32 8.83-.91-.03-1.77-1-6.07-1.06-1.35-.3-1.74-.67-1.94.27-1.5 2.87-4.59-3.26-2.5-1.51-.05-.4.86-1.27-.29-4.77-2.13.16-1.47-.09-3.16 1.78-2.93.64-4.68-.22-1.84-.88-2.45-1.26-1.8-.39-1.29-.7-3.93 3.03-.4.17-1.7 1.17-.71 1.66-.01-.87-1.96-1.68-1.76.4-2.48 2.33.12-.12-2.64 1.06-.72 2.62.82 1.32-3-1.99-1.47 1-1.49 1.73 3.41 1.12.16.31 2.54.63 2.43 1.9 3.96.97.3.04 1.36 1.88-.13.08-.52h3.73l-.55-.85-2 .07-.31-2.62-.45-1.32 1.36-1.91-1.7-1.77.22-2.55-1.43-1.34.67-.4 4.7-.66 2.92-4.02-.42-2.13-.08-2.47-1.12-2.59-1.64-1.11-1.54.84-.4-.47-.34-2.13-.7-.11-1.13-1.52-.14-1.95-1.34-2.03-1.9-1.3-.58-3.94.37-1.14-.11-1.6 1.94-.11 9.92.19 1.27.75 2.58 3.55 1.73 5.98 5.38 1.09 2.36 4.15-.32 1.65.8 1.52-.09.79.53 1.93.73.73 1.4.14 3.06-.9.08 2.2 1.06 1.07.53 2.86-.33 1.38-.97 1.82-.85.42-1.12 1.65-.2 1.55-.8 1.05.85 1.87 1.59.37 1.18-.32 1.89.51 2 2.1 2.09.78 1.82 1.07 1.04 1.75 1.4 1.18 1.86 2.02 1.18.53-.03 1 1.08 3.12.81.63 1.41 2.14 1.75-1.04 2.89-.2 4.3-3.05 9.28-6.3 11.65-7.12 5.36-2.83 4.63 13.11 1.33 2.07 1.9-.05 7.15-.72 1.08.07 4.5.89-8.26 16.68-3.7 1.98-2.37.13-8.88 9.04-1.76 1.56 4.42 11.59-2.42 3.56-1.5.72-1.46 4.13-4.3 10.54-1.23 2.44-5.71 13.35-3.91 8.34-5.96 13.05-1.5-.75-.87.28-2.59-.9-.44.56.08 1.72-1.56.26-.36 1-1.83.91-.82-.57-.58 2.06.8 1.14 2.75 1.82.61.68-1.6.9.34 1.34-.8.08-.46-.91-1.36-.48.5 2.6-.5.42-2.18-.16.51-1.58-.84-1.39-.5 1.29-1.13 1.45-1.06.28-.32-1.13-.8-.37-.98 1.06-.88.31-1.1 1.11-1.01-.29.6-1.17-.68-.6-1.42.09.16 2.64-3.28-1.44.18 3.28-.68 2.28.19 2.6-.29 1.42.7 1.2-.15 3.3-1.52-.07-.52 1.85-1.26-1.75-.65 2.01-.05 1.75.57 3.3-.12 2.65-1.72 3.5.13 2.35-1 1.84.02 2.74-.76 2.56-1.64 1.91-1.39.48-.5 1.17-1.23.78-2.24.86.24-2.65-.43-1.21-.95-.88-.13-.78 1.41-2.3.6-2.08-.51-1.72-3.6-2.77-.18-1.01-1.3-2.4-2.45-.1-1.57-.55-.71-1.11-1.24-.76-.69-2.2-.78-.64-2.37-.03-.57-.69-3.9 5.01-.15-1.97-.82-3.94-2.03-3.78-1.66.04-4 1.47-4.04 1.27-2.83.04-5.21 2.47-2.18-1.14-.8 2.73-2.06.67-1.05.67.38.64.15 2.35-.33.88-2.85 1.06-.69-.1-1.95-1.2-3.08-.74-1.01-1.02-.5-1.98-1.17-1.58-1-.62-.84-1.34-.86-.09-1.36-.88-1.24-1.38-1.66-1.14-.3-.86-2.52-2.24-1.23-2.04-.42-1.37.33-.63-.9-3.24-.8-.7-.97-1.88-2.27-2.45-1.17-.52-1.29-2.32-1.14-.43-.56-2.16-1.2-.52-.41-1.32-2.05-1.56-.95-1.84-.25-1.34-1.52-.96-1.05-1.8.42-2.85-7.8-6.89z"/>
    <path region="8" short-name="21" long-name="State Senate District 21" value="1" d="m480.92 403.3-.05-1.6.56-1.75 1.79-1.86 3.08-1.8.78-.68 1.31 1.1 1.45-1.12 1.67-.86 1.78-1.48.86-1.47 4.1-.24.33-1.63-.47-1.8 1.06-1.55-.87-1.68.74-.95 2.42.8.84 1.01 1.67.69.82 1.12-2.82 1.85-.35 1.02-2.93 3.33-1.54 1.54-1.68.58.43.6-.16 1.3.68 1.27-3.16 2.14-.66.65-.23 1.53-1.68.6.02 3.67-.24 2.55 1.81.74-.12 1.22 1.19.87.6-1.04 1.1.77.85 1.06 3.17 2.4.44-3.1-.47-.95 2.34-.57 2.1 3.59.89.4 1.56-1.16 1.33.67 4.72-1.2 5.4-1.72 20.72-3.4 12.55-.7.52-.56.08-9.92.72.17 1.73-.45 1.3.26 1.33-.57 1.73.5 2.2-.39.53-.64 2.25.68 2.67.05 4.3-1.46 1.5.24-1.22 1.16.98 1.4.18.9 1.25.8-1.47 2.54.73 1.43-2.1-.37-.84 2.11-1.96 1.2.58 2.06-.4.17-1.6-1.24-.48.76.38.87-1.17.5.34 2.2-.96.4.6 1.45 2.22 1.9-.57 2.31.88.46 1.17-.9 1.57.71.1.77-1.21.45-.77 2.1-.72.87-.16 1.75 1.36.67.37.8-1.95.89.81.62-1.31 1.58-.33 1.57 2 2.97-.3 1.47.93 1.13.92-.1.3 1.2-.74.52-1.4-.03 1.3 2.52-.82.38.14 1.18-.51 1.43.5 1.4-.97.02-.66.99-.42 1.72 1.1 1.4.18.78 1.57.58.63 1.24-.88.83.72 1.04-.13 1.45.5 1.27 1.8 1.84.46 2.06.68.15-.07 2.87 1.05.49-.93.89.62 1.34-1.66 1.44.3 1.24-1.43 3.83-1.73.74-.14 1.33-.55-.6-2.09.5-1.59-.98-.27-1.18-1.15-.48-.48-.89-1.42-.91.03-1.09.94-1.06-.62-.89-.9.14-1.51 1.16-2.34 1.34-1.89 1.75-.7-.31-2.03.06-1.18-.7.21-1.68-1.3-1.12-.64.18-.14 2.16-.66.2-1.03-1.63-1.07-.02-.07 1.4-1.22.46-.73.84-.64-.62.94-1.6-1-.84-.18-1.25-1.33-.49-.75 1.31 1.4 1.64-.51.57-.52-.72-1.33-.05-.27-2.07-.46-.23-1.38 1.8-.33-1.14-.8-.13-1.58 2.55-1.14.17.4-1.97-2.17-.16-1.67-.9-1.3-.27-.4-1.07-1.28-.65-1.29 1.68-1.27-.46 1.13-2.1-.45-.57-1.81.34-.84-2.1-1.6-.52-2.63-1.4-1.65-.29-.83-2.42-1.06-.78-1.04-.03-2.79 1.43-1.1.29-3.55-.67-.36-.58.28-2.8.88-1.24-.29-.77-1.53-.48-.55.47-.24 1.4-2.48.25-.91-.52-.72-1.35-1.41-1.76-3.15-1.74-1.47.21-.99-.38-1.65-.05-.81-1 .7-1.19-2.82-.79-.48-.61.79-.98.36-1.72-.75-1.16-2.53-.4-1.25-.53-.64-1.48.83-2.12 1.34-.4.46-1.5-1.14-1.01-1.76-.28-1.3-.7-.05-1.1 2.03-1.18.5-2.44-3.9-7.96-.57-1.37-1.54-2.33 1.01-1.12 3.27-1.26.93 1.13 2.4-.94-1.12-2.57-2.04-5.51.66-1.32-1.46-.45-.38-1.11-2.2-.07z"/>
    <path region="9" short-name="39" long-name="State Senate District 39" value="1" d="m545.53 522.9 7.8 6.88-.42 2.86 1.05 1.79 1.52.96.25 1.34.95 1.84 2.05 1.56.41 1.32 1.2.52.57 2.16 1.13.43 1.29 2.32 1.17.52 2.27 2.45.97 1.88.8.7.9 3.24-.33.63.42 1.37 1.23 2.04 2.52 2.24.3.86 1.66 1.14 1.24 1.38 1.36.88.86.09.83 1.34 1 .62 1.17 1.58.5 1.98 1.02 1.02 3.08.74 1.95 1.2.7.1 2.84-1.06.33-.88-.15-2.35-.38-.64 1.05-.67 2.06-.67.8-2.73 2.18 1.14 5.22-2.47 2.82-.04 4.05-1.27 3.99-1.47 1.67-.04 2.02 3.78.82 3.94.14 1.97 3.9-5 .58.68 2.37.03.78.64.7 2.2 1.23.76.71 1.11 1.57.56 2.45.08 1.3 2.4.17 1.02 3.61 2.77.5 1.72-.59 2.08-1.4 2.3.12.78.96.88.42 1.21-.23 2.65 2.23-.86 1 .63.54 1.47 2.58-.8 1.85.94.8-.96 1.4-.3v2.26l.47.42-.42 2.72 1.05.77 1.86-.6 1.41 1.6-.55 2.53.45.57 1.49.22 2.33 1.23 1.24-.84 1.37.14.82-.43 1.42 1.78 1 .12.8 1.36.01 1.09.55.86 1.4 3.22.29 1.12 2.34-2.4 9.55 7.7.64.88 2.81 2.04.18 1.65 3.2.01-1.52 2.76.24 1.33 1.42.1-.26 1.3-.97-.12-.23 3.48.98.52-2.61 8.59-.22-1.37-.79.15-1.32-.79-.59.77-1.14-.7.74-1.36-.79-1.11-2.69 1.86-.59.85 4.98 7.2 1.57 2.5 1.98 2.28 2.88 2.16 1.74.59 4.07.43-.33 3.27 1.9.16 3.02-1.13-1.83 3.56.61.95-.36 1.01 1.32.07 2.6.65-.46 4.3-1.43-.4.04-1.54-.74-1.33-3.27.95-.72.88-2.8-6.09-1.7-3.31-1.03.2-.43-1.41-3.3.57-1.46-.52-.54 2.22-1.5.13-.88-1.99-.14-2.68-1.39-.2-.95-1.14-.16-.8-7.85 1.96 2.37 2.61 3.44 2.78-1.58 2.06-5.73-4.47-1.7-1.53-18.13-14.26-17.6-13.85-2.56.96-1.13 2.5-.48 2.17.47.5-.92 1.3-.02 1.15-1.04 1.49-.04 1.2-.9-.03-1.26 1.56-1.47 1.14-.3 1.06-1.21-.5-.37.86-1.16.4.16.88-.97 1.27-.71 3.03-.7 1.93.4.5-1.62 1.19-2.04-2.07-.6.85-1.46.02-1.88-.46-2.28-1.73-.79.31-1.24-.82-2.77-.52-.4.8-1.66-.07-1.05-.53-1 .97-3.14.6-1.07-.3-1.16-.89-1.18.22-.26-1.28-.98-.83-1.15.68-2.06.3.6.86-1.2.97-.6-.89-2.4.62h-1.31l-1.55.54-.75-.3-1.96.16-.73-.51-2.82-.72-3.17-1.03-.82-.64-.93-2.03-3.06-1.95-.65-1.16-.66-.74-1 .23-.33-1.33-1.14-.46-1.12-1.02-.65-1.1.07-1.05-1.04-.85-.6-2.19-2.2-.91-.37-1.06.38-1.28-.6-.8-1.76-.9-.65-1.46-.11-1.13-1.36-.49-5.04-3.38-1.32.54-.78-1-1.24-.5-2.05.15-1.8.51-1.48-1.29-1.6.42-.84-1.51-1.05 1.05-1.61-.2-1-1.32-1.8-1.1-.32-.82.28-1.14-1.56-1.55-2.06-.48-1.2-1.15-.28-2.97-1.1-.3.34-.86-.15-3.38-2.34-.06.5-.87-1.84-1.53-1.1-.2-.24-1-1.6-.49-2.07-1.37-.08-1.8 1.27-1.65.12-.9-.71-1.56.43-.32-.44-4.05 1.26-2.53 1-.2.3-1.25-.7-1.3-1.25-.76.32-.87-.7-2.78-.78-1.17.35-1.12.08-2.75.42-.49-.39-1.64.73-1.24.77-.51-.17-1.13.54-.88-.28-.95.6-1.7 1.65-2.18v-.79l.9-.64.87-1.31-.12-1.61-.58-.7.47-1.97-.12-2.23-.52-.24-.42-1.72-1.66-1.4-.51-1.6.3-3.58-.24-.62.99-2.27 2.92-2.41 6.07-16.27 1.73 2.24 4.63 6.86 1.17 1.4z"/>
    <path region="10" short-name="11" long-name="State Senate District 11" value="1" d="m259.53 108.95 3.43.2 18.35.56 17.2.81-1.5 1 1.03 1.24-.11 1.27.28 1.88.94 3-.25 2.42 1.09 2.47-.07 1.12-1 2.1.4 1.39-1.27 2.75-1.8 3.44.21 2.65-.12 1.75-1.07 3.1-.64 1.22-1.96-.57-.04 2.1.9.95-.6 1.98 2.3.66 1.68-.07 4.68.36 1.59 1.66.2 1.34-.47 1.9-1.42 1.2-1.94 4.2-2.33 2.35-.56-1.05-1.06-.1-.95-2.1-1.9.68.04 2.4.87 2.63 2.36 2.69.82.53 1.26 2.16v.58l1.66 2.06 3.47 2.95-.4 1.36-1.05 1.27-.84-.95-1 .98-.61 1.22-.91.45.18 1.04-.55 1.16-2.03-.3-.82-1.85.53-1.18-.8-.6v-1.21l-1.94.46-.87 1.1-1.18-.4.16-1.96-1.65-1.6.22-.75-7.21.82-1.15-1.57-.1-2.45-.66-2.53-.48-2.89-2.49-3.05-.2-1.46-2.31.46-2.73 1.38-.88.98 1.04 3.15-.4 1.1-1.55.55-.67-.37-1.67.1-1.93.53-.8-.68-1.06-2.66-1.52-1.17-.82-2-.35-2.78-1.3-1.43-3.03-1.16-.72.26-3.08-2.1-.5-1.3.01-1.53-.4-.84 1.96-2.02-2.17-3.76-1.8-1.58-1.1-.28.23-.85.07-4.8.94-.63.42-3.17.9-1.61-.35-1.47 1.79 1 1.38 1.18 2.23.62 2.19-.52 2.08-1.27 1.93 2.32.9 1.88.95.74 1.71-1.5-1.47-3-2.7-4.59-2.48-3.37-2.42-4.31-2.83-3.1 2.66-1.7.96.4 3.19-2.38-1.17-2.82z"/>
    <path region="11" short-name="13" long-name="State Senate District 13" value="1" d="m238.95 203.88 4.1 4.15 1.1 2.79 1.1-.12 1.99-1.44-1.04-1.54h1.6l-.58-1.1-1.26.4-.7-1.67-2.74-3.47 4.82-4.38 1.27-.63 2.27-1.7.88-2.39 2.55.25 1.85-.85 2.31.17 1.49-.29-.24 2.48.97-.03 3.75 1.43 1.92.14 1.3-1.15-.56-2.65-1.34-.81-1.06-1.57.73-1.18 2.18-2.28 1.78 1.4 2.97.97 1.22.74-.82 3.66 3.14.85 1.3-.03.9.8 1.18 2.05 2.4-3.81 3.2 1.14.78-.78 2.56-.96 1.38.03 1.07-1.18 1.22-.03.56-.68 3.44-2.34 1.7-.62 2.02-.35-.67-1.43-1.93-.51-3.13-1.28-.31-.44.85-2.04 1.6-.55 2.03.29.55-1.16-.18-1.04.9-.45.62-1.22 1-.98.84.95 1.05-1.27.4-1.36-3.47-2.95-1.65-2.06-.02-.58-1.25-2.16-.82-.53-2.36-2.69-.87-2.62-.03-2.41 1.9-.69.94 2.11 1.06.1.56 1.05 2.33-2.36 1.94-4.18 1.42-1.2.46-1.91-.2-1.34 2.4 1.13 7.18-2.22 1.18.77-.47 1.1 1.54 1.02-.61 1.62.9.58-1.07.83.2 1.4 1.3.55-.33.84.88 1.23 1.42-.25 1.22-1 .38 1.8.74.57.23 2.48.98.85 1.58-.28 2.02 2.08 1.9-.37 1.21-1.9.38-2.9 4.21 14.95 1.24.17 2.98-.8 1.25 2.72 1.06 1.22.93.27.32 1.09 2.23.11.76 1.28 2.29.02 1.13-1.4 1.73 1.3.23 1.56.9-.78 2 1.34 2.43-.84 1 .38.55 1.09.24 1.98 1.05 1.22-.5.56 2.42 1.18.49.6 3.15-.46.73 1.11-.74 1.55.7 2-.08 1.06-.81.96 1 1.93-.21 1.6.3 1.21-1.1 1.54-.68-1.24-.98-.88-1.21-.2-.23 1.42-.71 1.34-1.79 2.32-.95.13.86 3.17-.41 1.87.15 1.02 1.56-.6 1.73.37 2.65 3.8 1.86-.08 1.8.71-.6 1.06-1.53.73-1.16 1.36-.23.86 2.17 1.86-.5 1.44.16 5.52-.13 1.1-1.16.78-1.38-.2-2.3.23-1.38 1.12-2.84 1.73-1.46.54-2.08 1.33-1.96 3.3-.38.31-2.24.04-.51.6 1.42 2.56 1.64 1.96.65 1.18.8.25 1.23 1.36-1.54 1.51 1.46 3.03-.04 2.12-.97 3.92.18 1.36-1.35.83-1.39-.34-.94.95-2.19-.27-1.79.38-3.4-.48.61.98-.13 1.82 1.08 3.48-1.15 2.95-.02 1.8-2.18-.28-1.3-1.09-.89.4-1.07-.84-.35-.98-1.02-.46-2.13.6-.54-.6h-1.29l-1.4-.64-.93.23-1.44-1.05-2.8-.17-.43-1.52-2.35.17-.95-2.03-1.6.03-.4-1.17-.81.3-1.6-.44.03-1.11-.76-.76-1.35 1.52-1.06.01-.9.6-1.19 2.89-1.05-1.68-.34-1.38-2.35-.5-1.77.6-.83-2.38-1 .74-2.2-1.03-.07-1.19-1.9-1.07-1.39-1.57-.25-1.68-.6-.45-1.52-2.36-.75.55-.5-2.45-1.66-1.53-1.13.15-2.8-.37-.14-2.05-3.5-.23-.54-.59-2.87-.15-.8-1.15-1.77-.65-.27-.87-2.08-1.4-2.53-1.34-.28-1.15-1.08-.44-.22-.72-1.9-.58-.12-1.38-1.87-.11-.98-.7.76-1.03.24-1.87-.7-1.15-1.82.09.24-2.08-.65-.71-1.06-2.34-.3-1.38-2-.1-.87.38-.57-1.32-.9-.96-1.49 1.05-1.11-2.24-.56-.35-1.47-3.36-1.04-.17-.02-1.3-2.1-1.78-6.72 16.83-1.56-.77-1.54-.31-.85-1.35-.76-.45 1.9-2.91-1.98-3.65-.65-2.51-1.85-1.26-.87.93-2.64-1.53-1.03-1.43.2-2.87.55-1.13.52-2.71 2.03-.5 1.31-.72z"/>
    <path region="12" short-name="17" long-name="State Senate District 17" value="1" d="m390.12 202.94 21.97-.18 10.06-.02 30.42.35-.04-1.82-.47-.94-.16-1.63.5-1.45 6.93-3.26 3.24-1.64 1.73-1.26 1.19-1.28 3.48-2.46 1.03-1.25 3.74-2.44 1.78-.34.08-1.17 1.08-4.06-.25-2.65 1.14-.59-.35-2.12-1.12-1.36.64-1.41 1.3-1.03 2-.32 1.2 2.12 1.71.77.95 2.15-.06 1.18-.9.8 1.08 1.23 1.9.76 1.02-1.8 2.27.76 1.68-.31-.97-4.65.52-2.7.6.23 1.18 1.42 3.48-.61 2.34-2.83 1.27.53 1.4 1.42 1.35.55.95-.15 6.18 1.58 1.02.52 1.59.22 1.32-.55 2.27-.06.83.28.99 1.5-.51.97.99 2.57-.4 3.13-.76 1.27-1.53 1.37-.16 1.27.17 3.23-.39 3.48.18 2.06.53.8 2.13 1.72.99-1.23.61 1.15 1-.23 1.42-1.02.24-1.66-.23-1.85 1.99-2.73.67-2.23 4.77-4.3-.88-2.05-1.18-1.76-2-.99-.65-.63-.47-1.46.97-.2 2.53.58 1.82-.6 3.5-.79 1.17-.65 1.3 1.76-2.8 25.45-.42 3.97-.83 2.44.74 3.07-.92.2-1.72 1.13-.47 1.16-1.25-.73-.97.36-1.15-.98-1.1 1.3-1.5.47-2.02-.21.07.97-1.46.8-.35.78.07 2.6-.71 1.12-3.1 1.37.3 2.93.67 3.84 1.22 1.82-.1 2.09.26 2.13 1.36 1.62-.12 1.14-3.44 3.25-.76 2.26-1.65 1.36.41 2.92-.19 1.12-1.56 2.76-.31 2.5.93 1.69.57 1.75-.16 2.63-.44 2.47 1.87 2.43-.09.77 1.11 1.08-.09 2.53 1.15 3.6.05.98-.92 1.32.37 2.99-.14 2.75-1.06 4.72-.1 1.57-1.2 1.19h-.94l-1.08.94-.31 1.26.55.71 1.63 4.04 1.1 1.13.77 1.41 1.88 2.07.61 1.26 3.8 3.65 2.17 2.8 1.12 1.06 1.57.75 3.12-.7 3.57.33 2.14 1.72.28 1-.52 1.98.6 2.23 2.4 2.2-11.65 27.3-28.29 4.21-10.46 3.15-5.63 1.76-.72-1.04-3.09.75-.77 1.43-1.8-1.07-.5 1.89h-2.29l-1.06 1.36-1 .43-.55.94-5.13-.55-.9.09-11.73-1.15.14 1.14 1.46 1.27.1 1.6.66.28.2 2.23-1.04 1.32-1.15.52.24 3.14-1.38-.86-1.5-1.37-1.98-1.35-1.41-1.39-2.15-.62-.65-1.57-.95-.67-5.17.7-1.67-1.52-.6-1.23-1.52-2.01-.76-.25-1.34-1.96-3.54-1.7-1.22-.2-1.64.3-1.37-.63-1.26-1.64-1.12-2.78-2.9-2.5-.63-2.25.22-1.72.96-1.83-.8-2.06-2.18-1.19-1.04-1.92-.56-1.84-1-2.01.13-1.16-1.18-2.6.01-2.44-1.39-2.94-.94-1.29-.96-3.3-1.57-1.72-.52-1.38-.13-2.1-1.72-3.43-.08-1.81-.7-1.44-.08-1.11-.84-1.85-.34-1.52-1.08-2.19 1.74-3.56-.03-1.28-.62-1.64-1.35-.68-.16-3.07.44-1.8-.79-5.7-.55-1.37.11-2.4.51-1.68.06-2.61.68-1 .25-1.68-1.46-3.01 1.01-2.83.86-3.64-.12-2.14.11-4.22.42-1.1-1.06-1.7-1.79-2.1-2.57-1.3-1.25-3.33-1.3-2.1.13-4.33-.4-4.8.28-2.43-1.62-1.42-2.94.83-.48-.11-2.06-2.37.21-1.3 1.02-1.58 2.77-2.3 3.32-1.88-.44-3.24.35-2.16-.52-1.33-.06-1.28-.6-1.27-1.82-1.04-.23-2.37-2.52.6-1.28-1.2.05-.82z"/>
    <path region="13" short-name="18" long-name="State Senate District 18" value="1" d="m401.61 285.69.17 3.07 1.34.68.62 1.64.03 1.28-1.74 3.56 1.08 2.19.34 1.52.84 1.85.08 1.11.7 1.44.08 1.81 1.72 3.42.13 2.1.52 1.4 1.57 1.72.96 3.3.94 1.28 1.4 2.94-.02 2.45 1.18 2.59-.13 1.16 1 2.01.56 1.84 1.04 1.92 2.18 1.19.8 2.06-.96 1.83-.22 1.72.63 2.26 2.9 2.5 1.12 2.77 1.26 1.64 1.37.63 1.64-.3 1.22.2 3.54 1.7 1.34 1.96.76.25 1.51 2 .61 1.24 1.67 1.51 5.17-.69.95.67.65 1.57 2.15.62 1.4 1.4 1.99 1.34 1.5 1.37 1.38.86.87.44 2.16 1.85 1.65.46 1.57 1.76.82 2.4.82 1.7 1.52 3.81 1.27.78-2.2 1.07-.76-.56-.73 1.54-1.4-.25-2.09.9-1.3-.1-2.47.34-.86.65-3.17-3.7-2.13 1.34-.82-.74-1.68-.65.27 1.5-1.29 1.68.59 2.33 5.24 1.13 3.64 1.44 1.6.02v.73l4.16 2.5-.64.88-2.83 1.95 1.32 1.61-.5 1.08-.25 2.65 2.09 2.12 1.04.77 2.66.93 2.2 1.03-3.4 3.2-.83.4-1.23-.66-5.4.37-2.72.97-1.67.86-.08-1.23 2.03-2.38.67-1.4-.45-4.27.1-1-2.6-1.08-1.35-.06-1.45-.67-3.4.4-1.87-.13-1.73-.7-5.87-.46-1.46-.77-1.95.1-3.95-.85-3.52-.48-3.94-.84-4.2.73-3.92-.97-1.08-.58-1.82.18-.34-.4-2.14-.44-2.08-2.26-1.14-.08-2.24 1.28-.77.13-3.17-1.62-1.2-.8-.57.79-.2 1.3-.68.68-1.98-1.36-4.23 2.02-1.48-.77-.88-1.34-1.04.22-2.36-.38-1.81.3-.72-.63-1.3-2.43-1.16-.05-1.93-1.3-1.65-.11-2.95-3-.84-1.4-1.19-.31-.77 1.34-.72-.41-.38-1.4-.96-.81-2.3-.3-1.01-1.01-1.36-3.24-1.17-1.14-2.17.03-1.56-.59-1.08-.98-2.62-.93-.83-1.82-1.55-.88-1.54-1.56-3.64-.06-2-.86-1.6-1.95-1.1-.82-1.32.49-1.25 1.64-1.09.51-.97-.15-1.97.94-1.6.03-.55 1.83-1.07.48-1.12-2.02-1.96.85-1.33-.78-2.25-.75-2.71.75-1.04-.3-1.12-1.1-.98 1.46-.74-.23-2.27-1.76-1.5.18-1.23 1.84-2.05 1.06.09 3.03 1.03 1.46-.37 1.05 1.25 1.23-.7 1.4-1.52-.38-1.28-1.45-2.3-.64-.75-.61-.08-2.22-1.89-1.38.02-1.44.65-2.2-.75-.66-1.85.51-1.14-2.32.62-1.13-1.51-1.3-2.57.1-1.24-1.93.64-1.37 1.5-1.71 1.67-1.09.61-2.81 2.59-3.89.44-2.33 1.26-1.93-.06-2.57 1.6-5.63.1-1.17 1.49-1.1 1.05-1.8 2.45-.1.78-1 1.3.2 1.88-1.74.8-.27-.45-1.4.16-.98 1.07-.54 1.63-1.93 2.79-1.03 2.17-.17 1.35-.76 1.91-1.68 3.06-1.98.43-.66-.07-1.38 1.31-2.71 1.81-1.88.78-1.68.9-.13.62-1.23.1-1.13 1.7-1.57-.26-1.37 1.72-2.1 1.06-1.86-.07-.62 2.02-1.92.47-1.09 1.66.08 1.14-.8 1.15-.23.26-.65 7.8-12.45.73-.52.74-1.5 1.66-1.1.03-.7 1.25-3.33.7 1.55 1.87.05.7.8 2.09-.28.17 1.85.75 1.05 2.22.23 1.93 2.17 1.04 1.88 2.05.63.74.87 2.17 1.64.26.47 2.18 1.45.23 1.63-1.1 1.61 1.74.3.53.57-1.28.83.25 1.26 2.22 1.81 6.79-6.88 4.81-4.47 2.1-.07 1.28-1 2.02 1.84 1.36-.83 1.5.57.26-1.7 1.7-.39.44.97 1.19-.81z"/>
    <path region="14" short-name="23" long-name="State Senate District 23" value="1" d="m428.17 420.55 2.84-.84 2.15-.12 1.96-1.7-.1-3.28 2.69-.65 1.32-.72 2.02-.46-.45 2.08 1.65.97 1.62-.49 1.63-1.79.29-1.05 1.7.01 1.16-1.66-.95-2.05 1.67-.86 2.72-.96 5.4-.38 1.23.67.49 1.24-1.55 1.3 1.22 2.24.28 2.61.42.7.17 1.82 1.26-.06 2.8-1.3 3.64-.87.23.92 2.33 4.34.27.9-2.04 2.74 1.65.4-.34 1.27-4 3.5-1.15 2.02.45 2-.42 1.32.2 1.8-.8.48.96 1.35.8.41-.03 1.67-.56 1.64.68.53 2.54.26 1.03 1.55.3 1.62 1.15-2.63 1.85-.15 1.88-.64-1.22 2-1.13 2.97 1.24.26 2.85-.02.6 1 2.66.66 2.26.04-1.61 9.95-.3 3.8-1.37 2.73-2.06-.39-1.5.83-.85-.47-1.15-2.16-1.47 1.17-2.53-.69-1.19 3.9-.91 1.13-1.45-1.15-1.86-3.72-.35-1.27-3.6.89-1.72 1.35-3.09 5.4-1.5 4.3.47 4.59.74 2.02 1.27 1.16.66 1.31.08 1.08 1.54.4.98 2.08 1.76 1.2 3.4 1.78-13.3 6.68-.57-.62-2.86-1.02-.83.15-.97-1.07-1.15-.24-.83-1-1.93-.49-.53-.87-.94-.37-1.26-1.1-1.61-.54-1.08-.8-1.8-.58-.86-1.5-1.08-.76-.93.52h-2.3l-2.13-1.56-.46-1.1-2.78-1.38-1.4-.26-1.04-.97-1.16-.25-2.24-1.23-1.11.13-1.62-.58-1.94-1.41-1.92.92-2.9-.59-.68.08-2.17-1.35-1.51.3-1.5-.85-1.87-2.6.3-.47-1.25-2.72-.03-2.86-.83-1.56-1.37-.95-2.25-3-1.55-1.54-1.88-.32 4.13-5.02 2.83-2.4-1.35-.6-1.82-1.36-1.26-3.86-2.35-3.15-1.6-2.45-3.97-4.87-1.57-1.15-.8-1.9-1.54.24-2.07-.85-1.06-2.7.36-.88-.6-1.45-1.03-1.2.17-4.01.96.36 2.42 2.55 2.25-.57.56.37.85 1.92 1.06 1.3 2.55-1.95 3.34-1.09 2.04 4.3-.07 1.45-.5 1.93 2.61 1.23 3.88-.1 1.4.37 2.5.11.86 1.62h2.24l1.3.52 3.33-.13 1.95-.4 1.11-.8.66.8 3.67-2.83 3.97-2.8 4.38-1.89 1.57-.87-.22-2.66-.96-1.86z"/>
    <path region="15" short-name="1" long-name="State Senate District 1" value="1" d="m50.74 157.34.2-.04 22.62-7.26 21.29-6.62-.32 1.7-.91-.07-.3 1.9-1.02.14-1.76 1.4.92 1.66-.87 1.92.13 1.16 1.1 2.08-1.3.8-2.17-.9-1.89 3.5-.47 1.86.6.75-.29 1.18.95 1.1.93-.1 2.86 1.16-.54 1.22-.14 1.95 2.15 1.4-1.31 1.37.78 1.73 1.67 1.81-.69 1.23.57 1.02-1.05 1.25.12.6 1.44 1.08-.82 1.08-.17 1 1.23 1.03-.58 1.84-1.3.11.55 2.14.42 4.53.53.87-.53 1.35.98 1.6-.27 1.66 1.08 2.5-.65 1.26.3 1.83-.7.38 1.07 1.93-.25 2.63.31.7 1.72-1.03-.26 1.78.3 1.09.78.87 1-1.14 1.14.43 1.4 2.16 1.06-.2.61 1.02 1.32.4 1.24 1.02 1.42 2.01 1.18 2.12 1.05-1.8.34-1.6 1.3.34 1.66-.37.99-3.17 1.36 1.55.68-1.02 2.23-.83 1.97 1.8.47 1.38-.93.95-.85.14-1.92 1.65.4.72-.39.98.2 1.05-.6.82-.06 2.28 1 .64.2 1.03-.66 1.03 1.12 1.87-.57 2.49 1.32.63 1.94.41 2.01-.44 1.37 1.19 2 2.84.97.4-9.01 5.36-23.91 27.41-16.4 18.84-2.28 2.65-1.45 1.71-3.34-1.35-2.92-1.6-.85.26-3.75-2.73-.35-1.87-.99-.6-1.65.67-.77-.27-1.64-1.8-.52-1.31-1.46-.85 1.86-1.76-1.44-1.56-1.6-.5-.9.35-1.24-.26-.13-1.53-1.07-.74-.34-1.39-1.45-1.38-1.47-.62.28-1.3-.89-.47-1.29.63-1.48-.73.13-1.42-.69-1.36-3.32-1.92.95-1.82-2.85-.71-.41-.36.04-1.82 1.2-.32v-.89l-1.12-.76-2.3-.02-3 1.03-.82-1.16-2.03-.68-1.57-.08-1.44.37-1.67-.42-2.53-1.77.59-1.6-1.21-.6-.25-1-1.41-1.58-1.63-.8-1.79-.33-1.59-.96-.19-.63-2.86-1.63-1.67-2.26-.71-1.6-2.54-.08-.96-1.94-1.84-.96-1.79.33-.77-.75.9-1.06-1.01-1.7-2.04-.8.23-1.17 1.08-.64-.65-1.02-.63-2.33-.13-2.77.9-2.08.76-.46H3l.05-.92 1.25-1.02.06-.73 1.27-.47.09-1.43 1.36-2.12-.76-.31.84-1.32-.77-1.6.3-.36-.61-2.14.76-1.41 1.39-.96v-.78l2.2-.58.72-2-.93-.24-.5-.97.73-.98.65.88 1.1-.12 1-.7.27-1.57 2.48 1.98 1.75-1.08.2-2.85-1.06-.6 1.28-3.62 1.12.2 1.08 1.04.65-1.91-.15-1.08 1.05-.64.32-2.17 1.69.4.15-.87-1.1-2.16.67-.38 1.65.24.68-.45 1.83.4.53-1.08 2.32.69 1.09-1.3-.78-1.51 1.13-.46 1.03-1.78 1.06.59 1.75-1.9.02-1.24 1.19-.11 1.24-2.21.74-.17 1.01 1.1.88-.5-.57-2.98.62-.55 2.7 1.58.55-.04 2.1-1.53-.24-1.25 1.05-.6 1.2 1.32.58-.74 1.32.02-1.08-1.74-.97.05-1.24-1.76 1.5-.95.06-1.08.85-.72-1.18-.63.26-1.43 1.98-2 .78-1.76 1.72-2.22-.99-.48.15-.87z"/>
    <path region="16" short-name="2" long-name="State Senate District 2" value="1" d="m94.85 143.42 18.27-5.78 4.55-1.6.96-.15 1.44 1.08-1.17 3.7.96.68 1.52-.34 1.24-.68.86 2.65 2.19 2.58 2.3.14.44-1.17 1.18.1.28-.97 1.27.52 1.36-.23.34-1.28 1.5-.78.76.28 3.1-.51 1.5.28 1.44-.8.86.65 1.12-.65 1.75-.26 1.47.78.28.68 1.52.02.88-1.04 2.41-.12 1.3-.68h1.28l.39-1.24.98.49 3.52-.87h2.9l1.13.87-1.29 1.27-3.3.65-1.1 2.16.4 1.28-.64 2.17 1.94-.41-.08.8.87 1.73-.74.46.2 2.43-1.27 1.26-.3.82.4 1.25 3.42-.4.85-.77 2.14.08 1.41-.72 3.85.46-1.1 2.2 1 1.7.91 2.77-.03.81-1.48.36-1.42.92 1.1.46 1.08 1.23.7-.34.28 1.78.7-.1.53 1.45-.33 1.82.58.4.07 3.26 1.64 1.4-.74 1.68 1.1.34-.33 1.73 1.35.31.21.97 1.1.79.38 1.86.88 1.25.77.4.12 1.03 2.62-1.04 2.27.64.47 1.12-.04 2.27 1.57-1.31 1.26.02.74-1.21 2.33-.66.8 2.31 1.67 1.66-.29 1.8-.52 1.24-2.08 2.28-2.62 1.74-.42.84-3.42 1.62-1.43.02-1.34.95-.05 1.58 1.34.08.87.59-1.34 1.07-.88 1.2-18.55 10.97-34.97 20.7-.98-.4-1.99-2.84-1.37-1.2-2.01.45-1.94-.4-1.32-.64.57-2.49-1.12-1.87.65-1.03-.19-1.03-1-.64.06-2.28.6-.82-.2-1.05.4-.98-.4-.72 1.91-1.65.85-.14.93-.95-.47-1.39-1.97-1.79-2.23.83-.68 1.02-1.36-1.54-1 3.16-1.66.37-1.29-.33-.34 1.58-1.05 1.81-1.18-2.12-1.42-2-1.24-1.03-1.32-.4-.61-1.02-1.05.2-1.4-2.16-1.16-.43-1 1.14-.77-.87-.3-1.1.26-1.77-1.72 1.03-.3-.7.24-2.63-1.07-1.93.7-.38-.3-1.83.65-1.26-1.08-2.5.27-1.67-.98-1.59.53-1.35-.53-.87-.42-4.53-.54-2.14 1.29-.11.58-1.84-1.23-1.03.17-1 .82-1.08-1.44-1.08-.12-.6 1.04-1.25-.56-1.02.7-1.23-1.68-1.81-.78-1.73 1.31-1.37-2.15-1.4.14-1.95.54-1.22-2.86-1.16-.93.1-.95-1.1.3-1.18-.6-.75.46-1.85 1.89-3.51 2.17.9 1.3-.8-1.1-2.08-.13-1.16.87-1.92-.92-1.66 1.76-1.4 1.01-.13.3-1.91.92.06z"/>
    <path region="17" short-name="4" long-name="State Senate District 4" value="1" d="m105.46 306.94 3.08.04 2.32-.57 1.37.12 3.23-.22.21-2.36 4.27-1.48 1.93-1.1.2-1.37 1.31.35 1.4-1.32.2-1.43 1.75-.38 2.63-1.14 1.05-1.13.7-2.6-.16-.9.93-1.17-.98-2.04-.65-.5-1.15-2.59-2.94.48.18-4.95 1.15-.73 3.23 1.1.76-.05 2.55.77 2.33-.18.8.34 1.36-.38.8 2.2 2.63-.27.78-2-.2-1.13 2.74-.85.83 2.64 4.15-1.23 1.16.36 1.47-.86 1.25.7 2.6-4.34 1.32-1.33 1.12-2.85 2 1.56.58-.44.77 1.81.23 1.5 1.3-1.76.94-.13 1.55-.9 1.6-1.75 1.19-.25.26-1.25.08-2.8-.54-3.41.6-2.03-.83-.96-1.3-.52 7.07-19.55 1.31-2.88 2-9.04 5.93-13.53 2.32-2.6 1.31.7.13 1.93-1.17 1.82.33.99-.6.53.67 1.25-1.72 1.47.77 1.52-.78.54-.43 3.92.36 1.23 1.33.55-.49 1.4-1.12-.03.46 1.82 1.26.53-1.3 1.54.85 1.21-1 .77 1.34.83-.29 2.45-1.6 1.89.72 1.22.24 1.24 1.25-.46-.3 1.66.62 1.87.98.85-.8.9.28 1.42-.17 1.77.66 1.13 2.23 2.38-.7.94 1.35.27 1.58 1.58-.34.94.57 1.71.67.96.5 1.89-.89.8 1.33 1.33.25 1.35-.28 1.57 1.46 2.19 1.45.86 2.78.33 1.24 1.11.5 1.12 2.44 2.42.34.88 1.09.5.23 1.12 1.97.55 1.98 1.34.3 2 1.01-.46 2.42 1.54.3 1.27 1.34.15.15 1.13 1 .33.3 2.02-.43 1.7 1.98 2.1 2.32 1.52 1.24.42.98 1.33.87 1.74.25 1.18.98.75 1.46.14 1.2 1.86-.4.82.58.79 1.05-.17.32 1.5 1.36 1.14-18.29 16.9 1.77 2.44.4 1.93 2.65 1.22.2 3.58-.2.42.72 6.8 2.76 1.6 3.34 3.12 2.7 3.6 3.55 6.03.4 2.06 1.3 5.08-.1 7.23-1.92 7.27-3.96 6.88-7.02 6.67-5.07 4.14-10.33 1.7-15.84-.75-1.79-1.42-.61-.96-2.4-1.54-1.62-1.33-.72.85-1.7.36-.9 1.08-1.94.07-1.85.45-2.65-.47-12.5 13.62-.82.94-.22-1.64.37-1.58-.47-1.05-2.37-1.79-1.15-2.19-1.3-1.14-.46-1.68-1.16-1.37-1.76-.4-1.06-.7-1.07-2.06 1.13-2.63-.3-1.4-1.49-1.77-1.12-.38-.96-.83-1.67-2.42-.3-1.56-1.44-2.51-.73-.66-1.57-.52-1.22-1.13-1.58-.09-.92-.42-2.32-1.81-.45-.6-1.21-3.85-1.48-2.37-.37-1.52-.08-3.3-1.9-3.83-.14-1.02.39-1.57-.8-1.5.47-.76-.55-4.36.36-1.28-1.15-3.2.39-.58-1.51-2.28-1.5-1.24-1.03-.42-1.17-1.08-2.1-2.92v-1.13l-1.14-2.1-1-4.03.17-1.08-.72-2.4-.84-.34-5.44-4.66-1.75-.9-.31-.59-.25-3.68-1.12-2.33-.02-2.22z"/>
    <path region="18" short-name="7" long-name="State Senate District 7" value="1" d="m192.45 188.57 1.16-1.88 1.28-1.06 2.74-.41 1.4.9 1.14.27.42 1.8-1.17 1.28-.13 1.84 2 .9.9-.33 1.57 1.18 3.3-2.09.43 2.68-1.34 3.74-1.47 3.14-.03 1.22-1.2.13-.88-2.31-1.06-.95-1.7-.39-.22.98-1.63.18-3.3 4.08.84.8 1.57-.48 1.59 1.6h.83l.66-1 1.9 1.06.52 1.14 1.13.4 1.16-1.16.98 2.28 2.16-.5 1.07-.65 1.14-1.36.03-1.88 3.16 3.05 1.88.91.48.68 1.57 4.7 4.06 6.07.79.48-1.52 2.88-2.72-.2-1.22.8-1.12 1.65-.75.52-1.29 1.4-1.55.3-1.2.93.71 2.63.8 1.25 1.46.62h1.17l1.27 1.6 1.81 3.85-.08 1.96.57 1.87-.51 1.72.72 2.05.94.22-5.53 2.57-5.56 1.32-1.12-3.5-.39-.62.6-1.47.11-1.47-.43-1.8.5-1.1-.04-2.34-.37-1.06-2.56-.12-2.56.73-1.22-.11-2.56.41-1.62 1.25-.74-.17-2.77 1.1-1.1-1.33.46-1.6.3-2.72.51-1.41.18-2.29.41-.78.2-3.23-.52-1.94-2.22-.46-.67-1.86.48-1.2-2.54-.12-.89.7-1.1-.16-.68-1.25.6-.53-.33-.99 1.17-1.82-.13-1.93-1.31-.7-.1-2.31-.7-1.18.27-.94-1.75-.37.25-.94-.82-.58-.63-1.6-2.48-2.17.88-1.18 1.34-1.08-.87-.6-1.34-.07.05-1.58 1.34-.95 1.43-.02 3.42-1.62.42-.84 2.62-1.74 2.08-2.28.52-1.23z"/>
    <path region="19" short-name="9" long-name="State Senate District 9" value="1" d="m186.9 220.88 1.11.17.9-.71 2.53.13-.49 1.19.67 1.86 2.23.46.51 1.94-.19 3.23-.4.78-.19 2.29-.51 1.41-.3 2.71-.45 1.61 1.08 1.32 2.78-1.1.74.18 1.62-1.25 2.56-.41 1.22.1 2.56-.72 2.56.12.37 1.06.04 2.33-.5 1.11.43 1.8-.11 1.47-.6 1.47.39.62 1.12 3.5 5.56-1.33 5.53-2.56-.94-.22-.72-2.05.51-1.71-.57-1.87.08-1.96-1.81-3.87-1.27-1.59h-1.17l-1.46-.62-.8-1.25-.72-2.63 1.21-.93 1.55-.3 1.29-1.4 2.44.73.84-.03 1.27.8 1.9.12-.4 1 1.34.45.97 2.55v1.79l.35 1.2 2.71-.63.9-.54 2.42-.49 2.22.37 2.13 2.38 2.34 1.67-.52.94.36 2.8-.13 1.6 1.06 4.1.7 1.43 2.77-7.97 4.08-10.57 6.71-16.82 2.1 1.78.03 1.29 1.04.17 1.47 3.36.56.35 1.11 2.24 1.49-1.05.9.96.57 1.32.87-.38 2 .1.3 1.38 1.06 2.34.65.71-.24 2.08 1.82-.1.7 1.16-.24 1.88-.76 1.02.98.7 1.87.1.13 1.39 1.89.58.22.73 1.08.43.28 1.15 2.53 1.34 2.08 1.4.27.87 1.78.65.79 1.15 2.87.15.53.59 3.51.23.15 2.05 2.8.37 1.12-.15 1.66 1.53.5 2.45.75-.55 1.51 2.36.61.45.25 1.68 1.4 1.57 1.89 1.07.08 1.2 2.2 1.02 1-.74.82 2.38 1.77-.6 2.35.5.34 1.38 1.05 1.68 1.2-2.9.9-.59 1.05-.01 1.35-1.52.76.76-.03 1.11 1.6.45.8-.31.4 1.17 1.6-.03.96 2.03 2.35-.17.42 1.52 2.81.17 1.44 1.05.93-.23 1.4.64h1.3l.53.6 2.13-.6 1.02.46.35.98 1.07.84.89-.4 1.3 1.09 2.18.28.02-1.8 1.15-2.95-1.08-3.48.13-1.82-.6-.98 3.4.48 1.78-.38 2.19.27.94-.95 1.39.34 1.35-.83-.18-1.36.97-3.92.04-2.12-1.45-3.03 1.53-1.51-1.23-1.36-.8-.25-.65-1.18-1.64-1.96-1.42-2.55.5-.61 2.25-.04.38-.3 1.96-3.3 2.08-1.34 1.46-.54 2.84-1.73 1.39-1.12 2.3-.23 1.37.2 1.16-.77 1.04-.4 2.97 3.02 2 1.52 1.41.53 1.33 3.57.9 1.65 2.17 1.6 1.02 1.08 1.2-1.28.42-1.58 1.26-1.72 1.04-.84-.03-1.24 1.19-1.11 1.87.2 3.39-1.71 2.6-.25.33-2-.8-1.43.8-1.02.47.1 2.94-.82 1.62 1.42-.27 2.43.39 4.8-.13 4.34 1.3 2.09 1.25 3.34 2.57 1.3 1.79 2.1 1.06 1.7-.42 1.1-.1 4.21.1 2.14-.85 3.64-1 2.83 1.45 3-.25 1.69-.68 1-.06 2.6-.5 1.7-.11 2.4.54 1.36.79 5.7-.44 1.8-.93-.32-1.2.81-.43-.97-1.7.38-.25 1.7-1.51-.56-1.36.83-2.02-1.84-1.27 1-2.1.07-4.82 4.47-6.8 6.88-2.21-1.81-.25-1.26 1.28-.83-.53-.57-1.73-.3 1.09-1.6-.23-1.64-2.18-1.45-.26-.47-2.17-1.64-.74-.87-2.05-.63-1.04-1.88-1.93-2.17-2.22-.23-.75-1.05-.17-1.85-2.1.27-.7-.8-1.86-.04-.7-1.55-1.26 3.34-.02.68-1.66 1.11-.74 1.5-.73.52-7.8 12.45-.26.65-1.15.23-1.14.8-1.67-.08-.46 1.09-2.02 1.92.07.62-1.06 1.85-1.72 2.1.26 1.38-1.7 1.57-.1 1.13-.63 1.23-.9.13-.77 1.68-1.8 1.88-1.32 2.7.07 1.39-.43.66-3.06 1.98-1.91 1.68-1.35.76-2.17.17-2.8 1.03-1.62 1.93-1.07.54-.16.98.44 1.4-.8.27-1.87 1.74-1.3-.2-.78 1-2.45.1-1.05 1.8-1.5 1.1-.09 1.17-1.6 5.63.05 2.57-1.25 1.93-.44 2.33-2.59 3.89-.61 2.81-1.66 1.09-1.51 1.71-.64 1.37-1.19-.91-.4-1.06-1.67-1.9-2.16-.91-.34-1.08-1.36-1.49.18-1.45-1.38-.14-2.34-1.11-2.27.4-2.03-1.42-1.8-2.85-1.15-.98-2.36-.55-1.73-1.05-.17-1.38-2.37-1.89-.59-.88-1.44-.83-.66-1.24-1.62-1.47-1.25-.59-1 .08-1.37-.94-2-.77-1.94 1.07-.62-.18-.65-1.57.04-1.44-1.23-.99-.45-.85-2.01-.5-2.37-1.49-2.3.51-.66-.27-.17-2.38-.63-2.69-1.01-1.84-.68-.33-.77-1.4-1.46-1.35-1.03.23v-1.4l-.82-.48-1.73.29-2.46-2.42.05-1.24-1.59-.22-.64-.63.65-2.21-3.38-.26-.36-1.57-1.36-1.14-.32-1.5-1.05.17-.58-.8.4-.81-1.2-1.86-1.46-.14-.98-.75-.25-1.18-.87-1.74-.98-1.33-1.24-.42-2.32-1.52-1.98-2.1.43-1.7-.3-2.02-1-.33-.15-1.13-1.34-.15-.3-1.27-2.42-1.54-1 .47-.3-2.01-1.99-1.34-1.97-.55-.23-1.12-1.09-.5-.34-.87-2.44-2.43-.5-1.12-1.24-1.1-2.78-.34-1.45-.86-1.46-2.2.28-1.56-.25-1.35-1.33-1.33.89-.8-.5-1.9-.67-.95-.57-1.7.34-.95-1.58-1.58-1.34-.27.7-.93-2.24-2.39-.66-1.13.17-1.77-.27-1.41.79-.91-.98-.85-.61-1.87.29-1.66-1.25.46-.24-1.24-.72-1.22 1.6-1.89.29-2.45-1.34-.83 1-.77-.84-1.2 1.3-1.55-1.27-.53-.46-1.82 1.13.02.48-1.4-1.33-.54-.36-1.23.42-3.92.79-.54-.77-1.52z"/>
    <path region="20" short-name="33" long-name="State Senate District 33" value="1" d="m883.28 433.94.9-.8 1.5-.64 1.56-1.4 1.37-.52.73.36 1.15-.54 1.03 3.13 1.23 1.4.96-.6 2.4-.34.3-1.36 1.32-.18.08 1.08-.65 1.86.38 1.43-.42 1.8.67 2.14.2 1.71.52.6 1.1-2.2 1.9-1.04.95 1.04 3.19-.67-.16 1.21 1.15 2.26 1.14 1.73-.68.56-.58 1.48 1.33 1.54.1 1.34-.69 1.13-1.9.03.15.94-.75.46-.71 1.4 1.85-.1 3.95 1.67 2.2-.63 1.89 1.1.72 2.1 1.71 1.06.53 1.41-.32 2-1.19.27-6.1 3.27 6.36 8.5 1.36.04 3.47-.41 6.28-1.8 1.43-.06 2.22.45 2.1-.39-.56-1.24 1.5-2.18.68-.32-1.08-1.7 1.33.15 2.44-.4.85 1.28 2.07.96 2.9-1.92 3.34-2.56 1.44-2.76 1.24-1.06.17-.72-.46-1.85 1.3-.3.42 2.98-.98 1.05.83 2.26-.89 1.12.47 1.3-1.28 1.34.7.82.23 1.43-.49 1.01-3.95 2.96-10.4 9.46-2.46 2.58-2.26 2.78-1.4 1.25-8.85 9.17-5-5.1-1.07-.8-.44-2.42.96-1.96 4.3-3.4-3.09.58-4.12-1.35.99-1.87-1-1.02 1.87-.99.38-.64-2.08-3.44-.89-.47h-1.78l-.34.61-2.77 1.59-.6.88-1.39 3.64-1.03.95-1.65-3.48.14-3.5-1.65-.03-.1.76-2.09-.02-.45 1.79-1.4.4-1.63-.2-3.93 2.68-2.74.78-.9-1.59 1.94-2.26.48-1.41-.7-.45-3.22.08-3.28-1.44 1.07-3.11 2.16-1.87 2.18-.7.16-.94-2.88-.75-2.22-.34-1.9-.57-1.18-1.07.84-1.13 3.36-3.71-2.2-1.28-2.02-1.95-.94-2.86 1.17-1.7 2.45-.68.25-.5 1.43.16.19-1.35-.67-1.9-1.05-.65.43-1.5-.6-1.7 2.41-.42 1.3.31 1.55-.99 1.53-2.64 1.86-.58 1.94.54-1.13-2.9-2.03-.55-1.39.6-1.03-1.6-.15-.97-1.04-2.73-1 .44z"/>
    <path region="21" short-name="12" long-name="State Senate District 12" value="1" d="m229.04 181.96 1.72-1.54.7 1.03.81-1.37 1.02 1.04 1.83-1.44.3-8.83 3.88.06 4.85-1.21 1.2-1.26.65-2.02-1-1.82.2-.72-.97-2.7.55-2.22-.28-1 .53-1.42-.34-1.11 2.34-.66 1.53-1.31.14-.87 1.21.35 1.89-.92.91-1.61.4.84v1.53l.5 1.3 3.07 2.1.72-.26 3.04 1.16 1.3 1.43.34 2.77.82 2 1.52 1.18 1.06 2.66.8.68 1.93-.52 1.67-.11.67.37 1.56-.55.39-1.1-1.04-3.15.88-.98 2.73-1.37 2.32-.47.2 1.46 2.48 3.05.48 2.9.66 2.52.1 2.46 1.15 1.56 7.21-.82-.22.74 1.65 1.61-.16 1.95 1.18.4.87-1.1 1.94-.45v1.2l.8.6-.54 1.19.83 1.86-1.6.55-.85 2.04.3.44 3.14 1.28 1.93.51.67 1.43-2.02.35-1.7.62-3.44 2.34-.56.68-1.23.03-1.06 1.18-1.38-.03-2.56.96-.79.78-3.2-1.14-2.4 3.8-1.18-2.05-.9-.78-1.29.02-3.14-.85.82-3.66-1.22-.74-2.98-.96-1.77-1.41-2.18 2.28-.73 1.18 1.06 1.57 1.34.8.56 2.66-1.3 1.15-1.92-.14-3.75-1.43-.97.04.24-2.49-1.49.3-2.3-.18-1.87.85-2.54-.25-.88 2.39-2.27 1.7-1.27.63-4.82 4.38 2.73 3.47.71 1.67 1.26-.4.57 1.1h-1.6l1.05 1.55-1.99 1.44-1.1.11-1.1-2.79-4.1-4.15-.77-.55-.9.38-1.98-.8-3.74-.98-1.55-1.05-3.66-.15-1.82-1.26.93-.94.04-1.31 1.59-2.37-1.27-.59.48-.98-.94-1.12-2.62-1.45.02-2.66 1.67-.15.3 1.16 1.37.57 1-1.32-1.07-2.59.13-.95 1.06-1.08 1.27 1.87.89-.17z"/>
    <path region="22" short-name="15" long-name="State Senate District 15" value="1" d="m477.46 119.3 3.3.4-1.04 1.4-.7 2.68.16.55 2.39 1.21 1.24 3.2.04 1.45-.95 1.4-1.9.49-1.16 1.1-1.08 2.58-.16 3.29.08 2.73 1.59 1.83 1.77 2.68.69 1.44-.11 1.9.26 1.28 2.11 1.96.86.03 1.76-1.32 2.54 1.47 1.3 1.89-.52.84.36 2.7.78 1.4 1.17.65 2.8.76 1.57.74 1.93 2.1-.62 1.94.12 1.06-2.34 2.83-3.48.61-1.17-1.42-.61-.22-.52 2.7.97 4.64-1.68.31-2.27-.76-1.02 1.8-1.9-.76-1.08-1.22.9-.8.06-1.2-.95-2.14-1.71-.77-1.2-2.12-2 .32-1.3 1.03-.64 1.41 1.12 1.36.35 2.12-1.14.59.25 2.65-1.08 4.06-.08 1.17-1.78.34-3.74 2.44-1.03 1.25-3.48 2.46-1.19 1.28-1.73 1.26-3.24 1.64-6.92 3.26-.51 1.45.16 1.63.47.94.04 1.82-30.42-.35-10.06.02-21.97.18 1.73-1.53 1.75-.88.72-1.26 1.03-2.63-2.03-2.19 1.7-.35.17-1.32.72-1.01.06-1.25-.95-.77.52-1.14 1.05-.64.56-3.5.9-1.05 1.03-.38 1.48-2.29.48-.17 1.98-3.04 2.63.28 1.02 1.81 1.91 2 3.5-1.15.73-.53 2.43 1.39 1.26-1.86 2.15 1.88.75 2.95 1.58 2.62 2.08-.06 1.13.29.86-2.28 1.43-.34.74.98 2.15-.13 1.5-.99.13-2.24.89-1.42-.45-1.64.02-2.3-1.75.31-1.12-2.68-1.2-1.94-.88.58-.82-.87-1.88-.94.1-1.08 1.49-1.26 1.69-.56 1.17-1.5 1.01-.6.32-1.95-1.1.23-.31-2.32.53-.58-.3-1.55.14-2.86 1.6-.4.86-.72 1.61-.66 1.63-.23 2.47-1.1.68-1.5 1.9-1.08.36-1.57-1.43-.8-.63-.85-.8.43-2.06-2.76-3.06 1.3-2.73-1.22.42-.93-.4-1.3.33-.64 2.42-1.75.17-3.57.58-.5.39-1.45.62-.68 1.12.15 1.38-.68.99.86 1.24.1.38.8 2.6 2.67.78 1.46 1.73-.44 1.85 1.58 1.42.12.82-.83 2.2-.44 1.22 1.42.86.32 1.97-.12.7.33 1.1-.6 1.33.35 1.6-1.13 1.27.3.9-.34 1.04-1.63-1.35-4.34-2.3-.39.19-3.65.67-1.85-4.17-.15-1.06.52-.37-3.94-.3-1.03 3.02.87 1 .76 1.38-.16 1.3.9 4.01.1 3.8-.61 1.2.07 3.3.87 1.2-3.8L477 121z"/>
    <path region="23" short-name="41" long-name="State Senate District 41" value="1" d="m527.42 675.47.02-2.8.2-1.67-1.26-2.18.22-2.1 2.36.92 4.6 3.56 2.6.94 2.05-2.19.48-1.78-.05-3.16-3.63-2.16-.31-1.7 1.68-1.14 2.64-2.35v-2.23l-.72-.4 1.3-2.22-.29-3.33 1.76.51 2.62 1.81.74 1.22 1.51.23 1 .58 2.07 2.28 2.36 1.57.76.07.8 1.04 5.76-7.82-.35-1.96.18-1.41 2.4-6.63 1.57-3.7.65 1.15 3.06 1.95.93 2.03.82.64 3.17 1.03 2.82.72.73.51 1.96-.16.75.3 1.55-.54h1.3l2.4-.62.61.9 1.2-.98-.6-.87 2.06-.3 1.15-.67.98.83.26 1.28 1.18-.22 1.16.9 1.07.29 3.13-.6 1-.97 1.06.53 1.66.08.4-.81 2.77.52 1.24.82.79-.3 2.28 1.72 1.88.46 1.46-.02.6-.85 2.04 2.07 1.62-1.19-.4-.5.7-1.93.7-3.03.98-1.27-.16-.87 1.16-.4.37-.87 1.22.5.29-1.05 1.47-1.15 1.26-1.56.9.02.04-1.2 1.04-1.48.02-1.16.92-1.29-.47-.5.48-2.17 1.13-2.5 2.56-.96 17.6 13.86-2.58-.23-1.59 1.31-.65 1.7-.9.57-.52 1.18-2.3 1.95-.71 1.52-.05.98-.7 1.43.16 2.74-.5 1.74.16 1.05-.23 2.7.7 2.05 1.12.38.35 3.1 2.56 4.39 1.3.73.19.58 1.62.73 1.4-1.1.16 1-2.66.45-1.07.58 1.68 1.85 1.1.61-1.48 3.02-1.12.25-2.03 2.44-1 .65-1.75 1.83 1.6 1.73.25 2.02.83.4 1.8-1.73.38-.89 2.52 1.56.84 1.23 5.52-5.46 1.8-2.28 2.18-1.75 2.44-3.9 1.42.3 1.02-.23.6 1.89 1.36-.15.6.49 3.15.06.19-.81 1.99-1.41-.68-.87 1.5-.74 1.31-1.46 1.06-.5 1.13.06 3.12 3.02 3.58 3.73-.78.93-1.1.52.5 1.85 1.97 1.39-1 .63-1.82 1.8 1.77 1.3 1.02.42-.97 1.23-.74 2.22.64.53.52 1.61 1.21.3 2.1-.92 1.06.6-1.23 1.68.33.77 3.18 1 1.03 1.5.08 1 1.65 2.95.57.53 1.88-.42 2.04 2.32 1.21.77 1.93 1.91-.56.5-2.35-.41-.39 1.45-.85-1.2 1.09-1.23-.38-.57-2.5.7-1.2-.22-2.82 1.64-1.39.44-.57-.69-6.44 7.46-.98.77.09 1.84 1.13-.38 2.7 2.02 2 .33 1.82 1.67.73-.1 1.23-1.1 1.53-.73 1.36.15 3.15 1.93 2.06.5 2.81-.1 1.07 1.32-1.05 1.36-.3 1.24.35 3.05-.21 2.92.85 1.32 1.1.28-2.33 1.54-.63-.5-1.1.73-.41-.91-.94.77-5.9 1.9-3.06-.3-2.2.86-1.2-1.87-2.06-.51-.73-.5-1.54.3-2.54 1.28-1.54 1.35-2.03-.88-.69-.57-1.96.42-1.44.7-2.23.01-.74-.38-1 .37-1.27-.5-2.11-.1-2.98 2.08-1.16 1.18-1.09-.4-1.33.81.1 1.74-.52.61-3.2 1.22-.48.97 1 2.31-.12 1.38-.63.87-1.6.7-2.43 1.42-1.21 1.04.5-3.05-1.15-1.02-2.1-.1-1.76-1.3-1.35-1.41-1.26-2.73-.02-.56 2.68-1.4 2.1-.41-.21-2.4.79-2.34 2.88-1.35 2.18-.2.71-.86 1.85 1.21.65-.96 1.7-.38 1.9-.07-.27-1.86 4-1.38-.36-.72 4.36-.3 3.87-6.21-.48-.2-1.46.78h-1.34l-2.21-1.9-6.26.9-.23 1.35-.82 1.29-2.11 1-2.05-.36-1.34-.95-1.99.7-2.44.19-1.1.31 1.59-6.62 1.62-2.27-1.9-2.9-.21-3.6-2.85-7.78-3.81-1.4-1.9.13-18.6-1.73.42-1.49-.7-.35-.28 2-2.23 1.5-2.33-3.9-3.46-.03-4.15 1.52-3.97-1.9-.42-.05-3.04-2.5-1.22 1.01-2.3-1.1-.96.53-3 .78-.94 1.28-1.98.1-2.21.87-.4-4.25-3.92-11.55-1.44.68-3.23.3.9-3.09.9-1.46.26-1.82-1.22.11-2.8 1.29-1.4-.6-2.45-.29.38.98-.74 1.04-2.39.82-1.17 1.16-.41 1.2-1.2 2.07-1.7-.45-2.08-.2-.66.45-2.52-2.5-1.12 1.72-.93 2.98-2 3.92-1.19-.46-2.21-.37-2.23-.7.4 1.04.02 1.47-1.31 1.81-.12 1.7-5.23.84-2.68-.72.44-1.28.04-2.87-4.54-1.39-.87-1.37-1.87-.7-1.71-1.08-1.33-1.67.97-.35.03-1.72z"/>
    <path region="24" short-name="22" long-name="State Senate District 22" value="1" d="m469.73 356.38.54-.94 1.01-.43 1.06-1.37h2.3l.5-1.88 1.8 1.07.76-1.43 3.1-.75.71 1.03 5.63-1.75 10.46-3.15 28.3-4.21-3.13 7.5-1.45 3.34-4.42 10.77 1.1 1.65 1.26 2.58-1.84 2.35-1.63.69.13 1.43-.77 1.04-.58 2.07 2.34 2.63 2.7 2.13 1.88 1.17-.03 1.22-1.73 2.1.21 2.19-5.85 2.87-11.12 8.97-.73 1.3.2 1.06-2.15 4.2-.44.47-2.43 4.7-2.1 1.13-.27.61-1.1-.77-.6 1.04-1.2-.87.13-1.22-1.8-.74.23-2.55-.02-3.66 1.68-.61.23-1.53.66-.65 3.16-2.14-.68-1.27.16-1.3-.43-.6 1.68-.58 1.54-1.54 2.93-3.33.35-1.02 2.82-1.85-.82-1.12-.06-3.7 1.13-1.13.04-.8 1.7-.8-.51-1-2.28-.07.58-1.41 2.11-1.02.89-1.51.65-1.91-.18-.79 1.03-5.47-2.32-.41-1.5 1.93-2.43-.26-1.03-1.86-.03-1.22-2.31.8-2.98-3.23-.1-.9-1.52-4.23.26-1.17-5.38.34-2.76 3.23-2 1.83-1.82.37-1.2 1.2-1.26.26-2.07-1.02-1.05-.87-1.55-2.55-1.37-.38-1.87.48-1.28-1.9-.3-1.16z"/>
    <path region="25" short-name="8" long-name="State Senate District 8" value="1" d="m207.5 193.65 1.85-.06 3.2 1.3 1.15-.14 1.22-1.76.12-1.1 1.02-.05 2.19.76 2.14.45.4.99 1.1.04.23 1.17 1.52.44.59-.67 1.59-.76 1.27.59-1.6 2.37-.03 1.3-.93.95 1.82 1.26 3.66.15 1.55 1.05 3.74.99 1.97.79.91-.38.77.55-1.57 1.91-1.31.73-2.03.49-.52 2.71-.55 1.13-.2 2.87 1.03 1.43 2.64 1.53.87-.93 1.85 1.26.66 2.5 1.97 3.66-1.9 2.91.76.45.85 1.35 1.54.31 1.56.77-4.07 10.57-2.78 7.97-.7-1.43-1.06-4.1.13-1.6-.36-2.8.52-.94-2.34-1.67-2.13-2.38-2.21-.37-2.43.49-.9.53-2.71.64-.35-1.2v-1.79l-.97-2.55-1.35-.46.42-1-1.91-.12-1.27-.79-.84.03-2.44-.73.75-.52 1.12-1.66 1.22-.8 2.72.2 1.52-2.87-.8-.48-4.04-6.07-1.58-4.7-.48-.68-1.88-.9-3.15-3.06-.04 1.88-1.14 1.36-1.07.64-2.16.5-.98-2.27-1.15 1.16-1.14-.4-.51-1.14-1.91-1.06-.65 1h-.84l-1.6-1.6-1.56.48-.83-.8 3.3-4.08 1.62-.18.22-.98 1.7.39 1.06.95.88 2.31 1.2-.13.03-1.22 1.47-3.14z"/>
    <path region="26" short-name="14" long-name="State Senate District 14" value="1" d="m298.51 110.52 9.22.3 15.06.7 7.06.26 10.8.39 28 1.47 18.18.81 34.59 1.65 17.97.85 27.54 1.51 10.53.84-.47 1.7-3.49 2.67-1.2 3.8-3.3-.87-1.2-.07-3.8.62-4-.11-1.31-.9-1.39.16-1-.76-3-.87.29 1.03.37 3.94 1.06-.52 4.17.15-.67 1.85-.2 3.65 2.31.4 1.35 4.33-1.04 1.63-.9.33-1.27-.3-1.6 1.14-1.33-.34-1.1.6-.7-.34-1.97.12-.86-.32-1.22-1.42-2.2.44-.82.83-1.42-.12-1.85-1.58-1.73.44-.78-1.46-2.6-2.67-.37-.8-1.25-.1-.99-.86-1.38.68-1.12-.15-.62.68-.39 1.45-.58.5-.17 3.57-2.42 1.75-.34.63.4 1.3-.41.94 2.73 1.21 3.06-1.3 2.05 2.77.81-.43.63.85 1.43.8-.37 1.57-1.9 1.07-.67 1.5-2.47 1.11-1.63.23-1.61.66-.86.73-1.6.39-.14 2.86.3 1.55-.53.58.31 2.32 1.1-.23-.32 1.95-1.01.6-1.17 1.5-1.7.56-1.49 1.26-.1 1.08 1.89.94.82.87.87-.58 1.21 1.94 1.12 2.68 1.75-.3-.02 2.29.45 1.64-.89 1.42-.12 2.24-1.5.99-2.16.13-.74-.98-1.43.34-.86 2.27-1.13-.28-2.08.06-1.58-2.62-.75-2.95-2.15-1.88-1.26 1.86-2.43-1.4-.74.54-3.49 1.14-1.91-1.99-1.02-1.8-2.63-.3-1.98 3.05-.48.17-1.48 2.29-1.03.38-.9 1.05-.56 3.5-1.05.64-.52 1.14.95.77-.06 1.24-.72 1.02-.17 1.32-1.7.35 2.03 2.19-1.03 2.62-.72 1.27-1.75.88-1.73 1.53-1.8 1.24-.04.81 1.28 1.21 2.52-.6.23 2.37 1.83 1.04.6 1.27.05 1.28.52 1.33-.35 2.16.44 3.24-3.32 1.89-2.77 2.3-1.02 1.57-.21 1.3 2.06 2.36-.8 1.03.81 1.42-.32 2-2.61.26-3.39 1.7-1.87-.2-1.2 1.12.04 1.24-1.04.84-1.26 1.72-.42 1.58-1.2 1.28-1.02-1.09-2.18-1.59-.89-1.65-1.33-3.57-1.42-.53-1.99-1.52-2.98-3.03-1.03.4.13-1.1-.16-5.52.5-1.44-2.17-1.86.23-.86 1.15-1.36 1.53-.73.6-1.06-1.79-.71-1.86.08-2.65-3.8-1.73-.38-1.56.61-.15-1.02.4-1.87-.85-3.17.95-.13 1.79-2.32.71-1.34.23-1.42 1.21.2.98.88.68 1.24 1.1-1.54-.3-1.22.2-1.6-1-1.92.81-.96.1-1.06-.71-2 .74-1.55-.73-1.1-3.15.45-.49-.6-2.41-1.18.5-.56-1.06-1.22-.24-1.98-.56-1.09-.99-.38-2.43.84-2-1.34-.9.78-.23-1.56-1.73-1.3-1.13 1.4-2.3-.02-.75-1.28-2.23-.11-.33-1.09-.92-.27-1.06-1.22-1.25-2.71-2.98.8-1.24-.18-4.2-14.96-.39 2.9-1.2 1.91-1.91.37-2.02-2.08-1.58.28-.98-.85-.23-2.48-.74-.58-.38-1.8-1.22 1-1.42.26-.88-1.23.33-.84-1.3-.55-.2-1.4 1.08-.83-.91-.58.61-1.62-1.54-1.01.47-1.1-1.18-.78-7.18 2.22-2.4-1.13-1.58-1.66-4.68-.36-1.69.07-2.29-.66.6-1.98-.9-.95.04-2.1 1.95.57.65-1.22 1.07-3.1.12-1.75-.22-2.66 1.81-3.43 1.27-2.75-.4-1.38 1-2.1.07-1.13-1.09-2.47.25-2.42-.94-3-.28-1.88.11-1.27-1.02-1.24z"/>
    <path region="27" short-name="19" long-name="State Senate District 19" value="1" d="m452.58 366.27-.24-3.14 1.15-.52 1.04-1.32-.2-2.23-.67-.28-.09-1.6-1.46-1.27-.14-1.14 11.73 1.15.9-.09 5.13.55 1.47-.28.3 1.16 1.28 1.9 1.87-.48 1.37.38 1.55 2.55 1.05.87 2.07 1.02 1.27-.26 1.19-1.2 1.82-.37 2-1.83 2.76-3.23 5.38-.34-.26 1.18 1.52 4.21.1.91 2.97 3.24 2.32-.8.03 1.2 1.03 1.87 2.44.26 1.48-1.93 2.33.41-1.03 5.47.18.79-.65 1.9-.89 1.52-2.1 1.02-.6 1.41 2.29.07.52 1-1.71.8-.04.8-1.13 1.14.06 3.69-1.67-.69-.85-1-2.41-.8-.74.94.87 1.68-1.07 1.55.48 1.8-.33 1.63-4.1.24-.87 1.47-1.77 1.48-1.67.86-1.45 1.13-1.3-1.11-.79.68-3.08 1.8-1.79 1.87-.56 1.73.05 1.61-.63 1.3-2.2-1.8-4.2 1.08-1.04-.17-1.17-1.25-.72-1.44-.8-.8-3.5.64-1.19-2.08-1.86-2.65-2.92-3.16-2.83-2.33-4.15-2.5-.01-.73-1.6-.02-3.64-1.43-5.25-1.14-.58-2.33 1.29-1.68-.27-1.5 1.68.65.82.74 2.13-1.33 3.17 3.7.86-.66 2.47-.34 1.3.1 2.1-.9 1.4.25.72-1.54.76.56 2.2-1.07-1.28-.78-1.5-3.8-.83-1.7-.82-2.41-1.57-1.76-1.66-.46-2.15-1.85z"/>
    <path region="28" short-name="28" long-name="State Senate District 28" value="1" d="m965.84 411.12 1.82 1.7 8.37 8.72 9.7 9.78 14.27 14.8-1.34.93-.18.9-1.53.08-5.1 1.21-17.85 6.62-8.7 4.37-12.2 7.92-4.42 3.3.49-1-.24-1.44-.7-.82 1.3-1.34-.48-1.3.89-1.12-.83-2.26.98-1.04-.41-2.98-1.3.29.45 1.86-.17.72-1.24 1.05-1.43 2.76-3.35 2.56-2.9 1.92-2.07-.96-.85-1.28-2.44.4-1.33-.15 1.08 1.7-.68.33-1.5 2.17.56 1.24-2.1.39-2.22-.45-1.43.06-6.28 1.8-3.47.41-1.36-.03-6.35-8.5 6.1-3.28 1.18-.28.32-1.99-.53-1.4-1.7-1.06-.73-2.1-1.88-1.11-2.21.63-3.95-1.66-1.85.09.72-1.4.75-.46-.15-.94 1.89-.03.69-1.12-.1-1.35-1.33-1.54.58-1.48.68-.56-1.14-1.73-1.15-2.26.16-1.2-3.2.66-.94-1.04-1.9 1.03-1.1 2.2-.52-.59-.2-1.71-.67-2.14.42-1.8-.38-1.43.66-1.86-.09-1.08-1.33.18-.3 1.36-2.4.34-.95.6-1.23-1.4-1.03-3.13-1.15.54-.73-.36-1.37.51-1.55 1.4-1.52.65-.89.8-3.38 3.12-1.34-1.7-.84-.36-.73 1.59-.7-.1-1.64 1.25-2.17 1.13-2.5.7 1.23-1.85-.06-2.05.44-1.15-.26-.9-3.06.87-1.47-.57-1.05-3.85-2.24.47-.58-.82.68-.77 2.53-.33 2.03-1.08 1.29-1.4.35-2.03.49-.09-2.67-5.4-2.48-4.35.89-.67 1.36-.22 2.65-.9 1.93.08-.57-1.12 3.8-.1.19-1.16-.35-1.41 2.37-.04 2.22 1.11.45-2.22 2.22.06.04.6 1.98-.07.9.47 2.69.11 2.9-.16 1.52.2.86 1.03 1.08 2.05.52 1.88 1.83 3.92 2.33-.33 3.71 1.09 1.31-.4.83.42 1.2-2.22.97-2.52.83 1.28.54 2.08.87.51 2.97.57.78-.64 2.19-.76 1.8.37.94-1.53-.16-2.1 1.26-.1.12-1.44 2.47-.07.85-2.91-1.3-1.12 2.62-1.16 1.32-1.57.87 1.14 1.4.63 1-.59.86.18 1.54-2.51.77 1.91 1.41.4 1.95 1.67 1.45.55 2.65-.5 2.55.16-.38 2.24 2.1.66.93.73.21 1.9.9 1.1 1.1.02.81 1.27 2.24.53 1.12 1.23 1.14-1.24 2.04-1.1 1.62-1.16 2.45-2.74 1.13 3.2 1.6-.1 1.35.74 1.67-.72.41-1.27 1.29-1.2z"/>
    <path region="29" short-name="29" long-name="State Senate District 29" value="1" d="m637.7 318.02 8.23-5.29 24.19-15.12 7.39-4.47 3.07-2.14 6.2-4 1.5-.87 1.15.05 1.72 1.34 1.07.14 2.9-1.08.67-.87 1.53-.6 1.15.13.8-.74 2.42-.62 2.48 2.22.79 1.3 1.65.13 1.7-.71 1.74.47 1.01-.73 3.36-1.23 1.64.28 2.06 1.37 1.63.03 1.93-.5 2.12-1.32-.19-1.2.9-1.07 1.6-.86-.22-1.12 1.11-1.81 1.45-1.1.98-.2.17-1.35-2.45-1.07-1.4-.15-1.6-2.97-3.02-2.32-4.53-4.46-1.34-2.6-1.54-2.08-1.76-1.38-1.73-2.53-1.03-2.47-.06-.94-.92-1.27 3.17-2.8 5.52-4.47.34-1.87-.86-.23-.9.66-1.28-.17-3.04.21-1.5-.47.17-1.32-.77-.1-1.09-1.01-1.28.49-.41-.77-1.3-.6-2.79.01-1.98-.59-.35-1.12-.87-.35-1.02-1.33.18-.66-2.27-2.59-1.05-.62-1.07-.03-1-.85-.89-1.37.11-.82-1.42-3.35-1-1.86-1.06-.82-.03-3.32-.35-.86.47-1.04 1.24-.98.3-1.4-.62-1.87 2.52-3.82 1.48-1.96.6-.32.86-1.62 29.67.77 20.17-.14 16.81.25 3.67.05 9.1 9.1 14.54 14.4 1.5 1.42 13.38 13.3 3.87 4.2 2.46 2.06 2.02 2.02-14 29.7-1.75 3.87-12.22 26.15-10.18 21.8-.41-.83-1.33.39-4.29-1.97-1.72.9-1.6 2.88-.18 1.2-1.33.85-.8-.1-1.75-1.12-3.9-.7-2.28-.85-3.07.06-.81.63-.38-1.47-1.4.08-1.93-1.05-2.52-.2-.94.26-2.03-1.19-1.31 2.09-2.88-.3.85 1.78.53 1.81.97.29 2.33 2.42.25 1.7-2.84.92-1.34.04-4.1 2.92-.95-.6-1.37.74-1.62-.3.7 2.16.98 1.51v1.25l-28.42 21.8-19.93 15.28 2.59 1.79 1.4-.44 1.61 1.05.63-.47 1.67.43.06.65 2.49 1.87.01.95 3.03 1.69-.22.6 1.1 1.9.9.1.92 1.55 1.18.08 1.55 1.24.98 1.38 2.06.98.33.56 1.47.58 1.87-.33-.16.95 2.2.29 1.15.42.28.78 1.66.88 1.79.37 1.64 1.03.3 1.5 2.2 2.27-16.86 10.41-5.36 2.83-11.65 7.12-9.28 6.3-4.3 3.05-2.89.2-1.75 1.04-1.4-2.14-.82-.63-1.08-3.12.03-1-1.17-.53-1.87-2.02-1.4-1.18-1.04-1.75-1.82-1.07-2.1-.77-1.99-2.1-1.89-.52-1.18.32-1.6-.37-.84-1.87.8-1.05.2-1.55 1.12-1.65.85-.42.97-1.82.33-1.38-.53-2.85-1.06-1.08-.08-2.2-3.06.9-1.4-.14-.73-.72-.53-1.94.09-.8-.8-1.5.32-1.66-2.36-4.15-1.33-1.63-.26-2.98-.79-.96.24-1.26-.65-1.96.4-.78.03-1.91.7-3.2-.67-1.36-.15-2.35-.78-.7-.39-1.21.05-1.74-.49-1.85-2.43-2.34.05-.75-.97-2.14-1.6-2.42.25-4.03-1.11-2.46-1.56-1.9-2.04-1.87.74-1.79.54-2.4 1.52-1.44-.29-.73 10-1.8.46-1.8-2.5-.79.42-2.38-1.16-.27.26-2.12.94-1.74 2.5-.7 3.39.26 1.41-.39 3.5-2.25.67-.78 1.35 2.15-.14 1.04 2.08 2.64.16 1.9-.74 1.15 5.24-.86 1.66-.48 4.57-1.74 1.68-.31 3.23-1.71-.26-.54.69-1.26-.61-1.79-2.45-1.43-1.18-1.23-.24-.75-2.2-1.96.08-1.46-.98-.74-.69-2.45-.59-.49-.45-10.06-1.65-.44-1.28.32-3.12 6.96-7.69 3.68-.44-1.7-1.56-2.4-1.2-.13-.34-1-1.07.14-.5-1.2-1.83-.7-2.28-2.4z"/>
    <path region="30" short-name="44" long-name="State Senate District 44" value="1" d="m697.01 664.68.86 6.83.75 5.18.9-1.05 1.83-.35.35-2 1.5.8-.29 1.5 1.02 1.27-.05 1.19 3.3 2.49 1.37 2.14-1.9 1.92-1.13 2.04 3.32.6.88.4 3.22 2.85 1.01.6.34-1.08.78.04.01-1.58 1.41-1.68.93-.38 1.25-1.84 1.29.93.83-1.18 1.34.34 1.32 3.51.1 4.18-1.45-.09-2.76 2.1 4.2 3.23 2.86 1.8 1.86-.58-.47-2.3.42-.15-.41-2.23 2.15 1.4.92-.07 1.01 1.88.17.95 2.18-.78 1.53.2.67.52 3.3-3.1.3-.89-1.27-2.38 5.03-.04-2.6 2.14 1.45.7 1.03 1.13-3 1.8-1.12 1.96-4 3.25-2.8 3.42-2.23 1.76-2.2 2.14-.88-.8 1.29-2.01-.73-1.04-.88.83-1.1-.76-.21-1.15-1.9.88-1.88-.72-.67-1.8-1.03-.37-1.1-1.51-1.07 1.3-2.59 1.57-1.02-.03-1.89-1.23-.44-.59-.25-1.87.38-2.96-.92-1.58-1.9-.89-2.2-.52-1.15-1.41-1.1-3.54-1.93-.09-.02-.82-2.36-.25-.02-2.84-2.59-.13.98-.84-.2-1.19-3.65.72-6.13-13.66-.25-1.35.53-5.52-1.23-.58-1-1.36-1.12-2.2-.92.38-4.9 1.11-2.96 1.3-1.43-1.12.65-1.87-2.3-.16-.2.57-3.04-2.38 1.6-2.06-3.45-2.78-2.37-2.61 7.85-1.95.16.8.95 1.13 1.4.2.13 2.68.87 2 1.5-.14.55-2.22 1.47.52 3.29-.57.43 1.4 1.03-.2 1.7 3.32 2.8 6.09.72-.88 3.27-.95.73 1.34-.03 1.53z"/>
    <path region="31" short-name="30" long-name="State Senate District 30" value="1" d="m812.17 253.69 19.09 19.12L842 284.16l11.83 12.78 10.57 10.87 11.66 11.88 14.92 15.19 15.7 15.94 25.18 25.55 21.9 22.4 12.07 12.35-.59 1.18-1.28 1.19-.41 1.27-1.67.72-1.35-.75-1.6.12-1.13-3.2-2.45 2.73-1.62 1.17-2.04 1.1-1.15 1.23-1.11-1.23-2.24-.53-.82-1.27-1.1-.02-.89-1.1-.2-1.9-.94-.73-2.1-.66.38-2.24-2.55-.17-2.65.51-1.46-.55-1.94-1.66-1.41-.4-.77-1.92-1.54 2.51-.86-.18-1 .6-1.4-.64-.87-1.14-1.32 1.57-2.61 1.16 1.3 1.12-.86 2.9-2.47.08-.12 1.43-1.26.11.16 2.1-.94 1.53-1.8-.37-2.2.76-.77.64-2.98-.57-.86-.5-.54-2.1-.84-1.27-.97 2.52-1.19 2.21-.83-.4-1.3.39-3.72-1.09-2.33.33-1.83-3.93-.52-1.87-1.08-2.05-.87-1.04-1.5-.19-2.92.16-2.68-.11-.9-.47-1.98.07-.04-.6-2.22-.06-.45 2.22-2.22-1.11-2.37.04.35 1.41-.19 1.16-3.8.1.57 1.12-1.93-.09-2.65.91-1.36.22-.89.67 2.48 4.35 2.67 5.4-.5.1-.34 2.02-1.3 1.4-2.02 1.08-2.53.33-.68.77-1.47.03-.6.61-1.9.2-1.15-.22-.62-.84-1.74-.89-1.48 1.22-1.93.78-.19 1.69-1.36 2.25.8 1.44-.38 2.65 1.52 3.2-.16 2.41-.68.88.28 2.63-.48 1.4.13 1.46 1.71.56.07 1.17.72.46-.84 1-1 .01-.65 1.72.12 1 1.57 1.66-.52 1.19.88.24-.39 1.07 1 3.46 1.17 1.7.96.55.72 1.86-.22.9 1.2.59.17 1 2.22.74-.29 1.1 1.46 2.25.57-.03 2.9 3.5.74 1.67-.56 1.13-.02 1.37-.83 2.51-.84-.48-3 .5-2.31.66-1.26 1.05-2.42-.28-.2-1.37 1.1-.17-.6-1.05-1 .57-1.74.17-1.46-.81.02-1.07-.88-.16-1.2.51.02-1.36 1.04-.63-.45-1.25-2.27 1.46-.72-.4-1.07-2.85.04-.86 1.07-1.25-1.6-.94.29-2.25-2.94-4.02-.45-1.44-1.55-1.65-.7-1.72-.16-1.27-.74-1.12-.07-1.04.69-1 1.33-.97.1-2.43-1.1-.75.06-1.45-.49-1.29-1.57.48-1.63-.96-.3-2-1.36-.52-1.78.77-.97-.7-2.14-.15-1.33-2.45-1.47-1.81-.78-.48-.88-1.3.05-1.54-1.5-.5-.57-1.46-1.57-.34-.58-.73 1.81-.8-.05-1.09-2.33.12-3.42-1.37-.64-1.55-.87.05-.7-1.25-1.87-.64-.75-.88.52-1.35-.48-1.11-1.66-.31-.6-1.48-1.09.92-1.16-.48-.25-1.21-1.6-.69-.74-1.24-1.16-1-.06-1.52 1.82-1.82.37-1.21-1-1-2.04-.15-.77-.5-1.24-1.99-.77-2.14-1.56-1.57 1.18-1.55.48-1.56-.8-1.86.42-1.5-.55-3.29.46-1.28-.38-2.2-.8-.28-.95-1.93.05-1.2-1.18-.65-.28-2.03-1.51-.65.13-.92.96-.52-.12-3.82.37-1.45 2.78.46-.85-1 .24-2.26-.8-.23-.27-1.52 1.37-2.11-.37-.38-1.7.87-1.11-.38.01-1.86-.37-.77-1.54-.6-.6-1.16.11-1.99-2.4-1.96-1.34-2.66-1.47-1.26-.59-2.17.6-1.7 1.96-2.01 1.84-.73.68-1.3-6.86-.82-2.1.5-19.43 1.12-.03 1.66-4.26-.05.3 2.17-.38.53-1.45.2-1.44 1.29-.79 1.64-.12 1.15 1.32.2 1.08.65.6 1.4-3.72.98-.5-.13-2.62-2.44-1.75-.95.03-3.37-1.98-.17-1.64.17-.23-3.9-3.53.2.06 1.53-4.02.76 1.52-5.74.44-3.51-5.02-4.84-3.83 2.94v-1.25l-.99-1.51-.7-2.17 1.62.3 1.37-.72.96.59 4.1-2.92 1.33-.04 2.84-.93-.25-1.69-2.33-2.42-.97-.29-.54-1.82-.85-1.77 2.89.3 1.3-2.09 2.04 1.2.94-.27 2.51.2 1.94 1.05 1.4-.08.37 1.47.82-.63 3.07-.06 2.29.84 3.9.71 1.75 1.13.79.1 1.33-.86.19-1.2 1.59-2.88 1.72-.9 4.3 1.97 1.32-.39.4.83 10.18-21.8 12.23-26.15 1.76-3.87z"/>
    <path region="32" short-name="25" long-name="State Senate District 25" value="1" d="m157.9 406.63.83-.94 12.5-13.62 2.65.47 1.85-.45 1.93-.07.9-1.08 1.7-.36.73-.85 1.62 1.34 2.4 1.53.61.96 1.79 1.42 15.84.74 10.33-1.7 3.9 21.14.48 2.05 3.06-2.14 5.84-5.72 4.05-3.71 1.73 1.81 1.13 2.7 1.88 2.21 1.44 1.26 2.84 1.88 5.3 1.54 1.48-.15 3.46-3.38 8.1 1.05 1.53-.53 5.97 1.42 1.6-.4 4.84-.76-.14 3.32-.33 3.35.09.9 8.16-2.02-.52-.69.87-1.8 1.02-.95.02-.75.85-1.2.42-1.4.76-.9.52-1.62 1.19-.91 6.16-7.06 1.54-2.2 3.21-7.77 1.53-.8-.23-.83 1-.59.9.46 3.72.11 1.05.57 1.41 1.5 2.81.15-1.24 1.73.1.58 1.59 1.25-.07 1.16-.7 2.62 3.04-.34 4.2 1.97 1.8 2.18 2 .67.33-.86 1.26-.8-.76-1.27 1.95-1.06 2.1 2.5 4.23-2.02 1.5-.46.2-1.86 1.07-4.26 1.12-.03.6 1.81.48.24.34 1.81.97 1.4.23 1.36 2.39.15 2-.63 1.3.7 1.27-.02 1.16-.69.57-1.42 2.03-.65.96.44.42-.8 1.25.14.28-1.18-.45-.8 1.82-.49 1.32-1.06.68-1.8.7.55v1.4l2.03.92.68.73 1.96-.91-.14 1.7-.48 1.63-.69.93-.23 1.34.73 1.02 3.85 1.05 5.46-1.06 5.79-.77 3.23-1.74 1.98-.88 1.77.5 2.59.13 7.43 1.85 1.89 1.02 1.8.4 3.32 1.36 2.02.44 1.23-.4 1.1 1 1.06.28 2.44-.42 3.82 1.75.86.12 3.02-.42 3.28.18 1.62 1.24 10.16 3.5 3.95.3-.44.97-.16 1.78-2.68.35.73 1.08.2 1.82.73 2.44-.03 3.37.96 1.86.22 2.66-1.57.87-4.38 1.89-3.97 2.8-3.67 2.83-.66-.8-1.11.8-1.95.4-3.32.13-1.31-.52h-2.24l-.87-1.62-2.5-.11-1.4-.38-3.87.1-2.62-1.22.51-1.93.07-1.45-2.04-4.3-3.34 1.1-2.55 1.94-1.06-1.3-.84-1.92-.57-.37-2.24.57-2.43-2.55-.96-.36-.17 4.02 1.04 1.19.59 1.44-.36.9 1.06 2.69 2.07.85 1.54-.24.8 1.9 1.57 1.15 3.98 4.87 1.6 2.45 2.34 3.15 1.26 3.86 1.83 1.36 1.34.6-2.83 2.4-4.13 5.02h-1.06l-.86-.97-.95.1-1.38-.7-.6-1.19-2.03.37-.6-.87-1.34-.33-1.29-1.25-.43-1.56-1.43-1.45-1.33-.57-.19-1.35-1.57-2.38.24-1.24-1.27-1.7-3.03-1.09-1.59-2.2-.48-1.38-29.98 28.25 1.87-.19.06 1.14-.46 1.15-.26 2.28-1.94 1.96-.4 1.23-2.56 4.28 1.57 1.03 2 .72 1.72 2.16.88.62.71 2.09 1.12 1.1 2.36 1.18 1.3 1.43 1.13.58-.45 1.82-2.46 1.36-4.06 1.77-2.97 1.6.07 1.26 1.43 1.95.6 1.62 1.48 2.38 2.28 2.85 1.34.5-.53 1.4-1.46 2.36-1 1.04-.38 1.14-3.86-.47-1.12-3-2.38.25-1.53-.35-1.41.1-1.82 1.96-.02.8-3.75 3.6-.24 2.02-6.73 1.84-1.18.8-1.67 3.28-1.1.84-1.9 2.55 1.28.19 2.26.9 3.01 1.86.36 2.22-2.37.72-1.34 2.99-2.68 1.43-.6 1.02-.68 3.51-1.24 1.5-1.2-1.07-1.3-.59-1.83-.16-2.38-1.27-1.38-1.85-1.8-1.68-2.37 1.78-1.96-1.88-.75-1.02.81-.8-3.05-1.82.22-1.72-2.62-1.9.64-1.21-.34-.6.46-1.42-.61-1-1.63.64.33-2.08 1.14.2.85-2.98 1.14-1.57.07-.8-.91-2.13-.62-5.36-14.97 14.02-1.53-.73-.75-1.43-1-1.05-1-.37-.9-2.05-1.87-2.3-2.37-.73-2.35-2.15-.85-.53-4.37-1.3-.98-.91-1.54-2.32-2-.24-2.08 1.47-1.6.05-1.94-.94-1.24-.95-.94-2.06-1.04-.84-3.71-1.02-.77-.54-3.48-3.66-.96-4.08.28-3.71-2.07-1.88-.7-1.98-1.14-2.28-1.46-1.28-1.85-2.2-.55-1.91.3-1.63-.62-2.7-.07-1.42-1.32-3.02-.43-2.42-1.69-1.82-1.75-.74-.2-.73-2.64-1.57-1.34-1.7-.94-.7-1.32-.07-.84-.65-.06-3.62-.86-1.08-1.87-.98-.4-.99-2.11-2.23-2.78-1.79-1.74-1.67-4.7-2.12-.94-.61-1.34-1.6-1.09-.83-2.24-1.17-1.34-1.4-1.28-.4-2.55.64-1.78-.53-2.36-2.32-1.58-.61-1.46-1.03-.9-1.19-2.18-1.61-2.12-2.28-2.67-1.97-.66-.92-1.56-3.16-1.94-2.74-2.41-1.6-2-.08-1.87.68-2.86-1.1-1.6-2.63-.34-2.24-.6-1.29-1.06-.92-1.31-2.15.18-1.29.7-1.44-1.5-.57-1.06-1.12z"/>
    <path region="33" short-name="31" long-name="State Senate District 31" value="1" d="m731.56 351.4 3.83-2.94 5.02 4.84-.44 3.5-1.52 5.75 4.02-.76-.06-1.53 3.53-.2.23 3.9 1.64-.17 1.98.17-.03 3.37 1.75.95 2.62 2.44.5.13 3.73-.98-.6-1.4-1.1-.65-1.31-.2.12-1.15.8-1.64 1.43-1.3 1.45-.2.39-.52-.3-2.17 4.25.05.03-1.66 19.43-1.11 2.1-.51 6.86.82-.68 1.3-1.84.73-1.97 2.02-.59 1.7.6 2.16 1.47 1.26 1.33 2.66 2.4 1.96-.11 2 .6 1.15 1.54.6.37.77-.01 1.86 1.12.38 1.69-.87.37.38-1.37 2.1.28 1.53.8.23-.25 2.25.85 1-2.78-.45-.37 1.45.12 3.82-.96.52-.13.92 1.5.65.29 2.03 1.19.65-.06 1.2.94 1.93.81.27.38 2.21-.46 1.28.56 3.28-.43 1.51.8 1.86-.48 1.56-1.18 1.55 1.56 1.57.78 2.14 1.23 1.99.77.5 2.04.16 1 .99-.37 1.22-1.82 1.81.06 1.52 1.16 1 .73 1.25 1.61.68.25 1.21 1.16.48 1.08-.92.6 1.48 1.67.31.48 1.1-.52 1.36.75.89 1.88.63.7 1.25.86-.04.64 1.54 3.42 1.37 2.33-.12.05 1.1-1.81.79.58.73 1.57.35.56 1.45 1.52.5-.06 1.53.88 1.31.78.48 1.47 1.81 1.33 2.45 2.14.14.97.71 1.78-.76 1.36.52.3 2 1.63.96 1.57-.49.49 1.29-.05 1.45 1.1.75-.1 2.44-1.34.97-.69 1-1.35-.3-.42-.56-1.57-.07-.8-1.37-1.2-.83-.47-.89-1.92.1-1.3-.92-1.81.34-1.3-.38-.7.6.41 1.16-.98 1.07-1.2.5-.98 1.17-2.21-.24-1.83.53-1.24.96-1.87.75-1.65 2.06-1.54-.04-2.06.87-.93-.45-1 .28-1.08-.5-4.4 1.65-.42.45-22.05-6.36-6.75-1.9-.4-1.35-1.5-.15-2.44-.65-1.6-1.72.07-.71-2.22-1.78-.74-1.69-1.92-1.13-.37-1.07-1.37-1.67.96-2.16h1.77l-.25-1.02.08-2.27-1.08.27-.63-.87-1.52-.42-.2-.66-1.4-.04-1.18-2.39-.83-.43-.39-1.78-1.64 1.55-1.64.99-3.85-.28-6.42.55-2.12.98-4.73.17-2.4.35-1.65.78-2.56-.47-1.6-1.82-2.4 1.86-1.92-.23-4.5-.9-1.08-.06-7.16.72-1.9.05-1.32-2.07-4.63-13.1 16.87-10.42-2.2-2.26-.31-1.51-1.64-1.03-1.79-.37-1.66-.88-.28-.78-1.15-.42-2.2-.3.16-.94-1.87.33-1.47-.58-.33-.56-2.06-.98-.98-1.38-1.55-1.24-1.18-.08-.91-1.54-.92-.1-1.1-1.9.23-.61-3.03-1.7-.01-.94-2.49-1.87-.06-.65-1.67-.43-.63.47-1.62-1.05-1.39.44-2.59-1.79 19.93-15.29z"/>
    <path region="34" short-name="43" long-name="State Senate District 43" value="1" d="m715.3 708.3.27-3.76 2.6-1.58 1.06-1.3 1.1 1.52 1.03.37.67 1.8 1.88.72 1.9-.88.2 1.15 1.11.76.88-.83.73 1.04-1.29 2 .88.81 2.2-2.14 2.22-1.76 2.82-3.42 3.99-3.25 1.12-1.96 3-1.8-1.03-1.12-1.45-.71 2.6-2.14 1.68-1.26-.6-4.1.36-3.07-.53-.67 1-1.79.2-1.33 1.54.2 2.63 1.26 1.78-.09.9-.56.32-.99 1.8-.28.92.54.69 1.14 3.88 2.37.61-.2.79 1.37 3.06-.34 1.28-2.47 1.86-2.04.44-1.8-.12-1.62 1.3-1.44 1.24-2.42 2.2-3.07 1.8-2.87 1.5-2.12 3.17-3.42 3.83-4.93 1.68-1.93 4.23-3.85 1.82-.92 1.78.76-.48.81.9.57h1.84l-.59 1.33-1.32.61-.83-.13-2.55 1.3-1.8 1.49-1.02.36-2 1.83-.62 2.55-.6 1.2-1.28 1.52-1.72 1.47-1.17 1.74.09 1.66-2.37 3.19-.03 1.94 1 2.5 1.12 2.12 3.7.42.84-1.24 2.07-1.05.5 1.46-.26 1.68-.72 2.66-.62.98-10.42 4.42-2.22 1.83-1 1.28-1.94.04-5.26 3.51-2.53 2.2-.98.37-.25 1.84-.94 1.95-1.31.66-2.03 1.88.37 2.18-.55 1.44-1.18 1.28-2.12 1.09-4.14 1.23-6.47 3-3.63 2.33-1.86.06-.11 1.09-1.97 1.9-5.17 2.26-1.23-.31-1.66-1.65-.77-1.1.62-1.25-.42-.96-1.08-.83-1.54-1.84-1.66-.54-6.48 1.24zm-56.32 61.97 1.74.82-.86.6zm-148.39 49.08 1.54.05.27 1.54 2.74.4.68-3.29 1.22-1.1-1.09-1.32 2.54-1.1.56-1.52 1.72.08.56-1.13 1.23-.23-.2-2.1 2.84-4.45-1.16-.85-2.73.8-.47-1.14.52-3.13 2.87-6.88.78-1.28 2.39-.46.58.42 1.21 3.26.69 3.19 5.17 12.43 2.68-2.1 1.67-1.7 2.66-3.46 1.06-.9 5.53-3.03.68-.48 1.18.25v-2.02l1.96-.28.77.85 1.34.16.4.65 2.75.04.15 1.59 1.87-.33.9-2-1.76-3.99-3.72-.33-.61-.83-.65-2.16-.23-2.4.23-2.62-.24-.56 1.24-1.19 1.38-.83-.15-.93 4.1-1.76 1.58.6 1.4.12 1.8-.24 1.72-.83 1.77.06 2.53 1.25 3.15 2.59 1.59.56 4.1-.58 1.05-.44 1.58-1.24 2.7-.58 4.98-.06 1.86-.33-1.27-2.14 1.51-.26-1.67-2-1.62-.3-1.9-.98-.4-.8-.34-2.93-.47-1.5-.9-1.24.84-.99-.08-3.39-.96.22-.15-1 1.62.74.67-.23-.6-2.18.28-1.45-.66-1.22.96-.87-.24-.65-1.18.03.03-1.49 1.76-1.65-.75-1.49-.8-.21-.8 1.07-.63-.29.05-1.47-.78-1.24.64-1.5-1.52.43-.26-.85-1-.1-.98-1.23 1.6-1.97 1.37.84 2.76-.17.91-.55 2.67-.87.3-.9-1.26-.53-.45-1.06-1.61-.92 1.3-.89.48-.82 1.76-.61.86.48 3.12.42.47.96-1.18 1.58.9.75 1.07-1.34 1.62.63 8.28-1.55 1.92-.03 2.48-1.02.48.14 1.48 2.24 2.05 2.2 1.76-.81 2.51-.42.7.98.87.22.36-1.37 1.74.75-.87 1.53 1.57.12.82.62 1.29-.72.78.27.82 1.2-1.03.93 1.2.64 1.84-.6 1.22.56.84-.94.38-1.34 1.91.97-.9 1.33-.04.91 1.73.37 2.74 1.48 2.2.56 3.04-.68 2.27 2.49 1.14.7 3.75 1.57 1.56 2.03 1.61 2.99 2.58 1.5 1.23-2.5 2.33-2.32.46-.08 2.5 1.11.98-2.01 1.5-.2 2.45-1 2.35-.12.72.95 1.88.2.78-.79.62-1.65.66-.6 3.27.02 1.54-.67 2-.09 2.9-1.84 2.6-1.42 1.62-1.3 7.47-.67 1.09 1 4.41.97 1.03-.58 2.82-2.8 2.52-1.46 1.27-1.59.35-1.08 1.15-1.71-.9-1.67.74-1.7 2.49-1.4 1.19-.34 1.2-2.12 1.66-.89-.34-.86.49-1.39-2.85-1.13.06-3.61.35-.09 1.74-2.69-3.51-.2-1.49 1.48-1.9-1.51.88-.77-.38-1.42 1.15-.57.1-1.34.64-1.3-.51-.97-1.27-1.3 1.06-.62 1.57 1.1.41-1.45 2.32-.34-.14.98-.92 1.46.05 3.68 1.11.3 1.1-.35 1.87.7 2.62.51 1.14-.37 2.45.05 1.7 2.08.32 2.17-.16.9-2.06 3.46-1.46 3.48-.2 1.68.2 3-5.95 4.48-11.31 6.02-.89-.12-1.19 2.13-1.43 1.49-1.11 3.8-1.78 1.26-1.1-.03-.92-.7-1.35-.38-4.22.04-8.28 1.7-4.37 1.25-4.85 1.92-3.86 2.53-1.14.52-2.14 1.52-1.68 2.5-.58.4-1.96.26-.7-.26-3.26.05-4.8 2.21-3.9 2.16-5.13 3.54-3.3 2.46-3.78 3.54-7.69 6.31-1.23-.15-.73-1.25-1.01-2.64-2.85-1.32-.44 1.04-1.35.95-.33 1.03-1.12-.1-2.44 1.24-.4 1.45-.6.43-4.36 1.15-.51-.34-.66-1.7.1-2.6-.61-1.32-1.95-1.5-2.73-.99-2.2.35-.62.99-1.14.42-1.87.2-1.92 5.28.92 1.9-1.61 1.7 1.08 3.76.83.87 1.2 2.08.43 2.1 1.26 3.05.84.65 4.57-.55 1.32 1.7.19 1.54-.2 2.38-1.4 3.6-.87 1.78-.84 3.18-2.04 3.86-1.03-.47-.98.26.2 1.65 1.59 1.63.37 1.2-1.33.29-3.93 1.5-4.33 2.1-.94-.34-3.64 1.94-3.62 2.3-1.18-.01-.87 1.16-3.04 1.2-.66.58-2.05.76-2.54-1.82-1.36.72-2.37 1.78-.55 1.14-2.25 1.38-.8 1.04-1.93.28-2.58-.97-.22-1.04.71-1.9-.47-3.76.1-.84-4.88-1.56-1.15.35-3.07-1.59-2.07-1.92-.24-1.13-1.77-2.09-1.34-.47-1.59.23-2.37 1.3-1.08 1.4.35 1.9-1.15.64-2.25-.83-.98-.32-1.93.36-.81-1.71-1.74-2.26-1.7-1.06-1.73 1.03-1.03 1.44-.1 3.57-.37 1.48-.6.7-1.56.76-1.6.02-1.85-.76-2.97-2.34-1.51-.67.07-1.34-3.97-1.57-.9-1.51-.45-2-1.5-1.92-1.37-1.22-2.56.2.8-1.26z"/>
    <path region="35" short-name="27" long-name="State Senate District 27" value="1" d="m531.81 203.37 31.8.31 17.27.28 12.87.05 1.66.12 8.36.1 10.77.32 34.52.56 21.4.54 12.11.27 12.41.33-.85 1.62-.61.32-1.48 1.96-2.52 3.82.63 1.87-.3 1.4-1.25.98-.47 1.04.35.86.03 3.32 1.06.82 1 1.87 1.42 3.34-.1.83.88 1.36 1 .85 1.07.03 1.05.62 2.26 2.6-.17.65 1.02 1.33.87.35.34 1.12 2 .6 2.77-.01 1.3.59.41.77 1.3-.5 1.08 1.02.77.1-.16 1.32 1.5.47 3.03-.2 1.27.16.9-.66.87.23-.34 1.87-5.53 4.47-3.16 2.8.92 1.28.06.93 1.03 2.47 1.73 2.53 1.76 1.38 1.54 2.08 1.34 2.6 4.53 4.46 3.02 2.32 1.6 2.97 1.4.15 2.45 1.07-.17 1.35-.98.2-1.45 1.1-1.11 1.8.22 1.13-1.6.86-.9 1.07.19 1.2-2.12 1.32-1.93.5-1.63-.03-2.06-1.37-1.64-.28-3.36 1.23-1 .73-1.75-.47-1.7.7-1.65-.13-.8-1.29-2.47-2.22-2.43.62-.79.74-1.15-.13-1.53.6-.66.87-2.91 1.08-1.07-.14-1.72-1.34-1.15-.05-1.5.88-6.2 4-3.07 2.13-7.4 4.47-24.18 15.12-8.24 5.29-.07-1.05 1.04-1.86-.8-1.28.61-.84-.14-1.9-.86-.55-1.28.24-.6-1.3-.74-.3.17-1.7-.31-.73-1.55-1.02-.25-2.1-2.04-1.09-1.01-2.48v-1.18l.73-1.72-1.3-2.56.33-3.56-.04-1.94-.39-1.12.38-1.35.01-1.8-1.71-3.23-.86-.64-2.37.69-1.57-.04-1.06.84.61.95-5.43 1.37-1.8.11-1.73.45-1.78-.1-1.56.38-.62.7-1 2.22-1.55 2.6-1.66 2.06-1.65 4.03-.64 2.84.26 2.74-.43 1.04-.05 2.59-1.12 1.95-1.01 2.35-.7-.94-2.98-1.12-.42.17-3.34 2.94-1.73.12-1.54.67.8 1.8.62 2.48-.25.77-2.14-.69-1.11.49-2.3.38-.48.98 1.23 4.12 1.7-1.02 2.1.23 1.24 2.31-.26.55-2.17.25-1.7 1.4-5.96 5.73-1.27 2.61-1.24 1.67-1.94 1.61-1.87 2.59-4.72 1.97-.98 1.43-2.01-.16-.84 1.85-1.3-.83-3.36 3.35 1.44 1.47 3.2 1.34.7 1.4-.62 2.8-1.93.6-3.66 3.02-4.76 2.73-3 1.55-2.96 3.23-1.93-.78-3.65-.07-.16-2.74-.83-1.42-.29-1.97-5.41 3.92-4.03 3.18-1.92 1.03-.43-.66-2.66-.5-3.03-1.6.07-.62-1.19-1.83.2-3.53 1.18-1.96-.53-2.16-1.15-1.42-.36-1.63-1.45-1.74 3.12-7.51 11.65-27.3-2.4-2.2-.6-2.23.52-1.98-.28-1-2.14-1.72-3.57-.33-3.12.7-1.57-.75-1.12-1.05-2.17-2.8-3.8-3.66-.6-1.26-1.89-2.07-.77-1.4-1.1-1.14-1.63-4.04-.55-.71.31-1.26 1.08-.93.94-.01 1.2-1.2.1-1.56 1.06-4.72.14-2.75-.37-2.99.92-1.32-.05-.98-1.15-3.6.1-2.53-1.12-1.08.1-.77-1.88-2.43.44-2.47.16-2.63-.57-1.75-.93-1.68.31-2.51 1.56-2.76.2-1.12-.42-2.93 1.65-1.35.76-2.26 3.44-3.25.12-1.14-1.36-1.62-.26-2.13.1-2.09-1.22-1.82-.67-3.84-.3-2.94 3.1-1.36.7-1.12-.06-2.6.35-.78 1.46-.8-.07-.97 2.03.2 1.48-.47 1.11-1.29 1.15.98.97-.36 1.25.73.47-1.16 1.72-1.13.92-.2-.74-3.07z"/>
    <path region="36" short-name="46" long-name="State Senate District 46" value="1" d="M510.6 819.35v1.23l-.79 1.26 2.56-.2 1.37 1.22 1.5 1.91.45 2 .9 1.52 3.97 1.57-.07 1.34 1.51.67 2.97 2.34 1.85.76 1.6-.02 1.55-.76.6-.7.37-1.48.1-3.57 1.04-1.44 1.73-1.03 1.7 1.06 1.74 2.26.81 1.71 1.93-.36.98.32-2.62 3.5.13 1.63.87 1.46 1.2 1 2.73 3 3.18-1.67.93.76 1 .12 2.48 2.66 2.63 2.26 1.4.69 1.8 1.91 1.17 1.7.9 2.17-.78 1.8-3.04 2.5-2.9 3.9-2.81 4.78-1.62 2.11-2.09 2.07-3.17 2.23-4.85 2.37-4.14 2.38-4.68 3.13-1.88.28-1.43-1.14-2.92-1.13-1.16 2.2-2.23 2.29-2.79 4.1-1.5.45-2.45-.1-1.7.92-1.84-.12-.82-1.14.38-1.25 2.84-3.6.2-1.26-1.03-.96-5.48-1.93.03-1.12 2.95-.88.88-.69-.28-1.05-1.14-.06-.85.9-1.22.01-.34-1.37-.82-.37-.81.82-1.38-.54-1.27 1.9-1.4-.5-1.09 1.1-.46-1.49.62-1.06-1.8-.82-.38-1.09.2-1.08 1.59-.42.24 1.33 1.13 1.01.61-.81-.67-.82.83-1.95-.23-1.43-1.07-.96 1.66-.34-1.11-1.88-1.35.07-.76-2.58-.89.5-.81-.57-1.22-.1-.34-.98-1.9.1-2.29-1.33.78-1.31-.6-1.23-1.25-.6-.28-2-1.28-.64.08-.87-.46-2.51.12-1.05-.53-1.93 1.2-1.36 1.13-.21 1.93-2.78.66-2.64-.88-1.1-.17-1.02.69-2.27-.93-1.84-1.2-.68-.4-1.41.51-2.82.78-1.46.74-.38-.24-1.6-.67-.75-.68-1.9.07-1.58-.48-2.05-1.46-1.6-.17-.92-1.1-1.85.25-2.17 4.54.38 2.87.76 5.26 3.65 1.95.35.4 2.36-.71 2.71 4.28 2.77.3-3.39 1.14-1.67 2.56-.62z"/>
    <path region="37" short-name="3" long-name="State Senate District 3" value="1" d="m126.75 235.25 34.97-20.7 18.55-10.98 2.47 2.18.64 1.59.82.57-.25.95 1.75.37-.28.94.7 1.18.1 2.31-2.3 2.6-5.94 13.53-2 9.04-1.31 2.88-7.07 19.54 1.3.53.84.96-.61 2.03.54 3.4-.08 2.8-.26 1.26-1.2.25-1.59 1.75-1.55.9-.94.13-1.3 1.75-.23-1.49-.77-1.8-.57.43-2-1.56-1.14 2.85-1.3 1.33-2.6 4.34-1.26-.7-1.47.86-1.16-.36-4.15 1.23-.83-2.64-2.74.85.2 1.12-.79 2-2.62.28-.8-2.2-1.36.38-.8-.34-2.33.18-2.55-.77-.76.05-3.23-1.1-1.15.73-.18 4.95 2.94-.48 1.15 2.59.65.5.98 2.04-.93 1.18.17.9-.71 2.6-1.05 1.12-2.63 1.14-1.74.38-.21 1.43-1.4 1.32-1.32-.35-.2 1.36-1.92 1.11-4.27 1.48-.21 2.36-3.23.22-1.37-.12-2.32.56-3.08-.03-.64-3.92-.9-.79-.32-3.24-.96-2.82.27-.6-1.36-1.29-1.35-.22-.42-.83-1.52-1.26.08-.6-1.38-2.3-1.08-.06-1.86-1.4-3.37.65-1.75.64-.97-1.01-2.74.03-.88 1.27-2.15.24-.98-1.22-2.43 1.27-1-.9-2.6.93 2.28-2.65 16.4-18.84 23.9-27.41z"/>
    <path region="38" short-name="37" long-name="State Senate District 37" value="1" d="m647.48 564.4 4.6 1.7 3.53 2.66 2.22.48 3.6 1.41 3.57 2.12 1.56-.04 2.25 2.1 20.53 9.42.3-.01 2.95-4.05 2.24-2.41 3.71-3.32 3.87-3.07 1.55 1.23 1.4-.38.64.43 3.42.65 1.44-4.73.8.88.69 3.05.82.83 2.14 1.19.06 2.14-.58 1.6 2.5.28 5.94-3.95-.08 1.8 1.94 1.96.26 1.75 1.98 2.19 2.08 1.26-1.01 1.2 1.2 1.75 1.08 1-.23.77 9.32-.7 4.5-.17 4.26 1.06.22-2.22-.85-1.75-.93-1.04.16-.82 1.14-.02 1.73-2.2 1.43-.73 2.05.42 1.1-.53 1.59.87 2-.66.69.73 1.45.18.8.89 2.9 1.88 2.65 1.25.94.78 3.47.54 3.45.8 2.37 1.02 1.46.92 1.25 1.45 2.3.01 3.68 1.12 3.24.56.96.98-.7 1.56 1.14.24 1.2-.9.67 2.24-1.65.07-.94.58-1.84-.76-.1.64-1.4.38-.79.67-2.52-.95-.12 1.85-3.18 2.76-1.96 2.65-1.5.64-2.26-2.75-.64-1.3-5.16 1.1-3.35-2.3-.01.48 1.7 4.96-.19 1.46.4 1.48-.76 3.72.61 3.16.94 2.25-.06 1-1 2.2-.13 3.06 1.82 1.07.32 3.39 1.1.42.89 1.52 1.25.24-.5 1.95-1.63 2.93-1.05 2.48-2.9 2.48-1.1 1.74-2.52 3.4-1.42 1.28-.9 2.25-2.43 1.32-1.44 2.4-1.55 4.19-2.91 2.16-2.15 1.94-1.82 2.1-1.34 3.36-.16 1.73 1.2 2.58-1.16 1.64-.55 1.9-.6.55-1.76-.37-3.15 2.32-.27 1.4 2.75-.6 1.85.98 1.84 1.75-.2 1.33-.99 1.8.53.66-.37 3.06.61 4.1-1.68 1.27-5.03.04 1.28 2.38-.3.9-3.31 3.09-.67-.53-1.53-.2-2.18.79-.17-.95-1.01-1.88-.92.08-2.15-1.41.4 2.23-.41.16.47 2.3-1.86.58-2.86-1.81-4.2-3.24 2.76-2.09 1.45.09-.1-4.18-1.32-3.5-1.34-.35-.83 1.18-1.29-.93-1.25 1.84-.93.38-1.4 1.68-.02 1.58-.78-.04-.34 1.07-1-.59-3.22-2.85-.9-.4-3.31-.6 1.14-2.04 1.89-1.92-1.37-2.14-3.3-2.5.05-1.18-1.02-1.28.29-1.5-1.5-.8-.34 2.01-1.83.35-.9 1.05-.76-5.18-.85-6.83.47-4.29-2.6-.65-1.33-.06.36-1.01-.61-.96 1.83-3.56-3.02 1.13-1.9-.16.33-3.27-4.07-.43-1.74-.6-2.88-2.15-1.98-2.28-1.57-2.5-4.98-7.2.6-.85 2.68-1.86.79 1.11-.74 1.36 1.14.7.59-.77 1.32.79.79-.15.22 1.37 2.6-8.6-.97-.5.23-3.49.97.12.26-1.3-1.42-.1-.24-1.33 1.52-2.76h-3.2l-.18-1.66-2.8-2.04-.65-.89-9.55-7.7-2.34 2.41-.29-1.12-1.4-3.22-.55-.86v-1.1l-.8-1.35-1.01-.12-1.42-1.77-.82.42-1.37-.14-1.24.85-2.33-1.24-1.49-.22-.45-.57.55-2.52-1.4-1.6-1.87.59-1.05-.77.42-2.72-.47-.42v-2.27l-1.4.31-.8.96-1.85-.95-2.58.81-.54-1.47-1-.63 1.23-.78.5-1.17 1.4-.47 1.63-1.92.76-2.56-.02-2.74 1-1.84-.13-2.36 1.73-3.5.1-2.64-.56-3.3z"/>
    <path region="39" short-name="20" long-name="State Senate District 20" value="1" d="M694.66 702.3h1.31l1.55-1.13 1.82-.95 1.55-.03 3.39 1.44.41 1.45.05 2.96-.86 2.25 1.33-.23.55.38 1.02 2.14 1.23-.76.41 1.08.93-.81 3.86-1.81 2.08.03-.31 5.14-1.26.26-.1.7-2.32.35-.4 1.45-1.58-1.1-1.07.62 1.28 1.3.5.97-.62 1.3-.11 1.34-1.15.57.38 1.42-.88.77 1.9 1.5 1.49-1.47 3.5.2-1.73 2.69-.35.09-.06 3.6-2.7 1.35-1.36 1.25-1.63.45-.33-1.97.37-2.23-1.86.94-2.13 2.37-2.65-.17.25-1.86-.82-1.1-1.8-.59-1.1-.27-.85-1.33.21-2.91-.34-3.05.3-1.24 1.04-1.36-1.07-1.33-2.8.1-2.07-.49-3.15-1.94-1.36-.14-1.53.73-1.23 1.1-.73.1-1.82-1.67-2-.33-2.7-2.02-1.13.38-.09-1.84.98-.77 6.44-7.46.57.68 1.39-.43 2.82-1.64 1.2.21 2.5-.7.38.58-1.1 1.22.86 1.2.39-1.44 2.35.4z"/>
    <path region="40" short-name="42" long-name="State Senate District 42" value="1" d="m677.3 662.6 2.96-1.3 4.91-1.1.92-.39 1.12 2.2 1 1.35 1.23.6-.53 5.51.25 1.35 6.13 13.66 3.66-.72.19 1.2-.98.83 2.59.13.02 2.84 2.36.25.02.82 1.93.09 1.1 3.54 1.14 1.4 2.2.53 1.9.89.93 1.58-.38 2.96.25 1.87.44.59 1.9 1.23 1.01.03-.28 3.77-2.08-.03-3.86 1.8-.92.82-.42-1.08-1.23.76-1.02-2.14-.55-.38-1.33.23.86-2.24-.05-2.97-.41-1.44-3.39-1.45-1.55.03-1.82.95-1.55 1.14h-1.3l-1.94-1.92-1.21-.77-2.04-2.32-1.87.42-.58-.53-1.65-2.95-.08-1-1.02-1.5-3.19-1-.33-.77 1.23-1.68-1.06-.6-2.1.93-1.21-.3-.51-1.62-.65-.53.74-2.22.97-1.23-1.02-.42-1.77-1.3 1.81-1.8 1.01-.63-1.98-1.39-.49-1.85 1.1-.52.78-.93-3.58-3.73-3.12-3.02-2.48-2.41.34-.55 1.79.69 1.08-.83z"/>
    <path region="41" short-name="5" long-name="State Senate District 5" value="1" d="m122.62 140.32 1.33.04 1.34-1.38-.12-1.63.62-.31 1.17.61 1.01-.2.91-1.52.81-.72.65-1.49 2.43.3 2.74-1.56.93.86 2.33-3.16-1.7-1.68.46-1 1-.15.11-1.49 1.18-.71 1.42.38.03 2.02 2.51.1 2.22-1.34-.1-.68 1.44-.2.41-.92 1.42.02.05 1.24 1.5-.17 1.64-2.16 2.38-1.12 2.41.33 1.19-.32.89-1 1.55.3 1.36-.49.88-.4 1.28-1.6 1.08.16 1.1-.66-.6-1.1.6-.97 2.43-.11 1.01.5.35 1.36 3.15-1.1.81-1.1 1.7.26.87-.9 1.09.76.72-.4 1.59-2.03 2.34-.76 1.69.21 1.64-.9 1.2.2.57 1.2-1.26 1.49 3.76.25 1.6-1.75.26-1.42 1.29-3.77.98-1.4 1.76-.99 1.65-.5 1.6-2.23 1.09-.56 1.33 1.24.05.74 1.05 2.44-.8 1.42.08.73 1.12 1.32 1.15.76 1.46-.84.58-1.55 3.52-.58 1.36 1.04.85-.42.7 1 1.5.5 1.56-1.5 4.27-1.1 1.44-.92 2.81-.37 9.16.83 11.24.77 7.9.17 6.83.4 1.18.88 1.17 2.82-3.2 2.39-.95-.4-2.66 1.69 2.83 3.1 2.42 4.31 2.48 3.37 2.7 4.6 1.47 3-1.71 1.49-.96-.74-.9-1.88-1.92-2.32-2.08 1.27-2.19.52-2.23-.62-1.38-1.17-1.8-1 .37 1.46-.91 1.61-.42 3.17-.94.63-.07 4.8-.23.85 1.1.28 1.8 1.58 2.17 3.76-1.96 2.02-.91 1.61-1.89.92-1.2-.35-.15.87-1.53 1.3-2.34.67.34 1.11-.53 1.41.28 1.01-.55 2.22.96 2.7-.2.72 1 1.82-.64 2.02-1.2 1.26-4.85 1.21-3.88-.06-.3 8.83-1.83 1.44-1.02-1.04-.82 1.37-.69-1.03-1.72 1.54-1.18-3.19-1.83.13-1.83 2.5-.82-.68-1.4.8-1.04.14-1.02-1.22-1.6-.12.09-2.06-1.46.34-.7-.29-2.66 2.4-.1-.85-1.97-.1.44-2.44-.01-1.75.7-1.54-.49-.9-1.47-.42-1.4.56-.77-.3-1.06-1.94-2.5-.86-1.45-1.16-.87-.1-2.82-2.5-1.3-.56-1.44.28-.94 1.1-1.26-.18-.03-3.4-2.06-.85.06-.67-1.24-1.65-1.02.22-.9-1.07-3.3-.46-.4-2.03.77-1.35-.31-1.48-.73-.96-2.28.89-.39.9-1.69 1.56.38 1.95-1.08 1.28-1.1 2.38-2.13.7-1.08 1.35-1-.08-.7-1.65-1.21.71-.32 1.57.36 1.05-1.04.69.38 1.08-.61 2.02-.58-.4.33-1.82-.53-1.45-.7.1-.28-1.78-.7.34-1.07-1.23-1.1-.46 1.41-.92 1.48-.36.03-.8-.91-2.79-1-1.7 1.1-2.19-3.84-.46-1.42.72-2.14-.08-.85.78-3.42.4-.4-1.26.3-.82 1.27-1.26-.2-2.43.74-.46-.87-1.73.09-.8-1.95.41.65-2.17-.41-1.28 1.1-2.16 3.3-.65 1.3-1.27-1.13-.87h-2.9l-3.53.87-.98-.49-.4 1.24h-1.26l-1.3.68-2.42.12-.88 1.04-1.52-.02-.28-.68-1.47-.78-1.75.26-1.12.65-.86-.64-1.43.79-1.5-.28-3.1.51-.77-.28-1.5.78-.34 1.28-1.36.23-1.27-.52-.28.97-1.18-.1-.44 1.17-2.3-.14-2.18-2.58z"/>
    <path region="42" short-name="38" long-name="State Senate District 38" value="1" d="m645.44 637.38 18.13 14.26 1.7 1.53 5.72 4.47 3.03 2.38.2-.57 2.3.15-.64 1.87 1.43 1.13-5.67 1.43-1.08.83-1.79-.7-.34.56 2.48 2.41-1.13-.06-1.06.5-1.32 1.46-1.49.74.68.87-1.99 1.4-.19.82-3.15-.06-.6-.49-1.35.14-.61-1.88-1.02.23-1.42-.3-2.44 3.9-2.17 1.75-1.8 2.28-5.53 5.46-.84-1.23-2.52-1.56-.38.89-1.8 1.72-.83-.39-.25-2.02-1.6-1.74 1.75-1.82 1-.65 2.03-2.44 1.12-.25 1.48-3.02-1.1-.61-1.69-1.85 1.08-.58 2.66-.45-.15-1-1.4 1.1-1.63-.73-.19-.58-1.3-.73-2.56-4.4-.35-3.1-1.12-.37-.7-2.05.23-2.7-.17-1.05.5-1.74-.15-2.74.7-1.44.05-.97.7-1.52 2.3-1.95.52-1.18.91-.58.65-1.69 1.59-1.31z"/>
    <path region="43" short-name="26" long-name="State Senate District 26" value="1" d="m458.71 407.27.83-.41 3.4-3.2-2.2-1.03-2.66-.93-1.04-.77-2.08-2.12.26-2.65.48-1.08-1.31-1.6 2.83-1.96.64-.88 2.83 2.33 2.92 3.16 1.86 2.65 1.2 2.08 3.49-.64.8.8.72 1.44 1.17 1.25 1.04.17 4.2-1.08 2.2 1.8.63-1.3.27-.7 2.2.06.38 1.11 1.46.45-.67 1.32 2.05 5.5 1.11 2.58-2.39.94-.93-1.13-3.27 1.26-1.01 1.12 1.54 2.33.57 1.37 3.9 7.96-.5 2.44-2.04 1.17.06 1.11 1.3.7 1.75.28 1.15 1.01-.47 1.5-1.33.4-.83 2.12.64 1.48 1.25.52 2.53.41.75 1.16-.36 1.72-.79.98.48.61 2.82.79-.7 1.2.8.99 1.66.05 1 .38 1.46-.21 3.15 1.74 1.4 1.77.73 1.34.91.53 2.48-.26.24-1.4.55-.46 1.53.48.29.76-.88 1.24-.28 2.8.36.58 3.55.67 1.1-.3 2.8-1.42 1.03.04 1.06.77.83 2.42 1.65.29 2.62 1.4 1.61.52.83 2.1 1.82-.34.45.58-1.13 2.09 1.27.46 1.3-1.68 1.27.65.4 1.07 1.3.27 1.67.9 2.16.16-.4 1.97 1.15-.17 1.58-2.55.8.13.33 1.14 1.38-1.8.46.23.27 2.07 1.33.05.51.72-2.46 1.8-1.03 2.7-1.08 1.01-1.39.67-.58 1.6.08 2.34 2.28-.5 2.7-1.3-1.12 1.96 1.42.76 1.44-.62 1.72-1.34 1.63-.45 5.3.08.7.4-1.82 3.83-.8 3.14-1.37 1.58-9.26 3.65-1.64 1.1-2.56 5.3-.82 3.06-1.18 1.67-.9 2.03-1.86 4.94-15.29-3.89-7.96 3.55-4.19-.82.06-2.24.32-1.66-.57-1.34.2-1.82-.88-1.64-4.48 4.57-7.14-8.87-3.2-4.29-1.6-1.9-4.15-5.4-8.7 2.78-7.98 4.1-3.4-1.78-1.76-1.2-.98-2.08-1.54-.4-.08-1.08-.66-1.3-1.27-1.17-.74-2.02-.47-4.6 1.5-4.3 3.08-5.4 1.73-1.34 3.6-.9.34 1.28 1.86 3.72 1.46 1.15.91-1.13 1.19-3.9 2.53.68 1.47-1.16 1.15 2.16.84.47 1.5-.83 2.07.39 1.38-2.73.29-3.8 1.61-9.95-2.26-.05-2.66-.66-.6-1-2.85.03-1.24-.26 1.13-2.97 1.22-2-1.89.63-1.84.16-1.15 2.63-.3-1.62-1.03-1.55-2.54-.26-.68-.53.56-1.64.03-1.67-.8-.41-.96-1.35.8-.48-.2-1.8.41-1.33-.44-2 1.14-2.01 4.01-3.5.34-1.27-1.65-.4 2.04-2.74-.27-.9-2.33-4.34-.23-.92-3.64.87-2.8 1.3-1.26.06-.17-1.83-.42-.69-.28-2.6-1.22-2.25 1.55-1.3z"/>
    <path region="44" short-name="35" long-name="State Senate District 35" value="1" d="m522.77 350.08 1.45 1.74.36 1.63 1.15 1.42.53 2.16-1.18 1.96-.2 3.53 1.2 1.83-.08.61 3.03 1.6 2.66.51.43.66 1.92-1.03 4.03-3.18 5.41-3.92.3 1.97.82 1.42.16 2.74 3.66.07 1.92.78 2.96-3.23 3-1.55 4.76-2.73 3.66-3.03 1.93-.58.62-2.81-.7-1.4-3.2-1.34-1.44-1.47 3.35-3.35 1.3.83.85-1.85 2.01.16.98-1.43 4.72-1.97 1.87-2.59 1.94-1.61 1.24-1.67 1.27-2.6 5.95-5.73 1.71-1.4 2.17-.26.26-.55-1.25-2.31-2.08-.23-1.71 1.02-1.23-4.12.48-.98 2.3-.38 1.1-.49 2.15.7.25-.78-.62-2.48-.8-1.8 1.54-.67 1.73-.12 3.34-2.94.42-.17 2.98 1.12.7.94 1-2.35 1.14-1.95.04-2.6.44-1.03-.27-2.74.64-2.84 1.65-4.03 1.66-2.06 1.56-2.6.99-2.23.62-.7 1.56-.37 1.78.1 1.73-.45 1.8-.11 5.43-1.37-.6-.95 1.05-.84 1.57.04 2.37-.7.86.65 1.71 3.23-.01 1.8-.38 1.35.39 1.12.04 1.94-.32 3.56 1.3 2.56-.75 1.72v1.18l1.02 2.48 2.04 1.1.25 2.1 1.55 1.01.31.73-.17 1.7.75.3.6 1.3 1.27-.24.86.55.14 1.9-.62.84.8 1.28-1.03 1.86.08 1.05.21 1.13 2.28 2.4 1.83.7.5 1.2 1.08-.14.33 1 1.2.13 1.56 2.4.44 1.7 7.69-3.68 3.12-6.96 1.28-.32 1.65.44.45 10.06.6.5.68 2.43.98.75-.08 1.46 2.2 1.96.24.75 1.18 1.23 2.45 1.43.6 1.79-.68 1.26.26.54-3.22 1.7-1.7.32-4.56 1.74-1.66.48-5.24.86.74-1.15-.16-1.9-2.08-2.64.14-1.04-1.35-2.15-.68.78-3.49 2.25-1.41.38-3.4-.24-2.49.69-.94 1.74-.26 2.12 1.16.27-.42 2.38 2.5.78-.46 1.8-10 1.8.3.74-1.53 1.45-.54 2.39-.74 1.78 2.04 1.87 1.56 1.91 1.11 2.46-.25 4.03 1.6 2.42.97 2.14-.05.75 2.43 2.34.5 1.85-.06 1.73.4 1.22.77.7.15 2.35.67 1.35-.7 3.2-.03 1.92-.4.78.65 1.95-.24 1.27.8.96.26 2.97 1.32 1.64-5.38-1.1-1.73-5.97-2.57-3.55-1.28-.75-9.92-.2-1.94.11.11 1.61-.37 1.14.58 3.95 1.9 1.3 1.34 2.02.14 1.95 1.14 1.52.7.1.33 2.14.4.47 1.54-.84 1.64 1.11 1.12 2.59.08 2.47.42 2.13-2.93 4.02-4.69.66-.67.4 1.43 1.34-.22 2.55 1.7 1.77-1.36 1.91.45 1.32.31 2.62 2-.07.55.85h-3.73l-.08.52-1.88.13-.04-1.35-.96-.3-1.9-3.97-.64-2.43-.3-2.54-1.13-.16-1.73-3.4-1 1.48 2 1.46-1.33 3-2.62-.81-1.06.72.12 2.64-2.33-.12-.4 2.48 1.69 1.76.86 1.96h-1.66l-1.17.72-.17 1.7-3.03.4.7 3.93.4 1.3 1.25 1.79.88 2.45.22 1.84-.64 4.68-1.78 2.93.1 3.16-.17 1.47 4.77 2.13 1.26.3.4-.87 1.52.05 3.26 2.5-2.87 4.58-.27 1.51.68 1.94.29 1.74 1.05 1.35 1 6.07.04 1.77-8.83.91.32-2.32 1.45-.73-1.04-3.56-3.82.2-1.07 6-5.05-.18-2.58 5.12-1.35 4.87-3.1 3.5-4.5 4.1-2.46-1.21-1.61-1.95-.05-1.16-1.78-.45-.6-.77 1-1.37-.38-1.71-.59-.33-1.85.18-2.3-.68-1.06-.78-.66-1.84-.66-.71.84-.99-.33-.86-1.56-.06-1.25-1.6-1.58-.7-.25-1.9-2.31-2.89.64-.89-1.08-.7.19-.7 1.8-.77.14-1.33 1.73-.74 1.42-3.83-.29-1.24 1.66-1.44-.62-1.34.93-.89-1.05-.5.07-2.86-.68-.15-.46-2.06-1.8-1.84-.5-1.27.13-1.45-.72-1.04.88-.83-.63-1.24-1.57-.58-.18-.78-1.1-1.4.42-1.72.66-1 .96-.01-.49-1.4.5-1.43-.13-1.18.83-.38-1.31-2.52 1.4.03.75-.52-.31-1.2-.92.1-.94-1.13.3-1.47-2-2.97.34-1.57 1.31-1.58-.8-.62 1.94-.89-.37-.8-1.36-.67.16-1.75.72-.86.77-2.11 1.21-.45-.1-.77-1.57-.7-1.17.9-.88-.47.57-2.31-2.23-1.9-.59-1.45.96-.4-.34-2.2 1.17-.5-.38-.87.47-.76 1.61 1.24.4-.17-.58-2.06 1.96-1.2.85-2.1 2.1.36-.74-1.43 1.47-2.53-1.25-.82-.18-.89-.98-1.4 1.21-1.15-1.48-.24-4.3 1.45-2.68-.05-2.25-.67-.53.63-2.2.39-1.73-.5-1.33.58-1.3-.27-1.73.45-.72-.17-.08 9.92-.52.55-12.55.7-20.72 3.41-5.4 1.72-4.72 1.2-1.33-.66-1.56 1.14-.88-.4-2.11-3.58-2.34.57.47.95-.44 3.1-3.17-2.4-.85-1.06.28-.6 2.09-1.14 2.43-4.7.44-.47 2.15-4.2-.2-1.05.73-1.3 11.12-8.98 5.85-2.87-.21-2.19 1.73-2.1.03-1.22-1.88-1.17-2.7-2.13-2.34-2.62.58-2.08.77-1.04-.13-1.43 1.63-.69 1.84-2.35-1.26-2.58-1.1-1.65 4.42-10.77z"/>
    <path region="45" short-name="16" long-name="State Senate District 16" value="1" d="m481.04 146.29 17.4-12.19 4.77-3.75 7.67 10.1 2.75 3.6 9.26 13.19 3.91 5.56 6.93 9.4-1.18.64-3.49.78-1.82.61-2.53-.59-.98.21.48 1.46.66.63 1.99 1 1.18 1.75.87 2.04-4.76 4.3-.67 2.24-2 2.73.24 1.85-.24 1.66-1.42 1.02-1 .23-.61-1.15-.99 1.23-2.13-1.71-.53-.81-.18-2.06.39-3.48-.17-3.23.16-1.27 1.53-1.37.75-1.27.4-3.13-.98-2.57.5-.97-.98-1.5-.83-.28-2.27.06-1.32.56-1.59-.23-1.02-.52-6.18-1.58-.95.15-1.34-.55-1.41-1.42-1.27-.53-.12-1.06.62-1.95-1.93-2.1-1.56-.73-2.81-.76-1.17-.64-.78-1.41-.36-2.7.53-.84-1.3-1.9-2.55-1.46-1.76 1.32-.86-.03-2.11-1.96-.26-1.27.1-1.9z"/>
  </g>
</svg>
