<svg title="Nebraska 2022 State Senate" viewBox="0 0 1000 458.43" auto-border-stroke-width="1" auto-border-stroke-width-limit=".5" original-source='["https://www2.census.gov/geo/tiger/GENZ2022/shp/cb_2022_us_sldl_500k.zip"]' candidates="[{&quot;id&quot;:&quot;0&quot;, &quot;name&quot;:&quot;Democrats&quot;, &quot;margins&quot;: [{ &quot;color&quot;: &quot;#1C408C&quot; }, { &quot;color&quot;: &quot;#577CCC&quot; }, { &quot;color&quot;: &quot;#8AAFFF&quot; }, { &quot;color&quot;: &quot;#949BB3&quot; }]},{&quot;id&quot;:&quot;1&quot;, &quot;name&quot;:&quot;Republicans&quot;, &quot;margins&quot;: [{ &quot;color&quot;: &quot;#BF1D29&quot; }, { &quot;color&quot;: &quot;#FF5865&quot; }, { &quot;color&quot;: &quot;#FF8B98&quot; }, { &quot;color&quot;: &quot;#CF8980&quot; }]}]" version="1.1" xmlns="http://www.w3.org/2000/svg">
  <g regions transform="translate(0 -270.78)">
    <path region="0" short-name="35" long-name="State Senate District 35" value="1" d="m648.25 585.8.32-.99 4.78.06v-2.2l.74-.42.69-.12.76-.44-.01-1.17 2.17.07.04 2.2h2.17l-.01 8.79h-2.2l.01 2.2-2.94.08-.3.37-1.11.5v-1.08l-4.78-.05-.2-.87-.05-5.72z"/>
    <path region="1" short-name="17" long-name="State Senate District 17" value="1" d="m764.48 385.31.03-13.45 11.02.03 13.36.03 8.93.06 6.7-.04h13.38l12.25.04h7.74l-.04-12.35.02-1.01.48-.01.02-6.21-.05-7.31 10.37.05.64 1.67 1.65 1.16.92.25 1.41-.15.78-.37 1.35-1.23 1.68-.72 1.03-.03 1.23.38.74.46.74.76.5.85.55 1.63.84 1.17.83.62 1.35.4 1.6.02 1.8-1.07 1.63-.57 4.13.47 1.51.54 1.17 1.49.53 1.98.14 1.58-.07.8-.41 1.4-.38.75-2.76 3.34-.43 1.64.06 1.06.67 1.85.08.84-1.08 2.7.01 1.11.45 1.25.67.93 1.34 1 1.39.78 1 1.17.62 1.15.17 1.12v1.82l.3.92 1.08 1.46 1.71 1.14 1.16 1.5.41 1.45-.26 1.5.82 1.03-.1.58-.95 1.28-.5.4-2.31.59-.29 1.14.87 1.12.4.89.09 1.24-.35 1.43.29 1.64 1.12 1.48 1.38.88.73.75.65 1.6.43.58 1.03.69 1.76.37.74.33.79.79.57 1.25.08 1.08-.12 1.1-1.04 2.27-.27 1.13.08 2.1.63 2.02-4.17.1-.03 4.84-8.71-.17-8.53-.11-2.57.14-8.23.04-.08-11.41-14-.02-7.72-.02-18.04-.04-19.36-.01-11.82-.02-15.32-.03h-6.69l.02-2.22v-11.2z"/>
    <path region="2" short-name="43" long-name="State Senate District 43" value="1" d="M62.71 270.93h11.5l9.14-.02 21.91.02 15.14.05 23.84.07 11.2.02 13.51.03 10.14.02h15.19l31.1.03h26.59l15.6.43 10.08.06 14.3-.14 8.94-.03 22.2-.09 21.14-.01 4.88.07 4.81-.04 8.06-.02 2.34-.06 13.67.02h13.29l.72-.07 8.26-.02 2.15-.05 7.04-.04 14.1.09 17.27.03 8.18-.03 10.58.05 8.37.01 4.9.04 7.81-.01 5.69.03 3.63-.03 7.92.04 14.86-.02 8.58-.02 2.62.03 14.19-.04 17.39.02 3.87-.06 2.9.03h13l14 .03 11.27-.02 15.52-.05h19.1l.32 1.64.6 1.58 1.32 2.25 1.33 2.5 1 .65 1.32 1.29.13.7.7.38 1.01-.51 1.17-.07 1.47.96 2.45 1.15 1.27.82 1.98.88 1.78 1.04.76.81.26.64.88.8 1.84.6-.07 1.99.01 13.29h.6l-.02 3.64-1.15-.37-.48-.42-2.42-.68-1-.01-1.2.48-1.56-.2-.81-.51-1.97-.36-2.08-.18-1.45.15-.6.82-1.36-.1-1.96.6-.76-.13-.7-.47-1.63-.4-1.85-.06-.59-.27-.84.26-.62-.44-.81.2-.49-.44-1.49-.65-1.12.03-1.04.4-1.87-.13-1.28-.74-.93-.73-1.95-.93-1.01-.22-1.17-1.1-2.02-.85-2.03.99-1.7-.25-2.16.15-1.67-.71-1.46-1.25-.88-.38-2.27-1.49-1.79.08-1.23.45-.86.02-2.41-.9-2.5-2.4-.59-.12-.99.49-1.33.01-1.86.26-1.26-.68-.87-1.37-1.5-1.07-1.58-2.12-.64-.58-.76-.16-.24-.66-.45-.14-1.02-1.43-.84-.32-2.35-.05-1.61.48-.71.82-.42-.1-1.18.39-1.65 1.48-2.56 1.63-.36.58-1.18.05-.8.34-2.54.6-2.78 1.22-.85.65-1.73.35-1.22.02-1.4.71-1.46 1.22-1.34.3-1.96.7-2.06 1.37-2.69.82-.9.74.03 3.37 1.26.03-.04 11.54.03 2-.01 10.96.05.86.06 15.2-.03 2.37.05 4.34.03 6.77 1.2.02-.01 6.61-.02 20.2-.03 9.1v17.63l13.4-.03h14.4l17.53-.02.55-.04 8.26.01.04 13.55-.02 2.5.04 10.84.03 13.3.06 11.83.08 1.48-12.7-.02-.58.02H582.1l-15.36-.01-2.15-.03h-10.97l-.02 11.03.01 6.05-.04 19.5.02.1-.02 16.26 1.05.02-.1 11 .05 5.79-.07 3.03-.12 12.74-.13 8.64-.12 11.57h-10.87l-14.11.08-10.88.03-16.52-.04-1.29.02-10.37-.05-8.66.01-3.67-.07-9.43.01-4.27-.05-2.37.08-3.58.01-8.8-.03-11.44.06-1.6.01.07-13.11v-4.4l.13-2.18.25-15.37-.06-4.42-.15-2.38.04-2.17-.09-6.47.05-2.22h-1.71l-.11-9.33-.05-.44-.04-16.7v-8.89l.19-17.6h-1.63l-.12-15.41.05-5.29-.03-4.8-.2-25.54.05-2.17-12.33-.1-29.9-.05-6.67-.07-13.34-.08-7.26-.02-1.5-.13-54.99-.46-.69.04-5.84-.07-5-.02-19.5-.19-9.88.02-14.63-.11-2.33-.08-14.97-.24-.24 13.45-6.65-.04-19.76.14-1.25.03-26.32.08-8.43.08-7.32.12-9.1.22-.1-3.36-.38-3.8-.03-6.38-4.56.05.05-8.14-.21-10.22-.32-5.95-.14-8.52v-7.25l-.44-.8.08-5.46.07-.18.09-7.18h-2.74l-15.7.21-10.27.12-12.96.04-.1-.02H86.18l-1.53.03-12.25.03h-6.82v-4.49l-.03-8.23v-13.12l-.06-8.5.05-9.1v-10.57h-2.6l-.1-14.63z"/>
    <path region="3" short-name="12" long-name="State Senate District 12" value="1" d="m905.06 544.51 1.4.72 11.71-.04.01 4.7h-6.58l-4.37.02-2.2-.03v-1.11l-1.3-.24-.91-.86h2.22z"/>
    <path region="4" short-name="33" long-name="State Senate District 33" value="1" d="m530.14 628.58.6.48.9-.23 3.22.74 2.25-.53.52-.27h1.5l.7-.27 1.73.38 1.62.69 1.2.25 1.94.14 1.27-.16.43-.26.78.17 1.08.6 3.71-.19.92-.2.92.27 1.55-.18 1.38.43 1.33-.24.57.16.78.26h1l2.71.38 1.74-.25.58.12 1.26-.2 1.98.27.94-.07.53.25 1.3-.19.93.41 2.96-.07.56-.1.78.23 2.56-.74 1.77.3h1.07l1.38.23.67-.2.92.26.47-.11 1.45.17 1.52-.26.26-.35.99-.17.48-.36 1.25.15 1.93-.86.96-.75.93-.04.77-.68 1.04-.16 1.58.02.63-.52.82-.24 1.08.07.68-.36 1.82-.2 1.24-.72h1.02l.7.2 1.08-.35v-1.38h.33l19.16.04 20.1.04 10.9.01h.54l-.02 13.12v13.13l.04 18.5-.04 1.7.02 5.9h-11.92l-13.05-.02-18.43.02h-14.08l-15.4-.01-17.27-.03-12.92-.02-16.27.01-.1-3.82-.04-10.4.07-7.67-4.36-.05-4.32.13-4.31.03-6.55-.07.05 19.74-2.27-.02v1.3l-.5.78-14.32-.03-.2-9.72v-9.8l-.05-5.47.07-1.16.06-19.64-.02-4.41 2.42-.18 1.72.47.8.48 1.92.4 1.03-.06 1.74-.48 2.18.07 1.33.78 2.09-.3 1.37.33 1.94-.1 1.86.13.38-.22 1.98-.26 1.31.7 1.05-.01z"/>
    <path region="5" short-name="38" long-name="State Senate District 38" value="1" d="m504.42 676.66 14.31.03.52-.78v-1.3l2.26.02-.05-19.74 6.55.07 4.3-.03 4.33-.13 4.36.05-.07 7.68.03 10.4.11 3.81h16.28l12.9.01 17.28.03h15.4l14.08.01 18.43-.02 13.06.03 11.9-.02-.01-5.9.04-1.7-.04-18.49v-13.13l.02-13.12h23.68l12.79-.03h15.36l.03 19.65.04 19.63.01 13.07.39.07v26.03l-.03 15.22-.06 10.84-12.61-.01-19.2-.03-10.73-.05-6.46.04-2.74-.03-13.48.02-19.3.02-1.67-.03h-7.49l-1.34.03-4.32-.04-2.3.05-14.19-.03-11.47.03h-20.44l-6.44.04h-26.71l-2.3-.05-6.54.05-2.4-.02-14.48.03h-13.53l-1.16.08-2.15-.05-4.32.04-13.38-.02-2.03-.04-4.9.04H441l-22.08-.04h-9l-20.2-.01-4.35-.06-4.3.03-4.32-.04V716.2l.04-10.34-.29-2.79.04-6.98.26-19.18H380l9.28-.03h6.67l4.37-.05h5.96l.2-.03 15.06-.19 4.25.11 2.26.13 4.7.1 3.16-.08 4.97-.04 11.78-.18 22.71.02 13.1.01 6.36-.03z"/>
    <path region="6" short-name="6" long-name="State Senate District 6" value="1" d="m905.02 534.47 4.37.01 3.36 1.05 2.14.02h.55l.05.75.72 1.46 1.96.1v1.56h.85l.1 1.65h-.95l-8.77.02v-2.2h-2.17v-2.2l-2.2-.02z"/>
    <path region="7" short-name="40" long-name="State Senate District 40" value="1" d="m656.79 289.4 1.4.39 2 .79 2.48.09.97.4.34.54 1.7 1.13 1.4 1.24 1.74.99 1.69.81 2.13.7h.9l1.16-.3.7-.12 1.04 1.1 1.01 1.8 2.44 1.65 1.5 1.77 1.35.77 1.76 1.5.51.56.36 1.3.93.63.8.11 1.1.6 2.52.3.83-.3.62.15 2.6-1.04 1.78.19 1.36-.15 1.96-1.33 1.32-1.58.63-.25 1.25-1.4 1.21-1.99.67-.87 1-2.83.1-1.29.35-.63-.13-1.04.2-.68 1.1-.64 2.33-.76 1.92-.17 1.3 1.1 1.8.59 1.48.72 1.6.56 1.11.1 1.65-.06 3.41.33 2.23.56 1.66.22 2.08-.1 1.2-.25 2.56-1.06 1.73-.8.97-.28h.92l1.35.7 1.99.66 1.44.33 1.65-.08 1.79-.32 1.82-.57 1.27-.74.98.82 1.3.45 1.64-.02 1.01.2 1.1.5 1.12-.04 1.18-.83.74-.8.26-.7.7-.74 1-.38 1.04.55.6.1 1.98-.16.92 1.06 1.04.56 2.1-.16 1.2-.4.5-.45.95-.3 1.3-.68.52.3 1.4 1.59 2.5.45 2.22-.44 1.9.64 1.5.85.17.37-.1 2.17.5 1.47.09 1.11.34.58 1.1.6 1.47.1 1.78.3 1.34.5 1.1.64 1.43 1.9.43 1.38.36.4 2.25.4 3-.1 1.55-.35 2.25.33 2.17.66.95.54 3.67.46 1.21-.16.79.34.73.63.88 2.13v.63l-.53 1.48.27 1 .87.23 2.1-.07.47-.65 1.73-1.25 1.31-.3 2.28 1.33 1.61.17 1.41.52 1.95 1.36 1.59.56 1.15.1 1.51.57.53.83.16 2.25-.22 1.88.13.39.89.58 1.72.47 1.61.16 1.47-.37.5-.3 2.16-.1 3.47 1.2 1.14.94-.16 1.4-.4.33-1.68 2.6-.46 1.23.03 1.44.53 1.35 2.36 3.33 1.12.99 1.97.8 1.21.86 1.16 1.39.53 1.82v1.28l.21 1.19-10.37-.05.05 7.3-.02 6.22h-.48l-.02 1.02.04 12.34h-7.74l-12.25-.02-13.38-.01-6.7.04-8.93-.06-13.36-.03-11.02-.03-.03 13.45-13.37.07-13.3.05-6.7-.03-20.02.09v10.07l.02 16.68.04.2.05 13.18.07 13.4-8.89.03-17.6.14-17.66-.01-8.71.05v-15.6l.02-11.16-9.71.03H623.35l-18.18.02h-8.26l-.55.03-17.52.02h-14.42l-13.39.03v-17.62l.03-9.11.02-20.2.01-6.6-1.2-.03-.03-6.77-.05-4.34.03-2.36-.06-15.21-.05-.85.01-10.97-.03-2 .04-11.54-1.26-.03-.02-3.37.9-.74 2.68-.82 2.06-1.36 1.96-.71 1.34-.3 1.45-1.22 1.41-.7 1.22-.03 1.73-.35.85-.65 2.78-1.22 2.54-.6.8-.34 1.18-.05.36-.58 2.56-1.63 1.65-1.48 1.18-.39.41.1.72-.82 1.6-.48 2.36.06.84.3 1.02 1.44.45.14.24.66.76.16.64.58 1.59 2.12 1.49 1.07.87 1.37 1.26.68 1.86-.26 1.33-.01 1-.49.59.11 2.49 2.41 2.41.9.86-.02 1.23-.45 1.8-.08 2.26 1.49.88.39 1.46 1.24 1.67.7 2.15-.14 1.7.25 2.04-.98 2.02.83 1.17 1.11 1 .22 1.96.93.93.73 1.28.74 1.87.13 1.04-.4 1.12-.03 1.5.65.48.45.81-.21.62.44.84-.25.59.26 1.85.06 1.62.4.71.47.76.14 1.96-.6 1.35.09.6-.82 1.46-.15 2.08.18 1.97.36.81.5 1.56.21 1.2-.48 1 .01 2.42.68.48.42 1.15.37.02-3.65h-.6v-13.28z"/>
    <path region="8" short-name="1" long-name="State Senate District 1" value="1" d="m867.87 611.51 13.02.02 2.1.05 10.9-.03 13.16-.06h26.15l6.66.05-.3 1.1-.68.82-1.14.82-1.97.9-1.03 1-.53.79-.58 1.74-.02.67.65 2.15.7.5 2.02.94.78.87.53 1.22.22 1.75.37.77 1.22.95 1.05.6 2.13.35 1.7.83 1.51 1.8.56 1.21.15 2.26.64 1.1 1.5 1.21.3.86-.15.95-.36.63-1.43 1.15-.9 1.06-.13.7.33 1.11.77 1.4.16 1.29-.64 1.75.27.77 1.12.84.96.25 1.3.05 1.7-.63.94.14.65.85 1.3-1.04.25-.7-.26-.58.07-1.23.29-1.77.8-.56.96-.29h.8l.71.89.4 1 .7.51.42 1.28-.4 2.2-.68.93-.72.35-2.76 1.03-.9.43.46.94.14.82-.23 2.22.41 1.42 1 .9 1.45 1 .72.83.83 1.4.3 1.07-.08.9-.6 1.93.27 1.09 1.11 1.88.63 1.4.2 1.29-.03 1.26.62 1.27 1.13 1.29.39.93.12.86-.29.98-.98.75-1.62.56-.66.45-.46 1.02.05.74.66.62.71.15 1.03-.3 1.5-.71 1.46-.23 1.35.63.97.99.96.54 1.56.07 1.07.5.62.7.27.77-.06.74-.55 1.54.44 1.33 1 .18 1.04.56 1.2.87.92.3 2.6-.07.84.26.97.77.57 1 .32 1.22-.04.96-.39 1.2-.51.72-.5 1.2-.02 1.25.7 1.54.6.76 1.19 1.16.66.39 1.39.5.74.68.29.86.05 1.02.27 1.15.71.85.64.32 1.1.08 1.25.55.6 1.08.04 1.2-.47.9-1.2 1.06-.34.97.25 1.85-.16.73-.97 1.16-.38 1.13.26 1.57.66 1.5 1.25 1.17 1.27.53.98-.01 2.17-.66h.81l1.18.49 1.18 1.36.89.52 1.2.36.66.57.45 1.4h-7.66l-20.91-.02-13.13-.02-12.75-.02h-11.21l-8.65-.01-10.7-.03-4.35.03h-7.39l-7.94-.03-9.23.01-18.2-.05-.01-10.85.02-15.19.02-10.58-.02-.27-.02-14.1.02-14.15v-11.98l-.03-20.75z"/>
    <path region="9" short-name="47" long-name="State Senate District 47" value="1" d="m.06 270.96 7.08-.17h2.84l4.72.12 12.7-.07 11.3.06 7.1-.07 3.96.12 12.95-.02.13 19.05.1 14.64h2.6v10.57l-.05 9.1.06 8.5v13.12l.04 8.23-.01 4.5h6.82l12.25-.04 1.53-.04 21.17.01.1.02 12.96-.04 10.27-.12 15.7-.2h2.74l-.1 7.17-.06.18-.08 5.47.44.8v7.24l.14 8.52.32 5.95.21 10.22-.05 8.14 4.56-.05.03 6.38.38 3.8.1 3.36 9.1-.22 7.32-.12 8.43-.08 26.31-.08 1.26-.03 19.76-.14 6.65.04.24-13.45 14.97.24 2.33.08 14.63.11 9.88-.02 19.5.19 5 .03-.02 13.23.07.96.02 39.46 2.23-.02-.04 13.34.02 6.65-.03 17.2-.05 15.96h4.66l11.07.08v12.72l-.02.47v15.39l-.07 12.48.02 1.23v10.54h2.3l.03 6.59-13.1-.01-6.58.2-2.42-.08h-4.05l-9.87.06-5.49-.03-6.63-.1h-4.4l-13.02.13-4.4-.05h-19.6l-2.12-.11v.22h-8.37l-19.03.03-10.09-.01-12.4-.03-7.86.04-7.35-.06-3.7.04-9.86.02-3.88-.03-10.54.06-9.04-.05-4.2.03-2.34-.05-8.67.03-26.12.05-6.76.01-1.96-.05v-6.9l.78.02-.05-26.2-.02-11.41.08-1.67-.23-2.33v-11.15h.82l.16-6.58.21-15.88-.29-15.23-.08-8.84-.09-3.86.1-2.9.88-.1-.04-.92-.02-5.72.06-4.48.13-2.1-.04-10.13-.17-16.42-11.07-.2-13.66.16-10.27.15-14.32.15-6.7.12h-2.25l-20.56-.2-.03-13.44.05-5.54-.05-1.9.03-5.08-.05-12.3.04-1.7-.03-37L.1 325.6l-.04-16.26z"/>
    <path region="10" short-name="41" long-name="State Senate District 41" value="1" d="m529.15 571.79 14.11-.07 10.87-.01.12-11.57.13-8.64.12-12.74.07-3.03-.05-5.8.1-11h-1.05l.02-16.28-.02-.1.04-19.49-.01-6.05.02-11.03h10.97l2.15.03h15.36l10.02.01.59-.02 12.7.02-.09-1.48-.06-11.83-.03-13.3-.04-10.84.02-2.5-.04-13.55 18.18-.02H648.72l9.7-.03-.01 11.16v15.6l8.71-.05h17.66l17.6-.13 8.9-.03.04 17.82.07 8.9h.2l-.08 13.25.02 11.1.14 8.7-6.37.05-.1 2.2-6.65.04-6.7.09h-4.37l-.01 2.23-6.67.1.03 2.22-8.8.03-9.89-.06-3.25.04v13.24h.55l-.02 17.37-.02 12.38-.01 17.59-.02 5.5-10.38.03-4.36-.03-.11 13 .04 2.2.02 6.58-2.19.01-.05 4.42 5.27.04 1.35-.09 6.58.2 4.36-.02-.03 16.44v9.85l-10.9-.01-20.1-.04-19.16-.04-.04-15.37h-4.35v4.13l-6.54 2.37v-2.1h-6.54v4.46l-8.7 2.58.01-3.77-4.35-.01v-2.18l-12.29-.05-.8-.09-.01 2.3h-2.18v3.29l-6.54-.02-.04 5.45h2.1l-.08 3.1 1.5.17.26.72.63.46-1.49.57-.57-.16-1.33.24-1.38-.43-1.55.18-.92-.28-.92.21-3.7.19-1.09-.6-.78-.17-.43.26-1.27.16-1.93-.14-1.21-.25-1.62-.7-1.73-.37-.7.27h-1.5l-.52.27-2.25.53-3.21-.74-.9.23-.6-.48.1-4.36h-1.16l-.03-13.1.05-7.63.07-5.45.03-11.53z"/>
    <path region="11" short-name="28" long-name="State Senate District 28" value="1" d="M840.06 606.7h2.81v.35h8.73v2.22h-2.18l-3.26-.02-.44-.56-2.83.03-.03 3.26-2.71-.02-.1-.55z"/>
    <path region="12" short-name="44" long-name="State Senate District 44" value="1" d="m228.94 600.35 26.3.03 12.05.05 5.5-.12.07 2.08.13.48 2.6-.13 1.65-.58.37 2.01.02 1.51-.18.4-.08 7.3.04 2.21-.05 8.58 14.58.23 6.9.08h10.83l8.97.06 12.5-.09 10.98-.14.04.04 6.95-.16.22.05 4.11-.08 8.1-.01 10.67.02h21.47l6.87-.03 19.08.01h18.35l-.06-15.8.01-.16-.09-14.5.03-10.8v-11.12l11.44-.06 8.8.04 3.58-.01 2.37-.1 4.27.06 9.43-.01 3.67.08 8.65-.02 10.38.05 1.29-.02 16.52.04 10.88-.03.06 14.72-.03 11.53-.07 5.45-.05 7.62.03 13.1 1.15.01-.1 4.36-.74-.37-1.05.02-1.3-.71-1.99.26-.38.22-1.86-.13-1.94.1-1.37-.32-2.09.29-1.33-.78-2.18-.07-1.74.48-1.03.05-1.92-.39-.8-.48-1.72-.47-2.42.18.02 4.4-.06 19.65-.07 1.16.05 5.46v9.81l.2 9.72-9.58-.01-6.35.03-13.1-.01-22.72-.02-11.78.18-4.97.04-3.16.08-4.7-.1-2.26-.13-4.25-.1-15.07.18-.2.04-5.95-.01-4.37.06-6.67-.01-9.28.04-3.22-.01-.26 19.18-.04 6.98.29 2.79-.04 10.34v12.67l-20.42.03-14.05-.03-12.4-.03h-14.32l-3.44-.03-9.82.05-13.88-.03h-10.95l-13.88-.02-10.59-.01-7.22-.06-16.87.02-.03-21.71.01-12.1.07-16.37-.06-3.25v-5.46l.04-6.55v-12.04l-.03-2.67.03-16.4.02-15.5z"/>
    <path region="13" short-name="23" long-name="State Senate District 23" value="1" d="m777.57 520.45.1-1.68.01-13.26v-15.5l-.01-11.1.02-13.3h4.37l22.22.01 13.03.03v37.78l.01 6.47h1.85l2.24.54.93.08.88.6 1.43.11.47-.19 2.12.88h1l1.43-.69 1.06.02.83-.57.8-.27 1.07.1 2.12-.03 1.7.72.85.85 1.73 1.39.63.04 1.01.62 2.51-.04 1.94-.5.57-.52 1.2-.51.72.27 3.35-.01 4.04.18 1.17.52 1.2.99 1.94 1.21 1.3 1.1 1.23.61.6 1.16.96.4.42-.53.46.63 2 .01 1.28 1.97 2.27 1.56 1.75.6.46.48.67 1.22.61 2 .25 1.15-.07 3 2.22 1.93.71.21.78.75 1.23 1.58 1.57 3.05-.02 1.36-.72 1.11-.97 2.25.48 2.27.81 1.79.42.5 2.07 1.31.59.84.3.63.35 1.39v1.55l.66 3.43-.39 1.13.04 1.16.91 2.05-.67 1.04-1.08.65-.75.7-.68 1.24-.11 1.36.19.68.84 1.37.67 1.5.66 2.13-3.42.01-.05 4.5-2.18.01-10.9-.13V572l-21.56-.07-18.35-.06-11.21-.03-21.68-.04-17.45-.04-.08-12.2.05-9.94.07-5.5-.16-12.12.05-11.02z"/>
    <path region="14" short-name="8" long-name="State Senate District 8" value="1" d="M917.09 531.34h1.09v2.3l1.08.8h3.3l.3-.01-.07 3.13.2.6.15 1.25h-4.97v-1.54l-1.96-.11-.72-1.46-.05-.75h-.55v-3.3h-1l.25-1.44 1.46.87.53-.34z"/>
    <path region="15" short-name="32" long-name="State Senate District 32" value="1" d="M712.24 624.4h7.52l14.22-.02h9.7l2.18.02h18.57l13.08.02 12.96.01 5.53.04 3.16-.02 13 .06 4.56-.02.04-15.3 13.09.02-.03 2.2-.03 13.13 13.1.04h.09l1.97 6.01.35 1.42.8 1.6 1.57 1.84v.68l.54.66.74-.23 4.35-.05 3.67.02.11 3.34-1.65-.08.05 10.93-12.9.08-8.69.03-8.62-.01-8.72-.07-.12 13.1.02 12.18-.3.85-.03 15.2v22.46l-.07 2.46.1 7.63-.03 4.36-15.24.03-10.09-.07-.52.04h-13.05l-12.87-.08-16.27.02h-18.05l-17.41-.01.06-10.84.02-15.22.02-13.05-.01-12.98-.39-.07-.01-13.07-.04-19.63z"/>
    <path region="16" short-name="27" long-name="State Senate District 27" value="1" d="M829.85 609.21h4.88v1.1h.49l.05-1.32-.87-2.56.18-.18 1.37-2.56 2.51-3.34.08 2.08.94.17-.01 2.6.6 1.5-.02 4.71.1.55.01.63.52.8-.01 2.4.01 2.58 2.18-.16.02 6.37-13.1-.04.04-13.13z"/>
    <path region="17" short-name="2" long-name="State Senate District 2" value="1" d="M849.42 609.27h2.18v-2.22l.06-8.7-.15-.6.46-.32 3.55-2.46.5.28v.95l11.86-.03-.02-19.77 10.9.13 2.18-.02.05-4.49h3.42l.9 1.3 1.6 1.45 1.48.77 2.5.45h1.34l1.14.81.57.93.33.97 1.6 1 1.29-.2 1.12-.63 1.18-.37.82-.6 2.55-1.07.54-.4.99-.26.6-1.02.94-1.07 1.2-1 1.24-1.58 1.1-.74h.75l1.43-.58.86-.14 1.2-.8.8-.31 2.53-.1.68.36 1.6.42 1.26.05 1.28.96 1.13.26 1.17-.53.51-.53.72-.2.91.13.53.3 1.48.04.86-.17 1.53-.15.56.18 1.5-.12.84.14 1.11.78 2.03 2.1.3 1.2-.09.93-.68 1.22-.41 1.2.25 1.2.43.64 1.25.85.94.33 1.24 1.04.6 1.56-.18 1.29-.93 2-.26 1.62.06 1.08.38 1.69.65 1 1.88 1.83.52 1.13.03.64-.3 1.06-.44.66-1.03.73-1.58.43-.6.44-.43.75.08 1.53.66 1.3.47 1.55-.16 1.39-.6 1.28-.17.96.18 1.14.9 1.99.2 1.03-6.68-.05h-26.14l-13.17.06-10.9.03-2.1-.05-13-.02-11.9-.02-6.54-.03z"/>
    <path region="18" short-name="36" long-name="State Senate District 36" value="1" d="m883.47 550 10.64-.05v-4.4h2.15l-.02 3.27 1.1.22-.01.88h-1.1l.04 8.83 14.25-.03.03-2.23 2.28.01.8.39 1.27.73-.02 1.1 1.9-.06 1.42.07v2.2h4.35l.8-.56h1.38V564.22h1.67v1.1l2.71-.03.04 4.63-.87.17-1.48-.04-.53-.3-.9-.13-.72.2-.52.53-1.17.52-1.13-.26-1.28-.95-1.25-.05-1.61-.42-.68-.36-2.54.1-.8.31-1.19.8-.86.13-1.43.6h-.74l-1.1.73-1.26 1.58-1.2 1-.93 1.07-.6 1.02-1 .26-.53.4-2.55 1.06-.82.6-1.18.38-1.12.63-1.3.2-1.6-1-.32-.97-.57-.93-1.14-.8-1.35-.01-2.5-.45-1.47-.77-1.6-1.46-.9-1.3-.66-2.13-.67-1.5-.84-1.37-.2-.69.12-1.35.68-1.24.75-.7 1.08-.65.67-1.04-.91-2.06-.04-1.15.39-1.13-.65-3.43v-1.55l-.35-1.4z"/>
    <path region="19" short-name="39" long-name="State Senate District 39" value="1" d="m879.24 535.52.2-.92 2.52-.08 6.51-.03.85-.45.2-.54-.1-.8.16-.84v-1.73l-.14-1 .02-1.41.8-2.04 7.03-.01.03 4.42 1.02.17.1 2.03h1.65l-.06 1.08-.49.42v.7l.09.75-1.2.35v1.1l-2.2.02.02 2.2h2.2l.03 4.36-2.21.06v2.21l-2.16.01v4.4l-10.64.05-.6-.84-2.07-1.31-.41-.5-.8-1.79-.49-2.27.97-2.25.72-1.1.02-1.37z"/>
    <path region="20" short-name="42" long-name="State Senate District 42" value="1" d="m300.39 411.95 5.84.07.7-.04 54.97.46 1.5.13 7.27.02 13.34.08 6.68.07 29.9.05 12.32.1-.05 2.17.2 25.53.03 4.81-.05 5.29.11 15.4 1.64.01-.19 17.6v8.89l.04 16.7.05.44.1 9.33h1.72l-.05 2.22.09 6.47-.04 2.17.15 2.38.06 4.42-.25 15.37-.13 2.18v4.4l-.06 13.11h1.6l-.01 11.1-.03 10.81.1 14.5-.02.16.06 15.8h-18.35l-19.08-.01-6.87.03H372.2l-10.66-.02-8.1.01-4.12.08-.22-.05-6.95.16-.04-.04-10.99.14-12.5.09-8.96-.07h-10.83l-6.9-.07-14.58-.23.05-8.58-.05-2.22.1-7.28.17-.41-.02-1.51-.37-2.01-1.64.58-2.6.13-.14-.48-.07-2.09-5.5.13-12.05-.05-26.3-.03-.02-15.4-.02-6.48v-.22l2.12.1 19.6.01 4.4.05 13.03-.13h4.39l6.63.1 5.5.03 9.86-.06h4.05l2.42.08 6.58-.2h13.1l-.02-6.58h-2.31v-10.54l-.02-1.23.06-12.48.01-15.39.03-.48v-12.72l-11.08-.07h-4.66l.05-15.95.03-17.21-.02-6.65.04-13.34-2.23.02-.02-39.46-.07-.96z"/>
    <path region="21" short-name="45" long-name="State Senate District 45" value="1" d="m924.74 562.32 1.14.13 1.06-.36-.08-12.23h.93l1.88-.04.58.69.98.34 5.13-.59 1.67.54.7.63.32.89-.07.56-.49.66-.75.2-1.4-.36-.79-.05-1.07 1.25-.25.76.16 1.65.36.9 1.17 2.03.32 1.03.05 2.53.33 1.95-.33 1.22-1.45 1.63-.49 1.4.33 1.07-1.1-.78-.86-.14-1.5.12-.55-.18-1.53.15-.03-4.62-2.72.02v-1.1h-1.66z"/>
    <path region="22" short-name="4" long-name="State Senate District 4" value="1" d="m899.53 534.49 3.3-.02h2.2v2.2l2.2.01v4.41l-3.63.02-.28 1.03-.83-.12.9 1.3-4.91-.05-.03-4.36h-2.2l-.02-2.2 2.2-.02v-1.1l1.2-.35z"/>
    <path region="23" short-name="5" long-name="State Senate District 5" value="1" d="m918.17 543.24 1.14-.5 1.35-.01.02.6.78 1.05h.56v-1.1h1.65l.27-.55h1.5l.73-.2-.24 1.46.47.73-.2 1.1.47 1.07.04 1 .8 1.19.28.77h-.93l-7.02.05h-1.66v-4.71z"/>
    <path region="24" short-name="13" long-name="State Senate District 13" value="1" d="M907.2 519.09h20.85l.27 1.33.67 1.45.06.73-.25.82-1.15 1.1-1.28.61-.52.66v.56l.42.85.7.88.88.8 1.55 1.02 1.36.3 1.66-.15 1.21.32 1.2 1 .4.82.37 1.72-.14.85-.48.78-.63.57-2.3 1.21-1.14-.92.94-2.14-.18-1.12-1.65-.03-.82.4-.25.94v1.1l-.32-.11.01-2.11h-1.12v-.7l-.3-.73-.07-1.3h-1.27v.28h-2.2l-1.1.13-.56.69v1.64h.55v1.1h-3.3l-1.1-.8v-2.3h-1.08v-3.49h-5.28l-.15-.74-.99-1.47h-3.46z"/>
    <path region="25" short-name="16" long-name="State Senate District 16" value="1" d="m771.12 412.15 15.32.04 11.82.02h19.36l18.04.05 7.73.02 14 .02.07 11.4 8.23-.03 2.57-.14 8.53.11 8.7.17.04-4.85 4.17-.09.49.77 1.43.65 1.06-.54.97.08 1.45.9.43.87-.2 1.06-.48.62-1.26.98-.35.82.14 1.17 1.25.76.91-.46.75-1.43 1.05-.4 1.32.1.74.36.51.97-.13.7-.85 1.7.18.57.73.62.8.05 1.05-.4 1.31-.18 1.75.32 1 .53.35.45.03 1-.7 1.99-.83.97-.23.67.13.64.78 1.57-.01.98-.63.83-1.38.46-.55.36-.3 1.27 1.1 1.5.55 1.11.06 1.12.26.87.63.85.96.85 1.65.9.68.93.27 1.3-.35 1.47.38 1.55.44.55 1.13.67 1.47.4 1.3 1.02.55 1.12-.18 1.12-1.27 1.7-.16 1 .07 1.49-.73 1.27-1.47.65-.8.74-.21.97.1.96.33.55 1.72.9.9.64.83 1.4-.4 1.1-.74.54-.93.1-1.67-.37-1.44.87-.42.87.05 1.63.69 1.02 1.73 1.56.5 1.27.05.82-.65 1.82-1.54 1.76-.43 1.01.04 1.13.43 1.18.5.83.9.8 1.47.63.6.64.26 1.38-.41.99-1.01 1.46-.34 1.96.52 1.76 1.07 1.21.98.31.63.74 1.7 1.56 1.49.28.47-.3.83-2.9.3-1.89.86-.73.6-.02 1.01.31.59.58.7 2.45.11 1.74-.58 1.1-1.07 1.1-1 .76-.4.92.89 1.59.8.59 2.5.39 1.08.38.91.58.97.1 1.2-.5 1.56.35.82.68.62 1.19-.03 1.1-1.16 1.6-.28.68.37 2.17-.1 1.37-.7 1.5-.07.5-20.86-.01H883.28l.01-6.63-4.39-.01.02-2.18-2.2-.04v-2.21l-2.2-.02-.03-2.23-2.2.02v-2.22h-1.1l.03-4.44h-1.08l-.04-6.66.02-6.63-.08-11.13.07-8.9-16.51-.05-14.9-.05-21.39-.06-13.03-.03-22.22-.01.1-.87-.03-10.23-.03-4.5-.02-11.12h5.32l-.96-1.11h-.8l-.34-.43.09-1.77 3.32-.03v-3.11l-.6.06-.87-.3-4.86.03-.32-.12v-4.35l-11 .02-.01-14.98z"/>
    <path region="26" short-name="19" long-name="State Senate District 19" value="1" d="m764.48 385.31-.03 13.42v11.21l-.02 2.21.04 6.76-.02 6.63v16.76l.02 23.28-18.8.05-21.05.06-13.03.04h-.2l-.07-8.89-.05-17.82-.07-13.4-.05-13.17-.04-.2-.03-16.69V385.5l20.04-.1 6.69.04 13.3-.05z"/>
    <path region="27" short-name="21" long-name="State Senate District 21" value="1" d="m816.74 571.84 11.2.04 18.35.05 21.57.07v4.4l.02 19.77-11.87.03v-.95l-.49-.28-3.56 2.46-.3-.18.02-2.84-6.56.02-.43.13-1.77 1.45v4.47l-2.16-.06-.02-2.02-1.72 1.29-.56.66-2.51 3.34-1.37 2.56-.18.18.87 2.56-.05 1.32h-.5v-1.1h-4.88l-13.08-.02.03-10.98-.01-13.16z"/>
    <path region="28" short-name="22" long-name="State Senate District 22" value="1" d="m711.6 465.73 13.02-.04 21.06-.06 18.79-.05-.01-23.28-.01-16.76.02-6.63-.04-6.76h6.69l-.07.65.02 14.98 11-.02-.01 4.35.32.12 4.86-.02.86.29.6-.06v3.11l-3.31.03-.09 1.77.35.43h.8l.95 1.11h-5.31v11.12l.04 4.5.02 10.23-.09.87h-4.37l-.02 13.3v11.1l.01 15.5v13.27l-.11 1.67-.92-.32-1.38-1.34-1.62-.84-1.96-.06-2.36.82-1.3.6-1.04-.04-1.07-.5-1.46-.36-.26.32-1.7.38-.78.9-.6.35-2.24.61-1.17.63-.9.17-1.73 1.03-2.99.56-2.2-.08-3.07.56-1.4 1.06-1.98 1.27-.53.46-1.6.97-1.74.51-1.42.12-.03-9.44-12.04.03-.02-8.88.04-11.25-2.34-.02-12.1.12-.13-8.7-.02-11.1z"/>
    <path region="29" short-name="26" long-name="State Senate District 26" value="1" d="M842.87 606.7v-.74l1.4-.01v-.44l.79-.3v-.36l1.1.02v-1.11l-.6-.16v-1.82l.6-.41 3.3-.03.02-2.26.75-.36 1.28-.97.15.6-.06 8.7h-8.73z"/>
    <path region="30" short-name="29" long-name="State Senate District 29" value="1" d="m840.14 611.96 2.72.02.03-3.26 2.83-.03.44.56 3.26.02.02 2.2-.03 2.2-2.17-.01v2.03l-.23.15h-1.96l-4.38-.06.01-2.39-.52-.8z"/>
    <path region="31" short-name="18" long-name="State Senate District 18" value="1" d="m896.32 519.1 10.87-.01.02 6.55h3.46l.99 1.47.15.73 5.28.01v3.48l-.96.01-.53.34-1.46-.88-.26 1.46h-4.49l.02-1.84-2.34-.35h-2.04l-.02-2.22-2.22.01.03 6.61-3.29.02.01-.7.49-.42.06-1.08h-1.65l-.1-2.03-1.02-.17-.03-4.42h1.1l-.01-2.21h-2.21v-4.03z"/>
    <path region="32" short-name="15" long-name="State Senate District 15" value="1" d="m817.31 465.65 21.4.06 14.89.05 16.5.04-.06 8.91.08 11.13-.02 6.63.04 6.66h1.08l-.03 4.43 1.1.01v2.22l2.2-.02.03 2.23 2.2.01v2.22l2.2.04-.02 2.18h4.4l-.02 6.64h13.04l-.15.34v4.03h2.2l.02 2.21h-1.1l-7.04.01-.79 2.04-.02 1.41.14 1v1.73l-.16.84.1.8-.2.54-.85.45-6.5.03-2.53.08-.2.92-1.23-1.58-.78-.75-.71-.21-2.23-1.93.08-3-.25-1.15-.61-2-.67-1.22-.47-.47-1.74-.61-2.27-1.56-1.28-1.97h-2l-.46-.64-.42.52-.95-.4-.6-1.15-1.24-.62-1.3-1.09-1.95-1.21-1.2-1-1.17-.51-4.03-.18-3.35.01-.73-.27-1.19.51-.57.52-1.94.5-2.5.04-1.02-.62-.63-.04-1.73-1.39-.85-.84-1.7-.73-2.12.03-1.07-.1-.8.27-.83.57-1.06-.02-1.42.7-1.01-.01-2.12-.88-.47.2-1.43-.13-.88-.59-.93-.08-2.24-.54h-1.85l-.02-6.47v-19.95z"/>
    <path region="33" short-name="11" long-name="State Senate District 11" value="1" d="m928.96 535.54.1.57 1.2 1.08-.66.17-.84.76-1.8.03H923l-.2-.59.08-3.13h-.3v-1.1h-.55v-1.63l.55-.69 1.1-.13h2.2v-.28h1.28l.06 1.3.3.72v.71h1.13l-.01 2.1z"/>
    <path region="34" short-name="25" long-name="State Senate District 25" value="1" d="M845.05 615.85H847l.23-.16v-2.03l2.17.02.03-2.22 6.53.03 11.9.02v19.69l-6.51-.07-.02-2.17-4.3-.1v-2.17l-8.1.06.1-2.16h-1.82v-4.38h-2.18z"/>
    <path region="35" short-name="20" long-name="State Senate District 20" value="1" d="M907.23 538.89h2.17v2.2l8.77-.02v4.12l-11.72.04-1.39-.72-1.66-1.2-.91-1.28.83.11.28-1.03 3.63-.02z"/>
    <path region="36" short-name="49" long-name="State Senate District 49" value="1" d="m897.33 549.92 7.7-.04 2.2.03 4.37-.02.02 2.2.39.42 1.8 1.3-.17 3.07-.81-.38-2.28-.01-.03 2.23-14.25.03-.04-8.82z"/>
    <path region="37" short-name="37" long-name="State Senate District 37" value="1" d="M609.71 624.35h-.34v1.38l-1.06.36-.71-.21h-1.02l-1.24.72-1.82.2-.68.36-1.08-.07-.82.24-.62.52-1.6-.02-1.03.16-.77.68-.93.04-.96.75-1.93.86-1.25-.15-.48.36-.99.17-.26.35-1.52.26-1.44-.17-.48.11-.92-.26-.67.2-1.38-.23h-1.07l-1.77-.3-2.56.74-.78-.24-.56.1-2.96.08-.93-.4-1.3.18-.53-.25-.94.07-1.97-.27-1.27.2-.58-.12-1.73.25-2.72-.39h-1l-.78-.25 1.5-.57-.64-.46-.26-.72-1.5-.17.07-3.1h-2.08l.03-5.45 6.54.01v-3.28h2.18l.01-2.3.8.09 12.29.05v2.18l4.36.01-.02 3.77 8.7-2.58v-4.46h6.55v2.1l6.52-2.37.01-4.12h4.36z"/>
    <path region="38" short-name="34" long-name="State Senate District 34" value="1" d="m711.66 498.79 12.1-.12 2.34.03-.04 11.24.02 8.88 12.04-.02.03 9.43v2.42l-.84.59-.83.12-2.08.89-1.25.1-.07-.55-1.83.74.22.51-.9 1.03-.47-.52-2.04 1.6-3.37 3.56-2.94 2.2-.36.01-2.42 2.25-2.86 4.4-1.58 1.38.4.65-1.16 1.13-1.92 1.47-.02 5.77.03.61.02 13.19h.2v13.2l.02 13.17.02 7.73.02 18.52-15.26.01-12.79.02h-13.38l-10.3.01h-.55l.01-9.85.03-16.44-4.36.01-6.58-.19-1.35.09-5.27-.04.05-4.42 2.19-.01-.02-6.59-.04-2.18.1-13.01 4.37.03 10.38-.03.02-5.5.01-17.6.02-12.37.02-17.37h-.56l.01-13.24 3.25-.04 9.88.06 8.8-.03-.02-2.23 6.67-.09.01-2.22 4.37-.01 6.7-.1 6.65-.02.1-2.21zm-63.41 87.02.08 1.2.05 5.72.2.87 4.77.05v1.09l1.12-.5.3-.37 2.94-.1-.01-2.2h2.2v-8.77h-2.16l-.04-2.2-2.17-.08v1.17l-.75.44-.69.12-.73.43-.01 2.19-4.78-.06z"/>
    <path region="39" short-name="7" long-name="State Senate District 7" value="1" d="M926.17 542.53v-2.01h.8v-2.37l1.8-.03.83-.76.65-.17.49.44-.73.45-.1 1.51 1.13 3.12.05.94-.48 1.34-1.12 1.8-.3 1.36.48 1.67-1.88.03-.28-.77-.8-1.2-.04-1-.48-1.06.2-1.1-.46-.73z"/>
    <path region="40" short-name="46" long-name="State Senate District 46" value="1" d="m838.46 600.35.56-.66 1.71-1.29.03 2.02 2.16.06V596l1.77-1.45.42-.13 6.57-.02-.02 2.84.3.18-.45.32-1.28.97-.75.36-.03 2.26-3.29.03-.6.4v1.83l.6.16v1.1h-1.1v.35l-.8.3v.44l-1.38.01v.75l-2.82-.02-.6-1.48.02-2.61-.94-.17z"/>
    <path region="41" short-name="9" long-name="State Senate District 9" value="1" d="M918.17 541.07h.95l-.1-1.65h4.12l-.15-1.26 3.97-.01v2.37h-.78v2.01l-.74.2h-1.5l-.27.55h-1.65v1.1h-.56l-.78-1.06-.02-.6-1.35.02-1.14.5z"/>
    <path region="42" short-name="24" long-name="State Senate District 24" value="1" d="m738.15 528.23 1.42-.12 1.74-.51 1.6-.97.53-.46 1.99-1.27 1.39-1.06 3.06-.56 2.21.08 3-.56 1.72-1.03.9-.17 1.17-.63 2.23-.6.6-.35.8-.9 1.69-.4.25-.32 1.47.37 1.07.5 1.05.04 1.29-.6 2.36-.82 1.96.06 1.62.84 1.38 1.34.92.32-.03.53-.05 11.02.16 12.12-.07 5.5-.05 9.95.08 12.2 17.45.03 21.68.04.04 13.21.01 13.16-.03 10.98-.04 15.3-4.56.02-13-.06-3.16.02-5.53-.04h-12.96l-13.08-.04h-18.57l-2.19-.01h-9.69l-14.22.02H712.14l-.02-18.52-.02-7.73-.01-13.17-.02-13.2h-.19l-.02-13.19-.03-.6.01-5.78 1.93-1.47 1.15-1.13-.4-.65 1.6-1.39 2.85-4.39 2.42-2.25h.36l2.94-2.21 3.37-3.55 2.04-1.6.48.5.9-1.02-.23-.51 1.83-.74.07.55 1.25-.1 2.08-.9.83-.11.84-.59z"/>
    <path region="43" short-name="31" long-name="State Senate District 31" value="1" d="M896.26 545.54v-2.21l2.22-.06 4.92.04 1.66 1.2-.02 3.16h-2.22l.91.86 1.3.24v1.11l-7.7.04v-.88l-1.09-.22z"/>
    <path region="44" short-name="48" long-name="State Senate District 48" value="1" d="M.11 492.97.06 484 .1 467.1l-.03-23.33.03-17.88 20.56.2h2.24l6.7-.13 14.33-.14 10.27-.15 13.66-.15 11.07.2.17 16.41.04 10.12-.13 2.11-.06 4.48.02 5.72.04.91-.89.11-.09 2.9.1 3.85.07 8.85.3 15.23-.22 15.88-.16 6.57-.82.01v11.15l.23 2.33-.08 1.67.02 11.41.05 26.2-.78-.01v6.88l-1.66-.04-2.85.08-7.4.01-1.23.05-10.77-.02-18.17-.05-12.34.06-4.32-.01-1.16.05-12.8-.03-4 .03.02-2.52v-14.62l-.05-6.5.1-17.94.02-.45-.02-7.97.05-11.75-.02-1.55z"/>
    <path region="45" short-name="3" long-name="State Senate District 3" value="1" d="m919.85 549.9 7-.04.09 12.23-1.06.36-1.14-.13-.01-1.95h-1.39l-.8.55-4.34.02v-2.2l.08-3.85-.08-.58h4.2l-.92-1-.32-1.37z"/>
    <path region="46" short-name="30" long-name="State Senate District 30" value="1" d="m842.88 624.58-.02-6.37-2.18.17-.01-2.6 4.38.07v4.36h2.17v4.38h1.81l-.08 2.16 8.1-.06-.01 2.18 4.3.09.02 2.17 6.5.07.04 20.75-.02 11.98v28.25l.03.27-.02 10.58-.02 15.2.01 10.84h-13.5l-12.9-.04-12.42-.02-12.95-.02.04-4.36-.1-7.63.07-2.46v-22.47l.03-15.2.3-.84-.02-12.18.12-13.1 8.72.07 8.62.01 8.7-.03 12.88-.08-.04-10.93 1.65.08-.1-3.34-3.68-.02-4.35.05-.74.23-.54-.66v-.68l-1.56-1.85-.81-1.59-.35-1.42-1.97-6.01z"/>
    <path region="47" short-name="10" long-name="State Senate District 10" value="1" d="M913.88 532.26h1v3.29l-2.13-.01-3.36-1.06-4.37-.01h-2.2l-.03-6.61H905l.02 2.2 2.04.01 2.34.35-.02 1.85z"/>
    <path region="48" short-name="14" long-name="State Senate District 14" value="1" d="M911.6 549.89h8.24l1.31 2.05.33 1.36.92 1-4.2.01.08.58-.08 3.85-1.42-.08-1.9.06.02-1.1-1.26-.73.18-3.08-1.81-1.3-.4-.41z"/>
  </g>
</svg>
