<svg country="usa" type="oh_upper" date="2022" variant="blank" title="Ohio 2022 State Senate" viewBox="0 0 919.04 1000" auto-border-stroke-width="1" auto-border-stroke-width-limit=".5" original-source='["https://www2.census.gov/geo/tiger/GENZ2022/shp/cb_2022_us_sldl_500k.zip"]' candidates="[{&quot;id&quot;:&quot;0&quot;, &quot;name&quot;:&quot;Democrats&quot;, &quot;margins&quot;: [{ &quot;color&quot;: &quot;#1C408C&quot; }, { &quot;color&quot;: &quot;#577CCC&quot; }, { &quot;color&quot;: &quot;#8AAFFF&quot; }, { &quot;color&quot;: &quot;#949BB3&quot; }]},{&quot;id&quot;:&quot;1&quot;, &quot;name&quot;:&quot;Republicans&quot;, &quot;margins&quot;: [{ &quot;color&quot;: &quot;#BF1D29&quot; }, { &quot;color&quot;: &quot;#FF5865&quot; }, { &quot;color&quot;: &quot;#FF8B98&quot; }, { &quot;color&quot;: &quot;#CF8980&quot; }]}]" version="1.1" xmlns="http://www.w3.org/2000/svg">
  <g map-type="regions" transform="translate(-40.48)">
    <path region="0" short-name="21" long-name="State Senate District 21" value="1" d="m733.8 114.21 2.43-2.37 4.6-5.4 2.68-2.33 3.06-1.08 3.71-2.29 2-1.62.03 7.29.12 5.6-1.57-.03v.79h-1.56l.03 2.74h-2l-.5.86.18 3.12-3.13-.01.16 4.2 4.3.2-.01 1.92 4.07.04.06-9.2 8.66.02-.4 8.86-3-.02-.01 2.37h-2.46l.05 3.05.3 2.5.71.08-.48 2.8-1.81-.02-1.22 2.5-.22 3.75-.66 4.39.37 1.9-1.2 4.15h1.22l-.04 5.25-8.26.02.01 4.16h-5.6l-.55 1.25.02 2.94h-2.05v2.12h-1.52l-.49.8-2.08.02-.71-.91-6.4-5.3-1.46-2.47-1.75-.03-1.08-.67.52-1-.51-1.17 1.02-4.64-1.17-.62-.03-2.61-1.29-.21-.02-2.53-1.34-1.35-.04-4.22 3.22-1.15 2.15-.32.73-4 3.39.12 1.99-.21.55-2.09h.84v-2.12h-1.46l-.03-4.14h1.45v-4.05l8.02-.14.86-.78-.99-1.66-1.99-1.67-.15-1.94-2.35 1.11.03-1.5.74-.5-.02-2.03z"/>
    <path region="1" short-name="26" long-name="State Senate District 26" value="1" d="m315.53 448.71 1.67-19.24 1.02-10.88 21.7-.32.65-2.85-.61-14.47-.3-5.5-.08-7.77.1-8.83-.01-11.68-4.37-.22.02-4.11-4.1.01-3.95.2-3.81-.01v-8.17h-.24l.04-20.18.07-4.5-4.18-.06.24-24.57 8.12.05-.01-12.28 4.08-.04-.03-12.21 8.02-.06-.08-6.18-.04-18.58-.08-12.4.04-12.42.26-24.77.54-24.82.4-24.7.17-20.59 16.16-.27.17 12.46 12.04-.12 21.21-.14v.16l24.6.2 6.16-.11-.2 1.96 1.78-1.02 1.18.28.34 1.68 2.08.71.68 1.05.12 3.4 1.93.31.45-1.17-.79-1.41 1.53-1.26.57-.98 1.5-.47-.03-1.3 2.1-.66 1.14 1.27.77 2.33 1.52 1.98.75 2.43 3.23 1.83 2.52-.26 1.05.45 1.08-.87 2.16-.98 1.74-1.59h11.59l.96 27.88.73 24.5.7 22.39.81 24.68.69 23.78 7.07.13 15.3.14.13 18.45-.16 24.63-.26 13.58-.22 23.69 21.36.5.22 12.2-4.02-.08.19 8.22 4.13-.02-.1 3.65.35 20.95-4.1-.04v7.84l2.05-.27-1.05 16.76-.58 12.86-1.21 20.35-26.13-1.57-21.33-1.28-13.03-.81 1.03-15.96-10.33-.6-1.03.15-9.43-.64.28-4.18-19.85-.9-9.97-.53-6.73-.46-12.12-.97-.12 7.09-.08 10.38-.01 11.89.07 15.98.17 10.6 16.26.05.53 28.3-.08 10.06-14.77-.33-8.95-.28-23.79-.32-23.74-.3.22-4.08 1.75-27.8-2.31-.14-9.84-.94 1.82-21.54z"/>
    <path region="2" short-name="25" long-name="State Senate District 25" value="1" d="m435.44 524.65 1.78.12 1.88 1.58 1.26.05-.13 2.35 1.73.82 1.1 1.33 2.99.68 3.16 1.64.58.86 2.36.16.75-.78 1.03 1 2.67.16-.06 1 1.35.06.1-1.92 1.65-.04.16-1.3.68-.69 1.26.09-.13 2.15.55 1.05.66 2.6 1.84-.22.55 2.07-.88.07-.99 1.75-.47 3.23-9.7-.55-.37.89.18 1.98-1.89.28-.92 3.35-.11 3.68.76 2.87-1.66.32-2.79 2.14-2.1 1.14.1-1.99-2.03 1.2-2.55.14-9.48-.59.31 5.57-.16 1.75-1.56 1.3.22 1.48-3.37.15-.98.3-.78-.95-1.55.57-.1 1.78-2.57.4.82 1.26-3.77.59-.66-1.47-.56-2.95-2.67-.87.03-.67-2.03-.54.41-.8-.52-1.65.9-.4-1.3-2.83 2.6-1.36-1.2-2.02-.87-.62-.8-1.43-.52-1.82.21-1.82-1.09-7.7-1.38-2.03 1.65-.5.36.63 2.17.24 4.65 2.29 3.23.08.5-.37 2.82.27-.34.9.28 2.03 2.75.05-.4-2.36 5.99.45 1.56-.4 1.73.11-.11-3.22-4.74-.3-.23-4.13-.49-3.3 3.37.2.34-2.6.5-1.38 2.13.1-.52-2.14z"/>
    <path region="3" short-name="1" long-name="State Senate District 1" value="1" d="m43.51 80.6 11.97-.61 8.81-.25 29.04-.83 28.79-.83 16.56-.49 23.68-.88 24.63-.93 24.58-1.06 4.39-.05 21.17-.9 4.14-.03.42 17.83.22 11.5h-1.08l-.1 29.02v16.37l-.07 12.54-.06 16.34.03 8.24.24 20.78.04 8.27.2 16.52 32.9-.2 16.63.25 14.41.13 7.95.25 9.56.16 7.53-.2 9.32-.1-.04 12.43.08 12.4.04 18.57.08 6.18-8.02.06.03 12.2-4.08.05.01 12.27-8.12-.04-.24 24.57 4.18.06-.07 4.5-.04 20.18h.25l-.01 8.17h3.81l3.94-.19 4.11-.01-.02 4.1 4.37.23.01 11.68-.1 8.83.08 7.77.3 5.5.6 14.47-.64 2.85-21.7.32-1.02 10.88-1.67 19.24-3 1.1-1.14-1.33-13.07-.87-.04.5-9.5-.63-15.37-.92.33-4.45-8.34.91-.04.88-20.84 2.58-.93 12.4-13.84-1.1.46-1.4-14.96.13-.48.08-.1-6.08.63-.08-.1-25.95 1.84.03-.02-14.66 18.23-.06 6.1-.93-.07-15.54.1-39-.04-24.69-.08-28.4-12.25.05-12.28.12.02 4.18-5.39.05-19.05.04-.09 2.95.08 9.41-24.63.48v-.23l-5.96.1-15.05.1-3.7.09.09 12.13-12.24.05.13 36.96-12.7.01v-12.24l-24.63.1-13.44.09-11.7-.02-24.14-.13-.09-10.53.08-9.9-.16-34.46-.08-18.86-.01-28.35.03-9.1-.12-5.42.08-6.85-.02-24.96-.14-44.32.05-7.76-.17-26.98-.24-23.68.03-5.51-.11-12.07z"/>
    <path region="4" short-name="30" long-name="State Senate District 30" value="1" d="m625.89 635.51.76-12.03 12.02.83v-.3l11.9.9 7.87.2 7 .35 31.03 1.73 11.2.57.7-24.21 2.45.17 21.88.81.37-16.3 18.4.67v-2.56l.32-5.57-2.13-.05.6-16.48-3.09-.22.06-2.01-5.05-.2.34-12.17.26-6.3-.03-2.83.26-3.6.66-19.63.93-18.74 8.02.29 31.84 1.07.57-20.74.17-4.52 12.66.25.35-11.78.53-14.99.27-9.7 12.3.53.02-.53 4.54.1 19.43.7v.48l21.43.81 12.37.37.37-12.25 3.33.1.15-3.06.32-12.43.31-9.33 12.26.25.33-12.37 6.72.24 17.83.44-.05 3.84 16.96.23.22 2.49 3.1 3.12 4.13 6.7 1.2.83 1.13 4.3.9 5.18 1.9 3.52 2.11 1.95.94 3.15-.75 3.65-1.3 2.42-.1.87-1.35 2.5-.39 2.35.26 7.16-.73 1.12-2.75 1.12-1.18 1.52.61 1.56 2.47.88 2.03 1.9.45 1.52-.24 2.13-.66 1.9-.21 2.11.42 1.9 1.7 3.65.63 2.86-.64 2.97-.79.9-1.77 3.33-.4 1.88.12 3.64-.66 1.98-.69.96-3.12 2.1-1.6.84-1.6 1.76-2.02 4.25-.59 2.97-.81 5.45-.96 2.05-2.9 3-3.94 7.5-1.16 4.61-.11 3.65.82 4.02-.75 3.15-.6.76-3.78 2.9-1.3 1.8-.38 1.22.32 2.99.85 1.73.47 2.68-.13 3.26-.37 1.15-.88 1.61-.1 1.9-.57 1.55-.33 2.67.71 5.73-.3 4-1.31 1.26-2.62 1.95-1.04 1.6-.24 1.92.68 4.88 1.15 3.5-1 2.13-1.63-.2-3.12-2.1-2.75-.7-1.64.25-.9 1.07-.35 1.28.05 1.98 1.43 3.23 1.78 2.46.82 2.93-.63 2.37-1.45 1.35-3.53 1.63-1.68 1.64-.57 1.53.15 1.63.8 3.01.07 3.7-.83 3.64-1.98 2.2-5.92 4.3-.7.97-.77 2.27.98 2.86 2.27 2.97 1.84 1.32 2.03 3.86 1.08 1.24.38 2.12-.88 2.32-2.32 1.12-1.55.25-2.08 1.37-.87 1.98-.19 2.22.24 4.37-.23 2.81-.68 1.59-.26 2.2-1.06 3.3-.93 1.76-2.53 1.1-3-.46-2.43-.08-3.35 1.08-2.24 2.19-5.7 4.65-3.7 3.57-1.27 1.67-3.2 2.34-3.25 2.9-1.34 1.97-3.15 2.47-1.51 1.94-3.98 3.69-1.14 1.75-3.3 3.51-2.02 2.72-2.9 5.78-1.5 2.36-1.52 2.32-2.05 1.55-3.07.16-3.87 1.11-1.99 1.12-1.28 1.22-1.02 1.98-3.1 3.53-1.2 2v1.78l-.48 1.79-.9.85-1.34.42-3.9-1.17-1.55.08-2.29.91-2.33.22-2.29 1.84-3.44 1.35-4.72 3.62-5.97 4.28-2 .72-4.07.41-1.84-.48-1.43-1.49-.99-1.86-2.3-9-1.3-1.8-3.4-2.97-1.5-.86-2.32-.52-2.05.3-2.48 1.52-1.16 1-3.4 4.45-3.01 3-4.52 3.2-2.17.94-1.68 1.48-3.25 3.9-.45 2.2-.1 3.57-1.05 6.63-.04 4.88-1.07 2.35-3.27-.3-2.05-1.28-2.84-.73-2.75.66-4.67-.98-2.77-.04-3 .38-1.75.61-2.38 2.13-1.47 2.48-.13 2.3.27 1.62.75 1.86.19 2.25-.7 1.06-1.35.9-5.01 1.2-1.2 1.27-.72 1.66-.52 2.64-1.23 1.84-1.78.86-1.26 1.52-.1 1.02 2.48 7.95.01 5.95.52 2.77-.17 2.8-.92 3.09-1.09 1.51-2.67 2.18-2.29.99-1.26.08-1.99-.47-1.58-.85-2.07-.3-1.28 1.3.1 3.68.37 1.73 1.77 3.28.64.74 2.95 2.31 2.93 2.86 1.84 3-.2 3.49-1.45 1.58-1.02 3.21.21 1.21-.88 2.2-.42 2.15.64 2.48 2.51 2.63 1.3 2.29 1.04 1.22-.82 2.12-1.33.8-1.69-.01-2.46-.89-2.3-1.73-2.08-2.64-1.73-1.12-2.3-.12-1.4.8-1.4 1.8-1.37 2.3-.33 4.28.16.85-.71 2.39-2.2 3.08-3.4 2.47-3.07 1.9-2-.09-2.5-1.3-1.2-1.36-2.37-2.01-.3-1.04.37-1.63 3.14-3.91.77-.5 1.8-2.2.31-1.16-.45-2.21-2.53-4.58-1.24-3.37-1.78-3-1.42-2.79-1.84-1.55-2.06-.75-3.48.85-2.07.07-.98-.83-.37-2.69-.7-1.78-1.7-2.9-1.55-1.48-1.8-.53-2.54.12-1.95.65-1.3.87-.92 1.95-.77 3.57-1.26 2.58-3.7 2.62-2.24 1.04-2.07 1.4-.88 1.38-.36 1.76-.86 1.71.73-12.21-30.48-1.82-15.44-.92-2.88-.12.21-3.99 1.75-24.47.33-3.9.66-10.28.73-10.32 8.13.48 1.79-24.6-8.17-.57 1.88-24.65 1.98-24.53 23.55 1.81.6.01 1.75-25 23.85 1.6 1.7.17.43-8.08.36-3.74 2.5-36.59z"/>
    <path region="5" short-name="11" long-name="State Senate District 11" value="1" d="m405.73 68.64 1.09-1.32.47 1.18zm-71.09 9.57 3.37-2.09 1.35 2.4-3.66 2.6-1.43-1.9zm-3.8-.36 2.52-1.37.53 1-2.97 1.65zm-.87 4.76 1.08-.8.96-1.77 2.75.7.69.86 3.5.9 2.92-.5 3.49-.2 2.88 1.8 1.6.13 4.38-.51.46-.8 1.4-.63 1.08-1.93.45-1.95 1.35.8 1.2 1.5 1.31.68 2.57 2.1-.9 1.38.8 1.8 1.3.3 3.6-.03.95.9 8.77 6.2.23.53 6.1 3.94 1.47.4 2.97 1.57 3.82 1.45-27.76.43-15.14.38-9.75.38-19.14.3-.11-5.26 2.07-.03-.04-2.06 4.03-4.27 1.03-.4.82-1.72-1.9.04-.02-.87 1.99-2.75zm-88.7-8.88 4.45-.33 20.62-.65 11.56-.46 5.04-.38 21.39-.82 27.74-1-.12 1.5-1.04.06-1.46 1.38-.85 1.96-.64 3.22-.9.47.22 1.25 1.37 1.14-11.9.25-.19-7.06-.43-.86-2.52 3.9-3.14.12-.33 2.05.06 2.07-2.54 2.63-.42 1.59 3.46-.09.1 6.04-4.46-2.85-.28 1.05-1.31.02-.04-1.47-2-.13-.77 1.12-2.55.97-.1 2.31-6.92-2.02.13 3.36-2.7 2.59-.78.15.63 2.39.06 3.79 9.08-2.84-.03-2.95h3.58l1.4.37 2.69-.54 2.81.14 2.53-1.4.96.35 1.47-.53 1.43-1.16-.22 1.93.3 2.42 1.8.6-.25 3.57-8.49.08-1.17.15-1.8 1.77-.79 1.69-1.28 1.17-1.37 3.4-1.34.8-1.65 2.37-.92 2.05-2.75.2-1.22 2.09-1.03.71-1.56-.25-1.83 1.57-1.67.62-1.24 1.2-3.08.69-3 2.37-1.2 1.31-2.02 3.09-.44 4.8-.51 1.74.45 1.33-1.26 1.98-3.26 1.12-1.62 2.02-1.18 2.76-1.87 1.45-2.22.16-1.79-.38-1.42 1.14.17 1.95-.34.77-2.2 1.29-3.3 2.57-2.36 1.2-2.39.61-1.12.67-2.5.8-.88.78-.98 2.23-2.78-.09-1.18-.46-2.21.53.07-12.53v-16.38l.1-29.02h1.08l-.22-11.5z"/>
    <path region="6" short-name="12" long-name="State Senate District 12" value="1" d="m43.95 473.02-.13-28.45.13-14.32.3-11.02.05-19.8.03-20.44v-23.47l24.14.13 11.7.02 13.44-.1 24.64-.1v12.25l12.69-.02-.13-36.95 12.24-.05-.1-12.13 3.71-.09 15.05-.1 5.96-.1v.23l24.63-.48-.08-9.41.1-2.95 19.04-.05 5.38-.04v-4.18l12.27-.12 12.25-.05.08 28.4.05 24.68-.11 39.01.06 15.54-6.09.93-18.23.06.02 14.66-1.84-.03.1 25.95-.62.08.1 6.07.47-.07 14.96-.13-.46 1.4 13.83 1.1.94-12.4 20.84-2.58.04-.88 8.34-.9-.34 4.44 15.37.92 9.51.63.04-.5 13.07.87 1.13 1.33 3.01-1.1-2.14 25.38-1.82 21.54 9.84.94 2.3.15-1.74 27.79-.22 4.08-1.63 17.9-1.01 10.2-18.81-1.1-6.04-.42-8.66-.79-2.08-.1-16.49-1.35-8.27-.7-14.05-1.01-9.7-.65-2.42-.36-16.11-1.22-.75.04-7.72-.53 1.88-27.95.92-12.22-24.26-1.83-17.66-1.4.1-1.26-6.35.25-8 .19-20.94.32-2.27-.1-8.14.17-.03 2.27-.77 2.27h.86l.52 24.14-26.49.6-2.56.02.15 8.03-12.93.14-5.5-.1-11.74.1-.16-8.05-7.2.02-14.57-.26.14-10.16.46-19.29z"/>
    <path region="7" short-name="13" long-name="State Senate District 13" value="1" d="m516.35 160.94 2.07 1.17 2.65.82 1.58 1.61 2.52 1.44.7-.38 2.48 1.7 5.24 2.67 2.32.44 4.3.04 4.4-1.42 2.3-1.23 3.96-1.77 8.51-5.5 4.05-1.58 1.93-1.5 2.7-.12 1.47-.65 4.5-.2 6.7.55 4.94-.68 2.95-1 6.21-3.89 2.7-2.04 4.97-3.19.12-1.01 1.78-.79.64.32 5.49-1.86 3.91-1.8 3.05-1.19 15.95-5.28 3.8-1.5 3.14-.92 2.99.5.69-.21 5.74 2.72-.25 7.69-.1 17.41-.28 18.7 20.15.17-.24 21.51-4.23.04-4.82-.13-1.4.16h-9.72l-.38 18.72.08 2.58h-21.06l-.39 17.99-20.43-.18-.34 20.85-18.54-.33-6.77-.23-9.95-.07-.31-14.19-.5-3.86-.21-16.6.2-6.63-4.32.02-6.67-.51-1.84.05-29.86.17-10.75-.2-10.5-.07-.12-4.48-1.06-.48-3 .24v-1.6l2.82-.07-.66-1.32 1.75-.46-.3-12.66 12.05.06 9.29.17-.43-20.52-.43-2.13.28-2.25-2.03.2-2.47-1.81-3.53-2.9-2.94-.07-.52-1.74 1.7.03-.1-4.4z"/>
    <path region="8" short-name="14" long-name="State Senate District 14" value="1" d="m214.12 766.35 12.25.89 18.04 1.25-.28 18.81-.1 10.2-.21 10.46-.8 22.8 11.82.3 14.1-.08 9.76-.24 17.11.63 2.89.05 5.4-1.3 15.13-3.28 6.82-1.37 20.93-4.04 15.18.82.34 1.5 1.04 1.79 2.33 1.26 1.95 2.18.56 1.03 2.22 1 1.35 1.63 1.48-.22 2.86 1.43 2.27.05-.09 1.09 2.33 2.17.17.7 2.41.97.4 1.61-.68 2.17-.14 1.76 1.44.88-.9 1.43.55.88 17.67.62 1.59-.04 16.77.3 15.54.46 15.18.8 19.79 1.18 11.47.74-1.09 16.23-.75 4.6.28 4.02 15.96 1 7.68.59-.94 12.12-1 11.57-.48.05-.32 3.97-6.95-.54-1.3 16.18-1.05 3.67-12.28-.69-.5 9.66.82 1.1 1.36 4.26 3.34 7.64-16.15 7.22-.9-.54-4.14-3.68-1.63-2.46-.88-2.5-.96-4.51-.21-3.3.1-3.61-.66-3.91-.83-2.44-1.35-2.43-1.13-1.28-.58-2 .5-4.06.87-3.67.28-2.68-.3-3.07-.9-2.16-.85-1.15-2.08-1.26-1.06-.14-6.3 1.78-4.16 1.86-3.37 2.28-2.1 1.7-2.28.76-1.43-.08-2.82-.85-2.67-.19-3.45.8-1.08.91-1.16 2.04-.84 2.2-2.3 3.42-2.4 1.88-4.25 2.16-3.95 1.03-2.06 1.54-1.17 1.54-1 1.88-.8 3.82-1.87 3.7-1.67 1.81-2.34 1.71-4.73-.1-5.94.68-2-.6-4.12-2.37-2.84-.27-1.9 1.41-1.4.19-1.13.85-.45 1.23-3.85 4.34-1.64.72-1.65-.43-2.03-1.4-1.3-1.63-.55-1.86-.49-3.98-1.12-1.88-2.64-2.24-5.7-3.52-3.87-1.27-5.83-.9-1.74-.54-5.72-.46-2.15-1.05-2.35-.41-3.94-4-3.82-2.51-3.55-1.04-2.64.26-3.41.9-4.23 1.63-4.88 1.11-2.06 1.33-1.6-.3-3.82 1.55-1.55 2.19-.6 1.46-.74 4.86-1 3.23-.68 1.26-1.88 1.08-1.5.32-1.56-.18-3.12-1.22-3.84-2.15-2-.51-1.58-1.4-3.72-.34-5.18-1.14-2.08-1.65-1.06-3.58-.6-3.75-.79-2.93-1.5-1.66-3.35-1.35-3.32-.8-2.6-1.77-1.4-1.62-1.2-5.58-1.26-2.5-1.48-1.47-3.02-1.54-2.98-.87-3.59-.7-4.93-.94-.31-.83-3.32-2.47-3.88-1.03-3.56.07-3.56 1.43-2.27.48-3.64 1.4-4.56 1.22-1.53-.22-4.24.25-4.88-1.3-3.1-1.1-1.46-.96-4.15-1.85-4.45-1.49-9.07-1.65-3.1-1.3-1.96-2.21-1.74-3.51-.66-4.43-.1-2.99.4-5.29-.1-3.14-.45-2.45-2.4-3.79-2.42-4.44-3.83-5.03-1.06-1-1.77-2.92-1.47-3.44-.3-4.67-.62-2.94-1.14-2.88-1.92-2.89-1.34-1.4 1.1-10.7 2.58-22.48.21-4.63.35-1.38 1.05-.7-.9-1.9 1.4-1.69.84-.41.3-1.83 2.03-2.42.35-1.92-1.44-2.4-.93-.27-1.66 1-3.01.32-.9-1.18-.54-2.06-.84-.8.7-.97 1.65-1.27.4-.8 1.64-.2.65-1.14.07-1.63.6-1.01 2.23-.85 2.46-1.8 1.36-1.52.76-.2.42-1.7 12.31 1.02 26.25 2.12z"/>
    <path region="9" short-name="24" long-name="State Senate District 24" value="1" d="m649.8 135.22 3.43 2.76 1.67.83 3.63.72 2.18.13 8.6 1.77 2.85.13 5.72-2.05.98 1-.2 2.66 2.42-.02-.46 1.82-2.14.02-.33 1.64 2.6-.06-.03.84.95 1.5-1.74 1.9-1.03-.5.18 1.94-.3 4.8 1.4.02.4-.84 1.89.14.53-.89 2.5.05-.1 3.75 1.42-.3 3.15-.04-.77.94-.2 12.91-.05 6.38 21.47-.08-.04-9.5-.15-9.99-7.97.2-9.99.09.14-7.66 1.05.09 5.42-5 .09 1.03 3.15 1.35 1.57.36-1.34-2.7 2.6-.04.6-.84 1.53-.03.18-2.3 1.33-.14-.05-.93 4.1-.3 1.06 2.28-2.49.07-1.19 2-.27 3.3 1.39.71-.04 1.54 2.03 1.54 1.77.37.03.69-1.22 1.33 1.81 2.25 1.56 1.29.17 3.03-2.3.09.09 6.22.5 2.01-.03 7.57 4.22-.02-.03 10.71-6.14-.11-.07 10.41-3.15.03-4.2-.02-17.2.22-19.86.4.24-21.51-20.15-.17.28-18.7.1-17.41z"/>
    <path region="10" short-name="5" long-name="State Senate District 5" value="1" d="m42.45 558.3.26-12.24.16-12.21 14.57.26 7.2-.02.16 8.04 11.73-.09 5.51.1 12.93-.14-.14-8.03 2.55-.02 26.49-.6-.52-24.15-.86.01.77-2.27.03-2.27 8.14-.17 2.27.1 20.94-.32 8-.19 6.35-.25-.1 1.26 17.66 1.4 24.26 1.83-.92 12.22-1.88 27.95-1.8 25.63-.85 11.17-1.41 20.03-8.1-.59-1.97-.15-1.44.5.64 1.47-1.36-.12-.1 1.48-1.3.45-.1 1.34-1.34-.06-.55.65-2.59-1.21-2.36.73-1.7-.01-.46-1.5-1.54-.32.98-1.01.2-3.24.95.06-.2-2.75.35-1.43-2.67-.21-.73 1.62 1.34.35-.05 1.7-1.24-.32.27 1.42-1.17 1.61.01 3.04-.35.88.03 2.01.71 1.3-.72 1.84.56 1.4-3.74 2.55-.52-1.51.68-1.19-.78-2.37-1.2-4.66.31-3.65-1.4-.56-.65 1.02-.05 1.56-.83.46-1.75.1.36 2.57.83.94 2.4 1.46.17 2.33-2.71-.02-.82 1.7-1.57.02-.17-1.14-1.85.02-.13 1.95-.96.83h-1.61l-.53-3.3-2.05.01-1.1.36-.44 1.32.08 2.14 1 2.02-3.67-1.41-4.04.09-.06 3.1-1.4.06-.4 2.63 1.89-.02.88-.39v-1.55l1.12-.02.12 1.63 2.06.82-.04 3.08h.96l.44-1.2 1.62-.03-.09 1.41-1.1.13.5 1.75.68.9-2.73.63.28 1.31 4.57.15-1.12 1.77.06 1.17-4.43.37 1.82 1.57-.87 1.28.17 2.62.54 1.43-1.29.05-.5 1.49h-1.3l-1.91-1.47h-1.9l-.08 1.4h-1.24l-1 .76.7 1 1.21 2.92 4.3-.06-.07-4.01 3.76-.04.27 1.76 1.18-.47 1.48-1.56 2.06-.33.62.67-.53 1.56.6.48h2.25l1.05-1.42.98.54 1.23-1-.25 3.87-1.47-.18-.3 3.83-1.16.46.52 3.72-.07 1.38-2.15-.2.09-1.26-.91-.16-.7-2.2-1.66-.29-1-1.03-2.83-.19-1.7.18-1.25-.75-.65.75.7 1.49-.24.9-3.83.32-.03-2.67-1.67.25.06 1.12.9.48-.71 4.66h-.49l-.12 3.46-1.92.01-.13-9.93-32.46.33.2 18.32.15 8.66.2 17.85.72-1.29 2.7-.04.41 1.3 1.72.27-.03 1.94 1.22-.77.15-1.58 2.5.03-1.23 1.94-1 2.54-.58.1-.5 1.77.05 4.25-2.77.11v-1.35l-1.5-.02v1.38l-1.67.05-.08-2.47-1.1-.32-.3-3.75-13.85.27.1 1.44h-.98l-1.22-1.41-14.98.2-2.73.18-10.6.12-2.5-.14-.12-24.73-3.97-.03-8.86.26-1.47-.28-9.63-.02.07-16.96.09-7.48-.07-3.7.1-15.94v-24.37l.31-21.53.32-28.91z"/>
    <path region="11" short-name="7" long-name="State Senate District 7" value="1" d="m135.3 790 .57-2.01 1.02-.88 2.48-.07.29-2.72 1.92-1.03.23-.69-2.15-.5.35-1.8.11-3.45-.43-.65 1-2.21.67-.04-.08-2.75.42-1.32 1.59-.12.63-3.03 2.92.02 1.83.46 1.36-.28-.34-3.07-.95-.3.12-1.42-1.04-.1-1.35 1.01-1.46-.2-1.29 1.1.6-8.14-4.07.28 1.47-21.04 2.05-24.21-.75-.2 1.74-25.05-.2-.43-6.1 1.82-.59-.46-.2-12.66 17-.02 18.01 1.56 18.64 1.58 9.95.8 19.36 1.65-2.64 37.08-1.74 23.31-1.42 17.34-.71 9.18-15.28-1.2-26.25-2.12-12.3-1.02-.43 1.7-.76.2-1.36 1.53-2.46 1.8-2.23.84-.6 1-.07 1.64-.65 1.14-1.64.2-.4.8-1.64 1.27-.71.96.84.81.54 2.06.9 1.18 3-.33 1.67-.99.93.26 1.44 2.4-.35 1.93-2.03 2.42-.3 1.83-.85.41-1.4 1.69.91 1.9-1.05.7-.35 1.38-.2 4.63-2.59 22.47-1.1 10.7-1.4-1.47-2.1-1.49-2.07-1.13-3.08-1.2-5.64-1.05-3.01-.33-1.28.2-3.64-1.8 2.1-1.63 2.17-2.66-1.59-2.3-.25-1.03 1.66-2.1 2.08 1.42.1.6 2.46.2 1.7.47.26-.8.53-5.4-4.2-2.23-.3.89-2.1.36 1.33 1.5-1.1 1.9-.94.21-1.5-.7 1.35-1.72-1.15-.88 2.12-1.86-1.07-1.4-3.45-2.26-1.16.68-1.23-.36-1.42-1.43-2.14-.57-1.88.16-.9.82-.97.06-2.23 1.07-1.36.96-.65-.73.07-1.5-2.98-.25.33-4.19-1.17-.09.08-1.2-1.24-.86 1.15-1.65.51.05 1.85 1.9.05-1.96.71-.28 1.72.85.7-.76 1.65-.22.02.8-.92 1.45 1.08.52 4.6.53 7.55.58 1.9.91-.1 1.36 1.28.13 1.7-.58 1.7.6 2-1.27 2.6-.6 2.4 1.26 2.98-.24.52-2.34 2.76-.16-.42-1.7-3.5 1.95-1.1 1.08h-1.09l-.1-1.24-3.58-.29-1.6-2.33-.4-1.3z"/>
    <path region="12" short-name="9" long-name="State Senate District 9" value="1" d="m135.3 790-.2 2.47.41 1.29 1.6 2.33 3.58.3.1 1.23h1.1l1.08-1.08 3.5-1.95.43 1.7-2.76.16-.52 2.34-2.98.24-2.4-1.27-2.6.6-2 1.28-1.7-.6-1.7.58-1.28-.13.1-1.36-1.9-.9-7.55-.6-4.6-.52-1.08-.52.92-1.45-.02-.8-1.65.22-.7.76-1.72-.85-.7.28-.06 1.95-1.85-1.9-.5-.04-1.16 1.65 1.24.86-.08 1.2 1.17.09-.33 4.19 2.98.25-.07 1.5.65.73 1.36-.96 2.23-1.07.98-.06.9-.82 1.87-.16 2.14.57 1.42 1.44 1.24.35 1.15-.68 3.45 2.27 1.08 1.39-2.13 1.87 1.15.87-1.35 1.72 1.5.7.94-.2 1.1-1.9-1.32-1.5 2.09-.37.3-.89 4.2 2.23-.53 5.4-.25.8-1.7-.48-2.47-.18-.1-.61-2.08-1.42-1.66 2.1.25 1.03 1.6 2.3-2.18 2.66-2.1 1.63-1.26-1.67-.7-4.05.04-3.03-.36-.8.38-2.03-.57-2.2-2.08-3.36-2.15-1.63-1.44-.38-1.81.08-2.22 1.3-1.46 1.65-1.28 2.28-2.64 2.03-2.87.83-1.1-.02-3.56-1.93-2.03-.06-.77.47-1.82 2.52.18-1.8-1.49-.28-.95.63-1.44-.88.12-1.52-2.1-.21-.45.95-1.02-.1-.5-1.05H85.8l.15-1.9-1.8-1.17-.05-.86 1.8-.27.4-2.09-1.12-.84-1.58.09-.36-3.1-.8-.1.22-2.12 1.96.16 1.1-.31.2-1.38.84-.2.17-2 2.2-.6 2-.01.22-3.03 1.36-.95.07-.99-1.28-.08.35-6.05 4.7.36.12-1.68 2.7.16 1.4-1.95 1.24-.3.12-1.7-.97-.13.5-4.33-.52-.53-4.48-.49-.53 1.73.28 4.08-2.25-.04.86-14.53.2-1 2.98.4-.07 1.2 1.14.1.08-1.14 3.54.6-.08 1.86-1.51.87.26.93 1.52.6 2.74-.6.04-1.06 2.45.24 1.47-.7.22-1.71 1.35.1 2.22-.37 1.75 2.35 4.05.46-.18 3.84 1.12.15-.86 1.7-.21 1.23 1.42 2.06-.86 1.95.41 1.12-1.09 2.53-.36 1.72 1 .08.47-1.3 1.52.35.8-1.68.06-1.15 3.99.25.07-.94 1.54.15L128 779l.32 2.1 1.92.85 1.44.15-.75 3.24 1.07-.12-.2 2.85.98 1.52.51 1.64 1.12.48z"/>
    <path region="13" short-name="17" long-name="State Senate District 17" value="1" d="m244.41 768.5 6.68.44-.31 6.18 3.63.13 2.26-.51.4-1.56 1.09-.34-.25-1.53 1.46-1.05.7-2.39 1.06-1.48.56-2.19 12.59-9.75 5.48-4.36 13.63-10.57 9.73-7.32.67-9.93 1.5-23.3.95-12.65-10.25-.88-9.81-.7 1.03-13.45.79-10.96.78-8.9 1-12.92h.43l23.32 1.81 17.43 1.48L351 643l6.43.3 10.87.63 7.14.54-.68 10.19-.47 9.5-1.24 19.9-.67 10.1 23.77 1.23 9.32.42 25.48 1.08 1.72-.1 1.24 1.63-.35 2.93-1.95-.22-1.2.8-.66 2.25 17.41.94 14.05.9 21.58 1.48 1.98-.08 1.85-22.96.11-.88.27-4.06 17.18 1.07 6.36.34.55-12.37 14.66.83 11.28.77 1.24-16.33 8.85.73 27.79 2 13.27.98.48-7.74 1.2-16.58 23.47 1.55 12.56.74 11.96.83-2.49 36.6-.36 3.73-.43 8.08-1.7-.17-23.85-1.6-1.75 25h-.6l-23.55-1.82-1.98 24.54-1.88 24.64 8.17.57-1.79 24.6-8.13-.48-.73 10.32-.66 10.27-.33 3.91-1.75 24.47-.21 4 2.88.1 15.44.93 30.48 1.82-.73 12.22-2.17 3.5-.56 3.57-1.99 3.16-1.68 3.04-3.06 3.27-.45 4 .66 1.76.63 3.31-.5 3.74-.7 3-.6.96-2.97 3.38-3.83 2-2.5.6-1.73 1.78-2.14 1.65-1.7 1.91-.92 2.33.24 3.69.82 1.47 2.02 1.21 1.77 1.7.7 1.45.5 3.09.75 3.19.68 1.93.87 3.75-.55 2.63-1.1 3.23-.14 1.91 1.02 3.73.11 1.97 1.39 2.92 1.5 6.27V941l-1.12 4.24-2.45 2.4-1.08.52-2.43.38-3.63.09-5.08-1.94-3.44.08-2.61 1.23-3.63 4.02-.56 1.72.13 3.39-.51 5.95-1.54 4.18-.24 1.5.2 3.63-.25 2.2-1.37 3.6-.7 4.11-.9 2.79-1.26 2.35-1.35 1.3-2.2.97-4.17.64-4.62 1.04-1.7.12-3.24-1.37-6.3 2.53-5.4 1.47-5.75 1.8-4.51 2-4.68 1.52-4.32.54-2.3-.41-2.36-.12-1.58-.72-1.83-1.35-1.26-1.5v-.98l-.74-1.33-.82-2.92-.71-6.12-.88-2.24-1.2-1.77-2.2-1.4-2.9-1.3-2.29-1.62-1.85-1.76-3.99-5.1-3.04-5.58-2.15-2.3-3.01-1.7-2.3-1.92-1.3-.45-1.84.07-5.15-.38-3.37.37-2.2-.25-2.21-.89-3.4-2.05 16.16-7.23-3.34-7.64-1.36-4.26-.81-1.1.49-9.65 12.28.68 1.05-3.67 1.3-16.18 6.95.54.32-3.97.49-.05.99-11.57.94-12.12-7.68-.59-15.96-1-.28-4.02.75-4.6 1.09-16.23-11.47-.74-19.79-1.18-15.18-.8-15.54-.45-16.77-.31-1.59.04-17.67-.62-.54-.88.89-1.43-1.44-.88.14-1.76.68-2.17-.4-1.61-2.41-.98-.17-.7-2.33-2.16.09-1.09-2.27-.05-2.86-1.43-1.48.22-1.34-1.62-2.23-1-.56-1.04-1.95-2.18-2.33-1.26-1.04-1.78-.34-1.5-15.18-.83-20.93 4.04-6.82 1.37-15.12 3.28-5.41 1.3-2.89-.05-17.11-.63-9.76.24-14.1.08-11.82-.3.8-22.8.21-10.46.1-10.2z"/>
    <path region="14" short-name="23" long-name="State Senate District 23" value="1" d="m677.88 139.51 5.26-1.54 2.56-.11.46-.46 1.65.6 1.8-.14.95.65 7 1.78 2.6-1.15 2.55-1.92 2.45-.92 2.95-2.49 1.4-2.37 5.07-3.83.58.79-1.23.98.13.77 2.57-1.74.04-.57 1.93-1.18 1.75-1.6.7-1.89.72-.26.89 1.14 5.89-4.73 1.68-1.59.62-1.26 1.58-.9 1.36-1.36.68.53.02 2.02-.74.5-.03 1.5 2.35-1.11.15 1.94 2 1.67.98 1.66-.86.78-8.03.14.01 4.04h-1.45l.03 4.16 1.47-.01-.01 2.12h-.85l-.54 2.09-2 .2-3.38-.11-.73 4-2.15.32-3.22 1.15.04 4.22 1.34 1.35.02 2.53 1.3.2-1.4.92-2.49-1.03-.01-.75-5.21.2.06 1.7-1.4-.7.28-3.32 1.2-2 2.48-.06-1.06-2.29-4.1.31.05.93-1.33.14-.17 2.3-1.54.03-.6.84-2.6.03 1.34 2.71-1.57-.36-3.15-1.35-.09-1.03-5.42 5-1.05-.09-.14 7.66 9.99-.09 7.97-.2.15 10 .04 9.5-21.47.07.05-6.38.2-12.9.77-.95-3.15.05-1.42.29.1-3.75-2.5-.05-.53.9-1.9-.15-.4.84-1.39-.02.3-4.8-.18-1.95 1.03.51 1.74-1.9-.95-1.5.03-.84-2.6.06.33-1.64 2.14-.02.46-1.82-2.42.02.2-2.66z"/>
    <path region="15" short-name="3" long-name="State Senate District 3" value="1" d="m390.95 565.38 1.6.3 1.14.7.12 2.1-1.47.47.6 1.57-.3 1.35.96.94-.96.92-.22 1.42 1.02.86 2.21 2.56-2.57.07.35 1.3-1.32.55-.77.97 3.22.72.05-1.05 2.06-.26.12 3.33h1.5l.32-.96 1.87-.85 2.41-.72.83-.63-.84-1.85.1-1.66 2.53-1.83 1 .17 7.5-.5 1.13 1.31 2.66.01 3.62-1.13 2.94-.43.88 1.36-.08 1.05 3.59.44-.6 2.86-1 3.1.5 1.67 2.71.28v1.33l1.72.1.15 1.42 4.08.24.41-6.98-6.02-.36-.89-1.37h3.49l.61-2.52 3.06.2-.03.63 3.95.24h3.07l-.45.72.53 1.44 1.46 2.3-.37 1.18 1.12 1.42-.53 3.33-1.33-.28-.2 3.2 2.28 1.05 4.62-6.12 1.83 2.25 1.83 1.59 1.65 1.05 2.02.13.08-1.34 1.22-2.25.2-1.04 2.68-1.65 3.26.24.91.74.14-4.43-1.35-1.53-.14-.9.3-4.06-.3-1.36.15-2.14.43-.72 1.6.05.52-1.73-2-.12.14-2.03-1-.16.1-2.01 6.12.32-.4-1.68 2.91-.4-1.27-.75.07-1.1 1.06.07.17-2.46 2.08.49.13-3.04-2.05-.12-.18 2.28-1.66-.1-.56 3.37-1.89.13-1.4-1.54-5.12 1.73-3.6.48.15-1.9-.51-.55-1.97-.37.03-1.4-.71-.81-1.4-.58-3.54-.26-1-.43-.76-2.87.1-3.68.93-3.35 1.9-.28-.2-1.98.38-.89 9.7.55.47-3.23.99-1.75.88-.07-.55-2.07-1.84.22-.66-2.6-.55-1.05.13-2.15-1.26-.09-.68.69-.16 1.3-1.65.04-.1 1.92-1.34-.05.05-1-2.67-.17-1.03-1-.75.78-2.36-.16-.58-.86-3.16-1.64-3-.68-1.09-1.32-1.72-.83.12-2.34-1.26-.06-1.88-1.58-1.78-.12.34-2.6 14.35.76 9.53.6 20.6 1.16-.44 8.4-.77 12.5-1.36 20.9-1.2-.05-.65 10.2-6.04-.4-.5 8.21 4 .24-.66 7.31-.03 2.51-.7 8.5-.34 6.13-4.06-.36-.59 8.14-24.24-1.67-21.35-1.27-1.46.08-6.46-.24-9.75-.47-10.17-.25-5.49-.43-10.7-.62-.77-13.43-1-15.76 4.57-3.11 1.06-1.04-1.33-3.51-2.1-2.14.33-2.11-1.13-.89 1.53-1.44.68.76 1.18-.66-.63-1.1 1.14-.72 1.85 2.82 1.82-.59-.33-.89 1.72-1.03 2.23-.02-.27 2.81 1.88.01 1.54-.47z"/>
    <path region="16" short-name="32" long-name="State Senate District 32" value="1" d="m856.22 35.63 5.86-1.33 3.69-.58 1.16-.63 2.72.02 2.42-.82 3.4-.42 2.46-.68 6.62-3.37 1.73-.43 2.17-.98 1.58-1.2 3.97-1.14 2.1-1.13 1.46-1.24 1.72-2.3 3.84-.56.29 1.31 1.75-.34 5.33-2.41 3.6-.38 4.27-1.14 2.1-1.17.66.08 3.27-1.51 3.25-1.06 2.98-1.7 1.57-.44 3.42-.44 3.86-1.47 3.72-1.64 2.92-.82 4.7-2.3 1.62-1.14 3.66-1.02L959.37 0l.02 36.64.01 24.2-.03 7.38.01 19.91v37.29l.04 3v18.88l.04 7.73-.08 26.98.12 10.02-.04 10.58.06 5.53-.1 22.05v10.78l-20.73-.03-17.7-.15-33.8-.16-23.3.07h-7.7l-.06-5.5-.06-33.6-.07-11.37v-32.35l-.02-9.5.04-12.23-19.5.14-1.19-.04.07 4.04 2.37 3.31 1.66 1.98 3.41-.34 2.89.83v1.8l2.11.8.01 1.94-2.34-.04-1.25 2.07-1.42.34-2.29-2.76h-1.64v-1.63l-1.08-.01-.39 2.08-1.24-.84.56-1.24-.43-1.9v-2.07h-.98l.06 13.12h-9.72l-9.72.1-28.37.18-10.99.17-.04-5.95-3.54.02.09-6.22.08-19.31-.06-10 9.01-.11 11.32.05.14-7.49.12-12.78 22.1-.12 19.19-.04-.18-20.84 19.49-.11 1.58-.13-.15-2.55.11-5.9.19-1.48.1-14.2z"/>
    <path region="17" short-name="19" long-name="State Senate District 19" value="1" d="m509.79 405.72 16.28-.07 8.18-.12 12.56-.07 16.12-.02 21.85-3.17 11.19-1.7-.05-13.3-.14-14.62 12.73-.08 7.55-.2 4.11.15 11.56-.16 12.87.12 13 .21 15.08-.01 9.3-.19 11.25.04 8.29-.08 16.52.09-.04 9.36-4.03.6-.05 1.39 1.16.05-.37 10.06-.21 8.61.08 1.9-.52 14.72-.47 16.27-8.42-.25-.69 20.76 2.61.05 17.92.7-.37 10.55-.26 9.93-.33 9.37-.33 11.27-9.67-.32-.02 4.04-.69 15.95-9.7-.33v-.2l-19.89-.65-8.88-.35-37.3-1.24-13.17-.23-1.24-.24-20.1-1.2.06-4.45.85-15.62-12.2-.37-8.76-.07v.26l-7.82-.1-12.26-.47-12.74-.7-9.14-.57.25-5.29-8.69-.52-13.58-.9-13.64-.8-22.76-1.22-.6 9.77-1.16 22-.61 10.51-20.6-1.16-9.53-.6-14.35-.76-13.01-.67-19.03-.81-10.66-.81-.53-28.3-16.26-.06-.17-10.59-.07-15.98v-11.9l.09-10.37.12-7.1 12.12.98 6.73.46 9.97.53 19.85.9-.28 4.18 9.43.64 1.03-.16 10.33.61-1.03 15.96 13.03.8 21.33 1.3 26.13 1.56 1.21-20.35.58-12.86 1.05-16.76-2.06.27.01-7.84z"/>
    <path region="18" short-name="29" long-name="State Senate District 29" value="1" d="m718.3 303.05 7.24.24 24.93 1.2 16.4.68.54-12.47.32-10.71 12.57-.08 23.1.1 9.88.11 1.6-.06 23.36.05-.07 17.55-.04 31.39-.1 24.57-7.21-.08-16.6-.3-.07 1.96-8.15-.38-.86 20.57-16.34-.3.81-20.98-18.33-.73-20.71-.85-.38-1.57-1.5-.63-.7.59-1.89-.02-.52 1.37-1.71-.07-.6 1.92-1.02.31-.77-.95.41-2.94.85-1.75.2-2.05-.45-1.52-1.67.51-.87-.97.17-3.5-.12-1.7-2.7-.1.07-1.81-1.23-.3-.54.88-1.6.78-1.32-.06.07-1.72 1.32.05 1.34-.58.04-1.2-1.3-.28-.54-1.62-1.66-.94-.66 2.44-1.23-.06-.97-1.18-.05-2.13-.95-.47.05-1.08 1.49.05.64-1.24-7.71-.41-1.64.77-1.6 1.88-1.11.72z"/>
    <path region="19" short-name="31" long-name="State Senate District 31" value="1" d="m603.05 513.1 20.11 1.2 1.24.25 13.18.23 37.29 1.24 8.88.35 19.9.66v.19l9.7.33.68-15.95.02-4.04 9.67.32.33-11.27.34-9.37.25-9.93.37-10.55-17.92-.7-2.61-.04.7-20.77 8.4.25.48-16.27.52-14.73-.08-1.89.21-8.6.37-10.07-1.16-.05.05-1.38 4.03-.61.04-9.36-16.52-.09-8.3.08-11.24-.04-9.3.19-15.08.01-13-.2-12.87-.13-11.56.16-4.1-.15-.01-16.4-.24-21.92.4-13 .1-10.16-.62-4.14-.14-8.22.14-2.03-.2-7.65-.1-7.81 21.06.4 31.1.36 12.03.24 14.83.02 15.17-.11h8.71v21.1l-.09 30.9 1.11-.72 1.6-1.88 1.64-.77 7.71.41-.64 1.24-1.49-.05-.05 1.08.95.47.05 2.13.97 1.18 1.23.06.66-2.44 1.66.94.54 1.62 1.3.29-.04 1.19-1.34.58-1.32-.05-.07 1.72 1.33.06 1.6-.78.53-.88 1.23.3-.08 1.8 2.71.12.12 1.7-.17 3.49.87.98 1.67-.52.45 1.52-.2 2.05-.84 1.75-.42 2.94.77.95 1.03-.3.59-1.94 1.7.08.53-1.36h1.88l.71-.59 1.5.64.38 1.57 20.7.85 18.34.73-.81 20.99-.3 10.16-.54 13.74 12.16.45-.58 16.57-.53 20.4-.27 9.7-.53 14.99-.35 11.78-12.66-.25-.17 4.52-.57 20.74-31.84-1.07-8.02-.29-.93 18.74-.66 19.64-.26 3.6.03 2.82-.26 6.3-.34 12.17 5.05.2-.06 2 3.08.23-.6 16.48 2.14.05-.32 5.57v2.56l-18.4-.68-.37 16.31-21.88-.81-2.44-.17-.7 24.2-11.2-.56-31.03-1.73-7-.35-7.88-.2-11.9-.9v.3l-12.02-.83.8-12.59-12.72-.7-8.03-.55.54-7.78 1.1-16.9-15.3-1.08.49-10.53 2.94-.02 4.1.26.72-15.55.14-4.55.84-20.02z"/>
    <path region="20" short-name="15" long-name="State Senate District 15" value="1" d="m410.41 561.4 1.3 2.82-.89.41.52 1.65-.41.8 2.03.54-.03.67 2.67.87.56 2.95.65 1.47 3.78-.6-.82-1.25 2.57-.4.1-1.78 1.55-.57.78.96.98-.31 3.37-.15-.22-1.47 1.56-1.3.16-1.76-.3-5.57 9.47.58 2.55-.14 2.03-1.19-.1 1.99 2.1-1.14 2.8-2.14 1.65-.32 1 .43 3.53.26 1.4.58.72.82-.04 1.38 1.98.38.5.56-.14 1.89 3.6-.48 5.11-1.73 1.41 1.54 1.89-.13.56-3.37 1.66.1.18-2.29 2.05.13-.13 3.03-2.08-.49-.17 2.47-1.07-.06-.06 1.1 1.27.75-2.9.4.39 1.67-6.11-.32-.12 2.01 1 .16-.14 2.03 2.01.12-.53 1.73-1.59-.05-.43.72-.15 2.14.3 1.36-.3 4.07.14.89 1.35 1.53-.14 4.43-.91-.74-3.26-.24-2.68 1.65-.2 1.04-1.23 2.25-.07 1.34-2.02-.13-1.65-1.05-1.83-1.6-1.83-2.24-4.62 6.12-2.29-1.05.21-3.2 1.33.28.53-3.33-1.12-1.42.37-1.19-1.46-2.3-.53-1.43.45-.71-3.07-.01-3.96-.24.04-.64-3.06-.19-.62 2.53-3.48-.01.89 1.37 6.02.36-.42 6.98-4.07-.24-.15-1.41-1.71-.12-.01-1.32-2.72-.28-.48-1.67 1-3.1.59-2.86-3.6-.44.09-1.05-.88-1.37-2.94.44-3.62 1.13h-2.66l-1.14-1.32-7.5.5-.99-.17-2.54 1.83-.1 1.66.85 1.85-.83.63-2.41.72-1.87.85-.31.97-1.51-.01-.12-3.33-2.06.25-.05 1.06-3.22-.72.77-.97 1.32-.55-.35-1.3 2.57-.07-2.2-2.56-1.03-.86.22-1.42.96-.92-.95-.94.29-1.35-.6-1.57 1.47-.46-.12-2.11-1.14-.7-1.6-.3-.47-6.43 1.61-.16-.43-1.78-1.4.15-.12-1.37 1-.11 1.1-.94 1.63.7-.12 2.58 1.44.56.07-1.4 1.25.04.13-1.68-.94-1.07 2-.58.1 1 2.58-.3 3.3 1.97.47 2.47-.1 4.78 1.33-.2z"/>
    <path region="21" short-name="6" long-name="State Senate District 6" value="1" d="m195.85 604.74-.85 11.84-.2 4.34-1.18 14.44-.44 6.06-.49 8.73-.75 10.25-.14 3.24.49.1-.97 13.24-18.64-1.58-18-1.56-17 .02-23.3-.18-1.06-.24-.2-18.32 32.46-.33.13 9.93 1.91-.01.13-3.46h.49l.72-4.66-.9-.48-.07-1.12 1.67-.25.03 2.67 3.83-.32.24-.9-.7-1.5.65-.74 1.25.75 1.7-.18 2.82.2 1 1.02 1.68.3.69 2.19.9.16-.08 1.27 2.14.2.08-1.4-.52-3.7 1.16-.47.3-3.83 1.47.18.25-3.88-1.24 1.01-.97-.54-1.05 1.41-2.26.01-.59-.47.53-1.57-.62-.67-2.06.33-1.48 1.56-1.18.47-.27-1.76-3.76.04.07 4.01-4.3.06-1.2-2.91-.72-1.01 1.01-.77 1.24.01.07-1.4h1.9l1.93 1.47h1.3l.5-1.5 1.28-.04-.54-1.43-.17-2.62.87-1.28-1.82-1.57 4.43-.37-.06-1.17 1.12-1.77-4.57-.15-.28-1.3 2.73-.65-.67-.89-.52-1.75 1.11-.13.09-1.4-1.63.03-.43 1.2-.96-.01.03-3.08-2.06-.82-.11-1.63-1.13.02v1.55l-.87.39-1.89.02.4-2.63 1.4-.07.05-3.1 4.05-.08 3.66 1.4-1-2-.07-2.15.43-1.32 1.1-.35 2.06-.02.53 3.3h1.61l.96-.83.13-1.95 1.85-.02.17 1.14 1.57-.01.82-1.7h2.7l-.17-2.32-2.39-1.46-.83-.94-.36-2.56 1.75-.1.83-.47.05-1.56.66-1.02 1.39.56-.32 3.65 1.21 4.66.78 2.37-.68 1.19.52 1.51 3.74-2.56-.56-1.39.72-1.85-.71-1.29-.03-2.01.35-.88v-3.04l1.16-1.6-.27-1.43 1.24.32.05-1.7-1.34-.35.73-1.62 2.67.21-.35 1.43.2 2.75-.95-.06-.2 3.24-.98 1.01 1.54.32.47 1.5h1.69l2.36-.72 2.6 1.21.54-.65 1.34.06.1-1.34 1.3-.45.1-1.48 1.36.12-.64-1.46 1.44-.51z"/>
    <path region="22" short-name="8" long-name="State Senate District 8" value="1" d="m40.63 752.53 5.07-.13 6.24.21 13.73.06 12.91-.1.43-1.05 2.09-.9 2.93.24 3.76.73 7.77.14 4.27.5 4 .82 4.06-.74 4.17 1.22 4.2-.38 7.76 1.15 8.13.32 4.35.88 3.75.59 4.08-.28-.6 8.14 1.28-1.1 1.46.2 1.35-1 1.04.1-.12 1.41.95.3.34 3.07-1.36.28-1.83-.46-2.92-.02-.63 3.03-1.59.12-.42 1.32.08 2.75-.66.04-1 2.21.42.65-.11 3.45-.35 1.8 2.16.5-.24.69-1.92 1.03-.29 2.72-2.48.07-1.02.88-.57 2-.9 1.72-1.1-.48-.52-1.64-.97-1.52.19-2.85-1.07.12.75-3.24-1.44-.15-1.92-.85-.32-2.1.22-2.96-1.54-.15-.07.94-4-.25-.05 1.15-.8 1.68-1.53-.34-.47 1.3-.99-.09.36-1.72 1.09-2.53-.4-1.12.85-1.95-1.42-2.06.21-1.24.86-1.69-1.12-.15.18-3.84-4.05-.46-1.75-2.35-2.22.37-1.35-.1-.22 1.72-1.47.69-2.45-.24-.04 1.06-2.74.6-1.52-.6-.26-.93 1.51-.87.08-1.85-3.54-.61-.08 1.15-1.15-.11.08-1.2-2.98-.4-.2 1-.86 14.53 2.24.04-.27-4.08.52-1.73 4.48.49.53.53-.5 4.33.97.14-.12 1.7-1.23.29-1.4 1.95-2.71-.16-.11 1.68-4.7-.36-.36 6.05 1.28.08-.07.99-1.36.95-.22 3.03h-2l-2.2.62-.17 1.98-.84.2-.2 1.39-1.1.31-1.96-.16-.21 2.12.79.1.36 3.1 1.58-.09 1.12.84-.4 2.09-1.8.27.05.86 1.8 1.17-.15 1.9h1.96l.51 1.06 1.02.1.45-.96 2.1.21-.12 1.52 1.44.88.95-.63 1.49.29-.18 1.79-1.96 1.78-4.33 1.09-1.98 1.1-1.34.23-3.32-.3-1.91-.66-3.83-4.1-1.47-1.05-1.9-.7-2.38-.07-1.62-.6-1.05-1.03-2.6-4.07-3.55-4.99-2.89-2.04-2.58-.82-2.2.22-2.63 2.23-3.68 5.65-2.1 1.4-3.62 1.05-.65.73-1.36.28.08-14.36-.08-19.2.11-9.54z"/>
    <path region="23" short-name="28" long-name="State Senate District 28" value="1" d="m773 179.86-.06-14.1.04-7.54 3.63-.05 10.99-.16 28.37-.18 9.72-.1h9.72l-.06-13.12h.97l.01 2.08.43 1.89-.56 1.24 1.24.84.4-2.08h1.07v1.65h1.64l2.29 2.75 1.42-.34 1.25-2.07 2.34.04v-1.94l-2.12-.8v-1.8l-2.89-.83-3.4.34-1.67-1.98-2.36-3.31-.07-4.04 1.18.04 19.5-.14-.04 12.22.02 9.5v32.36l.07 11.37.06 33.6.07 5.5-.03 26.11.12 2.17.03 13.2-18.07-.07-23.37-.05-1.6.06-9.88-.1-23.1-.1-12.57.07-.67.03-36.23-.08.01-.98 1.3-1.02-.66-1.08 2.88-.03-.18-2.94 2.02-.12.03-2.7 1.38.91 1.17-2 1.68.04.69.85.99.02.35-1.49 1.04.3 3.42.24.2 1.1-1.16.12-.86-.77-.34 3.33h1.36l-.03 2.09h.94l-.13 1.5 2.34.07.43-2.7.54-.97.02-2.06h-1.47l-.2-3.03 2.97-.15-.19 2.47.4.3 7.97-.01.1-5.73 1.9-.49 4.22.31.18-2.45 1.5-2.72 2.45.44.02-1.27-2.4.23-.02-1.27-2.67-.45-1.24 1.47.11-2.6-1.2 1.51-3.06.37.15 2.23-1.96-.04-.15-.92-2.78-.02-.48.43.58 2.42-.2 2.27-3.05-.39.01-1.1-1.18-.01-.01 2h-1.78l-2.32-1.94-2.47-.01-.14-2.22 2.13-.5.36-2.1-.02-1.98-1.19-1.66-.86 1.7-.1 1.93-.52 2.04-2.62.04-.26-1.6-1.7-.06.19-1.73-1.29-.09-1.03 1.11-.11-2.63-1.17.65-1.38.05-.23.76-1.84-.32-1.31 1.17.1-8.51-1.31-.02-.22-1.93-1.61-.09-.4-1.8-1.06-1.27.26-2.11 2.1 1.32-.2 1.18 1.2.45 1.08-2.05 1.73-.3 1.85-.8.29-.76 2.6-3.19 2.19.85.32-1.19 2.05-.57.97.75 2.8.17.04 3.27 4.57.22.6 1.35 1.42.4 4.87.13.03-.52 2.7.05.1-4.87h.56l.03-4.62 6.08-.02v2.1h.62v2.55l5.57.08.05-17.88.07-1.23-.05-10.48.08-12.59z"/>
    <path region="24" short-name="16" long-name="State Senate District 16" value="1" d="m319.1 556.69 1.02-10.2 1.63-17.9 23.74.3 23.79.32 8.95.28 14.77.33.08-10.06 10.66.8 19.03.82 13 .67-.33 2.6-.87 4.6.52 2.14-2.14-.1-.49 1.38-.34 2.6-3.37-.2.49 3.3.23 4.13 4.73.3.12 3.22-1.73-.1-1.57.4-5.97-.45.38 2.35-2.75-.05-.27-2.02.34-.9-2.83-.28-.5.37-3.22-.08-4.65-2.29-2.17-.24-.36-.62-1.66.5 1.39 2.02 1.1 7.7-.23 1.82.53 1.82.8 1.43.86.62 1.22 2.02-2.62 1.36-5.03 2.22-1.34.19.11-4.78-.46-2.46-3.31-1.98-2.58.3-.1-1-2 .58.94 1.07-.13 1.68-1.25-.04-.07 1.4-1.44-.56.12-2.58-1.63-.7-1.1.94-1 .1.13 1.38 1.4-.14.42 1.77-1.6.16.46 6.43.32 4.04-1.54.47h-1.88l.27-2.82-2.23.02-1.72 1.03.33.9-1.82.58-1.85-2.82-1.14.73.63 1.09-1.18.66-.68-.76-1.53 1.44 1.13.89-.33 2.1 2.1 2.15 1.33 3.51-1.06 1.04-4.58 3.11 1.01 15.76.77 13.43 10.7.62 5.49.43 10.16.25 9.76.47 6.46.24 1.46-.08 21.35 1.27 24.24 1.67-2.36 33.01-.5 7.38.7.04-1.07 14.05-.41 4.7-.36 5.65 4 .28 19.81 1.67-.11.88-1.85 22.96-1.99.08-21.57-1.48-14.05-.9-17.4-.94.66-2.25 1.2-.8 1.94.22.35-2.93-1.24-1.63-1.72.1-25.48-1.08-9.32-.41-23.77-1.24.67-10.1 1.24-19.9.47-9.5.67-10.2-7.14-.53-10.86-.64L351 643l-20.04-1.2-17.43-1.48-23.32-1.81h-.43l.95-12.3.37-3.3 12.23 1.17 1.78-6.46 3.74-15.7 2.27-9.02 1.26-6.03 1.43-3.81 1.34-5.05 5.27-21.07z"/>
    <path region="25" short-name="18" long-name="State Senate District 18" value="1" d="m711.14 151.14-.06-1.7 5.2-.2.02.75 2.48 1.03 1.4-.91.03 2.61 1.17.62-1.03 4.64.52 1.17-.52 1 1.08.67 1.75.03 1.46 2.47 6.4 5.3.71.91 2.08-.01.5-.82h1.52l-.01-2.12h2.05l-.02-2.93.55-1.24h5.6v-4.17l8.25-.02.04-5.26h-1.22l1.2-4.15-.37-1.9.66-4.38.22-3.75 1.21-2.5 1.82.02.48-2.8-.72-.08-.29-2.5-.05-3.04h2.46v-2.38l3.02.02.4-8.86-8.68-.03-.05 9.21-4.07-.04.02-1.92-4.32-.2-.15-4.2 3.13.01-.18-3.12.5-.86h2l-.03-2.74h1.56v-.8l1.57.04-.12-5.6-.03-7.29 4.59-4.77 5.33-7.18 1.72-1.68 1.9-1.1 7.87-7 1.14-.59 3.76-2.98 1.62-.82.93-1.16 1.4-.46 2.53-1.8 2.04-1.74 5.18-2.68 3.22-2.75 5.06.43 4.6-1.22 2.09-1.43 1.73-.25 4.57-3.19.46.04 3.35-2.14.67-.14 6.45-3.94.6-.62 3.14-1.4 1.01-.88 2.3-.91 1.21-.82 1.37-.2 1.35-.86 2.12-.6 4.24-2.3 2.28-.52 2.6-1.74.83.01 1.86-1 3.3-.9 3.52-2.2-.06 15.4-.1 14.2-.19 1.48-.1 5.89.14 2.55-1.58.13-19.5.11.19 20.84-19.2.04-22.1.12-.11 12.78-.14 7.5-11.31-.06-9.01.12.05 9.99-.08 19.3-.08 6.23 3.53-.02.04 5.95-3.63.04-.04 7.54.06 14.1-1.69-.08-25.48-.46-1.66-.09-15.26-.19.7 2.17 1.42.25.05 1.8-.78 2.4.9 1.2-.07 1.11.86 1.17-.39 1.93 1.47.87 1.22 1.44.42 2.83 1.19.46.47 3.02-1.23.2-4.63.09-17.02.08.07-10.41 6.14.11.03-10.71-4.22.02.04-7.57-.51-2-.08-6.23 2.29-.1-.17-3.02-1.55-1.29-1.82-2.25 1.22-1.33-.03-.69-1.77-.37-2.03-1.54z"/>
    <path region="26" short-name="4" long-name="State Senate District 4" value="1" d="m41.57 679.9 9.63.02 1.47.29 8.86-.27 3.97.03.12 24.73 2.5.14 10.6-.12 2.73-.18 14.98-.2 1.22 1.41h.98l-.1-1.44 13.86-.27.3 3.75 1.08.32.09 2.47 1.68-.05v-1.38l1.5.02-.01 1.35 2.76-.1-.04-4.26.5-1.77.58-.1 1-2.53 1.23-1.95-2.5-.03-.15 1.58-1.22.77.02-1.94-1.7-.27-.42-1.3-2.7.04-.73 1.29-.2-17.85-.14-8.66 1.07.24 23.29.18.2 12.66.58.46 6.1-1.82.2.43-1.74 25.05.75.2-2.05 24.2-1.47 21.05-3.75-.59-4.35-.88-8.13-.32-7.76-1.15-4.2.38-4.17-1.22-4.07.74-4-.82-4.26-.5-7.77-.14-3.76-.73-2.93-.23-2.1.89-.42 1.04-12.9.11-13.74-.06-6.24-.21-5.07.13.43-23.92.36-23.68z"/>
    <path region="27" short-name="20" long-name="State Senate District 20" value="1" d="m466.92 616.8.59-8.14 4.06.36.33-6.13.7-8.5.04-2.5.66-7.32-4-.24.5-8.22 6.04.42.65-10.21 1.2.04 1.36-20.89.77-12.5.44-8.4.6-10.5 1.17-22 .6-9.78 22.76 1.22 13.64.8 13.58.9 8.7.52-.26 5.3 9.14.56 12.74.7 12.26.46 7.81.11.01-.26 8.77.07 12.19.37-.85 15.62-.07 4.45-.79 20.36-.83 20.02-.14 4.55-.72 15.55-4.1-.26-2.95.02-.48 10.53 15.3 1.09-1.1 16.9-.54 7.77 8.03.54 12.71.71-.79 12.6-.76 12.02-12.56-.74-23.46-1.55-1.21 16.58-.48 7.74-13.27-.99-27.79-2-8.85-.72-1.24 16.33-11.28-.77-14.67-.83-.54 12.37-6.36-.34-17.18-1.07-.27 4.05-19.81-1.66-4-.29.36-5.63.41-4.72 1.07-14.04-.7-.04.5-7.38z"/>
    <path region="28" short-name="27" long-name="State Senate District 27" value="1" d="m710.34 200.1 3.15-.04 17.02-.08 4.63-.09 1.23-.2-.47-3.02-1.2-.46-.41-2.83-1.22-1.44-1.47-.87.39-1.94-.86-1.16.07-1.12-.9-1.18.78-2.4-.05-1.8-1.41-.26-.71-2.17 15.26.2 1.66.08 25.48.46 1.69.08-.02 18.27-.08 12.6.05 10.47-.07 1.23-.05 17.88-5.56-.07v-2.55h-.63v-2.11l-6.08.02-.03 4.63h-.55l-.11 4.86-2.7-.05-.03.52-4.87-.13-1.42-.4-.6-1.35-4.57-.22-.05-3.27-2.8-.16-.96-.76-2.05.58-.32 1.18-2.18-.85-2.61 3.2-.3.75-1.84.8-1.73.3-1.08 2.05-1.2-.45.2-1.17-2.1-1.33-.26 2.1 1.05 1.29.41 1.8 1.6.08.23 1.93 1.31.02-.1 8.5 1.31-1.16 1.84.33.23-.77 1.38-.05 1.17-.65.1 2.63 1.04-1.1 1.29.08-.2 1.73 1.7.05.27 1.61 2.62-.03.52-2.05.1-1.93.86-1.7 1.2 1.66.01 1.97-.36 2.11-2.13.5.14 2.22 2.47.01 2.32 1.94h1.78l.01-2h1.18l-.01 1.12 3.04.38.2-2.27-.57-2.42.48-.43 2.78.02.15.92 1.96.04-.15-2.23 3.07-.37 1.2-1.51-.12 2.6 1.24-1.47 2.67.45.03 1.27 2.4-.23-.03 1.27-2.44-.44-1.5 2.72-.2 2.45-4.21-.3-1.9.48-.1 5.73-7.97.02-.4-.3.19-2.48-2.98.15.21 3.03h1.47l-.02 2.06-.54.97-.43 2.7-2.34-.07.13-1.5h-.94l.03-2.1-1.36.01.34-3.33.86.77 1.17-.12-.2-1.1-3.43-.24-1.04-.3-.35 1.49-.99-.02-.69-.85-1.68-.05-1.17 2.01-1.38-.91-.03 2.7-2.02.12.18 2.94-2.88.03.65 1.08-1.29 1.02v.98l36.22.08.67-.03-.32 10.7-.54 12.48-16.4-.68-24.93-1.2-7.25-.24.01-21.1h-8.71l.14-10.5.11-24.05.07-7.2.28-18.8z"/>
    <path region="29" short-name="2" long-name="State Senate District 2" value="1" d="m486.1 107.08 2.19-1.56.34-2.24.99-.75 2.27-.02 1.14 2.05 1.09.44 1.53-.2 2.15-2.23.83.08-1.2 2.06.3 1.76-.04 2.9-1.19 2.24-2.8.69-.74-.39.09-1.32-2.82-1.07-2.08-.24-2.06-1.52zm-1.54 30.5 2.03-1.77.65.82-.38 1.75-.84.94-1.22.32zm-12.58-56.5 3.55-.82-.56 1-2.73.25zm-5.3 2.7 2.91-2 1.8.78.04 2.22-.86 1.02.35 1.6-1.74.28-.4-2.2-.53-1.02zm-2.16-7.5.6-1.27 1.01-.7.48-1.35 1.13-.5 1.48.3.5 1-.25 2.07.64 1.12-2.97.31zm-1.79 18.52 2.09-3.05 1.6-.73.22 1.54 1.1.23 1.76-.37 1.5-2.72 2.05-.35-.2 1.66-3.37 2.1-.12 1.92-2.21 1.81-.76 1.43-1.77 1.29-1.39.22 1.05-3.58zm53.62 66.14.31 1.14.1 4.4-1.7-.03.53 1.74 2.94.06 3.53 2.9 2.47 1.82 2.03-.2-.28 2.25.43 2.13.43 20.52-9.29-.17-12.05-.06.3 12.66-1.75.46.66 1.32-2.83.07.02 1.6 2.99-.24 1.06.48.11 4.48 10.5.07 10.76.2 29.86-.17 1.84-.05 6.67.51 4.33-.02-.21 6.63.21 16.6.5 3.86.31 14.2-21.45.1.87 20.52h-9.56l-12.1-.15-10.06-.2-10.53-.13-12.3-.22-7.83-.07-15.3-.14-7.07-.14-.69-23.77-.8-24.68-.7-22.38-.74-24.5-.96-27.9-11.59.01.22-.35 5.66-1.85.3-.73 2.05.13 1.74-.6 1.52-.93.41-.83 1.82-.36 1.1-.91.96-1.59-.41-4.06.76-.2 1.12 1.22 1.83-.15.2-1.58 2.28 3.15 3.66 2.74 3.76 2.54 2.49.51 2.3-1.82 2.83.1 2.69-2.16 3.52-1.54.48 1.18 1.5 1.26 3.96.28.3-2.6-1.88-4.22-1.08-1.06-1.56-.8-.11-1.15 1.52-.99 1.12 2.17 5.05 6.55 3.46 3.77 4.6 4.18-1.18 2.55 3 .83 1.82 1.1.5-.66zm-275.69.06 2.2-.53 1.2.46 2.77.09.98-2.23.89-.79 2.5-.8 1.11-.66 2.39-.6 2.36-1.2 3.3-2.58 2.2-1.3.34-.76-.17-1.95 1.42-1.15 1.79.4 2.22-.17 1.87-1.45 1.18-2.76 1.62-2.02 3.26-1.12 1.26-1.98-.45-1.33.51-1.74.44-4.8 2.02-3.09 1.2-1.31 3-2.37 3.08-.69 1.24-1.2 1.67-.62 1.83-1.58 1.56.26 1.03-.71 1.22-2.09 2.75-.2.92-2.05 1.65-2.37 1.34-.8 1.37-3.4 1.28-1.17.8-1.69 1.79-1.77 1.17-.15 8.49-.09.26-3.55-1.8-.61-.31-2.42.22-1.93-1.43 1.16-1.47.53-.96-.34-2.52 1.39-2.82-.14-2.7.54-1.4-.38h-3.57l.03 2.95-9.08 2.85-.06-3.8-.63-2.38.78-.15 2.7-2.59-.13-3.36 6.92 2.02.1-2.31 2.55-.97.76-1.12 2.01.13.04 1.47 1.3-.02.29-1.05 4.47 2.85-.1-6.04-3.47.09.42-1.59 2.54-2.63-.06-2.07.33-2.05 3.14-.12 2.52-3.9.43.86.2 7.05 11.89-.24-1.49 1.2-1.23 1.57.84.77 1.7-1.47 1.5-.53-.74 3-1.99 2.74.02.87 1.9-.04-.82 1.72-1.03.4-4.02 4.27.03 2.06-2.07.03.11 5.26 19.14-.3 9.75-.39 15.14-.37 27.76-.44 3.56 1.3 3.73 1.02 1.46-.03 5.37.69 3.72 1.84 2.34 1.68 2.5 2.64.13 1.46 2.07 2.16 1.08 1.9 2.02 2.8 8.17 6.7 3.52 2.45 3.03 1.78 2.7 1.02 4.2 1 .46.57 1.89.16 3.3-.48 4.8-1.67 2.4-1.66 1.85-1.74 1.46-2 .05-1.05.93-.78.3-2.44 1.24-2.22-1.09-.22-.3-1.04.5-1.16-1.16-1.27 1.41-1.98 1.22-.58 2.87-.47 2.7 4.45 3.34 3.23 2.4 3.88 1.88 1.66 2.55.14 5-1.73 3.01.79 3.43.36 1.24 1.4.42 2.7-.38 1-1.8 1.93 1.69 4.65-1 .46-.05-1.7-1.45-1.81-2.44.13-2.08-.22-1.4.54-2.4 2.15-1.62-.02-1.7-1.07-1.84-.12-1.65.64-1.92-.48-1.9 1.04-.83 1.1-.46 2.14-.66.36-1.25-1.7-1.48-1.07-1.57-.6-2.07.68-1.25 1.38-1.2.61-3.75 1.13-4.91-.1-3.94.2-2.06.52-5.43-.56-1.94 2.22.02.9-1.37 2.96-1.47-.2-1.86.85-.58 1.26-1.8-.61-.3-1.44-1.33-.46-3.36.52-.45.64-2.55.16.06 2.05-6.16.1-24.6-.19v-.16l-21.21.14-12.04.12-.17-12.46-16.16.27-.17 20.59-.4 24.7-.54 24.82-.26 24.77-9.32.1-7.53.2-9.56-.16-7.95-.25-14.41-.13-16.63-.25-32.9.2-.2-16.52-.04-8.27-.24-20.77-.03-8.25z"/>
    <path region="30" short-name="10" long-name="State Senate District 10" value="1" d="m195.85 604.74 8.1.6 1.41-20.04.86-11.17L208 548.5l7.72.53.75-.04 16.11 1.22 2.42.36 9.7.65 14.05 1 8.27.71 16.5 1.35 2.07.1 8.66.8 6.04.4 18.8 1.11 1.32.25-5.27 21.07-1.34 5.05-1.43 3.8-1.26 6.04-2.27 9.03-3.74 15.7-1.78 6.45-12.23-1.17-.37 3.3-.95 12.3-1 12.92-.78 8.9-.79 10.96-1.03 13.45 9.81.7 10.25.88-.96 12.65-1.5 23.3-.66 9.93-9.73 7.32-13.63 10.57-5.48 4.36-12.59 9.75-.56 2.2-1.06 1.47-.7 2.39-1.46 1.05.25 1.53-1.09.34-.4 1.56-2.26.5-3.63-.12.31-6.18-6.68-.45-18.04-1.25-12.25-.9.71-9.18 1.42-17.34 1.74-23.31 2.64-37.08-19.36-1.65-9.95-.8.97-13.23-.5-.11.15-3.24.75-10.25.49-8.73.44-6.06 1.19-14.43.2-4.35z"/>
    <path region="31" short-name="33" long-name="State Senate District 33" value="1" d="m788.8 377.1 16.34.3.86-20.58 8.15.38.08-1.96 16.59.3 7.22.08.09-24.57.04-31.4.08-17.54 18.07.07-.03-13.2-.12-2.17.03-26.12h7.7l23.3-.06 33.79.16 17.7.14 20.73.04.05 17.65v15.74l-.03 26.7-.16 5.26.18 7.03-.02 8.02v32.58l.02 26.75-1.43.77-1.5.13-2.82 1.66-1.12.24-2.05 1.45-1.52 1.73-1.9.93-1.47-.36-1.8-1.96-1.44-.78-1.09.05-2.59.95-2.39.5-1.53 1.08-2.27 3.5-1.44 1.66-2.32 1.73-1.15 2.56-16.96-.23.05-3.85-17.83-.43-6.72-.24-.33 12.37-12.26-.25-.3 9.33-.33 12.43-.15 3.06-3.33-.1-.37 12.25-12.37-.37-21.43-.81v-.47l-19.43-.7-4.54-.1-.01.52-12.31-.53.53-20.4.58-16.57-12.16-.45.54-13.74z"/>
    <path region="32" short-name="22" long-name="State Senate District 22" value="1" d="m488.17 279.95 7.83.07 12.3.22 10.53.13 10.07.2 12.1.16 9.55-.01-.87-20.52 21.45-.1 9.95.06 6.77.23 18.54.33.34-20.85 20.43.18.39-18 21.06.01-.08-2.58.38-18.73h9.71l1.4-.15 4.83.13 4.23-.04 19.86-.4 17.2-.22 4.2.02-.15 21.32-.29 18.78-.06 7.2-.1 24.06-.16 10.5-15.16.1-14.83-.01-12.03-.24-31.1-.37-21.06-.4.1 7.82.2 7.65-.14 2.03.14 8.22.62 4.14-.1 10.16-.4 13 .24 21.93v16.4l-7.55.2-12.72.08.13 14.62.05 13.29-11.19 1.7-21.85 3.17-16.12.02-12.56.07-8.18.12-16.28.07-.35-20.95.1-3.65-4.13.02-.19-8.22 4.02.08-.22-12.2-21.36-.5.22-23.69.26-13.58.16-24.63z"/>
  </g>
</svg>
