<svg country="usa" type="nv_lower" date="2022" variant="blank" title="Nevada 2022 State Assembly" auto-border-stroke-width="1" auto-border-stroke-width-limit=".5" original-source='["https://www2.census.gov/geo/tiger/GENZ2022/shp/cb_2022_us_sldl_500k.zip"]' candidates="[{&quot;id&quot;:&quot;0&quot;, &quot;name&quot;:&quot;Democrats&quot;, &quot;margins&quot;: [{ &quot;color&quot;: &quot;#1C408C&quot; }, { &quot;color&quot;: &quot;#577CCC&quot; }, { &quot;color&quot;: &quot;#8AAFFF&quot; }, { &quot;color&quot;: &quot;#949BB3&quot; }]},{&quot;id&quot;:&quot;1&quot;, &quot;name&quot;:&quot;Republicans&quot;, &quot;margins&quot;: [{ &quot;color&quot;: &quot;#BF1D29&quot; }, { &quot;color&quot;: &quot;#FF5865&quot; }, { &quot;color&quot;: &quot;#FF8B98&quot; }, { &quot;color&quot;: &quot;#CF8980&quot; }]}]" version="1.1" xmlns="http://www.w3.org/2000/svg" viewBox="0 0 666.1 1000">
  <g map-type="regions" transform="translate(-166.95)">
    <path region="0" short-name="State Assembly District 33" long-name="State Assembly District 33" value="1" d="M547.12 417.66v-2.11l.43-.02.03-28.34.44-.3v-37.45h.2l.07-46.47v-17.3l-1.07-.26.07-12.7.05-.86.13-5.91.34-14.25.03-2.67.05-12.21v-10.9l-.1-1.76-.04-9.36-.08-.96.03-18.33 4.1-1.58 2.06-.5.77-.04 1.47.23.43.28 1.1.26 1.33.7 3.38 2.68 2.32 1.47 1.23.24 1.3-.14.74.18 4.57 2.12 1.78.58 1.44.74.8.07 2.03-1.02.93-.18 1.12-.58.86-.09 2.27-.8 1-.45 1.5-.01 1.41-.5.81-.62.98-1.14.77-.49 2.91-.97 1.06-.76.57-1.19.69-.85 1.17-.86-.03-42 .4-.41-.08-.47.96-.67.35 1.1 1.01 1.1 1.97.81.62-.11.92.56.4.56.24 1.08-.15.3.37.89.72.22.19.6.77.47.2.7.62.3 1.37-1.68.48-.95.46.36 3.34-.12.99-.55.81-.82.57.28 1.33.12.8-.67 1.16.28.65.6.15 1.63-.5.64.23 1.07.67.54 1.37-.36.8-.35.82.99 1.05-.06.28.35 1.91.02 1.08.2 1.54-.6.5-.53.71-4.06-.08-2.32 1.03-10.63-.13-3.48-.34-2.1.17-1.52 2.3-6.75.3-.7-1.22-1.21-.56-.34-2.05-.6-1.4-.19-1.74-1.16-.34-.42-2.3-3.81-.7-.53-.96-.25-.99-1.07-1.44-.5-1.09.27-1.07-.02-1.66.26-1.73-.38-.58-.75-1.26-.49-.7-.6-2.4-1.3-.48-.85-1.97-.78-.72-.1-1.14-1.06-.72-.24-1.2-1.17-.09-1.53-.27-.9 1.08-10.34.08-1.58.47-1.63.04-3.4.43-.87v-.64l-.47-1.24.18-2.42-.05-4.87.15-1.37-.25-1.1.12-1.73-.93-.76-.2-1.4-.3-.58-.39-1.49-.46.27-.8-.83-.17-.8-.84-1.43-.26-.73-.73-.5.06-1.54-1.12-.34-1.22.32-.76.93-.71.21-.92.61-1.87.1-.17-1.32-.75-.95-.1-.52-.08-2.95-.73-2.44.06-1.8.3-1.56.28-2.9.87-1.86.63-.73 1.86-1.23-.26-.37.22-1.47.34-.83-.1-2.76-.09-5.86-.18-.6-3.18-9-2.02-3.16h27.54l.01-13.23-.22-.98.22-.71.02-9.17L628.7.82l15.29-.06 11.98-.04 6.24.09 28.6.1 6.64-.09.4.09 23.73.02h.71l13.13-.59h1.67l2.6-.2L744.7 0l2.76.06 9.56.54 13.67.56 11.16-.02 3.43-.13 20.74.2 19.46.03 7.37.01.2 16.37-.17 5.13.14 14.5V56.5l-.06 1.43-.05 17.22.08 1.23-.13 40.41-.13 1.34.12.47-.08 30.8-.03 8.55-.08 25.14-.08 1.92.04 4.77-.03 5.38-.17 26.93-.02 1.78.03 9.42-.07.8-.04 3.89v24.35l-.06 18.66.04.93-.05 9.88.03 4.85-.06 13.23-.01 12.36-.07 3.9.06 5.05v5.03l-.05 26.39-.02 12.58-.13 64.9-.05 18.73.04 17.9-.07 2.98-.04 22.33.03 4.17-.07 6.25.04 13.6.08 19.9-.08 2.1.03 14.4-.06 21.08.08 16.78-.03 4.09.03 4.08.14 1.94-.17 6.26-.2 2.76-.08 19.92-.06 1.7.03 14.18.03 8.52.08 1.88-.02 9.95v8.9l.06 7-.03 8.63-.06 3.54.04 1.79-.11 4.25.12 2.17.13 12.31.07 5.96-.07 16-5.57-.03h-7.63l-66.25-.07-.03-1.34-4.64.02h-16.97l-87.6.03.01 1.56-10.99-.02-.36-.4-2.37-.86-.03.3-2.3-.42.01 1.39-1.4-.01.14 22.02.04 14.5.03 22.05-.05 21.8h-19.26l.07 2.02h-1.55l-.01.72-1.22.63-.3.73-6.54-.01-1.57-.17-3.31-.03-5.98-5.72-13.95-13.25-.5-.33-12.05-11.67-1.4-1.27-4.6-4.4-8.1-7.65-10.69-10.08-19.99-18.89-12.45-11.78-7.35-6.8-7.28-6.9-3.8-3.55.1-64.24-.1-9.9.01-31.88.05-3.35.03-35.36-.05-.25-5.67-6.55.07-.7-.18-.78-.67-.66 1.1-.8.93-.16 4.02.21 4.67-.4 20.8-1.83 1.03-.58.96-1.27 1.04-.68.55-.62.39-1.03.4-.45.8-.39 5.02-1 .61-.03 3.63.26 2.65.78 1.15-.28 1.68-.16.84-.33 1.65-1.2.7-.2.96.2 1.48-1 1.05-.93.7-2.64.37-1.88.04-.83.67-4.97.26-1.04.49-1.14.44-1.5.12-1.06.67-3.73-.06-1.23.33-.48.17-.85-.14-.9.08-1.51.26-2.04.26-2.97 1.03-1.34-.12-2.5-.9-6.3-.41-4.94-.11-.56-.8-.8-1.17-.34-1.24-.56-.72-.6-1.36-.44-.74-.74-1.72-.47-.84-.89-.34-.6-.81-.17-.9 1.39-.51-.05-.02-.84.7-.9 1.18-.6.39-.93.85-.62 1.23.03 1.17-.57.22-.38.14-1.1 1.49-1.73 2.22-.8.11-.68.57-1.42-.06-.68-.37-.92.07-.78.76-1.73.4-.43.16-.9v-1.33l.55-.53 1.24.09.56-.26 1.43-1.77 1.12-.44 1.1-2.57.47-1.35.83-1.87.88-2.46.15-1.02-.32-.85.06-.53.5-.45.62-1.34.2-1.16.28-.68-.23-1.58-.37-1.31-.05-.9.19-1.44-.38-.51.17-.74-.22-.58-.1-1.2.12-.94-.11-.9.25-1.11-.8-.72-.52-2.24.33-.88 1.04-1.08.6.24.28-.55.93-.13.2-1.2.73-.53.8-1.1.02-1.62.55-1.25.08-1.2.36-.47 1.82-1.44.92-1.46.15-1.32-.45-1.03.13-.42 1.44-1 .15-.9-.17-.82.62-.38 1.26-.48.14-.6-.42-.97.08-.45 1.59-.6.82-.47 1.33-1.13 1.17-1.32.23-.75-.14-1.2-.56-1.3-.24-1.27.95-3.27.07-1.74.8-1.9.72-1.3.06-1.3-.06-2.54-.43-1.34-1-1.2-1.75-3.01-.12-1.05z"/>
    <path region="1" short-name="State Assembly District 34" long-name="State Assembly District 34" value="1" d="m698.83 836.05 1 .02-.02 1 1.02.02.03 1.06-.02 2.98-3 .01.2-1-4.15.03-.2-.08-1.03-.41-1.48-.04-.52.27-.28-1.45 1.22-1.15-1.03-.7-.86-.22.41-1.6 1.1.12.74-.27.89.07.96.4.51.4-.41.63-.17.93 1.67-.01.32-.69-.03-.47.98.13z"/>
    <path region="2" short-name="State Assembly District 15" long-name="State Assembly District 15" value="1" d="m702.62 845.17 1.5-.01-.03-.5 1.63.03 2.08-2.95.16-.55h4.61l.04 4-2.05.02-.1 2.08.1 1.9-4.9.03-1.39-.03.89-1.9-.35-.13-2.2.01z"/>
    <path region="3" short-name="State Assembly District 2" long-name="State Assembly District 2" value="1" d="m687.62 836.65.46.04 1.23-.33.4.03.85.22 1.04.7-1.22 1.15.28 1.45.52-.27 1.48.04 1.03.4-.3.37-.08.71h-2.72l.07 4.04h2.02l-.03 4.63h-.5v-.52l-1.5-.02.02-.78-.7-.53-.7.24-.18-.35-2.5.25-.16-.83.24-2.09.23-.58-.02-1.2-.26.02-.07-1.77-.99-.3-.55-.58.86-.4.44-.45-.14-.92.24-.96.75.11.6-.12z"/>
    <path region="4" short-name="State Assembly District 32" long-name="State Assembly District 32" value="1" d="m167.75 1.1 1.4-.12L181.5.75l.35-.06 2.68.05L191.1.7l7.19.19 31.38.12 9.43.16 12.18.09 2.14-.06 2.63.16 23.14-.1 22.93.21 2.2-.04 8.87.13 10.57-.31L335 1.02l33.9-.24 8.2-.04 27.95-.16 15.15.02 12.48.02.25-.06 20.17-.18 4.4.06 20.78-.1 2.2-.07 14.42.06 2.2.15.9-.13h1.64l1.89.26 4.48-.13 11.93.06 26.29.13.1.05h4.35l.52-.06 9.38.06 3.47.06 11.01.11 3.99-.15L595.91.7l10.93.01 2.1.17 6.81-.01-.02 9.17-.22.7.22.99v13.23h-27.55l2.02 3.16 3.18 9 .18.6.1 5.86.09 2.76-.34.83-.22 1.47.26.37-1.86 1.23-.63.73-.87 1.87-.28 2.9-.3 1.56-.06 1.79.73 2.44.08 2.95.1.52.75.95.17 1.31 1.87-.09.92-.61.71-.21.76-.93 1.22-.32 1.12.34-.06 1.54.73.5.26.73.84 1.43.18.8.79.83.46-.27.4 1.49.3.57.19 1.41.93.76-.12 1.73.25 1.1-.15 1.37.05 4.87-.18 2.42.47 1.24v.64l-.43.87-.04 3.4-.47 1.63-.08 1.58-1.08 10.34.27.9.09 1.53 1.2 1.17.72.24 1.14 1.06.72.1 1.97.78.47.85 2.42 1.3.69.6 1.26.49.58.76 1.73.37 1.66-.26 1.07.02 1.1-.27 1.43.5.99 1.07.95.25.71.53 2.3 3.81.34.42 1.73 1.16 1.41.2 2.05.6.56.33 1.22 1.22-.3.69-2.3 6.75-.17 1.51.34 2.11.13 3.48-1.03 10.63.08 2.32-.72 4.06-.49.54-1.54.59-1.08-.2-1.91-.02-.28-.35-1.05.06-.83-1-.8.36-1.36.36-.67-.54-.22-1.07.5-.64-.16-1.63-.65-.6-1.16-.28-.8.67-1.33-.12-.57-.28-.81.82-1 .55-3.33.12-.46-.36-.48.95-1.37 1.69-.61-.3-.21-.71-.77-.47-.19-.6-.72-.22-.37-.89.15-.3-.23-1.08-.41-.56-.92-.56-.62.11-1.97-.81-1.01-1.1-.35-1.1-.96.67.08.47-.4.41.03 42-1.17.86-.7.85-.56 1.19-1.06.76-2.91.97-.77.49-.98 1.14-.8.62-1.43.5-1.49.01-1 .46-2.27.79-.86.09-1.12.58-.93.18-2.02 1.02-.81-.07-1.44-.74-1.78-.58-4.57-2.12-.73-.18-1.31.14-1.23-.24-2.32-1.47-3.38-2.68-1.33-.7-1.1-.26-.43-.28-1.47-.23-.77.04-2.07.5-4.09 1.58-.03 18.33.08.96.04 9.36.1 1.76v10.9l-.05 12.2-.03 2.68-.34 14.25-.13 5.9-.05.88-.07 12.7 1.08.25v17.3l-.07 46.47h-.2v37.44l-.45.31-.03 28.35h-.43v2.12l-15.42-.11-1.31.1-29.4-.26-18.2.01-17.26-.02-32.54 6.43-.3.05-16.69 3.6-.34-1.14-.5-.69-1.16-.3-.92-1.11.38-.37.58.13-.07-1.33.26-.28-.4-1.45h-.74l-.47-.43.22-.56 1.15.14.02-.49.97-.42-.94-1.44.48-.48.15-.7.56-.95.67.34.6-.1.61-1.1.6-.55.78.12.48-.8.52-.15v-1.03l.3-.05.7-.92.08-.69.87-.47h.77l-.28-.64.23-.47-.14-.56.18-1.71.66-1.26-.26-.44-.72-.31-.48-1.96-.46-.5.13-.42-.32-1.53-1.19-.93.45-1.23-.37-.76-.46-.42-.1-.58-.53-.47.14-.84-.08-.92-.45-1.07-.41-.39-.08-.85.35-.7-.22-.97-.4-.19.04-.8.42-.8-.1-.76.38-.23.06-.78.33-.24.3-.86.41-.28.67.58.96.22 1.2-.38.98.08 1-.41.8-.12.68-1.16.56-.64-.07-.43.55-.66-.21-.7.7-.4.1-1.29.27-.2 1.31-.23.78.04.94-.2.36-.48-.06-.68.54-.73-.2-.94.34-.82-.58-.77-1.28-.35-.36-.36.05-.84.64.13.37-.5.66.05 1.07-.98.99.1.74-.84.08-.99.84-.35.56.18.2-.78.5-.51.78-.14.36-.45-.2-.78.02-1.02-.19-.37 2.73-.18.54-.97 1.17.05 1.82-.4 1.33-.81.4-.62.9 1 1.02.07.94-.73.02-1 .84-.4-.16-.78.49-.55.2-1.27-.25-.78.04-.68.42-.58.29-.87-.29-1.33.2-.57-.47-.33.5-.74.14-.6 1.01-1.58.52-.5-.17-.32-.02-1.2-.7-.03-.95-.58-.89-1.11.56-.39.38-.66v-1.06l.62-.3-.18-1.16.45-.66.51-.27-.2-.68-.65-1.04-.71-.43-.7-1.35-.1-.6.25-.56-.4-.87.57-1.02.24-.89.57-1.25-.56-.8-.56-.08-.29-.63-.83-.3.1-.54-.25-1.3.22-.87-.03-1.04.6-.76.43-1.03-.3-.64.2-.89-.3-1.3.64-.85-.4-.94-.09-1.24.54-.45-.04-.6 1.24-.75-.04-.58.47-.85-.28-.45.71-.89-.23-.98.6-.41-.17-.58.14-2.19-.56-1.58-.18-1.51.26-.38-.52-1.07v-.72l-.46-.98-.37-1.44-.48-.58-.43.13-.64-.83-1-.46-.58-.65-.31-.99.19-.87-1.4-.54-.09-1.02-.48-.73-.86-.71-.19-.51-.85-1.19-8.88-.06-.51-.07-11.04-.03-1-.01-21.65-.05-21.38.1-.76-.04h-6.8l-55.08.53-60.82-.13-.01 12.43-.1 2.13H256l.01 13h2.1v3.17l2.1-.01-.02 9.51.05 6.14h-2.08v4.21l-7.6.02-2.18 4.2h-.7l-.92.24-.85.83-1.24.51-.43.58-.39-.03-.5.58-1.16.45-.77.54-2.08-.15-.68.32-.58 1.15-.42.1-.96-.2-.87.07-.33.3-1.4-.58-.96-.12-.96.4h-1.57l-.83.42-1.55-.58-1.12.68-.12.85-.3.38.21.86-.37.57-.4-.18-1.07.24-.47.38-.99-.18-.51.26h-.92l-.4-.25-1.76-.27-.63.72-.46-.4-1.1.41-2.05 1.24.06-.69-.01-11.46h-1.7l-.39-.46-1.08.47-2.71.02-6.3-.04-.03-2.14-3.19-.03.52-3.1-1.27-1.22-.73.39-.5-.18-3.24.01v2.1h2.11v2.1h-2.62v-2.1h-1.18l-.37.97-.64.03-.41-.5-.5-1.52-.86-.62-1.3.6-2.3.03-.73.37.42 1.19.03 1.72-.48.14-1.28-.05-.36.28-1.32.04-1 .57-.86.15-.68-.12-.06 3.37-3.6-1.01-.5.07v2.7h2.1l-.06 8.48-.84-.2-.66 1.17.01.54-.67.29-.43.69-.4-.02-.47.93-1.03.28.02 1.82-1.15-.24.13-.18-1.04-.87-.08-.54-.54-.56-1.35-.02.07-.82-.45-.26-2.42.02.03-10.48.03-16.77.18-18.73.23-15.3.04-16.8.02-7.97.1-19.89.02-20.48.01-14.31-.18-32.52-.1-4.25-.1-18.18-.03-21.98-.03-24.02.05-46.98.13-17.73-.06-.91.06-18.7-.12-18.77z"/>
    <path region="5" short-name="State Assembly District 38" long-name="State Assembly District 38" value="1" d="m230.13 384.17 5.78-10.91 8.42-15.85 3.37-6.32h.7l2.18-4.2 7.59-.02v-4.21h2.08l-.05-6.14.03-9.51h-2.1l-.01-3.15h-2.1v-13.01h-1.96l.1-2.14V296.3l60.83.13 55.07-.52h6.81l.76.03 21.38-.1 21.66.05.99.01 11.04.03.5.07 8.9.06.84 1.19.2.5.85.72.48.73.1 1.02 1.39.54-.2.87.32 1 .57.64 1 .46.65.83.43-.13.48.58.37 1.44.45.98.02.72.5 1.07-.25.38.18 1.5.56 1.6-.14 2.18.17.58-.6.4.23 1-.71.88.28.45-.47.85.04.58-1.24.75.04.6-.54.45.1 1.23.4.95-.65.86.3 1.3-.2.88.3.64-.43 1.03-.6.76.03 1.04-.22.86.26 1.3-.11.55.83.3.3.63.55.08.56.8-.57 1.25-.24.9-.57 1 .4.88-.26.55.1.61.7 1.35.72.42.64 1.05.21.68-.51.26-.45.67.18 1.16-.63.3v1.05l-.37.67-.56.39.89 1.11.96.58.68.03.03 1.2.17.31-.52.5-1.01 1.6-.15.59-.49.74.46.33-.19.57.29 1.33-.3.86-.41.59-.04.68.25.78-.2 1.27-.5.55.17.77-.84.4-.01 1-.95.74-1.02-.07-.9-1-.4.62-1.33.82-1.82.39-1.17-.05-.54.97-2.73.18.2.37-.03 1.02.2.78-.36.45-.79.14-.5.5-.2.8-.55-.19-.84.35-.08.99-.74.83-1-.09-1.06.98-.66-.05-.37.5-.64-.13-.05.84.36.35 1.28.36.58.77-.34.82.2.94-.54.73.06.68-.36.48-.94.2-.78-.04-1.3.24-.29.2-.08 1.27-.71.41.2.7-.54.66.07.43-.56.64-.69 1.16-.8.12-.99.4-.98-.07-1.2.38-.96-.22-.67-.58-.41.28-.3.86-.33.24-.06.78-.39.23.1.77-.4.8-.06.8.4.18.23.97-.35.7.08.85.4.39.46 1.07.08.92-.14.84.54.47.09.58.46.42.37.76-.45 1.23 1.19.93.32 1.53-.13.42.46.5.48 1.96.72.31.26.44-.66 1.26-.18 1.7.14.57-.23.47.28.64h-.77l-.87.47-.08.69-.7.92-.3.05v1.03l-.52.14-.48.81-.79-.12-.59.54-.6 1.11-.61.1-.67-.34-.56.96-.15.69-.48.47.94 1.45-.97.42-.02.49-1.15-.14-.22.56.47.43h.74l.4 1.45-.26.28.07 1.33-.58-.13-.38.37.92 1.1 1.15.31.51.69.34 1.13 16.7-3.6.29-.04 32.54-6.43 17.26.02 18.2-.01 29.4.26 1.31-.1 15.42.11 15.48-.03.12 1.05 1.76 3.01.99 1.2.43 1.34.06 2.54-.06 1.3-.72 1.3-.8 1.9-.07 1.74-.95 3.27.24 1.27.56 1.3.14 1.2-.23.75-1.17 1.32-1.33 1.13-.82.47-1.59.6-.08.45.42.98-.14.6-1.26.47-.62.38.17.82-.15.9-1.44 1-.13.42.45 1.03-.15 1.32-.92 1.46-1.82 1.44-.36.47-.08 1.2-.55 1.25-.02 1.61-.8 1.11-.72.54-.2 1.2-.94.12-.28.55-.6-.24-1.04 1.08-.33.88.52 2.24.8.72-.25 1.1.1.91-.1.94.1 1.2.2.58-.16.74.38.51-.19 1.45.05.89.37 1.3.23 1.6-.28.67-.2 1.16-.62 1.34-.5.45-.06.53.32.85-.15 1.02-.88 2.46-.83 1.87-.47 1.35-1.1 2.57-1.12.44-1.43 1.77-.56.26-1.24-.09-.54.53-.01 1.33-.16.9-.4.43-.76 1.73-.07.78.37.92.06.68-.57 1.42-.1.68-2.23.8-1.5 1.73-.13 1.1-.22.38-1.17.57-1.23-.03-.85.62-.4.92-1.17.62-.7.89.02.84.52.05.89-1.39.81.18.34.59.84.9 1.72.46.74.74 1.36.44.72.6 1.24.56 1.16.34.8.8.12.56.42 4.94.9 6.3.11 2.5-1.03 1.34-.26 2.97-.26 2.04-.08 1.5.14.9-.17.86-.33.48.06 1.23-.66 3.73-.13 1.06-.44 1.5-.49 1.14-.26 1.04-.67 4.97-.04.83-.36 1.88-.7 2.64-1.06.92-1.48 1.01-.97-.2-.69.2-1.65 1.2-.84.33-1.68.17-1.15.27-2.65-.78-3.63-.26-.61.04-5.02 1-.8.38-.4.45-.4 1.03-.54.62-1.04.68-.96 1.27-1.02.58-20.8 1.84-4.68.4-4.02-.22-.93.17-1.1.79.67.66.18.78-.07.7 5.67 6.55.05.25-.03 35.36-.05 3.35v31.89l.08 9.89-.09 64.24-8.8-8.25-2.37-2.05-12.26-11.47-13.87-13.1-.09.01-4.46-4.16-4.52-4.06-11.08-10.46-3.54-3.02-13.44-12.65-4.82-4.55-3.2-2.61-7.95-7.53-7.15-6.47-1.38-1.37-5.44-4.97-16.75-15.3-19.74-18.04-8.17-7.47-7.92-7.2-5.54-4.9-10.35-9.6-3.6-3.23-2.83-2.4-9.74-8.94-7.08-6.41-3.03-2.7-5.73-4.95-3.24-3.06-5.84-5.13-1.65-1.65-3.22-2.9-12.17-10.8-1.79-1.68-3.15-2.73-5.67-5.14.04-7.45-.02-8.66h-2l-.24-12.52-4.2-.05v.44h-2.06l.08-2.6-.02-2h.27v-6.25h-1.02l-.02-2.09h-1.03l-.02-4.17h-2.05l.04-4.17 2.01-.01.17-10.41h2l.05-4.16 4.18-.08 1.78.18.05-.63.52-.52h3.67l-.04-13.47-9.49-.07.15-.72 1.04-1.14 1.45-.22 1.24-1.03.85-.24 1.79-1.07 1.39-1.2 1.5-1.7 1.2-.94-.77-.5.1-1.8-.3-.97.23-.82-.5-.87-.55-1.37.08-.6.93-1.4.66-.35-1-.4-.09-.48-.72-1.14-.48-.42-.74-.24-.6-2.13-.38-.44-1.94-1 .04-.36 1.22-.6.95-2.25.85-.66-.04-.3 9.51 1.8.98-.54.41-.74.11-.83-.17-.73-1.24-.35-.73-.58.1-.29 1.08.54.8.14 1.33-.03.58-.71 1.05-.15 1.21-.53.54-.82.8-.21-.07-.54.54-.54.15-.55.5-.57.57-.2.3-1.23.66-.68.86-.5.78-.87.9-1.3v-.7l-.83-.7-.54.05-.34-.7-.72-.28-1.6-.24-.24.5-.57.12-.62-.7-1-.75-4.53-.06.34-2.1h-2.09l-.14-1.05-2 .52-.07-.93-3.05 1.46-7.74 3.66-.02-1.65-1.05.08h-6.25l-.03-2.6z"/>
    <path region="6" short-name="State Assembly District 39" long-name="State Assembly District 39" value="1" d="m167.29 424.68 13.28-.02 8.97-.14 4.79-.03v2.09h1l.01 2.1 6.28-.01 2.06.02 2.04-.18 12.07.04.13-.84-.15-1.13-.6-.48-.26-1.15.09-1.11-.37-1.94.04-.63-.93-.78-.3-.68.02-.8-.31-.41.4-.42.48-1.06.68-1.91.15-1.65-.24-.64-2.1-.07-7.55-.02-3.83-2.05-3.33-6.02 7.23-2.27 8.62-4.7 4.53-2.42 5.66-3.13 4.28-8.07 1 .03.03 2.6h6.25l1.05-.08.02 1.65 7.74-3.66 3.05-1.46.07.94 2-.53.14 1.05h2.09l-.34 2.1 4.54.06.99.76.62.7.57-.13.24-.5 1.6.24.72.28.34.7.54-.05.82.7v.7l-.89 1.3-.78.87-.86.5-.66.68-.3 1.24-.57.19-.5.57-.15.55-.54.54.08.54-.8.21-.55.82-1.21.53-1.05.15-.58.71-1.34.04-.79-.15-1.08-.54-.1.29.73.58 1.24.35.17.73-.1.84-.42.73-.98.54-9.5-1.8.03.3-.85.66-.95 2.24-1.22.61-.04.36 1.94 1 .39.44.6 2.13.73.24.48.43.72 1.13.1.47.99.4-.66.37-.93 1.4-.08.59.55 1.37.5.88-.23.81.3.98-.1 1.79.77.5-1.2.94-1.5 1.7-1.4 1.2-1.78 1.07-.85.24-1.24 1.03-1.45.22-1.04 1.14-.15.72 9.5.07.03 13.48-3.67-.01-.52.52-.05.64-1.78-.2-4.18.1-.05 4.14h-2l-.17 10.42h-2.01l-.04 4.18h2.05l.02 4.17h1.03l.02 2.08 1.02.01v6.25h-.27l.02 2-.08 2.6h2.06v-.44l4.2.05.24 12.51h2l.02 8.68-.04 7.44-4.47-3.9-.66-.5-8.33-7.6-4.85-4.26-10.2-9.07-11.8-10.44-9.83-8.71-13.97-12.4-10.8-9.5z"/>
    <path region="7" short-name="State Assembly District 40" long-name="State Assembly District 40" value="1" d="m167.17 417.07 13.8.01v-.78l2.1-.03-.05-2.09 1.03-.02v-1.04l1.05-.02V412H187v-1.04l2.36-.16-.22-.57-.15-1.66-1.78-10.98.18-1.6.82-1.5 1.4-.98 2.26-.75.45-.48.16-.71-.07-.99.73-1.1 1.42-.75.83-.58.4-.6.4-1.01.34.32h1.63l-.25-.5.16-1.34-.93-1.3.7-.62 2.18-2.6.54-.01 1.06-.94-.03-1.05-1.05-.06.05-2.08-1.03-.03v-1.23l-.53-.03-.01-.82-.56-.5-.61-.03-.8-1.3-.13-.44.2-1.15.65-1.56.35-.64 1.25-1.17.29-.51h1.38v-.53h.6v-.51l1.08.2.96.84.84.2.55.42 1.3.05 1.2-.67h1.01l.75.28.81-.43.07-.7.34-.57.78-.67.36-.84 1.05-1.38 1.18-.7 1.33-.41.52-.3 2.06-1.24 1.09-.4.46.39.63-.72 1.76.27.4.26.92-.01.51-.26 1 .18.46-.38 1.07-.24.4.18.37-.57-.21-.86.3-.38.12-.85 1.12-.68 1.55.58.82-.42h1.58l.96-.4.96.12 1.4.59.33-.31.87-.07.96.2.42-.1.58-1.15.68-.32 2.08.15.77-.54 1.15-.45.51-.58.39.03.43-.58 1.24-.5.85-.84.93-.24-3.37 6.32-8.42 15.85-5.78 10.9-4.28 8.08-5.66 3.13-4.53 2.43-8.62 4.69-7.23 2.27 3.33 6.02 3.83 2.05 7.55.02 2.1.07.24.64-.15 1.65-.68 1.91-.49 1.06-.4.42.32.4-.03.81.31.68.93.78-.04.63.37 1.94-.09 1.11.26 1.15.6.48.15 1.13-.13.84-12.07-.04-2.04.18-2.06-.02-6.28.01v-2.1h-1.01v-2.09l-4.79.03-8.97.14-13.28.02z"/>
    <path region="8" short-name="State Assembly District 1" long-name="State Assembly District 1" value="1" d="m706.84 816.94-.1 5.4.5.2 2.53.06-.06 1.29h-.94l-.01 1 1 .02.03 4.09v1.02h-2.03l.13-.43.67-.59-2.82.02.01-2.05-.5-.5-1.51-.01.04-1.55.78-.68-.83-.83-.03-1.56h1.04v-.98l-2.03-.05-1.87.16-.08-2.13.01-1.7-.55-.3z"/>
    <path region="9" short-name="State Assembly District 19" long-name="State Assembly District 19" value="1" d="M706.84 816.94v-.16l6 .06 2.08-.15h1.93l-.1-1.94-.65-.94-.15-1.62-1.08-.8-.01-.3-.95-.92-1.07-.76-.31-.97-.64-1.04-1.1-.55-.3-.85-.43-.5-.4-.85-.4-.23-.1-.66-.44-.27.87-1.47.2-.6.47-.4.33-.78.92-.34.58-.59.33-1.37.24-.22.2-.94 1.02-.06.67-1.02.12-.62 13.76-.02.89.98.78.23 1.04.06.22-1.27h9.14l-.03-12.07-.36-26.1h-.15l-.04-12-.05-.16h7.84l4.64-.02.03 1.34 66.25.07h7.63l5.57.03.13 21.5.19 9.58.31 17.23.2 3.66.04 4.36-.05 8.17-.17 6.61.07 2.26-.15 3.28v2.55l.17 3.64v7.42l-1.54.65-1.17 1.52-1.45 3.8-1.17 1.78-.59 2.28-1.16.2-1.08.63-.47.73.03.78 1.01 1.11-.86 1.39-.49 1.41-.8 1.36-.56 1.73.15 1.29-.38.92-.71.4-.14.98-.61.56-1.46-.51-.99.01-2 .93-2.31.72-1.62.03-.78.24-.97-.32-2.15-1.42-.4-.47-.48-1.1-.18-1.2-.82-.04-1.41-.65-.29-.55-.7-.4-1.36-.03-.28-.4.22-.77.55-.5.37-.8-.3-.96-2.45-3.18-.65-.18-1.16-1.61-1.56-1.3-1.25-2.04-.48-.15-.78.32-1.88-.61-1.2-.17-.69.26-.88 1.08-2.3 1.62-.38-.06-.55-.68-.5-.98-.8-.23-.55.11-1.7 1.27-1.67.43-.66-.08-.42-.38.15-.88.76-.6-.08-.53-.78-.72-.7-.15-1.62.42-1.16-.56-1.06.15-.74-.23-.65.2-1.1-.02-.95.6-1.89.72-1.58 1.38-.54.26-.57-.3-.36-.74-.75-.7-.7.92-.37.06-2.01 1.52-.7 1.09-.84.04-.88.84-.32.1-1.23-.46-1.12.57-1.52.1-2.1.45-1.22 1.02-.69 1.04-.17.66.4.79.88 1.17.79 1.66.06.7-.76 1.09.04.8.24.31.84.01.98.85.1.57-.7.81-.89.76-1.41-.05-1.12.19-.62.6-.67-.3-1.98.56-1.1-.09-1.7.38-.77.84h-.28v-1.5l-5.92-.02v4.03h-3.97v.8l-.68-.63-1.16-.33-2.89-.05-4.45.02-.02-2 1.99-.01v-2l1.97-.01-.47-.44.45-.49.01-4.08.08-2.78.27-.42.2.13 1.47-.03.17-.82 1.77-.96 1.14-.46.41-.36.52-.9.63-1.82-.6-.8.13-1.36-.4-.6-.12-.6.97-.59.93-.35.4-1.1-.04-.45-.5-.43-.62-.06-1.13-1.07-.34-.67-.28-1.08-.37-.77-.3-1.13-.54-.65-1.4-.95-1.18-.65-1.34-.06-.77.17-.85.41-.96.2-.4-.26-1.43.44-1.05.11-.04-.51h-2l.08-1.08.13-2.2.4-.12.07-1.54.03-.33 1.35-.16.24-.7-.06-2.46-.58-.1-.5-.76.1-.88-1.06-.65-1.22-1.2-.78-.06-4.09-.01-.7.12-1.42-.1-.6.15-2.36-.01-2.1-.45-2.52-.05-.51-.22z"/>
    <path region="10" short-name="State Assembly District 35" long-name="State Assembly District 35" value="1" d="m690.58 859.89 2 .41 2.1.03 2.65-.02 1.33-.28-.01 3.28h4.02l-.04-1.03h2.03l-.02-1.03 1.04.08-.1 7.05-.03.95-6.88-.04-2.91.17-4.88.1v-3.93l-.29-.96z"/>
    <path region="11" short-name="State Assembly District 36" long-name="State Assembly District 36" value="1" d="m739.87 744.73.05.16.04 12h.15l.36 26.1.03 12.06-9.13.01-.23 1.27-1.04-.06-.78-.23-.89-.98-13.76.02-.12.62-.67 1.02-1.03.06-.19.94-.24.22-.33 1.37-.58.6-.92.33-.33.78-.46.4-.2.6-.88 1.47.45.27.08.66.42.23.4.85.42.5.3.85 1.1.55.64 1.04.32.97 1.06.76.95.92.01.3 1.08.8.15 1.62.65.94.1 1.94h-1.93l-2.09.15-6-.06v.16l-6.61-.1.55.3v1.7l-1.95-.13h-2.03l-1.3.56-.75-.06.01-.51h-3.14l-.64-.89-.27.16-.02 4.77.01.52-2.07.01.02 5.61-.12 1.96.02 1.87-1.52.02.02 1.76.76.23-.18 1.93.13 1.4-.6.12-.74-.11-.25.96.15.92-.44.45-.86.4.55.58 1 .3.06 1.77.26-.02.02 1.2-.23.58-.24 2.09.16.83-.04 1.3.01 8.85 1.79.54 1.15.46 1.07.62.02 4.78.29.96v3.93l4.88-.1 2.91-.17 6.88.04.02-.95.98-.54v.47l-.2 1.23-.7 1.3-.88 1.3-.58 1.03-1.68 2.68-.82 1.44h1.04l-.05 2.26.18 9.97h-.25l-.11 8.4-.25 2.52.23 1.21-.05 9.27.2.47.07 8.13-9.41.04-8.68.02-3.93-3.82-.93-1-9.82-9.4-13.95-13.57-.18-.25-2.3-2.18-2.34-2.32-9.14-8.65-11.4-11.08-4.46-4.18-9.16-8.79-13.24-12.73-.4-.36-11.18-10.69 3.3.03 1.58.17h6.54l.3-.72 1.22-.63v-.72h1.56l-.07-2.03 19.26.02.05-21.81-.03-22.05-.04-14.5-.14-22.02h1.4v-1.38l2.29.43.03-.31 2.37.86.36.4 10.99.03-.01-1.56 87.6-.05z"/>
    <path region="12" short-name="State Assembly District 23" long-name="State Assembly District 23" value="1" d="m684.61 919.58 8.68-.02 9.41-.04-.07-8.13-.2-.47.05-9.27-.23-1.2.25-2.52.1-8.41h.26l-.18-9.97.05-2.26h-1.04l.82-1.44 1.68-2.68.58-1.04.89-1.3.69-1.29.2-1.23 1.62-.07 1 .36 2.9.05-.1-1.9-.35-1.09.7-.72.04-.67 1.19.04 1.02-.15.03 1.14 5.9.05.01-2 5.94.04.03 2 4.45-.01 2.9.05 1.15.33.68.63v-.8h3.97v-4.03l5.91.02v1.5h.3l.76-.84 1.7-.38 1.1.1 1.97-.57.68.3.62-.6 1.12-.2 1.41.06-.4.33-.3.94.38 2-.43.96.35 1.3 1.2 1.86.03.36 1.9 3.82.56.53-.1 2.17.91 1.45 2.5 2.35.66.92.98.6.07.62-.8.57-1.37.24-1.05.64-.33.58-1.03.26-.33.49.48 1.13.78 1.17-.1.5-.84 1.94-.7.6-.24.56 1.47 2.2-.27 2.9.63 1.8-.18 3.07-.9 3.02v.47l.44 1 .6.63 1.5 1.08.22.63-.17.8-.9 1.8.14 2.04 1.27 1.16 1.01 1.89.28.78.74.39.67 1.2-.1 1.81-.55 1.4-1.75.93v.31l.73.55.58 1.26.3 3.32.35.63.02.56-.76 1.4-.8.36-.67.9-.17 1.94.32 1.4.44.89-.14 1 .8.93-.1 1.17.34.66.03.94 1.07 1.63.14.7 2.9 2.9.66 1.75.35 2.29.73 1.37.6 1.6 1.19 4.68-.26 3.73 1.15 4.73.47 4.14.3 1.64.03 1.43.58.5.3.73.32 2.34-.03 2.89-.5 2.52.16.59-.64 1.46-.78.52-1.4.45-2.63.08-1.22.55-1.35 1.53-.26.55.43.73 2.27 1.07 1.05.76.94 1.13.2.85-.42 1.32-2.28 1.94-.6.97-.5 1.26-.12 1.06.15 1.6.36.95-9.38-9.3-7.86-7.8-4.46-4.37-10.9-10.63-2.53-2.48-5.2-5.1-5.42-5.21-4.54-4.5-2.15-1.93-6.33-6.23-.56-.66-11.88-11.62z"/>
    <path region="13" short-name="State Assembly District 20" long-name="State Assembly District 20" value="1" d="m712.6 845.2 3.3.03-.01-1.04h3.66l.05 3.04-1.99.03.03 1h-1l.06 1.02-1.1.01.05 2.01-2.08-.1v-.95l-1 .03-.5-.53v-.5l-1.51-.06-.1-1.9.1-2.08z"/>
    <path region="14" short-name="State Assembly District 24" long-name="State Assembly District 24" value="1" d="M190.15 360.63h1.03l.17.72v2.05h.45l.86.42-.46.55.42.89.38.32 1.33.58-.32 1.82.29.6 1.17.47 2.02.5.29-.28-.66 1.56-.2 1.15.13.43.81 1.3-.77-.59-2.16-.6-.02-.34-2.02-.05.1-.86-.38-1.13-.85-.6-1.52.02-.45.51h-2.01l-.93-.1.3-1.08-.11-.36v-2.1l.23-.6-.25-.93-.44-.32 1.5-.76-.52-1.72-.39-.63 2.13-.3z"/>
    <path region="15" short-name="State Assembly District 3" long-name="State Assembly District 3" value="1" d="m695.2 828.82.52.02.01-1.04h-.6v-.51h.6v-.51l1.77-.01 1.54 2.13 1.62.17v1.65l-.1.2 1.61 2.2 2.17 2.98-1 .01-.5.2v1.82l-1.98.03-.03-1.07-1.02-.01.01-1.01-1-.02-.02-3.07h-1.02v-1.04h-1.03l-.01-1.03-2.06-.09v-1h.52z"/>
    <path region="16" short-name="State Assembly District 11" long-name="State Assembly District 11" value="1" d="m707.9 838.94.89.13.98-.17 1.27-2.31.89-1 1.9-1.38v-.02l1.01-.7-.8.56.07.18.03.6.1.22h.62l.02 4.11h1.98l.02 1.72-.2.28-4.1.04h-4.62l-.59-.03v-1h.52z"/>
    <path region="17" short-name="State Assembly District 30" long-name="State Assembly District 30" value="1" d="m195.91 359.15-.27.74.85-.01.9-.27v.97l1.04.07-.02-1.04h1.44l.58-.23.57.64 2.15 1.53.52.27v4.08l-.53-.53-.92-.01.51.74-1.08-.2v.53l-.6-.01v.54l-1.38-.01-.3.51-1.23 1.17-.36.64-.3.28-2-.5-1.18-.46-.29-.6.32-1.83-1.33-.58-.38-.32-.42-.89.46-.55-.86-.42h-.45v-2.05l-.16-.72h-1.04l.01-.9.83.46.93-1.05.37.26 3.39-.08z"/>
    <path region="18" short-name="State Assembly District 9" long-name="State Assembly District 9" value="1" d="m686.59 848.12 2.5-.25.18.35.7-.24.7.53-.02.78 1.5.02v.51l-.01.52h1.38l-.07 1.03h1.22v.5l-.52.01-.02 2.04.53.06.07 5.3-.06 1.05-2.08-.03-2.01-.41-1.07-.63-1.16-.45-1.79-.54v-8.85z"/>
    <path region="19" short-name="State Assembly District 41" long-name="State Assembly District 41" value="1" d="m705.68 861.33.03-.58.9-.02v-3.45h2.5v-1.53l1.01-.02.04-.51.65 1.48.16 1.56h-.33l-.03 2.02 1 .01-.03 1h-1l-.02 1.96-.18.57.19.54 1.2-1.07.59.98-.05.67-.7.72.37 1.08.09 1.9-2.9-.04-1-.36-1.62.07v-.47l-.98.54z"/>
    <path region="20" short-name="State Assembly District 10" long-name="State Assembly District 10" value="1" d="m697.83 841.14 3.01-.01.02-2.98 1.98-.02 2.02-.04v.72l.53.13 1.9-.1.6.1v1.22h-.52v1.01l.6.02-.17.55-2.08 2.95-1.63-.03.02.5-1.5.01v-1.5l-1.9.06.01 1.04-2-.03-2.01.05-.25-.52v-1l-.75-.02-.14-2.09z"/>
    <path region="21" short-name="State Assembly District 12" long-name="State Assembly District 12" value="1" d="m720.94 839.03.02-2.85.09-1.17.78.14.11-1.13.98.04-.08 1.09 2-.01.04.51 1.05-.1 1.43-.45.4.26.96-.2.85-.41.77-.18 1.34.06 1.18.66 1.4.95.53.65.3 1.13.38.77.28 1.07.34.68 1.13 1.07.62.06.5.43.04.45-.4 1.1-.93.35-.97.6.11.6.41.59-.13 1.35.6.81-.63 1.83-.52.9-.41.35-1.14.46-1.77.96-.17.82-1.47.03-.2-.13-.9.13-3.33.03.02-1.6.12-.72h-2.11l-.01-1.02-.58-.59-.11-.62-.96-.97-.34-.95v-1.65h-.48l-.53-1.03h-1l-.63-.78-.02-.85-.47-.64-.6-.32.05-.44 1.98-.04z"/>
    <path region="22" short-name="State Assembly District 37" long-name="State Assembly District 37" value="1" d="m688.64 828.88 1.73-.01-.8 1.31-.04.8 3.09-.15.01-1h1.02v-1.01h1.56l-.01 1h-.52v1l2.06.09.02 1.02 1.02.01v1.03h1.02l.03 3.08-2.15-.02-.98-.13.03.47-.32.69h-1.67l.17-.92.41-.62-.5-.4-.97-.4-.89-.08-.73.27-1.1-.13-.42 1.61-.4-.03-1.23.33-.46-.04.18-1.93-.76-.23-.01-1.76 1.5-.02-.01-1.87z"/>
    <path region="23" short-name="State Assembly District 16" long-name="State Assembly District 16" value="1" d="M702.62 847.17h2.19l.35.12-.89 1.9 1.39.03 4.9-.03 1.5.07v.5l.51.52 1-.03v.94l2.08.11-.02.97.51.03-.02 1.02.53.02-.29 1.65.27.9-.9-.28-1.08.15-2 .02-.01-.5-1.04-.11-1.44.05-.03.5-1.02.03v1.52h-2.5l-1.18-.12-.82.36-1.97 1.12v-2.37h-.62l.44-1-1.73.07.05-1.44-2 .02-.06-3.55h1v-2.03l1.96-.07v-1.02z"/>
    <path region="24" short-name="State Assembly District 17" long-name="State Assembly District 17" value="1" d="m709.77 822.6 2.1.45h2.37l.59-.13 1.43.09.7-.13 4.08.02.78.05 1.22 1.21 1.05.65-.09.88.5.77.58.09.06 2.45-.24.7-1.35.17-.03.33-2.09 2.44-.44-.3-.76.6-.72-.2-.23-.84-.38.04v-2.05h-1.99l-6.06.1-.02-.47-.54-.03-.5-.5-.02-4.08-1.01-.01.01-1.02.94.01z"/>
    <path region="25" short-name="State Assembly District 27" long-name="State Assembly District 27" value="1" d="m182.42 348.15-.9 1.38.19 1.05.52.14.65-1 1.12-.02.48 1.14.12 1.32-.29.55 1.5 1.64.11-.55.56-.57 2.02-.01.62-.95.02-1.11h.73l-.49-1.31.94-.12.87.1 1.59 1.43 2.03.08v.44l.52.46 1.9-.08.33.94-1.5 4.62-.15 1.43-.23.17-3.4.08-.37-.26-.92 1.05-.83-.45v.9l-.86.53-2.13.3.39.63.53 1.72-1.5.76-.82.3-1.63.08-.52.92-.54-.05-.3-2.2.27-.59-.36-.32-2.1-.27-1.83-.66.07-8.47h-2.11v-2.7l.5-.08 3.6 1 .06-3.36.68.12z"/>
    <path region="26" short-name="State Assembly District 28" long-name="State Assembly District 28" value="1" d="m714.84 833.48 1.03.07v-.82l1.03-.75 2-1.45v1.4l.38-.02.23.82.72.21.76-.6.44.3 2.09-2.44-.07 1.54-.4.11-.13 2.2-.98-.03-.11 1.13-.78-.13-.1 1.16v2.86l-4.09.12h-1.98l-.02-4.11h-.62l-.1-.22-.03-.6-.07-.18z"/>
    <path region="27" short-name="State Assembly District 13" long-name="State Assembly District 13" value="1" d="m700.76 818.84.08 2.13 1.87-.17 2.03.06v.98h-1.04l.03 1.56.83.83-.78.68-4 .06-.01.5-2.01-.14.03-2.37-3.06-.16-2.03-.02v1.01l-1-.01v-1.01l-1.02-.03.02-4.77.27-.16.64.88h3.14v.52l.75.06 1.3-.56h2.01z"/>
    <path region="28" short-name="State Assembly District 22" long-name="State Assembly District 22" value="1" d="m718.84 859.35 1.74-.26-.02 1.04 2.54-.04 1.7-.37.05-.5.67-.15.01-.77 1.72-.28-.15-1.21-.63-.69.06-2.31v-.48l3.32-.03.91-.13-.27.42-.08 2.78v4.08l-.46.49.47.44-1.97.01v2h-2l-5.94-.03v1.99l-5.91-.05-.03-1.14-.1-.6-1.83-1.92-.04-1.34h2.01l1.03.34.94.05-.01.64 2.19.04-.25-.4.32-.46z"/>
    <path region="29" short-name="State Assembly District 29" long-name="State Assembly District 29" value="1" d="M715.65 851.3h2.04l1.02-.33.63.12 1.52.92.43.4.45.84 2.18.06.65.72.57-.22h1.39l-.06 2.31.63.69.15 1.21-1.72.28-.01.77-.67.16-.04.5-1.71.36-2.54.04.02-1.04-1.74.26-.1-.55-.55-.75-.13-1.72-1.43-.45-.27-.89.29-1.65-.53-.02.02-1.02-.51-.03z"/>
    <path region="30" short-name="State Assembly District 7" long-name="State Assembly District 7" value="1" d="m700.66 829.07 5.08-.05 2.82-.02-.67.6-.13.43 2.03-.01v-1.03l.5.5.54.03.02.48 6.06-.11h2v.64l-2.01 1.45-.08-.77-.86.3v.5h-1.13v-1l-1.47.01-.44.47-.94 1.56-2.1-.04-7.7.11-1.62-2.2.1-.2z"/>
    <path region="31" short-name="State Assembly District 5" long-name="State Assembly District 5" value="1" d="m693.69 840.09.2.08 4.14-.04-.2 1.01-2.26.02.14 2.1.75.01v1l.25.52v1.5l-1-.02-.01 1.02-1-.03-.03 4.1h-1.22l.07-1.03-1.38.01v-.52h.51l.03-4.63h-2.02l-.08-4.02 2.73-.01.09-.71z"/>
    <path region="32" short-name="State Assembly District 14" long-name="State Assembly District 14" value="1" d="m712.58 841.2 4.1-.04.2-.28-.02-1.72 4.08-.12-.08 2.07-1.98.04-.06.44.61.32.47.64.02.85.64.78-1.01.01h-3.66l.02 1.04-3.3-.03z"/>
    <path region="33" short-name="State Assembly District 8" long-name="State Assembly District 8" value="1" d="m694.65 853.98 4.12-.07 2.01-.02-.05 1.44 1.73-.07-.44 1h.62v2.37l1.97-1.12.82-.36 1.17.13v3.45l-.9.02-.02.58-1.04-.08.02 1.02-2.03.01.04 1.04h-4.02v-3.29l-1.32.28-2.66.02.06-1.06z"/>
    <path region="34" short-name="State Assembly District 25" long-name="State Assembly District 25" value="1" d="m173.14 367.05 1.15.24-.02-1.82 1.03-.28.48-.93.4.02.42-.7.67-.28v-.54l.65-1.18.84.2 1.84.67 2.1.27.35.33-.27.58.3 2.2.54.05.52-.92 1.63-.08.81-.3.44.33.25.92-.23.6v2.1l.1.36-.3 1.08.94.1h2.01l.45-.5 1.52-.03.85.6.37 1.13-.1.87.08.95.53.31-.58 1.28-1.07.62-.79.01v.6l-.39.68-.6.34-.96-.03v-.48l-1.11.13-.73-.24-.53-1.07-1.74-1.74-1.04-1.15-.41.27-.5-.3-.13-.65-3.67-1.75-.4-.72-8.16-.04-.06-1.2.93-.4.1-.34z"/>
    <path region="35" short-name="State Assembly District 26" long-name="State Assembly District 26" value="1" d="m167.46 363.82 2.42-.02.45.26-.07.82 1.35.02.54.56.08.54 1.04.87-.13.18-1.5.17-.09.34-.93.4.05 1.2 8.17.04.4.72 3.67 1.75.13.65.5.3.41-.27 1.04 1.15 1.74 1.74.53 1.07.73.24 1.1-.13v.48l.97.03.6-.34.39-.68v-.6h.8l1.06-.63.58-1.28-.53-.31-.07-.95 2.02.04.02.34 2.16.6.77.6.61.04.56.5.01.81.53.03v1.23l1.03.03-.05 2.08 1.05.06.03 1.05-1.06.94-.54.02-2.17 2.6-.71.6.93 1.3-.16 1.35.25.5h-1.63l-.35-.32-.38 1-.41.62-.83.58-1.42.74-.73 1.1.07.99-.16.71-.45.48-2.26.75-1.4.98-.82 1.5-.18 1.6 1.78 10.98.15 1.66.22.57-2.36.16V412h-1.92v1.1l-1.04.02v1.04l-1.03.02.04 2.09-2.08.03v.78l-13.81-.01-.14-8.59-.08-6.77.02-10 .24-13.63z"/>
    <path region="36" short-name="State Assembly District 31" long-name="State Assembly District 31" value="1" d="m182.42 348.15 1-.57 1.32-.04.36-.28 1.28.05.48-.14-.02-1.72-.43-1.2.73-.36 2.3-.03 1.3-.6.86.62.5 1.51.4.51.65-.03.37-.96h1.17v2.1l2.64-.01v-2.1h-2.11v-2.1l3.24-.01.49.18.73-.39 1.27 1.23-.52 3.09 3.2.03.01 2.14 6.3.04 2.72-.02 1.08-.47.4.46h1.69l.01 11.46-.06.7-.52.29-1.33.4-1.18.7-1.05 1.39-.36.84-.78.67-.34.57-.07.7-.81.43-.75-.28h-1l-1.2.67-1.31-.05-.55-.41-.84-.21-.96-.85-.5-.74.91.01.53.53v-4.08l-.52-.27-2.15-1.53-.57-.64-.58.22h-1.44l.02 1.05-1.04-.07v-.97l-.9.27h-.85l.27-.73.14-1.43 1.51-4.62-.33-.94-1.9.08-.52-.46v-.44l-2.03-.08-1.6-1.43-.86-.1-.93.12.48 1.31h-.73l-.02 1.1-.62.96-2.02.01-.56.57-.1.55-1.5-1.64.28-.55-.12-1.32-.48-1.14-1.11.01-.66 1-.52-.13-.18-1.05z"/>
    <path region="37" short-name="State Assembly District 4" long-name="State Assembly District 4" value="1" d="m690.68 822.74 1.02.03v1l1 .02v-1.01l2.03.02 3.06.16-.03 2.37 2 .13.01-.49 4-.06-.03 1.55h1.52l.5.5-.02 2.06-5.08.05-1.62-.17-1.54-2.13h-1.77v.52h-.6v.5l.6.01v1.04l-.52-.02h-1.55v1.01h-1.03l-.01 1-3.09.14.05-.79.8-1.31-1.74.01-.02-5.6 2.07-.02z"/>
    <path region="38" short-name="State Assembly District 6" long-name="State Assembly District 6" value="1" d="m716.9 831.98-1.03.75v.82l-1.03-.07-1.01.71v.02l-1.9 1.38-.9 1-1.26 2.31-.98.17-.9-.13-.6-.1-1.9.1-.53-.13v-.72l-2.02.04v-1.82l.5-.2 1-.01-2.17-2.98 7.7-.11 2.11.04.94-1.56.44-.47h1.47v1l1.14-.01v-.5l.85-.3z"/>
    <path region="39" short-name="State Assembly District 18" long-name="State Assembly District 18" value="1" d="m719.55 844.2 1-.03h1l.53 1.04h.49v1.65l.33.95.96.97.1.62.59.59v1.02h2.12l-.12.72-.01 1.6-.01.48h-1.39l-.57.22-.65-.72-2.18-.06-.45-.84-.42-.4-1.53-.92-.63-.12-1.02.33h-2.04l-.05-2 1.1-.02-.07-1.02h1.01l-.03-1 1.99-.03z"/>
    <path region="40" short-name="State Assembly District 42" long-name="State Assembly District 42" value="1" d="m694.67 851.36.02-4.1 1 .03.01-1.02 1 .02v-1.5l2.01-.05 2.01.03-.02-1.04 1.91-.06v3.5l-.93.07v1.02l-1.96.07v2.02l-1 .01.05 3.56-4.11.06-.53-.06.02-2.04h.52z"/>
    <path region="41" short-name="State Assembly District 21" long-name="State Assembly District 21" value="1" d="m710.16 855.22 1.44-.05 1.04.1v.51l2-.02 1.1-.15.9.27 1.42.45.13 1.72.55.75.1.55-.02 1.16-.3.46.24.4-2.2-.04.02-.64-.94-.06-1.03-.34h-2l.03 1.35 1.83 1.91.1.61-1.02.15-1.19-.04-.58-.98-1.21 1.07-.2-.54.19-.57.02-1.96h1l.03-1h-1l.03-2.04h.33l-.16-1.55z"/>
  </g>
</svg>
