<svg map="usa" type="ma_upper" date="2022" variant="blank" title="Massachusetts 2022 State Senate" viewBox="0 0 1000 620.37" auto-border-stroke-width="1" auto-border-stroke-width-limit=".5" original-source='["https://www2.census.gov/geo/tiger/GENZ2022/shp/cb_2022_us_sldl_500k.zip"]' candidates="[{&quot;id&quot;:&quot;0&quot;, &quot;name&quot;:&quot;Democrats&quot;, &quot;margins&quot;: [{ &quot;color&quot;: &quot;#1C408C&quot; }, { &quot;color&quot;: &quot;#577CCC&quot; }, { &quot;color&quot;: &quot;#8AAFFF&quot; }, { &quot;color&quot;: &quot;#949BB3&quot; }]},{&quot;id&quot;:&quot;1&quot;, &quot;name&quot;:&quot;Republicans&quot;, &quot;margins&quot;: [{ &quot;color&quot;: &quot;#BF1D29&quot; }, { &quot;color&quot;: &quot;#FF5865&quot; }, { &quot;color&quot;: &quot;#FF8B98&quot; }, { &quot;color&quot;: &quot;#CF8980&quot; }]}]" version="1.1" xmlns="http://www.w3.org/2000/svg">
  <g regions transform="translate(0 -189.81)">
    <path region="0" short-name="Hampden-Hampshire-Worcester" long-name="Hampden-Hampshire-Worcester District" value="1" d="m250.91 417.97 2.19-1.06 3.95-4.65 5.21-1.56 1.22.25 5.67-.7 3.76.77.9.82 1.83-.27 4.12-1.59 2.41.48 1.25 1.08 4.1-1.8 4.1-.39-2.25-16.4 17.56-2.76 1.1 8.44 3.29-1.08 3.72-.5 6.98-.03 1.17 2.37-.67 2.54.68 1.06-1.13 2.53-.6 2.95-.91 1.03 1.29 1.65.94 2.85 1.12.44-.63 3.51 3.52 2.22-.15 1.64 2.01 1.7-1.6 3.35.72 3.94v3.75l.5 1.59-.27 2.72-.85 2.34.29 1.33 15.27-5.6 1.01.71 2-1.51.64 2.95 2.96-.22 2.97-4.6 7.2-1.2.88-1.26 2.13.52-.18-1.53 7.99-.04 1.45 5.36 1.61 1 4.93 10.31 3.35 17.41-16.05 2.75-.36-2.86-17.68-8.5.64 2.61-.64.82.52 1.85-1.41 1.46-.35 2.9.45 1.79-.62 2.86-.72 1.07-2.47-.12-1.19.85-3.52-1.27-4.61.21-3.46-2.81-1.16-.22-1.3-2.5-2.34-.94-3.12.07-1.7.85-1.38 1.53-4.76.86-1.81-.02 2.68 18.56 3.48 26.52-8.5-.17-16.55-.33-19.96-.12-12.6 1.57-2.55 2.04-6.87-.1-.3-2.19v-3.1l.46-3.3 1.65-3.74 2.42-4.44 2.3-3.23.24-1.29.83-.74 2.98-.58 1.38-.85 2.3.57-.85 3.3 3.03 1.13.54-3.09 1.85.4 3.15-.52-.82-3.32-3.04.8.2-3.71.72-2.14 1.36-1.09 1.3 1.56 4.3-.33 1.55-.6 1.4-2.78 1.15 1.14 2.35-.2 1.24 2.15 1.73-.49 1.77 1.25-2.94-19.64-2.29-2.24-3.34-.36-1.69.64-3.06-.26-2.02 1.1-1.98.31-1.71-.65-3.83.8-1.03-1.32-3.05-.2-1.54.91-3.51-.6-2.11-2.06-.2-1.82 2.57-1.37-.98-2.28-3.28-.58-.14-1.87 2.28-2.3 3.13-.29 1.94.57-.59-3.58 1.5.06.75-1.43-.37-3.23-5.93.85-2.9-.87-1.93-2.1-1.23-2.78-2.05-1.28-.43-1.95 1.68-4.9 2.86-4.61 2.1-1.82.4-1.7-.67-4.29z"/>
    <path region="1" short-name="Second Essex and Middlesex" long-name="Second Essex and Middlesex District" value="1" d="m634.11 272.46 2.46-3.34.92-2.37.36-3.42 1.01-1.92 1.74-1.05 5.47 1.05 1.82.84.94 7.74 9.58-2.2 4.65 1.86.27-1-1.57-1.88.36-2.98-1.53-1.83.96-2.41.8-.38 1-3.49-.2-3.02 4.37-5.75.84-1.7-.24-1.2-3.11-3.96 1.12-1.53.78-3.71 1.83.08 2.94 2.14 2.18-.3 3.3-3.2 4-.75-.9-3.92-1.4-2.5-2.63.2.17 2.14-1.66.56-.67 1.6-1.78.2-2.04 1.75-1.9-.72.27-2.8-3.47-.52-.34 3.86-.87.53.46 2.6-.25 1.95-14.42-12.73 4.66-5.5 4.44-2.58 4.8-2.25 19.08 5.75 2.97-10.23 2.56-5.96 3.7-3.92L710 196.5l4.83-2.7 5.14-3.24 4.52-.76 4.13 14.94-1.22 5.14-2.68-.9-.53-1.69-1.44-.14-1.22.99-2.42 3.97-1.8 2.09-1.52.7-3.38.38-2.2-.5-1.87-1.11-1.76-.25-4.56 1.04-1.59 1.4-.06 2.06.66 2-1.35 2.44-3.23 2.37-1.29 1.83-.64 3.98-4.49 7.87-1.28.72-.55 3.05-1.07 1.1-2.94 5.2-3.7-.08-2.73-1.52-2.95-.12-1.5.67-3.02-.02 17.28 21.61-1.4 1.2 1.01 1.09-.97 2.04-5.64.53-3.6-1.67-2.94.08-.85 1.31-2.5 1.42-2.12-.97-1.1 1.59 11.9 21.6-16.56 1.9 1.37 6.07-1.73 11.25.07.42 1.45 7.79-1.16.69-9.66 5.48-10.16-11.49-.95-.07.26-3.23-2.56-2.46.64-.58.17-3.03 1.12-1.05-23.8-14.93 3.6-1 1.58-2.1.86-3.05.98-5.84-1.1-4.55 3.01-.55 2.28.2 1.7-1.46 2.13-.52z"/>
    <path region="2" short-name="Hampshire-Franklin-Worcester" long-name="Hampshire-Franklin-Worcester District" value="1" d="m232.83 248.34 16.29.62 44.1 1.67 48.2 1.98 45.1 1.52 12.81.53 27.16 1.12 23.09.71.46 2.93 7.64 7.63 1.12-.18.56 1.74 1.67 1.73.39 2.79-.64 14.67-6.53 3.46-.28 1.73-7.71 3.28-.64-.4-9.18 4.88-1.77-6-1.2.17-5.44-6.55-2.85-.1v-.85l-13.67 8.03-3.08 2.67-8.3-8.88-11.41-.53-7.13 1.13-3.42-.07-3.77 8.99 2.06 1.93-1.4 1.8-.58 2.06-2.22-1.9-2.82 15 23.66 25.27-29.11 24.98-3.88 8.4-2.96-1.8-1.92 1.13-.41 2.48-1.77.92-3.87-1.98-1.66 2.6-1.75-1.44-1.02 2.23-2.09 2.22.55 1.54-1.54.58.19 4.39-.58 3.31-4.18 1.69-1.5 1.5-2.28.61-2.3 3.45-.8 1.9-.33 3.03-1.42.4-.82 1.61-1.91.3-1.07 1.66-2.82 2.52-1.3-1.65.93-1.03.59-2.95 1.13-2.53-.68-1.06.67-2.54-1.17-2.37-6.98.03-3.72.5-3.29 1.08-1.1-8.44-17.57 2.76 2.27 16.4-4.1.38-4.11 1.8-1.25-1.07-2.4-.48-4.13 1.59-1.83.27-.9-.82-3.76-.77-5.67.7-1.22-.25-5.2 1.56-3.97 4.65-2.18 1.06-2.74-1.8-2.66 1.83h-1.33l-4.11-2.52-3.2.97-3.3-.35-.02-.64-18.06 2.88-1.25-29.65 19.3-3.26.83-14.51 13.08-2.04 10.27-3.04 1.25.21-2.3-9.85.06-2.93 1.02-3.97-6.64 1.08-.54-2.73-5.68 1.1-.26-1.74-8.48 1.37.57-4.41 3.35-18.38-1.93-4.17-1.5-1.43-.86-1.88-3.16-1.47 5.6-.84.95-5.08 3.66-.53.57-3.02-3.66.42 4.72-26 3.4-.57-.2-1.56-1.54-3.22-1.22-1.25-1.58-2.75-4.09-2.44-1.27-3.92-.11-1.55-1.59-.63-1.06-3-2.33-3.02 1.28-3.25-.6-.97z"/>
    <path region="3" short-name="Third Bristol and Plymouth" long-name="Third Bristol and Plymouth District" value="1" d="m607.2 577.53.15-.4-1.9-7.24.56-6.3 10.63-1.97 21.85-3.22 4 1.27 4-.72 10.74-10.32 8.18-10.66 7.06-9.97 12.9 3.05 1.45 8.25 1.92 1.34 8.96 7.3 3.01 3.91.44-1.62 2.42.75.62-2.02 1.97-1.11 1.86.08 4.84 2.3 2.89.44 2.04-3.26.55-1.48.23-3.05 1.06-2.08 2.3.03.57-1.3 1.95.13 1.75-1.6 11 6.8 2.31-2.52 4.26 4.61 4.42 5.64 16.23-6.92 3.64-.52 2.24 8.1 18.75 28.93-.07 1.52-2.78 3.2-.4 1.33-1.55 1.5-1.2-.27-.99 2.07-1.8 2.42-.6 2.79-.1 3.19 23.98-1.8 4.2.34-3 6.77-.91.17.44 2.8-.29 1.84-1.74 2.07 1.05 2.27 3.06 5.22-3.1 4.2.04 1.53-1.9 2.11-1.04 3.9-1.6-.16-.46 1.73-2.79 3.12-3.8 5.12-.58-.48 5.57-7.75-2.18-1.06-1.8-2.13-2.46-2.07-1.85.13-.67 1.27-2.46-2.06-2.54.08-2.5-1.28-1.01-1.25-2.12 1.13 1.54 1.91-.04 1.65-2.12.13 2.02 3.7 1.8 1 .8 1.23-.62 1.98-2.38-.79-1.32.53 1.2 2.4 1.6.76-.25 1.43.92 3.42-1.81-.17-2.2-2.5-2.85-1.35-1.33-2.33-3.07 1.37.82 1.55.92 3.66-.92.73-1.66-.8-1.34 1.22-6.4 1.08-4.71-4.73 1.08-8.62.8-6.83 1.25-1.58-.56-.8.14-3.16 2.08-1.58-.48-.9.24-2.65 3.42-4.76-1.15-8.32.2-1.87 1.38-2 .31-2.55-34.82 5.47-.63-7.7 1.38-5.13-6.98-8.77 1.16-2.87-.14-2.52.52-1.36-.88-.99-.8-2.42-12.33-6.51-1.06-1.83-2.66-.05-2.38-2.28-.58.62 2.82 11.5.96 5.36-1.28 1.36-2.09 1.2-2.83 2.64-11.36 11.43-14.5-.47-1.3 1.85 1.24 1.4.27 2.48-2.15 1.24-1.73 2.1-.4 1.5-3.2 4.04-1.43-4.56-3.79.3-10.6.3-1.42-9.95-4.84-.23 1.61 12.5-26.76 3.13-9.16-.26-3.22-1.87-.88-3.61-.8-1.64-1.5-.67-.42-1.46.44-3.3-2.23-5.28.64-1.84 2.71-2.81-1.95-3.5z"/>
    <path region="4" short-name="Second Bristol and Plymouth" long-name="Second Bristol and Plymouth District" value="1" d="m746.53 674.44 1.6-.81 1.67 1.86-.41 1.2.56 1.71 1.42.34-1.32 2.98-1.79-.65-2.48-4.43zm10.25-40.29-1.08 8.62 4.7 4.73 6.4-1.08.37 1.64 1.44 2.25-1.46.53 1.05 1.6.31 3.11-1.5.07-1.12 1.6-.8 2.73-1.21-1.46-.86-2.14-3.94-.92-1.23.86-1.99-1.8-1.86-1-3.52 1.34-.46 2.19 5.2 2.92 1.24 3.52-.24.83-2.57 1.74-2.07.54-1.23-1.52-1.6 1.07-2.1.04-2.47-1.67-4.33 1.82 1.27.85.4 2.94 1.13 1.4.46 2.71 1.33 2.4-1.17.43-2.6 4.37-.98-4.08-.96-1.11.2-2.34-1.66-4.04.15-2.99-1.2-1.92-4.62-1.9-1.5 3.28-3.98.2-1.23 1.61 2.43 3.33 1.65 6.62-.96.4-2.45-1.47-1.61-4.47-1.62-2.56-2.25.4-.2 2.38 1.05 4.79-1.1 3.68-1.76 2.51-1.35-1.51-.4-1.68-1.77.53.9 4.44 2.57 2.8.9 6.15 1.7 3.35-3.71-.13-1.26.95-.46 2.9-1.94.83.63 3.53-1.1 1-1.34-5.32-1.46-.73-3.78 1.53-1.26 2.65.86 2.52-.67 1.79-2.78-.88-2.62-.25-4.49 1.14-.8 1.64-1.76-3.44-1.17-5.25 1.7-.99-1.34-6 .67-4.06-.88-4.36-3.55-6.82v-.92l2.25-3.14-.42-3.75.5-3.42-.03-2.51-2.3-4.68-1.11-1.32-1.49-4.9-2.67-5.08-3.18-4.2-.43-3.52 2.8.7 34.54-22.1 5.8-3.81-1.14-1.5 5.35-1.76.76 2.08 5.03-.84 5.99 22.48 6.12-.54-.1-1.4z"/>
    <path region="5" short-name="Worcester and Hampshire" long-name="Worcester and Hampshire District" value="1" d="m460.78 287.8-1.03 26.93 2.02-.1-.13 2.37-1.93-.16-.13 2.95 7.03.35-1.27 11.8 5.6 3.18-2.16 4.58 28.4 6.46 2.7.66.1 23.9-.9.38-1.23 7.17-4.46 1.3v-2.24l-5.97-2.87-4.01-.02-2.49.54-10.5-2.22 6.18 27.8-15.93 13.15-.3 2.25.9.7.78 2.1-.65 1.69 2.32 2.42 1.81 1.07.74 2.73-2.5 1.94 1.98 2.81.32 2.29 1.73-.55.4 2.1-.88 4.01-8.6 1.06-2.84 4.15-5.29 8.5-12.35 1.2-22.5 2.07.36 3.04-19.78 3.23.74 4.79-6.12 1.07-.8-4.85-8.48 1.3-3.35-17.4-4.93-10.32-1.61-1-1.46-5.36-7.98.04.18 1.53-2.13-.52-.88 1.26-7.2 1.2-2.97 4.6-2.96.22-.65-2.95-1.99 1.51-1.01-.72-15.27 5.6-.3-1.32.86-2.34.28-2.72-.51-1.6v-3.74l-.73-3.94 1.61-3.35-2-1.7.14-1.64-3.52-2.22.63-3.51-1.12-.44-.95-2.85 2.83-2.52 1.06-1.65 1.92-.3.82-1.62 1.42-.4.32-3.03.81-1.9 2.3-3.45 2.27-.62 1.51-1.49 4.18-1.69.58-3.32-.19-4.38 1.54-.58-.55-1.54 2.1-2.22 1-2.23 1.76 1.44 1.66-2.6 3.87 1.98 1.77-.92.4-2.48 1.93-1.13 2.96 1.8 3.88-8.4 29.11-24.98-23.66-25.27 2.82-15 2.22 1.9.58-2.06 1.4-1.8-2.06-1.93 3.77-8.99 3.42.07 7.13-1.13 11.42.53 8.29 8.88 3.08-2.67 13.68-8.03-.01.86 2.85.1 5.44 6.54 1.2-.17 1.77 6 9.18-4.89.64.41 7.7-3.28.3-1.73z"/>
    <path region="6" short-name="First Plymouth and Norfolk" long-name="First Plymouth and Norfolk District" value="1" d="m714.31 416.27 2.64-.94 1.66-1.62.12-2.11 1.65-.46.76 1.55-2.42 2.75-.57 2.65-1.46-.99-1.8.6zm-3.08 16.34.73.42 4.56-2.55 1.96-1.78 2.5-.22.67-2.24-.3-2.2 2.14-1.02 2.46 1.35.53 2.25 3.25.93-.56 1.45 1.4.98.8 1.6 1.6 1.37 1.83-1.08.62-3.2-.9-.78-1.13-3.46-3.12-5.04 2.59 1.4 1.79-.2-1.33-3.73-1.06-1.66-.14-1.92-4.64-1.53-1.8 1-1.45-1.29-2.2.03-.13-1 4.57-1.08 3.27.74 1.79-1.72 1.9.04.4 3.67 2.89 5.67 2.53 3.66 3 2.9 5.59.32 5.4 1.7 6.43 3.4 1.2 2.01 2.27-.14.66-1.98 2.12-.2 1 1.66-.56 2.37 1.14 1.07.15 2.34 3.6 4.98 2.27.83 2.4 3.28 2.31 1.12 1.17-.39 1.42 1.72-.8 3.22-.02 2.17-.77 2 1.1 3.11.13 2.94 2.24 2.13 5.85 11.34 5.98 9.3 6.64 7.42.47 2.66-2.48 1.97-.24 2.97 1.4 6.63 3.45 5.56 2.95 3.37 3.3 5.07-1.98.03-.62-1.5-7.42-10.68-1.82-.13-1.45 1.58-2.33.33-1.39 1.52-.64 5.92 1.16 3.4-.96 1.71-2.2.86-2.23-2.73-2.52-.22-4.58 2.17.33 1.65-3 .14-.68-2.48-1.97-3.12-10.68-1.64 1.15-3.47 1.73-1.1-2.67-4.1-3.55-.62 8.86-18.9-3.52-2.38.8-2.36-1.75-.1-.23-1.57-1.81.3-2.2-1.33-.59 1.79-2.1.72-.6 1.48-1.6-2.34-1.52.34-1.36-1.2-.11-3.71-1.93-1.52-.13-1.1-3.08-.17-2-1-.78-4.1-2.71-4.38-1.23-.26-9.15 1.53-1.67-6.8-.9.73-24.51 12.93 3.4-30.88.58-2.24 1.71-1.33.11-3.1-2.1-1.1.73-3.31z"/>
    <path region="7" short-name="Norfolk and Plymouth" long-name="Norfolk and Plymouth District" value="1" d="m688.7 421.04 1.3-2.88 1.48-.6-.15-1.4-1.6-3.82.64-.47 3.06.64 1.2 2.02 2.04-2.35 2.52-.01.17 2.3-2.28 1.63-2.08-.12-.58.87 1.72 3.16 4.97 2.8.65 2.1 3 .94 1.28-.36 2.05.87 2.37-2.25 2.42-.69.59-1.5 1.35.21-.7 5.15-2.12-.77-1.8 1.83 2.38 1.05-1.35 3.22-.92-.13-.72 3.32 2.1 1.1-.12 3.09-1.71 1.33-.57 2.24-3.41 30.88 24.51-12.93.9-.72 1.68 6.79 9.14-1.53 1.23.26 2.71 4.38.78 4.1 2 1 3.08.18.14 1.09 1.92 1.52.1 3.71 1.37 1.2-2.36 2.86.17 2.2-4.18-.86-4.66 2.1-1.25-.6-1.64.35-.5 1.12-1.77 1.22-.97-.54-1.32 1.25-1.38-.89-7.67 1.42-3.77-5.36-8.61 2.1-8 2.66.08-3.29-1.56-4.9.43-1.82-5.44.92-.94-5.6-5.56 2.92-1.42-1.88-.07-3.46-2.2-1.02 2.01-7.46 1.64-5.11 4.24-.5-.34-3 2.4.9.9-2.8 2.75-2.05.65-2.37-.82-3 1.32-.93 1.19-4.59 1.18-1.6-2.06-5.23-5.85 1.33-2.43 1.34-6.2.3-3.34 4.7.02 3.37-4.33.06-3.77.8-2.47-.04-2.92-3.63 11.22-5.75-2.26-4.99 8.1-6.02-2.67-3.05z"/>
    <path region="8" short-name="Plymouth and Barnstable" long-name="Plymouth and Barnstable District" value="1" d="m808.04 520.35 1.98-.03 2.96 3.4-1.35.9-3.17-1.68-2.37 1.69-2.62 3.48-2.02-.38-.57-4.53.43-1.83 1.6-.46-.14 2.65 1.28 1.32 1.57-1.72 2.8-1.92zm-63.63-30.57 4.66-2.1 4.18.86-.17-2.2 2.36-2.85 1.51-.34 1.61 2.34.6-1.48 2.1-.72.58-1.79 2.2 1.33 1.82-.3.23 1.58 1.75.09-.8 2.36 3.52 2.39-8.86 18.89 3.55.62 2.67 4.1-1.73 1.1-1.15 3.48 10.69 1.63 1.96 3.12.67 2.48 3.01-.14 3.07 1.86.3 4.19 2.23 2.18 2.69.8 1.43 2.59 3.28 4.59 3.15 2.84 1.8 1.2 1.96-.03 2.64.88-2.28-3.5-2.85-5.98-1.21-1.76 1.02-.62 1.06 1.28 3.9 8.33 2.14 3.74 2.08 1.08 2.33-.19 2.81-2.65 4.06-.84 4.41 3.94.5 1.23 3.64 2.47 2.5 1.27 1.71 2-2.38 1.57.13 3.6 3.87 6.6.44 9.04 1.38 2.54-1.95 6.77-1.04 2.25-1.62 1.28-.3 2.55.59 3.26 2.34 4.1 4.26 5.2 6.4 4.76.12 1.63 6.29 4.61 11.66 4.75.42.45 7.91 2.23 4.58.73-2.7 3.72-.78 1.05-17.51 23.57 2.14 2.66 1.27 2.46-2.19 4.17-3.34.79.48 1.7 3.23-.9 1.13 5.11-3.37 5.56-1.1 3.6 1.79 3.01 2.3.4-.1.98-2.95 4.92-4.19 4.97-2.6 1.59-2.14.82-8.13 1.15-1.75.84-2.85-1.7-2.24-.05-3.6 1.15-3.93.54-1.9.98-3.7-.32-2.24 1.13-2.58-.34-6.3 1.77-2.79 2.2-3.63 6.56-1.73-1.19h-1.53l-1.33-2.12-1.53.8-1.92.06-.67-1.06.23-1.98 1.04-1.28 1.92 1.47 2.32-1.47.44-2.63 2.2-1.28 1.2-2.44-.29-2.83.41-2.86 1.3-.24.13-1.52 1.69-.93.5-1.85-.3-2.14-2.91-8.27.12-1.86 1.44-1.24.2-2.32 1.71-1.84-.5-1.78-1.4-2.1.18-2.13-1.2-.36-.07-1.67 2.86-1.04h1.88l2.14-1.4 1.55-1.72-3.13-2.4-2.5 1.58h-1.4l-1.75-1.34-.5-1.51 1.44-1.21 1.71-.32 1.45.68 1.22-.41.05-1.92-1-1.65-2.48-.52-3.39-.04-.09-1.1 3.27-3.5 2.6-1.06 1.44.12 2.98-1.58-1.6-4.67-2.03-.42-2.59-1.3 1.03-3.9 1.9-2.11-.03-1.53 3.1-4.2-3.06-5.22-1.05-2.27 1.74-2.07.29-1.84-.44-2.8.9-.17 3.01-6.77-4.2-.35-23.99 1.8.1-3.18.6-2.8 1.81-2.41 1-2.07 1.2.27 1.53-1.5.41-1.33 2.78-3.2.07-1.52-18.75-28.93-2.24-8.1-3.64.52-16.24 6.92-4.41-5.64-4.26-4.6-.61-.69 11.22-10.4 1.17-4.6 3.3-5.2-1.9-3.4-.36-1.64-5.16 1.66-3.16-8.7-.66-2.31.36-2.35 2.52-1.59-1.98-6.73.35-4.4z"/>
    <path region="9" short-name="Norfolk-Plymouth-Bristol" long-name="Norfolk-Plymouth-Bristol District" value="1" d="m664.12 439.6 2.3-2.75-1.08-1.5 4.76-3.32-.05-2.8-.97-1.24.43-.79 2.18.4 1.6-1.2 2.38-2.56 1.86.4 2.1-.63 2.83-.14.82 1.32 2.33-1.71-.49-1.27 1.62-1.15 1.96.38.3 4.03 2.69 3.05-8.1 6.02 2.25 4.99-11.23 5.75 2.93 3.63 2.47.04 3.77-.8 4.33-.06-.02-3.36 3.34-4.72 6.2-.3 2.43-1.33 5.85-1.33 2.06 5.22-1.19 1.61-1.18 4.6-1.32.93.82 2.99-.65 2.37-2.76 2.06-.9 2.8-2.39-.91.34 3-4.24.5.74-5.85-5.06 1-2.01-.2-1.53 1.74 1.65 4.01-2.25 1.56-.08 3.58-1.1-.12-2.05 5.03-1.98 3.12 2.96 9.5-.25 1.42-5.37 2.88 3.04 17.25 12.24-2.03.8 4.86 9.99-1.65 2.11 13.37 7.15 1.92 3.2-.26 4.8-.87 2.22 1.6 1.22 2.85 3.87.28-.62 5.02-2.81 1.03-.07 1.21 1.24 2.56-.35 1.43-1.75 1.6-1.95-.13-.56 1.3-2.31-.03-1.06 2.08-.23 3.05-.55 1.48-2.04 3.25-2.9-.43-4.83-2.3-1.86-.08-1.97 1.11-.62 2.01-2.42-.74-.44 1.62-3.01-3.9-8.96-7.3-1.92-1.35-1.46-8.25-12.89-3.05-15.53-2.96-3.41-22.61 8.4-4.37-.2-4.67 2.24-5.86-.61-3.86-1.57-3.48-2.59-3.1-.22-3.82 2.34.2.62-1.44 1.88.97 10.11-3.23 8.1-6.09-10.14-13.82z"/>
    <path region="10" short-name="Worcester and Hampden" long-name="Worcester and Hampden District" value="1" d="m381.66 464.83 8.49-1.3.79 4.85 6.12-1.07-.74-4.79 19.78-3.23-.36-3.04 22.5-2.06 12.35-1.2 5.4 8.4 4.95 3.55 6.47.33.96-1.66 1.55-.6.3 3.96-1.32 3.95 23.87-14.17 1.01 1.22 1.89-1.62-.05-1.23 2.9-1.78 1.38 6.98 6.54-1.06 1.06 4.78 3.47-1.01 10.29.05-1.16-2.72 1-.47-1.81-2.86 3.34-.58-2-16.36 6.52-1.6 6.08 1.85-.81 2.96 5.4 8.5 2.96 1.07 4.33.1.3 3.76-.06 1.98-1.7-.52-.35 2.5.55.83-.88 1.77.98 2.55-.64 1.86 7.02 5.8 5.27 5.2 2.62.1 1.11 1.96 1.25.77-.47 2.4.95 2.57 1.23 1.35-.8 2.44-.03 28.67-1.06.07-7.14.76-7.26.2-6.51.14-52.83 1.64-9.28.63-.4-5.83-25.17-.3-2.88-.1-24.1-.85-21.27-.17-20.17-1.1-31.8-.51-18.89-.1-13.92-.29-3.48-26.52-2.68-18.56 1.81.02 4.76-.86 1.38-1.53 1.7-.85 3.12-.07 2.33.95 1.31 2.5 1.16.2 3.46 2.82 4.6-.21 3.53 1.27 1.19-.85 2.47.12.72-1.07.62-2.86-.45-1.8.35-2.89 1.4-1.46-.51-1.85.64-.82-.64-2.6 17.68 8.5.36 2.85z"/>
    <path region="11" short-name="Third Suffolk" long-name="Third Suffolk District" value="1" d="m692.76 365.44 2.2-5.32-1.53-2.44 1.98-2.05 1.9 3 .33 2.88 3.78 1.34 1.99-1.45 2.18 1.35 1.99-2.12 1-2.2 1.53-.3 1.8 1.07-4.42 3.44-2.1 2.87-1.3 2.77-.82 3.63.4 1.7 1.15.21 1.47 4.34 3.13.17-1.1 1.92.27 2.9 1.38 3.7-.72 1.26.65 2.72-.88.67-1.5-2.64 1.32-3.14-.6-.5-4.28 1.28-2.54-1.58-.84.1-.72 2.45 1.42 2.04 2.71-.5.76 1.35-1.18 1.44-1.34.22-2.63-.8-.51 3.28-.62.08-5.56-4.34-.54-1.79-2.34-.15-1.29-1.3-1.17-2.21.7-3.85 1.41-1.37 3.23 1.06 2-1.36 1.24-3.12 1.8-1.62-.94-1.02-2.18-.25-1.58-.98-1.87-3.06zm-17.6 26.42 3.71-1.66 2.37-3.9 2.7.1 2-.72.6.99.23 4.34.39.22-2.72 1.38-2.66-.06-3.34 1.14-1.02 2.98-2.1.7.4-2.7z"/>
    <path region="12" short-name="Third Essex" long-name="Third Essex District" value="1" d="m680.82 315.55 1.69-2.36 2.16-4.5 2.08 1.1 2.3-.92 1.7 1.23.16 1.8.92 5.43 7.34 10.7 5.07 4.2 8.38 5.82 14.12 4.64 3.45-.63 1.13-1.38-.17-1.5 3.38-4.46 1.11.15 3-5.18 1.92-1.1 3.21 1.52.99-.76-.09 4.06-2.58 3.25-.47 2.72 1.66-.33 3.8-4.54.75.86-.75 1.6-.62 3.37-1.56 1.1-1.62-1.48-2.9.45-6.12 4.36-1.9 3.25-.23 2.01-1.95 1.52-2-1.26-1.63.51-.23-1.53-3.88.08-1.6 2.2-2.03 1.13-.7 6.74 1.14 2.52 1.34 1.74.99-.55 3.32.98 1.34.95.2 1.27 1.34.68-.79 1.46-1.44-.12-2.54-2.68-2.26 1.1.02 1.34-2.35-.36-.3-2.92.53-2.17-1.18-2.62-.2-2 .55-3.92-1.44-1.6-5.29 5-.98.62-1.53.3-1 2.2-1.99 2.11-2.18-1.35-1.99 1.45-3.78-1.34-.32-2.87-1.91-3.01-1.98 2.05-7.93-12.2.45-3.46 2.07-1.01 1.48-2.74-1.08-1.99 1.41-.58 1.07-1.53-.46-2.15-.82-.8-.42-4.44-4.62.8-2.8-.2-2.13-2.4z"/>
    <path region="13" short-name="Second Worcester" long-name="Second Worcester District" value="1" d="m467.8 433.16 2.34.54 2.28-1.52 1.9 1.93 1.78-.56.67 1.5 1.56.98.47-2.87-.86-3.42 1.01-1.7.08-3.32 1.44 1.06 2.88-2.3-.1-1.08 6.56-.34-1.06-8.24-2.72-5.68.3-.74 2.99.4 4.21-1.95 2.68-.23.45-1.21 8.81-4.26 2.16 1.3.86 1.3-.51 2.53 2.6 5.16.95 7.18 1.92 2.8 7.66-3.57-.02-.65 2.31-2.6.36-1.42 14.86-2.01 10.41 13.65-.05.97-2 .43-1.81-.8-2.23.48-6.2 2.77-3.51 12.67-6.08-1.85-6.53 1.6 2 16.36-3.33.58 1.82 2.86-1 .47 1.15 2.72-10.3-.05-3.46 1-1.06-4.77-6.54 1.06-1.37-6.98-2.91 1.78.05 1.23-1.89 1.62-1.01-1.22-23.87 14.17 1.32-3.95-.3-3.95-1.55.59-.96 1.66-6.47-.33-4.95-3.54-5.4-8.41 5.29-8.5 2.85-4.16 8.59-1.05.89-4.02z"/>
    <path region="14" short-name="Cape and Islands" long-name="Cape and Islands District" value="1" d="m914.61 792.47 5.32 2.25.93 1.46 2.78-.33 2.2-1.4.6-2.32-1.14-1.52-1.79 1-.97-1.22 1.83-1.84 1.6-.2 1.8.82 17.46.25 4.15-.57 1.45-.73 3.43-.15 2.81-.5 5.45-3.58 4.6-4.81 4.12-6.58 1.93-7.92.11-2.98-2.96-3.86-3.06-1.71-1.1-1.6 1.9-.53 6.24 7.56 16.8 33.58.02 5.27-1.1 3.4-1.1 1.64-1.94 1.66-7.43 2.45-3.8.73-10.6-2.26-8.48-.27-2.49.54-2.26 1.02-5.07-.66-14.44-5.6-14.25-7.3zm-12.07-9.25 4-.35 4.58 1.96 1.05 1.04.83 2.81-.96 1 .15 1.47-1.38.2-1.36-1.63-2-1.1-2.5-2.15zm-8.85-9.5 1.3-.88 3.43.24.33 1.53-4.51.47zm-23.55-146.95 2.7-3.72 2.3.37 22.3 1.64 2 .9 3.67 2.32-1.83 1.27-1.78-2.54-1.4 1.44-2.82-.8-4.46-.52-3.7-1.1-2.32.39-6.3-.82h-2.74l-2.7-.64-.37 1.4zm-.78 1.05.23.72 2.7 1.68.96-.32 5.46 3.58-.08 2.55 1.55.96 4.26.44 3.79-.96.32-2.75 2.11.6 3.7-.24 1.68.68 1.75-.88 4.54.32 2.65-1.1 5.11 1.94.52-1.48 2.04-1.1 1.61-2.93-1.52-1.9 1.7-1.69 5.2-4.09 7.49-3.37 1.52.52 9.47-2.4 2.34-1.15 5.46.46 7.24-2.89 3.65-.9 2.95-1.49 2.27.04 11.06-5.44 2.57-3.25 1.97-1.78 1.3-2.9-.19-11.36-1.26-14.18.9-1.99 1.56-1.88-.76-1.27-4.35-.45-1.6-1.8.84-1.44 2.13-.4.06-1.79-1.88-.6-1.52-1.54-1.89-3.28.08-1.42 1.3-1.92-4.92-.27-2.79.8-1.86 1.66 1.07 1.13-.32 1.27-1.88 2.04-.01 4.51-.92 1.28.74 3.71-.74.54-1.13-5.58-.27-14.59-.9-1.77-.05-15.83-1.78-9.98-1.62-4.83-1.68-2.99-3.48-4.05-4.19-3.03-7.14-3.49-1.9-.55-4.01 1-2.43 1.25-2.33 2.25-2.13 4.13-.15 1.15-3.05 1.4 2.6 2.72 2 .46 5.15-1.43-2.4 2.32-1.99.74-2.68-.79-3.48-3.3-2.78-5.67-2.77-3.04-4.68-3.69 2.04-3.44 3.48-2.15 5.23-1.25 4.91-.16 8.14 1.4 12.35 4.13 9.32 4.89 6.73 5.37 6.99 8.51 6.03 10.53 7.21 15.08 4.89 14.23 6.5 24.94 1.11 8.41.93 4.98 2.62 25.57.07 12.27-.57 6.18-.93 4.98-2.78 5.18-.07 3.45-1 1.53-2.59 8.1-.27 3.52-2.63 3.14-2.47.11-2 1.26-1.46 5.18-.26 4.85.32 9.99-1.05 2.69-1.6 1.92-1.72.67-2.06-1.26-.66-2.66 1.39-2.59 2.73-2.96 1.39-3.88.71-4.64-.25-5.45 1.96-3.66-.1-2.45 2.26-4.15.43-3.02 1.52-2.47-1.46-3.1-2.68-1.67-3.09-3.35-2.97-1.64-2.01-.15-4.23 1.58-3.12.13-6.03 1.1-1 .79-2.88-.6-3.7.42-7.62 2.74-6.8 1.9-7.68-.6-7.5 1.54-.78 1.4-2.54.62-3.55 2.25-7.29 2.99-2.88 2.9.22 1.19-1.17 2.5-2.23-.03-.59-2.56.16-2.98-1.51-2.68-1.9-.82-2.6-.03-2.69 1.02-.11 1.1-4.46 1.52-1.39-1.89-2.33-1.52-2.27-.66-3.8.62-2.43 1.35-1.27 1.63.05 1.14-1.43 2.9-2.6 1.7-5.98 1.86-2.23-.36-5.1.98-2.92-.23-1.5 2.34-.74 2.7-1.42 1.59-2.3-.4-1.79-3.02 1.1-3.6 3.37-5.56-1.13-5.1-3.23.9-.47-1.72 3.33-.79 2.2-4.16-1.28-2.46-2.14-2.66zM754.53 728.09l1.27-.26-.11-2.08 1.29-1.47 1.65-.18 2.31-3.23 2.42.32 2.1-3.99 1.74-.1 1.92-1.1 2.16-3.31 2.67-1.63 2.08.4 3.17-3.61 2.4-2.26 2.15-.27.86 2.26 3.39.46 2.52-1.86 1 1.86-1.92 1.9-2.32 1.02-1.07-.86-3.72 2 .7 1.74-2.16 2.3-2.81.88-3.37.52-3.58 3.38-2.66-.46-1.2 2.26 1.5 2.18-1.53 2.25-1.9 1.28h-2.34l-2.27 2.74-1.67 1.41-2.68.14-1.46-1.57zm-6.96 74.1 3.45-.21 1.54-.83 3.52 1.44-.75 3.33-5.94-1.05zm-1.88-32.62 1.39-2.3 3.9-.07 2.1-.8 3.36.72 4.75 2.22 2.32-.5 1.7-1.52 2.86-5.1 2.67-3.06 1.12-.52 1.3-2.3.96-3.27 1.43-2.33 2.1-.43 1.3-2.13 2.03-1.56.26-2.46 1.38-1.4.23-1.79 1.33-3.72 3.09-1.06.85-1.67 2.13.27 2.06-.65 1.66-3.26.24-1.91 1.51-1.66 4.9-.61 6.17-4.58 4.6-2.9 1.43.46.74 4.63-1.13 2.72.2 2.26 2-.2.99-1.53 1.33-.26 2.46-2.81 2.1-1.1 1.14.77 2.79 6.03.1 3.56-.75 4.66.7 2.59 1.54 3.02 2.6 2.46 2.7 1.54 3.08.5 2.96 1.3 1.29 3.08.3 2.46 2.94.65 1.75-.99 1.7-2.16 1.88-1.53-.38-4.67.63-1.54 1.94-2.33 3.75-.58 1.17 9.02-.85 5.98.29 9.96-1.12 1.43-3.08.87-5.35-.34-3.52.33-12.09-.54-11.41-.4-19.46 1.14-11.81 1-5.23.95-6.55 2.05-3.99 2.33-.24 1.17-1.58.71-2.83 2.3-1.07 2.51.52 1.12-.7 1.95-1.95 1.02-7.38-4.92-4.85-4.84zm-.45-39.35.6-1.17 1.6-.72 2.74.43.58-.64 3.44 3.36-.5 2.16-1.22-.83-2.35.23-2.24 1.5-1.67-.26-1.31-2.67zm-17.66 8.23.72-1.37 1.8.64 3.45.07.54-2.02 2.17-.51 2.47-1.19 1.84-2.87.68.61-.33 2.99 2.03 2.88-1.44 1.62-2.5 1.64-2.39.75-3.68.22-1.39-.42-3.62.34-.88-1.32zm-6.1-7.8 1.33-1.06 1.54 1.31-1.45.8zm-6.64 13.4 1.53.28.73-2.5 1.14-1.32 1.3.07 1.37-2.51 1.22.58 1.12 2.56-1.19.34-1.59 2.56-2.27 1.3-3.3.95z"/>
    <path region="15" short-name="Middlesex and Suffolk" long-name="Middlesex and Suffolk District" value="1" d="m666.7 382.24 2.76-.74 2.36 2.8 7.62.13.07-2.35-1.4-.31 2-4.07-.69-3 1.31-2.73-.53-2.3.1-.7 3.46-.43 2.74-2.55 6.26-.55-1.38 3.78 1.87 3.06 1.58.98 2.18.25.95 1.02-1.8 1.62-1.24 3.12-2.01 1.36-3.23-1.05-1.4 1.37-.71 3.84-1.62.89-2 .73-2.71-.11-2.37 3.9-3.7 1.66-3.66.73-2.48-.26-1.03-.86-.1-4.53-1.04-1.62.5-1.33z"/>
    <path region="16" short-name="Second Suffolk" long-name="Second Suffolk District" value="1" d="m667.25 403.8.84-.45 1.6-4.4 1.65.53 3.98-2.11 2.1-.7 2.73 3.02-1.14 1.03 2.78 2.87-1.63 5.6.3 3.23-1.84 1.22.09 2.78-1.95 3.15 2.3 1.43.57 2.6-2.1.64-1.86-.4-2.37 2.57-1.61 1.19-2.18-.4-.43.79-1.78 1.9.3 1.61-2.4 1.36.44-3.72 1.57-9.3.24-4.62 1.52-3.4-1.73-1.19 1.25-2.06.5-2.63z"/>
    <path region="17" short-name="First Worcester" long-name="First Worcester District" value="1" d="m497.85 378.27 6.97-2.1 6.22 2.52.62-2.63 2.36.59 3.17-13.77 4-18.38 1.85.99 24.27 11.2-2.85 13.38-7.3 1.84-5.31 3.55 6.72 4.06-7.7 6.41 1.31 1.04-1.94 3.73-4.42 2.9 2.12 2.7 3.95 2.2-.32 2.5 2.2 3.45 1.36 1.18 3.49 4.54-14.86 2.01-.36 1.42-2.31 2.6.02.65-7.66 3.56-1.92-2.79-.96-7.18-2.6-5.16.52-2.52-.86-1.3-2.16-1.31-8.8 4.26-.46 1.21-2.68.23-4.21 1.96-2.99-.41-.3.74 2.72 5.68 1.06 8.24-6.55.34.09 1.08-2.88 2.3-1.44-1.06-.08 3.32-1 1.7.85 3.42-.47 2.86-1.56-.98-.68-1.5-1.77.57-1.9-1.94-2.28 1.53-2.34-.54-1.73.55-.32-2.29-1.99-2.8 2.5-1.95-.73-2.73-1.81-1.07-2.32-2.42.65-1.7-.77-2.1-.92-.7.3-2.24 15.94-13.16-6.18-27.8 10.5 2.23 2.49-.54 4 .02 5.98 2.87v2.24z"/>
    <path region="18" short-name="First Suffolk" long-name="First Suffolk District" value="1" d="m709.9 390.83 2.31.59 1.48 2.2.08 2.16-1.96-.96-2.79-3.32zm-2.94 16.92 1.96-1.5.8-2.5 2.86-3.32 1 1.42-1.52 1.26-1.84 4.2-1.52.86zm-3.29-6.05 1.7.43-.25 2.21-1.34.8zm-7.67 5.5 2.87-2.7.87.52-2.3 3.86zm-18.58-10.53 1.02-2.98 3.34-1.14 2.66.06 2.72-1.38 9.6 5.41 1.04 1.56-1.53 2.66-2.37-1-2.95 1.67-2.13-.53-1.48.78.06 1.76 4 2.76-1.17 2.26-2.1.36-.78 2.2 1.1 3.95 1.06.17.49 2.92-1.3 2.88-1.97-.38-1.6 1.15.48 1.27-2.34 1.71-.8-1.32-2.84.14-.56-2.61-2.3-1.43 1.94-3.15-.09-2.78 1.83-1.22-.3-3.23 1.64-5.6-2.78-2.87 1.14-1.03z"/>
    <path region="19" short-name="Norfolk-Worcester-Middlesex" long-name="Norfolk-Worcester-Middlesex District" value="1" d="M545.4 456.73 550 454l9.05.3 1.19-.93 1.47 9.34 5.4.29-.14 13 9.46-1.58 2.82.46.97-1.45 3.4-.23 1.4 1.86 1.39-.1 1.84-2.04 1.47.83 3.67.82 2.33-.11-7.45-16.33-.6-3.64 5.5-1.35 1.27-3.67-2.24-.96-.39-1.63-2.13.21-1.32-2.77-2.25-1.26.38-1.17-1.03-2.28-.34-2.61-1.82-1.25.5-3.16-.28-4.07 6.01-1.6 2.07-3.92 3.78.91 5.65 2.44.05 1.31 1.3 1.41 2.8.86-.2 1.17 2.78.52 8.27.3-1.55-8.47-.28-2.02 2.47-2.51.87.8-.6 2.11 1.34.74 17.28-16.32 1.87.81-.1 2.22 3.74.79.48 2.42 1.03.98.73 2.86 3.91 2.49.85.96-2.47 4.32-1.74.66-4.14-.53-.41 1.82-2.68-.12-.86 2.74-5.36 20.48-1.9-.55-3.17 1.34-1.7 7.1.18 12.46-8.03-.33 1.02.87.29 2.97-.74 1.1 1.63 7.44 4.36 10.6-1.17 1.84-.9 2.5.17 4.98-.66 1.73.33 16.8-21.25 10.96-4.79.08.02-12.68-9.22.17-23.42.43.04-28.67.79-2.44-1.23-1.35-.95-2.56.47-2.4-1.25-.78-1.1-1.96-2.63-.1-5.27-5.2-7.02-5.8.63-1.85-.98-2.56.9-1.77-.56-.82.35-2.5 1.7.5z"/>
    <path region="20" short-name="First Essex and Middlesex" long-name="First Essex and Middlesex District" value="1" d="m724.5 189.81 3.3.01 4.66 1.5 10.47 8.26 3.15-1.55 1.83-1.5 3.78-1.28-.13 8.26 1.41 10.57 1.16 3.02.93 12.62 3.45 13.2 5.75 13.7.51 2.38-1.49 1.58-.08 3.58 3.26 2.13 3.26.5 2.27 1.15 3.37 4.2.56 1.4 3.18 1.07 3.72 2.1 4.08.92 1.85 1.51 1.31-3.23-.4-.74 2.3-1.62 1.75-1.97.93-2.23 2.55-1.56 2.04-2.34 1.6 1.07 1.42-2 1.74-.91.79 1.63 1.78.6-.9 3.77.73 1.58-.68 2.1v2.12l.89 1.1 1.28-.6 2.5.67 2.4-.5.99 1.45-.57 1.75 1.5 1.12-1.16 2.28 1.23 1.02-.71 1.82-3.24.05-3.58 2.37-.57 2.13-1.87.65-1.41 1.72-.03 3.39-.93 2.9-2.92 3.04-.54 1.77-1.87 2.02-2.84.68-.32-1.38 1.8-3.06.72-2.32-.53-2-1.86-2.12-3.12.6.07 1.6-1.4.99-.8 1.72 1 1.03-2.04 2.85-1.35.66-1.58 2.58-2.69.7-.6 1.13-5.4.4-.35-1.12-2.57-.13-4.79 1.66-1.8 3.32-3.84.88-4.48-1.87-.25-1.87-3.5-4.22-1.78.08-1.96.88-2.06-2.01-2.15-2.87-19.34-.14-6.39-.45-1.78-2.79 1.23-3.56-.83-1.62-6.22 3-5.5 4.1-3.26 1.03-1.56 2.04.5 2.08-2.23 5.26-2.95 1.15-1.93-1.47-3.88-.77-.17 1.82-1.4-.13-.18-1.8-1.7-1.23-2.3.91-2.07-1.08-2.16 4.49-1.69 2.36-5.28-.89-3.9-2.63-1.8 1.43-2.9.32-1.85 2.39-2.57.72-.07-.42 1.73-11.25-1.37-6.07 16.56-1.9-11.9-21.6 1.1-1.6 2.11.98 2.51-1.42.85-1.3 2.94-.09 3.6 1.67 5.64-.53.97-2.04-1.01-1.1 1.4-1.19-17.28-21.61 3.02.02 1.5-.67 2.95.12 2.73 1.52 3.7.08 2.94-5.2 1.07-1.1.55-3.05 1.28-.72 4.49-7.87.64-3.98 1.3-1.83 3.22-2.37 1.35-2.44-.66-2 .06-2.06 1.59-1.4 4.56-1.04 1.76.25 1.86 1.11 2.2.5 3.4-.37 1.52-.71 1.79-2.09 2.42-3.97 1.22-.99 1.44.14.53 1.69 2.68.9 1.22-5.14z"/>
    <path region="21" short-name="Second Essex" long-name="Second Essex District" value="1" d="m690.91 311.9 1.41.13.17-1.82 3.88.77 1.93 1.47 2.95-1.15 2.24-5.27-.5-2.07 1.55-2.05 3.27-1.02 5.49-4.1 6.23-3 .83 1.62-1.24 3.56 1.78 2.8 6.39.44 19.34.14 2.15 2.87 2.06 2.01 1.96-.88 1.78-.08 3.5 4.22.25 1.87-2.96 1.02-3.15 2.81-2.35.89-3.57.22-2.49 1.17-1.3-1.12-3.06 2.28-2.1-1.29-1.84 1.59-2.06 3.58 1.02 1.04 3.17-1.57.94 1.08-.59 2.54-3.14 1.23-2.13 3.12-.33 2.52 2.14 1.25-3.38 4.46.17 1.5-1.13 1.38-3.45.63-14.12-4.64-8.38-5.83-5.07-4.2-7.34-10.7z"/>
    <path region="22" short-name="Second Middlesex" long-name="Second Middlesex District" value="1" d="m658.6 350.26 2.52 3-1.39 1.59.68 1.97 2.29 1.7.49-1.74 2.82 1.23 1.28-3.64 4.1 1.74 5.33 1.57-.61 5.49-.45 1.31.98 3.3 2.55 1.82 1.01.08.53 2.3-1.31 2.72.7 3-2.02 4.07 1.41.31-.07 2.35-7.62-.13-2.36-2.8-2.76.74-3.04-1.53-1.67-1.36-.77-1.76-3.12-1.28.02-2.02 2.41 1.28 2.05-1.38 1.08-2.99v-2.36l-1.66-.1-2.36-3.7-.86-4-9.05-.17 1.22-1.49-2.18-1.82-1.1-1.82 7.07-3.76 2.26 1.07z"/>
    <path region="23" short-name="Suffolk and Middlesex" long-name="Suffolk and Middlesex District" value="1" d="m640.01 387.24 6.4-7.36-2.37-6.69-2.4-.9 1.01-1.4 1.4-1.9 7.87 2.06 6.2 3.24-.02 2.02 3.13 1.28.76 1.76 1.67 1.36 3.04 1.53.67 1.75-.51 1.33 1.04 1.62.1 4.53 1.03.85 2.48.27 3.65-.73.55 2.82-.39 2.69-3.98 2.1-1.65-.52.06-1.82 1.42-1.3-.3-2.3-4.54-.73-3.44 2.2-2.53 2.27-1.57 2.04-2.01 1.6-1.08-1.23-1.86.08.24-2.48-2.26-3.88.24-1.18 1.76-2.53-4.48.47-3.53-1.12 1.14-1.37-1.71-.74-2.48 1.23z"/>
    <path region="24" short-name="Bristol and Norfolk" long-name="Bristol and Norfolk District" value="1" d="m594.02 564.1.07-33.06 4.78-.08 21.25-10.97-.33-16.79.66-1.73-.17-4.98.9-2.5 1.18-1.85 2.38-3.74 5.15-2.6 4.05-.4-.3-5.37 1.84-1.04.36-3.03 1.68-1.49 10.92-6.72-.5-2.97 2.2-1.64 2.02-.18 2.63-2.55-.8-1.8 2.63-6.7 1.35-.97 1.84-2.5-.62-.72 1.37-2.48.96-4.14.83-1.05 1.77-.45 7.77 10.26 10.15 13.82-8.1 6.09-10.12 3.23-1.88-.97-.62 1.45-2.34-.21.22 3.82 2.59 3.1 1.57 3.48.61 3.86-2.24 5.86.2 4.67-8.4 4.37 3.41 22.6 15.53 2.97-7.06 9.97-8.18 10.66-10.75 10.32-3.98.72-4-1.27-21.86 3.22-10.63 1.97-11.94 1.94z"/>
    <path region="25" short-name="Third Middlesex" long-name="Third Middlesex District" value="1" d="m589.04 323.84 4.13-1.77-1.01-4.27-3.32-15.6-4.86-23.8 1.49 1.66 2.31.38 1.4-1.54 1.3 1.51 2.56-.42 1.52.51 1.54 3.35 2.66.7 1.34 4.4 8.69 4.64.89.23.51 2.12 1.38-.37-.12-1.9 6.4-.42-.18.63.7 2.97-10.77 17.1 3.76 2.29 1.46 1.71-1.1 2.57 3.83 5.12-.6 2.5.91.99 7.1-2.52 6.57 1.56 1.24-1.19 2.82 2.28.87 3.12 1.4 1.94-2.5 6.2-3.1 1.9-1.32 2.48-1.35.83-.76 2.04 1.76-.13 5.04 3.37 1.83.04.7 3.3-1.72 1.29-.15 1.78-1.65 2.4.52 1.8 2.96 2.33-.09 2.23 2.55.53 2.05.92-.3 1.38 2.32 1.88-1.02 1.4 2.41.9 2.36 6.69-6.39 7.36-12.1 4.89.49 1.35-.9 2.99 1.68 1.19-2.04 1.55-1.9 2.57-16.03 5.42-.4-6.78-1.99-23.53.92-2.08-9.43-5.03-17.9-9.16 12.7-25.58-1.84-.89-1.79-7.37z"/>
    <path region="26" short-name="Hampden and Hampshire" long-name="Hampden and Hampshire District" value="1" d="m215.5 418.34 18.05-2.88.02.64 3.3.35 3.2-.97 4.1 2.51 1.34.01 2.66-1.83 2.74 1.8 2.44 1.5.67 4.29-.4 1.7-2.1 1.82-2.86 4.6-1.68 4.91.43 1.95 2.05 1.28 1.23 2.79 1.94 2.1 2.89.86 5.93-.84.37 3.23-.76 1.42-1.49-.06.59 3.58-1.94-.57-3.13.29-2.28 2.3-1.33 1.6-1.08-1.6-2.65.3-1.36 1.83-.5 2.16-.2 3.45.22 4.37.58 1.89 2.07 2.23.95 2.3-.23 1.6-1.6 3.6.22 2.96 1.54 2.43 1.31 1.18 3.97 2.38 3.21 4.34.6 2.61-.25 1.29-2.3 3.23-2.42 4.44-1.65 3.73-.45 3.31v3.1l-9.82-.6-14.75-1.65-5.2.07 1-4.97.8-2.16v-3.36l.54-3.38.05-2.76-36.66-8.06-.59-3.58-15.73-4.6 4.18-22.04 2.37-12.83 2.21-5.97 1.86-3.1 12.35-1.7-.28-4.46 21.97-3.66z"/>
    <path region="27" short-name="Norfolk and Suffolk" long-name="Norfolk and Suffolk District" value="1" d="m647.22 418.81 3.53-4.38 3.89-3.48 3.52 3.49 3.34-2.86 4.59-7.77 1.16-.01 1.73 2.14-.5 2.63-1.24 2.06 1.73 1.2-1.52 3.38-.24 4.63-1.57 9.3-.44 3.72 2.4-1.36-.3-1.61 1.78-1.9.97 1.24.05 2.8-4.76 3.33 1.08 1.5-2.3 2.74-1.77.45-.83 1.06-.96 4.13-1.37 2.48.62.73-1.84 2.49-1.36.97-2.62 6.7.8 1.8-2.63 2.55-2.03.18-2.2 1.65.51 2.96-10.92 6.73-1.68 1.48-.36 3.03-1.84 1.04.3 5.37-4.05.4-5.15 2.6-2.39 3.74-4.36-10.59-1.63-7.44.74-1.1-.29-2.97-1.02-.87 8.03.33-.18-12.46 1.7-7.1 3.18-1.34 1.9.55 5.35-20.48.86-2.74 2.68.12.41-1.82 4.14.53 1.74-.66 2.47-4.32z"/>
    <path region="28" short-name="Hampden" long-name="Hampden District" value="1" d="m252.8 455.12.15 1.87 3.28.58.98 2.28-2.58 1.37.2 1.82 2.12 2.06 3.51.6 1.54-.9 3.05.19 1.03 1.32 3.83-.8 1.71.65 1.98-.31 2.02-1.1 3.06.26 1.7-.63 3.33.35 2.29 2.24 2.94 19.64-1.77-1.25-1.73.49-1.24-2.14-2.35.2-1.16-1.15-1.39 2.78-1.54.6-4.31.33-1.3-1.56-1.36 1.1-.72 2.13-.2 3.72 3.04-.8.82 3.3-3.15.52-1.85-.39-.54 3.09-3.03-1.12.84-3.3-2.3-.58-1.37.85-2.98.58-.83.74-.59-2.6-3.21-4.35-3.97-2.38-1.31-1.18-1.54-2.43-.21-2.96 1.59-3.6.23-1.6-.95-2.3-2.07-2.23-.58-1.89-.21-4.37.2-3.45.49-2.16 1.36-1.83 2.65-.3 1.08 1.6z"/>
    <path region="29" short-name="First Middlesex" long-name="First Middlesex District" value="1" d="m518.56 258.85 45.76 1.46 15.55.5 12.68.41 9.8.32 6.05.36 10.06.08 4.27-5.43 3.08-5.56 3.55-4.09 4.75 25.56-1.2 2.68-2.13.52-1.7 1.46-2.28-.2-3.02.55 1.11 4.55-.98 5.84-.86 3.04-1.58 2.1-3.6 1-.2-.12.18-.63-6.4.41.12 1.91-1.38.37-.51-2.12-.9-.23-8.68-4.63-1.34-4.42-2.66-.69-1.54-3.35-1.52-.51-2.55.42-1.3-1.51-1.4 1.54-2.32-.38-1.5-1.66-21.19 13.8-1.41-8.11.59-4.18-5.17 2.34-5.4-1.8-.8-5.74-11.65 3.45-.27 2.47-1.76 1.42-.33 1.8-1.1 1.4.93 1.86-1.45 1.64-2.1.15-.82-1.42-1.3.94-2.04-.72-7.04-3.8-1.74-1.85-1.54-.6-1.52-1.6 2-15.56z"/>
    <path region="30" short-name="Second Plymouth and Norfolk" long-name="Second Plymouth and Norfolk District" value="1" d="m694.5 461.82-1.64 5.11-2.02 7.46 2.2 1.02.08 3.46 1.42 1.88 5.56-2.93.94 5.6 5.44-.91-.43 1.82 1.56 4.9-.09 3.29 8-2.66 8.62-2.1 3.77 5.36 7.67-1.42 1.38.89 1.32-1.25.97.54 1.77-1.22.5-1.12 1.64-.35 1.25.6.19 2.21-.35 4.4 1.98 6.73-2.52 1.59-.36 2.34.66 2.31 3.16 8.71 5.16-1.66.35 1.64 1.92 3.4-3.3 5.2-1.18 4.6-11.22 10.4.61.68-2.3 2.53-11.01-6.8.35-1.44-1.24-2.56.07-1.2 2.81-1.04.62-5.02-3.87-.28-1.22-2.84-2.22-1.6-4.8.86-3.2.26-7.15-1.92-2.11-13.37-10 1.65-.8-4.86-12.23 2.03-3.04-17.25 5.37-2.88.25-1.42-2.96-9.5 1.98-3.12 2.05-5.03 1.1.12.07-3.58 2.26-1.56-1.66-4 1.54-1.74 2.01.2 5.06-1.01z"/>
    <path region="31" short-name="Fourth Middlesex" long-name="Fourth Middlesex District" value="1" d="m617.67 293.88.2.13 23.8 14.93-1.12 1.05-.17 3.03-.64.58 2.56 2.46-.26 3.23.95.07 10.16 11.49 9.66-5.48 5.22 13.43 1.31 7.85-3.27.16-7.48 3.45-1.59 2.8-2.26-1.08-7.07 3.76 1.1 1.82 2.18 1.82-1.22 1.49 9.05.16.86 4 2.36 3.7 1.65.1.01 2.37-1.08 2.99-2.05 1.38-2.41-1.29-6.2-3.23-7.87-2.07-1.4 1.91-2.32-1.88.3-1.38-2.05-.92-2.55-.53.1-2.24-2.97-2.32-.52-1.8 1.65-2.4.15-1.78 1.71-1.3-.69-3.3-1.83-.03-5.04-3.37-1.76.13.76-2.04 1.35-.83 1.31-2.49 3.1-1.9 2.52-6.19-1.4-1.94-.88-3.12-2.82-2.28-1.24 1.2-6.57-1.57-7.1 2.52-.9-1 .6-2.5-3.83-5.11 1.1-2.57-1.47-1.71-3.76-2.3 10.76-17.1z"/>
    <path region="32" short-name="First Bristol and Plymouth" long-name="First Bristol and Plymouth District" value="1" d="m612.26 609.67 9.17.26 26.76-3.13-1.6-12.5 4.83.23 1.42 9.95 10.6-.3 3.8-.3 1.42 4.55 3.2-4.04.4-1.49 1.73-2.1 2.15-1.24-.27-2.48-1.24-1.4 1.3-1.85 14.5.47 11.36-11.43 2.83-2.64 2.09-1.2 1.28-1.36-.96-5.35-2.82-11.5.58-.63 2.38 2.28 2.66.05 1.06 1.83 12.33 6.51.8 2.42.88 1-.52 1.35.14 2.52-1.16 2.87 6.98 8.77-1.38 5.13.63 7.7 34.82-5.47-.31 2.56-1.37 2-.2 1.86 1.14 8.31-3.42 4.77-.24 2.64.48.9-2.08 1.59-.14 3.17.56.8-1.25 1.57-.8 6.83-12.4 1.79.1 1.39-6.12.54-5.99-22.48-5.03.84-.76-2.08-5.35 1.76 1.14 1.5-5.8 3.8-34.54 22.1-2.8-.69.43 3.52 3.17 4.2 2.68 5.08 1.48 4.9 1.13 1.32 2.3 4.68.03 2.51-.5 3.42.41 3.75-2.24 3.14-.02.92 3.56 6.82.87 4.36-.66 4.05 1.35 6.01-1.71.99 1.17 5.25 1.75 3.44-3.7 2.02-.8 2.56 1.33 2.01-1.33 2.12-.8-3.51.06-2.61-2.12-1.91-2.74-1.24-3.43-1.08-4.18-.16-2.07 1.9-3.84.65-1.95.88-.56 1.34-1.33-.35-.52-9.22-2.48-26.19-1.73-3.82-.87-.95-.25-4.1.29-2.93 1.33-1.68.28-3.92.5-7.93-3.62-1-8.44-2 .02-1.23-5.48-1.38-8.15-13.24-10.22-15.65-6.43-3.64z"/>
    <path region="33" short-name="Norfolk and Middlesex" long-name="Norfolk and Middlesex District" value="1" d="m609.2 407.2 16.03-5.42 1.91-2.57 2.04-1.55-1.69-1.2.9-2.98-.48-1.35 12.1-4.9 2.75.93 2.48-1.23 1.71.74-1.14 1.37 3.53 1.12 4.48-.47-1.76 2.53-.24 1.18 2.26 3.88-.24 2.48 1.85-.08 1.09 1.23 2-1.6 1.58-2.04 2.53-2.27 3.44-2.2 4.55.73.3 2.3-1.43 1.3-.06 1.82-1.6 4.4-.84.45-1.16.01-4.59 7.77-3.35 2.86-3.51-3.5-3.9 3.5-3.52 4.38-3.9-2.49-.74-2.86-1.03-.98-.48-2.42-3.75-.8.11-2.21-1.87-.81-17.28 16.32-1.34-.74.6-2.1-.87-.81-2.47 2.51.28 2.02-4.25-10.08-1.7-5.88z"/>
    <path region="34" short-name="First Essex" long-name="First Essex District" value="1" d="m629.36 246.9 2.7-2.26 3.39-1.1 2.65-.46 11.76 3.46-1.2-20.2 1.07-1.36 14.42 12.73.25-1.95-.46-2.6.86-.53.35-3.86 3.47.51-.28 2.81 1.9.72 2.05-1.74 1.78-.22.67-1.59 1.66-.56-.17-2.14 2.62-.2 1.42 2.5.89 3.92-4 .75-3.3 3.2-2.18.3-2.94-2.14-1.83-.08-.78 3.7-1.12 1.53 3.11 3.97.24 1.2-.85 1.7-4.35 5.75.2 3.02-1.02 3.49-.8.38-.95 2.41 1.52 1.83-.35 2.98 1.57 1.88-.27 1-4.65-1.86-9.59 2.2-.93-7.74-1.82-.84-5.47-1.06-1.74 1.06-1.01 1.92-.36 3.42-.92 2.37-2.46 3.34z"/>
    <path region="35" short-name="Worcester and Middlesex" long-name="Worcester and Middlesex District" value="1" d="m449.58 256.5 42.72 1.56 26.26.79.3 5.44-2 15.56 1.52 1.6 1.54.6 1.74 1.86 7.04 3.8 2.03.7 1.31-.93.82 1.42 2.1-.15 1.45-1.64-.93-1.86 1.1-1.4.33-1.8 1.76-1.42.27-2.47 11.66-3.45.8 5.74 5.4 1.8 5.16-2.34-.6 4.18 1.42 8.12 21.2-13.81 4.86 23.8 3.32 15.6 1.01 4.27-4.13 1.77-6.78 2.97-15.7-12.1-1.05-5.95-3.98-1.17-1.4.53-2.36 2.31-24.97-5.16-1.79.02-2.07 2.98.95 2.54 1.3.78-1.65 2.8.47 1.59-2.54.85-2.39 1.71-2.07 3.03-.21 2.61-.64 1.65 2.6 4.9.02 1.72-1.3 2.63 2.35 2-.87 3.88-1.92 4.53-1.85-.99-4 18.38-3.17 13.77-2.36-.59-.63 2.63-6.21-2.51-6.97 2.09 1.22-7.17.9-.37-.1-23.9-2.7-.67-28.39-6.46 2.15-4.58-5.59-3.17 1.27-11.81-7.03-.35.13-2.95 1.93.16.13-2.36-2.02.09 1.03-26.93.63-14.67-.38-2.79-1.67-1.73-.56-1.74-1.12.18-7.64-7.63z"/>
    <path region="36" short-name="Middlesex and Norfolk" long-name="Middlesex and Norfolk District" value="1" d="m533.23 440.34 3.5-12.67 6.2-2.77 2.24-.48 1.8.8 2.93 1.22 2.06-1.25 2.05.08 3.09-.64 2.06 1.25.17-3.27 5.46-14.16.34-4.8-.47-2.66.98-8.67 24.19 4.57.47 1.93 1.73-.13 1.96 2.93 1.15 5.23 1.35 1.83 2.45-2.3 2.48-.47 2.6.84 2.06-3.13 1.33-3.47 1.4.27.4 6.78-.68.29 1.7 5.88 4.25 10.08 1.55 8.47-8.27-.3-2.78-.52.2-1.17-2.8-.86-1.3-1.4-.05-1.32-5.65-2.44-3.78-.91-2.07 3.92-6.01 1.6.28 4.07-.5 3.16 1.82 1.25.34 2.61 1.03 2.28-.38 1.17 2.25 1.26 1.32 2.77 2.13-.2.4 1.62 2.23.96-1.28 3.67-5.49 1.35.6 3.64 7.45 16.33-2.33.1-3.67-.8-1.47-.84-1.84 2.03-1.39.11-1.4-1.86-3.4.23-.97 1.45-2.82-.46-9.46 1.57.14-13-5.4-.28-1.47-9.34-1.2.94-9.04-.3-4.6 2.72-.29-3.75-4.33-.1-2.97-1.07-5.4-8.5z"/>
    <path region="37" short-name="Middlesex and Worcester" long-name="Middlesex and Worcester District" value="1" d="m589.04 323.84.44 2.94 1.79 7.37 1.84.9-12.7 25.57 17.9 9.16 9.43 5.03-.92 2.08 1.98 23.53-1.39-.27-1.33 3.47-2.06 3.13-2.6-.84-2.48.47-2.45 2.3-1.35-1.83-1.15-5.23-1.96-2.93-1.73.13-.47-1.94-24.2-4.56-.97 8.67.47 2.65-.34 4.8-5.46 14.17-.17 3.27-2.06-1.25-3.1.64-2.04-.08-2.06 1.25-2.93-1.22 2-.44.06-.96-10.41-13.65-3.49-4.54-1.35-1.18-2.21-3.45.32-2.5-3.95-2.2-2.12-2.7 4.42-2.9 1.94-3.73-1.31-1.04 7.7-6.41-6.72-4.06 5.3-3.55 7.31-1.84 2.85-13.38-24.27-11.2 1.92-4.53.87-3.89-2.35-1.99 1.3-2.63-.01-1.72-2.6-4.9.63-1.65.21-2.6 2.07-3.04 2.4-1.7 2.53-.86-.47-1.58 1.65-2.8-1.3-.79-.95-2.54 2.07-2.98 1.8-.02 24.96 5.16 2.35-2.3 1.41-.54 3.98 1.17 1.04 5.95 15.71 12.1z"/>
    <path region="38" short-name="Berkshire-Hampden-Franklin-Hampshire" long-name="Berkshire-Hampden-Franklin-Hampshire District" value="1" d="m43.47 332.94 12.72-46.52 11.74-43.05 34.16.92 34.65.94 24.7.71 33.83.99 37.56 1.41.72 5.12.6.97-1.28 3.25 2.33 3.02 1.06 3 1.59.63.12 1.55 1.26 3.92 4.09 2.44 1.58 2.75 1.23 1.25 1.53 3.22.2 1.56-3.4.58-4.72 25.99 3.66-.42-.57 3.02-3.66.53-.94 5.08-5.61.83 3.16 1.47.86 1.89 1.5 1.43 1.93 4.17-3.35 18.38-.57 4.4 8.48-1.36.26 1.74 5.69-1.1.53 2.73 6.64-1.08-1.02 3.97-.07 2.93 2.3 9.85-1.24-.21-10.26 3.04-13.08 2.04-.84 14.5-19.3 3.27 1.25 29.65.28 6.7-21.97 3.66.27 4.45-12.35 1.71-1.86 3.1-2.2 5.97-2.38 12.83-4.18 22.04 15.74 4.6.58 3.58 36.66 8.06-.04 2.76-.54 3.38v3.36l-.81 2.16-1 4.97-11.53.15-.48 1.1 1.62 1.16-4.02 8.46-.17 1.76-13.97 2.03.9-14.62-9.39-.15-4.6-.3-37.97-.36-15-.46-50.2-1.93-17.18-.75-38.66-1.35-15.22.35-2.67-.01L0 492.98l9-33.05 9.23-33.92 8.05-29.64 8.92-32.9z"/>
    <path region="39" short-name="Fifth Middlesex" long-name="Fifth Middlesex District" value="1" d="m658.6 350.26 7.47-3.45 3.27-.16-1.31-7.85-5.22-13.44 1.16-.69-1.45-7.79 2.57-.71 1.84-2.4 2.91-.31 1.8-1.43 3.9 2.63 5.28.89-1.17 9.42 2.12 2.41 2.81.2 4.62-.8.42 4.45.82.8.46 2.14-1.07 1.53-1.41.58 1.08 1.99-1.48 2.74-2.07 1-.45 3.47 7.93 12.2 1.53 2.44-2.2 5.32-6.26.55-2.74 2.55-3.46.42-.1.72-1-.08-2.55-1.82-.98-3.3.44-1.31.61-5.49-5.33-1.57-4.1-1.74-1.28 3.64-2.82-1.23-.49 1.74-2.3-1.7-.67-1.97 1.4-1.58z"/>
  </g>
</svg>
