<svg title="New York 2022 State Senate" viewBox="0 0 1000 779.15" auto-border-stroke-width="1" auto-border-stroke-width-limit=".5" original-source='["https://www2.census.gov/geo/tiger/GENZ2022/shp/cb_2022_us_sldl_500k.zip"]' candidates="[{&quot;id&quot;:&quot;0&quot;, &quot;name&quot;:&quot;Democrats&quot;, &quot;margins&quot;: [{ &quot;color&quot;: &quot;#1C408C&quot; }, { &quot;color&quot;: &quot;#577CCC&quot; }, { &quot;color&quot;: &quot;#8AAFFF&quot; }, { &quot;color&quot;: &quot;#949BB3&quot; }]},{&quot;id&quot;:&quot;1&quot;, &quot;name&quot;:&quot;Republicans&quot;, &quot;margins&quot;: [{ &quot;color&quot;: &quot;#BF1D29&quot; }, { &quot;color&quot;: &quot;#FF5865&quot; }, { &quot;color&quot;: &quot;#FF8B98&quot; }, { &quot;color&quot;: &quot;#CF8980&quot; }]}]" version="1.1" xmlns="http://www.w3.org/2000/svg">
  <g regions transform="translate(0 -110.42)">
    <path region="0" short-name="48" long-name="State Senate District 48" value="1" d="m385.58 460.83-.61-1.57-.06-1.25.28-2.77-.12-1.1.92-1.15.59-.25.45-1.67-.56-11.78-.43-9.85-.7-12.65h-.16l-.7-11.41 1.6-.49.92.36 1.08-.35 1.16-1.09 1.93-2.4 1.76-3.13.59-.75 1.05-2.17 1.5-2.1 1.12-.07.64-.75.38 6.7.16 2.1.63 12.3.34 7.5 6.65-.3 9.02-.23.24 5.05 8.09-.38 8.93-.5v.19l2.58-.14 1.03.5 1.08-.23 1.23 1.21 1.05.83.31 1.45.53.68.24.98-.25.79.84 1.23-.35.66.3 1.7.8.4.51.97 1.28.82 1.2.46 1.17 1.72-.25 1.4.04 1.1-1.04 1.03-.86.31.36 1.04-.58.38-.63-.58-.57.12-.9-.34-.8.2 2.48 3.96-2.47.18.04.82-2.42.15.07 1.1-2.9.1.03.41-7.26.51.77 12.38 10.18-.66-.15-2.39 4.79-.33 8.38-.4-.26-1.75h-.33l-.93-2.1.06-1.57.58-.32 2.32-2.34.63.37 1.12-1.6.8.77 1.1-.53 1.36 1 1.31-.1.23 1.14 1.14-.49 1.63-.1.32.96 1.24.6.76 1.4.08.85-.78-.04.1 1.15.87.59-.22 1.22-1.2.07.04.63-1.89.12-.46.6.51 8.32 11.37-.74 7-.38 6.54-.3.94 18.77.57 9.53.33 5.96-5.52.44-8.28.6-9.49.57v.28l-4.42.22-1.43.13-8.87.56-9.88.6.6 12.55.55 12.86-17.03.6-7.36.25-.06-1.5-6.29.26-5.97.3-7.4.35-.02-.54-6.59.3-.65-2.1-1.72-5.95-.33-.77-.95-1.37-3.07-3.04-1.17-2.15-.57-2.59-.76-7.27-.07-3.32.22-.91 1.37-2.74 1-2.57.25-1.22-.05-2-.39-1.75-.02-2.64-.45-1.68-1.36-3.14-.25-.8-.21-2.54.1-1.37.51-3.47-.64-1.66.44-1.9-.1-.83 1.15-1.36-.15-1.67 1.03-1.32-.16-1.97.4-.78.96-1.16z"/>
    <path region="1" short-name="45" long-name="State Senate District 45" value="1" d="m546.18 159.17 2.55-2.41 1.28-2.9 2.13-.16 1.21-1.17 2.2-.5.02-.93 3.2-3.75 1.37.49 4.02-3.62-.72-1.81 3.1-2.2 1.88-1.07 1.61-.45 1.8-1.66 1.6-.17 1.27-1.72h1.97l1.13-.9.74-.11 2.93-1.8 3.19-.6.69-3.3 2.13-1.1 1.58.31 1.07-1.34 4.02-.43.62-.91 4.15-2.15 2.78-2.11.7-1.34.04-1.03.83-1.04 2.56-1.06 3.27-.23 4.9.24.9-1.68 1.64-1.3 1.34-.24 1.34.14.5-.72.8.01 1.29-1.03 1.45-.79 1.03-.2 1.18.73.5-.32 1.47-.19.22.7.86 1.08 3.76-.17.4 1.9 1.97.79 1.69.02 1.1-1.36 2.6-.94 2.29.65 1.38-.23.35-.94 1.11 1.18 14.22.16 11.58.3 15.47.92 12.78-.04 11.05.11 15.1-.76 19.33-.98 14.12-.36 11.07.06 4.52-.1 25.6-1.02 11.92-.3-.9 2.96-.56 1.24.22 1.2 1.03 1.82.76.82.1.96-.21 3.07.14 3.44-.06 1.15-.48.69-1.38 1.15-.84 1.8-1.11 5.46-.36.76-1 .96-.2 2.15.25 1.25.52.3.5 1 .72.76 1.55 1.08.41.71 1.87 2.1.29 2.83-.33 1.19-1.43 1.62-.93 3.15-1.19 1.79-.22.62.06 2.87-.12 5 .6.54-.51 1.24-.61.48.37 1.13-.5.17-.2 1.57.34.47-1.14 1.65.14.69-.66 1.27.58.76-1.04.91.11.95-.5 2.46.88.89.28 1.23.49 1-.13 1.03-.5.8.78 1.3.16 1.16.9 1.4.9.9.43.82 1.75 1.06.53.69-.03.84.93 1.31.4 1.32.81.57.12 1.83 1.82 2.6.3 2.58.56 1.61.15 2.25-.17 1.64.82 2.5-.3 2.17-1.84 4.56-.57 2.5-.75 1.03-1.2 1.18-.4.66-.17 1.39.04 1.33.92 2.22.42 1.86-.02 4.2.24 1.51.69 2.45.57 1.35.17 1.02-.3 1.78-.81 2.58-.48 1-.88-.06-.8.83-.8.26.1.62-.95.74-.12.78-.5.41-.06.72-.85 1.94-1.1.7-.58.83-.88.48-.22.7-.87.73.15 1.38-.79.96-.19.74.24.96-.4.69-.47 2.89-1.7 2.3.52 2.69.05.85-.63 2.34-1.64 3.52-.35 2.81-.72 3.25.1.43 1.13.85.62.87 1.56 1.03.6 1.88v.84l-.83 5.54.73 2.22.16 3.25-.39 2.8.97 2.78.64 2.46 1.57 2.12.9 1.87.28 1.08-.93 2.62.07 1.16 1.1 1.28-.55 1.04-.66.36-.83.86-.55 1.8.3.84.9.71.63 1.28.24 1.27 1.75 1.5.63.75.35 1.61.53.84-.5 1.36-1.06 1.93-.86 1.56-.11 3.31-.9 1.34-1.03 1.11-1 2.12-1.05 1.07-.4.83.22.64-.58 2.67-.82 1.96-.12 1.01-.41.8-.98.92-.18 1.43 1.21 1.94.07.48-.75 1.44.27 1.63-1.1 2.18.2 1.14 1.05.44.44.65 1.43 1.15.95.54.78-.32.28-.83.7-.15.2-.64-.33-.71.35-.49-.48-.9.57-.3-.22-.77.8-.21.6-1.3-.46-1.15.77-1.14-.32-.64 1.76-.4 1.39.44.68-.62 1.78.03 1.07 6.61.3 3.1 1.95 14.53-6.33.8-2.91.45 1.4 10.72-15.26 2.18-.44.79.5.61-.33.51 1.2 8.72.92 7.08-12.39 1.74-3.44.54.74-1.13.05-.55-.75-.94-1.91-.1-2.37.43-.93-.51-.86.49.1 1.9-1.2.55-.2-.2-1.46.06-.85-.4-.58 1 .33.92 1.45 1.66-.8 1.36-1.06.24-.6-.82-.54-2.56-.81-.14-.37.77-1.27.03-.8.95-1.33.15-1.41.49-.88.75.24 1.88-.76 2.09-2.06 1.88-.64 1.58-.48.07-.85-.97-.47-1.2-1.7-1.98-1.31-.7-2.06-.06-.9.86-.8-.59-.35-.81.03-2.1.37-.87.83-.91-.18-1.47.34-2.53-.13-1.08-.97.08-.43-.3-.8-2.13-.78-.88-.7-.25-.52-.87.6-.78.01-.77-1.24-1.08-.21-1.7-.97-.78-.23-1.04.53-1.19-.46-2.08-1.2-2.36-2.63.37-15.25 2-17.03 2.25-2.84-26.02-2.69-24.09-1.37-12.23 19.72-2.74.39-2.04.2-2.5 1-1.91-.61-1.3.5-1.35-2-.56-1.86-.9-.74-.62-1.05.68-.65-.3-.79.16-.8-.54-.9-.15-2.1-1.49-.7-.03.1-.81-.43-.91-.99-.37-1.22.2-.53.46-.77-.13-.8.5-1.82-.08-1.66.68-1.05 1.49-.33.17-7.42-9.54-.48-.67-7.67-9.85 10.23-7.83-.68-5.32-2.6-21.21-11.72 1.46-1.3.12-19.01 2.17-14.41 1.92-11.32 1.5-1.4.12-13.22 1.6-4.45.57-1.13-16.42-12.95.87-3.72.12-2.28-16.82-.07-.87 16.82-1.56-.96-11.1-2.4-24.61-7.7.34-10.2.51-1.42-14.13-5.95 4.03-7.65 5.26-3.05 1.94-4.35-6.6-5.13-7.6-5.18-7.9-6.85-10.11-2.83-3.91-3.75-4.67-.1-.7 2.55-.55-.33-2.08-.51-.37.15-.72z"/>
    <path region="2" short-name="8" long-name="State Senate District 8" value="1" d="m800.5 851.7 1.05 7.26 3.9-.2 1.9-.7-.24-.75.67-.79-.82-.67 1-.92.9-1.12 1.14.18 1.21-.19.06-.47 1.58-.09.1.36 1.65.22.94-.24.13-.99 1.45-.36.27-.68 1.04-.01 1.5-.82 1.6-.25-.28 1.12.37.69 1.41-.5 1.42-.69 1.66-.54.33-.28 3.03-.79.4-.2-.02-1.56.26-1.07.45-.74 1.1.12-.08-1.53 2.15-1.3.16-1.86.48-1.18-.73-.7 1.75-2.54.74-1.6.5-.64-.1-.58 2.57-.23.87-.4.58.47-.4 3.82 5.29-.6.33.95.5-.37 2.36-.9.33 2.79 1.01.85v2.76l.06 6.38.48 1.05-1.35-.05-.61.45-.52-.12-1.02.26-.52.63-.86-.16-1.18.44-1.25.18-1.09.56-.45-.12-1.33-1.15-.7-.3-.4.71-1.51 1-.63.65-.35 1.2.04 2.26-.18 5.46.04 1.38.32.76-2.84.73-5.16 1.7-3.88.96-2.94.52-5.57.2-.63-.23-1.88-1.83-1.96.07-1.23.37-5.14 2.05-3.19 1.18-4.18 1.27-4.37 1.01v-7.94l-.23-2.24.72-1.52-.06-2.7-.14-1.87-.77-4.56.77-.55 1.34-.12 1.27-.6.42.82.66.15 1.34-.15.38.38z"/>
    <path region="3" short-name="54" long-name="State Senate District 54" value="1" d="m234.51 442.6 11.38.32 8.08.35h2.34l6.08-.1 1.28.03-.69 1.19.8 1.08.77.05.28-.56h.67l1.35-.79.3-.94.84.6-1.4 1.05-2.7 1.74-.1 1.02-.65 1.7-1.4 1.99-1.56.4.04.91 1.05.2-.32 1.22.27 1.15-1 1.17-1 .07-1.5.75-.7 2.04 1.05-.1-.42 1.08-.44.33-.03.8.74.7 7-.13 6.67-.05 2.5.08 1.07-2.8 5.5-.04 5.2-.09 5.64-.03 7.3.02 3.59-.03-.06-7.08-.33-14.68-.19-20.11 2.08-.42 1.28-.02 1.06-.33.74.48 1.67-.48 1.3-.04.16.38 3.73.24 2.13-.01 6.34-1.17 2.26.26.69-.45.93.6 1.3.04 2.16-.8.8-.54 1.68.64h.98l.97-.3 1.01.1.75-.46 1.4.77 2.6.6.7-.24.49.58.73.01.62.5.85-.1.77 1.15 3.72.07 1.7-.23 1.43-.53 2.91.4.11.29h1.72l.81-.43 1.59-1.16.96-.97.5.08 3.07-1.94 2.38.53 1.37-.3 1.46-.66 1.68-1.21 1.35-.1.61.23 2.16-.64.61.06 2.07-.58 2.4-1.24 1.67-1.21 2.33-2.14.8-1 1.08-.04.7 11.4h.15l.71 12.66.43 9.85.56 11.78-.45 1.67-.6.25-.9 1.16.1 1.1-.27 2.77.06 1.24.6 1.57-10.49.52-10.34.59-10.8.77.04 6 .03 18.23-1.23.23-.63.54-.41 1.25.7 3.13.36.95-.07.66-.61.82.35 1.1-.17 1.4.22 2.24-.23.53.28 2.68-.31.47-.09 1.2.82 1.55-5.78.07h-4.14l-9.27.08v.28l-14.03.06-9.78-.01-1.26 1.96-.47.48-1.59 2.51-.93 2.28-1.09 3.35-.27 1.74-.21 3.77-1.23.02.23.76-.22.89.07 14.07-10.04-.07-5.7-.08-15.85-.5-5.52-.04-.18 7.79h-7.5l-.3 10.95-3.38-.09-11.45-.49-.06-7.4-14.45-.1-11.12-.05.58-.5-.7-1.82.16-.52-.98-.57-.89 1-.25-1.04 1.15-.77-.21-.89.5-1.64 1.32-1.4 1.2-.28-.73-1.03-1.45.63-.65-.6.27-1 1.48-1.44 1.73.49 1.38-.34.92-1.02-.19-1.03-1.13-.14-.61.61-.8-.27-.4-.9.23-.33 1.47-.45.28-.8.9.34.95-.5.2-.43.9.11.39-1.06-.23-.8.82-.8-.1-.74.89-.58v-1.4l.69-.54-.45-.57.73-1.75.82.11.75-.9.12-7.97.05-6.6-.08-7.2.09-11.9-.08-7.43 2.57.1.13-6.97 2.88.1.14-4.18.12-5.76.23-.06.44-5.91-5.94-.43 2.52-7.08z"/>
    <path region="4" short-name="44" long-name="State Senate District 44" value="1" d="m708.59 400.54 17.03-2.25 15.25-2 2.62-.37 1.21 2.36.46 2.08-.53 1.19.23 1.04.97.78.2 1.7 1.25 1.08-.01.77-.6.78.52.87.7.25.78.88.8 2.13.43.3.97-.08.13 1.08-.34 2.53.18 1.47-.83.9-.37.88-.03 2.1.36.81.8.59.9-.86 2.05.06 1.32.7 1.69 1.97.47 1.2.85.98.48-.07.64-1.58 2.06-1.88.76-2.09-.24-1.88.88-.75 1.41-.49 1.32-.15.8-.95 1.28-.03.37-.77.81.14.54 2.56.6.82 1.06-.24.8-1.36-1.45-1.66-.33-.93.58-.99.85.4 1.45-.07.22.21 1.2-.56-.11-1.89.86-.5.93.52 2.37-.43 1.91.1.75.94-.05.55-.74 1.13-.63 1.93-.09 1.9.6-.05.87.94.24.7-.08 1.07-1.17 1.58-.05.6.55 1.53.91.82.56 1.48.28 1.74-.5 1.15-.3 1.58.42.6.17 1.25-.36.98-.76 1.1 1.2 2.44.02.61-1.34 2.33.12 1.38.54 1.36 1.05.81.15 1.48.35 1.71-.62 1.72.3 1.77-.67 1.28-.07.75.48 1.74-.38 1.05-.62.5-.15 1.22-.58 1.85.09 1.5-.35 1.55-.48 1.2-.97 1.04-.32 1.14-.12 1.89-.22.43-2.42 1.6-.26.41.35 1.83-.12 1.54-.33 1.01-.97.86-1.35.2-1.14.85-.47 1.13-1.97 2.52-.6 1.88-.1 1.46.59 1.82.83 1.2-.07 1.49-.27 1.4.27.54.4 2.72.79 1.62.6 1.96.15 1.7-.37 1.06-.76.48-.63.76-.56 2.15-.44-.01-1.12 1.37-.97-.5-1.54-1.62-.3-1.29-1.08-1.05.35-1.03-.54-1-.1-1.14-.57-.5-1.39.64-1.35 2.34-.23.67-1.05 1.06-.63 1.15-.67.47-1.1-1.02-1.22.36-.82 1.22-.75.64h-1.25l-.03.67-12.3 2-1.7-2.04.38-.1-.36-1.53-.48-1.02-2.04.44-3.57-.38-1.9-1.97 1.43-1.46 1.03.5 1.5-.56.08-1.26 2.53-1.86 1.18-1.95.88-.85.6-.15.87-.72.95-.2-.63-6.49-.44-3.89-1.78.14-2.03.83-2.65 1.42-1.18-.82-1.52-2.39-2.32-2.04-1.44-1.1-1.57-.82-1.76-.74-1.19-.9-1.68-.86-4.73-.44-.57-4.68-2.11-18.37-1.76-15.32-1-8.91-.95-7.84z"/>
    <path region="5" short-name="37" long-name="State Senate District 37" value="1" d="m761.01 781.91 2.75-2.1 1.86-1.66.72-.5 9.57-3.28 4.58-1.63-.34-.86-3.19-9.26 7.06-.86 2.28 3.42 4.19 6.8-6.62 4.07-9.46 5.65-11.14 6.85 1.38 2.2 2.86 4.75 4 6.5.94 1.46-.64 1.9.16 1.95-.75.86.86.22.23.45-.48 1.78-2.21.82-.7 2.44-.42.74-.79.17-.71.62.72-2.18-.35-.2-1.2 2.4-.5-.73-.9.04-.6.59-.13 1.5-1.6 1.76-.4-1.1-.6.07-.2 1.65-1.64.87-1 1.65-.6-.5-1.08-1.62-.9-.1-.46-1.2-.5-.65-1.44.32-.13-.25-3.73-1.46-1.3 1.87-.43-.92-1.1-.32.16-1.15.74-1.33-.29-.42.49-.76.65.02.17-1 .85-2.2.59-1.19-.38-.94 2.9-.53 1.55-3.28 1.05-1.27.43-1.05-.43-1.23.85-1.24.5-.3.6-1.24.34-1.84-.26-1.48.64-.64.44-1.2.32-1.82 1-1 .48-1.28.47-2.05.7-.3.17-1.11-.62-1.05z"/>
    <path region="6" short-name="3" long-name="State Senate District 3" value="1" d="m839.97 833.47-1.64-7.68.67.16.96-.38.43.55 1.45-1.12.38.45.82.1 1.04-.57h.76l2.26.5 2.64.02.81-.2 2.52-.01 1.09-.76.3-.86 1.05.18 1.26-.27.3-.68 1.56-.21-.07-1.18 1.1-.28 1.14.18 1.33 1.13.44.92-.08 1.6 1.53-.48h.72l1.38-.34 2.33-1 1.64-.38 1-.5.87-.17 2.64-1.32.64-.5.63 5.42 1.06.2h1.77l1.3-1.42 1.64.34.63-.33.59-1.6.9-.83.85-.49.72-.09.98.44.68-.26 1.23-.84.74.22.67-.93.85-.36 1.83.26.82-.26-3.23 13.42-.36 3.06.18.2-.09 5.96.08 1.19-2.16.74-1 .59-.51-.14-1.39.47-12.02 4.78-7.6 3.28-11.3 5.61-5.36 2.22-3.85 1.27-7.56 2.22-.32-.76-.04-1.38.18-5.46-.04-2.25.35-1.2.63-.66 1.51-1 .4-.71.7.3 1.33 1.15.45.12 1.1-.56 1.24-.18 1.18-.44.86.16.52-.63 1.02-.26.52.12.61-.45 1.35.05-.48-1.05-.07-6.38.01-2.76-1-.85-.34-2.8-2.36.91-.5.37-.33-.95-5.3.6.41-3.82z"/>
    <path region="7" short-name="26" long-name="State Senate District 26" value="1" d="m725.51 857.9.86-1.19.93.45-.16.46-1.42.67zm3.19-3.27.37-.44.78-.17.32.73 1.3-.1-.5 1.23.08.8.5.62.69.04.1 1.14-.38.58-1.4 2.38-.3-.19-.81 1.09-1.48 1.86-.16.78-.59.75-.71-.26-.53.68.42 1.04.05 1.04.7-.1.55.45.85.07-.4 1.07-1.05 1.15-.41.13-1.28-.43-.39-.61-.65.74-.61-.9-.2-1.92.38-1.52.67-1.4.74-.13.4-.95 2.13-2.02.96-.22-.3-.62-.95-.18-.23.58-.77-.1-.13-2.3 1.34-1.08 1.5-2.9z"/>
    <path region="8" short-name="34" long-name="State Senate District 34" value="1" d="m757.63 828.96.85.65-.75 1.42zm-2.52.68.56.23.72 1.23.08 1.3-.52.16-.7-1.53.16-.54zm-1.62-11.91.13.25 1.43-.32.51.65.46 1.2.9.1 1.09 1.63.6.5-.24.9-1.87 1.99-1.42.24-.3.57 1.28.34.18 1.13-1 .48-.5 1.91-.46.55-.73-.07.03-1.17-1.63-.38-.76-1.54.44-2.09-.54-.71 1.27-2.46.09-1.62.5-1.62zm-8.6 14.8 1.2-.52 1.3-.2.06-1.63-.48-.98.93-.1 1.58.24 1.21-.32 1.19-.7.66.78v.72l-.5.15.2 1.4-.21.2.18 2.15.31 1.11.73-.14.31 1.12.79.3-.45 1.08 1.4.62-.42 1.01-2.17-.81-.78-.07-2.27.6-1.42.2-.23-.85-.67-.94-.84.14-1.15-.87-.52-1.39-.49-1.56z"/>
    <path region="9" short-name="41" long-name="State Senate District 41" value="1" d="m696.67 566.85 9.98-1.5 6.2-1.03 1.15-.1 11.2-1.88 4.17-.64 8.23-1.19 11.89-2.3 6.7-.96 5.81-.77 16.41-2.28 6.8-1.06 6.88-1.13 15.3-2.2 3.35-.41-3.75 13.82-4.04 14.9-3.64 13.42-4.18 15.36-4.08 14.96 1.43 6.24h1.2l-.28 8.44-.43 7.07-.45 6.15-.22 5.07-.47 5.74-.37 5.85-.76 11.12-.13 3.02-.61 9.04-.41 7.85-.13 3.62-7.33 1.02-6.23.93-.23-5.34-.76-10.96 1.24-6.79-.77.05-7.9 1.25-6.11.94-4.91.7-7.34.95.07-.61-1.58-1.49-.05-.29-9.66-.26-1.57.23v.56l-.7 5.64.52 2.59-.62 2.81.07 1.88-.24 2.4-.48 2.88.06 1.9-.16 4.06-5.85.7-3.45.48-3.42.38.01-.9-1.8-3.37-2.76 1.25-.57-1.16-.54-.3-4.54-1.43 1.25-2.95-2.48-.8.82-2.1 1.37-3.86.52.2 1.23-3.31 2.29 1.2.88-.21.55-.94-3.14-3.58-.09-.25-3.15-2.6-.33-.08-4.08-3.31 5.37-6.6 1.3-1.72-1.12-5.21.5-.8 3.18-7.06 1.33-2.66-.54-.43.73-1.77-6.33-4.63-6.84-5.32 2.25-1.56-2.44-5.4-6.64-1.05-.1-.79-.78.27-.06-1.21-1.65-.23-1.3.41-5.47 2.53-1.1 4-1.64 4.93-20.05-14.2-1.45-1.07 6.12-8.01-11.24-6.75 2.19-3.26 3.41.27 6.61-4.15-5.55-2.81-.5-.2-4.77-2.49 8.57-15.7 5.23-9.54-1.94-1.01 8.15-3.23.93.64 1.84.94 1.4 1.53.65-.48 1.47.2.57-.43.93-.03.62.5.51-.46 1.15-.48.82.24 2.07-.37.9-.86.52-1.06.82-.78h1.5l.3.34z"/>
    <path region="10" short-name="42" long-name="State Senate District 42" value="1" d="m697.86 703.79.23.76-.27.98.14.5-1.43 3.13-2.06 3.74-.63 3.3-.52-.1-2.94 4.87 3.42 2.57.93-.57 1.07.09.78-1.02 6.26 3.44.3.12 3.69-5.74 1.22-1.11 7.01 1.88 8.78 2.45.74-.7 2.14.53.52.37 1.9.2v2.05l-.32 3.13.3.74 1.42 1.23.64 1 1.1 2.42.67.96.56 1.45.09 1.12.4.55 1.33.48.15.72-.62 2.1-.47 1.09-.41 2.25-.24 2.1-2.47 3.9-5.47 5.22-9.53 8.97-10.9 10.44-6.17 6.03-5.78-3.33-2.78-1.62-5.43-3.27-2.84-1.92-4.66-3.16-6.75-4.37-5.32-3.21-13.62-8.5-4.33-2.54-6.75-4.13.65-.7-.17-.97-2.2-1.95-.62-1.84-.95-.82-1.2-.17-.72-.46-.61-1.13-.02-1.06.3-.35.5-1.56-.24-1.1-.54-.33-1.23.54-.51.5-.22-.5.58-.76-.54-.25-.43-1.45-.35-.3-.02-.87.48-.8-.16-1.09 1.15-.5-.27-.75.08-.77-.27-1.04-.66-.51-.3-1.05.18-.46 1.04-.5 16.69-.79 7.53-.37.45-.1 10.34-.53-.06-1 1.32-1.12-.01-1 .7-.31.53-1.22.7-.18.74-.73.1-.62.54-.35.12-.73 1.1-1.8 1.29-.75.25-.93 1-.05 1-1.2.54.03.28-.94.88-.5.63-.04 1.7-.8.83-.57.64.15.8-.27.35-1 .86.3.24.41 1.38-.71.02-.5 1.2-.25.73-1.11 1.25-.43-.03-.53 1.2-.75.3.24 1.51-1.17 1.55-.58.57-.7 1.76.58-.18 4.05z"/>
    <path region="11" short-name="46" long-name="State Senate District 46" value="1" d="m716.51 467.94.57 4.68 4.72.44 1.7.86 1.18.9 1.76.74 1.57.82 1.44 1.1 2.32 2.04 1.52 2.4 1.18.81 2.65-1.42 2.03-.83 1.78-.14.44 3.9.63 6.47-.95.2-.87.73-.6.15-.88.86-1.18 1.94-2.53 1.86-.08 1.26-1.5.55-1.03-.49-1.42 1.46 1.9 1.97 3.56.38 2.04-.44.48 1.02.36 1.54-.38.09 1.7 2.03-3.4.47 7.47 5.93 3.23 2.43 2.96 2.5 1.65 1.23 3.22.6.92.9.25-.65 1.17.74.44.84.82-.9-.18-.57 4.67 2.07-.96 1.66-1.2 1.23-.78 1.7-.59 1.74-.22 1.27-1.05 3.15v1.65l.5 2.34.62 1.8.03 1.71-.55 3.1-.23 2.48-.6 2.1-1.62 2.78-1.1 2.72-.19 1.05.04 2.09.26 1.27-6.71.97-11.89 2.3-8.23 1.18-4.17.64-11.2 1.87-1.15.1-6.2 1.04-9.98 1.5-1.16.19-.16-2.23 1.56-4.33 1-4.25.37-.32.65-2.3 1-1.53.45-2.43-.08-3.07-.43-.45-1.15-2.54-.44-1.2.59-1.6-.09-.51.46-2.16 1.74-1.67.08-1.03.56-1.04 2.74-3.7.12-1.39 1.68-3.32 1.21-3.62.15-1.18-.12-2.94.6-4.45-1.96-2.2-.51 3.02-2.33.28-4.7-1.4-.15.37-3.95.44.19-.9h-.9l-3.45-4.78.04-.85 2.26-.77 2.18-.12.75.3.67-.3.89-1.5-.37-1.71.8-1.48-.68-1.03-.05-.68-1.2-.35-3.3 2.2-4.46.06-16.47 1.8-8.33-4.25-5.28-2.64-4.45-1.15-6.58-1.76-14.37-5.77 1.5-10.83.08-1.4 1.36-11.1-.46-.19.4-1.44v-1.83l-.41-2.15-1.07-1.48-.88-.57-.09-.84 12.52 4.87 6.87 2.65 3.22 1.33 4.9 1.86 6.78.07 12.7.1 15.16.04 10.16.17 9.58.09z"/>
    <path region="12" short-name="49" long-name="State Senate District 49" value="1" d="m452.18 288.18.27-.5 1.47-1.42.51.39-.9.93zm-18.88-3.65.87-1.72 1.35-1.1-.96 1.84.58.62.08.95-.97-.53zm-2.46 27.14 1.39-2.47 1.77-1.5 1.17-.04.83-.45.15-1.44 1.11-.78.3.16-.59 2.08-.86 1.22-1.62 2.9-.91.59-.85-.17-.37-.75-1.26.93zm-1.9 62.04.93.2 1.4 1.43.9.47 1.4-.16.44.42 1.54-.43 1.14-.1.67.4 1.66-.19.95-.47.72-.73h1l1.3-.7 3.04-.8.9-.65.95-1.14 1.44-3.6.8-2.58.56-4.45.32-8.62v-2.34l-.68-5.41.12-.45-.56-3.87-.98-6.08-2.03-8.87-1.05-1.14.02-.9-1.41-.3.33-.6-.54-.81-.51-.21-2 .33-.14-.6.72-1.33-1.59-.9-1.76.63-.9-.2.53-1.88-.32-1.17 1.44-2.13 1.43-1.37 1.82-1.05 1.06.2 2.37-.97 1.24.76.06.31-1.83 2.9.28.29 1.28-.52.9.19.37.8.8.47.03 1.31.69-.28.48-1.17-.39-1.31 1.31-.73 1.43-1.5 1.46-.68.31-.41 1.7-1.18.97.32 1.55-.75.75-.86.1-1.28-.2-.44.39-.9-.4-.7.3-.75-.5-1.19-.09-.92-.78-.27-.3-1.09.59-.85 1.18-.85.54.42.67-.43 1.03-1.1.96-1.7.86-.95 1.26-.9 1.18.24.1.96.54.02 1.08-.79-.14-.48.26-1.48-.4-1.29.15-.74-1.28-.42-.8.28-.03-.79-1.05.34.12.96-1.9 1.62-3.04 2.83-1.53.9-1.24-.12-1.64 1.12-1.33.05-.03-.61-.66-.38.54-1.11-.51-.63-1.36.55-1.8.5-.1-.9-.9-.4.2-1.68.84-1.13 1.5-1.4 1.18-.2.95-.66 2.8-.6 1.04-.71 2.15-2.18-.14-.31.72-1.47-.4-.84-1.1.28-1.16-.21-1.25 1.42-1.27.16-1-.83 1.62-1.59 1.16-2 .55-.55-.78-.53 1-1.2-.92-.4-.86.89-1.32.44-.9-.59-1.75 1.27-1.53.17-.9.63-.9-.54-.27-.7 1.71-2.73-.21-.4-1.42 1.37-.3-.26-.8 1.1h-1.06l-1.49.74-.63-.44-2.12 2.13-.16.7-1.01 1.4-1.41 3.67.2 1.34.86-.5 5.74-2.37 1.84-.23 1.33.23.49.78-.36.84-2.25 2.95.21.81-.19.73-1.33 1.64-.64 1.17-2.18 1.93-.78-.09-.94.49-.48.57-1.2.08-.35-1.04 2.07-2.98-.1-.57.33-1.48-.48-1-.57-.14-.28-.74-1.44-.92-1.1.51-.56-.24-.2-.65.15-1.24-.8-.82.93-1.12.03-1.55.66-.57.02-.8-.4-.51.36-.82-.17-.7-.74-.12-.78.28-.88-.07-.78-.57-1.56-.38.01-.83 1.67-.95-.36-.45-.92.65-.64-.44-1.49.87-1.54.03.08-.87 1.78-1.8-.6-1.12-1.12.66-.23-1.17.41-.69-.27-.42-.98.4-.34-.91.74-1.24 1.29-1.19.8-1.02-1.06-1.6.38-.25 5.07-11.34 3.3-.84 4.66-.07.53.1 4.9-1.93 1.95-1.18 3.43-3.24.3-7.27 3.92-2.8.54.36 1.07-.05.79-.56 1.84-.27 6.6-5.69 4.66-2.14.93-.65 2.35.02.96.22.58.59 2.62-1.12 1.25-1.1 1.29-.75.98-1.64 1.1.14 5.25-4.73 6.4-6.63 1.66-6.98 5.25-7.84 4.96-4.78 3.85-4.4 4.33-4.32 5.57-4.92 4.73-5.14 9.5-10.06 3.57-2.7 4.24-4 1.18 2.02-.15.72.5.37.34 2.08-2.54.55.1.7 3.74 4.67 2.83 3.91 6.85 10.11 5.18 7.9 5.13 7.6 4.35 6.6 3.04-1.94 7.66-5.26 5.95-4.03 1.41 14.13 10.2-.51 7.72-.34 2.39 24.61.96 11.1-16.82 1.56.07.87 2.28 16.82 3.72-.12 12.95-.87 1.13 16.42 4.45-.57 13.22-1.6 1.4-.12 11.32-1.5 14.4-1.92 19.02-2.17 1.3-.12 11.73-1.46 2.59 21.2.68 5.33-10.23 7.83 7.67 9.85.48.67 7.42 9.54.33-.17 1.05-1.49 1.66-.68 1.82.08.8-.5.77.13.53-.46 1.22-.2.99.37.42.9-.1.82.71.03 2.1 1.5.9.14.8.54.8-.17.64.3 1.05-.67.74.62 1.86.9 2 .56-.5 1.35.61 1.3-1 1.9-.2 2.5-.4 2.05-19.7 2.74 1.36 12.23 2.69 24.09 2.84 26.02 2.1 16.96.94 7.84 1.01 8.91 1.76 15.32 2.11 18.37-1.9.02-9.58-.1-10.17-.16-15.15-.04-12.7-.1-6.77-.07-4.9-1.86-3.23-1.33-6.87-2.65-12.52-4.87.08.83.88.57 1.08 1.49.42 2.14-.02 1.84-.4 1.44.47.19-1.36 11.1-.09 1.4-1.49 10.83-8.76-3.67-5.85-2.37-1.14 8-.87 3.42-1.52 1.23-6.08-3.7-2.08-1.22-1.46-1-2.23-1.21.42-2.58 3.7-11.98-3.12-.2-4.01-2.2-8.97-5.15-4.31-1.36-10.15-3.27-.83-.3-.4-5.14 2.96-4.36 1.7.4.56-1.25-.48-.9-.49-.12 3.4-5.03 2.7-4.42 1.77-3.07 6.85-11.56-.46-.1-.31-1.12-1.1.66h-.88l-1.14-.44-.7-.53-2.18-.85-.15-.95-1.41-.32-1.23-1.08-.83.47-.2-.54-1.2-.6.47-1 .02-1.54.68-1.3.07-.9.56-.58.32-1.6-.17-.98 2.14-.59 1.24.54.3-1.18 1.34-.17.27-.84.83-1.45 1.32-.77 1.47-.2-1.01-11.87-1.64-17.05-.43-6.57-1.17-14.1-.07.06-15.45 9.8-10.51 6.6-9.67 6.13-8.76 5.61-9.08 5.88-3.08-.82-5.78-2.05-6.35-1.89-8.87-2.75-11.49-3.6-4.54 13.91-4.58 13.7-12.3-4.13-5.56-1.83-7.31-2.22-8.67-2.87-5.79-1.95-7.9-2.53-12.97-4.3-.13-3.06zm-1.36-90.07.41-1.11 1.33-1.2 1.05.21 1-.51 1.14.06.12.36-.82 2.4-1.6.85h-1.87l-.24-.78zm-8.13 26.25 2.46-3.18 2.55-2.17.8.08 1.2-.29 1.41.14-.55.65-.81 1.7-1.43 1.16-.79.2-2.55 1.6-.7-.11-.72.65z"/>
    <path region="13" short-name="7" long-name="State Senate District 7" value="1" d="m796.48 827.54.38.22-.23 1.2.8 1.75.28 1.49 1.35 9.4.1.38-2.3.9-.6-.03-.29-.57-.8-.25-.01-1.45-.83-1.49-.83-.07-.14.7-2.42.59-.89.06-.95.98-1.15.39-1.16 1.13-.87.41-1.45.39-.93-.8-1.98 1.32-3.76 1.3-1.41.91-.08.78-1.28.38-.18.96-.46.32-2.96.89-3.88.76-1.77.48.94-1.88-.14-2.24-6.16-5.01-.26-.73-.22-1.58.09-.54-.7-.45-.63-.79-.2-.65 1.45-1.69-.05-.98-.35-1.18.53-.76.76.85.54.06.49.84.88.17.24.57 1.03.28.6 1.09.23 1.1.55.5.42-1.31.46-.64-.2-.86.35-1.6-.7-.24-.55-.88-1.17.29-.73-.23-1.25-1.66 1.22-.75.16-.65-.5-1.44 1.13-.01.97-.76 4.72 2.13.08.45 1.97 3.34.78.96h.73l-.6-1.26-.07-1.34.2-.96.53-.63-.57-.74-.4-1.1.18-2.22.88-.99.8-1.42.16-.67 1.62-.47 1.2.25.56-.72 1.42-.1.92-.98 1.55-.15.79-.27.77-.7.48-.07 1.1.7 1.2.48 1.16-.56.98-.25.45-.51 1.95.79.6.54-.13 1.2-1.1.06-.52 1.78.12.63-1.62.24-.1-.81.7-.36.6-.93v-1.96l-1-.06-.74.9-1.33.15-.15 1.48.12 1.41.78 1.6 1.75-.22.78.7 2.07-.28-.75-2.07.33-.96 1.78-.18.66 1.71-.18.4.39.86 1.44.93.9.85z"/>
    <path region="14" short-name="50" long-name="State Senate District 50" value="1" d="m397.83 392.44 1.25-.93 1.03-.17.5-1.03 1.06-.54 1.47-1.39 1-.59.59-.62 1.62-.64.35-.5 1.9-.95.7-.11 2.45-1.43 1.08-.23.84-.77.6-.09 1.25-1.8.93-1.71 4.08-2.39.46-.55 1.47-.63.59-.92.87-.33 3.07-.37.41.3 1.54-.34.62 12.03.13 3.07 12.98 4.29 7.9 2.53 5.78 1.95 8.67 2.87 7.3 2.22 5.58 1.83 12.29 4.13 3.01 1-1.53 15.47-1.17 12.95-2.57-.4-2.35-.57-.54-.28-.09-1.14-.58-1.26-.68.4-1 .1-.44.42-.77-.15-.54-1.3-1.72-.04-.76.43-.64-.39-.3-.74-.72 1.75.33.4.93-.36.2 1.02.85.79-.34.96.7.47-.24 1.07.13 1.43.71 1 .8.33 1.13-.47.14.65-1 1.4.5 1.19-.32.31-1.08-.29-.77 2.05-.62.4.21.98-.1.98.8.34 1.09.08.27.35 3.09-.07.86-.54.86.06.4.7.72 13.7.12 3.02-6.53.3-7.01.37-11.37.74-.5-8.32.45-.6 1.89-.12-.04-.63 1.2-.07.22-1.22-.86-.6-.1-1.14.77.04-.07-.85-.77-1.4-1.24-.6-.32-.96-1.63.1-1.14.49-.23-1.13-1.31.08-1.35-1-1.1.54-.81-.76-1.12 1.59-.63-.37-2.32 2.34-.58.32-.06 1.56.93 2.1.33.01.26 1.74-8.38.41-4.78.33.14 2.4-10.17.65-.78-12.38 7.26-.5-.02-.42 2.89-.1-.06-1.1 2.4-.15-.03-.82 2.47-.18-2.49-3.97.81-.19.9.34.57-.12.63.58.58-.38-.36-1.04.86-.3 1.04-1.03-.04-1.1.25-1.4-1.18-1.73-1.19-.46-1.28-.82-.5-.97-.8-.4-.3-1.7.34-.66-.84-1.23.25-.79-.24-.98-.53-.68-.3-1.45-1.06-.83-1.23-1.21-1.08.23-1.02-.5-2.58.14v-.2l-8.94.5-8.1.4-.23-5.06-9.02.23-6.65.3-.34-7.5-.63-12.3-.16-2.1z"/>
    <path region="15" short-name="10" long-name="State Senate District 10" value="1" d="m744.12 876.5 3.71-2.33 1.95-3.09.18-3.5-1.94-2.55 1.6-.1-.5-2.8-.79.14-.37-.46-.2-.58 1.04-.3.13-.72.6-.12-.42-1.14 2.33.58-.22-.59.84-.1.31-.66.05-1.1.33-.11 1.5-.58.85 1.32 1.15-.43.55.07 2.2 1.64-.24.57.62.61.11 1.04 3.72-.03.44 2.1-.47.5-1.64.69v1.06l-.58.88-2.7 1.44-.17.37.26 1.56.84.61.67.16 1.17-.24.28.76.62.77.15 1.61-.92.01-.83.65-.87-.51-2.15.22-4.04 1.02-3.5 1.2-5.6 2.55-2.2.79-1.13.16-4.16 2.1-.32-.04.08-1.66 1.83-1.21 1.8-.6.68.4.77-.16.97-.8h1.22z"/>
    <path region="16" short-name="11" long-name="State Senate District 11" value="1" d="m753.14 852.94 3.48-.76.38-.32-.48-1.13 2.2-.6-.07-1.3.56-.61.37-.89 1.59-.66-.58-.82-1.16-.6-.24-1.17.65.3-.03-1.56.61-.98 6.16 5 .14 2.25-.94 1.88-1.08.22-1.75.72-.84.7-2.42.75-1.43.06-1.25.7.18.6-1.58.18-.42-.69-1.26.44-1.43-1.54zm-14.18-11.13 1.22-1.34-.27-.9 1.6.6.92-1.46 2.56 1.04.27.68.91-1.13 2.06-.56 1.43-.2 2.27-.6.78.07 2.17.81-.14 1.48.17.45 1.23-.18.44-.93h.65l.62 1.21-.47.36 1.01 1.7-1.2-.43-2.5.94-1.1.16-1.12-.12-.22-.52-1.4-.54-.53.88-1.16 1.3.3.55-.2.96-.6.28-.32-.85-.91.48-.85-.71-.77-1.11-.89-.53-.67.13-1.29.71-1.14-.59-1.09-1.01-.25-.79-1.08.28z"/>
    <path region="17" short-name="58" long-name="State Senate District 58" value="1" d="m228.59 547.96 14.45.1.06 7.41 11.45.5 3.38.08.3-10.95h7.5l.18-7.79 5.52.05 15.86.49 5.69.08 10.04.07-.07-14.07.22-.9-.23-.75 1.23-.02.21-3.77.27-1.74 1.09-3.35.93-2.28 1.58-2.51.48-.48 1.26-1.96h9.78l14.02-.05.01-.28 9.26-.09 4.15.01 5.78-.07-.82-1.56.09-1.2.31-.46-.28-2.68.23-.53-.22-2.25.17-1.4-.35-1.09.61-.82.07-.66-.35-.95-.71-3.13.41-1.25.63-.54 1.23-.23-.03-18.23-.04-6 10.8-.77 10.34-.6 10.5-.51.33 1.04-.95 1.16-.4.78.15 1.97-1.03 1.32.15 1.67-1.15 1.36.1.82-.44 1.9.64 1.67-.5 3.47-.11 1.37.21 2.55.25.79 1.36 3.14.45 1.68.02 2.64.4 1.74.04 2-.25 1.23-1 2.57-1.37 2.74-.22.9.07 3.33.76 7.27.57 2.59 1.17 2.15 3.07 3.04.95 1.37.33.77 1.72 5.95.66 2.1.8 2.17.5 1.04 1.38 2.25 2.35 3.06 1.07 1.24 1.55 1.25 2.53 1.63-9.65.39-4.34.14.42 9.39.52 9.67.44 10.38-.61.32.1 10.23-.17.02-.04 4.96 9.12.25 5.04.05 3.86.13 9.48.12-.06 2.97 7.37.13.11-9.47 8.15.01.03 1.69 7.9.03v1.96l4.81.02.11-1.18-.27-1.08.26-1-.25-1.57.51-.66.15-1.92 1.05-1.88-.25-1.5-.53-.71-2.66-1.93-1.36-.33-.62-.54-1.87.02-.5-.84.4-.79-.27-1.04.66-1.83 8.85-.33 11.77-.34.06 1.42h.65l.55 3.64h-.34l.06 2.33 1 .03-.01 1.66h.33l.26 1.7.08 1.72-.94.01.05 1.83h.5v1.36l.76-.02.01 1.43h.59l.32 1.19.04 1.67-.99.02v1.05l.68.01.12 1.52 1.59-.06.06 1.21.48-.02.35 2.36-2.02.1.04 1.35.68-.02.47.92.1 1.6.67.75-.1 3.33-.47.03.24 2.9-.45.04.08 1.15-3.74.21.6 12.51h.5l.05 1.76-.55.14.84 11.86-.18.07.06 5.5-5.02-.01-15.03.06-10.04.04-14.98-.1-12.14-.21-24.23-.26-21.64-.02-10.99.16-7.09.07-7.72.18-12.03-.03-13.94-.04-22.17-.05-13.24.1-17.7.12-10.38.04-15.83-.03.2-14.91-11.1-.07-3.89.08-.02-17.02.01-12.68 4.56.04 7.95-.01 10.23-.15.23.05 6.76-.14v-14.8l-14.82.06.04-9.85-.02-13.67h.16z"/>
    <path region="18" short-name="60" long-name="State Senate District 60" value="1" d="m79.09 539.13.8-3.5 1.1-.7.27-1.44.63-.18.43-1.66 1.66-1.48.62-1.35 1.06-.32.78-1.44.7.01 1.2-.82.1-3.43.32-1.12.8-.76.27-1.27.66-1.43.48-.02 1.56-.9.45.12.93-.8.6.01 1.11-.69.61.14 1.3-.28 1.68-1.1 1.05-.91.23-.59.94-.32 2.04-1.65 1.09-.12 2.2-.8 1.26-1.39.75-.43 4.62-4.12.76-1.35.79-.75-.02-1.76-.36-1.05-.72-.88 8.7.18-.9-4.1.04-1.93.63-.32-.7-.74.1-4.54 1.89.06 2.9-.59.4.04-.08 1.78 4.51.11h3.4V471l.01-20.95.7-.4.5.37.48 1.01.49-.69.57.12 1.5-.42 1.08.6 1.12.23-.18-1.4.84-.17.3-.87 1.05.37-.33.44.76 1.02.99-.4.8.65-.59 1 1.43.4.24.61 1.06-.07.6-.64.6.53.75-1.23-.62-.76.43-.75 1.75.16 2.17-.85.07-.64.58-.36.47.38-.63 1.08.83.75.5.07 1.02-.53.76.07.82-.41.12-.75 1.3.18-.06.65.51.34.18.8 1.34.13.55-.6 1.6.35.86-.31.1-.47.07 8.1.1 4.93-.16 8.29.06 11.32-.07 5.6-2.76-.04v1.8l-.24 13.22 3.15.03-.08 14.05.03 3.53.2 9.17-.18 12.64-.06 2.6-.6.5-.84-.17-1.01.25-.66-.33-.36.83-.97.39h-1.59l-.02.46-.93 1.02-1.08-.49-1.42 1.34-1.03-.62-.92 1.03-.85-.16-.34.68-1.22-.31-1.15-.63-.68.9-1.15-.63-1.41 1.07-.25.47-1.51-.08-.55.7-.99.6-.57-.25-.89 1.23-.5-.3-1.61.03-.17.53-1.33.44-.2.55-.82.08-.04.85-.44.44-.68-.17-.47.83-.67-.7v-1.53l-1.73.02-1.86.36-.22.57-1.1.14-.06.95-1-.22-.38.84-1.13.37.14.59-.9.34-.86-.6-.54.23.75 1.08-1.27.4-1.75-1.28-.61.1-.82.61-.47-.06-1.54 1.4-.73.42-.56-.12-.56.9-.91-.2-.9.36-2.19.13-.45.42-.77-.37-.9.55-.3-.62-.63.49-.48-.27-.34-1.24-.87.32-.78-.3-.84.93-.46-.32.44-1.51-.9-.93-1.2-.86-.42-.7-1.61-.15-.74-.65-.81-2.44.28-1.27-.68.05-1.08-1.51-.38-.05-1.18-1.77.13-1.03-.44-.74-.23-1-1.08-.44-1-.68-.67.2-2.48-1.48-.85.96-1.45-.25-.33.5-.87-.28-2.12-1.36-.7-.1-1.62-3.12-.7.36-.6-.29.24-.7-.55-.35-.8.03-.94.79-.44.06z"/>
    <path region="19" short-name="23" long-name="State Senate District 23" value="1" d="m728.34 872.85.56.02 1 1.01.53.88.37-.46-.02-.95 1.01.26.31.32 1.44-.21.31.68 2.6-.38-.2-1.46.7-.1.41 1.07.11 1.6-.03 1.19-1.8.02-5.65.83h-1.4l-1.2-.64-.18-.57.87-.69.67.14.6-1.17-.14-.53zm-1.65-1.84-.25.8-1.57-.4-.5-.71.65-.74.39.61zm-7.47 4.89-1.58-1.09-.52-.19-.73.78-.87-.78.62-1.23.77-.52.24-1.77.66-1.04.28-1.88.25-.69-1-1.12-.63-.03-.27.65-5.09 1.25-1-.11-.73 1.23-.22.87-.86-.85-1.72-.8-.6-.65-2.2-1.53 1.08-1.22.78-.34h.92l1.62 1 .89.25 1.52-.39 1-.43.89.37 2.6-1 1.65-.04.93-.42.94.07.95.9-.26.84.22 2.29.98 1.19 1.39 2.2-.06.7-.93 1.07z"/>
    <path region="20" short-name="52" long-name="State Senate District 52" value="1" d="m391.56 529.91 6.58-.3.02.54 7.4-.34 5.98-.31 6.28-.27.06 1.51 7.36-.25 17.03-.6-.56-12.86-.59-12.55 9.88-.6 8.87-.56 1.44-.13 4.4-.22.01-.28 9.49-.56 8.28-.6 5.52-.45.47 6.36 1.08 16.94.8 13.1.99 15.31.57 10.98.35 4.87.4 2.88.9 6.1.22 3-6.81.6-7.81.33-2.03.05.15 5.96.4 9.09 9.37-.54 3.66-.29 3.2-.11.79.55-.66 1.47-.05 2 .6.78.3 1.08 1 1.26.45 1.06-.22.98.45.95-.33 1.08-1.68 2.07-.9.2-1.1-.55-1.98-.4-1 .25-1.17 1.5-.65 2.18 2.57-.18.23 4.86 2.16-.2.22 2.27-1.21.42.15 2.1.29-.08.6 4.58-2.67.13.37 7.49h.63l.11 3.2-13.86-.04-15.88.03-.06-5.5.18-.07-.84-11.86.55-.15-.05-1.76-.5.01-.6-12.5 3.74-.22-.08-1.15.45-.04-.24-2.9.47-.03.1-3.33-.68-.75-.09-1.6-.47-.92-.68.02-.04-1.36 2.02-.09-.35-2.36-.48.02-.06-1.2-1.6.05-.11-1.52h-.68v-1.06l1-.02-.05-1.67-.32-1.2-.59.01-.01-1.43-.76.02v-1.36h-.5l-.05-1.83.94-.01-.08-1.72-.26-1.7h-.33v-1.66l-1-.04-.05-2.32h.34l-.55-3.64h-.65l-.06-1.43-11.77.35-8.85.33-.66 1.83.27 1.04-.4.8.5.83 1.87-.02.62.54 1.36.33 2.66 1.93.53.71.25 1.5-1.05 1.88-.15 1.91-.51.67.25 1.57-.26 1 .27 1.08-.1 1.18-4.82-.02v-1.96l-7.9-.03-.03-1.69-8.15-.01-.11 9.47-7.37-.13.06-2.97-9.48-.12-3.86-.13-5.04-.05-9.12-.25.04-4.96.17-.02-.1-10.23.6-.32-.43-10.38-.52-9.68-.42-9.38 4.34-.14 9.65-.4-2.53-1.62-1.54-1.25-1.08-1.24-2.35-3.06-1.38-2.25-.5-1.04z"/>
    <path region="21" short-name="57" long-name="State Senate District 57" value="1" d="m.03 590.52 2.9-1.15 7.08-3.73 4.76-2.94 4.16-2.85.84-1.13 1.9-.5 2.66-1.6 2.2-1.9.78-.2 1-.97.87-.35 2.59-1.93 4.58-3.75 1.53-.48 1.16-.7 3.08-2.95.43-.5.92-3.55.73.08.92-.3 1.55-1.45 1.42-.8 2.5-2.36.69-1.93 1.47-.28.16 1.1 1.59-.39 1.04-1 .66-1.3 1.21-.27 1.28-.5.49-.5 2.05-.25.85-1.37.85-.68 1.38-.61.51-.86.71-.28.97.19.6-1 .54.46 1.05-.58 1.84-.57.65-.5 1.56-.23.92-.93.44.5.82-.02 1.11-.78 1.16.22.4-.25 1.28-1.85.22-.92 1.4.81.44-.06.93-.79.81-.03.55.35-.24.7.6.3.7-.37 1.61 3.11.71.11 2.11 1.36.88.27.33-.5 1.44.26.86-.96 2.48 1.47.68-.19 1 .68 1.07.44.23 1 .44.74-.14 1.03 1.19 1.77.38.05 1.08 1.51.68-.05-.28 1.27.8 2.44.75.65 1.6.14.43.71 1.2.86.9.93-.44 1.5.46.33.84-.92.78.29.87-.32.34 1.24.48.27.64-.49.28.62.91-.55.77.37.45-.42 2.2-.13.89-.35.9.19.56-.9.57.12.73-.43 1.53-1.4.48.07.81-.61.62-.1 1.74 1.28 1.28-.4-.75-1.08.54-.23.86.6.9-.34-.14-.59 1.13-.37.37-.84 1.01.22.06-.95 1.1-.14.22-.57 1.86-.36 1.74-.02-.02 1.54.67.69.48-.83.68.17.44-.44.04-.85.82-.08.2-.55 1.33-.44.16-.53 1.62-.03.5.3.88-1.23.58.25 1-.6.54-.7 1.5.08.26-.47 1.41-1.07 1.15.63.68-.9 1.15.63 1.22.3.33-.67.86.16.92-1.03 1.03.62 1.42-1.34 1.08.49.93-1.02.02-.47h1.59l.97-.38.36-.83.66.33 1-.25.85.18.6-.51.06-2.6.18-12.64-.2-9.17-.03-3.54.08-14.04-3.15-.04.23-13.22v-1.8l2.77.05.07-5.6-.06-11.32.16-8.3-.1-4.92-.08-8.1-.13-6.92 6.9-.35 8.9-.03 3.8-.08 7.41-.01 17.26-.19v.16h8.52l6.12-.26 7.64.01 4.23-.1-.28.73-2.91 8.47-2.52 7.08 5.94.43-.44 5.91-.23.06-.11 5.76-.14 4.17-2.9-.09-.12 6.97-2.56-.1.07 7.44-.09 11.88.08 7.21-.05 6.6-.12 7.98-.75.9-.82-.12-.73 1.75.45.57-.69.54v1.4l-.9.58.11.73-.82.82.23.8-.39 1.05-.9-.11-.2.44-.94.49-.9-.34-.3.8-1.46.45-.22.34.4.89.79.27.6-.61 1.14.14.19 1.03-.92 1.02-1.38.34-1.73-.49-1.48 1.45-.27.98.65.61 1.45-.63.72 1.03-1.19.27-1.33 1.41-.5 1.64.22.9-1.15.76.25 1.03.89-1 .98.58-.15.52.69 1.82-.58.5 11.12.04v5.74h-.15l.02 13.67-.03 9.85 14.8-.07.01 14.8-6.76.15-.23-.05-10.23.15h-7.95l-4.56-.03v12.68l.01 17.02 3.9-.09 11.1.07-.2 14.92h-5.11l-4.26-.12-11.84-.17-18.52.25-4.67-.08-9.84-.02-16.94-.04-9.72-.02-19.36.3-15.82.1-5.58-.1-8.11-.14-9.9-.05-14.83-.03-9.01.1-16.7.06-11.47.04-9.98-.07-15.02-.11-11.51.04-.08-3.4v-17.03L0 614.2l.05-5.36L0 595.1Z"/>
    <path region="22" short-name="1" long-name="State Senate District 1" value="1" d="m977.04 763.25.77-1.1.28-.89.83-.21.22-.88-.4-.59.5-.36 1.58.72-.24.8.35.65 1.6-1.38.17-1.52 1.08-.33.9.37.97-.31.13-.61.86.32.98-.35.71.42.78-.04-.09-.77.46-.67 1.41.4-.07.64-.82.76-1.86.2-.64.42-.83.01-2.72 1.68-.88.71-.67 1.09-.9.55-.97-.4-.88-.03-1.12.74-1.38.2zm-13.3 25.79.37-.64.85-.35.62-.74.3-2.2.61 1.02.84.78 2.73 1.09.7.51 1.2.18.1.53-1.1 1.06-.13.79.17 1.22.37.89-.49.72-.07 1.65-1.03.8-.26-.1v-3.53l-.75-1.78-.42-.4-1.79-.72-2.17.03zm-8.67-13.23.35-.48 2.47-1.5 2.04.18-.71.54-1.04.16-1.33 2.97-.34-.03-.55-1.03-.96-.3zm-65.36 67.86-.08-1.19.08-5.96-.17-.2.36-3.06 3.23-13.42-.82.26-1.83-.26-.85.36-.67.93-.74-.22-1.23.84-.68.26-.98-.44-.72.09-.85.5-.9.83-.6 1.6-.62.32-1.64-.34-1.3 1.41h-1.77l-1.06-.19-.63-5.43-.64.5-2.64 1.33-.88.17-.99.5-1.64.38-2.33 1-1.38.35h-.72l-1.54.46.09-1.59-.44-.92-1.33-1.13-1.13-.18-1.11.28.07 1.18-1.55.21-.3.68-1.27.27-1.05-.18-.3.86-1.1.76-2.5.01-.82.2-2.64-.02-2.26-.5h-.76l-1.04.57-.82-.1-.38-.45-1.45 1.12-.43-.55-.96.38-.67-.16-1.12-5.43-.7-1.22-.42.05.48-1.78.15-.03.3-2.65v-1.89l-.42-.64-.81-.33-.47-.98 1.25.25 1.2-.07 1.08-.42 1.5-1.4 1.02.9 1 .45 1.08.04.43-.5 1.64-.14 2.85 1.34 1.42.45.36-.4 5.69-.33 5.16.06 5.22.61 3.24-.08 2.86-.26 4.11-.94 4.13.57 3.34.23 3.6-.52 3.12-.92 1.63-.66 2.82-.4 1.6.27 3.12-.44 1.63-.11 2-.75 4.36-1.87 5.13-4.11 3.38-3.02 1.06-.14 2.02-.93.5-.44 1.57-.52 2.28-2.37 1.77-3.32 3.46-.3 2.65-1.4 1.37-1.68.45-1.39.9-.72.68-.15.99-1.05.78-1.29.25-1.06 1.88-.15.75.48 1.48-.12 1.12-1.56.66.17 1.09-.98 1-.51 1.55-.48.73.62.77.16 1.8-.93.72-.22 1.65.34-1.09.94-1.17 1.9-.37 1.34-.77.71-1.08.27-1.18 1-1.34.74.61-1.42-1.97-.97-1.1-1.3-1.06.06-.13.39-1.07.83-.4 1.03-1.19 1.84.02.81.49.56.66.16 1.13.9.07 1.06.4.94 1.16.32.8.74 2.7.33.53.58-.87 1.52 1.15 2.6-.87.78.15 1.03.49.84 1.15.16.8-1.08 2.43-.45 1.5.07 1.5.62 1.05 1.04.93.36 1.43-.05 1.4-.98.58-1.3 1.52-1.17 1.14.22 2.1 2.04.27 1.4-.29 1.25 1.35 1.38 1.31 2.66.93.95.87.44.85.02 1.57-.85.7-1.97 1.84-.52.21-.94.58-.22.27-.6.73-.13 1.8.5 1.15-.16 1.08-.5.58-1 1.91-1.91.58-1.05 1.33-.12.43.82.82.36 1.1-.29.8-.96-.1-1.08-.45-1.56.25-1.21.56-.31 1.18-.1.96-.63 2.39-.52 1.9-.92.4.2.72 1.25.75.28 1.24-.18 1.3.29.64-.32.88.57.16.5-.62.96-1.21 1.24-.4.87-.84.58-.9.23-1.39.64-.36.51-1.52.37-.44-.1-2.37.8-2.93 1.25-8.92 4.5-10.76 4.66-15.38 7.47-2.87 1.58-10.29 5.18-7.06 3.42-9.38 4-13.08 4.93-11.34 4.12z"/>
    <path region="23" short-name="62" long-name="State Senate District 62" value="1" d="M254.7 406.88v4.08l-.53 16.36-.2 13.54v2.4l-8.08-.34-11.38-.32.28-.74-4.23.11h-7.64l-6.12.25h-8.52v-.16l-17.26.19h-7.4l-3.8.1-8.9.02-6.91.35.13 6.91-.09.48-.85.3-1.62-.34-.54.6-1.34-.13-.18-.8-.51-.34.06-.65-1.3-.18-.13.75-.81.41-.76-.07-1.01.53-.5-.07-.85-.75.63-1.08-.46-.38-.58.36-.07.64-2.17.85-1.75-.16-.43.75.62.76-.75 1.23-.6-.53-.6.64-1.06.07-.24-.61-1.43-.4.6-1-.81-.66-.99.4-.76-1 .33-.45-1.04-.37-.3.86-.85.19.18 1.4-1.12-.23-1.08-.6-1.5.41-.57-.12-.5.7-.47-1.02-.5-.38-.7.4-1.34-.1-.27.77-1.2.25-1.03-.9-.8.35-1.21 2.3-1.03.3-1-.3-1.24.16-1.21.8-1.05-.2-1.92.13-.64.8.31 1.04-1.16.6-1.94.06-.4.58.7 1.47.18 1.01-.6.7-.4.95-.77.81-1.5.04-.67-.49-1.55-.2-.95.29-.72-.45-1-.07-.4-2.29-.4-1.1-1.94-1.83-4.26-2.12-.6-.16-4.53-.12-3.02-.17-1.21.28-6.99-1.72-.11-.6 1.34-2.05.86-2.39-.22-1.01-1.19-1.24 1.56-1.2.93-1.42.68-.52.21-.97-.53-3.24-.82-1.96.06-1.73.5-2.78-1.06-1.9.53-1.99-.38-2.86-.03-2.71-1.82-1.44.92-.21 5.48-1.74 2.69-.58 1.34-.14 4.1-1.3 3.14-1.38 2.88-.98 3.13-.95 4.03-1.37 1.91-1.08.28.15 2.32-.53.97-.44 4.3-.76 5.7-2h1.75l2.32-.39 1.28-.38 6.62-2.46 4.46-.66 6.54-1.42 3.47-.49 1.1.1 2.84-.52.8.06 1.19.63 2.68-.32.55.1 2.35-.18 1.88-.33 1.44.04 4.11-.3.68.41 2.8.1.71.17 3.28-.18 1.11.37 3.73-.02.67-.18 1.84.12.81.47 1.65.03 3.03-.45 1.2.17 1.36-.16 1.35.16 2.39-.7 1.85-.14 5.15-.02 3.78.58 2.1.4 2.37-.15.82.67 1.16.08 2.38-.28.64.53 2.33-.36.62-.34.86.34.56-.15 5.37 1.93h2.27l.5.38 1.53.51 1.7.38 3.44.5.49-.13 2.18.82 1.33-.13 2.42.65 2.47.05 2.23-.28.41.66z"/>
    <path region="24" short-name="51" long-name="State Senate District 51" value="1" d="m493.66 571.52 11.68-.7.06 1.01 11.63-.64 2.36-.16-.76-12.64 10.1-.64 3.3-.24-.66-9.74-.37-6.38 14.22-.93.41 8 5.08-.24.12 1.45.65-.44 1.53.08.76-1.78.28-1.9 1.1-.75.58-1.55.08-1.15 1.18-.27 1.17-.74.16-.42.97-.04.95-.98.65-1.75-.31-.8.61-1.32-.74-.8-.64-.14-.3-1.97.22-1.34 1.51-1.08.25-.52-.81-1.2.72-.7.1-1.7-.63-.74.1-.82-.5-1.4.4-.52-.4-.66.5-1.12.1-1.1.58-.22 1.07-1.32.28-1.31 1.02-2.53.83-1.13.1-1.48-.59-.32.95-1.5-.42-.77.35-.93 1.05-.54.64-.65.23-.94-.19-.68.55-.44.2-.85.75-.7 1.14-.25.23-1.04.64-.16-.07-1.11.32-.3-.25-1.02.43-1.64.05-1.13.55-.18-.8-1.5.7-1.2.64-.6-.97-2.69.04-.95.36-1.02-.1-1.27-.4-.51.67-1.08 3.87-.36.18 3.97.13.06 8.83-.55 1.48-2.64.94-1.45 2.5-4.3 12.72 7.27 2.23 1.22 1.46 1 2.08 1.2 6.08 3.71 1.52-1.22.87-3.44 1.14-8 5.85 2.39 8.76 3.66 14.37 5.77 6.57 1.76 4.46 1.15 5.28 2.64 8.33 4.25 16.47-1.8 4.46-.07 3.3-2.2 1.2.36.05.68.68 1.03-.8 1.48.37 1.7-.89 1.5-.67.32-.75-.31-2.18.12-2.26.77-.04.85 3.45 4.78h.9l-.2.9 3.96-.44.15-.36 4.7 1.4 2.33-.3.5-3 1.98 2.2-.61 4.44.12 2.94-.15 1.18-1.21 3.62-1.68 3.32-.12 1.39-2.74 3.7-.56 1.04-.08 1.03-1.74 1.67-.46 2.16.09.51-.59 1.6.43 1.2 1.15 2.54.44.45.08 3.07-.44 2.43-1 1.53-.66 2.3-.37.32-1 4.25-1.56 4.33.16 2.23 1.16-.19 1.22 5.32-.3-.34h-1.5l-.82.78-.53 1.06-.9.86-2.06.37-.82-.24-1.15.48-.5.46-.63-.5-.93.03-.57.42-1.47-.19-.65.48-1.4-1.53-1.84-.94-.93-.64-8.15 3.23 1.94 1.01-5.23 9.54-8.57 15.7 4.77 2.48.5.2 5.55 2.82-6.6 4.15-3.42-.27-2.19 3.26 11.24 6.75-6.12 8.01 1.45 1.08 20.05 14.2 1.65-4.94 1.09-4 5.47-2.53 1.3-.4 1.65.22.06 1.2.77-.26.11.8 6.64 1.05 2.44 5.4-2.26 1.55 6.85 5.32 6.33 4.63-.73 1.77.54.43-1.33 2.66-3.18 7.06-.5.8 1.12 5.21-1.3 1.72-5.37 6.6 4.08 3.31.33.08 3.15 2.6.1.25 3.13 3.58-.55.94-.88.22-2.29-1.21-1.23 3.3-.52-.19-1.37 3.85-.82 2.1 2.48.8-1.25 2.96 1.03 5.6-7.46-1.95-.27.56-7.26-2.2-.85-.27.18-4.05-1.76-.58-.57.7-1.55.58-1.5 1.17-.31-.24-1.2.75.03.53-1.25.43-.74 1.11-1.2.25-.01.5-1.38.71-.24-.41-.86-.3-.35 1-.8.27-.64-.15-.83.57-1.7.8-.63.04-.88.5-.28.94-.53-.04-1.02 1.2-1 .06-.24.93-1.3.75-1.1 1.8-.1.73-.55.35-.1.62-.74.73-.7.18-.54 1.22-.7.3.02 1.01-1.32 1.13.06 1-10.34.51-.45.11-7.53.37-16.69.8-1.04.49-.18.46.3 1.05.65.5.28 1.05-.08.77.27.74-1.15.51.16 1.08-.48.8.02.88.35.3.43 1.45.54.25-.58.76.22.5-1.14.24-.88-.44-2.5.77-.63-.4-.52-1.23-.22-1.15-.56-.67-.82-.15-.74.42-1.34 1.65-1.05-.15-1.48-1.45-1.26-.71-.77.07-1.53.62-1.51.35-.66-.12-.32-.54.2-.67.73-.86-.16-.7-.6-.48-1.5-.5-.28-1.9-.42-.54-1.47-.25-1.07-.88-1.65-.15-.31.44-1.29.71-1.47-.18-1.49-.42-.5-1 .4-1.79-.24-1.71-.42-.36-1.51.23-.52-.63.35-1.1-.37-1.09-1.61-1.36-.81-.17-.23-1.13.91-.5.17-.63-.28-.9-1.12-1.98-.73-.26-.93-.78-.43-.91-.36-1.39-.78-.76-.9-.51-.88-1.46-.97-1.06.87-.75 1.02-.11-.25-.8.99-.53.7.45.52-.34.08-.96-.59-1.41-.13-1.67.07-2.45-.15-1.05-.52-.96-.56-.24-.04-.81.77-.68.18-.68-.19-1-.9-1.93-1.14-1.43.28-.75 1.82.2.32-.62-.48-2.04-.16-1.36.25-1.62-.08-1.33-.92-2.05-1.51-.7-.41-.47-2.14.54-1.03-.13-.46-.86.4-2.33 1.08-1.44.58-.2.87.19.58-.35.6-1.66v-.92l-.98-.18-.75.54-.98-.3-.82-.84-1.68-.75-.21-1.28.2-1.02-.13-1.24-.55-.38-1.55.12-1.17-1.18-1.6.6-1.1-.22-.58-.68-.32-.92.08-1.32-.31-.78-.77-.12-.92 2-.4.08-.55-.84-.81-.64-.78-.18-1.39.41-1.1 1.7-1-.34-.9-1.06-.59-.2-1 .82-.83-.02-.63-.69-.13-.77.8-1.08-.4-1.13-1.34-.61-.2-1.66.64-.82.03-.87-1.14-2.57-.09-1.94-.23-.9-1.3-.68-.55-2-1 .31.05.67-1.16-.02-.98-.89-.24-1.13-1.17-1.25-1.29-.44-.38-.6.62-2.1-.45-1.04-2.33-1.13-15.7.03-16.02.05-16.68.19-16.25-.17-.11-3.18-.63-.01-.37-7.5 2.66-.12-.6-4.58-.28.09-.15-2.1 1.2-.43-.2-2.27-2.17.2-.23-4.86-2.57.18.65-2.18 1.18-1.5.99-.25 1.98.4 1.1.56.9-.21 1.68-2.07.33-1.08-.45-.95.22-.98-.46-1.06-.99-1.26-.3-1.08-.6-.78.05-2 .66-1.47-.79-.55-3.2.11-3.66.3-9.37.53-.4-9.1-.15-5.95 2.03-.05 7.81-.32 6.8-.6-.2-3.01z"/>
    <path region="25" short-name="39" long-name="State Senate District 39" value="1" d="m697.86 703.79 7.26 2.19.27-.56 7.46 1.96-1.03-5.61 4.54 1.43.54.3.57 1.16 2.76-1.25 1.8 3.37-.01.9 3.42-.38 3.45-.48 5.85-.7.16-4.06-.06-1.9.48-2.88.24-2.4-.07-1.88.62-2.81-.53-2.6.71-5.63v-.56l1.57-.23 9.66.26.05.3 1.58 1.48-.07.6 7.34-.94 4.9-.7 6.11-.94 7.9-1.25.78-.05-1.24 6.79.76 10.96.23 5.34 6.23-.93 7.33-1.02-1.14 15.66-6.34.14-5.1.74-8.01 1.47-3.99.55-5.6.7-1.4.25-8.56 1.01-.02 7.77.83-.67.21-.89.93-1 1.2-.55.62-.71 1.41-.63 1.15.39-.45 8.1 3.65-.3-1.15 1.58-.98 1-.29.77-1.14.84-.16.37-.62 10.5-10.88 1.46-12.54 1.75.22-.6 2.47-3.9.24-2.1.41-2.25.47-1.09.62-2.1-.15-.72-1.32-.48-.41-.55-.09-1.12-.56-1.45-.67-.96-1.1-2.41-.64-1.01-1.42-1.23-.3-.74.32-3.13v-2.05l-1.9-.2-.52-.37-2.14-.53-.74.7-8.78-2.45-7.01-1.88-1.22 1.11-3.69 5.74-.3-.12-6.26-3.44-.78 1.02-1.07-.09-.93.57-3.42-2.57 2.94-4.87.52.1.62-3.3 2.07-3.74 1.43-3.13-.14-.5.27-.98z"/>
    <path region="26" short-name="38" long-name="State Senate District 38" value="1" d="m716.27 764.96 2.58 1.93.73.24.9-.4.86.17 1.49 1.4 1.07.28 2.72-.14 4 1.08 1.63-.45.6-.62 2.57-.46 2.08 3.04.74 1.65.5 1.5.93 2.03.34 1.08.65.99 1.41 1.32.75 1.5.25 1.14-.01 1.6-.79 5.97-.13 1.82.12 4.1.44 2.04.13 1.37-.09 2.52-.44 2.9-.05 1.36-1.1-.02-9.34-5.56-14.74-8.69-11.3-6.57-3.66-2.04-2.9-1.61 6.15-6.03z"/>
    <path region="27" short-name="59" long-name="State Senate District 59" value="1" d="m737.13 842.57.58.31 1.25-1.07.44.57-.25.8.83.9-1.73 2.83-1.04.09-1.45 2 .62 1.06-.33.93.79.47-1.82 1.47-1.25.68-.93-.36.23-.63-.8-.47.19-.99-2.45-1.36 1.19-2.06.47.13.52-.95.88-.22 1.12.93 2.07-3.2.76-.59-.3-.77z"/>
    <path region="28" short-name="5" long-name="State Senate District 5" value="1" d="m776.63 869.64 1.06-.93 1.52.34 1-.07 1.04-1.02.77-.25.29.68.53-.1.38-.76.63-.4h.65l-.72-2.57-.11-2.34-.38-.57.06-.8-.33-1.14-1.12-6.93.02-.88.43-.14-1.35-4.09 2.06-.57 1.45-.6 1.3-.35-.12-1.4-1.21-1.08 1.44-.39.87-.4 1.16-1.14 1.15-.4.95-.97.89-.06 2.42-.6.14-.69.83.07.83 1.5v1.44l.81.25.3.57.58.04 2.3-.9.7 5.06.65 4.65-.81.11-.38-.37-1.33.14-.67-.15-.42-.82-1.26.6-1.35.12-.77.55.77 4.56.15 1.87.05 2.7-.72 1.52.23 2.24v7.94l-3.84.87-4.28 1.23-2.87 1.1.16-.91-.49-.18.04-1.85-1.52.23-3.22-.48-3.29.28.57-1.34.15-.96z"/>
    <path region="29" short-name="32" long-name="State Senate District 32" value="1" d="m739.78 831.35.9-.4.7-1.4 1.69.85 1.29 1.16.53.97-.55.74.5 1.56-1.37.3-.77.44-.86 1.08-.47-.53-1.42-.51-1.3-.84-.2-.44.6-.96.03-.87z"/>
    <path region="30" short-name="20" long-name="State Senate District 20" value="1" d="m731.96 859.06 2.4.71.15-.59.7-.3 3.17.23.36.15-.13 1.84-.2.12-.8.46.76.9.49.94-5.09.41-.46-.13-1.12.55-.25.74-.5.06-.3-2.08-.84-.67-.85-.06.8-1.09.3.2z"/>
    <path region="31" short-name="21" long-name="State Senate District 21" value="1" d="m731.76 866.34.18-1.25.25-.74 1.12-.55.46.13 5.09-.4.27 3.4.3.01 2.28 1.51-.57.49.46.54-.74.6.44 1.48-1.46.24-.8-.68-.5-.87-.6.52-.97-.58-.46.4-.97-1.14-.28-1.18-.72.1-.4-.75-1.62.23-.2-1.07z"/>
    <path region="32" short-name="27" long-name="State Senate District 27" value="1" d="m726.41 849.54 1.17.06 1.66-.23.77.42 2.45 1.37-.19.99.8.47-.23.63-.16 1.09-.4-.3-.82.6-1.3.11-.31-.73-.78.17-.37.44-1.47.9-.45-.2-.37-.82.26-1.67-.77-.55z"/>
    <path region="33" short-name="31" long-name="State Senate District 31" value="1" d="m734.64 830.9.16-.53 2.41-5.2 2.35 1.1.48-.61.13-.7.64-.65 2.08.47-.1 1.26-1.92 3.06-.37-.15-.78 1.84-.01.55-1.78-.03-.62 1.64-.9.88-1.28-.66-.45.95-.46.3-.62-.32z"/>
    <path region="34" short-name="33" long-name="State Senate District 33" value="1" d="m738.97 819.91.2-.68 6.38 2.46-.88.76 1.43.51-.94 2.53-.15 1.63.21 1.22 1.49-.17.26 1.03.47.98-.05 1.63-1.3.2-1.2.52-.53-.97-1.3-1.16-1.67-.86-.7 1.42-.9.39h-.08l.01-.56.78-1.84.37.15 1.92-3.06.1-1.26-2.08-.47-.64.65-.13.7-.48.62-2.35-1.11.5-1.09z"/>
    <path region="35" short-name="40" long-name="State Senate District 40" value="1" d="m716.27 764.96 9.53-8.97 5.47-5.22-.22.6 12.54-1.75 10.88-1.46.62-10.5.16-.37 1.14-.84.3-.77.97-1 1.15-1.58-3.65.3.45-8.1-1.15-.4-1.4.64-.62.71-1.21.55-.93 1-.2.9-.84.66.02-7.77 8.57-1.01 1.4-.25 5.6-.7 3.98-.55 8.01-1.47 5.1-.74 6.34-.14-.38 6.21-.58 9.54-.45 4.7-.28 4.96-.7 8.48v3.15l-.25 2.05.26.42 3.86 6.1 4.5 7.39-.27.16-3.5 2.09-4.2-6.8-2.27-3.42-7.06.86 3.19 9.26.34.86-4.58 1.62-9.57 3.28-.72.5-1.86 1.67-2.75 2.1-.51-.15-8.05-5.13-.35.97-1.35 2.51.65.8.43 2.16-.45 1.03-.61.8-.78-.23-.14.53-6.8-1.36.02-1.6-.25-1.14-.75-1.5-1.42-1.32-.64-1-.34-1.07-.93-2.03-.5-1.5-.73-1.65-2.09-3.04-2.56.46-.6.62-1.63.45-4.01-1.08-2.72.14-1.07-.28-1.5-1.4-.86-.17-.9.4-.71-.24z"/>
    <path region="36" short-name="43" long-name="State Senate District 43" value="1" d="m740.63 505.82 12.3-2 .02-.66h1.25l.75-.64.82-1.22 1.23-.36 1.09 1.02.67-.47.63-1.15 1.05-1.06.23-.67 1.35-2.34 1.4-.64.56.5.1 1.14.54 1-.35 1.03 1.08 1.05.3 1.3 1.54 1.6.97.51 1.12-1.37.44.01.56-2.15.63-.76.76-.48.37-1.05-.15-1.71-.6-1.96-.79-1.62-.4-2.71-.27-.54.27-1.41.07-1.48-.83-1.21-.6-1.81.11-1.47.6-1.88 1.97-2.52.46-1.13 1.15-.85 1.35-.2.97-.86.33-1.01.12-1.54-.35-1.83.26-.42 2.42-1.59.22-.43.12-1.9.31-1.13.98-1.04.48-1.2.35-1.54-.1-1.51.59-1.85.14-1.23.63-.5.38-1.04-.48-1.74.07-.75.67-1.28-.3-1.77.61-1.72-.35-1.71-.14-1.48-1.06-.81-.53-1.36-.12-1.38 1.34-2.33-.02-.61-1.2-2.44.76-1.1.36-.98-.17-1.24-.43-.6.32-1.6.5-1.14-.3-1.74-.55-1.48-.9-.82-.56-1.53.05-.6 1.17-1.58.08-1.07-.24-.7-.87-.94-.6.05.09-1.9.63-1.93 3.44-.54 12.38-1.74-.92-7.08-1.19-8.71.34-.51-.51-.62.44-.8 15.27-2.17-1.41-10.72 2.91-.44 6.33-.81-1.95-14.54-.3-3.09-1.07-6.61 1.34-.25.88.56.55-.68.53.64.22 2.37 1.02 1.44-.13 1.75-.46.91.57.39-.14 1.15 1.09-.13.65.87 1.31.4 1.36 1.23.76 1.41.5.52-.22.6.04 1.22.45.28.57 1.2.02.97-.62.63-.2 9.65-.53 17.32-.25 9.83-.25 9.6-.28 5.1-.87 23.17-.53 10.44-.58 16.16-.18 7.81-.36 11.02-.85-.12-.21 2.4.41 1.1-.9 2.05 1.83 9.63 1.45.02-5.32 19.5-5.75 21.06-3.34.4-15.3 2.21-6.9 1.13-6.79 1.06-16.4 2.28-5.82.77-.25-1.27-.04-2.1.18-1.04 1.1-2.72 1.62-2.79.6-2.09.24-2.48.55-3.1-.03-1.71-.62-1.8-.5-2.34v-1.65l1.04-3.15.23-1.27.58-1.73.79-1.7 1.2-1.24.96-1.66-4.68-2.07.2.56-.84.91-.43-.84-1.17-.74-.25.64-.92-.89-3.22-.6-1.65-1.24-2.96-2.5-3.23-2.42-7.47-5.93z"/>
    <path region="37" short-name="2" long-name="State Senate District 2" value="1" d="m836.57 817.4-.48 1.8.41-.06.71 1.22 1.12 5.43 1.64 7.68-.87.4-2.56.23-4.75.4-5.15.35-.33.1-.2 2.49-.86.14-5.46.47-1.73.2-.04 3.29-9.38 2.86-2.87.84-5.92 1.8-.7-5.05-.09-.39-1.35-9.4-.28-1.5-.8-1.74.23-1.2-.38-.22.01-.48-.72-.7-.27-1.04-.03-1.93-.27-.78-.5-.4-.73-1.47-.22-1.13-.4-.72-.83-.57-.04-.43.52-2.64.93-.83.89.69 1.85.77 3.26.51.98 1 .1 1.33-.9 1.56 1.25.88 1.67.35 1.37-.29.75-.52 1.28.7.37.75.44.01.5-2.04 1.75 1.4.52.97.61-.68-.43-.65-.17-.87.52-.26.27-.92-.16-.99-.9-.15-.5-.6-.76-.25-1.47.28-.96.84-1.78-1.3.01-1.81.18-2.05 1.16-.15 2.33 2.97 1.08.99 2.66 1.21.09-.38 1.62-.48 4.6.85 3.49 1.64 3.8.92 1.14.54 7-2.53 2.35-1.14z"/>
    <path region="38" short-name="47" long-name="State Senate District 47" value="1" d="m727.04 846.15.02-.15 3.7-6.7.52-.94 1.11.6 1.15.92.03.43.86.62-1 1.83-1.02-.84-3.2 5.81.35.2-.68 1.24.36.2-1.66.23-1.17-.06z"/>
    <path region="39" short-name="4" long-name="State Senate District 4" value="1" d="m799.85 847.05 5.92-1.81 2.87-.84 9.38-2.86.04-3.3 1.73-.2 5.46-.46.86-.14.2-2.5.33-.1 5.15-.35 4.75-.39.09.58-.5.63-.74 1.6-1.75 2.55.73.7-.48 1.18-.16 1.86-2.15 1.3.08 1.53-1.1-.12-.45.74-.26 1.07.03 1.55-.41.21-3.03.79-.33.28-1.66.54-1.42.68-1.41.5-.37-.68.29-1.12-1.61.25-1.5.82-1.04.01-.27.68-1.45.36-.13.99-.93.24-1.67-.22-.08-.36-1.59.1-.06.46-1.2.19-1.15-.18-.9 1.12-1 .92.82.67-.67.8.25.75-1.91.69-3.9.2-1.05-7.26z"/>
    <path region="40" short-name="56" long-name="State Senate District 56" value="1" d="m254.7 406.88 2.26.85.33.45 1.76.7.06.98.75 1.23.8.45 2.42 1.8 2.77 2.59.83.61 3.22 1.42 3.31 2.5-.58.68-.64 1.28-.33 2.57.2 1.6-.47 1.67-.87 1.06.7 1.22-.07 1.43.27.73v1.48l.48.94.64-.03.03.91.66-.03-.06.92.61.15.24.6-.44 1.02-.88.59-.84 1.2.94.34-.35 1.16-.64.12-.54 1.33-1.51.3-.25 1.04 1.03.71 1.36.59 1.08-2.73.42-.78 1.43-1.05h1.81l3.28-.16.2-.98 1.05-2.1.04-.52.68-1.76.65.74v.6l.69 1.9.8.17-.08 4.15-2.7-.04-3.15 7.98-2.94 7.69-1.07 2.8-2.5-.08-6.67.05-7 .13-.74-.7.03-.8.44-.33.42-1.08-1.05.1.7-2.04 1.5-.75 1-.07 1-1.17-.27-1.15.32-1.22-1.05-.2-.04-.9 1.56-.41 1.4-1.98.65-1.71.1-1.02 2.7-1.74 1.4-1.05-.84-.6-.3.94-1.36.78-.66.01-.28.56-.77-.05-.8-1.08.7-1.19-1.3-.03-6.07.1h-2.34v-2.4l.2-13.55.52-16.36z"/>
    <path region="41" short-name="12" long-name="State Senate District 12" value="1" d="m739.4 842.38 1.08-.28.25.79 1.09 1.01 1.14.6-.72.04-.76 1.5.33.82.51-.07.34 1.62.77.45.68-.55 1.02.73.34 1.06.53-.12-.3 1.02-1.08-.52-2.46.96.32 1-.52.7.95.42-.18.67.59.3.34.78-.5.33-.2.76-1.14.19-.6.35-.56-.42.51-1-.4-.72-.98-.47-1.34-1.06.16-.41-.8-1.87-1.07-.36-.36-.57-.62-1.05 1.45-2.01 1.04-.1 1.73-2.81-.83-.9z"/>
    <path region="42" short-name="13" long-name="State Senate District 13" value="1" d="m742.96 844.5 1.3-.72.66-.13.89.53.77 1.1.85.72.9-.48.34.85-1.14.45.86 2.1v.86l-.08-.36-1.97.77-.34-.21-.53.12-.34-1.07-1.02-.72-.68.55-.77-.45-.34-1.62-.51.07-.33-.82.76-1.5z"/>
    <path region="43" short-name="16" long-name="State Senate District 16" value="1" d="m748.67 846.37.58-.28.22-.96-.3-.55 1.15-1.3.53-.87 1.4.54.22.51 1.13.12 1.09-.16 2.5-.93 1.2.42.8 1.17.24 1.17 1.16.6.58.82-1.6.67-.36.88-.56.6.08 1.3-2.21.61.48 1.13-.38.32-3.48.76-.41-1.98-1.07-.68-1.23.06-.3.6-.83.27-.77-1.36-.14-.93-.86-2.1z"/>
    <path region="44" short-name="19" long-name="State Senate District 19" value="1" d="m738.4 861.22.67.35.39.73.78-.42 1.2-.23-.4-1.96.75-.43 1.14.2 2.82-1.05.28.14.38 1.34.48.67.2 1.08.87.17.37.46.78-.15.52 2.82-1.6.09 1.93 2.54-.18 3.51-1.95 3.09-3.71 2.33-.54-.71-.57.09-3.96-4.76.8.68 1.45-.24-.44-1.48.74-.6-.46-.54.57-.49-2.29-1.5-.29-.02-.27-3.4-.49-.95-.76-.9z"/>
    <path region="45" short-name="63" long-name="State Senate District 63" value="1" d="m108.31 480.01.53-.36 1.48.2.87-.21.14 1.08 1.92.02.28-1.07 1.73-2.27.02-2.18-.62-.08-.23-1.11 1.7.02.02-1.45.7-.42 2.35.06 1.37-.58.16.84-.48 1.22 3.46.06h6.3l1.21.57v-.87l3.5.02.02 15.04-3.4.01-4.52-.1.08-1.8-.4-.03-2.9.58-1.89-.05-.1 4.54.7.74-.63.32-.04 1.93.9 4.1-8.7-.19-1.22-2.98.35-1.55.67.25.49-.3-.12-.95.36-.23-1-2.43-.78.13-1.33-2.61-.96-1.62.29-.39-.48-1.03-1.83-2.5z"/>
    <path region="46" short-name="28" long-name="State Senate District 28" value="1" d="m734.43 840.93.7.67-.35.63.87.49.32-.9.76.14.4.61-.4.5.29.77-.76.6-2.07 3.2-1.12-.94-.88.22-.52.95-.47-.13-1.2 2.06-.76-.43-.36-.2.68-1.24-.35-.2 3.2-5.81 1.02.84z"/>
    <path region="47" short-name="29" long-name="State Senate District 29" value="1" d="m737.31 832.95.62-1.64 1.78.03h.07l-.7 1.16-.03.87-.6.96.2.44 1.3.84 1.42.5.47.54.86-1.08.77-.44 1.36-.3.52 1.4 1.14.86.85-.14.67.94.23.85-2.07.56-.91 1.13-.27-.68-2.56-1.04-.93 1.46-1.59-.6.28.9-1.23 1.34-1.25 1.07-.57-.3-.41-.62-.76-.15-.32.9-.87-.48.35-.63-.7-.67.89-1.6.87.35.53-.96.85-.6-.2-.69z"/>
    <path region="48" short-name="36" long-name="State Senate District 36" value="1" d="m745.55 821.7 1.07.43.4-.97 1.26-1.92.19-1.1 1.28-1.87 3.74 1.46-.53.46-.52 1.62-.08 1.62-1.27 2.46.54.71-.44 2.1.76 1.53-.07.1-1.19.69-1.21.32-1.58-.24-.93.1-.26-1.03-1.49.17-.2-1.22.14-1.63.94-2.53-1.43-.5z"/>
    <path region="49" short-name="30" long-name="State Senate District 30" value="1" d="m733.6 834.1.62.32.46-.3.45-.94 1.28.65.9-.88.07 4.48.2.7-.86.6-.53.95-.87-.35-.89 1.6-.86-.62-.03-.43-1.15-.92-1.11-.6z"/>
    <path region="50" short-name="24" long-name="State Senate District 24" value="1" d="m704.02 866.4 2.2 1.53.6.64 1.72.8.86.86.22-.87.73-1.23 1 .11 5.1-1.25.26-.65.63.03 1 1.12-.25.69-.28 1.88-.66 1.04-.24 1.77-.77.52-.62 1.23.87.78.73-.78.52.2 1.58 1.07-2.1 2.13-1.56 1.84-.4.04-.61 1.04h-.44l-.8.73-1.6 2.2.08-.8.84-1-.17-.7-.78-.16-.8.76-.02.75-.83.47-1.05.91-2.65 1.57-.83.02-1.3 1.55-.76-.51-1.03.29-1.37 1.47-1.7.22-1.7.86-.45-.1-.55-.93-.14-.93.47-1 .96-.76.19-.44.14-1.69-.77-2.01 2.48-2 1.18.14.84-.44 1.08-4.63-.04-.72.91-1.29.18-.8-.09-2.38-.72-.56.16-1.99z"/>
    <path region="51" short-name="35" long-name="State Senate District 35" value="1" d="m742.25 805.92.05-1.36.44-2.9.1-2.52-.14-1.37-.44-2.03-.12-4.11.13-1.82.79-5.97 6.8 1.36.13-.53.78.23.61-.8.45-1.03-.43-2.17-.65-.79 1.35-2.5.35-.98 8.05 5.13.51.15.03 2.11.62 1.05-.16 1.11-.71.3-.47 2.05-.47 1.27-1 1.01-.33 1.82-.44 1.2-.64.64.26 1.48-.34 1.84-.6 1.24-.5.3-.85 1.24.43 1.23-.43 1.05-1.05 1.27-1.54 3.28-2.9.53.37.94-.59 1.19-.85 2.2-.17 1-.65-.02-.49.76.3.42-.75 1.33-.16 1.15 1.1.32.44.92-.19 1.1-1.27 1.92-.39.97-1.07-.44-6.38-2.46.51-1.72.89-3.94 1.4-5.09z"/>
    <path region="52" short-name="6" long-name="State Senate District 6" value="1" d="m771.43 849.73 2.97-.89.45-.32.18-.95 1.28-.39.08-.78 1.4-.9 3.77-1.31 1.98-1.31.94.79 1.21 1.09.12 1.39-1.3.35-1.45.6-2.06.57 1.35 4.1-.43.13-.02.88 1.12 6.93.33 1.15-.06.8.38.56.11 2.34.72 2.57h-.65l-.63.4-.38.75-.53.1-.3-.67-.76.25-1.04 1.02-1 .07-1.52-.34-1.06.93-.1-.77.27-.58-.42-.71-.8-.45-.65.16-.1-.82-.5-.25-1.16-.02-.44-1.4-.5-.83-.07-1.8-.86-2.67.06-.66-.55-.31.06-1.55.22-1.11.62-.72-.58-.67.02-1.8h.23z"/>
    <path region="53" short-name="55" long-name="State Senate District 55" value="1" d="m273.21 420.45 3.16 2.38 1.53.89 1.78.41 1.45.12 1.2-.16 1.73-.82.26-.57 1.7-1.1 1.77-.02 2.17-1.14 1.96-.7 1.55-.32 1.22-.93.87-.33 1.39.16 1.01-.28 1.96-.96 1 .18.9-.15.18 20.1.33 14.7.06 7.07-3.59.03-7.3-.02-5.63.03-5.22.1-5.5.03 2.95-7.69 3.15-7.98 2.7.04.09-4.15-.81-.17-.69-1.9v-.6l-.65-.74-.68 1.76-.04.52-1.05 2.1-.2.98-3.28.15h-1.81l-1.43 1.06-.42.78-1.08 2.72-1.36-.58-1.03-.71.25-1.04 1.51-.3.54-1.33.64-.12.35-1.16-.94-.35.84-1.2.88-.58.44-1.03-.23-.59-.62-.15.06-.92-.66.03-.03-.9-.64.02-.47-.94-.01-1.48-.27-.73.07-1.43-.7-1.22.87-1.06.47-1.68-.2-1.6.33-2.56.64-1.28z"/>
    <path region="54" short-name="18" long-name="State Senate District 18" value="1" d="m732.84 853.25.93.36 1.25-.68 1.82-1.47-.79-.47.33-.93.36.57 1.07.36.8 1.87-.16.41 1.34 1.06.99.47.4.73-.52.99.57.42.59-.35 1.15-.19.2-.76h.71l.6-.41.9-.1-.2.83.24.46.33 2-2.82 1.03-1.14-.19-.81-.19-4.8-3.58-2.64.45.03-.42-.89-1.19z"/>
    <path region="55" short-name="53" long-name="State Senate District 53" value="1" d="m490.19 408.63 4.58-13.7 4.54-13.9 11.5 3.59 8.86 2.75 6.35 1.89 5.79 2.05 3.07.82 9.08-5.88 8.76-5.61 9.67-6.13 10.51-6.6 15.45-9.8.07-.06 1.17 14.1.43 6.57 1.64 17.05 1 11.87-1.46.2-1.32.77-.83 1.45-.27.84-1.34.17-.3 1.18-1.24-.54-2.14.6.17.96-.32 1.6-.56.59-.07.9-.68 1.3-.02 1.54-.47 1 1.2.6.2.54.83-.47 1.23 1.08 1.4.32.16.95 2.19.85.69.53 1.14.45h.88l1.1-.67.31 1.12.46.1-6.85 11.56-1.77 3.07-2.7 4.42-3.4 5.03.49.13.48.9-.56 1.25-1.7-.41-2.95 4.36.39 5.14.83.3 10.15 3.27 4.31 1.36 8.97 5.15 4 2.2 3.14.2-3.7 11.98-.43 2.58-12.72-7.27-2.5 4.3-.94 1.45-1.48 2.64-8.83.55-.12-.06-.2-3.97-3.86.36-.66 1.08.4.51.1 1.27-.37 1.02-.04.95.97 2.7-.65.58-.7 1.21.81 1.5-.55.18-.05 1.13-.43 1.64.25 1.01-.32.3.07 1.12-.64.16-.23 1.04-1.14.26-.74.69-.2.85-.56.44.2.68-.24.94-.64.65-1.05.54-.35.93.42.78-.95 1.49.6.32-.11 1.48-.83 1.13-1.02 2.53-.28 1.31-1.07 1.32-.59.22-.08 1.1-.52 1.12.4.66-.39.51.5 1.41-.1.82.63.74-.1 1.7-.72.7.8 1.2-.24.52-1.5 1.08-.22 1.34.3 1.97.63.15.74.8-.61 1.3.3.8-.64 1.76-.95.98-.97.04-.16.42-1.17.74-1.18.27-.08 1.15-.58 1.55-1.1.75-.27 1.9-.77 1.78-1.53-.08-.65.44-.11-1.45-5.09.24-.4-8-14.23.93.37 6.38.67 9.74-3.3.24-10.11.64.76 12.64-2.36.16-11.63.64-.06-1.01-11.68.7-.4-2.88-.34-4.87-.57-10.98-1-15.3-.8-13.11-1.07-16.94-.47-6.36-.32-5.96-.58-9.53-.94-18.76-.12-3.01-.71-13.7-.4-.7-.87-.07-.86.54-3.09.07-.27-.35-1.08-.07-.82-.35.11-.98-.2-.99.6-.4.78-2.04 1.08.3.31-.32-.5-1.2 1.02-1.39-.15-.64-1.13.46-.8-.32-.7-1-.14-1.44.24-1.07-.7-.47.34-.96-.84-.79-.21-1.02-.93.36-.33-.4.72-1.75.3.74.64.4.76-.44 1.72.04.54 1.3.77.15.43-.42 1-.1.69-.4.58 1.26.09 1.15.54.27 2.35.57 2.57.4 1.17-12.95 1.53-15.47z"/>
    <path region="56" short-name="22" long-name="State Senate District 22" value="1" d="m731.76 866.34.57.44.19 1.07 1.62-.23.4.75.72-.1.28 1.18.97 1.13.46-.39.97.58.6-.52.5.87 3.97 4.76-.96.07-.4-1.58-1.6.26-.57.65-.87-.25-1.14.1-.1-1.6-.41-1.07-.72.1.21 1.46-2.6.38-.31-.68-1.44.2-.3-.3-.12-.76.56-.21.01-1.84-.48-1-1.47-1-2.35-1.88.91-.8-.36-.3.66-.83.6.33.55-.48 1.07.85z"/>
    <path region="57" short-name="25" long-name="State Senate District 25" value="1" d="m731.47 854.65.81-.6.4.29.9 1.18-.04.42 2.64-.45 4.8 3.59.81.18-.74.43.38 1.96-1.19.23-.78.42-.39-.72-.67-.36.2-.12.14-1.84-.36-.15-3.16-.23-.71.3-.15.6-2.4-.72.38-.58-.1-1.14-.7-.04-.49-.63-.08-.8z"/>
    <path region="58" short-name="9" long-name="State Senate District 9" value="1" d="m763.21 861.18.33-2.17-.17-5.19-.42-1.9 1.75-.73 1.08-.21 1.77-.49 3.88-.76-.05 2.95h-.23l-.02 1.8.58.67-.62.72-.22 1.1-.06 1.56.55.31-.06.66.86 2.66.08 1.81.49.84.44 1.39 1.16.02.5.25.1.82.65-.16.8.45.42.71-.27.58.1.77-1.23 1.06-.15.96-.57 1.34 3.29-.28 3.22.48 1.52-.23-.04 1.85-.5-.18-1.8.04-2.31-.35-3.8.81-8.13-.14-4.74-.52-1.48.38.42-.75.83-.65h.92l-.15-1.62-.62-.77-.28-.76-1.17.24-.67-.16-.84-.61-.26-1.56.17-.37 2.7-1.44.59-.88v-1.06l1.63-.68.47-.5z"/>
    <path region="59" short-name="14" long-name="State Senate District 14" value="1" d="M748.39 849.78v-.86l.14.93.77 1.36.83-.28.3-.59 1.23-.06 1.07.68.41 1.98-.63.17 1.42 1.54 1.26-.44.42.69 1.58-.19-.18-.6 1.25-.69 1.43-.06 2.42-.74.84-.7.42 1.9.17 5.2-.33 2.16-3.71.02-.12-1.03-.62-.61.23-.57-2.19-1.64-.55-.07-1.15.43-.85-1.32-1.5.58-.7-1.77-.75-.2-1.15.38-.65-.34-.06-.76-1.74-.42.77-1.62-.97-1.09.78-.82z"/>
    <path region="60" short-name="15" long-name="State Senate District 15" value="1" d="m746 849.98.34.21 1.97-.77.08.36-.11.55-.78.82.97 1.1-.77 1.61 1.74.42.06.76.65.34 1.15-.38.75.2.7 1.77-.33.1-.05 1.1-.3.67-.85.1.22.6-2.33-.6.42 1.15-.6.12-.13.73-1.03.29.2.58-.88-.17-.2-1.08-.48-.67-.38-1.34-.28-.14-.33-2-.24-.45.2-.83-.9.1-.6.42-.72-.01.5-.33-.34-.78-.6-.3.19-.67-.95-.42.52-.7-.32-1 2.46-.96 1.09.52z"/>
    <path region="61" short-name="17" long-name="State Senate District 17" value="1" d="m729.45 862.34.85.06.84.67.3 2.08.5-.06-.18 1.25-.38-.65-1.07-.84-.54.48-.6-.33-.67.84.36.28-.91.81 2.35 1.87 1.47 1.02.48 1-.01 1.83-.56.21.11.75-1-.26v.95l-.36.46-.52-.88-1.01-1.01-.56-.02-.88-.7-1.02-.33.25-.82.4-.13 1.07-1.15.4-1.07-.86-.07-.56-.45-.69.1-.05-1.04-.42-1.04.53-.68.71.26.6-.75.16-.78z"/>
    <path region="62" short-name="61" long-name="State Senate District 61" value="1" d="m93.97 453.23 1.21-.28 3.02.17 4.53.13.6.15 4.26 2.12 1.93 1.83.41 1.1.4 2.29 1 .07.72.45.95-.3 1.55.21.67.49 1.5-.04.76-.81.4-.95.61-.7-.17-1.01-.71-1.47.4-.58 1.94-.05 1.16-.61-.31-1.03.64-.8 1.92-.14 1.05.2 1.2-.8 1.26-.16 1 .3 1.02-.3 1.2-2.3.81-.34 1.04.89 1.2-.25.26-.76 1.34.1v20.94l-.02 2.5h-3.5v.86l-1.2-.57h-6.3l-3.47-.05.48-1.23-.16-.84-1.37.58-2.34-.06-.7.42-.03 1.45-1.7-.02.23 1.11.62.09-.03 2.17-1.72 2.28-.28 1.06-1.92-.02-.14-1.08-.87.2-1.49-.2-.52.37.02-1.77-.44-1.72-1.22-2.34-1.71-1.56-3.72-.33-1.68-1.9-4.62-2.85-1.06-1.65-.42-3.73 1.45-2.18.84-3.13.72-1.56-.97-1.68z"/>
  </g>
</svg>
