<?xml version="1.0" encoding="utf-8"?>
<svg version="1.1"
	 id="svgdata" inkscape:version="0.92.2 5c3e80d, 2017-08-06" sodipodi:docname="Puerto Rico Democratic presidential primary election results by municipality, 2020.svg" xmlns:cc="http://creativecommons.org/ns#" xmlns:dc="http://purl.org/dc/elements/1.1/" xmlns:inkscape="http://www.inkscape.org/namespaces/inkscape" xmlns:rdf="http://www.w3.org/1999/02/22-rdf-syntax-ns#" xmlns:sodipodi="http://sodipodi.sourceforge.net/DTD/sodipodi-0.dtd" xmlns:svg="http://www.w3.org/2000/svg"
	 xmlns="http://www.w3.org/2000/svg" xmlns:xlink="http://www.w3.org/1999/xlink" x="0px" y="0px" width="204.6px" height="100px"
	 viewBox="0 0 204.6 100" style="enable-background:new 0 0 204.6 100;" xml:space="preserve">
<g id="outlines">
<path id="path12994" inkscape:connector-curvature="0" class="st1" d="M99.3,28.7l-3,0.5l-1.1,0.3l-0.3,0.3l-1.6-0.1l-0.2,0.7
	l-2.1,0h-0.6l-1.7-0.8v0l-1.5-0.7L85,28.8l-1.4,0.4l-2.2-0.1l-0.8-0.3l-2.2,0.7h-0.3l-2.5-0.5h-0.6l-0.8,0.3l-0.9,2.7l2.2,2.8
	l-0.5,0.8L75,36.1l1.1,0l0.5,0.3l0,0.4l0.5,0.9l0.6,0.1l0.4,0.8l0.6,0.1l0.7-0.3l1,0.8l1.8,0.5l2.1,0.9L84.1,42l0.4,0.2l2.3,0l0,0.3
	l1.3-0.2l0.9-1l2.1-1.3l0.6,0.6l0.4,1.7l0.7,0.5l2.2-0.7l0.9,0l0.1,0.3l0.8,0l0.3-0.6l0.7,0.1l0.3,0.2l0.5,0l0.2-0.5l1-0.2l0.8,0.4
	l0.3,0.4l0.6-0.3l1,0.5l-0.1,0.4l0.3,0.2l0.4,0.2l0.1,0.9l0.7,0.4l0,0.5l0.4,0.4l0,1.4l-0.5,0.7l0.1,0.8l2.3,3.4l-0.3,2.2l-0.6,0.8
	l-0.6,0.6l0.7,0.6l0.7-0.5l-0.2-0.4l0.9-0.5l0.9-0.1l-0.5-4.7l0.8-1.7l0.6-0.5l1.5,0.2l0.8,0.5l1.1-0.4l-0.1-0.5l1.3,0l1.3-0.4
	l1.7-0.5l0.9-1.2l1.6-3.9l0.5,0.2l0.3-2.5l0.9,0.3l0.5-0.7l1.1,0.3l0.4-1l1-0.4l0.8-0.5l0.6,0.4l1.2-0.1l1.3-0.6l-0.7-1.8l-0.3-0.9
	l0.5-2.1l2.2-0.1l0.6-0.5l0.2-0.3l-2.1-0.4l-1.2-0.9l-0.7,0l-1,0.7l-1.3-0.5l-1.1,0.5l-1.4-0.9l-1.1,0.1l-1.8-0.5l-0.5,0.2l-1.2-0.4
	l-3.1,0.7l-0.5,0.3l-0.6,0.6l-0.6,0.3h-1.1l-1.4-0.6l-0.6,0.2l-0.7-0.2l-0.7-0.6l-0.8-0.1l-0.1,0.4l-1-0.2l-1-0.6l-1.8,0.6
	L99.3,28.7L99.3,28.7z"/>
<path id="path12998" inkscape:connector-curvature="0" class="st1" d="M63.6,27l-1.9,0.3l-0.8,0.3l-0.5,0.3L59,29.2l-0.5,0l0,0.8
	v0.8l0,1l0.9,1.2l0,1.7L59,35h-0.3L55.9,37l-1.1,0.6L54,37.8l-2.5,0.8H51l-0.3,0.6l0.3,0.5l2.5,4.4l0.8,0.3h1.1l1.7,2.5l0.8,1.4
	l-0.2,1.8l1.2,0.8l0.6,0.8l-0.3,0.8l-1.5,1.8l-0.8,0.4l0.6,0.6l0.4,0.6l-0.3,0.9L56.8,57l0,0.8l0.4,0.3l0.1,1.3l-0.9,1l-0.5,1.5
	l0.3,0.8l-0.4,0.4l0,1l-0.5,0.8l0.6,0l1.6,0.6l0.6,0.3l0,1L57,67.6l-1.3,0.1l-1,0.8l0.1,2.2l-0.1,0.7l1.2,0.2l0.3,0.5l0,0.8l0.3,0.3
	h0.8v-0.6l-0.5-0.2v-0.6l0.5-1.1h1.1l0.2,0.7l4.1,0.7l0.4-2.3l-0.6-0.3l-0.3-4l0.2-1.5l0.3-0.5l1.5-0.6l6.4,0.2l0.4,0.4l0.9,0
	l0.5-2.4l-0.3-0.5l0-1.6l0.7-1.3l-0.2-1L71.3,56l0-0.6l-1.3-0.1l0-0.4l-1.3-0.2l-1.4-0.6l1-0.8l1-0.1l0.5-0.7l2.2-0.9l1.9-0.1
	l0.1,0.6l0.8,0.1l0.1-0.3l1.2,0.5l2,0.5l0.6-0.3l-0.4-0.4l-0.6-2.9l0.7-1.3l-0.7-0.3L78,47l-0.2-0.4l0.1-3.4l0.8-4.4l-0.6-0.1
	l-0.4-0.8l-0.6-0.1l-0.5-0.9l0-0.4l-0.5-0.3l-1.1,0l0.2-0.5l0.5-0.8l-2.2-2.8l0.9-2.7h-0.3l-4.4-1.7l-2.8-0.5L64.2,27L63.6,27
	L63.6,27z M35.1,36.7L34.5,37l0.3,0.6l0.6,0.3l0.3-0.3l-0.3-0.8L35.1,36.7z M2.7,58l-1.6,0.6v0.3l-0.6,2.5l0.8,0.8l0.8,0.3l1.6,1.1
	L5.7,63L7.6,61v-0.8l-0.3-1.1L6.5,58l-2.5,0.6L2.7,58z"/>
<path id="path13014" inkscape:connector-curvature="0" class="st1" d="M120.9,38.6l-0.5,0.7l-0.9-0.3l-0.3,2.5l-0.5-0.2l-1.6,3.9
	l-0.9,1.2l-1.7,0.5l-1.3,0.4l-1.3,0l0.1,0.5l-1,0.4l-0.8-0.5l-1.5-0.2l-0.6,0.5l-0.8,1.7l0.5,4.7l-0.9,0.1l-0.9,0.5l0.2,0.4l0.9-0.1
	l-0.6,1.6l0.1,1.2l-0.2,1.2l0.6,1.1l0.1,1l1.3,0.7l0.7,0.8l1.4,3l0,2.5h1.2l0.3,0.3l0.5,0.3l0.3,0.3l1,0.7l0.1,0.7l0.8,0.3l0.5-0.2
	l2.2,1.6l0.8-0.8l0.5-1.1l0.3-0.3l1.6-0.6l0.6-0.3h1.1l1.4,1.4l0.6,0.4l0.2,1l0.3,0l0.4-0.1l0.6,0l1,0.7h0.6l1.4,0.3l0.3-0.3
	l0.8-1.7l0.3-0.3l0.5-0.3l2.5,1.1l-0.3,0.3v0.3l-1,0.3L131,72l-0.8,0.1l0.4,1.3l0.8,0.2l0.5-0.6l1.1,0l1.4,0.5l1.1-0.7l1.2-0.7
	l3.6-1.7h0.8l1.5,1.1l0.7-0.7l0.8-0.3l0.5-0.9l-0.2-0.9l-1.5-1.6l-0.1-1.9l-1-0.6l-0.7,0.3l-1.3-0.2l-0.1-1.6l0.5-0.3l0-0.8l1.1-0.5
	l0.7-2.6l-0.8-1l-0.3-1.9l-0.6,0l-1.5-1.3l-0.6-0.9l0.1-1.1l-1-1.3l-0.6,0.4l-1,0.3l-0.1-1l-0.4-0.1l0.2-1l-0.9,0.5l-1.2-0.2
	l-1.4-2.8l-1.4-1.4l-0.2-2.4l0.5-1.5l-0.8-0.1l-0.3-0.9l-0.5-0.1l-0.3,0.8l-0.5,0.1l-0.3-0.9l-0.9,0.6l-0.3-0.3l-0.6-0.1l-0.4,0.4
	l-0.6-0.2L125,41l-0.4-1.4l-1.2-0.7l-1.3,0L120.9,38.6z"/>
<path id="path13062" inkscape:connector-curvature="0" class="st1" d="M136.6,30.6l1.3,0.7l0.5,0.7l1.4,0.4l-0.1,0.5l-1.2,0.8
	L139,36l-0.9-0.2l0.1,1.7l1,0.6l-0.5,1.8l-1.1,0.2l-0.8-1l-0.6-0.5l-0.6-0.9l-0.3,1.4v0.3l0.2,0.3l0.4,0.6l-0.5,1.5l0.6,1.2l-0.7,1
	l-0.1,1.7l-1-0.2l-1.2,0.4l-1,0.6l-0.3,1l1.4,2.8l1.2,0.2l0.9-0.5l-0.2,1l0.4,0.1l0.1,1l1-0.3l0.6-0.4l1.7-1.3l0.8-1.1l0.2-0.8
	l0.4-0.4l0-1.1l0.2-0.8l0.7-1.9l1.7-0.8l0.9-1.6l-0.2-1.7l-0.2-1l0.9-0.9l1.9-0.1l-0.2-1.1l0.8-0.3l0-0.8l-1.9-0.9l-1.9-2l0.4-0.6
	l-0.5-0.4l-0.9-0.1l-3.1-0.7L136.6,30.6z"/>
<path id="path13066" inkscape:connector-curvature="0" class="st1" d="M131.8,30.6l-0.8,0.3l-1.2,0l-0.2,0.3l-0.6,0.5l-2.2,0.1
	l-0.5,2.1l0.3,0.9l0.7,1.8l-1.3,0.6l-1.2,0.1l-0.6-0.4l-0.8,0.5l-1,0.4l-0.4,1l1.3,0l1.2,0.7L125,41l0.4,0.6l0.6,0.2l0.4-0.4
	l0.6,0.1l0.3,0.3l0.9-0.6l0.3,0.9l0.5-0.1l0.3-0.8l0.5,0.1l0.3,0.9l0.8,0.1l-0.5,1.5l0.2,2.4l1.4,1.4l0.3-1l1-0.6l1.2-0.4l1,0.2
	l0.1-1.7l0.7-1l-0.6-1.2l0.5-1.5l-0.5-0.8v-0.3l0.3-1.4l0.6,0.9l0.6,0.5l0.8,1l1.1-0.2l0.5-1.8l-1-0.6l-0.1-1.7L139,36l-0.5-2.2
	l-0.6-0.1l-0.1-1.1l-1.3-0.2l-0.7-0.6l0-0.8l-1.2,1.2l-1.5-0.2l-0.5-0.5l-0.2-0.7L131.8,30.6z"/>
<path id="path13146" inkscape:connector-curvature="0" class="st1" d="M79.4,38.6l-0.7,0.3l-0.8,4.4l-0.1,3.4L78,47l-0.5,0.6
	l0.7,0.3l-0.7,1.3l0.6,2.9l0.4,0.4L78,52.8l-2-0.5l-1.2-0.5L74.7,52L73.9,52l-0.1-0.6l-1.9,0.1l-2.2,0.9v0l-0.5,0.7l-1,0.1l-1,0.8
	l1.4,0.6l1.3,0.2l0,0.4l1.3,0.1l0,0.6l1.4,0.6l0.2,1L72.2,59l0,1.6l0.3,0.5L72,63.6l-0.9,0l-0.4-0.4l-6.4-0.2l-1.5,0.6l-0.3,0.5
	l-0.2,1.5l0.3,4l0.6,0.3l-0.4,2.3L64,72l-0.1-0.9L65,71l0.2-0.8L69,70l0.6,0.3l0.3-0.2l1.5-0.1l1.1,1.6v0.3l1.7,0.8L74,73.3l0.5,0
	l0.2-0.4l1.8,0.8h0.3l0.3-0.6l-0.8-0.4l-0.1-0.4l1.7-0.9l0.8,0.5l3.6-0.6l0.6-0.5l-0.6,0.5h1.7l0.8,0l0.4-0.7l2.1-0.7l-0.1-0.9
	l-1,0.4l0.2-1.3l0.3,0l0.4,0.2l0.4-0.6l0.9-0.5l0.4,0.5l0.8-0.3l-0.1,0.7l-0.6,1l0.3,0.3l0.8-1.2l2.4,0l0.7,0.7l0.8,0.2l1.2,0.3
	l0.3,0.7l1.6-0.4l1.3-0.8l1.2,0.1l0.1,1.2l1-0.3l1,0l0.8,0.6l0.8-0.1l2.5-1l2.2-0.8l1.4-0.3h1.3l0-2.5l-1.4-3l-0.7-0.8l-1.3-0.7
	l-0.1-1l-0.6-1.1l0.2-1.2l-0.1-1.2l0.6-1.6l-0.9,0.1l-0.7,0.5l-0.7-0.6h0l0.6-0.6l0.6-0.8l0.3-2.2l-2.3-3.4l-0.1-0.8l0.5-0.7v-1.4
	l-0.4-0.4l0-0.5l-0.7-0.4l-0.1-0.9l-0.4-0.2l-0.3-0.2l0.1-0.4l-1-0.5l-0.6,0.3l-0.3-0.4l-0.8-0.4l-1,0.2L98.5,42l-0.5,0l-0.3-0.2
	l-0.7-0.1l-0.3,0.6l-0.8,0l-0.1-0.3l-0.9,0l-2.2,0.7l-0.7-0.5l-0.4-1.7L91.1,40l-2.1,1.3l-0.9,1l-1.3,0.2l0-0.3l-2.3,0L84.1,42
	l0.1-1.2l-2.1-0.9l-1.8-0.5L79.4,38.6z"/>
<path id="path13162" inkscape:connector-curvature="0" class="st1" d="M143,43l-1.7,0.8l-0.7,1.9l-0.2,0.8l0,1.1l-0.4,0.4l-0.2,0.8
	l-0.8,1.1l-1.7,1.3l1,1.3l-0.1,1.1l0.6,0.9l1.5,1.3l0.6,0l0.3,1.9l0.8,1l-0.7,2.6l-1.1,0.5l0,0.8l-0.5,0.3l0.1,1.6l1.3,0.2l0.7-0.3
	l1,0.6l0.1,1.9l1.5,1.6l0.2,0.9l0.3-0.3h0.8l0.8,0.3l0.8,0.6l0.5,0.3l4.1-0.8l0.6-0.3l2.3-0.9l2.6-1.6l0.8-0.3l0.2,0.5l0.3,0
	l0.1-1.5l-0.3-0.9l0.3-0.8l1.1-1.1l0.5,0.6h0.6l0.6-0.6l-0.3-0.5V61l0.8-0.4l0.8-3.2l0.8-1.4l0.6-0.8l1.3-0.4l0.1-0.9l0.8-0.8
	l0.8-0.3l0.9,0.3l0.8,0l0.2-0.8l1.5,0.1l0.7-0.9l0.4-1.3l-0.8,0l-1.6-1.1l0.8-1.2l-1.6-0.5l-1.1,0.1l-0.4,0.6l-3.3-2.1l-1.8-1.5
	l-0.7,0.5l-0.8,0.1l-1.1,1.2l-1,0.1l-1.1,1.5l-1.2,0.1l-3.8-1.4l-1.9-1.7l-1.4-0.5l-0.5-1l-2,0.4l-1.8,0L143,43L143,43L143,43z"/>
<path id="path13182" inkscape:connector-curvature="0" class="st1" d="M146.5,31.4l-0.2,0.8l-0.5,0.5l-1.5-0.2l-0.8-0.3l-0.4,0.6
	l1.9,2l1.9,0.9l0,0.8l-0.8,0.3l0.2,1.1l-1.9,0.1l-0.9,0.9l0.2,1l0.2,1.7l-0.9,1.6l1.6,0.5l1.8,0l2-0.4l0.5,1l1.4,0.5l1.9,1.7
	l3.8,1.4l1.2-0.1l1.1-1.5l1-0.1l1.1-1.2l0.8-0.1l0.7-0.5l1.8,1.5v0l3.3,2.1l0.4-0.6l1.1-0.1l1.6,0.5l-0.8,1.2l1.6,1.1l0.8,0
	l-0.4,1.3h0.6l0.4,0.6l1.3,0l0.6-0.6l-0.8-1.8l1.1,0l0.8,1.6l0.7-0.1l-0.4-0.9l1.4-0.2l-0.2-0.6l-0.5-0.4l-0.7-0.9l0.3-0.7l-1.2,0
	l-0.8-0.7l0.3-0.6l-0.8-0.8l0.8-1.1l0.2-2.6l-0.8-0.9l1-1.1l0.1-1l0.6-1.3l-0.6-0.3l-0.7,0.7v0.3l-0.5,0.3l-0.4-0.7l-0.7,1.2
	l-1.3-0.1l-2.2-0.2l-1-0.4l-0.3-1.2l-0.9-0.1l-0.6,0.6l-1.1-0.3l-1.3-1.4l0.1-0.9l-1.5,0.8l-0.6-0.1l-0.4-0.3l-1.2,0l-1.1-1.1v-0.3
	l-0.5-0.3l-3.3-0.7l-1.5-1l-1.8,0.5l-2.5-0.5L146.5,31.4L146.5,31.4z M196.5,40.6l0.6,1.7l0.3,0.8l0.8,0.5l0.6,0.8l0.9,1.1l0.6,0.2
	l0.3-0.9l-0.5-0.6l-0.8-0.3l-0.3-0.9l0.8,0.1l0.9,0.3l0.3,0.7l0.7,0.6l0.9-0.2l-0.2-1.2l0.8,0.3l0.3-0.2l-0.6-1l-0.6-0.4l-1.9-1.1
	l-2.5,0.2L196.5,40.6z M191.4,55l-1.4,0.3l-1.5,0l-0.5,0.9l-2,0.3l-5.8,1.9l-2.2,0.3v1.1l0.6,0.8l0.8,0.5l1.1,0.3h1.4l1.2-0.7l4-0.5
	l0.4,1l3.1-1.4l2.5-0.7l1-1.7l2,1l0.6-0.6l2.2-0.3l2.1-0.3l0-0.3l-1.2-0.6l-1.3,0.2l-0.4-0.4h-0.3l-1.6-0.3l-2.7-0.6L191.4,55z"/>
	</g>
</svg>
