<svg viewBox="0 0 1000 770.54" auto-border-stroke-width="5" auto-border-stroke-width-limit=".5" version="1.1" country="gbr" type="ldn_assembly" date="2024122" variant="results" title="2024 London Assembly Results" original-source="[&quot;https://www.data.gov.uk/dataset/5ce8afc0-596f-4392-8698-0d672ef20661/london-assembly-constituencies-december-2018-boundaries-en-bfc1&quot;]" candidates="[{&quot;id&quot;:&quot;0&quot;,&quot;defaultCount&quot;:0,&quot;name&quot;:&quot;LAB&quot;,&quot;margins&quot;:[{&quot;color&quot;:&quot;#E4003B&quot;},{&quot;color&quot;:&quot;#F6335C&quot;},{&quot;color&quot;:&quot;#FF6681&quot;},{&quot;color&quot;:&quot;#FF99A8&quot;}]},{&quot;id&quot;:&quot;1&quot;,&quot;defaultCount&quot;:0,&quot;name&quot;:&quot;CON&quot;,&quot;margins&quot;:[{&quot;color&quot;:&quot;#0087DC&quot;},{&quot;color&quot;:&quot;#33A2EF&quot;},{&quot;color&quot;:&quot;#66BBFC&quot;},{&quot;color&quot;:&quot;#99D3FF&quot;}]},{&quot;id&quot;:&quot;2&quot;,&quot;defaultCount&quot;:0,&quot;name&quot;:&quot;GRN&quot;,&quot;margins&quot;:[{&quot;color&quot;:&quot;#6AB023&quot;},{&quot;color&quot;:&quot;#88C748&quot;},{&quot;color&quot;:&quot;#A6DB70&quot;},{&quot;color&quot;:&quot;#C4EB9C&quot;}]},{&quot;id&quot;:&quot;3&quot;,&quot;defaultCount&quot;:0,&quot;name&quot;:&quot;LDM&quot;,&quot;margins&quot;:[{&quot;color&quot;:&quot;#FAA61A&quot;},{&quot;color&quot;:&quot;#FFBB3C&quot;},{&quot;color&quot;:&quot;#FFCE66&quot;},{&quot;color&quot;:&quot;#FFE099&quot;}]},{&quot;id&quot;:&quot;4&quot;,&quot;defaultCount&quot;:0,&quot;name&quot;:&quot;REF&quot;,&quot;margins&quot;:[{&quot;color&quot;:&quot;#12B6CF&quot;},{&quot;color&quot;:&quot;#37CCE3&quot;},{&quot;color&quot;:&quot;#66DEF1&quot;},{&quot;color&quot;:&quot;#99EDFB&quot;}]}]" xmlns="http://www.w3.org/2000/svg">
  <g map-type="regions">
    <path region="0" short-name="Barnet and Camden" long-name="Barnet and Camden" value="1" d="m388.74 44.45-1.29 3.22-.95 2.23-2.23 5.56 2.62.85 1.63.7 2.13.7 4.73 1.7 1.13.38 12.45 4.47 1.82.11.86.39 2.68 2.31 2.62.95.38-.12.3.32 3.48 1.18.08.96.38.14.62.59.21.36.23 1.58.02.62-.59.15-.29.48.21.8.65-.27.5 1.23.61 1.12.2 1.39.15 1.7 1.48-.43 1.3 2.45-2.78 1.54-.13.65 1.56.83-.29.73-1.02 1.91.68.33-.18.55.5.16 1.17.04 1.3-.08.1.12-.03 1.16.8 3.2.7 1.66 3.33-1.08 1.37 3.15 2.14 3.12.1.6 1.46 2.04 1.1 1.25 1.85 1.66.77.61 1.75 1.27.84.54.89.7.57.77-.32.32.63.4.37.52-.22.22.68.74.37.25 1.93 1.06 1.2.3 1.42.3-.2.84-.58 1.64-.47-.11-.6 1.16-.1.51-.42.92.8.54-.45.1-.4.72.1.32-.24.51-.94 1.46-.71 1.53-.75.79-.25.4-.01.54-.6 2.15-.08.7-.28.5.19.56-.64 1.77-.39 1.39-.6-.11.14 1.34-2.1 2.29-1.53 1.87-2.5 3.39-.42.08-1 1.66-.26 1.26-2.94 1.29 3.7 5.98 2.12 2.9 1 1.21-4.79 2.18-.74.39.05 2.11.29 2.21.25 1.24.35.92.52 1.02.15.61.08 1.54-.19 1.07-1.04 1.32-.61 1.48-.4.78-.34.45-.34 1.06v.81l-2.6 1.57-.97.54.1.3-1.63.9-3.06 1.8-.2-.27-.61-1.3-1.02-1.5-.13-.33-.48-2.8-.03-.55.18-3.22-1.5-2.66-.72-.9-1.13-1.05-.3-.47-.45.8-.6 1.48-1.72 3.93.04.08-1.46 3.46-2.13 4.86-.06 1.01.08.6.81 3.29.07.53.58 1.17.25.72.12.85.37 1.2.21.95.96-.2.2.57-.05.33-.88.6-.14 1.13-.29 1.5.1.92-.48.06.1 1.3-.02 1.72-.2.25h1.93l-.07.8v1.76l1.5.12.3.7-.88-.03-.05.92-1.99 2.43-.74-.64-1-1.06h-.13l-1 1.15-.73.57-1.04.36-.22-.13-.67.68-.37.06-.5.66-.83.71-.03.53-.7 1.48-.63.4-.2.39-.18.86-.02 1.14.17.23.09 1.75.21 1.92-.62.76.33.1-1.2 2.44-1.48-.96-.48 1.96.19.1-.05 1.05.2 2.45-.02 1.01-1.31.55-.7.15-.13 2.26 1.63-.66.9-.15 2.1-.22h.62l1.06.43.22-.03 1.35.45.75.04 1.65-.12 2.4-.44.46.13 1.58 1.02 2.22.22 5.07.7 2.79.26 1.4.93 1.3.54 2.3.68 1.8.6.89.41 1.7 1.21v.3l-.14.38.77 1.15.4 1.98.48 3.55.54 1.58v.65l-.15.75.01.62.22.88-.02 1.5-.42 1.55-.1 1.44.16.93.49.8.99 2.31 1.4 3 1.47 2.93.86.82 1.26.65.46.52.24.55.6 1 1.34 1.49 1.29 1.36.95.77.51.56.13.39.12 1.06.44 1.46.6 1.1.83.9 1.38 1.02.83 1.08.45 1.42.63 3.68.53 3.57-.03.27.23 1.08.06.7.7 1.75.28 1.14.96 2.05.8 1.2.78 1.84.38 1.97.08 2.03-.03 3.38-.13 2.49-.12 3.1.01.73.67-.12 2.48-.29 2.08.73 1.23.52 1.25.78.31.8.13 2.16.13.69.31.69 1.83 1.83.96.43-1.54 1.7.68 1.72.2.34 1.12 1.21.8.45 2.7.93.43.27.3-.17.85 1.77 1.48-.2.8 1.76.37 1.11.65 2.95.16 1.13-2.93 1.48-2.02-.31-1.12-.28-1.36-.25-1.66-.16-.94.06.1.56 1.04 1.75.86 1.6.62 1.65-.83.36-1.84.62-1.01-2.32-3.03 1.26-.4.29-1.2.5-.09.47-.94.4-1.01-.18-1.77-.5-.3.45-.95-.98-1.89 1.88-.91.72-1.67 1.2-.6.83-.5.1-1.5-1.4-.59-.17-.58-1.9-.7-2.77.02-1.25-.48-.97-1.94.73-.11-.85-1.25-1.07-.53.31-.48-.73.15-.14-1.08-1.74-.7.46-.56-.86-.84.5-1.19-1.77-.16-.36-.67-.83-1.26-1.73-1.91-2.48-1.76-2.34-.74-.05.13-1.21-.68-.28-.22.09.02 1.23-.58-.12-.65.12-.73-2.43-1.64.44-3.23-11.74-1.84-6.51-1.48-5.5-1.72.18-.96.21-1.02.4-4.26 1.4-1.23-1.74-3.44 1.67-1.86 1.19-3.65-4.02-1.18-1-.6-.35-1.59 1.53-1.3-1.12-1.8 1.43-.62-.78-.14-.45.27-2.28-5.18-.6h-.56l-1.16.27-.8.28-1.4.68-2.69 1.46-.9.8-3.69 5.57-.27.3-.94.67-.77-1.03-1.16-.9-.8-.77-.48-.66-1.16-1.6-3.53-4.97-1.12-1.65-.55-.65-3.02-3.98-2.16-2.99-.83-1.3-1.96-2.9-.8-1.28-2.46-3.69-1.15-1.59-1.53-1.87-2.04-2.31-1.92-2.38-1.13-1.8-1.65-2.35-2.23-2.88-.7-.82-2.23-3.04-.8-1.34-1.5-2.81-1.62-2.56-1.74-2.26-1.41-1.96-1.03-1.35-1.46-1.77-1.2-1.1-1.07-.9-.36-.44-1.03-1.64-2.45-3.23-1.85-2.58-.72.45-.64-.05-.15-.36-.62-.57-.19-.58-.49.06-.24.42-.4-.23-1 .13-.47-.22-.22.75-.37-.08-.09.64-.83-.87-.4.3-.82.04-.05-.59-.92.06-.28.4-.46-.3-.04-.69-.75-.28-.57.02.09.5-.6.03-.86.37-1 .03-.48.5-.66.24-.43-.48-.35.1-.72 1.22.69.74.14.36-.57.92-.07 1.06.6-.07-.13.56-.53.54-.02.64-.67-.11-.23.22.43.58-.33.3-.66-.1-.43-.27-.39.25-1.46-1.2-1.16-1.82-.45-.29-.74-1.6-.87-.76-.42-.89-.32-1.02.29-.35 1.22-.24.43-.29.14-.4-.9-1.8-.58-1.52-.95-3.99-.8-2.01-.37-1.47-.25-1.58.23-.73.14-1.48-.1-1.21.47-.87.37-.39.65-.33 1-.95.75-1.26.3-.23 1.75-.6 1.7-.68.25-.22-.3-.4-1.7-2.8-.44-.65-2.6-4.12-.7-.95-1.35-1.42-.58-.52-3.47-4.17-2.46-3.67-2.53-3.42-.92-1.2-1.42-1.66-2.19-2.93-1.56-2.45-.67-.84-1.33-1.88-5.01-6.3-1-1.32-1.28-2.32-1.36-2.07-1.3-1.37-.95-1.31-2.62-3.85-2.42-3.65-1.44-1.79-1.18-1.18-1.06-.95-.83-.93-1-1.36-.85-1.03-.52-1.2-.32-.5-1.57-2.14-2.45-3.3-2.6-3.65-1.57-2.48-.85-1.12-2.14-3-1.82-2.18-1.07-1.5-1.22-2.04-1.6-2.22-1.68-1.98-.63-1.08-1.15-2.55-.16-1.43.02-.53.62-1.92.68-1.8.57-.24.75.08.73.56.37-.41 1.79.53.7.45 1.07.23 1.4-.14 1.2.11 1.28.55 2.07-.39 2.98-1.58.6-.02 1.72-.34 1.85.37.66-.07.66-.26 2.05-.58.52-.34.51-.57.9-.7 2.93-1.05 2.37.12.92-.08 1.93-.67.6-.37.7.11 2.24.2-.17-.4-.04-.75.56-1.82.65-1.53.3-1.34.04-.63 1.12-.02.97.1 1.26-.06.74-.3 1.38-.27-.17-1.28.05-1.49 1.87-.52 1.85.17.78.41.61.04.9-2 .72.48 1.26 1.12.4.6.03.51.37 1.04.25.37.82.53 1.94.77.8.1.45.2.53-1.43.84-1.73.81.47.16-.36 1.02-.47.53-.96.45-1.02 1.67-3.53.45-1.24.57-2.18.4-2.09.75-5.04.67-4.81-1.04-.3-.7-.85.17-.2-.03-.69.74-.72.59.02.44-.23.87.43.84.72.48.6 1.33-.62.87-.55 1.04-.51.88-.7 1.22-.47.8-.1 1.56-.78.44.7 1.22-.64 2.36-1.17-.36-.88.72-.3.5-.36 1.24-.55 1.28-.26.48.03.57 1.43.81-.33 3.36-1.87.96-.63 1.16-.46.5.02.05 1.48.57 1.37 1.18 1.74.6.76.72-.6-.22-.28 2.52-1.87 1.23-1.06 1.51-1.13.43-.43 1.7-1.3.66-.27.42 1.4 2.1-1.06 2.77-2.05 1.64-1.3.69.81.8 1.14.3-.24 2.25-1.33 2.51-1.3-2.17-4.67-1.7-3.15 1.53-1.16 2.23 1.85.63-1 2-2.62.12-.22 2.1.51 1.93 1.01-.44-2.88-.88-1.55 1.15.1 1.56.01 1.4-.2.24.6.2.94.6 2.22 1.94.03.89.08.53-.73 1.55.43-1.41 3.7-.73 1.69 1.08.33 2.28.6 1.53.47.84.47 1.04.99 1.84-3.52-.09-.06 1.99-3.86 2.35-1.2 1.02.03z" candidates="[{&quot;candidate&quot;:&quot;0&quot;,&quot;count&quot;:1,&quot;margin&quot;:0}]"/>
    <path region="1" short-name="Bexley and Bromley" long-name="Bexley and Bromley" value="1" d="m607.1 690.25-.1-1.2.85-1.14-.06-1.23.05-.45.38-.7.09-1-.8-.35-.8-.71-.72-1.1-.58-.56v-.68l-.34-1.1v-.7l-.19-1.06-.92-4.49-.46-1.44-.38-2.17-.46-1.4-.33-1.78.13-.05-.24-1.29-.66-2.49-.23-1.06-.15-1.59-.3-1.3.08-.11-.38-1.05-.27-1.28-.38-1.5-.15-.31-.1-.97-.4-1.3-.04-.41-.3-.75-.14-1.33v-1.21l-.53-2.73-.17-.63-1.11-1.95-1.33-1.51-.35-.5-.9-1.67-.7-.56-.47-.52-1.99-1.47-.9-.56-.53.38-.95-.24-1.3-1.52-1.69-1.64-1.98-3.25-1.27-1.45.27-.13-.71-1.74-.2-.85-.64-1.1-.7-1.03-.82-.7-.69-1.55-.73-.7-.37-.78-1.55 1.1-.25-.22.08-.51-.9-1.39-.01-.7.53.01v-.4l.82-.12.28.09-.22-2.52-.24-.5-.1-.87-.06-4.12-.2-.17.2-.52.06-1.19-.7-1.39-.27-1.45-.72-1.59-.22-.88-.24-.48-.88-2.24.25-.05-.13-1.4-.44-1.27-.48-2.82-1.44.03.06 1-.06.5-.47 1.02-.5.61-.75.55-1.23.4-2.5.2-3.65.4-.57-.02-.88-.2.7-3.79-.68.1-.28-1.73-.61-3.28-.2-1.85-.05-1.26.88-5.32.5-2.94.24-1.67-2.54-.69-1.06-.06-.37-.2-2.14-.72-.18.17-1.1-.38-1.12-.8-1.18-1.2-.66-.76-.88-1.35-.27-.72-.7.3-.45-.8-.66-1.47-.8-.4-.83-.05-.65.09-.95-.18-1.45-.5-.01-.78-.86-.31-.2-.9-1.05-.55.1-.47 2.9-3.71.13-1.13-.63-.38-.87-.7 1.75-2.42-1-.82-.52-.94-1.25-1.84-.29.3-2.4.65-1.88.86-.73.45-1.65 1.26-.66.67-1.54-.03.64-.53-2.38-3.77-1.9-.06-1-.3.16-.6-1.28-.48-.98-.55-.62-.46-1.64-1.51-.74-1.06-.04-.85-.29-.48-.04-.42-1.13-2.2-.98-1.37-1.08-1.18-.44-.6-.85-1.56-.48-1.63-.12-1.66.06-1.12.87-3.1-1.06-.33-1.8-1.28.17-.19-1.03-.82-.62-.61-.54-.01-1.45-1.02-1.92-.72-.89-.47-.34-.86-.25-1.78-.16-.46.2-.63.57-.64 1.09-2.07 1.28-1.59-.1-.1.25-1.36.86-2.18 1.2-2.82 1.1-2.82.94-2.13.57-.46.54-.21 2.03-.29 1.76.17 1.33.61.86.53.23-.72.8.32 2.31 1.44.26-.5 1.14.2.41.3.13-.5 1.14.06 1.34.33 1.05.63.03.62 3.95 2.27-.05.19 1.58.38 1.13-.03.8.1.45-1.5 3.52.27.04 2.03 1.23-.09 1.15-.35 1.44-.19 1.56-.03 1.44.12-.3.32-.02.5 3.08-1.02-.16-.48.96-.47.17.34 1.5-.81-.13-.33.76-.8.9-.1.92.18 1.25.47 1.17-1.97 3.09-.03.77-.17-.01.66 1.31.2.16-.07 1.4-.05-.22-1.57 1.87-.32.37.11 2.62 1.8.12.41.73.63 1.4 1.02.24-.26.36.54 1.26.6.85.8.65.96.66 1.26.4-.4 1.56 1.6-.86.91 1.06.97-.28.38-.26.73-.04 1-.14.8-.7 1.05-.68.6.97.47-.54 1.04.56.53 1.21.97.51-.04 2.86.44-.16 1.3 1.3.13 1.23-.04 2-.17-.18.32-.3 1.92.36.5.89.11 1.97.1h1.54l1.54-.62.38-.57.52-.33 2.2-.6-.06-1.57.13-.95.67-.08.56.47.02.58.61 1.69 2.03-.87-.37-.97.23-.2 3.14-.47-.15-.37.63-.44.17-2.19.15-.3 1.36-1.2.78-.52 2.09 2.18 2.58-2.1-.25-.3-.16-.6.22-.28-.34-.34.73-1.45.25-1.16.29-.62.52.15.13-1.06.6.22.86-3.16.7.2 1.53.86.86-1.5.35-.41.75-.4.23-.67.49-.25 1.32-.97.2-.74 1.05-.28-.34-1.8 1.85.02.44-.08 1.39-1.07.5-.25.83-.1.51-.17h1.09l.6.26 1.11.13.45-.5.89-.74 1.1-.72.62-.73.88-.52 1.12-.87.77.48 1.37 1.27 1.46 1.71 1.34 1.38.44.7.4.39 1.1.68 1.12 1.1.4.26 1.5 1.33.95 1.33.46.53 1.45 1.42 1.52-2.26 1.42-2.05.43-.06.02-1.33-.12-1.37-.2-.8-.19-.02-.2-1.24.02-.8-.72-.01-.03-.36.6-.45-.04-1.85-.34-1.95-.22-.78-.13-1-.23-.79-.04-1.6.25-2.13-4.74 3.13-.56-1.02-.92.65-.27-.42-.07-.47-.92-.42-1.44-1.06-.32-.44-1.56-1.25.53-.63.04-.58-.11-1.56-.35-1.76-1.17-.27h-.53l-1.77 1.07-.44.57-.3-2.06-.27-.83-.12-1.95 1.4-.38.02.14 3.34-.8.08-1.12-.36-1.55v-.5l.6-1.94.59-.5v-.71l.88-4.17 1.14.26.44.31.52.12 1.29.52.77.43.16.39 1.86 1.5.52.12 1.2.88.72.26.83.64.6.22 1.2.66.35.53.98.96 1.2 1.04.27.33.62 1.62.71 1.68.33.17 1.89 2-.04.73.77 1.08.47.78 1.88 2.82 1.74 1.97 2.13 2.26 1.3 1.98.92 1.6 1.14 2.27 1.11 1.76 1.86 2.6 2.6 2.97 2.43-.9.3-.03.52 1.93.44.62 1.46-.7.48-.32.22-.37 1.07-1.1-.28-.61.69-.28-.08-.2 2.21-.75-.2-.61.62-.73 1.9-1.68 1.65-1.65 2.02-1.82.71-.96 1.46-2.51-.51-.23.34-.75 1.16.54.63 1.25.6-2.2-.82-.3 1.47-1.69.22-.5-.5-.62.87-.71-.6-.87.73-.75-1-.96-.82-.95 1.87-1.94 1.51.82 1.03-1.84.41-1.06-.29-.3.94-1.17.73-1.5-.2-.14.97-1.5 1.1.84 1.2-1.45 1.92-2.45-1.88-1.57.32-.43-.34-.42.48-.49 1.35 1.28.42.5 1.91-1.2 1.25-.01-.53-1.28-.5-1.45-.25-1.2.61-.26.56-.56.08-.66.5-.63.28-.72.04-1.34-.25-2.2-.5-1.58-.44-.89-.29-.92.04-.48-.13-1.61-.56-6-.19-.68-.1-1.36-.37-1.65-2.11-.8-2.01-.87-.93-.47-1.19-.86-.79-.75-.16.11-1.16-1.39 5.02-1.03-.47-.97-.24-.85-.06-.74.1-1.93.35-2.03-.02-1.2-.47-1.43-.05-.88.06-1.11-.01-1.36.12-.44 1.1.31 1.32-2.93.55-1.35.36.04.78-1.37 1.47-1 2.42-.88.93-.85 1.6-1.65-.1-.19.52-.67 1.37-.85.56-.6 1.24-.53.94-.11 1.82.1.43-1.64.2-.12.3-.69.82-1.14.24-.65 1.2.1 1.14.33 1.45.8.32.61.36.04.56-.86.8.67.27-.05 1.31-1.17.48-.59.36.53.53-.42.62.86 1.06-.72.72-1.14.66-.25.3.72.59.91.92.97 1.26 1.77 1.37 1.43.7-.76.52-.8 1.21-2.46 1.21-1.1.73-1.06 1.7-2.76 1.6-2.17.76.37 1.94.4 1.23.76 1.98 1.5.86.95-1.96-8.4-.33-1.15-.2-1.71.01-5.36-.15-1.06-.5-2.3-.1-.78.1-1.91-.11-.47-.11-1.5-.11-2.97-.01-2.37-.08-4.97-.1-1.9-.05-2.2-.07-6.5-.07-1.1v-3.29l-.08-1.36-.04-2.15.03-2.18-.18-3.35.01-1.18-.15-3.13-.05-1.8-.38-.76 1.63-.7 1.63-.78 1.88-1.07.57-.45 1.13-.28.94-.07 1.44.14.7-.31 2.12.65 2.24 1.24.9.77 1.52 1.04.22.05 3.35 2.33.17-.2 3.12 1.9 4.1 2.53 1.36.8 1.04.37.42.3.93.42.82.49.7-.35-.02.7.64.04.57.6.63.47.36-.19.1-.79 1.57.17.61-.29 1.42.14.56.43.53.19 3.3.37v.14l2.53.21 1 .26 1.1.15 1.58.67.4.24 1.27.32 1.25.48 2.09 1.66.63.63.73 1.1.25.55 1.65 2.98.65.6.64 1.08.17.82.3.81.69 1.16.18-.02.58 1.7-.16.07.56 1.47.07.69.07 1.97-.04 3.76.03 2.44.32.89-.15.94.3 1.53.05.86-.08.67.17 1.64.16.43.6.98.33 1.32.76.99.37-.18.88 1.59-.42.26.3.87.64.67.37-.23 2.44 3.3-.49.63.27.3.5-.57 3.66 2.73 2.6 1.57 1.47.6 3.32.93 2.7.73.62.38-.22 1.04.25.15.41-1.3 2.23-.05.44.66.84.18.6-.1.66-.41.79-.13.84.4.27-.2.6-.08.63.16 1.35-.28.48.5.69-1.09.44.3.4.6.4-.55.12-.51.45-.33.55.12.16.22-.01.67.37.37-.01.87.19.03v-.98l-.4-.46-.02-.86.34-.17.15-.45 1.11-.3.83.18 1.01-.49h.48l.16.47.36.36.9-.55-.16-.66.56-.53 1.44-.22.35-.2 1.44-.41.25.29.53-.66.35-.9 1-.44.59-.07.92.58.78.33 2 1.18 3.34 2.2-1.08.52-.7 1-.28.81-.01.88.15.7.23.18-.07.72.13.79-.29.44-.02.4-.32.4-.54.29-.53.1-2.67.96-.84.7-.68.99-.16 1.67.23 1.4v.9l-.78.96-1.5 1.5-.66.37-.12.44-.74 1.28.4.88 1.03 1.32.7.7.83.68.4.82.1 1.2-.27 1.4-.94 2.44-.06 1.82.18.6.2 2.65-.03 1.16-.32.43-2.47 1.12-.62.42-1.04 1.23-.66.42-.34.48-.54.37-.67.25-.44.4-.38.75-.72.97-.62.98-.47.28-1.85-.26-.07.06-2.06-.35-.72.27-1.23 1.26.14.52 1-1.35.6.55.9-.85 3.9.65.36.58-.11.6-.7 2.4 1.47.21.05 1-.7 1.09.17.72-.06.44-.49.22-.16.45-.36.18-.54-.42-.22.42-.56.06-.44.68.14.43-.49.1.01.6-.47.1-.11.47-.6-.23-.32.54-.5.17.12.39-.85.16-.54.42-.38-.33-.22.42-1.15.1-.6-.1-.09-.31.27-.61-.34-.19-.25.54-.72.37-1.13.31-.27-.42-.43.47h-.55l-.22.47-.5.51-.59.93-.2.03-.86 3.6-2.56-.65-.5.97-.93-.15-.29.74-.11 1.93.19.8-1.11 1.26-1.68 1.81-.99 1.14-.74-.28-.5.5-1.23.45-1.31.23-.1.96-.13.3-.77.26-.82.5-.38-.62-.37.2-.22-.26-.77.53-2.12 2.04-.36.23-1.52-1.02-.74-.64-.81-.32-.7.03-.26.49-.8 1-.91 1.3-.7 1.42-.93 2.27.09.52-.48.57-.3.6-.48 1.4-.07.97-.6.8-.76 1.51-.37.58-.67 1.73-.12.64-.07 1.25.3.63-.1 2.26.2.38-.02.73-.9.99.72.25-.38 1.43-.23.52-.7-.15-.4.7-.79 1.74-.2.76-.45.22-.14-.73-.44.08-.26-.32-.5-.1-.89-.44-1.76-.63-.43.54-.55.36-.13-.84-.76-1.1-.54.18-.74-.62-.84-.32-1.69-.48-.45 1.5-.15 1.88-.67 1.3-1.23 1.69-.28 2.33-.2 1.24-.01 1.72.2 1.34v.81l-.45 2.44-.34 1.17-1 1.33-1 1.09.58.43.77.4 1.76 1.68 1 1.17-.64 1.39-1.1.2-1-.11-1.5.18.1 1.7-.02 1.88.08.91-.1.63-.56 1.4-.5.18-.38.75-.23 1.35-.24.57-.39.47.7 1.48 3.26.57 1.5.17-.24.53-.25.95-.5 3.38-1.59.06-1.03-.25-1.67-.63-.73 1.91 1.18.84.53.46.98 1.38.45.38 1.01.4.6-.07.06.55.54.85.4.15.89 1.13 1.12 1.83-.33.6.65.15 1.17 2.25.3 1.07.4.82.31 1.16.08.89.43 2.07-.1.42.03 1.63.23.43.2.95.66 1.8.4 1.23 1.1 2.23.68 1.16.94 1.38 1.3 1.56-1.39.24-3.47.23-5.35-.48h-.74l-2.91-.26-2.1-.12-1.38-.2-.04.84-.2.38 1.29 1.5 1.3.78.13.16-.35 1.02-.25 1.11-.5.82-.3 1.23.9 1.54-.6.54.95 1.65.67.65.2.92-.53.07-.23 1.84-.02 2.27.8.43-.01 3.43-.2.26.1.78h-.9l.06 1.47-.05.43.75.27 1.05.1-.19 1.53 1.63.75-.2.68 1.25.56-.2 1.05-.25.7-.33 1.52.06.93-.11 1.13-.95-.4-.75 1.02-.5.87-.94 1.03-.34.6 1.46 1.26.01 1.07.43.32-1.27 3.85 2.28.88-.56 2.58-.35.16-.4-.2-1.79-1.53-.56 1.26-.1.71-.28.4-1.52 1.53-.14.25 1.3 1.15-1.17 2.14-.94 1.62-1.79 2.91.4.66-.63 1.22-.4 1.31-.02.75.78.76.23.54-.36 1.2.04.76-.28 1.18 1.24.4-.28 1.93-.64 2.73-.98 1.63-.29.09-.49 3.5-.58-.07-.39 1.07-.12 1.74.09.91-.2.68-1.93 1.1.36.7-.01.47-1.14.79-.67.7-.26.43-1.05 2.1 1 .21-.06.6-1.39-.19-.06.75-.78.54-.07.65-.36.36-.53-.23-.65.11.1.73.48.5.52 1.1-.2 1.01-1.15-.63-1.73-.8-1.02-.38-2.24-.71-.12.59-1.45-.32-3.28-.49-1.4-.23-1.11-.1-.5-.13-.55.22-1.35.77.02.4-1.55.9-1.1.4-1.59.38-.05-.17-1.56.24-.63.67-.46.72-.12.65-.42-.06-.65 3.2v.33l.38 1.41.33 1.47 1.4-.38.65 2.46-.85.53.63 1.83.66 2.65.23 1.17.26.35.25.95.35.43 1.54 1.42-.13.47-1.17 2.1-.47.68-2.18 2.13-.45.58-.13.7.14 1.11-.64.35-.85-1-1.07.95-.66 1.3-1.15 2.7-1.4-.37-2.07-.42-.72-.42h-.62l-.16.96-.22.73-.08.87-.62-.21-.76-.52-.73-.31-.88-.56-.8.28-1.63-.14-.5.21-.78 1.37-1.02 1.18-1.47.08-.1.24-1.33.46-.02.63-.43 1.61-.28.63-.77 1.07-1.21 1.17-1.57 1.87-1.19 1.15-.58.39-1.43 1.14-1.16.68-.86.6-.7.24-.8.47-.59.2-2.27 1.23-1.01.35-.54.35-.4.84-.74 1.28-1.03 1.17-1.1 1.05.14.92.6 1.43-.11.13-.64 3.12.07.89-.15.75-.64 1.01-.34 1.26-.6.56.48 1.92.16.3.23 1.3.43.82-.04.31-.7.33.7 1.85.24 2-.68.17-1.76.61.65 1.6 1.34 2.08.76 1.44 1.03 2.59.24 2.3.2.4 1.75 1.94 1.92 2.6 2.02 1.73-.4.39-1.22.57-.66.45-2.57 3.04-.2 1.02-1.46 1.62-.49.3-1.61.5-.75.77-1.28.26-1.3.62-.77.18-1.39.02-.81-.18-1.85.16-.87-.12-2.8.2-1.46.25-1.1.35-1.16.55h-.58l-3.24.98v.28l-.85-.1-1.3.22-1.68.78-.44.06-1.76-.09-1.73.47-1.31.21-1.66.4-.6-.73-.53-1.6-1.08-2.2-.44-.61-.26-.62-.94.34-1.03.24-1.37-1.1-.98-.66-1.17-.92-.57-.8-.63-.1-1.68.4-.84.05-1.4-.35-1.28-.18-.33.03-.45.4-.3.91-.4.43-1.27.59-.75.18-.78.01.41-2.25.14-1.5.17-.55.16-1.91.2-1.2.48-1.55.3-1.6.39-.63-1.43-.9v-1.15l-.34-2.5-.6-1.78-.94-1.78-.47.29-1.01-1.17-.16.18-.82-.63-.71-.69-.6-.92-.73-.72-1.1-1.34-.29-.45-1.1-.83-.57-.58-1.19-.69-1.43-1.27-.65 1.02-1.34.96-.74 1.33-.38.4-1.07.39-1.52 1.14-.53.65-.54.86-1.1 1.35-1.22 1.39-.47.67-.56 1.45-.42 1.79-.48 1.4-.7 1.31-1.15 2-1 1.53-.4 1.05-.07.8.12.98-.13.47-.5 1.1-.36 1.76-.21 1.33-.93 2.86-3.33-.28-1.52.09-.58-1.44-.2-1.04-.1-1.16-.2-1.15-.13-.06-.3-1.49-.38-2.14-.41-.71-.39-2.24-.44-1.94-.04-.63-.4-1.17-.5-1.72-.53-2.41-.07-.88.04-1-.23-.43-.04-1.26-.5-1.56.1-.48-.29-1.33-.38-1.08-.41-.73-.16-.59-.12-1.04-.44-1.9.12-.53-.75-2.49-.1-.58.04-.92.79-2.04.17-1.75.38-2.07.48-1.64.45-2.53-1.47.19-.82.2-1.08.45-1.08.09-.12-1.07-.54-2.38-.45-1.34-.21-1.09-.08-1.64-.38-2.25-.2-2.14-.52-1.66-.48-2.02-.38-1.2-.18-1.38-.5-3.33-.29-1-.2-1.03Z" candidates="[{&quot;candidate&quot;:&quot;1&quot;,&quot;count&quot;:1,&quot;margin&quot;:0}]"/>
    <path region="2" short-name="Brent and Harrow" long-name="Brent and Harrow" value="1" d="m377.64 296.74-1.84 4.38.75 1.3v.78l-.58 1.45-3.32 6.43-.85 1.61-.18.49-.43-.52-.67.14-.36-.1-.32-1.36.14-.44-.06-.6.1-.86-.09-.96-.36-.62-.66-.78-.84-.73-1.83-1.27-.22-.26-.46-.98-.23-.02-1.32-.64-.72.04-2.02-.14-1.54.19-1.23.07-1.23.35-1.19.5-1.36.69-1.06.32-1.82.15-1.69.47-.6.24-.19.37.3 1.53-.24.92-.68.35-.24 1.62.07 1.8-1.23-.83-1.41-.66-3.87-1.08-.44-.17-1.76-.94-.5-.2-1.94-.38-.02.28-2.63.2.11-.46-2.18-.74-2.33-1.03-1.84-1.38-1.74-1.57-2.44.78-1.03.4-1.44.1-1.85.02-2.34.28-1.33.05-.5-.09-1.31-.65-1.84-1.11-.96-1.28-.63-.32-3.7-1.13-.18.52-.5.02-1.17-.46-3.47.24-.93.12-.13-.93-.34-.94-.9-.37-.7-.4-.77.51-1.43.68-.92.35-.13.33-2.8 2.71-.55.5-1.75.93.12.38-.13.63-.56.73-1.51 1.44-1.09.68-.77.28-.73.1-.53.39-.51-.48-.88.46-.2-.53-1.04.18-6.79 1.36-1.97.8-.86.46-1.06.31-.18-.1-4.22-1.14-.07.27-1.77-.5-.43-.68-1.03-.98-.72-.8-1.4-1.36-.73-.91 1.18-.7 2.93-1.49.3-.47.44-.04 1.49-.83.59 1.33 2.4-.8.66 1.26 1.99-.9.44-.53.26-.81.25-1.54.38.02.1-.7.32-.29-.5-.28-.53-.54-1.23-1.58-.98-1.34-1.27-1.64-1.04-1.46-3.15 2.4-1.9 1.24-2.36 1.24-1.72.6-2.21.94-1.74.69-1-.16-.8.21-.42-.11-.57-.67-.5.02-.67.32-.54.53-.42.76-.97 1.11-1.25 1.19-1.03.79-1.2.8-1.3.53-.23.3-2.4-.94-3.2-1.1.56-1.09.72-.39.34-2.23.24-3.27v-1.76l-.12-2.91.03-.5 1.47-.82-1.92-2.3-1.56-2.52-1.08-1.6.28-.53.35-1 .05-.75-.56-.83-.5-.17v-.5l1.9-.05.2-.15-.68-1.03-1.07-1.1-1.41-1.03-1.7-.83-.32-.26-.72-1.05-.33-.92-.26-1.07-.24-.27-1.94-1.58-.12.13-2.46-1.75.07-.14-1.3-.93-1.65-.99-3.49-2-.92-.6-2.34-1.37-1.63-1.07-2.18-1.13-1.7-.44-2.37-.53-3.21-.93-.14.18-1.6-.73-.88-.22-1-.55-1.36-.45-.87-.18-3.68-.3-.97-.2-1.18-.4-.77-.46-1.13-.78-1.9-1.65-.44-.72-3.74 1.08-3.5.8-2.06.52-2.07.59-2.53.83-1.08.15-.13.12-2.5.5.27 1.03-.12.4-.47.42.18.53-2.58.92-.65.07-1.56.35.12.33-.6.3-1.1.1-1.52.53-1.1.26-.7.5-1.42.6-.65-.03-.45.47-.6-.59-.4.4-.25-.18-1.2.79-1.11.82-.82-.86-.87-1.34-.68-1.45-.24-.97-.97-2.23-.44-1.77-.66-1.63-.57-1.26.3-.65-.14-.42-.3-.07.18-1.28-.06-.57-.47-1.08-.3-.4-.95-1.62-.73-1.13.49-.34-.57-.96-.07-.76.13-1.4-.32-1.47-.36-1.37-.6-1.82.21-.17-1.22-2.9-.21-.7-.61-1.36-1.08-2.12-.62-1.13.89-1.12-1.13-2.18-.95-2.09-.73-1.11.67-.61-.43-.72-.87-3.98-.49-.71-.75-1.51-1.39-3.02-.88-2 .08-.3.54-.02-.11-2.25.13-.31-.2-1.98h-.17l-.21-1.7-.02-2-.23-1.85-.12-.4-.23-2.1-.18-.32-.82-.71-.73-1-.78-1.57-.38-.45-.5.37-.7.11-.08-.91.1-1.2-.17-1.54-.8-2.49-.22-1.29-.02-1.7-.1-.45-1.33-2.46.07-.97-2.55-.55-.64-.2.43-1.53-1.17-1.99-.54-1.2-.32-1.42-.8-2.48-.22-1.9.11-1.46-.1-2.84.13-.68.06-1.09.7-.95-.4-.5-.3-1-.17-1.52-.85-1.7-.2-1.28-.01-1.7-.32-2.16-.23-.97-.23-1.69 1.55.02.52-.07 1.05.08.9-.35.83.02.58-.12 1.18-.5 1.4-.84 1.83-.7 1.82-.79 1.03-.27.78-.29 2.23-.3 1.88-.19.29-.17 1.32.05.87-.13.87-.24 1.36-.54 1.53-.72.86-.57 1.33-1.41.7-.17 1.24.04 1.62-.47.97-.19h.83l1.2-.47.84-.25 1.11-.5.98-.6 1.46-.5 1.45-.63 1.4-.87 1.38-.96 1.3-.64 1.48-.27.8-.43.84-.6.97-.97 1.52-1.33 1-1.9.94-.37.57-1.05.49-.65.97-.93.75-.39 1.09-.2 1.19-.1 1.5-.4 1.17-.54 1.36-.11 1.3-.45 1.71-.43 1.3-.2 1.84-.81 1.66-1.12 1.33-.78 1.54-.62 1.14-.79 2.75-2.08 2.33-1.73 1.03 1.25.83 1.17 2.2-2.85.34-.52.94-1.01.5-.66 2.17-2.42.14-.86.46.17 2.08-2.14 1-.9 1.96-1.34 1.18-.75.33-.01.6-.54 1.07-.5 2.94-.97 2-.55 1.09-.38.9-.46.82-.69.54-.97.28-.93.4-.68 1.13-.93.52-.22.92.68 1.19.76.77.34 2.28 1.22 1.78.64 2.25 1.04 4.19 1.86.82.77.26.68-.67 1.8-.62 1.92-.03.53.16 1.43 1.16 2.55.63 1.08 1.68 1.98 1.6 2.22 1.22 2.04 1.07 1.5 1.82 2.18 2.14 3 .85 1.13 1.56 2.47 2.6 3.66 2.46 3.29 1.57 2.15.31.5.53 1.19.84 1.03 1.01 1.36.82.93 1.07.95 1.18 1.18 1.43 1.79 2.43 3.65 2.62 3.85.95 1.3 1.3 1.38 1.36 2.07 1.28 2.32 1 1.31 5.01 6.3 1.33 1.89.66.85 1.57 2.44 2.2 2.93 1.41 1.66.92 1.2 2.53 3.42 2.46 3.67 3.47 4.17.58.52 1.35 1.43.7.94 2.6 4.13.43.64 1.71 2.8.3.4-.26.22-1.69.67-1.75.62-.3.22-.76 1.27-1 .94-.64.34-.37.38-.47.87.1 1.21-.14 1.48-.23.73.25 1.58.37 1.47.8 2.01.95 3.99.59 1.52.9 1.8-.15.4-.43.29-1.22.24-.29.35.32 1.02.42.89.87.76.74 1.6.45.3 1.16 1.8 1.46 1.21.4-.25.42.28.66.1.33-.31-.43-.58.23-.22.67.11.02-.64.53-.54.13-.56-.6.07.07-1.06.57-.91-.14-.37-.69-.74.72-1.22.35-.1.43.48.66-.24.49-.5 1-.03.86-.37.59-.03-.09-.5.57-.02.75.28.04.7.46.3.28-.41.92-.06.05.6.82-.04.4-.31.83.87.1-.64.36.08.22-.75.47.22 1-.13.4.23.24-.42.49-.06.2.58.61.57.15.36.64.05.72-.45 1.85 2.58 2.45 3.23 1.03 1.64.36.44 1.06.9 1.21 1.1 1.46 1.77 1.03 1.35 1.4 1.96 1.75 2.26 1.62 2.56 1.5 2.81.8 1.34 2.24 3.04.69.82 2.23 2.88 1.65 2.34 1.13 1.8 1.92 2.39 2.04 2.3 1.53 1.88 1.15 1.6 2.46 3.68.8 1.28 1.96 2.9.83 1.3 2.16 2.99 3.02 3.98.55.65 1.12 1.65 3.53 4.97z" candidates="[{&quot;candidate&quot;:&quot;0&quot;,&quot;count&quot;:1,&quot;margin&quot;:0}]"/>
    <path region="3" short-name="City and East" long-name="City and East" value="1" d="m686.57 281.8-.43.96-.08.89.14.65-.09.4-.46.9.07.57.53.88-.59.64-.03.57.7.34.3.5-.41 1.76-.02.71.35.66.84-.05.33.16.41.85.06.9.46 1.26.41.7.26.97.55 1.4.72 1.19.19.48-.3.9.42.69-.16.35.76.8.96 1.29.88 1.58.33.78.19 1.66-.04.47-.93.57-.2-.03-1.51.67-.04.27.87-.03.38-.22 1.07-.22.32.25 1.13.31 1.09-.03.94.42.41.37-.53.38-.04.3 1 .07.77.8.78.96.98.43.49.12 1 .62 1.2.66 1.54 1.27.78.51.96.07.93-.22.45-.4.47-.11.98-.47.48-.09.62.29.54.9.88.23.74-.24 1-.01.21.3.12 1.1-.05 1.33-.15.41-.77.37.45.62.06 1.11-.18.41 1.53 2.13.41 1 1.09 1.06.15.35-.45 2.13.04.86-.08.87.14 1.1.66 2.01.13.55.52.63.5 1.07-.7.53-.54.26-.73.15-2.82.44-.9.08-.64-.08.23.83-2.69 1.08-2 1.17-1.14.77-1.21.92-1.4 1.27-.05.68.46.38-2.05 3.01-1.08 1.52-.86.36-1.26 2.44-1.46 3.75-.45.29-.7-.05.29.46.54.44-1.04 1.43-.52-.19-.14.36.48.38-.62.4-.3.45-.75 1.55-1.15.17-.42.36.45.22.4.54-.56 1.17-.75 1.12-1.08.46-1.87.96-.43.28-.7.17-.24.21-1.6.38-2.53.36-3.32.42-.28-.07-2.54.37-.9.24-2 .02-1.3-.16-4.02-.95-3.25-.74-2.56-.44-4.29-.48-2.96-.24-6.13.16-.85.1-.76.21-2.09.26-.05-.2-.85.2v.16l-3.42.64-1.6.42-1.58.33-2.79.26-1.66-.07-.47-.08-.17.76-.89-.16.1-.58-.13-.54-1.4-.37-.15.43-1.3-.4-1.12-.48-1.62-1.06-1.33-1.15-.78-.81-1.3-1.54-.28-.45-.15-.8-.58-.05-1.6-2.3-.86-1.36.36-.93-1.62-.64-2.41-2.5-.13-.46-.35-.4.53-1.66.56-1.3-.21-.13-.36-.75-.99-.83-2.45-.7-.64-.29-.06-.38.29-.65.86-1.55.55-1.14.26-1.25-.06-1.23-.46-1.15-.73-1.02-.7-.37-.9.2-.68.57-.8.99-.41.81-.15 2.85-.4 1.35-.33.2-.76.17-.25-.32.1-1 1.03-2.28.45-1.5.17-.8.48-1.25-.15-.76-.92-1.16-.77-.65-1.69-1.16-1.6-1.02-2.2-1.64-.83-.87-.05.4h-.78l-1.15.45-.41.66-.54 1.23-.54-.15-.2-1.33-.57-1.19-.51-.84-.62-.69-1.44-1.17-.52-.7-.07-1.18.12-.49.72-1.22.4-.82.55-1.86.05-2.6.6-1.77.28-1.05 2.22-.83.66-.45 1.92-.7.49-.28.46-.64.66-.3 1.58-.97.33-.33v-.85l.34-1.19.57-.92.35-1.04-.3-.13-.29-1.1-.44.35-.98 2.6-.51 1.2-.44 1.33-.29.31-.47.13-1.08 1.45-.66.27-.93.24-.47-.4-.3.8-.62.45-1.24.38-.84-.22-.44-1.42-.5.1-.1-.3-.57-.01.71 1.15.5.95.07.37-.93 2.63v2.42l-.23-.03-.06.91-.52.04-.29 1.87h-.87l.33 1.15-.17 1.47.03.94.14.53 1.77 1.37 1.04 1.34.43 1.03v1.2l.33 1.14.44.36.4.1 1.19-.37 1-2.13.38-.37.66-.07.44.32 1.85 1.54 1.72 1.14 1.26.65 1.05.7.62.66.41.88-.03.5-.51 1.32-.22.24-.56 1.2.12.12-.87 2.2-.21 1.46.22.5.39.4.93.23.9-.02.66-.34.44-.7.53-1.96.16-1.75.22-1.01.3-.6.34-.28.5-.1.56.28.4.8.16 1.33-.2.87-.76 1.86-1.07 1.58-.12.48.2.77.8.72.97.3.05-.15 1.06.3.7.3.45.64.1.6-.24.75.08.33-.36.81-3.1-1.31-.36-.37-.26.28-2.3-.6-.22.67-.32-.33-.56.22-1.58.16-4.13 1.23-1.33 1.3-2.65 3.1-.4.96-1.22 1.32.26.45-.4.24-.52 1.1-.38 2.67-.95.28v.44l.81.59-.04.64.23.63.25 2.7.16.82.34-.05.1.57.59 1.95.12.15.82 2.02-.66.28.16.23.73 1.8.32-.12.47.29.65 1.45 1.13 3.1.19 1.27.07 1.52-.24 1.62-.52 1.66-.97 1.33-.76-.65-.2.22.8.65-.45.55-.63.55-1.15.83-.86.43-1.6.66-2.91.72-2.54.35-.82-.05-.19.1-1.53-.12-1.25-.23-.57-.22-1.8-.49-.86-.38-2.68-1.43-1.57-1.29-1.7-1.9-.94-1.25-.89-1.52-.82-2.1-.86-2.64-.36-1.29.71-.26.67.02.02-.43-.67-.03-1.07-.22-.15-.28-.05-1.2.22-3.14.25-1.8-.04-1.65.06-2.37v-2.3l.05-1.95.47-2.2.31-.4-.54-.58-.76-2.52-.43-.44h-.43l-.2-.47.34-.57-.73-1.41-1.19-1.8-.4.38-1.33-1.1.88-1.1.56-.35-.17-.23-.96.5-.4.48-1.22-.06-.87-.6-2.06-.9-.94-.23-.26-.53-.3.35-1.28-.36.75-.81-.33-.2-.84.9-.3-.23-.76-.17-1.05-.08-1.31-.2-.85-.04-.19.13-2.78.2.01.14-1.33.1-1.19.36v.2l-2.4 1.34-.36.44-.85.63-.71-.19-.09.37.45.11-.74.55-.47-.11-.01.4-1.08 1.29-1.18 1.02h-.43l-.23.56-2.24 2-.12-.14-.68.76.12.2-1.26 1.38-1.69 1.02-.75.33-1.64.25-1.45-.05-1.42-.44-.39.05-.22-.42-.42.19-1.28-.49-1.14-.6-1.98-.72-1.32-.57-.02-.52-.33-.05-.46.39-1.32-.62h-.28l-.89-.59-.57-.04-.07-.39-.82-.48-.45-.75-.28.02-.9-.44-.36.16-1.06-.48.11-.32-1.4-.47-.58-.35-2.85-.94-.56-.5h-.46l-.83-.26-1.32-.67-2.78-.52-.1.3-3.5-.6-.4-.29-1.13-.24-.2.16-2.31-.16-1.92-.62-2.34-.92-1.97-.64.04-.67-.44-.1-.18.56-.4.06-.81-.43-1.12-.3-.1.1-1.05-.3-1.14-.1h-4.34l-2.49-.1-6.54-.03-.68.13.05-1.7-.42-.6-.2-.7-.43-.84.1-.5.7-.3-.28-.94 1.04-.26-.6-2.88-.62-1.64-.86-1.6-1.05-1.76-.1-.56.95-.06 1.66.15 1.36.26 1.12.28 2.02.3 2.93-1.47.7-.4 3.17-1.57 1.96-1.01.38-.06 1.43-.68 1.46-.43.18-1.68.16-.47-.3-1.2-.4-.75 1.4-.85.38.95 1.63-.6.56 1.57.33 1.58.86-.2.37.49.93-.3.17.88 1.19.17 1.98.42-.36 1.42.83.36 2.08 1.1 1.56.75 1.2-2.9 2.23.99.7-.49.49-.46.67-.85.56-1.28.28-1 1.52.54 1.53.31.28-.65 1.8-.68.31.37.32-.26.5-1.95.05-.78-.23-1.4-.62.06-.24-3.55v-.45l.34-.92.05-.52-1.11-.28 1.07-1.1.79-1 .43-.78.79-1.87.33-.42.7-.63 1.8-.95.74-.16 1.3-.15 3.01-.17 2-.26 1.12-3.25.45.07 2.04-.34 1.21-.32-.57-1.62-.15-1.7.44-1 .92.43 1.2 1.6.92.56.65.11.72-.03.75-.17.97-.43 1.29-.74 1.14-.51 1.01-.18 1.1.18.75.3.14-1.15.38-.73.6-.58.54-.32 1.1-.16 1.13.3 1.33 1.17 1 .32.78.08 1.11-.22 1.25-.36.34-.22.8-.98.59-.15 2.4-1.83.84-1.22.68-1.13 1.24-1.8 2.05-3.21.26-.2-.71-.69 1.15-1.27 1.08-1.05 1.59-1.22 1.36-1.85h.55l2.33 2.18 1.22.46.53.4.56 1.44 1.37-.5 1.59-.7.88-.49.49-.14 3.52-.32.1-.16 2.3-.18 2.12.03.92.19 1.43.2.06-1-.12-.83-.26-1.02-.08-1.32-.16-1.28-.49-2.5-.56-1.63-.48-1.92-.63-1.69-.1-.7.13-1.23-.18-.57 2.42.04 3.04-.57 1.72-.42 1.32-.45 1.1-.55.57.08 1.11.7.29.78.1 1.73.46 1.8.44-.02 2.47-.84 1.46-.74 1.47-.68.2.43 2.43-1.05 1.48-.47 2.9-.45 1.17-.27.17.38.68-.16.05.34 1.35-.17.9.06.02 1.2-.3 1.09.32.02 2.12-.68 2.3-.44.16-.66 1.4-1.29-1.42-2.23 1.76-1.84.6.91 3.5-1.97 1.24 1.91.75 1.39.55-.32.27.4 1.94-1.34.94-.42-.05-.15 2.6-1.33-.25-.55-1.16-2.1.19.12.98-.15 1.36.23.11-1.01.58-.34.43.24.17.47v1.17l.23.69 1.8-.04.07 2.83 1.63-.37 2.4-.3.82.15 3.39-.49 2.1-.82 1.51-.44.9.02 4.74.44 1.65.1.57-.18 4.92.42.17-.29-.22-.6-1.24-2.12-.47-.9-.3-1.29-1.07-.98-.76-.56.21-.15-.23-1.2-.34-1.39-.54-2.53-.2-.6 2.12-1 5.84-2.9 1.98-.93.38 1.27.86 1.9.41.45.93.56.24.32.56.28.35.72.75.46.06.62.3.42-.1.76.39.65 1.13.35.86.93-.03.59.45-.22.4.31-.03.56.32.43.57.27.45-.05.24.56.52.77.3.1.19.46.4-.1.25.54.5.5 1.54-.5 2.53-1.18 1.35 1.86.27-.15 1 1.43-.15.21 1.08 1.56.27 1.83.16 1.42 1-.07.16 2.25.17 1.42.12 1.6.24 1.8.22 2.11.18 1.34-.13.6.12 1.7-.17 2.3-.28 1.34.93.3zm105.8 60.81-.52.43-1.32-.33-1.9-.23-.79-.04-.8-.27-2.07-.34-1.28-.4-1.15-.55-1.37-.48-1.47-.63-1.35-.68-.45-.58-.64.1-.94-.59.12-.28.64.34.02-.66-.35-.45-.68-.15-.72-.42-.45.67-.46-.06-1.82-1.42-2.2-1.83.19-.26-1.4-1.17-1.96-1.05-1.82-.77-2.4-.46-.78-.43-.5.03-.2.33-.41.1-1.56-.53-2.83-.54-1.75-.2-.98-.01-.3.18-3.37.61-.92.08-.4.24-1.79.85-1.91.64-1.07.9-.12.27-1.12.82-.33-.06-.38.34-1.05.66-1.42 1 .12.61-1.05.49-.12-.13-5.22 2.39-2.8.6-1.17-.17-1.4-.12-.1-.16-1.94-.34-.05-.14-1.25-.26-.42.3-2.36-.78-.05-.23-.52-.38-2.32-2.1-.68-.42-.4-.58-.5-.42-.32-1.05.01-1.63-.07-.93.28-.45-.16-.36.05-.67.34-.83-.02-.9-.28.02-1.87-2.34-1.24-1.6-.09-.44.53-3.4-.1-.9-.36-1.5-.19-.42-.62-.84-.4-.32-.29.84-.32.22-.91.16-.95-1.08-1-.38-.72.26-1.52.68-1.03.57-.52-.02-1.42-.87-.91-.9-.7-.43-2.9-1.23-1.6-1.74-.53-.83-.88-.92-1.49-.1-.58-.3-.33-1.25-.24-1.5-.48-1.19-.5-.76-1.29-1.68.16-.68.36-.35-.49-.74-.36.23-.35-.5-.05-.6-.88-1.38-.96-2.47-.71-1.6-.08-.79-.3-.95-.39-.79-.24-.09-.82.22-.2-1.39.22-1.22.23-.57.08-.87-1.1-2.02.01-.45.48-.64.08-.88-.14-1.06.44-.96 1.66.57.8.37.18-.47 2.2.02 1.31-.18.75-.22 1.28-.87.5.16.51-.35.52 1.03.38-.47 1.62-.66 1.38-.72.75-.24.37-.39-.07-.49.6-.12.8-.72 1.52-.89 1.27-.94.6-.54.67-.33 2.32-.5 2.69-.49.42-.46.76-.14v-.77l.23-.8.39-.58.7-.45-.41 1.43-.02.51 1.18 4.83.32.47.75-.47 1.77-.95 1.12-.76 1.08-.6 1.1-.83 1.56-1.3 1.16-.64 1.79-.87.48-.35 1.88-.77 1.24-.99 1.08-1.2 1.48-1.99.39-.16.6.06.16-1.22 3.2.4.96-.33.52-.65-.03-.92 2.84-3.5-.67-.57-.06-.38-1.64-1.33.5-.6.22-.92 4.52.8-.02-.94 2.14.08 1.84-2.27-2.67-.73-.9-.46 2.7-6.34-1.05-.45.2-.64 1.08-.42 5.66-1.74.92-.77.56-.62.8-.68.94-1.43.6-.5.59-.25 1-.1.23-.71.28-1.65-.15-1.27.1-.83.43-1 .38-1.26.06-1.2-.51-.3-.1-1.42 1.96-.55-.86-2.97-.9.6-.78-1.69-.17-1.55v-1.61l-.12-1.34.77-.35 2.12-1.1-.27-.5-.01-.43-.48-2.05-.2-1.36 3.23-1.15-.4-1.34-.78-1.23-3.92-.38-1.74-.22.02-.97.22-.2.12-1.17-.5-1.97-.5-.09.17-.95-1.16-4.37 2.52-.66 1.63-.5 1.33-.35-1.17-2.8-.54-2.03 1.18-.87 1.8-1.43 6.5-4.99 1.48-1.5 2.88-2.82.82-.88 4.37-4.28 1.1-1.12 1.92.9-.06.71-.56 3.42.59.06-.11.79 2.08-1.38 1.56 3.12-.19 1.36-.14 1.81-.13.72-.05 1.6-.15 2.43.6 2.23.14 1.89-.1 2.73-.22 7.5-.36 1.32-1.15 1.35-.77 1.48-.74 1.58-1.1-.08-.16 2.42-.1 3.04-.24 2.96-.05 1.32 1.24-.18.2 1.1-.22 1.57.02 2.02-.16.38 1.26-.22.35 3.37-.16.04.2 2.22.43.33.11.77-3.68.54.21.78-.07.45h.42l.3.4 1.64-.12.68.97.51.03.36.4.92.2.5-.5.6.4.7.68 2.72 3.04.52.64.58.53.87.45.44.55 1.53 1.46.24-.07.85.92 1.02.86.35.87.5.45.23.58.78.35.63.56 1.8-.99 2.68-1.6.82-.58.97-.3 1.37-.2.78-.4.53-.44 2.14-1.22 1.03-.4.9-.11.63-.41.47.04 2.64.66 2.45-.36 1.1-.03 1.37.1 1.1.27.55-.12 1.28.14.99.18 1.98-1.67-.09 1.26.08.2-1.38 1.67-.46 1.79-.98 2.43-.17.65 1.14 1.42 1.13.67.27.69-.05.88.12.32-.06.68-.27.33.03.75-.2.64v.62l.5.82-.08.32.31.42-.34.36.23.49.62-.07.5.14.42.37.27.48.44.13.2.52.44.38.4.95-.26.4.15.35.5.2-.24.37.8.58.13.44.66.6.58.35.62.9-.57 1.26-.15 1.02-.44.13-.36.46-1.7 1.8-.3 1.32-.2.27-.83 2.7-.66 1.36-1.02.46-2.8 2.2-1.05 1.12-.55 1-.8.87-.54.98-.1.72-.22.33v.62l-.21.55-.02 1.12.13.36-.08.86-.49 1.95-.4.33-.93 1.12-.83.07-1.11.6-1.75 1.38-1.29 1.69-.95 2.17-.65 1.06-.4 1.19-.27.52-.14.67.03.74-.34.93-1.01 2.2-.38.33-1.43 1.75-.58.55-.44.7-.39.15-.27.76-.42.8-.76.55-.42.74-.03.43-.54.52-.16.38-.37.13-.5 1.48-.78 1.3.02.56-.5 1.1v.95l-.37.71-.07.62-.31.91-.57 1.22-.26 1.45-.58 1.86.13.87-.12.72-1.06 3.76-.18.87-1.03 3.05-.79 2.58-.85 3.96-.03 1.49z" candidates="[{&quot;candidate&quot;:&quot;0&quot;,&quot;count&quot;:1,&quot;margin&quot;:0}]"/>
    <path region="4" short-name="Croydon and Sutton" long-name="Croydon and Sutton" value="1" d="m511.4 518.16.1.1-1.28 1.59-1.09 2.07-.56.64-.21.63.16.46.25 1.78.34.86.89.47 1.92.72 1.45 1.02h.54l.62.62 1.03.82-.17.2 1.8 1.27 1.06.33-.87 3.1-.06 1.12.12 1.65.48 1.64.85 1.57.44.59 1.08 1.18.98 1.38 1.13 2.19.04.42.29.48.04.85.74 1.06 1.64 1.51.62.46.98.55 1.28.48-.16.6 1 .3 1.9.06 2.38 3.77-.64.53 1.54.03.66-.67 1.65-1.26.73-.45 1.88-.86 2.4-.65.3-.3 1.24 1.84.52.94 1 .82-1.75 2.41.88.71.63.38-.15 1.13-2.9 3.7-.1.48 1.06.55.2.9.86.3v.8l1.46.49.95.17.65-.08.82.06.81.39.66 1.46.46.81.7-.3.25.72.9 1.35.65.77 1.18 1.2 1.11.8 1.11.37.18-.17 2.14.73.37.2 1.06.05 2.54.7-.23 1.66-.51 2.94-.89 5.32.05 1.26.2 1.85.62 3.28.28 1.72.69-.09-.71 3.78.88.21.57.03 3.65-.42 2.5-.19 1.23-.4.75-.55.5-.61.47-1.02.06-.5-.06-1 1.44-.03.48 2.82.44 1.26.13 1.4-.25.06.88 2.24.24.48.22.88.72 1.59.27 1.45.7 1.39-.06 1.19-.2.52.2.17.07 4.12.09.86.24.5.22 2.53-.28-.09-.82.12v.4h-.53l.02.7.89 1.38-.08.51.25.23 1.55-1.11.37.77.73.71.7 1.55.8.7.71 1.02.64 1.1.2.86.71 1.74-.27.13 1.27 1.46 1.98 3.24 1.7 1.64 1.29 1.52.95.24.53-.38.9.56 1.99 1.47.47.52.7.56.9 1.68.35.49 1.33 1.5 1.11 1.96.17.63.53 2.73v1.2l.13 1.34.31.75.04.41.4 1.3.1.97.15.32.38 1.5.27 1.27.38 1.05-.08.1.3 1.31.15 1.59.23 1.06.66 2.49.24 1.3-.13.04.33 1.78.46 1.4.38 2.17.46 1.44.92 4.5.2 1.05-.01.7.33 1.1.01.68.58.55.72 1.11.8.71.8.36-.09 1-.38.69-.06.45.07 1.23-.85 1.14.1 1.2-2.68.44-.63.25-.3-1.1-.47-.92-.62-.88-3.54-3.46-1.15-.95-1.86-1.43.1-.58-1.16-.3-1.23-.1-1.31.14-.49.14-.4.38.4.89-.3.34-1.15.03-1.7 2.57-.34.02-.16 1.57-.88 1.35-.4-.94-.39-.52-.08-.5-.36-.95-.5-.94-1.28-1.68-.4-.2-.5.14-.59-2.22-.58-.8-.88-2.6-.63-.6-.54-.75.07-.44-.13-.57-1.02-1.29-1.13-.72-.59-.15-1.64-.2-1-.42-.44.17-.58-.08-1.74.46-1.21.47-.78.45-1.27.34-.98.33-2.08.08-1.07-.32-.72-.74-.7-.14-1.1-.44-.56-.03-.65-.34-.97-.19-.3-.2-1.64 1.73-.64 1.07-.93 2.27-.54 2.04-.29.7-.78 1.47-1.09.3-1.9-.13-2.45.45-.95.7-1.32.61-.94.18-1.18.1.23 1.12-.64.34-.51.53-.05 1.42.5 1.2.5.72.94.83.82 1.28-.38.2.83 1.47.43 1.18-.03.27.24 1.07-.04 2.4-1.63-.27-.62.22-.27.57-.54.67-.5 1-.17.93-.3.3-.05 1.87-1.39.13-.7.5-1.3 1.09-.84.54-.99-.16-.63-.61-.9.56-.96 1-.68.87-.43.23-1.39.41-.86-.04-.38.29-.66.82-.64.53-2.43 1.09-4.28-.37-2.7-.14-1.18-4.43-2.07.92-.23.18-1.47.44-1.09.42-1.17.07-.02.25-.86.19-1.84.27-.61.03.1 3.18-.51.02-.87.31-.94.92-.39.5-.13.61-.37.27-.64-.59-.55.36-1.31.33.08.5-.72.27-.72.71 1.1 1.39.49.8.7 1.42 1.16 2.57.2 1.41-.2 1.1-.05 1.2-.6.3-1.12.83-2.43 1.48-1.35.78-2.16 2.38-.5.73.12.7-.04 1.44.14 1.65-.26.78-.37.6-.38.1-.25.87-1.2.04-.54 1.07.35.4-.1 2.24-.25 1-2.96 1.3-.85.32-.46-.14-.6-1.21-.88-.36-.4.26-1.2.5.14.33-.1.48.12.74 1.09.94 1.18.58 1.08.06.1.2-4.14 3.08-1.8 1.27-.95.81-.65.46-1.7.49-1.03.52-4.05 2.88-2.18 1.53-2.25 1.68-1.05.74-4.26-.35-.28.06.34 1.65-.54.23-.57.56.13.17-.48.75-.74 1.44-.32.23-.3.7-.14 1.69-.38.83-.35 1.03-.08.77-4.06.26-3.65.38-.2-.45-1.9-2.63-.18-1.96-1-1.63-1.06-1.51-.33-.34-1.49-1.83-.83-.87-.52-1.1-.24-.9-.73-1.8.03-.45.44-.79-.4-.67-.64-.54-1.13-1.7-.49-.57-1.45-2.3-2.14.24-.37-2.88-.8-1.88h-.25l-1.5.8-2.09 1.36-.48.15-.87-.38-1.34-.41-.86-2.43-1.02 1.37-.51-.33-.92 1.68-1.1-.43-1.79-1.04-.46-.2-1.23.01-.38.94-1.8-1.23-1.57-1.13-.83-.43-2.32.77-1.62-4.39-.38-.23-.86-1.36.04-.3 3.17-2.28.61-1.24-.75.04-1.5-.05-.9-.49.92-1.23.97-2.1.62-1.53.87-1.98-1.23-.16-1.03-.03-1.67-.96-.82-.11.85-3.19.52-1.36-.84-2.13-1.7-2.74-.3-1.42-.02-.75-1.06.44-.83-1.24.1-.4-.16-.44-.77-3.14 3.78-2 2.66-1.34-2.6-4.9-.46-.01-1.86 1.4-4.25-5.3.73-.34-.92-2.84-.02-.78.45-.12.02-.75.51-.3 1.48-.28-.93-2.6-6.3 1.27-1.98.22.2-1.46-.32.11-3.2.33-1.01-3.33-.5-2.73-.62.08-.24-1.02-1.45-1.35-2.85-2.5-1.03-.84-2.66-2.76-.82-.72-1.45-1.13-4.38-3.75-.15-.36-1.63-.82-3.02-1.71-2.3-.97-1.4-.5-1.94-.83-.26.55-.5-.23.17-.54-.92-.28-.4.2-.83 1.6-.24.65-.66.78-.52.01-.6 1.26-1.34 2.53-.6.04-.2-.61-.5.18-1.4.86-7.27 4.93-2.21 1.5-1.84 1.34.93 2.82.4 1.4-2.59 5.61-.3.2-2.05.8-.87-.05h-2.98l-1.55.04-.36-.06-1.42-2.19-1.13-1.38-1.22-1.34-1.87-1.91-1.5-1.64.1-.13-1.64-1.6-1.1-1.23-.73-1.2 1.86-1.2-.25-.17 1.78-1.08 1.54-2.15 1.46-1.7.4-.38.98.3 1.16-1.09-.5-.7 1.09-.98 1.66-1.26 1.42-1.17.96-.66 1.3-.78-.53-1.95-.06-.83-.26-1.4.25-.07-.69-1.55-.42-1.52-.68-2.15-.53-1.35-.6-2.16.06-.29-.27-1.96-1.02.15.03.32-.99-.29.19-1.1-.02-2.2-.07-1.35-.15-1.09-.4-1.72-.36-2.66.06-.66-.16-.23-.49-1.9-.93-2.16-.3-.35-.72-1.5-1.45-2.67-.86-1.78-1.95-1.4-1.64-1.3-1.99-2.03-1.9-1.75-.75 1.3-1.66-1.2-.79-.76-1.37-1.03-1.8-.33-.41.45-2.34-.38-.3 1.47-4.08-.87-.97-.24.63-2.48.29-2.08.11-2.31-.17-1.71-.03-2.86.13-.57-.05-2.36-.5-3.6-.14-1.65-.03-2.2.05-1.35.16-1.85.15-1.6.17-.23.1-1.22.62-3.5 1.47 1.05 1.31-2.7.9-.98 2.22-1.92.53-.4-.25-1.12-.07-.7-.53-1.7-.13-1.79-.16-.76.56-.22.71-.48 2.63-.97 2.08-.69.2.88.12 1.44.3 1.53.55 1.3-.3.22 4.1 3.99 1.86 1.85 1.36 1.28 3.73 2.5 4.26 2.96 1.17.64 1.02.22.93.83.27.07.8-1.27 1.38-1.9.45-.72 1.38-1.88 1.12-1.62-.18-.2.54-.7.6-.55-.45-.37.72-.7 2.03-3.11.6-1.01.3-.25.18-.59.4-.5.36.39.92.43 1 .7.66.68 2.71 1.9 1.79-2.15 1.57 1.97 2 2.47 1.16-.9 1.97-1.43 1.58-1.23 1.52-.7 1.53-1.4.41.38.48-.38 1.58 1.77.24-.26.66.47.92.9.24.43h.46l.2.47.68.1.69.74 1.64-1.51 1.85-1.5 1.1-.94.57-.38 1.59-.6 3.2-2.97.19.19 1.16-1.16 1.4-1.92 2.47-3.26.87-1.1.64.47 1.73.98 2.04.43 1.39 1.33.1.62.78.6.55.22.72.63.65 1.09.54.4.7.2.24.26.35 1.4.91 1.69 1.44-.3.37.13h1.05l.08-.17 1.23.05.93.59.74-.86.78-.61 1.19-.6.5.14-.03-.4.3-.4.49.1 4.05-.72 4.61-.67 3.8-.61.44-.34 2.8-.46 1.41.53 1.33 1.58.19.4 1.46-.7 1.14-.14.74-.19 1.24-.58 1.37-.22.49-.17 1.77-.94.7.04.69-.73 2.03-1.39 2.17-1.4.8-.56.54-.82-.68-.35 2.11-2.06.96-1.1 3.06-3.97.44-.4-.47-.4-.11-.5-.76-.34-.53-.07.41-1.23-1-1.83-.96-1.41-.83-1.54-.71-.81-.65-.88-1.9-1.7-.23-.66-.77-1.1-.26-1.5.13-.42-.27-.29-.77-3-.19-2.8.62-.1-.16-1.35.92-.09.04-.55 2.14-.13.14-.55.89-1.75.15-.43.34.15.45-1.74.33-.88h-.26l.38-.34 1.39-.83.56.57.23-.53.77-.72.56-.14-.1-.41.19-.81.38-1.15.79-.2.49-.64.6.05v-.52l.92-1.32.16-.47 1.05-1.92.75-2 .24-.95 1.65-1.23.8-.7 2.22-1.23 1.25-1.43.91-1.64.3-.7.95-.88.4-.62 2.6.22 1.05-.07.47.06 1.57.52 1.62.47.85.08 1.86-.14 4.1.13 2.82.01 1.03-.06 1.57-.3 2.18-.1 1.08.17.83.35.5.36.65.8 1.1.87 1.1.66.64.6 1.08 1.41.82.59 1.35.77.52.14 1.39-.14 1.99-.6 1.17-.2 2.07.17H510z" candidates="[{&quot;candidate&quot;:&quot;1&quot;,&quot;count&quot;:1,&quot;margin&quot;:0}]"/>
    <path region="5" short-name="Ealing and Hillingdon" long-name="Ealing and Hillingdon" value="1" d="m125.87 150.21.23 1.69.23.97.32 2.16v1.7l.2 1.27.86 1.7.18 1.52.28 1 .41.5-.7.96-.06 1.09-.12.68.1 2.84-.12 1.45.22 1.91.8 2.47.33 1.43.53 1.2 1.17 2-.43 1.51.64.21 2.55.55-.07.97 1.33 2.46.1.45.02 1.7.21 1.3.81 2.48.17 1.55-.1 1.19.07.91.71-.1.5-.38.38.44.77 1.57.74 1 .82.72.18.32.23 2.1.12.4.23 1.84.02 2.01.2 1.7h.17l.21 1.98-.13.32.11 2.24-.54.03-.08.28.88 2.02 1.39 3 .75 1.52.49.7.87 4 .43.71-.67.6.73 1.12.95 2.1 1.13 2.17-.9 1.13.63 1.12 1.08 2.12.61 1.36.21.7 1.22 2.9-.21.17.6 1.82.36 1.37.32 1.48-.13 1.4.07.75.57.96-.5.34.74 1.13.95 1.62.3.4.47 1.08.06.57-.19 1.28.31.07.15.42-.3.65.56 1.26.66 1.63.45 1.77.96 2.23.24.97.68 1.45.87 1.35.82.86 1.1-.83 1.21-.8.24.18.4-.39.61.59.46-.46.64.03 1.42-.61.7-.5 1.1-.26 1.52-.53 1.1-.1.6-.3-.12-.33 1.56-.35.65-.06 2.58-.93-.18-.52.47-.42.12-.41-.27-1.02 2.5-.51.13-.12 1.08-.15 2.53-.83 2.07-.6 2.07-.52 3.5-.78 3.73-1.09.44.73 1.9 1.64 1.13.78.77.45 1.18.42.97.2 3.68.3.87.17 1.36.45 1 .55.88.22 1.6.73.14-.18 3.22.93 2.36.53 1.7.44 2.18 1.13 1.63 1.07 2.34 1.37.92.6 3.49 2 1.66 1 1.29.92-.07.15 2.46 1.74.12-.13 1.94 1.58.24.27.26 1.07.33.92.72 1.05.32.26 1.7.83 1.4 1.02 1.08 1.11.68 1.03-.2.15-1.9.06v.49l.5.17.56.83-.05.76-.35 1-.28.51 1.08 1.6 1.56 2.53 1.92 2.3-1.47.83-.03.49.12 2.91v1.76l-.24 3.27-.34 2.23-.72.39-.57 1.1 3.22 1.1 2.39.92.23-.29 1.3-.54 1.2-.8 1.03-.78 1.25-1.19.96-1.11.43-.76.54-.53.68-.32.5-.02.56.67.42.11.8-.2 1 .15 1.74-.69 2.21-.94 1.71-.6 2.36-1.24 1.91-1.24 3.15-2.4 1.04 1.46 1.27 1.64.98 1.34 1.23 1.58.53.54.5.28-.32.28-.1.7-.38-.01-.25 1.54-.26.81-.44.52-1.99.91-.66-1.26-2.4.8-.6-1.33-1.48.83-.45.04-.29.47-2.93 1.5-1.18.69.73.9 1.4 1.38.72.8 1.03.97.43.68 1.77.5.07-.27 4.22 1.15.18.1 1.06-.32.86-.45 1.97-.81 6.8-1.36 1.02-.18.2.53.89-.46.5.48.54-.4.73-.09.77-.28 1.09-.68 1.5-1.44.57-.74.13-.62-.12-.38 1.75-.94.55-.49 2.8-2.71.13-.33.92-.35 1.43-.68.76-.5.7.4.9.36.35.94.14.93.92-.12 3.47-.24 1.16.46.5-.02.2-.51 3.69 1.12.63.32.96 1.28-.32 1.01-.5.83 2.05 1.09-.16.3h-.51l-.58.18-.75.44-.9.8-.93.97.03.11-1 1.05-.13-.1-1.22 1.72.47.27-.66.79.39.8v.35l-1 1.24-1.65 2.74-.13.59v.75l.65 2.27.2 1.82 1.92 3.96-.43 1-.08.62.15 1.45 1.01 5.19.37 1.16.53 2.52 2.12 3.69.66 1.32.7 2.45.33 2 .04.83.46 1.66.32 1.63-1.7.02.05.67.92 3.34-2.74.51-.08-.48-1.42.33-.7-.33-.07.34-.48-.04-1.08-.37-1.5.26-.03-.38-1.45.3.13.5-1.05.22-.39-.51-.26.23.7.77.68 1.11.66.86.35 2.3-.01.52.17 1.43.23.7-.05.71-.7 1.7-1.02 2.08-.93 1.8-.11 1.2-.47.13-.02.63.17.54-.06 1.38-1.08-.01-1.4.07-4.5.57-.16-.07-.99.25-1.74.26-4.62.83-.05-.17-.84.1-1.16-.2-1.57-.7-.98-.85-.55-.7-.33-.73-.22-.96-.97-1.2-1.13-.96-1.72-1.26-1.22-1.13-1.37-1.8-.58-.98-.7-1.62-.53-1.48-.3-.57-1.3-1.75-1.9 1.44-.98.86-1.8 1.09-1.19.55-1.28.22-2.23-.35-2.35-.75-1.63-.42-1.88-.24-.48.05-1.19.59-1.27.72-4.32 2.35-1.12.55.19 1.04.54.89.19 1 .48.74.84 1.83 1.51 2.98-4.21.9-.27-.95-.02-.59-1.04-.39-2.86-.78-1.43-.64-.04.5.08 1.07.45 1.55-3.5 1.82-.53.36-3.65 2.7-.84-1.17-1.54-1.91-.57.28-.81-.99.74-.75-1.49-1.87.52-.4-.59-.66-1.72 1.3-1.6 1.38-.73.51-1.57-1.25-2.34-1.27-1.09-.67-.7.26-.87-.47-1.66 1.87-1.49-1.92-3.03 1.83-.68-.52-1.44-.66-.07.13-1-.44-2.4-.66-1.54-.02-.93-.08-2.2.02-1.96.18-1.29.26-.86-.05-4.82-2.87-1.27-.71-1.21-.8-1.8-1.3-.67-.17-.7.08-2.8.99-2.17.67-1.1.19-.37.23-1.08.35-.86.03-.56.3-1.28 1.18-.63.43-.55.17-1.1.62-.49.54-1.28.28-.34.56-.4.3-.13 1.49-1.2 1.39-.75 1.22-.5-.63-.81.72-.57.95-1.67.92.54.95-3.84 2.11-.84.41.18-.6-.26-.37h-.56l-1.06-1.24-.59-.57-1.42-3.7.05-.11-.6-1.13-.23-.65-.2-1.01-1.46.23-.97-.32.28-2.03-.29-.17-1.27.65-.2.2-3.2 1.78-2 .77-1.46.27-1.45.07-1.33-.1-.67-.38-.64-.09-1.3-.42-3.53-1.33-2.06-.89-4.6-2.04-2.42-1-.33-.04-1.54-.64-3.91-1.77-2.45-.91-.08.15-.84-.54-1.9-.8-.46.68-1.4 4.12-.03.65.33 1.59.05.76-.14.5-.43.68-.43 1.16-.28 2.23-.36 3.26-.82 6.7-.43.63-.05.45-.42 1.05-.07.47-.64.06-.26.67-.37.57-.13.47.71.43-.76.76-1.1 2.93-.52 1.07-.16.95-.7.81-.1.33.44.58-.4 2.44.2 1.11.41.73.32 1.2.52 1.3.34 1.6.34 1.02.1 2.19-.61 1.63-.28.55-.17 1.7.18.42 1 .64.33.48.39 1.05.65.5.48.77.36 1.06 1.07.95.88.89.21 1.1-2.01 1-7.11 3.41-1.55.8-.15.67-.26.12-.58-.2-.86.24-.76.44-5.55 3.73-1.58 1.1-1.79 1.19-3.24 2.24-1.14.73-1.14 2-1.3 2.5-.07.3-.74 1.54-.34 1.37 1.05.56 1.18.53-.37.49-1.3-.1-1.34.13-1.36.25-2.23.11-1.37-.3-.52 1.28-2.47 5.44-3.95-.53-.96-.15-1.5-.41-5.17-1.92-.37-.36-.04-.85-1.55-.26.07.65-.43.07-1.28-.47-.61-.35-1.57-1.2-1.26-.92-.88-.46-1.45-.44-.91-.07-3.18-.52-1.4-.42-1.3-.16-1.6-.02-2.2-.4-1-.24-2.44-.75-.51-.32-2.28-2.46-.5-1 .47-.14-.2-.44-.43-.4-1.03-.45-.88-.12-1.9-.02-1.68.15-1.13-.02-.19.14-1.85.04-1.87-.02-2-.3-2.02-.65-.8.08-.6-.29-.46-.79-1.98-1-.3-.25-.76-.03-1.2.5-.2-.62-.6-1.1-.42-.57-.8-1.28-1.24-1.64-.49-.52.06-.26-.66-.58-.84-.46-.74-.53-1.75-.81-1.29-.45-2.72-.65-2.03-.14-.98.13-.63.48-.6 1.03-.43-.21-1.3-.13-.75-.47-1.02-.3-.07-1.36.21-1.05.57-.83.76-.08.5-.32.98-1.15.4-.6.85-1.61.45-1.13.68-1.96.55-2.1.2-1 .74-5.7.29-.6.1-.95-.07-.58.23-1.46.66-2.27 1.46-3.74.66-1.24.75-1.26 2.35-3.56.46-.78-.43-.3.12-.84-.28-.2-.43.07-.08-.84.65-1.14-.17-.47.05-.99.35.23.34-.29.37.21.35-.63-.06-.33-.49-.08-.21-.45.66-.44.09-.27.74-.47.4.34.45-.23.19-.56-.56-.33.38-.49.78.01.3-.72.33-.45.53-.2.12-.73-.48-.88.9-1.18h1.23l.43-.17.45.12.68-.46.91-.14.76-1.24.43-.3-.06-.42.28-.33.38-1.2.47-.58-.2-.41 1.21-1.06-.09-1.01.18-.48-.4-.64-.17-.54-.37-.21.13-.78.36-.54.14-.7-.8-.1-.28-.58.24-.56.79-1.03.09-.65.74-.61.25.24.62-.11.2-.43-.14-.47.14-.3h.46l.55.3.35-.39-.13-1.46.83-1.24.5-.4v-.42l.33-.45-.05-.55.16-.6-.43-.27-.06-.32.35-.51-.04-.36-.39-.37.23-.75.27-.2.08-.68.23-.23.62.12.48-1.71.53-.3.02-.9-.17-.39-.75-.42-.04-.45.59-.34-.08-.31-.56-.24-.24-.35-.08-.5-.49-.37-.3-.78-1.03-.95.4-.02-.29-.74-.65.09-.13-.63-.49.02-.63-.73-.23.07-.94-.55-.5-.46-.76-.06-.41-.18-.3-1.18.32-.67-.04-.72-.2-.95.34-.84.02-.73-1.33-1.76-.48-.24-.86-1.65-.03-.53-.52-1.38.02-.4.5-2.06.36-1.19.64-.9.56-.45.18-.41.08-1.03-.29-.67-.47-.28-.2-.47.05-.57.56-1.3.17-.81-.1-1.34.32-1.72.08-.83-.15-.74-.46-1.15-.1-.58.04-.93.21-.7.85-.6.72-1.38.4-1.44-.02-1.1-.85-1.79-.2-.59.01-1.08-.3-1.23-.09-.9-.3-.21-.02-.48h-.38l-.29-.8-.2-.9.34-.87.52-.55-.18-.22-.75-.24-.27-.82-.28-.4-1.9-1.58-.54-.83-.82-2.22-1.17-1.7.02-.58.81-.94.5-1.15.56-1.05.24-.67.06-.6.25-.3 1.31-.42.59-.46.03-.29-.38-1.38.25-1.1.34-.79.14-1.07.2-.62.34-.44.3-.92-.34-.34-.51-.1-.06-.8.22-.82.22-.2.75.18h.77l.49-.25.25-.33-.3-1.29.11-.25 1.15-.1.46-.42.49-1.42.2-1.43.52-1.23.82-1.04 1-.89.93-.54.42-.78.84-.32.86.17.32-.14 1.5-2.21 1.96-2.57 1.02-1.53.46.33.54-.52.37.13.44-.74.16-1-.05-.64.08-.77.47-1.14-.07-1.19.3-.55-.41-1.1v-.41l.39-.58-.08-.4-.77-1.07-.2-.71-.95-.33-.8.01-.61-.13-1.05-.56-.67.24-.3-.6.55-1.18-.02-.32-.61-.87-.35-.33-1.46-.78.28-1.43.35-.54-.1-.48-.67-.96-.36-1.01.29-.3.47-.82-.45-.65-.58-.63-.56-.14-.73-.38-.27-.38.47-2.44.07-.62-.27-.47.09-1.16.4-1.6.14-1.67-.27-.93-.93-1.32-.38-1.49-.11-1.74 1.05-.7.66-1.22-.36-.8-.83.04-.38-.14-.56-.55-.46-.27-.93-.24-.76-.43-.54-.51-.15-1.03-.9-.52-.62-1.69.07-.58.37-.96.53-.77.11-.48-.17-1.13-.26-.94-.81-2.03-.34-.53-1.36-1.48-.81-.6-1.75-1.1-1.22-1-.56-.71-.37-.91-.12-.63.19-1.44.02-.7-.5-1.13-.45-1.86-.4-.6-.4-.23-.94-1.5-.58-1.6-.25-1.5-.73-.08-.37-.48.31-1-.05-.23-.87-.16-.24-.38.2-.8.55-.55.18-.42.22-1.61.02-.93-.18-.48-.76-1.04-.14-.88-.03-1.3-.7-2.46-.48-1.4-.1-.48.07-1.14-.16-1.1-.25-.7.3-.74.12-.78.34-.54.82-.2.6.05.69.64.96.28.8-.54.37-.59-.1-.39.3-1.06.2-.31-.1-.43-.81-.89-.44-2.23.23-1.23-.3-.7-.51-1.93-.21-1.57-.46-1.3-.07-.97-.61-.63-.17-.33.2-.6.75-.48.08-.5-.62-.78-.1-.43.19-.72-.17-.89.19-.5.37-.39-.09-1.1.78-2.07-.06-1.39.07-.54.28-.81.64-.34.5-1.93.68-1.72.06-.94.3-1.13.24-.44.23-.93-.06-.96-.89-1.4-.63-.56-.08-.77-.75-.41-1.77-.5-.38-.25-.4-.6-.66-1.23.15-1.2-.13-1.07.05-.5.42-1.06.65-.62.9-.59.16-.26-.09-.76.33-.32.33-.8.22-1.6-.15-.41-.66-.54-1.1-1.18L12 120.8l-.14-.38.12-.48.61-.61.11-1.32.27-.59.95-1.03.52-.35.6-.68.47-.38.91-.2.47.18.62.96 1.17.23.42-.04.47.43.2.46.66-.13.66.27.53-.1.63-.36 1.16 2.38.95 1.75.86 1.92.56.78 1.26 1.15 1.15.76 3.1 2.57.44.29 1.02.44.86.7 2.12 1.5 1.6 1.34.6.35 1.48.7.96.8.74 1.24.22.1 1.4 1.45 1.53 1.87 2.63 2.2 1.85 2.3 1.5 1.1.94.6.89.68 2.93 1.91 1.52.92.24-.08.53.46 1.5.8 1.04.61 3.17 1.65 1.86-.65 3.66-2.41 2.25-1.42.98-.55 1.02-.75.75-.9.38-.84.26-1.1 1.45-3.57.45-.91.47-.7.4-.32 1.22.1 1.17.28 1.45-.24 1.83-.86 1.7.25 1.15.09.89.54 1.47.53.37.3.92.35 2.8 1.23 1.57.35.68-.03 2.2.65 1.2.44 1.5 1.07 2.62.26 1.27-.06h2.66l1.52.17 2.12.51.83.05.9.26.7.34.4.38 2.8 2 1.96 1.87.64.4 2.55.16.8.23 3.47.34Z" candidates="[{&quot;candidate&quot;:&quot;0&quot;,&quot;count&quot;:1,&quot;margin&quot;:0}]"/>
    <path region="6" short-name="Enfield and Haringey" long-name="Enfield and Haringey" value="1" d="m589.87 87.16-.52 5.16-.65 7.02-.29 1.26-.55 2.05-.72 2.1-.24.52-.07.93-.7 1.87-1.43 2.88-1.38 2.83-2.46 4.94-3.62 7.4-.5.91-.8 1.32-.48.97-.28.76-.66 2.34-.39.86-1.73 2.14-2.88 4.02-.97 1.2-1.12 1.19-1.4 1.82-1.18 2.02-1.43 2.81-.47.83-.41 1.1-.28 1.34.06.83.53 1.18.85 1.46.32.73.12.61-.06.92-.2.56-.74 1.1-.66.63-1.23.86-4.88 2.95-.95.89-.63 1.14-1.46 3.38-.48 1-1.5 2.6-1.97 3.16-1.59 2.12-2.81 3.31-.5.76-.59 1.6-.07 1.03-.19.53-.96 1.27-.26.92-.2 2.46-.76 2.06-.28 1.01-.1 1.76.13.58.98 2.32.35.58.08.8-.31.6-2.44 2.4-.34.48-.42 1.05-.18.77-.5 1.16-.5.72-1.54 1.56-.25.63-.48.73-3.27 2.7-.78.85-.86 1.63-.07.67.2.74.73 1.26.36.88-3.61 1.2-.46.26-2.56.76.05.5-2.38.5-2.06.56-.53.21-1.09.17-1.08-.1-.92.1-.26-.13-1.67.22-.18.44-.54-.32-.55 1.07-1-.28-.54-.3-2.71-.57-1.23-.2-1.61.52-1.63.34-1.53.13-.93.16-.2.3-1.63.34.43.78-.65-.17h-.81l-.64.11-1.07-.13-.89.1-1.3.64-.66.06-1.32-.12-.9.22-1.05.63-1.01-.1-1.14-.33-.96.14-.55.23 1.05 3.2.18.66.47 1.16.37.63-5.5 6.72-.8.89-3.47 3.52-.67.34-2.09-2.27-1.16-1.38-.27-.46-.92-1.11-2.04-2-1.52-1.2-4.05-2.9-.14-.18.02-1.41-.55-.4.24-.52-.85-.57.64-.73-.28-.47-.9-1.05-1.19-1.48-1.52-.4-.83-.05.8-.66-.4-.5-.36-.98-.46.1-2.17.82-.77.1-1.03.55-.59.04-.4.5-.52.08-.08.39-1.01.21-.8.04-.74-.2-.86-.05-1.49.42-2.89.63-2.1 1.02-.5.35-2.13 1.85-1.16.73-.85.66-.84.46-1.28.92-.21.24-1.97 1.63-.47.24-1.78.44v-.3l-1.7-1.2-.89-.42-1.8-.6-2.3-.68-1.3-.54-1.4-.93-2.8-.25-5.06-.71-2.23-.22-1.57-1.02-.46-.13-2.4.44-1.65.12-.75-.04-1.35-.45-.22.03-1.06-.43h-.61l-2.1.22-.91.15-1.63.66.13-2.26.7-.15 1.3-.55.04-1.01-.21-2.45.05-1.05-.2-.1.49-1.96 1.49.96 1.19-2.45-.33-.1.62-.75-.21-1.92-.08-1.75-.18-.23.02-1.14.19-.86.2-.39.61-.4.71-1.48.03-.53.83-.71.5-.66.37-.06.67-.68.22.13 1.04-.36.74-.57.99-1.16h.13l1 1.07.74.64 1.99-2.43.05-.92.88.04-.3-.7-1.5-.13v-1.76l.07-.8h-1.93l.2-.25.03-1.71-.11-1.31.47-.05-.09-.93.3-1.5.13-1.12.88-.6.06-.34-.2-.58-.97.21-.2-.95-.38-1.2-.12-.85-.25-.71-.58-1.18-.07-.53-.81-3.29-.08-.6.06-1 2.13-4.87 1.47-3.46-.05-.08 1.73-3.93.59-1.48.45-.8.3.47 1.13 1.04.72.9 1.5 2.67-.19 3.22.04.56.48 2.8.13.33 1.02 1.49.6 1.3.21.28 3.06-1.8 1.64-.9-.11-.3.97-.55 2.6-1.57v-.81l.34-1.06.34-.44.4-.8.6-1.47 1.05-1.32.19-1.07-.08-1.54-.15-.6-.52-1.03-.35-.92-.25-1.24-.29-2.2-.05-2.12.74-.4 4.78-2.17-1-1.2-2.11-2.9-3.7-6 2.94-1.28.27-1.26.99-1.66.42-.08 2.5-3.4 1.53-1.86 2.1-2.29-.13-1.34.6.1.38-1.37.64-1.78-.2-.55.3-.52.07-.68.6-2.16v-.54l.26-.4.75-.8.71-1.51.94-1.47.24-.5-.1-.32.4-.73.45-.1-.8-.54.42-.92.1-.5.6-1.17.47.11.58-1.64.2-.85-1.42-.28-1.2-.31-1.93-1.06-.37-.25-.68-.74.22-.22-.37-.52-.63-.4.32-.32-.57-.78-.89-.7-.84-.53-1.75-1.27-.77-.61-1.84-1.66-1.11-1.25-1.46-2.03-.1-.61-2.14-3.12-1.37-3.15-3.34 1.08-.69-1.66-.8-3.2.03-1.16-.1-.12-1.3.08-1.17-.04-.5-.16.18-.55-.68-.33 1.02-1.91.29-.73-1.56-.83.13-.65 2.79-1.55-1.3-2.44-1.49.43-.15-1.7-.2-1.4-.62-1.1-.49-1.24-.65.26-.2-.79.28-.48.59-.15-.02-.62-.23-1.58-.21-.36-.62-.59-.38-.14-.08-.96-3.49-1.18-.29-.32-.38.12-2.62-.95-2.68-2.31-.86-.39-1.82-.11-12.45-4.47-1.13-.38-4.73-1.7-2.13-.7-1.63-.7-2.62-.85 2.23-5.56.95-2.23 1.3-3.22 2.54-2.63 3.82-4.05-.35-1.1 1.85.16-.25-1.09.38-.54.44.44 2.95.24 1.06-1.78 3.96-6.9 3.3-5.66.32-.4 1.86-3.05.04-3.8.11-1.31v-1.04l-.1-2.06.08-2.7.96.04.72.18 1.25.46 1.63.33 1.96.66.76.43.35.36 1 .55 1.83.74 1.66.57 2.15.43 1.17.16 1.29.05 2.4-.65.85-.13 1.22-.4.3-.2.8-.18.71-.33 2.94-1.62 2.37-1.08 2.28-.85 2.7-.68.86-.16.52.23.48-.04.14-.25 1.09-.14 1.8.03 1.18-.04 2.8.11 3.32.33 3.22.27.66-.04 1.91-.5 2.1-.4.54.1.2-.45 1.12-.41 2.46-1.38 1.2-.52 1.02-.75.8-.36 3.08-.92-.15-.35.58-.13 2.1-.23 2.3-.02 2.05.19 2.53.78 2.54.48.22.18 1.08.18 1.43.6.82.23 1.47.59.61.13 2.03.15 1.9.22 1.55.04 1.36-.07 2.25-.38 1.06-.06.99.04 1.73.35 1.49.56 1.16.66.87.25 1.5.25.8.28 3.07 2.1 1.6 1.01 1.3.63 2.82 1.8 2.5 1.93 1.78 1.15 1.92 1.07 1.02.41 1.63.54.64.05.37.21 1.46.39 1.08.2 2.14.1.3-.32.33.18 1.1-.02 1.47-.1 1.37-.35.76-.32.78.01 1.53-.1 1.64-.37 1.96-1 .74-.33.14.36.57.16.31-.14.54.7.84.48.84.12 1.46-.1 1.15.02.73.18-.05.47 1.39.12v-.16l3.4.37 3.02.23.08.4 3.27.27.01-.17 1.54.06 2.68.17.05-.24 2.67.4.97.28 1.9.37 3.06.9.24-.13 1.24.21 1.4.36 1.38.27 2.37.27 3.23.04 3.4.21 1.31.02-.06 1.53.4 2.16.41 3.13.13 1.27-.56 3.13-.65 5.88-.08 1.28.1 1.27.52 1.5.3.58.1.61-.2.84-.38.87-.26 1.86-.14 3.63-.14 2.8.1.87.18.5.76 1.42.52.82.88 1.14.51 1.13.1.6-.09 1.07-.2.68-1.41 5.83-.88 3.4-.77 3.16-.08.83.08 1.56.2 2.1-.06 1.96-.28 2.03z" candidates="[{&quot;candidate&quot;:&quot;0&quot;,&quot;count&quot;:1,&quot;margin&quot;:0}]"/>
    <path region="7" short-name="Greenwich and Lewisham" long-name="Greenwich and Lewisham" value="1" d="m516.86 506.18-.06-.7-.4-1.76-.56-1.25-.36-1.3.24-1.82 1.55-3.05.97-1.58.45-.43.37-.13 1.63.04 1.38-.42 1.1-.6 1-.85 1.24-.9.67-.74.42-.75.45-1.35.72-1.66.33-1.13.2-.4 1.07-.85-.3-.74-.11-3.06-.3-2.49-1.15-.58.88-1.31.23-.48.42-1.46.08-.93-.1-1.52.04-.73.27-1.37.48-1.75.6-1.48.89-1.59 1-1.2 1.54-1.08 1.17-.97 1.34-1.58 2.52 1.6 1.3.96.39.45.43.07.68-.23 4.71-2.42.44-.04 1.14.15 1.9.35 1.15-2.07.07-.51.3-.18 1.43-2.54.56-.87.24-.14.64-1.33.94-2.09-1.3-.96-.83-.83-1.4-1.23-1.8-.73.44-1.36.53-2.48.25-2.47.02-1.23-.15-2.42-.27-1.4-.3-1.1-.34-.87-.7-1.2-.53-.57-1.78-1.37.4-.51-1-.64-1.74-.7-.07-.37-.89-1.1.53-.4-.67-1.44-.99-1.66.7-1.03-1.26-6.04.01-6.4.06-3.25-1.93-1.14.45-1.14.3-1.15.2-.3-.06-.52.5-1.5.25-3.06-.05-1.76-.16-1.54.18-.04-.16-1.46-.38-.24-.16-.96.5-.1.22-.3.12-.88-.17-.7-.5-.46-.67-1.63 1.6.73.26-.42.34-.1.96.05 1-.25.43-.77-2.2-1.52.59-.58 1.32-.58 3.32-1.19-.06-.14 1.22-.57v.76l.48-.04.39.39 1.27-.54.3.64 2.1.16.27-.41 2.56-1.57-.84-1.45 1.16-.64-.57-1.18 1.1-.39.68.17.5.34.6.6.46.27.5.08 4.75-1.48.06.25 1-.36.68 1.88.94 2.22.7 1.5 1.36 2.56.6.88-.07.1 1 1.34 1.43 1.56 2.3 1.97.93.72 1.67 1.08 2.19 1.33.78.38 1.58.65.35 2 .4.87.27.22 1.7.46.03.77-.84 1.77-.28.24-1.93.66-.32 1.18.17.08-.29 1.76-.01.68.18.52-.17.81-.68.08-.7.67-.8 1.1h-.42l-1.39.63.47.14.82-.33.95-.23.1.5-.5.5-1.16.03-.62.34.89.37.86-.3.16.2.47-.46.27-.73-.13-1.15.78-.71.5.3.66-.73.18-.48-.15-.92-.01-.76.38-1.57.94-1.23 1.16-.74 1.15-2.21.28-.87.67.07.02-.3-.73-.07-1.55-.66-1-.64-.22-.97.33-.4 1.7.02.01.52 1.01.15.25-.46.78.05.8-.06-.02.32 2.08.03.63-.3.83.04-.09-.44 1.3-.22.03-.34 1.67-.47.2.47 1.14-.42.12.07 2.52-1.38.51-.36.3.16 1.33-.74 1.53-1.2-.32-.49 1.16-.37.17-.5.72-.3.85-.67 1.13-1.78.65-1.31.22-.18.25-.95h.17l.32-1.63-.1-.99.15-.05-.12-1.68.28-.92-.34-1.34.03-.84-.49.17-.45-1.43-.2-.93-.51-.45-.04-.25.36-.52-.12-.74-.33-.59-1.36.5-.9-2.2-.5-1.94.38-.13-.64-1.67.23-.07-.2-.87-.35-.07-.28-1.5-.09-.88-.04-2.2.51-.03.03-1.3-.22-.53.4-1.24.44-.79.83-.9 1.13-.98.59-.37 1.26-.52.98-.17.95.07.7.24 1.22.79.9 1.09.97 1.37 2.08 2.82 2.75 3.95 1.87 2.43 1.6 1.5.24.75.53.75.75.72.82.48 1.39.93 2.75 1.36.07-.22 2.9.81-.16.84.48.13.38-.67 1.7.41.08.27.68.15 1.99-.04 1.66.17 2.3-.29.1.18 2.26-.68.81-.11 1.75-.42 2.34-.7.76.1.83-.12.34-.34.98-.15 2.68-.63 1.2.04 5.27.47 4.08.33 8.37 1.06.46-.07 1.3.06.05.77h.32l-.01-.7 5.14-.38.13.25.78-.13 1.17-.31 1.16-.04 4.4-.5 1.8-.3 2.87-.67 3.76-1.1.2.3.71-.02-.12-.62 1.23-.8 3.71-2.76 1.7-1.41.17-.2 1.65-2.7.8-1.16 2.63-4.76.49-.27.64-.58.4-3.02.6-.57.98-1.21 2.6-3.52.68-1.27 1.27-.15 1.25.08.51.18 1.42-.5 1.81-.53 1.49-.2 1.98-.15 6.51.46.06.1 1.29-.05.03-.12 2.35-.25 1.36-.2 4.09-.84 2.85-.73 1.62-.47 2.17-.75 1.32-.51.38.76.05 1.8.15 3.13v1.18l.17 3.35-.03 2.18.04 2.15.09 1.36v3.29l.06 1.1.07 6.5.05 2.2.1 1.9.08 4.97v2.37l.12 2.97.11 1.5.1.47-.08 1.91.08.78.51 2.3.15 1.06-.01 5.36.2 1.7.33 1.16 1.96 8.4-.86-.96-1.98-1.49-1.23-.76-1.94-.4-.75-.37-1.62 2.17-1.69 2.76-.73 1.07-1.2 1.09-1.22 2.46-.52.8-.7.76-1.37-1.43-1.26-1.77-.92-.97-.59-.9-.3-.73-.66.25-.72 1.14-1.06.72-.62-.86-.53.42-.36-.53-.48.59-1.3 1.17-.29.05-.8-.67-.55.86-.36-.04-.32-.6-1.45-.8-1.14-.34-1.2-.1-.24.65-.82 1.14-.3.7-.2.11-.43 1.65-1.82-.11-.95.1-1.23.54-.56.6-1.37.85-.52.68.1.18-1.6 1.65-.93.85-2.42.89-1.47.99-.78 1.37-.36-.04-.55 1.35-1.32 2.93-1.1-.3-.12.43.01 1.36-.06 1.1.05.9.47 1.43.02 1.2-.35 2.02-.1 1.93.06.74.24.85.47.97-5.02 1.03 1.16 1.4.16-.13.8.76 1.18.86.93.47 2 .88 2.12.8.38 1.64.1 1.36.18.68.56 6 .13 1.61-.04.48.29.92.44.89.5 1.59.25 2.2-.04 1.33-.29.72-.49.63-.08.66-.56.56-.61.26.25 1.2.5 1.45.53 1.28-1.25.02-1.9 1.18-.43-.5-1.35-1.27-.48.49.34.42-.32.43 1.88 1.57-1.92 2.45-1.2 1.45-1.1-.85-.97 1.51.2.14-.73 1.5-.94 1.17.3.3-.42 1.06-1.03 1.84-1.5-.82-1.88 1.94.81.95 1.01.96-.72.75.59.87-.87.71.5.63-.22.5-1.47 1.68.82.3-.6 2.2-.63-1.25-1.16-.54-.34.75.51.23-1.46 2.5-.71.97-2.02 1.82-1.65 1.65-1.9 1.68-.63.73.21.61-2.2.76.07.2-.7.27.3.6-1.08 1.12-.22.36-.48.31-1.46.71-.44-.62-.52-1.93-.3.04-2.42.89-2.62-2.98-1.85-2.59-1.1-1.76-1.15-2.28-.91-1.6-1.31-1.97-2.13-2.26-1.74-1.97-1.88-2.82-.47-.78-.77-1.08.04-.73-1.89-2-.33-.17-.7-1.69-.63-1.6-.27-.34-1.2-1.04-.98-.96-.36-.53-1.18-.66-.61-.22-.83-.64-.72-.26-1.2-.88-.52-.11-1.86-1.51-.16-.39-.77-.43-1.29-.52-.52-.12-.44-.31-1.14-.26-.89 4.17v.7l-.58.51-.6 1.94v.5l.36 1.55-.08 1.12-3.34.8-.03-.14-1.39.38.12 1.95.28.83.3 2.06.43-.57 1.77-1.08.53.01 1.17.27.35 1.76.11 1.56-.04.58-.53.63 1.56 1.25.32.44 1.44 1.06.92.41.07.47.27.43.92-.65.56 1.01 4.74-3.12-.25 2.13.04 1.6.23.79.13 1 .22.78.34 1.95.04 1.85-.6.45.03.36.72.02-.03.79.21 1.24.19.01.2.8.12 1.38-.02 1.32-.43.07-1.42 2.05-1.52 2.26-1.45-1.42-.46-.53-.95-1.33-1.5-1.33-.4-.26-1.13-1.1-1.08-.68-.41-.4-.44-.7-1.35-1.37-1.45-1.71-1.37-1.27-.77-.48-1.12.87-.88.52-.62.73-1.1.72-.9.73-.44.5-1.1-.12-.61-.26h-1.09l-.5.18-.83.1-.51.24-1.38 1.07-.45.08-1.85-.01.34 1.79-1.05.28-.2.74-1.32.97-.49.25-.23.67-.75.4-.35.42-.86 1.49-1.54-.86-.7-.2-.86 3.16-.59-.22-.13 1.06-.52-.15-.3.62-.24 1.16-.73 1.45.34.34-.22.28.16.6.25.3-2.58 2.1-2.1-2.18-.77.53-1.36 1.2-.15.3-.17 2.18-.63.44.15.37-3.14.48-.23.19.37.97-2.03.87-.6-1.7-.03-.58-.56-.46-.67.08-.13.95.06 1.58-2.2.59-.52.33-.38.57-1.54.61h-1.54l-1.97-.09-.9-.1-.34-.51.3-1.92.18-.32-2 .17-1.24.04-1.3-.13.16-1.3-2.86-.44-.51.04-1.21-.97-.56-.53.54-1.04-.97-.47.69-.6.7-1.06.13-.79.04-1 .26-.73.28-.38-1.06-.97.86-.9-1.56-1.61-.4.4-.66-1.26-.65-.95-.85-.82-1.26-.6-.36-.53-.24.26-1.4-1.01-.73-.64-.12-.4-2.62-1.8-.37-.12-1.87.32.21 1.57-1.39.05-.16.07-1.31-.2.01-.66-.77.17-3.09.03-1.17 1.97-1.25-.47-.93-.18-.89.1-.76.8.12.33-1.5.81-.16-.34-.96.47.16.48-3.08 1.02.03-.5.3-.32-1.45-.12-1.56.03-1.44.2-1.15.34-1.23.09-.04-2.03-3.52-.27-.44 1.5-.81-.1-1.13.03-1.58-.38.05-.19-3.96-2.27-.02-.62-1.05-.63-1.34-.33-1.14-.05-.13.49-.4-.3-1.15-.2-.26.5-2.3-1.44-.81-.32-.23.72-.86-.53-1.33-.6-1.76-.18Z" candidates="[{&quot;candidate&quot;:&quot;0&quot;,&quot;count&quot;:1,&quot;margin&quot;:0}]"/>
    <path region="8" short-name="Havering and Redbridge" long-name="Havering and Redbridge" value="1" d="m792.36 342.62.26-1.66.03-1.5.85-3.95.79-2.58 1.03-3.05.18-.86 1.06-3.77.12-.72-.13-.87.58-1.86.26-1.44.57-1.23.3-.91.08-.62.37-.71v-.96l.5-1.1-.02-.55.78-1.3.5-1.48.37-.13.16-.38.54-.52.03-.43.41-.74.77-.55.42-.8.27-.75.39-.16.44-.7.58-.55 1.43-1.75.38-.33 1.01-2.2.34-.93-.03-.74.14-.67.27-.52.4-1.19.65-1.06.95-2.17 1.3-1.7 1.74-1.36 1.11-.6.83-.08.93-1.12.4-.33.5-1.95.07-.86-.13-.36.02-1.12.21-.55v-.62l.23-.33.09-.72.54-.98.8-.87.55-1 1.05-1.13 2.8-2.19 1.02-.46.66-1.36.83-2.7.2-.27.3-1.32 1.7-1.8.36-.46.44-.13.15-1.02.57-1.26-.62-.9-.58-.35-.66-.6-.13-.44-.8-.58.25-.38-.5-.2-.15-.34.26-.4-.4-.95-.44-.38-.2-.52-.45-.13-.27-.48-.42-.37-.5-.14-.62.07-.23-.5.34-.35-.31-.42.09-.32-.5-.82-.01-.62.2-.64-.03-.75.27-.33.06-.68-.12-.32.05-.88-.27-.69-1.13-.67-1.14-1.42.17-.65.98-2.43.46-1.79 1.38-1.67-.08-.2.09-1.26-1.98 1.67-1-.18-1.27-.14-.54.12-1.1-.26-1.37-.11-1.11.03-2.45.36-2.64-.66-.47-.04-.64.41-.89.12-1.03.39-2.14 1.22-.53.43-.78.41-1.37.2-.97.3-.82.58-2.68 1.6-1.8.99-.63-.56-.78-.35-.23-.58-.5-.45-.35-.87-1.02-.86-.85-.92-.24.06-1.53-1.45-.44-.55-.87-.45-.58-.53-.52-.64-2.72-3.04-.7-.67-.6-.42-.5.51-.92-.2-.36-.4-.5-.03-.7-.96-1.63.1-.3-.39h-.42l.07-.45-.21-.78 3.68-.54-.1-.77-.44-.33-.2-2.22.16-.04-.35-3.37-1.27.22.17-.38-.02-2.02.22-1.56-.2-1.1-1.25.18.06-1.33.24-2.96.1-3.04.15-2.42 1.11.08.74-1.58.77-1.48 1.15-1.34.36-1.33.21-7.5.1-2.73-.13-1.89-.6-2.23.15-2.43.05-1.6.13-.72.14-1.8.19-1.37-1.56-3.12-2.08 1.38.1-.8-.58-.05.57-3.42.05-.7-1.91-.91-1.1 1.12-4.38 4.28-.82.88-2.88 2.82-1.49 1.5-6.48 5-1.81 1.42-1.18.87.54 2.03 1.17 2.8-1.33.35-1.63.5-2.52.66 1.16 4.37-.16.95.49.09.5 1.97-.12 1.16-.22.22-.02.96 1.74.22 3.92.38.77 1.23.41 1.34-3.23 1.15.2 1.36.48 2.05.01.44.27.48-2.12 1.11-.77.35.13 1.34-.01 1.6.17 1.56.78 1.68.9-.59.86 2.97-1.96.55.1 1.42.51.3-.06 1.2-.38 1.26-.43 1-.1.83.15 1.27-.28 1.65-.23.72-1 .09-.59.25-.6.5-.95 1.43-.8.68-.55.62-.92.77-5.66 1.74-1.09.42-.19.64 1.04.45-2.69 6.34.9.46 2.67.73-1.84 2.27-2.14-.08.03.95-4.53-.81-.23.93-.49.59 1.64 1.33.06.38.67.56-2.84 3.51.03.92-.52.65-.96.34-3.2-.41-.16 1.22-.6-.06-.39.16-1.48 2-1.08 1.2-1.24.98-1.88.77-.48.35-1.8.87-1.15.64-1.55 1.3-1.1.82-1.1.6-1.11.77-1.77.95-.75.47-.32-.47-1.18-4.83.02-.5.4-1.44-.7.45-.38.58-.23.8v.77l-.76.14-.42.46-2.69.48-2.32.5-.67.34-.6.54-1.27.94-1.53.89-.8.72-.59.12.07.5-.37.38-.75.24-1.38.72-1.62.66-.38.47-.52-1.03-.52.35-.49-.16-1.28.87-.75.22-1.3.18-2.21-.02-.18.47-.8-.37-1.66-.57.03-.28-.26-1.63-.03-1.29.14-.81-.03-.61-.34-.66-.1-.59.17-.7-.45-2.1v-1.21l.32-.93.2-1.13-.09-.35-.66-.89-.24-.69-.15-1.51-.15-.78.06-.55-.12-.95-.63-2.67-.88-2.14-.9-1.54-.12.23 1.12 2.04.55 1.63.27 1.01.24 1.3.26 1-.02.87.16 1.83.27.9.78 1.24v.4l-.47 1.3-.11 1.27.17 1.34.33 1.31-.15.41.09.84.35.7-.19 2.47.27 1.14-.1.66-.3-.25-.93-.3.28-1.34.17-2.3-.12-1.7.13-.6-.18-1.34-.22-2.12-.24-1.8-.12-1.59-.17-1.42-.16-2.25-1 .06-.16-1.41-.27-1.83-1.08-1.56.14-.21-.99-1.43-.27.15-1.35-1.86-2.53 1.18-1.54.5-.5-.5-.24-.54-.41.1-.2-.47-.29-.09-.52-.78-.24-.55-.45.05-.57-.27-.32-.43.02-.56-.39-.31-.45.22.03-.59-.86-.93-1.13-.35-.39-.65.1-.76-.3-.42-.06-.62-.75-.46-.35-.72-.56-.28-.24-.32-.93-.56-.4-.45-.87-1.9-.38-1.27-1.98.93-5.84 2.9-2.11 1 .2.6.53 2.53.34 1.38.23 1.2-.21.16.76.56 1.07.98.3 1.3.47.9 1.24 2.11.22.6-.17.29-4.92-.42-.57.19-1.65-.11-4.74-.44-.9-.02-1.5.44-2.11.82-3.39.49-.82-.15-2.4.3-1.63.37-.07-2.83-1.8.04-.24-.69.01-1.17-.17-.47-.43-.24-.58.34-.11 1.01-1.36-.23-.98.15-.19-.11-.33-.4-1.22-1.81-1.52-1.88-.73-.73-1.01-.82-1.07-.36-.74-.04-.66-3.6v-3.15l.15-2.69.16-1.56-.03-.74 3.24-.01.7-.15.69-.43.4-.45.4-.94-.01-.6-.53-1.7-.17-.87-.89-3.24.8-.2.59.47.35.03-.3-4.77-1.03.63-.27-.56-.56-.69-1.15-.45 1.24-2.86-.08-2.8.11-3-.94-3.3-.29-.25-1.35-4.55.52-.3-.35-.65-.15-.58.16-.41.14-1.26-1.66-.05-.87-.72-.11-1.48-.29-2.75-.23-3.06-.38-4.18-.03-1.07-.12-.74.08-.98-.21-.34-.02-1.08-.2-.26v-1.03l.1-1.31.43-3.77.09-1.07-.02-.93.23-2.46.13-2.6.6-1.59.87-2 .8-1.58 2.64-5.88.46-.95.65-.88v-.45l1.34-3.32.37-.01-.23-.84.28-.05.22-.86.63-2.03.21.13.38-.87-.09-.2.26-.63.26.1.38-1.13-.07-.55.06-1.16-.15-.45-5.9-8.73-.54-.39-2.7-1.31L617 140l-2.3-1.04.42-.2.74-.02.3.21.5-.06.42.3.22-.18.7-.1 1.4.06 1.6.35.6-.03.26-1.23-.19-1-.29-.44.37-.21.72-.78.69-.17.23-.51.33-.3-.2-.33.08-.52.9-.3.19-.32-.11-.46.66.07 1.05-.94.42-.95-.41-.35.5-.43-.33-.65.46-.45.03-1.07.53-.95-.01-.7.4-.4.31-.58.09-.72-.26-.34v-.46l.76-.61-.11-.73.2-1.03.57-.28-.27-.72.54-.45.53.37 2.54 1.88.74.62 1.54 1.53.95 1.37.53.38 1.07.27 1.24 1.07-.15.81.42.07.32.8 1.35 1.11-.24.66 1.12.36 1.55 1.64 1.48 2.21.32.6 1.4 1.52 1.06 1.39.8 1.22.5.53.08.81.24-.04.82.76 2.1 2.12-.23.6.83.42.22.39.45-.7.7-.63 1.23-.78 2.98-.89.86.04.06-.3 1.04.06.92-.11.1-.2 1.4-.48 1.78-.42 2.92-.84.73.28.8 1.25-.25 1.08.12.4-.17.34-.76.6-.34.01-.9-.78-.9-.05-.4.3-1.34.41-.63 1.05-1.11 1-.51 1.4.06.63.2.54-.5.7-.06.45.2.35.4-.59.3-.15 1.48.92 1.81 1.32 1.22.77 1.72 1.48 2.86 2.23 1.12.75 2.21 1.6 1.64 1.07.53.66.75.53.94 1.13.5.28.46-.4.75-.2 1.66 1.11.65.62 1.59.37.93.27 2.64 1.4 2.3.78.67.3 2.78-1.72 1.33-1.05.73-.51 2.26-1.13.41-.1 1.03.12 1.75.38 1.53.7.46-.12 1.51.23.49.36 2.14 2.82.54.43 2.1-.74v-.63l.84-.63.99-.27 2.5-1.03-1.02-2.45.19-1.4.92-2.4 1.26-.53.42-.56.2-.62v-.54l.7-.23-1.33-3.08-.42-.75-.63-.84-.64-.67 1.61-.76 2.89-1.56 1.25-.45 1.1-.75 2.49 5.14 1.67-.64 2.17-.75.5 1.72 2.59-.96 1.22-.42 3.06-1.3.32-.25 4.2-2.79 3.87-2.61 2.24 2.96h.82l1.23-.73.63-.59 1.39-.95.57-.3.94-.77.69-.44.61-.6.69-1.21.22-.91 1.08-1.65 1.17-.53.38-.32.78-.38.6-.6.36-.18.37-1.42 1.2-.32 1.29-.7 1.1-.45 2.32-1.8 2.28-.85 1.42.02 3.05.23 6.1.28 5.71.22 3-.13.46-.08 2.91-.06 1.52.14 5.07.89 2.05.44.3-.4 1.99.46 1.21.2.85.29 2.25.93.95.73.92-.56 2.54-1.3 3.05-1.66 1.07-.62 2.24-.59 1.73-.6 2.06-.5.26-2.4 1.25-.23.57.01.75.24.46.43.33.03.85.44 2.09 1.68.4-.36-.32-1.83 2.8.2.52 1.03.7.73.18-.4.02-.57.3-.2.96-.06.67-.25 1.78-.43 1.51-.16.95-.26 2.62.28 3.94 1.2 2-.17 1.73-.22 2.35-.94.82-.48.75-.7 1.8-.75.53-.12 2.51-.05 1.65-.46-.17-.4.54-.18.85-.66.47.12 1.44-.82 2.27-1.56.87-.54 1.02-.36 1.66-.76.77-.14 1.92-.7.93-1.07.88-1.15.57-.86.7.6 1.7 1.65 1.37 1.5 2.22 1.65.76.65 1.6 1.54 1.19 1.02 1.16 1.17 1.02 1.32.84.66 1.52 1.39 2.54 1.84 1.58 1.45.7.37 1.74 1.09 1.07.84 1.15.78 2.33 1.67 1.2.63.42.32 4.22 2.72 2.26 1.78 1.3 1.24.91.97 1.45 1.88.38.4 1.75 1.6.72.75.53 1.9.53.7.54 1.02.9 1.16 2.17 2.92 1.42 1.63.79.3.71.5.54 1.05-.37.52.1.41-1.44.98-.97-.29-.99.11-2.1 1.18-1.9.55.18.9-.1 1.75-.32.5-.77-.2.03.65-.33.73-.47.31-.13.51.19.38-.34.5h-.45l-.05.53H907l-.26.62-.35.2-.43-.1-.03.57-.47.02-.03.62-.34.37.13.5.95.5 1.21.25 1.46-.15 1 .02.31.24.09.44 1.56.55 1.55.46 1.66.7 3.61.61 1.52.06 1.12.18 1.83.06.92-.06.53 2.32.07 1.26-.13 1.24-.16.85-.47 1.19-.44.9-.04.44.27 1 .2 1.1.15 1.57-.07.71.15 1.4.42 2.18.69 1.31.57 1.27-.1 1.2.74 1.66.25.95.43.56 1.34.88.3.34.93 1.53.2.5.68 1.26.3.29 1.15 1.69-.05.1 1.08 1.66.37.71.95 1.42 1.54 2.14 1.6 2.64.65 1.25.29.02.07.52.48.94.86 1.93 1.18 3.04.98 2.43.68.6.64.2.26.44.33-.1.42.95.16.61-.01 1.18-.54.91.12.61.46 1 .5 1.57 1.22 3.61.52 1.93.26 1.2.6 1.88.6 2.24 2.1-.33 2.94-.36 5.83-.6.9-.05.3-.17 2.11-.11 2.73-.27-.03-.2 1.98-.24.02.18 4.45-.35 3.6-.4.34 1.67.21 1.96.25.33.51 1.94.12.77-.13.24.2.6.34 2.1.22 2.9.26.32.2 1.9.15.49.4.33 1.03-.05 1.5 1.05.8.67.1.47.2 2.2.24.36 2.13 1.11 1.55.72.09.47v1.32l.14.8.27.23 2.13-.58h1.1l.53 1.07 1.26 1.62 1.36 1.23.16.97.07 2.81-.03.86.8 1.35.28 1.23.68 1.22-.67 1.39.17.07 1.97-.26.87-.01.53 1.16 1.4 2.88.98 2.52-.67 2.35.58.15.26.98-.02.31-3.08.88-.02-.68.21-.76-.43.07-3.97.08-1.61.14-2.12.03-1.4.15-2.38.1-2.09.33-3.37.46-.04.17-1.91.2-.99-.06-1.65.24-2.98.28-.02.58-.56.1-3 .25-1.33.15-.03-.1-2.15.24-2.23.2-2.3.28.17 1.18-2.26.45-2.07.45.25 1.8.37 2.07.03.6-3.37.48-1.07.23-1.3.14-2.92.4.1.33-.78-.14-1.8-.01-.82.08-1.17.37-1.36.22-1 .06-3.45.46-1.17.31-1.44.5-1.36.35-2.45.77-.14-.48-.94.34-.9.11-1.43-.34-.96-.16h-.61l-1.7.21-1.2.28-2.39.9-1.96.51-.79.1.14 4.91v1.8l.05 1.52-.05 4-.1 1.38.12.51.43.3 1.07.13.01 1.3-.14 1.66-1.93.1-.89 2.4-.22.82-.16 1.77-.08 3.1-.22 1.49-2.39-.17-1.33-.74-.9.17-.4.46.03.4-.79.07-.23-.14-1.3-.04-.76.16-.53-.07-.6.26-1.3-.13-.88-.28-.28.02-.18-2.82-.3-1.23-.06-1.28-.29-1.27-.57-1.94-.26-2.25.06-.9-.18-1.45-.17-.55-.62-1.19-.16-.5-.03-1.68-.1-1.26-.29-.89-.38-1.6-1.82.16-.42.11v1.41l-.1 1-.7-.27-1.02.88-1.19.91-.21.54.9 1.7.08.77-.45 1.43-.55.5-.46.95-3.54-1.66-.13.67-.87 1.46-1.15 1.27-.46 1.6.1 1.06.53.1 1.2.42 1.08.2.91.34.5.34.44.61-.52.74.36.47.5.93-.12.57-1.09.74-.85-.27-2.55-1.16-.7-.38-.66-.19-2.37.03-.87.07 1.17 2.94 1.45 3.36.18.64.68 1.47.38.5.84 1.73-.38.59-.77.22-.24.5.23.95.15 1.29.1 1.79.2.8.79-.04.27.23.48 1.6.23 1.84-.03.95-.11.29-2.28.48v.6l-.18.22-.89.07-4.31.56h-.98l-1.4.52-1.47.09-.4-.12-1.27-.05-.95-.16-1.23-.01-2.65.36-.2.2-.18 1.1-.43.34.43 1 .24.92.02.48.97 2.03.45 1.79 1.08 2.8 1 2.06.47 1.07-1.2.33-1.24.63-.36.27-1.48 1.37-1.14.8-1.3.5-.79-.98-1.55.12-.79-.08-.67.15-1.68.53-.23.34-1.3.33-1.6.98-1.27.24-.4-.32-.77.33-.74.73-.22.06-.72 1.95-.56-.02-.26 1.22v2l-.1.42-.34.41-.47 1.38-.08 1.49-.1.65-.58.27-.13.81-1.07.54-.97.84-.18-.2-.7-.03-.52.37-1.03.02-.37.26-1.03.08-.67-.13-.97.11-2.33.53-1.02-.03-1.35.18-1.43.47-1.18.22-.76.44-1.08.3-.88.14-.2.34-1.39.23-.31-.3-.94.22-1.26.02-.4.17-.58-.24-.93.02-.92.42-1.77.31-1.33-.16-.54-.24-.01-.88-.27-.5-.3-.04-.52-.67-.18-.46-1.19-1.75-.86-.93-.63-2.14-.55-1.1-.34-2.02.14-.92-.27-2.16-.19-.9-.28-.45-.5-.26-.07-1.37.9-.66-.3-.42.1-.85-.3-.51.08-1.38-.73-.59.15-1.01-1.76-1.9-.83-1.6-.08-.58.18-.34-.08-.84-.38-.61-.95-2.73-.53-1.24-.13-1.26-1.27-1-.49-.72-.96-1.15-1.34-1.28-1.76-1.44-1.33-.11-.77-.33-1.61-1.25-3.17-1.8-1.9-1.16-.18-.23-.94-.57-.18-.26.06-.52-.45-.4-.57.16-.64-.06-.32-.49-.81.16-.54.35-.16-.31-1.72.21-1.04-.13-.56-.33.13-.76-.48-.08z" candidates="[{&quot;candidate&quot;:&quot;1&quot;,&quot;count&quot;:1,&quot;margin&quot;:0}]"/>
    <path region="9" short-name="Lambeth and Southwark" long-name="Lambeth and Southwark" value="1" d="m566.03 379.01-.99.36-.06-.25-4.75 1.48-.5-.08-.46-.26-.6-.61-.5-.34-.67-.17-1.11.39.57 1.18-1.16.64.84 1.45-2.56 1.57-.28.41-2.08-.16-.3-.64-1.28.54-.4-.4-.47.06v-.77l-1.22.57.06.14-3.32 1.19-1.32.58-.59.58 2.2 1.52-.43.77-1 .25-.96-.04-.34.09-.26.42-1.6-.73.68 1.63.49.45.18.7-.13.9-.23.3-.5.1.17.95.38.24.16 1.46-.18.04.16 1.54.05 1.76-.25 3.06-.5 1.5.06.53-.2.3-.3 1.14-.45 1.14 1.93 1.14-.06 3.25-.01 6.4 1.27 6.04-.7 1.03.98 1.66.67 1.45-.53.4.9 1.1.06.36 1.73.7 1 .64-.39.51 1.78 1.37.54.57.7 1.2.32.86.31 1.1.26 1.4.16 2.43-.02 1.23-.25 2.47-.53 2.48-.45 1.36 1.81.73 1.4 1.23.83.83 1.3.96-.94 2.1-.64 1.32-.24.14-.56.87-1.44 2.54-.3.18-.06.5-1.15 2.07-1.9-.34-1.14-.14-.44.03-4.71 2.42-.68.23-.43-.07-.39-.45-1.3-.95-2.52-1.61-1.34 1.58-1.17.97-1.53 1.08-1.01 1.2-.88 1.6-.61 1.47-.48 1.75-.27 1.37-.04.73.1 1.52-.08.93-.42 1.46-.23.47-.88 1.32 1.15.58.3 2.49.12 3.06.29.74-1.08.85-.2.4-.32 1.13-.72 1.66-.45 1.35-.42.75-.67.73-1.23.91-1 .84-1.1.6-1.39.43-1.63-.04-.37.13-.45.43-.97 1.58-1.55 3.05-.24 1.81.36 1.3.55 1.26.4 1.76.07.7-.54.21-.57.46-.94 2.13-1.1 2.82-1.2 2.82-.87 2.18-.25 1.36-1.38.3-1.04.01-2.07-.17-1.17.2-2 .6-1.38.14-.52-.14-1.35-.77-.82-.59-1.08-1.42-.64-.6-1.1-.65-1.1-.87-.64-.8-.5-.36-.84-.35-1.08-.18-2.18.12-1.57.3-1.03.05h-2.83l-4.09-.14-1.86.14-.85-.08-1.62-.47-1.57-.52-.47-.06-1.05.07-2.6-.22-.4.62-.94.88-.31.7-.92 1.64-1.24 1.43-2.22 1.23-.8.7-1.65 1.23-.24.95-.75 2-1.05 1.92-.16.47-.92 1.32v.52l-.6-.05-.5.64-.78.2-.38 1.15-.19.8.1.42-.56.14-.77.72-.23.53-.56-.57-1.39.84-.38.33-.16.59-4.99-.55-.73-.1-1.01-.44.26-.58-.27-.1-.2.52-.42 3.17-1.08-.42-.55-.01-1.39-.45-1.72-.66-.67-.37-1.6-.7-1.4-.74-1.63-1.11-.53.35-1.63 1.27-.55.19-.36-.3-1.93-.03-1.53-.58 1.2-1.78 2.24-2.1 1-.83-.79-.86 2.32-2.51-.25-.27 4.45-4.96 1.17-1.34.79-1-.53-1.75-.26-1.13-.41-2.27-.08-1.8.07-2.52.45-4.23.15-3.14-.04-1.1 3.63.56.08-.14-.71-3.1-.7-3.54-.56-.2-1.1.3-1.48-1.97-.64-.95-.13-.67-.25-2.31.28-.8.73-.77.72-.41.82-.94.37-.77.12-.5.14-1.47-.28-.46.18-.45.42.16.25-.65 1.02-2.25-.1-.43-.86.39-1.34.2-1.37-.01-4.41-.13-1.01-.13-.46-1.55-.7-1.99-.65-1.45-.54-1.76-.11-.9.13-.18.17-1.71.32-1.52.45-1.68.17-.3 1.22-1.15.94-1.43.45-.95.14-.82-1.52-.33-1.2-.6-3.68-1.63.42-1.19-.33-.02-.15-1.68-.21-1.68-.02-.73-.21-2.44-.25-1.81-1.01-2.88-.2-.92-.34-3.58-.45-1.19-.4-.73-.48-1.51-.2-1.5-.03-.74-.29-3.15.9-.18-.1-.66-.1-1.78.03-.67 1.4-.76 3.93-2.5 3.57-2.26.5.87 1.4-1.17-.34-.44 1.7-1.3.57.51.66-.36-.34-.42 1-.5.09.26.75-.51 1.33-1.83.79.74.55-.02.52-.3.65-.87.29-.23.11-.98-.9-.61.43-.73.89-1.16.06-.52.49-1.31 1.88-4.18.22-.34.55-1.52.5-.65.73-1.52.21-.2.29-.98.92-.55 1.98-1.05.4-2.54.13-.52.81-1.59-1.61-.49-.53-.02-.33-.6 1.29-1.02.73-.77 1.6-1.97.58-1.19.64-.59.43-1.03.25-1.26.91-2 .74-2.04.55-2.2.7-3.66.55-3.37.3-2.32.74-6.69.23-1.54-.1-.13.22-1.2.39-2.78.38-1.55.83-2.02.63-1 .98-1 .19-.31.88-.69.8-.44 2.13-.88 2.56-.68.29.04.47.43 1.98-.53.35-.22 2.2-.23h2.7v.44l.67-.05.07-.2.91-.14h2.14l1.84.1.13.1 5.1.32.92.52 1.57.7 2.21.8.65.29 3.37.53.46-.07 1.2.21.6.43 1.9.08 3.8 1 1.51.57.97.51.2-.06 1.79.86-.01.22 2.13 1.02.87.23 1.89.94.85.32 1.02.8.43.09.9 1.05-1.24 1.14-.19.7-.45.56-1.16 1.08.08.14 1.45-1.22.5-.7 1.06-1.11 1.2.47.96.22 1.64.84.42-.1 2.75.95.17.24 1.16.2.01.21 1.56-.2 2.62.07 1.23-.03 2.47-.34 1.46-.52 1.01-.58.1.08 1.08-.84.44-.09 1.67-.73.17-.23 1.62-.9 1.58-1.6.66-.6-.28-.37.6-.54.58.28.24-.76 1.04-1.12.38.44.32-.32.09-.53.92-.84.34.37.23-.43-.1-.72.93-.94 1.65-.57 2.32-.48 1.41-.02 1.75.16 1.36.33 1.65.55.99.48.78.57.74.8.43.75.6 1.51.05.6.37.19.16.43V360l.15 1.2v1.42l-.08 1.1-.05 1.86-.5.07.2 1.41.15.05-.16 2.6-.27.02-.15 1.88.37.03.14 1.71-.45.26.42.52-.2 1.68.22 2.13.23.86z" candidates="[{&quot;candidate&quot;:&quot;0&quot;,&quot;count&quot;:1,&quot;margin&quot;:0}]"/>
    <path region="10" short-name="Merton and Wandsworth" long-name="Merton and Wandsworth" value="1" d="M453.12 532.46h.26l-.33.88-.45 1.74-.34-.15-.15.43-.9 1.75-.13.55-2.14.13-.04.56-.92.08.16 1.36-.62.1.2 2.8.76 2.99.27.29-.13.42.26 1.5.78 1.1.23.67 1.9 1.69.64.88.7.81.84 1.54.96 1.41 1 1.83-.4 1.23.52.07.76.34.1.5.47.4-.44.4-3.05 3.97-.96 1.1-2.1 2.06.67.35-.55.82-.79.56-2.17 1.4-2.03 1.4-.69.72-.7-.04-1.77.94-.49.17-1.37.22-1.24.58-.74.2-1.13.13-1.47.7-.2-.4-1.32-1.58-1.41-.53-2.8.47-.45.33-3.79.61-4.61.67-4.05.71-.5-.1-.29.4.02.4-.5-.12-1.18.59-.78.6-.74.87-.93-.6-1.23-.04-.08.17h-1.05l-.38-.13-1.43.3-.9-1.69-.36-1.4-.25-.25-.69-.21-.54-.4-.65-1.09-.72-.63-.55-.22-.77-.6-.11-.62-1.39-1.33-2.05-.43-1.72-.98-.64-.48-.87 1.1-2.47 3.27-1.4 1.92-1.16 1.16-.2-.2-3.19 2.97-1.59.6-.56.39-1.11.95-1.85 1.49-1.64 1.5-.69-.74-.68-.09-.2-.48-.46.01-.24-.43-.92-.9-.66-.47-.23.26-1.6-1.77-.47.38-.41-.39-1.53 1.42-1.52.7-1.58 1.22-1.97 1.42-1.16.9-2-2.46-1.57-1.97-1.79 2.15-2.7-1.9-.66-.67-1-.7-.93-.44-.35-.4-.41.51-.18.59-.3.25-.6 1.01-2.03 3.11-.72.7.46.37-.61.56-.54.7.18.19-1.12 1.62-1.38 1.88-.45.72-1.39 1.9-.8 1.27-.26-.07-.94-.83-1-.22-1.19-.64-4.25-2.95-3.73-2.5-1.36-1.3-1.86-1.84-4.1-4 .3-.2-.54-1.3-.31-1.54-.12-1.44-.2-.88-2.08.69-2.63.97-.72.48-.55.22-.22-.85-.29-2.24.03-.52-.6-1.64-.41-.2.17-.5-.41-1.38-.62-1.36-.42-.4-.55-.29-1.22-.2-.82-.32-.43-.29-.23-.6-.83-1.16-.81-1.38-.38-.8-1.1-1.6.55-1.06.23-.7.04-.85.17-.85-.08-1.1-.22-.95 1.36-1.78.54-.53.66-3.24v-1.56l-.24-.9-.2-1.42-.16-.49-.04-.79-.37-.97.21-.83-.54-.93-1.36-.44-.35-.4-.3-.94-.06-1.04.36-.47.14-.54-.4-1.85-2.26-7.54-.26-.71.07-.45-.34-2.78-.02-1 .32-1.8-.08-.86-.29-1-.59-1.38-.23-1.14v-1.13l-.2-.51-.2-1.2-.24-.83-.7-.95-.36-.26-.9-.28-.2-.2.04-1.61.57-1.8.2-1.4-.31-1.46-.66-1.16-.35-1.32-.59-1.43-.44-1.43.2-1.07.89-1.83 1.1-.78 1.36-1.96.2-.53.06-1.66-.22-1.25-.47-.73-1.46-1.15-.49-.7-.23-.83-.02-1.28-.17-.45-.56-.93 5.95-3.88 3.7-2.39 3.8-2.52 1.3-2.3-3.4-6.14-2.58-4.1-.76-1.26-2.32-1.78-6.76-5.3-4.88-3.85.18-2.01.73-2.55.76-1.92.45-.88.2-1 .4-1-1.46-.78 1.71-4.03.69-1.24.57-.8 1.9-2.26 1.2-1.08 2.2.03 1.91.25 1.56.02 3.65-.34 1.27.01 1.14.1 1.8.25 7.01 1.21 1.2.3 1.48.5-.4-3.26v-.64l.28-.43.7-.7-.67-2.05-.07-.82.41-1.97.25-3.02v-.92l-.16-1.48.49-1.1.6-.34 1.18-.08.37.1 1.32 1.07.47.18h.62l2 1.29 1.58.5.2.17 2.18.63.45-.26-.09-1.19.19.12.6-.5 4.35 5.4 1.92 1.94.73.63 2.52 1.9-.05.15 1.66 1.15.69.4 2.73 1.35 1.68.87 2.45 1.19 1.45.47 2.75.79 1.7.35 2.77.5.7-.16 4.19-.1.44.88.09.55-.04.92.16 1.13-.16.66-.05 1.32.29.18.93.12-.72-.69.07-2.1.95-.3-.57-.69-.56-2 2.95-.43 1.3-.24 1.37-.38 1.94-.6 1.31-.67 3.15-2 .1.16 1.15-.74.02-.28 1.9-1.96.72-.99.8-1.33 1.7-3.63.41-.54.55-1.4 1.2-4.59.1-.86.3-1.2.58-1.98.4.07.48-1.54.2-.2-.32-.55.38-.72-.15-.21.31-.79.74-1.52.88-1.35.93-1.08 1.11-.93 1.23-.64 4.34-1.52 2.3-.57.05-.2.87-.17.18.24 3.94-.84 4.34-1.01 4.65-1 1.29-.26.1-.13 3.04-.61 1.32-.33 1.26.01 2.22.16 3.18.72 4.03.84 2.36.1.87-.07.05.55.47-.02.28-.69.9-.3.3.04 1.33-.48v-.13l1.6-.6h.65l.75-.38.8-.73.72-.5 2.25-.88.44-.27.33.6.53.02 1.61.49-.8 1.6-.14.51-.4 2.54-1.98 1.05-.92.54-.29.99-.21.2-.73 1.52-.5.65-.55 1.52-.22.34-1.88 4.18-.49 1.31-.06.52-.89 1.16-.44.73.91.6-.11 1-.29.22-.65.87-.52.3-.55.02-.79-.74-1.33 1.83-.75.5-.08-.25-1.01.5.34.41-.66.37-.56-.51-1.7 1.3.33.44-1.4 1.17-.5-.87-3.57 2.25-3.92 2.51-1.41.76-.03.67.1 1.78.1.66-.9.18.29 3.15.03.74.2 1.5.49 1.51.39.73.45 1.2.33 3.57.2.92 1.02 2.88.25 1.81.2 2.44.03.73.21 1.68.15 1.69.33.01-.42 1.19 3.68 1.63 1.2.6 1.52.33-.14.82-.45.95-.94 1.43-1.22 1.14-.17.31-.45 1.68-.32 1.52-.18 1.71-.12.17.1.9.55 1.77.65 1.45.7 2 .46 1.54 1 .13 4.42.13 1.37.01 1.34-.2.86-.4.1.44-1.02 2.25-.25.66-.42-.17-.18.45.28.46-.14 1.47-.12.5-.37.77-.82.94-.72.4-.73.78-.28.8.25 2.31.13.67.64.95 1.48 1.97 1.1-.3.56.2.7 3.54.71 3.1-.08.14-3.63-.56.04 1.1-.15 3.14-.45 4.23-.07 2.52.08 1.8.41 2.27.26 1.13.53 1.75-.8 1-1.16 1.34-4.45 4.96.25.27-2.32 2.51.79.86-1 .83-2.24 2.1-1.2 1.78 1.53.58 1.93.04.36.29.55-.2 1.63-1.26.53-.35 1.62 1.1 1.42.76 1.59.69.67.37 1.72.66 1.39.44.55.02 1.08.42.41-3.17.21-.52.27.1-.26.58 1.01.44.73.1 4.99.55Z" candidates="[{&quot;candidate&quot;:&quot;0&quot;,&quot;count&quot;:1,&quot;margin&quot;:0}]"/>
    <path region="11" short-name="North East" long-name="North East" value="1" d="m630.23 120.36-.53-.37-.54.45.27.72-.57.28-.2 1.03.11.73-.76.61v.45l.26.35-.09.72-.32.58-.4.4.02.7-.53.95-.03 1.07-.46.45.34.65-.51.43.4.35-.4.96-1.06.93-.66-.07.11.46-.2.32-.89.3-.08.52.2.34-.33.29-.23.5-.69.18-.72.78-.37.2.29.44.2 1.01-.27 1.23-.6.03-1.6-.35-1.4-.05-.7.1-.22.18-.42-.31-.5.06-.3-.2h-.74l-.41.2 2.29 1.05 3.45 1.5 2.69 1.31.54.39 5.9 8.73.15.45-.07 1.16.08.54-.38 1.14-.26-.1-.26.64.09.19-.38.87-.21-.13-.63 2.03-.22.86-.28.05.23.84-.37.01-1.34 3.32v.45l-.65.88-.46.95-2.64 5.88-.8 1.58-.88 2-.59 1.6-.13 2.59-.23 2.46.02.93-.1 1.07-.42 3.77-.1 1.31v1.03l.2.26.02 1.08.2.34-.07.98.12.74.03 1.07.38 4.18.23 3.06.29 2.75.11 1.48.87.72 1.66.05-.14 1.26-.16.4.15.59.35.65-.52.3 1.35 4.55.29.25.94 3.3-.1 3 .07 2.8-1.24 2.86 1.15.45.56.7.27.55 1.03-.63.3 4.77-.35-.03-.59-.47-.8.2.9 3.24.16.88.53 1.68v.6l-.38.95-.41.46-.7.42-.69.15h-3.24l.03.75-.17 1.56-.15 2.69v3.15l.67 3.6.74.04 1.07.36 1 .82.74.73 1.52 1.88 1.22 1.81.33.4 1.16 2.09.25.56-2.6 1.32.05.15-.94.42-1.94 1.33-.27-.4-.55.33-.75-1.39-1.24-1.91-3.5 1.97-.6-.91-1.76 1.84 1.42 2.23-1.4 1.3-.16.65-2.3.44-2.12.68-.32-.02.3-1.1-.03-1.19-.89-.06-1.35.17-.05-.34-.68.16-.17-.38-1.16.27-2.9.45-1.49.47-2.44 1.06-.19-.44-1.47.68-1.46.74-2.47.84-.44.02-.45-1.8-.11-1.73-.29-.78-1.1-.7-.58-.08-1.1.55-1.32.46-1.72.41-3.04.57-2.42-.04.18.57-.12 1.22.08.71.64 1.69.48 1.93.56 1.62.49 2.5.16 1.28.08 1.32.26 1.02.12.83-.06 1-1.43-.2-.92-.2-2.12-.02-2.3.18-.1.16-3.52.32-.5.14-.87.5-1.59.69-1.37.5-.56-1.44-.53-.4-1.22-.46-2.33-2.18h-.55l-1.36 1.85-1.59 1.22-1.08 1.05-1.15 1.27.71.7-.26.19-2.05 3.21-1.24 1.8-.68 1.13-.84 1.22-2.4 1.83-.6.15-.8.98-.33.22-1.25.36-1.11.22-.77-.08-1.02-.32-1.32-1.17-1.13-.3-1.1.16-.53.32-.61.58-.38.73-.14 1.15-.75-.3-1.1-.18-1.01.18-1.14.5-1.3.75-.95.43-.76.17-.72.03-.65-.11-.92-.56-1.2-1.6-.92-.43-.44 1 .15 1.7.57 1.62-1.21.32-2.04.34-.45-.07-1.13 3.25-1.99.26-3 .17-1.3.15-.76.16-1.78.95-.71.63-.33.42-.8 1.87-.42.79-.8.98-1.06 1.1 1.1.3-.04.51-.33.93-.01.44.24 3.55.62-.06.23 1.4-.06.77-.49 1.96-.32.26-.3-.38-1.8.69-.29.65-1.53-.3-1.52-.54-.28.99-.56 1.28-.67.85-.48.46-.7.49-2.25-1-1.2 2.91-1.55-.74-2.08-1.1-.83-.37.36-1.42-1.98-.42-1.2-.17-.16-.87-.93.29-.37-.48-.86.2-.33-1.59-.56-1.57-1.63.6-.38-.95-1.4.85.4.75.3 1.2-.16.47-.18 1.68-1.46.43-1.43.67-.38.07-1.96 1.01-3.16 1.58-.7.4-.17-1.14-.65-2.95-.38-1.1-.79-1.76-1.48.19-.85-1.77-.3.17-.43-.27-2.7-.93-.8-.45-1.12-1.21-.2-.34-.68-1.73 1.54-1.7-.96-.42-1.83-1.83-.31-.7-.13-.68-.13-2.16-.31-.8-1.25-.78-1.23-.52-2.08-.73-2.48.29-.67.12v-.73l.11-3.1.13-2.49.03-3.38-.08-2.03-.38-1.97-.78-1.85-.8-1.19-.96-2.05-.27-1.14-.7-1.75-.07-.7-.23-1.08.03-.27-.53-3.57-.63-3.68-.45-1.42-.83-1.08-1.38-1.01-.83-.92-.6-1.09-.44-1.46-.12-1.06-.13-.39-.5-.56-.96-.77-1.3-1.36-1.33-1.5-.6-.99-.24-.56-.46-.51-1.26-.65-.86-.82-1.48-2.92-1.4-3-.98-2.33-.49-.79-.16-.93.1-1.44.42-1.55.02-1.5-.22-.88-.01-.62.16-.75-.01-.65-.54-1.58-.47-3.55-.41-1.98-.77-1.15.14-.38 1.78-.44.47-.24 1.97-1.63.21-.24 1.28-.92.84-.46.85-.66 1.16-.73 2.13-1.85.5-.35 2.1-1.02 2.9-.63 1.48-.42.86.05.73.2.8-.04 1.02-.21.08-.4.51-.08.41-.49.6-.04 1.02-.54.77-.11 2.17-.82.46-.1.35.98.42.5-.8.66.82.04 1.52.41 1.18 1.48.91 1.05.28.47-.64.73.85.57-.23.52.54.4-.02 1.4.14.2 4.05 2.89 1.53 1.2 2.04 2 .9 1.11.28.46 1.16 1.38 2.09 2.27.67-.34 3.46-3.52.8-.89 5.5-6.72-.36-.63-.47-1.16-.18-.66-1.05-3.2.55-.23.96-.14 1.14.32 1.01.1 1.05-.61.9-.23 1.32.12.67-.06 1.29-.65.9-.09 1.06.13.64-.11h.8l.66.17-.43-.78 1.63-.34.2-.3.92-.16 1.54-.13 1.63-.33 1.6-.53 1.24.2 2.71.57.54.3 1 .28.55-1.07.54.32.18-.44 1.67-.22.26.13.92-.1 1.08.1 1.1-.17.52-.2 2.06-.56 2.38-.5-.05-.5 2.56-.77.46-.25 3.6-1.2-.35-.88-.74-1.27-.19-.74.07-.68.86-1.62.78-.85 3.27-2.7.48-.73.25-.63 1.54-1.56.5-.72.5-1.16.18-.77.42-1.05.34-.49 2.44-2.4.3-.58-.07-.8-.35-.6-.98-2.3-.12-.59.09-1.76.28-1 .75-2.07.2-2.46.27-.92.96-1.27.19-.53.07-1.03.6-1.6.49-.76 2.81-3.3 1.6-2.13 1.96-3.17 1.5-2.6.48-.99 1.46-3.38.63-1.14.95-.89 4.88-2.94 1.23-.87.66-.63.74-1.1.2-.56.06-.92-.12-.6-.32-.74-.85-1.46-.53-1.18-.06-.83.28-1.34.4-1.1.48-.83 1.43-2.8 1.17-2.03 1.41-1.83 1.12-1.18.97-1.2 2.88-4.02 1.73-2.14.39-.86.66-2.34.28-.76.48-.97.8-1.32.5-.91 3.62-7.4 2.46-4.94 1.38-2.83 1.44-2.88.7-1.87.06-.93.24-.52.72-2.1.55-2.05.29-1.26.65-7.02.52-5.16.88-.37 1.35.24.24-.41 1.14-.03.73.12 1.48.58-.76 1.22v.62l-.28.41-.06.92v1.6l.44.27 1.47.36.75.01 1.74-.4.68 1.56 1.26-.77 1.3-.72.88-.34.7-.06.82 2.43.74 1.1.98.35 1.06.02 1.16.24h.92l2.17-.23 1.5.14 1.86.3.84-.06 1.27.18.83.34 1.6.26.8.32.8.11.34.2 1.64.55 1.15.26 1.56.06 1.46-.14.86-.2 2.07-.91 1.05-.37.35 2.04-.05 1 .01 1.52.13 1.92 1.03.32 1.14.22.28.28-.38.9-.15 1.46.34 1.06.8 1.28.08.5-.86 2.09-.46.97-.65 2.16-.24 1.05-.14 1.05-1.48 1.78-.4.7Z" candidates="[{&quot;candidate&quot;:&quot;0&quot;,&quot;count&quot;:1,&quot;margin&quot;:0}]"/>
    <path region="12" short-name="South West" long-name="South West" value="1" d="m304.69 363.14 1.11 1.4.59.9.77 1.39.3.83.86 2.01.93 1.94.77-.4 1.98-1.28 1.92-1.06.34.94.69-.1-.15.68-.26.47.15 1.11-.16 1.25.26.03-.32 1-.08.98-.55 4.42-.26 3.63-.04 1.14.2 1.4.52.84.19-.09.33.72-.25.03-1 .7-1.94 1.6-.52.33-2.24 2.99.08.32-.8 1.67-.6 1.7-.9 3.55-.12 1.99.21 1.82.12 1.86-.08 1.75-.24 1.22-.4 1.46-.72 2.28-1.22 2.68-.16.13-.76 1.35-.5.64-.54.22-.06.38-1.75 1.13-1.8.72-1.7.45-1.09.1-2.2-.05-2.6-.52-.83-.3-1.4-.81-1.95-1.47-.96-.9-1.22-1.31-.74-.92-.58-.96-.72-.71-1.36-2.34-.94-2.13-.46-1.67-.45-1.46-1.3-3.66-.3-1.02-1.55-2.94-1.16-1.4-.84-.76-1.77-1.78-1.12-.99-.62-.42-2.18-1.13-.86-.36-2.54-.82-.63-.42-.24.2-.55-.15-1.57-.02-1.56.22-1.27.04-1.62.26-2.04.95-1.22.64-1.02.66-3.1 1.94-.51.5-.95 1.43.26.18.48 1.13-.24.5-.88-.95-.78.48.14.2.66-.3.42.46-.08.27-1.36.37-3.05.94-.37.23.1.34 1-.2 3.29-1 .54.26-.85 1.7-.72.9-1.57 1.58-.96 1.15-1.07.7-.04.74-.69 1.28-.4.6-.76 1.93-.44.51-.1.36-.54.83-1.5 1.04-.3.44-.87.65-.51.53-.75.36-.4.46-1.97 1.33-1.99.89-.57.47-3.04 1.56-.27.21-4.25 2-.87 1.13-.55 2.02-.27.8.09.99.3.86-.07 3.29.33 1.67.5 1.23.65 1.16.65.92 1.83 2.2 1.28 1.35 1.23 1.09 2 1.9.91.76 1.5 1 1.9 1.04 1.2.91.44.54 1.15.85.57.13 1.2.66.89.74.82 1 .56.82.95 1.97.69 1.8.29 1.16-.05 1.1-.17.91-.36.9-1.72 2.36-1.07.8-.58.65-1.75 1.5-.85.65-1.14.52-1.54.8-1.75.7-3.2 1 .04.3-.4.21-2.08.31-1.71-.02-1.12-.1-.85-.23-.07-.26-1.71.1-1.42.21-1.5.3-.3.31-.97.4-1.36 1.07-.92.99-1.43 1.95-1.34 1.94-.64 1.37-1 1.72.5 2.88-.47.86-.05.44.9.83.9 1.18.22.75.77 1.3.51 1.63.18 1.18.27 3.03.4.89.69 1.23 1.19 1.75 1.22 1.23.82.63 2.47 1.5-.12.2.92.51.34-.08 1.13.4 1.96.57.73.3.37-.65-.61-.61-.6-.42-1.49-.6-.43.19-1.26-.61-.32.03-.99-.57-.62-.55-.73-.37.11-.3-2-1.6.23-.44-1.45-1.41-.64-1.2-.32-1.02-.14-1.88.07-.93-.7-2.2-.6-1.36-.47-.85-.41-1.07-.22-.85-.4-.64-.18-.9-.07-1.3.07-.88.25-.91.55-1.23.4-.57.79-.82 1.78-1.24 1.4-.73 1.1-.46 2.12-1.07 1.46-.78 1.07-.4 1.01-.24 1.4.07 1.15-.02 1.2-.19 3.33-.95 2.36-.87.64-.2 2.9-1.08 1-.54 2.47-1.73.46.08.2-.71 1.32-1.43.9-1.23.55-.87.43-.87.42-1.42.08-1.13-.2-.63-.16-1.18-1.53-3.96-.47-.9-1.76-2.4-.75-.97-.72-.8-1-.92-.93-.45-1.85-1.1-1.07-.55-1.46-.65-1.2-.84-1.18-1.08-1.13-1.3-.89-.85-.22.13-.97-.96.15-.15-.5-.58-.66-.6-1.24-1.31-.65-1.09-.16-.64.03-1.34.52-2.43.24-2.52.73-3.36.7-1.28.48-.5.48-.31 3.13-1.18.85-.45.44-.37 2.53-1.5.14-.03 4.18-2.6.53-.4.78-.9 1.15-1.88 1.88-3.23 1.07-1.76.89-1.3 3.67-4.65 2.11-2.87 1.16-1.26 1.35-1.35 1.32-1.03.49-.28 3.93-1.51 1-.28.81-.1 2.06-.15.81.09 1.75.57.8.48.6.54.7.82 1.16.98 2.12 1.48 2.08 2.21 1.13 1.44.69 1.11.48 1.08.58 1.68 1.05 3.68.88 2.56.9 1.92.94 1.86 1.02 1.55.8.98 1.98 1.94.62.5 1.9 1.26.04.32.78.23 1.41.62 2.3.81 1.9.18 2.63-.07 1.92-.25 1.35-.46 1.92-.88 1.1-.68 1.36-1.06.78-.7.73-.77 1.1-1.34.42-.96 1.05-2.13.78-1.7-.1-.07.2-1.24.13-1.35.24-3.48v-.93l-.23-2.54.01-1.54.17-1.18.47-1.4.44-.86.58-.81 1.4-1.57 3.59-3.47 2.16-2.05.87-.69 1.1-.63.93-.37 1.13-.28 2-.14.93.03 1.48.17 1.31.32 1.5.66.88.55 1.33 1.12.88.98.89 1.23.57.97.66 1.37h.1l.54 1.4-.1.06.35 1.27.3 2.32.27 2.57.18 2.3.03 1.45-.15 2.33.03 1.58.27 1.96.67 1.85 1.25 2.42 1.34 2.3 1.05 1.39-.88.44.31.2.09 1.18-.45.26-2.18-.63-.2-.17-1.58-.5-2-1.3-.62.02-.47-.19-1.32-1.06-.37-.11-1.18.08-.6.34-.49 1.1.16 1.48v.92l-.25 3.02-.4 1.97.06.82.66 2.06-.69.69-.28.43v.63l.4 3.27-1.48-.5-1.2-.3-7.02-1.2-1.79-.25-1.14-.1-1.27-.02-3.65.34-1.56-.02-1.91-.26-2.2-.02-1.2 1.08-1.9 2.25-.57.8-.69 1.25-1.7 4.03 1.46.77-.41 1-.2 1-.45.9-.76 1.9-.73 2.56-.18 2.01 4.88 3.85 6.76 5.3 2.32 1.78.76 1.27 2.58 4.09 3.4 6.13-1.3 2.31-3.8 2.52-3.7 2.39-5.95 3.88.56.93.17.45.02 1.28.23.82.5.71 1.45 1.15.47.73.22 1.25-.06 1.66-.2.53-1.36 1.96-1.1.78-.9 1.83-.2 1.07.45 1.43.58 1.43.36 1.32.66 1.16.31 1.46-.2 1.4-.57 1.8-.05 1.6.2.21.9.28.38.26.69.95.23.82.22 1.2.19.52v1.13l.23 1.14.6 1.38.28 1 .08.86-.32 1.8.01 1 .35 2.78-.07.45.26.71 2.26 7.54.4 1.85-.14.54-.36.47.06 1.04.3.93.35.4 1.36.45.54.93-.21.83.37.97.04.8.16.48.2 1.42.24.9v1.56l-.66 3.24-.55.53-1.36 1.78.22.96.09 1.1-.17.84-.04.84-.23.71-.55 1.07 1.1 1.59.38.8.81 1.38.83 1.16.23.6.43.29.82.33 1.22.2.55.28.42.4.62 1.36.4 1.38-.16.5.4.2.61 1.64-.03.52.29 2.24.22.85.16.76.13 1.79.53 1.7.07.7.25 1.12-.53.4-2.22 1.92-.9.98-1.3 2.7-1.48-1.06-.62 3.51-.1 1.22-.17.23-.15 1.6-.64.09-.62-.38-.86.14-.45.24-.43-.33-.4-.01-1.4.46-2.25 1.3-1.62.65-1.46.22-2.58.04-1.68-.17-1.47-.23-1.6-.51-1.24-.6-.38.16-.33.83-.06.97-.48.57-.7 1.84-.96.81-.66.76-1 1.52-3.92 2.96-1.07.84-1 .58-2.6 1.37-.58.46-1.13 1.16-.26.4-.4 1.05-.1.6-1.14.49-1.01.73-.42.7-.1 1.1-.34.5-1.15.7-1.1.26-.77.34-.84.55-1.44 1.39-.5.9-.84 1.18-.53.5-.76.52-.78.4-1.32 1.5-.49.4-1.02 1.4-.67 1.3-.4.54-1.1.52-.17.35.83.53 1.7.76 1.26.36-.3.27-.83 1.47-1.12 1.75-1.3.62-1.06.63-1.05 2.08-.88 1.34-.58.66-.15 1.28.02 1.3-.33.96-.6.99-.36.35-.56 1.06-.04 1.71-.13.29-.64.67-1.05.9-.75.85-.77 1.06-1 1.1-.93.74-1.06.97-.6.73-.63.58-.89 1.32-.38.8-.47 1.34-.45 1.52-.34.85-.54.76-.88.84-1.62 2.27-.17.38-.49 1.9-.24 1.69-.33 1.4-.47 1.31-.12.99.17 1.87.5 1.27-.1.36.01 1.15-.39 1.36-.5 1.19-.6.61-1.8 1.14-.74.76-.48.64-1.33 1.54-1.27 1.03-.77.45-.97.31-.8.47-.73.62-1.58 1.7-1.1 1.57-.93 1.03-1.26 1.17-1.75 1.36-.92.3-2 .43-1.57.64-1.1.74-.73.17-1.61.07-.84-.04-.73-.18-.32.7-.85-.28-2.16-2-.53-1.68-.2-.85.41-.67.92-.85.5-.82.12-.58-.23-2.14-.3-.66-.19-1.88.1-1.87.17-.95-.07-.21.22-1.6.18-.62.02-2.03.35-2.79.03-2.98-.13-.92.09-1.03.43-1.84.4-1.08.23-1.2.12-1.5.13-.3-.45-.27-.36-.95-.85-2.55-1.33-3.82-.25-.98.38-.65 1.07-2.98 1.5-3.42.91-.73.94-.97 2.4-1.63.83-.98.68-1.45 1.1-1.95.86-1.9 1.5-3.6.84-2.62.43-2.16.15-1.3.92-2.27-.15-2.23-.13-2.86.27-3.24.33-3.2.13-.62-.15-.73.1-.64.52-2.54.26-.89.4-.9 1.13-1.6.91-.9 1.05-.77 1.14-.09 1.03-.16 1.68-.43 1.71-.6 1.13-.26.83-2.3.18-1.66-.06-1.57.6-.04-.16-1.18-.93-1.94-.25-.9-.9.1.03-1.3-.1-1.38-.2.04-.07-1.14-.41-.83-.52-1.46.07-.3-.15-.76-.28-.58-.1-.71-.46-.48-.79-1.22 1.1-.76-1.14-1.94.1-.42-1.34-2.01-.38-.65-3.3 2.27-.64-1.2-.23-1.05 1.02-.83 2.03-1.82-.65-1.01-.66-1.35-.58-.98-1.21-1.81-1.14-1.4-.68.67-.92.76-.93.6-2.93 1.02-1.64.7-1.06.36-1.28.13-1.22-.22-1.33-.55-1-.9-1.55-1.96-.96-1.41-.38-.7-.73-1.64-.45-.85-2.26-2.7-2-2.23-1.63-2.13-.74-1.14-.76-1.45-.72-1.68-.76-1.12-1.09-1.3-1.06-.75-1.77-.55-1.05-.54-1-.78-1.89-2-1.1-.88-1.97-1.05-1.44-1.15-.76-1.02-.52-.34-1.78-1.49-1.78-1.37-1.17-.98-.15-.54.02-.9-.16-.35-2.9-1.45-.6-.18-.87-.52-1.12-.3h-1.48l-2.2.26-1.54.46-2.1.84-2.53 1.57-1.18.6-3.92 2.49-.63.31-2.05.46-1.84.22-.75.34-1.22.34-1.58.1-2.08-.34-1.42-.52-1.14-.48-.1-1.8-.45-.1.04-1.1-1.54-.22-1.85-.34-1.44.17h-1.56l-.15-.72-.41.02-.31-2.9-.16-1.1-.3-2.92 2.1-.07 2.84.18-.56-1.4.21-.67-.15-2.13.04-.08-.3-2.13-.54-2.16-.56-1.02.8-.8.45-.63-5.02-3.87-1.05-.7-.73-.41-1.64-.72-1.18-.38-1.32-.28-2.26-.23-1.95.03-1.33.15-1.72.35-.96.32-3.01 1.19-1.34-.82-1.52-1.27-.8-.49-.32-1.08-.08-1.05-.26-.94-.84-1.12-.52-.46-.85-2-.82-.62-1.8-.36.75-1.76-2.25-.98.65-1.48-2.65-1.18-.12.25-2.08-.88.72-1.69-.5-.22-.76.32-.52-.76-.34-.18-1.47.27-.99.09-1.5.8-.61.62-.76.5.1.54-.83-.2-.86.1-1.11.28-1.03-.11-.9.04-.2.9-.2 2.07-1.9-.27-.12 1.14-.52-.03-3.47-.45-.96-.23-2.89-.98-4.54-1.79-.07-.59.02-1.76-.12-1.8.27-2.53.18-.9-1.78-.17-1.4-.08-3.25-.3-3-.18.22-1.09.43-2.82.59-2.98.45-2.6-3.92 1.38-1.61.54-3.2.94-2.84.65-.49.08.13-1.04.4-1.9.27-.95-.05-.94.22-1.4.3-1.07-.21-.63-.85-.47-1.36-.9.14-2.32.01-2.07-.36-4.54.18-2.26-.1-.55-.42-.08-1.12.14-3.12.3.2-6.46 1.75.29.36-.83.29-.08.26-1.32.09-.88.16-4.11.26-.53 1.57 1.2.62.36 1.27.47.43-.07-.07-.65 1.55.26.04.85.37.36 5.16 1.92 1.51.4.95.16 3.96.53 2.47-5.44.52-1.29 1.37.31 2.23-.11 1.36-.25 1.34-.13 1.3.1.37-.5-1.18-.52-1.05-.56.34-1.37.74-1.54.07-.3 1.3-2.5 1.14-2 1.14-.73 3.24-2.24 1.8-1.2 1.57-1.1 5.55-3.72.76-.44.87-.23.57.2.26-.13.15-.67 1.55-.8 7.1-3.42 2.02-1-.21-1.1-.89-.88-1.06-.95-.36-1.06-.48-.76-.65-.51-.4-1.05-.31-.48-1.01-.64-.18-.42.17-1.7.28-.55.6-1.63-.09-2.19-.34-1.01-.34-1.6-.52-1.31-.32-1.2-.41-.73-.2-1.11.4-2.44-.44-.58.1-.33.7-.81.16-.95.51-1.07 1.1-2.93.77-.76-.71-.43.13-.47.37-.57.26-.67.64-.06.07-.47.42-1.05.05-.45.43-.64.82-6.69.36-3.26.28-2.23.43-1.16.43-.69.14-.5-.05-.75-.33-1.59.02-.65 1.4-4.12.47-.68 1.9.8.83.54.1-.15 2.44.9 3.91 1.78 1.54.64.33.05 2.42.99 4.6 2.04 2.06.89 3.52 1.33 1.31.42.64.1.67.38 1.33.09 1.45-.07 1.46-.27 2-.77 3.2-1.79.2-.2 1.27-.64.29.17-.28 2.03.97.32 1.46-.23.2 1 .22.66.61 1.13-.05.11 1.42 3.7.59.57 1.05 1.23.56.01.27.37-.18.6.84-.4 3.84-2.12-.54-.95 1.67-.92.56-.94.82-.73.5.63.75-1.22 1.2-1.4.13-1.48.4-.3.34-.56 1.28-.28.5-.54 1.1-.62.55-.17.62-.44 1.28-1.17.56-.3.86-.03 1.08-.35.37-.23 1.1-.19 2.16-.67 2.8-.99.7-.08.69.17 1.79 1.3 1.2.8 1.28.7 4.82 2.88.86.06 1.3-.26 1.95-.19 2.2-.01.93.07 1.53.02 2.41.66 1 .44.06-.13 1.45.66.68.52 3.03-1.83 1.5 1.92 1.65-1.87.87.47.7-.26 1.09.67 2.34 1.27 1.57 1.25.73-.5 1.6-1.39 1.73-1.3.58.66-.52.4 1.49 1.87-.74.75.81.99.57-.28 1.54 1.91.84 1.18 3.65-2.71.52-.36 3.51-1.82-.45-1.55-.08-1.08.05-.5 1.42.65 2.86.78 1.04.4.02.58.27.95 4.21-.9-1.51-2.98-.84-1.83-.48-.75-.19-1-.54-.88-.19-1.04 1.12-.55 4.32-2.35 1.27-.72 1.2-.59.47-.05 1.88.24 1.63.41 2.35.76 2.23.35 1.28-.22 1.19-.55 1.8-1.1.99-.85 1.88-1.44 1.31 1.75.3.57.54 1.48.69 1.62.58.98 1.37 1.8 1.22 1.13 1.72 1.26 1.13.95.97 1.21.22.96.33.74.55.7.98.84 1.57.7 1.16.2.84-.1.05.17 4.62-.83 1.74-.26.99-.25.17.07 4.49-.57 1.4-.07 1.08.01.06-1.38-.17-.54.02-.63.47-.13.1-1.2.94-1.8 1.02-2.09.7-1.69.05-.7-.23-.71zm-81.23 104.91.78.07.04.32-1.87.82-2.81 1.51-.55-.41v.56l-1.4.6-1.63.8-.15-.07.74-1.24.59-.76.68-.7 1.03-.48 1.13-.2.57-.35 2.54-.47zm2.3-46.48.18.36-.12.83-.66 3.35-.15 1.7-.45 1.94-.27.8-.36-.53.07-.63-.12-.56.12-2.07.15-.43-.15-.57-.09-1.9.4-1.17.57-.76.47-.37Zm30.5-29.53-.6.23-.12-.22 1.14-.65 1.47-.7 1.15-.4 1.7-.14.05.1-3.07 1.26zm58.2-3.42-.36.52-1.33 1.23-1.03.52-.13-.09.75-.98 1.1-1 .97-.6zm-62.55 5.5-.36.92-.51.8-.52.08-.23-.49-.02-.5.68-.74.5-.3zm.25 1.04.29-.8.9-1.19 1.09-.65.58-.17.24.21-1.1.81-.55.3zm19.97-.23-.3-.07-1.13-.93.53-.01 1.01.74z" candidates="[{&quot;candidate&quot;:&quot;3&quot;,&quot;count&quot;:1,&quot;margin&quot;:0}]"/>
    <path region="13" short-name="West Central" long-name="West Central" value="1" d="m472.24 336.62.6 2.88-1.04.26.28.93-.7.3-.1.51.43.84.2.7.42.6-.05 1.7-1.18.1-.05-.13-1.98.37-1.81.5-1.3.52.05.16-.96.5-.1-.1-.91.46-.94.71-.74.7-.15.45-.5.35-1.04 1.78-.32 1.18-1 1.9-.45 1.96-.26 1.41.04.21-.42 2.73-.1 1.2-.15.03-.06 1.21.15.09-.12 1.27-.56 4.49-.51 4.4-.15 2.08-.3 3.18-.02.85-.4 1.46-.6 1.34-1.21 2.49-.58.53-1.29 2.12-.19.62-.6.52-2.56 2.76-1.05.88-.66.39-2.64.97-.11-.24-1.24.35.02.18-1.02.23-1.49.19-2.1-.01-1.18-.2-1.57-.5-1.76-.49-2.13-.36-1.55-.1-2.56.23.03-1.05-.17-.2-.59.06.36.52.04.73-.87.1-3 .47-2.07.51-1.55.44-7.36 1.57-5.49 1.13-3.1.72-1.19.32-2.15.72-1.58.75-.82.45-.22-.31-1.7.45-.44.24-.67.64-1.64 1.84.35.34-1.46 2.18-.62 1.77-1.8.12-1.5 1.02-1.44.08-.4-.13-.56.16.18.39.78-.1.81.18.5-.1 1.72-.94 1.2-.09.37.18-.51 3.33-.46 2.43-.68 2.98-.42 1.3-1.36 3.66-.61 1.55-1.15 2.48-.81 1.18-1.04 1.24-1.2 1.05-4.8 2.28-3.54.74-1.04.04-3.4-.26-1.1-.14-.8.13-.78-.1-.99.02-2.5-.54-2.76-1.08-1.8-.88-3.04-.96-.75-.16-1.55-.57-2.33-1.32-3.3-1.98-.88-.66-1.08-1.1-3.7-4.9-1.98-2.7-.46-.94-.63-1.8-.58-2.34-.22-1.26-.19-1.54-.15-3.63-.27-3.38.44-.37-.24-.3-.53-1.81-.15-.82-1.38-3.16-1.36-2.78.06-.09-.77-1.3-.29-.28-1.16-1.83-.26-.7-.6-.53-2.03-.84-2.48-1.56-1.2-.2-1.03.07-.74-.1-.6.1-.39-.12-2.1.17-.02.1-1.8.2-.9.18-1.14.4-1.87.83-.64.75-1.1.7-.33-.73-.2.09-.5-.84-.21-1.4.04-1.14.26-3.63.55-4.42.08-.98.32-1-.26-.03.16-1.25-.15-1.11.26-.47.15-.68-.7.1-.33-.94-1.92 1.06-1.98 1.29-.77.38-.93-1.93-.85-2.01-.3-.83-.78-1.39-.59-.9-1.11-1.4.01-.53-.35-2.29-.66-.86-.68-1.1-.7-.78.26-.23.4.51 1.04-.22-.13-.5 1.45-.3.03.38 1.5-.26 1.08.37.48.03.07-.33.7.33 1.42-.33.08.48 2.74-.5-.92-3.35-.04-.67 1.69-.02-.32-1.63-.46-1.66-.04-.83-.33-2-.7-2.45-.66-1.32-2.12-3.69-.53-2.52-.37-1.16-1-5.19-.16-1.45.08-.62.43-1-1.92-3.96-.2-1.82-.65-2.27v-.75l.13-.59 1.66-2.74.99-1.24v-.34l-.39-.81.66-.79-.47-.27 1.22-1.72.13.1 1-1.05-.03-.1.92-.98.92-.8.74-.44.58-.19.51.02.16-.31-2.04-1.09.49-.83.32-1.01 1.84 1.1 1.31.66.5.1 1.33-.06 2.34-.28 1.85-.01 1.44-.11 1.02-.4 2.45-.78 1.74 1.57 1.85 1.38 2.32 1.03 2.18.74-.11.46 2.63-.2.02-.28 1.94.39.5.19 1.76.94.44.17 3.87 1.08 1.41.66 1.23.83-.07-1.8.24-1.62.68-.35.25-.92-.3-1.53.18-.37.6-.24 1.7-.47 1.8-.15 1.07-.32 1.36-.69 1.2-.5 1.22-.35 1.23-.07 1.54-.19 2.02.14.72-.04 1.32.64.23.02.46.98.22.26 1.83 1.27.84.73.66.78.36.62.08.96-.09.87.06.59-.14.44.32 1.37.36.09.67-.14.43.51.18-.48.85-1.6 3.32-6.44.57-1.45v-.78l-.74-1.3 1.84-4.38.48.66.8.78 1.16.9.77 1.02.94-.68.27-.3 3.68-5.55.91-.81 2.7-1.46 1.4-.68.79-.28 1.16-.26.56-.01 5.18.6-.27 2.28.14.45.62.78 1.8-1.43 1.3 1.12 1.6-1.53.59.35 1.18 1 3.65 4.02 1.86-1.2 3.44-1.66 1.24 1.75 4.25-1.42 1.02-.39.96-.2 1.72-.2 1.48 5.5 1.84 6.52 3.23 11.74 1.64-.44.73 2.43.65-.12.58.12-.02-1.23.22-.09.68.28-.13 1.2.74.06 1.76 2.34 1.9 2.48 1.27 1.73.67.83.16.36 1.19 1.77.84-.5.56.86.7-.46 1.08 1.74-.15.14.48.73.53-.31 1.25 1.07.1.85 1.95-.73.48.96-.01 1.25.7 2.78.57 1.9.59.17 1.5 1.4.5-.1.6-.83 1.67-1.2.91-.72 1.9-1.88.94.98.3-.46 1.77.52 1.01.17.94-.4.1-.47 1.18-.5.4-.3 3.04-1.25 1.01 2.32 1.84-.62z" candidates="[{&quot;candidate&quot;:&quot;0&quot;,&quot;count&quot;:1,&quot;margin&quot;:0}]"/>
    <path d="M741.3 19.3h212.4c8.96 0 16.2 7.24 16.2 16.2v27c0 8.96-7.24 16.2-16.2 16.2H741.3c-8.96 0-16.2-7.24-16.2-16.2v-27c0-8.96 7.24-16.2 16.2-16.2z" long-name="At-Large Seats" region="LS" short-name="At-Large Seats" value="11" style="stroke-width:.899999" candidates="[{&quot;candidate&quot;:&quot;0&quot;,&quot;count&quot;:1,&quot;margin&quot;:0},{&quot;candidate&quot;:&quot;1&quot;,&quot;count&quot;:5,&quot;margin&quot;:0},{&quot;candidate&quot;:&quot;2&quot;,&quot;count&quot;:3,&quot;margin&quot;:0},{&quot;candidate&quot;:&quot;3&quot;,&quot;count&quot;:1,&quot;margin&quot;:0},{&quot;candidate&quot;:&quot;4&quot;,&quot;count&quot;:1,&quot;margin&quot;:0}]"/>
  </g>
  <g map-type="region-texts">
    <text xml:space="preserve" x="842.47" y="60.12" for-region="LS" font-family="Roboto" font-size="37.8" text-anchor="middle" style="stroke-width:.899999">At-Large</text>
  </g>
</svg>