<svg viewBox="0 0 458.05 583.55" original-source="[&quot;https://www.abs.gov.au/statistics/standards/australian-statistical-geography-standard-asgs-edition-3/jul2021-jun2026/access-and-downloads/digital-boundary-files&quot;]" version="1.1" auto-border-stroke-width-limit=".5" auto-border-stroke-width="5" title="2024 Tasmanian House of Assembly" variant="blank" date="2024082" type="tas_lower" country="aus" default-mode="split" candidates="[{&quot;id&quot;:&quot;0&quot;,&quot;defaultCount&quot;:0,&quot;name&quot;:&quot;LIB&quot;,&quot;margins&quot;:[{&quot;color&quot;:&quot;#080CAB&quot;},{&quot;color&quot;:&quot;#3334C5&quot;},{&quot;color&quot;:&quot;#6666DA&quot;},{&quot;color&quot;:&quot;#9999EA&quot;}]},{&quot;id&quot;:&quot;1&quot;,&quot;defaultCount&quot;:0,&quot;name&quot;:&quot;LAB&quot;,&quot;margins&quot;:[{&quot;color&quot;:&quot;#F00011&quot;},{&quot;color&quot;:&quot;#FF3336&quot;},{&quot;color&quot;:&quot;#FF6666&quot;},{&quot;color&quot;:&quot;#FF9999&quot;}]},{&quot;id&quot;:&quot;2&quot;,&quot;defaultCount&quot;:0,&quot;name&quot;:&quot;GRN&quot;,&quot;margins&quot;:[{&quot;color&quot;:&quot;#10C25B&quot;},{&quot;color&quot;:&quot;#36D87A&quot;},{&quot;color&quot;:&quot;#66E99A&quot;},{&quot;color&quot;:&quot;#99F5BB&quot;}]},{&quot;id&quot;:&quot;3&quot;,&quot;defaultCount&quot;:0,&quot;name&quot;:&quot;JLN&quot;,&quot;margins&quot;:[{&quot;color&quot;:&quot;#FFCB08&quot;},{&quot;color&quot;:&quot;#FFDD33&quot;},{&quot;color&quot;:&quot;#FFEB66&quot;},{&quot;color&quot;:&quot;#FFF699&quot;}]},{&quot;id&quot;:&quot;4&quot;,&quot;defaultCount&quot;:0,&quot;name&quot;:&quot;IND&quot;,&quot;margins&quot;:[{&quot;color&quot;:&quot;#DCDCDC&quot;},{&quot;color&quot;:&quot;#E3E3E3&quot;},{&quot;color&quot;:&quot;#EAEAEA&quot;},{&quot;color&quot;:&quot;#F1F1F1&quot;}]}]" xmlns="http://www.w3.org/2000/svg">
  <g map-type="regions" transform="translate(-366.8 -345.32)">
    <path region="140" short-name="Bass" long-name="Bass" value="7" d="m802.85 563.07-.65-.2-1.4 1.1-.8.3-.4.8-1.1.3.35 1.45-.7.5-2.35-.75-.05.35-6-1.1-.75-.25-.5 2.45-.9-.25-1.2-.6-.35.45-.1 1.3-.3.4.3 1.1-.5.35-.3 2.35.25.9-.6.9.45.4v2.2l-.5 1-.25 2 .25.5v.8l.65.5.15 1.05-1 .95-.05.75-.85 1.85.55 1.05-.5 1.2.2 1.05.9 1.2.8.35-.3.5.3.5-7.6 2.75-4.9 1.35-2 .6-4.45-.45-1.3 6.5-4.15 20.6-.65-.1-11.5.6-11.75.6 1.1 1.65.65.6-.2 1.25 1.25.25-.35 2.25 1.3.2-.15 3.05.65 1 .35-.2.6.9.2.85-.55.4.8.6-6.8 4.6-.7-1-1 .7-2.15-.5-1.35 1v.75l-1.9 1.3-.8-1.1-1.2.85-1-1.4-.75.5h-.8l-3.2 2.2.4.6-2.5 1.7-.55-.85-1.25.85-2-2.6-2.05-3.2-1 .75-2.35 1.5-1-1.15-1.65 1.25-.75-1.05-1.5 1.1-.75-.75-.65.5-1.15-1.55-.6.45-.25-.65.75-.5-.6-.65-.25-.9-.6-.5-1.4 1.25-.9.65-.4-.6-.55.4-.85-1.1-.5.25-.5-1.2-1.5 1.05-.6-.75-1.15.8-1-1.4 1.4-1-.65-.85-1.3-.75-.5.35-1.5-1.4-.15-.85-1-.65-.25-.6h-.95l-.15.7-.5.25-.4.65-3.3-2.85-.2-1.2-2.15 2.25-1.35-.25.2-1.5-2.4-.35-.55-.55-1.6-.95-1.5-1.2.3-.45-.65-.75-.45-1.45-.8-.4-.8-1-1 1.15-2.7.65-2.95-.6-2.3-.55v-.4l-.95-.2-.7-.45-.35.75-2.65-.6-7.3-2.7.6-2.95.3-1.65-.6-.5.5-2.4.3.65 1.1-.4.75.1.1-.5.8-.1 1.25.2.2-1.3h1l-6.5-15.3.4-1.65-.4-3.2-3-2.9-.65-.1.3-1.85 1.25.7.45-.15 1.75-1.35 1.5-1.7.2-.35-.75-1.25h.85l.45.75.85.35.15.5 1 .1.4.9h.65l1.1-.8.65.05.7.5 1.5 1.65.15.75.5.6-.6.95.55.5.9-.3.5.5.1 1-.1 1.65-.8-.4-.4.5h-.95l-1.15 1.5h-1l.35 1.35.6-.4 1.5-1.6.65.35 1-.5h.65l.8.7-.15.85.25.9-.25.8 1.35.6.2.6-.5 1.15.3.35 1-.5-.15-1.4-.35-.9h.95l.4.5.5-.3.7-.8.6-1.35.5-.5 1.3.55.85.65.85.35.3.55 1.15.5.5 1.15-1.1.7-.7.65.7.35-.4 1.1-1 .6-.25.5 1.6 1.7 1.65 1.35.1 1.3.5 1 1.15 1.5 1.5-1.2.65.5-.55 1 .25.8.75.5.1 1-.15 1-.4.75-.5.25.5 2 1.25 1 1.45.45.4-.15.6 1.3.7.8 1.1 1 .7.25.95-.2 1-.75.45-.6.9.25.8.9-.8 1-.05.65.55 1.5-.1 1.85.5 1.15 1 .85.6.25 1.6.2.25-.5-2-1.45-.35-1.4-1.05-1.1-.45-1.7.5-.85.15-.7-.95-1.4h-1.25l-1 .7-.7-1.4.15-.7-1.3-.4-.35-.3-2.7.15-1.2-.35-.85-.65-.15-.75.2-.55 1.2-1.25.9-.6 1.35-.3.15-.8-1.15-1-.4-1.2-1-1.3-.55-.2-.7-.6-.15-.8h-.65l-1.5-.55-.75-.55-.15-1 .15-.75-.2-.95-1 1-1.15.5-.85-.65-.1-.5.35-.55.7.15.5-.5-.6-1.2.25-.95.9-.5.95-.25.9.25.7 1 .5-.05-.8-1.5-1-.45-1.7-1.35-2.1-2.25.3-.65h-.9v-.65h-.65l-1.1-.9h-1.1l-1.4 1-1.5-.05-.7-.3-.4-1-.5.25-.9-.9.7-.6-.1-1-.65-.2-.35-1.5.15-.65-.7-1.65-.35-.4v-.9l-.55-.85.65-.1 1.45-1.15.65-1.3.6-.5.65-.05 2.15-1.3.85-.7.5-.85.7.1.65 1.1 1.25.1.4-.25.95.45 1.3-.1 1.75-.75.4.1 1.3-1.45.75-.5 1.05-1 .85-1.1.15-.65.7-.6.5.3.75-.25.4-.4h.65l.9 1.2 1.25-.15.8-.4.5.25 1 .85.5.65 1.35-.4.25-.4 1.05.6 1.6-.4-.05.55.7.5 2.05.85.7.45.5 1.15.5-1 .2-.9.6.3h.7l1.7-1.35.65.25 1.3-.7.6-.5 1.35-1.55 1.15-1.9.5-1.15 1.75-1.3h.55l.65-.65.3 1.2.8.65 1.3.25 1.5-.45 1-.7.8-.9.75-.3.9 1.75-.2 1.15.65 1.35-.1.55h1.25l1.4.65.65.7-.25.6.25.9.5.35-.1.5 2 .2 2.45-.5 1.8-.95 3-2.1 1.75-1.65 1.65-2 2.85-4.2.95-2 .85-.9.3-.75 1.35-2.5-.45-1.1.85.15.55-1.15-.05-.5.5-.55h1.1l1.2-.3 2.4-1.45 1-1.15.85-.5-.1.8 1.9 1.5.65 1.65.7.8.75.5.7.15 1-.1 1.65-.65 1.2.1.15 1 2.55 1.85 1.6.5h.6l1.8.35 1.15.1 2.15-.85 1.3-1 .9-.5-.2 1 .65.15v-1l.55-1.3 1.35-1.4 1.5-2.2 1.25-2.15 1.5-3.15-.3-.75.1-1 .85-.4.5-1.4v-.95l-.9-.75-.7.25-.3-.65.35-.75.65.55h1l1.25-.6 2.35.2 1.5.3.8 1.05 1.2-.35v.7l.5.7-.45.4.8 1.1.65-.7 1.1.5 1.8-.1.55.3 1.8 1.9.15.65 1.5 2.9-.45.15.1 1.85 1.25.3.2-.5 1 .65 1.5.5 1.75.1.5-.75-.2-1.1h.7l.3.85 1.15 1.1.95.55.85.3h.65l-.25 1.2.05 1.3.65 1.45.4.2.5 1 .75.3.4-.15 1.15.5.4 1zm-183.7-215.6.7.8-.15.35-.9.25-.35-.5.05-.6zm24.6 31.9.5-.5.25-.75 1.15-.4-.4.9-.5.3v.65l-.6.5zm33.85-33.1v-.85l.45-.1.35.75.1 1.35-.4.85h-.65l-.25-1.4zm9.4 278.25.85.25-.25 1zm19.05-245.75.7-.55.45.2.8-1.15-.7-.8.1-1.75h1.35l.3.4-.4.55.55.6-.85.6-.15.75.1 1.15-1.1 1.2-.45-.7-1.2.8-.7-.5zm4.5 3.15-.5-2-.65.35-.3-.85.8-.25-.1-1 .5-1.2.6-.65.8.15.95-.3.4 1.3.5-.3.7.35.35.85-1.3.35.6.5.5.85-.8.5.2 1.15-.6.2-.5-.9-1.1.3.2 1.25-.6.5-.65-.35zm31.2 166.05.75-.8.05.85-1 2.45-1.3.9-.5-.35 1.05-1.15v-.6l.5-.45zm3.85-141.45v-.3l.9-.2v.5zm16.2 78.05.7-.5.95.7 1.1-.25.35 1 1.8-.3.6-.4.15-.95.9.3.2.95-.5.7-.25 1.55-1.4.5-.55.35-1.5-.8-1 .4-.9-.05.8-.95.2-.7-.3-.5-1.7-.35zm-4-.3-.3.5.4.5v1.3l-1.2-2zm11.3-2.15.4-.85-.1-.6 1.6-1.1.35 1.75-1 1.25h-.65zm10.75 9.25v.65l-.85.85-.75.45-.5-.25-.8.6-1.25-.35.45-.5.5.2.7-.5.65-1 1.25.05zm3.9 17.05-.2-.4-1.05-.55.05-.55 1-.2 1 .55-.3.85zm-3-15.6 1.9-.8.65.5 1.05-1.3.6-.15.35-.7.65.3h.8l1-.5.5.35 1-.3.75-.5h.8l.9.65.7.2.7-.25.5.65 1.15.1.7-.45 1.15 1.15.4-.15.75-1 .5-1.8.15-1.65.5.5.8.05v.85l1 .3.65-.7.35.85.7.1.55.5 1.2-.45.6-1.15.6-.65.65-.15 1.1.4.65-1.2h.85l.6-.8.6-.4.25-1 .9.9.55.2.3 1.1.4.7.9.55.5 1.85.7 1.05.9.25 1.25 1.45.4.8 1.4 1.3 1-.25.7.25.75.6 1.25-.1-.5 1.5.15 2.1.5.55.5.05-.1 1.05.9 1.4.6.35.65-.05.2.45-.8 1-.7-.35-1.9-.4-.95.4-.75 1.1.5.45v.7l-.75 1.2-.25-.5h-1.15l-1.2 1.35.1.5-.25 1.25-.25.35-.8-.3-.1-1-1-.35-.75.25-1.7 1.3-.7.4-.75-.85-.15-2.5-.7-1.4-.3-1-.35-.35-.6-1.5-.6-.6-1.85.75-.5-.75-1.1.2v.75l-1.25.9-1.25 1.55-2.25 1.5-.9-.4-.15-1-.7-.9-.3-.9-.7-.5-1 .15-.6.85-1.15.15-.6.5-.6-.25-.95.25-.5.4-.5-1-.9-.75h-.65l-.75.9-.7.2-1.7.2-.85.65h-.5l-.55-.35-1.1-.1-.15-.3-1.25-.05-.3-.5.25-1.25-2.1-.75.55-.8-.35-.55-.8-.6-1.8.7-.15.45-.9-.25-.25-.5.3-1-.15-1.2.4-.7-.65-.55.3-.65.6-.4.7-.85.6.25.6-.75.9-.6.85-.05zm-1.85-30.85-.65-2-.35-.4-.65.2-.25-.9-.6-.75h-.7l-1.15-.8-.3-1.25-.5-.1-.6.7.3.8.5.5-1 .3-.1-3.2-.1-.9-.4-.35-.85-2.55-.5-.5-1.6-.6-1.1.2-.45.8-1-.5-1.05-1.25-.7-.4-1 .1-.05-.4.8-1.25.5.5.65-.25.3-1.3.9-.05.8-1.05v-1.8l.35-.35-.05-1-.5-2.4-.85-2.5-1-1.85-.75-.8-.65-.3-.75-1.1h-1.2l-.8.6-.4-.1-1.5.9-.95.75-.65.25-.4-.5-.05-.7-.45-.5-1.5-.95-.9-.2-.25-.4-.8-.1-.6-1.5-.55-.5.6-.5.7-.15 1-.75v-1l.5-.75 1 .2 1.55-1.2v-.85l.85-.2 1.3.5.5-.65.65.4.85-.5.5-1.1-.1-.75-.75-.6v-.7l1.6-1 .9-1 .25-.65-.5-.9.4-.35-.3-.7-.75-.85-.6-.4-.45-.85.15-.6 1 .15.5-.5.65.8.15.6.6.4 1.3-.5.6-.95.8-.5 1.3-.25 1.5-1.5v-.4l.65-1 1.2.3.4.5-.15.55.2.75-.15.9.4.6-.1.8.35.9 2.2 1.15-.5-1.4h-.5l-.85-2.1-.35-.15.2-1 2.05 3.5.85.9 1.25 1.2.85 1.15 1.2 1.9 1.7 2.3 2.65 3 2.4 2.9 2.85 4.15 1.8 2.3 2.45 2.5 1.9 1.3 1.05.25.7-.35 1.85 1.1 1.5.75.6.1 1.25.55.75.2 1-.1.95-.3.2.65-.5 2-.4 2.45v1.55l.2 1.85.45 2.35v2.35l-.8 1.95-.5.6-2.6 1.6-.8.2-.2.6-1.2 1.65.1.55.7.5.7-.5.8.25.7-.1.5-.6 1.6-.25.75-1-.25-2.5.65-1.3.3 2.55.3 1.4 1.35 4.9.5 1.5.2 1.6.4 1.15 1.5 2.9v.55l-2 1.65-2.2 1-.75.2-1.15-.25.05-1.6-.6-.6-.85-.35-1.35.35-.85-.4-.75.2h-1.7l-.9.65-1.15 1.35.35.8-.9 1.4.1.85-1.7.35-.9 1.3-.85.3-1.95.2-.9.85-.7-.3-.65-.7-1-.5-.6.95-.35-.75-1.5-.8-.6.1-.25-.8-.65-.5-1 .2-.5-1 .2-.5-.2-.85-.5-.5-.55.5-.5-.7-.15-.75 1.35-.75.4-.8-.2-1.5-.65-1.25-1.4-1.75-.3-1 .1-1.8v-1.8zm-4 9.3.45-1-.3-.75h.7l.45.7zm-7-1.95.75-.15-.15.9-.9.2-.1.7-.7-.45.55-.9zm-12.3-19.65-.1.6.8 1.25-1.4 1.8-.4 1.2-.6.55-.2 1 .5.9-.4.65-.2.85-.75.65-.35-.4-.95.7-1-.15v-1.25l1.4-.9 1-.9-.3-.9.15-.65.65-.5-.1-.45.7-1.25.35-1.4v-1.1l.55-.55zm18.6-47 1.9-.9-.6-1 .65-.1.75.2.45-.55.6.2.65.85-.1.4-1.25.5-.6 1-.6-.2-.5.35-1.25-.1zm-7.65 4.15.05-.9.65.1.5-.4.45.9h1.35l.8-.45.4.15.85 1.25v.45l-.65.5-1.4.05-.5-.65-1 .75-1.15-.4zm42.2 33.45-.25-.7.85-.35v-.5l.5-1.1.8.8.25.85.75.5v.4l-.6.85-1.3-.3-.5.4zm-2.85 41.1.55-1.9.75.35 1.05.8.3.55.5 1.6-1.45 1.2-.7-.4h-1.25l-.65-.4v-.85l.55.15zm-4.25-5.75.05-.65h1.3l-.25 1zm-4.35 2.9 1-.3.35.9h-1.2zm4.55.45-.65-.65-.65-.05-.65-1 .65-.15 1 .35 1.15-.1.9 1 .05.85-.65-.15-.3.35zm-12.95 33.35 1-.25.5-1.1.8-.2 1.45-.05.25.15 1.65-.5 1.15-1 .75-.05.6.5.9 1.3.65-.1.85-1.05.45-1.2 1.8-.85.2 1.2-.15 1.2-1.25.85-.2.85v.95l-.35 1 .65.8-1.1 1.7-1.45 1.15-1.65 2.65.15 1.05.55.5-1.4.4-.7.5-.7-1.15-1-.95-1.25-1.5-.65.3-.75-.3-.9.4-1.1-.5.4-2.15.35-1.25-.8-.45-.75.3-.8-.25.15-1.15 1-1.25.5.1zm1.75-27.5 1-1.05.55.25.4-.4.95.05-.5.75-1.05.1-.95.5zm-2.5-.4.75.15v.7l-.8 1.2-.9-.25-.1-.5zm19.35 26.9.65-.8.65.3-.55.5-.1 1 .3.65-.15.5-.9-.05.4-1.35zm3.75-.85.45 1.2.1 1.5-.3.15-.85-1.15-.1-.85-.85-.55.5-.7h.65zm-24.6 31.65-.25-.3.35-.8.6-.2.8.2.6-.8h.95l.1.85-.6-.1-.2.75-1 .3-.65-.35z"/>
    <path region="141" short-name="Braddon" long-name="Braddon" value="7" d="m646 588.02-.3 1.85.6.1 3.05 2.9.4 3.2-.4 1.65 6.5 15.25-1 .05-.2 1.3-1.25-.2-.8.1-.1.5-.75-.1-1.1.4-.35-.65-.45 2.45.6.5-.3 1.6-4.8-.5-3.4-.55-.25 1.75-2.75-.4-.25 1.65-.4.75.7.45v.65l-3.2-.5-.9-.35-.25 1.6-1.75-.3-3.25 1.7-.95-.15-.5-.95-.1-.9-.65-.85-.35-.1-1-1.5.3-1-.2-2.1-1.25-.65.1-.8-.45-1.15.1-.35-3-.6-1.3.25-.2-.8-.85-.15-.1.75-.5-.1v-.75l-2.5-.35.35-.85-.45-.7 1.25-.75-.75-1.35-1.3-1.85-2.5 1.65-.35.5.25.85-.15.85-3.9-.5-1.55-.3-.5.5-.5-.1-.5.45-.25.75h-1.5l-.6-.8-1 .5-1.3 1.5-.15 1-.5.1-.25 1 .9.1.2.9h-.6l.1.7-.75.2-.75-.2-.2 1.6-.75 1.3.1.45-.95.25.05.35-1.3 1.45-.5.1-.5.6-.8-.05-.7.85-.5-.1-.85.4v1l.25.75-.5.15-.75 1.35-.2.85-.95.6v1.15l-.8 1.55.55.25.2 1.8-.5 1.95-.45-.2-12.65-.65-9.95 1.85-.05 5.85.1 1v8.5l4.95 6.85 4.7 6.5 6.1 24 3.65 14.25-3.5 4.1.85 4.5-2.35 3.65 7.45 19 1.5 9.75-.1.9.65.4 1 1.5-.4 2.75-.6 2 .25 1.75-.2.6.2 1.5.7.25.4.5.2 1.65-.6.5.05.8-.7.65.55.7 1.3-.45 1.15.4.3.85v1.4l-.5.15-.4.85.2.65-1.7 1.15.05.75-.5.9-.4.1-.6 1.25-.55.65-1.3.7.65 1.25.8.35-.8 1.7-.8.1v1l-.6.8-.8.5-.55 1-1.15.3-1.25 1 .35 1.3-.3.85-.65.3-.65 1.3.15.8-1.1 1.1-.5-.1-.1 1.35-.5.3-.3.9.4.3-.1 1-.7.5-.5 1.1.15.8-.5.15-.85-.35.1 1.1-.8.35-.35 1 .65.7-.3.75-.9 1.5-1.4.5h-.6l-.65 1.7h-1.85l-.65 1.5-1.5.9-.55-.25-1.15-1-.3 1.1.65 1.95-.2.4-1.3-.3-1.4.7-.25-.4-.85.15 1 1 .65 1.1.5 1.3 9.15 21.35-.8.2-.55.5.1 1.35.5.65v1.1l1.1 1.05 1 1.65.8.6.7 1 .4.85.8 1.3h.4v1.8l-.3.6.15 1.1-.3.65-1 1.05.15 1.25-.5 1.3.35.4.1.6-.4.6.1.8-.15.8.35.3.35 1.35-.8.7.55 1.05.05.65.85.15v.65l.4.6-.7 2.5-.6 1.2-1.25.45-.75-.25-.25 1.2-1.05.7-.5.9-.75.8-.75.1-.5.5-.1 1.45.9 1-.25.55.1.85-.9-.05-.75.5.7 1.6-.3.8 1.4 3.7-.15 1.3h-1.5l-.6.3-.65 1.8-.6.15-.65-.5-1.35-.3-.25 1 .5.5-1.05.5.05.65.75 1.15.8.45 1.8-1.35v-.5l.55-.6-.2-.7.5-.15 1.6.3.25.65-.3.45-.3 1.35.05 1.2.5.9-.85.15-.8-.5-1.2.45-.1 1.15-.5.25-1-.2-.5.2-.2 1-.65.2-.9-.75-.7-1.15-.75.8-.2-.5.3-.7.5.2.45-.75-.25-.8-.5-.35-.45.35-1.4-1.8-.7.15-.35-.35.1-1.35-.25-.45.35-1.05-.3-1.3-.75-.35-.35-1.5.65-.05-.4-1h-.45l-.5-1 .4-.25.35-1.2-.65-.45-.1-.5-.7-.15.4-1.1-.35-.45-.8-.25-1 .1-.45.65-.8-.25.1-1-.55-1.5.3-1-1.1-1-.6-1.9-.75-.7-.55.15-.6-.6.5-.35v-1.05l.6-.8-.15-.5-1-.75-.7.3-.55.8-.65.25-.8-.35-.5-1.3-.95-.85-.5.2-.9-1 1-.2.25-.45-.7-1.3.5-.7v-.65l.9-.5.25-.7-.1-.85-.5-.5-.6.15-1.7-1.1-.6.65-.5-.5.05-.5-.75-1.3.1-.9-.9-.85-2-1.35.05-.65-.6-.4-.1-.6.35-.7-.65-.1-.95-2.15-2.9-.5-1.4.85-.75.1-.75.7-1.9-.25-1.1 1-.1-1.35-.6-.7.3-1.5-.3-3.15-1.15-2.2.15-.85-.8-.3-.3-1-1.4-.2-.95-2.45-.5-.5-.25-.95-.5-.3.35-.75-.5-1.4.2-.45-.7-.5-.4-1.7h-.35l.15-1.95-.4-.95.2-.35-.35-.85.1-.75-.85-1.4-.7-1.9-.8-.15-1-1.35-.5-1.1.1-1.3.55-.65.5-1.5.1-.75-.9.15-.4-.9-.2-2.15-.5-1.55-.6-.45.1-1.65-.1-1.5.05-1.1-1.65-.85-.6.25h-1.05l-.2-2 .5-.75-.6-.55-1.1-.25-.65-.8-.8-.2-1.35.4-.25.8-1.75.15-.25-1h-.4v-1.25h.95l.8.3.6-.85.35-.15.95-1.1-.15-.85.35-1.35-.3-.7.25-.85-.65-.5-.7.3-.3-.75-.7-.1.25-1.35-.55-.4-.1-.55-.7-1.45.1-.8-.8-.8-.15-.75.3-1.8-.45-1.05-.3-.1-.05-1.15h-.85l-.45-1.5-.4-.5.35-.75.65-.5.1-1 .55-.4.1-.9-.15-.8-.75-.5.1-.7-.45-1.1-.45-.5.25-1.35-.45-1.15.3-.5-1.2-1.4.4-1.2-.25-1.2-1 .1.15-.75.5-.9-.85-.75-.45-1.5-.5-.25-.85-1.2v-2l.5-.6.65-.35.5-1.1-.3-1 .4-.95v-.7l-.55-1.35-.35-1.85-.5-.65-.9-.55v-1.35l.3-.65-.7-1 .5-1.1-.2-.75H500l-.75-1.2.8-.15.15-.5 2 .6.4 1.3h.7l.55.5.1 1.15.9 1-.4 1 .05.95 1.1.1.35 1.3-.1.6.25.85.95.1.7.35.05 1.5-.4.6.2.6.5.35.85.15.45-.75.85-.5 1 .2.05 1 .25.65h1.3l.6-.6-.25 2.95v.95l.75.75 1.3.5.15 1.15.9.6.9-.1 1 .85.55.9.7.05v.6l1.7 1.55.7.4 1.15-.6 2.1 1.5.1.55.8 1 .3 1.05.9.5v1.15l-.4.6-.15 1.45.05 1.2 1 2.15.35 2.2.5 2.15-.35 1v.85l.5 2.65.65.7h.7v-1l-.5-.75.2-.8-.55-.8.75-3.35-.5-.6-.25-1-.15-1.75-.45-.9-1.3-.6.5-.6 2-.8.75-.8.55-.05.35 1 .6.2 1.75 1.3.55.75 1 .35.6-.8 1-.4-.4-.4-.8.55-.35.75h-.5l-1.7-1.7 1.2-1.45-.4-.65 1.05-1.15.5-1.35-.25-1.3.3-.4.8.5-.05-1.95-.25-.75.5-.1.9-1.1-.95-1.2-.6.9-.8.5-.4 1.35-.6.25-1.2-.5 1.5-.9.1-.5-.75-1.25-.3-1 .15-.5-.5-.65-1.2-.6-.6-.75-.05 1.55.35.85-1.25.15-.15.9.65.25-.35 1.4-.65-.5.1-.5-.25-1-1-.25-.45-3.05-.9-.5-2.1-.7-.3-.65-.3-2.15-.35-.5-.85-.25-1.1-1-.85-1.2-.5-1.05-.35-.1-.5-1.1-1.4-.95-.05-.95-.4-1 .9-.65v-.9l-.3-1 .1-.7-1.05-.75-.2.8-1-.1.7-1.45.55-.55.15-.7-.05-1.3-1.2-1.1-.9-.25-.75 1-.5-1.65.45-.7-1.1-.35-.55.6.5 1.9-1.55.85-.9-.05-.65.5-1 1.15-.4 1-.5.4.5.75 1.5.6-.2.55.35 1.4-.9.65h-1.2l-.9-.45-1-1-.65-.1-1.15.15-.6-.2-.1-.7.6-.85.9-.8.8-1.15.6-1 .5-1.4.25-1.4.3-2.8.15-2-.2-2.75-.65-4.4-.5-2-2-5.95-1.3-3-.3-.9-2.65-5.8-.7-.3-.65-1.35-1.7-.7-.5-1.25-.6-.1-1.8-1.45-.5-.65-.15-1.05-.75-.45-.55-1.1-1.15-.7-.95-.7-1.55-2.05-.25-2-.55-.35-.9-1.5-.6-.15-.65-1h-1l.15-1-.8-.15-1.6-2.75-.05-1.25-.3-1-.9-.7.15-.6-.5-1.15-1.35-1.5-.75-1.35-1.2-1.1-.95-.2-.95 1h-.3l-1-1-.75-1 .15-.65-.3-.45-.45-1.85.2-.4.9-.4.4-.5-.15-1.4.55-.35.75-.9-.3-.4-1.25 1.75-.5-.2-.4-.9-.5-.3.05-.7-.4-.4.1-.65-.6-.6.55-1v-.75l-.35-.6-.55-2-.5-1-.15-1-1.3-2.75-2.1-3.9-1.2-2.4-.75-1.25-2-2.8-.3-.7.15-.5-.8-.7-.4-1-.7-.7.1-.4-.95-1.9-1.1-1.2-.75-.1-.1-.65-.8-.65-.85-.35.65-1.4.5.25 1.1-.35.75-.95.3-.9-.1-2.2-.6-2.6-.8-1.7-.8-1.15-1.2-1.05-.4-.1-.45-1.7.15-.5-.5-.8-1.3-.65-.3-.8.3-.2v-1.1l-.6-.1-.2-.65.2-.65-.4-.35-.15-1.55-.5-.7-.65-.3-.5-1-.85-1.3.3-.7v-1.3l.5-.65-.15-.55.45-.65v-.55l-.35-.75v-1.1l-1.05-1 .15-.75-.6-.55.15-.45-.45-.9.55-.95.15-1.1-.3-.6-.65-.35.1-1.15-.45-.4.2-.75.45-.25.35-1.75-.1-1.75-.6-2.1-.95-2.05v-.65l-1-.95-1.05-.1v-.5l-.65-.3.05-.5-.9-1.5-.65-.4v-.55l-.8-.9.7-.05.85-.5.5-.6.3-1.2-.1-.9-.3-.5.5-1.85-.2-1.05-1-1.8-.8.1v-1.25l1.55-.8.25-.9 1.7-.4.65-.75.2-1.25 1.15.3.7.4.9-.5.5-.85 1.2-2.65.3-1.5-.5-.55.75-.3.4-1-.1-2.5-1.1-1.15.2-1.45-.5-.35.25-1.35.55-.65-.15-.55-.7-1.1 1-.9.2-.55.1-1.35-.35-1.1-.85-.35-.6.3-.55-.7-.05-2.8-.35-.2-.4-.85.2-.8.65-.1-.15-.85.3-.7.7-.4.2-.9-.8-.5-.5-.75.15-.85.5-.4.1-.75.85-.45 1.2-.4.85-1.75.45-.25.2 1.9.4.85.9 1.1.5 2-.7-.5-.5.3.7 1.5.6-.3 1 .65h1l.4.9-.5 2 .35.95-.1 1 .5.05.5-1-.1-2.1.7-.6 1.85.65.4.7.55.5 1.35-.65.8.05.25.4.3 1.6-.2 1.4.8-.7.9.2.5.4 1.9.75 1.5.2.85-.1 1.25.7-.2.75.7.5 1.3-1.25 1.5-.1 1.8-.6.9-.9.45.25.35.75.8.55.3 1.5.4 1 .6.45.55-.25.9.45-.6 1.1 1.05.15.8-.25.25-.85 1.35.8.6.8.6 1.35.35.4.3 1.2.5-.3-.05-.65 1.4.6-.05 1 .85.5-.2-1.05.8-.7.8 1.1.1.65.85 1.6 1.1-1.5-.2-.75 1.1.1.6-.3 1.3.6-.1-1-.75-.6-.75-.25-1.5-.85-1.1-.3-.6.25-.35-.9 1.25.15 1.5.6 1.45.35 1.85.15 2.55-.05 2-.35.95-.3 2.05-1.05.4.15-.8 1.1-1.1.65-1.35.5.6.5 1.65.1 1.65-1.1.05-.7.75-1.5-.2-.4-.1-1.15.55-2.3-.1-1.55-.75-.15-.4-1.8-.5-1.3.1-.8.75-.4.9 1.25v.7l.65 1.05.6.4.7-.2.7.3.25.8-.5.9.35.75.85.3.25.5-.4.5-1.05-.6-.5.35-1.05 2.3-.5.7-.15 1.3-.5.1.25 1.4.75.7.6.2.2 1.15.7-.6-.55-3.2 1.2 2.65 1.25 1.85.25 1 .45-.25 1 .9 1.15.65 2.6.25 1.6-.3.65.15.25.6.6.3.3-.35 1 .35.2.4 1.45.9 1.65.4h2.55l1.75-.55.65-.8.45-.15.4-1 .75.3.3.55-.45.9 1 1.2-.05 1.25.35.6 1.2.85.5.85.5.05.2 1.1 1.3.75 1.85-.35.8.3.85 1.1 1.3.35.35-.25 1.1 1.1 1.05-.05 1.65.9 1.05-.2 1.35.2.6-.15.75.25.7-.05 1.9.7.6-.3 1 .6v1.05l-.5.5-.35 1.15.85 1.7.6.5.35.55 1.5.5.35.4h.7l.4.65.7.5.5 1.3.5.25 1.05 1.1 1.75 1 1.95.6 1.25.3 2.55-.3.75.8h1.2l.5.45.75.1.4 1-.1.5 1.2.8 1.4.1 1.65-.5 1.45.4.5.7 1.9.75h.4l1 1.2 2.15 1.2 1.2.2.55.7.6-.2.85.25.8 1.25.5.35 2.35.35.4.4h1.4l.85.5-.25.9.5.5.9.25.85.45 1 .05.85 1.2.05.7-1.15-.3-.4 1.1-.7-.6-.7.15-.15.5 1.35.45.85-.9 1-.25v-.9l1.7.35 1.4-.15.6.4h1.25l.5.45.85.15 1.5-.35.25.9-.3.35.15 1 .5-.1-.25-.75v-1.4l.35-.65 1.35.35.6.5 1.25.3 1.45-.1 2-.75.9.45-.2.4 1.35.2 1.2-.05.95.55-.35 1.25.05 1.15.4 1.1-1.2 1.8.2.5.75-.25.3.5v.95l.5.1-.1.8.8.4 1.25-.25-1.1-1.15-.8-1.65-1-.75.7-.9-.5-2.1.4-.7 1-.4.75.1.5.4.85-.1 1.6-.65.85-.6 2.5-.3h1.2l1.2-.5 1.8-.95 2.55-1.7.8-.75v-1l.55-.5.45.85.65.2-.2 2.05.35.65-.4 1 .4.45 1 .4.5 1-.15.3.9.8.3 1.35-.75.5-.15.65.5.85.25 1.45.5.7-.5 1-.5.05-.15 1.25.6-.5 1.4-1.5-.05-.65h1l.25.45-.3.65.15 1 .7-.35-.25-.65.25-.7-.5-.45-.55-1-.4-1.1-.85-.5.5-1-.5-.65.45-.5.1-1.5 1.15-.95-1.5-.75-.85.8-.5.2-.5-.85.35-1.2h1.3l1.3-.3 1.55-.75 1.65-1.15.95-.9.3-1.2.55-.05.5-.6-.5-1.5.5-.6.85-.1zm-194.3-60.35.5-.5.95.85-.85.65-.35-.15zm-83.05-89.9.7-1-.9-.4-.15-1.1.5-.3-.45-1.15 1.15-1.1-.3-1.6.3-1.4.45-.1.9-1.65-.35-.5.9-1.55.1-1.2-.3-1.35-.35-.5v-1.2l.5-.9-.5-.65.25-.75-.7-2.05-.4-.25-.15-1.15.25-1.3v-1.65l.2-.25-.85-1.25.1-1.25.2-.9 1.5-.05 1-1.25 1.8-.5.45-.3 1.5-1.8 1.4-2.3.55-1.9.2-1.15-.35-1.15.2-.5-.15-.7-.65-1 .25-1.15-.2-.25.1-1.15.9.35.5-1.3.85-.7.85.85.85.35 1.15.7.4.75 1.2.25.9-.5.35.8.55.65 1 .7 2.8 1.4.5 1.05 1.8 1.85 1.85 1.55 1.5 1.1.05 1.1-.35 2.7-.5 4.75-.05 2.05.35 3.2.7 2.85 1 1.9.6.95-.3 1.85-.9 2.3-.45.4-.5 1.45-.15 1.2.05 1.7.35 1.95.3.9.9.65 1.5.75.25 1.15-.25 1.6-.45 2.2.1 1.95-.65 1.25.2.5-.55 1.2-.5.5-.1 1.65-.75.45-.75.9.2 2.15-.5.1-.4.65-.6-.4-.75.05-1 .45-.15.75-.5.65-1 .35-.5.5-.15.95-1 .5v.5l-.75.7-.8.35h-.75l-.85.85-.8-.3-.6.1-1.15.85.1 1-.85.4-.5-.75-.7-.05-.65.3-.8.75-.25.75-1.2.5-.75.85v.6l.85 1.2v.55l-.55.6-1.1-1.6-1.25-1.35.8-.95-.4-.65-1 .15-1.2-.25-.65-.5-.1-.5.2-2-.6-.3-.2-.7.25-1.15-.75-1.15-.5-1.2.7-.3.5.3h1.1l.8-1.05-.35-1.45-.15-1.65.1-.8.6-1.35.1-.8-.5-.2-.2-.85.6-.6-.45-.3.2-.8-1-2.35-1.05-.6.1-.55-1.4-1.7-1-.5zm-1.85-33 .1-.75.85-.5v.7l-.4.8zm1.2 1 .4.6-.45.65-.4-.95zm93.85 92.1.35.6v.85l.2.7-.4 1.05v2.9l.2.3v2l-.5.75.7.95-.4 1.25.2.5-.35.8.3 1.05-.55 1.15.1.55-.6 1.15-.75.55.25.85-.05 1.4-.4.45.35 1.9.3.9-.25 1.5-.6 1.25-1 1.15-1-1.15-1.1-.5-.45-2-.45-.2-.2-.7.65-2.4.2-.25-.65-1.5-.05-1.05-.6-1.3v-.85l-1-.8.65-.6v-.85l-.55-.5v-1.2l1-.25 1 1 .6-.3.9.45.9-.6.6-1.25.95-1.25.05-.7-.65-1 .1-1.1.5-1.15.35-1.35.45-.3.65-1.25-.3-.7zm4.8 5.65.1-.7.6-.35.2-.8.7.6 1.3-.35 1.1-1.1.6-.85.3-1.1-1-.7.4-.5.3-1.1.85-.3.6.1.6.5.85.35 1.65-.25 1.2.5 1.4-.75.6 1.8-.5.45.1.7 1.15 1.15.05.35-.6.75-.75.5-.65.05-.25.8v1.1l.35.35.15.8-.7-.25-.55.6-.55.9-.5.05-1.5 1.05-1 .55-1 .1-1.25-.8-.8-.75-1.4-.35-.4-.95-.2-1.05-.8-.75zm3.2 36.15.55-.9.1-1.2-.35-2.75.15-1.2 1.9-1.6.4-.65.65-.35.4-.8.45-.35.4-1.2.4-1.7.8-.4.15 1.15.7.9-.25.8.85.9 1.35.15.55.7.65-.2-1-2.25.05-.8 1.35 2.5 1 1.5.7.65 1.15.7 1.3.95 1.2.4 1.7-.3v.85l1.15 2 .8.95-.45.65-1.45.1-1.65-1.55-.75-.05-1.05.35-.2.5h-.85l-1.15-.55h-1.05l-1.25.65-.7.6-1.05 1.5-.8.4-.75-.4-1-.1-1 .5-.25.75-.5.25-.95-.1-1-.45-1-1.4zm5.4-18.1.3-.75.75.75.35.75-.25.75.65 1.85.8 1.35-1.1 1.05-.4-.35-.15-.7-1.25-.95v-.55l.35-1.3.05-1.35zm-9.05 13.9.8.2-.2.95-.55.2-.75-.35zm20.8 8.5.3-.8.55.4 1 1.5 1.1 1.25.85.65 1.5.8.7.75-.1.45-2.4-.1-.75-.35-1.1-.9-1.1-.2-.7-.7-.1-.65z"/>
    <path region="143" short-name="Franklin" long-name="Franklin" value="7" d="m608.05 925.97.6.5-.2.4.7 1.1-.3.5-1.45.4zm1.1-2.35.65-.8.35.4-.2.8-.65.15zm-34-63.45.5-.9 1.1-.7.25-1.2.75.25 1.25-.45.6-1.2.7-2.5-.4-.6v-.65l-.85-.15v-.65l-.6-1 .8-.75-.35-1.35-.35-.3.15-.8-.1-.8.4-.6-.1-.6 10.9 2 13.05 8.7 14.35-2.6 8.9-1.65 10-11.9 8.65-10.35.3-1.6.65-.85v-.8l-.5-.5v-2.35l-.4-.25-.3-1.25.1-1.5.95-.8.5-.1.35.65 1-.3.95.5 1.3-.3-.1.85 2.5.1 1.6 1.75h1l.6.4h1l1 1.35v.7l.5 1.2.75.7h.9l.4-.3.35-.9 2.7 1.1 1.35.7v.75l.5.75-.25.6.25.85.4.3-.05.9.85.5 1 1.6.6-.8.15-1.25-.2-.55h1.6l.65.6h1.05l.3-.85 1.05-.5 1-.15.5-.8-.8-.4v-.6l-.4-1.65-.55-.35.15-.7 1.45-1.25 1.45-.5 1.5.9 1.25-.15.7-.25.7.3h1.15l.1 1.75.4.65.8.25.95-.5 1.2.7.65-1.2 9.75 1.75.5.1.15.75-.5 2.6 1.45.1.25.65-.2 1.75h.65l.3.5-.75.45-.75-.15.1.75 1 1.65.8.5.7.1 1.2-.6 1.65-.3.1 1.05.7 1 1 .35 2.15-2.15-1.25-1.45.7-.6 1.3 1 1.5-.25 1-.75.65-.1 1.85 1.15.7.75.1.6.55.55v1l-.5 1.1.55 1.2-.15.55.5 1 .5 1.6-.1.8.65.85-.15.6-.8.75-.5-.1-.75.45-.8-.2-1.15-1.95-.5-1.55-.7-1.1-.45-2.1-.65.15-.55.6-.35.9.7.25.3.45-.65 2.1-.55.15.05 1.3-.5 1.3.15.4-.65.5 2.05.7.5.5.8.15.85.7v.9l-.4.65-1.5 1.5-.7-.45-1.15 1 .9.4-.3 1-1.85.3.5 2-.55.1-1 1.9.25.75-.25.4.85.4-.6.7-.2.85.35.8 1 .85-.1.55.5.9v1.1l.3 1-.15.65.1 1.1-.45 1.3-.5.5-.8 1.5-.2 1.7-.45.75-.85 1-1.15.35-1.85-.6h-1.4l-1.4.85-.65-.75-.9-.2-.95-1.4v-1.4l.15-.75-1.45-.35-.6-.6-.4.5h-.65l-.4.65h-.8v-.7l-.8-.1.7-1-.3-.3.1-.9-.5-.5-.05-.7.5-.6 1.1-.25.55.1.2-.6-1-.9-.5-1.25.35-1.2-1-.5-.15-.8.25-.9-1.4.05.35 1.25-.25.55.5 1.2-.6.75-.8.55.35 1-.5.75-1.1.8h-.45l-.9-1-1.65-.35-.5-.6.1-.8-.7-.15-.7-1.15-.8.35-1.3-.45-.5-1.7.7-.1.45-.8-.1-.75.5-1.3-.25-1 .4-.85.65-.7v-.9l.4-1.6.5-.5.35-1.45-.05-.65.2-.95.8-1.3.75-2.2.35-.55.35-1.45-1.5 1.05-.9 2.7-.5.85-1.4 2.65-.05.75-.95 1.25.2 1.3-.45.4h-.7l-.15.8-.75.25.7.85.15 1.75-1.5-.3-.5.7.85.4.5.6-.7 1.05.4.95-.55 1.05.4.25.15 1.2.8.55.8-.4.9.6-.45.7.85.15.55.85 1.75.95v.5l.85.5.65 1 .3-.15 1.1.9h.85l.3.3.15 1.5 1 1.3 1.15.35.15.65.7.25v.9l-.4.5h-.9l-.55.65v1l-.45 1.4-.65.6.15.9-.3 1.1-.6-.3-.6-1.85-.55-.5-.6-.05-1.9.7-.9-.3-1 1.2-.15 1.35-.8.1-.6-1-1.1-.3.4 1.5.35-.5.6.3.3.65 1.9.3.4-1.05.7.4.85 1.05 1.35.3 1.25.7v.65h-.6v.95l-.2 1.25-.5.95-1.35 1-.15.95-.35.5-.8.3-.2.65.7.65-1.1 1.4.75.6.6 1.45-.4.1-.9.85-.5-1-.85.1-.85-.2-.1.7-1.35-1h-.65l-.55.5-.25 1.3-1 .2-.6-1.15.25-.65-.8-.25-.4-1-.45-.1-.55-1.05-.3.95.3.5.25 1.55-1 .35.2.75 1.05-.8.75.1.5 1.25.6.3 1.3-.55.75.9.4-.2 1 .15.25.7 1 .3-.1.95.45.15-.35 1.3-1.2.95-.55-.2.4-1.3-.35-.8-1.05-.15-.7.3-.15.7-.5.2-1.15-.05-.4.5-.3 1.25-.7.5 1.35 1.2-.15.45.65.7.4-.1.8-1 .4-.75.9-1 .45.5-2.15 2-.35.8.35 1.5-.15.7-.65.35-.55-.25-2.3.4.2.9-.35.2-1-.25.35-1.5-.85-1-1.15 1.75.5.7-.55.6-.3 1.2.75 1.05-.35.5.05 1.35-.4.25.45.8.8-.8.75-.15.55-.45.6.35.45.75-.55.65-.1 1 .4.8-1.6 1.5-1.1.8-.75-.05-.1.65h-.6l-.5.35-.2 2-.85-.8-1 .25-.8-.1-1.8 1.4-.15-.5 1.15-.9.2-.65-.5-1.3-1.6-1.65h-1l-.45-.55-1.75-.3v.65l-1.45.4-.5.75-1.15-.7-.75.25-.5 1.1-.35-.25-1.15 1.5-.65.25-.75-.45-.65.25-.65-.5-.6-2.3-.6-1.45-.9-.3-.7.05-.65 1.6-.65-.25-.35-1.15.5-1 .1-.75-1.35-.2-.85-.6-.8-1.55-.9-.5-.8.85-.6-.2-.2-.85-.4-.4.75-.9-.9-.7v-.65l-1.75-1.65-.4-.7.35-.7-.25-.35-.2-2.15.35-2.3-.5-.35-.15-.7-.9-1.4-.3.5-.6-.05-.4.95-.05 1.05.2 1.3.55.6-.5.45.15 1.55 1.1.85.1 1 .65.2 1.25 1 .15.6-1.9-1.05-2.35-1.1-.95 1h-1.4l.15-.5-.8-.45-.5.2-1 1.4-.8.8-.4-.5h-.75l-.6.6-1.1.1-.6-1.1-1.1.4-1-.25-1.1.15-.9-.1-.55.5-.9-1-.75-.25-1.25.5-.75-.9-.1-1-.85-.65-.55.25-.7-.35-1.95.9-.6.8.2.65-.5.6-2.6 1.1-1.4-2.15-1-.3.35-.85-.3-.55.7-.75-.1-1.55-1.4-1-.85-.25-.95.2h-1.5v-.4l-.85-.4-.75.6.5.8v.95l-.4.5-.1.8.35 1.85-.25 1.15-1 .6-1.55-1-.3-2-.4-.85-.65.1-.7.7-.65-.85v-1.2h-.85l-.5.3.35 2 .3 1-.35.3-.4-1-.75-.3-1.2 1.1-1.35.05-.1 2.2.5.9v.8h-1.35l-1-2h-.9l-.35.35-.35 1.5-.85.15-.9-.6-.8.15-.7 1.65-.6-.9.4-.95.1-1.4.25-1.35-.25-.45-.1-.95.35-.15.25-1.45-.7-.8-.05-1-.7-.85v-1.65l.4-1.15-.7-1-1-.2.3-.55-.6-.85-1.25-2.35.25-.75-.5-.85-.35-1.9-2-.15.35-.75-.1-.9-.6-.9-.75-.5-.9.15-.45-.25-.9 1.15h-.8l-.15-.5-.7-.4.85-.55.25-1.25 1.25.3.75-1.7 1 .7.15.65h.55l.5-.8-.4-.85.55-.25 1 .85.3 1.5-.15 1.1-.5.75v.7l.8.45.6-1.4-.35-1 .35-.3.1-1-.5-.25-.35-2.25h-1.5l.65-2.15.5-.5.5.8.5.3.6 1 .75-.1.8.3 3 .1 1.65.75.65.65.65 1.7h1.05l.15-.8-1.45-1.1-.7-.35-1.05-1.05.85-.2.55.55 1.2-.15.75.5.25-.5.6-.15 1.15.8 1.05.1.6.4.15.65-.25.7.5.65-.75.4.35 1.1h.3l.6 1.7v1.65l.85.5.3.7.5-.1.6.5.85-.25-.5-.75-.65.55-.7.05-.25-.7-.5-.2-.3-1.85-.7-1.95.65-.7.7.4.15 1.2.65.65.3-.9.5-.45 1.1.2-.05-.6h-.8l-.15-1-.55-.7.05-.35.9-.4 1.25-.1.6.5h1.75l.3 1.6.7.95.75.15.15-1.05-1.15-1.7h.9l.5-1-.5-1.5.15-.85-.2-.6.15-.75.5-.5-1.4-.2-.1.7-.5.25-.4-.7-.55-.4-.15-.65-1.3-.25-.65 1.35-.6-.9v-.55l.45-1.6v-.65l-.7-.9-.6.3-1 1.1-.1.7.5.5-1.5 1.5-.5 3.2-.6.5-.6-.2-1 .1-.5-.5-1-.1-1.4-1.3-.75-.15-.65-1.55.1-.8-.65-1.4-.55-.15.35-.9-.4-.4-.65 1.2.75.2-.1.5-.7.3.1.5-.35.8 1 1-1 1.2-.8-.45-1.05 1.1-.35-.5-1.3-.5-1-.05.35-1.7-.25-.3-1.8.5-.45-.3-.15-1 .4-.4-.2-.75-1.3-.3-.25-.9-.5-.2.25-1.2-1-.65.5-.35.55.05.8-.55.2-.65-.55-.3-.2-.65.45-.6.1-2.3.35-.75-.85-.95-2 .2-.15-.7-.85-.4-.45-1.25-.7.2v-.65l.3-.6-1-.8-.25-.7.5-.5.7.35.55-.3-.5-.75.2-1-.75-.5-.1-1.45.45-.7.75-.2zm57 57.4.6-1.35.8-.2zm-17.2 1.8.25-.25 1.35.4 1.35-.2.05 1.4-.85.25-.75.9-1.5-.2-.65-1.7zm73.8-25-.25-.6.6-.75.45.4-.15 1.25zm18.15-31.85-.5-.1.7-1.15h1.05l.05-1.3-.55-.75.35-.35 1.75-.65.65.5v.5l1.45 1.05-.2-1.3.75-.65 1.5-.75.85-.1.05-.85-1.5.6-.1-.95-.7-.25-1 1.5-.5-.55.3-.85-1.5-.3-.2-.85.8-.3.1-.65.5-1-.1-.4.5-.7v-.5l.6-.1.65-.5.9-1.3.2-1h.6l1 1.05-.5 1.8.4.7.8-.15.05 1.1.8.85.75 1.7-.15.55.7.3.45.6-.05.8-.6.55.05 1.8-.35.7.25 1.2 1.25.3-.1.45.8 1.5-.5 1 .3.85-.1.75.7.7h.75l.75 2.5v1.85l-.25.95.05.8-1 .2-.3-1.5-.8-.05-1.7.6-2.3 1.5-1.65 1.5-1.6 2.15-.7 1.25-.6 1.5-.2.9.4 1.3-.2.6.25 1.2-.35 1.1.1.85 1 2.1.8.5.7.2.35-.6.65-.25.85-1.65 1.25 1.5.2.65v1.65l-.3.45.05 1.15-.8-.15-.8.65-.3 1.1-.7.05-.4.4-.15 1.5-.5.2-.4.7.5 1.15-.1.9-.85.2-.6 1.35-.2 1.6-.4 1-.05.8.4 1.3.25 1.7-.4.75-.65-.2-.8.9-.7.4H708l-1.25-.85-1.6-2.2-.6.05-.95.65-.15-1.1-.5-.75.55-.5-.5-.45.1-.7 1-.4.25-1.15-.95-2.1-2.75-.5h-1.6l.3-.95.7.55h1.4l1.6-1.1.1-.8-.25-.5-1.3-.5-2.4.8-.05 1.2-.3 1.25.35 1.6v.9l-.5.05-.5 1.5-.6-.05-.5.35-.3.7.7.7-.5 1.5-1.25-.2-.35-.55h-1l-.45.4v.6h-1.1l.3-.5-.6-.4-.25-.65.25-.65.05-2.35-1.6-1.5-.5-1.35-1.75-.8-.5-1.55.8-.45.5-.7 1.25.3.5.45.5.85.35 1.3.85 1.25.4.9.7.4.2 1h.7l.15.8.95-.3.9-.85-.6-1 .6-1-.6-.5 1.2-.9.3-.5-.25-1.15-1.25.65-.2-.9.35-.3-.25-1.45.15-1.25.5-.15.6-1.2-.6-1.7.2-.5-.25-2 .9-.6-.1 1.35.8.3v.45l.5.6-.25 1.2.2.35 1.15.25.7-.9.2-.75-.1-.7 1.4-.1-.3-1.2-.65-.5.1-.7-.35-.95.4-.65 1.2-.6.3-.45.1-2.5 1.25-1.35.6.1 1-.55v-2.4l.35-.75 1.05-.85.35-2.9.35-.5.2 2 .7 1.2-.4 1.2.85 2.75 1 .2.8-.55.85-.85 2.1-3.15.35-1.2v-.8l-.85-.65.6-1.2-.05-.55-.8-.35-.15-.75.75-.5 1.25-1 .35.8.6-.05.15-.75.55-.35.35-1.4-.2-1.75-.65-.9h-1.6l-.25 1-1.15.3-.5-.5-.9.35 1-1.75-.6-.35h-.85l-1.15 1-1.75.5.1-1.2-.85-.3-.7.2zm-14.1 16.5.85-.65.1.8-.3.4zm-1-4.45h.65l-.35 1-.4-.3zm-10.3-24 .5.25-.75 1.3-.4-.2zm-2.1 5.15.45-1.9 1-1.8.4.15-.25 1.1.15.55-.5 1.15-.4-.3zm2.3-5.5.1-1.05.5-1.3.5-.5.4.45-.7 1.65zm26.3-38.3.25.45 1.2.5-.15-1.4.6-.75 1.4-.2-.05-1.15.7-.7 1.5 1.45 2-2.2.95.5-.25.85 1.1.7.5-.5 1.25 1 .5-.05.9 1.05.75-1.65h.75l.25.2.05 1.2.6.3.4 1.5.7.25.5 1.05.6.4.95.1.1 1.4.5.5.75.25 1.35-1.3.1-.85 1.05.3-.1.5.4.95.5.3h1l1.4-.4h2.9l1.5.45 2.05 2.2-.45.15-1.85-1-1.8-.15-2.7.65-1.4.7-1.3 1-1.2 1.25-.05.35.7.8.1.45-.7 1.3-.3 1.15-.65 1.8.15.75.5.5 1.1-.15.1 1 .85.2.85.85.55 1.4v1.15l-.2 1h-.55l-.75-.8-.7.15.1.85-.6.8.3.75.6.5.5 1.35.5.1.6-.4.5-1-.15-.4-.75-.3.05-.75h.7l.6-.35.6.9v1.9l.3.5-1.1.1-1 .35-.85.55.5 1v.8l-.75 1.3-.5.4-1.5.35-1.55.65-.2.5-1.35.4h-1.15l-1.5.45-1.6.75-.65.95-1.35-1.8.95-1.2v-1.4l-.9-1.1-.85-.45.7-2.8-1-.9.55-.45.9-1.6v1.5l-.25.85 1.2.7.15 1-.2 1.3 1 1.65-.2.65.5 1.15 2.1.6.85-.25 1.15-1v-1.85l-.4-1.3.4-1.25.65-.7-.3-1-1-1-.5.35-.85-.1-.6-.95.5-.4.15-1.1.35-.85v-1.5l.65-.5.15-1.25.85-.55.65.1.6-.45-.25-1-.85-.35-1.3.35-.3.3-1.15-.45h-.95l-.5.5.3.7-1.4 3.1-1.25-.65.3-.85v-1.15l.6-1.25v-.5l-.75-1.85-.45-.3-.15-1.1-2.1-.5h-1.15l-.65-.5h-1.1l-.2-2.1.4-.3-.45-.65-1.15-.85-1.15-2.15-.9-.75.3-.9-1.25-.8-1-.25-1.25-.9-.3-.9zm19.45 35.75-.45.8-1.35-2.35 1.15-.25z"/>
    <path region="144" short-name="Lyons" long-name="Lyons" value="7" d="m721.9 809.87-.75-.05-.75 1.65-.95-1.05H719l-1.2-1-.5.55-1.15-.7.25-.85-.95-.5-2 2.2-1.5-1.5-.7.75.05 1.15-1.4.2-.6.75.15 1.4-1.2-.5-.25-.5-.15-.6-.5-.5h-1.5l-.65-.65v-1l-.35-.65.4-1.25-.3-.5-2.6-1.5-.45.25-.55-.5-1-.3-1-1.35-.5-.2-.75.25-.65.6-.2 1.35.85.2.7-.35h.85l.8.7 1.1.6-.4 1.1-1 1.15-.85 1.75-.3.85.5.35-.8 1.15.3 1.15-.5-.05-.4.95-.6-.15-.9.8.35.6-.6 1-1.05.15-.15.6-.8-.15-1.1 1-.7.8 1.1.2-.15.75.5.5.05 2.2v5.15l-9.75-1.75-.65 1.2-1.2-.7-.95.5-.8-.25-.4-.65-.1-1.75h-1.15l-.7-.3-.7.25-1.25.15-1.5-.9-1.5.5-1.4 1.25-.15.7.5.35.45 1.65v.6l.75.4-.45.8-1 .1-1 .55-.35.8-1.05.05-.65-.6h-1.6l.2.55-.15 1.25-.6.8-1-1.55-.85-.55v-.9l-.35-.3-.25-.85.3-.6-.6-.75v-.75l-1.3-.7-2.7-1.1-.35.9-.4.3h-.9l-.8-.7-.5-1.2.1-.7-1.05-1.35h-1l-.6-.4h-1l-1.6-1.75-2.5-.1.1-.85-1.3.3-1-.5-1 .3-.3-.65-.5.1-.95.8-.1 1.5.3 1.25.35.25.1 2.3.45.55v.8l-.65.85-.3 1.6-8.65 10.35-10 11.9-8.9 1.65-14.35 2.6-13.05-8.75-10.9-2-.35-.35.5-1.3-.15-1.25 1-1.05.3-.65-.15-1.1.3-.6v-1.8h-.4l-.8-1.3-.4-.85-.7-1-.8-.6-1-1.65-1.05-1.05-.1-1.1-.5-.65-.05-1.35.5-.5.85-.2-9.2-21.35-.45-1.3-.7-1.1-1-1 .9-.15.25.4 1.4-.7 1.3.3.2-.4-.65-2 .3-1.1 1.15 1 .5.3 1.5-.9.7-1.5h1.85l.65-1.65h.6l1.4-.5.9-1.55.3-.75-.65-.7.35-1 .8-.35-.1-1.1.85.35.5-.15-.1-.8.45-1.1.7-.5.1-1-.4-.3.35-.9.45-.3.05-1.35.55.1 1.1-1.1-.15-.8.65-1.3.65-.3.3-.85-.35-1.25 1.25-1 1.15-.3.55-1.05.8-.5.6-.75v-1l.8-.15.8-1.7-.8-.35-.65-1.25 1.3-.7.5-.65.65-1.25.45-.1.45-.9v-.75l1.65-1.15-.2-.65.45-.85.4-.15.05-1.4-.3-.85-1.15-.4-1.3.45-.5-.7.65-.65-.05-.75.6-.5-.2-1.7-.4-.5-.7-.25-.2-1.5.2-.6-.25-1.7.6-2 .45-2.75-1.05-1.55-.65-.4.1-.9-1.5-9.75-7.45-19 2.35-3.65-.85-4.5 3.5-4.1-3.65-14.2-6.1-24-4.7-6.55-5-6.8h.1l-.05-8.5-.1-1.05.05-5.85 10-1.85 12.6.65.45.2.5-1.95-.2-1.8-.5-.25.75-1.55v-1.15l.95-.6.2-.85.75-1.35.5-.15-.25-.8v-.95l.85-.4.5.1.7-.85.75.05.5-.6.55-.1 1.3-1.5v-.3l.9-.25-.1-.5.75-1.25.2-1.6.75.2.75-.2-.1-.7h.6l-.2-.9-.9-.15.25-.95.5-.1.15-1 1.3-1.5 1-.5.55.8h1.55l.3-.75.5-.5.5.1.45-.5 1.55.35 3.9.5.15-.85-.25-.85.3-.5 2.55-1.65 1.3 1.85.75 1.35-1.25.75.5.7-.35.85 2.5.35-.05.75.5.1.1-.75.85.15.2.8 1.35-.25 2.95.6-.1.35.45 1.15-.1.8 1.25.65.2 2.15-.25.95.95 1.5.35.1.65.85.05.9.55.95.95.15 3.25-1.7 1.75.3.25-1.6.9.35 3.2.5v-.65l-.7-.45.4-.75.25-1.65 2.75.4.25-1.75 3.4.55 4.8.5-.6 3 7.3 2.65 2.65.6.35-.75.7.5 1 .15-.05.4 2.3.5 3 .65 2.65-.65 1-1.15.8 1 .8.4.5 1.45.6.75-.35.45 1.55 1.2 1.6.95.55.5 2.4.4-.2 1.5 1.35.25 2.15-2.25.2 1.2 3.3 2.85.35-.65.5-.25.2-.75 1 .05.15.6 1.05.65.15.85 1.5 1.4.5-.35 1.3.75.65.85-1.4 1 1 1.4 1.15-.8.6.75 1.5-1.05.5 1.2.5-.25.85 1.1.5-.4.5.6.85-.65 1.4-1.3.6.5.25.95.6.6-.75.5.25.7.6-.5 1.15 1.55.65-.5.75.8 1.5-1.1.75 1 1.65-1.2 1 1.2 2.35-1.5 1-.8 2.05 3.2 2 2.6 1.25-.85.55.85 2.5-1.7-.4-.6 3.2-2.15.8-.05.75-.5 1 1.4 1.2-.85.8 1.1 1.9-1.3v-.8l1.35-.95 2.2.5 1-.65.65 1 6.8-4.65-.8-.6.55-.4-.2-.85-.6-.9-.35.25-.65-1 .15-3.1-1.3-.2.35-2.25-1.25-.25.2-1.25-.65-.6-1.1-1.65 11.75-.6 11.5-.6.65.1 4.15-20.6 1.3-6.5 4.5.5 1.95-.65 4.9-1.35 7.6-2.8-.3-.4.3-.5-.8-.4-.9-1.2-.25-1 .55-1.25-.55-1.05.85-1.85v-.75l1.05-.95-.15-1-.65-.5v-.85l-.25-.5.3-2 .4-1v-2.2l-.4-.4.6-.9-.25-.9.35-2.35.45-.35-.3-1.1.3-.4.1-1.3.35-.5 1.2.65.9.25.5-2.45.7.25 6 1.1.1-.35 2.35.75.7-.5-.35-1.45 1.1-.3.4-.8.8-.3 1.4-1.1.65.2.5-.65.5.3.05 1.4.55 1.1 1.15 1.5.75.8.8.4v1.5l.5 1.55.8.55.3 1.5.55.9.6.45.9-.35.1.75-.9.75-.9 1-2.3 3.5-.35 1.35-.1 1.5-.3.1-.4-1.2.3-.6.3-1.25-.65.2-1-.1-1.3 1-.25.5 1.45 1 .8-.15 1 1.3.5.1-.55 1-.4 1.95-.35.5-.2 1.05-.6.85-.5 1.4-.25 1.9.15 2 .5.85.1.8.8 1.3-.5 1-1 1-.7.15-.5.8 1.3-.45v.9l.2 1.5-.1.5h1.25l-.25.6.15 1.8 1 1.7-.15.3.7 1 1.35-.4.25.95 1-.3.35-.5.85.8v.7l-.35.3-.1 1.15-.8 1.1-.65.05-.2.5-.65.65.25 1.35-.6.5-1.45.25v-.95l.5-.7-.15-1.2-1.5-.25v.65l-.5.7v1.35l-.35.9.4 1.1-1.6 1-.7-.1-.35.5.75.4.65 1.15 1.05-.1 1.8-1.85.8-.2.85-.65.35-.8v-.6l.5-.95.75-.3.5-1 .25-1.6.5.5.6-.15.85-.75.65.1v.85l-1.05.6-1 1-1 1.6-.7 2-.2 1.5-.45 1.6-1.15 2.55-.85.6-1.4.4v.75l.8-.3.8-.65-.5 2v1.6l-.85 1.5-.4 1.55-.2 1.15.15.5-.4.65-.5 1.75-.1 1.1-1.45-.7-.6.35-1 .1.85.95.5-1.3 1.7.85-.15 1.25.1 2.1.3 2 .5-.1.15 1.35.3.4.05 1.5.6 1.8-.25.4.25 1 .8.95.55-.15.5 1.3 1 .5.1 1.9.35 1.55-.1 1.5.2 1.5-.65.65.15 1-.5.8-.55.35-.65.95-.5 1.1-.35 1.75v1.75l.55 1.05-.45.5-.4 1.3-.25 1.6.15 1.05.4 1.15.6.65h.7l.15 1-.9.15-.6.4-.7 1.3-.5 1.7-.5 1-.7 2.55v1.6l.25 1.3.05 1.65.65 2 1.2 1.25.1.65.85.45h.75l.7.5-.2.95-.5.55v.9l1.95 3.45-.9 1.5-.8.35-.45 1.2v1.05l.5.75.3 1-1 .4-.6.9-.75 2.8-.2 1.5v4l.2 1.15.5 1 .75.9h1.05l.35 1.6.45.4v.65l.7.75-.1 1.2.45 1.1.75.4.5-.1.2.8-.25.35.4.7-.1.9-.7.3-.2.9-.8-.25-.5.2-.1.6.35 1.25-.35 1-.75.95-1 .1-.45.65.35.85.85.4.7-.8 1.5.8.75.75.65.1.9 1.5-.4 1.3-.9 1.2.35 1.5-.75.6h-.65l-.85 1.5.1 1.85-.5.35.15 1.05-1.2.3v.85l.6.4-.5.5-1.1.5-.65-.3.2-.75-.25-1.5-.4-.7-1-.65-.25.4-1.25-.35-.7-.85-.35-2.25 1.35-.3.85-1.15-.15-.4.5-.6v-.65l1.3-1.1.2-1-.4-.95-1-1.5-.65-.65h-1v-1l.6-1 .9-.9.95-.15 1.1-.65.5-.95-.3-.8-.5-.35-.95.5-.1-.8-.45-.6-1.05-.7-1.7.3-.65-.5-.05-.8-.65-.35-.05-.7.5-.7-1.25-.9-2-1 .5-.75.85.6.25-.6-.5-.4-1.85-.25-.65.25-.75 1.2-1.4.15-1-.1-.4-.3-.15-1.4.65-1 .7-.85.2-1 1-.25 1.1-.75 1.25.45.8-.5.65-1.5.65-.55.6-1.55.65-.4.45-1.05-.1-1.1-.85-.65h-.6l-.75.8-.6-.3-.25 1.3.5.5-1.3 1.95-.8.55-.9-.5-.35-.75-1.05-.3-.15-1.45-.5-.25-1.4 1.4.1.5-.9.85-.1.75.25.6v1.75l-.5.4-.05 1 .7-.2.3-.6-.2-1.45 1.3.55.1.75-.45.85.65.25-1.25 1.35-1.25.15-.9-.3-.7.8.3.5-.25.5.35.75.9-.15 1.4-.6 1.5 1.3h1.15l.55-.35 2.75.4 1.9.85.4.35-.35.75-1.3-.35-2.1-.4-3-.35h-2.35l-1.35.1-2.25.45-1.6.7-1 .8-.65 1.1.35 1 .85.5-.7.65.1 1.3.3.35-.5.6.25 1.8.5.8-.75.35-.7 1.25-.3 1.6-2.2 1.5-.1.85-1.15 1.2-.15.8-1.6 2v1.25l1.1.7.25.6-1.2 1.2.1.85-.35.65.35.8-1.3 1.7-.15 1.4-1.6.15-1.3 1.5.2 1-.3.55-1.7.5-1.1.85-1-.1v.65l1.35.05.6-.5.55 1.25.45-1 1.4-1.25.2-1.35.8-.3.6-.75-.2-.45.5-.4.45.45 1.85.25-.4.5.3 1.75.65 1.1-.55 1.5-.9 1.3-.05 1.25-1 .65-1 1.5-.75 2.4.35.9 1 1.1-.05.75.4.6-.25.35.4.75 1 .15-.25 2.2.15.45-.85.85-.35 1.1-.2 1.7.2 1.7.45.15.95.9-1 1.05-.55 1h-.65l-.5-1.15h-.8l-.7.6v1.1l-1 .4-.25 1-.05 1.5-.5.35-.9-.85-.85.4-.1-1.3-.6-.25.5-1-1.55-2-.5-.15-.75.4-.3.5.35.7 1.05.7.35 1.75-.35.5-2.4-.5-1 .95v1.1l.3.8 1.5.35.55-.45.5.45.4 1.8.6 1 1.1.7.7 1.05 1 .4-.1.65-.65.5v1.45l-.65.7.1.35 1.1.9 1.1.6.25 1-.5.3.1.95.9 1-.35.95-.15 1.15-1.25.85v.6l-.65.85.15.55.75.4-.4 1.7.3.6-1.15 1.35-.75.35-1.7.05-1 .6-1.2 1.75-.5.9-.8 2.35-.4 2.2-.1 1.7.1 1.6.3 1.15.75 1.95-1-1.15-.6-2.25-1.05 2.35-.05 1.05h-.9l-.75 1.85-.05.75.9.9-.5.65-.2-1.15-.3-.35-.6.35-.15 1.7-.75.2-.5.85-1.2.65-.75-.2-.45.5v1l-1.7-.55-.65 1-.4-.6-.85-.1-.4-.6-1.95-.5-.75-.85-.8.65-.95.4-.9-.4-.6.15-.1.55-.75.5-1.15.15.2-1-.25-.4-1-.65-.75.9-1-.6-.1-.6.3-.85.6.05.8.5.5-.8 1.9-.5v-.95l-2.5 1.5-1.1.1-.6-.45-2.75-1 .6-2 .5-.25v-.9l-.5-.75-.75-.5-.3-.5.15-1-.5.1-.5-1.25-.15-.95.55-.4-.3-1 .3-.4-.5-.9-.5.5.15.9-1 .25-.85-.45-1-.25-.15.5-1-.5-.1-1.05-1.9-.55-.1 1.25.75.9.1.75-.35.3-.65-.15-.75-2.4-.9-.4-1.4 1.55-1.15 1-1-.85-.8-.4-1.3-1.3.9-.75.5-.65-1.4-.75-.55.15.2.9-1.15.75zm89.4-188.25-.75-.8.6-.3.5.45zm-27 174.75-.1.85.5.75.8-.25.55.6v.8l.8 1.35.1.75-.3.6v.65l-1 .5h-.5l-1.2-.8.25 1.05-1.45-.15-.1-.4-1 .4-1.8 2.15h-1l-.15-1.55.3-.85 1.3-2-.05-.4.6-.8.5-2 .5-.25 1.15.5.65-.3.4-1-.05-.85-.75-1.35-.85-.55-.65-.1-.2.8-1.35.95-1.1-.5.35-.6 1-.5.8-.9v-1.05l-.7-1.3-.2-1 .8-.7-.05-.4.9-.8.4-1.15-.2-.6.65-.75.15-1.15.7-.2v-.55l.45-.85.5-.2.7.5.35 1 .6.6.8.05 1.2-.3 1 .25.35 1 .5.5v.9l.8.7-.1 2 .6.5-.1.55.95 1.3.9.3.9.7-1 .25-1.1 1.3-.3 1-.5-.15-.5-.75-.65.65-.9-.15-.65-.6-1.45.3-1.35-.15-1.1 1.1zm22.2-45.5h-.85l-.95-1.15-.35.35-1.05.3-1-.1-1-.75-.5-.7-.1-1.5.25-.5.6-.35.9-.9h.5l.9.5 1.65.3.95-1 1.2.65 1 .95-.25 1.7 1.65.75-.5.5v1l.5 1.1-1 .2h-1.3l-.9-.5zm-63.9 83.55-.5-.5-.4-.9.6-.75.65.75.05.8zm20.95 13.15.65-.45.1-1.6-.25-.8.6-.5.2-1 .9.05 1.65-.3 1.05-.45 1.5-.05.1-.55-1 .05-2.15.55-.5-.1-1.65-1-.8.5-1.4-.2.3-.6-.55-.6h-.55l.45-1.7.5-.3.6-.8-1-.1-.85-.6-.25-1-.35-.05-.5.8-1.35-1.65 1.85.15 1-.95.95.1v-1.45l.4-.35 1-.1-.65-.65-.65-.15-.3.6-1.1.6-.35-.3.1-1-.9-.7h-.7l-.55-.35.5-.5.5-1-.1-1.5-.7-1.2-.5.1-.65-.85.9-.45.4.65.8-.05 2.85-.6 1.7.5.25-.5 1.1.65h1.05l.55.7.4-.95-.05-1.4-.9-.6-1.25-.15-.85-.25h-1.25l1.2-1v-.6h1l.1-.7-.5-.55.3-.5h.75l.15-1h1.2l1.15.7v.55l.75.1-.3 1 .5 1 1 1 .6.35.5-.55 1.15-.25.7-.75.7.25-.05.7-1.4 1 .35.6 1.2-.2.15.55 1 .8v.9l1.35 1.9-.35 2-.85 1-.05.75.35 1.3.4.1.55 1.5-.5 1-1.75 1.6-1.45.05-.1.75-.5.5-.3 1.15-1.65.7-.85 1-.05.85.3 1.25.85.8.85-.05.6.65-.3 1 .3.7-.7 1 .75.3.1.8.5 1.6.6.65v.75l.55 1.65.8.4-.2 1.75-1.75 1.5-.5.85.55.65.65.1.5-1 1.05.1.9.75 1-.1.15.6-.65.5-.5.7-.8.35-.4 1.6-1.45 2-.1 1.1.3.8 1.2 1.2.75.35v.4l1.3 1h1l.15.35-.85.8-.8-.7-.7.15-1.5-.5-.95-.55-.5.15-.85-.15.05-1.5-.4-1.3-.8.05-.5.5-.6-.3-.9-1-1-.2-.95.45-.2-.4-.15-3.5-.15-.5.15-1.35-.5-.8-.1-2.5-.4-.15-1.15 1.1-.45-.25-.3-1.05.1-1.4-.5.15-.6.8-.35.8 1 .85-.35.5v1.5l-1.05 1.3 1.55 1.35.3.65-.8.35-.35 1.25.7.65.4-.5.65.5.1.5-.5.9.8.85-.3.65h-.5l-.75-.85-.95-.7-.15-.9-.5-.25-.95.9-.75.4-.65 1.1-1.5.75v.65l-.7.6.25.35.1 2-.5.2-1.4-1.1.15-1.25-.5-1-.85-.5-.5-.5-.9-.15-.35.4-.75-.75.15-.5-1.8-.25-.65-.5-.3.4-.6-.9.4-1.1-1.25-.7-.75-1.35.65-1.1-.5-1.5-.5-.6-.15-.7.45-.9.9-1.25 1.5-.15.75.7.45-.15.5-1-.15-.95-.65-.1-.3-.5.35-.8 1.1 1.2.25-.8-.1-.9-1.15-.3-.55.1-.5.5H748l-1.3.5-1.05-1 .15-.4-.75-.65-.9-.1-.4.5-.65-.2.05-.7-.9-1.05-1.35-.4-.35-.65-.05-1.6.4-2.25-.5-.5.25-1-.3-.5.3-.6-.55-.25-.1-1.3.45-.85.5-.5 1.4-.65h1.2l.4.5.8.35.7-.4.85-1.3.25-1-.1-.7-.8-1.05-.7-.5.7-.7-.9-1.3-.1-1.2 1.3-.6 2.05 1.35v1.15l.55.45.85-.15v-.5l1.2-.3.4 1.3-.4.65.35.95-.6 1.85-.95.9-.6 2 .5.65.6-.2.3.95.5.25.35.7.9-1.3.5 1-.05 1.35.5 1.55 1 .05.3-1.3.75 1.65.3 1.1 1.3-.85.4.5 1.55-.6.15 1 3.2.75.5-.8-.3-1-.65-.8.5-.85.75.1.9 1.25-.15.6zm13.7 24.35.3-.8.8.35-.1 1.2-.75.35z"/>
    <path d="M694.05 828.32v-7.35l-.5-.5.1-.75-1.1-.2.7-.85 1.1-.95.8.15.15-.6 1-.15.65-1-.35-.6.9-.8.6.15.45-1 .45.1-.3-1.15.8-1.15-.5-.35.3-.85.9-1.75 1-1.15.35-1.1.55.2.5 1 .85.6.75.75.4 1.15-.5 1.1 1.3.15.6 1.15-1-.1-.8 1.55.15.8.85.8h.3l.7.85.6-.1.6-.55.75-.2 1 .25.65.9 1.1.65.15.8-.5.25v.8h.5l-.35 1.3 1.7 1.35-.25.65.65 1.55-.25 1.25-.5.35-.15.85 1.25 1 1 .1.5.9.2 1.45-.45 1.4-.3 2.05-.85.25-.5 1.15-.2 1.6-1.6.7-.65-.75-1.85-1.15-.65.1-1 .75-1.5.2-1.3-1-.7.65 1.25 1.45-2.2 2.15-.95-.3-.7-1-.1-1.1-1.65.3-1.2.6-.7-.05-.75-.5-1.05-1.7-.1-.75.75.15.75-.5-.3-.45h-.65l.2-1.75-.25-.65-1.5-.1.55-2.6-.15-.75z" region="CLARK" short-name="Clark" long-name="Clark" value="7"/>
  </g>
</svg>