<svg viewBox="0 0 840.61 1000" auto-border-stroke-width="1" auto-border-stroke-width-limit=".1" version="1.1" title="South Australia 2022 Legislative Assembly" country="aus" type="sa" date="2022078" variant="blank" original-source="[&quot;https://www.abs.gov.au/statistics/standards/australian-statistical-geography-standard-asgs-edition-3/jul2021-jun2026/non-abs-structures/state-electoral-divisions&quot;]" candidates="[{&quot;id&quot;:&quot;0&quot;,&quot;defaultCount&quot;:0,&quot;name&quot;:&quot;LAB&quot;,&quot;margins&quot;:[{&quot;color&quot;:&quot;#F00011&quot;},{&quot;color&quot;:&quot;#FF3336&quot;},{&quot;color&quot;:&quot;#FF6666&quot;},{&quot;color&quot;:&quot;#FF9999&quot;}]},{&quot;id&quot;:&quot;1&quot;,&quot;defaultCount&quot;:0,&quot;name&quot;:&quot;LIB&quot;,&quot;margins&quot;:[{&quot;color&quot;:&quot;#080CAB&quot;},{&quot;color&quot;:&quot;#3334C5&quot;},{&quot;color&quot;:&quot;#6666DA&quot;},{&quot;color&quot;:&quot;#9999EA&quot;}]},{&quot;id&quot;:&quot;2&quot;,&quot;defaultCount&quot;:0,&quot;name&quot;:&quot;IND&quot;,&quot;margins&quot;:[{&quot;color&quot;:&quot;#DCDCDC&quot;},{&quot;color&quot;:&quot;#E3E3E3&quot;},{&quot;color&quot;:&quot;#EAEAEA&quot;},{&quot;color&quot;:&quot;#F1F1F1&quot;}]}]" xmlns="http://www.w3.org/2000/svg">
  <g map-type="regions" transform="translate(-79.7)">
    <path region="33" short-name="Chaffey" long-name="Chaffey" value="1" d="m917.69 733.9-1.1-.19-2.08.15-.9-.15-1.08-.04-1.22.16-1.11-.22-1.28.26-.77-.27-.84-.85-.43-.07-.46-.55-.62-.08-.66.87-.88-.69-1.04.16-1.24-.07-1.16.01-.19-.1-1.26.01-.68.26-.95.19-2.4.61-.66.05-.48-.15-1.61.28v1.14l-.9.13-1.56.06-.52-.14-1.7.13-.26-.11-1.59.17-5.9-.02.02 7.57-12.41.01v7.23l.03 2.3-.01 6.24-12.56-.06-12.59-.01v-6.2h-14.62l-4.59-.02v-12.84l.18-.37-.18-.81v-7.51l-6.2-.02h-3.33l-.12-3.1-1.02-.16h-4.44l-.67-.15-2 .13v-1.42l-.68-1.07-.05-.8.37-.59-.17-.3.07-.58-1.28-2.13v-1.83l.1-.36-.57-.3.45-.3v-2.6l-6.11.02v-1.24l-.71-1.25-.3 1.25h-1.63l-.74-.6h-.95l-.88-.52-.43-.06.3-.87.84-.03-.7-1.26.52-.25-.2-1 .73-1.1-.28-1.38.05-.53-.34-.96.43-.8.03-2.25-.27-1.08.47-.63.47.2.32-.33.03-3.33-.56.15.39-1.06.24.12.88-.13.1-.57.44-4.5-.97.47-.13-.56.32-.22h.47l.8-.22.3.3.21-.51 1.54-.92 4.65-3.2.03-4.45-2.11.17-1.8.28v-1.07l-.86-1.51.04-4.13h6.06l.02-9.34.49-2.85v-2.47l-.1-1.7.01-2.59-.02-10.5-.02-.06-.03-14v-6.92l-.02-7.46-.02-7.67-.02-8.33-.02-9.9-.02-10.16v-8.92l-.02-10.72v-6.8l5.48 1.8 8.61.48-3.03 5 3.22 1.1-.2.6 1.34 1.57-.07 3.95-.4.98 1.7 3.59-.04.23.93 2.98-1.19 5.85-2.58 2.43-1.34 2.58-.47 1.75 12.5 1.1-.1.71-1 8.5 15.67 1.86 1.16-.9 2.38.18 6.25.62 3.23.33.1-1.03 10.87 1.34-.02 5.36 12.62-.03-.04-7.76.41-.05-.17-8.63 2.29.36 37.34.12.01 8.98v11.26l.01 9.05.01 8.64.01 14.05v6.26l-.48-.08-.1.72-.34.19-.29-.36-.03-.6-.33-.37.3-.57-.28-.4-.03-.41-.84-.31-.01-1.2-.32-.1-.05 9.73h-.08l.05 9.06.1 14.06.03 5.95.01 8.75.02 8.17.04 17.28.01 7.51z"/>
    <path region="34" short-name="Finniss" long-name="Finniss" value="1" d="m771.47 781.14-3.36-1.5-.86-.41-1.85-.72-1.65-.56-2.07-.5-1.88-.22-.88.45-.42.37.17.38-.3.48-.4.02-.07.43-.42-.15h-1.03l-1.3.27-.95.37-.43.58.05.54-.44.08-.46.35-.04.3-.94 1.08-.08.67.51.3-.99.5-.54.42-.12.45-.92.2-.39.25-.49.72-1.07.89-1.06 1.06-.57.03-.76-.44-.86-.25-.76-.1-.28.2-.97-.39-.69.2-.38-.19-.93-.03.3-2.11-.01-.64.26-.64-.27-.8.16-.32 1.05-.75-.51-.55-.69-1.53-.04-.53-.68-.75.07-.87-.32-.28-.5-.01-.6-.2-.3-.81.3-.32-.01-.34.58-.75.2-.78-.36-.35-.42.07-1.36.01.07-1.25h.45l.49-.26.96.47 1.9-.1.47-.36.08-.3.42-.36.08-.75.55-.45.63-.17.35-.57.1-.83.57-.3.34.23h.7l.17-.31.43-.18.16-.3.47-.1-.1-.39 1.06-.27.48.08.3-.35.57-.27-.02-.79-.72-.53-.61-.16.06-1.26 1.28-.63.29.05.88-.3-.33-.66.45-.42.7-.12.33-.44.47.14 1.25-.34.6.16.67-.5 1.19-.13.3-.27.38.08.82.53.24.46.56-.26.7-.1 1.03.66.57.03 1.24 1.06.44-.6.21-.53.3-.15.01-.51.65.1.89.34.18-.55 1.02.09.9-.57-.17-.41.4-.12.8-1 .47-.27-.2-.35.4-.22.15.63 2.09-1.2.52.04.47.8.4-.21.65.08-.31.98 2.33.24 1.42 3.5h1.2v.29h.88l-.02.4h1.16l-.02.47 2.15.1.21.34-.12 2.32.45-.4 1.32-.25.47.08.9-.06 1.36.1.26-.16 1.12-.17.44-.37 2.1-.48.3-.24.42.17.5-.14-.43 8.35-6.86 2.51-.9 1.05-.86-.08-.29.23-.74-.18-1.06.27-.37.36-.38-.16-1.06.9.03 1.09-.23.34-.63.5-.77.4-.5-.02-.3.6-.54-.3-.27.18-1.45-.54-1.3.08z"/>
    <path region="35" short-name="Flinders" long-name="Flinders" value="1" d="m79.7 166.72 140.03.07 70.12.25 69.46-.2.3 106.7.2 44.05h33.86l1.38 1.3 1.13.02.22.12.53-.2.23.1 8.67.19 12.75.22.4-.09 13.25-.25-.3 26.17-2.3-.07-.2 24.86v.3l1.83.13.34.2.5.64.3.1 1.18.07 2.75.38-.17 12.37-6.51-.06.08 5.44h3.6v9.54h19.89v31.46h-23.28l-.03 13.35 8.3.02v26.35l11.91-.03 22.93-.1.86 1.59-.17 1.48 1.52 1.28.85 1.01.49.4.35.68.38.37.32.67.65.74.45.38.54.75.3.18-.14.84-.03.8-.98 1.07-1.01 2.7-2.1-1.06-.27.93-.79 4.34 1.41.31 1.44 2.72.19.82 1.14-.07 1.05.3.76.49 2.04.69 3.5-.86.27.71.07 1.7.16.73-.27 1.6.02.25 1.62 1.3 1.02.16.71.58.32.03.04 11.88.03 11.15h8.3l11.32-.03-.03-18.32.85.35 1.06.73.27.87.68.62 2.98 1.77.94 1.04 1.41.18 3.12 1.32.38.02.9.74 1.34.64-.03.97 2.35-.93 2.13 4.69.78.35 1.56.23 1.1-.4 1.64.07.91-.14 2.14.09.33.13 1.96 1.8.12.86.37.17h1l.33.58.87.79.6 1.14 2-.23.7-.18 1.85.18v1.03l4 6.19 7.54-.03.74.42.2.94.29.5 4.42.01-.02.15 2.57.07.85-.06 3.37-.89 1.03-.33 11.91.16.04.67.8-.03.38.78.17 9.3 3.3-.04.03 6.07.6.45 3.62.34.5-.23 3.46-.88-.04 1.21 1.54.01.93 1.07 1.42 1.28.94.05-.01.64 1 1.56h.58l-.24 2.16h1.46l.45 1.04.8 1.56.74 1h.21l-.02 6.27 5.33.02-.68-.64.08-.77-.47-.28.8-.43.23-.26.67.15.26-.3-.02 4.74v6l.06.12h4.57v-.05l10.16-.03.1.06v4.92l-.01 12.01 11.69-.02 8.69-.02 9.44-.03 9.94-.02.16.25-.24 1.28.22.89-.08.5.22.75.23.17-.1.49-.43.59-.02.57-.18.5-.66.8-.35.67-.15 1.18.13.8-.44.45-1.24 1-.13.21-.64.1-.37.76-.39.25-.3.77-.35.57-.18.61.16.43-.63.5-.57 2.1.21.32-.28.42-.6 1.8-.12.65-.43.26-.46.5-.43 1.44-.19.19-.2.95-.85 1.33-.92 1.09-.28.93-.47.82-.48.47-.83.24-1.08.57-.67 1.2-.33.25-.84.2-1.08.42-1.13.25-1.42-.11-.74.16-1.66-.22-.5.15-.56.48-.9.07-.5.24-.64.83-1.95.47-.52.07-1.43 1.2-.72.77-.65.54-2.15 1.08-1.33.83-1.55.63-1.5 1.04-.8.2-1.43-.1-1.1.13-.7.18-.28.44-.4.25-.72.88-.11.78-.73-.09-1.21.07-.71.11-.87.35-.44.35-.83.9-.55.36-.22.47-.52.4-.44.1-.62.4-.06.28-.75.45-.88.22-.5.37h-.62l-1 .22-.72.46-1.24.3-.27.27-.27.76-.4.16-.43.5-.15.43.3 1 .05.48-.4.31-.91.28-.4.67-1.1.67-.48.45-1.27.95-.49.64-1.08.6-1.36.5-1.56.28-.91.56-.23.37-1.42 1.08-.15.33-1.38 1.38-.58.5-.46.57-.8.65-.32.52-.23.68.05.44-.31.27-.34.7.27.5-.14.8.38.38-.55.81-.18.73-.85.84-.2.78.15.34-.36.2-.18.6.04.97-.52.18-.27.58-.83.4-.47.93-.82 1.17h-.28l-.26.88-.62.78.3.27-.57 1.32-.12.82-.53.39-.47.85-.64.7-.2.37-.94 1.09-.96.85-.61.72-.7.63-.96.44-1.28-.1-1.21.19-.52.22-.81.68-.78 1.15-.35 1.02.02.44.31.45.33.09.19.84.27.71-.56.47-.3.78-.53-.22-.54.88.24.26h.65l.27-.56.56-.05.21.7-.18.34.1.48-.23.22-.06 1.05.13.46.4.31-.69.53-.15.62.55.7-.02.43-.31.46-.18 1.44-.76.44-.27.54.21.39-.2.56-.49.39-.26-1.13.49-.34-.22-.83-.92-.93.55-.46-.1-.55-.38-.65-1.03-.55-.4-.07-1.28.07-.69.17-.27.4v.42l-.37.23-.25.44.25.23-.15.5.47.58-.34.09-.25-.62-.77-.02-.58.45-.93.03-.1-.69-.65-.08-1 .44-1.18.88-.66.77-.23.65.22.75-.47.14-.63 1.37-.08.4-.6 1.07-.14.4-.06 1.1.17.45.4.48.49.19.41-.32.52.1-.01.85.24.38-.27.7.14.17.2 1.3-.66-.31.05-.32-.28-.72-.75-.33.16-.63-.36-.32-1.03-.25-.98.34-.59.4-.82.97-.31 2.04-.15.49.1 1.91-.13 2.31.48.5.45.1.9-.11.45.57-.18.58-.48.32.36.72.48.05.2.38-.66.21-.24.58-.43.16-.23.47-.32.16-.15-.46.08-.78-.48-.32-.73.12-1.21 1.2-.64.51-.72.79-.5.73.01.28-.9.76-.27.62.58.06.17.2.8.03 1.3.38.54.08.58-.13.26-.33.84-.22.15-.3.46.07 1.18-.05.92-.28.58-1.02.43-.48.53-.1.3-.41.46-1.1.6.14 1.09-.77.45.55.13.48-.1.95.47.2h.54l.57-.25.1-.54.36-.63-.25-.87.32-.55v-.45l-.32-.2.16-.46-.21-.42-.37-.02-.09-.35.39-.31.4.1.28-.23.2.68.67.4.28.45-.11.65.36.36-.1.63-.5.72-.27.83.07.8.52.3-.43.44-.06.7-.2.76-.45.95-.74.16-1.43 1.2-.23.43.1.9-.02.88.16.66.66.81-.12.29.42.58-.07.86.52.11.26.3-.18.47.32.32.28.83-.47.32v.62l.43.22-.02.44-.27.33.07.78.47-.19.15.74.33.7-.14.78-.54-.48-.43.15-.22.66-.62.43-.14-.3-.48-.06-.43.14-.13.43.15.72-.92.01-.29-.29v-.9l-.13-.5.5-.4-.13-.48-.85-.16-.26-.36-.2-.94.31-.46-.25-.4-1.35-.98-1.15-.5-.9-.15-.14-.39-.55-.33-.48-.12-.53.68-.24-.6.25-.58.01-.8.21-.4-.35-.4-.5-1.18-2.14-1.12-1.01-.4-.7-.19-2.02-.36-.8-.05-1.13.15-.97.31-.66.32-.33.78.06 1.08-.48 1.72-.44-.07-.2.4-.65-.14-.3.37.65.82-.13.55.03.55.24.21-.43.6-.93-.18-1.12-.59-.9-.01-.17.52-.8-.01-.3.3-.34-.6-.06-.53.27-.74-.04-.42.14-.98-.4-.31.04-.47-.28-.5-.67-.1-.03-1.1-.76-.67-.2-.45-.46-.3-.12-.34-.56-.59-.32-.55-.84-.74-.38-.46.09-.34-.82-.75-.09-.3-.55-.46-2.18-2.1-.72-1 .2-.53-.9-1.09-.5-.81-.98-.98-1.4-1.16-1.15-.77-1.06-.86-2.04-1.09-.83-.32-.89-.21h-.7l-.47.22-.63.49-.52-.57.24-.22.27-.9.82.15.42-.38.18-.76-.04-.65-.51-1.79-.38-.73-.9-.95-.57-.4-.85-.28-.35-.31-.72-1.34-.53-.6-.25-.55-1.7-1.41-.97-.5-.71-.2-1.04.15-.5.39.26.63-.57-.18-1.33.06-.66-.08-.56.51-.5.06-.84.95-.07.84.14.27-.27.49-1.02-.14-.19-.29-.43-.01-.46.3-.32-.22.11-.4.42-.11.6-.41.08-1.72.3-.23.25-.8-.12-1.05-.19-.33.42-.43.54-.28v-.87l-.33-.3.13-.35h.37l.95-1.1.4-.67.56-1.38.81-.29.36-.64.06-1.05.3-.66.7-.38.31.4.55-.04-.4.56.34 1.32-.34.55.18.92-.12.72.25 1.14.72.51.88.35.52.07 1.05.37.98-.04.5-.11.9.05.43.52.83.26.2.22-.14.53-.4.4-.66 1.32.38 1.09.66.47.83.1.27.45 1.41.3.39.46.12.74-.27.42-.19.76.13.4.47.45.12.56.9.24.56-.08.7.12.49.32-.14.59-.27.3-.75-.57-.64-.12-.1.77-.36.32.9.22.46-.07.97-.6.58-.09.24.19.76-.2.37-.25.24.16 1.16-.39.34-.53-.1-.63.83-.13.16.42.64.25.24-.45.33-.18.83-.19.53.6.77-.07.29-.7-.19-.7-.42-.68-.84.4-2.02-.68-.45-.4-.35-.01-.22.4-.5.26-.17.47.71.47-.52.28-.99-.47.41-1.24.1-.61.23-.4.12-.6-.1-1.91-.45-.29.56-.24.1-.37-.64-.4-.87-.25-.31.87-.71-.17.36-1.42-.1-.49-.41-.54-.35-.14v.9l-.47.51.16.47-.45.41.48.3.42.62.94-.1.29.3-.95.43-.1.51.32.32-.14.43.02.6.27 1.14-.28.25-.65-.15-.1.34 1.04.68-1.46-.19-.28-.38.73-2.34-.16-.6-.15-1.12-.26-.26-.37-1.18-.59-.4-.04-.8.12-.37.74-.45.44-.88-.3-.6.13-.73-.32-.75.2-.51-.06-.5-.25-.47.09-1.06-.45-.24-.35-.66-.54.03-.24-.65-.44-.2.31-.78.12-2.41-.31-.54-.22-.04-.56-.7.46-.04.15-.75-.05-.72.14-.51-.24-2.22-.52-1.82.18-.68-.17-1.01-.35-1.28-1.38-3.53-.64-1.5-.83-1.52-.79-.76-.85-.4-.59-.06-.76-.52-.49-.83-.5-.07-.39-.44.23-.53.4-.06.85-1.07.75-.2.42-.37-.27-.51-.03-1.47-.11-.97.56-1.2-.11-.64-.34-.85-.05-.7-.35-.97-.29-.25.49-.58-.1-.77-.81-1.37-.1-.6-.37-.97-1.68-2.55-2-2.36-.38-.27-.01-.6-.36-.48.23-.78-.3-.96-.4-.73-.54-.41-.3-.03-.51.44-.5-.78-.31-.87-.57-.7-.6-.2-.17-.64-.22-.34-.8-.48-.27-.52-.87-.7-.22.01-.24-.53-.56-.17-.32-.3-1-1.66-.56-.77-.97-1.11-.12-.26-1.28-1.26-2.87-2.24-.22-.28-.87-.44-.94-.65-1.33-.8-.47-.61-.34-.09-.44-.51-.86-.34-.3-.5-.32-.02-.2-.38-.6-.25-.37-.37.32-1-.55-.64-.57-.03-.63.73-1.11-.98-.93-.42-.18-.31.9-.12.11-1.03-.23-1.43.43-.76.53-1.92.63-1.08v-1.15l-.18-2.45-.35-2.08-.86-4.19-.53-1.81-.14-.67-.5-1.62-.66-1.6-1.1-2.87-.45-.07-.84-.68-.17-.4-.33.04-.72-.32-.41-.32-.35-.69.01-.3-1.1-1.67-1.04-.75-.89-.32-.27.15-.79-.12-.6-1.1-.81-.56-.9-.89.67-.19 1.27-.1.41-.45.8.19-.01.3.66.07.35-.57-.03-.45-.33-.07-.05-.41-.43-.06.54-.74-.05-.52-.62-1.21-.65-.84-.38-.13h-.66l-.61-.33-.67-.52-.63-.03-.68.18-1-.05-1.1-.68-.75-.6-.42-.47-.42-.21-.45.11-.72.98-1.07.54-.35.27.1.42.7 1.01.31.25.16.65.8.26.72.34.56.09.59-.7.66.51.3-.14.56-.61.63.72-.65.33-.53-.34-.32.18.5 1.34.38.52.39.19.66-.33.76.13.06.47-1-.16-.33.06-.24.7-.4.17-.18.85-1.64-2.21-.24-.01-.59-.55-.08-.6-.37.1-.57-.46-.12-.29-.5-.33-1.28.02-.56-.22-.41-.74-.4-.07-.47-.45-.64-.18-.97-.93-.73-.34-1.2-.37-.48.2-.31-.32-1.22-.57-.19.19-.83-.13-.59.19-.84.12-.55.86-.84.35-.73.8-1.12.21-.2-1.54-.17-.4-.27-2.1-.87-.61-.53-.63-.22-.76-.34-.61-.69-.56-1.06-.06-.52-.72-.46-.35.1-.28-.28-.73.1-.51.6-.42-.29-.86-.42-.34h-.28l-.13-.82-.23-.3-.48.04-.68.5.08.34.48-.13.45.2-.49.54.56.89-.85.32-.37.27-.08 1.02.13.9.23.39.98 1.05-.1.57.44.51.73.39.7-.45.5-.07.55.77-.29.32.52.24.22.37.74.44.73.22.22-.11.52.77-.43.53.02.3-.42.22.03.53-.17.47.24.62.1.9-.94.63-.53.1-.2-.3-.58-.14v-.6l-.53-.4-.43-.06-.39-.48-.48-.2-.2-.46-.82-.41-.4-.02-.24-.44-.5-.41.45-1.18-.16-.85v-.54l-.33-.96.19-.19-.06-.77-.16-.36-.45-.04-.49-1.48-.32-.26-.13-.47.18-.36-.3-.47-.03-.55-.44-.6-.55-.36-.49.07-1.15-.47-.54.02-.64.51.23.33-.17.26-1.02.2-.3-.62-.28-.18-.98-1.03-.44-1.1.56.02 1.3-.55 1.61.53.74-.74.21-.56.13-1-.02-.94-.24-1.1-.25-.61-.57-1.05-.78-.97-1.23-.61-.35-.04-.93.36-.22.57.22.67-.53-.2-.12-.42-.46-.16.12-.7-.7-.94-.89-.18-.67.51-.39.65-.87-.3.2-.27-.6-.22-.1-.33.55-1.46-.28-.7.12-.38.82-.4.34.14.38-.32-.08-.61.88.13.56-.25.48-.65.44-.2.23-1.13.15-.05.08-.85-.3-1.06.04-.17-.56-1.61-.48-1.1-.82-1.37-.73-1-.47-.51-1.25-.86-.2-.72-.35-.23-.35-.51.2-.39 1.06-.46.16-.23.67.18.53.48.67.32.88-.13.1.2.61-.16 1.07-.05.95.15.92-.28.45.05.44.34 1.42.2-.3.32-1.02-.19-.6.14-.85-.3-.74.23.7.79.88.25.37.25.49-.07.05.41.61.18-.2.3-.15.7-.28.32-.06.42.32.64-.05 1.08.27.4.5.1.56-.13.69-.45.1-.33.54-.41.1-.85-.06-.7.55-.24.14-.35-.07-.5 1.17-.92.5-.7.54-1.24.03-.4.62-.35.05-.43.38-.05.2-.77-.14-.36-.32-.1.08-.48.45-.45.21-1.02-.33-.51-.48-.16-.26-.62.05-.46-.13-2.64-.41-1.83-.4-1.1-.56-1.14-.57-.81-1.93-2.15-.6-1.14-.46-.27-.78-1.03-.93-1.07-.9-.65-.5-.46h-.3l-.58-.4-1.03-.54-1.2-.32-1.04.29h-.34l-.18-.37-.34.31-.37.06-.54 1.03-1.53-.72-1.06-.15-.47.12-.27.36-.5.13-1.19.72-.26.36-.57.4-.24.4.29.98-.35.32-1.07-.2-.78-.47-1.35-.29-.7.14-1 .03-.94 1.12-.15.35.17.33-.54.26-.43.65-.19 1.1-.68-.35-.3-.33-.7.35-.42-.44-.37.16-.22.68-.28-.52.56-.58v-.93l-.25-.7-.4-.1.36-.87-.13-.36.69-.37.13-.48-.82-1.74.3-.68-.09-.21.62-1.2v-.62l.35-.74.05-.6-.14-.98.15-.28.65.2.74-.2v.96l.73.06-.8 1.04.46.5 1.03-.33.71.28.45-.35.83-.28.27-.26.06-.42.37-.07.35-1.05.02-.61-.32-.76-.44-.2-.46.15-.03-.64-.23-1.02-.55-.44-.12-.45-.67-1.06-.07-.47-.63-1.2-.84-.62-.4-.1-.26-.37-.31-1.22-.6-.92-.54-.06-.32-.74-1.12-1.23h-.57l-.37-.27.1-.7-.11-.42-.36-.36-.44-.16-.51.17-.16.54-.53 1.04-1.03.1-.44.28-.18.5-.5-.18-.25-.38.1-.62-.48-.65-.14-.72.32-.24.15-.4-.2-.72.03-.47-.46-.55-.57-.19-.53.11-.3-.34-1.28-.31-.87.14-.21.17-.84.05-.6.27v-.53l.28-.27.06-.67.3-.58-.08-.58.14-.37.4-.41-.09-.44-.65-.69-.66-.42h-.34l-.56.4-.98.39-.3-.29-.05-.38.34-.24.55.16.8-.38.25-.3.1-.8-.12-.36.13-.4-.02-.72-.41-.3-.4.16-.62-.58-.53-.23-.64.33-.12-.37-.5-.4-.35.13-.3-.4-1.11-.23-.6.23-.72.69-.28.74.18.25-.46.56-.05.58.4.37-.08.54.43.77-.82.63-.35.48-.8.34-.16.86-.52-.05-.74-.24-.96-1.23.22-.7-.38-.24-.15-.5-.57.27.52.85-.41.52-.48.1-.5-.35-.19-.38.45-.65.17-.48-.1-.28-.64-.03-.58-.17.16-.47-.01-.56-.77-1.1-.51-.07-.52.24-.53.6-.27.77.02.5.19.82-.37.04-.26-.77-.23-.15-.53.44-.88-.16-.45.29-.2.37-.84.17-.24.33-.09.55.24.1-.19.75.39.34.04.46.86.2-.11.38 1.04-.27.25.52.5-.19.2-.46.46.14.49-.22.31.22 1.1.39.06.32.81.75.04.34.38.1-.03.38-.85-.66-1.22-.66-1.09-.47-.55-.03-.9.54.02.87-.33.26-.23-.23-.57-.01-.1.25-.93-.28-.33.4-.38-.5-.94-.42-.97-.32-1.56-.4-.27.18-.56-.2-.64.16-1.49-.07-1.04.21-.29.33.08.61-.47.3-.1.4-.65.26-.78-.2L376 497l-.97-.46-.52-.1-1.05-.66-1.17-.44-1.43-.11-.84.37-.26.71.03.26.52.16-.34.65-.9.04-.33-.5.22-.36.38-.1.22-.46-.28-.74-.4-.55-1.11-1.34-1.04-1.05-.79-.67-.71-.5-1.65-1.35-1.53-.55-.64-.52-1.12-.67-.76.36-.63.69.2.42-.81.32.24-.6-.32-.57.28-.22-.04-.56-.5-.76-1.75-1.33-.14-.18-.88.02-.68-.53-.53-.63-1-.4-.15-.3-.7-.53-1.46-1.35-.78-.64-.27.07-.52-.7-1.82-1.22-1.46-.83-1.55-.8-1.22-.48-1.15-.37-.58.09-.1.4-.32-.07-1.12.15-.4-.18-1.58-.25-.27.36-.4.2-.22-.13-.52.1-.55-.13-.2-.61-.24.1-1.56-.65-2.43-.6-1.57-.1-1.34-.02-1.56.18-2.51.54-1.23.41-.72.46-.89.72-.6.82-.4.99-.24.88.03.57.27.55.37-.06.63.3.32.01.18.5.68.54.06.6-.4-.14-.69-.52-.27.17-1.12-1.06-.43-.25-.77-.68-.39-.08-1.26.13-1.1.8-.77.18-1.23-.06-.7.25-.16.67-.4.53-.53-.13-2.68-.22-.1-.18-.7.1-.46.33-.02.37-.69-.01-.44-.22-1.33-.12-.33-.17-.8-.12-.34.16-.4-.2-.6.26-.34-.36-.83-.4-.53.02-.65-1.06-.72-.34-.35.15-.3-.31-.17-.54-1-1.04-.46-1.02-.53-.56.04-.48-.93-1.14-1-.69-.65-.53-.53-.74-.64-.38-.8-.63-.77-.45-.69-.55-.98-.55-.83-.65-.33-.15-1.07-.94-.38-.23-1.39-1.33-.93-.73-.93-.56-1.71-1.39-1.47-.93-.27-.1-1.56-1.06-.43-.23-.3-.6-.37-.23-.68-.69-2.4-1.88-1.14-.7-.44-.2-.6-.52-.7-.39-2.98-1.83-1.2-.79-1.32-.79-1.49-.76-.7-.44-1.75-.96-.8-.49-1.17-.57-2.01-1.2-1.02-.5-1.05-.61-.95-.43-.5-.33-2.77-1.4-1.76-.75-.9-.58-.48-.13-.9-.52-.58-.12-.27-.25-.55-.13-1.84-1.03-.28.03-.53-.4-.9-.27-1.99-1.01-.35-.29-1.76-.74-1.1-.61h-.26l-.62-.4-1.42-.66-.92-.26-1.63-.82-1.15-.39-.35-.2-1.08-.3-1.6-.38-1.34.06-1.03.94-.36.06-.57.44-.85.37-.53.36-.73.89-.41.34-.3.98-.26.31-1.03.67-1.15.65-1.3.54-1.47.53-.27.22-1.8.58-1.25.55-2.6.8-1.21.59-.69.24-2.04.9-.69.19-1.75.3-.36.15-1.04.12-1.6.03-.53-.1-1.85-.01-1.9-.28-.3.06-1.54-.23h-.6l-2.03-.31-.27-.13-1.84-.3-.98-.24-2.2-.24h-.9l-1.07.14-.36.22-.66.18-2.56.06-1.27-.17-1.32-.35-1.14-.08-.44-.16-1.58.08-.26-.09-1.27-.03-.55.1-2.24-.07-.65-.21-.82-.12-.72.02-1.78-.4-.53.04-.4-.15h-1.94l-1.77.5-1.13-.13-1 .02-.52-.11-1.45.07-.42-.12-.77.07-.67.26-.23-.06-.55.41-.38.13-1.33.01-.82-.06-.65.11-2.1.07-.79-.01-1.34-.15-.66.01-1.57.16-1.25.25-1.2-.07-1.05-.13-2.4.28-.38.18-.88.11-.51.19-.89.5-1.03.22-1.29.14-2.52-.04-1.9.01-1 .25-1.33.11-.95.15-1.44-.03-.62.16-.89.08-1.64-.08-.75.07-.83-.08-1.36.06-1.1.18-2.27.12-.69.14-.75-.03-1.33.1-2.05.46-.93.09-.8.2H112l-.64.18-1.48.27-.91.03-1.78.19-.28.09-1.41-.05-2.26.48-.83-.04-.6.19-1.59.12-.4.2H98.6l-1.82.19-.42.15-1.48.13-1.67.09-1.39.3-.87.1-.57.2-1.04.16-1.14.02-.85.1-.73-.02-.74.15h-.8l-.39.15-1.63.2-1.46.33-.86.45-1.04.19V239.87Zm463.4 565.9-.03-1.12.47-.06.16.23-.17 1zm-56.66-117.55-1.1-.29-.47-.37-.46.12-.24-.5.5-.24 1.55.3.2.28zm-37.83 30.2-.56-.8.4-.35-.3-.26-.2-.53.2-.38.33.34.5-.1.2.3-.04.49-.56.3-.28.34.56.45zm-1.9 3.7.15-.48.4-.16.07.43zm14.67-20.8.05-.35.45-.65-.29-.88.42.02.37-.28.2-.7-.2-.34.24-.78-.18-.88.34-.3-.16-.63.23-.3.32.32.48-.03.56-.27.37-.46 1.1-.14.63-.44.44-.04.26 1.24.3.56-.07.3.22.82.66.52v.46l-.6-.47-.84.12-.25.16-.36-.35-.54.52-.45.15.21.48-.5.65-.83.72-.13.23-.99.77-.57.68-.18-.05-.66.53-.34-.13zm15.08-46.08.13-.38.32-.04-.14-.54.49.11.25.55-.37.58h-.38zm-96.71-52.89.3.45-.6.29-.33-.46zm3.38-7.2-.23-.73.43-.06.01.45zm-3.76 6.17.4-.28-.27-.55.12-.29.5.35.54-.17-.53.86zm.48-3.68v-.5l-.56.16-.06-.26.38-.26-.25-.52-.34-.31-.52-.22.2-.34.75-.07.93.62.46.03.63-.3.05.84-.61.78-.01.37zm5.7-10.54.52-.2.13.28-.14.47h-.63zm7.53-1.43.07-.69.57-.19v.97l-.19.3zm12.08 6.1.35.24-.37.45-.6.2-.33-.1-.66-.43.13-.38.44-.17.56.3zm1.51-1.16.16-.3.45-.04.26.68-1.08.58-.43.46-.18-.38.23-.55.4-.07zm-4.25-12.35-.1.95-.57.57-.4-.33-.23.18-.73.03.03.55-.66.49-.56-.17-.42-.74-.55-.06.08-.3-.4-.44-.07-1.36-.14-.35.66-.39-.03-.78.56-.1.45.35.25-.07.66-.9.52-.07-.22.59-.48.5.53.04 1.02-.7 1.82-1.66.42.1 1.79-.7.83-.1-.28.4-1.03.2-1.85 1.06-.55.49-.27.5.33.62.29.28-.57.86zm-7.41 2.13.1-.7.54-.38.55-.13.52.16.1.4-.5.45-1.09.52zm19.96 3.65.45-.38 1.39.1-.2.56.68-.02.33.51.44.25.99.78-1.03-.31-.86-.09-.85-.77-1-.32zm3-.08-.46.05-.51-.4.65-.2.28.07zm31.14 26.33.26.38-.42.2-.96-.29.22-.3.53.1zm115.25 171.54.15-.86-.37-.42-.43-.14.25-.52-.13-1.03.64.48.62-.2.09.36.4.19.3.58-.27.39.04 1 .58.39.1.59-.8-.22-.45.57-.35-.42.05-.3zm2.19-10.35.01-.86-.46-.55v-.54l.47-.05.43.64-.1.51.13.58zm20.93-5.5-.04-.38.34-.27.37.4zm2.4-.27-.1.4-.4.65.37.4.14.55-.68.23-.31-.25-.06-.49.43-.44-.02-1.45.18-.5.04-.73.29-.06.26.68-.32.55zm-.48 13.42-.91-.07-.02-.34.6-.06zm1.95-7.42.23-.39h.85l.12.5-.33.1-.47-.25zm3.43 5.24-.39 1.17-.56.36-.38-.22-.5-.7.13-.61.31-.4.62-.03zm-34.11 10.54.35-.65.39.2-.4.4zm9.3 8.48-.03-.52.51-.63.3.12.14.81-.11 1.19h-.38zm3.5 7.83-.03-.2.64-.9.38.04.3.47-.48.36zm6.6 2.38-1.13-1-.5-.22-.83-.77.02-.43-.48-.23-.49-.02-.51.17-.39-.18.07-.6.3-.32-.74-.33.28-.57.42-.3.7-.2.37-.61.35.13.49.96.95.61.09.84.3.67.75 1.18.85.84.36.03.48.64.43.36.68.16.6.74-.33.65.27 1.09-.07.66.2.53.5.48.03.68-.34.07-.62-1.08-.71.58-.78-.02-.94-1.2-.13-.9-.37-.81.33.04.5-.37-.13-1.1-.27-.42zm-7.99-7.64.47-.07-.4.87-.37-.43zm-3.9 9.94.4-.04.1.79-.62.31-.45-.44-.14-.77zm5.58 18.01.44-.96.5-.08.25.42.01.78-.36.14zm4.17 8.81.55-.24.24.43zm23.62-16.48.06-.63.46-.04.16.43.62.6.66.34.98.68.02.37-.2.8-.4.04-.49-.62-.53-.37-.54-.18-.2.25-.57.05-.58-.47-.19-.35.04-.71.55.01zm.82-2.32.47-.25.32.1.23.38-.43.18z"/>
    <path region="36" short-name="Frome" long-name="Frome" value="1" d="M725.86 675.73h.79l.48-.77.62-.34 3.1-.02v-3.88h1.32l-.01-1.73 1.16.54.15-.17-.01-1.97-.1-.3.09-.75-.01-1.11.5-.37h1.04V664l.47-5.54-.04-.58.1-1.06.37.19.05-.54-.15-.29.08-.99.28-.43-.02-3.7 2.6.16 3.34.11.22-.05 8.03 1.06.64-4.88.57-1.56.1-2.24-1.72.35-2.74-12.96 1.26-.27-.06-.36-.38-.35.05-.96-.17-.54.44-1.26-.21-.26.19-.64.04-1.46-.1-.33v-.9l-.21-2.68.13-.95-.04-.64.15-.17.16-1.85.12-.78h-3.71l-6.6.01-.37-10.39-.02-.73-.62-1.62-.55-3.44 3.04.02.24.5h1.15v-.45l1.29-.16.12-.92 1.62-.23 1.74-.74.93-.06.37.23-.04-.7.19-.15h.63l.4-.3.33-1 .32-.21.19-.82-.16-.19.23-.6-.14-.23.22-.6.34-.39.04-.87.17-.73-.24-.46.12-1.14-.54.08-.42-.18-1.07.2-.42-.14-.04-.35.19-.57-.2-.54-.07-.71.14-.22.09-.9.44.03.4-.7-.35-.4.26-.83h.32l.1-.71.27-.36-.03-1.39.42-.24-.26-.57-.48-.48-.51-.3-.77-.88-.72-.5-.15-1.32.26-3.57.11-.26.4-1.73-.22-.82 1.79-.26.51-.34 1.14.53.15.9 9.28-.06 7.32-.06 14.41-.13 11.22-.1 12.1-.05v8.92l.02 10.15.02 9.9.02 8.34.02 7.67.01 7.47.01 6.92.03 14 .02.06.02 10.49v2.58l.08 1.71v2.47l-.48 2.86-.02 9.33h-6.05l-.05 4.13.86 1.52v1.06l-.9.2-2.36.22-1.13-.11-.45-.2.18-.81-.2-2.2h-.72l-1 .26-.1.85-.23.16-1.09-.38-.31.54-2.97-1.05-.15-.58.28-.86-.45-.3-.39-1.52.59-.88.63-.15.36-.27-3.29-.35-.49.67.35.71-.23.7-.91.31-.5-.25-.34.55-.55.25-.55-.15-.76-.4-1.7-1.05-.37.57v.55l-1.06 1.68-1.12-.7-.46.71-.37-.75-.32.21-.36.54-.38-.24-1.25 1.97.75.48-1.67 2.64.15.59-.22.35-1.65.53-.22.35-.45.32-1.3 1.95.93 1.1-.68.57-1.15-1.36-2.03 1.72.57.69-1.43 1.2-.55-.63-3 5.32-.08.02.08-.7-1.68-.2-.11.92-3.41-.4-1.26-.85-1.78.08.01 3.45-.05.15.07 2.84-.05-.1h-.14l-.14-.16-.11.38-.29.16h-.08l-.1.14-.08-.06-.27.05-.17.15-.05-.12-.18.04-.05-.08-.3.02-.1-.1-.4.17-.13.12-.13.25-.2-.08-.06.04-.4.04-.12-.09-.12.07-.15-.24-.11.03-.36-.08-.27.1-.13-.08-.07.15-.17.05-.02.12-.2-.1-.13-.1-.11.11-.1-.14-.19-.1-.18.13-.15.23-.28.02-.07-.16-.02-.21-.08-.01-.08.17-.09-.02-.13.24-.14-.04-.16.17-.22-.13.03-.12-.07-.1-.23.04-.16-.06-.1.22-.12-.08-.24.24-.19-.04-.13.12-.13.11-.13.12-.14.11-.21.06-.34.02-.07-.06-.16.06.01.33-.17.17.04.23-.13.21-.25.11-.26.12-.26.11-.26.12-.15.3-.18.1-.17.2v.1l-.16.1-.25.01-.33.19-.19.06-.14-.02-.31-.18-.1-.1-.06-.19-.35-.09-.08.02-.17.24-.12-.18-.32-.54.44-.87.62.07-.2-.74-.7-1.35-.43-.68h-.57l-.36-.56v-.65l-.47-.75-.85-.19-1-.96-.38-.05-.4-.48-.3-.1-.15-.66-.67-.62-.21-.48.03-.36-.58-1.68-.68-1.13-.3-.3-.9-.41-.74-.53-.9-1.09-1.46-.93-.48-.7-.26-1.03.1-.6-.24-1.77-.61-1.77-.13-.89-.51-1.4-.88-1.32-.17-.37.38-1.53-.06-.82z"/>
    <path region="37" short-name="Giles" long-name="Giles" value="1" d="m666.42 591.47-9.94.02-9.44.03-8.7.02-11.68.02v-12l.01-4.93-.1-.06-10.16.03v.04l-4.57.01-.05-.12v-6l.01-4.74-.26.3-.68-.15-.23.26-.8.43.48.28-.08.77.68.64-5.33-.02.02-6.27h-.21l-.74-1-.8-1.56-.46-1.04h-1.45l.24-2.16h-.58l-1-1.56v-.64l-.94-.05-1.4-1.28-.94-1.07-1.54-.01.04-1.2-3.47.87-.49.23-3.62-.34-.6-.45-.03-6.07-3.3.03-.17-9.3-.39-.77-.8.03-.03-.67-11.91-.16-1.03.33-3.37.89-.85.06-2.57-.07.02-.15-4.42-.01-.29-.5-.2-.94-.74-.42-7.54.03-4-6.19v-1.03l-1.86-.18-.68.18-2.01.23-.6-1.14-.87-.79-.33-.58h-1l-.37-.17-.12-.87-1.96-1.79-.33-.13-2.14-.09-.91.14-1.63-.08-1.1.41-1.57-.23-.78-.35-2.13-4.7-2.35.94.03-.97-1.35-.64-.89-.74-.38-.02-3.12-1.32-1.4-.18-.95-1.04-2.98-1.77-.68-.62-.27-.87-1.06-.73-.85-.34.03 18.31-11.33.02h-8.3l-.02-11.14-.04-11.88-.32-.03-.71-.58-1.02-.16-1.62-1.3-.03-.24.28-1.61-.16-.73-.08-1.7-.27-.71-3.49.86-2.04-.7-.76-.48-1.05-.3-1.14.07-.19-.82-1.44-2.72-1.41-.31.79-4.34.27-.93 2.1 1.07 1.01-2.7.98-1.08.03-.8.15-.84-.3-.18-.55-.75-.46-.38-.64-.74-.32-.67-.38-.37-.35-.69-.49-.39-.85-1-1.52-1.29.17-1.48-.86-1.6-22.93.11-11.92.03V443.9l-8.29-.02.03-13.36h23.27v-31.44h-19.88v-9.55h-3.6l-.08-5.44 6.51.06.17-12.37-2.75-.38-1.18-.07-.3-.1-.5-.64-.34-.2-1.83-.13v-.3l.2-24.86 2.3.07.3-26.17-13.25.25-.4.09-12.76-.22-8.66-.2-.23-.1-.53.2-.22-.11-1.13-.02-1.39-1.3h-33.85l-.2-44.04-.3-106.72-69.46.21-70.12-.25-140.03-.07V.17h431.82l-.08 8.86h4.46l-.08 6.94-16.5.04 1.27 10.4 5.41.14 6.96.35.9 17.76 12.31-.48 3.73 4.37 2.56 9.45 6.33.04.05 33.5-6.89-3.02-4.03.3-1.81.47 2.6 11.66 4.37.03.53 17.42-4.01.17 1.5 2.8.35-.06.22.41-.3.16.87 1.67.02.13-1.12.6h-1.1v-.85l-7.63.05.02 6.64.01 7.43 6.1 8.61h6.97l.03 2.52 4.31.04.06 1.65 7.25.1-.22 6.98-.02 1.77-.12 4.26 6.96.33-.93.83 1.83 2.13.38-.2 1.93 1.58.26 1.49.57-.08.63 5.23 2.17 7.7 7.83.22 3.13 13.59.8 9.6.33 5.19.05 3.83-2.43.02 2.12.8.97.66.5.46.4.66 1.7 2.12.1.24.64.75.9.8 1.16.75 1.66 2.98.11.13 1.46.97 1.26.55 4.1-.3.73.26.56.36.32.56 1.08 1.14 1.58.53.7.05.92.21-.24.7.73.22.66-.53 4.12 4.39 1.3 1.8.88.82 1.92.68 1.55 1.38.94 1.16.54.84.47 1.04 1.45 2.72.58.84.9 1.61.45.53.4 1.83.12.25 4.52 5 .31.78.38.47.95.89 2.88 3.6.4.27 1.39 1.85 1.97 2.43 1.74-1.52.25.25 3.37-2.6v-.55l8.26-5.6.09-.4.39-.03 7.62-5.07 2.14-2.98 4.63 8.06-.87.45-.63.2-.44 1.15-.43.46.2.68-.47-.08-.25 1.12.67-.25.15-.5.56-1.16.64-.4.17.23.45 2.83-.11.62-.4 1.1.53.58-.6.56-.68-.6-.14.26.3.76h.47l.14.21-1.12.84.43.04.04.27-1.35.34-.19.43.92.28-.43.68.65.27-.15.67-.63.35.76.38-.47.86.04.9.48-.06.39.24.48-.04.46-.22.34.46-.2.22-.83.23-.62.34 1.43-.1-.36.73-.78-.16-.72.36-.26.65.57.13.77-.17v.2l-.76.15-.09.2.93.85.6.82.44 1.2.6.42 1.77.85.5.15.77.42.24.45.64-.1.32.52.45-.31.44.1.03-.39-.22-.4.75-1.2.48-.12.42.73.66.74-.07-.96.1-1.43-.44-.86-.23-.27-.56-.16-.5-.73-.06-.73.66.78 1.14.7.34-.17-.27-.46.17-.22.97.06.53 1 .2-.1.61.9.14-.15-.28-.7-.5-.46-.16-.46.7-.31.63.35.18-.3-.42-.44-.75.23-.45-.1-.38-.5-.07-.9.35-.05.67.22.72-.17.17-.54-.22-.5.48-.15.27.27.48.08.24.5 1.05 1.3-.14 1.6.68.6.4-.34.01-.26-.59-1.48.64.01.2-.25.43-.08.32.4.1.62-.14.6.5.46v.42l-.55 1.1-.01.72.71.19.48-.2.3-.4.3-.09.37.3.14-1 .22-.72-.06-.55-.38-.69-.38-.95.07-.51.7.2.42.45.05.51.32-.04-.58-1.5.42-.14.47.08-.2-.94.17-.23.92-.27.24.42.28-.33-.62-.35.04-.56.62-.6.48.44-.13.44.39.47.95.23.5.32.57.83.06-.5-.17-.5.08-.38-.5-.82-.46.06-.3-.43-.11-.43-.43-.35-.34-.81.06-.57.41-.73.46-.45.4.33.69.37.93.39.08.2 1.04-.59 1.4.08-.15-.44.12-.52.41-.63.08-.42.64-.72.71-.37.56-.63.7-.13.89-.3.35-.29.69-.09.21-.19 1.03.52.72-.15.68-.45.58-.27.51-.06.92-.3.4-.9 1.16 1.73-.55 6.17-1.11 11.87-.72 7.9-1.61 2.32.01.22.82.87.54.27-.28 1.98.04 1.27-.22 1.13-.46 1.35.33.88-.35 4.23-.16 4.03.03 1.14-.24.77.3.8-.08.24-.06 1.82.05 1.32-.02 6.14.01 2.5-.08 3.33.09 10.39 1.05 3.99.14 11.9-.66 2.3.36-.1.58.45.9.5 1.08 1.02.94.32.42.57.28.63-.04 1.06h.76l.31.4.3.02.95 1.17.36.54.61.7.93.28.62.5.3.47.58.6.29.57.5 1.5.39.63.56 1.45.66.42.4-.11.65-.63.19-.64-.1-1.46-.2-.42-.66-.91-1.27-.7-.2-.62.26-1.13 1.34.76.65.56v.55l.85.36.06.58.26 1.17-.07.43.17 2.33-.08.31.18.52.22.06.35.53-.33.09.03 1 .2 1.1.34.64-.02.95.25.52.3.1.43.43.36.69.76.95.46.36.49 1.07 1.04.7.41 1-.06.46.26.9.59.3.21.31.01.47.56 1.33.3.28.22 1.4.6.76.54.1.57-.15.04.47.3.35-.01.4-.52.36.18 1.22-.45.74.36.86-.23.74.2.62-.27.04.45.81.54.42-.17.57-.35-.42-.13.53.53.58-.5.16.66.88-.03.26.54 1.3.47.02.46.53.5-.35.46.62.5.24-.28 1.2-.1.08-.45 1.47-.34 1.35.02 1.14.24.3-.1.93.37.2.14.85.55.95-.06.7.75.97.51.93.18.7.34.16.47-.08.4.54.08.43.77 1.03.04.54h.34l.03.4.25.27-.17.69.4.26.05.36-.32.58v.36l.46.45-.41 1.37-.07.54.52.08.41 1.13.04.86-.4.68-.2.7-.43.45-.11.83.11.78.29.5.45.3-.04.56.52.67.48 1.68-.32.43-.11.43.38.45-.58 1.37.21.8-.16.42.44.68-.23.42.15 1.36-.32-.3-.47-.04-.47.52-.38.11-.5.49-.15.6-.44.33v.41l-.41 1.05.25.95-.08.43-.38.33.12.45-.28.25-.57-.07-.28.16-.1.64-.63.25-.1-.25-.57.26-.44.69.03.46-.23.41.12.98.53.13.16.23.66.14-.3.82-.71-.87-1.03-.45-.31.13-.43.88-.37.12-.18.52-.8 1.38-.64.32-.29.3-.52.19-.58-.3-.7.85-.47.1-.2.87-.56.06-.47.74-.05.69-.2.47-.6.5-.57.24-.14.43-1.11-.74-.59.54.24.36.54.14-.28.4-.46.3-.39 1.74-.33.26-.63.12-.07.83-.23-.01.2.83.16.1.29 1.03-.6.13.11.5-.56.15-.16.5-.32-.18.22-.62-.44-.23-.26-.53-.4.25-.45 1.23.13.6-.28 1.01-.3.4v.47l-.45 1.35-.3.27 8.15 2.28.4.13.02-1.44 4.9.1 2.48.2.92-.16.06-.5 8.99.02h17.8l11.02.01v1.8l1.42-1.22 1.05 1.5.03.73.58.25.2-.22.73.06.8-.52.75-.06 1.43-.32 1-.33.38.42.14.7-.2 2.47-1.05.1-.4.48-.93.14-.43.48-.61.37-.32.4.08.64-.66.56-.26.51-.63.24-.54 1.58.2-.08.48.5-.68 1.02-.06.5.3.5.55 1.65.5.86.05 1.59.16.53.08.95-1.12.63h8.02v11.98l-7.26.03-8.74.02h-6.07v6.39l.06 1.17-.02 9.2-3.33-.02-.11.22h-1.34l-2.01-.14v7.56l-1.1-.02-5.95-.03-5.98.02-.03 9.32-1.75-.8-1.31-.74-.38-.38-.91.47-.42.06-.34-.34h-5.22l-.2-.76-2.47.02v-.2l-3.37-.03v-6.58l-2.2.01h-10.01l.44.53-.04.8.21.2.47.54-.3.5-.4 1.06.14.5.6.68-.08.9-.63.42-.11.65.66 1.02-.48.76-.36.93.01.5.6 1.72-.17.69.33.33v.76l.22.8.07 1.06-.14 1.75-.2.4-.19 1.43-.26.74.1.74-.2.47-.09.89.29.44.17.94-.43.47-.14.42.16.6v.73l.84-.13.69-.54.66.18.36.49.1.5.42.2.44.52.16.52.4.5-.03.7-.48.25-.27.77-.16 1.16.2.27.07.65.31.54-.11.62.14.33-.09.52.2.5v.48l.21.33.09 1-.22.4.17.22-.82.81.18.48-.63.26.38 1.07.08.81-.32.53-.1.8-.23.52L694 557l-.28-.28-.4.06-.22-.26-.35.17-.29 1.02.06.4.49 1.57.64 1.23.5.7.4.93.23 1.1-.9.02-.9-.23.1.39-.87-.03-1.78-.4-.02-.24-.5-.78-.1-.36-.51-.15-.94-1.04-1.31-.3-.83-.41-1 .33-.35.02-.5.3-.29.45-1.31.85-.66 1.26-.5.76.18.65-.02.44.17.54-.45.26-.24-.22-.3.3.27.63.43.46-.43.43-1.12.37-.3.5-.38.06.06.45-.47.26-.09.55-.39.36-.5.76-.4.21-.17.34.35.28-.42.47-.51.06-.4.5-.3.09-.52.41-.69.12-.27.28.03.34-.32.24-1.24.42-.55.34-.34-.02-.3.57-.62.34-.46 1.05.07.34-.02 1.52-.21.32-.13 1.7.03 1.64-.47.66-.06.65-.52.8-.1.39-.55.64-.5 1.46-.54.27-.07.64-.66.27-.02.42-.4.39-.17.76.04.66-.22.6z"/>
    <path region="38" short-name="Hammond" long-name="Hammond" value="1" d="m790.14 773.64.43-8.34-.5.14-.41-.18-.32.24-2.1.48-.43.38-1.12.17-.26.15-1.36-.09-.9.05-.47-.07-1.32.25-.45.4.13-2.32-.21-.34-2.16-.1.02-.47h-1.16l.02-.4h-.87v-.3h-1.21l-1.42-3.49-2.33-.24.31-.98-.66-.08-.39.22-.47-.81-.52-.04-2.09 1.2-.16-.63-.39.22.2.35-.47.28-.3-.35.01-.67-1.16-2.1.03-.51-.43.13.12-.99.44-.15.17-.44.08-.75.44.2.05-.55.3-.25.65-.2.7-.05.6-.78.08-.93.5-.22.6.08.58-.85.86-.98.44-1.18.3-.51-.04-.38.35-.48-.02-.73h.54l1.24-.7.42.58.4.06.28-.48.6-.27.62-1.18-.3-.63.2-.4-.12-.45-.6-.91-.38-1.61 1.07.08-.34-.58-.54-.65.13-.55.6-.02.71.37.28-.46.79-1.87.86.28.46-1.28.18-.32-.56-.47.5-.87-.05-.24-.98.04-.4-.2-.82-.15-.44.1-.9-1.03.47-.38.29.02.44-.73-.22-.31.01-.41.4-.55.13-.42-.14-.7.16-.3-.21-.52.45-.77.3-.22.2-.5.9-.28.43.2.3-.33.09-.65.24-.43.73-.43.38-.75.09-.75-.08-.52.33-1.05.09-.6-.24-.42.07-.42.8.05.15-1.55.6-.54.12-.8.75-.82.49-.17.66.59.3-.34 3.34.63.25-.16.3.34 1.39.17.03-.45.48.13.4-.15.11-.66-.08-.46.18-.27.04-1.08.51-.65-.23-.48-.32-.25.36-.3.43.05.88.52h.95l.74.6h1.64l.29-1.25.7 1.25v1.24l6.12-.01v2.59l-.45.3.58.3-.1.36-.01 1.83 1.28 2.13-.07.57.17.31-.37.59.05.8.69 1.07v1.42l2-.13.66.14h4.44l1.02.16.12 3.12 3.32-.01 6.2.01.01 7.52.18.8-.18.37v9.8h-10.41l-.82.03-7.09-.01.49.4-.29.78.66.4 1.02.78.86.46 1.37 1.43.83.65 1.1.73.62.79.23 1.36-.17.5-.41.5-1.28.86-.6.23-1.36.13-.94.35-.5.66-.17.59.08.47.46.76.11 1.18-.17.36-.8.8-.6.4-1.01 1.59-.57 1.11-.81.69-.1.77-.19.36-10.39 3.71z"/>
    <path region="39" short-name="Heysen" long-name="Heysen" value="1" d="m762.95 721.7 1.1-.05.48.38.37-.15.14.36.68.55 1.76 1.07-.63-.16-.78.13.03 1.12-.3.23-.1 1.42-.22.5-.24 1.48-.63.7.02.25.79.41-.38.72-.1 1-.25.64.9.7.36.61.67-.14.82 1.38.33.18.27-.33.72-.16.44 1.14-.54.97-.1.64-.39.15.07.5-.5 1.22.1 1.1v.88l.19.45-.02.66.18.1-.13 1.21.3.42.72.42.34.47-.24 1.03.5-.15 1.36.22.5.2-.22.54.53.06.32.47-.3.51-.45 1.18-.85.98-.59.85-.6-.08-.5.22-.08.93-.6.78-.7.04-.66.2-.29.26-.05.55-.44-.2-.08.75-.17.44-.44.16-.12.98.43-.13-.03.52 1.16 2.09v.67l.3.35-.81.99-.4.12.17.4-.9.57-1.02-.08-.18.55-.9-.34-.64-.1v.5l-.3.15-.22.54-.44.6-1.24-1.06-.56-.03-1.03-.65-.7.1-.57.25-.24-.46-.82-.53-.38-.08-.3.27-1.2.14-.66.5-.6-.17-1.25.34-.47-.14-.32.44-.71.12.18-.48-.67-.92.23-.17-.35-.43.35-.23-1.12-.61.76-.51.65-.62.3-.13.26-.56 1.33-1.63-.4-.74-.08-.57-.86-.47 2.42-2.74 1.18.94-.05-.33.34-.8.74-.2-.11-.7.44-.7v-.8l-.67-.5-.62-.15-.28.7-.7.03-.47-.37-.43.3-.59.16-.45.43-.6.09-.54-.4-.94.07-.13-2.2.05-.07.02-.16.27.03.18-.12.23.18.25.07.03-.37.2-.05.07-.3.16-.06.1.06.09-.25-.18-.08v-.1l.11-.08.2.02.04-.12h.16l.15-.18-.05-.76-.56.04-.08-.17.06-.41.06-.2-.04-.17.06-.17.22-.22.18-.25.06-.29.01-.21.17-.22.24-.07.14-.3-.1-.15.64-.05.06-.23.74-.05v-.09l.19-.1.3.05.06-.15.14-.1.14.15.14.05.32-.16.38-.34-.02-.13-.16-.11-.23-.1-.24-.23-.07-.2-.02-.33-.14-.1-.08-.15-.2-.18-.03-.23-.4-.2-.02-.12.23-.05-.26-.22-.02-.33.45-.04-.03-.27.34-.02-.1-.12.03-.17-.22-.18.13-.17.15-.02.26.07.05-.22h-.28l-.03-.11h-.13l-.03-.44h.2l-.01-.18.14-.1.3.06.19.13.08-.08.3.03.42-.01.12.06.14-.06.24.1.1-.07.25-.07.03-.13.32-.14.08-.19.3.05.03-.16-.17-.07-.13-.22.25-.08.24-.34-.3-.18.13-.37.36-.6-.35-.04-.1-.06-.3-.04-.16-.07-.36-.27.14-.18-.43-.21.3-.24.35.2.24-.6-.76-.28v-.17l.35-.3.1-.04.19-.22.37-.32.18.08.3.06h.21l.2.58.08.12.3.15.09.25.05.32h.13l.6-.52-.53-.58.44.03.04-.3.49.02.02-.41.05-.18.12-.09.19.13.05-.07-.09-.25-.1-.01-.1-.19.05-.18-.07-.1.18-.36.1-.1-.34-.04h-.25l.11-1.28.95.08.07-.68-.5-.38.06-.15-.1-.2.04-.2-.18-.06.16-.4-.19-.2-.1-.16.04-.12.46.18.28.02.13-.23.23-.11-.09-.22-.05-.45-.17-.06-.03-.98.14.03.16.17.24-.06.03-.12.2-.15-.14-.19.55-.77-.05-.13.06-.1-.37-.14.59-.74.32.16.2.27.1-.02z"/>
    <path region="40" short-name="Kavel" long-name="Kavel" value="1" d="m777.98 726.55-.3.22-.45.77.2.52-.15.3.14.7-.12.42-.41.55-.01.4.22.32-.44.73-.3-.02-.45.38.89 1.03.44-.1.82.15.4.2.98-.04.04.24-.5.87.57.47-.18.32-.46 1.28-.86-.28-.79 1.87-.28.46-.7-.37-.61.02-.13.55.54.64.34.58-1.07-.07.38 1.6.6.92.11.46-.19.4.3.61-.62 1.2-.6.26-.27.48-.41-.06-.42-.57-1.24.7h-.54l.02.72-.35.48.04.38-.31-.47-.54-.06.23-.54-.5-.2-1.37-.22-.5.15.24-1.03-.33-.47-.73-.42-.29-.42.13-1.2-.18-.11.02-.66-.2-.45v-.88l-.1-1.1.51-1.22-.07-.5.4-.15.1-.64.53-.97-.44-1.14-.72.16-.28.33-.32-.18-.82-1.38-.67.14-.35-.6-.9-.71.25-.63.09-1 .38-.73-.79-.41-.02-.25.63-.7.24-1.47.21-.5.1-1.43.31-.23-.03-1.12.78-.13.63.16.22-.3.49.34.76.08.35-.26.7-.18.1-.34.84-.06.34-.3.7.02.67-.31.42-.54.92.29-.23.55.02.92.18.33 1.14-.67.45.31v.45h.44l-.41.9 2.52-.02-.28.22-.19.62z"/>
    <path region="41" short-name="Mackillop" long-name="Mackillop" value="1" d="m870.84 972.97-.24-.67-.6-.95-.24-.7-1-1.73-1.34-2.1-1.63-2.2-.42-.43-.66-.95-1.7-2.05-.8-.79-.39-.14-.28-.44-.88-.5-.58-.66-.42-.1-.33-.38-1.33-1.12.19-.49.6-.24.4-.65.08-.85-.2-.75-.55-.99-1-1.05-.79-.6-1.35-.88-.52-.83-.64-.78-.68-.47-1.23-.37-.85.22-.35.47-.03.52-.49.07-.42-.15-.34-.37-.02-.56-.49-.53-.63-.37-.86-1.06-.54-.95-.66-.5-.34-.82-.5-.52-.65-.44-.04-.38-.34-.72-1-1.45-1.13-.88-.32-.4-.53-1.25-.73-1.06-.11-.54-.3-.57-.65-.55-.5.02.1-.49-.55-.66-.4-.26.04-.28-.44-.5-.7-1.14-.15-.47-.52-.5v-.27l-.5-.69-.04-.41-.57-.58-.11-.7-.41-.9-.37-.3-.01-.53-.3-.13-.8-1.68-.07-.3-.62-1.11-.5-.33-.72-.97.29-.69-.14-.48.46-.85.3.46h.57l1.07.3.48-.2.35-.46.39-1 .13-.78-.04-1.05-.3-1.23-.61-1.37-.47-.7-.64-.7-.69-.13-.84-.33-.31-1.09-.06-1.41.24-.6-.02-1.34-.83-1.3-.6-.75-.7-.56-.44-.48-.87-.65-1.16-1.23-.45-.77.05-.52.31-.91 1.46-.17 1.13-.69.46-.36.68-.83.9-.42.41-.39 2.26-.94.66-.5.75-1.08.6-.33.73-.76.48-.97.75-.74.46-.82.53-1.41.3-1.87.34-1.65.16-1.33.04-2.75.07-1.66-.16-2.67-.45-2.24-.63-2.8-.9-3.41-.8-2.9-.58-1.85-.85-3.02-.95-2.8-1.23-3.16-.88-1.92-1.06-2.68-.3-.91-1-2.35-1-2.6-.98-1.86-.79-1.85-.88-1.64-1.15-2.52-2.84-5.17-1.67-2.92-2.82-4.52-1.93-2.86-2.73-3.8-2.54-3.16-2.4-3.1-1.66-1.92-.48-.62-3.67-4.1-1.38-1.4-.75-.84-2.22-2.28-3.96-3.76-.74-.55-.68-.67-2.65-2.3-3.57-2.95-1.45-1.1-.9-.75-1.76-1.27-.86-.68-3.59-2.45-2.07-1.35-2.83-1.6-1.55-.92-.73-.28.19-.27 1.3-.08 1.45.54.27-.18.53.3.3-.6.5.02.78-.4.63-.5.23-.34-.03-1.08 1.06-.91.38.16.37-.36 1.06-.27.74.18.29-.23.85.08.91-1.05 6.86-2.51 2.44-.98 10.4-3.7.18-.37.1-.77.81-.69.57-1.11 1.02-1.58.6-.41.8-.8.16-.36-.1-1.18-.47-.76-.08-.47.16-.6.5-.65.95-.35 1.36-.13.6-.23 1.28-.86.41-.5.17-.5-.23-1.36-.62-.8-1.1-.72-.83-.65-1.37-1.43-.86-.46-1.02-.77-.66-.4.29-.79-.49-.4h7.09l.82-.01h10.41v3.04l4.59.02h14.62v6.2l12.59.01 12.56.06.01-6.24-.02-2.3-.01-7.23h12.4v-7.58l5.9.02 1.58-.17.27.1 1.7-.12.5.14 1.58-.06.9-.13-.01-1.14 1.61-.28.48.15.65-.04 2.41-.62.95-.19.68-.26h1.26l.2.09 1.15-.01 1.24.07 1.04-.16.88.69.66-.87.62.08.46.55.43.07.84.85.77.27 1.28-.26 1.1.22 1.23-.16 1.08.04.9.15 2.08-.15 1.1.19v8.4l.02 11.25.02 13-.09 12.63-.13 18.32.03 9.65.03 11.74.12 15.58.06 7.06.06 10.16.02.65v5.91l.04 8.89h.02l.03 9.91-.02 6.05.05 7.89.04 2.14.05 5.45.1 13.63-.04 9.87-.04 4.38.15 7.17v2.86l.06 10.53-.02 4.04-.06 9.15-15.5-.07-5.25-.03.15.55-.8 2.26.57 1.1.03 3.6.3.23.37.82.06.67h-.48l.04 1.83-4.41.02-.51.23-.02 1.47-9.31.03-.03 2.7-.44-.01-.01 1.48h-.19l.93 1.5h-.5l-.99.85-.84-.02-.5.37-.96.24-.18.16-1.13.04-.51.23-.45-.02-.06-.9-.3-.45-.17-.57.2-1.22-.12-.9-.5-.88-.14-.78-.67-1.14-.17-.64z"/>
    <path region="42" short-name="Mawson" long-name="Mawson" value="1" d="m684.45 789.88-.31.02-.7.4-1.1 1.18-.17.61.01.59-.87.7-.89 1.11.31.23-.39.4.07.43.54.56 1.17.3 1.07-.09.64-.28 1.6.41 1.29.27 2.01.01.63-.06 1.22-.4.64.12 1.18-.44 1.36-.66.82.08.27.3.13.66.46.28.04.62.6.54.1.56-.18.24-.73.36-.63.79-.67.6.13.49-1.01.3-.08.22-.81.66-.15.43v.7l.13.83.37.14-.15.79.48.24.26-.33.6-.37.3-.5.52.62 1.03.31.82-.65.48-.1-.1-.75-.26-.25-.7-.28-.54.17-.53-.03-.52-.28-.36.47-.36-.3-.2-.62.02-.45.74.01.4-.37-.08-.65.14-.18.57.45.9.53 1.53.38.51.03.29-.2 1.27-.28.42-.38.1-.34 1.53-1.81.76-.63-.03-1.12.2-.22-.07-1.26.48-.73.46-.25.6.25h.84l.54-.3h.39l.2.39.93.07.56-.17.58.02 1.23.39.63.1 1.05.44.47.43.55.13.28.34.88.15.06.32.47.2.74.6.3.64-.11 1.48.37.92.33.42.8.66 1.09.48.63.05.6-.23.26.22-.42.9.31.65-.02.59.77.8-.6.4-1.04.02-.42.44-1.02.77-1.08 1.27-.7.34-.4.56-.13.54-1.16.9-.21-.12h-1.09l-.84-.42-.25-.36-1.32-.66-.73.02-.34-.63-2.43-1.22-.44-.02-1.31-.29-.2-.14-.68.27-.63.4h-.48l-.12.26h-.64l-.38-.63-1.38-.47-1.34-.17-.76-.25-1.02-.12-.8.14-1.67-.16h-.93l-.88.12-.55.4.18.34-.5.6-.3.74-.43-.07-1.3.08-1.21.21-1.48.41-1.27.61-1.61 1.18-.46.42-.57.82-.6 1.57.05 1.22.24.81.44.73.62.52-.15.68.04.58-.55.58-.4 1.1-.63.11-.5.8-.32-.11-1.32.4-.78-.1-.34.25-.7.15-1.02 1-.4.26-.25.54-.5.3-.16.45-.59-.1-.71.2-.52.78-1.02.56-1.02-.86-.47-.5-1.3-.98-1.53-1.44-.35-.43-.9-.76-.31-.11.06-.5-.42-.23-.22-.6-.56.04-.35-.29-.8-.16-.41.19-.36-.23-.87.24-1.44-.23-.71-.25-1.04.2-.98-.72-.55-.25-.47.17-.87-.12-.53-.44-1.39-.27-.77.08-1.03.56-.29.37.01.7.66.34-.8.58-.09.49-.52.1v.3l-.5.15-.06.54-.71.04-.36-.2-.55.35-.03.38-.43.4-.65-.32.07-.28-1.43-.75-.72.6-.63-.33-1.09-.09-1.2.3-.13.27h-1.26l-.44-.34-1-.32-.59.08-.35-.18-.4.23-1.32.04-.52.48-.83.05-.37.22-.33-.28-1.31.95-.19.3-.48.2-.88-.56-.56-.5-1.63-.73-.26-.3-.53-.16-.44.15-.86-.1-.66.15-.4.63-.08.39-.52.15-.12.27-1.06-.36-.37.07-.9-.13-.43.22-.22.37.13.46-.76.14-.48.39-.27-.3-1.38-.25-.47.15-.97.94-.36.2-.07.37-.43-.1-.27-.28.68-.8.1-1-.57-1.39-.5-.62-.27-.82-.8-1.07-.34-.69-.5-.75-.9-.91-.7-.18-.28-.21-.63-.03-.35-.52-1.45.57h-.62l-.08-.52-.45-.36-.51-.16v-1.49l-.53-.57-.85-1.11-.33-.1-.1-.43-.84-.86.46-1.02-.9.16-.2-.93.39-.71.08-.64.26-.24 1.25-.4.17-.3-.25-1.79.52-.62-.16-.96.37-.21.05-.58.5-.52-.04-1.02-.23-.62-.07-.9.46-.4.12-.6.36-.43 1.27-.23.8-.08.83.32 1.02-.18.72-.24 1.19.05 1.46-.44h.39l1.04-.7.4-.77.49-.08.58.2.26-.14 1.02.13.54-.1.53-.64.87-.3.33-.99 1.2-.02 1.88-.3.83-.08.7-.24.68.11 1.14-.56 1.13.12.43-.26.9-.13.33-.2.52-.03 1.83-.62.66-.08.98.17 1.46-.2.4-.13.83.17 1.15-.16.28-.18.7.02.8-.27 1.13.11.38-.38.49-.03 1.09-.5.37.04 1.37-.53.3-.79.54-.26.04-.22.58-.67 1 .07.44.2 1.3-.6.27-.39.85.3.5-.02.47-.66.83.08.78-.92 1.64-.38.33-.19.34.26 1.28-.47.77-.67.43-.06.29-.52.41-.34.88-.12.78.16 1.09.61.85.03.58-.16.83.44 1.63-.25 1.3.29.5.24.88.2.37-.03 1.04-.65 1.2-.27.25-.33.6-.03.72.67.08.4.35.16 1.03-.05.53-.18.94-.52 1.11-1.21.58-.26.36.1.64-.18.44-.38.43.54h.76l1-.78.8.56-.3.73-.02 1.39-.21.37-.56-.6-.78.08-.67.4-.67.54-1.33 1.47-.1.36.11.84.94.84h.84l1.5-.54 1.1.5.62-.13.14 1.26zm65.09-42.9.13 2.21.94-.06.54.39.6-.09.45-.42.6-.17.42-.3.48.38.69-.05.28-.7.62.17.67.48v.8l-.44.71.1.7-.73.2-.34.8.05.33-1.18-.93-2.42 2.73.86.47.09.57.4.74-1.34 1.63-.26.56-.3.13-.65.62-.76.5 1.12.62-.35.23.35.43-.23.17.67.93-.18.47-.45.42.33.65-.88.3-.3-.04-1.27.63-.06 1.26.61.16.72.53.02.79-.58.27-.29.34-.48-.07-1.06.27.1.4-.47.08-.16.31-.43.18-.18.32h-.69l-.34-.25-.56.31-.1.83-.36.57-.63.17-.55.45-.08.75-.42.35-.08.31-.47.35-1.9.11-.96-.47-.49.26h-.45l-.07 1.25h1.36l.42-.08.37.35-.2.78-.59.75v.34l-.29.32.3.81.6.2h.5l.32.29-.07.87.68.75.04.53.69 1.53.5.55-1.04.75-.16.33.27.79-.26.64v.64l-.29 2.1-.45-.05-.7.38-.76.6-2.06-.15-.89.3-.55-.2-4.2-.16-.84.18-.31-.12-1.27.22-.75.72-.8.47-.22-.06-.57.43-.65.2-.37-.1-.51.22-.68-.01-.64.17-1-.13-.41-.24-.45.03-.56-.26-1.2-.75-.17-.23-.6-.12-.27-.44-.47-.23-.34-.47-.7-.05-.54-.67v-1.16l-.12-.6.16-.27.7-.45.65-1.14.2-.79.36-1 .81-1.06.26-.1.85-.91.03-.24.77-.69.23-.58.26-.1 1.72.46 1.27-.88.1-.18.74-.1 1.1-.7.17.02.6-.6.68-.38 1.5-1.29.59-.29.56-.88.43-1.05.39-.6 1.15-2.23.28-1 .77-1.08.44-.2.81-.65.3-.41 1.3-.63.2.16.73-.42 1.06-.13 1.55-1.14.55-.17.44-1.45.08-1.87-.2-1.85-.17-.5.08-1.2.47-.18.53-.46.24-.43.03-1 .42-.2.15-.47-.14-1.55.83-.07-.01-.24.87-.05-.14-.33.12-.57.43-.03.31-.46h.1l-.03-.51-.2-.3-.1-.08 1.17-.07-.05-1.26.2-.05.2-.13-.08-.18.03-.14.36.04.19-.11.15.02-.02-.26.37-.2.02-.14.25-.01.28.19.37.06.21-.41.17-.04.24.21.26-.01.24.06z"/>
    <path region="43" short-name="Mount Gambier" long-name="Mount Gambier" value="1" d="m870.84 972.97 4.86-.02.17.65.67 1.14.15.78.5.87.11.9-.2 1.23.16.57.3.45.07.9.45.02.51-.24 1.13-.04.18-.15.97-.24.49-.37.84.02.99-.85h.5l-.93-1.5h.19l.01-1.48h.44l.03-2.69 9.31-.03.02-1.47.5-.23 4.42-.02-.04-1.82h.48l-.06-.68-.38-.82-.3-.22-.02-3.6-.57-1.1.8-2.27-.15-.55 5.24.03 15.51.07.01 3.8-.05 3.2-.05 6.73-.18 9.7-.14 10.47-.08 5.53-1.7-.22-1.66-.1-1.1-.38h-1.07l-.92.26-.8-.48-1.39-.38-1.63.1-.79.57-1.26-.32-.4.02-.6.3-.57.7-.53.07-.49-.12-.36.22-.63-.38-.68-.01-.87-.23-1.44.45-1.41.06-.45.23h-.53l-1.18-1.17-.22-.5-.9-.25-.58.16-.19-.67-.8-.45-1.14-.28-.68.42-.28-.46-.38-.2.05-.7-.33-.48-.62-.25-.43.03-.67-.31-.6-.53-1.2-.6-.59-.52-.42-.93-.89-1.2-.64-.32-.18-.28-.6-.21-.55-.83-.51-.48-1.04-.44-.3.12-.59-.25-.44.06-.16-.47-.39.05-.64-.76-.5-.23-.45-1-.47-.39-.44-.06-.3-1-.53-.7-.4-1.76-.4-.86-.8-1.34-.16-.5-.9-1.6.1-.32-.57-1.02-.19-.69-.52-.82-.23-.7-.6-.98z"/>
    <path region="44" short-name="Narungga" long-name="Narungga" value="1" d="m704.5 603.4 9.92.18 4.46.08 8.61.13.6-.93v.95l9.11.12.63 1.62.01.73.37 10.4 6.6-.03 3.72.01-.12.78-.16 1.85-.15.17.04.64-.13.95.22 2.68v.9l.1.33-.05 1.46-.2.64.22.26-.44 1.26.17.54-.05.96.38.35.06.36-1.26.27 2.74 12.96 1.71-.35-.09 2.24-.57 1.56-.64 4.88-8.03-1.06-.23.05-3.33-.11-2.6-.16.02 3.7-.28.43-.09 1 .16.28-.05.54-.38-.19-.1 1.06.05.58-.47 5.54v.84l-1.05.01-.49.37v1.1l-.07.76.09.3v1.96l-.14.18-1.16-.54.01 1.72-1.33.01.01 3.88-3.1.02-.62.34-.48.77h-.8l-.31-1.3-.36-.54-.7-.8-.85-1.7-.6-.35-.68.14-.62-.08-.64.15-.74-.37-.17-.33.2-.35.64-.12.32-.2.35-1.52-.05-.55-.45-1.22-.09-.7-.91-1.49-.71-.3v-.35l-.39-.72-1.1-1.57-.56-.52-.06-.61-.18-.33-.95-.61-.88.12-.62.6-.14.6-.32.4-.52 1.07-.57.46-.58 1.2-.47 1.48-.13 1.21-.13.5-.66.36-.64.78-.5 1.69-.01.48 1.38 1.95-.19 1.48-.18.58-.06 1.33-.56 2.07-.76 1-.71.77-1.03.81-1.8 1.67-.74 1-.64.63-.7 1.06.07.46-.4.89v.84l-.45 1.06-.02.36-.4.64-.11.73.11.32-.6.8-.34 1.04.13.4-.14.52.08.55-.04 1.18-.18.62.09 1.18-.57 1.18-.02 1.49.22.44.46.45.49.26 1.02.29-.39.55-.04.91-.37.6-.7.57.03.29-.31 1.05-.36.54.24 1.44.03.84-.26.5.01.58-.21.25-.37 1 .08.29-.21 1.17.03.46-.35 1.4.18.34-.43.18-.04.54.33.56-.64.74-.3.65-1.25 1.36-.03.3-.4.87-.12.9-.39.45-.52 1.23-.25.4-.14.7-.37.68-.32 1.42.04 1.02.6.49-.92.77-.17.78-.26.4-.08 1.02-.73 1.09-.39 1.1-.5 1.1-.27 1.13.27 1.08.03 1.24.2.78-.03.52-.4.36-1.07-.24-.9.31-.23.3.73 1.68.58.52.22.86-.36 1.05v.54l1.1.93-1.12.71-.12.28-.66.45-.99.32-.5.07-.95.5-.65.56-.21.42-.25 1.07-.31.22-1.07.02-1.34-.17-.36.16-.48-.57-.5-.2-.92-1.1-1.02-.6-.77-.7-.27-.02-.75-.53-1.08-.63-1.3-.3-1.07-.04-.7.48-.42-.12-.59-.57-2-.92-1.2-.21h-1.86l-.7.28-.6.5-2.26 1.17-1.49 1.15-.59.82-.24.6.17.96-.6.54h-.48l-1-.23-.57.02-.34.24-1.05-.3-.6-.32-1.17-.18-1.55.47-.27.33-.84.5-.75.79-1.17 1.66-.28.52.16.44-.2.29-.12 1.12-.31-.11-.45.23-.16.35-1.01.1-.17.23-.5-.06-.49.37-1.07-.23-.72-.27-.7.22-1.03-.75-1.27-.44-.3.17-1.58-.5-.88-.1h-1.44l-1 .17-.76.48-.61.74-.14.5.18.55-.89.2-.24.78.04.5-.7-.03-.77.19-.25.82.12.32-1.07.11-.35.24-.8.07-.88-.1-.2.62-.47.48-.52.14-.31-.59-.55-.56-.67.11-.37-.47-.35-.07-.42-1.14-1.05-1.59.31-.7-.2-.58.77-.14.27-.35.02-.86-.25-.53.17-.52-.07-.88.16-.6.4.2.62-.02.34.18.72-.4.4-.07.56-.38.3-.52.04-1.38.31-.4.97-.32.5-.88.95-.33.54-.95.14-.97-.13-.88.4-.12.4-.6.08-.4.41-.4.05-.78-.38-1.3-.67-1.55-.67-1.25-.4-.16.17-.42.76-.26.4-1.02.49.01.57-.44.44-.82.09-.65-.05-.85-.17-.2.08-.66.26-.97-.05-.42.31-.17-.1-.67.27-.25.86-.23.52-.63.9-.72.12-.55-.11-.68-.26-.73.53-.3.25.51 1.07.05.88.28.36.37.77.5.9.4 1.15.1 1.57-.08 1.05-.12 1.07.05.84-.21 1.83-.81.63-.4.46-.07.67.21.9.12.68-.1.76-.25.33-.37.56.17.85-.28.63-.08.95.54.24.47.15.67.57.9.38.31.79.3 1.85-.13.36.33.05.73.56.65 1.02.34 1.44-.5.96-.52 1.41-1.08.6-.62.73-1 .59-1.76.05-1.42-.09-.41.2-1.77-.08-1.06.12-1.01-.06-1.1.16-.83.3-.91.35-.72.39-1.57.11-.89.02-1.2.48-1.88.22-.48.2-1.93v-.91l.14-.74.56-.82.34-1 .25-2.05-.03-1.97-.15-1.5-.71-1.93-.54-.79-.16-.9-.34-1.22-.44-.56-.12-.66.28-.25.38-1.1.03-.8.2-.46-.17-1.77-.14-.57.26-.26-.14-.78-.26-.44-.91-.77-.95.3-.64.83-.32 1.57-.82.97-.41.08-.5-.94-.05-.73.41-.48.52-.31.73-1.17.54-1.82.09-.75.46-.13.3.37.44.02.55-.29.33-.54.37-1.68-.03-.5.14-1.88.59-1.53.45-.57.19-1.63-.13-.98-.18-.43.13-.92-.1-.62.37-.33-.22-.7.01-1.05.11-.45-.08-.68-.33-.81-.37-.63-.01-.38-.46-1.14-.59-.64-.74-1.18-.3-.71-.2-.93-.54-.97.35-.62.75.09.48.34.54.04.96-.32.8.34.77-.24.34-.29.25-.62.12-1.33.4-.6.4-.25.41-.82.13-1.14.45-.08.42-.77.06-.49.33-.5.3-.82-.12-.84-.44-.98-.5-.65-.54-.47-.46-.06-.5-.6.43-.21.23-.51.77.07.51-.38.18-.4-.08-.52.27-.54.78-.32.24-.75.57-.69.32-.57.75-.72.2.05.59-.47.82-.35.41-.38.05-.73-.14-.9-.27-.62-.69-.33-.42-.51-.6-.44v-.22l.6-.66.46-.32.7-1.23.9-1.13.23-.48.61-.46.44-.5.65-.38 1-1.25 1.12-.93.47-.28 1.19-1.03.43-.54.46-1.38.23-1.18.4-.4.9-1.6.42-.32.86-1.11.74-.45.36-.4.6-.14.57-.68.09-.46.48-.36-.06-.25.47-.24-.07-.33.49-.17.1-.5.51-.64.9-.28 1-1 .27-.46.48-1.27.27-.16.2-.67.8-.47.14-.27.87-.18 1 .1.35.84-.8 1.46-.58.1v-.62l-.24-.65-.26 1.43-.24.33.02.44.38.19.74-.13.66-.28.56-1.05.2-1.77.35-.8.08-.63-.12-1.45.12-.3.64.11.18.39.12 1.12.78-.01.26.21.48-1.11.36-.1-.18-.57.15-.29-.42-.37-.56.48-.74-.15-.52.11-.44-.52.12-.36.03-1.2.21-1.46-.29-.16-.44-.57-.24-.7.03-.91zm-74.48 161.87-.3-.27.28-.42.61.3-.02.25zM664.44 689l.45-.5.48-1.12.8.54.1.35-.2.86.23.26-.05.49.31.46-.45.38-.19.38-.21 1.15-.31.88-.42-.07-.32.25-.4-.39-.43-.1.02-1.6-.31-.73.21-1.03.2.08z"/>
    <path region="45" short-name="Schubert" long-name="Schubert" value="1" d="m777.98 726.55-.35-.64.2-.62.27-.22-2.52.02.4-.9h-.42v-.45l-.46-.31-1.14.67-.18-.33-.02-.92.23-.55-.92-.3-.42.55-.68.31-.69-.03-.34.31-.83.06-.1.34-.7.18-.36.26-.76-.08-.5-.34-.21.3-1.76-1.08-.68-.54-.14-.36-.37.15-.47-.38-1.1.06-.27-.37-.02-.17-.07-.1-.2-.11-.06-.1-.03-.32-.17-.2.09-.21.02-.2.08-.25-.04-.1-.15.06-.27-.05-.05-.86.55-.04.01-.33.2-.15.2-.32-.08-.1.03-.12-.92-.28-.06.19h-.17l-.17-.05-.07-.27.25-.15-.14-.2.2-.2.03-.2.43-.03.09-.28.12.04.28-.23-.24-.3-.25-.3.48-.41-.13-.15h.23l.13-.16.63-.4.18-.04.13.19.22-.3.12-.29-.08-.16.21-.22.17-.07h.2l.01-.1-.1-.22-.3-.33-.22-.11-.16-.21-.04-.28.2-.65-.07-.24.1-.3.25-.28.05-.25.01-.3.06-.52.5-.72-.32-.5-.36-1.02-.33-.08-.14-.23-.31.08-.36.05-.18.07-.13.23-.16.08-.71.14-.16-.1-.2-.02-.22.02-.54-.08-.24.04-.02-1.32.07-.93.25-.24.47-1.21.65-1.2.25-.3.5.35.78-1.15-.27-.4-.34-.19.72-.36-.2-.17-.06-.17.08-.09.88.03.31-.2.32-.31-.15-.3-.45-.07.01-.53-.16-.04-.33-.17-.17-.17-.25-.18-.18-.03-.36.01v-.16l.11-.12.1-.28-.17-.03-.09-.16-.17-.01-.06-.23.47-.16v-.12l.12-.2.13-.1-.84-.21.16-.25-.42.18.02-.15.08-.02 3-5.32.55.64 1.43-1.21-.57-.69 2.03-1.72 1.15 1.36.68-.57-.93-1.1 1.3-1.95.45-.32.22-.36 1.65-.52.22-.35-.15-.59 1.67-2.65-.74-.47 1.24-1.97.38.24.36-.54.32-.2.37.74.46-.72 1.12.7 1.07-1.67v-.55l.37-.57 1.69 1.04.76.41.55.15.55-.25.35-.55.49.25.9-.31.24-.7-.35-.71.5-.67 3.28.35-.36.27-.63.15-.59.88.4 1.52.44.3-.28.86.15.58 2.97 1.05.31-.54 1.09.38.23-.16.1-.85 1-.27h.72l.2 2.2-.18.81.45.2 1.13.12 2.37-.23.88-.2 1.81-.27 2.11-.17-.03 4.46-4.64 3.2-1.54.9-.22.52-.3-.3-.8.21h-.47l-.32.23.13.56.97-.46-.45 4.49-.09.57-.88.13-.24-.12-.39 1.06.56-.15-.03 3.33-.31.34-.48-.21-.47.63.28 1.08-.04 2.25-.43.8.34.96-.05.53.28 1.39-.72 1.1.2.99-.52.24.69 1.27-.83.03-.3.87-.37.3.32.26.23.48-.51.65-.04 1.08-.18.27.08.46-.1.66-.41.15-.48-.13-.03.45-1.4-.17-.3-.34-.24.16-3.34-.63-.3.34-.66-.59-.5.17-.74.82-.12.8-.6.54-.15 1.55-.8-.05-.07.42.24.42-.1.6-.32 1.04.08.52-.1.76-.37.75-.73.43-.24.43-.1.65-.3.33-.43-.2-.88.29z"/>
    <path region="46" short-name="Stuart" long-name="Stuart" value="1" d="m692.97 517.07-.2-.2.03-.8-.44-.54 10 .01h2.21v6.57l3.37.02v.2h2.46l.2.75h5.23l.34.34.42-.06.91-.47.37.38 1.32.75 1.75.79.03-9.32 5.98-.02 5.95.03 1.1.02v-7.56l2 .14h1.35l.1-.22 3.34.01.02-9.19-.06-1.17v-6.38l6.07-.01 8.74-.02 7.25-.03.01-11.99-8.02.01 1.12-.63-.08-.95-.16-.53-.05-1.59-.5-.86-.55-1.66-.3-.5.06-.5.68-1-.49-.51-.19.08.54-1.58.63-.24.26-.51.66-.56-.08-.64.32-.4.61-.37.43-.49.93-.13.4-.48 1.05-.1.2-2.47-.14-.7-.38-.42-1 .33-1.43.32-.74.06-.8.52-.74-.06-.2.22-.58-.25-.03-.74-1.05-1.5-1.42 1.23v-1.8h-28.82l-9-.02-.05.5-.92.15-2.47-.2-4.9-.1-.03 1.44-.4-.13-8.15-2.28.3-.27.46-1.36v-.46l.3-.4.27-1.02-.13-.59.45-1.24.4-.24.25.53.45.23-.23.62.33.17.16-.5.56-.15-.11-.5.6-.12-.29-1.04-.16-.09-.2-.83h.23l.07-.82.63-.12.33-.26.4-1.75.45-.3.28-.39-.54-.14-.24-.36.59-.54 1.1.74.15-.43.57-.24.6-.5.2-.47.05-.69.47-.74.55-.06.21-.87.47-.1.7-.84.58.29.52-.2.3-.3.63-.31.8-1.38.18-.52.37-.12.43-.88.3-.13 1.04.45.7.87.31-.82-.66-.14-.16-.23-.53-.13-.12-.98.23-.42-.03-.45.44-.7.57-.25.1.25.63-.25.1-.64.28-.16.57.07.28-.25-.12-.45.38-.33.08-.43-.25-.95.41-1.05v-.41l.43-.32.15-.61.5-.49.4-.11.46-.52.47.03.32.31-.15-1.36.23-.42-.44-.68.16-.42-.21-.8.58-1.37-.38-.45.11-.43.32-.43-.48-1.68-.52-.67.04-.57-.45-.28-.29-.51-.11-.78.11-.84.43-.44.2-.7.4-.68-.04-.86-.41-1.13-.52-.08.07-.54.41-1.37-.47-.45v-.36l.33-.58-.05-.36-.4-.26.17-.69-.25-.27-.03-.4h-.34l-.04-.54-.77-1.03-.07-.43-.41-.54-.47.08-.34-.16-.18-.7-.5-.93-.76-.96.06-.7-.55-.96-.14-.85-.37-.2.1-.94-.24-.3-.02-1.13.34-1.35.44-1.47.1-.08.3-1.2-.5-.24-.48-.62-.49.35-.46-.53-.47-.03-.54-1.29.03-.26-.67-.88.51-.16-.53-.58.13-.53.35.42.17-.57-.54-.42-.45-.82.26-.03-.19-.62.23-.74-.36-.86.45-.75-.18-1.22.52-.36.02-.39-.3-.35-.05-.47-.57.15-.55-.1-.59-.76-.22-1.4-.3-.28-.56-1.33v-.47l-.22-.32-.59-.29-.26-.9.06-.45-.4-1-1.05-.7-.49-1.08-.46-.36-.76-.96-.36-.68-.44-.44-.3-.09-.24-.52.02-.95-.34-.63-.2-1.12-.03-1 .33-.08-.35-.53-.22-.06-.18-.52.08-.3-.17-2.34.07-.43-.26-1.17-.06-.58-.85-.36v-.55l-.65-.56-1.34-.76-.26 1.12.2.63 1.27.7.67.91.18.42.1 1.46-.18.64-.66.63-.4.11-.65-.42-.56-1.46-.39-.63-.5-1.5-.29-.55-.58-.61-.3-.47-.62-.5-.93-.28-.61-.7-.36-.54-.95-1.17-.3-.01-.3-.41h-.77l.04-1.06-.28-.63-.42-.57-.94-.32-1.08-1.01-.9-.51-.58-.45-.36.1.66-2.3-.14-11.9-1.05-4-.1-10.38.1-3.34-.02-2.5.02-6.13-.05-1.32.06-1.82.08-.23-.3-.82.24-.76-.03-1.14.16-4.03.35-4.23-.33-.88.46-1.35.22-1.13-.04-1.27.28-1.98-.54-.27-.82-.87-.01-.23 1.6-2.3.73-7.91 1.11-11.87.55-6.17-1.17-1.73-.39.9-.92.3-.5.06-.59.27-.68.45-.72.15-1.03-.52-.21.2-.7.08-.34.3-.89.3-.7.12-.56.63-.71.37-.64.72-.08.42-.41.63-.12.52.15.44-1.4-.08-1.04.6-.08-.21-.93-.39-.7-.37-.4-.33-.45.45-.4.73-.07.57.34.81.43.35.1.43.31.43.46-.06.5.82-.08.38.17.5-.06.5-.56-.83-.5-.32-.96-.23-.39-.47.13-.44-.48-.45-.62.61-.04.56.62.35-.28.33-.24-.42-.92.27-.17.23.2.94-.47-.08-.42.14.58 1.5-.32.04-.05-.5-.42-.47-.7-.2-.07.52.38.95.38.69.06.55-.22.72-.14 1-.37-.3-.3.1-.3.4-.48.19-.71-.19.01-.71.55-1.1v-.43l-.5-.46.14-.6-.1-.63-.32-.39-.44.08-.19.25h-.64l.59 1.47-.02.26-.39.34-.68-.6.14-1.6-1.05-1.3-.24-.5-.48-.08-.27-.27-.48.15.22.5-.17.54-.72.17-.67-.22-.35.04.07.91.38.5.45.1.75-.23.42.44-.18.3-.63-.35-.7.31.17.46.5.47.27.69-.14.15-.61-.9-.2.1-.53-1-.97-.06-.17.22.27.46-.34.18-1.14-.71-.66-.78.07.73.49.73.56.16.23.27.44.86-.1 1.43.07.96-.66-.74-.42-.73-.48.12-.75 1.2.22.4-.03.4-.44-.11-.45.31-.32-.51-.64.09-.24-.45-.77-.42-.5-.15-1.77-.85-.6-.42-.44-1.2-.6-.82-.93-.85.1-.2.75-.14v-.2l-.77.16-.57-.13.26-.65.72-.36.78.16.36-.73-1.43.1.62-.34.83-.23.2-.22-.34-.46-.46.21-.48.05-.39-.24-.48.06-.04-.9.47-.86-.76-.38.63-.35.15-.67-.65-.27.43-.68-.92-.28.19-.43 1.35-.34-.04-.27-.43-.04 1.12-.84-.14-.2H650l-.3-.77.14-.26.68.6.6-.56-.54-.58.4-1.1.12-.62-.45-2.84-.17-.22-.64.4-.56 1.15-.15.5-.67.26.25-1.12.48.07-.21-.67.43-.46.44-1.14.63-.21.87-.46-4.63-8.05-2.14 2.98-7.62 5.07-.4.03-.08.4-8.25 5.6-.01.54-3.37 2.6-.25-.24-1.74 1.52-1.97-2.43-1.39-1.85-.4-.26-2.88-3.61-.95-.89-.38-.47-.3-.78-4.53-5-.12-.25-.4-1.83-.46-.53-.9-1.6-.57-.85-1.45-2.72-.47-1.04-.54-.84-.94-1.16-1.55-1.38-1.92-.68-.88-.82-1.3-1.8-4.12-4.39-.66.53-.73-.23.24-.69-.92-.21-.7-.05-1.58-.53-1.08-1.14-.32-.56-.56-.37-.73-.25-4.1.3-1.26-.55-1.46-.97-.11-.13-1.66-2.98-1.17-.76-.9-.79-.63-.75-.1-.24-1.7-2.12-.4-.66-.5-.46-.97-.65-2.12-.8 2.43-.03-.05-3.83-.32-5.19-.8-9.6-3.14-13.6-7.83-.2-2.17-7.71-.63-5.23-.57.08-.26-1.5-1.93-1.56-.38.2-1.83-2.14.93-.83-6.96-.33.12-4.26.02-1.77.22-6.98-7.25-.1-.06-1.65-4.3-.04-.04-2.52h-6.98l-6.09-8.6-.01-7.44-.02-6.64 7.63-.05v.85h1.1l1.12-.6-.02-.13-.87-1.67.3-.16-.22-.41-.35.05-1.5-2.79 4.01-.17-.53-17.42-4.38-.03-2.59-11.66 1.8-.46 4.04-.31 6.89 3.02-.05-33.5-6.33-.04-2.56-9.45-3.73-4.37-12.3.48-.91-17.76-6.96-.35-5.4-.14-1.28-10.4 16.5-.04.08-6.93-4.46-.01.08-8.86H570l11.42-.02h5.92l17.22-.02h11.96L634.03.1h11.67l11.68-.01 11.67-.02h6.49l11.02-.01h5.84l11.67-.02h33.02l21.68-.01h32.45L801.8.01H875l5.63-.01h33.13l6.3-.01v200.37l-.01 12.07v24.72l.02 16.5.01 10.01v11.45l.02 20.98.01 13.85-.01 7.64.02 4.22v17.45l.02 13.83v73.62l.02 13.14v7.66l.02 7.58v11.97l.01 12.33v10.21l.01 9.59.01 10.5.02 23.75v17.45l.01 7.7.01 10.78.01 22.45-37.34-.12-2.29-.36.17 8.63-.41.05.04 7.76-12.62.03.02-5.36-10.88-1.34-.09 1.03-3.23-.33-6.25-.62L845 601l-1.16.9-15.66-1.84.98-8.5.12-.71-12.51-1.11.47-1.75 1.34-2.58 2.58-2.43 1.19-5.85-.93-2.98.03-.23-1.68-3.58.39-1 .07-3.94-1.35-1.58.21-.6-3.22-1.1 3.03-5-8.6-.47-5.5-1.8.01 6.8.01 10.72-12.1.05-11.2.1-14.42.13-7.32.06-9.28.06-.15-.9-1.14-.53-.51.34-1.8.26.23.82-.4 1.72-.11.26-.26 3.58.15 1.31.72.51.77.89.51.29.48.48.26.57-.42.24.02 1.39-.25.36-.1.7-.33.01-.26.83.34.4-.4.7-.43-.03-.1.9-.13.22.07.71.2.54-.2.57.05.35.42.14 1.07-.2.42.18.54-.08-.12 1.14.24.46-.17.73-.04.87-.34.4-.22.59.14.23-.23.6.16.2-.2.81-.31.2-.32 1.02-.41.3h-.64l-.18.14.04.7-.37-.23-.93.06-1.74.74-1.62.23-.12.92-1.29.16v.44h-1.15l-.24-.5h-3.04l.54 3.43-9.11-.12v-.95l-.6.93-8.6-.13-4.47-.08-9.92-.18-.22-.32-.5-1.15-.18-1.02-.72-.62-.45-.89-1.18-1.3-.35-.68.01-.52.23-1.13v-1.02l.16-.3.44-.18.17-1.15-.03-.81-.27-1.13-.43.05-.63-.48-.34.96-.62-.22-.66-.8.28-.78-.4-.32-.4-.06-.66-.62-.59-.75-.44-.98.12-1.15.61-.44.38-.6-.38-.3.36-.95.09-.58.35-.43.14-.79.26-.43h.4l.2.4.42-.19-.2-.58.14-.38 1.2-.7.73-.53.93-.25.2-.32 1.1-.36.02.43.68.01.53-.24.37-.54.41-.84 1.28.37-.26-.69.7-.07.85-.68.75-.12.88-1 .47.05-.4.96.83.8-.03.68.1.54-.18.72.49.48.4-.05.59-.9-.36-.02-.34.66-.54-.21.2-1.26.13-.26.58-.35-.51-.24.3-.4.74-.19.88-.69.33-.7.1-1.1-.42-.44-.83-.5-.24.32-.58-.09-.02-.28 1.45-.97.07-.26-.28-.89-.82-1.6-.15-.57-.66-1.3-.29-.31-1.03-.72-.99-.4-.16.12-.84-.34-.42.09-.93-.87.03-.52.39-.87-.21-.1.1-.57-.38-.62-.78-2.18-.14-1.54-.27-.92-.03-.55-.27-1.2-.08-.62-.3-1.32-.21-.55-.65-1.2-.05-.9-.44-1.37-.23-2.05.08-2.05.17-.48.76-.02-.22-.75.25-.23.89.57.5.04.4-.17v-.7l-.43-.42-1.12-.57-.25-.49-.65-.6-.92-.43-.15-.6-.32-.28-1.55-.46-.64-.3-.91-.63-.06-.41.33-.38h.9l.24-.38.05-.47.32-.34-.12-.97-.56-.52-.37-.89.04-.41-.6.22-.13-.36-.5-.12-1.23-1.32-.3-.15-.3-.53-.48-.55-.05-.3.36-.62.43-.28.38-.95.35.36.31-.08-.02-.61.4-.23-.23-.5-.6-.65-.8-.33-.67.16-.99-.22-.44-.35-.06-1.26.3-.32-.08-.34-.48-.37h-.7l.14-.83-.02-.69-.65-.81-.12-.44.82-.69.08-.56-.16-.38-.58-.74-.16-.6.17-.6.37-.6-.24-.61z"/>
    <g region="27" long-name="Taylor" short-name="Taylor" value="1">
      <path d="m755.7 710.67-.55 1.06-.07.18-.56-.4-2.22-3-.4.78-.12.3-.87 1.19.1.35.05.3.14.46.37 1.35.02.15.14 1.68.03.44-.03.45.02.2-.25-.16-.87-.65-.58-.42h-1.62l-.15-.18-.05-.21-.14-.18-.15-.43.08-.25-.07-.3.08-.17-.05-.32-.1-.14-.04-.22-.34-.6-.29-.29-.08-.18-.5.26-.03-.04.5-.26-.15-.4-.17-.21-.51-.38-.17-.22-.2-.07-.3-.23-.3-.1-.15-.1-.63-.3-.05-.16-.26-.34-.23-.2-.2-.45-.25-.23-.18-.03-.09-.18.05-.14-.05-.18-.25-.16-.2.06-.32.02-.12-.1v-.2l-.16-.22-.22-.1-.15-.2.02-.32-.12-.13-.22.1-.04-.18-.16-.09-.13-.19-.11-.08-.4-.2-.16-.26.17-.24.08-.02.35.1.06.17.1.11.3.18.15.02.2-.06.32-.19h.25l.16-.12.03-.15.1-.1.22-.14.15-.3 1.03-.46.13-.2-.04-.24.17-.17-.01-.34.16-.05.07.06.34-.03.21-.05.13-.15.4-.31.2.04.23-.24.12.08.1-.22.16.05.23-.04.07.1-.03.13.22.13.16-.17.15.04.12-.24.1.01.07-.16h.08l.02.22.07.16.28-.02.15-.23.18-.13.19.1.1.14.11-.12.13.11.2.1.02-.12.17-.05.07-.15.13.08.27-.1.36.08.11-.03.15.24.12-.07.11.09.4-.04.06-.04.21.08.13-.25.13-.12.4-.17.1.1.3-.03.05.09.18-.04.05.12.17-.15.27-.05.09.06.09-.15.08.01.29-.16.11-.39.14.17h.14l.05.1.13.2.18-.15.26.22.2-.1.1.07.26-.1-.02-.12.18.02.22-.3-.1-.13.3-.08.04-.1.16-.03.18.17h.08l.06-.3.15-.07.23.08.06-.38-.11-.1.14-.14.12.12.04.14.24-.07.08-.1.25-.05.07.2-.37.53-.15.43-.1.58-.17.52-.4.86 1.23.59-.51 1.05.86.46.35.13.4.22-.63 1.23-.15.25-.64 1.24-.3-.16-.18-.04-.05.2-.13.26z"/>
      <path d="m228.29 653.35-4.41 8.69-.63 1.51-4.6-3.36-18.18-24.62-3.35 6.46-.93 2.5-7.14 9.72.83 2.88.45 2.43 1.1 3.78 3.05 11.06.19 1.27 1.16 13.75.25 3.6-.29 3.69.17 1.64-2.05-1.27-7.14-5.38-4.75-3.4-13.31.03-1.22-1.53-.41-1.75-1.13-1.41-1.23-3.54.65-2.09-.56-2.38.65-1.47-.43-2.59-.82-1.16-.3-1.82-2.81-4.93-2.37-2.35-.64-1.49-4.16 2.14-.17-.33 4.14-2.14-1.33-3.2-1.37-1.79-4.19-3.13-1.37-1.82-1.64-.52-2.45-1.93-2.47-.73-1.24-.83-5.21-2.51-.34-1.32-2.15-2.78-1.89-1.67-1.63-3.67-2.05-1.89-1.48-.26-.73-1.46.42-1.1-.45-1.5-2-1.33-1.75.51-2.56.18-.99-.93.01-1.6-1.28-1.77-1.84-.84-1.24-1.65.14-2.6-.92-1.02-1.82.81-.35-1.54-1.33-.67-1.08-1.6-.87-.66-3.32-1.69-1.27-2.09 1.44-1.97.63-.15 2.89.77.46 1.5.81.89 2.53 1.46 1.2.13 1.56-.48 2.67-1.55 2.02-.02 1.32-.95.3-1.28.75-.82 1.87-1.09 1.2-2.51 8.49-3.76 1.06-1.69-.32-1.88 1.37-1.45-.14-2.72 1.39-.43.52.45 2.8-.18 1.76-.45 1.06-1.23 3.27-2.56 1.56.3 1.91-1.94 1.06.64.76-1.78 1.3.45 1.92-.35.58.86-.23 1 1.79 1.07 1.28-1.39 1.22.35 1.04-1.98.76.12.58-1.36.66.08.16 1.7.61 1.35 2.3-.16 1.21-1.9 1.53-1.03 1.5.74.82 1.2.94-.98 1.08.92 1.6.74.16-.9 1.37-.44.63-1.23 1.02.69 2.22-.9 2.95.72.94-.28 1.22 1.98.95-.57.95.73 3.34-.34.44-.31 1.71.66 1.02-2.06 1.1-1 3.21-1.36.81.77 2.54-.17.44.7 1.4-.33.42.96 1.41-1.2 2.26-.42.67.53.77-1.25.68.08 2.35-1.34.94-3.14 1.08 1.34 1.15.06.4.77 1.08 1.65 1.54-1.22 2.07 1.77 1.62-.77.82.52 2.21-.76-.22-1.02 1.47.18 1.85-2.45-.78-1.1 2.45-.68.31-.86 1.3-.18 1.47 1.42.66-.09.52-2.41 1.17-.56 1.9.63.5-3.07-.92-.9 1.2-1.06.91.93.38 1.15 1.92-.5.69-.86 2.09-.42.54 1.63-3.01 4.33-1.25 3.55-.86 4.76-1.33 4.26-3.3 7.1 10.08 4.76-4.2 8.69 7.1 3.72 2.86 1.06 3.23 1.83-5.14 10.04-1.22 2.08-5.23 10.19-2.52-1.31-1.41-.33-.44 1.56-1.06 2.2z" map-type="inset-region"/>
    </g>
    <g region="0" long-name="Adelaide" short-name="Adelaide" value="1">
      <path d="m750.8 728.27-.2-1.53-.05-.09-.17-1.2.07-.13.29-.31.15-.62-.03-.33-.07-1.27.11.04.63-.04v.08l.59-.03.04.07.03.6.4-.01-.02-.22.17.05.65-.04.04-.02.38.85-.2-.06-.11.04-.08.17h-.14l.01.45-.16.01-.16-.1.09.43-.06.31-.11.09.2 1.12.51.44.04.01.07 1.04-.62.04-2.29.14z"/>
      <path d="m188.1 797.66-1.62-12.55-.36-.7-1.36-9.88.53-1.05 2.39-2.54 1.2-5.05-.23-2.77-.59-10.36.93.29 5.16-.3.04.63 4.77-.27.36.6.28 5 3.18-.18-.1-1.8 1.4.47 5.33-.33.32-.2 3.1 6.98-1.65-.48-.89.32-.63 1.37h-1.19l.13 3.7-1.3.08-1.38-.89.77 3.63-.52 2.55-.87.7 1.66 9.16 4.18 3.63.32.1.53 8.55-5.05.32-18.76 1.15z" map-type="inset-region"/>
    </g>
    <g region="1" long-name="Badcoe" short-name="Badcoe" value="1">
      <path d="M748.99 732.8v-.03l-.07-1.08-.58.03-.05-.16-.1-1.77-.64.03v-.22l-.03-.24.54-.03-.01-.47.06-.06.32-.02-.01-.26-.32.02v-.18l.3-.02 2.26-.14.13.07.15.81.16.3.19.25.02.16-.62.04-.68.66-.03.15.02.33-.05.21-.37.81-.09.14z"/>
      <path d="m173.3 834.88-.02-.32-.5-8.86-4.82.29-.35-1.33-.92-14.55-5.17.31-.08-1.8-.2-2 4.44-.25-.1-3.9.55-.47 2.58-.15-.08-2.15-2.58.15-.09-1.46 2.55-.15 18.48-1.12 1.11.54 1.24 6.66 1.3 2.49 1.53 1.99.2 1.36-5.14.32-5.55 5.36-.22 1.25.13 2.72-.4 1.75-3.07 6.64-.7 1.15z" map-type="inset-region"/>
    </g>
    <g region="2" long-name="Black" short-name="Black" value="1">
      <path d="m743.98 740.97.17-.2.4-.36.01-.13.12-.18.02-.2-.04-.31.1-.37.4-.84.18-.73.2-.52.04-.17.26-.28.11-.05.11-.16.15-.46-.01-.49-.07-.36.5-.03v.06l.62-.04.05.59.62-.05.2 3.34.07.11-.08.37.05.13-.16.05-.02.18.17.09.04.28-.32.45-.18.1-1.55.1-.05-.17-.1-.05-.18.02.04.13-.12.1-.67.03-.36-.23-.04.2-.22.24-.12-.12-.15-.08z"/>
      <path d="m132.28 901.81 1.37-1.61 3.22-2.95.15-1.12.93-1.43.22-1.71-.4-2.5.9-3.04 3.29-6.86 1.41-6.04 1.7-4.23.29-1.37 2.1-2.32.95-.4.89-1.3 1.26-3.81-.13-3.99-.52-2.95 4.02-.28.03.52 5.08-.31.4 4.8 5.08-.37 1.73 27.36.47.93-.61 3.03.44 1.04-1.36.4-.18 1.5 1.4.72.37 2.33-2.64 3.7-1.47.84-12.7.74-.4-1.34-.84-.45-1.5.19.32 1.04-.98.76-5.49.34-2.9-1.9-.39 1.57-1.77 2.04-.97-1.03-1.26-.62z" map-type="inset-region"/>
    </g>
    <g region="3" long-name="Bragg" short-name="Bragg" value="1">
      <path d="m753.64 727.03 1.38-.09 1.74-.1-.03-.52.62-.03.42-.02.08.32h.26l.14-.11.1-.24-.09-.12.16-.23.22.25.04.14.23.22h.33l.23.02.2-.08.45.06.17.07-.03.2.09.19-.06.15.76.28.22.14.03.26-.32-.13-.2-.17-.06.68-.15-.03-.8-.05-.1 1.29.24-.01.35.04-.1.1-.2.36.08.1-.05.18.1.19h.1l.09.26-.05.07-.19-.13-.12.09-.05.18-.02.41-.49-.03-.04.3-.44-.02.53.58-.6.52h-.13l-.05-.32-.1-.25-.29-.15-.08-.12-.2-.57h-.22l-.3-.07-.17-.08-.37.32-.19.22-.1.03-.1-.1.1-.09-.01-.17-.48-.55-.23.17-.23.03-.1-.1-.06-.22-.12-.26-.32-.24-.65-.97-.64-.46-.68-.5.62-.05z"/>
      <path d="m211.46 787.51 11.29-.74 14.26-.89-.25-4.16 5.12-.27 3.47-.16.6 2.62 2.13-.07 1.2-.85.86-1.97-.78-.94 1.33-1.91 1.74 2.06.39 1.12 1.82 1.83 2.75-.1 1.89.22 1.56-.64 3.71.52 1.4.54-.24 1.62.73 1.57-.45 1.22 6.24 2.35 1.8 1.12.26 2.13-2.66-1.03-1.58-1.4-.53 5.55-1.24-.21-6.54-.47-.9 10.57 2.03-.06 2.83.38-.84.79-1.53 2.97.61.83-.43 1.46.9 1.5.78.11.7 2.03-.41.6-1.51-1.05-1.01.7-.4 1.48-.2 3.38-4-.21-.35 2.48-3.56-.24 4.3 4.82-4.88 4.2-1.11.04-.42-2.62-.73-2.05-2.43-1.22-.7-1-1.6-4.7-1.79-.04-2.42-.49-1.47-.67-3.04 2.61-1.5 1.8-.9.27-.84-.84.86-.72-.09-1.43-3.89-4.46-1.91 1.35-1.84.26-.92-.79-.4-1.82-1.01-2.14-2.6-2.01-5.37-7.92-5.22-3.74-5.6-4.2 5.06-.31z" map-type="inset-region"/>
    </g>
    <g region="4" long-name="Cheltenham" short-name="Cheltenham" value="1">
      <path d="m748.26 720.43.12 2.1.16.13-.17 1.06.2.17v.02l.06 1.12-1.36.09-.63.04-.04-.8-.06-.09v-.66l-.25-.11.47-.61.17-.16.03-.12-1.77-1.45.45-.46v-.12z"/>
      <path d="m167.33 733.37.96 17.25 1.37 1.01-1.44 8.75 1.68 1.36-.08.16.6 9.2-11.22.71-5.15.33-.3-6.52-.5-.72.05-5.42-2.08-.93 3.79-5 1.43-1.35.22-.97-14.47-11.83 3.67-3.84-.07-.98z" map-type="inset-region"/>
    </g>
    <g region="5" long-name="Colton" short-name="Colton" value="1">
      <path d="m746.64 725.16.63-.04.19 1.15.03.56-.11.1.03.53.63-.04.02.31.25-.01v.4h.08l.01.22-.3.02v.18l.32-.02v.26l-.3.02-.08.06.02.47-.54.03.02.24-.63.04-.46.36-.24.01-.11-.16-.17.07-.07-.05-.07-.23-.45.04v-.23l-.34-1-.16-.57-.14-.77-.08-.33-.17-.79-.27-1.12-.08-.44h.17l-.07-.25.33-.01.34-.18.44-.02.07 1.26z"/>
      <path d="m154.05 772.14 5.15-.33 1.55 9.45.28 4.58-.91.84.27 4.37 5.18-.33.15 2.54 2.05-.12.01 3.25.62-.02.11 1.87-2.55.15.1 1.46 2.57-.15.08 2.15-2.58.15-.55.48.1 3.9-4.43.24.2 2-5.14.32-3.83 2.89-1.98.13-.9-1.32-1.34.57-.58-.43-.62-1.89-3.63.34-.03-1.92-2.8-8.1-1.33-4.7-1.08-6.38-.73-2.66-1.36-6.48-2.22-9.17-.63-3.6 1.35-.07-.57-2.02 2.7-.11 2.8-1.48 3.6-.16.6 10.36z" map-type="inset-region"/>
    </g>
    <g region="6" long-name="Croydon" short-name="Croydon" value="1">
      <path d="m750.45 725.32-.78-.72-.04.2-.44-.36v-.04l-.62-.51-.2-.17.17-1.06-.16-.13-.12-2.1 1.4-.08.36.02.4-.02.33-.06.64-.04v.08l.14 2.46-.63.04-.11-.04.07 1.27.03.33-.15.62z"/>
      <path d="m185.29 773.48-6.37-5.9-.3 1.64-3.62-2.93v-.4l-5.1-4.15-1.68-1.36 1.44-8.75-1.37-1-.96-17.26 11.55-.65 2.87.14 3.33-.12 2.72-.5 5.21-.31v.66l1.14 20.16-5.16.3-.93-.29.6 10.36.21 2.77-1.2 5.05z" map-type="inset-region"/>
    </g>
    <g region="7" long-name="Davenport" short-name="Davenport" value="1">
      <path d="m751.66 742.49-.06-.16-.15-.17-.21-.17-.09-.19-.17-.07-.08-1.28-.05-.09-.4.03-.45-.2-1.8.12v-.07l-.05-.28-.17-.09.02-.18.16-.05-.05-.13.08-.37-.06-.11-.21-3.34 1.1-.08.13-.2-.04-.75.77-.04.44-.48.03.33.09 1.56-.54.04.14.1-.07.27.15.03.27-.04.1-.1.23.05.17-.03.16.1.05.2.22.06.44.4.16.3.24-.02.09-.12.44.2.18-.02-.1.2.07.19.19.01.1.07v.17l.16.1.05.18.17.12.26.22-.23.05.02.11.4.21.03.23.2.18.08.14.14.11.02.34.07.19.24.23.23.1.16.11.02.13-.38.34-.32.17-.14-.06-.14-.14-.14.09-.06.15-.3-.04-.2.1v.08l-.73.05-.06.23-.64.06.1.14-.14.3-.24.07z"/>
      <path d="m195.26 914.27-.5-1.27-1.25-1.42-1.74-1.43-.7-1.52-1.43-.55-.68-10.5-.4-.76-3.29.24-3.65-1.57-14.81.94-.03-.58-.37-2.33-1.4-.71.18-1.51 1.36-.4-.44-1.04.61-3.03-.47-.93-1.73-27.36 9.12-.65 1-1.6-.34-6.23 6.32-.36 3.63-3.93.21 2.74.71 12.84-4.37.27 1.13.9-.6 2.1 1.28.28 2.16-.34.92-.74 1.8.39 1.38-.3 1.36.87.42 1.54 1.77.6 3.65 3.27 1.28 2.46 1.96-.18.72-1.02 3.6 1.66 1.49-.13-.72 1.54.45 1.62 1.57.1.89.55v1.4l1.24.78.45 1.53 1.38 1 2.16 1.77-1.9.41.13.95 3.28 1.72.28 1.88 1.62 1.46.64 1.15 1.14.9.2 2.76.55 1.55 1.99 1.93 1.9.78 1.26.95.17 1.04-3.09 2.8-2.6 1.34-1.13-.43-1.16-1.2-1.2.75-.5 1.22-2.43-.33-1.55.78-.01.75-6.02.4-.56 1.86-5.24.46.86 1.17-1.14 2.47-2.02.56z" map-type="inset-region"/>
    </g>
    <g region="8" long-name="Dunstan" short-name="Dunstan" value="1">
      <path d="m753.64 727.03-.04-.01-.5-.44-.21-1.12.1-.09.07-.3-.1-.45.17.11.16-.01-.01-.45h.14l.08-.17.1-.04.2.06.14-.18v-.11l.35-.15.15-.1.15-.02.17.07.04.27.17.32.2-.1.18.2.04.44.62-.03.06 1.1.63-.03.03.52.03.51-1.74.11z"/>
      <path d="m211.46 787.51-.32-.09-4.18-3.63-1.66-9.17.87-.7.52-2.54-.77-3.63 1.38.9 1.3-.09-.13-3.7h1.19l.63-1.37.89-.32 1.65.48 1.08-1.47.02-.93 2.86-1.2 1.2-.87 1.24-.12 1.38.55.37 2.26 1.42 2.6 1.57-.76 1.52 1.5.3 3.72 5.07-.31.55 9.1 5.14-.32.21 4.32.25 4.16-14.26.89z" map-type="inset-region"/>
    </g>
    <g region="9" long-name="Elder" short-name="Elder" value="1">
      <path d="m750.35 734.47-.03-.33-.44.48-.77.04-.12-1.85.5-.68.09-.14.37-.8.05-.22-.02-.33.03-.15.68-.66.62-.04.04.53.45-.03.16.2-.02.1.04.61h.04l.04.39.07 1.36.1.05-.15.2-.03.13.01.76-.26.2h-.21v.1z"/>
      <path d="m184.46 848.51-.21-2.74-3.63 3.93-6.32.36-1-15.18 4.13-5.53.7-1.15 3.06-6.64.4-1.75-.13-2.72.22-1.25 5.55-5.36 5.14-.32.27 4.3 3.74-.24 1.28 1.66-.14.8.3 5.02.36-.04.28 3.22.63 11.19.85.41-1.24 1.68-.32 1.04.12 6.16-2.16 1.7-1.7-.02.03.8z" map-type="inset-region"/>
    </g>
    <g region="10" long-name="Elizabeth" short-name="Elizabeth" value="1">
      <path d="m760.82 705.08-.24.24-.07.93.02 1.33-.6.75-.26.5-.07-.03-.33.34-.6-.32-.61 1.17-.26.38-.37.72-.1.03-.56.03-.1-.02-.75-.4-.23-.06.98-1.9.13-.27.05-.19.18.04.3.16.64-1.24.15-.25.63-1.23.69-1.49.26-.4 1.15.81z"/>
      <path d="m270.33 607.49-1.93 2.03-.58 7.6.1 10.86-4.85 6.17-2.18 4.19-.55-.3-2.75 2.74-4.84-2.56-5.06 9.55-2.1 3.15-3.06 5.9-.78.22-4.65.26-.77-.2-6.2-3.24-1.84-.5 8.02-15.57 1.06-2.21.44-1.56 1.41.33 2.52 1.3 5.23-10.18 1.22-2.08 5.14-10.05 5.68-12.2 2.15-3.24 9.46 6.6z" map-type="inset-region"/>
    </g>
    <g region="11" long-name="Enfield" short-name="Enfield" value="1">
      <path d="m755.17 719.16.08.49.2.29v.1l-.98.07.1 1.55-.82.05-.06.04-.39.02.09 1.52-.65.04-.17-.05.01.22-.39.02-.03-.61-.04-.07-.59.03v-.08l-.14-2.46v-.08l-.64.04.04-.06.87-.86.28-.07.05-.28 1.52.35.15.02.19-.32.32.19h.11l.3-.08z"/>
      <path d="m223.98 722.98.71 4 1.55 2.36.1.9-8.11.52.78 12.74-6.68.41-.44.27-3.2.18.72 12.51-5.33.33-1.4-.47.1 1.8-3.18.18-.28-5-.36-.6-4.77.27-.04-.63-1.14-20.16v-.66l-5.21.31.33-.5 7.11-7.03 2.3-.62.35-2.28 12.52 2.92 1.2.09 1.57-2.61 2.64 1.56.9.1 2.37-.7z" map-type="inset-region"/>
    </g>
    <g region="12" long-name="Florey" short-name="Florey" value="1">
      <path d="m755.17 719.16-.6.02-.29.09-.1-.01-.33-.2-.2.33-.14-.02-1.52-.35.67-1.12-.56-.41.66-.93 1.43-1.96 1.1.81.7.52.17.2.05.71.43-.03.12 1.8.04.45z"/>
      <path d="m223.98 722.98-4.89.19-2.38.7-.9-.1-2.63-1.56-1.57 2.6-1.2-.08-12.52-2.92 5.51-9.15-4.6-3.38 5.42-7.65 11.75-16.04 8.98 6.66 5.8 4.27 1.35 1.65.4 5.8 3.52-.25 1.05 14.74.26 3.72z" map-type="inset-region"/>
    </g>
    <g region="13" long-name="Gibson" short-name="Gibson" value="1">
      <path d="m746.13 735.16-.15-.5-.2-.95-.02-.56-.05-.22-.06-.47.8-.05.36-.04.3.54.6-.04.12-.03 1.16-.07v.04l.12 1.85.04.76-.12.2-1.11.07-.62.05-.05-.59-.62.04v-.06z"/>
      <path d="m149.9 854.18-1.23-4.13-1.6-7.77-.27-4.57-.4-1.83-.42-3.83 6.57-.41 2.87-.31 2.51 4.4 4.87-.32 1.05-.3 9.43-.55.01.32 1.01 15.18.35 6.23-1.01 1.6-9.12.65-5.08.38-.4-4.81-5.08.3-.03-.51z" map-type="inset-region"/>
    </g>
    <g region="14" long-name="Hartley" short-name="Hartley" value="1">
      <path d="m757.35 726.3-.62.02-.03-.52-.63.04-.06-1.11-.62.04-.04-.46-.18-.18-.2.1-.17-.33-.04-.27.16-.2.34-.1.07-.07.03-.27.06-.14-.13-.25.08-.14.37-.11.2-.15-.05-.18.13-.1-.1-.12.1-.11.2-.05.27.18.1-.12.16-.34-.02-.35.78-.05.54-.02.29.09-.16.06-.34.6.12.05.35.01.17-.3.2 1.08-.34.03-.2.12-.17-.1-.99.06.13.1.03.11z"/>
      <path d="m241.88 781.45-5.12.27-.21-4.32-5.14.31-.55-9.09-5.06.31-.3-3.71-1.53-1.51-1.57.76-1.42-2.6-.37-2.26 1.37-1.64 2.74-.78.61-.57.26-2.23.5-1.14-1.1-2.05.68-1.15 3.01-.92 1.57-1.22-.34-1.52 1.1-.83-.85-.92.75-.96 1.75-.39 2.18 1.53.77-1.05 1.36-2.78-.2-2.87 6.43-.4 4.43-.2 2.35.74-1.3.51-2.77 4.87 1 .49 2.84.08 1.37-2.44 1.74 8.87-2.86.17-1.64 1-1.41-.81-8.07.47 1 .82.3.95z" map-type="inset-region"/>
    </g>
    <g region="17" long-name="King" short-name="King" value="1">
      <path d="m756.33 713.96.53-.73-.94-.7.1-.09.27-.03.21-.13.2-.05.08-.17.3.06.12.1h.31l.03-.27-.18-.4-.03-.43.1-.03.37-.72.26-.38.62-1.16.59.3.33-.33.07.04.26-.51.6-.75.24-.05.53.08.22-.02.21.02.16.1.71-.14.16-.08.13-.23.18-.07.36-.05.31-.08.14.23.33.08.36 1.03.32.5-.5.71-.06.52v.3l-.06.25-.25.27-.1.31.07.24-.2.65.04.28.16.2.21.12.31.33.1.22v.1h-.21l-.17.07-.21.22.08.16-.12.3-.22.29-.13-.19-.19.03-.62.4-.13.16h-.43l-.35.32-.48.38-.33.15-.08-.04v-.2l-.35.05-.07.07-.43.04v.08l-.56.04h-.46l-.12-.02-.13.1-.41-.01-.18-.16.13-.07-.12-.2.06-.1-.26-.1h-.2l-.02-.24-.36.02-.29-.3z"/>
      <path d="m233.48 680.34 4.37-5.95-7.71-5.72.87-.8 2.22-.28 1.7-1.08 1.56-.33.68-1.46 2.47.55 1.02.73 2.55.03.23-2.16-1.5-3.26-.19-3.57.78-.22 3.06-5.9 2.1-3.15 5.06-9.55 4.84 2.56 2.75-2.74.55.3 2.18-4.2 4.85-6.16 2.02-.37 4.37.68 1.78-.22 1.73.22 1.29.76 5.83-1.16 1.3-.59 1.08-1.93 1.45-.52 2.96-.47 2.57-.64 1.1 1.92 2.7.6 3 8.44 2.65 4.06-4.12 5.9-.52 4.24-.06 2.46-.45 2.1-2.05 2.21-.8 2.52.6 1.94-1.66 5.32.32 2.3 1.3 1.72 1.76.97 2.53 2.68.83 1.8-.03.84-1.75-.05-1.36.64-1.75 1.73.72 1.37-.98 2.38-1.84 2.41-1.1-1.52-1.48.27-5.1 3.3-1.13 1.26-1.84.05h-1.63l-2.9 2.54-3.93 3.14-2.7 1.2-.62-.3-.11-1.57-2.77.36-.6.57-3.56.29.03.71-4.6.3-3.77.06-.98-.24-1.07.88-3.4-.16-1.46-1.25 1.05-.57-.95-1.6.47-.94-2.13-.8-1.58.09-.18-2-2.95.12-2.37-2.46z" map-type="inset-region"/>
    </g>
    <g region="18" long-name="Lee" short-name="Lee" value="1">
      <path d="m746.64 725.16-1.26.07-.07-1.26-.44.02-.34.18h-.33l.07.26h-.17l-.05-.18-.05-.35-.13-.4-.11-.46-.07-.42-.22-.8-.16-.86-.02-.59 1.55.2.3.02.02.47.03.1 1.77 1.45-.03.11-.17.17-.47.6.26.12v.66l.05.1z"/>
      <path d="m154.05 772.14-10.33.6-.6-10.36-3.59.16-2.8 1.48-2.7.1.58 2.03-1.36.08-.47-1.5-.41-2.92-1-3.28-.94-3.76-.53-3.44-1.87-6.56-1.28-7.07-.15-4.77 12.68 1.6 2.46.2.2 3.8.25.87 14.47 11.83-.22.97-1.43 1.35-3.8 5 2.1.93-.06 5.42.5.72z" map-type="inset-region"/>
    </g>
    <g region="19" long-name="Light" short-name="Light" value="1">
      <path d="m760.82 705.08.04-.37-1.16-.8-.26.4-.7 1.48-.39-.22-.35-.13-.86-.45.51-1.06-1.23-.58.4-.87.17-.52.1-.58.15-.43.37-.53-.07-.2-.25.05-.09.1-.23.07-.05-.14-.1-.12-.15.13.11.11-.06.38-.23-.08-.15.07-.06.3h-.08l-.18-.17-.16.02-.04.1-.3.09.1.13-.23.3-.17-.02.02.13-.27.09-.1-.07-.2.1-.25-.22-.18.15-.14-.2-.06-2.84.05-.15v-3.45l1.77-.08 1.26.84 3.4.4.13-.91 1.67.2-.1.85.42-.18-.16.25.84.22-.13.1-.12.2v.11l-.47.16.06.23h.17l.1.17.16.03-.1.28-.1.12-.01.16h.36l.18.02.25.18.17.17.33.17.16.04-.01.53.45.07.15.3-.32.31-.32.2-.87-.03-.08.1.07.16.19.17-.72.36.34.2.27.39-.79 1.15-.49-.34-.25.29-.65 1.2z"/>
      <path d="m270.33 607.49.29-3-9.46-6.59-2.15 3.24-5.68 12.2-3.23-1.82-2.87-1.06-7.1-3.72 4.2-8.69-10.08-4.76 3.3-7.1 1.34-4.26.86-4.76 1.25-3.55 3-4.33-.53-1.63-2.1.42-.68.85-1.92.51-.38-1.15-.92-.93-1.19 1.06.92.9-.5 3.07-1.9-.63-1.17.56-.52 2.41-.66.1-1.47-1.43-1.3.18-.3.86-2.46.68.78 1.1-1.85 2.45-1.47-.18.22 1.02-2.21.76-.82-.52-1.62.77-2.07-1.77-1.54 1.22-1.07-1.65-.53-23.25.4-1.3-.04-28.24 14.54-.65 10.33 6.88 27.98 3.34.95-7.58 13.73 1.61-.81 7.04 3.44-1.44-1.32 2 6.9 1.81-1.06.77-.99 1.65v.96l-3.87 1.33.48 1.85 1.43.05.74 1.35 1.34.24-.78 2.33-.84.93-.07 1.37 2.92-.1 1.49.24 2.1 1.5 1.35 1.36 2.69 1.42 1.36.3-.13 4.38 3.72.53 1.2 2.46-2.56 2.56-2.62 1.63-7.14-.2-.65.72.51 1.39 1.55 1.4-5.84 2.93 2.75 1.6 2.23 3.23-6.47 9.44-4-2.8-2.12 2.38-5.3 9.85z" map-type="inset-region"/>
    </g>
    <g region="20" long-name="Morialta" short-name="Morialta" value="1">
      <path d="m761.82 718.73.05.86.27.05.15-.06.04.1-.08.25-.02.2-.09.21.17.2.03.32.05.1.21.1.07.1.01.19.27.36-.14.27-.1.02-.2-.27-.32-.16-.59.74.37.15-.06.1.05.12-.55.77.14.19-.2.15-.03.12-.24.06-.16-.17-.14-.03.03.98.17.06.05.45.09.22-.23.11-.13.23-.28-.02-.46-.18-.04.12.1.16.2.2-.16.4-.46-.06-.19.08-.23-.03-.33.01-.23-.22-.04-.14-.21-.25-.17.24.1.1-.1.25-.15.1-.26.01-.08-.32-.42.02-.2-3.44-.04-.11-.12-.1.98-.06.17.1.2-.12.35-.03-.21-1.08-.17.3-.35-.01-.12-.06.34-.6.16-.05.1-.1.18-.06-.04-.58 1.06-.07v-.07l.3-.01.08.05-.02-.45.42-.03-.05-.88z"/>
      <path d="m278.49 719.46.42 7.08 2.26.35 1.2-.45.38.8-.73 2-.13 1.67-.71 1.75 1.4 1.6.2 2.63.44.8 1.7.9.58.85.12 1.45 2.21 2.96-1.14 2.24-.87.2-1.6-2.23-2.67-1.35-4.79 6.07 2.97 1.21-.43.79.39 1.09-4.55 6.29 1.18 1.53-1.67 1.26-.2.98-1.95.47-1.35-1.38-1.16-.26.23 8.07 1.4.5.45 3.63.72 1.83-1.9.93-1.04 1.87-2.29-.16-3.82-1.47-.29.96.82 1.3 1.56 1.6-1.28 3.36-3.7-.52-1.57.64-1.89-.21-2.75.1-1.82-1.84-.39-1.12-1.74-2.07-1.33 1.92.78.94-.87 1.97-1.19.85-2.13.07-.6-2.62-3.47.16-1.7-28.21-.3-.95-1-.82 8.07-.47 1.41.81 1.64-1 2.86-.17-1.74-8.87-1.37 2.44-2.85-.08-.99-.49 2.77-4.87 1.3-.5.9-.84 1.39-.47-.33-4.73 8.73-.6v-.52l2.52-.13.6.41-.22-3.66 3.5-.24-.45-7.25z" map-type="inset-region"/>
    </g>
    <g region="21" long-name="Morphett" short-name="Morphett" value="1">
      <path d="m745.65 732.46-.02-.18.08-.33v-.43l-.04-.06-.05-.38.12-.04-.04-.48-.1-.36-.26-.52.45-.04.07.23.07.05.17-.07.1.16.25-.01.47-.36.62-.04.01.22.63-.03.11 1.77.05.16.58-.03.07 1.08-1.16.06-.12.04-.6.04-.3-.54-.35.04z"/>
      <path d="m145.98 832.05-.17-1.51.59-2.7v-3.5l-.32-.53-.37-3.07.98-.34-.33-3.97-.85-2.95-2.08-4.25 3.63-.34.62 1.89.58.43 1.34-.57.9 1.32 1.98-.13 3.83-2.89 5.13-.33.08 1.81 5.17-.3.92 14.54.35 1.33 4.82-.29.5 8.86-9.43.55-1.05.3-4.87.32-2.5-4.4-2.88.3z" map-type="inset-region"/>
    </g>
    <g region="22" long-name="Newland" short-name="Newland" value="1">
      <path d="m758.34 721.02-.29-.09-.54.03-.05-.73.51-.03-.03-.32-.97.06.13-.22.2-.21-.04-.48-.46.03-.04-.45.83-.06-.05-.38-.13-.5 1.38-.1.2-.1.4.06.89-.05-.11-1.79v-.08l.43-.04.07-.07.34-.04.01.19.08.04.33-.15.48-.38.35-.31h.2l.13.15-.48.4.5.6-.29.23-.12-.04-.1.29-.42.02-.03.22-.2.2.14.19-.25.15.07.27.17.06.17-.01.06-.19.92.28-.03.12.09.1-.22.32-.19.15v.33l-.56.04-1.45.1.05.88-.42.03.02.45-.07-.05-.3.01v.07l-1.07.07.04.58-.17.05z"/>
      <path d="m249.98 738.26-2.35-.73-4.43.18-.41-5.95 4.18-.27-.22-2.6-7.95.52 1.06-1.83 1.6-1.76-.29-3.9-3.84.26-.26-3.72 6.78-.5-.4-3.1-1.09-4.15 11.32-.78 1.7-.82 3.2.51 7.3-.44-.88-14.64-.03-.71 3.56-.29.6-.57 2.77-.36.11 1.58.62.3 2.7-1.21 3.94-3.14 2.9-2.54h1.62l1.06 1.24-3.92 3.34 4 4.92-2.29 1.89-1-.33-.76 2.33-3.53.2-.19 1.74-1.65 1.63 1.1 1.57-2 1.29.56 2.14 1.4.5 1.38-.05.5-1.54 7.5 2.3-.24.93.73.87-1.73 2.63-1.58 1.2-.06 2.75-4.58.31-11.87.78.46 7.25-3.51.24.22 3.66-.6-.4-2.52.12v.51l-8.73.6.33 4.74-1.38.47z" map-type="inset-region"/>
    </g>
    <g region="23" long-name="Playford" short-name="Playford" value="1">
      <path d="m754.2 714.6-1.44 1.96-.66.93-.25.33-.1-1.66-.02-.2.04-.45-.03-.44-.15-1.68-.02-.15-.37-1.35.29-.4 1.96 1.45.17.2.15.04.94.7z"/>
      <path d="m215.97 685.59-11.75 16.04-5.42 7.65-2.03 2.66-.81-13.6-.17-1.63.29-3.7-.25-3.6-1.16-13.74-.19-1.27-3.05-11.06 2.4-3.23 16.1 11.84 1.35 1.73 1.27.25 7.71 5.73z" map-type="inset-region"/>
    </g>
    <g region="24" long-name="Port Adelaide" short-name="Port Adelaide" value="1">
      <path d="M748.43 714.93h1.62l.58.42.87.65.25.16.1 1.65.25-.32.56.41-.67 1.12-.05.28-.28.07-.86.86-.04.06-.34.06-.4.02-.35-.02-1.41.08-2.63.15.01.11-.45.47-.03-.1-.02-.47-.3-.02-1.55-.2.03-.38.08-.3.17-.52.14-.22.12-.3.15-.44.15-.27.08-.22.07-.33.02-.34-.04-.78-.11-.47-.32-.01-.12-.05.26-.43-.2-.3-.32-.35.12-.16.36-.62.19-.28.23-.16.38-.31.27-.13.33-.04.43.16.19.15.14.42-.08.47-.1.27-.09.57-.08.37-.05.78.15.62-.04.42-.01.49-.22.38-.14.3-.01.43.02.1-.04.5-.1.04-.08.17-.18-.03-.25.1-.1.28.1.48h.12l-.07-.49.02-.09.29-.06.31-.16.28.1.03-.09-.28-.06.08-.32.21.09.03-.07-.22-.1.03-.4.21-.06-.17-.21.12-.23.2-.48.15-.28-.03-.04v-.43l.29.1.58.15.23.03.15.07.57.16-.1-.13.01-.19.24-.22.25.07.12.28.22.37h.15l-.17-.2-.24-.43-.15-.18.15-.3.13-.05.09-.28.1-.09.14.03.03-.17-.19-.05-.04-.27-.15-.18.04-.13v-.38zm-1.54-1.49.12.37.24.34.14.25.23.35.25.27.13.26.22.69v.25l-.12.05-.13-.13-.43-.01-.5.15-.11.09v.1l-.28.41-.2-.1-.19-.24-.01-.2-.11-.26v-.4l.08-.3.08-.85.2-.56.06-.44-.08-.27-.06-.04-.1-.24-.13-.15-.16-.07-.1-.22.1-.12.23.01.23.25.2.35zm-1.24-.95.16-.17.2-.02v.1l-.13.09zm1.07 4.5.26-.25.13-.29.06-.05.46-.17.07.03.1.3.25.13-.25.36-.24.1-.4-.04z"/>
      <path d="m168.7 688.33 13.32-.02 4.75 3.4 7.14 5.37 2.05 1.27.8 13.6 2.04-2.67 4.6 3.38-5.5 9.15-.37 2.28-2.29.62-7.11 7.03-.33.5-2.72.5-3.33.12-2.87-.14-11.55.65-21.54 1.21.07.98-3.67 3.84-.25-.87-.2-3.8-2.46-.2-12.68-1.6.26-3.14.63-2.51 1.35-4.2 1.19-1.84 1.02-2.39 1.18-3.66 1.21-2.2.68-1.83.58-2.72.2-2.79-.39-6.39-.9-3.85-2.57-.1-1.05-.38 2.15-3.51-1.7-2.54-2.58-2.83 1.03-1.27 2.93-5.1 1.57-2.27 1.9-1.33 3.14-2.57 2.16-1.02 2.68-.34 3.55 1.32 1.57 1.17 1.16 3.46-.7 3.9-.77 2.18-.72 4.7-.68 2.99-.4 6.45 1.18 5.03-.28 3.5-.1 3.95-1.84 3.18-1.1 2.41-.1 3.55.16.87-.33 4.07-.84.28-.65 1.4-1.41-.19-2.1.7-.81 2.35.84 3.96 1 .01-.62-4 .21-.76 2.3-.51 2.59-1.28 2.32.74.2-.65-2.24-.55.59-2.55 1.79.7.23-.55-1.87-.9.3-3.2 1.73-.5-1.44-1.76 1.05-1.84 1.6-3.92 1.25-2.34-.3-.34.1-3.52 2.32.81 4.74 1.27 1.9.2 1.23.62 4.71 1.27-.93-1.05.19-1.55 1.9-1.77 2.1.57.94 2.3 1.82 3 1.23-.06-1.4-1.63-1.94-3.46-1.21-1.51 1.22-2.46 1.06-.36.72-2.34.84-.72 1.17.26.23-1.42-1.56-.4-.37-2.2-1.19-1.48.3-1.05-.06-3.1zm-12.57-12.23.93 3 2.03 2.77 1.1 2.04 1.93 2.87 2 2.2 1.08 2.2 1.84 5.6-.09 2.1-.91.38-1.1-1.05-3.55-.12-4.07 1.23-.91.76.07.85-2.38 3.36-1.61-.9-1.53-1.92-.14-1.58-.9-2.2.04-3.33.67-2.44.65-6.92 1.66-4.6.48-3.63-.65-2.21-.53-.29-.87-2-1.04-1.18-1.32-.6-.78-1.77.85-1.03 1.83.13 1.88 2.01 1.75 2.9zm-10.23-7.83 1.38-1.42 1.54-.16.1.77-1.12.8zm8.8 36.9 2.18-2.08 1.04-2.33.48-.41 3.77-1.39.62.2.81 2.44 2.06 1.1-2.13 2.94-1.92.77-3.32-.24z" map-type="inset-region"/>
    </g>
    <g region="25" long-name="Ramsay" short-name="Ramsay" value="1">
      <path d="m755.7 710.67.22.06.75.4.1.02.56-.03.03.43.18.4-.03.27h-.3l-.13-.1-.3-.06-.09.17-.19.04-.2.14-.27.03-.11.1.94.7-.53.72-.44.6-.6.85-1.1-.8.52-.73-.94-.7-.15-.03-.17-.21-1.96-1.45-.3.4-.13-.46-.05-.3-.1-.35.87-1.18.11-.31.41-.79 2.22 3 .56.41.07-.18z"/>
      <path d="m228.29 653.35 1.84.51 6.2 3.24.77.2 4.65-.26.2 3.57 1.5 3.26-.24 2.16-2.55-.03-1.02-.73-2.47-.55-.68 1.46-1.56.33-1.7 1.08-2.22.28-.87.8 7.71 5.72-4.37 5.95-3.58 4.88-4.95 7.03-8.98-6.66 4.3-5.93-7.72-5.73-1.27-.25-1.36-1.73-16.1-11.84-2.39 3.23-1.1-3.78-.45-2.43-.83-2.88 7.14-9.71.93-2.51 3.35-6.46 18.18 24.62 4.6 3.36.63-1.51z" map-type="inset-region"/>
    </g>
    <g region="26" long-name="Reynell" short-name="Reynell" value="1">
      <path d="m745.4 744.97-.06-.52.05-.37-.9.05-.14.04-.27.18-1.24.08-.05-.55-.08-.3.07-.24.14-.3-.02-.1.05-.33.1-.22.2-.26.08-.14.03-.22.1-.12.2-.35.32-.33.19-.01.15.07.12.13.22-.25.04-.19.36.23.67-.04.12-.1-.04-.12.18-.02.1.05.05.17 1.55-.1.18-.1.32-.45v.07l.04.34.17 2.79-.9.05.09 1.35-1.78.11z"/>
      <path d="m143.93 934.6-.53-4.22.44-3.1-7.46.44-1.06.33-2.26 1.49-10.15.64-.44-4.51-.68-2.52.58-1.9 1.2-2.5-.15-.85.41-2.65.75-1.75 1.73-2.14.59-1.2.26-1.76.82-1.04 1.6-2.87 2.7-2.68 1.51-.08 1.26.62.97 1.03 1.77-2.04.39-1.56 2.9 1.9 5.49-.35.98-.76-.33-1.05 1.51-.18.83.45.4 1.34 12.71-.74 1.47-.85 2.64-3.69.03.58.26 2.76 1.38 22.86-7.3.47.68 11.01-14.62.94z" map-type="inset-region"/>
    </g>
    <g region="28" long-name="Torrens" short-name="Torrens" value="1">
      <path d="m754.76 723.63-.17-.07-.15.02-.15.1-.35.15v.11l-.13.18-.38-.85-.04.02-.09-1.52.4-.02.05-.04.81-.05-.1-1.55 1-.06-.02-.11-.19-.29-.08-.49 1.63-.1.46-.03.04.48-.2.21-.13.23.97-.07.03.32-.5.03.04.73-.78.05.02.35-.16.34-.1.12-.26-.18-.22.05-.09.11.1.12-.13.1.04.18-.19.15-.37.11-.08.14.13.25-.06.14-.03.27-.07.07-.34.1z"/>
      <path d="m220.61 759.6-1.38-.54-1.24.12-1.2.88-2.86 1.19-.02.93-1.08 1.47-3.1-6.99-.32.21-.73-12.5 3.21-.2.44-.26 6.68-.4-.78-12.75 8.12-.52-.11-.9-1.55-2.35-.71-4.01 13.35-.8 3.84-.26.3 3.9-1.61 1.76-1.06 1.83 7.95-.53.22 2.61-4.18.27.4 5.95-6.42.41.2 2.87-1.36 2.78-.77 1.05-2.18-1.53-1.75.4-.75.95.85.92-1.1.83.34 1.52-1.57 1.22-3 .92-.69 1.15 1.1 2.05-.5 1.14-.26 2.23-.6.57-2.75.78z" map-type="inset-region"/>
    </g>
    <g region="29" long-name="Unley" short-name="Unley" value="1">
      <path d="M752.02 731.2h-.04l-.04-.61.02-.1-.16-.2-.45.03-.04-.53-.02-.16-.19-.25-.16-.3-.15-.81.01-.02 2.29-.14.68.51.64.46.65.97.32.24.12.26.05.23-.7.03-.09.15-.86.05v.07l-.3.01v-.12l-.33.01.01.26-.28.02-.3-.24-.05.13z"/>
      <path d="m198.18 821.66-.35.04-.3-5.02.13-.8-1.28-1.66-3.74.24-.27-4.3-.2-1.36-1.53-2-1.3-2.48-1.24-6.66.08-.12 18.76-1.15 5.59 4.19 5.22 3.74 5.37 7.92 2.6 2.01 1 2.14.4 1.82-5.8.32-.66 1.17-7.1.42.02.55-2.44.15-.05-1.03-2.7.1.12 2.11-2.33.17-2.4-1.97-.43 1.12z" map-type="inset-region"/>
    </g>
    <g region="30" long-name="Waite" short-name="Waite" value="1">
      <path d="m755.55 730.77.11.1.23-.03.23-.17.48.55v.17l-.1.1.1.1-.35.3.01.17.76.28-.24.6-.35-.2-.3.24.43.21-.14.18.36.27.15.07.3.04.11.06.35.03-.36.6-.14.38.13.04.18.14-.24.34-.25.08.13.22.17.07-.03.16-.3-.05-.08.19-.32.14-.03.13-.26.07-.09.07-.24-.1-.14.06-.12-.06-.42.01-.3-.03-.08.08-.18-.12-.31-.08-.14.1v.18l-.19.01.03.44h.13l.03.1h.28l-.05.23-.26-.07-.15.02-.13.17.22.18-.03.17.1.12-.34.02.03.27-.45.04.02.33-.17-.12-.05-.19-.15-.1v-.16l-.11-.07-.2-.01-.05-.2.09-.19-.18.02-.44-.2-.1.12-.23.02-.16-.3-.44-.4-.22-.07-.05-.19-.16-.1-.17.03-.22-.04-.11.09-.27.04-.15-.04.07-.25-.14-.11.54-.04-.1-1.56 1.25-.08v-.1h.2l.27-.2-.01-.76.03-.12.16-.2-.1-.06-.08-1.36-.04-.4.63-.04.05-.13.3.24.28-.02-.01-.26.33-.01v.12l.3-.02v-.06l.86-.05.08-.15z"/>
      <path d="m227.13 818.21.92.8 1.84-.27 1.91-1.35 3.9 4.46.08 1.43-.86.72.85.84-2.9 2.5.1 1.41 6.22 2.32-2.03 4.86-2.81-1.58-2.5 1.94 3.54 1.77-1.12 1.42 2.93 2.23 1.26.58 2.47.33.89.49 2.82.26-2.9 4.96-1.14 3.09 1.02.3 1.5 1.18-1.99 2.73-2.03.66 1.08 1.84 1.33.54-.19 1.35-2.48-.4-.64 1.5-2.64 1.14-.25 1.08-2.1.58-.76.6-1.98-.86-1.15.53-.97-.5-3.45.07-2.45-.27-.66.66-1.51-1-2.52-.6-1.16.87.05 1.42-1.56.07.23 3.64 1.04-.06.25.92h2.32l-.45 1.78-2.08-.57-1.27.2-1.07 1.36 1.84 1.52-.3 1.39.84.94-2.74.22.17 2.23-3.68.27.2 2.74-1.39-.99-.45-1.53-1.24-.78v-1.4l-.89-.55-1.57-.1-.45-1.62.72-1.54-1.49.13-3.6-1.66-.72 1.02-1.96.18-1.28-2.46-3.65-3.28-1.77-.59-.42-1.54-1.36-.87-1.37.3-1.8-.39-.93.74-2.16.34-1.27-.27.59-2.1-1.13-.91 4.37-.27-.7-12.84 10.2-.67-.02-.8 1.7.02 2.15-1.7-.12-6.16.32-1.04 1.24-1.68-.85-.41-.63-11.19-.28-3.22 5.17-.34.43-1.12 2.4 1.97 2.33-.17-.11-2.1 2.69-.11.05 1.03 2.44-.15-.03-.55 7.1-.42.68-1.17z" map-type="inset-region"/>
    </g>
    <g region="31" long-name="West Torrens" short-name="West Torrens" value="1">
      <path d="m748.4 728.34-.01-.23h-.08v-.4l-.25.02-.02-.3-.63.03-.03-.53.11-.1-.03-.56-.2-1.15 1.37-.1-.07-1.11.01-.02.62.5v.05l.44.36.04-.2.78.72-.07.13.17 1.2.04.09.2 1.53-.13-.07z"/>
      <path d="m168.51 798.24-.11-1.87-.62.02v-3.25l-2.06.12-.15-2.54-5.18.33-.27-4.37.9-.84-.27-4.58-1.55-9.45 11.21-.71-.6-9.2.09-.16 5.1 4.16v.4l3.61 2.92.3-1.65 6.38 5.91-.53 1.05 1.36 9.88.36.7 1.62 12.55-1.1-.54z" map-type="inset-region"/>
    </g>
    <g region="32" long-name="Wright" short-name="Wright" value="1">
      <path d="m756.76 718.61-.12-1.8-.43.03-.05-.7-.17-.2-.7-.53.6-.85.44-.6.92.69.3.3.35-.02.02.25.2-.01.26.1-.06.1.12.2-.13.07.18.16.4.02.14-.11.12.03.46-.01.56-.04.1 1.79-.88.05-.4-.06-.2.1-1.38.1.13.5.05.38z"/>
      <path d="m237.07 718.46-1.05-14.74-3.52.24-.4-5.79-1.35-1.65-5.8-4.27 4.95-7.03 3.58-4.88 7.6 5.63 2.37 2.46 2.95-.12.18 2 1.58-.1 2.13.8-.47.95.95 1.6-1.05.57 1.46 1.25 3.4.16 1.07-.88.98.24 3.76-.06 4.61-.3.88 14.64-7.3.44-3.2-.5-1.7.81-11.32.78 1.08 4.16.4 3.1z" map-type="inset-region"/>
    </g>
    <g region="15" long-name="Hurtle Vale" short-name="Hurtle Vale" value="1">
      <path d="m751.66 742.49-.07.1v.22l-.07.3-.18.24-.22.22-.06.17.04.17-.07.2-.05.41.08.17.56-.04.05.76-.15.17h-.16l-.04.13-.2-.02-.12.08.01.1.17.08-.07.25-.12-.06-.15.05-.06.31-.21.05v.35l-.06.04-.23-.09-.22-.18-.19.12-.26-.03-.02.16-.1.13-.25-.06-.26.01-.24-.2-.17.03-.21.4-.37-.05-.28-.2-.25.02-.02.14-.37.2.02.26-.16-.02-.18.11-.36-.04-.03.14.07.18-.2.13-.2.05-.04-.32-.23.23-.15.06-.5.03-.01-.24.48-.5v-.11l-.13-.56-.04-.4-.04-.95.04-.42.4-.02 1.78-.11-.08-1.35.89-.05-.17-2.79-.03-.34 1.8-.11.45.19.4-.03.05.1.08 1.27.17.07.09.19.21.17.15.17z"/>
      <path d="m195.26 914.27-.61.88-.07 1.76-.52 2.4-1.46 2.05-1.8 1.78-.48 1.42.28 1.4-.5 1.57-.42 3.4.62 1.38 4.57-.33.46 6.23-1.23 1.42-1.32.03-.38 1.02-1.6-.17-.97.69.1.8 1.4.65-.63 2.05-.93-.46-1.28.4-.5 2.56-1.72.36.04 2.9-.5.34-1.87-.76-1.85-1.5-1.5 1.01-2.16-.28-.18 1.35-.89 1.02-1.98-.48-2.13.13-1.98-1.72-1.36.28-1.77 3.34-2.99-.46-2.35-1.59-2.05.14-.11 1.1-3.07 1.64.14 2.15-1.24-.17-1.51.93-2.96-.37-.2 1.15.56 1.52-1.63 1.07-1.64.39-.36-2.6-1.9 1.87-1.22.47-4.07.25-.13-2 3.92-4.08.08-.9-1.15-4.6-.3-3.3-.3-7.75.27-3.45 3.28-.13 14.62-.94-.67-11.01 7.3-.47-1.4-22.86-.25-2.76 14.81-.94 3.65 1.57 3.3-.24.4.75.67 10.5 1.43.56.7 1.52 1.74 1.43 1.26 1.42z" map-type="inset-region"/>
    </g>
    <g region="16" long-name="Kaurna" short-name="Kaurna" value="1">
      <path d="m742.84 744.43 1.24-.08.27-.18.13-.04.91-.05-.05.37.06.52-.03.42.04.95.04.4.14.56-.01.1-.48.5.01.25.5-.03.15-.06.23-.23.04.32v.38l.06.88-1.17.07.1.08.2.3.03.5h-.1l-.31.48-.43.02-.12.57.14.33-.87.05v.24l-.82.07-.03-.14.11-.28.05-.25.08-.14-.02-.71-.05-.6-.06-.45-.17-.55.06-.29-.07-.25-.08-.43.02-.48.1-.06.16-.28v-.43l-.06-.25.03-.13-.02-.27-.15-.31v-.28l.2-.24.02-.21-.08-.28z"/>
      <path d="m122.91 930.18 10.15-.64 2.26-1.49 1.06-.33 7.46-.44-.44 3.1.53 4.22-.26 3.45.28 7.76.31 3.28 1.15 4.61-.08.9-3.92 4.09.13 2 4.07-.26 1.23-.47 1.9-1.86.35 2.59.04 3.09.42 7.22-9.6.62.75.66 1.73 2.4.26 4.14-.84.05-2.59 3.84-3.5.23-.97 4.61 1.11 2.73-7.12.45.06 1.96-6.74.55-.25-1.19.89-2.3.38-2.02.64-1.15-.15-5.8-.38-4.99-.51-3.61-1.34-4.49.47-2.38-.61-2.1-.62-3.47.13-3.98.8-.47 1.38-2.32-.06-3.5-.44-2.07.26-1.1-.22-2.22-1.23-2.53v-2.28l1.66-2 .14-1.68-.67-2.32z" map-type="inset-region"/>
    </g>
  </g>
  <g map-type="insets" transform="matrix(1.6 0 0 1.6 0 -393.72)" style="stroke-width:.624297">
    <g map-type="inset-lines" style="stroke-width:.624297">
      <path style="stroke-width:.624297" d="M0 566.96v1.25h148.94v300.34h1.25v-301.6z"/>
    </g>
    <g map-type="inset-texts" style="stroke-width:.624297">
      <text xml:space="preserve" style="font-size:16.6651px;line-height:1.25;font-family:sans-serif;stroke-width:.624298" x="2.6" y="583.21"><tspan x="2.6" y="583.21" style="stroke-width:.624298">Adelaide</tspan></text>
    </g>
  </g>
</svg>