<svg viewBox="0 0 866.02 1000" auto-border-stroke-width="1" auto-border-stroke-width-limit=".1" version="1.1" country="aus" type="nt" date="2024326" variant="blank" original-source="[&quot;https://www.abs.gov.au/statistics/standards/australian-statistical-geography-standard-asgs-edition-3/jul2021-jun2026/non-abs-structures/state-electoral-divisions&quot;]" title="2024 Northern Territory Legislative Assembly" candidates="[{&quot;id&quot;:&quot;0&quot;,&quot;defaultCount&quot;:0,&quot;name&quot;:&quot;CLP&quot;,&quot;margins&quot;:[{&quot;color&quot;:&quot;#F8981D&quot;},{&quot;color&quot;:&quot;#FFAE3F&quot;},{&quot;color&quot;:&quot;#FFC366&quot;},{&quot;color&quot;:&quot;#FFD899&quot;}]},{&quot;id&quot;:&quot;1&quot;,&quot;defaultCount&quot;:0,&quot;name&quot;:&quot;LAB&quot;,&quot;margins&quot;:[{&quot;color&quot;:&quot;#F00011&quot;},{&quot;color&quot;:&quot;#FF3336&quot;},{&quot;color&quot;:&quot;#FF6666&quot;},{&quot;color&quot;:&quot;#FF9999&quot;}]},{&quot;id&quot;:&quot;2&quot;,&quot;defaultCount&quot;:0,&quot;name&quot;:&quot;GRN&quot;,&quot;margins&quot;:[{&quot;color&quot;:&quot;#10C25B&quot;},{&quot;color&quot;:&quot;#36D87A&quot;},{&quot;color&quot;:&quot;#66E99A&quot;},{&quot;color&quot;:&quot;#99F5BB&quot;}]},{&quot;id&quot;:&quot;3&quot;,&quot;defaultCount&quot;:0,&quot;name&quot;:&quot;IND&quot;,&quot;margins&quot;:[{&quot;color&quot;:&quot;#DCDCDC&quot;},{&quot;color&quot;:&quot;#E3E3E3&quot;},{&quot;color&quot;:&quot;#EAEAEA&quot;},{&quot;color&quot;:&quot;#F1F1F1&quot;}]}]" xmlns="http://www.w3.org/2000/svg">
  <g map-type="regions">
    <path region="16" short-name="Arafura" long-name="Arafura" value="1" d="m662.55 65.57.04 5.95 2.6 1.34-.03 3.94-2.46 4.07v19.44l.36 1.72 1.22 2.31v18.42h13.1v7.63l-2.16-.68-1.4.95-.56-.37-1.37 1.62-.2 1.37-1.5 2.25-1.69 1.01-1.08 2.5-40.06-.27-16.12.01-59.73-.24-.01 17.86-17.52-.1-18.82-.03v8.34h3.78v17.96h-7.3l.28-2.73-.85-.98-.42-1.43-1.32-.4-.13-3.2-1.01-.54-.23-1.58-1.54.09-1.75-1.32-1.55-.53-.18-.52-2.34-.77-1.26.54-.54-.47-1.74.37-.6-1.39-.59-.09-2.9-2.68-1.3-.66-1.58-1.96.12-.91-.5-1.41-1.5-1.89-1.8-1.27.28-.92-.8-2.13.1-.77-1.2-1.79-.1-2.1-1.72-1.12-.08-2.7-1.21-1.84-.62-1.83h12.24V125.2h-6.4V115h-2.82v-9.57h-2.44v-5.86l8.3-3.04 5.75-7.43-1.37-.45-.61-1.46.3-1.42-1.26-.4.44-.8 3.71-2.03 1.55-1.35 1.12-1.7.9-.01 2.47-1.23.36-1.05 1.88-.09.12 1.81.89 1.37 3.5-1.46 1.2-.18.87 1.19 1.4 1.23 1.75-.9-.06-1.34 1.75-3.61 2.44-.51 2.9-1.42 2.2-1.45.84.83 3.26-1.22-.4-.9.19-1.19-.46-2.3 1.25-4.72.35-3.15.73-.41-.62-1.03.23-.96-.82-2.43-1.09-.82-1.7-.35-.71-.99 1-1.24 1.28-.48.42-.88 1.35-1.22-1.23-.25-2.05.38-3.4-.8-1.15-1.84-1.1-.38-.12-2.24.3-.73 3.32.04.88 1.04 1.55.04-.08-.85-1-.86-2-1.16-.8-1.8.6-.24.6-1.43-1.02-.05-.88-.7.39-1.43-1.1-.1-.89-.74-.02-1.22-1.56-.76-.82-1.19-2.11-.44-1.6.18-2.94-.87-3.22 1.55-4.15-.62-1.69.89-1.01 1.35-1.4-.05-1.45.86-.23.88-2.5.91-1.72-.07-.8-.41-.6-1.69-.93-.4-.69-1.9 1.14-.13.72-1.51-1.11-.95-1.96.63-1.6-.55-.01-1.3-1.52.55-1.36-.9 1.23-1 .39-2.46-3.08.9.61-1.28-1.67-1.54-1.8-1.06-1.1-.04-.9 1.2-3.08.61-1.3-.01-.7-1.41 2.56-.25.46-.48.19-1.56.97.86 1.58.17.4-.56-1.73-2.59 1.43-1.25 1.03.4.66-2.2 1.48.67.12 1.3 1.73 1.78-.3.79 2.39-.68 1.4-1.65-1.61-2.62 1.32.12.36-1.5-.79-1.04.35-.66 1.38-.2.93 1.15 1.12 2.87.8.63 1.15-.56 1.21 2.62 1.8.11-.55 1.43-.6.38 1.11 1.63-.95 1.17 1.38 2.45.32-2.06 1.89.64-.64 2.3.5.12.17 1.98.65 1.48.8-.67 1.7.7-.34-1.95-.8-.23-.32-.99.46-.85 2.01 1.2.6-.43.3-1.52-.6-1.17-2.23-1.45.4-2-.5-1.73.6-1.07-1.84-2.44-.52-1.6-1.27-.5.13-1.24 2.44-.37.68.96.06 1.3.77 1.04 1.3.94 1.02.22-.27 1.08 1.8 3.27.88.12-.02-2.26-1.05-1.15.59-.98-.58-1.49 1.79-.6.9.48 1.73-1.74 1.36.2.5 2.8 1.1.92-.19 4-.45 1.29 1.64.45.47-2.1.98-.98-.47-.88 1.35-1.55.94.39 1.52 2.13 1.99 1.34-.25 1.43.51 2.29.5.96 1.81-.15.6 1.48.83.47.97 1.43.92.68 1.13.15 1.1 2.07-.02 1.96 1.5 2.5 3.28.88 1.42-.36.88-1.23 1.9-1.86.6-1.47 1.26-.34 1.2-1.83-.21-.58 1.64-.76.55 1.4 1.54 1 1.27-.67-.2-1.04.56-1.14-.99-.89-.18-.83-1.58-1.18.4-.62 1.67.65 1.2-.55 1.06 2.09 2.39 3.58 1.55.3.8.68.76 1.9 1.55 2.52 1.96 1.31-.5 1.58 2.03 3.96.18 1.29 1.64 2.08.08.7 1.58 2.29 1.38.71 3.16.75 2.09-.21 2.25-1.58 2.35-.72.92.5.23 1.14-.81.5-1.53-.13-.56.93.22 1.28.65.74 3.08-.73 1.1-.6.84-1.12.77 1.7-.44 1.22 1.92-.24 1.47 1.8 1.21-1.33h1.38l2.07-1.35-.14 3.27-.5.66.28 1.4-.98 1.24.83.5.75-2.13 1.58-1.9 2.62.18-.05 1.82 1.67-.15.54-.72 1.55-.42-.03-.84 1.75-1.45 3.03-.04 2.14-1.31.28-1.41 1.04-.97 1.74.27.95-.41 1.22 1.82 2.79.18 1.15-.61.33 1.51-1.18 1.1-.28 1.27-.67.48-1.74-.44-1 .48-1.5 1.78 1.24 2.5 1.02-.13 1.14 1.48.07.64 2.22-.2.14.83 4.03-1.48.57-.4 1.03-1.79 2.1-.55 1.6.94-.15 1.1.99 1.37-.55.59.21 1.05 1.49-.35.47-.86 1.87-.8.12 1.07 2.42 2.68-1.28.47.14 1.56 1.12.65 1.16 1.88-.65 1.25-.16 1.26-.99 1.82.77 1.87.87-1.53.29-1.88 2.12-2.17 1.5-.3-.13-2.17.7-.91 1.58-.38 1.4 1.75 2.52 1.9 3.01.83 1.5.85 2.96-.04.28.45 3.54-.27 2.67-.79 2.2-.34 3.3-2.24 1.93-3.15 3.6-.58 1.66.04zm-152.71 6.3.2-.77 1.33.1 1.05-.65 1.5.21.84 1.03.46 1.83-.68 1.14-1.5.04-1.32-.97zm-79.02-4.95 2.95-1 .37 1.04-1.8.42zm-.73 3.57 1.87-1.24 1.67.2-.13.93-1.06.33zm-1.43 1.42 1.19.7.42.85-.77.55-1.8.2-1.24-.42.78-1.54zm-.84-2.3-1.91-.44 1.33-.98 1.76-.37.42 1.24zm-25.16-18.08-.87 2.1-.82 1.11h-1.34l-.88-.57-1.42.08-2.3.7-.74-.04-2.7-1-.78.18-1.28-.73-1.98-.29-2.5-1.42-2.6-.5-.98.45-2.97.76-2.86 1-1.76.29-2.6.86-2.9.12-1.15-.42-1.24.34-1.44-1.64-.35-1.57.78-1.18 1.57.67.78-2.4-.12-2.72.35-1.04 1.01.05 2.22 2.08 1.93.1 1.43-1.61 1.08-1.63.74-.08 2.64 2.9.34-.41-.33-1.62-.74-.25-.55-1.31-2.45-.14.64-3.47-.42-.97-1.22-.82 1.03-1.26.5-1.93-.84-1.55-1.84.4-.5-.9 1.33-.93.55-1.83 3.25-1.75 1.4-2.18-.3-1.2 1.01-.77 2.5-.1 2.1-1.41 1.06 1.33.65 2.69.48.97 1.81 1.8.17 1.6-1.61 2.3-.1 1.46 1.53 2.09 1.53.4 2.53 1.98-.28 2.5.53 3.24 1.01.2 3.09 1.6.98-.28.88 1.02 1.63.59.27 1.04 1.48.15 1.48 1.34zm93-10.63.62-.94-.22-1.48 1.13-.3.35 1.63.53.62-1.05 1.53-1.28-.36zM405.7 29.27l.96 1.04-.07 1.27 1.3 1.48.42-1.26 2.14.7-.02.67 1.81 1.19.56-.94-1.72-.7.37-1.09-1.06-.54-1.39-2.04-2.23-.46.43-2.19 3.7-.68.51-.66 2.97-.17 1.9-.47 2.17-1.78.77-1.1.88.07 4.26 1.71.84 1.11 2.62.79 1.14-1.3-.64-1.82 1.46-.42 2.36-1.36 1.45-2.34 1.63-.07.93.68.45 1.72-.33 1.25 1.4 1.45 1.12-1.96-.58-2.1.41-2.08.92-.78 1.77-.39.3-1.68 3 .72 1.06 1.81-1.02 1.2-.1 1.25 1.62.23.33-1.18.86-.41 1.86.85-.01 1.68.55.66.93-.23.46-.89-.46-.8.9-.82 1.9 1.1.11 1.02-.76.36.18 1.01 1.11.46.79 1.07-.56.46 1.03 1.8-.42.84 1.15 1 1.34-.83 1.54.9.62 1.04-.18 1.43.4 1.37-.89 1.12-1.72-.58-2.03 2.18-.79 2.94.63 1.24-.43 1.2.85.3v1.06l-1.74.29-1.6-.19-.6-.98-1.48-.28-.84 1.12-.96 2.17-.96 1.24-.59 1.51-2.2 2.28-1.02 1.41-1-.48-1.32.53-3.3 2.58-.55.66-2.3.91-2.5 1.6-1.55.35-2.18 2.98-.92-.03-1.45.81-1.72 2.18-1.3.75-1.11-.15-1.35-2.21-3.25-2.7-1.15-.68-3.14-.34-2.82-1.33-1.43-.98-1.62-.65-1.49-.21-.88-2.13-1.94-.97-1.13-1.49-1.47-.36-.4-.87-2.28-2-1.58.41-2.48-1.64-1-2.2.11-1.7.94-1.78-.36-1.13-1.74-.9-.37-.99-1.41-1.3.19-1.26-1.01-1.52.5-1.84-.96-1.22.22-.72-1.83-3.21.81-1.9.72-.72-1.3-2.03-1.52-1.06.54-5.72 1.75-.2 2.93 2.84 1.55 2.2 1.59 1.58 1.68.9 1.41-.13.44-.95 1.34 1 1.11.4.62 2.17-1.14 1.29-1.09-.11-.8 1.4.16 1.48.74.83 1.03.18 1.02-.94.95.1 1.43-.94.12-1.13 1.23.25-.35 1.11.1 1.5zm119.57-17.72.7 1.64.9-.55.9.16-1.15 1.84.62 1.37.4 4.05-1.22.87-.5 1.98-1.45-.05-.9-1.35-.59-2.16-.04-1.34-2.73-3.54-1.55-2.6 1.09-.24.89-.86.33-3.27-1.96-1.3-1.23-1.96.22-.52 2.36 1.7 2.44-.9 1.22-1.11-.3-2.15.78-1.26 1.78.11-1.17 1.9.37 2.8.82 1.78.31 2.78.68.56-.8.98zm-17.74 28.18.3-1.9 1.14.78-.24 1.47zm68.29 2.84 1.02 1.54-2.05 1.32-.7-1.07.41-1.41-.75-1.3 2.66-1.33.83-1.1 4.08.81.5 1.28-2.22.06-1.76 1.08-.4-.63zM550.99 6.72l-.08-1.55 1.62.94-.45.87zm-5.47 4.14-.14 1.07-1.33.67-.03-1.5zm30.65 22.58 1.87-.26 1.69-.75 1.13-.96 1.7 3.23-2.5.1-.86-.68-.94.41-.49.97-1.14-.3.18-.98z"/>
    <path region="17" short-name="Arnhem" long-name="Arnhem" value="1" d="m746.34 95.3-11.52 17.24-6.71 11.37-.77 6.68 8.77 5.76 3.48 1.08.35 2.7.97 3.97-.61-.02-1.52 1.22-.4 2.26-.98-.04-.4-.94-1.84 1.14-.63 2.04-.96.69-.75 1.84-.1 1.4 2.57 1.43-.1 1.3.46.86 2.7-.46-.52 2.26-1.2-.69-.79.48.4 1.03-1.13.13-.32-1.05-1.88-1.25-1.26.68-.31.75.39 1.43-.57 3.3.71 1.1-.02 1.22-.7.71-.95-.03-.28 1.59.67 1.57 1.2.46.45 2.35 1.82 1.39-1.47 1.32.73 1.8 1.48 1.07 2.73-.09 1.38-.76.63-.92 1.14-.48.33-1.34 1.38-.44-.09-1.27 1.25-1.16 1.35.75.2.89-1.37.67-.1 1.05-1.2 1.27.06 1.96-.96.4-.85 2.5.54 2.55-1.51 1.88-.12 2.35-1.2 1.13-.82 2.14-.76.37-1.72 1.66-.56 1.15.4.83-.11 2.2-.5 2.09-.89 1.27-.07 1.76-.54 3.89-2.89 1.92-1.24 1.17-1.69.2-2.51 2.96-1.86.56.67.67-1.44 2.85-1.75 2.94-.73.87.3 1-3.4.92-1.25 1.83.1.73-.72 1.32.03 1.12-.88.23-1.95 2.56-.73 1.48-.57 2.08.1 2.29-.38.95-1.55 1.41-.52-.5-1.33.55-1.48 1.68-1.49 2.12-.83.11-.71-1.08-.71.42.74 3 .02 2.46 1.15 2.53-.2 1.03 1.5 2.4.27.92 2.08 3.57 2.04 1.19 1.37 1.32 3.27 1.96 2.24.86 1.73-.5 1.72 1.03.17.74 1.26.43 1.63 1.6.53.89 1.18-.17 3.89 2.6 3.65 1.9 2.31 2.15 1.61 2.18 2.61 1.51 1.08.99-1.2.87-11.67 2.53-18.74 4.03v28.49h-31.02v9.21h-41.76v-36.73h-16.7l-12.5-.01v-4.88H578.2v1.62h-13.42v12.16l.07.8-2.05.77-11.33 3.67-5.22-20.21.02-19.02-7.32-.14h-12.22V240.2l1.97-3.23-3.8-2.35-2.68 1.23h-2.78l-4.29 2.95-1.14-1.14h-1.67v-5.25h-2.1l-1.05-1.09v-1.87l.96-1.61.2-1.47.86-.55 2.62.65 1.39 1.26.4-1.67 3.93-.08.18-2-.79-.89-1.32.34-1.75-1.94.84-3.05-1.83-.9-.39 1.6-1.59.14v-.88l-3.03 1.35-3.6-.68-3.79 1.63-2.06-1.51-1.15-1.34-2.07-.29-2.5-2.82-1.05-.7-.66-1.77-1.77-2.54-.14-1.86-.23-.93-1-.9-1.23-2-.63-1.69-.02-1.93-2.7-3.23h4.75v-14.61h28.91l.01-17.96h-3.78v-8.34l18.82.03 17.52.1.01-17.86 59.73.24 16.12-.01 40.06.27 1.08-2.5 1.69-1 1.5-2.26.2-1.37 1.37-1.62.55.37 1.4-.95 2.17.68 1.45-1.67 3.46-1.5 2.5-.81 2.54-.4 1.79-.64 5.9-.16.91-.67 2.06 1.3 1.99-.2 1.72-1.18-16.73-5.24-1.45-4.68-.27-3.88-1.87-5.5.25-3.8 1.77-3.78 2.85-5.3 3.7-3.9.64-3.6.53-.33-2.8-4.07 2.48.55 2.36-.6h.97l1.09 1.88 1.8.27 2.2-.98.36-.78.54-1.37 2-1.93 2.18.38 1.03-1.42 2.07-.28 1.14-.92 2.43.44 1.04-1.27 1.82-1.33.14-1.17 2.1-1.48 1.3-.56 1.17-1.42 2-.33 2.57-1.58 1.53-.01 1.93-1.09 2.06-.82 1.8.25-.66 1.13-2.4 2.15-1.25.62-1.94 3.03-1.8.79-.93 1.47-.91.43-2.15 2.23v2.18l1.55 2.53L722 82.7l1.22 2.15 1.09-2.06.88-.55 1.04.41.14-2.34 1.99-1.42.83-1.08 1.9-.2.92-1.7.97-.08-.14 1.42.9.6.92-2.22 1.2.66 4.5-2.84-.26-1.62.85-.83 1.1.48-1.04 2.37-.62.33-1.55 2.34-3.05 3.56.16.89 1.57.9.6 1.53 2.26-.3.52-1.63 2.16-.66 1.06.55-.73 2.03-1.02-.07-.34 1.25-1.33.3.93 1.26-1.04 1.46-.64 1.5-1.38 1.03.14 1.3 1.73.2.3 1.37-.7 1.16.53 1.03 1.65 1.22.97-.23.04-1.08 1.13-1.54.98 1.69zm-25.59 158.54.03-.47 1.69-1.09-.06-2.03.63-1.06 1.36.12.74.72.56 1.8-.05 1.27-1.8.27-.35-.42-1.6 1.33zm-5.54-26.14.1-.9 1.7.21-1.13 1.6zm29.95-67.12.51-1.06 1.46.84-1.5.6zm4.02 3.56.56-.71-1.7-2.6.78-1.3-.5-.85.85-1.28-.45-.79.19-1.56.78.13.8 2.17.81.19.12 1.07 1.82 1.12-.42.94-1.82-.11-1.36 1.71 1.21.99-.1.84-1.07.1-.47 2.53-.8-1.66zm-7.21-88.64.06-3.34.81 1.98zm21.23 48.42h-1.09v-1.07h1.1zm3.42 61.86-.62-1.7.86-1.05 1.1.98.99-.72.47.96 1.93.25 1.6-.7.42-.76-.18-1.35 1.15-.47-.14 1.7.95.39 1.24-.7 1.69-.2-.43-1.23 2.35.14.03-1.43-1.15-.42-.15-1.83-1.38-.48.03-2.65 1.32-.07 1.85 1.33 2.27-.38.89-2.23 2.07-.38.5 1.89-.8 1.72-2.25 1.14.42 2.15.47.72 1.53.22-.56 1.1 1.04 1.54-.33 1.41 1.88-.55.73.58 2.7.98 1.95-1.09.39-1.7-.8-.72.76-3.44 1.65.48 1.12-.17 1.04.66.55 1.64-.12 1.17-1.77 2.28-1.6 3.27-.07 1.14-2.82-.43-1.36.79-1.4 2.67-.4 2.93.99 1.44 1.7-.3.08 1.12-2.66.45-1.07 1.59-.94-.18-1.15 1.53-.2 1.16-.68.24.2 1.79.65.92-.56.76 1.15 1.45h1.9l.63.6 1.4-.21-.65-1.08.8-1.56.95-.1 2.66 2.36.57 1.36 1.66.09.96-.54 1.33-2.51 1.67-.33 1.2.52-.64 1.9-1.2.63 1.19 2.5-.7.87.4 1.33-.75.31-.05 1.08-1.78-.77-.8 1.27-1.06-.2-.66-1.21-.75-.37-.98.72-.63-.77-2.92-1.12-2.63-.1-3.7 1.73-1.8.6-1.15-.63-.6-1.34-5.4-.65-1.03-1.33-1.98.23-2.27-1.29-1.14-1.4-2.63.38-2.45 1.15-1.86 1.52-.16-1.96 1.17-.71 3.45-1.58 1.2-.96.12-1.13 1.5-1.97-.86-1.56.02-.97-.73-1.31.26-.62-.4-2.03.07-1.56-.54-.97.8-1.68.96-3.68-.17-1.03zm5.03-9.11h1.05l.65-1.04.8 2.43-.26.93.4 1.34-1.36 1.17-1.56-1.07-.47-1.22-1.1-.6.17-1.75zm-19.28 3.63-1.06-.37-1.36.7-.13.7 1.03 2-.01.93-2.45.1-1.47-1.42.94-1.74-.67-1.54.2-2.1.84.13 1.26.94.92.2 1.17-.54-.34-.91.3-1.64.71-.51.04-1.59 2.18-.48 1.6.81 1.6 1.95 1.04.14.25 1.42-.82.7-.81-.25.53 3.6-1.25-.48-.31 3.05-.88.99-2.24.63-.43-.58.8-1.52-1.39-1.95zm10.98 4.47-2.07-.2 1.22-1.81h.87l.37.92z"/>
    <path region="18" short-name="Barkly" long-name="Barkly" value="1" d="M865.93 719.8h-19.89v4.7H804.3l-19.6-.02h-13.58v-1.34l-2.38.08-2.25 1.14-.86-.51-1.91 1.14-3.8 3.56-1.86.36-2.35 1.87-5.95 5.06h-10.74v25.98l-3.96-.47-1.12 2.74-2.23-.74-5.88-1.1-10.24-.13-8.82-6.81-4.19 1.95v4.6l-15.77.03.11-13.18.03-12.97-16.77.1v21.49h-16.24l.03-8.65h-.69l-.01-3.9h-9.32l-.16 18.59-21.61.02v11.25l.01 20.17.2 4.65-15.35.03-2.91-3.58v-1.94l-20.07.03h-11.3l-18.89-.04h-13.52l-12.44.02-20.03-.04V782.7l2.43.03v-16.22h6.87l.01-27.2h9.37l-.03-2.84 2.46-.06 2.15.9 3.02 2.03 12.9-.01v-26.92h-5.63l-.01-24.59-5.16.01v-19.93l.03-5.7-.04-15.12-15.03-12.88-20.97-18.03-9.98-9.09-.04-20.41-.02-19.74-.03-19.7-.02-19.65-.04-19.63-.04-19.6-.02-10.12-23.64.02.03-9.1v-24.4h29.93v-14.64h-1.86l-.03-19.13h19.48v-47.54h7.6V339.7l-.16-9.52-13.6-.45-13.49-.18.15-13.64v-48.5H526.73v-5.54h12.22l7.32.13-.02 19.02 5.22 20.2 11.33-3.66 2.05-.76-.07-.81V283.8h13.42v-1.61h27.47v4.88l12.5.01h16.7v36.73h41.76v-9.2h31.02v-28.5l18.74-4.03 11.66-2.53 1.2-.87 3.07 1.6.7.16 1.76 1.6 4.15 1.98 1.7 1.5 2.42-.06 2.3 1.6.12 2.13.77 2.3.61.91.44 2.48 1.23 2.36 1.71 1.15.22.79 2.28.95 1.2-.03.96.74 1.3-.06 1.43 1.33 2.15 1.3 2.26 2.56 2.12 1.67 2.92-.4 2.88-1.79.84-1.65 2.38.8.94-.08 1.61.83-.54 1.97-1.72 2.47-.18.84-2.24-.3.32 1.29 1.1.13.4 1.36 1.14 1.03 1.12 1.6.11 1.45-1.45 1.3.93 2.23 1.45.07 2.52-2.8.23 1.1 3.2-.44.86.6 1.08-.13.98 1.05 2.25.27.66-.84-.19-1.05 2.58-1.56 1.46-1.52.74 1.67.9-.13 2.77 3.12 2.24 1.43 2.26.61 2.41 1.05 3.12 2.03 2.71.61 2.2 3.28 1.2 1.17.24.8 1.38.97 2.32 1.11 1.33.32 1.3 1.15 1.05-.33 1.78.48 1.97 1.12 1.38.07 2.41.67.37-.4 3.15 1.05 3.26 1.5 1.71.95 3.09.65 1.24 2.15 1.22 1.36 1.32 2.64 1.52 2.1 1 .9 2.02 3.34 1.49 1.47 3.4 2.59.75 1.21 2.7 2.31.02 24.64v14.35l.01 19.15.02 24.03.01 25.91.02 28.99v12.47l.02 17.08-.01 15.53.01 25.52.01 18.44.01 18.27.01 21.73.01 16.38.02 27.1v20.2l.02 12.8zM536.3 760.9l-.63 1.15h2.24l-.87-1.08zm251.18-458.77.52-.4 1.43.5.77-.22 2.17 1.12.3 1.12-1.2 1.38-1.27.15.68 1.39-2.06 1.45-2.73.35-.01-1.03.95-1.2-.47-.8-.04-2.9zm-8.37-5.97-.8.4-.51 1.3.27 2.09-.7 2.09-2.44-.36-.96.84h-1.37l-1.19-.85 1-.87.05-1.38-.45-.86.8-.71.3-1.19-.63-1.27 1.54-.6 2.12-.34.8-1 1.68.61zm1.85 3.34.6-.84 1.5.53-.04.6zm11.98-2.6-.1 1.19-2.2-.21-.75-1.29 1.18-.24zm-2.95 3.1.06-1.53 1.38.35.08.72zm5.13-.24.46 1.2-.74.72-1.28-.62-.48-1.1-.03-1.43 1.06-.73-.9-1.5.11-1.16 2.12-.22 1.12 4.07zm4.82 8.23-.37-.66-.43-2.8 1.52-2.8.64.14 1.9-1.42-.5-2.42 1.73.71.76 2.56 1.77.43 1.33 1.55-.23 1.2.46 2-.4 1.46.8 2.09.93.32-.55 2.45-.86 1.1-1.8.94-1-.44.26-1.37-.46-.96-1.24.44-1.66-1.68-.76-3.01-1.84-1.11zm-8.39.62-1-1.1 1.12-.35z"/>
    <path region="19" short-name="Daly" long-name="Daly" value="1" d="m343.57 247.35-1.23-1.51 1.98.48 1.7.88-.62.57zm81.4-146.27.65.93 3.86 2.37.92 2.58v2.01l.42.25.6 3.96.57 1.55v4.15l2.23.1.5 1.37h1v1.03l2.82-.04-.1 1.36 1.1 1.3 2.88 1.1.48 1.25-.22.89.57 1.38-1.3.98-.3 2.76-.36.33.28 2.72-1.1.74.15 2.12-.83.65-2.42 4.06v2.04h-2.45l-1.25 1.14 2.23 1.96 1.6.76v2.8l1.98.97 1.83.28 1.34 1.46 3.5 2.48 1 1.5.79.3V146.3h31.58v-4.66h1.54l.62 1.83 1.21 1.83.08 2.7 1.71 1.14.1 2.1 1.21 1.78-.1.76.8 2.14-.28.92 1.8 1.27 1.5 1.89.5 1.4-.12.92 1.58 1.96 1.3.66 2.9 2.68.58.1.61 1.38 1.74-.37.54.47 1.26-.54 2.34.77.18.52 1.55.53 1.74 1.32 1.55-.1.22 1.59 1.02.54.13 3.2 1.32.4.42 1.43.85.98-.27 2.73h-21.63v14.6h-4.75l2.7 3.24.02 1.93.63 1.7 1.23 2 1 .89.22.93-.74-.83-1.58.78-1.5-.49-2.77 1.63-.9 1.55-1.01.22-1.7 1.7.02 1.15-1.8 1.63-2.35.7-1.33 2.11-.79-.34-1.56.77-1.3-.22-2.22 1.39-1.35 1.3-.87.16 1 3.9-.35 1.3.2 1.43.96 1.84.72.55.42 1.3-.79.55 1.11 1.37-.7 1.96.3 2.15 1.4.66-18.17.02-5.44-.05-8.64.05-8.24-.05-5.28.05h-22.46l-.05 10.2-.95.58-1.47-.25-2.03.21-1.66.68-.77-.79-.84 1.51-2.4.12-2.12 1.57-1.2-1.73-1.43.2-.32 1.2-.69.12-1.09-.9-1.58 1.33-1.6-.14-2.6.87-2.17-.33-1.04-1.3-.72.17-1.68-1.95-.27-2.22-.72-.26-.73.84-1.6-1.7-.64.56-1.58-.1-1-.7-1.29 1.06-1.06-.25-2.88.55-2.33-.02-1.05-1.51-.88-.35-.96.4-1.18-.3-1.22-.43-1.73.97-2.2 2.11-1.29.04-1.02.54-1.68-.18-.23-1.39 1.18-.34 1.22-1.35-3.64 1.1-1.55-.99-1.9-.77-.86-.74-.08-1.92-1.24-.7-1.74-2.38-1.23-.28-1.05-2.16.26-1.77 2.93-.2 3.81.13 1.58-1.87 1.5-.32 1.96-1.9-.44-.43-4.05 1.32-2 1.1-.97-.05-2.75-.76-2.73-.36-.68-.7-2.17-.32-.45-1.09-1.63-1.82-.94-.51-1.41.62-.05-1.4-1.04-.35-.98-1.17-.7-1.7-1.44-.82-1.79-.08.32-2.35.83-1.8-.46-.98 1.7-1.49 1.31-2.22-.32-3.03.8-.2 3.18-3.69 1.31-2.9.57-1.9-.28-2.68 1.01.63 1.24-.87.52 2.14-.73 1.57-.03 1.31.75.66.93-.15-.15-1.55.28-1.48.77-.92 1.5.64 1.06-2.44-1.28-1.28.3-.5 2.05 1.29 1.69-.19 2.8-1.43 1.18-.4 1.7-2.57.08-3.63-.75-1.4-1.27-.27.47-2.95 1.1-1.36 1.4-1 1.98-2.14-.53-.95.37-2.3-.45-.52.38-3.45 1.8-3.97.85-3.16-.33-2.67 3.05-1.15-.38-1.16 1.11-1.99.83.7.05 2.66 1.72 1.76 2.1.51 2.09-.03 1.52-.43 3.01-2.07 2.47-2.63.69.62 1.53-.56 1.32-1.37 1.77-2.7 3.05-7.26-1.5-2.95-3.47-3.95-1.87.1-.9-.81.17-1.99.95-1.86-.89-1.02.6-3.58.64-1.73-.1-1.37-.55-1.2.75-2.15 1.13-.27 1.05-1.22 1.1.16-.04.97.8.94 1.08.44 2.4-.47 2.65-1.63.73-.92 1.12-.47.05-.86.91-2.17.68-2.64-.35-.76-.05-2.08.27-1.83-.62-1.26.35-2.9.8.48 2 .15-.03-1.24.91-.34 1.49-1.27.58.53 1-.35 2.07 1.85 1.05-.2.6 1.07.11 1.47.99.63 1.17-.7 1.81 1.08 1.6.24 2.04-.68 2.62.28-1.8-1.59-1.3-.38-.7-.9-1.58-.1-.8.64-.7-1.83-1.72-1.46 2.18-.47.47.45 1.12-1.57-1.32-.98-.72.45-.48-1.94 1.43-4.21.97-.86-1.47-1.45 2.32-1.4-.57-.9-1.31-.27.24-1.4 1.62-1.08 2.35.48 1.84 1.4 1.37-.14 1.28.9 1.7.05.83.69-.56 2.75 1.33 1.76-.57 1.13.73 2.25 1.19-1.46 1.01 1.21 1.64-.12.04.71 1.6 2.2.89.3 2.16.01 1.03.32.77 1.72.69-1.18-1.72-2.3-1.07-.58-1.67.03-.87-3.88.84.36 2.38-.74.37 1.59 1.16.5.56-.5.27-.04.2.03.22.06.63.43zm-60.87 40.55.66-1.47 1.74-.05 1.09 1.24-1.31.39zm22.68-34.46-.9-1.12.71-.48 1.21 1.05zm1.86-3.8.08-1 1-.06.47.88-1 .77zm6.8-.86.07 1.19-1 1.2.41.55.66 2.47 1.4 1.8-1.19.99.04-2.24-1.56-1.05-.72-1.3.45-1.86-.63-.8z"/>
    <path long-name="Goyder" value="1" d="M426.61 99.7V97.8l.05.1.13.24.13.21.01.03.12.2.15.23.21.15.27.08.13.06.07.04.14.1.63.46 1.62 2.13.12.41.97.23v-.9h7.03v-1.9l-1.4.01v-2.3l1.47-1.01.75-.07v2.34l.2 1.03 1.64 1.77.47-.7-.05-.91.21-.77.5-.55.93.33.64.97-.52.3.24 1.12.65.44.8-1.2 1.16.8 1.71-.32 1.84.15.17-.1.16-.06.19-.04.23.04.1-.03.07-.1.08-.16.08-.31.02-.24-.03-.12-.05-.11-.1-.14-.15-.1-.1-.1-.05-.15.04-.14.07-.13.15-.14.1-.17.02-.16-.02-.1-.1-.07h-.1l-.13.05-.13.11-.13.12-.19.06h-.15l-.11-.07-.1-.12-.04-.29.05-.09.13-.1.1-.13.04-.15v-.13l-.08-.15-.1-.12-.17-.08-.15-.04-.13.03-.17.07-.15.08-.13-.01-.08-.08-.04-.11-.03-.13.04-.14.1-.11.16-.07.13-.05.07-.09.02-.11-.07-.11-.12-.08-.19-.05h-.19l-.17.02-.22.1-.1.1-.13.22-.13.08-.1.01-.14-.09-.07-.14-.02-.2.06-.17.1-.09.18-.08.25-.1.07-.07.02-.1v-.1l-.05-.11-.11-.08-.17-.03h-.15l-.16.07-.19.1h-.1l-.08-.03-.07-.13v-.13l.03-.16.2-.17.1-.09.04-.12-.04-.1-.06-.03-.2-.02-.14.07-.07.15-.1.18-.17.09h-.22l-.15-.07-.1-.13-.03-.2.04-.16.11-.15.13-.07.25-.06.2.07.2.07h.14l.06-.07.06-.14v-.18l-.07-.14-.16-.16-.21-.1-.17-.06-.18.06-.13.16-.16.23-.1.1-.14-.06-.1-.11-.02-.17v-.39l-.05-.14-.09-.11-.19-.1h-.15l-.16.03-.28.07-.1-.01-.08-.08-.04-.17v-.16l.02-.13.09-.1.11-.08.13-.05.18.03.23.04.13-.05.05-.07.04-.11.02-.1-.04-.15-.08-.12-.13-.07-.17-.06-.12-.08-.06-.12v-.14l.05-.17.13-.1h.14l.2.05.21.02.2-.03.14-.06.13-.14.1-.2-.01-.21-.08-.22-.14-.16-.22-.03-.17.07-.22.25-.16.05-.15-.08-.17-.21-.12-.2-.13-.06-.3-.07-.14-.07-.1-.1-.12-.36-.1-.22-.1-.14-.19-.12-.16-.16-.1-.16-.04-.1-.04-.16v-.17l.01-.17.03-.23-.07-.11-.25-.14-.1-.05-.12-.12-.05-.1-.03-.08.08-.22.08-.1.24-.31.2-.26.05-.07.35-.36.35-.43.1-.23v-.2l-.14-.24-.34-.24-.25-.25-.14-.37.01-.05.03-.38-.02-.48-.16-.5-.09-.6-.1-.43-.24-.32-.28-.16-.3-.11-.93-1.18-1.04-.08.1-1.24 1.33-2.08-.19-1.72 1.25-1.84-.28-1.82 1.94-2.35.14 1.7 1.29 1.3-.37 1.51.47.49-.46 1.15.55.58-.55 1.3.86 2.25 2.46 2.75 1.84 1.22 3.08 1.05 1.71.22 4.28-.3 3.86.28 5.02.06.56-.23 4.03-.45 4.78-1.85 2.56-1.85 1.3-.07 1.5 1.88.11.74 1.38 1.1 5.15 1.52 2.74.42 1.27.4-.31 1.42.61 1.46 1.37.45-5.74 7.43-8.32 3.04v5.86h2.45V115h2.82v10.21h6.4v16.44H479.51v4.66h-31.58v12.38l-.78-.32-1.02-1.5-3.5-2.47-1.33-1.46-1.83-.28-1.98-.98v-2.79l-1.6-.76-2.23-1.96 1.25-1.14h2.46v-2.04l2.4-4.06.84-.65-.14-2.12 1.09-.74-.28-2.72.36-.33.3-2.76 1.3-.97-.57-1.4.22-.88-.48-1.24-2.88-1.1-1.1-1.3.1-1.37-2.81.04v-1.03h-1l-.5-1.37-2.24-.1v-4.15l-.57-1.55-.6-3.95-.43-.26.01-2-.92-2.59-3.86-2.37-.65-.92.17-.28.05-.18.05-.1.06-.03.13-.02.12.02.13-.03.06-.07.03-.08.01-.02.1-.04.08-.02.06-.03.12-.07.06-.01v.06l.04.03.1-.12.03-.01h.07l.08-.02.04-.05-.02-.06v-.07l.06-.06.07-.03v-.1" region="20" short-name="Goyder"/>
    <path region="21" short-name="Gwoja" long-name="Gwoja" value="1" d="M563.97 1000H300V288.2l.04-11.1.02-24.88 1.9.34.77 1 1.39-.7 1.63 1.01 1.31 1.81-.15 1.72 1.28-.77 1.39 1.17 2.25 1.27-.48 2.33-.7.88-.02 1.03 1.2 3.12.76 1.42-1.67 1.8.06 1.13-1.15 1.29.9.63 1.44-2.6 1.37-.18 1.4-1.58-.18-1.32.77-.84-.68-1.81.94-.77.17-1.06.77-.44-1.9-1.26.29-2.17-.53-1.92.16-2.4-.38-2.88-.45-.93 1-1.06 1.59.71-.35.97 2.94-.54 3.12 1.29.85 1.74 2.62 1 2.08.36 2.08.82 2.98 4.5.15 1.45.8.38 2.11 1.97 2.07 2.86-.34 1.62-2.41 1.45.21 1.61 1.14-1.68 1.89-.02.91-1.03 1.92.1.89.59.93-1.14-2.1-2.07-.67-1.32-.03-2.43-1.26-2.81.19-2.78-.98-.53-1.15.93-.4-1.3-2.33-4.03-.65-.72-.39-1.64-1.9-2.65.38-.94 1.74 1.18 2.63 3.22 1.04 2.26 1.63-.62-.06-.78-1.85-1.79-.86-2.3.37-.55 2.64 2.03.64.94 1.65-.5 1.64.81 1.51.22 2.2-.1 1.06-.39 2.54.89 2.71-.98.16-.92 2.47-.98-.52-.43 1.64-1.95 1.17.32.96-.4.88.34 1.05 1.51 2.33.02 2.88-.55 1.06.25 1.29-1.06 1 .7 1.58.1.63-.56 1.6 1.7.74-.84.72.26.27 2.22 1.68 1.95.72-.16 1.04 1.3 2.18.32 2.59-.87 1.6.14 1.58-1.34 1.1.91.68-.12.32-1.2 1.43-.2 1.2 1.73 2.13-1.57 2.4-.11.83-1.52.78.79 1.65-.68 2.03-.2 1.47.24.95-.59.05-10.19h22.46l5.28-.05 8.24.05 8.64-.05 5.44.05 18.17-.01 10.27-.04v26.31l12.63-.02-.03 3.06v48.5l-.15 13.64 13.49.18 13.6.45.16 9.52v23.76h-7.6V411l-19.48-.01.03 19.13h1.86v14.64h-29.93v24.4l-.03 9.1 23.64-.02.02 10.13.04 19.59.04 19.63.02 19.66.03 19.7.02 19.73.04 20.41 9.98 9.1 20.97 18.02 15.03 12.88.04 15.11-.03 5.7v19.94h5.16v24.59h5.64v26.9l-12.9.02-3.02-2.04-2.15-.9-2.46.07.03 2.83-9.37.01v27.2h-6.88v16.22l-2.43-.03v11.23l20.03.04 12.44-.02v39.83l.8 1.04-.8 2.08v7.85h22.46v40.91h12.14v5l-.55.72-2.6 1.82-2.03 1.1-1.05 1.6-1.25 1.07-.93 2.11.14 1.64-.77.85-1.48 5.47-.84 1.21.02 1.25-.67 1.25.47 2.36-.57 1.7.83 4.03.36 5.8-.24 1.95.54 6.52-.34 3.28.16 1.95-.4 1.95 1.08 8.58-.13 1.5-.93 3.65-.15 2.6 2 7.61.13 1.37-1 4.92.24 3.48.45 1.44 4.11 7.23.52 2.55-.25 2.31.46 1.92-2.6 3.77-1.44 3.48zM536.3 760.9l.74.07.87 1.07h-2.24z"/>
    <path region="22" short-name="Katherine" long-name="Katherine" value="1" d="M526.73 261.86v5.54H494.46l.03-3.06-12.63.02v-26.32l-10.27.04-1.4-.66-.3-2.15.7-1.96-1.1-1.37.78-.55-.42-1.3-.72-.55-.96-1.84-.2-1.43.35-1.3-1-3.9.87-.16 1.35-1.3 2.23-1.39 1.3.22 1.55-.77.79.34 1.34-2.11 2.33-.7 1.8-1.63v-1.16l1.69-1.7 1-.2.91-1.56 2.77-1.63 1.5.49 1.58-.78.75.83.14 1.86 1.77 2.54.66 1.76 1.04.71 2.51 2.82 2.07.29 1.15 1.34 2.06 1.51 3.78-1.63 3.61.68 3.03-1.35v.88l1.6-.13.38-1.6 1.83.89-.84 3.05 1.75 1.94 1.32-.34.8.9-.2 2-3.92.07-.4 1.67-1.39-1.26-2.62-.65-.86.55-.2 1.47-.96 1.61v1.87l1.05 1.1h2.1v5.25h1.67l1.14 1.13 4.29-2.94h2.78l2.69-1.24 3.79 2.35-1.97 3.23z"/>
    <path region="23" short-name="Mulka" long-name="Mulka" value="1" d="m690.6 84.77-.64 3.6-3.71 3.91-2.85 5.3-1.77 3.77-.25 3.81 1.87 5.5.27 3.88 1.45 4.68 16.72 5.24-1.71 1.18-1.99.2-2.06-1.3-.92.67-5.9.16-1.78.64-2.54.4-2.5.8-3.46 1.51-1.45 1.68v-7.64h-13.1v-18.42l-1.22-2.31-.36-1.72V80.87l2.46-4.07.04-3.93-2.61-1.35-.04-5.95 1.03.73 1.12 2.74 2.83.76-.09 3.38.86 1.18 1.81.21 1.59 1.1 1.23-.57 1.16.19 1.44.77 1 1.1 1.2 2.53 2.57 2.2.59.85 4.47-1.57h1.1l.95.75.4 1.07zM755 143.5l-.78-.13-.44.4-.07 1.58-.8.9-1.45-.86-1.6.84-.28-1.73-.68-.48 1-4.2-.64-1.5-1.39 1.32-1.1.52.28 1.26-1.77 2.16.13 1.9-1.26-.57-.79 1.07.82 1.31-1.31 1.86-.68-3.11-1.28-1.94-.97-3.97-.35-2.7-3.48-1.08-8.77-5.76.77-6.68 6.7-11.37 11.53-17.24 2.78-1.2 1 .1.25 1.44 2.26.34 1.68-.37 2.85-1.86 2.25-2.13.45-1.2-.46-.84 1.37-1.57.53-1.79 1.85-3.82-.46-2.08-1.08-1.3-1.48.44-1.44-.4-3.26.6-1.85-1.95-1.43.79-1.18-.28.15-2.14 1.57.22.89-.73 1.3-2.2 2.19-2.82-.15-.38L759.3 69l1.48.08.37.6 1.75-2.33.64.32.9-1.2.03-.83 1.92-2.47 1 .82.9-.93 1.15-.45 1.4.21 2.4-.87.4-1.28 3.26-.36-1.84 1.64-3.62 1.27-1.38.1-.28 1.58-1.23.01.39 1.33 1.64.97h.9l.38-1.42.6-.64 1.3.3.35 1.74 1.05 2.74 1.07 1.5 1.1.4-.14 2.13-.58 1.25 1.22 2.56.21 1.14 1.55 1.4 1.36.68.07 2.14 1 .85 3.07.28.42-.84h1.37l1.34-2.57-2.48-1.39-1.24-1.58 1.3-.24.25-.74 3.43-.85.4 1.33 2.07 2.14 2.2-.04 1.14.59.67 1.62.97.12-.03 1.86 1.68.24-.02.9.72 1.8-.69 1.23 1.18 1.77-2.6 1.26-.89 1.59-1.24.75-1.68 1.8-2.39 3.2-2 1.97-.82-.48.86-.99.1-.86 1.26-.44-.2-2.53-.87-.07-3.59 2.7 1.1 1.25.34 1.5-.4 1.24h-1.17l-.36 1.17.92.8-1.58 1.63-.75 1.32-.85 2.45.18 1.25.9.73-.07.76-4.12-.65-1.25 1.11-.4 1.86 1.13.65.26 1.2-1 2.55-1.5.21-.27-1.25.09-2.06-.97-.25-1.83-1.33-.77.92.04 1.15.58 1.14-1 1-2.22-2.52-1.15.92.18.77 1.24.43-.66 2 .29.7 1.44.5.27 1.07 2.15 1.56.3 1.68.65-.26 4.8 2.5.74 2.62 1.22.68-.82.81-1.27-.16-.36-2.6-.74-.4-1.2.81-.93 1.22.09 1.25-1.05-.18-.11-2.32-.78-.94-1.58 1.35-.74-.53-1.46.96-2-1.16-.43 1.13 1.64.42 1.76-.13.04 1.05 1.7.71-.31.65.45 1.47 1.85.18-1.3 2.23-1.09 3.42-1.14-.46-1.15.65-.82 1.27-.46 2.96.23 1.25-1.28 1.33-.56-.42.47-1.55-3.33 1.12-.9 1.62-2.63 3.71h-.64l-.95-1.9.86-.45.31-1.07-.64-1.4 1.45-.2 1.29.27.95-1.21-.5-1.75-.8-.54.2-2-.83-1.15.9-.46-.87-1.5.86-.7-.42-.9.48-.91-.42-1.43-1.8-.72-1.73 1.75-.1 1.36.9 1.7-.9 1.57.2 1.41-1.72.15-3.75-2.15-.17 1.02 1.42 1.2zm8.2-19.58v-1.07h-1.09v1.07zm-49.23-52.07-.14 1.17-1.82 1.33-1.04 1.27-2.43-.44-1.14.92-2.07.28-1.03 1.42-2.17-.38-2.02 1.93-.54 1.37-1.37.62-1.34.03-1.48-.9-.88-1.28-1.43-.12-.87-1.46 2.1-.17.95-1 1.11-.03.99-1.1-.76-1.42 1.37-.77 1.52-.35 1.13-1.5 1.2.56.56-.66 1.5.1-.92 1.2.68.79 2.22-.01 1.05-.3 2.4-1.52.75-1.57 1.16.2.45 1.47 1.54.8zm35.7 5.24.08 1.35-2.6.25-.31-.6.9-1.34.78.54zM672.35 73l-.45 1.35-.82.53-1.98-.89-.32-2.57.17-1-1.2-1.44.47-.38 1.82 1.39 1.53.2 1.36 1.56zm4.5-.97-.98-1.72 1.15.13zm-5.16-4 .12-.68 2.74-.48 1.69 1.29-1.18 1.07-.08.84-1.35-.19-.23-.83zm-3.74-1.34.98.9-.76.73-1.53-.58.04-.92zm12.94-3.78-.6-.94.4-1.21 1.88-.34 2.4.66-.93 1.05zm55.55-13.17 1.03-1.07.82.22-.04 1.2-1.62.76zm-23.7 17.04.15-.64 1.29-1.5.56-1.82 1.29 1.1 1.05.34 1.45-.47 1.46-2.23 1.07.41 1.31-.44 1.16.44 1.52-1.19 1.54-.73 3.13-3.13 2.44-1.7.95-2.7-.75-.05-.62-1.18.73-1.06 3.12.99.8 2-1.16.56-.78.91-.48 1.76-2.16 1.17-1.61 2.02-.72 1.68-1.91 2.25-1.19.74-1.86-.25-.63.57-.3 1.4-2 .05-4.16.97-.78.73-1.15.21-2.15 2.3-1.13-1.26.62-1.1zm27.07-19.18-.83-.04-1.8-1.16.16-1.13 2.13-1.38 2.4-1.24 1.86.76zm23.92-9.73-.37-.83 1.28-1.27 1.79-.81.99-1.3 2.55-2.05-.32 2.63-.93 1.46-2.92 1.15-.02.5zM760 40.02l-1.03-.32-.1-.84 1.03-.32.68.8 1.14-.61.4-.96 1.34-.33.07 1.44-3.97 3.3-2.08-.87-.45 2.61-1.57.27-.85-.65-2.27 1.53-.7-.14-.74-1.1.62-.62 3.28-.11.09-1.45.7-.23-.26-1.2 1.91-1.04.8.37.36.99zM750 46.45l-.83 1.4-1.05-.56 1-.87zm16.1 10.48 1.4 1.24-.08.86-1.65.47-.45-.7zm-29.21 2.82.24-1.79 1.59-.42-1.35 2.09zm12.26 8.98 1.86-.76.13-.65 3.06.74 3.09-1.98.76-1.87 1.48.09.47 1.99-2.29 1.56-2.26.83-1.57.93-1.28.38-1.1.85-.92-.68-2.25.5-.7-1.05 1.98-.05zm20.67-12.59.77-3.2.98.73-.15 1.07-.94.98.35 2.83-1.34.67-.26-1.96zm2.92-3.31 1.15-1.29 2.07.08.32-.84 1.44-1.3-.4 2.48-1.3.57zm-1.2-24.67.18-1.06.84-.14 1.52-1.68 1.95-1.61 1.24-4.1 2.3-3.23-.16-.83 1.38-.39.52-1.29 1.22.5.95-.25 1.25-1.64-.24-2.2.95-.7 1.21-2.87-.12-.9-1.33-.44.46-.85 2.34-1.29-.06 1.33-.65 1.85-.17 1.56-.62 1.21.06.9-.84 1.2-.47 1.76.3 1.15-.66.84-2.31.98.3 1.43-.92 1.23-.88-.04-.14 1.04-.83 1.03-.59 2.14-1.26 1.06-1.09 2.42-1.54 1v.6l-1.74 2.23-.82-.76-1.7.42zm18.92 45.33-.06-1.88 1.68-1.08-.12 3.1-.4 1.26z"/>
    <path d="M865.93 719.8h-19.89v4.7H804.3l-19.6-.02h-13.58v-1.34l-2.38.08-2.25 1.14-.86-.51-1.91 1.14-3.8 3.57-1.86.35-2.35 1.87-5.95 5.06h-10.74v25.98l-3.96-.47-1.12 2.74-2.23-.74-5.88-1.1-10.24-.13-8.83-6.81-4.18 1.95v4.6l-15.77.03.11-13.17.03-12.98-16.77.1v21.5h-16.24l.03-8.66h-.69l-.01-3.9h-9.32l-.16 18.59-21.61.02v11.25l.01 20.17.2 4.65-15.35.03-2.91-3.58v-1.94l-20.07.03h-11.3l-18.89-.04h-13.52v39.83l.8 1.04-.8 2.08v7.85h22.46v40.91h12.14v5l-.55.72-2.6 1.82-2.03 1.1-1.05 1.6-1.25 1.07-.93 2.11.14 1.64-.77.85-1.48 5.47-.84 1.21.02 1.25-.67 1.25.47 2.36-.57 1.7.83 4.03.36 5.8-.24 1.95.54 6.52-.34 3.28.16 1.95-.4 1.95 1.08 8.59-.13 1.49-.93 3.65-.15 2.6 2 7.61.13 1.37-1 4.92.24 3.49.45 1.43 4.11 7.23.52 2.55-.25 2.31.46 1.93-2.6 3.76-1.44 3.48-2.25 3.29h176.41l15.57-.02 26.2-.02 15.73-.02 20.97-.02 16.3-.01 15.15-.02 15.71-.01v-8.13l-.01-23.33V852.46l-.02-24.1-.01-24.45v-11.32l-.02-17.46-.01-19.79v-11.08zM605.68 838.72l.04.04.05-.02.05.05-.04.02.11.1.05-.03.06.12.07-.01.09-.04h.18l.07-.03-.01-.03.1-.07.05.08.03.07.02.1v.04l-.03.25v.17l-.02.15.02.09.03.05.1-.04.02.08.04.05.19.13.11-.11-.02-.05.03-.02.03.03.16-.15.05.02.07-.18h.62v.09h.05v.04H608v-.01l-.1.06v.05h-.03l.04.1h.04l.02.01v.04h.03v-.03h.04l.03-.02.01.03.05-.08.02-.1.06-.1.05-.03h.1l.05-.03h.05l.04.02.04.05v.05l-.02.05-.1.12-.06.03-.03.05-.01.05.02.07.05.06.03.07-.01.08v.07l.1.2-.01.07-.02.04-.06.06-.03.03-.03.1-.04.04-.06.04-.04-.03-.08-.02h-.06l-.03.04-.31.04h-.1l-.08-.01-.08-.03-.06-.03-.02-.04H607.25l-.01.04.12.04-.03.18-.04.07v.05l.07.02h.11v.02l.06.17v.09h.08l.15.08.26.07-.03.12.03.06v.09l-.03.07-.07.06h-.11l-.1-.03-.08-.04-.05-.01h-.09l-.2.07-.09.02-.44-.01-.12-.01-.11-.04-.03.06-.04.03-.16.06h-.11l-.06-.05-.05-.02-.06-.04-.02-.05-.01-.05-.12-.2-.12-.14-.2-.13-.04-.04-.03-.05-.06-.14-.13.05-.03-.08-.01-.13v-.06h-.03l-.06-.05-.13-.06-.11-.1-.1-.03-.07-.13-.16-.13.03-.06.02.02.13.1.04-.05h.01l.12.06h.05l.05-.03v-.03l-.09-.03-.04-.08.03-.08.14.09.03-.01.03-.06.06.05v.23l.1.13.06.04-.01.04-.01.06.03.02.1-.04.1-.1v-.01l.09-.1.04-.02.2-.04h.07l.2.02.04.02.02-.04-.04-.02-.1-.02v-.05l-.03-.03-.04.02-.1-.05-.04-.04-.04-.01.01-.07v-.03l-.04-.06-.06-.02.03-.1h-.06v-.04l-.08-.04.06-.13-.13-.1.06-.06.2.16.02-.03-.06-.05v-.03l-.01-.05v-.08l.04-.05.05.06.02.02.05-.07.05.03-.1.12.14.06h.14l.05-.02h.04l.1-.01.01-.04h-.04v-.03h-.03l-.08-.06-.05-.08h-.03l-.07-.11-.1-.05-.01-.04h-.06v-.12l.01-.04-.02-.03.01-.04v-.2l-.18-.05-.12-.06v-.12l.02-.05z" region="24" value="1" short-name="Namatjira" long-name="Namatjira"/>
    <g region="2" long-name="Braitling" short-name="Braitling" value="1">
      <path d="m607.25 840.87-.18-.03-.06-.02-.23-.1h-.1l-.05.05-.3-.01-.12-.05.02-.04-.04-.02-.1-.02v-.05l-.03-.02-.04.01-.1-.05-.04-.03-.04-.02.01-.07v-.03l-.04-.06-.05-.02.02-.1h-.06v-.04l-.08-.04.06-.12-.13-.1.06-.07.2.16.02-.03-.06-.05v-.16l.03-.05.05.06.02.02.05-.06.05.03-.1.12.14.05.08.01h.06l.05-.03H606.37v-.05h-.04v-.03h-.03l-.08-.06-.05-.08h-.03l-.07-.11-.1-.05v-.04h-.07v-.12l.01-.04-.02-.02.01-.05v-.2l-.18-.05-.12-.06v-.12l.01-.05.07-.04.04.04.05-.02.05.05-.04.02.11.1.05-.03.06.12h.07l.1-.05h.17l.07-.03-.01-.03.1-.07.05.08.03.07.02.1v.04l-.03.25v.18l-.02.14.02.09.03.05.1-.04.02.09.04.04.19.13.11-.11-.03-.04.04-.02.03.02.16-.15.05.02.07-.18h.62v.09h.05v.04H608v-.01l-.1.06v.05h-.03l.04.1h.04l.02.01v.04h.03v-.03h.04l.03-.01.02.02.04-.08.02-.1.06-.1.05-.03h.1l.05-.03h.05l.04.02.04.05v.05l-.02.05-.1.12-.06.03-.03.05-.01.05.02.07.05.06.03.07-.01.08v.07l.1.2-.01.07-.02.04-.06.06-.02.03-.04.1-.04.04-.06.04-.04-.03-.08-.02h-.06l-.03.04-.31.04h-.1l-.08-.01-.08-.03-.06-.03-.02-.04h-.1z"/>
      <path d="m140.53 922.97-8.85-1.6-2.8-.9-11.6-5.35-2.5-.25-2.75.9-2.45 1.85-15.1-.35-5.65-2.55.85-2-1.95-.95-5-.95.4-2.65-1.9-1.1-2.15.9-4.6-2.45-2.2-1.95-1.9-.85.55-3.4-.2-1.45-2.15-3.2-2.5-.7 1.2-5.6h-2.85l-.05-1.7-4.05-1.9 2.75-6.2-6.2-4.9 2.85-3.4 9.9 7.95 1.05-1.55-2.9-2.4.3-1.2-.75-2.65.1-3.95 2-2.5 2.4 3 1 .65 2.55-3.05 2.25 1.5-4.8 6 7.05 2.6 3.65.65 3.05-.35 2.7-1.3 2.25.25 5.1-.55.35-1.85-2 .15-.05-1.7h-1.8l-3.9-3.3-2.35-3.75-1.7-.1-3.55-5.7-5.05-2.3-.25-1.85-1.45.2-1.55-.65v-5.85l.65-1.95-1.1-1.1.45-2.15v-9.7l-8.85-3.05-6.25-2.9.35-5.9.4-2.75 3.15-2.05 1.9 2 2.55-1 2.55 2.75-1.7 1 5.3 4.55 2.6-1.15 2.9 5.9 3.5-.3 4.55-1.9 2.7-.45 6.2-.1 3.8-1.15-.85-1.45 4.95-3.3 2.55 3.6 1.7 3.6.9 4.8-.05 2.5-1.3 12.25-.45 8.8-.55 7 .75 4.6 1.55 2.45 5.35-1.8.8 4.3 2 2.3 9.25 6.25 5.7-5.4-1.3-2.2 1.85-.95 1.4 1.25 7.8-7.5 2.8.8 3.25-9h31.05v4.45h2.7v2.3h-2.7v-.8l-4.8 3.35-.2 2.25-1.45-.2 1.9 5.6 2.2-.3 1.1.5-.6 2.1 1.9-.2v-1.55l1.85.1 1.5-.7.95 1.05 2.1-4.05.95-4.45 3.3-5.35 2.5-1.6 4.75-.25 2.75-.9 2.45-.05 2.05.95 1.85 2.6.2 2.5-1.15 2.5-5.3 5.85-2.55 1.6-1.7 2.2-.55 2.7 1.05 3.25 2.65 3.1 1.55 3.8-.65 3.9.35 3.25 4.35 10.1-.2 3.75-.9 1.65-3 2.95-1.35 1.9-1.9 4.4-1.65 2.25-3.15 1.9-1.95-1.05-4.25-1.05-3 .3-1.15 1.3-15.9 2.15-5 .2-4-.65-3.9-1.3-2.95-1.7-1.1-2.05-4.45.5z" map-type="inset-region"/>
    </g>
    <g region="0" long-name="Araluen" short-name="Araluen" value="1">
      <path d="m606.21 840.7.11.06h.3l.06-.03.05-.02h.05l.23.11.06.02.18.03-.01.04.12.05-.03.17-.04.07v.05l.08.02h.1v.02l.06.17v.09h.08l.15.08.26.07-.03.12.03.06v.09l-.03.07-.07.06h-.11l-.1-.03-.08-.04-.05-.01h-.09l-.2.07-.08.02-.45-.01-.12-.01-.11-.04-.03.06-.04.03-.16.06h-.11l-.06-.05-.05-.02-.06-.04-.02-.05-.01-.05-.12-.2-.12-.14-.2-.13-.04-.04-.03-.05-.06-.14-.12.05-.04-.08-.01-.13v-.06h-.03l-.06-.04-.13-.07-.11-.1-.1-.03-.07-.13-.16-.13.03-.06.03.02.13.1.03-.05h.01l.12.06h.05l.05-.03v-.03l-.08-.03-.05-.08.03-.08.14.09.03-.01.03-.06.06.05v.23l.1.13.06.05-.01.03-.01.06.04.02.08-.04.11-.1v-.01l.1-.1.03-.02.2-.04h.07l.2.02z"/>
      <path d="m88.83 914.72 5.65 2.55 15.1.35 2.45-1.85 2.75-.9 2.5.25 11.6 5.35 2.8.9 8.85 1.6-.45 1.8 6.2 2.35-1.5 8.6-1.9 3.4-.5 2.6 4.1.9 5.45.45-.45.85 3.1 8.25.45 4.55 3.7.15 7.45 4.15 13.05 3.15-1.45 6.15 1.4 2.75.45 2.6-.25 2.15-1.6 3.55-3.7 2.7-3.05.6-2.35-.25-4.75-1.4-4.2-2.25-2.35-.7-2.65-.1-1.95.45-9.6 3.3-4.7.85-22.4-.35-5.85-.45-5.65-2.15-1.25 2.95-1.9 1.8-8.05 3h-3.1l-2.35-.5-3.1-2.05-2.6-1-2.75-2.25-1.15-2.1-.8-2.7-5.6-9.7-6.05-7.4-10.2-6.6-2.1-1.95-1.55-2.3-2.7-7.1-6.35 2.55-1.6-4.15-.85-6.45-.1-2.8-1-.05-3-2.25-6.7-3.3-5.65-4.75-4.95-1.65-3.6-6.65-7.95-6.15 1.5-3.2 1.4.85 6.5 4.9 1.6-2.2.85.15 5.9 2.85 2.2.2 2.65-1.6-.1-1.9-4.05-1.35-2.2-3.75 1.55-4.25 6.65 4.4 1.6-.55 1.6-3 3.2 2.65-.65 5.5.1 6.05 5.8 6.3 2.65 2.5-.8 1.85-.5 3.05 1.95.75 4.4-2.15 5.45-5.05-.3-.3 4.75-4.65 2-1.1 9.7-2.4 3.9.1 10 1.1z" map-type="inset-region"/>
    </g>
    <g region="10" long-name="Nelson" short-name="Nelson" value="1">
      <path d="M426.6 97.8v-.42h-.13l-.03-.1-.04-.1-.02-.02.05-.04.03-.03-.31-.25-.05-.04-.45-.49-.04-.01-.45-.31h-.81l-.12-.1-.13-.08-.08-.03-.08-.03H423.64l-.06.03-.06.04-.03.07v.1h-.09l.03.07.05.22v.23l-.03.17.05.03.11.06.13.04h.15v.08l.02.16v.08l-.02.15-.02.08-.07.32-.02.12-.01.13v.18l.01.1h-.4l-.05.03-.06.08-.06.04-.13.04h-.1l-.02-.04h-.22l-.1.1-.07.45-.3-.05-.06-.13-.03-.03v-.06l.02-.08v-.18l.06-.08.03-.02.16-.2v-.01l.02-.05-.01-.2-.02-.04-.05.24-.12.2-.1.1h-.12l-.05-.04-.06-.17-.06-.1-.2-.2-.2-.3-.07-.24v-.16l.03-.13.09-.11.13-.16v-.01l.04-.05.15-.18.07-.03.2-.04.05.02.04-.06v-.04l.03-.02h.08l.02-.05.08-.07-.06-.01-.14.1-.13.06-.07.01h-.07l-.05-.03-.03-.03-.02-.07-.03.03-.05-.04.06-.04.01-.03-.01-.08-.03-.05.04-.05.04-.1v-.13l.06-.07.03-.13.03-.01.3-.07.1-.22.43-.7.09.07h.85v-1.44l-.01-.93h-.64v.11h-.3v-.58h-.93V90.34h.02v-.96h-.1v-1.45l.02.04.06-.01.21-.09h.28l.1.13-.01.04-.1.15-.05.06-.03.1v.05l.01.05.03.2-.01.05.02.07v.04l.04.04h.08l-.06-.07v-.1l.03-.18v-.08l-.01-.05v-.05l.04-.06.1-.05.07-.08.07-.03.2.08.12-.03.2-.1h.05l-.02.05-.14.1.01.05.22-.13.17-.04.13-.12.04.02.02.04h.07l.09-.07.09.04.08.02.22-.02.03-.06.1.03.03-.1.06-.02.22.02.19.1.18.18.1.02.07.06v.04l-.12-.02-.02.04.04.03.18.05h.3l.2.06.08.06h.1l.08.05.16.14v.07l-.04.16.02.08.05.08.18.18.06.15.06.09.08-.01.06-.04.07-.19.07-.08.06-.02.03.03.04.18v.16l-.05.22.03.05.07-.27-.01-.29-.02-.06-.1-.08-.08.03-.13.28-.05.05-.05-.03-.07-.2-.25-.24.02-.12.05-.06h.04l.07.02.05.06.04.02h.12l.09.03.1.06.1.02.02.02h.05l.05.02h.04l.05-.04h.05l.03-.02.05-.03.04-.01.15.03h.15l.2.01.08.01.04.04.03.05.33-.2-.03-.02-.01-.04v-.09l.03-.06v-.05l.02-.04.04-.04.04-.03.07-.05.14-.13h.03l.09-.05.08-.01h.14l.06.02.05.05.05-.05.14-.05-.19-.07h-.03l-.18-.03-.21.02h-.14l-.2.05-.07.03-.19.05h-.05l-.08.01-.08-.1h-.11l-.06-.05-.09-.22v-.03l.04-.03h.14l.07-.09-.02-.04.03-.05-.02-.02-.14.05h-.08l-.13-.1-.1-.19v-.1l.05-.1.17-.34.08-.08.07-.03.16.01.44.15.26.05.44.3h.08l.18-.05H429.61l-.05-.05-.05.01-.2-.01-.22.03-.07-.02-.3-.32-.03-.06-.01-.2-.12.1h-.1l-.08-.01-.4-.21h-.11l-.09-.11.11-.06.04-.04-.02-.07-.06.05-.11.05h-.2l-.05-.05v-.06l.02-.04.03-.14-.02-.06v-.12l.02-.1.02-.06.06-.06.01-.05-.07-.06h-.2l.05.03h.1l.06.05-.06.09-.03.06-.01.09V86l-.07.14-.07.08-.14.14-.14.2-.1.1-.1.07.02.07.02.04v.05l-.04.03-.06-.04-.13-.13-.07-.09-.03-.1v-.07l.04-.06v-.1l.01-.07-.05-.03.12-.27.04-.24-.02-.08.01-.17.1-.15.06-.38.16-.6.14-.48.1-.18.12-.3.1-.47.1-.5.07-.8.02-.17.04-.04.01-.2-.04-.45-.08-.3-.28-.24-.02-.12-.18-.32-.2-.08-.04.04-.2.04-.17-.03-.06-.06-.04-.1-.1-.06-.04-.09-.21-.12-.02-.09.05-.08.03-.17-.2.08-.02-.09-.08-.1v-.1l-.05-.16-.1-.17.02-.1-.2-.28-.06-.22v-.07l.09-.07v-.09l-.08-.12-.01-.18.08-.59.25-.19.18-.2.04-.13.07-.07.19-.12h.03l.06.05v.26l.1-.14v-.03l-.06-.12v-.06l.05-.06.17-.04h.1l.08-.05.09-.01.1-.06.05-.02.07-.03.08-.07.08-.05h.04l.06-.04.25-.17.1-.08.18-.02.1-.04h.1l.24-.1.3-.08h.04l.13.12.17.08.05.06v.05l-.05.08-.1.04-.02.13.19.44.12.15.26.2.47.2h.06l.2-.1.16-.03.2-.33.07-.06.13-.02.13-.13.45-.17.31-.04.23.1 1.07.02.1.06.06.1v.07l-.08.3.03.21.1.31-.04.08-.06.04h-.02l-.01.12.05.01.27.25.37.23.56.09h.22l.4-.1.26-.14.31-.34.12-.3.08-.07.07-.03.1.02.16.1.2.05.15.1.12.01.06.05.02.16-.05.14.01.2-.01.12.19.25.08.15.13.15.3.32.24.13.2.18.38.13.11.06.45.4.16.22.18.35h.21l.07.11.04.03h.08l.42.25.06.08-.02.08-.02.05-.07.07-.06.04-.16.08-.06.06-.3.23-.12.05-.1.07-.03.05-.02.1-.05.03-.05.02h-.1l-.1-.02-.15-.1-.03-.04-.13-.06-.05-.01-.06-.03h-.12l.08.05.07.01.14.05.1.1.24.1.19-.04.1-.08-.01-.03.05-.06h.05l.02.03v.23l.09.44-.02.13-.11.16-.19.18-.06.04-.07.16-.02.08.04.1.1.1.06.13v.04l-.06.12v.07l.05-.05h.01l.05-.14.03-.05h.03l.05.01.2-.02.13-.05.14-.08.12-.02h.13l.03.03h.14l.12.02.02.02.1.01.03-.01h.05l.16.05.05.05.03.07v.04l-.02.05-.1.1-.14.1-.02.02-.08.03-.1.09-.15.13-.06.09-.02.1.01.09.04.1.05.06.12.1-.04-.09-.08-.09-.04-.08v-.13l.02-.07.03-.05.14-.14.16-.1h.06l.03.01-.01.07-.09.12-.01.05v.2l.05.06v-.17l.01-.12.05-.08.05-.06h.1l.09.07.02-.01-.03-.06-.11-.09-.02-.04.03-.06.13-.13.03-.06V83l-.11-.11-.06-.03-.16-.04-.7-.08-.33.02-.17.04h-.18l-.05-.07.03-.15.21-.16.2-.26.03-.25-.03-.1-.02-.05-.03-.18-.02-.19.02-.08.04-.1.09-.1.1-.04.1-.03.2-.1.16-.04.12.01-.02-.06v-.06l.09-.05.07-.06.13-.07.1-.06.09-.1.07-.06.06-.03.13-.03.39-.06h.1l.08.02.15-.13.53.58.07.06.6.22.28.16.24.32.1.42.1.61.15.5.02.48-.02.38-.01.04.13.38.25.25.34.24.13.23v.21l-.09.23-.35.43-.35.36-.05.07-.2.26-.24.3-.08.1-.08.23.03.07.05.1.11.13.1.05.26.14.07.1-.03.24-.02.17.01.17.04.15.04.11.1.16.16.16.19.12.1.14.1.22.12.36.1.1.15.07.29.07.13.07.12.19.17.2.15.1.17-.06.2-.25.18-.07.22.03.14.16.08.22v.21l-.09.2-.13.14-.14.06-.2.03-.22-.02-.19-.05h-.14l-.13.1-.06.17.01.14.06.12.12.08.17.06.13.07.08.12.04.14-.02.1-.04.12-.05.07-.13.05-.23-.04-.18-.03-.12.05-.12.07-.09.11-.02.13V93l.04.17.07.08h.1l.29-.06.16-.04.15.02.2.09.09.11.04.14v.39l.03.17.09.11.14.05.1-.09.16-.23.13-.16.18-.06.17.05.21.1.16.17.08.14-.01.18-.06.14-.06.07h-.14l-.2-.07-.2-.07-.25.06-.13.07-.11.15-.04.17.03.2.1.12.15.08.22-.01.16-.09.11-.18.07-.15.15-.07.19.02.06.04.04.09-.03.12-.12.09-.19.17-.03.16v.13l.08.13.07.04h.1l.19-.1.16-.07h.15l.17.02.11.08.05.1v.1l-.02.1-.07.08-.25.1-.18.08-.1.09-.06.16.02.2.07.15.13.09h.11l.13-.09.14-.23.1-.09.21-.1.17-.03h.2l.18.06.12.08.07.1-.02.12-.07.1-.13.04-.16.06-.1.12-.03.14.02.13.04.1.08.09h.13l.15-.07.17-.07.13-.03.15.04.17.08.1.12.08.15v.13l-.03.15-.11.14-.13.09-.05.09.04.29.1.12.11.08.15-.01.19-.06.13-.12.13-.1.14-.07.09.01.1.06.02.11-.02.16-.1.17-.15.14-.07.13-.04.14.05.14.1.1.14.11.11.13.05.12.03.12-.02.24-.08.3-.08.17-.08.1-.1.03-.22-.04-.19.04-.16.06-.17.1-1.84-.15-1.71.31-1.17-.78-.79 1.19-.65-.44-.24-1.12.52-.3-.64-.97-.94-.33-.49.55-.2.77.04.9-.47.7-1.64-1.76-.2-1.04v-2.33l-.75.07-1.48 1.01v2.3h1.41v1.89h-7.03v.9l-.97-.23-.11-.41-1.63-2.13-.63-.45-.14-.11-.07-.05-.13-.05-.27-.08-.2-.15-.16-.23-.12-.2-.01-.03-.13-.21-.13-.24zm-.93-21.57-.14-.07-.02-.07.03-.18-.04-.03.02-.06.1-.08.2-.05.12.13h.08l.01.03-.04.03-.07.11-.08.06-.08.17zm.78-.57h-.02l-.01-.03.07-.05.06-.02h.09l.02.02-.12.05zm.3-.14-.05-.04.05-.1.16-.18.14-.1.12.02.08.05.04.06-.05.08-.2.05-.25.16z"/>
      <path d="m129.01 732.18-.02-4.22h-1.37l-.28-1.06-.43-.96-.15-.22.46-.37.31-.36-3.13-2.49-.44-.4-4.48-4.88-.5-.13-4.4-3.1h-1.8l.02-.06-6.39.04-1.23-.97-1.3-.8-.73-.33-.79-.22-.82-.1-.8.01-1.38.13-.66.21-.54.45-.3.63-.05.7.05.33h-.89l.25.7.48 2.25.11.87v.94l-.06.46-.28 1.65.42.3 1.17.63 1.26.36.88.08.58-.05.12.78.08 1.6-.03.8-.17 1.57-.15.8-.68 3.18-.23 1.2-.1 1.24v1.2l.02.66.13 1h-3.45l-.57.03-.53.3-.6.8-.56.32-1.37.4-.95-.05-.19-.36h-2.24l-1.06 1.12-.66 4.4-2.99-.46-.54-1.29-.29-.33v-.58l.14-.8-.07-1.09.14-.73.51-.8.3-.15 1.64-1.96-.07-.22.22-.5-.08-1.97-.22-.35-.5 2.31-1.15 1.97-1.08 1.1h-1.09l-.58-.44-.5-1.68-.66-1-2.03-2.04-1.89-2.9-.73-2.4-.07-.89v-.73l.36-1.3.86-1.17 1.3-1.6-.07-.08.5-.5 1.44-1.83.73-.29 2.02-.37.44.21.43-.58.07-.44.3-.2.76.04.17-.56.85-.67-.63-.14-1.37 1.1-1.3.58-.73.08-.72-.07-.5-.22-.3-.29-.22-.73-.29.3-.43-.37.6-.4.08-.39-.17-.8-.26-.5.38-.42.46-.97v-1.4l.56-.68.34-1.27.23-.14 3.1-.7.87-2.18 4.35-7.03.9.7h2.5l6.02-.04-.06-14.3-.05-9.36-6.42.03.01 1.13-2.89.01-.02-5.82-9.42.02-.02-4.8h.04v-9.37h.22l-.05-9.54h-.93l-.08-13.92v-.58l.26.35.65-.07 2.1-.88 2.02-.08.72.07 1.02 1.32-.15.36-1 1.53-.44.58-.36 1.02v.51l.15.43.3 2.12-.15.43.3.65-.08.44.43.36h.76l-.54-.65-.08-.73.15-.29.21-1.82v-.8l-.14-.5.07-.52.35-.5.95-.59.81-.78.63-.24 1.95.72 1.23-.22 2.02-1.02.51.07-.15.36-1.44 1.1.15.44 2.16-1.25 1.66-.44 1.31-1.17.43.15.21.43.66.08.93-.8.86.4.88.18 2.17-.15.28-.66 1.1.3.21-.89.57-.28 2.24.21 1.88 1.1 1.82 1.65 1.01.22.65.58.08.43-1.3-.14-.15.37.36.3 1.81.5 3.04.06 1.95.57.87.51 1.01.07.8.44 1.52 1.45.07.72-.43 1.53.22.88.44.72 1.88 1.82.51 1.52.65.88.8-.08.57-.37.73-1.89.71-.87.58-.15.3.3.36 1.81v1.6l-.43 2.2.32.44.62-2.7-.08-2.85-.22-.58-.94-.87-.87.3-1.29 2.83-.5.51-.5-.36-.67-1.89-2.46-2.47.14-1.16.57-.59.37-.07.72.22.51.58.36.22h1.16l.93.28.95.58 1.1.22.2.21.43-.07.51.3h.44l.5-.38.5-.07.25-.2.55-.3.36-.08 1.52.36h1.52l2.02.06.73.14.43.36.27.54 3.34-2-.29-.29-.14-.36.07-.87.21-.58v-.5l.22-.45.43-.44.43-.22.65-.5 1.44-1.32h.22l.94-.5.8-.16 1.44.07.58.22.5.47.51-.55 1.34-.45-1.85-.72-.29-.07-1.8-.2-2.17.22-.58-.07-.8.07-2.02.44-.65.3-1.88.51-.52.1-.85.04-.72-1.08-1.16.14-.58-.58-.87-2.18.06-.36.3-.22 1.37-.08.72-.87-.15-.44.3-.44-.23-.2-1.44.5-.72-.07-1.38-1.02-1.02-1.8.15-1.1.46-1 1.7-3.37.72-.73.72-.29 1.6.06 4.4 1.45 2.61.57 4.41 3.05h.8l1.8-.59 2.43.11.85-.16-.46-.39-.55.1-1.9-.17-2.32.37-.65-.22-3.04-3.26-.3-.58-.09-1.98-1.13 1.03-1.09.01-.8-.15-3.9-2.1-1.16-.07-.87-1.02 1.08-.58.36-.43-.15-.65-.57.5-1.16.44-.93.07-1.09-.14-.5-.44v-.57l.21-.37.28-1.38-.14-.66v-1.23l.21-1.02.21-.5.58-.59.13-.52-.7-.65-1.99.1.46.27h.95l.65.5-.65.81-.29.65-.08.88-.06 1.6-.65 1.46-.72.8-1.37 1.31-1.44 2.11-.87.87-1.08.81.15.65.3.44-.08.51-.36.21-.66-.36-1.3-1.3-.65-.87-.29-1.03.07-.65.3-.65v-1.02l.12-.66-.5-.33 1.22-2.72.36-2.33-.22-.87.14-1.68.94-1.45.66-3.8 1.56-6.1 1-3.46 95.81-.19v176.61l-53.47-.46.01 8.97-9.72-2.3-1.14-4.12-16.29-21.28-6.27-4.52-1.4-1.12-.65-.42-1.37-.57-2.63-.82-2.09-1.49-1.5-2.24-1.22-2-.13-.3-1.29-2.15-1.34-2.39z" map-type="inset-region"/>
    </g>
    <g region="5" long-name="Drysdale" short-name="Drysdale" value="1">
      <path d="m425.77 97.5-.11-.03h-.08l-.05.01-.05.02-.18.1-.08.02h-.09l-.05.02-.05.02h-.07l-.04.2h-.02l-.57-.19h-.03l-.1-.01v.13H424.06l-.07-.03-.09-.05-.05-.02h-.04l.07-.33.02-.08.01-.15v-.24l-.01-.08.17-.02.14-.02.14-.04.08-.03.27-.1.07-.03.1-.08.23.27.06.05.11.06.4.2.04.02.06.05.08.04.04.03-.06.12v.06l-.02.08z"/>
      <path d="m120.62 729.08-1.09-.24h-.76l-.5.11-.53.22-1.84.97-.78.17-.89.1-.49.13-.48.22h-.7l-.46 1.96-.19-.05-5.65-1.84-.32-.07-.99-.04.04 1.32-.9.01-.7-.07-.65-.2-.87-.5-.55-.26-.37-.09.68-3.18.15-.8.17-1.58.03-.79-.08-1.6-.12-.78 1.75-.15 1.36-.24 1.42-.37.85-.3 2.71-1.06.7-.3.92-.76 2.3 2.65.64.53 1.1.62 4.05 1.94.38.25.54.56.83.4.42.3-.67 1.15v.57l-.16.86z" map-type="inset-region"/>
    </g>
    <g region="1" long-name="Blain" short-name="Blain" value="1">
      <path d="m422.15 99.78.03.01.04.05v.04l-.04.04-.03.01-.05-.04v-.08l.02-.03zm.15-.01-.03-.03.03-.04.03.03zm2.02.94-.63-.43-.22-.06-.2-.03-.27.05-.05-.3h-.28l-.2-.04-.1-.04-.03-.03.05-.08v-.04l-.07-.12-.1.06h-.03l-.02-.03-.02-.05-.03-.12v-.1l.02-.05.02-.08.03-.18.02-.3.06.12.3.05.06-.44.1-.12h.23l.02.04h.1l.13-.03.06-.04.06-.08.05-.03h.4v-.1l-.01-.07v-.24l.03-.12.04.01.05.02.1.05.06.03h.16v-.13h.1l.02.01.57.18.02.01-.05.2-.04.17-.06.26-.02.05-.03.06.17.11.06.07.23.3-.14.11-.1.07-.1.06-.11.05-.12.07h-.04l.06.12.04.1.02.1v.19l-.01.08-.02.08-.05.12-.13.21z"/>
      <path d="m84.43 751.9.3.14.36.5v.36l-.36.44-.29.08-.5-.44v-.73l.2-.36zm1.52-.08-.29-.29.3-.37.28.22zm20.21 9.37-6.28-4.3-2.2-.59-2.02-.3-2.75.51-.46-3-2.86.03-1.97-.42-1.02-.36-.29-.36.51-.8v-.37l-.68-1.19-.92.54h-.35l-.22-.22-.22-.58-.29-1.17v-1l.21-.52.21-.73.26-1.84.24-3.08.54 1.3 3 .45.65-4.4 1.06-1.12h2.24l.2.36.94.05 1.37-.4.56-.32.6-.8.53-.3.57-.03h3.45l-.13-1-.03-.67v-1.19l.11-1.24.23-1.2.37.1.55.24.87.5.65.21.7.07h.9l-.04-1.33 1 .04.31.07 5.65 1.84.2.05-.46 1.97-.4 1.7-.6 2.6-.18.55-.32.58 1.64 1.12.64.67 2.25 3.07-1.4 1.1-.99.67-1.04.6-1.06.51-1.2.7-.4-.02.67 1.17.37 1 .21 1 .08 1.24-.06.7-.13.77-.24.83-.5 1.13-1.29 2.17z" map-type="inset-region"/>
    </g>
    <g region="3" long-name="Brennan" short-name="Brennan" value="1">
      <path d="m424.32 100.7.16-.26.13-.21.05-.12.02-.08.01-.08v-.19l-.02-.1-.04-.1-.07-.12h.05l.12-.07.1-.05.1-.06.1-.06.14-.11-.22-.31-.06-.07-.17-.11.03-.06.02-.05.06-.26.04-.17.05-.2.04-.2h.07l.05-.02.05-.01.09-.01.08-.02.18-.1.05-.02h.13l.1.02-.04.21v.34l-.02.13.08.02.09-.01.13-.04v.05l.01.02h.03l.04.04h.02l.01.03-.06.01-.06.03-.02.05-.03.02-.07.02-.03.05-.07.04.1.06.05.12h.34l-.01.03h.14v-.03l.03-.1.03-.13h.12l.04.02v1.22h.06v.1l-.07.03-.06.06v.07l.02.06-.04.05-.08.02h-.07l-.02.01-.11.12-.04-.03v-.06h-.06l-.12.08-.06.03-.08.02-.1.04-.01.02-.03.08-.06.07-.13.03-.11-.03-.14.03-.06.04-.05.09-.05.18-.17.27z"/>
      <path d="m106.16 761.2 1.54-2.65 1.3-2.17.5-1.13.23-.83.13-.77.06-.7-.08-1.25-.2-.99-.38-1-.68-1.17.41.01 1.2-.69 1.06-.52 1.04-.59 1-.68 1.4-1.09-2.26-3.07-.64-.67-1.64-1.12.32-.58.18-.56.6-2.59.4-1.7.45-1.97.46-1.97.7.01.48-.22.5-.13.88-.1.78-.17 1.84-.97.52-.22.51-.12.76.01 1.1.24-.49 2.16-.09.8v2.58l-.1 1.34.81.14.84-.09 1.35-.37-.1.52.18.21.3-.06.37.41h.26l.08.33-.59.08-.66.31-.13.46-.32.2-.66.23-.34.48-.74.43 1.03.57.47 1.21h3.4l-.08.3h1.46l.01-.32.21-.98.34-1.25h1.22l.35.13.05 12.18.62.02v1.01l-.76.27-.58.65.01.65.21.66-.42.51-.8.15h-.73l-.2.15-1.09 1.16-.37-.29-.03-.63-.62.12-1.15.73-.58.3-.87.15-.95.4-.15.21-.29.77-.56.74-1.29.31-1.18-.25-1.38.26-.54.36-.54.92-.48 1.8-1.72 2.76z" map-type="inset-region"/>
    </g>
    <g region="9" long-name="Karama" short-name="Karama" value="1">
      <path d="M419.71 90.62v-.14l.01-.01.1.02.12-.39v-.18l-.4-.52 2.27-.02h.1v.96h-.02V91.75h.94v.58h.29v-.11h.64v.93l.01 1.43h-.85l-.1-.06-.13-.12-.6-.23-.2-.07-.22-.1-.71-.26V92.92l-.01-.57-.01-.06-.03-.05-.94-.55-.26-.15-.37-.2V91.1l-.04-.07.05-.02.06-.01.03-.02.16-.18.03-.02.07-.04.03-.03.04-.05z"/>
      <path d="m60.07 660.3-.03-1.42.1-.1 1.04.23 1.18-3.88.06-1.8-4.05-5.22 22.67-.17h.93l.05 9.54h-.23l.01 9.37h-.04l.02 4.8 9.42-.02.02 5.82h2.9l-.02-1.14 6.42-.03.05 9.36.06 14.3-6.02.04h-2.5l-.9-.7-1.38-1.2-5.9-2.25-2-.73-2.26-.89-7.17-2.74-.06-7.57.02-.56-.05-5.73-.13-.62-.25-.45-9.4-5.57-2.6-1.44-3.66-1.99v-2.04l-.08-.38-.38-.7.55-.25.53-.09.33-.2 1.58-1.76.32-.25.74-.37.31-.24.38-.5z" map-type="inset-region"/>
    </g>
    <g region="13" long-name="Sanderson" short-name="Sanderson" value="1">
      <path d="M420.96 93.73v.03l-.36-.14-.6-.23-.05-.01.06-.16.01-.05h-.95v.08l-.43-.03-.2-.02h-.05l-.81.01v-.17h-.09v-.07l-.03-.04-.05-.02-.04.01h-.06l-.02-.03h-.08v-.17l-.11-.02-.09-.07h-.28v-.55l-.01-.59.08-.02.14-.05.09-.05.11-.06h.55l.74-.01v-.06l.05-.22.16-.3-.33-.19-.12-.13.14-.13.03-.11.04-.11.12.03.13.04.23.03h.04l.15.02.1.03.05.03.13.1.36.29.06.04-.04.05-.03.03-.07.04-.03.02-.16.18-.03.02h-.06l-.05.03.04.07V91.34l.37.2.26.15.94.55.02.05.02.06V92.98z"/>
      <path d="m72.5 691.47.03.26-3.62-1.37-5.98-2.3-.54-.16.68-1.6.1-.46-9.5.04.01.76-4.35-.35-2.03-.15h-.5l-8.1.13.01-1.73-.83.01-.03-.68-.35-.48-.46-.14-.4.1-.6-.08-.23-.27H35v-1.72l-1.09-.2-.85-.62-2 .01-.86.03-.02-3.62v-1.92l-.05-5.94.8-.22 1.38-.5.9-.44 1.14-.65 5.05-.03.47-.05 7.34-.03.01-.63.5-2.15 1.67-2.92-3.3-1.94-1.25-1.3 1.4-1.36.3-1.08.38-1.15 1.27.38 1.27.4 2.3.3h.4l1.45.2 1.01.28.53.3 1.3 1 3.63 2.86.58.47-.38.5-.3.24-.75.37-.32.25-1.58 1.75-.33.21-.53.1-.55.23.38.71.07.38.01 2.04 3.65 2 2.61 1.43 9.4 5.57.25.45.13.62.05 5.73-.02.56z" map-type="inset-region"/>
    </g>
    <g region="7" long-name="Fong Lim" short-name="Fong Lim" value="1">
      <path d="m416.35 95.02-.13-.02-.02.02-.03-.02h-.27l-.02-.03h-.1l-.02.05-.07.07-.03-.07v-.05l.1-.68.03-.19.03-.07.1-.08.3-.17.56-.27-.04-.12-.01-.03v-.73h.28l.09.07.1.02v.17h.09l.02.02.06.01h.09l.03.05v.07h.09v.17h1.06l.44.04v-.07h.94v.04l-.07.16.05.01.6.23.36.14v-.03l.71.28.23.09.2.07.59.23.14.12-.44.7-.08.22-.31.07-.03.01-.03.13-.06.06v.15l-.04.1-.04.03.03.05.01.08v.04l-.07.04-.07.16-.06.05-.05.12-.16.17-.32.25-.17.03-.44-.05-.05.06-.14.04-.05-.04-.02-.06-.2-.12-.14.02-.08-.03-.02.25-.18.2-.06.04-.08.02-.04.02h-.03v-.05l-.08.08-.05.04-.04.01v.34l-.77-.14-.85-.65 1.35-.51v-.16l.2-.17.03-.05.06-.07.16-.06h.04l.15-.04h.04l.1-.01h.23l.04-.03v-.02l.07-.07.14-.1.06-.1.01-.06.1-.1.06-.02.1.03-.01-.1-.01-.02h-.08l-.2.15-.04.02h-.1l.05.05.01.04-.03.08-.03.04-.05.05-.14.05h-.28l-.16.03h-.15l-.05-.04h-.03l-.1.05-.08.02h-.06l-.12-.04-.11-.1-.06-.13-.01-.12-.01-.06-.05-.08.05-.04.03-.06-.01-.03-.07-.05h-.03l-.1-.14-.03-.08v-.2l.05-.05.02-.04.03-.03h.04v-.15l-.05-.05v.06l-.04.03.02.03v.04l-.1.12h-.04l-.04-.02-.03.01-.02.07-.22.13.05.06h.04l.03-.08h.08l.06.05v.1l.07.06-.02.08.1.12.03.14.04.16v.05l-.04.06-.06.05-.15.05-.2-.06-.25-.18-.28-.16-.1-.1-.2-.07-.08-.08-.15-.03-.13-.09-.22-.1.07-.32.05-.05.14.03.21-.01.2-.2.02-.1-.02-.02-.05-.02-.1.16h-.1l-.04.02h-.16l-.16-.07-.04.01h-.09l-.08-.03-.06-.07-.03-.04-.16-.08-.03.07-.03.12v.23h.01l.1.05.07.06v.03l.04.02.01.04-.07.2v.1l-.08-.02z"/>
      <path d="m26.42 704.3-1.29-.2-.2.18-.27-.2-.43-.03-1.95.16-.3-.1-.2-.28h-1.1l-.17.48-.68.68-.28-.68v-.45l1-6.88.28-1.8.3-.78 1.04-.76 2.9-1.77 5.65-2.64-.44-1.19-.05-.29-.03-3.3v-3.95l.85-.03h2l.85.61 1.08.2L35 683h.82l.23.27.6.08.4-.1.46.14.35.48.03.68h.83v1.72l8.08-.14.51.01 2.03.15 4.35.35v-.76l9.48-.04-.09.46-.68 1.6.54.16 5.98 2.3 3.62 1.37-.03-.26 7.17 2.74 2.25.9 2 .72 5.91 2.25 1.38 1.2-4.35 7.03-.88 2.17-3.09.71-.23.14-.34 1.27-.56.67v1.41l-.46.97-.38.42.26.5.17.8-.08.38-.6.41-.72 1.61-.58.5-.57 1.17-1.6 1.68-3.17 2.48-1.66.36-4.49-.57-.43.6-1.38.42-.58-.43-.2-.58-1.97-1.16-1.37.22-.82-.33-.19 2.51-1.8 2.04-.59.3-.83.23-.42.21-.27-.09v-.44l-.83.81-.49.38-.4.18v3.38l-7.68-1.45-8.54-6.47 13.55-5.13.04-1.57 2.02-1.68.22-.5.65-.67 1.51-.66h.44l1.52-.43.43.07 1.01-.15h2.24l.44-.3v-.22l.65-.65 1.37-1.02.65-1.03.14-.58.94-.94.58-.22.95.26-.02-1-.14-.14-.77-.09-1.9 1.55-.5.22-.98.07.54.44.07.36-.29.81-.28.43-.58.44-1.37.51-2.75.08-1.66.22-1.45.01-.58-.37h-.29l-.87.44-.86.22h-.66l-1.16-.36-1.15-1.09-.58-1.23-.08-1.17-.14-.58-.5-.88.5-.36.36-.58-.15-.29-.65-.5-.29-.08-1.09-1.38-.22-.8.07-1.94.43-.54.15-.36.36-.3.32.03.03-1.55-.5-.5v.57l-.36.3.22.28-.07.44-1.02 1.17-.35.07-.37-.29-.29.15-.29.65-2.16 1.31.5.6.44.06.3-.8h.78l.58.5v.88l.66.72-.15.8.95 1.16.36 1.46.37 1.6v.44l-.36.57-.58.52-1.59.52-2.03-.58-2.46-1.82-2.75-1.6-1.02-1.02-2.03-.72-.72-.73-1.59-.36-1.24-.87-2.23-1 .71-3.2.51-.45 1.37.22 2.17-.08 1.95-1.9.22-1.02-.22-.29-.49-.19-1.03 1.65-1-.07-.37.21-.72.01-.09-.07-.82.07-1.58-.7-.4.12-.85-.03-.8-.3-.67-.67-.25-.45-1.6-.7-.32.64-.26 1.2-.03.7.07 1.6.03.1.94.4.7.56-.04.37.44.17.16.42-.69 2.06-.02 1.01-.78-.26z" map-type="inset-region"/>
    </g>
    <g region="12" long-name="Port Darwin" short-name="Port Darwin" value="1">
      <path d="m416.35 95.02-.04.2.06.01-.03.12h-.04l-.01.06h.13l.02.1h-.05l.01.04h-.03l.01.04h.03v.07h-.02v.03l.05.11-.04.08v.1h-.01l.07.17-.48.2-.2-.04.03-.1.03-.08-.03-.19h-.1l-.03-.02-.02-.07-.03-.05-.07-.04-.04-.05-.01-.02-.09-.06h-.03l-.02-.02-.02-.04-.03-.01-.07-.1-.06-.02h-.1l-.07.04h-.03l-.09.04h-.03l-.04-.03h-.1l-.04.01-.04-.04-.02.02-.05-.02-.08.03-.02.05-.04-.02-.07-.05-.02-.04v-.04h-.03l-.03-.04.01-.02.03-.02.01-.05v-.07l-.02-.03-.07-.06h-.11l.02-.08.05-.03.13.03h.05l.08-.04.01-.02v-.08l.1-.04.04-.05.02-.04v-.07l.02-.01.05.03h.02l.1.04h.04l.03.01.03.04v.05l.06.02h.12l.03.01-.03.08h.04l.03.05h.05l.03.03.07-.07h.02l.02.06-.05.02.07.11-.01.03.07.05.03-.02v-.1l.03-.04v-.08h.05l.1.03.03.07.07-.07.01-.05h.12l.02.03h.26l.03.02.02-.02z"/>
      <path d="m26.42 704.3-.35 2.07.52.1-.2 1.2-.5-.09-.06.6h1.14l.17.12.15.92h-.4l.06.36-.29.04.07.45.3-.04.1.66-.29.04-.06.27.5 1.12-.35.83.07.88-.19.07.71 1.68-4.79 2.05-1.97-.39.23-1.02.34-.78-.32-1.88-1.07-.02-.25-.23-.18-.68-.3-.54-.65-.39-.45-.43-.13-.24-.85-.59-.3-.02-.24-.17-.18-.45-.27-.13-.69-.99-.6-.19-1.07.03-.67.44-.3-.02-.86.35-.36-.06-.39-.23-.92.07-.45.1-.4-.4-.2.13-.52-.17-.78.25-.2.55-.42-.19-.7-.48-.23-.4.13-.46-.34-.03-.3-.35.07-.2.3-.2.13-.46v-.72l-.22-.3-.68-.59-.89.01-.2-.13.2-.73.46-.28 1.31.28.47-.07.77-.33.16-.17.01-.7-.07-.12.96-.36.46-.53.18-.42.08-.65.16-.17.46.31.23.02 1 .4.44-.05.27.2.26.4.08.44.6.18 1.13-.02.37.17-.3.76.33.06.33.43.51.07.31.3.67-.7h.2l.17.6-.46.21.74 1.1-.14.21.7.6.34-.26-.13-.4.1-.55.27-.47.11-.36-.02-.38.46-.12 1 .38.27.68.68-.68.16-.48h1.11l.2.28.3.1 1.95-.16.43.03.26.2.21-.19z" map-type="inset-region"/>
    </g>
    <g region="6" long-name="Fannie Bay" short-name="Fannie Bay" value="1">
      <path d="m415.66 95.02-.1-.04-.04.01v.04l-.01.04-.03.04v.1l-.03.02-.07-.05.01-.03-.07-.1.05-.03-.02-.06h-.02l-.07.07-.03-.03h-.05l-.03-.05h-.04l.03-.08-.03-.02h-.12l-.06-.01v-.05l.02-.01.05-.08.13-.17.03-.06.05-.1.02-.06-.04-.1-.01-.05v-.05l.04-.07.09-.21.03-.13.04-.09.02-.1.01-.08.02-.02v-.09l-.05-.08v-.04l-.05-.04v-.09l-.03-.02V93l-.08-.06-.13-.37-.12-.22-.11.02-.22.11-.21.06-.05-.03.01-.15-.03-.1-.14-.15v-.05l.05-.06.08-.06h.14l.08-.05.08.01.22.1h.13l.06.04.07.04.1.02.16.1.1.09.05.05.03.01h.03l.02-.07.02-.1.05-.07h.22v-.03l-.07-.05.24-.26.02-.05.06-.23v-.1l.04-.07v-.02l.02-.1h.16v.03h.1v.07h.24V93.04l.01.32v.03l.05.12-.57.27-.29.17-.1.08-.03.08-.03.18-.1.68z"/>
      <path d="m19.55 704.31-.99-.38-.46.12.02.38-.1.36-.28.47-.1.54.13.41-.35.25-.69-.59.14-.2-.74-1.1.46-.22-.18-.6h-.19l-.67.7-.3-.3-.52-.07-.33-.43-.34-.06.31-.76-.37-.17-1.13.02-.6-.18-.08-.45.21-.13.52-.82 1.3-1.68.34-.59.47-.98.16-.65-.38-.9-.08-.55.03-.5.35-.73.9-2.1.36-1.28.33-.92.23-.95.14-.84.12-.2.04-.87-.46-.82v-.39l-.5-.44-.08-.88-.22-.22-.06-.46-.76-.62-1.37-3.7-1.17-2.19-1.08.15-2.24 1.17-2.09.58-.44-.36.07-1.45-.29-.95-1.38-1.53v-.5l.43-.66.87-.59 1.38.07.8-.5.78.06 2.25 1.02 1.22-.08.6.44.71.36 1.08.3 1.53.86 1.1.95.38.54.3.11.33-.08.2-.65.22-1.02.5-.65 2.17-.08.07-.2-.72-.52 2.34-2.6.2-.56.64-2.3.06-.94.35-.7-.04-.23.22-.98 1.58.03v.23h1.06v.77h2.34l.01 1.87.05 5.94v1.92l.02 3.62.01 3.94.03 3.31.05.3.44 1.18-5.65 2.64-2.9 1.77-1.05.76-.29.77-.28 1.81-1 6.88z" map-type="inset-region"/>
    </g>
    <g region="8" long-name="Johnston" short-name="Johnston" value="1">
      <path d="M416.72 91.49V90.9l.06-.04.17-.08.1-.05.33-.1v-.1l-.04-.11.01-.04.1-.07.01-.07-.01-.05-.04-.02h-.05l-.05-.05v-.04h.19l.06-.03.05-.05.06.01.08.08.15-.13.02.03.15.08.29.09-.03.1-.14.14.13.13.33.2-.17.29-.05.21v.07h-1.28l-.12.07-.1.05-.13.05z"/>
      <path d="M30.12 669.02V663.16l.58-.4 1.7-.86 1.08-.48 3.27-1-.09-1-.36-1.1.14-.44.94-.65.15-.73-.15-.44-.36-.29h-.5l-.52-.43.12-.39.26.06 1.01-.03.52-.07.61-.33.47-.45.68.1.73.82 1.5-1.29.22.28 1.55.8 2.86.88-.3 1.08-1.4 1.36 1.25 1.3 3.3 1.94-1.67 2.92-.5 2.15v.63l-7.35.03-.47.05-5.05.03-1.14.65-.9.43-1.39.51z" map-type="inset-region"/>
    </g>
    <g region="11" long-name="Nightcliff" short-name="Nightcliff" value="1">
      <path d="m417.04 90.04.04.03h.05l.07-.08v-.1l.03-.01.1.15-.01.05-.01.04.05.05h.05l.03.02.02.05-.02.07-.09.07-.01.04.03.1.01.1-.33.11-.1.05-.17.08-.06.04v.4h-.24v-.07h-.1v-.03h-.16l.04-.2v-.03l-.05-.05-.03-.01-.05-.06h-.05l-.1-.04-.04-.03-.02-.03v-.17l-.07-.04-.02-.03-.02-.06-.02-.04-.01-.05.03-.04.02-.05.1-.03h.02l.05.04.07-.01.02-.02.07-.1.03-.03-.01-.02.02-.03h.05v.01h.06l.02-.01.07-.02h.02l.05-.06.02-.04.03-.02h.08l.04.02.01.03.05.04h.04l.04.02.07-.02.03.02h.13z"/>
      <path d="m33.32 654.55.44.28h.43l.73-.8-.08-.94.43-.22 1.02 1.52-.17.56-.12.4.51.42h.51l.36.3.15.43-.15.73-.94.65-.14.44.36 1.1.1 1-3.28 1-1.08.48-1.7.86-.58.4v3.98l-2.35.01v-.78l-1.06.01v-.23l-1.58-.03.38-2.05-.07-.22-.42-.55-.3-.09-.52-.54-.48-.1-.9-.35-.52-.33-.14-.26.03-1.37-.1-.32-.67-.42-.2-.27-.19-.66-.22-.38-.08-.49.34-.4.15-.45.96-.32.28.01.43.32.72-.1.24-.15.65-.94.3-.36-.1-.16.21-.39.47.01.14.14.46.07.3-.22.62-.12.27-.13.41-.47.27-.47.31-.2.8.01.32.18.2.4.4.32h.5l.35.17.7-.13.3.23h.63l.64-.07z" map-type="inset-region"/>
    </g>
    <g region="4" long-name="Casuarina" short-name="Casuarina" value="1">
      <path d="m418.36 90.16-.29-.09-.15-.08-.02-.03-.15.13-.08-.08h-.06l-.05.04-.06.03H417.32l.02-.05-.1-.15-.05.02v.1l-.06.07h-.05l-.04-.03L417 90l.01-.05.09-.2.1-.17v-.1l.17-.18.08-.14.18-.42.22-.25.56-.56.18-.06.15-.09.1-.1.2-.33.1-.17.06-.06.03-.01h.06l.03.01.15.16.1.05.24.08-.06.02v.15l.09.22.02.23-.02.13-.04.13-.04.08-.01.09h-.54v.11l.01.14.02.06-.18.1.05.07.1.18-.04.01-.06.04h-.15l.04.2v.09l-.38-.05h-.04v.08l-.05.05-.13.07.07.13.01.03h.06l.08.03-.1.3-.12-.05z"/>
      <path d="m46.53 655.72-2.86-.89-1.55-.79-.23-.28-1.49 1.3-.73-.84-.68-.09-.47.45-.6.33-.53.07-1 .03-.27-.06.17-.56-1.02-1.52-.43.22.08.94-.73.8h-.43l-.44-.28-.35-.52.08-.5.85-2.04 1.01-1.68.07-.94 1.66-1.9.8-1.39 1.8-4.14 2.23-2.55 5.55-5.54 1.77-.63 1.56-.9.94-1.03 2.1-3.27.85-1.68.65-.58.36-.15h.58l.3.15 1.51 1.6 1.01.5 2.4.72-.58.22v1.54l.83 2.2.25 2.3-.2 1.32-.42 1.3-.36.75-.16.9-5.39.02v1.1l.16 1.43.16.54-1.77 1.04.44.63 1.07 1.84-.46.15-.59.34H52.5l.48 2.01-.12.9-3.77-.53h-.32l-.08.81-.43.53-1.28.75.68 1.2.08.38h.56l.81.25-.93 2.95-1.27-.38z" map-type="inset-region"/>
    </g>
    <g region="15" long-name="Wanguri" short-name="Wanguri" value="1">
      <path d="m419.81 87.4.12.05.06.04.07.06.01.05.15.02.43.18.13.02.22.1.02.02-.02.03-.15.02-.02.02.12.04h.18l.04-.02.04-.05h.17l.04-.03.2.03.1-.07h.06l.02.02V88l.01 1.4h-2.27l.4.53v.18l-.12.39-.1-.02v.15l-.37-.29-.13-.1-.05-.03-.1-.03-.15-.02h-.04l-.23-.03-.13-.04.1-.3-.08-.02h-.06v-.03l-.08-.12.13-.08.05-.05v-.08h.04l.37.05.01-.1-.04-.2h.15l.06-.03.04-.01-.1-.18-.05-.07.18-.1-.02-.06-.01-.14v-.1l.54-.01.01-.1.04-.07.04-.13.02-.13-.02-.23-.09-.22v-.15z"/>
      <path d="m61.04 628.08 1.16.51.65.44.65.58.18.55 1.48.18 4.28 1.8 1.3.22 2.17.94.21.22-.14.3-1.52.21-.2.22 1.21.36h1.74l.43-.15.44-.5 1.66-.08.43-.22 1.88.28 1.1-.73h.63l.18.23v.58l.08 13.92-22.67.17 4.05 5.21-.06 1.81-1.18 3.88-1.04-.23-.1.1.03 1.41-3.64-2.87-1.29-1-.53-.29-1-.28-1.47-.2h-.4l-2.29-.3-1.27-.4.93-2.95-.8-.26-.57.01-.08-.38-.68-1.2 1.28-.75.43-.53.08-.82.32.01 3.77.52.12-.89-.48-2.02 1.53.01.6-.34.45-.15-1.07-1.84-.44-.63 1.77-1.04-.16-.54-.16-1.43v-1.1l5.4-.02.15-.9.36-.76.41-1.29.21-1.32-.25-2.3-.83-2.2v-1.54z" map-type="inset-region"/>
    </g>
    <g region="14" long-name="Spillett" short-name="Spillett" value="1">
      <path d="M426.6 97.8v.68l-.03-.02h-.12l-.03.13-.02.1v.03h-.15v-.03h-.33l-.05-.12-.1-.06.07-.04.03-.05.07-.02.03-.02.02-.05.06-.03h.06v-.04h-.03l-.04-.04H426l-.02-.02.01-.05-.13.04H425.7l.01-.14v-.26l.01-.08.05-.21.03-.03.01-.08v-.06l.07-.12-.04-.02-.08-.04-.06-.06-.04-.03-.4-.19-.11-.06-.07-.06-.22-.26-.1.08-.07.03-.27.1-.08.03-.14.04-.14.02-.18.02H423.73l-.12-.04-.11-.06-.05-.03.03-.17v-.23l-.05-.22-.03-.07h.1l-.01-.03v-.07l.03-.07.06-.04.06-.02.14-.02h.08l.08.01.08.02.07.04.13.08.13.1h.81l.44.3.05.02.45.49.05.04.31.25-.03.03-.05.04.02.02.04.1.03.1h.14z"/>
      <path d="M129.01 732.18v6.72l-.35-.13h-1.22l-.34 1.25-.2.98-.02.31h-1.46l.07-.29h-3.39l-.47-1.2-1.03-.58.74-.43.34-.48.66-.23.32-.2.13-.46.66-.3.6-.09-.09-.34-.26.01-.38-.4-.29.05-.19-.2.11-.53-1.35.37-.84.1-.82-.15.1-1.34.01-2.58.1-.8.47-2.16.3-.23.16-.86v-.57l.67-1.15-.42-.3-.83-.4-.54-.56-.38-.25-4.05-1.94-1.1-.62-.65-.53-2.29-2.65-.92.76-.7.3-2.7 1.05-.86.31-1.42.37-1.36.24-1.75.15-.58.05-.88-.08-1.26-.36-1.17-.63-.42-.3.28-1.65.05-.46.01-.94-.1-.87-.49-2.26-.25-.69h.9l-.06-.33.04-.7.31-.63.54-.45.66-.2 1.38-.14.8-.02.82.11.8.22.72.33 1.3.8 1.23.97 6.4-.04-.03.06h1.8l4.4 3.1.5.13 4.48 4.87.44.41 3.13 2.5-.3.35-.47.37.15.22.43.96.28 1.06H129z" map-type="inset-region"/>
    </g>
  </g>
  <g style="stroke-width:.624297" map-type="insets">
    <g style="stroke-width:.898491" map-type="inset-lines">
      <path d="M148.94 568.21v300.34h2.5V568.21Zm-118.75 0v300.34h2.5V568.21Z" style="stroke-width:.898491" transform="matrix(0 1.6 -.77 0 670.92 541.7)"/>
      <path d="M148.94 568.21v256.25h2.5V568.21Z" style="stroke-width:.624297" transform="matrix(1.6 0 0 1.6 -8.3 -319.14)"/>
    </g>
    <g style="stroke-width:.624297" map-type="inset-texts">
      <text xml:space="preserve" x="2.6" y="583.21" style="font-size:16.6651px;line-height:1.25;font-family:sans-serif;stroke-width:.624298" transform="matrix(1.6 0 0 1.6 0 -315.14)"><tspan x="2.6" y="583.21" style="stroke-width:.624298">Darwin</tspan></text>
      <text xml:space="preserve" x="2.6" y="583.21" style="font-size:16.6651px;line-height:1.25;font-family:sans-serif;stroke-width:.624298" transform="matrix(1.6 0 0 1.6 0 -125.14)"><tspan x="2.6" y="583.21" style="stroke-width:.624298">Alice Springs</tspan></text>
    </g>
  </g>
</svg>