<svg country="mex" type="senate" date="2024001" variant="blank" title="Mexican 2024 Senate" auto-border-stroke-width="1" auto-border-stroke-width-limit=".5" original-source="[&quot;https://cartografia.ife.org.mx/sige7/?mapoteca=planos&amp;mrm]" candidates="[{&quot;id&quot;: &quot;0&quot;, &quot;name&quot;: &quot;MORENA&quot;, &quot;margins&quot;: [{&quot;color&quot;: &quot;#820000&quot;}, {&quot;color&quot;: &quot;#A23333&quot;}, {&quot;color&quot;: &quot;#BE6666&quot;}, {&quot;color&quot;: &quot;#D79999&quot;}]}, {&quot;id&quot;: &quot;1&quot;, &quot;name&quot;: &quot;PAN&quot;, &quot;margins&quot;: [{&quot;color&quot;: &quot;#002B84&quot;}, {&quot;color&quot;: &quot;#234A99&quot;}, {&quot;color&quot;: &quot;#7E9ACE&quot;}, {&quot;color&quot;: &quot;#B3C7EA&quot;}]}, {&quot;id&quot;: &quot;2&quot;, &quot;name&quot;: &quot;PRI&quot;, &quot;margins&quot;: [{&quot;color&quot;: &quot;#165016&quot;}, {&quot;color&quot;: &quot;#217821&quot;}, {&quot;color&quot;: &quot;#57A257&quot;}, {&quot;color&quot;: &quot;#A0C5A0&quot;}]}, {&quot;id&quot;: &quot;3&quot;, &quot;name&quot;: &quot;PVEM&quot;, &quot;margins&quot;: [{&quot;color&quot;: &quot;#42E042&quot;}, {&quot;color&quot;: &quot;#71EA71&quot;}, {&quot;color&quot;: &quot;#A3E6A3&quot;}, {&quot;color&quot;: &quot;#C6F0C6&quot;}]}, {&quot;id&quot;: &quot;4&quot;, &quot;name&quot;: &quot;PT&quot;, &quot;margins&quot;: [{&quot;color&quot;: &quot;#C21B18&quot;}, {&quot;color&quot;: &quot;#D72F30&quot;}, {&quot;color&quot;: &quot;#D75D5D&quot;}, {&quot;color&quot;: &quot;#E27F7F&quot;}]}, {&quot;id&quot;: &quot;5&quot;, &quot;name&quot;: &quot;MC&quot;, &quot;margins&quot;: [{&quot;color&quot;: &quot;#E95A07&quot;}, {&quot;color&quot;: &quot;#EF7C25&quot;}, {&quot;color&quot;: &quot;#FFA238&quot;}, {&quot;color&quot;: &quot;#FFC561&quot;}]}, {&quot;id&quot;: &quot;6&quot;, &quot;name&quot;: &quot;PRD&quot;, &quot;margins&quot;: [{&quot;color&quot;: &quot;#DEB02A&quot;}, {&quot;color&quot;: &quot;#F1C92A&quot;}, {&quot;color&quot;: &quot;#FFDD55&quot;}, {&quot;color&quot;: &quot;#FFEEAA&quot;}]}]" version="1.1" xmlns="http://www.w3.org/2000/svg" viewBox="0 0 962.72 613.92">
  <g map-type="regions" transform="matrix(1.33 0 0 -1.33 -44.16 691.84)">
    <g region="SON-RM" short-name="Son. RM" long-name="Sonora by Relative Majority" value="2">
      <path d="M240.36 352.44v2.28h1.44v.72-.72h1.56v.72h-.84v.72h1.56v1.56h.72l.72.72h1.56V360h1.44v3.72h1.56v.72l.72 1.56h-.72v.72h-.72V366l-.84.72.84.72v-.72h-1.56v.72h-.72V369h.72v.72h-.72v3h.72v1.44h.72l-.72.84v2.16h1.56-.84v.84h-1.44v1.44h.72v.72-.72h-.72v.72h-.72v.84h-.84v3h-.72v.72h-2.28v1.44h-.72v1.56l.72.72v.72h-.72v.84h-1.44v-.84.84h.72-.72v2.16h-.84v1.56h-.72.72-.72.72l-.72.72v.72h.72-.72v3h.72v.84h.84v-.84h.72v.84-.84.84h1.44v-.84h.84v-.72.72-.72h.72v.72h1.44v.84-.84h1.56v.84h-.72v.72h.72V399v.72-.72h.72v-.84h-.72.72v.84h.72v.72h3v.72-.72V402h-.72v.72h-.72v3.72h.72V408h-.72l.72.72h-1.44v.72l-.84.72h-.72v1.56h-.72v.72h.72v2.28h-.72.72v.72-.72.72h.72-.72.72V417h-.72v1.44h.72V420h-.72v3l.72.72 2.28.72h-.72v.72h.72v1.56l-.72.72h1.44v.72h1.56v1.56h-.72v.72h-.84v.72h.84v3l-.84.84h.84-.84.84v.72h-.84.84-.84v.72h.84-.84v.72h-.72v.84-.84 1.56h-.72l.72.72v-.72h1.56l.72.72v.72h-.72v1.56h-.84v.72h.84-.84v.72h-.72v.84h.72l-.72.72h1.56v1.44h-.84.84v.84h.72v1.44h.72V450h-.72v.72h-1.56l-1.44 2.28h1.44v1.44h-.72v.72h.72-.72v.84h-2.28l-1.44.72-.72.72v.72h1.44v2.28l-.72.72v3h-.72v1.56h-.84v.72l.84 2.28h.72-.72v.72h-.84v.72h.84-.84v3h-.72 1.56v-.72h.72v-.72h1.44v1.44h-.72.72l.84.84v.72h.72-.72v.72l-.84-.72v.72h-.72l-15 .72h-10.56l-3.72.84h-8.28l-3.72.72h-7.44l-3 1.44-3 1.56-3 1.44-1.56.84-11.28 5.16-3.72 1.56-11.28 4.44v.84h-.72l-10.56 4.44-3 1.56-3 1.44-3 1.56-18.72 8.16-.72.72h-.84l-.72.84v-.84h-1.44v.84-.84.84-.84h-.84v.84-.84.84-.84h-.72.72v-.72h-.72v-.72h-.72v-.72h.72V510h-.72v-.84h-.72v-.72h-.84V507l1.56-1.56h-.72.72v-.72l-.72-.72v-5.28h.72V498h1.44v-.84h.84v-.72h1.44l.72-1.44h1.56l.72-.84h.72v-.72h.84v-.72h.72V492h.72v-.84h.72l.84-.72 1.44-1.44.72-.84h.84l1.44-1.44h3v.72-.72l-.72.72v-.72.72h.72-.72.72v.72-.72h.72v.72-.72.72-.72.72h.84v.84h-.84v-.84h-.72.72v.84h-.72 1.56v.72h-.84.84v.72-.72h.72-.72.72-.72.72V489v.72h.72-.72.72V489v.72-.72.72-.72.72-.72.72h.72-.72V489h.72v-.84h1.56v-.72h1.44v-.72h.84V486h.72v-3.84h-.72.72v-.72h1.44v-.72.72-.72h2.28V480v.72h-.72 1.56V480h.72-.72v.72l-.84-.72v.72-.72h2.28v-.84h2.28-1.56v.84-.84.84h.84v-.84.84-.84.84-.84.84h.72v-.84.84-.84h.72v-.72h.72v-.72h.84v.72h-.84.84v-.72h.72V477h.72-.72.72v-.84h-.72.72-.72v-3h-.72.72v-.72h-.72v2.28l-.84-.72h.84v-3 .72-2.28l-.84-.72v-3l.84-.72v-1.56l.72-.72V462h.72v-1.56h.72v-.72h.84V459h.72v-1.56h.72v-3h-.72v-.72h1.44V453h.84v-8.28h.72l.72-.72v-1.56h.72V441l.84-.84v-.72l.72-.72V438h.72v-1.56h.72v-.72h.84v-1.56h.72V432h-.72v-2.28h.72l.72-.72v.72h-.72.72V429v.72h1.56V429h.72v-.84h.72v-1.44h-.72v-1.56h.72v-1.44h.72-.72v-2.28h.72v-.72h-.72V420h1.56v-.84h.72v-.72h.72-.72v-.72h.72V417h1.56v-.84h.72v-.72.72h.72v-.72h-.72.72v.72-.72h.72v-.72l-.72-.72v.72l-.72.72h.72-.72v-.72h-.72V414h.72v-.84h.72v-.72l.72-.72h.84V411h.72v-1.56h.72v-2.28h.72-.72.72v-.72h-.72 2.28v-.72h.72V405h2.28v-.84h1.44-.72V402h.72l.84-.84v-1.44h.72v-1.56h.72-.72.72v-1.44h.84-.84.84V396h.72v-.84h.72v-.72h.72v-.72.72-.72h.84V393h.72-.72 1.44-.72H196.08v.72-1.56h.72v-.72h-.72.72v-.72.72-.72h.72V390h.72v1.44h-.72.72-.72l.72.72h.84-.84.84-.84.84v.84h-.84.84v.72h-.84.84V393h.72v-.84h-.72v-.72.72-.72l.72.72v-.72.72-.72.72l.72-.72h1.56l.72-.72h.72V390h.72-.72v.72h-.72v.72h.72v-.72h1.56V390h1.44-.72v-.84.84-.84h-1.56v-.72h.84-.84.84-.84v-.72h-.72.72V387v.72-.72h.84v-.84.84h-.84v-1.56h-.72.72v.72-.72.72l.84-.72h-.84v-.72h-.72v.72-.72.72-2.28.84-.84h.72v-.72h-.72v.72-.72h.72-.72.72v-.72.72V381v.72-1.56h-.72v-.72h.72V381v-.84h.84-.84.84v-.72.72-.72.72-.72.72h-.84v-.72h.84-.84v-.72.72h.84v-.72.72-.72h-.84 1.56-.72.72V378h-.72.72v.72-.72.72-.72.72-.72.72-.72h.72v-1.56h-.72.72l.72-.72v.72-.72h-2.16 1.44l1.56-1.56v-.72h.72v-.72h.72V372v.72h-.72.72V372v.72h.72V372v.72-.72.72-.72h-.72 1.56-.84.84v.72-.72h1.44v-.84h-.72v.84-.84.84-.84h2.28-.84.84v-.72h.72v-.72h.72v1.44-.72.72-.72.72-.72.72h.72-.72v-.72h.72v.72-.72.72-.72h1.56v-.72h.72v-2.28h.72-.72v.72-.72h.72-.72v-.72h.72-.72V366h.72-.72v.72h-.72v1.44-1.44h.72v-1.56h.72V363v.72-1.56h.84v-1.44h1.44V360h.72v-.84h1.56v.84h-.72 3v-.84h1.44-.72l-.72.84h.72-.72.72-.72.72-.72v.72h.72v.72-.72h.72V360h1.56-.84v-.84h.84-1.56 1.56v-.72h.72V357h.72l.84-.84v-.72h.72v-5.28 1.56h.72v1.44h-.72v.84h.72v-2.28h.72V351h.84l-.84.72v.72-.72h.84v-1.56.84-.84h.72-.72v-.72h1.44v.72h.72v.84h.84v.72h.72l.72.72z"/>
      <path d="M168.96 427.44v-.72h-1.44l-.72-.72h-.84v.72h-.72v-1.56h-.72V423h-.72.72-.72v-.84h.72-.72v-.72h.72V420h-.72v-.84h-.84v-.72h-.72.72v-.72h.84V417h.72v-.84h1.44v-.72h1.56v-.72h.72v.72h.72v2.28h.84v1.44h.72v1.56-.72 1.44-.72.72h.72-.72V423l-.72.72v.72h-.84.84V426h-.84v.72h.84-.84.84v.72z"/>
    </g>
    <g region="SIN-RM" short-name="Sin. RM" long-name="Sinaloa by Relative Majority" value="2">
      <path d="M294.36 269.16h-.72.72v.84-.84.84h.72-.72.72v-1.56h1.56-.84.84-.84v.72h-.72v.84h-.72.72-.72v-.84h-.72v1.56h-.84v.72l-.72.72h.72v.84h-.72v.72h-.72v.72L289.8 276v.72h-.72v.72h-.72v.72h-.72v.84h-.84v.72h-.72v.72h-.72v2.28h-.72v.72l-.84.72v1.56h-.72v.72h-.72v.72h-.72v.84l-.84.72h-.72v.72h-.72v.72l-.72.84-1.56 1.44h-.72v.72h-.72v.84h-1.56v.72h-.72v.72h-.72v.72h-.84v.84h-1.44v.72h-.84v.72h-.72v.72h-.72l-.72.84-.84.72h-.72v.72h-.72v.72h-.72l-1.56 1.56h.72V303h.84l.72-.84h.72v-.72h.72v-.72h.84V300v.72-.72.72-.72h.72v-.84h1.44v-.72h.84v.72h-1.56v.84-.84.84h.72v-.84h.84v.84l-.84-.84v.84h.84v1.44l-.84.72v.84h.84-.84v.72h.84l.72.72h-.72v.72-.72h-.84v-.72h-.72.72V303h-.72v.72h-.72V303h-.72.72v-.84h-1.56.84v.84h-.84v-.84h.84-.84l-.72.84h-1.44.72-.72.72v.72-.72.72h-.72.72-.72v.72h.72-.72v.72h-.84v-.72.72h-.72v.84h-1.44l-.84.72.84-.72h-.84v.72-.72.72h-.72v.72-.72.72h-.72.72-.72v.72-.72.72-1.44h.72V306h.72v-.84h.84v-.72h1.44v-.72l-1.44 1.44h-.84l-.72.84-.72.72v.72h-.72v2.28h-.84v.72h-.72v.72h-.72v1.56l-.72.72-.84 1.56v1.44h-.72v.72h-.72v.84h-.72v.72h-.84v.72l-.72 1.56h-.72v.72h-.72v.72l-.84.72h-.72v.84-.84.84h-1.44v.72h-2.28v.72h-2.28v.72h-.72v.84h-.72v1.44h.72v.72h.72-.72v1.56h-2.28.72-.72.72v-1.56h-.72.72v-.72h-.72v-.72h-.72.72v.72h-.72v.72h-1.56v-.72h.84-1.56.72-.72v.72h-.72v.84h-.72v.72h.72V330v.72-.72h.72-.72v.72h.72V330v.72-.72.72-.72.72h.72-.72v.72h.72v-.72h.84v.72V330v.72h.72-.72v.72h.72v.72-.72.72h.72v1.56h-1.44V333h-.84v-.84h-.72.72-.72.72v-.72h-.72v.72-.72.72h-.72.72v-.72h-2.28.84v.72-.72h-.84v.72h.84v-.72h.72-.72v.72h-.84v.84h-.72 1.56-.84v.72-.72h-.72.72-.72v.72-.72l.72.72h-.72V333v1.44-.72.72h.72-.72v-.72.72-.72.72-.72.72-.72h-.72v.72h.72-.72v-.72 1.44-.72h-.72.72-.72v.72h.72v.84h-.72.72v-.84h-.72v-1.44h.72V333h.72v-.84h.72v-1.44.72h-.72v.72h-.72v.84h-3.84v.72h2.28v1.44h.84-.84v.84-.84h-.72v.84h-.72v.72h-.84V336v.72h-.72v.72h.72v-.72.72h-.72v.72h.72v1.56h-.72V342l.72.72v1.44h.84v.84h.72v.72h.72v1.44h.84v2.28h1.44v-.72h-.72.72-.72.72v.72h-.72v-.72.72-.72h-.72v-3 .72-.72h.72v1.44-.72.72h.72-.72v.84h.72v2.16h.72v.84-.84h.84V348h-.84 1.56v-.84h.72-.72v-.72.72h.72v-.72.72h-.72v.84h.72v.72-.72.72h-.72v.72-.72.72h.72v.72h.72v.84h.84v.72h.72l.72.72h1.56v2.28h1.44v.72-.72h1.56v.72h-.84v.72h1.56v1.56h.72l.72.72h1.56V360h1.44v3.72h1.56v.72l.72 1.56v.72h.72V366v.72h.84V366v.72h.72v.72h-.72.72v-.72h.72v.72h.72v-.72h1.56V366h-.72l.72-.84v-1.44h.72V363h3.72-.72v-2.28h.72v-3h-.72V357h-.72v-.84h.72v-.72h.72V354h1.56-.72l.72-.84v-.72h-.72v-.72h.72-.72.72l-.72-.72h.72v-2.28h1.44v-1.56h1.56l.72-.72h-.72v-.72h.72V345h.72v-.84.84h.84v-1.56h.72v.72-1.44h.72-.72.72V342h2.28v.72h.72v.72-.72.72h.84l.72-.72h.72V342h.72v-.84h.84v-.72.72h.72v-3 .84h.72v-.84h1.56v-.72.72-.72h.72v-2.28h.72v1.56-.72h1.56v-1.56h.72v-.72h-.72V333h.72v-.84l.72.84v-2.28h.72l-1.44-.72h-.72v-.84h-1.56v-.72h-1.44v-.72h-.84v-2.28h-.72.72V324h-.72v-.84h.72v.84-.84h.84l.72-2.16.72-.84-.72-.72v-3l1.44-1.44v-1.56h.84l.72-.72h.72V312l.72-1.56h1.56V309h.72v-.84h.72v-1.44h1.56l.72-.72v-2.28l1.56-1.56v-.72l.72-.72h.72-.72l-.72-.72v-2.28h.72V297h.72l1.56-.84h.72v.84h1.44l.84.72v.72h.72v.72h.72v-.72h2.28v-.72h.72V297h.72v-.84h1.56v-.72h.72-.72.72v-.72h-.72V294l.72-.84.72-.72V291l.84-.84h.72v-.72h-.72v-.72h.72v-5.28l-.72-1.44v-1.56l.72-.72h-.72V279l.72-.84h.72v.84h.72l1.56-1.56V276h.72v-.84h-.72.72v-.72h.72-.72v-2.28h.72-.72.72-.72.72v-1.44h.84v.72V270h.72v-.84h-.72.72-.72V267h1.44v-.84.84h.84v-.84.84h1.44v.72-.72h1.56v-2.28h-.84v-2.28l-.72-.72h.72V261h-.72v-1.56h-.72.72-.72V258h-.72v-1.56h.72v-.72h.72v-1.56h.72-.72v-.72h.72V252h-.72v-.84.84h-1.44v.72l-.84-.72v.72h-.72v.72h-2.28v-2.28h.72-.72v-.72.72h-.72v1.56h-.72v.72h-.84V255h-.72v.72h-.72v.72h-.72v.72h-.84v.84h-.72v.72h-.72v.72h-.72v.72h-.84v.84h-.72v.72l-.72.72v.72h-.72v.84h-.84v.72h-.72v.72l-.72.72v.84-.84h-.72v.84h-.84v.72h-.72v.72h-.72z"/>
    </g>
    <g region="DUR-RM" short-name="Dgo. RM" long-name="Durango by Relative Majority" value="2">
      <path d="M326.64 255.72v.72-.72h-1.56v-1.56h.84v-1.44l1.44-.72h1.56l-.84.72h.84v.72h.72V255h.72-.72.72v-.84h.72v.84-.84h.84v.84h.72v-2.28l.72-.72v.72h.72v-1.56l.84-.72h.72v-2.28h.72v-.72h1.56v-.72 1.44l.72.84h1.44v.72h1.56V249v3h1.44v1.44h-.72v.72h.72-.72.72v2.28h.84v.72h.72v.84l.72-.84h2.28v.84h-.72.72v.72h-.72V261h-.84v1.44h-.72V267h.72v.72h.84v3l.72 2.28.72 1.44.72.72v.84h1.56v.72h.72v.72h.84v.72h.72v.84h.72v-.84l.72.84v.72h.84-1.56v.72l-.72.72.72.84h-.72.72v.72h.72v.72h-.72v3h.72v.72h-.72v.84h-.72v.72l2.28.72.72.72.72.84h1.56v.72h.72v.72h1.44v2.28h-.72v.72h2.28v.72h.72v.84h.72-.72.72v1.44h2.28l2.28.72h1.44l.84-.72h3v.72-.72.72h2.16l.84-.72h3l2.16-.72h2.28l.72.72v.72l.84.84v.72h-.84v3h-1.44v.72l.72 1.56h-.72l.72.72h.72v.72l-.72.72v1.56h-.72l.72.72V312h-1.44l-.84.72v.72h.84v.72h-1.56v.84l-.72-.84-.72-.72-.84.72-.72-1.44 1.56-.72v-.84l-.84-.72-.72-1.44-.72-.84V306h-.72v.72h-.84v.72h-1.44v.72h-1.56v.84h-2.16l-.84.72h-.72v.72l-.72.72h-.72v1.56h.72-.72v1.44h-.84v.84h-.72v.72h-.72v.72h-.72V318h-.84l-.72.72v.72h-.72v.72h-.72.72v1.56h.72v.72h.72v.72h.84l.72-.72v.72-.72h.72v.72l-1.44.84v1.44h-.84v.72h-1.44.72-.72v.84h.72v.72h.72v.72h.84v.72h.72-.72.72v1.56h.72-.72.72V333h.72-.72v2.16h-.72v3h.72v3l.72.84v.72l.84 2.28-.84 2.16v.84l-.72.72-.72 3.72-2.28 1.56-1.44.72h-1.56l-1.44 1.44-4.56.84-2.28.72-.72-.72h-4.56v.72h-.72v1.44-.72h-1.44v-.72h.72V357l.72-.84h-1.44v-1.44h-.84l-.72-.72h-.72v-.84h-.72v-1.44h-.84v-1.56h-.72V348l-.72-.84h-1.56v.84h-.72v.72h-.72v.72h-.72v.72h-.84v1.56h-1.44l-.72-.72h-.84l-.72.72v.72l-1.44-.72h-.84l-.72-.72v-.84h-.72l-.72-.72v.72h-1.56l-.72-.72v.72h-1.56v.84h-.72v-.84h-.72v1.56h-3l-.72.72h-.84l-.72.72v1.56l-.72-.72-.72.72h-.84l-.72.72h-1.56l-.72.72h-.72v.84h-.72.72-.72v.72h.72-1.56l-.72.72v.72h-.72v.84-.84.84h-.72v-.84.84h-.84v-.84l-.72-.72h-2.28V357h1.56-.72.72-1.56v-.84h-.72.72-.72v-1.44h-.72v-2.28h-.72l.72-.72v-1.56h-.72v-.72h-.84v-.72h.84V348h-1.56v-.84l-1.44-1.44V345h-.84v1.44h-1.44.72V345h.72-.72.72v-2.28l-.72-.72v-.84h.72-.72v-1.44h-.72V339h.72-.72v-.84h-.72V336h-.84 1.56v-1.56h-.72V333h-.84v-.84h.84-.84.84v-.72h-.84v-.72h-.72V330h-.72v-.84h-.72v-.72h-.84v.72h-1.44v.84h-.72v-1.56h-.84v.72h-.72v.84l-.72.72h-2.28.72l-1.44-.72h-.72v-.84h-1.56v-.72h-1.44v-.72h-.84v-2.28h-.72.72V324h-.72v-.84h.72v.84-.84h.84l.72-2.16.72-.84-.72-.72v-3l1.44-1.44v-1.56h.84l.72-.72h.72V312l.72-1.56h1.56V309h.72v-.84h.72v-1.44h1.56l.72-.72v-2.28l1.56-1.56v-.72l.72-.72h.72-.72l-.72-.72v-2.28h.72V297h.72l1.56-.84h.72v.84h1.44l.84.72v.72h.72v.72h.72v-.72h2.28v-.72h.72V297h.72v-.84h1.56v-.72h.72-.72.72v-.72h-.72V294l.72-.84.72-.72V291l.84-.84h.72v-.72h-.72v-.72h.72v-5.28l-.72-1.44v-1.56l.72-.72h-.72V279l.72-.84h.72v.84h.72l1.56-1.56V276h.72v-.84h-.72.72v-.72h.72-.72v-2.28h.72-.72.72-.72.72v-1.44h.84v.72V270h.72v-.84h-.72.72-.72V267h1.44v-.84.84h.84v-.84.84h1.44v.72-.72h1.56v-2.28h-.84l1.56.72h.72V264h.72-.72v-1.56h.72v.72-.72h.84v.72h1.44v.84h1.56v-1.56h.72v.72h.72v-.72h2.28v-.72h-.72.72-.72.72v-2.28h.72v-.72.72-.72h.72v.72-.72h.84-.84.84-.84v-1.56h.84-.84v-.72.72-.72.72h-.72v-.72h-.72z"/>
    </g>
    <g region="CHH-RM" short-name="Chih. RM" long-name="Chihuahua by Relative Majority" value="2">
      <path d="M321.36 351h.72v-.84h1.56v-.72l.72.72h1.56v-.72l.72.72h.72v.84l.72.72h.84l1.44.72v-.72l.72-.72h.84l.72.72h1.44v-1.56h.84v-.72h.72v-.72h.72V348h.72v-.84h1.56l.72.84v2.16h.72v1.56h.84v1.44h.72v.84h.72l.72.72h.84v1.44h1.44l-.72.84v.72h-.72v.72h1.44v.72-1.44h.72V357h4.56l.72.72 2.28-.72 4.56-.84-.84 3.84-.72 1.44v2.28l-.72 1.44v2.28l-.72.72v4.56l-.84 1.44v2.28l-.72.72v4.56l-1.44 1.44v.84l-.84.72h.84v1.44h.72v1.56l.72.72V390h.72v1.44h.84V393l.72 1.44 1.44 2.28.84 1.44 1.44 3h.72v1.56h2.28v.72h.72v3.72h.84v.84l.72 1.44.72.72 1.56 3v.84h-.84v-.84.84h-1.44.72-1.44v.72h-.84v.72h-.72V417h-2.28v.72-.72h-.72v.72h-1.44v.72h-.84v.72h-.72v-.72V420h-1.44v.72h-3v.72h-1.56v.72h-.72v.84h-1.56v.72h-.72v.72h-.72V426v-.84.84h-.84v.72h-2.16v.72h-.84.84-.84v.72h-1.44.72-.72v1.56h-.72l-.84.72V432l-.72.72v1.44h-.72v.84h-.72v1.44h-.84v3h-.72.72l-.72.72h.72V444h-.72v1.44h-.72v.72h-.72v.84h-.84v1.44h-.72v3l-.72.72v1.56h-.72v.72h-.84v.72h-.72v.84h-1.44v.72h-.84v.72l-.72.72h-.72v.84h-1.56l-.72.72h-1.44v.72h-.84v.72h-.72v.84h-.72v.72h-.72v.72h-.84v.72h-.72v1.56h-.72v.72h-.72v.72h-.84l-.72.84h-.72v.72h-.72v.72h-.84V471h-.72v.72h-.72v.72h-1.56V474h-.72v.72l-.72-.72v.72h-1.56v.72h-1.44v.72h-.84v.84h-.72l.72.72h-.72v.72h-.72V480h-.72v1.44h-.84V483h-.72v.72h-1.44v.72-.72h-1.56v.72h-2.28l-5.16.72h-16.56l-3 .84h-9v-.84l-.72-3.72v-6.72h-7.56l-5.28.72v-.72l.84.72v-.72h.72-.72V474l-.84-.84h-.72.72v-1.44h-1.44v.72h-.72v.72h-1.56.72v-3h.84-.84v-.72h.84v-.72h.72-.72l-.84-2.28v-.72h.84v-1.56h.72v-3l.72-.72v-2.28h-1.44v-.72l.72-.72 1.44-.72h2.28v-.84h.72-.72v-.72h.72V453h-1.44l1.44-2.28h1.56V450h.72v-1.56h-.72V447h-.72v-.84h-.84.84v-1.44h-1.56l.72-.72h-.72v-.84h.72v-.72h.84-.84v-.72h.84v-1.56h.72v-.72l-.72-.72h-1.56v.72l-.72-.72h.72v-1.56.84-.84h.72v-.72h.84-.84v-.72h.84-.84.84V435h-.84.84-.84l.84-.84v-3h-.84v-.72h.84v-.72h.72v-1.56h-1.56v-.72h-1.44l.72-.72v-1.56h-.72v-.72h.72l-2.28-.72-.72-.72v-3h.72v-1.56h-.72V417h.72v-1.56h-.72.72-.72v-.72.72-.72h-.72.72v-2.28h-.72v-.72h.72v-1.56h.72l.84-.72v-.72h1.44l-.72-.72h.72v-1.56h-.72v-3.72h.72V402h.72v-2.28.72-.72h-3V399h-.72v-.84h-.72.72v.84h-.72v.72-.72.72h-.72V399h.72v-.84h-1.56v.84-.84h-1.44v-.72h-.72v.72-.72.72h-.84v.84h-1.44v-.84.84-.84h-.72v.84h-.84v-.84h-.72v-3h.72-.72v-.72l.72-.72h-.72.72-.72.72v-1.56h.84V390h.72-.72v-.84.84h1.44v-.84h.72v-.72l-.72-.72v-1.56h.72v-1.44h2.28V384h.72v-3h.84v-.84h.72v-.72h.72v.72-.72h-.72V378h1.44v-.84h.84-1.56V375l.72-.84h-.72v-1.44h-.72v-3h.72V369h-.72v-1.56h.72v-.72h1.56v.72l-.84-.72.84-.72v.72h.72V366h.72v.72h.72V366v.72h.84V366v.72h.72v.72h-.72.72v-.72h.72v.72h.72v-.72h1.56V366h-.72l.72-.84v-1.44h.72V363h3.72-.72v-2.28h.72v-3h-.72V357h-.72v-.84h.72v-.72h.72V354h1.56-.72l.72-.84v-.72h-.72v-.72h.72-.72.72l-.72-.72h.72v-2.28h1.44v-1.56h1.56l.72-.72h-.72v-.72h.72V345h.72v-.84.84h.84v-1.56h.72v.72-1.44h.72-.72.72V342h2.28v.72h.72v.72-.72.72h.84l.72-.72h.72V342h.72v-.84h.84v-.72.72h.72v-3 .84h.72v-.84h1.56v-.72.72-.72h.72v-2.28h.72v1.56-.72h1.56v-1.56h.72v-.72h-.72V333h.72v-.84l.72.84v-2.28H285.36l.72-.72v-.84h.72v-.72h.84V330h.72v-.84h1.44v-.72h.84v.72h.72v.84h.72v.72h.72v.72h.84v.72h-.84.84-.84v.84h.84v1.44h.72V336h-1.56.84v2.16h.72v.84h.72-.72v.72h.72v1.44h.72-.72v.84l.72.72V345h-.72.72-.72v1.44h-.72 1.44V345h.84v.72l1.44 1.44v.84h1.56v.72h-.84v.72h.84v.72h.72v1.56l-.72.72h.72v2.28h.72v1.44h.72-.72.72v.84h1.56-.72.72-1.56v1.44h2.28l.72.72v.84h.84v-.84.84h.72v-.84.84-.84h.72v-.72l.72-.72h1.56-.72V357h.72-.72.72v-.84h.72l.72-.72h1.56l.72-.72h.84l.72-.72.72.72v-1.56l.72-.72h.84l.72-.72h3v-1.56h.72z"/>
    </g>
    <g region="BCN-RM" short-name="B. C. RM" long-name="Baja California by Relative Majority" value="2">
      <path d="M76.68 500.16v-.72h.72-.72z"/>
      <path d="M35.4 435.72h.72V435h.84v-1.56h-.84v-.72h.84-.84.84V432h-.84v-1.56h-1.44.72-.72V435h-1.56v.72h.84-.84.84V438h1.44z"/>
      <path d="M142.68 436.44h1.56V435h.72-.72.72-.72.72v-.84h.72v-3.72h.84l.72-.72h3-.72v-4.56h.72v-1.44h.72V423h-.72v-.84l-.72.84-.72.72-.84.72-.72.72-.72.84v.72h-.84v.72h-.72v.72h-.72v1.56h-.72l-.84.72v.72h-.72v1.56h-.72v3h.72v.72h-.72.72-.72v.72h.72v-.72h.72v.72z"/>
      <path d="m141.96 424.44.72-.72h-.72v1.44z"/>
      <path d="M93.96 410.16v-.72h.72v.72h.72l-.72-.72v.72z"/>
      <path d="M102.96 410.16h.72-.72v-.72h.72v-5.28h-.72V402l-.72.72V402h-.84v1.44h-.72v.72-.72h-.72v.72-.72h-.72V405h.72l1.44 1.44v.72h.84v.84h-.84.84l-.84.72.84.72V411h.72z"/>
      <path d="M126.96 400.44v-.72.72V399v.72-.72.72-.72.72h-.72v.72-.72.72z"/>
      <path d="M126.24 399.72h-1.56v.72h.84v.72h.72v.84Z"/>
      <path d="M126.24 399v.72h-.72.72z"/>
      <path d="M93.96 447h-.72.72v.72z"/>
      <path d="M123.96 518.88h-.72v-1.44h-.72v-.72h-.84v-1.56h-.72.72v-.72h-.72v-.72h.72-.72v-.84h-1.44v.84-.84.84-.84h-.84v.84-.84.84-.84h-.72.72v-.72h-.72v-.72h-.72v-.72h.72V510h-.72v-.84h-.72v-.72h-.84V507l1.56-1.56h-.72.72v-.72l-.72-.72v-5.28h.72V498h1.44v-.84h.84v-4.44l.72-.72h-.72v-1.56h-.84v-.72h-.72v-3h-.72v-3h-.72.72V483h-.72v.72-.72.72-1.56.84-.84.84h-.84.84v-.84.84-.84h-.84.84v-.72.72-.72.72-.72.72-1.44.72-3.72h.72V477h.72-.72v-1.56h.72v-.72h.72V474h.84v-3.84.84-2.28.72-3 .72V465h.72v-6h-.72v-.84h.72-.72v-3h-.84.84V453h.72v-.84h.72V450h.72v-.84h.84v-1.44h1.44v-3 .72V444h1.56v-.84h.72v.84-.84.84-.84.84h1.44v-.84h.84v-1.44h.72V441h.72v-.84h.72v-.72h.84v-.72h.72V438h.72v-.84h.72v-.72h.84v-.72h.72V435h.72v-.84h.72v-.72h.84v-.72h.72v-1.56h1.44V429h-.72v-.84h.72-.72.72v-1.44h.84V426h.72-.72l.72-.84v-1.44.72-.72h-.72V423h.72v-.84h-.72v-.72h.72v-.72h1.44-.72.72v.72h-.72 1.56v.72-.72h-.84.84v.72-.72h.72v-.72h.72-.72V420h.72v-2.28h.72v.72h2.28v-.72h.84l-.84-.72h.84-.84v-.84.84-.84h.84-.84.84V414h.72v-3.84h.72v-.72h.72v-.72h3.84V408h.72v-.84h-.72.72v-.72h-.72v-3h.72V402h.72v-.84h-.72V399h.72v-.84h-.72v-.72l.72-.72-12.72 1.44h-6.84l-8.16.84h-.84v.72h.84v.72h-1.56.72-.72v3h.72v.72-3h.84-.84v.84h.84-.84v1.44-.72h.84-.84v.72h.84-.84l.84.72v.84-.84.84h-.84v.72-.72h-.72v1.44l.72.72v.84h.84v2.16h.72v.84h-.72v1.44h-.84v.72h-.72v2.28h-.72v.72h-1.56v.84h-.72v.72h-.72v1.44h-.72v.84h-.84v2.16h-.72v.84h-.72v.72h-.72V423v.72-.72h-.84v1.44h-.72v2.28h-.72.72v.72h-.72v.72h-1.56v.84h-.72v1.44-.72.72h-.72v.72h-.72v.84h-.84v.72h-.72v1.44h-.72v.84h-.72v.72h-1.56v.72h-2.28v.72h-.72v.84h-.72v1.44h-.84l-.72.72h-.72v.84h-1.56v.72h-.72v.72h-1.44v.72h-.84v.84h-.72v.72h-.72v.72h-.72v.72h-.84v.84l.84.72V450h-.84v1.44h-2.16.72v2.28h.72V456h-.72v.72h.72v3l-.72.72V462h-.72v.72h-1.56v.72-.72h-.72v.72h.72v.72h.72-.72v.84h-.72v.72-.72h.72v-.84h-.72v-.72.72h-.72v-.72h.72v-.72h-.72.72V462h-.72v3h-.84v.72h.84v3.72h.72v.72h-.72.72v.84h-.72v3h-1.56v.72l-.72.72v-.72.72h-.72v.72l-.84.84v.72h-1.44v3h.72v3h-.72v1.44h-.72v1.56h-.84v.72h-.72V489h-.72.72-.72v1.44h-.72v.72h-.84v.84h-.72v.72h-.72.72-.72v.72h-.72v.72h1.44-.72v1.56h.72v.72h-.72l.72.72h-.72v.84h-.72v.72-.72h2.16v.72-.72h-.72v-.84h.72-.72v.84h.72-.72.72v1.44h.84V501h-.84.84-1.56v.72h-.72v.72-.72.72h-.72V504l-.84.72h-1.44v1.44h-.72.72v3h-.72v2.28h-.84v.72h-1.44v2.28h-.72v2.28h-.84v2.16h9.84z"/>
    </g>
    <g region="BCS-RM" short-name="B. C. S. RM" long-name="Baja California Sur by Relative Majority" value="2">
      <path d="M125.52 399h.72v.72h-.72z"/>
      <path d="M123.96 399h-.72v-.84h-.72v-1.44h.72v.72h1.44v.72h1.56v.84h-.72v.72h-.84z"/>
      <path d="M101.4 399v-.84h.84v-.72h.72-.72.72v.72h-.72v.84Z"/>
      <path d="M124.68 396.72h.84-.84v.72z"/>
      <path d="M123.24 393v.72-.72h.72v-.84 1.56h-.72z"/>
      <path d="M124.68 392.16h.84-.84v1.56z"/>
      <path d="M169.8 375.72h.72V375v.72h.72v.72h-.72v.72h-.72z"/>
      <path d="M143.52 366.72h.72V366v.72z"/>
      <path d="M142.68 366v-.84h1.56v-.72h1.44-.72v.72h-.72.72v.84h-.72v-.84.84-.84.84-.84.84h-.72z"/>
      <path d="M146.52 363.72v.72-.72.72z"/>
      <path d="M147.24 363h-.72.72v-.84.84h-.72z"/>
      <path d="M152.52 357h.72v.72h-.72.72-.72z"/>
      <path d="M186.24 347.16h-.72v-.72l.72.72h.72-.72.72v.84h-.72z"/>
      <path d="M188.52 345.72v-2.28h-.72V342h-.84v-2.28h.84V342h.72v.72h.72v1.44h.84v-.72h.72v.72h-.72v1.56h.72z"/>
      <path d="m167.52 338.16-.72-.72v-3.72 1.44h.72l-.72.84h.72v.72h-.72.72z"/>
      <path d="M190.8 337.44v-.72h.72V336h-.72v-.84 1.56h-.72.72z"/>
      <path d="M167.52 336.72v.72-.72.72z"/>
      <path d="M167.52 336.72V333v.72-.72.72-.72.72h-.72V333h2.16-.72v-.84.84-.84l-.72.84v-.84.84-.84h-.72.72v-.72h-.72v-.72.72V330h.72v.72-.72h-.72.72-.72.72v-.84h-.72.72-.72V327h-.84v-.84.84-.84h.84-.84v.84-1.56h.84-1.56V324v.72-1.56.84l-.72-.84h.72-.72.72-.72v-.72h.72v.72V321h-.72v-.84h-.72v-.72.72h.72v-.72.72-.72h-.72.72V318h-.72.72v-.84.84h-.72v-.84.84-1.56.72h.72v-.72V318v-.84 1.56h.72V321v-.84h.72v.84-1.56h-.72.72-.72v-.72h.72-.72.72V318v.72h-.72v-1.56h.72-.72.72v-.72h-.72.72v-.72h-.72v.72-.72h.72-.72.72-.72.72V315h.84-.84v-.84.84h.84v1.44-.72 1.44-.72h.72-.72v.72h.72v-.72.72-.72h-.72.72-.72v-.72h.72-.72.72-.72.72-.72V315h.72v-.84h-.72.72-.72 1.44-.72.72-.72v.84h.72-.72.72-.72v-.84h1.44-.72v3V315h.72v-.84h.84v-.72.72-.72.72h-.84.84v-1.44h.72V312h.72v-2.28h.72-.72v-1.56.84h.72-.72v-.84h.72v.84-.84h.84-.84v2.28h-.72.72V309h.84-.84 1.56v.72-.72h.72-.72.72v.72-.72.72h1.56V309h-.84.84v-2.28h.72V306v.72-1.56h.72v1.56h.72-.72v-1.56.84-.84h.72v-.72h.84v-.72h.72V303v.72-.72h1.44v-.84h.84-.84v.84h-1.44.72v-.84h1.56v-.72h.72l.72-.72v.72-.72h.72v.72h.84l-.84-.72h-.72.72-.72.72V300h.84l.72-.84h.72v-.72h.72l.84-.72h.72V297h.72v-1.56h.84l.72-.72h.72v-1.56h.72v-.72h.84v-.72h.72V291h.72v-.84h.72v-1.44h.84V288h.72v-.84h.72v-.72h.72v-.72h1.56V285h1.44v-.84h.84l.72-.72h.72v-.72h.72V282h.84v-1.56h.72v-2.28h.72-.72.72v-.72h.72v-3h.84-.84v-.72h.84V270h.72v-2.28l.72-.72v-.84h.72v-.72h.84v-.72h2.16-.72v.72-.72l.72.72h1.56v.72h.72v.84-.84.84h.72v.72h1.56-.72.72v.72h.72v.72h2.28v.84h.72l.72.72v.72h.84v.72h.72v.84h.72v3.72h.72-.72v.72h.72-.72v2.28h-.72v1.44h-.72v.84h-1.56v.72h-.72l-.72.72h-.84v.72h-.72v4.56h-.72v.72h-.72v.72h-.84v3h.84-.84v.84h-2.16v-.84.84h-1.56v3h-.72v.72h-.72v.72h-1.56v.72h-.72v.84l-.72.72h-.84v1.44h-1.44v-.72h-.72V300h.72-.72v-.84h.72-.72.72v-1.44h-.72V297h-.84v-.84.84-.84h-1.44v1.56h.72V297h.72v.72h.84-2.28l-.72.72h-1.56l-.72.72-.72.84h-.84v1.44h-.72V303.72h-.72v.72l.72.72v.84h-.72v.72h-.72v3.72h.72v.72h.72v1.56h.72v1.44h-.72v3h-.72v.84h-.72v.72h.72-.72v.72l-.84.72v-.72.72h-.72v.84h-.72.72-.72v1.44h-.72v2.28h-.84v.72h.84-.84v.72h.84-.84.84-.84v1.56h-.72V330h-.72v1.44h.72-.72.72v.72h-1.44v.84-.84h-.84v.84-.84.84h-.72v.72h-.72v1.44h-.84l.84.84h-.84.84-.84.84-.84v1.44h-.72v.72h-.72v.84l-.72.72h.72-.72v.72h.72v-.72.72h-.72v2.28h-.84v.72h.84-.84v.72h.84v1.56h.72v1.44h-.72v2.28h-.84v3.72h-.72v1.56-.72.72h-.72V354h-.72v.72-.72h-.84v.72h-.72l-.72.72h.72v-.72h1.56V354h.72v3h.72v1.44h-2.28v.72h-.72v.84h.72v3h-1.44v.72h-.72v.72h-.84v.72h-.72v1.56h-.72v.72h-.72v.72-.72h-.84V363h.84v-.84h.72v-.72h.72v-.72h.72v-1.56h-.72l-.72-.72v.72h-.72.72-.72.72-.72v1.56h-.84v.72h-.72V363h-.72v1.44h.72v2.28h-.72v.72h-.72v.72h-.84v-.72h-.72.72-.72v.72-.72h.72v.72h.84-.84v1.56h-.72V372v-.84h.72v.84l.84.72V372v.72h-.84v.72h-1.44v.72h-1.56v.84h-.72v.72h-.72v1.44-.72V378h-.72v1.44-.72.72h-.84.84-.84.84-.84V381h-.72.72-.72v3.72h-.72v.72h-.72v.72h-1.56v.84h-.72l-.72.72h-1.56v1.44h-.72v.84h-.72v.72h-.84V393h-.72v3.72l-12.72 1.44h-6.84l-8.16.84H126.24h.72v-.84.84-.84h-.72v-.72.72h-.72v-.72h.72-.72v-.72.72h.72l-.72-.72h.72-.72v.72h-.84.84-.84.84-.84.84v.72-.72.72h-.84v-.72l.84-.72h.72-.72.72-.72V396h.72-.72v.72-.72l-.84-.84v-.72.72V393h.84v-.84h2.16v.84h-.72v1.44-.72h.72V393h1.56v-.84.84-.84.84-.84h.72v.84h-.72.72v-.84h-.72.72v-1.44h-.72.72v.72-.72h-2.28v.72-.72.72h-1.44.72v-.72h-.72 1.44-.72V390h-.72v-.84.84-.84.84-.84h-.72v.84-.84.84-.84.84-.84.84h.72-.72v.72-.72.72h-.84.84-.84v.72h-.72v.72h-.72v-.72.72h-.72v.84h-.84v3-.84h.84l-.84.84h.84-.84.84-.84.84-.84.84v.72h-1.56V396h-.72v-.84h-1.56v-.72h-4.44v.72-.72.72h-1.56v.84h-3v.72h-3.72v.72h-1.56.84v-2.28h.72-.72.72-.72.72v-1.44.72h.72v-.72h.84V393h.72v-.84.84h1.44v-1.56h-.72v.72-.72h1.56v-.72h.72v-2.28h.72-.72 1.44v-.72h1.56V387v.72-.72h.72v-.84h.72v-.72h.84v-5.28h1.44v-.72h-.72 1.44v-.72h1.56V378h.72v.72h.72V378h1.56l.72-.84h.72v-.72h.84V375h.72v-1.56h.72l.72.72h.84v-.72h1.44v-.72h.72V372h.84v-.84h.72V369h.72v-.84h.72v-.72h.84v-.72h1.44V366h-.72v.72h-.72v.72h-.84v.72h-.72.72v-.72h.84v-.72h.72V366h1.44v.72l.84.72v.72h.72v.84-.84h.72v.84h-.72 1.44-.72.72l.84-.84h-.84v.84h-.72v-.84h.72-.72.72-1.44 2.28l.72-.72h.72v-.72h.72V369h1.56v.72h.72v.72h-.72.72V372h.72-.72v.72h.72v-2.28h.84v-.72h-.84v-1.56h-.72l-.72-.72h-.72v-.72h1.44-.72.72v.72h.72V366v.72-1.56h.84v-.72h.72V363h-.72v.72-.72h.72v-.84l.72-.72h.84v-.72.72h-.84.84v-.72.72-.72h.72-.72 1.44V360h1.56v-1.56h.72-.72v.72h-.84v.84h-.72.72-.72v.72-.72.72h-.72V360h.72v-.84h.72v-.72h.84v-.72h.72V357h.72-.72v.72h.72V357h.72v-.84.84h-.72v-.84h1.56v-1.44h2.16V354h-.72 1.56v-.84h.72v-.72h.72v.72h.72l.84-.72h.72v-.72h.72-.72.72v-1.56h.72V348h.84v-.84 1.56-1.56h.72v-.72h.72v-.72h.72v-1.56h.84-.84v-1.44h.84v-1.56h.72-.72v-.72l.72-.72v-1.56.84-.84.84-.84.84-2.28.72z"/>
      <path d="M167.52 336v-.84z"/>
      <path d="M188.52 333.72h.72v.72h-.72z"/>
      <path d="M196.08 335.16h-.84l.84-.72v-.72h.72v1.44h-.72v.84h.72-.72z"/>
      <path d="M166.8 330.72h-.84v-3 1.44h.84-.84.84-.84.84-.84.84v.84h-.84.84-.84v.72h.84V333Z"/>
      <path d="M166.8 329.16v-.72z"/>
      <path d="M166.8 329.16v-.72.72-.72h-.84.84z"/>
      <path d="M166.8 328.44h-.84z"/>
      <path d="M165.96 328.44v-.72h.84v.72h-.84.84-.84.84z"/>
      <path d="M166.8 327.72V327v.72-.72.72-.72.72-.72z"/>
      <path d="M165.96 327v.72h.84-.84z"/>
      <path d="M166.8 327.72h-1.56v-2.28h-.72v-2.28h-.72v-1.44l-.84-.72v-1.56h-.72V318h-.72v-1.56h-.72v-.72h.72V315v1.44-.72h.72-.72 2.28V315h.72v-2.28h-.72V312h.72v-.84h.72v-1.44h.72v.72h-.72v.72h-.72v1.56l.72.72h-.72V315h-.72v1.44-.72.72h-.84.84-.84v.72-.72.72h-.72.72v-.72.72h-.72.72-.72.72v.84-.84.84-.84.84h.84v1.44-.72.72V318v.72h.72-.72v1.44h.72v2.28-.72 3h.72v1.44h.72v1.56z"/>
      <path d="M197.52 326.16h-.72v-.72h.72v.72l.72.84h-.72z"/>
      <path d="M164.52 322.44v-.72h.72-.72l.72.72h-.72.72z"/>
      <path d="M165.24 318.72h-.72.72-.72.72V318v1.44-.72.72z"/>
      <path d="M197.52 319.44h.72v-2.28h.84-.84.84v-.72h.72v-.72h1.44v.72h-.72v2.28h-.72v.72h-.72v.72h-1.56v1.56z"/>
      <path d="M199.8 314.16v.84-.84.84-.84h.72v.84h-.72.72-.72z"/>
      <path d="M167.52 308.16h.72v-.72h.72v-.72h1.56V306h.72v-.84h.72v-.72h.84v-.72h.72V303v.72h.72v.72h-.72.72-.72V306h-.72v.72h-.84v.72h-.72v.72h-.72.72-.72v.84-.84h-.72v.84-.84h-.84v.84h-1.44z"/>
      <path d="M203.52 306.72v.72h.72l-.72-.72h.72v1.44h-.72z"/>
      <path d="M203.52 306.72V306h.72v-.84h.84v-.72h-.84.84v-.72h-.84.84-.84 1.56V306h-.72v.72h-.84z"/>
      <path d="M174.96 305.16v-.72.72-.72h-.72 3.72v-.72h.84-.84v.72h-1.44v.72h-.72z"/>
      <path d="M214.08 301.44v-.72h.72v-3h.72V297h.72v-.84h.84v2.28h-.84v.72l-.72.84v.72l-.72.72v.72z"/>
    </g>
    <g region="NLE-RM" short-name="N. L. RM" long-name="Nuevo León by Relative Majority" value="2">
      <path d="M452.76 303.72v.72h.72-.72v.72h.72v1.56h2.28v.72h.72v.72h.72v.84h.72-.72.72v-.84l1.56-.72v.72h.72v.84h-.72v.72h2.28l-.84.72v.72l-.72.84v2.16h.72-.72v.84h1.56v.72h.72-.72.72v.72h.72v-.72h.72-.72.72V315v.72h.84V315v.72-.72.72h2.16v.72l.84.72h.72l.72 1.56h.72l.84.72.72.72v.84h1.44v.72l.84.72h.72l.72.72h1.56v1.56l.72.72v.72h-3.72v6h-.84v7.56h-5.16l-.84-.72-.72-1.56-.72.72v.84h-.72v.72l-1.56.72v.72h-.72v-.72h-1.56v-.72h-.72v.72l-.72.72v1.56l-.72 1.44v.84h-1.56l-1.44 1.44h-1.56v2.28h-.72.72-.72v.72h.72v3.72l-2.28 1.56h-2.16l-.84.72h-.72.72v.72h.84v1.56h-.84.84v.72h.72-.72.72V360h-1.56v.72-.72.72h-2.16v.72l.72 1.56.72 1.44h.72v.72h-.72v1.56l-.72.72v.72l-.72 1.56h-.84V372h.84v.72h-.84l-.72-.72v.72h.72l.84.72-.84.72h-.72l-3 .84v1.44h-.72v.72h1.44l.84.84 2.16 1.44.84.72v.84h-.84v.72h-.72v.72h-.72v-.72h-.72.72l-2.28-2.28v.72h-.72v-1.44h-.72l-.84-.72v.72l-1.44 2.28-2.28 2.16-.72-.72h-1.56v-.72h.84-.84l-1.44-3-.84-3V375h-.72l.72-.84v.84-.84l-.72-.72h-.72l-2.28-2.28-.72.84v-.84l-.72.84h.72l-.72.72V372l-.84-.84h-2.16v-.72l-.84-.72V369l-.72-.84v-.72l-.72-1.44h.72v-1.56.72h.72v-1.44.72h1.56v-.72h.72l-.72.72v.72-.72h.72V366h.72v-.84l3-.72v-6.72h-.72l-.72-1.56v-1.44h-.72V354l-.84-.84-.72.84-.72.72v.72l-.72-.72-.84-.72-.72.72-3-3-2.28-1.56v-.72l-.72-.72-1.44-.72 1.44-2.28V345l-.72-.84h-.72l1.44-1.44h1.56V342h1.44v-1.56h.72v-.72h.84v-1.56h.72l-.72-.72h.72v-.72h1.44v-2.28h-.72V333h.72v-2.28l.84.72v-2.28l.72-.72h1.44v-.72.72l.84-.72V327h1.44v-2.28h1.56l-.84-.72h1.56l.72-.84v-.72h-.72v-.72h.72l.72-.72h.84l.72.72h1.56V321h.72v-1.56l.72-.72-.72-.72h-3l-.84.72h-1.44l-1.56.72h-1.44v.72h-.72v-.72l-.84.72v-1.44l-.72-.72v-.84.84h-.72v-.84.84-.84h-.72v-.72l-.84-.72v-3h.84V312h.72l.72-.84-.72-.72h.72v-.72l-.72-.72v1.44l-.72-.72-.84-.72-.72-.84.72-.72h.84v-3h.72v-.72l-1.56-1.56h.84l.72-1.44V300l.72-.84v.84h1.56v-.84l.72-.72h.72v-3.72h-.72V294h1.44l-.72-.84v-.72h.72v-.72h1.56V291h-.72v-.84h.72l-.72-.72V288h.72v-1.56h-.72v.72h.72v.84h-.72v-1.56h-.84v-.72h.84v-1.56h.72-.72v-.72h.72v-2.28h.72v-.72h.72v-.72h-.72v-3h.72V276h-.72v-.84h-.72V273h.72l.72-.84v-.72l-.72-.72v-3h2.28l.72-.72v.72h.84v.72l.72 1.56v.72h1.44v-1.56h3l.84 1.56h-.84l-.72.72h-.72l.72.72.72.84h3.84v2.16h-.84v2.28-.72 1.44l.84.84v.72l.72.72.72 1.56v.72h2.28v.72-.72h4.44l.84.72v.72h.72-.72l.72.84h.72v1.44h-.72v.72l-.72.84v1.44h-1.56l-.72.72-.72.84v2.16l.72 1.56h-.72l.72.72v.72l.72.84v.72h-.72v1.44l-.72.84v.72h-.84l.84-.72h-.84v.72h-.72V303v-.84l.72.84h.84v.72z"/>
    </g>
    <g region="ZAC-RM" short-name="Zac. RM" long-name="Zacatecas by Relative Majority" value="2">
      <path d="M366.36 215.16h1.56v-.72.72-.72h3v.72l.72.84-.72-.84v.84h-.72v.72h.72v.72h-.72v.72h.72v1.56h.72V219h.72v.72-.72h.84-.84 2.28v-.84h-.72.72v.84h.72v.72h.84v.72h.72v.72h1.44v.84h.84-.84.84v.72-1.56h.72v.84h.72v3-.84.84h.72-.72.72v.72h-.72l.72.72h-.72.72-1.44v.72h-.72v.84h-1.56v1.44h-.72l.72.72v-.72.72h.72v.84h-.72v.72-.72.72h-.72v.72-.72.72h-.72.72-.72V234h-.84v.72h.84v1.44l.72.84v.72l.72.72v.72h.72v.84h.84v.72h.72v.72l.72.72v.84l.72.72h-.72v1.44h3.72v.84h.84v.72h1.44l.72.72h.84v.72-.72V249h.72v.72-1.56h.72v-.72h.72-.72 1.56v-.72h.72V246h.72v-.84h1.56v.84h.72v-1.56h.72-.72l.72-.72v-1.56h-.72v-.72h.72v-.72h1.56V240h.72l.72-.84h.84v-.72h1.44v-.72h.72v.72-.72h1.56l-.72-.72h1.44v-1.56h.72v.72h.84v-.72.72h.72v-3h1.44v.84h.84-.84v.72h.84v.72h.72v.72h.72v1.56h.72V240h.84-.84.84v2.16h-.84.84v1.56h.72-.72.72v.72h-2.28V246h.72v.72h-.72v.72h.72V249h1.56l-.72.72h.72v.72l.72.72-.72.84v2.16h-.72.72v.84h-1.56v1.44h-2.16v-.72h-.84V255h-1.44v-1.56h-.72.72-.72.72-.72v-.72h-.84v-1.56h-.72v-.72.72-.72h-.72v.72l-.72-.72v-.72.72h-.84v-.72h-1.44v1.44h-.72v.84h-.84v-.84.84h.84v.72h-.84.84v1.44h-2.28v1.56h-1.56v.72h-.72v-.72.72h-.72v-.72 1.44h-.72v.84h.72-3v2.16h-.84v1.56h-.72v1.44h.72v3h.84l-.84.84v1.44h-1.44v.72h.72v.84h.72l-1.44 1.44.72.72h.72v1.56h.84V273h.72v-.84h-.72.72l.72-.72h.84l1.44.72h2.28v2.28h.72V276h.72v-2.28h-.72.72v1.44h.84v.84l.72.72v-1.56h.72-.72v-1.44h1.44l.84.72v.72l.72.84h.72l1.56 2.16 1.44.84h.72v1.44h1.56v.72l1.44 1.56v.72h.84l1.44.72.72.84v.72h.84v3h.72v.72h-.72v.72l-.84.84h.84v.72h1.44V291v.72-.72h.72v.72h.84v.72h-.84.84v.72h.72v.84h.72v.72h.72v.72h-.72 2.28v.72h.72l.72.84.84.72h-.84.84v.72h.72v.72h-.72.72l-.72.84h.72v.72l-.72 1.44v-.72h-.84l-.72.72h-1.44l-.84-.72h-1.44l-.72.72h-.84v.84h-.72v.72l-.72 1.44v.84h-.72v.72h-.84l-.72.72h-.72l-.72.72h-.84l-.72-.72h-.72l-.72.72v-.72h.72v-.72h-.72V306h-.84v.72h-2.16V309l-.84.72h-1.44l-1.56-.72v1.44h-.72v.72h-.72v.84h-.72v1.44h-.84l-.72.72h-1.44v.84h-.84l-.72.72V315h-1.44v.72l-.84-.72v.72-.72.72h-7.44l-.84 1.44-.72.84-.72-.84-1.56-.72.84-.72v-2.28h-.84v-.72l.84-.72h1.44v-1.56l-.72-.72h.72v-1.56l.72-.72v-.72h-.72l-.72-.72h.72l-.72-1.56v-.72h1.44v-3h.84V300l-.84-.84v-.72l-.72-.72h-2.28l-2.16.72h-3l-.84.72h-2.16v-.72.72-.72h-3l-.84.72h-1.44l-2.28-.72h-2.28V297h-.72.72-.72v-.84h-.72v-.72h-2.28v-.72h.72v-2.28h-1.44v-.72h-.72V291h-1.56l-.72-.84-.72-.72-2.28-.72V288h.72v-.84h.72v-.72h-.72v-3h.72v-.72h-.72V282h-.72.72l-.72-.84.72-.72v-.72h1.56-.84V279l-.72-.84v.84h-.72v-.84h-.72v-.72h-.84v-.72h-.72V276h-1.56v-.84l-.72-.72-.72-1.44-.72-2.28v-3h-.84V267h-.72v-4.56h.72V261h.84v-2.28h.72V258h-.72.72v-.84h-2.28l-.72.84v-.84h-.72v-.72h-.84v-2.28h-.72.72-.72v-.72h.72V252h-1.44v-2.28l.72-.72v-2.28h.72v1.44h.84-.84.84v.84h.72v-.84h.72v1.56h-.72.72-.72.72v.72h-.72v.72h3v-.72h.72v-.72h-.72.72V249h-.72v-1.56h-.72 2.16v.72h.84v.84h.72v1.44-.72h.72v.72h-.72v.72-.72.72h-1.56v.84h.84v.72h-.84.84-.84v.72-.72 1.44h-.72.72-.72.72v.84h-.72v.72h-.72.72v.72h.72v.72-.72.72h.84v-.72.72-.72.72h1.44v-.72.72-.72h.84-.84 3.84v-3h-1.56v-.72h-.72V252h-.72v-.84h.72-.72.72v-.72h-.72v-.72.72-2.28h.72-.72v-.72h-.84.84-.84v-3.72h.84v-1.56h.72v3-.72.72h.72-.72v1.56h.72v3h.72V252h.84l.72.72V252h3V249.72h.72v-1.56h-.72v-.72h-.72v-.72h.72-1.56.84-.84v-1.56h1.56v-.72h-.72v-.72h-.84v-1.56h-.72v-1.44h2.28v.72h1.44v-.72h2.28v1.44l.72.84v.72h1.56v.72-.72.72-.72h.72V246h-.72v-.84h-.72v.84h.72v.72h-.72v.72h.72v.72h.72v-.72.72h2.28v-.72h.72v.72-1.44h-.72V246v.72-.72h-.72v-.84h.72v.84-.84h3v-.72l.72-.72h-.72.72V243v.72h-.72V243h-.72v-1.56h.72v-.72h-.72V240h-1.56.72l.84-.84v-.72h-1.56v-.72h-.72V237h-.72v.72h-1.56V237h-.72v-.84h-1.56v-.72h-.72v-.72h-.72v-1.56h-.72v.84h-.84v-.84h-1.44.72-.72.72-.72l.72-.72h.72v-2.28l-.72-.72v-2.28.84h-.72v-.84h-2.28v-1.44h-.72V225h1.44-.72v-.84h1.56v-1.44h.72v1.44-.72.72h.72v-.72h.72V222h-1.44v-.84.84h-1.56v-.84.84-.84h-1.44v-1.44.72h1.44V219h-.72v-.84h1.56v-1.44h.72V216h.72v.72h3v-1.56h.72v-.72h3z"/>
    </g>
    <g region="NAY-RM" short-name="Nay. RM" long-name="Nayarit by Relative Majority" value="2">
      <path d="M348.36 219h.72v.72h.84V219h.72v.72-.72h3v.72h-.72.72l-.72.72h1.44v.72h.84v1.56h.72-.72V225h-.84.84v.72h-2.28v.72-.72.72-.72.72h-.72v.72h-.84v.84h-.72.72v.72h-.72v.72h.72v2.28h-.72.72v.72h-2.28v.72h-1.44v-.72.72h-2.28v.84h-.72v3h.72v.72h-2.28v.72h-.72v-.72h-1.44V243h.72v1.44h.72V249l-.72.72V249v.72h-1.56V249h-1.44l-.72-.84v-1.44.72h-1.56v.72h-.72v2.28h-.72l-.84.72v1.56h-.72V252l-.72.72V255h-.72v-.84h-.84v.84-.84h-.72v.84h-.72.72-.72v-1.56h-.72v-.72h-.84l.84-.72h-1.56l-1.44.72v1.44h-.84v1.56h1.56v.72-.72.72h.72v.72h.72v-.72.72-.72.72h.84-.84v1.56h.84-.84.84-.84v.72-.72h-.72v.72-.72.72h-.72v2.28h-.72.72-.72.72v.72h-2.28v.72h-.72v-.72h-.72V264h-1.56v-.84h-1.44v-.72h-.84v.72-.72h-.72V264h.72-.72v1.44h-.72l-1.56-.72v-2.28l-.72-.72h.72V261h-.72v-1.56h-.72.72-.72V258h-.72v-1.56h.72v-.72h.72v-1.56h.72-.72v-.72h.72V252h-.72v-.84.84h-1.44v.72l-.84-.72v.72h-.72v.72h-2.28v-2.28h.72-.72v-.72.72h-.72v1.56h-.72V252l.72-.84v-1.44h.72v-2.28h.72v-9.72h.84v-1.56h.72v-.72h.72V234h.84v-1.56h.72V231l.72-.84v-1.44h.72v.72-.72.72-.72h.84V228h.72l.72-.84h.72v-.72h.84v.72h.72v-.72h.72V225h-.72v-1.56l-.72-.72v.72-2.28l.72-.72V219h-.72v-1.56.72-.72h.72-.72V216h.72-.72v-1.56h-1.56v-.72h-.72V213h-.72v-.84h-.84v-.72h-.72v-.72h-.72v-1.56h-.72v-.72h-.84.84-1.56v-.72.72-.72h.72v.72-.72h2.28V207h.72v.72h1.56V207h.72v-1.56h.72v.72h.84v1.56h.72v.72h.72V210h.72v.72h.84v.72h.72v.72h.72v-.72h2.28v.72h1.44-.72v.84h.72v.72h2.28v.72-.72h1.56V213h.72v-.84h.72v-.72.72l.72-.72h2.28V210h.72v-.84h.84v-.72h1.44v-.72h.72V207h.84v-.84h.72v-.72h.72-.72.72v-2.28.84h.72v1.44h-.72.72v.72l-.72.84h-.72.72v.72h-.72l-.72.72v-.72.72h-.84v.72h1.56v.84h.72v1.44h.72v3h.84-.84v.72h.84v3h4.44z"/>
      <path d="M286.08 234v-.84h.72v.84Z"/>
      <path d="M287.64 231.72V231h-.84.84v-1.56h.72v-.72h1.44V228v.72h.84v1.44h-.84v1.56h-3z"/>
      <path d="M292.08 226.44h-1.44v-.72h1.44V225v.72-.72h1.56v1.44h-1.56v.72z"/>
      <path d="M295.8 222.72V222h.84v-.84.84-.84 1.56h.72V222v.72h-.72.72-.72z"/>
      <path d="M295.08 222.72V222h.72-.72.72v.72z"/>
    </g>
    <g region="COA-RM" short-name="Coah. RM" long-name="Coahuila de Zaragoza by Relative Majority" value="2">
      <path d="M415.92 303h.72v-.84h.84l.72-.72h1.44l.84.72h1.44l.72-.72h.84v.72h-.84l1.56 1.56v.72h-.72v3h-.84l-.72.72.72.84.84.72.72.72V309l.72.72v.72h-.72l.72.72-.72.84h-.72v.72h-.84v3l.84.72v.72h.72v.84-.84.84h.72v-.84.84l.72.72v1.44l.84-.72v.72h.72v-.72h1.44l1.56-.72h1.44l.84-.72h3l.72.72-.72.72V321h-.72v.72h-1.56l-.72-.72h-.84l-.72.72h-.72v.72h.72v.72l-.72.84h-1.56l.84.72h-1.56V327h-1.44v.72l-.84.72v-.72.72h-1.44l-.72.72v2.28l-.84-.72V333h-.72v1.44h.72v2.28h-1.44v.72h-.72l.72.72h-.72v1.56h-.84v.72h-.72V342h-1.44v.72h-1.56l-1.44 1.44h.72l.72.84v.72l-1.44 2.28 1.44.72.72.72v.72l2.28 1.56 3 3 .72-.72.84.72.72.72v-.72l.72-.72.72-.84.84.84v.72h.72v1.44l.72 1.56h.72v6.72l-3 .72v.84h-.72v-1.56h-.72v.72-.72l.72-.72h-.72v.72h-1.56v-.72 1.44h-.72v-.72V366h-.72l.72 1.44v.72l.72.84v.72l.84.72v.72h2.16l.84.84v.72l.72-.72h-.72l.72-.84v.84l.72-.84 2.28 2.28h.72l.72.72v.84-.84l-.72.84h.72v.72l.84 3 1.44 3h.84-.84v.72h1.56l.72.72 2.28-2.16 1.44-2.28V378l.84.72h.72v1.44h.72v-.72l2.28 2.28h-.72.72v.72h-.72v.72h-.84.84-.84v3h-.72v1.56h-1.44v.72h-.84V390h-.72v1.44h-.72v.72h-2.28v.84h-.72v.72h-.72v.72h-.84v2.28h-.72v.72h-.72V399h.72-.72v1.44h.72-.72v.72h-1.56v.84h.72v.72h-.72v.72h-.72v.72h-.72v.84h-.84v3h-.72.72-.72v.72h-.72v1.44h-.72v.84h.72-1.56.84-.84v3.72h-.72v.72h.72-.72v.72h-1.44v.84h-.84v.72h.84-.84v1.44h-.72v.84h-1.44v.72h-.84v.72h-.72v.72h-1.44v.84l-.84.72v.72h-.72v.72h-.72v-.72.72h-.72v.84h-2.28v3h-.72v-1.56h-.84v.72l.84.84v.72h-1.56V429v1.44h-.72v-.72.72h.72-.72V432h-.72.72v.72-.72h-1.56v.72h-.72V432h-.72v1.44h-.72v-.72h-1.56V432h-.72v.72-.72h-.72v.72h-2.28v.72h-.72l.72-.72h-.72v.72h-.84v-.72h-1.44v.72-.72h-.72v.72-.72.72h-.84v-.72.72h-.72v-.72h-1.44v.72-.72.72h-1.56v.72h-1.56v.84-.84.84h-2.16v-1.56h-.84V432v.72-.72h-.72v.72h-2.28V432h-.72.72v-.84h-.72.72-.72V429v3.72-.72h-.72.72-1.44v-.84h-.84v.84h-.72v-2.28h-.72v-1.56h-.72v-.72h-.84v-2.28h-.72V423h-.72v-.84h.72-1.44v-.72h.72-.72v-2.28h.72v-.72h-1.56v-.72h-1.44v-1.56.84-.84h-.72v-.72h-.84v-.72h-.72v-1.56h-.72v-.72h.72-2.28v.72-.72h-.72v.72-.72h-.72v.72h-.72l-1.56-3-.72-.72-.72-1.44v-.84h-.84v-3.72h-.72v-.72h-2.28v-1.56h-.72l-1.44-3-.84-1.44-1.44-2.28-.72-1.44v-1.56h-.84V390h-.72v-1.56l-.72-.72v-1.56h-.72v-1.44h-.84l.84-.72v-.84l1.44-1.44v-4.56l.72-.72v-2.28l.84-1.44v-4.56l.72-.72v-2.28l.72-1.44v-2.28l.72-1.44.84-3.84 1.44-1.44h1.56l1.44-.72 2.28-1.56.72-3.72.72-.72v-.84l.84-2.16-.84-2.28V342l-.72-.84v-3h-.72v-3h.72V333h.72-.72v-2.28h-.72.72-.72v-1.56h-.72.72-.72v-.72h-.84v-.72h-.72V327h-.72v-.84h.72-.72 1.44v-.72h.84V324l1.44-.84v-.72h-.72v.72-.72l-.72.72h-.84v-.72h-.72v-.72h-.72v-1.56h-.72.72v-.72h.72v-.72l.72-.72h.84v-1.56h.72v-.72h.72V315h.72v-.84h.84v-1.44h.72-.72v-1.56h.72l.72-.72v-.72h.72l.84-.72h2.16v-.84h1.56v-.72h1.44v-.72h.84V306h.72v2.16l.72.84.72 1.44.84.72v.84l-1.56.72.72 1.44.84-.72.72.72.72.84v-.84h1.56v1.56l-.84.72 1.56.72.72.84.72-.84.84-1.44h7.44V315v.72-.72l.84.72V315h1.44v.72l.72-.72h.84v-.84h1.44l.72-.72h.84V312h.72v-.84h.72v-.72h.72V309l1.56.72h1.44l.84-.72v-2.28h2.16V306h.84v.72h.72v.72h-.72v.72l.72-.72h.72l.72.72h.84l.72-.72h.72l.72-.72h.84V306h.72v-.84l.72-1.44z"/>
    </g>
    <g region="AGS-RM" short-name="Ags. RM" long-name="Aguascalientes by Relative Majority" value="2">
      <path d="M388.92 249h-.72v-1.56.72-.72h-.84l-.72-.72h-1.44V246h-.84v-.84h-3.72v-1.44h.72l-.72-.72v-.84l-.72-.72v-.72h-.72V240h-.84v-.84h-.72v-.72l-.72-.72V237l-.72-.84v-1.44h-.84V234h.84v-1.56h.72-.72.72v-.72.72-.72h.72V231v.72-.72h2.28v.72h.72v.72-.72l.72.72v-.72h2.28V231l1.56-.84h-.84.84v-.72h2.16v-.72h1.56v.72h1.44l.84.72h-.84 2.28v.84h.84-.84.84l-.84.72h.84-.84 1.56v1.44h.72-.72.72v.84h1.56l-.84.72h.84l.72.72h1.44v.72h.84l-.84.84v-.84.84-.84.84h-.72.72-.72v.72h.72l.84.72v.72h-.84l-.72.84h-.72v.72h-1.56v.72h-.72v.72h.72v1.56l-.72.72h.72-.72V246h-.72v-.84h-1.56v.84h-.72v.72h-.72v.72h-1.56.72-.72v.72h-.72v1.56z"/>
    </g>
    <g region="COL-RM" short-name="Col. RM" long-name="Colima by Relative Majority" value="2">
      <path d="M357.36 175.44h-.72v-.72h-.72v.72h-.72V174h-2.28v-.84h-1.56v.84h-.72v.72h-1.56v.72-.72h-.72v.72h-1.44v-.72.72-3h-.84v-.72.72-.72h-.72V171h-1.44v-.84.84h-3v-.84h-.84v.84-.84h-3v-.72h-1.44v.72-.72h-.72V168h-.84v-.84.84-.84h-.72v.84h-1.44v.72-.72h.72l.72-.84h2.28v-.72h2.28v-.72h-.84.84-.84 1.56v.72h1.44v-.72h.84V165v.72-.72h.72v.72-.72h-1.56v-1.56h1.56l1.44-.72h1.56V162h1.44v-.84h.84v-.72h1.44v-.72h.72V159h1.56v-.84h.72v-.72h1.56v-.72h.72V156h.72v-.84.84h.84v.72-.72.72h.72v.72h.72v.72h.72v1.56h-.72v.72h1.56v-.72.72h1.44V162h.72-.72.72v2.16h-.72v3h.72v.84h-.72v.72h.72-.72v.72h.72-.72l.72.72h-.72.72v1.56h-.72v1.44h-1.44v1.56h-.84v1.44z"/>
      <path d="M180.96 165h-.72v-.84h-.72 1.44v-.72h.84v-.72h1.44V165h-.72v.72h-.72v.72h-.84z"/>
    </g>
    <g region="JAL-RM" short-name="Jal. RM" long-name="Jalisco by Relative Majority" value="2">
      <path d="M312.36 191.16h-.72.72v-1.44h.72v-1.56h.84v-.72h.72V186h.72v-.84h.72v-.72h.84V183h.72v-1.56h.72v-.72h.72V180h.84v-.84h.72v-.72h1.44v-.72h.84v-2.28h.72-.72.72v-.72h.72-.72V174h.72-.72v-.84h.72v-.72h.72v-.72h.84V171v.72-.72h1.44v-.84.84h2.28v-.84h-.72v-.72h2.16v-.72h.84V168h1.44v-.84h.72v.84-.84.84h.84v1.44h.72v.72-.72h1.44v.72h3v.84-.84h.84v.84h3v-.84.84h1.44v.72h.72v.72-.72.72h.84v3-.72.72h1.44v-.72h.72v.72-.72h1.56V174h.72v-.84h1.56v.84h2.28v1.44h.72v-.72h.72v.72h.72v.72-1.44h.84v-1.56h1.44v-1.44h.72v-1.56h-.72.72l-.72-.72h.72-.72v-.72h.72-.72V168h.72v-.84h-.72v-3h.72V162v.72-.72.72h.84-.84 1.56V162h.72v.72h3v.72h1.56V162h.72v-.84h1.44v.84h.84v.72h.72v.72h-.72.72v.72-.72h.72V165h1.56-.84.84v.72h-.84v1.44h1.56v.84h1.44l.84.72V168v.72h1.44v.72h.72v-.72h.84v.72-.72h.72V168v.72h.72-.72.72-.72.72V171h.72v1.44h.84V174h.72-.72v.72h.72v.72h-.72v.72h-.84v-.72h-.72v-.72l-.72.72h-1.56v.72h.84v.84-.84 1.56h-.84.84-.84.84l-.84.72h.84-1.56v.72h-.72.72-.72v.84h.72v.72h-.72V183h-.72 1.44v.72h.72V186l-1.44.72-.72.72h-3v.72h-.84v-.72h-1.44v.72h.72v2.28h-.72.72v.72h-.72 3v.84h-.72.72v.72h2.28l1.44.72h3.72V195v-.84h.84v.84h.72v-.84.84h.72v.72h.72v.72h4.56v.72-.72h3v.72h2.28v.84h-.72.72v.72l.72.72v.72h.72v1.56h.84l-.84-.72.84.72v.72h.72V204h-.72v.72h.72-.72V204v.72h-.84V204v3h-1.44v.72h-.72V207v.72h.72v1.44h1.44v.84h.84v.72-.72.72h.72-.72l.72.72v-.72 1.44h.72v1.56h.72-.72.72v1.44h1.56v1.56h.72v.72h.72-.72.72l-.72.72v.84h1.56-.84l.84.72h1.44v.72h.72v.72h.84v1.56h1.44v.72h-1.44V225v-.84.84h-.84v2.16h.84-.84.84-.84.84v3h.72v.84h-1.56l.84.72v.72h1.44v.72h-.72v3h-.72v-.72.72h-.84v-.72h-.72V237h-1.44l.72.72h-1.56v.72-.72h-.72v.72h-1.44l-.84-.72h-.72V237h.72-.72.72v-.84.84-.84.84l.84-.84h-.84v-.72h-1.44l-.72-.72h-.84l.84-.72h-1.56v-.84h-.72.72-.72v-1.44h-1.56.84-.84l.84-.72h-.84.84-.84v-.84h-2.28.84l-.84-.72h-1.44v-.72h-1.56v.72h-2.16v.72h-.84.84l-1.56.84v.72h-2.28v.72l-.72-.72v.72-.72h-.72V231h-1.56v-.84h-.72v-.72.72l-.72-.72h.72V228h1.56v-.84h.72v-.72h1.44-.72.72l-.72-.72h.72V225h-.72.72-.72v-.84.84-3h-.72v-.84h-.72v1.56-.72h-.84.84-.84v-.84h-1.44v-.72h-.72v-.72h-.84V219h-.72v-.84h-.72.72v.84h-2.28.84-.84v.72-.72h-.72v.72h-.72v-1.56h-.72v-.72h.72v-.72h-.72V216h.72v-.84l.72.84-.72-.84v-.72h-3v.72-.72.72h-1.56v-.72h-3v.72h-.72v1.56h-3V216h-.72v.72h-.72v1.44h-1.56v.84h.72v1.44h-1.44v-.72 1.44h1.44v.84-.84.84h1.56v-.84.84h1.44v1.44h-.72v.72h-.72v-.72.72-1.44h-.72v1.44h-1.56v.84h.72-1.44v.72h.72v1.44h2.28v.84h.72v-.84 2.28l.72.72v2.28h-.72l-.72.72h.72-.72.72-.72 1.44v.84h.84v-.84h.72v1.56h.72v.72h.72v.72h1.56v.84h.72v.72h1.56V237h.72v.72h.72v.72h1.56v.72l-.84.84h-.72 1.56v.72h.72v.72h-.72V243h.72v.72h.72V243v.72h-.72.72l-.72.72v.72h-3v.84-.84h-.72v.84h.72v.72-.72.72h.72v1.44-.72h-.72v.72h-2.28v-.72.72h-.72v-.72h-.72v-.72h.72V246h-.72v-.84h.72v.84h.72v-2.28h-.72v.72-.72.72-.72h-1.56V243l-.72-.84v-1.44h-2.28v.72h-1.44v-.72h-2.28v1.44h.72v1.56h.84v.72h.72v.72h-1.56v1.56h.84-.84 1.56-.72v.72h.72v.72h.72v1.56h-.72V252h-3v.72l-.72-.72h-.84v-2.28h-.72v-3h-.72v-1.56h.72-.72v-.72.72-3h-.72v1.56h-.84v3.72h.84-.84.84v.72h.72-.72v2.28-.72.72h.72v.72h-.72.72-.72v.84h.72v.72h.72v.72h1.56v3h-3.84.84-.84v.72-.72.72h-1.44v-.72.72-.72.72h-.84v-.72.72-.72h-.72v-.72h-.72.72V255h.72v-.84h-.72.72-.72.72v-1.44.72-.72h.84-.84.84V252h-.84v-.84h1.56v-.72.72-.72h.72v-.72h-.72v.72V249h-.72v-.84h-.84v-.72h-2.16.72V249h.72v.72h-.72.72v.72h-.72v.72h-3v-.72h.72v-.72h-.72.72-.72.72v-1.56h-.72v.84h-.72v-.84h-.84.84-.84v-1.44h-.72v-2.28h-.72V243h-.72v-5.28h1.44v.72h.72v-.72h2.28V237h-.72v-3h.72v-.84h2.28v-.72.72h1.44v-.72h2.28v-.72h-.72.72v-2.28h-.72v-.72h.72V228h-.72.72v-.84h.84v-.72h.72v-.72.72-.72.72-.72h2.28V225h-.84.84v-2.28h.72-.72v-1.56h-.84v-.72h-1.44l.72-.72h-.72.72V219h-3v.72-.72h-.72v.72h-.84V219h-.72v-.84h-4.44v-3h-.84v-.72h.84-.84v-3h-.72V210h-.72v-.84h-1.56v-.72h.84v-.72.72l.72-.72h.72V207h-.72.72l.72-.84v-.72h-.72.72V204h-.72v-.84 2.28h-.72.72-.72v.72h-.72v.84h-.84v.72h-.72v.72h-1.44v.72h-.84v.84h-.72v1.44h-2.28l-.72.72v-.72.72h-.72v.84h-.72v.72h-1.56v.72-.72h-2.28V213h-.72v-.84h.72-1.44v-.72h-2.28v.72h-.72v-.72h-.72v-.72h-.84V210h-.72v-1.56h-.72v-.72h-.72v-1.56h-.84v-.72h-.72 1.56V204h-.84v-1.56h-.72v-.72h-3.72V201h-4.56v-.84l-.72-.72h-.72V198h.72v-.84l.72-.72h.72v-.72l.84-.72h-.84.84v-.84h.72z"/>
    </g>
    <g region="TAM-RM" short-name="Tamps. RM" long-name="Tamaulipas by Relative Majority" value="2">
      <path d="M452.76 303.72v.72h.72-.72v.72h.72v1.56h2.28v.72h.72v.72h.72v.84h.72-.72.72v-.84l1.56-.72v.72h.72v.84h-.72v.72h2.28l-.84.72v.72l-.72.84v2.16h.72-.72v.84h1.56v.72h.72-.72.72v.72h.72v-.72h.72-.72.72V315v.72h.84V315v.72-.72.72h2.16v.72l.84.72h.72l.72 1.56h.72l.84.72.72.72v.84h1.44v.72l.84.72h.72l.72.72h1.56v1.56l.72.72v.72h-3.72v6h-.84v7.56h-5.16l-.84-.72-.72-1.56-.72.72v.84h-.72v.72l-1.56.72v.72h-.72v-.72h-1.56v-.72h-.72v.72l-.72.72v1.56l-.72 1.44v.84h-1.56l-1.44 1.44h-1.56v2.28h-.72.72-.72v.72h.72v3.72l-2.28 1.56h-2.16l-.84.72h-.72.72v.72h.84v1.56h-.84.84v.72h.72-.72.72V360h-1.56v.72-.72.72h-2.16v.72l.72 1.56.72 1.44h.72v.72h-.72v1.56l-.72.72v.72l-.72 1.56h-.84V372h.84v.72h-.84l-.72-.72v.72h.72l.84.72-.84.72h-.72l-3 .84v1.44h-.72v.72h1.44l.84.84 2.16 1.44.84.72v-.72h.72v.72-.72h.72v.72-1.44h.72v.72h.84v-.72h1.44v-3h.72V372h-.72v-.84h.72v-1.44h1.56v-4.56h-.72v-.72h.72v-.72h.72V363h.72l-.72-.84h.72v-.72h.84V360h1.44v-1.56h.72V357h.84v-2.28h.72v-3h1.44V351h.84v-.84h-.84v-1.44h3.84V348l.72.72v-1.56h.72v.84h2.28v-1.56h.72v.72-1.44.72h.72v-.72h.84-.84.84V345v.72-.72h.72v-.84.84h2.28v-.84.84-.84h.72v.84-.84h.72-.72.72v-.72.72h.84v-.72h1.44v-.72h.72v.72-.72h.84v-1.56h.72v.84h.72-.72v-.84h.72v-.72h.72v.72-.72h.84v.72-.72h1.44v.72-.72h1.56-.84v-.72h.84v.72h4.44v.72-.72h1.56v-.72.72-.72h.72v.72-.72h1.44v.72-.72.72-.72h.84v.72-.72.72-.72h.72-.72.72V339v.72-.72h.72v-.84h.72l-.72-.72h.72v.72-.72h.84v-.72h1.44V336h.72-.72.72v-.84h.84v.84-.84.84h.72v-.84 2.28h.72l.72.72v-.72.72h.84-.84 1.56v.84-.84.84h.72v-.84.84h.72v-.84h.84v-3.72h-.84v-3.72h-.72v-1.56h-.72v-1.44h-.72v-1.56h-.84v-1.44h-.72v-1.56h-.72v-1.44h-.72v-2.28h-.84V318h-.72v-2.28h-.72v-2.28h-.72v-3h-.84v-3h-.72v-3.72h-.72v-5.28h-.72v-21.72l-.84-.72v-5.28l.84-.72v-10.56h-.84v-2.28h-.72V255h-.72v-3.84h.72v-3h.72v-1.44l.84-.72h-.84v-.84h-.72v-.72h-.72v.72h-.72.72-.72v.84h-.84v1.44h-.72v.72h-2.28v-.72.72-.72.72h-.72v.84h-.72v.72h-.72V249v.72h-.84v.72h-.72v.72-.72h-.72v.72-.72h-1.56.84-.84v-.72h.84V249h-2.28v.72-.72h-.72v.72h-.84V249v.72h-1.44V249h-4.56v-.84h-1.44v-.72.72-.72h-1.56v.72-.72h-.72v.72-.72h-.72l-.84.72h-.72l-.72.84h-5.28l-.72.72V252h-.72v1.44h-.84v.72h-1.44v.84h-1.56l-.72 2.16h-1.44v-.72l.72-2.28v-.72h-.72v.72h-.84v1.56h-1.44l-.72-.72h-3.84v1.44l-.72.72v-.72h-.72v.72h-2.28v.84h-.72v3h-1.56v2.16h.84v1.56h1.44l-1.44.72v.72h-1.56v2.28l.72-.72v1.44l.84 1.56h-.84l-.72.72h-.72l.72.72.72.84h3.84v2.16h-.84v2.28-.72 1.44l.84.84v.72l.72.72.72 1.56v.72h2.28v.72-.72h4.44l.84.72v.72h.72-.72l.72.84h.72v1.44h-.72v.72l-.72.84v1.44h-1.56l-.72.72-.72.84v2.16l.72 1.56h-.72l.72.72v.72l.72.84v.72h-.72v1.44l-.72.84v.72h-.84l.84-.72h-.84v.72h-.72V303v-.84l.72.84h.84v.72z"/>
    </g>
    <g region="QUE-RM" short-name="Qro. RM" long-name="Querétaro de Arteaga by Relative Majority" value="2">
      <path d="M433.2 210.72h3l-.72.72h1.44v.72h-.72 1.56v-.72h3.72v.72h-.72l.72.84v.72h1.44-.72v.72h.72-.72v2.28h.72-.72.72-.72.72v.72l-.72.72h.72v.84h.84v-.84h.72-.72 1.44v-.72h2.28v.72-.72h.72V219h2.28-.72v.72h.72v1.44h-.72v-.72h-.84v.72h.84l-.84-.72h-.72v.72h-.72.72-.72.72-.72v.84h.72v6h1.56v-.84.84h.72v-.84h.72v-.72l.72-.72.84-.72h.72v-.84h.72-.72 1.44v.84-.84h.84v.84-.84h.72v.84h.72-.72.72v2.16h1.56v-.72.72-.72.72h.72v1.56h.72v.72h.72v.72h.84v.84h-.84l.84-.84h.72-.72.72-.72.72v-.72h-.72l.72-.72h.72v-1.56h-.72v-.72h.72v-.72h.72l-.72-.72.72-.84v-.72.72l-.72-.72V222h-.72.72v-.84h.72v-.72.72h.84v-.72h.72-.72v-2.28h.72l-.72-.72v.72-.72h-2.28v-.72h-.72V216h-.84v.72-.72h-.72v.72h-.72v.72h-.72v-.72h-.84V216h-.72v-.84h.72-.72.72v-1.44l-.72.72v-3h-.72v-.72h-.72l.72-.72h-.72v-.84h-.84v-1.44h-.72.72-.72V207h-.72v-.84h.72v-.72h.72-.72.72v-.72h-1.44V204h-.72v-.84h-2.28v-.72.72-.72h-.72v.72-.72h-1.56l-.72-.72V201h-.72v-4.56h.72l-.72-.72v.72V195v.72-.72h-1.56v.72-.72h-.72v-.84h.72-.72.72-.72v.84h-.72v-2.28h.72v-2.28h.72v-.72h-1.44v.72h-.84.84-.84v-.72h-.72V189h-.72v-.84.84h-1.56v.72h-.72v.72-.72.72-.72.72h-.72v-.72 3.72l-.72.72h-.84v.84h-1.44v.72h-1.56v1.44h-.72.72-.72v.84-.84.84h-1.56v2.16h-.72v1.56h.72v1.44h-.72.72-.72v.84h-.72v.72h-.72v1.44h-.84 1.56v.84h-.72v1.44h.72v.72h.72v.84l.72.72v.72h.84v-.72h.72V210Z"/>
    </g>
    <g region="SLP-RM" short-name="S. L. P. RM" long-name="San Luis Potosí by Relative Majority" value="2">
      <path d="m422.64 297 .84.72h-.84.84v.72h.72v.72h-.72.72l-.72.84h.72l.72-.84v.84h1.56v-.84l.72-.72h.72v-3.72h-.72V294h1.44l-.72-.84v-.72h.72v-.72h1.56V291h-.72v-.84h.72l-.72-.72V288h.72v-1.56h-.72v.72h.72v.84h-.72v-1.56h-.84v-.72h.84v-1.56h.72-.72v-.72h.72v-2.28h.72v-.72h.72v-.72h-.72v-3h.72V276h-.72v-.84h-.72V273h.72l.72-.84v-.72l-.72-.72v-3h2.28l.72-.72v.72h.84v.72l.72 1.56v.72h1.44v-1.56h3v-1.44l-.72.72v-2.28h1.56v-.72l1.44-.72h-1.44v-1.56h-.84V261h1.56v-3h.72v-.84h2.28v-.72h.72v.72l.72-.72V255h3.84l.72.72h1.44v-1.56h.84v-.72h.72v.72l-.72 2.28v.72h1.44l.72-2.16h1.56v-.84h1.44v-.72h.84V252h.72v-2.28l.72-.72h5.28l.72-.84h.72l.84-.72h.72v.72-.72h.72v.72-.72h1.56v.72-.72.72h1.44v.84h.72v-2.28.72h.84v.72h1.44v-.72h.84l.72-.72h.72l.72-.72h.84l.72-.84h.72v-.72.72h.72v-1.44h-.72V243l-.72-.84h-.72v-3h-.84v-1.44h-.72v.72h-.72v-.72h-.72V237h.72v.72h.72V237h-.72.72v-.84h-.72v-1.44h1.44-.72V234h.72v-.84h.84-.84v-.72h-.72v-.72h-.72.72-.72V231v.72h-.72v-1.56.84l-.84-.84v.84h-.72.72v-.84h-.72v-.72h.72v-.72h-.72.72-.72.72v-1.56h1.56v-1.44h.72v-1.56h.72-.72.72l-.72-.72v-.72.72h-.72.72-1.44v-.72h-1.56.72-.72v-1.56h.72v-.72h.84-.84l.84-.72h-.84.84-.84V219h.84-1.56v-.84h-.72v.84-.84h-.84v-.72.72h-2.16v.84-.84h.72v-.72h-.72v.72-.72.72h-1.56l-.72.84v.72h-.72.72v.72h-.72v.72h-2.28v-.72h-.72v.72h-.84v-.72.72h-.72v.84h-.72.72v1.44l.72.72v-.72.72l-.72.84.72.72h-.72v.72h-.72v.72h.72v1.56h-.72l-.72.72h.72v.72h-.72.72-.72.72-.72l-.84.84h.84v-.84h-.84v-.72h-.72v-.72h-.72v-1.56h-.72v-.72.72-.72.72h-1.56V225h-.72.72-.72v-.84h-.72v.84-.84h-.84v.84-.84h-1.44.72-.72v.84h-.72l-.84.72-.72.72v.72h-.72v.84h-.72v-.84.84h-1.56v-2.28h-.72V225h-.72v-.84h-1.56v.84h-.72v-.84h-.72v1.56-.72h-.84.84-2.28v.72h.72-.72.72v.72h-.72l-1.56 1.56h-.72v.72h-.72v.72h-.72v.72-.72.72-.72.72h-5.28v-.72h-.84.84-.84V228h-.72.72v-1.56h-3.72v-.72.72h-1.44v.72-.72h-.84v.72h-.72v.84h-1.44l-.84.72v.72h.84-.84v.72l-.72-.72v.72h-.72v.84h-.72v.72h-2.28v.72l-1.56-.72h-1.44v.72h-.72v.72h-2.28v.84h-3v-.84.84h-.72v-.84h-.84l.84.84h-.84v.72h.84v.72h.72v.72h.72v1.56h.72V240h.84-.84.84v2.16h-.84.84v1.56h.72-.72.72v.72h-2.28V246h.72v.72h-.72v.72h.72V249h1.56l-.72.72h.72v.72l.72.72-.72.84v2.16h-.72.72v.84h-1.56v1.44h-2.16v-.72h-.84V255h-1.44v-1.56h-.72.72-.72.72-.72v-.72h-.84v-1.56h-.72v-.72.72-.72h-.72v.72l-.72-.72v-.72.72h-.84v-.72h-1.44v1.44h-.72v.84h-.84v-.84.84h.84v.72h-.84.84v1.44h-2.28v1.56h-1.56v.72h-.72v-.72.72h-.72v-.72 1.44h-.72v.84h.72-3v2.16h-.84v1.56h-.72v1.44h.72v3h.84l-.84.84v1.44h-1.44v.72h.72v.84h.72l-1.44 1.44.72.72h.72v1.56h.84V273h.72v-.84h-.72.72l.72-.72h.84l1.44.72h2.28v2.28h.72V276h.72v-2.28h-.72.72v1.44h.84v.84l.72.72v-1.56h.72-.72v-1.44h1.44l.84.72v.72l.72.84h.72l1.56 2.16 1.44.84h.72v1.44h1.56v.72l1.44 1.56v.72h.84l1.44.72.72.84v.72h.84v3h.72v.72h-.72v.72l-.84.84h.84v.72h1.44V291v.72-.72h.72v.72h.84v.72h-.84.84v.72h.72v.84h.72v.72h.72v.72h-.72 2.28v.72h.72z"/>
    </g>
    <g region="GUA-RM" short-name="Gto. RM" long-name="Guanajuato by Relative Majority" value="2">
      <path d="M398.64 213.72h-.72.72-.72v-1.56h-.72v-1.44.72l-.72-.72h.72-.72V210v.72-.72h-.84v-.84h-1.44v-1.44h-.72V207v.72h.72V207h1.44v-3 .72h.84V204v.72h.72-.72V204h.72v-1.56h-.72v-.72l-.84-.72.84.72h-.84v-1.56h-.72v-.72l-.72-.72V198h-.72.72v-.84h1.44v.84-2.28.72l.84.72v-.72h.72v-.72h-.72.72v-2.28h.72-.72.72-.72.72v-.72h.72v.72h1.56v-.72.72h1.44v-.72.72h.84v-.72h.72v.72h.72v.72h.72-.72.72v.84-.84.84-.84 1.56h.84v.72h.72v-.72.72h.72v-.72.72-.72h1.56v.72-.72h.72V195h.72v-.84h.72-.72.72v-.72L409.2 192h.72v-.84h.72-.72v-1.44h-.72V189h.72v-.84h.72v.84-.84.84h3-.72.72v-.84h1.56v.84h.72-.72.72-.72v1.44h.72v-.72h1.56v.72h1.44v-.72h1.56-.84.84-.84.84-.84v-1.56h.84-.84v-1.44h3.84V186h.72v.72h.72V186h.72v.72h3v.72h.84v.72h.72v-.72h-.72v-.72h-.84.84v.72h.72v-.72.72h.72-.72.72V186v.72h.72v.72h1.56v.72h2.28v.84h-.72v2.16h-.84.84-.84v.84h.84v.72h.72v.72h-.72.72V195h.72-.72v.72h-1.56v1.44h-.72.72-.72v.84-.84.84h-1.56v2.16h-.72v1.56h.72v1.44h-.72.72-.72v.84h-.72v.72h-.72v1.44h-.84 1.56v.84h-.72v1.44h.72v.72h.72v.84l.72.72v.72h.84v-.72h.72V210v.72h3l-.72.72h1.44v.72h-.72 1.56v-.72h3.72v.72h-.72l.72.84v.72h1.44-.72v.72h.72-.72v2.28h.72-.72.72-.72.72v.72l-.72.72h.72v.84h.84v-.84h.72-.72 1.44v-.72h2.28v.72-.72h.72V219h2.28-.72v.72h.72v1.44h-.72v-.72h-.84v.72h.84l-.84-.72h-.72v.72h-.72.72-.72.72-.72v.84h.72v3.72h-.72V225h-.72v-.84h-1.56v.84h-.72v-.84h-.72v1.56-.72h-.84.84-2.28v.72h.72-.72.72v.72h-.72l-1.56 1.56h-.72v.72h-.72v.72h-.72v.72-.72.72-.72.72h-5.28v-.72h-.84.84-.84V228h-.72.72v-1.56h-3.72v-.72.72h-1.44v.72-.72h-.84v.72h-.72v.84h-1.44l-.84.72v.72h.84-.84v.72l-.72-.72v.72h-.72v.84h-.72v.72h-2.28v.72l-1.56-.72h-1.44v.72h-.72v.72h-2.28v.84h-3v-.84.84h-.72v-.84h-.84l.84.84h-.84v-.84h-.72v-.72h-1.44v-.72l-.84-.72h1.56v-.84h-.72v-3h-.84.84-.84.84-.84V225h.84v-.84.84-1.56h1.44v-.72h-1.44v-1.56h-.84v-.72h-.72v-.72h-1.44l-.84-.72h.84-1.56v-.84l.72-.72h-.72.72-.72v-.72h-.72v-1.56h-1.56z"/>
    </g>
    <g region="HID-RM" short-name="Hgo. RM" long-name="Hidalgo by Relative Majority" value="2">
      <path d="M482.04 199.44v-.72h-2.28.72V198h-.72v-.84h-2.28v3h-.72v.84h-.72v.72h1.44v1.44h.72-.72v.84h1.56v.72h-.84v.72h.84v.72h.72v1.56h.72-.72.72-.72V207h-.72v-.84h-1.56v.84h.72v.72-.72.72h1.56-.72v1.44h.72-.72.72v.84h.72v.72l.72-.72v.72h.84v-1.56h.72-.72v-.72h.72v.72-.72h1.44v.72-.72.72h.84-.84v.84-.84.84h-.72.72v.72h-.72.72-.72l.72.72.84.72h-.84v.84h.84v1.44h.72-.72l.72.72v-.72.72h.72v.84l-.72.72h-.72v.72h-.84v.72-.72h-1.44v.72h.72v.84h-.72v-.84.84-.84.84h-.72v-.84h-1.56v-.72h-.72v.72h-.72v1.56h-.84.84-.84.84v.72h-.84v-.72.72-.72h-.72v.72h-.72l.72.72v1.56h1.56-.84.84v.72h-.84v.72-.72h-.72v-.72.72h-.72.72-1.44v-.72h-1.56.72-.72v-1.56h.72v-.72h.84-.84l.84-.72h-.84.84-.84V219h.84-1.56v-.84h-.72v.84-.84h-.84v-.72.72h-2.16v.84-.84h.72v-.72h-.72v.72-.72.72h-1.56l-.72.84v.72h-.72.72v.72h-.72v.72h-2.28v-.72h-.72.72-.72v-2.28h.72l-.72-.72v.72-.72h-2.28v-.72h-.72V216h-.84v.72-.72h-.72v.72h-.72v.72h-.72v-.72h-.84V216h-.72v-.84h.72-.72.72v-1.44l-.72.72v-3h-.72v-.72h-.72l.72-.72h-.72v-.84h-.84v-1.44h-.72.72-.72V207h-.72v-.84h.72v-.72h.72-.72.72v-.72h-1.44V204h-.72v-.84h-2.28v-.72.72-.72h-.72v.72-.72h-1.56l-.72-.72V201h-.72v-4.56h.72l-.72-.72v.72V195h.72l.72-.84h-.72.72v-.72h1.56v-.72h1.44V192h1.56v.72h2.16v-1.56h.84-.84l.84-.72v-.72h.72v-2.28h-.72V186h.72l.72-.84h.72v-.72h.84-.84V183h-.72.72v-.84.84l.84-.84v.84h.72v1.44h.72v.72h1.56v2.28h.72v.72l.72.84h.72v.72-.72.72h.84V189h.72v-.84.84h.72v-1.56h.72v.72h-.72v.84h.72v.72h.84l.72-.72h-.72.72l-.72-.84V186h-.84.84-.84v-.84.84l-.72-.84h.72v-.72l.84-.72h.72v.72h.72V186h1.56v-.84h1.44-.72.72-.72l.72.84h.72v-.84h1.56v-.72h.72v-.72h.84v-3h-.84.84V180h-.84v-.84h-.72 1.56v-.72.72h.72v.84h1.44v-.84h3l.84.84v.72h.72v1.44h3v.84-.84 1.56h-.72v.72h-.84V186v-.84.84h-.72.72v.72h.84v.72h-.84.84-.84.84v.72h.72v-.72.72-.72h.72v2.28l-.72.72h.72v.72h.72v.84h.84v.72h-.84v1.44h-.72v.84h.72-.72v.72h-.72V195h-.72v-.84h-.84v.84-.84h-.72v1.56h.72v.72h2.28-.72.72v.72h-.72v.84h.72v-.84.84-.84h.72v.84h.84-.84.84v1.44h.72v.72h.72v.84h.72-.72.72v1.44h-.72.72-.72v2.28h.72-1.44v.72h.72-.72v.72h-.72.72v-.72h-.72v-.72h-.84v-1.56h-.72v-.72h-1.44v-.72h-.84V201h-.72v-.84h-.72v-.72z"/>
    </g>
    <g region="MOR-RM" short-name="Mor. RM" long-name="Morelos by Relative Majority" value="2">
      <path d="M468.48 148.44v.72h.72v.84h.72v.72h1.56v.72h1.44v-.72h.84V150h.72v-.84 1.56h.72v.72h-.72v3.72h-.72.72-.72v1.56h.72v.72h-.72V159h.72-.72.72v1.44h.72-.72.72-.72.72v.72h-.72v-.72V162h.72v.72h.84v1.44h-.84v-.72l-.72-.72h-.72l-.84-.72h-1.44v.72h-.72v1.44h-.84v.84h-.72v.72h-.72V165l-.72.72h-1.56V165h-.72l-.72.72h-3l-.84.72v.72l-.72-.72V165h-.72v-.84h.72-.72v-.72h.72-.72.72V162h-.72v-.84h-.72v-.72.72h-.84v-.72h-.72V159h-.72l.72-.84h-.72v-1.44h-.72V156h.72v-2.28h.72v-1.56h.72v-.72h.84V150l.72.72V150h1.44l.84-.84v.84h.72l.72-.84v.84h1.56v-.84.84-.84h.72v-.72h.72-.72v-.72h.72V147v.72h.72v.72z"/>
    </g>
    <g region="GRO-RM" short-name="Gro. RM" long-name="Guerrero by Relative Majority" value="2">
      <path d="M466.2 145.44h1.56v-.72h.72-.72.72V144h.72v.72h.72V144h.84v-.84h1.44v-.72h.72v-.72h.84-.84V141h-.72v-.84h-.72.72v-.72h-.72.72v-.72h1.56V138v.72-.72.72-.72h2.28v-.84h1.44v.84h1.56v.72h1.44l.72-.72h.84-.84.84v-3.84h-.84v-.72h-.72v-2.28h-.72.72v-.72h.72-.72.72v-.72h.84-.84.84V129h2.16-.72v-.84h.72v-1.44h.84-.84v-2.28h.84v-.72h.72-.72V123h.72v-.84h-.72v-1.44h-.84.84l.72-.72v-1.56h.72v.72h.72V117h1.56v-.84.84-.84h1.44v-.72h.84v-.72h-.84v-2.28.72-1.44h.84v-2.28h-.84V108h-.72v-.84h-.72v-.72h-1.56.84v-.72h-.84V105h.84v-.84h-.84v-.72h.84-2.28l-.72-.72h-.84v.72h-.72v-.72h-.72.72v-1.56h.72v-1.44h.84-.84V99v.72V99v.72V99v.72h-1.44V99h-.72v-1.56h-2.28v-.72h-.72v.72h-.84v.72h-.72V99h-.72v.72h-.72v.72h-.84v.72l-.72.84v.72h-1.56V102h-3l-.72.72h-2.28v.72h-2.16l-.84.72h-3v.84h-3.72v.72h-3V105h-.72v.72h-2.28v.72h-1.44v.72h-.84v.84h-1.44.72v.72-.72h-.72v.72-.72.72h.72v.72h-1.44v-.72.72-.72.72-.72h-.84.84-.84v.72-.72l.84.72h-.84.84-.84v.72h-.72l-.72.84h-1.56v.72h-2.16v.72h-2.28v.72h-2.28v.84h-1.44l-.84.72h-2.28v.72h-1.44l-.72.72h-2.28v.84h-1.56v.72h-2.16v.72h-2.28v.72h-2.28v.84-.84.84-.84.84-.84h-.72v.84h.72v.72h-.72v.72-.72.72h-.72v.72h-1.56v.84h-.72v.72h-1.56v.72h-1.44v.72h-2.28v.84h-.72v1.44h-.72v.72h-2.28.72v.84h-.72.72-.72v-.84.84-.84.84h-.72v.72h-.84v.72h-.72v.72h-.72v.84h-.72v.72h-.84v1.44h-.72v.84h-.72v.72h-1.56v.72h-1.44v.72h-3.72v-.72h-.84v.72h-.72v.84h-.72v.72h.72-.72.72-.72v.72h.72v3h3v.72h1.56v.84l.72-.84v.84h.72v.72h.72V144h.84v.72h-.84.84v.72h-.84.84v.72h-.84.84v.84h-.84v2.16h.84-.84V151.44h.84v.72h.72v.84h4.44v-.84h.84v-1.44h1.44V150h2.28v.72h.72V150v.72h1.56l.72.72h3v-.72h3.72v.72-.72h.72v.72V150h.84v-.84h1.44v.84-.84h.72v.84h2.28v-.84h.72v-.72h.84v-.72.72h.72v-.72h.72V147h.72v.72h.84v.72h-1.56l.72.72h-.72v.84h-1.44l-.84.72v3h.84-.84V156h-.72v3.72h1.56-.84V159h1.56v-.84h-.72.72-.72 1.44v1.56h.72v.72h.84v-.72l.72-.72v.72-.72h.72l.72-.84h.84v-.72h.72-.72.72V156h-.72v-2.28h.72v-3h1.56V150l-.84-.84.84-.72h.72l.72-.72V147v.72h1.56v.72h.72v.72h.72v.84-.84.84h.72v.72-.72.72-.72.72h.84v.72h.72v.72h.72-.72.72v.84h1.56v-.84h1.44-.72v.84h1.44v.72h1.56v.72h.72v-.72h.72v1.44l.84.84v.72h1.44V156v1.44h-.72.72-.72.72v.72-.72.72-.72h.72v-.72h1.56V156v.72-.72h2.28v.72-.72h.72v-2.28h.72v-1.56h.72v-.72h.84V150l.72.72V150h1.44l.84-.84v.84h.72l.72-.84v.84h1.56v-.84.84-.84h.72v-.72h.72-.72v-.72h.72z"/>
    </g>
    <g region="CMX-RM" short-name="CDMX RM" long-name="Ciudad de México by Relative Majority" value="2">
      <path d="M460.2 172.44v.72-.72.72h.72v.84h.84v.72l.72.72h-.72.72-.72v.72h1.44v1.56h.72v.72l.84-.72h-.84v-1.56h1.56v-.72h.72V174h-.72.72v-.84h1.56v-.72h-.84.84v-.72h.72-.72v-1.56h.72l-.72-.72h.72v-.72h-.72l.72-.72v-2.28h-2.28V165h-.72l-.72.72h-3l-.84.72v.72h-.72v1.56h-1.44v.72h.72l-.72.72v.84l.72.72v.72z"/>
    </g>
    <g region="VER-RM" short-name="Ver. RM" long-name="Veracruz de Ignacio de la Llave by Relative Majority" value="2">
      <path d="M496.2 237.72v1.44h-.72v1.56h-.72v1.44h-.72V246h-.84v-.84h-.72v-.72h-.72v.72h-.72.72-.72v.84h-.84v1.44h-.72v.72h-2.28v-.72.72-.72.72h-.72v.84h-.72v.72h-.72V249v.72h-.84v.72h-.72v.72-.72h-.72v.72-.72h-1.56.84-.84v-.72h.84V249h-2.28v.72-.72h-.72v.72h-.84V249v.72h-1.44V249h-3.84v-2.28.72h.84v.72h1.44v-.72h.84l.72-.72h.72l.72-.72h.84l.72-.84h.72v-.72.72h.72v-1.44h-.72V243l-.72-.84h-.72v-3h-.84v-1.44h-.72v.72h-.72v-.72h-.72V237h.72v.72h.72V237h-.72.72v-.84h-.72v-1.44h1.44-.72V234h.72v-.84h.84-.84v-.72h-.72v-.72h-.72.72-.72V231v.72h-.72v-1.56.84l-.84-.84v.84h-.72.72v-.84h-.72v-.72h.72v-.72h-.72.72-.72.72v-1.56h1.56v-1.44h.72v-1.56h.72-.72.72l-.72-.72h.72v.72-.72h.84v-.72h-.84.84-1.56v-1.56l-.72-.72h.72v-.72h.72v.72-.72.72h.84v-.72h-.84.84-.84.84v-1.56h.72v-.72h.72v.72h1.56v.84h.72v-.84.84-.84.84h.72v-.84h-.72v-.72h1.44v.72-.72h.84v-.72h.72l.72-.72v-.84h-.72v-.72.72l-.72-.72h.72-.72V213h-.84v-.84h.84l-.84-.72-.72-.72h.72-.72.72V210h-.72.72v-.84.84-.84h.84-.84v-.72.72-.72h-1.44v.72-.72h-.72v.72h.72-.72v1.56h-.84V210l-.72.72V210h-.72v-.84h-.72.72-.72v-1.44h.72-1.56V207v.72-.72h-.72v-.84h1.56v.84h.72v.72h.72-.72.72-.72v-1.56h-.72v-.72h-.84v-.72h.84V204h-1.56v-.84h.72-.72v-1.44h-1.44V201h.72v-.84h.72v-3h2.28v.84h.72v.72h-.72 2.28v.72h.72v.72h.72v.84h.72v.72h.84v.72h1.44v.72h.72v1.56h.84v.72h.72v.72h-.72.72v-.72h.72-.72v-.72h1.44-.72v-2.28h.72-.72 1.56v.72h.72v.84h.72v2.16h-.72.72v.84h-.72v1.44h.72V210h1.56-.84.84-.84.84v-.84.84h2.16v-.84h.84-.84v-1.44h-.72V207h.72-.72l.72-.84v.84-1.56h-.72 1.56-.84.84-.84v-.72h.84v-1.56h.72v.84-.84h2.28v-.72.72-.72h.72v-.72h-.72V201h-1.56v-1.56h-.72v.72h-.72v.84h-.84v-2.28h-.72.72V198h.84v-.84h.72-.72v-.72h-.84v-.72h.84V195h-.84.84v-.84h-.84 1.56v-.72h.72v.72h1.56-.84v-.72h.84-.84.84V192v.72-.72h1.44v.72h.72v1.44h.84v1.56h2.16V195h.84v-.84h.72v.84h.72v-.84h1.56v-.72h2.16v-.72h-.72V192h-.72v-.84h-.72v-1.44h-.84v-1.56h-.72.72v-.72h-.72v-.72h-.72v-4.56h.72v-.72h-1.44v-.72h-.84V180h-.72v.72-3h.72V177h1.56v-.84l-.72-.72h-.84v-.72h.84V174h.72v.72h1.44V174h.84v-.84h.72v-.72h.72v.72h.72v-.72h1.56v.72h.72v-.72h1.56V171h-.84v-.84h-.72v-.72h.72V168h-.72v.72-.72.72h-1.44v.72-.72.72-.72h-2.28.72l-.72-.72v-.84h-.72v-1.44h-.84.84-.84v-2.28h.84v-.72l.72-.72h-.72v-.84h-1.56.72v-.72l-.72.72v-1.44h-.72.72v-1.56h-.72.72-.72v-.72h.72l-.72-.72h.72-.72.72V156v.72h.72V156h.84v-.84h.72v.84-.84h2.28V153h.72v-.84h.72v-.72h.72V153h1.56v.72h2.28V153h.72v-.84h.72v.84h.84v-1.56h.72V150l.72.72V150v.72h.72V150h-.72v-.84h.72v.84h.84v-.84h-.84.84-.84.84v.84-.84 1.56h-.84v.72h.84V153h-.84v.72-.72h-.72v.72h.72l-.72.72h.72v.72h.84v.84h-.84.84v.72h.72V156h.72v-.84.84-.84h3v-.72h.72v-.72h.84v-1.56h.72v-.72h.72v-.72h.72V150h.84v-.84h-.84.84-.84.84v-.72h.72V146.16h.72v-.72h.72v-.72h.84v.72h.72v-.72h-.72V144h1.44v.72h1.56V144v.72-.72h1.44v.72h1.56V144h.72v.72-.72.72-.72.72h.72v.72h.72v-3h.84v-.72h.72v-3h-.72v-1.56h-.84V135h-.72v-.84h.72l-.72-.72v.72-.72h.72v-.72h.84V132h.72v-1.56.72h.72v-.72h1.56v-.72l.72-.72v.72h.72v.72-.72h1.56-.84 1.56v.72-.72.72h.72v.72h1.56-.84.84v.84-.84.84h.72v.72h.72v.72-.72.72h2.28v.72h-.72 1.44v.84-.84.84h1.56v-.84h.72-.72.72v-1.44h-1.44V132h-.84.84-.84.84v-.84h.72-.72.72v-.72h2.28V129h-.84v-2.28h1.56V126h1.44v-.84h2.28v-.72.72h1.56v-.72h-.84.84l-.84-.72h.84V123h-.84v-.84l.84-.72h3v.72h3v-.72h.72l.72.72 1.56-1.44v1.44l.72-.72h15l.72 1.56.72 1.44h.84l.72.72h1.44v.84h.84v1.44l-.84.72v1.56h.84-.84.84v.72h-.84v-.72.72h.84v2.28h-1.56v.72h-.72v.72-.72.72h-.72v1.56h-.84.84-.84.84-1.56v.72-.72h-.72v.72h-.72.72-1.56.84-.84.84v.72-.72.72h-2.28.72-.72v1.56h-.72.72v.72-.72.72h-.72v-.72.72h-.84.84-.84v-.72.72h-.72v.72-.72.72-.72h-.72V141h-.72.72-.72v1.44h.72v.72h-.72.72v.84h-.72.72v.72h-.72v3h-.84V147v1.44h-.72.72-1.44v-.72h-2.28V147h-3v-.84.84-.84H574.32v.84h-.72v.72h-.84V150h-1.44v1.44h-1.56V153h-.72v.72h-.72v1.44h-.72v.84h-5.28v.72h-.72v1.44h-.84v-.72.72h-.72v.84-.84.84h-1.44v.72-.72.72h-.84V159h-1.44v.72-.72.72h-1.56V159h-6v.72h-2.28v.72h-1.44v.72H542.76v.84h-1.44v.72h-.84v1.44h-.72v3h-3v.84h-.72.72v.72h-.72v.72h.72-.72V171h-.72.72-.72.72-1.56v.72h-.72v.72h-1.44v.72h-.84v1.56h-.72.72l-.72.72v3h-.72v.72h-.72v2.28h-.84v.72-.72.72h.84-.84v2.28h-.72v2.28h-.72v.72h-.72v.72h-.84v.84h-.72v.72h-.72v1.44h-.72v.84h-.84v.72h-.72v.72l-.72.72v.84h-.72l-.84.72-.72.72v.72h-.72l-.72.84-.84.72-.72.72v.72h-.72v.84h-.84v.72h-.72v.72h-.72v.72h-.72v.84h-.84v.72h-.72v.72h-.72v.72h-.72v3h-.84v1.56h-.72v1.44h-.72v1.56h-.72v1.44h-.84v1.56h-.72v1.44h-.72v2.28h-.72v2.28h.72v1.44h.72v2.28h.72-.72.72v3h-1.44v.72h-.72v.84h-.84v.72h-.72v.72h-.72v.72h-.72v.84h-.84v.72h-.72v-1.56h.72v-.72h.84v-.72h.72V231h.72v-1.56h.72l.84-.72v.72-.72h.72v-3h-.72V225v.72-2.28h-.84v-.72h-.72V226.44v-.72.72h-2.28v.72h-.72v1.56h-.72v1.44h-.72v1.56h-.84v3h-.72v.72h.72V237Z"/>
      <path d="M496.2 234.72h.84-.84.84v-1.56.84-.84h.72v-.72h.72v.72-.72.72h-.72v.84h-.72v1.44h-.84v.72z"/>
      <path d="M500.76 228h.72v.72h-.72.72-.72.72-.72v.72z"/>
      <path d="M502.2 226.44v-.72h-.72V225h.72-.72.72v-1.56.72-.72.72h.84v2.28h.72z"/>
    </g>
    <g region="TLA-RM" short-name="Tlax. RM" long-name="Tlaxcala by Relative Majority" value="2">
      <path d="M479.04 174.72h-.84v.72h-.72v-.72.72h-3v.72h-.72v.84-.84h.72v1.56h-.72.72v1.44h1.56v-.72.72h.72v.84h1.44v-.84h3l.84.84v.72h.72v1.44h2.28v-1.44.72-.72h1.44v.72-.72h.72v.72h.84v-.72h.72v1.44h.72v-.72h.72v-.72h.84V180h.72v-.84h1.44v-.72h.84V177v.72-.72h-.84.84-.84.84v-.84.84-.84h2.16v-.72h1.56V174h.72v-.84h1.56-.84.84v-.72h-.84v-.72h-2.16V171h-.84v.72h-2.16V171h.72v-.84h.72v-.72h-.72v.72-.72h-1.56v-.72h-.72v.72h-1.44v.72h-.84v-.72h-.72v-.72h-.72v-1.56h-1.56v-.72.72-.72.72h-1.44v.84h-.72v.72h-1.56V168v.72h-.72.72l-.72.72h-.72V171h-.84v.72h-.72v.72-.72.72h-.72.72-.72.72-.72V174h-.72z"/>
    </g>
    <g region="PUE-RM" short-name="Pue. RM" long-name="Puebla by Relative Majority" value="2">
      <path d="M472.2 138.72v.72h-.72.72v.72h-.72.72v.84h.72v.72h.84-.84v.72h-.72v.72h-1.44v.84h-.84v.72h-.72V144h-.72v.72h-.72.72-.72v.72h-1.56v2.28h.72v.72h1.56v.72h.72v.84h.72v.72h1.56v.72h1.44v-.72h.84V150h.72v-.84 1.56h.72v.72h-.72v3.72h-.72.72-.72v1.56h.72v.72h-.72V159h.72-.72.72v1.44h.72-.72.72-.72.72v.72h-.72v-.72V162h.72v.72h.84v3.72l-.84.72h.84v6h-.84 1.56-.72v1.56h-.84v.72h2.28v-.72.72h.72v-.72h.84V174h.72v-1.56h.72-.72.72-.72.72v-.72.72-.72h.72V171h.84v-1.56h.72l.72-.72h-.72.72V168v.72h1.56V168h.72v-.84h1.44v-.72.72-.72.72h1.56v1.56h.72v.72h.72v.72h.84v-.72h1.44v-.72h.72v.72h1.56v.72-.72h.72v.72h-.72v.84h-.72v.72h2.16V171h.84v.72h2.16v.72h.84v.72h-.84.84-1.56v.84h-.72v1.44h-1.56v.72h-2.16v.84-.84.84h-.84.84-.84.84v.72-.72 1.44h-.84v.72h-1.44v.84h-.72v.72h-.84v.72h-.72v.72h-.72v-1.44h-.72v.72h-.84v-.72h-.72v.72-.72h-1.44v.72-.72 1.44h.72v.84-.84 1.56h-.72v.72h-.84V186v-.84.84h-.72.72v.72h.84v.72h-.84.84-.84.84v.72h.72v-.72.72-.72h.72v2.28l-.72.72h.72v.72h.72v.84h.84v.72h-.84v1.44h-.72v.84h.72-.72v.72h-.72V195h-.72v-.84h-.84v.84-.84h-.72v1.56h.72v.72h2.28-.72.72v.72h-.72v.84h.72v-.84.84-.84h.72v.84h.84-.84.84v1.44h.72v.72h.72v.84h.72-.72.72v1.44h.84v.72h.72v.84h.72v2.16h-.72.72v.84h-.72v1.44h.72V210h1.56-.84.84-.84.84v-.84.84h2.16v-.84h.84-.84v-1.44h-.72V207h.72-.72l.72-.84v.84-1.56h-.72 1.56-.84.84-.84v-.72h.84v-1.56h.72v.84-.84h2.28v-.72.72-.72h.72v-.72h-.72V201h-1.56v-1.56h-.72v.72h-.72v.84h-.84v-2.28h-.72.72V198h.84v-.84h.72-.72v-.72h-.84v-.72h.84V195h-.84.84v-.84h-.84 1.56v-.72h.72v.72h1.56-.84v-.72h.84-.84.84V192v.72-.72h1.44v.72h.72v1.44h.84v1.56h2.16V195h.84v-.84h.72v.84h.72v-.84h1.56v-.72h2.16v-.72h-.72V192h-.72v-.84h-.72v-1.44h-.84v-1.56h-.72.72v-.72h-.72v-.72h-.72V182.16h.72v-.72h-1.44v-.72h-.84V180h-.72v.72-3h.72V177h1.56v-.84l-.72-.72h-.84v-.72h.84V174h.72v.72h1.44V174h.84v-.84h.72v-.72h.72v.72h.72v-.72h1.56v.72h.72v-.72h1.56V171h-.84v-.84h-.72v-.72h.72V168h-.72v.72-.72.72h-1.44v.72-.72.72-.72H509.76h.72l-.72-.72v-.84h-.72v-1.44h-.84.84-.84v-2.28h.84v-.72l.72-.72h-.72v-.84h-1.56.72v-.72l-.72.72v-1.44h-.72.72v-1.56h-.72.72-.72v-.72h.72l-.72-.72h.72-.72.72V156v.72h.72V156h.84v-.84h.72v.84-.84h2.28V153h.72v-.84h.72v-.72h.72V153h1.56v.72h2.28V153h.72v-.84h.72v.84h.84v-1.56h.72V150l.72.72V150v.72h.72V150h-.72v-.84.84h-.72v-1.56h-.72v-.72h-.84v-1.56h-1.44v-.72.72h-.72v-.72h-1.56v-.72h-1.56.84-.84v-1.56h-.72v.84-.84h-.72v.84h-.72v.72h-.84l-.72-.72h-1.44v-.84.84h-.84v-.84.84-.84h-.72v-.72h-.72v-.72.72-.72.72h-.72V141h-.84v.72-1.56h-.72.72-.72v-.72h.72v-.72h-1.44v1.44h-.72v1.56l-.84.72h-.72v.72h-.72v.84h-.72.72v.72l.72.72-.72.72h-1.56v-.72.72h-2.16v.84-.84h-1.56v-.72h.72-.72V144h.72l-.72-.84h-.72.72-.72v-.72h.72-.72.72-.72.72-.72l.72-.72V141h.72v-.84.84l-.72-.84h.72-.72v-1.44h.72-.72.72v.72-.72.72h.84v.72h-.84.84v.84h.72v-.84l.72-.72h-.72v-.72h-.72.72-.72V138h-.84v-.84h-3 .84v.84h-.84v.72h-1.44v.72-.72.72-.72h-.72v.72-.72h-.84l-.72.72v-.72h-.72V138h-.72v-1.56h-1.56v-.72 1.44h-1.44v-.72h-.84v-.72.72h-.72l-.72-.72h-.72V138h-.84.84-.84l-.72.72h-1.44V138h-1.56v-.84h-1.44v.84h-2.28v.72-.72.72-.72.72z"/>
    </g>
    <g region="MIC-RM" short-name="Mich. RM" long-name="Michoacán de Ocampo by Relative Majority" value="2">
      <path d="M404.64 195.72v-1.56.84-.84.84-.84h-.72.72-.72v-.72h-.72v-.72h-.72v.72h-.84v-.72.72h-1.44v-.72.72h-1.56v-.72h-.72v.72h-.72.72-.72.72-.72v2.28h-.72.72v.72h-.72v.72l-.84-.72v-.72V198v-.84h-3.72v-.72h-3v.72-.72h-4.56v-.72h-.72V195h-.72v-.84.84h-.72v-.84h-.84v.84-1.56h-3.72l-1.44-.72h-2.28V192h-.72.72v-.84h-3 .72v-.72h-.72.72v-2.28h-.72v-.72h1.44v.72h.84v-.72h3l.72-.72 1.44-.72v-2.28h-.72V183h-1.44.72v-2.28h.72V180h-.72v-.84h.72-.72.72v-.72h1.56-.84l.84-.72h-.84.84-.84.84v-1.56.84-.84h-.84v-.72h1.56l.72-.72v.72h.72v.72h.84v-.72h.72v-.72h-.72V174h.72-.72v-1.56h-.84V171h-.72v-2.28h-.72.72-.72.72-.72V168v.72h-.72v.72-.72h-.84v.72h-.72v-.72h-1.44V168v.72l-.84-.72h-1.44v-.84h-1.56v-1.44h.84V165h-.84.84-1.56v-1.56h-.72v.72-.72h-.72.72v-.72h-.72V162h-.84v-.84h-1.44v.84h-.72v1.44h-1.56v-.72h-3V162h-.72v.72h-1.56.84-.84V162v.72-.72h-.72.72-.72v-1.56h-1.44v-.72.72h-1.56v-.72h.72v-1.56h-.72v-.72h-.72v-.72h-.72V156v.72-.72h-.84v-.84h.84v-1.44h.72-.72.72-.72V153h.72v-.84h.72v-.72h.72v-.72h.84V150h.72v-1.56h.72v-2.28h1.56v-.72h1.44-.72.72v-.72h.72-.72 2.28V144H367.2v-.84h2.16v-.72.72-.72h3v-.72h1.56V141h1.44v-.84h2.28v-.72h.72-.72 3v-.72h.72v.72-.72h2.28V138v.72-.72.72h.72V138h2.28v-.84h2.28v-.72h1.44v-.72h1.56l.72.72v.72h-.72v.84h-.72v.72h.72-.72.72-.72v.72h.72v3h3v.72h1.56v.84l.72-.84v.84h.72v.72h.72V144h.84v.72h-.84.84v.72h-.84.84v.72h-.84.84v.84h-.84v2.16h.84-.84v2.28h.84v.72h.72v.84h4.44v-.84h.84v-1.44h1.44V150h2.28v.72h.72V150v.72h1.56l.72.72h3v-.72h3.72v.72-.72h.72v.72V150h.84v-.84h1.44v.84-.84h.72v.84h2.28v-.84h.72v-.72h.84v-.72.72h.72v-.72h.72V147h.72v.72h.84v.72h-1.56l.72.72h-.72v.84h-1.44l-.84.72v3h.84-.84V156h-.72v3.72h1.56-.84V159h1.56v-.84h-.72.72-.72 1.44v1.56h.72v.72h.84v.72h.72-.72 1.44v.84h-.72.72v1.44h1.56v.72-.72.72h.72v.84h.72v1.44h.84v.72-.72.72-.72.72h.72-.72.72-.72v1.56h1.44v1.44l-.72.84h.72v1.44h.72v.72h1.56v2.28h.72v.72h-.72v.84h-.72v2.16h-.84v1.56h1.56v.72-.72h.72v.72h.72v3h.84v.72-.72.72-.72.72h.72v.84h-.72v1.44h-.84v.72h-.72.72v1.56h-.72v.72-.72.72-.72.72h-.72v-.72 3.72l-.72.72h-.84v.84h-1.44v-1.56h-.72.72v-.72h-.72V192h-.84v-.84h.84-.84.84V189h.72v-.84h-2.28v-.72h-1.56v-.72h-.72V186v1.44h-.72.72-.72v-.72.72h-.72v-.72h-.84.84v.72h.72v.72h-.72v-.72h-.84v-.72h-3V186h-.72v.72h-.72V186h-.72v.72h-3.84v1.44h.84-.84v1.56h.84-.84.84-.84.84-1.56v.72h-1.44v-.72h-1.56v.72h-.72V189h.72-.72.72-.72v-.84h-1.56v.84h-.72.72-3v-.84.84-.84h-.72v.84h-.72v.72h.72v1.44h.72-.72v.84h-.72l1.44 1.44v.72h-.72.72-.72v.84h-.72v.72h-.72v.72-.72h-1.56v.72-.72.72h-.72v-.72.72h-.72v-.72z"/>
    </g>
    <g region="MEX-RM" short-name="Méx. RM" long-name="Estado de México by Relative Majority" value="2">
      <path d="M463.2 177.72h.72v.72l.84-.72h-.84v-1.56h1.56v-.72h.72V174h-.72.72v-.84h1.56v-.72h-.84.84v-.72h.72-.72v-1.56h.72l-.72-.72h.72v-.72h-.72l.72-.72v-2.28h-.72l.72-.72v.72h.72V165h.72v-.84h.84v-1.44h.72V162h1.44l.84.72h.72l.72.72v.72h.84v2.28l-.84.72h.84v6h-.84 1.56-.72v1.56h-.84v.72h-.72v.72h-.72v.84-.84h.72v1.56h-.72.72v1.44h.72v.84h.84v.72h-.84.84v3h-.84v.72h-.72v.72h-1.56v.84h-.72l-.72-.84h.72-.72.72-1.44v.84h-1.56v-1.56h-.72v-.72h-.72l-.84.72v.72h-.72l.72.84v-.84.84h.84-.84.84v2.16l.72.84h-.72.72l-.72.72h-.84V189h-.72v-.84h.72v-.72h-.72V189h-.72v-.84.84h-.72v.72h-.84V189v.72-.72h-.72l-.72-.84v-.72h-.72v-2.28h-1.56v-.72h-.72V183h-.72v-.84l-.84.84v-.84.84h-.72.72v1.44h.84-.84v.72h-.72l-.72.84h-.72v1.44h.72v2.28h-.72v.72l-.84.72h.84-.84v1.56h-2.16V192h-1.56v.72h-1.44v.72h-1.56v.72h-.72.72l-.72.84h-.72v.72-.72h-1.56v.72-.72h-.72v-.84h.72-.72.72-.72v.84h-.72v-2.28h.72v-2.28h.72v-.72h-1.44v.72h-.84.84-.84v-.72h-.72V189h-.72v-.84.84h-1.56v-.84h-.72.72v-.72h.84V186h.72v-.84h-.72v-.72.72-.72.72-.72h-.84v-3h-.72v-.72h-.72v.72-.72h-1.56v-1.56h.84V177h.72v-.84h.72v-.72h-.72v-2.28h-1.56v-.72h-.72V171h-.72l.72-.84v-1.44h-1.44v-1.56h.72-.72.72-.72v-.72.72-.72.72-.72h-.84V165h-.72v-.84h-.72v-.72.72-.72h-1.56V162h-.72.72v-.84h-1.44.72-.72v-.72h-.84.84v-.72l.72-.72v.72-.72h.72l.72-.84h.84v-.72h.72-.72.72V156h-.72v-2.28h.72v-3h1.56V150l-.84-.84.84-.72h.72l.72-.72V147v.72h1.56v.72h.72v.72h.72v.84-.84.84h.72v.72-.72.72-.72.72h.84v.72h.72v.72h.72-.72.72v.84h1.56v-.84h1.44-.72v.84h1.44v.72h1.56v.72h.72v-.72h.72v1.44l.84.84v.72h1.44V156v1.44h-.72.72-.72.72v.72-.72.72-.72h.72v-.72h1.56V156v.72-.72h2.28v.72h.72v1.44h.72l-.72.84h.72v1.44h.72v.72h.84v-.72.72h.72v.84h.72v1.44h-.72.72-.72v.72h.72-.72v.84h.72v1.44l.72.72h-.72v1.56h-1.44v.72h.72l-.72.72v.84l.72.72v.72h.72v.72-.72.72h.72v.84h.84v.72l.72.72h-.72.72-.72v.72h1.44v.84Z"/>
    </g>
    <g region="YUC-RM" short-name="Yuc. RM" long-name="Yucatán by Relative Majority" value="2">
      <path d="M711.6 206.16V204l-.72-.84h-.72l-3-3v-.72h-.72l-.84-1.44-1.44-.84-1.56-1.44V195h.84v-.84h-1.56l-3.72-3-1.56-1.44-2.16 2.28-1.56.72-.72 1.44v.84h-.72v.72l-1.56 1.44-.72.84-.72.72v.72l-.84.72-.72.84v.72h-.72l2.28 1.44-2.28.84-.72-.84-1.56 1.56h-.72v.72l-.72 1.56-.84.72 1.56 2.28h.72v.72h-3.72V213h-2.28l-.72-2.28-.84-.72-1.44.72h-1.56V213h-3.72v1.44l-.72 3v2.28h-.72v1.44h.72v2.28h.72V225h1.56v.72h.72v.72h.72v.72h.72l.84.84h.72v.72h2.28v.72h.72v.72h1.44v.84h1.56v.72H683.16v.72h3v.72h2.28v.84h3.72v.72h3.72v.72h3v.72h3v.84H704.16v.72h2.28v.72h.72v.72h.72v.84h.72v.72h2.28v.72h2.28v.72h3.72v.84h1.56v.72h.72v.72h1.56v-.72h1.44v.72h2.28v-.72h2.28V243h3v-.84h.72v.84-.84.84-.84h3.72V237l.72-.84h-3v-1.44l.84-2.28v-.72h2.16l3 .72v.72h.84v-3h-.84v.84l-3-1.56h-.72v-2.28l-.72-.72h-.72V225l-.84-1.56-.72-1.44h3.72l-1.44-2.28V219h-3v-1.56h-.72l-2.28-1.44-.72-.84h-.84v-.72l-.72-.72h-.72V213l.72-2.28h-.72l-.72 2.28-.84-.84v-.72h-.72l-1.44-1.44v1.44l-.84-.72-.72-.72-.72-.84h-3l-.84-.72v-2.28l-1.44-1.44z"/>
    </g>
    <g region="TAB-RM" short-name="Tab. RM" long-name="Tabasco by Relative Majority" value="2">
      <path d="M614.04 132v-.84h-.72.72v-.72.72h.84v.84h.72-.72 2.16-.72.72v-.84h-.72.72-.72v-.72.72h.72v-.72h-.72v-.72.72-.72h.72l-.72.72h.72v-.72.72h.84v-.72.72-.72h.72v-1.56l.72.84h.72v.72h.84v1.44-.72V132h.72v.72h.72-.72.72v.72h.72l.84.72h.72v.84h2.28v.72h.72v.72-.72h.72v.72h-.72V138h2.28v.72h.72-.72.72v.72l.72.72h1.56-.84.84v1.56h.72v.72-.72h.72v.72h.72-.72v.72-.72.72h1.56v.84h-.84.84v.72h.72V144h.72v-.84h.72v.84h.84v-.84.84h.72v-.84.84h.72v-.84h.84v-3h-.84v-.72h.84-.84 2.28v-.72.72-.72h1.56V138v.72-.72.72-1.56h.72v-.72h.72-.72.72-.72.72v-.72h-.72.72-.72.72-.72v-2.28h-.72v-.72.72-.72h2.16V132h3v-.84h.84v.84h.72v-1.56h.72v-.72h-.72v-1.56l4.44.84h6v6l-.72 1.44v9l-.72.72h.72-.72v.84h-6v.72h-.72v.72h-1.56v.72h-.72v-.72h-.72v.72-.72.72h-2.28v.84h-.72.72-.72.72v.72h-.72.72-.72v.72-.72h-.84.84-.84v.72-.72h-.72v-1.56h-.72v-4.44h.72l-.72-.72h-.72l-.84.72h-1.44v.72-.72.72h-1.56v.72h-.72v-.72h-.72v.72-.72.72h-1.56l-.72.84h-.72v.72h-1.56v.72h.72-3V150h-.72v3h.72v3.72h-4.44v.72h-.72v-.72h-.84.84-.84v.72h-.72v.72h-.72v2.28h-.72V162h-.84v-.84h-2.16v-.72h-3V159l-.84-.84v-.72h-.72v-.72h-1.44V156h-2.28v-.84h-11.28v-.72h-2.28v-.72h-2.28V153h-2.16v-.84h-1.56v-.72h-1.44v-.72h-2.28V150h-1.56v-.84h-2.16v-.72h-.84V147v.72h.84v-3h.72V144h-.72.72v-.84h-.72.72v-.72h-.72V141h.72-.72.72v-1.56h.72v.72-.72.72-.72h.72v-.72.72h.84-.84.84v-.72.72h.72v-.72.72-.72h-.72.72v-1.56h.72-.72 2.28v-.72.72-.72h-.84.84-.84 1.56-.72.72v-.72h.72v.72-.72h1.56-.84.84-.84.84v-1.56h.72v-.72.72-.72h.72v-.72h1.56v-2.28h-.84v-.72.72h.84v-.72h-.84.84-.84v-1.56l.84-.72V126l1.44 1.44v.72h.84v1.56h.72-.72.72-.72.72v3h1.44v.72h.84V135h1.44v1.44h-.72V138h-.72 1.44-.72l.72 1.44v.72h-.72v1.56h.72-.72v.72h1.44V144h.84v-.84h2.16v-.72h.84v-.72h.72v-1.56h.72v.84h.72l-.72-.84h1.56-.84.84v-1.44h-.84v-2.28.72h.84l-.84-.72h.84-.84.84-.84.84-.84v-.72.72h.84v-.72h-.84V135h.84v-1.56h.72l-.72-.72h.72V132v.72-.72h.72z"/>
    </g>
    <g region="OAX-RM" short-name="Oax. RM" long-name="Oaxaca by Relative Majority" value="2">
      <path d="M523.32 156h-.84.84v-.84h-.84v-.72h-.72l.72-.72h-.72V153h.72v.72-.72h.84v-1.56h-.84v-.72h.84v-1.56.84-.84h-.84.84-.84.84v.84h-.84v-.84h-.72v.84-.84.84h-.72v-1.56h-.72v-.72h-.84v-1.56h-1.44v-.72.72h-.72v-.72h-1.56v-.72h-1.56.84-.84v-1.56h-.72v.84-.84h-.72v.84h-.72v.72h-.84l-.72-.72h-1.44v-.84.84h-.84v-.84.84-.84h-.72v-.72h-.72v-.72.72-.72.72h-.72V141h-.84v.72-1.56h-.72.72-.72v-.72h.72v-.72h-1.44v1.44h-.72v1.56l-.84.72h-.72v.72h-.72v.84h-.72.72v.72l.72.72-.72.72h-1.56v-.72.72h-2.16v.84-.84h-1.56v-.72h.72-.72V144h.72l-.72-.84h-.72.72-.72v-.72h.72-.72.72-.72.72-.72l.72-.72V141h.72v-.84.84l-.72-.84h.72-.72v-1.44h.72-.72.72v.72-.72.72h.84v.72h-.84.84v.84h.72v-.84l.72-.72h-.72v-.72h-.72.72-.72V138h-.84v-.84h-3 .84v.84h-.84v.72h-1.44v.72-.72.72-.72h-.72v.72-.72h-.84l-.72.72v-.72h-.72V138h-.72v-1.56h-1.56v-.72 1.44h-1.44v-.72h-.84v-.72.72h-.72l-.72-.72h-.72v.72-2.28h-.84v-.72h-.72v-2.28h-.72.72v-.72h.72-.72.72v-.72h.84-.84.84V129h2.16-.72v-.84h.72v-1.44h.84-.84v-2.28h.84v-.72h.72-.72V123h.72v-.84h-.72v-1.44h-.84.84l.72-.72v-1.56h.72v.72h.72V117h1.56v-.84.84-.84h1.44v-.72h.84v-.72h-.84V112.44v.72-1.44h.84v-2.28h-.84V108h-.72v-.84h-.72v-.72h-1.56.84v-.72h-.84V105h.84v-.84h-.84v-.72h.84-2.28l-.72-.72h-.84v.72h-.72v-.72h-.72.72v-1.56h.72v-1.44h.84-.84V99v.72V99v.72V99v.72h-1.44V99h-.72v-1.56h-2.28v-.72h.72V96h2.28v-.84h4.44v-.72h1.56v-.72h1.44V93h1.56l.72-.84h.72v-.72h1.56v-.72h.72l.72-.72h.84v-.84h1.44v-.72h7.56v-.72h7.44V87h1.56v-.84h1.44v-.72h.84v-.72h2.16V84h1.56v-.84h4.44v-.72h1.56v-.72h3.72v.72h4.56v.72-.72h1.44v.72h1.56V84h.72-.72.72v.72h1.44v.72h1.56v.72h2.28V87h2.16v.72h.84v.72h3v.72h1.44V90h2.28v.72h2.28v.72h.72V93h.72v.72h1.56v.72h.72v.72h1.56V96h1.44-.72v.72h.72-.72.72-.72.72V96h2.28v.72h2.28l.72.72h9v-.72h3.72l.72-.72h1.56l1.44-.84h1.56l.72-.72h.72l.84-.72h.72v.72h-.72v.72l-.84 1.56v.72h.84v.72h.72V102l-.72.72v.72l.72.72h-.72l-1.56-.72-.72.72-1.56 2.28-.72 2.28v1.44l.72 1.56.84-.72.72-.84v.84h-.72.72v.72h.72v.72h.72l.84-.72V114h.72-.72v-.84h.72v1.56h-.72V114v3h-.84v.72h.84v.72h-1.56v.72h-1.44v.84-.84.84l.72.72h5.28l.72.72h-15l-.72.72v-1.44l-1.56 1.44-.72-.72h-.72v.72h-3v-.72h-3l-.84.72v.84h.84v.72h-.84l.84.72h-.84.84v.72h-1.56v-.72.72h-2.28v.84h-1.44v.72h-1.56V129h.84v1.44h-2.28v.72h-.72.72-.72v.84h-.84.84-.84.84v.72h1.44v1.44h-.72.72-.72v.84h-1.56v-.84.84-.84h-1.44.72v-.72h-2.28v-.72.72-.72h-.72V132h-.72v-.84.84-.84h-.84.84-1.56v-.72h-.72v-.72.72-.72h-1.56.84-1.56v.72-.72h-.72V129l-.72.72v.72h-1.56v.72h-.72v-.72V132h-.72v.72h-.84v.72h-.72v.72-.72l.72.72h-.72v.84h.72v2.16h.84v1.56h.72v3h-.72v.72h-.84v3h-.72v-.72h-.72V144v.72-.72.72-.72h-.72v.72h-1.56V144h-1.44v.72-.72.72h-1.56V144h-1.44v.72h.72v.72h-.72v-.72h-.84v.72h-.72v.72h-.72v2.28h-.72v.72h-.84.84-.84.84v.84h-.84v.72h-.72v.72h-.72v.72h-.72v1.56h-.84v.72h-.72v.72h-3v.84-.84.84h-.72v.72h-.72z"/>
    </g>
    <g region="CHP-RM" short-name="Chis. RM" long-name="Chiapas by Relative Majority" value="2">
      <path d="M673.32 110.16v.84h.84-.84v-.84h-.72v.84h-.72v-.84 1.56h-.72v1.44h.72-1.56.84v.84h-.84v1.44h-.72v.72h-.72v.84h-.72v.72h-1.56v.72h-3V120h-.72v-.84 1.56h-.72v-1.56.84h-1.56v.72h-.72.72-.72v.72h-.72V123h-.84v-.84l-.72.84h-.72v.72h-.72v1.44h-1.56v.84h.72v.72h-2.16V126v.72h-.84v.72h-1.44v2.28h.72v.72h-.72V132h-.72v-.84h-.84v.84h-3v.72h-2.16v.72-.72.72h.72v2.28h.72-.72.72-.72.72v.72h-.72.72-.72.72-.72v.72h-.72v1.56-.72.72-.72.72h-1.56v.72-.72.72h-2.28.84-.84v.72h.84v3h-.84v.84h-.72v-.84.84h-.72v-.84.84h-.84v-.84h-.72v.84h-.72v.72h-.72V144h-.84.84v-.84h-1.56v-.72.72-.72h.72-.72v-.72h-.72v.72-.72h-.72v-1.56h-.84.84-1.56l-.72-.72v-.72h-.72.72-.72V138h-2.28v-1.56h.72v-.72h-.72v.72-.72h-.72V135h-2.28v-.84h-.72l-.84-.72h-.72v-.72h-.72.72-.72V132h-.72v-1.56.72-1.44h-.84V129h-.72l-.72-.84v1.56h-.72v.72-.72.72h-.84v-.72.72h-.72l.72-.72h-.72v.72-.72.72h.72v.72h-.72v-.72.72h.72-.72.72v.84h-.72.72-2.16.72-.72v-.84h-.84v-.72.72h-.72.72v.84h-1.44v.72-.72.72h-.72l.72.72h-.72V135h-.84v.72h.84v.72h-.84v-.72.72h.84-.84.84-.84.84-.84l.84.72h-.84v-.72 2.28h.84v1.44h-.84.84-1.56l.72.84h-.72v-.84h-.72v1.56h-.72v.72h-.84v.72h-2.16v.84h-.84v-1.56h-1.44v-.72h.72-.72v-1.56h.72v-.72l-.72-1.44h.72-1.44.72v-1.56h.72V135h-1.44v-1.56h-.84v-.72h-1.44v-3h-.72.72-.72.72-.72v-1.56h-.84v-.72L597.6 126h-.84v-.84h-1.44l-.72-.72h-.84l-.72-1.44-.72-1.56-.72-.72h-5.28l-.72-.72v-.84.84-.84h1.44v-.72h1.56v-.72h-.84V117h.84v-3 .72h.72v-1.56h-.72v.84h.72-.72v-2.28l-.84.72h-.72v-.72h-.72V111h-.72.72v-.84l-.72.84-.84.72-.72-1.56v-1.44l.72-2.28 1.56-2.28.72-.72 1.56.72h.72l-.72-.72v-.72l.72-.72v-3.84h-.72v-.72h-.84v-.72l.84-1.56v-.72h.72v-.72h.72V93h3v-.84h1.56v-.72h1.44l.72-.72h.84V90h1.44v-.84h.84l.72-.72h.72v-.72h.72V87h1.56v-.84h.72v-.72h1.56v-.72h.72V84h.72v-.84h1.56v-.72h.72v-.72h.72V81h1.56v-.84h.72v-.72h.72v-.72h.72V78h.84v-.84h1.44v-.72l.72-.72h.84V75h.72v-.84h.72v-.72h.72v-.72h.84V72h.72l.72-.84.72-.72.84-.72.72-.72h.72v-.84h.72v-.72h.84v-.72h.72V66h.72v-.84h.72v-.72h.84v-.72h.72l.72-.72.72-.84h.84v-.72h.72v-.72h.72V60h.72v-.84h1.56v-.72V60h.72v1.44h.72v2.28h-.72V66h-.72v.72h.72v.72h.72v.72h-.72.72V69h-.72.72-.72v1.44h.72v.72h.84V72h.72-.72v.72h.72l-1.56 1.44-1.44 1.56v.72l-.72.72.72 1.56v.72l.72 1.56.72 1.44.84.72v1.56l.72 1.44.72.84v.72l.84.72v.72l.72.84.72 1.44v.72l1.56 2.28v.72l.72 1.56.72.72v.72h2.28l1.44.84h8.28l1.56.72h9.72l3.72.72h4.56V102v-.84h-.84v.84h.84v.72h-.84.84v.72h-.84V105h.84-.84v.72h.84V105v.72h-.84v.72h.84-.84.84v.72h.72v.84h-.72v.72h.72V108v.72h-.72.72v.72h-3 .72v.72h-1.44z"/>
    </g>
    <g region="CAM-RM" short-name="Camp. RM" long-name="Campeche by Relative Majority" value="2">
      <path d="M631.32 225.72h-.72l-.72 1.44h1.44z"/>
      <path d="M632.04 219.72h-1.44v1.44h1.44z"/>
      <path d="M649.32 168.72h-.72V168h-.72v.72h.72z"/>
      <path d="M648.6 168v-.84.84-.84.84h-.72.72v-.84h-.72.72-.72v.84Z"/>
      <path d="M642.6 163.44v-.72h-1.44.72v.72z"/>
      <path d="M642.6 163.44h-.72.72-.72v.72-1.44h-.72v.72-.72h-2.28.72-.72.72-.72.72V162h-.72v.72-.72.72h-.84.84-.84.84-.84.84v.72h2.28v.72h1.44v.84h.72v.72h1.56v.72h.72v-.72h.72-.72.72-.72.72-.72.72-.72V165h-1.44v.72-.72h-.84.84v-.84h-.84.84-1.56.72v-.72h-.72v.72-.72h-.72.72v.72h.72-.72z"/>
      <path d="M640.32 159v-.84h-.72.72-.72v.84Z"/>
      <path d="M667.32 195v.72-.72.72h.84v.72h.72-.72.72v2.28h-.72.72v.72h-.72v3h-.84v.72h.84v.84h-.84v5.16h-.72v.84h.72-.72v.72h.72-.72v1.44h.72v4.56-.72.72-.72.72h.84v1.44h.72v1.56-.72h-.72v-1.56h-.84v.72h.84v1.56h.72v-2.28l.72-3V213h3.72v-2.28h1.56l1.44-.72.84.72.72 2.28h2.28v-2.28h3.72V210h-.72l-1.56-2.28.84-.72.72-1.56v-.72h.72l1.56-1.56.72.84 2.28-.84-2.28-1.44h.72V201l.72-.84.84-.72v-.72l.72-.72.72-.84 1.56-1.44V195h.72v-.84l.72-1.44 1.56-.72 2.16-2.28.84-.72 2.16-3 1.56-1.56v-3l.72-1.44v-3l-.72-.84h-1.56v-3l.84-.72h1.44V171l.72-.84v-6.72h.84l.72-.72V162h-.72v-6.84l.72-.72V147h-3.72l-2.28-.84h-4.56l-9.72-.72-2.28-.72h-7.44l-2.28-.72h-8.28l-3-.84v2.28l-.72.72h.72-.72v.84h-6v.72h-.72v.72h-1.56v.72h-.72v-.72h-.72v.72-.72.72h-2.28v.84h-.72.72-.72.72v.72h-.72.72-.72v.72-.72h-.84.84-.84v.72-.72h-.72v-1.56h-.72v-4.44h.72l-.72-.72h-.72l-.84.72h-1.44v.72-.72.72h-1.56v.72h-.72v-.72h-.72v.72-.72.72h-1.56l-.72.84h-.72v.72h-1.56v.72h.72-3V150h-.72v3h.72v3.72h-4.44v.72h-.72v-.72h-.84.84-.84v.72h-.72v.72h-.72v2.28h-.72V162h2.16v.72h4.56v.72h3.72l.72.72v-.72h1.56V162h1.44v-1.56h-.72v.72-1.44h1.56-.84V159h.84-.84.84-.84v.72-.72h2.28-.72v-1.56.72-.72h-.72.72v.72-.72h-.72.72-.72v-.72.72h.72v-.72h-.72.72V156h2.28v-.84h.72-.72v.84h-.72v1.44h-1.56l.72.72v-.72h.84v.72h-.84v.84h.84v-.84h6v.84-.84h.72-.72.72v1.56-.72h-1.56.84v-.84h-.84v.84h.84v.72h1.44v.72h1.56v.72h1.44v2.28-.72.72h.72v.72h-.72.72v1.56h.84-.84v.72h.84-.84l-.72.72h-.72v-.72h-.72v.72h-.84v-.72.72h-.72l.72.84v.72h.84-.84v.72-.72.72h.84v.72h1.44v.84h.72v.72h1.56v.72h.72v.72h.72-.72v-.72h-1.44.72-.72v-.72h-.84V171h-.72.72-1.44v-.84.84-.84h-.72.72-.72v-.72h-.84v-.72.72-.72.72-.72.72h-.72.72-.72v-.72h-.72v-1.56h.72-1.44.72-.72v-.72.72h.72-.72v-.72h-.84v.72h.84v.84h.72v.72h.72v.72h.72v.72h.84v.84h1.44v.72h1.56v.72h.72v.72h1.44v1.56h1.56v.72h.72v.72h.72v.84h.84l1.44 1.44v.72h.72v.84h.84v.72h.72v.72h.72v6.72h.72v1.56h-.72v.72l.72.72v1.56h.84v.72h.72v.72h.72v.84Z"/>
    </g>
    <g region="ROO-RM" short-name="Q. Roo RM" long-name="Quintana Roo by Relative Majority" value="2">
      <path d="M750.72 244.44h.72V243v1.44h-.72.72v-.72h-.72v1.44z"/>
      <path d="M751.44 241.44h.72V240v.72h-.72v1.44z"/>
      <path d="M752.88 237.72h.84V237v.72h-.84v.72z"/>
      <path d="M752.88 220.44h-.72 1.56v.72h.72v.84h.72v-1.56h-.72V219h-.72v-.84h-.84v-1.44h-.72V216l-.72-.84v-.72h-.72v-.72h-.84V213h-.72v1.44h-.72v3h.72v.72l.72.84v.72h.84-.84.84v.72h.72z"/>
      <path d="M740.16 197.16v.84-.84.84Z"/>
      <path d="M734.88 194.16h.84v-.72h-.84v-.72.72h.84v-.72h-.84.84v.72-.72h-.84.84V192h-.84.84-.84.84-.84.84v.72-.72.72h.72v.72-.72.72h.72v.72h1.56-.84.84-.84.84v-.72.72-.72h.72v.72h-.72.72v.84-.84.84h1.44v.72h-.72.72-.72v.72h.72-.72.72v-.72h.84v-2.28h-.84v-.72h.84-.84v-1.56h-.72l-.72-.72h-.72l-.84-.72h-1.44v-1.56h-.72.72-.72.72v-.72.72-.72h-.72v.72-.72h.72-.72.72v-.72.72V186h-.72.72-.72v-.84h-.84 1.56v.84l-.72-.84.72.84v-.84h-.72.72-.72.72v-.72.72-.72h1.44v.72h-.72.72v.84h.84-.84l.84.72h-.84V186v.72h.84v.72h.72v.72h.72v-1.44.72l.72.72h-.72 1.56-.84v-1.44h-.72V186h-.72v-4.56l-.72-.72v-2.28h-.84v-3h-.72.72-.72v-3h-.72v-5.28h-.72.72-.72.72-.72.72v-.72h-.72.72V165h-.72v-1.56h-.84V159h-.72l-.72-.84h-3l-.72 4.56v1.44h-5.28v1.56h-3V165v.72h-1.56V165h-.72v.72-.72.72-.72h-.72v-.84h-.84v-3h-.72v-.72h-.72v-.72.72h.72v-.72h-.72V159h.72-.72.72-.72v-.84h-.72v-.72h-.84v-.72.72-2.28h-.72.72-.72v-.72h.72-.72v-.72h-.72v-1.56h-.72.72l-.72-.72v-.72h-1.56V150h.72-.72v-.84.84h-1.44v.72h-1.56v.72h-.72v.72h-.72v-.72h-1.56v-.72h-.72V150v4.44l-.72.72V162h.72v.72l-.72.72h-.84v6.72l-.72.84v1.44h-1.44l-.84.72v3h1.56l.72.84v3l-.72 1.44v3L699.6 186l-2.16 3-.84.72 1.56 1.44 3.72 3h1.56v.84h-.84v.72l1.56 1.44 1.44.84.84 1.44h.72v.72l3 3h.72l.72.84v2.16l1.56-1.44 1.44 1.44v2.28l.84.72h3l.72.84.72.72.84.72V210l1.44 1.44h.72v.72l.84.84.72-2.28h.72l-.72 2.28v.72h.72l.72.72v.72h.84l.72.84 2.28 1.44h.72V219h3v.72l1.44 2.28h-3.72l.72 1.44.84 1.56v1.44h.72l.72.72v2.28h.72l3 1.56v-.84h.84v3h-.84v-.72l-3-.72h-2.16v.72l-.84 2.28v1.44h3l-.72.84v5.16h.72v-.72h.84l.72.72v-.72h4.44-.72 1.56-.84.84v.72-.72h.72v.72h.72v.84h.72v1.44-.72.72h-1.44V243v1.44h-.72 1.44-.72v.72-.72.72-.72.72-.72h-.72.72-.72.72-.72v-.72h-.84V243h-2.16v.72h-.84V243v.72h1.56V243h.72v.72h1.56-2.28.72-.72V243v.72h-.72v.72-.72.72-.72h-.84v.72V243v.72-.72h-.72v.72h.72v.72h.84-.84 1.56v-.72h.72v.72h2.28v.72h.72v.84h2.28-.72 1.44v-.84h.72-.72.72v-.72h.84V243h.72v-.84h.72v-1.44l.72-.72v-1.56h.84v-.72h.72-.72V240h.72v1.44h-.72v.72-.72.72-.72.72h.72v-.72.72-.72.72-6.72h1.44v-3h-.72v-.72h-.72v-3h-.72v-1.56h-.84v-1.44h-.72v-1.56h-.72v-.72h-.72v-.72h-.84v-1.56h-.72v-.72h-.72v-.72h-.72V219h-.84v-.84h-.72v-.72h-.72V216h-.72.72-.72v-1.56h-.84.84-.84v-2.28h-.72.72-.72v-.72h-.72v-2.28h-.72v-3.72h.72V204h.72v-.84.84-3h-.72v-1.56V201v-.84.84h.72v2.16h-.72v.84-1.56h.72-.72V201l-.72-.84h-.84.84-1.56v-.72l-.72-.72V198l-.72-.84V195h-.84.84-.84v.72-.72.72h.84-.84.84v1.44h-.84v-.72h-1.44v-2.28h1.44-.72v-.72h1.56v.72z"/>
      <path d="M740.16 189.72V189h.72-1.44v.72z"/>
      <path d="M737.16 186v-.84.84h.72z"/>
      <path d="M744.72 174.72h.72-.72v.72z"/>
      <path d="M744.72 174v-.84h-.84v.84Z"/>
      <path d="M747.72 174.72v-1.56h.72v-.72h-.72l.72-.72h-.72v3h-.84z"/>
      <path d="M747.72 170.16h-.84.84v1.56z"/>
      <path d="M746.16 170.16h-.72.72v.84Z"/>
      <path d="M746.16 169.44v-.72h.72v-2.28h-.72v-.72h-.72V165v.72h.72v1.44h.72-.72v2.28h.72z"/>
      <path d="M743.88 168h-.72.72v-.84h-.72.72v.84h-.72v.72h.72z"/>
      <path d="M743.88 171.72h-.72.72v.72z"/>
    </g>
    <g region="CMX-FM" short-name="CDMX FM" long-name="Ciudad de México by First Minority" value="1" transform="scale(1 -1)">
      <path d="M466.64-169.23a2.25 2.25 0 0 1-2.25 2.25 2.25 2.25 0 0 1-2.25-2.25 2.25 2.25 0 0 1 2.25-2.25 2.25 2.25 0 0 1 2.25 2.25z"/>
    </g>
    <g region="COL-FM" short-name="Col. FM" long-name="Colima by First Minority" value="1" transform="scale(1 -1)">
      <path d="M356.97-163.45a3.75 3.75 0 0 1-3.75 3.75 3.75 3.75 0 0 1-3.75-3.75 3.75 3.75 0 0 1 3.75-3.75 3.75 3.75 0 0 1 3.75 3.75z"/>
    </g>
    <g region="MIC-FM" short-name="Mich. FM" long-name="Michoacán de Ocampo by First Minority" value="1" transform="scale(1 -1)">
      <path d="M420.53-158.87a3.75 3.75 0 0 1-3.75 3.75 3.75 3.75 0 0 1-3.75-3.75 3.75 3.75 0 0 1 3.75-3.75 3.75 3.75 0 0 1 3.75 3.75z"/>
    </g>
    <g region="GRO-FM" short-name="Gro. FM" long-name="Guerrero by First Minority" value="1" transform="scale(1 -1)">
      <path d="M481.7-108.46a3.75 3.75 0 0 1-3.76 3.75 3.75 3.75 0 0 1-3.75-3.75 3.75 3.75 0 0 1 3.75-3.75 3.75 3.75 0 0 1 3.75 3.75z"/>
    </g>
    <g region="MOR-FM" short-name="Mor. FM" long-name="Morelos by First Minority" value="1" transform="scale(1 -1)">
      <path d="M471.33-154.88a3.75 3.75 0 0 1-3.75 3.75 3.75 3.75 0 0 1-3.75-3.75 3.75 3.75 0 0 1 3.75-3.75 3.75 3.75 0 0 1 3.75 3.75z"/>
    </g>
    <g region="MEX-FM" short-name="Méx. FM" long-name="Estado de México by First Minority" value="1" transform="scale(1 -1)">
      <path d="M456-163.25a3.75 3.75 0 0 1-3.76 3.75 3.75 3.75 0 0 1-3.75-3.75 3.75 3.75 0 0 1 3.75-3.75 3.75 3.75 0 0 1 3.75 3.75z"/>
    </g>
    <g region="TLA-FM" short-name="Tlax. FM" long-name="Tlaxcala by First Minority" value="1" transform="scale(1 -1)">
      <path d="M491.85-174a3.75 3.75 0 0 1-3.75 3.74 3.75 3.75 0 0 1-3.75-3.75 3.75 3.75 0 0 1 3.75-3.75 3.75 3.75 0 0 1 3.75 3.75z"/>
    </g>
    <g region="OAX-FM" short-name="Oax. FM" long-name="Oaxaca by First Minority" value="1" transform="scale(1 -1)">
      <path d="M574.55-107.31a3.75 3.75 0 0 1-3.75 3.75 3.75 3.75 0 0 1-3.75-3.75 3.75 3.75 0 0 1 3.75-3.75 3.75 3.75 0 0 1 3.75 3.75z"/>
    </g>
    <g region="VER-FM" short-name="Ver. FM" long-name="Veracruz de Ignacio de la Llave by First Minority" value="1" transform="scale(1 -1)">
      <path d="M591.07-128.78a3.75 3.75 0 0 1-3.75 3.75 3.75 3.75 0 0 1-3.75-3.75 3.75 3.75 0 0 1 3.75-3.75 3.75 3.75 0 0 1 3.75 3.75z"/>
    </g>
    <g region="TAB-FM" short-name="Tab. FM" long-name="Tabasco by First Minority" value="1" transform="scale(1 -1)">
      <path d="M657.42-138.14a3.75 3.75 0 0 1-3.75 3.75 3.75 3.75 0 0 1-3.75-3.75 3.75 3.75 0 0 1 3.75-3.75 3.75 3.75 0 0 1 3.75 3.75z"/>
    </g>
    <g region="CHP-FM" short-name="Chis. FM" long-name="Chiapas by First Minority" value="1" transform="scale(1 -1)">
      <path d="M665.59-107.66a3.75 3.75 0 0 1-3.75 3.75 3.75 3.75 0 0 1-3.75-3.75 3.75 3.75 0 0 1 3.75-3.75 3.75 3.75 0 0 1 3.75 3.75z"/>
    </g>
    <g region="CAM-FM" short-name="Camp. FM" long-name="Campeche by First Minority" value="1" transform="scale(1 -1)">
      <path d="M699.85-153.09a3.75 3.75 0 0 1-3.75 3.75 3.75 3.75 0 0 1-3.75-3.75 3.75 3.75 0 0 1 3.75-3.75 3.75 3.75 0 0 1 3.75 3.75z"/>
    </g>
    <g region="YUC-FM" short-name="Yuc. FM" long-name="Yucatán by First Minority" value="1" transform="scale(1 -1)">
      <path d="M701.65-199.9a3.75 3.75 0 0 1-3.75 3.74 3.75 3.75 0 0 1-3.75-3.75 3.75 3.75 0 0 1 3.75-3.75 3.75 3.75 0 0 1 3.75 3.75z"/>
    </g>
    <g region="ROO-FM" short-name="Q. Roo FM" long-name="Quintana Roo by First Minority" value="1" transform="scale(1 -1)">
      <path d="M731.93-173.8a3.75 3.75 0 0 1-3.75 3.74 3.75 3.75 0 0 1-3.75-3.75 3.75 3.75 0 0 1 3.75-3.75 3.75 3.75 0 0 1 3.75 3.75z"/>
    </g>
    <g region="HID-FM" short-name="Hgo. FM" long-name="Hidalgo by First Minority" value="1" transform="scale(1 -1)">
      <path d="M481.26-190.74a3.75 3.75 0 0 1-3.75 3.75 3.75 3.75 0 0 1-3.75-3.75 3.75 3.75 0 0 1 3.75-3.75 3.75 3.75 0 0 1 3.75 3.75z"/>
    </g>
    <g region="GUA-FM" short-name="Gto. FM" long-name="Guanajuato by First Minority" value="1" transform="scale(1 -1)">
      <path d="M428.26-194.79a3.75 3.75 0 0 1-3.75 3.75 3.75 3.75 0 0 1-3.75-3.75 3.75 3.75 0 0 1 3.75-3.75 3.75 3.75 0 0 1 3.75 3.75z"/>
    </g>
    <g region="QUE-FM" short-name="Qro. FM" long-name="Querétaro de Arteaga by First Minority" value="1" transform="scale(1 -1)">
      <path d="M444.09-202.52a3.75 3.75 0 0 1-3.75 3.75 3.75 3.75 0 0 1-3.75-3.75 3.75 3.75 0 0 1 3.75-3.75 3.75 3.75 0 0 1 3.75 3.75z"/>
    </g>
    <g region="SLP-FM" short-name="S. L. P. FM" long-name="San Luis Potosí by First Minority" value="1" transform="scale(1 -1)">
      <path d="M471.32-236.01a3.75 3.75 0 0 1-3.75 3.75 3.75 3.75 0 0 1-3.75-3.75 3.75 3.75 0 0 1 3.75-3.75 3.75 3.75 0 0 1 3.75 3.75z"/>
    </g>
    <g region="TAM-FM" short-name="Tamps. FM" long-name="Tamaulipas by First Minority" value="1" transform="scale(1 -1)">
      <path d="M488.62-257.73a3.75 3.75 0 0 1-3.75 3.75 3.75 3.75 0 0 1-3.75-3.75 3.75 3.75 0 0 1 3.75-3.75 3.75 3.75 0 0 1 3.75 3.75z"/>
    </g>
    <g region="JAL-FM" short-name="Jal. FM" long-name="Jalisco by First Minority" value="1" transform="scale(1 -1)">
      <path d="M389.98-203.62a3.75 3.75 0 0 1-3.75 3.75 3.75 3.75 0 0 1-3.75-3.75 3.75 3.75 0 0 1 3.75-3.75 3.75 3.75 0 0 1 3.75 3.75z"/>
    </g>
    <g region="AGS-FM" short-name="Ags. FM" long-name="Aguascalientes by First Minority" value="1" transform="scale(1 -1)">
      <path d="M394.4-237.49a3.75 3.75 0 0 1-3.76 3.75 3.75 3.75 0 0 1-3.75-3.75 3.75 3.75 0 0 1 3.75-3.75 3.75 3.75 0 0 1 3.75 3.75z"/>
    </g>
    <g region="NAY-FM" short-name="Nay. FM" long-name="Nayarit by First Minority" value="1" transform="scale(1 -1)">
      <path d="M348.38-224.97a3.75 3.75 0 0 1-3.75 3.75 3.75 3.75 0 0 1-3.75-3.75 3.75 3.75 0 0 1 3.75-3.75 3.75 3.75 0 0 1 3.75 3.75z"/>
    </g>
    <g region="ZAC-FM" short-name="Zac. FM" long-name="Zacatecas by First Minority" value="1" transform="scale(1 -1)">
      <path d="M384.09-257a3.75 3.75 0 0 1-3.75 3.75 3.75 3.75 0 0 1-3.75-3.75 3.75 3.75 0 0 1 3.75-3.75 3.75 3.75 0 0 1 3.75 3.75z"/>
    </g>
    <g region="NLE-FM" short-name="N. L. FM" long-name="Nuevo León by First Minority" value="1" transform="scale(1 -1)">
      <path d="M442.25-287.91a3.75 3.75 0 0 1-3.75 3.75 3.75 3.75 0 0 1-3.75-3.75 3.75 3.75 0 0 1 3.75-3.75 3.75 3.75 0 0 1 3.75 3.75z"/>
    </g>
    <g region="COA-FM" short-name="Coah. FM" long-name="Coahuila de Zaragoza by First Minority" value="1" transform="scale(1 -1)">
      <path d="M417.95-317a3.75 3.75 0 0 1-3.75 3.76 3.75 3.75 0 0 1-3.75-3.75 3.75 3.75 0 0 1 3.75-3.75 3.75 3.75 0 0 1 3.75 3.75z"/>
    </g>
    <g region="DUR-FM" short-name="Dgo. FM" long-name="Durango by First Minority" value="1" transform="scale(1 -1)">
      <path d="M362.74-305.21a3.75 3.75 0 0 1-3.75 3.75 3.75 3.75 0 0 1-3.75-3.75 3.75 3.75 0 0 1 3.75-3.75 3.75 3.75 0 0 1 3.75 3.75z"/>
    </g>
    <g region="SIN-FM" short-name="Sin. FM" long-name="Sinaloa by First Minority" value="1" transform="scale(1 -1)">
      <path d="M309.74-265.46a3.75 3.75 0 0 1-3.75 3.75 3.75 3.75 0 0 1-3.75-3.75 3.75 3.75 0 0 1 3.75-3.75 3.75 3.75 0 0 1 3.75 3.75z"/>
    </g>
    <g region="CHH-FM" short-name="Chih. FM" long-name="Chihuahua by First Minority" value="1" transform="scale(1 -1)">
      <path d="M351.7-365.58a3.75 3.75 0 0 1-3.75 3.75 3.75 3.75 0 0 1-3.75-3.75 3.75 3.75 0 0 1 3.75-3.75 3.75 3.75 0 0 1 3.75 3.75z"/>
    </g>
    <g region="SON-FM" short-name="Son. FM" long-name="Sonora by First Minority" value="1" transform="scale(1 -1)">
      <path d="M244.22-365.95a3.75 3.75 0 0 1-3.75 3.75 3.75 3.75 0 0 1-3.75-3.75 3.75 3.75 0 0 1 3.75-3.75 3.75 3.75 0 0 1 3.75 3.75z"/>
    </g>
    <g region="BCN-FM" short-name="B. C. FM" long-name="Baja California by First Minority" value="1" transform="scale(1 -1)">
      <path d="M148.88-405.33a3.75 3.75 0 0 1-3.75 3.75 3.75 3.75 0 0 1-3.75-3.75 3.75 3.75 0 0 1 3.75-3.75 3.75 3.75 0 0 1 3.75 3.75z"/>
    </g>
    <g region="BCS-FM" short-name="B. C. S. FM" long-name="Baja California Sur by First Minority" value="1" transform="scale(1 -1)">
      <path d="M219.55-275.77a3.75 3.75 0 0 1-3.75 3.75 3.75 3.75 0 0 1-3.75-3.75 3.75 3.75 0 0 1 3.75-3.75 3.75 3.75 0 0 1 3.75 3.75z"/>
    </g>
    <g region="PUE-FM" short-name="Pue. FM" long-name="Puebla by First Minority" value="1" transform="scale(1 -1)">
      <path d="M506.12-152.85a3.75 3.75 0 0 1-3.75 3.75 3.75 3.75 0 0 1-3.75-3.75 3.75 3.75 0 0 1 3.75-3.75 3.75 3.75 0 0 1 3.75 3.75z"/>
    </g>
    <path region="PR" short-name="PR" long-name="Proportional Representation" value="32" d="M589.27 376.81h122.19c3.75 0 6.79 4.26 6.79 9.52v15.87c0 5.27-3.04 9.52-6.8 9.52H589.28c-3.76 0-6.79-4.25-6.79-9.52v-15.87c0-5.26 3.03-9.52 6.79-9.52z" style="stroke-width:.678429"/>
  </g>
  <g map-type="region-texts" fill="currentColor" transform="matrix(.93 0 0 .93 71.5 -577.48)">
    <text for-region="PR" x="718.93" y="809.52" style="font-size:27.9998px;stroke-width:.999997" xml:space="preserve">			 <tspan x="731.68" y="809.52" style="font-size:27.9998px;stroke-width:.999997">Proportional</tspan>		</text>
  </g>
</svg>