<?xml version="1.0" encoding="UTF-8" standalone="no"?>
<!-- viewport="0 0 959 593"
   style="width: 100%; height:100%;"
   width="940"
   height="593"

-->

<svg
   viewBox="0 0 959 593"
   id="testing-map"
   version="1.1"
   sodipodi:docname="usa.svg"
   inkscape:version="1.1.2 (b8e25be833, 2022-02-05)"
   xmlns:inkscape="http://www.inkscape.org/namespaces/inkscape"
   xmlns:sodipodi="http://sodipodi.sourceforge.net/DTD/sodipodi-0.dtd"
   xmlns="http://www.w3.org/2000/svg"
   xmlns:svg="http://www.w3.org/2000/svg"
   candidates="[ 
      {&quot;id&quot;:&quot;0&quot;, &quot;name&quot;:&quot;Joe Custom Candidate Biden&quot;, &quot;margins&quot;: [{ &quot;color&quot;: &quot;#000055&quot; }, { &quot;color&quot;: &quot;#000099&quot; }, { &quot;color&quot;: &quot;#0000ff&quot; }]},
      {&quot;id&quot;:&quot;1&quot;, &quot;name&quot;:&quot;Donald Unique&quot;, &quot;margins&quot;: [{ &quot;color&quot;: &quot;#550000&quot; }, { &quot;color&quot;: &quot;#990000&quot; }, { &quot;color&quot;: &quot;#ff0000&quot; }]} 
   ]">
  <sodipodi:namedview
     id="namedview1395"
     pagecolor="#ffffff"
     bordercolor="#666666"
     borderopacity="1.0"
     inkscape:pageshadow="2"
     inkscape:pageopacity="0.0"
     inkscape:pagecheckerboard="0"
     showgrid="false"
     inkscape:zoom="4.4880084"
     inkscape:cx="818.62592"
     inkscape:cy="318.84967"
     inkscape:window-width="2560"
     inkscape:window-height="1369"
     inkscape:window-x="2552"
     inkscape:window-y="-8"
     inkscape:window-maximized="1"
     inkscape:current-layer="g416145" />
  <g
     class="regions"
     id="areas"
     style="display:inline;fill:#bc0000;fill-opacity:1">
    <path
       class="al"
       short-name="al"
       long-name="Alabama"
       value="9"
       candidate-id="1"
       d="m 643,467.4 0.4,-7.3 -0.9,-1.2 -1.7,-0.7 -2.5,-2.8 0.5,-2.9 48.8,-5.1 -0.7,-2.2 -1.5,-1.5 -0.5,-1.4 0.6,-6.3 -2.4,-5.7 0.5,-2.6 0.3,-3.7 2.2,-3.8 -0.2,-1.1 -1.7,-1 v -3.2 l -1.8,-1.9 -2.9,-6.1 -12.9,-45.8 -45.7,4 1.3,2 -1.3,67 4.4,33.2 0.9,-0.5 1.3,0.1 0.6,0.4 0.8,-0.1 2,-3.8 v -2.3 l 1.1,-1.1 1.4,0.5 3.4,6.4 v 0.9 l -3.3,2.2 3.5,-0.4 4.9,-1.6 z"
       id="path1290"
       style="fill:#bc0000;fill-opacity:1" />
    <path
       class="ak"
       short-name="ak"
       long-name="Alaska"
       value="3"
       candidate-id="1"
       d="m 15.8,572 h 2.4 l 0.7,0.7 -1,1.2 -1.9,0.2 -2.5,1.3 -3.7,-0.1 2.2,-0.9 0.3,-1.1 2.5,-0.3 z m 8.3,-1.7 1.3,0.5 h 0.9 l 0.5,1.2 0.3,-0.6 0.9,0.2 1.1,1.5 v 0.5 l -4.2,1.9 -2.4,-0.1 -1,-0.5 -1.1,0.7 h -2 l -1.1,-1.4 4.7,-0.5 z m 5.4,-0.1 1,0.1 0.7,0.7 v 1 L 29.9,572.1 29,571 Z m 2.5,0.3 1.3,-0.1 -0.1,1 -1.1,0.6 z m 0.3,2.2 3.4,-0.1 0.2,1.1 -1.3,0.1 -0.3,-0.5 -0.8,0.6 -0.4,-0.6 -0.9,-0.2 z m 166.3,7.6 2.1,0.1 -1,1.9 -1.1,-0.1 -0.4,-0.8 0.5,-1.3 m -1.1,-2.9 0.6,-1.3 -0.2,-2.3 2.4,-0.5 4.5,4.4 1.3,3.4 1.9,1.6 0.3,5.1 H 207 l -1.3,-2.3 -3.1,-2.4 H 202 l 1.1,2.8 1.7,0.2 0.2,2.1 -0.9,0.1 -4.1,-4.4 -0.1,-0.9 1.9,-1 v -1 l -0.5,-0.8 -1.6,-0.6 -1.7,-1.3 1.4,0.1 0.5,-0.4 -0.6,-0.9 -0.6,0.5 z m -3.6,-9.1 1.3,0.1 2.4,2.5 -0.2,0.8 -0.8,-0.1 -0.1,1.8 0.5,0.5 v 1.5 l -0.8,0.3 -0.4,1.2 -0.8,-0.4 -0.4,-2.2 1.1,-1.4 -2.1,-2.2 0.1,-1.2 z m 1.5,-1.5 1.9,0.2 2.5,0.1 3.4,3.2 -0.2,0.5 -1.1,0.6 -1.1,-0.2 -0.1,-0.7 -1.2,-1.6 -0.3,0.7 1,1.3 -0.2,1.2 -0.8,-0.1 -1.3,0.2 -0.1,-1.7 -2.6,-2.8 z m -12.7,-8.9 0.9,-0.4 h 1.6 l 0.7,-0.5 4.1,2.2 0.1,1.5 -0.5,0.5 h -0.8 l -1.4,-0.7 1.1,1.3 h 1.8 l 0.5,2 H 190 l -2.2,-1.5 -1.1,-0.2 0.6,1.3 0.1,0.9 0.8,-0.6 1.7,1.2 1.3,-0.1 -0.2,0.8 1.9,4.3 v 3.4 l 0.4,2.1 -0.8,0.3 -1.2,-2 -0.5,-1.5 -1.6,-1.6 -0.2,-2.7 -0.6,-1.7 h -0.7 l 0.3,1.1 v 0.5 l -1.4,1 0.1,-3.3 -1.6,-1.6 -1.3,-2.3 -1.2,-1.2 z m 7.2,-2.3 1.1,1.8 2.4,-0.1 1,2.1 -0.6,0.6 2,3.2 v 1.3 l -1.2,0.8 v 0.7 l -2,1.9 -0.5,-1.4 -0.1,-1.3 0.6,-0.7 v -1.1 l -1.5,-1.9 -0.5,-3.7 -0.9,-1.5 z m -56.7,-18.3 -4,4.1 v 1.6 l 2.1,-0.8 0.8,-1.9 2.2,-2.4 z m -31.6,16.6 v 0.6 l 1.8,1.2 0.2,-1.4 0.6,0.9 3.5,0.1 0.7,-0.6 0.2,-1.8 -0.5,-0.7 h -1.4 v -0.8 l 0.4,-0.6 v -0.4 l -1.5,-0.3 -3.3,3.6 z m -8.1,6.2 1.5,5.8 h 2.1 l 2.4,-2.5 0.3,1.2 6.3,-4 0.7,-1 -1,-1.1 v -0.7 l 0.5,-1.3 -0.9,-0.1 -2,1 V 556 l -2.7,-0.6 -2.4,0.3 -0.2,3.4 -0.8,-2 -1.5,-0.1 -1,0.6 z m -2.2,8.2 0.1,-0.7 2.1,-1.3 0.6,0.3 1.3,0.2 1.3,1.2 -2.2,-0.2 -0.4,-0.6 -1,0.6 z m -5.2,3.3 -1.1,0.8 1.5,1.4 0.8,-0.7 -0.1,-1.3 z m -6.3,-7.9 1.4,0.1 0.4,0.6 -1.8,0.1 z M 66,575.4 v 0.5 l 0.7,0.1 -0.1,-0.6 z m -0.4,-3.2 -1,1 v 0.5 l 0.7,1.1 1,-1 -0.7,-0.1 z m -2,-0.8 -0.3,1 -1.3,0.1 -0.4,0.2 v 1.3 l -0.5,0.9 h 0.6 l 0.7,-0.9 0.8,-0.1 0.9,-1 0.2,-1.3 z m -4.4,-2 -0.2,1.8 1.4,0.8 1.2,-0.6 v -1 l 1.7,-0.3 -0.1,-0.6 -0.9,-0.2 -0.7,0.6 -0.9,-0.5 z m -4.9,-0.1 1,0.7 -0.3,1.2 -1.4,-1.1 z m -4.2,1.3 1.4,0.1 -0.7,0.8 z m -3.5,3 1.8,1.1 -1.7,0.1 z m -25.4,-31.2 1.2,0.6 -0.8,0.6 z m -0.7,-6.3 0.4,1.2 0.8,-1.2 z m 24.3,-19.3 1.5,-0.1 0.9,0.4 1.1,-0.5 1.3,-0.1 1.6,0.8 0.8,1.9 -0.1,0.9 -1.2,2 -2.4,-0.2 -2.1,-1.8 -1,-0.4 -1.1,-2 z m -21.1,-14.4 0.1,1.9 2,2 v 0.5 L 25,506.6 23.3,505.8 23,504.7 22.7,503.1 Z M 42,479.1 v 1.2 l 1.9,1.8 h 2.3 l 0.6,1.1 v 1.6 l 2.1,1.9 1.8,1.2 -0.1,0.7 -0.7,1.1 -1.4,-1.2 -2.1,0.1 -0.8,-0.8 -0.9,-2.1 -1.5,-2.2 -2.6,-0.1 -1,-0.7 1,-2.1 z m 16.8,-4.5 h 1 l 0.1,1.1 h -1 z m 16.2,19.7 0.9,0.1 v 1.2 l -1.7,-0.5 z m 127.8,77.7 -1.2,0.4 -0.1,1.1 h 1.2 z m -157.6,-4.5 -1.3,-0.4 -4.1,0.6 -2.8,1.4 -0.1,1.9 1.9,0.7 1.5,-0.9 1.7,-0.1 4.7,1.4 0.1,-1.3 -1.6,-1.1 z m 2.1,2.3 -0.4,-1.4 1.2,0.2 0.1,1.4 H 50 l 0.4,-2.5 0.3,2.4 2.5,-0.1 3.2,-3.3 0.8,0.1 -0.7,1.3 1.4,0.9 4.2,-0.2 2.6,-1.2 1.4,-0.1 0.3,1.5 0.6,-0.5 0.4,-1.4 5.9,0.2 1.9,-1.6 -1.3,-1.1 0.6,-1.2 2.6,0.2 -0.2,-1.2 2.5,0.2 0.7,-1.1 1.1,0.2 4.6,-1.9 0.2,-1.7 5.6,-2.4 2,-1.9 1.2,-0.6 1.3,0.8 2.3,-0.9 1.1,-1.9 0.5,-1.3 1.7,-0.9 1.5,-0.7 0.4,-1.4 -1.1,-1.7 -2.2,-0.2 -0.2,-1.3 0.8,-1.6 1.4,-0.2 1.3,-1.5 1.9,-0.1 3.4,-3.2 0.4,-1.4 1.5,-2.3 3.8,-4.1 2.5,-0.9 1.9,-0.9 2.1,0.8 1.4,2.6 H 121 l -1.4,-1.5 -3,2 -1.7,0.1 -0.2,3.1 -3.1,4.9 0.6,2 h 2.3 l -0.6,1 -1.4,0.1 -2.4,1.8 v 0.9 l 1.9,1 3.4,-0.6 1.4,-1.7 1.4,0.1 3,-1.7 0.5,-2.3 1.6,-0.1 6.3,0.8 1,-1.1 1,-4.5 -1.6,1.1 0.6,-2.2 -1.6,-1.4 0.8,-1.5 0.1,1.5 h 3.4 l 0.7,-1 1.6,-0.1 -0.3,1.7 1.9,0.1 -1.9,1.3 4.1,1.1 -3.5,0.4 -1.3,1.2 0.9,1.4 4.6,-1.7 2.3,1.7 0.7,-0.9 0.6,1.4 4,2.3 h 2.9 l 3.9,-0.5 4.3,1.1 2,1.9 4.5,0.4 1.8,-1.5 0.8,2.4 -1.8,0.7 1.2,1.2 7.4,3.8 1.4,2.5 5.4,4.1 3.3,-2 -0.6,-2.2 -3.5,-2 3.1,1.2 0.5,-0.7 0.9,1.3 v 2.7 l 2.1,-0.6 2.1,1.8 -2.5,-9.8 1.2,1.3 1.4,6 2.2,2.5 2.4,-0.4 1.8,3.5 h 0.9 l 0.6,5.6 3.4,0.5 1.6,2.2 1.8,1.1 0.4,2.8 -1.8,2.6 2.9,1.6 1.2,-2.4 -0.2,3.1 -0.8,0.9 1.4,1.7 0.7,-2.4 -0.2,-1.2 0.8,0.2 0.6,2.3 -1,1.4 0.6,2.6 0.5,0.4 0.3,-1.6 0.7,0.6 -0.3,2 1.2,0.2 -0.4,0.9 1.7,-0.1 v -1 h -1 l 0.1,-1.7 -0.8,-0.6 1.7,-0.3 0.5,-0.8 v -1.6 l 0.5,1.3 -0.6,1.8 1.2,3.9 1.8,0.1 2.2,-4.2 0.1,-1.9 -1.3,-4 -0.1,-1.2 0.5,-1.2 -0.7,-0.7 -1.7,0.1 -2.5,-2 h -1.7 l -2,-1.4 h -1.5 l -0.5,-1.6 -1.4,-0.3 -0.2,-1.5 -1,-0.5 0.1,-1.7 -5.1,-7.4 -1.8,-1.5 V 554 l -4.3,-3.5 -0.7,-1.1 -1.6,-2 -1.9,-0.6 v -2.2 l -1.2,-1.3 -1.7,-0.7 -2.1,1.3 -1.6,2.1 -0.4,2.4 -1.5,0.1 -2.5,2.7 -0.8,-0.3 v -2.5 l -2.4,-2.2 -2.3,-2 -0.5,-2 -2.5,-1.3 0.2,-2.2 -2.8,-0.1 -0.7,1.1 h -1.2 l -0.7,-0.7 -1.2,0.8 -1.8,-1.2 v -85.8 l -6.9,-4.1 -1.8,-0.5 -2.2,1.1 -2.2,0.1 -2.3,-1.6 -4.3,-0.6 -5.8,-3.6 -5.7,-0.4 -2,0.5 -0.2,-1.8 -1.8,-0.7 1.1,-1 -0.2,-0.9 -3.2,-1.1 h -2.4 l -0.4,0.4 -0.9,-0.6 0.1,-2.6 -0.8,-0.9 -2.5,2.9 -0.8,-0.1 v -0.8 l 1.7,-0.8 v -0.8 l -1.9,-2.4 -1.1,-0.1 -4.5,3.1 h -3.9 l 0.4,-0.9 -1.8,-0.1 -5.2,3.4 h -1.8 l -0.6,-0.8 -2.7,1.5 -3.6,3.7 -2.8,2.7 -1.5,1.2 -2.6,0.1 -2.2,-0.4 -2.3,-1.3 v 0 l -2.8,3.9 -0.1,2.4 2.6,2.4 2.1,4.5 0.2,5.3 2.9,2 3.4,0.4 0.7,0.8 -1.5,2.3 0.7,2.7 -1.7,-2.6 v -2.4 l -1.5,-0.3 0.1,1.2 0.7,2.1 2.9,3.7 h -1.4 l -2.2,1.1 -6.2,-2.5 -0.1,-2 1.4,-1.3 v -1.4 l -2.1,-0.5 -2.3,0.2 -4.8,0.2 1.5,2.3 -1.9,-1.8 -8.4,1.2 -0.8,1.5 4.9,4.7 -0.8,1.4 -0.3,2 -0.7,0.8 -0.1,1.9 4.4,3.6 4.1,0.2 4.6,1.9 h 2 l 0.8,-0.6 3.8,0.1 0.1,-0.8 1.2,1.1 0.1,2 -2.5,-0.1 0.1,3.3 0.5,3.2 -2.9,2.7 -1.9,-0.1 -2,-0.8 -1,0.1 -3.1,2.1 -1.7,0.2 -1.4,-2.8 H 66 l -2.2,2 -0.5,1.8 -3.3,1.8 -5.3,4.3 -0.3,3.1 0.7,2.2 1,1.2 1,-0.4 0.9,1 -0.8,0.6 -1.5,0.9 1.1,1.5 -2.6,1.1 0.8,2.2 1.7,2.3 0.8,4.1 4,1.5 2.6,-0.8 1.7,-1.1 0.5,2.1 0.3,4.4 -1.9,1.4 v 4.4 l -0.6,0.9 h -1.7 l 1.7,1.2 2.1,-0.1 0.4,-1 4.6,-0.6 2,2.6 1.3,-0.7 1.3,5.1 1,0.5 1,-0.7 0.1,-2.4 0.9,-1 0.7,1.1 0.2,1.6 1.6,0.4 4.7,-1.2 0.2,1.2 -2,1.1 -1.6,1.7 -2.8,7 -4.3,2 -1.4,1.5 -0.3,1.4 -1,-0.6 -9.3,3.3 -1.8,4.1 -1.3,-0.4 0.5,-1.1 -1.5,-1.4 -3.5,-0.2 -5.3,3.2 -2.2,1.3 h -2.3 l -0.5,2.4 z"
       id="path1292"
       style="fill:#bc0000;fill-opacity:1" />
    <path
       class="az"
       short-name="az"
       long-name="Arizona"
       value="11"
       candidate-id="0"
       candidate-margin="1"
       d="m 139.6,387.6 3,-2.2 0.8,-2.4 -1,-1.6 -1.8,-0.2 -1.1,-1.6 1.1,-6.9 1.6,-0.3 2.4,-3.2 1.6,-7 2.4,-3.6 4.8,-1.7 1.3,-1.3 -0.4,-1.9 -2.3,-2.5 -1.2,-5.8 -1.4,-1.8 -1.3,-3.4 0.9,-2.1 1.4,-3 0.5,-2.9 -0.5,-4.9 1,-13.6 3.5,-0.6 3.7,1.4 1.2,2.7 h 2 l 2.4,-2.9 3.4,-17.5 46.2,8.2 40,6 -17.4,124.1 -37.3,-5.4 -64.2,-37.5 0.5,-2.9 2,-1.8 z"
       id="path1294"
       style="fill:#bc0000;fill-opacity:1" />
    <path
       class="ar"
       short-name="ar"
       long-name="Arkansas"
       value="6"
       candidate-id="1"
       d="m 584.2,367 0.9,-2.2 1.2,0.5 0.7,-1 -0.8,-0.7 0.3,-1.5 -1.1,-0.9 0.6,-1 -0.1,-1.5 -1.1,-0.1 0.8,-0.8 1.3,0.8 0.3,-1.4 -0.4,-1.1 0.1,-0.7 2,0.6 -0.4,-1.5 1.6,-1.3 -0.5,-0.9 -1.1,0.1 -0.6,-0.9 0.9,-0.9 1.6,-0.2 0.5,-0.8 1.4,-0.2 -0.1,-0.8 -0.9,-0.9 v -0.5 h 1.5 l 0.4,-0.7 -1.4,-1 -0.1,-0.6 -11.2,0.8 2.8,-5.1 1.7,-1.5 v -2.2 l -1.6,-2.5 -39.8,2 -39.1,0.7 4.1,24.4 -0.7,39 2.6,2.3 2.8,-1.3 3.2,0.8 0.2,11.9 52.3,-1.3 1.2,-1.5 0.5,-3 -1.5,-2.3 -0.5,-2.2 0.9,-0.7 v -0.8 l -1.7,-1.1 -0.1,-0.7 1.6,-0.9 -1.2,-1.1 1.7,-7.1 3.4,-1.6 v -0.8 l -1.1,-1.4 2.9,-5.4 h 1.9 l 1.5,-1.2 -0.3,-5.2 3.1,-4.5 1.8,-0.6 -0.5,-3.1 z"
       id="path1296"
       style="fill:#bc0000;fill-opacity:1" />
    <path
       class="ca"
       short-name="ca"
       long-name="California"
       value="54"
       candidate-id="0"
       d="m 69.4,365.6 3.4,5.2 -1.4,0.1 -1.8,-1.9 z m 1.9,-9.8 1.8,4.1 2.6,1 0.7,-0.6 -1.3,-2.5 -2.6,-2.4 z m -19.9,-19 v 2.4 l 2,1.2 4.4,-0.2 1,-1 -3.1,-0.2 z m -5.9,0.1 3.3,0.5 1.4,2.2 h -3.8 z m 47.9,45.5 -1,-3 0.2,-3 -0.4,-7.9 -1.8,-4.8 -1.2,-1.4 -0.6,-1.5 -7,-8.6 -3.6,0.1 -2,-1.9 1.1,-1.8 -0.7,-3.7 -2.2,-1.2 -3.9,-0.6 -2.8,-1.3 -1.5,-1.9 -4.5,-6.6 -2.7,-2.2 -3.7,-0.5 -3.1,-2.3 -4.7,-1.5 -2.8,-0.3 -2.5,-2.5 0.2,-2.8 0.8,-4.8 1.8,-5.1 -1.4,-1.6 -4,-9.4 -2.7,-3.7 -0.4,-3 -1.6,-2.3 0.2,-2.5 -2,-5 -2.9,-2.7 0.6,-7.1 2.4,-0.8 1.8,-3.1 -0.4,-3.2 -1,-0.9 h -2.5 l -2.5,-3.3 -1.5,-3.5 v -7.5 l 1.2,-4.2 0.2,-2.1 2.5,0.2 -0.1,1.6 -0.8,0.7 v 2.5 l 3.7,3.2 v -4.7 l -1.4,-3.4 0.5,-1.1 -1,-1.7 2.8,-1.5 -1.9,-3 -1.4,0.5 -1.5,3.8 0.5,1.3 -0.8,1 -0.9,-0.1 -5.4,-6.1 0.7,-5.6 -1.1,-3.9 -6.5,-12.8 0.8,-10.7 2.3,-3.6 0.2,-6.4 -5.5,-11.1 0.3,-5.2 6.9,-7.5 1.7,-2.4 -0.1,-1.4 4,-9.2 0.1,-8.4 0.9,-2.5 66.1,18.6 -16.4,63.1 1.1,3.5 70.4,105 -0.9,2.1 1.3,3.4 1.4,1.8 1.2,5.8 2.3,2.5 0.4,1.9 -1.3,1.3 -4.8,1.7 -2.4,3.6 -1.6,7 -2.4,3.2 -1.6,0.3 -1.1,6.9 1.1,1.6 1.8,0.2 1,1.6 -0.8,2.4 -3,2.2 -2.2,-0.1 z"
       id="path1298"
       style="fill:#bc0000;fill-opacity:1" />
    <path
       class="co"
       short-name="co"
       long-name="Colorado"
       value="10"
       candidate-id="0"
       d="m 374.6,323.3 -16.5,-1 -51.7,-4.8 -52.6,-6.5 11.5,-88.3 44.9,5.7 37.5,3.4 33.1,2.4 -1.4,22.1 z"
       id="path1300"
       style="fill:#bc0000;fill-opacity:1" />
    <path
       class="ct"
       short-name="ct"
       long-name="Connecticut"
       value="7"
       candidate-id="0"
       d="m 873.5,178.9 0.4,-1.1 -3.2,-12.3 -0.1,-0.3 -14.9,3.4 v 0.7 l -0.9,0.3 -0.5,-0.7 -10.5,2.4 2.8,16.3 1.8,1.5 -3.5,3.4 1.7,2.2 5.4,-4.5 1.7,-1.3 h 0.8 l 2.4,-3.1 1.4,0.1 2.9,-1.1 h 2.1 l 5.3,-2.7 2.8,-0.9 1,-1 1.5,0.5 z"
       id="path1302"
       style="fill:#bc0000;fill-opacity:1" />
    <path
       class="de"
       short-name="de"
       long-name="Delaware"
       value="3"
       candidate-id="0"
       d="m 822.2,226.6 -1.6,0.3 -1.5,1.1 -1.2,2.1 7.6,27.1 10.9,-2.3 -2.2,-7.6 -1.1,0.5 -3.3,-2.6 -0.5,-1.7 -1.8,-1 -0.2,-3.7 -2.1,-2.2 -1.1,-0.8 -1.2,-1.1 -0.4,-3.2 0.3,-2.1 1,-2.2 z"
       id="path1304"
       style="fill:#bc0000;fill-opacity:1" />
    <path
       class="fl"
       short-name="fl"
       long-name="Florida"
       value="30"
       candidate-id="1"
       d="m 751.7,445.1 -4,-0.7 -1.7,-0.9 -2.2,1.4 v 2.5 l 1.4,2.1 -0.5,4.3 -2.1,0.6 -1,-1.1 -0.6,-3.2 -50.1,3.3 -3.3,-6 -48.8,5.1 -0.5,2.9 2.5,2.8 1.7,0.7 0.9,1.2 -0.4,7.3 -1.1,0.6 0.5,0.4 1,-0.3 0.7,-0.8 10.5,-2.7 9.2,-0.5 8.1,1.9 8.5,5 2.4,0.8 2.2,2 -0.1,2.7 h 2.4 l 1.9,-1 2.5,0.1 2,-0.8 2.9,-2 3.1,-2.9 1.1,-0.4 0.6,0.5 h 1.4 l 0.5,-0.8 -0.5,-1.2 -0.6,-0.6 0.2,-0.8 2,-1.1 5,-0.4 0.8,1 1,0.1 2.3,1 3,1.8 1.2,1.7 1.1,1.2 2.8,1.4 v 2.4 l 2.8,1.9 1,0.1 1.6,1.4 0.7,1.6 1,0.2 0.8,2.1 0.7,0.6 1,-1.1 2.9,0.1 0.5,1.4 1.1,0.9 v 1.3 l 2.9,2.2 0.2,9.6 -1.8,5.8 1,1.2 -0.2,3.4 -0.8,1.4 0.7,1.2 2.3,2.3 0.3,1.5 0.8,1 -0.4,-1.9 1.3,-0.6 0.8,-3.6 -3,-1.2 0.1,-0.6 2.6,-0.4 0.9,2.6 1.1,0.6 0.1,-2 1.1,0.3 0.6,0.8 -0.1,0.7 -2.9,4.2 -0.2,1.1 -1.7,1.9 v 1.1 l 3.7,3.8 5.3,7.9 1.8,2.1 v 1.8 l 2.8,4.6 2.3,0.6 0.7,-1.2 -2.1,0.3 -3,-4.5 0.2,-1.4 1.5,-0.8 v -1.5 l -0.6,-1.3 0.9,-0.9 0.4,0.9 0.7,0.5 v 4 l -1.2,-0.6 -0.8,0.9 1.4,1.6 1,2.6 1.2,-0.6 2.3,1.2 2.1,2.2 1.6,5.1 3.1,4.8 0.8,-1.3 2.8,-0.5 3.2,1.3 0.3,1.7 3.3,3.8 0.1,1.1 2.2,2.7 -0.7,0.5 v 2.7 l 2.7,1.4 h 1.5 l 2.7,-1.8 1.5,0.3 1.1,0.4 2.3,-1.7 0.2,-0.7 1.2,0.3 2.4,-1.7 1.3,-2.3 -0.7,-3.2 -0.2,-1.3 1.1,-4 0.6,-0.2 0.6,1.6 0.8,-1.8 -0.8,-7.2 -0.4,-10.5 -1,-6.8 -0.7,-1.7 -6.6,-11.1 -5.2,-9.1 -2.2,-3.3 -1.3,-3.6 -0.2,-3.4 0.9,-0.3 v -0.9 l -1.1,-2.2 -4,-4 -7.6,-9.7 -5.7,-10.4 -4.3,-10.7 -0.6,-3.7 -1.2,-1 -0.5,-3.8 z m 9.2,134.5 1.7,-0.1 -0.7,-1 z m 7.3,-1.1 v -0.7 l 1.6,-0.2 3.7,-3.3 1.5,-0.6 2.4,-0.9 0.3,1.3 1.7,0.8 -2.6,1.2 h -2.4 l -3.9,2.5 z m 17.2,-7.6 -3,1.4 -1,1.3 1.1,0.1 z m 3.8,-2.9 -1.1,0.3 -1.4,2 1.1,-0.2 1.5,-1.6 z m 8.3,-15.7 -1.7,5.6 -0.8,1 -1,2.6 -1.2,1.6 -0.7,1.7 -1.9,2.2 v 0.9 l 2.7,-2.8 2.4,-3.5 0.6,-2 2.1,-4.9 z"
       id="path1306"
       style="fill:#bc0000;fill-opacity:1" />
    <path
       class="ga"
       short-name="ga"
       long-name="Georgia"
       value="16"
       candidate-id="0"
       candidate-margin="1"
       d="m 761.8,414.1 v 1.4 l -4.2,6.2 -1.2,0.2 1.5,0.5 v 2 l -0.9,1.1 -0.6,6 -2.3,6.2 0.5,2 0.7,5.1 -3.6,0.3 -4,-0.7 -1.7,-0.9 -2.2,1.4 v 2.5 l 1.4,2.1 -0.5,4.3 -2.1,0.6 -1,-1.1 -0.6,-3.2 -50.1,3.3 -3.3,-6 -0.7,-2.2 -1.5,-1.5 -0.5,-1.4 0.6,-6.3 -2.4,-5.7 0.5,-2.6 0.3,-3.7 2.2,-3.8 -0.2,-1.1 -1.7,-1 v -3.2 l -1.8,-1.9 -2.9,-6.1 -12.9,-45.8 22.9,-2.9 21.4,-3 -0.1,1.9 -1.9,1 -1.4,3.2 0.2,1.3 6.1,3.8 2.6,-0.3 3.1,4 0.4,1.7 4.2,5.1 2.6,1.7 1.4,0.2 2.2,1.6 1.1,2.2 2,1.6 1.8,0.5 2.7,2.7 0.1,1.4 2.6,2.8 5,2.3 3.6,6.7 0.3,2.7 3.9,2.1 2.5,4.8 0.8,3.1 4.2,0.4 z"
       id="path1308"
       style="fill:#bc0000;fill-opacity:1" />
    <path
       class="hi"
       short-name="hi"
       long-name="Hawaii"
       value="4"
       candidate-id="0"
       d="m 317,553.7 -0.2,3.2 1.7,1.9 0.1,1.2 -4.8,4.5 -0.1,1.2 1.9,3.2 1.7,4.2 v 2.6 l -0.5,1.2 0.1,3.4 4.1,2.1 1.1,1.1 1.2,-1.1 2.1,-3.6 4.5,-2.9 3.3,-0.5 2.5,-1 1.7,-1.2 3.2,-3.5 -2.8,-1.1 -1.4,-1.4 0.1,-1.7 -0.5,-0.6 h -2 l 0.2,-2.5 -0.7,-1.2 -2.6,-2.3 -4.5,-1.9 -2.8,-0.2 -3.3,-2.7 -1.2,-0.6 z m -15.3,-17 -1.1,1.5 -0.1,1.7 2.7,2.4 1.9,0.5 0.6,1 0.4,3 3.6,0.2 5.3,-2.6 -0.1,-2.5 -1.4,-0.5 -3.5,-2.6 -1.8,-0.3 -2.9,1.3 -1.5,-2.7 z m -1.5,11.5 0.9,-1.4 2.5,-0.3 0.6,1.8 z m -7,-8.7 1.7,4 3.1,-0.6 0.3,-2 -1.4,-1.5 z m -4.1,-6.7 -1.1,2.4 h 5 l 4.8,1.6 2.5,-1.6 0.2,-1.5 -4.8,0.2 z m -16,-10.6 -1.9,2.1 -2.9,0.6 0.8,2.2 2.2,2.8 0.1,1 2.1,-0.3 2.3,0.1 1.7,1.2 3.5,-0.8 v -0.7 l -1,-0.8 -0.5,-2.1 -0.8,-0.3 -0.5,1 -1.2,-1.3 0.2,-1.4 -1.8,-3.3 -1.1,-0.7 z m -31.8,-12.4 -4.2,2.9 0.2,2.3 2.4,1.2 1.9,1.3 2.7,0.4 2.6,-2.2 -0.2,-1.9 0.8,-1.7 v -1.4 l -1,-0.9 z m -10.8,4.8 -0.3,1.2 -1.9,0.9 -0.6,1.8 1,0.8 1.1,-1.5 1.9,-0.6 0.4,-2.6 z"
       id="path1310"
       style="fill:#bc0000;fill-opacity:1" />
    <path
       class="id"
       short-name="id"
       long-name="Idaho"
       value="4"
       candidate-id="1"
       d="m 165.3,183.1 -24.4,-5.4 8.5,-37.3 2.9,-5.8 0.4,-2.1 0.8,-0.9 -0.9,-2 -2.9,-1.2 0.2,-4.2 4,-5.8 2.5,-0.8 1.6,-2.3 -0.1,-1.6 1.8,-1.6 3.2,-5.5 4.2,-4.8 -0.5,-3.2 -3.5,-3.1 -1.6,-3.6 1.1,-4.3 -0.7,-4 12.7,-56.1 14.2,3 -4.8,22 3.7,7.4 -1.6,4.8 3.6,4.8 1.9,0.7 3.9,8.3 v 2.1 l 2.3,3 h 0.9 l 1.4,2.1 h 3.2 v 1.6 l -7.1,17 -0.5,4.1 1.4,0.5 1.6,2.6 2.8,-1.4 3.6,-2.4 1.9,1.9 0.5,2.5 -0.5,3.2 2.5,9.7 2.6,3.5 2.3,1.4 0.4,3 v 4.1 l 2.3,2.3 1.6,-2.3 6.9,1.6 2.1,-1.2 9,1.7 2.8,-3.3 1.8,-0.6 1.2,1.8 1.6,4.1 0.9,0.1 -8.5,54.8 -47.9,-8.2 z"
       id="path1312"
       style="fill:#bc0000;fill-opacity:1" />
    <path
       class="il"
       short-name="il"
       long-name="Illinois"
       value="19"
       candidate-id="0"
       d="m 623.5,265.9 -1,5.2 v 2 l 2.4,3.5 v 0.7 l -0.3,0.9 0.9,1.9 -0.3,2.4 -1.6,1.8 -1.3,4.2 -3.8,5.3 -0.1,7 h -1 l 0.9,1.9 v 0.9 l -2.2,2.7 0.1,1.1 1.5,2.2 -0.1,0.9 -3.7,0.6 -0.6,1.2 -1.2,-0.6 -1,0.5 -0.4,3.3 1.7,1.8 -0.4,2.4 -1.5,0.3 -6.9,-3 -4,3.7 0.3,1.8 h -2.8 l -1.4,-1.5 -1.8,-3.8 v -1.9 l 0.8,-0.6 0.1,-1.3 -1.7,-1.9 -0.9,-2.5 -2.7,-4.1 -4.8,-1.3 -7.4,-7.1 -0.4,-2.4 2.8,-7.6 -0.4,-1.9 1.2,-1.1 v -1.3 l -2.8,-1.5 -3,-0.7 -3.4,1.2 -1.3,-2.3 0.6,-1.9 -0.7,-2.4 -8.6,-8.4 -2.2,-1.5 -2.5,-5.9 -1.2,-5.4 1.4,-3.7 0.7,-0.7 0.1,-2.3 -0.7,-0.9 1,-1.5 1.8,-0.6 0.9,-0.3 1,-1.2 v -2.4 l 1.7,-2.4 0.5,-0.5 0.1,-3.5 -0.9,-1.4 -1,-0.3 -1.1,-1.6 1,-4 3,-0.8 h 2.4 l 4.2,-1.8 1.7,-2.2 0.1,-2.4 1.1,-1.3 1.3,-3.2 -0.1,-2.6 -2.8,-3.5 h -1.2 l -0.9,-1.1 0.2,-1.6 -1.7,-1.7 -2.5,-1.3 0.5,-0.6 45.9,-2.8 0.1,4.6 3.4,4.6 1.2,4.1 1.6,3.2 z"
       id="path1314"
       style="fill:#bc0000;fill-opacity:1" />
    <path
       class="in"
       short-name="in"
       long-name="Indiana"
       value="11"
       candidate-id="1"
       d="m 629.2,214.8 -5.1,2.3 -4.7,-1.4 4.1,50.2 -1,5.2 v 2 l 2.4,3.5 v 0.7 l -0.3,0.9 0.9,1.9 -0.3,2.4 -1.6,1.8 -1.3,4.2 -3.8,5.3 -0.1,7 h -1 l 0.9,1.9 1.1,0.8 0.6,-1 -0.7,-1.7 4.6,-0.5 0.2,1.2 1.1,0.2 0.4,-0.9 -0.6,-1.3 0.3,-0.8 1.3,0.8 1.7,-0.4 1.7,0.6 3.4,2.1 1.8,-2.8 3.5,-2.2 3,3.3 1.6,-2.1 0.3,-2.7 3.8,-2.3 0.2,1.3 1.9,1.2 3,-0.2 1.2,-0.7 0.1,-3.4 2.5,-3.7 4.6,-4.4 -0.1,-1.7 1.2,-3.8 2.2,1 6.7,-4.5 -0.4,-1.7 -1.5,-2.1 1,-1.9 -6.6,-57.2 -0.1,-1.4 -32.4,3.4 z"
       id="path1316"
       style="fill:#bc0000;fill-opacity:1" />
    <path
       class="ia"
       short-name="ia"
       long-name="Iowa"
       value="6"
       candidate-id="1"
       d="m 556.9,183 2.1,1.6 0.6,1.1 -1.6,3.3 -0.1,2.5 2,5.5 2.7,1.5 3.3,0.7 1.3,2.8 -0.5,0.6 2.5,1.3 1.7,1.7 -0.2,1.6 0.9,1.1 h 1.2 l 2.8,3.5 0.1,2.6 -1.3,3.2 -1.1,1.3 -0.1,2.4 -1.7,2.2 -4.2,1.8 h -2.4 l -3,0.8 -1,4 1.1,1.6 1,0.3 0.9,1.4 -0.1,3.5 -0.5,0.5 -1.7,2.4 v 2.4 l -1,1.2 -0.9,0.3 -1.8,0.6 -1,1.5 0.7,0.9 -0.1,2.3 -0.7,0.7 -1.5,-0.8 -1.1,-1.1 -0.6,-1.6 -1.7,-1.3 -14.3,0.8 -27.2,1.2 -25.9,-0.1 -1.8,-4.4 0.7,-2.2 -0.8,-3.3 0.2,-2.9 -1.3,-0.7 -0.4,-6.1 -2.8,-5 -0.2,-3.7 -2.2,-4.3 -1.3,-3.7 v -1.4 l -0.6,-1.7 v -2.3 l -0.5,-0.9 -0.7,-1.7 -0.3,-1.3 -1.3,-1.2 1,-4.3 1.7,-5.1 -0.7,-2 -1.3,-0.4 -0.4,-1.6 1,-0.5 0.1,-1.1 -1.3,-1.5 0.1,-1.6 2.2,0.1 h 28.2 l 36.3,-0.9 18.6,-0.7 z"
       id="path1318"
       style="fill:#bc0000;fill-opacity:1" />
    <path
       class="ks"
       short-name="ks"
       long-name="Kansas"
       value="6"
       candidate-id="1"
       d="m 459.1,259.5 -43.7,-1.2 -36,-2 -4.8,67 67.7,2.9 62,0.1 -0.5,-48.1 -3.2,-0.7 -2.6,-4.7 -2.5,-2.5 0.5,-2.3 2.7,-2.6 0.1,-1.2 -1.5,-2.1 -0.9,1 -2,-0.6 -2.9,-3 z"
       id="path1320"
       style="fill:#bc0000;fill-opacity:1" />
    <path
       class="ky"
       short-name="ky"
       long-name="Kentucky"
       value="8"
       candidate-id="1"
       d="m 692.1,322.5 -20.5,1.4 -5.2,0.8 -17.4,1 -2.6,0.8 -22.6,2 -0.7,-0.6 h -3.7 l 1.2,3.2 -0.6,0.9 -23.3,1.5 1,-2.7 1.4,0.9 0.7,-0.4 1.2,-4.1 -1,-1 1,-2 0.2,-0.9 -1.3,-0.8 -0.3,-1.8 4,-3.7 6.9,3 1.5,-0.3 0.4,-2.4 -1.7,-1.8 0.4,-3.3 1,-0.5 1.2,0.6 0.6,-1.2 3.7,-0.6 0.1,-0.9 -1.5,-2.2 -0.1,-1.1 2.2,-2.7 v -0.9 l 1.1,0.8 0.6,-1 -0.7,-1.7 4.6,-0.5 0.2,1.2 1.1,0.2 0.4,-0.9 -0.6,-1.3 0.3,-0.8 1.3,0.8 1.7,-0.4 1.7,0.6 3.4,2.1 1.8,-2.8 3.5,-2.2 3,3.3 1.6,-2.1 0.3,-2.7 3.8,-2.3 0.2,1.3 1.9,1.2 3,-0.2 1.2,-0.7 0.1,-3.4 2.5,-3.7 4.6,-4.4 -0.1,-1.7 1.2,-3.8 2.2,1 6.7,-4.5 -0.4,-1.7 -1.5,-2.1 1,-1.9 1.3,0.5 2.2,0.1 1.9,-0.8 2.9,1.2 2.2,3.4 v 1 l 4.1,0.7 2.3,-0.2 1.9,2.1 2.2,0.2 v -1 l 1.9,-0.8 3,0.8 1.2,0.8 1.3,-0.7 h 0.9 l 0.6,-1.7 3.4,-1.8 0.5,0.8 0.8,2.9 3.5,1.4 1.2,2.1 -0.1,1.1 0.6,1 -0.6,3.6 1.9,1.6 0.8,1.1 1,0.6 -0.1,0.9 4.4,5.6 h 1.4 l 1.5,1.8 1.2,0.3 1.4,-0.1 -4.9,6.6 -2.9,1 -3,3 -0.4,2.2 -2.1,1.3 -0.1,1.7 -1.4,1.4 -1.8,0.5 -0.5,1.9 -1,0.4 -6.9,4.2 z m -98,11.3 -0.7,-0.7 0.2,-1 h 1.1 l 0.7,0.7 -0.3,1 z"
       id="path1322"
       style="fill:#bc0000;fill-opacity:1" />
    <path
       class="la"
       short-name="la"
       long-name="Louisiana"
       value="8"
       candidate-id="1"
       d="m 602.5,472.8 -1.2,-1.8 0.3,-1.3 -4.8,-6.8 0.9,-4.6 1,-1.4 0.1,-1.4 -36,2 1.7,-11.9 2.4,-4.8 6,-8.4 -1.8,-2.5 h 2 v -3.3 l -2.4,-2.5 0.5,-1.7 -1.2,-1 -1.6,-7.1 0.6,-1.4 -52.3,1.3 0.5,19.9 0.7,3.4 2.6,2.8 0.7,5.4 3.8,4.6 0.8,4.3 h 1 l -0.1,7.3 -3.3,6.4 1.3,2.3 -1.3,1.5 0.7,3 -0.1,4.3 -2.2,3.5 -0.1,0.8 -1.7,1.2 1,1.8 1.2,1.1 1.6,-1.3 5.3,-0.9 6.1,-0.1 9.6,3.8 8,1 1.5,-1.4 1.8,-0.2 4.8,2.2 1.6,-0.4 1.1,-1.5 -4.2,-1.8 -2.2,1 -1.1,-0.2 -1.4,-2 3.3,-2.2 1.6,-0.1 v 1.7 l 1.5,-0.1 3.4,-0.3 0.4,2.3 1.1,0.4 0.6,1.9 4.8,1 1.7,1.6 v 0.7 h -1.2 l -1.5,1.7 1.7,1.2 5.4,1 2.7,2.8 4.4,-1 -3.7,0.2 -0.1,-0.6 2.8,-0.7 0.2,-1.8 1.2,-0.3 V 494 l 1.1,0.1 v 1.6 l 2.5,0.1 0.8,-1.9 0.9,0.3 0.2,2.5 1.2,0.2 -1.8,2 2.6,-0.9 2,-1.1 2.9,-3.3 h -0.7 l -1.3,1.2 -0.4,-0.1 -0.5,-0.8 0.9,-1.2 v -2.3 l 1.1,-0.8 0.7,0.7 1,-0.8 1,-0.1 0.6,1.3 -0.6,1.9 h 2.4 l 5.1,1.7 0.5,1.3 1.6,1.4 2.8,0.1 1.3,0.7 1.8,-1 0.9,-1.7 v -1.7 h -1.4 l -1.2,-1.4 -1.1,-1.1 -3.2,-0.9 -2.6,0.2 -4.2,-2.4 v -2.3 l 1.3,-1 2.4,0.6 -3.1,-1.6 0.2,-0.8 h 3.6 l 2.6,-3.5 -2.6,-1.8 0.8,-1.5 -1.2,-0.8 h -0.8 l -2,2.1 v 2.1 l -0.6,0.7 -1.1,-0.1 -1.6,-1.4 h -1.3 V 477 l 0.6,-0.7 0.8,0.7 1.7,-1.6 0.7,-1.6 0.8,-0.3 z m -10.3,-2.7 1.9,1 0.8,1.1 2.5,0.1 1.5,0.8 0.2,1.4 -0.4,0.6 -0.9,-1.5 -1.4,1.2 -0.9,1.4 -2.8,0.8 -1.6,0.1 -3.7,-1 0.1,-1.7 2,-2 1.1,-2.4 z m -4.7,1.2 v 1.1 l -1.8,2 h -1.2 v -2.2 l 1.6,-1.5 z"
       id="path1324"
       style="fill:#bc0000;fill-opacity:1" />
    <path
       class="me"
       short-name="me"
       long-name="Maine"
       value="4"
       candidate-id="0"
       d="m 875,128.7 0.6,4 3.2,2 0.8,2.2 2.3,1.4 1.4,-0.3 1,-3 -0.8,-2.9 1.6,-0.9 0.5,-2.8 -0.6,-1.3 3.3,-1.9 -2.2,-2.3 0.9,-2.4 1.4,-2.2 0.5,3.2 1.6,-2 1.3,0.9 1.2,-0.8 v -1.7 l 3.2,-1.3 0.3,-2.9 2.5,-0.2 2.7,-3.7 v -0.7 l -0.9,-0.5 -0.1,-3.3 0.6,-1.1 0.2,1.6 1,-0.5 -0.2,-3.2 -0.9,0.3 -0.1,1.2 -1.2,-1.4 0.9,-1.4 0.6,0.1 1.1,-0.4 0.5,2.8 2,-0.3 2.9,0.7 v -1 l -1.1,-1.2 1.3,0.1 0.1,-2.3 0.6,0.8 0.3,1.9 2.1,1.5 0.2,-1 0.9,-0.2 -0.3,-0.8 0.8,-0.6 -0.1,-1.6 -1.6,-0.2 -2,0.7 1.4,-1.6 0.7,-0.8 1.3,-0.2 0.4,1.3 1.7,1.6 0.4,-2.1 2.3,-1.2 -0.9,-1.3 0.1,-1.7 1.1,0.5 h 0.7 l 1.7,-1.4 0.4,-2.3 2.2,0.3 0.1,-0.7 0.2,-1.6 0.5,1.4 1.5,-1 2.3,-4.1 -0.1,-2.2 -1.4,-2 -3,-3.2 H 921 l -0.8,2.2 -2.9,-3 0.3,-0.8 v -1.5 l -1.6,-4.5 -0.8,-0.2 -0.7,0.4 h -4.8 l -0.3,-3.6 -8.1,-26 -7.3,-3.7 -2.9,-0.1 -6.7,6.6 -2.7,-1 -1,-3.9 H 878 l -6.9,19.5 0.7,6.2 -1.7,2.4 -0.4,4.6 1.3,3.7 0.8,0.2 v 1.6 l -1.6,4.5 -1.5,1.4 -1.3,2.2 -0.4,7.8 -2.4,-1 -1.5,0.4 z m 34.6,-24.7 -1,0.8 v 1.3 l 0.7,-0.8 0.9,0.8 0.4,-0.5 1.1,0.2 -1,-0.8 0.4,-0.8 z m -1.7,2.6 -1,1.1 0.5,0.4 -0.1,1 h 1.1 v -1.8 z m -3,-1.6 0.9,1.3 1,0.5 0.3,-1 V 104 l -1.3,-0.7 -0.4,1.2 z m -1,5 -1.7,-1.7 1.6,-2.4 0.8,0.3 0.2,1.1 1,0.8 v 1.1 l -1,1 z"
       id="path1326"
       style="fill:#bc0000;fill-opacity:1" />
    <path
       class="md"
       short-name="md"
       long-name="Maryland"
       value="10"
       candidate-id="0"
       d="m 822.9,269.3 v -1.7 h -0.8 v 1.8 z m 11.8,-3.9 1.2,-2.2 0.1,-2.5 -0.6,-0.6 -0.7,0.9 -0.2,2.1 -0.8,1.4 -0.3,1.1 -4.6,1.6 -0.7,0.8 -1.3,0.2 -0.4,0.9 -1.3,0.6 -0.3,-2.5 0.4,-0.7 -0.8,-0.5 0.2,-1.5 -1.6,1 v -2 l 1.2,-0.3 -1.9,-0.4 -0.7,-0.8 0.4,-1.3 -0.8,-0.6 -0.7,1.6 0.5,0.8 -0.7,0.6 -1.1,0.5 -2,-1 -0.2,-1.2 -1,-1.1 -1.4,-1.7 1.5,-0.8 -1,-0.6 v -0.9 l 0.6,-1 1.7,-0.3 -1.4,-0.6 -0.1,-0.7 -1.3,-0.1 -0.4,1.1 -0.6,0.3 0.1,-3.4 1,-1 0.8,0.7 0.1,-1.6 -1,-0.9 -0.9,1.1 -1,1.4 -0.6,-1 0.2,-2.4 0.9,-1 0.9,0.9 1.2,-0.7 -0.4,-1.7 -1,1 -0.9,-2.1 -0.2,-1.7 1.1,-2.4 1.1,-1.4 1.4,-0.2 -0.5,-0.8 0.5,-0.6 -0.3,-0.7 0.2,-2.1 -1.5,0.4 -0.8,1.1 1,1.3 -2.6,3.6 -0.9,-0.4 -0.7,0.9 -0.6,2.2 -1.8,0.5 1.3,0.6 1.3,1.3 -0.2,0.7 0.9,1.2 -1.1,1 0.5,0.3 -0.5,1.3 v 2.1 l -0.5,1.3 0.9,1.1 0.7,3.4 1.3,1.4 1.6,1.4 0.4,2.8 1.6,2 0.4,1.4 v 1 h -0.7 l -1.5,-1.2 -0.4,0.2 -1.2,-0.2 -1.7,-1.4 -1.4,-0.3 -1,0.5 -1.2,-0.3 -0.4,0.2 -1.7,-0.8 -1,-1 -1,-1.3 -0.6,-0.2 -0.8,0.7 -1.6,1.3 -1.1,-0.8 -0.4,-2.3 0.8,-2.1 -0.3,-0.5 0.3,-0.4 -0.7,-1 1,-0.1 1,-0.9 0.4,-1.8 1.7,-2.6 -2.6,-1.8 -1,1.7 -0.6,-0.6 h -1 l -0.6,-0.1 -0.4,-0.4 0.1,-0.5 -1.7,-0.6 -0.8,0.3 -1.2,-0.1 -0.7,-0.7 -0.5,-0.2 -0.2,-0.7 0.6,-0.8 v -0.9 l -1.2,-0.2 -1,-0.9 -0.9,0.1 -1.6,-0.3 -0.9,-0.4 0.2,-1.6 -1,-0.5 -0.2,-0.7 h -0.7 l -0.8,-1.2 0.2,-1 -2.6,0.4 -2.2,-1.6 -1.4,0.3 -0.9,1.4 h -1.3 l -1.7,2.9 -3.3,0.4 -1.9,-1 -2.6,3.8 -2.2,-0.3 -3.1,3.9 -0.9,1.6 -1.8,1.6 -1.7,-11.4 60.5,-11.8 7.6,27.1 10.9,-2.3 v 5.3 l -0.1,3.1 -1,1.8 z m -13.4,-1.8 -1.3,0.9 0.8,1.8 1.7,0.8 -0.4,-1.6 z"
       id="path1328"
       style="fill:#bc0000;fill-opacity:1" />
    <path
       class="ma"
       short-name="ma"
       long-name="Massachusetts"
       value="11"
       candidate-id="0"
       d="m 899.9,174.2 h 3.4 l 0.9,-0.6 0.1,-1.3 -1.9,-1.8 0.4,1 -1.5,1.5 H 899 l 0.1,0.8 z m -9,1.8 -1.2,-0.6 1,-0.8 0.6,-2.1 1.2,-1 0.8,-0.2 0.6,0.9 1.1,0.2 0.6,-0.6 0.5,1.9 -1.3,0.3 -2.8,0.7 z m -34.9,-23.4 18.4,-3.8 1,-1.5 0.3,-1.7 1.9,-0.6 0.5,-1.1 1.7,-1.1 1.3,0.3 1.7,3.3 1,0.4 1.1,-1.3 0.8,1.3 v 1.1 l -3,2.4 0.2,0.8 -0.9,1 0.4,0.8 -1.3,0.3 0.9,1.2 -0.8,0.7 0.6,1 0.9,-0.2 0.3,-0.8 1.1,0.6 h 1.8 l 2.5,2.6 0.2,2.6 1.8,0.1 0.8,1.1 0.6,2 1,0.7 h 1.9 l 1.9,-0.1 0.8,-0.9 1.6,-1.2 1.1,-0.3 -1.2,-2.1 -0.3,0.9 -1.5,-3.6 h -0.8 l -0.4,0.9 -1.2,-1 1.3,-1.1 1.8,0.4 2.3,2.1 1.3,2.7 1.2,3.3 -1,2.8 v -1.8 l -0.7,-1 -3.5,2.3 -0.9,-0.3 -1.6,1 -0.1,1.2 -2.2,1.2 -2,2.1 -2,1.9 h -1.2 l 3.3,-3.3 0.5,-1.9 -0.5,-0.6 -0.3,-1.3 -0.9,-0.1 -0.1,1.3 -1,1.2 h -1.2 l -0.3,1.1 0.4,1.2 -1.2,1.1 -1.1,-0.2 -0.4,1 -1.4,-3 -1.3,-1.1 -2.6,-1.3 -0.6,-2.2 h -0.8 l -0.7,-2.6 -6.5,2 -0.1,-0.3 -14.9,3.4 v 0.7 l -0.9,0.3 -0.5,-0.7 -10.5,2.4 -0.7,-1 0.5,-15 z"
       id="path1330"
       style="fill:#bc0000;fill-opacity:1" />
    <path
       class="mi"
       short-name="mi"
       long-name="Michigan"
       value="15"
       candidate-id="0"
       candidate-margin="1"
       d="m 663.3,209.8 0.1,1.4 21.4,-3.5 0.5,-1.2 3.9,-5.9 v -4.3 l 0.8,-2.1 2.2,-0.8 2,-7.8 1,-0.5 1,0.6 -0.2,0.6 -1.1,0.8 0.3,0.9 0.8,0.4 1.9,-1.4 0.4,-9.8 -1.6,-2.3 -1.2,-3.7 v -2.5 l -2.3,-4.4 v -1.8 l -1.2,-3.3 -2.3,-3 -2.9,-1 -4.8,3 -2.5,4.6 -0.2,0.9 -3,3.5 -1.5,-0.2 -2.9,-2.8 -0.1,-3.4 1.5,-1.9 2,-0.2 1.2,-1.7 0.2,-4 0.8,-0.8 1.1,-0.1 0.9,-1.7 -0.2,-9.6 -0.3,-1.3 -1.2,-1.2 -1.7,-1 -0.1,-1.8 0.7,-0.6 1.8,0.8 -0.3,-1.7 -1.9,-2.7 -0.7,-1.6 -1.1,-1.1 h -2.2 l -8.1,-2.9 -1.4,-1.7 -3.1,-0.3 -1.2,0.3 -4.4,-2.3 h -1.4 l 0.5,1 -2.7,-0.1 0.1,0.6 0.6,0.6 -2.5,2.1 0.1,1.8 1.5,2.3 1.5,0.2 v 0.6 l -1.5,0.5 -2.1,-0.1 -2.8,2.5 0.1,2.5 0.4,5.8 -2.2,3.4 0.8,-4.5 -0.8,-0.6 -0.9,5.3 -1,-2.3 0.5,-2.3 -0.5,-1 0.6,-1.3 -0.6,-1.1 1,-1 v -1.2 l -1.3,0.6 -1.3,3.1 -0.7,0.7 -1.3,2.4 -1.7,-0.2 -0.1,1.2 h -1.6 l 0.2,1.5 0.2,2 -3,1.2 0.1,1.3 1,1.7 -0.1,5.2 -1.3,4.4 -1.7,2.5 1.2,1.4 0.8,3.5 -1,2.5 -0.2,2.1 1.7,3.4 2.5,4.9 1.2,1.9 1.6,6.9 -0.1,8.8 -0.9,3.9 -2,3.2 -0.9,3.7 -2,3 -1.2,1 z m -95.8,-96.8 3,3.8 17,3.8 1.4,1 4,0.8 0.7,0.5 2.8,-0.2 4.9,0.8 1.4,1.5 -1,1 0.8,0.8 3.8,0.7 1.2,1.2 0.1,4.4 -1.3,2.8 2,0.1 1,-0.8 0.9,0.8 -1.1,3.1 1,1.6 1.2,0.3 0.8,-1.8 2.9,-4.6 1.6,-6 2.3,-2 -0.5,-1.6 0.5,-0.9 1,1.6 -0.3,2.2 2.9,-2.2 0.2,-2.3 2.1,0.6 0.8,-1.6 0.7,0.6 -0.7,1.5 -1,0.5 -1,2 1.4,1.8 1.1,-0.5 -0.5,-0.7 1,-1.5 1.9,-1.7 h 0.8 l 0.2,-2.6 2,-1.8 7.9,-0.5 1.9,-3.1 3.8,-0.3 3.8,1.2 4.2,2.7 0.7,-0.2 -0.2,-3.5 0.7,-0.2 4.5,1.1 1.5,-0.2 2.9,-0.7 1.7,0.4 1.8,0.1 v -1.1 l -0.7,-0.9 -1.5,-0.2 -1.1,-0.8 0.5,-1.4 -0.8,-0.3 -2.6,0.1 -0.1,-1 1.1,-0.8 0.6,0.8 0.5,-1.8 -0.7,-0.7 0.7,-0.2 -1.4,-1.3 0.3,-1.3 0.1,-1.9 h -1.3 l -1.5,1 -1.9,0.1 -0.5,1.8 -1.9,0.2 -0.3,-1.2 -2.2,0.1 -1,1.2 -0.7,-0.1 -0.2,-0.8 -2.6,0.4 -0.1,-4.8 1,-2 -0.7,-0.1 -1.8,1.1 h -2.2 l -3.8,2.7 -6.2,0.3 -4.1,0.8 -1.9,1.5 -1.4,1.3 -2.5,1.7 -0.3,0.8 -0.6,-1.7 -1.3,-0.6 v 0.6 l 0.7,0.7 v 1.3 l -1.5,-0.6 h -0.6 l -0.3,1.2 -2,-1.9 -1.3,-0.2 -1.3,1.5 -3.2,-0.1 -0.5,-1.4 -2,-1.9 -1.3,-1.6 v -0.7 l -1.1,-1.4 -2.6,-1.2 -3.3,-0.1 -1.1,-0.9 h -1.4 l -0.7,0.4 -2.2,2.2 -0.7,1.1 -1,-0.7 0.2,-1 0.8,-2.1 3.2,-5 0.8,-0.2 1.7,-1.9 0.7,-1.6 3,-0.6 0.8,-0.6 -0.1,-1 -0.5,-0.5 -4.5,0.2 -2,0.5 -2.6,1.2 -1.2,1.2 -1.7,2.2 -1.8,1 -3.3,3.4 -0.4,1.6 -7.4,4.6 -4,0.5 -1.8,0.4 -2.3,3 -1.8,0.7 -4.4,2.3 z m 100.7,3.8 3.8,0.1 0.6,-0.5 -0.2,-2 -1.7,-1.8 -1.9,0.1 -0.1,0.5 1.1,0.4 -1.6,0.8 -0.3,1 -0.6,-0.6 -0.4,0.8 z m -75.1,-41.9 -2.3,0.2 -2.7,1.9 -7.1,5.3 0.8,1 1.8,0.3 2.8,-2 -1.1,-0.5 2.3,-1.6 h 1 l 3,-1.9 -0.1,-0.9 z m 41.1,62.8 v 1 l 2.1,1.6 -0.2,-2.4 z m -0.7,2.8 1.1,0.1 v 0.9 h -1 z m 21.4,-21.3 v 0.9 l 0.8,-0.2 v -0.5 z m 4.7,3.1 -0.1,-1.1 -1.6,-0.2 -0.6,-0.4 h -0.9 l -0.4,0.3 0.9,0.4 1.1,1.1 z m -18,1.2 -0.1,1.1 -0.3,0.7 0.2,2.2 0.4,0.3 0.7,0.1 0.5,-0.9 0.1,-1.6 -0.3,-0.6 -0.1,-1.1 z"
       id="path1332"
       style="fill:#bc0000;fill-opacity:1" />
    <path
       class="mn"
       short-name="mn"
       long-name="Minnesota"
       value="10"
       candidate-id="0"
       d="m 464.7,68.6 -1.1,2.8 0.8,1.4 -0.3,5.1 -0.5,1.1 2.7,9.1 1.3,2.5 0.7,14 1,2.7 -0.4,5.8 2.9,7.4 0.3,5.8 -0.1,2.1 -0.1,2.2 -0.9,2 -3.1,1.9 -0.3,1.2 1.7,2.5 0.4,1.8 2.6,0.6 1.5,1.9 -0.2,39.5 h 28.2 l 36.3,-0.9 18.6,-0.7 -1.1,-4.5 -0.2,-3 -2.2,-3 -2.8,-0.7 -5.2,-3.6 -0.6,-3.3 -6.3,-3.1 -0.2,-1.3 h -3.3 l -2.2,-2.6 -2,-1.3 0.7,-5.1 -0.9,-1.6 0.5,-5.4 1,-1.8 -0.3,-2.7 -1.2,-1.3 -1.8,-0.3 v -1.7 l 2.8,-5.8 5.9,-3.9 -0.4,-13 0.9,0.4 0.6,-0.5 0.1,-1.1 0.9,-0.6 1.4,1.2 0.7,-0.1 v 0 l -1.2,-2.2 4.3,-3.1 3.1,-3.7 1.6,-0.8 4.7,-5.9 6.3,-5.8 3.9,-2.1 6.3,-2.7 7.6,-4.5 -0.6,-0.4 -3.7,0.7 -2.8,0.1 -1,-1.6 -1.4,-0.9 -9.8,1.2 -1,-2.8 -1.6,-0.1 -1.7,0.8 -3.7,3.1 h -4.1 l -2.1,-1 -0.3,-1.7 -3.9,-0.8 -0.6,-1.6 -0.7,-1.3 -1,0.9 -2.6,0.1 -9.9,-5.5 h -2.9 l -0.8,-0.7 -3.1,1.3 -0.8,1.3 -3.3,0.8 -1.3,-0.2 V 69.9 L 512.7,69 h -5.9 l -0.4,-1.4 h -2.6 l -1.1,0.4 -2.4,-1.7 0.3,-1.4 -0.6,-2.4 -0.7,-1.1 -0.2,-3 -1,-3.1 -2.1,-1.6 h -2.9 l 0.1,8 -30.9,-0.4 z"
       id="path1334"
       style="fill:#bc0000;fill-opacity:1" />
    <path
       class="ms"
       short-name="ms"
       long-name="Mississippi"
       value="6"
       candidate-id="1"
       d="m 623.8,468.6 -5,0.1 -2.4,-1.5 -7.9,2.5 -0.9,-0.7 -0.5,0.2 -0.1,1.6 -0.6,0.1 -2.6,2.7 -0.7,-0.1 -0.6,-0.7 -1.2,-1.8 0.3,-1.3 -4.8,-6.8 0.9,-4.6 1,-1.4 0.1,-1.4 -36,2 1.7,-11.9 2.4,-4.8 6,-8.4 -1.8,-2.5 h 2 v -3.3 l -2.4,-2.5 0.5,-1.7 -1.2,-1 -1.6,-7.1 0.6,-1.4 1.2,-1.5 0.5,-3 -1.5,-2.3 -0.5,-2.2 0.9,-0.7 v -0.8 l -1.7,-1.1 -0.1,-0.7 1.6,-0.9 -1.2,-1.1 1.7,-7.1 3.4,-1.6 v -0.8 l -1.1,-1.4 2.9,-5.4 h 1.9 l 1.5,-1.2 -0.3,-5.2 3.1,-4.5 1.8,-0.6 -0.5,-3.1 38.3,-2.6 1.3,2 -1.3,67 4.4,33.2 z"
       id="path1336"
       style="fill:#bc0000;fill-opacity:1" />
    <path
       class="mo"
       short-name="mo"
       long-name="Missouri"
       value="10"
       candidate-id="1"
       d="m 555.3,248.9 -1.1,-1.1 -0.6,-1.6 -1.7,-1.3 -14.3,0.8 -27.2,1.2 -25.9,-0.1 1.3,1.3 -0.3,1.4 2.1,3.7 3.9,6.3 2.9,3 2,0.6 0.9,-1 1.5,2.1 -0.1,1.2 -2.7,2.6 -0.5,2.3 2.5,2.5 2.6,4.7 3.2,0.7 0.5,48.1 0.2,10.8 39.1,-0.7 39.8,-2 1.6,2.5 v 2.2 l -1.7,1.5 -2.8,5.1 11.2,-0.8 1,-2 1.2,-0.5 v -0.7 l -1.2,-1.1 -0.6,-1 1.7,0.2 0.8,-0.7 -1.4,-1.5 1.4,-0.5 0.1,-1 -0.6,-1 v -1.3 l -0.7,-0.7 0.2,-1 h 1.1 l 0.7,0.7 -0.3,1 0.8,0.7 0.8,-1 1,-2.7 1.4,0.9 0.7,-0.4 1.2,-4.1 -1,-1 1,-2 0.2,-0.9 -1.3,-0.8 h -2.8 l -1.4,-1.5 -1.8,-3.8 v -1.9 l 0.8,-0.6 0.1,-1.3 -1.7,-1.9 -0.9,-2.5 -2.7,-4.1 -4.8,-1.3 -7.4,-7.1 -0.4,-2.4 2.8,-7.6 -0.4,-1.9 1.2,-1.1 v -1.3 l -2.8,-1.5 -3,-0.7 -3.4,1.2 -1.3,-2.3 0.6,-1.9 -0.7,-2.4 -8.6,-8.4 -2.2,-1.5 -2.5,-5.9 -1.2,-5.4 1.4,-3.7 z"
       id="path1338"
       style="fill:#bc0000;fill-opacity:1" />
    <path
       class="mt"
       short-name="mt"
       long-name="Montana"
       value="4"
       candidate-id="1"
       d="m 247,130.5 57.3,7.9 51,5.3 2,-20.7 5.2,-66.7 L 309,50.7 254.7,43 188.8,30.5 l -4.8,22 3.7,7.4 -1.6,4.8 3.6,4.8 1.9,0.7 3.9,8.3 v 2.1 l 2.3,3 h 0.9 l 1.4,2.1 h 3.2 v 1.6 l -7.1,17 -0.5,4.1 1.4,0.5 1.6,2.6 2.8,-1.4 3.6,-2.4 1.9,1.9 0.5,2.5 -0.5,3.2 2.5,9.7 2.6,3.5 2.3,1.4 0.4,3 v 4.1 l 2.3,2.3 1.6,-2.3 6.9,1.6 2.1,-1.2 9,1.7 2.8,-3.3 1.8,-0.6 1.2,1.8 1.6,4.1 0.9,0.1 z"
       id="path1340"
       style="fill:#bc0000;fill-opacity:1" />
    <path
       class="ne"
       short-name="ne"
       long-name="Nebraska"
       value="5"
       candidate-id="1"
       d="m 402.5,191.1 38,1.6 3.4,3.2 1.7,0.2 2.1,2 1.8,-0.1 1.8,-2 1.5,0.6 1,-0.7 0.7,0.5 0.9,-0.4 0.7,0.4 0.9,-0.4 1,0.5 1.4,-0.6 2,0.6 0.6,1.1 6.1,2.2 1.2,1.3 0.9,2.6 1.8,0.7 1.5,-0.2 0.5,0.9 v 2.3 l 0.6,1.7 v 1.4 l 1.3,3.7 2.2,4.3 0.2,3.7 2.8,5 0.4,6.1 1.3,0.7 -0.2,2.9 0.8,3.3 -0.7,2.2 1.8,4.4 1.3,1.3 -0.3,1.4 2.1,3.7 3.9,6.3 h -32.4 l -43.7,-1.2 -36,-2 1.4,-22.1 -33.1,-2.4 3.7,-44.2 z"
       id="path1342"
       style="fill:#bc0000;fill-opacity:1" />
    <path
       class="nv"
       short-name="nv"
       long-name="Nevada"
       value="6"
       candidate-id="0"
       d="m 167.6,296.8 -3.4,17.5 -2.4,2.9 h -2 l -1.2,-2.7 -3.7,-1.4 -3.5,0.6 -1,13.6 0.5,4.9 -0.5,2.9 -1.4,3 -70.4,-105 -1.1,-3.5 16.4,-63.1 47,11.2 24.4,5.4 23.3,4.7 z"
       id="path1344"
       style="fill:#bc0000;fill-opacity:1" />
    <path
       class="nh"
       short-name="nh"
       long-name="New Hampshire"
       value="4"
       candidate-id="0"
       d="m 862.6,93.6 -1.3,0.1 -1,-1.1 -1.9,1.4 -0.5,6.1 1.2,2.3 -1.1,3.5 2.1,2.8 -0.4,1.7 0.1,1.3 -1.1,2.1 -1.4,0.4 -0.6,1.3 -2.1,1 -0.7,1.5 1.4,3.4 -0.5,2.5 0.5,1.5 -1,1.9 0.4,1.9 -1.3,1.9 0.2,2.2 -0.7,1.1 0.7,4.5 0.7,1.5 -0.5,2.6 0.9,1.8 -0.2,2.5 -0.5,1.3 -0.1,1.4 2.1,2.6 18.4,-3.8 1,-1.5 0.3,-1.7 1.9,-0.6 0.5,-1.1 1.7,-1.1 1.3,0.3 0.8,-4.8 -2.3,-1.4 -0.8,-2.2 -3.2,-2 -0.6,-4 -11.9,-36.8 z"
       id="path1346"
       style="fill:#bc0000;fill-opacity:1" />
    <path
       class="nj"
       short-name="nj"
       long-name="New Jersey"
       value="14"
       candidate-id="0"
       d="m 842.5,195.4 -14.6,-4.9 -1.8,2.5 0.1,2.2 -3,5.4 1.5,1.8 -0.7,2 -1,1 0.5,3.6 2.7,0.9 1,2.8 2.1,1.1 4.2,3.2 -3.3,2.6 -1.6,2.3 -1.8,3 -1.6,0.6 -1.4,1.7 -1,2.2 -0.3,2.1 0.8,0.9 0.4,2.3 1.2,0.6 2.4,1.5 1.8,0.8 1.6,0.8 0.1,1.1 0.8,0.1 1.1,-1.2 0.8,0.4 2.1,0.2 -0.2,2.9 0.2,2.5 1.8,-0.7 1.5,-3.9 1.6,-4.8 2.9,-2.8 0.6,-3.5 -0.6,-1.2 1.7,-2.9 v -1.2 l -0.7,-1.1 1.2,-2.7 -0.3,-3.6 -0.6,-8.2 -1.2,-1.4 v 1.4 l 0.5,0.6 h -1.1 l -0.6,-0.4 -1.3,-0.2 -0.9,0.6 -1.2,-1.6 0.7,-1.7 v -1 l 1.7,-0.7 0.8,-2.1 z"
       id="path1348"
       style="fill:#bc0000;fill-opacity:1" />
    <path
       class="nm"
       short-name="nm"
       long-name="New Mexico"
       value="5"
       candidate-id="0"
       d="m 357.5,332.9 h -0.8 l -7.9,99.3 -31.8,-2.6 -34.4,-3.6 -0.3,3 2,2.2 -30.8,-4.1 -1.4,10.2 -15.7,-2.2 17.4,-124.1 52.6,6.5 51.7,4.8 z"
       id="path1350"
       style="fill:#bc0000;fill-opacity:1" />
    <path
       class="ny"
       short-name="ny"
       long-name="New York"
       value="28"
       candidate-id="0"
       d="m 872.9,181.6 -1.3,0.1 -0.5,1 z m -30.6,22.7 0.7,0.6 1.3,-0.3 1.1,0.3 0.9,-1.3 h 1.9 l 2.4,-0.9 5.1,-2.1 -0.5,-0.5 -1.9,0.8 -2,0.9 0.2,-0.8 2.6,-1.1 0.8,-1 1.2,0.1 4.1,-2.3 v 0.7 l -4.2,3 4.5,-2.8 1.7,-2.2 1.5,-0.1 4.5,-3.1 3.2,-3.1 3,-2.3 1,-1.2 -1.7,-0.1 -1,1.2 -0.2,0.7 -0.9,0.7 -0.8,-1.1 -1.7,1 -0.1,0.9 -0.9,-0.2 0.5,-0.9 -1.2,-0.7 -0.6,0.9 0.9,0.3 0.2,0.5 -0.3,0.5 -1.4,2.6 h -1.9 l 0.9,-1.8 0.9,-0.6 0.3,-1.7 1.4,-1.6 0.9,-0.8 1.5,-0.7 -1.2,-0.2 -0.7,0.9 h -0.7 l -1.1,0.8 -0.2,1 -2.2,2.1 -0.4,0.9 -1.4,0.9 -7.7,1.9 0.2,0.9 -0.9,0.7 -2,0.3 -1,-0.6 -0.2,1.1 -1.1,-0.4 0.1,1 -1.2,-0.1 -1.2,0.5 -0.2,1.1 h -1 l 0.2,1 h -0.7 l 0.2,1 -1.8,0.4 -1.5,2.3 z m -0.8,-0.4 -1.6,0.4 v 1 l -0.7,1.6 0.6,0.7 2.4,-2.3 -0.1,-0.9 z m -10.1,-95.2 -0.6,1.9 1.4,0.9 -0.4,1.5 0.5,3.2 2.2,2.3 -0.4,2.2 0.6,2 -0.4,1 -0.3,3.8 3.1,6.7 -0.8,1.8 0.9,2.2 0.9,-1.6 1.9,1.5 3,14.2 -0.5,2 1.1,1 -0.5,15 0.7,1 2.8,16.3 1.8,1.5 -3.5,3.4 1.7,2.2 -1.3,3.3 -1.5,1.7 -1.5,2.3 -0.2,-0.7 0.4,-5.9 -14.6,-4.9 -1.6,-1.1 -1.9,0.3 -3,-2.2 -3,-5.8 h -2 l -0.4,-1.5 -1.7,-1.1 -70.5,13.9 -0.8,-6 4.3,-3.9 0.6,-1.7 3.9,-2.5 0.6,-2.4 2.3,-2 0.8,-1.1 -1.7,-3.3 -1.7,-0.5 -1.8,-3 -0.2,-3.2 7.6,-3.9 8.2,-1.6 h 4.4 l 3.2,1.6 0.9,-0.1 1.8,-1.6 3.4,-0.7 h 3 l 2.6,-1.3 2.5,-2.6 2.4,-3.1 1.9,-0.4 1.1,-0.5 0.4,-3.2 -1.4,-2.7 -1.2,-0.7 2,-1.3 -0.1,-1.8 h -1.5 l -2.3,-1.4 -0.1,-3.1 6.2,-6.1 0.7,-2.4 3.7,-6.3 5.9,-6.4 2.1,-1.7 2.5,0.1 20.6,-5.2 z"
       id="path1352"
       style="fill:#bc0000;fill-opacity:1" />
    <path
       class="nc"
       short-name="nc"
       long-name="North Carolina"
       value="16"
       candidate-id="1"
       d="m 829,300.1 -29.1,6.1 -39.4,7.3 -29.4,3.5 v 5.2 l -1.5,-0.1 -1.4,1.2 -2.4,5.2 -2.6,-1.1 -3.5,2.5 -0.7,2.1 -1.5,1.2 -0.8,-0.8 -0.1,-1.5 -0.8,-0.2 -4,3.3 -0.6,3.4 -4.7,2.4 -0.5,1.2 -3.2,2.6 -3.6,0.5 -4.6,3 -0.8,4.1 -1.3,0.9 -1.5,-0.1 -1.4,1.3 -0.1,4.9 21.4,-3 4.4,-1.9 1.3,-0.1 7.3,-4.3 23.2,-2.2 0.4,0.5 -0.2,1.4 0.7,0.3 1.2,-1.5 3.3,3 0.1,2.6 19.7,-2.8 24.5,17.1 4,-2.2 3,-0.7 h 1.7 l 1.1,1.1 0.8,-2 0.6,-5 1.7,-3.9 5.4,-6.1 4.1,-3.5 5.4,-2.3 2.5,-0.4 1.3,0.4 0.7,1.1 3.3,-6.6 3.3,-5.3 -0.7,-0.3 -4.4,6.8 -0.5,-0.8 2,-2.2 -0.4,-1.5 -2,-0.5 1,1.3 -1.2,0.1 -1.2,-1.8 -1.2,2 -1.6,0.2 1,-2.7 0.7,-1.7 -0.2,-2.9 -2.2,-0.1 0.9,-0.9 1.1,0.3 2.7,0.1 0.8,-0.5 h 2.3 l 2,-1.9 0.2,-3.2 1.3,-1.4 1.2,-0.2 1.3,-1 -0.5,-3.7 -2.2,-3.8 -2.7,-0.2 -0.9,1.6 -0.5,-1 -2.7,0.2 -1.2,0.4 -1.9,1.2 -0.3,-0.4 h -0.9 l -1.8,1.2 -2.6,0.5 v -1.3 l 0.8,-1 1,0.7 h 1 l 1.7,-2.1 3.7,-1.7 2,-2.2 h 2.4 l 0.8,1.3 1.7,0.8 -0.5,-1.5 -0.3,-1.6 -2.8,-3.1 -0.3,-1.4 -0.4,1 -0.9,-1.3 z m 7,31 2.7,-2.5 4.6,-3.3 v -3.7 l -0.4,-3.1 -1.7,-4.2 1.5,1.4 1,3.2 0.4,7.6 -1.7,0.4 -3.1,2.4 -3.2,3.2 z m 1.9,-19.3 -0.9,-0.2 v 1 l 2.5,2.2 -0.2,-1.4 z m 2.9,2.1 -1.4,-2.8 -2.2,-3.4 -2.4,-3 -2.2,-4.3 -0.8,-0.7 2.2,4.3 0.3,1.3 3.4,5.5 1.8,2.1 z"
       id="path1354"
       style="fill:#bc0000;fill-opacity:1" />
    <path
       class="nd"
       short-name="nd"
       long-name="North Dakota"
       value="3"
       candidate-id="1"
       d="m 464.7,68.6 -1.1,2.8 0.8,1.4 -0.3,5.1 -0.5,1.1 2.7,9.1 1.3,2.5 0.7,14 1,2.7 -0.4,5.8 2.9,7.4 0.3,5.8 -0.1,2.1 -29.5,-0.4 -46,-2.1 -39.2,-2.9 5.2,-66.7 44.5,3.4 55.3,1.6 z"
       id="path1356"
       style="fill:#bc0000;fill-opacity:1" />
    <path
       class="oh"
       short-name="oh"
       long-name="Ohio"
       value="17"
       candidate-id="1"
       d="m 685.7,208.8 1.9,-0.4 3,1.3 2.1,0.6 0.7,0.9 h 1 l 1,-1.5 1.3,0.8 h 1.5 l -0.1,1 -3.1,0.5 -2,1.1 1.9,0.8 1.6,-1.5 2.4,-0.4 2.2,1.5 1.5,-0.1 2.5,-1.7 3.6,-2.1 5.2,-0.3 4.9,-5.9 3.8,-3.1 9.3,-5.1 4.9,29.9 -2.2,1.2 1.4,2.1 -0.1,2.2 0.6,2 -1.1,3.4 -0.1,5.4 -1,3.6 0.5,1.1 -0.4,2.2 -1.1,0.5 -2,3.3 -1.8,2 h -0.6 l -1.8,1.7 -1.3,-1.2 -1.5,1.8 -0.3,1.2 h -1.3 l -1.3,2.2 0.1,2.1 -1,0.5 1.4,1.1 v 1.9 l -1,0.2 -0.7,0.8 -1,0.5 -0.6,-2.1 -1.6,-0.5 -1,2.3 -0.3,2.2 -1.1,1.3 1.3,3.6 -1.5,0.8 -0.4,3.5 h -1.5 l -3.2,1.4 -1.2,-2.1 -3.5,-1.4 -0.8,-2.9 -0.5,-0.8 -3.4,1.8 -0.6,1.7 h -0.9 l -1.3,0.7 -1.2,-0.8 -3,-0.8 -1.9,0.8 v 1 l -2.2,-0.2 -1.9,-2.1 -2.3,0.2 -4.1,-0.7 v -1 l -2.2,-3.4 -2.9,-1.2 -1.9,0.8 -2.2,-0.1 -1.3,-0.5 -6.6,-57.2 21.4,-3.5 z"
       id="path1358"
       style="fill:#bc0000;fill-opacity:1" />
    <path
       class="ok"
       short-name="ok"
       long-name="Oklahoma"
       value="7"
       candidate-id="1"
       d="m 501.5,398.6 -4.6,-3.8 -2.2,-0.9 -0.5,1.6 -5.1,0.3 -0.6,-1.5 -5,2.5 -1.6,-0.7 -3.7,0.3 -0.6,1.7 -3.6,0.9 -1.3,-1.2 -1.2,0.1 -2,-1.8 -2.1,0.7 -2,-0.5 -1.8,-2 -2.5,4.2 -1.2,0.8 -1,-1.8 0.3,-2 -1.2,-0.7 -2.3,2.5 -1.7,-1.2 -0.1,-1.5 -1.3,0.5 -2.6,-1.7 -3,2.6 -2.3,-1.1 0.7,-2.1 -2.3,0.1 -1.9,-3 -3.5,-1.1 -2,2.3 -2.3,-2.2 -1.4,0.4 -2,0.1 -3.5,-1.9 -2.3,0.1 -1.2,-0.7 -0.5,-2.9 -2.3,-1.7 -1.1,1.5 -1.4,-1 -1.2,-0.4 -1.1,1 -1.5,-0.3 -2.5,-3 -2.7,-1.3 1.4,-42.7 -52.6,-3.2 0.6,-10.6 16.5,1 67.7,2.9 62,0.1 0.2,10.8 4.1,24.4 -0.7,39 z"
       id="path1360"
       style="fill:#bc0000;fill-opacity:1" />
    <path
       class="or"
       short-name="or"
       long-name="Oregon"
       value="8"
       candidate-id="0"
       d="m 93.9,166.5 47,11.2 8.5,-37.3 2.9,-5.8 0.4,-2.1 0.8,-0.9 -0.9,-2 -2.9,-1.2 0.2,-4.2 4,-5.8 2.5,-0.8 1.6,-2.3 -0.1,-1.6 1.8,-1.6 3.2,-5.5 4.2,-4.8 -0.5,-3.2 -3.5,-3.1 -1.6,-3.6 -30.3,-7.3 -2.8,1 -5.4,-0.9 -1.8,-0.9 -1.5,1.2 -3.3,-0.4 -4.5,0.5 -0.9,0.7 -4.2,-0.4 -0.8,-1.6 -1.2,-0.2 -4.4,1.3 -1.6,-1.1 -2.2,0.8 -0.2,-1.8 -2.3,-1.2 -1.5,-0.2 -1,-1.1 -3,0.3 -1.2,-0.8 h -1.2 l -1.2,0.9 -5.5,0.7 -6.6,-4.2 1.1,-5.6 -0.4,-4.1 -3.2,-3.7 -3.7,0.1 -0.4,-1.1 0.4,-1.2 -0.7,-0.8 -1,0.1 -1.1,1.3 -1.5,-0.2 -0.5,-1.1 -1,-0.1 -0.7,0.6 -2,-1.9 v 4.3 l -1.3,1.3 -1.1,3.5 -0.1,2.3 -4.5,12.3 -13.2,31.3 -3.2,4.6 -1.6,-0.1 0.1,2.1 -5.2,7.1 -0.3,3.3 1,1.3 0.1,2.4 -1.2,1.1 -1.2,3 0.1,5.7 1.2,2.9 z"
       id="path1362"
       style="fill:#bc0000;fill-opacity:1" />
    <path
       class="pa"
       short-name="pa"
       long-name="Pennsylvania"
       value="19"
       candidate-id="0"
       candidate-margin="1"
       d="m 826.3,189.4 -1.9,0.3 -3,-2.2 -3,-5.8 h -2 l -0.4,-1.5 -1.7,-1.1 -70.5,13.9 -0.8,-6 -4.2,3.4 -0.9,0.1 -2.7,3 -3.3,1.7 4.9,29.9 3.2,19.7 17.4,-2.9 60.5,-11.8 1.2,-2.1 1.5,-1.1 1.6,-0.3 1.6,0.6 1.4,-1.7 1.6,-0.6 1.8,-3 1.6,-2.3 3.3,-2.6 -4.2,-3.2 -2.1,-1.1 -1,-2.8 -2.7,-0.9 -0.5,-3.6 1,-1 0.7,-2 -1.5,-1.8 3,-5.4 -0.1,-2.2 1.8,-2.5 z"
       id="path1364"
       style="fill:#bc0000;fill-opacity:1" />
    <path
       class="ri"
       short-name="ri"
       long-name="Rhode Island"
       value="4"
       candidate-id="0"
       d="m 883.2,170.7 -1.3,-1.1 -2.6,-1.3 -0.6,-2.2 h -0.8 l -0.7,-2.6 -6.5,2 3.2,12.3 -0.4,1.1 0.4,1.8 5.6,-3.6 0.1,-3 -0.8,-0.8 0.4,-0.6 -0.1,-1.3 -0.9,-0.7 1.2,-0.4 -0.9,-1.6 1.8,0.7 0.3,1.4 0.7,1.2 -1.4,-0.8 1.1,1.7 -0.3,1.2 -0.6,-1.1 v 2.5 l 0.6,-0.9 0.4,0.9 1.3,-1.5 -0.2,-2.5 1.4,3.1 1,-0.9 z m -4.7,12.2 h 0.9 l 0.5,-0.6 -0.8,-1.3 -0.7,0.7 z"
       id="path1366"
       style="fill:#bc0000;fill-opacity:1" />
    <path
       class="sc"
       short-name="sc"
       long-name="South Carolina"
       value="9"
       candidate-id="1"
       d="m 772.3,350.2 -19.7,2.8 -0.1,-2.6 -3.3,-3 -1.2,1.5 -0.7,-0.3 0.2,-1.4 -0.4,-0.5 -23.2,2.2 -7.3,4.3 -1.3,0.1 -4.4,1.9 -0.1,1.9 -1.9,1 -1.4,3.2 0.2,1.3 6.1,3.8 2.6,-0.3 3.1,4 0.4,1.7 4.2,5.1 2.6,1.7 1.4,0.2 2.2,1.6 1.1,2.2 2,1.6 1.8,0.5 2.7,2.7 0.1,1.4 2.6,2.8 5,2.3 3.6,6.7 0.3,2.7 3.9,2.1 2.5,4.8 0.8,3.1 4.2,0.4 0.8,-1.5 h 0.6 l 1.8,-1.5 0.5,-2 3.2,-2.1 0.3,-2.4 -1.2,-0.9 0.8,-0.7 0.8,0.4 1.3,-0.4 1.8,-2.1 3.8,-1.8 1.6,-2.4 0.1,-0.7 4.8,-4.4 -0.1,-0.5 -0.9,-0.8 1.1,-1.5 h 0.8 l 0.4,0.5 0.7,-0.8 h 1.3 l 0.6,-1.5 2.3,-2.1 -0.3,-5.4 0.8,-2.3 3.6,-6.2 2.4,-2.2 2.2,-1.1 z"
       id="path1368"
       style="fill:#bc0000;fill-opacity:1" />
    <path
       class="sd"
       short-name="sd"
       long-name="South Dakota"
       value="3"
       candidate-id="1"
       d="m 396.5,125.9 46,2.1 29.5,0.4 -0.1,2.2 -0.9,2 -3.1,1.9 -0.3,1.2 1.7,2.5 0.4,1.8 2.6,0.6 1.5,1.9 -0.2,39.5 -2.2,-0.1 -0.1,1.6 1.3,1.5 -0.1,1.1 -1,0.5 0.4,1.6 1.3,0.4 0.7,2 -1.7,5.1 -1,4.3 1.3,1.2 0.3,1.3 0.7,1.7 -1.5,0.2 -1.8,-0.7 -0.9,-2.6 -1.2,-1.3 -6.1,-2.2 -0.6,-1.1 -2,-0.6 -1.4,0.6 -1,-0.5 -0.9,0.4 -0.7,-0.4 -0.9,0.4 -0.7,-0.5 -1,0.7 -1.5,-0.6 -1.8,2 -1.8,0.1 -2.1,-2 -1.7,-0.2 -3.4,-3.2 -38,-1.6 -51.1,-3.5 3.9,-43.9 2,-20.7 z"
       id="path1370"
       style="fill:#bc0000;fill-opacity:1" />
    <path
       class="tn"
       short-name="tn"
       long-name="Tennessee"
       value="11"
       d="m 620.9,365.1 45.7,-4 22.9,-2.9 0.1,-4.9 1.4,-1.3 1.5,0.1 1.3,-0.9 0.8,-4.1 4.6,-3 3.6,-0.5 3.2,-2.6 0.5,-1.2 4.7,-2.4 0.6,-3.4 4,-3.3 0.8,0.2 0.1,1.5 0.8,0.8 1.5,-1.2 0.7,-2.1 3.5,-2.5 2.6,1.1 2.4,-5.2 1.4,-1.2 1.5,0.1 V 317 l 0.3,-0.7 -4.6,0.5 -0.2,1 -28.9,3.3 -5.6,1.4 -20.5,1.4 -5.2,0.8 -17.4,1 -2.6,0.8 -22.6,2 -0.7,-0.6 h -3.7 l 1.2,3.2 -0.6,0.9 -23.3,1.5 -0.8,1 -0.8,-0.7 h -1 v 1.3 l 0.6,1 -0.1,1 -1.4,0.5 1.4,1.5 -0.8,0.7 -1.7,-0.2 0.6,1 1.2,1.1 v 0.7 l -1.2,0.5 -1,2 0.1,0.6 1.4,1 -0.4,0.7 h -1.5 v 0.5 l 0.9,0.9 0.1,0.8 -1.4,0.2 -0.5,0.8 -1.6,0.2 -0.9,0.9 0.6,0.9 1.1,-0.1 0.5,0.9 -1.6,1.3 0.4,1.5 -2,-0.6 -0.1,0.7 0.4,1.1 -0.3,1.4 -1.3,-0.8 -0.8,0.8 1.1,0.1 0.1,1.5 -0.6,1 1.1,0.9 -0.3,1.5 0.8,0.7 -0.7,1 -1.2,-0.5 -0.9,2.2 -1.6,0.7 z"
       id="path1372"
       candidate-id="1"
       style="fill:#bc0000;fill-opacity:1" />
    <path
       class="tx"
       short-name="tx"
       long-name="Texas"
       value="40"
       candidate-id="1"
       d="m 282.3,429 0.3,-3 34.4,3.6 31.8,2.6 7.9,-99.3 h 0.8 l 52.6,3.2 -1.4,42.7 2.7,1.3 2.5,3 1.5,0.3 1.1,-1 1.2,0.4 1.4,1 1.1,-1.5 2.3,1.7 0.5,2.9 1.2,0.7 2.3,-0.1 3.5,1.9 2,-0.1 1.4,-0.4 2.3,2.2 2,-2.3 3.5,1.1 1.9,3 2.3,-0.1 -0.7,2.1 2.3,1.1 3,-2.6 2.6,1.7 1.3,-0.5 0.1,1.5 1.7,1.2 2.3,-2.5 1.2,0.7 -0.3,2 1,1.8 1.2,-0.8 2.5,-4.2 1.8,2 2,0.5 2.1,-0.7 2,1.8 1.2,-0.1 1.3,1.2 3.6,-0.9 0.6,-1.7 3.7,-0.3 1.6,0.7 5,-2.5 0.6,1.5 5.1,-0.3 0.5,-1.6 2.2,0.9 4.6,3.8 6.4,1.9 2.6,2.3 2.8,-1.3 3.2,0.8 0.2,11.9 0.5,19.9 0.7,3.4 2.6,2.8 0.7,5.4 3.8,4.6 0.8,4.3 h 1 l -0.1,7.3 -3.3,6.4 1.3,2.3 -1.3,1.5 0.7,3 -0.1,4.3 -2.2,3.5 -0.1,0.8 -1.7,1.2 1,1.8 1.2,1.1 -3.5,0.3 -8.4,3.9 -3.5,1.4 -1.8,1.8 -0.7,-0.5 2.1,-2.3 1.8,-0.7 0.5,-0.9 -2.9,-0.1 -0.7,-0.8 0.8,-2 -0.9,-1.8 h -0.6 l -2.4,1.3 -1.9,2.6 0.3,1.7 3.3,3.4 1.3,0.3 v 0.8 l -2.3,1.6 -4.9,4 -4,3.9 -3.2,1.4 -5,3 -3.7,2 -4.5,1.9 -4.1,2.5 3.2,-3 v -1.1 l 0.6,-0.8 -0.2,-1.8 -1.5,-0.1 -1.1,1.5 -2.6,1.3 -1.8,-1.2 -0.3,-1.7 h -1.5 l 0.8,2.2 1.4,0.7 1.2,0.9 1.8,1.6 -0.7,0.8 -3.9,1.7 -1.7,0.1 -1.2,-1.2 -0.5,2.1 0.5,1.1 -2.7,2 -1.5,0.2 -0.8,0.7 -0.4,1.7 -1.8,3.3 -1.6,0.7 -1.6,-0.6 -1.8,1.1 0.3,1.4 1.3,0.8 1,0.8 -1.8,3.5 -0.3,2.8 -1,1.7 -1.4,1 -2.9,0.4 1.8,0.6 1.9,-0.6 -0.4,3.2 -1.1,-0.1 0.2,1.2 0.3,1.4 -1.3,0.9 v 3.1 l 1.6,1.4 0.6,3.1 -0.4,2.2 -1,0.4 0.4,1.5 1.1,0.4 0.8,1.7 v 2.6 l 1.1,2.1 2.2,2.6 -0.1,0.7 -2.2,-0.2 -1.6,1.4 0.2,1.4 -0.9,-0.3 -1.4,-0.2 -3.4,-3.7 -2.3,-0.6 h -7.1 l -2.8,-0.8 -3.6,-3 -1.7,-1 -2.1,0.1 -3.2,-2.6 -5.4,-1.6 v -1.3 l -1.4,-1.8 -0.9,-4.7 -1.1,-1.7 -1.7,-1.4 v -1.6 l -1.4,-0.6 0.6,-2.6 -0.3,-2.2 -1.3,-1.4 0.7,-3 -0.8,-3.2 -1.7,-1.4 h -1.1 l -4,-3.5 0.1,-1.9 -0.8,-1.7 -0.8,-0.2 -0.9,-2.4 -2,-1.6 -2.9,-2.5 -0.2,-2.1 -1,-0.7 0.2,-1.6 0.5,-0.7 -1.4,-1.5 0.1,-0.7 -2,-2.2 0.1,-2.1 -2.7,-4.9 -0.1,-1.7 -1.8,-3.1 -5.1,-4.8 v -1.1 l -3.3,-1.7 -0.1,-1.8 -1.2,-0.4 v -0.7 l -0.8,-0.2 -2.1,-2.8 h -0.8 l -0.7,-0.6 -1.3,1.1 h -2.2 l -2.6,-1.1 h -4.6 l -4.2,-2.1 -1.3,1.9 -2.2,-0.6 -3.3,1.2 -1.7,2.8 -2,3.2 -1.1,4.4 -1.4,1.2 -1.1,0.1 -0.9,1.6 -1.3,0.6 -0.1,1.8 -2.9,0.1 -1.8,-1.5 h -1 l -2,-2.9 -3.6,-0.5 -1.7,-2.3 -1.3,-0.2 -2.1,-0.8 -3.4,-3.4 0.2,-0.8 -1.6,-1.2 -1,-0.1 -3.4,-3.1 -0.1,-2 -2.3,-4 0.2,-1.6 -0.7,-1.3 0.8,-1.5 -0.1,-2.4 -2.6,-4.1 -0.6,-4.2 -1.6,-1.6 v -1 l -1.2,-0.2 -0.7,-1.1 -2.4,-1.7 -0.9,-0.1 -1.9,-1.6 v -1.1 l -2.9,-1.8 -0.6,-2.1 -2.6,-2.3 -3.2,-4.4 -3,-1.3 -2.1,-1.8 0.2,-1.2 -1.3,-1.4 -1.7,-3.7 -2.4,-1 z m 174.9,138.3 0.8,0.1 -0.6,-4.8 -3.5,-12.3 -0.2,-8.1 4.9,-10.5 6.1,-8.2 7.2,-5.1 v -0.7 h -0.8 l -2.6,1 -3.6,2.3 -0.7,1.5 -8.2,11.6 -2.8,7.9 v 8.8 l 3.6,12 z"
       id="path1374"
       style="fill:#bc0000;fill-opacity:1" />
    <path
       class="ut"
       short-name="ut"
       long-name="Utah"
       value="6"
       candidate-id="1"
       d="m 233.2,217.9 3.3,-21.9 -47.9,-8.2 -21,109 46.2,8.2 40,6 11.5,-88.3 z"
       id="path1376"
       style="fill:#bc0000;fill-opacity:1" />
    <path
       class="vt"
       short-name="vt"
       long-name="Vermont"
       value="3"
       candidate-id="0"
       d="m 859.1,102.4 -1.1,3.5 2.1,2.8 -0.4,1.7 0.1,1.3 -1.1,2.1 -1.4,0.4 -0.6,1.3 -2.1,1 -0.7,1.5 1.4,3.4 -0.5,2.5 0.5,1.5 -1,1.9 0.4,1.9 -1.3,1.9 0.2,2.2 -0.7,1.1 0.7,4.5 0.7,1.5 -0.5,2.6 0.9,1.8 -0.2,2.5 -0.5,1.3 -0.1,1.4 2.1,2.6 -12.4,2.7 -1.1,-1 0.5,-2 -3,-14.2 -1.9,-1.5 -0.9,1.6 -0.9,-2.2 0.8,-1.8 -3.1,-6.7 0.3,-3.8 0.4,-1 -0.6,-2 0.4,-2.2 -2.2,-2.3 -0.5,-3.2 0.4,-1.5 -1.4,-0.9 0.6,-1.9 -0.8,-1.7 27.3,-6.9 z"
       id="path1378"
       style="fill:#bc0000;fill-opacity:1" />
    <path
       class="va"
       short-name="va"
       long-name="Virginia"
       value="13"
       candidate-id="0"
       d="m 834.7,265.4 -1.1,2.8 0.5,1.1 0.4,-1.1 0.8,-3.1 z m -34.6,-7 -0.7,-1 1,-0.1 1,-0.9 0.4,-1.8 -0.2,-0.5 0.1,-0.5 -0.3,-0.7 -0.6,-0.5 -0.4,-0.1 -0.5,-0.4 -0.6,-0.6 h -1 l -0.6,-0.1 -0.4,-0.4 0.1,-0.5 -1.7,-0.6 -0.8,0.3 -1.2,-0.1 -0.7,-0.7 -0.5,-0.2 -0.2,-0.7 0.6,-0.8 v -0.9 l -1.2,-0.2 -1,-0.9 -0.9,0.1 -1.6,-0.3 -0.4,0.7 -0.4,1.6 -0.5,2.3 -10,-5.2 -0.2,0.9 0.9,1.6 -0.8,2.3 0.1,2.9 -1.2,0.8 -0.5,2.1 -0.9,0.8 -1.4,1.8 -0.9,0.8 -1,2.5 -2.4,-1.1 -2.3,8.5 -1.3,1.6 -2.8,-0.5 -1.3,-1.9 -2.3,-0.7 -0.1,4.7 -1.4,1.7 0.4,1.5 -2.1,2.2 0.4,1.9 -3.7,6.3 -1,3.3 1.5,1.2 -1.5,1.9 0.1,1.4 -2.3,2 -0.7,-1.1 -4.3,3.1 -1.5,-1 -0.6,1.4 0.8,0.5 -0.5,0.9 -5.5,2.4 -3,-1.8 -0.8,1.7 -1.9,1.8 -2.3,0.1 -4.4,-2.3 -0.1,-1.5 -1.5,-0.7 0.8,-1.2 -0.7,-0.6 -4.9,6.6 -2.9,1 -3,3 -0.4,2.2 -2.1,1.3 -0.1,1.7 -1.4,1.4 -1.8,0.5 -0.5,1.9 -1,0.4 -6.9,4.2 28.9,-3.3 0.2,-1 4.6,-0.5 -0.3,0.7 29.4,-3.5 39.4,-7.3 29.1,-6.1 -0.6,-1.2 0.4,-0.1 0.9,0.9 -0.1,-1.4 -0.3,-1.9 1.6,1.2 0.9,2.1 v -1.3 l -3.4,-5.5 v -1.2 l -0.7,-0.8 -1.3,0.7 0.5,1.4 h -0.8 l -0.4,-1 -0.6,0.9 -0.9,-1.1 -2.1,-0.1 -0.2,0.7 1.5,2.1 -1.4,-0.7 -0.5,-1 -0.4,0.8 -0.8,0.1 -1.5,1.7 0.3,-1.6 v -1.4 l -1.5,-0.7 -1.8,-0.5 -0.2,-1.7 -0.6,-1.3 -0.6,1.1 -1.7,-1 -2,0.3 0.2,-0.9 1.5,-0.2 0.9,0.5 1.7,-0.8 0.9,0.4 0.5,1 v 0.7 l 1.9,0.4 0.3,0.9 0.9,0.4 0.9,1.2 1.4,-1.6 h 0.6 l -0.1,-2.1 -1.3,1 -0.6,-0.9 1.5,-0.2 -1.2,-0.9 -1.2,0.6 -0.1,-1.7 -1.7,0.2 -2.2,-1.1 -1.8,-2.2 3.6,2.2 0.9,0.3 1.7,-0.8 -1.7,-0.9 0.6,-0.6 -1,-0.5 0.8,-0.2 -0.3,-0.9 1.1,0.9 0.4,-0.8 0.4,1.3 1.2,0.8 0.6,-0.5 -0.5,-0.6 -0.1,-2.5 -1.1,-0.1 -1.6,-0.8 0.9,-1.1 -2,-0.1 -0.4,-0.5 -1.4,0.6 -1.4,-0.8 -0.5,-1.2 -2.1,-1.2 -2.1,-1.8 -2.2,-1.9 3,1.3 0.9,1.2 2.1,0.7 2.3,2.5 0.2,-1.7 0.6,1.3 2.3,0.5 v -4 l -0.8,-1.1 1.1,0.4 0.1,-1.6 -3.1,-1.4 -1.6,-0.2 -1.3,-0.2 0.3,-1.2 -1.5,-0.3 -0.1,-0.6 h -1.8 l -0.2,0.8 -0.7,-1 h -2.7 l -1,-0.4 -0.2,-1 -1.2,-0.6 -0.4,-1.5 -0.6,-0.4 -0.7,1.1 -0.9,0.2 -0.9,0.7 h -1.5 l -0.9,-1.3 0.4,-3.1 0.5,-2.4 0.6,0.5 z m 21.9,11.6 0.9,-0.1 v -0.6 l -0.8,0.1 z m 7.5,14.2 -1,2.7 1.2,-1.3 z m -1.8,-15.3 0.7,0.3 -0.2,1.9 -0.5,-0.5 -1.3,1 1,0.4 -1.8,4.4 0.1,8.1 1.9,3.1 0.5,-1.5 0.4,-2.7 -0.3,-2.3 0.7,-0.9 -0.2,-1.4 1.2,-0.6 -0.6,-0.5 0.5,-0.7 0.8,1.1 -0.2,1.1 -0.4,3.9 1.1,-2.2 0.4,-3.1 0.1,-3 -0.3,-2 0.6,-2.3 1.1,-1.8 0.1,-2.2 0.3,-0.9 -4.6,1.6 -0.7,0.8 z"
       id="path1380"
       style="fill:#bc0000;fill-opacity:1" />
    <path
       class="wa"
       short-name="wa"
       long-name="Washington"
       value="12"
       candidate-id="0"
       d="m 161.9,83.6 0.7,4 -1.1,4.3 -30.3,-7.3 -2.8,1 -5.4,-0.9 -1.8,-0.9 -1.5,1.2 -3.3,-0.4 -4.5,0.5 -0.9,0.7 -4.2,-0.4 -0.8,-1.6 -1.2,-0.2 -4.4,1.3 -1.6,-1.1 -2.2,0.8 -0.2,-1.8 -2.3,-1.2 -1.5,-0.2 -1,-1.1 -3,0.3 -1.2,-0.8 h -1.2 l -1.2,0.9 -5.5,0.7 -6.6,-4.2 1.1,-5.6 -0.4,-4.1 -3.2,-3.7 -3.7,0.1 -0.4,-1.1 0.4,-1.2 -0.7,-0.8 -1,0.1 -2.1,-1.5 -1.2,0.4 -2,-0.1 -0.7,-1.5 -1.6,-0.3 2.5,-7.5 -0.7,6 0.5,0.5 v -2 l 0.8,-0.2 1.1,2.3 -0.5,-2.2 1.2,-4.2 1.8,0.4 -1.1,-2 -1,0.3 -1.5,-0.4 0.2,-4.2 0.2,1.5 0.9,0.5 0.6,-1.6 h 3.2 l -2.2,-1.2 -1.7,-1.9 -1.4,1.6 1.2,-3.1 -0.3,-4.6 -0.2,-3.6 0.9,-6.1 -0.5,-2 -1.4,-2.1 0.1,-4 0.4,-2.7 2,-2.3 -0.7,-1.4 0.2,-0.6 0.9,0.1 7.8,7.6 4.7,1.9 5.1,2.5 3.2,-0.1 0.2,3 1,-1.6 h 0.7 l 0.6,2.7 0.5,-2.6 1.4,-0.2 0.5,0.7 -1.1,0.6 0.1,1.6 0.7,-1.5 h 1.1 l -0.4,2.6 -1.1,-0.8 0.4,1.4 -0.1,1.5 -0.8,0.7 -2.5,2.9 1.2,-3.4 -1.6,0.4 -0.4,2.1 -3.8,2.8 -0.4,1 -2.1,2.2 -0.1,1 h 2.2 l 2.4,-0.2 0.5,-0.9 -3.9,0.5 V 39 l 2.6,-2.8 1.8,-0.8 1.9,-0.2 1,-1.6 3,-2.3 v -1.4 h 1.1 l 0.1,4 h -1.5 l -0.6,0.8 -1.1,-0.9 0.3,1.1 v 1.7 l -0.7,0.7 -0.3,-1.6 -0.8,0.8 0.7,0.6 -0.9,1.1 h 1.3 l 0.7,-0.5 0.1,2 -1,1.9 -0.9,1 -0.1,1.8 -1,-0.2 -0.2,-1.4 0.9,-1.1 -0.8,-0.5 -0.8,0.7 -0.7,2.2 -0.8,0.9 -0.1,-2 0.8,-1.1 -0.2,-1.1 -1.2,1.2 0.1,2.2 -0.6,0.4 -2.1,-0.4 -1.3,1.2 2.2,-0.6 -0.2,2.2 1,-1.8 0.4,1.4 0.5,-1 0.7,1.8 h 0.7 l 0.7,-0.8 0.6,-0.1 2,-1.9 0.2,-1.2 0.8,0.6 0.3,0.9 0.7,-0.3 0.1,-1.2 h 1.3 l 0.2,-2.9 -0.1,-2.7 0.9,0.3 -0.7,-2.1 1.4,-0.8 0.2,-2.4 2.3,-2.2 1,0.1 0.3,-1.4 -1.2,-1.4 -0.1,-3.5 -0.8,0.9 0.7,2.9 -0.6,0.1 -0.6,-1.9 -0.6,-0.5 0.3,-2.3 1.8,-0.1 0.3,0.7 0.3,-1.6 -1.6,-1.7 -0.6,-1.6 -0.2,2 0.9,1.1 -0.7,0.4 -1,-0.8 -1.8,1.3 1.5,0.5 0.2,2.4 -0.3,1.8 0.9,-1.3 1.4,2.3 -0.4,1.9 h -1.5 v -1.2 l -1.5,-1.2 0.5,-3 -1.9,-2.6 2.7,-3 0.6,-4.1 h 0.9 l 1.4,3.2 v -2.6 l 1.2,0.3 v -3.3 l -0.9,-0.8 -1.2,2.5 -1,-3 L 93.5,12 92,7.1 93.9,6.5 119.3,14 151,22 174.6,27.5 Z M 83.2,44.2 h 0.5 l 0.1,0.8 -0.5,0.3 0.1,0.6 -0.7,0.4 L 82.5,45.4 83,45 Z m 5,-4.3 -1.2,1.9 -0.1,0.8 0.4,0.2 0.5,-0.6 1.1,0.1 z m -0.4,-21.6 0.5,0.6 1.3,-0.3 0.2,-1 1.2,-1.8 -1,-0.4 -0.7,1.6 -0.1,-1.6 -1.1,0.2 -0.7,1.4 z m 3.2,-5.5 0.7,1.5 -0.9,0.2 -0.8,0.4 -0.2,-2.4 z m -2.7,-1.6 -1.1,-0.2 0.5,1.4 z m -1,2.5 0.8,0.4 -0.4,1.1 1.7,-0.5 -0.2,-2.2 -0.9,-0.2 z m -2.7,-0.4 0.3,2.7 1.6,1.3 0.6,-1.9 -1.1,-2.2 z m 1.9,-1.1 -1.1,-1 -0.9,0.1 1.8,1.5 z m 3.2,-7 H 88.5 V 6 l 1.2,0.6 z M 88.8,37.7 89.2,35 h -1.1 l -0.2,1.9 z"
       id="path1382"
       style="fill:#bc0000;fill-opacity:1" />
    <path
       class="wv"
       short-name="wv"
       long-name="West Virginia"
       value="4"
       candidate-id="1"
       d="m 723.4,297.5 -0.8,1.2 1.5,0.7 0.1,1.5 4.4,2.3 2.3,-0.1 1.9,-1.8 0.8,-1.7 3,1.8 5.5,-2.4 0.5,-0.9 -0.8,-0.5 0.6,-1.4 1.5,1 4.3,-3.1 0.7,1.1 2.3,-2 -0.1,-1.4 1.5,-1.9 -1.5,-1.2 1,-3.3 3.7,-6.3 -0.4,-1.9 2.1,-2.2 -0.4,-1.5 1.4,-1.7 0.1,-4.7 2.3,0.7 1.3,1.9 2.8,0.5 1.3,-1.6 2.3,-8.5 2.4,1.1 1,-2.5 0.9,-0.8 1.4,-1.8 0.9,-0.8 0.5,-2.1 1.2,-0.8 -0.1,-2.9 0.8,-2.3 -0.9,-1.6 0.2,-0.9 10,5.2 0.5,-2.3 0.4,-1.6 0.4,-0.7 -0.9,-0.4 0.2,-1.6 -1,-0.5 -0.2,-0.7 h -0.7 l -0.8,-1.2 0.2,-1 -2.6,0.4 -2.2,-1.6 -1.4,0.3 -0.9,1.4 h -1.3 l -1.7,2.9 -3.3,0.4 -1.9,-1 -2.6,3.8 -2.2,-0.3 -3.1,3.9 -0.9,1.6 -1.8,1.6 -1.7,-11.4 -17.4,2.9 -3.2,-19.7 -2.2,1.2 1.4,2.1 -0.1,2.2 0.6,2 -1.1,3.4 -0.1,5.4 -1,3.6 0.5,1.1 -0.4,2.2 -1.1,0.5 -2,3.3 -1.8,2 h -0.6 l -1.8,1.7 -1.3,-1.2 -1.5,1.8 -0.3,1.2 h -1.3 l -1.3,2.2 0.1,2.1 -1,0.5 1.4,1.1 v 1.9 l -1,0.2 -0.7,0.8 -1,0.5 -0.6,-2.1 -1.6,-0.5 -1,2.3 -0.3,2.2 -1.1,1.3 1.3,3.6 -1.5,0.8 -0.4,3.5 h -1.5 l -3.2,1.4 -0.1,1.1 0.6,1 -0.6,3.6 1.9,1.6 0.8,1.1 1,0.6 -0.1,0.9 4.4,5.6 h 1.4 l 1.5,1.8 1.2,0.3 1.4,-0.1 z"
       id="path1384"
       style="fill:#bc0000;fill-opacity:1" />
    <path
       class="wi"
       short-name="wi"
       long-name="Wisconsin"
       value="10"
       candidate-id="0"
       candidate-margin="1"
       d="m 611,144 -2.9,0.8 0.2,2.3 -2.4,3.4 -0.2,3.1 0.6,0.7 0.8,-0.7 0.5,-1.6 2,-1.1 1.6,-4.2 3.5,-1.1 0.8,-3.3 0.7,-0.9 0.4,-2.1 1.8,-1.1 v -1.5 l 1,-0.9 1.4,0.1 v 2 l -1,0.1 0.5,1.2 -0.7,2.2 -0.6,0.1 -1.2,4.5 -0.7,0.5 -2.8,7.2 -0.3,4.2 0.6,2 0.1,1.3 -2.4,1.9 0.3,1.9 -0.9,3.1 0.3,1.6 0.4,3.7 -1.1,4.1 -1.5,5 1,1.5 -0.3,0.3 0.8,1.7 -0.5,1.1 1.1,0.9 v 2.7 l 1.3,1.5 -0.4,3 0.3,4 -45.9,2.8 -1.3,-2.8 -3.3,-0.7 -2.7,-1.5 -2,-5.5 0.1,-2.5 1.6,-3.3 -0.6,-1.1 -2.1,-1.6 -0.2,-2.6 -1.1,-4.5 -0.2,-3 -2.2,-3 -2.8,-0.7 -5.2,-3.6 -0.6,-3.3 -6.3,-3.1 -0.2,-1.3 h -3.3 l -2.2,-2.6 -2,-1.3 0.7,-5.1 -0.9,-1.6 0.5,-5.4 1,-1.8 -0.3,-2.7 -1.2,-1.3 -1.8,-0.3 v -1.7 l 2.8,-5.8 5.9,-3.9 -0.4,-13 0.9,0.4 0.6,-0.5 0.1,-1.1 0.9,-0.6 1.4,1.2 0.7,-0.1 h 2.6 l 6.8,-2.6 0.3,-1 h 1.2 l 0.7,-1.2 0.4,0.8 1.8,-0.9 1.8,-1.7 0.3,0.5 1,-1 2.2,1.6 -0.8,1.6 -1.2,1.4 0.5,1.5 -1.4,1.6 0.4,0.9 2.3,-1.1 v -1.4 l 3.3,1.9 1.9,0.7 1.9,0.7 3,3.8 17,3.8 1.4,1 4,0.8 0.7,0.5 2.8,-0.2 4.9,0.8 1.4,1.5 -1,1 0.8,0.8 3.8,0.7 1.2,1.2 0.1,4.4 -1.3,2.8 2,0.1 1,-0.8 0.9,0.8 -1.1,3.1 1,1.6 1.2,0.3 z m -49.5,-37.3 -0.5,0.1 -1.5,1.6 0.2,0.5 1.5,-0.6 v -0.6 l 0.9,-0.3 z m 1.6,-1.1 -1,0.3 -0.2,0.7 0.9,-0.1 z m -1.3,-1.6 -0.2,0.9 h 1.7 l 0.6,-0.4 0.1,-1 z m 2.8,-3 -0.3,1.9 1.2,-0.5 0.1,-1.4 z m 58.3,31.9 -2,0.3 -0.4,1.3 1.3,1.7 z"
       id="path1386"
       style="fill:#bc0000;fill-opacity:1" />
    <path
       class="wy"
       short-name="wy"
       long-name="Wyoming"
       value="3"
       candidate-id="1"
       d="m 355.3,143.7 -51,-5.3 -57.3,-7.9 -2,10.7 -8.5,54.8 -3.3,21.9 32.1,4.8 44.9,5.7 37.5,3.4 3.7,-44.2 z"
       id="path1388"
       style="fill:#bc0000;fill-opacity:1" />
    <rect
       class="cd"
       short-name="dc"
       long-name="District of Columbia"
       value="3"
       candidate-id="0"
       style="fill:#bc0000;fill-opacity:1"
       id="rect315976-7-7-19"
       width="40"
       height="40"
       x="890.68756"
       y="494.41605"
       rx="3"
       ry="3" />
  </g>
  <g
     class="region-buttons"
     id="g63">
    <rect
       for="ma"
       style="fill:#bc0000;fill-opacity:1"
       id="rect315976"
       width="40"
       height="40"
       x="842.16071"
       y="396.27701"
       rx="3"
       ry="3" />
    <rect
       for="ri"
       style="fill:#bc0000;fill-opacity:1"
       id="rect315976-7"
       width="40"
       height="40"
       x="842.16071"
       y="445.34698"
       rx="3"
       ry="3" />
    <rect
       for="ct"
       style="fill:#bc0000;fill-opacity:1"
       id="rect315976-7-7"
       width="40"
       height="40"
       x="890.68756"
       y="298.13867"
       rx="3"
       ry="3" />
    <rect
       for="vt"
       style="fill:#bc0000;fill-opacity:1"
       id="rect315976-7-7-32"
       width="40"
       height="40"
       x="890.68756"
       y="249.41852"
       rx="3"
       ry="3" />
    <rect
       for="nh"
       id="rect315976-7-7-34"
       width="40"
       height="40"
       x="890.68756"
       y="202.15211"
       rx="3"
       ry="3"
       style="fill:#bc0000;fill-opacity:1" />
    <rect
       for="nj"
       style="fill:#bc0000;fill-opacity:1"
       id="rect315976-7-7-4"
       width="40"
       height="40"
       x="890.68756"
       y="347.20801"
       rx="3"
       ry="3" />
    <rect
       for="de"
       style="fill:#bc0000;fill-opacity:1"
       id="rect315976-7-7-1"
       width="40"
       height="40"
       x="890.68756"
       y="396.27734"
       rx="3"
       ry="3" />
    <rect
       for="md"
       style="fill:#bc0000;fill-opacity:1"
       id="rect315976-7-7-3"
       width="40"
       height="40"
       x="890.68756"
       y="445.34668"
       rx="3"
       ry="3" />
    <rect
       for="hi"
       style="fill:#bc0000;fill-opacity:1"
       id="rect315976-7-7-3-9"
       width="40"
       height="40"
       x="243.4799"
       y="545.39557"
       rx="3"
       ry="3" />
  </g>
  <g
     class="region-texts"
     transform="translate(19.96002,8.6515941)"
     id="g416145">
    <text
       x="680.19812"
       y="229.68506"
       for="oh"
       xml:space="default"
       style="text-align:center;text-anchor:middle"
       id="text415945"><tspan
         sodipodi:role="line"
         fill="currentColor"
         x="680.19812"
         y="229.68506"
         class="top"
         id="tspan72945">OH</tspan><tspan
         sodipodi:role="line"
         fill="currentColor"
         x="680.19812"
         y="244.68506"
         id="tspan3490-47"
         class="bottom">00</tspan></text>
    <text
       x="624.61932"
       y="238.55396"
       for="in"
       xml:space="default"
       style="text-align:center;text-anchor:middle"
       id="text415949"><tspan
         sodipodi:role="line"
         fill="currentColor"
         x="624.61932"
         y="238.55396"
         class="top"
         id="tspan108055">IN</tspan><tspan
         sodipodi:role="line"
         fill="currentColor"
         x="624.61932"
         y="253.55396"
         id="tspan3490-47-0"
         class="bottom">00</tspan></text>
    <text
       x="641.48584"
       y="171.70917"
       for="mi"
       xml:space="default"
       style="text-align:center;text-anchor:middle"
       id="text415953"><tspan
         sodipodi:role="line"
         fill="currentColor"
         x="641.48584"
         y="171.70917"
         class="top"
         id="tspan77985">MI</tspan><tspan
         sodipodi:role="line"
         fill="currentColor"
         x="641.48584"
         y="186.70917"
         id="tspan3490-47-6"
         class="bottom">00</tspan></text>
    <text
       x="560.28925"
       y="149.8732"
       for="wi"
       xml:space="default"
       style="text-align:center;text-anchor:middle"
       id="text415957"><tspan
         sodipodi:role="line"
         fill="currentColor"
         x="560.28925"
         y="149.8732"
         class="top"
         id="tspan90805">WI</tspan><tspan
         sodipodi:role="line"
         fill="currentColor"
         x="560.28925"
         y="164.8732"
         id="tspan3490-47-3"
         class="bottom">00</tspan></text>
    <text
       x="484.16116"
       y="115.55952"
       for="mn"
       xml:space="default"
       style="text-align:center;text-anchor:middle"
       id="text415961"><tspan
         sodipodi:role="line"
         fill="currentColor"
         x="484.16116"
         y="115.55952"
         class="top"
         id="tspan98518">MN</tspan><tspan
         sodipodi:role="line"
         fill="currentColor"
         x="484.16116"
         y="130.55951"
         id="tspan3490-47-03"
         class="bottom">00</tspan></text>
    <text
       x="396.5882"
       y="85.14843"
       for="nd"
       xml:space="default"
       style="text-align:center;text-anchor:middle"
       id="text415965"><tspan
         sodipodi:role="line"
         fill="currentColor"
         x="396.5882"
         y="85.14843"
         class="top"
         id="tspan282672">ND</tspan><tspan
         sodipodi:role="line"
         fill="currentColor"
         x="396.5882"
         y="100.14843"
         id="tspan3490-47-00"
         class="bottom">00</tspan></text>
    <text
       x="268.5202"
       y="78.572083"
       for="mt"
       xml:space="default"
       style="text-align:center;text-anchor:middle"
       id="text415969"><tspan
         sodipodi:role="line"
         id="tspan3484-6-1"
         fill="currentColor"
         x="268.5202"
         y="78.572083"
         class="top">MT</tspan><tspan
         sodipodi:role="line"
         fill="currentColor"
         x="268.5202"
         y="93.572083"
         id="tspan3490-47-8"
         class="bottom">00</tspan></text>
    <text
       x="103.93455"
       y="39.579285"
       for="wa"
       xml:space="default"
       style="text-align:center;text-anchor:middle"
       id="text415973"><tspan
         sodipodi:role="line"
         id="tspan3484-6-8"
         fill="currentColor"
         x="103.93455"
         y="39.579285"
         class="top">WA</tspan><tspan
         sodipodi:role="line"
         fill="currentColor"
         x="103.93455"
         y="54.579285"
         id="tspan3490-47-2"
         class="bottom">00</tspan></text>
    <text
       x="78.241028"
       y="113.10854"
       for="or"
       xml:space="default"
       style="text-align:center;text-anchor:middle"
       id="text415977"><tspan
         sodipodi:role="line"
         id="tspan3484-6-0"
         fill="currentColor"
         x="78.241028"
         y="113.10854"
         class="top">OR</tspan><tspan
         sodipodi:role="line"
         fill="currentColor"
         x="78.241028"
         y="128.10855"
         id="tspan3490-47-64"
         class="bottom">00</tspan></text>
    <text
       x="168.99809"
       y="137.39551"
       for="id"
       xml:space="default"
       style="text-align:center;text-anchor:middle"
       id="text415981"><tspan
         sodipodi:role="line"
         fill="currentColor"
         x="168.99809"
         y="137.39551"
         class="top"
         id="tspan145547">ID</tspan><tspan
         sodipodi:role="line"
         fill="currentColor"
         x="168.99809"
         y="152.39551"
         id="tspan3490-47-9"
         class="bottom">00</tspan></text>
    <text
       x="50.237171"
       y="262.39526"
       for="ca"
       xml:space="default"
       style="text-align:center;text-anchor:middle"
       id="text415985"><tspan
         sodipodi:role="line"
         id="tspan3484-6-3"
         fill="currentColor"
         x="50.237171"
         y="262.39526"
         class="top">NY</tspan><tspan
         sodipodi:role="line"
         fill="currentColor"
         x="50.237171"
         y="277.39526"
         id="tspan3490-47-67"
         class="bottom">00</tspan></text>
    <text
       x="116.68204"
       y="222.23318"
       for="nv"
       xml:space="default"
       style="text-align:center;text-anchor:middle"
       id="text415989"><tspan
         sodipodi:role="line"
         fill="currentColor"
         x="116.68204"
         y="222.23318"
         class="top"
         id="tspan172456">NV</tspan><tspan
         sodipodi:role="line"
         fill="currentColor"
         x="116.68204"
         y="237.23318"
         id="tspan3490-47-94"
         class="bottom">00</tspan></text>
    <text
       x="199.41576"
       y="247.63263"
       for="ut"
       xml:space="default"
       style="text-align:center;text-anchor:middle"
       id="text415993"><tspan
         sodipodi:role="line"
         id="tspan3484-6-55"
         fill="currentColor"
         x="199.41576"
         y="247.63263"
         class="top">UT</tspan><tspan
         sodipodi:role="line"
         fill="currentColor"
         x="199.41576"
         y="262.63263"
         id="tspan3490-47-92"
         class="bottom">00</tspan></text>
    <text
       x="180.96666"
       y="353.69467"
       for="az"
       style="text-align:center;text-anchor:middle"
       xml:space="default"
       id="text415997"><tspan
         sodipodi:role="line"
         id="tspan3484-6-28"
         fill="currentColor"
         x="180.96666"
         y="353.69467"
         class="top">AZ</tspan><tspan
         sodipodi:role="line"
         fill="currentColor"
         x="180.96666"
         y="368.69467"
         id="tspan3490-47-7"
         class="bottom">00</tspan></text>
    <text
       x="281.53775"
       y="362.21954"
       for="nm"
       xml:space="default"
       style="text-align:center;text-anchor:middle"
       id="text416001"><tspan
         sodipodi:role="line"
         fill="currentColor"
         x="281.53775"
         y="362.21954"
         class="top"
         id="tspan210453">NM</tspan><tspan
         sodipodi:role="line"
         fill="currentColor"
         x="281.53775"
         y="377.21954"
         id="tspan3490-47-32"
         class="bottom">00</tspan></text>
    <text
       x="301.39218"
       y="263.97192"
       for="co"
       xml:space="default"
       style="text-align:center;text-anchor:middle"
       id="text416005"><tspan
         sodipodi:role="line"
         id="tspan3484-6-01"
         fill="currentColor"
         x="301.39218"
         y="263.97192"
         class="top">CO</tspan><tspan
         sodipodi:role="line"
         fill="currentColor"
         x="301.39218"
         y="278.97192"
         id="tspan3490-47-86"
         class="bottom">00</tspan></text>
    <text
       x="277.91479"
       y="170.56998"
       for="wy"
       xml:space="default"
       style="text-align:center;text-anchor:middle"
       id="text416009"><tspan
         sodipodi:role="line"
         id="tspan3484-6-58"
         fill="currentColor"
         x="277.91479"
         y="170.56998"
         class="top">WY</tspan><tspan
         sodipodi:role="line"
         fill="currentColor"
         x="277.91479"
         y="185.56998"
         id="tspan3490-47-02"
         class="bottom">00</tspan></text>
    <text
       x="405.20126"
       y="215.89391"
       for="ne"
       xml:space="default"
       style="text-align:center;text-anchor:middle"
       id="text416013"><tspan
         sodipodi:role="line"
         id="tspan3484-6-88"
         fill="currentColor"
         x="405.20126"
         y="215.89391"
         class="top">NE</tspan><tspan
         sodipodi:role="line"
         fill="currentColor"
         x="405.20126"
         y="230.89391"
         id="tspan3490-47-70"
         class="bottom">00</tspan></text>
    <text
       x="399.3512"
       y="149.2113"
       for="sd"
       xml:space="default"
       style="text-align:center;text-anchor:middle"
       id="text416017"><tspan
         sodipodi:role="line"
         id="tspan3484-6-9"
         fill="currentColor"
         x="399.3512"
         y="149.2113"
         class="top">SD</tspan><tspan
         sodipodi:role="line"
         fill="currentColor"
         x="399.3512"
         y="164.2113"
         id="tspan3490-47-30"
         class="bottom">00</tspan></text>
    <text
       x="421.15475"
       y="281.13147"
       for="ks"
       xml:space="default"
       style="text-align:center;text-anchor:middle"
       id="text416021"><tspan
         sodipodi:role="line"
         id="tspan3484-6-36"
         fill="currentColor"
         x="421.15475"
         y="281.13147"
         class="top">KS</tspan><tspan
         sodipodi:role="line"
         fill="currentColor"
         x="421.15475"
         y="296.13147"
         id="tspan3490-47-06"
         class="bottom">00</tspan></text>
    <text
       x="442.11713"
       y="348.60266"
       for="ok"
       xml:space="default"
       style="text-align:center;text-anchor:middle"
       id="text416025"><tspan
         sodipodi:role="line"
         id="tspan3484-6-27"
         fill="currentColor"
         x="442.11713"
         y="348.60266"
         class="top">OK</tspan><tspan
         sodipodi:role="line"
         fill="currentColor"
         x="442.11713"
         y="363.60266"
         id="tspan3490-47-91"
         class="bottom">00</tspan></text>
    <text
       x="412.4646"
       y="444.03665"
       for="tx"
       xml:space="default"
       style="text-align:center;text-anchor:middle"
       id="text416029"><tspan
         sodipodi:role="line"
         id="tspan3484-6-96"
         fill="currentColor"
         x="412.4646"
         y="444.03665"
         class="top">TX</tspan><tspan
         sodipodi:role="line"
         fill="currentColor"
         x="412.4646"
         y="459.03665"
         id="tspan3490-47-928"
         class="bottom">00</tspan></text>
    <text
       x="102.39604"
       y="480.73907"
       for="ak"
       xml:space="default"
       style="text-align:center;text-anchor:middle"
       id="text416033"><tspan
         sodipodi:role="line"
         id="tspan3484-6-68"
         fill="currentColor"
         x="102.39604"
         y="480.73907"
         class="top">AK</tspan><tspan
         sodipodi:role="line"
         fill="currentColor"
         x="102.39604"
         y="495.73907"
         id="tspan3490-47-5"
         class="bottom">00</tspan></text>
    <text
       x="243.51402"
       y="553.51544"
       for="hi"
       xml:space="default"
       style="text-align:center;text-anchor:middle"
       id="text416037"><tspan
         sodipodi:role="line"
         id="tspan3484-6-68-4"
         fill="currentColor"
         x="243.51402"
         y="553.51544"
         class="top">HI</tspan><tspan
         sodipodi:role="line"
         fill="currentColor"
         x="243.51402"
         y="568.51544"
         id="tspan3490-47-5-5"
         class="bottom">00</tspan></text>
    <text
       x="525.87103"
       y="436.81537"
       for="la"
       xml:space="default"
       style="text-align:center;text-anchor:middle"
       id="text416041"><tspan
         sodipodi:role="line"
         id="tspan3484-6-24"
         fill="currentColor"
         x="525.87103"
         y="436.81537"
         class="top">LA</tspan><tspan
         sodipodi:role="line"
         fill="currentColor"
         x="525.87103"
         y="451.81537"
         id="tspan3490-47-97"
         class="bottom">00</tspan></text>
    <text
       x="523.59845"
       y="364.70877"
       for="ar"
       xml:space="default"
       style="text-align:center;text-anchor:middle"
       id="text416045"><tspan
         sodipodi:role="line"
         id="tspan3484-6-21"
         fill="currentColor"
         x="523.59845"
         y="364.70877"
         class="top">AR</tspan><tspan
         sodipodi:role="line"
         fill="currentColor"
         x="523.59845"
         y="379.70877"
         id="tspan3490-47-63"
         class="bottom">00</tspan></text>
    <text
       x="520.51904"
       y="286.36325"
       for="mo"
       xml:space="default"
       style="text-align:center;text-anchor:middle"
       id="text416049"><tspan
         sodipodi:role="line"
         id="tspan3484-6-32"
         fill="currentColor"
         x="520.51904"
         y="286.36325"
         class="top">MO</tspan><tspan
         sodipodi:role="line"
         fill="currentColor"
         x="520.51904"
         y="301.36325"
         id="tspan3490-47-4"
         class="bottom">00</tspan></text>
    <text
       x="503.74109"
       y="203.21851"
       for="ia"
       xml:space="default"
       style="text-align:center;text-anchor:middle"
       id="text416053"><tspan
         sodipodi:role="line"
         id="tspan3484-6-82"
         fill="currentColor"
         x="503.74109"
         y="203.21851"
         class="top">IA</tspan><tspan
         sodipodi:role="line"
         fill="currentColor"
         x="503.74109"
         y="218.21851"
         id="tspan3490-47-04"
         class="bottom">00</tspan></text>
    <text
       x="576.26825"
       y="243.45589"
       for="il"
       xml:space="default"
       style="text-align:center;text-anchor:middle"
       id="text416057"><tspan
         sodipodi:role="line"
         id="tspan3484-6-285"
         fill="currentColor"
         x="576.26825"
         y="243.45589"
         class="top">IL</tspan><tspan
         sodipodi:role="line"
         fill="currentColor"
         x="576.26825"
         y="258.45587"
         id="tspan3490-47-80"
         class="bottom">00</tspan></text>
    <text
       x="578.26404"
       y="405.98105"
       for="ms"
       xml:space="default"
       style="text-align:center;text-anchor:middle"
       id="text416061"><tspan
         sodipodi:role="line"
         id="tspan3484-6-42"
         fill="currentColor"
         x="578.26404"
         y="405.98105"
         class="top">MS</tspan><tspan
         sodipodi:role="line"
         fill="currentColor"
         x="578.26404"
         y="420.98105"
         id="tspan3490-47-47"
         class="bottom">00</tspan></text>
    <text
       x="631.97339"
       y="399.68814"
       for="al"
       xml:space="default"
       style="text-align:center;text-anchor:middle"
       id="text416065"><tspan
         sodipodi:role="line"
         id="tspan3484-6-31"
         fill="currentColor"
         x="631.97339"
         y="399.68814"
         class="top">AL</tspan><tspan
         sodipodi:role="line"
         fill="currentColor"
         x="631.97339"
         y="414.68814"
         id="tspan3490-47-44"
         class="bottom">00</tspan></text>
    <text
       x="692.25311"
       y="398.69803"
       for="ga"
       xml:space="default"
       style="text-align:center;text-anchor:middle"
       id="text416069"><tspan
         sodipodi:role="line"
         id="tspan3484-6-03"
         fill="currentColor"
         x="692.25311"
         y="398.69803"
         class="top">GA</tspan><tspan
         sodipodi:role="line"
         fill="currentColor"
         x="692.25311"
         y="413.69803"
         id="tspan3490-47-37"
         class="bottom">00</tspan></text>
    <text
       x="742.7937"
       y="489.52667"
       for="fl"
       xml:space="default"
       style="text-align:center;text-anchor:middle"
       id="text416073"><tspan
         sodipodi:role="line"
         id="tspan3484-6-05"
         fill="currentColor"
         x="742.7937"
         y="489.52667"
         class="top">FL</tspan><tspan
         sodipodi:role="line"
         fill="currentColor"
         x="742.7937"
         y="504.52667"
         id="tspan3490-47-914"
         class="bottom">00</tspan></text>
    <text
       x="739.95636"
       y="366.61255"
       for="sc"
       xml:space="default"
       style="text-align:center;text-anchor:middle"
       id="text416077"><tspan
         sodipodi:role="line"
         id="tspan3484-6-650"
         fill="currentColor"
         x="739.95636"
         y="366.61255"
         class="top">SC</tspan><tspan
         sodipodi:role="line"
         fill="currentColor"
         x="739.95636"
         y="381.61255"
         id="tspan3490-47-90"
         class="bottom">00</tspan></text>
    <text
       x="777.12134"
       y="321.88712"
       for="nc"
       xml:space="default"
       style="text-align:center;text-anchor:middle"
       id="text416083"><tspan
         fill="currentColor"
         x="769.07935"
         y="321.88712"
         class="top"
         style="text-align:center;text-anchor:middle"
         id="tspan416079">NC</tspan><tspan
         fill="currentColor"
         x="769.07935"
         y="336.88712"
         class="bottom"
         style="text-align:center;text-anchor:middle"
         id="tspan416081">00</tspan></text>
    <text
       x="636.40894"
       y="333.00555"
       for="tn"
       xml:space="default"
       style="text-align:center;text-anchor:middle"
       id="text416087"><tspan
         sodipodi:role="line"
         fill="currentColor"
         x="636.40894"
         y="333.00555"
         class="top"
         id="tspan248558">TN</tspan><tspan
         sodipodi:role="line"
         fill="currentColor"
         x="636.40894"
         y="348.00555"
         id="tspan3490-47-85"
         class="bottom">00</tspan></text>
    <text
       x="659.77856"
       y="290.22488"
       for="ky"
       xml:space="default"
       style="text-align:center;text-anchor:middle"
       id="text416091"><tspan
         sodipodi:role="line"
         id="tspan3484-6-7"
         fill="currentColor"
         x="659.77856"
         y="290.22488"
         class="top">KY</tspan><tspan
         sodipodi:role="line"
         fill="currentColor"
         x="659.77856"
         y="305.22488"
         id="tspan3490-47-09"
         class="bottom">00</tspan></text>
    <text
       x="772.27527"
       y="272.64478"
       for="va"
       xml:space="default"
       style="text-align:center;text-anchor:middle"
       id="text416096"><tspan
         fill="currentColor"
         x="764.40027"
         y="272.64478"
         class="top"
         style="text-align:center;text-anchor:middle"
         id="tspan416093">VA</tspan><tspan
         sodipodi:role="line"
         fill="currentColor"
         x="764.40027"
         y="287.64478"
         id="tspan3490-47-39"
         class="bottom">00</tspan></text>
    <text
       x="849.91046"
       y="404.58487"
       for="ma"
       xml:space="default"
       style="text-align:center;text-anchor:middle"
       id="text416100"><tspan
         fill="currentColor"
         x="842.03546"
         y="404.58487"
         class="top"
         style="text-align:center;text-anchor:middle"
         id="tspan358582">MA</tspan><tspan
         sodipodi:role="line"
         fill="currentColor"
         x="842.03546"
         y="419.58487"
         id="tspan3490-47-39-1"
         class="bottom">00</tspan></text>
    <text
       x="850.41437"
       y="453.68127"
       for="ri"
       xml:space="default"
       style="text-align:center;text-anchor:middle"
       id="text416104"><tspan
         fill="currentColor"
         x="842.53937"
         y="453.68127"
         class="top"
         style="text-align:center;text-anchor:middle"
         id="tspan358582-0">RI</tspan><tspan
         sodipodi:role="line"
         fill="currentColor"
         x="842.53937"
         y="468.68127"
         id="tspan3490-47-39-1-4"
         class="bottom">00</tspan></text>
    <text
       x="898.59668"
       y="355.99564"
       for="nj"
       xml:space="default"
       style="text-align:center;text-anchor:middle"
       id="text416108"><tspan
         fill="currentColor"
         x="890.72168"
         y="355.99564"
         class="top"
         style="text-align:center;text-anchor:middle"
         id="tspan346901">NJ</tspan><tspan
         sodipodi:role="line"
         fill="currentColor"
         x="890.72168"
         y="370.99564"
         id="tspan3490-47-39-59"
         class="bottom">00</tspan></text>
    <text
       x="898.35059"
       y="404.84241"
       for="de"
       xml:space="default"
       style="text-align:center;text-anchor:middle"
       id="text416112"><tspan
         fill="currentColor"
         x="890.47559"
         y="404.84241"
         class="top"
         style="text-align:center;text-anchor:middle"
         id="tspan346901-4">DE</tspan><tspan
         sodipodi:role="line"
         fill="currentColor"
         x="890.47559"
         y="419.84241"
         id="tspan3490-47-39-59-9"
         class="bottom">00</tspan></text>
    <text
       x="898.26562"
       y="307.22794"
       for="ct"
       xml:space="default"
       style="text-align:center;text-anchor:middle"
       id="text416116"><tspan
         fill="currentColor"
         x="890.39062"
         y="307.22794"
         class="top"
         style="text-align:center;text-anchor:middle"
         id="tspan346901-8">CT</tspan><tspan
         sodipodi:role="line"
         fill="currentColor"
         x="890.39062"
         y="322.22794"
         id="tspan3490-47-39-59-0"
         class="bottom">00</tspan></text>
    <text
       x="898.60254"
       y="209.45526"
       for="nh"
       xml:space="default"
       style="text-align:center;text-anchor:middle"
       id="text416116-1"><tspan
         fill="currentColor"
         x="890.72754"
         y="209.45526"
         class="top"
         style="text-align:center;text-anchor:middle"
         id="tspan346901-8-5">NH</tspan><tspan
         sodipodi:role="line"
         fill="currentColor"
         x="890.72754"
         y="224.45526"
         id="tspan3490-47-39-59-0-5"
         class="bottom">00</tspan></text>
    <text
       x="898.52637"
       y="258.30206"
       for="vt"
       xml:space="default"
       style="text-align:center;text-anchor:middle"
       id="text416116-3"><tspan
         fill="currentColor"
         x="890.65137"
         y="258.30206"
         class="top"
         style="text-align:center;text-anchor:middle"
         id="tspan346901-8-52">VT</tspan><tspan
         sodipodi:role="line"
         fill="currentColor"
         x="890.65137"
         y="273.30206"
         id="tspan3490-47-39-59-0-7"
         class="bottom">00</tspan></text>
    <text
       x="727.21838"
       y="260.84665"
       for="wv"
       xml:space="default"
       style="text-align:center;text-anchor:middle"
       id="text416120"><tspan
         fill="currentColor"
         x="719.34338"
         y="260.84665"
         class="top"
         style="text-align:center;text-anchor:middle"
         id="tspan312024">WV</tspan><tspan
         sodipodi:role="line"
         fill="currentColor"
         x="719.34338"
         y="275.84665"
         id="tspan3490-47-39-5"
         class="bottom">00</tspan></text>
    <text
       x="866.71527"
       y="73.638458"
       for="me"
       xml:space="default"
       style="text-align:center;text-anchor:middle"
       id="text416124"><tspan
         sodipodi:role="line"
         id="tspan3484-6-37"
         fill="currentColor"
         x="866.71527"
         y="73.638458"
         class="top">ME</tspan><tspan
         sodipodi:role="line"
         fill="currentColor"
         x="866.71527"
         y="88.638458"
         id="tspan3490-47-89"
         class="bottom">00</tspan></text>
    <text
       x="771.57733"
       y="200.53438"
       for="pa"
       style="text-align:center;text-anchor:middle"
       xml:space="default"
       id="text416130"><tspan
         fill="currentColor"
         x="764.48163"
         y="200.53438"
         class="top"
         style="text-align:center;text-anchor:middle"
         id="tspan416126">PA</tspan><tspan
         x="764.48163"
         y="215.53438"
         class="bottom"
         fill="currentColor"
         style="text-align:center;text-anchor:middle"
         id="tspan416128">00</tspan></text>
    <text
       x="803.8822"
       y="142.60222"
       for="ny"
       xml:space="default"
       style="text-align:center;text-anchor:middle"
       id="text416136"><tspan
         fill="currentColor"
         x="796.12146"
         y="142.60222"
         class="top"
         style="text-align:center;text-anchor:middle"
         id="tspan416132">NY</tspan><tspan
         fill="currentColor"
         x="796.12146"
         y="157.60222"
         class="bottom"
         style="text-align:center;text-anchor:middle"
         id="tspan416134">00</tspan></text>
    <text
       x="898.36816"
       y="453.68918"
       for="md"
       xml:space="default"
       style="text-align:center;text-anchor:middle"
       id="text416140"><tspan
         fill="currentColor"
         x="890.49316"
         y="453.68918"
         class="top"
         style="text-align:center;text-anchor:middle"
         id="tspan346901-2">MD</tspan><tspan
         sodipodi:role="line"
         fill="currentColor"
         x="890.49316"
         y="468.68918"
         id="tspan3490-47-39-59-4"
         class="bottom">00</tspan></text>
    <text
       x="898.25098"
       y="502.61505"
       for="dc"
       xml:space="default"
       style="text-align:center;text-anchor:middle"
       id="text380691"><tspan
         fill="currentColor"
         x="890.37598"
         y="502.61505"
         class="top"
         style="text-align:center;text-anchor:middle"
         id="tspan346901-3">DC</tspan><tspan
         sodipodi:role="line"
         fill="currentColor"
         x="890.37598"
         y="517.61505"
         id="tspan3490-47-39-59-92"
         class="bottom">00</tspan></text>
  </g>
</svg>
