<svg xmlns="http://www.w3.org/2000/svg" auto-border-stroke-width="1" auto-border-stroke-width-limit=".1" candidates="[{&quot;id&quot;: &quot;4&quot;,&quot;defaultCount&quot;: 0,&quot;name&quot;: &quot;YP&quot;,&quot;margins&quot;: [{&quot;color&quot;: &quot;#035B9B&quot;}, {&quot;color&quot;: &quot;#337DB7&quot;}, {&quot;color&quot;: &quot;#669FCF&quot;}, {&quot;color&quot;: &quot;#99BFE3&quot;}]},{&quot;id&quot;: &quot;1&quot;,&quot;defaultCount&quot;: 0,&quot;name&quot;: &quot;LIB&quot;,&quot;margins&quot;: [{&quot;color&quot;: &quot;#EA6D6A&quot;}, {&quot;color&quot;: &quot;#F58481&quot;}, {&quot;color&quot;: &quot;#FD9E9B&quot;}, {&quot;color&quot;: &quot;#FFBBB9&quot;}]}, {&quot;id&quot;: &quot;3&quot;,&quot;defaultCount&quot;: 0,&quot;name&quot;: &quot;NDP&quot;,&quot;margins&quot;: [{&quot;color&quot;: &quot;#f4a460&quot;}, {&quot;color&quot;: &quot;#f3b678&quot;}, {&quot;color&quot;: &quot;#ffc794&quot;}, {&quot;color&quot;: &quot;#ffdab4&quot;}]}]" country="can" date="2024283" original-source="[&quot;https://mapservices.gov.yk.ca/arcgis/rest/services/GeoYukon/GY_AdministrativeBoundaries/MapServer/75/query?where=&amp;text=&amp;objectIds=&amp;time=&amp;timeRelation=esriTimeRelationOverlaps&amp;geometry=&amp;geometryType=esriGeometryEnvelope&amp;inSR=&amp;spatialRel=esriSpatialRelIntersects&amp;distance=&amp;units=esriSRUnit_Foot&amp;relationParam=&amp;outFields=&amp;returnGeometry=true&amp;returnTrueCurves=false&amp;maxAllowableOffset=&amp;geometryPrecision=&amp;outSR=&amp;havingClause=&amp;returnIdsOnly=false&amp;returnCountOnly=false&amp;orderByFields=&amp;groupByFieldsForStatistics=&amp;outStatistics=&amp;returnZ=false&amp;returnM=false&amp;gdbVersion=&amp;historicMoment=&amp;returnDistinctValues=false&amp;resultOffset=&amp;resultRecordCount=&amp;returnExtentOnly=false&amp;sqlFormat=none&amp;datumTransformation=&amp;parameterValues=&amp;rangeValues=&amp;quantizationParameters=&amp;featureEncoding=esriDefault&amp;f=html&quot;]" title="Yukon Territory 2025 Legislative Assembly" type="yt" variant="blank" viewBox="0 0 560 757.98">
  <g map-type="regions" transform="translate(0,7.987100756502388)">
    <path d="M162.52 278.32v40.35h-32.5v153.88h-18.95v90.66H97.52l-66.52-.5h-.42l-2.1.03-28.45.47V318.67l48.75-.58 48.74.58v-40.35z" long-name="Klondike" region="5" short-name="Klondike" value="1"/>
    <path d="M173.36 683.9v7.2l-.08.1-.07.07-.07.01h-.1l-.08-.05-.05-.1-.04-.16-.06-.1-.1-.03-.11.02-.06.03-.04.06v.05l-.01.08v.15l-.04.07-.05.04h-.15l-.06-.03-.07-.02-.08.02-.1.05-.05.04-.05.04-.04.04-.04.04-.03.02-.05.03h-.14l-.06.01-.06.02-.05.02-.06.03-.04.03-.05.03-.04.05-.02.05v.11l-.01.05-.02.03-.07.05-.08.04-.06.04-.1.03h-.05l-.05-.01-.06-.04-.04-.02-.04-.02h-.04l-.06-.01-.05-.01h-.08l-.04.01-.04.02-.04.03-.02.02-.04.05-.01.03v.07l.04.02.05.03.05.02.03.03.05.04.03.03.02.05v.08l-.02.03v.03l.03.04.03.03.03.02.03.01.03.01.02.02.02.02v.05l-.01.05-.02.02-.01.03v.08l.02.04.02.05.02.03.05.03.04.04.02.03.02.04v.06l-.01.04-.02.05-.04.04-.04.02-.08.04-.04.03-.03.04v.05l.03.05.03.03h.14l.05-.02h.11l.02.01.04.03.01.05v.05l-.03.04-.04.02-.07.03-.06.04-.03.02-.04.06-.01.07v.04l.03.03.03.03.06.01h.06l.06-.03.04-.03.05-.03.05-.03.07-.03h.15l.05.02.04.03.03.03.02.04v.04l-.02.03h-.05l-.08.04-.08.01-.1.01-.07.01-.06.05-.06.05-.04.04-.01.04-.02.02-.02.02-.01.02-.02.03v.02l-.03.02-.04.01-.04.01-.04.03-.03.04-.03.05-.02.06-.03.02-.02.02-.02.04v.02l-.03.02-.05.01h-.05l-.04-.01-.02-.02-.01-.03-.02-.04v-.18l-.02-.05-.02-.04-.03-.02h-.07l-.03.02-.03.03v.04l.01.06v.02l-.02.02h-.06l-.02-.02-.01-.04v-.03l-.02-.02-.01-.03-.02-.03-.02-.02-.03-.02-.02-.01h-.12l-.05-.02h-.04l-.03-.03-.03-.02-.03-.03-.01-.04-.02-.03-.02-.02-.03-.02-.03-.02-.03-.01h-.03l-.03-.02-.02-.03v-.12h-.03l-.02.01-.03.02-.02.04-.02.03-.01.05-.01.05v.03l.01.05.02.04.03.03.03.03.04.04.03.02h.19l.03.02.03.02.03.04v.02l.02.04v.04l-.01.02-.02.02-.02.01-.04.02h-.15l-.05-.02h-.06l-.05-.01-.05-.02-.03-.01-.03-.02-.03-.03-.05-.01h-.04l-.04.02-.02.05-.03.06-.02.02-.03.04-.03.01-.07.03v.02l.04.02.01.02v.03l-.01.02v.04l.02.02h.02l.04.01h.01l.02-.01v-.01h.03v.02l.01.01v.03h-.03l-.01.02v.04h.01l.08.03h.1v.06l-.02.02H169l-.02.02v.09l-.02.06v.01l-.02.01-.01.01v.02l.02.01h.02l.02.03v.08h-.02v.02l-.02.01v.02l-.01.02v.01h.13v.01l.02.04v.05l-.01.02h-.01l-.04.01-.01.03-.01.03v.02H169l-.01.02v.04l.02.02v.06h.03l.02-.03h.04l.02.01.01.02v.03l.03.03h.02l.02-.02v-.02l.01-.02h.01l.02-.02h.02v-.02h.03l.01.01.01.03v.01l-.01.02-.02.03v.04l.02.01.03.01.01.01.02.01.01.02.02.02v.01l.02.01h.02l.03-.02.05-.06h.05l.01.02v.02h-.03l-.02.01v.01l-.01.02v.01l.02.02h.03l.01.01h.08l.03.02.01.02v.02l-.02.02-.01.02v.01l.02.02h.02l.03-.01h.05l.02.02.02.01.02-.02v-.07l.01-.02-.01-.01v-.02h.04l.03.02.01.02.01.02h.01l.02.01h.03v-.06h.01l.02-.01h.01l.02.02h.03l.02-.01v-.01l.03-.01h.06v.03l.02.04v.01l.04.03.03.02.02.02v.06h.06l.03.02v-.05h.07l.02.04h.04l.01-.01.02-.01h.01l.02.02.02.04.01.05.02.01h.06l.06-.04h.05l.02.02.02.01v.01h.02l.03.02.01.01v.02l-.03.03v.04l.01.02v.04l.02.01h.05v.02h.01v.08l.04.1.01.02v.01h.05l.03-.03h.04l.02-.02.03-.02h.09l.01.02.01.02.01.02.03.04.02.02.04.04.03.01.04.01.01.01.02.02.02.03.01.02v.02l.03.04v.01h.01l.02.02.01.01.01.01v.02l-.02.01-.01.01v.03h.03l.02.02.01.02v.01l-.01.02h-.04l-.02.02v.01l.02.02h.04l.05.02.02.02.01.01v.02h-.01l-.01.01-.01.02v.02l.01.02h.04v-.01h.04v.03l-.03.04v.05l.02.01.01.01h.02l.01-.01.01-.01.02-.02h.04l.03.03h.01l.07-.03h.03v.01l-.01.04v.04h.04l.01-.02.01-.01v-.05l.03-.01.02.02h.01l.04.03h.01l.01.01v.01l.04.07v.05h.04l.02-.02h.04v.1l.02.02h.02l.06-.02h.02v-.05h.02l.02.01v.01l.02.05h.02l.02.01h.05l.02.02h.01l.03.02h.01l.02.02-.02.03h-.02l-.03.01v.02h.12v.03h.01v.02l-.01.01-.01.02.01.01h.01l.02-.01v-.02h.03v.06h.02v-.03h.02v.03h.01l.03.01.01.01h-.02v.03h.02l.03.02h.01v-.1h.02l.02.02h.03l.02.01h.05l.01-.02.03.02-.01.04v.06h.02l.03-.01h.02l.03.07.01.02h.02l.04.01.02.02v.01l.01.02.01.01v.02l.02.02h.02v.07l.01.01h.04v-.01l.02-.01h.02l-.02.02v.09l.03.01h.01l.1.05.01.01v.06l.02.01.04.03h.03l.03-.03.02-.01h.01v.05l.02.02.02.03h.03l.03-.01h.03l.02.02.01.01v.01l-.03.01-.01.02v.02l.02.02h.04l.02.03.03.01h.01l.07.05h.04l.02.01h.08v.01l-.02.02.03.02h.05v-.01l.02-.03.01-.02h.01l.01-.01h.02l.05.03h.04l.02-.01h.01v.02l-.01.02-.02.02v.02h.02l.01-.02h.02l.01.02-.04.02v.02h.03l.02-.01h.03v-.03h.02l.02.03h.01v-.06h.01l.02.01.02-.01h.03v.08h-.01l.01.02h.02l.01-.02h.03v.02h-.01l-.01.02v.02l.02-.02h.03l-.01.02v.02l-.01.02.02.02.01-.04h.03v.04h.06v-.01l.02-.01.02-.01h.02v.01l-.01.02.01.02h.01v.02l-.01.01-.02.01v.04l.01.01h.02v-.05h.02v.03l.02.02h.02v-.02h.03v-.02l.01-.03.01-.01.03-.02h.01l.02.01v.02H175l-.02.01v.05l.02.01h.02v-.01l.02-.02v-.01h.02v.02l-.02.02v.01l.01.02h.04v-.06l.05-.02.03-.02h.02l.02.02v.03l-.02-.02v.03l-.01.01h-.02l-.02-.02h-.01l-.01.02v.03h.05v.01l-.02.02v.03h.03v-.01l.02-.01v.06l.02.01.02-.01v-.01h.01l.01.02v.03h.02v-.01h.03v.03l-.01.01-.01.02v.01h.02l.02.01h.04v.04l-.02.01-.02.01-.01.01v.03l.01.01v.08l-.03.02-.01.02v.02l.01.03.03.04v.02h-.02v.01l.03.02v.04h.02l.03-.02.03-.01h.04v.01l.01.02h.02v-.02h.02v-.02l.01-.01.01-.01h.02v.04h.05l.01.02h.04v.01h.01l.03.04.02.01v.02l.02.02.01.01.02.01v.03l.01.02h.02l.03-.02.02-.01v-.01h.04v.01l-.01.02-.01.02h.04l.01.02h.01l.02-.03h.05l.01.02v.02H176v.02h.05v.03l.01.02h.03v-.02h.04l.02-.02.02-.02h.01v.06l.01.01h.02v-.06h.02v.02l.02.01h.02v-.05h.05l.06.03h.02v-.02l.03-.02h.03v.03l-.02.02h-.03v.02h.04l.02.01v.02h.02l.02.01h.01l.02.01h.02v-.08h.01l.02.01h.03l.02-.03h.02v.05h.02l.01-.03h.04l.02-.01h.02v.02h.03l.02.01.02.01.02-.02-.03-.03.01-.01h.04v-.02h.04l.02.01.03.03h.02l.02-.02v-.13h.06l.02.01.01.01.02.02h.02l.01.01h.01v.06h.04l-.01-.03.04.02.03.02h.01l.02.03.02.05.02.01v.01h-.01v.03h.03l.01-.01.02-.05v-.02h.04l.02.02h.12l.03.04.03.02h.02l.01-.02v-.02l.02-.02.03.01h.01v.03l-.01.02v.01h.03v-.04l.02-.01h.03l.01.02v.04l-.02.01v.02l.02.01h.09l.01.02h.02l.02-.03v-.01h.04v.04h.03v-.01h.08v.03l-.02.01h-.01v.02l.02.01h.03l.02-.01.02.02h.02v-.02l-.01-.02h-.02v-.02h.05l.03.04h.01v.1h.03l.02.01v.02l.02.04.03.02h.06l.03-.03.03-.02h.01l.03.01.08.04h.02l.02-.02.01-.03v-.04l-.01-.03-.02-.02-.04-.02-.01-.01-.02-.04v-.08l.01-.01.05-.02h.02v-.02l-.01-.01v-.02h.01v-.08h.01l.04-.01h.03l.02.01.08.1v.93h8.64l.54 1.4-3.05.08v10.33h-6.13v36.66H167.4l-5.36-.04-2.1-.02h-.92l-2.04-.01h-8.33l-.66.01h-.53l-.73.01h-1.4l-.9.01h-2.17l-6.15.02h-3.39l-.4-.01h-.74l-.45-.01h-.6l-1.04-.01-.73-.01-5.57-.05H97.33l-5.22-.03-7.95-.01-6.6.01-5.2.03-1.92.01h-.25l-3.46.03h-.9l-.24.01h-.85l-.15.01h-.85l-.17.01h-.17l-.11-.03-.1-.1-1.95-2.26-.44-.55-2.29-2.83 4.16-15.01-.11-2.12-10.78.57-9.29.49-1.84 1.97-7.5 8.06-15.46-8.09-2.04 5.73L.03 730.5V563.22l28.44-.48 2.1-.02H31l66.52.5v69.8h48.75v50.88z" long-name="Kluane" region="6" short-name="Kluane" value="1"/>
    <path d="M235.65 647.84v46.19l-24.1-.12-19.8.12-2.5.45h-.04l-.05.17-.02.13v.14l.03.16.13.14.07.09.01.13v.47l.03.23.02.26.04.14.11.13.04.08.03.12.04.1.18.16.06.05.09.08h-1.66v.7h-2.17l.02.38.26.68v.02l.2.5.34.89.14.38.03.07.12.3.11.3h-8.64v-.92l-.08-.1-.02-.01h-.07l-.01.01v.07l-.01.01v.05l-.06.02-.01.01v.08l.02.04.01.01.04.02.02.02v.03l.01.04-.01.03-.02.02h-.02l-.08-.04h-.07l-.03.03-.06.01-.03-.01v-.01l-.01-.04-.01-.02-.02-.01h-.02v-.09l-.02-.01-.03-.04h-.05v.02h.02v.01l.02.01v.01l-.02.01-.02-.02h-.03l-.02.01h-.03v-.02l.01-.01h.02v-.03l-.02-.01H178l-.01.01h-.01l-.01-.03-.01-.01h-.02l-.03.04h-.02l-.01-.01-.02-.01h-.07l-.01-.01v-.03l.02-.02-.01-.02-.01-.01-.03-.01h-.02v.05h-.02l-.01-.01v-.02l.01-.02-.04-.02-.02.02v.03h-.06l-.03-.04-.04-.02h-.02l-.03.02h-.02l-.01-.01-.02-.02h-.03v.02l-.03.05-.01.01h-.03v-.02l.01-.01-.02-.02-.02-.05-.02-.02-.01-.01-.03-.02-.03-.03h-.01v.04h-.03v-.05l-.02-.01h-.01l-.01-.01-.02-.02-.01-.01-.02-.01H177v.13l-.01.02h-.03l-.03-.03-.02-.01h-.03l-.01.01-.02.01h-.02v.01l.01.02v.03h-.03l-.02-.03-.01.02h-.01v-.02h-.01l-.02-.01-.02.02-.03-.01h-.01v.04h-.02l-.01-.01v-.05h-.02l-.01.02-.02.01h-.02l-.02-.01h-.01v.08h-.04l-.03-.01-.01-.01-.01-.02h-.01l-.01-.01h-.04v-.01h.01l.02-.01.02-.01v-.04h-.03l-.02.02-.01.01h-.02l-.06-.02h-.05v.05h-.02l-.01-.01-.01-.02h-.01l-.01.02v.05h-.02v-.07h-.02l-.02.01-.01.02h-.04v.01l-.02.02-.02-.01v-.04H176v-.03h.02v-.02l-.02-.01-.01-.01h-.04l-.01.02-.01.01-.02-.02h-.04v-.02l.02-.01v-.02h-.04l-.02.02-.03.03h-.02v-.05h-.01l-.02-.02-.02-.03v-.02l-.03-.01-.03-.03v-.01h-.05l-.01-.02h-.05v-.05h-.03v.02l-.01.01h-.01v.02l-.02.01-.01-.02h-.01l-.01-.02h-.03l-.03.02-.02.03-.01-.01h-.02v-.04l-.03-.02.02-.01v-.02l-.03-.04v-.03l-.01-.02v-.02l.03-.02v-.02l.01-.06h-.01v-.04l.02-.01h.01l.02-.02v-.04h-.08v-.04l.02-.01v-.02l-.01-.01h-.02l-.02.02v-.05l-.02-.01v.01h-.01l-.01.01-.02-.01v-.06h-.02v.02h-.03v-.02l.02-.03v-.01h-.05v-.05h.02l.02.02h.02v-.03h.03v-.02l-.01-.02h-.03l-.03.02-.04.02-.01.01v.05h-.04l-.01-.02.02-.03v-.02h-.02v.01l-.01.02-.01.01H175l-.02-.01v-.05h.03l.01-.01v-.02h-.06v.02l-.01.03-.01.01-.02.01v.01h-.03l-.01-.01-.01-.02h-.02v.03l-.02.01-.02-.03v-.02h.03l.01-.02v-.02l-.02-.01v-.03l-.01-.01h-.02l-.02.02h-.03v.01h-.03v-.05h-.02v.01l-.01.04h-.01l-.02-.01v-.05l.02-.02h-.03l-.01.01v.01h-.02v-.02l.02-.02.01-.01-.03-.01-.01.02h-.02l-.01-.01v-.01l.01-.02v-.06h-.03l-.02.01-.02-.02-.01.01v.06h-.01l-.01-.03h-.02v.03h-.04l-.02.02h-.03v-.02l.04-.02v-.03h-.03v.02h-.02v-.04l.03-.02v-.02h-.04l-.02.02h-.01l-.06-.04h-.04v.02l-.02.04h-.01l-.02.02h-.03l-.03-.02v-.01l.02-.02v-.01h-.1l-.04-.01-.07-.04h-.01l-.03-.02-.02-.03h-.04l-.02-.02v-.02l.01-.02h.02l.01-.01v-.02l-.03-.02h-.06v.01h-.03l-.02-.03-.02-.02v-.05h-.01l-.02.01-.03.03h-.03l-.04-.03-.01-.01-.01-.02v-.04l-.1-.05h-.02l-.02-.02-.01-.03v-.06l.03-.01v-.02h-.02l-.01.01-.01.01v.01h-.04l-.02-.01v-.06l-.02-.01-.01-.02v-.02l-.02-.01v-.02l-.01-.01-.02-.02h-.04l-.02-.01-.01-.02-.03-.07h-.02l-.03.01h-.01l-.02-.02v-.04l.02-.04-.03-.02-.01.02h-.1l-.01-.03h-.02v.1h-.02l-.03-.02h-.02v-.02h.02v-.02h-.04v-.04h-.03v.02l-.02.02v-.07h-.02l-.01.02-.02.01-.02-.01v-.01h.01v-.01h.02v-.02h-.02v-.04h-.12v-.01l.03-.02h.02l.02-.02v-.01l-.02-.02h-.01l-.03-.02h-.01l-.02-.01-.04-.01h-.03l-.02-.01-.01-.05h-.01l-.02-.02h-.02v.04l-.02.01-.06.02h-.02l-.02-.02v-.1h-.04l-.02.03h-.02l-.02-.01v-.05l-.03-.07v-.01l-.02-.01h-.01l-.04-.03h-.01l-.01-.02h-.01l-.03.01v.06l-.02.02H172l-.01-.02v-.01l.01-.05-.02-.01h-.01l-.07.03h-.01l-.03-.03h-.04l-.02.02-.02.02h-.03l-.01-.02-.01-.02v-.03l.03-.04v-.02l-.02-.01h-.02l-.02.01h-.02l-.01-.02v-.02l.01-.02h.01l.01-.01v-.02l-.01-.01-.02-.02-.05-.01h-.02l-.02-.01-.01-.02v-.01l.01-.01h.02l.02-.01v-.02l.01-.01v-.02l-.03-.01h-.01l-.02-.01v-.04h.02l.01-.01v-.02h-.01l-.01-.02-.02-.01-.01-.02-.02-.04v-.02l-.02-.02-.02-.03-.02-.02h-.01l-.04-.02-.03-.01-.04-.04-.02-.02-.03-.04v-.02l-.02-.02-.01-.01-.03-.02h-.05v.01l-.04.02-.02.01h-.02l-.02.01-.02.02h-.01l-.02.02h-.02l-.01-.02-.01-.02-.04-.1v-.08l-.01-.01h-.02l-.03-.01-.01-.01v-.04l-.02-.02v-.04l.02-.03.01-.02v-.01l-.04-.01h-.01v-.02h-.03l-.02-.02-.03-.01h-.02l-.06.03-.02.01h-.05v-.01l-.02-.05-.02-.04-.01-.02h-.04l-.01.01h-.04l-.02-.02v-.01h-.06v.04h-.1v-.07l-.02-.02-.03-.02-.03-.03-.02-.05-.01-.03h-.08l-.01.01-.02.02h-.03l-.02-.01v-.01H170l-.01.01v.05l-.03.01h-.02l-.02-.03-.01-.02-.03-.02h-.04v.02l.01.01v.06l-.01.03-.02.02h-.02l-.02-.02v-.01h-.05l-.03.01h-.02l-.02-.02v-.01l.01-.02.02-.02v-.04l-.04-.02h-.08l-.04-.01-.02-.02v-.03h.01l.01-.02h.04v-.03l-.02-.01h-.04l-.05.06-.03.02h-.03l-.01-.02-.02-.02-.01-.02h-.02l-.01-.02h-.03l-.01-.02h-.01v-.04l.02-.03.01-.02v-.04h-.02v-.01h-.02l-.01.01h-.02l-.02.02v.01l-.01.02-.01.02-.02.01h-.02l-.03-.02v-.04l-.03-.02h-.03l-.03.02-.01.01H169v-.06l-.02-.02V696l.01-.01.01-.01v-.02l.02-.03v-.02h.01l.04-.02.02-.02v-.05l-.01-.04h-.03l-.01-.01h-.09l-.01-.01v-.02l.01-.02h.01l.01-.02.02-.01v-.08l-.02-.02-.02-.01h-.01v-.02l-.01-.01h.01l.02-.02v-.01l.02-.06v-.09l.01-.01.05-.01.01-.02v-.01l.01-.02v-.04h-.03l-.01.01h-.06l-.08-.03-.01-.02v-.02l.01-.01h.02l.01-.01v-.04l-.01-.01-.01-.01h-.02l-.02.02h-.07l-.02-.03v-.06l.01-.02-.01-.03-.03-.02v-.02l.06-.03.03-.01.03-.04.02-.02.03-.06.02-.05.04-.02h.04l.05.01.03.03.03.02.03.01.05.02h.05l.06.01.05.01.06.01h.09l.04-.02.02-.01.02-.02v-.1l-.01-.02-.03-.04-.03-.02-.03-.01-.05-.01h-.14l-.03-.02-.04-.04-.03-.03-.03-.03-.02-.04v-.05l-.01-.03v-.05l.02-.05.02-.03.02-.04.03-.02h.04l.01.01v.1l.02.03.03.02h.03l.03.01.03.02.03.02.02.02.02.03.01.04.03.03.03.02.03.02.04.01.05.01h.12l.02.02.03.02.02.02.02.03.01.03.01.02v.03l.02.04.02.02h.06l.01-.02.01-.02v-.1l.02-.03.03-.02h.07l.03.02.02.04.02.05v.18l.02.04.01.03.02.02.04.01h.1l.02-.03.01-.02.02-.04.02-.02.03-.02.02-.06.03-.05.03-.04.04-.03h.04l.04-.02.02-.02.01-.02.02-.03.01-.02.02-.02.02-.02.01-.04.04-.04.06-.05.06-.05h.08l.09-.02h.08l.08-.04.05-.01.02-.03v-.04l-.02-.04-.03-.03-.04-.03-.05-.02h-.15l-.07.03-.05.03-.05.03-.04.03-.06.03h-.12l-.03-.04-.03-.03v-.04l.01-.07.04-.06.03-.02.06-.04.07-.03.04-.02.03-.04v-.05l-.01-.05-.04-.03-.02-.01h-.11l-.05.02h-.14l-.03-.03-.03-.05v-.05l.03-.04.04-.03.08-.04.04-.02.04-.04.02-.05.01-.04v-.06l-.02-.04-.02-.03-.04-.04-.05-.03-.02-.03-.02-.05-.01-.04-.02-.04v-.04l.02-.03.02-.02.02-.05v-.05l-.03-.02-.02-.02-.03-.01-.03-.01-.03-.02-.03-.03-.02-.04v-.14l-.01-.05-.03-.03-.05-.04-.03-.03-.05-.02-.05-.03-.03-.02-.01-.02v-.05l.01-.03.04-.05.02-.02.04-.03.04-.02.04-.01h.13l.06.02h.04l.04.02.04.02.06.04.05.01h.04l.11-.03.06-.04.08-.04.07-.05.02-.03v-.16l.03-.05.04-.05.05-.03.04-.03.06-.03.05-.02.06-.02h.13l.07-.01.05-.03.03-.02.04-.04.04-.04.05-.04.04-.04.1-.05.1-.02.06.02.06.03h.15l.05-.04.04-.07V691l.01-.05.04-.06.06-.03.1-.02.1.04.07.09.04.15.05.1.08.06h.1l.07-.01.07-.07.08-.1v-7.2h-27.09v-50.88h89.38z" long-name="Lake Laberge" region="7" short-name="Lake Laberge" value="1"/>
    <path d="M235.65 694.03v30.42l-16.7-.07h-6.32l-2.93.02h-2.88l-.63.01h-.06l-4.92.04.07.12.05.07.03.06.07.11.02.03.01.02h.01l.01.02h.01l.04.04.24.2.11.09.03.02.07.06.03.02.02.02h.01l.01.02.02.02v.01l.01.01v.02l.02.01v.05l.01.01v.02l.02.04.06.28v.02l.01.02v.11l-.01.02-.01.01v.01l-.02.02-.02.02-.04.04-.07.07-.01.02H202v.02l-.01.01v.01h-.01v.01l-.01.02v.01l-.01.01v.04l-.01.01v.1l.01.01.03.1.02.08.04.15.03.07.02.09.04.13v.03l.01.01.01.03v.01l.02.03.01.03.03.06.03.07.01.04.01.02.03.06v.03l.01.01v.02l.01.01v.02l.01.01v.04l-4.73.02-2.58 6h-16.25v-20.3h14.63l3.95-1.32.04-.02.04-.01 1.02-.34.02-.23.04-.72v-.08l.01-.03v-.03l.07-1.04.04-.59v-.05l.13-2.02h.04l.02-.04.02-.05v-.07l-.02-.38-.7-.84-1.06-2.58-.62-1.5-.81-1.98-3.89-5.35 19.81-.12z" long-name="Marsh Lake - Mount Lorne - Golden Horn" region="8" short-name="Marsh Lake - Mount Lorne - Golden Horn" value="1"/>
    <path d="m232.53 237.7-.98.55h-1.07l-2.1-.2h-.86l-.22-.01-.8.14-.65.37-.7.55-.65.66-.25.83.16.72.29.3.95.36.82.84.85 1.18.2.11.06.03 2.68.5.44.23.68.52.3.69-.1.56.06.7.2.23.7.47.34.7-.1.27.2.52.42.86.16.66 1.16.51.66.61.32.35.05.79-.24 1.99-.14.74-.26.63-.4.6-.58.47-.96.98-.14.75.2.23.34.26.26.38.9.6.42.57.42.32.29.54.26.63.07.64-.53.77-.46.4-.25.33-.07.32.17.13.98.43.73.48.48.47.23.29.29.53v.49l-.09.7.21.67.33.54.59.45 1.05.5.46.13.6.11.75 1.1.2.43-.12.65-.1.09-.2.19-.85.46-1.82.75-.53.48-.17.4-.05.75.14.55.62 1.75 1.12 1.6.5.44.29 1.2-.1.46-.24.29-.33.22-.62.26-.83-.16-.77-.43-.63-.22-.51.19-.4.35-.48.49-.13.69-.12 1.12v2.52l-.44 1.3-.97 1.63-.42.2-.24 1.29.06.67.28.53.7.32.62.22.84.06.6-.17.73-.33.87-.12.6.07.65.12.76.24.47.28.41.32.58.68.48.71.15.7.04.53-.27 2.78-.16 1.64.3 1.14.29.44.13.54-.08 1.4-.24.53-.58 1.02-.5.61-.94.48-.85.5-.46.47-.76 1.98-.23 2.17.32.53.46.09.94-.01 1 .2.16.59v1.03l-.67 1.47-.06.79v2.72l.22.8.17.3.42.28.55.29h.51l1.4-.47.72-.05.38.22.3.34.8.76v.03l.2.38.32.26.46-.2.78-.17.65-.48.6-.63.08-.41.2-.52-.05-1.23.33-.22.54.1.8.02.4.08.36-.4.85-1.19.6-.16 1.82-.9.92-.38.23-.24 1-.79.44.19 1.2.38.63.08 1.17.28.76-.03.3-.13.54-.31.68.14.59.54.52.68-.19.47-.01.52-.13.63-.23.66-.18.9-.33.69-.83.86-.35.77-.38.49-.2.52.02.38.36.73.7.28.76.16 1.53-.15.54-.36 1.18-.04.88-.38.55-2.7-.01-.85.9-1.13 1.11-.43.32-.17.5-.56.38-.95.38-.49.55-.35.45-.38.53-.27.5-.17.78-.12.55-.12 1.11.75.57 1.1.03.3.37.93.65.93.19.42.28.01.42-.66.7-.6.5-.18.3.11.46.1.47-.23.88.05.4-.1h.43l.13.02.25.15v.19l-.18.43-.3.5-.07.36.47.67.3.34.02.34-.07.31-.13.2-1.4-.06-1.08 1.09-.5.64-.19.39-.5.17-1.11.14-1.26.86-.06.27-.27.18-.44.52-.2.52-.38.71-.37.86-.21.99-.06.73.08.5.23.27.36.27 1.81.94.44.37.43.8.41.5 1.79 1.04.74.67.33.64.5.75.52 1 .81 1.02.3.76.46.7.44.53-.07.35-.1.26-.14.13-.1.1-.2.47.12.3-.03.18 1.06.76.79.57.3.3.2.37.03.33.26 1.82.07.14.43.3.28.85.71 1-.05.78v.13l-.23.6-.4.56-.67 1.39-.53.3-.43.1-.51.62-.31.58-.15.71-.51 1.1-.3 1.18-.4.56-.12.21-.18.33.07.52-.08.36.09.47-.02.1-.22.36-.15.7v.6l.06.4.11.34-.17.38-.4.1h-.36l-.37.2-.16.34-.15.7-.53.35-.52.26-.4.56-.6.7-.82.33-.44.41-.36.39-.43.27-.67.14-.22.6-.18.87-.3.77-.31 1.04-.27.4.17.5.01.82.08.48-.3 1.26-.33.2-.74.08-.32-.02-.83.05-.48.09-.37.24-.12.15-.18.61-.17.2-.27.4-.57.56-.08.17-.04.17.02.14.11.53-.05.26-.4.38-.15.06-.32.02-.9-.28-.36-.03-.2.1-.43.28v.27l.1.11.77.07.12.07.24.37.37.44.39.31.17.5.03.27-.11.12-.65.04-.1.07h-.46l-.61.33-.68.18.17.26.01.19.62.54.3.33.18.4.24.37.92.2.33.15.32-.02.38-.51.11-.53.18-.19.52.11.63.04.5-.17.52-.34.73-1.08.21-.14.14-.02.3.07.42.22.35.71.21.28.24.18.32.4.13.7-.18.42-.23.41-.06.72-.2.36-.53.53-.44.59-.08.4.33.97.24.19.2.36-.02.09.15.57.23.19.56.35h.41l.67-.18.57.12 1.3.05.64.22.35-.15.42-.27.3-.12.41.18.24.6.63.63-.03.18-.23.4-.05.26.14.8-.13.62-.22.63-1.56.93-.44.36-.15.29-.15.47-.27.44v.81l-.16.33v.41l-.22.22-.34.11-.42.05-.38.1-.61.32-.2.05-.37.74-.17.6-.03.23-.04.3.13.43.21.5.78.61.03.91.6.4-.03.31-.44.8-.12.98-.16.32-1.71.68-.26.12-.9 1.53-1 .5-.39.1-.43.77.56.97.65.54.71.47.13.03-.07.34-.16.33-.02.53.17.67.31.24.1.16.26.05.44-.17.2-.54.16-.33.41-.23.27-.02 1.06-.1.82.58.57.25.41-.04.72-.4.44-.17.88.28.06.15.45.64 1.4 1.38.72.2.46.19 1.14.92.17.26.08.47.1.2.36.34.2.14.51.51.23.41.46.15.86.36h.4l.87-.26.32-.02.12.03.86.41.26.24.2.27.13.88.56 1.51.1.75.14.19.67 2.04v1.03l.75.87 1.3 1.2.16 1.35 1.83.52.36.6-.54.7.23.52 3.12-.9 2 1.4-.4.78.41 1.96-1.39.98-.72 1.41-1.43.76-1.14 1.61.07 1.92-1.06.9.16.45.14.4 1.2.31 1.15-.47 1.6.11.72-.38 1.44.38.93 1.17.9-.08 1.18-1.38 1.24-.03.47-1 2.05.02.33-2.8.86-1.31.52-.22.95.71 1.96-.4 1.4.17 1.53 1.96 2.38.54.72 1.9.18.23 1.34 1.72-.58.46-.48.44 2.3 1.9-.23.51-1.13 1.13-.26 2.09.87-.18.45 1.15.28-.28-.1-.54 1.97 1.4 1 2.48.32.76-.83.95.4.82 1.53-.75 1.33 1.64-1.99 1.86-1.27.36-.5 1.45.97.37-.34 1.08.96.37.91.04.1 1.1.56.56v1.68l-.24 1.06.39.26.9.04 1-.64 2.66.48-.1.69-.84.84-.32.62-.25 1.1.03.32.17.4.37.52.4.67.25.35.77.4.18.16.47.58.3.21.18.05.3.02.9-.04.56.2.18.15 1.23 1.3.4.31.16.08h.08l.25-.09.52-.4.29-.1.2-.02.22.03.25.14.54.83.59.27.65.46.35.34.23.27.38.37.2.27.3.52.7 1.34.32.4.5.4.19.23.21.62.09.36.04.38.11.3.12.13.2.16.23.1.37-.18.18-.28.38-.3.3-.1.38-.1.69-.26.27-.14.18-.17.27-.49-.05-.5-.05-.24v-.22l.13-.4.21-.2.19-.03.15.02.26.1.5.36.27.26.22.11.21.03.25-.06.35-.2.22-.07.23-.03.04.03.26.01.3.31.16.33.02.28-.05.3-.19.3-.16.34-.2 1.07.03.46.1.34.1.36.34.57.26.16.34.35.11.24.1.91v.35l-.06.2-.1.39-.25.62-.2.25-.04.02-.23.17-.38.11-.8-.04-1.11-.28-.37.14-.08.25-.05.84.05.32-.02.34-.1.34-.08.11-.13.08-1.09.18-.82.04-.96.12-.32.12-.2.17-.12.24-.03.33.12.82.21.5.26.37.39.72.59.76.23.21.46.23.64.02.28-.03.59-.39 1.01-1.18.27-.3 1.02-.64.47-.2.32-.06 1.02.19.08.16.03.22-.02.27-.11.24-.19.25-.81.83-.06.1-.05.32.03.24.55.85.13.28.12.42.77 1.67.3.19.4.05.3-.08.91-.39.27-.05.35-.02.14.1.1.36.04.56-.1 1.01v.68l.09.27.13.18.46.22.6.2.98.44.27.22.74 1.58-.04.57.07.32.44.33.26.34.02.02v.04l.12.34.06.48.03.05.02.01.02.02.02.05.01.02v.09h-69.3v36.1l-32.85-.19-24.01.2v87.62H97.52V563.2h13.55v-90.66h18.95V318.67h32.5v-81.51h71.08l-.34.3z" long-name="Mayo - Tatchun" region="9" short-name="Mayo - Tatchun" value="1"/>
    <path d="M325.02 654.9v73.23h-16.25v21.77h-26l-1.76.02h-.35l-.94.01h-.68l-.85.01h-.9l-.93-.01h-.9l-1.22-.01-.93-.01h-1.08l-1.04-.02h-.94l-1.16-.01h-.97l-1-.01-.75-.01h-.18l-13.97-.03-4.61.01h-4.6l-4.96.03h-2.4l-22.28-.15-34.6.24v-16.37h16.25l2.58-6 4.74-.01v-.03l-.01-.02v-.02l-.01-.01v-.02l-.01-.01-.01-.03-.03-.06v-.02l-.02-.04-.03-.07-.03-.06-.01-.03-.01-.03v-.01l-.02-.03v-.01l-.01-.03-.04-.13-.02-.1-.03-.06-.04-.15-.02-.09-.03-.09v-.04l-.01-.02v-.09h.01v-.03l.01-.01v-.01h.01v-.01l.02-.02v-.01l.02-.01.01-.02.07-.07.04-.04.01-.01.01-.01.01-.02.02-.02v-.01l.01-.05v-.11l-.07-.28-.01-.04v-.02l-.01-.01v-.02l-.01-.01v-.02l-.01-.01v-.02h-.01l-.01-.02-.01-.01-.01-.01-.01-.01-.01-.01-.01-.01-.01-.01-.03-.02-.07-.06-.03-.02-.1-.09-.25-.2-.04-.03v-.01l-.02-.01v-.01l-.02-.01v-.01l-.02-.03-.07-.1-.03-.07-.05-.07-.07-.12 4.92-.04h.69l2.88-.01 2.93-.02h6.33l16.69.07v-76.61h89.37z" long-name="Southern Lakes" region="16" short-name="Southern Lakes" value="1"/>
    <path d="m8.5 3.04 6.67 1.09 7.65.6 6.56-.85 4.37-.48 4.73-1.1 5.59-.84 6.07-.37 6.67.6 6.32.74 4.12 2.18 4.13 3.52.97 3.4-1.33 3.77-1.46 4.6.36 2.92 1.7 4.62 5.1 3.52 5.47 2.3 4.49.97 2.67 2.07 2.18 6.19 3.4 6.19 14.81 9.1 6.68 3.4 4.98.49 3.03.73 2.43 2.06 2.06 2.67 5.93 2.23 4.63-.16 4.25-.25 2.67 1.1.86 1.6.37.83.32.66v104.37l.14.29.7.56.24.3-.01.5-.2.68-.26 1.76.43.46 1.44.4.48.08.38.15.17.18.28.14.71.25.26-.06.43-.23.68.15.53.72.32.2.53.48.14.37.37 1.55.5.67.33.75.05.3-.16 1.07.5 2.36.2.63-.1.58-.15.37.04.1.47.47.14.42-.22.81-.37.44-.07.49.1.6.08.81.2.67-.09.58-.3.65-.2.76-.24 1.6-.34.93-.04.3.3.28.9.29.1.6.11.22.58.43.71.8.07.2-.15.38-.42.13-.33.25-.03.2-.03.18.63 1.08.18.72.37.84.85 1.51.03.8-1 2.05-.23 1.54-.06 1.07.05.64-.34.93-.86 1.15-.45 1.69-.9.45-.5.71-.28.64.16.31.14.27.22.52.35.25.33.4.1.3-.05.97-.47 1.2-.4.72v.68l.16.86.32.82-.16 2.32.52.46.67.69.5 2.45.13 1.33v.03h4.66v41.16h-65v40.35l-48.74-.58-48.75.58V8.36L0 4.01 0 0Z" long-name="Vuntut Gwitchin" region="18" short-name="Vuntut Gwitchin" value="1"/>
    <g map-type="insets">
      <text xml:space="preserve" x="365.8" y="18.29" map-type="inset-texts" style="font-size:26.6856px;line-height:1.25;font-family:sans-serif;stroke-width:2.66856"><tspan x="365.8" y="18.29" style="stroke-width:2.66856">Whitehorse</tspan></text>
      <path d="M360-7.99V272.5h200V270H362.5V-7.99Z" map-type="inset-lines" style="stroke-width:1.46278"/>
    </g>
    <path d="m361.93 509.37.06.03.05.03.04.04.04.04.04.05.02.06.02.04.03.04.02.02.02.05.03.06.01.03.02.03.01.04.02.03.01.03v.07l-.02.02-.01.03.18.3.1.32.24.42.2.27.71.63.11.14.14.38-.03.13-.07.1-.13.1-.19.03h-.04l-.5-.3-.5-.37-.42-.24-.77-.3-.3-.06h-.23l-.29.08-.13.22-.22.58-.08.78-.09.52-.42.51-.1.22-.03.28.19.4.28.43.77 1.41.2.52.02.5-.05.26-.13.17-.4.27-.36.08-.34.12-.13.14-.23.65-.3.25-.32.08-.7.07-.27.06-.39.16-.09.05-.25.15-.27.22-.18.21h-.34l-.58-.08-.18.05-.17.11-.24.42-.09.52-.24.59-.18.15-.38.15-.72-.02-.3.03-.27.12-.19.14-.23.59.02.56-.05.34.11 1.08-.02.31-.05.19-.14.3-.14.2-.25.16-.29.32-.02.25.05.1.11.06.24.05h.5l1.64-.54.57-.14.3-.02.38.04.33.1.22.14.5.6.02.03.23.47.15.49.15.91.11.3.15.15.1.23.18.78-.03.4.03.66v.06l.11.14.1.06.3-.03.18-.24.35-.55.23-.12.19-.16.45-.55h.12l.24.08.15.09.38.8.48.19.23.14.08.14v.13l-.08.24-.08.45.09.24.16.19.33.76.08.32v.7l.1.56.1.23.26.3.52.37.16.21.03.12-.02.32-.24.57-.23.96.02.18.24.05 1.08.1.49.1.2.11.13.21.05.27.18.34.26.05h.3l.44-.07 1.56.05.47-.12.83-.35.17-.14.48-.22.23.03.22.1.2.33.18 1.14.33.82.06.27-.03.24-.08.26-.23.34-.83.7-.3.4-.28.31-.3.57-.18.71-.06.48.07.67.12.69v.17l-.08.13-.17.17-.46.35-.21.24-.04.11-.08.61-.2.6-.09.2-.95 1.17-.01.32.16.34.06.1.32.5.24.27.26.36.03.19.05.11-.2.28h-.25l-.39-.07-.82-.36-.38-.02-.13.05-.08.16-.08.3-.05.54v.37l.09.42.16.24.51 1.23.27.34.34.29.51.37.19.09.17.14.26.08.16.23.1.24.06.87.1.18.27.2.26.27.13.34.08.55.1.29.35.6.35.47.16.13.13.19.08.18v.2l-.3.2-.39.18-.03.18.56.7.15.26.39 1.55.53.96.23.05.57-.1.29.06.18.08.14.17.17.72.1.28.64.19.23.09.1.09.19.3.03.44-.1.13-.15.15-.6.46.05.22.16.26.69.5.5.42.19.38.03.19-.13.61-.04.23-.08.26-.42.49-.2.2-.62.27-.22.15-.16.16-.18.26-.13.5v.3l.05.24.16.4.29.2.2.1.37-.02.6-.38.34-.36.13-.21.22-.51.05-.08.05-.08.21-.18.2-.05.66.03.46.17.36.23.78.86.31.44.32.56.59.9.17.2.67.52.56.31 1.18.4.64.12.41.15.52.6.44.62.26.26.4.2.14.14.22.52.27.99v.15l-.1.14-.46.35-.52.25-.26.18-.25.05-1.01-.07-.2.03-.42.15-.2.16-.09.46.05.47.32.35-.05.12-.87.7-.17.27-.08.41.04.2.12.16.13.57.15.32.22.27.32.18.55.13.52.19.87.6.04.1-.13.1-.62.08-.16.07-.1.2-.2.55-.88.88-.12.2-.23.6-.22.41-.08.31-.03.58.16.31.33.46.17.51v.17l-.07.31-.12.31-.16.3-.08.41-.02.37.16.37.24.25.24.35.24.24.17.25.39 1.49.15.2.18.13.55.23 1.17.12.07.09-.08.28-.46.65-.2.36-.27.34-.57.6-.57.54-.3.24-.42.44-.1.47.04.52.1.23.19.05.21.01.76-.13.27.06.32.17.5.77.33.66.23.28.15.3.37.37.37.17.63.17.47.05h.4l.85-.14.32-.26.23-.24.21-.44.26-.15h.17l.54.33.31-.03.26-.12.43-.62.3-.21.22.09.36.33.3.6.54.78.31.26.13.02.32-.05.43-.15.35-.05h.33l.28.08.4.21.3.44.19.52.14 1.01.31.86.18.16.51.07.35.1.24.13.1.07.34.24.52.16h.31l.13-.07.1-.23.21-1.5.1-.35.26-.49 1.07-1.63.59-.97.28-.14.73.08.32.13.59.35.3.09.52-.3.35-.14.46-.02.36.08.23.1.6.43.44.39.28.3.18.34.08.31.2.37.15.45.25.56.38.4.38.49.38.31.46.44.25.37.36.39.3.44.81.8.3.15.17.16.05.2-.03.2-.25.94-.03.35.1.2.29.41.26.26.38.21.87.57.4.86.18.24 1.11.85.17.31.6 1.33.42 1.42.07.4.13 1.12.04.75.24 1.27.12.29.08.2.12.15.23.06.23-.13.94-.63.37-.2.31-.09.28-.04h.41l.63-.03.35.04.37.21.51.57.39.56.28.92.15.34.4.59.15.3.4 1.38.5 1.18.1.72.02.23-.05.23-.06.25-.06 1.22v.03l.18.37h-.17v.03l.22 1.07.42.55.22.39.22.28.9.68.26.1.41.1.3.11.21.13.44.7.65 1.22.38.54 1.44 1.65.35.29.36.38.69.35.15.05.47.14.47.2.35.01.79.18.27.18.27.36.12.36.15.76.22.64.07.3.13.26.17.18.6.42.8.32.25.15.63.08.21.12.38.78.2.28.24.18.8.42.3.1.73.03.23-.12.38-.04.41-.19.4-.08.32.04.8.25.33.06.34.01.42-.03.2-.14.63-.25.12-.02.61-.11h.96l.44.07.5.14.74.28.37.29.16.38.23.41.11.33.17.29.33.67.2.24.4.05.46.01.33-.09.24-.14.24-.02.3.07.17.1.15.66.22 1.27.1 1.03.08.43.02.7-.03.95.04.32.16.32.32.26.44.15.7.38.28.37.27.4.12.26.01.25-.06.25-.07.16-.06.14-.09.27-.04.49.07.44.04.4.27.64.13.66.27.77.27 1.86.05 1.4.3.8.44.97.17.26.07.35.03.53-.1.95-.1.42-.35.46-.4.44-.36.5-.15.28.06.22.35.53.31.3.13.3.1.44-.3 1.08-.14.25-.18.24-.33.2-.56.19-.74.32-.28.19-.2.19-.11.22-.13.48-.01.35.06.35.21.18.12.25.27.36.16.35.13.62.12.17.17.13.2.04.16-.1.39-.23.37-.58.78-.75.42-.25.55-.16.57.03.3.06.48.31.2.27.04.3-.06.32-.23.79-.12.7.03.35.3.85.31.69.5 1.2.47 1.92.02.87-.04.32-.12.55-.14.29.03.64.12.6.13 1.07-.04.44-.47.82-.06.27-.02.35.19.3.4.29.66.27.22.18.08.3-.07.5-.26.48-.25.75-.08.69.03.5.08.46.25.58 1.02.83.3.33.23.1.29.07.32-.09.19-.26.06-.34.08-.2.2-.3 1.23-.45.35-.04.33.19.43.51.55.4.33.35.15.43.2.37.36.31.22.06.35-.18.21-.38.37-.48.6-1 .52-.43.74-.7.7-.54.25-.24.63-.44.18-.19.25-.04.3.07.63.69.38.29.36.21.46.12.65.43.54.44.4.07.3.11.44.22.39.11.69.04 1.54-.4.3-.13 1.14-.54.46-.42.64-1.1.09-.69-.12-.55-.17-.55-.18-.45-.21-.2-.01-.23.18-.24.7-.16.6-.07.64-.02 1.12-.24.67-.07.37-.1.17.08.14.26-.11.29-.13.44-.26.33-.02.44.02.5.13.4.56.64.46.15.42-.05.42.02.33.16.57.43.27.14.32-.01.35-.06.18-.23-.04-.55.2-.73.15-.8.05-.62.24-.63.34-.47.57-.42.6-.7 1.66-1.06.4.02.48.23.47.52.63.6.17.46.7.3 1.04.88.46.52.32.41.54.53.36.22.63.08.4-.12.72.04.1.01.49.07.36.1.54-.02 1.03-.29.97.26 1.6.93.57.38.67.34.5.3.48.23.67.24.44.1 1.17.17h.5l.94-.13.3-.13.49-.29.24-.3.73-1.1.21-.23 1-.8.36-.64.17-.39.19-.28.2-.16.34-.18h.7l.76-.1 1.24-.01.66.01.53-.06.81-.37.76-.2.44.09.86.03 1.3.39.86.08.67.02.4-.07.26-.13.11-.29.1-.54v-.69l-.43-2.18.05-.34.16-.54.3-.37.88-1.53.14-.31.24-.9.24-.21h.27l.1.08.16.13.8.93.53.28 1.12.13.38-.04.49.13.48.2.49.04.35-.07.22-.2.41-.65.1-.24.12-.06.3.02.32.1.32.27.58 1.2.52 2.35.19 1.16.23 1.15.15 1 .11.48.03.32-.03.42.06.5.12.3.13.66.1.25.27.35.38.22.45.2.27.35.1.48-.06.41-.73 1.08-.28.5-.84.72-.54.56-.61.32-.52.4-.18.39-.07.34-.32.27-.33.42-.23.55v.51l.16.6.64 1.63 1.25 2.03.63.44.6.63.77 1.1.77 1.47.44.68.12.3.59.68.4.6.38 1 .06.8-.14.91-.05.6.03 1.26.28.17.4-.12 1.5-.13.8-.03 1.25.05.8.06.65.15.65.37.32.22.13.25.12.4v.54l-.08.78.03.51-.22 1.55-.1.26-.09.5.04.8.25.54.17.84.2.58.1.5.33.8.17.7.28.65.38.76.33 1 .44.57.24.7.28.7.13.84.13.7.24.69.43.67.52.72.31.34.42.54.5.87.46.37.53.65.1 1-.01.27.18.43.3.7 5.64 7.05h-.62l-4.84-.01h-.78l-2.15-.01-2.37-.01h-1.28l-1.21-.01h-1.45l-.55-.01h-2.06l-2.15-.01h-1.57l-.49-.01h-5.49l-2.05.01h-4.18l-1.47.01h-4.07l-1.73.01h-5.25l-2.7.01h-2.56l-2.15.01h-4.79l-2.56.01h-4.24l-.79.01h-5l-1.84.01h-3.52l-1.63.01h-4.42l-1.65.01H463l-.9-.01h-6.41l-10.33-.02h-10.77l-12.55.02h-1.44l-.38.01h-1.01l-1.37.01h-7.05l-11.15.03H399l-.76.01h-.46l-2.23.02h-1.62l-.47.01h-1.24l-1.47.01-1.45.01h-.72l-13.02-.01h-3.12l-.48-.01h-7.92l-18.01.04h-11.72l-25.54-.09v-21.77h16.25v-80.29h-89.37V545.4l24.01-.19 32.86.2v-36.11h69.29v.02l.04.02h.02v.01l.03.01z" long-name="Watson Lake - Ross River - Faro" region="19" short-name="Watson Lake - Ross River - Faro" value="1"/>
    <g long-name="Porter Creek South" region="13" short-name="Porter Creek South" value="1">
      <path d="M191.26 699.3h.02l.01.01.01.01.03.04.02.03.02.03.01.01.02.02.07-.04.06-.03h.02l.04-.02v.02l-.01.08v.03l.03.21v.02l.01.02.01.02.02.01.01.02h.02l.02.01h.03v.01h.05l.01-.01.02-.01.04-.02.05-.03.01-.01h.07l.01.01.01.01.01.02.01.02.02.07v.02l.03.09.02.1.04.14.03.1v.05l.01.01-.14.04-.43.02-.02.01-.01.01v.03l.01.01v.01l.01.02.02.02v.01l-.01.02.01.02v.05l-.03.01-.01.02v.02l.01.04v.04l.02.02v.03l-.03.03-.05.02.07.36-.9.91v7.35l.07.1.06.1.72 1 .44.62 1.41 1.99h-8.49v-10.33l3.05-.09-.54-1.4-.11-.3-.12-.3h3.29l-.04-.04-.02-.02v-.03l-.02-.02-.01-.03v-.04l-.01-.03v-.37l.02-.05.01-.1v-.04l.01-.05.01-.04.15-.11-.02-.15.03-.02h.02l.05-.03.06-.03.13-.06.12-.07.1-.04.03-.02.02.03h-.01l.02.07.11-.06-.04-.1-.02-.03v-.02h-.01v-.02h-.01v-.05h.04l.03-.02z"/>
      <path d="m456.75 89.8.25.11.14.1.1.14.35.44.27.34.24.33.14.2.16.2.88-.44.74-.35.22-.1h.01l.43-.16.07.1.02.13-.22.96-.02.13-.03.19v.1l.39 2.46.08.25.1.24.15.2.16.18.21.16.2.11.23.1.23.06h.16l.06.02.02-.01h.06l.38-.07.24-.07.2-.1.43-.28.58-.37.2-.09.2-.04.2-.01.2.04.17.08.16.1.14.13.12.15.09.17.05.17.2.77.08.32.25 1 .3 1.11.47 1.77.33 1.21.07.31.05.28.02.16-1.65.5-5.17.23-.06.05h-.02l-.21.1-.15.12-.03.12.1.2.12.14.04.12.1.24.14.17v.16l-.06.25.12.25.1.17-.21.42-.21.15-.16.2-.06.27.17.46.06.5.13.23.02.24-.04.14-.24.27-.7.32.9 4.3L449.9 124v33.45l.01 27.15-.02 27.6.84 1.18.77 1.08 8.63 12.13 5.26 7.4 16.97 23.89-101.91-.02-.04-123.95 36.6-1.01-6.4-16.76-1.39-3.62-1.43-3.73 39.47.08-.06-.05-.4-.46-.18-.26-.16-.28-.14-.3-.12-.31-.07-.34-.03-.17-.04-.37-.02-.43v-.87l.01-1.38v-.4l.02-.19.03-.39.03-.4.05-.38.09-.58.18-1.15.08-.55.09-.6.06-.43 1.85-1.39-.28-1.77.4-.2.22-.11.51-.26.73-.36 1.56-.78 1.53-.77 1.11-.58.42-.22.04.1.15.28-.14.07-.04.02.36.7 1.3-.65.07-.04-.56-1.1-.23-.45-.1-.2-.06-.13-.07-.16-.03-.08-.03-.1v-.07l-.02-.1v-.28l.26.03.12-.01.14-.02.38-.13.12-.02.3-.01z" map-type="inset-region"/>
    </g>
    <g long-name="Copperbelt South" region="4" short-name="Copperbelt South" value="1">
      <path d="M193.3 704h.33v.04l.02.05v.03l.01.03.01.02.01.03.02.04.02.04.02.05.04.04.06.05.07.04.07.05.05.06.04.07.02.08v.06l-.02.11v.1l-.02.1v.18l.01.07.01.08v.11l-.01.07-.03.1-.03.07v.1l-.01.05v.03l.01.03.01.03.01.02.01.01v.06l.01.03v.23l.02.02v.02l.01.01v.02l.02.02v.04l.01.01v.02l.01.01v.02h.01l.01.02.04.02.02.01.03.02.03.01h.02l.02.01h.05v-.01h.07l.03.02.01.01h.02l.02.01h.01l.01.01h.13l.02.02.02.01v.01l.02.01.01.01h.02l.02.01h.12l.03-.01h.07l.03.01.02.01.01.01.02.02.02.03v.02l.03.01.02.01v.03l.02.04.01.02.01.02.01.02v.04l.01.02v.02l.02.03.02.04.02.03.01.03.02.02.01.03.02.02.02.02.02.03.02.02.02.04.02.03.01.01.01.03v.03l.01.03.02.04.01.05.02.03.01.04.01.03.01.03.02.04.02.04v.03l.02.02.02.02.01.01.03.02.03.01.02.02.03.03.03.03.03.04.04.04.02.02.02.02.02.02.02.03.03.04.01.03.02.03.01.02.02.03v.03l.01.04.01.04.01.04.01.02.01.01v.03l.01.02v.1l-.01.02v.02l.01.02.03.02.04.02.03.02h.03l.02.01h.13l.02.01.03.03.03.03.03.02.02.03.04.03.02.03.02.03.02.04.04.03.04.03.03.02.03.02.03.03.03.03.02.03.02.02v.02l.01.02v.02l.01.02.02.02.02.01.03.02.03.01h.21l.02-.02.03-.04.02-.03v-.02l.01-.02v-.13l.01-.03.01-.03.02-.03V709l.02-.02v-.03l.01-.03v-.05l.02-.06.03-.09.02-.05.03-.06.04-.06.04-.05.04-.06.04-.04.04-.02.03-.01h.04l.03.01.02.04.01.03v.01l-.01.05-.02.04-.03.05-.02.04-.02.03v.08l.03.02.02.02h.04l.03.02.03.01h.09l.04-.03.03-.03.03-.03.05-.03.05-.02h.04l.03.03.04.03.02.03.06.03.05.02h.32l.03.02v.05l-.04.59-.07 1.04v.14l-.05.72-.02.23-1.02.34-.04.01-.04.01-3.96 1.33-1.41-2-.44-.6-.72-1.02-.06-.09-.07-.1v-4.56h1.34l-.01-.73v-.2h.01z"/>
      <path d="M481.32 146.25h3.88l.09.48.15.56.06.42.09.35.08.3.11.31.24.5.27.5.28.53.47.49.69.56.83.5.79.58.7.8.45.8.2.97-.05.77-.16 1.3-.13 1.15-.09 1.25-.07 1.4.1.74.07.87.14.97v.46l-.06.76-.16.89-.3 1.26-.32.83-.14 1.1-.05.69.11.38.1.33.1.3.13.25.1.18.06.22.01.5.01.36-.01.35-.01.35-.03.23-.02.24-.03.34.01.38.01.35.08.22.1.26.1.24.06.22.1.2.11.18.08.22.07.24.1.23.06.22.05.2.07.15.06.14.02.13.15.18.44.23.26.17.28.18.36.13.33.05.26.06.26-.02.23-.08.15-.06.17-.04.16.01.17.04.22.09.34.22.18.08.24.1.19.06.17.08.14.05.16.03h.32l.29-.02.24-.01h.22l.26.06.23.1.29.2.09.08.16.15.15.1.24.06.25.04.3.02.23-.02.27-.03.42-.03.21-.04.29-.06.2-.04h.2l.27.06.24.1.28.06.22.1.18.17.2.25.23.33.13.2.26.16.2.15.12.29.18.5.15.29.1.24.1.2.05.2.05.22.03.28.08.26.21.39.23.41.01.05.17.32.18.35.16.27.2.32.17.27.23.26.23.33.23.3.3.44.21.3.16.21.1.26.08.42.07.37.16.47.19.57.2.45.19.39.12.4.14.38.19.5.18.48.14.34.18.27.19.2.16.13.32.18.34.19.32.24.33.27.35.37.4.5.45.54.2.21.23.23.3.27.27.34.29.43.19.36.2.35.12.24.17.37.14.4.1.5.07.44.1.44.19.31.09.17.07.25.03.32v.33l-.02.35-.07.48-.07.3v.24l.16.25.35.24.46.22.4.16.32.1.31.07.28.02.28-.03.24-.04.2-.02.23-.02.23.05.32.2.33.28.41.35.3.31.3.34.38.4.27.31.29.4.25.4.45.4.43.3.36.29.4.3.4.37.31.32.23.3.26.28.07.22.05.24.07.25.1.25.16.24.28.18.33.2.37.11.3.08.59.02 1.12-.02.3-.07.26-.1.24-.2.34-.49.17-.3.15-.28.05-.2v-.3l-.01-.36-.01-.38.02-.19.03-.36.1-.37.14-.3.14-.43.13-.34.1-.23.1-.35.07-.34.08-.63.18-.72.3-1.01.31-.67.34-.73.45-.75.48-.6.5-.6.5-.52.51-.33.36-.09.45.03.35.17.26.46.1.32.04.18-.2.55-.27.46-.3.6-.25.47-.22.43-.09.34.02.4.13.2.23.25.34.18.45.13.36.18.38.08.38.03.67-.06.51-.27.3-.43.41-.34.6-.39.59-.27.48.13.38.27.4.39.33.33.69.35.58.22.64.06.7.09.61-.1.62-.1h.6l.39.1.33.08.31.1-.03.67-.45 7.04-.8 12.56-.01.26v.04l-.03.36-.05.92-.55 8.68-.18 2.73-12.35 4.12-.39.12-.47.17-.06.01-47.46 15.89-16.97-23.9-5.26-7.4-8.63-12.12-.77-1.08-.84-1.18.02-27.6v-27.15h3.28l12.77-.01-.1-8.81-.02-2.37h.2z" map-type="inset-region"/>
    </g>
    <g long-name="Riverdale South" region="15" short-name="Riverdale South" value="1">
      <path d="M193.67 703.05h.01l.02.02v.01l.08.13.03.04v.01l.05.07v.01l.02.03.01.03.01.02.01.04v.04h.01v.02l.02.01.06.04h.02l.04-.02h.01l.06-.02.03-.01.03-.01.02-.01.04.05.03.01.08.06.02.02-.05.08.04.03.05.03.05-.08.04-.07.03-.04h.04l2.48-.73 1.06 2.58.7.84.02.38v.07l-.02.05-.02.03-.04.01-.13 2.02-.03-.01-.02-.01h-.3l-.05-.02-.06-.03-.02-.03-.04-.03-.03-.02-.04-.01-.05.02-.05.03-.03.03-.03.03-.04.03h-.12l-.03-.02-.04-.01-.02-.02-.02-.02-.01-.01v-.07l.02-.03.02-.04.03-.05.02-.04.01-.05v-.04l-.03-.04-.03-.01h-.07l-.04.03-.04.04-.04.06-.04.05-.04.06-.03.06-.02.05-.03.09-.01.06-.01.05v.03l-.01.03-.01.02-.01.03-.02.03v.03l-.01.03v.13l-.01.02-.01.02-.02.03-.03.04-.02.01-.02.01h-.22l-.03-.03-.02-.01-.02-.02v-.02l-.01-.02v-.02l-.01-.02-.02-.02-.02-.03-.03-.03-.03-.03-.03-.02-.03-.02-.04-.03-.04-.03-.02-.04-.02-.03-.02-.03-.04-.03-.02-.03-.03-.02-.03-.03-.03-.03-.02-.01h-.15l-.03-.01-.03-.02-.04-.02-.03-.02-.01-.02v-.08l.01-.03v-.08h-.02l-.01-.03v-.04l-.02-.04v-.04l-.01-.03-.02-.03v-.02l-.03-.03-.01-.03-.03-.04-.02-.03-.02-.02-.02-.02-.02-.02-.04-.04-.03-.04-.03-.03-.03-.03-.02-.02-.03-.01-.03-.02h-.01l-.02-.03-.01-.02-.01-.03-.02-.04-.02-.04v-.03l-.02-.03-.01-.04-.02-.03-.01-.05-.02-.04v-.03l-.01-.03v-.03l-.02-.01-.02-.03-.02-.04-.02-.02-.02-.03-.02-.02-.02-.02-.01-.03-.02-.02-.01-.03-.02-.03-.02-.04-.01-.03-.01-.02v-.04l-.01-.02v-.02l-.02-.02-.01-.02-.02-.04v-.03h-.02l-.02-.02-.01-.02-.02-.03-.02-.02-.01-.01H195l-.03-.01-.02-.01h-.13l-.02.01h-.09v-.02h-.02l-.01-.02-.02-.01-.02-.01h-.13v-.01h-.02l-.02-.01-.02-.01h-.01l-.03-.03h-.09l-.03.01h-.04l-.03-.02-.03-.02h-.02l-.04-.03v-.01l-.01-.01v-.02h-.01v-.03l-.01-.01v-.02l-.01-.02-.01-.02-.01-.02v-.01l-.01-.02-.01-.02-.01-.02v-.3l-.02-.01V706l-.02-.03v-.03l-.01-.03v-.06l.01-.09.03-.07.03-.1v-.07l.01-.07v-.12l-.01-.07-.01-.06v-.12l.01-.1.01-.1.02-.1v-.07l-.02-.08-.04-.07-.05-.06-.07-.05-.07-.04-.06-.05-.04-.04-.02-.05-.02-.04-.02-.04-.01-.03v-.02l-.01-.03v-.03l-.02-.05V704h-.01v-.29l-.01-.06-.01-.05-.02-.04-.02-.05-.03-.06-.03-.04-.02-.05-.07-.04-.02-.07.01-.04.02-.04.02-.04.02-.02.03-.03.03-.04V703l.02-.02.03.02.07.02z"/>
      <path d="m485.68 134.84.17.14.04-.04.11.12.05.1.04.05-.05.02v.02l.94 1.57.06-.04.3.48.1.18.45.77.06.1.04.07.17.3.15.33.13.36.1.45.02.22.01.08.03.15.01.02.02.01.02.01v.01h.02v.03l.02.02v.06l-.02.02.01.02.07.08.15.14.76.48.07-.09.17-.08.44-.13.15-.06.7-.2.32-.1.04-.02.1-.04.26-.09.25-.14.48.62.29.2.98.66.32.23-.64 1 .52.35.5.33.62-.9.57-.88.29-.47.03-.1.44.16 29.77-8.87 12.72 30.96 8.45 10.12.21 4.57h-.07l.06.88-.26.6-.27.37-.45.08-1.54 24.18-.31-.1-.33-.1-.38-.09h-.61l-.62.1-.62.1-.69-.1-.64-.05-.58-.22-.69-.35-.32-.33-.4-.4-.4-.26-.47-.13-.6.27-.59.39-.41.34-.3.43-.51.27-.67.06-.38-.03-.38-.08-.36-.18-.45-.13-.34-.18-.23-.26-.13-.19-.02-.4.09-.34.22-.43.25-.46.3-.6.27-.47.2-.55-.05-.18-.09-.32-.26-.46-.35-.17-.45-.03-.36.1-.5.32-.5.51-.51.6-.48.6-.45.76-.34.73-.32.67-.3 1-.17.73-.08.63-.08.34-.09.35-.1.23-.13.34-.14.44-.14.3-.1.36-.03.36-.02.2v.37l.02.37v.29l-.05.2-.15.28-.17.3-.34.5-.24.18-.27.11-.29.07-1.12.02-.6-.02-.3-.08-.36-.11-.33-.2-.28-.18-.17-.24-.1-.25-.06-.25-.05-.24-.07-.22-.26-.29-.23-.3-.3-.3-.42-.39-.39-.3-.36-.27-.43-.32-.45-.4-.25-.39-.29-.4-.27-.31-.38-.4-.3-.34-.3-.31-.41-.35-.33-.28-.32-.2-.23-.05-.23.02-.2.02-.24.04-.28.03-.28-.02-.3-.07-.34-.1-.39-.16-.46-.22-.35-.24-.16-.25v-.23l.07-.31.07-.48.02-.35v-.33l-.03-.32-.07-.25-.1-.17-.17-.3-.11-.45-.07-.44-.1-.5-.14-.4-.17-.37-.12-.24-.2-.35-.2-.36-.28-.43-.27-.34-.3-.27-.22-.23-.2-.2-.47-.55-.4-.5-.34-.37-.33-.27-.32-.24-.34-.2-.32-.17-.16-.13-.19-.2-.18-.27-.14-.34-.18-.47-.2-.5-.13-.39-.12-.4-.18-.39-.21-.45-.19-.57-.16-.47-.07-.37-.08-.42-.1-.26-.16-.2-.21-.31-.3-.44-.23-.3-.23-.33-.23-.26-.17-.27-.2-.32-.16-.27-.18-.35-.17-.32-.01-.05-.23-.41-.2-.39-.09-.26-.03-.28-.05-.22-.04-.2-.1-.2-.11-.24-.15-.3-.18-.5-.12-.28-.2-.15-.26-.16-.13-.2-.23-.33-.2-.25-.18-.17-.22-.1-.28-.06-.24-.1-.27-.07-.2.01-.2.04-.29.06-.21.04-.42.03-.27.03-.22.02-.3-.02-.26-.04-.24-.06-.15-.1-.16-.15-.09-.09-.29-.19-.23-.1-.26-.05-.22-.01h-.24l-.29.03h-.32l-.16-.03-.14-.05-.17-.08-.2-.06-.23-.1-.18-.08-.34-.22-.22-.1-.17-.03h-.16l-.17.03-.15.06-.23.08-.26.02-.26-.06-.33-.05-.36-.13-.28-.18-.26-.17-.44-.23-.15-.18-.02-.13-.06-.14-.07-.15-.05-.2-.07-.22-.09-.23-.07-.24-.08-.22-.1-.19-.1-.19-.08-.22-.09-.24-.1-.26-.08-.22v-.35l-.02-.38.03-.34.02-.24.03-.23v-.35l.02-.35v-.36l-.02-.5-.06-.22-.1-.18-.13-.25-.1-.3-.1-.33-.1-.38.04-.69.14-1.1.32-.83.3-1.26.16-.89.06-.76v-.46l-.14-.97-.08-.87-.09-.73.07-1.4.1-1.26.12-1.14.16-1.3.05-.78-.2-.97-.46-.8-.7-.8-.78-.58-.83-.5-.69-.56-.47-.49-.28-.54-.27-.48-.24-.5-.11-.32-.08-.3-.09-.35-.06-.42-.15-.56-.1-.48v-.08l-.05-.4.05-.27.09-.32v-.33l-.05-.46-.05-.34-.07-.56-.02-.7-.08-.75v-.06l-.06-.5-.27-.54-.25-.5-.37-.78-.27-.52-.33-.6-.79-.44-.2-.82.12-.43.15-.5.3-.49.2-.22.36-.41.35-.52.14-.27.14-.25.4.15.03.04.71.3.18.09z" map-type="inset-region"/>
    </g>
    <g long-name="Copperbelt North" region="3" short-name="Copperbelt North" value="1">
      <path d="M191.73 703.9v.02h.01v.01l.01.02v.01l.01.01v.01l.01.01h.25v.94h-1.33v-.85h.56l.02-.02h.02l.04-.04.02-.01.02-.01v-.07h.06l.02-.02.01-.02.03-.05.02-.05.02-.04.01-.03.02-.01.01-.01.04-.02.03.04v.01l.05.09v.02l.02.01v.03z"/>
      <path d="m462.4 145.18.06.12.06.11.02.05.03.08.07.12.05.13.04.06.02.07.04.07.03.06.03.07.03.07.03.06h2.92l.03 2.37.09 8.8-12.77.02h-3.29v-10.15l6.33-.02.29-.01h.18l.2-.2.17-.15.47-.4.16-.08.1-.04.1-.06.13-.05.06-.03-.02-.05-.02-.08-.03-.15v-.16l.02-.1.05-.32.29.04.22-.02.18-.07.22-.15.2-.25.26-.58.28-.58.25-.54.17-.32.15-.16.18-.14.5-.23.05-.05h.02l.29.6.04.09.5 1.08.12.26.1.16.03.07.08.17.05.09.04.1.06.11z" map-type="inset-region"/>
    </g>
    <g long-name="Whitehorse West" region="2" short-name="Whitehorse West" value="1">
      <path d="m191.62 703.67-.05.03h-.01l-.02.02-.01.03-.02.04-.02.05-.03.05-.01.02-.02.01h-.02l-.01.01h-.03v.07h-.02l-.01.01h-.01l-.04.04-.02.01-.02.02h-.56v-1.01h.92v.02h-.01v.02l-.01.01v.02l-.01.04v.03l-.03.12-.01.04v.15l.01.01.01.02.05.1z"/>
      <path d="M461.05 142.34h-.02l-.05.05-.5.23-.18.14-.15.16-.17.32-.25.54-.28.58-.25.58-.2.25-.23.15-.18.07-.22.02-.29-.04-.05.32-.01.1-.01.15v.01l.03.15.02.08.02.05-.06.03-.13.05-.1.06-.1.04-.16.07-.47.4-.17.15-.2.2h-.18l-.3.02-6.32.02v-12.12h11.08l-.04.05-.02.04-.06.1-.04.1-.08.18-.01.04-.02.06-.05.2-.01.03-.1.5-.06.33-.28 1.45-.1.5-.04.27v.07l-.02.18v.37l.03.23.02.12.04.23.03.12.04.12.08.23.1.22.52 1.11z" map-type="inset-region"/>
    </g>
    <g long-name="Mountainview" region="10" short-name="Mountainview" value="1">
      <path d="M191.97 701.69v.01h.02l.02-.02.01-.01.01-.01h.02l.01-.01h.03l.08.01.07.04h.23l.07.03.01.01.04.03.01.02.01.01v.02l.02.02.01.05v.03l.02.01.01.02.02.02.01.01.02.01.02.01h.01v.21l-.04.08-.05.04.04.1v.03l.02.03.03.08.03.01.06.09.05.06.02.02.1.1v.01l.04.03.06.05.04.12.02.1v.17l.02.07.02.22v.04l.02.06.01.07.02.08.05.13h-1.54v-.02l-.01-.01v-.02l-.01-.01v-.01l-.01-.01v-.01l-.01-.01-.01-.02-.01-.02-.01-.02-.01-.02-.04-.09-.03-.06-.01-.02-.05-.1v-.02l-.01-.01v-.02l-.01-.02v-.15l.03-.12v-.03l.01-.04v-.02h.01v-.02l.01-.01v-.01h.01-.92v-.94l.9-.9h.02l.03.02.02.02.03.04.02.02.13.17.04.06.02.04z"/>
      <path d="m465.24 118.56.1.12.13-.1.23-.18.17-.12.09-.06.09-.05.08-.04.08-.02.06-.03h.08l.06-.02h.19l.13.02.91.17.85.37.24.07.24.05.27.02h.27l.78-.14h.27l.26.01.27.05.2.07.77.32.22.14.38.31.16.2.13.2.1.21.09.23.17.63.02.06.09.23.12.21.16.22.19.2.18.14.02.02.18.1.22.11.19.07-.05.22.02.24.03.42-.02.39.04 1.1-.54.98-.55.59.38 1.23.1.29.15.32.42.95.3.16.1.05.6 1 .63.69.31.34 1.04 1.13.13.15.43.33.74.57.52 1.46.22 1.24.07.83.03 1.2.1.9.24 2.56.08.55.13.7.19.86.23.94.57 1.51h-18.41l-.03-.06-.03-.07-.03-.07-.03-.06-.04-.07-.02-.07-.04-.06-.05-.13-.07-.12-.03-.08-.02-.05-.06-.11-.06-.12-.04-.1-.06-.12-.04-.1-.05-.1-.08-.16-.03-.07-.1-.16-.11-.26-.5-1.08-.05-.08-.29-.61-.15-.32-.52-1.1-.1-.23-.08-.23-.04-.12-.03-.12-.04-.23-.02-.12-.03-.23v-.37l.02-.18v-.07l.05-.28.09-.49.28-1.45.07-.32.09-.5v-.04l.06-.2.02-.06v-.04l.09-.19.04-.1.06-.09.02-.04.04-.06h-5.73l-5.35.01V124l10.83-10.93.12.07.17.1.25.18.24.2.44.46.25.31 1.54 2 .04.13.41.65.01.02.27.39z" map-type="inset-region"/>
    </g>
    <g long-name="Whitehorse Centre" region="1" short-name="Whitehorse Centre" value="1">
      <path d="m193.55 703-.01.01-.01.03-.03.04-.03.03-.02.02-.02.04-.02.04v.04l.01.07.07.04.02.05.03.04.03.06.02.05.02.04v.04l.01.07v.11l.01.02v.15h-.32l-.05-.12-.02-.08-.01-.07-.02-.06v-.04l-.02-.22-.01-.07v-.17l-.03-.1-.04-.12-.06-.05-.04-.03v-.01l-.1-.1-.02-.02-.05-.06-.05-.08h-.01l-.03-.02-.03-.08-.01-.03-.01-.02-.04-.1.12-.05.05-.02.06-.02.04-.01.06-.03.1-.03.06-.03.06-.02.09-.04v.02l.02.03.02.02.01.04v.02l.02.02v.09l.01.02v.02l.02.05v.05l.02.02.02.02.01.04.01.03v.04l.01.02.01.02.02.04.03.04v.02l.02.01v.03l.01.05v.03l.01.05v.04l-.02.02z"/>
      <path d="m484.23 134.2-.14.24-.14.27-.35.52-.36.41-.2.22-.3.48-.15.5-.12.44.2.82.8.45.32.6.27.51.37.78.25.5.27.53.05.51.01.06.08.75.02.7.07.56.05.34.06.46-.01.33-.09.32-.05.27.04.4.02.08h-3.88l-.57-1.51-.23-.94-.19-.85-.13-.71-.08-.55-.24-2.56-.1-.9-.03-1.2-.07-.83-.22-1.24-.52-1.46-.74-.57-.43-.33-.13-.15-1.04-1.13-.31-.34-.62-.69-.61-1-.1-.05-.3-.16-.42-.95-.15-.32-.1-.29-.38-1.23 1.4-.51.57-.21.78-.29.43-.17.75-.28 1.14-.44.75-.3.72-.3 1.06-.38.06.19.2.33.22.29.19.4.06.26.13.33.06.5.04.52.03.28.03.2.15.61.15.54.14.28.22.28.14.43.13.44.07.36v.08l.1.21.09.22.02.07.03.04.2.38.31.56.1.15.1.17.15.32.08.58.05.4.05.58-.11.47-.12.22z" map-type="inset-region"/>
    </g>
    <g long-name="Takhini" region="17" short-name="Takhini" value="1">
      <path d="m192.47 699.7-.02.03-.02.03-.01.05v.12l.03.05.01.03.02.03.03.03.03.04.03.03.03.02.01.01.06.04.07.04.03.03.05.04.04.06.03.05.03.04.02.05v.01l.03.06.03.05v.02l.01.02v.04l-.01.04v.04l-.01.04v.09l.02.05v.17l-.01.07-.01.05-.03.06-.01.02-.02.04v.1l.03.03.03.03.03.03.04.04.04.02.04.03.03.03.04.03.02.04.01.04.01.04v.13l.02.03.01.03.01.04v.01l-.08.04-.06.02-.06.03-.1.03-.06.03-.04.01-.06.02-.05.02-.12.04.05-.04.05-.09v-.15l-.01-.03v-.01h-.01l-.02-.02h-.01l-.02-.02-.02-.02-.01-.02-.01-.01v-.02h-.01l-.01-.06-.01-.02-.01-.02-.01-.01-.01-.02-.04-.03h-.01l-.07-.03h-.02l-.02-.01h-.19l-.07-.04h-.08v-.01h-.06v.01h-.01l-.01.02-.02.01-.01.01-.01-.01-.07-.08-.02-.03-.03-.06v-.01l-.14-.17-.02-.02-.03-.04-.02-.02-.03-.01v-.01h-.02l-.07-.37.05-.02.02-.03v-.05l-.01-.04-.01-.04v-.02l.01-.02h.02l.02-.04-.01-.02-.01-.02v-.05l-.02-.02v-.02l-.02-.02.02-.02h.02l.43-.03.14-.04v-.03l-.01-.03-.03-.1-.04-.15-.02-.1-.02-.08-.01-.02-.02-.07v-.02l-.02-.02H192l-.01-.02h-.08l-.05.04-.04.02h-.02l-.01.01h-.04l.01-.02.01-.03.03-.04.03-.03.03-.02.02-.04v-.02l-.02-.04.01-.08v-.03l.02-.03h.01v-.03l.26-.01h.3l.02.02.04.07.01.06.01.05v.05l-.02.03z"/>
      <path d="m471.28 94.65-.31.35-.14.37-.16.59-.05.35-.05.35.01.34.2.49.23.51.2.39.21.4.29.31.36.48.41.37.33.26.14.11.75.43.76.5.46.4.53.44.49.7.35.58.32.57.3.6.08.15.32.66.36.66.03.14.08.33-.02.42-.01.02-.16.45-.06.47-.05.46-.01.43.1.65.12.65.11.55.04.74-.06.73-.16.81-.15.66-.33.7-.14.29-.17.38-.04.7v.06l.1.45.24.39.35.34.03.04.42.36.46.43.46.33.44.32.43.41.38.35.27.44.2.52.06.46-.06.64v.56l.12.36.18.36.13.35.14.42.07.23-1.06.39-.72.28-.75.31-1.14.44-.75.28-.43.16v.01l-.78.29-.57.2-1.4.52.55-.59.54-.99-.04-1.1.02-.38-.03-.42-.02-.24.05-.22-.2-.07-.2-.1-.19-.11-.02-.02-.18-.14-.2-.2-.15-.22-.12-.21-.1-.23-.01-.06-.17-.63-.08-.23-.11-.21-.13-.2-.16-.2-.38-.31-.22-.14-.77-.32-.2-.07-.27-.05-.26-.02-.27.01-.78.14h-.27l-.27-.02-.24-.05-.24-.07-.85-.37-.9-.17-.14-.02h-.19l-.06.01-.08.01-.06.03-.08.02-.08.04-.1.05-.08.06-.17.12-.23.18-.13.1-.1-.12-.78-1-.27-.38v-.02l-.42-.65-.04-.12-1.54-2-.25-.32-.44-.46-.24-.2-.25-.18-.17-.1-.12-.07-.9-4.31.7-.32.23-.27.04-.14-.02-.24-.13-.24-.06-.5-.17-.45.06-.26.16-.21.2-.15.21-.42-.09-.17-.12-.25.06-.25v-.16l-.14-.17-.1-.24-.04-.12-.13-.13-.1-.2.04-.13.15-.12.21-.1h.02l.06-.05 5.17-.23 1.65-.5-.02-.16-.05-.28-.07-.31-.33-1.2-.46-1.78-.3-1.1-.26-1.01-.08-.32-.2-.77-.05-.17-.1-.17-.1-.15-.15-.13-.16-.1-.18-.08-.2-.04h-.2l-.19.05-.2.1-.58.36-.43.27-.2.11-.24.07-.38.07h-.06l.17-.4.11-.3.28-.5.46-.35.28-.3.28-.45-.02-.16-.01-.05-.15-.5.08-.9.05-.4.22-.33.02-.02.1-.1.04-.28 3.02-.12 3.62-.07h.01l.23.35.45.75.2.75.06.58-.04.7-.23.29z" map-type="inset-region"/>
    </g>
    <g long-name="Riverdale North" region="14" short-name="Riverdale North" value="1">
      <path d="m197.06 702.86-2.48.74-.04-.02v.01l-.03.04-.04.07-.05.08-.05-.03-.04-.03.05-.08-.02-.02-.08-.06-.03-.01-.04-.05h-.02l-.02.02h-.04l-.06.02-.01.01-.04.01h-.01v.01l-.07-.04h-.01v-.01h-.01v-.03l-.01-.03v-.04l-.02-.02-.01-.03-.02-.03v-.01l-.04-.07-.01-.01-.03-.04-.08-.13v-.01l-.01-.01-.02-.01h-.01l-.01-.02-.06-.02-.04-.02.01-.02.01-.04v-.08l-.01-.05-.01-.03-.01-.01-.01-.02-.03-.04-.01-.03v-.01l-.02-.02v-.06l-.02-.03-.01-.04-.02-.02-.01-.02-.01-.05-.02-.05v-.08l-.01-.05-.01-.02v-.02l-.02-.04-.02-.02-.02-.03v-.03l-.02-.04-.01-.03-.01-.03-.01-.03v-.14l-.02-.04-.02-.04-.04-.03-.03-.03-.04-.03-.04-.02-.04-.04-.03-.03-.03-.03-.02-.03-.01-.04v-.06l.02-.04.01-.02.03-.06v-.05l.02-.07v-.17l-.01-.05-.01-.06v-.11l.02-.04v-.08l-.04-.05-.02-.06h-.01l-.02-.06-.03-.04-.03-.05-.04-.06-.05-.04-.03-.03-.07-.04-.06-.04h-.01l-.03-.03-.03-.03-.03-.04-.03-.03-.02-.03-.01-.03-.02-.05-.02-.04v-.05l.01-.03.01-.05.02-.03.02-.03.04-.04.02-.03v-.1l-.02-.06-.04-.07-.02-.03-.01-.02-.04-.04-.03-.05-.02-.06v-.06l.02-.05.04-.03.05-.03.05-.04.06-.04.05-.02.02-.04v-.2l-.01-.03-.01-.02-.02-.06-.02-.04-.03-.05-.05-.06-.06-.06-.02-.03-.02-.03v-.26l-.03-.1-.01-.05-.02-.07-.03-.05-.04-.05-.03-.03h-.15l-.06.01H192l-.08.03-.08.01-.06.02-.06.02-.06.01h-.1l-.08-.01h-.13v.03l-.02.06-.01.04-.03.01-.04.01-.05.01-.04.01-.07.03-.06.02-.07.02h-.18l-.04-.02-.06-.02-.05-.02-.05-.03-.04-.04-.04-.04-.04-.04-.06-.05-.06-.06-.06-.07-.06-.06-.05-.05-.02-.04-.03-.05-.03-.06-.05-.07-.03-.05-.09-.08-.06-.05-.18-.16-.04-.1-.03-.12-.04-.08-.11-.13-.04-.14-.02-.26-.02-.23v-.47l-.02-.13-.07-.1-.13-.13-.04-.16.01-.14.02-.13.05-.17h.04l2.5-.45 3.88 5.35.81 1.98z"/>
      <path d="m526.33 132.55-29.77 8.87-.44-.16-.03.1-.29.47-.57.87-.62.91-.5-.33-.52-.35.64-1-.32-.23-.98-.66-.29-.2-.48-.62-.25.14-.27.1-.09.03-.03.02h-.01l-.32.1-.7.2-.15.06-.44.13-.17.08-.07.09-.76-.48-.15-.14-.07-.08v-.04l.01-.02v-.04l-.02-.02v-.02l-.02-.01-.02-.02h-.02v-.03l-.04-.15v-.08l-.02-.22-.11-.45-.13-.36-.15-.33-.17-.3-.04-.08-.06-.09-.46-.77-.1-.18-.29-.48-.06.04-.94-1.57v-.02l.05-.02-.04-.06-.05-.09-.1-.12-.05.04-.17-.14-.13-.07-.18-.08-.71-.31-.04-.04-.4-.15.06-.09.12-.22.1-.47-.04-.58-.05-.4-.08-.58-.15-.32-.1-.17-.1-.15-.31-.56-.2-.38-.03-.04-.02-.07-.1-.22-.08-.21-.01-.08-.07-.36-.13-.44-.14-.43-.22-.28-.14-.28-.15-.54-.15-.6-.03-.2-.03-.29-.04-.53-.06-.5-.13-.32-.06-.27-.2-.4-.22-.28-.19-.33-.06-.2-.07-.22-.14-.42-.13-.35-.18-.36-.12-.36v-.56l.06-.64-.07-.46-.19-.52-.27-.44-.38-.35-.43-.4-.44-.33-.46-.33-.46-.43-.42-.36-.03-.04-.35-.34-.25-.39-.09-.45v-.06l.04-.7.17-.38.14-.28.33-.71.15-.66.16-.8.06-.74-.04-.74-.1-.55-.12-.65-.11-.65v-.43l.06-.46.06-.47.16-.45v-.02l.03-.42-.08-.33-.03-.14-.36-.66-.32-.66-.08-.15-.3-.6-.32-.57-.35-.57-.49-.71-.53-.44-.46-.4-.76-.5-.75-.43-.14-.11-.33-.26-.41-.37-.36-.48-.29-.31-.22-.4-.19-.39-.23-.51-.2-.49v-.34l.04-.35.05-.35.16-.59.14-.37.31-.35.44-.47.23-.3.04-.7-.07-.57-.19-.75-.45-.75-.23-.35-.19-.3-.39-.51-.42-.6-.17-.64.05-.77.17-.58.4-.38.61-.39.7-.47.72-.44.52-.3.24-.41.11-.47v-1.28l-.03-.38-.15-.3-.08-.29-.12-.31-.2-.67-.18-.47-.36-.64-.63-.75-.74-.7-.3-.35-.19-.4v-.48l-.03-.47.08-.93-.14-1.13-.28-1.2-.16-.71-.22-.77-.37-.66-.42-.52-.4-.41-.54-.12-.48.06-.8.13-.71.07-.2.06-.99.25-.9.16-.75.2-.74.23-.76.17-.55.07-.55-.05-.12-.02-.89-.14-.73-.06-.53.01-.26.12-.09.34-.16.67-.19.48-.37.17-.37.11-.65.1-.48.1-.83.34-.68.24-.86.21-.69.02-.76.01-.72-.07-.48-.1-.11-.04-.67-.24-.5-.28-.61-.38-.48-.43-.5-.45-.53-.45-.66-.7-.72-.72-.8-.81-.71-.67-.53-.65-.27-.44-.32-.64-.47-.68-.55-.85-.41-.57-.97-1.03-.8-.63-2.1-1.81-.52-1.23-.32-1.47-.48-.94-1.36-1.57-.46-1.72-.26-3.14-.27-2.67-.07-5.66-.17-1.61-.78-1.05-1.58-1.62-.47-2.02.15-1.6.22-1.63.52-1.97.51-.1 29.95-5.35 46.6 64.17 9.82 23.85z" map-type="inset-region"/>
    </g>
    <g long-name="Whistle Bend South" region="0" short-name="Whistle Bend South" value="1">
      <path d="m192.63 698.69.02.02v.14l-.01.04-.02.04-.05.02-.06.04-.05.04-.05.03-.04.03-.01.05v.12l.04.05.04.04.01.02-.3.01h-.25v.03l-.01.01-.02.03v.03l-.02.08.02.04v.02l-.02.04-.03.02-.03.03-.03.04v.03l-.02.03h-.04l-.02-.01-.02-.01-.01-.02-.02-.01v-.02l-.02-.02v-.02l-.04-.2v-.03l.03-.09v-.01h-.05l-.02.01-.06.03-.1-.13-.24-.37-.05-.03v-.01h-.03v-.01h-.02l-.02-.01h-.06l.05-.07.08-.13h.08v.06l.01.01v.01h.01v.01h.02l.03.02h.02l.03.02h.08l.06-.01h.12l.1-.01h.09v-.01h.08v-.05h.08v.02h.15v-.21l-.03-.8h.08l.06-.01h.09l.03.03.04.05.03.05.02.07v.06l.03.1.01.09v.16l.02.03.02.03.06.06.05.06.03.05.02.04.02.06v.02z"/>
      <path d="m473.22 82.54.15.3.02.38.02.7-.01.58-.1.47-.25.41-.52.3-.72.44-.7.47-.62.39-.4.38-.16.58-.05.77.17.63.42.6.4.53.18.29-3.63.07-3.02.12-.05.28-.1.1-.01.02-.22.33-.05.4-.08.9.15.5v.05l.03.16-.28.45-.28.3-.46.35-.28.5-.1.3-.18.4h-.08l-.16-.01-.23-.07-.22-.09-.2-.11-.22-.16-.16-.18-.14-.2-.1-.24-.09-.25-.4-2.46.01-.1.03-.2.02-.12.22-.96-.02-.14-.07-.09-.43.17-.23.09-.74.35-1.1-1.64-2.98-4.37-.02-.02-.58-.4-.1-.07-.07-.05-.15-.06-.08-.04-.22-.08-.22-.07-.19-.04-.19-.01-.16.02-.15.02.53-.83.95-1.5 1.04-.06.03.38.02.42.01.05.02.06.02.05.02.04.03.04.02.04.05.03.02.03.03.01.03.02.14.06.32.12.34.12.25.1.07.01h.19l.14-.02.6-.03.7-.04h.17l.8-.04.06-.01.38-.03 1.34-.08.17-.02.3-.02h.14l.44-.02.02-.01.27-.01.1-.01.48-.03h.09v-.13l-.04-.39h.16l.75-.05.02.26 1.87-.1v-2.45l-.42-9.5.2-.05.72-.07.8-.13.48-.06.55.12.4.41.4.52.38.66.22.77.16.72.28 1.2.14 1.12-.08.93.02.47.01.49.2.39.29.35.74.7.63.75.36.64.18.47.2.67.12.31z" map-type="inset-region"/>
    </g>
    <g long-name="Whistle Bend North" region="20" short-name="Whistle Bend North" value="1">
      <path d="m191 698.78-.3-.21-.03-.02-.05-.04-.15-.1h-.01l-.18-.13.27-.38.04.04.05.03.05.02.05.02h.01l.04.01h.18l.07-.01.06-.02.07-.03h.04l.05-.02h.04l.03-.02.01-.04.02-.06v-.02l.02-.01h.11l.07.01h.11l.06-.01.06-.02.06-.02.08-.01.08-.02.03.79v.2l-.15.01v-.02h-.07v.04h-.05l-.01.01h-.11l-.11.01h-.12v.01h-.17l-.02-.01-.03-.01h-.01v-.01h-.01v-.01h-.01v-.08h-.1z"/>
      <path d="m453.6 83.58-3.63-2.5-.36-.25-.58-.4-1.71-1.17-.2-.14-.02-.02h-.02v-.02l-2.15-1.47 3.35-4.54.48.43.6.38.5.28.68.24.1.03.49.1.72.08h.76l.7-.03.85-.21.68-.24.83-.34.48-.1.65-.1.37-.11.37-.17.2-.48.15-.67.1-.34.25-.12.53-.01.73.06.9.14.11.02.55.05.55-.07.76-.17.74-.22.76-.21.89-.16.98-.25.41 9.5.01 2.44-1.87.1-.02-.26-.75.04-.16.01.03.39.01.08v.04h-.04l-.05.01-.49.03h-.1l-.26.02h-.02l-.44.03h-.15l-.29.02-.17.02-1.34.08-.38.03h-.07l-.79.04h-.16v.01l-.71.04-.6.03-.14.01-.06.01h-.2l-.25-.1-.34-.13-.32-.12-.14-.06-.03-.02h-.03l-.02-.04-.05-.03-.02-.04-.03-.04-.02-.04-.02-.05-.02-.06v-.05l-.03-.42-.03-.38-1.04.05z" map-type="inset-region"/>
    </g>
    <g long-name="Porter Creek Centre" region="11" short-name="Porter Creek Centre" value="1">
      <path d="m191 698.78-.05.06h.06l.02.01h.02v.01h.02v.01h.01l.05.04.25.37.1.13-.08.04-.02-.02v-.01l-.03-.03-.02-.03-.03-.04-.02-.02h-.14v.05h.01v.02l.01.01.01.02.02.04.05.09h-.01l-.1.06-.04-.06.02-.01-.02-.02v-.01l-.03.02-.1.04-.12.07-.13.06-.06.03-.05.03h-.02l-.03.02.02.15-.15.11v.04l-.01.05v.05l-.02.1-.01.04v.07l-.01.03v.32l.01.02.01.03.01.02.01.03.02.02.03.04h-3.28l-.03-.07-.14-.38-.34-.88-.2-.51h2.87l.31-.16.03.02.14.08.1-.15.04.04.02.02h.01l.03.04h.01l.01.01.01.02h.01l.01.02v.01l.02.01v.01l.01.02.01.02.02.05.02-.01.04-.01.05-.02.08-.04h.02l.12-.05-.03-.07v-.01l-.01-.03-.01-.02v-.02l-.02-.03v-.01l-.02-.04v-.02l-.02-.04-.01-.02-.01-.03.12-.23.02.02.15.1.04.03.04.02z"/>
      <path d="m453.6 83.58-.53.83.15-.02.16-.02h.2l.18.05.22.07.22.08.08.04.15.06.06.05.1.08.6.39.01.02 2.97 4.37 1.1 1.64-.87.45-.16-.2-.14-.2-.24-.34-.27-.34-.34-.44-.11-.13-.14-.1-.25-.12-.06-.02h-.3l-.13.03-.38.13-.14.02h-.12l-.26-.02v.29l.01.09.01.08.03.09.03.08.07.16.05.13.11.2.23.45.56 1.1-.07.04-1.3.65-.36-.7.04-.02.14-.07-.15-.29-.04-.09-.42.22-1.11.58-1.53.77-1.56.78-.73.36-.51.26-.23.1-.4.21.3 1.77-1.86 1.39-.06.43-.1.6-.07.55-.18 1.15-.1.58-.04.39-.03.4-.03.38-.01.2-.01.39v2.68l.05.37.03.17.07.34.12.31.14.3.16.28.18.26.4.46.06.05-39.47-.08-.3-.77-1.75-4.59-4.05-10.6-2.33-6.1 34.34.01 3.76-1.91.36.23 1.64 1.04 1.27-1.82.48.43.24.23.12.1.37.35.11.11.12.12.12.13.1.13.1.14.1.14.09.14.08.15.08.14.14.29.25.57.17-.1.46-.16.6-.22 1.05-.41.2-.08 1.46-.57-.32-.86-.04-.1-.16-.37-.1-.24-.1-.26-.11-.3-.07-.18-.2-.46-.1-.27-.15-.38-.13-.34-.13-.32-.03-.08 1.56-2.65.02.01.02.02.2.14 1.7 1.17.58.4h.01l.36.24z" map-type="inset-region"/>
    </g>
    <g long-name="Porter Creek North" region="12" short-name="Porter Creek North" value="1">
      <path d="m190.02 697.26.03.05.05.07.03.06.03.05.02.04.05.05.06.06.06.07.06.06.06.05.04.04.04.04-.27.38.17.12-.13.22.02.04v.02l.02.04.01.02.02.04v.01l.01.03.01.02v.02l.02.03.03.08-.12.05h-.02l-.08.04-.05.02h-.04l-.02.02-.02-.05-.01-.02V699h-.01l-.01-.02v-.01l-.02-.01v-.01l-.02-.02-.02-.01-.03-.03v-.01l-.03-.02-.04-.04-.1.15-.14-.08-.03-.02-.31.16h-2.86v-.02l-.27-.68-.02-.37h.47l1.7-.02v-.69z"/>
      <path d="m441.81 65.44.4.57.56.85.47.68.32.64.27.44.53.65.7.67.8.81.73.73.66.7.54.44.5.45-3.36 4.54 2.15 1.47v.01l-1.56 2.65.03.08.13.32.13.34.16.38.1.27.19.46.07.17.12.31.1.26.1.24.15.36.04.11.32.86-1.46.57-.2.08-1.04.4-.6.23-.47.17-.17.1v-.01l-.25-.57-.14-.29-.08-.14-.08-.15-.1-.14-.08-.14-.1-.14-.11-.13-.12-.13-.12-.12-.11-.11-.37-.35-.12-.1-.24-.23-.48-.43-1.27 1.82-1.64-1.04-.36-.23-3.76 1.91-34.34-.01-.07-.17-3.14-8.2-.2-4.45 5.67-.09 20.35-.08-.03-8.33z" map-type="inset-region"/>
    </g>
  </g>
</svg>