<svg country="can" type="yt" date="2021" variant="blank" title="Yukon Territory 2021 Legislative Assembly" viewBox="0 0 558.06 750" auto-border-stroke-width="1" auto-border-stroke-width-limit=".1" version="1.1" candidates='[{"id": "4","defaultCount": 0,"name": "YP","margins": [{"color": "#035B9B"}, {"color": "#337DB7"}, {"color": "#669FCF"}, {"color": "#99BFE3"}]},{"id": "1","defaultCount": 0,"name": "LIB","margins": [{"color": "#EA6D6A"}, {"color": "#F58481"}, {"color": "#FD9E9B"}, {"color": "#FFBBB9"}]}, {"id": "3","defaultCount": 0,"name": "NDP","margins": [{"color": "#f4a460"}, {"color": "#f3b678"}, {"color": "#ffc794"}, {"color": "#ffdab4"}]}]' original-source='["https://map-data.service.yukon.ca/GeoYukon/Administrative_Boundaries/Yukon_Electoral_Districts_2015/"]' xmlns="http://www.w3.org/2000/svg">
  <g map-type="regions" transform="translate(-95.97) scale(.75)">
    <path region="0" short-name="Vuntut Gwitchin" long-name="Vuntut Gwitchin" value="1" d="M344.66 316.21v54.89h-86.67v53.8H128V11.15l-.03-5.8-.01-5.35 11.33 4.05 8.9 1.45 10.2.81 8.74-1.13 5.83-.65 6.3-1.45 7.45-1.14 8.1-.48 8.9.8 8.42.98 5.5 2.91 5.5 4.7 1.3 4.53-1.78 5.02-1.95 6.15.5 3.88 2.26 6.15 6.8 4.7 7.28 3.07 5.99 1.3 3.56 2.75 2.91 8.25 4.53 8.26 19.75 12.14 8.9 4.53 6.64.65 4.05.97 3.23 2.75 2.76 3.56 7.9 2.97 6.18-.22 5.66-.32 3.56 1.45 1.14 2.15.5 1.1.43.88v139.16l.18.39.93.75.32.4-.01.67-.26.9-.35 2.34.58.61 1.9.55.66.1.5.2.23.24.37.18.95.34.34-.08.58-.31.9.2.71.97.43.26.7.64.2.5.48 2.06.66.89.45 1 .07.4-.21 1.43.65 3.15.27.83-.12.78-.2.5.04.13.63.63.18.55-.29 1.08-.48.6-.1.64.14.81.1 1.07.27.9-.12.77-.4.87-.28 1.01-.31 2.13-.45 1.25-.06.38.4.4 1.2.37.13.8.16.3.76.57.96 1.07.09.27-.2.5-.56.18-.44.32-.04.27-.04.25.83 1.44.25.95.49 1.13 1.14 2 .03 1.06-1.33 2.75-.3 2.05-.1 1.42.07.86-.44 1.24-1.15 1.53-.6 2.26-1.2.6-.66.94-.38.86.21.41.19.36.29.7.47.33.44.52.13.41-.06 1.3-.63 1.6-.53.95v.91l.21 1.14.42 1.1-.2 3.09.68.62.9.91.67 3.28.17 1.76v.04z"/>
    <path region="1" short-name="Kluane" long-name="Kluane" value="1" d="M366.32 934.52V999.95H352.55l-1.39.01-7.14-.07-2.8-.02h-1.24l-2.71-.01h-9.73l-1.38.01h-.88l-.7.01h-.98l-1.03.01h-.84l-1.19.01h-.94l-.8.01h-1.17l-8.19.01H304.91l-.52-.01h-.99l-.6-.01-.8-.01-1.39-.01h-.97l-7.43-.07H260.4l-2.4-.01-7.23-.04-10.6-.01-8.8.02-6.93.03-7.5.06h-.53l-.68.01h-.74l-.2.01H213.86l-.24.01H212.95l-.24.01h-.23l-.14-.04-.12-.14-2.6-3-.6-.74-3.04-3.78 5.54-20-.15-2.83-14.37.76-12.38.65-12.46 13.37-20.61-10.78-2.72 7.64-20.84-7.02V750.96l65-.76 65 .76V844.03l62.9-.02 2.1.02v67.84H359.1V921.52l-.05.06-.06.06-.05.05-.05.02-.06.02h-.06l-.07-.02-.05-.04-.05-.04-.03-.06-.02-.08-.06-.19-.05-.06-.06-.06-.04-.02-.08-.01h-.1l-.08.04-.07.07-.02.1v.21l-.02.09-.05.06-.06.04-.08.03h-.08l-.1-.03-.12-.03h-.1l-.1.04-.08.05-.09.08-.07.08-.07.06-.12.04h-.22l-.13.04-.12.05-.1.09-.07.09-.02.07v.08l-.02.08-.02.06-.08.07-.11.05-.14.07-.08.03h-.07l-.09-.04-.12-.04-.15-.04-.16-.02h-.05l-.1.04-.04.03-.06.05-.06.08-.03.07.04.07.06.03.1.04.12.07.06.06.02.08v.08l-.02.08v.04l.04.05.08.06.1.04.03.05-.01.09-.03.1v.11l.02.1.1.08.1.1.01.07v.08l-.04.1-.06.06-.08.04-.08.05-.06.07-.03.08.02.06.06.06h.08l.11-.02.1-.02h.1l.07.05.03.07v.04l-.01.05-.08.05-.1.04-.1.05-.05.06-.03.04-.02.09.01.07.05.05.08.02h.08l.08-.03.1-.05.08-.07.1-.03.1-.01.12.02.1.04.05.04.02.04v.06l-.06.05-.1.06-.1.02h-.14l-.1.02-.09.06-.12.11-.09.13-.07.1-.08.05-.06.01-.06.09-.04.04-.02.07v.09l-.03.04-.07.04-.1.04-.07.02-.06-.02-.04-.04-.02-.04-.01-.06v-.08l-.01-.12-.02-.08-.03-.04-.02-.04-.06-.01h-.06l-.04.03-.03.02v.14l-.01.04-.04.02h-.05l-.03-.02-.02-.06-.01-.06-.05-.08-.04-.05-.04-.02h-.18l-.1-.05-.04-.02-.09-.06-.07-.12-.13-.1-.07-.04h-.07l-.05.02-.07.02-.04.04v.06l.03.08.03.05.11.1.1.06h.14l.08.02h.02l.07.07.04.09-.02.08-.07.05-.07.02h-.08l-.12-.02H353.6l-.1-.03-.05-.01-.1-.04-.1-.04-.08.02-.06.04-.03.07-.04.1-.07.04-.05.02.01.02.04.04v.05l.06.04.01.01.03.03.01.02.04-.01h.02l.02.02v.02l-.01.01.02.04.01.07.05.01.02.01h.05l.05.05v.01l-.09.1-.02.05v.05l-.01.08-.01.02-.02.04v.02l.05.06.02.04v.03l-.01.02-.03.01.03.04.01.05h.04l.05.01.02.04.01.05v.03l-.06.08-.06.06h-.02v.1l.04.07H353.42l.04.03v.01l.01.01.01.02.03.01h.03l.02-.04v-.01l.02-.02.02-.02h.07l.02.04v.02l-.04.1v.03l.01.02.02.02h.08l.04.05.02.01.03.01h.01l.03-.02.06-.05.04-.03h.03l.02.03v.01l-.01.02-.06.04v.04l.04.01.13.02.02.01.03.04v.02l-.01.05v.03l.01.03h.02l.06-.01.08.01.04-.01V928.58l.02-.05.03-.02h.05l.04.07h.07v-.06l.03-.01h.04l.06.02.07-.02h.03l.01.01.02.03.03.07.03.02.07.05.03.04.03.04.03.02.03-.01.02-.03.03-.01h.05l.07.01.04.01h.06l.03.03v.02l.01.07.02.01v.02l.03.01h.08l.04-.05h.06l.05.01.1.05v.18l.05.06.02.03.02.04v.06l.03.03.01.03.03.03v.05l.02.02h.02l.04-.02.04-.03.02-.03.02-.01h.05l.02.01.03-.02h.06l.03.04.02.04.01.02.04.06.03.02.05.05.04.02.05.02.03.02h.02l.04.05.04.1.04.03.02.03v.02l-.04.04v.01l.02.04.03.02.02.01-.05.06-.02.04.01.01.02.02h.1l.02.02.02.02.01.05-.03.03V930.31h.02l.04-.03h.01l.02.04-.02.07v.04l.03.04.03.02.04-.02v-.03h.03l.09.01h.04l.02-.02h.04l.02.02v.05l.03.02.04-.01v-.02l.02-.04.03-.02h.01l.02.02v.02l.02.02h.05l.02.02.03.05v.02l.01.02h.05v.03l-.02.04v.01h.01l.05-.01.01-.04h.03v.01l.03.1-.01.02v.03l.03.02h.03l.09-.04v-.04h.02l.04.03.02.01v.04l.03.02.12.02h.01l.07.03.02.02v.01l-.02.04h-.07v.03h.13l.04.01.01.02-.02.01.02.04-.02.02v.02h.02l.02-.02h.02l.01.01v.05l.02.01.02-.04h.03v.04h.01l.04.01.02.01-.03.01v.02l.02.02.04.02h.02l.01-.03v-.11h.03v.01l.01.04h.03l.03.01h.06v-.01l.01-.04.02-.01.06.04v.01l-.03.02v.1l.02.01h.01l.03-.03.08.02v.02l-.01.03v.03l.01.02.03.02.07.01.03.04v.02l.02.05.05.05v.09l.02.01h.03l.05-.05h.02v.02l-.03.03v.09l.03.03h.02l.09.04.05.03.01.01v.06l.01.03.03.03.03.02h.06l.04-.03h.03v.02l.03.06.03.03h.02l.08-.03h.01l.05.05-.02.02h-.02l-.02.03v.02l.02.03h.02V932.13h.02l.04.02.03.02v.02h-.04v.02l.02.03.06.02.05.04.07.03h.17l-.01.03-.02.02.04.04h.05l.02-.03.01-.03.05-.05h.02l.06.04.02.01h.02l.04-.02h.02v.03l-.02.02v.05h.01l.02-.02h.02l.01.01v.01l-.01.02-.03.02v.01h.05l.02-.01.02-.01h.02l.01-.02h.02l.01.03h.01l.01-.02v-.04h.05l.03-.02h.03v.08l-.01.02v.02h.06l.01.01v.01l-.02.03v.02l.02.01h.03l.01.04.02.01.01-.04h.02l.02.02.01.03h.06l.08-.01h.02v.08l-.03.02-.01.04.01.02.03.01v-.04l.01-.02.02.01.01.03.03.02.03-.02.04-.04v-.04l.03-.02h.04l.03.03v.01h-.05l-.02.02v.02l.01.03h.03l.03-.04.01-.01h.02l.01.02v.01l-.02.03v.01l.02.01h.04v-.06h.03l.03-.02.07-.03.02.01.02.04h-.01l-.03-.01v.04h-.02l-.05-.01h-.01v.03l.01.03h.02l.02.02-.01.01v.04l.01.02h.02v-.04h.03l.01.02.01.01v.02h-.02v.02l.03.02.01.01h.01l.01-.03h.01l.02.03v.03h.04l.02.01v.07l.01.02.08.01.01.01v.03l-.04.03h-.03v.16l-.04.03-.01.02v.03l.02.04.02.03.02.03v.02h-.03v.01l.04.04v.05h.04l.04-.03h.03l.03-.01h.01l.01.02.01.02h.02l.02-.03.04-.03v-.03l.03.02v.04l.03.02.01.02.01.07h.03l.01-.01.01-.03h.05l.02.03.02.02.02.01.01.01.04.07.06.03h.05l.04-.02h.02v.02h.01v.01l-.02.03.02.02h.06l.02-.01v-.03h.03l.03.02v.02l.01.04.04.02.04.05.03.01v-.02l-.02-.04v-.01l.01-.02h.04v.04l.03.01h.01l.03-.03h.01v.01l.01.03v.03l.03.01h.01v-.06h.02l.03.03h.03l.01-.01v-.06l.03-.01h.07l.05.02h.02l.04-.04h.02l.01.01v.02l-.01.03-.04.02v.01h.01v.01h.03l.02.01.02.03.04.01.02.01.02.01h.02v-.08l.02-.02v-.02l.03.01h.07v-.03h.02v.01l-.01.02v.02l.01.02h.02l.02-.02.02-.02.03.01h.02V934h.04v.02l.01.01h.02l.01-.02.03.03.01.01h.01l.01-.03-.03-.05.01-.04.03-.01.14.07h.04l.03-.03v-.15l.05-.02.05.02.02.03h.01l.03.02h.04l.01.01v.02l-.01.02v.03h.03l.02-.01v-.03l-.01-.02h.01l.04.04.04.01.02.02.02.02v.03l.03.04.02.02h-.01l-.01.02v.01l.02.02h.02l.02-.02.03-.06V934l.02-.01h.03l.02.03h.04l.05-.01h.06l.02.02.04.04.03.01h.03l.01-.01v-.04l.03-.01h.04l.01.01v.04l-.01.01v.02h.04v-.06h.06l.02.02v.06h-.04v.04l.02.02h.11l.03.01h.03l.04.03h.02v-.04l-.02-.04v-.01l.01-.01.03.02.02.05.02.01.01.01h.07l.01.01-.02.04v.02h.09l.04.02.02-.02v-.02l-.01-.02h-.04l.01-.03h.04l.03.02.03.02v.02l.02.03v.1l.02.01.02.01.02.01.02.05.03.03.03.02h.02l.03-.01h.04l.03-.03.04-.02h.03l.03.01.02.01.1.05h.03l.03-.03.01-.04v-.05l-.01-.05-.03-.02-.05-.03-.01-.02-.03-.05v-.11h.01l.02-.02.01-.02.05-.02v-.01l-.02-.02v-.02h.02v-.1l.02-.02h.08l.04.01.08.11z"/>
    <path region="2" short-name="Klondike" long-name="Klondike" value="1" d="M344.66 371.1V424.9h-43.34v205.17h-25.27v120.89h-18.06l-65-.76-65 .76V424.9h130v-53.8z"/>
    <path region="3" short-name="Mayo-Tatchun" long-name="Mayo-Tatchun" value="1" d="M610.37 679.06H518v48.14L436.74 726l-81.25 1.19v116.83h-32.5l-2.1-.02-62.9.02V750.96h18.06V630.07h25.27V424.9h43.34V316.22H439.42l-.44.38-.98.34-1.3.73h-1.43l-2.81-.27-1.14-.01h-.29l-1.07.19-.87.49-.92.74-.88.87-.33 1.11.21.95.39.4 1.27.5 1.09 1.1 1.13 1.58.27.15.08.04 3.57.67.59.3.9.7.41.92-.14.75.09.92.26.31.92.63.47.93-.13.36.25.7.56 1.14.23.88 1.54.68.88.82.43.47.06 1.04-.31 2.66-.2 1-.34.83-.54.8-.76.63-1.28 1.3-.19 1 .26.3.45.35.36.52 1.2.8.56.75.56.43.38.72.35.84.1.85-.71 1.02-.62.53-.34.45-.08.43.22.17 1.3.57.97.64.65.63.31.38.38.72v.64l-.11.94.28.89.43.72.79.6 1.4.66.61.18.8.15 1 1.48.27.56-.17.87-.12.11-.27.26-1.14.61-2.43 1-.7.64-.22.53-.07 1 .18.74.83 2.33 1.5 2.14.65.58.4 1.6-.12.62-.33.38-.44.3-.83.34-1.1-.2-1.04-.59-.83-.29-.69.26-.53.47-.64.64-.17.92-.16 1.5v3.36l-.59 1.74-1.3 2.16-.55.27-.33 1.72.09.9.37.7.93.43.83.29 1.12.09.8-.23.98-.45 1.16-.15.8.09.86.16 1.02.32.62.38.55.42.77.91.64.95.2.92.05.7-.36 3.72-.2 2.18.39 1.53.39.58.17.73-.1 1.87-.33.7-.77 1.35-.66.82-1.25.64-1.13.66-.63.64-1 2.63-.3 2.9.42.7.6.12 1.26-.01 1.33.26.22.8-.02 1.37-.87 1.96-.08 1.05-.01 3.63.3 1.05.22.42.56.36.74.4h.68l1.87-.64.95-.06.5.29.42.45 1.05 1.02.02.04.24.51.44.34.6-.26 1.05-.23.88-.64.79-.85.1-.54.27-.7-.06-1.63.44-.3.72.15 1.06.02.54.1.48-.52 1.13-1.6.79-.21 2.43-1.2 1.23-.51.31-.32 1.34-1.05.58.25 1.59.5.85.12 1.56.37 1.01-.04.41-.17.71-.42.9.19.8.72.7.9-.26.64-.02.69-.17.84-.3.88-.25 1.2-.44.91-1.1 1.15-.47 1.03-.5.65-.27.7.02.5.49.98.92.37 1.02.21 2.04-.2.72-.48 1.57-.05 1.17-.51.74-3.6-.01-1.14 1.19-1.5 1.5-.57.41-.23.66-.74.52-1.27.5-.65.73-.48.6-.5.71-.35.68-.24 1.04-.16.72-.16 1.48 1 .76 1.48.04.4.5 1.23.86 1.25.26.55.37.02.56-.88.93-.81.67-.24.41.15.6.13.63-.3 1.18.06.53-.14h.57l.18.04.33.2v.25l-.24.57-.4.67-.1.48.63.9.4.45.03.45-.1.42-.18.27-1.86-.08-1.43 1.45-.68.85-.24.52-.67.23-1.48.18-1.68 1.15-.08.36-.36.24-.58.69-.28.7-.5.94-.5 1.15-.28 1.32-.08.98.11.65.3.37.49.35 2.41 1.26.58.5.58 1.06.55.68 2.38 1.38.99.9.44.84.66 1 .7 1.34 1.08 1.36.4 1.02.6.93.6.7-.1.47-.13.34-.19.18-.13.13-.26.62.16.4v.01l-.05.24 1.41 1.01 1.06.76.41.4.27.5.03.44.35 2.42.09.18.58.4.37 1.14.95 1.32-.07 1.05-.01.17-.3.8-.53.76-.9 1.84-.7.4-.58.13-.68.84-.41.78-.2.94-.69 1.46-.4 1.58-.53.75-.16.28-.24.43.1.7-.1.47.1.64-.02.12-.29.49-.2.94.01.8.08.51.14.46-.23.5-.52.14-.5.02-.48.26-.22.45-.2.94-.7.46-.7.34-.52.75-.81.93-1.09.45-.6.54-.47.52-.57.37-.9.18-.28.8-.25 1.16-.4 1.02-.41 1.38-.36.54.23.66v1.1l.12.64-.42 1.68-.42.28-1 .1-.42-.03-1.11.07-.63.11-.5.32-.16.21-.23.81-.24.26-.35.53-.77.76-.1.22-.06.23.02.19.16.7-.07.35-.53.5-.2.08-.43.03-1.2-.37-.48-.04-.27.13-.56.37-.02.36.15.16 1.02.09.16.09.32.5.49.58.52.42.23.65.04.38-.15.15-.86.06-.14.1-.61-.01-.82.44-.9.24.23.35.01.24.82.72.4.45.25.54.32.49 1.22.25.44.22.44-.04.5-.68.15-.7.23-.25.7.14.84.06.65-.23.7-.46.98-1.44.28-.18.19-.03.4.09.55.3.47.95.29.36.3.25.44.52.17.95-.24.55-.3.55-.08.95-.28.5-.7.7-.59.78-.1.52.44 1.31.32.25.26.48-.03.12.2.77.32.24.75.47h.54l.9-.24.75.16 1.74.07.85.3.46-.2.57-.37.4-.16.55.24.31.8.85.85-.05.23-.3.54-.07.35.2 1.07-.18.81-.3.84-2.08 1.25-.59.48-.2.38-.2.63-.36.58v1.1l-.2.43v.54l-.3.3-.46.15-.55.06-.51.13-.82.43-.25.07-.51.98-.23.8-.04.31-.05.39.18.58.28.66 1.03.82.04 1.22.8.53-.03.41-.6 1.08-.15 1.3-.2.43-2.3.9-.34.17-1.2 2.02-1.34.68-.51.14-.57 1.02.74 1.3.87.71.95.62.17.04-.1.46-.2.43-.04.72.23.89.41.32.14.21.34.07.59-.23.27-.72.21-.44.55-.3.36-.04 1.4-.13 1.1.77.76.35.56-.06.94-.52.6-.23 1.17.37.08.2.6.84 1.87 1.85.96.26.6.25 1.53 1.23.23.35.1.62.13.27.5.46.25.18.69.69.3.54.62.2 1.14.49h.54l1.15-.35.43-.03.17.04 1.13.55.35.31.28.36.16 1.18.75 2.01.14 1 .18.25.9 2.72-.02 1.38 1.02 1.15 1.72 1.62.23 1.78 2.43.7.48.81-.72.92.3.7 4.16-1.2 2.68 1.87-.54 1.03.55 2.62-1.85 1.3-.97 1.88-1.9 1.02-1.52 2.14.09 2.56-1.4 1.21.2.6.18.53 1.6.42 1.54-.63 2.15.15.95-.51 1.92.5 1.23 1.56 1.2-.1 1.57-1.84 1.66-.05.62-1.34 2.73.04.44-3.73 1.16-1.75.7-.3 1.25.95 2.62-.53 1.86.22 2.05 2.61 3.17.72.96 2.53.25.32 1.78 2.3-.78.6-.64.59 3.08 2.55-.32.66-1.5 1.51-.35 2.78 1.16-.23.6 1.53.38-.37-.14-.73 2.62 1.88 1.35 3.3.41 1.01-1.1 1.27.52 1.1 2.05-1.01 1.78 2.2-2.65 2.47-1.7.49-.66 1.93 1.29.49-.46 1.43 1.29.5 1.2.06.15 1.46.74.75v2.24l-.32 1.4.51.35 1.2.06 1.33-.85 3.55.64-.12.92-1.12 1.11-.43.83-.33 1.47.04.43.22.54.5.68.52.9.33.47 1.03.53.24.2.64.78.38.28.26.07.4.03 1.2-.06.75.28.24.2 1.62 1.71.54.43.22.1h.1l.33-.11.7-.54.38-.13.27-.02.3.03.32.2.73 1.09.79.37.86.6.48.47.3.36.5.48.27.36.4.7.94 1.78.42.54.66.54.26.3.28.83.12.47.06.5.15.4.14.18.28.22.3.12.5-.22.24-.39.5-.39.4-.15.5-.11.92-.36.36-.18.25-.22.36-.66-.06-.67-.08-.32.02-.3.15-.52.3-.28.24-.04.2.04.35.14.68.46.34.36.3.14.29.04.32-.08.47-.26.29-.1.3-.03.06.03.35.02.4.41.22.43.02.38-.07.4-.25.4-.21.46-.27 1.42.04.61.13.46.15.48.44.76.35.2.45.48.15.32.12 1.21v.47l-.07.27-.14.5-.33.84-.27.33-.04.03-.32.23-.5.15-1.07-.06-1.48-.37-.49.19-.1.33-.08 1.12.08.43-.03.45-.14.45-.1.15-.17.11-1.46.23-1.1.05-1.28.16-.43.17-.25.22-.17.33-.03.43.16 1.1.27.66.35.5.52.95.79 1.02.3.28.62.3.85.03.37-.04.79-.51 1.35-1.57.36-.42 1.36-.84.62-.26.44-.1 1.35.26.1.22.05.29-.03.36-.15.32-.24.33-1.1 1.1-.06.14-.07.43.04.32.73 1.13.16.38.17.55 1.03 2.24.4.25.54.07.39-.12 1.22-.5.36-.08.46-.03.18.13.13.48.06.76-.12 1.35v.9l.1.35.19.25.61.29.8.26 1.3.6.36.29 1 2.1-.06.76.09.43.6.44.34.46.01.02.02.05.15.46.07.64.05.07.02.01.04.03.03.06v.03l.01.04v.03z"/>
    <path region="4" short-name="Pelly-Nisutlin" long-name="Pelly-Nisutlin" value="1" d="M539.65 999.73h-.53l-1.42-.01h-.86l-.23-.01h-1.5l-24.53.13-1.52.01-2.6.02-2.42.02-1.4.01h-.46l-1.27.01-2.03.02h-1.2l-1.24-.02h-1.2l-1.63-.02h-1.24l-1.44-.01-1.38-.01-1.26-.01-1.55-.01-1.3-.01-1.31-.01-1-.01h-.25l-24.77-.02H451.97l-6.6.03h-1.74l-1.35.01H442.16V844.03l-55.77-.31-30.9.31V727.2l81.25-1.19 81.24 1.19v-48.14h92.39v.02l.06.03h.02l.01.01.04.02.04.03.08.04.05.03.07.05.05.05.05.07.03.08.03.06.03.05.02.04.04.06.03.08.02.03.03.05.01.06.02.03.02.04v.09l-.02.03-.02.04.24.4.14.42.31.57.27.36.95.83.14.2.19.5-.04.18-.09.12-.18.13-.25.05h-.05l-.68-.4-.65-.5-.57-.32-1.02-.4-.41-.07h-.3l-.38.11-.18.29-.3.77-.1 1.04-.12.7-.57.68-.14.28-.03.38.25.53.38.57 1.03 1.89.26.7.04.65-.07.36-.18.21-.53.36-.48.11-.45.17-.17.18-.32.87-.39.33-.42.1-.95.1-.35.08-.52.22-.12.07-.34.2-.35.28-.25.3h-.44l-.79-.12-.23.07-.23.15-.32.55-.11.7-.33.78-.23.2-.52.2-.96-.02-.39.03-.37.17-.25.18-.31.79.03.74-.07.47.16 1.43-.04.41-.06.25-.2.41-.17.25-.34.22-.38.43-.03.34.07.14.14.07.32.07h.68l2.17-.72.76-.19.41-.02.5.05.44.14.29.17.67.82.03.03.3.62.2.65.21 1.23.14.38.2.22.15.3.22 1.04-.04.53.04.87v.09l.15.2.14.06.4-.03.24-.33.45-.73.32-.16.25-.21.6-.73h.15l.32.1.22.12.5 1.06.64.26.3.2.1.17.01.18-.1.32-.1.6.1.32.21.25.45 1.02.11.43v.93l.14.75.12.3.36.4.69.5.21.27.04.16-.04.43-.3.76-.32 1.27.04.25.32.07 1.43.13.65.14.26.14.18.28.07.36.23.45.36.07h.39l.6-.09 2.08.06.61-.16 1.11-.46.23-.2.64-.28.32.04.28.12.26.46.25 1.51.45 1.1.07.35-.04.32-.1.35-.32.46-1.1.92-.4.53-.38.42-.38.76-.25.95-.08.64.09.9.16.91v.23l-.1.18-.24.22-.6.46-.29.32-.05.16-.1.81-.29.79-.1.28-1.27 1.55-.02.43.21.45.09.13.43.68.31.35.36.49.03.24.07.16-.28.37h-.31l-.53-.1-1.09-.47-.5-.03-.18.07-.1.2-.11.41-.07.72v.5l.11.55.21.32.7 1.64.35.46.45.38.69.49.24.12.23.2.35.1.21.31.14.31.07 1.16.15.24.35.28.35.35.17.46.11.73.14.38.46.8.47.64.21.17.17.24.11.25v.26l-.4.28-.52.23-.04.24.74.93.2.35.52 2.07.71 1.27.3.07.77-.14.38.09.24.1.2.23.22.96.14.38.84.25.31.12.12.12.27.4.03.6-.12.17-.21.19-.8.6.07.3.2.35.93.66.66.58.26.5.04.25-.17.82-.06.3-.1.35-.56.65-.28.26-.81.36-.3.21-.2.21-.25.35-.17.66v.42l.07.31.2.52.39.28.28.14.48-.04.8-.5.45-.49.18-.28.3-.68.06-.1.07-.1.28-.25.27-.07.87.04.61.22.49.32 1.04 1.15.41.59.43.74.78 1.19.23.27.9.7.74.42 1.58.52.84.16.56.21.69.78.58.84.35.34.53.27.2.19.28.7.36 1.31v.2l-.14.2-.6.46-.7.33-.35.24-.32.07-1.35-.1-.28.04-.55.2-.26.21-.13.62.07.63.43.47-.07.15-1.16.93-.22.36-.1.56.04.26.16.22.17.76.2.42.3.36.43.24.72.18.7.24 1.16.8.05.14-.17.14-.83.1-.2.1-.15.27-.26.73-1.17 1.17-.16.27-.31.8-.3.55-.1.4-.04.78.2.42.46.6.22.7v.21l-.1.42-.15.41-.22.4-.1.55-.03.5.2.48.33.34.33.47.3.3.25.35.5 1.98.21.27.24.18.74.3 1.56.15.08.12-.1.38-.6.87-.28.48-.36.45-.76.8-.76.72-.41.32-.55.58-.14.64.07.68.13.31.24.07.3.02 1-.19.36.1.43.22.66 1.03.44.87.31.38.2.4.5.5.5.22.83.22.63.08h.53l1.13-.2.43-.34.3-.32.29-.58.34-.2h.22l.73.43.41-.04.35-.16.57-.82.4-.29.3.12.48.45.4.8.71 1.04.42.35.18.01.42-.06.57-.2.46-.07h.45l.37.11.53.28.4.59.25.68.2 1.36.41 1.15.24.2.68.1.46.14.32.17.13.1.46.32.7.21h.41l.17-.1.14-.3.28-2 .12-.48.35-.64 1.43-2.18.78-1.29.38-.18.98.1.42.17.78.47.4.11.7-.4.47-.18.61-.03.48.11.3.14.82.56.57.52.37.4.25.47.1.41.26.48.22.6.33.76.5.52.5.66.5.42.63.59.34.48.47.52.41.59 1.08 1.06.39.2.23.22.06.27-.03.27-.33 1.24-.04.48.13.27.38.54.35.34.5.29 1.17.75.52 1.15.25.33 1.48 1.13.23.41.78 1.77.58 1.9.1.53.17 1.5.05 1 .32 1.68.15.39.1.26.17.21.3.07.32-.16 1.25-.84.5-.26.4-.13.38-.06h.36l.18.01.85-.05.46.06.5.28.68.76.5.74.39 1.23.2.45.54.8.19.4.53 1.83.68 1.57.12.97.04.3-.07.3-3.39.01-2.98.01-.03-.01-15.13.01H561.32v126.81h-21.67z"/>
    <path region="5" short-name="Watson Lake" long-name="Watson Lake" value="1" d="M539.65 999.73v-28.89h21.67V844.03h108.33l15.13-.01.03.01h2.98l3.39-.01-.08.33-.09 1.62v.05l.24.49h-.22v.04l.29 1.42.56.74.29.52.3.38 1.2.9.34.14.55.14.4.14.28.17.59.93.87 1.62.5.72 1.92 2.2.46.39.5.52.9.46.2.06.64.2.62.25.47.03 1.05.23.36.24.36.48.15.48.21 1.01.3.85.09.4.17.35.23.24.81.56 1.04.43.35.2.84.1.28.17.5 1.04.26.37.33.25 1.08.55.4.14.97.03.3-.16.5-.05.55-.25.52-.1.44.05 1.06.33.45.08.46.02.55-.05.27-.18.84-.34.15-.03.83-.14h1.27l.59.1.66.18 1 .37.48.39.22.5.3.55.15.45.23.37.44.9.25.32.55.07.6.02.45-.12.32-.2.32-.01.4.08.23.14.2.88.3 1.68.13 1.38.1.58.03.92-.05 1.27.06.44.21.42.43.35.6.19.9.52.4.48.36.55.15.34.02.33-.08.34-.18.39-.11.36-.06.65.1.59.04.54.37.84.17.9.36 1.01.36 2.48.07 1.87.39 1.08.6 1.29.22.34.1.47.04.7-.15 1.27-.12.56-.47.62-.52.58-.5.68-.19.36.08.3.47.7.41.4.17.4.13.58-.4 1.45-.18.32-.24.33-.45.28-.73.24-1 .42-.37.26-.27.25-.15.3-.17.64-.02.46.09.47.29.24.15.33.36.48.22.47.17.82.15.24.23.17.26.04.23-.13.51-.3.5-.78 1.04-.99.56-.34.74-.2.76.02.39.08.65.43.26.36.05.4-.08.42-.3 1.05-.17.94.05.46.38 1.14.43.91.66 1.61.63 2.55.02 1.16-.05.43-.16.73-.18.4.03.85.17.8.18 1.42-.06.6-.63 1.09-.08.36-.02.46.24.4.55.38.87.37.29.24.11.4-.09.65-.35.65-.34 1-.1.92.04.66.1.63.34.77 1.37 1.1.4.44.3.15.38.08.43-.12.25-.35.08-.45.11-.26.28-.42 1.63-.59.46-.05.45.25.56.68.74.53.43.47.21.57.27.5.48.42.29.08.47-.25.28-.5.49-.64.81-1.35.68-.56 1-.94.91-.72.34-.31.85-.59.24-.25.33-.05.4.08.84.93.5.38.49.29.61.16.86.56.73.6.52.08.42.15.58.3.52.15.91.04 2.06-.53.4-.17 1.51-.72.62-.56.86-1.47.11-.92-.16-.73-.22-.73-.24-.6-.28-.28-.02-.3.25-.32.93-.22.8-.09.85-.02 1.5-.32.9-.09.5-.14.22.11.18.34-.16.39-.16.58-.35.45-.03.59.03.66.17.53.75.86.61.2.56-.07.56.03.45.22.76.56.35.19.43-.01.46-.08.25-.31-.06-.73.28-.97.19-1.08.07-.82.31-.84.46-.63.76-.55.8-.95 2.22-1.4.53.03.64.3.62.7.84.8.23.6.94.42 1.38 1.16.62.7.43.55.71.7.48.29.85.11.53-.16.95.05.13.02.66.1.48.12.73-.02 1.37-.39 1.3.35 2.12 1.24.76.5.9.46.66.4.63.3.9.32.59.13 1.56.23.66.01 1.26-.18.4-.17.65-.4.32-.4.98-1.45.28-.31 1.32-1.07.49-.86.23-.5.25-.39.28-.21.44-.24h.92l1.03-.13 1.65-.02.89.02.7-.08 1.08-.5 1-.25.6.1 1.14.05 1.74.51 1.15.11.89.03.53-.1.34-.17.16-.38.12-.72v-.92l-.56-2.91.06-.46.22-.71.4-.5 1.17-2.04.19-.41.32-1.2.31-.28h.37l.14.11.2.17 1.07 1.23.7.38 1.5.18.5-.06.65.18.64.27.66.05.47-.1.29-.27.55-.86.13-.32.17-.08.4.02.41.13.44.37.77 1.61.7 3.12.24 1.54.32 1.54.2 1.34.14.64.04.43-.04.55.08.67.16.4.17.88.14.34.36.45.5.3.6.28.37.46.11.63-.07.55-.96 1.45-.38.66-1.13.97-.7.73-.83.43-.7.54-.23.51-.1.45-.42.37-.43.56-.32.73.02.69.2.8.86 2.16 1.66 2.71.84.59.79.84 1.03 1.46 1.03 1.97.59.9.16.4.78.91.53.8.51 1.34.09 1.05-.2 1.22-.06.82.04 1.66.37.23.53-.16 2-.17 1.08-.05 1.66.07 1.07.08.86.2.87.5.43.29.17.34.16.53v.72l-.11 1.03.04.69-.3 2.06-.12.35-.12.67.05 1.08.33.7.24 1.13.26.77.14.66.44 1.07.21.93.39.87.5 1.02.44 1.33.59.76.31.93.38.94.17 1.11.18.92.31.94.58.88.7.97.4.45.56.73.68 1.15.6.5.7.87.16 1.33-.03.36.25.57.4.93 7.51 9.4H871.22l-6.45-.01h-1.06l-2.86-.02-3.16-.01H856l-1.62-.01-1.24-.01h-3.02l-1.14-.01-2.87-.01H844l-.65-.01h-6.38l-.95.01h-2.72l-3.64.01h-3.9l-2.58.01h-2.85l-2.3.01h-3.82l-1.48.01h-5.3l-1.74.01h-4.54l-1.39.01h-5l-3.4.01H787.96l-2.28.01h-1.24l-2.13.01H777.98l-2.45.01H770.83l-2.18.01H765.14l-2.38.01H745.3l-1.2-.01h-8.55l-13.78-.02H715l-1.29-.01h-6.31l-16.73.03h-.5l-1.42.01H686.9l-1.82.02H675.67l-14.85.04h-.86l-1 .01h-.63l-2.97.02-2.15.01h-.64l-1.65.02h-1.96l-1.93.02h-.96l-17.37-.02h-4.15l-.65-.01H613.34l-24 .05H575.11l-1.42.01-27.56-.2-1.33-.02h-.65l-1-.01-1.96-.02h-.7l-.63-.01z"/>
    <path region="6" short-name="Lake Laberge" long-name="Lake Laberge" value="1" d="M442.15 925.38h-58.53l-3.4.6v.18l-.03.07-.01.04-.01.06v.15l.02.07v.06l.02.06.02.05.03.05.06.04.05.07.05.09.05.1.02.05V927.27l-.02.07v.51l.02.18v.07l.02.09v.03l.01.12v.1l.02.08.02.1.02.04.02.03.04.06.07.09.05.06.03.06.02.04v.1l.01.07.02.06.05.07.05.06.07.06.08.05.08.08.1.08.04.06h-14.99v4.35l-.08-.1-.04-.02h-.08l-.02.02v.09h-.01V934.1l-.03.02-.01.01-.01.01-.02.01v.01l-.02.1v.01l.04.05.01.02.05.03.03.02.01.05v.09h-.01l-.03.02h-.04l-.09-.04h-.01l-.04-.02h-.03l-.03.02-.04.03h-.04l-.03.01h-.02l-.03-.02-.03-.03-.02-.05-.01-.01h-.03l-.01-.02-.01-.1-.01-.03-.01-.02-.03-.02-.03-.02h-.04v.02l.03.01v.04l-.01.02-.03-.03h-.02l-.02.01h-.05v-.02l.01-.04h-.08l-.01-.02-.02-.01-.02-.05-.03-.02h-.01v.02l.02.04v.03l-.01.01-.04-.03h-.04l-.03-.01H365l-.02-.02v-.04h.04v-.06l-.01-.02h-.07v.06h-.04v-.02l.01-.01v-.04l-.05-.01-.02.01v.04h-.02l-.03.01-.03-.01-.04-.04-.02-.01h-.03l-.03-.01-.05.02h-.02l-.02-.01-.02-.02-.03-.01h-.02v.04l-.03.06-.02.02h-.02l-.02-.02v-.02h.02v-.01l-.02-.02-.02-.04-.01-.03-.02-.02-.02-.02-.04-.01-.04-.04h-.01v.02l.01.03h-.05v-.02l.01-.02v-.02l-.05-.01-.03-.01-.01-.01-.02-.03-.05-.01-.04.01-.01.02v.13l-.02.03h-.05l-.14-.07h-.03l-.01.05.03.04v.04h-.03l-.03-.04v.01l-.03.01-.01-.03h-.04v.02h-.07l-.02.02h-.02l-.01-.03.01-.02-.02-.02v.03l-.03.02-.04-.01-.02-.01h-.01v.02l-.02.02v.07l-.02.01h-.02l-.02-.02h-.04l-.02-.04h-.04v-.01h-.01v-.02l.03-.02.01-.03v-.02l-.03-.01-.04.03h-.07l-.07-.01-.02.01v.06l-.02.01h-.03l-.03-.03h-.02v.05l-.01.01h-.02l-.01-.04v-.03h-.02l-.03.02-.03-.01v-.04h-.05v.02l-.01.01.02.04v.02h-.03l-.04-.06-.04-.02v-.04l-.01-.02-.03-.02h-.02l-.01.03-.02.02-.06-.01-.02-.01v-.01l.02-.03v-.03h-.03l-.04.03h-.05l-.06-.04-.04-.07-.03-.02-.02-.02-.02-.03h-.05v.03l-.02.02h-.02v-.01l-.02-.07v-.02l-.04-.02v-.04l-.03-.02v.03l-.04.03-.01.03h-.03v-.02l-.02-.02h-.07l-.04.04h-.03l-.01-.01v-.04l-.04-.04.03-.01v-.02l-.02-.02v-.01l-.02-.03-.02-.04v-.05l.04-.03v-.13l.01-.02h.03l.03-.04.01-.03h-.01l-.08-.02-.02-.02v-.02l.01-.03v-.02h-.05l-.01-.04-.02-.03-.01.02-.02.01h-.01l-.02-.03v-.02l.01-.02v-.01l-.02-.02h-.02v.04h-.03l-.02-.02v-.04l.02-.01-.02-.02h-.02l-.01-.03v-.02l.01-.01.04.02h.01l.01-.01v-.04h.01l.03.02v-.05l-.03-.01-.07.03-.03.02h-.03v.06h-.06v-.02l.02-.03-.01-.02-.02-.01-.01.01-.02.03-.01.01h-.02l-.02-.03v-.02l.02-.02h.04l-.02-.04h-.04l-.02.02-.01.04-.04.04-.03.02-.03-.02v-.03h-.03v.04l-.01.01h-.03l-.01-.03v-.04l.04-.02V932.67l-.02-.01H361l-.03.02h-.03l-.01-.04-.02-.02h-.01l-.01.03-.01.01h-.02l-.01-.04h-.03l-.02-.02v-.02l.02-.03v-.02h-.07v-.04l.01-.07h-.1v.05l-.02.02h-.01l-.01-.03h-.02l-.01.02h-.04l-.02.02h-.05v-.01l.03-.02.01-.02-.01-.03h-.02l-.02.03-.02-.01v-.02l.01-.02.02-.02v-.03h-.02l-.04.02h-.02l-.02-.01-.06-.05-.02.01-.05.05-.01.03-.02.02-.03.01h-.02l-.04-.03v-.01l.02-.02.01-.02-.01-.01H360l-.07-.03-.05-.04-.06-.02-.01-.03v-.01l.02-.01v-.02l-.02-.02-.04-.02h-.02V932.2h-.02l-.02-.02v-.03l.02-.02.02-.01.02-.02-.05-.05h-.01l-.08.03h-.02l-.03-.03-.02-.06-.01-.01-.03-.01-.04.03h-.06l-.03-.02-.03-.03v-.09l-.02-.01-.05-.03-.09-.04h-.02l-.02-.03-.02-.04v-.03l.01-.02.03-.03v-.02h-.02l-.05.04-.03.01h-.01l-.01-.04v-.06l-.05-.05-.02-.05v-.02l-.02-.03-.01-.01-.07-.01-.03-.02v-.02l-.01-.03.02-.03-.01-.02-.07-.02-.03.03h-.02l-.01-.01v-.1l.02-.02-.06-.05-.02.01v.04h-.01l-.06.01-.03-.01h-.03v-.04h-.01l-.02-.01-.01.01V931.23h-.03l-.04-.01-.02-.02v-.02h.02v-.02h-.05v-.04l-.02-.01h-.02l-.02.04h-.02v-.06h-.03l-.02.02h-.02v-.03l.02-.02-.02-.04.02-.01-.01-.02-.04-.01h-.13v-.02l.04-.01h.03l.02-.04v-.01l-.02-.02-.07-.02v-.01l-.13-.02-.02-.02v-.02l-.01-.02-.02-.01-.04-.03h-.01l-.01.01v.03l-.1.04h-.02l-.02-.02v-.02l-.01-.01.01-.03-.02-.09-.01-.01h-.03l-.01.04-.04.01h-.01l-.01-.01.02-.04v-.02h-.05v-.03l-.01-.02-.03-.05-.02-.01-.04-.01-.02-.02-.01-.02-.02-.02h-.01l-.03.02-.01.04-.01.02h-.07v-.06l-.01-.02h-.05l-.02.02h-.04l-.1-.01h-.02v.03l-.03.02-.03-.02-.03-.04v-.04l.02-.07-.03-.04-.04.03h-.03v-.06l.04-.03-.02-.05-.02-.02-.02-.01-.04-.01h-.05l-.03-.02h-.01l.02-.05.05-.06-.01-.01-.04-.02-.02-.04v-.01l.04-.04v-.02l-.02-.03-.04-.03-.04-.1-.04-.04-.02-.01-.03-.02-.05-.02-.04-.02-.05-.05-.03-.02-.04-.06-.01-.02-.02-.04-.03-.03-.03-.01h-.03l-.03.02h-.02l-.03-.01h-.02l-.01.01-.02.03-.05.03-.04.02h-.02l-.01-.02-.01-.05-.03-.03v-.03l-.03-.03v-.03l-.01-.03-.02-.04-.02-.03-.05-.06v-.18l-.1-.05-.05-.01h-.06l-.04.04-.02.01h-.06l-.02-.01-.01-.02-.01-.01-.01-.07-.01-.02-.03-.02-.02-.01h-.04l-.03-.01-.08-.01h-.08l-.02.04h-.03l-.03-.01-.03-.04-.03-.04-.07-.05-.03-.02-.02-.07-.03-.03h-.01l-.03-.01-.07.02-.06-.02h-.04l-.02.01-.01.05v.01h-.07l-.03-.06-.03-.01h-.03l-.02.01-.01.01-.01.05v.06h-.01l-.04.02-.07-.01-.07.02-.02-.01v-.03l-.01-.03v-.05l.01-.02-.02-.04-.03-.01-.13-.02h-.04v-.05l.06-.04v-.02l.01-.01-.02-.03h-.03l-.04.03-.06.05-.03.02h-.04l-.02-.02-.04-.04-.02-.01H353.67l-.02-.02v-.05l.03-.1v-.01l-.02-.04-.02-.01h-.05l-.02.02-.01.02-.01.02-.02.02-.02.01h-.01l-.03-.01v-.02h-.01l-.01-.02-.04-.02-.05-.01h-.07l-.04-.07V927.96l.02-.01.06-.06.05-.08.01-.03-.01-.04-.02-.05h-.05l-.04-.01-.01-.05-.03-.04.03-.01.01-.02v-.03l-.02-.04-.05-.06v-.02l.02-.04v-.02l.02-.08v-.05l.02-.04.08-.1v-.02l-.04-.05h-.07l-.05-.02-.01-.07-.02-.04v-.04l-.03-.01h-.05l-.03-.04-.01-.01-.05-.04v-.03l-.01-.02-.04-.04v-.02l.04-.02.07-.03.04-.1.03-.08.06-.04.08-.01.1.03.1.04.05.01.1.02H353.69l.12.03h.08l.07-.02.07-.05.02-.08-.04-.1-.07-.06h-.02l-.08-.02h-.14l-.1-.06-.1-.1-.04-.05-.02-.08v-.06l.03-.04.07-.02.05-.02h.07l.07.04.13.1.07.12.1.06.02.02.1.04h.19l.04.03.04.05.05.08v.06l.03.06.03.03h.05l.04-.03v-.1l.01-.07.03-.03.04-.02.06-.01.06.01.02.04.03.04.02.08v.2l.02.06.02.04.04.04.06.02.08-.02.1-.04.06-.04.02-.04v-.1l.03-.06.04-.04.06-.08.06-.02.08-.04.07-.11.1-.13.11-.11.09-.06.1-.01h.15l.1-.03.09-.06.06-.05v-.06l-.02-.04-.04-.04-.11-.04-.13-.02-.1.01-.09.03-.09.07-.1.05-.07.03h-.08l-.08-.02-.05-.05-.01-.07.02-.09.03-.04.06-.06.08-.05.1-.04.09-.05.01-.05v-.04l-.03-.07-.07-.05h-.1l-.1.02-.11.02h-.08l-.06-.06-.02-.06.03-.08.06-.07.08-.05.08-.04.06-.06.03-.1.01-.08v-.07l-.1-.1-.11-.08-.02-.1v-.1l.03-.11.01-.09-.03-.05-.1-.04-.08-.06-.04-.05v-.04l.01-.08v-.08l-.01-.08-.06-.06-.11-.07-.11-.04-.06-.03-.04-.07.03-.07.06-.08.06-.05.05-.03.09-.04h.05l.16.02.16.04.11.04.09.04h.07l.09-.03.13-.07.1-.05.09-.07.02-.06.01-.08v-.08l.03-.07.08-.1.1-.08.1-.05.14-.03h.1l.13-.01.12-.04.06-.06.08-.08.08-.08.08-.05.1-.03.1-.01.11.03.11.02h.08l.08-.02.06-.04.05-.06.03-.1-.01-.11v-.1l.02-.09.07-.07.08-.04h.1l.08.01.04.02.07.06.04.06.06.19.02.08.03.06.05.04.05.04.07.02h.07l.05-.02.05-.02.05-.05.06-.06.05-.07V911.87H322.99v-67.84h32.5l30.9-.31 55.76.31z"/>
    <g region="7" value="1" short-name="Riverdale North" long-name="Riverdale North">
      <path d="m390.7 937.15-3.3.98-.05-.01-.04.06-.06.1-.07.1-.06-.04-.05-.04.07-.11-.04-.03-.1-.07-.04-.02-.05-.07-.03.02h-.03l-.01.01-.04.01-.08.02-.02.01-.04.02h-.02l-.01.01-.09-.05-.01-.01v-.01h-.01V938l-.01-.02v-.03l-.02-.06-.01-.03-.02-.04-.02-.04h-.01l-.02.03-.02.02-.02.03h-.01v.01l-.01.01-.04.05-.02.01-.03.04-.01.02-.08.11-.06.08v-.06l-.03-.06-.03-.06-.04-.08-.03-.06-.04-.07-.09-.05-.02-.09.01-.05.02-.05.03-.05.03-.03.04-.05.04-.05.05-.1v-.16l-.01-.06-.02-.04-.02-.03-.04-.06-.02-.05-.02-.06-.01-.05-.02-.04-.01-.05-.03-.03-.01-.03-.02-.06-.02-.07v-.11l-.01-.06-.02-.03v-.03l-.03-.05-.02-.03-.02-.04-.02-.04-.01-.05-.02-.04-.02-.04-.01-.04v-.18l-.02-.06-.03-.05-.04-.04-.05-.04-.05-.04-.05-.04-.05-.04-.05-.04-.04-.05-.03-.04-.01-.05v-.08l.02-.05.02-.03.04-.08.01-.07.02-.09v-.16l-.01-.06-.01-.08-.01-.07V934.35l.03-.05v-.05l-.01-.05-.04-.07-.05-.1-.03-.06-.04-.06-.04-.07-.05-.08-.06-.05-.05-.04-.08-.06-.09-.04-.01-.02-.04-.02-.05-.05-.04-.05-.03-.03-.02-.05-.02-.04-.03-.06-.02-.05v-.08l.01-.04.02-.06.01-.04.04-.04.04-.06.03-.03v-.14l-.02-.08-.05-.09-.03-.04-.02-.03-.04-.06-.05-.06-.02-.07v-.09l.03-.06.04-.05.07-.04.08-.05.08-.05.05-.03.03-.05.01-.05v-.25l-.02-.05-.03-.1-.02-.04-.03-.06-.03-.05-.05-.05-.05-.05-.03-.04-.03-.04-.01-.03v-.1l-.02-.08-.02-.12-.03-.13-.02-.08-.02-.09-.04-.07-.05-.06-.04-.05-.06-.01h-.06l-.09.02H384l-.13.04-.1.02-.08.02-.08.03-.09.02h-.12l-.11-.02h-.14l-.03.01-.01.04-.02.07-.02.05-.04.02-.04.02h-.07l-.06.02-.09.04-.07.02-.1.03h-.24l-.06-.02-.08-.03-.06-.03-.07-.04-.05-.05-.05-.05-.06-.05-.08-.08-.08-.08-.09-.09-.07-.07-.06-.08-.03-.04-.04-.08-.05-.07-.06-.1-.05-.06-.04-.06-.1-.08-.08-.08-.08-.05-.07-.06-.05-.06-.05-.07-.02-.06V929l-.03-.04-.03-.06-.05-.06-.07-.09-.05-.06-.01-.03-.02-.04-.02-.1-.01-.09v-.09l-.01-.12v-.03l-.03-.09v-.07l-.01-.18v-.27l-.01-.06v-.19l.01-.06V927.12l-.01-.06-.05-.1-.05-.08-.06-.06-.05-.05-.03-.05-.02-.05-.02-.06v-.06l-.02-.07V926.27l.02-.04.02-.07.01-.07v-.11l3.4-.6 1.43 1.97 3.75 5.16z"/>
      <path d="m775.75 142.61-26.04 7.76-.4-.1v.05l-.26.4-.5.77-.54.8-.44-.3-.45-.3.56-.88-.28-.2-.86-.58-.26-.17-.4-.54-.24.12-.26.1h-.05l-.31.12-.62.16-.13.05-.39.12-.15.08-.05.07-.67-.42-.13-.12-.06-.07V149.46l-.01-.02-.01-.01v-.01l-.02-.01-.02-.02v-.02l-.03-.14v-.03l-.02-.22-.1-.4-.1-.3-.14-.3-.14-.27-.05-.06-.04.02v.01l-.06.05-.14.18-.13.15-.2.25-.06.05-.02.02-.08.08-.32.38-.1.12-.23.26-.14.2-.63.86-.43.58-.05-.44-.23-.47-.23-.44-.32-.68-.24-.45-.28-.52-.7-.4-.16-.71.1-.38.13-.44.26-.42.18-.2.31-.36.31-.45.4-.72.09-.42-.04-.51-.05-.35-.07-.5-.13-.28-.17-.28-.27-.49-.2-.37-.18-.44-.08-.39-.1-.37-.13-.38-.2-.25-.11-.24-.13-.47-.14-.54-.05-.41-.03-.47-.05-.43-.11-.29-.07-.23-.15-.35-.2-.25-.17-.3-.12-.35-.11-.37-.13-.31-.15-.31-.1-.32v-.49l.05-.56-.05-.4-.17-.46-.24-.38-.33-.3-.37-.36-.4-.29-.4-.29-.4-.37-.36-.32-.33-.33-.23-.34-.07-.4.03-.66.14-.33.13-.25.29-.62.13-.57.14-.71.04-.64-.02-.65-.1-.48-.1-.57-.1-.58v-.37l.06-.4.05-.4.14-.42.02-.37-.1-.4-.3-.6-.36-.7-.26-.52-.29-.5-.31-.5-.42-.62-.46-.39-.4-.35-.67-.43-.66-.37-.12-.1-.29-.24-.36-.32-.32-.42-.25-.27-.19-.35-.16-.34-.2-.45-.19-.42v-.3l.04-.3.05-.31.13-.52.13-.33.27-.3.37-.41.22-.26.03-.61-.05-.5-.17-.66-.4-.66-.2-.3-.17-.26-.33-.45-.37-.53-.15-.55.04-.68.15-.51.34-.34.54-.33.61-.41.63-.39.46-.26.21-.36.1-.41v-1.12l-.04-.5-.04-.36-.12-.38-.2-.71-.18-.41-.24-.47-.24-.4-.36-.36-.42-.44-.26-.28-.2-.32-.1-.23-.03-.39v-.38l-.13-.62-.12-.98-.25-1.05-.14-.63-.19-.67-.33-.58-.37-.45-.34-.36-.48-.1-.42.04-.7.11-.62.07-1.04.26-.78.14-.67.19-.64.2-.66.14-.48.06-.48-.05-.89-.14-.65-.05-.46.01-.22.1-.07.3-.14.59-.17.41-.32.15-.33.11-.57.07-.42.1-.73.29-.59.21-.75.2h-1.26l-.64-.05-.42-.1-.1-.02-.6-.21-.43-.25-.53-.34-.41-.36-.43-.4-.48-.4-.57-.6-.64-.64-.7-.71-.61-.59-.48-.56-.23-.39-.27-.56-.41-.59-.5-.75-.34-.5-.36-.46-.75-.67-.66-.59-.6-.4-.56-.5-.37-.43-.4-.6-.16-.42-.05-.65-.04-.68-.13-.36-.25-.47-.4-.49-.58-.68-.34-.44-.13-.26-.15-.36-.15-.78-.1-.66-.03-.73-.05-.93-.05-.26-.13-.66-.08-.57-.07-1.4-.04-1.05.05-.56-.03-.53-.06-.49-.04-.31.04-.44.07-.7.06-.54.03-.52.01-.68-.14-.42-.36-.75-.46-.7-.4-.5-.43-.38-.22-.36-.18-.43-.12-.47-.08-.47-.1-.55-.05-.71.02-.47.06-.47.12-.32.16-.53.1-.52v-.43l.03-.43 26.69-4.78 11.27 15.51 29.51 40.64z" map-type="inset-region"/>
    </g>
    <g region="8" value="1" short-name="Riverdale South" long-name="Riverdale South">
      <path d="m390.7 937.15 1.42 3.44.94 1.12.02.51v.1l-.03.06-.03.05h-.05l-.17 2.76-.05-.03-.03-.02-.05-.01h-.11l-.06.02h-.14l-.06-.02-.07-.02-.05-.02-.03-.03-.03-.02-.04-.04-.05-.02h-.09l-.05.01-.04.04-.05.04-.05.03h-.12l-.04-.01-.04-.02-.05-.02-.04-.02-.03-.02-.01-.02v-.09l.03-.05.03-.05.03-.06.03-.06.03-.06-.01-.02-.01-.03-.03-.05-.04-.02h-.09l-.05.04-.06.06-.06.06-.05.07-.05.09-.04.08-.03.07-.03.11-.02.08-.01.07-.01.04-.01.04-.01.03-.02.03-.01.05-.02.03-.01.05v.17l-.01.03-.02.03-.01.03-.04.05-.03.03h-.03l-.03.02h-.19l-.03-.01-.05-.02-.03-.02-.03-.02-.02-.03-.01-.02-.01-.03v-.03l-.01-.02-.03-.03-.03-.04-.03-.03-.05-.04-.04-.04-.04-.03-.05-.03-.05-.05-.03-.04-.03-.04-.03-.04-.04-.04-.03-.04-.04-.04-.04-.03-.04-.04-.04-.02h-.19l-.04-.01-.04-.02-.05-.03-.04-.02-.02-.03v-.06l.01-.05v-.14l-.01-.02-.02-.03-.02-.05v-.05l-.02-.06-.01-.04-.02-.04-.01-.03-.02-.04-.03-.04-.03-.05-.03-.04-.03-.03-.03-.02-.02-.02-.05-.06-.04-.06-.04-.04-.04-.03-.04-.03-.03-.02-.04-.02-.02-.01-.02-.03-.02-.03-.01-.03-.02-.06-.02-.05-.02-.04-.01-.05-.02-.04-.03-.05-.02-.07-.01-.05-.01-.04-.01-.04-.01-.03-.02-.03-.02-.03-.04-.05-.02-.03-.03-.04-.02-.03-.02-.03-.02-.03-.02-.03-.02-.04-.02-.04-.03-.05-.02-.04-.01-.03v-.06l-.01-.02-.01-.02-.02-.03-.01-.03-.02-.06-.02-.03-.02-.02-.03-.01-.01-.03-.03-.03-.02-.03-.02-.02h-.03l-.03-.02h-.02l-.03-.01h-.08l-.02.01h-.08l-.02.01h-.07l-.02-.01-.02-.01-.02-.02v-.01l-.04-.02-.03-.01h-.16l-.02-.02h-.01l-.03-.01-.02-.01-.02-.01-.04-.03h-.04l-.02-.01h-.02l-.02.01-.02.01h-.06l-.04-.01-.04-.02-.03-.02-.03-.01-.05-.03-.01-.02v-.01l-.01-.02v-.02l-.02-.02V942l-.01-.03-.01-.03v-.02l-.02-.02-.01-.02-.01-.03-.01-.02-.01-.03-.01-.03v-.37l-.01-.02-.02-.02v-.04l-.02-.03-.01-.05v-.07l.02-.12.04-.1.03-.14.02-.1v-.13l-.01-.1-.01-.1-.01-.09v-.15l.02-.14.01-.13.02-.14v-.09l-.02-.1-.05-.1-.07-.08-.1-.07-.08-.05-.08-.07-.05-.05-.03-.06-.03-.06-.03-.05-.01-.04-.01-.03-.01-.04v-.04l-.03-.07v-.05l-.01-.05v-.03l.01-.04v-.12l-.02-.07v-.16l.05-.08.08-.1.01-.03.03-.04.02-.01.04-.05v-.01h.02l.02-.04.02-.02.02-.02v-.01h.01l.02.04.02.04.01.04.02.05v.05h.01v.03l.03.01.08.05.03-.01.05-.02h.01l.08-.03.04-.01.04-.01.03-.02.05.07.03.02.11.07.04.03-.07.11.05.04.06.04.07-.1.06-.1.03-.05v-.01l.06.01z"/>
      <path d="m775.75 142.61 11.14 27.1 7.4 8.84.17 4h-.06l.06.77-.23.52-.23.33-.4.07-1.37 21.74-.36-.27-.27-.16-.37-.07h-.42l-.4.06-.47.1h-.72l-.43-.08-.46-.1-.54-.16-.38-.14-.24-.21-.28-.23-.32-.25-.34-.18-.29-.07-.43.05-.42.13-.27.27-.4.29-.46.24-.58.04-.33-.02-.35-.07-.3-.16-.39-.12-.3-.15-.2-.22-.11-.17-.01-.36.07-.3.2-.37.22-.4.26-.53.23-.41.18-.48-.04-.16-.09-.27-.23-.4-.3-.16-.4-.02-.31.08-.44.28-.44.45-.45.52-.41.53-.4.66-.3.64-.27.59-.26.88-.16.63-.07.54-.07.3-.08.32-.1.2-.1.3-.14.38-.12.25-.07.33-.03.31-.02.16v.34l.02.32v.26l-.06.18-.12.24-.15.26-.3.43-.2.17-.24.1-.25.06h-.99l-.53-.01-.25-.07-.32-.1-.3-.18-.24-.15-.14-.22-.08-.2-.06-.23-.04-.21-.06-.2-.22-.24-.21-.26-.26-.28-.37-.33-.34-.26-.31-.25-.38-.27-.4-.35-.21-.34-.25-.35-.24-.28-.33-.34-.26-.3-.28-.28-.36-.3-.28-.25-.28-.17-.2-.04h-.2l-.18.02-.2.04-.25.02-.25-.01-.26-.06-.3-.09-.33-.14-.42-.2-.3-.2-.13-.22v-.2l.05-.27.06-.42.03-.3v-.3l-.03-.28-.06-.22-.09-.14-.16-.27-.09-.39-.06-.4-.1-.42-.1-.35-.15-.32-.1-.22-.19-.3-.16-.32-.27-.38-.22-.3-.26-.23-.2-.2-.18-.18-.4-.47-.35-.44-.3-.33-.29-.23-.3-.22-.28-.16-.28-.16-.14-.1-.17-.19-.15-.24-.13-.29-.16-.41-.16-.44-.12-.34-.11-.36-.16-.33-.18-.4-.17-.5-.14-.41-.06-.32-.06-.36-.09-.23-.14-.18-.19-.27-.27-.38-.18-.26-.22-.3-.2-.22-.14-.24-.18-.27-.15-.24-.14-.32-.15-.27v-.04l-.2-.37-.19-.34-.07-.22-.03-.25-.04-.2-.05-.17-.08-.17-.1-.21-.13-.26-.16-.44-.1-.25-.17-.13-.23-.14-.12-.18-.2-.29-.17-.21-.16-.15-.2-.09-.24-.05-.2-.08-.25-.05h-.16l-.18.04-.26.05-.18.03-.37.03-.23.02-.2.01h-.27l-.22-.05-.21-.05-.13-.09-.14-.13-.08-.07-.26-.17-.2-.08-.23-.06h-.4l-.25.02h-.29l-.13-.02-.13-.06-.14-.06-.17-.05-.2-.09-.17-.07-.3-.2-.19-.07-.15-.03-.13-.01-.15.03-.14.05-.2.08h-.22l-.24-.03-.28-.06-.31-.12-.25-.15-.23-.14-.38-.22-.13-.15-.03-.1-.04-.13-.06-.14-.06-.17-.05-.19-.08-.2-.08-.22-.06-.19-.1-.16-.08-.17-.06-.2-.09-.2-.08-.23-.07-.2-.01-.3v-.33l.01-.3.01-.2.02-.21.01-.3.02-.3v-.33l-.02-.43-.05-.2-.08-.16-.12-.21-.1-.27-.08-.28-.1-.34.04-.6.13-.96.28-.73.26-1.11.14-.77.05-.67v-.4l-.12-.85-.07-.76-.09-.64.07-1.23.08-1.1.1-1 .15-1.14.05-.68-.17-.84-.4-.7-.61-.7-.69-.51-.73-.43-.6-.5-.41-.42-.25-.48-.23-.42-.2-.44-.11-.28-.08-.26-.07-.3-.05-.37-.14-.5-.08-.41v-.07l-.04-.35.04-.24.08-.28v-.3l-.1-.68-.05-.5-.03-.61-.07-.66v-.05l.43-.58.63-.86.14-.2.23-.27.1-.11.32-.39.08-.07.02-.02.05-.06.2-.25.13-.15.15-.17.05-.05v-.01l.05-.03.04.07.15.27.14.29.1.3.1.4.02.23v.03l.02.14.01.02.02.02.02.01v.01l.03.02v.01l-.01.02v.02h-.01v.03l.07.07.13.12.67.41.05-.07.15-.07.39-.12.13-.05.61-.17.32-.1.05-.02.26-.1.23-.12.4.54.27.18.86.57.28.2-.57.88.46.3.44.3.54-.8.5-.76.25-.4.01-.06.4.1z" map-type="inset-region"/>
    </g>
    <g region="9" value="1" short-name="Porter Creek Centre" long-name="Porter Creek Centre">
      <path d="m384.56 932.5-.4.01-.34.02h-.01l-.02.05-.01.04v.16l.01.02-.03.05-.03.03-.05.04-.03.06-.02.04-.02.06h-.05l-.07-.04-.04-.06-.02-.05-.04-.25v-.05l-.27.03h-.2l-.04-.07-.04-.07-.01-.04v-.01l-.5.04-.03-.05-.02-.04-.02-.02-.04-.03-.04-.03-.02-.03-.05-.13-.1-.26-.1.04-.04-.09-.03-.08-.01-.03-.02-.05-.02-.05-.02-.03-.01-.04-.02-.04-.01-.05h.02l.02-.02v-.02l.02-.01v-.02l.02-.02v-.01l.02-.02v-.01l.01-.02.01-.01.01-.02.01-.01.01-.03.42-.59.05.01.08.01h.16l.1-.03.07-.02.1-.04.05-.01.07-.01.04-.02.04-.01.02-.06.02-.07.01-.04.03-.01h.14l.11.02h.12l.09-.02.08-.03.08-.02.1-.02.13-.03h.08l.1-.02.05-.01.06.01.04.05.05.06.04.07.02.09.02.08.03.13.02.12.01.08v.1l.02.03.03.04.03.04.05.05.05.05.03.05.03.06.02.05.03.09.01.05v.04l.01.07v.19l-.04.05-.05.03-.08.05-.08.05-.07.04-.04.05-.02.06v.09l.01.07.05.06.04.06z"/>
      <path d="M727.4 106.04h-.02l-3.16.06-2.65.1-.1.12-.2.29-.05.35-.06.79.14.43.02.2-.25.39-.25.26-.4.3-.25.45-.1.29-.22.5-.4-.04-.52-.28-.33-.47-.14-.4-.31-1.93v-.23l.02-.16-2.15.17-1.55.1-.33-.6-.3-.6-.1-.31-.02-.08-3.92.37-.22-.4-.17-.35-.14-.13-.34-.23-.3-.24-.14-.26-.4-1.02-.79-2.02-.81.33-.29-.72v-.03l-.25-.62-.1-.24-.17-.4-.15-.41-.1-.24-.12-.32-.12-.32-.14-.32.08-.02.13-.05.05-.02.08-.12.07-.13.09-.12.07-.12.07-.13.08-.12.08-.12.07-.12.08-.13.08-.11.07-.13.08-.12.1-.16 3.23-4.68.42.1.63.06.67-.01.6-.01.75-.19.59-.21.72-.3.43-.09.57-.07.33-.1.32-.16.17-.41.14-.59.07-.3.22-.1.46-.01.65.05.88.14.48.04.48-.05.67-.15.64-.2.67-.18.78-.15 1.04-.26.62-.06.7-.1.42-.06.48.1.34.37.37.45.33.58.19.67.14.63.25 1.04.12.99.12.62.01.38.03.38.1.24.2.32.26.28.42.44.36.35.24.41.24.47.18.4.2.72.12.38.04.36.03.5.01.6v.52l-.1.4-.21.37-.46.26-.63.39-.61.4-.54.34-.34.33-.15.52-.04.67.15.56.37.52.33.46z" map-type="inset-region"/>
    </g>
    <g region="10" value="1" short-name="Porter Creek South" long-name="Porter Creek South">
      <path d="m383.6 933.08-.01.03v.08l.03.01.02.04.02.01v.02l-.02.03-.06.04v.01l-.01.02.02.03v.03l-.01.05v.07l-.01.02-.02.02-.02.01h-.02l-.02.03h-.09v.13l.02.02v.05l.02.02v.03l-.01.02h-.03l-.01.02v.04l.02.01v.02l.01.02.02.02v.02l-.01.03.01.04-.01.05-.03.02-.01.02v.08l.02.06.01.02v.04l-.03.03-.1.05-.04.01-.04.02h-.04l-.02.02-.03.03h-.02l-.02-.02H383l-.01.01h-.04l-.02-.02-.03-.01-.05-.03h-.02l-.04.03-.03.01-.01.01-.01.01-.02.01h-.04l-.02.01h-.06l-.03.01-.01.01v.02l-.04.01-.06.01h-.12l-.12-.03H382.07l-.06-.03-.03-.02-.03-.02-.02-.01-.01-.02-.05-.05-.02-.03-.02-.03-.02-.04-.01-.03v-.04l-.02-.06v-.4l.01-.05v-.04l.02-.07.02-.12.03-.2.01-.1h.05l.02-.02.02-.02.03-.08v-.03l-.01-.06.09-.04.08-.04.08-.04.18-.1.06-.02.1-.06-.05-.1-.1.05-.03-.06-.06-.12.5-.05v.02l.01.03.04.08.04.08.2-.01.27-.03v.05l.04.25.02.05.04.06.07.03z"/>
      <path d="m719.85 110.58-.11.26-.06.31v.13l.05.12.27.15.13.27.12.13-.01.14-.13.24-.43.27-.08.11-.06.13.2.3.06.2-.15.38-.03.58-.05.13-.16.19-.15.07h-.13l-.19.19h-.45l-.23.1-.06.1v.14l.09.19v.27l-.02.25.12.15.04.2.02.2.07.17.03.2-.03.1-.07.06-.2.08-.13.1-.03.12.1.18.1.12.02.1.1.23.12.12v.15l-.05.22.1.37-.13.37-.18.12-.14.18-.04.23.14.41.05.43.12.22.02.2-.04.12-.2.24-.81.38-.3.07-.32.15-.34.06-.14.1-.2.23-.11.05-.08-.02-.15-.16-.08-.04h-.32l-.14.07-.14.02-.16.06-.15-.06-.16-.16-.23-.1-.34-.21-.18.01-.33.24-.19.05-.12.1-.1.1-.1.05h-.17l-.15-.03-.08.04-.1.1-.11.03-.18-.08-.16.02-.24.1-.1.09-.01.13-.29.1-.5.08-.32-.01-.6-.07-.96-.2-.31-.05-.21.02-.14.1-.57-.12-.48-.18-.25-.12-.22-.14-.15-.13-.12-.11-.06-.04-.35-.4-.16-.23-.14-.25-.12-.26-.1-.28-.06-.28-.08-.48v-2.36l.01-.33v-.17l.03-.34.03-.35.04-.34.09-.5.15-1.01.23-1.57.12-.76h.22l.13-.02.1-.05.12-.1.13-.17.27-.6.04-.15v-.06l-.02-.05-.12-.43.7-.36h.03l.62-.32.64-.32 1.36-.68.5-.25.84-.44-.42-.85-.84.42-.23-.46-.45-.91 3.92-.38.01.09.11.3.3.6.33.61 1.54-.1 2.15-.17v.16l-.02.23.32 1.93.13.4.33.46.53.28z" map-type="inset-region"/>
    </g>
    <g region="11" value="1" short-name="Porter Creek North" long-name="Porter Creek North">
      <path d="m381.31 929.7.05.05.06.1.05.07.04.08.03.04.06.08.07.07.1.1.07.07.08.08.06.05.05.05.05.05.07.04.06.03.07.03h.02l-.42.6v.02l-.02.01v.02l-.02.01v.02l-.01.01-.01.02-.01.01-.01.02-.01.01-.01.02-.01.02-.01.01-.02.01h-.01l.01.04.02.05.01.04.02.03.02.05.02.05.01.03.03.08.04.1.1-.05.1.26.05.13.02.03.04.03.04.03.02.02.02.04.03.05.06.12.03.06.1-.06.06.11-.11.06-.06.03-.18.09-.08.04-.08.04-.09.04.02.06v.03l-.04.08-.02.02-.01.01h-.02l-.01.01h-.03l-.01.1-.03.2-.02.12-.01.07v.04l-.01.05V934.29l.01.04.01.03.02.04.02.03.02.03.04.05h-15.59V929.7z"/>
      <path d="m701.8 83.89.35.5.5.74.4.6.27.55.24.39.47.56.63.59.69.71.64.64.57.6.47.4.44.4.4.37.54.33.43.25.6.21.1.02-3.24 4.68-.1.16-.07.12-.07.13-.08.12-.08.12-.07.12-.09.13-.07.11-.07.13-.08.13-.08.11-.07.13-.08.13h-.05l-.13.06-.08.02.14.32.12.33.12.31.1.24.15.4.17.42.1.23.24.62.01.03.28.72.82-.33.78 2.02.4 1.02.15.26.3.25.33.22.15.13.17.35.22.4.45.92.24.46.83-.42.43.85-.86.43-.48.25-1.37.69-.63.31-.63.32-.03.01-.7.35.13.44v.05l.02.05-.05.16-.26.6-.14.17-.12.1-.1.05-.13.02h-.22l-.12.76-.22 1.56-.16 1.01-.09.51-.04.34-.03.35-.02.34v.17l-.02.33v2.35l.08.48.06.29.1.27.12.27.14.24.16.23.36.4.05.05H583.72V83.86z" map-type="inset-region"/>
    </g>
    <g region="12" value="1" short-name="Whitehorse Centre" long-name="Whitehorse Centre">
      <path d="m386.1 938.14.01.06.01.08v.08l.01.07.01.08v.08l-.01.03v.05h-.43l-.06-.17-.03-.1-.02-.1-.01-.08-.01-.06-.03-.28v-.1l-.01-.13v-.1l-.03-.14-.06-.16-.13-.1-.17-.18-.07-.07-.06-.11-.05-.03-.06-.14-.05-.17.06-.06.06-.11V936.07l-.01-.03V936h-.02l-.02-.02-.03-.02-.02-.01-.03-.03-.02-.04v-.03l-.02-.03v-.03l-.01-.03-.02-.03-.02-.03-.02-.02-.01-.01-.02-.01-.02-.02h-.02l-.03-.02h-.02l-.02-.02h-.04l-.06-.01h-.04l-.04.01h-.04l-.07-.19v-.5l-.03-.17-.02-.12-.04-.1-.03-.05v-.04l.02-.04.04-.04.05-.05.03-.05.04-.07.03-.1.03-.13.03-.14.02-.1.08-.08.05-.06.05-.02H384.77l.09.05.08.06.05.04.06.05.05.08.04.07.04.06.03.06.05.1.04.07.01.05v.05l-.02.05v.05l-.02.05v.05l.02.07.01.07.01.07v.16l-.02.09-.02.07-.03.08-.02.03-.02.05v.13l.04.04.04.04.04.04.06.05.05.04.05.04.04.04.05.04.03.05.02.06v.18l.01.04.02.04.02.04.01.05.02.04.02.04.02.03.02.05.01.03.02.03v.12l.01.05.02.07.02.06.01.03.03.03.01.05.02.04v.05l.03.06.02.05.04.06.02.03.02.04v.06l.01.05v.12l-.06.09-.03.05-.04.05-.03.03-.03.05-.02.05v.05l.01.1.1.04.03.07.03.06.04.08.03.06z"/>
      <path d="m739.55 150.42.05.5.08.65.02.61.05.5.1.69v.29l-.08.28-.04.24.03.35.01.07h-3.4l-.49-1.32-.2-.82-.17-.75-.12-.62-.07-.48-.2-2.24-.09-.8-.03-1.03-.05-.74-.2-1.1-.46-1.27-1.01-.78-1.3-1.41-.54-.6-.55-.88-.34-.19-.5-1.1-.42-1.34.47-.5.5-.88-.05-.96.01-.33-.03-.37-.02-.21v-.2l-.11-.04-.22-.11-.23-.16-.17-.15-.17-.23-.17-.26-.09-.26-.07-.22-.06-.23-.08-.28-.12-.21-.15-.24-.13-.13-.13-.12-.13-.1-.18-.1-.17-.1-.18-.07-.16-.08-.22-.06-.26-.09-.53-.02-.3.04-.3.06-.28.03h-.1l-.47-1.55-.02-1.48.03-1.36.05-1.08-.3-1.32-.16-.98-.29-.74-.26-.44v-.29l.14-.37.3-.24.4-.4.3-.42.3-.54.2-.85.26-.97.24-1.1.17-.82.57-.63.42-.44.39-.16.8-.05.05-.01.13.1.65.37.67.44.4.35.47.39.42.62.31.5.29.5.26.52.35.7.3.59.11.4-.02.38-.14.4-.05.42-.05.4v.37l.09.57.1.57.1.49.02.65-.04.63-.14.71-.14.58-.28.62-.13.24-.15.34-.03.66.08.4.22.34.34.33.35.31.41.38.4.3.4.27.37.36.33.3.24.4.17.45.05.4-.05.56v.49l.1.31.15.32.13.3.1.37.13.37.16.29.2.25.16.34.06.24.11.28.06.44.03.46.05.42.13.53.14.48.12.24.19.25.12.37.11.38.08.39.18.44.2.37.27.49.17.27.13.29.07.5.04.35.05.5-.1.42-.4.73-.3.45-.31.36-.18.2-.26.41-.13.45-.1.37.17.72.69.4.28.51.24.46.32.68.22.44z" map-type="inset-region"/>
    </g>
    <g region="13" value="1" short-name="Mountainview" long-name="Mountainview">
      <path d="M384.36 935.62h.05l.04-.02h.1l.04.01.02.01.03.01.02.01.02.01.02.02h.02l.02.02.01.02.02.03.02.03v.03l.01.03.01.03.01.03.03.04.02.03.02.02.03.02h.03l.01.01v.27l-.05.1-.06.07.05.17.06.14.05.03.07.1.06.08.17.18.13.1.06.16.02.14v.1l.01.13.01.1.03.28v.06l.02.08.02.1.03.1.06.17h-2.04v-.01l-.01-.01-.01-.02v-.01l-.01-.02h-.01v-.02l-.01-.02-.01-.02-.01-.01v-.01l-.01-.01v-.02l-.02-.04-.1-.22-.06-.1-.03-.07-.01-.04-.01-.04v-.17l.01-.04.03-.15.03-.12.03-.06h-1.24v-1.24h1.45l.07-.13.02-.1.02-.1.01-.05.04-.12h.01l.03-.04.02-.02.04-.03.06-.04.01-.01.02-.01h.18l.06.04.05.01.04.01z"/>
      <path d="M725.8 130.55h.12l.27-.03.3-.06.3-.04.53.02.26.09.22.06.17.08.18.08.16.08.19.1.13.11.12.12.14.13.15.24.12.21.08.28.05.23.08.22.1.26.16.26.17.23.17.15.22.16.22.1.12.05v.2l.02.21.03.36-.01.34.04.96-.49.87-.47.51.42 1.33.5 1.11.34.2.54.87.55.6 1.3 1.41 1.01.78.46 1.28.2 1.1.05.72.03 1.04.08.8.2 2.24.08.48.12.62.16.75.21.81.5 1.33h-16.1l-.04-.05-.02-.07-.03-.05-.02-.05-.04-.07-.02-.05-.03-.05-.05-.12-.05-.1-.06-.11-.04-.11-.05-.1-.05-.1-.04-.09-.05-.1-.04-.07-.07-.14-.11-.26-.8-1.74-.42-.85-.24-.5-.12-.33-.08-.32-.04-.36.02-.32.05-.37.03-.25.08-.37.23-1.14.19-.97.24-.48-9.74.01V135.14h11.41l.52-1.02.22-.81.15-.7.09-.45.3-.9.06-.1.2-.23.16-.16.36-.27.44-.28.12-.1.13-.07.24-.07h.14l.22.02.76.1.54.23.36.14.38.07z" map-type="inset-region"/>
    </g>
    <g region="14" value="1" short-name="Whitehorse West" long-name="Whitehorse West">
      <path d="M382.21 937.44h1.24l-.03.06-.03.12-.03.15v.04l-.01.04v.17l.02.04.03.06.06.11-.07.03h-.01l-.01.02-.02.02-.02.03-.03.07-.03.06-.02.06-.02.02-.01.02h-.02l-.01.02h-.07l-.12-.06-.03.07-.07-.03-.06-.03-.03.05h-.6z"/>
      <path d="M708.88 144.9h9.73l-.24.47-.18.97-.24 1.15-.07.36-.04.25-.05.37-.02.32.04.37.09.31.11.33.24.5.42.85-.49.23-.12.05-.08.08-.15.16-.13.27-.23.5-.23.5-.21.47-.1.15-.14.17-.12.07-.13.05-.12.01-.1.01h-.15l-.13-.04h-.02l-.93-.41-.24.5h-.02l-.5-.22-.5-.23h-.02l-.2.43-4.74.03z" map-type="inset-region"/>
    </g>
    <g region="15" value="1" short-name="Copperbelt North" long-name="Copperbelt North">
      <path d="M383.66 938.67h2.47l.01.05.02.07v.04l.02.04v.03l.02.04.03.05.03.06.03.06.05.05.08.07.09.05.09.07.07.08.05.1.02.1v.09l-.02.14-.01.13-.01.14-.01.15.01.08v.1l.02.11v.14l-.02.1-.03.13-.04.1-.02.12v.07l.01.05.01.03.01.04.02.02.01.02V941.8l.02.03.01.02v.03l.02.02.01.02v.02l.02.03v.03l.01.02.01.02v.02l.01.02v.01l.02.02.05.03.03.01.03.02.04.02h.04l.03.01h.05l.02-.02h.05l.03.01.04.03h.02l.02.02h.02l.02.01.02.01h.16l.03.02.03.02.01.01.02.02h.02l.02.01h.03l.04.01h.1l.02-.01h.03l.03-.01h.05l.02.01.03.01.03.01.02.02.02.03.03.03.01.03.03.01.02.02.02.03.02.06.01.03.01.03.02.02v.05l.01.03v.03l.03.04.03.05h-6.05v-4.28h.6l.03-.05.06.03.07.03.03-.07.12.05h.08l.02-.01.01-.02.02-.02.02-.06.03-.06.03-.07.02-.03.02-.02v-.01h.02l.06-.04.1.22.02.04.01.01v.01l.01.02.01.02v.01l.01.02.01.01v.01l.01.02.01.01v.01l.01.01v.01z"/>
      <path d="M720.27 154.6h19.5l.07.41.15.5.05.36.07.3.08.27.1.28.2.44.24.42.25.47.4.43.61.5.73.43.69.51.6.7.4.7.18.84-.05.68-.15 1.14-.1 1-.08 1.1-.07 1.23.09.64.07.76.12.85v.4l-.05.67-.14.77-.26 1.1-.28.74-.13.96-.04.6.1.34.07.28.1.27.13.21.08.16.05.2.01.43.01.32-.02.3v.3l-.03.21v.2l-.03.3v.34l.02.3.07.2.08.23.09.2.06.2.08.17.1.16.06.2.08.2.08.2.05.2.05.17.07.13.04.13.03.11.13.15.37.21.24.15.24.15.32.12.28.05.24.05.23-.01.2-.08.13-.05.15-.03h.13l.15.04.2.07.29.2.16.07.2.09.17.05.15.06.13.05.13.03h.29l.25-.03h.21l.19.01.22.05.21.09.26.16.08.08.14.13.13.09.21.05.22.04.27.01.2-.01.23-.02.36-.03.19-.03.26-.06.18-.03h.15l.26.05.2.08.24.05.2.09.16.15.17.21.2.3.12.17.23.14.17.13.1.25.16.44.13.25.1.22.08.17.04.17.05.2.03.25.07.22.18.34.2.36.01.05h-47.63v-33.68l4.74-.03.2-.44.03.01.49.23.5.23h.02l.25-.51.93.4.02.01.13.03.15.01h.1l.12-.02.13-.05.11-.07.14-.17.1-.15.21-.48.24-.5.23-.49.12-.27.15-.16.09-.08.12-.05.48-.23.8 1.74.12.26.07.15.04.07.05.1.04.08.05.1.05.1.04.1.06.12.05.1.05.12.03.05.02.06.04.06.02.05.03.05.02.07z" map-type="inset-region"/>
    </g>
    <g region="16" value="1" short-name="Copperbelt South" long-name="Copperbelt South">
      <path d="m388.26 942.86.02.04.02.04.01.03.03.03.02.03.02.03.03.04.02.03.04.05.02.03.02.03v.03l.02.04v.04l.02.05.02.07.03.05.02.04.01.05.02.04.02.05.02.06.01.03.02.03.02.03.02.01.04.02.03.02.04.03.04.03.04.04.04.06.05.06.02.02.03.03.03.03.03.03.03.05.02.04.03.04.01.03.02.04.01.04.02.06v.05l.01.05.03.03v.02l.01.03V944.87l-.01.03v.03l.02.03.03.02.06.03.04.02h.04l.03.02h.09l.02-.01h.05l.04.02.03.04.05.03.04.04.03.04.04.04.03.04.03.04.03.04.05.05.05.03.04.03.04.04.05.04.03.03.03.04.03.03v.02l.01.03v.03l.02.02.02.03.03.02.03.02.04.02h.26l.03-.01.03-.02.03-.06.02-.03.02-.03v-.16l.01-.04.01-.04.01-.04.02-.05.02-.03v-.03l.02-.04v-.04l.01-.07.02-.08.04-.1.03-.08.04-.08.05-.09.05-.06.06-.07.06-.06.05-.03.04-.01h.05l.04.02.03.05.01.03v.02l-.02.07-.03.05-.03.06-.03.06-.02.04-.01.04v.05l.01.02.03.03.04.02.05.01.04.02h.04l.04.01h.08l.05-.03.05-.04.04-.03.05-.02h.09l.05.02.04.04.03.02.03.03.05.02.07.02.06.01.05.01h.09l.06-.01h.05l.06-.01.05.01.03.02.04.03.09.01h.31l.04.03.08.03.05.02h.07l.05-.03.07-.03.03-.03.01-.05.01-.05.03-.05.03-.04.05-.03.05-.02h.26l.04-.01.04-.02.05-.02h.04l.06.02.07.05.05.04.06.04.05.03h.07l.08.03.1.03.07.01.09.03.06.02.08.05.09.02.11.03.09-.03.07-.01.1-.01h.14l.08.04.06.04.04.04.04.06.02.07.03.04.02.05.02.09.02.03.04.03.08.06.1.09.08.06.04.03h.14l.07-.02.07.02.12.07.16.12.1.08.12.07.12.06.12.14.1.16.06.1.05.08.04.05h.14l.07-.03.04-.04.08-.06.05-.02h.17l.12.01.07.03.07.05.08.05h.06l.1-.01.1-.05.1-.07.09-.04H399.06l.07.03.07.04.08.06.04.07v.33l.01.03.02.05.09.1.1.11.08.09.08.08.06.04.07.03.09.04.06.05.04.05.04.09.03.05.05.04.05.01.08.03.08.03.1.04.08.05.05.04.05.1.04.1.02.06v.04l-.02.08-.02.1v.09l.02.05.02.05.03.04.04.03.05.04.05.03.06.02.07.02v.24l-.09-.01-.03-.01-.31-.09-.04-.01-.07-.03-.03-.01-.04-.02-.03-.03-.1-.07-.52-.37-.07-.04-.07-.03-.04-.02h-.03l-.08-.02-1.08-.19-.65-.1-.3-.06-.08-.02-.08-.03-1.2-.41-.19-.06-.11-.04-.05-.01-.05-.01-.04-.01-.04-.01-.08-.01h-.05l-.67-.03h-.3l-.08-.02-.1-.01-.07-.02-.05-.01-.12-.03-.08-.02-.08-.02-.12-.03-.1-.01-.07-.01h-.09l-.09-.01-.14-.01-.63-.04-.09 1.4-6.74 2.26-3.43-4.82-.09-.12-.09-.13V942.86z"/>
      <path d="m756.5 187.6.16.29.14.31.15.24.17.27.15.24.2.23.2.29.2.26.27.38.18.27.15.18.08.23.06.36.07.32.14.41.16.5.18.4.16.33.11.37.12.33.17.44.15.41.13.3.15.23.17.18.15.11.27.16.3.17.28.2.29.24.3.33.35.44.4.47.18.18.2.2.26.23.23.3.26.38.16.32.19.3.1.22.15.32.11.35.1.43.06.4.08.38.17.27.08.14.07.23.03.27v.3l-.03.3-.07.42-.05.26v.2l.13.23.3.2.42.2.34.14.29.09.27.06.24.01.25-.02.2-.04.18-.01.2-.01.2.04.29.17.27.25.37.3.27.28.26.3.33.35.24.27.25.35.22.34.4.35.37.27.32.25.33.26.37.33.26.28.21.26.22.25.07.19.04.21.05.22.08.22.15.2.23.17.3.17.32.1.26.07.53.02.98-.01.25-.07.24-.09.2-.16.3-.44.15-.26.13-.24.05-.18V209.18l-.02-.34.02-.15.03-.32.08-.33.12-.25.13-.39.11-.29.1-.2.08-.31.06-.3.07-.55.16-.63.26-.88.28-.59.29-.63.4-.67.41-.53.45-.52.44-.45.44-.28.3-.08.41.02.3.15.24.4.08.28.04.16-.17.48-.24.41-.26.53-.22.4-.2.38-.07.29.01.36.11.17.2.22.3.15.4.12.3.16.34.07.34.02.58-.04.45-.24.4-.3.27-.25.42-.14.43-.05.3.07.33.18.32.25.28.23.24.2.39.15.54.16.46.1.42.09h.3l.42-.01.48-.1.4-.05.4-.01.39.07.26.16.36.27.65.04h.56l.83.03h.68l.4.04.34.15.57.24.43.14.55-.05.42-.16.54-.21.2-.25.1-.4.1-.43.2-.37.23-.3.45-.24.37-.16.5-.08.37.01.33.02.45.1.35-.02.37-.11.33-.15.34-.13.34-.02.45.1.54.41.4.37.45.28.44.24.52.07.64.12.78.26.57.12.7.2.45.17.66.37.7.22.91.16.67-.23.57-.08.79-.08h.53l.6.08.62.25.45.32.33.37.27.45.2.5.25.38.15.37.14.67.12.24.3.27.7.5.73.64.65.49.3.27.34.05.74-.13.6-.08.56.18.95.53 1.22.91.78.63 1.02.6.92.44.96 1.14.77 1.26.46.83.37.58.35.36.45.03.67-.09.55-.2.3-.25.58-.48.46-.18.54-.02h.74l.95.13.56.2.55.37.62.39.5.01.82-.1.78-.33.81-.55.63-.3.56-.06.62.08.58.16.6.33.57.5.34.5.03.53-.05.52v.64l.05.48.03.45.05.24.08.43.71.78.77.85.68.66.65.63.46.35.52.2.71.38.51.35.32.42.3.68.25.41.41.29.4.13.62.19.58.24.75.34.7.38.37.34.39.78.37.73.1.49-.05.38-.08.63-.13.7-.05.36.05.4.14.38.15.38.22.34.3.25.44.3.38.23.47.18.52.17v1.87l-.65-.1-.27-.08-2.45-.68-.28-.1-.56-.22-.27-.13-.26-.15-.27-.18-.8-.56-4.08-2.92-.53-.32-.57-.26-.3-.11-.3-.08-.59-.13-8.5-1.46-5.1-.86-2.47-.44-.59-.15-.58-.2-9.47-3.24-1.45-.5-.92-.3-.36-.09-.38-.1-.35-.06-.3-.06-.68-.08-.33-.03-5.33-.18-1.45-.05-.9-.04-.64-.07-.7-.11-.6-.14-.42-.1-.93-.26-.62-.16-.6-.15-.95-.2-.8-.12-.6-.05-.68-.04-.68-.06-1.15-.07-4.91-.32-.7 11.1-53.15 17.77-27-38-.67-.94-.71-.99-.01-.57V187.6z" map-type="inset-region"/>
    </g>
    <g region="17" value="1" short-name="Takhini-Kopper King" long-name="Takhini-Kopper King">
      <path d="m384.56 932.5.03.04.05.09.02.08v.14l-.02.03-.05.06-.04.03-.01.05-.02.06v.04l-.01.04v.04l.02.05.03.06.02.04.02.05.04.03.04.05.04.04.04.03-.11.01-.05.02-.05.06-.08.08-.02.1-.03.14-.03.12-.03.11-.03.07-.04.05-.05.05-.04.04-.02.04v.04l.03.06.04.09.02.12.04.17v.14l-.01.17v.19l.06.2h-.02l-.04-.02-.05-.01-.07-.03-.1-.02h-.04l-.03.01-.02.01-.01.01-.06.04-.04.03-.02.02-.03.03v.01l-.05.12v.06l-.03.08-.02.1-.07.14h-1.45v9.8l.1.13.08.12 3.43 4.82-19.5.74V934.52h15.61l.02.02.03.02.03.02.06.02.07.02.02-.02h.07l.12.03.08.01h.1l.04-.02v-.02h.01l.03-.02h.07l.01-.01h.06v-.02l.02-.01h.03l.04-.04h.02l.05.03.03.01.02.02h.05l.02-.01h.05l.02.02h.03l.02-.03.02-.01h.04l.04-.03h.04l.1-.06.03-.03v-.04l-.01-.02-.01-.06-.02-.05v-.03l.02-.02.03-.02.01-.05-.01-.04V934l-.02-.02v-.02l-.02-.01v-.04l.01-.01.03-.01v-.01l.01-.01v-.03l-.01-.02v-.03l-.01-.02-.02-.02V933.64l.03-.01h.06l.02-.03h.04l.02-.03V933.48l.03-.05-.01-.03-.02-.03v-.02l.01-.01.06-.04.01-.03v-.02l-.01-.01-.02-.04-.03-.02v-.07l.02-.03.02-.07.02-.03.03-.06.05-.04.03-.03.03-.05v-.02l-.02-.06v-.1l.02-.04.02-.04.01-.01.34-.02h.4z"/>
      <path d="m727.4 106.04.2.3.39.67.17.65.05.5-.03.62-.22.25-.37.42-.27.3-.13.33-.13.51-.05.3-.04.31v.3l.18.43.2.45.17.34.2.34.24.28.32.42.36.32.29.23h-.06l-.8.06-.39.16-.41.44-.58.62-.17.82-.24 1.11-.26.97-.2.85-.3.54-.3.42-.4.4-.3.24-.14.37v.28l.26.45.29.73.17.99.3 1.32-.06 1.08-.03 1.36.02 1.48.46 1.55-.13-.01-.38-.08-.36-.13-.54-.23-.75-.1-.22-.03h-.14l-.25.07-.12.08-.12.1-.44.27-.37.27-.16.16-.2.23-.05.1-.3.9-.1.46-.15.69-.21.81-.52 1.02h-11.41v77.22l.72 1 .67.94 27 37.99-153.52 5.8V121.9l122.8-.01.13.11.15.13.22.14.25.12.48.18.57.11.14-.09.21-.02.31.04.97.2.59.08h.32l.5-.08.29-.1.02-.12.1-.09.23-.1.16-.02.18.08.11-.03.1-.1.08-.04.15.02.17.01.1-.05.1-.1.12-.1.2-.05.32-.24.18-.01.34.2.23.11.16.16.15.06.16-.06.14-.02.14-.07h.32l.08.04.15.16.08.02.12-.05.2-.23.13-.1.34-.06.33-.15.29-.07.8-.38.21-.24.04-.12-.02-.2-.12-.22-.05-.43-.14-.4.04-.24.14-.18.18-.12.14-.37-.11-.37.05-.22v-.15l-.12-.12-.1-.22-.02-.1-.1-.13-.1-.18.03-.12.12-.1.21-.08.07-.07.03-.1-.03-.19-.07-.17-.02-.2-.04-.2-.12-.15.03-.25-.01-.27-.09-.2v-.13l.06-.1.23-.1h.45l.2-.18.12-.01.15-.07.16-.19.05-.13.03-.58.15-.38-.06-.2-.2-.3.06-.13.08-.11.43-.27.13-.24v-.14l-.1-.13-.14-.27-.27-.15-.05-.12v-.13l.06-.31.12-.26.22-.52.1-.28.24-.45.4-.3.26-.27.24-.39-.02-.19-.13-.43.06-.79.05-.35.2-.3.1-.1 2.64-.1 3.17-.07z" map-type="inset-region"/>
    </g>
    <path region="18" short-name="Mount Lorne-Southern Lakes" long-name="Mount Lorne-Southern Lakes" value="1" d="M442.15 925.38v74.46l-75.83.1V951.82l19.5-.74 6.75-2.25.09-1.41.62.04h.14l.1.01h.08l.07.02.1.01.12.03.08.01.08.03.12.03.05.01.08.02.09.01.08.01h.11l.19.01.67.03h.13l.04.02h.04l.05.02h.05l.11.05.19.06 1.2.41.08.03.07.01.31.06.65.11 1.08.19.08.01.03.01.04.02.07.03.07.04.52.37.1.07.03.03.04.02.03.01.07.03.04.01.31.09h.03l.09.02v-.24l-.07-.02-.06-.02-.05-.03-.05-.04-.04-.03-.03-.04-.02-.05-.02-.05v-.1l.02-.09.01-.08V948.5l-.05-.09-.05-.1-.05-.04-.09-.05-.1-.04-.07-.03-.08-.03-.05-.01-.05-.04-.03-.05-.04-.09-.04-.05-.06-.05-.1-.04-.06-.03-.06-.04-.08-.08-.09-.09-.1-.1-.08-.1-.02-.06v-.09l-.01-.06V946.93l-.04-.07-.08-.06-.07-.04-.07-.02-.08-.01h-.07l-.08.04-.1.07-.1.04-.11.02h-.06l-.08-.05-.07-.05-.07-.03-.12-.01h-.17l-.05.02-.08.06-.04.04-.07.02-.08.01h-.06l-.04-.05-.05-.07-.06-.1-.1-.17-.12-.14-.12-.06-.12-.07-.1-.08-.16-.12-.12-.07-.07-.02-.08.01-.09.02h-.04l-.04-.04-.08-.07-.1-.08-.08-.06-.04-.03-.02-.03-.02-.09-.01-.05-.04-.04-.02-.07-.04-.06-.04-.04-.06-.04-.07-.04h-.25l-.07.02-.08.02-.12-.02-.09-.02-.08-.05-.06-.02-.09-.03-.07-.01-.1-.04-.08-.01-.07-.01-.05-.03-.06-.04-.05-.04-.07-.06h-.1l-.04.01-.05.02-.04.01h-.26l-.04.02-.06.03-.03.04-.03.05v.05l-.02.05-.03.03-.07.03-.05.02h-.07l-.05-.01-.07-.03-.05-.02H392.95l-.07-.01h-.09l.18-2.77h.05l.03-.05.03-.06v-.1l-.02-.5-.94-1.13-1.42-3.44-1.9-4.64-3.75-5.16-1.43-1.97z"/>
  </g>
  <g map-type="insets">
    <text xml:space="preserve" style="font-size:26.6856px;line-height:1.25;font-family:sans-serif;stroke-width:2.66856" x="325.8" y="26.27" map-type="inset-texts"><tspan style="stroke-width:2.66856" x="325.8" y="26.27">Whitehorse</tspan></text>
    <path style="stroke-width:1.46278" d="M320 0v212.5h260V210H322.5V0H320z" map-type="inset-lines"/>
  </g>
</svg>
