<svg viewBox="0 0 799.59 1000" auto-border-stroke-width="5" auto-border-stroke-width-limit=".5" version="1.1" title="Norwegian 2021 Storting" candidates="[{&quot;id&quot;:&quot;0&quot;,&quot;name&quot;:&quot;Ap&quot;,&quot;margins&quot;:[{&quot;color&quot;:&quot;#DF1A22&quot;},{&quot;color&quot;:&quot;#F03D45&quot;},{&quot;color&quot;:&quot;#FC666C&quot;},{&quot;color&quot;:&quot;#FF9999&quot;}]},{&quot;id&quot;:&quot;1&quot;,&quot;name&quot;:&quot;H&quot;,&quot;margins&quot;:[{&quot;color&quot;:&quot;#87ADD7&quot;},{&quot;color&quot;:&quot;#9BBDE3&quot;},{&quot;color&quot;:&quot;#B1CEED&quot;},{&quot;color&quot;:&quot;#C9DEF5&quot;}]},{&quot;id&quot;:&quot;2&quot;,&quot;name&quot;:&quot;Sp&quot;,&quot;margins&quot;:[{&quot;color&quot;:&quot;#217121&quot;},{&quot;color&quot;:&quot;#499249&quot;},{&quot;color&quot;:&quot;#73B073&quot;},{&quot;color&quot;:&quot;#A0CDA0&quot;}]},{&quot;id&quot;:&quot;3&quot;,&quot;name&quot;:&quot;FrP&quot;,&quot;margins&quot;:[{&quot;color&quot;:&quot;#005194&quot;},{&quot;color&quot;:&quot;#3375B1&quot;},{&quot;color&quot;:&quot;#6698CB&quot;},{&quot;color&quot;:&quot;#99BBE0&quot;}]},{&quot;id&quot;:&quot;4&quot;,&quot;name&quot;:&quot;SV&quot;,&quot;margins&quot;:[{&quot;color&quot;:&quot;#A51818&quot;},{&quot;color&quot;:&quot;#BF3F3F&quot;},{&quot;color&quot;:&quot;#D46969&quot;},{&quot;color&quot;:&quot;#E69999&quot;}]},{&quot;id&quot;:&quot;5&quot;,&quot;name&quot;:&quot;R&quot;,&quot;margins&quot;:[{&quot;color&quot;:&quot;#E73445&quot;},{&quot;color&quot;:&quot;#F55363&quot;},{&quot;color&quot;:&quot;#FF7784&quot;},{&quot;color&quot;:&quot;#FFA0A9&quot;}]},{&quot;id&quot;:&quot;6&quot;,&quot;name&quot;:&quot;V&quot;,&quot;margins&quot;:[{&quot;color&quot;:&quot;#52BE29&quot;},{&quot;color&quot;:&quot;#71D34C&quot;},{&quot;color&quot;:&quot;#92E473&quot;},{&quot;color&quot;:&quot;#B4F19E&quot;}]},{&quot;id&quot;:&quot;7&quot;,&quot;name&quot;:&quot;MDG&quot;,&quot;margins&quot;:[{&quot;color&quot;:&quot;#67962E&quot;},{&quot;color&quot;:&quot;#86B152&quot;},{&quot;color&quot;:&quot;#A5C879&quot;},{&quot;color&quot;:&quot;#C3DDA3&quot;}]},{&quot;id&quot;:&quot;8&quot;,&quot;name&quot;:&quot;KrF&quot;,&quot;margins&quot;:[{&quot;color&quot;:&quot;#FFAE10&quot;},{&quot;color&quot;:&quot;#FFC233&quot;},{&quot;color&quot;:&quot;#FFD566&quot;},{&quot;color&quot;:&quot;#FFE599&quot;}]},{&quot;id&quot;:&quot;9&quot;,&quot;name&quot;:&quot;PF&quot;,&quot;margins&quot;:[{&quot;color&quot;:&quot;#FFA07A&quot;},{&quot;color&quot;:&quot;#FFB08E&quot;},{&quot;color&quot;:&quot;#FFC1A5&quot;},{&quot;color&quot;:&quot;#FFD4BF&quot;}]}]" country="nor" type="storting" date="2021256" variant="blank" original-source="[&quot;https://kartkatalog.geonorge.no/metadata/f08fca3c-33ee-49b9-be9f-028ebba5e460&quot;]" xmlns="http://www.w3.org/2000/svg">
  <g map-type="regions" transform="translate(-100.2)">
    <path region="0" short-name="Buskerud" long-name="Buskerud" value="8" d="m317.12 874.99.46 1.81-.18 2.22.41 3.94 1.52 1.1.93.13.43 5.54-.17 1.89-1.14 1.29-2.21 1.36-1.97.33-2.31-.17-.3-.97.81-1.74.77-4.52-.38-1.49.48-1.94-1.04-1.79-1.61-1.53-1-.17-1.08-1.02-1.32-2.07-1.23.65 1.09 1.5.64 1.62 1.2.8-.75 1.68-1.54-.53-1.5.53-1.15-.55-1.43.23-1.45-.37-1.16 2.02H299l-1.34-1.29-1.09 1.73.17 1.1-1.9.9-.57 1.56 2.27 4.07 1.27 1.47 1.1 3.03-1.47.54-2.93-.51-.99.88-2.55-.4-1.23-.92-1.74.78-.15 3.37-2.83-.2-1.68.15-1.25-1.38-.04-1.02-1.24-1.02.01-1.18-1.1-1.66-3.08.13-.05-.92 2.04-3.12-1.52-1.57-1.33-6.41-.54-1.37.15-1.92-2.66-.85.97-1.83-.16-2.94.83-1.52-1.14-1.27-3.4-1.64-1.77-1.29-.02-2.9.85-3.78-.41-.95-1.44-.9-1.18-1.58-1.69-.38-1.32-1.78-.9-2.24-.04-4.2-1.03-2.5-3.84-4.03-3.85-2.9-2.42.6-3.47-.73-3 .34-3.7-1.3-3.75.08-2.7-1.27-3.92-.07-1.88 1.32-5.3 1.43-4.29 2.13-1.68-1.19-4.32-1.3-6.1 1.42 4.17-5.32 1.56-4.98 2.79-3.48 1.85-9.74 2.18-6.9-2.03-1.46-1.04-1.79-.35-2.8.82-2.68-3.06-2.2-3.9-.64 1.25-1.02 5.88-4.51 2.47 1.2 1.73-2 .07-2.18-.6-.27 4.44-7.34 1.95-1.54 1.04-.2 1.82 2.22 1.66-.15 2.14.86 4.15-5.55 3.04.67.55-1.88 2.11-2.76-2.3-1.79 1.5-1.35 2.2-1.11 1.74 3.45 2.54 2.3 2.41.44 1.7 1.3 1.6 1.75.75 1.63-.5.68 2.44 2.23 4.21 2.27 2.74.56.8 2.57.66.26 5.2 3.8 2.05.92 1.6 1.41.7 1.52 2.67.89 1.28 2.51-.77 3.54 1.12 1.2.1 2.14.64 1.49 1.43.63.42 1.05-.97 1.4.13 2.44 2 1.47h3.71l1.07-.25.28 2.35-.4.45 2.42 1.6 4.32 2.49 1.1-.08.05-2.73-.37-.87.18-3.9.94-1.7.7.86 1.1-1.03 2.42-1.25-1.3-2.45 2.2-.1 2.63.64.94 1.9.8 3.67 1 1.88 1.03.89.4 4.02.44 7.24 1.25 2.65 1.29 3.68 1.3 2.38-.44 1.31.7 1.3 1.6.47 3.54 3.16.66.97 2.4.7.96 1.25.37 1.38-1.12 1.04.6 1.75-.5 1.3-3.72 4.17-.35-1.14-1.6.06-.8 1.58.1 1.53-2.5 1.3-.47 1.23.77 1.67.11 1.4-1.22 2.52-.8.13.05 1.85.59.8.04 2.63-.58.73 3.3 1.5h1.36z"/>
    <path region="1" short-name="Østfold" long-name="Østfold" value="9" d="m330.8 928.47.65 3.06-.95 1.15-.68-2.06zm3.54-.24 1.26.77.59 1.23-1.41 2.72-1.49.28-1.1-.42.63-2.2-.5-1.58zm-3.56-1.07-1.06 2.9-1.27-.6 1.89-2.35zm-1-1.54-.04 2-1.48 1.7-1.32-.28.56-1.8zm1.42-5.33.27 1.89-.72 2.38-.97-.07-.49-1.3.52-.7-.9-1.46 1.25-2.07zm-9.71-23.85.85 1.53-.66.85-.5 3.23-1.87.92-.53-1.5.9-.3.76-3.02 1-.57zm49.47-18.55.15 7.2-1.92.01-1.42 3.3-2.93.26-2.27 1.2-.92 1.2-.33 1.43 1.14 5.92.62 1.53.37 2.5-.07 2.2.45 1.1.12 2.09 1.24 3.18.15 7.67-1.93 2.64-.44 2.62v2.6l-.63 1.58.62 1.17-.28.95-2.67 3.82-1.13 3.41-.03 2.39-1.24 1.78-.34 1.83-.79-.22-1.64 1.26-1.4-.7-1.14 1.6-.96-.98-1.53-.1-.06-2.03.35-1.23.1-2.97.55-1.02-.97-2.88-1.4-2.5-1.03-3.2.1-1.37-2.11-.15-1.27 1.18-2.53.83-.37-1.71-1.4-1.3-.2-3.17-2.38 2.57-2.68-.46-.92-3.23-.55-.73-1.53.25-.26-1.55-1.04-1.06-2.28 3.32-1.56 1.08-.37-3.03-1.56-2.95-1.27.38.87-2.65-.15-1.77.6-2.02-.13-1.86-2.64 2.34-.72-2.36.3-3.1-.46-1.25.4-2.96.63-.6.87-3.33.88-.08.58 1.43 2.13-1.64-.19-1.12.66-1.86-.5-1.23 1.36-.87 1.59-.29.39-1.21 2.11-2.43 2.24-1.43.75-1.37-1-1.03.8-2.35 2.29 1.1 3.72-.52.7 1.26 3.01.4.04-1.71 1.17-4.7 2.76 1.03 1.61 2.35-.3 2.1 1.87 1.98 1.25.15 1.7 2.94-1 .75-.11 1.72.58.59 2.08-1.73-.42-1.57 1.51-.27 3.1-2.01.79-1.8 1.54-1.65-.88-1.55 1.59-1.08 1.25-.3 1.47-1.6 1.89-.12 2.4.44z"/>
    <path region="2" short-name="Hordaland" long-name="Hordaland" value="16" d="m135.08 859.09 1.62 1.46.41 1.94-2.7-1.27.06-1.52zm-12.37-.35 1.65 2.43-1.68 1.03-1.6.36 1.62-2.76zm-4.71-1.89 1.35.42-.24 2.8-1.36 4.26.51 1.11-.2 2.04-2 1.65-.81.05.64-3.94-.97-2.1.25-1.59 1.03-1.57-.05-1.3zm17.64-3.02.7 1.88 2.34-.87-.1 1.25 2.2.47 1.18 1.75.04.97-2.04.05-1.11 1.92-.95-.23.71-3.93-2.73-1.04-1.34-2.08zm-1.3-4.25.1 1.06-.84 1.06-1.23-.89 1.06-1.95zm-18.55-2.72 1.23 1.12.37 1.04-1.32 1.11-1.58-1.24-.02-1.27zm1.92.03 1.23.54.8 2.24.97 1.7-.55 1.34 2.12.29.26 2.47.9 1.13-.21 1.29-1.33.84-1.36-.3-.23-1.05-1.84-1.76-3.03.21-.93-1.55 1.11-2.42.92-.5 1.58-1.85-.67-1.16zm17.3-.88.55 1.23-.64 2.07-1.36-1.3zm-10.11-6.19.23.85 1.27.23 3.16 3.18 1.43 2.31.48 2.6-.1 2.1-.63 1.65.12 2.29-.82 1.1-2.53 1.82-1.64-.5-.27-.76-1.75-1.77.58-1.03-.52-1.68-.8-.35-.9-5.17.62-2.41 1.21.13.76-1.5-.1-1.02-1.34-.72zm-4.61-3.47 1.02 2.27-1.18.89-2.04.26-.66-.45-.52-2.05zm-5.37-.88 2.06 1-1.1 1.91-1.12-.86.86-1zm24.24-1.1.77.6-.1 3.53-.5 1.98-2.79 2.33-.6 2.5.97.76.1 1.06-.94.46-.98-1.71-.8.33-1.48 1.75-.84-.56-.54-3.84-1.08.05-1.4-2.06-1.91-1.55.65-1.2.9-.08 1.11 1.18 1.1.35-.16-2.87.8-1.76 4.42-.6 1.26 1.05.37-1.18zm-10.23-1.39 1.06 2.48.07 1.28-.72 1.42-2.51.34-.72-1.96.9-1.69.24-2.16zm22.93-3.05.85-.22 1.45 1.51-1.24 2.86-2.12 1.53-1.12-.75-.52-3.28 1.86-1.56zm-29.1-1.28 2.33 4.67-.32 2.62-1.34 2.38-1.87-1.01-.74-.84.28-1.65-.7-.3.6-2.06 1.56.56-.66-3.93zm-4.94-2.19-.07 1.3-1.1.03-.52-.89zm2.62.01-.37 1.02.9 2.52-1.27.53-.16-1.92-.7-1.29zm8.02-.9-.19 1.99-1.02-.17.28-1.77zm-10.68-4.12.49 2.7-.89.77-.67-1.86zm-2.15-11.87.58.84-1.07.86-.76-1.34zm6.15-2 1.42 1.02.15 1.79-.96 2.3-.85-1.37-.04-1.66-1.17-.77zm-3.75-4.05.46 1.1-.53 1.05 1.24 1.08.46 2.36 1.81 3.2.41 1.34-.44 3.04-.83 1 1.06 3.66-.49 1.96-2.26.94-.7-2.64-1.33.13-1.82-1.9.24-2.06-.87-.48.16-2.3 1.56.23 1.11-.9-.74-3.1.27-2.5-.44-3.53.83-2.03zm-1.47-4.32.71.25-.21 2.63-1.18-.1zm2.2-4 2.46 2.57 1.27.5 2.68 1.78 1.67 2.2-.2 1.82.26 3-1.42 1.07-1.41.5-.9-1.78.03-1.16 1.2-.85-2.3-.74-.98-1.66 1.05-1.61-1.38-.48-2.3-3.47zm-3.6-.69.87 2.22-.8.87-1.13-1.38.18-1.31zm-.2-1.54-1 2.15-.77.06-.69-1.39zm3.26-2.4 1.97 1.18 1.76-.37 1.51 1.43 1.8.62 2.18 3 .88 2.25-1.01 1.67-2.68-2.15-3.56-1.58-1.28-2.1.5-.86-2.07-2.19zm-3.21-.97-.75.83-.15 1.95-1.77-.68.32-2.5 2.02-.47zm30.48-.92 1.36-.08.66 2.22-1.18 3.41-.02 1.52-.86 3.15-.75 1.83.03 3.81-1.87.21-1.53 1.17-.83 1.41-1.68-.2-1.22.58-1.11-1.56-2.14-3.7.2-.85-2.12-1.78-.53-1.7 1.88-.36 3.2-1.4.66-1.75 1.05-.69 2.93-.1 1.65-3.5.9-.99-.54-1.1 1.31-.7zm-31.83-2.3.83 2.04-1.63.66-.11-1.96zm4.55-5.48 1.74 1.69 1.6.28 2.58 2.92.7 1.54-.08 1.33 2.2 3.18.51 1.4-.25 1.83-1.96-2.68-1.75-.42-.36-1.04-1.66-1.33-.86-1.7-1.93-1.64-1.08-1.66-.05-2.34zm-6.91-4.25 1 .21.29 1.9-1.2.5-.5-1.41zm8.14-.96.21 1.78 1 1.41.2 1.47-.72 1.66-2.35-2.4-.87-2.08.73-1.4.9 1.02zm-.7 101.09-1.45-1.36-.69-2.08.52-1.78 1.9-1.05.4-1.83 1.46-.97-.2-1.07 1.11-.7 2.7.24 1.61 1.96.65-1.1-1.86-3.18 2.95-2.92 2.14-1.3.25 1.22-1.08 4.71-.82.86-.2 3.35.4 1.52-.96.96-.97 2.58-1.69-.1-.16 1.64-2.64.14-2.99.75zm21.39-9.41-.91-.49-.25-2.55 1.64-1.38 1.38-.09.17-1.28 3.1-1.06 2.24.4.88.67 1.02-.43 1.63.9 1.01-.67 1.4-2.59 1.5-.32 1.53-1 1.47-1.7-.74-.42-1.7 1.52-2.65 1.76-1.07-.43-.47 1.28-1.5.99-1.18-.05-1.43-1.06-.62-2.06-1.52-.43-1.54 1.64-1.75-1.75-1.13-3.07-.65-.56-1.75.24-1.53-1.36.6-.85 2.03-.54 1.45-1.11-.22-1.44 1.26-1.79.72-.3 1.66.46.98-.94 1.77-.57 1.7.81.94-.71.9-2.05-.82-1.13 1.85-2.73-.01-.82 1.15-1.27 2.88-1.62.97.27 1.55-.58 1.01.19 1.2-.77 3.05-.46-1.97-1.08-2.24 1.44-1.2-.03-1.32-2.4-1.21-3.9 1.85-1.87 1.94.53.71-.67.5-2.02 1.24-.27.82-3.05 1.45-.01 1.67-1.02 1.43-1.97-.02-1.25 2.63.1 2.9-.75.95-1.95 1.93-1.57 1.96.86 1.78 1.72-1.04 1.47-1.02 2.26-.23 1.35-.78.8.07 1.14-2.35 4.77-.08 1.98-1.32 3.3-.91 4.38 1.43-2.02.33-2.12 2.44-4.94.27-2.72 1.92-3.46-.06-.97 1.65-3.29 2.06-1.61 1.11-1.92 1.82-.95 1.7-1.6 1.47.64 2.14-.02 1.96-.62 1.24.53 1.01 1.2.48-1.72-1.87-1.34-1.6-.12-1.43.66-.61-.4 1.4-1.57-.62-.91-2.2 3.05-1.45-.47-3.2 1.13-.07.64-2.9 1.93-.73-1.26-1-.55.1-1.21-2.27.61-1.73-.32-2.2 1.25-2.3.1-.83 1.24-1.32-.02-.55.73-2.55.75-1.2.87-3.39.28.67 1.19 1.02.27.28 1.1-1.66.56-.47 2.16.64 1.05-1.82 2.47-.57-.65-2.08-.41-1.65-1.8-.64.25-.68 2.82-1.81 1.15-1.22 4.16-1.88 1.27.32 2.67-.18 2.81-.71 2.2-.82 1.23-3 2.05-.33-1.35-1.58 1.2-1.57-2.9-.18-1.74.64-2.62 1.53.43-1.1-2.67.93-1.32.85.04-1.02-2.49-.08-1.14-1.17-.5-.41 1.02-3.03.98-.99-1.13 1.02-1.2.5-1.47 3.4-3.44-2.17.2-1.32-1.3 2.23-1.75 1.44-4.18.97-.45.76-1.63 1.88.18.96-1.33-1.9-1.01-.02 1.38-1.25.46-1.09 1.86h-.9l-1.42 3.8-2.37 2.31.2 1.1-2.05 3.2-2.6.83-.69 2.42-.97-1.23-1.74.71-.46-2.26-.97-1.35.33-.93 1.71-.16-.33-1.19-1.21-.14-2.1 1.08-1.4-.4.35-1.02 1.5-.66 1.94-1.48-2.2.06-1.3-.77-1.02-2.3.87-2.06 1.55.13-.23-1.08-2.43-.96.1-2.43 2.86-1.47.67.6 1.87.29.49-1.38-1.12-2.03.48-.93-1-2.59.54-1.73 1.58-1.37 2.47 1.76 2.2 4.6.47-.05 1.43 2.36 1.83.41.83-.48 1.6.4.94-1.94.99-.33.92.8 1.56-.03.23-1.22.12-5.14 1.1-3.95.84-4.76 2.18.58.77 3.23 2.4-.55-.76-.8-1.24.94-1.05-2.8-1.21-.97-1.05.04.03-1.84 1.04-.71-3.02-.58-.2-.96.81-1.52 1.8-1.26-.58-.75-1.1 1.44-4.97 3.85.07 3.08-1.35 1.1-1.7-.54-2.4 2.06-1.9.66-.43 1.17-1.7.18-1.8 1.3-2.21-2.05.01-1.76-.53-1.68.23-.89-2.2-2.04-.75-1.16.69-1.44 2.27 1.9 1.3.35-1.57-2.88-1.31-1.01-.91-2.33-1.39-2.1-.44-1.97-2.54-2.46 1.15-.61 1.13.46 1.42 1.3.38 1.16 2.15.83 1.68 2.16 1.74.66 2.53 1.81.79 1.67-.47 1.66.95.78 2.42 3.63.55-.25-2.36-3.58 1.12-.8.77 1.73h1.07l-1.43-2.13-.8-1.87-1.8-2.45-.58.2-1.78-1.52 1.62-2.43 1.21-.84 1.66-.45-.58-1.44.8-1.59 1.86.14 2.24-.49 1.62 1.28 1.48-.67-2.47-.77-.82-.7-2.08.52-.85-.36-1.8.92-.67 2.5-.96.86-1.15.1-.65-1.62-2.04-.11-.31-1.22-1.84.15.22-1.8 1.23-1.2.08-1.31 1.26-.47 1.29-1.11 3.08.24.5 1.35 2.21.17 1.22-.88 2.16-.14.07.95 1.79-.45 3.73-2.97 1.09-.03.52 1.31 1.29.72 1.02-1.05 2.64-.63 1.77 2.78 1 .18.84-2.1 1.34-2.17.43.28 3-1.57 1.06.73.69 2.22 2.45 1.64-.9 3.2.58 1.31 1.84.85 3.09 2.95 3.46-3.21 1.85.72 1.67-1.62.74.3.25 1.75-.62.84 1.36 1.54 1.14-.12 1.23-1.45 1.45-.08 1.12-.88-.12-1.98 1.17.35.82 2.19 1.14-.22-.19 1.79 1.68-.78.92.98-.26 1.45-2.55.93-1.27 2.63 1.94.81 1.74-.24 1.39-1.26 2.94 1.5-.65 1-1.55.62-1.3 3.47 1.9-.27 2.11.7-.26 3.73 1.34.82 2.53.46 1.17 1.33 1.3.21.67-.63 1.53.2 3.84 1.6 4.86 1.36-1.26 1.02 3.9.65 3.07 2.2-.82 2.67.35 2.8 1.04 1.8 2.03 1.45-2.18 6.9-1.85 9.74-2.79 3.48-1.56 4.98-4.17 5.32-2.05 2.9-.56 2.81-4.63 1.98-1.27-.33-2.18 1.67-3.95 5.76.33.85-.77 1.1.55 1.38-.77 1.76-2.1 1.94-4.56.26-6.51 2.93-1.87 1.28-2.31.35-1.98-.82-.04-1.25 1.91-3.64-.33-.96.74-3.6-.95-1.18-2.15.58-1.24-.04-1.07-.98-2.13 1.42-1.82.82-.78 1.15-3.73.14-1.1.93-1.33 1.9-.58 2.7-1.69.62-.85 2.64-1.73 2.86-.1 2.16-2.46-.27-2.09-1.26-.7.45-2.88.52.2-1.39-2.5-1.4-.15-1.09-2.1-.74z"/>
    <path region="3" short-name="Oslo" long-name="Oslo" value="20" d="m327.44 872.68.83-2.33-.29-1.33-1.53-2.56-2.13 1.05-1.15-1.36-.55-.86.45-2.29-.76-1.79-.74-.2-1.2-1.44-1.4-.29-1-1.41 3.73-4.17.5-1.3-.6-1.75 1.12-1.04 2.97.05 1.25 1.13.83-.4 1.62 4.46 1.17.32-.2 1.98.57 2.34 1.98 2.09 1.23-.15.58 3.08-1.32 2.29-.48 3.1.75 2.52-2.03 1.78-2.34-.65z"/>
    <path region="4" short-name="Sogn og Fjordane" long-name="Sogn og Fjordane" value="4" d="m118.5 767.86 1.48 1.1.55 3.2-1.91-.24-1.09-4.45zm2.96-.65.53 1.27-.18 2.05-.72-.08-.92-3.87zm2.43-.43.47 2.53-.39 2.17.18 1.84-1.85.37-.53-1.36.51-3.73-.11-1.04zm-.62-5.67 1.81.81-.05 2.4-2.63-.1-.68-.43.3-2.46zm-1.9-5.19.35 2.4-1.33.05.34-2.24zm-6.34-2.38-.36 2.48.27 1.8.62.8-.74 2.7-1.9-.44-.83-2.84.28-2.15 2.13-1.15zm3.1.21.85 1.02.01 1.48-.6 1.66-2.07-.09.56-4.28zm10.05-3.4 1.1 2.22-.1 1.72-2.12-.75.37-2.54zm.02-2.54 1.05.52-.42 1.74-1.03-.61zm-4.81-1.84.97.8 2.44.77-.43 1.93.53.45-.25 4.38-.67.93-2.31 1.07-1.06-.13.02-1.67-2.2 1.4-.25 1.94-.95.12-.47-1.09.77-.72.14-3.88.57-2.94 2.32.03.12-1.89zm-5.36-8.95.77.87.25 1.65-1.95-.18-.23-1.23zm8.49-3.34 1.08 1.26 1.81-.37.05 3.75-2.05.09-3.05-1.83-.14-.64zm7.31-8.57.78 1.51-.51 1.08-1.92-.83-.05-1.2zm-5.57-3.1 1.38 2.22-.51.87-1.24-1.22zm6.18-1.84 1.62 1.18.9 1.44-3.32-1.27-.57-1.08zm-8-3.99.93.18-.38 1.42-2.17.28-.87-.45zm2.04-7.54.25 3.88-1.88-.03-.56-1.9 1.34-1.68zm.06-7.17 1.2 1.44.32 1.2-1.95 1.58-.27-1.8-1.52-1.44zm14.66-3.55 2.79.25-1.15 1.37-1.78-.56zm-10.43-3.26.55-.01 1.8 1.67 4.47 1.9 2.83.83 1.05.74-.55 2.1-1.75-.28-3.05.2-4.72 2.54-2.23-.75-.59-1.54.97-1.01.85 1.08.81-1.54-.6-.58-1.65-.1-.32-.83-2.64-.87 1.67-1.34 2.03-.17.35-1.73zm3.41-.6 2.15 1.66-1.05.6-1.89-1.71zm10.03-6.14 1.11.77-.65 1.32-1.62-.78zm-9.97-2.36 1.26.86 1.37 2.1 1.39-1.62.78.43.4 2.35-.81.44-.1 2.08-1.43 1.99-2.66-.86-.6-1.24.93-1.02 1.3-.32-.85-1.34-1.02-.11-.57-2.28zm-8.43 89.46-1.5.55-.95-1.76-.34-2.93-.48-.66.51-2.44-.85-.54.11-1.99.88-.16 1.46.91 2.12.02-1.96-1.78-.92-.08-.29-2.39 1.24-3.66 2.23-.56 2.5.53 1.31-.35.83 1.03 1.74.22 1.08 2.85 1.97.27 2.03.84 1.57 1.55.48-1.22-.2-1.75 1.64-1.17 1.6.32 1.6-1.24 1.7 2.15.77-.46-1.98-1.75 1.68-1.2 1.53.88 2.67-.59.97-1.2.95.75-.6 2.55 2.1-2.26 1.1-.78 2.85.41 1 .9 3.1 1.24 1.16-.48 2.49.49 1.01 1.28 2.11.26 1.22 2.13 3.1.81-.13.92-1.3 2.02.55.39 1.5-2.24.18-1.08 1.17-.72 1.46.08 1.42-1.32 1.29.49.77-.44 1.56-3.1.48-1.77 2.37 2.09 2.13.24.51.62 2.59.14.73 1.3-.15 3.1 1.95 1.3.74-.96 1.56 1.72-.12 1.57.63 3.7-.91 1.4 1.85.98 1.22 1.56 1.55 1.1-.4 3.53 1.07-.83.71-1.49-.48-2.08-1.94-.66-1.18-1.5-1.1-5.7.55-.83-.52-2.06 1.66-1.7 1.05.54 2.4-.58 2.12.16.98-1.82 1.17.38 1.96 1.82 1-.26 2.22 2.1-.22-2.61.41-1.33 1.53-1.55 2.45-.92 3.09.35 1.53-.82 1.45-1.84-1.04-.74-1.01 1.86-7.22.32-1.27-.72.03-4.23-.76-1.46-1.37-1.57 1.77-.74 1.58-1.63v-1.45l2.01-2.75 1.75-.77.76-2.13-1.78-.17-.68 2.02-2.5 1.12-2.96-.3 1.7 1.77v1.9l-3.36 2.63.39 1.93 1.69 1.22.21 5.16 1.25 1.2-1.12 1.07-1.5.64-2.7-1.45h-1.83l-1.8 1.65-2.55.42-1.58-.19-1.54.83-1.57.3-.88-2.2 1.09-.61 1.4.27 2.37-2.76-.97-.13-1.33 2.33-2.95-.6-.68-1.1-1.35-.94-4.77-.38-.53-1.29-2.35-1.21-1.14.07-.34-1.53.5-1.1 1.11-.42 2.31-1.94.23-1.23 1.68-2.77 1.02-.73 1.31-4.97-.91.86-.01.98-1 2.53-2.3 2.51-.81 2.25-2.79 1.86-.57-1.15-1 .5.4 1.52-1.44 3.41.29 2.64-.27 1.62-2.7.5-.07.92-3.24-.04-2.85-2.34-1.05.04-1.13-1.94-.92-.77-2.5.6-3.12.1-1.51-1.54.6-.66 1.6-.34-.23-1.06-2.07.75-1.47 1.08-3.46-.17-1.63-.74-.62.28-2.61-.82-.4 1.64-.82.45-1.07-.92-1.66-.07-1.14.58-2.03 1.8-1.49.03-3.65 2-.92-.07-.1-1.34-1.14-1.24-.33-1.66-1.82.78-2.23-.33.95-2.54.8 1.2.98-.4-2.9-2.38-1.2 1.07-3.12-2.91 1.08-1.6 1.6.06 2.48 1.58.7 1.18 2.34-.83-2.62-2.51-1.52-.76-4.06-.14-1.76-.39.75-1.24-1.48-1.72.26-1.87 1.76-.06 1.35-.7 2.07.36 1.51-.18 2.28.26-.6-2.16.18-.96 4.12.06 1.74.34 1.65-1.47-3.02-.3-5.33.84-.59 1.28-3.2.32v-1.27l-1.04-1.74.3-2.46 1.55-.59 1.15.6.4-1.23-.98-.87-1.27.69-1.91.3-.67-1.03 1.05-.86 2.82-1.04 1.77-.1 4.08.4.46-1.77 2.72 1.91.75-1.06 2.7.53.04.95 1.47.98.35.85 2.28.53 1.77-.98 1.36.4 2.23-1.47 1.04-1.1 1.45.32 1.48 1.1.73-.52-1.84-1.32-1.51-.54-3.14 1.3-.5.95-2.3.37-2.95.1.09-2.28-1.86-.71-2.27-.1-2.42-1.17-1.41-.24-1.02-1.13-1.15-.37.56-3.14 1.05.32.97 1.11 1.93.37 1.29-.47-.5-1.36-1.1-.41-1.6-1.36h-.93l-.7-1.12 2.76-.44 1.7.28 3.2 1.43-1.13 1.04 2.7.96.2-.9-1.14-1.58-2.46-1.25-1.04.18-1.63-.48-2.42-.1-4.13.5-.16-1.5 2.2.93 2.4-.6 1.64.42 1.35-.53-4.6-.97-1.65-1.02-3.99.22.77-1.52-1.1-2.3.76-1.93-.18-1.47 2.63-2.18.92.16 1.84 1.39 1 1.58.31-2.32 1.88.09 1.83-.38.1-.87-3.37-.08-2.32.52.22-1.15 2.47-1.97 1.77.11 1.34-.44 2.45-.2-.4-.79 1.9-.95-1.22-1.28 3.28-2.75 1.8-.43 1.08 1.03 2.39.45.17 1.28 1.85-.55 1.8 1.07 1.97.59.82 2.06-.08 1 2.39.63 1.76-.75 1.8-.06 2.58 1.6 1.84.02 2.73 5.77 1.46 1 1.25-.5-1.82-2.53-1.66-1.87 2.45-.4.84.2 2.2-.69 1.64.15 1.38.8 1.53 1.93 3.02 1.34 1.96-.1 1.42-1.39 1.75-1.05-.38-1.8 3.4.2 2.32.99 1.22 1.23 1.35-1.24-1.45-.3-.76-.79-1.83-.42-.61-.73-2.12-.32-2.73.6-.95 1.34-.55 1.76-2.94-.02-1.37-.58-2.31-2.34-3.33-.46-.85.38-2.76.28-.64-.81-2.5-1.88-2.77-.16-1.24-.53-2.28-.13-.9.71-2.07-.86-1.2-1.9 2.75-.06 1.24.45 1.94-.14 2.23.58.7-.87-2.5-.92-1.85.28-.46-.42-2.84-.55-1.92.37-2.8-.86-.6-.57-2-.24-3.16-.8-.21-1.08-2.13.32-1.38 1-4.15-.15-.48-.44-1.75 1.18-1.57-2.29 1.55-2.62.11-1.3 1.52.46 1.6-.43 1.02.5 2.21-1.07 1.11-4.49-.93-1.49-1.6-.96-.37-1.07-4.4-.77.22-1.88 1.19.55-.11-1.86-1.34-.7.6-1.08-.53-1.43.43-.7 1.45-.19 1.12.58 1.4-.73 1.05 2.4 1.84 1.07.46.94-.73 2.54 1.1 1.65 1.23 1.01.29 1 1.15.57 1.34 2.78-.21 1.78-1.1 1.53 2.6 2.82 6.17-.58 2.67 1.43 1.48-.35 3.18-1.3 1.3.37 1.43 1.63.68 1.5 1.08-.75.8.63 1.99-.62-.21-1.05 1.42-.35.56-1.17 2.6.74-.9.92 2.44 2.38h1.75l1.66-1.13.06-1.48 1.05-.68 1.18.48 1.38-.4-.02-1.38 1.21-.1.41-1.02 1.4-.15 1.83.65 1.16-1.17.7.72.87 2.38 2.13 4.25.1.84 1.58.69.5-.86 2.6-.12 1.29-.4.77.66 2.4.09 1.3-1.45 3.97-.34 4.13.4 1.23.92 1.07.48.41 1.94-.75 3.3.53 3.2-.36 2.52 2.1 6.21.66 1.44-.32 2.45 4.2-.57 1.96.12 2.5-.63 3.06 1.22 2.17 1.85-1.08 5.77.99 3.22.13 3.46 2.32 1.48 3.48 1.69 2.96-1.57 2.26 1.28.56 3.4.97 2.64-1.88 1.66-2.15-.15-.73-.72-1.6.74.1 2.98-.25 1.17.82 1.21 2.23 1.9-.38.94-1.3 1.13-1.22-.16-1.76 2.53-2.62 1.3-.7 1.07-.17 1.57.75 3.82 1.79 4.15 2.35 1.58 1.26 1.48-1.5 1.35 2.3 1.8-2.1 2.75-.56 1.88-3.04-.67-4.15 5.55-2.14-.86-1.66.15-1.82-2.22-1.04.2-1.94 1.53-4.45 7.35.6.27-.07 2.17-1.73 2-2.47-1.19-5.88 4.5-4.86-1.34-3.84-1.61-1.53-.2-.67.63-1.3-.2-1.17-1.34-2.53-.46-1.34-.82.26-3.73-2.1-.7-1.9.27 1.3-3.47 1.54-.61.65-1-2.94-1.5-1.4 1.25-1.73.24-1.94-.81 1.27-2.63 2.55-.93.26-1.45-.92-.98-1.68.78.2-1.79-1.15.22-.82-2.2-1.17-.34.12 1.98-1.12.88-1.45.08-1.23 1.45-1.14.12-1.36-1.54.62-.84-.25-1.75-.74-.3-1.67 1.62-1.85-.72-3.46 3.2-3.1-2.94-1.83-.85-.58-1.31.9-3.2-2.45-1.64-.69-2.22-1.06-.73-3 1.57-.43-.28-1.34 2.16-.84 2.11-1-.18-1.77-2.78-2.64.63-1.02 1.05-1.3-.72-.51-1.3-1.1.02-3.72 2.97-1.8.45-.06-.95-2.16.14-1.22.88-2.2-.17-.5-1.35-3.1-.24-1.28 1.11-1.26.47-.08 1.32-1.23 1.2z"/>
    <path region="5" short-name="Hedmark" long-name="Hedmark" value="7" d="m367.85 873.99-.07-1.69-.9-2.94-.14-1.34.73-.77-.95-1.92.77-2.48.93-.62.24-1.34-.72-.6.21-2.13-1.33-.07-.18-2.82-1.58-.55-2.9-2.1-2.3-3.09-.84-1.85.81-1.34.02-2.46.9-2.2-2.95-2.28-1.53-2.8-1.52-.66-.4-2.13-.57-.7-.43-1.96-1.45-4.3-1.62-.83-1.9-2.34-1.17-.55.5-2.77-.06-1.62-2.05-3.21-.8-2.1-1.2-2-6.56-5.67-1.37-1.68-3.08-1.26-1.52-1.34-1.25-3.15 1.23-3.56-1.2-2.26-.87-4.03-.55-1.16-2.35-2.24-1.76-.85-1.61-1.75-.85-2.76 2.45-.02 2.33-1.4 2.43-3.26 1.05-2.3 1.86-2.35.7-.46.92-2.48 3.93-1.97-2.77-10.58-2.27-5.16 1.02-2.17-.92-4.35-.39-3.13.01-8.1-2.01-2.84-3.27 1.58-1.33 1.16-1.93 2.5-3.79-3.67-3.43-.74-4.8-2.76 3.1-5.95 1.48-3.35-1.28-.41-1.17-1.7-1.03-.55-1.57.04-.08 1.92-3.28-1.57-2.5-.34 1.05-3.34-.73-4.86 1.48-1.92 1.77-.31-.37-1.72-1.44-2.06-3.35-2.4-3.9-1.52-2.06-3.58 1.07-1 1.1.26 1.41-1.46 1.63-2.9 2.69-2.01 1.28-.74.74-2.97.05-1.7 2.01 1.5 1.24-.72.82-1.9.04-1.19 5.22-1.9-1.61-5.78-.81-4.19 1.19-.63-.31-1.36 1.72-1.1 1.92-4.53 2.13-2.29 5.1.5 9.02 3 2-.82 2.1.93.87 1.6 1.95-2.4 2.1-.9 2.65-.08 3.83 2.45 2.75.55 1.16 1.14.08 2.55.93 1.5-.1 1.75 1.27.08.55 1.44v1.46l2.9 1.51.97 1.61 1.95 1.15 1.98 3.3 1.22 3.62 1.1 1.5 3.72-.64.45 2.28 1.08.39 1.75-2.5 7.6 2.04 2.42 1.1 2.4 2.82 1.83-.63.98-.83 1.56.08 1.35 4.81-1.74 9.77-.74 3.67-2.77 15.49-2.18 11.47 4.64 6.46 2.25 2.01 2.64 3.98.97-.28 4.38.05 8 12.58 2.23 3.67-1.57 7.28-1.72 4.54-3.15 3.92-1.1 6.1-2.66 1-4.43-.54-1.45.01-7.53 2-.7.48 3.58 9.36-.05 2.83.44 2.6 1.42 6.34 2.27 3.73 1.7 3.27.06 3.17 2.3 3.77.81 2.89-.32 7.98-2.4 4.3-1.8 1.7.1 3.18.6 4.34.54 2.28-1.8 7-2.12 4.4-2.05 1.68-2.19 3.65-4.24 2.68-2.25 2.73-1.8-.38-2.75.47-2.47-1.1-1.72.61-2.1 2.22z"/>
    <path region="6" short-name="Sør-Trøndelag" long-name="Sør-Trøndelag" value="10" d="m291.85 594.05-1.6 1.51-.29-1.44zm-20.28-8.4 1.6.23.78 1.6-1.56.55-2.18-.92zm-4.84-.72 1.03.42-1.2 1.37-.6-1.52zm19.03-2.82 1.7.19-.18 1.16-1.1 1.03 1.5 1.87 2.27.05 3.14 2.35.35 1.08-2.33 1.93-1.97 1.04-3.24.72-5.05 1.56-.77-.77-4.6.47-2.54.81-1.6 1.57-1.43.42-4.56-.47-.8-.97.16-1.17-1.36-.14.16-1.94-.46-.94 1.95-1.38.35-.8 1.64-1.35 3.96-.69 1.27.54 3.41-.86-1.49-1.28-2.23-.9 1.49-1.1 2.77-.7 6.45-.96-.3 1.94 1.1.01.68-1.55zm3.3-.35 1.78.11 2.47 1.46-.34.82-3.17 1.53-1.94-.52zm-7.98-.62 1.82.28-.28.8-2.52.5-1.38-.18-1.5.64-.78-.84zm20.43-.3.52 1.17-.36 1.54-1.58.24-.21-1.37zm-12.1-.65 1.44.45.31 1.13h-1.58zm-4.78-7.97.35.93-1.1.62-.47-1.27zm18.1-1.73.49 1.3-.62 1.1-1.5.6.61-2.29zm-21.57-.09 1.27.7-.15 2.38.67 1.33-.49 1.13.25 1.23-.49 1.15-1.96.82-2.7.1-7.52.62-1.4-1.4h-1.21l-.79.8-1.25-.01-1.53-1.4 2.32-.56 7.2-.69.54-.77 1.32-.03 1.06-1.36 2.17-1.25 1.32-.34 1.06-1.11zm-.8-.38-.41 1.2-1.57 1.55-.49-.51 1.5-1.81zm39.14-14.78 1.43 2.01.18 1.22-1.74.87-.89-.81.71-1.1-.3-1.03zm3.16-2.17 1.73 1.96-1.9 1.48-1.66-1.75.27-1.03zm64.5 71.44 5 13.93-5.21 7.1 1.59 11.65-3.22 10.05 1.47 5.37 4.48 15.93-1.56-.08-.97.83-1.84.63-2.4-2.83-2.42-1.09-7.6-2.04-1.75 2.5-1.08-.39-.45-2.28-3.73.64-1.09-1.5-1.22-3.62-1.98-3.3-1.95-1.15-.97-1.6-2.9-1.52v-1.46l-.55-1.43-1.28-.09.1-1.75-.92-1.5-.08-2.55-1.16-1.14-2.75-.55-3.83-2.45-2.66.09-2.09.9-1.95 2.39-.88-1.6-2.08-.93-2.01.82-9.03-3-5.09-.5-2.13 2.29-1.92 4.54-1.72 1.09.31 1.36-1.2.63.82 4.2 1.61 5.78-5.22 1.9-.04 1.18-.82 1.9-1.24.72-2-1.5-.06 1.7-.74 2.97-1.28.74-2.62.17-4.2 1.69-2.88-1.92-.9-1.1-4.21-2.33-8.83-4.2-1.16-.82 1.54-.56 1.41-1.1 1.63-1.99.66-1.5-.43-.85 1.55-4.5 1.16-2.61-.66-1.47-2.3-.06-.9-1.11-.36-1.46-3-4.68-1.08.04-1.75-3.9 2.49-2.03 2.47-.1.75-.94 2.36.46 7.7-2.14L296 646l1.62-2.3-.21-3.78-.6-2.2.37-2 1.8-1.44 1.28-2.73-1.2-1.13.26-.91-1.47-.85.63-.8-.05-2.82.85-1.7-.15-3.1.78-1.24-2.79-.72-.59-2-2.32 1.04-2.19-.9-1.3 1.26-1.77.84 1.16 2.01v.9l-1.5.5-2.75-.95-2.68 1.32-.36-1.4-2.1 1-1.75.11-1.73-1.59.7-1.2-1.58-1.8-.12-.96 3.1-.56 2.74.24.3-.6-3.72-.16 1.23-2.09-1.07-1.07-.25-1.67 1.9-2 .09-2 1.58-1.88-.98-1.27-2.4-.76.37-2.29-1.45-1.8 2.2-.14 1.91.67.06 1.89 1.46-1.82 2.15 1.47.41-1.58-.51-.79.6-1.68.98.17.69 1.06 1.16.6.04.99 1.41.63.56 2.08-.25 1.12.97.47-2.02 1.31-1.58 3.98 1.46-.08.51-1.24 1.02-.16 1.18-1.25 1.26.58 2.4-2.01-1.94-.5-.22-1.27-1.13-.44-.76-2 1.41-1.43 2.34.38.75-.6 2.12-.14-.61-2.04-1.89-1.3-.18 1.25 1.45.5-.9 1.3-4.27-1.49.41-2.47 1.44-1.5 2.22-.64 1.26.6 1.34-2.06 1.31.67.36 1.42 1.74-1.9.06-.7 3.36-.36.24-2.56 1.63-1.12 2-.1.92-.9 1.93-.16-.46 1.87 1.34 3.12.09 1.22 1.24 1.56-1 1.73 1.2 2.46 1.65 1.27.24.78 2.2 1.5-1.62 5.12-1.05 1.38-3.4 2.2 1.5.65 3.76-2.38 2.64.33.94 1.79.9-.2 1.95 1.49 1.48-.86v-1.74l-2.03-.06-2.36-2.24-.4-.95.47-1.4 1.88-1.42.72.06 1.56-1.7 1.55-.26 2.46.14 2.45 1.87 2.35-1.73.9 1.39 1.72.85 1.05.03 1.6-.82 2.5.35 1.21.7 1.73.28 2.81-.5-.02 4.44-.7 1.83.3.84 3.62 1.34 2.68-.68 3.25.23 1.7-.47 3.11.63 5.7 1.5 2.97 4.82 2.38 6.38 10.23-.5zm-61.6-29.42-1.8 1.78-2.34.54-3.38-.63-1.09-2.8.4-1.3-.69-1.02.96-2.2-1.85.32-1-.99-.77-2.22 1.76-.92-1.63-1.58.9-.8.24-1.35 1.53.44 1.27-1.11 1.51.58.7-.85 2.9-1.33-1.38-.85.75-1.1-3.52-.23-3.51 1.97-1.12.88-2 .85-2.28-.43-.54 1.86-2.49.1-.43-.85.25-1.42-.78-1.56 2.44-.37 1.77-.76 1.43-1.45h-2.85l-1.85-.65v-.92l1.53-1.58 2.33-1.18-1.47-.68 3.63-2.26.98.3 1.77-.52-.66 1.66-1.68.6.5.8 1.39-.56 1.12-2.7.8-1.07 2.16-.8 1.42 1.17 1.97-1.6 4.21-1.54.59-.52 1.58 1.24-.62-2.67-3.12 1.1-1.32 1.45-1.42-.14-1.7 1.38-.64-.6 2.7-2.01 1.71-.67 1.79-1.67-4.4.99.17-1.5.85-1.34-.37-1.92 1.7-.79 1.07-1.43-1.3-1-.18-2.65 1.75-.3 2.02 2.06.8.03 2.17-1.57-1.87-.25-1.32-.7-.05-1.66 1.9-1.59 1.3.51-.09-2.27-.5-1.45 3.73-.45 1.05-.51-2.03-1.28.56-.91 1.2-.17 1.26-2.5 1 .64.63-1.3 1.7 1.05-.37-3.3.3-2.08 2.06-.05.25-1.4 2.04.65.48 1.08 1.26-.41-.83-2.3-1.81-1.05-1.77.43-1.07-1.17 1.73-1.37 1.32 1.63 1.99 1.74.34.93 2.1-.32.85 1.58-.93 1.09 1.33 2.5.81.23 1.36 1.4 3.59 1.28-.75 3.75-1.02 1.61-4.8 1.95 1.16 4.79 2.64.3.36 1.13-1.67.5-.68 2.57-1.77 1.78.49 1.8-.63 1.84-2.05 2.9-3.45 2.2-1.5 2.78-1.74 1.89-2.76 5.18-.42 2.32-2.85 2.83-3.9 2.09-1.33 1.36-.45 1.45-2.63 3.43.15 1.68z"/>
    <path region="7" short-name="Rogaland" long-name="Rogaland" value="14" d="m133.26 955.62.65.72.08 2.61-.77.89-1.2-1.9-2.46.29.85-1.97zm3.8-39.56 1.5 1.16-.53.7-1.68-1.27zm-6.29-1.65-.76 1.73-.96-.7.56-1.26zm-3.71-7.56 1.64 1.28.73 1.06-.3 1.18-2.82-1.8-.03-1.67zm12.15-2.55.57 1.5-1.26.95-1.73.08 1.25-2.4zm-12.64-.57 3.1 1.97 1.97-.14 1.14.87-.18 3.08-1.65.17-2.01-2.25-3.73-2.9zm8.98-3.3 1.76 1.4-.19 1.65-1.77 1.6-1.47-.12-.78-1.5.37-1.14 1.08-.56zm9.65-.75 1.13.51-1.8 1.41-.78 1.2-1.37-.01-.5-1.67.98-.88 1.21.09zm-8.45-4.15.02.69-1.6 1.17-.19-1.67zm1.39-.53.47 1.02-.97 1.2-.6-1.52zm-18.65-.33.97.3 1.34 1.74.2 2.9-1.58.66-1.93-1.98.24-1.97zm2.4-.14.78.42.93 2.4-.95.6-.67-1.1zm20.36-.13.43.33 2.71-.18 1.15 1.44.36 1.35-.58.78-1.79.66-1.65.02-2.1.52-.92-2.66.22-1.1zm-22.64-6.2.32 1.25-.53.97.24 1.49-1.45.64.08-3.6zm10.88-.9-.3 1.97-.93-.38.38-1.73zm-29.59-.85.97 1.59-1.67-.07zm14.64-4.93.89 1.15.83 2.01-.13 1.35-.86 1.14 1.46 2.35-.78.66.54 2.27-.72 3.66-1.2 3.97-1.03 1.73-2.35-.98-1.24.27.39-1.9-.78-.63.72-2.82-.4-.87.93-1.14.45-1.75 1.36-2.61-.52-1.2.07-1.93.84-1.21.76-2.53zm34.74 89.76-2.52.66-1.65-1.24-.17-1.46-2.42-1.46-.56.13-2.83-1.64-4.2-3.2-.86-1.18-.83-2.41.03-3.83-.87-.26-3.43.06-.6-1.23-2.3-1.15.26-1.79-1.15-1.48-2.25-.55-1.35-1.58-.51-2.47-1.59-3.96-1.13-1.9.34-2.45-1.05-1.69.1-2.25-.74-1 2.3-2.2.49-1.17-.05-1.56 1.03-1.49-.26-1.32 1.03-.95 1.05-.01-.61-1.65.45-1.66-.55-1.69.66-1.17 1.76 1.8-.38 1.77.57.75 1.94-1.43-.45-1.12-1.09.65-.58-1.98-.74-.52.4-1.75-1.28.17-.1-1.7 1.05-2.36 2.55 2.34 2.24 3.05 1.6.93-1.05 1.04.04 1.57-.86.64.44 1.58.85 1.05.57-3.05 1.86.39 1.74-2.61.92.01 1.07 1.2.88.03 1.28 1.33-.71 1.4.34 1.11 1.34.24 1.99 1.28 1.15 2.27 2.87 1.86-2.57-3.65.18-2.8 2.02-2.17 5.7-2.65 3.11.13 4.15-.9 3.6-.5-2.03-.68-6.53.98-2.8-.04-2.64 1.34-3.84 2.73-.96 1.54-1.57.04-.9-.78-.74-1.95-.05-1.46 1.05-1.15 1.12-.11.15-1.04-.7-1.15-2.74-.2-1.82-3.59.55-1.75 3.28-2.09 1.57.81 1.45-.93 2.1-.6 2.04.55-.1-1.03-1.73.28-.77-.8-1.89.88-.91-.54 2.16-3.29 1.08-.26.38-1.23 1.8-1.14 1.47-.16.72-1.59 1.46-.57 1.53.2 6.12-2.53.38-.9-2.87.22-.92 1.02-3.32 1.22-3.84.91-1.03-2.1.7-1.51 1.54.38 3.95-.41-.96-1.42-.79.82-2.9.37-2.41-1.62-1.44.1-.87-1.28 1.5-2.69 1.56-.86 1.43-.06.48-1.33 2.13-.4.71-1.02 1.03.02 1.28-2.04v-1.71l.97-.81 4.85-.97 2.86-1.25-.64-.76-6.96 2.11 1.3-3 1.65-1.74.31-2.9 1.43-.87-.7-.9-1.5.62-.8 1.41-.31 1.75.58 1.23-1.83 1.83v1.08l-.82 1.16-1.96 1.4.23 1.91-1.88 1.76-1.01 1.49-1.26.26-.22 1-1.43-.5-2.46.08-.16 1.81-.87.05-1.3 1.63-.86-.31-.33-4.42-.25-.54.98-2.26 1.46.94 1.55.1 1.67-.68 1.37-1.12-6.8-1.1-.07-1.53-.98-.68.4-2.67h-1.03l-1.27 1.05 1 2.74-.11 1.77-3.58 1.5-1.22 1.58 3.9-1.12.52 2.78 1.15 1.64-.93 2.84-1.56-.3-1.76.88-1.89-1.38-.99 1.99-1.9.88-1.13 1-.38-1.36 1.37-3.67-.78-2.82.22-.72-.25-3.28.16-2.17.62-2.2-1.63-.25-1.2 1.7-.62.13-.67 1.87-1.93-1.35-.55 1.29 1.25 1 1.5-.12 1.08-1.12 1.84.61.13 1.44-.53 1.7.2 1.69-.72 1.6-.26 2.5-2.6 3.64-2.72-.06-.94-1.93-1.56.17-1.12-3.83-1.65.37-.75-2.63.02-1.7-1.77-3.85.11-1.88.57-1.25-.44-1.58.73-.47 1.03 1.64.98.34.38.5 3-.76 2.63-.14.9-1.22 1.2.4.9-1.56 1.83-1.57.46-2.12-.54-1.43.87-3.81 2.04-1.81 1.35 1.68 1.25-.03 3.88 2.52 1.24-.06.24 1.1 2.1.74.14 1.1 2.5 1.4-.19 1.38 2.88-.52.7-.45 2.1 1.26 2.45.27.1-2.16 1.73-2.86.85-2.64 1.69-.62.58-2.7 1.33-1.9 1.1-.93 3.73-.14.78-1.15 1.82-.82 2.13-1.42 1.07.98 1.24.04 2.15-.58.95 1.17-.74 3.61.33.97-1.9 3.63.03 1.25 1.98.82 2.31-.35 1.87-1.28 6.5-2.93 4.57-.26.36 1.51-.22 3.7-.35.97 2.28 1.37 1.4 1.17-2.96.44-1.59.64-.65 2.3-1.82 2.27-2.05-1.02-1 4.08-.1 1.35-.72.43 1.49 1.34.46 1.56-1.16 1.38-1.67 1.03-2.95.87 1.52 2.09-1.49.2-1.25 2.1-1.74 3.64-.7 3.5.44 1.48-.66 4.33.29.79 2.19.05 1.3.43-.69 1.12-1.66 1.04.37 2.77-5 3.97-3.58 3.41-1.73 1.02-1.67 3.23-3.06 1.87.03 1.84 1.53.62-2.65 3.76-1.9 4.17 2.2.7-.3 1.5 1.11 1.26.44 1.77-1 1.16-3.81.85-1.14-.3-1.8 1.44 1.18.85.82 2.39 1.53-1.16 1.83 1.18-.03 1.9.74.96.1 1.78-1.42 3.32.85 5.04-1.62 1.86.13 3.22-2.33 3.23z"/>
    <path region="8" short-name="Troms" long-name="Troms" value="6" d="m541.82 200.57.18 1.4 1.13 1.3v.84l1.92 2.04.74-.04-.14 2-1.38 1.14-3.5.58-2.56 1.3-1.28.07.3-3.31 1.64-.64v-1.13l1.39-3.73zm5.4-5.06 3.12.38 1.7 2.23 1.84 1.19-.8 1.66-3.3 3.15-1.88 1.42-1.03.12-.94-.74-.08-2-2.52-5.62.4-1.3 1.28.38zm-33.17 14.02-.32 3.05-1.26 2.37-1.65 1.94-2.12 1.24-1.02 1.83.68 1.2.32 2.78.75-.2-.68-3.75 3.34-2.52 1.85-1.9 1.42.29.32 2.4.71.03-.4-2.7-1.05-.34.43-4.42.7-.84 2.32 1.1 2.12-.3-.05-1.65-3.1-1.69-1.05-2.42.78-2.14 1.09-.42.67-1.14 2 .12.73 1.66 1.47.17-1.15-3.14-.04-.9 3.71 2.81 1.08-.52.66 1.33-.27 1.43 1.18.17.44 1.96 1.49.22-1.07 2 .42 2.03-.89 1.39 1.61.22-1.11 2.19 1.38.97-.36 2.03-1.15 2.2-1.34.61.4 3.25-1.37.57-.79-1.7-1.85-.44-1.52-1.1-1.1-1.96-4.95 2.05-.62 1.4-1.08.53-.58-1.43-1.13-1.31-.78.97-.1 1.34-1.05 1.83.07 1.87-1.7-.01-.65 1.33-2.74 2.66-.32 1.33-.87.65-1.23-.27 1.64-1.99-.24-1.93-1-1.26-.66-2.6 1.6-1.78.18-.77-.69-1.95 1.37-1.9 1.55.38 1.17-2.46-.66-.9.67-1.75 2.1.11.25-1.39 1.26-.26zm18.47-16.65 1.08 1.47-1.05 1.28-1.34-.68.1-.92zm-10.69-1.2 2.04.33 1.63 1.85 2 .16 2.6-.45.56 1.87-.3 2.77.64.47-2.14 1.48-2.46-.34-2.77-2.47-.58-1.75-2.62-1.34.23-1.36zm5.7-2.32.16 2.35-1.42.56-.87-.95.88-1.51zm28.14-6.38-.73.78.14 1.45-.58 1.47-1.4.7-1.43 3.08-1.1.81-.74-3.47.58-.87.58-2.27 1.05-.89zm.23-37.42 1.06-.46.7 1.63 1.73 2.7 1.08-2.64 1.57-.55 1.22 2.47-.3 3.1-1.51 1.54.41 1.27-.61 1.07 1.05.5.55-1.4-.35-1.36 1.2-1.46.23-1.1 1.09-.1 2.26 2-1.29 1.87-.53 1.8-1.13 1.56 1.25.27.67-2.03 1.59 1.2-.98 2.26.9 3.33-3.5 1.13-1.38 2.07.97.66 1.53 3.37-.76 1.8-1.5.14-.18.74 1.48.7.34 1.23 1.3-.34.73.65-1.26 1.12-3.19 1.5-2.84-.67-1.97 1.37-1.14-.38-2.24-.05.06-3.03-1.19-.44-.84.52-1.29 3.05-3.92 4.88-.94.77-1 1.97 1.3 1.28-.47 1.55-3.15 1.35-1.15-.05.3-2.26 2.1-3.46-3.25 1.24-.84-.71-2.26 1.75-2.9.2-.3-3.26.8-1.88 1.21.23 1.07-.92 2.02-.95 2.13.23.64-2.42-1.24-1.47-1.43.06-1.22-1.45-1.7-.98.79-.9 2.22-.3 2.62.85 1.03-.28-.82-1.63-3.6-1.69-.2-1.63-1.1.04-.62-.99 3.64-1.6 1.58.72.34-1.32-1.38.01-1.02-1.23-2.39-.58-.63-.55 1.31-2.42.7.8 2-.74.95 1.4.82-1.78 3.6-.62 3.3 3.54.54-1.63-1.83-.58-.15-1.48 2.1-1-.83-.6-3.06-.85-1.34-1.34-.8-2.53.86-.23 1.64 1.54 2.61-.96-2.35-2.91.97-.48 1.1.35 1.42 1.16 1.06.05 1.15 1.13 1.8 2.9 1.3-.24.28-.94-1.34-1.58-1.17-1.97-1.42-1-1.15-2.7 1.23-1.27 1.92 1.85.55 1.68 1.5 2.06.5-1zm35.21-10.31-.13 1.5-.8.94-.04 1.4-1.32 2.12-.56-1.4.26-1.58-.3-1.4 2.14-2.06zm-20.86-3.18.89 2.29-.66.68-1.73-1.16-.08-.6zm6.93-7.85 1.8.53.59 1.52-1.6.7-2.24.43-.25-.98 1.47-1.23zm6.42-2.04 1.4.6.32 1.82 2.57 1.45 1.21-.2.92.97 1.72 3.21-.63 2.1-2.5 3.5-2.16 1.44-1.3.35-.84.94-.5 2.43.9.53 1.13-.38.47 1.64-.12 1.38-.88 2.02-.89.7-1.21.02-1.62-1.15-1.48 1.97-2.53.52-2.64 1.35-2.02.15-2 .8-1.51-.54-1.13-1.85-2.18.03-.71-.83.06-2.46 1.04-1.79.7.41 2.2-1.23 2.52.8.01-.69-1.4-2.44-.11-1.03-1-1.99.55-.4 3.8 1.3.88-.86 2.49-.21 3.49.43.06-.77-1.98-.57-5.65-.02-.78-4.55 1.8-1.45 1.23 1.43.99-.7.66.9 1.46-.89-.25-.96 1.19-.81 1.88.22-.3 2.25-.56.77.88 1.39.4 1.7 1.28-.05-.1-1.44.34-2.87.96-.45.34-1.59-2.23-1.01-.9-.9-.65-2.6 1.31-1.55zm50.54-5.17-.77 1.11-.05 2.17 1.45 1.9-.93 1.57-2.7 1.97-1.22-.56-.88-3.24.69-1.64-.16-2.15.73-1.18 1.33.34zm24.85-5.74.78 1.78-1.3.16-1.06-.78.58-1.1zm-49.36.15 1 .27 1.31 1.79-2.22 3.87-.32 2.87-.9 2.55-1.8-.11-2.5.81-2.88 1.33-.78-1.39 2.44-5.12 2.55-1.63 2.25-2.6.44-1.66zm22.53 2.9-1.5-.98 1.2-1.66.67.81zm-54.66-4.38.2 2.04-.91-.02zm34.34 0 1.48.92-.76.96-1.41-.9zm25.36-1.41 1.76 2.2 2.1-2.11 1.14.55-.76.99-1.11.25-1.23 3.06-2.56 1.73-1.1-.6-1.22-1.9-.1-1.35-1.14-2.02.06-1.29 1.69-1.47 1.22.29zm-42.93-2.38.63 1.2 1.73-.27-.58 1.48.42 1.76 1.66 2.77 1-3.06 1.4-1.56 2.09.43.49 3.13 1.27-1.74 2.12 2.1-.09 1.37-1.04 1.12-2.17.72-1.6 1.2.52 2-1.2 1.79-.56 1.99-.97 1.57-.17 1.34-1.33 1.47-1.56 1-3.53 1.02-.82-.29-1.32-1.83-.83-1.83-1.68-.7-.04-1.12-1.44-1.02-4-1.9-.63-.77.07-1.98.55-1.08 2.02.76 1.34-.58-1.67-1.97.04-2.04.59-.98 1.43-.57 1.8.52.8-1.43 1.77 1.42.52-.9-1.59-1.5 1.1-.81.46-1.31 2.15-.94zm-12.63-1.52 1.59 1.05.94 2.64 1.56-2.79 2.68 1.83-1.38 2.44-2.18.69-1.86 1.27-.75 2.42-1 .24-.61-1.64.38-.86-.9-1.09.36-2.37 1.08-.4.03-1.39-.57-1.45zm64.9-.28.62 1.13-1 .88-1.19-.96zm-6.74 0 .67 1.4-.14 1.11-.9 1.55-1.4-.48.67-1.05.47-2.24zm16.18-.35 2.97 2.07-.52 1.4-3.66-1.25.33-1.7zm-67.76-.44 1 1.8-.74 1.2-.83-1.75zm-4.6-.11 1.08.18.3 1.67-1.46.2zm15.22-3.41 1.5 1.52 3.02 1.9-.2 1.37-1.67.48-3.68-1.1-.82-1.07.6-2.19zm49.14-.83.79 1.73-1.62-.32zm-62.8-.24.61.23-.4 2.08-.84 1.1-1.42.12-.35-.98 1.14-1.17v-1.07zm51.6 1.52 1 1.54-1.03 2.05-1.3.32-1.2-1.41-.62-1.79 1.03-2.93.63-.3zm-23.33-2.36 1.9 1.09-1.02.64-2.03-.63zm-20.38-4.73 1.25 2.03-.23 1.6.75 2.55-.75 2.2.3 1.14-.76 1.18-2.04.7-1.44-1.64-2.22-1.5 1.7-1.33 1.5.49-.47-2.15 1.67-.87-1.16-1.36-.7-1.6 1.4-.03zm14.04-1.25.6 1.44-.88 1.3-.79-.81.4-1.71zm24.22-.16 1.37 1.25.86.18.57 2.18-.9 4.47v2.3l1.32 1.88.15 1.41-1.65.8-1.98-.27-.78.95-1.44.57-1.67-1.08-1.25.27-2.1-1.72-.2-2.29.11-2.62-.35-.45 1.4-3.4 1.73-.52.51-2.54 1.77-.78.86.15zm-27.61-1.33 1.02 1.87.5 1.92.73.04 1.14 1.73.68 3.7.96-.14.53-3 2.09.41.52 3.23 1.61 1.2 3.73 1.43.13.62-3.05 1.62-.04 1.57-.7.64-2.05.55-.7-.48-1.61.21-1.86-.48-.7-2.17.3-.96-.62-2.1-1.3-1.25.47-.67-.81-1.5-1.62-1.98-1.72-.54-.54-1.17 1.61-3 .11-1.08zm14.04-3 1.5 2.67 1.22 1.54-.93 1.23-1.16.32-.12-1.86-1.18-3.6zm-45.32 136.3-3.08-5.24-7.54 1.18-5.41.26-5.64 2.82-3.88.51-9.03-.84-2.07 2.64-.61.2-1.37 1.92-2.32.94-1.4-.18-.63-1.66.6-1.29 1.35.23-.1-1.8-1.79-1.58.02-1.97 1.25-2.5 2.02-.79.9-1.28 3.2-1.47 1.73.19 1.6-2.25 2.05-.2.16 1.84 2.03 1.74.63 1.68.96-1.25-1.48-.73-.48-1.56.35-1.72 1.53-.45 2.28-1.27 2.05.91 1.66-.51.99 1.62.33 1.76 2.22.28.58-.75-1.86-.85-.56-2.57-1.76-.84-2.07.85-1.97-1.85.37-.88 1.4-.56 1.61-1.43.99-1.35 1.9-.14 3.63 2.32 3.27.49 1.7 2-.1-1.94-.8-1.05-1.2-.4-2.05-.04-3.26-2-1.65-.5 3.82-4.55.95-.4 1.91.36-.64 1.03 3.17.79.92-.15-2.2-2.86-1.92-.5.17-1.57-5.3 2.1-1.52 1.16-.16-1.98.77-.94-.44-1.49 2.33-.37-.49-2-1.44.3v-1.1l1.06-1.51.5-1.46 1.08-.72 2.32-3.18-1.18-1.82 1.8-.89 2.07.14.8-.8 1.91-.67.86-.9 1.77-.63 1.75.3.44.96 1.83-1.1.01-.91-1.7.23-.18-1.4-.77-.52.74-2.96-.98-.77-2.08.14.63-1.3-.38-1.5-.04-2.67 1.7-.98 1.36-2.29-.02-2.75.97-1.03.23-1.72-1.03-2.66 1.56-.26 1.23-1.86 1.13.1 2.32 1.62-.23 3.41 1.2 1.19 2.81 1.97-.21 1.92.47 2-.2 2.12 1.37.7-.23-5.65 1.24.55-.36 1.93 1.23 1.5.97-.47.58-1.5 2.03-.42 1.37.2 1.84-.33-.04 1.57 1.83.34 1.06-.58-1.45-1.62-2.83-.1-2.25-.93-3-1.69-.74-.84-.26-1.62-1.37-1.6-2.6-2.03.5-2.33-1.03-.9.07-.86 3.64-1.43.4-.55 1.75-.18 2.67-.76 1.29-1.56.7.59.63 2.23.03 1.39.68 1.09.64 3 1.04 1.33 1.44.84-.18 2.03 1.38 1.67 2.09 1.56 4.88-.25 1.25 1.5.23 1.87-1.32 1.4-1.25 2.42.15 1.16.82.79 2.52-1.27 2.88 1.14-.44-1.28-1.13-1.33-.4-3.15.08-1.62-1.77-2.93-2.6-1.2-3.78.59-1.3-1.28-.65-2.96-1.21-.47-1.26-1.74.63-1.92.02-2.95-1.11-.77-.65-1.47-.43-2.96.14-2 3.09-5.06.39-3.27.77-1.07.97.28.95-1.75 2.08-.85 2.82-.38 3.58-2.01 3.57-1.45 1.26.73-.11 2.03-1.03 2.06.72.98-.5 2.19-.33 3.66 2.19.95-.46 2.43.3.5-.31 2.32-1.37 2.86-.03 2.23 1.25 1.91-1.9 3 1.31.73.6-2.11 1.53-1.91-.86-1.3.8-2.13-.77-1.67.75-1.36.1-2.63.7-.46 5.28 1.87-1.2-1.6-2.91-1-.6-2.43-1.48-1.8.5-2.56 1.23-1.42-.36-1.38.2-1.66 1.3-.99.47-2.37 1.57-1.3-.55 3.33.7 1.53 1.05-5.93 1.2-3.73.38-3.26 2.1-1.1 1.69-2.5 1.9 2.66.91 3.02.48.31-.02 2.1-.43.82-.07 2.57-.92 4.33-.17 7.99 1.46.75.82 1.19-.73 3.37-2.23.89.74 4.6-.48 1.5.86.3-.1 1.74-2.05 1.94.3 2.46-.3 1.1-2.88 2.57-1.1 1.35.2.95-1.44 3.18-.38 1.6 1.53-.26.07-1.34 2.15-4.16 3.14-3.24 1.85.75.22-1.52-.47-1.4.55-1.86.92-1.55.2-2.5.91-4.44.01-2.8.54-.47 2.83 1.44.45 1.79h1.56l1.36 1.9 1.37-.6-1.42-1.06-1.4-1.79-.37-1.17-1.65-1.75-1.22-.58-.72-1.64.12-2.06.56-.9.58-2.55-.26-1.68-1.07-.98.64-1.43 3.3-2.35 1.06-.04 1.7-2.14.44-2.29-1.2-1.6.4-1.21 1.59-1.01.74-1.84 2.65-1.3 1.23-1.97 1.08 1.05-2.55 2.08-.98 3.12-1.28 2.31 1.67-.48-.38 1.72.8 2.2 1.62 1.8 1.36-1.72-1.29-1.08-.03-.87 1.3-.82.22-1.05-.9-1.26.46-.8 2.67-.77 1.11 1.24-1.45 2.9 1.22.1 1.1-2.48-1.37-2.87 3.26-.7.05-1.01-2.34-.43-1.15-.7.2-3.52.53-2.3 2.93-1.25 2 .34 2.52 2.27.3 1.73 1.3 1.01-.2 1.17 1.06 1.37 2.53 1.2 1.89.33 1.86 2.25 1.48.18-.03 1.46.94 1.16.84 1.98 1.1.72.93-.3 1.2 1.27-.22 1.08 2.4-.15.09-1-1.68-1.25.04-.84-2.23-2.01-1.58-.24-1.5-1.32 3.11-.84.21-.9-1-.83-2.14-.39-.51-.74-1.18-3.68 1.18-1.1-1.34-2.1 2.24-1.4 1.31.66.7-.75-1.9-2.18-1.69 1.05-1.82-.03-1.73-1.37 1.96-2.16 2.71-.68-.73-.75-1.34.13-3.97 2.37-4.65-2.45-2.08-.05-2.18-3.62 1-.46.71-1.16-.3-.79-2.3 1.59-1.22.23-1.99-1.14-1.93-3.32h1.69l1.97 1 1.9.52 1.03.71 1.67-.14 1.5-1.16 3.75 3.58.78 1.43 1.67.15 1.16 1.15 1.1-.93-.32-1.36 2.24-1.71.82-1.04 2.07-.99h.84l.52 2.32-.08 1.48 1.78 3.93 1.12.3.29 1.48-.66 1.07.15 1.15 1.85 2.35.02 1.14 1.13 1.02 3.27 1.2 2.47.13.92 1.22-1.75 2.3.84.68h1.41l.2 1.26-1.62 4.2 2.38 1.31.68 1.56-.2 1.98 1.07 1.75 5.26 3.23 1.85-1.88 1.74 1.27-.99 2.09-1.66 1.33.09 2-.43 2.34-.97.7.8 2.45-2.45-.49-3.1.81-3.14 2.41-2.6.64-.06.9.9 1.23-.17 1.8 1.3 2.34.31 2.09 1.04.26 1.2 2.47 2.75 4.3.74.33.76 1.63.42 2.64-.22 1.92.49 1.16-.75 1.48.32 1.25-.43 1.27-1.55.72-2.43 2.05-8.86 1.55-4.25-4.9-3.84-4.87-3.05-4.35-9.46-1.66-4.44 4.29-2.17 3.12-.2 2.3 1.96 3.76.37 1.28 1.54 1.21-.86 5.18-9.66-5.35-4 4.86-13.05 2.2 5.33 6.3 2.04 2.07 1.59 9.18-2.73 10.49-3.64 5.93-2.93 2.73 2.58 1.83 5.75 2.53-6.2 8.23-1.36 2.52-6.11-2.37-20.53-7.79-9.89 1.37-3.93-3.5-2.29-1.77z"/>
    <path region="9" short-name="Oppland" long-name="Oppland" value="6" d="m218.18 698.89.01-2.1 2.04-1.35.97-2.07 2.47-.02 1.06-.47 1.15 2.24 2.85-.85-1.52-2.95 2.81-1.1 3.13-2.95 3.27-.02 1.12 1.55 4.22-.04 6.07-7.9 1.41-.92 1.47-1.84 2.53-.96 4.08-.78 2.55.3 6.03-.2 5.48.21 3.34.54.87 1.74 3.55-.1 1.53-.87 1.16.82 8.83 4.2 4.2 2.33.9 1.1 2.89 1.92 4.2-1.69 2.62-.17-2.69 2.02-1.63 2.89-1.41 1.46-1.1-.25-1.07 1 2.06 3.57 3.9 1.52 3.35 2.4 1.44 2.06.37 1.72-1.77.3-1.47 1.93.72 4.86-1.04 3.34 2.5.34 3.27 1.57.08-1.92 1.57-.04 1.03.56 1.17 1.69 1.28.4-1.48 3.36-3.1 5.95 4.8 2.76 3.43.74 3.8 3.67 1.92-2.5 1.34-1.16 3.26-1.58 2.01 2.84v8.1l.38 3.13.92 4.35-1.02 2.17 2.28 5.16 2.76 10.58-3.93 1.97-.93 2.48-.7.46-1.85 2.35-1.05 2.3-2.43 3.26-2.33 1.4-2.44.02.84 2.76 1.6 1.75 1.77.85 2.35 2.24.55 1.16.87 4.03 1.2 2.26-1.23 3.56 1.25 3.15 1.52 1.34 3.08 1.26 1.37 1.68 6.56 5.67 1.2 2 .8 2.1-.81.58-1.02 1.98-.82 3.9-.93-.2-4.44 1.97-.7 1.07-3.63-.56-2.85-1.57-.92-1.57-1.39 1.8.75 4.37 1.7.72 1.93.03 2.94 2.52-.12 1.36 1.03 2.41-2.02 1.97-.38-.18-2.48 4.14-1.74 3.55.06 2.92-.49 1.85-2.52-.26-.86 1.33-2.97-.05-.37-1.38-.95-1.25-2.4-.7-.67-.97-3.55-3.16-1.59-.46-.7-1.3.45-1.32-1.31-2.38-1.29-3.68-1.25-2.65-.44-7.24-.4-4.02-1.02-.89-1-1.88-.8-3.68-.95-1.89-2.62-.64-2.21.1 1.3 2.45-2.42 1.25-1.1 1.02-.7-.85-.94 1.7-.18 3.9.37.87-.04 2.73-1.1.07-4.33-2.47-2.42-1.62.4-.44-.28-2.36-1.06.25-3.71.01-2-1.47-.14-2.43.97-1.41-.42-1.05-1.43-.63-.63-1.49-.1-2.13-1.13-1.2.78-3.55-1.29-2.51-2.68-.9-.69-1.5-1.6-1.42-2.05-.91-5.2-3.8-.66-.27-.8-2.57-2.74-.56-4.21-2.27-2.44-2.23.5-.68-.75-1.63-1.6-1.76-1.7-1.29-2.41-.44-2.54-2.3-1.73-3.45-2.21 1.1-1.26-1.47-2.35-1.58-1.79-4.15-.75-3.82.17-1.57.7-1.07 2.62-1.3 1.76-2.53 1.22.16 1.3-1.13.38-.94-2.23-1.9-.82-1.21.25-1.17-.1-2.98 1.6-.74.73.72 2.15.15 1.88-1.66-.97-2.64-.56-3.4-2.26-1.28-2.96 1.57-3.48-1.69-2.32-1.48-.13-3.46-1-3.22 1.09-5.77-2.17-1.85-3.06-1.22-2.5.63-1.97-.12-4.19.57.32-2.45-.66-1.44-2.1-6.21.36-2.53-.53-3.2.75-3.3-.41-1.93z"/>
    <path region="10" short-name="Telemark" long-name="Telemark" value="6" d="m274.62 940.6.7.75-1.02 1.08-1.32-1.3zm-.17-3.4 1.72.82-2.86.63zm13.58-8.47-1.25.44-.35-2.45-1.3 1.6-.58-1.8-2.05-.6.24 1.22-1.3.22-.7-2.07.13-2.06-.91-1.33-2.3.57 2.4 2.7-.1 1.53.71 1.23 1.97.14 1.68 2.5.03.9-1.8-.12-.24 2.28-1.48.22-2.92 1.38-.29 1.52-1.23-.56-1.4.15-1.7.81-2.15 2.12-.9 1.55-2.87-.58-.81-.95-.86 2.8 1.05.36 2.93-.73 1.62.35 1.12 1.53-1.65.63-1.1 2.1-1.55 1.25-1.35-1.15-1 .9-1.03-1.86-1.7-.17-1.28-.67-.14-4.44-.72-1.76-3.2-2.26-1.34-1.72-1.12-4.66-2.18.34-4.04-.52-.6 1.31-2.46 1.38-.09.83 2.5 2.1-2.24 3.17.04 1.81-1.73.76-.65-1.45-2.57-1.72-1.38-3.5-1.63-1.13-2.52 1.2-1.18 1.47-2.84-2.07-3.34-1-.49-1.34-4.3-3.88-1.75-.38-1.21.6.78 1.62-1.22.36-1.39-.27-1.65-1.27-.95.13-1.47-2.06.1-1.38-1.1-.39-.21-1.27-.88-1.1-.17-1.61-1.3-2.32-.64-2.18-2.2-2.26-.3-1.8.98-1.95.6-2.49-.25-1.7-.73-.85-.56-5.03-.83-.53-2.2-.15-.4-3.47-1.92-1.88 1.63-1.85.4-1.36 1.75-1.11-1.03-1.4-.2-1.69-1.63-1.93-.5-2.88 1.6-1.71-.39-1.18-1.1-.56-2.21-3.89-1.64.46-.26 1.04-6.36-3.75-1.4-1.17-2.3-1.37.36-.97.22-3.7-.36-1.51 2.1-1.94.77-1.76-.55-1.37.77-1.1-.33-.86 3.95-5.76 2.18-1.67 1.27.33 4.63-1.98.56-2.8 2.05-2.91 6.1-1.42 4.32 1.3 1.68 1.2 4.3-2.14 5.29-1.43 1.88-1.32 3.92.07 2.7 1.27 3.76-.08 3.69 1.3 3-.34 3.47.73 2.42-.6 3.85 2.9 3.84 4.03 1.03 2.5.04 4.2.9 2.24 1.32 1.78 1.7.38 1.17 1.58 1.44.9.4.95-.84 3.78.02 2.9 1.76 1.3 3.41 1.63 1.15 1.28-.83 1.5.15 2.95-.97 1.83 2.66.85-.15 1.92.54 1.37 1.33 6.41 1.52 1.57-2.04 3.12.05.92 3.07-.13 1.11 1.66v1.18l1.23 1.02.04 1.02 1.25 1.38 1.69-.16 2.82.2-.54 2.7.36 1.92-1.2 1.82.77.72 1.13 2.13 2.04 2.94.15 2.35-.7.3 1.15 3.02-.47.54-2.33.52-.38 2.26 1.18 2.37-.83 1.93z"/>
    <path region="11" short-name="Vest-Agder" long-name="Vest-Agder" value="6" d="m189.74 997.7 1.2.58-.55 1.72-1.14-1.44zm20.06-4.58.22 2-1.06.25zm-56.29-17.9 3.04.88.77 1.51-.5 1.66-1.17-.42-1.22-1.18-.94-.22zm64.11 14.94-1.41 2.3-1.66-.09-1.1-1.35-.92-.01-.26-1.93 1.84-2.53-.74-1.43-1.33.4.59 1.08-.77 1.87-1.4 1.9-1.02-.1-.81.99.65 1.2-.54 1.1-1.55-.48-.67 1.23-2.04-.07-3.82-.68-1.85 1.3-1.43.28-1.14 2.47-1.69-.68-1.68.77-1.22-.27-1.75.26-.78-1.28-2.17-.52-1.3.94-1.44-1.26-3.34-.9-.26-1.43-2.24.9-1-1.46-2.12.4-1.12.59.28 1.44-.59.92-2.14 1.37-.83-.97.53-2.22 1.18-1.38 2.7-1.64-.75-1-1.38 1.48-1.3.29-1.94 1.56-.72-2.1-1.06-.92-.41-1.36-1.32.1-1.76-.54-1.27-1.27 1.66-.46 2.2-1.18 2.02.72 2.85-.38.02-1.16-1.78.89-1.23.05-1.73-.6-.76-1.08-1.32-.75-.98-2.5-.9 1.87 2.27 2.18-.61 1.12-1.92.53-1.11-.78-.93 1.15 1.78.54.3 2.28-5.49-.9-.75-.68-1.34.33-.17-1.3-.86-.44-1.26-1.58-.01-.74 1.47-.45 1.49-2.22.12-1.26 2.73.22-.3-1.24 1.57-.6-.05-1.34-.84-2.78-1.67 1.57-3.31-1.23-1.82-1.15-1.3-.09-.5-1.02-1.93-.1-1.06-.85 2.38-.74 5.1-2.12 2.32-3.23-.13-3.22 1.62-1.87-.85-5.03 1.43-3.32-.11-1.78-.74-.97.03-1.89-1.83-1.19-1.53 1.17-.82-2.4-1.19-.84 1.8-1.45 1.15.31 3.81-.85 1-1.16-.44-1.77-1.12-1.25.3-1.51-2.2-.7 1.9-4.17 2.66-3.76-1.53-.62-.03-1.84 3.06-1.87 1.67-3.23 1.73-1.02 3.59-3.4 5-3.98-.38-2.77 1.66-1.04.7-1.12.35-.47 2.25.45 6.3 2.65.9 1.47-1.76.44.34 1.23-.64.67-.6 3.3-.62 1.76 1.01 1.46-.37 1.6-2.03-.41-.32 1.11 1.12 1.86.35 1.72-.44 2.6-1.15 1.26-2.3.18-.22 1 .63 1.23-1.57 1.59-.1.87 3.59.11.75-.95 4.43.01 3.31-.9 1.38.25 2.55-1.24.77 1.38 1.02-.2 2.74 1.02 1.02 4.34 1.66 2.67-.9 1.69-1.36 4.75-3-.67-.76 4.5 2.16 1.6.2 1.73-1.5 1.94-2.23.94-.52.79.22 2.81-.28.63 1.2 2.39 2.9-.18 2.18 1.47.55-1.53 2.51.87 1.55-.2.29 1.22-1.3 2.19 2.08.69 2.5 2.28-.73 2.64 1.48 2.2 1.15-.26-.04-1.07 1.27-.95 1.06-1.45 1.08.03-.47 1.53.62.87-.49 2.07 1.03.59-1.66 1.64 2.4.13.4 1.02 1.34-.9.92.8-.74 1.22 1.97 1.41-.74.93-.47 1.95-1.23.82-.67 1.42.41 1.73z"/>
    <path region="12" short-name="Nord-Trøndelag" long-name="Nord-Trøndelag" value="5" d="M362.04 575.78v.84l-1.55.46-2.67 1.4-1.83 1.26-.54 1.02-1.2-.43 1.15-1.62.41-1.57 3.8-.7 1.25-.76zm3.1-50.47 1.22.27.43 1.1-.9.85-1.2.16-.39-1.45zm9.82-4.53 1.61.36-.56.99zm-25.92.05 1.01 1.67-1.79.02zm4.03-3 .09 1.1-1.12.33-.46-.96zm17.3-3.14v1.41l1.41.42 1.58 2.3.43 2.26-1.75.97-2.94-1.8.98-2.9zm-8.67-1.7 1.68 2.62 2.73.93 1.24 2.13-.72 2.75 1.14.68 1.35-1.09 1.2.27 2.17 2-1.1 2.28-.3 1.35-1.51-.74-1.87.09-1.66-2.8-1.47.32-1.24-.5-.98-3.58 1.4-.88.63-1.06-2.77.34-2.3-1.2.05-1.98zm7.06-2.56 1.28 1.08.01 1.41-1.61 4.84-2.53-2.9-1.85-.34-.25-1.1 1.19-1.97.97-.42 2.3-.17zm-1.41-4.68-.44 1.16-1.39.42-.44-.98zm7.23-13.3 1.67 2.34.2.89 1.32.63-1.15.9-3.83.13-4.41.9.04-.84 1.33-1.53 2.53-2.05zm-3.06-1-1.7 2.55-.88-1.23 1.34-1zm2.73-.88.3.89-1.97.76.12-1.2zm-9.62-.75.4 1.39 1.09.4 1.28 1.65.48 1.45 1.4.17-1.73 2.5-2.32 1.88-1.49.86-1.77-2.2-.12-1.22 1.18-1.16-2.25-.57-3.6 2.07-3.1 1.09.83-1.31 1.57-.9.74-1.51 3.84-2.14 1.16-.28 1.65-2.09zm-.75-1.32.08 1.18-2.2.54-.3 1.67-4.13 1.96-.52 1.18-2.79 2.17-2.53.28-.47-.82 1.2-1.25-.51-.7.17-1.49 2.32-1.4 1.6.18.95-.8 2.36-.5 1.9-1.43zm-5.28-.86.08 1.15-1 .62-1.72-.74zm-2.34-.72.95 1.07-1.37.47-1.25 1.86-.77-1.83zm7.73-1.56.7 1.77-1.57-.22zm21.43-6.2-.5 1.47-3.57 2.48-2.07 1.8-1.46.07-.97-1.17.67-.55-.38-1.65 4.62-2.56 2.15 1.24zm4.36 2.08-.05.16-.1 2.02-2.47 2.14-3.15 1.86-.4-.66.45-1.72 1.87-2.41 1.87-2.9 2.59-2.35-.17 1.66.73.77zm-2.62 143.27-4.03-1-10.23.5-2.38-6.38-2.96-4.82-5.7-1.5-3.12-.63-1.7.47-3.25-.23-2.68.68-3.62-1.34-.3-.84.7-1.83.02-4.44 1.34-.64.72-1.42-1.17-.73-1.67.36-1.62-1.36-.61-1.65.77-2 4.07-.38.69-1.46-1.7-.08-.24-.8 1.78-.56.53-1.42-.54-.56-2.94 1.56-1.76 1.34-.45-.43-2.78.96.32-1.8.92-.68.48-1.69 1.95-1.28 1.2.22 1.66-.7 1.7-2.55 1.9-1.55h1.57l1.55-.62.04 1.2 2.06-.79 1.34.35 2.2-1.03v-2.73l2.18-.57 1.2.74 2.1-1.08 1.64.51.53-2.1.2-2.78-1.57-.62-.66.3-2.04-1.09 1.82-1.2.74-1.4-.87-.73 1-1.78.02-1.4-1.91 1.4.25 1.61-1.06 1.64-1.1.59-1.53-.08-2.41 1.61-1.91.05-.66-1.56.22-2.06 1.75-1.43.87.24 1.6-.79.57-1.37 1.4-1.21 1.05-1.72.97.89 1.47-.7 1.7.35.58-.91 2.03-1.88-1.68-1.42-1.86-.03-.47-.95-1.16.48-1.3-.4-.83.75-1.34.16-.53 1.2-1.39.9-2.14.73-2.8 1.8-.5.82-2.3 1.9-.61.92-2.57 1.56-3.82 1.54 2.48.46 1.38-.77 1.17-1.28 2.71-1.57.27 1.02 1.54.66.78 1.32.54 1.98-1.87 1.56-.65 2.51-1.64 2.9-1.02.76-4.26 1.67-.8-.02-2.8 1.2-.84.74-1.77.53-.55 1.66-1.67 1.51-3.54 1.77-1.47 1.27.04.82-2.15-.42-1.7 1.3-2.55-.23-2.16 2.08-.76-2.48-.15-1.68 2.63-3.43.45-1.45 1.32-1.36 3.9-2.1 2.86-2.82.42-2.32 2.76-5.18 1.73-1.9 1.5-2.77 3.46-2.2 2.05-2.9.63-1.85-.49-1.79 1.77-1.78.68-2.58 1.67-.49-.36-1.14-2.64-.3-1.16-4.78 4.8-1.95 1.02-1.6.75-3.76-3.6-1.29-1.35-1.39-.81-.22-1.33-2.51.93-1.09-.86-1.58-2.09.32-.34-.93-2-1.74-1.3-1.63.76-.52 1.44 1 .86-2.1 1.2.75 1.21 2.54 2.21-.03.1 2.74 1.37-.46.02-2.53.4-1.28-2.63.38-1.89-.99 1.54-2.66 1.74 1.33v-1.84l1.24-.52.56-.98 3.14.8.27-1.24 2-1.3-1.96-3.43 2.07-1.93 2.48 2.36.63 1.36-.18 3.24 1.3.05 2.05 2.39.33 1.47-.67 1.89 1.71-.6 1.88-.13.27 1.05 1.34.23-.98 3.54-1.24 1.1.47.84 1.35-1.02.15-.96 1.3-.44-.32-1.63 1.57-1.1.97.24 1.88-.58.81-1.5-1.18-.24-.91.88-.74-1.84.6-2.21 1.35-.8 1.65.15.53-1.1 2.37-2.5 2.75-.62-.26-1.2-2.33 1.12-.64-.6-1.64 1.2-1.24.03-2.17-2.69-1.35-2.32-.44-2.94 1.5-.95-.49-1.54 3.7-1.7 1.97-2.85 2.31-.16.86.35 1.88-.95.13.82 2.09-.38 1.12-.96-1.36-.98-1.44.44-1.47-.68-1.4-2.38.43-1.46 1.1-1.3 2.13-.56.33-.7 3.31-1.28 2.73-1.55 1.99.48 1.85-2.07 2.51-.36.8.61.15 1.37.75.48 2.43-.1 2.63 1.13 1.86 2.73.5-.2-1.67-2.77-4.37-2.13-1.14.33-1.8-1.66-1.37-.31-2.71.34-.58 1.16-1.92-.2-2.23 1.92-1.46.44-3.88 2.26-2.36.91-.32 2.14-2.98 1.85-1.15-.26-1.83.5-.1 1.7-.93.59-1.3 1.76-4.18.55 1.4-1.24 1.38-.26 1.22-1.13.92-1.6-2.68-.55-1.46.2-1.03-1.05 1.1-2.14 4.45-1.21 5.35-.25-.59-1.9-2-2.24-.37-1.06 2.2-1.14 2.46-.14 3.05.68 1.26-2.35-4.77.11.22-1 1.24-.97 2.1-.59.49 1.18 1.87-.5 1.67-.93 1.58-1.58 2.07-1.07.33-1.18.64.5 1.99.72-.36 1.37.3 2.18 1.08 1.19.93-.28.7-1.28 1.6 1.7-.22 1.38.7.7 1.34.14.88.91 3.66-2.2 1.97.32 1.65.86 1.83-.9.6.27.14 1.85 1.25 1.77 2.78-.88 1.65.94.76-.92-.47-1.67 4.2.24 1.36-1.88-1.14-1.32.66-1.6 1.17.48.99-2.63 1.82-.35 1.1-2.67 2.12-.38 4.75 1.16 3.38.32 3.77-1.23 3.1.92 2.56-.49 2.23.2 1.7-.55 3.07.02.56-.6 2-.16 1.62.59 3.18-1.25.85.62h1.92l1.38 1.24.93-.28-6.33 10.43-3.74 6.58-10.23 18.52-1.73 4.43 7.52 5.62 6.22 2.26.91 1.2.82 13.34.31 6.69-2.91 6.47-3.5 7.43-8.22-3.01-5.79-1.57-10.63-2.5-9.4 2.51-8.2 5.99-7.14 11.37-5.26 7.55-1.17 3.18-2.53 2.97-2.7 2.65 1.72 8.72-4.72 9-3.98 6.29z"/>
    <path region="13" short-name="Aust-Agder" long-name="Aust-Agder" value="4" d="m225.2 984.7 1.08.6-.98 1.6-1.07-.1-.14-1.46zm17.72-15.43.33 1.22-.67 1.09-1.6-.43.8-1.38zm7.21-3.76-3.8 4.8-2.94.25-.11-1.71 1.95-.37 1.18-1.31 2.85-1.52zm1.19-2.8-.42 1.79-.9-.43zm6.62-13.92 2.24.86 1.94-.17-.52 1.17-3.47-.77zm10.18-1.21-.43.82-2.91 1.14-1.26-.66-1.65-.09-2 .52-1.67-1.06-1.93 1.62 2.04.37 1.5.64 3.27-.51-.8 1.6.01 1.3-1.3 1.62-1.7-.01-1.46.7-1.86 2-2.33.28-.34 1.59-1.72.46-.55 1.48.16 1.12-1.68 1.46-1.08.3-.69 1.8-2.19 1.2-.31.64-2.88 1.1-1.84 1.25.41 1.14-1.15 1.87.28 1.43-3.53 2.82-2.04.5-.44 1.11-2.26 1.46.49 1.06-.76 1.14-1.17-.44-2.77 1.37-1.3-.88-1.57 2-1.32.76-2.3.43 1.03 1.3-1.06 1.71-1.07.54.15 1.8-1.91.82.28-1.67-.89-.37-.98-.43-.41-1.72.67-1.43 1.23-.82.47-1.95.74-.93-1.97-1.4.74-1.23-.92-.8-1.34.9-.4-1.02-2.4-.13 1.66-1.64-1.02-.6.48-2.06-.62-.87.47-1.53-1.08-.03-1.06 1.45-1.27.95.04 1.07-1.14.26-1.48-2.2.72-2.64-2.5-2.28-2.09-.7 1.3-2.18-.28-1.22-1.55.2-2.5-.87-.56 1.53-2.18-1.47-2.9.18-1.2-2.39.28-.63-.22-2.81.52-.8 2.23-.93 1.5-1.94-.2-1.73-2.16-1.6.76-4.5 3 .67 1.36-4.75.9-1.7-1.66-2.66-1.02-4.34-2.74-1.03-1.02.21-.77-1.38-2.55 1.24-1.38-.25-3.3.9h-4.44l-.75.94-3.6-.1.1-.88 1.58-1.59-.63-1.23.22-1 2.3-.18 1.15-1.27.44-2.6-.35-1.7-1.12-1.87.32-1.11 2.03.4.37-1.59-1.01-1.46.62-1.77.6-3.3.64-.66-.34-1.23 1.76-.44-.9-1.47-6.3-2.65-2.25-.45-.36.47-1.3-.43-2.19-.06-.29-.78.66-4.33-.45-1.48.7-3.5 1.75-3.64 1.25-2.1 1.49-.2-1.52-2.09 2.95-.87 1.67-1.03 1.16-1.38-.46-1.56-1.49-1.34.72-.44.1-1.34 1-4.08 2.05 1.02 1.82-2.27.65-2.3 1.6-.64 2.96-.44 6.36 3.75.26-1.04 1.64-.46 2.2 3.89 1.11.56.39 1.18-1.6 1.71.5 2.88 1.63 1.93.2 1.69 1.03 1.4-1.76 1.1-.4 1.37-1.62 1.85 1.93 1.88.38 3.47 2.21.15.83.53.56 5.03.73.85.25 1.7-.6 2.49-.99 1.95.3 1.8 2.2 2.26.66 2.18 1.29 2.32.17 1.61.88 1.1.2 1.27 1.1.39-.09 1.38 1.47 2.06.95-.13 1.65 1.27 1.4.27 1.2-.36-.77-1.62 1.2-.6 1.76.38 4.3 3.88.49 1.34 3.34 1 2.84 2.07 1.18-1.47 2.52-1.2 1.63 1.13 1.38 3.5 2.57 1.72.65 1.45 1.73-.76-.04-1.8 2.23-3.18-2.49-2.1.09-.83 2.47-1.38.59-1.31 4.04.52 2.18-.34 1.12 4.66 1.33 1.72 3.21 2.26.72 1.76.14 4.44 1.29.67 1.69.17 1.02 1.87 1.01-.9z"/>
    <path region="14" short-name="Finnmark" long-name="Finnmark" value="5" d="m696.29 91.26-1.32 1.58-.24-1.62zm-41.24-13.4.81 1.22 1.75 1.18.47.97-.82 5.07-1.16 1.18-.95-2.8.08-3.24zm217.06-.3-.67 1.43-1.01-1.4zm-6.7-.8 1.32.67 1.45-.57 2.05 1.86-.16 1.25 1.08.36-.62 2.3 1.77-1.47 1.28.98-1.64 1.3-2.75 3.05-1.3 1.76-3.19.67.4-1.45-.16-1.36.44-1.8.73-.15-.34-2.5-1.18-4.34zm-183.54-2.02.74.82-.01 2.34.57 1.35 1.47-.93 2.13 1.7 2.14 3.55.18 1.04-1.25.86-1.76-.51-3.12.66-3.58-.8-1.5.24-3.3-1.8-1.32-.27-1.76-2.9 1.1-1.46.66-.08 2.78-2.29 2.35-.6.46-.5 1.88.38zm64.3-2.14 1.03.7-.16 1.42-1.4 1.42-.57-1.62zm-49.03-17.71.65.93 1.05-.4.15 1.5 1.08.88-.56 2.15-.23 2.53 1.83.91 1.11 1.04-.18 1.6.82 2.36-1.17 1.36-2.3 3.68-1.02 2.2-3.12 1.22 1.67 1.14-.4 1.46-1.43.73-.37.82-2.44 1.37-2.2-1.08-.29-1.68-.73-1-2.4-.84-1.68-1.35-.37-2.68-.99-2.86.7-1.72 2.27-3.3 2.05-1.4L690 65.5l.4-1.25-1.27-2.25 1.81-.16 1.33 2.52.84-1.02-1.16-1.82 1.5-.22.67.87 1.49-.64-.36-.84 2.53-1.82-1.58-.33-.4-1-1.84-1.52zm6.32-10.1.61 1.3 1.2.99 1.83.02 1.77 1.2 1.32.26 1.9 2.5 1.1 2.73-.26 1.83-1.49 1.76-.88 1.8-.25 2.01-1.86 1.24-2.74.16-2.4-3.37-1.08-2.68-2.18-.22 1.3-1.63-.62-1.78.9-1.97-.95-.05-.75-1.22-.1-2 .52-2.34zm50.99-5.67.74 1.51-.44 1.37-1.1.94-.93-.92.02-1.34zm-63.92-1.7 1.7 2.74 1.38.4.45.85 1.42.56.09 1.54-1.05 1.54-1.09.29.41 1.33-1 .99-.57 1.84-1.2-.38.19 2.41-1.63.47-.99-1.05-.56 1.23 1.01 1.56-.95 2.82-.66 3.4-1.59-.16.22 1.4-3.02-.26 1.25 1.54.1 1.47-1.44.76-2.04.18-2.04-1.93-.7.82-1.31-.76-.55 1.2.47 1.8-1.36 1.8-1.2-.07-.45-1.23-1.1-.75.23 2.7-2.78.39-1.5-.4-.02-2.16-1.26 1.3.41 1.9-.96-.03-2.02 1.16.23-2.33-.57-1.08 1.45-1.96.82-.1.77-1.61-1.43-.79 2.03-1.53-1.2-.78-2.06-.28-1.08 1.18-3.05 1.07-.52-1.29 1.1-.67-.6-1.5-1.59.02-.3-1.57 1.44.46 2.88-.33.92 1.23.66-.95 1.22.32-.04-1.78 3.09 1.38.5-1.05-.09-1.59-.86-.65.26-2.2 1.1 1.32 1.87 1.12-.03-1.81.83-.94h2.06l1.04.92-1.5 2.09.13 2.26 1.4-.52.23-.98 1.35.44 3.1-.56-1.75-2.48.35-.72-2.84-3.32.76-1.22 1.85-1.32.86 1.32 1.85 1.6 1.1.24-.16 1.6.92 2.32 1.42-.13-.62-1.46 1.25-1.18-.33-1.37 1.38-.74.83-1.82-1.95-1.75-1.42-.77 1.48-2.16 2.99 1.1.1-1.54 1.83 2.9.79.28.55-1.86-.92-.5.35-1.26zm94.86-11.27.62 1.78-1.15-.07zm-79.44-3.5.92.48-.39 1.5h2.2l-1.7 2.77 1.77-.36 2.36.08.31 1.5-3.1 1.6.23.88-1.66.54-1.67-.64-1.74-1.76 1.07-2.64-1.21-.72-.53-2.08zm1.96-4.23.34.86-1.47 1.35-.2 1.4-2.68-.25-.37-1.6 1.73-.43zm20.73-.32 1.69 1.74L728.7 21l-.88-1.14zm-7.01-4.03 2.55.7-.16 1.82-.67.88.87.96-.46 1.02-1.4.49-2.31-1.02-.5-.62.61-1.92.68-.37 1.5 1.5.49-1.35-.95-.44zm22.05-9 .36 1.91 1.26-.3 1.1-1.15.88.64-.27 2.48-.64 1.33 3.03-.25 2-2.68 1.45.7.58 1.22-1.09 2.33-1.47.36-1.84 1.02 1.68 1.62 1.91.98-1.87 1.05.44.77 3.78-.7.57-2.32 1.24-1.68 1.66-.58.18 2.19-1.7 3.16-3.26 2.1-1.1-.3-1.28.88-2.5.24-1.28-.28-.6 1.79.22 1.39-1.21-.13-2.06 1.38-1.39-.92-.86-1.81-2.3-1.06 2.1-1.8 1.12-1.73-2.04-.13-1.29 1.38-1.63.96-1.47-.1-.8-1.34-.07-1.81 1.38-.87-1.49-1.15 3.22-1.03 2.5-1.98 3.6 1.12-.31-1.55-1.28-.38-.12-1-1.28-1.22 1.87-1.78zm-70.34 170.27 8.86-1.55 2.43-2.05 1.55-.72.43-1.27-.32-1.25.75-1.48-.49-1.16.22-1.92-.42-2.64-.76-1.63-.74-.33-2.75-4.3-1.2-2.47-1.04-.26-.32-2.1-1.29-2.33.17-1.8-.9-1.23.05-.9 2.6-.64 3.15-2.41 3.1-.8 2.46.48-.81-2.45.97-.7.43-2.34-.09-2 1.66-1.33.99-2.09-1.74-1.27-1.85 1.88-5.26-3.23-1.08-1.75.21-1.98-.68-1.56-2.38-1.3 1.63-4.2-.21-1.27h-1.41l-.84-.67 1.75-2.3-.92-1.23-2.47-.13-3.27-1.2-1.13-1.02-.02-1.14-1.85-2.35-.15-1.15.66-1.07-.29-1.47-1.12-.3-1.78-3.94.08-1.48-.52-2.33-.84.01-2.07 1-.82 1.03-2.24 1.7.33 1.37-1.11.93-1.16-1.15-1.67-.15-.78-1.43-3.76-3.58-1.5 1.16-1.66.14-1.04-.7-1.89-.52-1.97-1-1.69-.01 2.4-2.95 2.93-1.53.61 1.57-.21 1.62 1.36.55.38-1.99-.5-2.94-.43-.74.83-1.6 1.37-.26-.17 1.66 1.48 2.3 2.3 1.26 2.4 2.31.58 2.15 1.37.89-.82-2.72.17-1.05-1.53-1.95.2-1.59 1.22-1.12 1.2-2.54 1.05-1.43 1.61.24.93.87 1.32.37v2.34l.68.48.87-1.84 2.03-.25 1.8.65-.45 1.27.42 4.2-.77 5 2.68.28 2.02-.9 2.3.86.55-.49-2.86-1.47-2 .43-.82-.58.48-1.28.09-2.26-.23-3.08.61-.88 1.67.11 4.73 1.77 1.92.06 3.9.56 2.25-.26.92.49.21 1.73-1.71 3.26-1.6 2.51-2.86 1.5h-1.27l-1 1.13-1.42.33-2.3-.16-2.02 1.62-1.96 2.09.63 1.15 2.34-2.85 1.72-.31 5.35-2.03 1.44-1.27 2.3-.87 1.05-.97 1.93-2.65.97 2.32v2.52l.5 1.22-.4 1.02 1.61 1.94.94-1.26 1.02 1.85.01 1.44 1.15 1.32-1.8 1.59 1.92.42 2.65-2.28.38-1.95 2.11.22 1.86.88 1.49-1.34.72-2.85-.67-.44-2.63.25-.72.6-3.8-1.55-1.2-1.37-1.48-1.02 2.8-1.8 2.49.01.27-2.11-1.26-.73-1.71-2.46-2.35-2.58 3.14-1.57 2.05-.32-.21-1.5-3.27.98-.01-1.25 1.43-.51 2.36-2.3 1.75.23.43-.86-2.75-1.2.2-1.36 2.74-4.8 1.84-2.5 2.49-2.63.3-2.4 1.1-1.3 2.3-1.51 2.27-.48 1.55 1.21 5.29.2-1.83-2-3.02-1.29-1 .02-.03-1.4 1.2-1.6.01-1.15 1.52-1.41-.61-2.54.05-1.67 1.09-2.24.66.3 1.96-.66 1.48.03.43 1.2 2.41 1.04 1.47 2.17.76.03 1.13-1.17-.31-1.46-.74-.5-2.08-2.55.45-1.01-1.33-.74-1.92-1.9-3.3.3-.13-.99-2.33-.08-1.01-.57.08-3.5-.85-1.19 2.19-3.06 1.36.7-.13.91 1.55 2.06 1.16.24 3.21 1.98.56-.88-.24-1.45-2.2-3.29 2.45-2.1-3.1-.72 1.29-1.2-1.61-.55-.47-3.8 1.5-1.5 1.55.54 1.94-.92.1 1.9.92 1.25h.74l1.07 2.03 1.63-1.44.56-2.66 1.03-.83 1.24 1.6-.2 1.5-2.13 3.89 1.94.73.48-.73.43-2.33 1.36-1.83 1.07 1.28 1.29.76 1.21 2 1.03 3.5.75.27 1.7-2.81-.48-1.99.62-1.65-1.79-2.7-1.35-1.57.3-1.67 2.88.85.52 1.02 2.86 1.99-1.67 3.24-1.02 1.11 1.4.85 1.02-1.03 1.97-3.98 2.33-.26.56 1.47 2.73-1.65 1.07.7-.64 1.22 1.54.41-1.34 2.53-1.05.66-.46 1.45.3 1.54-1.38.53-1.77 1.23-.25 1.1 1.17 1.34-3.57 5.82-1.56.64.43 1.06-1.7 4.4-1.07.77-.21 1.96-2.83 2.97-.08 1.44 2.98-1.58.68 1-.48 1.31-1.5.67-1.85-.18.5 2.04 3.4-1.28.3 2.8-1.04 1.84 2.2.47.06 1.33-1.57-.83-1.07.56-1 3.18.45 3.5 1.2-1.4 1.24.07.37 1.66-2.2 3.72-3 2.76-.05 2.06.37 1.42.92.75-1.24 1.65.7 1.24.53 3.8 1.38.15 1.83 1.12-.01-1.47-1.4-.85-.55-2.33.77-2.2.87.7.33 1.6 1.21 2.99 1.48.86 1.9-2.72-.18-1.32.54-2.6.04-3.42.78.25 1.56-3.04-.19-2.17 1.51-1.52.47-1.05-.6-2.28-.84.22-2.11-.77 1.04-1.47-.26-1.72 1.25-1.6 1.03-.53.48-2.95.75-1.31-.24-1.05.75-1.24.16-1.91 1.98-2.45 1.67-4.04 1.22-.86 1.28-2.5-.58-1.4.64-2.4-.19-2.02.48-.78-.65-1.3.49-1.2 1.34-.01.29-2.6 1.64-2.67.1-1.7 2.05-4.98 1.14-1.75 1.47-3.44 1.05-1.69 1.45-.38 1.02-1.37 1.3 1.63.05 2.04.8.34-.01 2.09-.88 1.75.4 2.62 1.45-1.4.28 2.94-.74 2.08.72 2.15-1.68 2.73-3.1 3.08-1.16.45-1.04 2.72 2.64-1.74 1.76-.76 1.42.08 1.58 1.15.21 3.7-.14 1.82.45 2.45-.88 1.62.31 2.26.75.32-.19 2.25-.55.5-.03 2.34 1 1.77-.67.58-.17 2.47 1.17.35.09-2.22 1.25-1.86.09-2.46 1.85 1.12 1.06-1.07.43-1.2-.67-2.63 1.02-.63 3.42-.32-.4 1.24 1.2.2 1.51-2.92-1.47-1.3-.14-.95-1.43-1.53 1.39-1-.61-1.16-.97-.11.94-3.33 1.2-.33.64.72 3.01.21.43-.88-2.65-1.39-1.75-.6.65-3.95-1.54-.7.1-3.57.69.23 2.98-.68.93.76.94-.26-.81-1.5-.9-.42-.83-4.72 2.21-.56 1.52.76 1.1-.97v-3.1l-1.17.06-2.03-1.01-4.38.46-2.61-1.07-.3-4.84 1.13-.17 3.54 1.98-.78-2.53-1.26-1.26-1.1-.21-.52-1.57 1.34-1.57.83.64 2.8.22 2.35.56.15 1.41.86 2.21.64-1.06-.13-3.18-2.18-1.63-.67-1.51.3-2.22 1.27-1.63 1.61-.14-.75-1.46 3.03.56-.34 2.9 2.34 2.1 1.44.48 1.94-2.59 1.54-.77.48-1.86.58-.08.42 2.84.44-.04 1.24-3.8L806 0l1.28 2.62-1.24 1.5.3.72-.32 2.15.77 1.45 1.23-.12.84-2.3 2.1-.71 3.9.8.58 1.03-.08 2.34-.78 5.08-1.28 3.04-2.4 4.2-3.9.68-1.43-.03-.69-1.31-.99.35-.41 1.53-1.73-.29-1.78 1.06 1.28.67-1.44 2.69.48.37 1.4-2.06 2.2-.86 3.92.56 1.64 1.4-2.33 3.46-1.83 1.13-1.84 1.63.98.58-1.8 1.93-2.43 1.29 1.33.51 3.68-2.26.83-.96 4.7-4.15.67-1.64 1.49-1.4 1.31 2.3.17 2.52-.17 1.87-1.5 3.9-2.05 2.86-3.61 3.92-.02.81-1.63 1.47.91.5-.02 2.44.7.06.42-2.85 2.53-.57 1.64-1.86 1.75-1.29 1.05 1.08-1.23.55-1.7 3.37.82-.09 1.94-3.43.73-.07.84-1.68 1.33.04 1.2-1.3.76 2.52 2.01-1.16.15 1.82.97 1.02.23-3.2-1.36-1.07-1.2-1.57-.86-.31-.15-2.38.84-2.27-.28-2.98.17-5.16-.95-1.67 1.48-3.47 1.24-1.05-.4-1.07.9-3.97 1.9-3.13 3.25-1.08.8.54 2.08-.55.67 1.28 3.66-.22.81 1 .66 2.6 2.66.19-.06 1.8-1.25 1.26.34 1.28 1.49.16-1.06 1.63 1.94.1-2.1 2.2.32 1.1.97.27 1.35-3 1.47-1.32 1.35-.22 2.64-1.87 1.76-1.96 2.24.28.7 2.32.26 2.87-.85 1.2.24 1.16 1.8-1.35 1.76-5.55 3.13-.99.59.59 3.06 1.05-1.4 2.47 2.96-.31 2.6 1.52.17 1.68-.64 1.44-1.3.67-.1 1.35-2.94.96.38 2.37 1.75.68 1.17-1.88 3.18-2.61 1.9-.81 2.72.13 1.27-.39 1 .73.3 1.99 1.72.56 2.23 1.24.04 2.6.95-.29.94.72 1.22-2.07 1.59-.97 1.1.42 2.56 2.87.27 2.15.94.16.24 1.87.74 1.24-.28.98.94 1.04-4.33 3.08-1.41.27-4.26 2.7-.89-.03-1.76 1.44-.82 2.5-2.01 1.24-.4 2.38.97.92-.07 1.33-.93 1.37-1.56.81-2.1 2.03-.61 1.59-1.76 1.28-2.5 1.24-1.94.37-2.08-.43-3.77-.38-1.85.34-2.12-.12-.8.69-1.8-.08-1.19-.73-2.04.16-.83.5-2.33-.76-2.24 1.22-3.32-1.2-2.46-.16-1.91-.74-2.15.02-2.28.96.5.76 4.12-1.18.45.32-1.91 2.66-1.56 1-.29.85 2.22.75 1.44-1.07 1.8-.68 1.45.33-.35 1.09 3.7.99 1.39-.25 4.7 1 .3 1.16 1.33.18 2.74-.93 2.88.4 1.3-.22 1.33.73 3.33.86-.25 1.2-1.7 2.09-1.3 1.15-.35 1.4-.9.21-1.4 3.36 1.6-.06.9-1.9.87-3.1 2.67-.24 1.26.31.76-.94 1.94 2.08-.1 2.11 1.4 1.44-.84 1.8-1.3 3.68-.26 3-1.18 3.1.8.02 1.46-2.08-.06-1.26 2.8-2.22 2.66.1 1.32-1.46.51-1.31 2.07-1.45.67.69-.87 1.61.58 1.51.8-.05.86 1.19.96-.83-1.56-2.66 2.3-1.7-1.9-2.54-.2-1.58-1.16-1.38.1-1.54 1.34-.94 1.22.1 1.05-.65 1.19.74-.47 1.1 1.73.23.88 1.57.4 1.94.75.84.85 2.4.21 1.52 1.69 3.7.39-.57-1.3-3.01.63-1.03-1.39-1.73-.07-1.24-1.02-1.58.01-1.02 1.81-1.19.7.54 2.53-.53 2.83 1.25-.85.5.36 1.41 2.26-2.7 2.48 1.91 1.33 2.66 2.22 2.72-.4.78 1.5 2.42 1 5.32-2.47 3.12-4.13.19-3.77 1-3.43-2.95-6.1-3.34-2.13-.72-1.48 1.25.43 1.07 1.17-.35 1.73 3.61.9 1.42.32 2.46-1 2.08.73 3.22-.75 1.53-.37 1.88-.66 1.23-1.51 1.2-.89-.79-1.61-.02-1.31 2.3-1.72 1.54-.04 1.48-2.38 4.17-4.6.7-2.39 2.87.37 2.64 1.32 1.33.03 2.38.4 1.56-.6 3.83.49 1.77-1.36 3.87-1.24 2.42-.57 2-3.97-1.9-2.37-1.36-1.87-2.23-.37-4.6-.85-3.85 7.07-15.02 1.6-6.62-7.04-10.74-1.9-3.9-6.1-1.23-6.48-1.66-8-1.87-2.36-1.84-.15-2.4-5.3-1.92-5.93-5.85-.82-2.92-1.05-2.68-3.9 2.01-1.12 1.21-1.4-.65-1.9.52-1.33 1.6-.06 2.5-2.47.98-1.35 2.4-1.15.32-.72 1 1.05 1.42-3.07 2.38-.99.45-.68 1.28-1.47.77-1.52-1.56-1.5-.02-1.33.6-.94-1.75-1.54.4-1.26 1.2-1.69-1.06-2.87 1.83-2.08.98.01 1.65-.96 1.5.44 1.56-.84 2.84-2.54 2.57.32 1.65-1.13 1.58.01 1.23-1.58 2.7-1.33.94h-1.1l-.82 1.49-.32 1.64-1 1.33.17.76 1.66.66.46 1.9.56.62-.49 3.03-2.07 2.7 1.07.8-.29 2.83.14 1.67-.21 3.22 1.39 2.37-.3 2.6-.81.52-.64 2.92.59 2.4-.14 1.56-.63.97.84 3.14-.41.68 2.07 4.14-.13 2.75.49 2.13 1.05 1.58.25 1.78.9.93-.93 2.02-.09 2.06-1.31 5.85-1 .94-1.16-.03-1.9-1.1-2.52 2.28-2.5 2.7-1.38 3.37-.94.9-.3 3.24.44 3.35-.02 2.46.8 2.73-.9 1.73-.81-.22-1.24 1.31-1.09-.2-.97 1.08.24 3.8-1.34-.35-2.88-5.16-5.26-2.64-4-.71-4.66-.63-1.49-.52-1.36-1.17-1.57-.4-.25-2.7-2.12 1.06-3-3.13-3.1-.26-2.39 1.69-.47 5.22-1.07 3.58-6.15 1.88-6.74 5.73-3.9-4.08-6.6.99-5.64-2.2-2.07-1.14-4.1 2.6-1.9-8.12-4.8-6.33-.76-2.75z"/>
    <path region="15" short-name="Vestfold" long-name="Vestfold" value="7" d="m311.75 926.5-.12 2.44-.7-.09-.13-1.6zM310 921l1.3.95-.65 1.47-.37 3.33.43 1.77-1.17.82-.36-3.05.19-1.78-.15-2.74zm.46-7.41 1.23.86 1.28 5.1-1.29 1.91-2-.95-.9-.98.31-1.62.95-1.65zm-.52-31.82.98.17 1.02 1.04.44 2.53.65 1.54-.15 1.24-.9 1.91.28.8-.48 2.45-1.1.59-1.03-.35-1.94-1.63-.48-.81-1.28-.4.9 2.61.77.2.66 2.37 2.75 4.8.7-.83 2.02.23.1 1.44 1.33-.05.08 1.1-1.6 3.32.17 1.5.92 1.81 1.02.6-.24 1.98-2.44 3.6-3.07-2.76-.4 3.82-1.28.84-1.13 4.24.17 2.06-1.83-.83.9 4-1.04-.64-.53 2.72-.58-.21-.02-2.92-.97-.13-.82 2.01.62.43-.11 2.1-.93 1.1-1.86 1.01-1.07-.58.54-2-2.93 1.6-.02-1.34-1.85.33.56 1.03-.07 2.78-1.2-.06-1.42.84-2.76-.25-.56-.63-1.32.53-.3-1.2.53-1.97-.3-2.71.14-2.14.83-1.93-1.18-2.37.38-2.26 2.33-.52.47-.54-1.16-3.01.7-.31-.14-2.35-2.04-2.94-1.13-2.13-.77-.72 1.2-1.82-.36-1.92.54-2.7.15-3.36 1.74-.78 1.23.91 2.55.41 1-.88 2.92.51 1.47-.54-1.1-3.03-1.27-1.47-2.27-4.07.57-1.56 1.9-.9-.17-1.1 1.09-1.73 1.34 1.3 1.95-.01 1.16-2.02 1.45.37 1.43-.23 1.16.55 1.49-.53 1.54.53z"/>
    <path region="16" short-name="Nordland" long-name="Nordland" value="9" d="m403.34 479.04 3.2.8-1.93.93zm-13.56 2.2 1.17-1.43-.73-.77.17-1.66 1.79-1.36.91.64.14 1.26-.9 2.1zm-.05.16 2.34-.91.4.56-1.16 1.24-1.69 1.13zm3.41-10.68.68 2.37-2.4-.48.19-1.07zm5.12-17.81-.02 1.33-1.32 2.8-.46 2.25-.96.16-1.06-2.1 2.61-2.5zm-.36-1.34.55.46-1.9 2.23-.19-1.49zm1.3-11.14.53.66-1.06 2.66-.78-1.18zm-1.81-3.65.74 1.4-1.62.81-1.22-.76zm-6.59-1.44 1.96.46 1.7-.12.81 2.05-.3 1.7-.85.46-.36 1.5-2.75 3.05-.33-.98-1.8-.03.03-.83-2.46.08-.33-.51 1.25-1.74.24-1.56 1.14-2.34zm17.36-.04-1.3 2.34-1.7 2.5-.87.42-.8-1.07 1.46-1.82 1.34-.49.82-1.54zm1.46-6.43.12 1.18-1.06 2.12-1.68-1.14zm-1.75-3.89-.93 1.38 2.53-.7.22 1.22-2.78 1.24-.1-2.5zm-1.85-5.96.56.37-2.04 1.89-.16-1.48zm-2.25-4.4.25 2.06-1.7.27.27-1.5zm3.46-1.4-1.26.85-.92 1.91-.95.39.17-2.56zm16.23-.92.19 2.4-2.21 1.4-3.16.4-1.12.53-3.75 3.1-1.77 1.82-2.2 3.14-.96-.94 1.86-.78.1-1.37-2.75.57-1.02-.93 1.02-1.62 1.52-.16-.14-1.84 1-1.67 1.65-1.66 2.22-1.47 1.95-.44-.41 1.19-1.35 1.36.02.75 3.27-2.21zm-17.06-10.97.04.87-1.19 2.2-.6-.92.9-1.59zm10.46-.58 1.24.36 2.2 2.2-1.2 1.02-2.03-.2zm8.36-1.46.02 2.16-2.72 1.34.02-2.54 1-.83zm-11.2-1.66.41 1.84.68 1.04-.49 2.94 1.21 3.14-.37 1.02-2.02.57-1 1.81-2.61 1.53-5.05 1.7.1-1.83 1.6-.54.47-1.09 1.77-1.2-2.8-.04.97-1.37 3.24-.99 1.1-2.1 1.23-1.05-.22-1.34-1.72-.19-.28-1.66 2.77-.56-.23-.85zm15.88-4.02 1.79.52-4.25 3-2.3.82-1.2-.12 1.37-1.72.37-1.18 1.2-.74zm-8.55-.65 1.27.08.57.81-.1 2.68-1.6 1.73-1.89.28-.96-.75.04-1.38-1.4-.12.91-1.53 2.9-2.37zm1.3-8.2.63 1.98-1.55.24-.57-.78zm7.5.64-3.3 1.23.06-1.7 1.37-2.4 1.23.18.95 1.92zm-6.39-4.7.53 1.25-.7.81-.4 2.15-1.47-1.86.09-1.46zm2.36-.5-.6 2.2-.42 3.04-1.26-.27.14-2.7 1.38-.88zm-2.93-7.36.49 1.52-.32 1.1-1.95.71-.5-1.26.32-1.28zm5.54-1.8.38 1.71-1.27.83-.56-1.56zm-12.04-1.75 1.16 1.24-.58 2.38-.85.72-.95-.5.02-1.85zm12.34-2.3-.56 3.01-1.26-.1-.05-1.76.6-1zm.94-4.25.38.59-.17 2.11-1.11.63-.53-1.48.27-1.02zm8.31-6.23 1.65.76 1.13-.14.53 1.1-1.54.74-2.1.26-1.2-.29-.87-.9zm3.92-4.5 2.6.7-.72.62-5.98 1.32-.3-.89.76-.95 1.53-.66zm5.8-1.36-.49 2.22-1.55.04.7-1.86zm4.5-16.13 1.28 1.02-2.02 1.39-1.53-1.2.56-.9zm1.07-2.88 2.17 1.17-1.17.56-1.9-.68zm12.5-5.23-.29 3.36-1.18 2.69-.82.79-.09 2.37.92 1.14-.74 1.43.13 1.49-1 1.04-.87-.94-.09-2.07-1.05-2.3-.92-.17-.86-1.25-1.35.15.2-1.34 1-.82.26-2.43.68-.83 2.14 3.16 1.35-1.14.9-3.63zm8.82-3.2.69 1.12-5.31 1.74-1.74 1.25-.52-1.77.6-.58 3.6-1.74 1.59.32zm1.23-.1 1.93-.04.1 1.23-2.22-.16zm-7-15.35.83 1.7-.87 1.96-3.34 1.45-.75-.97 1.78-2.61zm20.8-16.57-.48 1.64-1.97.62-.07-1.12zM421.58 288l-.08 1.24.53 1.7-1.9-1-.51-1.08zm68.12-21.8-.3 1.51 1.3 1.57 2.55.61.47 1.5-2 1.53-1.31.12-.78-.85-3.57.35-.71-2.37 1.48-1.65 1.14.29.42-1.17zm16.06-2.74 2.38.83 1.8-.4 2.24.78.84 1.54-1.62 1.44-2.56-.95-1.88-1.9-.8.37v1.34l-1.24.62-4.65-.8 2.89-2.2zm-12.7-.52.86 2.81.71.86.52 1.9-3.1.25-.81-2.19 1.29-2.1zm30.17-3.3.72.47-.3 2.28-1.12.22-2.8-1.74 2.68-2.09zM434.6 257l.04 1.1 1.42.12-.8 1.67.17 1.28-1.99 1.08 1.85.58.36 1.4-.37 1.95.54 1.15-1.48 1.88-1.88-.05-.67-.96-1.58.64 2.92 1.6-1.06.91-.62 2.6-1.5.2-2.45 1.28.09.7-.98 1.98-1.48-.19.8-1.31.45-1.86-.33-2.13 1.56-1.53.8-4.13 1.03-.06.05-3.71 1.7-1.25-.04-.8 1-1.35 1.37-.18-.64-1.87zm75.12-2.98.3 1.47-1.14.64-1.33-.51.94-1.2zm-69.46-1 2.55 1.02.9 1-1.22 3.02.13 1.01-.63 1.82-.32 2.46-.9-.12-2.12 2.28-.76.03.17-2.96-2.22 1.7-.48-2.1.97-1.73 1.1-.72-.02-1.73 1.89-.56.65.5-.6 1.48.94.45.03-3.16-1.13-.9zm39.9-3.28 1.28.33-.75 1.75-1.96-.36.67-1.56zm8.2-5.92.92.24-1.14 1.71-1.22.68-.72-.64.59-1.45zm-3.61-.72.91 1.03-1.18 3.45-.88.16-.85 1.7-1.65-1.01.58-2.66 2.03-2.42zm-21.39-2.76 1.48 1.7.74-.04.97 1.82-.75 2.63-1.22.47-1.13-.84-.62-1.7-2.12-1.67.52-1.88zm-5.64-.3.9.15 1 2.41-.47 1.14.61 2.55 1.6-1.7 1.34.6.98 1.7-1.27 1.25.01 1.55-1.41.08-.51 1.27-1.15.79-1.62-.5-1.16 1.1h-1.7l-.44 3.15.37.95-1.58.73-1.3-2.06-.7 4.06-.97-.18-1.72.65-.18-1.99.34-1.51-1.02-.9-1.52.93 1.11 2.49-2.66 2.08-.9-1.26.97-4.74.17-2.18 1.18-1.07-1.41-.67 1.08-1.7 1.7-.73.53-1-2.57-.15 1.65-2.52 2.62-2.15 1.49.77.42 1.78 1.33.91.56 2.04 1.4-.4-.17-.88-1.16-.6-.48-1.05.9-.7 1.55-2.14 1.08-.66zm59.94-.84 1.68.61-.16.8-3.35.7.17-1.26zm-25.56-8.37-.03.68-1.56 2.67-.18.97-2.37 3.37-1.66.56-.52 1.68-2.27 1.97-2.6 2.78-1.94.72 1.14-4.08-.42-2.13-.72.2-.52 1.67.32 1.74-.68 1.45-.68 3.5-.9-.64-1.75.35-1.18 1.33-1.8 1.28-2.96 1.1-.46.71-1.53.09-1.7.79v-2.52l-.36-1.96 1.91-1.65-.31-.67 1.17-1.53.07-2.98.81-1.78.9.18.99 1.45 2.35.1-.53-2.27-1.1-.32.19-1.83 2.47-1.75.5 1.68 1.25-.4-.84-1.7-.81-.5 1.94-1.29 1.54-.32 5.07.6 1.42-.03-.07-1.47 2.38.16 2.78-1.18 2.05-.12zm32.48-6.44 2.13 2.04-.46 1.2 1.57 1.57.5 1.7-2.31.2 1.07 1.57-.76 1.11-1.29.65-2.68.23-.75-.36-3.08 2.73-.61.02-.78-1.65.72-1.73-.06-3 .76-.5-.3-1.25 1.9-2.06.38-1.66 1.6-.07 1.25-.87zm-46.14-2.15.2.6 4.39.44 1.33 1.01 2.13.34v1.87l-2.9 2.56-1.61-.31-1.57.33-1.33-.86-1.5-2.35-1.48-1.32.08-.6 1.6-1.6zm3.47-18.55.59.09.08 2.31-.9.14-.68-1.17zm1.99-7.58.94 1.1.87-.55.88 1.52.22 1.49-.47.78-2.66.54-1.3-1.17.75-1.93v-1.52zm30.13 13.41-1.82 1.87-1.26.26-.26 1.4-2.1-.12-.66 1.75.66.9-1.18 2.46-1.54-.39-1.37 1.91.7 1.95-.18.77-1.61 1.77.66 2.61 1 1.26.24 1.93-1.64 2 1.23.25.86-.65.33-1.32 2.74-2.66.65-1.34 1.7.02-.07-1.87 1.05-1.83.1-1.34.78-.97 1.13 1.31.58 1.43 1.08-.52.62-1.4 4.94-2.06 1.11 1.96 1.51 1.1 1.86.45.78 1.7-1.43-.8-2.5.27-.77.71-1.26-.56-.84.62-1.36 1.94-1.16-1.03-.86 5.2-1.33 1.13-.65 1.17-.33 2.87-3.34 1.94-.26-.36.68-3.22-.45-1.52-1.13 2.23-1.39.85-.77 1.94-.88.03-.22 2.01-1.9 2.6-.22 1.15-1.33-.2-.98-1.62-1.03-.16-2.77-1.28-1.43.65-.96-1.45 1.32-.68-.18-.76 3.6-4.06-1.05-.39-1.62 1.69-2.2 1.4-1.82 2.33-.8 2.36-2.36.88-1.01 1.9-1.94.03-1.59-.88 1.86-2.12 1.84-4.78 2.44-3.44.12-1.05 1.57-1.22-.77-2.31.65-1.52-2.21-.2.95-1.89-.24-1.04 1.12-.48 2.43.14-.68-1 1.74-.53.92-1.64 1.38-.98 1.62.34-.34-1.29-1.2-1.59.42-.66-1.12-2.6.47-1.46h1.83l-.6-1.43-.94-.48.14-3.69 2.38-1.72 2.68.96-.26-1.43-1.63-.7-1.05-1.56.54-1.86 1.14.05.01-2.7.76-2.35 2.29-.92 1.62.78 1.76-1.06 1.26.19.42 3.84 1.18 1.9-1.34 3.53-.48 3.76-1.02 1.4.95.42 1.26-.58.67-1.7 1.37 1.12zm-23.08-19.7.85 1.37-.94 3.23 1.35 1.39 1.31-1.17 1.28.7-.93 1.27-1.17-.98-.37 1.26 1 .73 1.97-.08-1.07 4.3.8.72.82-1.2 1.42 2.04-.78 2.1.25.87-2.14.7.64.73-.28 1.22-.91.77 2.98.87.77.81.36 3.13-1.5 1.84-2.77 2.3-1.8.65-3.36 2.37-1.05 1.27-1.14-.55-3.53-.08-.5-.92.46-1.48-1.33-.3-.19-1.4 1.78-1.22.89.34 1.32-1.24 2.16-.22 1.92-3.06 1.4-.47-.7-.96.2-1.83-1.64.15-.22 1.44-1.05 1.81-1.5-.18-1.24.5.23 1.15-2.27.86-1.1 1.21-2.48.36.4-1.45-1.46-.63-.13 1.78-1.19.68.32.92-.95 1.78-1.06.07-2.33 1.2-1.15-.88-.39-2.2.98-2.22-2 .6.48-2.76.86-1.62 1.12-.67 1.18.17.07-1.37-1.22-.09-.87-1.52 2.7-2.89.89.13.26 1.44 1.13-.14v-3.12l1.78.1-.24 4.24.54 1.64 1.51-2.25 2.68-.95 1.48 1.11.12-1.48 1.17-1.07-1.64-2.07-.06-.84 1.77-1.15 1.32 1.72 1.63-1 .22-1.74-1.16-1.77.56-.8-.6-1.5-.72-.32-.1-1.94.5-1.84 2-2.24zm25.34-22.97 1.68 3.09-.23 1.7-1.23 1.18-.25 2.92-.62 1.32.52 1.21-1.05 2.36-1.45.92-2.36 3.58-.6 2.12-1.05 1.35.53.64-1.4 1-1.36.18-.5.89-3.1 1.7-.7-1.65-1.06 5.81-.75 1.72-1.38 1.97-1.38-.76-.52-.95.55-1.69.03-3.3-.34-1.1.95-1.82.21-1.57.95-.4v-1.37l1.44-2.46.03-2 1.28-1.46 2.88-1 2.38-1.9.15-2.27 1.1-.92-.12-2.79.98-1.62 1.92-1.02.56-.88 3.13-1.96zm-50.8 315-.92.28-1.38-1.24h-1.92l-.85-.62-3.18 1.25-1.62-.6-2 .17-.56.6-3.07-.02-1.7.54-2.23-.19-2.56.5-3.1-.93-3.77 1.23-3.38-.32-4.75-1.16-2.13.38-1.1 2.67-1.81.35-.99 2.63-1.17-.48-.66 1.6 1.14 1.32-1.37 1.88-4.19-.24.47 1.67-.76.92-1.65-.94-2.78.88-1.25-1.77-.13-1.85-.61-.26-1.83.89-1.65-.86-1.97-.32-3.66 2.2-.88-.9-1.34-.15-.7-.7.99-1 .06-1.77-1.03-1.81.67-.8 4.01-.93.3-.98 2.5-.81 1.36-1.28 2.14-.56.85-.9 1.13.14.7-.92 1.89-1.26.22-.76 1.52-1.55 1.46-.8 2.72-3.86.68-1.25 3.25-2.8-.97-1-3.1 3.4-.99 1.85-1.12 1-1.66 2.22-2.84 1.79-4.43 3.65-2.42-.52-1.93-1.37.6-1.67 1.42-.8 1.24.64.8-.86-1.62-2.78-2.11.66-.66-.72 1.53-1.2 2.5-.68-1.4-.86-3.06.72-1.52 2.2-.66-.78 2.48-2.39.91-2.4 1.72-1.3.85-1.82-.4-.97-2.65 2.5-2.86.4-.26 1.26 1 .7-2.15 3.34-3.43 2.07-1.87-.12 1.98-1.6.11-1.89 1.04-1.4.42-1.4-1-1.42 1.31-3.75 1.45.34-.75-2.05 1.1-1.53 1.62-1.37 2.94-1.73-.02-2.04-2.36 1.3-2.03-.18 1.35-2.23.73-3.28-.38-1.24 1.55-2.03 1.01 1.18-.14 2.55 1.86 1.7 1.82 2.82.05 2.13.98-.58 1.95.81.64 1 2.54.44-.14-1.08-1.29-1.34-1.04-2.8.87-1.58-.6-1.88-1.54 2.43-.95.45-2.82-2.33-.96-5.42.23-2.33 2.47-4.53 2.48-2.63 2.05 1.96.64-.51-2-2.34 1.33-1 .84-1.75.03-.99 2.06-.76.52 2.53 1.18-1.68-1.77-1.75-2.17-.03.18-1.1 1.06-1.4.4-3.12 1.68-2.35 4.7-3.03 1.78 1.48.93 2.11 2.35.25 1.03.72.56 2.03 1.71-.37.37 1.82.82 1.88.8-.7-1.1-2.8.45-1.27-1-.67.08-1.46-2.06.23-3.23-1.76-.7-.97-1.23-.1.06-1.04 1.48-1.18-.2-1.52.9-3.33-1.88.97-2.5-.22-2.38.55-.1-.83-1.99-.76.85-1.16 1.87-1.56 1.87-.82.25-.9 4.77-1.19 2.48-.8 5.42-2.14-.22-.63 2.03-1.84 1.75-.37 1.15.6 1.1-.55 2.05-.16.76-.87 1.81.64-.22 2.5.88.12-.25 1.52-1.88 3.18.76.94 1.03-1.79 1.59-1.15 1.24.37 2.07-.98.54.89 1.45.85.55-1.02-1.58-1.64-.91-.24-2.56.6-1.2-.25-.46-.93 1.01-1.02.18-1.42 1-.94 2.5-.31 1.5.92 1.43.28 1.72-.4 1.47-1.05.3-1.71h.98l.88-1.2 1.3-.24 1.27-1.15-.3-1.7-3.11 1.82-2.18.07-2.2 2.07-2.84.3-1.32 1.1-1.36.1-2.18 1.01-1.38-.99.58-1.35 1.27-1.1-1.92-.3-.34 1.46-2.99 1.8-2.4.56-.49-.81-1.43-.17-1.99 2.02-1.98 1.53-2.58.84-2.11 1.03-.79-1.23 3.03-3.4 2.23-1.68v-.98l1.77-.81 4.43-1.32 2.35.3 1.7-.49-.28-.96H440l-1.19-1.21-3.37 1.48-1.82.57-3.21.18 1.1-1.83-1.63.36-2.45-.24-1.09-1.82.54-.88 2.54-1.32 2.15-2.02-.92-2.73-1.08-1.03.51-1.34-.46-1.47-1.41-.12-.35-1.1-1.12-.53 2.51-2.07 1.2-.28.41 1 2.52 1.49-.02 1.41 1.1 1.4-.79 1.44 1.98.8 1.8-1-.4-.65-1.42.62-.46-1.68.97-1.18-1.3-1.89 2.25-.24.7-.92 1.94.25.7-.5 3.17.36 3.5 1.93-.46-1.28-3.6-1.84-2.4-.34-1.6.28-1.78-.19-1.7.92-2.33-.75-.46-.64.91-1.17.08-1.08 1.13-2.07 1.53.2.41-1.65-2.8.62-.99-1.38.28-1.36 2.12.37 1.26-.22 3.03 1.12 1.18-.4 2.62.46-.23-.9-2.42-1.14-4.52-.91-2.39-2.43 1.51-.6 1.64.29 2.25-.13 2.58 1.24 2.94 1.85 3.65-.3-.08-1.4 2.35-.28-.3-.84-3.11.75-.6.8-2.36.1-.58-1.39.35-2.02-.7-1.45-1.08-1.08.07-1.15 3.19-.15.72-.42 2.1-.01 3.38 1.44 4.01-.2.77-.7-4.48-.17-2.1-1.5-1.78-1.85.7-1-1.8-1.27-.77-1.93-2.77.32.31-2.31-1.3-.02-.12-1.32 1.82.27 1.6-.2 3.75.43 1.83-.87-1.45-.73-.09-.97 3.59-.14.2-1.29 2.52-.73 1.06.37-.52 2.02 2.22-.57-.87-2.51-.05-2.09 1.17-1.79 1.15 1.18.7 3.28.61 1.33 2.01.37 1.56-3.26v-3.2l1.53.74 1.02-.67 2.46.12 1.75 1.61 2.11.25.4-1.36-2.54-.38-.35.55-2.74-2.01-1.55 1.23-1.45-.97 1.06-3.7.1-2 1.99-.71.62-.94 1.94-.6-.31 1.2 2.23.24-.48-2.45 2.78-.78 2.5.75 1.1-1.26 2.17-.87.45.96 1.93-.15 2.06-1.39.46 1.05-1.59.97.32 1.2-1.46 1.74-.4 1.54 1.5.5.81 2.6.95-.08-.7-2.57-1.68-.75.75-2.08 1.97-1.48.85-1.73 1.5.03.93.62.41 1.35 2.43-.83 2.24 2.16 3.1.66.07 1.54-.47 4.39 1.25-.11.48-.93-.13-1.44.99-3.48-1.79-2.25-1.97-.76 1.78-1.27.44-1.41-2.24.37-.53-.93-1.55.28-1.29-.43-.4.9-1.34.25-2.46-1.9 1.6-.98.75-2.82-2.74.77-1.1-.14-1.92 1.99-1.09.33-2.17-.52.24 1-.9 1.2-1.2.3-2.21 1.79-.17-4.75-2.18.92-1.3 1-5.33.63-1.45-.55 2.17-2.4 1.25-1.02.26-.99 2.48-1.84-.02-.83 1.84-1.06.05-3.85 1.4-.68.78.58 1.93.1.79-.78 1.83 1.1 2.35.3-.18-1.4-3.69-1.02-1.12.59-1.74.02-1.85-1.82 2.9-3.1 3.49-2.41 1.62-1.84 3.65-1.39 2.73 2.2-.09 1.25-1.22.48-1.35-.96-1.5-1.8-.4 1.3.99 1.33 1.5 1.04.25 1.46 1.84-1.69 1.13.03.8 2-2.12 1.17 1.58 1.94 1.11-2.47 3.2-.6 2.92.9.72.97-.12 2.57 1.27 1.04.78 2.28.13 2.02 1.8-1.13-1.67-3.4-1.08-.9.26-2.54 1.6-2.77 2.6-2.73v-.87l-3.64 3.04-.74 1.05-1.96-1.9-1.45.42-3.5-.46-1.92-1.58.08-1.35.77-1.2-.59-.85.48-.96 1.9-.34 1.7 1.26.13-1.1-2.83-1.6-.72.9-1.25.2-1.2-.54.91-2.08 1.67-3 .28-1.27 1.51-1.55 2.08 1.3.35 1.06 2.52.82 1.86-1.06-.26-.93-1.97.4-1.95-2.22 3.53-1.73 2.36.5 2.47 2.2 1.6.06.44 2.08 1.91 1.32.13-1.41-1.6-.67.05-1.47-.62-.94-1.1-.18-1.83-1.59-4.4-1.58-2.55-1.75.8-1.56-.27-1.35-1.21.85-.56 2.9-2 .95-.64 1.07-2.45 1.65.18 1.34-1.02 1.44-6.28 3.98-1.99.54-3.25-.15-.59-1.54 3.85-1.78-1.03-1.05-2.18-.61.7-.94 2.87.2 2.4-1.13 1.17.38 2.5-.53-.93-.8-1.44.4-.74-.94.46-1.43-4.39 1.1-.55-1.54-1.62.12-.32-.96 1.4-3.01 1.87 1.28-.63-1.98.96-1.14-.12-.9 3.17-1.63 2.21-.08 1.45 1.12 1.96-.31 2.02.81.71-1.74.97.51 1.32-1.01 4.02-2.01 1.63 1.04.16-1.61 2.47-1.2 1.85-.43 1.92.82.98 3.3.91-.99-.14-.96 2.55-2.86-.48-2.07.9-.43-1.18-1.4-2.3-.49-3.38.16-.84-.87-3.2.16-.54-2.73-1.66-.66.36 1.72-1.56 1.5-1.4.73.56 1.63-.9 1.4-1.44-1.2-1.2-.09-1.01-2.24.07-1.35h1.08l.61-3.04 1.55-.88.63-1.95 1.55-.74.75.96 1.62.65 1.87-.84-.1-3.58 2.68 1.95.16 3.23-.44 1.01-2.23-.15.7 1.69 2.06-.72 1.91-1.21 1.84-.38.89-1.27-.52-.68 1.84-.82-2.03-.68-.57-2.95 1.14-.37.8.7 1.05-.68-.47-2.2.04-1.9 1.47-.48 1.64.82.17 1.61 1.12 1.09-1.83 2.86 1.69.01 1.17-.67.14 2.01-.96 2.85.27 2.84-1.06 2.48 1.5 1.85.77.01 2.12 4.83-.81 4.06.63 1.38 1.18-.4 1.73 2.02.96.15 2.07 2.46 2 1.32.5-.6-2-1.07.43-1.41-2.23-1.7-2.41-.83-1.27-1.56.13-1.68.72-2.48-.79-2.38-1.15-.66.27-2.18 1.57.77 1.2 2.85 1.79 2.87 1.57 1.14.27-1.52-1.62.13-1.63-2.92-.7-2.6 1.98-.2 2.29 2.82 1.17-2.4-2.47-1.12-1.91-.4.05-1.32 1.14-1.9 1.02-.34.58-2.03.62-.38.84 1.78.7-1.68-1.38-.96-1.25.3-1.41 2.44-1.42.31-1.31-1.34.27-2.06 1.07-.5.01-1.38 1.91-.87 1.25-.13 1.26-1.07 1.03.89.9-.48-2.73-1.4-.08-1.36-3.32-.17-2.93 1.3-1.52-.14-.38-1.58 2.4-.21 2.4-1.42-.16-1.1-1.47.68-2.1-1.42-2.22-.44.32-1.63.7-1.13.9-.23 1.43 1.07 1.26-.65 3.85 1.5-.4.87 2 .22.98.86 1 1.93 1.13 1.22-.3 1.84 1.65.84 1.94 2.35 2.02-.34-4.7-3.81.27-1.18-1.23-1.2.9-1.24-.55-1.21-2.11-.93-2.58-.64-2.65-1.28-1.54-2.3-.91-.4.12-1.18 2.75-.96.95.13 2.27-2.07 4.01-.95.6 1.14.96-.94 1.85-.18 1.4 1.5 1.96.53.58 1.76-.9 2.1 3.64-1.55.83-1.38 3.02-1.3 1.36.22 1.21 1.36.38 1.48-.44.73.34 2.16.98 1.22 1.7.99.1 2.62.7.33 1.34-1.42-.33-1.03-3.23-3.8-.28-1.8-.94-1.52v-1.74l1.24-.6v-1.34l1.25-.45 2.49.12-.99-1.73 3.66-.87 3.82 1.28.92-.29 2.48 2 .37-.53-2.64-2.09-.72-1.09-1.56-.9-3.64.65-.52-.97 1.62-1.6.74-2.68-.85-.9-1.38 1.56-1.87.55-3.43 3.88-1.19.85-5.44 1.18-.96-.42 1.2-1.5 1.2-.78-1.63-1.84-3.02-.21v.85l-1.66 2.58-2.4.3-3.3 1.06-.83-.3-1.7.8-1.58-.75.37-1.78-.82-1.16-1.34-.51.3-2.54 2.3-1.39.77 1.15-.6 1.3.63 1.65 1.41.19 2.32-.95 1.37-1.91.6-.21 2.08-2.64 9.03.84 3.88-.51 5.64-2.81 5.4-.27 7.55-1.18 3.08 5.24-.19 9.8.62 4.87 1.56 10.55-6.19 17.5-6.82-4.86-10.96-5.59-2.64 5.22-6.85 5.7-5.25 4.89-1.48 6.77-3.14 13.35-1.65 3.99-2.4 4.58-7.12 1.26-1.84 6.32 7.18 12.83 2.25 4.22-.21 11.95-5.57 4.82-4.46 5.34-1.28 2.95-10.75 21.02-5.03 5.31-2.19 2.99 1.64 6.88 1.7 8.2-5.39 3.76-8.14 5.95-5.22.56-10.53.95 1.63 13.09.32 4.23 1.22 6.71-2.64 8.3-1.43 13.42.02 11.03.1 4.8-4.04 4.61zm-74.67.93 1.72-.95 1.66-.07-.34-1.16 2-1.03.27-2.6-.22-1.42.53-.94 2.71-1.68 1.67 1.82.17 1.16.89 1.02-1.47 2.77 2.24 1.07-.6 1.6-1.86 1.36-2.57 1.07-1.55.17-1.34-1.26-3.27-.43zm2.63 1.22.9-.14 1.14 1.02 2.25 1.13.33 1.35-.37 1.51-1.6-1.7-.7 1.29-.93.28-1.08-1.19-.3-2.18z"/>
    <path region="17" short-name="Akershus" long-name="Akershus" value="19" d="m318.75 868.12.6.9-1.3.78-.12-1.35zm52.2 9.77-.8.67-2.4-.44-1.9.11-1.46 1.6-1.25.31-1.59 1.07.88 1.56-1.54 1.66-.79 1.79-3.1 2.01-1.51.27.42 1.57-2.08 1.73-.58-.6.11-1.71 1-.75-1.7-2.94-1.25-.15-1.87-1.99.3-2.1-1.6-2.34-2.77-1.03-1.17 4.7-.04 1.7-3.01-.39-.7-1.26-3.72.51-2.3-1.09-.8 2.35 1.01 1.03-.75 1.37-2.24 1.42-2.12 2.44-.38 1.21-1.6.3-1.35.86.5 1.22-.66 1.87.2 1.12-2.14 1.64-.58-1.43-.88.08-.12-1.9-.57-1.2-.4-2.3.48-4.3-.8-3.46-.13-1.76-.99-2.4-.03-3.36 1.21-3.22 1.71-3.07.31-1.44 1.26 1.53.55 5.54 1.28-2.7.95-1.12 1.85.87 2.34.65 2.03-1.78-.75-2.53.48-3.1 1.32-2.28-.58-3.08-1.23.15-1.98-2.1-.57-2.33.2-1.98-1.17-.32-1.62-4.47-.83.4-1.25-1.12.86-1.33 2.52.25.49-1.84-.06-2.93 1.74-3.54 2.48-4.14.38.18 2.02-1.97-1.03-2.41.12-1.36-2.94-2.52-1.93-.03-1.7-.72-.75-4.38 1.4-1.79.91 1.57 2.85 1.57 3.63.56.7-1.07 4.44-1.96.93.2.82-3.9 1.02-1.99.8-.58 2.06 3.21.07 1.62-.51 2.77 1.17.55 1.9 2.34 1.62.83 1.45 4.3.43 1.97.57.7.4 2.12 1.52.65 1.53 2.8 2.95 2.29-.9 2.2-.02 2.46-.8 1.34.83 1.85 2.3 3.1 2.9 2.1 1.58.54.18 2.82 1.33.07-.2 2.13.7.6-.23 1.34-.93.63-.77 2.47.95 1.92-.73.77.14 1.34.9 2.94.07 1.69 1.3.96zm-47.78-11.74-.84 2.35-1.16-.75-2.02-.4-1.32 1.06.15 1.24-1.44 2.79.58 2.55-1.14.67h-1.35l-3.3-1.5.57-.73-.04-2.64-.6-.79-.05-1.85.8-.13 1.23-2.53-.1-1.4-.78-1.66.46-1.22 2.5-1.3-.09-1.54.8-1.58 1.6-.06.35 1.14.99 1.41 1.4.3 1.2 1.44.74.19.76 1.79-.45 2.3z"/>
    <path region="18" short-name="Møre og Romsdal" long-name="Møre og Romsdal" value="8" d="m151.84 673.67.99.81-.48 1.54-2.02-1.57zm2.33-3.15 1.62.73-.02 1.98-2.68-.86-.38-1.33zm7.87-1.34 2.06.9.92.94 2.8.03.18.83-1.88 1.81.68 1.8-1.91 1.57-1.44-.14-3.2.46-1.53-.2-.63-1.7-1.08-1.2.3-1.67 1.01-2.72.87-.56 2.03.36zm6.67-.99.39.82-2.02 1.42-.27-2.56zm-5.62-2.2-.8 1.33-1.54-.15.24-.95zm1.86-1.24 1.03.37-1.34 3.03-1-1-.49-1.79zm-5.55-1.45-.1.8 1.3.94.13 1.1-2.57.42-.4-1.23.36-1.7zm14.25-1.75 1.43.53 1.05 3.34 1.17 1.49.6 1.46-4.07 2.65-.83.26-2.34 2.85-1.77.08-.13-1.2.6-1-.53-1.84.72-2.08-1.06-1.11.01-2.33 1.42-2.18 1.21-.66zm9.44-.7.68.99 1.18-.08.45.9 2.32.33.17.9-1.92.8-4.75.2-2.13-.76-1.17-1.2-.2-1.89 4.04.58zm-22.03-.33 2.39 1.53-1.75.26zm14.31-3.28 2.05.36-.21 1.1-2.44.2-.85-1.15zm10.35-.9 1.23.1 2.02 1.83-3.23.07-1.82-1.24zm-5.34-1.8.66.91-.09 1.36-1.41-.07.3-1.97zm.7-4.49.3 2.39-1.5.24-.99.74-1.27.11-.6-1.15 1.68-1 1.55.11-.4-1.42zm40.3-1.51 1.51 1 1.84.33.31.82-2.12.44-2.72-.52-.62-1.07zm-38.62-1.77 1.4.46.65.94-.06 1.4-1.53-.47-1.32-2.03zm17.45-2.28-.44 1.8.8.97-2.83.6 1.31-3.16zm-16.29-1.1.87.45 2.21 3.48-.76.51-1.1-1.6-1.8-1.64zm2.2-.45 1.93.74 1.75 1.78-.94 1.1-1.85-1.42zm5.87-.65.97 1.13-1.12.76-1.5-1.61zm11.2-.64-.03 1.14 1.65-.4 1.6.2 3.3-.52.6.59.08 2.25-4.04 1.4-1.23-.18-3.81 1.22-.74-1.97 1.53-1.13-.47-1.97zm-8.26-4.58.48 2.65-.98 1.68-1.29-.73.94-1.5-1.06-.58zm12.76-3.27 1.08 1.28 3.16-1 .5.81-.28 1.64-2.12 1.12.45.9-.25 1.46-2.36-1.55-1.38-1.35.89-1.46-1.19-1.2zm35.93-6.49.91 1.18-2.14.89-.95-.83 1.56-1.3zm3.68-3.14 1.25 2.4-1.16.9-1.98.53.02-2.8zm-2.54-5 1.68.58-1.04 3.25-2.85 2.12-3.44-1.28.89-3.52 2.96-.9zm-7.2-1.71 1.14.68-.47.85.45 2.3-.4.5-.12 2.6 1.67 1.64-1.44 1.4-1.75.58-4.07 2.24-1.34.12-.22-1.76-1.92-1.13-1.84-.66.03-1.01 1.66-.84 1.1-1.04-.03-2.13 1.28-.55 1.7-.06.88 1.37.96 2.51.64-.68-.76-1.93 2.6-1.61-.87-3.17zm7.24-.77.91 1.55-1.02.74h-1.88l-.93-.9zm-3.38-.13.4 1.32-.97.57-1.35-.73.31-.96zm17.24-5.16.43 1.63 1.01.83 1.2 2.26-4.15.5-.5-3.35-.46-1.12zm-3.78-.98 1.5 3.86-.2 1.6-3.32 1.27-4.24-.52-.31-1.38-.89-.9.76-.9 3.43-1.05 1.54-1.6zm2.22-.76.64 1.58-1 .18-.8-.98zm9.17-1.68.62.53.36 3 1.45.89.51 2 .7.48-.4 1.56-3.11 1.08-4.07-.68-1.93-3.71-.85-.82-.04-1.3 1.38-2.67.99 1.36zm-.33-3.78 1.8.96-.42 1.05-2.95.23-.36-1.37zm-7.31.18-.08 1.14-2.13 1.01.14-1.07zm-5.82-.8.6.9-1.78.46-.16-1.2zm-5.03-2.74 1.05 1.14-2.21.46.43-1.59zm24-.4.4.86 1.57-.02.3 1.64 1.02 2.18-4.27 1.03.05-1.62-1.12-.2-.07 1.26-2.21-.64-.76-1.09 1.66-.61 1.01-2.29zm-18.49-7.6 2.24.74.72-.53 1.28 1.85.54 2.44-.22.93 1.2.92-.27 1.85-1.37 1.63-1.48.21-.46.67-1.42-.36-.77.45-2.5-.39-.38-1.05-1.7-1.54-2.83-.45-.75-1.91 2.02-2.87 1.3-.98 2.36-.31zm-99.94 96.87 1.63-2.16.05-2.17 1.38.7.49-1.27-.64-1.2-3.67-.7-.62-2.4 1.41-3.21 1.82-1.34 2.37 2.87 1 .38 2.78-.44 1.29.55 2.32-.48.97-.96 3.42.14 1.52 3.3-.67 1.25.12 1.34-1.5 3.35-.7.55-2.46 3.64 2.82-2.24 1.05-1.96 1.47-1.7.16-2.61 1.56.08.94 2.41 1.12.78.09 2.23 3.43-.42 2.7 1.63 1.7-.65-2.11-.98-1.16-.02-1.3-1.13-.86.31-2.3-3.3.02-.66-2.15-2.57-.97-2.77-.64-.75 1.63-.78.12 1.65 1.48.5 1.47 1.23 1.35-.66-1.95-1.12-1.55-.41-.12-1.5-.67-1.11.14-1.58 3.87-1.99.79-.86 3.91-1.65 1.04-.95 1.67-.17 1.67-.74.7.3.06 1.74 1.24 2.38.5 2.47-.23 1.7 1.54 1.67.38 2.25-.47.99 1.83 2.48 1.04 2.23.72-.8-1.72-3.81-.05-2.11-.76-2.48-.8-.91-.47-2.57v-1.83l-1.05-2.03.92-.98-.44-1.01 1.64-.9 2.03.28 1.36.79.05-1.42 2.38-1.26 2.45-.48 1.07-.53 1.38.41-.16.99 1.36.47 2.3.08 1.87 1.87-1.12 1.64-.23 1.86.85 1.63-.17 1.04 1.16 1.97.15 1.05 1.4.76-.44.84.1 2.1-.46 2.1.13 2.82-1.35.84-1.85 1.96-.34 2.25 2.7 1.93.13-.91-1.79-1.6 1.18-2.05 1.58-1.1.76-1.9.31-2.5.16-3.83.4-.45 3.14.32.99 1.37 2.39.7 1.17-1.92 1.9.07 1.44 1.5 1.43 2.02.66-.47-1.99-2.27-.33-.87-3.64-.94-1.08.67-1.43-.1-1.7-1.16-1.19.07-1.12-1.19-1.65-.14-1.38-1.82-.42-3.41.89-.76-.4-1.22.12-1.9-1.72-1.83-.32-.96-1.97-.37.05-1.58-1.7.27-1.98-.23-3.59.88-2.63 1.4-1.91.2-2.95-.26-.98-.55-.4-2.09-1.37-.34-2.08.13.25-.87 3.34.1 2.82-1.11 2.95-.52 1.36.82 2.53.08.74 1.39 2.06-1.02-2.77-.67.21-1.09-2.4-2.16-3.43.37-2.77-.59-3.38-.03.63-.84-.63-3.07 3.15-1.98 1.56.78 1.95-.4 2.96.23 1.55-.44-.27 2.1 2.03.78-.17-1.35.47-1.55 2.03-.28 2.14-.93 1.88.15 2.55 3.8.58 1.45 1.32-1.8-.8-2.44 2.1-.39 2.77.27 1.28.49-.3 1.41.44 3.85.64 1.92.8-.75-.42-2.72.86-1.84 1.55.62 1.03 1.15 1.02-.77.87 1.15 2.5.33.33 2.7 1.16.9.95 2.42 1.23-.86 1.37 1.1.36 2.6.86-.29-.04-2.12 2.4-.82 1.19-.02.53-1.23 2.03-.02.37-1.08-2.7.33-3.82 1.16-2.54-1.18-1.8-2.59-.24-2.65 3.09-.16.46 2.49-.18 1.08 1.08.95.22-2.87-.94-1.24-.13-2.02 1.64-.83 1.93-.14.94-.9 2.11-.05.95-.7 4.4-1.4 2.72.36 1.84-.8 1.48.56 2.49 2.58 1 1.55.7-1.7-1.56-1.94-.86-.08-1.12-1.63-2.44-1.26-2.34.25-2.28.87-4.82 1.21-6.44 2.14-1.7.03-1.3-.6-2.05-.3.37-.86 2.02-.19.2-1.47-.82-1.12 5.08-1.69 3.03-.22 2.64.1-.82-1.04-3.23.22-3.8.53-3.8.78-1.6.01-1.9.6-2.83.29-3.51-.34-3.35.36.66-3.18-.66-.97.41-.94 1.94-1.97 2.44-.43.13 1.37 2.57-.26.63-.6-.61-1.56-1.24-.27-2.47.7-1.98-.25.26-1.6-1.13-1.22.4-1.62-1.5-.46-.32-1.09 2.23-1.11.16-.65 3-1.93h.87l.66-1.16 1.42.75.82-1h1.94l2.78-.52.59 1.5-.2 1.5 2.67 1.41 1.18 1.66-.2 2.5 3.1-.28 2.38-1.82 3.05-1.81 2.08.05 1.51 1-3.12 2.46 1.52.36 3.03-1.93 1.86-.52 2.23-.1.78-.58 2.12.95.93 2.06.94.74.14 1.09-.9 1.88 1.16 5.31 3.86 3.45 1.75-.17.6 1.58 1.65.91 1.52 1.84 1.18.3 1.11.97-.17 1.85.44 1.7.81-.3.66-1.33-.4-2.67-2.41-1.74-2.24-2.35-1.85-1.05-.42-1.11-2.58-.76-1.54-1.42-.54-1.72-.53-3.2.67-.65-.69-3.62-2.56-2.25-1.2-3.6-1.31-1.71.74-1.58.15-2 3.48-1.26 1.11.5v1.15l.79 1.59-1.07 1.6 2.29 3.07 1.6.71 1.08 1.55 1.73 1.66-1.46 1.82-.25 1.22.86.8.43 1.66 2.48 1.78 1.2 1.95 2.23.28.01-1.45 2.2-.05 1.42 2.84.23-2.36-1.13-1.73-1.8.32-.97-1.32-1.53-1.2-.01-1.12-1.04-1.9 2.24-.73 1.44.46 3.06-.65 1.38.05-.25-1.61-2.47.08-2.1 1.1-2.06-1.61-1.19.77-1.8.29-1.63-3.08-2.77-1.8.66-2.83-1.65-1.74-.37-2.8 2.57-.85.64 2.23 1.56 1.49.71-1.15-1.68-.9-.91-1.76.53-.47 2.5.12 1.27 1.45 2.08-.47 1.12.78 1.12-.39 1.47.4.41-1.68 5.83-1.44 1.64.24.12.97 1.57 1.79-.7 1.2 1.74 1.6 1.75-.11 2.1-1 .36 1.4 2.68-1.33 2.76.94 1.49-.5v-.89l-1.16-2.01 1.77-.84 1.3-1.26 2.2.9 2.31-1.03.6 2 2.78.71-.78 1.23.15 3.11-.85 1.7.05 2.83-.63.8 1.47.84-.26.9 1.2 1.14-1.27 2.73-1.81 1.44-.37 2 .6 2.2.21 3.79L296 646l-2.08 1.47-7.7 2.14-2.37-.46-.75.93-2.47.11-2.49 2.03 1.75 3.9 1.08-.04 3 4.67.36 1.47.9 1.1 2.3.07.66 1.47-1.15 2.61-1.56 4.5.43.84-.66 1.51-1.63 1.98-1.4 1.1-1.55.57-1.53.87-3.55.1-.87-1.74-3.33-.54-5.49-.22-6.03.2-2.55-.29-4.08.78-2.53.96-1.47 1.84-1.41.92-6.07 7.9-4.22.04-1.12-1.55-3.27.02-3.13 2.94-2.8 1.11 1.5 2.95-2.84.85-1.15-2.24-1.06.47-2.46.02-.97 2.07-2.05 1.35-.01 2.1-1.23-.93-4.13-.39-3.97.34-1.3 1.45-2.4-.09-.77-.65-1.28.39-2.61.12-.5.86-1.58-.69-.1-.84-2.13-4.25-.87-2.38-.7-.72-1.16 1.17-1.82-.65-1.4.15-.42 1.02-1.21.1.02 1.38-1.38.4-1.18-.48-1.05.68-.06 1.48-1.66 1.13h-1.75l-2.44-2.38.9-.92-2.6-.74-.56 1.17-1.42.35.2 1.05-1.97.62-.8-.63-1.09.76-.68-1.51-1.43-1.63-1.3-.37-3.18 1.3-1.48.35-2.67-1.43-6.17.58-2.6-2.82zm125.3-74.32-.49.23-5.8.15-1.18-1.31-1.36-3.3-1.07-.68.02-1.33 1.1-2.52 6.8-1.41-.99-1.24-.26-1.22-.85-.7-.59-2.22.35-.51 3.35-.77 1.45 1.8-.37 2.29 2.4.76.98 1.27-1.58 1.88-.1 2-1.9 2 .26 1.67 1.07 1.07z"/>
  </g>
</svg>