<svg title="New Zealander 2023 M훮ori Electorates" auto-border-stroke-width="5" auto-border-stroke-width-limit=".5" original-source='["https://datafinder.stats.govt.nz/layer/104579-maori-electorates-2020/","https://data.linz.govt.nz/layer/51153-nz-coastlines-and-islands-polygons-topo-150k/"]' candidates='[{"id":"0","name":"Labour","defaultCount":0,"margins":[{"color":"#860209"},{"color":"#D00B13"},{"color":"#FF454C"},{"color":"#ff8487"}]},{"id":"1","name":"National","defaultCount":0,"margins":[{"color":"#132C52"},{"color":"#1E4882"},{"color":"#4C82C4"},{"color":"#89afe2"}]},{"id":"2","name":"ACT","defaultCount":0,"margins":[{"color":"#AF8400"},{"color":"#D4AA02"},{"color":"#F2CB1F"},{"color":"#fdeb3f"}]},{"id":"3","name":"Green","defaultCount":0,"margins":[{"color":"#077733"},{"color":"#0DA846"},{"color":"#12D75B"},{"color":"#28f075"}]},{"id":"4","name":"M훮ori","defaultCount":0,"margins":[{"color":"#97611C"},{"color":"#C37D23"},{"color":"#DC963D"},{"color":"#e4ae68"}]},{"id":"5","name":"NZ First","defaultCount":0,"margins":[{"color":"#303030"},{"color":"#505050"},{"color":"#707070"},{"color":"#8F8F8F"}]}]' version="1.1" xmlns="http://www.w3.org/2000/svg" viewBox="0 0 695.31 1000">
  <g regions transform="translate(-152.34)">
    <path region="6" short-name="Te Tai Tonga" long-name="Te Tai Tonga" value="1" d="m164.91 902.37-1.75 1.62-.27-.36-.4-1.26.24-.77.63-.73.63-.52 1.57.68-.22 1zm-5.67-6.24-.57.13-.24.54.02 1.01-.55-.27-1.04-.97.02-.5.69-.6.74.5.55-.23zm-.16-.99-1-.42.29-.84.98.42zm.51-2.11-.79-.37-.04-.55.5-.37.17-.58.73-.35 1.02-.18.35.15-.14.52-.66.73-.42 1zm1.38-18.71.23-.53.79.03.1.46-.48.3zm9.98-2.02-.73.37-.8.17-.68.35-.42.44-.56-.05-.93.45-.97.18-.22-.24-.77.35-1.54-.09.09-.67 1.07-.06.37-.25.31-.62 1.26.01 1.08-.3.85-.62.72-.25 1.2-.16 1.49.23zm-11.22.16-.78-.04-1.46.98-.84.3-1-.11-.16-.55.13-.56.5-.65 1.43.05.53.24.21-.64.42-.33.86.14.54.26.23.57zm18.56-2.38v.53l-.4.39-1.16.36-.33.29-1.32.29-1.92-.44.19-.43-.2-.74 1.04-.9 1.4-.13 1.38.52.92-.17zm-9.99-9.54.08.5.55.5-.19.8.14.76-.07.76.12 1.15.2.8-.19.55.4 1.3-.38 1.6.03.55-.37.2-.66.87-.85.8-1.25.3-.25-.9-.65-.09-1.78.94-1.24.4-.16-.7-.74-.3.04-.76.72-.82-.21-.31-1.24-.16.55-.82-.32-1.04-.31.43-.62-.01.49-1.31-.49-.18-.2-1.17-.5.9-.86.71-1.58 1.68-.39.7-.32-.03-1.11 1.23-.8.52-.42-.01-.06-.54.3-1.13.38-.13.4-.8.72-.48.1-.52.63-.92.56-.1.16-.65.88-1 .24-.48-.08-.9.62-.56.7-1.13.88.97.3-.91.9-.81.81.1.29-.74.36-.37.95.64.66.04.64-.45 1.32-.02.45-.4.43.01.42.57zm-4.67-2.57.53-.56.69-.11-.06.56zm45.76 138.16-.11.41-1.07.67-.16.6-1-.54-.2-.52.8-.85.1-.34.78-.57 1.3-.38.67.51zm13.94-1.46-.53-.66-.05-.83.79.47.03.63zm-16.63-.63.78-.66.51.6-.51.46zm16.4-.97.5-.54.58-.02.07.82-.35.2zm3.55-.98-.4.2-.02.56-.57.54-.4-.15.11-.53-.57-1.2.36-.7 1.02.2.49.5zm10.18-41.82 1.5.37.56.77.45-.16.5.77.53.37.84.19.17 1.83.27 1.22.4.86.76.29-.26.54.08.5.97 1.24h.73l.31.46-.13.46.3.5.85.39 1.01.17.35.52.82.17-.66.65.19 1.22.39.1.36-.4.74.62.72.34.4-.55.59.42.27.7-.55.35.89.53-.4.67-.61.16.03.87 1.32-.55.1.39-.83.33.02.54-.78-.07-.48-.43-.74.05-.35.38h-.55l-.76-.36-.39.32-.9.07-.45.27.55.57-.82.09-.52-.58h-.7l-.11-.68.57-.63-.73-.26-.35-.64.24-.46-.46-.35-.58.1-.17.8-1.06.35.15.33-.5.52.4 2.34-1.65.74-.48.96-1.47 1.3h1.11l.37-.53 1.26-.4.1-.94.32.1.71-.4.18-.8.74-.1.33-.4 1.12.66.21.6-.3.48.22.58.43-.45.83-.03.82.25.5.51 1.13.2.44.23.38-.2 1.2.11-.16.49-.42.38-1.32.28-.3.45-.94.5.77.57.64-.23.75.3.84.08.16-.38.59-.16.35-.45.15-.77.47.2.78-.05.43-.59-.4-.56.3-1.02-.2-.3.01-1.04.6-.41.31.24.2.76-.64.22-.24 1 .6.44-.07.6-.35.7.77.54.2.45 1.22.81-.74 1.06.51.73.62-.32.22.63-1.44.7.44.65.08.49-.26.52-.47.25.16.55.55.29-.35.41-.46-.2-.87-.84-.38.4-.51.12.32.6.04.54 1.34.74.88.05.14.81-.83.32-.39-.47-.04-.63-.63.31-.75-.4-1.2.07-.18.63.71.73-.27.72.17.7-.43.1-.37-.57-.87-.31v.65l.66.3-.31.41-1.45-.6-.53-.07-1.19-.85-.7.9-.2.6-.7.1-.85.42-.79-.3-.13-.49-.74.1-.37.4-.66.2-.26.59-.43-.23-.46.65-.41-.6-.5-.33-.31.58-.57.18-.22 1.05-1.09.25-.92 1.45-.73.38-1.04-.22.1.77-.31.11-1.02-.15-.93.9-.73.04-.55-.39-.62-.1-.13-.56-.77.44-.5-.28-.42-.72-2.19.81-.57-1.84-.9-.28.04.45-.74.63h-.4l-.2.47-.16 1.17.15.37-1.33.88-.74.12-.4.54-.75-.28-.24.43-.69-.18-.2.5.65.21-.45.67-1.17.12-.25.6-1.2-.61-.12.47.69.58.9-.19 1.2-.47.7.32 1.02-.21.2-1.09.83-.1.51 1.01-.53.47.33.48-.5.67-.13.93-1.9.25-.22-.9.35-.81-.85.25-.27-.13-1.17 1.54-.08.36-.68.6-1.2.53-.27.33-.85-.06-.31-.4-.58.29h-.71l-.18-.53.08-.78-.74.42.06.3-.78.37-.54-.32-.18-.97-.32-.71.78-.53-.17-.94.46-2.17 1.27-.53.1-.65.75.05.4-.35.77-.1-.14-.63.3-.33.69-.15.33-.63.62-.14.7.12.37-.8-.15-.26.24-.87-.73-.07.18-.65.43-.17-.01-1.21.37-.92-.26-.56-.84-1-.05-.75 1.12-.43.55-.98.5-.28.17-1.03.4-.2.24-.52 1.3-.91 1.21-.12 1.53.7 1.27.32.5-.48-.2-.6-.92-.2.2-.57-.08-.56-.53-.53.78-.82-.45-.3-.36-.78-.01-1.1-.75-.12.36-1.08.86.2.9-.17 1.14-.51.77-.67.83-1.17.5-1.28.14-1.44-.12-1.42-.25-.55-.57-.38.34-.59-.52-1.94-.56-.36-.55-1.17-.12-.85-.3-.73-1.28-1.15.34-.5.63-.06.12-.37-.57-1.4-.22-1.13.15-.8.48.01.5-1.46-.22-.38.06-.7.53-.09.66-.43.28-.69.39-.45.5.17 1.21-.73.55.45.8-.11.76.27.45.66.95-.2.52-.3.42-.95.4-.2.51.18.26.5zm14.62 20.2-1.18.15-.73-.23-.2-.92.8.03.09.39 1.13.24zm4.19-1.97.39-.92.76.27-.1.7zm-33.57-13.3.1.82.83.03.24 1.33-.53.32-.57.65-1.1.2-.55-.49-.2-1.19-.77-.7.26-.91.53-.47.26.56.83-.25zm-43.19-15.06.04-.46.46-.05.21.58zm54.5-9.86v-.5l.76.4-.38.59zm-51.25-95.31-.6-.07-1.81-.5-.59-.01-.62-.43.5-.62.81.47.21-.43 1.7 1.36zm.98-10.02-.66.68-.18.88.02.6.31.96.92 1.78.2.83.6.47.17.48.04 1.47.82 1.73-.55.22-.8-.18-.45.32-.23-.38-1.24-.5-.16-.52-1.86-1.1-.2-.52-.68-.71-.28-.56-1.22-.75.33-.3.18-.87 1.18-1.25.08-.9.63-1.09.3-.1.42-.9 1.29-1.1.14-.7.74-.56.26.77.27.21v.72zm92.75 131.6-.38.19-.44-.47.44-.34zm-2.23-1.09-.21.65.2.43-.85.52-.7.96.18.29-.37.63-.37-.36.25-.8-.4-.7-1.36.12-.42-.73.3-.2.57.4.52-.94.48-.14 1.09-1.17.43-.17-.23-.57.55-.06.24 1.06.4.37zM511.15 700.8l.45-.58.48.64zm1.97-241.75.53.39 1.2.11 1.66-.29 1.02-.09 1.06.03 1.45.31 2.83.27 2.15.44 2.3.6 1.54.61 1.19.88.26.57-.42.07-1.02-.78-.6-.34-1.61-.67-1-.32-.99-.16-.72.02-.41-.25-3.5-.36L518 460l-.39-.07-2.01.04-.96.45-.94.8-.25.51.08.35-.94 1.2-1.06 1.71-.37.33-.4.02.25.66.54.06-.78 2.4.26 1.33-.4.06-.38-.4-.93 1.1.08.4.63.31.1 1.18.48.1.74-.14.1 2.47-.72 1.04.6.63.31-.39.45.16.64 1.2.92 1.45.45.55.41.13.65.74.72.58 1.52.76-.17.4 1.1 1.33.57-.38 1.15.89.09.4.46-.08.42.25.27-.54 1.08.1.78-.2.16-.45.47-.29.75-.9-.08-.53.84.43.5.62.07.61.36.09.14-.67.43-.48-.25-.81.22-.77.38-.38.71.2.93-.43.28.92.54.75.38.15.11.9-.5-.03.04.66.54 1.2-.04.44.54.67-.16.26-.93-.26-.35.34-.26.97.6.26.48-.79.44-.34.51.02 1.24-.52.65.85.19.92-.47.44h-.5l.27 1.09.57.56-.23.72-.17 2.07-.26.49.08.52.72-.48.16.94-.69.17-.79.7-.4 1.23-.25-.04-1.1.27-.33-.1-.1.63.34.03-.09.62-1.06.71.68.14.45-.4.5.1-.1.45.28.53-.28.84.3.6-1.03.5-.27.8.33.33.27.67-.1.4.46.22.51-.1-.16.8.48.67-.15.89-.46 1.17-.4-.16-.3.92.75 1.47 1.26 1.45.52.13-.58-1.3 1.35 1.58.33.91.79 1.29-.09 1.16.33.63.87.77.16.34-.53.51-.5.1-.15-.28-.8-.2.1.82.68.26-.46.33 1.04.54.3.76.74.02.03-.3 1.53.51.2.45.87.84-.02.66.22.2 1.06.34.75.6.44-.1.41-.5.17-.8.32-.38.14-.81-.22-.22.8-.66.4-.61.74.06 1.39-1.73.27.5.64-.05.45-.53.8-.52.35-1.65.59-.64-.37-1.1.19-.28 1.01-.55 1.24-.88.5-.72.81-.36.77-.85.72.25.16-.36-.29-.44.04-.84.51-.11.63.19.35.88-.04.83-.73.35-.3-.61-.37.38 1.1.91.74-.65.97-.01.28-.51.78-.24.62-.54.46-.64.5-.97-.02-1.2.4-.67.38-.14.75.22.15-.36.48-.3.28-.62.45-.31.16-.76.27.1.46-.85.27.19.47-.26.4-.87.6.58v.3l.5.2.2.54.56-.24.38.24.17.47-.3.43-.5.23-.4.68.23.29.48-.43.55.18.46-.6.2.39.6.47-.4.67.72.1.53-.64-.78-1.07.14-.76.25-.16.71.04.57-.14.36-.37.67.15.3-.34h.47l-.04-.43.28-.3.67-.22.86-.03-.3-.97.36-.52-.47-.16-.8.66-.87.35-.9.67-.63.08-.07-.45-.67-.51-.27-.6 1.37-1.24.73-.8.4-.06.61.37.3-.22.28-.7.57.37.26-.21.07-.87.35.09.22-1.22.48.34.58.67.38-.5h.69l-.76-1.18.42-.41.55.74.4-.32-.04-.98.5-.4.72-.31.52-.76-.26-.75.91.1.09.3-.46 1-.04.6-.52.68.4.72-.5.78.67.6.93-.07.56-.46-.05-.5.43-.34-.11-.4.58-.14.24-.31.5.02.44-.8.63-.43-.5-.9.78-.7.56.24.47-.44.84-1.2.86-.46 1.64.98.56-.01.3-.29.55.41-.45.4-.14 1.18-.67.61v-.62l-.36-.64-.4-.27.25-.33-.11-.55-1.06.25-.59.77.01.37.64-.12.05 1.08-.54-.28-.8.67.52.92-.1.6-.4.4-.26-.55-1.09-.16-.26.37-.68-.01-.51 1.12-.06.5.55-.01.75-.68.3.32-.51.79-.47.04-.49.44-.44.04-.2.59-.74-.46-.02.48-.7.65-.78.43-1.18-.51-.72.33.04-.67.3-.1.1-.61.43-.38-.3-.6-.72.53-.56.87-.48.2-.34-.29-.46.74-.62.27v.36l.73-.23.37.22.06 1.26-.96.38-.41.47.7.35.25.38-.47.65.22.37-.12.82-1.06.4-.5.58.34.14.39-.55.44.08-.03.46-.65.27.05.43-.4.22.46.5.32-.86.65-.08.39.32.23-.56-.34-.45.12-.46.84.23.4-.14-.1-.45.47-.58-.07-.38.54-.12-.34-.58.22-.5.66-.41.61.04.43.49.52.25.3-.73 1 .63.58-.3.66.02.3-.2.54.2.12.39-.35.53-.55.03.35.7-.8.49-.05-.34-.62-.54-.37.1v.72l-.57-.5-.11.92-.3.6 1.13-.04.38.57-.18.31-.12.9-.38.08-.2-.59-.7-.36-.68.54.41.21-.2 1.03-.55-.1-.61.2-.43.37-.55.97-.8.02-.35.18-.67-.41-.11.94-.41.67.51.4.88-1.01 1-.21.75-.01 1.15-.52.02 1.16.65.15.23.43-.12.38.15.69-.32 1.04-.7 1.44v.74l.17.6-1.22.68-.6.07-.56-.34-.41-.01.16.73-.46.32-.45-.3-.81-.06-.89.7v.8l.55.05.63.43.22-1.25.62.57.45.93 1.1.69.76.01.63-.27.14-.65-1.22.4-.9-.69-.22-.6.68-.6 1.18-.21.56.21 1.26-.49.18-.48.53-.08.86-1.03 1.23-.48-.21-.36-1.1.21-.3-.16-.61.45-.28-.67.92-.2.16-.49.74-.31.81.23.78-.26.7-.5-.06 1.07.71-.38.43.58.68-.67.8.07.6-.13.45-.6.32-.1.78.16.25-.18-.38-.65 1.03.41.3-.37 1.86-.11.77-.2 1.36-1.08-.54-.31-.74.4-.55-.17-.34.53-1.81.06-.67-.34.6-.75-.2-.48-1.08.56-.1.24-1-.08-.41.24.32.56-.73.14.13 1.2-.43-.24-1.03.04.2-.74-.26-.8-.66.29-.52.56-.56.08-.39.3-.04.43-.71.39-1.22-.25-.95.5-.5-.05.29-.53.43-.21.05-.43-.25-.78.5-.13.16-.64-.72-.05-.68-.4-.1-.57.94.11-.28-.47-.67-.34.22-.5 1.32-.09.97-.94-.6-.15.44-.97.64.09.5.3-.1-1.25.1-.46.48-.65.4.45.21-.46.64-.28.3.4.7-.45.1.43-.61.54-.24.9-.67.71.35.97-.27.4.28 1.05 1.18-.97.77.37-.11-1.65.29-.59-.24-.38.72-.16.55-.35.6.64.46.15.22.53.35-.1.27-.44-.8-.75-.22-.52.11-.6-.6-.8-.14-.66.5-.44.28.39.5-.57.58-.2-.2-.43.09-.57.29-.4-.04-.63-.81-.43-.7.06-.36-.29-.61.1-.65 1.15-.37.41-.6-.42-.45.6-.82.37-.44-.61-.63.34-.19-.58.79.1.1-.64-.35-.03-.41-.66.4-.04.57.34.44-.32.44.34.27-.3.7-.16-.68-.7-.46-.3-.12-.74.4-.13 1.23.32.41-.49-.62-.55.19-.7.6-.37.88.17.02.7-.46.61.17.45-.36 1.04.65.7 1.05-.38.47.52.2-.57.56-.43.39-.64.27.77-.36.5.76.27.9 1.64.47.5.2-.46-.37-1.7.12-.75-.34-.44.1-.41.42-.17.45.4.14.42.68.42.44.8.56-.04.2-.64-.22-.84.45.04.23-.7.4-.64-.72-.11-.06-.59.57-.41.32.19.6 1.62-.12 1.23.55.26.52-.25.28-.46.55.17.53-.3.08-.4.42-.2.1.62-.5.67-.67-.13-.46.13.13.81-.22.32.24.45-.03.75-.58.16-.1-.84-.2-.17-.52.98-.42.43.78.63 1.16.57.82.6.58-.16-.07-1.1.28-.3.53-.07.11-.69h.56l.55.24.6-1.12.77.36.4-.15.35-1.34.54-.3-.1-.64.4-.42.04 1.54-.45.28-.36 1.14-.44.28-.74.1-.22.2.13 1.25-.23.7-.43-.05-.18.75-.65-.04.01.84-.87.12.12 1.02.59.06.05.93-.32.71-.37-.41-.46-.12-.2-.52-.34.13-.5 1.04.6.33-.12.8-.46-.67-.45.23-.95.14.1-.38-.42-1.41.4-1.34-.43-.72-.58 1.62-.36.59-.3.04-.42-.46-.2.56v.73l.64.17.42.44.17 1 .96.63.83-.26-.43.7h-.3l-.11 1 .4-.2.55.75-.58-.07-.13.64-.68-.06-.74-.63-.12-.44h-.49l-.27.37.25.46.07.85-.7.7-.75-.3-.27-.84-.48.44-.26.53.63.9-.68.47-.55-.28.28-.37-.48-.93-.45.26-.3.46.07.88-1.28-.02.52-.9-.66-.45-.19.67-.5-.37-.37.68-.36.27-.18-.6-.3-.17-.14 1.22.28.77-.37.24-.41-.25-.17-.47-.55.08-.52-.24-.08.96-.76.04.08-.56-.44-.08-.11-.63-.51.46.46.68-.3.92-.63.3-.9-.2-.98.81-.53-.04-.48 1.07.67.08.1-.33 1.08-.46 1.12-.1.11.41.55-.07.73-.5.68-.18.24-.3.64.2-.44.45.51.5-.33.68.25.43.58-1.34.44-.33.56-.93.17.43-.16.47.56.11.43-.6.8-.24.67.78.19-.7-.47-.32.28-.38.76-.43.5-.1 1.03-.49.66.4.5-.54.3.53-.24.2-.18.68.16.32.71-.48.15.53.4.2.37-.6.46-.1.01.73 1.05.66.3.6.5-.9-.62.11-.63-.42.03-.75.48-.5.56.05.25.87 1.3-.53.63.03.87-.31.63-.8 1.63-1.13-.19.78-.33.09-.1 1.09-.75.75.44.93-.54.1-.4.3-.36-.43-.38.15.14.57-.18.32-.6.24-1.08.63 1.04 1.26-.27.78-.5-.33-.37.1-.45.67-.26-.96-.23-.16-.83.5.34 1.16-.4.35-1.26-.04-.85.83h-.71l-.8.28.26-.86.6.09.07-.9.98-.15.06-.53.56-.17.08-.82.32-.25-.03-.42.71-.2-.51-.74-.8.27-.46.36-.5.85.05.4-.8.19.12-.7.47-.54.2-.85-.25-.2-.74.17-.1.78-.35.28-.57-.12-.14.49.35.48-.52.58.1.4-.75 1.55-.49.4-.23.47-.85.22.32.8-.64 1.3-.83.28-.75 1.98-.35 1.41-.13 1.71.02.82.22.84.56 1.07 1.06.54-.32.67.42.74.47.57-.13.65-.88.35.38.69-.1.46.4.13.78-.25.48.46.61.07.81-.15.57-.69 1.47.79.15.61-.14.44.25 1.4.39.22.34.61.09.55-.43 2.2-.12 1.24.05.95.36 1.51.5 1.23.81 1.27.66.55.78.32.63-.41.61.47 1.32.42.67-.06.43-.48-.08 1.22-.57.53-.53.85-.73.57-.59 1.16-.7.57-.45.9.15.73-1.01.79-.27.41.17.55-.76.87-.12.36-.79.6-.35.51.04.63-1.6 1.52-.47.58-.57.44-.7.77-.4.8.06.25-.74.89-.08.29-.9.77-2.15 2.12-1 1.3-.03.4-.98 1.08-1.25 1.63-1.12 1.76-.78 1.8-.69 1.96-.23 1.35.1.85.76 1.34-.08.8-.43.57-1.05.46-1.12.7-.6.57-.26.5.02.46-.55.76-.3-.07-.69.8-1.14 1.55-1.22.56.12.41-.34.44-1.3.83-.6.1-.98.87-.42.7.25.9-.09.55-.6.78-.98.6-1.38 1.24-.48.8-.48 1.54-.09 1 .2.94.63.7 1 .5.04.24-.72.5-.48-.06-.12-.41-.42.04-.17-.48-.51-.47-.56-.06-1.07.2-1.73.62-1.2.52-.5 1.37-.82.26-.74.58-.46.01-.55.64-.13.47-.9 1.7-.68.99-.36 1.42.05.94-.16.55.26.44.71.38-.49.37-.77.84-.88 1.63-.41 1.3-1.18 2.57-.76 1.94-2.36 5.68-.32.95-1.15 2.4-.27 1.39-.3.14-.89 1.39-.76.73-.8 1.12-.6 1.33.05 1.11.54.56-.9.87-.18.38-1.5 1.74-2.02 2.77-1.06.74-2 1.02-.68.15-.24-.16-.95.57-.47.12-.7.68-1.86 2.39-1.2 2.02-.97-.2-.24-.23-1.03.18-1.7.98-1.16 1.03-1.04.31-.77.49-1.15.18-.53.46-1.65.57-.78-.03-1.12 1.06-.54.76-.85.81-1.4.09-.74.82-1.45 2.26-.44.86-1.05 2.35-.77 1.96-.86 2.64-.41 1.82-.38 2.15-.17 2.02-.01 1.15.1 1.51.15 4.37.19 1.7.33 1.9.8 3.05.91 2.77-.35-.28-.26-.9-.46-.32-.37-.87-.34.57-.06.58-.3.53-.56.07-.35.33.42.4-.46.32.18.33.76-.8 1.28.08.21.64.44-.09.57.2 1.14.96-.18.31.49.29.77-.36.54.38-.02.42-1.55.53-.75-.1-.55.22-.35-.15-.8.58-.05.26-1.67.26-.79-.46-.24.23-.55-.1-1.06.98-.56.15.06.82-.33.26.37.5.47-.59.27.52-.45.3.31.89.02.58.44.1.6-1.42.57.81.43-.06.7-.98.15-.56.33-.37-.02-.6.82.24.52-.4.1.96.56.24.3-1.12.9-.6.53.5.3-.54 1.05-.26.51.37.09-.75.68.03-.08.69-.47 1.62-.22 1.46-.3.54.56.13.32-.72.49-.2.14-.54-.25-.68.58-.85.06-.77.46-.97.32.26.83.12.38 1.16.76-.75.41.23.4.63.01.66-.61 1.27.15.44-.52 1.13.04 1.38.47-.01.07-.75.28-.74.5-.83.1-.85.51-1.18.42-.66.8 1.01.71-.08.55.7.15-.44.43-.4.4.63.82.31-.47 1.2.94-.47-.63 1.27.27.37.38-.46.75-1.24.47.2.69.8.5-.12.25.34 1.07.5-.5.38.08.47-.34.42.28.47.77.13.31-.57.4-.12.73.46.4.98-.12.86.57.39v.47l-1.28.27-.09.55.41.31.25-.4 1.13-.16.3.89-.05 1.46-.4.83-.67-.19-.28.46.27.8.06.9-.8.38-.04.43.55.41-.73.5.44.62-.66.12-.37.28-.02.92-.51.36-.4-.49-.34-.07-.17.73-.73.49-.52.81-.85.45-.3.46-.68.17-.48.32-.41-.13-1.2.06-.1-1.12-1.08-.44-.5-.98.13-1.27.23-.25-.14-.63.1-.7 1.18-.9.15-.64-1.1.02-.3-1.15 1.17-.03.16-.41-.77-.5.45-.39-.09-.55-1.01.06.1-.57-.52-.4-.46.08.13 1.73-.26-.2.14-.56-.45-.47-.48.33.31.36-.47 1.1.39.03.12.48.43.28.06.5-.41 1.08-.78.37.1 1.5.56 1.42-.33.47.15.41.87 1.18.82.37.4.92-.33.47-.73.2-1.19-.79-.98-.03-.52.54-1.49-.81-.09-.93-.51 1.1-.66-.04-.6-.28-.02-.47-.52-.18.5-.92-1.16.45-.37-.71-.82.4-.45-.88-.65-.04-.32-.4-.65.23-.86-1.52-.77-.6-1.14-.08-3.92.24-2.25.22-5.12.86-3.92.43-3.23.55-3.6.88-1.61.58-3.72 1.78-.27.2-1.1.29-2.02.72-1.18.5-3.4 1.57-3.2 1.62-3.03 1.75-2.25 1.37-3.32 1.92-3.73 2.3-2.2 1.26-2.6 1.42-5.37 3.06-1.3.8-2.35 1.67-3.8 2.96-2.79 1.88-1.18.9-1.2 1.04-1.67 1.58-1.62 1.44-1.68 1.72-2.7 3.2-1.37 1.84-.4.63.1.41-.38.5.1.52.34.2.16.49.43.03-.15.78.2.88-.43.76.21.55-.02.98-2.12 3.6-1.5 2.87-1.49 3.9-.45 2.18-.14 1.1-.08 1.85.36 3.39.07 2.52.19 2.11.03 1.74.19 4.56-.12 3.04-.37 2.62-.73 3.38-.32.99-1.27 2.7-.68 1.32-.94 1.51-.81 1.1-1.3 1.5-2.12 2.02-1.23 1-1 .99-.65 1.1v.6l.56.38-.15.76-.4.31-.5-.02-1.12.82-1.5 1.76-.82 1.3-.03.79-.95 1.67-.14.58.2.43-.64.56-.56.86-.38 1.09.04 1.76-.36.63-.46.43-.76 1.5-.46 1.84-.03 1.58.4 1.13.36.4.47.05.92-.32-.05.49.28.58-.21.52.24.4.1.86-.7-.12-.54.35-.85.89-.77 1.37-.55 2.05.07.85.86.51.32.76-.75.48-.43.72-1.57 1.75-.39.8-1.2 1.14-.9 1.86-.45.46-.25.63.03 1.61-.18.52-.49.4-.53.84-.74.7-.3-.66-.4-.04-.89.69-.3.52-.41-.3-.26.33.25.88.4.41-.5.88-.13 1.64-1.18 1.12-.84.35-.83 1.72-.18 1.04-.48-.94-.81.32-.33.9.1.5-.1 1 .59.1.72-.6.2-.46.48-.1.8.4.5.43-.5.46.09.68.5-.21.24-.45-.29-.6.44-.22.4.3.3.73.72.76.57.17.47-.2 1.02.4.32.54.56.39-.5.6-1.21.03-1.07.32-.84.38-.38.43-.73-.1-.26.95.29.48-.32.7-.68-.25-.36.15-.25.82-.43-.26-.32.31v.47l-1.12 1.98-.59.37-1.15.37-.69.09-.74.6-.37.02.04.7.3.35.48-.13.42-.76.58-.16h2.08l1.18-.8.3-1.78.28-.23.56.35 1.02-.49.6-.42.89-.02.8-.48-.25-1.32.61-.34.53-.54 1.87-.64.32-.38.1-1.3.69.18.21.6-.23.38.06.7.53.4-.46.73-.35.2-.35 1.44.08.75-.54.14-1.54-.51-.44.15-.33.45.12.57.63.2.88-.52 1.14-.06.74.2v1.31l.43.14-.64.95-.62.21-.46-.45-.62-.17-.52.09-1.09.47-.36-.7.67-.02.03-.74-.6-.52-.92-.5.08.68-.25.43.54.56 1.03 1.76-1.28.92-.7-.5-.66-.16-.31.56-.38-.36-1.22-.08-.74.5-.97.21-.53.33-.51-.16-1.18-.07-2.67.37-.55.62-1.15.09-.69.37-.83.24-1.81.22-1.15.4-.86.11-1.7.55-.2.5-1.47.6-.83.55-.74 1.07-.9 1.09-.59.94-.47.33-1.02 1.75-.7.96-.39 1.15-.45.06-.21.76.05 2.55-.22 1.12-.5.63-.3 1.1.17.28-.42 1.27-.58.81-.7.24-.54.8-1.4 1.56-1.27.63-1.8 1.1-1.2.93-.37.52-1.47.9-.66.6-.13.67-1 .8-.66.96-.53.16-1.3.64-.83.81-.18.6-.55.25-1.3 1.12-.93.27-1.76.83-1.59 1-.87.8-.97 1.19-.2 2.75.56.47.37.6-.18 2 .38.94-.24.49-.99.23.11.88-.8.34-.5-.15-.25.57-2.04.42-.3.48.18.52-.44.28-.01.98-.9.31.23.88-.7.36-1.38.26-.06.52-.48.35h-1.39l-.65.13-.12.8-.47.73-.68.7-.33-.07-.1.95-.51-.19.1-.46-.3-.51-1.34-.37-.4.16-1.15-.42-1.03.03-1.09.24-.55.27.12.46-.5.83-.96-.05-.89.67-.64 1.27.71-.08.02 1-1.07-.63-.6.32-.31.44-.81-.41-.71-.01-.89.55-.25.66.4.76-.17.46-.5.13-.4-.33-1.2-.29-.31-.36-.55.44-.57-.67-1.36.16-.49-.15-.88.9-.08.53-.82-.32-.48.96-.39.4-1.12.7-.38-.63-1.31-.09-.5.22-.83-.84-.06-.96.44-.2.46-.69-.53-.24-1.2-1.33-.38.57.37 1.06.37.46-.53.22.56.63-1.43.28-.76.74.05.8-1.05.46-1.62.41-.05-.53-.6-.46-.61.01-.03-.93.38-.69-.67-.34-.14 1.21-.29 1.4-.94.52-.5-.12-.51-.67-.67.37-.87.04-.63-.56-.2-.43-2.86-.22-.95.03-1.2.3-.81.05-.15-.89-.75-.48-.25-1.67.34-1.2-.37-.55-1.1-.78-.5-.91-.08-.56-.41-1.14-.35-.22-.56.25.25 1 .75.07.16.52-1.95-.73-1.7-.26-1.62-.08-1.3.1-1.52.27-2.22.64-2.37.84-2.13.93-1.26.43-.98.18-1.1-.01-1.15-.19-1.37-.02-.6-.17-1.17-.65-1.02-.2-.58.14.17-1.15 1.63-.12.48-.19.87.54.6.15.6-.37.2.36.84.17.32-.22.44.36 1.27.44.98.2.32-.4-.09-.57-.48-.37.26-.35-.5-.33-.89-.06-1-.72-.33.1-1.4-.5-.35.15-.78-.15h-1l-2.3.8-.53-1.2.2-.47-.7-1.04-.42-.1-.33.6-.61.24-.3-.17-1.13.48-.24-.09-.06 1.54.47 1.03-.17.51.5.6.53-.1.7.44.54.09.66.68.13.58-.63.86-.66.18-.51-.13-.52-.75-.42-1.75-1.52-.36-.44-.35-.17-.51.15-.77-.32-.31.02-.57-.27-.32-.52-.04-.8-.36-.46.2-.3-.34.37-.48-.26-1.02-.36-.29-.08-.92.55-.25 1.5.27.59-.55.52.17.16 1.02-.41 1.09 1.28-.42-.58-.67-.05-.58.35-.38 1.53-.29 1.06-.74.68-.32.68-.08.32-.92.47.1.04-.63-.55-.03-.51-.65-.34.22-.18-.82-.03-1.57.11-.97-.57-.4-.15-.79-.77.5.2 2.09-.3.54-1.8.1-.83.72 1.14-.03-.05.4.6 1.59-.07.41-2.03.47-.55-.6-.35-1.04-1.1-2.37-.37-1.35-.5-1.22-.9-1.74-1.22-1.66-1.43-1.47-1.85-1.2-1.15-.45-1.48-.24-.89.08-1.3.61-.99.8-.09.8.46.45.36 1.06-1.15-.1-1.01-.23-.48-.41-.76-.15-.37-.4-.62-.18-.73-.52-1.14-.3-1.47.07-1.04.6-.26.6.5.72-.22.84-1.2-.41-.42-.82-1.12-.66-.48-.03-.96.46-.42.9-1.13.35-.76-.8-.47-.16-.39-.83-.59-.13-.74-.53-.04-.68-.24-.56.25-.72-.67-.49-.38.25-1.25-.32-.26-.59.02-.62.6-.63 1.25-.3.44-.3.28-1.17-.44-1.36-.79-1.03-3.21-3.14-2.69-2.27-1.17-.72-1.76-.92-1.22-.72-.9-.41-1.37-.45-2.6-.38-1.95.1-.98.42.04.59-.45 1.38-.63.5-.59.07-.87.5-.28.75.23.59.36.25.14 1.37-.18.74-.68.38-.34.73-1.24.44-.55-.38-1.46-.41-1.7.12-.67.44-.8.27-.93.6-.4-.3-1.02.12-1.07-.16-1.3-.38-.3-.21-.9-.07-.45.24-.8.04-.86-.33-.98-.55-1.27-.5-.33.12-.67-.56-.55.04-.35-.44-.7.08-.5.26-.46-.2-.44.22-.77-.15-.68-.44-.62-.12-.73.09-.2-.69-1.18.24-1.57-.07-.48-.64-.96.17-.64-.34-.68.45-.62.13-.76-.17-.67.54-.72.26v.5l-.55.05.17-.6-.78-.62-1.8-.24-.95-.48-1.04.12-.39.41-1.08-.4-.23-.27-.68-.15.02-.44-.77-.3.18-.37-.42-.69-.02-.71-.6-.23.05-.45-.83-.77.3-1.02.82-.14.42-.5 1.46-1 .36-.05.86-.69.12.22 1.06-.1.26-.64-.36-.53V900l.18-.49.83-.97.29.47v.68l.55-.2-.44-1.45.7-.33 1.4-.42.21-.93.5-.44-.52-1.5-.3-1.22.4-.67.47-.28.48.03.6-.37.3.1 1.1-.2 1.45-.82 1.24-1.09.33-.6-.03-.4.6-.53.32-.58.49-.18.8-.64-.13-.65-.65.48-1.4 1.37-.22-.24-.72.59-.63 1.3-1.09.11-.46.27-1.17.23-.41.24-.84.05.25.6-.63.4-.34-.05-.87.41-.96 1.73.55.36.35.86.55.43.22.5-.09.71-.42.07-.41.57-.38-.45.23-1.2-.7.13-.13.92-.43.38-.27 1.04-.29.51-.44-.3-.18-.67-.4-.44.1-.8.33-.55.55-.33.5-.95-.34-.45-.69 1.02-1.25 1.52-.62.01-.26.56-.6.37-.21.98-.4.25-.44-.2-.03-.55-1.42-.72-.6 1.17-1.01.39.15.78-.78.28-.36-.3-.06-1.24.88-.89-.17-.35.3-1.05-.14-.36.35-.54.41.58.12.8.56.13-.27-.94.27-.53-.49-.43.63-2.54.45-.98.65-.3.51-.46 1.35-.19 1.19-.51.51-.09 1.45.13 1.77-.55.95.46.17-.51-.81-.97.7-.02-.05-.52-1.35-.05-.18.27-.8.13-1.11.69-.55-.18-.92.05-.98-.38-.88-.14-.1-.81.98-1.65.73-.5.54-1.34.01-1.23.18-.46.5-.34.05-.59-.71.3-.13.6-.69.76v.72l-.24.53-1.33 1.13-.46 1.2-.56.95-.54 1.23-.87.54-.39.53-.67.54-.51-.06-1.18.4-1.38.8-.33.58-.42-.2-.98.7-1.43-.51-.3.28.1.88h-.54l-.36-.85-.32-.36.23-.35-.22-.65.31-.68-.3-.76.12-.3-.2-.85.17-.64-.52-1.62-.07-.79-.3.05-.5-1 .45-.7.08-.77-.18-.8.27-1.02-.39-.42-.05-.55.3-.97.5-.12.31-.57.05-1.17h1.27l.69-1.06.44.01 1.57-.5.58-.38 1.35.04.17-.26.84-.15.28.65 1.16-.05-.79.87-.59.37-.14.44 1.37-.74.48-.47.8-.37.35-.52 1.02-.13.64-.28 1.64-.37 1.15-.42.34.15.59-.34 1.72-.38.45-.33 2.89-.46.73.02.6.22-.06.57.52.4.39.01-.25-.91 1.86-1.27.05-.28.9-.62.83-.15 1.58.06 1.71-.74-.61-.77.4-.43.45-1-.33-.36-.48.08-.49 1.09-.1 1.02-.64-.26-1.29.45-1.6-.83-.76.18-1.11-.46-.31-.45-1.16-.11-1.18.81-.92.23-.87.36-1.96.55-.2-.57.01-1.47.44-.99.19-1.18.66-.77.5-.02.6-.34 2.01-.33 1.96-.91 1.36-.34.68.01.25-.35.55-.13.93.13.65-.66 1.19-.1.3-.26 1.03-1.6-.99.59-.73.85-.78.2-.3-.13-1.44.31-1.22.38-.56-.42-1.13.49-1.03.65-1.18.36-.55.4-1.44.38-1.17.18-.62-.18-.16-1.23v-1.74l.08-.52-.34-.61-.05-.54.31-.43 1.58-.3.64.16.24-.45.8-.92 2.46-1.03.43-.45 1.14.03.79-.59.8.4.31.37 1.25.22.74-.05 1-.67 1.1-.26.2.3.93.65.02-.7-1.04-.77-.82.33-.18-.13-.8.43-1 .24-1.1-.04-.65-.59.09-.77 1.24-.72 2.3-.52 2.55-1.88-.14-.37-.75.48-.33-.14-.47.62-.5.05-2.6 1.29-1.11.38-.92-.15.1.96-1.21.83-.72-.12-1.55.5-.26-.15-1.28.8-.68-.33-.27.3.06.5-.95.38-.66.5-2.8.4-.44-.06-.85-.65.02-1.14-.14-.26.64-2.57.23-1.12.81-.9 1.09.24.56-.78-.93-.73-.03-.67.64-.81.06-1.02.49-.7-.23-.42.37-.3.33-.99-.22-.28.68-.88.35-.91.8-.01.37-.42 1.6-.04.6.28.27.37.7.22.59.8.75.44 1.14.02.3 1.16.7.45.25-.38-.5-.36-.2-.58-.72-.9.23-.61-.52-.04-.5.41-.73-.43-.28-.36-.54-.12-.08-.41-1.03-.29-1.05-1.12-.75.12-.38-.35.07-1.43.53-1.2.78-1.03.69-1.52.4-.05.3-.63.6-.15.2-.95.6-1.1.96.35.7.86.87.62 1.74.9.59-.08.48.2.75.61-.7.6-.61.13-.57.5.08.57.75-.76.9-.25.8-.6.43.04.8.98.83.4.66.55.76.2.3.4-.44.57-.1.56-.53.1.17.54.05 1.12.33.47-.04.95-.81-.13-1-.37-.97.35-.34.43-1.4.2-.54.5-.62.07-.1.52 1.13-.46.58-.4.89.1.81-.6.5-.15 1.17.32.42.48.33-.05.68-.76.02-.97-.23-.67-.37-.42.37-1.53.6-.58 1.7.6.57 1.02.29.21.48.84.28 1.25.5.57.63 1.72-.12.73.12.68-.34.6-1.55 1.1-.57.67.16.67-.58.59.23.56.65-.84-.05-.59.63-.88.3-.05 1.44-.96.05-.65.36-.1.4-.51.3.17.6.83.1.59.65-.04-.4-.72-.97-.98-.56-.72-.12-.58.14-.75-.86-1.5-.33-.86-.58-.48.1-.35-.7-.65-.3-.78-1.05-.76-.94-.12-1.39-1.13-.1-.3-.88-.86-.03-.5.48-.18.07-.7.64-.1.47-.78.7-.17.56.25.63-.03.63-.33.47.08.55-.29.95-.05.77-.28.91.4.23 1.4 1.14 1.1 1.37.12-.2-.58-.9.1-.6-.5-.3-.62-.01-.93-.74-.9.16-.36.51-.28.5-.63.4-.77-.23-.24-.58.5-.62.8-.27-.25-1.15-.02-.1.69-.48.46-.51-.17-1.32.3-.96.33-.98-.1-1.07.4-1-.58-.38-1.09.14-.25-.15-1.6-.45-.24-.25-.62-.52-.53-.62-2.26.04-.68.42-.03-.1-.65.38-.88.51-.18.07-.35-.82-1.1-.32-.63.88-.85.2-.45.56-.08.25-.97.4-.43 1.37.26 1.16 1.55.18.84.63.8.3.68.76.44.51 1.43.25.25.77-.37 1.22-.37-.2-.5-1.57.58-.04-.49-.46-.99-.52-.31-.9-1.77-.36-1-.55-.76-.88-.7-.83.04.04-.77.64-.4.23-.97.88-.77.26-.63.66-.63.54.35.53.8.14.74.47.24.55 1.2.15-.05.85.86-.18.38.3 1.22-.08.64.82 1.02.55.28.65-.34-1.39-.66-.1-.8.23-.17-.38-1.08.1-.5 1.02-.32.78.33.85-.2.75.38.6-.3-.72-.47-.8.17-1.41-.2-.25-.3-.92.26-.47-.3-.38-.6-.87-1-.28-.93-.53-.96.08-.94.43-.58-.66-.31 1.08-.44.26-.54.75-.43.47-.03-.14.58.32.22 1.59.28.62-.08.72.15.8.74.71.24.7.54.8.29.58-.08 1 .5 1.1-.1.65.28.36-.48-.61-.38-.53.27-.3-.34-1.47-.46-.58.24-.44-.06-1.27-1.14-.58-.63-.8-.28-.36.07-.6-.52-.9-.13-.83.3-.46-1.27-.06-.61.5-.75 1.65-.95.09-.51.96.38.15-.45-.34-.6.87-.95.16-.5.65-.65.56.33.79-.32-1.03-.86.8-.33.59-.56-.21-.47.62-.24.18-.66.52-.33.25-.93 1.47-.43 1.37-1.01.31-.54.7-.04.14 1.77.25.7.55.44.6.82.11.99.45.63-.05.98-.52.55.06.92-.55.5 1.05.32.98-.1.46.7.2.81-1.45 1.32.1 1 .5-.7.33-.13.3-.67.72-.5.47.07.34.81.32-.4.06-.73-.81-.58-.31-.7-.49-.63-1.01-.58-.32-.56.44-.5.42.55.33-.2-.6-.74-.02-1.2-.36-.67v-.88l-.32-.63-.34-.23-.47-1.15-.04-.5-.56-.66.1-1.39-.17-.45 1-.56.58-.48.42.3.33-.14-.22-.56.35-.56 2.22-1.35.3-.57.55-.17 2.14.25.69.81 1.6 1.05.22.58-.31.46-.71.58-.6 1.01-.73.69-.2.5.18 1.25.93.89.7.3.46.42.36-.33-.54-.53-1.03-.74-.38-.69.64-.5.38-.6.04-.48 1.57-2.28.04-.6-.98-.43-.33-.8-.93-1.07-.07-.94-.5-.19.17-.74.7-.6.38-.56.72-.21.5.4.83.21.8-.24 1.1.43.34-.15.57 1.14.4.16.68 1.6-.11.71h.36l.34-.89-.66-1.28.02-.48-.65-.18.03-.33-.68-.52-.83-.04-.34-.96-.41-.39-.65-.26.26-.6-.08-.6.31-.68-.18-.51.32-.19.9-1.35.55-.32.36.04.55-.45.67.14.95.84.09.37.58.74.48-.02.36-.53-.96-1.77-.84-.81-.16-.38.89-.08 1.17-.68.08-.35.77-.54 1.36-1.26 1.14-.01.73-.36.38-.8.26-.9h.9l.44-.44.74.2-.03.72.86.33.2.96.38.24 1.18.07.73.65.46-.03.71.84.45.17.14.83 1.2 1.12.06.74.54.45.14 1.07-.4.32.65.28.73-.48-.83-.7.9-.05-.4-.97-.37-.5.01-1.88-.33-.46-.32.45-.45-.13-.4-.47-.39-.1-.5-.76-.99-.54-1.13-.27-.57.04-.54-.22.25-1.25-.06-1.99.5-1.37.09-1.1-.17-1.13.08-.27-.58-.8-.01-.4.9-.33.55-.54.18-.6.56-.86.07-1 .9-1.43.58-.45.46-.74.88-.6.09-.6.62-.14.34-.79.87-.86 1.01-.22.82.34.5-.36.67-1 .42-1.49.1-1.21-.35-.48.9-.38.36.16 1.9-.04.94.18.2.24 1.14-.09.48-.61.8-1.78.18-.72-.63-.94-1.72-1.21-.74.08-.48-.58.76-.78.84-.31.93.04 1.2-1.08 1.4-1.1.3-.4.23-.85.97-.7.9-.36 1.8-1.5.45-.73 1.14-.24.92-1.07.38-1 .43-1.6.38-.18.24-.62 1.5-.8.79-.58.16-.59-.38-.45.37-.9-.17-.46.18-.45 1.18-.91.24-.38.62-.19.38-1.1-.14-.66 1.13-.5 1.78.13.56.3.97.05 1.47-.35.49.18 1.86-.32.97-.65 1.1-.1 1.13-1.32h.46l.28-.33.76.23v-.7l.7-.06.51-.37.48.01-.47 1.23 1.02 1.2.49.25.8.1.65-.09 1.18.1.92-.07.86-.21 2.7-.81 2.68-1.17 1.49-1.12.73-.75.64-.84.75-1.18 1.3-1.35.93-.64.9-.47.5-.02 1.92-.83 1.07-.74 1.55-1.37.97-1.37 1.33-.73 1.95-1.6 1.73-1.89 1.53-2.03 1.86-1.54.78-.4.85-.9 1.34-.56.36-.48.52-.05.86-.74.94-.16 1.45-.93.08-.2 2.17-.72.7-.54.82-1.6 1.12-.63.81-.09.5-.41.77-.34.26.44.46.1.56-.22.45-.46 1.79-.1.7.4 1.14-.78.98-.9.54-.67.36-.85.38.12.2.97.45.16.97-.14 1.3-.77.45-.44 1.3-1.78.4-.72 1.08.22.48-.17.88-.84.61-.8 1.06-1.8.43-1.07.84-.89 1.48-2.37.27-.61.77-.75.51-1.42.33.21.48-.21.76-.64 1.19-1.36 2.3-.07.56-.32 1.15.02.9-.4 1.04-.7 1.79-1.36.7-.73.9-1.16.35-.24.67-1 .6-1.24.33-.2.48-.99.47-.44.47.02 1-.66 1.14-1.24.69-.56 1.21-1.79 1.13-.42 1.08-.99 1.74-2.46.74-1.36.66-1.52.64-.44.65-1.4.56-1.01 1.15-.1.38.15 1.26-.31.4-.25 1.48-.34.42-.21 1.11-.94 1.78-2.23.67-.96.59-.48.45-.03 1.6-.92 1.05-.15 1.1-.49.4.23 1.25-.04 1.47-.74 1.29-.33 1.04-.6 1.6-1.11 2.25-1.9.8-.44 1-.77 1.33-.67.86-.58.79-.72.43-.56 1-.91.74-.32 1.2-1.1 2.32-2.92.87-.6.92-1.17.68-1.27 1.06-2.25 1.99-2.95.72-1.2.63-.42 1.83-1.97 1.55-1.91.5-.48.96-.42 1.23-1.51.9-1.3 1.34-2.2.71-1.52.49-.46.57-.92 1.46-2.73 1.15-3.02.34-1.08.42-1.9.53-.76.25-.75.6-2.81.03-.43.48.05.74-.4.73-1.98.22-.16.25-1.08.34-.85.76-.7.5-1.62.22-1.07.45-.32.22-.42.24-1.1.11-1.71.2-1.28.08-1.79.23-1.55.08-1.3.44-1.95.08-1.17.57-1.64-.08-.53.57-.38.3-.58.42-.44.22-.59.17-2.18.53-.16.74-.59.32-.91.02-.98.41-.65.19-1.83.16-.26.09-1.2.37-1.7-.09-.47.18-.47.37-.26.7-1.3.46.06.19-.54.5-.41.22-1.87-.06-3 .3-.66-.36-.46-.11-2.05.18-.58-.1-.9.3-.19-.06-.66.33-.32.62.25.75-.24.65-.02 1.25.5 1.54-.27 2.05-1.4 1.26.32 1.3.04.96.29h1.2l.55-.27 2.04-1.23 1.11-.99 1.46-1.52 1.7-1.38 1.33-.85 1.92-1.76 2.18-2.8 1.04-1.89.53-.68.49-1 .7-1.8.37-.53.43-1.12.68-.95 1.67-3.7.63-.3.3-.64.47-.25.62-.98.64-.46.48-.85.68-.73.48-.17.39-1 .3-1.14.49-2.46.33-2.19.36-.68.38-.1.17-.92.24-.28-.28-1.04-.43-.28.24-2.86.41-.28v-.77l-.32-.16.15-3.08-.05-2.1-.1-1.69-.16-.42.26-.8-.04-1.93.16-.33-.14-.5.25-.49-.08-.98.26-.27.04-.54-.14-1.3.05-.56-.42-2.09.05-.25-.35-2.5.07-.2-.13-1.53.3-1.04-.04-.54.53-1.13 1.03-.64.4-1.15.04-.8.28-.1 1.09-1.38.27-.54.62-.64.62-.9.85-.74.64-.22.28-1.08 1.42-.27.5-.44.54-.07.83-.91.65-.2.72-.6.73-.92.77-.72 1.21-.7.98-.85.43-.24.74-.91.4-.92.94-.83 1.05-1.29.5-.3.8-.91.58-.2.81-.65.65-.27.27-.53 1.33-.72 1.5-1.18.08.54.34.41-.57.51-.85.96-.63.39-.17.32.27.52.65-.46.54-.55.75-.49.92.02.42-.24.58.33.28-.3-.2-.41-.43.2-.09-.81.33-.27 1.41-.26 1.08.1.64-.29-.2-.68.25-.23-.1-1.07-.93.72-.65.1-.39-.12-.54.3-.34-.33-.36.1-.12.94-1.24.62.08-1.45.54-.69 1.25-.78.34-.46.55-.4.75-.88.35-.06 1.73-1.62.25.33.44-.3.5.03.8-.6zm25.1 60.46-.3-.53.28-.23.48.48zm1.2.04-.44-.26-.54-.62.68-.13.46.2zm-3.5-1.73.09-.69 1.33.93-.24.35-.72-.54zm4.05.8-.37-.5-.83-.01-.79.23-.5-.21-.62-.62-1.57-.7.12-.68.31-.26 1.37.65 2.26.92 1.05.67.15.31zm41.55-18.93-.47-.47-.7-.28-.25.52-.53-.55.16-.45.74-.45.72.01-.56.77.18.28.6.12zm3.25-25.37-.19.58-.02.78-.27 1.2-.23.5.34.64-.02.86-.71.37-.49 1.34.37.6-.21.7-.4.2-.25.44-.09.76-.67.82-.18.65-.33.18-.2.92-1.85 1.17.36.27-.66.34-.07.8-.33.04-.33.61-.94.37-.5 1.13-.89.88-.63-.13-.55.82-.96.16-.17-.81.59-.55.38-1.09.3-.36-.4-.63-.1-1.07-.61.75-.15-.42.31-.27-.03-.59-.41-.08.16-.74-.04-.74.3-.38-.09-.74.76.04-.08.69.13.63.63-.16.44.23.5-.2-.29-1.83-.52-.43.3-.36-.18-.54-.54-.6.45-.33 1.17-1.66.04-.36.77-.5.28-.84-.29-.34 1.04-.66.17-.6.56-.64.03.68.44.2-.5 1.43-.55.72.03.4.59-.02.16.63-.35.8.1.31-.25.76 1.11-1.11.1-.84.55-.17.37.29.46-.14.89.25-.31-1.29-.51.57-.65-.06-.25-.37-.37.23-.34-.28.25-.44 1.35-.6.95-.68.55.12-.12-.63.32-.52.83-.7-.1-1.06-.16-.44.35-.24zm16.02 36.2-.26-.14-.61.53-.31-.86.43-.26-.13-.43.32-.6.48.1.55 1.54zm8.23-4.98-.36 1.24v.64l-.76 1.38.08.47-.23.78.4.57-.02.9-.57.48-.51-.13v-.34l-.74-.17-.32.3-.68 1.07-1.1-.58-.04.3-.57.3-.86-.1.03.44-.42.46-.74.38-.56.87-.4-.3-.43.18-.37-.94-.45.06-.2.6-.93.4-.7-.18-.31.47-1.03.2-.34-.19.33-1 .56-.15.1-.43.96-.85 1.14-.22.54.61.44-.38.5-.17.23-.37.42.12.19-.4-.3-.6.7-.61.96-.25.53.26.14-.74.3-.41.9-.4.47.15-.52.8.61.1.28-.18.6.3.33-.17-.44-.7 1.47-.57.15-.47.51-.73.22-.8-.05-.53-.4-.04-.17.59-.67.75-1.36.35-.23-.52.16-.52-.24-.2-.99.09-.21.3-.6-.04.75-.74.78-.09.61.37.49-.2.22-.5.4-.3.63-.12.17-.47.46-.12.6-.93.59-.11-.18 1.08zm-6.56 3.24.55-.08.18.58-.85-.23zm.15-5.33-.12.77-.29-.08.08-.64zm-11.04-9.4-.63.54-.24 1.08-.4.67-.62-.41.25-.42-.42-.33.5-.84.58-.28.35-.5-.34-.47-.93-.04.31-.4 1.34-.36.05.4-.26.7zm-.82-4.87-.15.55-.68-.26.49-.5zm-4.7-17.4.77-.45.14.39-.34.45-.49.04zm50.5 49.85-.41.4-.43 1 .16-.61.26-.4zm.55-.87-.42.24-.11.6.09-.6zm-5.82-13.07.54.3.17-.32.82.43-.58 1.1.1.53.9.64.06.7 3.12.36-.37.74.53.41.05.3.84.24 1.49-1.12 1.09-.6.42.37.5 1.13-.15.5-.89 1.28-.36.97.1 1.24.28.64-.66 2.06-.6 1.06-1.39-.18.56-1.36.81-.92-.03-.53.27-1.44-.66-.7-.14-.7-.53-.42-1.2-.44-.53-.07-.93.48-2.1 1.74-.5.25-.57.59.25 1.14-.62.15v.43l.4.28.94.05.2.83-.41.23-.13.48.35.32.4-.04.32-.92.39-.61.16-.85.68.82-.24.17-.04.68-.22.83.63.6-.08.38-.62.17-.21.74-.36.13-.67-.57v-.53l-.35-.09-.45.34.14.44-.86.58-.58.12-1.4-.05-.8.35-.2.45-.38.12-.86-.12-.52-.75-.7-.01-.4-.48-1-.1-.57-.7-.07-.37-.4-.2-.6-.66.02-1.35-.77-.1-.27-.76.13-.94.24-.25.18-.8.29-.26 1.08-1.42.3.5.8.03.66-.73.66-.19.24-.9.43-.18.79.05.84-2.38.58-.54-.03-.54.68-.17.52-.33.21-.53z"/>
    <path region="7" short-name="Waiariki" long-name="Waiariki" value="1" d="m820.98 240.5.21.63.53 2.52.53.92-3.88-.08-.35.36-.5.17-2.2.28-.38.32-.27 1.25.42.41.02.37.38.27.12 1.7.16.43-.1.72.12.75-.57.64.23.8.23.1-.34.67-.46.38-.13.79.13.27.76.58.25.52-.11.3 2.53-2.26 1.96 2.2-5.78 5.92-3.18 9.92-2.34 6.93-.49 1.57-.37.98-.3-.3-.39.27-4.37-3.75-1.88-1.3-.9-1.4-1.4-.07-.57-.57-.57.1-.4.28.07.42.38.4.09.48.38.6.47 1.3-.32.22-.37 1.23.33.92.36.38-.5.65-.6.36-.49-.09-.51 1.25-.33.07-.22.67.15 1.3-.65.38-.84-.2-.58.7-.87.04.14 1.13-.74.2-.47.3-.6-.06-.97.88.23.34h-1.53l-.02.65-.92-.27-.3.2-.77.12-.18.27-.21 1.23-.58.09.47.56-.07.73.21.3-.47.87.12 1.6-1.3 2.72-.55.3 1.8 2.71-.36.19 1.5 2.25 1.15 1.8-.6.5-.3 1.21-.48.97-.48.2-.85-.03-.55-.31-.62.73-.45-.2-.63-.03-2.87 2.82.62.63-3.02-.35.37 7.93-2.55-2.03-.08 4.61-.9-.47-.44.71.28 1.58-.25.66-.67.52-.44.51-.44.29-.3.5-.22 2.3 2.56.25.16.47-.78.4-.28 1.07.49.54.2.56.37.38-.3.8.27.56-.28.8-.83.28-.55.02-.4.24-.4.98-.85.85.1 1-.6.54-.33-.33-.75.06-.45-.23-.52-1.18-1 .07.03-.54-.31-.06-.42-.61.2-.36-1.2-.02v-.74l-.65.43-.52-.8-1.1-.04-.25-.5.02-.72-.54-.64-1.52 1.32-.23.34-.73.27-.67-.1-1.71 1.44-2.2-.02-.2.36-2.74-.07-1.22.06-1.31-.68-.52-.59-3.47-1.04-1.32-1.9-4.91 1.73-.04.66.47.45-.22.76.22.5-.37.82-5.68 5.69-.11 1.62.3.65-.13.4.37.82-.05.31.44.35-.15.65-3.97-.04.34.3-5.61-.01-1.67 4.45 1.34 4.35-1.53-.33-2.54 1.07.23.28.6.15-.05.69.45 1.19-3.07.82-6.15-5.57-.08.49-1.36 1.06-1.46.79.12.3-.5.77-.81-.56-.42.14-.42-.28-.67.4-.06.22-1.05.31-.26.37-.58-.03-.27.2-.91.21-.2-.1-1.92.08-3.9-.51-.25.57-.43.13.19.74-.18.76-.48.5-1.31.09-.79.2-.2.57-.78.16-.22.28-.71.13.43.76-.05.56-.81.84-1.35.9.1.37.7.51-.3.52-1.21.34-.38.45-.42.9-.92.85-1.25-.04-.62-.48-.6.12-.24-.26-.78-.27-.6.35.15-1.14 1.09-.66.27-1.06.77-1.07.43-.42-.11-.38-.42.01-.04-.44-.44-.14.08-.61 1.07-.86-.24-.8-.03-.54-.65.09-.68-.25-2.05-.26-1.14-1.05-.69-.12-1.62-1.75-.24-.45-1.48-.2.32-1.83-.3-1.05-1.12-.65-.05-.47.42-1.11-.55-.36.19-.49 1-.23.69-1.23.02-1.05 1.4-1.74.55-.82-2.34.04-.82-.46-1.19.57-2.5.37.14-1.06-.33-.13-.3-1.03.62-1.34.04-.56.6-.92.23-.57-1.1-1.47-.01-.48-.66-.85-.25-.54.1-.4.8-1.22.06-.35.89-.57-.14-1.07-.63-.93-.59-1.06-.67.43-.15-.92 1.1-1 1.31-.3.1-.17 1.28-.44.42-.62.95-.27.57-.3.82-.06.6-.2.37.34 1.15.17.27.28.83-.07.7.36 1.12-.68-.05-.5.45-1 .47-.3.23-.49.52-.4-.11-.78.44-1.16.96-.23.26.4.66-.13.49.23.4-1.07 1.15-.57 1.15.08.31.2-.07.89.33.16.3-.8.34-.42-.01-.97 1.71-2.4.89-.34.6-2.53v-.47l.52-.41 1.11-.52.43-.08.41.46.25-.4 1.39.18.54-.15h1.04l.26-.25-.06-.75.5-.89-.32-.65.17-1.13 1.4.12 2.35-3.22.97-.07v-.68l.57-.04.06-.32-.23-.95-.37-.4-.13-.52-.63-.88-1.26-.07-.47-.4-.77.09-.36-.2-.3-.65-1.2-.82-.73.1.07-.52-.43-1.02.36-.12 1.13-.75.77-1.01.01-.35.63-.62.86-.37.25-.3.87-.29.51.06.51-.4.52-.97.13-.53-.61-.45-.76-.13-.3-.33 1.18-.2-.5-.38 1.7-3.63-2.3-3.74h-1.12l-.1-.2h-1.75v.18h-1.58v-2l-.6.22-2.06-.02-.15-.25 1-.51.34-.63.9-1.97 2.06-4.29.32-.74-.27-.38-1.3-.87-.69-.78-.84-.52-1.43-.2-.68-.2.02-1.1-.34-.4-.38.13-.56-.78-.5-1.99.35-.48 1.74-.66-1.1-.58-.22-.28.39-.9-.57-.67-.28-.13-.57.21.2-.97-.45-.46-.22-1.05.4-.33-1.67-1.03 1.24-3.8-1.85-3.77.09-.9-.4-.19V252l-.6-.13-.28-.5-.21-1.08-.32-.68-.76-.44-.6-1.67-.46-.84.42-.5.03-.52-.4-.96-.65-1.26-.08-.8-.57-.53.15-.77.62-.49.33-.67-.39-.72.03-.51-.22-.43-.64-.06-.22-.42.15-.5.5-.44-.2-.73 1.1-.96.62 1.11.8.74.75.24v-.36l3.03.01.22-.06.56-2.18-.62-.54-.52.37-.3-.01-.63-.45-.37-.08 1.28-.75-.23-.21 1.83-1.45.54-.05 1.62 2.58.52.64-.65.16-.38-.8v-.41l-.35-.37-.6.24-.71.63-.37.58.04 1.04.46.25-.55.6-.32.56.64.04.29-.27 1.07-.11.25.7.28.17.08.55-1.02.38-.82.73-1.54.24.13.4.84-.12.47.29.48.51.08.43-.92.33.02.35-.81.84.14.59.8-.33.49.54.1.42.99-.7.67.29-.6.82-.6.18.2.67.36-.26.57.05.24.3-.21.46-.3.05-.43.9.5.14.39-.35.45.06.1 1.26.45-.14.08-.75.42-.46.47-.18.05 1.36.3-.3.91-.08.56-.18-.29.71-.35.32.29 1.4.39.17-.53.55.83.07-.17-1.06.18-.42.53.43.58-.56.73.42.42.03.08.7.53.59.88-.63-.17-.39.7-.59 1.64.5.13.36-.12.53-.38-.1-.39.48.71.79.32-.53.24-.85.15-1.17.43.01-.27 1.2v.9l-.27.66.05.99-.73.27-.32.78.34.25.46-.47.4-.1.91-.96.32.37-.41.23-.25.48.66.11.46-.28.49-.63 1.1.16.1-.51.46-.56-.88-.57-.3-.43-.38.28-.15.6-.92.57-.47-.71.17-.61.69.46.43-.44-.02-.73-.64.2-.8-.86.2-1.38-.12-.8-.18-.27-.55.04-.1-.46.35-.3.3.4.56.32 1.04 1.2 2.1 1.74 1.19.74 1.72.94 3.14 1.37 2.66 1.63 1.14.53.78.96.83.26.27-.37.42-.12.48-.47.35-.64.52.85.03.44-.36.26-.18.79.9-.05.59.2-.13-.73.84.72 2.14 1.6 2.77 1.92 2.59 1.48 2.85 1.33 2.54 1.07 1.28.45 1.1.27 2.97.47 2.13.75 1.5.4 2.37.45 1.75.73 2.22 1.12-.24.58.66-.11.4-.7.24.02.14.87.29.49.55.33 1.4.58 1.18.35 3.48.74.06.48-1.21-.24-.35-.24-.84-.27-.6.08-.85-.22-.5.12-.18.91-.44-.03.45.83.51-.5 1.05.1-.17.43.39.15.12-.48.8.1.2.65-.61.36-.2.39.67.08.47-.33.35.42.54 1.34.16-.28.76.41.36-.19-.32-.7-.5-.17-.24-.62.46-1.17.75.4.23-.44-.16-.44.23-.82.97.17.43.67.32.14.35-.42.5-.26 4.55.03 3.45-.3 2.9-.37 1-.29.6-.74.67.02.2-.57.55.08.92-.31 1.06-.5.33-.68-.34-.39 1.66-.66 1-.55.93-1.1-.16-.53.48-.95 1.43-.87.38-.54.27-.87-.18-.88 1.09-.15.05-.6.33-.16.15-.44-.2-.65.42-.13.47.3.84-.35.66-.61.18-.73-.3-.33.48-.71.81-.41.52-.81v-.51l-.52-.64-.02-.66.67-.06 1.19-.84.1-.57.6-.63.32-.98-.04-.58.22-.35.9-.14.41-.22.71.2.67.02.53-.17.27.37.42-.22.36-.49-.09-.35.86-.6 1.38.36 1.45-.71.58-.44.17-.54.32-.1.14-.62.32-.13v-.65l.26-.51.4-.31.54.79.95.16 1-.18.42-.2.2-.67.53-.38.24-.54.96-.96.34-.69-.42-.46-.2-.62-.1-1.23.15-.14 1.3 1.18.31-.2 1.02-.2.23-.25 1.51-.18.48.19zm-63.26 22.86-.45.22-.78-.59.18-.36.73.35zm-52.64-15.83.65-.02-.55.63zm21.3-1.46-.44 1.23-.3.4-.93.04.1-1.33.31-.02.18-.52-.15-.33.11-.68 1.15.95zm-17.97.6.12.68-.35.16h-.64l-.2-.59.08-.82.42.05zm1.37-.39.84.99-.63.58-1.29-1.16-.09-.74-.23-.22-.96-.25-.1-.55-.98-.65-.3.76.34.42-.43.58-.36.22-.36-.82-.27-.29-.81-.23-.83-.42-.3-.75.02-1.09.53-.31.66.34.4-.01.7.7.22-.23-1.05-.94-.43-.68-.55-.62-.46-.2-.49-.5-.59-1.24-.27-.23-.59-.92-.68-.6-.06-1.04.11-.6.74.12.76.46 1.86 3 1.45 2.06 1.45 1.87.5.56zm59.71-6.65-.45-.05-.67-.86.58-.54.89.43-.02.64zm-52.51-17.56-.2 1.26-.53.34-.62-.57-.4-.04-.35-.31-.2-1.3.43-.45 1.22-.34.95.1z"/>
    <path region="3" short-name="T훮maki Makaurau" long-name="T훮maki Makaurau" value="1" d="m623.48 190.88.87.43-.2.39.24.76-.07.43.9.55.12-.33-.46-.36-.11-.6.18-.37.54.36-.3.24 1.11.79.47-1.85.24-.49 1.25-.16.02-.44.98-.42.54.36 1.35-.05.97.46v1.01l.64-.08.36.53.56-.26-.8-.83.65-.65.43-.06 1.23.43.84-.12.17-.36.66.2.42.62-.13.68.21.3-.43.52.06.26-.54.59.05 1-.65.43-.3.48.57.7.04.45-.27.54.27.18.53-.42-.45-.9-.35-.91.67-.02.35-.28.33-.98 1.14-.74.23-.4-.38-1.04.03-.8 1.05 1.91.4.1.9.8.54.36.25.53-.02.53-.75.42-.16.3-.3.88.25.55-.1.58.25.46.51.28-.23.4.26 1.04.77-.07.33.46-.26.18-.68.01.08 1.02-.72-.25-.62.3.28.5 1 2.54-1.17.46-.26-.22-.36.34-.87.11.1-.7-.93.59-.27.57-.87-.73.49-.26-.25-.34-.64.9-.38-.12-.26-1.68-.43.02-1.43-1.34-.7-.56-.02.61-.82.12-1.38.46.24-.57-.2-.33h-.44l-.43-.35-.7-.23-.1-.34.3-.82.39-.3.5.07.29-.32-.26-.54-.88.44-.43-.14-.44-.55.22-.15 1.23.1.93.28.13-.48-1.1-.7-.09-.33.51-.42.6.13.96-.08.32.17.2.5.89-.45.47.18.32-.39-.02-.57-.65-.1-1.78.06-.85-.46-.66.1-.22.3-.78.23-1.35.24-.62-.62-.35-.04-.28.34-.5-.08-.51.2-.86.69-.07.8-.36.07-.36.58-.5-.58-.07.96-.4.24-.1.46-.85-.38-.02 1.03-.66.32-.19.63.27 1.44-.81-.88-.52-.15-.66.24-.06-.72-.32-.13-.55 1.66-.87.36-.33.31-.38.01-1.1 1.01-.7.4-1.02-.57-.3-.76-.11-.84.08-1.5-.3-1.65-.33-.56-.1-.54.39-.56-.55-1.36-.39-.73.01-.56-.44-.24.19-.4-.06-.68-.33-.56.4-.03-.06-.82.55-.35.2-.38.75.06 1.48-.23.81.26.4.38.98.07.35.8.44-.3 1.52.61.8-.47.26.86.81-.05.72.57.63-.79-.01-.66.2-1.07-.02-.36.27-.75zm29.38 4.72-.2-.38.81-.8.23.49-.61.16zm3.44-6.03-.7.37-.39 1.1.1.9.53.52-.26.63-.02.74-.64.5-.13-.44-.52.06-.39-.63-.03-.6-.56-.68.4-.62.57-.5-.3-.71v-.5l1.16.05.75-.35zm-15.19-1.32-.19.36-.38-.06.22-.63-.35-.59 1.26.5zm13.39-4.58.75.03.02.42.4.42-.47.87-.86-.26-.76.32-.63.52-.05.35.26.79.46.34-.19.29.01.9-.27.67-.45.18-.37.94-.35.06.04-.59-.18-1.23-.3.15-.52 1.1-.38.43-.22-.61.11-.42-.26-.25-.12-.54-.61.99-.5.22-.27-.26-.36.22-.82-.39.54-.55-1.14-.33-.4.1-.57-.13.03-.4.53-.24.44-.74-.57.07-.27-.35-.35.38-.82-.75-.57.04-.17.73-.39.17-.18.5-.39.06.04-1.4-.36-.53.56-.14-.2-.85.96-.19.44.57-.15.38.42.24.52-.22.25-.41.84.23.27-.33.54.07.12.37.42.39 1.02.13.65-.15.47-.3.09-.45-.28-.42.14-.42.67.03.4.29.8-.33h.59l.04-.6.62-.81.47.13.15.34z"/>
    <path region="5" short-name="Te Tai Tokerau" long-name="Te Tai Tokerau" value="1" d="m560.48 59.87.44-.3.27.83-.44.02zm13.45-2.66.3-.46.29.69-.39.12zm-93.5-56-.13.36-.78-.04-.25-.9.84-.1.22-.53.58.02-.28.52-.42.07zM631.9 165.99l.64-.5.08.37-.8.67zm-30.94-7.97-.63-.87.03-.78h.41l.08.74.2.3zm27.6-30.83.44.44-.15.27-.56.18-.44-.24-.63.08-.58-.78.22-.3.72.29.37-.17zm.25-4.56-.36-.23.3-.4.33.27zm.81-.6.55-.08.2.32-.46.26zm-.9-28.6.66-.35.02.47-.42.36zm.04-2 .39-.16.07.8-.3.36-.24-.77zm-31.67-16.18.56-.47.48.64-.7.21zm3.12-.2-.11.46-.55-1.1.42-.4.46.51zm-8.63-.46-.59-.22.15-.33.68.17.4-.14.39.3zM583.5 60.2l-.13.24-.67-.8.66-.89.44.17.12.66zm39.95 130.7-.27.75.02.36-.2 1.07.01.66-.64.8-.7-.58-.82.05-.26-.86-.8.47-1.52-.61-.44.3-.36-.8-.97-.07-.4-.38-.81-.26-1.48.23-.74-.06-.21.38-.55.35.06.82-.4.03-.2-.66-.42-.15.24-.9-.13-.6-.26-.33.23-.36-.37-1.6-.58-1.35-.21-.24-1.19-2.35-2.14-3.82-3.21-5.48-1.16-1.8-2.1-3.05-2.34-3.2-1.5-2.17-.43-.72-.32-.94v-1.85l1.2-.6.6-.04.06.93-.23.13.35.81.27.01-.02-.89.53-1.11.42-.12.9-.63h.22l.88 1.7.51.23.56 1.23.1.51.36.59.87 1.13.06 1.15.33.47.52.43.36 1.06.64-.35.72.36.24-.38.64.32-.3.35.97.66.44.16.32.4-.07.45-.62.25-.31.41.1.67-.63.5-.46 1.25.47.5.54-.26.06.75.9-.34.01-.29.7-.25.4.1.26.74-.85.19.18.42h.49l.09-.36.55-.03.61.94.35-.52.5.02.06-.42-.49-.82.43-.19.4-1.91-.31-.43-1.23-.19 1.03-.6-.8-.56.31-.53 1.32-.23-.5-.28-.37-1.12-.38-.05-.12-.78.19-.65.45-.64-.37-.15-.76-1.12-.26-.74.59-.38-.04-.72-.58-.22-.08-.58.3-.6.93-.56-.11-.32.82-.5-.6-.2-.12-.7.11-.37-.49-.86.2-.6.87-.54-.7-.64-.38.13-.5-1.1.3-.54-.28-.23-.5.26-.2-.9-.45-.01-.23.25.04.64.55.64-.04.6.29.72-.4.17-.66-.26.12.6-.64-.02-.17.37.53.38-.12.77-.81-.44-.28.7-.37.13-.37-.57-1.05-1.14-.97-.52-.22-.44-.45-.17-.2.5.44.63-.77.2-.9-.29-.25.34-.62-.44-.4-.06-.36-.5.11-.38.46-.56.28-.1.36-.6-.08-.43.23-.53-.01-.54-.42-.43-.07-.68.44-.28.43-.55 1.02.26.56.78.22.59.4-.16.23-.5 1.04.58.2-.27.91-.03.58-.67 1.2-.03.16-.86.7-.42.12-.5.37-.43.52.24.1-.54.69-.45.37-.59.43-.2.6.09.8-.13-.37-.5-.28.51-.3-.15-.37-.6-.34.44-.3.02-.81.54-.16.58h-.57l-.81.7-.21.47-.82-.15-.08-.54.57-.26.21-.53-.22-.9-.32.56-.08.96-.65-.03-.46.67-.34.23-.34.6.15.82-.35-.02-.53.58-.42-.06-.56-.71-.28.59h-.36l-.28-.95-.33-.65-.36-.14-.54.25-.6-.7-.4-.78.23-.29-.15-.4.25-.32.6-.23.36-.43.44-.02.45-.32.86.97-.21.8.55-.34 1.46.3-.27-.85-.79.16-.22-.54.27-.24-.82-.7.6-.71.61-.21-.1-.39.73-.5.54.11.03-.4.63-.2-.28-.55.4-.26-.2-.53.16-.45.62-.2.33.14.35-.58-.47-.08-.66.5h-.34l-.04-.53.45-.09.74-.83-.27-.63.74.2.97-.35-.11-.57-.66.63-1.11-.01-.04.77-.4.5-.29.03-.44 1.45-.04.86-.37.62-.7.1-.63.27-.71.45-.11.46-.29.16-.3-.75.37-.19.13-1.05-.37-.05-.63.97-1.37-1.2-.1-.38-.5-.44.89-.06.01-.59-.5.1-.74-.16-.4.8-.67-.44-.37-.45.08-.89-.2-.45.31-1 .88-.9.23-.84-.36-.02-.04.54-.82.34-.44.59.06.24-.17 1.03-.38.2-.24-.55.06-.5.33-.69-.22-.4.26-.52-.45-.04-.1.83-.53.62-.14-.54h-.54l.03.48-.7.65.82.36-.77.36-.01.32.86.7.33-.62.3-.17.23.45.76.37-.41.33-.75.09-.24.68.36.04.42-.26.72.48-.1.59-.42.34.73.14.31-.33.52-.22-.12.75.7-.57.41.62-.22.17.5.59.53-.24.73.63.14.97-.47-.3-.58.01-.86.89-.38-.07-.26.52.21.31-.7.43-.53-.03-.43-.3h-.48l-.27-.37-.18-.85-.4-.28-.06-.38-.8.23-.52-.98-.34-.38-.67-.08-.55-.51-.78-1.49-.45-1.11-.7-.32-.37-.49-.54-.08-1.12.15-1.03.66-.32-.27-.62.02-.74-1.33-.37-.51-1.02-.86-1.08-.43-.37.38.29.46.69.58 1.25 1.44.15.5.88 1.43.8.14.42.2.2.57h.43l-.4 1.34.55-.48.58.48.12.44-.68.3.28.68.42-.46.3-.03.33.39-.12.48.41.02.36.3-.58.64.23.44.45-.68 1.22.23.25.56h.47l.6.54.16 1.06-.95.25-.53.44.25.29.58-.31.68.06.03.75.6.26.47.88.22.7-.25.93.3 1.02-.2.46-.68.62-1.05.63-1.15.31-1.5-.1-2.07.13-.98-.05-.87-1.38-.62-.64-.28-1.03-.18-1.05-.2-2.82-.72-1.92-1.65-3.28-1.22-2.07-2.71-4.11-2.55-3.75-3.95-5.61-2.14-2.9-2.09-2.88-2.86-3.86-1.3-1.71-1.05-1.44-2.33-3.04-.53-.62-1-.73-.66-1.43-1.32-1.77-1.64-2.05-2.22-2.68-.79-.7v-.66l-.34-.63-.32-.2-.34-.85-1.33-1.7-.54-.48-.05-.25-.8-.57-.15-.7-.46-.39.08-.7.43-.16.67-.01.17-.38-.1-.73.25-1.06.56-.2.73-1.44-.43-.46.58-.29-.12-1.3.51-.15.03-.61.22-.58-.03-.54.45-.23.09.94.22.38.5.06.33-.32-.5-.41-.05-.41-.38-.55.05-.33.9-.09.46.13v-.56l.29-.14.73.28.12.51.42.2.48.82-.12.4.51 1.01.44-.04-.51-.7v-.45l-.34-.42-.12-.57.37-.4-.18-.75.12-.38.8.5.28.63-.15.71.27.23h.6l.38.31.34-.4.04-.73.49-.13-.08-.33-.49.1-.32 1-.74-.3-.11-.94.42-.3-.05-1.02.57-.56.55.42.5-.67-.12-1.26.78-.3.77.49.61-.32.45-.42.5-.23-.22-1.06.28-.23.3-.64-.25-.72-.48 1.03-.61.08-.32.48.28.2.06.47-.6-.09-.5.16-.68-.74.04.67-.88-.25.22-.52-.42-.02-.38-.4-.34-1.04.5-.94-.42-.3-.47-1.2h-.28l-.02.72.5.88.05.39-.38.26.24.3.33.98.6.67.12.97-.16 1.17-.22.71-.76.77-.43-.11-.57-.83-.41-.04-.23.3-.7.1-.73-.14.47.76-.13.52-.53.01-.92.6-.24-.27-.65.37-.12-.4-.55-.2-.56-.82-.68 1.57-.33.32-.23-.35-.43-.2.17-.38-.4-.65-.05 1.37.4.4.54.12.53 1.07-.33.07-.61-.27-.26 1.45-.63.63.25.32-.39.82.12.56.61.37-.96.7.29 1.33-.37.54-.7.03-.61-.66-.4-.6-2.7-3.75-.7-1.12-.3-.19-.75-1.08-.09-.27-1.13-1.02-.33-.67-.75-.32.3-.55.05-1.07.5-.57.43.09.13-.45.47.07.47-.42.7-.25-.09-.53-.33-.04-.8.66h-.53l-.36.4-.33-.65 1.08-.2-.08-.72.26-.25.42-.97.46-.2-.01-.3-.57.04-.42.77-.48.63.24.68-.57.22-.58-.27-.22.39.32 1.04.23.3-.44.49-.14.94-.6.1-.1-.88-.52-.67-.22-.5-.4-.08-.27-1.03-.66-.38-.36-.78-.43-.46-.26-.54.14-.51.53.5.7-.36.52.14-.39-.76.8-.12.44-.58-.3-.28.1-.52.54-.2-.39-.36-.55.65-.01.78-.82.13.01.4-.4.5-.52.08-2.25-2.82-.55-.36-.33-.7-1.23-1.57-1.1-1.14-.69-.5-.05-.61.37-.97.6-.4.74.17.66.4.86-.09.56.53.75-.1.42-.36.84-1.02.66-1.53.3-1.25.18-1.73-.05-1.5-.24-1.5-.6-2.15-.97-2.5-1.24-2.42-.92-1.58-1.46-2.35-1.45-2.08-2.77-3.89-4.47-6.19-1.46-1.9-.59-.49-.13-.65-.46-.73-1.76-2.33-1.35-1.6-.96-.89-.9-1.09-3.43-3.32-.55-.42-.4.22-.92-.45-.15-1.38-.91-1.07-.99-.22-.63-.62-.77.1-.02-.27 1.06-.38.46-.36.28-.62.17-1.15-.2-.83.47-.1.37.16.92.03.46.6.56-.1 1.06.13.29.22.87.27 1.14.62.74.12.79-.06.9-.25.95-.53.78-.73.28-.55-.24-.48.8-.13.99.35.73-.3 1 .42.66-.08.48.45 1.36-.2.45.14.96-.5.33-.46-.3-.43.92-.2.08-.43.66-.25 1 .37.6.58.16.42-.8.13-1.03.56-.4 1.1-.15 1.84.3.45-.34.19-.07.77.27 1.71-.33.4-.75.3-.84-.05.2-1.35-.19-.37-.61.22h-.73l-.7.6-.42-.37v-.52l.48-.07-.28-.48-.5.07.03-.91-.6.23-.45-.3-.81-.04-.1.53.9.12.61.67.06.46-.3.31.11.45.5.22-.8.6v.57l-.5-.23-.58-.59-.57-.13-.86.13.2.31.63-.1.43.15.4.6-.36.09v.48h-.44l-.33-.3-.3.26-.18.63 1.26.3.5-.57.8.48.86-1.25.76-.07-.43 1.04.14.57-.82.12-.72.55.68.07.24-.33.47.3-.36.85-.21.82.35-.1.13-.4.51-.57.55-1.17.36-.1.5.3.08.4.45.48-1.7.56.95.58.19.5-.62-.02-.12.43.6-.02.35.8.07.6.48-.02.24-.48-.14-.5.54-.57-.1-.55.16-1.21-1.5-1.6-.27-.6-.05-.75.63-.38.61.19.53-.03.24.4.1 1.45.58 2.9.36 1.47.5 1.45.63 1.53 1.03 1.92.8 1.15 1.22 1.15 1.91 1.16.21.69.68.97.74.6.23.79.44.55.5-.04.42.9-.45.28-.03.57.34.56-.08.3-.6-.05-.46-.4-.2-.55-.51.07-.34-.39.1-.85-.29-.37.04-.48-.3-.4-.4-.19-.4.14-.17-.42-1.04-.51.2.58.4.24.54 1.45.53.47-.04.68.2.39.94.66.4-.33.59.26.07.75.36.69 1.21 1.14 1 .61.9.38.77.21 2.21.3.68.54-.12.8-.41.34-.16.95-.63.15-.58.56-.69.24.09.34-.34.87-.46-.01-.44.58.13.94.28.73.08.55.6.37-.37.48.35.6.58-.05-.36-.51.64-.32 1 .32.8-.07.32-.25.38.72.6-.14.3-.55.79-.25.27-.72.17-.87.65-.92-.4-1.58-.36-.8-.24-.9-.26-.17-.48-.99-.48.08-.3-1.23-.39-.27-.22-1.05.37-.27.48.23 1.59-.18 1.54-.45.68-.28.95-.66.73-1.1.01-.49-.55-.97.6-.32-.03-1.17.66 1-.04.56.37 1.3-.44.17.27.52.35.17.95-.42.94-.2.01.42-.53.27.93.62.24 1.02-.89.26-.46-.13-.15.56-1.35.82-.58.09-.3-.32-.93-.17-.49.67-.19.93.14 1.11.46 1.5.63 1.16.7.89.97.95.08.29.55.26 1.46-.05.23.4.6.22-.31.4.17.95.3-.17-.36-.77.27-.22.1-.6 1.35.24.31-.3.33.18.68-.2.98.14-.11.32.31 1-.15.3.73.22.4-.32-.07-.37.18-.53-.16-1-.43-.52-.66-.23v-.41l-.43-.2v-.4l-.26-.56.13-.47.62-.53.9-.51.07-.66.37-.25.4.86.35.15-.1.94 1.56-.78.27.37.4.14.5-.09.12.5 1.2 1.33.6.16.52-.57.72.1.08-.63.58-.24 1.01.4-.17.64.29.86.49.48-.34.64.32.4 1.22-.23 1.18.46.03.37-.46.1-.89-.46-.28.04-.16.62 1.27.24-.4 1.55-.59-.05-.1.47h-.76l-.37.51-.38.21.22.37.6.21-.24.55.37.39.01.77.98.1.39-.64.45-.13-.6-.51.23-.6-.33-.27.2-.52.54-.76.4.92.4.17-.1-.78-.35-.46.82-.34.01-.82-.4.06-.55-.21v-.35l.35-.35.38-.07.43.2.74-.4.68-.05.6-.65.24.43.7.24.64-.52.82.58-.17.48.53.3-.02.38.58.12.26-.25.62.33.52-.55.37.18.93.83-.22.6.3.32.86.45.1.71-.37-.02-.06.61.42.95.07.8.46.75.71.55.38.6.41-.05.71.37.55-.52.47.41h.74l.18-.38.5.21.77-.19.63.28.46-.36.65.15.57-.13.44 1.02.54.64.17.86.76.03.2.35.58-.1.01.45-.37.66-.44-.3-.27.42-.43.06-.35-.31-.51.45-.7.3-.21.53-.46.12-.24-.63.26-.17-.28-.78-.42-.58.31-.51-.64-.42-.1.64-.22.29-.46.07-.39-.73-.9-.58-.84.4-.36-.06-.38.58.87.44.18-.12.77.77.45.85.4-.1.28.49-.04.64-.46-.19-.27-.36-.57.04-.32.56-.86.15-.27.26.25.58.27.03.55-.32.46.33.42-.28.98-.06.38.4.44-.6.3.53.6.12.04.3-.36.53.1.43.93.48.2 1.17.3.81-.45.16-.59-.12-.1.7.93-.15.5.25.65.73.12.61.46.68.27.16.17.62-1 .73.41.08.25.31-.55.43.17.5.37.4.48 1.16.61-.37-.59-.26-.79-1.36.8-.12.21-.56-.2-.24.2-.43.61-.15.1.43-.14.74.27.08.53-.75-.24-.56.83-.3.58.02.45-.28.64.48 1.08.2.42.66-.06.69.85-.12.24-.85-.68.06-1.11-1.33.38-.34-1.14-.18-.69.3-.5-.95-.3.44-.66.65-.32.1-1.21-.02-.27-.48.32-1.5.3.18.37.55.68-.12-.15-.54-.46.02-.3-.26-.09-.56-.55-.16-.04-.52-.49-.66.38-.38.68.32.19.7 1.65.56.05.4.63.3.23-.36v-.51l.56.2.6.45.22.49.31.1.39-1.41-.31-.1.25-.81.26-.26.9.28-.49.38.06.22.8-.14 1.17-.05-.47-.78-.4.06.06-.75.75.1.2-.6-.4-.46.42-.21.41.71 1.04-.77.32-.51-.29-.57h.62l.3-.56-.74-.31.24-.4h.54l.2-.27.43.22h.47l.27-.33.57.88-.68.4-.51-.01-.51.61.21.74-.89.55-.4.71.45.22.14.71.91.08.19.44-.55.12-.28-.17-.68.47-.27 1.02.88 1.09-.04.25.5.39.6 1.15.8.65 1.78.04.2.25-1.2.22-.07.5.53.56.78.02.46 1.1-.36.18-.18.42.1.5-.9-.46.2-1.1-.42-.65-.38-.06-.5.23-.12-.87-.6.3-.6-.83-.52-.28-.27.25.56.45.26.53.56.19.07.4-.65.05-.19.38.46.19.68-.25.47.59-.05.66.48.53-.2.3.37 1.05.32.33.16.68.61-.22.32.64-.67.06-.18.57.2.43h.57l.3-.26.8-.02.09.54.76.17.73-.37.16-.33-.19-.34.61-.09-.2.88.03 1.1.48.56.64.17.22.7.02.56.23.38.82.09-.16 1.27-1.12.6.56.13.26.26-.07.7.37.47.36 1.14.61.02.18.36.6.08.36-.45.24.35-.06.47.64-.06.54.89.4.11.23.94.25.33-.55.46.33.62.19 1.3-.49.63-1.07-.88-.56.03-.35.56-1.4.04-.48.75 1.16.2-.08-.52.8-.07.41.75.35.22-.32.51-.08.5-.42.05-.13-.38-.4-.33-.41.16.06.6 1.44.1.26 1.26.5 1.52-.22.24-.8-.18-.23.59-.12.85.57-.27.05-.68h.61l1.4-.6.27.47-.93.45-.07.28.3.46-.09.86.7-.4.2-.43-.57-.84.48-.08.89-.52.03.53-.62.26.18.6.3.44-.6.4.26.33.06.5-.21.75.2.53-.28.5-.06.5.15.73.4 1.13.74 1.37.5.39.24.63-.05.42-.68.18-.6-.22-.46.28-.5-.26-1.03-.13-.04-.46.42-.06.1-.36-.3-.72-.46-.39-.88.03-.38.16-.43-.39-.06-.32.58-.22.03-.47-.3-.82-.46-.65-.51.3-.51.05-.4-.58.27-.39.57-.1-.03-.38-.43-.01-.2-.27-1 .1-.19.6-.6-.12-.39.5.66.44.03.34-.65-.12-.55-.68-.4-.3-.61-.13-.64-.95-.86-.57-.42.3.13.5-.73.51-.32-.47.46-.46.08-.42-.64-.6.35-.17-.02-.58-.62.03.03 1.88-.4-.75h-.3l-.78.54-.47.6-.02.39.73.68.5.32-.16 1 .15.45-.62.16.23.33.67.2-.5.43-.16.41-.52-.12-.56.43 1.5.28.3-.09.45-.5.42-.25.24-.41-.23-.67.44-.3.63 1.05.42-.55.54.7.94.2 1.12.05-.06.5.74-.14.03-.4.86-.69.37.6 1.02.87.22-.56.45.41.58.26-1.42 1.59-.49 1.17-.2 1.11-.5.38.35.27-.04 1.68.21 1.55.4 1.45.55 1.38-.2.35.92 1.13.58.98.33.37.5.1.69.57.47.54.75.05.26-.19.63.22.3-.34.65-.05.33.26.17 1.58.4.9-.59.19.16.71-.1.25.36.76-.26.57-.45-.05-.38-.49-.21.63.46.66.97-.67.17-.4-.03-.88-.44-.6.29-.54.99 2.3.92 1.66.81 1.3.3.62.94 1.55.96 1.25 2.42 2.69 1.43 1.12.87.1.72.63.7.07.44-.15.57.18.74.48-.23.5-.56.69-.76.72v.49l.3.63-.54.08-.34-.5-.47-.27-.69.36-.26.44.1.59-.15.35.1.66.34.84.65.3-.07-.72-.46-.71.07-.43.4-.87.19.21-.05.6.3.88.28.32.82-.14 1.1 1.07.66.37 1.31-.15.1.47-.72.41-.72-.13-.33.1-1.14.03-.2.28-.52-.3-.6.63-.48-.15-.39.48-.63-.74-.26.43.13.33-.6.09-.23.26-.37-.41-.19-.52.27-.29.13-.54-1.1-.15.17.37.1 1.12.37.26.33.51-.44.42.03.91.5.3.32.65.38.25.4-.07.5.61-.33 1.23-.4.94-.24 1.3-.56.18-.28-.68.5-.21.23-.75-.08-.49-.33-.36-.38.42-.25-.67.03-.67-.41-.4.05-.5-.4-.2.17-.77-.64.58-1.28-.95-.05.48.43.15.36.41.5.89.12.6-.94.85.34.39.67-.55.35.5-.81.32-.39.02-.58.7.34.2.86-.08-.05.73.37-.1.44.75.1.56-.27 1.05-.4.25.31.76-.63-.04.26.7-.12.84-.64-.06-.28.93.51 1.46-.11.29-.62-.21-.42-.36-.27.33.86.37.87-.1.55.81.41.2.88.73.59.03.62.25.38-.2.26-.59-.11-.48.94-.45.8-.21.63.05.36-.45.46-.2.69.12.16.43-.12 1.1-.24.26-.4-.36-.65-.04-.38-.43-.22.72.07.48-.5.36-.44-.44-1 .13-.29.81-.4.36-.47-.18-.63.63-.62-.28-.4-.52-.73-1.54-.77-.14.03.4.46.04.3.27.68 1.08.31.78.08 1.09.22.4.6-.65.18.45.13.92.23.58.46.58-.51.55-.1.63.08.57.35.66-.24.15.21.52.48.67.18.61.03.73.4.44.12.42-.17.47.2.35.8.7.47.81.38.21.19.7-.73.57-.75-.2-.21-.22.69-.36-1.11-1.1-.27-.65-.5.5-.78 1.18-.4-.08-.38.24-.43-.15-.65.3-1-.15-.23-.77-.35-.38.03-.34-.33-.32.05-.77-.69-.17-.45-.9.4-.61-.2-.14-.36.65-.67-.3-.18.18-1.44.05.38.36 1.11.4-.28.58.55.1 1.04-.24.34.72-.22.6-.24.18-1.1-.25-.17.69.08.3-.46.6-.07.67-.44.34zm.9.41-.87-.44.16-.57-.62-.16.5-.78.08-.46.4-.04.54.41.09.68-.22.32zm13.74-5.87-.3.5.33.34-.1.65-.9.56-.76.17-1.06.06-.66-.99-.47-.41.13-.79.51-.78.75-.24.83-.1.74.53.58-.05zm1.92-1.96.37.3-.04.72-.4.3.1.33-.12.8-1.35.5-.48-1.29-.19-.22.3-1.14.75-.27.22-.38-.03-.75.52.31.62.13zm.76-1.6-.04-.48.18-.84.42.15-.05 1.09zm-2.72-8.48-.31-.03-.18-.45-.43-.25.07-.57.63.28.29.48zm-1.67-14.33.2-.05.39.56.03 1.2.11.36-.58.81-.17-.35-.56-.22-.43.38-.65.1-.48-.8-.67-.32.24-.31 1.61.03-.25-.37-.72-.12-.3-.26-.5.09.66-1.35.36-.03.18-.51zm13.96-15.73-.08.25.13 1.18-.17 1.23-.5.51-1.29-.13-1-.62-.4-.4-.27-1.47.13-.66 1.02-.52.54.03.65-.7.86.24.61.7zm17.06-8.46.18.3-.39.53.2.97.2.02.53-.54.33.59-.1.72.13.24.89.25-.18.24-.56-.2-.38.56.03.8-.94.26-.2.3.24.66h.3l.46-.48.34.32.54-.35.23.5.37.3.76.18.52.48.48.08.44.45.66-.15.55.4-.52.34-.11.77-.3-.15-.32.38-.03.9-.23.23.43.6.01.36-.51.3-.11.47.17 1.05.22.4.4.22.06.6.25.24.58.13.37-.3.48.97.44.16.47.87.42.16v.47l.41.77-.3.39-.32.04-.4 1.7-.32.36-.55-.25-.93-.19-1.1-.51-.36-.04.2-.94.8.08.05-.57-.36-.8h-1.13l-.14.53-.39.21-.54-.46-.33.17-.7-.19.02-.8.15-.53-.3-.41.54-1.07-.05-.53-.44.26-.29-.14-.57.59-.4-.36-.26.2-.37-.35.34-.36-.35-.86-.49-.21.1.95-.77-.13-.86-.62-.1-.5-.6-.62-.22.05-.86-.55-.44-.16-.33.54-.26-.4-.19-1.1.07-.72.39.2.19-.62.51.43-.13.21.36.48 1.24-.07-.48-1.41.89.1-.18-1.4-.53.15-.24-.6-.42-.12.7-.61-.93-.26.01-.27-.56-.16-.58.21-.17-.95.38-.31.68.67.54-.29.95-.19.56.02-.09-.83-.69-.5-.71-1.1.29-.3.05-.53-.24-1.11.63.19.8-.27.14-.68.59-.26.36.15.6-.33.13.36.81.33zm-4.17 8.01-.17.62-.65-.24-.55-.47-.48-.89.46.04.32.28.55-.12.88.3zm9.44-3.52-.53.44-.23-.58.56-.9.87.3-.16.52zm-4.99-7.17.07.26-.56.41-.02-.55z"/>
    <path region="1" short-name="Hauraki-Waikato" long-name="Hauraki-Waikato" value="1" d="m698.75 231.7-.54.06-1.83 1.45.23.21-1.28.75.37.08.64.45h.29l.52-.36.62.54-.56 2.18-.22.06-3.03-.01v.36l-.75-.24-.8-.74-.63-1.11-1.1.96.21.73-.5.44-.15.5.22.42.64.05.22.44-.03.51.39.72-.33.67-.63.48-.14.78.57.53.08.8.65 1.26.4.96-.03.52-.42.5.46.84.6 1.67.76.44.32.68.21 1.08.28.5.6.13v.58l.4.2-.1.9 1.86 3.76-1.24 3.8 1.67 1.03-.4.33.22 1.05.46.46-.21.97.57-.21.28.13.56.66-.38.91-1.95 1.57-.67-.2-.13-.87-.7.36h-.52l-.21.54-.75.03.25-.49-.96-.36.05 1.02-.47.24-.22-.33-.59-.21-.25-.8-.3.7-1.27.03-.53-1.25-1.19-.03-.09.28-.65-.04-.78.69-.4.19-.97-1.1-.47-.07-.4.3-.87 2.65-.34-.11-.4.23-.54-.11-.16.29-.62.27-1.06.12-.48.27-1.09-.32-1.2-.12-.97-.27-.86-.1-.34-.29-.37-.9-.47-.4-1.27 2.09.84.76-.59.64.26.7-.5-.07-.32.3-.97.35-.31.32.02.7.23.26-.37.94.12.48-.27.62-.03.47-.53.33-.78.87-.6.4-.68-.52-.37.85-.1.64-.53-.45-.39.02-.7-.61h-.28l-.32.81-.42.72-.37.14-.47-.29.14-.71-.86.02-.36-.43-1.1-.51-.12-.4-.38-.25-.12-.64-1.27-.43-.56-.54-.13-.84-1.29-.04-.5-.23-.71-.07-.53-.25-.48.72-.5-.3-.04-.38-1.06.07-1.88-.41v.75l-.47-.06-.2 1.17h-1.14v-.99l-1.54-.7.9-.7-1.05-1.17-.16.4-3.38.22v-.62l-1.27-.21-.3.26-.38-.23-.61.2-.27-.45-.72.27-.13-.4-1.04-.58-.22.57-.74.33-.4.96-.5.12-.4.95.54-.16.18 1.5-1.22.15.2.7-.98.54-.52.57-.76.04-.4.34-.78.3-.71.07-.02-1.23-.65.3.05.6-.17.61-.59.6-.41.67-1.63-.04-.07-1.2.26-1.87.76-1.28.88-.71.64-.24-.03.93.55-.16.4.45.39-.98.39-.52.4-.97.27-.06.17-.7.61-.78.14-.58-.27-.19-.4-.73-.6.28-.89-.04-.7.45-.9.37v.68l.26.3-.18.6.63-.09.33.26-.14.48-.61.39-.88.26-.38.77-.33-.25-.27-1.18-.01-.45-.5-.91.1-.77.32-.32-.2-1.22-.6-2.17-.57-1.68.06-.96-.32-1 .29-.74.15-.79.6-.77.96-.54 1.04-.18.38.18.55-.31.35-.72.45-.4.94.1.73.52-.23-.9.74-.38.52.5 1.44.13.09.45.72-.13-.47-.4.26-.37 1.19.09.05.63.43-.21-.36-.69.1-.4.53.22.62.55.01-.83-1.05-.63-1.36.63-.5-.19-.41-.41.9-.63.28.32 1.06.2.44-.17.24-.51-.57-.29-.26-1.04-.3.23-.48-.35-.34.5-.58-.5-.18.67-.57.03.27.69-.28.29-.54 1.35-1.48-.76.17.38-1.02.96-.7.07-.3-.3-.34-2.4-.36-1.48-.3-.52.05-1.06-.53-1.66.05-.82-.68-1.88-.28-.36.02-.75-1.16-2.93-.32-.35-.08-2.66-.34-1.08-.8-1.83-.32-1.2-.89-2.11-.6-1.11-.27-1.12-.42-.43-.18-.44.13-.55-.25-.58.22-.58-.06-.5.34-.17v-.64l-.43-1.28v-.42l.3-.5-1.18-.9-1.5-4.03-.8-1.75-1.93-4.6-.23-.45-1.2-2.8-.6-1.22-.27-.72-.96-2.02-.65-1.2-.31-.84-.16-1.1.06-.58.46-.54.64.06.44-.26h.62l.48.28.74-.13.37.28.43-.02.56-.37.45-.53.33.36.48.18.85-.07.57.97-.26 1.08-.55.17.21.65-.2.42.66 1.38v.7l.37.8-.56.39.7.67.38.05.58.38.48.13-.08.44-.48.49.27.96v.55l.5-.05.3 1.8.73.57-.28.76-.39.33.75.4.84-.29-.41-.63-.5-1.54-.38-.46.58-.64-.46-.5v-.99l-.52-.74 1.05-.35.79.63.29.8.28-.2 1.3-.35.67.05-.04-.5-.64-.05-.42.27-1-.27-.65-.64-.22.23-1.51-.04.03-.66-.47.1-.35-.5.68-.19.7-.03.93-.24.66-.42.76-.8.55-1.1.41-.53.44-.1.71.17.02.3-.48.49.19.4.61-.7-.08-.17.74-.78.72-.14.78-.57.36-.83.48-.5.42.43.69.03.11.54h.6l.82-.68.24.68-.14 1.03.27.21.36-.1.45.9.58-.25.02-.26-.44-.53-.54-.03-.46.19-.17-.41.2-.59 1.13-.95-.12-.58v-.01l.02-.04.36-.34.26.22 1.18-.46-1.01-2.53-.28-.51.62-.3.72.25-.08-1.02h.68l.26-.2-.33-.45-.77.07-.26-1.05.23-.39-.51-.28-.24-.46.09-.57-.25-.56.3-.89.85-.47.45.24.04.52.28.68.4.26-.54-1.48.63-.55.21.17h.68l.12-.43-.33-.35.19-.68-.35-.6.4-.03.5-.33.59.1.3.29.5-.27.67-.14.5.32.68.16.47 1.29.62.32.74-.27-.05.56-.56.27-.05.59.58 1.1-.35.06.12 1.08.62-.5 1.23.33.13-.61.74-.18.67-.72.17.7.3.52.4.3.82-.22.3-.69.35.01.56-.48.7.7.8.23.2.34.5.16.13.32.96.2.05.69 1.3 1.24.58.24.2.45-.16.47.38.54-.12.37.3 1.53.17.18.38 1.29-.34.8.02.9.46.88-.33.39-.07.96-.2.33v.75l.48 1.37.4.7.1.46.7 1.4-.24.59.35.28.17.47.93.81 1.23.6 1.98.3.71-.18 1.57-.18 1.27-.6 1.2-.8.96-.52.17-.4.5-.11.29-.56.55-.6.55.18.37-.36.13-1.14-.28-.27-.2-.7-.44-.2.06-.65-.72-.77-.25-1.45.3-1.35-.06-.29.33-.63-.06-.66-.3-.34.1-.97-.21-.44-.38-1.78-.53-1.2-.02-.88-.56-.93-.7-.8-1.14-1.63-.4-.32-.63-.92-.2-.1-.53-.9.03-.34-.26-.88-.35-.4-.1-.5-.36-.87.62-.36.88.37.5-.35 1.22.25.3-.42.5-.14-.3-.56-1.27.38-.36-.42-.65.47-.28-.37.12-.62 1.1.05.51.16-.2-.66-.94.05-.64-.08.18-.56.4-.38.88-.15.24.2.74.04.52-.62.66.38.42-.63.4-.35-.08-.43.37-.48-.23-.18-.6.13-.08-.51.46-.24-.46-.6-.48.02-.22-.7-.45-.12.26-1.18-.8-.06-.16-.6-.32-.06-.5.45-.33-.03-.6-.9-.14-1.25.11-.75.48-.82.13-.73.23-.24-.15-1.45-.17-.25-.15-1.07.93.28 1.02-.58-.36-.66-.5.29-.44-.08-.43-.47-.8-.16-.06-.45-.32-.6-.75-.53-.15-.28-.66-.35-.3.03-.44-.45-1.03-.35-.33-.54-.73-.25-.2-.67-.46-.55-.02-.45-.38-.75.19-.6.01-1.14-.22-.43.3-.62.41.28.58-.48.11-.53h.95l1.45.4.6-.33.56-.02-.13.54.37.87.38.15.13.36-.1.66.72-.29.55.19.75 1.25 1.02.63-.43-1.43 1.15-.22.89.82.49 1 .39.43.6-.08.3.3-.18.62-.72.12.3.44.2.62-.29.07.24.87-.4.6.53.77.41.2.66-.08.5-.4.27 1.07.66.08.38.47.17.51-.7 1.29.1.72.66.59-.45.53-.39-.22-.68-.1-.18 1.18.63.35.57-.06.27-.54.52.3.93.03.15.3-.18.58.35.33-.18.41.32.38.8.51-.57.16-.3 1.04-.36.83.12.73.37-.23.55-.05.15.53.85.3.32-.2-.45-.71-.13-.47.34-.22 1.1.29.87-.38-.26-.32-.61.08-.93-.17-.54-.8 1.7.3 1.53-.07.96-.11 1.08-.4-.06-.25.6-.72 1.19.07 1.17-.66.26-.51.35.14v.9l.43.74.3.28.64.07.35-.13.12.81.25.49-.4.1-.77-.06-.16.23-.68-.04-.2.45-1.12.48-1.05.77-.16 1.08.05.74-.45.3-.78-.1-.32 1.05-.8-.23-.33.18-.03.86.17.57.29.34-.19.5-.55.46-.29-.02-1-.7-.21.3v.79l.43.27.44-.49.01 1.04-.69.76-.01.56.74-.27.37.46-.03.5.57.25.37-.1-.14-.48.62-.82-.67-.33-.43-.4.36-.28-.21-.56.38-.28.36-.54-.09-.72.65.11.16-.33 1 .66.83-.06-.06.99.4.32.32-.35-.52-.2.12-.7-.2-.3.14-.62.57-.27.37.27.48-.02.49.6 1.37.9.1.75.54.56-.25.52-.4.23.34 1.03.47.09.38.7-.07.47.51.5.1.4.47.36.04 1.45-.65.28-.22.46.13.8.69.9.01.84.44.59-.8.41.09.42-.53 1.05-.7.43.04.66.47.3.22-.71.46-.15.33-.76-.11-.48.57-.46.5 1.43.63.18.21 1-.15.56.21.22.21.84-.33 1.18-.04.97.1.94-.36-.09-.6.27-.44.48.01.84.45-.53.09-.48.44-.22.42.16.22.55-.37.4-.35 1.28.3.9-.2.27.14 1 .28 1.06.24.38-.43.56-.94-1.34-.02-.74-.3-.54-.28-.15-.27.6.3.62-.22.13.19.61.4.28.53.1.26.25-.12.53.48.75-.3.89h.33l.28.62.26.1-.17.68.55 2.08.32.68.35.16.1.8.59.76.07.77.83 1.47.15.61-.3.42-.06 1.7.26.82-.19.2.58 1.3zm-28.93-45.27-.49-.13-.05-.9 1-.33-.25 1zm19.65-14.1.14.22-.29.53 1.23.73.9.19.52 1-.3.37-.56.25-.55-.12-.64.17-.95-.38.15-.46.12-1.13-.31-.63-.55-.36-.38.42-.43-.22-.44-1.08.78.02 1.35-.53-.23 1.13zm-1.55-10.95-.18-.57.53-.26.63.79zm10.3 43.9-.11.45-.5-.6.32-.98.84.79zm-3.6-29.78.54.34-.26.26zm2.78-.61L697 174l.86-.03.06.8z"/>
    <path region="4" short-name="Te Tai Hau훮uru" long-name="Te Tai Hau훮uru" value="1" d="m630.88 504.09-.04-.3.5-.82.65-.13-.04.84-.35.27zm9.55-19.22-.13.71-.55.51-.44.63-.4.2-.51.76-.87.7h-.63l-.4-.37.04-.68.85-.64.54-.87.43-.13.8-1.21.09-.58.38-.6.81-.19.43.13.52.46-.48.27zm-2.89-207.66.52-.57.98-.54-.2-.7 1.22-.15-.18-1.5-.54.16.4-.95.5-.12.4-.96.74-.33.22-.57 1.04.59.13.39.72-.27.27.44.61-.19.38.23.3-.26 1.28.2v.63l3.37-.22.16-.4 1.06 1.17-.91.7 1.54.7v1l1.15-.01.19-1.17.48.06v-.75l1.87.4 1.06-.06.04.39.5.29.48-.72.53.25.72.06.5.24 1.28.04.13.84.56.54 1.27.43.12.64.38.26.13.39 1.09.51.36.43.86-.02-.14.71.47.29.37-.14.42-.72.32-.81h.28l.7.6h.4l.52.44.1-.64.37-.85.69.53.6-.42.77-.86.53-.33.03-.47.27-.62-.12-.48.37-.94-.23-.26-.02-.7.31-.32.97-.36.32-.3.5.08-.26-.7.59-.64-.84-.76 1.27-2.09.47.4.37.9.34.29.86.1.96.27 1.21.12 1.1.32.47-.27 1.06-.12.62-.27.16-.3.54.12.4-.24.34.12.88-2.65.39-.3.46.08.98 1.09.4-.19.78-.7.65.05.09-.28 1.19.03.53 1.25 1.28-.03.29-.7.25.8.6.21.2.33.49-.24-.06-1.02.96.36-.25.49.75-.03.2-.55h.54l.7-.35.12.86.67.21 1.95-1.57.22.28 1.1.58-1.74.66-.34.48.48 2 .57.77.38-.13.34.4-.02 1.1.68.2 1.43.2.84.52.69.78 1.3.87.27.38-.32.74-2.06 4.29-.9 1.97-.35.63-1 .51.16.25 2.05.02.6-.22v2h1.59v-.18h1.75l.1.2h1.12l2.3 3.74-1.7 3.63.5.39-1.18.19.3.33.75.13.62.45-.13.53-.52.97-.5.4-.52-.06-.87.3-.25.3-.86.36-.63.62-.01.35-.77 1-1.13.76-.36.12.43 1.02-.07.51.73-.1 1.2.82.3.66.36.2.77-.1.47.41 1.26.07.63.88.13.52.37.4.23.95-.06.32-.57.04v.68l-.97.07-2.34 3.22-1.4-.12-.18 1.13.32.65-.5.89.06.75-.26.25h-1.04l-.54.15-1.4-.17-.24.39-.41-.47-.43.09-1.1.52-.53.41v.47l-.6 2.53-.89.34-1.71 2.4.01.97-.34.42-.3.8-.33-.16.07-.9-.3-.19-1.16-.08-1.15.57-.4 1.07-.49-.23-.66.13-.26-.4-.96.23-.44 1.16.11.79-.52.4-.23.49-.47.29-.45 1 .05.5-1.11.68-.71-.36-.83.07-.27-.28-1.15-.17-.38-.34-.59.2-.82.05-.57.3-.95.28-.42.62-1.27.44-.11.16-1.31.3-1.1 1.01.15.92.67-.43.59 1.06.63.93.14 1.07-.9.57-.06.35-.8 1.21-.09.41.25.54.66.85v.48l1.1 1.47-.22.57-.6.92-.04.56-.62 1.34.3 1.03.33.13-.14 1.06 2.5-.37 1.19-.57.82.46 2.34-.04-.55.82-1.4 1.74-.03 1.05-.67 1.23-1.01.23-.19.5.55.35-.42 1.1.05.47 1.11.66.3 1.05-.31 1.83 1.48.2.24.45 1.62 1.75.69.12 1.14 1.05 2.05.26.68.25.65-.1.03.55.24.8-1.07.86-.08.61.44.14.04.44.42-.01.1.38-.42.42-.77 1.07-.27 1.05-1.1.67-.15 1.14.61-.35.78.27.24.26.6-.12.62.47 1.25.05.92-.84.42-.9.38-.46 1.2-.34.31-.52-.7-.52-.1-.36 1.35-.9.81-.84.05-.56-.43-.76.7-.13.23-.28.79-.16.2-.57.78-.2 1.3-.1.5-.49.17-.76-.2-.74.44-.13.25-.57 3.9.5 1.92-.06.2.1.9-.22.28-.2.58.03.26-.37 1.05-.3.06-.23.67-.4.42.28.42-.14.82.56.03.98.13.2.2 1.39-.15.45.9 1-.12.87.14.77.28.41 1.06.39.21.32.45-.25 1.03.17.05.23.9.31.65-.13.75.47-.02 1 .34.51.3 1.42.26.44-.35 1-1.09.52-.15 1.1-.77.81.1.79.34.3-.05.41.52.01.65.34.11-.36.56-.1.11.56.45.46.95-.12.22 1.15-.71.33.21.67-.24.62-.56.91-.07.94-.36.46.34.26.26 1.35-.32.42.54 1.07.1.54-.16.8.52-.26v-.39l.72.14-.26.5.03.53-.57-.19-.05.37-.53.04-.35-.24-1-.07-.6.31-.48-.03-.07.37h-.75l-.62.88-.45.1-.17.41-.86.23-.53-.03-.63.98-.12.83-.48.16-.37.81-.95.91-1.37.14.58 1.02.5.34.69-.06.31.24.13.87-.93 2.36 1.77 1.11.29.7-.96.8-.2 2.04-.67.51.45 1.95-2.23 5.96-.17 2-.47.8-.55 1.9.55.35-.04 1-1.1.92.49.91-.33.93.82.46-.4.73.23.35-.28.54-.75.57-.09.53-.82 1.7-.35.2-.26.49.04.87-.18.6.4.9-.6.94-1.44.92-.72.55-.95 1.96-.76.65-.9 1-.47 1.07-1.25 1.02-1.1-.06-.53 1.38h-.6l-1.17.83v.6l-.3.65-1.1 1.11-.26.85.17.46-.33.28.03.64-.5.66-.97-.63-.8 1.2v-1.12h-.71v1.77l-.58-.41-1.94 3.04.56.42.56.16-.38 1.43-.46.55.15.28-.29.9-.5.33-.26.45-.03.58-.48.34-.35.7-.7.33v.48l-.36.26-.26 1.72-.59.5.15.51-1.46 2.1-.36.08-3.3 3.27-5.16 8.22-3.15 4.97-1.88 3.06-.46 1.44-.75.07-.22.26-1 .27-.67.74-.03.4-.49.84-.22.12-.27 1.07.06 1.13-1 .25-.33 1.1.22.56-.13.32.1 1.16.19.58.03.89-.42 1.47-.4.48-.5.09-.25 1.06-.9.3-.4.57-.63.04-.9.65-.81.35.66 1.02-.07.37-1.12 1.01-.86.1-.4-.2-.32.27-.56-.09-.42-.43-.54.24-.21.7-.35.09-.59-.76-.28.25-.48-.14-.18-.42-.62.24-.86-.31h-.59l-.3-1.16-1.01.27.16.3-1.3.34.4 1.59h-1.4l-.41-.68-.31-.23-1.27 4.97.26.76h.62l.02 1.24-.21.31.13.52h-1.55v.73l.29.27.22.91-.06.27-.96.06-.47.27-.05.6-1.05.12-.62 1.5-.87.96-.74-.2-.19.61-1.86-.45-.47.2-.49-.13-1.37 2.33-.56.8.1.29-3.12-.35-.07-.71-.9-.64-.09-.53.58-1.1-.82-.43-.17.33-.54-.3.5-.57.52-.97.53-.32-.08-.41.5-.16.73-.49.83-.86.63-.35.64.38.1.37-.5.87-.6.25-.4.78.37.32.86-.98.47-.84.74-.17.09.25.82-.12 1.12.05.15-.3-1.45-1.1-.6.23-.64.57-.48-1.46-.66-.89-.65-.09-.01-.3.52-1.03.87-.42.55-.93.9-.12.52.07 1.21-1.14.49-.67.63-.37 1.18-2.04.54-1.35.23-.8.3-2.26-.03-1.4.16-.68.33-.58.73-.3.36-.4 1.4-1.12.82-.97.91-1.42 1.37-2.67.97-2.18 1.32-2.85 1.06-2.6.97-2.72.03-.3.87-2.93 1.1-4.25.4-1.84.27-1.54.17-1.46.6-1.08-.31-.28.44-3.08.26-2.48.12-2.36.01-1.8-.1-2.01-.43-3.75-.41-2.87-.37-2.05-.35-1.6-.45-1.46-.93-2.4-1.15-2.3-.7-1.08-.98-1.35-1.42-1.62-.79-1.3-.82-1.13-1.46-1.78-.94-1.06-1.46-1.19-.96-.63-.4-.04-1.02-1.66-.62-.7-1.09-.99-.9-.68-1.5-.84-1.27-.58-2.2-.65-.5-.05-1.28-.5-.79-.08-.7.45-.77.18-.79-.03-.3.17-.97.06-1.15-.47-1.1-.89-2.16-1.16-.53-.04-1.65-.74-.76-.09-1.08-.47h-1.06l-1.35-.95-1.28-1.57-.48-.33-1.04-.43-.4-.41-.84-.37-1.21-.9-1.5-1.5-.73-1.07-1.02-1.16-.43-.86-.58-.73-.9-1.4-1-1.01-1.7-1.03-.53-.52-1.05-.47-1.1-.14-.72-.48-.76-.7-.44-.14-.75-.56-.93-.44-1.4-.14h-.8l-.58-.3-1.1-.16-1.55.01-.82-.22-.73.1-1.38-1.03-.98-.33-1.2-.16-.53-.32-1.01.11-1.26-.9-.84-.26-.5-.73-1.02-.7-.77-.1-.38-.98-.5-.44-.35-.63-.43-.32-.7-1.02-.24-.52-.39-.05-.16-.5-.4.08-.11-.43-.45-.49h-.44v-.47l-.61-.68-.84-.76-.52-.24-1.02-2.28-.06-.52-.39-1 .04-.95-.25-1.15-.46-1.36-.28-2.11-.2-.75.1-.74.23-.44 1.02-1.55.05-.73-.14-.3.29-.64-.04-.42.41-.42.55-1.34.47-.45.63-.34.34-.74.71-.26.79-1.05.51-.26.69-.58.51-.15.42-.42.83-.27.77-.82 1.71-.2.42-.17 1.16-.95.64-.3.65-.65.86-.4.6-.86.2-.79.54-.52.76.43 1.2-.41.5.07.64-.42.79-.3.42-.65.9-.41.98-.96.56.01.49-.18.98-.87.35-.6.74-.23.48-.38 1.12.06.84-.15.48-.29 1.34.29.99-.05.98-.26h.67l.63.54.74.25.72.03 1.32-.31 1.51-.18.4-.23 1.27-1.14.71-.46.24-.56 1.71-2.2.2-.5 1.2-1.55.6-.53.5.2.6-.55.72-.87.59-.56.56-.76 1.2-2.65.57-1.46.3-1.5.6-2.4.18-2.5.34-.72.13-2.32.27-3.24.27-1.51.21-2.55-.04-.77.15-.6.11-1.54-.21-2.14.36-.68-.04-1.1.22-.3.23-.94-.2-1.02.07-1.45-.17-.85.04-.5-.3-1.7 1.15-.07.52-1.2-.02-.4.51-.6.45-.27.31-.44.69-1.32.68-.35-.04-.31.34-.89-.1-1.08.15-.28v-.97l-.14-1.7-.28-1.73.4-.37-.11-1.24-.22-1.12-.65-2.43-.48-1.6-.39-.84-.16-.64.4-.43.21.65 2.47.44.96-.8.31-.13.47-.7.33-.98.31.41-.28.3-.12.95.52.39-.16.89.71.38.23-.25.4.37.02-.92.45.05.31 1.14.8.25.2 1.05.36-1.07-.13-.42.9-.5-.77-.37-.37.24-.6.1.14-.57.54-.3-.1-.64.72-.37.63.08.36-.23.47.02.16-.45 1.14-.31.37-.34.46.31.25-.69-.03-.36h-.54l-.33.22-.67-.1-.2-.24.4-.4.6.5.48-.69-.67-.71-.68-.26z"/>
    <path region="2" short-name="Ikaroa-R훮whiti" long-name="Ikaroa-R훮whiti" value="1" d="M635.3 524.14v-.02l.06-.14v-.02l.17-.56.06-.1.12-.25v-.02l.43-1.02.4-.39.03-.03.1-.6.43-.24.03-.06.12-.2.02-.02h.01l.01-.01 1.4.18.6-1.06.65-2.06-.28-.64-.1-1.24.36-.97.89-1.27.15-.51-.5-1.13-.42-.38-1.1.61-1.48 1.12-.84-.25-.06-.29-.52-.4.37-.75-.1-.28.56-.81 1.37-2.33.49.12.47-.2 1.86.47.2-.62.73.2.87-.96.62-1.5 1.05-.11.05-.6.47-.28.96-.06.06-.26-.22-.92-.29-.27v-.73h1.55l-.13-.52.21-.31-.02-1.25-.62.01-.26-.76 1.27-4.96.31.22.4.68h1.42l-.4-1.59 1.3-.33-.17-.31 1.01-.26.3 1.15h.59l.86.31.62-.24.18.42.48.14.28-.25.6.76.34-.1.21-.7.54-.23.42.43.56.1.32-.27.4.19.86-.1 1.12-1 .07-.38-.66-1.02.8-.35.91-.65.62-.03.41-.58.9-.3.26-1.06.5-.09.39-.48.42-1.47-.03-.89-.2-.58-.1-1.16.14-.31-.22-.57.33-1.1 1-.25-.06-1.13.27-1.07.22-.12.5-.84.02-.4.66-.74 1-.26.23-.26.75-.08.46-1.44 1.88-3.06 3.15-4.97 5.16-8.21 3.3-3.28.36-.09 1.46-2.09-.15-.51.6-.5.25-1.72.37-.26v-.48l.69-.33.35-.7.48-.34.03-.58.26-.45.5-.33.29-.9-.15-.28.46-.55.38-1.42-.56-.17-.56-.42 1.94-3.04.58.41v-1.77h.7l.01 1.11.8-1.2.97.64.5-.66-.03-.64.33-.28-.17-.46.26-.85 1.1-1.1.3-.66v-.6l1.17-.84h.6l.54-1.37 1.09.06 1.25-1.02.48-1.07.9-1 .75-.65.95-1.96.72-.55 1.44-.92.6-.94-.4-.9.18-.6-.04-.87.26-.48.35-.2.82-1.7.1-.54.74-.57.28-.53-.23-.36.4-.73-.82-.45.33-.94-.5-.9 1.1-.94.05-.99-.55-.35.55-1.9.47-.8.17-2 2.23-5.96-.45-1.95.66-.51.21-2.03.96-.8-.29-.71-1.77-1.11.93-2.36-.13-.87-.31-.24-.7.06-.5-.34-.57-1.01 1.37-.15.95-.9.37-.82.48-.15.12-.84.63-.98.53.03.86-.23.17-.4.45-.11.62-.87.75-.01.07-.37.48.04.6-.31 1 .06.35.24.53-.04.05-.37.57.19-.03-.53.26-.5-.72-.14v.4l-.52.25.15-.8-.1-.54-.53-1.07.32-.42-.26-1.35-.34-.26.36-.46.07-.94.56-.9.24-.63-.21-.67.71-.33-.22-1.15-.95.12-.45-.46-.1-.56-.57.1-.1.36-.66-.33-.52-.01.05-.42-.34-.3-.1-.79.77-.81.15-1.1 1.09-.53.35-.99-.27-.44-.29-1.42-.34-.51.02-1-.75-.47-.65.13-.9-.31-.05-.22-1.03-.18-.45.26-.21-.33-1.06-.38-.28-.42-.14-.77.12-.86-.9-1.01.14-.45-.2-1.39-.12-.2-.03-.98.49-.76-.12-.31 1.45-.79 1.37-1.06.08-.49 6.15 5.57 3.07-.82-.46-1.2.05-.68-.59-.15-.23-.28 2.54-1.07 1.53.33-1.34-4.35 1.67-4.45 5.6.01-.33-.3 3.97.04.15-.65-.45-.35.06-.3-.37-.84.13-.39-.3-.65.1-1.62 5.7-5.7.36-.82-.23-.49.22-.76-.46-.45.04-.66 4.9-1.72 1.33 1.89 3.47 1.04.52.6 1.31.67 1.22-.06 2.75.07.2-.36 2.19.02 1.7-1.43.68.09.73-.27.23-.34 1.52-1.32.54.64-.02.72.24.5 1.1.04.53.8.66-.43-.01.74 1.2.02-.2.36.42.6.31.07-.04.54 1.01-.07.52 1.18.45.23.75-.06.33.33.6-.54-.1-1 .85-.85.4-.98.4-.24.55-.02.82-.27.3-.81-.27-.56.29-.8-.38-.38-.2-.56-.48-.54.28-1.08.78-.4-.16-.46-2.56-.25.21-2.3.3-.5.45-.29.44-.51.67-.52.25-.66-.29-1.58.44-.71.9.47.1-4.6 2.54 2.02-.37-7.93 3.02.35-.62-.63 2.87-2.82.63.03.45.2.62-.73.55.31.85.03.48-.2.49-.97.3-1.2.59-.51-1.14-1.8-1.52-2.25.38-.19-1.81-2.71.55-.3 1.3-2.72-.12-1.6.47-.88-.21-.3.07-.72-.47-.56.58-.1.21-1.22.17-.27.78-.11.3-.2.92.27.02-.67h1.53l-.23-.33.97-.88.6.07.47-.3.74-.21-.14-1.13.87-.03.58-.72.84.21.64-.38-.14-1.3.22-.67.33-.07.51-1.25.48.09.61-.36.5-.65-.36-.38-.33-.92.37-1.23.32-.22-.47-1.3-.38-.6-.1-.48-.37-.4-.06-.42.38-.28.58-.1.57.57 1.4.07.9 1.4 1.87 1.3 4.38 3.75.39-.28.3.31.37-.98.49-1.57 2.34-6.93 3.18-9.92 5.78-5.91-1.96-2.21-2.54 2.26.11-.3-.24-.52-.76-.58-.13-.27.13-.79.46-.38.34-.66-.23-.1-.23-.8.57-.65-.13-.75.11-.72-.16-.44-.12-1.7-.38-.26-.02-.37-.42-.4.27-1.26.38-.32 2.2-.28.5-.17.35-.36 3.88.08-.53-.92-.53-2.52-.21-.62.98.17.47.22.5-.08.85.25.18-.25.87.36.87-.05.05-.64.38-.57.45.32.4-.31.4.19.64-.17.43.2.03.68 1.48.2h1l.72.14.35.22.73-.08.61.16.77.03.41.34-.27.4-.52.18-.85.08v.83l.45 1.03.91-.18.32.84 1.06 1.05.67.48.9.43.72-.22 1.55.25.44-.2 1.48.51.46.29.62.08.74-.25.56.2.43.73 1.59 1.33.38.23.62.01.3.2.55 1.23-.36.7-.42.32-.68.9-.07 1.06-.36.33-.17.5-.67.56-1.22 1.97-.08.25-1 1.13-.87 1.54-.04.43.25.54-.76.73-.27.01-.99 1.05-.44.6-.27 1.51.06.38-.35 1.1-.44.6-.01 1.26.47.6-.46 1.48-.67.26-.23.27-.2.84-1.13.66-.64 1.01-.36 1.29.02.82.26.44.93.8.8-.06-.1.86-.34.5.58.35-.04 1.13.11.49-.43.36-.4.76-.3-.26-.74.21-.91.72-.4.8-.03.68.34.9 1.35 1.41.46.35.06.46-.23.35-.77.36-.26.8-.08 1.33-.38-.12-.42.2-.36.46-.06.81.38.57.4.24.07.36.43.44-.2.85.16.55.35.4.82-.06.38.26-.44.5-1.08.2-.38.48-.22.75.48.47.04.7-.45.24.32 1.23-1.33.76v.79l-.4.18.7.58.4-.01.95-.37.26.12.03.73-.23.4.02.8.47.99-.69.48-.49.06-.7.51-.7.84-.56 1.18-.05.45-.45.4-.04.5.27.59.02.82-.15.32.12.77.5.68-.08.44-.5.14-.17.62-.76.06-.29.6-1.43.77-.27.32-.04.67-1.15.57-.66.84-.07 1.03-.65.16-.47.36-.17.66-.32.53-.66.03-.19.47-.44.39-.34.92-.72-.24-.35.09-.9.58-.2.48-.77.36-.93 1.05-.47 1.53-.2-.33-.98-.3-.46-.83-.76-.43-.32-.61-.95-.07-1.4.6-1.21.99-.9 1.33-.24.09.12.72-.17 1.12.2 1.18.51.15.53-.13.51.12-1 .77-.02.3-1.46 1.96-.28 1.02.21.76-.38.2-.32.72.1.5-.11.78.4.89-.08.8-.7.85-.07.42.37 1.17-.02 1.4-.31.36-.09.93.11.45-.46 1.2.18.63-.3 1.73-.06.84-.38.52.02.9.18 1.15.35 1.24-.4.36.61.57.48.23.3.6 1.78.85.75-.48.4.58.84.03.86.3.45.3-.04.5-.3.38-.98.67-.3.33-1.03.52-.6 1.28-.47.22-.74.95.08 1-.72 2.19-.39.9-.73.7-.87 1.09-.42.76-.37.2-.18-.45.13-.83-.35-.85-.31-.3-.06-1.4-.55-2.15-.74-.94-.24-.49.71-.64.26-.73-.1-.33.4-.3.43-.88.03-.59.33-.34-.09-.66.5-.3-.08-.9.39-.43-.63-.95-.64-.46-.95-.17-.4 1.18-.6-.07-.58-.37-.79-.26-2.78-.61-1.4-.23-2.13-.2-1.56-.06-2.5.08-2.96.17-2.89.03-1.97.14-3.08.48-1.96.42-2.5.71-2.57.84-1.55.59-2.59 1.13-3.96 1.84-2.48 1.36-2.26 1.51-1.48 1.14-.63.74-.16 1.1-.07 1.5-.73.7-.2 1.06-.46.67-.8.9-.24.64-.5.63-.32.06-.7 1.02-.31.05-.56.54-.54 1-1 .1-.32.4-1.04 1.84-.59 1.52-.53 1.65-.3 1.3-.16 1.86.21.94.47.9-.59.46.66.43.83-.75.62-.11.38-.3.24.28-.15 2.88.04 1.17.23 1.8.45 1.44.67 1.48.94 1.68.64.72.62.4.34-.06.77.55.52.05.45.42.72.3 1.29-.44h.4l.84-.5 1.1.77-.72 1.07-.21.8-1.06 1.1-.75.63-.55.7-1.2 2.07-.36 1.4-.07 1.39-.43.98-.32 1.13-.04.99.26 1.15.32.67-.71.86-.65 1.16.07.3-.67.75-.3.65-.18.86.1.47-.26.63-.62.8-.54.33-.55 1.41-.1.96-.64.85-.44.91-.08.82-.3 1.07-.34.43-.45.94-.45 1.6-.02.82.26.72.56.55-.48.95-.85.7-.07.6.22 1.17-.24.78-.32.35-1.04.53.04.7-.45.69-.62.53-.27 1.1-.48.6-1.18 1.12-.38.93-.34-.07-1.03.28-1.18.56-1.6 1.17-.77.84-1.13 1.44-.79 1.85-.06 1.2.33.48-1.16 2.29-.2 1.22-.28.42-.48 1.18-.07.66.1.63-.74 1.44-.02 1.35.55.69-.28.59.03 1.02-.29.61-.06.6-.64.23-.26-.18-2.34.32-1.1.47-1.9 1.28-1.15.93-.8 1-.41.98-.08 1.09-.65.62-.45.63-1.2.8-.6.54-.33.74.02.52-.9.5-.7 1-.17.73-.34.24-.1.96-.67.7-.75.19-.2.53-.38.44-1.05.9-.78.97v.4l-.37.82-.51.54-.33.59.1.57-.2.74-1.13 1.47-.1.8-.4.8-.12.73.05.7-.2.57-.56 1.05.04.36-.25.73-.7.72-.44 1.14.03 1.02.39.3-.46.33.08.3-.75.08-.96 1-.42.16-.69.82-.69.54-.84 1.04-.73 1.65.02.5-.24.8-.85 1.09-.43.32-.02.8-.19.35.06.65-.35.23-.16 1.15-.36.58-.25 1.13-.38.37-.44.9-.01 1.05-.27.56.12.28-.28.7-.38.14-.67.83-1.24.93-1.06 1.1-.56 1.03-.18.84.05.5-.32.3-.1.81-.75.85-.43 1.04v.33l-1.03.15-1.97.82-.99.64-1.48 1.57-.08 1.15-.24 1.15-.85.57-1.2 1.64-.47.3-.15.4-.48.54-.91.15-.6.33-.73.18-.03.4-1.47 1.24-.98.2-.91.84-.72.02-.5.22-.2.4-.49-.02-.4.36-.4.76-.25.1-.59.98-.3.04-.35.52-.84.78-.47.11-.35.4-.23.6-.6.34-.47.65-.72.05-.78.43-.73.18h-.75l-.12.63-.78.1-.6.42-.26.74-.64.85-.66.36-.2.4-.73.8-.36.02-.89 1.05-.51.2-.75-.16-2.25.14-.83.29-1.13 1.6-.58.17-.62.81-.93.14-1.1.45-.27-.22-.63.1-.54-.57-1.04-.13-.54.32-.32-1.24.15-.37-.47-.4-.29-1.56.03-.47-.34-1.28-1.2-.89.04-.26.75-1.81-.05-1.9.61-.96.18-.69-.3-.83.02-.79-.96-.84-2.36-1.28-1.77-.86-1.53-.6-3.21-.9-.76.58-.56.26-.42.43-.79.03-.75.36-.38.66-1 .47-2.52 2.15-.3-.03-.65-1.32-.91-.44-1.12-.35-.11-.67.47-.58.1-.39-.5-.83-.45-.4zm173.16-156.2.28.34-.2 1.2-.32-.12.07-1.31z"/>
  </g>
</svg>
