<svg defaultMode="split" candidates="[{&quot;id&quot;:&quot;0&quot;, &quot;name&quot;:&quot;Donald Trump&quot;, &quot;margins&quot;: [{ &quot;color&quot;: &quot;#283681&quot; }]}, {&quot;id&quot;:&quot;1&quot;, &quot;name&quot;:&quot;Nikky Haley&quot;, &quot;margins&quot;: [{ &quot;color&quot;: &quot;#CE5E13&quot; }]},{&quot;id&quot;:&quot;1&quot;, &quot;name&quot;:&quot;Vivek Ramaswamy&quot;, &quot;margins&quot;: [{ &quot;color&quot;: &quot;#C79E36&quot; }]},{&quot;id&quot;:&quot;1&quot;, &quot;name&quot;:&quot;Larry Elder&quot;, &quot;margins&quot;: [{ &quot;color&quot;: &quot;#11A279&quot; }]},{&quot;id&quot;:&quot;2&quot;, &quot;name&quot;:&quot;Asa Hutchinson&quot;, &quot;margins&quot;: [{ &quot;color&quot;: &quot;#A526A5&quot; }]}]" version="1.1" width="1000" height="600" xmlns="http://www.w3.org/2000/svg">
  <g class="regions">
    <path d="m716.3 361.53-44.7 3.91c.28.6.92 1.1 1 1.77l-1.3 66.87 4.31 32.59c.58-.5 1.34-.13 2.02-.16.42.47 1.16.52 1.29-.2.5-1.04 1.14-2.05 1.58-3.1.05-.77-.1-1.63.07-2.34l1.32-1.33c.6.28 1.39.35 1.86.78l3.45 6.48c-.1.5.26 1.23-.35 1.45l-1.76 1.17a11.2 11.2 0 0 0 3.43-.74c1.36-.5 2.83-.76 4.09-1.52l.38-6.93c-.4-.56-.76-1.18-1.49-1.3a2.79 2.79 0 0 1-1.6-1.13l-2.03-2.27.58-3.4 48.62-5.07c-.3-.78-.34-1.7-1.1-2.2-.53-.52-1.1-1-1.22-1.78-.5-.97-.04-2.07-.04-3.1.1-1.33.32-2.69.34-4l-2.37-5.63c.39-1.75.65-3.5.73-5.3 0-.73.12-1.43.6-2.03l1.66-2.89c.07-.75-.5-1.04-1.09-1.33-.62-.23-.96-.61-.79-1.3-.04-.82.1-1.73-.06-2.5-.76-.88-1.76-1.59-2.13-2.73-.84-1.85-1.82-3.66-2.57-5.55z" long-name="Alabama" region="AL" short-name="AL" value="49"/>
    <path d="m164.6 432.4-4.5 3.1h-3.9l.4-.9-1.8-.1-5.2 3.4h-1.8l-.6-.8-2.7 1.5-3.6 3.7-2.8 2.7-1.5 1.2-2.6.1-2.2-.4-2.3-1.3-2.8 3.9-.1 2.4 2.6 2.4 2.1 4.5.2 5.3 2.9 2 3.4.4.7.8-1.5 2.3.7 2.7-1.7-2.6v-2.4l-1.5-.3.1 1.2.7 2.1 2.9 3.7h-1.4l-2.2 1.1-6.2-2.5-.1-2 1.4-1.3v-1.4l-2.1-.5-2.3.2-4.8.2 1.5 2.3-1.9-1.8-8.4 1.2-.8 1.5 4.9 4.7-.8 1.4-.3 2-.7.8-.1 1.9 4.4 3.6 4.1.2 4.6 1.9h2l.8-.6 3.8.1.1-.8 1.2 1.1.1 2-2.5-.1.1 3.3.5 3.2-2.9 2.7-1.9-.1-2-.8-1 .1-3.1 2.1-1.7.2-1.4-2.8H116l-2.2 2-.5 1.8-3.3 1.8-5.3 4.3-.3 3.1.7 2.2 1 1.2 1-.4.9 1-.8.6-1.5.9 1.1 1.5-2.6 1.1.8 2.2 1.7 2.3.8 4.1 4 1.5 2.6-.8 1.7-1.1.5 2.1.3 4.4-1.9 1.4v4.4l-.6.9h-1.7l1.7 1.2 2.1-.1.4-1 4.6-.6 2 2.6 1.3-.7 1.3 5.1 1 .5 1-.7.1-2.4.9-1 .7 1.1.2 1.6 1.6.4 4.7-1.2.2 1.2-2 1.1-1.6 1.7-2.8 7-4.3 2-1.4 1.5-.3 1.4-1-.6-9.3 3.3-1.8 4.1-1.3-.4.5-1.1-1.5-1.4-3.5-.2-5.3 3.2-2.2 1.3h-2.3l-.5 2.4 1.7-.1-.4-1.4 1.2.2.1 1.4h1.8l.4-2.5.3 2.4 2.5-.1 3.2-3.3.8.1-.7 1.3 1.4.9 4.2-.2 2.6-1.2 1.4-.1.3 1.5.6-.5.4-1.4 5.9.2 1.9-1.6-1.3-1.1.6-1.2 2.6.2-.2-1.2 2.5.2.7-1.1 1.1.2 4.6-1.9.2-1.7 5.6-2.4 2-1.9 1.2-.6 1.3.8 2.3-.9 1.1-1.9.5-1.3 1.7-.9 1.5-.7.4-1.4-1.1-1.7-2.2-.2-.2-1.3.8-1.6 1.4-.2 1.3-1.5 1.9-.1 3.4-3.2.4-1.4 1.5-2.3 3.8-4.1 2.5-.9 1.9-.9 2.1.8 1.4 2.6H171l-1.4-1.5-3 2-1.7.1-.2 3.1-3.1 4.9.6 2h2.3l-.6 1-1.4.1-2.4 1.8v.9l1.9 1 3.4-.6 1.4-1.7 1.4.1 3-1.7.5-2.3 1.6-.1 6.3.8 1-1.1 1-4.5-1.6 1.1.6-2.2-1.6-1.4.8-1.5.1 1.5h3.4l.7-1 1.6-.1-.3 1.7 1.9.1-1.9 1.3 4.1 1.1-3.5.4-1.3 1.2.9 1.4 4.6-1.7 2.3 1.7.7-.9.6 1.4 4 2.3h2.9l3.9-.5 4.3 1.1 2 1.9 4.5.4 1.8-1.5.8 2.4-1.8.7 1.2 1.2 7.4 3.8 1.4 2.5 5.4 4.1 3.3-2-.6-2.2-3.5-2 3.1 1.2.5-.7.9 1.3v2.7l2.1-.6 2.1 1.8-2.5-9.8 1.2 1.3 1.4 6 2.2 2.5 2.4-.4 1.8 3.5h.9l.6 5.6 3.4.5 1.6 2.2 1.8 1.1.4 2.8-1.8 2.6 2.9 1.6 1.2-2.4-.2 3.1-.8.9 1.4 1.7.7-2.4-.2-1.2.8.2.6 2.3-1 1.4.6 2.6.5.4.3-1.6.7.6-.3 2 1.2.2-.4.9 1.7-.1v-1h-1l.1-1.7-.8-.6 1.7-.3.5-.8v-1.6l.5 1.3-.6 1.8 1.2 3.9 1.8.1 2.2-4.2.1-1.9-1.3-4-.1-1.2.5-1.2-.7-.7-1.7.1-2.5-2h-1.7l-2-1.4h-1.5l-.5-1.6-1.4-.3-.2-1.5-1-.5.1-1.7-5.1-7.4-1.8-1.5V554l-4.3-3.5-.7-1.1-1.6-2-1.9-.6v-2.2l-1.2-1.3-1.7-.7-2.1 1.3-1.6 2.1-.4 2.4-1.5.1-2.5 2.7-.8-.3v-2.5l-2.4-2.2-2.3-2-.5-2-2.5-1.3.2-2.2-2.8-.1-.7 1.1h-1.2l-.7-.7-1.2.8-1.8-1.2v-85.8l-6.9-4.1-1.8-.5-2.2 1.1-2.2.1-2.3-1.6-4.3-.6-5.8-3.6-5.7-.4-2 .5-.2-1.8-1.8-.7 1.1-1-.2-.9-3.2-1.1h-2.4l-.4.4-.9-.6.1-2.6-.8-.9-2.5 2.9-.8-.1v-.8l1.7-.8v-.8l-1.9-2.4zm-55.8 42.2.1 1.1h1l-.1-1.1zM92 479.1l-1.4 1.5-1 2.1 1 .7 2.6.1 1.5 2.2.9 2.1.8.8 2.1-.1 1.4 1.2.7-1.1.1-.7-1.8-1.2-2.1-1.9v-1.6l-.6-1.1h-2.3l-1.9-1.8Zm33 15.2-.8.8 1.7.5v-1.2zm-51.3 8.1-1 .7.3 1.6.3 1.1 1.7.8.8.2v-.5l-2-2zm25.9 14.1-1.3.1-1.1.5-.9-.4-1.5.1-.7.9 1.1 2 1 .4 2.1 1.8 2.4.2 1.2-2 .1-.9-.8-1.9zm-29.1 19.6.4 1.2.8-1.2zm112.8 1-4 4.1v1.6l2.1-.8.8-1.9 2.2-2.4zm-112.1 5.3.4 1.2.8-.6zm84.5 7.5-3.3 3.6-.7.2v.6l1.8 1.2.2-1.4.6.9 3.5.1.7-.6.2-1.8-.5-.7h-1.4v-.8l.4-.6v-.4zm-4.9 5.5-2.4.3-.2 3.4-.8-2-1.5-.1-1 .6-1.3 2.3 1.5 5.8h2.1l2.4-2.5.3 1.2 6.3-4 .7-1-1-1.1v-.7l.5-1.3-.9-.1-2 1V556Zm89.2 0-.2.7.9 1.5.5 3.7 1.5 1.9v1.1l-.6.7.1 1.3.5 1.4 2-1.9v-.7l1.2-.8V563l-2-3.2.6-.6-1-2.1-2.4.1zm-4 1.4-.7.5h-1.6l-.9.4-.2 2.5 1.2 1.2 1.3 2.3 1.6 1.6-.1 3.3 1.4-1v-.5l-.3-1.1h.7l.6 1.7.2 2.7 1.6 1.6.5 1.5 1.2 2 .8-.3-.4-2.1v-3.4l-1.9-4.3.2-.8-1.3.1-1.7-1.2-.8.6-.1-.9-.6-1.3 1.1.2 2.2 1.5h.9l-.5-2h-1.8l-1.1-1.3 1.4.7h.8l.5-.5-.1-1.5zm-106.1 6.7v.8l1.8-.1-.4-.6zm13.7 2.6-2.1 1.3-.1.7 1.8-.5 1-.6.4.6 2.2.2-1.3-1.2-1.3-.2zm101.9.5-.2.9 2.6 2.8.1 1.7 1.3-.2.8.1.2-1.2-1-1.3.3-.7 1.2 1.6.1.7 1.1.2 1.1-.6.2-.5-3.4-3.2-2.5-.1zm-151.6.5-4.1.6-2.8 1.4-.1 1.9 1.9.7 1.5-.9 1.7-.1 4.7 1.4.1-1.3-1.6-1.1v-2.2zm150.1 1-.2 1.2-.1 1.2 2.1 2.2-1.1 1.4.4 2.2.8.4.4-1.2.8-.3v-1.5l-.5-.5.1-1.8.8.1.2-.8-2.4-2.5zm-139.7 1.2-.7.8 1.4 1.1.3-1.2zm8 0-.7.6-.9-.5h-1.5l-.2 1.8 1.4.8 1.2-.6v-1l1.7-.3-.1-.6zm-32.8.9-.5.8.9 1.1 1.3-.1v-1l-.7-.7zm-5.4.1-2.1 3.4-4.7.5 1.1 1.4h2l1.1-.7 1 .5 2.4.1 4.2-1.9v-.5l-1.1-1.5-.9-.2-.3.6-.5-1.2h-.9zm9.2.1-1.3.1.1 1.5 1.1-.6zm16.8.2.7.9.7-.8zm13.5.8-.3 1-1.3.1-.4.2v1.3l-.5.9h.6l.7-.9.8-.1.9-1 .2-1.3zm22.6 0-1.1.8 1.5 1.4.8-.7-.1-1.3zm-70.4.6-1 1-2.5.3-.3 1.1-2.2.9 3.7.1 2.5-1.3 1.9-.2 1-1.2-.7-.7zm187 0-1.2.4-.1 1.1h1.2zm-137.2.2-1 1v.5l.7 1.1 1-1-.7-.1zm-29.9.4-3.4.1-.1.4.9.2.4.6.8-.6.3.5 1.3-.1zm164.7.5-2.4.5.2 2.3-.6 1.3 1.1.2.6-.5.6.9-.5.4-1.4-.1 1.7 1.3 1.6.6.5.8v1l-1.9 1 .1.9 4.1 4.4.9-.1-.2-2.1-1.7-.2-1.1-2.8h.6l3.1 2.4 1.3 2.3h1.4l-.3-5.1-1.9-1.6-1.3-3.4zm-153.8.5.1 1.2 1.7-.1zm19.4 1.8v.5l.7.1-.1-.6zm132.7 4.7-.1.2h.02zm-.08.2-.42 1.1.4.8 1.1.1 1-1.9z" long-name="Alaska" region="AK" short-name="AK" value="28"/>
    <path d="m217.92 297.27-3.32 17.11c-.78 1.13-1.76 2.15-2.61 3.23h-2.45c-.4-.93-.82-1.86-1.24-2.79-1.18-.4-2.35-.96-3.54-1.28l-2.98.5c-.3 4.5-.7 8.97-.96 13.45.14 1.63.4 3.26.46 4.88-.29 1.35-.28 2.79-1.02 4a84.91 84.91 0 0 0-1.73 3.85c.5 1.12.78 2.37 1.4 3.42.55.8 1.4 1.44 1.43 2.47l1.01 4.9c.76.89 1.66 1.69 2.32 2.61l.45 2.12c-.75.66-1.3 1.63-2.36 1.81l-3.92 1.39c-.76 1.18-1.6 2.32-2.3 3.52-.56 2.33-1.03 4.69-1.64 6.99l-2.5 3.32c-.46.23-1.44-.04-1.52.57l-.98 6.17c.42.42.58 1.27 1.2 1.35.6.18 1.52-.14 1.78.59.28.54.78 1.04.91 1.6-.34.87-.53 1.85-.95 2.66l-3.14 2.3c-.74.02-1.55-.16-2.25-.03-.55.56-1.26 1.02-1.71 1.63l-.42 2.4 63.9 37.31 36.82 5.33 17.3-123.3c-13.44-2.04-26.89-4.02-40.32-6.07z" long-name="Arizona" region="AZ" short-name="AZ" value="43"/>
    <path d="m633.19 334.81-39.57 1.99-38.65.69c1.34 8 2.7 16 4.03 24.02l-.7 38.81 2.27 2c.93-.38 1.84-.95 2.79-1.22l3.54.88.2 11.8 51.7-1.28c.47-.65 1.2-1.18 1.15-2.06.07-.67.33-1.39.28-2.04-.58-1.01-1.5-1.88-1.62-3.1-.01-.54-.52-1.26-.2-1.69.43-.26 1.27-.87.45-1.21-.41-.37-1.15-.54-1.35-1.05-.18-.62-.21-1.18.53-1.35.96-.25.45-.68-.1-1.1-.38-.43.17-1.13.17-1.66l1.45-6.02 3.34-1.57c.09-.72-.7-1.13-1.01-1.7-.33-.49.44-1.07.57-1.59l2.4-4.46c.69-.04 1.43.08 2.08-.06.36-.45 1.28-.65 1.13-1.33l-.28-4.73 3.26-4.72c.49-.23 1.28-.29 1.59-.63l-.48-2.98c.57-.3 1.28-.46 1.77-.85l.95-2.33c.5.08 1.22.88 1.5.2.08-.41-.97-.63-.51-1.25.26-.66.19-1.21-.5-1.54-.82-.3-.16-.88.1-1.38.17-.42.3-1.47-.44-1.28-.62-.05-1.53 0-.62-.6.41-.31.78-.97 1.21-1.08.48.24 1.19 1.03 1.13.03.01-.61-.55-1.18-.27-1.83-.13-.89.54-.55 1.11-.35.89.5.7-.12.47-.78.39-.48 1.04-.87 1.53-1.31-.12-.8-1.1.03-1.4-.45-.14-.47-1.06-1-.6-1.42.53-.43.88-1.19 1.66-1.1.66.05 1.14-.19 1.36-.83.3-.3 1.68.04 1.07-.66-.42-.42-.97-.77-.78-1.44-.18-.75.88-.26 1.3-.4 1.02.02-.18-.64-.5-.88-.32-.56-.6-.7-1.33-.53l-10.57.76c1.08-1.95 2.12-3.93 3.24-5.85.5-.5 1.19-.92 1.56-1.49-.08-.8.26-1.74-.38-2.38z" long-name="Arkansas" region="AR" short-name="AR" value="40"/>
    <path d="m78.05 148.38-.75 2.09c-.05 2.83-.02 5.67-.13 8.49l-3.96 9.1c-.02.68.34 1.46-.27 1.97A23.24 23.24 0 0 1 70 173.7l-5.32 5.77c-.06 1.68-.26 3.38-.24 5.04l5.45 11-.2 6.62c-.76 1.24-1.64 2.44-2.32 3.7l-.77 10.4c2.16 4.29 4.39 8.55 6.5 12.86.35 1.32.8 2.64 1.09 3.96l-.68 5.42 5.18 5.85c.54.28 1.25-.47.9-.96-.32-.55-.38-1.1-.02-1.65l1.31-3.32 1.88-.67 2.3 3.64-2.81 1.5.89 1.52c-.2.56-.75 1.12-.29 1.69.36.98.9 1.93 1.14 2.94v5.47l-4.5-3.89v-2.87c.52-.38 1-.8.86-1.5-.04-.55-1.11-.2-1.58-.37-.32.3-.15 1.16-.28 1.68-.36 1.48-.91 2.94-1.2 4.43.03 2.42-.05 4.85.04 7.26.7 1.45 1.09 3.1 2.2 4.32l1.56 2.07c.83.05 1.74-.1 2.53.06.47.53 1.34.85 1.23 1.68.08.97.33 1.98.3 2.93l-1.89 3.26-2.3.76-.56 6.64c.95.92 1.98 1.77 2.86 2.72.66 1.73 1.44 3.44 2.03 5.18-.02.8-.22 1.66-.13 2.44.48.8 1.2 1.51 1.54 2.37.16.96.2 1.96.43 2.88.88 1.28 1.9 2.48 2.7 3.8 1.34 3.07 2.6 6.2 3.97 9.23l1.45 1.66c-.63 1.9-1.43 3.75-1.94 5.68-.38 2.3-.84 4.6-.9 6.95l2.26 2.27c1.41.16 2.85.2 4.17.76 1.15.4 2.37.68 3.47 1.17 1.02.71 1.98 1.55 3.03 2.19 1.23.2 2.51.26 3.7.55.94.84 2.04 1.54 2.9 2.46 1.93 2.74 3.67 5.63 5.8 8.23 1.28.52 2.45 1.37 3.86 1.42 1 .23 2.1.17 3.04.6.69.43 1.56.72 2.13 1.24l.74 3.94-1.01 1.66c.6.5 1.1 1.19 1.74 1.56a9047 9047 0 0 0 3.54-.1c2.38 2.96 4.82 5.89 7.18 8.86.3.83.61 1.67 1.3 2.27.82.82.94 2.05 1.42 3.07.36 1.15 1.06 2.24.96 3.48.09 2.45.32 4.9.32 7.35.01 1.13-.4 2.31.12 3.38l.6 1.83c14.65 1.69 29.29 3.41 43.93 5.08.66-.05 1.42.22 2.02-.04.87-.68 1.87-1.27 2.65-2.02l.67-2c-.4-.4-.48-1.27-1.1-1.31-.63-.17-1.54.12-1.82-.65-.27-.53-.86-.98-.93-1.56l1.14-7.18c.6-.19 1.37-.08 1.84-.48.7-.99 1.52-1.93 2.16-2.94.55-2.32 1.03-4.66 1.62-6.96l2.47-3.7c1.63-.61 3.32-1.12 4.91-1.79.3-.47 1.2-.76.93-1.4-.14-.62-.14-1.31-.72-1.7-.6-.72-1.34-1.35-1.85-2.1-.43-1.93-.75-3.9-1.24-5.79-.66-.88-1.47-1.67-1.73-2.78-.29-.87-.78-1.75-.93-2.61l.84-1.96-70.31-104.87c-.36-1.26-.87-2.5-1.13-3.77l16.3-62.73-65.36-18.4zM96.1 337.39l.6 1.8h2.78c-.4-.45-.57-1.23-1.1-1.45zm5.71.16v1.42c.8.36 1.46 1.2 2.4.99l3.43-.16c.63-.5-.87-.22-1.23-.36-1.14.07-2.02-.77-3.02-1.18-.5-.18-1.23-.77-1.58-.7zm20.52 18.34c-.13 0-.29.08-.48.15l1.56 3.55 2.22.85c.6-.38-.31-1.05-.41-1.57-.46-1.2-1.65-1.83-2.5-2.73-.13-.2-.25-.26-.39-.25zm-2.43 11.18.1 1.76c.57.52 1.05 1.26 1.67 1.65.9.1-.22-.8-.33-1.2z" long-name="California" region="CA" short-name="CA" value="169"/>
    <path d="m315.65 223.14-11.4 87.5c17.57 2.17 35.13 4.37 52.7 6.5 17.23 1.6 34.46 3.22 51.69 4.79l15.6.94c1.62-22.87 3.3-45.73 4.9-68.6.4-6.57.82-13.14 1.24-19.7-11.37-.85-22.74-1.62-34.1-2.5-12.21-1.12-24.42-2.2-36.62-3.34z" long-name="Colorado" region="CO" short-name="CO" value="37"/>
    <path d="m920.33 165.67-14.23 3.25c.27.81-.56.83-1.13 1.04-.63.34-.67-1.06-1.42-.48l-9.29 2.13 2.7 15.78 2.04 1.68-3.56 3.47 1.22 1.58c2.3-1.87 4.52-3.85 6.9-5.62.68.2 1.03-.28 1.36-.8l1.8-2.32c.8.06 1.63.25 2.36-.2 1-.33 1.94-.95 3.02-.78.64.03 1.28.05 1.82-.37 1.65-.79 3.24-1.75 4.94-2.44.8-.32 1.74-.43 2.47-.89.43-.26.73-1.14 1.3-.85.9.55.68-.15.49-.83-.04-.61.6-1.2.21-1.82zm14.1 150.09c-1.93 0-3.5 1.34-3.5 3v18c0 1.66 1.57 3 3.5 3h33c1.95 0 3.5-1.34 3.5-3v-18c0-1.66-1.55-3-3.5-3z" long-name="Connecticut" region="CT" short-name="CT" value="28"/>
    <path d="M871.86 227.05c-.16 0-.32.04-.49.1l-.6.12c-.69.53-1.5.92-1.81 1.78-.25.55-.85 1.05-.47 1.68l7.3 26 10.1-2.13-1.95-6.75c-.53.32-1.06.56-1.48-.04l-3-2.38c-.22-.55-.27-1.24-.58-1.71l-1.77-.98-.2-3.77c-1-1.04-1.93-2.16-3.16-2.94-.44-.56-1.36-.86-1.3-1.68-.11-1.36-.54-2.73-.18-4.1.02-1.03.6-1.9.99-2.83-.46-.19-.92-.4-1.4-.37zm62.58 149.52c-1.94 0-3.5 1.34-3.5 3v18c0 1.66 1.56 3 3.5 3h33c1.94 0 3.5-1.34 3.5-3v-18c0-1.66-1.56-3-3.5-3zm39.5 2c-615.96-252.38-307.98-126.19 0 0z" long-name="Delaware" region="DE" short-name="DE" value="16"/>
    <path d="M796.17 444.05a.53.53 0 0 0-.4.07l-1.57 1c.07.76-.15 1.61.1 2.32.41.7 1 1.34 1.3 2.06l-.54 4.6c-.86.26-1.73.5-2.6.75-.49-.67-1.38-1.14-1.37-2.07l-.42-2.26-50 3.3-3.3-6-48.23 5.04-.41 2.41c.8.87 1.55 1.83 2.4 2.63.71.38 1.67.43 2.05 1.24.4.46.8.93.58 1.58l-.37 6.78c.3-.58.9-.7 1.48-.81 3.27-.83 6.53-1.72 9.8-2.5 3.08-.15 6.15-.35 9.22-.48 2.74.65 5.49 1.26 8.21 1.94 2.86 1.66 5.7 3.38 8.56 5.02 1.02.43 2.26.47 3 1.37.55.57 1.32 1.06 1.74 1.69l-.09 2.36c.92-.04 1.91.21 2.69-.41.58-.3 1.12-.75 1.81-.56.9 0 1.85.25 2.66-.26 1.46-.47 2.59-1.58 3.87-2.37 1.08-.98 2.11-2.04 3.22-2.97.52-.05 1.15-.73 1.57-.27.34.45 1.2.5 1.55.17.33-.45-.17-1.12-.5-1.48-.64-.32-.29-.91-.17-1.44.29-.5 1.04-.63 1.51-.98.9-.68 2.08-.44 3.14-.6.97-.09 1.95-.16 2.92-.24.42.4.62 1.2 1.32 1.08 1 .14 1.87.75 2.8 1.1 1.05.67 2.23 1.2 3.18 1.99.74 1 1.39 2.16 2.43 2.85l2.69 1.35v2.44c.88.56 1.72 1.24 2.64 1.73.57 0 1.12.07 1.47.57.62.56 1.38 1.01 1.58 1.88.08.72.68.8 1.28.87.39.74.51 1.69 1.02 2.35.49.37.71-1 1.32-.8l3.07.12c.32.74.38 1.65 1.18 2.05.66.29.56.93.54 1.54.15.55.94.8 1.35 1.22.49.44 1.19.77 1.55 1.28.05 3.27.16 6.55.18 9.82l-1.73 5.59c.34.56 1.15.96.92 1.7-.09 1.06-.06 2.15-.22 3.19-.2.54-.98 1.09-.44 1.63.64 1.1 1.74 1.84 2.57 2.78.09.82.61.34 1.16.1.5-.3.33-1.14.56-1.66-.04-.5.65-1.4.06-1.62l-2.7-1.08c.16-.49-.07-1.38.68-1.28l2.73-.42c.37.93.59 1.97 1.05 2.82.61.44.23-.9.38-1.3-.08-.79 1 .02 1.47 0 .52.12.69.77 1.05 1.12 0 .72-.3 1.32-.76 1.86-.75 1.14-1.61 2.23-2.3 3.4-.1.59-.13 1.2-.66 1.56-.37.53-1.06.93-1.2 1.54-.19.8.7 1.17 1.11 1.73 1.16 1.25 2.51 2.34 3.36 3.84 1.58 2.3 3.06 4.68 4.7 6.93.52.68 1.22 1.28 1.63 2-.02.86 0 1.05.12.1.33-.42 1.02-.57 1.48-.9.06-.73 0-1.44-.42-2.07-.55-.6.18-.97.57-1.4.48-.67.85-.75 1.04.13.02.67.94.73 1 1.28v4.65c-.5-.18-1.09-.7-1.56-.68-.67.46.4.93.62 1.4.63.71.75 1.73 1.16 2.58.51-.23 1.02-.72 1.53-.21.96.54 2.07.88 2.74 1.81.63.77 1.6 1.34 1.74 2.4.5 1.48.87 3.01 1.45 4.45l2.62 4.06c.3-.57.6-1.12 1.33-1.05.8-.1 1.63-.39 2.43-.37l3.4 1.38c.23.8.07 1.78.78 2.34l2.85 3.28c.05.6.02 1.24.55 1.65l1.95 2.4c-.5.33-1.1.61-.88 1.32.13.54-.3 1.42.26 1.7.79.33 1.51.92 2.34 1.1.63.04 1.26.05 1.74-.45.73-.42 1.42-1.06 2.17-1.36.85.17 1.72.3 2.52.66.66-.55 1.48-.99 2.05-1.6.02-.84.5-.91 1.2-.6.66.32 1.1-.5 1.66-.75.6-.37 1.15-.78 1.4-1.46.26-.62.95-1.18.6-1.9-.24-1.33-.71-2.69-.7-4.04l1.13-4.12c.49-.05 1.27-.74 1.34.07.12 1.1.62.01.55-.51-.33-3.27-.86-6.53-.88-9.83-.13-2.65-.13-5.32-.36-7.97-.34-2.14-.56-4.31-.99-6.43-.76-2.09-2.13-3.88-3.2-5.81-3.17-5.24-6.2-10.57-9.24-15.89-.72-1.16-1.6-2.25-2.24-3.46-.4-1.25-1-2.46-1.26-3.73l-.2-3.5c.53-.12 1.24-.34.82-1-.5-.95-.84-2-1.72-2.66-1.54-1.59-3.23-3.05-4.5-4.87-2.14-2.77-4.36-5.48-6.44-8.28-1.9-3.49-3.85-6.94-5.7-10.45-1.41-3.57-2.9-7.12-4.26-10.7-.2-1.15-.38-2.3-.56-3.45-.45-.5-1.36-.76-1.28-1.56l-.4-3.02c-1.24.03-2.49.35-3.72.2-1.26-.26-2.57-.39-3.81-.73-.41-.1-.84-.57-1.25-.65zm7.82 92.5c-.07-.09 0 .02.3.5l.97 1.6c.23-.11-.6-.97-.79-1.37-.21-.32-.4-.62-.48-.72zm3.1 2.37c-.1 0-.26 0-.5.08.53.25.8-.04.5-.08zm40.38 15.14c-.11-.14-.26.6-.4 1l-.8 2.63c.41-1.05.98-2.08 1.29-3.14-.03-.29-.06-.44-.1-.49zm-1.42 4.16-.7.88c-.52 1.2-.77 2.54-1.7 3.52-.61.66-.84 1.55-1.2 2.36a63.8 63.8 0 0 0 2.51-3.66c.3-1.05.6-2.11 1.1-3.1zm-7.4 10.36c0-.04-.09-.03-.3.06-.16.25-1.14 1.53-.48.8.08-.18.8-.75.78-.86zm-5.32 3.72c-.09.03-.35.19-.68.32-.73.72-.26.78.28.1.39-.36.49-.45.4-.42zm-6.4 1.1-1.78.66c-.84.31-1.67.61-2.26 1.31-1.01.86-1.96 1.86-3.02 2.62-.63.07-1.48.16-.35.16.66.16 1.2-.09 1.71-.5 1.06-.63 2.07-1.42 3.15-1.96 1.02-.09 2.14.26 3.06-.33.56-.25 1.45-.5.38-.77-.78.02-.39-1.24-.9-1.19z" long-name="Florida" region="FL" short-name="FL" value="125"/>
    <path d="M760.07 355.67a1.3 1.3 0 0 0-.3.1l-20.22 2.84-22.44 2.84c4.27 15.13 8.5 30.28 12.8 45.4.97 2 1.88 4.04 2.89 6 .57.68 1.34 1.28 1.8 2v3.03c.53.37 1.26.62 1.68 1.07.06.65.46 1.35-.09 1.9-.62 1.13-1.36 2.22-1.91 3.38-.15 1.95-.26 3.9-.73 5.81-.02.69.5 1.32.7 1.98.53 1.34 1.2 2.67 1.64 4.02-.17 2.1-.45 4.22-.55 6.31.2.68.43 1.35 1.04 1.77.53.49 1.05.98 1.14 1.73.45 1.85 1.63 3.4 2.47 5.08l1.14 2.06 50.2-3.3c.25 1.16.37 2.38.7 3.5.39.55.8.97 1.47.55.78-.01.98-.53.95-1.24.06-.98.32-2.01.28-2.97-.42-.72-1.03-1.37-1.33-2.12v-2.72l2.58-1.65c.94.48 1.83 1.14 2.93 1.17 1.36.2 2.72.66 4.1.39l1.83-.15c-.34-2.27-.5-4.57-1.16-6.77.76-2.16 1.66-4.28 2.34-6.46l.59-5.87c.4-.56 1.09-1.01.89-1.78.2-.78-.24-1.08-.95-1.19-.57-.19-1.13-.4-1.7-.6l2.5-.44 4.05-5.96c.06-.6.09-1.27-.7-1.29l-4.32-.41c-.46-1.54-.62-3.19-1.5-4.56-.64-1.14-1.17-2.4-1.87-3.47l-3.89-2.09c-.16-1-.13-2.05-.41-3.01l-3.4-6.33c-1.66-.8-3.38-1.51-5-2.34l-2.7-2.9c-.11-.64.13-1.43-.53-1.82-.74-.7-1.4-1.5-2.2-2.12-.86-.26-1.8-.36-2.44-1.08-.66-.57-1.5-1-1.76-1.89-.37-.68-.58-1.51-1.35-1.86-.7-.45-1.28-1.18-2.18-1.13-.99-.06-1.67-.91-2.52-1.34-1.18-.62-1.8-1.87-2.69-2.82-.8-1.01-1.7-1.97-2.43-3.02-.22-.82-.26-1.73-.93-2.33l-2.36-3.04c-.86.06-1.77.3-2.6.24l-6.3-3.92c-.04-.76-.46-1.57.05-2.25.45-.93.77-1.98 1.3-2.83l1.74-.9c.02-.55.23-1.3-.34-1.2z" long-name="Georgia" region="GA" short-name="GA" value="59"/>
    <path d="m291.3 509.8-4.2 2.9.2 2.3 2.4 1.2 1.9 1.3 2.7.4 2.6-2.2-.2-1.9.8-1.7v-1.4l-1-.9zm-10.8 4.8-.3 1.2-1.9.9-.6 1.8 1 .8 1.1-1.5 1.9-.6.4-2.6zm43.8 6.9-1.2.7-1.9 2.1-2.9.6.8 2.2 2.2 2.8.1 1 2.1-.3 2.3.1 1.7 1.2 3.5-.8v-.7l-1-.8-.5-2.1-.8-.3-.5 1-1.2-1.3.2-1.4-1.8-3.3zm14.8 11.3-1.1 2.4h5l4.8 1.6 2.5-1.6.2-1.5-4.8.2zm12.6 3.9-1.1 1.5-.1 1.7 2.7 2.4 1.9.5.6 1 .4 3 3.6.2 5.3-2.6-.1-2.5-1.4-.5-3.5-2.6-1.8-.3-2.9 1.3-1.5-2.7zm-4.8 2.7-3.7.1 1.7 4 3.1-.6.3-2zm-69.4.6c-1.93 0-3.5 1.33-3.5 3v18c0 1.66 1.57 3 3.5 3h33c1.94 0 3.5-1.34 3.5-3v-18c0-1.67-1.56-3-3.5-3zm76.1 6.5-2.5.3-.9 1.4 4 .1zm15.5 7-2.1.2-.2 3.2 1.7 1.9.1 1.2-4.8 4.5-.1 1.2 1.9 3.2 1.7 4.2v2.6l-.5 1.2.1 3.4 4.1 2.1 1.1 1.1 1.2-1.1 2.1-3.6 4.5-2.9 3.3-.5 2.5-1 1.7-1.2 3.2-3.5-2.8-1.1-1.4-1.4.1-1.7-.5-.6h-2l.2-2.5-.7-1.2-2.6-2.3-4.5-1.9-2.8-.2-3.3-2.7z" long-name="Hawaii" region="HI" short-name="HI" value="19"/>
    <path d="m224.9 27.97-12.6 55.64c.22 1.36.53 2.73.68 4.09l-1.06 4.17c.54 1.14.98 2.35 1.58 3.45l3.47 3.08.55 3.52c-1.45 1.7-3 3.35-4.4 5.09-1.06 1.79-2.07 3.62-3.16 5.39l-1.65 1.47c-.04.7.35 1.53-.27 2.07-.51.65-.91 1.46-1.49 2.03-.8.3-1.71.46-2.46.85l-3.8 5.51-.18 3.8c.93.4 1.86.78 2.79 1.16l1.07 2.38c-.48.54-1.07 1.02-1.05 1.8a6.48 6.48 0 0 1-.94 2.65c-.73 1.54-1.59 3.04-2.25 4.6l-8.35 36.68c8.6 1.88 17.17 3.84 25.77 5.67 7.5 1.49 15 3.06 22.51 4.5l46.5 7.97 8.38-53.99c-.75.15-.92-.46-1.1-1.05-.67-1.55-1.06-3.23-2.13-4.56-.31-.57-1.07.2-1.58.2l-2.88 3.4-9.08-1.72c-.74.37-1.45.94-2.2 1.18l-6.7-1.55-1.72 2.47-2.75-2.75c-.03-2.12.12-4.24-.28-6.33.13-.73-.5-.96-1.03-1.27-.71-.41-1.46-.79-1.85-1.55-.7-1.02-1.56-1.95-2.15-3.02-.82-3.25-1.73-6.5-2.49-9.76.13-1.1.44-2.22.45-3.33-.22-.73-.17-1.6-.56-2.25l-1.44-1.44c-1.72 1.12-3.36 2.36-5.25 3.18-.47.07-1.18.96-1.44.31-.56-.82-1-1.78-1.62-2.51-.42-.28-1.39-.23-1.45-.73.2-1.47.3-2.96.58-4.41l7.03-16.84c0-.61.2-1.41-.7-1.12h-2.32l-1.4-2.1c-.7.17-1.16-.18-1.49-.79-.6-.87-1.39-1.67-1.9-2.58-.05-.97.23-2.01-.37-2.86l-3.41-7.25c-.63-.28-1.37-.4-1.93-.78l-3.73-4.97 1.62-4.84-3.7-7.38 4.75-21.74z" long-name="Idaho" region="ID" short-name="ID" value="32"/>
    <path d="m662.71 199.62-45.31 2.77c.12.35 1.02.56 1.43.86 1.03.46 1.66 1.48 2.5 2.2.01.58-.35 1.27-.08 1.78.3.65.87.77 1.54.67.54.12.78.87 1.2 1.24.65.88 1.46 1.7 2.01 2.61-.02.96.18 1.95.03 2.89-.5 1.1-.82 2.33-1.45 3.37-.41.53-1.08.97-.91 1.74-.12.74.19 1.64-.46 2.19-.53.62-.97 1.37-1.55 1.92-1.45.6-2.9 1.3-4.36 1.84-1.21.01-2.45-.13-3.6.33-.47.27-1.42.07-1.54.68l-.83 3.3c.48.54.67 1.46 1.5 1.52.74.1.87 1.02 1.32 1.51.35.57.03 1.32.1 1.97-.07.7.07 1.48-.12 2.13-.86.8-1.42 1.86-2.13 2.78-.04.83.1 1.71-.06 2.5-.57.56-.9 1.45-1.78 1.55-.68.26-1.45.4-2.06.75-.26.51-1.05 1.05-.34 1.53.5.52.1 1.32.18 1.96.03.6-.02 1.16-.58 1.5-.55.65-.65 1.6-1.03 2.36-.2.67-.7 1.33-.36 2.04.42 1.67.64 3.4 1.2 5.02l2.26 5.3c1.16.8 2.37 1.52 3.3 2.6l7.53 7.35c.2.92.63 1.83.72 2.74-.13.6-.5 1.23-.5 1.82l1 1.77c1.1-.35 2.2-.85 3.3-1.1 1.4.4 2.93.46 4.17 1.3l1.95 1.05c-.05.58.1 1.25-.07 1.78-.33.47-1.26.74-1 1.39.1.7.48 1.41.04 2.07l-2.56 6.94c.17.73.18 1.54.44 2.23l7.15 6.87 4.85 1.31c.95 1.47 1.97 2.9 2.86 4.4.46 1.06.58 2.3 1.5 3.08.33.48.98.85 1.1 1.4-.15.64.16 1.52-.59 1.83-.6.33-.2 1.16-.32 1.74.49 1.28 1.17 2.5 1.73 3.77.46.41.83 1.04 1.34 1.33h2.06c.02-.55-.43-1.25-.11-1.69l4.2-3.88 7.03 3.05c.6-.12 1.35-.08 1.22-.91.04-.6.46-1.3-.2-1.68-.4-.5-1.02-.92-1.28-1.45l.44-3.6c.49-.19.97-.62 1.46-.65.54.3 1.1.72 1.25-.16.14-.67.98-.42 1.48-.6l2.32-.38c.18-.74-.62-1.23-.91-1.86-.39-.45-.65-.95-.6-1.55-.25-.77.6-1.2.95-1.78.38-.54.94-1.02 1.22-1.6.07-.98-.67-1.77-.99-2.66-.46-.67.98-.04 1.1-.4l.1-6.63c1.27-1.82 2.63-3.6 3.86-5.44.45-1.4.82-2.84 1.33-4.2.5-.6 1.13-1.16 1.53-1.8.03-.75.33-1.54.18-2.25-.24-.62-.7-1.23-.8-1.85.22-.62.55-1.39-.05-1.9-.66-1.05-1.49-2.04-2.06-3.11-.04-1.24-.02-2.47.31-3.67.2-1.3.6-2.57.66-3.87l-4.06-49.77c-.73-1.56-1.69-3.03-2.04-4.73-.41-1.12-.46-2.42-1.33-3.3l-2.84-3.85z" long-name="Illinois" region="IL" short-name="IL" value="64"/>
    <path d="M712.67 210.27c-.26-.03-.63.07-.93.1l-30.67 3.2c-.83.73-1.52 1.68-2.62 2l-4.32 1.95-4.29-1.28c1.35 16.58 2.73 33.16 4.05 49.73-.31 1.82-.77 3.63-1 5.46.07.73-.2 1.56.4 2.12.65 1.01 1.46 1.98 2 3.02.07.56-.04 1.09-.26 1.6.26.66.71 1.3.86 1.97-.16.86-.12 1.81-.4 2.62-.5.7-1.3 1.23-1.62 2.02-.46 1.34-.77 2.74-1.3 4.03l-3.67 5.11-.1 6.53 5.43-.6c.2.5-.09 1.48.7 1.39.64-.65-.66-1.37-.24-2.07.22-.57.33-1.43.99-.71.53.32 1.03.8 1.67.45.56-.16 1.12-.33 1.65 0 1.6.44 2.85 1.55 4.28 2.34.61-.86 1.07-1.88 1.79-2.65l3.7-2.32 2.9 3.19c.39-.62 1.04-1.14 1.26-1.82l.3-2.6 4.47-2.7c.14.56.09 1.27.35 1.76.71.33 1.3 1.16 2.15.94 1-.14 2.12.1 2.95-.6.35-.43.1-1.22.2-1.79.09-.75-.17-1.6.45-2.19.86-1.16 1.53-2.48 2.51-3.54l4.18-4c-.05-.85-.2-1.72.2-2.51l1.06-3.38 2.41 1.1 6.29-4.22c-.16-.79-.32-1.57-.9-2.16l-1.02-1.43c.33-.7.82-1.38 1.05-2.1-2.2-19.1-4.43-38.2-6.6-57.3.11-.48-.05-.63-.31-.66zm-43.87 90.38v.15c.12.75-1.29.06-.47 1.03.1.4.81 1.4 1.1.82.23-.52-.38-1.11-.49-1.67-.04-.06-.12-.36-.14-.33z" long-name="Indiana" region="IN" short-name="IN" value="58"/>
    <path d="M605.82 180.8c-.15 0-.31.02-.49.05l-17.22.65c-12.37.3-24.74.64-37.1.9-9.31-.01-18.62.03-27.93-.02-.49.1-1.54-.42-1.34.44-.22.78.66 1.18 1.02 1.75.5.45.07 1.2.12 1.8-.64.22-1.14.5-.72 1.22.08.59.93.43 1.35.7.24.8.66 1.6.78 2.4-.82 2.55-1.8 5.04-2.3 7.67.01.56-.6 1.3-.13 1.7.49.5 1.18.86 1.17 1.64a11.8 11.8 0 0 0 1.37 3.3c.05 1.14-.19 2.32.37 3.37.48.89-.02 1.94.5 2.82.55 1.62 1.09 3.24 1.96 4.73.4.9 1 1.73 1.28 2.66.1 1.2.07 2.42.23 3.6.9 1.67 1.92 3.3 2.76 5l.39 5.88c.39.35 1.32.4 1.31.97-.02 1.3-.4 2.64.06 3.9.15.8.48 1.6.52 2.4-.18.71-.55 1.44-.62 2.15l1.61 3.93c8.71.01 17.42.1 26.13.07 10.2-.47 20.4-.85 30.57-1.4l10.56-.58c.62.53 1.4.96 1.94 1.56.31.78.47 1.66 1.21 2.16.4.5 1.02.67 1.55.99.66-.43.31-1.31.45-1.98.25-.66-.9-1.03-.66-1.57.44-.55.72-1.3 1.25-1.73.88-.34 1.84-.54 2.66-.95.34-.47.96-.85.77-1.52.1-.77-.28-1.7.36-2.3.63-.8 1.1-1.72 1.84-2.43 0-1.1.15-2.23.04-3.3-.37-.54-.6-1.27-1.37-1.29-.65-.16-.81-1-1.25-1.45-.56-.45-.18-1.08-.06-1.66l.81-3.25c1.21-.26 2.4-.77 3.63-.88.96-.05 1.99.2 2.85-.35 1.08-.5 2.24-.89 3.26-1.45.48-.69 1.12-1.32 1.5-2.04.1-.8-.05-1.68.19-2.41.6-.7 1.24-1.36 1.47-2.27.31-.97 1.01-1.88.8-2.95-.08-.7.14-1.53-.5-2.03l-2.16-2.7c-.58-.04-1.3.22-1.57-.45-.33-.47-.96-.85-.69-1.5.16-.62.2-1.21-.44-1.57a5.47 5.47 0 0 0-2.1-1.55l-1.74-.9c.49-.46.85-.93.32-1.51-.3-.54-.46-1.27-.87-1.69-1.11-.3-2.32-.35-3.38-.82-.84-.53-1.84-.92-2.6-1.52-.67-1.9-1.42-3.8-2.04-5.7.09-.91-.03-1.87.19-2.75l1.46-3.03c-.36-1.05-1.42-1.5-2.21-2.17-.73-.34-.39-1.26-.55-1.9.14-.64-.13-.84-.57-.84z" long-name="Iowa" region="IA" short-name="IA" value="40"/>
    <path d="m429.78 256.72-4.74 66.2c22.52.95 45.05 1.94 67.59 2.88l61.27.1-.49-47.38-3.07-.67c-.94-1.64-1.77-3.36-2.8-4.94l-2.47-2.48c.24-.9.31-1.88.66-2.72.84-.88 1.86-1.67 2.6-2.6.22-.64-.1-1.14-.51-1.61-.34-.7-.7-.9-1.12-.13-.42.39-1.12-.23-1.65-.26a2.03 2.03 0 0 1-1.42-.84l-2.3-2.37c-11-.02-22.02.03-33.03-.02-14.5-.41-29.01-.77-43.51-1.22z" long-name="Kansas" region="KS" short-name="KS" value="39"/>
    <path d="m725.41 268.63-1.75.74c-.84 0-1.75 0-2.59-.13-.65-.43-1.1-.33-1.3.45-.59.57.09 1.05.4 1.55.47.58.87 1.19.93 1.94.14.59.48 1.25-.3 1.47l-6.56 4.4-1.99-.9c-.32 1.17-.83 2.32-1.03 3.5-.05.56.25 1.27-.04 1.74-1.55 1.52-3.18 2.97-4.68 4.53-.75 1.18-1.64 2.3-2.3 3.5l-.1 3.41c-.76.41-1.45 1.04-2.37.92-.8 0-1.67.22-2.44.09-.66-.49-1.52-.84-2.07-1.4.09-.97-.4-.73-.97-.27l-2.27 1.37c-.14.89-.12 1.84-.36 2.7l-1.89 2.48-3.1-3.4c-1.05.7-2.19 1.3-3.2 2.05l-1.9 2.97c-1.37-.78-2.65-1.76-4.08-2.42-.6-.2-1.21-.57-1.85-.25-.57.14-1.16.42-1.63-.1-.82-.68-.37.42-.11.82.41.58-.28 1.17-.42 1.76l-1.68-.3c-.1-.62-.04-1.41-.88-1.04l-3 .33c.1.52.67 1.07.47 1.56-.31.39-.54 1.18-.9 1.32-.56-.45-.72-.65-1.02.06l-1.91 2.35c-.11.97.7 1.62 1.14 2.4.48.45.5 1 .36 1.6.1.7-.82.42-1.24.6l-2.6.43c-.33.34-.41 1.38-.87 1.29-.55-.17-1.1-.87-1.65-.38-.44.34-.2 1.15-.38 1.68.03.57-.43 1.3.19 1.67.42.52 1.07.98 1.35 1.55l-.46 2.76c-.67.08-1.36.38-2.01.33l-6.67-2.9-3.65 3.38c.2.57-.04 1.45.67 1.68.51.31 1.23.54.8 1.25-.12.86-.68 1.56-1 2.35.25.43 1.12.71.86 1.28-.4 1.4-.8 2.78-1.22 4.17-.47.16-.96.86-1.42.35-.6-.56-1-.55-1.12.33-.52.8-.1.91.7.75l21.48-1.39c.61-.49.16-1.1-.04-1.69l-.91-2.42h4.42c.42.51.95.69 1.59.5 7.19-.65 14.4-1.24 21.58-1.93 1.27-.36 2.5-.92 3.86-.85 5.46-.33 10.93-.58 16.38-.96 2.53-.38 5.05-.87 7.61-.94 5.95-.42 11.91-.8 17.86-1.24 1.83-.48 3.7-.88 5.5-1.4 2.35-1.4 4.64-2.9 7.01-4.23.78-.06.76-.82.94-1.41-.01-.7.45-.94 1.1-1.01.6-.13 1.2-.3 1.58-.85.54-.38.8-.9.71-1.56-.09-.62.12-1.07.73-1.28.46-.38 1.24-.55 1.48-1.08.17-.67.16-1.44.44-2.05 1.06-1.02 2.06-2.13 3.15-3.1.94-.36 1.97-.59 2.85-1.03l4.25-5.72a3.9 3.9 0 0 1-2.05-.38c-.51-.54-.93-1.28-1.5-1.68-.6-.07-1.39.25-1.68-.47l-4.25-5.41c.26-.67-.07-1.05-.69-1.28-.54-.65-1-1.4-1.73-1.87-.33-.43-1.14-.67-1.16-1.21l.58-3.48c-.29-.52-.77-.99-.54-1.62.16-.8-.62-1.4-.9-2.12-.36-.52-1.16-.54-1.7-.85-.65-.32-1.47-.47-2-.9-.4-1.1-.48-2.35-1.09-3.37l-2.93 1.56-.64 1.82c-.64-.04-1.27-.05-1.79.38-.53.5-1.02.32-1.5-.14-.97-.7-2.25-.73-3.37-1.12-.45.32-1.37.33-1.52.84.07.66.06 1.21-.74.9-.7-.1-1.48-.03-2.12-.25l-1.8-2c-1.14.1-2.28.31-3.4-.02l-3.25-.55c.02-.68.1-1.38-.43-1.9-.59-.83-1.07-1.8-1.72-2.56zm-81.14 63.84c-.26-.03-.47.1-.43.5.25.5 1.14.7 1.12-.05a1.01 1.01 0 0 0-.69-.45z" long-name="Kentucky" region="KY" short-name="KY" value="46"/>
    <path d="M618.1 413.29c-.1-.03-.27-.01-.51.05l-50.48 1.25c.18 6.52.3 13.05.51 19.56.26 1.07.38 2.21.72 3.24l2.54 2.74.7 5.4 3.8 4.6c.24 1.36.5 2.71.75 4.07.55.02 1.34-.21 1.07.61-.06 2.42-.01 4.87-.15 7.28l-3.2 6.2 1.34 2.36c-.42.56-1.07 1.06-1.33 1.66.26 1.33.8 2.63.61 4-.07 1.1.03 2.24-.13 3.3-.71 1.19-1.53 2.33-2.17 3.53.09.68-.34 1.05-.9 1.35-.71.3-.85.73-.3 1.32.23.63.77 1.02 1.25 1.46.69-.45 1.2-1.29 2.1-1.26 1.76-.25 3.5-.7 5.27-.82 1.92 0 3.85-.1 5.76-.06 3.22 1.26 6.42 2.58 9.65 3.8l7.66.95c.55-.43 1-1.07 1.6-1.37.4-.16 1.61.05 1.45-.36l-1.57-2.25c1.28-.82 2.52-1.76 3.83-2.5l2.03-.12c.06.53-.13 1.34.1 1.69 1.58-.1 3.15-.27 4.73-.4l.43 2.44c.57.2 1.26.3 1.27 1.05.24.54.17 1.4.97 1.32 1.38.33 2.83.52 4.17.92.58.62 1.37 1.16 1.83 1.83-.13.4.32 1.37-.4 1.17-.64-.07-1.23-.04-1.55.6-.75.5-.4.88.26 1.21.76.6 1.82.47 2.71.74 1.07.24 2.23.32 3.25.66l2.56 2.65c.6-.09-.33-1.18.21-1.3l2.7-.68.2-1.8c.52-.2 1.44-.07 1.16-.89-.14-.74.06-1.11.83-.85.59.05 1.33-.05 1.07.76-.17.78.1 1.1.9.95.71.19 1.17-.04 1.29-.79.28-.46.3-1.5 1.03-.97.63.13 1.19.32 1.02 1.08.16.53-.12 1.46.33 1.72.32.19 1.69 0 1.22.46-.2.31-1.2 1.15-.87 1.1 1.06-.33 2.07-.88 2.96-1.51.22-.4 1.1-.98.92-1.25-.74 0-.9-.81-1.28-1.3.4-.66 1.18-1.17.98-2.02.06-.56-.12-1.24.08-1.73l1.46-1.06c.41.55.84.87 1.32.19.43-.34 1.07-.17 1.59-.3.2.63.72 1.22.73 1.85.01.45-.85 1.53-.03 1.38.86-.02 1.73-.05 2.53.34l4.33 1.44c.28.75.47 1.55 1.2 1.98.44.5.97.79 1.65.68.9.07 1.88-.12 2.63.5.55.48 1.09-.3 1.63-.47.6-.33.7-1.14 1.08-1.67 0-.62.22-1.48-.7-1.2-.73.16-.97-.73-1.45-1.12-.48-.52-.93-1.16-1.55-1.48-1.05-.22-2.07-.71-3.14-.77-.81.01-1.67.23-2.46.12l-4.4-2.51v-2.73l1.46-1.12c-.5-.25-1.2-.41-.77-1.07.01-.69.33-.98 1.01-.82h2.9l2.24-3c-.85-.6-1.7-1.18-2.56-1.77.2-.5.74-1.1.71-1.55-.4-.33-1.12-.82-1.5-.19-.47.57-1.13 1.06-1.49 1.67-.07.69.14 1.48-.1 2.1-.38.35-.6 1.07-1.23.81-.58 0-1.12-.06-1.48-.56-.52-.37-.91-1.1-1.64-.9-.62.06-1.18.07-.95-.7.05-.66-.21-1.42.42-1.85.34-.62.72-.68 1.15-.1.45.46.87-.63 1.31-.82.64-.49.6-1.54 1.18-2.01.51-.17-.44-.82-.54-1.24-.28-.54-.97-1-.62-1.67.36-.64-.07-1.13-.46-1.63l-4.16-5.9c.34-1.63.6-3.3 1-4.92.38-.65 1.1-1.17.98-2-.27-.3-1.18.01-1.69-.05l-34.33 1.9c.6-4.16 1.16-8.34 1.8-12.5.91-1.71 1.66-3.52 2.67-5.17l5.6-7.85-2.1-2.9h2.39c-.05-.92.1-1.93-.07-2.8l-2.38-2.49.5-1.67c-.48-.47-1.27-.76-1.25-1.54l-1.52-6.74c.27-.48.45-.9.12-.97zm22.25 56.3.28.01c.85.08 1.75-.04 2.46.52.7.36 1.45.64 1.8 1.4.33.58 1.16.2 1.72.35 1.01-.15 1.8.58 2.66.98.02.61.33 1.3.16 1.88-.32.24-.66 1.57-.95.78-.35-.3-.54-1.52-1-1.1-.8.52-1.22 1.37-1.72 2.14-1.44.35-2.83.98-4.33.93-1.04 0-2.02-.5-3.04-.7-.41-.26-1.46-.06-1.39-.68.11-.64-.06-1.41.22-1.98.67-.76 1.55-1.36 2.07-2.22zm-4.33.64.24.1 1.64.71c-.07.7.26 1.55-.44 2-.57.56-1.05 1.33-1.68 1.76-.52-.07-1.33.15-1.68-.1v-2.67zm-26.7 17.45-1.95.89c-.9-.04-.66-.05.08.31l3.49 1.6c.64-.2 1.45-.16 1.74-.9.75-.59-.51-.63-.9-.92-.82-.3-1.64-.81-2.47-.98z" long-name="Louisiana" region="LA" short-name="LA" value="46"/>
    <path d="M929.93 143.3c-.29.04-.56.17-.8.42l-.71.46c-.3.5-.34 1.3-1.08 1.32-.49.27-1.45.13-1.37.9a3.27 3.27 0 0 1-.79 1.96c-.28.54-.62.99-1.28.96-9.63 1.98-19.26 3.94-28.86 6.08-.68.07-1.3.2-1.07 1.02l-.46 13.76c.25.75.8.7 1.44.45l9.52-2.18c.2.61 1 .95.83.05.1-.5 1.05-.33 1.48-.56l14.09-3.21c.21.57 1.11-.2 1.62-.2l4.99-1.53.73 2.7c.72-.2.98.2 1.04.87.26.5.1 1.34.66 1.59 1.13.58 2.35 1.03 3.24 1.98.74.57.88 1.6 1.35 2.38.07-.04.69-.42 1.27-.09.42 0 1.26-.63.95-1.13-.46-.72.03-1.46.18-2.2.56-.09 1.34.27 1.64-.38.55-.41.53-1.05.56-1.67-.19-.85.78-.3 1.24-.36.7-.05.46.93.7 1.4.2.48.86.8.45 1.4-.26.73-.2 1.65-.93 2.12l-2.19 2.19c1.45-1.15 2.71-2.63 4.04-3.95l2.01-1.1c.09-.57-.1-1.3.61-1.5.54-.23 1.03-.86 1.6-.83.62.44 1.13.01 1.64-.36l2.74-1.8c.32.25.8 1.6 1 1 .37-.72-.3-1.43-.45-2.15a25.08 25.08 0 0 0-1.86-4.13c-.73-.63-1.4-1.38-2.18-1.93-.57 0-1.28-.59-1.72-.06-.9.27.08 1.2.18.26.29-.22 1.32-.33 1.5.1l1.08 2.61c.15-1.08.47-.42.8.22l1.35 2.37c-.84.23-1.7.37-2.33 1.02-.63.4-1.1.96-1.59 1.52-1.39.06-2.83.21-4.2.06-.5-.43-1.29-.65-1.31-1.41a5.05 5.05 0 0 0-1.09-2.35c-.65-.04-1.3-.08-1.96-.1-.11-.96-.06-1.98-.28-2.88l-2.22-2.3c-.83-.07-1.74.2-2.43-.4-.15.44-.67.75-1.3.76-.65.3-.73-.74-1.1-1.1-.7-.55.94-.77.38-1.27-.1-.37-1.22-1.12-.57-1.22.49-.16 1.5-.08.85-.78.07-.5 1.06-.8.83-1.4-.4-.64.37-.9.77-1.27l2.14-1.72c.12-.46-.16-1.6-.58-1.38-.41.4-.7 1.26-1.34.73-.62-.14-1.08-.47-1.25-1.1l-1.3-2.51a1.8 1.8 0 0 0-.9-.15zm23.2 28.45c-.01 0-.03 0-.04.03-.59.51-1.08 1.23-1.72 1.62h-1.91c.29.6 1.17.35 1.74.4.86-.1 1.87.28 2.57-.39.24-.56.13-1.18-.46-1.5-.05 0-.12-.15-.17-.16zm-10.08.03c-.1 0-.21.06-.36.09-.5.45-1.2.77-1.23 1.53-.24.68-.22 1.54-.98 1.89.37.56.81-.5 1.16-.78.5-.43 1.3-.37 1.91-.61l2.06-.5c-.1-.87-.22-.64-.88-.64-.57-.1-1.23-.09-1.43-.75-.07-.19-.15-.24-.25-.23zm-8.61 83.18c-1.94 0-3.5 1.34-3.5 3v18c0 1.66 1.56 3 3.5 3h33c1.94 0 3.5-1.34 3.5-3v-18c0-1.66-1.56-3-3.5-3z" long-name="Massachusetts" region="MA" short-name="MA" value="40"/>
    <path d="m867.62 230.56-59.76 11.66 1.53 10.29c.7-.59 1.4-1.16 1.74-2.03.86-1.47 2.09-2.7 3.1-4.08.28-.65.8-.7 1.42-.5.59.01 1.37.46 1.6-.33l2.32-3.4c.74.35 1.45.86 2.21 1.1l2.88-.34 1.72-2.93c.55-.1 1.36.28 1.58-.42.32-.5.55-1.13 1.25-1.08.58-.13 1.2-.4 1.63.17.6.37 1.14.94 1.77 1.2l2.9-.45c-.05.64-.54 1.37.05 1.9.12.76 1.19-.03 1.16.76-.04.72.99.63 1.2 1.09.09.5-.5 1.38.1 1.6.89.34 1.87.5 2.82.3.54.45.96 1.12 1.73 1.07.77-.1.83.42.74 1.06.23.63-.79.91-.48 1.5.67.13.88 1.04 1.65.86.61.16 1.15-.56 1.73-.1l1.66.58c-.39.69.24.98.87.86.62-.34 1.1.76 1.33-.08.35-.3.5-1.54 1.04-.97l2.94 2.04c-.62 1.03-1.4 1.98-1.91 3.06-.25.7-.1 1.65-.84 2.08-.2.47-1.16.63-1.06.86.68.46-.24.88.3 1.37-.25.76-.64 1.5-.8 2.27.16.65.14 1.41.41 2 .52.7 1 .24 1.5-.23.5-.4.98-.83 1.46-1.25.56.15 1.12.3 1.38.88.67.91 1.43 1.85 2.55 2.2.5.4.99-.14 1.54.22.72.4 1.27-.68 2-.26.68.1 1.33.26 1.8.8.53.46 1.03 1 1.78.96.57-.24 1-.15 1.44.37.38.3 1.2 1.16 1 .13a3.75 3.75 0 0 0-.98-2.05c-.43-.62-1.16-1.1-1.1-1.94-.14-.7-.12-1.48-.37-2.13-1.01-.87-2.07-1.77-2.84-2.85-.26-1.12-.4-2.3-.74-3.38-.23-.46-1-.83-.84-1.34.31-.72.6-1.44.47-2.24-.08-.75.07-1.47.41-2.15-.84-.26-.57-.63.02-1.04.83-.37.27-.88-.12-1.37-.12-.54.13-1.12-.6-1.48-.68-.79-1.78-.97-2.66-1.48l2.63-.73c.32-.97.36-2.1 1.16-2.83.24-.81.88 0 1.29-.12l2.18-3.02c-.27-.46-.88-.91-.95-1.38.52-.54.75-1.5 1.62-1.54.47 0 1.44-.62 1.56-.22-.05.82-.23 1.66-.19 2.47.59.57-.07 1-.05 1.47.27.46.94 1.11-.04 1-.58.13-1.34-.03-1.61.64-.8.85-1.12 2-1.63 3.02.05.96.21 1.88.69 2.73.2.7.77-.53 1.14-.7.26.1.28 1.07.45 1.5.14.6.5 1.27-.34 1.45-.47.13-1.04 1-1.41.37-.36-.8-1.04-.32-1.08.35.02.67-.27 1.4-.05 2.01.28.4.58-.65.9-.88.38-.35.72-1.1 1.11-1.2.44.45 1.08.83 1.38 1.34l-.16 2.5c-.44-.2-.92-1.22-1.34-.77-.71.46-.33 1.4-.46 2.1-.02 1.23 0-.52.58-.26l1.63.12c-.09.73.4 1.02 1.03 1.2.32.2 1.62.53 1.3.67l-2.64.47c-.3.42-.82 1.26-.1 1.52.3.3 1.58.61.62.87-.29.32-1.5.44-1.06.9.61.83 1.4 1.55 1.99 2.37.07.58.08 1.21.8 1.32.54.28 1.09.73 1.65.22.71-.18.64-.68.2-1.13l.99-2.26 1.43 1.07c-.04.55-.7 1.24-.16 1.66.42.5 1.2.34 1.77.56.43.13 1.38.29 1.48.44-.71.22-1.43.45-2.16.61-.13.86.07 1.13.77.49.52-.34 1.2-.93.85.1.06.53-.5 1.36.15 1.6.93.24.2.83.06 1.38.13.5.03 1.41.3 1.68.64-.1.77-.71 1-1.22.62-.16 1.42 0 1.76-.67.48-.63 1.41-.6 2.08-.94l2.7-.94c.1-.9.71-1.62 1.05-2.42.12-.7.05-1.46.27-2.12.38-.29.7-1.31 1.12-1.12.61.89.5.04.5-.6v-3.64c-3.6.76-7.2 1.51-10.79 2.28zm3.49 33.72c-.1-.03-.26.1-.6.36.34.58.37 1.46 1.14 1.62.55.23-.13-1.02-.24-1.38-.14-.39-.2-.58-.3-.6zm63.33 142.7c-1.94 0-3.5 1.33-3.5 3v18c0 1.66 1.56 3 3.5 3h33c1.94 0 3.5-1.34 3.5-3v-18c0-1.67-1.56-3-3.5-3z" long-name="Maryland" region="MD" short-name="MD" value="37"/>
    <path d="m941.26 37.1-6.58 6.49c-.44.36-1.1-.3-1.63-.37l-1.68-.62-.98-3.8h-2.1l-6.78 19.14.7 6.27c-.55.85-1.25 1.65-1.73 2.53-.1 1.47-.31 2.95-.34 4.4l1.17 3.32c.6.07 1.1.23.9.94a4.5 4.5 0 0 1-.4 2.37c-.46 1.2-.81 2.47-1.34 3.62-.8.75-1.67 1.45-2.12 2.49-.39.55-.68 1.14-.6 1.83l-.38 7.38c-.96-.36-1.92-.9-2.9-1.14-.87.01-.92.48-.55 1.18l11.48 35.51.57 3.82 3.16 1.97c.32.74.49 1.6.89 2.26.69.36 1.34.92 2.05 1.17.71-.01 1.15-.33 1.21-1.05.14-.68.6-1.34.55-2.01l-.8-2.9c.56-.36 1.3-.6 1.73-1.05.1-.83.38-1.67.38-2.49-.1-.48-.8-1.17-.48-1.52l3-1.73-2.02-2.11c.53-1.33.88-2.75 1.78-3.9.4-.63.8-1.27 1.22-1.9l.52 3.34 1.26-1.58c.5.26.98.84 1.47.9.7-.24.81-.8.71-1.47-.24-.77.38-.97 1-1.16l2.23-.91.3-3 2.66-.2 2.51-3.45c.2-.68-1.08-.48-.9-1.16 0-1.13-.15-2.3-.05-3.4.1-.49.95-1.05.46-1.48l-1.2-1.4 1.2-1.87c.77.31 1.48-.17 2.2-.4l.52 2.89c.88-.13 1.78-.4 2.64-.03.46-.03 1.54.7 1.53.07-.5-.64-1.13-1.24-1.68-1.87l1.9.15.13-3c.36.35.7 1.14 1.06 1.24.74-.77 1.39-1.72 2.19-2.4l1.68-.26c.27.75.31 1.63 1.06 2.08.6.9.6.01.71-.6-.03-.77.92-.8 1.42-1.19.89-.2.7-.66.18-1.2-.34-.54 0-1.26-.06-1.86-.15-.9.32-.76.94-.38.5.33 1.2.49 1.6-.08.43-.43 1.18-.7 1.1-1.42l.34-1.95 2.2.3c.14-1.11.27-2.23.47-3.33.3.75.6 1.5.87 2.26.6-.36 1.18-.75 1.43-1.44.57-1.09 1.28-2.13 1.75-3.23-.12-.83.18-1.8-.48-2.45-1.03-1.64-2.5-2.92-3.78-4.36-.52.14-1.47-.34-1.58.38l-.8 2.16-3.5-3.64a3.8 3.8 0 0 0 .25-2.61l-1.4-3.95c-.59-.35-.98.47-1.6.26h-4.77c-.17-1.43-.13-2.9-.44-4.3l-7.92-25.42-7.07-3.58Zm20.09 62.4-1.91.68c.1.51.07 1.19.31 1.65.44.18 1.18 1.12 1.42.79-.17-.77 1.2-.3.62-1.07-.17-.54 1.1-.57.78-1.24.23-.87-.64-.7-1.22-.8zm-9.47 3.16-.1.03c-.12.84-.1 1.67.05 2.5.54-.3.06-1.18.16-1.73-.09-.15.08-.78-.1-.8zm4.3 1.29c-.1 0-.2.06-.24.21l-.16.47c-.65.42.04 1 .38 1.4.68.56.53-.68.54-1.09.25-.4-.2-.98-.52-1zm3.8.48a.93.93 0 0 0-.42.11l-.26.22c.24.32 1.23 1.08.92.36.41-.43.14-.7-.25-.7zm-.88.47a.43.43 0 0 0-.1.1c.03.05.14-.11.1-.1zm-5.08 1.55c-.23.09-.53.58-.67.85l-.63.95c.65.5 1.06 1.44 1.95 1.51.46-.4.92-.8.73-1.47-.46-.4-1.15-.68-1.08-1.4-.04-.39-.16-.49-.3-.44zm3.88.88c-.06-.03-.16.02-.3.2l-.07.08-.04.04c.65.08-.02 1.35.51.95-.02-.28.09-1.16-.1-1.27z" long-name="Maine" region="ME" short-name="ME" value="20"/>
    <path d="M642.04 75.38c-.2-.04-.83.17-1.1.1-3.2 2.2-6.26 4.59-9.38 6.9.28.64.93.64 1.54.73.65.22 1.07-.56 1.62-.8.55-.36 1.2-.72.23-.93-.97-.2.23-.58.53-.9.71-.42 1.36-1.07 2.11-1.38.66.12 1.22-.13 1.73-.54l1.85-1.17c-.24-.65.06-1.13.56-1.55.38-.32.43-.44.31-.46zm12.27 14.51c-.15-.01-.3 0-.47.05l-3.49.16c-1.24.25-2.44.63-3.56 1.23-1.3.46-2.09 1.7-2.92 2.73-.44.64-.9 1.25-1.67 1.53-1.34.58-2.14 1.86-3.19 2.82-.5.53-1.13.98-1.15 1.77-.04.64-.33 1.1-.95 1.33-2.33 1.42-4.62 2.93-6.97 4.29-1.87.26-3.78.37-5.62.86-.8.99-1.5 2.1-2.37 3-1.9.64-3.6 1.68-5.37 2.58.6.23 1.3.33 1.6.98l2.54 3.22 16.94 3.79c.72.48 1.36 1.16 2.28 1.17 1.08.27 2.24.35 3.27.73.54.63 1.38.2 2.1.25 1.55-.23 3.07.32 4.6.49.7.2 1.6 0 2.02.72l1.32 1.42c-.21.42-1.37.85-.7 1.27.55.39 1.36.3 2 .5.67.17 1.43.15 2.03.44.4.5 1.1.89 1.31 1.47 0 1.52.13 3.07.07 4.58l-1.05 2.26c.6-.02 1.3.27 1.72-.31.45-.56.88-.59 1.3.01.53.36.91.76.47 1.37l-.87 2.45c.44.52.58 1.45 1.4 1.44.42-.15.5-1.02.8-1.45.95-1.61 2.07-3.15 2.94-4.8l1.57-5.86 2.2-1.91c-.1-.55-.53-1.14-.4-1.66.3-.41.58-1.29.89-1.41.43.77 1.05 1.5 1.37 2.3.02.42-.48 1.74.22 1 .5-.45 1.2-.8 1.6-1.31l.21-2.5c.76.2 1.5.42 2.25.64.3-.6.6-1.18.88-1.77l1.33 1.13c-.36.64-.54 1.44-1.02 1.97-.63.21-1.1.59-1.28 1.24-.45.57-.46 1.1.13 1.56.11.65 1.24.8.59.09-.11-.5.6-1.03.83-1.54.6-.88 1.55-1.46 2.3-2.21.85.28.57-.67.67-1.2.1-.56-.1-1.26.51-1.56.65-.52 1.22-1.22 1.9-1.64l7.74-.48 1.9-3.1c1.38-.09 2.78-.26 4.15-.3 1.35.47 2.77.78 4.07 1.35l3.88 2.5c.49-.24.02-1.16.13-1.66l-.12-1.9c.6-.17 1.2-.47 1.8-.16 1.32.3 2.63.7 3.95.93 1.48-.1 2.91-.65 4.36-.87 1 .26 1.98.48 3.01.47.11-.56-.32-1.27-.91-1.26-.63-.04-1.24-.12-1.69-.6-.6-.31-.94-.7-.5-1.32.56-.81-.52-.72-1.06-.66l-2 .07c.01-.53-.24-1.19-.07-1.66.5-.37 1-.74 1.52-1.1.3.98.85-.35.28-.61-.46-.43-1.05-.89-.06-.93-.28-.42-1.07-.67-1-1.2.26-.88.36-1.8.37-2.7-.9-.2-1.52.59-2.25.98l-1.72.1-.5 1.78-2.51.26c-.23-.45-.03-1.48-.8-1.2-.63.04-1.35-.1-1.65.6-.32.57-.76.85-1.4.58-.69.07-.28-1.17-1.14-.67l-2.1.32c0-1.8-.14-3.65-.06-5.44.16-.42.73-1.28.65-1.45-.64.3-1.2.91-1.9 1.03-.7.07-1.5-.15-2.13.12l-3.63 2.57c-2.23.15-4.47.15-6.69.39-1.21.26-2.47.41-3.65.75-1.18.86-2.24 1.86-3.34 2.81-.74.55-1.6 1-2.26 1.61-.21.45-.43 1.39-.64 1.52l-.76-2.13v1.95c-.73-.24-1.43-.68-2.19-.79-.2.39-.17 1.57-.53 1.43-.8-.7-1.52-1.56-2.36-2.17-.7-.3-1.15.04-1.51.62-.35.59-.83.87-1.52.7l-2.77-.09c-.3-.8-.44-1.7-1.22-2.19a19.9 19.9 0 0 1-2.7-2.96c.2-.82-.55-1.3-.95-1.92-.92-.35-1.78-.98-2.74-1.13-1.04-.08-2.14.02-3.13-.16-.53-.4-.98-1.02-1.72-.83-1.07-.07-1.62 1.08-2.36 1.67-.73.6-1.2 1.4-1.68 2.2l-1.56-1.1c.18-1.27.67-2.5 1.21-3.65 1.06-1.66 2.13-3.31 3.18-4.97.63-.05 1.1-.36 1.44-.88a5.32 5.32 0 0 0 1.45-2.19c.08-.7.7-.75 1.27-.83.9-.27 1.96-.15 2.67-.84.1-.56-.22-.88-.66-.92zm18.07 18.63c0 .02.06.08.2.2.19 0-.22-.26-.2-.2zm47.82 4.49c-.24.02-.49.08-.7.05.3.22 1.78.37.95.66-.63.37-1.43.6-1.95 1.06-.02.53-.7 1.25-.15 1.62l3.5.1c.63-.33.12-1.11.19-1.66-.14-.66-.88-1.03-1.27-1.57-.13-.24-.34-.28-.57-.26zm-2.8 2.47-.01.03c.65.62.79.73.08.03zm-10.22 5.54c.49.4.83 1.2 1.57.93.99-.06-.1-.67-.62-.52-.37.05-.72-.3-.95-.41zm-3.28 1.08c-.47.01-.71-.13-.35.42.7.82-.28.57-.87.56-.47.03-1.45-.15-1.63 0 .4.4 1.05.81.25 1.16l-2.2 1.84c.07.75-.06 1.57.52 2.16.4.43.57 1.21 1.1 1.41.45.2 1.5-.12 1.47.5.1.65 0 1.15-.74 1.19-.73.33-1.49.43-2.27.3-.68-.19-1.16.14-1.59.63-.57.58-1.35 1.07-1.79 1.7.08 2.7.33 5.4.5 8.13-1.03 1.52-1.9 3.14-3.1 4.54.08-1.88.57-3.71.85-5.57-.24.27-.23 1.2-.37 1.72l-.72 4.2-1.58-3.65c.12-.79.43-1.6.45-2.38-.34-.55-.63-1.1-.15-1.67.5-.55-.03-1.07-.29-1.59-.13-.53.87-.84 1-1.37.01-.72-.93.27-.9.7-.5.99-.66 2.21-1.58 2.92-.56.85-.99 1.8-1.5 2.68-.48.08-1.52-.5-1.58.11.15.82-.3 1-1.04.86-.82-.26-.41.58-.4 1.06l.23 2.3-3 1.2c-.07.7.23 1.3.62 1.86.36.47.56.99.44 1.59-.06 1.56 0 3.14-.13 4.7-.48 1.49-.83 3.04-1.38 4.5l-1.48 2.16c.54.65 1.25 1.21 1.27 2.12.18.98.53 1.97.61 2.94-.43 1.2-1.13 2.34-1.1 3.66-.27.9.48 1.63.78 2.43 1.2 2.33 2.3 4.7 3.6 6.98.5.78 1.09 1.52 1.16 2.48.45 2.04 1 4.07 1.38 6.12-.05 2.96-.02 5.93-.13 8.89-.34 1.33-.55 2.71-.98 4-.63 1.1-1.43 2.13-1.96 3.26-.34 1.21-.52 2.49-.95 3.65-.75 1.03-1.34 2.2-2.17 3.13.41.02 1.2-.11 1.75-.15l29.71-3.12c.17.44-.23 1.58.5 1.3l20.35-3.32c.6-1.62 1.78-2.93 2.65-4.4.53-.86 1.2-1.67 1.63-2.56.04-1.44-.08-2.9.07-4.32.33-.71.5-1.6.92-2.2l2.08-.76 1.99-7.78c.5-.13 1.03-.76 1.53-.57.34.34 1.28.47 1.23.96-.12.54-.32 1.03-.87 1.27-.83.2.09 1.37.54.72.37-.43 1.23-.59 1.23-1.2l.38-9.18c-.69-1.1-1.67-2.04-1.92-3.34-.32-1.26-1.03-2.45-.88-3.78-.01-.73.14-1.5-.37-2.12-.62-1.26-1.37-2.5-1.93-3.78 0-.91.12-1.84-.34-2.67-.43-1.1-.67-2.32-1.54-3.18-.53-.63-.97-1.4-1.56-1.94l-2.5-.87c-1.53.99-3.14 1.88-4.6 2.93-.8 1.53-1.72 3-2.42 4.57-.06 1.04-1.05 1.62-1.6 2.41l-1.77 2.07c-.64-.14-1.37-.06-1.94-.33l-3.02-2.92-.11-3.7 1.7-2.15c.66-.12 1.45-.04 2.04-.28.43-.7 1.16-1.28 1-2.17l.17-3.24c.52-.44.88-1.2 1.66-1.08.68.04.71-.92 1.08-1.35.08-1.74-.05-3.54-.06-5.3-.08-1.54.04-3.11-.18-4.64 0-.84-.74-1.28-1.25-1.84l-1.84-1.08c0-.75-.2-1.6-.05-2.28.46-.25.82-1.1 1.38-.64.65.37 1.17.57.79-.38-.77-1.33-1.94-2.47-2.42-3.97a3.1 3.1 0 0 0-1.18-1.27c-1.02-.02-2.08.15-3.01-.36l-7.27-2.6c-.5-.53-.9-1.25-1.46-1.67-1.25-.04-2.52-.48-3.74-.02-.6.18-1.12-.47-1.68-.65-1.06-.52-2.1-1.16-3.17-1.6zm-11.87 1.88c-.17-.02-.08.52-.14.66a2.5 2.5 0 0 0-.2 1.72c-.07.44.16 1.5.69.93.36-.54.28-1.29.26-1.9-.47-.36.03-1.36-.61-1.4zm-7.42 14.17c-.07.05.02.26-.02.35.36.13 1.28 1.28 1.2.64.16-.82-.32-1.03-1.06-.98-.07-.03-.1-.03-.12-.01zm-.62 2.78c-.04.01-.06.06-.03.17.5.06.17-.21.03-.17z" long-name="Michigan" region="MI" short-name="MI" value="55"/>
    <path d="m543.51 54.1.1 7.6c.19.76-.88.25-1.31.39l-29.44-.38 2.27 6.9-1.09 2.76c.32.67.97 1.25.73 2.05-.11 1.55-.15 3.11-.3 4.65-.32.56-.57 1.12-.21 1.73.84 2.77 1.6 5.58 2.5 8.32.4.86.99 1.67 1.25 2.56.25 4.64.42 9.3.73 13.94.29.94.8 1.85.96 2.8-.1 1.9-.33 3.82-.36 5.7.95 2.46 1.95 4.9 2.86 7.36.1 2.71.43 5.43.2 8.14-.1 1 .08 2.08-.5 2.96-.32.63-.44 1.44-1.2 1.67-.8.55-1.77.98-2.47 1.6-.37.65.02 1.17.42 1.68.5.78 1.19 1.49 1.24 2.46-.08.83.71.8 1.32.95.62.2 1.42.1 1.72.8.39.6 1.03 1.11 1.27 1.76l-.2 39.1c9.6-.02 19.2.03 28.8-.02 12.43-.33 24.86-.59 37.3-.96l16.1-.6c-.39-1.86-1.1-3.67-1.1-5.59-.05-.72.05-1.5-.56-2.03-.57-.7-1.04-1.56-1.67-2.17-.94-.3-1.99-.37-2.86-.82l-5.17-3.58-.6-3.26-6.3-3.1c-.13-.54.04-1.44-.78-1.17h-2.54c-.86-.93-1.58-2.03-2.53-2.86l-1.92-1.24.72-5.22c-.3-.74-1.09-1.36-.84-2.21.18-1.69.27-3.4.5-5.06.27-.64.85-1.21.92-1.89-.13-.76-.1-1.6-.32-2.32-.49-.43-.8-1.2-1.54-1.13-.44-.22-1.5.1-1.4-.57.03-.88-.19-1.83.38-2.6l2.5-5.17 5.8-3.84-.4-13.41c.5.08 1.1.83 1.53.32.05-.6-.03-1.3.68-1.5.48-.5.93-.57 1.34.02.57.53 1.01.9.4-.03-.09-.46-.98-1.1-.37-1.41 1.45-1.1 3-2.08 4.39-3.23 1.03-1.2 2-2.46 3.06-3.6.76-.41 1.65-.66 2.08-1.47 1.47-1.78 2.83-3.65 4.35-5.38 2.1-1.89 4.12-3.86 6.25-5.7 2.05-1.1 4.06-2.27 6.23-3.1 1.93-.85 3.94-1.54 5.7-2.73l5.09-3c-1.73.3-3.44.75-5.2.7-.5-.09-1.26.32-1.46-.33-.45-.7-.79-1.5-1.6-1.84-.6-.55-1.43-.06-2.14-.08l-8.29 1.02-1.02-2.86c-.68-.05-1.37-.18-1.95.26-1.32.53-2.24 1.69-3.37 2.52-.6.4-1.06 1.24-1.89 1.04-1.25-.03-2.53.06-3.77-.04l-2.29-1.09c-.15-.52-.1-1.26-.38-1.65l-3.75-.77c-.35-.88-.62-1.8-1.12-2.61-.4.43-.83.82-1.47.68-.73-.01-1.5.15-2.21.03l-9.81-5.45c-1-.04-2.07.1-3.02-.07-.41-.58-.91-.61-1.48-.22-.66.36-1.5.47-2.03.98-.38.48-.52 1.3-1.26 1.3-1.06.2-2.1.6-3.17.7-.46-.2-1.4.02-1.54-.45-.1-.73.27-1.63-.37-2.17-.41-.39-1.17-.06-1.72-.17h-4.4c-.27-.43-.1-1.43-.7-1.4-.98.03-1.99-.15-2.88.34-.55.26-.95-.51-1.44-.7-.54-.4-1.09-.78-1.63-1.16.16-.82.5-1.64.11-2.44a5 5 0 0 0-.93-2.3c-.32-.67-.13-1.49-.26-2.2.02-1.4-.66-2.67-1.02-4-.67-.46-1.29-1.08-2-1.44z" long-name="Minnesota" region="MN" short-name="MN" value="39"/>
    <path d="m670.69 365.51-37.63 2.55.49 3.01c-.67.27-1.45.4-2.05.75l-2.9 4.2.31 5.26c-.63.45-1.2 1.08-1.87 1.42-.57.06-1.28-.12-1.75.09l-2.62 4.86c.39.64 1.22 1.11 1.03 1.95.22.71-.58.77-1.05 1.04l-2.4 1.14-1.6 6.68 1.43 1.32-1.85 1.03c.13.59.96.72 1.38 1.12.66.2.3.96.39 1.46-.57.36-1.08.74-.68 1.45.08.83.47 1.53.96 2.19.28.6 1.05 1.1.75 1.83-.2.92-.25 1.9-.52 2.79-.68.84-1.48 1.7-1.67 2.78l1.52 6.75c.38.4 1.06.72 1.27 1.18-.1.55-.48 1.18-.41 1.7l2.28 2.38v3.86c-.47.05-1.37-.12-1.56.08l1.45 2.02c-2.07 2.93-4.21 5.82-6.24 8.79-.75 1.54-1.58 3.06-2.28 4.63l-1.6 11.25 35.96-2c-.13.7.05 1.5-.26 2.14-.47.67-1.06 1.28-1.07 2.14l-.67 3.46 4.8 6.8c-.08.62-.55 1.31.03 1.81.43.57.75 1.33 1.34 1.72.6.03.9-.8 1.36-1.12.54-.48.97-1.16 1.57-1.52.6-.1.22-1.09.39-1.58.5-.2 1.04-.58 1.44 0 .44.62 1.1.03 1.66-.06l6.63-2.1c.86.49 1.68 1.14 2.56 1.53l4.64-.09c.34-.44 1.15-.7 1.2-1.26-1.45-10.98-2.94-21.97-4.35-32.95l1.3-66.78z" long-name="Mississippi" region="MS" short-name="MS" value="39"/>
    <path d="M601.54 245.3a.98.98 0 0 0-.47.04l-13.46.75c-9.2.4-18.41.85-27.62 1.2l-24.53-.09c.4.4 1 .74.64 1.37-.29.64-.1 1.2.31 1.73 1.7 3.08 3.6 6.05 5.47 9.03.95.93 1.83 1.98 2.82 2.84.55.05 1.25.62 1.7.32.41-.27.87-1.5 1.22-.63.5.78 1.19 1.51 1.58 2.32-.12.66.1 1.48-.59 1.85-.74.77-1.62 1.46-2.27 2.27l-.4 1.87c.8.89 1.78 1.65 2.5 2.61l2.42 4.37 3.33.72c.2 17.08.33 34.15.56 51.22l.14 7.6c13.1-.25 26.2-.44 39.3-.72l39.42-1.98c.57.97 1.32 1.9 1.78 2.9-.05.81.1 1.7-.07 2.45-.81.77-1.83 1.38-2.24 2.48l-1.88 3.43 10.24-.73c.37-.64.6-1.43 1.05-1.97.44-.18 1.5-.44.7-.95-.88-.61-1.3-1.6-1.86-2.5.8.05 1.65.3 2.4.21.63-.4-.53-.9-.73-1.34-.75-.5-.33-.7.34-.85.59-.09 1.23-.45.84-1.1-.37-.49-.6-1-.49-1.62.27-.7-.92-.84-.67-1.48.2-.43-.05-1.42.67-1.22.6.01 1.3-.17 1.64.47.67.35.44.92.22 1.5.45.58.86-.53 1-.94l.94-2.54 1.61 1.04c.65-.24.5-1.1.77-1.64l.67-2.28c-.27-.46-1.28-.8-.86-1.38.35-.82.92-1.55 1.06-2.44-.52-.32-1-.74-1.66-.6-.73-.04-1.55.1-2.23-.06-.74-.83-1.65-1.55-1.99-2.65-.44-1-.99-1.97-1.37-2.98.06-.71-.1-1.52.08-2.16.55-.3.91-.7.8-1.35-.17-.57-.83-.98-1.19-1.5-.93-.9-.86-2.4-1.62-3.43l-2.32-3.51c-1.6-.47-3.27-.82-4.82-1.36l-7.5-7.2c-.11-.9-.38-1.83-.4-2.73l2.76-7.5-.42-2c.38-.43.97-.76 1.23-1.24.24-.77-.36-1.04-.97-1.3a7.89 7.89 0 0 0-2.94-1.17c-.71-.11-1.44-.54-2.12-.1l-2.95 1.03-1.55-2.74c.15-.71.6-1.42.56-2.14-.34-.87-.3-1.98-1.15-2.55-2.71-2.61-5.36-5.3-8.1-7.86-.7-.53-1.54-.94-2.15-1.54-.84-2.06-1.8-4.08-2.56-6.16l-1.18-5.32 1.31-3.49a5.67 5.67 0 0 1-2.13-1.55c-.75-.6-.5-1.89-1.46-2.31-.37-.28-.72-.65-1.16-.72z" long-name="Missouri" region="MO" short-name="MO" value="54"/>
    <path d="m239.11 30.96-4.69 21.48 3.71 7.43-1.58 4.76 3.4 4.54c.64.29 1.43.41 1.98.8 1.31 2.85 2.72 5.67 3.97 8.53.08.7-.16 1.5.12 2.12L248 83.2c.64-.11 1.14.02 1.36.68.37.44.61 1.12 1.05 1.42h3.3c-.05 1.01.19 2.08-.39 2.98-2.24 5.41-4.55 10.8-6.74 16.23l-.44 3.62c.58.25 1.35.28 1.56.99l1.15 1.86a26 26 0 0 0 4.37-2.5l1.93-1.3c.73.79 1.6 1.5 2.24 2.32.15 1.18.71 2.36.37 3.55-.1 1.04-.56 2.1-.13 3.1.78 2.91 1.46 5.87 2.3 8.75.85 1.11 1.63 2.3 2.53 3.35l2.31 1.4c.23 1.72.54 3.42.43 5.15.05.7-.1 1.46.07 2.1l1.78 1.78 1.48-2.13 7 1.62c.74-.36 1.44-.92 2.2-1.17l8.82 1.66c.95-1.06 1.81-2.25 2.81-3.23l2.1-.7c.73 1.1 1.56 2.14 1.92 3.43l1 2.57c.62.05.36-1.08.6-1.54l1.7-9.14c19.36 2.66 38.71 5.36 58.07 8l50.2 5.21c.7-7.66 1.53-15.32 2.16-22.99l4.96-63.61c-17.84-1.88-35.68-3.72-53.52-5.62-18.07-2.57-36.15-5.1-54.22-7.7l-65.22-12.37Z" long-name="Montana" region="MT" short-name="MT" value="31"/>
    <path d="m401.76 188.02-3.63 43.4 33.1 2.4c-.48 7.37-.94 14.73-1.4 22.1l35.68 1.98c14.73.4 29.46.83 44.2 1.2h31.07c-1.96-3.15-3.93-6.29-5.7-9.54-.01-.54.57-1.25 0-1.62a3.7 3.7 0 0 1-1.3-1.82l-1.51-3.7c.2-.82.65-1.62.66-2.43-.21-1.11-.64-2.2-.72-3.32l.17-2.44c-.38-.34-1.2-.39-1.28-.9-.16-2.04-.21-4.1-.45-6.1-.9-1.68-1.92-3.32-2.75-5.01-.1-1.23-.08-2.5-.25-3.7-.95-1.98-2.15-3.86-2.76-5.98-.32-1-.86-1.96-.7-3.05-.02-1-.8-1.86-.6-2.9-.03-.67.17-1.4-.31-1.96-.7.09-1.43.32-2.08-.12-.56-.3-1.46-.27-1.51-1.06-.41-.96-.5-2.12-1.36-2.8-.6-.84-1.75-.86-2.62-1.29l-4-1.44c-.32-.5-.44-1.25-1.16-1.26-.6-.18-1.21-.5-1.77-.06-.58.42-1.13.28-1.68-.1-.49-.1-1 .65-1.46.1-.46-.48-1.03.6-1.46.06-.47-.66-.92.36-1.42.35-.5-.06-1.17-.8-1.55-.32-.56.54-1.02 1.28-1.63 1.7-.69-.02-1.46.19-2.1.04-.73-.63-1.39-1.43-2.16-1.97-.7-.16-1.6.07-2.06-.62l-2.93-2.75c-12.85-.56-25.7-1.06-38.56-1.64l-50-3.43z" long-name="Nebraska" region="NE" short-name="NE" value="36"/>
    <path d="M910.23 93.24c-.4-.04-.86.69-1.28.84l-.17.13-.48 5.8c.37.82.96 1.62 1.2 2.45l-1.06 3.36 2.09 2.79c-.25 1-.56 1.98-.34 3.01-.17.78-.74 1.47-1.06 2.21-.25.75-1.53.25-1.71 1.07-.21.56-.45 1.09-1.1 1.22-.63.38-1.55.47-1.72 1.31-.5.55 0 1.13.2 1.7.26.78.73 1.55.89 2.35-.1.86-.48 1.73-.42 2.58.12.63.72 1.3.2 1.88-.25.66-.98 1.26-.63 2 .05.62.53 1.32-.04 1.82-.29.56-.9 1.03-.97 1.65 0 .7.24 1.44.1 2.1-.33.53-.8 1.02-.5 1.67.25 1.28.29 2.63.68 3.87.22.63.81 1.22.49 1.92-.1.68-.36 1.4-.34 2.06.3.8 1.04 1.5.79 2.4-.1 1.04-.06 2.1-.58 3.04-.1.54-.35 1.28.09 1.71l1.6 1.98 18-3.72c.44-.68 1.01-1.31 1.01-2.18.04-.61.14-1.18.88-1.2.51-.25 1.35-.14 1.46-.84.2-.87 1.18-1.07 1.8-1.58.38-.56 1.14.1 1.48-.13l.67-4c-.72-.5-1.6-.87-2.23-1.43-.3-.7-.46-1.53-.85-2.17l-3.15-1.97c-.35-1.93-.42-3.93-1.15-5.77l-10.97-33.91c.02.81-.64.8-1.28.8-.68.26-1.04-.3-1.44-.76a.31.31 0 0 0-.16-.06zm24.2 100.9c-1.93 0-3.5 1.35-3.5 3v18c0 1.67 1.57 3 3.5 3h33c1.95 0 3.5-1.33 3.5-3v-18c0-1.65-1.55-3-3.5-3z" long-name="New Hampshire" region="NH" short-name="NH" value="22"/>
    <path d="m144.2 166.99-16.29 62.61c.42 1.18.66 2.46 1.21 3.58 23.27 34.7 46.54 69.4 69.8 104.12.52-1.18 1.24-2.29 1.3-3.6a6.6 6.6 0 0 0 .14-2.8c-.14-1.74-.52-3.47-.25-5.22l.9-12.31c1.34-.2 2.7-.54 4.02-.64 1.29.5 2.57.97 3.86 1.46l1.16 2.62c.56-.12 1.36.25 1.74-.23.67-.86 1.46-1.66 2.05-2.55 7.58-39.04 15.06-78.1 22.6-117.16l1.68-8.74c-8.22-1.68-16.46-3.28-24.67-5.02-8.36-1.87-16.74-3.65-25.08-5.59L144.19 167Z" long-name="Nevada" region="NV" short-name="NV" value="26"/>
    <path d="m878.05 190.97-1.55 2.15c0 .75.16 1.54.05 2.27l-2.87 5.16 1.47 1.77c-.34.8-.48 1.71-.94 2.43-.44.43-1.02.8-.7 1.48l.35 2.47 2.65.88 1.01 2.84c1.2.59 2.37 1.2 3.37 2.09l3.26 2.48c-1.24 1.03-2.6 1.95-3.77 3.05-1.23 1.65-2.26 3.42-3.31 5.18-.72.35-1.67.38-2.08 1.16-.79.77-1.21 1.77-1.64 2.76-.33.69-.27 1.5-.43 2.23.41.46.92.87.87 1.55.22.52-.03 1.38.53 1.64 1.63.78 3.01 1.98 4.73 2.58.69.31 1.35.67 2.02 1-.04.57.17 1.51.71.67.4-.25.66-1.2 1.19-.72.9.57 2.03.36 3.05.55-.12 1.73-.32 3.46-.07 5.19.53-.26 1.3-.27 1.35-1 1.08-2.64 1.95-5.35 2.85-8.05.95-.97 2.04-1.86 2.9-2.88.14-1.07.44-2.17.49-3.23-.11-.49-.8-1-.44-1.46.52-.95 1.17-1.85 1.6-2.82.12-.66-.14-1.21-.54-1.72-.47-.47.22-1.03.32-1.54.3-.79.9-1.52.64-2.4-.28-3.3-.5-6.62-.75-9.93-.75-.06-1.61.22-2.2-.4-.58-.14-1.2-.31-1.66.2-.56.69-.85-.18-1.21-.6-.2-.49-1.04-.9-.73-1.45.3-.8.78-1.56.63-2.45.03-.59 1.01-.55 1.45-.87.63-.18.56-1.04.87-1.54.4-1.06.22-2.25.38-3.37l.18-2.64zm15.85 16.6v.08c.63.96.34-.06 0-.07zm40.54 138.6c-1.94 0-3.5 1.34-3.5 3v18c0 1.66 1.56 3 3.5 3h33c1.94 0 3.5-1.34 3.5-3v-18c0-1.66-1.56-3-3.5-3z" long-name="New Jersey" region="NJ" short-name="NJ" value="49"/>
    <path d="m304.14 311.45-17.3 123.31 14.91 2.1 1.4-10.2 30.11 4c-.43-.55-1.07-1.02-1.37-1.62l.35-3.48c11.9 1.23 23.8 2.52 35.7 3.72l30.49 2.5 7.9-99.28c.82.24.9-.3.85-1l.5-8.83c-17.28-1.62-34.56-3.19-51.83-4.83l-51.71-6.4z" long-name="New Mexico" region="NM" short-name="NM" value="22"/>
    <path d="M880.21 107.55c-.25-.03-.57.08-.9.19l-19.21 4.85c-.84.05-1.74-.16-2.54-.02-1.17.9-2.3 1.85-3.23 3-1.53 1.68-3.14 3.3-4.6 5.04-1.2 2.05-2.44 4.08-3.59 6.15-.27.8-.41 1.68-.76 2.43l-6.07 5.97.08 2.71c.75.38 1.43 1.03 2.22 1.23.49.15 1.56-.32 1.59.3l.11 2.11-1.65 1.07c.55.23.94.6 1.12 1.16.34.77.9 1.51 1.12 2.31l-.43 3.42c-.95.53-1.99.8-3.05.97-1.14 1.17-1.98 2.7-3.2 3.83-.86.79-1.5 1.9-2.65 2.3-.88.34-1.66 1.1-2.67.93-1.29-.02-2.58-.05-3.82.33-.8.22-1.75.14-2.3.87-.6.46-1.06 1.28-1.93 1.17-.76.15-1.36-.55-2.05-.77-.8-.37-1.56-.98-2.5-.8-1.65.04-3.32-.15-4.93.3-2.2.46-4.44.84-6.63 1.33-2.4 1.24-4.82 2.47-7.23 3.7.1.98.07 1.99.23 2.93l1.62 2.7c.57.22 1.28.27 1.76.6l1.85 3.58c-.58.9-1.28 1.7-2.14 2.35-.5.49-1.24.82-1.24 1.61-.22.59-.19 1.36-.57 1.84l-3.79 2.42c-.33.78-.38 1.74-1.18 2.2l-3.63 3.3.72 5.37 70.24-13.85c.64.47 1.45.82 2 1.36.23.47.05 1.5.83 1.26.51.13 1.37-.3 1.6.3 1 1.9 1.92 3.86 2.98 5.7l2.71 1.98c.66-.05 1.35-.31 1.98-.24.88.63 1.75 1.29 2.84 1.52l13.6 4.56-.4 5.8a17.3 17.3 0 0 1 2.44-3.13l1.19-3.03-1.78-2.3 3.43-3.34c-.5-.5-1.24-.87-1.6-1.45l-2.78-16.21c-.32-.53-.91-.98-.7-1.67l.47-14.32c-.3-.42-1.1-.7-1.09-1.23.18-.94.7-1.88.3-2.83l-2.76-13.08-1.42-1.13-1.08 1.92-1.27-3.12c.22-.63.66-1.26.75-1.89l-3.03-6.54c.15-1.36.16-2.76.38-4.11.38-.56.27-1.15.02-1.74a2.72 2.72 0 0 1-.12-1.98c.11-.6.39-1.25-.28-1.61-.54-.64-1.26-1.18-1.68-1.87-.13-1.15-.47-2.31-.47-3.46.16-.6.55-1.29-.3-1.5-.54-.28-1.04-.57-.6-1.2.12-.64.68-1.31.18-1.91-.06-.44-.26-.6-.51-.64zm44.15 78.35a1.1 1.1 0 0 0-.48.01l-.82.98c-.46 1.03.47 0 .88-.24.4-.29.7-.65.42-.75zm-7 .16c0-.03-.1.02-.34.26l-.08.06-.08.05c-.23.62.51-.28.5-.37zm3.22 1.54c-.12 0-.25.06-.4.23l-.7.41c-.12.49.11 1.47-.66 1.03-.64-.38-.88.18-1.11.68l-1.27 2.35h-2.78c.45-.83.8-1.76 1.32-2.53.62-.26.93-.72.91-1.4.1-.57-.78.64-1.1.83-.63.4-.51 1.38-1.3 1.6a4.6 4.6 0 0 1-2.26.98c-2.05.5-4.1 1-6.15 1.52.34.64-.02 1.03-.59 1.35-.62.62-1.61.4-2.4.63-.56.07-1.06-.7-1.02.3.15.93-1.27-.56-.97.38.3.85-.85.28-1.33.36-.55.04-1.3.27-1.22.96.17.8-.67.52-.94.72.33.74.02.96-.5 1 .37.75-.08.98-.8 1.02-.65.1-1.27.22-1.5.9-.45.74-1.1 1.4-1 2.31-.15.49-.14 1.41.59 1.17a2.37 2.37 0 0 1 1.83.04c.39-.36.54-1.16 1.07-1.24.94-.02 1.91.14 2.77-.35.55-.27 1.31-.37 1.75-.76.24-.47.05-1.3.62-1.5.81-.38 1.71-.65 2.47-1.1.4-.33.59-1.18 1.22-.97.66.18 1.22-.03 1.75-.42l3.72-2.08c-.15 1.04.19.65.61 0 .41-.43.64-1.2 1.36-1.04.66.03 1.25-.12 1.73-.58 1.65-1.2 3.49-2.17 4.87-3.7.77-.7 1.46-1.49 2.27-2.14-.29-.3-.5-.94-.86-.96zm-3 .12c-.05 0-.1.03-.16.07.96.53.53-.1.16-.07zm-26.22 16.65c-.32-.04-.74.24-1.06.24.14.82-.35 1.5-.63 2.22.4.36.88-.7 1.31-.92.37-.38 1.12-.79.66-1.37a.4.4 0 0 0-.28-.17z" long-name="New York" region="NY" short-name="NY" value="91"/>
    <path d="m878.84 300.54-28.86 6.05c-13.21 2.44-26.42 4.91-39.64 7.33l-28.84 3.43v5.28c-.61 0-1.28-.19-1.85-.06-.6.52-1.3.97-1.5 1.79l-2.15 4.66-2.75-1.16c-1.07.8-2.27 1.52-3.25 2.39-.27.67-.39 1.45-.75 2.06l-1.78 1.42c-.42-.56-1.31-.9-1.2-1.7.17-.7-.34-1.22-.84-.51l-3.26 2.7-.62 3.44-4.74 2.43c-.26.64-.45 1.32-1.1 1.66-.97.73-1.86 1.61-2.86 2.24-1.2.2-2.43.28-3.6.55l-4.3 2.8-.8 4.1c-.56.32-1.07.89-1.68 1.06-.62.02-1.37-.34-1.77.32-.56.37-.86.87-.73 1.56l-.06 3.36c6.99-1 14-1.93 20.97-2.97 1.5-.6 2.96-1.36 4.49-1.88.68 0 1.34-.08 1.88-.54 2.2-1.27 4.38-2.64 6.61-3.85l23.41-2.22c.38.44.83.85.55 1.47-.32 1.05.38.4.68-.12.35-.43.67-1.14 1.11-.4l3.28 2.99.09 2.32 19.42-2.76 24.42 17.05c1.34-.7 2.63-1.51 3.99-2.14 1.42-.28 2.81-.84 4.29-.7.65-.3 1.03.73 1.39.7.52-.99.64-2.08.74-3.18.2-1.14.15-2.35.52-3.45.59-1.26 1.05-2.59 1.71-3.8 1.88-2.08 3.67-4.24 5.6-6.26 1.37-1.12 2.66-2.36 4.07-3.4 1.84-.76 3.65-1.61 5.5-2.31.9-.09 1.8-.4 2.68-.34.62.25 1.46.2 1.7.96.3-.18.56-1.08.85-1.53 1.12-2.2 2.12-4.47 3.52-6.51.5-.81.53-.85 0-.03l-2.79 4.3-1-1.59 2.06-2.26c-.01-.57-.45-1.42-.87-1.14.38.48 1.05 1.1-.02.94-.5-.06-1.22.33-1.58-.04-.32-.28-.66-1.42-.97-1.13-.38.45-.53 1.26-1.07 1.48l-2.25.28c.62-1.66 1.2-3.33 1.9-4.95l-.17-2.45-2.75-.12 1.7-1.7c1.23.46 2.54.37 3.82.44.45-.34.92-.63 1.5-.5.69-.1 1.55.28 1.98-.41.43-.47 1.03-.85 1.34-1.37.12-1.05.05-2.16.27-3.16.53-.49.94-1.2 1.55-1.55.64-.08 1.29-.16 1.74-.68.71-.27.2-1.04.22-1.6-.18-1.01-.09-2.12-.78-2.96l-1.55-2.69-2.24-.16-1.14 2.03c-.34-.42-.4-1.32-.92-1.42-1.4.1-2.9.08-4.05 1.01-.5.17-1.11 1-1.53.73-.26-.66-1.05-.35-1.45.02-.65.46-1.3.95-2.14.97l-2.2.42c.07-.66-.11-1.42.1-2.03.4-.32.72-1.3 1.2-1.18.53.35 1.13 1 1.78.65.6-.65 1.06-1.49 1.75-2.02 1.2-.58 2.45-1.07 3.6-1.7l2-2.2h2.8c.45.61.65 1.5 1.49 1.69.16-.1-.29-.99-.25-1.4 0-.94-.9-1.43-1.4-2.12-.5-.6-1.14-1.14-1.55-1.79-.11.45-.5.11-.81-.5-.56-.86-1.2-1.65-1.86-2.44zm5.93 4.77 3.25 5.26 1.59 1.85c-.8-1.67-1.9-3.18-2.92-4.72zm2.64 6.82c-.03.03-.02.12-.01.29l1.55 1.36c-.2-.64-.88-1.06-1.27-1.62-.16-.05-.23-.07-.27-.03zm4.9 3.78c-.02-.01.03.2.25.69a2.62 2.62 0 0 0-.25-.69zm1.3 9.65c-.03.02-.06.06-.08.06-.21.22-1.47.92-1.03.85.52-.2 1.48-.06 1.15-.88 0-.06-.01-.06-.04-.03zm-2.13 1.53-.71.51-1.82 1.3-2.54 2.36c0 .74.75-.56 1.08-.72 1.08-1.2 2.33-2.2 3.62-3.15.47-.36.51-.4.37-.3z" long-name="North Carolina" region="NC" short-name="NC" value="75"/>
    <path d="m412.87 56.73-5.14 65.9 38.79 2.87c15.5.7 31 1.44 46.5 2.1l28.6.4c.18-2.48-.14-4.95-.21-7.41-.96-2.51-2.02-5-2.9-7.52.1-1.93.32-3.88.35-5.8-.39-1.24-1.11-2.41-1.01-3.75l-.64-12.82c-.65-1.27-1.43-2.5-1.72-3.93l-2.31-7.8c.38-.7.65-1.45.6-2.27.03-1.29.22-2.62.17-3.89-.19-.55-.9-1.07-.68-1.65.3-.89.79-1.78.98-2.67L512 61.7c-18.45-.54-36.9-1.05-55.34-1.62l-43.8-3.34z" long-name="North Dakota" region="ND" short-name="ND" value="29"/>
    <path d="m781.6 195.82-8.78 4.81c-1.3 1.1-2.7 2.1-3.92 3.28l-4.8 5.78c-1.78.13-3.6.14-5.36.35a65.37 65.37 0 0 0-6 3.75c-.61-.02-1.3.2-1.86.04l-2.07-1.41c-.74.2-1.62.12-2.27.49l-1.55 1.46c-.97-.4-1.94-.82-2.9-1.23 1.02-.5 1.97-1.22 3.05-1.57l2.6-.42c.05-.6-.99 0-1.33-.37-.55-.43-1.07-.73-1.33.12-.24.6-.65.84-1.28.7-.7.2-.94-.53-1.33-.95-1.72-.39-3.3-1.13-4.91-1.83l-2.01.42c-.44-.35-.65-1.28-1.3-1.05l-20.4 3.34 6.52 56.58c.95.52 2.02.41 3.06.48.69-.23 1.37-.69 2.06-.79 1.03.47 2.17.81 3.14 1.36l2.27 3.52c-.23.79.32.92.99.95 1.34.19 2.67.62 4.02.35.62-.05 1.3-.27 1.63.42.53.52.97 1.21 1.55 1.62.45-.12 1.55.48 1.51-.16-.23-.75.7-.73 1.17-1.02.57-.21 1.12-.65 1.72-.3 1.14.38 2.44.41 3.38 1.23.45.38.96-.36 1.43-.48.74.24.9-.34 1.05-.94.05-.67.64-.87 1.16-1.13l2.94-1.55c.52.72.9 1.5 1.06 2.38.24.5.14 1.32.61 1.62l3.26 1.3 1.1 1.91c1.04-.4 2.05-1 3.12-1.28.7.08 1.3.07 1.14-.8l.29-2.56c.38-.33 1.34-.43 1.31-.92l-1.2-3.3c.51-.7 1.36-1.23 1.29-2.18a6.2 6.2 0 0 1 .72-2.6c.3-.4.34-1.37.82-1.37l1.96.6.52 1.85c.78-.16.93-1.23 1.77-1.2.5-.08.34-1.22.12-1.55l-1.58-1.25c.4-.35 1.37-.35 1.32-.96.03-.78-.32-1.65.28-2.28l1.11-1.89c.57-.05 1.43.27 1.37-.58.2-.84 1.03-1.37 1.5-2.08.34-.8.76-.23 1.17.18.47.8.93.3 1.39-.21.43-.37.77-1 1.43-.8.94-1.03 1.9-2.04 2.53-3.3.45-.63.75-1.43 1.28-1.97.68-.18 1.11-.55 1.07-1.3.16-.6.24-1.18-.15-1.71-.39-.62.2-1.32.26-1.98.3-1.12.72-2.22.6-3.4.07-1.42 0-2.86.13-4.26.32-1.1.8-2.2 1-3.29-.27-.96-.7-1.9-.5-2.91.07-.64.1-1.26-.4-1.74l-1.12-1.69 2.33-1.27z" long-name="Ohio" region="OH" short-name="OH" value="78"/>
    <path d="m408.47 322.73-.55 9.8 52.59 3.2-1.4 42.83c.86.48 1.87.78 2.66 1.37.82.92 1.56 2 2.44 2.83.63.18 1.25.33 1.66-.32.37-.66.95-.39 1.51-.16.64.13 1.1.63 1.63.97l1.1-1.5 2.75 2.03.5 2.87c.53.36 1.07.68 1.73.52.73.01 1.52-.26 2.12.27 1 .5 1.96 1.14 2.98 1.56a9.2 9.2 0 0 0 3.2-.5c.49.1.85.77 1.3 1.09.44.25.92 1.37 1.3.56l1.57-1.8 3.9 1.22 1.85 2.93 2.65-.12-.78 2.32 1.75.83 3.03-2.62 2.68 1.75c.51-.12 1.26-.63 1.62-.52.1.58-.02 1.3.2 1.8.48.16 1.06 1.2 1.45.54l2-2.18 1.72 1c-.07.73-.3 1.5-.27 2.22.35.37.49 1.61 1.09.93.73-.48.96-1.43 1.47-2.12l1.6-2.7c.74.77 1.4 1.66 2.19 2.34.78.12 1.58.65 2.34.2.55-.07 1.2-.64 1.69-.38l1.9 1.7c.57 0 1.25-.32 1.62.3.46.41.86 1.02 1.53.6l2.5-.62.61-1.74c1.38-.08 2.79-.3 4.16-.3.56.13 1.14.79 1.7.5l4.95-2.48.65 1.64 4.54-.27.54-1.75c1.18.56 2.55.8 3.48 1.76 1.3 1.04 2.54 2.17 3.86 3.14l5.73 1.7c.21-12.84.48-25.7.67-38.53-1.36-8.15-2.76-16.28-4.09-24.43l-.19-10.3c-20.64-.04-41.28-.05-61.92-.12-22.7-.98-45.4-1.92-68.1-2.93-5.14-.3-10.28-.62-15.4-.93z" long-name="Oklahoma" region="OK" short-name="OK" value="43"/>
    <path d="M108.67 60.56c-.03 0-.06.03-.07.07v3.17c-.18.57-.87.93-1.25 1.42-.5 1.07-.75 2.3-1.15 3.44-.08 1.16.06 2.35-.5 3.41-1.52 4.06-2.93 8.17-4.52 12.2-4.29 10.16-8.55 20.32-12.85 30.46L85 119.5c-.45.1-1.55-.44-1.36.32-.02.66.29 1.42-.31 1.91l-4.84 6.6-.28 3.04c.41.64 1.19 1.15 1.02 2-.03.68.16 1.44 0 2.06-.6.58-1.36 1.05-1.53 1.93-.34.99-.98 1.92-.78 3 .05 1.55 0 3.11.12 4.64l1.06 2.56c22.06 6.2 44.12 12.43 66.2 18.62l46.3 11.03c2.82-12.33 5.6-24.68 8.44-37 .96-1.95 1.99-3.88 2.9-5.85.17-.7.2-1.48.46-2.14.59-.43.72-.93.26-1.52-.14-.69-.64-1.01-1.29-1.18l-2.08-.87.22-4.6 4.14-6c.84-.3 1.78-.49 2.55-.88.44-.7 1.06-1.36 1.39-2.1.08-.56-.34-1.34.12-1.75.8-.76 1.8-1.37 2.23-2.44.94-1.55 1.78-3.19 2.8-4.7l3.94-4.51c-.2-.97-.23-2.03-.53-2.94-1.13-1.04-2.34-2-3.42-3.08-.5-1.14-1-2.28-1.52-3.42l-29.99-7.22c-.96.3-1.91.76-2.89.97-1.86-.34-3.76-.56-5.6-.98-.54-.14-1.13-.82-1.64-.61-.49.3-.89.91-1.44 1-1.55-.14-3.09-.57-4.64-.24-1 .15-2.06.16-3.03.39-.46.36-.88.85-1.52.6l-3.92-.37c-.32-.52-.5-1.23-.9-1.63-1-.35-1.95.29-2.93.48-.81.19-1.67.6-2.46.65-.54-.3-1.04-.85-1.6-1l-2.4.87c-.12-.7-.05-1.53-.31-2.14-.97-.45-1.84-1.17-2.96-1.15-.75.08-1.05-.71-1.54-1.14-1 .05-2.05.3-3.03.24-.58-.35-1.09-.94-1.83-.76-.74.03-1.12 1.04-1.93.95l-5.24.67-6.95-4.43c.36-1.97.8-3.94 1.13-5.9-.17-1.3-.18-2.65-.44-3.9l-2.93-3.38-3.8.1c-.17-.7-.78-1.4-.34-2.1.43-.57-.25-1.22-.84-.93-.47.35-.77 1.08-1.27 1.33l-1.84-.24c-.28-.5-.34-1.32-1.1-1.15-.42.29-.85 1.06-1.25.33-.3-.17-.9-1.02-1.11-.99z" long-name="Oregon" region="OR" short-name="OR" value="31"/>
    <path d="M863.98 179.55a.81.81 0 0 0-.25.07l-69.85 13.77c-.74.34-.4-.82-.6-1.23l-.58-4.4-3.74 3.02a1.5 1.5 0 0 0-1.47.77c-.74.76-1.39 1.66-2.2 2.35l-2.95 1.52c2.68 16.3 5.35 32.6 8 48.92 6.15-1.06 12.32-2 18.47-3.12l58.83-11.48c.6-.87.88-2.02 1.87-2.54.53-.44 1.08-.83 1.8-.84.55-.14 1.09-.26 1.6.07.63.49 1.05.11 1.4-.48.35-.46.69-.95 1.31-1.04.65-.14 1.14-.47 1.37-1.11.93-1.58 1.9-3.16 3.04-4.58l2.82-2.22c-1.42-1.01-2.72-2.2-4.21-3.1-.58-.36-1.31-.58-1.8-1.02l-.95-2.67-2.75-.91c-.2-1.35-.38-2.7-.56-4.05.56-.57 1.25-1.07 1.37-1.92.42-.64.2-1.16-.34-1.62-.22-.47-1.14-.87-.71-1.4l2.9-5.2c.02-.78-.2-1.62-.03-2.35l1.57-2.17c-.56-.3-1.03-.99-1.73-.68-.6.03-1.3.45-1.77-.13-.92-.7-1.93-1.34-2.8-2.1l-2.88-5.58h-2.07c-.23-.57-.18-1.33-.6-1.76-.51-.22-.95-.84-1.51-.8z" long-name="Pennsylvania" region="PA" short-name="PA" value="67"/>
    <path d="M926.71 164.04a.63.63 0 0 0-.27.1c-1.75.54-3.5 1.09-5.26 1.62l3.14 12.06c-.21.59-.55 1.17-.25 1.79 0 .9.84-.2 1.27-.32l3.77-2.42.08-2.61c-.24-.42-1.23-.77-.67-1.27.38-.42.39-1.32-.12-1.63-.28-.34-1.56-.85-.56-.96.7-.15 1.24-.36.58-1.03-.19-.42-.78-1.2-.72-1.41.38.03 1.5.88 1.1.06-.27-.46-.08-1.53-.7-1.52-.76.24-.6-.72-.82-1.17-.2-.36-.13-1.23-.5-1.29zm4.1 5.44c-.24-.06.21 1.02.17 1.17l.87 1.5c-.1-.62 0-1.23.04-1.84.83 1.1 1.26 2.4 1.85 3.62.74-.34-.06-1-.18-1.51-.37-.76-.6-1.62-1.38-2.06-.27-.5-.66-.45-1.21-.78a.39.39 0 0 0-.15-.1zm.42 2.94c-.1-.01-.1.06.1.26.26.65-.57 1.43-.12 2.08.4-.48.98-.9.72-1.6.17-.28-.49-.7-.7-.74zm-2.24 9.25c-.04.01-.1.07-.18.18-.34.86.99.75.39.07-.1-.17-.14-.27-.2-.25zm5.45 103.69c-1.94 0-3.5 1.34-3.5 3v18c0 1.66 1.56 3 3.5 3h33c1.94 0 3.5-1.34 3.5-3v-18c0-1.66-1.56-3-3.5-3z" long-name="Rhode Island" region="RI" short-name="RI" value="19"/>
    <path d="m796.73 347.13-22.7 2.15c-2.47 1.43-4.9 2.95-7.4 4.31-.86-.02-1.66.2-2.42.61l-2.92 1.26-.1 1.88c-.65.4-1.44.66-2.01 1.13-.4 1-.94 1.97-1.25 2.98-.03.68.27 1.14.9 1.38l5.07 3.15 2.68-.31c1.1 1.45 2.28 2.85 3.31 4.33.22.82.25 1.73.96 2.3 1.2 1.45 2.37 2.95 3.61 4.35.87.5 1.66 1.22 2.59 1.59.71.06 1.42.15 1.94.7.7.6 1.7.94 1.99 1.9.4.75.65 1.63 1.45 2.06.64.53 1.26 1.1 2.13 1.2.58.1 1.08.31 1.42.8l2.31 2.32c.1.68-.1 1.49.58 1.92.73.72 1.35 1.6 2.16 2.2l4.86 2.25c1.23 2.32 2.53 4.62 3.72 6.96l.27 2.5 3.82 2.05c.86 1.7 1.81 3.37 2.62 5.09l.7 2.73 3.66.35c.32-.46.48-1.17.89-1.48.83.18 1.28-.7 1.9-1.09.57-.45.45-1.33.72-1.98.15-.6.94-.73 1.37-1.13.6-.46 1.4-.8 1.89-1.33l.23-1.89c-.4-.37-1.2-.73-1.33-1.12.46-.32.9-.95 1.38-1.1.53.4 1.09.46 1.67.15.71-.48 1.19-1.33 1.8-1.95.8-.63 1.86-.92 2.76-1.42.64-.3 1.34-.5 1.62-1.22.43-.75 1.17-1.39 1.15-2.31l4.74-4.35c-.1-.52-1.19-.77-.98-1.26l1.31-1.8c.52-.02 1.21-.03 1.48.2.31-.67 1.02-.48 1.63-.5.33-.62.45-1.46 1.14-1.86l1.65-1.5c-.08-1.8-.24-3.59-.27-5.37.44-1.26.8-2.56 1.58-3.66 1.02-1.68 1.92-3.44 3-5.07.91-.75 1.68-1.71 2.68-2.33.31-.3 1.76-.51 1-.9l-23.48-16.39-19.99 2.84-.1-2.87-2.87-2.6-1.12 1.4c-.37-.3-1.36-.25-1.22-.84-.05-.43.5-1.4-.18-1.41z" long-name="South Carolina" region="SC" short-name="SC" value="50"/>
    <path d="m407.66 123.42-1.96 20.3-3.87 43.5 50.7 3.47 37.35 1.57c.64-.12 1.08.23 1.47.69.95.84 1.83 1.83 2.82 2.57.71.17 1.6-.07 2.06.63.58.48 1.09 1.17 1.72 1.53.62-.1 1.42.16 1.76-.52l1.48-1.64c.57.12 1.19.7 1.72.5.48-.35.97-.87 1.45-.22.43.38.97-.6 1.41-.06.5.57 1.07-.53 1.59-.02.54.51 1.1.16 1.66-.1.62-.34 1.29.24 1.93.32.7.02.97.59 1.23 1.15.42.47 1.22.5 1.79.79 1.46.56 3 1.01 4.42 1.64.62.71 1.43 1.3 1.58 2.3.28.5.25 1.31.73 1.64.7.25 1.38.69 2.14.42.1-.36-.42-.99-.48-1.5-.09-.6-.24-1.19-.81-1.52-.42-.39-1.04-.71-.65-1.35.49-2.13.92-4.27 1.7-6.32.26-.9.7-1.8.84-2.69-.28-.51-.26-1.34-.75-1.64-.48-.23-1.3-.14-1.25-.86-.06-.54-.45-1.22-.32-1.67.55-.26 1.23-.44 1.06-1.2-.38-.54-1.01-1.01-1.28-1.6l.12-2.06 2.18.1.2-38.94c-.49-.55-.88-1.25-1.43-1.7l-2.6-.6c-.26-.97-.29-2.04-1-2.8-.37-.63-.95-1.21-1.18-1.86.24-.6.1-1.5.84-1.73.88-.58 1.89-1.06 2.7-1.72.37-.88.93-1.72.82-2.72.32-.89-.45-.74-1.07-.73-9.57-.14-19.14-.23-28.7-.4-15.3-.72-30.6-1.38-45.9-2.12z" long-name="South Dakota" region="SD" short-name="SD" value="29"/>
    <path d="m780.76 316.78-3.63.4c-.05.66-.2 1.22-.99 1.08-9.48 1.1-18.97 2.15-28.46 3.26-1.92.45-3.82 1.02-5.76 1.4-6.86.48-13.72.9-20.58 1.43-2.46.36-4.91.86-7.41.9-4.99.3-9.98.54-14.95.88-1.3.38-2.57.91-3.94.9l-21.37 1.9c-.43-.51-.96-.75-1.62-.62h-2.07c.35.95.7 1.9 1.07 2.85-.43.45-.57 1.39-1.33 1.26l-22.82 1.47c-.37.27-.69 1.26-1.1 1.06-.37-.26-.9-1.05-1.3-.64-.15.66.3 1.17.61 1.7-.16.47.13 1.28-.38 1.47-.95.13-.78.52-.14 1.03.6.42.64.8-.03 1.16-.4.57-.97.6-1.6.44-.05.34.82.87 1.16 1.26.27.3.35 1.23-.07 1.4-.57.24-1.24.38-1.38 1.08-.12.48-.88 1.13-.34 1.54.4.38 1.16.67 1.34 1.09-.33.36-.38 1.22-.97 1.13-.9-.12-1.06.06-.3.63.38.38.2 1.02.35 1.5-.55.18-1.33 0-1.72.4-.2.72-.85.73-1.48.77-.48-.06-1.44.5-.91.98.38.3 1.27-.37 1.4.4.2.48.91 1.06.15 1.35-.32.43-1.2.67-1.19 1.2l.47 1.75-2.24-.67c.02.63.6 1.2.25 1.86-.22.36-.04 1.65-.56 1.3-.77-.72-.62.07-.55.73.34.55-.65 1.05-.3 1.43.44.38 1.12.67.74 1.34-.3.66-.08 1.14.53 1.5.39.4-.54.97-.7 1.44-.24.68-1.02-.35-1.36-.1l-.72 1.75c12.5-.86 25.01-1.66 37.5-2.57 14.97-1.32 29.94-2.6 44.9-3.94l22.15-2.8.1-4.73c.59-.48 1.1-1.17 1.74-1.53.7 0 1.48.31 2.01-.3.77-.3.55-1.25.78-1.9.22-.85.25-1.82.58-2.6 1.61-1.01 3.19-2.13 4.82-3.09 1.19-.2 2.42-.26 3.57-.55.98-.84 2.08-1.6 3-2.5.26-.55.34-1.29 1.05-1.43l4.08-2.09.6-3.35 4.26-3.52c.45.23 1.4.03 1.3.7.08.62-.1 1.34.53 1.7.52-.47 1.28-.78 1.35-1.57.29-.63.25-1.5 1-1.81l3.27-2.34 2.45 1.04c.79-1.66 1.5-3.37 2.34-4.99.55-.4 1.03-1.01 1.62-1.3.62.05 1.42.3 1.14-.62.04-1.43-.09-2.9.06-4.3z" long-name="Tennessee" region="TN" short-name="TN" value="58"/>
    <path d="M407.3 333.3c-.53.1-.18 1.12-.36 1.6l-7.74 97.33c.12.76-.9.18-1.33.3-10.67-.9-21.34-1.72-32-2.65l-32.91-3.44-.24 2.42c.68.67 1.23 1.53 2 2.08.75.37 1.66.58 2.32 1.04.63 1.27 1.12 2.63 1.83 3.84.39.5 1 .92 1.24 1.45-.17.64-.29 1.27.43 1.6.71.64 1.43 1.29 2.37 1.56.66.33 1.42.53 2.01.93 1.15 1.51 2.18 3.13 3.4 4.57.8.76 1.74 1.43 2.46 2.24.24.66.31 1.44.65 2.02l2.87 1.79c.03.56-.2 1.25.46 1.52.62.47 1.12 1.2 1.98 1.1.92.5 1.76 1.23 2.65 1.82.36.46.52 1.21 1.24 1.11.78-.08.87.4.77 1.07.06.58.8.9 1.13 1.36.73.47.49 1.43.7 2.17.17.89.15 1.85.46 2.7.82 1.35 1.77 2.66 2.51 4.05 0 .86.16 1.76.05 2.6-.15.56-.93 1.12-.5 1.67.3.5.6 1 .37 1.6-.21.64 0 1.2.4 1.73.57 1.07 1.27 2.1 1.78 3.2.08.62-.03 1.33.17 1.9l3.1 2.84c.57.02 1.15.05 1.55.52.37.42 1.26.65 1.28 1.2-.41.67.28 1.04.7 1.48.85.78 1.58 1.75 2.51 2.4a9.8 9.8 0 0 0 3.21.9c.62.76 1.12 1.68 1.8 2.32l3.5.49 2 2.87c.62-.1 1.17.03 1.57.54.57.37.98 1.15 1.74.93.57-.08 1.39.09 1.8-.16.13-.52-.15-1.33.26-1.66.6-.3 1.37-.43 1.57-1.17.33-.38.37-1.2 1-1.1.7.1 1.15-.35 1.61-.78.68-.48.54-1.45.83-2.16.35-1.15.4-2.44 1.2-3.4 1.1-1.75 2.16-3.5 3.23-5.27l3.55-1.29 2.05.56 1.34-1.95c1.5.72 3 1.56 4.52 2.21 1.52.02 3.06-.04 4.57.03.91.33 1.78.87 2.72 1.07.63-.08 1.38.16 1.93-.13.45-.3.91-.95 1.37-1.03.43.43.87.82 1.52.66.58.45.97 1.26 1.48 1.84.4.5.68 1.18 1.42 1.17.64.05-.05 1.11.87 1 .83 0 .62.78.68 1.37-.21.78.57.92 1.1 1.22l2.25 1.16c.04.57-.2 1.26.44 1.58 1.54 1.49 3.17 2.9 4.66 4.44.58 1.07 1.28 2.1 1.8 3.2.06.83-.05 1.7.53 2.39l2.27 4.14c.02.7-.16 1.46-.02 2.12l1.94 2.14c-.32.67.23 1.06.66 1.5.37.42 1.03.82.37 1.3-.38.44-.43 1.21-.34 1.7.55.32 1.07.66.94 1.39.13.61-.1 1.4.59 1.73a98.58 98.58 0 0 0 4.4 3.67l.86 2.3c.7 0 1 .48 1.2 1.1.3.59.64 1.17.46 1.86-.1.63-.1 1.22.55 1.53l3.14 2.75c.58 0 1.2-.14 1.59.4.45.46 1.11.78 1.45 1.3.25 1.13.62 2.26.8 3.39l-.65 2.8c.45.64 1.38 1.06 1.32 1.95.1.91.4 1.83.03 2.73.03.5-.7 1.4.04 1.55.62.2 1.2.42.97 1.18-.14.67.09 1.17.7 1.48.8.5 1.28 1.27 1.75 2.06.62.84.5 1.97.8 2.94.28.97.13 2.14.92 2.88.37.6 1.12 1.05.93 1.84-.25.78.78.62 1.25.87 1.33.42 2.7.76 4 1.22l3.08 2.5c.72.02 1.48-.16 2.17-.04a15 15 0 0 1 3.21 2.26c.8.58 1.47 1.41 2.37 1.81 1.21.32 2.4.84 3.68.68 1.97.03 3.97-.05 5.94.04.78.25 1.66.34 2.4.69l3.3 3.6c.53.1 1.1.1 1.61.29-.14-.59-.25-1.16.4-1.45.5-.36.92-.94 1.45-1.18l1.9.18c-.13-.55-.76-.96-1.08-1.45a9.12 9.12 0 0 1-1.78-2.65c-.66-.86-.32-1.97-.4-2.97.06-.7-.48-1.25-.7-1.88-.42-.26-1.23-.17-1.24-.81-.07-.54-.47-1.25-.35-1.69.57-.21 1.26-.33 1.16-1.1a4 4 0 0 0 .01-2.3c-.2-.62-.1-1.42-.5-1.94-.47-.48-1.14-.87-1.48-1.4v-3.39c.34-.38 1.21-.55 1.21-1.06-.21-.89-.34-1.78-.49-2.68.48-.06 1.44.47 1.3-.38-.01-.5.3-1.39.1-1.67-.64.14-1.28.63-1.92.22-.9-.29-1.79-.6-2.66-.96 1.4-.32 2.9-.4 4.29-.7.64-.45 1.34-.84 1.62-1.61.69-.8.52-1.9.68-2.87.03-1.11.85-1.99 1.26-2.99.28-.54.79-1.12-.04-1.42-.5-.43-1.22-.65-1.63-1.12l-.37-1.74c.73-.46 1.47-.9 2.2-1.35.58.16 1.16.53 1.73.57.6-.3 1.38-.4 1.57-1.16.62-1.24 1.5-2.37 1.67-3.78 0-.68.7-.93 1.1-1.37.77-.13 1.61-.05 2.17-.68l1.71-1.27c-.28-.53-.55-1.06-.25-1.65l.53-2.2 1.58 1.57c.85-.01 1.7-.07 2.45-.52.95-.48 2.02-.76 2.88-1.35.57-.48-.62-.85-.87-1.28-.9-.83-1.93-1.47-3.04-1.95l-1.05-2.9h2.4c.16.63.15 1.38.42 1.93.52.22 1.01.94 1.56.83.73-.43 1.62-.68 2.25-1.23l1.05-1.44 2.05.14c.04.79.28 1.62.2 2.37-.47.46-.67 1-.56 1.64-.22.7-.76.82.18.3 2.23-1.04 4.58-1.82 6.69-3.1 2.41-1.22 4.64-2.8 7.04-4.06.95-.47 2.02-.78 2.9-1.35 1.92-1.83 3.73-3.78 5.85-5.37 1.63-1.35 3.26-2.7 5.04-3.86.05-.62-.98-.23-1.26-.68l-3.31-3.42c-.07-.68-.36-1.42-.3-2.07.7-.91 1.33-1.9 2.08-2.77.87-.43 1.7-1 2.59-1.35.71-.19 1.08.19 1.27.84.2.63.93 1.23.45 1.88-.06.53-.8 1.18-.36 1.62.38.53 1.16.18 1.73.32l1.88.06c-.37.53-.55 1.26-1.03 1.65-.82.37-1.8.5-2.32 1.33-.25.35-1.14 1.12-1 1.2.77-.66 1.33-1.63 2.38-1.87 3.85-1.45 7.5-3.4 11.27-5.03l2.59-.22c-.89-.67-1.2-1.8-1.78-2.7l1.85-1.3c0-1.08.9-1.83 1.36-2.74.35-.7 1.08-1.3.93-2.16-.04-1.3.2-2.65-.04-3.93l-.61-2.66 1.24-1.44-1.26-2.24 3.35-6.51.1-6.8c-.7.14-1.14-.05-1.08-.82-.27-1.25-.41-2.56-.76-3.78l-3.74-4.54-.7-5.38c-.85-.98-1.85-1.88-2.61-2.9-.31-1.68-.85-3.34-.75-5.07-.25-9.96-.53-19.93-.65-29.9-.95-.19-1.92-.56-2.86-.65l-2.82 1.31c-.95-.8-1.84-1.7-2.83-2.44-2.11-.65-4.26-1.23-6.35-1.92-1.56-1.26-3.07-2.59-4.65-3.8-.54-.15-1.24-.65-1.68-.58-.28.44-.12 1.45-.8 1.37l-5.28.32c-.31-.38-.28-1.66-.9-1.19l-4.43 2.21c-.81-.29-1.57-.93-2.48-.67l-2.54.2-.59 1.66-4.01 1.01c-.49-.38-.9-.96-1.43-1.22-.6.05-1.23.24-1.6-.36l-1.45-1.3c-.7.18-1.4.55-2.1.63-.72-.23-1.55-.29-2.2-.62l-1.44-1.6c-.8 1.28-1.5 2.63-2.35 3.86l-1.56 1.04c-.4-.8-.97-1.57-1.26-2.4l.26-1.76c-.59-.65-1.01-.14-1.43.4l-1.57 1.72-2.15-1.51c-.04-.62.1-1.51-.73-.9-.53.32-.94-.42-1.42-.6-.5-.23-1.02-.82-1.5-.86l-2.9 2.51-2.85-1.36c.2-.63.42-1.26.63-1.88l-1.95.08-1.95-3.07-3.1-.98-2.11 2.42-2.44-2.33c-1.08.44-2.24.4-3.38.45-1.2-.6-2.38-1.37-3.6-1.9-.77 0-1.57.17-2.31.04-.44-.38-1.3-.47-1.41-1.07-.2-.89-.23-1.88-.54-2.7l-1.77-1.31-1.09 1.5c-.84-.56-1.58-1.3-2.6-1.5-.43.25-.75.96-1.27.93-.7-.23-1.66-.05-2.05-.82-.74-.85-1.42-1.8-2.2-2.59l-2.78-1.33 1.4-42.58c-17.47-1.05-34.93-2.14-52.4-3.17zm113.85 184.82c-.4.05-.9.4-1.29.48l-1.18.46c-1.16.78-2.43 1.46-3.51 2.3-.69 1.76-2 3.16-3.02 4.72l-2.37 3.36c1.56-2.08 3.1-4.2 4.68-6.27 2.35-1.65 4.7-3.31 7.03-4.97a.47.47 0 0 0-.34-.08zm-13.05 13.7-1.75 2.47-1.87 5.27zm-4.5 18.93c.35 1.21.14.44 0 0z" long-name="Texas" region="TX" short-name="TX" value="162"/>
    <path d="m238.92 188.27-20.85 108.21c15.47 2.74 30.93 5.52 46.4 8.22l38.99 5.85 11.4-87.5-32.12-4.8 3.3-21.91z" long-name="Utah" region="UT" short-name="UT" value="40"/>
    <path d="m827.17 245.3-.05.24c.26.58.75 1.13.88 1.72-.31 1.1-.98 2.13-.77 3.3l.07 2.05c-.51.44-1.4.62-1.4 1.42-.22.7-.14 1.58-.89 1.97-1 .88-1.57 2.16-2.68 2.94l-1.12 2.8-2.35-1.08c-.77 2.73-1.44 5.5-2.26 8.2l-1.45 1.78c-1.06-.2-2.13-.38-3.2-.57-.48-.64-.86-1.4-1.4-1.95-.47-.02-1.42-.7-1.57-.28l-.1 4.11c-.4.59-1.06 1.13-1.32 1.75.02.51.55 1.16.22 1.58l-1.95 2.05c.06.65.43 1.35.3 1.98-1.22 2.16-2.57 4.26-3.73 6.45l-.85 2.8 1.6 1.28c-.52.74-1.23 1.42-1.64 2.2-.05.57.37 1.33-.28 1.66l-2.43 2.11c-.36-.35-.56-1.53-1.12-.84l-3.78 2.72c-.44-.14-1.11-1.05-1.4-.7-.72.68.93.67.48 1.24-.33.52-.48 1.23-1.19 1.34l-5.23 2.28-2.8-1.68c-.34.76-.63 1.56-1.34 2.04-.52.4-.92 1.06-1.51 1.3-.83-.01-1.7.15-2.5.05l-4.6-2.4c-.16-.52.19-1.38-.37-1.62-.37-.3-1.44-.4-1.33-.84.19-.26 1.07-1.53.47-.97l-4.54 6.11c-1 .38-2.05.65-3 1.08-.91.97-1.97 1.87-2.8 2.88-.18.72-.17 1.56-.47 2.2l-2 1.24c-.1.56.07 1.25-.2 1.75-.57.47-1 1.2-1.67 1.52-.48.28-1.42.1-1.56.7-.2.52-.2 1.21-.5 1.63-1.78.65-3.27 1.85-4.91 2.76-.39.27-1.3.73-1.38.9l26.7-3.06c.06-.66.2-1.23 1-1.09l4.78-.52c-.63.86.12.68.8.57 9.3-1.13 18.61-2.2 27.91-3.35 13.29-2.47 26.58-4.9 39.86-7.4l27.8-5.83c-.1-.47-1.02-1.3-.1-1.3.52-.44 1.12.5.86-.37l-.42-2.65 1.45 1.08c-.71-1.23-1.57-2.41-2.2-3.66 0-.52.14-1.37-.48-1.47-.88.16-.48.8-.25 1.38.57.82-.44.53-.97.58-.67.28-.6-1.05-.98-.12-.32.64-.73-.62-1.1-.83-.36-.53-1.16-.2-1.71-.34-.43.3.5.94.64 1.35.5.67.96 1.35 1.43 2.04-.97-.5-2.04-.9-2.92-1.5-.12-.57-.6.3-1.16.07l-2.36 2.68c.2-1.37.65-2.7.56-4.1-1.02-.57-2.14-.84-3.26-1.14-.16-.8-.05-1.69-.47-2.42-.2.7-.56.88-1.11.35-.6-.27-1.13-.93-1.83-.64l-1.85.28.4-1.75c.66-.03 1.37-.3 2.02-.18.52.51 1.07.33 1.62-.03.56-.44 1.12-.32 1.68.03.56.18.59.91.9 1.35-.2.79.9.53 1.37.76.74-.1.44.91.94 1.12.65.13.96.69 1.32 1.18.44-.43.8-1.07 1.3-1.37.5.06.28-1.5-.27-.55-.51.73-.81.1-1.12-.42-.3-.55-.6-1.1-1.2-.5l-.11-1.88c-.7.05-1.44.36-2.04-.16-.82-.46-1.82-.68-2.3-1.55-.69-.84-1.43-1.65-1.9-2.63 1.8.6 3.25 1.94 4.97 2.73.32.32 1.71-.25.9-.44-.35-.3-1.58-.48-.77-.95.53-.44-.77-.59-1.07-.9-.31-.3 1.38-.14 1.2-.62-.12-.47-.52-1.34-.45-1.55l1.7 1.4c.24-.25.6-1.76.74-.87.22.58.3 1.28.62 1.8.57.4.98.69.47-.09l-.08-2.15c-1.1.04-1.97-.73-2.95-1.13.3-.41 1.16-1.08.12-.9-.69.28-.94-.64-1.48-.29-.56.32-1.11.51-1.63 0-.5-.3-1.15-.48-1.24-1.15-.16-.9-1.18-1.03-1.82-1.5-1.3-.83-2.36-1.98-3.56-2.94a9.21 9.21 0 0 1-1.94-1.97c1.51.23 2.83 1.04 4.24 1.6.46.53.75 1.32 1.55 1.4.71.26 1.55.34 1.96 1.06l1.24 1.34.26-2.24 1.11 2.4c.49-.01 1.46.58 1.62.16-.04-1.08.08-2.21-.06-3.26a1229 1229 0 0 1-1.43-1.97l1.83.67c.3-.79-.32-1.02-.96-1.25-.96-.43-1.9-.96-2.98-.96-.7-.08-1.4-.2-2.1-.3.02-.5.7-1.4-.18-1.32-.8.15-.79-.62-1.26-.72-.74-.2-1.02.2-1.07.89-.07.99-.59-.39-.9-.67-.24-.7-1.04-.32-1.6-.41-.79.05-1.56 0-2.26-.4-.66-.13-.1-1.23-.84-1.32-.64-.18-1.02-.58-1.06-1.26-.04-.95-.5-.74-.79-.01-.4.39-1.17.19-1.54.72-.55.65-1.46.26-2.2.37-.44-.26-.66-.93-1.02-1.33-.4-.5.04-1.22 0-1.81.15-1.63.54-3.2.87-4.8.42.36-.8-.9.41-.56.68.06 1.19-.27 1.62-.76.17-.54.43-1.22.33-1.8-.25-.46.17-1.08-.39-1.43-.4-.34-.95-.4-1.3-.83-.32-.6-.92-.47-1.48-.5-.58.04-.92-.37-1.27-.75.27-.65-.78-.54-1.16-.81-.68.42-1.45.2-2.19.16-.4-.4-.76-.87-1.35-.99-.18-.58-.49-1.2.11-1.63.65-.65-.14-.9-.74-.89-.5-.34-.86-1.09-1.57-.8-.52.1-1.17-.32-1.61-.14-.6 1.36-.74 2.9-1.11 4.34-.07.69-.92-.29-1.33-.34zm55.59 20.95c-1.25.43-2.5.86-3.73 1.3-.22.32-1.18 1.04-.53 1.26.65.2.08 1.1.17 1.63-.14.36.03 1.6-.3 1.4-.22-.57-1.26-.84-1-.27.89.05.28.74.13 1.23-.49 1.27-1.08 2.5-1.5 3.78l.09 7.81 1.4 2.27c.37-1.07.44-2.24.59-3.36-.06-.79-.32-1.63-.25-2.39.44-.47.8-.95.53-1.61-.33-.7.22-.95.8-1.18-.79-.34.07-.88.3-1.35.36-.92.72.22 1.07.56.52.45.51 1.02.31 1.63-.12.66-.14 1.34-.22 2 .28-1.05.32-2.19.48-3.28.04-1.52.19-3.04-.16-4.53-.08-.95.42-1.87.58-2.8.33-.67.92-1.25 1.09-1.97.06-.7-.01-1.44.15-2.13zm1.42 1.6c.03-.12 0-.12-.15.34.05 0 .13-.23.15-.34zm-13.57 20.18c-.11.02-.28.08-.49.2.74.04.84-.26.5-.2z" long-name="Virginia" region="VA" short-name="VA" value="48"/>
    <path d="m907.69 100.57-26.52 6.7c.2.64.9 1.25.5 1.93-.11.57-.74 1.33.1 1.56.6.3 1.12.63.69 1.33-.47 1.04 0 2.14.1 3.2-.06.9.8 1.34 1.3 1.95.28.46 1.03.79 1.03 1.33-.08.96-.6 1.95-.15 2.87.14.63.6 1.27.15 1.88-.41 1.06-.25 2.25-.42 3.37-.25.97.52 1.77.82 2.65l2.25 4.86c-.23.63-.67 1.26-.77 1.9.25.45.45 1.71.78.66.24-.73.6-.84 1.11-.22.55.5 1.27.88 1.72 1.44l3.03 14.33-.46 1.86c.43.49.89.89 1.55.53l10.78-2.35c-.57-.78-1.33-1.5-1.78-2.32.03-.9.09-1.79.52-2.6.22-.82.16-1.7.27-2.55-.26-.65-.77-1.28-.88-1.95.12-.85.41-1.72.43-2.56a6.09 6.09 0 0 1-.82-2.6l-.54-3.45c.33-.58.9-1.1.65-1.81 0-.7-.4-1.5.22-2.05.25-.52.9-.96.88-1.54-.06-.6-.39-1.23-.28-1.8.27-.62.75-1.22.88-1.85-.18-.67-.62-1.33-.3-2.03.07-.82.6-1.68.09-2.44l-1.16-2.8c.35-.6.5-1.38.97-1.86.65-.36 1.44-.59 2-1.03.33-.52.37-1.4 1.15-1.4.7-.04 1.09-.5 1.31-1.13.33-.55.63-1.1.44-1.76-.16-.71.36-1.44.28-2.1l-2.05-2.74 1.1-3.54zm26.75 123.99c-1.94 0-3.5 1.34-3.5 3v18c0 1.66 1.56 3 3.5 3h33c1.94 0 3.5-1.34 3.5-3v-18c0-1.66-1.56-3-3.5-3z" long-name="Vermont" region="VT" short-name="VT" value="17"/>
    <path d="M139.13 5.55c-.08-.01-.16.03-.23.2.62.48.46-.14.23-.2zm4.77 1.37-1.4.44c.5 1.67 1.02 3.33 1.53 5-.53.11-1.66-.17-1.1.67.19.73.38 1.32.68.28.31-.3.42-1.61.88-1.16.37.43 1.07.72 1.21 1.25v3.81c-.46 0-1.44-.69-1.2.2.02.98 0 1.95-.12 2.92-.79-1.3-1.31-2.74-1.94-4.13-.62.02-.31 1.1-.53 1.59-.16.78-.14 1.65-.41 2.38l-2.5 2.76c.37.4.95-.56 1.4-.72.44-.16.9-1.03 1.32-.46.61.58.96.66.25-.08-.42-.48.01-1.21-.04-1.8.06-.68.18-1.35.27-2.03.46.95.76 1.98 1.2 2.92l1.62 1.71-.58 3.1c-.36-1.11-.18.27-.2.75.1.65-.19 1.44.44 1.88.3.48 1.06.84.74 1.48-.24.42 0 1.5-.61 1.42-.64-.2-1.14 0-1.52.54-.45.5-1.08.9-1.42 1.45l-.2 2.35c-.36.36-1.41.46-1.2 1.03l.75 2.26c-.59-.2-1.4-.67-1.08.33.13 1.58-.1 3.16-.18 4.74-.5.11-1.52-.35-1.34.5.16.71-.58.76-1.06 1-.62.39-.41-.85-.8-1.11-.16.15-.26.99-.8 1.18-.58.48-1.07 1.15-1.7 1.52-.79-.1-.87 1.15-1.67.91-.74.24-.87-.44-1.06-1-.2-.63-.53 1.27-.7.7-.19-.37-.26-1.78-.6-.83-.3.58-.69 1.1-1.04 1.63-.03-.99.04-1.97.15-2.96-1.02.28-2.05.56-3.09.8.82-.81 1.67-1.6 2.52-2.37.73.1 1.5.38 2.22.35.42-.38.02-1.18.12-1.73-.22-.78.7-1.12 1.09-1.66.1-.13.2-.25.31-.35-1.75.2-3.5.26-5.26.22.15-.7-.1-1.59.6-2.04.73-.87 1.79-1.54 2.07-2.7.83-.8 1.88-1.41 2.79-2.14.46-.4 1.19-.62 1.13-1.34.21-.51.03-1.39.5-1.66l2.37-.59-.74 2.1c.59-.66 1.12-1.38 1.83-1.92a4.1 4.1 0 0 0-.17-2.16c-.37 1.08-.39.34-.4-.4l-.15-2.28c.47-.19 1.4-.78.33-.57-.72-.01-.43 1.04-.67 1.53-.1.72-.32 1.42-.53 2.12-.44-1.18-.66-2.42-.94-3.65-.5.21-.67.98-1.04 1.41-.3.4-.79 1.6-.7.45l-.21-3.25c-1 0-2.02.13-3 .05-2.63-1.28-5.21-2.65-7.96-3.65-.91-.42-1.97-.6-2.6-1.45l-7.05-6.88c-.94-.27-.08.77.05 1.16.5.58-.43.97-.69 1.45-.47.68-1.35 1.16-1.3 2.08-.39 1.88-.3 3.8-.38 5.71.6 1 1.5 1.88 1.63 3.1.26.7.32 1.43.12 2.17-.22 1.8-.61 3.58-.73 5.38.1 2.67.36 5.35.45 8.01-.25.85-.56.78.1 1.05.84.86 1.48 1.98 2.65 2.42.84.45 1.68.92 2.51 1.38l-4.45.01-.67 1.77c-.54-.3-1.24-.89-1.04.14-.02.63-.28 1.42.62 1.37.54.25 1.07-.16 1.6-.26l1.69 3.06-2.3-.5c-.33 1.27-.8 2.55-1.05 3.83.21 1.02.59 2.02.41 3.07-.83-.75-1.16-1.84-1.66-2.81-.4.3-.07 1.2-.18 1.73.11.89-.05 1.11-.64.33-.5-.38-.84-.83-.59-1.47.01-.33.29-1.88.09-1.27l-1.04 3.1c.47.21 1.29-.03 1.48.53.33.44.31 1.4 1.06 1.22.8.12 1.57.01 2.31-.32.53-.1.94.6 1.42.81.5.36.96.85 1.62.59.59-.18.79.62 1.19.92.36.43-.35 1.04-.24 1.54.01.87.83.56 1.42.58.8.03 1.71-.16 2.46.01l3.37 3.86c.1 1.48.35 2.97.38 4.44l-1.02 5.24 6.24 3.98c1.77-.26 3.6-.4 5.33-.73.57-.36 1.03-1.05 1.78-.86a1.7 1.7 0 0 1 1.5.46c.63.6 1.52.12 2.3.15.5.05 1.21-.4 1.53.17.41.46.76 1.03 1.46.94 1.19.06 2.12.93 3.18 1.37.28.4.15 1.06.27 1.56l1.92-.7c.57.34 1.1.9 1.7 1.08 1.44-.4 2.87-.9 4.3-1.22.47.18 1.22-.02 1.5.41.36.44.37 1.38 1 1.43l3.52.34c.47-.38.91-.84 1.57-.75 1.4-.12 2.8-.4 4.2-.41l2.93.35 1.57-1.25c1.02.5 1.99 1.14 3.15 1.18 1.39.2 2.78.53 4.16.64.94-.28 1.88-.77 2.83-.94l29.92 7.21c.3-1.31.73-2.62.96-3.93-.2-1.33-.5-2.65-.66-3.98l12.61-55.71c-8.35-1.97-16.72-3.85-25.06-5.88-10.12-2.56-20.25-5.08-30.35-7.68zm-11.38 33.46h.03l.02-.04zm.05-.04c.3-.3.54-.36.52.39.16.32.03 1.53.42.8.47-.32.9-1.16 1.45-.51.5.3 1.29.57.52 1.09-.45.46-.83.94-.54 1.6.45.62.3-.78.36-1.13.28-.67 1.07-1.09 1.3-1.83.33-.61.75-1.2.55-1.94.13-.6-.8 0-1.25-.21-.42-.08-1.7.25-.93-.39.18-.44 1.25-.96.57-1.32-.82-.35.05-.77.37-1.17.4-.33.99-1.3.95-.25.09.71.3 1.38.24.26.08-.7-.17-1.37-.35-2.05-.64.47-.83 1.44-1.41 1.9-1.01.13-2.05.1-2.94.66-1.03.32-1.53 1.37-2.3 2.05-.42.45-1.2 1.1-.1.76l3.53-.45zm6.05-27.6c-.24-.02-.56.62-.72.81.91.02.4.93.63.99.81-.03.23-1 .32-1.53-.07-.19-.14-.26-.23-.27zm1.8.31c-.24.04-.13.79-.08 1.17v.06c.65-.2.96-.33.45-.99-.17-.18-.3-.25-.37-.24zm-4.95.57c-.11 0-.25.02-.43.05.13.72.08 1.53.32 2.19.44.28 1.07 1.23 1.12.19.42-.64-.15-1.2-.4-1.78-.18-.48-.27-.66-.6-.65zm3.36 2.25-.46.09c-.22.54-.76 1.06-.36 1.65-.07.61.84 1.2 1 .51-.08-.74-.14-1.5-.18-2.25zm1.43.12a2.5 2.5 0 0 0-.25.38l-.24.55c.3-.27.6-1 .5-.93zm-.92 1.96c-.02-.07-.1-.02-.2.35.17-.1.22-.29.2-.35zm-.32.53s-.02.03-.02.1c.09.06.05-.11.02-.1zm.66 5.27c.05.27.7.98.98 1.42l.05.08.01.01c.2.57-.17 1.27-.19 1.88-.12.34-.26 1.8.05 1.07.15-1.11.44-2.2.2-3.32.19-.81-.45-.99-1.1-1.14zm3.82.18-.95.05c-.02.6-.28 1.28-.15 1.82.78.78-.07-.46.3-.76.19-.33 1.14-1.04.8-1.11zm-4.72 2.28c-.21.02-.6.44-.6.8l-.1.22c.64.75.74.2.78-.53.1-.37.04-.5-.08-.49zm3.11 1.35c-.04 0-.08 0-.12.04l-.44.63c-.77.5-.1.85.4 1.22.15.53-.16 1.36.77 1.05.16-.4.51-1.21.22-1.68-.28-.27-.54-1.2-.83-1.26zm-1.48 1.78c-.02 0-.04.04-.06.12.17.13.12-.12.06-.12zm-.68.94c-.33.04-.03.75-.13 1.02-.15.56-.94.8-1.35 1.23-.37.38-1.47.75-.57 1.15.54.84.7-.04 1.22-.18.7.07 1.35.1 1.07-.8l-.06-2.4a.42.42 0 0 0-.18-.02zm-1 5.12c-.55-.08-.24.96-.41 1.34.42.33.24-.98.41-1.34zm-.73 5.63c-.13.05-.3.32-.47.68l-.15.23c-.17-.08 1.05-.04.91-.28-.05-.51-.15-.68-.29-.63Zm-4.9 1.34c-.02-.06-.16.1-.44.54l-.15.21c-.06.97.19.92.38.01.16-.42.24-.7.21-.76z" long-name="Washington" region="WA" short-name="WA" value="43"/>
    <path d="m786.5 225.72-1.32.72c.38.67.98 1.27 1.22 1.98-.02 1.07-.25 2.17.22 3.18.2.57.43 1.13.08 1.7-.34 1.28-1.04 2.5-.92 3.86-.07 1.51.04 3.05-.14 4.54-.27 1.12-.72 2.25-.87 3.36.27.54.6 1.08.32 1.7l-.33 1.82c-.6.29-1.32.43-1.54 1.13-.82 1.3-1.48 2.71-2.62 3.77-.47.43-.78 1.23-1.54 1.02l-1.95 1.85c-.44-.32-.9-1.03-1.33-1.1-.54.7-1.28 1.27-1.33 2.2.07.8-.73.5-1.24.55-.61.03-.7.96-1.1 1.38-.57.68-.14 1.6-.21 2.41.1.65-1.17.62-.1 1.12.7.27.48.99.5 1.59-.11.45.32 1.36-.42 1.31-.66-.02-1.06.41-1.43.91-.49.17-1.14.71-1.53.66l-.64-2.27c-.64-.26-1.26-.49-1.37.41-.62 1.05-.66 2.27-.83 3.45-.27.47-1 .86-.95 1.4l1.27 3.52c-.52.33-1.24.54-1.63.96-.14 1.18-.28 2.37-.4 3.55-.9.03-1.83-.17-2.6.36l-2.09.9c-.21.63.13 1.13.47 1.63.12.68-.21 1.44-.26 2.15.04.54-.52 1.31-.02 1.69.86.7 1.75 1.38 2.31 2.37.4.37 1.37.45 1.1 1.14-.26.76.6 1.2.93 1.8l3.19 4.06c.62.08 1.44-.27 1.77.45.47.44.77 1.17 1.35 1.44.75.3 1.54.14 2.32.1.26.4 1.3.7.93 1.19-.47.54-.76 1.03.15 1.19.77.09.58.83.64 1.4-.05.68.93.7 1.36 1.07.96.47 1.9 1.07 2.87 1.45.67-.08 1.4.03 2.02-.16.75-.78 1.76-1.38 2.1-2.48.28-.41.36-1.52.98-.84l2.74 1.64 5.2-2.27c.79-.64-.82-.62-.41-1.2l.8-1.88 1.67 1.11 4.42-3.19c.34.34.56 1.5 1.06.74.44-.46 1.11-.82 1.42-1.33-.02-.63-.3-1.34.31-1.77.16-.45 1.23-1.01.7-1.39-.3-.4-1.23-.63-1.08-1.19.53-1.48.72-3.11 1.65-4.42l3.01-5.14-.41-1.95 2.09-2.19c-.03-.53-.53-1.16-.27-1.63.42-.57 1-1.09 1.32-1.7l.1-4.99c.99.35 2.08.54 3 .98.46.58.8 1.34 1.33 1.8l2.3.42c.53-.7 1.26-1.29 1.33-2.22l2.17-8 2.45 1.12c.4-.78.52-1.74 1.1-2.4 1.17-.88 1.75-2.32 2.95-3.18.22-.7.27-1.54.6-2.18.39-.38 1.28-.5 1.04-1.2.02-1.08-.28-2.2.24-3.18.14-.61.71-1.26.16-1.8-.28-.55-.8-1.06-.46-1.7.07-.65.2-1.17.85-.58l9.36 4.86c.32-1.25.44-2.58.98-3.76-.51-.22-.94-.57-.63-1.28.34-.72-.24-.95-.81-1.18.1-.88-.8-.3-1.01-.93-.3-.57-1.01-1.07-.66-1.77-.75.07-1.55.34-2.28.28l-2.1-1.54c-.65.1-1.28.21-1.5.9-.25.6-.64.95-1.31.78-.73-.18-.8.78-1.18 1.2-.38.54-.62 1.28-1.08 1.68-1.2.1-2.43.38-3.61.38l-1.6-.84-2.54 3.7-2.23-.3c-1.05 1.42-2.3 2.72-3.23 4.23-.34.75-.81 1.4-1.5 1.88l-1.52 1.36-1.75-11.73-17.4 2.9z" long-name="West Virginia" region="WV" short-name="WV" value="31"/>
    <path d="M615.02 101.41c-.05 0-.1.12-.13.38l-.08.47c.54-.02.37-.88.21-.85zm-1.68 2.64c-.31 0-.92.3-1.2.28.05.3 1.25.3 1.4-.16-.02-.08-.1-.12-.2-.12zm-4.9.07c-.24.26-.5.51-.75.76-.46.87-.61-.7-1.1.26a5.76 5.76 0 0 1-2.18 1.55c-.47.14-1.15.91-1.3.1-.24.33-.54.97-1.2.71-.8-.25-.3 1.06-1.05 1.04-2.25.85-4.5 1.76-6.75 2.56-1.15.03-2.3-.1-3.43.12-.46-.31-.9-.96-1.39-1.07-.8.21-.13 1.26-.78 1.59-.28.78-1.21.1-1.18.59l.38 12.28-6 3.97c-.88 1.9-1.89 3.78-2.7 5.7 0 .63-.21 1.43.69 1.3.62.01 1.14.21 1.48.76.38.46.98.83.88 1.51.03.8.3 1.66.2 2.44-.42.85-1.12 1.62-1.05 2.63l-.4 4.3c.27.58.77 1.12.9 1.73l-.67 4.85c.92.63 1.96 1.11 2.58 2.08.5.51.9 1.24 1.47 1.62h3.36c.2.5-.07 1.33.49 1.56 2 1 4.02 1.98 6.02 2.97l.6 3.33c1.71 1.16 3.38 2.4 5.1 3.5.94.27 1.98.39 2.84.77.75 1.08 1.65 2.11 2.3 3.23.11 1.55.11 3.13.6 4.63.37 1.5.84 3 .83 4.57-.15.72.43 1.04.94 1.4.62.47 1.31.87 1.57 1.65.5.48.14.98-.12 1.48-.39.91-.97 1.76-1.22 2.7 0 1.05-.28 2.13.25 3.09l1.58 4.34c1.21.6 2.3 1.52 3.7 1.65l2.26.48 1.26 2.73 45.23-2.75c-.06-1.66-.45-3.33-.1-4.97-.04-.58.43-1.3 0-1.76-.36-.6-1.24-1-1.07-1.8v-2.11c-.3-.4-1.2-.67-1.11-1.16.2-.52.7-1.05.21-1.57-.2-.54-.76-1.17-.37-1.6-.23-.53-.95-.98-.79-1.57.9-3 1.85-5.99 2.54-9.02-.2-1.74-.31-3.48-.7-5.2.28-1.06.69-2.12.9-3.2l-.31-1.94 2.41-1.91c.06-1.14-.53-2.16-.68-3.25.14-1.43.15-2.9.36-4.31l2.8-7.22c.58-.26.85-.73.92-1.35l1-3.74c.78.11.76-.7.97-1.25.38-.58.05-1.14-.2-1.7-.6-.76.4-.56.9-.66-.01-.41.36-1.5-.45-1.3-.56-.08-1.23.55-1.1 1.14 0 .55.16 1.2-.54 1.37-.47.42-1.42.52-1.4 1.29-.16.8-.18 1.66-.84 2.24-.45.85-.5 1.9-.8 2.82 0 .65-.33 1-.98 1.06l-2.74.86-1.58 4.16c-.65.41-1.47.7-2.02 1.19-.27.68-.27 1.54-1 1.93-.43.57-.82.63-1.17-.04-.57-.38-.43-1-.37-1.59.1-.79.02-1.64.21-2.4l2.32-3.28-.22-2.49 2.96-.81.23-2.39c-.6-.1-1.22-.22-1.42-.9-.23-.57-1.03-1.08-.62-1.72l.9-2.56c-.44-.8-.87.14-1.4.28l-2.64-.13c.5-1.12 1.1-2.22 1.51-3.35l-.09-4.05c-.52-.46-.9-1.18-1.69-1.13-1.05-.23-2.18-.32-3.18-.64-.29-.39-.98-.78-1.03-1.17.23-.41 1.3-.8.67-1.23-.42-.45-.77-1-1.46-.94-1.48-.19-2.95-.6-4.43-.63-.85.02-1.76.21-2.58.12-.84-.78-2.07-.66-3.12-.97-.8-.17-1.66-.2-2.27-.82-.84-.78-2.07-.7-3.12-1.03-4.87-1.1-9.75-2.18-14.62-3.27-1.05-1.27-2.01-2.66-3.11-3.86-1.7-.68-3.52-1.12-5.05-2.15-.39-.07-1.34-1.12-1.31-.46.23.72-.42.88-.95 1.12l-1.95.93c-.17-.53-.62-1.1-.6-1.59.4-.55 1.07-1.05 1.31-1.64-.05-.51-.63-1.13-.32-1.57a8.4 8.4 0 0 0 1.8-2.62zm2.77 3.05c-.54.4.63-.14 0 0zm-.54.57c-.07.03-.19.14-.34.37l-.17.18c.62-.05.75-.65.51-.55zm61.52 25.67c-.22-.03-.72.18-.97.15-.34.6-.25 1.13.28 1.58.37.43.43-.96.67-1.3.19-.3.16-.41.02-.43z" long-name="Wisconsin" region="WI" short-name="WI" value="41"/>
    <path d="m297.32 130.95-1.93 10.31c-3.13 20.35-6.34 40.68-9.43 61.03l-2.3 15.27c10.93 1.62 21.85 3.3 32.79 4.88 14.77 1.87 29.53 3.78 44.3 5.6l36.58 3.33c1.76-20.85 3.44-41.7 5.33-62.53l2.2-24.78c-17.03-1.78-34.08-3.52-51.11-5.33z" long-name="Wyoming" region="WY" short-name="WY" value="29"/>
    <path d="M13.5 194.14c-1.93 0-3.5 1.35-3.5 3v18c0 1.67 1.57 3 3.5 3h33c1.95 0 3.5-1.33 3.5-3v-18c0-1.65-1.55-3-3.5-3z" long-name="American Samoa" region="AS" short-name="AS" value="9"/>
    <path d="M13.5 224.56c-1.93 0-3.5 1.35-3.5 3v18c0 1.67 1.57 3 3.5 3h33c1.95 0 3.5-1.33 3.5-3v-18c0-1.65-1.55-3-3.5-3z" long-name="Guam" region="GU" short-name="GU" value="9"/>
    <path d="M13.5 254.96c-1.93 0-3.5 1.35-3.5 3v18c0 1.67 1.57 3 3.5 3h33c1.95 0 3.5-1.33 3.5-3v-18c0-1.65-1.55-3-3.5-3z" long-name="Northern Marianas" region="NI" short-name="NI" value="9"/>
    <path d="M13.5 285.38c-1.93 0-3.5 1.35-3.5 3v18c0 1.67 1.57 3 3.5 3h33c1.95 0 3.5-1.33 3.5-3v-18c0-1.65-1.55-3-3.5-3z" long-name="U.S Virgin Islands" region="VI" short-name="VI" value="9"/>
    <path d="M13.5 315.78c-1.93 0-3.5 1.35-3.5 3v18c0 1.67 1.57 3 3.5 3h33c1.95 0 3.5-1.33 3.5-3v-18c0-1.65-1.55-3-3.5-3z" long-name="Puerto Rico" region="PR" short-name="PR" value="23"/>
    <path d="M934.44 437.39c-1.93 0-3.5 1.35-3.5 3v18c0 1.67 1.57 3 3.5 3h33c1.95 0 3.5-1.33 3.5-3v-18c0-1.65-1.55-3-3.5-3z" long-name="District of Columbia" region="DC" short-name="DC" value="19"/>
  </g>
  <g class="region-texts" font-family="Roboto" font-size="14" fill="currentColor">
    <text x="900.24" y="454.25" text-anchor="middle" for="DC" transform="translate(50)">DC</text>
    <text x="-20.7" y="211" text-anchor="middle" for="AS" transform="translate(50)">AS</text>
    <text x="-20.7" y="271.18" text-anchor="middle" for="NI" transform="translate(50)">NI</text>
    <text x="-20.7" y="241.18" text-anchor="middle" for="GU" transform="translate(50)">GU</text>
    <text x="644" y="412" for="AL" transform="translate(50)">AL</text>
    <text x="114" y="495" for="AK" transform="translate(50)">AK</text>
    <text x="189" y="367" for="AZ" transform="translate(50)">AZ</text>
    <text x="536" y="379" for="AR" transform="translate(50)">AR</text>
    <text x="59" y="276" for="CA" transform="translate(50)">CA</text>
    <text x="308" y="277" for="CO" transform="translate(50)">CO</text>
    <text x="900" y="333" text-anchor="middle" for="CT" transform="translate(50)">CT</text>
    <text x="900" y="394" text-anchor="middle" for="DE" transform="translate(50)">DE</text>
    <text x="754" y="504" for="FL" transform="translate(50)">FL</text>
    <text x="703" y="411" for="GA" transform="translate(50)">GA</text>
    <text x="237" y="558" for="HI" transform="translate(50)">HI</text>
    <text x="182" y="146" for="ID" transform="translate(50)">ID</text>
    <text x="589" y="258" for="IL" transform="translate(50)">IL</text>
    <text x="638" y="254" for="IN" transform="translate(50)">IN</text>
    <text x="515" y="219" for="IA" transform="translate(50)">IA</text>
    <text x="432" y="295" for="KS" transform="translate(50)">KS</text>
    <text x="658" y="309" for="KY" transform="translate(50)">KY</text>
    <text x="538" y="457" for="LA" transform="translate(50)">LA</text>
    <text x="880" y="89" for="ME" transform="translate(50)">ME</text>
    <text x="900" y="424.5" text-anchor="middle" for="MD" transform="translate(50)">MD</text>
    <text x="900" y="273" text-anchor="middle" for="MA" transform="translate(50)">MA</text>
    <text x="653.02" y="180.64" for="MI" transform="translate(50)">MI</text>
    <text x="493" y="130" for="MN" transform="translate(50)">MN</text>
    <text x="586" y="425" for="MS" transform="translate(50)">MS</text>
    <text x="530" y="297" for="MO" transform="translate(50)">MO</text>
    <text x="276" y="94" for="MT" transform="translate(50)">MT</text>
    <text x="416" y="229" for="NE" transform="translate(50)">NE</text>
    <text x="124" y="239" for="NV" transform="translate(50)">NV</text>
    <text x="900" y="212" text-anchor="middle" for="NH" transform="translate(50)">NH</text>
    <text y="364" text-anchor="middle" for="NJ" x="900" transform="translate(50)">NJ</text>
    <text x="288" y="378" for="NM" transform="translate(50)">NM</text>
    <text x="808" y="161" for="NY" transform="translate(50)">NY</text>
    <text x="766" y="337" for="NC" transform="translate(50)">NC</text>
    <text x="407" y="98" for="ND" transform="translate(50)">ND</text>
    <text x="690.84" y="244.81" for="OH" transform="translate(50)">OH</text>
    <text x="449" y="363" for="OK" transform="translate(50)">OK</text>
    <text x="84" y="127" for="OR" transform="translate(50)">OR</text>
    <text x="772" y="216" for="PA" transform="translate(50)">PA</text>
    <text x="900" y="303" text-anchor="middle" for="RI" transform="translate(50)">RI</text>
    <text x="747.13" y="378.36" for="SC" transform="translate(50)">SC</text>
    <text x="409" y="162" for="SD" transform="translate(50)">SD</text>
    <text x="641" y="349" for="TN" transform="translate(50)">TN</text>
    <text x="422" y="453" for="TX" transform="translate(50)">TX</text>
    <text x="207" y="260" for="UT" transform="translate(50)">UT</text>
    <text x="900" y="242" text-anchor="middle" for="VT" transform="translate(50)">VT</text>
    <text x="774.84" y="288.07" for="VA" transform="translate(50)">VA</text>
    <text x="110" y="54" for="WA" transform="translate(50)">WA</text>
    <text x="727.35" y="274.13" for="WV" transform="translate(50)">WV</text>
    <text x="572" y="165" for="WI" transform="translate(50)">WI</text>
    <text x="286" y="185" for="WY" transform="translate(50)">WY</text>
    <text x="-20.7" y="302.18" text-anchor="middle" for="VI" transform="translate(50)">VI</text>
    <text x="-20.7" y="333.18" text-anchor="middle" for="PR" transform="translate(50)">PR</text>
  </g>
</svg>
