<svg xmlns="http://www.w3.org/2000/svg" auto-border-stroke-width="5" auto-border-stroke-width-limit=".5" candidates="[{&quot;id&quot;:&quot;0&quot;,&quot;defaultCount&quot;:0,&quot;name&quot;:&quot;Fidesz&quot;,&quot;margins&quot;:[{&quot;color&quot;:&quot;#FF6A00&quot;},{&quot;color&quot;:&quot;#FF8633&quot;},{&quot;color&quot;:&quot;#FFA266&quot;},{&quot;color&quot;:&quot;#FFC099&quot;}]},{&quot;id&quot;:&quot;1&quot;,&quot;defaultCount&quot;:0,&quot;name&quot;:&quot;TISZA&quot;,&quot;margins&quot;:[{&quot;color&quot;:&quot;#88E8FF&quot;},{&quot;color&quot;:&quot;#9AF0FF&quot;},{&quot;color&quot;:&quot;#AFF7FF&quot;},{&quot;color&quot;:&quot;#C6FBFF&quot;}]},{&quot;id&quot;:&quot;2&quot;,&quot;defaultCount&quot;:0,&quot;name&quot;:&quot;DK&quot;,&quot;margins&quot;:[{&quot;color&quot;:&quot;#2A61A4&quot;},{&quot;color&quot;:&quot;#4F80BC&quot;},{&quot;color&quot;:&quot;#769FD2&quot;},{&quot;color&quot;:&quot;#A1BFE4&quot;}]},{&quot;id&quot;:&quot;3&quot;,&quot;defaultCount&quot;:0,&quot;name&quot;:&quot;MH&quot;,&quot;margins&quot;:[{&quot;color&quot;:&quot;#688D1B&quot;},{&quot;color&quot;:&quot;#88AA43&quot;},{&quot;color&quot;:&quot;#A7C36E&quot;},{&quot;color&quot;:&quot;#C6DA9B&quot;}]},{&quot;id&quot;:&quot;4&quot;,&quot;defaultCount&quot;:0,&quot;name&quot;:&quot;MNOÖ&quot;,&quot;margins&quot;:[{&quot;color&quot;:&quot;#0047AB&quot;},{&quot;color&quot;:&quot;#336AC4&quot;},{&quot;color&quot;:&quot;#668ED9&quot;},{&quot;color&quot;:&quot;#99B3EA&quot;}]},{&quot;id&quot;:&quot;5&quot;,&quot;defaultCount&quot;:0,&quot;name&quot;:&quot;IND&quot;,&quot;margins&quot;:[{&quot;color&quot;:&quot;#9A9A9A&quot;},{&quot;color&quot;:&quot;#B0B0B0&quot;},{&quot;color&quot;:&quot;#C7C7C7&quot;},{&quot;color&quot;:&quot;#D9D9D9&quot;}]}]" country="hun" date="2026102" original-source="[&quot;https://inspire-geoportal.ec.europa.eu/srv/eng/catalog.search#/metadata/au2025_md_0feb6e36-9642-40ba-9c73-33e98d2cb42f&quot;]" title="Hungarian Counties" type="counties" variant="blank" viewBox="0 0 1000 624.05">
  <g map-type="regions" transform="translate(0,-187.973)">
    <path d="m385.05 411.21 1.41-1.66 1.84-1.37 1-.44.64-.71-.33-1.2.23-1.43 1.86-.79.83-.51.64-1.88.63-.66 1.33-.75 2.1-1.82.23.27 1.47-.52-.65-.4-.41-1.25-.97-.94-1.71-1.03-1.27-1.16 1.8.5.92-.26 1.77-.12.42-1.31-.22-.92 2.09.72 1.1.8 1.5 1.53 1.26.16 1.31.66 1.57-.35.46-.3.98.52.98.17 1.24.53v-.77l-.4-.35.2-.77.06-1.88-.61-1.52-.02-.63-.68-.8-.22-1.1-.98-1.26 1.14-.55-.35-.86.47-1.65-.45-1.1.39-.65 1.73-.11.38-.44.85.47.79-.26.39.17.58-1.02.99-.05 1.34.23 2.36 1.6.38.52 1.71-.93.57-1.23.73-1.04-1.1-.74.04-.42-1.02-1.28-.44.05-.59-.87-.17-.62.87-1.64-.35-1.32.1-.96.56-1.03-.86-.3-1.13-.71-.43-.8-.7-3.12-.01-2.04-.5-1.12-.7-.74-1.45-.83-2.7-.78-2.63-.36-.28-.86.08-.51 1.04-1.27-.82-.8-1.5.25-1.57-1-.18-.84-.82-1.07.06-1.3-.16-.53-1.18-1.1-1.9-.36-.71-.33-.26-.97-.43-.52-1.1-.2-.74-.48-.79-.1-.84-.45-.45-.82.1-1.48-.48-2.47-.55-.79-.03-.5.46-.65-.12-.92.34-1.51-.59-.98.25-.95.6-.44 1-1.19.56-2.02-.2-.67-.08-1.55.66-1.09.04-.53-.77-1.52-.7-.26-.36-.78-1.1-.8-.21-.63.15-.6 1.88-1.75 1.27.21 1.5-.57 1.26.39 1.03-.23.9-.59.95-.97.27-.76-.03-.95.58-1.09-.59-1.04.03-1.3-.15-1.19 1.08-.97.44-.96-.08-.64-.68-.64-.18-.54.43-.75.92.36.6-1.46.68.34.35-.85.77-.42 1.57.95.54-.4 2.14.73.92-.61.7-1.1.13-.87.93.8 1.74.54.57.33 2.09-.83.68-.44.46.56.2.73.98 1.24.35.72.7.35.97 2.21.8.83.51-.43.84.1 1.02.8.83-.69 1.35-.28.92.63.63 1.66.48.44-.57 1.46 1-.08.02.56-.68.64.23.77.05 2.1-2.3.83.48 1.53.27.3-2.94 2.1-2.05 1.18-1.48 1.28-1.32.9.01.32.98 1.16-.73.74.49.78 1.05.66.95 1.22.2 1.2.86 1.1.97.78 1.67.46 2.02 3.26.56.63 1.51 1.33 1.07.43 1.03.04 1.42 1.8 1.18.79-.32.85.36 1.05-.26.52.52 1.22.77.56.77-.24.96.23.7.83.66.41-.11 1.58.8.66.96.51.31.5.71-.69.9-.1.06-.71.78-.98.62-.22 1.56.24.45-.23 1.42.05 1.51.23.74.27 1.15.08 1.26.74.47-.18.14-.7.91.04.52.31.34-.45 2.4 1.07 1.66.5.06.68 1.76.78.25.84 1.25 1.35.46-.37.6.3 2.1.07.72-.38.73-.09 1.93.57 3.93-1.12 2.52-.37.74-.2.92.27 1.66 1.6.92.42 1.02.76.52-.1 2.5.08.7-.58 1.91-.15.87.68 1.03.08.73.56 1.92-.14.88 1.16.74.39.54.75.96.83-.76.42-2.04.8-.39 1.25-.12.97-.38 1.22-.71.44-.05 1.14.28.56.94-.4 1.34.9 1.67.12.31 1.08-.4 1.65-1.38 1.35-.28 1.44.17.94.47 1.32 1 .93 1.25 2.86 1.33.3.6.43-.03.53.37 1.57 1.4 3.14 1.26-.48.8-.57 1.4-.66 1.17-.08.34-.54-.36-1.23-.7-.47-2.13-.2.22-1.24.39-.85 1.86-1 1.1-.15.66-.29.25-1.06.99-.5.89-2.01 1.2-1.47 2.5 1.2 1.3.73.57.57 1.45 1.13 1.06 1.43 2.75 2.44-.44 2.27-.64-.24-.66 1.26.95.76-1.44 1.2.54 1.25 1.28 2.03.61 1.68-.08.8.7.95.9.9.77.54 1.48.61 1.12.03.49.3-1.1 1.97.86.46.09 1.04.56.5.6 1.27.79 1.2.12.97-.53 2.96 1.87 2.16-1.26 2.72-.3 2.05-.67 1.05 1.11.6-.86 2.47 1.17.95 1.6.8.73.78.88.58 2.2 2.4.81 1.13 1.19-.26 1.03-1.96 1.63-.98.7-.7.37-.84 1.45 1.49 1.63-.83 1.58 1.18 1.38-1.85 2.04 1.37-.66 1.1-.87.7-.74 1.06-.83.65-.12 1.09-.76 2.2-1.34 1.32-1.13 1.4 1.74 1.7 1.18.74 1.58 1.17 1.8 1.15 2.1 1.58.5.77 1.04 1.25.74 1.3 1.11 2.62-.28.78 1.97.73 2.46 2.53 1.8 1.16 1.62.88 2.85 2.16.66.33 1.18.92.88.46 1.61 1.14 3.58 1.5 2.2 1.48.55.62 1.9 2.67 1.34 1.18.27.92-.43 1.84.42 1.13 1.17 1.4 1.85 3.33.8.66-.14.96-1.92 3.53-1.86 5.45-.33 1.18 1.36.3 1.56.67 3.83 1.22 1.62.98.88.71.58.79 1.7 1.42 2.04.92.11 2.24.72.46.7 2.35.9 1.9.52 1.52-2.09 3.64-2 1.9-1.1 1.56-1.12.79-.08.84-1.17 3.6.7 1.11 1.03 2.48-.62.55.3.63 1.47 2.06-.19.75 1.26 1.32.37.9.58.8 1.88 7.1 1.32.35 1.15.58.64 1.3-.91 2.24-1.72 3.45-.91-.35-1.22-1.1-1.57-1.14-1.38 1.38-4.14 1.17-.91.16-1.12.62-2.84 1.36-1.79 2.13-.72 1.23.16 4.41-3.74-1.57-.56-.38-1.15-.13-1.92.02-1.5-.75-1.22-.73-1.17-.47-2.67-1.86-2.03-1.69-.35 1.18-2.26 5.13-2.2 4.67-.56.73-1.62.05-4.08-2.4-3.28 1.45-1.96-1.4-2.57-2.1-1.21-1.08-2.39-1.74-2.3-1.24-1.63-1.04-2.5-2.35-1.23-1.79-1.03-.9-.82-1.2-3.7-4.54-.97-4.39-.4-1.25-.12-.87-.95-3.16-2.52-4.53-2.46-3.86-1.37 1.8-1.21.91-1.24.26-4.25-.85-3.97-1.66-1.1 3.02-.81 1.9-.3 1.76-.76 3.48-.43 1.17-1.27 2.61-1.9.35-3.21-1.26-1.61-.96-4.87 4.26-2.7 2.19-.6.29-2.4-.04-3.72 1.31-1.19.97-.87 2.12-3-4.18-.55-.9 2.78-6.72 2.2-1.95 2.83-3.8-1.45-1.36-2.16-2.85-1.7-1.73-2.04-1.17-2.42-.5-1.9-1.33-2.1.1-2.7.62-4.17 9.13-.93-1.88-5.72.4-.82 1.1-2.3 1.76-.6 1.17-1.05 1.18-2.96.86-1.3.26-.76.8.05 1.91-.55 1.9-1.1.4-2.44 1.35-.28.6-.75-.87-1.5-.64-2.25-.57-2.24-1.1-.54-1.16-1.22-.15-2.74-.52-2.2-.75-3.3-.77.05 1.27.5.98 1 .83 1.16 1.22.3.7-.96 2.03-.68.61-.55-1.12-.88-1.07-.66-1.06-.81-.97-1.62-1.39-.94-.99-2.41-1.72-1.25-1.14-.54-.86-.85-1.74-1.13-4.69-.77-4.6-.88-3.76h-.35l-.13-1.55.19-1.25.01-1.23.8-3.38.27-2.59.44-2.08.55-1.11 2.84-4.47.65-2.18.3-2.5.76-1.9.48-2.05.05-1.15-.19-.95-2.89-.05-2.83-.87-.99-1.8.2-.84.93-2.4-1.99-.93-1.1.25.57-1.56.56-.67-.82-1.3-2.09-2.53-2.06-1.74-.3.23-.95-.88-2.04-2.37-.62-1.02-.38-1.06-1.73-1.8-.3-.1-.94-1.89-.63-1.5-.6-.7-1.57-1.45-1.16-1.36.94-2.06 1.03-.89.87-.31 1.97-1.57-.35-1.46.54-.65-.34-.57-.33-1.36.12-1.45-.17-1.31-.79-2.04-1.83-2.1-.76-.52-.73-1.7.05-.44-.9-1-1.32.74-1.81-.46-.77-.72-.07-.5-.9-1.75-1.1-2.46-2.24-3.62.13-.92-.25-.55.08-1.27-.37-.73.38-1.59.87-1.26-.26-1.04zm40.04 44.88 1.61-1.79 1.09-.68 1.94-.58 2.28-.42.92-.47.52.6.53-.2.77.13.37.68 1.2-.65.83.73.6-.82.44.32.41-1.3 1.24.39.35-.42-.58-.91 1.48-1.08.7-.3 1.22-.17.23.64 1.3 2.38 1.6.86-1.08 1.75.98.84 4.3 4.13 1.03 1.5 1.46-1.51 4.3-.96 1.92-2.81.97-2.47 1.04-2.25 1.18-1.06.6-.12 1.22-1.43-1.33-1.16 2.16-2.49 2.25 1.1 1.15-2.12.72.43.86-2.42 2.21.43 1.58-3 1.46-1.54 1.53.04 1.33-.5 1.42-.17.66-.73-.54-.89-.19-2.2-.4-.8-.65-.69-1.1-1.62-.24-1.56.1-.95 1.02-1.54-.37-1.12-1.31.25-2.71.77-1.05-.07-3 .56-.04-.53-.7-2.09-1.1-2.11-.89-1.5-3.55.9-1.68-1.64-.88.6-.72-.5-.53.48-.66-.3-1.97-1.55.54-.49-.82-.52-2.06-1.9.24-.28 1.73-.78-2.5-2.57-.87.46-.97-.88 1.31-1.53-2.3-2.31-.01-.92-1.49.38-1.53-1.16-1.36-.56.1-.98-1.45-.61-1.73 2.23-.9 1.56-1.12 2.22-.77-.3.37-.5.04-1.26.2-1.33.64-1.29-2.43-.58-.95.1-1.1-.24-1.19.1-1.92 1.08.67 1.07.68 2.74-1.25-.24-1.8.33-1.77.7-.68-.51-.47.37-1.54-.99-.84.72 1.03.43-.12.49-1.05 1.35-.45.09-.84-.37-1.94-.39-.9.05-.8-.24-.57.67-1.48.8 1.27 3.2-.68.27 1.08 1.12-1.14 1-.37.07-.29.86 1.06-.31-.3 1.74.18 2.8-.73-.44-.53.49 1.03.36.2-.31 1.12.73.02.35-1.34 2.2 1.52.82.18.87-.13.51-.7-.18-.59 1.37.85.66-.03.33.81 1 1.18-.84 1.27.89 2.23 2.94.54 1.77-.25 1.2h-.62l-1 .87 1.08.86.25 2.07-.44 1.68-.72.49-2.13 2-.03.93.65 1.99.15 1.3-1.23.46-.41 1 .51 1.94-.2.16.53 1.53z" long-name="Pest" region="1" short-name="Pest" value="1"/>
    <path d="m312.17 584.54-.64-1.49-.45-1.56.16-1.73-.21-1.1-.64-1.75.08-1.63.36-1.56.54-1.35.07-.82-.25-2.12-.7-2.02-.08-1.7 1.37-.61-.82-.64-1.68-.7 2.4-2.16 1.14-.82-.7-1.85.27-.36-1.03-1.73-.3-1.02-.65-1.2-.75-2.24.43-.56-1.06-1.56-.63-1.14-1.13-1.3.85-.75 1.38-1.88 2.47-2.84.2-2.4.58-1.45.36-2.16 1.05-.66 1.24-.13 1-1.69.07-.64 1.59-.23.25-.29 2.2-.78-.42-1.08-1.95.82-1.03.3-.68-2.09-.53-.88-.31-.04-1.13-1.99-1.17-1.36.04-.94-.25-.67-.27-1.84-.33-.82-.11-1.2-.36-1.22.54-.28 1.3-1.57 1.83-.93 1-.27-.28-.91-.95-.81-.36-.98-.1-1.02.18-1.07-.08-1.84-1.07-4.29-.43-4.48 1.4-.5-.59-1.63 1.5.08-.97-1.75.41-3.75-.2-1.1.52-.53-.06-1.6-1.11-2.46-3.02.36-.02-.23-1.85-1.93-.68-.98-.8-.5-.4-1.14-.18-1.13.32-.73-.58-.81-.74-.6-.7-1.06-1.72-.09-1.27.73-.3.56-.67-.1-2.25 1.64-1 .4-.5-.08-1.3-1.43-.53-.24-.46-1.68-1.3-1.7-.33-1.07-.49-.54-1.05.14-.32-.3-.83.4-.87.02-.05-.66-.48-.6-.02-2.07-.4-.76-.12-1.02.35-1.19.82-.7.5-.13.94-.82.08-1.06-2.4-.24-1.15-1.13-.6-1.89-.27-1.24 1.12-.8 1.83-1.58 1.88-.73 2.37-.25.85-.54-1.07-1.55-.02-1.88.54-.41.3-.75.11-1.06.85-1.36.86-.37 1.2-1.06.5-.9.3-1.14-.36-1.97-.48-.86 1.95-1.14.26-.8-.67-1.94.09-1.5 1.74-.52 1.56-1.03.95.99 1 1.61 1.1-.18.29-.62 1.66-.98.55.2.6.68 1-.21 1.17-1.07.13-.84-.43-.55.4-.86.1-1.43-.98-1.76 1.64-.26.7.6 1.5 1.78.58.41 1.36.35 1.95.98-.2 1.21.43 1.5-.35.63 1.01 1.9.9.76 1.19.66 1.38.33.99.7.33 1.44.67 1 1.68 1.18.77.76 1.19.6.27.4.82-.9.56-.01.74-.68.53-1.69.33-.2 1.23 1.1.4.01.73-.52 4.41-1.15-.6-.28-1.04-1.56-.88-.4-1.32-1.76.12-1.25.51-.4 1.26-1.8.1-.37.86-.9 1.2-.45 2.1 2.48.66-.6.4.1.33-.73.7-.74.3-.77 2.14-2.72-.1-.46.85-2.06 1.31-.23.48-1.14.6.8.95.82.77-.18.45.54.4 1.18 1.95 1.7.1-.93.87-.4-.27-.96.1-.67 1.41-1.23v-.59l.8-.49.8.17.88-.88.87 1 .95.32.42.75.88.82 1.63.6.79.02-1.52-1.93-.48-.85.05-1.34-1.48-.5-.67-.75-.48-.82-1.05-1.17-.43-.23-.72-1.5-.03-.68-.5-.3.09-2.35-.63-.6-.67-1.61.12-.7.42-.57 4.97-.4.62.6.42-.14.74.68 2.16-3.83 1.51.52.98-.4.64-.7 1.09-.51 1.04.09 1.19.87 1.1.22 1.57.55.88.48.7-.65.12-.81 1.07.19 2.08-.54 1.8.47 1.22.15 1.08-.22.83-.84 1.15.02.5-.39 1.5 2.41.25 1.04-.87 1.26-.38 1.6.37.72-.08 1.27.25.55-.13.92 2.25 3.62 1.08 2.46.91 1.75.07.5.77.72 1.81.46 1.33-.74.89 1-.05.44.73 1.7.76.52 1.83 2.1.8 2.04.16 1.31-.12 1.45.34 1.36.33.57-.54.65.35 1.46-1.97 1.57-.87.31-1.03.9-.94 2.05 1.16 1.36 1.58 1.46.59.7.63 1.49.95 1.89.3.1 1.72 1.8.38 1.06.62 1.02 2.04 2.37.95.88.3-.23 2.06 1.74 2.09 2.54.82 1.3-.56.66-.58 1.56 1.11-.25 2 .93-.93 2.4-.2.85.98 1.79 2.83.87 2.9.05.18.95-.05 1.15-.48 2.06-.76 1.9-.3 2.49-.65 2.18-2.84 4.47-.55 1.11-.43 2.08-.27 2.59-.8 3.38-.02 1.23-.19 1.25.13 1.56.35-.01.88 3.76.77 4.6 1.13 4.69.85 1.74.55.86 1.24 1.14 2.42 1.72.93 1 1.62 1.38.81.97.66 1.06.88 1.07.55 1.12.23 1.95-.25 1.54-.49 1.1-1.36 1.72-.74 1.83.11 2.37.27 2.56 1.19 2.33.48 2.05.4 2.66-.1 1.27-.38 1.27-.27 1.59-.24 2.22-1.09 2.73-3.04 4.19-.83 2.33-.18 1.71-1.1.02-.05-.52-1.7.22-.28.32-2.25.4-.13-.27-1.52.31-2.6 1.1.84 1.32 1.36 1.24-.94.47.41.53-.76.21-.26 1.57-.5.68-3.97 3.76-2.47 1.79-1.33.53-2.28 1.39-.46.64.79 3.23-1.26-.25-1.08.4-2.99.42-.64.18-1.1-.46-.74.24-.3 1.07-.53.29-1.2-.09-2.86 1.3.87 2.06 1.15 2.2.72 2.15-.94.49.32.5-.95.53-.68-.28-1.43.9-.97 1.36-1.5 1.6-1.04.94-1.47.83-1.59.09-1.38.7-1.3.06-1.33.55-.03-.53-1.03-.5-.2-1.05.54-1.2-.98-.39.37-.8-.03-.88-.51-.58-.1-.9-.46-.32.72-.76-.17-1.07-.89-.72-.3-1.25.32-1.6-.85-.73-.54.4-.98-.01-1.74-1.63-.6-.7-.48.12-1.44-.69-.63-1.82-.81-1.45-.32-1.08-.55-1.17-.6.47-1.84.55-1.18.72-1.65 1.5-.63.43-1.47.4-.56.36.16.86.75 1.48.33 1.63-.71.23-.44-.62-2.22.59-.88-.92-.9.06-1.2.66-.63.65.45.87-3.19-1.08-2.04-1.26-2.2-.84.56-1.57.13-.9.52-.89-.7-1.73-.57-.89.29-1.53.3-.52-.77-1.8-1.22-1.33-.8 7.38-1-.13-.15-1.51.21-.47-.26-1.35-1.31.13-.61-1.38-1.57 1.18-.24 1.03-.43.3.53.58-.89.49-.96-.6-1.67-1.46-2.18-1.03-1.23-.18-.58-.3-1.53-1.57-.2-1.63.31-1.36-.26-.84-.7-.5-.45.43-2.76 1.5-2.68 2.26-.1.89-1.27 1.14-.57-.15-.08 1-1.5.32-1.92.65-1.15-.27z" long-name="Fejér" region="2" short-name="Fejér" value="1"/>
    <path d="m83.73 433 .81-.48-.35-.53 1.94-.89-.3-1.14.44-1.17 1.25-1.69-.3-1.1-.64-.56-.92-2.24-.62-1.88.87-1.3.69-.54.91 1.23 1-.58.67-.16 1.55-.75.67-.95.03-.48 1.6-1.12-.26-2.25 1.72-1.34-.46-.77-.8.12-.22-.74h-.88l-1.12-2.2.16-.51-1-.78-.9.02-.6.28-.5-.2-.3-.9-.72-.86 1.19-.6.06-.83.6-.77.02-.8-1.16-3.4.63-.6.41-.9-1.99-.33-.39-2-.58-1.7-2.47-1.16-.89-.07-1.5.43-.79.65-1.4.3-1.04.51-1.03.2-2.6-.62-.62-.76-.83-.38-.3-.48-.92-.65-.36-.6-2.25-1.32-.95-.74-.73-.13-1.34-.97-.39.75-.84.9-.58-.39-.82.13-.6-.66-.8.08-1-1.81-1.22-.4h-1.32l-.58-.54-.53-.02-.5-.47-1.69-.28-.96-.73-.75-.23-.9-1.01.6-.55 1.43-.47 1.23-.78-.09-.72.58-1.86.03-.8.3-.7-.05-.74.98-.08.8 2.86 1.02.6.72-.19.38.24.44-2.05.52.13.8-.52-.23-.51.4-.6 1-.15.95-1.27.64.28 1.48-.84.4.17.58-1.14.98.45 2.03-.32.04-.32.99-1.29.68-.59-.48-.78-1.72-2.38.19-.73.78-.49.89-.14-.37-1.35.32-.48 2.7.1 2.46-.67.73-.07.7-.77.89.68 1.56-.87.9.2.68.45 1.13.17.4-.29.98.57.28 1.7.79.6 1.55.92.32-.34 1.72.6 7.43 1.45-.02 2.78 3.73 9.11 11.65.1.6-1.16.12-.74 1.01-2.8.3-.26 2.16-1.08 1.36-1.65.66-.53.2 6.83.5.4 5.48.31 9.42-1.18 9.45-1.87 7.75-.61-2.67-3.33-.55-1.12.18-2.34.04-2.4-.65-3.59.23-.12-.42-2.4-.44.03-.33-1.87-1-1.74.4-.76 2.74-2.25h.39l-2.08-2.65.18-.56-2-1.28.43-.62-.45-.37.76-1.08-5.78-4.42-.17-.22 1.2-2.15 1.63.2 1.28-.01.34.25 1.42-.67-.12-.4 2.06-.33 2.24-.77.36.68.7.03 2.93-5.33-1.22-1.14.11-.4.92-.97 1.61-3.58-1.49-.86-1.64-.77 1.46-1.62.34-.68.76-.92.34-1.05 1.06-1.4-.91-.7-2-1.07-.27-.5 2.57-1.8 1.04-1.12 1.87-1.27.44-.67 1.99-1.36 1.39-.74.89-.9 1.53-.82.88-.28 2.25-.97.57.17.26-.46 2.05.22.94.6.86.07 1.4-.47.64-.42.81.5.15 1.21v1.57l.38.83 1.2.79 2.67.97 1.68.06 1.22-.3 2 .02.86.21 1.09-.03 1.36.42 1.34 1.5.49.88.84 1.09 1.66 1.55.46.63.98 1.77 1.09.97 2.26 1.1.96 1.09.29 1.24.68 1.22.54.55.96.6.57 1 .86.94.5 1.25.14 1.37.77 1.75.6.83.45 1.19.17.94.43.67.9.67.97.42.95.2.94.5 2.45 2.15 1.43.28h1.07l.83-.2 1.06.64 1.06 1.73 1.14 1.04-.11 1.23.21.99.43.65.37 1.68 1.13 1.36.47 1.15.9 1.13.88.25 1.98-1.35 2.48-.4.66.17 1.45 1.76 1.76 2.34 1.12.95 2.59 1.78 3.27 2.87 1.21.74 1.27 1.39.76 1.5.75 1.06.58.4 1.01.33 1.85.14 2.14.8 1.9.1.63.14.84.57 1.03 1.34 1.18.38.93-.2 1.48-.78.78-.09 1.36.27 1.03.58 1 .17 1.77-.29 2.89-.77 1.55.07 2.7 1.13.62.17.7 3.13.08 2.57.25 1.96-.2 1.15-.95 1.59-.18.97-.59.73 1.02 1.27.53 1.3-.37 2.48-.26.74-.58 2.88-.89 1.4 1.08 2.5 1.66.52.36.48 2.57.8 1.02.51-.64 1.39-.38 1.48-.74 2.37-.59.91-.9.57 1.5.8-1.23 2.5-1.4 2.29 1.57.93.6.53.8.36.44-1 1.1 1.28.08.45-1 .32-1.1.61-1.94.47-.82-.55-2.14-.6-.66-.73-.1 1.39.28.5-.2 1.54.05.62.88.65 1.3 3.13.63.92.86.83-.67.6.33.6-.68.15-.38.43-2.1 1.42-.57.67-.02.72.75 1.4-.87-.3-.76.41-.6.02.4.96-.55.72.69.75 1.07.61-1.84.8-.36.4.78 1.5 1-.26.76 2.18-.16.95 1.02 1.78-.72 1.38.12.72-.94.85-.87 1.96-.32 1.22.07 1.22-.22.75 1.2.7-.68 1.61-1.53.62-1.83-.27-1.11.83-1.3 1.23-.27.45-.76.34-.13.65-.66.17-.62.59 1.23 2.04.08.58-.43 1.66-.77 1.17-.86.75.26.75-.1.7-1.34.14-.75.47-1.27-.62-.48.27-.89.04-.27-.8-1.13.85-.5 1.96.38 1.3-.31 1.62.6 1.3.02.81-.32 1.04.86 1.57-1.88.72-.94.7-.37-.4.27-.78-.15-1.07-1.02-1.42.23-1.3.07-2.25-.87-2.33-1.05-.48-1.13.2-1.46-1.17.2-.75-.22-.95-.66-1.47-.93-.96 1.2-1.24-.14-1.04.55-1.16.95-.36 1.4-.16.95-.47.54-.64.64-1.16 1.17-1.62-.2-.8.72-.27 1.21-.74.42-.52.76-.16-.15-.7-.77-.94-.02-.48 1.34-1.32-.4-1.8-.75-1.61-1.2-1.4-.08-.7-1.08-1.25-.32-.95.26-.42-.31-1.57-.74-1.59-2.38-3.65-1.17.74.32.48-1.51 1.24 1.38 2.2-1.3.6-.55-1.12-1.19.2-1.09.66-.4-1.03 1.48-1.74-.3-1.07-.8-1.32-1.86 1.19-.37-.44-.88.65-.27-.57-.75-.7-.76.03-1.02 1.16.28.66-.29.65.05.63-.9.14-1.19.67-1.17.4.25-.9-.17-.32-1.17.68-.58-.2-1.45-2.27-2.48 2.01-.64-1.41-1.5-1.54-1.73 1.95.62 1.81-.86.77-1.48.48-1.13.94-.25-.55-1.1-1.03-1.18-.87-1.18-1.42-.6-1.08.06-.48-.36-.67-3.4 5.16.56.84-.73 1.32-1.95 1.17-1.2 1.4-1.27-.8-1.16-.37-.28-.32-.77 1.06-2.05-1.62.5-2.03-.5-1.4.04-.75-.8-.13-.95-.5-.72-.9-.47-1.55-.66-.63.02-.42.6-1.07v-.87l-2.06-.94-1.57.07-.97-.22-.33-.7-.85 2.18-.07.96.3.82-.44 1.9-.4.49-2.03 1.86-.77.88-1.16-.18-.66.1-.54.41-2.43.42-.55-.73-2 .8.15.57h-1l-2 1.46-.43-.44-.64-.17-.86.45-.7-.46-.13-.4-1.05.64-.28-.53-1.06-.35-1.91.23-.34-.43-.88-.13-.45-.51-.88.18-.87-.16v1.2l-3.07-.85-.51-1.48-.44-.58-.85.07-.97.46-.15.93-.8.37-.49.76-.04-.68-1.24.3-2.45-.7-1.13 1.19-1.2.7-.37.58-.46 1.5-.57.33-.4-.4-1.64.47-.58.93-1.99 1.01-.85-.2-1.6.26h-1.33l-1.78 1.04-.72 1.3-.62-.11-.26-.82.47-.84.42-.14.49-1.36.6-.46.08-.8.63-1.13-.29-.79.28-.22-.24-1.2.63-.85.55-.02.19-.73.54-.54-.19-.66-1.26-.82-.95-2.16-.58-.05-.76.56-.39.88-.94.6-.61.2-.73.64-.76 1-.93-.04-.8.77-.6-.06-.54.31.26.53-2.33 2.02-.67-.1-.47.28-.58.93-1.35.51-.2.64-1.46.7-.75 1.02-.9.61.03.55-.92.34-1.3-2.33-.14-.94h-1.57l-.62-.5h-1.07l.02-1.1-.59-.5-1.91.07.24.71-.56.27-.49.64-.63-.58-.39-.76-.7-.85-1.25-.36-.14-.75-.82-1.65-.98-1.3.09-.3-.55-1.52-.7.01-.41.47-1.44.92-1.58.87-1.45.49-1.15-1.88-1.97 1.44-.8-1.52-1.97.86-.73.16-1.48.94-.28-.43-.74.64-2.47 1.59-1.33.65-1 .97.59 1.12-1.04.6-.92-1.85-1.25.67-.43-.82-.92.42-.69-1.34-1.25.46-.1-.55-.65-.93-.43.15-1.36-1.58-.98-.86-.36-1.3Z" long-name="Győr-Moson-Sopron" region="3" short-name="Győr-Moson-Sopron" value="1"/>
    <path d="m224.18 785.75.44-.36.62.24 1.04-.16.36-.56-.2-.4.26-.87.27-1.83.6.14 1.4-.95.62-.03.33-.63.87 1.5-.35 1.12.69.2.92-1.63.41.56 1.51.33v-.51l1.81.5.45-.49-.63-.98.95-.59.25-.38-.06-.8-1-.89.09-.5-.21-1.45.4-.66.82-.4-.51-.81-1.52-.93.55-.74.14-1.53-1.52-1.08-3-1.05-1.66.12-1.07-2.55.75-.05.93-.37-.31-1.16-2.18.2-.33-.84-.9.26-.43-1.53-.88.24.85 3.04-1.95.17-.36-.3.08-.96-.15-1.91-.35-1.7-.36-.52-.76-2.1-.33-2.1-.1-1.98 1.39-.26 2.2-.22-.05-2 .09-1.08.55-.44-.52-.8-.68-.55-1.13-.53-.56-1.48.02-.67-.49-.34-.14-.8.2-.53-.3-.95.01-.86-.5-.49.64-.57-.18-.6 1.05-.08 2.72-.86-.08-1.53 2.22-.38-.03-2.17 1.1-.19-.18-.92.38-.07-.02-1.58-.15-.77.66-.57-1.37-.77-.95-1.49 3.43-1.62-.28-.17-.78-1.93.5-.16.08-.55-.26-.78-.08-1.73 1.1-4.1-.21-.99 1.05-1.36-.14-.57 1.28-1.62.74-1.64.24-1.36-.31-.34-.2-1.32 1.07.03.3-.87.74.37 1.26-1.43.44-.93-.1-.67-.68-1.77-.9-.18-.13-.63.6-.92 1.3-1.02.62-.1.51.57 2.12 5.37 1.16.35.01.58 2.25.14.57-.35-.06-.62.44-1.22.67-.37.27-.69-.12-1.25 1.12-.61.63-.13.26.95.83.48.77-.67.66.05.3.42.08 2.03 1-.36.47.42.98-.02.51.72.95-.15.92-1.74 1 .42.35-.7.73-.51 1.11.87.49.03.75-.65.07-.8 1.18-.4.65.75.57.22.95-.08.51-.45.28-.89.39-.3.89.19.32.45.72.3 1.46-1.7.18-.7.68-1.1-.45-1.09v-1.06l-.52-1.2.13-.5.64-.82.3-1.51.52-1.32-.38-.64-.12-1.19.14-.57.8-1.54.38-.32.98-1.93.76.63.79-.38.14-.38 2.44-.74 3.92-.14-.14 1.24.61.46.29.87.46-.6.68.6.4-.01 1.03-.78 1.07.7.45.7 1.37.44.72.04.73-.67.8.83.18-.59.85.46.96-.14.62.41.1-.82.4-.73.9-.51.87.36 1.57-.54 1.42 2.06.49 2 .2-.13 1.05.7 1.48-2.22-.47-.34-.68.88-1.4-.78-.1-.31.58-1.27-1.13-2.55.56-1.55.55-.14.72.25.6-.9 1-.02.87.3.09.93 1.02.15.94-.18.3-.48h1.39l.9-1.14 1.1-.9.54-.8.68-.1 1.34.57.84-.2.17-1.27.36-.7-.05-1.73.07-1.67-.46.16-.72-1.2-.84-.62-.34-7.38 5.28-1.7 2.5.76.93-1.14.93.82 2.43.61.51-.16.5-.75 1.39-.16 1.7-.53.73-.5.84-.14 1.43-1.13 1.5.8 1.21 1.2.58.18.46-.27.46 1.02.53.61.4 1.06-.49.39-.32.91-.17 2 .03 1.35.25.82 1.07.94.1 1.54.58-.12 2.03.65.45.4.68.03-.08.59 1.58.7.6 2.32-.17.72-2.46 1.71.04 1.22.31.64.12 1.85-.61.55.43 1.26-.48.36.44 1.72 1.3.12.75.69.46-.27.88.96 2.5-.96 1.06 3.13-.87.23-.4 1.31-.5 1.04-.04 1.16-1.03 3.43-.9.7-.29.65-.87.44-.95.14-.6.71-2.11.3-.68.29-.33.57.8 1.55.52.4 1.18.22.59.3.9-.57 1.83-1.8 1.94-.65.9-1.07 1-.35.54-.62 1.82-.71.26-.43.6-.06.25-.65-.3-1.3 3.44-.06-.94-1.66 1.2-1.03.9-.04.92-.75.11-3.72-.75-2.9.52-.18.84 1.49 2.77.4.84.33.06.81 1.5.69.06 1.08-.73 1.17.53.62 1.58.59.36-.25.06-1.86.45.74 1.17.3-.48.94.01 2.37.17 1.08-.51 2.64-.57.95-.84.61.65 1.3 1.36.47.76.44-.06.54 1.28.57 1.17-.68.88-.21.36 1.5-.78.31-.12.66.2.81.79.9-.24 1.07 1.63.7 1.4 1.84.38 1.31 1.06-.38 1.21-1.27.85-.18.5 1.67.55.75 1.38.9 1.78 1.34.25.63 1.21 1.6.83 1.53 1.19.87 1.13 1.19.71.44.48.6.76 1.74.28 1.12.79-.53-.38-.87.4-.76.53.27.7.94 2.56 1.4.45.95.65-.27.47-.52.74.82.75.42 1.28 1.49.81-.3.78.27.5-.82 1.63-.18.84.38.38.86 2.11-.11 1.33.13-.72 1.1-1.27.61-1.41.41-1.51.98-.36.55-.3 1.4-1.44 3.91-.57.96-2.21 3.1-.83.77 1.01 1.77.47 1.84.66-.15.9.14.56-.42 1.1-.07 1.05.91.56.7.94-.7.35.2.84-.47.83.66.57-.04.94.41 1.21-.48.87-.93.67-.38.6-.76 1.72-1.34 1.07.71.36.8-.58 1.09 3.59 1.98h.18l-5.08 8.97.27-.1.53.97-2.37 4.1 1.72.36.62.36-.05.53.95.41 1.42 1.34-1.61.43.12-.83-.68-.33-.89.09-.46.95-.61.7-1.4.53-.86.04-1.04.3-.68.8.26.87 1.51 1.13-.14.17 1.19 1.36-2.16 2.43.64 1.2.15 1.51-.33 1.83-.24.63-2.72.27-.87-.43-1.04-1.21-1.08-.65-.67-.18-1 .15.05-.97-.53-.8-.98-.3-.23-.42-1.66-.18-2.39-.95-.75-.51-1.08-1.1-.79-1.26-4.38.66-.97.9-1.03-1.33-.49-.04.05 2.66.32.84-.18 1.2-1.41.18-.88.47-.77.75.1.96.46.41 1.54 1.84-2.66 1.35-.92-1.88-.6.75-.34 3.07-.34 1.08-1.3.2 1.26 2.95-3.43 1.22.42 1.25-1.29 1.43-1.57 1-1.85.65.29 2.92-2.37-.76-.66 2.02-1.1.14-.61-.36-.78.44-1-.05-1.7 1.23.18.64h-1.83l-.82-.74.06-.85-1.16-.73-1.3.39-.16.98-.33.35-.26 1.9-.33.66-.25 1.98-2.56.01-1.15-.74-1.72 1.97.59.52-.17 2.03.28.87-.5 1.66-.45-.25-1.47-.16-1-.58-.61.3-1.2-.14-.83.4-.4-.17-1.03-1.02-.44-.11-.15-1.03.42-.28-1.06-2.24-.82-.78-.82.18-1.58-1.17-1.02-.93.34 1.38-.73.2-.54-.32-.54.6-1.36 2.13-.2 1-1.05.6-.17-.92-.52-.59-1.65-.24-.46-.28-1.06-.03-1.06-.32-1.32-.7-.71-.01-1.35.77-1.11.36-2.3-1.24-1.56-.24-1.2.08-.87-1.48-.3-1.3-.65-1.02-.68-.26-3.14-.34-1.07-.92-.91-.43-.77.1-.52.36-1.6 1.76-.56.24-1.24-.74-.73-1.15-1.33-.8-.85-.13-1.12.2-1.3-.4-.6.11-.65.78-.71 1.61-1.11 1.54-1.23.83-1.8.41-1.06-.08-3.14-1.58-1.63-.5-1.56-.17-1.64-.61-.94-.55-1.1-.96-.44-.8-.93-1.04-1.15-.63-1.01-.01-2.02 1.16-1.5.07-1.86-.78-.8.06-1.27.5-.98.63-.86.2-1.07-.25-1.77-.99-.57-.19-1.5.45-3.23 2.36-.7.81-.41 1.56-.8.2-1.13-.8-.47-1.15.16-.94-.23-.68-1.3-.39-.76-.47-.88-1.41-.02-1.55-.35-1.47-.46-.53-.91-.12-.48.37-.34.73-.97.2-1.22-.46-1.48-1.2-.78-1.1-1.73-.28-.97.3-.64.8h-.72l-1.45-2.27-.37-.92-.38-.38-1.17-.42-.94-.15-1.3.06-1.09-.46-.74.13-.69-.32-.41-.68-.56-.34-1.5-.32-2.1.82-1.35-.4-.74-.63-.7-.88Z" long-name="Baranya" region="4" short-name="Baranya" value="1"/>
    <path d="m109.76 679.56-.06-.95 1.46.46.15.9.38.42.56-.01.47 1.06.77-.24 2.79-.28 1.25-.55 1.03.3.17.55-.09 1.24-.38 1.33.7.06-.21 2.28.88-.43.42.54 1.43-.78 1.15-1.9.71-.18 1.24.08.47-.32.36-1.07.6-.87.6.17.62.56 1-.27.14.51.83-.02.22 1.06.83.48.58-.7 1.37-.27.45-.88.92-.11.78-.41-.41-1 .01-1.85.86-.63.2-.94.49-.68h1.68l.13-2.09-.13-.93-.77-3.34-.8-.03-.42-1.17.47-1.16-.65-2.05-1.1-.53-.5-1.05.04-1.19.94-1.63.1-1.53.96-.03.67.38.45-.54.5.11-.08.83.14 1.09.6.08.24.64.95.32.23.4 1.46-.66.07-1.01.31-1.49 1-.92 1.78.4.33.58.96.39.9.1.08 1.78 1.74.23 2-.42.08-2.6.4-1.68 5.83-.92.15.38 1 .35.54-2.58.4-.37.35-4.93-.9-1.9.31-.87.02-1.7.53-.3.3.46.78.18.32-.71.26-1.23 1.38-.15.83-1.1 1.18-2.6.01-3.43-.48-1.06-.22-6.67.08-3.38-.03-1.46-.35-3.1-.1-2.52 1.1-5.2-.46-3.12.57-1.34-.12-1.96.28-1.7 3.54-1.58.76-.92 1.07-.75.26-.73.2-2.42.41-.89 1.23-6.06 3.1-.04 1.32-.1 1.8.46 5.89.49 1.69.03 1.62-.51.9-.67 1.11-1.38 1.84-.94 1.72-.32 1.52-.1 3.93.73 1.23-.17 1.7-.88 1.48.03 1.52.27 1.03-.23 2.62-1.23 2.14-1.73 1.59-.9 3.09-1.3 7.5-3.43 3.17-1.52 6.38-2.13 4.74-3.53 4.68-2.46 5.2-1.35 3.64-1.34 2.02-1.13 5.98-3.92 1.92-1.46 2.29 1.05 1.27.38 1.62-.35 1.83-1.21 1.4-1.83.37-2.87-.69-1.9 2.71-1.23 2.95-1.11 3.74-1 .82-.28 4.76-2.2 3.64-1.95 2.4-1.42 2.87-2.11 15.06-5.77.4.46.87.36.75 1.18 1.21-.3.47 1 1.24 1.63.63 1.36-2.47 2.84-1.38 1.87-.85.76 1.13 1.3.63 1.14 1.06 1.56-.43.56.75 2.25.66 1.2.29 1.01 1.03 1.73-.26.36.69 1.85-1.14.82-2.4 2.17 1.68.7.82.63-1.37.61.08 1.7.7 2.02.25 2.12-.07.83-.54 1.34-.36 1.56-.08 1.63.64 1.76.21 1.09-.16 1.73.45 1.56.64 1.49-.7.12-.98-.12-2.02 1.67h-.66l-1.16-.4-1.24 1.1.17 1.08.69 1.77-.04 1.95-1.64.07-.73.4-.87-1.46-1.39.38.3.9-.83.2-.03 1.39-1.41.42-1.17 1-.96-.24.16.72.48.46.63 1.45.03.46.6 1.3.38 1.33 1.74-1 .77 1.38-1.36.46.43 1.47-1.37-.18.17 1.23-.68.26.43 2.3-.6-.06-.81.63-1.46.78-.2.87-.64.47.04 1.03-.84.44.86 1.8-1.45 1.01-1.3.72.13 1.2-.2 1-.38.45-1.48.68-.42.7-.51.3.39 1.77.83 1.18.48 1.12.62.99.03.74-.36 1.14-.07 1.45h-.74l-.25 1.47-.67 1.38-.3 1.18-1.35 1.64-.89.05-1.11.59-1.78-1.62.25 1.78-.11 1.95-.39.32.28.6-.91.54.06 2.4.15 1.13.53 2.3-.12 1.32-1 .56 1.39 1.56.7 2.44.38.98.44 1.68.06 2.03.78 1.41.73 2.42.86 1.67-.58.56.31 2.46-2.21.28-.43-.04.05 1.25-.77.48-.58-1.06-.71 1.37-1.56.26.12.42-.97.27.26.83-.93.27-.2-.66-.95.28.16.52-.8.37.25.7 1.02 1.66-.16.88.45.24.56-.41 1.94-.68.35 1 2.81-1.68-.01.64.36 1.41 1.4 2.9.11 1.16 2.5-.28-.25 1.71.35 1.2.03 1.75.34 1.16.28 2.31-1.39 1.57-.64 1.23.15 1.64-.18.48-.6.37-.9.2-1.77 1.7-.73.67-.72-.04-1.37-.43-.45-.72-1.07-.69-1.02.78-.4.01-.69-.6-.46.6-.29-.87-.61-.46.14-1.24-3.92.14-2.44.74-.14.38-.79.38-.77-.63-.97 1.93-.37.32-.81 1.54-.14.57.11 1.19.4.64-.54 1.32-.29 1.5-.64.83-.13.5.52 1.2v1.06l.45 1.1-.68 1.1-.18.68-1.46 1.71-.73-.3-.31-.45-.9-.2-.38.31-.28.9-.51.45-.95.07-.57-.22-.65-.75-1.18.4-.07.8-.75.65-.49-.03-1.11-.87-.73.5-.35.71-1-.42-.92 1.74-.95.15-.5-.72-.99.02-.46-.42-1 .36-.09-2.03-.3-.42-.66-.05-.77.67-.83-.48-.26-.95-.63.13-1.12.61.12 1.25-.27.7-.67.36-.44 1.22.06.62-.57.35-2.25-.14v-.58l-1.17-.35-2.12-5.37-.5-.57-.64.1-1.3 1.02-.6.92.14.63.9.18.69 1.77.09.67-.44.93-1.26 1.43-.73-.37-.31.87-1.07-.03.2 1.32.31.34-.24 1.36-.74 1.64-1.28 1.62.14.57-1.05 1.36.2 1-1.09 4.09.08 1.73.26.78-.08.55-.5.16.78 1.93.28.17-3.43 1.62.95 1.5 1.37.76-.66.57.15.77.02 1.58-.38.07.17.92-1.09.19.03 2.17-2.22.38.08 1.53-2.72.86-1.05.09.18.6-.65.56.51.5v.85l.3.95-.21.53.14.8.49.34-.02.67.55 1.48 1.14.53.68.55.52.8-.56.44-.08 1.09.06 2-2.21.21-1.4.26.1 1.97.34 2.11.76 2.1.36.52.35 1.7.15 1.91-.08.96.36.3 1.95-.17-.85-3.04.88-.24.42 1.53.91-.26.33.84 2.18-.2.31 1.16-.93.37-.75.05 1.07 2.55 1.67-.12 2.99 1.05 1.52 1.08-.14 1.53-.55.74 1.52.93.5.8-.82.4-.4.67.22 1.45-.08.5.99.9.06.79-.25.38-.95.6.63.97-.45.5-1.81-.51v.5l-1.5-.32-.42-.56-.92 1.63-.7-.2.36-1.12-.87-1.5-.33.63-.63.03-1.4.95-.6-.14-.27 1.83-.25.88.2.39-.36.56-1.04.16-.62-.24-.45.36-.44-1.47.07-1.32-.15-1.12-.94-2.05-1.02-3.06-1.19-2.28-1.25-1.8-.94-.9-1.71-.86-.96-1.37-.84-.71-1.76-1.93-.93-.6-1.46-.5-2.94.42-1.06.43h-.72l-2.07-1.32-.94-.07-1.56-.43-3.27-.21-1.42-.4-1.18-.51-1.39-.8-.89-.23-1.35.03-.58.26-.67 1.01v.44l.94 1.16.51 1-.32.8-1.4.33-2.1-.73-.35-.58.37-.64-.16-.94-.97.92-1.49 1.04-.74-.18-.47-.5-.26-.78.4-.87-.21-1.06-.7-.42-1.22.05-1.53.93-1.33.47-.72-.17-.83-.57-.68-2.45.37-.7.61-.49.64.31-.1 1.05.21.38.77-.17.62-1 .64-.12 1.47.52 1.87.14.51-.34.27-.97-.72-.69-.52.1-.76.65-1.13.22-1.14-.1-.54-.57.05-.69.95-.52 1.14.35.3-.67-.84-.4-.35-.53.2-.52.75-.86.2-1.42-.35-.58-.83-.25-.52.2-.27.62-.23 2.37-.34.39-.78.12-.64-.6-.81-1.43-.16-1.8-.24-.57-.7-.34-.54.14-.68.87.33.88 1 .68-.1 1.38-.88 1.57-1.02.84-.7-.14-.95.18-.7-.97.22-.57 1.07-.47.03-1 .74-.51.42-.92-.2-.55-.62-.41-.88.3-.65 1.76-.71-.1-1-.48-.42-1.43.3-.62.87-.2.43-.42.25-.78-.25-.55-.8-.3-1.3.6-.76.12-1.27-.5-.95-1.31-1.1-.25-.69-.44.16-.75 1.76-.5.41-.73 2.51-.35.68-.48.21-.87-.53-.78-1.57.18-1.92-.56-1.45.2-.2-3 .4-.05 1.76-1.46-.24-.86h-.74l-2.09-.36-.99.15-1.8-.47-.51-.84.75-.51.58.65 1.21.44-.05-.65-.9-.62-.07-2.27-1.2-.74-1.4-.2-1.05.36-.8.57-.71.13-.53-.84.34-.48.78-.27.84.36.8-.15-.11-.88.51-.7.31-.92 1.5-.49-.45-.69-1.63.41-.51-.32-.97-.08 1.41-2.09-.08-.76-.45-.39-1.16.6-.6-.21-.97.22-1.69.98-.54.07-.91-.67.94-2.18-.2-.65-.57-.07-.31-1.5.56.02 1.23-.77-.83-.94-.18-1.55-.24-.27.55-1.13-1.2-.77-.22-.45-.73-.1-.44.29-1.07-.84.07-1.15.38-1.26-.81-.43-1.2.24-.8-.5-.91 1-1.3-.15-.32-1 .22-.9-.95-.52-.52.52-.57.15-.28-.47-1.02-.97-.07-.86-.88-.16-.8-.55-.53.24-.27.57-.7-.58-.73-.15-.2-.48-.8-.66-.41-.8.1-1-1.4.02-.97-.46-4.17-2.83-1.45-.73-.95-.78-1.93.28-.48-.8-.95.58-1.59-.65-.1-.92.17-.64-.3-.5.69-1.14-.32-.7h-.55l-.5.56h-.85l-.52-.33-.38.45-.72-.52-.78-1.1-1.02-.8-.2-.9-1.46-1.3-1.22-.2-.69-.39-.8-.96-.75-1.79-2.11-1.15-.44-.92.35-1.33v-1.17l-.22-1.25-.8-.62-.36-.78-.24-1.34.31-1.1Z" long-name="Somogy" region="5" short-name="Somogy" value="1"/>
    <path d="m741.16 325-1.93-2.11-1.05.17.6-1.09-.3-1.2-1.21-1.63-1.55-1.7-.4-1.05-.65-.04.1-.72.4-.89 1.38-.22-.15-1.6.55-.95 1.38-.4.86.04.11-1 .37-.75 1.48-1.78.59-.07.33-.48-.49-.84.4-.32.7.58.85-.31 1.24 1.24.38.02.69-.91.53-.12 1.36.53.31.74-.58 1.1.36 1.47 1.36-.5 1.9-.22.84.26 1.77 1.02 1.22.03.74-.3.76-.63.18-.47-1.08-.92-.15-.74.5-.86 1.25-1.01.54-.98.58-.5.77-.3.92-.66.46-.67.46.07-.28 1.6.1.87.46 1.25.37.48 1.02.7 1.01.04 1.27.32.93-.8.44.22-.4 1.02v.74l.98-.12 1.79-.59.79.08.85.6.66 1.39.87.11.9-.25 1.06-.8.3-1.33.43-.32 2.33.36 1.01 1.14.64.34.23-.42-.9-1.57.84-.22 1.1.2.86.46.91.21.8-.15 1.34-1-.14-.56-.8-.9-.25-1.33.54-.89.7.27.51 1.06.55.7 1 .1.5-.43.47-1.16-.22-3.08.6-.65 1.8-1 1.13.02.03-.48-.71-.3-.45-.88-1.09-.39-.64.48-.64.08-.84-1.7.35-.56 1.37.54.92-.13.2-.47-.53-1.08-1.7-1.39-1.2-.71-1.06-1.22-.6-1.06-.44-1.24v-.65l.88-.64.96-1.07.42-.87-.82-.6.03-.52.56-.86-.33-1.83-.27-.6.9-2.02.75-.2.3-1.58.51-1.16.62-.44 1.04-.12.93.53.39 1.6 1.14.58.38-.2-.05-1.66.2-.67.59-.48 1.31-.15 1.91.6.01.9.45.3.44-.31-.33-.81 2.85-.4-1.21-1.3 1.15-.28 1.03-.85.04-.83.36-.79 1.28.23 1.5-.53.16-.53.8.22.47-.23.83.13.18-1.18.5-.8.53-.16.81.2 1.02 1.18 1.65 1.2 3.74.8 2.43-.3 5.25.5 1.39-.74 2.93.09.72-.97.4.85.45.31-.33.92.47.47.9-.56.17-.83-.86-.35-.24-1.37.21-.67.78.3.62 1.01.54-.52 1.3-.7 1.16-.35.15.45-.35.63.15 1.47.43.23 1-.7 1.18.08.14-.3-.74-.72.83-.73-.23-1.09 1.06.75.69.12.4-1.56 1.55-.32.24-.95-.34-1 .62-.72 1.94-.8-.62-1.44.01-.63.5-.85.4.17.54 1.5.51-.24.13-.76-.42-.87.3-.52.7-.26.51 1.3.93.71-.92.99 1.37 1.52.21-.36-.48-.73.23-.37.9.08.4-.6-.16-1.72 1.4.41 1.26.09 1.68-.5 1.63-1.3.8-.33.7.13 1.47 1.19 1 .2.53-.5.3-1.41.46-.8.54-.45 1.56-.6-.45-.33-.3-.94.38-.2.67.65.7-.86 1.7-.86.38-1.44 1.2-.96.74-1.33.32-1.2.52-.8 1.25-.83.97-.3.39-.78 1.05-.83.07-1.15.93-.44 1.2-.1-.39 2.27 1.36-.45.75-.76.94-.21.4.23.86 1.57.68.5 1.16-.28.42-.9-.6-1.8v-.52l2.28.86.68-.29.15-1.13-.37-1.36-.01-1.3.8-.9.77-.13.42.78-.47.74.26.29.85-.2.21-.45-.18-.78-.48-.55-.74-.28.58-.69 1.1-.76-.56-.46.45-1 .58-.57 1.1-.28.56.27.42-.4-.13-.65-.72-.8-.62-.35-1.05-.25.1-.42 1.3.1.93.67.44-.03.23-1.2-1.18-.18-.52-.75.23-.64.08-1.5 1.24-.58 1.02.07-.14-.96-.7-1.02.55-.67 1.72-.33.73-.4.48-.87-.08-1.73.26-.55.66-.42 1.44-.44.89-.04 1.25-.5.94-.99 1.11-.93.82-.34.8.01.45.3 1.51 1.92 1.28.87.97.22 2.56-.42 1.03.48-.44 1.82-.97 1.89-1.87.71-.02.85 1 .53.83.9.8 1.77 1.32 1.94 3.9.88.83.6 2.61-.28.33.92-.35 1.16.55 1.31-.47 1.77-.56.68.3.81.72.5-.2.77 1.1 1.25.5.36 1.15.4.28 1.48.42 1.21-.45 1.19.59 1.6-.28.85 1.61 1.64.2-.18 1.38 1.4.95 1.86.05.92.74 1.32-.2.27 2.32 2.3.17-.85 1.16-.73.31-.96.57-.8 2.75-.46-.06.4 1.95.36-.36-.84.32-.36.66.51.47-.06 1.03 1.17 1.25.19.24.45 1.06-.49.6-.03.38-.75 1.71-1.24.88-.18 1.85.88.24.67-.86 1.3 2.64.23-.21.7.18.64-.3.48.07.77 1.32 1.19.34.99.94.78.22.6.65-.25 1.23.48 1.83 1.86 2.07.56.23 1.25-.38 1.16-.95.14-.07.68.65.54.24 1.26.85 1.4.44 1.57.41.24.72-.35.96 1.8.41-.3 1 1.53-.8.25-.64.55.16.65.94.73-.4 1.04.08 1.52 1.06 1.57-1 .68-.23 1.27 1.22.12.48.48 1.75.06.87-.47.58.46 1.31 1.4.47.24 3.5.06 1.33.61 1.43-.31.9-1.13 1.27-.9.94-.83.58-.9 1.34-.38.9-.98 1.08.1.68-.87.63-.27 1.1.38 1-.6 1.01.24.3 1.13.53.69 1.13.25.74-.4-.1-.7-.95-.98.23-.64h.96l1.47.87.81-.17.62-.97.74.02.53.78-.63 1.33.13 1.14.48.12.61-.43.1-1.3.61-.86.64-.17.9.34.63.98.24 1.23-.46 1.14.04 1.22.86.72.18 1.04.66.7-.38.24.07.66.58.16.47-.83.6-.12.47.7.94.44.36 1.18.36.34-.23 1.16.38.2.28 1.25-.42.2 1.33 1.34.47-.58 1.22-.25.02 4.03-.3.57-.68 1.98-.6.53-.55.12.1 1.73.16.45-1.26.77-.9 1.41-.48.18-.28.72-.97 1.47.14.51.82 1.13.46.39.69.07 1.02 1.1.7-.29.07.6 1.17.58 1.43 1.83 1.43-.8.28.37.09.9-.24.65.68.24-.22.96-.96.25-.23 1.52-.69.22-1.02 1.68v.87l-.84.78-.05.87-.37.62-.75.47-.1.79-1.37 1.93-.93.12-1.2-.3-1.18.53-.4.58-.59.29-.36.64-1.24.55-1.42 1.12-.4.54-1.46-.56-.65.3-1.32.02-.64-.38-.74-.01-.46 1 .23.93 1.57 1.55-.83 2.56.62.6 1.01.2-.02.78.78 1.58-.09 1.27-.31.76-1.17.4-1.37 1.45-.67.17-1.89-.04-.63-.32-1.61-.35-1.19.34-.64.58-.12 2.3-.54.1-.24.7-.6.5.3.7-.85 1.47-1.35 3.72-.68.88-1.37-.05-.67.32-.65 1-2.12.82-1.46-.3-1.02.54-.39.53-1.5-.25-.71 1.23-9.08.24-1.5-1.99-7.74-4.9-1.07-1.06-2.07 1.35-2.77.55-.93 2.49-.64 4.81-.32 1.74-.73 1.67-.14.98.62 1.02.09.93-2.77-.21-.19-.92-2.39-.1-.73.5-1.48-.3-1.44.01-1.36-.35-.48.03-1.53-.78-.18-.45-2.28-2.13-.92-.33-1.01.22.62 2.37-.4 2.57-1.65.48-.38.94h-.64l-1.92 1.78-3.06-.28-.66 3.03.43.13.03.65-.36 3.41-.4.07-.32.67h-1.8l-1.54.46-.7 1.2-.42 1.18.36.41-.35 1.69.15 1-.42 1.03.13.7-.63.49-.66.99-1.23-.16-.46 4.08-.32.32-.46 1.73-.07 1.17-.56 2.72-.75.67-.3 1.56h-.3l-.24 1.08-.9.62-1.52-.11-.54-.22-1.53-.2-1-.7-1.63.06-.48-.79-.79-.25-.28-1.95-1.23-1.98-.32-1.33-.64-.75.35-1.2-.54-1.97-.28-.59.02-1.03.22-1.18-.9-.5-.76-.16-1.41-.64-.82-.7-.4-.81-1.54.42-.06.94-.35 1.32-.56.93-.62 1.84-.63 1.08-.55 1.44-.9 1.01-1.6.99-.22.58.27.82-.78.18-.56-1.59.17-.42-1.14-.38-1.03-1.24-.29-.97-.12-1.39.7-2.26.36-.81-.68-.49-.2-.48h-.82l-.78-1.25-.2-.68-1.83.08-.14-1.29.2-1.02-.03-1.64.26-.87.44-.64.03-.75-1.78-.48-1.38-.02-.82-.45-.26-.85-.93-.63-.57.03-.05-.9-.25-.4-1.79-.68-.43-.97-.86.19-.29-.9-2.3 1.12-.12-.25-1.4.31-1.55.52-.19.64.23 2.66-.36 1.67-.04 1.22-1.3 1.07-.29.72-1.15.89-.88.26-.34 1.2.02.85-.73.13-.99.71-.5.61-1.07.1-.86-.25-.4-.46-1.77-.19-.54-.17-.93.1-.69-1.72-.41-.72h-.7l-2.19-.39-1.8.17.86-1.73.14-2.3-.76-.3-2.4.4-2.08-.38-.92-.33-1.5.49-1-2.6-.86-1.44-.53-1.28-.62-.3-1 .2-.74.38-1.15.03-.07.97-1.69.14-1-.38-1.43.22-.46-.3-1.79-.16-1.43-1.55.18-.94-.25-1.21-.79-.6-.84-.37.09-.78-.36-.32-2.75-3.27-2.7-1.42-2.65-1.12-2.04-1.1-.72-.23.4-1.68-.01-3.1-.15-1.26.03-1.71.28-1.39.19-1.8.4-2.1.01-1.07.47-3.12.01-1.34.9-2.18-.05-.67-1.18-.29.2-1.43-.44-2.07.86-3.56.8-1.72-1.02-.26-1.99-.82-3.22-1.12-1.1-.11-.67 1.65-.37-.16-1.32.16-.34 1.84-2.1-.07-1.49.14-1.62-.37-1.2-.12-2.19.27-1.06-.23-.1 1.27-1.96.15-.38.35-1.37-.06-1.47.32-1.97-.2-.73.45-.77.17-1.33-.05-.83-.6h-1.08l-4.15.47-2.3.89v.69l-.94.61-3.9 1.27-1.37-1.5.17-1.5-.24-1.21-1.24-.67-1.9-.62-.94-.88-.36-1.3-1.46-.66-1.61-1.23-1.66-1.02-.85-.67-1.5.1-1.24-1.17-3.5-.35-.02.62-.38 1.32-.37.59-1.72-1.69-.98.85z" long-name="Szabolcs-Szatmár-Bereg" region="6" short-name="Szabolcs-Szatmár-Bereg" value="1"/>
    <path d="m588.4 579.3-.05-1.3-.52-.57-1.12-.5-.8-.9-.12-.56-1.24.19-.65.76.2.91.79.92.44.87-.15 1.33-.64.98-.83.09-1.4-1.4-1.3-.77-1.32-1.45-.3-.92.34-1.07 1.53-.4.8-.61.8-.37 1.75-.1.82-.35.22-1.4 3.62-1.12 1.22.27 2.66.07 1.47.29.67-.48 1.02-.38.15-.47-.63-.9-.65-1.37-1.01-.73-.96-.43-1.3-3 1.07-.53 1.05-1.14 2.6-2.18.67-.77.23-.95-.14-.99.18-.4.78-.3 1.94-.37 1.3-.55.87-.75.4-.9-.03-1.1-.28-1.04-.97-1.71-.69-.67-.95-.4-1.6-.36-1.39.3-1.16 1.1-.8-.14-.43-1.36-.1-1.69.49-.68.78-.44.95-.24 1.49-.12.57-.53.13-.98-.87-1.19-.14-.78.51-1.03 1.29-1-1.47-1.8-1.97-1.5-3.22-1.81 1.72-3.45.91-2.24-.64-1.3-1.15-.59-1.32-.35-1.88-7.08-.58-.81-.37-.9-1.26-1.32.19-.75-1.48-2.06-.3-.63.63-.55-1.04-2.48-.7-1.11 1.18-3.6.08-.84 1.13-.79 1.09-1.56 2-1.9 2.09-3.64-.52-1.52-.9-1.9-.7-2.35-.72-.46-.1-2.24-2.06-.92-1.7-1.42-.57-.79-.88-.71-1.62-.98-3.83-1.22-1.56-.67-1.36-.3.33-1.18 1.86-5.45 1.92-3.53.14-.96-.8-.67-1.85-3.32-1.17-1.4-.42-1.13.43-1.84-.27-.92-1.34-1.19-1.9-2.66-.55-.62-2.2-1.48-3.58-1.5-1.61-1.14-.88-.46-1.18-.92-.66-.33-2.85-2.16-1.62-.88-1.8-1.16-2.46-2.53-1.97-.73.28-.78-1.1-2.62-.75-1.3-1.05-1.25-.5-.77-2.08-1.59-1.81-1.14-1.58-1.17-1.18-.74-1.74-1.7 1.13-1.4 1.34-1.33.76-2.2.12-1.08.83-.65.74-1.06.87-.7.66-1.1-2.04-1.37-1.38 1.85-1.58-1.18-1.63.83-1.45-1.49-.38.84-.7.7-1.62.98-1.03 1.96-1.19.26-.81-1.13-2.2-2.4-.88-.58-.73-.79-1.6-.8-1.17-.94.86-2.48-1.11-.59.67-1.05.3-2.05 1.26-2.72 1.35-.68 1.4.18.9.52 1 1.03 1.06-.16-.48-4.8 1.63-1.12 2.04-.46 1.87-1.3 2.66-.38 1.45 1.09.7-.03.83.54 2.73 2.03 3.25 2.27.52-.79 1.19-1.38.89-.47 1.18-3.24 1.69-1.27 2.3-.88-.28-1.5v-1.21l.24-2.29.24-1.15.06-1.26.28-.66 1.3.44.22.52.63.42 1.52.6 1.58.84 2.35-1.41 1.74-.55.63-.4 2.52-.44.56-.6.7-1.36 1.46.7 1.24-.27.85.26.92 1.18-.04.88.49.37.14.68.07 2.42.36 3.45.5 1.56 1.36 1.8-1.49 3.81.01.67-.48.36.84.78 1.04 1.57.25.66 1.08.27 1.77.99.96.82.91.03 1.86.7 1.94.95 1.14.16 2.25.86 1.75.91 1.04-1.49 1.85-1.1-.28-.66-1.08-.75-1.01-.34-.9-1.42-.4-1.35-.74-.83.8-.2 1.86-1.07 1.98-.51.57-.38 2.82-.48 1.3-.74 1.04-.37 3.6.05 1.63-.25.18 2.45.48 1.51.19 1.37 1.6.72.21 1.18.76.72-.38 1 .33.9.64-.09 1.67 1.07 1.97.36-.7 1.71 1.68.62 2.92.42 1.64 3.15.85 2.05-.26.12.16 1.96-.08.51-1.15 2.3-.35.5.07.62-.52.93.53.97 1.07 1.15.21.58 2.04 2.52 1 1.35 2.52 3.06 2.34.45 1.64-.13 2.35-1.22.3.59-.2 1.55.08.74-.47 1.34.46.46 1.25.77 1.66.1 1.37-.36 1.04-.11 1.05-.38.81-.53 1.79-1.58 1-1.45-.16-1.33.4-1.35.67-.8 2.12-1.86.86-.14 1.4.51 1.61-.44 1.02-.75.81-.95.7-1.25.64-1.97.34-2.7.62-.55 1.3-.24 1.1-.43 1.12-.63 1.68-.41 2.72-1.24.86-1.29.95-.4.42-.84 1.45-1 .8-.92.42.14 1.88-1.02 2.1-.78 2.27-1.64 1.32-.59.62-.97-.3-1.86-.47-.96.46-.21 1.56.35 1.48-.12.68-.24 1.27-.83.89-1.07.25-1.27-.32-1.08-.99-.28-.5-.61.04-1.28.7-.78 2.21-.9-.2-1.32.46-.92.11-.98-.59-.99-.24-1.26.24-.62.57-.54 1.91-1.2 1.15.1 1.36.38.97-.12.7-.64.65-1.39.74-.92v-.23l-1.02-1.71-.13-.6.63-1 .92-.94 2.62-1.56 1.23-.08.58.49.9 1.12.79.65 1.01.5 1.06.04-.38 1.38.04.8-.3 3.25-.33.7.47.87-.18.7.31 1.69 1.05 3.24.53.9.83 2.23.98.35.86-.07 1.74 1.77 2.43 1 1.87-.08 2.95-.76 3-1.45 1.34-.95 2.19 1.26 2.04.95 1.48 2.25 1.6 1.72v2.88l.43 3.34-.47 2.5-1.27 1.55.33.29.12.89.4.71-.14.74.66 1.1v1.32l.96.28.94.93.4.08-1.39 1.36-.57 1.7-.07.8 1.9 9.28 2.31 11.19 1.68 4.95-1.52 23.26-.05.13-3.5 3.7-.6 1.46-1.54-1.04-1.47 1.16-.64 1.46-1.13 2.21-.25 1.21-.97 2.99-.42.76-1.62-.29-.86.57-.12.55-1.15.33-1.04 1.22-.14.58-2.33-.24-6.76 5.82 1.95 3.16v1.53l.2.67.8.72-3.24.82.07 1.73.4 1.1.02.82-.51 1.47 1.18.12-.13.67-.85 1.58-.26.72.65 1.1 2.1 1.48-.01.9-.71.36.03-.75-1.18-.49-.75-.52-.34 1.03-.9 1.58-1.37 1.21-2.06.94-1.34.46 1.28 1.78-.75.24-6.9.33-.01-2.22-.56-1.53-1.53.45-2.67 1.7-.28 2.05-.4.81-.94-.82-.77.12-.55-.27-.79 4.26.05.7 1.25.05.9 1.43-.1.9.4.25-.75.88-.13 2.2-.4 1.75.74.6.37 1 .9.52.65 1.52-.4.66-1.76-.92-1.15.49.25.7.75.35 2.16-.08.28.5-.27 1.03.32.67-.09 1.08-.82.93-.08 1.06-1.65 1.67-.76.62-1.59 2.32-1.33-.21-.57-.27-1.18-.15-1.48.9-3.12 2.15-5.2-3.64-1.21-.2-1.35 1.17-1.05.24-3.34-.25-1.03-.79-1.04.54.07.9-.23 1.15-1.1 1.13-5.88 2.21-1.7-.2-1.54-.58-.44-.7-2-1.16-1.17 1.04.23.52-1.46 1.4-.97 2.33-.58.98-.86.83-2.41 1.98-.46.53.44 1.9 1 3.47.28 3.13.56 1.25.37 2.37.08.95-1.1.9-.05.4-1.45.36-.43.74-.51-.02-1.73.43-1.33-.09-2.63.7-1.54-.13-.89 1.2-.13 2.63-.57.69-1.29.48-.82-.32-1.67-.17-.77-.21-3.01-.44-.97-1.67-1.37-1.44-1.59-2.24-3.32-1.33-1.77-.01-.78.48-.29.82-.76.18-.1.86.63.26.18.61-.77.81-.53.15-1.83-.97-1.36 1.56.1.36-.63.81-.33 1.03-.76 1.46-.97 1.29-6.13-3.85-1.23-1.37-1.35-1.17-.97-.21-.75.13-.44.64-.11 1.1.21.82.49.6-.01.55-.72.67-1.62.51-.25-1.19.34-1.2-.7-1.06-.52-1.73-.91-.65-1.23-.05-.44-.28-.43-.93z" long-name="Jász-Nagykun-Szolnok" region="7" short-name="Jász-Nagykun-Szolnok" value="1"/>
    <path d="m401.93 773.92-1.19-1.36.14-.17-1.5-1.13-.27-.88.68-.79 1.04-.3.85-.04 1.4-.53.62-.7.46-.95.9-.1.67.34-.12.83 1.62-.43-1.43-1.34-.95-.41.05-.53-.62-.36-1.72-.35 2.37-4.11-.53-.97-.27.1 5.08-8.98h-.18l-3.6-1.97.59-1.08-.37-.8-1.06-.72-1.72 1.34-.6.76-.67.38-.87.94-1.22.47-.93-.4-.56.03-.84-.66-.84.46-.35-.2-.95.71-.55-.7-1.05-.91-1.1.07-.57.42-.9-.14-.65.15-.47-1.84-1.01-1.77.83-.77 2.21-3.1.57-.96 1.44-3.91.3-1.4.36-.55 1.5-.98 1.42-.41 1.27-.6.72-1.11 1.97.14.16-.46-.96-1.1 1.33-2.06.87-.78.46-.78 1.16-1.18.4-.75.29-2-.13-1.56.06-.99-.28-.32.9-3.06.13-1.3 1.22-.23-.07-1.05.2-.52.66-.28 1.38.12.7-.1v-1.05l-.62-.75-.14-.82.25-1.13.62-.57.11-2.07-.55-.05-1.1.99-1.73 2.07-2.62 1.61-.36-.09-1.16-.92.12-.85 1.05-1.83.52-.52 1.32-.63.48-.57.9-1.82.63-.44.98.25.79.68 1.07-1.06.38-.89.05-1-1.38-2.04-.34-.67-.44-1.63.98-1.05.94-.1 1.68 1.87.86.55 2 .23.92-.5-.02-1.63.43-2.8 1.2-4.28.06-1.57-.15-.97-.82-1.4-1.1-1.19-1.31-2.1-.24-1.84-.3-.77-.01-1.09-.27-2.17v-1.8l-.32-2.38-.5-1.53-.4-1.88.06-1.58.53-1.78 1.7-2.21.36-.91 2.1-3.78.58-1.48.54-2.3.08-.83-.26-2.34-.71-3.57-.84-1.24-1.88-3.68-.43-1.15-.1-.88.05-1.94.15-.42-.13-1.13.24-2-.25-2.51-.9-2.14-2.41-3.88-.94-1.18-1.06-2.34.04-1.6.4-1.17.98-1.03 1.88-3.24 1.12-.55.49-.05 2.9.2h.9l1-.87.93-.28 1.82-1.37.75-.23 1.21-.67.06 1.06 1.8-1.26.88-1 1.38-2.1.54-1.24.82-1.5 1.74-2.27.3-.82.16-2.08-.17-1.12-.47-1.68-1.2-2.15-1.09-1.54-.42-1.24-.18-1.88-.56-1.17-.21-1 .13-1.35-1.04.17-.63-2.14-.96-2.01-.56-.43-.46-2.07-.53-.88.58-.43-2.7-1.8-1.05-1.25-.65-2.08.19-1.64-.09-1.74-.02-3.18.15-.66.18-1.7.83-2.34 3.04-4.2 1.09-2.72.24-2.22.27-1.59.38-1.27.1-1.27-.4-2.66-.48-2.05-1.2-2.33-.26-2.56-.1-2.37.73-1.83 1.36-1.72.48-1.1.26-1.54-.23-1.95.68-.61.95-2.02-.3-.71-1.15-1.22-1-.83-.5-.98-.05-1.27 3.3.77 2.2.75 2.74.52 1.22.15.54 1.16 2.24 1.1 2.25.57 1.5.64.75.88.28-.6 2.43-1.37 1.1-.4.56-1.89-.06-1.9.77-.81 1.3-.26 2.96-.86 1.05-1.18.6-1.17 2.3-1.76.82-1.1 5.72-.4.93 1.88 4.18-9.13 2.68-.62 2.1-.1 1.9 1.32 2.43.51 2.03 1.17 1.7 1.73 2.17 2.85 1.45 1.35-2.82 3.81-2.2 1.95-2.8 6.73.57.9 2.99 4.17.87-2.12 1.19-.97 3.73-1.3 2.39.03.6-.3 2.7-2.18 4.87-4.26 1.6.96 3.22 1.26 1.9-.35 1.27-2.6.43-1.18.77-3.48.29-1.76.8-1.9 1.11-3.02 3.97 1.66 4.25.85 1.24-.26 1.21-.9 1.37-1.81 2.46 3.86 2.52 4.53.95 3.16.12.87.4 1.25.96 4.39 3.71 4.54.82 1.2 1.03.9 1.24 1.79 2.5 2.35 1.62 1.04 2.3 1.24 2.39 1.74 1.2 1.09 2.58 2.1 1.96 1.4 3.28-1.46 4.08 2.4 1.62-.05.56-.73 2.2-4.67 2.26-5.13.35-1.18 2.03 1.69 2.67 1.86 1.17.47 1.21.74 1.51.75 1.92-.03 1.15.13.56.38 3.74 1.57-.16-4.41.72-1.23 1.79-2.13 2.83-1.36 1.13-.62.91-.16 4.14-1.17 1.38-1.38 1.57 1.13 1.22 1.11.91.35 3.22 1.8 1.97 1.5 1.47 1.81-1.28 1-.52 1.03.14.78.87 1.2-.13.97-.57.53-1.49.12-.95.24-.78.44-.5.68.1 1.7.44 1.35.8.14 1.16-1.1 1.4-.3 1.6.37.94.38.69.68.97 1.7.28 1.05.02 1.1-.4.9-.87.75-1.29.55-1.94.37-.78.3-.18.4.14 1-.23.94-.67.77-2.6 2.18-1.05 1.14-1.07.53 1.3 3 .96.43 1.01.73.65 1.36.63.91-.15.47-1.02.38-.67.48-1.47-.29-2.66-.07-1.22-.28-3.62 1.13-.22 1.4-.82.35-1.75.1-.8.37-.8.62-1.53.39-.33 1.07.29.92 1.32 1.45 1.3.78 1.4 1.39.83-.1.64-.97.15-1.33-.44-.87-.8-.92-.19-.9.65-.77 1.24-.19.13.55.8.91 1.11.5.52.56.05 1.31-5.41 5.7-3.7 6.1-2.74 3.15-.86 1.38-.89 1.15 4.46 4.21 1.03.85.46.71.37 1.11-.43 3.34-1.45 2.71-.9 1.45-1.02 1.36-.65 3.84 1.5 1.05.53 2.01-.28 2.89-.39 1.38.77 2.55-2.68 2.68-2.04 2.4-2.85 4.42-1.99-1.9-5.76-4.62-5.58 2.82-2.25 1.22-3.6 2.25-5.32 3.94 1.71 2.04 2.72 3.59 1.39-.23 2.87-.29 1.52-.61 3.84 3.69 1.92 1.27 1.38 1.69.91 2.74-.23 1.67-1.35 1.9-1.23 1.53.66 1.26 1.78 3.01.03 1.17-.6 2.36-1.4 1.7-.56 3.22-2.16 2.05-1.42.81-3.67-2.2-.82-.28-1.25-.95-1.85 1.76-1.97 1.51-3.99 2.72-1.66 1.4-1.91 1.15-3.16-2.59-3.83.67-1.45.5-1.25.77-3.44 1.37 1.02 3.39.93.93 1.64 2 1.42 2.65-5.42 6.07-2.22 3.03 2.46 3.79 2.35 3.3 1.97 3.07.55.99 1.36 4.63.41.8-2.34 1.8-.9-.46-.96-1.03-.1.56-1.22-1.32-4.5 4.56-9.67-2.04-.68.38-.5.66.51.91-.4.76-5.12 4.06-1.48-.87-2.16 2.1 1.06 1.03-.2.83 2.87 2.75-.69.63-2.05 1.6-1.96.82-1.54.76-.6-.28-.22.66-2.4 1.42.37 1.37-.06 1.6-4.13 3.25-2.45 2.6-1.14 1.99-3.08.82-2.26 1.34-1.64-2.62-.78-.95-12.5 8.2 3.18 5.01-.94.82-1.69-1.96-7.38.36-.6-.93-3.95.1-1.07.14.81 1.2-5.94-.36-.01-.37-2.7-.04-.32-1.14.24-1.45-.42-.98-.8-3.33-.8-2.04-3.05-.2-1.36-.45-.56 1.02-1.69 2.56-2.56 3.67-1.12 1.44 2.07 7.97-1.2.06-1.25-.13-1.27-.38-3.38.17-2.11.32-1.97.96-1.22 2.72 1.16 3.7.48 1.3-2.15-.14-1-1.82-2.8.88-1.15.48-.47-.15-2.13-.3-1.5-.63-4.38-1.01-.42.36-1.13 1.52-2.56 2.2-1.2.04-.92-.16.46 1.24-6.18 1.36-.38-1.2z" long-name="Bács-Kiskun" region="8" short-name="Bács-Kiskun" value="1"/>
    <path d="m697.05 693.56-1.79-.82-2.32-2.22 2-11.16-1.41-4.11-.85-1.64-.88-.97-.7-2.57-6.77.85-1.55 6.48-8.89-.59-.24.7-2.66-1.1-2.5-1.35-.29.79-2.15-1.3.94-1.23-4.47-4.36.75-1.77.92-1.28 1.63-.87 1.75.15-.23-9.64 3.42-.44.2-.63-.71-2.51-.47.11-.33-1.18-.35-.64.97-.7-.3-.73-.07-.92.46-1.38v-1.82l.3-.43.28-1.87.46-.25.58-1.27.03-1.13.29-.59-.35-.32-.44-1.58-.92-.94-3.86-5.08-.77-10.86-.16-1.13.31-2.77-1.14-.24.84-6.95.11-.02-.18-3.1 2.58-.24-.48-.7-.8-2.85-.05-3.8-.43-1.2.4-2.56 1.6-6.27-2.68-1.8-2.33-1.71-3.1.59-3 .15-2.76-.02-1.6-2.96-1.91-1.83-1.37-.85-1.16-1.28-1.54-1.42-1.58 1.05-1.1.47-1.64.4-.37-2.37-.56-1.25-.28-3.13-1-3.47-.44-1.9.46-.53 2.41-1.98.86-.83.58-.98.97-2.33 1.46-1.4-.23-.52 1.18-1.04 1.99 1.17.44.7 1.55.57 1.69.2 5.88-2.21 1.1-1.13.23-1.15-.07-.9 1.04-.54 1.03.79 3.34.25 1.05-.24 1.35-1.17 1.22.2 5.2 3.64 3.11-2.16 1.48-.89 1.18.15.57.27 1.33.21 1.6-2.32.75-.62 1.65-1.67.08-1.06.82-.93.1-1.08-.33-.67.27-1.03-.28-.5-2.16.08-.75-.35-.25-.7 1.15-.49 1.76.92.4-.66-.64-1.52-.91-.51-.37-1.02-.73-.59.4-1.75.12-2.2.75-.88-.4-.25.1-.9-.9-1.43-1.25-.05-.05-.7.8-4.26.54.27.77-.12.94.82.4-.8.28-2.06 2.67-1.7 1.53-.45.56 1.53.02 2.22 6.9-.33.74-.24-1.28-1.78 1.34-.46 2.06-.94 1.37-1.21.9-1.58.34-1.03.75.52 1.18.5-.03.74.7-.36.02-.9-2.1-1.48-.65-1.1.26-.72.85-1.58.13-.67-1.18-.12.5-1.47v-.82l-.4-1.1-.08-1.73 3.24-.82-.8-.72-.2-.67v-1.53l-1.95-3.16 6.76-5.82 2.33.24.14-.58 1.04-1.22 1.15-.33.12-.55.86-.57 1.62.3.42-.77.97-2.99.25-1.2 1.13-2.22.64-1.46 1.47-1.16 1.53 1.04.6-1.45 2.6.03.73 1.56.83-.18 4.85 7.53 2.06-.75-.8-3.32 1.1.34 6.9 5.82 1.74 1.07 6.45.81 6.21 1.09 3.03 3.11 1.5-.64 2.12 1.26 2.06.01.66-.11 3.09-.23 1.01-.64-.88 4.3.82.42.2 1 .06 1.52 1 1.46-2.29 1.6.38 1.02.27 1.66v1.01l-1.05 1.11-8.2 4.95.12 1.22.62 1.08.37 1.03.24 1.57-.77 1.47-.27 1.64.82 1.33 1.34 1.52.28.63.65-.6 1.6.58.76.44.85.14 2.52 1 4.28 1.6 5.23 2.17.06.2 5.09.31 1.93.27.8-.17 1.04.07.97.38.66 1.24 1.96-.48.11 1.09.56 1.57-1.8.32.2 1.27-.9.17.02.75-.26.97 2.92-2.99 4.24 1.44.75 1.49 1.39.14.64-1.12.52-.27.4-.9 1 .34 1.51-1.01.6.3.54-.8.34-.05.25.88.6.38.7-.17.11-1.23.69-.86.79.08.45.33 2.19-.58-1.53-3.64.5-2.21 1.08-.98.6-2.2.96.82 2.77.32 1.4-.27 1.22-1.2.97-.37.62-1-.44-.21-.11-.66.9.06.26-1.6 1.06-.76.75-.26.32 1.59 1.6-.34.98-.81.36.47 2.43.36.12 1.35.69 1.76.8.19-.06.8-1.2.35-.45 1.19.25.74-.18.66-.84 1.33.04.76-.34 1.42 1.27.17.82.48-.4 1.43-.46.3-.35 1.19-1.44-.2-.5-.22-.67.85.07.46-.68.52-.29 1.03-1.21.92-.33 1.3-4.78.24-.32.08-.76 1.05-.14 2.07.32.41-.02 1.5.58 1.12.65-.09.49 1.95.3.54.38 1.36-1.2.16-.38.22-.33 1.34.4 2.2-.3.66-.51.25-.35.92-1.6.19-.51.53-1.62.48-.12.35-1.8.1-1.3 1.1-1.51.34v.73l-.47 1.01-1.7.16-.55.69.18.57-.15.76.21.52-.22.82.38.8.2 1.45v1.04l-.39.69-.08 1.2-.7.96.23.37-.5.85-.23 1.18-.3.46-2.11 1.72-.5-.18-.85 2.4.14 1.4 1.26.19 2.85 2.62 2.27 1.23.62 2.57-.12 1.43-.7.86-1.26 1.08-.7.11.2.84-.7.67.28.78-.23.7-.76.24-.58.66-.41 1.4-.69.46-1.1-1.28-.94-.51-1.17-.25-2.73 1.58-2.55-1.47-.64.4-.34 1.02.16.72.47.77-.05.93.5.48.56 1.14.7.84.7.11 1.29-.28-.12 1.4-.8.6-1.12 1.46-1.33.76-1.6.4-.77.89-.32 1.52-.27 2.2-.25.81-4.34-1.32-.46-1.03-1.94-.97-1.82 1.71-.8-.22-1.93.55-.75-.54-.75.78-1.55 2.33-.04.49-.95 2.98v.63l-.51.87-.3.91.91.95.2-.25.86.71.3-.32.72.58-.9 1.71-1.6 2.39.25.8-1.08 1.6-.57.27-.56 1.74-1.4-.1-.9.94.33 1.24-2.2 7.26.37.98 1.14 2.3.45.73.26 1.5 1.48-.2 1.83.18.95 1.64 2.4 3.84-.68.27-.15 2.03-1.23 1.8-1.04 1.97-.36 1.25-.58.88 1.05 1.47-1.96.8-1.18-.73-2.48-.35-1.69-.39-1.18.08-2.2-.66-.92.56-.37 2.03-1.51-.27-1.31 7.1.13.24.43 4.75-1.34 1.94-2.12.82.41 1.11-.42.2.27 1.34-.63 1.1 1.18 3.1-.73.3-.17.56-.65.5-2.41-.05-.36.22-.6-.35-.37-1.18-3.42.9-1.07-.14-.5 2.58-.36 2.67-.8 3.3-.44-.29-.89.37-.51.93-.65.71-.75-.17-.24.83-1.32-.37-.73 2.45-.91-.42-2.85-.6-.67-.01-1.86-4.02-1.35.74-2.11.55-1.73.34-2.94-.25-1.47-.25-1.3-.54-.95-3.11-3.24.69-.38 3.16-4.8-2-2.66-3.44-6.05 1.64-5.04 1.23-1.53.47-.87-.09z" long-name="Békés" region="9" short-name="Békés" value="1"/>
    <path d="m534.73 714.5-.4-.8-1.37-4.63-.55-.99-1.97-3.07-2.35-3.3-2.46-3.79 2.22-3.03 5.42-6.07-1.42-2.66-1.64-2-.93-.92-1.02-3.4 3.44-1.36 1.25-.78 1.45-.5 3.83-.66 3.16 2.6 1.9-1.17 1.67-1.4 4-2.7 1.96-1.52 1.85-1.76 1.25.95.82.28 3.67 2.2 1.42-.81 2.16-2.05.55-3.22 1.41-1.7.6-2.36-.03-1.17-1.78-3.01-.66-1.26 1.23-1.54 1.35-1.89.24-1.67-.92-2.74-1.38-1.7-1.92-1.26-3.84-3.7-1.52.62-2.87.29-1.4.23-2.71-3.59-1.71-2.04 5.33-3.94 3.59-2.25 2.25-1.22 5.58-2.82 5.76 4.61 1.99 1.91 2.85-4.41 2.04-2.41 2.68-2.68-.77-2.55.39-1.38.28-2.89-.53-2.01-1.5-1.05.65-3.84 1.02-1.36.9-1.45 1.45-2.7.43-3.35-.37-1.1-.46-.72-1.03-.85-4.46-4.2.9-1.16.85-1.38 2.74-3.16 3.7-6.1 5.4-5.69.37 2.5.43.93.44.28 1.23.05.91.65.52 1.73.7 1.05-.34 1.21.25 1.19 1.62-.51.72-.67v-.54l-.48-.61-.21-.82.11-1.1.44-.64.75-.13.97.21 1.35 1.17 1.23 1.37 6.13 3.85.97-1.3.76-1.45.33-1.03.62-.82-.08-.35 1.35-1.56 1.83.97.53-.15.77-.8-.18-.62-.64-.26.11-.86.76-.18.29-.82.78-.48h1.77l3.32 1.34 1.59 2.24 1.37 1.44.97 1.67 3 .44.78.2 1.67.18.82.32 1.29-.48.57-.69.13-2.64.89-1.19 1.54.12 2.63-.69 1.33.09 1.73-.43.51.02.43-.74 1.45-.36.05-.4 1.1-.9-.08-.95 1.64-.4 1.1-.47 1.58-1.05 1.54 1.42 1.16 1.28 1.37.85 1.92 1.83 1.6 2.96 2.75.02 3-.15 3.1-.59 2.33 1.7 2.67 1.81-1.6 6.27-.4 2.57.44 1.2.04 3.79.81 2.85.48.7-2.58.23.18 3.1-.11.03-.84 6.95 1.14.24-.31 2.77.16 1.13.77 10.86 3.86 5.08.92.94.44 1.58.35.32-.29.59-.03 1.13-.58 1.27-.46.25-.27 1.87-.3.43-.01 1.82-.46 1.38.08.92.29.73-.97.7.35.64.33 1.18.47-.11.7 2.5-.19.64-3.42.44.23 9.64-1.75-.15-1.63.87-.92 1.28-.75 1.77 4.47 4.36-.94 1.24 2.15 1.29.3-.79 2.49 1.34 2.66 1.1.24-.69 8.89.59 1.55-6.48 6.77-.85.7 2.57.88.97.85 1.64 1.4 4.11-1.99 11.16 2.32 2.22 1.8.82-3.94 5.58 2.13 10.04-5.2-.55.18.52-.4 1.87.75.25.43.64-.7.7-.95.38-.93 3.91-.37.87-.66.2-.53.77-1 .52-.77 1.1-.24 1.22-.68.64-.74.23-1.34-.65-.4-.5-.7-.35-1.48.34-.95.97.01 1.9-.39.94-.66.98-.85.44-.98-.4-.73-.77-.64-1.27-.84-.51-.93-1.23-1.95-.82-.81-.75-1.43-.86-.6-.6-1.35-.78-.74-.61-.38-.64-.89-.31-1.13-1.05-.2-.44-.78-.31-.83-.03-2.16-.36-2.43-1.36-.93-.41-.67.24-.17.61.4.34-.93.78.7.6-.47.93.3.62-2.73 3.2-.59.9-2.04 2.09-2.06.26-2.9-.71-2.54-1.24-1.06-.96-.8-.4-.46 1.07-2-1.14-.54.03-1.36 1.07-.34-.43-1.65-3.2-6.44 4.34-.53-1.37-1.5 1.01-.36-.07-2.04 2.3-1.14 1.81-.56.18-.22 1.22-1.14.38-1.14 2.13-.82-.87v-.8l.29-.65-.52-.73-2.26 1.34-.52-1.14-2.96-1.36-.36-1.85-4-3.47-.34.56-1.55 1.05-3.39 1.76-1.41.15-.76-1.3-.92-.37-2.96-2.3-.33-.56-.15-1.41.4-.37-.43-.64-1.19-.2-2.94 4.1-1.14 1.85-.7 1.42-.31-.7-1-.2-1.4.64-1.37.06-.81-.82-.4-1.24-.92-4.15-1.09-.75-4.12.21-3.5.07-4.55-.07-1.97 2.02-1.06.66-2.59.92-3.68 1.88-1.42.27-1.62.1-1.35 1.83-3.39 2.43-.58.56-.8-.75-.65-.15-1.33-.96-.21-.56-1-.07-1.64-1.13-1.35.09-2.01-.8-2.08-2.7-.6-1.2-1.03-.88-1.05.38-1.39-.75-.04-.96-2.18-1.73z" long-name="Csongrád-Csanád" region="10" short-name="Csongrád-Csanád" value="1"/>
    <path d="m286.77 689.32 1.77-1.7.9-.2.6-.37.18-.48-.16-1.64.65-1.23 1.39-1.57-.28-2.3-.34-1.17-.03-1.75-.34-1.2.23-1.71-2.49.28-.1-1.15-1.4-2.9-.37-1.42.01-.64-2.8 1.67-.36-.99-1.94.68-.56.41-.45-.24.16-.88-1.02-1.66-.25-.7.8-.37-.16-.52.95-.28.2.66.93-.27-.26-.83.97-.27-.12-.42 1.56-.26.7-1.37.6 1.06.76-.48-.05-1.25.43.04 2.22-.28-.32-2.46.58-.56-.86-1.67-.73-2.42-.79-1.41-.05-2.03-.44-1.68-.37-.98-.71-2.44-1.38-1.56 1-.56.1-1.33-.52-2.29-.15-1.14-.06-2.39.91-.54-.28-.6.39-.32.12-1.95-.26-1.78 1.78 1.62 1.11-.6.9-.04 1.34-1.64.3-1.18.67-1.38.25-1.47h.74l.07-1.45.36-1.14-.03-.74-.62-.99-.48-1.12-.83-1.18-.4-1.77.52-.3.42-.7 1.48-.68.38-.46.2-1-.14-1.19 1.31-.72 1.45-1-.86-1.8.84-.45-.05-1.03.65-.47.2-.87 1.46-.78.8-.63.61.06-.43-2.3.68-.26-.17-1.23 1.37.18-.43-1.47 1.36-.46-.77-1.37-1.74.99-.38-1.34-.6-1.29-.03-.46-.63-1.45-.48-.46-.16-.72.96.24 1.17-1 1.4-.42.04-1.4.83-.2-.3-.9 1.4-.37.86 1.46.73-.4 1.64-.08.04-1.94-.7-1.77-.16-1.09 1.24-1.1 1.16.41h.66l2.02-1.67.97.13.7-.13 1.53-.56 1.15.27 1.93-.65 1.49-.32.08-1 .57.15 1.26-1.14.11-.9 2.68-2.25 2.76-1.5.46-.42.69.49.26.84-.3 1.36.19 1.63 1.53 1.57.58.3 1.23.18 2.18 1.03 1.67 1.46.96.6.89-.5-.53-.58.43-.3.24-1.02 1.57-1.18.61 1.38 1.3-.13.27 1.35-.21.47.16 1.5 1 .14.79-7.38 1.22 1.32.77 1.81-.3.52-.29 1.53.57.9.7 1.72-.53.89-.12.9-.56 1.57 2.2.84 2.04 1.26 3.2 1.08-.46-.87.62-.65 1.2-.66.9-.05.9.9 2.2-.58.45.62.7-.23-.33-1.63-.74-1.48-.16-.86.56-.36 1.47-.4.63-.43 1.65-1.5 1.18-.72 1.84-.55.6-.47.55 1.17.32 1.08.8 1.45.64 1.82 1.44.69.48-.11.6.69 1.75 1.63.97.01.54-.4.85.73-.33 1.6.31 1.25.9.72.16 1.07-.72.76.46.32.1.9.5.58.05.89-.38.8.98.37-.55 1.21.2 1.05 1.04.5.03.53 1.34-.54 1.29-.07 1.38-.7 1.6-.09 1.46-.83 1.05-.94 1.49-1.6.97-1.35 1.43-.91.68.28.95-.52-.32-.51.94-.5-.72-2.15-1.15-2.2-.87-2.05 2.86-1.3 1.2.09.53-.3.3-1.06.73-.24 1.11.46.64-.18 2.99-.42 1.08-.4 1.26.25-.79-3.23.46-.64 2.28-1.39 1.33-.53 2.47-1.8 3.97-3.75.5-.68.26-1.57.76-.21-.4-.53.93-.47-1.36-1.24-.84-1.33 2.6-1.09 1.52-.3.13.26 2.25-.4.28-.32 1.7-.22.04.52 1.11-.02-.15.66.02 3.18.09 1.74-.19 1.64.65 2.08 1.05 1.25 2.7 1.8-.58.43.53.88.47 2.07.55.43.96 2 .63 2.15 1.04-.17-.13 1.35.21 1 .56 1.17.18 1.88.42 1.24 1.08 1.54 1.21 2.15.47 1.68.16 1.12-.16 2.08-.29.82-1.74 2.26-.82 1.51-.53 1.25-1.4 2.1-.86 1-1.8 1.25-.07-1.06-1.21.67-.75.23-1.82 1.37-.92.28-1.02.87h-.88l-2.91-.2-.5.05-1.11.55-1.88 3.24-.98 1.03-.4 1.17-.04 1.6 1.06 2.34.94 1.18 2.41 3.88.9 2.14.25 2.5-.24 2 .13 1.14-.15.42-.05 1.94.1.88.43 1.15 1.89 3.68.83 1.24.7 3.57.27 2.34-.08.82-.54 2.31-.58 1.48-2.1 3.78-.36.9-1.7 2.22-.54 1.78-.04 1.58.38 1.88.51 1.53.31 2.39.01 1.8.27 2.16v1.1l.3.76.25 1.84 1.31 2.1 1.1 1.2.82 1.4.15.96-.07 1.57-1.2 4.28-.42 2.8.02 1.62-.93.5-2-.22-.85-.55-1.68-1.88-.94.11-.98 1.05.44 1.63.34.67 1.38 2.04-.05 1-.38.9-1.07 1.05-.8-.68-.97-.25-.62.44-.9 1.82-.49.57-1.32.63-.52.52-1.05 1.83-.12.85 1.17.92.35.1 2.62-1.62 1.73-2.07 1.1-.99.55.05-.1 2.07-.63.57-.25 1.13.14.82.62.75v1.04l-.7.11-1.38-.12-.66.28-.2.52.07 1.05-1.22.22-.13 1.31-.9 3.06.28.33-.06.98.13 1.57-.3 2-.4.74-1.15 1.18-.46.78-.87.78-1.33 2.06.96 1.1-.16.46-1.97-.14-1.33-.13-2.1.1-.4-.85-.83-.38-1.62.18-.51.82-.78-.27-.81.3-1.28-1.5-.75-.41-.74-.82-.47.52-.65.27-.45-.94-2.57-1.41-.69-.94-.53-.27-.4.76.38.87-.8.53-.27-1.12-.76-1.74-.48-.6-.71-.44-1.13-1.2-1.19-.86-.83-1.53-1.21-1.6-.25-.63-1.78-1.35-1.38-.89-.56-.75-.49-1.67-.85.18-1.21 1.27-1.06.38-.38-1.31-1.4-1.83-1.63-.7.24-1.08-.8-.9-.2-.81.13-.66.78-.32-.36-1.49-.87.2-1.18.69-1.28-.57.06-.54-.76-.44-1.36-.46-.65-1.3.84-.62.57-.95.5-2.64-.16-1.08v-2.37l.47-.93-1.17-.31-.45-.74-.06 1.86-.36.25-1.58-.6-.53-.6.73-1.18-.06-1.08-1.5-.69-.06-.8-.84-.34-2.77-.4-.84-1.49-.52.17.75 2.9-.11 3.73-.92.75-.9.03-1.2 1.04.94 1.66-3.44.05.3 1.3-.25.66-.6.06-.25.43-1.83.71-.53.62-1 .35-.91 1.07-1.94.66-1.82 1.79-.91.57-.59-.3-1.18-.23-.52-.4-.8-1.54.33-.57.68-.3 2.11-.29.6-.71.95-.14.87-.44.3-.65.9-.7 1.01-3.43.05-1.16.5-1.04.4-1.31.87-.23-1.06-3.13-2.5.96-.88-.96-.46.27-.76-.69-1.29-.12-.44-1.72.48-.36-.43-1.26.6-.55-.11-1.85-.31-.64-.04-1.22 2.46-1.7.17-.73-.6-2.31-1.58-.71.08-.59-.68-.02-.45-.4-2.03-.66-.57.12-.11-1.54-1.07-.94-.25-.82-.03-1.35.17-2 .32-.91.5-.4L331 667l-.53-.61-.46-1.02-.45.26-.59-.17-1.22-1.2-1.5-.8-1.42 1.13-.84.15-.73.49-1.7.53-1.38.16-.5.75-.52.16-2.43-.6-.93-.83-.94 1.14-2.5-.75-5.28 1.7.35 7.37.84.63.72 1.2.46-.17-.07 1.67.05 1.72-.36.7-.17 1.29-.83.19-1.35-.57-.68.1-.54.8-1.1.9-.9 1.14h-1.39l-.3.48-.94.18-1.02-.15-.1-.93-.86-.3-1 .01-.6.91-.72-.25-.55.14-.56 1.55 1.13 2.55-.59 1.27.11.3 1.4.78.68-.87.47.34-1.48 2.23-1.04-.71-.21.14-.5-2.01-1.4-2.06-1.58.54-.88-.36-.89.5-.4.74-.1.82-.62-.41-.96.14-.85-.46-.19.59z" long-name="Tolna" region="11" short-name="Tolna" value="1"/>
    <path d="m590.56 287.78-.29-.66-.06-1.06-.47-.5-1.19.24-.45-.6-.6.43-1.15-.57.06-1.11-.94-1.5-.58.38-.37-.34.33-.44.3-1.07.73-.83.66.07.8-.24.69-1.2-.33-.56-.59.13-.3-.65 1.5-1.5 1 .2.82-.37.66-1.52.94-1.19.5-.11.93-.94.69-.4.86-.83.75-.23.63-.92.29-1.29.04-1.1.65-.89-.03-.86-1.02-.73.28-.92-.13-.53.5-.26.65.18.8-.15 1.07 1.02 2.1-.32.86.53 1.02-.07.52.3 1.54-.11.27-.35 1.27-.22.22-.43-.68-1.33.43-.67.45.54.79.15.9-.88 1.1.01.02-.66.76-.81.05-.7-.77-.5.84-1.08.92-.13.67.56.56-.27.88.9.78.04.29.64.86.3.1.5 1.56.34.63.96.9.07.45-.32.84-.04.54-.34 1.09-.2-.23-.64-.54-.3.48-.75 1 .16 1.41-.07.3-3.42.82.22.13-.78-.2-.55.27-1.2 1.7-1.53 1.56-.86-.23-.66 1.33-.84.75-1.6.47-.68-.83-.6-.14-.52.68-.57 1.06-1.29.94-1.55-.35-.77 1.89-1.03 1.47-1.54.6-1.52-.57-1.29-.16-.81-.65-.68 1.45-1.17.54-1.29.02-1.5.55-.8-.93-1.72.32-.88-.07-.52.6-.75.96-.7.32-.78.74-.33.19-.63 1.04-1.26.22-1.04 1.04-1.16 1.4-.32.77-.6.38.07-.07-1.62-.81-.88 1.34-.5 1.13-.98 1.08-1.15.38-1.8.5-.8 1.64-.26-.26-.3.31-4.22.45-.64-.26-.75-.64-.68-.32-.93.32-.56-.37-.3.63-1.57 1.24-.33.57-.38.9 1.55.55-.04 1.23.56.55-2.36.7-1.24.68.41 1-.17 2 .68 1 .52 1.14.33.08-.67.77-.12 1.05-.72.99.08.52-.3.8-.03.44-.87.62-.72 1.54-.07.9-1 .98.32.28-.81.65-.84 1.7.3.87-.58 1 .45 3.37-1.65 1.59-.62 1.13.23.76-.09.24.71 1-.1-.14-.73 3.35-.38 5.6-.9.46.14 2.38-.73 2.95-1.17.47.55-.59.83.36.5.66-.46 1.13-1.2-.42 2.95 1.18.27.5 1.36 1.42 1.88 1.01-.43.29.63 5.61-2.16.57.16 1.01.79.3.46.27 1.52.59 1.16 1-.4-.06 1.83.66-.42 1.5.5.1 2.69 1.32.24 1.53-.92.83 1.45 1.1-.89-.05-.74.44-.42 1.71-.1 1.57-1.12 1.2.6.45-.45.55.14.55.8.57-.1.9.37 1.31-.13.04.87 1.86-.86 1.14 1.08 1.11.44 1.1.14 1.03 1.1.27.57v1.32l-.4.97.92 1.1 1.1.48 1.28.24 1.56-.33.8-.67.14-.79 1.06-2.1.76-.78.3-.74 1.32-.59.21-.8.94.11.85-.22.9.78.8-.5.33-.62.53.12.61-.45.51.03.93-.64.51-.03v-1.34l1.05.41.62-1.31 1.79.68-.08-1.07.91-.15 1.85 1.63 2.55 1.4.18-.47 3.74 1.14.24-.3 1.14.14.3-.58-.81-.04.58-.94 1.1-.36.26-.53-.92-1.16.2-.34.95.1-.2-.86.6-.56.03-.55-1.01-.05.35-.85.89.28.55-.6-.2-.4-1.3.15-.1-.47.4-.6.61-.36.67.55 1.68.07.16-.2 1.3-.19 2.3-.02.7.26 1.37.17.34-.4 1.96-.81 1.23.05.3.68.62.2.87-.1.73-.92-.14-2.5.19-.85.54-.27.1-.54 1.83-.66.92.97.28.85.4.4 1.08-.13.82.53.76.76.33.66.67.39.83-.11.64 1.02 1.65.24.53.8.9-.15.74.93h.33l.64.9-.36 1.4.22.64.65.65-.02.53.71 1.61-.07.43 1 1.12.86.4.57.54.08.98 1.11-.26.54.18 1.1-.68.3.92.39.43 2.03.07.87-1.48 1.15-.47 1.7 1.25.56-.71.63.24.18 2.53.53-.06.46 1.27.4 4.02-.42.82.33.83 1.22 1.42-.28.64.7 1.91.56-.26.42.26 1.17 2.05.49.11-.08.74.66 1 .96 2.7.45-.25.37 1.3-.24.72.27.41-.15 1.01.44.85-.38 1.33.61.65 2.11-.43.06.52 1.54.95.65.18.62.63.5.87-.47 1.05.46 1.1.85-.3.52.72-.38 1.39 1.1.6.62.98.88.23.92-.17 1.34.15.6.5.83.14.81.6.58.8 1.4-.14.5-.2.85.27 1.02-.5.59.06.6-.4.68.3.6.62.3-.25 1.38.71.57.67.43-.35h1.21l.2-.6-.23-.82.44-.31-.3-.93.3-.5-.39-2.75.18-.43 2.56-.8.63.51.24 1.35.47.51.58-1.02.77.78.6-1.21.86.02-.07 1.02.77-.22v-.6l-.65-.6.03-.55.53-.73.64.24-.57.93 1.21.2.6-.3-.42-1.02.5-.21.04.9 1.59-.95-.03.58.58.2.28.5.51-.1.78.42.58-.13.16-.72-.51-.34v-.87l.69.3.8-.74.05-.35 1.02-.1.4-.86 1.1-.23 2.1-.2.6.5.92-.45.76.39.66-.37.42.46.85-.77.93-.16.16-.6 1.37-.54.47-1.42 1.02.08.73.92 1.75.77 1.43 1.38.52-.1-.11-.74.55-.34 1.17.11.35-.71.61-.45 1.2 1.37-.25.46.54 1.5 1.23-1.25 1 .2.98-1.02 1.15.02.57.39-.09 1.5-.22.64.52.75 1.18.17-.23 1.21-.44.03-.93-.66-1.3-.11-.1.42 1.05.25.62.34.72.8.13.66-.42.4-.56-.27-1.1.28-.58.56-.45 1.01.56.46-1.1.76-.58.69.74.28.48.55.18.78-.21.44-.85.21-.26-.29.47-.73-.42-.78-.76.12-.81.9v1.3l.38 1.37-.15 1.12-.68.29-2.27-.86-.01.51.6 1.81-.42.9-1.16.29-.68-.5-.85-1.58-.4-.23-.94.21-.76.76-1.36.45.38-2.26-1.19.09-.93.44-.06 1.15-1.06.83-.39.77-.97.31-1.25.83-.52.8-.32 1.2-.74 1.33-1.2.96-.38 1.44-1.7.86-.7.86-.67-.64-.38.2.3.93.45.34-1.56.59-.54.45-.47.8-.29 1.4-.53.51-1-.2-1.47-1.19-.7-.13-.8.34-1.63 1.3-1.68.49-1.26-.09-1.4-.4.17 1.7-.4.61-.91-.08-.23.37.48.73-.2.36-1.38-1.52.92-.99-.93-.72-.5-1.3-.7.27-.3.52.4.87-.12.76-.5.25-.54-1.5-.42-.17-.49.84-.01.63.62 1.43-1.94.8-.62.73.34 1-.24.95-1.55.32-.4 1.56-.69-.12-1.06-.75.23 1.1-.83.72.74.71-.14.3-1.17-.06-1.01.69-.43-.23-.15-1.47.35-.63-.15-.45-1.17.35-1.29.7-.54.52-.62-1-.78-.3-.21.66.24 1.37.86.35-.18.83-.9.56-.46-.46.33-.93-.45-.3-.4-.86-.72.97-2.93-.1-1.4.74-5.25-.49-2.42.3-3.74-.8-1.65-1.2-1.02-1.17-.8-.21-.54.16-.5.8-.18 1.18-.83-.13-.48.24-.79-.23-.16.53-1.5.53-1.28-.23-.36.8-.04.82-1.02.85-1.16.28 1.21 1.3-2.85.4.33.8-.44.32-.45-.3v-.9l-1.92-.6-1.31.15-.58.48-.21.67.05 1.67-.37.2-1.15-.6-.39-1.59-.93-.53-1.04.12-.62.44-.5 1.16-.3 1.58-.75.2-.91 2.02.27.6.33 1.83-.56.86-.03.53.82.6-.42.85-.96 1.08-.87.63-.01.66.44 1.24.6 1.06 1.06 1.22 1.2.71 1.7 1.39.54 1.08-.2.47-.93.13-1.37-.54-.35.56.84 1.7.64-.08.64-.48 1.1.39.44.88.7.3-.02.48-1.13-.02-1.8 1-.6.65.22 3.08-.47 1.16-.5.42-1-.08-.55-.71-.5-1.06-.71-.27-.54.89.25 1.33.8.9.14.56-1.34 1-.8.15-.9-.2-.87-.47-1.1-.2-.84.22.9 1.57-.23.42-.64-.34-1-1.14-2.34-.36-.44.32-.29 1.33-1.07.8-.9.25-.86-.11-.66-1.4-.85-.6-.8-.07-1.78.59-.99.12v-.74l.4-1.02-.43-.22-.93.8-1.27-.32-1-.04-1.03-.7-.37-.48-.45-1.25-.1-.86.27-1.6-.46-.08-.46.67-.92.65-.77.3-.58.5-.54.99-1.26 1.01-.5.86.16.74 1.08.92-.18.47-.76.63-.74.3-1.22-.03-1.77-1.02-.84-.26-1.9.21-1.36.5-.36-1.47.58-1.09-.31-.74-1.36-.53-.53.12-.69.91-.38-.02-1.24-1.25-.84.32-.7-.58-.41.32.5.84-.34.48-.59.07-1.48 1.78-.37.74-.11 1-.86-.03-1.38.4-.55.96.15 1.59-1.38.22-.4.89-.1.72.66.04.39 1.06 1.55 1.69 1.2 1.63.32 1.2-.61 1.1 1.05-.18 1.93 2.11-.95 4.18-.2 1.65-.79 1.16-1.48.63-.63.54-.27.9.86.77.87-.63 1.06.45 1.66-.25.48.87-.47 1.16.03.46-1.03.48-.95.08-1.61.54-.71 1.47-1.2 1.26.49 1-.19 1.37-.01 1.24-.3 2.08-.92.1-.7.44-.16.85-1.28-.28-.45.45-.3.76-.6.5 1.36.7-.37.53 1.47 2.08 1.2.49-.06.56.8 2.35-1.55 2.53.16.42-.48.6-.32.93.3.9-.27.52.13.68-.75.21-.05.8-.72 1.81-.73-.19-.32.44.74.57-.82 2.08-.39-.17-.39.71.34.58-1.13 2.9-.48-.28-.36-1.1-.78-.91-.52-.23h-1.17l-.9.23-1.15.94-.44.73.23 1.1.67.5-.94.98.26.37-.3.64.8.77-.05 1.18-.48.8-.56.42-1.26.27-2.48-.31-2.48.62-.72 1.38-.28-.11-1.37 1.37-.17.7.41 1.5-1.26-.29-1.27.49-1.13.86-1.05.97-1.24-1-.47-1.57-.65-.06-.38.56-.18 1.06.65 2.8 1.26-.48.8.23.09.52-.55.8-1.26.46-1.11-.49-.45.1-3.1-.67-.86.16.07 1.46.75 1.66.96 1.06 1.9.81.56.74-.06.59-.44.6-.77.14-1.32-.32-1.18-1.25-.05-1.7-1.32.27-.36-.15-.95-1.03-.2.96-.57.25-.48-.47-.04-.8.38-1.38-1.06-.04-1.01-.5-.79-.65-.9-1.12-.58-.49-1.23.08-2.62 1.56-.92.94-.63 1 .13.6 1.01 1.7.01.24-1.41-.6-.98-1.6-.75-.6-.94-.05-.41-.62-2-1.72-1.4-1.59-2.17-.99-.7.44-1.66.48-.53-.31-1.1-1.29-.57 1.79-1.29-.17-1.58-.04-.57.39-1.71-.33-.64-.74-2.5-1.02-1.22-.15-.82-.42-.67-.64-.56-1.1-.81-.38v-.68l-.72-.36-.95.32-1.06-1.01v-.49l1-1.16v-.66l.83-1.08.92-.76.88-1.1-1.05-.65-1.71-1.65-.6-.2-1.66-.98-.3-.87-.8-.49-.66-.76h-.68l-.5-.78-.14-.69-1.5-.02-1.13-2.3-.54-.54.22-.39-.27-.74-1.76-1.85-.8-1.38-.2-1.06.17-.5-.18-1.24.58-.56.84-1.32.2-2.3-.18-1.14-.5-1-.85-3.2-.34-.5-.96-.71-4.01-1.1-.41-.03-.93-1.06-.42-1.06-.82-1.29v-1.5l-.26-.43.62-.72 1.37-.63.13-.84.74-.41.8.1 1.12 1.28 1.52-.9.9.44.3-.25-.3-.78-.67-.95.6-.63-.5-.48.61-.37 1.9-.65.1-.63.83-.26-.84-2.42-.68-.32-1.3.08-.95-1.16-.66-.52-.98-.38-.58-.5-.57-.96-.55-.28-1.2-1.06-1.5-.98.36-.93.66-.01.44-.72 1.35-3.44 1.17-.17.47-1.45-.41-.87.68-3.5.46-.26.4-.83-.25-.7.39-.94-.28-.8.36-1.27-.19-.6-1.19-.93-.73-2.3 3.1-.74.34-1.15-.8-1.4-.26-.91v-.81l-.54-1.29-.6-.44-.76-1.11-.1-.74.42-1.1-.57-.49.44-1.6-.16-.64-.63-.34-.33-1.4.15-.47-.52-.5-.02-.81-.84.15-.42-.62-.35-1.5-.64-.84-1.1-.5.59-.4-.39-.47-.96.16-1.27-.45-.49.37-2.02.04-.66.27-.6-.27-.54-.64-1.44 1-.68-.26-.97.26 1.14 1.99.12.73-.82 1.02h-.52l-1.48.73-.27 1.2.08.72-.64.34-.65.95-.21.79-.1 1.42.14 1.01-.41.48.1 1.13-.7.16-.34-.82-.65-.33-.19-.5-1.47-1.34-.68.2-.09-.63-1.13-.45.14-.5-.89-.62.21-1.43-.56-.51-.69.18-.64.52-.97.31-.9-.55-1.29-.32-.18 1.52-.51.99-.46.06-.2.73.64.19.26.76-.49.2-.05.98-.83.77-.82-.4-1.28.05-.09.5-.63-.03-.9 1.22-.56-.45-.56.01-.15-.54-1.4.31-1.9-.05-1.95-.89-.08-.8-.56-.53.4-1.1-1.38-.27-.5-.44-1.8-.44-1.07-.5.05-.9-.24-.8-.52-.92.28-.43-.45-1.16-1.39.13-.73-.33-.18-.8-1.6-.85-.44.19-1.25-.42-1.06.51-.11.53-1.07.1-1.46.39-.38-.99z" long-name="Borsod-Abaúj-Zemplén" region="12" short-name="Borsod-Abaúj-Zemplén" value="1"/>
    <path d="m528.88 409.11-1.87-2.16.53-2.96-.12-.97-.78-1.2-.6-1.26-.57-.5-.09-1.05-.86-.46 1.1-1.97-.5-.3-1.1-.03-1.49-.61-.77-.53-.9-.9-.7-.96.08-.8-.6-1.68-1.29-2.03-.54-1.26 1.44-1.19-.95-.77.66-1.25.64.24.44-2.27-2.75-2.44-1.06-1.43-1.45-1.13 2.03-2.34 2.12-1.27.38-.84 1.3-.92.34-.64 1.39.63 1 1.17 1.37-1.93.5-1.1-.54-.3.62-1.83.36-.51-.36-.53-.26-1.94-.74-1.34-.1-.84-.45-.95 1.12-.67 1.96-1-.1.7.31.8 1.1 1.45.85-.5-.22-.67.01-1.04 1.37-.2.86.04.22-1.4.27-.64.7-.03 1.6.76 1.12.23 1.21-.63-.16-1.29.89-1.34v-.9l.6-1.17.53-.54.92-1.7.82-.62 1.27-1.48 1.41-1.07.58-1.07-.25-2.32.57-.9-.1-.94-.94.1v-.64l1.19-1.18.03-1.4 1.37-.4.83.65.26.46 1.7 1.52.19.66.67.68 1.6.2.99.86.65 1.1 1.12.5.62-.05 1.06-.45.73-1.42-.2-.9.37-.7.84-.14-2.08-2.32-.64.5-.79.17-.14.55-1.2-.21-.24-.46-1.7-1.15.62-.61-.55-.32.29-1.02-.35-2.06.8-.13 1.1-.67.39.16 1.3-.6 1.35-.17.92.25.47-.31.83.39.81.06 1.03-.67 1.5.07.59 1.25.46.34 1.01 1.21.7.08.57-.34 1-.16.35.58 1.06-1.5.38.33 1.52-.83.4-1.23-.19-.72.3-.37.57-1.77.85-.02.48-.5 1.19-.01.97-.41.44-.43.2-.78-.23-1.09v-.9l-.48-.7-.13-.89.64-.71 1.12-.03.46-.98.99-.26.1-.63-.77-.43-.67-.73-.15-.78.62-.69.05-.89 1.45-.22.83-1.72 1.09.6 1.23-.4.78.13 2.14-.9-.78-1.26-.99.02-.71-.71-.29-1.25-.01-2.94-.44-.83.43-.6-.34-.29-.11-.9-.32-.43.71-.8-1.46-.98-1.35-1.13-.07-.58-1.05-.5.05-1.18-.67.04-.68-.66-.7.06-.1-1.04.13-.94-.46-.13.93-1.7.31.56 1.55-.23.21-.56.72-.05 1.1-.63.34-.52 1.9-.08 2-1.16 1.11.34 1.35-2-.4-1.03.1-.64.45-.27.63.21 1.76-.03.64.4.53-1 .5-.24-.28-.6.3-.35-.04-1.12.7-.04.77-1.02.67-.45.74.16.38.99 1.46-.4 1.07-.1.1-.52 1.07-.51 1.25.42.43-.19 1.6.86.2.79.72.33 1.4-.13.44 1.16-.28.43.52.92.24.8-.05.9 1.07.5 1.8.44.5.44 1.38.27-.4 1.1.56.53.08.8 1.95.9 1.9.04 1.4-.31.15.55.56-.02.56.45.9-1.22.63.03.08-.5 1.29-.05.82.4.83-.77.05-.99.49-.2-.27-.75-.64-.2.21-.72.46-.06.51-.99.18-1.53 1.3.32.9.56.97-.31.63-.52.7-.18.55.51-.21 1.43.9.63-.15.49 1.13.45.09.63.68-.2 1.47 1.35.19.49.65.33.35.82.69-.16-.1-1.13.41-.48-.14-1.01.1-1.42.2-.8.66-.94.64-.34-.08-.72.27-1.2 1.48-.72h.52l.82-1.03-.12-.73-1.14-1.99.97-.26.68.25 1.44-.99.53.64.61.27.66-.26 2.02-.05.49-.37 1.27.45.96-.16.39.47-.58.4 1.1.5.63.84.35 1.5.42.62.84-.15.02.82.52.49-.15.46.33 1.41.63.34.16.64-.44 1.6.57.48-.42 1.11.1.74.76 1.11.6.44.54 1.29v.8l.27.93.79 1.39-.34 1.15-3.1.74.73 2.3 1.19.93.19.6-.36 1.27.28.8-.4.95.25.69-.39.83-.46.25-.68 3.5.41.88-.47 1.45-1.17.17-1.35 3.44-.44.72-.66.01-.35.93 1.49.98 1.2 1.06.55.28.57.96.58.5.98.38.66.52.94 1.16 1.31-.08.68.32.84 2.42-.84.26-.09.63-1.9.65-.6.37.49.48-.6.63.67.95.3.78-.3.25-.9-.44-1.52.9-1.12-1.27-.8-.11-.74.41-.13.84-1.37.63-.62.72.25.43.01 1.5.82 1.3.42 1.05.93 1.06.4.03 4.02 1.1.96.72.34.48.84 3.22.51.99.18 1.15-.2 2.29-.84 1.32-.58.56.18 1.25-.16.49.18 1.06.8 1.38 1.77 1.85.27.74-.22.39.54.54 1.14 2.3 1.5.02.13.69.5.78h.68l.67.76.8.49.3.87 1.64.98.6.2 1.72 1.65 1.05.64-.88 1.1-.92.77-.82 1.08-.02.66-1 1.16.01.49 1.06 1 .95-.31.72.36v.68l.81.38.56 1.1.67.63.82.43 1.23.15 2.5 1.02.63.74 1.7.33.58-.39 1.58.04 1.3.17.55-1.79 1.1 1.29.54.31 1.65-.48.7-.44 2.17 1 1.4 1.58 2 1.72.42.62.94.05.75.6.98 1.6 1.41.6-.74.92-.66 1.39-.69.64-.97.12-1.36-.37-1.15-.1-1.91 1.19-.57.54-.24.62.24 1.26.6.98-.12 1-.47.9.21 1.34-2.2.89-.7.78-.05 1.28.5.6.99.29.32 1.08-.25 1.27-.9 1.07-1.26.83-.68.24-1.48.12-1.56-.35-.46.2.48.97.3 1.86-.63.97-1.32.6-2.27 1.63-2.1.78-1.88 1.02-.42-.14-.8.92-1.45 1-.42.84-.95.4-.86 1.3-2.72 1.23-1.68.4-1.12.64-1.1.43-1.3.24-.62.54-.34 2.71-.64 1.97-.7 1.25-.81.95-1.02.75-1.61.44-1.4-.5-.87.13-2.11 1.86-.66.8-.4 1.35.15 1.33-1 1.45-1.79 1.58-.81.53-1.05.38-1.04.1-1.37.38-1.66-.1-1.25-.78-.46-.46.47-1.34-.08-.74.2-1.55-.3-.59-2.35 1.21-1.64.14-2.34-.45-2.53-3.06-.99-1.35-2.04-2.52-.2-.58-1.08-1.15-.53-.96.52-.94-.07-.62.35-.5 1.15-2.3.08-.51-.16-1.96.26-.12-.85-2.05-1.64-3.15-2.92-.42-1.68-.62.7-1.7-1.97-.37-1.67-1.07-.64.08-.33-.89.38-1-.76-.72-.2-1.18-1.61-.72-.19-1.37-.48-1.5-.18-2.45-1.63.24-3.6-.05-1.04.37-1.3.74-2.82.48-.57.38-1.98.51-1.87 1.07-.79.2.74.83.4 1.35.9 1.42 1 .34 1.09.75.28.65-1.85 1.11-1.04 1.5-1.75-.92-2.25-.86-1.14-.16-1.94-.94-1.86-.7-.9-.04-.97-.82-1.77-.99-1.08-.26-.25-.67-1.04-1.56-.84-.8.48-.35v-.67l1.48-3.8-1.36-1.8-.5-1.57-.36-3.45-.07-2.42-.14-.68-.5-.37.05-.88-.92-1.18-.85-.26-1.24.27-1.46-.7-.7 1.36-.56.6-2.52.45-.63.4-1.74.54-2.35 1.41-1.58-.85-1.52-.6-.63-.41-.21-.52-1.31-.44-.28.66-.06 1.26-.24 1.15-.24 2.29v1.21l.28 1.5-2.3.88-1.7 1.27-1.17 3.24-.9.47-1.18 1.38-.52.79-3.25-2.26-2.73-2.04-.84-.54-.7.03-1.44-1.09-2.66.38-1.87 1.3-2.04.46-1.63 1.13.48 4.8-1.05.15-1-1.03-.9-.52-1.41-.18z" long-name="Heves" region="13" short-name="Heves" value="1"/>
    <path d="m420.9 306.82 1.44-.34.9-.04 1.66.22.7-.15.76.33.66-.13.65.77.4-.23.65.36.72-.38.85-1.14v-1.02l.53-.59 1.21-.21.76-.37-.26-.38.95-.98.57.56.96.4.68.77.46.17.08.73 1.96-.3 1.24 1.51.78.36.75-1.48 1.16-.2.73-.4.47-.91.7-.3.56.16 1.23 1.06 1.19.4.73-.23.89.1.57-.86.92-.8 1.14-.03.95.34.24.66.87.56 1.22.41 1.1-.12 1.44.52.61.4 1.32.24 1.71-.64 1.72-.22 1.55.6.72 1.1 1.59.62.68-.19.67-.88.1-1.17.7-1.38.42-.38 1.2-.45 1.2.14.9-.46.63-1.4 2.49-1.35.59-.07 1.4.3 1.64-.66.53-.03 1.33.38.85-.25.96.25 1.26-.36.33.5.5-.18.66.64.52-.29.03-.48.73-.41 1.17-.12.42.48.02.73.95.07.6.78.24-.69.45.1.55-.81 1.4.04 1.07-.35 1.24-1.2.15-.84h.64l.4-.35.86.23.82-.27.02.6-.38.44.02 1.07.57.86.76.24.25.82.95-.46-.3-.79.15-.7.5-.57 1.12-.1 1.2-1.29-.43-.53.06-.48 1.28-.75.14-1.26-.4-.7.53-.62.2-.88-.29-.42.21-1.85-.08-.54-.52-.43 1.14-1.22 1.2-.58.14-.84.49-.64-.31-1.09.21-.63-.51-1.85-.6-.52.5-.52.74-1.42.51-.25.62.12.4-.77.86-1.08-.02-.98-.64-1.04.59-.9 1.02-.32.5-.56.58-.01.37.73 1.45-.85.27-.46 1.4-.87 1.47-.15 1.2-1.23.96-1.33 1.4-.83.86-1.6 1.62-.77.74-.93.48-.15.43-.58 1.97 1.83.03.54.88.3.55-.08.7-.72h.96l.74.7-.04.83.46.47-.2.52.52 1.3-.18.9.76.65v.81l.79.54 1.32 1.25 1.61.8.72-.3 1.57.2.6-.55.6-.92.12-.55.67-.97 1.64-.3.94.49 1.03.03.51.64.07.68.63.62 1.94.9.73.95.13.9 1.68-.51.48.52v.66l.5.72-.02.51-.9 1-1.53 1.33.17 1.05-1.02.66.56 1 .4.24.83 1.31 1.7-.14.22-1.43.6-.6.24-.78 1.08-.46 1.25.46.38.95 1.87-.04-.2-1.14.93-.78.23-1.3.42-.2.51.72-.36.67.62.56 1.15-.46 1.06.4.68-.14.35 1.33h.97l1.4-.49 1.07 3.27.96.65.06.53-.75 1.67-.8.36-.11.87-.49.69.06 1 .31.16 1.51-1.26.6.26 2.1-.33.62-.43.54.2.2-.6-.24-.53 1.7-2.1.37-1.24.7.1 1.05-.22 1.55-3.06.95.09.57.63.57.1.39-1.37.51.1 1.26-.84 1.23-.12.6-.35v-.45l1.85-.4.95.68 1.12.33.16 1.24 1.11-.1.37.34.58-.39.93 1.5-.05 1.12 1.14.57.6-.43.46.6 1.19-.23.47.49.06 1.06.29.66-.67.45-.78 1.02-.7.04.06 1.12-.31.35.28.6-.5.23-.53 1.01-.64-.4-1.76.03-.63-.2-.44.26-.12.64.4 1.02-1.34 2.01-1.1-.34-2 1.16-1.91.08-.34.52-1.1.63-.72.05-.2.56-1.56.23-.3-.55-.94 1.7.46.12-.13.95.1 1.03.7-.06.68.66.67-.04-.05 1.18 1.05.5.07.58 1.35 1.12 1.46 1-.71.78.32.44.11.9.34.3-.43.6.44.82.01 2.94.29 1.25.71.7.99-.01.78 1.26-2.14.9-.78-.12-1.23.39-1.1-.6-.82 1.72-1.45.22-.05.9-.62.68.15.78.67.73.77.44-.1.62-1 .26-.45.98-1.12.03-.64.71.13.88.48.71v.9l.23 1.09-.2.78-.44.43-.97.4-1.19.02-.48.5-.85.02-.57 1.77-.3.37.19.72-.4 1.23-1.51.83-.39-.33-1.06 1.5-.35-.59-1 .17-.57.34-.7-.08-1-1.21-.47-.34-.6-1.25-1.49-.07-1.03.67-.8-.06-.84-.4-.47.32-.92-.25-1.34.17-1.31.6-.39-.16-1.1.67-.8.13.35 2.06-.3 1.02.56.32-.62.61 1.7 1.15.25.46 1.18.21.15-.55.79-.17.64-.5 2.08 2.31-.84.16-.36.7.19.9-.73 1.4-1.06.46-.62.05-1.12-.5-.65-1.1-.98-.87-1.6-.2-.68-.67-.2-.66-1.69-1.52-.26-.46-.83-.64-1.37.4-.03 1.4-1.2 1.17v.64l.94-.1.11.93-.57.91.25 2.32-.58 1.07-1.4 1.07-1.28 1.48-.82.63-.92 1.69-.54.54-.6 1.17.01.9-.89 1.34.16 1.29-1.21.63-1.12-.23-1.6-.76-.7.03-.27.64-.22 1.4-.86-.03-1.37.19-.01 1.04.22.67-.85.5-1.1-1.44-.31-.81.1-.7-1.96 1-1.12.67.46.95.09.84.74 1.34.26 1.94.36.53-.36.5-.62 1.84.55.3-.5 1.1-1.38 1.93-1-1.17-1.4-.63-.34.64-1.3.93-.37.83-2.12 1.28-2.03 2.33-.57-.57-1.3-.72-2.5-1.2-1.2 1.46-.9 2.01-.98.5-.25 1.06-.66.29-1.1.16-1.86 1-.4.84-.2 1.23 2.13.21.69.47.36 1.23-.34.54-1.17.08-1.4.66-.8.57-1.27.48-1.4-3.14-.36-1.57.04-.53-.6-.42-1.34-.31-1.26-2.86-.99-.93-.47-1.32-.16-.94.27-1.44 1.39-1.35.4-1.65-.32-1.08-1.67-.12-1.34-.9-.94.4-.28-.56.05-1.14.71-.44.38-1.22.12-.97.4-1.24 2.03-.81.76-.42-.96-.83-.54-.75-.74-.39-.88-1.16-1.92.14-.73-.56-1.03-.08-.87-.68-1.92.15-.7.58-2.49-.08-.52.1-1.02-.76-.92-.42-1.66-1.6-.92-.27-.74.2-2.52.37-3.93 1.12-1.93-.57-.73.09-.73.38-2.09-.08-.6-.28-.46.36-1.25-1.35-.25-.83-1.76-.8-.06-.67-1.65-.5-2.41-1.07-.34.46-.52-.32-.91-.04-.14.7-.47.18-1.26-.74-1.15-.07-.74-.27-1.51-.24-1.42-.05-.45.23-1.56-.24-.62.22-.78.98-.07.71-.89.1-.7.7-.32-.5-.97-.51-.8-.67.12-1.57-.66-.42-.7-.83-.96-.22-.77.23-.77-.56-.52-1.22.26-.52-.36-1.05.32-.85-1.17-.8-1.43-1.79-1.03-.04-1.07-.43-1.51-1.33-.56-.63-2.01-3.26-1.68-.46-.97-.79-.86-1.09-.2-1.2-.95-1.22-1.05-.66-.49-.78.73-.74-.98-1.16v-.32l1.3-.9 1.49-1.28 2.05-1.18 2.94-2.1-.27-.3-.49-1.53 2.3-.83-.04-2.1-.24-.77.7-.64-.03-.56-1 .08.57-1.46-.48-.44-.63-1.66-.92-.63-1.36.28-.82.69-1.02-.8-.84-.1-.51.43-.8-.83-.97-2.2-.7-.36-.35-.72-.99-1.24-.2-.73z" long-name="Nógrád" region="14" short-name="Nógrád" value="1"/>
    <path d="m725.42 484.45 3.5-3.7.05-.14 1.53-23.26-1.68-4.95-2.32-11.19-1.89-9.28.07-.8.57-1.7 1.38-1.36-.39-.08-.94-.93-.96-.28v-1.32l-.66-1.1.13-.74-.39-.71-.12-.9-.33-.28 1.27-1.56.47-2.5-.42-3.33v-2.88l-1.61-1.72-1.48-2.25-2.04-.95-2.2-1.26-1.33.95-3 1.45-2.95.76-1.87.09-2.43-1-1.74-1.78-.86.07-.98-.35-.83-2.23-.53-.9-1.05-3.24-.3-1.7.17-.69-.47-.88.34-.69.29-3.25.48.47.58-.25.19-.96.96 1.03.35.15 1.32-.26.05 1.69 1.18 1.25 1.32.32.76-.14.45-.6.06-.6-.57-.73-1.89-.81-.95-1.06-.76-1.66-.07-1.46.86-.16 3.1.68.45-.1 1.1.48 1.27-.47.55-.8-.1-.51-.8-.23-1.25.48-.65-2.8.18-1.06.38-.56.65.06.47 1.57 1.24 1 1.05-.97 1.13-.86 1.27-.49 1.26.3-.41-1.51.17-.7 1.37-1.37.28.11.72-1.38 2.48-.62 2.48.31 1.26-.27.56-.41.48-.81.05-1.18-.8-.77.3-.64-.26-.37.94-.98-.67-.5-.23-1.1.44-.73 1.16-.94.89-.23h1.17l.52.23.78.92.36 1.09.48.27 1.13-2.9-.34-.57.4-.7.38.16.82-2.08-.74-.57.32-.44.73.2.72-1.83.05-.79.75-.2-.13-.7.26-.52-.29-.89.32-.93.48-.6-.16-.42 1.54-2.53-.8-2.35.08-.56-1.2-.49-1.48-2.08.37-.53-1.36-.7.6-.5.3-.76.45-.45 1.28.28.15-.85.7-.44.92-.1.31-2.08.02-1.24.18-1.37-.49-1 1.2-1.26.7-1.47 1.62-.54.95-.08 1.03-.48-.03-.46.47-1.16-.48-.87-1.66.25-1.06-.45-.87.63-.86-.78.27-.9.63-.53 1.48-.63.79-1.16.2-1.65.95-4.18.83.93.98-.85 1.73 1.69.37-.59.37-1.32.02-.62 3.5.35 1.25 1.17 1.49-.1.85.67 1.66 1.02 1.6 1.23 1.47.67.36 1.3.95.87 1.89.62 1.24.67.24 1.22-.17 1.5 1.37 1.5 3.9-1.28.93-.61v-.69l2.3-.89 4.16-.47h1.08l.83.6 1.33.05.77-.17.73-.45 1.97.2 1.47-.32 1.37.06.38-.35 1.96-.15.1-1.27 1.06.23 2.18-.28 1.21.13 1.62.37 1.49-.14 2.1.07.34-1.84 1.32-.16.37.16.66-1.65 1.11.1 3.22 1.13 2 .81 1 .27-.8 1.72-.85 3.55.43 2.08-.2 1.43 1.19.3.06.66-.91 2.18v1.34l-.48 3.12-.01 1.06-.4 2.1-.2 1.81-.27 1.39-.03 1.71.15 1.26v3.1l-.39 1.68.72.23 2.04 1.1 2.65 1.12 2.7 1.42 2.75 3.27.36.32-.1.78.85.37.79.6.25 1.21-.18.94 1.43 1.55 1.8.15.45.31 1.43-.22 1 .38 1.7-.14.06-.97 1.15-.03.73-.37 1-.2.63.29.53 1.27.86 1.45 1 2.6 1.5-.49.92.33 2.09.38 2.4-.4.75.3-.14 2.3-.85 1.73 1.8-.17 2.18.4.7-.01.41.72.69 1.72.93-.1.54.17 1.76.19.41.45.86.25 1.06-.09.51-.61.99-.7.73-.14-.02-.85.34-1.2.88-.26 1.15-.89.3-.72 1.3-1.07.03-1.22.36-1.67-.23-2.66.19-.64 1.54-.52 1.41-.3.12.24 2.3-1.12.3.9.85-.19.43.97 1.79.68.25.4.05.9.57-.03.93.63.26.85.82.45 1.38.02 1.78.48-.03.75-.44.64-.26.87.02 1.64-.19 1.02.14 1.3 1.83-.1.2.69.78 1.24.82.01.2.48.68.49-.36.81-.7 2.26.12 1.4.29.96 1.03 1.24 1.14.38-.17.42.56 1.59.78-.18-.27-.82.22-.58 1.6-.99.9-1 .55-1.45.63-1.08.62-1.84.56-.93.35-1.32.06-.94 1.55-.42.39.82.82.69 1.4.64.78.16.9.5-.23 1.18-.01 1.03.27.59.54 1.97-.35 1.2.64.75.32 1.33 1.23 1.98.28 1.95.79.25.48.78.23.72-.04 1.22-.6.4-.43.74-.4 1.14-.6.8-.63.13-.78.5-.6 1.9-.93 1.32-.45.18-.6-.78-1.12-.22-.7.34-.3.74-1.29.82-.74.68-.47.89 2.53 1.87-1.38 2-2.44-2.27-.93 1.73-2.06 2.7-.73 1.83-.32 1.45-.5.82-.2 2.33-.5 1.64.1 1.63.83 1.1.32 1.25 1 2.22 1.78.71-.56 1.48-.39.43.34.95.41.48.73 1.79-.18.72-.6.33.83 1.4.09.6-1.36 3.76-.3 1.2-.68 1.01-.86 2.36-.52-.27-1.16.07-.59-.24-.27-.61-1.23-.07-.2.31-.98.44-.51-.41-2.02-.16-.07.36-1.2 1.11-1.09-.09-.98.51.22 1.17-.3.33-.4 1.29-1.34 1.52-.21.81-.01 1.24-.64 1.45-.72 1.15-.8.82-.46 1.45-1.3 1.66-.25 1.86-.67 2.54-.34.3.03.9-1.03.45v.7l.43.55 1.03.78-.26.59.25.67-1.11 1.62-1.16.34-.98 1.48-.1.87-.9 1.4v.6l-.87 1.06-.28 1.9-.33 1.46.25.39 1.43.35.39 3.63-.17 3.59-1.53.6-1.26 1.63-1.15-.33-.24.9-.62.33-1.1.15-.77 1.54-1.52 6.3.37.17-.6 1.87-.75.39-.3.75.17.65-.42.7.02.8.55.34-.26 1.18-2.76-.57-1.03.25-2.08.7-3.68 1.53-.32 1.02-.38.23-1.17 2.27.58 1.68-2.2 1.49.55 1.06-1.33.69.28.53-1.3.56.17.43-.9.55-.1 1.2-.31.21-1.87.18-.8.57-.7.2-1.06.01-.25.43.24 1.13.45.6.98 1.8-.97.82-1.6.34-.33-1.6-.75.27-1.06.76-.27 1.6-.9-.06.12.66.44.2-.62 1-.97.39-1.23 1.2-1.4.26-2.76-.32-.96-.82-.6 2.2-1.08.98-.5 2.21 1.53 3.64-2.2.58-.44-.33-.8-.08-.68.86-.11 1.23-.7.17-.6-.38-.25-.88-.34.05-.55.8-.59-.3-1.5 1-1.01-.34-.4.91-.52.27-.64 1.12-1.4-.14-.74-1.5-4.24-1.43-2.92 2.99.26-.97-.03-.75.91-.17-.2-1.27 1.8-.32-.56-1.57-.11-1.09-1.96.48-.66-1.24-.97-.38-1.05-.07-.8.17-1.92-.27-5.09-.3-.06-.21-5.23-2.17-4.28-1.6-2.52-1-.85-.14-.75-.44-1.6-.59-.66.6-.28-.62-1.34-1.52-.82-1.33.27-1.64.77-1.47-.24-1.57-.37-1.03-.62-1.08-.13-1.22 8.2-4.95 1.05-1.1.01-1.02-.27-1.66-.38-1.01 2.3-1.6-1.01-1.47-.06-1.51-.2-1.01-.82-.41.88-4.3-1.01.63-3.09.23-.66.11h-2.06l-2.12-1.27-1.5.64-3.03-3.11-6.22-1.08-6.44-.82-1.73-1.07-6.92-5.82-1.1-.34.81 3.32-2.06.75-4.85-7.53-.84.18-.73-1.56Z" long-name="Hajdú-Bihar" region="15" short-name="Hajdú-Bihar" value="1"/>
    <path d="m288.12 462.86-.99.04-.98-1.13-.87-.1-.83.4-1.47.07-.98.78-.31-.53-1.75-.53-.77.16-.52-.36-.67.27-.64.9.02-1.31-.29-.44.22-.74-.12-.59-.94-1.36-1.39-1.2-.9-.32-1.29-.84 1.13-.41 1.32-.16.64-.72-.3-1.82-.51-.54-.5-.06-.55-1-.6-.49-.86.23-1-.52h-.9l-.47.3-1.03 1.15-1.41-.43-1.69-1.16-1.19-.69.22-.75-.08-1.22.33-1.22.87-1.96.94-.85-.12-.72.72-1.38-1.02-1.78.16-.95-.76-2.18-1 .26-.78-1.5.36-.4 1.84-.8-1.07-.61-.68-.75.54-.72-.4-.96.6-.02.77-.42.86.3-.75-1.4.02-.7.57-.68 2.1-1.42.38-.43.68-.16-.33-.6.67-.59-.86-.83-.62-.92-1.31-3.13-.88-.65-.06-.62.2-1.53-.28-.51.11-1.4.66.73 2.14.61.82.55 1.94-.47 1.1-.6 1-.33-.08-.45-1.1-1.28-.43 1-.81-.36-.6-.53-1.57-.93 1.4-2.3 1.23-2.5-1.5-.79.9-.57.59-.91.74-2.37.38-1.49.64-1.38-1.02-.5-2.57-.81-.36-.48-1.66-.52-1.08-2.5.89-1.4.58-2.88.26-.75.37-2.47-.53-1.3-1.02-1.27.6-.73.17-.97.95-1.59.2-1.15-.25-1.96-.09-2.57-.69-3.13 1.62-.2 1.68-.72 3.29.09.84-.15.98-.55 1.72-1.6.96-.43.7-.01 1.07.44 1.74 1.37.77.3 1.36-.03 2.79-1.5 1.3-.34 7.66.13.83.2 1.95.68 3.24.5 2.7.75 2.99 1.2 1.05.3 3.09.24 1.93-.38 2.28.01 1.71.33 2.55.29 1.53.4 1.6.97 1.95.47 2.01-.24 5.44-1.21 2.7-.8 2.3-.54 1.8-1 1.62-.5 2.1-.22 1.5-.45 1.14-.08.57-.24 1.42-1.13 1.03-.55.92-.13 1.5.37 1.38.67 1.34 1.28.85.46 1.67-.14 2.08-.5 1.58-.61 1.01-.9 1.01-.36h1.47l2.29-.28 2.93.7 3.02 1 1.91.3 2.95-.42 2.29-.13 1.68-.41 1.2-.6 1.5-.92 1.22-.93 1.7-.76 1.49-1.38 1.08-.75 1-1.32.2-2.04.35-1.17 1.18-1.3 4.38-1.27 3.18-.65 1.6.15 1.58.68 2.14.15 2.83.57.07-.5.28.86 2.63.36 2.7.78 1.46.84.7.73.49 1.12.02 2.04.7 3.11.42.81 1.13.72.86.3-.56 1.02-.1.96.35 1.33-.87 1.63.17.62.6.87.42-.05 1.03 1.28-.04.42 1.1.74-.73 1.04-.57 1.23-1.7.93-.39-.52-2.36-1.6-1.34-.23-1 .05-.57 1.02-.4-.17-.78.26-.85-.47-.38.44-1.73.1-.4.67.46 1.09-.47 1.65.35.86-1.14.55.98 1.26.22 1.1.68.8.02.63.6 1.52-.05 1.88-.2.77.4.35v.77l-1.24-.53-.98-.17-.97-.51-.47.3-1.57.34-1.31-.66-1.26-.16-1.5-1.52-1.1-.81-2.09-.72.22.92-.42 1.31-1.77.12-.92.27-1.8-.51 1.27 1.16 1.71 1.03.97.94.41 1.24.65.4-1.47.53-.23-.27-2.1 1.82-1.33.74-.63.67-.64 1.87-.83.52-1.86.79-.23 1.43.33 1.2-.65.71-.99.44-1.84 1.37-1.41 1.66-.5.39-1.15-.02-.83.84-1.08.22-1.22-.15-1.8-.47-2.08.54-1.07-.2-.12.82-.7.65-.89-.48-1.55-.55-1.11-.22-1.19-.87-1.04-.1-1.1.51-.63.71-.98.4-1.5-.52-2.18 3.82-.73-.67-.42.14-.62-.6-4.97.4-.42.58-.12.69.67 1.6.63.61-.09 2.36.5.3.03.68.72 1.49.43.23 1.05 1.17.48.82.67.74 1.48.5-.05 1.35.48.85 1.52 1.92h-.79l-1.63-.6-.88-.83-.42-.75-.95-.33-.87-1-.88.9-.8-.18-.8.5v.58l-1.4 1.23-.1.67.26.95-.87.41-.1.93-1.95-1.7-.4-1.18-.45-.54-.77.18-.94-.82-.6-.8-.49 1.14-1.3.23-.86 2.06.1.45-2.14 2.73-.3.77-.7.74-.33.73-.4-.1-.66.6-2.1-2.48-1.2.45-.86.9-.1.37-1.26 1.8-.5.4-.13 1.25 1.32 1.75.88.41 1.03 1.56.61.28-4.41 1.15-.72.52-.4-.01-1.24-1.1-.33.2-.53 1.69-.74.68-.56.01-.82.9-.27-.4-1.19-.6-.77-.76-1.68-1.18-.67-1-.33-1.45-1-.69-1.37-.33-1.19-.66-.9-.77-1.01-1.89.35-.63-.42-1.5.2-1.2-1.96-.98-1.36-.36-.58-.4-1.5-1.78-.7-.61-1.64.26.98 1.76-.1 1.44-.4.85.43.55-.13.84-1.16 1.07-1 .21-.6-.68-.56-.2-1.66.98-.3.62-1.1.18-1-1.61-.94-.99-1.56 1.03-1.74.53-.1 1.49.68 1.94-.26.8-1.95 1.14.48.86.36 1.97-.3 1.13-.5.9-1.2 1.07-.86.37-.85 1.36-.12 1.06-.29.75-.54.4.01 1.89 1.08 1.55-.85.54-2.37.25-1.88.73-1.83 1.59-1.12.79z" long-name="Komárom-Esztergom" region="16" short-name="Komárom-Esztergom" value="1"/>
    <path d="m425.1 456.09-.77-.72-.54-1.53.21-.16-.51-1.95.4-.99 1.24-.47-.15-1.29-.65-2 .03-.92 2.13-2 .72-.49.44-1.68-.25-2.07-1.09-.86 1.01-.88h.62l.25-1.2-.54-1.76-2.23-2.94-1.27-.89-1.18.84-.8-1 .01-.33-.84-.66.6-1.37.69.18.13-.5-.18-.88-1.52-.83 1.34-2.2-.02-.34-1.12-.73-.2.31-1.03-.36.53-.5.73.45-.18-2.8.3-1.74-1.06.32.3-.87.36-.07 1.14-1-1.08-1.12.68-.27-1.27-3.2 1.47-.8.57-.67.8.24.9-.05 1.95.4.84.36.45-.1 1.05-1.34.12-.5-1.03-.42.84-.72 1.54 1 .47-.38.68.51 1.77-.7 1.8-.33 1.24.24-.67-2.73-.67-1.08 1.92-1.08 1.18-.1 1.11.23.95-.09 2.43.59-.63 1.28-.2 1.34-.05 1.26-.37.48.77.3 1.13-2.21.9-1.56 1.72-2.23 1.45.6-.1 1 1.36.55 1.53 1.16 1.49-.38v.92l2.32 2.3-1.32 1.54.97.88.87-.46 2.5 2.57-1.73.78-.24.27 2.06 1.91.82.52-.54.5 1.97 1.53.66.31.53-.49.72.52.88-.6 1.68 1.63 3.55-.9.9 1.5 1.08 2.11.7 2.09.05.53 3-.56 1.05.07 2.7-.77 1.32-.25.37 1.12-1.03 1.54-.1.95.25 1.56 1.1 1.62.64.68.41.81.2 2.2.53.9-.66.72-1.42.18-1.33.49-1.53-.04-1.46 1.53-1.57 3-2.21-.41-.87 2.4-.72-.42-1.15 2.12-2.25-1.1-2.16 2.49 1.33 1.16-1.23 1.43-.59.12-1.18 1.06-1.04 2.25-.97 2.47-1.92 2.8-4.3.97-1.46 1.52-1.03-1.5-4.3-4.15-.98-.83 1.07-1.75-1.6-.86-1.29-2.38-.23-.65-1.22.18-.7.3-1.49 1.08.6.91-.36.42-1.24-.4-.41 1.31-.44-.32-.6.82-.84-.73-1.2.65-.36-.68-.77-.14-.53.22-.52-.61-.92.47-2.28.42-1.94.58-1.09.68z" long-name="Budapest" region="19" short-name="Budapest" value="1"/>
    <path d="m144.28 521.77-.22-.37.14-1.71.42-1.56 1.59.37.84-.03.93-.45 1.26-.08 4.12-1.65.87-.86.65-.09 1.26.2.63 1.4.4.07.36-1 .42-.61.4.96.67.65 2.09 1.49 1.2-.1.2-1.05 1.88-1.86.74-.16.4-.62-.2-2.28-.45-1.2.33-.48-.39-1.43.35-.35 1.34-.77-1.84-1.1-.94-2.51-.3-2.23.17-.69-.67-1.39.25-1.1-.22-.4-.18-1.65.9-.67.16-1.04.96-.68.4-.91-.4-1.41.34-.76-.23-.55.22-1.35.66-1.5.09-.61h-.69l-.31-1.25.4-.03.04-4.32h-.11l-.46-4.56-.69-1.02-.1-1.11.53-1.64.97-1.84.86 1.2.8-1.37-.1-1.8.1-.55-.8-1.62 1.06-.51.7-1.46 2.57-1.9 1.5-.1 2.97.13.14.14 1.87-1.22 1.6-1.21-.38-.55-.86-.48-2.63-2.57-1.46.3-2.31-1.82-1.59-.9-.72.09-1-1.8-1.19.14-3.34-4.23 2.97-2.34-1.95-1.03-1.35-2.21-1.1-3.95.1-1.2-.73-.51.5-.76.8-.37.14-.93.97-.46.85-.07.44.58.51 1.48 3.08.84v-1.19l.86.16.88-.18.45.51.88.13.34.43 1.91-.23 1.06.35.29.53 1.04-.63.12.39.71.46.86-.45.65.17.42.44 2-1.45 1-.01-.14-.57 2-.8.54.73 2.43-.42.54-.41.66-.1 1.16.18.77-.88 2.02-1.86.41-.5.45-1.89-.3-.82.06-.96.85-2.18.33.7.97.22 1.57-.07 2.07.94v.87l-.61 1.07-.02.42.66.63.47 1.55.73.9.94.5.8.13-.05.75.51 1.4-.5 2.03 2.05 1.62.77-1.06.28.32 1.17.37 1.26.8 1.2-1.4 1.95-1.17.73-1.32-.56-.84 3.4-5.16.36.67-.06.48.6 1.08 1.18 1.42 1.19.87 1.1 1.03.24.55 1.13-.94 1.48-.48.87-.77-.63-1.81 1.72-1.95 1.51 1.54.64 1.41 2.49-2.01 1.44 2.27.58.2 1.17-.68.17.32-.25.9 1.17-.4 1.19-.67.9-.14-.05-.63.29-.65-.28-.66 1.02-1.16.76-.03.75.7.27.57.88-.65.37.44 1.87-1.19.78 1.32.3 1.07-1.48 1.74.41 1.03 1.1-.66 1.18-.2.55 1.13 1.3-.6-1.38-2.2 1.5-1.25-.3-.48 1.16-.74 2.38 3.65.74 1.59.31 1.57-.26.42.33.95 1.07 1.26.08.68 1.2 1.4.74 1.62.41 1.8-1.34 1.32.02.48.77.94.15.7-.76.16-.42.52-1.21.75-.71.25.2.81-1.18 1.63-.64 1.15-.54.64-.95.47-1.4.16-.95.35-.55 1.17.15 1.04-1.2 1.24.92.96.66 1.47.22.95-.2.75 1.46 1.16 1.13-.19 1.06.48.86 2.33-.06 2.25-.24 1.3 1.02 1.42.15 1.07-.27.79.37.38.94-.69 1.88-.72-.86-1.57.32-1.04-.02-.82-.6-1.29.3-1.62-.37-1.3.5-1.96 1.13-.85.27.8.9-.04.47-.27 1.27.62.75-.47 1.35-.14.09-.7-.26-.75.86-.75.77-1.17.43-1.66-.08-.58-1.23-2.04.62-.59.66-.17.13-.65.76-.34.27-.45 1.3-1.23 1.11-.83 1.83.27 1.53-.62.67-1.61 1.68 1.15 1.42.43 1.02-1.16.47-.3.9.01 1.01.53.86-.24.6.48.56 1 .49.07.52.54.3 1.82-.66.72-1.3.16-1.14.41 1.3.84.9.32 1.37 1.2.95 1.36.12.59-.22.74.3.44-.03 1.3.64-.89.67-.27.52.36.77-.16 1.75.53.3.53.99-.78 1.47-.06.83-.4.87.09.98 1.13 1-.04.59 1.89 1.15 1.13 2.4.24-.08 1.06-.93.82-.51.13-.82.7-.35 1.2.13 1.01.4.76.01 2.08.48.6.05.65.87-.02.83-.4.32.3 1.05-.14.49.54.32 1.08 1.31 1.7.46 1.67.53.24 1.3 1.43.5.08 1-.4 2.25-1.64.67.1.3-.56 1.27-.73 1.72.09.7 1.06.74.6.58.82-.32.72.18 1.13.4 1.14.8.5.68.98 1.85 1.93.02.23 3.02-.36 1.1 2.45.07 1.6-.51.53.2 1.11-.42 3.75.97 1.75-1.5-.08.59 1.63-1.4.5.43 4.48 1.08 4.29.07 1.84-.18 1.07.1 1.02.36.98.95.8.28.92-1 .26-1.83.94-1.3 1.57-.54.28.36 1.22.1 1.2.34.82.27 1.84.25.67-.04.94 1.17 1.37 1.13 1.98.3.04.55.88.67 2.09 1.03-.3 1.95-.82.42 1.08-2.2.78-.25.3-1.59.22-.07.64-1 1.69-1.24.13-1.05.66-.36 2.16-.59 1.44-.2 2.4-.61-1.35-1.25-1.63-.47-1-1.2.3-.76-1.18-.87-.36-.4-.46-15.06 5.77-2.87 2.1-2.4 1.43-3.64 1.94-4.76 2.2-.82.29-3.74 1-2.95 1.11-2.71 1.24.69 1.9-.38 2.86-1.39 1.83-1.83 1.2-1.62.36-1.27-.38-2.3-1.05-1.9 1.46-5.99 3.92-2.02 1.13-3.64 1.34-5.2 1.35-4.68 2.46-4.74 3.53-6.38 2.13-3.16 1.52-7.51 3.43-3.1 1.3-1.58.9-2.14 1.73-2.62 1.23-1.03.23-1.52-.27-1.47-.03-1.71.88-1.23.17-3.93-.73-.23-1.48-5.34-5.48-1.13-.76-.72-1.08-1-.66-.26-.41.05-.74-.92-3.5-.75-.91-.47-.1-.8-.85-.34-.72-1.1-.65-.52-.1.04-1.28.28-.33-.38-1.27.18-.79.63-.84.1-.95.71-.79-.4-.5-.17-1.5-.54-.59-.76-.1-.38-.4-.27-.93 1.34-1 .1-1.33-.68-1.43-1.75-.58-.75-.56-.2-1.15.23-.5-1.06-1.41-1.9-1.79-1.2-.16-1.39.88-.8-.36-.86.35-.62-.7-1.48.3-1.62-.49-.38-.87-.31-1.47.93-.91.3-1.3.94-.35.28-1.04-.45-1.54 1.7-.44-.54-2.05.12-.83-.55-.52-.81-1.34-.33.26-.67-.88.17-.47-.4-1.65-.98-1.07-1.61-.71-.74-1.05-.9 1-1.25-.07-1.1.57-.44-.49-.65.4-.38-.68-1.12.13-1.87-.33-.7-.28-.76.2-.17-.64.11-2.57-.65.23-.32-.4-1.42-.24-.63-.51-.86-1.06-.3-.74-1.15-.84-2.91-2.44-.4-.72z" long-name="Veszprém" region="20" short-name="Veszprém" value="1"/>
    <path d="m37.03 589.33-.48.6-.8.54-.93.14-.74-1.85-.18-1.77-.92-1.16-.4-.95-.8-.45-.25-1.07-1.08-.38-.3-.6-.64-.31.52-.9.1-1.35.64-.61.35-.72.24-1.58-.98.14-1.63-.22-.1-1.56.37-1.93-.01-.71.79-.7 2.42-.21.9-.38.3-2.1-.2-.24.1-1.55h.52l.2-1.7.9.02-.32-1.27-.03-1.12-.54-.41-.72-.16.11-.72-.58-.1-.94.43-.23-.64-.93-.95-.38-1-1.5-.1.05-.65-1.06-.07-.48-.7-.03-.8-.35-.93-.54-.53h-1.5l-.67.14-.9-.18-.56.13-1.14-.22-1.1-.45-.84-.05-.65-.42-1.32-.12-1.18.97-1.44.7-.96-.31-.83.05-1.08.52h-1.05l-.95.4-.53.96-.55.57-1.63-.67-.44.13-1 1.2-1.12-.26-1.25-.09-.46-.39-1.54-.14-.32-1.38-.76-.05-.26-.83-.44-.47.75-.6.78.05.81-.6.6-.2.54-.9.37-1.1.97-.17.52-.86.07-.63.79-.1-.07-.6.72-.3.15-.55.64-.94.69.4.52-.04.43-.52.8-.13.23-1.25.57-1.3.6-.8 1.34-3.59.64-.59.9-.12.04.55 1.13-.1 1.19 1.15.11-.65 1.62-.78.1-.53.86-.46.68.27.45-.63-.58-1.53 1.04-1.12.9-.6.6.03 1.46.72 1.07-.28.21-1.33-.15-2.72.25-1.42.47-.46.57-1.62-.22-.4.16-1.07.67-1.41.51-.67.37.02.97 1.25-.19 1.52.53.67 1.24-.12 1.8-.66 2.8 1.5.6-1.29-.22-.39.95-1.37 1.41 1.11.68-.37 1.17 1.98.6-.33.98.33 1.48-.9h1.08l1.88-.23.63.76.25.94 1.14.9 2.77.1.27-1.32-.1-.71.6-.27 1.37.49.48.99 1.17-.05 1.01.64.88.21.48-.31.48-.8 1.05.33.68-.22 1.1-.9-.63-.76-1.12-.72-.59-.03-.86-1.43-.4-.34-.18-1.01-.68.26-.34-1.3-.67-.2-.8-.56-.85-.06L51 524.3l-1.26-1.58.8-1-.56-.34.54-.49 1.14-.36.74-.01.4-.54h1.28l1.29-.79 1.26.02 1.39-.28.62.03.48-.47.84.28.83-.45.55-.55.74-.37.03-1.16-1.5-1.1-1.72-.91-1.07-.11-.61.33-.62-.71-.01-.65-1.43.26-.27-1.02.42-.62.21-.9-1.26-.92.08-.4-.43-.85.46-.16-.24-.7 1.2-.3.36-1.01.4.84 1.06-.22-.23-1.35 2.66-.22-.02-2.88 2.33-.2 2.07-.47v-2.2l-.33.08-.56-.7-.8-2.06-1.14-.1-2.76.05-.76.21-1.3.66-1.14.33-1.5.14-.71-.1-.56-.92-.14-1.2.44-.32.21-.93.76.13.64-.9-.22-.52.28-1.47-.39-1.3-.28-.07-.47-1.6-.05-.9-1.16.2-.64.38-1.22.1-.71-.14-1.21-2.2.28-.51-.58-1.78.35-1.14.4.6 1-.44 1.2.09-.18-1.25.65-.47-.35-1.05.2-.3.08-1.27.71-.82-.02-3.24-1.66-.44.22-.56 1.55.52.93.11-.29-.64 1.23-.02.94-.48.67.44 1.53-1.03.4-.86-.07-2 .4-1.27.56.1.9-.5-.75-1.56-.26-.92.02-1.37-.4-.84-.52-2.34-.77-1.46-.05-1.43-.57-.83.08-.9-.25-.63-.81-.75-.96.08-.67-.84-.18-.87-1.55-1.46.56-.54 1.47-.43.75.14-.14-.87.86-1.13-.04-1.54-.68-.96.35-1.02.65-.5-.27-.85-.6-.8-.69-1.97-.04-1.3.62-.62 1.3-.6.92.1.23.3 1.23.57.81-.06.75.22.8.66-.86.71-.22.62.6.25.11.85.63.1.53-.46-.06 1.58 1.58-1.3.46-.25.1-.83-.32-.55.25-.68.59.18.22-.66.56-.33.93-.07.26.4.75-.36.53.3.66-.19.9 1 .7.06 1.35-.28.62.21 1.68.01.27-.68-.32-.63 1.1-.6-.44-.58.67-.44.76.16-.12-.75.86.18.42-.35 1.06-.33.47-.85 1.31-.6.73.39.35-1.2.68-1.14 1.43-.86 1.47-.12.55.99.36 1.3.98.86 1.36 1.58.43-.15.65.93.1.55 1.25-.46.69 1.34.92-.42.43.82 1.25-.67.92 1.86 1.04-.61-.59-1.12 1-.97 1.33-.65 2.47-1.6.74-.63.28.43 1.48-.94.73-.16 1.97-.86.8 1.52 1.97-1.44 1.15 1.88 1.45-.49 1.58-.86 1.44-.93.4-.47.71-.01.55 1.53-.1.29 1 1.3.81 1.65.14.75 1.25.36.7.85.39.75.63.6.5-.65.55-.27-.24-.71 1.91-.07.59.5-.02 1.1h1.07l.62.5h1.57l.14.94 1.3 2.33.92-.34-.03-.55.9-.61.75-1.02 1.45-.7.21-.64 1.35-.5.58-.94.47-.27.67.09 2.33-2.02-.26-.53.53-.31.61.06.8-.77.93.04.76-1 .73-.65.61-.18.94-.61.4-.88.75-.56.58.05.95 2.16 1.26.82.19.66-.54.54-.2.73-.54.02-.63.85.24 1.2-.28.22.3.79-.64 1.13-.09.8-.59.46-.48 1.36-.43.14-.47.84.26.82.62.12.72-1.31 1.78-1.04h1.34l1.6-.26.84.2 1.99-1 .58-.94 1.65-.48.4.4.56-.32.46-1.5.37-.57 1.2-.71 1.13-1.2 2.45.72 1.24-.3.04.67.72.52-.09 1.19 1.1 3.95 1.35 2.2 1.95 1.04-2.97 2.34 3.34 4.23 1.2-.14.99 1.8.72-.08 1.59.9 2.3 1.82 1.47-.31 2.63 2.57.86.48.37.55-1.59 1.21-1.87 1.22-.14-.14-2.97-.13-1.5.1-2.57 1.9-.7 1.46-1.06.5.8 1.63-.1.55.1 1.8-.8 1.37-.86-1.2-.97 1.84-.54 1.64.11 1.1.69 1.03.46 4.56h.1l-.02 4.32-.41.03.31 1.26.69-.01-.09.6-.66 1.5-.22 1.36.23.55-.34.76.4 1.41-.4.9-.96.7-.16 1.02-.9.68.18 1.66.22.4-.25 1.1.67 1.38-.16.7.28 2.22.95 2.5 1.84 1.12-1.34.76-.35.35.39 1.43-.33.47.45 1.21.2 2.28-.4.62-.74.15-1.88 1.87-.2 1.04-1.2.1-2.09-1.48-.68-.65-.39-.96-.42.62-.35.99-.4-.07-.64-1.4-1.26-.2-.65.1-.87.85-4.12 1.65-1.26.08-.93.45-.84.04-1.59-.38-.42 1.56-.14 1.7.22.38-.34 2.5-.02 1.34.29 1.27-.43.3-2.34-1.6-1.07 1.03-1.02-.46.02-1.38-.66-1.52-1.54.62h-.9l-.82-.92-2.13 1.44-.09.45.86 1.14.48 1.75-.26 1.68.68 1.7.5.81-.43.6-.57 1.32-1.26.41-.87.72-.29.6-.88.59-.7.06.16 1.68.56.44.54 1.05-.42.66-.83-.67-.52.85-2.43.08-1.18-.23-1.26.3-.67-.27-.54.14-1.8-.32-.92.16-.8-2.37-.56.01-2.52-.69-.86.46-1.88.6-1.48-.7-3.14.43-.54-1.67-.78-.65-1.42.82-.67.71-.43-.49-.57.34-.1 1.87-.26 1.33.1 1.97-1.16-.15-3.4.59-.05 3.37-.55.75-.92.68-.26-.56-2.22-.3-1.9-.69-1.67-.34-.4.36H91.7l-.8.22-2.22-.1-.82.26-.2-.63-1.42-.72-.5-.61-.57.73-.72-.06-1.62.17-.22.9-1.4.8-.26.65-1.71-.03-1.13-.68-.74-.18-.21.79-.87 1.34-3.2 3.74-.05.3-1.76 1.24-.64 1.78-.7 1.05-.57.47.47.9-.7.46-1.05-.11-.44.59-.17 1.09.03 1.16-.87.18-.15.7.01 1.66-.62.05-.09.88-.87.5-.64-.77-1.56-.25-1.1.18-1.2.4-.43.44-1.04.1-.63.28-.88-.03.61 1.49-.07 1.68-.25.9.37.13-.41 1.24.2.53-.41.54-.78.3-1.34 1.27-1.32.46-.54.7-1.46.75-.34.01-2.22 1.23-1.16.29-.4.78-.4-.49-.74-.14-.84-1.06-1.16.46-.12-.32-1.07-1.15-2.19-.21-.32-.15-1 .28-1.03.52-.47 1-1.52-.24-.88.23.29.61-.03.79.36.7.51.34.7-.14 1.36-1.25.94-.13.41.32.97-.22 1 .63-.02.44-.6.61-.8-.14-.53 1.08-1.27.33.35.44-.58.5.76.87.36 2.04.25.68-1.1.65-1.49 1.55-.27.84z" long-name="Vas" region="21" short-name="Vas" value="1"/>
    <path d="m37.03 589.33.72-1.15.27-.84 1.48-1.55 1.1-.65-.24-.68-.36-2.04-.76-.88.58-.5-.35-.43 1.27-.33.53-1.08.8.14.6-.6.02-.45-1-.63-.96.22-.42-.32-.94.13-1.36 1.25-.7.14-.5-.34-.37-.7.03-.79-.28-.61.87-.23 1.52.25.47-1 1.03-.53 1-.28.32.15 2.2.21 1.06 1.15.12.32 1.16-.46.84 1.06.74.14.4.49.4-.78 1.16-.29 2.22-1.23h.34l1.46-.76.54-.7 1.32-.46 1.34-1.28.78-.3.4-.53-.2-.53.42-1.24-.37-.13.25-.9.07-1.68-.6-1.49.87.03.63-.28 1.04-.1.42-.44 1.22-.4 1.1-.18 1.55.25.64.77.87-.5.09-.88.62-.05-.01-1.65.15-.71.87-.18-.03-1.16.17-1.09.44-.6 1.05.12.7-.47-.47-.9.56-.46.71-1.06.64-1.77 1.76-1.25.05-.3 3.2-3.73.87-1.34.2-.79.75.18 1.13.68 1.71.03.26-.65 1.4-.8.22-.9 1.62-.17.72.06.57-.73.5.61 1.42.72.2.63.82-.26 2.21.1.8-.22h1.06l.39-.36 1.68.34 1.89.7 2.22.29.26.56.92-.68.55-.75.05-3.37 3.4-.59 1.17.15-.11-1.97.26-1.33.1-1.87.57-.34.43.5.67-.72 1.42-.82.78.65.54 1.67 3.14-.43 1.48.7 1.88-.6.86-.46 2.52.7.55-.02.81 2.37.93-.16 1.79.32.54-.14.67.27 1.26-.3 1.18.23 2.43-.08.52-.85.83.67.42-.66-.54-1.05-.56-.44-.17-1.68.7-.06.9-.6.28-.59.87-.72 1.25-.4.58-1.32.44-.6-.52-.82-.67-1.7.26-1.68-.48-1.75-.86-1.14.1-.45 2.12-1.44.82.92h.9l1.54-.62.66 1.52-.02 1.38 1.02.46 1.07-1.03 2.34 1.6.43-.3-.29-1.27.02-1.34.34-2.5 1.19 1.02.4.72 2.91 2.44 1.15.84.3.74.86 1.06.63.52 1.42.22.32.4.65-.22-.12 2.57.18.63.76-.19.7.28 1.87.33 1.12-.13.38.68.66-.4.44.5 1.08-.58 1.25.08.91-1.01.74 1.05 1.61.71.98 1.07.4 1.65-.17.47.67.88.33-.26.8 1.34.56.52-.12.83.54 2.05-1.7.44.45 1.54-.28 1.04-.95.35-.3 1.3-.92.91.3 1.47.38.87 1.63.48 1.48-.29.62.7.85-.35.81.36 1.38-.88 1.2.16 1.91 1.79 1.06 1.4-.23.5.2 1.16.75.56 1.75.58.68 1.43-.1 1.33-1.34 1 .27.93.38.4.76.1.54.58.18 1.5.4.51-.72.79-.1.95-.64.84-.17.79.38 1.27-.28.33-.04 1.29.52.1 1.1.64.35.72.8.84.46.1.75.92.93 3.5-.06.74.26.41 1 .66.72 1.08 1.13.76 5.34 5.48.23 1.48-1.52.1-1.72.32-1.84.94-1.11 1.38-.9.67-1.62.51-1.7-.03-5.88-.49-1.8-.46-1.32.1-3.1.04-1.23 6.06-.4.9-.2 2.4-.27.74-1.07.75-.76.92-3.55 1.58-.27 1.7.12 1.96-.57 1.34.47 3.12-1.11 5.2.1 2.51.35 3.1.03 1.47-.08 3.38.22 6.67.48 1.06-.01 3.42-1.18 2.61-.83 1.1-1.38.15-.26 1.23-.32.7-.79-.17-.29-.47-.53.3-.02 1.7-.32.89.9 1.9-.33 4.92-.41.37-.54 2.58-1-.35-.15-.38-5.82.92-.4 1.67-.09 2.61-2 .42-1.74-.23-.08-1.78-.9-.1-.96-.4-.33-.58-1.78-.4-1 .93-.3 1.49-.08 1.01-1.46.67-.23-.4-.95-.33-.24-.64-.6-.09-.14-1.08.09-.83-.5-.1-.46.53-.67-.38-.97.03-.09 1.53-.94 1.63-.03 1.2.48 1.04 1.1.53.66 2.05-.47 1.16.42 1.18.8.03.77 3.33.13.93-.13 2.09h-1.68l-.48.68-.2.94-.87.63-.01 1.85.42 1-.8.4-.91.12-.45.88-1.37.28-.58.7-.83-.49-.22-1.06-.83.03-.14-.52-1 .27-.63-.56-.6-.16-.59.86-.36 1.07-.47.33-1.24-.09-.71.18-1.15 1.9-1.43.78-.42-.54-.88.42.2-2.27-.7-.06.39-1.33.1-1.24-.18-.54-1.03-.31-1.25.55-2.8.28-.76.24-.47-1.06-.56.01-.38-.42-.15-.9-1.46-.46.06.95-.44-.62.16-.99.86-1.09.04-.72-.81.04-.5-.45.53-.71-.42-.62-1.1-.2-.4-.6.71-.56.12-.78-.6-.32-.87.6-.93-.55.03-1.47-1.03-.6-1.11-.25.03-.77.4-.8-.64-.6-.4.37-.15.9-.87.1-.13-.9-.65-.18-.47.47-.6-.29-.1-.77-.38-.37-.86-.04-.04-1.13-.4-.67-1.32-.36-1 .56-.6.94-.9-.03-.52-1.28-.5.07-.5 1.04-.87.25-.33-.53-.1-1.05-.86-.43-.76.54-.45-.13-.45-.76.17-1.96-.7-.55-1.3.13-.42.5-.3 1.28-.66-.09-.25-1.3L85 660.8l-.5-.71-.64-1.73-.57-.72-.93-1.85-.17-.64-1.04-2.45-.66-.73-.26-1.28-.9-.23-.82.7-.55.13-.08-.78.73-.32.53-1.14-.36-.87-2.57-1.1-.77.05-.77-.22-.78.66-.41-.39-.04-.68-.63-.45-.75.7-.57-.68-.57-.17-.1-.6-.5-.39-.09-.71-1.36.06-.4-.2-1.37-.15-.63-.26-.18-.58-1.33-.85-.13-.74-.72-.4-.44.06-2.13-1.22-1.44-1.24-.78-.16-1.2-1.08.15-.75.81.3.55-1.48-1.17-.4-.11-.77 1.02-1.18-.08-.77.38-.57-.67-.8-1.19-.06-.45-.73-.06-.75.52-1-.05-1.38-1.45-2.8-1.1.58-1.2-.5-1.5-.38-.1-1.84.36-.68-.57-1-.95-1.23-.69.36-1.01-2.46-.87-.23-.5-.65-.75-1.57-.2-.71-1.72-.53-1.32-.06-1.07-1.6-.66-1.62-.52-.19-.19-.55-1.28-.79-1.06.08-.21-1.41-.57-.91-.02-2.11.84-.39.13-.7.71-1.2 1.8 1.17 1.66.02.22-.57-.33-.46.77-.51.33-1-.72-.57.53-2.62.88-1.65-.68-.44-1.64-.01-1.53-.46-3.14-.25-1.9-1.42 1.57-1.3.2-1.07-.7-.4Z" long-name="Zala" region="22" short-name="Zala" value="1"/>
  </g>
</svg>