<svg viewBox="0 0 1000 647.94" auto-border-stroke-width="1" auto-border-stroke-width-limit=".5" original-source='["https://www2.census.gov/geo/tiger/GENZ2022/shp/cb_2022_us_sldl_500k.zip"]' candidates="[{&quot;id&quot;:&quot;0&quot;, &quot;name&quot;:&quot;Democrats&quot;, &quot;margins&quot;: [{ &quot;color&quot;: &quot;#1C408C&quot; }, { &quot;color&quot;: &quot;#577CCC&quot; }, { &quot;color&quot;: &quot;#8AAFFF&quot; }, { &quot;color&quot;: &quot;#949BB3&quot; }]},{&quot;id&quot;:&quot;1&quot;, &quot;name&quot;:&quot;Republicans&quot;, &quot;margins&quot;: [{ &quot;color&quot;: &quot;#BF1D29&quot; }, { &quot;color&quot;: &quot;#FF5865&quot; }, { &quot;color&quot;: &quot;#FF8B98&quot; }, { &quot;color&quot;: &quot;#CF8980&quot; }]}]" version="1.1" xmlns="http://www.w3.org/2000/svg">
  <g regions transform="translate(0 -176.03)">
    <path region="0" short-name="3" long-name="State Senate District 3" value="1" d="m772.6 672.08 2.16-.54.27.48 1.41-.45 1.39.7.83-.28 1.25-1.33.95-.23.72.23 1.62 1.22.73.8 2.56-.42.43-.39 1.07.09 1.27-.35 2.7-2.32 1.4-.38.5-.5 1.65.77.87-.32 1.03.79h.85l1.6 1.1.81.77-.8 2.09.16.33 1.6 1.08 2.46 3.04.92-.77 1.48 1.4 1.4.84.93 1.13 1.4.24.8.93v1.06l2.22-.08 9.07-2.1 2.25-2.18.36-.7 1.07-.23.57-.74 2.02-1.3 1.26.5.1.8.78.43.38.94.54 2.63.28.62.88.5.95 1.35.9.29 1.33-.23 1.51.7 1.2 2.04.23.06.84 2.06 1.32.84 1.98 2.32.31.75.76.68 1.07.48 1.41 1.07.2 2 .64 1.11.9 2.26.34.19 1.4 2.72 3.35 2.53.6-1.15 7.5 3.93 13.68-8.6 10.06 2.5 8.57 6.67h-.2l7.39 6.81-.45-1.05.31-10.83-.27-.7.44-1.17.04-4.96.2.52 7.57 7.45 7.61-4.77 1.53 1.27 1.72 1.67 2.46-1.46 5.9 7.6.66-.5 1.32.87.35-.53.81.54-1.43 2.17.77.52-.35.52-1.21-.7-.24.45.56 2.3 1.17.53 2.1 1.5-.74.57-4.03.95-3.53 1.89-.77.55-3.37 3.27 1.15 1-.69.22-.66 1.22-1.65.02-.68.57-.01 1.33.38.84 3.2 4.2 1.43.29.84 1.1-.47 1.45 1.31 2.1.67.16 1.3 1.69 1.12 1 .93.24.8.74.83-.28 1.92 1.66 1.42.65 1.03-.26 1.62.68 2.5.28 2.23-.38-.04.47-2.51 1.14-.77-.08-1.23.83-.08.8.74.4.47.75 1.94.25 1.38.52 1.72 1.1.87-.1 2.82-2.04 1.95-1.04 3.34-3.69 1.4-.83 1.2-.4 1.5.54 2.75-1.32.95-.64 1 .28.4-1.23 1.02 1.47-.15.14-4.27 1.46-1.5 1.23-2.47.61-1.71-.07-3.18 2.77-1.75.53-2.64 1.78-1.44 1.28-1.78 1.08-2.32.14-2.72 1.6-1.09.18-1.27-.2-.93.27-1.82.17-.88.6-.44.8-1.09-.37-1.84.33-2.65-.81-.5.1-1.51-.46-.27-.62-1.64-.55-1.1.17-1.21-.52-1.28-.12-2.34 1-3.33.46-2.1 1.7-1.14 1.53-1.3.99-2.97 1.49-.9.76-1.49 3.23-2.01 1.58-2.95 1.3-2.26.28-1.49.8-.9 1.22-1.47.21-1.4.51-.6.86-1.16.82-1.07 1.77-2.41 1.86-.53 1-.74.7-2.55 1-1.03-.1-2.67 1.23-3.22.7-1.6 1.15.06 1.44-.93.58-.48 1.06-1.57.36-1.31 1.73-1.57 2.38-.25.92-1.17.08-1.05 1.5.3.96.31 4.12-.38 1.22-.85 1.57-1.22 1.72-.66.52-1.31.48-.77 1.1-.9 2.7-1.62 1.76.01 3.42-.6.61-.4 1.22-1.28-.08-.62.56-.64-.54-1.23.22-.5 1.97-.93 1.86-.9.58-.06.74-1.01 1.01-1.46.6-.66 1.17-.96.94-1.67.97-.97.21-.74.84-1.8.37-.23-1.48.2-1.3-.21-1.87-.77-1.03-1.64-1.32-1.64-.76-.3-.77-1.4-1.2-.8-.13-.83-1.05-2.08-.68-1.2-.03-2.5-1.17-.82-.2-.73-1.12-2.32-1.35-1.91-1.57-.72-.23-2.1-2.11-1.17-.02-5.17-1.56-1.62-.24-1.2.05-.75-.68-1.23-.34-1.11-1-2.33-.72-.36-.6v-1.95l-.34-1.07-1.27-1.58-1.33-2.1-1.77-1.73-.81-3.15-1.36-3.66.24-2.5-.23-1.32 1.29-2.29.16-1-.8-.28-.35-.77.8-1.75.64-.6.15-1.6-.5-.88.44-1.06.43-3.09 1.18-1.51-.56-2.5.27-1.82.63-1.53-.63-1.4.23-1.79.65-1.22.78-2.67.04-1.57.48-.88.06-1.47-.32-.8.41-1.2.01-1.26-.55-1.03.18-1.1.82-1.02-.02-1.84-.28-1.32-2.26-6.31-2.24-3.61.08-.67 1.01-2.03-1.76-1.96.23-.97-.76-.13-.79-1.92.21-1.92-.32-1.45-1.08-1.1.97-1.29.5-1.94-.82-1.17-1.7-.21-.72.67-.7-.78h-1.02l-.73-.69.41-1.72-.68-1.84-1.06-1.79-.49-.17-.01-1 .78-.99.01-1.45-1-3.55-1.01-.61.49-1.62-.73-1.16-.03-1.84.3-.56-.93-1.38-.12-1.36-.82-1.04.48-.76-2.25-2.55.06-1.24-1.07-1.74v-.76l-.8-.58-.95.37-2.5-1.52-.45-.48-1.35.05-.92-.53-.65-1.15.26-2.16.57-.26.2-1.53-1.04-.65-.5-.88z"/>
    <path region="1" short-name="4" long-name="State Senate District 4" value="1" d="m948.4 639.42-1.2.44-1.04 1.15-3.2 1.17-1.03.68-.87-.13-1.33.32-1.45-.12-1.85.3-.24-.44.79-1.75h-.59l-1.35.67-.3-.9-.72.58-1.27-1.2-.76.33-.78 1.32-1.44 1.02-1.6.86-3.24.38-1.96.88-.45-.25-2.8 1.04-.66-.23-1.58.46-.75.62-1.35-.7h-.95l-3.93 2.5-1.7.55-2.76-.8-3.28 1.33-.87-.19.01 1.48-.53 1.87-.92 1.04.06.71-5.02 5.78-.55.96-2.92 3.24-1.33 7 1.24 1.17 2.2 5.75-.3.2 4.34 11.52 1.64 4.1 1.3 2.52-.04 4.96-.44 1.17.27.7-.3 10.83.44 1.05-7.4-6.81h.21l-8.57-6.68-10.06-2.5-13.68 8.61-7.5-3.93-.6 1.15-3.34-2.53-1.41-2.72-.35-.19-.9-2.26-.63-1.1-.2-2.01-1.41-1.07-1.07-.48-.76-.68-.31-.75-1.98-2.32-1.32-.84-.84-2.06-.22-.06-1.2-2.04-1.52-.7-1.34.23-.89-.29-.95-1.36-.87-.5-.29-.6-.54-2.64-.38-.94-.78-.44-.1-.8-1.26-.49-2.02 1.3-.57.74-1.07.23-.36.7-2.25 2.19-9.07 2.09-2.23.08.02-1.06-.82-.93-1.39-.24-.93-1.13-1.4-.84-1.48-1.4-.92.77-2.47-3.04-1.6-1.08-.15-.33.8-2.09-.8-.78-1.6-1.1h-.86l-1.03-.78-.87.32-1.65-.77-.5.5-1.4.38-2.7 2.32-1.27.35-1.07-.09-.43.39-2.56.43-.73-.8-1.62-1.23-.72-.23-.95.23-1.25 1.33-.83.28-1.39-.7-1.4.45-.28-.48-2.16.54-.58-.46-.96-.08-.67-1.17-.3-3.01-.55-.84-1.68-1.82.14-.5 1.41-1.2-.27-2.14.7-.57.24-1.46-.24-.7.26-2 .44-.96 1.13-.97.8-.24-.36-.82.81-.56 1.43-.52.9-.62 1.6-2 1.06-.75.13-.72.94-.2.79-1.38-.13-.72 1.4-.98 1.58-1.77.29-.73 1.2-.95 2.15-.84 2.97-.24.52.62 1 .13 2.76-1.49-.36-1.61.13-.98.74-.8.7-.14.57-1.72 1.26-.82.2-.99-.3-.72.93-.65-.04-.84.48-.85 1.41-.59.48-.64-.42-.64-.04-1.96 1.6-1.35.76.16-.1-1.36 2.78-2.06.78-2.1 1.12-1.07 1-.14 1.01-.79 1.77-.17.23-2.45.81-.85-.33-1.9.61-2.96.37-.64-.02-1.67-1.13-.33.39-.96-2.08-2.53-.14-.57-.8-.57-.12-.65-2.07-2.16-.77-1.34-.97-.37-.22-.8-.96-1.16-1.6-3.2-.75-.62.12-1.09-1.59-2.67-.24-2.45-.62-1.04.16-1.1-.9-4.08-.38-2.95-.47-2.13.55-1.94-.28-1.4.72-2.26-.1-1.02 1.3-2.18.57-.44.29-1.27.91-1.33 1.11-.82 1.54-.8 3.22-.59.59.58 1.93-.4 2.6 1.56.8-.13.63.4 1.46.28 1.8 1.54.97-.24 1.95.91.55.51.83-.2.55-.67 1.2.84.49.65h.92l.77.5.77 1.05.85.26 1.34 1.28 1.11.53-.06 1-.5.83 1.7 1.75 3.53 2.13 3.8 2.18 3.84 1.6 2.37 1.08 2.13 1.93.3 1.57.8.57 2.5.33 1.36 1.04 1.03-.15 1.82 2.61 1.65 1.04 2.1-.32 2.05-1.27 1.92-.4 4.56 1.63 2.7 1.05 3.7.57 5.9 2.14 5 1.6 4.68 2.2 1.94 1.05.65.9 1.54.8 4.31 1.76 3 1.64.97.03.87.91 1.96 1.14 7.26 3.35 1.98.4 2.14 1.26 1.81 1.56 1.36.7.67 1.1 1.27.19.53 1.28 1.4.53 3.2 1.84 2.16 1.72.92 1.17.15.88 1.39.16 2.1 1.35.3.47 2.29 1.74 2.36 2.44 1.7 1.24 1.57 2.07 1.42 1.18 1.2 2.38v1l1.73.85-.15.5 1 1.25 2.3.96.79 1.01.34 1.19z"/>
    <path region="2" short-name="25" long-name="State Senate District 25" value="1" d="m448.84 345.94 1.52-.7 1.89-1.84 2.28.44.43.55-.09.94 1.18-.75.68-.9 1.06.19-.17-1.53 1.03.48.52-.49-.67-1.16.06-1-.49-.92 1.22-.41.56.47 1.24.42 2.07 1 1.82 2.53-.04.85-.48 1.33-.06 1.7.43 1.4 2.35 3.93.99.86 1.93.8 2.2 1.72.45-.16.74 1.2 1.89-.06.02 1.14-.4 1.14-.66.17-.61.9-2.9 1.55-.59.88-1.62.97-.66 1.31-.73-.78-.48 1.12.8.57-1.31.7-1.94.18-.42-.44.52-1.39-.13-1.62-.57-.66 1.96-1.28-.47-.4.42-.86-.32-2.6-.57-2.02-1.78.11-.83-.3-.82-1.06-2.06.2-1.96-.56-1.9-1.05-1.84-.19-1.36-.66-.66-.04-1.46-1.04-.34-2.34.08-1.24-.36-.87z"/>
    <path region="3" short-name="7" long-name="State Senate District 7" value="1" d="m696.17 436.97 3.97-2.21 1.2.3 2.58-.8 1.45-.16.65-.38 1.77-.18.45-.63 1.4-.87.78-1.1 3.68-1.8 2.31-.03 1.47-1.19.68.22.6-.68 1.24.4 1.47 1.02 1.98-.58 2.59-.56.57.47 1.01 1.65.88-.04 1.15-.94 1.25 1.07.62-.75 2.22.4 1.53 1.42.84-.02.25 1.44-.26 1.07.5.33.93-.27 1.02.44v1.46l2.9 2.04.77.16.58 1.28.98.62.81.96 1.29.51 1.4 1.08.02 1.1 2.65 1.12 1-1.05.48-.02.02 1.4 2.54-.27.25.92.31 2.65 1.15.59 1.06 1.47-.12.74 1.74.7 1.68-.4 1.8-.63 2.84 1.86 1.18.48.45.83 1.2.93 1.54-.05.76.4 1.07-.19 3.02.88 1.5.92.81-.01 1.7 1.04v1.06l.69.19 2.15 2.23.29 1.4-.52 1.26.47.8.85.51-.66.6v1.6l-.21 1.57-.3.46.47.85-.03 1.02-.8 1.05.02 1.6-1.08.53-.92 2.06-2.6 2.5-.77-.33-.66.5-1.47.39-2.25 2.35.08 1.2-1.14 1.66-.6.4-1.01.02-1.7.77-1.48-.26-1.12-.62-2.75 1.83-3.13.4-.28.91-1.28.96-.85.02-.76 1.36-1.1-.11-.92 1.08-1.03-1.14-1.8-.44-1.68.86-.59-.54-.7.7-1.18-.28-.33-.86-1.49.02-.83-.3-4.05 1.05-1.74.81-.85.82-1.23.74-.76.04-1.93.96-2.36 1.58-.55-.16-3.43 1.35-1.38 1.23-1.63.47-4.31-.36-1.73.29-1.33.61-.35-.52-1.3-.08-.3.59-2.73.58-1.6.52-1.84-1.15-.54.26-2.86-.12-.26-.6-1.6.07-.35-.68.28-.82-.82-1.28-.53-1.35.03-2.12.68-1.9-.25-2.12-.93-.09-.6-.52-.2-.97 2.33-.17.37-.68-.45-12.88.74.47 2.14.38-.37-1.37-.76-.65-1.98-.97 2.53-6.2-3.3-1.58-.37-.8-.13-1.93 2.66-.12.47-3.3.56-2.18-.7-.91.23-1.95-.3-.45.2-1.18.7-1.14.48-.02.8-1.68-.46-.78 1.06-.85 1.5-.63.15-1.5.3-.4-2.72-1.04-2.4-1.62-1.33-.3-2.85-.94h-.81l-.54.78-.62-.2-.36-.77.24-.83zm-46.44 72.17.3-.99.83-1.06 2.44-2.14.57-1.08 2.17-.59 1.07-.57 2.62-.5 1.76-1.54.68-.23 1.55-1.34 1.87-.93.93-1.16 3.79-1.95 1.5-.5 2.13-.08 1.11.87 1.61.75 2.7 3.6.19 1.49-1.84.72.23.98-.2 1.5-1 1.29-.14 1.68.61.52 1.3-.62.8.65 1.06-.08.33 1.2-1.74 1.58.05.8-.77.79-.55-.1-.94-.96-.75-.17-.37.57-1.47-.13-3.68 1.5-1.04-1.33-1.9-.09-1.08.54-.27-.68-2.14.5-1.58.68-1.74 1.06-.61-.45-.46-1.67-1.12 1-.77 1.03-1.83.9-.48-.59-.68.57-1.28-.47-1.16-.98.49-.73-.38-.6-1.19-.23-1.71-1.62zm-66.31-72.73.71-1.66.8-.68.74-.13 2.3-1.52 2.53-.7 2.64-.07 1.09-.26 2.66-.22 3.41 1.08 4.78.23.92-.25 2.62.67 1.45.06 2.73.92 1.31.63 1.57 1.41h.4l8.37 7.94 1.52 1.5 1.36 1.75 1.73 3.2 1.13 1.7-.06 2.92-1.45 2.9-1.43 1.7-1.46 3.13-1.29 1.29-1.07.53-1.7-.06-.97.63-1.72.58-.97 1.03-1.6.84-.78-.51-1.03 1.88-.67-.84-.7-.13-.63.54-1.04.28-2.14-.31-.56.51-1.63-.26-.79.39-.6-.46-3.28.4-1.38.49-1.79-2.58-.68-.44-.95-1.18-1.37-5.02-.4-.11-.13-1.42.4-.77.02-1.81.34-1.27.04-2.03-.72-1.8-2.65-4.46-.91-.86-3.8-1.8-.65.07-.86-.94-1.77-.48-1.58-2.6-.52-1.38zm-45.22-40.14 1.03-1.25.4-1.19-.34-.63.7-1.76.8-.54.25-1.4.48-.73 2.07-2.25 1.35-.4 2.41-2.06.98-1.3-.2-.89.77-1.24-.23-.53.35-1.03-.48-2.13-1.58-1.5-.25-.72 1.13-.97 2.8 1.23 3.27.09 1-.13.65-.74 1.67 1.28.45-.36.74.57.74 1.28 1.04.83 1.5.02 1.36.38 2.58-.05.13.55 2.44.3.02-.43 2.43-.02 1.55.53.54-.12 1.1.43 1.99-.18 1.62.25 1.97.79 1.52.43h1.58l.93.55 1.87-.01 1.23-.48 3.22.42 5.04 1.35 1.7-.59.66-.72.54-2.97.5-.21-.48-1.07 1.06-.97 1.09-.53 1.42.66 1.02 1.4.13.78 1.54 2.44.2 1.84.63.52-.04.63 1.85.68 1.13-.44.5.45 1.12.29.7-.63.28 1.02 1.85.33.38.43.96-.26.74-1.03h1.31l.31 1.33.74.13.52-.95 1.56.28.39.61 2.88-.59 1.38-.47.86.46 1.34.07.64-.83.55.06.92-.65 2.8-.74.91.36.53.87 1.04.09 1.12-1.1 2.07.06.53-.48 2.01.32 3.7.2.74.9-.13 1.81 1.3.39 2.13-.58 1.46.36-.37 1.12-.23 1.72-.66.6-1.26 2.33-1.32.96-1.08 1.93-1.37.63-.25.77-2.42 2.02-1.4.86-1.56 1.32-.15.62-1.23.04-1.01.57-.69 1.33-1.14.24-.94.75-2.73.33-.86.93h-.92l-1.18.64-.52.67-2.27-.19-.53-.43-1.2.27-.5.72-.96.48-1.35.17-.26.62-3.32-.75-.48-1.25-.97.26-2.54-.44-1.2-.54-2.58-.25-2.51-.5-.98-.54-2.16-.4-1.23-.52-1.59.09-.28-.6-1.8-.91-1.51.28-.5-.64-2.84-1.05-1.97-.46-.85-1.26-1.27-.34-1.39.04-2.07-.7-1.3-.21-.77.27-1.76-.56-2.08-.03-.66-.28-1.02.61-.79-.23-1.34.17-.84.37-1.75.2-2.13.76-1.96.46-1.53-.24-3.14.07-.74.27-1.51-.13-2.9.36-2.49-.04-4.84.37-1.34.63-.52-.56-5.7-1.05-2.8-.06-.97-.35-1.22-1.26z"/>
    <path region="4" short-name="2" long-name="State Senate District 2" value="1" d="m916.5 699.85 6.85-3.64 2.52-.45 3.93-1.99.6.21 1.43-.71 1.05-.08-1.51 1.35 1.32 1.49.64-.57 1.06 1.18 6.35-5.7-.23-.26 6.03-4.64 2.85-2.42.45-.16 3.16-2.51 2.03-1.5 2.05-2.74 1.3-1.48 3.44-4.41 1.98-3.77.5.6 1.42-1.96.63 1.67.56.78.57 2.02.58 1-.16 1.53-.65 1.56-.05 2.86.83 1.16-.57.76.4 2.1.98.9 1.93 1.08.73.76 1.84-.23.89.48v.77l-.54 1.24.22 1.39 1.4 1.04 2.52 1.51.83 1.65 1.78.65 1.75 2.2 2.65 1.14.85 1.01 1.69.22 1.46 1.34 3.1.48 3.28 2.2 1.37.02 2.55 1.56.82 1.41.04.68-.9.78.1 1.07-1.03 3.42-.4.55-.2 1.45-1.2 1.5-.84.59-.7 1.29-5.46 5.04-1.6.85-1.07 1.21-1.14.56-.64 1.42-3.67 1.8-2.7 2.33-.88-.03-1 2.1-2.72 2.27-3.07 2.81-1.15 1.65-6.06 3.3-1.36.22-.8.72-1.02-1.47-.4 1.23-1-.28-.95.64-2.76 1.32-1.5-.54-1.18.4-1.41.83-3.34 3.7-1.95 1.03-2.82 2.04-.87.1-1.72-1.1-1.38-.52-1.94-.25-.47-.75-.74-.4.08-.8 1.23-.83.77.08 2.51-1.14.04-.47-2.22.38-2.51-.28-1.62-.68-1.03.26-1.42-.65-1.92-1.66-.83.28-.8-.74-.93-.24-1.12-1-1.3-1.69-.67-.17-1.3-2.1.46-1.44-.84-1.1-1.44-.3-3.2-4.2-.37-.83v-1.33l.69-.57 1.65-.02.66-1.22.69-.22-1.14-1 3.36-3.27.77-.55 3.53-1.89 4.03-.95.75-.58-2.1-1.49-1.18-.53-.56-2.3.24-.44 1.22.7.35-.53-.78-.52 1.43-2.17-.81-.53-.35.52-1.32-.87-.66.5-5.9-7.6-2.46 1.46-1.71-1.67z"/>
    <path region="5" short-name="12" long-name="State Senate District 12" value="1" d="m438.46 358.39 3.89 1.47-.7 1.2 2.99 2.83-1.24.45-1.2-1.01-1.5-.89-1.49-.1-4.37-2.63-.03-.12.67-2.68.35-.05 1.66 1.25z"/>
    <path region="6" short-name="23" long-name="State Senate District 23" value="1" d="m446.43 331.65-1.8 1.05-.02.68.92.65.29.76-.57 1.3 1.11 1.43.08 1.25-.55.65-.71-.12-1.25-1.11-1.05.68-2.25-.13.18-2.03-.12-.8-2.22-1.63-1.47-.4-1.02-1.56-1.52-.71-.36-1.83.27-.75-.36-.63-.15-.96-1.17.13-.92-.59-.63-1.69.27-.86-.31-1.04-.2-2.1-.86-1.67-.82-.02-1.04-1.3-.05-.43-1.3-1.29-.47-1.38-.55-.58.05-.7-.6-.4-2.15-.15-1.72.66-2.82-.43-1.58.39-1.74.2-1.28.77-2.02.25.88.73-.47.97-1.3.4-2.37-.52-.43.24-1.75-.25-1.35.45.53.98-.71.51-.12.96-1.01 1.19.45.41 1.48.06.5 2.66 2.22.9-.98 1.88-1.8 2.44.04.45-.71.59-1.71.66-.01.84-1.67-.24-2.16-.61-.5-.43-1.55-.43-.22-.46-2.41-.88-.87.18-1.6-1.7-.15-1.09-.93-1.27-1.71-.2-.85-1.07-.65.3-1.18-.3-.06-1.53-1.53-.82-1.27-1.44.25-1.04-.61-.44-1.4-.39-1.35-1.26-1.65-.7-.67-1.82-1.01-1.1-1.3-.15-.48-.42-.4-1.43-1.04.2-.8-.84-1.53-.51-.84.28-.75-.82-.94-.35-2.87-1.63-1.24.33-2.14-1.2-1.02-.83-.91.34-1.77-.98.74-.35 3.31-.28 4.54-.63 1.26.35 2.18.01 1.26-.38 3.25-.1 2.66.4.85-.22.86.43.7-.3 1.72.08 3.3-.7.8.42 1.68-.21.89-1.3.94.08 1.67-2.1-.53-.46 2.17-1.97 1.67-.99-.03-.68 1.1-.5 1.55-1.72.64-1.03.56-.07.53-3.16 2.81-2.84 1.27-1 .55-1.17.88-.29.84-1.33 2.59-1.68.8-.38 1.67-.24.56-.73 1.51-.05 1-.98 1.03.3.44-.32 1.48.09.98 1.35.75.24 1.6 1.8 2.04 3.15.88.54-.53.53.13.9.56.64 1.09.35-.36 1.52 2.09 1.24-.26 1.02.03 1.37-.51 1.02.25.7 1.21 1.03.01 1.24.9 1.33 1.76 1 .54 1.58 1.07.9.46 1.8.74.69 1.37.78.02 1.96-.35 1.08.63.47.85-.19.92-.8 1.65.51.75.51.74.99v.95l.87.58 1.35 2.93-.22 1.93.15 1.55-2.9.51-.37 1.23 1.02 1.5-.41.93 1.17.56.22.8-.5 2.03.6 2.04.54.55 1.47-.25 1.42 1.07 1.05-.41.98 1.96z"/>
    <path region="7" short-name="20" long-name="State Senate District 20" value="1" d="m405.79 348.3-.2-1 .52-1.19 1.07 1.26 2.48-.2.84.73 1.32-.09.71.8 1.78.38 2.05 2.32.18 1.9-.14 1.06-1.45 1.33h-.59l-7.31 1.68-4.23.63-.1-1.93 2-.94-.66-1.88 1.74-.67-.73-1.08.73-.6-.36-.54.64-.8z"/>
    <path region="8" short-name="6" long-name="State Senate District 6" value="1" d="m670.88 413.17-.17 3.36.3.86-.95 2.13.11 1.02.58.9-.01 1.2.37.7-.01 1.56.32 1.94.6.97-.27 1.37.37 1.68-.18.81.7 1 .4 1.63-1.7 1.63-.03 1.04 1.36 1.06-.54.29-1.75.16-.38.81v1.66l-.84 1.13 2.3.84.33.63 1.12.07 1.07.9.38.71 1.16-.58 1.53.25 1.46.48 1.75-.34 1.66.4 2.12-.07.9.9.66.13.36-3.01-.14-1.1 1.53.6 1.7.17.7.63 1.13.4-1.22 1.71-.08.71 2.22.7 1.82.21 2.2-.36 2.21-.14.93.1 2.4 2.83 1.32.54 1.17-.36-.2 1.18.3.45-.23 1.95.7.9-.57 2.19-.46 3.3-2.66.12.13 1.93.37.8 3.3 1.57-2.53 6.2 1.98.98.76.65.37 1.37-2.14-.38-.74-.47.45 12.88-.37.68-2.33.17.2.97.6.52.93.09.25 2.12-.69 1.9-.02 2.13.53 1.34-.58-.38-1.13.91-1.67-.73-.96-1.17.1-1 .6-.9-.44-1.4-1.27-1.64-1.13-.78-.27-.65 1.15-.54.14-.93.72-.54.26-1.06-.43-.62.33-.8-.13-1.1-.42-.29-.11-3.73.15-1-.27-2.06-.33-.66.27-1.12-.36-2.1-.51-.66-.35-1.13-.64-.86-.67-3.3.05-3.44-.3-1.57-2.33-2.32-2.86-.97-1.88-.2-1.2.27-1.68 1.45-.77 1.54-1.18.73-2.15.28-1.1-1.08-4.2-2.37-3.17-.5-1.42-.82-1.49-1.27-1.59-.78-.91-.02-.97.45-.84-.27-.88-.97-.5-1.6-1.86-1.96-1.11-.35-1.32-1.88-2.57-2.76-1.09-.65-.87-1.38-.28-1.23-1.74-1.4.72-1.01.04-2.93-1.14-1.99-1.12-.76.36-2.29.41-.97.16-2.72 1.07-1.74.43-1.5.77-1.83 1.2-1.84 1.31-2.64.09-1.48 1.17.01.7-.38 1.12.1.75-1.08 1.4-.45-.62-1.13v-.86l1.3-.37 1.67.65 1.15-.5.97.2.97-.27.88-1.26 2.72.07.06 1.28z"/>
    <path region="9" short-name="19" long-name="State Senate District 19" value="1" d="m400.5 345.26 1.57-1.3 1.43-.6 1.62-.95.7.83 1.12-.63-.17-1.17 1.51-.6 1-.85 1.57-.58 1.4.28 1.16-.03-.2-1.17 1.08-.05.67-.48.14-.9 1.37-.8.74-.76.2 1.49.99.45.52.7-1.63 1.74-.8.58-1.05-.36-1.5-.06-.97.43-1.57 1.4-.17 1-2.17.45-.52 1.64 1.12 2.2-2.48.21-1.08-1.25-.5 1.18.18 1-1.58.8-2.95-2.31z"/>
    <path region="10" short-name="14" long-name="State Senate District 14" value="1" d="m440.49 338.75.68.55 2.14 1.01-.2 1.3.57 1 1.54.91.52.6.2 1.21-.24.3-2.8 1.65-.84.91-1.95 1.59-.5.14-.43 1.1-1.02.99-.67 1.23-1.6-.12-.85.79-.38-.58-1.31-.8-1.01-1.01-.56-.91-1.04-.46-.62-.95-.14-.97-.65-1.47-1.11-1.25-1.5-.41.77-.43.37-.8 1.16-.99 1.92-2.2 1.99-.83 2-1.44 1.41-.31 1.36.13 1.37.43z"/>
    <path region="11" short-name="11" long-name="State Senate District 11" value="1" d="m449.7 348.48.35 2.34 1.46 1.04-1.43 2.01-.58 1.71-.77.77-.22.88-1.93.71-.54.47-1 1.99-.9-.13-.89-.75-.9.34-3.9-1.47.5-1.23-.56-.64.22-.74 2.26-1.02.63-.07 1.7-1.75 1.9-.91 1.96-1.97z"/>
    <path region="12" short-name="17" long-name="State Senate District 17" value="1" d="m434.01 328.4-2.97 1.02-2.39.3-1.51.65-.8-.1-3.35 1.3-.7 1.02-3.18.26-1 .6-.8 1.21-.1.84-.74.75-1.37.81-.14.9-.67.48-1.09.05-.35-1.7-.46-.65-.77-2.98.55-1.98.57-1.32-1.74-.52-1.5.81-.58-.78-1.2.1-.96.55-1-.34-.03-.46 1.79-2.44.98-1.89-2.22-.89-.5-2.66-1.48-.06-.45-.41 1.01-1.19.12-.96.71-.51-.53-.98 1.35-.45 1.75.25.43-.24 2.37.51 1.3-.39.47-.97-.88-.73 2.02-.25 1.28-.77 1.74-.2 1.58-.4 2.82.44 1.72-.66 2.16.15.59.4-.05.7.55.58.48 1.38 1.3 1.3.04.42 1.04 1.3.82.02.86 1.66.2 2.1.31 1.05-.27.86.63 1.7.92.58 1.17-.13z"/>
    <path region="13" short-name="15" long-name="State Senate District 15" value="1" d="m416.5 340.46.9.34 5.14 2.5.75.64 1.45.64 1.99.52 1.49.42 1.1 1.25.66 1.46.14.97.62.95 1.04.46.56.9 1 1.01 1.32.81.38.58-1.41.8-.19 1.81.8.59.71 1.33-.27.67-1.26-.58-1.13.22-.53-1.29-3.3.25-.38.39-7.42-.12-.4-.53.4-1.75-.86-.63-1.62-.58-.82-1.12-.82-.16-.18-1.9-2.05-2.32-1.78-.38-.71-.8-1.32.1-.84-.75-1.12-2.2.52-1.64 2.17-.44.17-1.02 1.57-1.4.97-.42 1.5.06z"/>
    <path region="14" short-name="10" long-name="State Senate District 10" value="1" d="m442.35 359.86.9-.34.89.75.9.13 1-2 .54-.46 1.93-.71.22-.88.77-.77.58-1.7 1.43-2.02.66.04 1.36.66 1.85.2-1.98 3.19-.17 1.06-.47.65-.9.37-.76.98-.56.17-.18 1.5-.51 2.25-1.37.05-1.8-.65-.5.91-1.26.16-.28.5-2.99-2.85z"/>
    <path region="15" short-name="18" long-name="State Senate District 18" value="1" d="m393.95 328.89.87-.18 2.4.88.23.46 1.55.43.5.43 2.16.6 1.67.25v-.84l1.72-.66.7-.58 1.01.34.95-.55 1.2-.1.6.78 1.5-.81 1.73.52-.57 1.32-.55 1.98.77 2.98.46.64.35 1.71.2 1.17-1.15.03-1.4-.28-1.57.58-1 .85-1.5.6.16 1.17-1.12.63-.7-.83-1.62.95-1.43.6-1.57 1.3h-1.18l-1.04.3-.36-.31-1.18.14-1-1.14-.98-.05-1.23-1.38-.5-1.2.24-.66-.64-.48.05-1.16.41-.29-.14-1.82-.46-.66.39-1.03 1.62-1.65-.01-1.57-1.28-.92z"/>
    <path region="16" short-name="9" long-name="State Senate District 9" value="1" d="m443.4 364.34 1.24-.45.28-.5 1.26-.15.5-.91 1.8.65 1.37-.05.5-2.24.19-1.51.56-.17.75-.98.9-.37.48-.65.17-1.06 1.98-3.2 1.89 1.05 1.96.57 2.06-.21.82 1.07.83.3 1.78-.12.56 2.03.33 2.59-.42.85.47.4-1.96 1.3-1.25-.7-.55.58-1.8-.12-.44.45-1.65-.01-2.01.7-1.81.16-2.04.91-.82 1.02-1.82 1.04-.26.84-.85-.32-1.9.4-1.6-.2-1.13-.88z"/>
    <path region="17" short-name="13" long-name="State Senate District 13" value="1" d="m435.04 353.9.85-.78 1.6.12.67-1.23 1.02-.99.43-1.1.5-.14 1.95-1.59.84-.9 2.8-1.67.24-.29.42.26 2.48.35.59.43.36.87-.09 1.24-2.64 1.58-1.97 1.97-1.9.9-1.7 1.76-.62.07-2.26 1.02-.21.74.54.64-.48 1.23-.97-.28-1.66-1.25-.35.05-.67 2.68-.12-.48.26-.67-.7-1.33-.8-.59.18-1.82z"/>
    <path region="18" short-name="24" long-name="State Senate District 24" value="1" d="M440.49 338.75h.14l2.25.12 1.05-.68 1.25 1.11.71.12.55-.65-.08-1.25-1.11-1.43.57-1.3-.3-.76-.9-.65v-.68l1.81-1.05.37.9-.14.98 1.68.94.82-.69.58.7.34 2.25 1.68.37 1.49-.28.63-.57.44-1-.25-.6.76-.77.62-1.63-2.7-1.22-.74-.03-.27-.64.18-1.03.84-1 .83.13.92-.61 3.17 1.2 1.25-.44 1.68-.9 1.37.21-.6 1.8-.7.62-1.12.29-.04 2.5-.59 1.58-1 .36.21 1.67 1.15 2.1-1.22.41.5.92-.07 1 .67 1.16-.52.49-1.03-.48.17 1.53-1.06-.2-.68.9-1.18.76.1-.94-.44-.55-2.28-.44-1.89 1.84-1.52.7-2.47-.35-.43-.26-.2-1.2-.52-.6-1.54-.91-.57-1 .2-1.3-2.14-1.02z"/>
    <path region="19" short-name="5" long-name="State Senate District 5" value="1" d="m670.88 413.17 1.03.83.98-.2 1.41 1.17 1.02-.4.95 1.02.53 1.54.48.47 1.07-.59 1.47 3.17.87.07 1.02-.52-.04 2.87.1 1.6.77.46.92 1.9 1.38.92.22 2.05 2 1.16.72 1.57.14 1.44.8 1.15.38-.28.78 1.17.27 1.32 1.5-.52.65.41 3.35.29.52-.27.82 1.14-.24.83.36.78.62.19.54-.78h.8l2.86.95 1.34.29 2.39 1.62 2.72 1.04-.3.4-.14 1.5-1.5.63-1.07.86.45.77-.79 1.68-.47.02-.7 1.14-1.18.36-1.32-.54-2.4-2.82-.93-.11-2.22.14-2.2.36-1.8-.21-2.23-.7.08-.7 1.22-1.72-1.14-.4-.68-.63-1.7-.17-1.54-.6.14 1.1-.36 3-.66-.11-.9-.9-2.12.07-1.66-.4-1.75.33-1.46-.48-1.53-.25-1.16.58-.38-.7-1.07-.9-1.12-.08-.33-.63-2.3-.84.83-1.13v-1.66l.39-.81 1.75-.16.54-.28-1.36-1.07.02-1.04 1.7-1.63-.39-1.64-.7-.99.18-.8-.37-1.69.26-1.37-.59-.97-.32-1.94v-1.57l-.36-.7.01-1.19-.58-.9-.11-1.02.95-2.13-.3-.86z"/>
    <path region="20" short-name="21" long-name="State Senate District 21" value="1" d="m392.68 339.32-.05 1.16.64.48-.24.66.5 1.2 1.23 1.39.98.04 1 1.14 1.18-.14.36.3 1.04-.3 1.18.01.75 1.53 2.95 2.3 1.59-.8.3 1.18-.65.8.36.55-.73.6.73 1.07-1.74.67.66 1.88-2 .94.1 1.93-1.08.51-5.36.56-.85.45h-3.46l-.99-.37-.8-.84-1.07-2.22-.35-1.5 1-.09.41-.5-.61-.92-1.11.63.25-.73 1.44-.31-.63-.7.42-.54-.24-1.3 2.7.61-.25-1.15.64-1.85.18-1.42-.42-.84-1.37-.14-.55-1.72.35-1.16.96-.94-.12-1.04z"/>
    <path region="21" short-name="1" long-name="State Senate District 1" value="1" d="m948.4 639.42.46.92-.65.8.38 1.51-.92 3.37-.95 1.83.62.96.52.18-.22 1.22-.4.57.1 1.08.63 1.01-.23 1.95-.39.7.13.85-.32 2.47.15 3.58.55 1.28.96.8 2.1-.1.05-.53 1.16-.38.6.5 1.3-1.23 1.4-.02.92-1.18 1.84-.05 1.86 1.07.97-.43.2-.58 2.07.4.42.32 1.54 2.16.47 1.24-1.43 1.95-.5-.6-1.97 3.78-3.45 4.4-1.29 1.49-2.05 2.73-2.03 1.5-3.16 2.52-.45.16-2.85 2.42-6.03 4.64.23.26-6.35 5.7-1.06-1.18-.64.57-1.32-1.5 1.5-1.34-1.04.08-1.42.71-.61-.2-3.93 1.98-2.52.45-6.86 3.64-7.61 4.77-7.56-7.45-.2-.52-1.31-2.53-1.64-4.09-4.34-11.52.3-.2-2.2-5.75-1.24-1.16 1.33-7.01 2.92-3.24.55-.96 5.02-5.78-.06-.7.92-1.04.53-1.88-.01-1.48.87.19 3.28-1.32 2.77.8 1.69-.56 3.93-2.5h.95l1.35.7.75-.62 1.58-.46.65.23 2.8-1.04.46.25 1.96-.88 3.25-.38 1.59-.86 1.44-1.02.78-1.31.76-.33 1.27 1.2.73-.6.28.9 1.36-.65.59-.01-.8 1.75.24.44 1.86-.3 1.45.12 1.33-.31.87.12 1.03-.68 3.2-1.17 1.04-1.15z"/>
    <path region="22" short-name="8" long-name="State Senate District 8" value="1" d="m84.37 214.56.78-3.43-.13-.87.32-1.22-.13-1.22 2.33-1.76 1.03-1.22 3.75-3.26.25-1.13.44-.39.59-1.57.05-1.15.91-1.37.16-1.49.38-1.1 1.57-2 .79-.25.87-.74 1.38-.72.45.25.84-.91 1.62-.13 3.39-.9 2.35-.9 1.8-1.39.97-.1 2.36-2.24 1.35-.82 1.08-.32 2.07-1.02.17-.37 1.57-.9 2.87-2.44 2.07.04.65.55 1.32-1.17 1 .42.82-.06.92.63.4 1.18.48.34 1.21-.76.34.42 2.33.32-.1.58 1.37 1.5 1.35-.12.92-.76.19-1.15-.63-.98.6-.8 1.01-.33.78-.85 2.2.06 1.97 1.2 1.98-.59 1.8.53 1.73.07 1.08 1.13.48-.08.4-1.23.82.26 2.38-.47.8-1.33.81.57.43.83 1.07.52 1.25-.37.12 1.51 1.22-.16 1.31.55 2.02.34 1.37-.3 1.78 1.28 1.52 1.66-.35.9.91.09 2.33 1.6.6.73.19.93-.26 1.04 1.77 2.52-.4.49-.27 1.38.65.6 1.18-.45.55 1.02.15 2.74-.13 1.4-.7 1.53.38.82-.38 1.11-.82 1-.52.15-.21 1.68-1.09 1.2-1.07 1.7.05.96-.37 1.75-.62 1.07-1.28.8-.76.18-.51.9.17.84-.79 3.53.14 1.46.92 3.22-.48 1.36 1.05.13-.82 1.34.05 1.26.6 2.28.02 1.23-1.08.98-.8-.65-3.38.9.2 1.15 1.29-.24.5.28-.47 1.19.61.98-1.34-.05-.19.96-1.27.01-.83.45-.25.64-2.2.88-1 1.69h-.62l-.32.98.13 1.04-1.34-.2-1.27.85-.17 1-1.04.67-1.17.29-.4 1.15-1.54.2-1.25 1.35-.7-.17-1.31 1.23-1.44-.82-4.11-1.85-1.34-.02-1.02-.7-2.41.19-1.97-.69-1.37.22-1.33.57-.89-.59-2.31-.26-1.35.14-1.68-.5-1.6-.84-.87.23-1.63-1.07-.77-.11-.4-.8-.82-.26-.57.34v1.49l-1.08.47-.72-.57-.15-.9-1.59-.46-.96-.86-1.16-.5-.95-.83-.84-1.2.05-.51-.9-.77-1.2-1.56-.03-1.04-.54-.47-1.43-.24-1.43-2.11-1.03-.4-6.11-1.16-1.42-1.16-6.3-1.8-1.69-.69-1.14-1.38-1.5-3.75-1.2-.9-1.07-1.64zm-57.5 1.6.02-1.33.92.75 1.64.03-.93 1.01-1.25.23zM.27 249.03l.85-.8 1.43-2.21.07-2.57.62-.67.1-1.07.66-.93 1.36-.71 2.86-2.53 1.2-1.66.83-.5.86-1.28 2.12-.57 1.93-.95.5-1.07 1.51-.02 3.2-1.33 2.06-1.51.7-1.02.42-1.32.93-1.74.19-1.92.61-.72-.23-.99 1.25-.88.75.48 1.36-1.01.28-.85.9.52.11.96 2.63-.37.35-.64 3.1 2.18.43 1.48-.1 1.04-.62.5-1.57.07-1.04 1.72-.43 1.69-1.01.75-1.28 5.16.62 2.49 1.1 2.86-.31 1.1-.71.07-1.23.92-.87.22-1.22.88-.4-.2-1.54 1.17-.75-.48-3.19 1.24-2.05.39-.75-.13-2.78 1.45-1.09 1.61-.44 1.22-1.07 1.28-.19.94-.84.76-2.5 4-.43 1.3.25.61-1.4 1.78-.42 1.59.7.44-.92 1.07-.79-.67-1.28-.01-1.6-1.73-1.26.15-.52-.39.14-.97-.75-1.2L.5 252l-.5-1.72Z"/>
    <path region="23" short-name="16" long-name="State Senate District 16" value="1" d="m417.2 335.5.11-.84.8-1.2 1-.6 3.17-.27.71-1.02 3.34-1.3.8.1 1.52-.66 2.4-.29 2.96-1.02.36.63-.27.75.36 1.83 1.52.7 1.02 1.58 1.47.39 2.22 1.62.12.81-.18 2.03h-.15l-1.42-.08-1.36-.43-1.36-.13-1.42.3-2 1.45-1.98.84-1.92 2.2-1.16.99-.37.79-.76.43-1.99-.52-1.45-.64-.75-.64-5.13-2.5-.92-.34.8-.58 1.63-1.74-.52-.7-1-.45z"/>
    <path region="24" short-name="22" long-name="State Senate District 22" value="1" d="m393.95 328.89-.74 2.5 1.28.92.01 1.56-1.62 1.65-.39 1.03.46.66.14 1.82-.41.3-.78 1.06.13 1.03-.96.95-.35 1.16.55 1.72 1.37.13.42.84-.18 1.43-.64 1.85.25 1.15-2.7-.61.24 1.3-.42.53.63.7-1.44.32-.25.73-.29-1.66-.8-1.29-.37-2.12.1-.68-1.22-2.75-.78-.52-.07-.87-.93-.65-.63-1.07-2.26-2.08-2-.54-1.14-1.11.26-1.06-.31-3.66-.55-.3-1.32-2.6v-.6l-1.43-.43-.3-.73-.63-.24-.16-.82-1.77-1.05-.87-.84-.4-1.65-1.97-1.29.22-2.45.2-5.77-.12-1.8-.32-.56-3.5-3.94-1.04-.38-2.83-2.12.9-.34 1.03.82 2.14 1.2 1.24-.32 2.87 1.63.94.35.75.82.84-.28 1.53.5.8.84 1.04-.2.4 1.44.47.42 1.3.14 1.02 1.11.67 1.83 1.65.7 1.35 1.25 1.4.38.61.45-.25 1.04 1.27 1.44 1.53.82.06 1.54 1.18.28.65-.3.85 1.07 1.7.21.94 1.27.16 1.09z"/>
  </g>
</svg>