<svg viewBox="0 0 772.31 1000" auto-border-stroke-width="1" auto-border-stroke-width-limit=".5" original-source="['https://www2.census.gov/geo/tiger/GENZ2022/shp/cb_2022_us_sldl_500k.zip']" candidates="[{&quot;id&quot;:&quot;0&quot;, &quot;name&quot;:&quot;Democrats&quot;, &quot;margins&quot;: [{ &quot;color&quot;: &quot;#1C408C&quot; }, { &quot;color&quot;: &quot;#577CCC&quot; }, { &quot;color&quot;: &quot;#8AAFFF&quot; }, { &quot;color&quot;: &quot;#949BB3&quot; }]},{&quot;id&quot;:&quot;1&quot;, &quot;name&quot;:&quot;Republicans&quot;, &quot;margins&quot;: [{ &quot;color&quot;: &quot;#BF1D29&quot; }, { &quot;color&quot;: &quot;#FF5865&quot; }, { &quot;color&quot;: &quot;#FF8B98&quot; }, { &quot;color&quot;: &quot;#CF8980&quot; }]}]" version="1.1" xmlns="http://www.w3.org/2000/svg">
  <g regions transform="translate(-113.85)">
    <path region="0" short-name="State Senate District 5" long-name="State Senate District 5" value="1" d="m424.73 180.5-.1-4.47-.22-1.12h1.77l.01-4.83 1-.52 3.92-4.83-.12-.98-1.34-2.31-.99-.82.84-.7 2.66-1.06.68.36 2.8.06 1.3-.4-.03 1.28 3.75.06.67-2.22 1.81-.23 1.9-.57 1.52-.67.9-.91 2-1.13 4.76-.03 3.25-1.42 1.52.33 1.17 1.1 3.5-.14 1.02.68-.1.96.34.8-.35.7-.82.46-.38.8-.83.53.3 2.28 1.42.25.69-.3 1.97 2 1.08-1.3 1.34.47.07 1.78 1.3.5 2.4 2 .76 1.08h.5l1.8.92-.3 1.47-.6.68 1.4 1.14-1.08 2.09.27.9 1.17-.32 1.13.24-.05.98-2.09.78.07 1.51 1.89 3.27.03 1.4.48.88-1.62 1.05.62 1.04-.03 1.95.88.7-1.43 1.4-.4.73h-1.18v1.21l-.68.5-3.34-4.08-2.39-4.38-.6-.54-1.2-.44-.59-.88-.57-1.87-2.82-2-.63-.2-4.63-.5-1.5.2-2-.39-4 .43-3.21.09-1.2.4-.89-.14-1.13.36.44 2.02-.44 1.96-1.48-.01-.96.32-.53 1.34-1.5-.01.01-1.85-2.6-.08.36 1.1-.05 1.63-2.9-.08-8.12-.04-2.05-2.92h1.16z"/>
    <path region="1" short-name="State Senate District 19" long-name="State Senate District 19" value="1" d="m492.13 292.01-.64.53.07 1.02-.6 1.18-.78-.29-1.47.14-2.75-.52-1.15 1.59-.73 1.78-.92-.14-.85.43-.35 1.72-1.45.86-.28.77-1.53 1.22.1 2.95-1.72 1.97-.18 3.46.6 1.87v.77l-2.52.6-.86.87-.88 1.33-2.16-.35-.88.58-1.38.08-.04-1.21-2.15-.42-.58-.63-.92-.06-.69.92-.01 3.08-.91.97-.22 2.53-5.66-.03-.24-.94.35-.47v-1.48l-1.47-.1-1.47.85h-1.45l-.02-.73-2.12.04-.49-1.55 1.23-3.01.75-.98-.08-.65-.88-.45-.52-1.26-.43.14-.58-1.27 2.06-1.06.09-1.02-3.96.03v-8.85h-2.02l-.54-2.95h-1.47l-.18-1.59-1.02-1.1 1.14.48h2.98l.6-.7h2v.67l1.36.5 1.56.97.01-9.5-.73-.93-.03-.8 1.32.67.74-.24 1.84.56-.04 1.07 2.56.9.63-.16 1.26.38.49.92.36 1.64-.3 1.6 1.27.14.6.84 2.6 1.08 2.21-.1 1.93.23 2.82-.33 2.65.42 1.14-.08.26-.5 2.3-.36 2.4-.85.57-.67 1.35-.85 2.46-.5v-.96h1.13l.59-1 .62.32 1.19-.9.57.01.8.83.19 2.27 1.44.43z"/>
    <path region="2" short-name="State Senate District 20" long-name="State Senate District 20" value="1" d="m488.84 317.27-.1-.44 1.6-1.64.48-.75 1.77-.07 2.53-2.92.6-.98.04-1.24-.7-1.5.56-.57.02-2.7.54-.64.32-1.4-.09-1.57-.36-.66.23-1.21.5-.8-1.13-1.38-1.29-2.78-1.12-.82-.46-1.02.53-.65 2.2-.61.56.23 1.33-.59.6-1.16-.14-.6 1.14-3.45-.85-.7.22-1.1-1.51-.75-.24-1.24-1.2-.88-.1-1.8-.32-.55-2.22-1.29-.44-1.65-1.2-1.38.33-1.12.08-2.56.41-1.5 1-1.43-.2-.74-.99-1.16.78-.01.27-.65-.8-2.16.26-1.27-.13-1.02.27-1.21 1.06.2.72-.5 1.25 1.22 1.2.5.02 1.13h1.15l.68-.96 1.06.27 1.7 1.06 2.47.75 1.05-.29 5.65-3.45 1.13-.9.37-1.91-.26-.56 1.93.08.7.45.07 1.29.82 1.28 1.22.4 9.43.28v-3.04l.7-.31.87.3 4.28-.04v-2.84h-.32v-3.08h2.9l.17-23.63 14.75-.14.06-6.07 17.72.03v-2.98l-3.16-.02v-3.65l-.27-35.4h1.62v-8.95h-3.82l.03-1.05 1.18-.8-.12-.66 1.9-1.48-.57-1.89 1.76-.42 1.77-1.2 1.36 1.43.58-.9 1.11-2.78 1.28-1.8.99-1.8 1.72-1.42 1.04-.28 1.75-.02v.72l-.01 18.86-.02 32.31 26.92.14 18.7.09 5.5.1h27l6.02.33 19.26-.04 19.26-.24 1.99.14 17.28-.23.62-.11 11.27-.1 6.47-.05 1.03.1 3.75-.12 18.52.06 27.57-.16 17.15.04 4.65.01 5.28-.2 38.51-.38 2.9-.22 8.98.25 19.04.04.25 35.6-.1 22.69.14 12.39.03 6.98-.32 16-.1 8.19.07.98-.1 10.28v44.82l.01 33 .04 36.99-.06 43-.05 32.54-.91-.42-1.83.82-.63-.38-.55 1.68-.95-.04-.71-.59-.34 1.46-.98 1.23.01 1.53-1.27.37-.4 1.45-77.18-.04-53.26.1v-1.5H734.7l.07-1.99.97-.9.39-1.47-.58-1.25-.6-.43-.14-1.45-.37-1.03.04-1.83-.26-.55-1.06.14-.89-.36-.5-.97-.8-.66.62-.48 1.7-.24.57-.85.22-1.46-.17-1.32-1.23-1.04-.15-1.3.44-1.38.66-.85 1.38-.61.52-1.14-.38-.7-.84-.45-.45-.82.07-.85.92-1.25.7-.4.1-.78.75-.69.25-1.74 1.39.08.78-.48-1.24-1.48-.97-.65.2-1.85.83-.16 1.37.29.74-1.41.47-.34v-1.02l.59-.93-.5-2.06.42-1.1-.47-.7h-1.56l-.73.3-.4-.82 1.7-1.36.21-.92-.19-.94.58-.38 1.97.08.82-.4.28-.75-1.05-.93-.64-1.73-.63-.76-1.17-.82.31-1.7.96-.37 2.68-.3.77.44.29 1.01-.17 1.99.26.5 1.24.84.57-.77-.87-1.43v-.83l.97-1.11.77-2.2 1.32.67.86-1 .15-1.59.43-1.61.6-1.18-.44-2.14-.94-2.16.65-.74.61-.02.37 1.35.04 1.3 1.53.2 1.83-.75 1.23.24.92.72.8.2.64-.64-.68-1.5-1.9-.8-.46-.82 1.62-.88h-14.43l-13.34-.01-42.92-.09h-27.18v-.98l-40.35-.23-11.97-.1.02-17.35h-15.77l-18.97-.07v-8.67l-5.45-.06-1.95-.77.3-.86 1.39-1.14.31-.95-.18-1.24-1.5-.44-.93-1.16.2-.5-1.19-1.12-.24-.56-1.41.38-1.25-1.39-.84.4-.54-1.22.2-1.4-.57-1.53-.87-1.12-1.44-.79-.47-.67-.24-1.22-1.04-.74-.34-1.55-.73-1.42-1.45 1.03-1.4.55-.44.88-1.84-.6-.4-1.02-.83-.74-.2-2.22 1.79-2.22-.72-1.07.4-1.15-.67-1.1.13-1.17.66-.61.39-1.88.7-.51.73-2.7.6-.97-.4-1.66-.43-3.34 2.21-.79.97.3 1.73-2.36-.44-.66 1-1.3-.9-1.1.63-1.6 1.11-.4.12-.85-.62-2.07.36-2.22-.7-2.34.38-1.3 1.12-1.73-.56-.4-3.33-3.71-.53-.78-.53-1.7-.81-1.02.07-1.23-.45-3.13-.6-2.05-.43-2.47-.2-2.43.37-1 .06-2.43-.2-.77.4-1.87.07-1.3-.5-1.96.45-.77.04-1.65.34-1.28-.02-2.87 2.04.24.64.52 3.4.43 1.04-1.78-.17-1.07-2.31-.97-1.14-1.19-.17-1.68-1.4-1.54-.94-2.48-.95-1.08.04-.65-.73-1.7-.53-.4-.4-1.22-.83-.41-.62.24-1.15-1.24-.12-.7-4.16-.47-.3.47-1.82-.29-1.18.4-1.16-.02-1.21.49-5.09-.01-.01 2.98h-7.33l.7 1.18-1.16.17-1.02-.89-1.48-.92-.27.74h-2.66l-.72.84-1.83.08.41-.93-1.55.02.37-1.02-.83-.6-.6.61h-.67l-1.23 1.58.03 4.08-.3.64.06 1.33-1.77.7-.55.89.4 1.18.15 1.92.35.8 1.35.86-2.08.94-.91-.43-1.4-1.18-.77.16-.3.66-1.43 1.2-2.57.1-.37-.43-.02-1.4-.72-.86-.38-1.66-.81-1.24-.22-1.51-1 .41-2.08-3-2.06.74-1.16-.26-1.35.12-.6.93.12 1.01-.42.74-.95-.57.32-.85z"/>
    <path region="3" short-name="State Senate District 1" long-name="State Senate District 1" value="1" d="m115.62 1.62 7.92.16 8.83.65 4.8.3 5.22.07 15.87-.26 13.53-.28 23.24-.4 25.83-.4 10.12-.17 16.33-.22L261.74.9l21.88-.24L310.76.4l19.62-.1 21.45-.1h10.46l11.7-.06L401.52.1l1.99-.06 2.15.64-1.03.57 1.25.93.6 1.28.46 3 1.87 1.3 2.21 4.84.04 1.4.34 1.24 1.09 1.8.95.66.54 1.12.7.2 2.33 1.37 1.48 2.5.4 1 .82.94.66 1.4-.04 1.47.83-.1.9 1.13.95 2.53.07 1.8 1.74 3.75.88.64-.28 1.1.07 1.13.47.65 1.42.49 1.48 2.05-.14.9-.78 1.99-.83.12-.99.75.01.77-1.05 1.22.27 1.5-.38 2.04-.52 1.3-.77 1-.43 2.3-.07 1.82.41 1.68-1.16.9-.24 1.27 1.05 2.7 1.3.83.89.2.88 2.71 1.08 1.28 6.53-2.74.4 1.1 3.7-.06.34-1.05.94-.5 1.63.13.64 1.72 2.23.04 1.03.2.47 1.28.81.01 3.14-4.18 1.45.26.03-2.26.7-.21 2.2-.01.05 1.33 1.9-.02.49 1.66.88.44 2.7.08.27 1.41.52.64 2.48.91 2.09.46.69.4 1.54.31 1.9-.74 1.5.7 1.09-.34 1.03 1 .16.8 1.02.35 1.45.9.71-1.24 1.72-1.12 1.14-.98 1 .17 1.36-.3.94-.65 2.33.38 1.95-.44.72.72 1.4.3.67-.18 1.75.77 3.4.64.88.82 1.15-.61.3-.94 1.38.14 1.69 2.15 1.85.62 1.61.01.6-.64 2.43-.74 1.18.02 2.29-.95 1.12.24 1.01-.45 2.45-.47.76-.54 1.96-.7-.22-.94.4-.69.89-.14.52-.73 1.48-.36.4 2.07.95-.12.05.74.7.79.08 1.07-1.02 1.01-.06.88-1.21 1.19.9 2.41-1.08 1.03-.79-.33-1.09 1.17.51 1.59-.18.3.08 3.39-.3.56.35.87-.1 1.46-.44.37.15 2.04-.33.88-.3 2.02-1.35.82-.4.85.48 2-.2.78-.88-.06-1.14.95-.03 1.16-1.27 1.29-.38 1.19-1.71 1.14.51.71-.1 2.3-.45.5-.47 1.99-1.4.91.1 1.3-1.67.38-.46 1.15.13 1.9-.42 1.38.75 1.04-.92.98-.58 1.03-.05 1.01-1.04.3-.6 1.16-1.54.29-.42.7-1.64.4-1.01-.92-.45-2.08-1.55.15-1.11-.4-.54-.79-1.34 2.15-.78-.03-1.65-.55-1.7.43-1.22-.66-1.26.98-.69-.13-1.39.77-.56 1.68-1.32-.28-.08-.75-.65-.68-1.1-1.84-.33-1.02-1.93.27-1.53 1.41-1.1.69-1.26-.82-.59-.88-.57.44-.95-.28-.78.24.66 1.34 1.64.9.22 1.57-.87 1.3-1.5 1.63-.74 1.15.14 1.79-1.52.3-1.64 1.03-1.04-.15-1.16.35-.92-.25-1-1.32-.6-.12-1.9-1.55-.53-1.38-.7-.22-2.52.9-.97-.79-1.32-.02-.16.5-1.5.12-.54-.67-2.86-.86-.25-.67-.87.2-1.01-1.29-.08-1.05-.55-.51.03-.88.99-1.06-2-.9-.91.73-.24.97-1.68-.17-2.14 1.33-1.44-.07-.67-.7-1.02.08-.37-.96-1.98-1.67-.75-1.09-.85 1.79-1.32 1.05.13 1.17.58.91.04 2.94-.98 2.05-.22 1.6 1.85 2.54-1.07.38-1.21 1.07-1.3.72-.88.34-.49.67-1.2.11-.8 1.15-1.84-.07-.46.23-.83 1.35-16.1-.07-16.18.06-15.65 21.08-4.5 6.12-19.2 25.99 35.95 62.77 5.05 8.9.52.5-4.35 3.21-.42.58.05.95.55 2.47.1 1.94-.22.76-1.07 1.92-.77.9-1.9 1.43-1.3-.25-.7.24.2 2.2-.8 3.79-3.2.04-.01-1.48-2.93-.01-.02-.6-8.31 5.58-3.53 1.28-1.77.1.12 1.3 7.73-.13.04 1.69.43 1.97v2.25l-14.84.27-1-.06-.04-1.48-5.68.08-.1-6.64-.55-.73-4.76.1-.06-5.97.75-.7-2.37.02-.7-.74.01-1.49h.74l.51-1.46-.03-2.96h.9l-.02-1.48h-2.94v-2.4l-1.62-2.41-7.15-6.2-1.91-1.98-.75-.26-2.4-.26-17.4-2.3-1.62-.62-17.1-12.34-1.57-.43-1.07.3-3.43 1.96-1.15.95-6.77 7.02-2.2 1.54-21.4 7.77-2.1.32-122.34-3.07-3.68-.22-2.78-.42-2.81-.66v2.7l-1.47.01.01 8.84h-5.44l.04-7.43-.05-6.58.1-2.65.12-34.7.04-11.82.11-42.5-.17-.65.18-1.85.18-55.78-.11-1.7.08-23.77.07-1.97V51.3l-.18-20 .23-7.09z"/>
    <path region="4" short-name="State Senate District 2" long-name="State Senate District 2" value="1" d="m405.67.68.82.25 6.84-.1L428.32.7 440.2.65l13.9-.02 14.5-.14h21.17l16.27-.04 4.6-.01L515.1.3l20.38-.2 21.64-.06L577.09 0l.08 45.97.06 41.22-.01 12-.06 29.57-.05 3.5v22.37l-1.74.02-1.04.28-1.72 1.41-1 1.81-1.27 1.8-1.11 2.77-.58.9-1.36-1.42-1.77 1.2-1.76.42.58 1.89-1.91 1.48.12.66-1.18.8-1.9 1.46-.97-.01-1.3 1.2-1.95.16-2.73 1.47-2.64 2.2-1.47 1.77-1.44.1-1.25-.38-1.9.65-.36-.6 1.97-2.62.87-.86 1.35-1.92.72-1.49-.47-.89 1.05-.89.57-1-.96-1.35.15-1.21 1.45-1.84-.09-.53-1.78-.6-1.4.6-1.27.18-.8-.61.47-1.08-.11-1.29-3.43.67-.97-.11.18-.84 1.78-1.31-.18-.77-.98-.9.08-2.45-.65-.93 1.02-.62-.47-2.66 1.12-1.26 1.33-.7.3-.79-.36-1.2-1.99-.62.03-.3-1.77-.92-.98-.78-.34-.7-.05-3.52-1.6-.76-1.63-1.4-.45-.68-1.24-.33-.04-1.6-.75-.87-1.28.41-.98-.8-.2-.6-.87-.11-2.1.24-.1-.75-2.51-1.78-1.85.14-1.14.82-.16 1.45-.82.1-2.1-.29-1.65.17-.53-.9-1.42-.3-.15-.96-2-.27-.12-.86-.61-.54-1.86-.69-.12-1.28.46-1.9-1.01-.32-.48-.73-.88.02-1.4-.84-.13-.59-1.12-.46.24-.85-.67-1.02.05-1 .58-1.04.92-.98-.75-1.04.42-1.38-.13-1.9.46-1.15 1.67-.39-.1-1.29 1.4-.91.47-1.98.45-.5.1-2.3-.51-.72 1.71-1.14.38-1.2 1.27-1.28.03-1.16 1.14-.95.87.06.21-.77-.48-2 .4-.86 1.36-.83.29-2 .33-.9-.15-2.03.43-.37.11-1.46-.36-.87.3-.56-.07-3.39.18-.3-.5-1.6 1.08-1.16.79.33 1.08-1.03-.9-2.41 1.2-1.2.07-.87 1.02-1.01-.08-1.07-.7-.79-.05-.74-.95.12-.4-2.07-1.48.36-.52.73-.9.14-.4.69.23.93-1.96.71-.76.54-2.45.47-1.01.45-1.12-.24-2.3.95-1.17-.02-2.43.74-.6.64h-1.6l-1.87-.63-1.68-2.15-1.38-.14-.3.94-1.15.6-.87-.8-3.41-.65-1.75-.77-.67.17-1.4-.29-.72-.72-1.95.44-2.33-.38-.94.65-1.36.3-1-.17-1.14.98-1.72 1.12-.71 1.24-1.45-.9-1.02-.35-.16-.8-1.03-1-1.09.34-1.5-.7-1.9.74-1.54-.32-.7-.4-2.08-.45-2.48-.9-.52-.65-.26-1.41-2.7-.08-.9-.44-.48-1.66-1.9.02-.05-1.33h-2.2l-.7.22-.04 2.26-1.44-.26-3.14 4.18-.8-.01-.48-1.28-1.03-.2-2.23-.04-.64-1.72-1.63-.13-.94.5-.33 1.05-3.71.06-.4-1.1-6.54 2.74-1.08-1.28-.88-2.7-.88-.2-1.3-.84-1.05-2.7.24-1.26 1.16-.91-.41-1.68.07-1.81.43-2.3.77-1.01.52-1.3.38-2.04-.28-1.5 1.06-1.22v-.77l.98-.75.83-.12.78-1.99.14-.9-1.48-2.06-1.42-.49-.47-.64-.07-1.13.28-1.1-.88-.64-1.75-3.74-.06-1.81-.94-2.53-.91-1.14-.83.11.04-1.47-.66-1.4-.83-.93-.39-1.01-1.48-2.5-2.33-1.37-.7-.2-.54-1.12-.95-.66-1.1-1.8-.33-1.23-.04-1.41-2.2-4.85-1.88-1.3-.46-2.99-.6-1.28-1.25-.93z"/>
    <path region="5" short-name="State Senate District 24" long-name="State Senate District 24" value="1" d="m488.84 317.27.56 1.85-.32.85.95.57.42-.74-.12-1 .6-.94 1.35-.12 1.16.26 2.06-.73 2.08 2.99 1-.41.22 1.51.8 1.24.4 1.66.7.86.03 1.4.37.43 2.57-.1 1.43-1.2.3-.66.77-.16 1.4 1.18.91.43 2.08-.94 2.1-1.54.81.48.33-.96-.07-.97 1.4-.36 1.21.34.88.77-.42 1.06.02 1.87 1.73-.36 1.85.67.08 1.64.28.58 1.16.06 1.26-.5.4-1.26 1.8-.86.2-1.22.95.34 1.13 2.02.57.41.71 1.35 1.48 1 .33 1.6.72.86.35.97.81.1.62.86.1 1.57 1.33 2.04v3.23l-20.03.06.94.88.16.67 1.04.97-.48.36-.17 1-1.22 1.95-3.33 2.7-1.23.15-.78.45-1.9.06-.55.8-1.31.11-.83.65-2.04 2.1-1.4 1.92h-.84v2.9l-1.27-.02-.2.74-2.93-.01v.75h-2.93l.01.77-4.36.05.07 6.8-.36.29-1.34-1.28-2.73-4.62-.01-.82-5.39-.02-1-1.27 2.14-.85.85-1.63-2.08-3.13-3.48-10.38h1.35l-.15-1.49.1-1.45 5.85.01v-3.68l-.32-.76.73-.6.08-1.33-1.68-.53-1.46-1.1-1.23-1.8-3.66-7.67.2-1.07-.73-1.36-1.21-.26-.53-.98.47-.4 1.85-.73 4.79-1 2.1-1 1.68.9.46-.11 1.17.62 1.5-.1.77-.8z"/>
    <path region="6" short-name="State Senate District 25" long-name="State Senate District 25" value="1" d="m440.98 379.04 1.07-2.45 1.74-2.58.41-.9 1.09-1.1.96-1.36.74-.36.58-1.36.99-.42 1-1.9 1.03-3.02.14-1.22.98-3.15.8-1.28.14-2.5-.23-.74-5.1-10.09-.94-.97-.59-1.7-1.9-1.29.11-.8 1.17-1.62.3-.93 1.13-.98 1.74-.17 3.28-.08 3.97.92 2.37.86 2.16 1.25.6.7 1.02-.21 1.5.7.59-.49.38-1.15 1 1.33.05 3.04.03 9.27 2.1.04.89 1.76.88.95 2.56 2 .07.74-.8 1.88-.13.82 1.47 1.01 1.53.15 5.41.01 5.39.02v.82l2.74 4.62 1.34 1.28 1.15 1.63.3 1.06-1.49.19.35 1.01-.3 1.75-1.22.1v1.04l-1.48-.01v3.63l-.28.85 4.56-.04.65.11-1.22 2.14-.22 1.28 3.24 6.04.51 1.13.1 1.21 1.97 2.81.37 1.05.97 1.1 1.44 1.05 1.21.25.6.8-.1.96.54.73 1.56.82 2.82 1.12 1.36 1.34-.8.81-1.68.35-.4 1 .09.77-.75 1.03-.16 2.18-1.23-.16-.39 2.04-.39.65.25.96-.8.22-2.65-.38-1.56-.1-1.62.63.16-.86-.33-.89-1.48-.24-.6-.65-1.52-.11-.55.62-.4 1.87-1-.1-.6.97-.8-.05-2.22-1.05-1.54-1.05-.56.04-.05-2-1.84-.2-1.92.02v-.73h-2.46l-.05-2.89h-.44l-1.05-1.17-.86-1.72-.95.08.32 2.12-.11.73-1.36.01-.7.32-1.77-.03.24-.98-1.67-.17-1.12-.44v2.83l-.2 2.7-.78 2.38-.52.77h-.73v-1l-3.23.02.29-2.75.3-.33-.03-1.53-1.69-.2.64-1.38-2.2-1.5-.37-1.45-1.09.02-.03-1.5-2.86.1-.01-1.47h-1.45l.02-2.97-4.4.08-1.66-.08-.86-1.53-3.43-3.38-.36-.09-.79-1.4-.2-1.2.22-.85 1.48-.9.16-.65-2.27-1.6-1.45-1.5-.31-.78.22-1.41 1.24-2.1z"/>
    <path region="7" short-name="State Senate District 28" long-name="State Senate District 28" value="1" d="m114.75 427.63 18.85.04 34.44.08 69.77.04v.12l34.44-.03 34.97.14v.1h29.91l.15 3.27.46 2.3 1.53 14.78.52 2.32.29 2.23-.8 2.63-.18 2.1-.63 1.78-.37.45-.32 1.43.81 10.63.73 12.25-.45 4.8-.76 2.77-.57 1.55-1.64 1.48-3.2 4.21-2.5 4.93-.1 3.18 3.29.12 7.7 2.6 2.05.65 19.08 5.14 1.22.88-9.16 11.17-1.65 1.78.4.71h.73l-.08 7.97.05.95 4.16 10.49 2.5 5.38 1.57 2.57 5.05 10.42.02 9.67-8.63-.18-.1.27-2.38.02.62 5.4.82 2.12-1.3 2.58-1 .32-1.1 1.41-.32.95-.14 2.56.23.48-.92 2.44.16.83-.35 1.24-.46.37.02 1.19-.8 1.45-.16.83-.88 2.01-1.31.77-.77 1.78.2.71 2.92 2.37.08 1.64.37.26-1.09 1.4-.66-.88-1.24.13-.9.73-1.3.01-2.6.65-1.02.88-.42.93-.36 2.26.54 1.02-.36 1.4 1.5-.22.75.2 2.34.02-.92 1.22-1.4.46-1.9 2.26-.33 1.51.14 1.15 1.16 2.93 1.45.43 2.17.92-.58.97.13 3.81-.29 1.5.01 1.26-.66.02-.19 3.35-.61.25-.12 2.93 1.56.04-.05 7.44-1.91 2.53-4.77 5.55-.9 1.4-.84 1.8-.77 4.2.23 1.45-.14 1.11 1.76 2.4.32.97-.18.71-2.95 5.43.07 1.86-.21.94.07 3.7.19 1.68.58 2.77.07 1.92 13.58-.02-.47 1.01.47 2.22-.28.37-.07 1.65.28.89v2.18l-.31 1.14-.72.69.48 1.1.12 1.35.51 1.48-.54.26.45 1.15.9 1.07-.33.73-1.04.75.18.76.67.3.54 1.6 1.35.47.02.45 1.18 2.25.83.45 1.35.26.99.8.4.76 1.78 1.12.87 1.02.22 1.96 1.1 2.6 1.24.79 1.67-.94.71-.87.64-1.64.66.04 1.43.9.7 2.3-.8.52.01 1.12.89 1.61 1.03 1.16 1.7.15.66.55.72 1.54 1.28 1.46.07.99 1.7 1.55 1.25.32.78 1.34.45 1.6-.82 1.33-.12 2.09.42.59-1.48 1.33-.13 1.04.34 1.73-.55 1.8-1.82 1.87-.66 1.37-.2.99-1.01.71-.94 1.15.13 1.27 1.28 1.19.02.68 1.26 1.52.88.36-1.14 1.98-1.9.9-1.02-.02-.9.74-.82.17-.43 1.3-1.82 1.37-.46.81-1.8 1.43.29 1.99-.57.76-1.15.4.23 1.83-1.86 1.09h-2.81l-2.53.5.03 28.87-.05 4.35h1.84l-.2 17.05-18.52.01v1.6h1.55l-.01 15.15-9.9-.42-4.33.23-2.84-.01.03 17.22.52-.02-.16 11.1.24 5.44.25.1-.02 17.15-15.58.04h-17.93l.04 8.44-20.98.05v4.91l-16.8.04v-1.31h-10.92l-.6-.19-2.34 10.89.22 2.45-1.87 5.35-.37 1.45-1.76 2.77-1.33 2.94-.75 1.2-3.4 6.39-.3 2.05-.39 1.46-.89 1.52.4 1.24 1.07.84.31 2.07 1.35.77.41 2.63.36.88-.06 2.99 1.43 1.87-.03 2.64-.9 2.37-.87 1.46-.2.92-7.5.09-1.69.62-.82.03-5.18 1.52-1.2.72-.57-.25-.76.77-.68 1.36-.84.74-.43.8-1.37 1.65v1.62h-.68l-.7 1.4v.85l-1.12.5-1.94-.3-1.2.37-2.9.02.02 3.03-2.75.04-.26 1.4-3.3.03v-1.4l-.7-.34h-1.07l.43-1.2 1.09-1.22.91-.37-.02-2.38-1.29-.2-2.2.05.31-1.58-.02-1.87.36-.78-.39-.41v-1.86l.38-.14-.16-3.3h1.39v-2.8l.42-1.23-.27-.87-1.03-.73-.04-1.93-.22-.99.3-1.22 1.78-.01 11.67.22.46-1.45-.25-.25-.09-1.64.21-.46.02-1.91-.38-.96.26-.8.34-2.83.43-1.14.76-.56 1.14-.12.53-1.28-1.4-2.67-1.3-.36-1.13-1.28-1.4.28-1.26-.12-.74-1.25-.4-1.36.05-1.44-.58-1.04.5-1.47-.25-2.32.36-.83-.41-.54.45-.77.82-.53 1.28.3.53-.32.25-3-1.58-3.1 1.16-1.06-.75-1.34.26-.32-2.4-1.27-.22-1.86-.44-1.98.33-1 .05-2.47-.8-2.5v-1.17l-1.33-.39-.4-.59.2-.68-.34-1.88 2.08-.68.73-.6.5.16.24-1.64 1.44-.81.56-1.46-2.95.01v-4.76l-.07-12.58-17.46.01v2.65l-9.4-.05-62.2.02.1-27.5.29-3.81.22-8.64-.19-2.68-.04-5.64.05-5.63-.12-23.17.08-29.1-.04-19.87.11-2.9-.1-27.47-.06-18.77.1-8.63-.05-5.74.06-30.84.1-4.1-.05-24.72.05-25.87.18-89.57.03-17.37.06-36.42.01-6.94-.07-6.97.08-5.39z"/>
    <path region="8" short-name="State Senate District 3" long-name="State Senate District 3" value="1" d="m432.28 133.44 1.3-.72 1.21-1.07 1.07-.38-1.85-2.54.22-1.6.98-2.05-.04-2.94-.58-.9-.14-1.18 1.33-1.05.84-1.79.76 1.1 1.98 1.66.37.96 1.02-.08.67.7 1.43.07 2.15-1.33 1.68.17.24-.97.92-.73 1.99.9-1 1.06-.02.88.55.5.07 1.06 1.02 1.29.87-.2.25.67 2.86.86.53.67 1.5-.11.17-.5 1.31.01.98.8 2.53-.9.69.2.54 1.4 1.9 1.54.58.12 1.01 1.32.92.25 1.16-.35 1.04.15 1.64-1.02 1.52-.31-.14-1.79.74-1.15 1.5-1.63.87-1.3-.22-1.58-1.64-.89-.66-1.34.78-.24.95.28.57-.44.6.88 1.24.82 1.11-.69 1.53-1.4 1.93-.28.33 1.02 1.1 1.84.64.68.08.75 1.33.28.56-1.68 1.4-.77.68.13 1.26-.98 1.21.66 1.7-.43 1.66.55.78.02 1.34-2.14.54.78 1.1.4 1.56-.14.45 2.08 1 .91 1.65-.4.42-.7 1.54-.28.6-1.16 1.04-.3.66 1.02-.23.85 1.12.46.13.6 1.4.83.88-.02.48.73 1 .32-.45 1.9.12 1.28 1.86.7.61.53.13.86 2 .27.14.97 1.42.29.53.9 1.66-.16 2.09.28.82-.1.16-1.45 1.14-.82 1.85-.14 2.5 1.78.12.75 2.09-.24.87.1.2.61.98.8 1.28-.41.74.87.04 1.6 1.25.33.45.68 1.62 1.4 1.61.76.05 3.52.34.7.98.78 1.77.92-.03.3 1.99.61.36 1.21-.3.8-1.33.7-1.12 1.25.47 2.66-1.03.62.66.93-.08 2.45.98.9.18.77-1.78 1.3-.18.85.97.11 3.43-.67.1 1.3-.46 1.07.8.61 1.26-.19 1.4-.6 1.79.61.1.53-1.46 1.84-.15 1.21.96 1.35-.57 1-1.05.9.47.88-.72 1.5-1.35 1.9-.87.87-1.97 2.61.36.61 1.9-.65 1.25.38 1.44-.1 1.47-1.77 2.64-2.2 2.73-1.47 1.96-.17 1.29-1.2.98.02 1.89-1.46-.03 1.05h3.82v8.95h-1.62l.28 35.4v3.65l3.15.02v2.98l-17.72-.03-.06 6.07-14.75.14-.17 23.64h-2.9v3.07h.32v2.84l-4.28.04-.87-.3-.7.3v3.05l-9.44-.27-1.2-.4-.83-1.3-.06-1.28-.71-.45-1.93-.08.26.56-.37 1.91-1.13.9-5.65 3.45-1.05.3-2.46-.76-1.7-1.06-1.07-.27-.68.95h-1.15l-.01-1.12-1.21-.5-1.25-1.22-.72.5-1.06-.2-.27 1.2.13 1.03-.26 1.27.8 2.16-.27.65h-.78l-.9-.88-1.3-1.33.2-1.74-1.42-.43.15-1.56-.47-.47 1.12-1.3-.94-1.48.34-.92-.63-.57-.76.05-1.09-.63v-.88l-.62-.62-1.19-.45.59-1.13-.16-.63.51-.78-.88-1.28.35-1.09.84-.27-.22-1.39.53-.72-.5-1.87-.52-1.14h-.94l-.77-1.31-1.2.12-.25-.45.33-1.79.54-.85-.54-1.04-1.56-1.04-1.42-.2-1.94-1.12-.82.1-.92 1.78-.79.18-1.3-.84-.59.22-2.2-1.32-.22-.83-.98-1.18-1.87-.23-1.46-.7.49-.55.52-1.42-.35-.76-.96.23-.36-1.1-.9-.95.36-.52-1.04-2.53-1.67-.57.18-2.95-1.85-2.42-.36-1.46-.75-.2-.55-1.43 1.77-.45.87.07 1.1-.4.97.77 1.48-.4-1.18-1.98-.4-1.22-1.18-2.22-.9-.74-.82-1.15-.3-1.37-1.24-1.2 1.16-.23 1.05-.88-.06-.46 2.26-2.07 1.71-.03 1.23.45.62-.19 1.8.22 2.33.73 1.25-1.01.47-.03 1.79-2.59.9.63 2.06.73 1.74-.76-.74-1.86-1.3-.75.91-1.3-1.5-.97-1.86-1.65.69-.5v-1.2l1.16-.01.4-.73 1.44-1.4-.88-.7.03-1.95-.61-1.04 1.6-1.05-.47-.88-.03-1.4-1.89-3.26-.07-1.52 2.09-.78.05-.98-1.13-.24-1.17.31-.26-.9 1.08-2.08-1.4-1.14.59-.68.3-1.46-1.8-.94-.5.01-.76-1.08-2.4-2-1.3-.5-.07-1.78-1.34-.48-1.08 1.32-1.97-2-.68.29-1.42-.25-.3-2.28.82-.54.38-.79.83-.46.34-.7-.33-.8.09-.96-1.03-.67-3.48.12-1.18-1.1-1.52-.32-3.25 1.42-4.76.03-2 1.13-.9.91-1.51.67-1.9.57-1.82.23-.67 2.22-3.75-.06.03-1.29-1.3.4-2.8-.05-.68-.36-2.66 1.05-.84.7-.16-.3-.73-4.25.96-.11.2-8.15.21-1.04 1.17.02-2.26-4.65.52-.1-.94-1.67.85-.57.88.24.68-1.35.85.28.7-.99 2.25-.8.74-.56v-.71l-.76-.33-.02-1.14-1.53-.05z"/>
    <path region="9" short-name="State Senate District 27" long-name="State Senate District 27" value="1" d="m196.3 982.47 3.29-.04.26-1.4 2.75-.03-.02-3.03 2.9-.02 1.2-.38 1.94.3 1.12-.49v-.85l.7-1.4h.69v-1.62l1.36-1.64.43-.8.84-.75.68-1.36.76-.77.57.25 1.2-.72 5.18-1.52.82-.03 1.7-.62 7.49-.1.2-.92.87-1.46.9-2.36.03-2.64-1.43-1.87.06-2.99-.36-.88-.41-2.63-1.35-.77-.3-2.07-1.07-.84-.4-1.24.88-1.52.4-1.46.28-2.05 3.4-6.4.76-1.2 1.33-2.93 1.76-2.77.37-1.45 1.87-5.35-.22-2.46 2.34-10.88.6.19h10.92v1.3l16.8-.03v-4.9l20.98-.06-.04-8.44h17.93l15.58-.04.02-17.14-.25-.1-.24-5.45.16-11.1-.52.02-.03-17.22h2.84l4.34-.22 9.89.42V828.4h-1.55l.01-1.6 18.52-.02.2-17.05h-1.84l.05-4.35-.03-28.87 2.53-.5h2.8l1.87-1.09-.23-1.82 1.15-.4.57-.77-.28-1.99 1.79-1.43.46-.81 1.82-1.36.43-1.3.83-.18.89-.74 1.02.02 1.9-.9 1.14-1.98-.88-.36-1.26-1.52-.02-.68-1.28-1.2-.13-1.26.94-1.15 1.01-.71.2-1 .66-1.36 1.82-1.86.55-1.8-.34-1.74.13-1.04 1.48-1.33-.42-.6.12-2.08.82-1.34-.45-1.6-.78-1.33-1.25-.32-1.7-1.55-.08-.99-1.27-1.46-.72-1.54-.66-.55-1.7-.15-1.03-1.16-.89-1.61v-1.12l.78-.51-.7-2.32-1.42-.9-.66-.03-.64 1.64-.7.87-1.68.94-1.24-.8-1.1-2.59-.22-1.96-.87-1.02-1.79-1.12-.4-.76-.98-.8-1.35-.26-.83-.45-1.18-2.25-.02-.45-1.35-.47-.54-1.6-.67-.3-.19-.76 1.05-.75.32-.73-.89-1.07-.45-1.15.54-.26-.5-1.48-.13-1.36-.48-1.1.72-.68.31-1.14v-2.18l-.28-.89.07-1.65.28-.37-.47-2.22.47-1.01-13.58.02-.07-1.92-.58-2.77-.2-1.67-.06-3.71.21-.94-.07-1.86 2.95-5.43.18-.71-.32-.97-1.76-2.4.14-1.1-.23-1.45.77-4.2.85-1.82.89-1.39 4.77-5.55 1.9-2.53.06-7.44-1.56-.04.12-2.93.61-.25.2-3.35.65-.02-.01-1.25.29-1.5-.13-3.82.58-.97-2.17-.92-1.45-.43-1.16-2.93-.14-1.15.32-1.51 1.92-2.26 1.4-.46.9-1.22-2.33-.02-.75-.2-1.5.21.36-1.4-.54-1.01.36-2.26.42-.93 1.02-.88 2.6-.65h1.3l.9-.74 1.24-.13.66.88 1.09-1.4-.37-.26-.08-1.64-2.93-2.37-.2-.71.78-1.78 1.31-.77.88-2.01.16-.83.8-1.45-.02-1.2.46-.36.35-1.24-.16-.83.92-2.44-.23-.48.14-2.56.32-.95 1.1-1.4 1-.33 1.3-2.58-.82-2.12-.62-5.4 2.38-.02.1-.27 8.63.18-.02-9.67-5.05-10.42-1.58-2.57-2.49-5.38-4.16-10.5-.05-.94.08-7.97h-.72l-.4-.71 1.64-1.78 9.16-11.17-1.22-.88-19.08-5.14-2.06-.65-7.7-2.6-3.27-.12.1-3.18 2.5-4.93 3.19-4.21 1.64-1.48.56-1.55.77-2.77.45-4.8-.73-12.25-.8-10.63.31-1.43.37-.45.63-1.78.18-2.1.8-2.63-.3-2.23-.52-2.32-1.52-14.78-.46-2.3-.15-3.27 22.56-.04 17.8-.12-.16-1.28.9-1.62.03-1.8.24-.55-.66-2.63.78-.4.37-1.43.75 1.23.65.44 2.06-.58.49.39.18 1.1.53.67 1.44-.69 1.83-.26.4.42 1.23.05.47-.55.99-.2 1.01-1.58.82-.03.48-1.08 1.46-.88-.07-1.18.35-.92 1.07-1.36.39-.83.08-1.35 2.14-1.21 2.15-1.8 1.51-.5 1.1-1.14.44-1.56-.18-1.44.61-1.23.32-1.36-.94-1.9.07-.45-.91-1.72.52-1.48 1.24-.25-.59-1.9.7-1.58 2.08-.72.12-1.78 2.21.95.82.66.83-.17.14.81 2.5 1.29 2.72-1.12 2.93-.03 3.62.18 1-.32 1.5-2.8 2.17-2.86 1.15-.55-.38-1.8.2-.73 1.42-1.34.52-1.23.88-.25 1.62.7 2.37-.96 1.29-.09.54-1.02 4.94.68-.5 1.3-1.25 2.1-.22 1.4.31.79 1.45 1.5 2.27 1.6-.16.64-1.48.92-.22.83.2 1.2.78 1.41.36.1 3.44 3.37.86 1.53 1.66.08 4.4-.08-.02 2.98 1.45-.01v1.46l2.87-.1.03 1.51 1.09-.02.37 1.45 2.2 1.5-.64 1.38 1.7.2.02 1.53-.3.33-.3 2.76 3.23-.02v.99h.74l-.72.98.04 1.24-1.15.34.73 1.13.3 1.56.77 1.51 1.06 1.1.58 1.2.86.72.41.9-.37.84.36 1.57-.06 1.73.4.53-.67 2-.83 1.08.57 1.59 2.97 2.36.6 2.01-.53.56-1.36.26-.57 1.87.21 1.52-1.07 1.1-1.28 2.2-.37 1.2 1.81-.3 12.08-.04 8.47-.14 7.13.07 7.2-.02v.18l34.13-.07v-.14h9.14v21.79l-.06 13.08.13 17.53h-.1v16.81h-8.2v15.57l.03 18.86h.16v16.57l-.01 18.57h.06v19.84h.18l-.09 45.28.05 7.38-.1 1.39v14.3h-1.22v17.1h.24l-.04 16.88h8.65l.17.17.02 5.9 8.47.07-.04 2.8 2.84-.03.02 5.7h-2.83l-.02 5.7h2.84l-.02 2.82h2.82l.03 8.53 2.84.02v2.84h2.9v7.69l-.65-.12-2.3.96.18 17.29 2.77.03-.02 7.91h.8l-.03 5.36 1.43.15.02 1.35 1.41-.01.05 4.2-1.45.02.01 1.4-1.44.02-.01 2.83-1.35-.02-.02 2.84h1.4v5.72l7.6.03-.1 1.75-1.94 1.44-.03.71-.6.63.73 2.87.64 1.88.68 2.88 2.9 9.88 2.12 3.96 1 2.62.91 1.6.54 1.6 1.2 2.26.93.99 1.86 1.37 2 2.11.3 1.2.82 1.92.22.93-.38 1.54.31 1.92 1.54 4.96 3.3 7.19 1.7 4.28 3.28 10.24 1.8 3 2.72 3.7.78.8 1.15.6.5 1.1.36 5.7.98 5.15 1.52 2.72h-1.23l-101.79.09v.1l-42.25-.03-8.01.01v.76h-32.4l-17.55-.02-2.78-.19-.02 2.93h-2.8l.01 13.98h-3.01v2.9h-2.8v.7l-2.75-.02-.04.7h-1.42v2.82l-2.87-.07.06.77h-3.32v2.14h-8.39v.15h-8.07l-1.78 1.37-1.94-.62h-1l-.57 1.84-.6.75.26 1.15-.35 2.58.23.62-.02 1.94-.58 1.83-.36 2.83-.75.42-1.01 1.11-.97 1.6-1.12 1.34-.47 1.06-1.18.69-.31.75-1.12 1.2-.7.32-.09.67-1.08.34-.06.49-1.13.48-.05.84-1.37.07-.89 1.42-1.1.38-.3 2.01.05 1.35.64 1.23-.54 1.8.87 1.92-.06 1.8.53 1.7-.76 1.12.79 2.5-.26.8.09 1.24-.3.28.1 1.38-.45.58.43 1.43-.32 1.95.2.57-.86 2.41.24.8-.41 1.44-.58.33.4 1.83.53.64 1.03 3.94-.1 2.9.29.97h-1.88l1.4 1.4v1.53l-2.76-.14v.7l.69.69-.01 1.39-.7.68-1.36-.01v1.44l-1.63.02v2.09h1.52l-.01.64h-6.75l-33.86.06-21.1.04h-17.48l-30 .01H213l-22.2.01 1.7-.83.94-.2h1.78l1.8-.66-.63-1.01.3-.7-1-.43-.06-.8V984l.7-.13z"/>
    <path region="10" short-name="State Senate District 15" long-name="State Senate District 15" value="1" d="m441.1 281.78 1.23.11 4.84-.05 1.25-.47 3.08.06 2.9-.16 2.37-.72 2.22.01.77-.89.07-2.86.29-1.6.79-.64h2.2v-.74h1.47l.05-3-.06-5.2h-.7l2.05-.63 1.5-.1 14.64.06 2.6-.32 6.22-.03.9.89.98 1.15.2.75-1 1.44-.4 1.49-.1 2.56-.32 1.12 1.2 1.38.44 1.65 2.21 1.3.33.55.1 1.8 1.2.87.23 1.24 1.52.75-.22 1.1.85.7-1.14 3.45.13.6-.6 1.16-1.32.59-.56-.23-2.2.61-.53.65-.65-.17-.1-1.33-1.45-.43-.2-2.27-.79-.83-.57-.02-1.19.9-.62-.3-.59 1h-1.13v.94l-2.46.5-1.35.86-.56.67-2.42.85-2.3.37-.25.49-1.14.08-2.65-.42-2.82.33-1.93-.23-2.22.1-2.6-1.08-.6-.84-1.27-.13.31-1.61-.36-1.64-.49-.92-1.26-.38-.63.16-2.56-.9.04-1.07-1.84-.56-.75.24-1.3-.66.02.8.73.92v9.5l-1.57-.97-1.36-.5v-.68l-2 .02-.6.7-2.98-.01-1.14-.48-.9-1.4-3.47-.28-.16-1.48 2.46-.01z"/>
    <path region="11" short-name="State Senate District 11" long-name="State Senate District 11" value="1" d="M115.26 269.3h5.44l-.01-8.84h1.47v-2.7l2.81.65 2.78.42 3.68.22 122.34 3.07 2.1-.32 21.4-7.77 2.2-1.54 6.77-7.02 1.15-.95 3.43-1.95 1.07-.31 1.57.43 17.1 12.35 1.62.6 17.4 2.3 2.4.27.75.27 1.9 1.96 7.16 6.2 1.63 2.42-.01 2.4h2.94l.02 1.48h-.9l.03 2.96-.51 1.47h-.74l-.01 1.48.7.74 2.37-.02-.75.7.06 5.96 4.76-.09.54.73.11 6.64 5.68-.08.03 1.48 1 .06 14.84-.27v-2.25l-.42-1.97-.04-1.7-7.73.14-.12-1.3 1.77-.1 3.53-1.28 8.31-5.57.02.59 2.93.01.01 1.48 3.2-.04.8-3.8-.2-2.19.7-.24 1.3.25 1.9-1.43.77-.9 1.07-1.92.22-.76-.1-1.94-.55-2.47-.05-.95.42-.58 4.35-3.22.55.18 2.9-.86 1.1-.18 3.11-.19 1.04.07 1.6 1.13 1.48.55 1 .07 1.99.64 2.2-.45h3.41v7.36l10.33-.02.02 6.47-.83-.57.1 2.94h.73l.01 2.96-4.36.02-1.59 11.47.2 2.37-.14.85-.98 2.6 1.45.35.07.93 1.66.25-.71 1.03v.74h1.84v.92l-1.1.55v.55l-2.57.57v2.5l-.37.08v1.45l1.52-.76 3.63.06 1.49.7 1.2 1.19.83.17 1 .93-.02 4.43h-4.18l-.9.33-.37 1.16-.01 1.32.43.7-.01.92.43 2.13 2.83 2.86.27.9-.04 1.53.86 1.38 4.75-.02v-.74l4.42.04-.73.75v1.44l-3.04.65-.1 2.45.71.42-1.9 2.87-.76 2.9 1.47.22 2.14 1.96-.5.74v9.64h2.86v2.91h4.33l-.29 2.9 9.58.25-.97 3.15-.15 1.22-1.03 3.01-1 1.91-.99.42-.58 1.36-.74.36-.96 1.36-1.08 1.1-.42.9-1.74 2.59-1.07 2.44-4.95-.68-.54 1.02-1.29.09-2.37.96-1.62-.7-.88.25-.52 1.23-1.41 1.34-.21.73.38 1.8-1.15.55-2.16 2.85-1.5 2.8-1 .33-3.63-.18-2.93.03-2.72 1.12-2.5-1.29-.14-.8-.83.16-.82-.66-2.2-.95-.13 1.78-2.08.72-.7 1.58.59 1.9-1.24.25-.52 1.48.91 1.72-.07.46.95 1.89-.33 1.36-.6 1.23.17 1.44-.45 1.56-1.09 1.15-1.51.5-2.15 1.79-2.14 1.21-.08 1.35-.39.83-1.07 1.35-.35.93.07 1.18-1.46.88-.47 1.08-.83.03-1.01 1.58-1 .2-.46.55-1.24-.05-.39-.42-1.83.26-1.44.69-.53-.67-.18-1.1-.49-.39-2.06.58-.65-.44-.75-1.23-.37 1.43-.78.4.66 2.63-.24.54-.04 1.81-.89 1.62.17 1.28-17.8.12-22.56.04h-29.92v-.1l-34.97-.14-34.44.03v-.12l-69.77-.04-34.44-.08-18.85-.04.08-18.25-.04-6.68.07-13.65-.05-1.27.09-25.76V328.4l.05-5.36.09-1.1-.05-13.01.04-2.46z"/>
    <path region="12" short-name="State Senate District 21" long-name="State Senate District 21" value="1" d="m451.22 318.75 2.11-.04.03.74h1.45l1.47-.86 1.46.1v1.48l-.34.47.24.94 5.66.03.22-2.53.9-.97.02-3.08.7-.92.9.06.59.63 2.15.42.04 1.2 1.38-.07.88-.58 2.16.35.88-1.33.86-.87 2.52-.6v-.77l-.6-1.87.18-3.46 1.72-1.97-.1-2.95 1.53-1.22.28-.77 1.45-.86.35-1.72.85-.43.92.14.73-1.78 1.15-1.59 2.75.52 1.47-.14.78.3.6-1.19-.07-1.02.64-.53.65.17.46 1.02 1.12.82 1.3 2.78 1.12 1.38-.5.8-.23 1.21.36.66.09 1.57-.32 1.4-.54.63-.02 2.71-.57.58.71 1.49-.04 1.24-.6.99-2.53 2.9-1.78.08-.48.75-1.6 1.64.1.44-1 .42-.77.81-1.5.1-1.17-.62-.46.1-1.69-.9-2.1 1.02-4.78.99-1.85.73-.47.4.53.98 1.2.26.75 1.36-.2 1.07 3.65 7.67 1.23 1.8 1.46 1.1 1.68.53-.08 1.33-.73.6.32.76v3.68l-5.85-.01-.37-.82-1.1-.03-.02-2.9 1.4.07-1-1.84-6.65-.03-.84-1-2.64-.8.18 2.53.57.73-.68.84-1.64.45-.38 1.16-.59.48-1.5-.7-1.02.22-.6-.7-2.16-1.25-2.36-.87.2-2.53.38-1.78.77-.06-.22-.98-.58-.55-.86-1.8-1.52-1.13-1.9-1.67.02-2.6-.41-.01-.34-2.2-.73.02.73-1.83z"/>
    <path region="13" short-name="State Senate District 26" long-name="State Senate District 26" value="1" d="m465.31 413.67.52-.77.77-2.38.2-2.7V405l1.13.45 1.67.16-.24.98 1.76.03.71-.31 1.36-.02.11-.73-.32-2.12.95-.08.86 1.72 1.05 1.18h.44l.05 2.89 2.45-.01.01.73 1.92-.02 1.84.2.05 2 .56-.04 1.54 1.05 2.21 1.05.82.06.59-.97 1 .1.4-1.87.55-.63 1.52.1.6.66 1.48.24.32.89-.15.86 1.61-.63 1.57.1 2.64.39.8-.23-.24-.96.4-.65.38-2.04 1.23.16.16-2.17.75-1.04-.1-.77.41-1 1.69-.35.79-.8-1.36-1.35-2.82-1.12-1.56-.82-.55-.73.1-.96-.59-.8-1.21-.25-1.45-1.05-.96-1.1-.37-1.04-1.98-2.82-.09-1.2-.5-1.13-3.25-6.05.22-1.28 1.22-2.13-.65-.12-4.56.04.28-.85v-3.63l1.48.01v-1.04l1.22-.1.3-1.75-.35-1.01 1.48-.19-.3-1.06-1.14-1.63.36-.29-.07-6.8 4.36-.05v-.77h2.92v-.75l2.94.01.19-.74 1.27.02v-2.9h.85l1.39-1.92 2.04-2.1.83-.65 1.3-.1.56-.8 1.9-.07.78-.45 1.23-.16 3.32-2.7 1.22-1.94.18-1 .48-.36-1.04-.97-.16-.67-.94-.88 20.04-.06v-3.23l-1.35-2.04-.1-1.57-.6-.86-.82-.1-.35-.96-.72-.88-.33-1.6-1.48-1-.71-1.34-.57-.41-1.13-2.02-.94-.34-.21 1.22-1.8.86-.4 1.26-1.26.5-1.16-.06-.28-.58-.09-1.64-1.84-.67-1.74.36v-1.87l.41-1.06-.88-.77-1.21-.34-1.4.36.07.97-.33.96-.8-.48-2.1 1.54-1.37-.86-.34-.8-.14-1.92-.41-1.18.55-.88 1.77-.7-.06-1.34.3-.64-.03-4.08 1.23-1.58h.67l.6-.61.83.6-.37 1.02 1.55-.02-.41.93 1.83-.08.72-.84h2.66l.27-.74 1.48.92 1.02.89 1.16-.17-.7-1.19h7.33l.01-2.97h5.09l1.2-.48 1.17.02 1.18-.4 1.82.29.3-.47 4.16.47.12.7 1.14 1.24.63-.24.84.41.39 1.23.53.38.73 1.7-.04.66.94 1.08.95 2.48 1.4 1.54.17 1.68 1.13 1.2 2.32.96.17 1.07-1.04 1.78-3.4-.43-.64-.52-2.04-.24.02 2.87-.34 1.28-.04 1.65-.45.77.5 1.95-.06 1.31-.42 1.87.21.77-.06 2.43-.36 1 .2 2.43.42 2.47.6 2.05.45 3.13-.07 1.23.81 1.02.53 1.7.53.78 3.33 3.71.56.4-1.12 1.72-.38 1.31.7 2.34-.36 2.22.61 2.07-.1.85-1.13.4-.62 1.6.9 1.1-1 1.3.44.66-1.73 2.37-.97-.31-2.2.8.41 3.33.41 1.66-.6.98-.74 2.69-.7.5-.38 1.89-.66.6-.13 1.19.67 1.09-.4 1.15.72 1.07-1.79 2.22.2 2.22.83.74.4 1.02 1.84.6.44-.88 1.4-.55 1.45-1.03.73 1.42.34 1.55 1.04.74.24 1.22.47.67 1.43.79.88 1.12.57 1.53-.2 1.4.54 1.21.84-.39 1.25 1.4 1.4-.39.25.56 1.19 1.12-.2.5.93 1.16 1.5.44.18 1.24-.31.95-1.4 1.14-.29.86 1.95.77 5.45.06v8.67l18.97.08 15.77-.01-.02 17.35 11.97.1 40.35.23v.98h27.18l42.92.09 13.34.01h14.43l-1.62.88.47.82 1.89.8.67 1.5-.62.64-.81-.2-.92-.72-1.23-.24-1.83.76-1.54-.2-.03-1.31-.37-1.35-.61.02-.65.74.94 2.16.45 2.14-.6 1.18-.45 1.61-.14 1.6-.86 1-1.32-.69-.77 2.2-.98 1.12v.83l.88 1.43-.57.77-1.24-.83-.27-.51.18-1.99-.3-1-.76-.46-2.68.31-.96.37-.3 1.7 1.16.82.63.76.64 1.73 1.05.93-.29.75-.8.4-1.98-.08-.58.38.2.94-.21.92-1.71 1.36.4.82.73-.3h1.56l.47.7-.42 1.1.5 2.06-.58.93-.01 1.02-.48.34-.73 1.4-1.37-.28-.82.16-.2 1.85.96.65 1.24 1.48-.78.48-1.39-.08-.26 1.74-.74.69-.1.79-.7.39-.92 1.25-.07.85.45.82.84.46.38.7-.52 1.13-1.38.6-.66.86-.44 1.38.15 1.3 1.23 1.04.17 1.32-.22 1.46-.58.85-1.69.24-.63.48.81.66.5.97.9.36 1.05-.14.26.55-.04 1.83.37 1.03.14 1.46.6.42.58 1.25-.39 1.48-.97.89-.07 2h10.88v1.49l53.26-.1 77.18.04.4-1.45 1.27-.37v-1.53l.97-1.23.34-1.46.71.6.95.03.55-1.68.63.38 1.83-.82.9.42.1 26.14-.12 47.87-.14 25.03-.27 24.76-.5 15.74-.33 14.93-.1 23.79.04 19.57-.02 44.14.84 6 1.98 15.73-.16 32.38-.05 4.9.32 13.09-.12 6.72.06 14.19-.1 9.77.07 1.9-.01 5.65-.08 8.8.07 12.04-.01 14.27-.2 5.98-.4 24.25-.04 24.22.07.13.01 7.45-.08 1.74v4.75l.13 12.61v21.81l-20.96-.03h-13.7l-17.33.02-17.38.01-20.08.15H783.1l-25.57-.03-19.26.1-3.25-.12-17.35.03-21.82.03-29.93.05-3.2-1.07-1.5-.13-15.23.15-4.03-.05-19.26.1-48.67.16-10.35.3-18.67-.05-3.61.12-19.6-.2-15.62.01-19.76.01-35.5.03-75.85.04-1.74-.02-17.77.06-12.6.02.02-.65h-1.52v-2.08l1.62-.02v-1.44l1.37.01.7-.68v-1.4l-.68-.67v-.71l2.76.14v-1.54l-1.4-1.39h1.88l-.3-.98.1-2.9-1.02-3.93-.53-.64-.4-1.83.58-.33.41-1.45-.24-.79.86-2.4-.2-.58.32-1.95-.43-1.43.44-.58-.09-1.38.3-.28-.09-1.23.26-.8-.79-2.51.76-1.12-.53-1.7.06-1.8-.87-1.92.54-1.8-.64-1.23-.05-1.35.3-2.01 1.1-.38.89-1.42 1.37-.07.05-.84 1.13-.48.06-.5 1.08-.33.1-.67.7-.33 1.11-1.19.31-.75 1.18-.69.47-1.06 1.12-1.33.97-1.61 1-1.1.76-.43.36-2.83.58-1.83.02-1.94-.23-.62.35-2.58-.25-1.15.59-.75.57-1.85 1 .01 1.94.62 1.78-1.38h8.07v-.13l8.4-.01v-2.14h3.31l-.06-.77 2.87.07v-2.81h1.42l.04-.7 2.75.01v-.7h2.8v-2.9h3.01l-.02-13.99h2.81l.02-2.92 2.78.19 17.55.02h32.4v-.76h8.01l42.25.02v-.1l101.79-.1H608l-1.52-2.7-.98-5.16-.37-5.7-.49-1.1-1.15-.6-.78-.8-2.72-3.7-1.8-3-3.29-10.24-1.69-4.28-3.3-7.19-1.54-4.96-.31-1.92.38-1.54-.22-.93-.83-1.93-.29-1.19-2-2.1-1.86-1.38-.94-1-1.19-2.25-.54-1.6-.91-1.6-1-2.62-2.13-3.96-2.89-9.88-.68-2.88-.64-1.88-.74-2.87.61-.63.03-.7 1.94-1.45.1-1.75-7.6-.03v-5.72h-1.4l.02-2.84 1.35.02.01-2.83 1.44-.02v-1.4l1.44-.01-.05-4.21-1.41.01-.02-1.35-1.43-.15.02-5.35h-.79l.02-7.92-2.77-.03-.18-17.3 2.3-.95.64.12v-7.7h-2.89v-2.83l-2.84-.02-.03-8.53h-2.82l.02-2.83h-2.84l.02-5.69h2.83l-.02-5.7-2.84.03.04-2.8-8.47-.07-.02-5.9-.17-.16h-8.65l.04-16.88h-.23v-17.1h1.2l.02-14.31.1-1.39-.06-7.38.1-45.28h-.2l.01-19.84h-.06l.02-18.57-.01-16.58h-.16l-.03-18.85V515.5l8.2.01v-16.8h.1l-.13-17.54.07-13.08v-21.78H537v.13l-34.14.07.01-.18-7.2.02-7.13-.07-8.47.14-12.08.04-1.8.3.36-1.2 1.28-2.2 1.07-1.1-.2-1.52.56-1.87 1.36-.26.53-.56-.6-2-2.97-2.37-.57-1.6.83-1.08.67-1.99-.4-.53.06-1.73-.36-1.57.37-.85-.4-.9-.87-.7-.58-1.22-1.06-1.09-.77-1.5-.3-1.57-.73-1.13 1.15-.34-.04-1.24z"/>
    <path region="14" short-name="State Senate District 29" long-name="State Senate District 29" value="1" d="m113.92 882.45 62.2-.02 9.4.05.01-2.65h17.46l.07 12.57v4.76H206l-.56 1.45-1.44.81-.24 1.64-.5-.16-.74.6-2.07.68.34 1.88-.2.68.4.6 1.34.38v1.18l.8 2.49-.06 2.46-.33 1 .44 2 .22 1.85 2.4 1.27-.26.32.75 1.34-1.16 1.06 1.58 3.1-.25 3-.53.33-1.29-.31-.81.53-.45.77.4.54-.35.83.25 2.32-.5 1.47.58 1.04-.05 1.44.4 1.36.74 1.25 1.27.12 1.39-.28 1.13 1.28 1.3.36 1.4 2.67-.53 1.28-1.14.12-.76.56-.43 1.14-.34 2.83-.26.8.38.96-.02 1.9-.2.47.08 1.64.25.24-.46 1.46-11.67-.22h-1.77l-.31 1.23.22 1 .04 1.92 1.03.73.26.87-.41 1.23v2.8h-1.4l.17 3.3-.38.14v1.85l.39.42-.36.78.02 1.87-.3 1.58 2.2-.06 1.28.21.02 2.38-.91.37-1.1 1.22-.42 1.2h1.08l.69.33v1.41l.02 1.4-.7.14v10.94l.06.81 1 .44-.29.69.64 1.01-1.81.66h-1.78l-.94.2-1.7.83H179.9l-44.95.02h-7.69l-13.05-.08-.18-17-.16-3 .14-5.86-.04-2.47.07-4.89.05-11.9-.1-9.67.04-1.78-.02-15.06.02-9.18-.1-2.6-.04-11.75-.04-19.59z"/>
    <path region="15" short-name="State Senate District 16" long-name="State Senate District 16" value="1" d="M426.4 279.7h7.38l-.25-1.47.22-1.48-.01-2.94 5.88-.02v2.94l1.43.04.05 3.06.42.7-.42 1.25v8.23l-2.45.01.16 1.48-7.2-.03-.02-1.48h-5.1l-.08-7.33z"/>
    <path region="16" short-name="State Senate District 9" long-name="State Senate District 9" value="1" d="m444.03 251.8.08-.45h2.22l.21.42 1.37.4h1.62v-.69h1.38v-.91l2.57.89 1.54.05.96-1.13 2.66-1.8.16-1.3 2.25-.12v-2.8l1.95-.92v-.57l1.45-.14 5.73-.92-.04-5.8-1.62-.1.55-1.19 1.36-.3 2.2 1.32.58-.22 1.31.84.79-.18.92-1.77.83-.11 1.94 1.11 1.41.21 1.56 1.04.54 1.04-.54.85-.32 1.8.25.44 1.2-.12.76 1.32.94-.01.52 1.14.5 1.87-.53.72.22 1.39-.84.27-.35 1.09.88 1.28-.51.78.16.63-.59 1.13 1.19.45.63.62-.01.88 1.09.63.76-.05.63.57-.34.92.94 1.48-1.12 1.3.47.47-.15 1.56 1.43.43-.2 1.74 1.3 1.33-6.21.03-2.61.32-14.64-.05-1.5.1-2.06.62-1.66.02.18-.92-1.05.19-1.47-.73-1.97-3.8-5.18.02h-5.29v1.64l-5.06-.11-.48.3-2.28.06v-5.7l.73-.56 1.47-.26v-.45l1.7-.24-.01-.82.51-1.6z"/>
    <path region="17" short-name="State Senate District 12" long-name="State Senate District 12" value="1" d="M426.38 270.86h1.47v-1.74l1.46-1.1 4.42-.11v.75h2.94v.72h1.47V268l.77-.1h.7v2.94l2.74-.85 1.35.83.16 1.04.52.47-.24 2.25-1.13.4-.64.6-.38 1.17h-.94l-1.42-.03v-2.94l-5.9.02.02 2.94-.22 1.48.25 1.47h-8.11l-.1-2.94.83.57z"/>
    <path region="18" short-name="State Senate District 13" long-name="State Senate District 13" value="1" d="m439.6 262.3 2.28-.05.48-.31 5.06.1v-1.63h5.3l.06 4.23-.19.4 1 3.63.48 1.17h-1.39l-.05 5.67-1.27-1.22-1.64-.32-.08-1.54h-2.23v3.72l-.24 5.69-4.84.05-1.23-.1.42-1.26-.42-.7-.05-3.06.94-.01.38-1.16.64-.61 1.13-.4.24-2.25-.52-.47-.16-1.04-1.35-.83-2.73.85v-2.94h-.71l-.3-1.04 1-.45z"/>
    <path region="19" short-name="State Senate District 17" long-name="State Senate District 17" value="1" d="m426.41 282.66.07 7.32 5.1.01.04 1.48 7.2.02 3.46.3.9 1.39 1.02 1.1.18 1.58 1.47.01.54 2.96h-3.34l.02 1.2-1.95.08v-.48l-1.47.24v.46l-9.45-.01.14 2.75-1.85.31-1.2 1.21-1.06.34-1.88.01-1.6.35v-.55l1.1-.55v-.92H422v-.74l.71-1.03-1.66-.26-.08-.92-1.44-.35.98-2.6.14-.85-.2-2.37 1.6-11.47z"/>
    <path region="20" short-name="State Senate District 18" long-name="State Senate District 18" value="1" d="m422.75 305.29 1.6-.35h1.88l1.07-.34 1.2-1.22 1.84-.3-.14-2.76 9.45.01v-.46l1.47-.24v.48l1.95-.08-.02-1.2H448.42v8.84l-1.42.14-.2 1.95-1.42 1.9-1.58 2.94-.34.93.1 1.9-.9 1.89-.16 1.92-1.1 1.2 1.24 5.74-1.48-.02-.14 1.6-.86.01v.91l-2.95.63v-1.44l.73-.75-4.41-.04v.74l-4.76.03-.86-1.39.04-1.53-.27-.9-2.83-2.86-.43-2.12v-.94l-.42-.68.01-1.33.36-1.16.91-.33h4.18l.02-4.43-1-.93-.83-.17-1.2-1.2-1.49-.69-3.63-.06-1.51.76-.01-1.45.37-.08v-2.5z"/>
    <path region="21" short-name="State Senate District 23" long-name="State Senate District 23" value="1" d="m477 341.45-.1 1.45.15 1.49h-1.35l3.48 10.38 2.07 3.13-.84 1.63-2.15.85 1.01 1.27h-5.4l-1.54-.16-1.47-1.01.13-.82.8-1.88-.07-.74-2.56-2-.88-.95-.88-1.76-2.11-.04-.03-9.27-.05-3.03-1-1.34 1.64-.45.67-.84-.56-.73-.18-2.53 2.64.8.84 1 6.64.03 1.02 1.84-1.41-.06.02 2.9 1.1.01z"/>
    <path region="22" short-name="State Senate District 4" long-name="State Senate District 4" value="1" d="m354.15 190.4 19.2-26 4.5-6.1 15.65-21.09 16.17-.06 16.1.07.84-1.35.46-.23 1.84.08.8-1.16 1.2-.11.49-.67.88-.34-.01.94 1.53.05.02 1.14.75.33.01.71-.74.57-2.25.8-.7.98-.85-.28-.68 1.35-.88-.24-.85.57.94 1.67-.52.1 2.26 4.65-1.17-.02-.22 1.04-.19 8.15-.96.11.73 4.25.16.3 1 .83 1.33 2.31.12.98-3.92 4.83-1 .52v4.82h-1.78l.23 1.13.1 4.46-13.37.03-.02 3.94-1.96 1.03-1.28-2.36-1.33-.43-1.64-1.5-.43.12-2.45-2.47-.78-2.13.73-.31-.76-1.59-40.85 13.44z"/>
    <path region="23" short-name="State Senate District 6" long-name="State Senate District 6" value="1" d="m424.73 180.5.56 1.48h-1.16l2.05 2.92 8.11.04-.05 5.74-.44.31 2.27 3.06.18 1.3.65 1.43 1.36 1.9.06 1.07 1.27 3.68-.7 3.77-1.54.34-.68.64-2.37.76-.43-1.3-1.3-.28-.97.5-1.06.09-.9 1.13-.62-.01-.08 13.15-21.6 15.27-17.24 15.68-35.95-62.77 6.45-2.14 40.85-13.44.76 1.59-.73.31.78 2.13 2.45 2.47.43-.11 1.64 1.5 1.33.42 1.28 2.36 1.96-1.03.02-3.94z"/>
    <path region="24" short-name="State Senate District 7" long-name="State Senate District 7" value="1" d="m434.3 184.94 2.9.08.05-1.63-.36-1.1 2.6.08v1.85l1.5.01.52-1.34.96-.32h1.48l.44-1.95-.44-2.02 1.13-.36.9.14 1.19-.4 3.2-.1 4-.42 2 .39 1.51-.2 4.63.5.63.2 2.82 2 .57 1.87.58.88 1.22.44.6.54 2.38 4.38 3.34 4.08 1.87 1.65 1.5.97-.92 1.3 1.3.75.74 1.86-1.74.75-2.05-.72-.91-.63-1.79 2.6-.47.02-1.25 1.01-2.33-.73-1.8-.22-.62.2-1.23-.46-1.71.03-2.26 2.07.06.46-1.05.88-1.16.24 1.24 1.2.3 1.36.82 1.15.9.74 1.19 2.22.4 1.22 1.17 1.97-1.48.4-.96-.75-1.11.38-.87-.06-1.77.45.55 1.43.75.2.36 1.46 1.85 2.42-1.15 1.86-2.83 1.18h-.77l-.1 1-2.23.57h-2.32l.02-1.49-1.54.02-.7-.5h-1.7l-.7.84-1.74-.02v-.55l-2.22.3-1.07 1.43h-2.13l-.8.4-1.34-.25-.33-.4-1.95-.83v-1.86h-7.39l-.24.16.08-13.15h.62l.9-1.12 1.06-.1.97-.49 1.3.29.43 1.29 2.37-.76.68-.64 1.53-.34.71-3.77-1.27-3.68-.06-1.08-1.36-1.89-.65-1.42-.18-1.32-2.27-3.05.44-.3z"/>
    <path region="25" short-name="State Senate District 8" long-name="State Senate District 8" value="1" d="m436.57 223.92 1.95.84.33.39 1.34.25.8-.4h2.13l1.07-1.42 2.22-.31v.55l1.73.02.7-.83h1.71l.7.49 1.54-.02-.02 1.5h2.32l2.24-.58.1-1h.76l2.83-1.18 1.15-1.86-.18 2.95 1.67.57 1.04 2.53-.37.52.91.95.36 1.1.96-.23.35.76-.52 1.42-.49.55 1.46.7 1.87.23.98 1.18.22.83-1.36.3-.55 1.18 1.62.11.04 5.8-5.73.92-1.46.14v.57l-1.95.91.01 2.8-2.26.14-.15 1.28-2.66 1.8-.96 1.14-1.54-.05-2.57-.9v.93h-1.38v.68h-1.62l-1.37-.4-.21-.42h-2.22l-.08.44-.05-1.32-3.54-.08-.9-.87.57-.82-.23-1.38.46-1.5-.74-.61.18-2.77h-1.24l-.13-.42.59-1.35-.6-1.52-.7-.82-.4-1.15-1.85-1.43.46-3.13-1.26-1.35.55-.7-.19-1.4.4-.96.68-.35.49-1.39z"/>
    <path region="26" short-name="State Senate District 14" long-name="State Senate District 14" value="1" d="M452.71 260.4h5.18l1.97 3.79 1.47.73 1.05-.2-.18.93 1.66-.02h.7l.07 5.2-.05 3h-1.46l-.01.74h-2.2l-.8.63-.28 1.6-.07 2.87-.77.9-2.22-.02-2.37.72-2.9.16-3.08-.06-1.25.47.24-5.7v-3.7h2.23l.08 1.53 1.64.32 1.27 1.21.05-5.65h1.39l-.48-1.18-1-3.63.19-.4z"/>
    <path region="27" short-name="State Senate District 22" long-name="State Senate District 22" value="1" d="m437.21 331.3 2.94-.62v-.9l.87-.02.14-1.6 1.48.02-1.24-5.73 1.1-1.21.16-1.92.9-1.9-.1-1.89.34-.93 1.58-2.95 1.42-1.9.2-1.95 1.41-.13 3.96-.03-.1 1.02-2.05 1.06.58 1.27.43-.14.52 1.26.88.45.08.65-.75.98-1.23 3 .49 1.56-.08 1.12-.73 1.83.73-.03.34 2.2.41.02-.01 2.6 1.9 1.67 1.51 1.13.86 1.8.58.55.22.98-.77.06-.38 1.78-.2 2.53-3.98-.92-3.28.08-1.74.17-1.13.98-.3.93-1.17 1.62-.1.8 1.89 1.28.59 1.7.93.98 5.1 10.09.24.74-.14 2.5-.8 1.28-9.58-.24.29-2.91h-4.33v-2.9h-2.86v-9.65l.5-.74-2.14-1.96-1.47-.21.76-2.91 1.9-2.87-.72-.42.11-2.45z"/>
    <path region="28" short-name="State Senate District 10" long-name="State Senate District 10" value="1" d="m390.1 253.17 17.25-15.68 21.6-15.27.23-.17h7.38l.01 1.87v2.55l-.48 1.4-.68.34-.4.97.19 1.4-.55.69 1.26 1.35-.46 3.14 1.85 1.42.4 1.15.7.82.6 1.52-.59 1.35.13.42h1.24l-.18 2.77.74.61-.46 1.5.23 1.38-.57.82.9.87 3.54.08.05 1.32-.03.88-.51 1.6v.82l-1.7.24v.45l-1.46.26-.73.56v9.82l-1 .46.3 1.03-.76.1v1.36h-1.47v-.71h-2.94v-.75l-4.41.11-1.47 1.1v1.75h-11.81l.01-7.34h-3.42l-2.2.44-1.97-.64-1-.06-1.5-.56-1.6-1.13-1.03-.07-3.11.19-1.1.18-2.9.87-.55-.19-.52-.48z"/>
  </g>
</svg>