<svg auto-border-stroke-width="1" auto-border-stroke-width-limit=".5" original-source="['https://www2.census.gov/geo/tiger/GENZ2022/shp/cb_2022_us_sldl_500k.zip']" candidates="[{&quot;id&quot;:&quot;0&quot;, &quot;name&quot;:&quot;Democrats&quot;, &quot;margins&quot;: [{ &quot;color&quot;: &quot;#1C408C&quot; }, { &quot;color&quot;: &quot;#577CCC&quot; }, { &quot;color&quot;: &quot;#8AAFFF&quot; }, { &quot;color&quot;: &quot;#949BB3&quot; }]},{&quot;id&quot;:&quot;1&quot;, &quot;name&quot;:&quot;Republicans&quot;, &quot;margins&quot;: [{ &quot;color&quot;: &quot;#BF1D29&quot; }, { &quot;color&quot;: &quot;#FF5865&quot; }, { &quot;color&quot;: &quot;#FF8B98&quot; }, { &quot;color&quot;: &quot;#CF8980&quot; }]}]" version="1.1" xmlns="http://www.w3.org/2000/svg" viewBox="0 0 772.31 1000">
  <g regions="y" transform="translate(-113.85)">
    <path region="0" short-name="State House District 65" long-name="State House District 65" value="1" d="m457.3 413.05-.02-.73 1.46-.01-.05-4.4 1.53-.03.64-1.38-2.2-1.5-.37-1.45-1.09.02-.05-2.69-.57-.45-.16-2.09.1-1.78.25-1.32-.21-.58 1.17-.22.96-.61.1-.58.99-1.8 1.09.19 2.02-.02-.02-2.56h1.86l10.5-.08-.07 2.6 5.41.02 1.28.45.37 2.2-.96 2.3-2.27 1.93-.39 1.71-.94-.01v1.68l1.5 1.4h1.49l.7.76.05 3.61.66 1.45 1.02-.03.08 2.95 1.54 1.05 2.21 1.05.82.05.59-.96 1 .1-.57.23-.52 1.13.43 1.02-.94 1.47-.99.2-.42 1.45-.67.5-.32 1.3 1.05 1.1.39.9.24 1.62-.42 1.55-.55.75-1.1.29-1.16.71-.55 1.56-.57.3-.71-.59-1.91-.37-.72.27-1.35-1.2-.76.08-.55-.53-.58.36-2.37-2.3-.35 1.2-.54.33-.73 1.68-.94-.29-1.03-1.34-1.05-1.03-1.24-.45.36 1.57-.06 1.73.4.53-.66 2-.85-.55-1.16-1.27-1.41-.19-.8-.94.13-.71-.75-.36-.14-1.03.25-1.4-.4-.94-.8-.93-1.74-.83-.55-.79-1.76-.92-.55-.88-.5.14-.64 1.7-1.63.05-.17-7.33 2.92-.15z"/>
    <path region="1" short-name="State House District 48" long-name="State House District 48" value="1" d="M420.45 294.43h4.62l.22 2.2.28.8.89-.6.98 1.3 1.08.6 1.04-.79 2.25.84.8.07v1.48l4.1.01v4.5h-1.47v1.39h-8.81v-1.35l-1.32.06v-4.63l-5.8.01 1.21-2.95.14-.85z"/>
    <path region="2" short-name="State House District 13" long-name="State House District 13" value="1" d="m424.41 174.9.23 1.13.06 2.97h.75v1.5h.96l2.16 2.94H415.8l.05 1.48h-2.28l-.73-.01.02-7.39h4.43l-.04-1.95.95-.68z"/>
    <path region="3" short-name="State House District 24" long-name="State House District 24" value="1" d="M445.66 254.89h5.56l.22.36 1.27.08v1.32h-.86l-.02 3.76h-.88v2.84l-1.29.21h-4.71l.01-1.4.04-3.75-.93-1.4-.58-1.82z"/>
    <path region="4" short-name="State House District 5" long-name="State House District 5" value="1" d="m426.82 46.14 1 1.71 1.83 2.8.7.32 5.45 1.73.7.13 4.73.16 4.12 1.33 2.16.66 1.24.01-.03 1.96 1.52.37-.21.78 1.35.02.4.55-.04.98 1.75.04 1.21-.58 1.3.31v-.64l.73-.8 2.75.05 1.49-.24.9.77-.06 2.9.1.9.02 4.55H461l-1.07 1.25.51 1.26 2.48.91 2.09.46.69.4 1.54.31 1.9-.74 1.5.7 1.09-.34 1.03 1 .16.8 1.02.35 1.45.9.71-1.24.99-.86.73-.26 1.14-.98 1 .17 1.36-.3.94-.65 2.33.38 1.95-.44.72.72 1.4.3.67-.18 1.75.77 3.4.64.88.82 1.15-.61.3-.94 1.38.14 1.69 2.15 1.85.62 1.61.01.6-.64 2.43-.74 1.18.02 2.29-.95 1.12.25 1.01-.46 2.45-.47.76-.54 1.96-.7-.22-.94.4-.69.89-.14.44-1.21.8.53.76-.4.4 2.06.95-.12.05.74.7.79.08 1.07-1.02 1.01-.06.88-1.21 1.19.9 2.41-1.08 1.03-.79-.33-1.09 1.17.51 1.59-.18.3.08 3.39-.3.56.35.87-.1 1.46-.44.37.15 2.04-.33.88-.3 2.02-1.35.82-.4.85.48 2-.2.78-.88-.06-1.14.95-.03 1.16-1.27 1.29-.38 1.19-1.71 1.14.51.71-.48.63.46.5-.08 1.17-.45.5-.59 1.63.12.36-1.4.91.1 1.3-1.67.38-.46 1.15.13 1.9-.42 1.38.75 1.04-.92.98-.58 1.03-.05 1.01-1.04.3-.6 1.16-1.54.29-.42.7-.95.46-.7-.07-1-.9-.45-2.09-1.55.15-1.11-.4-.54-.79-1.34 2.14-.78-.02-1.65-.55-1.7.43-.26-.5-.96-.16-1.26.98-.69-.13-1.39.77-.56 1.68-1.32-.28-.08-.75-.65-.68-1.1-1.84-.33-1.02-1.93.27-1.53 1.41-1.1.69-1.26-.82-.59-.88-.57.44-.95-.28-.78.24.66 1.34 1.64.9.22 1.57-.87 1.3-1.5 1.63-.74 1.15.14 1.79-1.52.3-1.64 1.03-1.04-.15-1.16.35-.92-.25-1-1.32-.6-.12-1.9-1.55-.53-1.38-.7-.22-2.52.9-.97-.79-1.32-.02-.16.5-1.5.12-.54-.67-2.86-.86-.25-.67-.87.2-1.01-1.29-.08-1.05-.55-.51.03-.88.99-1.06-2-.9.62-1.86v-1.14l-1.46-.14-1-.78-.57-.83.17-.87-1.22-.46-1.32-.91-.04-.68.57-1.25 1.04-.48 1.57.53.77-.18 1.97-1.13.18-1.5.63-.41-.37-.93-.71-.29-.61-1.02-1.43.02-1.67-.29-.75-2 .3-1.73-.73-.62-.26-1.23v-1.47l-.68-1.53-1.34.43-1.25-1.5-.3-1.33-1-.5-1.6.55-1.28 1.41h-1.63l-.67.82-.14.92-.62.22-1.02-2.08-.67-2.23-.59-.52.39-1.77-.75-1.2-.22-1.58-.92-2.65-.19-1.77.48-1 .12-1.35-.38-.38-.14-2.71.37-.44-1.1-1.03-.57-1.48.42-1.3-.83-2.97-1.08-1.28-.88-2.7-.89-.2-1.3-.84-1.05-2.7.24-1.26 1.16-.91-.41-1.68.07-1.81.43-2.3.77-1.01.52-1.3.38-2.04-.27-1.5 1.05-1.22v-.77z"/>
    <path region="5" short-name="State House District 38" long-name="State House District 38" value="1" d="M426.4 281.18h7.4l.01 4.43h-4.44l.03 4.37h-1.47l-.27 1.5.43 1.46-.18 1.5h-7.46l1.6-11.76 4.36-.02z"/>
    <path region="6" short-name="State House District 31" long-name="State House District 31" value="1" d="M435.2 267.9h4.41l-.01-3.58h2.3l.1 1.75-.2.92.46.98.1 2.03 1.34.83.16 1.04.52.47-.24 2.25-1.13.4-.64.6-.38 1.17-2.36-.03-.19-.61-1.29-.02-.01-2.3h-1.47v-2.95h-1.47z"/>
    <path region="7" short-name="State House District 72" long-name="State House District 72" value="1" d="m206.47 926.79.25-3-1.58-3.1 1.16-1.06-.75-1.34.26-.32-2.4-1.27-.22-1.86-.44-1.98.33-1 .05-2.47-.8-2.5v-1.17l-1.34-.39-.4-.59.22-.68-.35-1.88 2.07-.68.74-.6.5.16.24-1.64 1.44-.81.56-1.46h19.48l11.57.03-.02 9.1 5.63.04v.18h10.92v1.3l16.8-.03v-4.9l20.97-.06.01.7-.06 41.68h.34l-.01 19.28v35.08l-10.37.02h-17.48l-30 .01H213l-22.2.01 1.7-.83.94-.2h1.78l1.8-.66-.63-1.01.3-.7-1-.43-.06-.8V984l.23-.14 3.27-.02-.03-3 .53-.54-.57-.94-.03-2.06.81-1.61 1.52.05.6-1.66.9-1.62-.25-.82.25-.68.22-2.04 2.38-.9 4.32-2.26 1.52-.59 1.23-.83 1.42-2.1 2.12-4.1h.67l.03 3h.86l.2 2.2-.2.73h1.12l.68-.77.22-.87 2.38.11-.32-.98.53-.88 1.13-1.1 2.17-1.35-.04-2.8h.57l.32-.82V953l-.6-.62-.06-1.94h.54l.06-2.24h-.88V944l2.81-.01.02-2.81h1.4l-.01-8.88h1.74l-.03-5.64-.36-1.15-1.53-1.08-.33-.7-1.36-.29-1.17.47-1.4-.1-1.03-.78-.53-.04-1.18-1.3-.5-.1-5.58-.08-.85.79-.43 1.57-.69.28-1.4 2.24-.84-.84-.71.43-.96-.6-1.09.03-.64.45-.78-.18-.73.74z"/>
    <path region="8" short-name="State House District 9" long-name="State House District 9" value="1" d="m424.7 155.97 7.09.14 2.6.02.42 1.15 1.9.14.66.88-.03 1.86.42.01.19 1.72-4.84-.09-.5 1.98-1.5.33-.42 1.53h-.37l-1.81 2.27-.39.7-.93.95-1 .52-10.35.01.04-8.98 7.4.06.03-3.74h1.11z"/>
    <path region="9" short-name="State House District 54" long-name="State House District 54" value="1" d="m470.64 302.1.2-.76 1.46.54.96.83.64-.5.5-1.03 1.9-.24.42-.37 2.07.9 1.45-.4.27-.76 1.45-.86.35-1.72.85-.43.92.14.74-1.78.59-.5.55-1.09 2.75.52 1.47-.14.78.3.6-1.19-.07-1.02.64-.53.65.17.46 1.02 1.12.82 1.3 2.78 1.12 1.38-.5.8-.22 1.21.35.66.09 1.56-.32 1.4-.54.64-.02 2.71-.57.58.71 1.49-.04 1.24-.6.99-2.53 2.9-1.77.08-.49.75-1.6 1.64.1.44-1 .42-.77.81-1.5.1-1.17-.63-.46.12-1.69-.9-2.1 1-2.3.43-1.67.53-.81.04-1.85.73-.47.4-2.57.96h-.97v1.77l1.48.01v.73h-1.47v1.48h.74l.01 2.18h.74l.01 2.2-1.16.02-.76-1.67-1.02-.76-2.4-.39-3.16-.1-.93.24-2.74-.2-1.77.26-.07-3.93.9-1.2-.5-1.28.35-.47v-1.48l-1.47-.1-1.47.85h-1.45l-.02-.73h-2.21l-.4-1.51 1.02-2.2h-1.92v-1.46l-1.63.01 1.45-1.04 1.67 1.53 1.86-.57.78-.93.46.41.99-.05.47-1.59h1.08l.64-.77.9-.53 1.4-.05.7-.86 2.02-.86-.32-1.49.57-1.71.6-.21.46-.81 1.77-.8 1.12-1.34 2.87 1.37.6-.3z"/>
    <path region="10" short-name="State House District 66" long-name="State House District 66" value="1" d="m405.98 389.04 2.21.95.82.66.83-.17.14.81 2.5 1.29 2.72-1.12 2.93-.03 3.62.18 1.44-.35.43.67 1.3-.97 1.03.24.65.68 1.12-.21.38 1.16.47.27-.25 1.3.89.42.4-.62 1.48-.44.33 2.33-.46.04.01 1.63-1.5.1.57 1.37.16 1.32.2 4.03-.08.66 1.16.63 1.31.29.36 2.56.85 2.64.29 4.41 16.06 1.06.68-.28 1.19-1.22-.03-2.94h-.73l-.03-2.91 2.92-.04.03 2.91 2.1.07.82.63.01.64-2.92.15.17 7.33 1.63-.04.65-1.71.49-.14.55.88 1.76.92.55.79 1.74.83.8.93.4.94-.25 1.4.14 1.03.75.36-.13.71.8.94 1.4.19 1.17 1.27.85.54.66-1.99-.4-.53.06-1.73-.36-1.57 1.24.45 1.05 1.03 1.03 1.34.94.3.73-1.69.54-.33.35-1.2 2.37 2.3.58-.36.55.53.76-.08 1.35 1.2.72-.27 1.91.37.71.59.57-.3.55-1.56 1.16-.71 1.1-.3.56-.74.41-1.55-.24-1.62-.4-.9-1.04-1.1.32-1.3.67-.5.8.63 1.7.4 1.24.49.53.7 1.07-.33.6.39 1.28.14 1.76 1.56 1.43.4.65.46 3.05.36.06-1.93.71-2.59 1.31-1.22.4-1.1 1.45-1.53 1.3-.3 1.03-1.7.22-1.66.98-1.89 1.6-.55 2.45.28 2.55-.01 1.2-.32 1.08.15 3.28-.36 1.85.16 1.5.98 2.52.15 1.29.37 2.96 2.04 4.21 2.28.63.44 1.5-.04 1.24 1.6.66.56 1.48.6 2.4.05.97-.5 1.07.12 1.45-.59.9-.04 1.07.44 1.41.2 2.25 1.18.95.27 1.01.9.27.96-.15.87.68.63 1.98.16 4.64-.91.66-.34 1.71-.31 1.66.56 1.3-.11 1.67.24.6-.18 1.72.21 1.4.93-.01 5.7 18.97.09H601l5.24-.01-.02 17.35-34.1-.17v.38l-25.96-.16v21.78l-.06 13.08.13 17.53h-.1v16.81h-8.2v15.57l.03 18.86h.16v27.68l.05 7.46v16.97h-53.84l-23.67-.18-7.86-.03.02-1.45.52-.97h-25.3l-.3-53.47-5.77.01-2.9-.09.02-2.94-10.04.06h-7.96v-8.7h-.72l.05-23.3h-1.44v-2.9h-.72v-1.44h-.72v-2.89h2.89v-2.88h-1.45l-1.45-1.45v-1.25l-3.68.07-18.27-.01 3.8-7.53 4.2-10.54.26-.43 6.5-6 7.3-6 .84-.89.74-1.2 3.24-8.19.57-.76 2.31-1.75 1.27-1.67 1.19-4.34 1.11-7.43.03-12.95-1.18-3.65-5.62-3.8-2.07-.9-1.01-.22-3.47-.13-1.38-.64-1.47-1.85 1.05-.68-.07-1.18.35-.92 1.07-1.36.39-.83.08-1.35 2.14-1.21 2.15-1.8 1.51-.5 1.1-1.14.44-1.56-.18-1.44.61-1.23.32-1.36-.94-1.9.07-.45-.91-1.72.52-1.48 1.24-.25-.59-1.9.7-1.58 2.08-.72z"/>
    <path region="11" short-name="State House District 26" long-name="State House District 26" value="1" d="m414.15 252.78 12.19-.04.02 11.42 2.94.19-.49.4.5.93h.75l.72.75v1.48l-4.41.01.02 5.7-1.48-1.23-1.05-.47-3.38-1.04v-2.95h-2.96v-9.27l.27-.5-.04-1.37-.83-1.57-.89-.59-.82-1.27z"/>
    <path region="12" short-name="State House District 29" long-name="State House District 29" value="1" d="m115.51 206.13 151.49-.01h40.02l7.82-2.66 13.1-4.36 26.2-8.7 35.96 62.77 5.05 8.9.23.23.29.26-4.35 3.22-.42.58.05.95.55 2.47.1 1.94-.22.76-1.07 1.92-.77.9-1.9 1.43-1.3-.25-1.33.35-.8.93.33.51-.67.77-1.8.99.33 1.23 2.94.14-.6 2.92.15 4.83-1.48.22-4.4.07.03 2.2-2.94.04.05 2.93-1.9.02 1.71 1.17 1.8 2.62-.5.65-.97-.15-1.12 2.02-.04 1.06-.5.95.87.08.51.93.53-.44 1.18 1.14.76-.24-1.02 4.9 1.56-.03 2.24-3 4.33-.03.66 2.49.03 2.39 2.16 1.29.59.9 1.23.96.92 1.09 1.18 1 1.26.63 1.86 1.54 1.66-.26.2-1.39v2.1l.72 2.64.56.13 1.58 2.03-.5 1.24-.3 2.31.07 2.62-.34.49.38 1.13.73.6.87 1.44-.77.93-.04 1.62.91 1 .43 1.3.6.52.9 2.04-.67.74-1.72.56-.8.72.56.6-.9 2.13.45 1.24.89 1.22.28 1.27-.17 4.1-.59.93.11.9 1.29 1.29-.01 1.64.7.13-.05 3.45.46.92.95.43.28 1.26 1.1.46.68-.45.37.9.81.53-1.4 1.12.2.69-.48.88 1.82.7-.02.99-.72 1.68.11.63.92.14.12 1.5-.98-.11-1.13 1.74-.74.17-1.48 1.55.42 1.12.54.41-.68 1.1-.18 1.32-.42.78.62.74 1.3.8-.08.9.5.88.8.34.13.79.61.29-.96 1.88-.12 1.78-2.08.72-.7 1.58.59 1.9-1.24.25-.52 1.48.91 1.72-.07.46.94 1.88-.32 1.37-.6 1.23.17 1.44-.45 1.56-1.09 1.15-1.51.5-2.15 1.79-2.14 1.21-.08 1.35-.39.83-1.07 1.35-.35.93.07 1.18-1.05.68 1.47 1.85 1.38.64 3.47.13 1.01.21 2.07.92 5.62 3.8 1.18 3.63-.03 12.96-1.11 7.43-1.2 4.34-1.26 1.67-2.31 1.75-.57.76-3.24 8.2-.74 1.2-.84.87-7.3 6.01-6.5 6-.26.43-4.2 10.54-3.8 7.53h18.27l3.68-.06v1.25l1.45 1.45h1.44v2.88h-2.88v2.89h.72v1.45h.72V511h1.44l-.05 23.3h.73v8.7h7.95l10.04-.06-.01 2.94 2.9.1 5.76-.03.3 53.49v4.21l-.77.02.02 5.6-5.77.05v1.45l-1.43-.01.08 5.77h-10.6l-.02 4.73h-2.75l.21 3.05-.04 2.68-2.86.08-.02 2.77-.32 2.67-2.6-.16-.02 2.9-2.7-.06-2.83.06-.03 5.4H395v14.54h1.43v2.51l.16.45-.04 4.27-2.82.05-.01 1.43-.72.02-.01 1.43-2.14.05-.02 1.43h-2.75l.01.73-1.4-.04.01 2.9-1.4-.02v.72l-2.86-.02v1.4l-5.74.01-1.46-.1.02-1.4-1.46-.07-2.81.18-2.61.46-2.87-.08-4.27.02-.03 1.45h-2.82l-.03 2.9h-1.41l.02 2.87-1.42.01-.06 8.68-2.81.01-.02 5.76h-1.42l-.46-.29-13.58.02-22.96.01-56.15.02h-11.44l-132.37-.08.06-30.82.1-4.1-.05-24.72.05-25.87.18-89.57.03-17.37.06-36.42.01-6.94-.08-6.97.1-5.39v-17.06l.1-18.27-.05-6.68.07-13.65-.06-1.27.1-25.76V328.4l.05-5.36.09-1.1-.05-13.01.04-2.46.23-37.17.04-7.43-.05-6.58.1-2.65.12-34.7z"/>
    <path region="13" short-name="State House District 50" long-name="State House District 50" value="1" d="m397.34 316.9.15-.84 2.55-.6.84-1.27 2.68.3 1.15.96.8.25 1.01-1.48 1.54-.4 1.82 1.2 1.17 1.19.46.87 1 .72.21.65-.16 1.25.4.48 1.65-1.34 1.17-.46 1.87-.09.4.33 1.85.05 1.15-1.34 1.9-.74 1.36-1.61.77.38.08 1.04.52 1.52.72-.06.65.65-.65.44.5 1.26.8.77.51-.34.97.3-.34.75.41 1.02 1.06.47 1.03.02.02.74.96.4.68.83.49-.57.77-.03 1.1-.53 1 .3.35-.68 1.74-.58 1.28-1-.4 1.86h-.65v4.44l-1.49-.09v-.64l-1.88-.03-1.78.4v1.06l4.41.04-.73.75-.1 1.46-1.36 2.24.57.88.15 1.28 1.73 1.27-.08.8.54.36v1.27l-2.2-.01v2.23h.73v-1.49l1.47.01v1.47h2.86l.17.41v2.51h3.03v2.2h-1.52l-.76-.74.04 2.92.73.73h1.5v3.64h.86v.73h2.18v2.19h1l.02-.74.55-.73 3.1-.06.23.74-.3.88.24.64 5.9 1.43-.38 4.22-.48 3.64-.03 3.26-.86 4.15.44 1.44 1.14 1.86.76 2.61.96-.2 1.23.54-.24.9.8.92.2 1.11-1.1.43 1.06 1.3-.59.39.72.8.87 1.66 1.74 1.65h-1.86l.02 2.55-2.02.02-1.09-.19-.98 1.8-.11.58-.96.61-1.17.22.21.59-.26 1.3-.09 1.8.16 2.08.57.45.05 2.7 1.09-.03.37 1.45 2.2 1.5-.64 1.38-1.53.03.05 4.4-1.46.01.02.73-.82-.63-2.1-.07-.03-2.9-2.92.03.03 2.91h.73l.03 2.94-1.2 1.22-.67.28-16.06-1.06-.29-4.4-.85-2.64-.35-2.57-1.32-.3-1.16-.62.08-.66-.2-4.03-.16-1.32-.57-1.36 1.5-.11-.01-1.63.46-.04-.32-2.33-1.48.44-.41.62-.9-.42.26-1.3-.47-.27-.38-1.16-1.12.2-.65-.67-1.02-.23-1.31.96-.43-.67-1.43.35-3.63-.18-2.93.03-2.72 1.12-2.5-1.29-.14-.8-.83.16-.82-.66-2.2-.95.96-1.88-.62-.3-.13-.78-.8-.34-.5-.89.09-.9-1.31-.8-.62-.73.42-.78.18-1.31.68-1.1-.53-.42-.42-1.12 1.47-1.55.74-.16 1.13-1.75.98.1-.12-1.5-.92-.13-.1-.63.71-1.68.02-.98-1.82-.7.49-.9-.21-.68 1.4-1.12-.8-.54-.38-.9-.67.46-1.1-.46-.3-1.26-.94-.43-.46-.92.05-3.45-.7-.12v-1.65l-1.28-1.29-.1-.9.59-.93.17-4.1-.29-1.27-.9-1.22-.44-1.24.9-2.14-.56-.6.8-.71 1.72-.55.68-.75-.9-2.03-.61-.53-.42-1.3-.92-1 .04-1.62.77-.93-.87-1.43-.73-.6-.38-1.14.34-.5-.07-2.6.3-2.32.5-1.24-1.58-2.03-.56-.13-.71-2.65z"/>
    <path region="14" short-name="State House District 4" long-name="State House District 4" value="1" d="m452.38 177.77 2-.3 2 .38 2.32-.78 2.3-.15.73-1.13-.42-2.74-.84-1.63-1.02.13-.32-.4.65-2.02-.72-2.24-1.01-.78-.05-.5 1.13-2.87.96-.79.93-.27.98.27.6-.56 1.66.4.69-.3 1.97 2 1.08-1.3 1.34.47.07 1.78 1.3.5 2.4 2 .76 1.08 1.65.63 3.25.53 1.87-.5.93-.93 1.23.38.65-.73 1.04-.5 1.13-1.48 1.1.1 1.27-.3.34-1.2 1.7-.83.79-3.07-.37-.94 1.94-1.9 1.17-.46.73.53 1.92-.08 1.85-.27.84.46 2.68.28 1.05.75.59.83.53-.3 1.65.25.91-.4 1.37.83.05-.76.82-1.28-.48-.85 2.63-.86-.1-1.09 1-.2.1-.87 1.02-.49-.3-.9 1.27-1.1.01-1.11 2-.98-.2-.72.55-2.21.58-.5-.53-.7-.24-1.66-.67-.88-.15-1.05.72-.52.25-.8.84-.23.16-1.64-.2-1.37.55-.89.77.16.81-1.08.01-1.97.5-.69-.41-.7-1.66.16-.53-.9-1.42-.3-.15-.96-2-.27-.12-.86-.61-.54-1.86-.69-.12-1.28.46-1.9-1.01-.32-.48-.73-.88.02-1.4-.84-.13-.59-1.12-.46.24-.85-.67-1.02.05-1 .58-1.04.92-.98-.75-1.04.42-1.38-.13-1.9.46-1.15 1.67-.39-.1-1.29 1.4-.91-.12-.36.59-1.62.45-.5.08-1.17-.46-.51.48-.63-.51-.7 1.71-1.15.38-1.2 1.27-1.28.03-1.16 1.14-.95.87.06.21-.77-.48-2 .4-.86 1.36-.83.29-2 .33-.9-.15-2.03.43-.37.11-1.46-.36-.87.3-.56-.07-3.39.18-.3-.5-1.6 1.08-1.16.79.33 1.08-1.03-.9-2.41 1.2-1.2.07-.87 1.02-1.01-.08-1.07-.7-.79-.05-.74-.95.12-.4-2.07-.77.4-.79-.52-.14-.24.42-2.96-.43-.48 1-.87-.12-1.56.5-.6.06-2.3-.4-.88-1.39-.48-1.85-1.7.11-1.07-.73-.93.52-.65.12-1.62-.68-.9.3-2.35-.93-.07-.79-1.58.05-1.8.54-.88-.47-2.31-.94-.96-.31-.87.14-1.18-1.09-1.34-1.27-.92-.7-1.1-1.97-1.77-1.29-1.52-.88-.44.88-1.81-.69-.65.22-.68 1.85-1.5.15-1.8-.2-.7-1.5-.2.4-.7.03-1.4-.64-.89-1.15-.54.07-.73 1.22-1.05 1.9.66 1.53-.18.54-.43-.08-.78 1.07-2.28-.8-1.46.53-2.43-.68-1.44.3-.54-.58-1.14-.6-.39-.2-2.43-1.47-.84-.62-1.22-1.5-.5.02-2.4h4.6L515.1.3l20.38-.2 21.64-.06L577.09 0l.07 45.97.07 41.22-.01 12-.06 29.57-.05 3.5v41.95l-.02 32.31 28.04.14 2.82 6.59 1.77 6.03.98 1.67.29 1.58-.5 2 .2 1.5-.52 3.44.1 1.99-.99 1.35-.55 1.8-.83 1.92-.14 2.2-.7 1.57-1.75 1.43-1.17 1.69-.5 1.65-.73.85-.56 1.31-.54 2.44.5 3.56.05 1.3.47 1.31 1.03 2.11 1.36 3.4-.16 1.17-1.55-1.06-2.57.25-.39.72 1.44 1.44-1.64.66-1.09 1.36-.04 1.54-.29.88.66 2.13-.2 1.22.01-.82-1.43.04-2.08.38-1.36-.04-.8 1.03-.88.54-.67 2.29.46 1.06-.15 2.8-.57.8-.3 1.22-.76.79-.86 2.69.3 1.54-.48.91-1.5 1.45-.3.58-.91.38-1.73-.26-2.19-.04-1.39.79-.3 1.13-1.05 1.17-.96.32-1.88-.48-1.89-.72-3.62-2.57-1.45.47-.99-.3-1.8-.08-2.2.74-.77 1.72-.82.73-.25 1.2-.48.88-.17 1.97-1.56 1.78-.64.26-1.69-.55-.56-1.15-1.17-.43-1.27.02-1.15-1.3-.8-.51-.9-.07-1.43-.67-.42-.53-1.42-.08-1.46-.86-1.13.2-2.22-.86-.66-.65-1.29-.45-2.04-1.72-1.05-.32-.82-.7-.35-1.39-.58-.23-.94.56-.59-.91-1.24-1.25-1.06-.34-.7-.94-1.11.05-2.56-.48-1.3-1-1.2-.12-1.43-.52-.14-1.93-.75-.73-.06-1.07-.73-.36-.12-.98-.47-.52-.16-2.12.25-1.38-.7-1.25.09-1.3h-.88l-.7.91-1.28.97-1.73-.02-.64-.83-1.51.2.07.77-2.36-.28-1.72-.65-1.42-2.5-2.94-.01-.02-1.2-2.78.05-.18-.64-2.22-.03-1.75.38-.08.67-1.6 1.47-.28 1.05-.67.34-1.91-.35-.4-.26h-2.75v-1.88l-.93.07-.2-.74-.99-1.16.78-.01.27-.65-.8-2.16.26-1.27-.07-1.57-.43-1.5.11-.77-2.62-1.2-1.05-.02.33-.97-.63-.57-.76.05-1.09-.63v-.88l-.62-.62-1.19-.45.59-1.13-.16-.63.51-.78-.88-1.28.35-1.09.84-.27-.22-1.39.53-.72-.5-1.87-.52-1.14h-.94l-.36-.85-.4-.46-1.2.12-.25-.45.32-1.79.54-.85-.54-1.04-1.56-1.04-1.41-.2-1.94-1.12-.83.1-.92 1.78-.79.18-1.3-.84-.59.22-2.2-1.32-.22-.83-.98-1.18-1.87-.23-1.46-.7.49-.55.52-1.42-.35-.76-.96.23-.36-1.1-.9-.95.36-.52-1.04-2.53-1.66-.57.17-2.95-1.85-2.42-.36-1.46-.75-.2-.55-1.43 1.77-.45.87.07 1.1-.4.97.77 1.48-.4-.08-.45-1.1-1.53-.4-1.22-1.18-2.22-1.32-1.4-1.37-2.55-1.47-.3-.08-.88-.8-1.56-.47-.47-.9.1-.73-2.26.69-1.27-.6-1.47-.83-1.04.04-1.3-.36-1-.86-1.13.53-1.86-.55-1.37.17-1.11-.66-.99.52-1.01-.73-1.07.1-.5.29-.57-.33-.77 1-.73.78-1.3-.69-2.44z"/>
    <path region="15" short-name="State House District 68" long-name="State House District 68" value="1" d="m605.13 206.66 17.57.09 5.5.1h27l6.03.33 19.26-.04 19.26-.24 1.99.14 17.28-.23.62-.11 11.27-.1 6.47-.05 1.03.1 3.75-.12 18.52.06 16.47-.09 11.1-.07 17.15.04 4.65.01 5.28-.2 38.51-.38 2.9-.22 8.98.25 19.04.04.25 35.6-.1 22.69.14 12.39.03 6.98-.32 16-.1 8.19.07.98-.1 10.28v44.82l.01 33 .04 36.99-.06 43-.05 32.54-.91-.42-1.83.82-.63-.38-.55 1.68-.95-.04-.71-.59-.34 1.46-.98 1.23.01 1.53-1.27.37-.05 1.17-.35.28-77.18-.04-53.26.1v-1.5H734.7l.07-1.99.97-.9.39-1.47-.58-1.25-.6-.43-.14-1.45-.37-1.03.04-1.83-.26-.55-1.06.14-.89-.36-.5-.97-.8-.66.62-.48 1.7-.24.57-.85.22-1.46-.17-1.32-1.23-1.04-.15-1.3.44-1.38.66-.85 1.38-.61.52-1.14-.38-.7-.84-.45-.45-.82.07-.85.92-1.25.7-.4.1-.78.75-.69.25-1.74 1.39.08.78-.48-1.24-1.48-.97-.65.2-1.85.83-.16 1.37.29.74-1.41.47-.34v-1.02l.59-.93-.5-2.06.42-1.1-.47-.7h-1.56l-.73.3-.4-.82 1.7-1.36.21-.92-.19-.94.58-.38 1.97.08.82-.4.28-.75-1.05-.93-.64-1.73-.63-.76-1.17-.82-.03-.95.34-.75.96-.37 2.68-.3.77.44.29 1.01-.17 1.99.26.5 1.24.84.57-.77-.87-1.43v-.83l.97-1.11.77-2.2 1.32.67.86-1 .15-1.59.43-1.61.6-1.18-.44-2.14-.51-.79-.43-1.37.65-.74.61-.02.37 1.35.04 1.3 1.53.2 1.83-.75 1.23.24.92.72.8.2.64-.64-.68-1.5-1.9-.8-.46-.82 1.62-.88h-14.43l.01-59.28v-17.8l.02-30.74-4.48-.09.74.63-1.42 1.2-1.91 1.14-.84-.74-.28 1.48h1.46l.26 1.46-.26.73v1.52l.38.66h-4.72l-.01-6.06h-10.07l-1.6-.09-1.98.16-5.87-.41-10.6-.02-4.73-.13-2.26.1-3.66-.02.04 18.74-9.33-.01-2.08-1.36-1.4-.28-1.38-1.22-.46-.76-2.25-2.2-1.14-.13-2.8.04-2.58-1.17-1.62-.96-2.54-.61-1.98-1.72-2.35-1.06-1.55-.14-2.31.4-2.1.17-3.82-.17-1.33.17-.95-.2-1.57-1.03-2.67-.57-1.43-.65-.9-1-1.98-1.04-.7-.86-2.02-1.8-.17 1.36-.5.3-2.6.44-1.31 1.23.43 1.01.33 2.17-26.1-.09-4.82.01.01-26.66h-.97v-8.78l.15-41.3.19-1.2-.66-2.14.3-.88.03-1.54 1.09-1.36 1.64-.66-1.43-1.44.38-.72 2.57-.25 1.55 1.06.16-1.17-1.36-3.4-1.03-2.1-.47-1.31-.05-1.31-.5-3.56.55-2.44.55-1.31.73-.84.5-1.66 1.17-1.69 1.75-1.43.7-1.56.14-2.21.83-1.91.55-1.81.98-1.35-.09-2 .53-3.43-.2-1.5.49-2-.29-1.58-.98-1.67-1.77-6.03z"/>
    <path region="16" short-name="State House District 73" long-name="State House District 73" value="1" d="m190.2 985.24.61-.06-.12-2.07 2.17.11.66-1.44-.74-1.09-.13-1.14-.68-.88-.47-1.09.05-.68 2.5-1.35-.6-.14.3-1.58-.02-1.87.36-.78-.39-.41v-1.86l.38-.14-.16-3.3h1.39v-2.8l.42-1.23-.27-.87-1.03-.73-.04-1.93-.22-.99.3-1.22 1.78-.01 11.67.22.46-1.45-.25-.25-.09-1.64.21-.46.02-1.91-.38-.96.26-.8.34-2.83.43-1.14.76-.56 1.14-.12.53-1.28-1.4-2.67-1.3-.36-1.13-1.28-1.4.28-1.26-.12-.74-1.25-.4-1.36.05-1.44-.58-1.04.5-1.47-.25-2.32.36-.83-.41-.54.45-.77.82-.53 1.28.3.53-.32.81-.37.73-.74.78.18.64-.45 1.09-.04.96.6.71-.42.83.84 1.41-2.24.69-.28.43-1.57.85-.8 5.57.1.5.1 1.19 1.3.53.03 1.04.78 1.39.1 1.17-.47 1.36.3.33.7 1.53 1.07.36 1.15.03 5.64h-1.74v8.88h-1.4v2.8l-2.81.01v4.21h.87l-.06 2.24h-.54l.07 1.94.58.62v1.62l-.31.82h-.57l.04 2.8-2.17 1.35-1.13 1.1-.53.89.32.97-2.38-.1-.22.87-.68.76h-1.12l.2-.72-.2-2.22h-.86l-.03-2.99h-.66l-2.13 4.1-1.42 2.1-1.23.83-1.52.6-4.32 2.26-2.38.9-.22 2.03-.25.68.26.82-.91 1.62-.6 1.66-1.52-.05-.81 1.6.03 2.07.57.94-.53.54.03 3-3.27.02-.24.14v10.94l.07.81 1 .44-.3.69.64 1.01-1.81.66h-1.78l-.94.2-1.7.83h-1.02l-.07-1.42-.55-1.04.15-2.83.25-1.04.87-1.63.11-2.07.68-.9.8-.49-.69-.92-1.17-.18.36-1.14z"/>
    <path region="17" short-name="State House District 75" long-name="State House District 75" value="1" d="m113.92 882.45 62.2-.02 9.4.05.01-2.65h17.46v.03l.07 12.54v4.76H206l-.56 1.45-1.44.81-.24 1.64-.5-.16-.74.6-2.07.68.34 1.88-.2.68.4.6 1.34.38v1.18l.8 2.49-.06 2.46-.33 1 .44 2 .22 1.85 2.4 1.27-.26.32.75 1.34-1.16 1.06 1.58 3.1-.25 3-.53.33-1.29-.31-.81.53-.45.77.4.54-.35.83.25 2.32-.5 1.47.58 1.04-.05 1.44.4 1.36.74 1.25 1.27.12 1.39-.28 1.13 1.28 1.3.36 1.4 2.67-.53 1.28-1.14.12-.76.56-.43 1.14-.34 2.83-.26.8.38.96-.02 1.9-.2.47.08 1.64.25.25-.46 1.45-11.67-.22h-1.77l-.31 1.23.22 1 .04 1.92 1.03.73.26.87-.41 1.23v2.8h-1.4l.17 3.3-.38.14v1.86l.39.41-.36.78.02 1.87-.3 1.58.6.14-2.5 1.35-.05.68.47 1.09.68.88.12 1.14.75 1.1-.66 1.43-2.17-.11.12 2.07-.61.06-.8-.76-1.75.21-.89.83-.8-.44-2.09-.23-.67-.43-.32-.81-.7-.25-4.11-.07-.7-.71v-1.42h-1.4l.03-2.12h.68l-.2-1.38.69-.7 1.79.05.32-.49-.39-.99 1.48.36.96-1.26.37-.82.07-2.8.4-1.08.6-.62-1.73-2.35-2.57.09v-2.1h-2.8v-1.4h-.7v-1.4h-.7v3.5h-2.78l-.7-.7v-2.1h-.7l-.7-.7h-.83v-2.73l-.7.7h-1.4l-.7-.7-.02-1.99-5.31.06-.01 1.08-8.35.17-.2-1.25.16-.84-1.57-1.91-1.89-1-.33-.54-1.64-.88-2.14-1.57-2.42-.94-2.25-1.91-1.21-1.45-3.98-3.73-2.06-1.19-.05-.45-4.22-.92-1.36-.17-.43-.88-1.4 1.01-2.42.14-.4-.64-1.83.65-.23-1.28-.71-.74-1.18-.14-1.17-1.2-.69-1.36-.24-1.19-1.13-.73-1.07-1.18.02-13.73-.1-2.6-.04-11.75-.04-19.59z"/>
    <path region="18" short-name="State House District 1" long-name="State House District 1" value="1" d="m115.62 1.62 7.92.16 8.83.65 4.8.3 5.22.07 15.87-.26 13.53-.28 23.24-.4 25.83-.4 10.12-.17 16.33-.22L261.74.9l21.88-.24L310.76.4l19.62-.1 21.45-.1h10.46l11.7-.06L401.52.1l1.99-.06 2.97.89 6.84-.1 14.99-.14 9.59-.04v1h.75l.02 1.84.61 1.17.26 1.1.72-.04.02 1.25h-.93l.01 1.49-.58.46.07 3.7-2.28-.02v1.85h-2.2l.06 1.52 2.25-.02.02 3.75.82.49.05 3.29 1.24-.02L439 26l-.2 1.06-2.68 6.04-.34.31-4.39 1.52-.63-.22-1.46-2.35-.09-.53-3.1-1.17-.98.39-.93 2.33-.7.61 1.32 2.82.88.64-.28 1.1.07 1.13.47.65 1.42.49 1.48 2.05-.68 2.53-1.37.74-.69.5.01.76-1.05 1.22.27 1.5-.38 2.04-.52 1.3-.77 1-.43 2.3-.07 1.82.41 1.68-1.16.9-.24 1.27 1.05 2.7 1.3.83.89.2.88 2.71 1.08 1.28.83 2.98-.42 1.29.57 1.48 1.1 1.03-.37.44.14 2.7.38.39-.12 1.34-.48 1.01.19 1.77.92 2.65.22 1.58.75 1.2-.39 1.77.6.52.66 2.23 1.02 2.08.62-.22.14-.92.67-.81h1.63l1.28-1.42 1.6-.56 1 .5.3 1.34 1.25 1.5 1.34-.43.68 1.53v1.47l.26 1.23.73.62-.3 1.73.75 2 1.67.29 1.43-.02.6 1.02.72.29.37.93-.63.4-.18 1.5-1.97 1.14-.77.18-1.57-.53-1.04.48-.57 1.25.04.68 1.32.91 1.22.46-.17.87.58.83.99.78 1.46.14v1.14l-.61 1.86-.92.73-.24.97-1.68-.17-2.14 1.33-1.44-.07-.67-.7-1.02.08-.37-.96-1.98-1.67-.75-1.09-.6 1.3-1.01-.62-.07-11.92.02-4.46h-3.54l-.56-.73-.93-2.23-.7.8-1.44-.02-.1 6.93-.14.52-3.54.15-.69-.47-3 .41.04 5.1h-2.22l-.01 1.72 2.23.01.9.49.14 1.9-1 .02v3.85l-.73.13-8.86 7.5-.98.88-.13.85v6.2l.67.58-.41 1.04-16.47.06-15.65 21.08-4.5 6.12-19.2 25.99-26.2 8.7-13.1 4.36-7.83 2.66H115.51l.11-42.5-.17-.65.18-1.85.18-55.78-.11-1.7.08-23.77.07-1.97V51.3l-.18-20 .23-7.09z"/>
    <path region="19" short-name="State House District 3" long-name="State House District 3" value="1" d="m455.31.62 13.3-.13h21.16l16.27-.04-.02 2.39 1.5.5.62 1.22 1.47.84.2 2.43.6.39.58 1.14-.3.54.68 1.44-.54 2.43.8 1.46-1.06 2.28.08.78-.54.43-1.53.18-1.9-.66-1.22 1.05-.07.73 1.15.54.64.89-.02 1.4-.4.7 1.48.2.2.7-.14 1.8-1.85 1.5-.22.67.69.66-.88 1.81.88.44 1.29 1.52 1.96 1.76.71 1.1 1.27.93 1.09 1.34-.14 1.18.3.86.95.97.47 2.31-.54.87-.05 1.81.79 1.58.93.07-.3 2.34.68.91-.12 1.62-.52.64.73.93-.11 1.08 1.86 1.7 1.37.48.41.88-.07 2.3-.49.6.12 1.56-1 .87.43.48-.42 2.96.14.23-.44 1.22-.9.14-.4.69.23.93-1.96.71-.76.54-2.45.47-1.01.45-1.12-.24-2.3.95-1.17-.02-2.43.74-.6.64h-1.6l-1.87-.63-1.68-2.15-1.38-.14-.3.94-1.15.6-.87-.8-3.41-.65-1.75-.77-.67.17-1.4-.29-.72-.72-1.95.44-2.33-.38-.94.65-1.36.3-1-.17-1.14.98-.73.26-.99.86-.71 1.24-1.45-.9-1.02-.35-.16-.8-1.03-1-1.09.34-1.5-.7-1.9.74-1.54-.32-.7-.4-2.08-.45-2.48-.9-.51-1.27 1.07-1.25h.92l-.02-4.54-.1-.9.06-2.91-.9-.77-1.5.24-2.74-.04-.74.79v.64l-1.29-.31-1.21.58-1.75-.04.03-.98-.4-.55-1.34-.02.21-.78-1.52-.37.03-1.96-1.24-.01-2.16-.66v-2.1l3.46-.02-.02 1.11.8.12 6.08.18.05-3.48 5.3.2.82-.75 2.96-.02-.02-3.74h.56l.17-3h.76l-.04-6.07-1.54.01-.06-7.46 2.98.01-.14-4.6-8.87.1-.43-.58.52-1.24.06-2.71h-.65l.03-1.49-1.21.06.07-3.06 1.42-.02.32-.46.3-6.46V5.1l-.73-.53-.01-.75-1.13.01-.7.64L455.04 3l.34-.4z"/>
    <path region="20" short-name="State House District 8" long-name="State House District 8" value="1" d="m436.03 118.51.6-1.29.75 1.1 1.98 1.66.37.96 1.02-.08.67.7 1.43.07 2.15-1.33 1.68.17.24-.97.92-.73 1.99.9-1 1.06-.02.88.55.5.08 1.06 1 1.29.88-.2.25.67 2.86.86.53.67 1.5-.11.17-.5 1.32.01.97.8 2.53-.9.69.2.54 1.4 1.9 1.54.58.12 1.01 1.32.92.25 1.16-.35 1.04.15 1.64-1.02 1.52-.31-.14-1.79.74-1.15 1.5-1.63.87-1.3-.22-1.58-1.64-.89-.66-1.34.78-.24.95.28.57-.44.6.88 1.24.82 1.11-.69 1.53-1.4 1.93-.28.33 1.02 1.1 1.84.64.68.08.75 1.33.28.56-1.68 1.4-.77.68.13 1.26-.98.95.16.26.5 1.7-.43 1.66.55.78.02 1.34-2.14.54.78 1.1.4 1.56-.14.45 2.08 1 .91.7.07.95-.47.42-.7 1.54-.28.6-1.16 1.04-.3.66 1.02-.23.85 1.12.46.13.6 1.4.83.88-.02.48.73 1 .32-.45 1.9.12 1.28 1.86.7.61.53.13.86 2 .27.14.97 1.42.29.53.9 1.66-.16.41.7-.5.69v1.97l-.82 1.08-.77-.16-.56.89.21 1.37-.16 1.64-.84.22-.25.81-.72.52.15 1.05.67.88.24 1.65.53.72-.58.49-.56 2.21.21.72-2 .98v1.11l-1.29 1.1.31.9-1.03.49-.08.87-1 .2.1 1.09-2.64.86.48.85-.82 1.28-.05.76-1.37-.83-.91.4-1.65-.26-.53.3-.59-.82-1.05-.75-2.68-.28-.84-.46-1.85.27-1.92.08-.73-.53-1.17.45-1.94 1.9.37.95-.79 3.07-1.7.83-.34 1.2-1.26.3-1.12-.1-1.12 1.47-1.04.5-.65.74-1.23-.38-.94.92-1.86.5-3.25-.52-1.65-.63-.76-1.09-2.4-1.99-1.3-.5-.07-1.78-1.34-.48-1.08 1.32-1.97-2-.69.29-1.66-.4-.6.56-.98-.27-.93.27-.96.79-1.13 2.87.05.5 1.01.78.72 2.23-.65 2.02.32.4 1.02-.12.84 1.63.42 2.74-.73 1.13-2.3.15-2.33.78-2-.39-2 .31-.02-.1-.2-1.88.42-1.31-1.07-.71-1.29-.53-.21-.86-.79-.98.84-1.31.36-1-.63-1.33-1.51.65-2.08 2.3-.83-.12-1.22.59-.34-.34-1.23.05-.1-.74-1.5-.03.12-6.08-1.7.01.03-1.28-.41-.86-1.06-.02-.19-1.72h-.42l.03-1.87-.66-.88-1.9-.15-.42-1.14-2.6-.02.04-3.08 6.4.1v.42l2.94.03v-2H439l-.16-1.5.2-.85v-2.87l1.2-2.31.31-1.24-.18-1.65-.54-.24-1.13.32-.86-.07-.03-.75-.78-.06-.1-.68-1.67-.12.1.72-1.49-.2-.03-1.62-.77.14-1-.38-.95.32-.96 1.79-.68-.22-2.25-1.42-1.38-1.5.77-1.32.46-.23 1.83.07.81-1.15 1.2-.11.49-.67 2.18-1.06 1.21-1.07 1.07-.38-1.85-2.54.22-1.6.82-1.35.16-.7-.05-2.94-.57-.9-.14-1.18 1.33-1.05z"/>
    <path region="21" short-name="State House District 35" long-name="State House District 35" value="1" d="m439.63 276.74 2.36.02.38-1.16.64-.61 1.13-.4.24-2.25-.52-.47-.16-1.04-1.35-.83.51-.13 6.3-.02v2.58l-.54.5 1.24 1.09.28 1.16.72.28v2l-.01 2.26h-3.57l-.04 1.06-5.21.57h-2.4z"/>
    <path region="22" short-name="State House District 70" long-name="State House District 70" value="1" d="m114.28 692.88 132.37.08h11.44l56.15-.02h22.96l13.58-.03.46.3 1.42-.01.02-5.76h2.81l.06-8.69h1.42l-.02-2.88h1.41l.03-2.9h2.82l.03-1.45 4.27-.02 2.87.08 2.6-.46 2.82-.18 1.46.07-.02 1.4 1.46.1h5.73v-1.4l2.88.01v-.72l1.4.02-.02-2.9 1.4.04v-.72l2.74-.01.02-1.43 2.14-.05.01-1.43.72-.02.01-1.43 2.82-.05.04-4.27-.16-.45v-2.51H395v-14.54h.58l.03-5.4 2.83-.06 2.7.06.01-2.9 2.61.16.32-2.67.02-2.77 2.86-.08.04-2.68-.21-3.05h2.75l.03-4.73h10.59l-.08-5.77 1.43.01v-1.45l5.77-.04-.02-5.61.78-.02-.01-4.21 25.3-.01-.52.98-.02 1.44 7.86.03 23.67.17h53.84l.18 2.88-.09 45.28.05 7.38-.1 1.39v14.3h-1.22v17.1h.24l-.03 14.88-25.84.01h-43.6l-10.37 10.41-.7 2.82-.9.61-.68 2.16-.95.12-.65.64.55 25.15.3 28.59h-16.64v1l-8.33.06h-8.6l-.01-.72-12.53-.05-2.75-.08h-8.36l-14.3.06-23.9-.03-2.52.5-20.85-.12-.37 1-3.88 5.46-6.1 6.65-1.15 1.81-13.56 31.66-1.17 1.78-6.24 7.6-.82.06-.53.91-.96.15-.63 1.31-.72.5-7.5 3.45-3.79 2.27-7.99 6.12-4.02 2.7-2.07 1.22.18.51-1.57 1.37-1.23 1.3-2.73 3.36-1.11-.16-.77.62-2.06-.2.02.95-.6-.04-.56-.7.36-1.06h-1.43l.16.74-.15 1.8-.7-.79-1.06-.34v-.71l-1.05-.01-.7.7v1.44l2.08.01.73.71-.34 1.43-2.54-.04-1.36-.24v.97l-1.43-.01-.03 1.33h-2.84l.71-.82v-.52h-1.39l.01-.71h-2.83l-.33.29 1 1.04.02 3.62-.71-.02v.81l-11.02 6.7-3.97 2-.54.13-2.05-.26-1.53.74-2.17.6-4.59 2.93-3.04 1.35-2.72-.6-2.32-.07-.49.14-2.75-.03-.4.32-2.8 1.17-.67-.08v1.47l-3.28-.03v-1.79l-.92-1.9-.77-.51-.8-.09v-.04l-17.45.01v2.65l-9.4-.05-62.2.02.1-27.5.29-3.81.22-8.64-.19-2.69-.04-5.63.05-5.63-.12-23.17.08-29.1-.04-19.87.11-2.9-.1-27.47-.06-18.77.1-8.63z"/>
    <path region="23" short-name="State House District 69" long-name="State House District 69" value="1" d="m291.36 902.81-.03-8.44h17.93l15.57-.04.03-17.14-.25-.1-.24-5.45.15-11.1-.51.02-.03-17.22h2.84l4.34-.22 9.89.42V828.4h-1.55l.01-1.6 18.52-.02.2-17.05h-1.84l.05-4.35-.03-28.87 2.53-.5 23.9.03 14.29-.07h8.36l2.75.09 12.53.05v.73h8.61l8.32-.07v-1h16.66l-.3-28.6-.56-25.14.65-.64.95-.12.67-2.16.9-.61.71-2.82 10.37-10.42 43.6.01 25.84-.01.03-14.87h-.23v-17.1h1.2l.02-14.31.1-1.39-.06-7.38.1-45.28-.19-2.87v-16.97l-.05-7.46.9.7 1.28.35 1.6 1.2 1.33 1.68-.06.72.96 1.87 1.53.95.74.81 1.92 1.1.22.54 1.62.69.7-.27.85.66.67.01 1 1 .88 1.43 1.77-.64.14-.95 1.75.54 1.2.96 1.96.01-.13-1.12 1.32.24v-.97l1.33-.36.39-.54v-.93l-.74-.73 1.98-.01-.42 2.63.63.43v1.16l1.65.17 8.91-.08 2.37.33.72-1.27.28-1.63.36-.78 1.32-.15.8-1.39 1.43-.1 1 .24 1.71-1.4 3.3-1.42.81.16.95-.52 1.02.02 1.34-1.42 1.8-.67.81-.73 1.63-.46.38-3.04-1.09-.79.6-.57-.65-1.45-.02-1.25-.6-.22-.26-1.1.6-.23 1.26-2.7-.99-1 .48-1.85 1.16-.03 1.67.62h1.08l.52-1.72-.52-.56 1.18-1.1.7.08 1.01-.69 2-.96 4.24-3.73 1.3-.8 1.2-2.46-.05-3.88.9-1.61 1.46-1.77 2.15-1.87 1.2-1.3.74-1.28-.25-1.47-.62-2.21.45-1.13.68-.34.49-.91 3.7-3.83.67-1.23 2.15-1.97 1.96-3.06.82-1.79.15-3.3-1.16-3.05-1.57-1.77.51-1.3 13-.01 5.08-.04 82.84.09H745.57v1.49l53.26-.1 77.18.04.35-.27.05-1.18 1.27-.37v-1.53l.97-1.23.34-1.46.71.6.95.03.55-1.68.63.38 1.83-.82.9.42.1 26.14-.12 47.87-.14 25.03-.27 24.76-.5 15.74-.32 14.93-.11 23.79.04 19.57-.01 44.14.83 6 1.99 15.73-.17 32.38-.05 4.9.32 13.09-.12 6.72.06 14.19-.1 9.77.07 1.9-.01 5.65-.08 8.8.07 12.04-.01 14.27-.2 5.98-.4 24.25-.02 9.33-.02 14.9.07.12.01 7.45-.08 1.74v4.75l.13 12.61v21.82l-20.96-.04h-13.7l-17.33.02-17.38.01-20.08.15H783.1l-25.57-.03-19.26.1-3.25-.12-17.35.03-21.82.03-29.93.05-3.2-1.07-1.5-.13-15.23.15-4.03-.05-19.26.1-48.66.16-10.36.3-18.67-.05-3.61.12-19.6-.2-15.62.01-19.76.01-35.5.03-75.85.04-1.74-.02-26.41.09-10.7-.02-33.86.07-10.73.02v-35.08l.01-19.28h-.34l.06-41.68z"/>
    <path region="24" short-name="State House District 63" long-name="State House District 63" value="1" d="m484.64 379.65 1.13-.01.31-1.8 2.7-.1.29-1.43h1.12l.01-2.24 2.88-.02-.25-1.81-1.63-.32-.74-1.88-.56.01-1.17-1.66.37-.29-.07-6.8 1.16-.03 3.2-.02v-.77h2.92v-.76l2.94.02.19-.74 1.27.02v-2.9h.85v-.7l.34.2 1.05-1.42 2.04-2.1.83-.65 1.3-.1.56-.8 1.9-.07.78-.45 1.23-.16 2.23-1.73.82.71.04.76 1.15.61 1.57-.3 1.15.98 2.12-.48.36-1.15 1.34-.13.75.67.72-.77 1.53.33 1.28-.5.9 1.04 1.24.68 1.35-.19.76.45 1.5-.2 1.33 1.22.94-1.01 1.04-.08 1.14.75-.01 1.88 1.55.3.57.52-.07.82.73.06 1.68 1.47.44 1.37.65.26 1.1 1.73-.45 1.05-.91.17.27 1.73-.23 1.16 1.32 2.5.25.8 1.04.97-.29.5 1.61.93 1.84 2.51.09 1.04 1.46 1.68.02.74-.54 1.1.38.56-.7 1.65.84.6.34 1.26-.07 1.06.4 1.66-.6.98-.73 2.69-.7.5-.39 1.89-.66.6-.13 1.19.67 1.09-.4 1.15.72 1.07-1.79 2.22.2 2.22.83.74.4 1.02 1.84.6.44-.88 1.4-.55 1.45-1.03.73 1.42.34 1.55 1.04.74.24 1.22.47.67 1.44.79.87 1.12.57 1.53-.2 1.4.54 1.21.84-.39 1.25 1.4 1.4-.39.25.56 1.19 1.12-.2.5.93 1.16.72-.03.78.47.18 1.24-.31.95-1.4 1.14-.29.86 1.95.77 5.45.06.01 2.96-1.4-.93-1.73-.2-.59.17-1.67-.24-1.3.11-1.66-.56-1.7.32-.67.33-4.64.9-1.98-.14-.68-.64.15-.87-.27-.95-1.01-.9-.95-.28-2.25-1.18-1.4-.2-1.09-.44-.89.04-1.45.59-1.06-.12-.98.5-2.4-.05-1.48-.6-.66-.55-1.25-1.61-1.49.04-.63-.44-4.21-2.28-2.96-2.04-1.29-.37-2.51-.15-1.5-.98-1.86-.16-3.28.36-1.08-.15-1.2.32-2.55.01-2.45-.27-1.6.54-.98 1.9-.22 1.65-1.04 1.7-1.29.3-1.46 1.53-.39 1.1-1.3 1.22-.72 2.59-.06 1.93-3.05-.36-.65-.45-1.43-.4-1.76-1.57-1.27-.14-.6-.4-1.08.33-.53-.7-1.24-.48-1.7-.4-.8-.63.42-1.45.99-.2.94-1.46-.43-1.03.52-1.13.57-.23.4-1.87.55-.63.75.08 1.3-1.34.9-.26-.25-1.83-.7-.92.3-.53-.17-1.58.79-1.85-1.37.14-1.46-.24-.84-.54-1.4-1.82-.75.73h-.77v-.8l.79-1.35-.3-1.16.48-1.03 1.82-2.18 1.63-1.49-.3-.23.12-2.52-.76-.38-.15-.92-3-2.09-.88-1.72-1.6-1.72.2-1.29z"/>
    <path region="25" short-name="State House District 59" long-name="State House District 59" value="1" d="m488.84 317.27-.1-.44 1.6-1.64.48-.75 1.77-.07 2.53-2.92.6-.98.04-1.24-.7-1.5.56-.57.02-2.7.54-.64.32-1.4-.09-1.57-.36-.66.23-1.21.5-.8-1.13-1.38-1.29-2.78-1.12-.82-.46-1.02.53-.65 2.2-.61.56.23 1.33-.59.6-1.16-.14-.6 1.14-3.45-.85-.7.22-1.1-1.51-.75-.24-1.24-1.2-.88-.1-1.8-.32-.55-2.22-1.29-.44-1.65-1.2-1.38.33-1.12.08-2.56.41-1.5 1-1.43.93-.07v1.88h2.74l.4.26 1.92.35.67-.34.27-1.05 1.61-1.47.08-.67 1.75-.38 2.22.03.18.64 2.78-.05.02 1.2 2.94.01 1.42 2.5 1.72.65 2.36.28-.07-.77 1.5-.2.65.83 1.73.02 1.28-.97.7-.92.88.02-.08 1.3.7 1.24-.26 1.38.16 2.12.47.52.12.98.73.36.06 1.07.75.73.14 1.93 1.42.52 1.2.13 1.3 1 2.57.47 1.1-.05.71.94 1.06.34 1.24 1.25.59.91.94-.56.58.23.35 1.4.82.68 1.05.33 2.04 1.72 1.29.45.66.64 2.22.87 1.13-.2 1.46.86 1.42.08.42.53 1.43.67.9.07.8.5 1.15 1.3 1.27-.01 1.17.43.56 1.15 1.69.55.64-.26 1.56-1.78.17-1.97.48-.89.25-1.19.82-.73.78-1.72 2.18-.74 1.81.07.99.31 1.45-.47 3.62 2.57 1.89.72 1.88.48.96-.32 1.05-1.17.3-1.13 1.4-.8 2.18.05 1.73.26.92-.38.3-.58 1.5-1.45.47-.9-.3-1.55.86-2.7.75-.78.31-1.22.57-.8.15-2.8-.46-1.06.67-2.3.87-.53.81-1.03 1.36.04 2.08-.38 1.43-.04v.82l-.14 41.3-.01 8.77h.97l-.01 26.66.06 43.79h.7l.02 36.75h-10.53l-18.97-.08.01-5.71v-2.96l-5.46-.06-1.95-.77.3-.86 1.39-1.14.31-.95-.18-1.24-.78-.47-.72.03-.93-1.17.2-.49-1.19-1.12-.24-.56-1.41.38-1.25-1.39-.84.4-.54-1.22.2-1.4-.57-1.54-.87-1.11-1.44-.79-.47-.67-.24-1.23-1.04-.73-.34-1.55-.73-1.42-1.45 1.03-1.4.55-.44.88-1.84-.6-.4-1.03-.83-.73-.2-2.22 1.79-2.22-.72-1.07.4-1.15-.67-1.1.13-1.17.66-.61.39-1.89.7-.5.73-2.7.6-.97-.4-1.66.07-1.06-.34-1.25-.84-.6.7-1.66-.38-.56.54-1.1-.02-.74-1.46-1.68-.09-1.04-1.84-2.5-1.61-.94.29-.5-1.04-.96-.25-.8-1.32-2.51.23-1.16-.27-1.73.9-.17.45-1.05-1.09-1.73-.65-.26-.44-1.37-1.68-1.47-.73-.06.07-.82-.57-.51-1.55-.31v-1.88l-1.13-.75-1.04.08-.94 1-1.32-1.22-1.5.2-.77-.44-1.35.2-1.24-.7-.9-1.02-1.28.5-1.53-.34-.72.77-.75-.67-1.34.13-.36 1.15-2.12.48-1.15-.99-1.57.31-1.15-.61-.04-.76-.82-.72 1.1-.95 1.21-1.95.18-1 .48-.37-1.04-.96-.16-.68-1.15-.87.02-1.21-1.43-.01.03-1.45-1.44-.02-1.38-1.49.03-1.46-7.2.1-4.34-.2-.03-1.46-.73.01.01-3.63-.73-.74-1.44.01-.01-4.35-1.45.01-.02-1.5-.7-.21-.64-1.8-1.09-.93-1.29.68-.7-.1-.83-1.64.32-.84z"/>
    <path region="26" short-name="State House District 67" long-name="State House District 67" value="1" d="m600.99 428.93-.02-36.76h-.7l-.06-43.78h4.81l26.11.08-.34-2.17-.42-1 1.31-1.24 2.6-.44.5-.3.17-1.35 2.02 1.8.7.85 1.98 1.04.9 1 1.43.65 2.67.57 1.57 1.02.95.2 1.33-.16 3.81.16 2.1-.15 2.32-.41 1.55.14 2.34 1.06 1.99 1.72 2.53.6 1.63.97 2.58 1.17 2.8-.05 1.14.15 2.24 2.2.47.74 1.38 1.22 1.4.29 2.08 1.36 9.33.01-.05-18.74 3.67.01 2.26-.09 4.73.13 10.6.02 5.87.41 1.98-.16 1.6.09h10.07v6.07h4.73l-.38-.67v-1.52l.26-.73-.26-1.46h-1.46l.28-1.49.83.75 1.92-1.14 1.42-1.2-.74-.63 4.48.09-.01 30.74v17.8l-.02 59.28h14.43l-1.62.87.47.83 1.89.8.67 1.5-.62.64-.81-.2-.92-.72-1.23-.24-1.83.75-1.54-.2-.03-1.3-.37-1.35-.61.02-.65.74.43 1.37.5.8.46 2.13-.6 1.18-.45 1.61-.14 1.6-.86 1-1.32-.69-.77 2.2-.98 1.12v.83l.88 1.43-.57.77-1.24-.83-.27-.51.18-1.99-.3-1-.76-.46-2.68.31-.96.37-.34.75.03.95 1.17.82.63.76.64 1.73 1.05.93-.29.75-.8.4-1.98-.08-.58.38.2.94-.21.92-1.71 1.36.4.82.73-.3h1.56l.47.7-.42 1.1.5 2.06-.58.93-.01 1.02-.48.34-.73 1.4-1.37-.28-.82.16-.2 1.85.96.65 1.24 1.48-.78.48-1.39-.08-.26 1.74-.74.69-.1.79-.7.39-.92 1.25-.07.85.45.82.84.46.38.7-.52 1.13-1.38.6-.66.85-.44 1.39.15 1.3 1.23 1.04.17 1.32-.22 1.45-.58.86-1.69.24-.63.48.81.66.5.97.9.36 1.05-.14.26.55-.04 1.83.37 1.03.14 1.45.6.43.58 1.25-.39 1.48-.97.89-.07 2h-6.5l-82.84-.1-5.09.05-12.99.01-.51 1.3 1.56 1.77 1.17 3.05-.15 3.3-.82 1.79-1.96 3.06-2.15 1.97-.66 1.23-3.71 3.83-.49.91-.68.34-.45 1.13.62 2.21.25 1.47-.74 1.28-1.2 1.3-2.15 1.86-1.46 1.78-.9 1.61.05 3.88-1.2 2.47-1.3.8-4.24 3.72-2 .96-1.02.69-.69-.08-1.18 1.1.52.56-.52 1.72h-1.08l-1.67-.62-1.16.03-.48 1.86.99 1-1.26 2.7-.6.22.26 1.1.6.22.02 1.25.65 1.45-.6.57 1.1.8-.39 3.03-1.63.46-.8.73-1.8.67-1.35 1.42-1.02-.02-.95.52-.82-.16-3.29 1.42-1.72 1.4-.99-.23-1.42.1-.81 1.38-1.32.15-.36.78-.28 1.63-.72 1.27-2.37-.33-8.9.08-1.66-.17v-1.16l-.63-.43.42-2.63-1.98.01.74.73v.93l-.4.54-1.33.36.01.97-1.32-.24.13 1.12-1.96-.01-1.2-.96-1.75-.54-.14.95-1.77.64-.88-1.44-1-.99h-.67l-.86-.67-.69.27-1.62-.7-.22-.54-1.92-1.09-.74-.8-1.53-.96-.96-1.87.06-.72-1.32-1.67-1.61-1.21-1.29-.34-.9-.71.02-11.12-.01-16.57h-.16l-.03-18.85V515.5l8.2.01v-16.8h.1l-.13-17.54.07-13.08v-21.78l25.95.16v-.38l34.1.17.02-17.35z"/>
    <path region="27" short-name="State House District 36" long-name="State House District 36" value="1" d="m433.06 273.81 3.61-.01h1.47l.01 2.3 1.3.02.18.61V285.6l-5.82.01v-4.43l-.04-2.07-.8-2.76z"/>
    <path region="28" short-name="State House District 10" long-name="State House District 10" value="1" d="m428.12 168.6.39-.7 1.81-2.26h.37l.42-1.53 1.5-.34.5-1.97 4.84.1 1.06.01.41.87-.02 1.27h1.7l-.12 6.08 1.48.02.11.74 1.23-.05.34.34 1.22-.6.83.12 2.08-2.3 1.5-.64.64 1.33-.36 1-.84 1.31.79.98.21.86 1.3.53 1.06.7-.42 1.32.2 1.89-.77.32-1.2-.11-3.21.09-1.2.4-.86-.16-1.6-.75.01-1.54-.68-.7-.38-.98-.85-.7-1.63-.42-1.03-.95-.81-1.33-1.82-.27-.69-.47-3.44-.02-.06-1.06z"/>
    <path region="29" short-name="State House District 30" long-name="State House District 30" value="1" d="M430.79 267.91h4.4l.01 2.94h1.47v2.95l-3.6.01h-6.67v-.18l-.03-5.71z"/>
    <path region="30" short-name="State House District 16" long-name="State House District 16" value="1" d="m445.11 178.22.87.17 1.19-.41 3.2-.1 1.2.12.78-.32.03.1 1.08.99.7 2.45-.8 1.29-1 .73.34.77-.3.57-1.3.35-1.44.82-.25.4-2.49.7-.24 2.56-1.3.26-2.07 1.08-.45 1.12-.58-.04-2.32.91-1.33.77-.73-1.18-.02-1.42-3.62-.06-.46.14-1.64-2.38-2.55-3.66h7l2.12.34.75-1.08 1.5.02.53-1.34 1.43-.32-.35-.88-.85-.17v-2.49l.45-.7 1.11-.27.65.54z"/>
    <path region="31" short-name="State House District 57" long-name="State House District 57" value="1" d="m465.26 343.02 2.03-.02 2.36 4.4 1.54 2.65.02-2.54.16-.15 2.76.02.03 1.47 6.49.06.74.1-.3 1.25.16 3.03.33 1.3-.7.56h-.06l-1.48.03-.54-1.53-3.64-.06-1.1-.33-1.85.05.79 1.21-.2 1.66-2.06.1-1.58-1.24-.88-.95-.88-1.75-2.11-.05z"/>
    <path region="32" short-name="State House District 62" long-name="State House District 62" value="1" d="m481.44 360.85 4.8.07 1.24-1.62 1.61.02.16.66.76.2.18 1.09-1.16.03.07 6.8-.37.29 1.17 1.66h.56l.74 1.87 1.63.32.25 1.8-2.88.03v2.25h-1.13l-.3 1.42-2.69.1-.31 1.8-1.13.01-.04-.8-.8-1.5h-1.4l-.26-.53-1 .01v-4l-.75-.47 2.93-.02.03-1.51-.63-1.23-1.22-1.21-1.23-.83-.4-1.72-.01-2.57.5-.29-.8-1.04.48-.29h1.4z"/>
    <path region="33" short-name="State House District 14" long-name="State House District 14" value="1" d="M413.57 184.91h2.28l-.05-1.47h10.8l1.23 1.5h1.78l2.55 3.67-1.47.6-1.56.17h-2.16l-.07 1.47-9.63-.01v-2.96h-.73v2.52l-.75.43h-1.73v-2.96h-1.23v-1.48h1.12z"/>
    <path region="34" short-name="State House District 22" long-name="State House District 22" value="1" d="m443.07 242.44 7.08.01.2-.42 1.65-.08.73-1.02 1.15-.08.3-.47.92.24 2.56-.73.74-.84.77-.31 1.1.43 1.87-1.36 2.26-.04.92-.83.59.08 2.03-1.15.58.03.55-1.18 1.36-.3 2.2 1.32.58-.22 1.31.83.79-.17.92-1.77.82-.11 1.94 1.11 1.42.21 1.56 1.04.54 1.04-.54.85-.33 1.8.25.44 1.2-.12.4.46-.43.7-1.27.76-1.78 1.35-2.15.68-.27-1.12.5-.5-.12-.87-1.82-1.31-2.13-.97-2.4.01-1.02 1.82-.42.13-5.73.92-1.46.14v.57l-1.95.91.01 2.8-2.41.27.01 3.6.12.68-.73.58-1.1 1.4-.28.76-1.02.86-2.93.03-1.27-.08-.22-.37h-5.56v-4.42h-1.74l-.69-1.48-1.25-3.5-.1-.73z"/>
    <path region="35" short-name="State House District 34" long-name="State House District 34" value="1" d="M449.15 269.85h4.92l.54 2.6 2.63.01 1-.23 2.4.19-.4.76-.12 2.02-.4 3.01.04 1.46-4.06.04-.4-.58-1.4-1.01-.34-.61-2.7-.05v-2l-.73-.28-.27-1.16-1.24-1.08.53-.5z"/>
    <path region="36" short-name="State House District 40" long-name="State House District 40" value="1" d="m442.03 281.35 5.2-.57.05-1.06h3.57v3.3l-.95.3v4.96h-1.48v3.17l-4.78.06.38-.89v-5.25l-1.7.23.18-1.65-.18-2.18z"/>
    <path region="37" short-name="State House District 25" long-name="State House District 25" value="1" d="m426.34 252.74 2.32.08 2.36.97 1.18.29 2.77-.01 4.6-.32.02 1.59h3.42l.48-.25.58 1.83.93 1.4-.04 3.73-3.38-.11.9 1-.59 1.38h-2.29l.01 3.59h-8.82l-.01-1.48-.72-.75h-.75l-.5-.93.49-.4-2.94-.19z"/>
    <path region="38" short-name="State House District 74" long-name="State House District 74" value="1" d="m114.01 932.45 1.07 1.18 1.13.73.24 1.19.69 1.36 1.17 1.2 1.18.14.7.74.24 1.28 1.83-.65.4.64 2.42-.14 1.4-1 .43.88 1.36.16 4.22.92.05.45 2.06 1.2 3.98 3.72 1.2 1.45 2.27 1.9 2.41.95 2.14 1.57 1.64.88.33.54 1.9 1 1.56 1.91-.15.84.19 1.25 8.35-.17v-1.08l5.32-.06.02 1.99.7.7h1.4l.7-.7v2.73h.83l.7.7h.7v2.1l.7.7h2.79v-3.5h.7v1.4h.69v1.4h2.8v2.1l2.57-.1 1.74 2.36-.6.62-.41 1.08-.07 2.8-.37.82-.96 1.26-1.48-.36.4.99-.33.49-1.8-.05-.68.7.2 1.38H176l-.02 2.12h1.38v1.42l.7.7 4.13.08.69.25.32.8.67.44 2.09.23.8.44.89-.83 1.75-.2.8.75.31.69-.36 1.14 1.17.18.68.92-.79.5-.68.9-.1 2.06-.88 1.63-.25 1.04-.15 2.83.55 1.04.07 1.42h-9.87l-44.94.02h-7.7l-13.05-.08-.18-17-.16-3 .15-5.86-.05-2.47.08-4.89.04-11.9-.1-9.67z"/>
    <path region="39" short-name="State House District 39" long-name="State House District 39" value="1" d="m433.81 285.61 5.83-.01v-4.26l2.39.01.3.42.17 2.18-.17 1.65 1.7-.23-.01 5.25-.38.89-2.53-.01-7.38-.02-.02-1.48-4.31-.02-.03-4.37z"/>
    <path region="40" short-name="State House District 42" long-name="State House District 42" value="1" d="M452.82 295.1v-6.57l2.12.02.86.75.32-.74.02-1.52 1.95.05.86-.36.92.36.56.73-.27 1.68.76 1.72 1.27.13.6.84 1.75.82.04 2.15h-1.49l-.01 2.23-1.48-.02-.74.74v.73l-1.34.37-.11 1.11-1.31.73-.81.01-.55-.57-1 .44-.74.86h-2.12l-.1-2.96z"/>
    <path region="41" short-name="State House District 45" long-name="State House District 45" value="1" d="m432.62 298.85.12-.61.84-1.23.13-1.75 4.47-.1v-2.2l2.94.15v2.09l2.48.63 6.3.06.03-2.26 1.33.5.76.7.8.27-.04 3.73.1 2.97-1.53-.02v-1.46l-.37-.74-.9-.03v-.72h-7.03l.02 1.2-1.95.08v-.48l-1.47.24v.46l-2.93.01-4.1-.01z"/>
    <path region="42" short-name="State House District 2" long-name="State House District 2" value="1" d="m437.9.65 17.41-.03.07 1.97-.34.4 1.42 1.48.7-.64h1.13v.74l.75.54-.02 3.74-.29 6.46-.32.46-1.42.02-.07 3.06 1.21-.06-.03 1.49h.65l-.06 2.71-.52 1.24.43.57 8.87-.1.14 4.61-2.98-.01.06 7.46h1.54l.04 6.05-.76.01-.17 3h-.56l.02 3.74-2.96.02-.82.74-5.3-.2-.05 3.5-6.08-.19-.8-.12.02-1.1h-3.47l.01 2.1-4.12-1.32-4.74-.16-.7-.13-5.44-1.73-.7-.33-1.84-2.79-.99-1.7 1.36-.75.69-2.53-1.48-2.05-1.42-.5-.47-.64-.07-1.13.28-1.1-.88-.64-1.31-2.82.7-.61.92-2.33.99-.4 3.1 1.18.08.53 1.46 2.35.63.22 4.39-1.52.34-.31 2.67-6.04.2-1.06-.18-2.54-1.24.02-.05-3.3-.82-.48-.02-3.75-2.25.02-.06-1.53 2.2.01V12.6l2.28.02-.07-3.7.58-.46v-1.5l.92.01-.02-1.25-.72.04-.26-1.1-.61-1.17-.02-1.85h-.75z"/>
    <path region="43" short-name="State House District 6" long-name="State House District 6" value="1" d="m377.85 158.3 15.65-21.09 16.47-.06.4-1.04-.66-.58v-6.2l.13-.85.97-.88 8.87-7.5.73-.13v-3.85l1-.03-.13-1.9-.91-.48h-2.23l.01-1.73h2.22l-.05-5.1 3.01-.41.69.47 3.54-.15.14-.52.1-6.93 1.44.02.7-.8.93 2.23.56.73h3.54l-.02 4.47.07 11.92 1 .6-.24.5-1.33 1.05.14 1.17.57.91.05 2.94-.16.7-.82 1.35-.22 1.6 1.85 2.54-1.07.38-1.21 1.07-2.18 1.06-.49.67-1.2.11-.8 1.16-1.84-.08-.46.23-.77 1.32 1.38 1.5 2.25 1.42.68.22 1.32.34-.07 3.18-1.7-.02 1.06 1.57-1.02.22 1.71 3.57.38 3.84-.04 3.08-7.1-.14-2.63.17-4.68-.03-.68-.31-3.75-.04v.38l-1.69-.01.04-5.61-8.9-.07-.02 4.49-7.02-.01-.6.29-1.27-.03v1.17l-4.35-.33-10.63 2.2z"/>
    <path region="44" short-name="State House District 52" long-name="State House District 52" value="1" d="m444.72 319.07 1.2 1.14 2.27 2.92 1.75 1.8 5.61 4.72 5.14 2.57.96.08.1 1.29v5.03h-1l.18 1.1-2.97-1.87-2.37-.75-3.97-1.03-3.28.08-.78-.13-.96.3-.9.75.06-1.05-.77-.33.04-.71-.78-1.14.6-.83-1.38-.79 1.18-1.3.05-.97 1.65-1.4-.5-.64-.15-1.1.42-.82.65-.24.08-.74-2.02-2.79-.56.18-.61-.82-.33-1.07.4-1.03z"/>
    <path region="45" short-name="State House District 12" long-name="State House District 12" value="1" d="m354.15 190.4 19.2-26 4.5-6.1.66-.07 10.63-2.2 4.35.33v-1.17l1.27.03.6-.3 7.03.02.01-4.49 8.9.07-.03 5.6 1.69.02v-.38l3.74.04.68.31 4.69.03 2.63-.17-.28 1.45-1.1.01-.04 3.74-7.4-.06-.04 8.98 10.35-.01v4.82h-7.99l-.95.67.04 1.95h-4.43l-.02 7.39h.73l.38 1.49h-1.11l-.01 1.47h-11.38l-40.85.4z"/>
    <path region="46" short-name="State House District 58" long-name="State House District 58" value="1" d="m473.04 320.32.47-.4 1.85-.73.81-.04 1.68-.53 2.3-.42 2.1-1.02 1.68.9.46-.1 1.16.62 1.51-.1.77-.8 1-.43.57 1.85-.32.85.83 1.63.7.1 1.3-.68 1.08.93.64 1.8.7.22.02 1.49 1.45-.01v4.35h1.45l.73.73-.01 3.63.73-.01.03 1.46 4.35.2 7.2-.1-.04 1.46 1.38 1.5 1.44.01-.03 1.45h1.43l-.02 1.22 1.15.87.16.68 1.04.96-.48.37-.18 1-1.22 1.95-1.09.95-2.23 1.74-1.23.16-.79.45-1.89.06-.55.8-1.31.11-.83.65-2.04 2.1-1.05 1.42-.34-.2v-2.2l-1.62-.19v-.73l-1.53.01v-.73l-1.47.01v-.74l-2.18.04.01.74-1.44-.06v.73l-1.52-.07.03 1.48-.72.8-2.2.12-4.4.05v1.05l-3.05.01-.6-.6.71-.55-.33-1.3-.16-3.03.3-1.26-.74-.09-6.49-.06-.03-1.47 4.03-.02-.34-.37-.45-3.48-.47-.61.06-.85-.6-.6-2.3.02v-.48l-.88-1.39-1.63-1.8 10.61-.02 1.1-1.36.08-1.33-1.68-.53-1.46-1.1-1.23-1.8-3.66-7.67.2-1.07-.73-1.36-1.21-.26z"/>
    <path region="47" short-name="State House District 17" long-name="State House District 17" value="1" d="m452.4 184.58-.1.5.74 1.06-.52 1.02.66.99-.17 1.1.55 1.38-.53 1.86.86 1.13.36 1-.04 1.3.84 1.04.59 1.47-.7 1.27.74 2.26.9-.1.48.47.8 1.56.07.88 1.47.3 1.37 2.55-2.27.15-.65-.47-1.19-.16-.93-.8-2.87-.52-2.27.42-.83-.45.01-3.04-3.7-.01v.7l-1.64 2.5-2.21.03-1.16-.75-1.46-1.79-1.28-3.68-.06-1.08-1.36-1.89-.64-1.42-.19-1.31-2.27-3.06.46-.14 3.62.06.02 1.42.73 1.18 1.33-.77 2.32-.9.58.03.45-1.12 2.07-1.08 1.3-.26.24-2.56 2.5-.7.24-.4 1.44-.82z"/>
    <path region="48" short-name="State House District 18" long-name="State House District 18" value="1" d="m439.6 203.43 1.46 1.78 1.16.76 2.21-.02 1.64-2.51v-.7l3.7.01-.01 3.04.83.45 2.27-.42 2.87.52.93.8 1.19.16.65.47 2.27-.15 1.32 1.4 1.19 2.22.4 1.22 1.1 1.53.07.44-1.48.4-.96-.75-1.11.38-.87-.06-1.77.45.55 1.43.75.2.36 1.46 1.85 2.42-1.15 1.86-2.83 1.18h-.77l-.1 1-2.23.57-3.62.01-.18.2-4.44-.02-.09-1.33-.35-.56h-1.1l-1.12.3-1.07 1.44-2.13-.01-.8.4-1.34-.25-.33-.4-1.95-.83v-1.86h-7.39l-.24.16.08-13.15h.62l.9-1.12 1.06-.1.97-.49 1.3.29.43 1.29 2.37-.76 1.6-.97-.43-1.8-.74-.23-.58-1.16 2.13-1.2z"/>
    <path region="49" short-name="State House District 19" long-name="State House District 19" value="1" d="m436.57 223.92 1.95.84.33.39 1.34.25.8-.4h2.13l1.07-1.42 1.12-.32h1.1l.35.57.09 1.33 4.44.02.18-.2h3.62l2.24-.58.1-1h.76l2.83-1.18 1.15-1.86-.18 2.95 1.67.57 1.04 2.53-.37.52.91.95.36 1.1.96-.23.35.76-.52 1.42-.49.55 1.46.7 1.87.23.98 1.18.22.83-1.36.3-.55 1.18-.58-.03-2.03 1.15-.59-.08-.92.83-2.26.04-1.88 1.36-1.1-.43-.76.3-.74.85-2.56.72-.31-.93-1.04-.39-.4-.57.18-.9-1.56-.9-.83-.2-1.46-1.14h-2.07l.19-1.24-.01-2.66-.99-.03v-1.54l-.9-.39-2.1.2-.35-.58-1.14-.35-1.33.42-6.03.01.46-1.21.68-.35.49-1.39z"/>
    <path region="50" short-name="State House District 21" long-name="State House District 21" value="1" d="m390.1 253.17 17.25-15.68 21.6-15.27.23-.17h7.38l.01 1.87v2.55l-.48 1.4-.68.34-.46 1.21.25 1.15-.55.7 1.26 1.35-.46 3.14 1.85 1.42.4 1.15.7.82.6 1.52-.59 1.35.13.42h4.53l-1.19 2.3.1.75 1.25 3.49.7 1.49h1.73v4.42l-2.17.2-.48.24h-3.42l-.02-1.58-4.6.32h-2.77l-1.18-.28-2.36-.97-2.32-.08-12.19.04-6.9-.03-.94.48-3.75 4.05-1.12.57-.6 1.17-3.24 2.24-2.22 1.04-.23-.22z"/>
    <path region="51" short-name="State House District 23" long-name="State House District 23" value="1" d="m452.71 255.33 2.93-.03 1.02-.86.28-.75 1.1-1.41.73-.58-.12-.67-.01-3.6 2.41-.27v-2.8l1.95-.92v-.57l1.45-.14 5.73-.92.42-.13 1.02-1.82 2.4-.01 2.13.97 1.82 1.32.12.85-.5.51.27 1.12 2.15-.68 1.78-1.35 1.27-.76.44-.7.36.86.94-.01.52 1.14.5 1.87-.53.72.22 1.39-.84.27-.35 1.09.88 1.28-.51.78.16.63-.59 1.13 1.19.45.63.62-.01.88 1.09.63.76-.05.63.57-.33.97 1.05.02 2.62 1.2-.11.78.43 1.49.07 1.57-.26 1.27.8 2.16-.27.65h-.78l-.9-.88-6.2.03-2.61.32-14.64-.05-1.5.1-3.72.64.18-.92-1.05.19-1.17-.62-1.45-.12-1.14.36-3.04-1.15-.79-.18-2.8.04v-2.84h.9v-3.76h.87z"/>
    <path region="52" short-name="State House District 27" long-name="State House District 27" value="1" d="m395.38 262.3 2.22-1.04 3.24-2.24.6-1.17 1.12-.57 3.75-4.05.95-.48 6.9.03 1.05.58.82 1.27.89.59.83 1.57.04 1.37-.27.5v9.27h2.96v2.95l3.38 1.04 1.05.47 1.48 1.24v.18l.01 7.37.01 1.48-4.36.02-1.6 11.75.2 2.09-.13.85-1.2 2.95-2.39 1.5-.82.87-.24 2.12-1.17.5-1.19.99.06.51-1.08 2-.98 1.1-3.62 1-4.05-.8-.89.16-.08.66-.57-1.46.2-2.11-1.2-2.4.36-.75 1-.86-.08-1.95-.54-1.4.41-1.49.27-2.14-.7-1.17.12-1.76-.24-.44.5-.87-.17-.62 1.01-1.02-.4-2.2.34-1.57-.98-1.64-1.04-.43-1.42-2.29.54-2.06-.5-1.26-.07-1.22-.66-.88-.14-1.25.28-1-.04-1.61-.45-1.52.03-.97.86-1.99-.02-.88-.7-2.36-.68-1.34-1.36-.44-1.16-1.02z"/>
    <path region="53" short-name="State House District 7" long-name="State House District 7" value="1" d="m430.15 140.33.96-1.79.94-.32 1 .38.78-.14.03 1.62 1.49.2-.1-.72 1.67.12.1.68.78.06.03.75.86.07 1.13-.32.54.25.18 1.64-.31 1.24-1.2 2.31v2.87l-.2.85.16 1.5h2.19l-.01 2-2.94-.03v-.42l-6.4-.1-.38-3.84-1.7-3.57 1.01-.22-1.06-1.57 1.7.02.07-3.18z"/>
    <path region="54" short-name="State House District 37" long-name="State House District 37" value="1" d="m426.4 273.8 6.66.01-.08 2.53.8 2.77.02 2.07h-7.4z"/>
    <path region="55" short-name="State House District 41" long-name="State House District 41" value="1" d="M450.85 283.03v-5.57l2.7.05.35.6 1.4 1.02.4.58 4.06-.03-.03-1.47h.87l.41.8h1.38l.83.4 1.1-1.3 1.13-.13.98-.92 2.23-.35 1.9-1.28.71-.16 1.75-.97 1.4 1.15.83.15 2.72-1.54.89-.35 1.51-.08 1.5.49.35.53 1.76-.98 2.44.76 2.13-.16.22.7.96.35 1.12-.5 1.49.58.44 1.64 2.22 1.3.33.55.1 1.8 1.19.87.24 1.24 1.51.75-.22 1.1.85.7-1.14 3.45.14.6-.6 1.16-1.33.59-.56-.23-2.2.61-.53.65-.65-.17-.64.53.07 1.02-.6 1.18-.78-.29-1.47.14-2.74-.52-.56 1.08-.6.5-.73 1.79-.92-.14-.85.43-.35 1.72-1.45.86-.28.77-1.44.38-2.07-.9-.41.39-1.91.23-.5 1.03-.64.5-.97-.83-1.46-.54-.2.75-.55-1.25-1.38-1.37-.92-1.52.15-1.25-1.46-1.18-1.89-.36-.04-2.15-1.75-.81-.6-.85-1.26-.13-.77-1.72.27-1.68-.56-.73-.92-.36-.85.36-1.96-.05-.17-2.18-1.84-.56-.75.24-2.54-1.1z"/>
    <path region="56" short-name="State House District 53" long-name="State House District 53" value="1" d="m443.56 317.43.86-.18 1.03-2 1.33-.16 1.42-1.54 1.63-.01V315h1.92l-1.02 2.2.4 1.51h2.2l.03.74h1.45l1.47-.86 1.46.1v1.48l-.34.47.5 1.28-.9 1.2.07 3.93 1.77-.25 2.74.19.93-.23-.85 2.02v3.52l-.97-.08-5.14-2.57-5.6-4.73-1.76-1.8-2.27-2.9-1.2-1.15-1-1.06z"/>
    <path region="57" short-name="State House District 11" long-name="State House District 11" value="1" d="m426.2 170.08 1-.52.92-.96 4.01.43.06 1.06 3.44.02.69.47 1.82.27.8 1.33 1.04.95 1.63.43.85.7.38.97.68.7v1.54l1.6.75-1.17.38-.65-.54-1.11.28-.45.69v2.49l.85.17.35.88-1.43.32-.53 1.34-1.5-.01-.75 1.07-2.11-.34h-8.79l-1.23-1.5h1.97l-2.16-2.96h-.96v-1.48h-.75l-.06-2.98-.23-1.12h1.77z"/>
    <path region="58" short-name="State House District 15" long-name="State House District 15" value="1" d="M412.83 187.87h1.24v2.96h1.72l.74-.43v-2.52h.75v2.96l9.62.01.07-1.48h2.16l1.56-.16 1.47-.6 1.64 2.38 2.27 3.06.18 1.3.65 1.43 1.36 1.9.06 1.07 1.27 3.68-.94-.6-2.13 1.2.58 1.15.74.22.42 1.8-1.59.98-2.37.76-.43-1.3-1.3-.28-.97.5-1.06.09-.9 1.13-.62-.01-.08 13.15-21.6 15.27-17.24 15.68-35.95-62.77 6.45-2.14 40.85-.39z"/>
    <path region="59" short-name="State House District 33" long-name="State House District 33" value="1" d="m454.53 263.38 3.04 1.16 1.14-.36 1.45.12 1.17.62 1.05-.2-.18.93 3.72-.65 1.5-.1 14.64.06 2.6-.32 6.22-.03.9.89.99 1.15.19.75-1 1.44-.4 1.49-.1 2.56-.32 1.12 1.2 1.38-1.5-.58-1.11.5-.96-.35-.22-.69-2.13.16-2.44-.76-1.76.98-.36-.53-1.49-.49-1.51.08-.89.35-2.72 1.54-.82-.15-1.41-1.15-1.75.97-.71.15-1.9 1.29-2.23.35-.98.92-1.14.13-1.09 1.3-.83-.4H461l-.4-.8h-.88l.39-3 .11-2.03.4-.76-2.39-.2-1 .24-2.63-.01-.54-2.6-.48-1.18-.7-2.59 1.41-.08-.02-1.36z"/>
    <path region="60" short-name="State House District 20" long-name="State House District 20" value="1" d="m434.95 229.43 6.03-.02 1.33-.42 1.14.35.34.57 2.12-.19.9.39v1.54l.98.03v2.66l-.18 1.25h2.07l1.46 1.13.83.2 1.57.9-.2.9.41.57 1.04.39.3.93-.91-.23-.3.47-1.15.08-.73 1.02-1.65.08-.2.42-7.08-.02-4.53.01-.13-.42.59-1.35-.6-1.52-.7-.82-.4-1.15-1.84-1.43.46-3.13-1.26-1.35.54-.7z"/>
    <path region="61" short-name="State House District 43" long-name="State House District 43" value="1" d="M441.11 291.5h2.53l4.78-.05v-3.17h1.47l.01-4.96.95-.3v.42l2.53 1.1.75-.24 1.84.56.17 2.18-.02 1.52-.32.74-.86-.75-2.11-.02v6.57l-.81-.27-.76-.7-1.33-.5-.03 2.26-6.3-.06-2.48-.63v-2.09z"/>
    <path region="62" short-name="State House District 61" long-name="State House District 61" value="1" d="m445.7 337.07.9-.75.96-.3.78.13 3.28-.08 3.97 1.03 2.37.75 2.97 1.87.81-.13 1.5.7.59-.49.38-1.15 1 1.34.05 3.03.03 9.27 2.1.04.89 1.76.88.95 1.58 1.24 2.06-.1.2-1.66-.79-1.21 1.86-.05 1.09.33 3.64.06.54 1.53 1.48-.04-.16 1.92.79 1.32-.01 2.47v.8h-1.4l-.48.29.8 1.04-.5.29v2.57l.41 1.72 1.23.83 1.22 1.2.63 1.24-.03 1.5-2.93.03.74.47-.95.1-1.3.7-1.2-.47-.97.17-.82 1.16-1.31 1.32-.72.4-.24-.94-.6-.22.52-2.28-1.88-.9-.97.5-.3.81.33.91-1.04.9-.68.12-.24 1.35.27.88-.89 1.34-1.94 1.04-2.8.93-1.75.3-.62-.14.24-.9-1.23-.55-.96.21-.76-2.6-1.14-1.87-.44-1.44.86-4.15.03-3.26.48-3.64.39-4.22-5.91-1.43-.23-.64.3-.88-.24-.74-5.1-10.09-.94-.97-.59-1.7-1.9-1.29.11-.8 1.17-1.62z"/>
    <path region="63" short-name="State House District 55" long-name="State House District 55" value="1" d="M461.65 332.3v-3.52l.86-2.02 3.16.1 2.4.38 1.02.76.75 1.67 1.17-.02v-2.2h-.75v-2.18h-.75v-1.47h1.47v-.74h-1.47v-1.79h.96l2.57-.95.53.98 1.2.26.75 1.36-.2 1.07 3.65 7.67 1.23 1.8 1.46 1.1 1.68.53-.08 1.33-1.1 1.36-10.6.02-1.65-.07-.25-1.54-1.24-1.29-5.16-1.56-1.5.25z"/>
    <path region="64" short-name="State House District 49" long-name="State House District 49" value="1" d="m402.87 310.93.08-.66.89-.15 4.05.78 3.62-1 .98-1.1 1.08-1.99-.06-.51 1.19-.98 1.17-.5.24-2.13.82-.87 2.39-1.5h5.8l-.01 4.62 1.32-.06v1.34h4.9l.2 1.95.59.87.68.29.65 1.18.67.51.55 1.02 1.17 1.07 1.3.48 1.26.01 2.07 5.87-.82.02.08 2.59-1.28 1-1.74.58-.36.68-.99-.3-1.1.53-.77.03-.49.57-.68-.83-.96-.4-.02-.74-1.03-.02-1.06-.47-.41-1.01.34-.77-.97-.3-.51.35-.8-.77-.5-1.26.65-.44-.65-.65-.72.06-.52-1.52-.08-1.03-.76-.4-1.38 1.62-1.9.74-1.13 1.34-1.85-.05-.41-.33-1.87.09-1.17.46-1.66 1.34-.38-.48.15-1.25-.21-.65-1-.72-.46-.87-1.17-1.2-1.82-1.2-1.54.41-1 1.48-.81-.25-1.15-.97.2-.83-1.01-2.2z"/>
    <path region="65" short-name="State House District 56" long-name="State House District 56" value="1" d="m461.76 333.59 1.5-.25 5.16 1.56 1.24 1.3.25 1.53 1.64.07 1.63 1.8.87 1.4v.47l2.31-.02.6.6-.06.85.47.6.45 3.49.34.37-4.03.02-2.76-.02-.16.15-.02 2.54-1.54-2.65-2.35-4.4-2.04.02-.05-3.04-1-1.33-.38 1.15-.59.5-1.5-.71-.8.13-.2-1.1h1.01z"/>
    <path region="66" short-name="State House District 32" long-name="State House District 32" value="1" d="m441.9 264.32.57-1.37-.89-1.01 3.38.11-.01 1.4 4.71.01 1.28-.2 2.8-.05.79.17-.24 1.26.01 1.36-1.42.08.7 2.59.49 1.17h-4.92l-6.29.02-.5.14-.1-2.03-.46-.98.2-.92z"/>
    <path region="67" short-name="State House District 47" long-name="State House District 47" value="1" d="M431.33 306.22h3.9l.01-1.38h1.47v-4.5h2.94v-.47l1.47-.24v.48l1.95-.08-.02-1.2h5.37v8.84l-1.27.05-.2-.8-2.01.26-1.5 1.26-1.3 2.16-2.55-.03-.45.24-.74 2.29v.5h-1.26l-1.3-.49-1.17-1.07-.55-1.02-.67-.5-.65-1.2-.68-.28-.6-.87z"/>
    <path region="68" short-name="State House District 60" long-name="State House District 60" value="1" d="M480.82 355.14h.05l.6.6h3.06l-.01-1.06 4.4-.05 2.2-.13.73-.79-.04-1.48 1.52.07v-.73l1.44.06v-.74l2.17-.04v.74l1.48-.01v.73h1.52v.72l1.62.2v2.89h-.85v2.9l-1.27-.02-.2.74-2.93-.02v.76h-2.93l.01.77-3.2.02-.18-1.09-.76-.2-.16-.66-1.6-.02-1.25 1.62-4.8-.07v-2.47l-.78-1.32z"/>
    <path region="69" short-name="State House District 28" long-name="State House District 28" value="1" d="m395.67 262.56 1.16 1.02 1.36.44.68 1.34.7 2.36.02.88-.86 2-.03.96.45 1.52.04 1.61-.28 1 .14 1.25.66.88.07 1.22.5 1.26-.54 2.06 1.42 2.3 1.04.42.98 1.64-.34 1.57.4 2.2-1 1.02.16.62-.5.87.24.44-.13 1.76.71 1.17-.27 2.14-.41 1.48.54 1.41.07 1.95-1 .86-.35.74 1.2 2.41-.2 2.1.57 1.47-.12.51 1 2.2-.19.84-2.68-.3-.84 1.28-2.55.6-.15.84-.2 1.4-1.66.25-1.86-1.54-1.26-.64-1.18-1-.92-1.08-1.23-.97-.59-.9-2.16-1.28-.03-2.4-.66-2.48-4.33.03-2.24 3-1.56.04 1.02-4.9-.76.23-1.18-1.14-.53.43-.51-.92-.87-.08.5-.95.04-1.07 1.12-2 .97.14.5-.65-1.8-2.62-1.71-1.17 1.9-.02-.05-2.93 2.94-.04-.03-2.2 4.4-.07 1.48-.22-.14-4.83.6-2.93-2.95-.13-.33-1.23 1.8-1 .67-.76-.33-.51.8-.93 1.34-.35 1.28.25 1.91-1.43.77-.9 1.07-1.92.22-.76-.1-1.94-.55-2.47-.05-.95.42-.58z"/>
    <path region="70" short-name="State House District 51" long-name="State House District 51" value="1" d="m439.73 322.07 1.08-.81 1.85-1.94.9-1.9.15.6 1.01 1.05-1 .4-.4 1.04.34 1.07.61.82.56-.17 2.02 2.78-.08.74-.65.24-.42.82.15 1.1.5.64-1.65 1.4-.05.96-1.18 1.31 1.38.79-.6.83.78 1.14-.04.71.77.33-.06 1.05-.53 1.16-1.17 1.62-.1.8 1.89 1.28.59 1.7.93.98 5.1 10.09-3.1.06-.55.73-.02.73h-.99v-2.18h-2.19v-.73h-.84v-3.64h-1.5l-.74-.73-.04-2.92.76.73h1.51v-2.19h-3.03v-2.5l-.16-.42h-2.87v-1.47h-1.46v1.48h-.74l.01-2.23 2.2.01v-1.27l-.54-.36.08-.8-1.73-1.27-.16-1.28-.56-.88 1.37-2.24.1-1.46.72-.75-4.41-.04v-1.05l1.78-.41 1.87.03.01.64 1.49.09v-4.43l.65-.01z"/>
    <path region="71" short-name="State House District 46" long-name="State House District 46" value="1" d="M448.42 298.82h1.65v.73l.92.03.36.74v1.46l1.53.02 2.13-.01.73-.86 1-.44.55.57h.8l1.32-.74.1-1.1 1.36-.38v-.73l.73-.74 1.48.02.01-2.23h1.5l1.88.36 1.46 1.18-.15 1.25.92 1.52 1.39 1.37.55 1.25-.35.86-.6.3-2.87-1.37-1.12 1.34-1.77.8-.45.81-.61.21-.57 1.71.32 1.5-2.02.85-.7.86-1.4.05-.9.53-.64.77h-1.08l-.47 1.59-.99.05-.46-.41-.78.93-1.86.57-1.67-1.53-1.45 1.04-1.42 1.54-1.33.15-1.03 2-.86.19-.9 1.89-1.85 1.94-1.08.81-.08-2.58.82-.03-2.07-5.86v-.5l.74-2.3.45-.23 2.54.03 1.3-2.16 1.5-1.26 2.03-.27.19.81 1.26-.05z"/>
    <path region="72" short-name="State House District 44" long-name="State House District 44" value="1" d="M425.07 294.43h2.84l.18-1.49-.43-1.46.27-1.5h1.47l4.31.02.02 1.48 7.38.02v1.61l-2.93-.15v2.2l-4.47.1-.13 1.74-.84 1.23-.12.62-.81-.07-2.25-.84-1.04.78-1.08-.6-.98-1.28-.9.59-.27-.8z"/>
    <path region="73" short-name="State House District 64" long-name="State House District 64" value="1" d="m461.02 380.8.63.15 1.74-.3 2.81-.93 1.94-1.04.9-1.34-.28-.88.24-1.35.68-.12 1.03-.9-.33-.9.31-.82.97-.5 1.88.9-.51 2.28.6.22.23.94.71-.4 1.32-1.32.82-1.15.97-.18 1.2.47 1.3-.7.95-.1.02 4h.99l.26.52h1.4l.8 1.5.04.8v2.3l-.19 1.29 1.6 1.72.88 1.72 3 2.1.15.91.76.38-.12 2.52.3.23-1.63 1.5-1.82 2.17-.47 1.03.29 1.16-.8 1.34.02.8.76.01.75-.73 1.4 1.82.84.54 1.46.24 1.37-.14-.79 1.85.17 1.58-.3.53.7.92.26 1.82-.92.27-1.29 1.34-.75-.08-.55.62-.4 1.87-1-.1-.6.98-.8-.06-2.22-1.05-1.54-1.05-.08-2.95-1.02.03-.66-1.44-.04-3.62-.71-.76h-1.5l-1.48-1.4v-1.68l.94.01.38-1.7 2.27-1.93.96-2.3-.37-2.2-1.27-.46-5.42-.02.06-2.6-10.49.09-1.74-1.65-.87-1.65-.72-.81.59-.4-1.07-1.29 1.11-.43-.2-1.1z"/>
    <path region="74" short-name="State House District 71" long-name="State House District 71" value="1" d="m202.99 879.86.79.09.77.51.92 1.9v1.8l3.28.02v-1.47l.68.08 2.8-1.17.39-.32 2.75.03.5-.14 2.3.06 2.73.61 3.04-1.34 4.59-2.93 2.17-.61 1.53-.73 2.05.25.54-.14 3.97-1.98 11.02-6.7v-.81l.71.01-.03-3.62-.99-1.04.33-.3h2.83v.72h1.38v.52l-.7.83 2.83-.01.03-1.33h1.43v-.96l1.36.24 2.54.04.34-1.43-.73-.71-2.07-.01v-1.43l.7-.71h1.04v.72l1.06.34.7.8.16-1.8-.17-.75H264l-.36 1.07.56.7.6.03-.01-.94 2.06.19.76-.62 1.11.16 2.73-3.37 1.23-1.29 1.57-1.37-.18-.51 2.07-1.21 4.02-2.71 8-6.12 3.78-2.27 7.5-3.45.72-.5.63-1.31.96-.15.53-.91.82-.07 6.24-7.6 1.17-1.77 13.56-31.66 1.16-1.8 6.1-6.66 3.87-5.46.38-1 20.84.12.03 28.87-.05 4.35h1.84l-.2 17.05-18.52.01v1.6h1.55l-.01 15.15-9.9-.42-4.33.23-2.84-.01.03 17.22.52-.02-.16 11.1.24 5.44.25.1-.02 17.15-15.58.04h-17.93l.03 8.44-20.97.05v4.91l-16.8.04v-1.31h-10.92v-.18l-5.63-.04.02-9.1-11.57-.03H206l-2.95.01v-4.76z"/>
  </g>
</svg>