<svg auto-border-stroke-width="1" auto-border-stroke-width-limit=".5" original-source='["https://www2.census.gov/geo/tiger/GENZ2022/shp/cb_2022_us_sldl_500k.zip"]' candidates="[{&quot;id&quot;:&quot;0&quot;,&quot;name&quot;:&quot;Democrats&quot;,&quot;margins&quot;:[{&quot;color&quot;:&quot;#1C408C&quot;},{&quot;color&quot;:&quot;#577CCC&quot;},{&quot;color&quot;:&quot;#8AAFFF&quot;},{&quot;color&quot;:&quot;#949BB3&quot;}]},{&quot;id&quot;:&quot;1&quot;,&quot;name&quot;:&quot;Republicans&quot;,&quot;margins&quot;:[{&quot;color&quot;:&quot;#BF1D29&quot;},{&quot;color&quot;:&quot;#FF5865&quot;},{&quot;color&quot;:&quot;#FF8B98&quot;},{&quot;color&quot;:&quot;#CF8980&quot;}]},{&quot;id&quot;:&quot;2&quot;,&quot;name&quot;:&quot;Independent&quot;,&quot;margins&quot;:[{&quot;color&quot;:&quot;#DCDCDC&quot;},{&quot;color&quot;:&quot;#E3E3E3&quot;},{&quot;color&quot;:&quot;#EAEAEA&quot;},{&quot;color&quot;:&quot;#F1F1F1&quot;}]}]" version="1.1" xmlns="http://www.w3.org/2000/svg" viewBox="0 0 1000 620.37">
  <g regions="y" transform="translate(0 -189.81)">
    <path region="0" short-name="7th Bristol" long-name="7th Bristol District" value="1" d="m653.6 634.82 1.97 1.49 1.79-.12 1.19.72-.03 2.01 3 3.42-.82.8-1.07 3.75-2.32-.58-1.92.49.7 2.92-.74 1.1-3.9-.95.03-1.24-5.48-1.38-1.56-2.53 3.19-3.6 4.36-4z"/>
    <path region="1" short-name="7th Hampden" long-name="7th Hampden District" value="1" d="m274.84 443.07 21.56-3.22-2.2-14.08-2.57-16.42-2.26-16.4-3.2-21.19-1.72-9.96 10.3-1.82 3.76-30.29-5.61.82 1.92-14.48-.78-2.27-1.16-.98-1.27-2.73-.52-2.4 1.2-.47 5.75-5.41 1.11-.71-.17-1.43 1.7-1.4 1.49-2.32 2.85-.04 3.8 3.59 2.74.16.98.77 1.3-.76 3.1-.6 3.15 1.6.83-1.26 1.55.21-.84 18.7 23.87.55.62 5.24 6.77 7.57 13.55-13.45 3-.54 23.66 25.27-29.11 24.99-3.88 8.39-2.96-1.8-1.92 1.13-.41 2.49-1.77.9-3.87-1.97-1.66 2.6-1.75-1.44-1.02 2.23-2.09 2.22.55 1.54-1.54.58.19 4.39-1.22 3.57-3.54 1.43-1.5 1.5-2.28.61-2.3 3.45-.8 1.9-.33 3.03-1.42.4-.82 1.61-1.92.3-1.06 1.66-2.32 1.62-.2 2.2.64 1.55 1.12.44-.63 3.51 3.52 2.22-.15 1.64 2.01 1.7-1.6 3.35.72 3.94v3.75l.5 1.59-.27 2.73-.85 2.33.19 1.56-1.5.12-1.26 1.23-.1 1.95-1.61 1.43-1.4-.75-2.03 2.2 1.32 2.58-.08 2.33-9.87 1.66.06.35-.74.87-3.27 1.8-.67 4.08.5 1.62.2 3.32-1.11.28-1.72-1.51-3.08.58-1.78-.38-3.2 1.18-1.33-.61-2.89.74-4.09-.13-1.77-1.18-2.22-1.8-3.34-.34-3.21.52-.77-4.92 1.35-.2z"/>
    <path region="2" short-name="19th Middlesex" long-name="19th Middlesex District" value="1" d="m635.95 294.3.95.21 3.5-.52 3.85.1 1.73 1.04 1.66-.22.08 1.56 2.27-.83 4.6 3.93 1.5-3.66.25-2 1.17-.89 1.61.8 1.53 3.46 2.16 1.87 1.37 6.07-1.73 11.25.5 2.75 1.02 5.45-10.82 6.18-9.78-10.97-1.33-.59.26-3.23-2.55-2.46.63-.58.17-3.03 1.12-1.05-19.3-12.11 1.98-1.1.94.6 1.48-.9 1.03 1.25 2.82-2.73.65-1.74z"/>
    <path region="3" short-name="15th Norfolk" long-name="15th Norfolk District" value="1" d="m662.32 397.76-.45-1.65 1.02-1.1 3.1-2.1.77-.04 4.12.66-.1.5.4 1.8-1.43 1.3-.06 1.82-1.43 3.68-4.27-.55-.44-.96-2.9-1.77z"/>
    <path region="4" short-name="25th Middlesex" long-name="25th Middlesex District" value="1" d="m665.9 377 .95-.03 1.5 3.24 3.47 4.1-1.04 1.61 1.44.66-1.94 2.67h-2.23l-.15-2.32-1.67-.59-2.18-1.87.96-5.11z"/>
    <path region="5" short-name="12th Plymouth" long-name="12th Plymouth District" value="1" d="m808.04 520.35 1.98-.03 2.96 3.4-1.35.9-3.17-1.68-2.37 1.69-2.62 3.48-2.02-.38-.57-4.53.43-1.83 1.6-.46-.14 2.65 1.28 1.32 1.57-1.72 2.8-1.92zm-79.23 6.46.12-4.7.83-.71 2.97.41.01 3 .87 1.77 1.28 1.03 4.47 1.25 2.02-.37.13-2.76 2.12-.54.75 1.63 1.8-.4 1.6.66.52-3.27 1.81-1.71 1.53-.68 2.2 1.44.65-2.27-1.8-2.53-.36-1.64-5.16 1.66-3.16-8.7-.66-2.31.36-2.35 2.52-1.59 2.46.51 3.23 2.94-.8.89-.6 3.39 1.36-.28 4.14 1.78.02 1.88 1.4 3.45 5.91-.97 1.69.41 10.68 1.64 1.97 3.12.67 2.48 3.01-.14 3.07 1.86.3 4.19 2.23 2.18 2.69.8 1.42 2.59 3.3 4.59 3.14 2.84 2.2 1.2-2.07-.05-.32 1.57-1.08 1.21-.97-1.2-1.48 1.82-2.4-1.55-1.81 2.17-1.46.47-.4 2.5-5.14-.22-1.28-4.08-5.08 4.09-2 .07-1.5.99-2.57.53-2.1-7.65-3.64.52-16.24 6.92-3.83-4.9-.44.7-3.06.2-.58.57-1.14 3.73-1.19 1.38-1.41.32-.7 2.27-1.98 1.64-3.94 1.15-5.52.5-1.95-.7-1.1-1.3-2.4 2.95-1.26-.4-4.53-2.52-2.06-2.57-4.4-.66-1.54 1.29-1.67-.48-1.84-1.7-.89-1.75.4-2.08 2.42.75.62-2.02 1.97-1.11 1.86.08 4.84 2.3 2.89.43 2.04-3.25.55-1.48.23-3.05 1.06-2.08 2.3.03.57-1.3 1.95.13 2.1-2-.38-2.55-.8-2.25 2.82-1.03z"/>
    <path region="6" short-name="Barnstable-Dukes-Nantucket" long-name="Barnstable-Dukes-Nantucket District" value="1" d="m914.61 792.47 5.32 2.25.93 1.46 2.78-.33 2.2-1.4.6-2.32-1.14-1.52-1.79 1-.97-1.22 1.83-1.84 1.6-.2 1.8.82 17.46.25 4.15-.57 1.45-.73 3.43-.15 2.81-.5 5.45-3.58 4.6-4.81 4.12-6.58 1.93-7.92.11-2.98-2.96-3.86-3.06-1.71-1.1-1.6.13-1.42 1.77.89 6.24 7.56 16.8 33.58.02 5.27-1.1 3.4-1.1 1.64-1.94 1.66-7.43 2.45-3.8.73-10.6-2.26-8.48-.27-2.49.54-2.26 1.02-5.07-.66-14.44-5.6-14.25-7.3zm-11.9-9.53 3.83-.07 4.58 1.96 1.05 1.04.83 2.81-.96 1 .15 1.47-1.38.2-1.36-1.63-2-1.1-2.5-2.15-2.24-2.55zm-9.02-9.22 1.3-.88 3.43.24.33 1.53-4.51.47zm-92.48-107.6.75 1.18-1.3 3.55 2.12 1.76 3.16-3.02 6.95.27 1.92 1.2 2.01-.01 2.94 2.41-.35 2.6-2.27-1-2.4 1.24.7 2.23 1.74.73-2.85 4.78-.85 4.55.78.2 1.25 6.95-1.4.08-2.24 1.13-2.58-.34-6.3 1.77-2.79 2.2-3.63 6.56-1.73-1.19h-1.53l-1.33-2.12-1.53.8-1.92.06-.67-1.06.23-1.98 1.04-1.28 1.92 1.47 2.32-1.47.44-2.63 2.2-1.28 1.2-2.44-.29-2.83.41-2.86 1.3-.24.13-1.52 1.69-.93.5-1.85-.3-2.14-2.91-8.27.12-1.86 1.44-1.24.2-2.32zm-46.68 61.97 1.27-.26-.11-2.08 1.29-1.47 1.65-.18 2.31-3.23 2.42.32 2.1-3.99 1.74-.1 1.92-1.1 2.16-3.31 2.67-1.63 2.07.4 3.18-3.61 2.4-2.26 2.15-.27.86 2.26 3.39.46 2.52-1.86 1 1.86-1.92 1.9-2.33 1.02-1.07-.86-3.71 2 .7 1.74-2.16 2.3-2.81.88-3.37.52-3.58 3.38-2.66-.46-1.2 2.26 1.5 2.18-1.53 2.25-1.48.22-.41 1.06h-2.35l-2.27 2.74-1.67 1.41-2.68.14-1.46-1.57zm-6.96 74.1 3.45-.21 1.54-.83 3.52 1.44-.75 3.33-5.94-1.05zm-1.89-32.62 1.4-2.3 3.9-.07 2.1-.8 3.36.72 4.74 2.22 2.33-.5 1.7-1.52 2.86-5.1 2.67-3.06 1.12-.52 1.3-2.3.96-3.27 1.43-2.33 2.1-.43 1.3-2.13 2.03-1.56.26-2.46 1.38-1.4.23-1.79 1.33-3.72 3.09-1.06.85-1.67 2.13.27 2.06-.65 1.66-3.26.24-1.91 1.51-1.66 4.9-.61 6.17-4.58 4.6-2.9 1.43.46.74 4.63-1.13 2.72.2 2.26 2-.2.99-1.53 1.33-.26 2.46-2.81 2.1-1.1 1.13.77 2.8 6.03.1 3.56-.75 4.67.7 2.58 1.54 3.02 2.6 2.46 2.7 1.54 3.08.5 2.96 1.3 1.29 3.08.3 2.46 2.94.65 1.75-.99 1.7-2.16 1.88-1.53-.38-4.67.63-1.54 1.94-2.33 3.17-.85.58.27 1.17 9.02-.85 5.98.28 9.96-1.1 1.43-3.1.87-5.34-.34-3.52.33-12.09-.54-11.41-.4-19.46 1.14-11.82 1-5.22.95-6.55 2.05-3.99 2.33-.24 1.17-1.58.71-2.83 2.3-1.07 2.51.52 1.12-.7 1.95-1.95 1.02-7.38-4.92-4.85-4.84zm-.44-39.35.6-1.17 1.6-.72 2.74.43.58-.64 3.44 3.36-.5 2.16-1.22-.83-2.36.23-2.23 1.5-1.67-.26-1.31-2.67zm-17.66 8.23.72-1.37 1.8.64 3.45.07.54-2.02 2.17-.51 1.26-1.12 1.21-.07 1.84-2.87.68.61-.33 2.99 2.03 2.88-1.44 1.62-2.5 1.64-2.39.75-3.68.22-1.39-.42-3.62.34-.88-1.32zm-6.1-7.8 1.33-1.06 1.54 1.31-1.45.8zm-6.64 13.4 1.52.28.74-2.5 1.14-1.32 1.3.07 1.37-2.51 1.22.58 1.12 2.56-1.19.34-1.59 2.56-2.27 1.3-3.3.95z"/>
    <path region="7" short-name="2nd Berkshire" long-name="2nd Berkshire District" value="1" d="m47.27 367.57 5.41-28.35 1.24.19.94-4.42 36.2 7.27-2.69 13.58-4.07 19.46z"/>
    <path region="8" short-name="2nd Bristol" long-name="2nd Bristol District" value="1" d="M594.02 557.49v-.06l12.78-9.75L619.34 536l-.11 1.2 1.07 3.93-.68 3.1 1.13.2 1.3 1.92 1.47-2.04 3.35-1.63 3.24-.18 2.55.26 9.84 16.9-4-1.27-21.86 3.22-10.63 1.97-4.4.7-7.54 1.24z"/>
    <path region="9" short-name="14th Bristol" long-name="14th Bristol District" value="1" d="m594.09 531.04 4.78-.08 21.25-10.97 21.42-11.27-1.85 3.48.86 1.76.21 2.08-3.2.23-9.64 18.3.3.55 4.44 7.65-2.55-.26-3.24.17-3.35 1.64-1.47 2.04-1.3-1.93-1.13-.2.68-3.09-1.07-3.92.1-1.22-12.53 11.68-12.78 9.75z"/>
    <path region="10" short-name="5th Hampden" long-name="5th Hampden District" value="1" d="m234.76 440.53 3.14-.86 6.13-17.44 5.99-4.65 2.2.68 1.13 1.21.67 4.29-.4 1.7-2.1 1.82-2.86 4.6-1.69 4.91.44 1.95 2.05 1.28 1.23 2.79 1.94 2.1 2.89.86.87 2.97-.39.97-4.04 3.68-4.2 2.03-1.37 1.83 3.2 2.1.03 1.52.08 1.33-2.4.57 1.59 1.6-2.84.07-16.08-.34-.55-7.7.18-2.06-1.2-9.14 5.72-1.3z"/>
    <path region="11" short-name="10th Bristol" long-name="10th Bristol District" value="1" d="m746.53 674.44 1.6-.81 1.67 1.86-.41 1.2.56 1.71 1.42.34-1.32 2.98-1.79-.65-2.48-4.43zm-30.16-37.72.41 2.16 3.75-1.62.63 2.61 2.62 1.87.82-2.4.86-.1 2.25 1.4-.93 2.32.56.84 4.24-.5 3.68-1.06.9 1.35 1.43-1.4 2.3 1.46-7.52-28.26-5.03.84-4.84-12.46 7.09-1.15 34.82-5.47-.31 2.56-1.37 2-.2 1.86 1.14 8.31-1.64 4.41-.38 2.57.87 2.74 1.18 1.56-.2 1.98 1.85.09 1.28-1.8 2.3-1.29 1.44 1.6 2 .81-.35 1.2 1.65.5 2.65 1.76.65.95-.49.42 2.02 3.7 1.8 1 .8 1.23-.62 1.98-2.38-.79-1.32.53 1.2 2.4 1.6.76-.26 1.43.93 3.42-1.81-.17-2.2-2.5-2.85-1.35-1.33-2.33-3.07 1.37.81 1.55.93 3.66-.93.73-1.66-.8-1.52 1.4 1.99 3.71-1.46.53 1.04 1.6.32 3.11-1.5.07-1.12 1.6-.8 2.73-1.21-1.46-.86-2.14-3.94-.92-1.23.86-1.99-1.8-1.86-1-3.52 1.34-.46 2.19 5.2 2.92 1.24 3.52-.24.83-2.57 1.74-2.07.54-1.23-1.52-1.6 1.07-2.1.04-2.47-1.67-4.33 1.82 1.27.85.4 2.94 1.13 1.4.46 2.71 1.33 2.4-1.17.43-2.6 4.37-.98-4.08-.96-1.11.2-2.34-1.66-4.04.15-2.99-1.2-1.92-4.62-1.9-1.5 3.28-3.14.2-.5-2.59-1.56-1.5.78-1.97-.42-1.65-1.42-.18-.84-1.69.98-3.89-.28-2.5.56-2.92-.44-2.42-4.61.29-.4-5.07-2.78.18-.56-1.54z"/>
    <path region="12" short-name="31st Middlesex" long-name="31st Middlesex District" value="1" d="m659.86 349.69 6.21-2.88 3.27-.16-1.31-7.85-.84-2.18 5.32-.73 2.98.4 1.26 3.35 2.88 1.64-.69 4.02-.43 6.09-.8 6.58-6.32-1.86-4.1-1.74-1.6 5.38-1.09 1.37-14.87-.25 3.83-3.92 1.89-.44 1.33-1.47.22-1.99 1.1-2.57z"/>
    <path region="13" short-name="17th Essex" long-name="17th Essex District" value="1" d="m655.4 258.54-.88 1.8-2.97 2.8 1.21 2.62-.4 1.66 1.45.11.54 1.2 4.06-.94 4.68 1.87 2.13 1.88-.92 2.17-1.37 1.3.65 2.25-2.62.78-1.71-1.51-1.44-.44-3.67-.24-2.45-1.11-2.58.15-1.17-.56-.09-2.28.98-2.06-.94-7.74-.58-5.5 4.97-3.98 1.66 2.4-1.72.14z"/>
    <path region="14" short-name="3rd Barnstable" long-name="3rd Barnstable District" value="1" d="m800.35 631.35 1.03-3.9 1.9-2.11-.03-1.53.94.53 1.98-.57 3.03-1.88 6.12-1.82 1.43 4.47.03 3.92-6.49 1.97-.5 1.88.17 3.48 1.43-.44 1.61-1.48 4.03-.33-.18 2.83 2.96-.11 1.27-1.68 5.77 3.78 1.82-.31.2 3.47-1.6 5.15-.94 1.85-4.64 5.76-.34 4.03 7.9 3.1 1.05-1.52 3.55-3.42 1.07-2.36 1.65-6.36.57-.87 3.9 1.86 1.05-.8-.87-1.8-.12-2.02 5.3-.61.93 2.49-2.03 4.66.45 1.85 1.45.48 1.2-2.32 3.45.72 2.14 2.66.89 1.7.38.76-2.19 4.17-1.15.64-2.19.15.48 1.7 3.23-.9 1.13 5.11-3.37 5.56-1.1 3.6 1.79 3.01 2.3.4-.1.98-2.95 4.92-4.19 4.97-2.6 1.59-2.14.82-8.13 1.15-1.75.84-2.85-1.7-2.24-.05-3.6 1.15-3.93.54-1.9.98-2.3-.4-1.25-6.95-.78-.2.85-4.55 2.85-4.78-1.74-.73-.7-2.23 2.4-1.24 2.26 1 .36-2.6-2.94-2.41h-2.01l-1.92-1.2-6.95-.26-3.17 3.02-2.1-1.76 1.3-3.55-.76-1.18-.5-1.78-1.4-2.1 1.33-.2-1.15-1.93-1.2-.36-.07-1.67 2.86-1.04h1.88l2.14-1.4 1.55-1.72-3.13-2.4-.83-.03-1.68 1.61h-1.4l-1.74-1.34-.5-1.51 1.44-1.22 1.71-.3 1.45.67 1.22-.41.05-1.92-1-1.65-2.48-.52-3.39-.04-.09-1.1 3.27-3.5 2.6-1.06 1.44.12 2.98-1.58-1.6-4.67-2.03-.42z"/>
    <path region="15" short-name="28th Middlesex" long-name="28th Middlesex District" value="1" d="m685.89 366.59.6-.6 6.27-.55-1.38 3.78-2.85 1.18-.28 2.14 1.07 1.3-3.41-.44-1.95.23-2.01 2.95-1.83 1.12-.7-1.74v-1.25l1.31-2.73-.63-.94.2-2.08 3.46-.42z"/>
    <path region="16" short-name="11th Suffolk" long-name="11th Suffolk District" value="1" d="m689.32 373.84-1.07-1.3.28-2.14 2.85-1.18 1.87 3.06 1.58.99 3.2.88-1.12 1.43-.76.57-1.23 3.12-2.01 1.36-3.23-1.05-1.4 1.37-1.1-.94-1.98-.54 2-3.6z"/>
    <path region="17" short-name="6th Essex" long-name="6th Essex District" value="1" d="m734.08 294.5 18.37 6.81 1.25 3.5.88 1.46 3.5 4.22.25 1.87-2.96 1.02-3.15 2.81-2.35.89-3.57.22-2.49 1.17-1.3-1.12-3.07 2.28-2.1-1.29-1.83 1.59-1.51 2.63-1.84-.2-4.35-2.62-1.57-.27-1.12-.43 1.06-4.13.06-5.87-3.9-7 10.17.23-.87-4.13 1.58-1.6-.25-1.7z"/>
    <path region="18" short-name="11th Norfolk" long-name="11th Norfolk District" value="1" d="m625.34 449.94 3.18-1.34 1.9.55 5.35-20.48.86-2.74 2.68.12.41-1.82 4.14.53 1.74-.66 2.47-4.32 1.41 1.7 1.78-.33 1.07 2.46-.46.72 4.48 5 .73-.5 1.07-.67 1.53.94 1.11 7.45 3.33 3.05-1.77.45-.83 1.05-.96 4.14-1.37 2.48.62.72-2.41 2.84-6.67-5.79-4.96-.6-3.98 1.9-7.72 9.83 1.33.55 2.09 3.6-.82 1.46-2.96 2.65-3.53-2.32-1.43-1.8-.37-1.37-1.3-.5-3.42-.16-.02-1.69z"/>
    <path region="19" short-name="3rd Bristol" long-name="3rd Bristol District" value="1" d="m656.3 549.56.93-.93 8.18-10.66 7.06-9.97-15.53-2.96-1.4-9.39-.73-4.83 1.68-2 .3-2.02 2.57-.67 2.77-.24 2.38.5.78 1.97 2.8-.7.83 3.39 1.3 1.85 3.45-1.11.72-.82 4.31 18.48-2.4-.57.51 3.19 1.4 2.57-.96 3.71.9 2.29-1.37 3.48-.23 1.5-1.8 2.73 4.75 7.77-3.9-.3-.1 2.08.98.99-1.05 1.23.5 2.61 1.14 1.1-1.62 3.82-1.27.4-1.13 2.13-1.98-1.84-1.9-.86-1.29 1.88.69 2.63 1.58.51-1.29 3.7-1.83.24-2.88-2.3-15.68-3.4-1.99-11.79z"/>
    <path region="20" short-name="6th Middlesex" long-name="6th Middlesex District" value="1" d="m594.56 407.86-2.17 3.75-4.19 3.3.88 4.8.98 2.91 1.54.38-2.07 3.92-6.01 1.6-11.61-8.23-8.54-3.43 3.6-3.25 1.91.1.91.86 2.23.35 3.03-1.74.62.94 2.35-1.6 1.25-.17 4.22.9 3-.17.67-1.2-.34-3.15.4-1.44 1.45-.71z"/>
    <path region="21" short-name="10th Norfolk" long-name="10th Norfolk District" value="1" d="m576.6 459.6 3.88-1.7 1.85.48 5.94-.25 7.45 16.33-1.17-.05-.05 3.4 3.43 7.27 2.35 6.68-1.68 5-6.42 13.25-18.89 2.3.32-3.47-.14-10.77 2.42-11.06.72-5.71.41-5.4z"/>
    <path region="22" short-name="11th Middlesex" long-name="11th Middlesex District" value="1" d="m627.9 392.13 6.37-2.6 3.44 1.37.73-1.25 1.72-.3 4.94 2.63 1.95-.57.46-1.84 2.26-.1 1.92.53 2.13-.3-1.76 2.52-.24 1.18 2.26 3.88-.24 2.48-2.1.32-2.95-1.47-2.55.29-1.12-.83-2.32.67-.2 1.08-2.6.49v-1.91l-1.56.6-3.1-1.14-1.2 3.08-1.9-1.28-1.58 1.76.38 2.04-1.05-1.17-1.25.85-3.5-1.36 1.9-2.57 2.04-1.55-1.69-1.2.9-2.98z"/>
    <path region="23" short-name="4th Hampden" long-name="4th Hampden District" value="1" d="m193.8 428.7 21.96-3.66-.15-3.79 3.15-.58 1.06.66 2.47.2.95 2.06 2.93.37.84 1.49-.69 2.09-.95 1.07 5.25 4.88-1.27 2.15.36 2.05-.51 3.68 5.56-.84-.63 3.38-5.73 1.29 1.2 9.14-.18 2.05.56 7.71-.19 3.16-1 3.1.63 2.4-3.5.3.07 2.3-2.78 1.54-3.84 1.03-1.66-2.55-1.52-1.27-1.83 2.79 3.78 1.32 5.86 6.38 3.19 1-1.98 5.58-1.13 3.86-36.66-8.06-.58-3.58-4.08-1.24.7-3.55 2.42-1.02-.42-1.6 2.27-1.11v-1.08l2 .08 4.5-7.1 1.49-.57 2.69-3.2 3.39-13.06 1.32.28-.3-6.61-2.76-.01-.4-7.38-5.35.72z"/>
    <path region="24" short-name="10th Essex" long-name="10th Essex District" value="1" d="m706.8 339.34 3.6.85 1.55-2.63 2.69 1.15 4.41 1.5 3.12 8.36-3.22.21-3.2 1.4-3.24.32-.24-1.85 1.7-1.93-1.36-1.31.29-.96-1.64-1.2-1.49.96-.87-1.41-2.59 1.75-.58-1.69-1.2.12-.38-1.72.89-1.58z"/>
    <path region="25" short-name="12th Essex" long-name="12th Essex District" value="1" d="m724.81 321.02.22 5.08-.79-.29-1.19 3.12-8.41 9.78-2.69-1.15-7.65-5.29-3.48-2.88 2.83-6.32-1.69-.26.14-2.65-1.08-.44-.12-2.06.43-2.97-.5-1.54 5.45 2.38 9.58 3.1 2.48.25z"/>
    <path region="26" short-name="15th Essex" long-name="15th Essex District" value="1" d="m629.36 246.9 2.7-2.25 3.39-1.11 2.65-.46 11.76 3.46-1.2-20.2 5.54-6.7 5.13-2.98.74 1.33 4.13 4 2.33-.12 1.18 1.24 1.18-.4 1.58 2.38-1.65.96.4 1.3-.97 1.76 4.46 1.8-1.49 2.53-.13 2.33.59 1.26 2.18-.3 3.3-3.2 2.2-.71 2.65 1.02.21 1.77-.76 1.3-2.82.74-1.53 3.37-.25 3.48.27 2.46-2.31-.2-1.5.68-3.02-.02-1.94-2.21-.24-1.2-3.11-3.96-3.2 3.57-2.67.43-2.02.79-3.46.39.25 2.09.91 2.1-.4 1.66-5.26-.8-2.2-.56-2.93.79 1.35 2.4.2 2.4-2.54 2.77-1.21.83.17 1.69-1.4-.24-1.74 1.05-1.01 1.92-.36 3.42-.92 2.37-2.46 3.34z"/>
    <path region="27" short-name="1st Hampden" long-name="1st Hampden District" value="1" d="M340.64 392.74h1.26l.8 6 .8-.12.4 2.66-.82.12 1.5 10.25 3.55-1.24.1.72 4.76-1.02.25.9-.5 3.11.43 1.67-.32 3.65-.64 2.51-.15 2.69-.97.68.2 2.4 2.63-.98 2.46 1.3 2.86-1.7 1.58 1.29.11 1.3 1.4.2v1.66l7.99-.04 1.45 5.37 1.61 1 4.93 10.3 3.35 17.41 8.49-1.3.79 4.85 6.12-1.07-.74-4.8 16.75-2.74 1.52 12.3-6.37 2.59 1.77 11.57-1.75.28-1.5 5.66-.36 2.23-1.57-.04-.51 1.4.08 2.66-1.64-.1-2.23 5.13-7.07 11.15-10.05-.54-31.8-.52-5.9-.03.16-22.88-1.22-19.3-1.66.13-1.19.85-3.52-1.27-4.61.21-3.46-2.81-1.16-.22-1.3-2.5-2.34-.94-3.12.07-1.7.85-1.38 1.53-4.76.86-1.81-.02-1.73-12.21-.07-.35 9.87-1.66.08-2.33-1.32-2.58 2.03-2.2 1.4.75 1.61-1.43.1-1.96 1.26-1.22 1.5-.12-.2-1.56.86-2.34.28-2.72-.51-1.6v-3.74l-.73-3.94 1.61-3.35-2-1.7.14-1.64-3.52-2.22.63-3.51-1.12-.44-.63-1.55.19-2.2 2.32-1.62 1.07-1.65 1.9-.3.83-1.62 1.42-.4.33-3.03.8-1.9 2.3-3.45 2.27-.62 1.51-1.49z"/>
    <path region="28" short-name="3rd Essex" long-name="3rd Essex District" value="1" d="m659.33 216.66 4.3-2.01 4.68 1.4 14.4 4.35 2.97-10.22 15.08 8.6.28 1.14-1.35 2.45-3.23 2.37-1.29 1.83-.64 3.98-4.49 7.87-1.28.72-.55 3.05-1.07 1.1-2.94 5.2-3.7-.08-.54-.69-2.83-.76-.27-2.46.25-3.48 1.53-3.37 2.82-.75.76-1.3-.2-1.77-2.65-1.02-2.22.72-3.3 3.2-2.17.3-.6-1.26.14-2.33 1.49-2.54-4.46-1.79.97-1.76-.4-1.3 1.65-.96-1.58-2.38-1.18.4-1.18-1.24-2.33.11-4.13-3.99z"/>
    <path region="29" short-name="13th Bristol" long-name="13th Bristol District" value="1" d="m715.4 651.93-1.53 1.7-.2 2.17.54 1.3 2.32-1.2 1.98-.26.84 3.6-1.66-.14-3.42.45.46 1.45 1.21-.18.25 1.66 3.87-.07 1.38 3.63.81-.33-.28-2.34 2.93-.94 1.56 1.5.5 2.58-2.07 1.61 2.43 3.33 1.65 6.62-.96.4-2.45-1.47-1.61-4.47-1.62-2.56-2.26.4-.03 2-1.14-.8-.5-1.62-3.71-2.45-2.77-5.88-.23-1.33-2.58-3.15-.86-4.43z"/>
    <path region="30" short-name="1st Berkshire" long-name="1st Berkshire District" value="1" d="m43.47 332.94 12.72-46.52 11.74-43.05 34.16.92 33.43.9-.2 14.62 7.22.54 13.48-1.46-.17 1.5-1.02 1.15.35 2.47-3.12 1.58-2.17-.6-1.65 1.2.52 2.08-3.95.84.14 1.52-1.12 1.2 1.3 1.4 2.4 1.24 1.05 1.17 3.96-2.27 2.02.46-.2 4.29.74 1.37.53 3.76-6.81 32.24-1.02 5.47 2.92.6-2.98 15.99-2.01 11.8-.46-.1-1.27 6.76-4.59 23.22-.73 3.05-15.1-3.57-.77 3.18-20.19-4.69 1.44-7.13-9.37-.3 3.3-15.43 9.21.34 2.98-15.07-1.83-.4 3.47-16.3-10.83-1.74-9.94 21.09-36.19-7.27-.94 4.42-1.24-.19-5.4 28.35-12.48-2.62z"/>
    <path region="31" short-name="15th Middlesex" long-name="15th Middlesex District" value="1" d="m624.47 352 3.12-6.27 1.35-.83 1.31-2.49 3.1-1.9 4.95 5.55-4.03.9 1.34 1.7-.15 2.39.7 3.3-.53 1.5 1.97 1.05 4.72-4.45.23-1.54 5.5-6.48 1.5-.92 4.49 1.9 3.1-.3 1.6 2.03 1.12 2.55-1.75.79-1.1 2.57-.23 2-1.33 1.46-1.89.44-3.83 3.92-5.68 8.11-2.42 3.32-15.63-6.95.3-2.08-.8-4z"/>
    <path region="32" short-name="14th Essex" long-name="14th Essex District" value="1" d="m668.36 245.2 1.94 2.22 3.02.02 1.5-.67 2.31.2 2.83.75.54.7 3.7.07 2.94-5.2 1.07-1.1.55-3.05 1.28-.72 4.49-7.87.64-3.98 1.3-1.83 3.22-2.37 1.35-2.44-.28-1.15-.32-2.91 1.59-1.4 4.56-1.04 2.67.8-1.56-4.5 4.7-.53 5.96-1.6-.1-2.2-1.33-1.4-.72-1.77 3.75-1.24 1.51-.14.98 1.5 2.67-.72 2.1-1.93 1.4 5.05-1.21 5.14-2.68-.9-.53-1.69-1.44-.14-1.22.99-2.42 3.97-1.8 2.09 2.67 3.15.32 2.08-.33 2.33 3.74 5.8-2.38 2.35-4.6 2.45-4.44 3.5-1.43.1-1.06 2.7 2.1 1.7-5.53 1.96-8.88 5.5-2.28.23-2.11.86-2.14-.39.85 5.45 1.53 5.07.7 1.18 8.85.32.1.49 4.25 1.92 7.76 5.22-4.43 2.22-.75.88-.14 1.17-.66-.7-2.93-1.08-2.34 1.3-.97 2.03-1.58.7-1.5 1.47-6.14-2.58-3.42-.46-.82-1.92-1.75-2.18-1.4 1.2 1.01 1.09-.96 2.04-5.65.53-3.6-1.67-2.94.08-.85 1.31-2.5 1.42-2.12-.97-1.1 1.59-2.25-4.1-2.13-1.89.24-1-1.57-1.89.36-2.98-1.53-1.83.96-2.41.8-.38 1-3.49-.2-3.02 4.37-5.75z"/>
    <path region="33" short-name="9th Worcester" long-name="9th Worcester District" value="1" d="m495.76 435.8.62-1.24 3.7-1.43 1.84-.03 1.88-1.21 8.44-1.51.98 2.89 5.8-1.17.5 1 1.1 6.99 6.53-1.6 6.08 1.85-.81 2.97 5.4 8.5 3.17.34-.2.72 4.32.1.3 3.76-.06 1.98-1.7-.52-.35 2.5.55.83-.89 1.77.98 2.56-2.91 2.43-.06 3.57.45 1.2-.96 1.28-5.4 5.33.04 2.79-3.05.8-13.22 6.26-.9-.33-7.23-2.65-1.56-1.45-6.18 2.7 4.38-7.61-3.53-1.87 3.05-4.1.65-4.92-.64-4.53.63-.71-1.06-4.78-6.54 1.06-1.37-6.98z"/>
    <path region="34" short-name="3rd Hampshire" long-name="3rd Hampshire District" value="1" d="m269.28 364.32 15.17-2.52 1.73 9.96 3.18 21.19 2.27 16.4 2.56 16.42-4.64-.3-3.5.3-6.28 1.03-1.82.72-1.14 1.52-4.03.92-3.5 2.5-3.2-1.26-.82-11.41 4.81-2.3.53-2.56 3.23-2.48-.93-1.43-1.1-.23-.79-6-.81.18 1.43-15.24 1.17-15.7-4.24.53z"/>
    <path region="35" short-name="5th Norfolk" long-name="5th Norfolk District" value="1" d="m698.32 438.94 1.74-.96 5.85-1.33 1.02-1 2.66.15 2.1 1.1-.12 3.09-1.71 1.33-.57 2.24-3.24 29.34-1.7-2.08-3.35.2.26-2.92-1.48-.9-1.52-.03-.04 3.41-4.58-1.68-.51-2.86 1.37-4.22.82-5.66-.06-1.1-2.88-1.74-4.94-1.15-.62-4.55 1.29.07-.02-3.36 3.34-4.72 6.2-.3z"/>
    <path region="36" short-name="12th Worcester" long-name="12th Worcester District" value="1" d="m468.78 339.7 28.4 6.46 3.25-16.61 1.27-1 2.78-4.66 6.5 1.31 12.04 2.43 1.74 3.1.02 1.72-1.3 2.63 2.35 2-.87 3.88-1.92 4.53-1.85-1-5.09 23.2 8.44 3.3 14.03 8.53-7.7 6.41 1.31 1.04-1.94 3.73-4.42 2.9 2.12 2.7-2.1 2.38-1.34 2.55-2.45 2.48-1.47.77-1.73-1.04.68-1.18-1.45-2.8-1.91-.85-2.59 1.38-4.55.27-.54 2.5-.86-1.3-2.16-1.31-8.8 4.26-.46 1.21-2.68.23-4.21 1.96-2.22-.28.2-11.83 1.12-10.04 1.65-4.69 3.32-1.4v-2.24l-5.97-2.87-4.01-.02-2.49.54-8.72-1.88-3.9-10.55 4.9-4.6-.97-.94-2.66-6.48-.17-3.21-2.18-4.37z"/>
    <path region="37" short-name="4th Bristol" long-name="4th Bristol District" value="1" d="m606.27 573.06-.82-3.16.56-6.3 10.63-1.98 21.85-3.23 4 1.28-9.83-16.9-4.44-7.65 10.56-5.4 1.57 3.35 2.57 2.26.79-.04 1.48 4.57 1.74-.7 1.27-1.35.47 3.47 1.05 2.47 1.7 1.72 4.08 2.1.8 2-9.82 9.38 1.99 11.8-4.66-.95 2.76 24.39 1.88 14.12.9.01.83 2.08-2.15 2.97-1.38 2.64.36 2.28-3.02.6-1.25-.24-.5-3.04-.8-1.48-3.68.75.01 4.01.42 2.17.23 5.46-1.08.26.5 4.51-.4 2.08-9.81-15.01-15.8-8.94-2.78-1.62-.88-3.62-.8-1.63-1.5-.67-.42-1.46.42-2.4.02-.9-2.23-5.28.64-1.84 2.71-2.81-1.96-3.5 2.3-6.55z"/>
    <path region="38" short-name="8th Worcester" long-name="8th Worcester District" value="1" d="m517.94 489.18.89.33 13.22-6.26 3.05-.8.19 19.03 26.16-.45.05-10.74.79-2.44-1.23-1.35-.95-2.56.76-.91-.29-1.5 3.22-3.03 3.17-2.5.11-9.58 3.95-.53 5.57-6.3.42 16.3-.4 5.4-.73 5.72-2.42 11.06.14 10.77-.32 3.47-.61 6.44-12.28.28-7.06.72-3 .12-10.85.26-28.25.88-.8.02-.44-12.05.19-4.2 3.82 1.06.33-1.34 3.22-2.81 3.83-1.87 1.14-.99 2.93-.99-.82-1.4-2.5-2.36z"/>
    <path region="39" short-name="1st Barnstable" long-name="1st Barnstable District" value="1" d="m906.58 635.1 1.3-.92 2.21.86.52-1.47 2.04-1.1 1.62-2.94-1.53-1.9 1.7-1.68 5.2-4.1 7.49-3.37 1.52.52 9.47-2.4 2.34-1.15 5.46.46 7.24-2.89 3.65-.9 2.95-1.49 2.27.04 11.53-5.75 2.78 1.81 2.16 5.45v1.56l3.4 6.34-2.47 4.55 2.86 2.48-9.12.44-2.12 1.47-1.85-1.06-3.34 1.87-4.08-.6-2.89.54-2.62-1.58-2.55.58-.65 3.18-10.46 3.69 4.54 19.02-6.5 1.82-4.82-.52-2.86-.07-7.5 1.53-.78 1.4-2.54.62-3.55 2.25-4.37 1.8-.51-.36.9-4.35 1.7-3.2 1.56-1.2.31-1.4 2.3-2.72-1.06-5.14-3.05 1.18-.16-1.77-10.47 3.31 1.72-7-.3-4.8z"/>
    <path region="40" short-name="3rd Norfolk" long-name="3rd Norfolk District" value="1" d="m693.13 466.05.51 2.85 4.58 1.68.04-3.4 1.52.02 1.48.9-.26 2.92 3.36-.2 1.69 2.08 3.24-29.34.57-2.24 1.71-1.33.11-3.1-2.1-1.1-2.65-.13-1.02.99-5.85 1.33-1.74.96-2.6-2.27.4-1.29 4.44-.92-.66-1.04 1.47-1.06-.09-1.12 3.56.52.04-1.77 2.64-.12 1.48 1.48 2.19.89.04.37-.92-.13-.44 2.66 3.12.06 1.36 3.2 2.2 3.12-1.52 1.9-2.13.2.13 8.59-1.11-.43-.74 2.9 1.87-.41.06 4.63-2.22-.5.15 1.37 1.41 2.93.72 3.22 1.74 3.75-14.86 7.86.05.3-5.56 2.92-1.42-1.88-.07-3.46-2.2-1.02z"/>
    <path region="41" short-name="14th Suffolk" long-name="14th Suffolk District" value="1" d="m666.76 414.2.6 1.51-.15 4.13-.58 3.63 1.09 2.5 1.97-.76.68 1.86-1.36.83 1.04 1.33.05 2.8-4.76 3.33 1.08 1.5-2.3 2.74-3.33-3.05-1.1-7.45-1.54-.94-1.07.66-.77-3.44.02-1.5 2.1 1.1 3.03-3.33 4-4.9z"/>
    <path region="42" short-name="14th Norfolk" long-name="14th Norfolk District" value="1" d="m619.73 349.55 1.88 1.9 2.86.55 1.03 7.27.8 4-.3 2.08-2.01 5.5-1.96-.86-1.28 3.05 1.34.54 1.4 3.7 2.36 1.04-2.45 5.74 1.76 2.53-.91.82 2.54 4.24 1.12.48.49 1.35-.9 2.99 1.68 1.19-2.04 1.55-1.9 2.57 3.5 1.36 1.25-.86 1.05 1.18.66.98 2.34-.28 2.1.4.94 2.01-1.52-.32-17.28 16.32-1.34-.74.6-2.1-.87-.81-1.12 1.64-1.35.87.28 2.02-4.25-10.08-1.7-5.89.68-.28-.4-6.78-1.99-23.54.37-.82 4.7 1.5 1.54-1.39.64-1.44 2.9-.62.11-1.6-.74-1.5 2.94-5.26-3.52-.93 1.07-2.9.34-2.72-3.05-2.04-2.9-1.44 1.82-1.95 2.46.86.7-3.5 3.63-.97z"/>
    <path region="43" short-name="18th Essex" long-name="18th Essex District" value="1" d="m623.78 277.47 3.02-.55 2.28.2 1.7-1.46 2.13-.52 1.2-2.68 2.46-3.34.92-2.37.36-3.42 1.01-1.92 1.74-1.06 1.4.25 4.07.81 1.82.84.94 7.74-.98 2.06.09 2.28 1.17.56 2.58-.15 2.45 1.11 3.67.24 1.44.44 1.7 1.52 2.63-.8-.65-2.24 1.37-1.3.92-2.16 2.25 4.1 1.1-1.6 2.11.98 2.51-1.42.85-1.3 2.94-.09 3.6 1.67 5.64-.53.97-2.04-1.01-1.1 1.4-1.19 1.75 2.18.82 1.92 3.42.46 6.15 2.58 1.5-1.47 1.57-.7.97-2.02 2.34-1.31 2.93 1.08.66.7 2.03 7.73-4.23 2.62.2 2.83.7 2.17 1.06.75-2.27 1.53-2.6.37L694.4 283l-9 5.3-1.18 7.06-4.86 1.88-16.56 1.9-2.17-1.87-1.52-3.46-1.6-.8-1.18.88-.25 2-1.5 3.67-4.6-3.93-2.27.83-.08-1.56-1.66.22-1.74-1.04-3.84-.1-3.5.52-.95-.2.74-3.05-6.5-1.08.3-.92-1.1-2.65-3.24.96-2.24.29.98-5.84z"/>
    <path region="44" short-name="26th Middlesex" long-name="26th Middlesex District" value="1" d="M668.05 389.25h2.23l1.94-2.67-1.44-.66 1.04-1.62 2.36.02.8-1.5.12-1.9.9-2.4-.6-.38 1.38-1.43.56-2.12 2.08 1.37.7 1.74-2.02 4.07 1.41.31.83 2.64-1.65.9-.31 1.79-2.53-.02-.35 1.31-1.35.96-2.18.57-2.22 2.28-1.74-1.05z"/>
    <path region="45" short-name="11th Worcester" long-name="11th Worcester District" value="1" d="m487.1 407.53 2.22.28 4.21-1.96 2.68-.23.45-1.21 8.81-4.26 2.16 1.3.86 1.3-.51 2.53 2.6 5.16.95 7.18 1.92 2.8 4.36-2.03.3.54 7.6-.53-.5 2.11.86 1.6-2.07.57-.89 2.26.03 4.14-4.44 1.96.32 1.06-5.8 1.17-.98-2.9-8.44 1.52-1.88 1.21-1.84.03-3.7 1.43-4.15-.97-1.43-3.92-.3-2.25-.69-5.36-1.06-8.24-2.72-5.68z"/>
    <path region="46" short-name="2nd Barnstable" long-name="2nd Barnstable District" value="1" d="m854.88 655.76 1.45-1.74 1.31.31 2.25 3.66 4.24-1.67 4.9-1 7.2.47-.57-1.65-2.12-1.1-1.25-3.05 1.2-1.26.92-1.97 2.27-.12 2.22 1.5 1.54-3.43 2.25-2.65 1.16-2.5 1.22-.58-.42-1.6 3.58-.9.32-2.76 2.11.6 3.7-.24 1.68.68 1.75-.88 4.54.32 2.65-1.1 1.22.61.38 1.4.6.92.29 4.81-1.72 7 10.47-3.3.16 1.76 3.05-1.18 1.07 5.14-2.3 2.73-.32 1.38-1.57 1.22-1.7 3.19-.9 4.35.52.36-2.92 1.19-2.89 2.9.22 1.19-1.16 2.5-2.23-.03-.59-2.56.15-2.98-1.5-2.68-1.9-.82-2.6-.03-2.69 1.02-.11 1.1-3.08.79-1.38.73-1.39-1.89-2.33-1.52-2.27-.66-3.8.62-2.43 1.35-1.27 1.63.05 1.14-1.43 2.9-2.6 1.7-5.99 1.86-2.22-.36-5.1.98-2.92-.23-1.5 2.34-.74 2.7-1.42 1.59-2.3-.4-1.79-3.02 1.1-3.6 3.37-5.56-1.13-5.1-3.23.9-.47-1.72 2.18-.14 1.15-.65 2.2-4.16z"/>
    <path region="47" short-name="12th Hampden" long-name="12th Hampden District" value="1" d="m282.57 478 .22-3.6-2.25.95-.32-2.49 2.57-.6 1.16-4.32 2.17-.18-.2-1.24 1.78 1.18 4.09.13 2.89-.74 1.34.61 3.2-1.18 1.77.38 3.08-.58 1.72 1.51 1.1-.28-.2-3.32-.49-1.62.67-4.09 3.27-1.8.75-.86 1.73 12.2 1.81.03 4.76-.86 1.38-1.53 1.7-.85 3.12-.07 2.33.95 1.31 2.5 1.16.2 3.46 2.82.6.85 2.4-.28 1.67 3.73.76 4.59-3.66-.48-1.5 1.78-1.23 3.63-1.4.4-1.9-1.38-2.7.93-3.04-.06-1.32-.64-1 .63-1.16 3.3-1.64 1.06-.9 2.25-1.54 1.1-.79-6.03-9.8 1.47-1.02 3.29-14.46 2.16.1 2.95-3.49-2.34-4.85 3.94-.72-1.12-2.22.57-.25 1.68-1.27.27-2.17-3.25-4.58-1.37 3.15-.51-.81-3.32-3.04.8.2-3.71.72-2.13 1.35-1.1 1.31 1.56 4.3-.33 1.55-.6 1.4-2.78-1.53-.48 1.09-2.16 1.9-.23z"/>
    <path region="48" short-name="16th Middlesex" long-name="16th Middlesex District" value="1" d="m583.98 278.4 1.49 1.66 2.31.38 1.4-1.55 1.3 1.52 2.56-.43 1.96-4.2 2.6-.41 3.17 2.77 16.2-4.58 3.78 6.44-1.8 1.9-4.32-1.8-2.1-2.05-1.15-.44-1.35 1.5-1.72.87-2.56 2.85-1.07.69-5.92 1.02 1.34 4.42 8.69 4.63.89.23.51 2.12-4.2.38-6.13 2.17h-1.16l-1.38-4.64 3.05-1.43.95-1.33-6.94-2.04-2.64-.56-2.3 2.09-1.1.01-1.41 1.99z"/>
    <path region="49" short-name="10th Hampden" long-name="10th Hampden District" value="1" d="m251.38 476.8.2 2.36 1.25 1.88 1.28-.99 2.51 1.97 2.03-.21 1.05 1.27.4 1.69-1.95 2.2 2.4.94 1.18-.69 2.14 1.71 3.67 1.46 1.71 1.63-2.25.6 1.73 1.87-.57 2.38-1.98-2.95-.82.37-.2 2.17 2 .98-1.05 2.9-9.45-2.06 1.62-2.24.24-1.29-.59-2.6-1.03-1.8-2.18-2.55-3.97-2.38-1.31-1.18-1.54-2.43-.21-2.96z"/>
    <path region="50" short-name="7th Essex" long-name="7th Essex District" value="1" d="m714.64 338.71 8.42-9.78 1.18-3.12.8.3-.23-5.1 1.43-1.54 1.57.27 4.35 2.61 1.84.21.47 2 3.17-1.58.94 1.08-.59 2.54-3.14 1.23-2.13 3.12-.33 2.52 2.14 1.25-2.25 2.6-1.13 1.86.17 1.5-1.13 1.38-3.45.63-7.69-2.48z"/>
    <path region="51" short-name="1st Middlesex" long-name="1st Middlesex District" value="1" d="m449.58 256.5 26.08.95 16.64.61 32.18.97 24.57.79 15.26.49 8.48.27.38 1.83-1.31 1.48 2.5 1.83 1.15 2.49.43 3.87-.15 2.75-2.37.74-.49 1.08-4.91 3.22-1.32-3.38-.84 2.95-1.82.7-2.09-.23-.58 4.18 1.41 8.12-1.25 15.38-1.4.53-2.35 2.3-2.6-3.65-2.11-1.55-2.79-2.76-.89-1.47-1.51.18-1.89-1.16-1.38.23-2.15-1.4-.62-2.26-1.25-.22-2.73-2.97-.4-1.67-2.5-2.97-2.1.15-.82-1.42-1.3.94-2.04-.72-7.04-3.8-1.74-1.85-1.54-.6-1.53-1.6-1.86 14.56-3.66 27.39-.35 3.4-6.5-1.31-2.51-.55-2.57-6.44-6.89-8.17-.7.54-.21-1.43 2.16-.12.76-1.63 1.4-.51 1.84-2.78.6-1.96-1.48-.26-1.81-1.15-2.4.99-2.92.47-4.75 3.25.3-6.71-.72-4.14-.52-8.4-19.42-.5-3.8 1.59.57-12.85-.38-2.79-1.67-1.73-.56-1.74-1.12.18-7.64-7.63z"/>
    <path region="52" short-name="8th Essex" long-name="8th Essex District" value="1" d="m718.95 348.78 3.21-.2-3.1-8.37 7.68 2.48 3.45-.63 1.13-1.38-.17-1.5 1.13-1.86 2.25-2.6 1.11.15 3-5.18 1.92-1.1 3.21 1.52.99-.76-.09 4.05-2.58 3.26-.47 2.72 1.66-.33 3.8-4.54.75.86-.75 1.6-.62 3.36-1.56 1.1-1.62-1.47-2.9.45-6.12 4.36-1.9 3.25-.23 2.01-1.95 1.52-2-1.27-1.63.52-.23-1.53-3.88.08-1.6 2.2-1.05.1-1.03 1.5-2.01-1.79 2.75-.24z"/>
    <path region="53" short-name="3rd Hampden" long-name="3rd Hampden District" value="1" d="m122.81 381.89.77-3.18 15.1 3.57.73-3.05 9.1-1.4-.35 2.44 1.2 3.23 2.3 2.16-1.02 1.96 1.4 2.98.26 1.63 2.7 3.6 16.1 1.19.24 3.48 2.68-.43-.12-2.8 8.77-1.28 1.88.42 1.05-.89 2.86 1.1 2.04.23 1.42.95 1.87 30.9.52 8.25 5.35-.72.4 7.38h2.76l.3 6.62-1.32-.28-3.4 13.05-2.68 3.21-1.5.57-4.48 7.1-2.01-.08v1.08l-2.27 1.12.42 1.6-2.41 1.01-.7 3.55 4.06 1.23.6 3.58 36.65 8.07 1.13-3.86 1.98-5.59 3.17-.44.36 2.08 1.54.39.97 2.12 1.35 1.34 1.9 4.34 1.9 1.35 4.31-4.63 3.44-.34 1.72.66 3.17-.36 2.46.88.53-2.6 2.88-.02 1.04 1.78.6 2.61-.25 1.29-1.62 2.24-3.1 5.43-1.65 3.73-.45 3.31v3.1l-9.82-.6-14.75-1.65-16.73.22-.48 1.1 1.62 1.16-4.02 8.46-.17 1.76-2.24.33-11.73 1.7.9-14.62-9.39-.15-4.6-.3-37.98-.36-2.57-.08-12.44-.38-.9-2.84.73-2.85-.2-.98-1.99-1.63 1-1.82-1.02-1.46-3.15-8.87-.49-4.5.6-2.08 2.61-1.57.55-1.33-1.45-2.04-.9-3.17.17-2.17-.82-1.72.28-1.76 10.11 1.72 7.56-35.73 1-4.88.68.12.44-23.25-1.71 2.94-1.07.05-1.76-2.43-1 1.08-3.12-.4-2.14-2.13-.5-1.97-1.32.3-2.01-1.85-2.86-1.77-.39-4.07z"/>
    <path region="54" short-name="8th Hampden" long-name="8th Hampden District" value="1" d="m255.52 445.77 19.32-2.7 2.9 16.7-1.35.2.77 4.93-1.54-.15-2.02 1.1-3.38.28-14.19 8.03-.51-3.08-1.8-.17v-1.22l-2-.28-.88 1.47-2.28.47-1.13-1.23.94-1.14 1.56.33.75-1.8-.17-2.84.36-3.8h-1.25l-.02-1.51-3.21-2.11 1.36-1.83 4.22-2.03 4.03-3.68.4-.97z"/>
    <path region="55" short-name="11th Hampden" long-name="11th Hampden District" value="1" d="m258.65 481.81-.39-.96 2.55-1.35 3.6-2.53 4.31-1.83.5 4.53 1.7-1.31 1-2.15 5.54-.1-.2 1.83 1.48 1.05 3.83-.98-.4 1.88-1.91.23-1.1 2.16 1.53.48-1.39 2.78-1.54.6-4.31.33-1.3-1.56-1.36 1.1-.72 2.13-.2 3.72 3.04-.8.82 3.3-3.15.52-1.85-.39-1.73-1.88 2.25-.59-1.7-1.63-3.68-1.46-2.14-1.7-1.17.68-2.4-.95 1.94-2.19-.4-1.69z"/>
    <path region="56" short-name="3rd Suffolk" long-name="3rd Suffolk District" value="1" d="m680.24 393.03 2.37-.43.33-4.46-2.03-1.42 3.03-.31 2-.73.6.99.23 4.34.39.22-1.82 3.45-.94.47-1.22 1-2.05-.86z"/>
    <path region="57" short-name="1st Hampshire" long-name="1st Hampshire District" value="1" d="m148.82 315.5 27.53 5.62.39 5.8 1.43.28-1.35 6.79 1.13 8.8 11.05 2.9.02-.24 16.25 3.87 4.2 2.22-.23 1.67-1.68.23-.23 1.6 2.47-.28-.18 2.47 15.89-2.66-.98 17.92 22.93-3.61 10.26-3.04 1.24.21 1.3 4.18.48 2.44-.53 2.48-1.3.41-2.12-.46-.37 1.04 1.07 2.65-.89 2.39-.62 3.23.94 3.5.23 2.45-1.57 2.64-3.54.69-6.13-.85-2.7.94-.14 1.92 3.76.32 1.05.56.64 1.77 4.21 2.83 4.46.97.86 1.2-.62 1.97-1.98.85-1.55 3.26-3.37 4.55-.95 2.11-1.4.08-2.67 1.83h-1.33l-4.11-2.52-3.2.97-3.3-.35-.02-.64-18.06 2.88.12 2.91.15 3.79-21.97 3.66-1.87-30.9-1.42-.95-2.04-.23-2.86-1.1-1.05.89-1.88-.42-8.77 1.28.12 2.8-2.68.43-.24-3.48-16.1-1.19-2.7-3.6-.26-1.63-1.4-2.98 1.02-1.96-2.3-2.16-1.2-3.23.35-2.44-9.1 1.4 4.6-23.21 1.26-6.76.46.09 2-11.8 3-15.98-2.93-.6z"/>
    <path region="58" short-name="2nd Hampshire" long-name="2nd Hampshire District" value="1" d="m258.96 366.05 10.32-1.73-.72 10.24 4.24-.53-1.17 15.7-1.43 15.24.81-.17.8 5.99 1.1.23.92 1.43-3.23 2.48-.53 2.56-4.81 2.3.82 11.4 3.2 1.28 3.5-2.5 4.03-.93 1.14-1.52 1.82-.71 6.28-1.03 3.5-.32 4.64.31 2.2 14.08-21.55 3.22-19.32 2.7-2.9-.87-1.93-2.1-1.23-2.78-2.05-1.28-.43-1.95 1.68-4.9 2.86-4.61 2.1-1.82.4-1.7-.67-4.29-1.12-1.21-2.21-.68-6 4.65-6.12 17.44-3.14.86-5.56.84.51-3.68-.36-2.05 1.27-2.15-5.25-4.88.95-1.07.69-2.09-.84-1.5-2.93-.36-.95-2.06-2.47-.2-1.05-.66-3.16.58-.12-2.9 18.06-2.9.02.65 3.3.35 3.2-.97 4.1 2.51 1.34.01 2.66-1.83 1.41-.08.96-2.11 3.36-4.55 1.55-3.26 1.98-.85.62-1.97-.86-1.2-4.45-.97-4.22-2.83-.64-1.77-1.05-.56-3.76-.32.14-1.92 2.7-.94 6.13.85 3.54-.69 1.58-2.64-.24-2.44-.94-3.5.62-3.24.9-2.39-1.08-2.65.37-1.04 2.13.46 1.29-.41.53-2.48-.47-2.44z"/>
    <path region="59" short-name="2nd Middlesex" long-name="2nd Middlesex District" value="1" d="m557.78 310.42 2.34-2.3 1.41-.53 1.25-15.38 21.2-13.81 2.95 14.18 1.4-1.99 1.12-.01 2.3-2.1 2.63.57 6.94 2.04-.95 1.33-3.05 1.43 1.38 4.63h1.16l-7.4 5.51-2.9 1.4 2.6 12.41 1.01 4.27-10.9 4.74-1.33-1-1.73 2.4-2.58 5.1-8.26 3.36-7.41-3.45-.77.91-2.46-.8-1.73-2.51-3.8-1.8-2.06-8.6-.99-2.76 2.6-.91 2.75-2.7.64-1.7z"/>
    <path region="60" short-name="4th Middlesex" long-name="4th Middlesex District" value="1" d="m532.18 386.97 22.8-3.24-.32 1.79 1.38 2.34-2.5 2.54-1.11 2.25 1.1 1.04 2.02-.02 1.54 2.57 2.45-3.2 3.63.25 2.47-.97 18.95 3.57-.36 1.15-1.98 2.16.79 1.14-4.16 1.18-2.05-.1.84 2.89-1 .87-4.55.76-1.04.48-1.05-2.54.38-2.33-2.25-1.33-3.02.69-6.46.93-2.32-.9-9.67 1.48-5.02 2.28-4.5 3.56-3.4-3.8-2.2-3.46.32-2.5-2.07-.84-1.88-1.36-2.12-2.7 4.42-2.9z"/>
    <path region="61" short-name="5th Middlesex" long-name="5th Middlesex District" value="1" d="m594.56 407.86.58-1-1.15-5.24-1.96-2.93-1.71-.9 2.65.2 3.09-.46 3.69-2.37 2.08 2.29.92 1.8 2.58.65.96-2.55 1.04.63 1.47 2.44.4 6.78-.67.28 1.7 5.89 4.25 10.08 1.55 8.47-8.26-.3.01.5-2.8-1.02.2-1.17-2.8-.86-1.3-1.4-.05-1.32-5.65-2.44-3.78-.91-1.54-.38-.98-2.9-.88-4.8 4.2-3.3z"/>
    <path region="62" short-name="7th Middlesex" long-name="7th Middlesex District" value="1" d="m554.78 425.06 2.32-.43 2.06 1.25.17-3.27 5.46-14.16 2.89-.36.66 1.3 1.43.45 2.05-1.65-.74-1.77 1.04-.48 4.56-.76 1-.87-.85-2.88 2.05.1 4.16-1.2-.79-1.13 1.98-2.16.36-1.15 5.23 1 .5.9 1.7.9 1.97 2.93 1.15 5.23-.58 1.01-5.89-1.28-1.46.7-.4 1.46.35 3.13-.66 1.2-3 .18-4.23-.9-1.25.17-2.36 1.6-.6-.94-3.04 1.74-2.23-.35-.9-.86-1.92-.1-3.6 3.25 8.54 3.43 11.6 8.23.28 4.07-.49 3.16-15.44 3.26-3.05-1.03.07-5.56-10.26-3.12z"/>
    <path region="63" short-name="7th Norfolk" long-name="7th Norfolk District" value="1" d="m670.37 427.07 1.32.53 2.6-2.23-3.47 8.92 2.58-.39 1.13-.88v-4.36l3.61-1.42 2.38-3.83 1.94.06.82 1.32 2.33-1.71.15-2.2 2.94.16.3 4.03 2.69 3.05-8.1 6.02 2.25 4.99-11.23 5.74 2.93 3.64 2.47.04 2.45-.47 1.6 5.2 2.57 5.23 2.47 5.73.8-1.32 2.72 1.9.51 1.22-2.29 8.35-1.39-.58-17.56-23.95-7.77-10.26 2.3-2.75-1.08-1.5 4.76-3.32-.05-2.8-1.04-1.33z"/>
    <path region="64" short-name="10th Middlesex" long-name="10th Middlesex District" value="1" d="m646.4 379.88 1.4 2-.4 3.06 1.77 1.76-.36 1.2-1.86-.23-1.14 1.37 1.7.54-.46 1.83-1.95.58-4.94-2.63-1.72.29-.73 1.25-3.44-1.37-.43-.22.6-3.59-1.52.8-2.26-.24 1.12-2 3.27.72 1.7-1.24-1.59-.82-.73-2.1 3.1-.8 3.32-5.67 1.43 1.57 3.14 2.05-4.24 3.35-1.84.53-.37 1.15 3.43 1.46z"/>
    <path region="65" short-name="8th Norfolk" long-name="8th Norfolk District" value="1" d="m650.96 463.65.59 3.22 1.05 1.53 2.74 2.36-.38 1.44 5.3 1.41 1.65-.85 1.9.82-.6 2.25 2.6.51 2.54.98-1.55 2.5-1.01 3.47 3.5-.31 3.24-.63-.12-1 1.52-1.2-1.08-.87 1.94-3.51 6.77 2.3 2.23 7.12-.25 1.42-21.61 11.45-8.4 4.37 1.28 8.4.74 4.82-5.41-1.03-2.36-1.08.45-3.04-.6-1-.8-3.56 3.97-2.08-5-9.45-2.68 3.15-9.2-11.33.02-.83-4.05.4-.62.48 1.96-6.66-2.09-1.7.16-1.07.31-1.13-1.21-2.12 1.35-2.65-.64-.64 4.04-3.1 1.35 2.58 3 1.28 2 1.54 1 .01 7.94-4.87-.5-2.97z"/>
    <path region="66" short-name="13th Norfolk" long-name="13th Norfolk District" value="1" d="m607.78 432.13-.01-.51 8.26.3-1.55-8.47-.28-2.02 1.35-.87 1.12-1.64.87.8-.6 2.11 1.34.74 17.28-16.32 1.52.32.24 2.7 1.73.7 2.02.1.48 2.42 1.03.98.73 2.86 3.91 2.49.85.96-2.47 4.32-1.74.66-4.14-.53-.41 1.82-2.68-.12-.86 2.74-5.36 20.48-1.9-.55-3.17 1.34-1.5.54-.97 1.96-4.18 1.31-.2 2.01-1.06.87-1.74-1.65-1.99-.04-3.2 2.3-3.6-3.72-1.3-2.62-3.33-3.55.61-2.48.89-.62 1.91.65.37-1.14-1.27-1.4.6-1.46 3.17-3.34-.42-1.6.49-2.92z"/>
    <path region="67" short-name="12th Suffolk" long-name="12th Suffolk District" value="1" d="m681.93 416.52.75 1.27-.45 2.18 2.85-1.02.68 1.94-.15 2.19-2.34 1.71-.8-1.32-1.95-.06-2.38 3.83-3.61 1.42v4.36l-1.13.88-2.58.4 3.47-8.93-2.6 2.23-1.33-.53-.67-1.86.45-3.14.96-2.25 1.71-.76 1.7 1.92 1.85-.79.87-1.47 2.11.03-.43-1.82z"/>
    <path region="68" short-name="23rd Middlesex" long-name="23rd Middlesex District" value="1" d="m649.73 360.87 14.87.25 1.09-1.37-.47 1.41.28 2.44.81 1.4 1.44-.34.75 2.28 1.42.93-6.04.43-.22 2.9-.59 1.82-.49 1.17-2.97-3.15-1.25-2-3.34-.97-1.44.82-2.28-1.56-1.16.5-.23 2.65-3.54-1.68-2.32.18z"/>
    <path region="69" short-name="5th Barnstable" long-name="5th Barnstable District" value="1" d="m803.25 623.8 3.1-4.2-.99-.8-.2-1.52-1.87-2.9 8.28-4.4 10.5-4.5 7.83-9.06 1.3 2.27 4.26 5.2 6.4 4.76.12 1.63 6.29 4.61 11.66 4.75.42.45 7.91 2.23 6.88 1.1 22.3 1.64 2 .9 3.67 2.32-1.83 1.27-1.78-2.54-1.4 1.44-2.82-.8-4.46-.52-3.7-1.1-2.32.39-6.3-.82h-2.74l-2.7-.64-.37 1.4-1.35.67-1.48-.32-.27 1.83 2.7 1.68.96-.32 5.46 3.58-.08 2.55 1.55.96 4.47.39.42 1.6-1.23.59-1.16 2.5-2.24 2.64-1.54 3.43-2.22-1.5-2.27.12-.92 1.97-1.2 1.26 1.25 3.04 2.12 1.1.57 1.66-7.2-.46-4.9 1-4.24 1.66-2.25-3.66-1.31-.31-1.45 1.74-.89-1.7-2.14-2.67-3.46-.72-1.19 2.32-1.45-.48-.45-1.85 2.03-4.66-.92-2.5-5.3.62.11 2.01.87 1.82-1.06.79-3.89-1.86-.57.87-1.65 6.36-1.07 2.36-3.55 3.42-1.05 1.53-7.9-3.11.34-4.03 4.64-5.76.93-1.85 1.6-5.15-.2-3.47-1.81.31-5.77-3.78-1.27 1.68-2.96.11.18-2.83-4.03.33-1.61 1.48-1.43.44-.17-3.48.5-1.88 6.49-1.97-.03-3.92-1.43-4.47-6.12 1.82-3.03 1.88-1.98.57z"/>
    <path region="70" short-name="5th Suffolk" long-name="5th Suffolk District" value="1" d="m674.07 407.38 3.43-1.17 1.3.19.13-1.72 1.75-2.37 2.74 3.14-.77 2.2 1.82.98-.53 3.18-1.8.46-2.06.36-1.97-1.7-1.76 2.16-2.63 1.86-2.36-3.43z"/>
    <path region="71" short-name="7th Suffolk" long-name="7th Suffolk District" value="1" d="m671.17 395.84 2.41 1.8 1.03-.7.97 1.49 1.41-1.26-.18 1.97 1.23.81.01 1.68.88 3.05-.13 1.72-1.3-.19-3.43 1.17-.71-1.19-.34-3.25.73-2.08-2.92-.34-1.14-1.57.06-1.82z"/>
    <path region="72" short-name="33rd Middlesex" long-name="33rd Middlesex District" value="1" d="m680.64 359.46 1.1-.16-.03 2.11 1.91.25 3-.72.28-2.12 6.53-1.14 1.52 2.44-2.19 5.32-6.27.55-.6.6-1.02-2.73-2.7 1.18-2.34-.28-.59 2.08-.05 2.76-2.55-1.82-.98-3.3 1.08-2.3 1.06.6 2.65-.32z"/>
    <path region="73" short-name="35th Middlesex" long-name="35th Middlesex District" value="1" d="m665.69 359.75 1.6-5.38 4.1 1.74 6.32 1.86-.23 1.93 3.16-.44-.2 3-2.63.32-1.07-.6-1.07 2.3.98 3.3 2.54 1.82.05-2.76.6-2.08 2.32.28 2.72-1.18 1 2.73-2.12 1.95-3.46.42-.2 2.08.63.93-1.31 2.73v1.26l-2.08-1.37.5-2.1-.88-2.06-2.45-.15-2.94-1.87-1.65-.54-1.42-.93-.75-2.28-1.44.34-.81-1.4-.28-2.44z"/>
    <path region="74" short-name="1st Norfolk" long-name="1st Norfolk District" value="1" d="m688.7 421.04 1.3-2.88 1.48-.6-.15-1.4-1.6-3.82.64-.47 3.06.64 1.2 2.02 2.04-2.35 2.52-.01.17 2.3-2.28 1.63-2.08-.12-.58.87 1.72 3.16.83.47-2.26 2.93.26 1.62-1.64 1.3-1.4 2.85-1.32 1.23 1.23 2.72 4.29 2.25-.4 1.3 2.59 2.26-.69.38-6.2.3-3.34 4.7.02 3.37-1.29-.07.62 4.55 4.94 1.15 2.88 1.74.06 1.1-.82 5.66-1.37 4.22-.51-1.22-2.71-1.9-.8 1.32-2.47-5.73-2.57-5.24-1.61-5.2-2.45.48-2.47-.04-2.92-3.64 11.22-5.74-2.26-4.99 8.1-6.02-2.67-3.05z"/>
    <path region="75" short-name="8th Suffolk" long-name="8th Suffolk District" value="1" d="m680.91 386.71 2.03 1.42-.33 4.47-2.37.43-3.3 3.22.05.92-1.41 1.26-.97-1.49-1.03.7-.74-1.54 2.1-1.4.22-2.84 3.71-1.66z"/>
    <path region="76" short-name="1st Bristol" long-name="1st Bristol District" value="1" d="m629.27 486.27.62-.47 4.05-.4-.02.83 9.2 11.33 2.67-3.15 5 9.45-3.95 2.08.78 3.57.6.99-.44 3.04 2.36 1.08 5.4 1.03 1.4 9.39 15.53 2.96-7.06 9.97-8.18 10.66-.93.93-.8-2-4.08-2.1-1.7-1.71-1.05-2.48-.47-3.46-1.27 1.34-1.74.71-1.48-4.56-.79.03-2.57-2.26-1.57-3.35-10.56 5.4-.3-.55 9.65-18.3 3.2-.23-.22-2.08-.86-1.76 1.85-3.48L620.12 520l-.33-16.79.66-1.73-.17-4.98.9-2.5 3.56-5.6z"/>
    <path region="77" short-name="10th Suffolk" long-name="10th Suffolk District" value="1" d="m667.25 403.8.9.66-.6 2.46 1.14 1.08-1.77.99-1.3 3.44 1.14 1.78-1.3 2.53-4 4.91-3.03 3.33-2.1-1.1-.02 1.5.77 3.44-.73.5-4.48-4.99.46-.72-1.07-2.46-1.78.34-1.4-1.71-.86-.96 3.53-4.39 3.89-3.48 1.85-1.19 2.02 1.22 1.03-.69 1.96 1.3 4.59-7.78z"/>
    <path region="78" short-name="4th Norfolk" long-name="4th Norfolk District" value="1" d="m711.23 432.61.73.42 4.56-2.55 1.96-1.78 2.5-.22.67-2.24-.3-2.2 2.14-1.02 2.46 1.35.32 1.34-2.55.31.1 3.14-4.3 1.11.32 3.15 1.54 2.83.95 2.83-.31 1.28 2.44.3-2.83 25.46-4.44 2.34-2.29 1.21-1.73-3.75-.72-3.22-1.4-2.94-.16-1.35 2.22.5-.06-4.64-1.87.4.74-2.89 1.11.43-.13-8.58 2.13-.21 1.52-1.9-2.2-3.12-1.36-3.2-3.12-.06.44-2.66z"/>
    <path region="79" short-name="6th Bristol" long-name="6th Bristol District" value="1" d="m668.66 608.43 3.2-4.04.4-1.49 1.73-2.1 2.15-1.24-.27-2.48-1.24-1.4 1.3-1.85 14.5.47 3.75 3.88-.83 2.63-1.32.7-2.33-.2-3.79-.98-3.18 1.13 1.51 1.24-3.44 4.29-1.5 1.28-10.32 5.35 11.55 2.8-1.1 5.94-.65.73-2.1.25-1.32 1.36-3.1-.26-.82 3.12.25 1.3-1.39 2.65-.63 3.8-2.34-.35-1.12 5.53.44 1.85-3.51-.91-1.63.91-3-3.42.04-2.01-1.2-.72-1.78.12-1.97-1.5 2.83-4.8 4.97-6.52 2.4-4.04.17-3.04 3.94-6.1z"/>
    <path region="80" short-name="15th Suffolk" long-name="15th Suffolk District" value="1" d="m667.25 403.8 1.01-1.18 1.43-3.67 1.14 1.57 2.92.34-.74 2.08.34 3.25.72 1.18-2.71 4.15 2.36 3.43-1.55.1-2.44 2.13-2.37-1.47-.6-1.5-1.13-1.78 1.3-3.44 1.76-.99-1.14-1.08.6-2.47z"/>
    <path region="81" short-name="17th Suffolk" long-name="17th Suffolk District" value="1" d="m656.78 400.91 3.04-2.66-.17-1.07-1.76-2.23-1.4.03-1.14-1.1 1.14-1.1 1.59.38.92-1.99 2.8.9-.48-1.59.64-1.8 1.5-.24.95 2.54-2.13 1.16 4.48.73-.77.04-3.1 2.1-1.02 1.1.45 1.65-2.35.7-1.84 3.86-4.23 1.52z"/>
    <path region="82" short-name="18th Suffolk" long-name="18th Suffolk District" value="1" d="m653.82 389.7 1.04.58 4.35-.98 1.07-1.4 1.29.14 2.1-1.68.38-1.9 2.18 1.88 1.67.6.15 2.3-.04 2.22 1.74 1.05 2.22-2.28 2.18-.57.28.7-2.56 2.19-1.08 1.48.09-.5-4.12-.66-4.48-.73 2.13-1.16-.94-2.54-1.5.23-.65 1.81.48 1.59-2.8-.9-.92 1.99-1.59-.38-1.14 1.1 1.13 1.1 1.4-.03 1.78 2.23.16 1.07-3.04 2.66-1.08-1.23-1.86.08.24-2.48-2.26-3.88.24-1.18z"/>
    <path region="83" short-name="12th Bristol" long-name="12th Bristol District" value="1" d="m677.07 563.83-1.13-1.1-.5-2.6 1.04-1.24-.98-1 .1-2.07 3.9.3 3.37 5.52 2.27.92.45-1.3 1.54-.06.86 1.13.3 2.45-.84.66-.19 2.45 2.88 1.33 1.07-1.11 2.33.03 2.14-1.16.82-1.04 1.74.61 1.4 2.81 2.4-.78.81-1.74-.65-2.74-1.47.05 2.39-4.59-.23-2.43-1.52-1.05.27-2.02 1.83 1.7 1.68.48 1.54-1.3 4.4.67 2.06 2.57 4.53 2.53 1.26.39 2.4-2.94 1.1 1.3 1.95.7 5.52-.51 3.94-1.15 1.99-1.64.69-2.27 1.41-.32 1.19-1.38 1.14-3.73.58-.57 3.06-.2.44-.7 3.83 4.9 4 5.29 2.41 9.51-2.46.84-.75-1.4-4.09-4.02-2.03-1.51-1.5.03-2.3 2.17 1.23 2.15 1.06.41-.12 2.22-1.07 1.5-2.65-.62-4.62.62-.98.43-.83-1.87-3.75-4.05-1.87 1.28-.71 2.9-1.18 2.05-1.98 1.14.03 1.62.88 1-.52 1.35.14 2.52-1.16 2.87 6.98 8.77-1.38 5.13.63 7.7-7.1 1.15-29.19 4.63 3.27-7.75-2.4-2.47-3.74-3.88-14.5-.47-1.3 1.85 1.24 1.4.27 2.48-2.15 1.24-1.73 2.1-.4 1.5-3.2 4.04-1.43-4.56.58-3.3-.22-3.17 1.67-2-1.5-4.27.88-1.8 1.41-.73.32-1.96-1.25-3.89 2.4-5.08-.01-2.73 1.27-1.61 6.51-.2 1.2 1.23 3.87 2.63.75-3.54-2.49-2.87-2.23-5.13z"/>
    <path region="84" short-name="3rd Worcester" long-name="3rd Worcester District" value="1" d="m460.78 287.8.05-1.82 3.81-1.58 19.42.5.52 8.39.72 4.14-.3 6.7 4.75-3.24 2.91-.47 2.4-1 1.82 1.16 1.47.26-.59 1.96-1.83 2.78-1.4.51-.77 1.63-2.16.12.22 1.43-4.3 3.23 2.47 1.7 1.15 2.52.08 2.88-3.42-1.74-.66-2-1.97-1.58-4.1 3.1-3.23-.59-2.5 1.95-4.41.3-2.39-.88-1.74.17-.2 1.81-7.02-.35.13-2.95 1.93.16.13-2.36-2.02.09z"/>
    <path region="85" short-name="2nd Essex" long-name="2nd Essex District" value="1" d="m723.73 227.56 3.42-3.8 1.98-.34 2.02 1.54 7.75-2.75 6.15 2.14 9.17-6 .84 11.37 3.45 13.2 5.75 13.7.51 2.38-1.49 1.58-.08 3.58 3.26 2.13 3.26.5 2.27 1.15 3.37 4.2.56 1.4 1.54.52-2.07 4.27-5.33-6.4-3.12-1.9-1.74.82-2.37.21-3.37 2-.4 3.13-3.47 1.1-3.11 3.83-.7 2.02 1.08.29.35 5.77-1.9.17.7 2.31 1.87 4.35 2.39 2.02.01 2.53-3.83.73-18.37-6.8-10.7-4.28-1.98-.12-.49 2.25-1.39 1.43-3.19 1.4-4.06 2.42 2.46-7.08 2.08-5.42-2.32-2.17.2-2.12-.93-3 .15-2.03-.82-2.02-3.26-2.5.75-.87 4.43-2.22-7.76-5.22-4.26-1.92-.09-.5-8.85-.31-.7-1.18-1.54-5.07-.84-5.45 2.14.39 2.1-.86 2.3-.22 8.87-5.5 5.53-1.98-2.1-1.69 1.06-2.7 1.43-.1 4.43-3.5 4.61-2.45z"/>
    <path region="86" short-name="5th Worcester" long-name="5th Worcester District" value="1" d="m340.64 392.74 1.22-3.57-.19-4.4 1.54-.57-.55-1.54 2.1-2.22 1-2.23 1.76 1.45 1.66-2.61 3.87 1.98 1.77-.91.4-2.49 1.93-1.13 2.96 1.8 3.88-8.4 29.11-24.98 5.28-4.53 22.53-19.32 6.06 5.42 16.72 15.48-3.73 3.23 3.6 3.18-12.6 10.58-19.46 16.15 12.76 35.43 6.18-.18 1.88 11.05 20.92-1.2.45 1.26 2.05 5.5.37 1.02-2.4.57-1.3 1.18-1.04 2.92 1.63 1.2-2 1.25-1.84-.43-3.07.12-1.94.55-1.65 2.78-3.13-.33-1.38 1.43-2.43 1.23-1.61-1.4-1.42-.07-1.13-1.3-4.26-2.71-.64-1.57-3.09 2.1 1.48 4.44-.25 3.16 1.63 1.54 2.53 3.57.63 2.23-1.18 1.04.09 5.6-12.6 1.16.36 3.04-3.03.48-16.75 2.75.74 4.79-6.12 1.07-.8-4.85-8.48 1.3-3.35-17.4-4.93-10.32-1.61-1-1.46-5.36-7.98.04v-1.66l-1.4-.2-.12-1.3-1.57-1.3-2.86 1.72-2.47-1.31-2.62.97-.2-2.4.97-.67.15-2.69.64-2.51.32-3.65-.42-1.67.5-3.1-.27-.9-4.74 1.01-.1-.72-3.56 1.24-1.5-10.25.82-.12-.4-2.66-.8.12-.8-6z"/>
    <path region="87" short-name="4th Essex" long-name="4th Essex District" value="1" d="m661.81 243.62-1.44 4.19-.03 1.78-1.94-.03.1 2.31 1.3 2.25-1.8.1-.2 3.92-2.4.4-3.18-3.23 1.72-.15-1.66-2.39-4.97 3.98.58 5.5-1.82-.84-4.07-.81-.17-1.69 1.21-.83 2.54-2.77-.2-2.4-1.35-2.4 2.93-.79 2.2.56 5.25.8.41-1.67-.9-2.09-.26-2.1 3.46-.39 2.02-.78z"/>
    <path region="88" short-name="7th Worcester" long-name="7th Worcester District" value="1" d="m436.3 442.82 2.82.77.89-1.42 6.18-1.5-.47 1.92.5 1.15 3.25.33.74 3.88.13 2.73.67 1.64 4.87-7.84 2.85-4.15 12.95-1.63 2.72-.24 3.58 7.88 17.78-10.53 2.77 17.53-2.91 1.78.05 1.23-1.89 1.62-1.01-1.22-24.52 14.57.67 5.42 3.23-1.46 1.36 3.01-1.59 1.69-2.56-.03-3.43.64-2.26 1.55-4.58-.74-3.92 1.6-2.52-1.3-1.6-1.3-2.6-.36-1.43-7.12-2.51.8-3.46 2.33-.83.06-2.94-1.34-4.19 1.34-1.32-.73-1.53.59-.55-2.01-4.75-3.4-1.4-2.08 1.9-.47 4-.34 1.63-.56 7.79-4.88-.42-.96 1.87-4.6 1.72-2.85-3.8.37z"/>
    <path region="89" short-name="10th Worcester" long-name="10th Worcester District" value="1" d="M545.4 456.73 550 454l9.05.3 1.19-.93 1.47 9.34 5.4.29-.02 3.42-.12 9.57-3.17 2.5-3.22 3.04.29 1.5-.76.9.95 2.57 1.23 1.35-.8 2.44-.04 10.74-26.16.45-.2-19.03-.03-2.8 5.4-5.32.96-1.28-.45-1.2.06-3.57 2.92-2.43-.98-2.56.88-1.77-.55-.82.35-2.5 1.7.5z"/>
    <path region="90" short-name="9th Essex" long-name="9th Essex District" value="1" d="m678.37 326.6 1.28-1.63 2.12 2.41 2.81.2 4.62-.8.42 4.45.82.8.2 2.74 6.76 1.34 2.76-2.06 1.8.57 1.94-1.38.4-.97 7.65 5.29-1.55 2.63-3.6-.85-3.2-.23-3.43.36 2.8 9.98-1.02.95.4 1.23-3.18.53 2.25 3.84-1.13 2.93-2.97-.3-1.91-3-1.98 2.05-7.93-12.2.45-3.46-2.5 1.86-1.31-.5-.78-1.46-.35-3.5.29-2.18-.68-1.71-.66-4.12-.9-1.17-.79-2.5z"/>
    <path region="91" short-name="14th Worcester" long-name="14th Worcester District" value="1" d="m472.2 373.1 8.73 1.88 2.48-.54 4 .01 5.98 2.88v2.24l-3.32 1.4-1.65 4.69-1.12 10.03-.2 11.84-1.07.6 2.72 5.69 1.06 8.24-8 .4-1.9-1.75.4-1.85-2.56-.4-2.97.86.56-1.84-3.22-2.35-.8-2.88 2.05-.75 3.54.89.02-1.93-1.78-.72.48-3.91-1.41-1.65-.36-1.37 2.74-2.26-6.18-27.8z"/>
    <path region="92" short-name="13th Essex" long-name="13th Essex District" value="1" d="m704.58 290.45 2.6-.37 2.27-1.53-1.07-.75-.7-2.17-.2-2.83 4.24-2.62-2.03-7.73.14-1.17 3.26 2.5.82 2.01-.15 2.03.93 3-.2 2.12 2.32 2.17-2.08 5.42-2.46 7.08 4.06-2.43 3.2-1.39 1.38-1.43.49-2.25 1.98.12 10.7 4.28-1.11.34.25 1.68-1.58 1.61.87 4.13-10.17-.23 3.9 7-.06 5.87-1.06 4.13 1.12.43-1.43 1.55-6.47-2.14-2.48-.25-9.58-3.1-5.44-2.38.5 1.54-.43 2.97.12 2.06 1.07.44-.14 2.64 1.7.26-2.84 6.33-1.65-1.37-7.34-10.7-.92-5.42 1.41.13.17-1.82 3.88.77 1.93 1.47 2.95-1.15 1.23-2.6-2.27-2.42 1.11-.83-.97-2.63 1.24-2.39-1.78-1.17.04-2.16.78-.77-.46-2.56.68-1.41 1.42-.87 1.66-.07z"/>
    <path region="93" short-name="17th Worcester" long-name="17th Worcester District" value="1" d="m435.56 438.46 2.43-1.22 1.38-1.44 3.13.33 1.65-2.78 1.94-.55 3.07-.12 1.84.43 2-1.24-1.63-1.21 1.05-2.92 1.3-1.18 2.4-.57-.38-1.02 4.01.27.45-2.07 1.69-.89.23 2.74 1.5 3.32 2.65-1.67.69-1.3 1.8.99-.25 1.43 2.86 1.05 3.32 2.05 2.35-.15.38.8-.29 1.27-2.8 1.3-1.9-1.93-2.1 1.46.47 1.7 1.38.3-.5 3.06-12.95 1.63-2.85 4.15-4.87 7.84-.67-1.63-.13-2.73-.73-3.9-3.27-.32-.5-1.15.48-1.91-6.18 1.5-.89 1.41-2.81-.77z"/>
    <path region="94" short-name="19th Worcester" long-name="19th Worcester District" value="1" d="m508.49 402.76.54-2.5 4.55-.27 2.59-1.38 1.91.85 1.45 2.8-.68 1.18 1.73 1.04 1.47-.77 2.45-2.48 1.34-2.55 2.1-2.38 1.88 1.36 2.07.84-.32 2.5 2.2 3.45 3.4 3.8 4.5-3.55 5.02-2.28 9.67-1.49 2.32.91 6.46-.93 3.02-.69 2.25 1.33-.38 2.33 1.05 2.54.74 1.77-2.05 1.64-1.43-.43-.66-1.31-2.9.36-5.45 14.16-.17 3.27-2.06-1.25-2.32.43-2.82.13-2.06 1.25-4.73-2.02-2.23.48-6.2 2.77-3.51 12.67-6.08-1.85-6.53 1.6-1.1-6.99-.5-1-.32-1.06 4.44-1.96-.02-4.14.88-2.26 2.08-.58-.87-1.59.5-2.1-7.6.52-.3-.54-4.36 2.02-1.92-2.79-.96-7.18-2.6-5.16z"/>
    <path region="95" short-name="1st Franklin" long-name="1st Franklin District" value="1" d="m135.52 245.2 25.91.74 33.84.99 34.46 1.3 47.23 1.78 7.6 25.12-14.33 2.55-3.72.37-22.05 3.55-2.64 14.56 1.5 2.23 1.73 4.43 1.23-1.2 2.16-.3 2.12 1.16.65-2.4 2.37-.41 2.73.58.95 4.06 1.5-1-.26-2.06 1.76-1.25 2.72-3.53 2.44-1.96 1.48.1 1.84 2.17.29 2.76 1.11.64 2.57-1.12 2.28-1.73 2.62-.2 2.33.35.44 1.38 2.62 2.7-2 4.99 2.43-.45 1.85.94 1.54-.34 2.2 2 2.07-1.05.52 2.4 1.27 2.73 1.16.98.78 2.27-1.92 14.48 5.61-.82-3.75 30.3-10.31 1.8-15.17 2.53-10.32 1.73-1.24-.21-10.26 3.04-22.93 3.61.98-17.92-15.9 2.66.19-2.47-2.47.27.23-1.59 1.68-.23.23-1.68-4.2-2.21-16.25-3.87-.02.23-11.05-2.9-1.13-8.8 1.36-6.78-1.44-.28-.39-5.8-27.53-5.63 6.8-32.24-.52-3.76-.74-1.37.2-4.29-2.02-.46-3.96 2.27-1.05-1.17-2.4-1.24-1.3-1.4 1.12-1.2-.14-1.52 3.95-.84-.52-2.08 1.65-1.2 2.17.6 3.12-1.58-.35-2.48 1.02-1.14.17-1.5-13.48 1.46-7.21-.54z"/>
    <path region="96" short-name="2nd Franklin" long-name="2nd Franklin District" value="1" d="m276.95 250.01 16.26.62 2.05.08 34.9 1.44 11.26.46 23.01.78 22.08.74 12.82.53.27.01 2.75 1.97 6.38 9.65-.66 2.06-2-.28-3.6 2.12-2.7 2.07-.6 1.75.3 3.23-.85 3.96.1 3.02 1.42 5.02-11.42-.52-6.24 1 2.87 4.52 1.09.75.9 12-1.5 1.2 8.81 15.09 1.33 4.44-.15 2.57 1.64 1.88.08 2.61.74 1.36.1 2.25-5.29 4.53-23.66-25.27-3 .54-13.54 13.45-6.78-7.57-.62-5.24-23.87-.55.84-18.7-1.55-.2-.83 1.25-3.15-1.6-3.1.6-1.3.76-.98-.77-2.74-.16-3.8-3.59-2.85.04-1.49 2.31-1.7 1.4.17 1.43-1.1.72-5.77 5.41-1.19.47-2.08 1.05-2.19-2-1.54.34-1.85-.94-2.43.45 2-4.98-2.62-2.71-.44-1.38-2.33-.34-2.63.19-2.27 1.73-2.57 1.12-1.11-.64-.3-2.76-1.83-2.16-1.48-.11-2.44 1.96-2.72 3.53-1.76 1.25.26 2.06-1.5 1-.95-4.06-2.73-.58-2.37.4-.65 2.4-2.12-1.15-2.17.3-1.22 1.2-1.72-4.43-1.51-2.23 2.64-14.56 22.05-3.55 3.72-.37 14.33-2.55z"/>
    <path region="97" short-name="14th Middlesex" long-name="14th Middlesex District" value="1" d="m568.37 336.67 8.26-3.37 2.58-5.09 1.73-2.4 1.32 1 10.91-4.74-1.01-4.27-2.6-12.4 2.9-1.4 7.4-5.51 6.12-2.17 4.21-.38 1.38-.37.56-1.95 5.72-.37-.18.63.7 2.97-10.77 17.1 3.76 2.29 1.46 1.71-1.1 2.57 3.83 5.12-.58 3.3.13 2.28-2.9 2.83-.3.87-.45 7-.42 1.56-1.23-.25-3.16 1.7-1.66 2.38-.12 2.27.94.8-2.87.97 1.14 1.62-1.14 1.71-1.75-1.29-1.16 3.27-3.21-1.66-2.73-2.4-2.5.22-.67 2.27-4.33 1.02.33 1.39-1.05 3.23-1.04.7.01 1.45-4.41-2.26 6.13-12.35-8.18-1.08-2.2-.86-1.46-2.5-3.64-.49.55-3.87z"/>
    <path region="98" short-name="20th Middlesex" long-name="20th Middlesex District" value="1" d="m662.8 299.15 16.57-1.9 4.86-1.88 1.18-7.05 9-5.31 10.17 7.44-.65.97-1.66.07-1.42.87-.68 1.4.46 2.57-.78.77-.04 2.16 1.78 1.17-1.24 2.39.97 2.63-1.1.83 2.26 2.42-1.23 2.6-2.95 1.15-1.93-1.47-3.88-.77-.17 1.82-1.4-.13.91 5.43 7.34 10.7 1.65 1.36 3.48 2.88-.4.97-1.94 1.38-1.8-.57-2.76 2.06-6.76-1.34-.2-2.75-.82-.8-.42-4.44-4.62.8-2.8-.2-2.13-2.4-1.28 1.63-1.59-3.26-1.77-.9-2.12 1.9-.85 1.8-3.98.96-1.7-1.92 1-.56-2.37-5.02-2.03-.39-.51-2.75 1.73-11.25z"/>
    <path region="99" short-name="21st Middlesex" long-name="21st Middlesex District" value="1" d="m611.03 343.48.42-1.55.45-7.01.3-.87 2.9-2.83-.13-2.29.9.2 7.09-2.52 6.57 1.56 1.24-1.19 2.11 2.2.7.08.88 3.12 1.4 1.94 2.8-7.11 1.1.41 3.61-7.74 9.78 10.97.03 3.33.4 3.33-.12 4.12-3.51 1.3-.4.58-1.5.92-5.5 6.47-.23 1.55-4.72 4.45-1.97-1.05.52-1.5-.69-3.3.15-2.38-1.34-1.7 4.03-.92-4.95-5.53-3.1 1.9-1.31 2.48-1.35.83-3.12 6.27-2.86-.56-1.88-1.9-2.53-2.54-2.19-.58-2.01.1-2.1-2.4z"/>
    <path region="100" short-name="2nd Plymouth" long-name="2nd Plymouth District" value="1" d="m748.18 552.6 16.24-6.94 3.64-.5 2.1 7.64.14.45 18.75 28.93-.07 1.52-2.78 3.2-.4 1.33-1.55 1.5-1.2-.27-.99 2.07-1.8 2.42-.6 2.79-.1 3.19 23.98-1.8 4.2.34-3 6.77-.91.17.44 2.8-.29 1.84-1.74 2.07 1.05 2.27 1.87 2.89.2 1.51.99.82-3.1 4.2.04 1.53-1.9 2.11-1.04 3.9-1.6-.16-.46 1.73-2.79 3.12-3.8 5.12-.58-.48 5.57-7.75-2.18-1.06-1.8-2.13-2.46-2.07-1.85.13-.67 1.27-2.46-2.06-2.54.08-2.5-1.28-1.01-1.25-2.12 1.13 1.54 1.91-.04 1.65-1.63-.29-.65-.95-2.65-1.76-1.64-.5.35-1.2-2-.81-1.45-1.6-2.3 1.3-1.28 1.79-1.85-.1.2-1.97-1.18-1.56-.87-2.74.38-2.57 1.64-4.4-1.15-8.32.2-1.87 1.38-2 .31-2.55-34.82 5.47-.63-7.7 1.38-5.13-6.98-8.77 1.16-2.87-.14-2.52.52-1.36-.88-.99-.03-1.62 1.98-1.14 1.18-2.06.7-2.9 1.88-1.27 3.75 4.05.83 1.87.98-.43 4.62-.62 2.65.63 1.07-1.51.12-2.22-1.06-.41-1.23-2.15 2.3-2.17 1.5-.03 2.03 1.51 4.1 4.01.74 1.4 2.46-.83-2.4-9.51z"/>
    <path region="101" short-name="4th Plymouth" long-name="4th Plymouth District" value="1" d="m739.36 455.28 2.59-1.55 3.71-1.64 3.31-2.25 10.58-8.31.13-3.7 1.87-1.44-1.3-1.19.5-2.53.95-.92 1.44-.09.66-1.98 2.12-.2 1 1.66-.56 2.37 1.14 1.07.15 2.34 3.6 4.98 2.27.83 2.4 3.28 2.31 1.12 1.17-.39 1.42 1.72-.8 3.22-.02 2.17-.77 2 1.1 3.1.13 2.95 2.24 2.13 5.85 11.34 5.98 9.3 6.64 7.42.47 2.66-2.48 1.97-.1 1.25-9.8 5.85-3.65-3.46-.72-1.45-4.8-3.34 1.45-4.54-4.76-2.56-2.13-3.04-.42-1.24-2.4-2.84.1-1.61-1.06-3.5-5.08 2.6-.21-3.59-.65-4.35-1.61-3.89-1.9-.23-.8 2.28-1.12-2.02.35-1.9-1.59-.6-2.9-.14-2.52-1.61-1.44-2.54-2.47-.75-.89-1.28-5.88.48-.26-.98z"/>
    <path region="102" short-name="8th Plymouth" long-name="8th Plymouth District" value="1" d="m678.7 529.45 6.66 1.6.15.88 14.38-5.77 3.38-2.2 3.3-1.31-.22-1.35 7.15 1.9 6.18-.71 1.82-.4 2.22 1.6 1.21 2.84 3.88.28-.62 5.02-2.82 1.03.8 2.25.38 2.54-2.1 2-1.95-.12-.56 1.3-2.31-.03-1.06 2.08-.23 3.05-.55 1.48-2.04 3.25-2.9-.43-4.83-2.3-1.86-.08-1.97 1.11-.62 2.01-2.42-.74-.4 2.07.89 1.76-.27 2.02 1.52 1.05.23 2.43-2.39 4.6 1.47-.06.65 2.74-.8 1.74-2.4.78-1.41-2.8-1.74-.62-.82 1.04-2.14 1.15-2.33-.02-1.07 1.1-2.88-1.32.2-2.45.84-.66-.31-2.45-.86-1.13-1.54.06-.45 1.3-2.27-.93-3.37-5.5-4.75-7.78 1.8-2.72.23-1.5 1.37-3.5-.9-2.28.96-3.71-1.4-2.57-.51-3.2z"/>
    <path region="103" short-name="10th Plymouth" long-name="10th Plymouth District" value="1" d="m693.6 504.7 2.7-.48.23-1.94-.64-2.4-.9.23-.43-3.14.49-1.46.2-6.3-.17-2.36-1.06-2.74-.5-2.81 1.02-.55 5.56-2.93.94 5.6 5.44-.91-.43 1.82 1.56 4.9-.4 3.38.36 6.05-1.56.87-2.55 3.53.77 4.86-9.99 1.65z"/>
    <path region="104" short-name="30th Middlesex" long-name="30th Middlesex District" value="1" d="m649.54 343.5.4-.56 3.52-1.31.13-4.11-.41-3.34-.03-3.33 10.82-6.18-1.01-5.45 2.03.39 2.38 5.02-1.01.56 1.7 1.92 3.98-.96.85-1.8 2.12-1.9 1.77.9 1.6 3.26-.1.12-1.02.43-3.39 4.8-1.36 3.92-5.32.74.84 2.18 1.32 7.85-3.28.16-6.21 2.88-1.12-2.55-1.6-2.03-3.1.3z"/>
    <path region="105" short-name="2nd Suffolk" long-name="2nd Suffolk District" value="1" d="m670.79 394.03 1.08-1.48 2.56-2.2-.28-.7 1.35-.95.35-1.3h2.53l.3-1.79 1.66-.89-.83-2.64-1.4-.31 2-4.07 1.84-1.12 2-2.95 1.96-.23 3.4.44-2.11 2.03-2 3.6 1.99.54 1.08.94-.7 3.84-1.62.89-2 .73-3.04.3-2.04 3.49-3.7 1.66-.23 2.83-2.1 1.42.74 1.54-2.4-1.81z"/>
    <path region="106" short-name="4th Barnstable" long-name="4th Barnstable District" value="1" d="m947.15 654.66-4.54-19.02 10.46-3.7.65-3.17 2.55-.58 2.62 1.58 2.89-.54 4.08.6 3.34-1.87 1.85 1.06 2.12-1.47 9.12-.44-2.85-2.48 2.46-4.55-3.4-6.34v-1.56l-2.16-5.45-2.78-1.81 2.1-2.94 1.97-1.78 1.3-2.9-.19-11.36-1.26-14.18.9-1.99 1.56-1.88-.76-1.27-4.35-.45-1.6-1.8.84-1.44 2.13-.4.06-1.79-1.87-.6-1.53-1.54-1.89-3.28.08-1.42 1.3-1.92-4.92-.27-2.79.8-1.86 1.66 1.07 1.13-.32 1.27-1.88 2.04-.01 4.51-.91 1.28.73 3.71-.74.54-1.13-5.58-.27-14.59-.9-1.77-.05-15.83-1.78-9.98-1.62-4.83-1.68-2.99-3.48-4.05-4.18-3.03-7.15-3.49-1.9-.55-4.01 1-2.43 1.25-2.33 2.25-2.13 4.13-.15 1.15-3.05 1.4 2.6 2.72 2 .46 5.15-1.43-2.4 2.32-1.99.74-2.68-.79-3.47-3.3-2.79-5.67-2.77-3.04-4.68-3.69 2.04-3.44 3.48-2.15 5.23-1.25 4.91-.16 8.14 1.4 12.35 4.13 9.32 4.89 6.73 5.37 6.99 8.51 6.03 10.53 7.21 15.08 4.89 14.23 6.5 24.94 1.11 8.41.93 4.98 2.62 25.57.07 12.27-.57 6.18-.92 4.98-2.8 5.18-.06 3.45-1 1.53-2.59 8.1-.27 3.52-2.63 3.14-2.47.11-2 1.26-1.46 5.18-.26 4.85.32 9.99-1.05 2.69-1.6 1.92-1.72.67-2.06-1.26-.66-2.66 1.39-2.59 2.73-2.96 1.39-3.88.72-4.64-.26-5.45 1.96-3.66-.1-2.45 2.26-4.15.43-3.02 1.52-2.47-1.46-3.1-2.68-1.67-3.09-3.35-2.97-1.64-2.01-.15-4.23 1.58-3.12.13-6.03 1.1-1 .79-2.88-.6-3.7.42z"/>
    <path region="107" short-name="13th Middlesex" long-name="13th Middlesex District" value="1" d="m554.99 383.73 12.83-1.81 1.69-8.3 7.49-1.65 3.42-11.35 4.42 2.26-.02-1.45 1.04-.7 1.05-3.23-.33-1.39 4.33-1.02.67-2.27 2.5-.22 2.73 2.4 3.2 1.66 1.17-3.27 1.75 1.29 1.14-1.7-1.14-1.63 2.88-.98-.95-.79.12-2.27 1.66-2.38 3.16-1.7 1.23.25-.13.64 2.1 2.4 2.01-.1 2.19.58 2.53 2.55.1.61-3.62.96-.7 3.5-2.47-.85-1.82 1.95 2.9 1.44 3.05 2.04-.34 2.72-1.07 2.9 3.52.93-2.94 5.27.74 1.5-.1 1.6-2.91.61-.64 1.44-1.54 1.39-4.7-1.5-.37.82 1.98 23.54-1.47-2.44-1.04-.63-.96 2.55-2.58-.65-.92-1.8-2.08-2.29-3.69 2.37-3.09.46-2.65-.2-.5-.9-5.23-1-18.95-3.57-2.47.97-3.62-.25-2.46 3.2-1.54-2.57-2.02.02-1.1-1.04 1.1-2.25 2.51-2.54-1.38-2.34z"/>
    <path region="108" short-name="6th Norfolk" long-name="6th Norfolk District" value="1" d="m657.4 451.28 2.41-2.83-.62-.73 1.37-2.48.96-4.13.83-1.06 1.77-.45 7.77 10.26 17.56 23.95 1.4.58 2.2 1.02.07 3.46 1.42 1.88-1.03.55-9 4.79-.97.52.25-1.42-2.23-7.12-6.77-2.3-1.94 3.52 1.08.86-1.52 1.2.12 1-3.24.63-3.5.31 1.01-3.47 1.55-2.5-2.54-.98-2.6-.51.6-2.25-1.9-.82-1.64.85-5.3-1.41.37-1.44-2.74-2.36-1.05-1.53-.59-3.22 1.16-1.3 1.51-.6 1.16-1.34-.8-1.8 2.62-6.7z"/>
    <path region="109" short-name="32nd Middlesex" long-name="32nd Middlesex District" value="1" d="m678.27 326.73.79 2.5.9 1.18.66 4.12.67 1.71-.28 2.18.35 3.5.78 1.46 1.32.5 2.49-1.86-.45 3.46 7.93 12.2-6.53 1.13-.28 2.13-3 .72-1.9-.25.03-2.1-1.1.15-3.17.44.23-1.93.8-6.59.43-6.08.69-4.02-2.88-1.64-1.26-3.35-2.98-.4 1.36-3.94 3.39-4.79z"/>
    <path region="110" short-name="8th Middlesex" long-name="8th Middlesex District" value="1" d="m533.23 440.34 3.5-12.67 6.2-2.77 2.24-.48 4.73 2.02 2.06-1.25 2.82-.13-.16 4.24 10.26 3.12-.07 5.56 3.05 1.03 15.44-3.26.5-3.16-.28-4.07 6.01-1.6 2.07-3.92 3.78.91 5.65 2.44.05 1.31 1.3 1.41 2.8.86-.2 1.17 2.8 1.03.84.91-.49 2.91.42 1.61-3.16 3.34-.6 1.46 1.26 1.4-.37 1.14-1.91-.65-.89.62-.6 2.48 3.31 3.55 1.31 2.62 3.6 3.72-12.22 6.5 2.12 5.98-2.49 1.65 1.5 2.56.15 1.26-2.62.12-1.22-.85-7.45-16.33-5.94.25-1.85-.48-3.88 1.7-5.57 6.29-3.94.53.02-3.42-5.4-.3-1.47-9.33-1.2.94-9.04-.3-4.6 2.72-.29-3.75-4.33-.1.2-.73-3.17-.34-5.4-8.5z"/>
    <path region="111" short-name="11th Bristol" long-name="11th Bristol District" value="1" d="m715.4 651.93 1.18-1 1.55-.2-.85-5.19 1.92-.05 4.61-.3.45 2.43-.56 2.92.27 2.5-.97 3.9.84 1.67 1.42.2.42 1.64-.78 1.98-2.93.94.28 2.34-.8.33-1.39-3.63-3.87.07-.25-1.66-1.2.18-.47-1.45 3.42-.45 1.66.14-.84-3.6-1.98.27-2.32 1.18-.54-1.29.2-2.17z"/>
    <path region="112" short-name="37th Middlesex" long-name="37th Middlesex District" value="1" d="m557.78 310.42-2.64 1.93-.64 1.7-2.75 2.7-2.6.9.99 2.77 2.07 8.6 3.79 1.8 1.73 2.5 2.46.81.77-.9 7.4 3.44 3.26 2.8-.55 3.87 3.64.49 1.47 2.5 2.19.86 8.18 1.08-6.13 12.35-19.04-10.16-12.53-1.02-1.54 7.25-24.27-11.2 1.92-4.53.87-3.89-2.35-1.99 1.3-2.63-.02-1.72-1.74-3.1-12.04-2.43.35-3.4L515 294.4l1.86-14.56 1.53 1.6 1.54.6 1.74 1.86 7.04 3.8 2.03.7 1.31-.93.82 1.42 2.1-.15 2.5 2.97.4 1.67 2.73 2.97 1.25.22.62 2.25 2.15 1.41 1.38-.23 1.89 1.15 1.51-.17.89 1.47 2.79 2.76 2.11 1.55z"/>
    <path region="113" short-name="4th Worcester" long-name="4th Worcester District" value="1" d="m466.6 320.14.2-1.8 1.74-.18 2.39.89 4.4-.3 2.51-1.96 3.23.6 4.1-3.11 1.97 1.59.66 1.98 3.43 1.75-.09-2.88-1.15-2.52-2.47-1.7 4.3-3.23.7-.54 6.88 8.17 2.57 6.43 2.5.56-2.77 4.66-1.27 1-3.26 16.6-28.39-6.46 2.15-4.58-5.59-3.16z"/>
    <path region="114" short-name="11th Plymouth" long-name="11th Plymouth District" value="1" d="m684.51 486.09 9-4.8.51 2.82 1.06 2.74.16 2.36-.2 6.3-.48 1.46.43 3.13.9-.21.64 2.4-.24 1.93-2.7.48-1-.92 1.8-1.17-1.3-1.72-.71-2.26-2.05.5-.98-7.36-1.77.28-3.46-1.97z"/>
    <path region="115" short-name="16th Worcester" long-name="16th Worcester District" value="1" d="m477.42 431.54 4.15-1.08-.23-1.4 3.57-.21 2.17-1.13 3.42-.3.3 2.25 1.43 3.92 4.15.97-.61 1.25-17.8 10.53-3.57-7.88-2.72.24.5-3.05-1.38-.31-.47-1.7 2.1-1.46 1.9 1.93 2.8-1.3z"/>
    <path region="116" short-name="9th Middlesex" long-name="9th Middlesex District" value="1" d="m626 365.35 15.63 6.95 2.41.9 2.36 6.68-4 4.6-3.43-1.46.37-1.15 1.84-.53 4.24-3.35-3.14-2.05-1.43-1.57-3.33 5.67-3.09.8.73 2.1 1.59.82-1.7 1.24-3.27-.72-1.12 2 2.26.24 1.51-.8-.6 3.6.44.21-6.36 2.6-1.12-.48-2.54-4.24.91-.82-1.76-2.53 2.45-5.74-2.35-1.05-1.4-3.7-1.36-.53 1.3-3.05 1.95.87z"/>
    <path region="117" short-name="7th Plymouth" long-name="7th Plymouth District" value="1" d="m714.9 469.67 2.3-1.2 2.59 13.1 8.12 11.55-2.85.53 1.65 10.89 1.95 11.38.87.76-.6 5.44-.12 4.7-3.87-.3-1.22-2.83-2.22-1.6-1.82.4-.41-2.21.5-2.2v-5.28l-4.87 1.55-1.36.1-1.31-1-3.32.23-3.6.98-1.07-6.74-.78-4.86 2.55-3.53 1.56-.87-.37-6.05.41-3.38-1.56-4.9.43-1.82-5.44.92-.94-5.6-.05-.3z"/>
    <path region="118" short-name="9th Norfolk" long-name="9th Norfolk District" value="1" d="m573.3 512.3 18.88-2.29 6.42-13.25 1.69-5-2.36-6.68-3.43-7.27.05-3.4 1.17.05 1.22.84 2.62-.1-.15-1.27-1.5-2.56 2.5-1.65-2.13-5.98 12.23-6.5 3.2-2.3 1.98.04 1.74 1.65 1.06-.87.2-2.01 4.18-1.3.97-1.97 1.5-.54-1.7 7.1.02 1.69.16 10.77-8.03-.33 1.02.87.29 2.97-.74 1.1.78 3.72 1.72-1.3 2.86.27 3.62 3.75 2.48-1.96 1.47-1.74-.15 1.07 2.09 1.7-1.96 6.66-4.53 2.12-3.56 5.6-.9 2.5.17 4.97-.66 1.73.33 16.8-21.25 10.96-4.79.08.02-12.68-12 .22-9.42.17z"/>
    <path region="119" short-name="4th Suffolk" long-name="4th Suffolk District" value="1" d="m709.9 390.83 2.31.59 1.48 2.2.08 2.16-1.96-.96-2.79-3.32zm-2.94 16.92 1.96-1.5.8-2.5 2.86-3.32 1 1.42-1.52 1.26-1.84 4.2-1.52.86zm-3.29-6.05 1.7.43-.25 2.21-1.34.8zm-7.67 5.5 2.87-2.7.87.52-2.3 3.86zm-11.6-12.05.94-.47 1.82-3.45 9.6 5.41 1.04 1.56-1.53 2.66-2.37-1-2.95 1.67-2.13-.52-1.48.77.25 1.9-1.6.6-1.9-3.21-1.2-.31 1.08-2.3z"/>
    <path region="120" short-name="9th Suffolk" long-name="9th Suffolk District" value="1" d="m677 397.17-.07-.92 3.3-3.22.9 2.26 2.05.85 1.23-1-.44 3.33-1.08 2.29 1.2.3 1.9 3.22-2.57 1.17-2.74-3.14-1.75 2.36-.88-3.04-.01-1.68-1.23-.8z"/>
    <path region="121" short-name="34th Middlesex" long-name="34th Middlesex District" value="1" d="m669.92 367.87 1.65.54 2.94 1.87 2.45.15.89 2.06-.5 2.1-.57 2.12-1.37 1.43-.8 1.23-2.08-1.27.56-1.72-6.16-2.87-1.86 2.18-2-2.67.6-1.82.2-2.9z"/>
    <path region="122" short-name="12th Middlesex" long-name="12th Middlesex District" value="1" d="m653.84 399.76 1.85-.08 1.09 1.23-2.88 2.93 4.23-1.52 1.84-3.86 2.35-.7-1.68 1.6 2.91 1.76.44.96 4.27.54-1 1.18-1.17.01-4.59 7.77-1.96-1.29-1.03.69-2.02-1.22-1.85 1.19-3.9 3.48-3.52 4.38-3.9-2.48-.74-2.86-1.03-.98-.48-2.43-2.02-.09-1.73-.7-.24-2.7-.94-2-2.1-.4-2.34.27-.66-.98-.38-2.04 1.58-1.76 1.9 1.28 1.2-3.08 3.1 1.14 1.57-.6-.01 1.9 2.6-.48.2-1.09 2.32-.66 1.12.83 2.55-.3 2.95 1.48z"/>
    <path region="123" short-name="17th Middlesex" long-name="17th Middlesex District" value="1" d="m614.63 280.1 4.32 1.8 1.8-1.9 1.67-1.82 1.36-.7 1.11 4.54-.98 5.84 2.24-.29 3.24-.96 1.1 2.65-.3.92 6.5 1.08-.74 3.04-4.68-2.1-.65 1.75-2.82 2.73-1.03-1.26-1.48.9-.94-.6-1.98 1.1-4.7-2.94.19-.63-5.72.37-.55-1.6-.1-2.68-1.67-1.74v-2.23l2.53-.95-.5-.8z"/>
    <path region="124" short-name="1st Plymouth" long-name="1st Plymouth District" value="1" d="m770.16 552.8 2.56-.53 1.52-1 1.99-.06 5.08-4.09 1.28 4.08 5.14.22.4-2.5 1.46-.47 1.8-2.17 2.41 1.55 1.48-1.82.97 1.2 1.08-1.21.32-1.57 2.07.04 1.56-.02 2.64.88-2.28-3.5-2.85-5.99-1.21-1.75 1.02-.63 1.06 1.3 3.9 8.32 2.14 3.74 2.08 1.08 2.33-.19 2.81-2.66 4.06-.84 4.41 3.95.5 1.23 3.64 2.47 2.5 1.27 1.71 2-2.38 1.57-.28 1.81.4 1.8 3.88 6.6.44 9.03 1.38 2.53-1.95 6.78-1.04 2.25-1.62 1.27-.3 2.56.59 3.26 1.04 1.83-7.84 9.07-10.5 4.48-8.27 4.42-1.05-2.27 1.74-2.07.29-1.84-.44-2.8.9-.18 3.01-6.77-4.2-.34-23.99 1.8.1-3.18.6-2.8 1.81-2.42 1-2.06 1.2.27 1.53-1.5.41-1.33 2.78-3.2.07-1.53-18.75-28.92z"/>
    <path region="125" short-name="3rd Plymouth" long-name="3rd Plymouth District" value="1" d="m726.27 425.71 3.46 1.84-.56 1.45 1.4.98.8 1.6 1.6 1.37 1.83-1.08.62-3.2-.9-.78-1.13-3.46-2.06-3.05-3.32-1.59 2.26-.4 2.59 1.4 1.79-.2-1.33-3.72-1.06-1.66-.13-1.93-4.65-1.53-1.8 1-1.45-1.29-2.2.03-.13-1 4.57-1.08 3.27.74 1.79-1.72 1.9.04.4 3.67 2.89 5.67 2.53 3.66 3 2.9 5.59.32 5.4 1.7 6.43 3.4 1.2 2.01.83-.05-.94.92-.5 2.53 1.3 1.19-1.88 1.45-.13 3.69-10.58 8.3-3.3 2.26-3.73 1.64-2.59 1.55-2.6 1.55-6.36 4.68-8.76 4.61 2.83-25.46-2.44-.3.3-1.28-.94-2.83-1.54-2.83-.32-3.15 4.3-1.11-.1-3.14zm-11.96-9.44 2.64-.94 1.66-1.62.12-2.11 1.65-.46.76 1.55-2.42 2.75-.57 2.65-1.46-.99-1.8.6z"/>
    <path region="126" short-name="27th Middlesex" long-name="27th Middlesex District" value="1" d="m675.4 378.14.6.39-.9 2.39-.11 1.9-.81 1.5-2.36-.02-3.46-4.1-1.5-3.23-.95.02-.84-1.3 1.87-2.18 6.15 2.87-.56 1.72 2.09 1.27z"/>
    <path region="127" short-name="13th Suffolk" long-name="13th Suffolk District" value="1" d="m682.15 412.27 1.8-.46.52-3.18-1.82-.98.77-2.2 2.57-1.17 1.6-.6 3.81 2.63-1.17 2.26-2.1.35-.78 2.2.23 1.99.86 1.96 1.07.17.49 2.93-1.3 2.87-2.94-.15-.68-1.93-2.85 1.01.45-2.18-.75-1.27 1.22-2.83z"/>
    <path region="128" short-name="16th Suffolk" long-name="16th Suffolk District" value="1" d="m692.76 365.44 2.2-5.32-1.53-2.44 1.98-2.05 1.9 3 2.98.3 1.13-2.93-2.25-3.84 3.19-.53-.41-1.23 1.02-.95.73 2.56 2.68 1.32-1.22 1.44 1.33.58 2.93 2.44-1.84 2.84-1.99 2.12-2.18-1.35-1.99 1.44-2.98 5.41 3.42.36-.84 1.94-.13 1.77.65 2.1-1.08 1.38-1.45 1.1-2.1-1.32 1.11-1.43-3.2-.89-1.57-.98-1.87-3.06z"/>
    <path region="129" short-name="19th Suffolk" long-name="19th Suffolk District" value="1" d="m700.46 375.8 1.08-1.38-.65-2.1.13-1.77.84-1.94-3.42-.35 2.98-5.42 1.99-1.44 2.18 1.35 1.99-2.12 1.84-2.84.69.34 1.8 1.07-4.42 3.44-2.1 2.87-1.3 2.77-.81 3.63.39 1.7 1.15.21.46 2.2 1.01 2.14 3.13.17-1.1 1.92.27 2.9 1.38 3.7-.72 1.26.65 2.72-.88.67-1.5-2.64 1.32-3.14-.6-.5-4.28 1.28-2.54-1.58-.84.1-.39 2.93-2.44-.13 1.19-4.17 2.27-.81 1.05-2.44 1.66-.93.09-2.16-1.98-.28z"/>
    <path region="130" short-name="2nd Worcester" long-name="2nd Worcester District" value="1" d="m399.6 254.67 26.9 1.11 14.63.4 8.45.31.46 2.93 7.64 7.63 1.12-.18.56 1.74 1.67 1.73.39 2.79-.59 12.85-.05 1.82-6.53 3.46-.28 1.73-7.72 3.28-.63-.4-4.22 2.18 1.27 2.5-7.9 13.32-3.4 4.13 1.27 1.15-3.67 3.88-2 1.46-6.06-5.42-22.53 19.32-.1-2.25-.73-1.36-.08-2.61-1.64-1.88.15-2.57-1.33-4.44-8.81-15.09 1.5-1.2-.9-12-1.1-.75-2.86-4.51 6.24-1.02 11.42.53-1.42-5.03-.1-3.01.86-3.96-.31-3.23.6-1.75 2.7-2.07 3.6-2.12 2 .28.66-2.06-6.38-9.65z"/>
    <path region="131" short-name="1st Essex" long-name="1st Essex District" value="1" d="m724.52 189.81 3.29.01 4.65 1.5 10.47 8.26 3.15-1.55 1.83-1.5 3.78-1.28-.13 8.26 1.41 10.57 1.25 4.27-9.17 6-6.15-2.13-7.75 2.74-2.02-1.54-1.98.35-3.42 3.8-3.75-5.8.33-2.33-.32-2.08-2.66-3.15 1.79-2.09 2.42-3.97 1.22-.99 1.44.14.53 1.68 2.68.9 1.22-5.13-1.4-5.05-2.11 1.93-2.67.72-.98-1.5-1.51.14-3.75 1.24.72 1.78 1.33 1.4.1 2.2-5.96 1.6-4.7.51 1.56 4.5-2.67-.8-4.56 1.05-1.59 1.4.32 2.9-15.08-8.59 2.56-5.97 3.7-3.92L710 196.5l4.83-2.7 5.14-3.24z"/>
    <path region="132" short-name="6th Worcester" long-name="6th Worcester District" value="1" d="m413.07 459.77 3.03-.48-.36-3.04 12.6-1.15-.1-5.61 1.19-1.04-.63-2.22-2.53-3.57-1.62-1.55.24-3.16-1.47-4.44 3.08-2.1.64 1.57 4.26 2.7 1.13 1.31 1.42.08 1.62 1.39.74 4.36 1.93 11.37 3.79-.37-1.72 2.85-1.87 4.6.42.96-7.79 4.88-1.63.56-4 .34-1.9.48 1.4 2.07 4.75 3.4.55 2.01 1.53-.6 1.32.74 4.19-1.34 2.94 1.34.83-.06 3.46-2.33 2.5-.8 1.45 7.12.92 6.22-3.47 1.05.74 3.79 3.95-1.12 1.1 8.1 2.7-1.2.68 2.9-.75 2 .29 3.95-1.8.6.23 1.82-.83 3.9.63 2.74.87 1.5-22.1-.73-6.78-.24-21.28-.17-10.12-.55 7.07-11.16 2.23-5.12 1.64.1-.08-2.66.51-1.4 1.57.04.37-2.23 1.49-5.66 1.75-.28-1.77-11.57 6.37-2.59z"/>
    <path region="133" short-name="5th Essex" long-name="5th Essex District" value="1" d="m777.46 274.06 1.64.55 3.72 2.1 4.08.92 1.85 1.51 1.31-3.23-.4-.74 2.3-1.62 1.75-1.97.92-2.23 2.56-1.56 2.04-2.34 1.6 1.06 1.42-1.99 1.74-.91.79 1.63 1.78.6-.9 3.77.73 1.58-.68 2.1v2.12l.89 1.1 1.28-.6 2.5.67 2.4-.5.99 1.45-.57 1.75 1.5 1.12-1.16 2.28 1.23 1.02-.71 1.82-3.24.05-3.58 2.37-.58 2.13-1.86.65-1.41 1.72-.04 3.39-.92 2.9-2.92 3.04-.54 1.77-1.87 2.02-2.84.68-.32-1.38 1.8-3.06.72-2.32-.53-2-1.86-2.12-3.12.6.07 1.6-1.4.99-.8 1.72 1 1.03-2.04 2.85-1.35.66-1.58 2.58-2.69.7-.6 1.13-5.4.4-.35-1.12-2.57-.13-4.79 1.66-1.8 3.32-3.84.88-4.48-1.87-.25-1.87-3.5-4.22-.88-1.47-1.25-3.49 3.83-.73-.01-2.53-2.4-2.02-1.85-4.35-.7-2.3 1.89-.17-.34-5.78-1.08-.3.69-2.01 3.11-3.82 3.47-1.11.4-3.12 3.37-2 2.37-.22 1.74-.83 3.12 1.91 5.33 6.4z"/>
    <path region="134" short-name="13th Worcester" long-name="13th Worcester District" value="1" d="m453.7 419.47 20.16-16.66.36 1.37 1.4 1.65-.47 3.91 1.78.72-.02 1.93-3.54-.9-2.06.76.81 2.88 3.22 2.35-.56 1.84 2.97-.86-.2 4.73-2.26.12-.73 2.68-3.17.94-.02 1.9-2.86-1.04.24-1.43-1.8-1-.68 1.31-2.65 1.67-1.5-3.32-.23-2.74-1.69.89-.45 2.07-4.01-.27z"/>
    <path region="135" short-name="18th Worcester" long-name="18th Worcester District" value="1" d="m448.46 480.04 2.6.35 1.59 1.3 2.52 1.3 3.92-1.6 4.58.76 2.26-1.55 3.43-.65 2.56.03 1.6-1.69-1.37-3-3.23 1.45-.68-5.42 24.53-14.57 1.01 1.22 1.89-1.62-.05-1.23 2.9-1.78 1.38 6.98 6.54-1.06 1.06 4.78-.63.71.64 4.53-.65 4.91-3.05 4.11 3.52 1.87-4.38 7.61 6.2-2.7 1.55 1.45 7.24 2.65 4.2 4.9 2.5 2.36.83 1.4-2.93 1-1.15.98-3.83 1.87-3.22 2.8-.33 1.35-3.82-1.07-.18 4.21.44 12.05-23.79.74-9.28.63-.4-5.83-23.26-.28-.87-1.5-.63-2.74.83-3.9-.23-1.83 1.8-.6-.3-3.94.76-2-.68-2.9-2.7 1.2-1.1-8.1-3.95 1.12-.74-3.79 3.47-1.05z"/>
    <path region="136" short-name="2nd Hampden" long-name="2nd Hampden District" value="1" d="m256.65 498.28 9.46 2.05 1.05-2.89-2-.98.2-2.17.82-.37 1.98 2.95.57-2.38 1.84.4 4.58 1.37 2.17 3.25 1.27-.28.25-1.68 2.22-.57.72 1.12 4.85-3.94 3.48 2.34-.09-2.95 14.46-2.16 1.02-3.29 9.8-1.47.8 6.04 1.52-1.1.91-2.26 1.64-1.06 1.16-3.3 1-.63 1.32.64 3.04.06 2.7-.93 1.9 1.38 1.4-.4 1.22-3.63 1.5-1.78 3.67.48-.76-4.59-1.68-3.73-2.39.28-.6-.85 4.6-.21 3.53 1.27 1.19-.85 1.66-.13 1.22 19.3-.16 22.88-12.99-.08-38.98-.78-14.67-.09-5.29-.02-6.9.85-5.7.7-2.54 2.06-6.87-.17-.3-2.13v-3.1l.46-3.3 1.65-3.74z"/>
    <path region="137" short-name="6th Hampden" long-name="6th Hampden District" value="1" d="m229.97 464.1 16.08.34 2.84-.08-1.6-1.59 2.4-.57-.07-1.33h1.25l-.36 3.8.17 2.84-.75 1.8-1.56-.33-.94 1.14 1.13 1.23 2.28-.47.89-1.47 1.98.28.02 1.22 1.79.17.51 3.08-4.65 2.65-3.7 2.04.22 2.96 1.54 2.43 1.31 1.18 3.97 2.38 2.17 2.56-2.88.02-.53 2.6-2.46-.88-3.17.36-1.72-.66-3.44.34-4.31 4.64-1.9-1.36-1.9-4.34-1.35-1.34-.97-2.12-1.54-.4-.36-2.06-3.17.44-3.19-1-5.86-6.38-3.78-1.32 1.83-2.8 1.52 1.28 1.66 2.55 3.84-1.03 2.78-1.54-.08-2.3 3.51-.3-.64-2.4 1.01-3.1z"/>
    <path region="138" short-name="1st Worcester" long-name="1st Worcester District" value="1" d="m426.97 324.49 2-1.46 3.67-3.88-1.26-1.15 3.38-4.13 7.9-13.31-1.26-2.5 4.22-2.2.63.41 7.72-3.28.28-1.73 6.53-3.46-1.03 26.93 2.02-.1-.13 2.37-1.93-.16-.13 2.95 7.03.35-1.27 11.8 5.6 3.18-2.16 4.58-1.56 3.25 2.18 4.37.17 3.21 2.66 6.48.96.93-4.89 4.61 3.9 10.55-1.78-.34 6.18 27.8-2.74 2.25-20.17 16.66-.45-1.25-20.92 1.19-1.88-11.05-6.18.18-12.76-35.43 19.45-16.15 12.61-10.58-3.6-3.18 3.73-3.22z"/>
    <path region="139" short-name="18th Middlesex" long-name="18th Middlesex District" value="1" d="m614.63 280.1-2.77 3.52.5.8-2.54.95v2.23l1.67 1.74.1 2.68.54 1.6-.56 1.95-1.38.37-.51-2.12-.9-.23-8.68-4.63-1.34-4.42 5.92-1.02 1.07-.69 2.56-2.85 1.72-.87 1.35-1.5 1.15.44z"/>
    <path region="140" short-name="5th Plymouth" long-name="5th Plymouth District" value="1" d="m717.2 468.46 4.43-2.34 8.76-4.6 6.37-4.69 2.6-1.55 2.54 2.44.26.98 5.88-.48.9 1.28 2.45.75 1.45 2.54 2.52 1.61 2.9.15 1.59.6-.35 1.9 1.12 2.01-.69 1.82 1.36 1.23.64 1.7.31 3.94.67 3.75h-1.07l-.58 1.79-2.1.72-.6 1.48-1.6-2.34-1.83.45-2.05 2.75.17 2.2-3.18-.94-4.2 1.48-.7.78-2-.68-1.65.35-.5 1.12-3 2.52.9 1.54 1.1 4.2-1.26 2.08-1.46-.35-1.2 1.6-1.02 2.42-2.46.46-.86-2.11-1.63-.62-3.42 2.14-1.65-10.9 2.85-.52-8.12-11.54z"/>
    <path region="141" short-name="29th Middlesex" long-name="29th Middlesex District" value="1" d="m647.8 381.89 2.7.2 2.66.9 4.36 1.02-.52-2.1-1.14-2.19.92-1.44-.38-1.64 1.7-.33 2.24 1.07 2.06-1.87 2.67.18.84 1.3-.9 2.37-.96 5.1-.38 1.9-2.1 1.68-1.29-.14-1.07 1.4-4.34.98-1.05-.59-2.13.3-1.92-.53-2.26.12-1.7-.54 1.14-1.37 1.86.22.36-1.19-1.77-1.76z"/>
    <path region="142" short-name="6th Plymouth" long-name="6th Plymouth District" value="1" d="m760.62 469.06.8-2.28 1.9.23 1.61 3.9.65 4.34.2 3.58 5.1-2.6 1.06 3.5-.12 1.61 2.41 2.85.42 1.24 2.13 3.04 4.76 2.56-1.45 4.54 4.8 3.34.72 1.45 3.66 3.46 9.8-5.85-.15 1.72 1.4 6.63 3.45 5.56 2.95 3.37 3.3 5.07-1.98.03-.62-1.5-7.42-10.68-1.82-.13-1.45 1.58-2.32.33-1.4 1.52-.64 5.92 1.16 3.4-.96 1.71-2.2.86-2.23-2.73-2.52-.22-4.58 2.17.33 1.65-3 .14-.68-2.48-1.97-3.12-10.68-1.64-1.69-.41-5.92.97-1.39-3.45-.02-1.88-4.14-1.79-1.36.29.6-3.4.8-.88-3.23-2.94-2.46-.5-2.52 1.58-.36 2.34.66 2.31 3.16 8.71 5.16-1.66.35 1.64 1.81 2.53-.65 2.27-2.2-1.44-1.53.68-1.81 1.7-.51 3.28-1.6-.67-1.81.4-.75-1.62-2.12.53-.13 2.77-2.02.37-4.47-1.25-1.28-1.03-.87-1.78-.01-2.99-2.97-.41-.83.71.6-5.43-.87-.76-1.95-11.38 3.42-2.14 1.63.62.87 2.11 2.46-.46 1.02-2.42 1.2-1.6 1.45.35 1.26-2.09-1.1-4.19-.9-1.54 3-2.52.5-1.12 1.64-.35 2.02.68.7-.78 4.19-1.48 3.18.93-.17-2.2 2.05-2.74 1.82-.45 1.61 2.34.6-1.48 2.1-.72.58-1.79h1.07l-.67-3.75-.31-3.94-.64-1.7-1.36-1.23z"/>
    <path region="143" short-name="1st Suffolk" long-name="1st Suffolk District" value="1" d="m688.27 380.94 1.41-1.37 3.23 1.06 2-1.36 1.24-3.12.76-.57 2.1 1.32 1.45-1.1 1.57 1.23 1.98.28-.09 2.16-1.66.93-1.05 2.44-2.27.81-1.19 4.17 2.45.13 1.09 1.56 2.7-.5.76 1.35-1.18 1.44-1.34.22-2.63-.8-.51 3.28-.62.08-5.56-4.34-.54-1.79-2.34-.15-1.29-1.3-1.17-2.21z"/>
    <path region="144" short-name="6th Suffolk" long-name="6th Suffolk District" value="1" d="m667.36 415.71 2.37 1.48 2.44-2.15 1.55-.1 2.63-1.85 1.76-2.17 1.97 1.71 2.07-.36 1 1.42-1.22 2.83-3.02.4.43 1.83-2.1-.03-.88 1.47-1.85.8-1.7-1.93-1.71.76-.96 2.25-.45 3.14-1.97.77-1.1-2.52.59-3.62z"/>
    <path region="145" short-name="36th Middlesex" long-name="36th Middlesex District" value="1" d="m572.8 260.58 1.66.06.71.02 4.7.15 12.69.41 9.8.32 6.04.36 10.06.08 4.27-5.43 3.08-5.56 3.55-4.09 4.75 25.56-1.2 2.68-2.13.52-1.7 1.46-2.28-.2-3.02.55-1.36.71-1.67 1.82-3.79-6.44-16.19 4.58-3.17-2.77-2.6.4-1.96 4.22-2.55.42-1.3-1.51-1.4 1.54-2.32-.38-1.5-1.66-21.19 13.8-1.41-8.11.59-4.18 2.08.23 1.82-.7.84-2.95 1.32 3.38 4.91-3.22.5-1.08 2.36-.74.15-2.75-.43-3.87-1.15-2.5-2.5-1.82 1.31-1.48z"/>
    <path region="146" short-name="5th Bristol" long-name="5th Bristol District" value="1" d="m648.47 570.74 15.68 3.4 2.88 2.3 1.83-.25 1.3-3.69-1.6-.51-.68-2.63 1.3-1.88 1.89.86 1.98 1.84 1.14-2.12 1.26-.4 1.62-3.83 3.32 1.63 2.23 5.13 2.5 2.87-.76 3.54-3.88-2.63-1.19-1.24-6.5.2-1.28 1.62v2.73l-2.39 5.08 1.25 3.89-.32 1.96-1.41.73-.87 1.8 1.49 4.27-1.67 2 .22 3.17-.58 3.3 1.43 4.55-.75 1.88-3.94 6.1-.17 3.04-2.4 4.04-4.97 6.51-2.83 4.82-1.61 2.3-4.36 4-3.2 3.6-6.58-10.71-.4-.64.38-2.08-.49-4.51 1.08-.26-.23-5.46-.42-2.17v-4.01l3.67-.75.8 1.48.5 3.04 1.25.24 3.02-.6-.36-2.28 1.38-2.64 2.15-2.97-.83-2.07-.9-.02-1.88-14.12-2.76-24.39z"/>
    <path region="147" short-name="16th Essex" long-name="16th Essex District" value="1" d="m655.4 258.54 2.4-.4.2-3.91 1.8-.11-1.3-2.25-.1-2.31 1.94.03.03-1.78 1.44-4.19 3.2-3.57 3.11 3.96.24 1.2-.85 1.7-4.35 5.75.2 3.02-1.02 3.49-.8.38-.95 2.41 1.52 1.83-.35 2.98 1.57 1.88-.24 1.01-4.68-1.87-4.06.93-.54-1.19-1.45-.11.4-1.66-1.21-2.62 2.97-2.8z"/>
    <path region="148" short-name="9th Hampden" long-name="9th Hampden District" value="1" d="m251.38 476.8 4.65-2.64 14.2-8.03 3.37-.28 2.02-1.1 1.54.15 3.21-.52 3.34.35 2.22 1.79.19 1.24-2.17.18-1.16 4.31-2.57.61.32 2.49 2.25-.95-.22 3.6-3.83 1-1.48-1.06.2-1.83-5.53.1-1 2.15-1.71 1.31-.5-4.53-4.31 1.83-3.6 2.53-2.55 1.35.39.96-2.03.2-2.51-1.96-1.28.99-1.24-1.88z"/>
    <path region="149" short-name="3rd Middlesex" long-name="3rd Middlesex District" value="1" d="m523.04 345.49 24.27 11.2 1.54-7.25 12.53 1.02 19.04 10.16-3.42 11.35-7.5 1.64-1.68 8.3-12.83 1.82-22.8 3.24-1.32-1.04 7.7-6.41-14.03-8.53-8.44-3.3 5.09-23.2z"/>
    <path region="150" short-name="12th Norfolk" long-name="12th Norfolk District" value="1" d="m623.66 458.73 3.42.16 1.3.5.37 1.38 1.43 1.8 3.53 2.3 2.96-2.64.82-1.47-2.09-3.59-1.33-.55 7.72-9.82 3.98-1.9 4.97.6 6.66 5.78-.78.63-2.63 6.7.8 1.8-1.16 1.35-1.51.59-1.16 1.3-3.02 1.14.5 2.96-7.94 4.87-1-.01-2-1.54-3-1.28-1.35-2.59-4.04 3.11.64.64-1.35 2.65 1.21 2.12-.31 1.13-1.48 1.74-2.48 1.96-3.62-3.75-2.86-.26-1.72 1.3-.78-3.73.74-1.1-.29-2.97-1.01-.87 8.02.33z"/>
    <path region="151" short-name="15th Worcester" long-name="15th Worcester District" value="1" d="m477.75 418.46 2.56.4-.4 1.85 1.9 1.75 8-.4.7 5.36-3.43.3-2.17 1.13-3.57.2.23 1.4-4.15 1.1-.38-.8-2.35.14-3.32-2.05.02-1.9 3.17-.95.73-2.68 2.26-.12z"/>
    <path region="152" short-name="22nd Middlesex" long-name="22nd Middlesex District" value="1" d="m617.67 293.88 4.7 2.95 19.3 12.11-1.12 1.05-.17 3.03-.64.58 2.56 2.46-.26 3.23 1.33.59-3.6 7.74-1.12-.41-2.78 7.11-1.4-1.94-.88-3.12-.7-.08-2.12-2.2-1.24 1.2-6.57-1.57-7.1 2.52-.89-.2.58-3.3-3.82-5.11 1.1-2.57-1.47-1.71-3.76-2.3 10.76-17.1z"/>
    <path region="153" short-name="2nd Norfolk" long-name="2nd Norfolk District" value="1" d="m696.97 420.48 4.14 2.33.65 2.1 3 .94 1.27-.36 2.06.87 2.37-2.25 2.42-.69.59-1.5 1.34.21-.7 5.15-2.11-.76-1.8 1.82 2.38 1.05-1.4 2.85-2.18-.9-1.48-1.47-2.64.12-.04 1.77-3.56-.52.08 1.12-1.46 1.06.66 1.04-4.44.92-4.28-2.25-1.24-2.72 1.33-1.23 1.4-2.84 1.64-1.31-.26-1.61z"/>
    <path region="154" short-name="24th Middlesex" long-name="24th Middlesex District" value="1" d="m644.05 368.98 2.32-.18 3.54 1.68.23-2.65 1.16-.5 2.28 1.56 1.44-.82 3.34.98 1.25 2 2.97 3.14.5-1.17 1.99 2.67-2.67-.18-2.06 1.87-2.24-1.07-1.7.33.38 1.64-.92 1.44 1.14 2.2.52 2.1-4.36-1.03-2.65-.9-2.7-.2-1.4-2.01-2.37-6.69-2.4-.9z"/>
    <path region="155" short-name="9th Plymouth" long-name="9th Plymouth District" value="1" d="m683.54 486.6.97-.51-.39 3.99 3.46 1.97 1.77-.28.98 7.36 2.04-.5.71 2.26 1.32 1.72-1.82 1.17 1.02.92.64 4.87 10-1.65 1.06 6.74 3.6-.98 3.33-.24 1.3 1 1.37-.09 4.87-1.55v5.27l-.5 2.2.41 2.22-6.18.72-7.15-1.92.22 1.36-3.3 1.31-3.38 2.2-14.38 5.77-.15-.88-6.66-1.6-4.31-18.48-.72.82-3.45 1.11-1.3-1.85-.82-3.4-2.8.71-.79-1.97-2.38-.5-2.77.24-2.57.67-.3 2.02-1.68 2-1.28-8.4 8.4-4.36z"/>
    <path region="156" short-name="11th Essex" long-name="11th Essex District" value="1" d="m706.8 339.34-1.76.34-.9 1.59.39 1.71 1.2-.12.58 1.7 2.6-1.76.86 1.42 1.49-.97 1.64 1.2-.29.96 1.36 1.3-1.7 1.94.24 1.85 3.24-.32 3.2-1.4.55 2.34-2.75.24 2 1.8-.64 6.26 1.14 2.52 1.34 1.74.99-.55 3.32.98 1.34.95.2 1.27 1.34.68-.79 1.46-1.44-.12-2.54-2.68-2.26 1.1.02 1.34-2.35-.36-.3-2.92.53-2.17-1.18-2.62-.2-2 .55-3.92-1.44-1.6-5.29 5-.98.62-.69-.35-2.93-2.44-1.33-.58 1.22-1.44-2.68-1.31-.73-2.57-2.8-9.98 3.43-.36z"/>
    <path region="157" short-name="8th Bristol" long-name="8th Bristol District" value="1" d="m661.51 642.34 1.63-.91 3.51.91-.44-1.85 1.12-5.53 2.34.36.63-3.8 1.4-2.66-.26-1.3.82-3.12 3.1.26 1.31-1.36 2.11-.25.65-.73 1.1-5.95-11.55-2.8 10.33-5.34 1.49-1.28 3.44-4.3-1.5-1.23 3.17-1.13 3.79.98 2.33.2 1.32-.7.83-2.63 2.4 2.47-3.28 7.75 29.2-4.63 4.84 12.46 5.03-.84 7.53 28.26-2.31-1.45-1.43 1.4-.9-1.36-3.68 1.05-4.24.51-.56-.84.93-2.32-2.25-1.4-.86.1-.82 2.4-2.62-1.87-.63-2.62-3.75 1.63-.41-2.16 1.6-5.02 1.29.4-2.69-10.88-34.54 22.1-2.8-.7.43 3.52 3.18 4.2 2.67 5.08 1.49 4.9 1.12 1.32 2.3 4.68.03 2.51-.5 3.42.41 3.75-.81 1.67-1.43 1.47-.02.92 3.56 6.82.88 4.36-.67 4.05 1.35 6.01-1.71.99 1.17 5.25 1.75 3.44-3.7 2.02-.8 2.56 1.33 2.01-1.33 2.12-.8-3.51.06-2.61-2.12-1.91-2.74-1.24-3.43-1.08-4.18-.16-2.07 1.9-3.84.65-1.95.88-.56 1.34-1.33-.35-.52-9.22-2.48-26.19-1.5-3.39-1.1-1.39-.25-4.1.29-2.92 1.33-1.68.79-11.85-8.18-2.05.74-1.09-.7-2.92 1.93-.5 2.3.6 1.08-3.76z"/>
    <path region="158" short-name="3rd Berkshire" long-name="3rd Berkshire District" value="1" d="m34.8 364.95 12.47 2.62 37.03 7.73 4.07-19.46 2.68-13.58 9.94-21.1 10.83 1.75-3.47 16.3 1.84.4-2.99 15.07-9.2-.34-3.31 15.43 9.37.3-1.44 7.13 20.2 4.69 1.17 15.5.4 4.06 2.85 1.77 2.01 1.85 1.31-.3.5 1.97 2.15 2.14 3.11.4 1.01-1.09 1.76 2.43 1.07-.05 1.71-2.94-.44 23.25-.68-.12-1 4.88-7.56 35.73-10.1-1.72-.29 1.76.82 1.72-.18 2.17.91 3.17 1.45 2.04-.55 1.33-2.6 1.57-.6 2.09.48 4.49 3.15 8.87 1.02 1.46-1 1.82 1.98 1.63.21.98-.74 2.85.91 2.84-20.67-.79-28.63-1.1-18.06-.79-38.66-1.35-15.22.35-2.67-.01L0 492.98l9-33.05 9.23-33.92 8.05-29.64Z"/>
    <path region="159" short-name="9th Bristol" long-name="9th Bristol District" value="1" d="m716.37 636.72-.9 2.33.56 1.55 2.78-.18.4 5.07-1.93.05.86 5.18-1.56.21-1.19 1-7.14.78.86 4.43 2.59 3.15.22 1.33 2.77 5.88 3.72 2.45.5 1.62 1.13.8.16 2.79.73 2.38-1.1 3.68-1.76 2.51-1.35-1.51-.4-1.68-1.77.53.9 4.44 2.57 2.8.9 6.15 1.7 3.35-3.71-.13-1.26.95-.46 2.9-1.94.83.63 3.53-1.1 1-1.34-5.32-1.46-.73-3.78 1.53-1.26 2.65.86 2.52-.67 1.79-2.78-.88-2.62-.25-4.49 1.14-.8 1.64-1.76-3.44-1.17-5.25 1.7-.99-1.34-6 .67-4.06-.88-4.36-3.55-6.82v-.92l1.44-1.47.81-1.67-.42-3.75.5-3.42-.03-2.51-2.3-4.68-1.11-1.32-1.49-4.9-2.67-5.08-3.18-4.2-.43-3.52 2.8.7 34.54-22.1 2.69 10.88-1.3-.4z"/>
  </g>
</svg>