<svg viewBox="0 0 1000 1000" auto-border-stroke-width="1" auto-border-stroke-width-limit=".5" original-source="['https://www2.census.gov/geo/tiger/GENZ2022/shp/cb_2022_us_sldl_500k.zip']" candidates='[{"id":"0", "name":"Democrats", "margins": [{ "color": "#1C408C" }, { "color": "#577CCC" }, { "color": "#8AAFFF" }, { "color": "#949BB3" }]},{"id":"1", "name":"Republicans", "margins": [{ "color": "#BF1D29" }, { "color": "#FF5865" }, { "color": "#FF8B98" }, { "color": "#CF8980" }]}]'>
    <g regions>
    <path region="0" short-name="State Representative District 24" long-name="State Representative District 24" value="1" d="M230.037,135.095L234.024,133.662L234.725,130.419L241.63,124.474L251.335,117.666L255.253,121.137L259.774,123.808L251.856,129.041L255.494,132.584L265.755,133.521L268.999,135.357L265.019,139.644L262.639,144.294L257.55,150.017L254.825,152.021L242.004,158.607L240.455,159.2Z"/>
<path region="1" short-name="State Representative District 39" long-name="State Representative District 39" value="1" d="M397.774,827.49L404.301,827.888L408.789,826.396L418.699,819.707L425.342,817.971L432.117,810.677L442.392,815.07L448.77,819.169L458.376,821.877L465.072,827.135L469.21,828.227L476.858,833.259L480.795,837.088L486.462,838.68L494.027,843.825L493.656,854.018L495.92,856.293L503.86,861.889L508.674,863.707L510.36,867.797L517.962,874.607L521.294,876.686L508.642,890.711L506.47,894.551L499.553,893.949L495.11,896.431L488.978,896.941L481.38,899.738L473.822,901.564L471.443,904.766L460.656,902.024L446.014,897.235L443.895,903.416L439.658,906.493L441.243,913.392L437.499,922.577L434.697,925.405L432.184,930.355L430.088,930.966L426.304,929.291Z"/>
<path region="2" short-name="State Representative District 36" long-name="State Representative District 36" value="1" d="M491.081,659.478L494.881,657.088L500.58,651.76L503.367,652.586L508.891,649.372L513.74,647.514L517.545,648.401L519.294,646.127L525.545,644.072L525.845,641.197L529.794,639.081L534.081,639.142L532.337,636.232L533.992,632.783L532.59,631.174L533.226,628.024L530.295,625.721L532.143,622.877L529.861,618.176L532.911,613.68L538.448,610.178L538.53,605.71L543.219,605.003L545.813,605.815L547.609,609.628L549.856,606.449L555.84,612.294L557.305,612.334L558.666,607.555L561.039,608.529L560.939,611.531L565.58,610.598L566.432,607.88L570.825,607.653L572.063,604.586L576.733,605.81L578.317,608.826L577.129,613.707L577.472,618.318L581.475,624.031L587.726,631.176L603.923,643.111L609.01,648.308L615.601,651.712L637.703,671.498L655.503,683.111L666.365,693.161L661.985,697.451L658.792,697.92L657.478,694.963L653.88,695.074L652.021,697.424L645.27,697.384L640.815,700.339L638.683,699.859L637.9,706.686L635.05,706.389L635.562,711.999L630.976,709.061L622.114,704.55L620.121,706.908L611.129,708.255L608.978,710.557L599.94,713.595L601.046,716.995L599.441,722.077L587.725,725.5L588.988,733.317L590.198,736.722L587.719,738.252L586.981,749.844L585.494,753.25L584.259,760.732L585.675,766.637L586,773.675L577.469,774.571L574.602,778.721L566.173,780.598L564.793,783.136L562.396,783.651L557.824,777.638L541.805,760.813L538.921,741.901L538.391,732.055L536.472,721.693L531.344,722.957L519.359,670.279L509.889,670.857L499.837,668.615L493.939,670.649L490.219,670.171L491.051,667.663L490.013,663.269Z"/>
<path region="3" short-name="State Representative District 31" long-name="State Representative District 31" value="1" d="M406.432,457.138L422.721,466.936L431.552,474.071L432.374,475.26L435.23,479.598L430.012,483.281L431.999,487.008L433.582,495.735L429.792,497.57L425.275,497.375L420.609,508.071L416.223,513.436L412.864,511.764L407.335,512.563L401.86,515.413L399.244,503.682L401.341,501.999L396.656,498.306L396.939,494.004L401.046,489.375L398.842,487.672L400.352,484.234L398.196,478.083L401.208,472.696L401.899,466.712L405.223,463.292Z"/>
<path region="4" short-name="State Representative District 1" long-name="State Representative District 1" value="1" d="M320.412,57.263L328.256,51.765L332.866,45.266L334.981,48.033L338.343,49.005L339.782,52.103L342.709,52.719L347.867,57.635L341.136,59.104L337.113,60.908L332.865,58.685L330.352,63.667L325.775,63.517L322.353,61.417L320.199,64.258L316.074,64.526L313.178,63.684L315.855,62.192L318.506,57.94Z"/>
<path region="5" short-name="State Representative District 20" long-name="State Representative District 20" value="1" d="M586,773.675L585.675,766.637L584.259,760.732L585.494,753.25L586.981,749.844L587.719,738.252L590.198,736.722L588.988,733.317L587.725,725.5L599.441,722.077L601.046,716.995L599.94,713.595L608.978,710.557L611.129,708.255L620.121,706.908L622.114,704.55L630.976,709.061L635.562,711.999L635.05,706.389L637.9,706.686L638.683,699.859L640.815,700.339L645.27,697.384L652.021,697.424L653.88,695.074L657.478,694.963L658.792,697.92L661.985,697.451L666.365,693.161L685.917,701.106L700.764,703.728L711.889,700.68L716.884,696.877L716.463,698.602L712.366,702.165L705.166,704.263L705.098,706.084L698.997,716.728L697.864,719.955L695.057,718.385L689.697,728.729L684.892,731.914L674.655,747.923L680.888,751.315L682.236,756.037L680.024,759.419L672.083,760.025L671.071,755.675L664.247,758.478L661.534,760.281L641.926,756.761L640.923,756.904L628.504,765.66L627.382,762.856L619.641,767.795L608.037,777.354L587.507,789.799L586.287,787.959L585.734,779.839L586.684,777.916Z"/>
<path region="6" short-name="State Representative District 12" long-name="State Representative District 12" value="1" d="M237.827,42.101L241.69,37.718L252.559,27.837L266.191,18.178L275.01,13.38L287.12,8.166L295.778,5.377L299.725,11.436L304.863,10.901L311.441,15.196L314.439,15.612L314.306,20.2L315.345,23.053L322.702,22.043L325.378,28.859L328.821,31.342L326.882,35.647L320.796,39.455L324.038,49.071L320.412,57.263L318.506,57.94L315.855,62.192L313.178,63.684L308.579,63.579L308.097,65.424L302.746,63.877L303.072,67.999L293.61,65.301L289.508,64.711L282.521,65.542L277.219,65.888L273.979,67.103L266.844,66.387L259.544,63.639L258.106,58.437L254.556,55.37L248.45,54.988L242.119,51.342Z"/>
<path region="7" short-name="State Representative District 6" long-name="State Representative District 6" value="1" d="M322.702,22.043L329.322,17.631L340.105,22.883L347.053,25.515L355.891,33.898L352.513,38.364L359.222,40.759L355.451,54.828L353.889,63.732L348.991,65.729L343.069,63.993L340.439,61.145L341.136,59.104L347.867,57.635L342.709,52.719L339.782,52.103L338.343,49.005L334.981,48.033L332.866,45.266L328.256,51.765L320.412,57.263L324.038,49.071L320.796,39.455L326.882,35.647L328.821,31.342L325.378,28.859Z"/>
<path region="8" short-name="State Representative District 4" long-name="State Representative District 4" value="1" d="M680.024,759.419L682.236,756.037L686.206,759.276L689.053,759.048L696.735,762.656L703.051,767.935L706.985,769.599L715.376,776.437L721.942,774.968L724.597,777.805L732.067,782.37L736.874,784.528L739.662,797.83L743.658,796.747L746.757,798.453L751.745,807.122L750.981,812.266L746.226,818.751L745.375,824.641L738.804,827.657L734.662,831.56L716.168,841.618L713.057,844.444L709.124,840.606L703.282,844.656L699.493,844.511L697.145,846.646L693.765,844.497L690.416,845.706L688.379,848.934L686.363,848.964L682.952,851.425L680.039,850.75L675.64,853.311L674.692,851.944L669.704,851.984L667.87,855.208L665.358,856.641L661.226,857.054L659.663,858.908L654.523,855.504L652.992,856.022L646.908,854.803L644.823,855.808L644.584,854.348L648.879,850.263L648.226,846.434L648.468,837.408L647.738,830.459L660.196,831.686L663.929,829.539L662.753,826.179L663.833,817.31L665.164,812.794L668.768,810.242L671.41,810.413L674.34,803.253L671.389,798.978L671.455,795.691L669.596,788.495L670.631,780.284L673.608,780.779L683.38,777.844L688.272,780.348L691.342,773.925L689.471,768.911L684.338,765.461L679.995,760.664Z"/>
<path region="9" short-name="State Representative District 34" long-name="State Representative District 34" value="1" d="M402.954,522.092L401.554,519.803L401.86,515.413L407.335,512.563L412.864,511.764L416.223,513.436L420.609,508.071L422.512,510.964L425.827,510.713L429.33,507.925L432.02,508.854L433.911,504.822L438.385,504.616L439.822,503.003L444.052,502.65L446.789,501.018L449.449,502.676L447.747,509.746L450.433,512.178L449.93,514.655L444.557,522.082L446.728,524.881L459.933,531.086L464.276,534.691L459.479,539.515L455.494,548.47L449.561,558.066L446.124,559.947L435.104,568.291L430.951,569.189L425.003,571.903L420.248,572.292L421.637,568.832L419.644,552.032L418.389,552.671L408.191,546.404L405.187,545.36L403.928,543.321L409.226,535.315L405.437,527.304L404.113,526.499Z"/>
<path region="10" short-name="State Representative District 29" long-name="State Representative District 29" value="1" d="M351.402,405.078L353.259,405.509L355.224,399.879L359.411,399.948L367.237,403.979L365.74,405.586L363.295,411.578L371.834,416.711L373.5,414.299L377.742,411.492L379.948,415.41L381.341,421.203L382.182,429.642L391.575,442.841L393.251,439.719L398.238,442.9L409.781,448.985L410.838,452.206L406.432,457.138L405.223,463.292L401.899,466.712L401.208,472.696L398.196,478.083L400.352,484.234L398.842,487.672L401.046,489.375L396.939,494.004L396.656,498.306L401.341,501.999L399.244,503.682L401.86,515.413L401.554,519.803L402.954,522.092L399.973,523.573L392.982,523.54L388.459,526.397L381.416,528.434L380.794,523.354L375.598,522.312L376.763,518.914L379.698,515.731L378.59,506.16L385.231,488.169L383.131,479.234L375.975,479.76L370.47,475.584L371.544,473.64L372.481,466.008L366.563,464.726L361.512,461.1L363.458,456.934L364.865,449.625L363.035,445.306L358.519,442.19L357.387,439.382L354.268,440.552L348.604,441.155L352.641,429.996L342.429,419.773L342.161,417.538L346.66,410.58L350.516,408.757Z"/>
<path region="11" short-name="State Representative District 41" long-name="State Representative District 41" value="1" d="M606.352,858.384L606.744,856.301L612.398,854.445L612.256,851.484L619.297,849.447L620.09,851.157L624.684,851.707L627.569,853.944L629.584,851.38L642.606,852.854L644.823,855.808L646.908,854.803L652.992,856.022L654.523,855.504L659.663,858.908L661.226,857.054L665.358,856.641L667.87,855.208L669.704,851.984L674.692,851.944L675.64,853.311L680.039,850.75L682.952,851.425L686.363,848.964L688.379,848.934L690.416,845.706L693.765,844.497L697.145,846.646L699.493,844.511L703.282,844.656L709.124,840.606L713.057,844.444L717.458,849.238L718.397,852.064L725.337,863.538L725.752,867.862L730.197,870.813L731.03,873.622L730.367,877.017L732.187,882.776L729.119,887.335L730.156,890.824L734.215,890.821L732.893,896.861L731.267,900.359L736.982,901.319L739.51,902.747L746.866,903.879L748.447,908.828L745.905,915.224L745.588,921.154L746.757,923.029L746.74,928.539L751.252,934.77L748.936,940.012L688.426,953.322L616.495,968.685L592.135,973.639L591.699,968.346L589.968,964.15L588.9,957.916L585.824,955.406L585.868,952.735L583.974,950.868L578.251,942.313L583.148,934.708L583.722,930.744L586.519,929.202L587.83,926.644L592.147,921.59L594.718,920.018L600.578,911.906L603.005,904.96L607.814,894.179L617.877,898.203L621.64,888.654L623.122,883.441L622.993,879.862L620.358,875.801L613.444,871.799L606.293,860.324Z"/>
<path region="12" short-name="State Representative District 5" long-name="State Representative District 5" value="1" d="M273.874,154.945L275.471,157.255L282.767,151.928L283.286,161.43L286.135,158.018L287.034,161.288L292.694,154.74L296.073,149.364L296.338,147.078L291.328,140.527L288.205,138.179L305.629,132.251L307.983,131.831L303.355,140.52L300.139,149.604L294.719,168.056L294.092,170.116L284.599,179.357L283.52,165.146L274.066,175.604L271.388,172.013L269.343,165.824L271.322,160.512L272.992,158.747Z"/>
<path region="13" short-name="State Representative District 15" long-name="State Representative District 15" value="1" d="M271.388,172.013L274.066,175.604L283.52,165.146L284.599,179.357L294.092,170.116L294.719,168.056L291.23,179.817L290.136,186.124L295.203,187.646L297.494,189.761L299.699,196.881L307.753,195.34L305.436,203.393L307.585,203.987L309.737,201.684L322.876,200.012L324.139,202.297L329.233,205.219L327.839,208.15L336.56,205.426L321.733,212.048L316.787,213.776L309.364,213.73L304.697,214.811L300.411,217.476L294.299,224.094L284.969,228.672L273.819,230.187L272.585,210.184L267.654,209.247L265.588,209.947L262.881,205.942L260.652,198.181L267.986,194.182L261.153,191.163L258.196,189.055L255.042,181.583L255.331,176.91L258.311,174.238L261.822,174.159L265.319,177.097Z"/>
<path region="14" short-name="State Representative District 7" long-name="State Representative District 7" value="1" d="M340.105,22.883L342.736,16.558L346.06,12.369L349.305,11.306L354.587,15.145L361.14,3.064L380.323,8.803L383.207,10.105L362.174,29.737L359.222,40.759L352.513,38.364L355.891,33.898L347.053,25.515Z"/>
<path region="15" short-name="State Representative District 18" long-name="State Representative District 18" value="1" d="M251.335,117.666L257.566,113.045L260.698,116.739L264.839,116.686L267.13,118.766L272.342,121.072L280.422,121.298L286.218,120.318L289.78,121.271L291.283,122.991L289.454,129.264L286.651,131.033L286.15,133.214L288.205,138.179L291.328,140.527L296.338,147.078L296.073,149.364L292.694,154.74L287.034,161.288L286.135,158.018L283.286,161.43L282.767,151.928L275.471,157.255L273.874,154.945L271.776,152.145L275.005,147.528L275.559,144.409L277.506,142.627L274.208,137.951L268.999,135.357L265.755,133.521L255.494,132.584L251.856,129.041L259.774,123.808L255.253,121.137Z"/>
<path region="16" short-name="State Representative District 8" long-name="State Representative District 8" value="1" d="M241.973,273.583L245.667,273.2L251.975,269.048L256.787,261.362L261.851,260.16L268.848,255.626L274.92,253.903L280.104,252.676L284.971,254.886L284.004,260.905L285.794,262.954L289.776,265.028L292.16,268.572L295.332,269.138L298.777,268.169L301.346,272.55L304.433,275.929L308.218,277.054L303.97,283.163L301.33,288.08L304.497,293.282L309.858,297.188L302.177,302.907L301.353,305.16L300.077,304.176L294.801,306.495L287.871,311.183L282.21,313.274L279.878,316.401L277.774,317.214L273.664,316.318L272.008,317.722L271.735,321.761L269.669,330.231L257.468,328.593Z"/>
<path region="17" short-name="State Representative District 22" long-name="State Representative District 22" value="1" d="M211.976,90.49L213.482,85.112L217.008,75.245L223.813,61.652L228.009,54.88L234.83,45.499L237.827,42.101L242.119,51.342L248.45,54.988L254.556,55.37L258.106,58.437L259.544,63.639L266.844,66.387L273.979,67.103L272.496,71.667L268.531,75.086L264.616,77.043L260.001,78.943L256.07,78.121L251.282,81.924L249.381,86.133L247.186,85.987L242.835,89.473L238.847,91.026L236.384,90.734L233.876,85.936L226.762,81.612L221.172,83.631L221.776,88.028L217.635,86.363Z"/>
<path region="18" short-name="State Representative District 26" long-name="State Representative District 26" value="1" d="M242.004,158.607L254.825,152.021L257.55,150.017L262.639,144.294L265.019,139.644L268.999,135.357L274.208,137.951L277.506,142.627L275.559,144.409L275.005,147.528L271.776,152.145L273.874,154.945L272.992,158.747L271.322,160.512L269.343,165.824L271.388,172.013L265.319,177.097L261.822,174.159L258.311,174.238L255.331,176.91L255.042,181.583L249.673,173.763L240.543,159.352Z"/>
<path region="19" short-name="State Representative District 37" long-name="State Representative District 37" value="1" d="M562.396,783.651L564.793,783.136L566.173,780.598L574.602,778.721L577.469,774.571L586,773.675L586.684,777.916L585.734,779.839L586.287,787.959L587.507,789.799L608.037,777.354L619.641,767.795L627.382,762.856L628.504,765.66L640.923,756.904L641.926,756.761L661.534,760.281L664.247,758.478L671.071,755.675L672.083,760.025L680.024,759.419L679.995,760.664L684.338,765.461L689.471,768.911L691.342,773.925L688.272,780.348L683.38,777.844L673.608,780.779L670.631,780.284L669.596,788.495L671.455,795.691L671.389,798.978L674.34,803.253L671.41,810.413L668.768,810.242L665.164,812.794L663.833,817.31L662.753,826.179L663.929,829.539L660.196,831.686L647.738,830.459L648.468,837.408L648.226,846.434L648.879,850.263L644.584,854.348L644.823,855.808L642.606,852.854L629.584,851.38L627.569,853.944L624.684,851.707L620.09,851.157L619.297,849.447L612.256,851.484L612.398,854.445L606.744,856.301L606.352,858.384L598.738,859.533L591.086,864.09L582.214,870.658L578.554,871.752L559.226,867.902L535.383,861.087L551.521,843.318L556.864,837.802L569.913,813.571L571.904,810.245L567.489,809.885L560.429,810.342L558.827,804.186L560.52,797.868L552.356,799.223L551.333,796.351L553.8,790.402L565.001,788.012Z"/>
<path region="20" short-name="State Representative District 14" long-name="State Representative District 14" value="1" d="M716.884,696.877L719.802,694.655L720.454,687.856L716.337,684.364L720.152,683.234L722.598,687.69L730.556,704.598L737.543,728.348L757.284,781.551L762,801.867L767.539,818.185L768.114,818.401L745.375,824.641L746.226,818.751L750.981,812.266L751.745,807.122L746.757,798.453L743.658,796.747L739.662,797.83L736.874,784.528L732.067,782.37L724.597,777.805L721.942,774.968L715.376,776.437L706.985,769.599L703.051,767.935L696.735,762.656L689.053,759.048L686.206,759.276L682.236,756.037L680.888,751.315L674.655,747.923L684.892,731.914L689.697,728.729L695.057,718.385L697.864,719.955L698.997,716.728L705.098,706.084L705.166,704.263L712.366,702.165L716.463,698.602Z"/>
<path region="21" short-name="State Representative District 35" long-name="State Representative District 35" value="1" d="M373.322,740.222L463.549,716.276L466.122,711.668L470.696,708.762L471.541,703.913L479.214,697.872L482.219,682.286L482.266,679.901L484.475,677.429L487.414,676.405L488.362,671.907L490.219,670.171L493.939,670.649L499.837,668.615L509.889,670.857L519.359,670.279L531.344,722.957L536.472,721.693L538.391,732.055L538.921,741.901L541.805,760.813L557.824,777.638L562.396,783.651L565.001,788.012L553.8,790.402L551.333,796.351L552.356,799.223L560.52,797.868L558.827,804.186L560.429,810.342L567.489,809.885L571.904,810.245L569.913,813.571L556.864,837.802L551.521,843.318L535.383,861.087L521.294,876.686L517.962,874.607L510.36,867.797L508.674,863.707L503.86,861.889L495.92,856.293L493.656,854.018L494.027,843.825L486.462,838.68L480.795,837.088L476.858,833.259L469.21,828.227L465.072,827.135L458.376,821.877L448.77,819.169L442.392,815.07L432.117,810.677L425.342,817.971L418.699,819.707L408.789,826.396L404.301,827.888L397.774,827.49Z"/>
<path region="22" short-name="State Representative District 9" long-name="State Representative District 9" value="1" d="M273.819,230.187L284.969,228.672L294.299,224.094L300.411,217.476L304.697,214.811L309.364,213.73L316.787,213.776L321.733,212.048L336.56,205.426L345.953,201.561L345.474,203.286L346.253,216.47L347.789,226.096L348.283,233.531L347.317,239.634L343.228,250.096L344.117,254.393L343.015,262.935L345.214,271.106L347.821,275.58L354.365,281.624L355.501,283.541L359.037,284.638L360.715,289.098L370.636,293.3L382.16,301.103L384.634,305.867L394.089,317.067L396.886,323.855L400.35,325.562L404.174,334.184L400.389,340.267L396.641,341.312L393.845,347.654L390.166,345.664L388.767,348.655L382.461,351.272L381.392,354.512L383.479,358.407L379.613,359.433L378.362,362.723L376.413,363.222L373.264,367.161L369.134,364.309L369.332,360.321L358.585,363.918L354.853,351.082L354.749,341.465L355.336,336.281L356.74,334.338L350.983,331.923L344.669,326.977L341.9,325.865L340.633,330.956L338.228,332.586L333.915,332.323L332.553,330.26L317.208,322.638L317.057,314.471L314.748,314.581L305.756,309.837L302.697,307.663L301.353,305.16L302.177,302.907L309.858,297.188L304.497,293.282L301.33,288.08L303.97,283.163L308.218,277.054L304.433,275.929L301.346,272.55L298.777,268.169L295.332,269.138L292.16,268.572L289.776,265.028L285.794,262.954L284.004,260.905L284.971,254.886L280.104,252.676L274.92,253.903Z"/>
<path region="23" short-name="State Representative District 38" long-name="State Representative District 38" value="1" d="M713.057,844.444L716.168,841.618L734.662,831.56L738.804,827.657L745.375,824.641L768.114,818.401L768.752,818.779L793.674,903.747L799.709,928.611L748.936,940.012L751.252,934.77L746.74,928.539L746.757,923.029L745.588,921.154L745.905,915.224L748.447,908.828L746.866,903.879L739.51,902.747L736.982,901.319L731.267,900.359L732.893,896.861L734.215,890.821L730.156,890.824L729.119,887.335L732.187,882.776L730.367,877.017L731.03,873.622L730.197,870.813L725.752,867.862L725.337,863.538L718.397,852.064L717.458,849.238Z"/>
<path region="24" short-name="State Representative District 10" long-name="State Representative District 10" value="1" d="M295.778,5.377L299.319,4.348L316.125,1.269L327.626,0.169L338.601,0L353.754,1.726L361.14,3.064L354.587,15.145L349.305,11.306L346.06,12.369L342.736,16.558L340.105,22.883L329.322,17.631L322.702,22.043L315.345,23.053L314.306,20.2L314.439,15.612L311.441,15.196L304.863,10.901L299.725,11.436Z"/>
<path region="25" short-name="State Representative District 21" long-name="State Representative District 21" value="1" d="M238.847,91.026L242.835,89.473L247.186,85.987L249.381,86.133L251.282,81.924L256.07,78.121L260.001,78.943L264.616,77.043L265.905,81.093L264.4,92.584L270.094,96.611L268.668,99.741L270.677,102.48L263.462,106.854L263.883,109.839L265.991,111.788L260.698,116.739L257.566,113.045L251.335,117.666L241.63,124.474L231.34,115.588L229.2,112.214L238.821,109.747L239.2,106.571L242.102,105.855L240.106,99.75L235.667,95.064Z"/>
<path region="26" short-name="State Representative District 19" long-name="State Representative District 19" value="1" d="M260.698,116.739L265.991,111.788L263.883,109.839L263.462,106.854L270.677,102.48L268.668,99.741L270.094,96.611L264.4,92.584L265.905,81.093L264.616,77.043L268.531,75.086L272.496,71.667L273.979,67.103L277.219,65.888L282.521,65.542L282.571,69.282L285.555,78.47L288.594,86.191L293.343,92.976L297.717,96.664L298.702,99.063L295.338,100.408L279.029,108.408L273.235,114.043L267.13,118.766L264.839,116.686Z"/>
<path region="27" short-name="State Representative District 32" long-name="State Representative District 32" value="1" d="M420.609,508.071L425.275,497.375L429.792,497.57L433.582,495.735L431.999,487.008L430.012,483.281L435.23,479.598L432.374,475.26L438.84,467.451L442.273,469.575L445.683,474.095L454.173,471.671L456.244,474.377L459.24,474.83L463.386,472.893L466.181,473.359L470.838,477.525L474.447,479.02L473.997,471.886L476.379,471.07L482.504,471.499L487.046,468.368L491.573,468.79L490.828,473.477L492.237,477.428L496.988,486.438L498.477,494.749L506.648,510.414L508.053,525.374L511.163,533.984L506.18,530.368L504.098,532.592L496.951,534.228L488.474,530.532L486.83,528.706L482.1,527.887L478.702,526.338L475.232,527.839L472.234,526.988L468.679,529.029L464.276,534.691L459.933,531.086L446.728,524.881L444.557,522.082L449.93,514.655L450.433,512.178L447.747,509.746L449.449,502.676L446.789,501.018L444.052,502.65L439.822,503.003L438.385,504.616L433.911,504.822L432.02,508.854L429.33,507.925L425.827,510.713L422.512,510.964Z"/>
<path region="28" short-name="State Representative District 25" long-name="State Representative District 25" value="1" d="M210.81,161.149L223.609,137.206L230.037,135.095L240.455,159.2L242.004,158.607L240.543,159.352L249.673,173.763L249.669,175.725L244.339,178.793L241.734,186.343L239.697,187.888L236.121,188.353L233.61,187.212L227.403,189.746L228.732,194.165L220.026,194.985Z"/>
<path region="29" short-name="State Representative District 11" long-name="State Representative District 11" value="1" d="M257.468,328.593L269.669,330.231L271.735,321.761L272.008,317.722L273.664,316.318L277.774,317.214L279.878,316.401L282.21,313.274L287.871,311.183L294.801,306.495L300.077,304.176L301.353,305.16L302.697,307.663L305.756,309.837L314.748,314.581L317.057,314.471L317.208,322.638L332.553,330.26L333.915,332.323L338.228,332.586L340.633,330.956L341.9,325.865L344.669,326.977L350.983,331.923L356.74,334.338L355.336,336.281L354.749,341.465L354.853,351.082L358.585,363.918L358.474,369.608L355.156,368.455L350.873,368.839L347.081,370.811L354.462,380.065L359.329,384.732L358.08,386.993L354.905,386.38L349.23,394.179L344.738,395.106L341.6,400.477L348.546,404.338L351.402,405.078L350.516,408.757L346.66,410.58L342.161,417.538L342.429,419.773L352.641,429.996L348.604,441.155L354.268,440.552L357.387,439.382L358.519,442.19L363.035,445.306L364.865,449.625L363.458,456.934L361.512,461.1L366.563,464.726L372.481,466.008L371.544,473.64L370.47,475.584L375.975,479.76L383.131,479.234L385.231,488.169L378.59,506.16L379.698,515.731L376.763,518.914L375.598,522.312L373.629,521.049L361.463,516.829L356.625,519.18L349.572,524.016L342.104,517.96L337.826,521.314L332.06,529.666L329.786,534.474L326.024,538.944L329.189,541.282L336.113,550.46L333.266,553.567L330.287,554.799L329.19,557.489L323.924,564.663L316.8,540.046L307.189,504.962L304.291,495.943L291.127,447.983L270.665,375.421Z"/>
<path region="30" short-name="State Representative District 16" long-name="State Representative District 16" value="1" d="M299.054,100L300.916,98.176L312.81,91.14L317.313,91.275L321.619,89.188L323.228,86.729L321.533,78.545L322.807,75.547L328.082,76.738L332.817,73.595L335.489,73.819L336.261,78.542L338.828,82.126L349.475,85.169L332.356,132.179L328.757,129.775L324.584,132.769L319.534,134.33L317.159,130.397L321.963,129.677L319.703,127.06L322.726,122.833L319.223,111.425L316.368,111.51L318.188,106.884L311.871,104.767L308.734,104.783L303,107.281Z"/>
<path region="31" short-name="State Representative District 30" long-name="State Representative District 30" value="1" d="M323.924,564.663L329.19,557.489L330.287,554.799L333.266,553.567L336.113,550.46L329.189,541.282L326.024,538.944L329.786,534.474L332.06,529.666L337.826,521.314L342.104,517.96L349.572,524.016L356.625,519.18L361.463,516.829L373.629,521.049L375.598,522.312L380.794,523.354L381.416,528.434L388.459,526.397L392.982,523.54L399.973,523.573L402.954,522.092L404.113,526.499L405.437,527.304L409.226,535.315L403.928,543.321L405.187,545.36L408.191,546.404L418.389,552.671L419.644,552.032L421.637,568.832L420.248,572.292L425.003,571.903L430.951,569.189L438.09,576.058L447.189,586.472L453.093,590.863L451.811,591.641L452.884,597.783L451.148,605.978L456.05,611.233L457.248,613.473L459.902,624.042L463.455,630.386L465.838,639.708L471.542,649.375L473.022,656.734L475.702,661.338L477.259,657.927L484.916,658.902L487.589,658.339L491.081,659.478L490.013,663.269L491.051,667.663L490.219,670.171L488.362,671.907L487.414,676.405L484.475,677.429L482.266,679.901L482.219,682.286L479.214,697.872L471.541,703.913L470.696,708.762L466.122,711.668L463.549,716.276L373.322,740.222L352.885,667.723Z"/>
<path region="32" short-name="State Representative District 27" long-name="State Representative District 27" value="1" d="M220.026,194.985L228.732,194.165L227.403,189.746L233.61,187.212L236.121,188.353L239.697,187.888L241.734,186.343L244.339,178.793L249.669,175.725L249.673,173.763L255.042,181.583L258.196,189.055L261.153,191.163L267.986,194.182L260.652,198.181L262.881,205.942L265.588,209.947L267.654,209.247L272.585,210.184L273.819,230.187L274.92,253.903L268.848,255.626L261.851,260.16L256.787,261.362L251.975,269.048L245.667,273.2L241.973,273.583L230.916,234.311Z"/>
<path region="33" short-name="State Representative District 33" long-name="State Representative District 33" value="1" d="M430.951,569.189L435.104,568.291L446.124,559.947L449.561,558.066L455.494,548.47L459.479,539.515L464.276,534.691L468.679,529.029L472.234,526.988L475.232,527.839L478.702,526.338L482.1,527.887L486.83,528.706L488.474,530.532L496.951,534.228L504.098,532.592L506.18,530.368L511.163,533.984L515.014,539.296L520.596,543.07L525.326,543.806L530.743,546.959L538.533,552.789L547.564,556.747L550.974,559.646L568.182,579.537L571.193,584.402L575.072,593.343L577.169,605.24L578.317,608.826L576.733,605.81L572.063,604.586L570.825,607.653L566.432,607.88L565.58,610.598L560.939,611.531L561.039,608.529L558.666,607.555L557.305,612.334L555.84,612.294L549.856,606.449L547.609,609.628L545.813,605.815L543.219,605.003L538.53,605.71L538.448,610.178L532.911,613.68L529.861,618.176L532.143,622.877L530.295,625.721L533.226,628.024L532.59,631.174L533.992,632.783L532.337,636.232L534.081,639.142L529.794,639.081L525.845,641.197L525.545,644.072L519.294,646.127L517.545,648.401L513.74,647.514L508.891,649.372L503.367,652.586L500.58,651.76L494.881,657.088L491.081,659.478L487.589,658.339L484.916,658.902L477.259,657.927L475.702,661.338L473.022,656.734L471.542,649.375L465.838,639.708L463.455,630.386L459.902,624.042L457.248,613.473L456.05,611.233L451.148,605.978L452.884,597.783L451.811,591.641L453.093,590.863L447.189,586.472L438.09,576.058Z"/>
<path region="34" short-name="State Representative District 28" long-name="State Representative District 28" value="1" d="M358.585,363.918L369.332,360.321L369.134,364.309L373.264,367.161L376.413,363.222L378.362,362.723L379.613,359.433L383.479,358.407L381.392,354.512L382.461,351.272L388.767,348.655L390.166,345.664L393.845,347.654L396.641,341.312L400.389,340.267L404.174,334.184L409.014,337.959L415.724,339.885L417.429,341.575L416.995,345.595L419.603,347.827L426.103,349.233L426.197,351.034L432.838,353.868L438.046,354.652L441.322,356.547L443.687,360.724L446.713,362.253L451.917,362.677L453.672,365.277L455.035,373.172L457.776,378.381L469.68,388.712L471.164,391.157L475.839,394.135L478.304,398.081L477.68,403.445L479.276,409.105L481.706,410.602L482.914,421.206L484.064,423.628L488.662,427.335L489.736,432.212L491.608,435.104L492.893,442.69L492.785,448.322L490.244,457.702L490.02,461.838L491.573,468.79L487.046,468.368L482.504,471.499L476.379,471.07L473.997,471.886L474.447,479.02L470.838,477.525L466.181,473.359L463.386,472.893L459.24,474.83L456.244,474.377L454.173,471.671L445.683,474.095L442.273,469.575L438.84,467.451L432.374,475.26L431.552,474.071L422.721,466.936L406.432,457.138L410.838,452.206L409.781,448.985L398.238,442.9L393.251,439.719L391.575,442.841L382.182,429.642L381.341,421.203L379.948,415.41L377.742,411.492L373.5,414.299L371.834,416.711L363.295,411.578L365.74,405.586L367.237,403.979L359.411,399.948L355.224,399.879L353.259,405.509L351.402,405.078L348.546,404.338L341.6,400.477L344.738,395.106L349.23,394.179L354.905,386.38L358.08,386.993L359.329,384.732L354.462,380.065L347.081,370.811L350.873,368.839L355.156,368.455L358.474,369.608Z"/>
<path region="35" short-name="State Representative District 40" long-name="State Representative District 40" value="1" d="M426.304,929.291L430.088,930.966L432.184,930.355L434.697,925.405L437.499,922.577L441.243,913.392L439.658,906.493L443.895,903.416L446.014,897.235L460.656,902.024L471.443,904.766L473.822,901.564L481.38,899.738L488.978,896.941L495.11,896.431L499.553,893.949L506.47,894.551L508.642,890.711L521.294,876.686L535.383,861.087L559.226,867.902L578.554,871.752L582.214,870.658L591.086,864.09L598.738,859.533L606.352,858.384L606.293,860.324L613.444,871.799L620.358,875.801L622.993,879.862L623.122,883.441L621.64,888.654L617.877,898.203L607.814,894.179L603.005,904.96L600.578,911.906L594.718,920.018L592.147,921.59L587.83,926.644L586.519,929.202L583.722,930.744L583.148,934.708L578.251,942.313L583.974,950.868L585.868,952.735L585.824,955.406L588.9,957.916L589.968,964.15L591.699,968.346L592.135,973.639L552.842,981.165L530.284,985.364L507.827,989.365L463.211,997.282L446.158,1000L433.806,956.532L429.861,942.022Z"/>
<path region="36" short-name="State Representative District 17" long-name="State Representative District 17" value="1" d="M337.727,151.842L339.971,160.204L343.129,168.119L340.09,169.261L335.807,164.192L332.805,159.247L332.096,155.34L335.714,152.278ZM331.787,176.926L332.499,176.337L340.388,180.476L340.141,184.165L335.608,183.374ZM267.13,118.766L273.235,114.043L279.029,108.408L295.338,100.408L298.702,99.063L299.054,100L303,107.281L308.734,104.783L311.871,104.767L318.188,106.884L316.368,111.51L319.223,111.425L322.726,122.833L319.703,127.06L321.963,129.677L317.159,130.397L319.534,134.33L324.584,132.769L328.757,129.775L332.356,132.179L328.427,133.99L319.543,140.014L310.701,163.583L310.041,168.209L312.863,171.893L312.165,175.019L314.559,181.043L320.328,186.081L322.905,185.398L331.025,191.259L340.833,197.429L346.295,200.326L345.953,201.561L336.56,205.426L327.839,208.15L329.233,205.219L324.139,202.297L322.876,200.012L309.737,201.684L307.585,203.987L305.436,203.393L307.753,195.34L299.699,196.881L297.494,189.761L295.203,187.646L290.136,186.124L291.23,179.817L294.719,168.056L300.139,149.604L303.355,140.52L307.983,131.831L305.629,132.251L288.205,138.179L286.15,133.214L286.651,131.033L289.454,129.264L291.283,122.991L289.78,121.271L286.218,120.318L280.422,121.298L272.342,121.072Z"/>
<path region="37" short-name="State Representative District 23" long-name="State Representative District 23" value="1" d="M200.291,112.863L208.248,111.144L209.998,99.138L211.976,90.49L217.635,86.363L221.776,88.028L221.172,83.631L226.762,81.612L233.876,85.936L236.384,90.734L238.847,91.026L235.667,95.064L240.106,99.75L242.102,105.855L239.2,106.571L238.821,109.747L229.2,112.214L231.34,115.588L241.63,124.474L234.725,130.419L234.024,133.662L230.037,135.095L223.609,137.206L210.81,161.149L206.448,141.54Z"/>
<path region="38" short-name="State Representative District 13" long-name="State Representative District 13" value="1" d="M282.521,65.542L289.508,64.711L293.61,65.301L303.072,67.999L307.172,69.162L306.428,73.209L311.049,74.495L314.067,78.623L308.808,83.864L300.856,95.304L300.916,98.176L299.054,100L298.702,99.063L297.717,96.664L293.343,92.976L288.594,86.191L285.555,78.47L282.571,69.282Z"/>
<path region="39" short-name="State Representative District 2" long-name="State Representative District 2" value="1" d="M314.067,78.623L320.694,73.014L323.203,73.131L324.178,69.465L320.571,66.609L316.074,64.526L320.199,64.258L322.353,61.417L325.775,63.517L330.352,63.667L332.865,58.685L337.113,60.908L341.136,59.104L340.439,61.145L343.069,63.993L348.991,65.729L353.889,63.732L350.728,81.722L349.475,85.169L338.828,82.126L336.261,78.542L335.489,73.819L332.817,73.595L328.082,76.738L322.807,75.547L321.533,78.545L323.228,86.729L321.619,89.188L317.313,91.275L312.81,91.14L300.916,98.176L300.856,95.304L308.808,83.864Z"/>
<path region="40" short-name="State Representative District 3" long-name="State Representative District 3" value="1" d="M313.178,63.684L316.074,64.526L320.571,66.609L324.178,69.465L323.203,73.131L320.694,73.014L314.067,78.623L311.049,74.495L306.428,73.209L307.172,69.162L303.072,67.999L302.746,63.877L308.097,65.424L308.579,63.579Z"/>
    </g>
    </svg>