<svg viewBox="0 0 1000 1000" auto-border-stroke-width="1" auto-border-stroke-width-limit=".5" original-source="['https://www2.census.gov/geo/tiger/GENZ2022/shp/cb_2022_us_sldl_500k.zip']" candidates='[{"id":"0", "name":"Democrats", "margins": [{ "color": "#1C408C" }, { "color": "#577CCC" }, { "color": "#8AAFFF" }, { "color": "#949BB3" }]},{"id":"1", "name":"Republicans", "margins": [{ "color": "#BF1D29" }, { "color": "#FF5865" }, { "color": "#FF8B98" }, { "color": "#CF8980" }]}]'>
    <g regions>
    <path region="0" short-name="State Assembly District 33" long-name="State Assembly District 33" value="1" d="M507.449,432.429L507.854,430.572L508.229,430.643L513.724,405.812L514.164,405.626L517.147,392.072L521.359,372.927L521.535,372.965L530.486,332.575L533.791,317.576L532.918,317.156L535.398,306.182L535.61,305.441L536.845,300.358L539.841,288.119L540.371,285.819L542.734,275.307L544.799,265.922L545.048,264.394L546.784,256.341L546.893,255.499L550.388,239.765L554.133,239.173L555.971,239.126L556.628,239.231L557.829,239.701L558.135,240.024L559.013,240.452L560.006,241.294L562.352,244.219L564.027,245.911L565.022,246.342L566.149,246.463L566.733,246.75L570.196,249.413L571.585,250.235L572.662,251.134L573.333,251.345L575.231,250.837L576.049,250.855L577.104,250.559L577.844,250.641L579.91,250.374L580.839,250.168L582.102,250.426L583.39,250.258L584.189,249.878L585.227,249.071L585.962,248.794L588.603,248.491L589.64,248.032L590.335,247.115L591.075,246.506L592.223,245.987L599.936,210.021L600.352,209.741L600.373,209.331L601.3,208.929L601.388,209.934L602.042,211.053L603.544,212.104L604.086,212.12L604.757,212.764L604.998,213.318L604.995,214.285L604.814,214.513L604.959,215.334L605.526,215.653L605.571,216.204L606.135,216.744L606.183,217.386L606.644,217.754L608.103,216.554L608.682,215.835L608.998,216.221L611.828,216.72L612.764,216.426L613.594,215.876L614.025,216.217L615.115,216.557L615.916,216.126L616.836,216.575L617.275,217.206L617.107,218.627L616.575,219.08L616.563,220.037L617.029,220.622L618.245,220.554L618.978,220.398L619.498,221.396L620.384,221.536L620.558,221.882L622.163,222.24L623.037,222.602L624.439,222.372L624.95,222.001L626.294,218.655L626.643,216.658L629.437,207.761L629.955,204.768L630.053,202.906L630.471,201.649L633.621,196.297L634,195.764L633.194,194.507L632.788,194.121L631.177,193.243L630.029,192.83L628.788,191.535L628.575,191.117L627.341,187.455L626.843,186.885L626.087,186.499L625.458,185.413L624.34,184.732L623.378,184.76L622.486,184.556L621.046,184.476L619.665,183.85L619.313,183.102L618.347,182.465L617.879,181.825L616.093,180.287L615.852,179.482L614.351,178.461L613.758,178.247L613.004,177.141L612.441,176.804L611.648,175.595L611.859,174.276L611.793,173.469L614.588,164.873L614.942,163.543L615.631,162.251L616.285,159.372L616.799,158.707L616.915,158.163L616.753,157.031L617.343,155.007L618.19,150.873L618.559,149.734L618.554,148.756L618.968,147.317L618.328,146.504L618.423,145.277L618.279,144.737L618.221,143.407L617.786,143.549L617.276,142.709L617.275,141.994L616.835,140.639L616.754,139.975L616.234,139.414L616.56,138.126L615.694,137.632L614.622,137.688L613.816,138.336L613.183,138.388L612.306,138.74L610.734,138.481L610.831,137.343L610.378,136.405L610.39,135.947L610.863,133.437L610.696,131.237L611.076,129.735L611.609,128.466L612.376,126.069L613.435,124.646L614.093,124.144L615.866,123.442L615.718,123.078L616.172,121.875L616.6,121.235L617.023,118.894L618.015,113.927L617.969,113.39L616.972,105.236L615.864,102.212L638.733,107.123L641.118,95.982L641.116,95.116L641.423,94.558L643.086,86.851L653.825,89.092L666.505,91.725L676.447,93.776L681.61,94.932L705.307,99.945L710.839,101.001L711.152,101.14L730.852,105.182L731.443,105.302L742.444,107.014L743.832,107.294L746.031,107.551L750.207,108.274L752.487,108.782L760.341,110.826L771.606,113.556L780.887,115.379L783.756,115.826L800.968,119.364L817.153,122.534L823.276,123.724L820.79,137.583L819.816,141.894L817.574,154.192L814.428,170.533L814.152,171.735L811.291,186.369L811.157,187.426L804.425,221.878L804.096,223.004L804.122,223.426L798.989,249.79L797.553,257.13L793.325,278.739L792.946,280.378L792.187,284.494L791.268,289.126L786.659,312.354L786.341,313.888L784.803,322.044L784.612,322.726L783.932,326.086L779.874,347.21L776.7,363.422L776.58,364.233L774.882,372.832L774.098,377.058L771.824,388.589L769.741,399.386L769.031,402.788L768.231,407.212L767.379,411.607L762.897,434.729L760.754,445.776L749.643,502.967L746.419,519.552L743.394,535.443L742.831,538.068L738.975,557.916L738.293,561.632L737.159,567.19L734.863,579.325L731.515,597.11L731.085,598.97L728.631,611.857L724.948,630.74L722.126,645.827L721.394,649.49L720.714,653.163L720.496,654.938L719.272,660.538L718.615,662.994L715.091,680.928L714.749,682.443L712.313,695.256L710.858,702.959L710.599,704.67L708.856,713.668L707.298,721.726L706.133,728.091L704.604,735.9L703.937,739.1L703.655,740.735L702.818,744.572L702.546,746.565L700.51,757.776L699.528,763.204L696.666,777.759L691.694,776.77L684.882,775.453L625.736,763.754L625.96,762.53L621.815,761.718L614.816,760.309L606.679,758.665L528.606,742.587L528.317,744.006L518.538,741.918L518.292,741.487L516.345,740.257L516.263,740.528L514.299,739.707L514.043,740.969L512.8,740.698L508.667,760.728L505.903,773.923L501.663,794.024L497.389,813.93L480.112,810.229L479.778,812.101L478.387,811.802L478.238,812.455L477.027,812.799L476.607,813.402L470.748,812.133L469.37,811.673L466.408,811.01L462.179,804.625L452.306,789.828L451.926,789.428L443.479,776.441L442.47,775.011L439.251,770.102L433.545,761.556L426.045,750.292L412.063,729.195L403.392,716.045L398.252,708.434L393.201,700.738L390.561,696.764L403.742,638.927L405.675,630.03L412.151,601.472L412.875,598.485L420.046,566.933L420.054,566.702L416.423,559.747L416.622,559.131L416.619,558.406L416.172,557.678L417.294,557.195L418.14,557.233L421.607,558.215L425.763,558.787L444.297,561.233L445.31,560.921L446.395,559.973L447.444,559.577L448.04,559.133L448.586,558.293L449.027,557.969L449.802,557.777L454.383,557.869L454.924,557.954L458.045,558.891L460.199,560.101L461.256,560.08L462.754,560.261L463.552,560.132L465.235,559.373L465.877,559.331L466.683,559.701L468.174,559.092L469.273,558.475L470.41,556.255L471.095,554.655L471.294,553.921L472.861,549.632L473.289,548.761L473.937,547.837L474.619,546.592L474.936,545.67L476.25,542.488L476.435,541.379L476.822,541.015L477.132,540.29L477.188,539.465L477.551,538.14L478.179,536.382L478.989,533.79L480.15,532.801L480.538,530.561L480.993,524.796L481.594,520.338L481.608,519.824L481.069,518.954L480.12,518.431L479.158,517.697L478.649,517.022L477.556,516.374L477.052,515.572L475.646,514.832L475.093,513.878L474.918,513.287L474.245,512.974L473.199,514.031L472.759,513.893L472.907,513.138L473.691,512.486L474.836,512.169L475.355,511.427L476.214,511.04L477.283,511.308L478.405,511.028L478.669,510.735L479.008,509.788L480.643,508.535L482.729,508.258L482.957,507.672L483.734,506.527L483.808,505.918L483.669,505.029L483.887,504.351L484.884,502.966L485.315,502.668L485.624,501.901L485.891,500.726L486.466,500.36L487.524,500.675L488.065,500.553L489.65,499.258L490.705,499.089L492.158,497.025L492.83,495.92L493.91,494.427L495.152,492.417L495.482,491.544L495.373,490.735L495.524,490.275L496.052,489.973L496.845,488.91L497.243,487.923L497.62,487.378L497.725,485.933L497.659,484.709L497.792,483.913L498.234,482.673L498.006,482.147L498.296,481.525L498.222,480.972L498.37,479.897L498.65,479.092L498.73,478.272L499.162,477.342L498.613,476.551L498.598,474.479L499.053,473.767L500.159,473.012L500.636,473.335L500.978,472.91L501.812,472.969L502.222,471.955L502.953,471.621L503.855,470.795L504.185,469.378L504.904,468.379L505.202,467.34L505.606,466.991L507.46,466.065L508.536,464.96L508.925,463.819L508.731,462.83L508.927,462.487L510.365,461.88L510.666,461.116L510.676,460.354L511.29,460.139L512.463,459.958L512.706,459.463L512.527,458.522L512.688,458.139L514.171,457.914L514.97,457.657L516.336,456.91L517.603,455.972L517.943,455.353L518.052,454.266L517.824,453.026L517.861,451.858L519.31,449.16L519.696,447.647L520.754,446.13L521.626,445.122L521.929,443.99L522.363,441.747L522.246,440.486L521.622,439.247L520.689,436.267L520.783,435.323Z"/>
<path region="1" short-name="State Assembly District 34" long-name="State Assembly District 34" value="1" d="M561.121,836.19L562.012,836.39L561.813,837.315L562.727,837.511L562.548,838.495L561.978,841.217L559.268,840.673L559.638,839.784L555.906,839.053L555.74,838.94L554.888,838.376L553.566,838.067L553.042,838.221L553.067,836.838L554.387,836.015L553.586,835.176L552.859,834.818L553.531,833.421L554.501,833.744L555.214,833.631L555.997,833.864L556.788,834.407L557.17,834.871L556.679,835.368L556.352,836.184L557.854,836.483L558.278,835.917L558.339,835.477L559.196,835.773Z"/>
<path region="2" short-name="State Assembly District 15" long-name="State Assembly District 15" value="1" d="M562.812,845.251L564.161,845.513L564.24,845.053L565.695,845.384L568.124,843.062L568.371,842.586L572.52,843.439L571.803,847.112L569.958,846.745L569.471,848.64L569.212,850.395L564.788,849.526L563.549,849.245L564.704,847.663L564.411,847.481L562.439,847.086Z"/>
<path region="3" short-name="State Assembly District 2" long-name="State Assembly District 2" value="1" d="M550.928,834.669L551.331,834.791L552.5,834.718L552.859,834.818L553.586,835.176L554.387,836.015L553.067,836.838L553.042,838.221L553.566,838.067L554.888,838.376L555.74,838.94L555.408,839.219L555.197,839.855L552.743,839.356L552.047,843.061L553.869,843.435L552.966,847.68L552.51,847.582L552.614,847.109L551.268,846.812L551.429,846.106L550.898,845.484L550.225,845.575L550.127,845.217L547.833,844.99L547.847,844.196L548.458,842.326L548.779,841.834L548.986,840.729L548.747,840.701L549.022,839.068L548.188,838.611L547.803,837.971L548.651,837.766L549.127,837.438L549.174,836.566L549.578,835.73L550.226,835.977L550.785,835.973Z"/>
<path region="4" short-name="State Assembly District 32" long-name="State Assembly District 32" value="1" d="M273.637,0L274.8,0.198L284.992,2.621L285.293,2.64L287.482,3.249L292.879,4.596L298.737,6.257L324.486,12.89L332.195,14.974L342.192,17.547L343.961,17.94L346.095,18.609L365.14,23.25L383.964,28.061L385.787,28.467L393.061,30.361L401.82,32.209L411.134,34.256L439.107,40.752L445.872,42.318L468.96,47.622L481.452,50.557L491.75,52.961L491.967,52.963L508.651,56.652L512.277,57.532L529.45,61.369L531.286,61.72L543.193,64.458L544.981,65L545.745,65.052L547.102,65.357L548.615,65.931L552.34,66.653L562.194,68.908L583.914,73.839L583.98,73.902L587.583,74.697L588.031,74.734L595.783,76.488L598.639,77.173L607.736,79.251L611.064,79.843L626.678,83.184L635.732,85.142L637.445,85.657L643.086,86.851L641.423,94.558L641.116,95.116L641.118,95.982L638.733,107.123L615.864,102.212L616.972,105.236L617.969,113.39L618.015,113.927L617.023,118.894L616.6,121.235L616.172,121.875L615.718,123.078L615.866,123.442L614.093,124.144L613.435,124.646L612.376,126.069L611.609,128.466L611.076,129.735L610.696,131.237L610.863,133.437L610.39,135.947L610.378,136.405L610.831,137.343L610.734,138.481L612.306,138.74L613.183,138.388L613.816,138.336L614.622,137.688L615.694,137.632L616.56,138.126L616.234,139.414L616.754,139.975L616.835,140.639L617.275,141.994L617.276,142.709L617.786,143.549L618.221,143.407L618.279,144.737L618.423,145.277L618.328,146.504L618.968,147.317L618.554,148.756L618.559,149.734L618.19,150.873L617.343,155.007L616.753,157.031L616.915,158.163L616.799,158.707L616.285,159.372L615.631,162.251L614.942,163.543L614.588,164.873L611.793,173.469L611.859,174.276L611.648,175.595L612.441,176.804L613.004,177.141L613.758,178.247L614.351,178.461L615.852,179.482L616.093,180.287L617.879,181.825L618.347,182.465L619.313,183.102L619.665,183.85L621.046,184.476L622.486,184.556L623.378,184.76L624.34,184.732L625.458,185.413L626.087,186.499L626.843,186.885L627.341,187.455L628.575,191.117L628.788,191.535L630.029,192.83L631.177,193.243L632.788,194.121L633.194,194.507L634,195.764L633.621,196.297L630.471,201.649L630.053,202.906L629.955,204.768L629.437,207.761L626.643,216.658L626.294,218.655L624.95,222.001L624.439,222.372L623.037,222.602L622.163,222.24L620.558,221.882L620.384,221.536L619.498,221.396L618.978,220.398L618.245,220.554L617.029,220.622L616.563,220.037L616.575,219.08L617.107,218.627L617.275,217.206L616.836,216.575L615.916,216.126L615.115,216.557L614.025,216.217L613.594,215.876L612.764,216.426L611.828,216.72L608.998,216.221L608.682,215.835L608.103,216.554L606.644,217.754L606.183,217.386L606.135,216.744L605.571,216.204L605.526,215.653L604.959,215.334L604.814,214.513L604.995,214.285L604.998,213.318L604.757,212.764L604.086,212.12L603.544,212.104L602.042,211.053L601.388,209.934L601.3,208.929L600.373,209.331L600.352,209.741L599.936,210.021L592.223,245.987L591.075,246.506L590.335,247.115L589.64,248.032L588.603,248.491L585.962,248.794L585.227,249.071L584.189,249.878L583.39,250.258L582.102,250.426L580.839,250.168L579.91,250.374L577.844,250.641L577.104,250.559L576.049,250.855L575.231,250.837L573.333,251.345L572.662,251.134L571.585,250.235L570.196,249.413L566.733,246.75L566.149,246.463L565.022,246.342L564.027,245.911L562.352,244.219L560.006,241.294L559.013,240.452L558.135,240.024L557.829,239.701L556.628,239.231L555.971,239.126L554.133,239.173L550.388,239.765L546.893,255.499L546.784,256.341L545.048,264.394L544.799,265.922L542.734,275.307L540.371,285.819L539.841,288.119L536.845,300.358L535.61,305.441L535.398,306.182L532.918,317.156L533.791,317.576L530.486,332.575L521.535,372.965L521.359,372.927L517.147,392.072L514.164,405.626L513.724,405.812L508.229,430.643L507.854,430.572L507.449,432.429L494.197,429.394L493.044,429.236L467.802,423.357L452.139,419.834L437.303,416.438L408.039,415.646L407.78,415.625L392.699,415.443L392.638,414.377L392.341,413.676L391.416,413.173L390.847,412.022L391.254,411.772L391.723,412.002L391.937,410.829L392.214,410.634L392.167,409.288L391.533,409.139L391.212,408.662L391.515,408.219L392.477,408.569L392.592,408.15L393.514,407.977L393.003,406.521L393.51,406.198L393.779,405.622L394.457,404.901L394.961,405.327L395.501,405.369L396.248,404.516L396.869,404.157L397.522,404.426L398.098,403.814L398.572,403.791L398.781,402.893L399.043,402.905L399.84,402.242L400.042,401.655L400.892,401.419L401.548,401.567L401.439,400.952L401.727,400.591L401.727,400.069L402.23,398.611L403.051,397.641L402.913,397.207L402.366,396.788L402.344,394.985L402.054,394.451L402.251,394.116L402.288,392.709L401.462,391.661L402.098,390.678L401.934,389.943L401.622,389.48L401.664,388.954L401.297,388.435L401.587,387.731L401.711,386.911L401.537,385.887L401.263,385.468L401.371,384.707L401.808,384.168L401.82,383.274L401.51,383.031L401.717,382.343L402.234,381.731L402.302,381.038L402.681,380.917L402.891,380.246L403.223,380.109L403.651,379.417L404.059,379.254L404.514,379.891L405.292,380.274L406.401,380.179L407.221,380.447L408.157,380.285L408.861,380.344L409.686,379.464L410.299,379.017L410.324,378.635L410.924,378.167L410.887,377.516L411.575,377.295L411.91,376.199L412.189,376.082L413.358,376.132L414.014,376.325L414.857,376.334L415.266,375.987L415.347,375.384L415.963,374.855L415.981,374L416.432,373.35L416.096,372.56L415.071,371.999L414.834,371.622L415.048,370.892L415.57,371.133L415.985,370.775L416.542,370.952L417.652,370.307L418.48,370.585L419.279,370L419.548,369.157L420.343,369.023L420.78,369.288L421.108,368.641L421.633,368.296L422.341,368.329L422.737,368.009L422.722,367.289L422.945,366.411L422.859,366.046L425.222,366.432L425.885,365.696L426.869,365.962L428.503,365.981L429.811,365.532L430.281,365.077L430.842,366.118L431.7,366.386L432.655,365.928L432.865,365.06L433.671,364.874L433.682,364.173L434.212,363.79L434.639,362.721L434.583,361.988L434.75,361.405L435.227,360.982L435.646,360.281L435.67,359.068L435.944,358.613L435.62,358.233L436.187,357.687L436.43,357.2L437.612,356.018L438.159,355.681L438.071,355.37L438.292,354.324L437.709,354.163L437.009,353.472L436.472,352.331L437.025,352.101L437.481,351.598L437.693,350.676L438.285,350.546L438.364,349.501L438.879,349.008L439.37,348.881L439.325,348.246L438.99,347.212L438.464,346.706L438.133,345.394L438.169,344.844L438.499,344.415L438.33,343.578L439.019,342.806L439.406,342.084L440.141,341.11L439.824,340.306L439.365,340.121L439.242,339.521L438.588,339.092L438.791,338.647L438.833,337.46L439.195,336.759L439.375,335.844L440.041,335.305L440.608,334.492L440.479,333.878L440.837,333.151L440.829,331.968L441.551,331.351L441.397,330.453L441.567,329.363L442.114,329.078L442.204,328.554L443.41,328.141L443.488,327.628L444.055,326.989L443.907,326.544L444.692,325.914L444.689,325.011L445.283,324.776L445.257,324.239L445.805,322.374L445.646,320.891L445.795,319.545L446.089,319.268L445.864,318.247L445.999,317.614L445.804,316.68L445.778,315.36L445.486,314.763L445.099,314.793L444.714,313.948L443.951,313.354L443.596,312.682L443.528,311.764L443.864,311.045L442.785,310.305L442.913,309.405L442.65,308.681L442.062,307.895L442.003,307.417L441.518,306.228L433.984,304.428L433.564,304.264L424.199,302.071L423.359,301.858L404.991,297.518L386.838,293.33L386.203,293.145L380.427,291.78L333.656,281.009L282.208,268.219L279.53,278.921L278.99,280.739L280.646,281.15L277.855,292.385L279.634,292.824L278.958,295.558L280.741,295.993L278.673,304.209L277.399,309.536L275.627,309.092L274.718,312.739L268.264,311.144L265.497,314.326L264.909,314.173L264.067,314.18L263.167,314.721L262.004,314.9L261.509,315.309L261.186,315.201L260.628,315.594L259.556,315.737L258.782,316.042L257.047,315.467L256.399,315.602L255.655,316.475L255.274,316.472L254.501,316.089L253.744,315.964L253.397,316.164L252.338,315.356L251.545,315.046L250.645,315.182L249.305,314.852L248.513,315.036L247.319,314.202L246.218,314.549L245.936,315.261L245.596,315.525L245.587,316.313L245.147,316.73L244.842,316.491L243.888,316.465L243.403,316.698L242.598,316.332L242.109,316.442L241.321,316.254L241.045,315.942L239.608,315.329L238.913,315.819L238.603,315.377L237.589,315.499L235.568,316.129L235.771,315.543L238.272,305.621L236.836,305.253L236.603,304.774L235.581,304.95L233.269,304.38L227.927,302.987L228.382,301.128L225.679,300.413L226.801,297.851L225.991,296.52L225.286,296.694L224.909,296.435L222.154,295.742L221.695,297.561L223.484,298.014L223.024,299.829L220.789,299.267L221.251,297.449L220.252,297.195L219.731,297.947L219.174,297.836L218.943,297.306L218.848,295.893L218.256,295.171L217.017,295.406L215.066,294.931L214.367,295.09L214.465,296.212L214.101,297.707L213.663,297.725L212.589,297.404L212.225,297.561L211.094,297.308L210.122,297.591L209.362,297.529L208.806,297.278L208.01,300.176L205.185,298.521L204.741,298.475L204.137,300.812L205.924,301.275L203.987,308.589L203.321,308.228L202.497,309.103L202.386,309.567L201.754,309.671L201.232,310.177L200.902,310.076L200.293,310.774L199.349,310.791L198.96,312.374L198.041,311.912L198.191,311.791L197.497,310.801L197.549,310.32L197.216,309.714L196.08,309.403L196.316,308.708L195.994,308.388L193.937,307.874L196.302,298.813L200.063,284.34L204.381,268.223L207.976,255.111L211.733,240.679L213.512,233.851L217.997,216.831L222.527,199.322L225.691,187.108L232.681,159.393L233.526,155.752L237.422,140.311L242.202,121.692L247.412,101.399L257.645,61.89L261.591,47.053L261.735,46.273L265.82,30.656L269.768,14.953Z"/>
<path region="5" short-name="State Assembly District 38" long-name="State Assembly District 38" value="1" d="M242.763,339.106L250.065,330.872L260.678,318.931L264.909,314.173L265.497,314.326L268.264,311.144L274.718,312.739L275.627,309.092L277.399,309.536L278.673,304.209L280.741,295.993L278.958,295.558L279.634,292.824L277.855,292.385L280.646,281.15L278.99,280.739L279.53,278.921L282.208,268.219L333.656,281.009L380.427,291.78L386.203,293.145L386.838,293.33L404.991,297.518L423.359,301.858L424.199,302.071L433.564,304.264L433.984,304.428L441.518,306.228L442.003,307.417L442.062,307.895L442.65,308.681L442.913,309.405L442.785,310.305L443.864,311.045L443.528,311.764L443.596,312.682L443.951,313.354L444.714,313.948L445.099,314.793L445.486,314.763L445.778,315.36L445.804,316.68L445.999,317.614L445.864,318.247L446.089,319.268L445.795,319.545L445.646,320.891L445.805,322.374L445.257,324.239L445.283,324.776L444.689,325.011L444.692,325.914L443.907,326.544L444.055,326.989L443.488,327.628L443.41,328.141L442.204,328.554L442.114,329.078L441.567,329.363L441.397,330.453L441.551,331.351L440.829,331.968L440.837,333.151L440.479,333.878L440.608,334.492L440.041,335.305L439.375,335.844L439.195,336.759L438.833,337.46L438.791,338.647L438.588,339.092L439.242,339.521L439.365,340.121L439.824,340.306L440.141,341.11L439.406,342.084L439.019,342.806L438.33,343.578L438.499,344.415L438.169,344.844L438.133,345.394L438.464,346.706L438.99,347.212L439.325,348.246L439.37,348.881L438.879,349.008L438.364,349.501L438.285,350.546L437.693,350.676L437.481,351.598L437.025,352.101L436.472,352.331L437.009,353.472L437.709,354.163L438.292,354.324L438.071,355.37L438.159,355.681L437.612,356.018L436.43,357.2L436.187,357.687L435.62,358.233L435.944,358.613L435.67,359.068L435.646,360.281L435.227,360.982L434.75,361.405L434.583,361.988L434.639,362.721L434.212,363.79L433.682,364.173L433.671,364.874L432.865,365.06L432.655,365.928L431.7,366.386L430.842,366.118L430.281,365.077L429.811,365.532L428.503,365.981L426.869,365.962L425.885,365.696L425.222,366.432L422.859,366.046L422.945,366.411L422.722,367.289L422.737,368.009L422.341,368.329L421.633,368.296L421.108,368.641L420.78,369.288L420.343,369.023L419.548,369.157L419.279,370L418.48,370.585L417.652,370.307L416.542,370.952L415.985,370.775L415.57,371.133L415.048,370.892L414.834,371.622L415.071,371.999L416.096,372.56L416.432,373.35L415.981,374L415.963,374.855L415.347,375.384L415.266,375.987L414.857,376.334L414.014,376.325L413.358,376.132L412.189,376.082L411.91,376.199L411.575,377.295L410.887,377.516L410.924,378.167L410.324,378.635L410.299,379.017L409.686,379.464L408.861,380.344L408.157,380.285L407.221,380.447L406.401,380.179L405.292,380.274L404.514,379.891L404.059,379.254L403.651,379.417L403.223,380.109L402.891,380.246L402.681,380.917L402.302,381.038L402.234,381.731L401.717,382.343L401.51,383.031L401.82,383.274L401.808,384.168L401.371,384.707L401.263,385.468L401.537,385.887L401.711,386.911L401.587,387.731L401.297,388.435L401.664,388.954L401.622,389.48L401.934,389.943L402.098,390.678L401.462,391.661L402.288,392.709L402.251,394.116L402.054,394.451L402.344,394.985L402.366,396.788L402.913,397.207L403.051,397.641L402.23,398.611L401.727,400.069L401.727,400.591L401.439,400.952L401.548,401.567L400.892,401.419L400.042,401.655L399.84,402.242L399.043,402.905L398.781,402.893L398.572,403.791L398.098,403.814L397.522,404.426L396.869,404.157L396.248,404.516L395.501,405.369L394.961,405.327L394.457,404.901L393.779,405.622L393.51,406.198L393.003,406.521L393.514,407.977L392.592,408.15L392.477,408.569L391.515,408.219L391.212,408.662L391.533,409.139L392.167,409.288L392.214,410.634L391.937,410.829L391.723,412.002L391.254,411.772L390.847,412.022L391.416,413.173L392.341,413.676L392.638,414.377L392.699,415.443L407.78,415.625L408.039,415.646L437.303,416.438L452.139,419.834L467.802,423.357L493.044,429.236L494.197,429.394L507.449,432.429L520.783,435.323L520.689,436.267L521.622,439.247L522.246,440.486L522.363,441.747L521.929,443.99L521.626,445.122L520.754,446.13L519.696,447.647L519.31,449.16L517.861,451.858L517.824,453.026L518.052,454.266L517.943,455.353L517.603,455.972L516.336,456.91L514.97,457.657L514.171,457.914L512.688,458.139L512.527,458.522L512.706,459.463L512.463,459.958L511.29,460.139L510.676,460.354L510.666,461.116L510.365,461.88L508.927,462.487L508.731,462.83L508.925,463.819L508.536,464.96L507.46,466.065L505.606,466.991L505.202,467.34L504.904,468.379L504.185,469.378L503.855,470.795L502.953,471.621L502.222,471.955L501.812,472.969L500.978,472.91L500.636,473.335L500.159,473.012L499.053,473.767L498.598,474.479L498.613,476.551L499.162,477.342L498.73,478.272L498.65,479.092L498.37,479.897L498.222,480.972L498.296,481.525L498.006,482.147L498.234,482.673L497.792,483.913L497.659,484.709L497.725,485.933L497.62,487.378L497.243,487.923L496.845,488.91L496.052,489.973L495.524,490.275L495.373,490.735L495.482,491.544L495.152,492.417L493.91,494.427L492.83,495.92L492.158,497.025L490.705,499.089L489.65,499.258L488.065,500.553L487.524,500.675L486.466,500.36L485.891,500.726L485.624,501.901L485.315,502.668L484.884,502.966L483.887,504.351L483.669,505.029L483.808,505.918L483.734,506.527L482.957,507.672L482.729,508.258L480.643,508.535L479.008,509.788L478.669,510.735L478.405,511.028L477.283,511.308L476.214,511.04L475.355,511.427L474.836,512.169L473.691,512.486L472.907,513.138L472.759,513.893L473.199,514.031L474.245,512.974L474.918,513.287L475.093,513.878L475.646,514.832L477.052,515.572L477.556,516.374L478.649,517.022L479.158,517.697L480.12,518.431L481.069,518.954L481.608,519.824L481.594,520.338L480.993,524.796L480.538,530.561L480.15,532.801L478.989,533.79L478.179,536.382L477.551,538.14L477.188,539.465L477.132,540.29L476.822,541.015L476.435,541.379L476.25,542.488L474.936,545.67L474.619,546.592L473.937,547.837L473.289,548.761L472.861,549.632L471.294,553.921L471.095,554.655L470.41,556.255L469.273,558.475L468.174,559.092L466.683,559.701L465.877,559.331L465.235,559.373L463.552,560.132L462.754,560.261L461.256,560.08L460.199,560.101L458.045,558.891L454.924,557.954L454.383,557.869L449.802,557.777L449.027,557.969L448.586,558.293L448.04,559.133L447.444,559.577L446.395,559.973L445.31,560.921L444.297,561.233L425.763,558.787L421.607,558.215L418.14,557.233L417.294,557.195L416.172,557.678L416.619,558.406L416.622,559.131L416.423,559.747L420.054,566.702L420.046,566.933L412.875,598.485L412.151,601.472L405.675,630.03L403.742,638.927L390.561,696.764L384.449,687.545L382.783,685.22L374.296,672.408L364.759,657.8L364.678,657.794L361.603,653.148L358.457,648.569L350.877,636.922L348.388,633.483L339.216,619.384L335.933,614.317L333.669,611.318L328.281,602.944L323.374,595.677L322.455,594.172L318.738,588.607L307.329,571.468L293.935,551.276L288.414,542.919L283.057,534.845L279.284,529.342L272.355,518.627L269.919,515.004L267.989,512.275L261.472,502.294L256.723,495.115L254.684,492.078L250.798,486.49L248.651,483.093L244.721,477.309L243.652,475.499L241.502,472.256L233.357,460.116L232.181,458.251L230.056,455.168L226.294,449.42L227.974,442.887L229.857,435.266L228.137,434.828L230.688,423.799L227.089,422.85L226.987,423.232L225.218,422.784L225.856,420.527L226.281,418.765L226.515,418.819L227.89,413.349L227.016,413.121L227.457,411.294L226.572,411.072L227.471,407.418L225.709,406.973L226.662,403.325L228.398,403.752L230.83,394.683L232.55,395.111L233.503,391.493L237.099,392.318L238.584,392.865L238.77,392.325L239.329,391.979L242.471,392.774L245.388,380.996L237.277,378.897L237.562,378.298L238.698,377.531L239.989,377.65L241.278,377.017L242.057,376.991L243.823,376.435L245.277,375.69L246.936,374.53L248.161,373.969L247.61,373.363L248.089,371.825L248.046,370.909L248.424,370.247L248.187,369.378L248.011,368.06L248.216,367.56L249.312,366.542L249.955,366.371L249.195,365.805L249.214,365.376L248.846,364.231L248.529,363.762L247.953,363.392L247.906,361.405L247.673,360.942L246.229,359.657L246.343,359.354L247.516,359.083L248.821,357.334L249.689,356.945L249.726,356.669L257.455,360.271L258.406,360.01L258.918,359.457L259.195,358.756L259.209,358.082L258.222,357.516L257.726,356.85L257.876,356.626L258.68,357.32L259.325,357.617L260.472,357.873L261.122,357.373L262.049,357.468L263.204,357.268L263.841,356.667L264.576,356.652L264.623,356.169L265.206,355.811L265.449,355.37L266.003,354.977L266.531,354.93L267.058,353.92L267.761,353.467L268.606,353.214L269.465,352.62L270.508,351.677L270.656,351.071L270.106,350.291L269.631,350.221L269.495,349.533L268.936,349.137L267.629,348.594L267.312,348.975L266.8,348.96L266.418,348.224L265.738,347.354L261.881,346.341L262.624,344.594L260.843,344.145L260.949,343.2L259.134,343.23L259.272,342.404L256.361,343.023L248.96,344.549L249.303,343.108L248.392,342.959L243.064,341.613L243.602,339.351Z"/>
<path region="6" short-name="State Assembly District 39" long-name="State Assembly District 39" value="1" d="M180.154,360.675L191.508,363.574L199.207,365.419L203.302,366.441L202.838,368.259L203.7,368.477L203.239,370.312L208.609,371.667L210.369,372.142L212.159,372.423L222.472,375.081L222.768,374.37L222.886,373.356L222.481,372.808L222.516,371.751L222.836,370.796L222.95,369.028L223.115,368.491L222.5,367.608L222.382,366.951L222.587,366.251L222.406,365.829L222.838,365.552L223.49,364.738L224.492,363.218L224.983,361.815L224.922,361.201L223.144,360.687L216.696,359.03L213.877,356.422L212.367,350.454L219.043,350.051L227.43,347.835L231.826,346.701L237.348,345.199L242.763,339.106L243.602,339.351L243.064,341.613L248.392,342.959L249.303,343.108L248.96,344.549L256.361,343.023L259.272,342.404L259.134,343.23L260.949,343.2L260.843,344.145L262.624,344.594L261.881,346.341L265.738,347.354L266.418,348.224L266.8,348.96L267.312,348.975L267.629,348.594L268.936,349.137L269.495,349.533L269.631,350.221L270.106,350.291L270.656,351.071L270.508,351.677L269.465,352.62L268.606,353.214L267.761,353.467L267.058,353.92L266.531,354.93L266.003,354.977L265.449,355.37L265.206,355.811L264.623,356.169L264.576,356.652L263.841,356.667L263.204,357.268L262.049,357.468L261.122,357.373L260.472,357.873L259.325,357.617L258.68,357.32L257.876,356.626L257.726,356.85L258.222,357.516L259.209,358.082L259.195,358.756L258.918,359.457L258.406,360.01L257.455,360.271L249.726,356.669L249.689,356.945L248.821,357.334L247.516,359.083L246.343,359.354L246.229,359.657L247.673,360.942L247.906,361.405L247.953,363.392L248.529,363.762L248.846,364.231L249.214,365.376L249.195,365.805L249.955,366.371L249.312,366.542L248.216,367.56L248.011,368.06L248.187,369.378L248.424,370.247L248.046,370.909L248.089,371.825L247.61,373.363L248.161,373.969L246.936,374.53L245.277,375.69L243.823,376.435L242.057,376.991L241.278,377.017L239.989,377.65L238.698,377.531L237.562,378.298L237.277,378.897L245.388,380.996L242.471,392.774L239.329,391.979L238.77,392.325L238.584,392.865L237.099,392.318L233.503,391.493L232.55,395.111L230.83,394.683L228.398,403.752L226.662,403.325L225.709,406.973L227.471,407.418L226.572,411.072L227.457,411.294L227.016,413.121L227.89,413.349L226.515,418.819L226.281,418.765L225.856,420.527L225.218,422.784L226.987,423.232L227.089,422.85L230.688,423.799L228.137,434.828L229.857,435.266L227.974,442.887L226.294,449.42L223.298,445.021L222.843,444.438L217.341,435.959L214.11,431.171L207.342,420.987L199.526,409.263L193.032,399.489L183.829,385.589L176.724,374.907Z"/>
<path region="7" short-name="State Assembly District 40" long-name="State Assembly District 40" value="1" d="M181.759,354.019L193.549,357.065L193.722,356.388L195.512,356.816L195.938,354.989L196.824,355.201L197.058,354.29L197.956,354.503L198.196,353.546L199.838,353.961L200.067,353.062L202.121,353.434L202.054,352.89L202.3,351.412L203.223,341.484L203.733,340.125L204.759,339.009L206.171,338.46L208.27,338.3L208.753,337.983L209.052,337.396L209.21,336.527L210.079,335.732L211.452,335.391L212.286,335.068L212.772,334.624L213.322,333.834L213.543,334.188L214.933,334.554L214.831,334.055L215.263,332.925L214.759,331.59L215.501,331.217L217.921,329.434L218.387,329.539L219.495,328.954L219.7,328.035L218.826,327.754L219.326,325.964L218.46,325.713L218.727,324.648L218.285,324.506L218.453,323.795L218.09,323.243L217.578,323.075L217.177,321.772L217.167,321.371L217.591,320.41L218.492,319.206L218.936,318.727L220.251,317.985L220.61,317.6L221.78,317.909L221.9,317.443L222.406,317.579L222.522,317.128L223.402,317.533L224.028,318.47L224.701,318.838L225.071,319.312L226.177,319.64L227.341,319.315L228.196,319.536L228.771,319.939L229.559,319.738L229.769,319.146L230.181,318.726L230.995,318.319L231.482,317.662L232.685,316.694L233.841,316.337L235.062,316.273L235.568,316.129L237.589,315.499L238.603,315.377L238.913,315.819L239.608,315.329L241.045,315.942L241.321,316.254L242.109,316.442L242.598,316.332L243.403,316.698L243.888,316.465L244.842,316.491L245.147,316.73L245.587,316.313L245.596,315.525L245.936,315.261L246.218,314.549L247.319,314.202L248.513,315.036L249.305,314.852L250.645,315.182L251.545,315.046L252.338,315.356L253.397,316.164L253.744,315.964L254.501,316.089L255.274,316.472L255.655,316.475L256.399,315.602L257.047,315.467L258.782,316.042L259.556,315.737L260.628,315.594L261.186,315.201L261.509,315.309L262.004,314.9L263.167,314.721L264.067,314.18L264.909,314.173L260.678,318.931L250.065,330.872L242.763,339.106L237.348,345.199L231.826,346.701L227.43,347.835L219.043,350.051L212.367,350.454L213.877,356.422L216.696,359.03L223.144,360.687L224.922,361.201L224.983,361.815L224.492,363.218L223.49,364.738L222.838,365.552L222.406,365.829L222.587,366.251L222.382,366.951L222.5,367.608L223.115,368.491L222.95,369.028L222.836,370.796L222.516,371.751L222.481,372.808L222.886,373.356L222.768,374.37L222.472,375.081L212.159,372.423L210.369,372.142L208.609,371.667L203.239,370.312L203.7,368.477L202.838,368.259L203.302,366.441L199.207,365.419L191.508,363.574L180.154,360.675Z"/>
<path region="8" short-name="State Assembly District 1" long-name="State Assembly District 1" value="1" d="M571.899,820.173L570.8,825.09L571.219,825.381L573.476,825.893L573.183,827.06L572.336,826.88L572.136,827.806L573.041,828L572.301,831.748L572.109,832.688L570.282,832.323L570.479,831.948L571.194,831.529L568.652,831.027L569.049,829.15L568.698,828.596L567.334,828.314L567.66,826.903L568.493,826.428L567.903,825.511L568.167,824.079L569.095,824.274L569.286,823.378L567.468,822.95L565.761,822.759L566.089,820.797L566.417,819.235L565.978,818.867Z"/>
<path region="9" short-name="State Assembly District 19" long-name="State Assembly District 19" value="1" d="M571.899,820.173L571.931,820.025L577.299,821.178L579.2,821.42L580.931,821.775L581.203,819.989L580.803,819.006L580.961,817.495L580.149,816.563L580.19,816.289L579.511,815.279L578.696,814.389L578.594,813.445L578.212,812.377L577.324,811.669L577.223,810.843L576.928,810.308L576.735,809.454L576.407,809.166L576.45,808.553L576.102,808.219L577.156,807.041L577.454,806.525L577.947,806.25L578.383,805.593L579.273,805.455L579.902,805.021L580.456,803.827L580.708,803.674L581.058,802.848L581.992,802.981L582.778,802.175L582.998,801.626L595.336,804.119L595.95,805.167L596.606,805.524L597.53,805.763L597.963,804.649L606.152,806.292L608.339,795.275L612.807,771.427L612.674,771.4L614.831,760.465L614.816,760.309L621.815,761.718L625.96,762.53L625.736,763.754L684.882,775.453L691.694,776.77L696.666,777.759L693.019,797.388L691.503,806.169L688.762,821.971L688.295,825.354L687.559,829.355L686.084,836.828L684.761,842.86L684.429,844.942L683.716,847.926L683.265,850.267L682.774,853.637L681.466,860.452L679.958,860.783L678.64,861.972L676.658,865.21L675.289,866.647L674.352,868.637L673.267,868.615L672.188,869.007L671.629,869.601L671.516,870.322L672.239,871.52L671.212,872.643L670.52,873.861L669.555,874.966L668.744,876.46L668.652,877.675L668.144,878.458L667.426,878.703L667.128,879.574L666.475,879.987L665.252,879.26L664.358,879.101L662.382,879.605L660.166,879.859L658.695,879.603L657.947,879.692L657.129,879.223L655.44,877.541L655.161,877.04L654.932,875.946L654.982,874.807L654.253,874.627L653.09,873.781L652.929,873.225L652.363,872.737L651.147,872.46L650.963,872.047L651.304,871.377L651.889,871.022L652.37,870.337L652.262,869.406L650.633,866.055L650.075,865.777L649.319,864.088L648.146,862.63L647.386,860.527L646.978,860.31L646.218,860.466L644.628,859.568L643.575,859.203L642.913,859.321L641.928,860.152L639.56,861.237L639.228,861.115L638.855,860.391L638.587,859.406L637.909,859.053L637.382,859.056L635.628,859.919L634.039,860.016L633.463,859.826L633.154,859.406L633.445,858.616L634.242,858.198L634.266,857.7L633.686,856.9L633.092,856.64L631.55,856.737L630.606,856.022L629.623,855.968L628.998,855.624L628.378,855.692L627.385,855.472L626.421,855.862L624.591,856.18L622.915,857.164L622.383,857.31L621.918,856.94L621.728,856.192L621.189,855.415L620.378,856.134L620.039,856.122L617.951,857.158L617.128,858.027L616.363,857.919L615.413,858.533L615.104,858.567L614.083,857.924L612.964,858.246L611.583,858.058L609.6,858.1L608.316,858.815L607.51,859.642L607.227,860.22L607.45,861.016L608.021,862.248L608.429,863.921L608.356,864.576L607.474,865.433L607.366,866.172L607.517,866.509L608.275,866.666L609.005,867.629L608.985,868.161L608.21,868.785L607.271,869.322L606.004,869.02L604.962,868.995L604.293,869.442L603.736,869.04L601.851,869.197L600.878,868.915L599.274,868.96L598.425,869.593L598.167,869.541L598.441,868.16L593.114,867.065L592.37,870.768L588.786,870.047L588.631,870.788L588.139,870.085L587.152,869.565L584.558,868.993L580.533,868.195L580.885,866.353L582.684,866.709L583.056,864.878L584.835,865.222L584.492,864.733L584.991,864.371L585.757,860.623L586.345,858.081L586.666,857.75L586.82,857.9L588.151,858.141L588.461,857.421L590.232,856.861L591.344,856.647L591.784,856.394L592.414,855.665L593.322,854.106L592.924,853.254L593.296,852.036L593.039,851.414L593.052,850.844L594.029,850.479L594.935,850.325L595.496,849.386L595.544,848.965L595.173,848.483L594.624,848.311L593.81,847.128L593.622,846.446L593.573,845.407L593.379,844.637L593.316,843.546L592.956,842.849L591.874,841.732L590.929,840.913L589.74,840.615L589.011,840.632L588.167,840.855L587.269,840.868L586.956,840.555L585.594,840.699L584.622,840.608L584.686,840.131L582.88,839.77L583.161,838.788L583.687,836.792L584.066,836.761L584.414,835.364L584.504,835.065L585.746,835.165L586.092,834.561L586.493,832.301L585.991,832.116L585.687,831.325L585.929,830.531L585.108,829.749L584.236,828.415L583.546,828.223L579.872,827.466L579.225,827.451L577.961,827.106L577.404,827.125L575.275,826.683L573.476,825.893L571.219,825.381L570.8,825.09Z"/>
<path region="10" short-name="State Assembly District 35" long-name="State Assembly District 35" value="1" d="M549.196,856.522L550.932,857.275L552.805,857.685L555.199,858.159L556.454,858.152L555.823,861.164L559.447,861.91L559.612,860.955L561.444,861.32L561.618,860.381L562.541,860.647L561.113,867.102L560.914,867.966L554.721,866.656L552.06,866.273L547.64,865.462L548.384,861.849L548.306,860.915Z"/>
<path region="11" short-name="State Assembly District 36" long-name="State Assembly District 36" value="1" d="M614.816,760.309L614.831,760.465L612.674,771.4L612.807,771.427L608.339,795.275L606.152,806.292L597.963,804.649L597.53,805.763L596.606,805.524L595.95,805.167L595.336,804.119L582.998,801.626L582.778,802.175L581.992,802.981L581.058,802.848L580.708,803.674L580.456,803.827L579.902,805.021L579.273,805.455L578.383,805.593L577.947,806.25L577.454,806.525L577.156,807.041L576.102,808.219L576.45,808.553L576.407,809.166L576.735,809.454L576.928,810.308L577.223,810.843L577.324,811.669L578.212,812.377L578.594,813.445L578.696,814.389L579.511,815.279L580.19,816.289L580.149,816.563L580.961,817.495L580.803,819.006L581.203,819.989L580.931,821.775L579.2,821.42L577.299,821.178L571.931,820.025L571.899,820.173L565.978,818.867L566.417,819.235L566.089,820.797L564.367,820.317L562.55,819.948L561.284,820.218L560.617,820.026L560.722,819.554L557.907,818.971L557.494,818.051L557.225,818.144L556.308,822.503L556.216,822.981L554.359,822.609L553.315,827.743L552.836,829.511L552.498,831.229L551.136,830.969L550.82,832.579L551.455,832.938L550.928,834.669L550.785,835.973L550.226,835.977L549.578,835.73L549.174,836.566L549.127,837.438L548.651,837.766L547.803,837.971L548.188,838.611L549.022,839.068L548.747,840.701L548.986,840.729L548.779,841.834L548.458,842.326L547.847,844.196L547.833,844.99L547.556,846.17L545.886,854.294L547.392,855.122L548.349,855.753L549.196,856.522L548.306,860.915L548.384,861.849L547.64,865.462L552.06,866.273L554.721,866.656L560.914,867.966L561.113,867.102L562.095,866.783L562.008,867.216L561.596,868.31L560.733,869.368L559.687,870.4L558.97,871.246L556.948,873.398L555.931,874.57L556.873,874.763L556.407,876.829L554.691,886.037L554.457,885.989L552.775,893.713L552.071,895.986L552.055,897.141L550.254,905.679L550.345,906.149L548.88,913.657L540.337,911.948L532.472,910.344L529.639,906.086L528.986,904.976L521.9,894.47L511.893,879.349L511.785,879.085L510.124,876.651L508.457,874.069L501.886,864.39L493.768,852.047L490.554,847.358L484.032,837.55L474.627,823.343L474.333,822.944L466.408,811.01L469.37,811.673L470.748,812.133L476.607,813.402L477.027,812.799L478.238,812.455L478.387,811.802L479.778,812.101L480.112,810.229L497.389,813.93L501.663,794.024L505.903,773.923L508.667,760.728L512.8,740.698L514.043,740.969L514.299,739.707L516.263,740.528L516.345,740.257L518.292,741.487L518.538,741.918L528.317,744.006L528.606,742.587L606.679,758.665Z"/>
<path region="12" short-name="State Assembly District 23" long-name="State Assembly District 23" value="1" d="M532.472,910.344L540.337,911.948L548.88,913.657L550.345,906.149L550.254,905.679L552.055,897.141L552.071,895.986L552.775,893.713L554.457,885.989L554.691,886.037L556.407,876.829L556.873,874.763L555.931,874.57L556.948,873.398L558.97,871.246L559.687,870.4L560.733,869.368L561.596,868.31L562.008,867.216L563.483,867.452L564.325,867.966L566.924,868.54L567.201,866.775L567.079,865.715L567.839,865.183L568.008,864.578L569.072,864.829L570.027,864.882L569.835,865.936L575.152,867.057L575.533,865.231L580.885,866.353L580.533,868.195L584.558,868.993L587.152,869.565L588.139,870.085L588.631,870.788L588.786,870.047L592.37,870.768L593.114,867.065L598.441,868.16L598.167,869.541L598.425,869.593L599.274,868.96L600.878,868.915L601.851,869.197L603.736,869.04L604.293,869.442L604.962,868.995L606.004,869.02L607.271,869.322L606.855,869.56L606.409,870.369L606.384,872.267L605.814,873.077L605.893,874.338L606.625,876.262L606.596,876.594L607.612,880.458L608.022,881.041L607.524,883.019L608.089,884.522L609.906,887.135L610.34,888.103L611.119,888.829L611.065,889.409L610.248,889.791L608.959,889.771L607.888,890.168L607.488,890.642L606.509,890.693L606.123,891.087L606.343,892.217L606.839,893.437L606.656,893.868L605.537,895.512L604.799,895.946L604.476,896.409L605.405,898.704L604.619,901.33L604.864,903.106L604.138,905.903L602.761,908.52L602.677,908.961L602.899,909.955L603.322,910.65L604.48,911.92L604.571,912.535L604.263,913.246L603.124,914.738L602.871,916.649L603.809,917.958L604.376,919.88L604.485,920.648L605.086,921.142L605.478,922.375L605.054,924.031L604.299,925.215L602.533,925.762L602.485,926.053L603.04,926.698L603.332,927.965L602.997,931.086L603.196,931.731L603.118,932.255L602.171,933.403L601.368,933.592L600.6,934.316L600.086,936.075L600.122,937.43L600.356,938.326L600.044,939.223L600.6,940.234L600.289,941.294L600.478,941.967L600.339,942.844L601.005,944.549L601.006,945.215L603.111,948.425L603.387,950.164L603.289,952.351L603.697,953.751L603.958,955.341L604.174,959.894L603.25,963.307L603.437,967.902L603.104,971.826L603.069,973.401L602.842,974.734L603.27,975.312L603.413,976.04L603.277,978.268L602.716,980.946L601.804,983.194L601.832,983.771L600.985,985.019L600.171,985.355L598.816,985.522L596.399,985.12L595.183,985.414L593.671,986.587L593.324,987.05L593.589,987.81L595.464,989.211L596.281,990.111L596.929,991.33L596.959,992.158L596.33,993.305L593.887,994.694L593.166,995.491L592.479,996.57L592.167,997.537L592.008,999.054L592.159,1000L585.303,989.652L579.581,980.962L576.326,976.092L568.37,964.229L566.528,961.46L562.756,955.778L558.797,949.95L555.505,944.954L553.914,942.764L549.34,935.822L548.962,935.111L540.376,922.158Z"/>
<path region="13" short-name="State Assembly District 20" long-name="State Assembly District 20" value="1" d="M571.803,847.112L574.767,847.745L574.942,846.79L578.239,847.462L577.717,850.263L575.922,849.919L575.76,850.85L574.855,850.662L574.725,851.605L573.729,851.42L573.399,853.274L571.549,852.79L571.726,851.924L570.821,851.767L570.462,851.192L570.553,850.736L569.212,850.395L569.471,848.64L569.958,846.745Z"/>
<path region="14" short-name="State Assembly District 24" long-name="State Assembly District 24" value="1" d="M213.92,310.067L214.797,310.288L214.774,310.95L214.324,312.728L214.706,312.821L215.34,313.376L214.835,313.752L214.99,314.608L215.243,314.969L216.243,315.757L215.574,317.272L215.684,317.857L216.577,318.513L218.181,319.382L218.492,319.206L217.591,320.41L217.167,321.371L217.177,321.772L217.578,323.075L217.056,322.392L215.352,321.403L215.411,321.106L213.697,320.625L213.968,319.898L213.906,318.836L213.312,318.133L212.012,317.821L211.523,318.165L209.808,317.73L209.041,317.435L209.534,316.564L209.52,316.233L209.995,314.409L210.319,313.943L210.31,313.085L210.015,312.706L211.459,312.377L211.392,310.771L211.201,310.143L213.078,310.349Z"/>
<path region="15" short-name="State Assembly District 3" long-name="State Assembly District 3" value="1" d="M559.227,828.905L559.686,829.017L559.889,828.07L559.348,827.952L559.451,827.485L559.986,827.6L560.081,827.129L561.674,827.449L562.657,829.686L564.078,830.14L563.777,831.649L563.638,831.813L564.679,834.127L566.071,837.254L565.173,837.084L564.685,837.168L564.334,838.835L562.548,838.495L562.727,837.511L561.813,837.315L562.012,836.39L561.121,836.19L561.67,833.37L560.761,833.18L560.947,832.236L560.031,832.04L560.21,831.097L558.377,830.64L558.566,829.714L559.03,829.818Z"/>
<path region="16" short-name="State Assembly District 11" long-name="State Assembly District 11" value="1" d="M568.732,840.507L569.51,840.793L570.429,840.821L571.998,838.93L572.985,838.182L574.957,837.264L574.955,837.247L576.002,836.783L575.174,837.161L575.202,837.33L575.118,837.892L575.172,838.108L575.721,838.223L574.971,841.993L576.759,842.36L576.454,843.937L576.227,844.161L572.52,843.439L568.371,842.586L567.842,842.461L568.035,841.534L568.499,841.631Z"/>
<path region="17" short-name="State Assembly District 30" long-name="State Assembly District 30" value="1" d="M219.139,310.038L218.747,310.616L219.47,310.789L220.293,310.752L220.08,311.589L220.952,311.876L221.157,310.971L222.388,311.28L222.931,311.215L223.274,311.886L224.762,313.676L225.144,314.022L224.243,317.562L223.914,316.987L223.134,316.779L223.402,317.533L222.522,317.128L222.406,317.579L221.9,317.443L221.78,317.909L220.61,317.6L220.251,317.985L218.936,318.727L218.492,319.206L218.181,319.382L216.577,318.513L215.684,317.857L215.574,317.272L216.243,315.757L215.243,314.969L214.99,314.608L214.835,313.752L215.34,313.376L214.706,312.821L214.324,312.728L214.774,310.95L214.797,310.288L213.92,310.067L214.127,309.296L214.732,309.865L215.747,309.158L216.004,309.467L218.904,310.131Z"/>
<path region="18" short-name="State Assembly District 9" long-name="State Assembly District 9" value="1" d="M547.833,844.99L550.127,845.217L550.225,845.575L550.898,845.484L551.429,846.106L551.268,846.812L552.614,847.109L552.51,847.582L552.407,848.056L553.656,848.305L553.395,849.24L554.498,849.459L554.395,849.928L553.925,849.841L553.529,851.705L553.988,851.855L553.053,856.731L552.805,857.685L550.932,857.275L549.196,856.522L548.349,855.753L547.392,855.122L545.886,854.294L547.556,846.17Z"/>
<path region="19" short-name="State Assembly District 41" long-name="State Assembly District 41" value="1" d="M562.541,860.647L562.673,860.112L563.484,860.26L564.13,857.091L566.395,857.552L566.676,856.154L567.594,856.319L567.725,855.858L568.032,857.341L567.882,858.797L567.587,858.729L567.18,860.589L568.078,860.78L567.867,861.691L566.961,861.513L566.576,863.304L566.305,863.796L566.373,864.329L567.669,863.563L568.008,864.578L567.839,865.183L567.079,865.715L567.201,866.775L566.924,868.54L564.325,867.966L563.483,867.452L562.008,867.216L562.095,866.783L561.113,867.102Z"/>
<path region="20" short-name="State Assembly District 10" long-name="State Assembly District 10" value="1" d="M559.268,840.673L561.978,841.217L562.548,838.495L564.334,838.835L566.161,839.172L566.026,839.829L566.48,840.051L568.213,840.303L568.732,840.507L568.499,841.631L568.035,841.534L567.842,842.461L568.371,842.586L568.124,843.062L565.695,845.384L564.24,845.053L564.161,845.513L562.812,845.251L563.091,843.871L561.364,843.574L561.183,844.535L559.381,844.133L557.569,843.807L557.446,843.29L557.631,842.375L556.959,842.217L557.231,840.275Z"/>
<path region="21" short-name="State Assembly District 12" long-name="State Assembly District 12" value="1" d="M580.453,842.989L580.998,840.376L581.298,839.324L581.974,839.587L582.286,838.577L583.161,838.788L582.88,839.77L584.686,840.131L584.622,840.608L585.594,840.699L586.956,840.555L587.269,840.868L588.167,840.855L589.011,840.632L589.74,840.615L590.929,840.913L591.874,841.732L592.956,842.849L593.316,843.546L593.379,844.637L593.573,845.407L593.622,846.446L593.81,847.128L594.624,848.311L595.173,848.483L595.544,848.965L595.496,849.386L594.935,850.325L594.029,850.479L593.052,850.844L593.039,851.414L593.296,852.036L592.924,853.254L593.322,854.106L592.414,855.665L591.784,856.394L591.344,856.647L590.232,856.861L588.461,857.421L588.151,858.141L586.82,857.9L586.666,857.75L585.826,857.707L582.829,857.124L583.142,855.653L583.379,855.017L581.48,854.631L581.662,853.696L581.248,853.051L581.261,852.461L580.578,851.397L580.456,850.46L580.766,848.953L580.33,848.862L580.044,847.815L579.147,847.632L578.724,846.804L578.859,846.024L578.557,845.35L578.072,844.943L578.206,844.55L579.996,844.874Z"/>
<path region="22" short-name="State Assembly District 37" long-name="State Assembly District 37" value="1" d="M553.315,827.743L554.871,828.054L553.91,829.11L553.72,829.826L556.519,830.264L556.722,829.357L557.638,829.54L557.833,828.613L559.227,828.905L559.03,829.818L558.566,829.714L558.377,830.64L560.21,831.097L560.031,832.04L560.947,832.236L560.761,833.18L561.67,833.37L561.121,836.19L559.196,835.773L558.339,835.477L558.278,835.917L557.854,836.483L556.352,836.184L556.679,835.368L557.17,834.871L556.788,834.407L555.997,833.864L555.214,833.631L554.501,833.744L553.531,833.421L552.859,834.818L552.5,834.718L551.331,834.791L550.928,834.669L551.455,832.938L550.82,832.579L551.136,830.969L552.498,831.229L552.836,829.511Z"/>
<path region="23" short-name="State Assembly District 16" long-name="State Assembly District 16" value="1" d="M562.439,847.086L564.411,847.481L564.704,847.663L563.549,849.245L564.788,849.526L569.212,850.395L570.553,850.736L570.462,851.192L570.821,851.767L571.726,851.924L571.549,852.79L573.399,853.274L573.197,854.152L573.657,854.274L573.449,855.208L573.918,855.326L573.354,856.789L573.431,857.657L572.671,857.241L571.663,857.176L569.854,856.831L569.942,856.365L569.029,856.077L567.725,855.858L567.594,856.319L566.676,856.154L566.395,857.552L564.13,857.091L563.098,856.761L562.292,856.942L560.306,857.602L560.748,855.427L560.193,855.312L560.779,854.475L559.206,854.225L559.521,852.907L557.71,852.561L558.332,849.293L559.228,849.466L559.616,847.616L561.386,847.91L561.582,846.975Z"/>
<path region="24" short-name="State Assembly District 17" long-name="State Assembly District 17" value="1" d="M573.476,825.893L575.275,826.683L577.404,827.125L577.961,827.106L579.225,827.451L579.872,827.466L583.546,828.223L584.236,828.415L585.108,829.749L585.929,830.531L585.687,831.325L585.991,832.116L586.493,832.301L586.092,834.561L585.746,835.165L584.504,835.065L584.414,835.364L582.083,837.218L581.739,836.866L580.946,837.275L580.339,836.95L580.289,836.152L579.935,836.112L580.2,834.824L580.325,834.238L578.533,833.87L573.059,832.861L573.132,832.416L572.657,832.292L572.301,831.748L573.041,828L572.136,827.806L572.336,826.88L573.183,827.06Z"/>
<path region="25" short-name="State Assembly District 27" long-name="State Assembly District 27" value="1" d="M210.122,297.591L209.059,298.587L208.977,299.53L209.393,299.765L210.169,299.041L211.113,299.273L211.275,300.361L211.083,301.528L210.718,301.941L211.628,303.684L211.838,303.239L212.44,302.866L214.16,303.292L214.897,302.606L215.153,301.651L215.773,301.809L215.655,300.572L216.472,300.672L217.188,300.948L218.222,302.526L219.932,303.038L219.828,303.415L220.174,303.93L221.798,304.274L221.88,305.155L219.573,308.83L219.139,310.038L218.904,310.131L216.004,309.467L215.747,309.158L214.732,309.865L214.127,309.296L213.92,310.067L213.078,310.349L211.201,310.143L211.392,310.771L211.459,312.377L210.015,312.706L209.252,312.791L207.852,312.503L207.209,313.189L206.756,313.031L206.989,311.06L207.35,310.61L207.119,310.253L205.4,309.56L203.987,308.589L205.924,301.275L204.137,300.812L204.741,298.475L205.185,298.521L208.01,300.176L208.806,297.278L209.362,297.529Z"/>
<path region="26" short-name="State Assembly District 28" long-name="State Assembly District 28" value="1" d="M576.002,836.783L576.915,837.039L577.062,836.283L578.131,835.786L580.2,834.824L579.935,836.112L580.289,836.152L580.339,836.95L580.946,837.275L581.739,836.866L582.083,837.218L584.414,835.364L584.066,836.761L583.687,836.792L583.161,838.788L582.286,838.577L581.974,839.587L581.298,839.324L580.998,840.376L580.453,842.989L576.759,842.36L574.971,841.993L575.721,838.223L575.172,838.108L575.118,837.892L575.202,837.33L575.174,837.161Z"/>
<path region="27" short-name="State Assembly District 13" long-name="State Assembly District 13" value="1" d="M566.089,820.797L565.761,822.759L567.468,822.95L569.286,823.378L569.095,824.274L568.167,824.079L567.903,825.511L568.493,826.428L567.66,826.903L564.049,826.224L563.953,826.669L562.174,826.181L562.652,824.013L559.927,823.305L558.109,822.91L557.929,823.838L557.025,823.639L557.216,822.716L556.308,822.503L557.225,818.144L557.494,818.051L557.907,818.971L560.722,819.554L560.617,820.026L561.284,820.218L562.55,819.948L564.367,820.317Z"/>
<path region="28" short-name="State Assembly District 22" long-name="State Assembly District 22" value="1" d="M574.774,861.246L576.389,861.32L576.178,862.278L578.475,862.705L580.084,862.679L580.218,862.23L580.845,862.212L581.003,861.503L582.602,861.562L582.688,860.422L582.248,859.675L582.736,857.56L582.829,857.124L585.826,857.707L586.666,857.75L586.345,858.081L585.757,860.623L584.991,864.371L584.492,864.733L584.835,865.222L583.056,864.878L582.684,866.709L580.885,866.353L575.533,865.231L575.152,867.057L569.835,865.936L570.027,864.882L570.045,864.3L568.757,862.212L568.971,860.971L570.782,861.336L571.65,861.838L572.488,862.058L572.353,862.645L574.322,863.085L574.176,862.671L574.542,862.305Z"/>
<path region="29" short-name="State Assembly District 29" long-name="State Assembly District 29" value="1" d="M573.399,853.274L575.235,853.646L576.216,853.528L576.763,853.75L577.966,854.88L578.272,855.319L578.527,856.179L580.477,856.629L580.924,857.405L581.487,857.311L582.736,857.56L582.248,859.675L582.688,860.422L582.602,861.562L581.003,861.503L580.845,862.212L580.218,862.23L580.084,862.679L578.475,862.705L576.178,862.278L576.389,861.32L574.774,861.246L574.79,860.72L574.427,859.929L574.629,858.329L573.431,857.657L573.354,856.789L573.918,855.326L573.449,855.208L573.657,854.274L573.197,854.152Z"/>
<path region="30" short-name="State Assembly District 7" long-name="State Assembly District 7" value="1" d="M564.078,830.14L568.652,831.027L571.194,831.529L570.479,831.948L570.282,832.323L572.109,832.688L572.301,831.748L572.657,832.292L573.132,832.416L573.059,832.861L578.533,833.87L580.325,834.238L580.2,834.824L578.131,835.786L578.202,835.062L577.378,835.175L577.288,835.638L576.267,835.442L576.448,834.522L575.126,834.26L574.649,834.604L573.512,835.861L571.62,835.437L564.679,834.127L563.638,831.813L563.777,831.649Z"/>
<path region="31" short-name="State Assembly District 5" long-name="State Assembly District 5" value="1" d="M555.74,838.94L555.906,839.053L559.638,839.784L559.268,840.673L557.231,840.275L556.959,842.217L557.631,842.375L557.446,843.29L557.569,843.807L557.283,845.184L556.386,844.98L556.189,845.916L555.288,845.701L554.498,849.459L553.395,849.24L553.656,848.305L552.407,848.056L552.51,847.582L552.966,847.68L553.869,843.435L552.047,843.061L552.743,839.356L555.197,839.855L555.408,839.219Z"/>
<path region="32" short-name="State Assembly District 14" long-name="State Assembly District 14" value="1" d="M572.52,843.439L576.227,844.161L576.454,843.937L576.759,842.36L580.453,842.989L579.996,844.874L578.206,844.55L578.072,844.943L578.557,845.35L578.859,846.024L578.724,846.804L579.147,847.632L578.239,847.462L574.942,846.79L574.767,847.745L571.803,847.112Z"/>
<path region="33" short-name="State Assembly District 8" long-name="State Assembly District 8" value="1" d="M553.988,851.855L557.71,852.561L559.521,852.907L559.206,854.225L560.779,854.475L560.193,855.312L560.748,855.427L560.306,857.602L562.292,856.942L563.098,856.761L564.13,857.091L563.484,860.26L562.673,860.112L562.541,860.647L561.618,860.381L561.444,861.32L559.612,860.955L559.447,861.91L555.823,861.164L556.454,858.152L555.199,858.159L552.805,857.685L553.053,856.731Z"/>
<path region="34" short-name="State Assembly District 25" long-name="State Assembly District 25" value="1" d="M198.041,311.912L198.96,312.374L199.349,310.791L200.293,310.774L200.902,310.076L201.232,310.177L201.754,309.671L202.386,309.567L202.497,309.103L203.321,308.228L203.987,308.589L205.4,309.56L207.119,310.253L207.35,310.61L206.989,311.06L206.756,313.031L207.209,313.189L207.852,312.503L209.252,312.791L210.015,312.706L210.31,313.085L210.319,313.943L209.995,314.409L209.52,316.233L209.534,316.564L209.041,317.435L209.808,317.73L211.523,318.165L212.012,317.821L213.312,318.133L213.906,318.836L213.968,319.898L213.697,320.625L213.546,321.465L213.931,321.854L213.153,322.835L212.107,323.143L211.432,322.979L211.298,323.495L210.816,324.005L210.232,324.167L209.417,323.929L209.52,323.509L208.551,323.382L207.985,323.018L207.773,321.976L206.674,320.09L206.049,318.866L205.637,319.01L205.28,318.646L205.313,318.051L202.579,315.735L202.407,315.027L195.472,313.204L195.695,312.151L196.576,312.009L196.732,311.735Z"/>
<path region="35" short-name="State Assembly District 26" long-name="State Assembly District 26" value="1" d="M193.937,307.874L195.994,308.388L196.316,308.708L196.08,309.403L197.216,309.714L197.549,310.32L197.497,310.801L198.191,311.791L198.041,311.912L196.732,311.735L196.576,312.009L195.695,312.151L195.472,313.204L202.407,315.027L202.579,315.735L205.313,318.051L205.28,318.646L205.637,319.01L206.049,318.866L206.674,320.09L207.773,321.976L207.985,323.018L208.551,323.382L209.52,323.509L209.417,323.929L210.232,324.167L210.816,324.005L211.298,323.495L211.432,322.979L212.107,323.143L213.153,322.835L213.931,321.854L213.546,321.465L213.697,320.625L215.411,321.106L215.352,321.403L217.056,322.392L217.578,323.075L218.09,323.243L218.453,323.795L218.285,324.506L218.727,324.648L218.46,325.713L219.326,325.964L218.826,327.754L219.7,328.035L219.495,328.954L218.387,329.539L217.921,329.434L215.501,331.217L214.759,331.59L215.263,332.925L214.831,334.055L214.933,334.554L213.543,334.188L213.322,333.834L212.772,334.624L212.286,335.068L211.452,335.391L210.079,335.732L209.21,336.527L209.052,337.396L208.753,337.983L208.27,338.3L206.171,338.46L204.759,339.009L203.733,340.125L203.223,341.484L202.3,351.412L202.054,352.89L202.121,353.434L200.067,353.062L199.838,353.961L198.196,353.546L197.956,354.503L197.058,354.29L196.824,355.201L195.938,354.989L195.512,356.816L193.722,356.388L193.549,357.065L181.759,354.019L183.569,346.52L185.02,340.616L187.282,331.939L190.538,320.17Z"/>
<path region="36" short-name="State Assembly District 31" long-name="State Assembly District 31" value="1" d="M210.122,297.591L211.094,297.308L212.225,297.561L212.589,297.404L213.663,297.725L214.101,297.707L214.465,296.212L214.367,295.09L215.066,294.931L217.017,295.406L218.256,295.171L218.848,295.893L218.943,297.306L219.174,297.836L219.731,297.947L220.252,297.195L221.251,297.449L220.789,299.267L223.024,299.829L223.484,298.014L221.695,297.561L222.154,295.742L224.909,296.435L225.286,296.694L225.991,296.52L226.801,297.851L225.679,300.413L228.382,301.128L227.927,302.987L233.269,304.38L235.581,304.95L236.603,304.774L236.836,305.253L238.272,305.621L235.771,315.543L235.568,316.129L235.062,316.273L233.841,316.337L232.685,316.694L231.482,317.662L230.995,318.319L230.181,318.726L229.769,319.146L229.559,319.738L228.771,319.939L228.196,319.536L227.341,319.315L226.177,319.64L225.071,319.312L224.701,318.838L224.028,318.47L223.402,317.533L223.134,316.779L223.914,316.987L224.243,317.562L225.144,314.022L224.762,313.676L223.274,311.886L222.931,311.215L222.388,311.28L221.157,310.971L220.952,311.876L220.08,311.589L220.293,310.752L219.47,310.789L218.747,310.616L219.139,310.038L219.573,308.83L221.88,305.155L221.798,304.274L220.174,303.93L219.828,303.415L219.932,303.038L218.222,302.526L217.188,300.948L216.472,300.672L215.655,300.572L215.773,301.809L215.153,301.651L214.897,302.606L214.16,303.292L212.44,302.866L211.838,303.239L211.628,303.684L210.718,301.941L211.083,301.528L211.275,300.361L211.113,299.273L210.169,299.041L209.393,299.765L208.977,299.53L209.059,298.587Z"/>
<path region="37" short-name="State Assembly District 4" long-name="State Assembly District 4" value="1" d="M556.308,822.503L557.216,822.716L557.025,823.639L557.929,823.838L558.109,822.91L559.927,823.305L562.652,824.013L562.174,826.181L563.953,826.669L564.049,826.224L567.66,826.903L567.334,828.314L568.698,828.596L569.049,829.15L568.652,831.027L564.078,830.14L562.657,829.686L561.674,827.449L560.081,827.129L559.986,827.6L559.451,827.485L559.348,827.952L559.889,828.07L559.686,829.017L559.227,828.905L557.833,828.613L557.638,829.54L556.722,829.357L556.519,830.264L553.72,829.826L553.91,829.11L554.871,828.054L553.315,827.743L554.359,822.609L556.216,822.981Z"/>
<path region="38" short-name="State Assembly District 6" long-name="State Assembly District 6" value="1" d="M578.131,835.786L577.062,836.283L576.915,837.039L576.002,836.783L574.955,837.247L574.957,837.264L572.985,838.182L571.998,838.93L570.429,840.821L569.51,840.793L568.732,840.507L568.213,840.303L566.48,840.051L566.026,839.829L566.161,839.172L564.334,838.835L564.685,837.168L565.173,837.084L566.071,837.254L564.679,834.127L571.62,835.437L573.512,835.861L574.649,834.604L575.126,834.26L576.448,834.522L576.267,835.442L577.288,835.638L577.378,835.175L578.202,835.062Z"/>
<path region="39" short-name="State Assembly District 18" long-name="State Assembly District 18" value="1" d="M578.239,847.462L579.147,847.632L580.044,847.815L580.33,848.862L580.766,848.953L580.456,850.46L580.578,851.397L581.261,852.461L581.248,853.051L581.662,853.696L581.48,854.631L583.379,855.017L583.142,855.653L582.829,857.124L582.736,857.56L581.487,857.311L580.924,857.405L580.477,856.629L578.527,856.179L578.272,855.319L577.966,854.88L576.763,853.75L576.216,853.528L575.235,853.646L573.399,853.274L573.729,851.42L574.725,851.605L574.855,850.662L575.76,850.85L575.922,849.919L577.717,850.263Z"/>
<path region="40" short-name="State Assembly District 42" long-name="State Assembly District 42" value="1" d="M554.498,849.459L555.288,845.701L556.189,845.916L556.386,844.98L557.283,845.184L557.569,843.807L559.381,844.133L561.183,844.535L561.364,843.574L563.091,843.871L562.812,845.251L562.439,847.086L561.582,846.975L561.386,847.91L559.616,847.616L559.228,849.466L558.332,849.293L557.71,852.561L553.988,851.855L553.529,851.705L553.925,849.841L554.395,849.928Z"/>
<path region="41" short-name="State Assembly District 21" long-name="State Assembly District 21" value="1" d="M567.725,855.858L569.029,856.077L569.942,856.365L569.854,856.831L571.663,857.176L572.671,857.241L573.431,857.657L574.629,858.329L574.427,859.929L574.79,860.72L574.774,861.246L574.542,862.305L574.176,862.671L574.322,863.085L572.353,862.645L572.488,862.058L571.65,861.838L570.782,861.336L568.971,860.971L568.757,862.212L570.045,864.3L570.027,864.882L569.072,864.829L568.008,864.578L567.669,863.563L566.373,864.329L566.305,863.796L566.576,863.304L566.961,861.513L567.867,861.691L568.078,860.78L567.18,860.589L567.587,858.729L567.882,858.797L568.032,857.341Z"/>
    </g>
    </svg>