<svg viewBox="0 0 882.23 1000" auto-border-stroke-width="1" auto-border-stroke-width-limit=".5" original-source="['https://www2.census.gov/geo/tiger/GENZ2022/shp/cb_2022_us_sldl_500k.zip']" candidates="[{&quot;id&quot;:&quot;0&quot;, &quot;name&quot;:&quot;Democrats&quot;, &quot;margins&quot;: [{ &quot;color&quot;: &quot;#1C408C&quot; }, { &quot;color&quot;: &quot;#577CCC&quot; }, { &quot;color&quot;: &quot;#8AAFFF&quot; }, { &quot;color&quot;: &quot;#949BB3&quot; }]},{&quot;id&quot;:&quot;1&quot;, &quot;name&quot;:&quot;Republicans&quot;, &quot;margins&quot;: [{ &quot;color&quot;: &quot;#BF1D29&quot; }, { &quot;color&quot;: &quot;#FF5865&quot; }, { &quot;color&quot;: &quot;#FF8B98&quot; }, { &quot;color&quot;: &quot;#CF8980&quot; }]}]" version="1.1" xmlns="http://www.w3.org/2000/svg">
  <g regions transform="translate(-58.88)">
    <path region="0" short-name="State Senate District 006" long-name="State Senate District 006" value="1" d="m445.5 212.44.45-.22.9.39.43-.58 1.68-.6.54.24 1.66-.31.36-1.76.63-1.14.13-.83-.2-1.38.87-1.62 1.33-.49 2.53-.56.26 1.52.7.14 1.97 1.38 3.14.16.9.6.5.67.76.13.69.93 1.7.71.13-5.4.41-3.38v-7.05l14.9.02 13-.03.03-9.93.34.18 2.08 2.89 1.27 1.22 1.02-.44 1.44-2.28.73-.69.95.11.09-.96.39-.26.24-1.53 1.28-.24 1.46-.85-1.6-.07.2-.86-.38-1.56-.1-1.14.12-1.9.72-1.31-.1-1.4 1.27-.83 1.08.04.23.48.9.37.94-.87 1.52.59 1.55.23.67-.1 2.4 1.42 1.1-.65.92.02.47.55.78-.53 2.55-.64 1.04-.57.12-3.25-.55-.58-1.4-.66-.44-1.52-.64-.92-.03-.72-1.13-.71-.3-.8-.86-1.05-2.48-1.88-1.1-1.3-1.73-1.36 2.03-.33 1.78-1.08.62.44 2.78.98 2.04-.43 1.7.43 1.34.12 1.07-1.34-1.73-1.97-.78-1.58.12-.68-.66-.94.28-1.9.4-.42-.13-.81-.75-1.28.03-.57.85-1.3.78-.64.77-.1 1.62-.86.33.02-2.75-3.58-19.8-8.14-9.58-3.9.36-.46v-.97l.89-.46.19-.96 1.82-2.54 1.3-.44 1.26.22.94-.69 1.06.1.96-.47.34-.8 1.34-.44.37-.44 1.07.02 1.88-1.33 1-1.78v-.43l.75-2.17-.1-2.35.13-1.05-.34-.5.11-2.02-.32-2.16.45-2.78 1.06-2.21.93-2.86v-1.15l-.3-1.54.1-1.82-.4-2.32-1-2.86-.28-.28-.22-2 .15-1-.4-.96.71-.62-.42-2.42-.41-3.58-.43-1.15-.8-2.98-.14-1.57.11-1.12-1.1-3.5-.2-1.76.1-1-1.33.08-.4.34v-2.6h2.35l-.06-1.14-.31-1.02V57.8l-1.16-3.28.08-1.58-.4-.7.53-1.47-.25-.97-.15-2.73-.3-.78.25-2.28-.27-.94.34-.6-.02-1.1-.3-1.6-.35-5.32 1.45-4.76.24-1.77-.15-3.39.3-3.73-.52-2.94-1.5-3.3.12-.42-.45-3.23-1.36-3.63-.44-2-.63-.94-.33-1.92.1-1.53 1.47-.01 40.5-.08 13.28.03 26.29-.06 4.02.03-2.38 5.48-.75 1.02-.78.32-.18.62-.7.33-.8 1.46-1.54-1-.88-1.48-1.64-.92-1.54-.02-.37-.31-1.25-.19-1.45.04-1.8 1.58-.9 1.39-.2 1.22-.95.71-.35 3.33-1.38-.6-.2-1.04-3.65 9.86-.47 2.79v3.14l-14.42-.04-.43.83-1.03 1.02v1.64l.32.45-1.06 2.03 1.78 1.33.25 1.2-.51 1.66.24.86 1 1.62 1.07 1.08.38.79-.18 1.5-1.47 2.17-.57 1.37v.77l-.57.84-.58 1.88-.04.81-.76 1.54-.7.57-.4 1.3.4 1.2.7.15 1.47.97.29 2.2-.48 1.45-.08 1.68.79-.15 1.43-1.05.93-1.26.42-1.46.98-1.3 1.25-.54-.04-1.08.74-.78.27-1.2-.35-1.13.27-.54-.48-.85-.04-.94-.48-.95.17-1.31 1.26.21.62-.79.3-2.18.37-1.18.46-.53-.1-.87.7-.16 2.3 1.85.87.22.03 1.43 1.25.23v-.67l1.94-.02.61 1.85 1.38 1.04.96-.33 2.72.2.72.63 2.82-1.2 1.34-.04.8-.51 2.1.69 1.38.06 3.06-1.03.75-.77.9-.5 1.75-1.68.2-.4 2.1-1.1 1.58-.14 1.64.05 1.33-1.36 2.46-1.2.15 1.29 1.59.73 1.26-1.67 1.25-.48 1.2.18.3-.97 1-.6.9-1.85.18-.94 2.05-.6.75.35.18 1.14 2.2 2.06.83.6.6.99.6 1.5-.73.98.63.97-1.68 2.07-.16 1-.93 1.53-1.28.78-2.28.78.18 1.05-.72.56-.74 1.94V55l-.67.1-1.27-.82-1.22.86-1.26.08-1.2.89-.73.89.05.73-.8.44.05 1.72.56.39.9 1.17.1.83-.65.8 1.34 2.02-.07.68.58.41-.4 1.18h-.65l-1 .5-1.02 1.79-.32 1.6.4 1.04.68.94.54.17.82 1.35.59 2.68.54.46-.2 1.4.32.55-.92.6-.93.1-1.13.58-.8-.28-.13 1.2 1.07.68.17.58 1.44.31.2.69 1.25.93.5 2.57.08 1.22.85.22.13.86 1.53.94.19.69.97.83-.5.9-.77-.04-1.3.62-.36 1.14-.11 1.23-.6.38-.84 2.3-1 .61.39 1.07.32 1.74-.25.88.35 1.23-.19.74-.68.29-.24.88-.52.17-.54.79-1.38.8-.9-.04-.93 1.05-2.17.02-.67-.2-1.22-1.6-.73.39-.8-.34-1.25 1.27-2.62-1.4-1.44.6-.32.63-.83-.12-.75-.85-1.8-1.55-1.77 2.25-.1.57h-3.33l-.58-.79-1.9-.2-1.2-.36-1.73.01-.83.87-1.7 2.92.97.83.34.72.58.3.9-.3 1.97.65 1.53-.83.87.05.08.87 1.14 2.17 1.1.77 1.9.54.05 2.3.38.83 1.26.21 4.7.34 1.78.04 3.1.5.94-.45.73.42.02.67-.6.76-.64 1.35-.08.72 1.89.03.7.33.48.67 1.43.76.96 1.4 1.31.9 2.97.04 1.35.67.58 1.16v.82l-.63.76.82.35.74-1.3.81.08-1.93 2.64-4.46 1.17-2.26.47-.94 1.68-2.32 1.21 1.51 1.27.27 1.44.68 1.04-.6.89-.33 1.42.47.98-.15 1.14-.83 1.16-.52.23-2.27 2.57.07 1.39.96.88-.28.86-.64.7.16 3.03-.84 1.18-.63 1.33-.63.49-4.17 6.63-3.9 7.4-.84.43-1.02 1.29-.65 1.27-.82.63-2.6.77-.56 1.07.4 1.01-.7 1.19-.13.72-2.97 1.23-1.29 1.68-.88.41-.75-.21-1.6-.04-.48-.47-.8.44-.9.14-2.25-.7h-.7l-1.23-.44-1.3 1.55-.5.37-.1 1.22-.96.43-1.22.22-.43-.62-1.13-.17-1.3-.95-1.18-.14-1.04.26-1.85-.22-.84-1.54-.6-.26-.45 19.37-.2 8.44-1 .17-.96-.2-1.37-.63-.33-.84-.56-.44-1.31.8-.93-.5-.48.3-1.02 1.87-1.1.42-1.19-.16-1.33-.5-1.42-1.23-1.73-.5-1.07-.05-1.33-.54-.8-1.27-3-.08-1.37-1.53v4.53l-7.9-.07-.02-3.94-2.9.12-4.98-.05-1.52.4.72 1.15-3.95.15-.7-.52-.57 1.31-.8.71-.13.8-1.51 2.67-1.72-1.11-2.53-.85-.82.16-1.99 1.46-2.25.45-1.58-.58h-.8l-.72.42-2.06-.97-2.11-2.44-1.72-.34-.22.47-1.34 1.31-.14 1.43-.34 1.02-.68.47-1.08.23-.64 1.69.14.83-.63.65-1.15 1.67-.84.24-.32.8-1.09.87-2.49.65-.56 1.2-.87.23-.52.28-.54-2.76-.3-.02-.9-1.75-2.42-2.23-2.45-.97-3.72-1.77-2.01-.15-.96-.76-1.72-.75v1.69l-.75-.8-1.2-.3-1.74.92-2.09-.1-.59.17-1.52-.6-1-1.35.1-1.68z"/>
    <path region="1" short-name="State Senate District 041" long-name="State Senate District 041" value="1" d="m761 814.11 1.68.02 1.87 1.09.86.28 1.88.1 1.7-.45.68.25.76 1 .68.3 1.26 1.49 1.62 1.15 1.2.23.88 1.56 1.1 1.53 1.1.75 1.27-.02.53 1.01 1.83 1.02 2.58-.94 2.2 2.27 2.51.8.52.48.9 2.34 1.28-.6 2.13-1.76 1.24-1.4.6.3 2-.62h1.06l3.84-.9 1.02-.08 1.55.32 1.21.72 1.4 1.06 1.35.45 9.22 1.17 1.98.53.48-1.12 2.26.88.4.02 1.35-.8.94-1.22 1.08-.64 2.8-.8 1.9-1.31 1.4-.56 1.23-.76 1.62-2.28.01-19.3v-6.2h-13.32l-.01-21.73-.03-21.22v-33.84l5.19-.02.3 1.23 2.57 2.04.79 1.17 2.09.17.42-.78 1.05-.02.25-.4 2.4-.22 3.82-.98 1.14.28.37 1.07 2.12 2.69 2.7 2.48 1.41.93 6.9-2.62 1.44-.32 1.58-.6 1.13-.62 4.55-1.69.69-.13 20.86.03.04-1.26.64-.57 1.86-.28v-1.86h1.13v-2.55l5.05.02-.1.32-3.6 2.3.07 3.15h-1.27v.72h1.27v2.5h-1.26v27.82l.03 9.78 9.09-3.58 17.19.12.17-.42 1.21-.92 2.12 2.57h1.42l.22 1.71-.12.82 8.8.03.39.42 1.23-.02.03 10.8-.03 3.79.02 17.76.02 32.36v11.03l.02 21.68v24.87h-14.7l-23.53.03-57.82.02h-3.71l-18.55-.06-15.27.08-6.47.02-44.5-.01 1.45-4.2.55-.47.74-1.1-.02-1.52-.93-3.08-.09-.6.28-3.52.89 1.04.87.71.63.2 4.02.62 1.1.3 2.1.23-.23-2.2.47-1.23.69-2.42.65-3.26.7-1.47.19-2.6.48-1.93.95-2.77.18-.95.09-6.17-.25-1.62.28-.35.09-5.39-5.05 2.15-.07.5-3.05 4.03-1.9-.86-1.9.2-1.5-.63 4.62-10.9 3.36-8 3.07-5.33-.05-.07.03-8.56z"/>
    <path region="2" short-name="State Senate District 019" long-name="State Senate District 019" value="1" d="M420.07 321.82h16.72l8.32.1.22-.52-.47-1.25-.6.43-.93-.68.76-.37-.64-1.68v-1.15l.38-.6 1.18 1.93-.34.88.92.12.8-1.48.31.08 1.45-1.88.9-.01 1.82-1.35.2-.51 1.23-.69.76-1.23.5-1.3-.02-1.09-.64-1.55-1.44-1.4.88-1.1-.4-.58.33-.5.05-1.09.71-2.85-.16-1.26.38-1.96.86-.8-.4-.48-.8.05-.92-.72-.12-14.8 4.5-2.28 3.98 1.28 7.15 2v11.77l.14.13 1.89 4.31 1.7 1.52 1.66.63-.4 1-.03 2.44 1.13.13 1.22-.22 1 .75 1.07-.36.99-1.35 1.12-.41.84.52 1.24.1 2.12-1.82 3.6-.92 1.18.15.77-.42 1.32-.32 1.45-.09 1.02-.46.61-1-.08-.9.54-1.03-.68-1.21.96-.77h.63l1.25-.72 1.69-1.44.34-.63 1.2-.68 1.13 1 .55-.25 1 .2.33.46 1.6.25.44-.46 2.54-.46 1.01-.47.63.32.75 1 1 .62.97-.47 1.24-.17.54 3.8v.93l-.36 1.1.08.68 1.22 3.56.13 1.1-.6 6.1-1.37 4.22-.75 1.49.06 1.24-1.33 2.47-.37 1.4-.03 7.32-.15.87-.96 2.76 1.1-.62h5.52l1.49-.11 7.42.05 1.67-.05 5.5-2.64 4.81.05.53-.31-1.36-2.3 6.92-.18 1.6-1.65 1.72-.39.1-.44.15 31.02h4.6l2.75 5.94-5.97-.4-1.02.27-1.1.72-.88.15-13.43-.14-1.03 2-1.87 1.14-1.39.29-1.34.7 1.56.66 1.72-.04 1.57-.3.68-.8 1.32.2.31-.29 1.62-.23 1.37.17 1.25-.38-.28 1.2-.73 5.27-.25 3.37.65 1.66-.02 2.22-.35.19-5.35.8-1.03.71-2.44 1.3-1.6.7-3.97.92-.39.27-.77 2.26-5.38-.04-14.27.02.02-10.06h-3.78l-.04 2.55-12.81-.02-.13-1.38-.98-.16-.34.28.02 8.8h-5.6l-.01.15-4.88-.02-22.1-.17-5.63.02.03-3.47 1.18-.2 1.42-.89.78-.22.34-.78.55.02.57-2.04-.79-.7.18-.96-.37-1.66-.06-1.15.73-1.58 1.04-2.4.05-1.85.65-.96.17-.78-.1-1.25-.8 1.23-.99-.49-.33-1.73-.6-.55.2-.97-.77-.73-1.83.35-.3.36-.92-.14-1.31.18-.6-.4-1.38.13-2.3-.08-.48.32-1.4-.14.05-3.72-.05-3.49-5.1.02-.06-.7-.86-.33.06-1.02 1.17-.2.02-1.53-.33-.74.22-.5-.15-1.44 1.18-.01v-1.11l-.57-1.1-.69-.58.04-1.08.69-.23.42-.58-.47-.47.7-.53 1.21-.3v2.45l1.23-.03 1.03.53.99.08.88-.25.13-.97 1.16-1 1.34-.4 1-.58-.43-1.06.37-1.22 1.95-3.32-.2-1.33.19-.45-.24-1.35.15-1.67-.16-1.92-1.01-1.5-2.07-1.06-.8.19-.6 1.46-1.1.5-2.49 1.83-.84.84-1.07.43-1.1-.14-.7-.53-.25-1.18v-2.13l-1.19-.14-7.82-1.23-.08-.33-2.51-.44z"/>
    <path region="3" short-name="State Senate District 022" long-name="State Senate District 022" value="1" d="m150.87 242.9 1.73-3.17 1.21-2.58 1.58-2.85 1.46-2.41.62-.6.48-1.48 1.48-2.51.66-2.78.57-1.46.83.18 1-1.28.6-1.22 2.29-3.7 4.98-.54.37 2.4 1.88-.07-.04-14.03-.07-.78-.03-7.12-.1-15.4.06-.39-14.92-.03-.36-3.1.13-1.08.98-3.15.9-4.92.2-2.82.6-2.73.22-6.5.01-1.88-.66-1.81-.4-1.82-.84-1.62 1.64-1.92 1.8.12 1.9-3.17 1.05.12.47.46 1.32.58 1.31-.75 1.12.27 1.33-1.48.84-.06 1.08-.76.43-.76-.13-.99v-14.64l.3-1.03 2.28-3.4.31-1.02V97.67l-.72-3.63.7-.88 1.92-1.03.71-1.18-.01-24.5.38-1.52.97.84 1.13.32 1.93-.46 4.25.7.9-.04 1.85-.74 1.44-1.07 1.31-.04 1.27 1.16 1.3 1.2 2.34-2.36 1.32-1.5.56-.01.03-1.34 2.66.01.64.8-.02 1.84.6.7h.63l.56.56.05.67 1.48.08v-.6l1.26.03-.01 1.98-.6.1.04 1.93 1.77-.03.01-.67h1.38l.01 1.84.48.22.54 1.63 5.8 10.23 3.66 5.22 1.76-1.27.64.51 1.45.66 1.41.06.48-.56 1.06-.62.98-.07.43-1.03.48-.24.78-1.06 1.27-.28.47-.55.85-.34.27-.91.49-.2 1 .33 1.96-1.21-.77-.8.35-1.03-.69-2.84.36-.84 1.7-.8 1.45-1.45.36-1.1-.22-.44 1.5-.78.2-1.53.94-1.33.58.9.56-.48.4-1.3.65-1.19.18-.85-.63-.66-.12-1.34 1.14.94 2.34-.02.79-.58-.08-1.5-.4-1.26.83-1.54.93-.65.47-.74-.94-1.05.99-.52 1 .33 2.15 2.47.94.59.93 1.23 1.08.58-.14.97.22.93 1.79 2.2-.08.77 1.73.16.68 1.08.68 1.65-.15 1.7.3.98.04 1.74-.3.99 1.05 1.78-.2 1.36.18.75.58.4.33 1.6 1.93.53.97 1.59 1.08.77.4-.28.99.67.05-7.67.27-5.49-.01-11.74h.59l.17-23.46.6.7 1.25.43.34-.4-.66-1.08.18-.86 1.78.11-.06-1.02-.75.1-.22-.99.43-.9-.3-.82.36-.75 1.23-.52 1.4.37.65-1.15.83-.18.6-.65-.06-1.08.65-.7.82-.24.28.74.98.67.69-.24.52-.93 1.35.26-.08-1.2.36-1.29.73-1.36 1.03-.55 1.6.59.07-1.16h.55l.58.9.6-.02.4-1.1.77-.5 1.12-1.51h.97l1.33-.7 1.4-1.16.17-1.27.67-.8-.81-1.06-.55-1.82-.11-1.52 1.08-.99-1.21-1.51.18-.78 1.14-.68.05-.64 2.43-.99.25-.7-.37-2.27.49-.43.04-.84.7-.5.3-.72h32.69l30.83-.02h15.78l1.1 1.4h17.39l13.01-.14 6.45.05 17-.15 23.47-.08.22.71-1.06 1.58.1.86-1.08.5-1.07.97-1.03.61-.35.58-.22 2.09-.31.9.2 1-.15 1.2.6.99.77.33.94-.06-.02 1.33-.42.68.25 1.44 1.72 1.23-.2 2.4.31 1.57 1.24.98 1.44.11 1.47-.64.26-.7 1.27-.02.72-.73.95-.43.96.22.95-.44.27-1.18.55-.8.26-1.1 1-.46 1.43.29.97-.3.4.33.73 1.72 1 .4 1.1-.37.78.37 1.2-.11 1.48-.64h1.24l1.15.48.48 1.56.57 1.12-.34.5.32 1 .88-.14 2.73.67.98 1.46-.83.08-2.95 1.35-1.4.14-.02.54-.9 1.33-1 .16-.6 1.13-2.66 1.84-.76.11-.44 1.77-1.44.14-.91.8-.24.66-1.62 1.52-.25-.9h-.66l-2.12-1.11-2.69-.16-1.6.27-1.93-.85-2.05.18-.05.58-2.16 1.43-1.3.53.04 1.34-1.03.71-1.22.49-2.04-1.84-1.51-.82-.2-.85-1.43-.48-.57-.58-1.15-.26-.31-.87-.5-.1-1.74-1.12-1.77-.3-.04.64-.76.56-.89-.03-1.9.8-.69-.32-.48.56-.18 1.14.21 1.7-1.25.08-.49-.95-1.1-1.25-.94.52-.38.56-2.14-.42-.67.07-.83-.74-2.17.16-.57-.22-1.04.16-.52.4.19.75 1.26 2.85.25 1-.1.88-.64.25-.25-.93-1.22-.23-.28-.93-1.24-1.09-.77-1.08-.17-.82-.68-1.07-1.76 1.43-.69.84-1.89.5-.96 1.03.01 1.83-.65 2.03.78.64-.09 1.28.36 2.03-1.08 1.12-1.76-.5-1.89-.04-2.03-.43-1.14-.49-1.88-.23-1.62-.93-.7-1-1.62-.28-.64.11-1.64-.58-.51-.47-2.6-1.14-2.09-.3-.5.48-.84-.2-.94-1.04-1.25-.67-1.8-.7-.92-.82-.07-.84-.9-1.18-1.9-.43-.75-.45-1.82-.59-2.18.13-2.08.32.03 2.52-.26 2.87.42.7.5 1.6.15 1.84-.2 3.13-.58 1.26-.8 1.2-.27 1.67.86 1.3.16 1 .9.92 2.57 5.04-.91 2.14-.35 2.6-5.13 4.13-.12.79.39 1.64.65.6.89.15 1.01-.5 1.86.68.7.7.84 1.93 1.84 2.25.99 1.79 1.11 4.74-.31.98.24 1.18 1.74.8.61-.45 1.72-.62 1.67-2.1.45 1.49.59-.1 2.12 1.11 1.43-.45.24-1.16 1.03.34 1.68-.57 1.52.43-.35 1 .31.68.92.18.52.65-.38.72.06.9-1.25.84.3.52-.27.88.6.35-.06 1.39.35.72 1.2 1.32 1 .56-.04.77.67.75-.05.8.6 2.02-.6.3.24.92-.48 1.81.36.6v1.2l.53 1.06.37 1.53.72 1.43.5 1.41-.05.7.61 1.03.52.33-.01.93.59 1.21-.5 1 .83.68.43 1.82 1.92.1.4 1.03 1.39.57.24.88 1.47.04.99.45.67.78.82.19 1.66 1.38 2.12.56 1.25.92.93-.05.17.48 1.15.3.5-.47 2.13.13 3.03-2.6.72-1.27 1.8-1.03.99 2.16.71.9 4.9 2.27 1.5-.13 1.91.7.78.61 2.3 6.15 1.98 2.47-1.28.28-.6 1.1-.76.86 1.6.47.15.63.86.07 1.33.55.8.6.32-1 .55.26 1.8 1.58.82.43.25.54 1.07.02.54.77.6-.04.27.72-.48.44-.71 1.86-.67.86-1.15.73-.7 1.06-.24 1.13.32 1.52.54.3.7 1.09 1.62-.97 1.56.2v1l.98 1 .07.8-.24 1.35.22 1.7.04 5.17.08.97.43.77-.48 1.96.45.57.57 1.77-.9 2.29.42 1.13 2 .6.93.47.72 1.8-.28 1.17.36 1.02-.12.5-2.6.99-1.54.03-.35.58-1.15.39-.61-.18-1.05.5-1.85.63-1.02.82 7.65-.15 11.95-.04v3.8l.08 1.29-.23 1.24-2.34.15v-1.31l-5.27-.12.03 2.7-2.43-.02.2 1.1-2.7.12-2.35-.15-5.26-.02.04-1.3-1.99-.03-.03 1.98v21.76l-2.57.09-.1 1.68 1 1.36 1.52.59.6-.17 2.08.1 1.75-.92 1.2.3.75.8v-1.7l1.71.76.96.76 2 .15 3.73 1.77 2.45.97 2.42 2.23.9 1.75.3.02.54 2.76.52-.27.05 10.11-.01 8.37h.23v15.81l.01 21.34-.04.43-7.15-2-3.98-1.28-4.5 2.28.12 14.8-.5.44-2.48-.16-3.3-.1-.43-1.1.04-1.23-.54-.65-.6-1.52-.98-.3-1.05-.63-1.23.12-.8-.18-.28-.7-1.45.87-1.96 1.88-.69-.49-3-1.09-2.07.13.02 1.83-1.87.08-.42.87-1.74 1.29 2.8.3 1.32.28h3.77l-1.1 1.94-1.01.7-.62.05-.88 1.22-.36.87-.73.96-4.71.01-.01 1.47-.74.04-1.33-.55-.14.83-.54.04.38-1.67-.83.07.03 1.03h-.75l-.78-.41-.43 1.47-.52-.23-.83-1.34-.75-.64-1.1 1.04-1.22-1.52-1.07.01.02.53-2.57.01-1.14-2.14-1.18-.12v-2.37l1.02-.11-.08-1.92.65-.14-.24-1.13-5.28.01-.03-2.59h-2.57l-5.08-.2-2.08-3.13-1.04.13-1.6.6-.5.6-1.79-.16-1.25.33-.6.4-1.5-.42-1.42.4-.6-.12-.72-.98-2.66-.04v-7.77l2.6.03-.07-2.61-2.5-.02v-2.61l.18-.06-.02-3.52-1.15.05-1 .66-.23 1.1.04 1.1-1.06-.22-.99.54-1.31.17-2.37.05-.77-.53-.31.6.65.95-1 1.48.01.7-1.91-.62-1.21-.07-.64-.9-1-.42-1.52-1.5-.65-.02-1.56-.75-.9-.1-.49.37-.51 1-1.04 1-1.32.6-1.65 1.57.05 1-1.1 1.58.17 2.5.33.5.17 1.15.53 1.28.3 1.72 1.05 1.14.23 1.97 1.3 1.73.15 1.1-.54.28-.3.85-1.1.97-.33 1.43-1.06.75-.45.83-1.34.22-1.39 1.65.44 1 .5.28-.2.96 1.44.55.36.44 1.77-.01.32.8-.67.11.86 1-.4.81.62.33.24 1.33.42.82-.19.96.89.4-.2 2.24-.46.27.12 1.34.8.25.12 1 .52.67-.65.86.7 1.08-.86.82.05.48 1.18.32.14 1.37.37.26 1.21.45.16.98-.55 1.03-.08 1.5.51 1.15.27 1.7.87.36-.38 1.02.13 1.31.47.45.04 2.11-.22 1.44-.9 1.01.4.67.5 1.68.2 1.24-.5.22.65 2.21-.4 2.34-.32.6.04 1.57-.4.5.16.98-.37.26-.15 1.48.59.8-.1.68.57.34-.17.66.23 1.39.53.87.33 1.57 1.86 2.34.14 2.02-.2.7-.63.47.02.8.52.47-1.22 1.88-.05 1.72-.7.97-1.55 1.37-.77.31-1.73.1-1.81-.3.01.96-.62.04-1.33 1.03-.67.84-2.67 1.72-.1.7-.93.4-.41.87-1 .72.32.94-.28.5.66.96-.06.84 1 1.7-.55.88.71.91-.46.46-6.06-15.32-2.57-6.37-3.79-9.2-8.85-21.84-3.86-9.35-6.07-15.37-10.28-.03-31.42.4-15.17-.16.06-7.86-5.18.04-10.27-.01v7.71h-14.76l-22.58-.05-11.66-.14-7.78-.02-1.67-.08-3.48.02.06-7.77-7.7-.05-.07-2.55 2.6.01v-2.59h2.58v-1.7l2.6.18-.04-3.68-.1-.27-6.6.03-.6.22-.43-.9h-3.36v.7l-1.94.02.07-2.62h-5.15l-.04.23-2.45-.02v-1.3l-2.56-.02v-1.31l-3.72.01-1.41-.76.02-5.7h-2.53l-.11-8.98.04-6.48-.04-9.1.06-7.55-.32-1.03-.89-.06z"/>
    <path region="4" short-name="State Senate District 027" long-name="State Senate District 027" value="1" d="m665.46 476.5-.03-41.74-.01-3.8 29.62-.05h19.52l16.1-.05-.02-15.37 8.93-.09 6.41-.01-.01-15.42 30.73-.05.04 30.9 15.25.02H803l30.54.04.18.03-.2 14.78-.03 23.2-.05 15.38 39-.05.7-.7-.02-1.9 1.14-.01-.02-16.94-2.46-.18-.1-3.44 14.99-.01 5.56.04 7.66-.02 5.13.07v7.7l4.21.06v-1.46l4.26.35 7.01.5v-2l7.65.05v-2.55l6.9-.01-.02 6.03-.05.95v11.8l.04 4.12.01 20.92.02 16.12-.04 7.41.02 5.92-.05 5.1-.13 5.1-.11 7.76-.5 27.26-.08 1.5-.14 11.45-.14 3.84-.02 3.68-.14 10.32-.59 31.85-.12 10.3-.26 12.06-.07.72-.05 6.46-.25 13.65H890.04l-15.1-.02-.12 6.36h-11.6l-.92-.77-.52-.13-5.3.04-1.42-1.08-2.8.16-.03-4.58-11.9-.06-.5-3.58-.81-2.36-3.46-2.57-3.3-2.1-1.28-.15-1.36-.84v-18.14l-25.13-.19-19.08-.18-17.46-.08-11.49.01-1.65.05-3.26-4.68h-1l-1.48.57-1.04.04-.88-.32-.88-1.95-.13-1.7-1.09-2.71-.03-4.12-2.66.52-.91.03-6.87-.27-2.57.57-10.2.04-.01-.94h-1.26l-.03-1.6h-1.24l-.03-2.54-2.54-.02.62 1.03.01 2.87h.64v1.2l-5.12-.01-18.84.01-5.92 2.07-8.74 1.32-4.32 1-.75.07-7.86-.1.01-4.2-1.07-.86.05-23.72v-10.65l.15-39.9-.51-.39-.04-15.34.21-31.08.14-30.24z"/>
    <path region="5" short-name="State Senate District 030" long-name="State Senate District 030" value="1" d="m59.49 329.4 16.92-.18 7.99-.04 4.03.02 1.1 1.16.46.78-.4.52v5.25l.11 1.51-.85 1.32-.36.94 1.43-.17-.15 1.03.09 1.36-.73 1.14-1.33.05v3.96l.07.4 3.78-1.16 2.25-.1.96.56 1.37 1.09.7.09 2.4.74.78.86.63.24 2.1.01 1.39-.34 2.12-1.2 1.44-.2-.25-1-2.3-1.97-.36-1.19-.22-1.91 4.46-2.23 1.8-.55 1.73-.17 6.64-1.04 2.23.3 1.16.41.65.56 2.24 1.12 1.18.42 2.3.03 2.12-1.29 2.14-1.61-.03 5.65-.22 10.2.1.27-.04 5.63-.09 1.84 2.63-.17.26 3.03h2.56v2.59h-2.37l.03 2.7-2.62.02.06 2.56-2.55-.02-.01.78.4.54 1.69 3.5-.95 1.17-1.9.4-.53.55.36.76-.08 2.33-.82.28.16 1.19-.77.59-.02 5.84.1 7.85 2.34-.05.06-2.46 2.58-.08-.05 2.52 5.19.01.02 1.33 1.36-.04.02-1.31 1.1.02.05-2.52 2.55.08-.02 2.59 2.49-.01.01-2.6h2.72l.03 2.57 7.7-.02v-2.56l2.4.02.1 12.92 2.53.02-.05 2.5-2.53-.02-.03 2.67 12.98-.08-.04-2.64 2.52.05.03-6.43H176v-.95l1.68-.03.62-.5.22-.92.76-1.46 1.27-1.29 2.14-.45.71.9 1.65.44 1.97 2.13.44-.12 1.08.63.81.15.55.48 1.57.74 1.8.62 2.34.57 1.24.63 1.9.58 1.63.84 2.43.36.68.37 1.54.43.76-.03 1.89 2.24.25 1.67 3.32-1.1 2.15-.23.33-.22 2.23-2.93.9-.7.82-3.58.29-.75 1.88-2.93.56-.54 1.87-3.03 2.87-3.16.27-3.05-.8-1.91-.6-.38.12-1.26.54-.92 1.5-3.44 1.09-.81.75.61.75.09 2.22-1.17 1.3-1.96.92-3.09 1.41-1.83.68-2.48.7-.84 1.76-.72.99-3.36.65-1.65 1.08-1.9-.12-1.27-.64-1.35-.63-2.29-.12-2.3.87-2.98.92-2.32.3-1.23 1.17-2.31 3.33-2.61-.36-.33-8.3-6.69.35-1.1-.3-2.3 1.16-.34.79-.74.5-2.17-3.14.02.67-1.07 2.72-1.89-.17-.36-1.84-.55h-1.57l-.01 1.3h-1.32v.94l-2.1-2.32-.53-1.23-2.05-3.23.44-.46 2.55-4.26.42-1.2 1.63-2.45.9-2.43v-6.15l.07-.34 14.77.01v-7.71l10.26.01 5.18-.04-.06 7.86 15.17.15 31.42-.4 10.28.04 6.07 15.37 3.86 9.35 8.86 21.83 3.78 9.21 2.57 6.37 6.06 15.32.46-.46-.71-.91.55-.89-1-1.69.06-.84-.66-.97.28-.49-.32-.94 1-.72.41-.87.93-.4.1-.7 2.67-1.72.67-.84 1.34-1.03.61-.04-.01-.97 1.81.31 1.73-.1.77-.31 1.55-1.37.7-.97.05-1.72 1.23-1.88-.53-.47-.01-.8.62-.47.2-.7-.14-2.02-1.85-2.34-.34-1.57 11.59-3.2 9.46-1.77 1.37-.7.18.37 3.32-.86.53 2.15 1.14 5.59.98 5.05 3.9.77-.01 4.79.6 1.48-1.53.02.01 1.71 9.01.01 13.79-.13H436l12.3.12-.73 1.58.06 1.15.37 1.66-.18.96.79.7-.57 2.04-.55-.02-.34.78-.78.22-1.42.88-1.18.21-.03 3.47-7.6.01-.1 10.6-15.95-.1h-8.34l-5.34-.02.53-4.43-.22-1.1-1.02-.46-1.08.22-.62-.82-.6-3.08.46-.98h-4.67l-.64 1 .08.88.65 1.96.19 2-.43.4-.33 1.41.69 1.9-.2.4-1.35.02.21-1.3-2.23-.01.06.94-.57.87 1.15.84-.68 3.6-3.12-.65-.2 1.39.8.03.18 3.43-.25 2.77-.77-.33-.6 1.01.12.81-.71 1.21v.56l1.33.57-.7 2.06-.02.93-.62 2.28.78.88-.38 1.58-.43.96-.6 2.6-2.06-.18v-1.11l-.83-.03-.12 1.64.52 2.2.47.91.05 1.6-.27 3.08.2 1.29-.25 1.1.22 1.59-.35.49-.26 2.35.25.82-.78 5.31 3.65 1.89-2.8 1.9-.22 1.01.34 1.31-.05 1.18-.71 1.47-.19 1.08-.68 1.45-.3 1.5.97 2.28-.08.65-.8 1.5.48 3.6.34 1.05-.16.5-3.22.24-1.24-.2-1.08-.47-1.51 2.42-1.43-1.01-1.04-2.17-.12-1.62-8.4 14.77.03 10.7-24.89.06-.24-1.76-1.55.04-.06.31-1.27.68-1.25.94-1.15 1.29-.68 1.58-1.32.69-.49 1.02-1.22 1.23-.12.94-1.17 2.48-1.13 2.05-1.35 2.82-.87 1.25-1.86.38-.63.84-1.22.32.07-2.15-.43-1.02-.59-.43-1.7.07-2.8-.83-1.01-1.49-.07-1.26 1.01-1.63 1.36-1 .25-1.07 1.54-.63 1.3.32-.3-2.43.82-1.02 1.51-3.3-.04-.54-1.32-1.02-2.25-.6-.98-1.2.67-1 .52-1.24-.45-1.02v-1.43l.2-1.16.05-1.64.28-1.2-.04-.86.26-1.56-.5-.64 1.04-1.5.13-.58-1.23-.68-.23-.71-1.79-.75-2.89.13-.14-1.07-1.9-.7-1.03-.68-3.26-.2-.8.46-.6.96-3.09-.56-.18-1.31-1.39-2.84-1.22-1.65-.55-.2-1.4.28-.57-.43-.91.6-1.02.1-1.8.58-.49-.17-1.04.31-.94-.19-.53.92 4.22.05-.01 2.68 1.24-.04v1.26H303v1.25l-2.57.05-.01 2.56h1.4l-.02 2.55-1.38-.03.04 2.55-2.5.01.02 7.7-4 .07-.04 2.4-1.33.1-4.69-.04-2.6.11.01-2.62-2.56-.07-.03-2.54-2.56.05.03-2.61h2.52v-1.78l-1.22-.58-.95-1.48-1.77.47-1.34.69-.47-1.1-1.13-1.2-.17-.6-2.78-3.03-2.15-1.83-2.22-.83-2.82-.24-1.61-.32-1.86.64-.03-.74-.97-.71-.8 1.05-.75 1.87-.91 1.36.1.61-.34.84-.96 1.03-1.1.65-.4.96-1.18.49-1.22.78-1.1.28-.48.38.12-14.72-.1-5.61-.17-7.47.27-10.69-15.25-.18-2.51.04-23.93-.06-7.26-.1-42.7.09-7.86.1-53.4-.14-1.25.16-2.53-.1-10.23-.14-16.67.03v.08l-9.15.02V401.4l.11-2.55-.1-2.6.07-2.52-.07-2.55.03-23.32V357.1z"/>
    <path region="6" short-name="State Senate District 033" long-name="State Senate District 033" value="1" d="m514.6 491.87 12.56-.01h34.5l16.27.05 4.92-.04 15.89-.03 5.24.02.04-7.57-.02-7.82 61.44.01.02.02-.1 15.38-.14 30.24-.2 31.08.03 15.34.5.38-.14 39.91v10.65l-.05 23.72 1.07.86-.01 4.2 7.86.1.75-.08 4.32-.99 8.74-1.32 5.92-2.07 18.84-.01.24 1.28h.9v1.27h3.38l-1.28 1.13-.25.77-1.68 1.18-.95.23-.85.64-.5 1.2-3.21-.04.05 6.92-.54 1.35.6 1.98h1.96l4.1-.2.04 1.04 1.23.02.03 5.4 5.07.02 3.77-.04 13.88-.05.04 5.1.05 15.23-22.55.16-7.66.01-45.25-.06h-14.75v.79l-13.75.17-1.14.3-30.4-.1.11 22.55-14.13-.2-.2 1.57-1.3-.89-1.85.02-.02-.78-7.04-.18-25.06.16-13.12.03-4.29.05-.06.77-1.58 1.83-1.33.53-1.47-.18-2.26.57-.28.39-1.3.26-2.2 2.3-3 1.26-1.82 1.19-.31.8-1.07.2-.56.75.08.7.56.17.65 1.47 1.28 2.08-.04.49.5 1.11-.13 1.66.52 1.16-.5.62-1.17-.44-1.25.22-3.92-.82-.27-.56-1.3-.1-.13.72-2.27.04V730l-2.3.02-.1-4.58-.53-1.68-2.3-6.73-5.02-14.76-.06-1.42-1-.37-1.85.06-.01-1.67-.23-1.65-6.63.12-.91.35-1.12-.15-.9.62-1.38.05-.42-.28-1.57-.3-.75.43h-1.83l-.8-.3-.15 1.32-8.56-.79-4.43-2.03-1.32-1.26-2.89-.57-1.96-1.37-1.58-.44-7.17-.22-.13-3.46-.62-44.42h-3.82l-.14-15.6-.12-31.63h15.37l16.04 1.41v.38h15.4V581.9l.01-13.57h18.67l-.12-15.01v-8l-.01-22.65.12-.07-.01-15.32z"/>
    <path region="7" short-name="State Senate District 035" long-name="State Senate District 035" value="1" d="m59.35 576.8.08-17.15-.08-21.97.01-15.36.02-14.04.05-38.9.03-16.09v-17.88l9.16-.02v-.08l16.67-.03 10.23.13 2.53.1 1.26-.15 53.39.13 7.87-.1 42.7-.08 7.25.1 23.92.06 2.52-.04 15.25.18-.28 10.69.19 7.47.09 5.6-.13 14.73.49-.38 1.1-.28 1.22-.78 1.18-.5.4-.95 1.1-.65.96-1.03.35-.84-.12-.6.92-1.37.75-1.87.8-1.05.97.7.03.75 1.86-.64 1.61.32 2.82.24 2.22.83 2.15 1.83 2.78 3.02.17.6 1.13 1.21.47 1.1 1.34-.7 1.77-.46.95 1.48 1.22.58v1.79l-2.52-.01-.03 2.6 2.56-.04.03 2.54 2.56.07-.01 2.62 2.6-.1 4.69.02 1.33-.08.03-2.41 4.01-.06-.03-7.7 2.5-.02-.03-2.55 1.38.03.01-2.55h-1.4l.02-2.56 2.57-.05v-1.25h-1.3v-1.26l-1.25.04.01-2.68-4.22-.05.53-.92.94.2 1.04-.32.5.17 1.8-.59 1-.1.92-.59.58.43 1.39-.29.55.2 1.22 1.66 1.4 2.84.17 1.31 3.1.56.6-.96.8-.46 3.25.2 1.03.69 1.9.7.14 1.06 2.9-.13 1.78.75.23.71 1.23.68-.13.57-1.05 1.5.51.65-.26 1.56.03.86-.27 1.2-.04 1.64-.22 1.16v1.43l.46 1.02-.53 1.24-.67 1 .98 1.2 2.26.6 1.32 1.02.04.54-1.5 3.3-.84 1.02.3 2.43-1.3-.32-1.53.63-.25 1.07-1.36 1-1.01 1.63.07 1.26 1 1.49 2.8.83 1.71-.07.58.43.43 1.02-.06 2.15 1.22-.32.63-.84 1.86-.38.87-1.25 1.35-2.82 1.13-2.05 1.17-2.48.12-.94 1.22-1.23.5-1.02 1.3-.7.69-1.57 1.15-1.29 1.25-.94 1.27-.68.06-.31 1.55-.04.24 1.76.03 20.44h15.24l-.05 7.7h-15.2l-.01 5.21h7.58l.02-2.66 7.6.02.02 19.04 1.08.34 3.88.06 1.32-.46 3.24-2.31.55-1.15 1.93-3.4.95-1.12.97-.15.3-1.28 2.06-.16.14 1.12 1.17 1.55-.24 1.59.12 1.08.65 1.82-.37.9-.92 1.4.24 1.98 1.25 1.36.14 3.36 1.59 3.24-.29 1.5-.02 2.4-.7.92.2.9 1.7-.02 4.25 1.51h1.6l2.78.73.76.3 4.3 2.3 1.73.3 1.42.4 28.8 1.58.47-.6 2.49-2.1 1.05-1.5-.31-2.86-.46-1.7.93-2.12 1.01-2.8 1.64-2 1.14-2.19 1.05-1.73.18-.8-.2-1.23.04-4.79v-9.92l.08-.66 1.29-2.78 1.07-1.8-.01-6.27-.18-.86-.87-1.73-1.36-3.28-.06-10.47-.4-1.22-2-1.9-.1-.32.64-3.04-.27-1.66v-8.67l.78-2.17.43-.61-.33-1.22v-1.07l-.43-1.45-.5-.12-.44-.82-.14-1.64.2-1.01-.09-1.02.22-.75-2.92.31-.6-.19-.27-1.46-.98-2.7-.4-.56-1.34-.41-.6-.7-2.07-4.23-2.03-2.21 8.75 2.99 7.05 3.53 2.56-.08 3.19-.39.05 16.3.04.13.05 15.35 45.83-.03 17.57.01 8.07-.01.17 15.42.01 15.32-.12.07v30.65l.13 15h-18.67V599.1h-15.4v-.38l-16.05-1.42H449.3l.12 31.63.14 15.6h3.81l.63 44.43.13 3.46v11.02l-.03 16.42-5.23.06.02 8.28-.04 60.51-.03 7.78-6.15 9.3-.64.61-6.1 3.4-.5.15-11.14.4-.9.34-.5.72-1.28.76h-.65l-1.26-.94h-.69l-4.67 1.9-.18.21.01 9.22-.8-.5-2.73-.3-.93-.62-1.34-.18-.45-.54-2.33-.08-1.4.52-.02-2.18-3.74.12v-2.64l-2.58-.02-.26 2.2h-.9l-.8.67-.26 1.04-.36.06-1.04 1.22-.26.52-.92-.45-.43-.75-.92-.88-.04-.8-2.87 1.52-.96.05-2.88-3.52-1.63-2.43-6.6-6.45-.27-.35-3.49-5.8-.36-.77-1.97-7.83-.15-.4-6.55-14.87-1.26-1.82.37-.7 5.58-12.35 3-4.07.27-.74 1.24-1.37-2.16-.98-2.81-.4-2.52.17-1.07-.1-1.32.21-.15-.48.82-.58 2.13-2.09.95-1.87-46.9-.12h-5.85l-.02 30.28.02 1.65 2.68-1.52 2.45-1.09.87-.58 1.99-.55 2.32-1.64 1.98-1 1.56-1.03 1.12-1.08.93-.14 3.07-2.9.25-.09 6.96-.9 1.04 1.62 1.34.8 1.15-.47 2.84.32.71.24 1.14 1.24 1.57-.16 1.54.89.1 1.91 1.2.5 1.76 1.59.25.86-.43 1.42-1.25.36-.52-.37-1.05 2.25-.16 1.42-.39.9-1.84 2.31-1.53.97-.22.41-.94.33-.66-.16-.54.61-1.88.67-.95.6-.87-.19.08.77-.75.49-.54-.44-.63.35-.94-.1-.3.83-.72.28-1.46-.62-1.63 1.3-.43 1.34-.37 2.24.44.97 1.7.45.63 1.28 1.45 1.4.56-.2 1.48.58 4.88 8.22 2.16-.02 1.36-.33.83-.6.46-.67.91.72.58.9 1.09.23 1.7 1.06.35-.89-.1-.62 1.58-.52 1.54.28.44-.54 1.82.24 1.2-.77-.06.71.8.38-.07.53 1.2 1.32 1.72 1.56.58.36.8 1.58 1.04.34.71-.4.37-.72-.3-.53.34-1.04 1.34 2.79-.22.55 1.1.6.26.5.92.1.22-.44 1.62.62 1.1-.64 1.79-.75 1.51-.38.11 1.58-.14.64-.76.81.44 1.06 1.26.88 1.04.08.86-.22.63.63.18 1.35-.56 3.46 1.16 2.18.02 1.9.9 1.94-1.72.63-1.77.91-1.28 1.3-1.57.64-1 .87-1.21.65-3.01 1.27-.59.15-14.51 1.95-.93.06-26.27 3.58-.42.01-14.44-.34-9.52-.22-1.06.22-1.43.78-1.76.34-3.72-.47-.58.03-2.75-.46-1.94-.2-11.2.06-1.19-.05-11.04.01-2.64-.35-2.25-.87.02 2.36-2.47.39v1.48l-4.95-.04-.09-7.44-2.02-.01.1-1.28-4.96.5 1.38-1.07-1.4-.55-.91-.67h-.58l-.54.56-.39-1.44-4.91-5.55-18.34-20.7-11.28-12.7h-1.46l-.4-.65-1.39-1.33-.1-1.33-.6-.71-.05-.8-.47-.93.05-.65-.64-.3-.54-.82-.44-1.33-.5-.37-.27-.82.21-2.82-.62-1.92-.51-.77.01-1.34-.62-.99-.07-1.16.55-.39.1-.85-.67-1.21.23-.41-.11-1.13.6-.15-.1-1.02.6-.26.02-1.14.55-.36.06-1.28-.2-.67 1.37-2.48-.18-.57 1.53-1.7-.23-.53 1.12-1.18.61-1.7.68-.74.93-.02.97-.42.12-1.29-.24-.95-.9.39-.84-.07-1.35-.43-1.34-1.53-.77-1.15-1.43-.4-.5-.96-1.4-.38-.88 1.27-.8-.17-.97.69-.39-.66-1.9-1.09-.44-.79-.17-1.25 2.37-1.43-.5-.58-.02-1.03.26-.61h.8l.43-.53 1.21-.32 1.05.41.46-1.44-.04-.97 1.3-.52.34-.58 1.83-.63.98-.93 1.25-.3.17-1.22-1.36-1.26v-.88l-.53-.59.06-.97-.76-.4-1.86-2.33-1.15-1.24-.61.2-1.2-1.1-1.14-.42.02-.9-1.48.1-1.05.6-.58.72-1.66.42-1.31-1.18-1.32-.7.59-.5-.57-.5-.42-1.1-.98-.9-1.15-.42-.4.28-1.3-.21-1.64.42.35 1.3-2.17.94-.9-.44-1.6-.1-.33 1.28-1 .08-.77-.27-1.46.45-1.65.14-.9 1.1-.79-.05-.92-.48-.46-.54-2.3-1.28-.93.47-.44.78-1.34-.03-1.37-.56-.6.03-1.27-.47-1.25.42-1.01-.53-1.83-.63-1.19.08-1.04-.9-.86-.48-.77.55-.9-1.49-.67-.04-1.61 1.09-.4-.95-1.03-.34-.42-1.45-.96-.32-1.52-2.14-1-.4-.66.34.01.9-.7 1.01-.84.22.37.69 1.14.56 1.18 1.38-.05 1.04.69.44.93 1.39-.33.93.19 1.42.83.8V734l.72.98 1.24 1.23 2.02 1.76-.09.75.84 1.17.87 1.91.8.32-.49.9v1.11l-1.57 1.39-.25.5-2.47 1.36-.9-.35-1.22.67-.72.1-.99.58.5.69 1 .58.39-.07 1.36.65-.2.53-.87.6-1.38.62-.88.66-1.69.2-.57-.17-1.47-1.04-1.23-.33-1.74-.73-1.25-.06-.83-.66-.46.13-.54-1.32-.44-.18-.91.9-.17.71-.8 1.07.25 1.24-.08.73-.53.29-.45 1.12.53 1.42-.24 1.12.42.98.27 2.37-1.07.79.18.6-.25.99-1.24 1.85-.7-.15-.99 1.17-.48.97-.1 1.13.32 1.63.4.56-.18 1.27-.92.5-.38.67-.03 1.43-.88.6-1.58.5-1.05.65-.8.02-.8.4-.51.76-.42-.11-1.38.45-1.8-.32-.75.39-3 .44-1.6-.2-2.16.92-2.97.22-.37.35-1.27.2-2.12-.4-2.42-1.4-1.02-.89-1.08-.43-.42-.53-1.27-.36.36 1.14.04 5.38-1.81.33-.7-.11-.87.4-1.9-.27-2.49 1.4-1.54.53-1.13.59-3.54 1.36-1.97 1.17-1.59.27-1.87.66-2.57.63-1.76.61-2.09.26-1.86.37-3.63-3.42-3.9-5.77-.28-.35-5.3-3.95-2.57-1.64-1.79-.81v-8.04l.08-14.59v-6.78l-.04-27.76-.02-16 .07-4.27-.03-20.21-.03-7.17.1-20.11.03-1.71-.1-6.07.08-37.66-.07-20.15z"/>
    <path region="8" short-name="State Senate District 039" long-name="State Senate District 039" value="1" d="m411.75 394.27 8.34.02 15.95.1.1-10.61 7.6-.01 5.63-.02 22.1.17 4.88.02v-.16h5.61l-.02-8.8.34-.27.98.16.13 1.38 12.8.02.05-2.55h3.78l-.02 10.06 14.27-.02 5.39.04.76-2.26.39-.27 3.96-.93 1.61-.7 2.44-1.29 1.03-.72 5.35-.8.35-.18.02-2.22-.65-1.66.25-3.37.74-5.27.27-1.2-1.25.38-1.37-.17-1.62.23-.3.3-1.33-.2-.68.8-1.56.3-1.73.03-1.56-.65 1.34-.71 1.39-.3 1.87-1.12 1.03-2.01 13.43.14.88-.15 1.1-.72 1.02-.28 5.97.4-2.74-5.93h-4.61l-.14-31.01-.1.43-1.73.39-1.6 1.66-6.92.17 1.36 2.3-.53.31-4.8-.05-5.51 2.64-1.67.05-7.42-.05-1.49.12-5.52-.01-1.1.62.96-2.75.15-.88.03-7.32.37-1.4 1.34-2.47-.07-1.24.75-1.48 1.37-4.23.6-6.1-.13-1.1-1.22-3.56-.07-.68.36-1.1v-.92l-.55-3.8-1.24.16-.96.47-1-.61-.76-1-.63-.33-1 .47-2.55.46-.44.46-1.6-.25-.34-.47-.99-.2-.55.26-1.12-1-1.21.68-.34.63-1.7 1.44-1.24.72h-.63l-.96.77.68 1.2-.54 1.04.08.9-.61 1-1.02.46-1.45.09-1.32.32-.77.42-1.19-.15-3.6.92-2.1 1.81-1.25-.09-.84-.52-1.12.41-1 1.35-1.06.36-1-.75-1.22.22-1.12-.13.02-2.44.4-1-1.66-.63-1.7-1.52-1.9-4.31-.14-.13.01-11.77.04-.43v-37.14h-.24l.01-8.38-.05-10.11.87-.24.56-1.2 2.5-.65 1.08-.87.32-.8 4 8.19.57-1 1.3-.81.87-.22 4 1.83 1.95 1.17 1.28 1.93.74.83 1.24 1.89.44.14.72 1.12.78.59 1.6.01 1.33 1.36.58 1.49 1.15.39 1.35.96.86.05 1.52.68 1.33.79-3.96 2.81v.37l-1.29.86-.01 1.29-1.53.95.43 1.19.98.13.53-.52 2.54-1.03.13.84 1.27.35-.61 1.28.56.26.96-.7 3.53-1.62 1.28-.34 1.31 3.26.55-.54 2.72-.02 2.56 3.13.13.93.53.52.52 2.03.98.84-.14.82.37 2.67-.15.5 1.81.33.95.68.02.7.69 1.46.87-.46 1.2-.01-1.96 6.36.07 1.04-.73.99-.1.94 1.19 2.19 1.23-1.3 2.26-1.9 2.2-3.66.7-1.96 1.7-1.27.96-.43.56.82.05.9.93.66.6-.28.72-.92 1.92-.1 1.19-.4.28-.8 1.34-.4.87-1.1-.36-.35.27-.9.9-.3.78 1-.12.6.58.82.85.51.16 1.34-.22 1 1.07 2.4.36.38.09 1.09-.36 1.4-.01 1.26.63.41 2.29-.2.83.87 1.13.08.14.93.01-22.95-.06-.26V243.9l.3-.18-.7-14.27v-14.1l-.1-2.2.2-8.44h14.9l1.22.1 15.3-.01-.03 21.8-.83-.09-.66 1.3-1.25.34-1.19-.99.27 1.24-.58 1.05-.36 1.63.92.03.83.92-.2 1.22.24 1.1 1.13-.3-.29 1.15 1.3 1.3.65.22-.05 23.28 3.49 3.66.1 10.74-.32 1.1-1.87-.97-.53.22-1.25 1.75-.85-.19-1.43-1.41-.29-1.04-1.26-1.47-.02-.8-1.33-1.5-.28-1.08-.59.3-.43.94-.75.55-1.62.38-1.12-.18-.36.4.05 1.9-.53 1.53.45 1.18-.3 1.22.55 2-.24 1.1-.42.44.4 1.46-.36 1.27-.67.85-1.76-.55-2.77-2.59-2.15-1.71-.84-.82-1.17-1.52-2.75-1.93-.59.46-.6 1.83.57 1.3-.07.92.41.95.58 2.6-.38 1.67-.24 2.8.35 1.18.94-.45 1.9.08 1.22.43.68 1.08-.01.74 1.34.44.7 1.5 1.13 1.57.33 1.66.6.53.42 1.22 1.37 1.68.73 1.77 2.42-.24.43.22 1.64 2 1.46 1.47.42 1.46 1.21 1.33.23.79 1.12 1.1 2.1 1.31.9-.53.73-.08.43-.52 1.55-.35 1.03-.53 1.23 1.6.72 1.23-.25 1.06.93.7 1.56-.7 1.1-1.59.76-2.65.97-.74 1.68.34.08-.65-.38-1.36 1.57-.67 1.86.36.4.4-.52 1.16 1.93.07 1.58-.68 1.55-.05v-1.13l-.48-1.38.16-.67-.72-.69.05-1.21.92-1.18-.98-.79-2.08-1.22-.24-1.1.17-.63-.24-2.07.81.18.96-.24-.2-2.98-1.39-.83.59-.44-1.86-.45-1.33-.04-.08-1.29-.51-.93.84-1.63.7-.7.62-1.86 1.66-.04 7.12-2.73.28 1.03.44.63 1.51.88.26 2.32.8.91.54-.37 2.43.03.3.6.82-.12-.32-.97 1.88-2.04.94.43.65.67.86.33.54 1.66.4.19.63 1.06 1.07.49.9.92-1.65 1.97.42.93.9.1.53 1.76-1.02.81-1 .28.18.64-.63.82.9.36 1.05.77.36 1.26 1.08.93.58-.06.95 1.17.1.67-.26 1.09 1.92-.35-.06 1 1.37.66.18 1.68 1.49.27-.39 1.9.4 1.33.58.15.14.85.87.16.86 1.02-1.35.52-.12 1.39.81.2-.7.99 1.2 1.74-.46 1.22.43 1.13-1.25.04-.18-.4-1.14.5-.44-.47-1.6-.28-.44-.4-.85.35-.32.7-1.68-.81-.69-1.13-.8-.06-1.19.4-.6.7-1.12-.03-.47.9-1.1-.06-.16 2.13.62.93-.27.66h-4.7l.06 31.12v15.48l.06 28.19v33.67l-3.26-.03-.03 35.63-.02 10.33.02 7.82-.04 7.57-5.24-.02-15.89.03-4.92.04-16.27-.05H514.6l-8.07.02-17.57-.01-45.83.03-.05-15.35-.04-.14-.05-16.29-3.19.39-2.56.08-7.05-3.53-8.75-3-1.82-1.8-.23-1.1-4.44-5.15-16.98-21.18.58-.51-.27-1.98.67-.83 3.22-.52 1.56-1.37.13-.83 1.35-12.03.18-1.35 1.55-3.82.43-.82.74-.38.92-1.1-.38-2.6h3.08z"/>
    <path region="9" short-name="State Senate District 040" long-name="State Senate District 040" value="1" d="m420 303.34-.66 1.81-5.6 6.41-1.56 1.73-2.88 2.21-.76.88-.42 1.3-.5-.09-2.02.02.33-1.3.06-1.17-.94-.54-.01-1.27-.91-1.44-.67.27-7.14 4.18v1.25l1.6.01-.06.64 1.06.89-.34.76-.72.7-.01.55 1.81.68h-20.3l-15.89-.08-.37-.26-.14-1.37-1.18-.32-.05-.48.86-.82-.7-1.08.65-.87-.52-.66-.12-1-.8-.25-.12-1.34.45-.27.2-2.24-.88-.4.19-.96-.42-.82-.24-1.33-.62-.33.4-.8-.86-1 .67-.11-.32-.81-1.77.01-.35-.44-1.45-.55.2-.97-.5-.27-.44-1 1.39-1.65 1.34-.22.45-.83 1.06-.75.33-1.43 1.1-.98.3-.84.54-.29-.14-1.1-1.3-1.72-.24-1.97-1.04-1.14-.31-1.72-.53-1.28-.17-1.15-.33-.5-.18-2.5 1.11-1.58-.04-1 1.64-1.57 1.32-.6 1.04-1 .52-1 .49-.36.89.09 1.57.75.64.02 1.51 1.5 1.01.42.64.9 1.21.07 1.91.62-.02-.7 1.01-1.48-.65-.94.31-.6.77.52 2.37-.05 1.31-.17 1-.54 1.05.22-.04-1.1.23-1.1 1-.66 1.15-.05.02 3.52-.18.06v2.6l2.5.03.06 2.61-2.59-.03v7.77l2.66.04.72.98.6.13 1.42-.4 1.5.41.6-.4 1.25-.33 1.8.16.5-.6 1.6-.6 1.03-.13 2.08 3.13 5.08.2h2.57l.03 2.6 5.28-.02.24 1.13-.65.14.08 1.92-1.02.1v2.38l1.18.12 1.14 2.14h2.57l-.02-.54 1.07-.01 1.22 1.52 1.1-1.04.75.64.83 1.34z"/>
    <path region="10" short-name="State Senate District 023" long-name="State Senate District 023" value="1" d="m363.47 321.74 15.89.07h21.92l-.53.68v1.09l-1.8.87-1.29-.01v2.53l1.1.92-.2.28.02 2.16-.45 1.02.77 1.24h1.22l.49-.43 2.2.17 1.91-.17-1.03 1.84 1.15.7-1.4 2.1-2.98-.15.28 1.28-2.56.18-.5.71-.08.73-.74.1-.57.75-1.12.29-1 1.6.17 1.35.55 1.74 3.53-2.18v.66l1.87.01-.14 2.56-7.77 2.15-3.32.86-.18-.37-1.37.7-9.46 1.78-11.6 3.2-.52-.88-.23-1.39.17-.66-.57-.34.1-.68-.6-.8.16-1.48.37-.26-.17-.98.41-.5-.04-1.58.32-.6.4-2.33-.64-2.21.48-.22-.19-1.24-.5-1.68-.4-.67.9-1.01.22-1.44-.04-2.11-.47-.45-.13-1.31.38-1.02-.87-.35-.27-1.7-.5-1.17.07-1.5.55-1.02-.16-.98z"/>
    <path region="11" short-name="State Senate District 003" long-name="State Senate District 003" value="1" d="m59.6.21 13.25.03L102.73.2l18.95-.02 12.14-.01 22.92-.03 18.77-.02.19.1 9.14-.04 22.35-.11 1.4 1.6-1.11 1.48-1.18 2.95-.03.9-.4 1.4-1.44 2.6-1.3 1.34-2.95 3.6-.98 1.41-1.17.68-.65.96-.63 1.62-1.71 1.49-1.3 1.34-.56 1.06-1.54 1.91-.73 1.22-1.56 1.43.01.4-1.03 1.47-.88.85-1.1 2.67-.16 1.22-.57.38-.97 1.21-.6 1.52-1.57 1.5-.52.08-.48 1.36-1.16 1.96-.82.68-1.6.17-1.16-.35.62-1.54H176l-1.71.55-4.2-.04v-7.73l5.32-.03.01-8-29.1.03-12.47-.07-.08 7.83h2.3l-.59 1.22-.62.48-1.1-.03-.1 9.44 1.13.3 1.24-.27.13-.43 1.35-.22.35-.45 1.3-.47 1.09-.11 1.08.52.7.75.77-.09 1.13.4 1.13.85 2.33-.09.75.23 1.6-1.18.46.23.92-.73.66.1 1.5 1.93 1.04-.08.5.32 2.04-.01 1.83.73 3.18.06-.02.99.57.85 1.84.58.84-.65 1.15.03.91.59 1.36-.34.44-.86 1.86-.78.67.62 1.73-.36 1.46-1.21 1 .62-.3.7.54.88.96-.34.6.21 1.06-.2.8.87-1.36.7-.55 1.1.57.92.17.83h.53l.77.8 1.11 3.07-.22 1.02-2.03 5.71-.38 1.52.01 24.5-.71 1.18-1.93 1.03-.7.88.73 3.63v23.55l-.31 1.01-2.27 3.41-.3 1.03v14.64l.12 1-.43.75-1.08.76-.84.06-1.33 1.48-1.12-.27-1.31.75-1.32-.58-.47-.46-1.04-.12-1.91 3.17-1.8-.12-1.64 1.92.85 1.62.4 1.82.65 1.81v1.87l-.22 6.5-.6 2.74-.22 2.82-.9 4.92-.97 3.15-.13 1.08.36 3.1 14.92.03-.07.4.11 15.4.03 7.11.06.78.05 14.02-1.89.07-.36-2.39-4.98.53-2.29 3.71-.6 1.22-1 1.28-.83-.18-.57 1.46-.66 2.78-1.48 2.51-.48 1.48-.62.6-1.46 2.41-1.58 2.85-1.2 2.58-1.74 3.17-10.93-.17-14.3.03-8.08-.05-6.9.05-.04 1.22 1 .01.14 2.75.05 5.15-.12 2.52-.43 5.24.17 2.37-1.3-.1.14 2.57 2.63.17v.56l1.44.84.8.11 2.28-.58 1.99.14v1.49l-2.9.01v1.31h-2.3l.01-1.32-5.2.05-.37-1.17-2.05-.08-.04 1.84-.47.17-.9 1.27-.01.56-.85.01-.52 5.17h-2.57v2.62l-1.97-.01v1.2h-.65l.01-1.2-1.29-.09-.02-2.53-3.84.03-.02-1.24-1.32-.02.04 1.3-1.24-.01.14-2.37-2.67-.03-.08 2.4-4.38-.08.38.78.06 1.03-.88.4.75 1.51 1.29 1.02-.02.43 1.45.45.07.84 1 .44-.38.69-.65-.5-.76.11-1.06 1.47-1.02.29v-.72l-.72-.09-.9-.66-.1 1.15-.65.88-.95.1-1.03.67-1.69.14-.05-5.22-2.48.04-.17-2.88.5-.44 4.08-2.83 2.55-.92.39.48.35-6.29 1.77.06.78-.38.2-.84h1.25l-.01-1.29-1.27.03-.02-1.38-2.64-.17-.02-7.3.06-4.44h-2.54v-7.84l-1.26-.02-.04-1.1-.92-1.52-2.52-2.25.78-.81.23-1.13.87-.82.57-1.04.28-2.05-.85-1.5.33-1.75-.55-.85.38-.95 1.43-.76-.04-1.12 2.7.07 1.5-1.02.9-.82 1.93-.97.05 1.2h.64l2.03-.8 1.34.26.8-.88h1.68l.21.6 2.7.2.7.5 2.44-.24-.13 1.07 4.23.93 3.5.6 3.92.08 2.57-.47-.1-.74-2.7-.72-.9-1.11-4.64-2.12-1.82.22-.86.55-.77-.93-.26-.94-.1-3.4-.9-1.2.38-1.82-1.17-.1-2.02-1.7-1.1.07-2.1-2.17-1-1.25-1.8-1.1-3.14-3.38-.82-1.39-.5-1.33v-1.99l-.3-1.77-.18-8.32-.27-6.32.29-2.5h-6.9l.67-1.17.96-.72-.14-.62.3-1.86.32-.4-.06-1.03.7-.7.78-.23.48-1.03-.26-.67 1.1-.48.2-.8-1.94.4-.99 1.2-.66.24-.74 1.67-.3-2.04.16-1.42.74-.82-.11-1.59.35-1.28 1.81-.56.9-1.11 1.16-.49.8.27.82-.52.01-.96.42-.46.71.53 1.15-.5.72.7.68-.44.74.03 1.1-.6.88.18 1.63-.78 1.57.37 1.44-.47.97.12.24-.63 2.03-.36.77.73.7-.7 2.81-.97-.23-.42 1.93-1.29.3-1.01.53-.29.95.1 1.01-.4.73.17 1.15-.63.19-.46 1.79-1.36 4.77-1.2 10.16-2.45 1.1-.2 1.4-1.17 1.54-.58-.04-2.23 1.3-3.4-.36-1.6-1.6-.56-.63-1.19.6-1.74.1-.79-.42-1.33-1.26-1.58.45-1.23-.09-1.12-.79-1.41.47-1.72 1.07-.77 1.8-2.88-.78-2.7-.68-.93-.1-.65-.94-1h-.58l-.56-.87.2-.87-.7-.97.57-.99-.32-1.53.13-1.22-.86-.79-2.03-.14-.44-.43.29-2.38.62-.67-.01-1.05-1.25-.75.07-1.53-.6-1.05.52-.34-.04-1.26 1.18-.82 1-.98.1-1.32.85-.95.5-.9-.37-1.01.53-.11-.06-1.63.7-.8-.53-.53.04-.65-.95-.8-.2-1.63.81-1.43-.05-.63-1.06-1.39.5-1.79.74-.87-.85-.72.76-1.88v-.99l-.52-1.4-.48-.52 1.29-2.22.2-1.24-1.15-.47-.6-1.88.49-1.25.1-1 1.35-.8-1.05-.4-.1-.8 1.1.06.02-1.4 1.55-.59.01-1.2.85-1.14 1-.56 1.35-.18.23-.45-.76-.54.49-.78.93-.42-.58-.6-4.13.34-19.75 6.37-25.32 8.28-10.57 3.45-15.66 5.1V22.92Z"/>
    <path region="12" short-name="State Senate District 025" long-name="State Senate District 025" value="1" d="m544.38 213.15.09 2.2v14.1l.7 14.27-.3.18v10.67l.06.26v22.95l-.15-.93-1.13-.08-.83-.87-2.29.2-.63-.41v-1.27l.37-1.4-.09-1.08-.36-.38-1.07-2.4.22-1-.16-1.34-.85-.5-.58-.83.12-.6-.78-1-.9.3-.27.9.36.35-.87 1.1-1.34.4-.28.8-1.2.4-1.9.1-.73.92-.6.28-.93-.67-.05-.9-.56-.8-.95.42-1.7 1.27-.72 1.96-2.2 3.65-2.25 1.9-1.23 1.3-1.2-2.19.11-.93.73-1-.07-1.03 1.96-6.36h-1.2l-.87.46-.7-1.45v-.7l-.96-.68-1.81-.34.15-.5-.37-2.66.14-.82-.98-.84-.52-2.03-.53-.52-.13-.93-2.56-3.13-2.72.02-.55.53-1.3-3.25 1.29-.4.01-2.27 1.3.21v-2.67h1.24l-.06-1.5 1.72-3.06-.02-2h-.51l-1.96.78-.14.57-1.18 1.01-1.38.77-.95 1.07-1.18.56-3 .81-1.33-.8-1.52-.67-.86-.06-1.35-.95-1.15-.4-.58-1.48-1.32-1.36-1.6-.01-.79-.6-.72-1.11-.44-.14-1.24-1.89-.74-.83-1.28-1.93-1.94-1.18-4.01-1.82-.88.22-1.29.81-.57 1-4-8.19.84-.24 1.15-1.67.64-.65-.15-.83.64-1.69 1.08-.23.68-.47.34-1.02.14-1.43 1.34-1.31.22-.47 1.72.34 2.11 2.44 2.06.97.72-.42h.8l1.58.58 2.25-.45 1.99-1.46.82-.16 2.53.85 1.72 1.11 1.51-2.67.13-.8.8-.7.56-1.32.7.52 3.96-.15-.72-1.15 1.52-.4 4.98.05 2.9-.12.02 3.94 7.9.07v-4.53l1.37 1.53 3 .08.8 1.27 1.33.54 1.07.05 1.73.5 1.42 1.23 1.33.5 1.2.16 1.1-.42 1.01-1.87.48-.3.93.5 1.3-.8.57.44.33.84 1.37.63.97.2z"/>
    <path region="13" short-name="State Senate District 005" long-name="State Senate District 005" value="1" d="m454.25 1.1 6.77.06 6.5-.07 6.9.03 14.8-.12 13.66-.1-.09 1.52.33 1.92.63.94.44 2 1.36 3.63.45 3.23-.12.42 1.5 3.3.52 2.94-.3 3.73.15 3.39-.24 1.77-1.45 4.76.35 5.32.3 1.6.02 1.1-.34.6.27.94-.25 2.28.3.78.15 2.73.25.97-.53 1.47.4.7-.08 1.58 1.15 3.28v2.12l.32 1.02.05 1.14h-2.33l-.01 2.6.4-.34 1.33-.08-.1 1 .2 1.75 1.1 3.5-.1 1.13.13 1.57.8 2.98.43 1.15.41 3.58.42 2.42-.7.62.39.97-.15.99.22 2 .28.28 1 2.86.4 2.32-.1 1.82.3 1.54v1.15l-.93 2.86-1.06 2.2-.45 2.79.32 2.16-.11 2.01.34.5-.14 1.06.11 2.35-.75 2.17v.43l-1 1.78-1.89 1.33-1.06-.02-.37.44-1.34.44-.34.8-.96.48-1.06-.1-.94.68-1.26-.22-1.3.44-1.82 2.54-.2.96-.89.46v.97l-.35.46 9.58 3.9 19.8 8.14 2.75 3.58-.34-.02-1.6.87-.78.1-.78.64-.85 1.29-.03.57.75 1.28.13.81-.4.41-.28 1.9.66.95-.12.68.78 1.58 1.73 1.97-1.07 1.34-1.35-.12-1.69-.43-2.04.43-2.78-.98-.62-.44-1.78 1.08-2.03.33 1.74 1.36 1.09 1.3 2.48 1.88.86 1.05.3.8 1.13.7.03.73.64.92.43 1.52 1.41.66.55.58-.12 3.25-1.04.57-2.55.64-.78.53-.47-.55-.93-.02-1.09.65-2.4-1.41-.67.09-1.55-.23-1.52-.59-.95.87-.89-.37-.23-.48-1.08-.04-1.26.83.09 1.4-.72 1.3-.12 1.9.1 1.15.39 1.56-.2.86 1.59.07-1.46.85-1.28.24-.24 1.53-.4.26-.08.96-.95-.1-.73.68-1.44 2.28-1.02.44-1.27-1.22-2.08-2.89-.34-.18-.03 9.93-13 .03-14.9-.02v7.05l-.41 3.38-.12 5.4-1.71-.7-.69-.94-.76-.13-.5-.68-.9-.59-3.14-.16-1.97-1.38-.7-.14-.26-1.52-2.53.56-1.33.49-.86 1.62.19 1.38-.13.83-.63 1.14-.36 1.76-1.66.31-.54-.24-1.68.6-.43.58-.9-.4-.44.23-.01-21.76.03-1.98 2 .03-.05 1.3 5.26.02 2.35.15 2.7-.12-.2-1.1 2.43.02-.03-2.7 5.27.12v1.31l2.34-.15.23-1.24-.08-1.28v-3.81l-11.95.04-7.65.14 1.02-.8 1.85-.63 1.05-.51.6.18 1.16-.4.35-.57 1.54-.03 2.6-.98.12-.51-.36-1.02.28-1.18-.72-1.8-.93-.46-2-.6-.42-1.13.9-2.3-.57-1.76-.45-.57.48-1.96-.43-.77-.08-.97-.04-5.18-.22-1.69.24-1.35-.07-.8-.97-1-.01-1-1.56-.2-1.61.96-.71-1.07-.54-.3-.32-1.53.25-1.13.7-1.06 1.14-.73.67-.86.7-1.86.49-.44-.27-.72-.6.04-.54-.77-1.07-.02-.25-.54-.82-.43-1.8-1.58-.55-.26-.31 1-.81-.6-1.33-.55-.86-.07-.15-.63-1.6-.47.75-.86.6-1.1 1.3-.28-2-2.47-2.3-6.15-.77-.61-1.92-.7-1.5.13-4.89-2.27-.71-.9-.98-2.16-1.81 1.03-.72 1.27-3.03 2.6-2.14-.13-.49.47-1.15-.3-.17-.48-.93.05-1.25-.92-2.12-.56-1.66-1.38-.82-.19-.67-.78-.99-.45-1.47-.04-.24-.88-1.39-.57-.4-1.02-1.92-.1-.43-1.84-.83-.67.5-1-.6-1.21.02-.93-.52-.33-.61-1.03.05-.7-.5-1.42-.72-1.42-.37-1.53-.54-1.07v-1.2l-.35-.59.48-1.81-.24-.93.6-.3-.6-2 .05-.8-.67-.76.05-.77-1-.56-1.2-1.32-.36-.73.07-1.38-.61-.35.26-.89-.3-.51 1.26-.84-.06-.9.38-.72-.52-.65-.92-.18-.3-.68.34-1-1.52-.43-1.68.57-1.03-.34-.24 1.16-1.43.45-2.12-1.11-.6.1-.44-1.5-1.67 2.11-1.72.61-.6.46-1.75-.8-.24-1.18.31-.98-1.11-4.74-1-1.79-1.82-2.25-.86-1.94-.69-.69-1.86-.68-1.01.5-.9-.15-.64-.6-.4-1.64.13-.8 5.13-4.12.35-2.6.91-2.14-2.56-5.04-.91-.92-.16-1-.86-1.3.26-1.67.8-1.2.58-1.26.2-3.13-.14-1.85-.5-1.59-.42-.7.26-2.87-.03-2.52 2.08-.32 2.18-.13 1.82.59.76.45 1.88.43.91 1.18.07.84.92.81 1.8.7 1.25.68.94 1.05.84.2.5-.5 2.09.31 2.6 1.14.51.47 1.64.58.64-.1 1.62.26.7 1.01 1.62.93 1.88.23 1.14.49 2.03.43 1.9.04 1.75.5 1.08-1.12-.35-2.03.08-1.28-.78-.64.65-2.03-.01-1.83.96-1.03 1.9-.5.68-.84 1.76-1.43.68 1.07.17.82.77 1.08 1.24 1.09.28.93 1.22.23.26.93.64-.25.09-.88-.25-1-1.26-2.85-.19-.75.52-.4 1.05-.16.56.22 2.17-.16.83.74.67-.07 2.14.42.38-.56.95-.52 1.1 1.25.48.95 1.25-.07-.21-1.71.18-1.14.48-.56.68.32 1.92-.8.88.03.76-.56.04-.64 1.77.3 1.74 1.12.5.1.3.87 1.16.26.57.58 1.43.48.2.85 1.51.82 2.04 1.84 1.22-.49 1.03-.7-.04-1.35 1.3-.53 2.16-1.43.05-.58 2.06-.18 1.92.85 1.6-.27 2.7.16 2.11 1.1.66.01.25.9 1.62-1.52.24-.66.9-.8 1.45-.14.44-1.77.77-.11 2.65-1.84.6-1.13 1-.16.9-1.33.01-.54 1.41-.14 2.95-1.35.83-.08-.98-1.46-2.72-.67-.89.15-.32-1.01.34-.5-.57-1.12-.48-1.56-1.15-.48h-1.23l-1.49.64-1.2.11-.78-.37-1.1.37-1-.4-.73-1.72-.4-.32-.97.29-1.43-.3-1 .47-.26 1.1-.55.8-.27 1.18-.95.44-.96-.22-.95.43-.72.73-1.27.01-.26.71-1.47.64-1.44-.1-1.24-1-.31-1.56.2-2.4-1.72-1.23-.25-1.44.42-.68.02-1.33-.94.06-.78-.33-.59-.99.14-1.2-.19-1 .3-.9.23-2.09.36-.58 1.02-.61 1.07-.97 1.09-.5-.1-.86 1.05-1.58z"/>
    <path region="14" short-name="State Senate District 007" long-name="State Senate District 007" value="1" d="M794.4.73 834.27.4l38.3-.18 9.29-.04L918.66 0l22.42.02v16.16l.04.37-.03 26.62v8.02l-.05 8.05.05 13.18-.06 13.82.02 4.75h-5.76l.03 33.02.05 16.14.08 31.4-.07 39.19-.13 2.24.04 5.18.11.87-.02 9.38-.04 21-.07 40.81-.05 25.87-.06 1.57.06 10.37-.05 6.86-.08 3.5.1 2.7v27.76l.01 9.71-.04 8.77v31.79l-.07 3.2.03 5.91-.08 27.83.01 7.7-6.88.02v2.55l-7.67-.06.01 2.01-7.01-.5-4.26-.35v1.46l-4.21-.05v-7.71l-5.14-.07-7.65.02-5.56-.04-14.99.01.1 3.44 2.46.18.02 16.94h-1.14l.02 1.9-.7.71-39 .05.05-15.39.03-23.19.2-14.78-.18-.03-30.54-.04h-11.02l-15.25-.02-.04-30.9-.01-16.27.03-14.88h.4l.16-22.95 1.63-.03 16.56-5.44.78-.2 5.76-1.87 4.18-.55 1.76.13 3.36 1.32.9.13 3.46-.34.85-.46 5.34-3.56 1.32-.63 2.56-.3 8.1-4.64v-3.21l2.57-.02.01 1.14.7.2 1.25-.7 6.84-2.17 13.36-8.46 14.67-7.16 1.88.27v.24l2.42.2 2 .51.52-.39.85.25.22-.56-.26-.84.7-.42.86-1.11.07-2.12.4-1.24.68-.07.64-.8-1.31-.46.63-1.98-.04-.49.73-.89-2.56-.16v-.32l2.27-.54.01-2.1.32-1.04 1.01.13.96.44.5-.6-.37-1.83.57-1.21 1.17.3 1.21-.97 1.37.54 1.57-1.2 1.92.94.34 1.09 1.91.23 1.42.37.38 1.48 1.45-.17.8-.5.88-.17.04-2.81h1.33l-3.67-1.29-.89.04-1.86-.27-.85.16-.41-.7-.15-1-1.73-1.92-1.13-.48-.89-.77 2.82-2.69-1.36-1.07-1.4-.18-.25-.67-.45-2.4.49-.9-.21-.94-1.17-.62-1.21-1.16.04-.67-1.28-.91-.2-.79-.93.55-.03 17.53-1.34 1.29-19.3.01v-18.2l5.17-.04.13-10.37v-2.5h15.38l.01-16.02h.62V224.7l.04-42.94h1.43l.02-15.77-57.43.1-5.23-.04.08-15.94-31.35-.1v-19.29l.03-12.34h.1l-.03-18.43-.04-21.15-.08-20.2-.05-3.43h.28l-.05-6.04-.03-9.9V26.3l.04-7.89z"/>
    <path region="15" short-name="State Senate District 008" long-name="State Senate District 008" value="1" d="m588.45.8 24.56.04 4.48.09 9.56-.04 5-.01 13.36.49 4.18-.1 35.76-.03 16.1.01 2.84-.04.14-.14 15.36.11 26.32.04 12.88-.2 5.18-.04L794.4.73l.02 17.68-.04 7.89v12.92l.03 9.9.05 6.04h-.28l.05 3.42.08 20.21.04 21.15.03 18.43h-.1l-.03 12.34v19.3l31.35.1-.08 15.93 5.23.03 57.43-.09-.02 15.77h-1.43l-.03 42.93-.01 19.34h-.62l-.01 16.02h-15.38v2.5l-.13 10.37-5.18.04v18.2l19.3-.01 1.35-1.29.03-17.53.94-.55.2.79 1.27.91-.04.67 1.21 1.16 1.17.62.21.95-.48.9.44 2.4.26.66 1.39.18 1.36 1.07-2.82 2.7.89.76 1.13.48 1.73 1.92.15 1 .41.7.85-.16 1.86.27.9-.04 3.66 1.28h-1.32l-.05 2.82-.88.17-.8.5-1.45.17-.38-1.48-1.42-.37-1.91-.23-.34-1.09-1.92-.94-1.56 1.2-1.38-.54-1.2.97-1.18-.3-.57 1.21.38 1.83-.5.6-.96-.44-1.02-.13-.32 1.04-.01 2.1-2.28.54.01.32 2.56.16-.72.9.03.48-.63 1.98 1.32.46-.64.8-.68.07-.4 1.24-.08 2.12-.87 1.1-.68.43.25.84-.22.56-.85-.25-.52.39-2-.5-2.42-.2v-.25l-1.88-.27-14.67 7.16-13.35 8.46-6.85 2.17-1.25.7-.7-.2v-1.14l-2.59.02v3.2l-8.09 4.66-2.56.3-1.32.62-5.34 3.56-.85.46-3.46.34-.9-.13-3.36-1.32-1.76-.13-4.18.55-5.76 1.88-.78.2-16.56 5.43-1.63.03-.16 22.95h-.4l-.03 14.88v16.27l-30.72.05.01 15.41-6.41.02-8.94.09.03 15.37-16.1.05h-19.52l-29.62.04.01 3.8.03 41.75-.02-.02-61.44-.01.02-10.33.03-35.63 3.26.03v-33.68l-.07-28.18.01-15.48-.05-31.12h4.69l.28-.66-.62-.93.16-2.13 1.1.06.46-.9 1.11.03.61-.7 1.2-.4.8.06.68 1.12 1.68.82.32-.7.85-.34.44.4 1.6.27.44.47 1.14-.5.18.4 1.25-.04-.43-1.13.46-1.22-1.2-1.74.7-.99-.81-.2.12-1.39 1.35-.52-.86-1.02-.87-.16-.14-.85-.58-.15-.4-1.33.39-1.9-1.5-.28-.17-1.67-1.37-.66.06-1-1.92.35.26-1.1-.1-.67-.95-1.16-.58.06-1.08-.93-.36-1.26-1.04-.78-.91-.35.63-.82-.17-.64.99-.28 1.02-.81-.53-1.76-.9-.1-.42-.93 1.65-1.97-.9-.93-1.07-.48-.62-1.06-.4-.19-.54-1.66-.87-.33-.65-.67-.94-.43-1.88 2.03.32.98-.81.13-.3-.61-2.44-.03-.54.37-.8-.92-.26-2.31-1.5-.89-.45-.62-.27-1.03-7.13 2.73-1.66.04-.62 1.85-.7.7-.84 1.64.51.93.08 1.29 1.33.04 1.86.45-.58.44 1.37.83.21 2.97-.96.25-.81-.18.24 2.07-.17.64.24 1.09 2.08 1.22.98.79-.92 1.18-.05 1.21.72.69-.16.67.48 1.38v1.13l-1.55.05-1.58.68-1.93-.07.51-1.15-.4-.41-1.84-.37-1.58.68.38 1.36-.08.65-1.68-.35-.97.75-.76 2.65-1.1 1.6-1.56.7-.93-.7.25-1.07-.72-1.23-1.23-1.6-1.03.53-1.55.35-.43.52-.72.08-.92.53-2.1-1.31-1.1-1.1-.24-.79-1.2-1.34-.43-1.45-1.46-1.47-1.64-2-.43-.22-2.42.24-.73-1.77-1.37-1.68-.43-1.22-.6-.53-.32-1.66-1.13-1.57-.7-1.5-1.34-.44.02-.74-.7-1.09-1.22-.42-1.89-.09-.94.46-.35-1.17.24-2.8.38-1.67-.58-2.6-.4-.97.06-.91-.57-1.3.6-1.83.6-.46 2.74 1.93 1.18 1.52.83.82 2.15 1.71 2.77 2.6 1.76.54.67-.85.37-1.27-.4-1.47.41-.42.24-1.11-.55-2 .3-1.22-.45-1.19.53-1.52-.05-1.9.36-.4 1.12.18 1.62-.39.75-.54.43-.94.59-.3.28 1.07 1.33 1.5.02.81 1.26 1.46.3 1.05 1.42 1.41.85.2 1.25-1.76.53-.22 1.87.97.33-1.1-.11-10.74-3.49-3.66.05-23.28-.66-.22-1.29-1.3.29-1.15-1.13.3-.24-1.1.2-1.22-.83-.92-.92-.04.36-1.62.58-1.06-.27-1.23 1.19.99 1.25-.34.66-1.3.83.1.04-21.81-15.31.02-1.21-.1h-14.91l.44-19.38.6.26.85 1.54 1.85.22 1.04-.26 1.18.14 1.3.95 1.13.17.44.62 1.2-.22.96-.43.11-1.22.5-.37 1.3-1.55 1.23.44h.7l2.25.7.9-.14.8-.45.49.48 1.59.04.75.21.88-.41 1.29-1.68 2.97-1.23.14-.72.7-1.19-.41-1 .56-1.08 2.6-.77.82-.63.65-1.27 1.02-1.3.84-.42 3.9-7.4 4.17-6.63.63-.5.63-1.32.84-1.18-.16-3.04.65-.7.27-.85-.96-.88-.07-1.4 2.27-2.56.52-.23.83-1.16.15-1.14-.47-.98.33-1.42.6-.9-.68-1.03-.27-1.44-1.5-1.27 2.31-1.21.94-1.69 2.26-.47 4.46-1.16 1.93-2.64-.81-.08-.74 1.3-.82-.35.62-.76.01-.82-.58-1.16-1.35-.67-2.97-.04-1.3-.9-.97-1.4-1.43-.76-.48-.67-.7-.33-1.89-.03.08-.72.65-1.35.59-.76-.02-.67-.73-.43-.94.46-3.1-.5-1.77-.04-4.7-.34-1.27-.21-.38-.84-.04-2.3-1.9-.53-1.11-.77-1.14-2.17-.08-.87-.87-.05-1.53.83-1.97-.65-.9.3-.58-.3-.34-.72-.97-.83 1.7-2.93.83-.86h1.74l1.2.35 1.89.2.58.78h3.32l.11-.56 1.77-2.25 1.8 1.55.75.85.83.11.32-.62 1.44-.6 2.62 1.4 1.25-1.27.8.34.73-.38 1.22 1.6.67.2 2.17-.03.93-1.06.9.05 1.38-.8.54-.8.52-.16.24-.88.69-.29.18-.75-.35-1.22.25-.88-.32-1.74-.39-1.07 1-.62.85-2.29.59-.38.1-1.23.36-1.14 1.31-.62.76.04.5-.9-.96-.83-.2-.69-1.52-.94-.13-.86-.85-.22-.08-1.22-.5-2.57-1.24-.93-.2-.69-1.45-.3-.17-.6-1.07-.68.13-1.19.8.28 1.13-.58.93-.1.92-.6-.31-.55.19-1.4-.54-.46-.59-2.68-.82-1.35-.53-.17-.68-.94-.41-1.04.32-1.6 1.02-1.79 1-.5h.65l.4-1.18-.57-.41.06-.68-1.34-2.03.65-.8-.1-.82-.9-1.17-.56-.39-.04-1.72.8-.45-.05-.72.73-.9 1.19-.88 1.27-.08 1.21-.86 1.27.83.67-.1v-.97l.74-1.94.72-.56-.18-1.05 2.28-.78 1.28-.78.93-1.53.16-1 1.68-2.07-.62-.97.71-.99-.59-1.49-.6-.99-.83-.6-2.2-2.06-.18-1.14-.75-.34-2.05.6-.17.93-.9 1.85-1 .6-.32.97-1.19-.18-1.25.48-1.26 1.67-1.59-.73-.15-1.3-2.46 1.2-1.33 1.37-1.64-.06-1.57.15-2.11 1.1-.2.4-1.75 1.68-.9.5-.75.77-3.06 1.03-1.37-.06-2.1-.7-.81.52-1.34.04-2.81 1.2-.72-.62-2.73-.22-.96.34-1.38-1.05-.61-1.84-1.94.02v.67l-1.25-.23-.03-1.43-.86-.22-2.3-1.86-.71.17.1.87-.46.53-.36 1.18-.3 2.18-.63.8-1.26-.22-.17 1.31.48.95.04.94.49.85-.28.54.35 1.13-.27 1.2-.74.78.04 1.08-1.25.54-.98 1.3-.42 1.46-.93 1.26-1.43 1.05-.78.15.07-1.68.48-1.44-.3-2.21-1.46-.97-.7-.15-.4-1.2.4-1.3.7-.57.76-1.54.04-.81.58-1.88.58-.84-.01-.77.57-1.37 1.47-2.17.18-1.5-.38-.79-1.06-1.08-1.01-1.63-.24-.86.5-1.65-.24-1.2-1.77-1.33 1.05-2.03-.31-.45v-1.64l1.02-1.02.43-.83 14.41.04.01-3.14.47-2.79 3.65-9.86.2 1.04 1.39.6.34-3.33.96-.71.19-1.22.9-1.39 1.8-1.58 1.45-.04 1.25.19.37.31 1.54.01 1.64.93.88 1.48 1.54 1 .8-1.46.7-.33.18-.62.78-.32.75-1.03z"/>
    <path region="16" short-name="State Senate District 004" long-name="State Senate District 004" value="1" d="m59.57 86.1 15.66-5.08 10.57-3.45 25.32-8.3 19.75-6.36 4.13-.34.58.6-.93.42-.49.78.76.54-.23.45-1.34.18-1 .55-.86 1.15-.01 1.2-1.55.6-.02 1.39-1.1-.07.1.82 1.05.4-1.34.8-.11.99-.48 1.25.6 1.88 1.14.47-.2 1.24-1.29 2.22.48.51.52 1.41v1l-.76 1.87.85.72-.73.87-.5 1.8 1.05 1.38.05.63-.8 1.43.19 1.64.95.8-.04.64.52.54-.69.79.06 1.63-.53.1.36 1.02-.49.9-.84.95-.1 1.32-1 .98-1.2.82.05 1.26-.52.34.6 1.05-.07 1.53 1.25.75.01 1.05-.62.67-.29 2.38.45.43 2.02.14.86.79-.13 1.22.32 1.53-.56.99.69.97-.2.87.57.87h.57l.94 1 .1.65.68.94.78 2.7-1.8 2.87-1.07.77-.47 1.72.8 1.41.08 1.12-.45 1.23 1.26 1.57.41 1.34-.09.79-.6 1.75.64 1.18 1.59.56.36 1.6-1.3 3.4.04 2.23-1.53.58-1.41 1.16-1.1.2-10.16 2.45-4.77 1.2-1.8 1.37-.18.46-1.15.63-.73-.17-1 .4-.96-.1-.53.29-.3 1.01-1.93 1.3.23.4-2.81.99-.7.69-.76-.73-2.04.36-.24.63-.97-.12-1.43.47-1.58-.37-1.63.78-.89-.19-1.09.61-.74-.03-.68.45-.72-.7-1.15.49-.7-.53-.43.46-.01.96-.82.52-.8-.27-1.15.49-.9 1.1-1.82.57-.35 1.28.1 1.6-.73.8-.17 1.43.3 2.04.75-1.67.66-.25.99-1.2 1.93-.38-.2.8-1.09.47.26.67-.48 1.03-.78.23-.7.7.06 1.03-.33.4-.3 1.86.15.62-.96.72-.67 1.18h6.9l-.29 2.49.27 6.32.19 8.32.28 1.77.02 1.99.49 1.33.82 1.39 3.14 3.38 1.8 1.1 1 1.25 2.1 2.17 1.1-.07 2.03 1.7 1.16.1-.39 1.83.9 1.2.12 3.4.26.93.76.93.86-.55 1.82-.22 4.65 2.12.9 1.1 2.69.73.1.74-2.57.47-3.91-.08-3.5-.6-4.24-.93.13-1.07-2.43.24-.72-.5-2.69-.2-.2-.6h-1.69l-.8.88-1.34-.26-2.03.8h-.64l-.05-1.2-1.93.97-.9.82-1.5 1.02-2.7-.07.05 1.12-1.44.76-.38.95.55.85-.33 1.75.85 1.5-.28 2.05-.56 1.04-.88.82-.23 1.13-.78.8 2.52 2.26.92 1.53.04 1.09 1.26.02v7.84h2.54l-.05 4.45.01 7.29 2.64.17.02 1.38 1.27-.03.02 1.28h-1.26l-.2.85-.78.38-1.77-.06-.35 6.29-.4-.48-2.54.92-4.07 2.83-.51.44.17 2.88 2.48-.04.06 5.22 1.68-.14 1.03-.67.95-.1.66-.88.1-1.15.9.66.7.1.02.7 1-.28 1.07-1.47.77-.11.64.5.38-.7-1-.43-.06-.84-1.46-.45.02-.43-1.29-1.02-.75-1.5.89-.41-.07-1.03-.38-.78 4.39.07.07-2.39 2.67.03-.13 2.37h1.23l-.04-1.3 1.32.03.02 1.24 3.84-.03.02 2.53 1.3.09-.02 1.2h.65v-1.2h1.96v-2.62h2.58l.52-5.16.85-.01v-.56l.91-1.27.48-.17.03-1.84 2.05.08.37 1.17 5.2-.05-.01 1.33h2.3v-1.32l2.9-.01v-1.49l-1.99-.14-2.27.58-.81-.1-1.43-.85v-.56l-2.64-.17-.15-2.57 1.31.1-.17-2.37.43-5.24.12-2.52-.05-5.15-.14-2.75-1-.01.04-1.22 6.9-.05 8.09.05 14.3-.03 10.92.17 6 .06.89.06.32 1.03-.06 7.54.04 9.1-.04 6.49.11 8.98h2.53l-.02 5.7 1.41.76 3.73-.01-.01 1.3 2.56.03v1.3l2.45.01.04-.22h5.15l-.07 2.62 1.95-.03-.01-.69h3.36l.42.9.6-.22 6.6-.04.12.27.02 3.7-2.59-.2v1.71h-2.58v2.6l-2.6-.03.07 2.56 7.7.05-.06 7.77 3.48-.02 1.67.08 7.78.02 11.66.14 22.58.04-.07.34v6.15l-.9 2.43-1.63 2.45-.42 1.2-2.55 4.26-.44.46 2.05 3.23.53 1.23 2.1 2.32v-.93l1.32-.01v-1.3h1.58l1.84.55.17.36-2.72 1.89-.67 1.07 3.15-.02-.51 2.17-.8.74-1.15.34.3 2.3-.35 1.1 8.3 6.69.36.33-3.33 2.6-1.18 2.32-.3 1.23-.91 2.32-.87 2.99.12 2.3.63 2.28.64 1.35.12 1.26-1.08 1.9-.65 1.66-.99 3.36-1.77.72-.69.84-.68 2.48-1.41 1.83-.92 3.1-1.3 1.95-2.21 1.17-.76-.09-.75-.61-1.1.8-1.49 3.45-.54.92-.12 1.26.6.38.8 1.91-.27 3.05-2.87 3.16-1.87 3.03-.56.54-1.88 2.93-.28.75-.83 3.58-.9.7-2.23 2.93-.33.22-2.15.23-3.32 1.1-.25-1.67-1.89-2.24-.76.03-1.54-.43-.68-.37-2.43-.36-1.63-.84-1.9-.58-1.24-.63-2.34-.57-1.8-.62-1.57-.74-.55-.48-.81-.16-1.08-.62-.44.12-1.97-2.13-1.65-.44-.71-.9-2.14.45-1.27 1.3-.76 1.45-.22.92-.62.5-1.68.03v.95h-1.28l-.03 6.43-2.52-.05.04 2.64-12.98.08.03-2.67 2.53.03.05-2.5-2.53-.03-.1-12.92-2.4-.02v2.56l-7.7.02-.03-2.58-2.72.02-.01 2.59h-2.5l.03-2.58-2.55-.08-.05 2.52-1.1-.03-.02 1.32-1.36.04-.02-1.33-5.19-.02.05-2.5-2.58.07-.06 2.46-2.33.05-.11-7.85.02-5.84.77-.6-.16-1.18.82-.28.08-2.33-.36-.76.53-.56 1.9-.4.95-1.16-1.69-3.5-.4-.54.01-.78 2.55.02-.06-2.56 2.62-.01-.03-2.7 2.38-.01-.01-2.59h-2.56l-.26-3.03-2.63.16.1-1.83.03-5.63-.1-.28.22-10.2.03-5.64-2.14 1.61-2.12 1.3-2.3-.04-1.18-.42-2.24-1.12-.65-.56-1.16-.41-2.23-.3-6.64 1.04-1.73.17-1.8.55-4.46 2.23.22 1.91.36 1.19 2.3 1.97.25 1-1.44.2-2.12 1.2-1.4.34-2.1-.01-.62-.24-.77-.86-2.42-.74-.7-.1-1.36-1.08-.96-.56-2.25.1-3.78 1.16-.08-.4v-3.96l1.35-.05.72-1.14-.1-1.36.16-1.03-1.43.17.36-.94.85-1.32-.1-1.5v-5.26l.39-.52-.45-.78-1.1-1.16-4.04-.02-7.99.04-16.92.18-.01-13.3-.1-20.3.03-25.93.04-18.98.01-14.53.02-19.95v-13.25l.02-22.14.03-20.63-.06-11.7.05-26.62.03-17.07z"/>
    <path region="17" short-name="State Senate District 009" long-name="State Senate District 009" value="1" d="m404.63 324.94.68-.95.76-1.49-.3-.68h1.2l.03-.7.74-3.26-.13-.27.5.08.43-1.3.75-.87 2.88-2.2 1.57-1.74 5.6-6.4.66-1.82.43-1.47.78.4.75.01-.03-1.03.83-.07-.38 1.67.54-.04.14-.83 1.33.55.74-.04v-1.47l4.72-.01.73-.96.36-.87.88-1.22.62-.04 1-.7 1.11-1.95h-3.77l-1.32-.28-2.8-.3 1.74-1.29.42-.87 1.87-.08-.02-1.83 2.06-.13 3.01 1.09.69.49 1.96-1.88 1.45-.88.28.7.8.19 1.23-.12 1.05.63.99.3.6 1.52.53.65-.04 1.22.43 1.1 3.3.1 2.49.17.5-.44.91.72.8-.05.4.48-.86.8-.38 1.96.16 1.26-.7 2.85-.06 1.1-.33.49.4.58-.88 1.1 1.44 1.4.64 1.55.01 1.1-.49 1.29-.76 1.23-1.24.69-.2.5-1.8 1.36h-.91l-1.45 1.9-.31-.09-.8 1.48-.92-.12.34-.89-1.18-1.93-.37.6-.01 1.16.63 1.68-.75.37.93.68.6-.43.47 1.25-.22.52-8.32-.1h-16.72l-4.44.02-2.06 1.08-.41.44-2.67 1.14-.53.92-.58-.95-1.14 1.7-1.9 2.25-1.68-1.06-.14-.94z"/>
    <path region="18" short-name="State Senate District 042" long-name="State Senate District 042" value="1" d="m732.83 742.49 1.24-.08.17-.87 1.1-.4v1.34l2.47-.02.05 1.91-.04 5.7h3.76l1.3-.16-.01 1.67 2.24.38 2.3.22 1.25 1.69 1.32.21 2.4-.96.06-.66 1.27-.24 2.93-1.13 1.58-.5.91-.86 1.05-.04 1.38-.83.88.15.26.46 1.12.23h2.23l.87-1.65 5.39-.37 1.31-.36.23-.64.42-4.55.86-2.75-.03-3.09.3-.53.12-1.87.36-1.3-.05-1.1.18-1.38 1.7-2.72.17-.91-.01-1.62.23-.92-.24-1.02-.43-.55-.13-.94 2.43-2.14.11-.66h8.26l-1.56-3.35-.42-.43-.88-1.85-5.23-9.55-2.38-6.47-.54-1.34-4.17-7.37-9.06-15.68-.64-1.68-.76-.78-1.95-3.35-1.52-2.8-4.18-6.1 1.65-.05h11.5l17.45.07 19.08.18 25.13.19v18.14l1.36.84 1.29.14 3.3 2.11 3.44 2.57.82 2.36.5 3.58 11.9.06.03 4.58 2.8-.16 1.41 1.08 5.3-.04.53.13.92.77h11.6l.12-6.36 15.1.01 15.11.01h27.24l-.32 17.8-.1 6.74.02 17.36-.05 5.5.03 7.09-.02 20.61-1.23.02-.38-.42-8.8-.03.1-.82-.21-1.71H920l-2.12-2.57-1.21.92-.17.42-17.2-.12-9.08 3.57-.03-9.78V724.87h1.26v-2.52h-1.27v-.71h1.27l-.08-3.15 3.61-2.3.1-.32-5.05-.02v2.54h-1.12v1.87l-1.87.28-.64.57-.04 1.26-20.86-.03-.7.13-4.54 1.68-1.13.63-1.58.6-1.45.32-6.89 2.62-1.4-.93-2.7-2.48-2.13-2.69-.37-1.07-1.14-.28-3.81.98-2.4.21-.26.4-1.05.03-.42.78-2.09-.17-.8-1.17-2.55-2.04-.31-1.23-5.2.02.01 33.84.03 21.22v21.72h13.32l.01 6.22v19.29l-1.63 2.28-1.24.76-1.4.56-1.9 1.3-2.79.8-1.08.65-.94 1.21-1.34.81-.4-.02-2.27-.88-.48 1.12-1.98-.53-9.22-1.17-1.35-.45-1.4-1.06-1.2-.72-1.56-.32-1.02.08-3.84.9h-1.07l-2 .61-.6-.3-1.23 1.41-2.14 1.76-1.27.6-.9-2.34-.52-.48-2.5-.8-2.2-2.27-2.6.94-1.82-1.02-.53-1.01-1.26.02-1.1-.75-1.11-1.53-.87-1.56-1.2-.23-1.63-1.15-1.26-1.48-.68-.31-.76-1-.69-.25-1.69.45-1.88-.1-.86-.28-1.87-1.09-1.69-.02.76-.4.4-.6.02-2.38-.17-.27-2.37-.1-1.5-.67-.55-.55-1.29-1.76-.4-1.4-.64-1.1-1.25-.78-11.44-3.93-1.38-1.12-.61-1.36-.88-.81.28-.68-.3-.9.1-.87.4-.51 1.57-1.05.27-1.12-.88.11-1.3-1.02-1.27-1.53-.3-.8 1.25-2.26.96-.71 1.8-.7.6-1 1.5-1.33-1.33-1.14-1.43-1.99.02-7.65-1.22.1-2.54-.53v1.03l-3 .23-1.48.24-9.56-.12-8.02.02-.17-2.72 1.06-.77-1.42-2.8-.18-2.45 1.29.07.97-1.03.2-4.36 1.64-.1 1.38.29 1.25.05-.03-1.3-3.33-.47-.45-2.06 2.24-.06h5l-.02-1.59.48-.1-.06-1.56-.4-.59.42-.44 2.11-.24.58-.45 3.27.05 3.7-.03v-2.5l-2.5-.03z"/>
    <path region="19" short-name="State Senate District 036" long-name="State Senate District 036" value="1" d="m394.24 821.32.56 1.07-3.29 3.2.82 1.52-1.39.6.22.88-.98.5 1.01 1.22 1.25-.64.58.66.84-.44.68 1.07.6 2.11-2.64.5.44.97-1.88.74-.47.35-.64-1.21.44-1.3-.61-1.09-.75-2.35-1.95.53-1.74-.55-.1 1.3-1.22-.11.1 1-1 .19-.9-1.94-.02-1.9-1.16-2.18.56-3.46-.18-1.35-.63-.63-.86.22-1.04-.08-1.26-.88-.44-1.06.76-.8.14-.65-.11-1.58-1.51.38-1.79.75-1.1.64-1.62-.61-.22.42-.92-.08-.27-.5-1.09-.61.22-.55-1.34-2.8-.34 1.05.3.53-.37.72-.7.4-1.04-.34-.81-1.58-.58-.36-1.72-1.56-1.2-1.32.08-.52-.8-.39.05-.7-1.2.76-1.82-.24-.44.54-1.54-.28-1.58.52.1.62-.34.89-1.71-1.06-1.09-.23-.58-.9-.9-.72-.47.68-.83.6-1.36.32-2.16.02-4.88-8.22-1.48-.58-.56.2-1.45-1.4-.63-1.28-1.7-.45-.44-.97.37-2.24.43-1.35 1.63-1.29 1.46.62.72-.27.3-.84.94.1.63-.35.54.44.75-.5-.08-.76.87.2.95-.61 1.88-.66.54-.62.66.16.94-.33.22-.41 1.53-.97 1.84-2.32.4-.9.15-1.4 1.05-2.26.52.37 1.25-.36.43-1.42-.25-.86-1.75-1.59-1.2-.5-.1-1.91-1.55-.9-1.57.17-1.14-1.24-.71-.24-2.84-.32-1.15.47-1.34-.8-1.04-1.62-6.96.9-.25.09-3.07 2.9-.93.14-1.12 1.08-1.56 1.03-1.98 1-2.32 1.64-1.99.55-.87.58-2.45 1.09-2.68 1.52-.02-1.65.02-30.29h5.85l46.9.13-.95 1.87-2.13 2.09-.82.58.15.48 1.32-.21 1.07.1 2.52-.17 2.8.4 2.17.98-1.24 1.37-.26.75-3.01 4.06-5.58 12.35-.37.7 1.26 1.82 6.55 14.86.15.41 1.97 7.83.36.78 3.49 5.79.27.35 6.6 6.45 1.63 2.43 2.88 3.52.96-.05 2.87-1.52.04.8.92.88.43.75.92.45z"/>
    <path region="20" short-name="State Senate District 002" long-name="State Senate District 002" value="1" d="m207.19.07 4.79-.03H296.54l-.3.72-.7.5-.05.84-.49.44.37 2.26-.25.7-2.43.99-.05.64-1.14.68-.18.78 1.2 1.51-1.07.99.1 1.52.56 1.82.81 1.06-.67.8-.17 1.27-1.4 1.16-1.33.7h-.97l-1.12 1.5-.78.52-.4 1.09-.59.02-.58-.9h-.55l-.06 1.16-1.6-.59-1.04.55-.73 1.37-.36 1.28.08 1.2-1.35-.25-.52.92-.7.25-.97-.68-.28-.74-.82.24-.65.7.06 1.08-.6.66-.83.17-.65 1.15-1.4-.37-1.23.52-.35.75.3.82-.44.9.22 1 .75-.11.06 1.02-1.78-.11-.18.86.66 1.08-.34.4-1.25-.42-.6-.71-.17 23.46h-.6l.02 11.74-.27 5.5-.05 7.66-.98-.67-.4.28-1.1-.77-.96-1.59-1.93-.53-.33-1.6-.58-.4-.17-.75.2-1.36-1.06-1.78.3-.99-.04-1.74-.3-.99.15-1.69-.68-1.65-.68-1.08-1.73-.16.08-.77-1.79-2.2-.22-.93.14-.97-1.08-.58-.93-1.23-.94-.59-2.15-2.47-1-.33-.99.52.94 1.05-.47.74-.93.65-.82 1.54.4 1.25.07 1.51-.79.58-2.34.02-1.14-.94.12 1.34.63.66-.18.85-.65 1.19-.4 1.3-.56.47-.58-.89-.95 1.33-.2 1.53-1.5.78.23.44-.36 1.1-1.46 1.44-1.69.8-.36.85.69 2.84-.35 1.03.77.8-1.96 1.21-1-.32-.5.19-.26.9-.85.35-.47.55-1.27.28-.78 1.06-.48.24-.43 1.03-.98.07-1.06.62-.48.56-1.4-.06-1.46-.66-.64-.51-1.76 1.27-3.66-5.22-5.8-10.22-.54-1.64-.48-.22v-1.84h-1.39l-.01.68-1.77.02-.04-1.92.6-.1.01-2-1.26-.02v.6l-1.48-.08-.05-.67-.56-.56h-.64l-.59-.7.02-1.83-.64-.8-2.66-.02-.03 1.34-.56.02-1.32 1.5-2.33 2.36-1.3-1.21.55-1.66.9-1.45.12-1.34 1.28-2.7-.36-.78.49-1.8.73-.05 1.03.84V54.6l-.47-.42-4.03-.85-1.34-.42.06-2.73.84-.87.23-.94-2.19.23-1.33.78-.9.2-1.2-.58-.21-2.07 1.57-1.88.26-2.25-.43-1.61-.66-.42-2.13-.02-1.6.57-1.73-.14-1.38.54.48-1.36.52-.08 1.57-1.5.6-1.52.97-1.21.57-.38.17-1.22 1.09-2.67.88-.85 1.03-1.47v-.4l1.55-1.43.73-1.22 1.54-1.9.55-1.07 1.3-1.34 1.72-1.49.63-1.62.65-.96 1.16-.68.99-1.4 2.96-3.6 1.3-1.35 1.43-2.6.4-1.4.03-.9 1.17-2.95 1.13-1.47z"/>
    <path region="21" short-name="State Senate District 032" long-name="State Senate District 032" value="1" d="m603.54 712.14-.1-22.56 30.38.1 1.15-.29 13.75-.17v-.78h14.74l45.26.05h7.66l22.55-.17-.05-15.23-.04-5.1-13.88.05-3.77.04-5.07-.03-.03-5.4h-1.24l-.03-1.06-4.1.2h-1.96l-.6-1.97.53-1.35-.04-6.92 3.2.03.5-1.2.86-.63.95-.23 1.68-1.18.25-.77 1.28-1.13h-3.38v-1.27h-.9l-.24-1.28h5.12v-1.19h-.64l-.02-2.87-.6-1.03 2.53.02.03 2.55h1.24l.03 1.59h1.26v.94l10.21-.04 2.57-.57 6.87.27.91-.03 2.66-.52.03 4.12 1.1 2.71.12 1.7.88 1.95.88.32 1.04-.04 1.48-.56 1-.01 3.25 4.68 4.2 6.1 1.5 2.8 1.96 3.35.76.78.64 1.68 9.05 15.69 4.18 7.36.54 1.34 2.38 6.47 5.23 9.56.88 1.84.42.43 1.56 3.35h-8.26l-.11.66-2.43 2.14.13.94.43.55.23 1.02-.22.92.01 1.62-.18.91-1.69 2.73-.18 1.37.05 1.1-.36 1.3-.12 1.87-.3.53.03 3.1-.86 2.74-.42 4.55-.23.64-1.31.36-5.39.38-.87 1.64h-2.23l-1.12-.23-.26-.46-.88-.15-1.38.83-1.05.04-.9.86-1.59.5-2.93 1.13-1.27.24-.07.66-2.4.96-1.3-.21-1.26-1.69-2.3-.22-2.24-.38v-1.67l-1.29.17-3.76-.01.04-5.7-.05-1.9-2.46.01-.01-1.34-1.1.4-.17.87-1.24.08v-5.05h2.5l.04-7.59h-2.53v.7l-2.49-.12-1.23-.67-2.6.04-9.02-.01-1.23.18-3.47-.14-2.24.01 1.19-1.6 1.74-1.9.47-1.62v-2.49l1.25-.02v-3.34l-42.43.14-.09 73.24v3.53l-44.8-.03v.32l-29.86.01.08-14.87h.22l-.04-24.97.18-15.56-.18-4.89-.04-16.57 5.32-.02z"/>
    <path region="22" short-name="State Senate District 029" long-name="State Senate District 029" value="1" d="m344.28 486.76 24.89-.07-.03-10.69 8.4-14.77.12 1.63 1.04 2.16 1.43 1.01 1.5-2.41 1.09.47 1.24.19 3.21-.23.17-.5-.34-1.06-.49-3.6.8-1.5.1-.65-.98-2.29.3-1.49.68-1.45.19-1.08.71-1.47.05-1.17-.34-1.32.21-1 2.8-1.91-3.64-1.89.78-5.3-.25-.83.26-2.35.35-.5-.22-1.58.25-1.1-.2-1.3.27-3.07-.05-1.6-.47-.91-.52-2.2.12-1.63.83.02v1.1l2.05.19.6-2.6.44-.96.38-1.58-.78-.88.62-2.28.02-.93.7-2.06-1.33-.57v-.55l.71-1.22-.12-.81.6-1.01.77.33.25-2.77-.18-3.43-.8-.03.2-1.4 3.12.66.68-3.6-1.15-.84.57-.87-.06-.94 2.23.02-.2 1.29 1.34-.01.2-.42-.69-1.89.33-1.4.43-.41-.2-2-.64-1.96-.08-.88.64-1h4.67l-.46.98.6 3.08.62.82 1.08-.22 1.02.46.22 1.1-.53 4.43 5.34.01-.02 2.42h-3.08l.38 2.6-.92 1.1-.74.38-.43.82-1.55 3.82-.18 1.35-1.35 12.03-.13.83-1.56 1.37-3.22.52-.67.83.27 1.98-.58.51 16.98 21.18 4.44 5.14.23 1.12 1.82 1.8 2.03 2.21 2.07 4.23.6.7 1.35.4.39.57.98 2.7.27 1.46.6.2 2.92-.32-.22.75.08 1.02-.2 1.01.14 1.64.44.82.5.12.44 1.45v1.07l.33 1.22-.43.6-.78 2.18v8.67l.27 1.66-.64 3.04.1.31 2 1.92.4 1.21.06 10.47 1.36 3.28.87 1.73.18.87.01 6.26-1.07 1.8-1.29 2.78-.09.66v9.92l-.02 4.8.19 1.22-.18.8-1.05 1.73-1.15 2.2-1.63 1.98-1.01 2.81-.93 2.13.46 1.69.31 2.86-1.05 1.5-2.49 2.1-.46.6-28.81-1.58-1.42-.4-1.72-.3-4.31-2.3-.76-.3-2.78-.73h-1.6l-4.24-1.5-1.7.02-.2-.9.69-.93.02-2.4.29-1.5-1.59-3.23-.14-3.37-1.25-1.36-.24-1.98.92-1.4.37-.9-.65-1.81-.12-1.1.24-1.58-1.17-1.55-.14-1.12-2.06.16-.3 1.28-.97.15-.95 1.12-1.93 3.4-.55 1.15-3.24 2.32-1.32.45-3.88-.06-1.08-.34-.02-19.04-7.6-.02-.02 2.67-7.58-.01.02-5.2 15.19-.01.05-7.7h-15.24z"/>
    <path region="23" short-name="State Senate District 034" long-name="State Senate District 034" value="1" d="m448.82 796.48.03-7.78.05-60.51-.03-8.28 5.23-.06.03-16.42v-11.02l7.17.22 1.58.44 1.96 1.37 2.9.57 1.31 1.26 4.43 2.03 8.56.79.15-1.31.8.29h1.83l.75-.44 1.57.31.42.28 1.39-.05.89-.62 1.12.15.9-.35 6.64-.12.23 1.65.01 1.67 1.86-.06.99.37.06 1.42 5.01 14.76 2.3 6.73.54 1.68.1 4.58 2.3-.01v1.09l2.27-.04.14-.73 1.3.11.26.56 3.92.82 1.25-.22 1.16.44.5-.62-.51-1.16.13-1.66-.5-1.11.04-.49-1.28-2.08-.65-1.47-.56-.16-.08-.7.56-.76 1.07-.2.3-.8 1.83-1.19 3-1.25 2.2-2.3 1.3-.27.28-.4 2.26-.56 1.46.18 1.34-.53 1.57-1.83.07-.77 4.3-.05 13.11-.03 25.06-.16 7.04.18.02.78 1.86-.02 1.28.9.21-1.58 14.13.2.03 7.06-5.32.02.04 16.57.18 4.9-.18 15.55.04 24.96h-.22l-.08 14.88 29.86-.01v-.32l44.8.03v-3.53l.09-73.24 42.43-.14v3.34l-1.25.02v2.5l-.47 1.61-1.74 1.9-1.2 1.6 2.25-.01 3.47.13 1.23-.17h9.01l2.6-.04 1.25.68 2.48.12v-.7h2.53l-.04 7.59h-2.5v5.05l.01 5.02 2.5.03v2.5l-3.7.04-3.27-.06-.58.45-2.1.24-.44.45.4.58.07 1.57-.48.1.01 1.59-4.99-.01-2.24.06.45 2.06 3.33.46.03 1.3-1.25-.04-1.38-.3-1.64.1-.2 4.37-.97 1.03-1.3-.07.2 2.45 1.41 2.8-1.06.77.17 2.72 8.02-.01 9.56.11 1.48-.24 3-.23v-1.03l2.54.53 1.22-.1-.02 7.65 1.43 1.99 1.33 1.15-1.5 1.33-.6 1-1.8.69-.96.7-1.25 2.28.3.79 1.28 1.53 1.29 1.03.88-.12-.27 1.12-1.57 1.05-.4.51-.1.86.3.9-.28.69.88.8.61 1.37 1.38 1.12L754 804.1l1.25.76.64 1.11.4 1.4 1.29 1.76.55.55 1.5.68 2.37.1.17.26-.03 2.37-.39.61-.76.4-.1.23-.02 8.56.05.07-3.07 5.33-3.36 8-4.62 10.9 1.5.63 1.9-.2 1.9.86 3.05-4.03.07-.5 5.05-2.15-.09 5.39-.28.35.25 1.63-.09 6.16-.18.95-.95 2.77-.49 1.93-.17 2.6-.72 1.47-.64 3.26-.7 2.42-.46 1.23.23 2.2-2.1-.22-1.1-.31-4.02-.63-.63-.19-.87-.7-.89-1.05-.28 3.53.09.6.93 3.07.02 1.51-.74 1.12-.55.46-1.46 4.2-29.48-.01-19.65-.05-12.85-.02-.03.47-2.53.05-8.86-.43-12.55-.07-23.07-.03-11.22.01-34.49-.01-12.08-.02-37.65-.15-2.8-.11-15.1-.02-4.68.06-16.32-.06-18.6-.04-10.96.13-18.35.06.78-.87 3.33-6.17-2.8-.01-.38.15-.53 1.18-1.6.13-.6.68-.83-.32-1.54.01-.26-.36h-2.32l-.66-.63.02-7.58-.04-15.06.07-35.65.02-4.14z"/>
    <path region="24" short-name="State Senate District 028" long-name="State Senate District 028" value="1" d="m59.25 773.88 1.79.8 2.57 1.65 5.3 3.95.28.35 3.9 5.77 3.63 3.42 1.86-.37 2.09-.26 1.76-.61 2.57-.63 1.87-.66 1.59-.27 1.97-1.17 3.54-1.36 1.13-.59 1.54-.53 2.49-1.4 1.9.27.86-.4.7.1 1.82-.32-.04-5.38-.36-1.14 1.27.36.42.53 1.08.43 1.02.88 2.42 1.4 2.12.4 1.27-.19.37-.35 2.97-.22 2.15-.92 1.6.2 3.01-.44.76-.39 1.8.32 1.37-.45.42.1.5-.76.8-.39.81-.02 1.05-.65 1.58-.5.88-.6.03-1.43.38-.68.92-.5.17-1.26-.39-.56-.31-1.63.1-1.13.47-.97.99-1.17.7.15 1.24-1.85.25-1-.18-.59 1.07-.79-.27-2.37-.42-.98.24-1.12-.53-1.42.45-1.12.53-.29.08-.73-.25-1.24.8-1.07.17-.72.9-.9.45.19.54 1.32.46-.13.83.66 1.25.06 1.75.73 1.22.33 1.47 1.04.57.18 1.7-.2.87-.67 1.38-.62.87-.6.2-.53-1.36-.65-.39.07-1-.58-.5-.69 1-.58.7-.1 1.23-.67.9.35 2.47-1.36.26-.5 1.57-1.39v-1.11l.48-.9-.8-.32-.87-1.91-.84-1.17.09-.75-2.02-1.76-1.24-1.23-.72-.98v-1.24l-.83-.8-.2-1.42.34-.93-.93-1.4-.7-.43.06-1.04-1.18-1.38-1.14-.56-.36-.69.83-.22.7-1v-.9l.66-.36 1 .41 1.51 2.14.96.32.42 1.45 1.03.34.4.95 1.6-1.09.67.04.9 1.49.78-.55.86.49 1.04.9 1.19-.09 1.83.63 1 .53 1.26-.42 1.28.47.59-.03 1.37.56 1.34.03.44-.78.92-.47 2.32 1.28.45.54.92.48.79.05.9-1.1 1.65-.14 1.46-.45.76.27 1-.08.35-1.28 1.58.1.9.44 2.18-.95-.35-1.29 1.63-.42 1.3.21.4-.28 1.16.42.98.9.42 1.1.57.5-.59.5 1.32.7 1.31 1.18 1.66-.42.58-.71 1.05-.6 1.48-.1-.02.9 1.14.42 1.2 1.1.6-.21 1.16 1.24 1.86 2.33.76.4-.06.97.53.6v.87l1.36 1.26-.17 1.21-1.25.31-.98.93-1.83.63-.34.58-1.3.52.04.97-.46 1.44-1.05-.4-1.21.3-.43.54h-.8l-.26.6.03 1.04.5.58-2.38 1.43.17 1.25.44.8 1.9 1.08.4.66.96-.7.8.18.89-1.27 1.39.38.5.96 1.43.4.77 1.15 1.34 1.53 1.35.43.84.07.9-.39.24.95-.12 1.29-.97.42-.93.02-.68.75-.6 1.69-1.13 1.18.23.53-1.53 1.7.18.57-1.38 2.48.2.67-.05 1.28-.55.36-.03 1.14-.6.26.1 1.02-.6.15.12 1.13-.23.4.67 1.22-.1.85-.55.4.07 1.15.62.99-.01 1.34.51.77.62 1.92-.2 2.82.26.82.5.37.44 1.33.54.81.64.31-.05.65.47.94.05.79.6.7.1 1.34 1.4 1.33.4.64h1.45l11.28 12.71 18.34 20.7 4.91 5.55.39 1.44.54-.55.58-.01.9.67 1.41.55-1.38 1.08 4.95-.5-.1 1.27h2.03l.09 7.45 4.95.04v-1.48l2.47-.39-.02-2.36 2.25.87 2.64.35 11.04-.01 1.2.05 11.19-.06 1.94.2 2.75.46.58-.03 3.72.47 1.76-.34 1.43-.78 1.06-.22 9.52.22.02 3.94-.03 8.7-.03 15.04.17.47.11 50.85-18.33.03H181.67l.04 29.16-.07 19.47v28.44l-72.8.03-11.82.14-10.55.01-27.57-.03-.02-25.21.05-3.34.1-23.47v-27.43l.06-2.44-.05-5.65.07-4.65v-24.56l-.02-2.5.07-10.49.1-58.17z"/>
    <path region="25" short-name="State Senate District 031" long-name="State Senate District 031" value="1" d="m396.71 838.44 2.1-.51 1.37-.9.6 1.39 1.46-.97.75-.13 1.44-1.42.41-1.28.4.09 2.22 7.07.92 1.5 2.69 7.6 1.36-.47 1.9-1 1.85.46.92-.35 1.79-.03.11.78.02 21.06h7.66l6.62.1 3.06-.04 12.43.14-.02 7.58.66.63h2.32l.26.36 1.54-.01.83.32.6-.68 1.6-.13.53-1.18.39-.15h2.79l-3.33 6.18-.78.87-7.35.05-2.54-.06-12.02.07-20.68.1-.14 1-.6.64-1.12.2-.77.7-.44.93.2.6 1.17.96 1-.28.54.23.12.8-.81 1-.12 1.13.33.28 1.19-.53-.21 1.3-1.1.5.17 1.83-.41.83.2.8 1.76.92-2.05 1.34-1.13.42-1.04.89-.68 1.02.03.65 1.04.55 1.09.9.21.47-.82 1.58-.16 1.42 1.19.97.3.74 1.62 1.68 1.28.03.55.33.02.82-.49 2.01.37.5 1.3.02.85.48 1.57 2 .92.04.6-.53.57.38 2.3.65.74.88.91.61.4 1.15.8.48-.1 1.02-.5-.13-10.22.02.6-1.16.9-.9-.8-.88-.3-1.24-1.2-.33-.48-.53 1.23-1.32-2.33-2.76-1.05-1.92-.75-.69-.51.38-.66-.25-.77.62.68 1-1.04.42-.28.75-1.15-.44-1.66-1.13-.2-1.13.91-.94.92-.63-1.82-.03-.75-.15-1.51.06-.66-.17-.57.67-.52-.33-3.83-4.17-.74-.7-3.99-4.33-.82-.78 3.8-4.03.8-.77 1.38-.27 1.83-1.07.9-.36 1.94-.48 1.31.35.51-.41.85-.04.28-.89-.45-.7-.29-1.92.57-.77-.14-.44-.94-.2-.28-.97 3.06-1.47.2.71 2.87-.29-1.36-1.95-.59-2.13.49-.25-.36-1.98.86-.07 1.43-.5 4.26.04.05-3.1-2.4-5.41-4.53-10.1-11.25-18.55z"/>
    <path region="26" short-name="State Senate District 001" long-name="State Senate District 001" value="1" d="m181.48 41.72 1.38-.54 1.72.14 1.61-.57 2.13.02.66.42.43 1.6-.26 2.26-1.57 1.88.2 2.07 1.22.57.9-.19 1.32-.78 2.2-.23-.24.94-.83.87-.07 2.73 1.34.42 4.03.85.47.42v2.06l-1.03-.84-.73.06-.49 1.79.36.79-1.28 2.69-.12 1.34-.9 1.45-.56 1.66-1.27-1.16-1.31.04-1.44 1.07-1.84.74-.91.04-4.25-.7-1.93.46-1.13-.32-.97-.84 2.04-5.7.21-1.03-1.11-3.06-.77-.8-.53-.01-.17-.83-.57-.92.55-1.1 1.36-.7-.8-.86-1.05.2-.61-.22-.96.34-.54-.88.3-.7-1-.62-1.46 1.21-1.73.36-.67-.62-1.86.78-.44.86-1.36.34-.91-.59-1.15-.03-.84.65-1.84-.58-.56-.85.01-1-3.18-.05-1.83-.73-2.03.01-.51-.32-1.04.08-1.5-1.92-.66-.11-.92.73-.46-.23-1.6 1.18-.74-.23-2.34.1-1.13-.86-1.13-.4-.78.09-.69-.75-1.08-.52-1.08.11-1.31.47-.35.45-1.35.23-.13.42-1.24.27-1.13-.3.1-9.44 1.1.03.62-.48.59-1.22h-2.3l.08-7.83 12.46.07 29.11-.03-.01 8-5.32.03v7.73l4.2.04 1.7-.55h1.38l-.62 1.54 1.16.35 1.6-.17.82-.68z"/>
    <path region="27" short-name="State Senate District 013" long-name="State Senate District 013" value="1" d="m418.62 329.6-.7 3.76-.2 1.07-.53.84-3.53 2.64-.73.98-.94 3 1.67-.37.78.08-.06 1.56h-.65v1.12l-1.17.92-.19.98-1.37-.23-.54 1.46.34 3.57v1.23l-1.57-.24.14-.83-.74-.24-.15 1-1.13-.28.29-.97-.26-2.38-.92-.95.32-.37-.39-1.12.86-.85.27-1.38.55.06.45-1.97-1.69.03-.33-.77.2-.9-.85-1.05.01-.48 2.4.3.62-3.03 1.38.19.49-3.09-.89-.12.25-1.4.5-1.55.85-.16-.1-.74-1.22-.22.28-.5 3.92 1.12 1.14.22z"/>
    <path region="28" short-name="State Senate District 011" long-name="State Senate District 011" value="1" d="m392.38 348.58 7.77-2.15-.38 1.24 2.27-.61-.48 1.52 2.82.52 2.24-.63-.33 2.2-1.34.48-.26 1.9-.14 2.86-2.64.01.63-.69-.26-1-.97.07-4.35-.56-1.1-2.36h-.96l-.77-.7-1.23.05z"/>
    <path region="29" short-name="State Senate District 014" long-name="State Senate District 014" value="1" d="m392.9 350.73 1.23-.05.77.7h.97l1.1 2.36 4.34.56.97-.07.26 1-.63.69 2.64-.01.14-2.87.26-1.9 1.34-.46.33-2.2.76-.2.26 2.37-.29.97 1.13.29.15-1.01.74.24-.14.83 1.56.24 1-.16.31.63-.14 2.32-.82 1.58-.41-.07-.9 3.42 1.6-.26.4-.7.68-.4.75.02 1.47-1.28.8.17 1.31-.67 1.43-.3.65-.39.4-.85 1.85.55.57-.01 2.01 1.08 1.49 1.05.42.58 1.75 1.4.34.83.53.32.91 1.3.75.27.74-.33.54.31 1.3-.2.44-.55.72.41 1.72-1.52.9-.52 1.4.14.49-.32 2.29.08 1.38-.13.6.4 1.31-.18.91.14.3-.36 1.84-.35.77.73-.2.97.6.55.33 1.73.99.5.8-1.24.1 1.25-.17.78-.65.96-.05 1.86-1.04 2.39-12.3-.12h-15.2l-13.79.14-9-.01-.02-1.72 1.52-.02-.6-1.48.03-4.8-3.9-.76-.99-5.05z"/>
    <path region="30" short-name="State Senate District 015" long-name="State Senate District 015" value="1" d="m417.92 333.36 1.54.14.49-.16 2.1.27.96 1.03.41 1.54 1.3.17v1.75h-1.3l.02 3.12-2.61.02.02 2.04-2.26-1.07-.48-.05-1.87-.07-1.8-.5-.78-.07-1.67.36.94-2.99.73-.98 3.53-2.64.53-.84z"/>
    <path region="31" short-name="State Senate District 016" long-name="State Senate District 016" value="1" d="M410.8 352.21v-1.23l-.34-3.57.54-1.46 1.37.23.19-.98 1.16-.92v-1.11h.66l.06-1.57 1.8.49 1.87.07.14.36.05 2.59-.04 5.18 3.9.02.03-1.3 1.32-.32h2.61v1.67l1.24.01.69-.38.85.37.34-1.08 2.3-.01-.03 1.52-1.17.2-.06 1.03.86.33.06.7 5.1-.02.05 3.49-.06 3.72-.9.52-1.7 1.52-.73-.4-.43.55-1.31.19-.54-.31-.74.33-.75-.28-.91-1.29-.53-.32-.34-.84-1.75-1.4-.42-.57-1.49-1.05-2.01-1.08-.56.01-1.85-.55-.41.85-.65.4-1.43.29-1.32.67-.8-.17-1.46 1.28-.75-.02-.68.4-.4.7-1.6.26.9-3.42.4.07.83-1.58.14-2.32-.3-.63z"/>
    <path region="32" short-name="State Senate District 017" long-name="State Senate District 017" value="1" d="m418.3 345.1 6.29.01.46-.06-.26-1.22 1.3.01.03 1.3 2.56.08-.02 2.98 2.55.33.32.74-2.3.01-.33 1.08-.85-.38-.69.4-1.25-.02.01-1.67h-2.61l-1.32.33-.02 1.3-3.92-.03z"/>
    <path region="33" short-name="State Senate District 020" long-name="State Senate District 020" value="1" d="m431.15 335.6 1.04.1 1.24-.92-.44-.45-.06-1.3-1.67-.54.13-2.36.7.53 1.1.14 1.07-.43.84-.84 2.48-1.83 1.12-.5.58-1.46.82-.19 2.06 1.07 1.01 1.49.16 1.92-.15 1.67.24 1.35-.18.45.19 1.33-1.95 3.32-.37 1.22.44 1.06-1 .58-1.35.4-1.16 1-.13.97-.88.25-.99-.08-1.03-.53-1.23.03v-2.46l-1.21.3-.7.54.47.47-.42.58-.7.23-.03 1.08.69.57.57 1.11v1.1l-1.18.02.15 1.44-.22.5-2.55-.33.03-2.98-2.56-.08-.02-1.3h-2.14l.52-1.32-.09-.44 1.66-.18-.03-1.92h.57l.12-1.3 1.87-.01v1.3h1.52l.68-.3.01-.99h-.58l-.22-1.28h1.16z"/>
    <path region="34" short-name="State Senate District 024" long-name="State Senate District 024" value="1" d="m500.2 243.1 3-.8 1.18-.57.95-1.06 1.38-.78 1.18-1 .14-.58 1.96-.79h.51l.02 2.01-1.72 3.06.06 1.5h-1.24v2.67l-1.3-.21-.01 2.28-1.3.39-1.28.34-3.53 1.63-.96.69-.56-.26.61-1.28-1.27-.35-.13-.84-2.54 1.03-.53.52-.98-.14-.43-1.18 1.53-.95.01-1.29 1.28-.86.01-.37z"/>
    <path region="35" short-name="State Senate District 012" long-name="State Senate District 012" value="1" d="m407.61 317.6.13.26-.74 3.26-.03.7h-1.2l.3.68-.76 1.49-.68.95-1.53-.5-1.3.57.11.6-.73.35-1.05 1.26-1.37.67-1.1-.92v-2.53l1.3.01 1.78-.87.01-1.1.53-.66h-1.62l-1.81-.68.01-.55.72-.7.34-.76-1.07-.9.07-.63h-1.6v-1.26l7.14-4.18.67-.27.9 1.44.02 1.27.94.54-.06 1.17-.33 1.3z"/>
    <path region="36" short-name="State Senate District 026" long-name="State Senate District 026" value="1" d="m403.44 336.8-.46 1.46-.21 1.72.23 1.18-.11 1.63.54 1.38 1.01.64 1.4 2 .62.51.92.95-.76.2-2.24.63-2.82-.52.47-1.52-2.26.61.38-1.24.14-2.56-1.87-.01v-.66l-3.53 2.18-.55-1.74-.16-1.36 1-1.59 1.12-.29.56-.74.74-.11.08-.73.5-.7 2.56-.2-.28-1.27z"/>
    <path region="37" short-name="State Senate District 018" long-name="State Senate District 018" value="1" d="m418.11 342.16.48.05 2.26 1.07-.02-2.04 2.62-.02-.02-3.13h1.3l-.02-1.74-1.29-.17-.4-1.54 3.1-1.43h1.45l.82.56 1.48-.24v.6l-.69.22-.61 1.8.66-.28 1.92-.28v1.81h-1.16l.22 1.28h.58v1l-.7.29h-1.5v-1.3l-1.88.01-.12 1.3h-.57l.03 1.92-1.66.18.09.44-.52 1.31h.83l.26 1.22-.46.06h-6.3l-.04-2.59z"/>
    <path region="38" short-name="State Senate District 038" long-name="State Senate District 038" value="1" d="m314.4 843.72 14.44.34.42-.01 26.27-3.58.93-.06 14.51-1.95.59-.15 3-1.26 1.21-.66 1-.87 1.58-.63 1.28-1.3 1.77-.92 1.73-.63.99-.19-.1-1 1.21.1.11-1.29 1.74.55 1.95-.53.75 2.35.61 1.09-.44 1.3.65 1.21.46-.35 1.88-.74.67 1.1.7-.14.36.58 1.21-.28.83 2.64.96 3.25 11.25 18.54 4.53 10.1 2.4 5.41-.05 3.1-4.26-.04-1.43.5-.86.07.36 1.98-.49.25.6 2.13 1.35 1.95-2.88.3-.2-.72-3.05 1.47.28.98.93.2.15.43-.57.77.3 1.92.44.7-.28.9-.85.03-.5.41-1.32-.35-1.94.48-.9.36-1.83 1.07-1.39.27-.8.77-3.79 4.03.82.78 3.99 4.33.74.7 3.83 4.17.52.33.57-.66.66.16 1.51-.06.75.15 1.82.03-.92.63-.9.95.19 1.12 1.66 1.13 1.15.44.28-.75 1.04-.42-.68-1 .77-.62.66.25.5-.37.76.68 1.04 1.92 2.34 2.76-1.23 1.32.49.53 1.18.33.3 1.24.82.88-.91.9-.6 1.16-21.7.02v-.03l-35.44.03-1.03.03-43.2-.04-.12-50.85-.17-.47.03-15.05.03-8.69z"/>
    <path region="39" short-name="State Senate District 037" long-name="State Senate District 037" value="1" d="m394.24 821.32 1.04-1.22.35-.06.26-1.04.8-.66h.9l.26-2.21 2.58.02v2.65l3.74-.13.01 2.18 1.4-.52 2.34.09.45.53 1.34.18.93.62 2.72.3.81.5v-9.22l.17-.21 4.67-1.9h.69l1.26.94h.65l1.28-.75.5-.73.9-.35 11.14-.38.5-.16 6.1-3.4.64-.61 6.15-9.3.02 20.2-.02 4.14-.07 35.65.04 15.06-12.43-.14-3.06.03-6.62-.1h-7.66l-.02-21.05-.11-.78-1.79.03-.92.36-1.85-.46-1.9 1-1.36.47-2.7-7.6-.91-1.5-2.23-7.08-.39-.1-.41 1.29-1.44 1.42-.75.13-1.47.97-.6-1.4-1.37.9-2.09.52-.83-2.64-1.2.28-.38-.58-.69.15-.67-1.11-.44-.97 2.64-.5-.6-2.1-.68-1.08-.84.44-.58-.66-1.25.64-1.01-1.21.98-.5-.22-.89 1.39-.6-.82-1.53 3.29-3.2z"/>
    <path region="40" short-name="State Senate District 021" long-name="State Senate District 021" value="1" d="m417.92 333.36.7-3.76.92-4.92 2.51.44.08.33 7.82 1.23 1.19.15v2.12l.25 1.18-.13 2.36 1.67.55.06 1.29.44.45-1.25.91-1.03-.1-1.92.28-.66.28.61-1.8.68-.22v-.6l-1.47.24-.82-.56h-1.45l-3.1 1.43-.97-1.03-2.1-.27-.49.16z"/>
    <path region="41" short-name="State Senate District 010" long-name="State Senate District 010" value="1" d="m398.76 327.89 1.37-.67 1.05-1.27.73-.35-.11-.6 1.3-.56 1.53.5-.11 1.48.14.94 1.68 1.06 1.9-2.25 1.15-1.7.57.95.53-.92 2.67-1.14.4-.44 2.07-1.08 4.44-.02-.53 2.86-.92 4.92-3.14-.06-1.14-.22-3.92-1.12-.28.5 1.22.22.1.74-.85.16-.5 1.54-.25 1.4.89.13-.5 3.09-1.37-.19-.62 3.03-2.4-.3v.48l.85 1.06-.21.9.33.76 1.7-.03-.46 1.97-.55-.06-.26 1.38-.86.85.39 1.12-.33.37-.61-.5-1.4-2-1.02-.65-.54-1.38.11-1.63-.23-1.18.21-1.72.46-1.45 1.4-2.1-1.15-.7 1.03-1.85-1.9.17-2.21-.16-.48.42h-1.23l-.77-1.24.46-1.01-.03-2.17z"/>
  </g>
</svg>