<svg auto-border-stroke-width="1" auto-border-stroke-width-limit=".5" original-source="['https://www2.census.gov/geo/tiger/GENZ2022/shp/cb_2022_us_sldl_500k.zip']" candidates="[{&quot;id&quot;:&quot;0&quot;, &quot;name&quot;:&quot;Democrats&quot;, &quot;margins&quot;: [{ &quot;color&quot;: &quot;#1C408C&quot; }, { &quot;color&quot;: &quot;#577CCC&quot; }, { &quot;color&quot;: &quot;#8AAFFF&quot; }, { &quot;color&quot;: &quot;#949BB3&quot; }]},{&quot;id&quot;:&quot;1&quot;, &quot;name&quot;:&quot;Republicans&quot;, &quot;margins&quot;: [{ &quot;color&quot;: &quot;#BF1D29&quot; }, { &quot;color&quot;: &quot;#FF5865&quot; }, { &quot;color&quot;: &quot;#FF8B98&quot; }, { &quot;color&quot;: &quot;#CF8980&quot; }]}]" version="1.1" xmlns="http://www.w3.org/2000/svg" viewBox="0 0 864.19 1000">
  <g regions="y" transform="translate(-67.9)">
    <path region="0" short-name="110" long-name="State House District 110" value="1" d="m366.68 132.08 1.2-.11.18-.36.9-.31.64-.62.73.52.74-.09 1.38.29.22.84-.55.9v.5h-1.86l-.95-1.01-.7-.28-.75.1zm-67.52 54.85.77-.55.1.76zm-9.72-184.9.55-.77.92-.72 1.26-.54.49.27-2.32 1.5zm-96.8 57.56.82-1 1.02-.31 1.11.05 1.22-.41.95-1.31-.18-.62-.8-.14-.48.6-1.53.66-.44-.52 2.24-1.12.4-.8.2-1.7 1.9-1.1.16-.77 1.06-.88.4-.1.98-1.02 9.06-5.3 7.27-3.58 1.03-.4 1.12-.67.68-.15.8-.75 1.08-.52 3.62-1.42 1.02-.78 1.23-.47.65.2 1.57-.52 1.54-.81.14-.92 6.25-3.6-1.44 2.09 1.49-.46 1.41-.8-.1-.42.77-.4.61.28.57-.45 1.9-.8 1.07-.8.6-1.77.85-1.02 2.14-1.22 3.96-2 1.34-.88 2.13-1.6.15-1.08.83-1.37 3.65-2.1 2.02-1 2.54-.92 1.3-.31 3.39-2.03 2.4 1.56 2.56-.47.99-1.18 1.07-.72 2.4-.63 1.35.14.93-.55 1.73-.75.47 1.72-.17 1.56-2.84 2.5-2.38 1.9-1.8 1.23-2.92 2.3-5.94 4.52-1.05 1.41-.19 1.13.43 1.01-.02 1.44-1.22 1.39-3.78 2.92-1.73 1.09-.28.46-3.3 2.44-2.58 1.4-2.65 1.23-2.3.7-1.43.64-.44.57-.94-.19-.7.61-2.11.29-1.86 1.13-2.72 1.24-2-.18-1.46.57-.67.58-1.86 1.03-.21-.34-.8.1-2.75 1.62.02 1.06-2.42 1.02-1.7 1.1-.3.34-2.23 1.05-1.84 1.02.15 1.18-.36.41.14.97.3.33 2.55-.74.93.31 1.22-.19.19.52.57.11 1.09-.46 4.39-1.46.07.29-.96.65-.4.85-3.48 1.42-.82.54-2.71.9-2.22 1.15-1.87.61-.9.66-1.39.4-.95.05-1.73.72-.23.33-1.08.28-1.34.6-.2.25-2.28 1.05-.93.55-.28.73-.53-.14-1.64.24-.78-.07-1.68.64-.8-.22-1.11-.98-1.12-.1-.28-.29.06-1.23-.67-1.14-1.09-.54-.8.1-2.01-.13v-.59l.61-.47.78-1.25-.11-.36 1.47-1.32.95-1.1-.39-.48-.71.1-1.63 1.42-3.33 1.36zM67.9 266.84l.4-.14 3.08-2.5 1.7-1.01 2.5-1.8 1.04-1 .74-.26 2.16.9.42.05 4.46-2.48 3-.93 1.87-.79 1.02-.55 5.05-1.97 1.29-.18 2.54-.66.5-.02 2.5-.65 3.43-1.26 2.2-.58 2.24-1.09 3.32-2.83 1.22-1.8 1.54-1.29 1.56-.88 4-3.19 7.65-9.13 2.16-1.49 4.36-2.14 3.3-.89.8-.29 3.3-.76 1.41-.12.88.16 1.3-.09 1.47-.4 1.38.35 2.32 1.12.24.6.77.26 1.79-.15 1.33-.54.61-.55 1.26-.46 2.95-.84.5-.33.77.26.94-.13 1.66-.52.7-.42 1.21.28.74-.15.5.4 1.12-.07 1 .25 3.72-.34 2.37-.71 2.34-1.07.48-.3 3.96-1.63 2.1-1.64.76-.44 1.5-.5 1.85-1.35 1.21-.31 2.9-1.93.82-.2 2.3-1.52.98-.88 1.86-2 2.12-3.21.5-1.3.43-.67 1.69-.85.96-1.17.05-.47.61-.82 1.5-1.23 1.12-.26.56.77.74.46 1.34.21 1.7-.1 1.62-.43 1.26-.95 1.3-.78 1.13-.27.64.95.72.17 1.94-.2 1.21-.3 1.55-.77 1.45-1.02.93-.88 1.85-2.65.99-1.8 1.11-2.7.25-.93.02-1.38.35-.08.64-1.35-.13-.53 1.25-1.55.33-.74 1.81-1.14 1.16-.43.67-.6 1.03-.06.55-.47 1.1-1.45.94-1.66.76-.66 1.05-.31.47-.55 1.18-.66 1.57.1 1.5-1.02.79-.93.4-.87 2.23-2.82 3.24-3.02 2.95-2.27 2.01-1.06 1.51-.07 1.53-.51 1.36-1.42 2.2-.37 1.68-.53 1.62-1.48 1.03-1.3 2.98-2.51 2.6-2.58 2.5-3.18.77-2.26 1.22-1.95 1.48-1.45.96-1.18 1.16-1.9.63-.52.63-.03 2.67-2.02.9-.3.9-.9 1.91-.28 1.18-.47 2.17-1.1 2.23-1.38.87-.83 1.1-.8.94-.26 1.47-.16 1.86-.47 1.96-1.13.98-1.04.18-1.04.33-.29 1.44-.34 2-.9.6.1 1.7-.5.13.8 1.9-.36.22-.84 2.43-.34 2.88-.52 2.66.03 1.9-.33.02-.8.84-.16 6.62-.55.34-.12 2.6.16 1.45-.1 3.87.44 1.09.94 1.42.53 1.46-.18 1.49.15.49-.34.02-.59 3.26.3.83-.3.87.09 4.8 2 2.8 1.86 1.25.98.36.5.31 2.15-.41.73.18 1.14.36.5.15.85-.21.77-.96.06-1.18-.26-1.1-.51-.97.12-.83.33-.64.7-.26.74-1.26.27-1.08-.24-1.21.26-1.63 1.18-1.27-.22-.38-.6-.84-.02-.53-.54-1.44-.31-1.05.24-1.7-.28-1.55.62-1.47-.2-3.4.46-1.66.45-.55 1.02-.32 1.03-.06.92.33.97.84.92.8.21.93 1.38.06.72-.88 1.28-1.3-.03-1.1.3-1.8 1.48-.42.1-2.95 2.6-1.9.7-2.24.58-.57.4-1.23 1.43-1.2 1.84-.7.76-.84 1.45-.5.31-.8.04-.92.63-2.12 3.2-2.18 1.44-.98 1.66-.88.58-.56-.17-1.57.59-1.96-.03-.82 1.1-.97.55-1.08 2.04-.33 1.82-.07 2.6.35 1.15.82.24-.04.58-.83 1.04-.84.55-.48-.9-.6-.5h-1.1l-1.5 1.04-.79 1.35.2 1.47-.12.94-1 2.54-1.75 1.05-1.11.8-2.8 1.66-.34 1.16-.06 2.25-.57 2.4-.88 1.98-.05 1.27-.68 1.1-1.26 1.22-1.17 1.77-.77 1.35-1.3 1.13h-1.08l-.74.33-.11-1h-.57l-.83 1.86-.23 3.7-.24 1.22-10.95.08.03 2.3v11.4l-2.29.07-6.82-.06-4.6.02.02 13.7h.27l.02 5.46-.25 1.18-.05 20.46-.06 27.05 6.76.03h54l-.03 13.55-.06 13.55 18.04-.02 9.05-.02-.04 13.57-13.55-.04.14 16.01-.09.82-.03 10.32.08 8.5-.07 4.94 5.18.1-.07 6.4.12 8.97.12 3.56.03 2.89-.45.14-.86-.26-.98.03-.37-.9-.6-.35-1.5-.51-.37-.52.96-.62-.18-.93-.58-1.57-.58-.39-1.48.53-1.14-.04-1.04.5-1.35-.06-.22.91-.96.43-2.15.16-.84-.67-1.7-.22-.99-.88-.55-1.87-.83-.1-1.45-.8-.72-1.52.27-.63 2.37-2.5.55-.28.9-1.4 1.02-.9.67-1.4.55.17.7-1.68-.58-.2-.92-.73-1.25.13-.57-.57-.08-1.35-.48-1.17.14-.85.4-.82.75-.83-.85-.93-1.34-.05-1.2.1-.16-.79-1.41-.62-.77-1.07-1.71-.13-.94-.41-.58-.95-.79-.29-.48-.5-.85-.14-.66.8-1.66.07-.5-.19-1.01.2-1.01-.45-.44-.97.1-.96-1-.12-.48.63-2.6.68-.97.62-.5-.48-1.35-.8-1.19-.1-.69.76-.15-1.4-1.12-.85-1.32-1.18-1.83-1.24-1.33-1-.83 1.31-.8.43-.81-.12-.9.32-.62.59-.66-.5-.34-.86-.83-.24-.74-.81-.87.16-.6-.56.06-.56-.53-.37-1.31-.25-.42.35.02.8-1.32.41-1.15-.65-.63-1.88-.35-.6.03-.94-.36-.32-1.47-.05-1-.26-.94 1.16-1.04.13-.46-.32-1.13-.12-.66.3-.98 1.06-.9.3-.46-1.46-.52-.5-.64.23-.32 1.2-.5.74v.76l-.47.85.31.42-.36.46-.81-.15-1.1.1-.37.47-1.12-.57-1.06-.1-.6.25-.86-1.76v-.88l-.85-1.38-2.76-.72-.9.86-.98-.73.1-.73-1.03-.7-1-.12-1.32.58-.85.58-.51-.44-1.23 1.05-.64-.1-.16-1.21.53-.7-.62-.6-.32.6-.95-.76-.48.58.47.49-1.02.82-.84.14-.6-.88-.57-.03-.78-.48-.76-.08-.92-.96-.34-.62-8.9-5.2-6.27-3.67-10.89-6.42-3.61-.94-4.51-1.3-2.98-.79-2.75-.84-6.15-1.68-10.35-2.92-1.43-.36-11.84-3.3-4.11-1.22-11.3-3.07-3.15-.94-10.46-2.85-15.51-4.37-2.27-.58-20.65-5.8.19-.37-.16-1.63.37-.16-.22-1.34-.45-.68-1.18-1.29-.04-1.14.22-.33-.77-.6-.49-.73-.3-1.47-.68-.34-.11-.84-.41-.41-.09-2.1-.4-.75-.12-1.12-.63-.83-.93-.05.12-1.17-.23-.4.1-.88-1.23-.46-.42-.68-.01-1.46-.9-.57-.42-.73-.01-.58-.66-.92-.52-1.8-.62-.25-.69.29-.3-1.3-.51.43-1.06.35-2.07.16-.14-.63-.88-1.19.23-.9-.5-.52-.67.88-1.23-.43.04.44-2.1.41-.42-.85.36-.34.41-1.37-.02-1.07-.6-.24-.46-.9-.65.07-.56-1.12-.55-.12-.8.3-.11.92-.53.9-.76.24-.36-.37-.7.03-1.42.7-.61.46-.8.19-.72-1.85-.6-.5-.25-1.1-.72-.43z"/>
    <path region="1" short-name="99" long-name="State House District 99" value="1" d="m821.14 654.97 1.38.8.13.6-.84.26-.7-.12.15-.69zm-139-18.46 13.02.05h25.92l.18-2.26-.2-7.75-.05-3.03-.1-13.12-.03-13.1-.08-13.07 19.7-.06 6.5-.08 8.08-.04 4.95-.07 13.02-.02 13-.15 10.9-.14 14.02-.1 12.28-.02h11.12l-.04.49.25 2.25-.1 1.14-.75 4.54-.24 1.76-.04 2.3.28 2.14.44 1.23-.58 1.76-.16 1.04-.69 2.4-.16 2.19.3 2.65-.13.58-.74.84-.4.04-1.47-.35-.7.07-1 .73-1.17 1.5-.8.84-1.08 1.58-1.34 1.1-.54 1.01-.7 2.31-.81 1.24-1.72 1.88-.23-.17.86-1.43.44-.37-.08-.53-.63-.75-.79-.46-1.07-.37-1.78-.19-1.04.34-1.2.19-.92.44-.52.78-1.2 1.05-.1.45-.64.61-.66.96-.49 1.07-.74 2.07-.4 2.5-.26 3.13-.31.92-1.04 4.2-.11 1.48.12.71-.14 2.2.49 3.19-.5.1-1.23 1.84-.87 1.04-.31.97.1 1.45 1.14 3.03-2.3-.8-1-.22h-1.15l-2.8.45-.8.33-1.84 1.38-.88.82v.77l-.34.54-.69.13-.03.44.48 1.8.53 2.65.32.55-.37.43-1.78-.71-.22-.6-.78-.58-1.19.24-1.2-.7-1.28-.28-.98.4-.1 1.73-.77.18-.58.6-1.53-.08-1.46-.49-.82.46-.36-.54.02-.76-.8-.26-.67.04-.56.8-.65.05-.5-.35.07-.52-.73.05-1.23 1.04-.29.76.31.38-.58.54-.58 1.02-.28.85-.44.5-1.09.09-.4.99-.05.6-.62.74-.46 1.68-.1 1.7-.98.05.14.64-.85.16-.25.4-.63 3.22-.1 1.02-.3.58-.01.95.19 1.4-.69.88-.13.46.3 1.63-.11.35.16 1.87-.15 1.28-10.15-.11h-3.2l-12.11-.13-1 .02-4.31-.13-8.74-.13.06-6.51.06-2.88v-3.38l-8.48-.19-.02 2.04-10.82-.07-9.64-.16-5.52.04.05 12.95-13.22.05.1-12.98v-12.99l-.06-6.55-.06-10.92z"/>
    <path region="2" short-name="97" long-name="State House District 97" value="1" d="m742.77 712.38 6.37.1 6.42.06-.14 12.84-.11 6.45 14.56.21 10.68.04-.05 6.45 12.83.01-.08-16.33 1.55.62.71-.68 1.16-.2.48-.65 1.76-1.49 1.37-1.74 1.03-1.08 2.65-3.45.52-.43 1.33-2.27.86-1.07.5-.29 1.01-1.87.83.2.01-.74.51-.58-.2-.66 1.15-1.49.56.16.3-.58.84-.9 1.23 1.33-.05.5-.53.13-.2.98 2.47.01.72-.76.7-1.05.8-1.43.79-.76.2-.66.09 9.12 12.16-.32.33 12.95.36 12.93.37 12.85-12.82.28.14 12.92.05 3.7.04 10.78-13.04.06-12.3.2.02 8.59-3.4.07-.2-1.07h.42v-2.16l-2.16.01-.05.54h-.75l-.23.52.03 4.3-1 .02-.1-.96-.41-1.18-.06-2.2-12.42.2.03-1.03-2.16-.02.06 1.06-3 .02-.16-6.56-.13-12.97-.18-8.14.41.12.66 1.13.86.54 1.5-.57.48.43.3-.74.44.09.7-.45.34.1v.89l-.22.73.26.82h1.64l-.13-3.63-.94-1.92 4.24.02 2.14.17-.05-5.39-7.87-.06.01-7-.3-.89-1.48-1.72h-.7l.43 1.28-.1.8-1.55-.05-.65-.97-.53.37v-1.47l-4.27-.07-5.29-.1-15.77-.19.13-7.52.13-5.42.05-4.3 1.32.04v-1.09l-.61-.02-.7-.77z"/>
    <path region="3" short-name="45" long-name="State House District 45" value="1" d="m620.7 907.48.09 12.66 7.6-.1 5.14.04-.04-7.96.5-.52h2.62v-1.66l.53-.2.5-.9-.02-1.26-.9.2-.01-.39 9.38-.02 12.64-.08 12.62-.01.09 12.74h5.63l.08 2.16 4.24-.01-.08-1.66.36-.44 1.74-.05-.18-12.79.01-12.71 12.75-.07 12.76-.02 7.96.01 4.72-.02v-.37h12.35l-.01 11.23-.83-.54-1.28.6-1.2.06.2-.56-.58-.12-.6.82-.15.62.27.53-.66.68-.63.37-.6-.1-.25.69-.6.51-1.33.55-.69-.26-1.07-.03-.63-.31-.59.63-.55.01-.59.6v-2.82l-12.72-.02-.05 12.77.1 5.29.2 7.42h5.7l6.85-.08.1 12.7-6.17.05-6.2.02-1.6.04-8.89.12-14.52.21-12.63-.3h-8.96l-15.24-.06-8.44.05h-5.18l-8.47.08-4.14.06-12.7.04-.14-12.62-.1-11.65-.07-6.8.49.05.43-.7-.02-1.66-.93.05-.06-4.8 7.16.03z"/>
    <path region="4" short-name="98" long-name="State House District 98" value="1" d="m820.27 688.2.25-.98 1.5.52zm-.01-6.36.47-.39.9-.07.55.8-.67.17-.15.77.12 1.62-1.37-2.4zm-1.22 6.36.25-.96h.56l-.55 1.21zm-.73 13.11.66-.99-.17-.45 1.06-1.52.91-1.13.73-1.88-.23-.32.9-2.03.84.06v-1.12l.76-.8-.16-.26.58-.86 1.08-.56.79-1.7.3-.96.1-1 .5-1.55-.33-.83.58-.7 1.4.16.71-.18 1.12-.75 1.69-2.09.22-.57.83-.56.5-.65-.15-.47.03-1.41-.35-1-1.52-.34-2.13-.21-1.47-.43-1.54.1-.57.21-.79-.57-.1-.57.4-.26 1.45.47 1.22.17 1.02-.04 4.3-.37 1.9-.7 1.44-1.09 1.04-1.04.8-1.03-.11-.63 1.19-1.6.76-1.93-.06-.95 1.6-.08 1.97-.68.92-.04 2.44-.44 1.42.3 1.02-.23.6-.58.62.12 1.41-.23 1.77-.81 2.43-1.73 1.76.43 1.81.1 1.44-.33.78-.43 1.32-1.43.3-.49.75-1.94.41-.58.58-1.57.33.16 2.45-.29 1.2-.26 1.08-.96 1.24-1.49.59-.47.55.02.1.69 1.13.2 1-.6.87-.3.92.04.14.36.87.48 1.21.32 1.2 1.39 1.5.89 1.92.4 2.7.83.67.47 1.4.2.29.6.65.16 1.3.61.53 1.43.55.65.5.19 1.33-.07.68.84.4.16.86 1.6.7.13.52.68.33 1.13.33.34.47 1.26.3.34.36 1.5.36.68.69.49.48 1.32.56.6.07 1.26.65.61.26 1.06 1 1.2-.36.65.07.82.46.88.31 1.64.78.71 1.68 1.22.09.86.81 1.44-.25.41.2 1.25.29.55.8.41.26.57.07.9.32.75.33 1.7.7 1.8-.34.97.08.48 1.01 1.15.11 1.14-.46.5.07 1.4-.2.47.27 1.45.5.64.18.92-.16 1.52.58 2.15-.23.52-.13 1.39.35 1.2-.08.82.27.9-.14 2.6.21.58.02 1.23.3 1.05-.15 1.17.35.88.28 2-.41.52-.03 1.04.34 2.16.38.78.33 1.63.18 1.73.5 1.33-.05 1.47.97 2.26.03.57.49 1.2-.03.93.6 1.08.16 1.83.56 1.15.5.59-.1.44.27 1.76.7 1.15-.05 1.31.54.77.42 1.52-.17 1.29.15.57.07 1.72-.1 1.52.57 2.13-.12.82.11.79-.22.74-.16 2.16.07.69.65 1.54.15 3.25-.32 1.55.45 2.44.06 2.6.18.31-.16 1.47.2.82-13.27.8.57 12.57-6.38.25-9.56.42-4.76.18-17.41.61-.26-9.01-.11-4.95-.08-5.42-12.8.19.08 4.33.43 15.18-6.36.26-6.36.22-.33-13.17-12.59.37-.29-12.92-11.57.22-.14-12.92 12.82-.28-.37-12.85-.36-12.93-.33-12.95-12.16.32zm-1.49-4.42.45-.5.95.61-.72.21z"/>
    <path region="5" short-name="27" long-name="State House District 27" value="1" d="m844.06 926 2.85-.07.92-1.06 1.44-.02-.04-1.33.71.25.6-.31.88-1.6 1.43-.07h2.22l-.4 3.46-.4 5.3.41 1.85.57 3.55.65 1.8-.22 1.13-.67 1.82-.49 2.15-1.14-.09-.33.28-.73-.02-.62.48-.35-.6-1.23.39.37 1.56-.4.16-.54-1.02-.46-.15-.37.57-.48.24-.6-.67-3.63.14.44-.69.03-1.9 1.03-1.84-.19-6.32-.76.01-.1-.81.84-.23-.07-3.21-1.08.02z"/>
    <path region="6" short-name="30" long-name="State House District 30" value="1" d="m773.08 955.85 12.38-.27.16 11.62 2.19-.03 4.27-.13 2.96-.05 2.25-.1 1.1.03.04 2.1 12.58-.2.08 2.16 5.54-.12 2.23-5.4.07.03 1.04.8.84.13.61.56 1.34-.18 1.2.32 1.07-2.57.75.63.89.2.05.57.56.28.7-1.36.64-.13-.25.8 1.02.41-.65 1.02.97-.3.3-.4v-.8l-.45-1.46.1-.75 2.52-.05.02 1.32-.68.7.53.57 1.66-1 .64.73-.84 1.42-.07 1.18-.46.3-.23 1-.25 2.54-.73 1.5-.43.35-1.23.38-1.4-.38-1.37 1.06-.78 1.55-.75 1.07-1.26 3.08-.05.36-1.02.94-.9.12-.68.28-.59.78-.5 3.3.27 1.81 1.41 3.91.13 1.29-.78-.65-.41.1-.07-1.78-.13-.13-2.45.1-.73-.66-.25.47-.84.31.05.88 1.02.84.08.68 1.77.04-.27 1.12-14.02.5-10.8.42-2.55.2-5.86.22-.33-10.7-.13-3.4-4.2.14-.11-6.35-4.12.1-4.27.05-.07-6.3v-5.27l-.05-1.65.04-3.64z"/>
    <path region="7" short-name="38" long-name="State House District 38" value="1" d="m455.84 990.72 5.14-3.54 4.02-3.13 2.48-1.88 1.2-1.24 2.32-1.78.82-1.23.84-1.02 1.97-1.84 3.13-3.42 1.5-2.12 1.08-1.7 1.7-3.48 1-2.71.46-1.65 1.32-4.03.36-.89 3.95-7.84 1.64-3.55 1.2-3 .25-1.25.29-.65 2.04-2.36 3.53-4.74 1.04-1.31 2.14-2.98 2.05-3.04 1.47-2.36 1.68-3.03 2.99-6.39 2.1-5.27 1.26-3.52.44-2.14.93-3.17-.05-1.06.87-1.68 1.62-4.21.5-1.68 1.15-5.35.02-1.18.62-6.13.31-1.6.36-2.55.54-1.56.41-2.32-.25-2.96-.12-3.33.26-1.06.95-2.13.44-1.75.19-1.3.06-.18 8.25-.03.23 12.84v2.48l.14 1.9.14 4.27.08 4.2.06 8.53-.01 4.25-4.22.02-6.18-.06.09 8.6.1 6.57.02 10.53-8.42-.01-4.2.07.06 8.35-.02 9.26.05 1.96.02 5.3-10.48-.05v2.01l-1.21-.32-.47-.6-.42-1.1.01 3.17h-1.06v9.48l-5.25.02.05 12.5-6.11-.03-.09 10.45-10.47-.07-.06 9.88z"/>
    <path region="8" short-name="47" long-name="State House District 47" value="1" d="m708.74 925.25 2.47.06 1.65-.18.53-.71.54.3.65-.01v.54h2.12l-.08.47.63.43-.02-1.45-.54-.02.02-1.54 3.66-.07 1.06-.2.01 2.3 3.58.04h4.67l.03 2.15 4.2.03-.1-7.27 1.2-.31 2.15-.12.62-1v-.39l.99-.18v.76l.73-.36.02 1.2 5.11-.09 2.02 1.02.04-1.09 3.63-.06 2.48.02 1.09.12h3.3l2.14-.1-.11-4.75.08-1.85.9-.08-.03-2.41.26-.59h.5v-.66l-.64-.03.08-1.44-.75.1-.44.62-.02-2.08 10.5-.2 1.89.27-.01-.55.42-.37.94.1-.21.62 1.43-.13.5.3 9.65-.28.08 2.98.14.92-.08 1.11.83-.02.24-.68-.04-.95 1.04.07.2.37.8.26-.15.98 1.48 1.13-.64 1.35-.43.52-.18.8.87.54-.02.53.56.69-1.2.12-2.28.1-.58-.9-.75.2-1.34-.17-.34.15.04 2.5-10.55.36.35 12.4-1.07-.02-2.91.26-2.67.08-6.1.1.12 2.77.02 3.12.2 6.82.01.64-13.36.3-5.17-.33-7.32.08-12.49-.03-.1-12.69-6.84.07h-5.7z"/>
    <path region="9" short-name="102" long-name="State House District 102" value="1" d="m516.14 607.84-.17.65 5.14.13 4.06.04 6.2.18 6.84.34v10.42l-.07 2.71-.02 9.75-.07 3.4-10.42-.44v4.44l.05.19-.09 7.27v7.75l.04 1-.03 6.53.1 12.91.13 4.32-.16 5.7.11 3.16.04 12.9.05 8.7-.04 4.33 4.8.15 1.21-.04 6.82.04-.06 12.97.03 12.91.04 12.9.01 12.94-11.31-.13-1.55-.05.07-12.98-4.25-.09-.03 4.4-4.27-.1v.6l-1.22-.03-.9-1-.02-1.77-2.17-.1-.07 10.82-7.07-.17-4.44-.15-1.28-2.62-1.37-3.89-1.45-3.68-.56-1.15-.2-1.46-.68-1.77-1.47-5.25-1.28-5.52-.49-2.3-.74-2.4-.78-2.17-.83-1.97-.98-2.02-2.61-5.16-1-2.5-.98-3.58-.26-2.33.02-1.7.25-2.13 1-2.85 2.04-3.1 3.07-3.95 2.2-3.22.78-1.49.98-2.23.5-1.87.34-.79.41-1.86.27-2.12.1-1.74-.11-1.97-.3-2.23-.53-1.66-.71-3.44-.27-4.25-.66-3.31-.68-1.24-.07-1.9-.23-1.48-1.18-2.6-1-1.94-1.99-3.1-.76-1.64-.64-2.27v-1.54l.64-1.46.9-1.16 1.7-1.42 4.08-3.15 1.84-2.08 1.75-2.8 1.4-2.77.8-1.73.37-1.29.58-1.16 1.81-2.55 1.1-2.36.64-1.84.84-3.04 1.15-1.13.64-.9.51-1.16.7-2.03 1.7-3.62 1.76-2.88.93-1.27.72-1.45z"/>
    <path region="10" short-name="107" long-name="State House District 107" value="1" d="m792.11 347.1 1 .1-.06.47h-.7zm-1.93.95.57-.68.43.84zm-4.69-6.92.68-.2.38.52-.53.4zm-.28 6.14.53-.46.63-1.46.92-.36.41.22.47 1.3 1.26.43-.13 1.1-.4.1-.65.84-.15.89-1.05-.28-.33-.28-.19-.85-.46-.9zm-5.79-7.82 1.63-1.08.57.5 1.49-.3.1.85.99.62.59.94-.49.2-.65-.54-.68-.2-.23.57-.67-.13.11-1.08-1.11-.1-.13.84-.53.06-.19-.59zm-2.48 5.41.05-.72.95.6-.35.67zm-.72 1.43.51-.17.58.56-.07.48-.78-.2zm-1.27-3.16.46-.48 1.24 1.31-.8.31-.48-.1zm-1.5 15.96.55-.44-.25-.84.22-.84.54-.67.62-2.11.74-.12.64-1.23.38-.37.65-1.32 1 .3.88.72.27.58-.98.92.06.47.58.3.46 1.22-.1.85.83-.17 1.2 1.44.56-.13.55-.61.2-1.11.53-.46.86.04.74-1.55-.69-.7 1.12-.25.54-.59-.1-1 1.15-.15.73.43 1.16-.16.61-.5.5-1.2 1.73-.83.29.32 2.19.4.42-.77-.93-.87.33-1.15.43.43.81-.15.79-.49-.02-.88-.61-.43.27-.65-.26-.85-.9-.25-1.53-.12-2.12-.92-1.36-.87.96-1.08.37-1.12 1.62-.03.5-.41 4.21.56 1.28-.52.7.1.85-.16 1.02.27 1.1.98 1.43.56 1.02.59.64-.4.58.24.57.95.37 1.33v.78l.61.4.18.85.91.22.55.81.16.91.34.24.41 1.66.27 2.48-.11.43.9.75-.1.93.29.2 1.34-.36 1.4 2.1.62.07 1.33-.74.83.52.73 1.18.07.65-.92 1.94-1.03.6-.91 1.26.16 1.61-.62.5-.09.8-.81.49.04 1.7-1.01 1-.75.45-.97-.79-.25-.8-.57.56.1.68-.63.37-1.32-.7-.6-.07-.5.36-.98.04-.1.67-.78-.37-1.47-1.02-.59-.22v-.52l.46-1.45-1.25-.18-.08 1-1.67.5V365l1.23-1.1-.25-.89-.79-1.05-.6.01-.25.68.4.22.29.85-1.02.75-.14-.98-.78.24-.35.46-.5-.43-.9.58-.94.1-.4.4-1.01.48-.97-.96h-.48l-.5 1.14-.68-.27-.8.3-.12-.85-.36-.77-.59.01-1.28 1.1-1.05-.67-.59-1.1-.06-.92-1.29.12-.29.6-.54.22-.2 1.32-.83 1.11-.72-.17-.06-.57-.83.02-.16-.59-1.46-1.35-.2-.64-.57.27-.24.96.17.58-.61.62-.9-.17.78-1.48-.61-.63-.84.04-.09-1.13-.98.08-.6-.57-.46.26-.72-.1-1.42-1.08zm-.25-14.59.64-.05.27.74-.4.26-.57-.58zm-13.65-3.46.9-.6.87.08.85 1.67.76 1.14.42.22.01.99-2.1-1.09-1.81-1.75zm-45.98 17.13.2-.04 1.48 1.08-.32.14zM697.9 361l.57-1.03 1 .26.67.72-.05 1.03-.6.68-.85-.44-.55-.54zm-.82 23.32.13-.55 1.04-.54.61.06 2.52 1.3 1.34.5.6-.17.82.13 1.7-.47.7.12.91.7 2.14 1.1 1.45.44 1.66.69 1.28.73 1.04-.54.42-.75-.13-1.65-.65-.87h.76l.5 1.27.39.45.6 1.9.75.79.87-.16 1.96 1.16 1.4.41.49.47-.95 1.27-.17.64-.47.37.16 1.08-.42.69-.57-.04-1.39.83-.47 1.1.21.65-1.3.9-.67-.2-.84.54-.92-.56-.58-.7-.74-.03-1.2.3-1.52-.75-.96-.2-.75.4-1.42-.65-.67-.46-.69-1.22-.16-1.38-1.02-.83-.77-.36-.1-.67-1.4-1.8-.04-.5-.85-.8-.28-.62-1.33-1-2.11-.93-.72-.76zm-2.27-3.37 1.16.1 1.22 1.22-.34.65-1.62-.59zm-3.28-21.46.2-.85.43-.4.66.23 2.26 1.86-1.15 1.41-1.31.47-.93-.47.43-1.07zm-1.06 17.09.25-1.15.39-.7-.14-1.38.54-.3 1.37.51.72.73 2.2 3.95-.5.54-.94-.2-.47.67-1.14-.76-1-.34-1.22-1.11zm-24.71-.4.22-.3.98.44.1.45.68.2-.3.96-.45-.14-1.2-.97zm-17.13 15.64 2.1.02-1.56.5zm-3.83-.24 1.06-.1.65.3-.13.43-1.43-.08zM708 286.85l1.05.93.83-.27 1-1.04.76-2.03.03-1.4-.87-.72 1.96-3.39 2.69-1.89 2.76.3 2.24-1.55 3.51.22 1.74 1.2 3.49 1.13h1.86l1.12-.25 1.18-1 3.06-5.2 3.47-.98 1.79 2.08 1.23.1 1.4-.32.7-.44.77-.17 1.13.33.6 1.44.6.52.72 2.12-3.78 13.41.79 7.25 2.13 5.5 1.4 2.36-1.45 1.09.44 7.3 1.92 1.84-1.12 2.38-1 .35-.22.57-.75-.6-.69.47.05.46-.54.55-.96-.17-.24 2.18-.9-.15.52-.6.02-1-.47-.27-.72-1.1-1.42-1.43-.5-.3-.34.44.27.61-.1.8-.57.2-.15-1.4-2.21-.53-.45.34.26.72-.24 1.36h-1.14l-.27.57-1.1 1.2-.62-.49-1.7.82-.6.6.03.61-.68.35.17.54-.54.5 1.14 1.75 1.05.52.8-.88.23.17-.16 1.72-.73.71 1.75 1.07.56.05.97.88 2.63-.48.61-.8 1.36-.69-.37-.64.3-.9 1.02.61.17 1.01.3.26 1.1-.52.33-.78.7.43.27 1 .6.46.78-.05-.32-.8.6.01.52-.58.85.74.18.82-.11.85.59.82.9.45.04.7.47.47.7.2.9-.49 1.03.89 1.2-.35 3.31 1.8.34.46-.41.54-.08.78-.83-.38-1.42.9-.19.97-.9.36-.77 1.14-.18 1.72.85 1.15.73.43 1.12 1.25.86 1.38.6-.02-.06.81.65 1.14.75.85.56.06.54.6.64-.27.45.71.67.45.48.95.82.72-.06.44.45.8 1.22.04.4-.5-.12-.86.54-.3 1.14.19.47-.46.76.2.15 1.52.7.49.92.26 1.28.64.87 1.95.55 1.94-1.18.99.14.97-.57 2.45-.63.42-.55-.42.84-.42-.95-1.02-.74.24-.22-.4-1.32.44h-.94l-.55-.66-.3.4-1.01.3-1-.53-1.3.56-.63.56-.43 1.55-.76-.31-1.08-.86-1.06-.4-.78.02-1.99-.77-.77-.16-.87.13-1.32-.5-1.49.31-.08-.85-.7-.1-.8-.49-.88-.97-1.65.38.01.78-1.08-.62-.49.27-.3.74-1.28-.14-.93-.64-.42.15-.69-.75-.36.53 1.05.92.52.97-.97-.39-.23-.99-1.37-.23-.68-.38.08 1.03-1.47-1.28-.44-.68-.62.04-.03 1.28-.92-.52-.23.56-1.25-.47-.23-.38-1.26-.07-.98-1.26-.68.4 1.16 2.68.44.59-.13 1.2-.6.63-1.21-.62-.65.65-1.26.2-1.6-1.45-.17.5-.76-.07-.18.64-.82-.12-.66.3-.6-.37-.74.27-.8-.47-.35.23 1.13 1.46.06.4-1.06.87-.6-.2-.88.09-1.24-.5-.53-.91-.63.05-.33.49.64 1.32-1.33-.91-1.8-1.6-.34-.63.56-1.27-.24-1.3.52-.75-.62-.92-1.2-1.05.59-.08 1.3 1.03.3.56.97-.06.51-.67-.55-.64-1.06-.48-1.34-1.24-1.67-.75-.73-.02-.35.74-1.36-.59-.46.08-.44.76.41 1.18.03 1.02.63.7-.55.83.12 1.2-.96-.42-.5-.77-.52-.16-.27-1.66.14-.64-.62-.46-.76.1-1.11-.51-.84.82-.11.57.14 1.22-.36.63.27.9-.94.45-1.04-.16-.27-1.47.3-.63.19-1.3-.33-2.24-.18-.49-.74-.38.26-.47-.15-.8-.37-.52-1.04-.57-1.07-.92-1.93.3-.52.61-2.1-.36-.63.26-.42-1.32-.62-.4-1.21-.24-1.6-1.53-.97-.46-1.1.33-.98.7-1.24 1.73-.34 1.08.05.54-.27 1.17.43 1.1.5.7-.35 2.01-.74 1.06.35.63.69.63-.36.97-.9.03-1.27-.32-.45.25.2.69-1.4-.03-.77.94-.93 2.4-.14.6.46.59.29 1 1.18.43.54.61.4 1.28-.73-.07-.52-.38-.86.38-.38.67.2.8-.15.53.18 1.09.88.8.32 1.73.32.94-1 .18-.03.6.94.45.71.8.67.21.74 1.17-.5.61-1.6.11-.3.2-1.92-.18-.77.4-.4.9-.56-.5-1.89-1-.15-.24-1.76-1.2-.44-.47-.18-.75-.53-.6-1.92.34-1.1-.6-.76-1.46.1-1.17-.35-.92.15-.4-1.46-.4-.62-.32-.65-.8h-.42l-1.03-.97-.24-.74-.85-.94-.78-.12-.37.34-1.01-.01-.58-.43-1.89-3.6-1.2-1.9-3.38-3.86-3.25-3.1-1.12-.73-2.24-.71-1.27-.8-.9-.36-2.2-.33-1.25-.57-.77.13-.67-.3-1.38-1.25v-2.56l.06-10.73-.01-5.48 16.77-.05 3.37.03 14.75.07 12.22.05 20.28-.1-.01-13.51 3.36-.02 7.93.11-.04-.88v-8.22l-.05-3.81-.03-7.54 2.25-.06-.01-6.88-13.47.1zm-12.9 111.23-.02.35-2.39-.02-1.97-.1-.51.1-4.61.07-2.73-.03-1.05-.36.03 9.04.06 4.36.04 8.92v13.27l.08 14.17-.15 8.35-.32 17.76-.01 4.46-.1 8.87.04 4.46-5.05-.17-6.76-.14-1.43.03-4.27-.02-8.82-.24-3.88.07-12.4-.03-10.17.05.1-13.43-6.52-.1-11.4-.24.02-1.66.19-1.95-.2-.6.32-.5.79-2.72.38-.72.35-1.52.58-.86.64-.1.66-.81 1.33-.66.54-.58.34-1.05.68-.84.87-.04.7-.47.98-1.91.54-.5.76 1.17 1.94-.2 1.17-.62.86-.95.49-1.37.07-.78.68-.14.63.27 1.57-1.17 2.1-2.37 1.18.26 1.11-.1 1.04-.37 1.13-.72.57.13.4-.42.52.16 1.15-.72 1.03.26.69.47 1.37.31 1.53.03 4.26.28 1.36.49.57-.09 1.44-.9 1.24-.48.4.19.94-.08.72.34.71-.1.65-.47 1.3-.59.94-.02.83-.65 1.7-1.05.78-.02.57-.61.95-.33.3-.94v-1.62l-.34-1.2-.63-.67-2.27-.4-1.38-.47-1.75.04-.76-.37-1.27.25-.1.97-.89-.8h-.4l-1-.7-2.59-.52-1.12-1.11-1.63-1.4-2-3-1.38-1.67-.49-2.8-.4-1.27-.74-1.61-.32-1.88-.4-1.35v-.91l-.23-1.22.04-1.32-.27-1.11.31-1.64.54-.96 1.98-2.2.23-.9 1.29-1.72.41-1.02.08-.86 1.45-1.58.77-.05 2.32-1.27 1.9-.54.9-.74.63-.75.52-1.31.36-1.6.55-.46.77.25.54-.28.8-.9.73-1.4.78-.58.36-.86.69-.25.44-1.98-.17-1.03-.95-1.36-1.08-1.2h-.96l-.76-1.18-.78.1-1.68-.51-.33.18-.82-.31.21-.85 1.17.5 5.86-.03.53-.2 1.5.48 1.51 1.05.52.56.9-.12.6-.39.6-.84.8-.17 2.15 1.05 1.23.46 1.1.26.54-.29.56-.82.5-.09 1.57 1.18 1.28-.47.81-.64.75-1.25.29-.92-.2-.79-.65-.01-.1-.75-.5-.4.08-.52 1.4-.89.63-.23 2.3 1.02.85-.14 1.2-.71.68.2.34.48-.28 1.43.47 1.26.57.04 1.85.87 1.88.72.12 1 1.1.6.9.29 1.35.14 1.82 1.57.76.3zm-84.86-8.24.68-.4.65-1 1.08-.92-.13-.73.64.1.2-.42-1.07-.59.62-.28.19-.56-1.04-.92.99-.62.61.03.54.59.8 1.72.05 1.12-.36.55-.71.41.27 1.7-.7.12-.97 1.25-.43.1-1.59-.83zm-14.58-3.61 1.28-.4.04-.43-.87-.74-.37-1.27.5-.12-.19-1.28 1.02.06 2.62 1.26 2.29 1.99-.17.48.55.85 1.02.06.5.49-.05.5-1.19.33.07 1.06.78.43.1.39-.99.07-.22-.58-1.23.08-.63-.18-.75 1.02-.42.12-1.09-.73.3-.81.44-.1.6-.75-.77-.7-.25-.74-.75.36-1.06-.3-1.08-.06zm-6.98-5.77.8-.48.36.2-.34.87zm-2.49 4.17.6-.54.83.38-.74.69zm-.9 32.34.35-.22.18-1-.12-.65.24-1.67.78-.89.48-.2.47-1.31-.07-1.45-.35-.95-.06-1.3.38-.53.14-2.25.37-1.02.58-.36.52-1.11.88-.51 1.07-1.54-.07-2.51.51-.16.6-1.05-.06-1.17-.48-1.14-.09-1.27.17-.25 1.01.11.81.35.63.9 2 .15 2-.74.58.13.4 1.26-.66.54-.55.06-.03-.95-.65-.14-.59.72-.03 1.16.78.11.58.91 1.02.68-.34.85.08.49.53.38.25 2.58-.95 1.16-.36 1.52.25 1.65.36.95 1.1 1.88.02 1.04.3 1.24-.1 1.14.13 1.35-.5 2.12-.35.3-1.25.47-.3.93-.95.55-.95.2-.8 1.24.02.83-.76.49-2.21.43-1.64-.36-.97-.81-1.2.06-.58-.46-.75.28-1.15-.35-.7-1.88zm-7.6-26.7.87-.1.45.76-.98-.12zm-.49 5.55.32-.05.97-1.3.8-.04 1.91.6 1.11.51-.12 1.15.37.83.04.77-.43 1.03-.96 1.16-.9.82-.1.76-.81.32-1.85-.24.43-1.79-.3-.52.77-.24.23-.88-.65-.9-.18-1.34zm-15.46 6.75.54-2.37.42.15.2 1.05-.16.93z"/>
    <path region="11" short-name="4" long-name="State House District 4" value="1" d="m845.2 897.5 2.12-.06.07 3.26.64-.02.98-.42v.3l.01 1.06 3.44-.1 1.3.02.16-.4 1.36-.7-.48-.97 1.06-.26.96-.48-.27-.52.45-.34.93 1.94v.3l-1.28.65.38.78-2.35 1.2-.89-.31.04 1.17-.64.02.05 1.06-.42.01-.22 1.7-.77.49.04 1.42.36-.13.68 1.25-3.1.62-.44-1.72-1.13.03-.6-.34-.13-4.23-1.15.03-.97-1-.02-1.1-1.97.06-.2-2.1 2.07-.06z"/>
    <path region="12" short-name="74" long-name="State House District 74" value="1" d="m695.7 852.45.92-.96.41-.68.94-.3 1.02.05 1.24.45.77-.14.01-.69.97-.27-.11 1.2.2.83h.65v-.9l.74.26 1.02-.08.71-.92.6.57.01 1.09h.66l1.03 1.07v.57h-.53l.02 2.62h1.57l.06 12.65-12.84-.03-.05-6.37z"/>
    <path region="13" short-name="104" long-name="State House District 104" value="1" d="m516.14 607.84.1-1.13.43-1.55.28-2.27.74-2.6.42-3.01-.03-2.09-.38-2.55.03-2.1.29-2.65.56-.9.54-1.93.4-2.23.12-1.17 1.09-3.77.37-2.9-.13-1.58-.42-2.42-.69-2.2-.57-1.43-.75-1.3-.4-1.45-.62-1.74-.6-2.36.25-3.5.2-.79.7-1.08 1.72-1.06 2.36-.87 3.24-1.05 1.65-.88 1.14-1.16 2.16.56 1.47.06 1.62-.47 1.13-.87.66-.78 1.26-2.48.42-1.77-.06-1.25 1.85-.03-.16 13.42 3.02.08 2.57-.07 3.76.01 3.72.1 6 .07.44-.09 6.57.05 13.12.28 4.27.12 8.78.03-.04 3.87.04 2.67 4.8.1 8.13.02-.07-6.58.05-4.37 1.12-.14.04-4.28 1.11-.01v-2.2l.68.01.02-1.68h.63l.02-13.8-2.3-.01.86-1.28 1.01-2.05.2-.8.03-1.2.3-.4.83-.44.78-1.56.22-1.33.88-1.8.2-1.31.5-1.28-.17-.82.35-1.4.3-.45.31-1.86-.27-1.7.93-2.2-.01-.63-.61-1.68.03-2.23.22-1.07-.1-.88.37-1.52 1.1-1.93.07-.48-.45-.72.33-1 .39-4.42-.98-2.24-.47-2.4-.44-.55.23-.93.01-2.79-.18-1.69-.4-1.15-.43-.48.19-.89-.05-1.25-.2-.35 11.4.24 6.52.1-.1 13.43 10.17-.04 12.4.03 3.87-.08-.05 5.5.02 2.74-.03 5.1 1.09.03.09 5.63-.01 5.14-.06 2.3-8.81-.1-4.41.07v13.24l4.34-.03 8.9-.01-.07 8.84-.09 4.5-.2 13.24.01 13.2-15.84-.05-.27-.02-9.23.13-3.6-.13-10.02-.11-.12 13.04-.47 13.15-1.67.04h-11.4l-6.47.08-6.43-.02-10.03.06-2.88-.04-6.52.05-6.5-.04-.16 7.41-.03 3.47.02 4.55-.06 6.93.02 3.78-.04 4.23.03 2.52V636l-10.82-.08-2.71-.06-7.56-.28-2.92-.01-2.13-.12.06-3.39.03-9.75.07-2.7-.01-10.43-6.85-.34-6.2-.18-4.05-.04-5.14-.13z"/>
    <path region="14" short-name="103" long-name="State House District 103" value="1" d="m589.89 530.1.21-.95.71-.35.43 1.17-1.03.45zM567.6 434.5l.75-.58.78.22.52.57.4 1.64-.34 2.05-.8-.76-.05-.55-.56-.93-1.07-.76zm-10.27 6.62 2.72.83.8.38 2.17 2.53.59 2.25-.14 1.94-.27 1.39-.38.71-.5-.46-.4-1.3-2.49-4.02-1.07-1.26zm-19.41 46.84.55-1.94.96-.94.65-.18 4.16.59 1.78.71.52 1.1.84.85.12.72-.12 1.13.23.56-.5.95-.32 2.07-.2 2.42.15.96.61 1.19 1.46 1.44.3.47-1.73-.33-1.17.67-.69.14-.59.5-.86-.47-1-1.82-.98-1.18-.74-.67-.91-1.41-1.22-.75-.67-.84-.19-1.15.25-1-.31-1.27-.13-1.59zM605 530.69l2.3.01-.02 13.8h-.63l-.02 1.68h-.68v2.19l-1.11.01-.04 4.28-1.11.14-.06 4.37.07 6.58-8.14-.02-4.79-.1-.04-2.67.04-3.87-8.78-.03-4.27-.12-13.12-.28-6.57-.05-.45.1-5.99-.08-3.72-.1-3.76-.01-2.57.07-3.02-.08.16-13.42-1.85.03-.43-2.47.73-1.58.57-2.3v-2.3l-.5-4.64-.14-2.95.16-1.69.46-1.5.85-.8 1.62-.57.9.52.46.6 1.05.7 1.31.5.83.11.99-.19 1.33-.93.8-1.32.6-2.24.6-.93.96-.79 1.15-2.07.38-1.56.75-.65 1.7.08 1.97.96.66.64.51 1.07.74 1.14 1.1.65 1.67.14 1.96-.32 1.91-.77 1.2-.7 1.15-1.82 1.13-1.37.63-1.1.23-.78.22-2.67-.41-1.38 1.84-1.98.28-.57.73-2.24.7-1.45.68-.78 3.09-1.54 1.49-1.37.5-.74.14-.6 1.23-1.42.59-1.97-.01-1.5.25-.64.6-.74.87-1.76.4-1.52 1.68-2.54.87-1.07.3-.8 1.32-1.9.62.9.51.4h1.5l.77-.28 1.1-1.03 1.2-.84.3-1.22.27-.1.9-1.47 1.11-.02.3.54.07 1 .57.46.58 1.3-.51 1.86-.6.68-.62.17-1.02.66-.28.74-.75.55.24.62.19 1.4-.45.36.4 1.35-.7-.45.2-1.33-.3-.86-.5-.51-1.77.18-1.42.72-.23 1.34-.9 1.07-.44.91.55 2.15.4.85.63.55.46.78-.33.53v.66l1.13 1.92.85 1.92.77-.15.74 1.3-.16 1.26.16.47-.18.87-.66-.23-.52-1.27-.04-.58-.81-.08-.42.54.04.75-.73.38-.09 1.3-.27 1.01.06 1.25-.98 1.21-.65.48-.93 1.02-.41-.01-.85.9-.07.73-.56.67-.08.67-.85 1.53.1.46.77.55 1.29.19.25-.58.69-.57 1.29-1.67.3-.86.7.16.06 1.3-.42 1.56.16 1.35-.27.55.18 1.2-.27 1.88.17 1.48.2.64-2.06.12-.46.24-.73 2.12.1.3-.76 1.77.07.2-.92 1.48-.38 1.46.13 1-.1 1-.4 1.8.16 2.08-.06.58 1.06 3.17.9 1.58-.02 1.21-.31.66-.48 1.91.2.5 1.17.77 1.64.35 1.48-.15.6-.44-.07-.92.43-1.1.54-2.36.34-.63.33-2.43 1.15-1.17 1.09-2.8.48-2.02.54-.94 1.17-.83.56-.69.17-1.31.25-.43-.18-.79.63-.72-.36-.72-.71-.36h-1.26l-.88 1.9-.55.21-.5-.93.35-.79 1.07-1.16.58-1 .66-.54.14-.8.52-.57.15-1 .33-.5v-1.73l.51-.58.45-1.47-.2-.97.22-1.11.89-.55 1.26-.53.59-1.08.42-.37 1.7-.18.49 1.68.02.72.51 1.65-.12.97-.6-.08-.82-.45-.5.1-.32.73.3.66-.17 1.36-.32.88-.23 1.57.25 1.42-.37 1.32.4 1.2-.47 1.71-.03.97-.7 1.8.25.46-.35 1.09.1.92-.78.55-.17.7-1.12.36-.34.55-1.13.46-.79.72-1.72 2.43-.47 1.59.23.56-.36 1.82.2.71-.58 1.64-.57.6-.24 1.08-.44.83.56.74 1.84 1 1.73.3 1.2-.11 1.27-1.89.94-.89.3-1.1-.27-1.62-.3-.56.2-1.22.86-1.37.87-.4 2.14-1.46.93-1.3-.05-.77.31-.83.82-1.53.16-1.26zM528.1 507.1l.11-.56.77-1.44.63-1.95.38-.42 2.18-.84.52.43 1.1.41 1.38.24.53.3.8 1.08-1.07.04-1.01.3-.52 1.13.07.72.39.72.58.5-.4.57-.57.12-.6.52-.96.47-1-.08-1.07.4-2.1-.88-.16-.33z"/>
    <path region="15" short-name="109" long-name="State House District 109" value="1" d="m468.34 270.12 1.22-1.49 2.07-.97.28.59 1.01.06 1.14-.31.3-.31.79 1.07.07.48.75.68.66 1.35.64.47-.3 1.04-.03 1.67-.54 1.98-.58.53-.76 2.21 1.19 1.4.82.13.93-1.6.78-.97.3.1.23 1.5.05 1.3-.29 1.09-1.45 1.91-.7.08-.6.4-.6-.15-.77-1.28.72-.28.57-1.1-2.22.05-.37.13-.5 1.62-.78 1.45-.55-.1-1.16-.78-.1-1.17.24-2.23v-1.37l.26-1.08-.1-.95-1.26-.61-.56-1.2v-.79l-.34-1.5.07-.5-.57-2.03zm-4.22 4.64.5-.03.67.73.04 1.13-.78-.2-.42-1.04zm-16.39 4.36.5-.19.52.44-.46.63-.47-.3zm-56.16-18.07.44-.36.65.4-.7.82zm-60.25-55.4 1 .1-.32.53zm-51.02 2.42-.5 2.49-.3 1.1-.86 2.14-.37 1.26-.68 1.39.17 1.47-.16 1.19-.34 1.18.11 1.76-.38 1.1-.1 1.47-.2.28.18 1 1 2.12.06 1.33 1.1 2.42-.04.37-.75.94-.93-.64-.39.33-1.06 2.06-.47.59-.36 1.06.49.62 1.55.81.47.08.96-.38 1.82-1.77.17-1.2 1.01-1.77.14-.74.5-1.08 1.78-2.41.22-.46 3.65-4.22-.07-1.1-.8-1.01-1.46.74-.1-.67.47-.95 1.06-1.53 1.06-.78.82.03-.37 1.6.76.7 1.47.19.34-.15 1.02-1.36.89-.83 1.31-1.5.8-.65.48-.83 3.13-2.66 2.13-1.4.7-1 1.15-1.24 2.96-1.59 1.97-.67.97-1.33 1.24-.4 1.2-.63 1.27-.98.52.19.63-.5 1.28 1.04-.84.3-.69.73v1.06l-.33.57-4.04 3.9-1.4.7-.74 1-.5-.13-2.39 2.25-.92 1.53-.92 2.2.15.87-.53-.05-.61 2.05-1.2 2.38-1.23.93-.06 1.42 1.13-.19.87-.85.3-1.07.82-.44 1.28-3.5 1.11-1.79.66-.64 1.62-1.17-.44-1.14 1.41-.93.64-.17 1.25-1 2.47-.05.75-.3 1.6-.33 1.43-.14 1.44-.47 1.32-.7 2.1-.5 1.24.14 3.8 1.72 1.21-.05.75-.24 1.05.27.93.54 1.36-.1 3.25-.49 3.7.08.55-.16 1.64-.04.4.15 2.5 2.58 1.45.78 1.61.59 2.06-.92 1.12-.23.38.8 1.03.74 2.3.24.6.5-.2 1 .2.56 1.17.87 1.1.14.62-.6.98-.16.43 1.87.03.98.45 2.42.57.95 2.05.23 1.56-.4.73-.48.26-.7-.27-1.16.7-.12.67.88.14 1.48-.12.56.7 1.1 1.14.59.9.19.76-.26.93.26.56 1.1.84.88 1.33 1.76 1.67 1.14-.32 1.08.3 1.05.21 2.3.49 1-.12.3.48 1.09.02 1.16 1 1.62 1.22.84.48.72.95.85.57.26.33 1 1.2.46.44.55.32 1.5-.27.73 1.46 2.26.22.81.68 1.47 1.1.77 2.69 1.1.04 1.47.53 1.35-.16.45 1.38 1.4.95.49-.07.61.4.65.52-.03.38.7 2-.19.51.6 1.36.55.96-.17.02-.89.67-.38.33.5-.28 1.37-.7-.1-.7.78-.03 1.01.56 1.49.72.9-.04.85.53.63-.83.5-.67.07-.4 1.48.51 1.36.86 1.13 1.57 1.57.8.6 2.77 1.14 2.48.65 2.72.39 2.9.2 3.29-.08 2.79-.32 2.44-.74.7-.53.22-.8.94-.2.45 1.06.7.29 1.87.44 1.94-.14 1.29-.49.24-.68 1.89-1.38.5-1.1.33.43 1.61-.24 1.98-.57.66-.93 1.38.06.56-.32-.19-.97 1.4.24.37-.2.61.84.58.26 1.27-.22.6.28.67 1.07.67.5.18 1.09.81 1.27.28 1.12.94 2.26-.57.27.24.97.48.44 1.05.35.56.39h1.03l.98-.31 2.13 1.2v.62l.59.62-.25 1.06.67.82.53.26 2.7.5 1.37-.01 1.67-.3.64-.28.48-1.3-.07-1.03.27-.27.1-.96.57-.95 1.69-1.74 3.6-.29 1.38.63.63.06.52.54-.13.97.5.7 1 .87.85 1.67.79.86.55.12 1.6-.08 1.52-1.01 1.03.19.47.3.28 1.71-1.06 1.5.04.52 1.18 1.03.7.2.72-.14.86-1.31.08-.63.42-.36 1.94-2.65-.09-1.47.35-.24 1.01.2.53-.67.91-1.68 1.52-1.46 1.84-2.87.34.06 1.75-.78.76-.82.18-.6.98-1.1.93-.41 1.13-.95.6-1.25.6-.5.22-1.05 1.2-.79.33-.74.67-.16.9.23 1.01.74 2.77-1.22 1.22-.69 1.78-.58 4.38-2.34 3.23-2.1 14.24-9.84 2.85-2.43 2.52-.54.75.92.51.28.73 1.26 1.52.46 1.93-.15 3.21-.96 2.29-.98 1.17-.2 3.36-.75 2.52-.99.02.5-1.3.51.5.5 3.21-.87 1.79-.83 2.53-.9 3.37-.63 1.44.11-.04 29.14-40.5-.08-13.48-.1-.01 24.95v2.3l-10.88-.1-16.15-.12.02 13.67-.04 13.59-6.76.02-11.23-.04-5.93.03-15.44-.06-1.15.02-13.53-.03h-13.53l-.15 27.07-13.5-.03-8.8-.07-4.65.03-13.45-.07-.03 13.53h-8.6l-.09 20.07.09 2.72-.02 4.45-4.41.03-11.6.02-.12.02-.96-.68-.95-1.58.22-1.22-.63-.69-.57-.15-.7-.68-2.18.21-.5-.88-.57.38-.92-.38-.38.34-.77-.52-.59.35-.83.07-.03-2.9-.12-3.55-.12-8.96.07-6.41-5.18-.1.07-4.93-.08-8.5.03-10.33.1-.82-.15-16 13.55.03.04-13.57-9.05.02-18.04.02.06-13.55.03-13.55h-54l-6.76-.03.06-27.05.05-20.46.25-1.18-.02-5.46h-.27l-.02-13.7 4.6-.02 6.82.06 2.29-.06v-11.41l-.03-2.3z"/>
    <path region="16" short-name="106" long-name="State House District 106" value="1" d="m845.88 501.32 1.08.95 1.01 1.56-.54.16-.78-.9-.1-.57zm-1.82.87.64-.62.53.18-.03 1.22-.93.16-.38-.34zm-7.54-2.92.84-.36-.08 1.18-.74-.43zM832.46 480l.7-.94.61.26.47 1-.54.37-.78-.23zM695.1 398.08l.33.33 3.22 1.74 1.97.23.23 1.04.41.83 1.35.95.19.43 1.53.56.71.9 1.4.82 1.48 1.56.78.2.39.78 1.04-.06 1.09.82 1.81-.45.32.65.77.87.88-.2.92-1.04-.1-.42-.86-.94-.82-.24.43-.85 1.64-.05 1.4.9 2.61 1.22.8-.37 1.65-.17 2.03-.81.55-.03 2.76 1.12.97.51.8.2 1.8 1.22 3.27 1.04 1.22.08 1.45.4 2.12 2.23.97 1.22.78 1.3 1.04 1.14.48.82.78.3.13.63 2.06 1.92 1.03 1.69.2.89v2.1l.4 2.65.36 1.17.78 1.45.98 1.1.74.58 1.96 1.02 1.95.29 1-.18 1.56-.72.11-.47.85.24 2.01.23.58.4.86.16.8-.1 1.8-.52.83.28 1.05-.11 2 .25 1.44.65 1.43.36 1.31 1.56 1.67 1.2 2.32 3.05.7.77 1.62 1.39.85.09.68 1 1.13.42.37.56 1.49.59.86.17.12.6 1.65.74.95-.1.4-.72.82.33.86 1 .47-.03.36-1.15.35.09 1.75-.56.77.51.49 1.28.58.76 1.69 1.13.35-.02 1.1.9.9.22 1.31 1.06.44.51.8.4.9.83.86.2.8-.1 1.13.6.67 1.3 1.8-.34.22.5.87.55.7-.55 1.16.25.97-.61-.01-.68.85-.05.92.6 1.15 1.16.48.04 2.17 1.07.4-.35v-1.24l-.64-1.13.82.14.55 1.2.73.5-.06.5-1.09.01-.24.87.48.94.67.65.41-.13.05-.9.89.02.23.65.03.99.55.57.81-.22.75 1.83 1.2.52.92 1.16.38.99 1.56.51.59.55.13.7 1.4.35.66 1-.55 1.17-.12 1.02-.42.45-1.21-.41-1.52-.25-.05.8.86.47-.39.58.06.86.45.56.42 1.52.99.88-.22.62.46.33.32.74.64.83.43-.04.74 1.46.47 1.45.1 1.88.89 1.45 1.21.23.47 1.2.47.48.55 1.25.62-.52 1.4.58-.7.75.03.54.74 1.15-.53.77.07.75.36.54.54.05-.22.9.02.85 1.2.89-.67.82-1.14.02.64.66-.6.75-.07.7.88.65-.4.44.44.44-.5.95v1.05l.74.53 2.61.58.64-.07.73 1 .14.75.66 1.64-.91.01-1.63-.48-.87-.55-.7-.14-.16-.4-1.22-.15-.5-.54-.88-.03-1.4-.58-.88-1.14-.95-.19-1.04-1.72.38-.5-.32-1.63-.61-.14-1.74.08-.37 1.15-.76-.24-1.36.75-.74.03v.6l-.65-.01-1.44 1.02-1.08 1.54-.74 1.82.18.73-.44.53.07 1.15.7-.07 1.6.89.43.59-.3.39-2.16-.88-.9.78-.2 1.52.42.63 1 .4.55 1.31.04 2.65.2 1.7.53 1.75.62 1.21.84.94.53.12.68.6 1.02.5.6 1.1v.85l.95.63 1.5.2.22.54.87.98 1.45.75.81.27h1.48l.3.3.9.2.53.35-.39.57.35.88-.04.5-.55 1.06.02.84.68 1.63 1.12 1.27.42.76.1 2.04.65 1.1.06 1.85-.38 1.38.08 1.37.54 1.91-.79 1.61.08 1.03.35 1.72.4 1.15.7 1.14 1.16 1.2.15.8-.25.4-.22 1.57.05.5-.6 1.97-.32 1.35-.3 2-.4 1.26-.37.38-1.42 2.53-.76 3.2-.12 2.07.28 5.34.65 2.67-.16.35-1.06 3.86-.04.42h-11.12l-12.28.01-14.02.1-10.9.14-13 .15-.08-13.09-.09-13.15-11.63.06-.45.06h-16.22l-10.9-.05-13 .08-.03-6.65.02-6.7.01-13.1v-12.9l.07-4.65.25-10.8.11-10.97.12-13.19h-3.77l-15.36-.2-5.1-.03-5.5-.13-9.96-.13.01-4.46.32-17.75.15-8.35-.08-14.18v-13.27l-.04-8.92-.06-4.35-.03-9.05 1.05.36 2.73.03 4.6-.08.52-.09 1.97.1 2.4.02z"/>
    <path region="17" short-name="108" long-name="State House District 108" value="1" d="m473.57 420.52.61-1.32.5.58.45-.08.8 1.65.54.26.75-.22.5 1.44.01.64-.6 1.02.02.52-.77.72-.7.28-.85-.2-.21-1.35-.5-.52-.06-.8zm-1.03 7.56.97-.53.14 1.62-.77.12zm-3.4-11.75.38-1.21.62-.55 1.63.54.85.83-.85 1.27-.54.13-.35.52-.5.02-1.23-1.15zm-8.84 15.96.22-1.15.83-.22.98.79.78.29-.12 1.81.04 2.02-.8.05-1-1.34-.52-.22-.5-1.52zm-114.77-34 .13-.02 11.59-.02 4.41-.03.02-4.45-.09-2.72.1-20.07h8.59l.03-13.53 13.45.07 4.64-.03 8.82.07 13.49.03.15-27.08 13.53.01 13.53.03 1.15-.02 15.44.06 5.93-.03 11.23.04 6.76-.03.04-13.58-.02-13.67 16.15.12 10.89.1-.01-2.3.01-24.95 13.47.1 40.51.08.04-29.14 2.54.2 4.98 1.23 4.79.59 3.9.03 4.93-.51 4.77.24 4.02.67 4.49.13 2.38-.07 2.5-.28 2.2-.7 3.65-1.66 1.87-1.05 2.4-.76 3.9-1.87.81-.34 3.74-2.14 1.9-1.16 2.26-1.03 3.58-1.47 2-.36 2.27-.17 2.84-.72 2.2-.45 1.38-.16 1.37.16 3.52.59 3.28.39 2.01.01 2.94-.4 1.23-.39 2.97-1.33 2.72-.31 1.73.22.31.63-1.2.92-.2.33-2.3 2.28-2.16 2.7-1.35 2.5-.8 2.37-.27 2 .19 1.51-.78 7.88-.17 3.78.17 3.05.78 3.43.3 2.1-.17.52-1.54.5-1.25 1.1-.35 1 .13 1.84.55 1.69.85.88.89 1.67.88.73 1.12.52 1.06.17 2.08.08 2.36.21.97-.54.87-1.12.43.35.57-.17.44.35-.06.58.6.51.75 1.11.73.38 2.35.34 1.98-.22 1.47-.5.8.84.85 1.61.05.57.7.7 1.06.27 1.3.03 1.86-.3 3.35-1.14 4.94-2.31 1.66-.99 2.15-1.55.33.09.71-.6 1 .25.6.4 1.05.2 1.33-.3 1.14-.1 1.02 1.04.55 1 .92 2.36.95.78.78 1.01 1.25 1.32.05.63-.73.25-.08-.97-.49-.64h-.73l-.63 1.15.13 1.32.76 1.67 1.4.26 2.58-.48 1.82-.81 2.67-2.04.76.25.84-1.17-.1-.76.73-.21.47 1.17.38.13.04 3.08 13.47-.1v6.88l-2.24.07.03 7.53.05 3.81v8.22l.04.88-7.93-.1h-3.36l.01 13.52-20.28.1-12.22-.05-14.75-.07-3.37-.03-16.77.05.01 5.48-.07 10.73v2.56l-1.88-1.3-1.12-.55-1.21-.17-1.11.46-.58-.27-.08-.94-.8-.76-.48-.2-.97.17-.42.78.48.33-.2.91-.79-.95-.84.02-.54-.61-.46.27-.41-.57-.94-.23-.77.34-1.06-.37-.54-.48-.6-.12-.45.34-1.8-1.02-.53-.16-.46-.59-1 .14-.22-.67-.79-.52-.61-.02-.24-.53-1.52-.9-1.12-.37-1-.13-1.2.21-1.12.83-.33.73-1.14.96-.32-1.26-.72-.49-.1-1-1.34-.82-.65.01-.3-.41-1.6-.09-1.63.96.16.74-1.36.68-.53-.59-1.2-.35-1.24-.57-2.1-.08-1.37.34-.96.54-2.08 1.82-1.57 1.92-1.06 1.02-.98 2.15-1.38.86-1.13 1.27-1.57 2.5-.6 1.37-.01.42-.74.4-.46.63-.18.75-.56.64-.75.29-.92 1.19-.41 1 .16.74-.58.54-.55-.2h-1.65l-.74.22-.3.66-.78.34-1.59-.68-1.92-.37-1.04.27-2.26-.74-.78-.07-1.02-.65-1.53-.65-2.17-.37-.74.03-.95.58-.76 1.31-.98.43-1.1-.5h-2.48l-.77-.1-1.32.3-.55.69-1.04.54-1.13 1.09-.4.7.13.46-.44 1.01.02.93.96.57.36 1.4-.76-.2-1.48-1.14-1.02-.23-1.4-1.33-4.53-2-2-.7-4.83-1.37-2.49-.28-.73.18-.3-.27-1.73.29-1.38.01-1.4.7-.13.56-.86-.11-.53.56-1.34-.05-.38-.37-.87-.25-.52.14-.51-.42-.7-.07-.65-.45-1.25.04-1.33.63-.11.48-.93 1.31-.68.27-.42-.38-1.3-.22-1 .26-1.52.66-.64.77.45.82-.88 1.13h-.71l-1.51.7-1.05.98-.9 1.42-.12.61.31.76-.43.7.15.89-1.05 2.75.01.85.6.6.23.75-1.43 1.26v.72l-.82.98-.16.58.4 1.7-.77 1.12-.24 1.34.64.86-.68.77-1.17.5-.46.55-2.16-1.22-.8.74-.19-.56-.99-.07-.77.22-.95.63-.39.52-.1.7.4.87-.43.2-.28 1.04-.32.07-.16.94-.38.05-.64-.63-.5.78-.76.5-1.33-.69-.31-.47-.6.11-.36.66.2.53-.48.4-.02.62-.63.35-1.26-.82-1.27.13-.24.65-.5-.1-1.26.26-.28.73.18.38 1.25.57-.14.69-1.07.32v1.02l.84.29-1.09.83.22.7-.43.4-.85-.21-.3-.52-1.1.08-1.69-.51-.78.6-.44 1.09-.05 1.08.25.6.08 1.33-.25.52-.7.38.2.85-.26 1.35-2.1-.68-1 .4-.75 1.12.25 1.23.06 1.42.2 1.18.28.6.36 2.22.56.42.23.74.46.24-.1.6-.88.58-.28-1.03-1.76-1.77-1.84.34-.2-.32-1.51-.55-2.28-1.94-.17-.88-.68-1.08-.03-1.06-.74-.34-.53.5-.6-.72-.5-1.23-.15-1.39.31-1.48.61-.77.91-.33 1.37.5 1.39-.62 1.13-1.6.02-1.05-.4-.29-.25-1.54.47-.2.48-1.05.42-.15.8.28.45-.7.4-1.14 1.13-1.19-.14-.96.82-.13.71-.88-.27-.55-.88.17-.66-.29.41-1 1.04-.16-.67-.73-.14-.8.88-.25.86.18.08.65.76.06.3.97.64-.17.25-.66 1.06-.27.7.29.63.65 1.26.36.3-.7-.9-1.1-.22-.53-1.08-.68.2-1.64.75-.77.84.15.66-.57.18-.83-.48-1.01.52-1.8.66-.75.87-.13.48-1.37.93-1.1-.14-.45-.03-2.92-.61-1.68-.68-.68-1.94-1.4-.9-.2-1.57.69-.54.56-.3.92-.94 1.55-1.59.09-.52.87-.65.09-.95 1.5.15 1.7-.07.9-1.28.05-.35 1.46-.73-.65-.6.08-.21.47-1.22-.63-1.4-.3-1.4-.49-.85-.07-1.08.28-.45-.53-1.15-.49-.1-1-.83-.83-.23-.67-.77-.47-.95.08-1.82.7-.73.4-.22.6.32 1.15-.15 1.2-.6.86.2.47.97.83.28.85.15 1.6-.62 1.89.33.44-.86.27-2.02.16-.41.9.96 1.99-1.06-.22-1.53.92-.24.75.47.74-.16.72-1.2.77-.18.65-.54.79-.37.04-.33.73.5 1.06-.24 1.59-2.04.7-.52.76-1.08-.16-2.05.04-.85.3-.66 1.1-.8.84-.3-.01-.61-.92-.89-.2-.86.26-.4 1.26-.47.36-.28 1.06-.53.17-.78 1.7-.43-.83.1-1.06-.27-1.07-1.2-.5-.4-1.65.32-2.88.43-.67v-.97l.22-3.22-.56-.7-.3-1.4-.05-1.21.33-1.31-.19-1.3-.45-.47-.16-2.1-.26-.47-1.06-.62.09-.58-.62-1.14.48-.52 1.45-.68.42-1.68.84-.52.55-.62.63-1.45 1.32-1.13.5-.83.09-1.52-.1-1.68-1.74-1.1-1.46-.18-.67.67.02.7.52.43-1.27.6-.97 2.03-.77 1.24-.75.33-.87 1.06 1.1 1.22 1 .31.39.39-2.15 1.37-1.35.25-.91.47-.63 1.12-.71.73-.56 1.52-.15 1.7.03 1.74-.27 1 .5 1.23-.69.5-.16 2.14.2.85.74.27.04.42 1.93.81-.1.32-1.09.59-.98.14-.46.62.09.42-1.1 1.78-1.45 1.05.34.68.82-.1.66-.43.36.48-2.5.67-.87.36-.53.54v1.66l-1.35.16-2.04.73-1.96 1.33-.34.46-1.4.62-.91.93-.23 1.46-.97.46-.14.45-1.12.83.02.78-.39 1-.5.49-.7 1.23-.65 1.44-.39.47-.65 1.44-.77.85-.5 1.96-.42.55-.98.75-1.22 2.42-.24 1.83-.74 1.13-.68 2.13-.64.98-.37 1.8-.43.37-.71 1.5-.66.9-.13 1.15-.41.8-.67.44-.57.73-.4 1.46-.34.08-.53.84-.07 1.63.8 1.03-.14.71-.91 1.53-1.6.85-.84.85-.36 1.91-.74.71-.53 1.16-.35.1-1.63 1.49-.28.75.15 1.4-.25.9-1.04.36-.5.75.21 1.45-1.5 1.06-1.06 1.47-.6 1.67.08 1.76-.68.43-1.95 2.11-.73 1.02-.12.75-1.54 1.84-1.36 2-.4.37-1.4 2.18-.02.67-.49.22-.4.65-1.31 1.21-.32.5-.42 1.37-.54.12-2.02 1.42-1.08 1.9-.52.09-.8.72-.3.8.26.39-1.49 1.25-.1.55.52 1.18-1.21.55-.28.72.2.73-.44.41.2 1.42 1.08 1.7.98.97-.12.29-3.83-1.31-.42-.44-1.8-.02-.35-.34-1.06-.08v-.53l-1.05-1.15-.81-1.7.29-.6-.87-1.38-1.2-.98-.61-.1-.73-.54-.09-.46-1.05-.53-.72-.96-1.28-.91.14-.65-.27-.94-.2-1.52-.24-.7.77-1.14.9-.57-.07-1.46.6-1.21-.38-.48.08-.5.64-.78.74-.25-.01-.81.25-1.45-.14-.71.5-1 .76-.55-.08-1.11.14-.75.85-1.34.3-1.2.78-.72.14-.47.69-.67 1.2-1.72-.05-.77.67-.68.83-1.31.04-1.74-.63-.54-.33-.68v-1.33l-.22-.37-1.6-1.11-.11-.72-.9-.51-.33-.58-.87-.18-1.38.93-.17.4-1.14.58-1.57 2-.67 1.23-1.22.21-.34.86-.87.16-.76-.43-1.5.23-.78-.57-1.1-.03-1.04.36-1.4-.2-.2.29-.83-.24-.6 1.1-1.1.68-.34-.25.12-.8-1.41-.85-.25-.5-.02-1.06-.46-.5-.59.34.6.8-.03.43-1.16.76-.74-.52.34-1.25.61-.45.82-1.19-.44-.55.52-.93 1.24-.79.28-.75-.25-.9.88-.45.14-1.17-.7-1.01-.46-1.14-.14-1.69.7-1.06.84-.43.28-.65.95-.38.36-.78 1.39-.72.74-.55.16-.59.62-.79-.12-.92.85-.93.11-1.37.56-.91-.05-.78-.6-.2-.37-1.04-.27-2.8.15-1.08-.41-.81-1.26-1.32-.9-.55-.63-.59-.07-.47.46-.97 2.05.54.46.38.93.11.94-.59.16-1.38-.02-1 .2-.4.91-.7-.03-.82.3-1.26-.3-.31-.36-1.64-1.2-.33-.42-.32-.12-.74-.81-.82-.62-1.51-.76-.8-.74-.5-.06-.94.21-.44-.05-1.03.96-.37 1.19-.2.85-.76 1.49-.3.08-1.09-.74-1.05-1.53-1.04-.79-1 .44-.5-.08-.5-.7-.7-1.28-.2-1.42-.66z"/>
    <path region="18" short-name="32" long-name="State House District 32" value="1" d="m797.39 918.2 7.25-.26.37-.68.8-.64-.02-.85 4.23-.13.05 2.11-.07 2 .03 2.44.22 8.4-16.8.44-.13-3.18 1.55-.05-.06-4.67.56.1 2.1.05z"/>
    <path region="19" short-name="43" long-name="State House District 43" value="1" d="M538.13 843.58h8.9l2.12.02 6.38.15.09-6.41 6.32.02.01-4.29.54-.02.07-2.35 5.86.01-.07 4.34.02 8.63h12.87l.1 12.79 2.78-.01-.59-.52 2.5-.1v.6l6.27.02 5.93-.1 8.5-.06v7.2l.05 5.58 2.21-.03 7.91.03 2.7-.05-.04 12.84 3.51.03 4.47-.03 17.34-.18 12.9-.06.04 12.8-10.74.07-7.88.1-9.2.06-9.42.1-4.26.02-9.37-.07-3.21-.08-7.6-.11-1.93.01-.03-6.42.04-6.37-6.96.02-6.38.1h-3.7l-8.46.02-12.64.23-16.74-.06-8.44.05-.08-4.21-.15-4.28-.13-1.89v-2.48l-.23-12.84-.19-11.18 1.13-.01.07 2.65.52.52.02.53 3.3-.05-.08-.57 1.03-.17.02.73h1.35l.68-.22.65.43-.05-1.72-.54-.09-.45-.63z"/>
    <path region="20" short-name="54" long-name="State House District 54" value="1" d="m832.82 839.71 1.85-.1 10.63-.31.24 8.69 4.3-.15.79.62-.21.58-1.13.31-.08.74 1.06-.04.25 2.07-4.85.18.2 3.85.32 9.15.19 5.6-1.53.06.04 1.03-.51.01.08 2.23-1.2.04-3.02.1-.03-1.16-1.88.04-.35 1.17-2.5.06.04-1.23.51-.05-.02-.76-.54-.16-1.56.19-.11-3.4.5.15 1.58-.34-.03-1.39.52-.3 1.14.77.75-.29v-.58l.47-.28 1.19-.62 1.33 1.24.76.3-.18-4.53-.18-6.17.82-.91.28-.7-.13-.95-.05-2.05-6.96.24-2.35.17-.1-3.35z"/>
    <path region="21" short-name="85" long-name="State House District 85" value="1" d="M539.54 830.75h3.16l6.52-.06 6.4.04-.35-14.97 3-.03.44.95 1.32.9 2.45.2 1.61-.5.85-.1.68.43.92 1.01-.17 1.6.94 1.66 1.1.66-.01 5.06.02 3.11-5.86-.01-.07 2.35-.54.02v4.29l-6.33-.02-.09 6.41-6.38-.15-2.13-.03-8.9.01.02-1.06h.52v-1.07l1.06-.01v-2.08l1.04-.05-.07-4.26h-1.1z"/>
    <path region="22" short-name="64" long-name="State House District 64" value="1" d="m919.99 771.91.23 1.97.04 2.31.43 1.87.83 1.59.28.78.01.9.77 4.3.8 2.65.39 3.78.36.8.13 1.52 1.03 1.58.59.62.86 2.7.63 1.19 1.82 3.85 1.5 2.66.46 1.7.31.44-.55.85-.06.53.49 1.35.76 1.08-.36 1.52-1.28 2.15-2 2.1-.91 1.63-.93 3.78-.62 2 .03 1.48-.62.07-.13.82.11 1.77-1.3.06.05 1.71-1.08.07.06 2-1.16-.23-.34 1.76-.56.47.5.37-9.91.4-1.3.13-.52-13.07-.52-13.08-.74.03-1.07-21.67-.21-3.92-.57-12.57z"/>
    <path region="23" short-name="41" long-name="State House District 41" value="1" d="m582.88 908.67 2.08 1.59v-.6l1.98-.01-.02-2.18 3.17.02.35.59-.02.7.74.34 1.17.02v-.82h1.07v-.83h2.1l.01 3.3-.06 2.04.1.99-.01 6.49.04 2.13-1.62.02v2.12h-.52v-.74l-.32-1.37-.34-.38-.91.37v-.74l.5.03v-1.17l-1.04-.3.01.6-.57.35v-.95h-2.17l.07-2.23-2.1-.02-.02 1.26-1-.08.01-.42-.53-.66h-2.18z"/>
    <path region="24" short-name="18" long-name="State House District 18" value="1" d="m826 887.56 1.05.06.18-.75-.13-.87-.58-.37.14-1.77 3.41-.24.07 1.65 10.42-.33-.05-1.57-.4-.55 4.63-.15 2.11-.06.18 5.31.51.24.06 1.94-.5.02.02.99-2.06.07-6.33.21-11.55.38-1.03.04.02-.46 1-.03-.02-1.09h-.54l-.53-.55z"/>
    <path region="25" short-name="17" long-name="State House District 17" value="1" d="m827.18 891.77 11.55-.38 6.33-.21.05 2.1-2.12.06.05 1.5-1.17.06.03.59-.92.02.04 1.06h-.54l.03 1.06-1.5.02-.03-1.05-1.4.05.04 1.05-2.85.17-6.34.2-1.93.05-.04-.88-2.28-.02-.04-1.12 2.1-.07-.06-2.12 1.06-.03z"/>
    <path region="26" short-name="60" long-name="State House District 60" value="1" d="m877.42 851.22 6.54-.19.15 4.3.02 2.15.13 4.32.05 2.14-2.16.01-1.65.2-2.75.06.08 1.33-.16 2.07.27.27-.17 1.02-3.89-1.3.03 1.02-2.12.12-.06-1.85-.07-2.5-.23-7.6h2.42l.67-.32.28.23 1.65-.17.04 1.24 3.28-.12-.06-2.15-1.08.03-.06-2.16-1.08.04z"/>
    <path region="27" short-name="91" long-name="State House District 91" value="1" d="m580.2 766.04 11.92-.06-.02-3.23.02-16.21.02-6.39h21.95l3.84.05 12.87.06 8.65.15 4.23.03 8.61.02 4.26-.03 12.93.01.1 12.93h-12.93l-.02 12.86h1.12l-.07 12.76-.05 12.86-12.88-.1-.01 12.98-12.8.05-1.23.1-4.66.12-6.92.13-.02-13.16-5.72.01-7.09.1-.03-13.02-6.41.01-15.43.15-4.09-.05z"/>
    <path region="28" short-name="23" long-name="State House District 23" value="1" d="m788.18 913.65.46.43.77.19 1.06-.95-.06-.48 1.01-.46.58-.45 1.06-.06 3.49-1.33h.83l-.08-4.99-.3-12.45-.31-6.36h.47l-.05-1.04.67-.05.54.36.26-.4.8-.03.39.25-.54.8.7-.02.1 2.04.54.05.1 2.11 4.2-.2.17 2.1 4.15-.19.08 1.99 2.14-.06.08 2.12 4.16-.37 1.05-.04.08 2.13-3.1.24.02 2.42.15 2.76-.5-.1-2.89 1.4-.8.08.23 6.33.13 4.22-4.23.13.02.85-.8.64-.37.68-7.25.26-2.5.07-.18.57-2.76-.67-1.53-1.6-.62.08-.27.54-.55-.46-.56-.69.02-.53-.87-.54.18-.8z"/>
    <path region="29" short-name="13" long-name="State House District 13" value="1" d="m865.72 882.07 2.31-.07-.14-4.34.23-.1 2.43-.1 1.5-.06.07 2.17.2 6.35-.06 1.12-.45.11.09 3.25.34-.03-2.1 4.31.4.24.35.71.88-.42.86 1.9-.95.32-.55-1.27-1 .17-1.06.64-1.1-1.17-.68-1.01.65-.03-.07-2.12-.64.03.04-1.35-.2-2.92-.04-4.16h-1.26z"/>
    <path region="30" short-name="9" long-name="State House District 9" value="1" d="m861.9 894.94.4.52 2.35-.07-.01-.53 2.65-.07.69 1.01 1.1 1.18 1.05-.65 1-.17.55 1.27.95-.32 1.97-.87.67 1.38.74-.37.68 1.41-1.38.65-3.73.89-.5.51-2.96 1.78-.7-1.31-.57.28-1.54 3.15-1.74 3.04-1.43.01-.22-.26-.49-1.44-.52.2-.5-1.18.8-.34.64.1 1.37-.74-.84-2.07-.11-.53-.95-1.91-.03-.84-2.17-3.64z"/>
    <path region="31" short-name="20" long-name="State House District 20" value="1" d="m821.06 866.21.16-.04 7.1-.27.1.51 1.59-.05.23-.53 1.86-.09-.05-1.13 1.61-.01.04 1.09 1.57-.06.54.37.01.57 1.05.44 1.86-.2-.48.28.01.58-.75.29-1.14-.76-.52.3.03 1.38-1.58.34-.5-.16.11 3.4.22 6.32-2.12.01-10.47.42v-.15l-3.11.11-.08-1.87.44-.09-.04-1.42-.47.16-.05-1.12-.63-.42-.06-1.59-.53.02-.17-3.18-1.06.04-.04-1.04-2.15.06-.02-1.66h-.7v-.54l8.06-.27z"/>
    <path region="32" short-name="57" long-name="State House District 57" value="1" d="m855.19 864.98 3.71-.15 5.1-.2.26.8.55.54.5-.17.04.94.92 1.27-.64.64-.15.87.18 6.01-.05 2.14-6.22.27-3.17.11.14 4.32h-.21l-.87.03-.2-5.4h1.19l-.06-1.85.91-.3-.24-7.56-2.12.07-.07-1.93z"/>
    <path region="33" short-name="105" long-name="State House District 105" value="1" d="m616.32 596.6.47-13.14.12-13.04 10.02.11 3.6.13 9.23-.13.27.02 15.84.04v-13.2l.2-13.23.08-4.5.06-8.84h-8.9l-4.32.04-.01-13.24 4.41-.07 8.8.1.07-2.3v-5.14l-.08-5.63-1.1-.03.04-5.1-.02-2.73.05-5.51 8.82.24 4.27.02 1.43-.03 6.76.14 5.05.17-.03-4.46.09-8.87 9.95.13 5.52.13 5.1.03 15.35.2h3.77l-.12 13.19-.11 10.97-.25 10.8-.06 4.65-.01 12.9v13.1l-.03 6.7.04 6.65 12.99-.08 10.9.06 16.22-.01.45-.06 11.63-.06.09 13.15.08 13.1h-13.02l-4.95.09-8.08.03-6.5.08-19.7.06.08 13.08.04 13.09.1 13.12.04 3.03.2 7.75-.18 2.25-12.88.01h-13.04l-13.02-.05-6.3-.01-6.24-.08h-3.68l-7.9-.1-7.05-.17-10.28-.2-10.13-.05H616.8l-.08-.03-.03-4.8-.09-4.48-.03-8.22z"/>
    <path region="34" short-name="70" long-name="State House District 70" value="1" d="m793.84 798.34 5.17-.1-.51 1 .02 1.88 2.13-.68-.01-.61.52-.01.38.54.14 1.6-.74.01-.41-1.3-.42.36-1.48.5-.09.48 1.6-.03v.54l.13 6.39-1.03.03.04 2.16-1.05.02.03 1.07-3.15.06.04 1.47-.1 1.74-5.32.13v1.11l-.77.02v.79l-.8.01v-.77h-.53l.06-1.12-1.9.05-.07-.86-.26-.17-.07-3.26h.88l.2-.75.51-.36h1.1l.95.77.62-.4-.55-.4.06-1.07-.48.02.28-1.4L790 806l-1.38-.54.38-.48-.1-.5.73-.64-.05-5.41.98-.01-.01-.59.77-.03v.59z"/>
    <path region="35" short-name="75" long-name="State House District 75" value="1" d="m695.84 817.89.03-13 15.7.1h9.6l.06 4.1.23.06.07 1.29-.28.19.08 5.51 9.17-.13.3 6.33.25 6.45.21 7.53.17 1.28-.04 4.92.76 8.9.16 3.19h-1.05l-.06-1.05-1.07.07-.15.47.04 1.1-.5.26-2.02-1.37.1 1.14-.54.48-5.5-.03.01-3.38-4.82-1.15-1.63-.59-2.74-.62-5.92-2.2v-1.07l-.49-.01-.02-2.02-.55-1.8.01-2.03.52.53h1.04l.53-.53v-1.6l1.09-.01-.02-8.57-3.73.05-9.07-.03z"/>
    <path region="36" short-name="76" long-name="State House District 76" value="1" d="m670.44 845.53 6.26.02 1.12.36 1.01 1.36-.13.62h-.7l-.22.86h1.06v-.82l.45-.32 1.67.09-.02-1.05 1.6-.02.02.62.54.43v-4.3l5.48.04h7.16l-.04 9.03.02 10.02.05 6.37.2 19.23.02 6.38-12.75.07-8.47-.02-11.66-.06-5.3-.01-.03-12.8-.05-5.34-.1-7.5-12.88.13-.06-12.81 12.15.1.75-.03 12.84.01z"/>
    <path region="37" short-name="78" long-name="State House District 78" value="1" d="m606.27 817.84 9.53-.06h3.38l-.02-9.5-.03-3.15 6.92-.13 4.66-.13 1.23-.09 12.8-.05.01-12.97 12.88.09.01 3.13-.06 9.73v13.12h12.8l.06 18.06v9.64l-.01 10.66h-12.84l-.75.02-12.15-.1.06 12.81 12.87-.13.11 7.5.05 5.34-12.9.06-17.34.18-4.47.03-3.51-.03.04-12.84-.12-9.2-.37-.51-.18-.9.54-.06.02-4.16-.05-.32-.02-10.45-12.7.12-.08-1.32-.05-7.2-.06-4.32-.22-9.96z"/>
    <path region="38" short-name="79" long-name="State House District 79" value="1" d="m568.41 830.71 1.52.03-.2.81.8-.12.01-.55 1.07-.1 3.19.07.6.28 1.46-.27 2.68.02.09 2.1.16.81.5 1.34.92.02-.02-4.24 4.2.04 8.53.03 4.6-.12 8.01-.15.06 4.31.05 7.21.07 1.32 12.71-.12.02 10.45.05.32-.02 4.16-.54.06.18.9.37.52.12 9.2-2.7.04-7.9-.03-2.22.03-.05-5.58v-7.2l-8.5.05-5.93.11-6.28-.01v-.6l-2.49.1.6.51h-2.8l-.09-12.77-12.87-.02-.02-8.62z"/>
    <path region="39" short-name="81" long-name="State House District 81" value="1" d="m580.5 805.23.03-1.04-.02-5.42 1.74.05v.5l1.1.07v.51l.85-.12.2.57 1.15.13.86-.24.66.18.89.67.9.04 1.09-.94.51-.04.8.87 1.14.82 1.23 1.2.61 1.64-.3.68h3.8l8.6-.08-.02 8.26-.05 4.3.04 2.91-.55-.54-1.12-.59-.76-.99-.83-.7-5.5.12-4.16.17-.01-3.29-1.65.36-2.07-.27-1.09.02-1.04.26-.39-.28h-.87l-.61.29v-.3l-1.87.01v-.76h-.53l-.6.41-.2-.74-.81-.25.27-.6v-.74l-.67-.02-.45-.52 1.17-2.14-1.77-.02.05-2.14.8-.68.4-.76.1-.83z"/>
    <path region="40" short-name="86" long-name="State House District 86" value="1" d="M522.2 830.84h1.32l6.46-.1 6.34-.02 3.22.03.06 4.3h1.09l.07 4.26-1.04.05v2.08h-1.07l.01 1.07h-.52l-.01 1.07-.36 3.04.45.63.54.09.05 1.72-.65-.43-.68.23h-1.35l-.02-.74-1.03.17.08.57-3.3.05-.01-.53-.53-.52-.07-2.65h-1.13l.2 11.2-8.26.02-.06.18.36-1.75.23-2.56-.06-5.55-.13-2.28-.3-2.02.07-2.16-.08-5.9z"/>
    <path region="41" short-name="88" long-name="State House District 88" value="1" d="m522.74 781.4-.1 8.57.1 2.15 6.37.06 8.56-.11 4.3-.03v10.8l.06 3.15.39 12 .28 12.75h-3.16l-3.22-.02-6.34.03-6.46.1-1.33-.02-.09-2.01-.33-2.13-.04-2.06-.18-3.16-.75-7.47-.34-2.75-.7-4.06-1.24-5-.76-1.55.08-1.01-.44-2.43-2.82-7.78-1.82-4.44-2.5-5.39.34-.54 3.72.07-.03 2.19h2.16l.04-2.14h.36l.05 2.15 1.47.01.06.63 1.02.01.1-.61 2.02-.07z"/>
    <path region="42" short-name="6" long-name="State House District 6" value="1" d="m848.72 878.28 2.15-.08.1 2.14 2.1-.1.06 2.16-2.94.11 2.04 2.9v1.29h-.26l.21 2.17h-.4l.05 1-.52.06.06 2.1 2.1-.05.1 3.18h-1.12l.03 1.07-.98.01.07 2.12-1.05.03.07 2.13-1.57.04v-.3l-.09-.28-.15-4.73-.11-1.04-.92.04-.03-1.05 1.57-.08-.31-8.44h-.35l-.03-1.05-.45.01-.1-2.13-1.24.03-.03-1.07 1.91-.05-1.47-2.08z"/>
    <path region="43" short-name="93" long-name="State House District 93" value="1" d="M669.59 753.37h12.77v12.93l11.47.06-.01 2.16h1.06v1.07h1.07v-1.08h1.93l.27-1.33 1.87 2.52v-2.79l-.31-.54h8.36l.01-15.12-.03-10.8 12.83.01.01-2.3 8.53.01 12.98-.08 15.77.18 5.29.1v2.19l-6.33-.05-1.94-.05v2.14h-1.03l-.04 1.31 1.08.09.55.74 1.86.05.01.25 3.72 1.93v2.13l-5.56-.1.56.48.93.43 1.22 1 .74.34 2.13.17 1.22 1.01.74.19 1.2-.29-.34.6-.76.19-.8.55.67.32.59.6.75.3.75.65 1.08-.35.55.4.82.23.2 8.14.12 12.97-12.83.1-12.8.64-12.72.03.08 4.27.12 8.5-8.9.07.06 14.45h-9.58l-15.7-.1-.04 13-10.64-.03-14.82-.04-12.8.01v-13.12l.06-9.73v-3.13l.04-12.86.07-12.76h-1.12l.02-12.86z"/>
    <path region="44" short-name="96" long-name="State House District 96" value="1" d="m778.94 710.63.33-1.02.73-.34.65.62-.2.8-.63-.1-.37.39zm-36.2-23.86 1-.02 12.12.13h3.2l10.15.1.1 1.12-.66 2.48.17 1.9-.31 1.59-.53.6-.48-.08-.6 1.53-1.13-.09-.26.48.28 1.58.58 1.6 1 3.6 2.84 5.65.82 1.13 1.5 1.14 3.82 2.35.63.63.41-.05-.14-.93.4-.59.82-.03.23.58 1.3.75.63.1.19 1.23 1.55.34.48-.12 2.77.81.94.6 2.86 1.05.65.69 2.07 1.68.93 1.83.18.08.08 16.33-12.83-.01.04-6.45-10.67-.04-14.56-.21.1-6.45.15-12.84-6.42-.06-6.37-.1.02-12.82z"/>
    <path region="45" short-name="10" long-name="State House District 10" value="1" d="M862.14 907.66h1.43l1.74-3.05 1.54-3.15.56-.28.7 1.31 2.98-1.78.5-.51 3.72-.9 1.38-.64.52-.29.34-.64.84-2.42.05-.43-.63-.34.37-3.43.23-.87 3.62-.03.31-1.09.64.53-.65 1.92.07.91-.53.94-.77 3.03-.3 1.5-.58 1.26-1.06 1.08-1.22.57-.91 1.54-.11.77-.87.75-2.5.37-.94-.07-.28.4.47.4.9.11.05.29-.63 1-3.12 1.12-2.66.15-1.4.36-4.04 1.76-.27-.7 1.45-.63z"/>
    <path region="46" short-name="16" long-name="State House District 16" value="1" d="m828.43 898.06 6.34-.2 2.85-.16-.04-1.05 1.4-.05.03 1.05 1.5-.02-.03-1.05h.54l-.04-1.07.92-.02-.03-.6 1.17-.04-.05-1.51 2.11-.07.1 4.23.07 2.1-2.07.07.2 2.1.02 1.05-1.34.03.04 1.04-2.03.05-3.9.16-1.19.11-4.2.14-.05-1.4-2.13.06z"/>
    <path region="47" short-name="19" long-name="State House District 19" value="1" d="m821.54 879.21 10.47-.42 2.12-.01-.22-6.31 1.56-.19.54.16.02.76-.51.05-.04 1.23 2.5-.06.35-1.17 1.88-.04.03 1.15 3.02-.1-.48.22.01 1.27.44.6.1 1.13 1.5-.12-.23 1.08.14 4.23-4.64.15.4.55.06 1.57-10.42.33-.07-1.65-3.4.24-.15 1.77.58.37.12.87-.17.75-1.05-.06-.07-1.58-.37-.53-.03-.75.35-.36-.05-1.04-4.15.15z"/>
    <path region="48" short-name="21" long-name="State House District 21" value="1" d="m818.42 879.17 3.11-.1v.14l.15 4.24 4.15-.15.05 1.04-.35.36.03.74.37.54.07 1.58.08 2.12.53.55h.54l.02 1.1-1 .02-.02.46-3.14.11-13.82.6-4.15.2-.16-2.12-4.2.21-.11-2.11-.54-.05-.1-2.04-.06-1.6 2.1-.1.49-.55 6.38-.28 4.8-.25-.05-1.1.5-.5 1.05-.04v-.52l4.26-.2-.05-1.06-1.04.06z"/>
    <path region="49" short-name="22" long-name="State House District 22" value="1" d="m809.19 892.52 13.82-.6 3.14-.11 1.03-.04.06 2.1-1.06.04.07 2.12-2.11.07.04 1.12 2.28.02.04.88 1.93-.06.19 4.95 2.13-.07.05 1.4-8.45.27-11.89.4 2.88-1.4.51.1-.14-2.76-.02-2.42 3.1-.24-.08-2.13-1.06.04-4.15.37-.09-2.12-2.14.06z"/>
    <path region="50" short-name="25" long-name="State House District 25" value="1" d="m822.35 904.61 8.45-.26 4.2-.14 1.19-.11-.19.52.11 1.69-1.04.03-2.67.12-1.03.46-.61-.42-1.45.03.08 2.1-1.06.03-.52.21.11.75.43.1.04 1.07-1.58.03.06 2.1 1.05-.03.04 1.06 3.14-.1.1 3.17-7.38.2-1.1.1-8.49.3v-2.13l1.2-.01-.04-1.1.9-.03-.04-1.05 1.05-.02.03.47 1.07-.03.02.58 3.67-.13-.03-1.06.54-.05z"/>
    <path region="51" short-name="29" long-name="State House District 29" value="1" d="m818.93 965.5 1.49-3.52 1.72-4.3.54.3h.74l.15-.35-.2-14.43-.18-9.68-.1-3.67 10.54-.22-.26-8.93 2.12-.71-.08-3.08 8.33-.24.29 8.28-7.38.3.2 4.24-1.11.1.13 6.33.06 4.9.23 11.9-1.04.02v1.04l-3.1.06v1.02l-1.47.02-1.97 3.87-.23.19-.92 1.6.93.65 2.57-.05-1.28 2.12-.09.75.44 1.45v.81l-.29.4-.97.3.65-1.02-1.02-.4.25-.8-.63.12-.7 1.36-.57-.29-.05-.55-.9-.2-.74-.64-1.07 2.57-1.2-.32-1.34.18-.6-.56-.85-.13z"/>
    <path region="52" short-name="34" long-name="State House District 34" value="1" d="m721.6 945.28 12.48.03 7.32-.08 5.17.32 13.36-.29-.02-.64h.95l11.86-.35.36 11.58.06 3.16-.04 3.64.05 1.65v5.27l.07 6.3 4.27-.06 4.12-.09.12 6.35 4.2-.14.12 3.4.33 10.7-10.4.34-2.25.16-2.1.02-10.7.46-2.2.02-12.43.54-12.44.46-11.96.45-.04-4.55-.1-15.87 4.08-.08-.03-1-.51-.46-.56-.1-.04-1.03-.65.01-.15-.51h-1.33l-.13 1.07-.7-.32-.05-17.68z"/>
    <path region="53" short-name="35" long-name="State House District 35" value="1" d="m621.15 945.56 4.15-.06 8.46-.09h5.18l8.44-.04 15.24.06h8.96l12.63.3 14.52-.21 8.9-.12 1.59-.04 6.2-.02 6.17-.06.1 12.68.05 17.68.7.32.13-1.06 1.33-.02.15.52h.65l.04 1.03.56.09.5.46.04 1-4.08.08.1 15.87.04 4.55-8.38.25-14.55.42-19.12.54-6.05.31v-.96l-.02-5.84.03-2.47-2.09.03-11.58.04-4.35.05-7.02-.06-.18-.03-8.4.04-5.93.01-12.95-.05.01-7.36-.03-13.64-.07-9.52v-5.6z"/>
    <path region="54" short-name="36" long-name="State House District 36" value="1" d="m533.18 990.68.03-7.32.05-6.3.05-16.27.97.14.56.35.02-.92h.79l.1-.98-.34-.07-.02-.98h10.45l-.08-12.56 6.1.07 11.82.05h6.8l12.7-.15h5.16l7.38-.06 12.74-.08 12.7-.04.05 9.08.01 5.6.07 9.52.03 13.64-.01 7.36-9.39.02-14.77.07-.25-.02-9.64.06H567.41l-8.7-.04-12.88-.08-7.7-.09z"/>
    <path region="55" short-name="39" long-name="State House District 39" value="1" d="m530.9 882.1 8.44-.05 16.74.06 12.64-.23 8.46-.01v5.8h-.8l-.55 2.66h1.39l.04 3.72-.25.54-6.72.04v5.72l-.08 7.3-.03 4.26-.03 8.43.15 12.74.18 12.8h-6.8l-11.82-.04-6.1-.07-7.35-.04-5.17-.06-10.87-.09-14.12-.13-.02-5.29-.05-1.96.02-9.26-.05-8.35 4.2-.07 8.4.01-.01-10.53-.1-6.56-.1-8.61 6.19.06 4.22-.02v-4.25z"/>
    <path region="56" short-name="42" long-name="State House District 42" value="1" d="M577.18 881.87h3.7l6.38-.12 6.96-.01-.04 6.37.03 6.42 1.93-.01 7.6.11 3.21.08 9.37.07 4.26-.02-.07.06.12 6.28.07 6.38-5.5.02-7.15-.03.06 4.8.93-.05.02 1.66-.43.7-.5-.05.09 6.8.1 11.65.14 12.62-12.74.08-7.38.07-5.16-.01-12.7.14-.18-12.8 2.4.01 7.14-.09 5.18.07h10.58l.02-3.67-.04-6.96-.04-2.13.01-6.5-.1-.98.06-2.04v-3.3h-2.11v.83h-1.07v.82l-1.17-.02-.73-.34.02-.7-.36-.6-3.17-.01.02 2.18h-1.98v.6l-2.08-1.58-.02-1.09-1.7-.06.03 1.32-.9-.05v.91h-1.09v.46l-.99.06v.6h-2.61l-.02.53h-.57v.55h-.68v1.01l-1.63.05-.01-.77-.3-.3-2.21.02.03-4.27.09-7.29v-5.72l6.71-.04.25-.54-.04-3.71-1.4-.01.56-2.66h.8z"/>
    <path region="57" short-name="44" long-name="State House District 44" value="1" d="m620.59 894.76 9.41-.1 9.2-.06 7.88-.1 10.74-.07h5.3l11.64.07 8.48.02v12.71l.17 12.79-1.74.05-.36.44.08 1.66h-4.24l-.08-2.15h-5.63l-.1-12.74-12.61.01-12.64.08-9.38.02v.39l.91-.2.02 1.26-.5.9-.53.2v1.67H634l-.51.51.04 7.96-5.14-.04-7.6.1-.09-12.66-.07-6.38-.12-6.28z"/>
    <path region="58" short-name="46" long-name="State House District 46" value="1" d="m733.77 905.28.02 6.06 11.27-.16 1.58.12-.03-4.45 1.98.05 1.46-.18 2.06-.13 4.27.06 1.68-.09 1.11-.2.02 2.1.44-.63.75-.1-.09 1.44.66.03v.65l-.51.01-.26.59.03 2.4-.9.1-.08 1.84.11 4.76-2.14.08h-3.3l-1.1-.1-2.47-.03-3.64.06-.03 1.1-2.02-1.03-5.1.08-.03-1.19-.73.36v-.76l-.99.18v.38l-.62 1-2.14.13-1.22.31.12 7.27-4.2-.03-.04-2.15h-4.67l-3.58-.04-.01-2.3-1.06.2-3.66.07-.02 1.54.54.02.02 1.45-.63-.43.08-.47h-2.12v-.54h-.65l-.54-.29-.53.7-1.65.2-2.47-.07-.1-5.29.05-12.77 12.71.02.01 2.83.59-.61.55-.01.59-.63.63.31 1.07.03.7.27 1.32-.56.6-.51.25-.68.6.09.63-.37.66-.68-.27-.53.15-.62.6-.82.58.12-.2.56 1.2-.07 1.28-.59z"/>
    <path region="59" short-name="50" long-name="State House District 50" value="1" d="m743.74 842.43 9.5-.18 10.62-.27 9.48-.29 8.48.08.1 4.58.17 2.11.12 2.78h.79l.71 1.44.6-.52.54-.08.5-.54-.02-1.09.59-.03-.15-1.02.03-1.13 1.57-.07v1.07l1.09-.06 1.05.58.02.55 2.3-.16-.06 2.18-.52.03.03 1 .6.2 1.02-.03.01.9 2.15-.11.2 4.55.41 8.56-7.23.41-5.59.2-7.8.2-4.73.07.27.65-.14 1.69-.36.09.13 6.44.51 11.55-2.54-.01-.03-.52-2.52.07-.22.5.17 1.81-.25.88.8-.02.56.54.09 2.12-7.6.04-13.57-.1-.01-6.38.02-6.11-.12-4.93-.4-9.14-.62-13.67-.35-5.92z"/>
    <path region="60" short-name="59" long-name="State House District 59" value="1" d="m858.47 851.86 8.58-.24 3.23-.12.99-.14 6.15-.14.07 2.2 1.08-.05.06 2.16 1.08-.03.06 2.15-3.28.12-.04-1.24-1.65.17-.28-.23-.67.32h-2.42l.23 7.6-2.12.06-.07-2.12-2.17.06-.05-2.12-2.09.02.08 2.99-1.22.26-.46.6-1.16-1.44-.24-.1-3.34.09z"/>
    <path region="61" short-name="61" long-name="State House District 61" value="1" d="m871.73 866.9.06 1.84 2.12-.12-.02-1.02 3.88 1.3.17-1.02-.27-.27.16-2.07-.08-1.33 2.75-.06 1.65-.2h2.16v1.28l-.47.03-.1 1.67.52.2-.1 1.94-.26.67-.67-.23-.04.87-.57.5-.71.2-.57-.5-2.18 5.44-1.75.04-.57.13.02 1.07-.49.01-.07-2.15-4.31.14.06 2.14-1.5.06-.17-.87.09-.89.5-.38-2.57.12.3-.29-.07-2.72-1-.28-.02-.97 1.02-.04v1.03l1.23-.02-.32-1.2.18-1.01-.04-1.51.58.08.44-.78-.04-.93z"/>
    <path region="62" short-name="65" long-name="State House District 65" value="1" d="m843.72 787.54 6.36-.22 6.36-.26-.43-15.18-.09-4.33 12.8-.18.09 5.4.11 4.96.26 9.01 17.41-.61 4.76-.18 9.56-.42 6.38-.25.21 3.92 1.07 21.67.74-.03.52 13.08.52 13.07.24 6.55-8.38.34-4.5.22.22 6.54-7.28.22-6.69.18-6.54.18-6.15.14-.4-15.24-.03-2.12-.18-3.96-.01-2.47-.11-2.38-2.09.09-2.22.38-8.56.28-4.41.12-4.05.18-4.4.16v-3.7l-.38-9.15.42-.02-.55-13-.36-7.19z"/>
    <path region="63" short-name="67" long-name="State House District 67" value="1" d="m818.94 762.04 11.57-.21.3 12.9 12.58-.36.33 13.17.22 5.8.36 7.2.55 13h-.42l.37 9.16.02 3.7-9.03.32-10.83.3-5.13.13-.25-7.48-.12-4.7-.25-12.84-12.68.27-.06-.75-.03-3.53h-2.13l.1 4.32-2 .09h-2.26l-.02-.55-1.59.03.09-.48 1.48-.5.42-.37.4 1.31.75-.01-.14-1.6-.38-.54h-.52l.01.61-2.13.69-.02-1.89.51-1-5.17.11-.03-5.28.76-.12-.02-2.15-.75.03-.04-4.73-.05-.72-.03-8.6 12.31-.2 13.04-.05-.04-10.78z"/>
    <path region="64" short-name="69" long-name="State House District 69" value="1" d="m768.3 783.49 3.01-.01-.06-1.07 2.16.02-.03 1.04 12.41-.2.07 2.19.41 1.18.1.96 1-.02-.03-4.3.23-.51.75-.01.05-.54 2.16-.01v2.15h-.42l.2 1.08 3.4-.07.05.72.04 4.73.75-.03.02 2.15-.76.12.03 5.28-2.51.05v-.59l-.77.03.01.59-.98.01.05 5.4-.74.65.1.5-.37.48 1.38.54-1.05 1.8-.28 1.4.48-.02-.06 1.06.55.42-.62.39-.95-.77h-1.1l-.5.36-.2.75h-.89l.07 3.26.26.17.06.86-5.52.1-.76.6v.6l-1.39.02-1.52.53-.01-.59.52-.4.12-.67h-5.96l-2.76.06.05-12.98-.08-13.05z"/>
    <path region="65" short-name="92" long-name="State House District 92" value="1" d="m682.17 688.4 13.22-.05-.1 13.07-.13 15.22.03 2.15v8.63l.03 13.05 12.83-.03.03 10.81-.01 15.11h-8.37l.31.55.01 2.8-1.87-2.53-.27 1.33h-1.93v1.07l-1.07.01v-1.08h-1.06l.01-2.15-11.47-.07v-12.93l-12.78.01-.1-12.93h-12.93l-4.26.02-8.61-.02-.08-12.85-.08-13.03-.1-12.93-.1-5.04-.06-7.99 8.63-.04 4.3.03 8.85-.04z"/>
    <path region="66" short-name="12" long-name="State House District 12" value="1" d="m872.12 879.57 6.16-.18-.67 1.13v1.05l.13 2.17-.07 1.39.07 2.14-.42.52-.84 2.47-1.3.06-2.62 4.59-.79.3-.89.42-.33-.7-.41-.24 2.1-4.32-.34.03-.09-3.25.45-.1.06-1.13z"/>
    <path region="67" short-name="31" long-name="State House District 31" value="1" d="m772.72 944.27 12.5-.3-.04-2.1.35-.01.16 1.07.52-2.03 1.04.13.51-.29-.21-2.28.67-.02.06-.88.97-.01-.19-6.41 4.38-.1 16.8-.44-.21-8.41-.03-2.45.07-1.99 4.16-.13 8.5-.3.09 1.3.18 7.06 4.63-.09-.02-.86 1.28-2.35.61-.39 3.87-1.29.26 8.93-10.54.22.1 3.67.17 9.68.2 14.43-.13.34-.75.01-.54-.3-1.72 4.3-1.49 3.51-.07-.03-2.23 5.4-5.54.12-.08-2.17-12.58.21-.04-2.1-1.1-.03-2.25.1-2.96.04-4.27.14-2.2.03-.15-11.62-12.38.26z"/>
    <path region="68" short-name="80" long-name="State House District 80" value="1" d="m583.14 826.42.01.24h4.23l-.07-2.05-.55-.02-.05-1.6.79-.1.74.15-.01-.63.64-1.05.94.04.05 1.03h1.6l-.1-2.14h-1.08l-.08-2.1-.95.02-.24 1.02-.84.01-.04.51H586l.27-1.08-.36-.44h-1.04v-1.07l-1.06-.27v-.8h.85l.2-.36.7-.06.1-.36.61-.3h.87l.39.29 1.04-.26 1.1-.02 2.06.27 1.64-.36.02 3.3 4.16-.18 5.5-.13.83.71.76 1 1.12.58.54.54.23 9.96-8.02.15-4.59.12-8.53-.03-4.2-.04-.12-4.8h1l.01.53z"/>
    <path region="69" short-name="73" long-name="State House District 73" value="1" d="m695.77 868.84 12.84.03-.06-12.64-1.57-.01-.02-2.62h.54v-.57l-1.04-1.07h-.66v-1.1l-.6-.56v-1.54h.73v.54l.7.16.11-.7-.28-1.03 5.92 2.2 2.74.63 1.63.59 4.82 1.15-.01 3.38 5.5.03.53-.48-.1-1.14 2.02 1.37.51-.25-.04-1.1.15-.48 1.07-.07.06 1.06 1.05-.01-.16-3.2-.76-8.9 9.23-.03 3.11-.05.41 5.49.35 5.92.63 13.67.4 9.14.11 4.93-.02 6.1.01 6.38-6.43-.03-5.41.01-12.35.01v.37l-4.72.02H696l-.03-6.37z"/>
    <path region="70" short-name="100" long-name="State House District 100" value="1" d="m616.7 635.87.1.04 13.76-.01 10.13.06 10.27.19 7.05.17 7.91.1h3.68l6.23.08h6.3l.02 8.46.06 10.92.06 6.55v12.99l-.1 12.98-17.13.15-8.85.04-4.3-.03-8.63.04.06 7.99.1 5.04.1 12.93.08 13.03.08 12.85-4.23-.03-8.65-.15-12.87-.07-3.84-.04h-21.95l-.03-18.07.04-7.85-.06-2.19v-10.7l.04-13-12.86-.02-.05-12.92.02-6.37-.01-6.55-.07-13.02-.11-9.7-.02-3.82 7.75-.06.58-.03 4.54.05 19.3-.03 4.21.05z"/>
    <path region="71" short-name="53" long-name="State House District 53" value="1" d="m820.91 861.9 1.99-.08-.05-1.07 2.13-.09.04 1.08-.39.61.24.45 4.05-.14-.03-1.05-.43-.14-.02-1.1 2.4.09.55.48-.05-1.53 1.18-.08.3-.34.64.3-.08-3.22 2.67-.16-.37-1.07-.03-1.01-1.07.06-1.3-.39-.02-.67 2.35-.17 6.96-.24.05 2.05.13.95-.28.7-.82.9.18 6.18.18 4.53-.76-.3-1.33-1.24-1.2.62-1.85.2-1.05-.44-.01-.57-.54-.37-1.57.06-.04-1.1-1.6.02.04 1.13-1.86.09-.23.53-1.58.05-.12-.51-7.09.27-.16.04z"/>
    <path region="72" short-name="49" long-name="State House District 49" value="1" d="m782.85 868.07 5.59-.2 7.23-.41.18 3.73.5 8.97 12.31-.63-.2-4.2 3.3-.15.52-.54 1.24-.2.85-.42.1 2.1 1.07-.04.56.52 1.07-.07-.07-1.52.5-.6.63.42.05 1.12.46-.16.05 1.42-.44.08.07 1.88-.1 1.3 1.03-.06.05 1.07-4.26.2v.5l-1.05.04-.5.51.04 1.1-4.8.25-6.38.28-.48.54-2.1.11.07 1.6-.7.03.53-.8-.39-.27-.8.04-.26.4-.54-.36-.67.05.05 1.05h-.47l.31 6.35-8.64.4-2.19-.13-2.39.11-.07-1.18-.28-7.65-.13-1.62-.13-5.23-1.7-1.14.01-1.16 1.6.16z"/>
    <path region="73" short-name="56" long-name="State House District 56" value="1" d="m846.19 865.3 9-.32-.5.45.07 1.93 2.12-.07.24 7.55-.91.3.06 1.85-1.2.01.2 5.4h-2.14l-.07-2.16-2.08.1-.1-2.14-2.16.08v-.6l-.83-1.24-1.76-2.28-1.67.07-.08-2.23.5-.01-.04-1.03 1.54-.07z"/>
    <path region="74" short-name="63" long-name="State House District 63" value="1" d="m883.96 851.03 6.7-.17 7.27-.22-.22-6.54 4.5-.22 8.38-.34-.24-6.55 1.3-.13 9.92-.4-.51-.37.56-.47.34-1.76 1.16.23-.06-2 1.08-.07-.05-1.7 1.3-.06-.11-1.78.13-.82.62-.07.16 2.7-.08 1.12-.4 2.17-.65 1.71-.42 2.44.1.57 1.02 2.76.55 2.53-.08 1.08-1.68 4.11-.05 2.28-1.15 2.52-1.78 5.33.11 4-.95 3.43-.71 1.2-2.47 2.03-.66 1.06-2.73 2.83-.47 1.66-.69.45-1.66.4-.37-.12-.86-.83-.78-.36-1.01.05-1.01.36-2.08 1.92-.56 1.1-1.25 1.69-.26-1.2.21-.75.93-.36.71-1.21 1.42-1.04.36-.88-.53-.8-.92-.56-.6.28-.98.76-.8.88-.46-1.55.72-.62-.01-.64.64-.68.47.35.31-.62.67-.06.38-1.36-.28-.75-.95.4-.82-.61-1.1 1.19-1.5.48-1.07-.72-.2-1.03 1.31-1.28 1.48.04.84-.86.34-.58-.58-.36-.22-.64-.67-.6 1.56.06 1.07.37.09-1.17.3-.5.65-1.73.32-.47 1.14.92.36.63.87-.31.49-.78.36-1.25-.08-1.39-.76-1.17-.48-.32-1.37.05-.57.44-.7-.94-1.57-1.24-1.21-.44-1.67.07-.88.88-1.86.12-1 1.05.01.4-1.24.01-.68.45-.73.87-.02 1.07-2.22.63-1.25-.42-.53.16-.9.77-.2.4-.08-.03-2.87-3.24-.25-.21-.8 1.35.31 1.11.6.02-.5 1.1-1.7.08-.14-4.32-.02-2.14z"/>
    <path region="75" short-name="101" long-name="State House District 101" value="1" d="m538.05 635.45 2.14.12h2.92l7.56.29 2.71.06 10.82.08v-6.37l-.03-2.52.04-4.23-.02-3.78.06-6.93-.02-4.55.03-3.47.16-7.4 6.5.03 6.52-.05 2.88.04 10.03-.06 6.43.02 6.47-.08h11.4l1.67-.04.24 21.76.03 8.22.08 4.48.04 4.8-1.3.05-4.21-.05-19.3.03-4.54-.05-.58.03-7.75.06.02 3.83.1 9.69.08 13.02.01 6.55-.02 6.37.05 12.92 12.86.01-.03 13-.01 10.71.06 2.2-.04 7.84.03 18.07-.02 6.39-.02 16.2.02 3.24-11.93.06-4.27.08-4.27.01-6.31.05-11.81-.04-4.3-.03-8.55-.02-.01-12.93-.04-12.9-.03-12.92.06-12.97-6.82-.04-1.2.04-4.81-.15.04-4.32-.05-8.7-.04-12.91-.11-3.16.16-5.7-.12-4.32-.11-12.9.03-6.53-.03-1.02v-7.74l.08-7.27-.05-.2v-4.44z"/>
    <path region="76" short-name="82" long-name="State House District 82" value="1" d="m582.67 814.67.59-.4.53-.01v.76h1.87v.29l-.1.36-.7.06-.2.36h-.85v.8l1.06.27v1.07h1.05l.35.44-.27 1.07 2.13.01.04-.5.84-.02.24-1.02.95-.01.08 2.1h1.08l.1 2.12h-1.6l-.05-1.02-.94-.04-.64 1.06.01.62-.74-.15-.79.1.05 1.6.55.02.07 2.06-4.23-.01-.01-.24-.02-.84.5-.58-.46-.48-3.5-.06.08-1.07 1.25.02-.11-3.2-.53-.01-.05-1.27-.76-.34.8-2.6h-1.15l.65-1.05 2.1.05z"/>
    <path region="77" short-name="95" long-name="State House District 95" value="1" d="m695.38 688.35-.04-12.95 5.52-.04 9.64.16 10.82.07.02-2.04 8.47.2v3.37l-.05 2.88-.06 6.51 8.74.13 4.3.13.05 12.79-.02 12.82-.04 6.63.69.77.62.02v1.09l-1.33-.04-.05 4.3-.13 5.42-.13 7.52-12.98.08-8.53-.02v2.31l-12.84-.02-12.83.03-.02-13.05-.01-8.63-.03-2.15.13-15.22z"/>
    <path region="78" short-name="11" long-name="State House District 11" value="1" d="m871.77 895.21.79-.3 2.61-4.6 1.32-.05.83-2.47.42-.52-.07-2.14.07-1.39-.13-2.17 4.23-.09-.36 1.4-.11 3.13-.11.45.79.67.16 1.73.13.26-.3 1.1-3.63.02-.23.87-.37 3.43.63.34-.05.43-.84 2.42-.34.64-.52.3-.68-1.42-.74.37-.67-1.38-1.97.87z"/>
    <path region="79" short-name="83" long-name="State House District 83" value="1" d="M568.4 827.6h1.07v.49h.8v-.52l3.36.03.13-2.15-.15-.1-.09-5-.8.83-.23-.93 1.02-.41v-.46l1.4-.64 1.3-1.51 1.38-.27.93-.43.67-.53 1.15-.01-.8 2.6.76.34.05 1.27h.53l.1 3.21-1.24-.02-.08 1.07 3.5.06.47.48-.51.58.02.84-1.06.22-.01-.54h-1l.12 4.81.02 4.24-.92-.02-.5-1.34-.16-.82-.09-2.1-2.68-.01-1.46.27-.6-.28-3.2-.07-1.06.1-.01.55-.8.12.2-.8-1.51-.04z"/>
    <path region="80" short-name="89" long-name="State House District 89" value="1" d="M522.74 781.4v-2.2l6.5-.02.1-7.55.03-5.67 11.32.13 8.55.02 4.29.03 11.8.04 6.32-.05.09 9.85h1.05l-.03 1.07.22.54-.16.54h-1.05l.02 1.09-4.3-.04.16 12.9.13 9.8-.06 3.08.35 6.5.1 4.57.24 6.5-1.1-.65-.94-1.66.17-1.6-.92-1-.68-.44-.85.1-1.61.5-2.45-.2-1.32-.9-.44-.95-3 .03.36 14.97-6.4-.04-6.53.05-.28-12.76-.39-11.99-.05-3.15v-10.8l-4.3.02-8.57.11-6.38-.05-.08-2.15z"/>
    <path region="81" short-name="71" long-name="State House District 71" value="1" d="m768.15 776.93.15 6.56.17 6.4.08 13.06-.05 12.98 2.76-.06h5.96l-.12.67-.52.4.01.6 1.52-.53 1.38-.02.01-.6.76-.6 5.52-.11 1.9-.05-.05 1.12h.52l.01.77.8-.01v-.79l.78-.02.11 3.4-.31-.14-3.96.07.11 4.32 2.67-.04.06 2.16h-.54l.05 2.17-6.48.15.17 6.43.1 2.19.1 4.36-8.48-.08-9.48.3-10.62.26-9.5.18-3.12.05-9.23.04.04-4.92-.16-1.28-.22-7.53-.24-6.45-.31-6.33-9.17.13-.08-5.52.28-.18-.07-1.3-.23-.04-.07-4.11-.06-14.45 8.9-.07-.12-8.5-.08-4.27 12.72-.03 12.8-.63z"/>
    <path region="82" short-name="1" long-name="State House District 1" value="1" d="m850.43 917.44 1.26-2.08-.95-1.57 1-.41.05-.4.67-.16.4.54.51-.27.25-.68-.22-.9.29-.5-.78-1.59-.68-1.25-.36.13-.04-1.42.77-.5.22-1.69.42-.01-.05-1.06.64-.02-.04-1.17.89.31 2.35-1.2 1.32-.58.41.84-.3.15.74 1.49.6.1.6 1.44.5 1.18.53-.2.49 1.44.22.26.94.82-1.45.63.27.7-1.8 1.47-2.08 2.87-1.6 4.4-1.45-1.02-.6.5-.92-.3-.13.48-1.07-.74-.86 1.37z"/>
    <path region="83" short-name="7" long-name="State House District 7" value="1" d="m849.02 900.56 1.57-.04-.07-2.13 1.05-.03-.07-2.12h.98l-.03-1.08h1.12l-.1-3.18-2.1.05-.06-2.1.52-.06-.05-1h.4l-.21-2.16.26-.01v-1.29l-2.04-2.9 2.94-.11h2.15l.87-.02.06 1.76.59 2.42-.02 2.16-1.29.04v.24l1.08 1.8-1.25.06 2.09 4.2-1.8.05 1.4 2.76-.46.34.27.52-.96.48-1.06.25.48.98-1.36.7-.15.4-1.31-.02-3.44.1z"/>
    <path region="84" short-name="5" long-name="State House District 5" value="1" d="m843.26 874.27 1.2-.04 1.67-.07 1.76 2.28.83 1.24v.6l-1.5.06 1.47 2.08-1.91.05.03 1.07 1.24-.03.1 2.13h.45l.03 1.05h.35l.3 8.43-1.56.08.03 1.06.92-.05.11 1.04.15 4.73.08.28-.98.42-.64.02-.07-3.26-2.12.06-.1-4.23-.04-2.1 2.07-.06-.02-1 .5-.01-.07-1.94-.51-.24-.18-5.31-2.1.06-.15-4.23.22-1.08-1.5.12-.1-1.13-.43-.6-.01-1.27z"/>
    <path region="85" short-name="90" long-name="State House District 90" value="1" d="m571.65 766.13 4.28-.01 4.26-.08.15 13.13 4.09.05 15.43-.15 6.4-.01.04 13.02 7.1-.1 5.71-.01.02 13.16.03 3.15.02 9.5h-3.38l-9.53.06.05-4.3.02-8.26-8.6.07h-3.8l.3-.67-.61-1.63-1.23-1.2-1.14-.83-.8-.87-.51.04-1.09.94-.9-.04-.89-.67-.66-.18-.86.24-1.14-.12-.21-.58-.85.12v-.5l-1.1-.08v-.5l-1.74-.05.02 5.42-.04 1.04-4.74-.06-3.73-.12-4.3-.09.06-3.08-.13-9.8-.16-12.9 4.3.04-.02-1.08h1.05l.15-.55-.21-.54.03-1.07h-1.05z"/>
    <path region="86" short-name="28" long-name="State House District 28" value="1" d="m844.03 924.95.03 1.05.09 3.15 1.07-.02.08 3.2-.85.24.1.81h.77l.19 6.3-1.03 1.85-.03 1.9-.44.69 3.62-.14.61.67-.21 1.72.59 2.03-.1 1.12-.84.64-.48.14-1.1-.69-.28.35 1.02.91 1.04 1.23.85-.01.43 1.07-.44 1.5-.64-.36-.54-.8-.42-.22-.87.5.46.87-.4.41-.18 1.47.38.58-1.05.52-.1-.63-.48-.5-1.38.26-.24.5 1.23-.04-.19.44-1.2.95-.5.57-.85.58-.72 2.05-.19.96.56 1.15-1 .82-.3 1.25-.47-1.3-1.57-.68-1.33-.05-.47.12-1.43.98-.48.47-.64-.73-1.66 1-.53-.57.68-.7-.02-1.32-2.53.05 1.28-2.12-2.57.05-.93-.64.92-1.61.23-.2 1.97-3.86 1.47-.02v-1.02l3.1-.06v-1.04l1.04-.03-.23-11.88-.06-4.92-.13-6.33 1.1-.1-.2-4.24z"/>
    <path region="87" short-name="68" long-name="State House District 68" value="1" d="m800.15 802.52 2.27.01 1.99-.09-.1-4.31 2.13-.01.03 3.53.06.75 12.68-.26.25 12.82.12 4.7.25 7.5.38 12.93.01.48-6.27.2-3.26.09-3.27.2-.3-12.85-6.4.14-.04-2.62-.19-.78.24-.9-.72-.2-.99.02-.04-1.9h.49v-3.23l1.02-.04-.02-1.07 4.27-.06 2.14-.28-.05-2.08-11.77.25.09-1.74-.04-1.47 3.15-.07-.03-1.06 1.05-.02-.04-2.16 1.03-.03z"/>
    <path region="88" short-name="62" long-name="State House District 62" value="1" d="m884.3 863.94-.04-2.14 1.71-.08.5-1.1-.6-.02-.32-1.1.8-1.36.26.21 2.87 3.24.08.03-.65.77-.75 2.14-.03 1.6.91.68 2.12.87-.05.7.68 1.13-.22 1.12.78 2.05-.31 1.03-.5-.7-.82-.39-1.45-.04-.66.24-.51-.15-1.43.42-1.17.94-.46.84-.06.87-1.02 1.15-1.23 1.91-.4.78-.49 1.9-4.23.09v-1.05l.67-1.13-6.16.18-.07-2.17-.06-2.14 4.3-.14.08 2.15h.5l-.03-1.08.56-.13 1.75-.04 2.19-5.44.57.5.71-.2.57-.5.04-.87.67.23.26-.67.1-1.95-.51-.2.1-1.66.47-.03z"/>
    <path region="89" short-name="94" long-name="State House District 94" value="1" d="m763.46 738.38 4.27.07v1.47l.53-.37.65.97 1.55.05.1-.8-.43-1.28h.7l1.48 1.72.3.9v6.99l7.86.06.05 5.39-2.14-.17-4.24-.01.94 1.91.13 3.63h-1.65l-.26-.82.22-.73v-.89l-.33-.1-.7.45-.43-.09-.31.74-.49-.43-1.5.57-.85-.54-.66-1.13-.41-.12-.83-.22-.55-.4-1.08.34-.75-.65-.75-.3-.59-.6-.66-.32.79-.55.76-.2.34-.59-1.2.29-.74-.19-1.22-1.01-2.13-.17-.73-.35-1.22-.99-.94-.43-.56-.47 5.57.09-.01-2.13-3.72-1.93v-.25l-1.87-.05-.55-.74-1.08-.09.04-1.32h1.03v-2.13l1.94.05 6.33.05z"/>
    <path region="90" short-name="15" long-name="State House District 15" value="1" d="m835.07 906.34 1.04-.03-.1-1.69.18-.52 3.9-.16.18 2.25 2.83-.2.03 1.06.27.87-1.5.38-.78 1.3.25.9-.57.26v.69l-.46.26v.58l1.44-.13.8.5-.55.87-.26-.16-.64 1.52 2.91-.08 1.23.79-.83 1.03-.7.04-8.33.24-.03-1.06 2.11-.06-.14-5.28-2.14.05z"/>
    <path region="91" short-name="24" long-name="State House District 24" value="1" d="m810.46 905 11.89-.39.25 8.45-.54.05.03 1.07-3.67.12-.02-.58-1.07.03-.03-.47-1.05.03.04 1.04-.9.04.04 1.09-1.2.01v2.13l-4.16.13-.05-2.1-.12-4.23-.24-6.33z"/>
    <path region="92" short-name="33" long-name="State House District 33" value="1" d="m788.98 916.73.55.46.27-.54.62-.09 1.53 1.61 2.76.67.17-.57 2.5-.07.1 5.08-2.11-.05-.56-.1.06 4.67-1.55.05.12 3.18-4.38.1.2 6.42-.98.01-.06.88-.67.02.21 2.28-.51.29-1.04-.13-.52 2.03-.16-1.07h-.35l.04 2.11-12.5.3-11.86.35h-.95l-.19-6.82-.02-3.12-.12-2.78 6.1-.09 2.67-.08 2.91-.26 1.07.01-.35-12.4 10.55-.34-.04-2.51.34-.15 1.34.18.75-.22.58.9 2.28-.09z"/>
    <path region="93" short-name="40" long-name="State House District 40" value="1" d="m570.18 911.91 2.2-.01.31.3v.76l1.65-.05v-1h.67v-.56h.58v-.52l2.63-.01v-.6l.98-.06v-.45l1.1-.01v-.91l.89.05-.03-1.32 1.7.06.02 1.1-.03 9.44 2.18.01.53.66v.43l.99.07.03-1.26 2.09.02-.07 2.22 2.16.02.02.94.56-.35v-.6l1.04.3v1.18l-.52-.04v.74l.92-.37.34.38.32 1.37v.75l.52-.01v-2.12l1.62-.02.05 6.96-.03 3.67h-10.58l-5.18-.07-7.14.09h-2.4l-.15-12.75z"/>
    <path region="94" short-name="51" long-name="State House District 51" value="1" d="m795.06 854.35 3.1-.1 5.26-.25 4.26-.16-.26-12.78 3.27-.2.64 1.16 2.77 3.07-.14 1.1h-.53l-.48.53v.54l-.56.01.04.84-.54.23.1 3.2.88-.02.5 1.08-.27.5.29.46 1.53.04 5.7-.18.29 8.48.15 4.31-.13.04-8.06.27v.54h.7l.02 1.66 2.15-.06.04 1.04 1.06-.04.17 3.18.53-.02.06 1.6-.5.59.07 1.52-1.07.07-.56-.52-1.07.05-.1-2.11-.85.42-1.24.2-.51.54-3.3.16.2 4.19-12.33.63-.5-8.97-.17-3.73-.42-8.56z"/>
    <path region="95" short-name="66" long-name="State House District 66" value="1" d="m819.83 827.15 5.13-.13 10.83-.3 9.03-.32 4.4-.16 4.04-.18 4.4-.12 8.57-.28 2.22-.38 2.09-.09.11 2.38v2.47l.19 3.96.03 2.12.4 15.24-1 .14-3.22.12-8.58.24-.15-4.5-.53-.8-2.1.06-.07 1.07-1.54.03.03 1.08-1.63.25-.01 1.2.26.32.87-.12-.03 1.58-3.05.1-.25-2.08-1.06.04.08-.74 1.13-.3.2-.59-.78-.62-4.3.15-.24-8.7-10.63.31-1.85.11-12.61.38z"/>
    <path region="96" short-name="26" long-name="State House District 26" value="1" d="m835.07 906.34.14 4.22 2.14-.05.14 5.28-2.11.06.03 1.06.08 3.08-2.12.71-3.87 1.3-.6.38-1.3 2.35.03.87-4.63.08-.18-7.05-.1-1.3 1.1-.1 7.37-.21-.09-3.17-3.14.1-.04-1.06-1.05.03-.06-2.1 1.58-.03-.04-1.07-.43-.1-.1-.75.51-.2 1.06-.04-.08-2.1 1.45-.03.61.42 1.03-.46z"/>
    <path region="97" short-name="87" long-name="State House District 87" value="1" d="m503.45 765.35 4.44.14 7.07.17.07-10.81 2.17.09.01 1.76.91 1.01 1.23.03v-.6l4.26.1.03-4.4 4.25.1-.07 12.97 1.55.06-.03 5.66-.1 7.56-6.5.02v2.2l-1.17-.12-2.03.07-.1.61-1.01-.01-.06-.63h-1.47l-.05-2.15-.36-.01-.04 2.15-2.16-.01.03-2.2-3.72-.06-.34.54-1.27-2.57-.51-.57-.54-1.18-.5-1.64-1.03-1.98-1.2-2.7z"/>
    <path region="98" short-name="48" long-name="State House District 48" value="1" d="m733.78 894.04 5.41-.01 6.43.04 13.57.1 7.6-.04-.1-2.12-.54-.54-.81.02.25-.88-.17-1.81.22-.5 2.52-.07.04.52h2.53l-.5-11.54-.13-6.44.35-.1.14-1.68-.27-.65 4.73-.06 7.8-.21.22 7.6-1.59-.17-.01 1.16 1.7 1.14.13 5.23.13 1.62.28 7.65.07 1.18 2.4-.11 2.18.13 8.64-.4.3 12.45.09 4.98h-.84l-3.49 1.34-1.06.06-.58.45-1 .46.05.48-1.06.95-.77-.2-.46-.42.64-1.35-1.48-1.13.16-.98-.8-.26-.21-.37-1.04-.07.04.95-.24.68-.83.02.08-1.1-.14-.93-.08-2.98-9.65.28-.5-.3-1.43.13.21-.61-.94-.11-.42.37v.55l-1.87-.27-10.5.2-1.12.2-1.67.07-4.28-.05-2.06.13-1.46.18-1.98-.05.03 4.44-1.58-.1-11.27.15-.02-6.06z"/>
    <path region="99" short-name="72" long-name="State House District 72" value="1" d="m789.74 816.7-.01-1.12 5.33-.12 11.77-.25.05 2.08-2.14.28-4.27.06.02 1.07-1.03.04v3.22l-.48.01.04 1.9 1-.03.71.21-.24.9.19.78.03 2.62 6.41-.14.3 12.85.26 12.79-4.26.15-5.27.25-3.09.1-2.15.1-.01-.89-1.03.03-.59-.2-.03-1 .52-.03.05-2.18-2.3.16v-.55l-1.06-.58-1.09.06v-1.07l-1.57.07-.03 1.13.15 1.02-.6.03.04 1.09-.52.54-.52.08-.6.52-.72-1.44h-.79l-.12-2.78-.17-2.11-.1-4.58-.1-4.36-.1-2.19-.17-6.43 6.48-.15-.05-2.16.54-.01-.06-2.16-2.67.04-.11-4.32 3.95-.07.32.14z"/>
    <path region="100" short-name="84" long-name="State House District 84" value="1" d="m567.72 804.96 4.3.09 3.73.12 4.74.06h1.05l-.09.83-.4.76-.8.68-.05 2.14 1.77.02-1.17 2.14.45.52.66.02v.73l-.26.61.8.25.22.74-.73.32-2.1-.05-.65 1.05-.67.54-.93.43-1.38.27-1.3 1.51-1.4.64v.46l-1.02.4.23.94.8-.82.09 5 .16.1-.14 2.14-3.37-.03v.53l-.8-.01v-.5h-1.06v-5.05l-.23-6.51-.1-4.58z"/>
    <path region="101" short-name="8" long-name="State House District 8" value="1" d="M856.15 882.38h.21l-.14-4.33 3.17-.11.1 3.32.27 9.22.04.44 2.1 4.02-2.78.07 2.17 3.64.03.84.95 1.91.1.53.85 2.07-1.37.74-.64-.1-.8.34-.61-1.43-.6-.11-.74-1.5.3-.14-.41-.84-1.32.58-.38-.78 1.27-.64.01-.31-.93-1.94-1.39-2.76 1.8-.04-2.1-4.2 1.25-.06-1.06-1.8v-.25l1.28-.04.02-2.16-.6-2.42z"/>
    <path region="102" short-name="55" long-name="State House District 55" value="1" d="m850.52 852.12 3.05-.1.03-1.57-.87.12-.26-.32.01-1.2 1.64-.25-.04-1.08 1.55-.03.06-1.07 2.1-.06.53.8.15 4.5.36 10.83.07 2.14-3.71.15-9 .32-.32-9.15-.2-3.85z"/>
    <path region="103" short-name="2" long-name="State House District 2" value="1" d="m843.74 916.67.7-.04.83-1.03 1.32-2.1.15-.64.49-.73 1.14.85.52.03-1.84 2.96 1.12.64.73-.16.94.78.6.21.95 1.4.86-1.37 1.07.74.13-.48.92.3.6-.5 1.46 1.02-1.3 2.7-.06.55-2.22-.01-1.44.08-.87 1.59-.6.3-.7-.24.03 1.33-1.44.02-.92 1.06-2.85.07-.03-1.05z"/>
    <path region="104" short-name="14" long-name="State House District 14" value="1" d="m859.5 881.26 1.98-.04-.04-1.17 2.25-.05.08 2.13 1.95-.06.05 2.17h1.26l.05 4.16.19 2.92-.04 1.35.64-.03.07 2.12-.65.03-2.65.07v.53l-2.34.07-.4-.52-2.1-4.02-.04-.44z"/>
    <path region="105" short-name="52" long-name="State House District 52" value="1" d="m810.69 840.86 3.26-.08 6.27-.21-.01-.48 12.61-.38.34 9.77.1 3.35.02.67 1.3.4 1.07-.07.03 1.01.37 1.07-2.67.15.08 3.23-.64-.3-.3.34-1.18.08.05 1.53-.54-.48-2.41-.1.02 1.11.43.13.03 1.06-4.05.14-.23-.45.39-.62-.04-1.07-2.14.09.05 1.06-1.99.09-.3-8.48-5.7.18-1.52-.04-.29-.45.26-.51-.49-1.08-.88.02-.1-3.2.54-.23-.04-.84h.56v-.55l.48-.52.53-.01.14-1.1-2.77-3.07z"/>
    <path region="106" short-name="58" long-name="State House District 58" value="1" d="m858.83 862.69 3.33-.1.24.1 1.16 1.45.46-.6 1.22-.26-.08-2.99 2.09-.02.06 2.12 2.16-.06.07 2.12 2.12-.06.07 2.5-1.07-.1.04.94-.44.78-.58-.08.04 1.5-.19 1.01.33 1.21-1.24.02v-1.03l-1 .04.01.97 1 .28.07 2.72-.3.3 2.57-.13-.5.38-.09.88.17.88-2.43.1-.23.1.14 4.34-2.31.07-1.95.06-.08-2.13-2.25.05.04 1.17-1.98.04-.1-3.32 6.2-.27.06-2.14-.18-6 .15-.88.64-.64-.92-1.27-.03-.93-.5.16-.56-.54-.25-.8-5.1.2z"/>
    <path region="107" short-name="77" long-name="State House District 77" value="1" d="m670.38 817.82 14.82.04 10.64.03-.07 12.76 9.07.03 3.73-.06.02 8.58h-1.1l.01 1.6-.53.54h-1.04l-.52-.53v2.04l.54 1.79.03 2.02.48.01v1.06l.28 1.03-.11.7-.7-.17v-.54h-.72l-.02 1.55-.7.92-1.03.08-.74-.25v.9h-.65l-.2-.84.1-1.2-.96.27-.01.69-.77.14-1.24-.45-1.02-.04-.94.3-.4.67-.93.96.04-9.02h-7.16l-5.48-.06v4.32l-.54-.44-.01-.62-1.6.02.01 1.05-1.67-.1-.45.33v.82h-1.06l.22-.85h.7l.13-.63-1-1.36-1.13-.36-6.26-.02v-9.64z"/>
    <path region="108" short-name="3" long-name="State House District 3" value="1" d="m843.4 901.77 1.97-.05.02 1.1.97.99 1.15-.03.13 4.23.6.34 1.13-.03.44 1.72 3.1-.62.78 1.59-.3.5.23.9-.25.68-.52.27-.39-.54-.67.15-.06.4-1 .42.96 1.57-1.26 2.08-.6-.2-.93-.8-.73.17-1.12-.64 1.84-2.96-.52-.03-1.14-.85-.49.73-.15.63-1.32 2.1-1.23-.78-2.91.08.65-1.52.26.16.53-.88-.8-.49-1.42.13v-.58l.44-.27.01-.68.57-.25-.25-.92.78-1.29 1.5-.38-.27-.87-.03-1.07-2.83.2-.18-2.24 2.03-.05-.04-1.04 1.34-.03z"/>
    <path region="109" short-name="37" long-name="State House District 37" value="1" d="m508.25 945.45 14.12.13 10.87.09 5.17.06 7.35.04.08 12.57-10.45-.01.02.98.34.07-.1.98h-.79l-.02.92-.56-.35-.97-.14-.05 16.28-.05 6.29-.03 7.32-7.59.04-4.19.04-5.17-.03-16.1.06-11.3.05-6.9-.02-9.24-.02.06-9.88 10.47.07.09-10.45 6.1.03-.04-12.5 5.25-.02v-9.48h1.06l-.01-3.17.42 1.1.47.6 1.21.32v-2.01z"/>
  </g>
</svg>