<svg auto-border-stroke-width="1" auto-border-stroke-width-limit=".5" original-source="['https://www2.census.gov/geo/tiger/GENZ2022/shp/cb_2022_us_sldl_500k.zip']" candidates="[{&quot;id&quot;:&quot;0&quot;, &quot;name&quot;:&quot;Democrats&quot;, &quot;margins&quot;: [{ &quot;color&quot;: &quot;#1C408C&quot; }, { &quot;color&quot;: &quot;#577CCC&quot; }, { &quot;color&quot;: &quot;#8AAFFF&quot; }, { &quot;color&quot;: &quot;#949BB3&quot; }]},{&quot;id&quot;:&quot;1&quot;, &quot;name&quot;:&quot;Republicans&quot;, &quot;margins&quot;: [{ &quot;color&quot;: &quot;#BF1D29&quot; }, { &quot;color&quot;: &quot;#FF5865&quot; }, { &quot;color&quot;: &quot;#FF8B98&quot; }, { &quot;color&quot;: &quot;#CF8980&quot; }]}]" version="1.1" xmlns="http://www.w3.org/2000/svg" viewBox="0 0 1000 484.26">
  <g regions="y" transform="translate(0 -257.87)">
    <path region="0" short-name="59" long-name="State House District 59" value="1" d="m415.22 340.63-.02 2.1h2.12v2.06l4.2.04 2.2-.06 1.94 2.06 3.44 2.02.2-.02 10.93-.04.06 6.29h2.09l-.03 2.07 2.1.05v.5h1.36l.47-.48.1-.62.61-.23.29-.5.6.1-.18.94.72 1.14.47.15.63-.45.31-.85 1.3.87-.02.8-.58.58 1.55.73 1.54-.3.25.65 1.03.85-.58.93.26.5.59.27.84-.06.88.72.65 1.94 1 .21.48.47.14.94.66 1.24.9.23.27.56 1.03.98.5-.1 2.12.02.9.27.46-.23h6.09l.01 10.03 7.13.05 19.63-.29 12.53-.3 16.56.05 18.65.01h10.14l9.53.03 5.99-.05h7.5v-15.87l.02-6.28-.03-12.62h12.51l.02 4.2 4.16-.02.43.05 5.78-.02v2.1l6.28.03-.01 2.1 5.23.03 7.34-.03v8.37l-.03 18.02-.02 2.13.02 11.14-.01 4.18v12.58l.03 8.36h.1l.02 8.1-12.4.07v6.25l.93.02-.93 2.08.01 8.34-6.24-.03-14.57-.02-3.17.06-12.37.04h-6.15l-2.06.04-5.2-.02-12.37.07v2.01h-6.04l-.83-1.55-.83-.52h-2.83l-.32.37-1.55-.39-4.14.01h-16.5l-.04-1.24-1.04.17-.98.46-.16-1.15-.45-.47-1.51-.59.02-9.72h-9l-1.64.05-12.57-.05-1.59-.04-4.45.04-15 .02-17.77-.02-22.81.04h-1.94l-.03-12.49h-.6v-6.86l.03-.24-.01-9.33-.14-12.16.04-.22-.02-9.47.02-11.91-.9-.01-.02-8.31.03-4.14h-2.06l-8.46-.1-.04-6.24.04-8.3z"/>
    <path region="1" short-name="55" long-name="State House District 55" value="1" d="m509.86 440.06 1.51.59.45.47.16 1.15.98-.46 1.04-.17.04 1.24h20.64l1.55.38.32-.38 2.83.01.83.52.83 1.55h6.03v-2.01l12.38-.06h5.2l2.07-.02 6.14-.01 12.37-.04 3.17-.06 14.57.02.03 5.27-.04 6.7.03 2.7v6.25l-14.6-.02-.02 1.67.5 1.9v3.32l.26.13.01 1.3h-.26v2.08l-2.08-.02.01-4.14-6.2-.03-16.82.04-.3.04-7.67-.02-2.39-1.33-1.77-.79-13.1-.02-.12.93.32.17-.16 1.03.01 9.35-1.04.01v15.52h-8.2l-7.17.02-7.37-.04-3.94.03-.02 10.31-.03 10.3.02 2.08h.65l-.02 12.4v2.16l-.29.62-.54-.66-.07-.97-.4-.17-.07-.86-1.04-.97-.27 1.42-.52.23-.59-.51.4-.88-.58-.37-.6.2-.78.64-.95-.13-.32.72.08.61-1.1.33-.94-.21-.53-.44-.84.2-.46.57-.58.25-.66-.97-1.75.1-.19 1.29-.43-.72-1.26-1.35-22.77-.01-13.57-.03-15.38-.02h-19.56l-5.73-.03v.35l-.77.39-.94-.33-.78.84-1.14-.17-.4-.5.4-.57-13.63-.01-.3.03-5.47-.04.01-12.44-.58-.3v-3.83l2.08-.04v-4.09l.05-4.15-.05-.04.04-18.62 14.39-.09.03-6.22 13.33.04 13.38-.01 10.35.02h20.58l16.42.02 12.36.1 11.05-.01 1.28.04.01-12.52h-1.04v-16.9l.02-6.95z"/>
    <path region="2" short-name="86" long-name="State House District 86" value="1" d="m907.32 377.25 2.4-.44 1.9-.06 2.24-.23 1.15-.35 2.66.19.64-.18.67-1.09.79-.76-.02-4.83 6.27.01 6.33-.03.06-2.1.54.02-.01-2.33 1.41.23.75-.35.41.27 3.42-.02.34.11 1.05-.3 1.04 1.78.8.96.57.34.67-1.26.09-.83-1-1.04.4-.8.57-.37.27-1.18.31-.45 1.08-.01.77.23 1.39-2.81.83-.17.49.35.35-.9.67-.2-.01-2.9 1.04.01v-1.7l2.43-.75.81-.56.86-.12 1.19.1.97-.72.78.44 1.82.54 1.03.84 1-.44 1.17 1.2.85.08.19.66 1.04.52h.69l.07.5.9-.08.42.54 1.8-.34.65-.36 1.02.52.13.38 3.16-.29-.03-1.06.67-.64 2.05-.49.17.43 1.3.64.02.42 1.43-.1.27-.5 1.22-.72.55.57.77 6 1.57 11.6 1.18 8.5 1.05 7.22.5 3.44 1.52 10.9.14.86 1.33 9.39.54 4.29 1.16 8.05.93 7.05.74 5.04.67 5.14 1.74 12.58-3.5.03h-23.16l-12.43-.03.02-17.65.02-1.12v-18.87l-1.83-.42-.8-.53-.38-.7-.5-1.4-1 1-.04.95-.56.07-1 .67-.42-.18-.33.81-.6-.35-3.96-.01-6-7.66-1.76-1.72-.76-.54-.21-.52h-1.56l.01-4.17h-2.3l-.5-.52-3.27-4.6-3.75-5.32-4.76.02-15.99-.04.35-1.16-.38-.87-.1-.83-.87-1.6-.05-.42.72-1.28.18-1.42-.35-.82.6-1-.01-.37 1.85-1.5.84-1.24.73-.2z"/>
    <path region="3" short-name="61" long-name="State House District 61" value="1" d="m.04 258.18 1.78.23 12.73-.16 7.63-.02 8.21.3 5.12.37 40 .09 11.03.02 6.12.1 19.4.1 12.46-.08 12.68-.07 12.63-.07 10-.06 9.02-.07 8.16-.03 8.2-.05 15.38-.1 8.36-.07 16.92-.11 6.28-.04h7.83l4.78-.06h5.7l4.83-.07h9.3l12.23-.14 9.12-.09 13.68-.07 19.17-.1 8.9-.05 9.1-.01 14.06.08h13.97l11.81.12 13.6.1 1.05.08h12.54l9.9.02.4.57 1.1.01.4.7.1 1.5.6 1.51.79 1.48-.12.67.2.65.7 1.43.76.83 1.06 1.5.8.53.6 1.28.7 1-.16.63.54 1.53.7.75.4.93 1.04.3 1.04.8 3.05 1.32.95.84.91.15.1.33-.56.57.1 1.12.78 1.11.27.85 1.09.73.45.63.03 6.88-.05 13.22v12.37l-.53.2.06 8.55-.01 4.18-4.2.1.08 4.2-.08.06v3.1l-6.4.11-.03 1.53-2.17-.48h-3.15l.92 2.1-1.76-.01-4.23-.03-.04 8.3.04 6.23 8.46.1 2.06.01-.03 4.14.02 8.3.9.02-.02 11.9.02 9.48-.04.22.14 12.16-.29-.1-1.87.25-.94-.1-1.7.1-1.76.53-1.7.4-1.29.78-.8 1.27-.9.8-.9-.09-1.24 1.1-.4.94-.13.74-.6 1.33-.07 1.28-.33.44-.04.96-.22.34-.49 1.59-1.1.85-1.1 1.2-.2.45-1 .84-.6.34-.3.78.29 1.1-.62 1.18-.4 1.87-.4.38-.72.1-1.09.44-2.85.53-1.06 1.22-.79.66-2.02-.03-2.12-1.01-1.31-.25-1.57.12-.9-.1-.96-.4-2.72-.76-.65-.4-.14-.45-.64-.67-1.05-.68-.94-1-.8-.1-.91.28-.69-.28-1.17-.92-.24-1.05-.73-.45-.52-.69-.78-.37-.57-.55-.11-1.4-.3-.6-.62-.63-.03-.75.38-.97-.3-.67v-1.13l.22-1 .35-.55.3-1.08-.42-1.76.12-.67-.53-1.67-.51-.44-1.14-.35-1.68-.19-1.09.1-.9.35-1.62 1.84-.76.45h-1.5l-.72.53-.07 1.01-1.54 1.51-.37.68-.13 1 .22 1.52.42.3.17.81-.33 1.24-1.49 1.2-.46.89-1.09.6-2.93 1.36-.86 1.14-.6.48-1.55.68-1.75.4v-89.39h-37.77l-1.2.04-12.44-.01-9.47.03-14.71-.03-13.24-.02-10.38-.01-9.95.01-12.74.01-4.65.04h-13.96l-18.9-.02-25.22-.02h-13.5l-1.24-.03-13.68.01-12.09-.12-11.91-.02h-10.47l-.4.05h-4.31l-9.63-.06-.64.05H.02l-.02-3.8.04-11.06L0 305.54l.04-6.44v-6.42l.03-21.29-.03-.29Z"/>
    <path region="4" short-name="21" long-name="State House District 21" value="1" d="M733.73 663.88h5.05l1.61 1.6.78-.22.71-.74h.56l-.3 1.36 1.46.66.4-.96.63-.1.07 1.01.7.3.4.71-.47.7.81.3.45-.82.5.74-.25.68 1.43 1.24.74.2.05.55-.23 1 15.16.03v-6.1l5.05.01-.32.2.7 1.25.6.17.15.6.85.36.2.32-.3 1.14.8.76-.32.6.81 1 1.05.97.5.75-.25.77.2.44 1.01.5.27.61-.2.75.24.64.72.3.1.96.55.18.53 1.17-.44.75.02 1.2h.99v6.1l.25.23-.42.75-.02 1.96-.3.84-.45.45-.88.32-2.27-.03-.02 1.6.02 12.23-.65 2.73-.92 1.32h-2.76l-.4-.32-.01-1.71-9.5-.02-.13-.58.25-.44h-1.13v.82l-.9.2-.17 1.04-.44.68-.95 1-.85 1.5-2.22.53-1.76.08-.77-.08-1.65-1.25-1.66-.89-2.55-1-.72-.57.04-.97.42-.58 1.56-1.75 1.71-.86.84-.78.56-1.16-.3-.82-.59-.12-1.7.13-2.42.03-1.84-1.61-1.85-1.5-.85-.05-.73.66-.56 1.4-1.1-.15-.7-1.22-.38-.95-.12-.82.35-.88.38.14v-5.53h2.03l.01-3.64-.07-.44h-1.96l.01-.53H734l-.67-.4-.23-.67-.88-.04v-5.66l1.02.07v-3h1.34v-2.04h-.5l-.02-1.96.52-.09v-2.04h-1.01v-2.05h-.97l1.8-2.11.17-.42.03-1.87-.2-.64z"/>
    <path region="5" short-name="40" long-name="State House District 40" value="1" d="m590.14 341.58 7.27-.02 1.04-.03v1.07l4.2.04v6.3l-5.78.02-.43-.05-4.16.02-.02-4.2h-2.09z"/>
    <path region="6" short-name="12" long-name="State House District 12" value="1" d="M844.75 407.1V398.72h1.56l.57.18.25-.87.74.7 5.2.02v-2.09H851v-2.1l-2.1-.02-.01-6.29 6.26.03v1.2l.46-.4.76.18 1.5 1.12 1.47.02.28.3.76-.1 1.7.05.43-.28 1.92.02.19.74.55.14.67.95 1.08.24h27.85l9.03.07-.9 1.33-.94.86-.91 1.63-.7.55-2.01.54-1.17.79-.5-.26-1.89.4v2.48h-6.25v4.19h-2.23l.14.31v1.8h-2.07l.03 4.18h2.06l-.01 4.2.19.95v3.19l-.05.15v5.7l-.03.94.12 4.72-2.1 1-.71.18-2.34-.22-2-.69-1.64.08-2.34.67-2.7 1.04-2.08.24-.7.34-1.05.15-.32-.22-.8.12-.6.71-1.05 1.64-.86.86-.64.02-.4-.31-.98-1.5-.86.23-1.42-.17-1.17-.7-.79-.74-.17-.48.26-2.03-.46-1.49.22-.9.06-1.61-1.17-1.33.13-.76-.36-.91.08-.42-9.4.02-4.1.03H838v-6.45l6.7-.01.05-4.63z"/>
    <path region="7" short-name="43" long-name="State House District 43" value="1" d="M617.8 482.42v2.07l-6.21-.04-.01-2.07v-8.3h5.2v2.07h1.04z"/>
    <path region="8" short-name="39" long-name="State House District 39" value="1" d="m638.14 448 .08-.4v-4.78l8.33.04v8.36l-3.1-.04-.02 4.19h-1.02l-3.12-.03-.02-4.17h-1.03v-2.07z"/>
    <path region="9" short-name="70" long-name="State House District 70" value="1" d="m821.37 384.1 4.61-.02.01 2.1 3.88-.02-.86.76 1.16.74v.6h-2.57l-.54.46-.28.6v1.04h-.77l.02 4.19v2.08h-2.09l-.14-.93.15-1.15h-2.1l-.03-8.37h-1.12l.13-.54.48-.51z"/>
    <path region="10" short-name="82" long-name="State House District 82" value="1" d="m634.1 446.97 2.05.03v1h1.99l.1 1.1v2.08h1.03l.02 4.16h-1.03l-4.15-.01v2.13h-2.1v2.13l-2.07-.02v2.06h-2.08v-2.02h-2.08l.01-6.34.15-.02h9.2v-3.13h-1.03z"/>
    <path region="11" short-name="8" long-name="State House District 8" value="1" d="m860.8 363.02 1.55-1.82.44-.35 3.26-1.9.04-4.22-.03-4.21h-6.28v-3.75l.37-.43 3.67-.02h14.24l5.48.02 1.16-.02 8.55-.01v-1.94l.35-.16h12.22v10.12l.2.38-1.2 6.32-1.1-.01v6.29h3.13l.28.21.2 2.32-.01 7.4v2.59l-.74.2-.84 1.22-1.85 1.5v.39l-.59 1 .35.8-.18 1.43-.72 1.28.05.43.87 1.6.1.82.38.87-.35 1.16-9.03-.07h-27.84l-1.09-.24-.67-.95-.55-.14-.19-.74-1.92-.02-.42.28-1.7-.06-.77.1-.28-.3h-1.47l-1.5-1.13-.76-.19-.46.4v-1.2l-.03-8.38 6.17-.05v-1.28l-.28-.38.28-.54.14-1.1-.12-.8.75.06 1-.96.2-1.33.57-1.38-.04-.47-.69-.3-.08-.62.8-.82-.32-1.57.26-.25-.23-.84.24-1.57h-.55l-.78-.92.3-.44-.1-1.15z"/>
    <path region="12" short-name="17" long-name="State House District 17" value="1" d="m829 525.38.96-.95.56-.98 1.06-2.52.45-.82.46-.19 1.16.1 1.05-.25 1.03.58 1.7-.46 1.3-.85 1.05-.4 1.27-.14.67.12.65.42 1.58 2.07.52.27.94-.01.74-.93.67-1.17.45-.13 1.2.1.88.37.7.02.44-1.11.61-.74 1.17-.1 1.2-.28.8.22.68-.78-.74-.5-.26-.57.2-.66 1.04-.9 1.7-.58 2.63-1.48.8-.72 1.45-.42h.63l.5.37.3 1.1-.39.62-1.53.67-.3.81.65.47 1.02.15-.33.56.7.12 2.41-.97 1.87-.98.25.64h.53l.52.53v.52l-2.08-.01-.01 1.03.75.19-.18.73-.48.26 3.98.02 3.77-.11h6.15l.02 6.03 7.15.03.03 1.54.33.92.87 1.34.82.7.4.1.19.76 2.52-.48v9.62l3.05.04 9.27.06 7.57.01 13.93.01 15.37-.08v7.55l.02 9-8.22.01.02 1.6.01 10.78-7.2-.01-.05 16.5.04 8.25-8.45.02h-7.93l-13.43-.05-15.12.02-8.13.01v12.28h-6.53l-11.72.04-.1.02h-15.74l-8.79.03-.02-12.33-5.54-.01 1.85-1.34.3-.43.83-2.38-.76-1.03-.26-1.54.51-.5h.71l.42-1.03 1.97-6.1.6-1.16 3.06-4.59.34-1.75h.7l1.7-2.62 1.27-1.56.34.2 3.96-4.53.61-1.65.33-2.55.15-.2 1-3.12-.08-.91.42-1.46.02-1.48 1.6-3.17.18-.52-1.37-.01-1.2-.69-.55-.74-.59-2.53.35-1.33v-3.02l.37-.76-.36-1.47.01-3.46-.03-6.66-13.09-.01-.57.5z"/>
    <path region="13" short-name="18" long-name="State House District 18" value="1" d="m744.06 480.54.35-12.76.1-12.52h10.66l15.76-.01 13.17.04 10.37-.04-.01 12.5h12.24v19.12l.03 5.96 12.37.01v24.86h-.19v7.3l2.05-.11 1.49.16.72.2 2.11.91 1.25.16 1.39-.22 1.09-.72.87 1.06.57-.5h13.1l.02 6.67-.01 3.46.36 1.47-.36.76-.01 3.02-.35 1.33.59 2.53.55.74 1.2.69h1.37l-.17.53-1.61 3.17-.02 1.48-.42 1.46.08.91-1 3.12-.15.2-.33 2.54-.61 1.66-3.96 4.52-.34-.2-1.26 1.57-1.7 2.61h-.71l-.34 1.76-3.06 4.6-.6 1.15-1.97 6.1-.42 1.02h-.7l-.52.51.27 1.54.75 1.03-.83 2.38-.3.43-1.84 1.34-18.54.02-.41-.03v10.36l-8.06.05-.66 1.1-.4-.63-1.07-.4-.07 1.63-.39.31-3.62.01v6.35l-.9-.07-.18.3-.86.34-.45-.16-.88.53-.75-.28-.07 1.21-.78.47-.79.21-3.64 2.87-.97.57v1.03l-1.02.18v2.95h-3.03l-.9-.25-.68.7-1.53.05-.04-.52-5.16.02-.22 1.33.05.71h-5l-.16-.18-6.97.01v-5.97l.2-.03v-12.36l-.01-12.37 12.34.01-.02-2.25v-10.14l.03-12.1.02-11.62-.4.67-.13 1.04-.36.93-.47.55-.08.55-.7.57-1.3.23-2.89-2.03-.62.19-1.45-.17-1.48.83.03-15.76.01-13.48h5.73l.02-8.29-.02-8.28v-11.4l.02-17.63-.01-4.7-.26.95-.32.38-.74.04-.46-.44-.67.05-.39.4-.69-.7-.5-.06-.1.65-.51.72-.78.67.55 1.34-.53 1.04-1.06.52-1.72-.1-.85-.23-.34-1.04-1.26-1.13-.48-.11-.45-.9-.62.1-.93-.23.04.64-.37.36-.56-.02-.13.48-.67.28-.17.38.58.5 1.02.2-.56 1.46.07.41.87-.2.56.64-.26.51.7.45.8.12-.11.82.75.68-.4 1.3-.8-.16-.94.05-.78-.4-.02-1.06-1.17.43-1.14-.37-.23-.75-.82-.61-.7.38-.65 1.43-.29.27-.6-.35-.22.5h-1.23l-.75-.7-.06-.56z"/>
    <path region="14" short-name="22" long-name="State House District 22" value="1" d="m676.93 600.23 6.7.02v-2.06l6.12.02 18.4.03v6.17h12.3l-.03 12.35 8.14.02 15 .04 13.44.04v5.97h6.97l.17.16 4.99.01-.05-.71.22-1.33 5.16-.02.04.53 1.53-.06.68-.7.9.25h3.03v-2.95l1.02-.18v-1.03l.97-.57 3.64-2.87.79-.21.78-.47.07-1.21.75.28.88-.53.45.16.86-.35.18-.29.9.07v-6.35l3.62-.01.4-.3.06-1.64 1.07.4.4.64.66-1.1 8.05-.06.01-10.35.41.02 18.54-.02h5.53l.03 12.33 8.79-.01 15.73-.01v12.31l-12.53.02v12.6l-10.17.04-.06 4.06-3.96.02v2.05l-10.2-.07.01 4.11-.55-.48-.47.47-.96.23-.03 3.86-2.04-.01-.02 2.05h-2.03v4.1l4.08.03v2.02h2.03v3.1l.1 1.01 5.6.01.4-.42.7.75.17.5-.08 1 .63 1.49.18.68.39.44v4.1l-.03 1.7-15.5-.02-19.8-.02-11.57-.03H769.4l-.36-.02h-5.06l.01 6.1-15.16-.04.23-1-.05-.55-.74-.2-1.43-1.24.25-.68-.5-.74-.45.81-.81-.3.47-.69-.4-.72-.7-.29-.07-1-.64.09-.4.96-1.45-.66.3-1.37h-.56l-.7.75-.79.23-1.61-1.6h-25.62l-5.13-.03.01-10.29.02-12.27-9.44.03-1.75.02-.18-.38-1.02-.37-.37-1 1.3-.84-.43-.68.04-.74-.41-.62.03-.5.51-.62-.53-.4-12.44-.05.28-1.03.14-2.5.43-2.2.68-2.23.3-.6-.15-1.24-2.42-3.05-.57-1.07-.3-1.13-.45-.99-1.35-2.43h3.52v-.46l-.74-.48-.32-.5.38-.65-.82-.05-.41-1.13.02-.73-.41-1.77.72-.67-.8-1.08-1.03-.75-.33-.93.2-.38.8.27.37-.38-.86-.5-.22-1.16.54.13-.3-1.05-.52-.34-1.56-.05-.42-.65.29-.57-.89-.58-.02-.72.4-.33z"/>
    <path region="15" short-name="37" long-name="State House District 37" value="1" d="M708.99 258.32h15.54l4.93.02 1.54-.04 15.08.05 12.5.04 12.36-.08 13.76-.01 8.9.03 1.79-.02-.16.67-.53.86-.16 1.1-.42 1.28-.04 1.26-.65 1.43-.57 3.3.1 1.32.12 4.43-1.03 2.99-.81.83-3.58 3.21-.31.89.1 1.3-.1.8-1.04 1.54-.8 1.9-.1.6-1.01 3.16-.57 1.39-1.64 2.76-1.13 3.82-.52 1.57-.2.97.11 1.02.03 3.46-.17.63.06 1.54.51 1.87.01 1.93.47 2.15v3.32l-.33 1.64-1.44 3.25-.62.71-.16.52h-1l.01 1.05h.99l-.04.61-.52 1.07-3.96 4.51-.33.6-.69 2.24-1.53 3.03-.24.63-.02.98v1.58l-.5.53h-1.58v2.82l-.44.1-1.37.81-1.04-.19-1.36-.62-.66-.05-1.76.3-.81-.2-4.37-3.32-.81-.27-1.39-.05-3.36-1.29-1.32-.24-1-.05-.65-.28-2.42-1.78-3.42-1.67-.84-.67-4-2.34-3.62-1.57h-1.13l-1.06-.3-.04-1.64-.4-.86-.15-.85-.52-1.63-.53-1-1.9-1.82-1.86-.4-1.6.7-.9.73-.85.29-2.62 2.07-.67 1.42-.93.71-.4.56-.01 1.3-1.14 1.88-.5 1.13-.64.75-.95.69-.28.53-.86.95-1-.22-.76.06-.73.48-1.84.13-.6.57-.93.18-.96.93-.75.1-1.65-.65-1.5-.01-1.72-.86-.21-.64-1.04-1.07-.94-.49-.73-1.17-.33-2.56.24-1.66.73-1.04.62-.5 2-.9.88-.12.9.27.61-.03 1-.43.7-.9.65-.48 1.6-.84 1.4-.05 1.17.22.42-.26 1.18-1.92.08-1.33-1.89-1.94-.5-1-.47-.46-.9-.25-.7.16-.84.59-.92.22-.82.58-3.18.7-.55-.1-1.43.14-1.34.34-3.68-.52-2.33-.91-.2-.2-9.55-.03.06-1.91v-11.8l-.01-13.67 6.27.04v-4.19l2.1-.06 4.19.08v-2.11l6.28-.04-.03-8.44 3.66.05.05-.29-.69-.56-1.04-1.19-.12-.49v-1.4l.34-.14.88.52.54-.18.25-.74-.44-.93-.1-1.78-.56-1.82.1-.76 1.23-.11.5-.98-.06-1.34-.35-.99v-1.19l.36-.9z"/>
    <path region="16" short-name="38" long-name="State House District 38" value="1" d="m570.55 258.46 17.11-.04 10.37-.02 20.92-.04 7-.04 3.56.06h16.83l13.95-.03 10.15-.01 12.6-.02 12.6.02 13.35-.02-1.57 1.7-.37.9.01 1.2.35.98.06 1.34-.5.98-1.24.1-.1.77.56 1.82.1 1.78.45.92-.25.75-.54.18-.88-.52-.34.14v1.4l.13.5 1.03 1.18.7.56-.06.29-3.66-.05.03 8.44-6.28.04v2.1l-4.2-.07-2.09.06V290l-6.27-.04.02 13.68v11.79l-.07 1.9 9.55.03.2.2 2.33.92 3.68.52 1.34-.34 1.43-.15.55.11 3.18-.7.82-.59.92-.21.85-.6.7-.15.9.25.47.46.5 1 1.88 1.94-.08 1.33-1.18 1.92-.42.26-1.17-.22-1.4.05-1.6.84-.65.48-.7.9-1 .43-.61.03-.9-.27-.87.11-2.01.9-.62.5-.73 1.05-.24 1.66h-2.6v4.2l-4.18-.03v2.1h-14.22l-.77-.41-1.67.44h-8.41l.02 2.42-.02 18.54-2.1.01-.02 4.22h1.49v.52h.75l.01 3.4-.11.58v14.36l-8.34.02.03 6.9v14.28l-.01 14.32h-4.24l-.25.28-.17 1.8h-2.63l.01 1.9-5.68.06-1.54-.05v2l-.38.07-5.77-.07-2.2.03v4.18l-4.11-.02-10.42.01-.02-8.1h-.1l-.03-8.36V397l.02-4.18-.03-11.14.02-2.13.02-18.02v-8.37l-7.33.03-5.23-.03v-2.1l-6.27-.03v-8.4l-4.2-.04v-1.07l-1.04.03-7.27.02v-1.06h-2.09l-.01-4.2.36-.78-.35-1.34.06-5.26-.04-11.53h-17.21l-.01-10.39-.03-.16-.06-12.09-.04-2.69.04-6.35.05-.4.02-18.67h-.22z"/>
    <path region="17" short-name="48" long-name="State House District 48" value="1" d="m634.58 613.57.03-5.18-.02-15.93.44-.5h3.6l.06-.2v-5.99l8.2.02 6.09-.02v-3.08l3.56-.04 1.75 1.16.83-.1 13.3-.01 1.14.58 1-.86.64.69.23 1.37.03 14.75h1.47l.61.94-.39.33.02.72.89.58-.29.57.41.65 1.57.05.52.34.3 1.05-.54-.13.22 1.16.86.5-.37.38-.8-.27-.2.38.33.93 1.04.75.79 1.08-.72.67.4 1.77-.01.73.41 1.13.82.05-.39.65.33.5.73.48v.47l-3.51-.01 1.35 2.43.45.99.3 1.13.57 1.07 2.42 3.05.14 1.24-.3.6-.67 2.23-.43 2.2-.14 2.5-.28 1.03 12.44.05.53.4-.51.63-.03.5.4.6-.03.75.42.68-1.29.84.36 1 1.03.37.18.38 1.75-.02.14 1.65 1.02-.02.1.4.72-.11 1.24.11-.06.61-.59.31.5.85-.6.15-.35-.4-.47.66-.22 1.46-.61-.16-.83.64-2.4-.01-.08 1.6-1.43.45-1.04.5-.29.32-.25 1.34-.06 1.23-.52.53-.58 1.71-.22.28.02 14.57-6.11-.03-10.2.03-.01-11.8-1.1-.01-.07-.5h-.88l.02-4.1h-10.19l.01 2.06-2.52.01h-11.73l-.22.49-.79-.23-2.3-.3-.78.21v1.87h-2.04v-2.06l-6.9-.01v1.03l-1.3.02-.01-13.35.02-12.3.01-14.4-.11-1.2z"/>
    <path region="18" short-name="49" long-name="State House District 49" value="1" d="m634.64 656.68 1.3-.01.01-1.04 6.9.02v2.05h2.04v-1.87l.78-.2 2.3.29.79.23.22-.5 11.73.01 2.52-.01v-2.06h10.18l-.01 4.1h.87l.08.5 1.09.01V670l10.2-.03 6.12.03-.02-14.57.22-.28.58-1.7.52-.54.06-1.22.25-1.35.29-.32 1.04-.5 1.43-.45.09-1.6 2.4.01.82-.63.61.15.22-1.46.47-.66.36.4.58-.15-.49-.85.59-.3.06-.61-1.24-.12-.72.1-.1-.39-1.02.02-.14-1.65 9.44-.03-.02 12.27v10.29l5.12.04 20.57-.01.66 1.1.2.64-.03 1.87-.17.42-1.8 2.1h.97v2.06h1.02l-.01 2.04-.52.09.01 1.96h.5v2.04h-1.33v3l-1.02-.07v5.66l.88.04.23.66.67.41h2.27v.53h1.95l.07.44-.01 3.64h-2.02l-.01 5.53-.38-.14-.35.88.12.82.39.95.7 1.22 1.09.16-.31.85-.3 1.68.15 1.46-.3 1.54-.7 1.82-1.03 1.53-.57.57-.92.47-3.93.83-1.81.19-.91-.44-.86-2.03-.05-.87-.28-1.37-.46-.8-1.25-.74-2.16-.53-2.26-.3-.9.9-.2 2.17-.5.56-.55.24-.65-.04-1.2-.8-1.94-2.08-1.48-4-.17-.91.08-1.46-.34-2.87-.68-1.9-.71-.94-.58-.54-.68-.25-1.18.55-1.44.9-.9.66-2.36 1.23-.52-.23-.33-.58-.14-1.07.2-.84-1 .07-.87 1.04-.1.78.14 1.36.73 1.9.44 1.92.13 1.96-.49.7-1.05 2.1-1.5 1.58-1.35 1.88-2.03 1.14-.85-.18-.56-.99-.57-1.29-.46-.37-.97-.29-.88.25-1.35.74-.38 1.2.82.62 1.63.15 1.3.37.62.4.43.58.14 1.73-1.7.2-1.85.46-1.1.56-.48.66-.31.78.1 1.33.7 2.1.31 1.2.07 1.74-.18 1.3-.57 1.23-.7 1.02-.87.73-1.02.54-1.5.26-1.33-.24-1.38-.47-1.6-1.03-1.06-1.15-1.13-2.57-.4.05-.88-.8.6-1.21-.36-1.68-1.13-1.6-.61-1.37.09-1.73.16-.92.45-.77.7-.56 1.44-.01 1.13-.56.56-.71.03-.97-1.52-6.32-.68-1.18-2.41-1.91-.56-.25-1.82.2-1.82 1.17-.47.84-.36 3.54-.58 1.38-.28.28-1 .13-.6.59h-.62l.03-.7-1.24-.75-2.28-2.52-.54-.3.03 1.99-.52 1.04-.45.27-1.22 1.36-.7-.26.15-.97 1.16-2-.27-.77-.78-.05-.4.71-.39 2.4-1.06 2.56-1.19 1.95-.82.88-.86.6-4.37.09-1.88-.08-2.07-.62-1.03-.66-.7-.85-.44-1.01.16-1.1.45-.78.72-2.22.06-2.88-1.1-1.76-3.05-1.83-.98-.32-.7-.06-2.84 1.11-.87.73-2.2 1.21-.78.12-.31-.35.02-11.86 2.79.01-.63-.58-.34.06-.48-.87-.65-.63-.19-.53-.52-.14.02-9.6h-.19z"/>
    <path region="19" short-name="50" long-name="State House District 50" value="1" d="M567.03 610.47v-.01h3.1l9.16-.02v-2.06h4.6v1.04l6.64-.01v-2.06l2.04.01v-2.06l5.13-.01v1.03h8.2v7.2l9.24.02v-2.04h2.06l-.02-2.08 2.07.02-.01 2.05h2.07v2.03l12.26.03 1.01.02-.02 1.85.11 1.2v14.42l-.03 12.3v13.34l.03 21.5h.18v9.6l.51.13.18.53.66.63.48.87.34-.06.63.58-2.8-.01-.01 11.86-.91-.25-.45.3-1-.06-.95-.6-.2-.8-.62-.58-.08-.9.64-1.13.03-.43-.49-1.08.16-.8.61-1.02-.19-.31-1.05-.31-.18-.61-.94-1.05-.76-.2-2.12-1.65-2.62-1.16-.62-.19-1.2-.08-1.9.68-.59.4-.56.9-.72 1.97-.65 1.17-.83 1.03-1.8 1.55-.73-.1-1.69.05-1.14.37.34 1.3.05.89-.5.64-1.05-.02-.33-.52-.49-.23-.63.41-.11.5.67 1.19.03 1.32-.54.67-.39-.17-.32-.9-.81-.15-.5.71.07 1.12-.14.89-.57.5-.58-.67-.46-.13-.33.42.03 1.3-1.39 1.13-.4.58-1.04.12-.73.35-1.9.7-1.35-.12-.68-.58-1.58-.51-1.02-.78-3.65-2.2-.7-.1-.99.2-.84-.1-1.09-.46-1.17-1.04-.7-1.03-.08-.5.53-1.5.35-.16.83.92.63-.2.85-.99.52-2.11-.08-.98-.25-.24-.92.27-.9-.13-.34-.44.16-.6.81-.4.63-.64.4-.92 1.28-4.2-.2-.38-1.25.03-.54-.48-1.01-1.57h-.77l-1.07.79-2.13.54-1.61.3-2.52.05-1.65-.33-3.22-.93-.63-.43.65-.75-.8-1.2-1.04-.65-.91-1.44.31-.61.65.04.66.6 1-.38v-.71l-1.79-.98-1.8-1.92-.66-1.38-.1-1.29.2-.45 1.75-1.94 1.08-1.83.52-1.52.1-.87-.26-.53-1 .08-.3-.54.3-.98-.16-.66-.88-1.03-1.62-.06-.87.57-.95 1.23-.04-5.54.01-15.34-.01-6.16.02-9.2.02-3.07-.05-8.05.02-4.23h-.34z"/>
    <path region="20" short-name="53" long-name="State House District 53" value="1" d="m640.53 498.91 2.05.01-.05-2.07 4.18.02 2.07-.02v8.29h-2.06l-8.24.01-.02-2.07h1.03V501h1.05z"/>
    <path region="21" short-name="56" long-name="State House District 56" value="1" d="M588.88 474.07v6.2l14.46.02v2.1l.04 16.3.65.31.6-.23.9.22v-.64l.58-.37 1.22.25.55.92.43-.56.83.07.76-.47.26-.88.54.07.46.6.84.3.93 1.35 1.33.8 1.47-.3.54-.38.73.08.08.35.8.07 1.14-.35 1.34-.98 1.59-.23.07.5v3.84l-4.13.01v2.08l-8.25.01v2.08h-2.06v10.37l.43.26.01.54h.71v3.34h.83l-3.58 3.87-.8.63-1.32.77-1.13 1.03-2.62 3.17-2.8 2.95-.96.83-1.33 1.68-.57 1.27-.4 2.53-.58 1.15-.65.68-.87.54-1.54.66-.56.64-.89 1.43-3.93-.03.03-3.1-1.44.07-10.86.03.01-8.27.21-.33-.02-16.34h-.43v-6.23l-.04-8.27-.08-10.38-8.73.07-4.56.07h-5.32l-4-.08-4 .01v2.05h-4.11v.53l-1.04-.01v-.51l-3.07-.01V479.3l1.03-.01-.01-9.35.16-1.03-.32-.18.12-.92 13.1.02 1.77.79 2.4 1.33 7.66.01.3-.03 16.83-.05 6.2.04-.02 4.14z"/>
    <path region="22" short-name="57" long-name="State House District 57" value="1" d="m350.24 420.44 1.75-.4 1.55-.69.6-.48.86-1.14 2.93-1.36 1.09-.6.46-.89 1.5-1.2.32-1.24-.17-.8-.42-.3-.22-1.53.13-1 .37-.67 1.54-1.52.08-1 .7-.54h1.51l.76-.45 1.62-1.84.9-.34 1.1-.1 1.67.18 1.14.35.5.44.54 1.67-.12.67.42 1.76-.3 1.08-.35.54-.22 1.01v1.13l.3.67-.38.97.03.75.61.62.31.6.1 1.41.58.55.78.37.52.69.73.45.24 1.05 1.17.93.69.27.9-.27.8.1.95.99 1.05.68.64.67.14.45.65.4 2.72.76.97.4.9.1 1.56-.12 1.3.25 2.13 1 2.02.04.79-.66 1.06-1.21 2.85-.54 1.09-.43.72-.11.4-.38.4-1.87.62-1.18-.28-1.1.29-.78.6-.34 1-.84.2-.45 1.1-1.2 1.1-.85.5-1.59.21-.34.04-.96.33-.44.08-1.28.6-1.33.11-.74.4-.95 1.25-1.09.9.08.9-.8.8-1.26 1.28-.79 1.71-.38 1.76-.54 1.7-.1.94.1 1.87-.26.29.11.01 9.33-.02.24-.01 6.87h.6l.03 12.48h1.94l22.8-.04 17.79.02 14.99-.02 4.45-.04 1.59.04 12.57.05 1.65-.05h9l-.03 9.72.02 3.9-.02 6.94v16.92h1.04v12.5l-1.3-.03h-11.04l-12.36-.09-16.42-.01H449.2l-10.35-.03h-13.38l-13.33-.03-.03 6.22-14.4.09-.03 18.62.05.04-.05 4.15v4.1l-2.08.03v3.84l.58.3-.01 12.43-.44.03-20.1-.02-.02 12.38-12.3.03-.01-.05-7.15.04h-5.9V439.88z"/>
    <path region="23" short-name="63" long-name="State House District 63" value="1" d="m459.87 530.01 13.57.03h22.77l1.26 1.36.43.71.19-1.29 1.75-.09.66.97.58-.25.46-.57.84-.2.53.44.95.2 1.09-.32-.08-.61.32-.72.95.13.78-.64.6-.2.57.37-.39.88.59.51.52-.24.26-1.4 1.05.96.07.86.4.17.07.97.54.66.04 11.8.02 10.34.03 4.13-.03 4.12.04 4.12 8.68.01.71 1.3.55 1.9.7 1.26.33 1.82 1.09 3.24.52.69.91.64.93.92.5.77.42 1.22.35 1.74.73.98 1.1.65.62.92.1.54h4.06l.4.09 2.07.94 1.18.85.85 2.2 1.04 3.9-.13 1.1-.7-.4-.91-.23-.35.57-.04 1.33 1.17 1.1.02.81-3.84-.03-14.36.03v4.11l1.55.16 3.09.59 1.54.13v1.14l2.04.04v2.07h8.19v2.06h2.04l.02-4.1.6-.02h5.49v1.1h1.02v-1.1l5.1.02.01 6.17 16.34.03v6.16h.34l-.02 4.23.05 8.05-.02 3.07-.02 9.2.01 6.16v15.34l.03 5.54-.44.77-1.36 1.92-1.72 1.2-3.6-.36-1.92-.71-.83-.46-.87-1.26-1.17.13-.8.33-1 .18-.6-.3-1.33-.09-.85.2-2.32-.53-2.95-2.32-4.5-.86-.4.13-.35.57-1.3.42-.64 1.17.1.44.6.42-.22.74-.66-.52-.74.27-.7 1.28.33.12-.03 2.37-.43.83-.54-.35-.54.12.2.88-.22.84-.85.76-.55-.02-.65-.39-1.28.18-.42.3-.24.76-.38.47-.66.12-1.32-.07-.64 1.05-1.23.48-.5-.05-.92-1.02-1.16-.35-1.49-1.93-1.32-1.26-.94-1.74-1.7-1.7-1.14-.59.24-.66.88.06-.21-.8-.86.04-.82-.69-.61-.98-.55-.55-.98-.47-1.66-1.17-.49.05-.92.52-1.14-.09-2.52-1.03h-.56l-.89.88-2.53 2.22-.79.52-.75.82-.7-.07-.42-.35-.7.14-.44.49-.49-.09-.23-.53-.77.09-1.35-.07-.6 1.18-1.15.45-.9-.06-.31-.32-.1-.77-.6-.56-1.6-.55-1.06-.9-.9.54-.96-1.57-1-.64-.27.05-1.85-.57-.65.8-2.4-.65-.13 1.18-.49.51-.64-.07-.6-.56-.2-.49.4-1.12-.39-.36-1.3-.05-.72-.63-2-.72-1.33-.84-.87-1.3-1.4-1.56-1.2-1.12-.94-.31-.44.36-.02.94-.45.47-.91-.32-.53-.94-.32-1.04-1.1-.57-1.16.56-.31.45.06.8-1.19.79-2.7-.52-.84 1.23h-.62l-1.09-.34-.26-.59-.71-.51-1.53-.44-1.1.43-.74-.48-.58.42-.22.48-1.25-.05-.74.58-1.23-.38-.25-.42.51-.9-.11-.7-1.14-.06-.67.62-.45.75-1.05.32-.25-.24-3.56-.77-.3-.33v-.78l.24-.7-.13-.73-.7-1.69.62-1.71-.72-.89.41-1.29-.2-1.35-.47.04-.88-.38-.43-1.26.14-1.15-.38-1.38.8-.89.1-.44-.46-.68-.12-.86.08-.95.37-.08 1-.19.7-1-.05-1.15-.27-.53-.47-.22-.42-.7v-.67l-.57-.62-1.33.08-.18-.46 1.33-1.65-.12-.68-.43-.19-.44.68-.64.4-.67-.08.24-1.1.02-.82-1 .03v-1.08l-.33-2.3.47-.5.7 1.26.52-.27.22-.55-.15-1.06-.58-.15-.33-1.05.26-1.41.66-.34.99-.19.11-.6-.9-.69.45-.97.28-1.41-.63.43-.5-.44.4-.53-.1-.9.15-.47 1.24-1.01.26-.53-.1-1.09.87-2.1.33-.4.19-1.65.4-.3.56.55 1.24.07.2-.66.51-.23-.93-.56v-.62l-.42-.39-.13-.68.8-.6.77-1.66.9-1.39.82.01 1.8-.64 1.01.06-.04.57.4.52.53.2.33-.7 1.2-.61.43.07.95-.34.16.62.5.38.86-.17.41-.3.07-.8-.47-1.89-.6-.34.38-.5.77.21.31-.61-.41-.88-.85-.18-.43-.45-.28-.75-.82-.55h13.92l4.11-.05V596l.51.01v-2.04l-.28-.15-.3-1.9.06-2.05-.03-10.33-.04-.76-.3-.94-.83-1-1.85-1.49-1.05-.6-.74-.64-.85-1.42-2.05-1.82-.55-1.27h-.41l-.22-.9-.12-1.83-2.38-8-1.67-5.43-.01-2.82.04-12.33z"/>
    <path region="24" short-name="25" long-name="State House District 25" value="1" d="M683.7 544.52h7.73l.81.38 2.65 3.18.94.57 12.45-.02.26 1.03-.08 1.94 1 .16.85.7.4.06.86 1.78.74.56.74 1.36.06.45.53.46 1.06.03.96-.48.83-.1.93.18 1.36-.7.74-.8 1.58-.96.46-.03.67.4.93.97.66.96-.2 2.77.15.65.93.72 1.24.29.87-.26 1.39-.03.6.15.78 1.35.19 1.21.6 1.77.97 1.38 1.26.4 1.23-.4 2.12-1.26-.09-.3.53-.62.46-1.17.02-.76-.34-1-.75-1.14-.92-.81-.86-.34-.07-.65.59-1.1.81-.9.88-.43.98.04 1.85.5.66.52.47.7.58 1.5.82 1.29 1.5.4 1.32-.06 1.01-.22 2.03-.78 2.18-1.5 1.52-.1.84.43.19.96-.07 1.33.73 1.57.68 1 1.16 1.12.61.37.83-.05 1.04-.79.74-1.57.7-.99.26-1.31.84-1.12 1.48-.83 1.45.17.62-.19 2.9 2.03 1.3-.23.7-.56.07-.56.46-.55.37-.93.13-1.04.4-.67-.02 11.63-.02 12.09v10.14l.01 2.25H757.2V616.84l-.2.02-13.43-.04-15-.04-8.14-.02.02-12.34h-12.28V567.31l-20.46-.06.09-.4v-5.8l-1.31-.01-.36-.86.31-1.12 1.14-.77.52-1.44.37-.31-1.07-.58-.74-.11-.85.15-1.03-.08-.24.3.3.9-.4.26-.76-.54v-11.94z"/>
    <path region="25" short-name="1" long-name="State House District 1" value="1" d="m926.64 592-.04-8.25.06-16.5 7.2.02-.02-10.79-.02-1.59h8.22l-.01-9 2.43-1.07 2.34-1.5.84-.86 3.64.01-.04-2.99.28-.92.65-.83 1.96 2.78.37.63 1.19 1.12.34.17 1.38.02 1.65-.63 3.07-3.23 2.46.05v5.62l1.01.3v2.04h1.03v2.07l1.31.02.74.86-1.04 1.18-.06 2.93-3-.05.02 3.28h.75l.14.53-.65.05.17 1.54-3.03.04-.01 1.05.3.3 1.4.32.14.41-.7.52.68.56.49.69-.06.49.93.59h.84l1.2 1.03.74.08-.37.97-1.42.53.12.24 2.1 1.2.94.4.1 1.88-.1 1.17-.26.93 1.37.53.48.56.49-.14 1.2.31.99-.17-.02-1.59 1.53-.02v1.6l.65.23.56.75.52 1.01 1.18-.14-.18.67.81.13.04.74-.55.86-.03.41.57.89.95-.81.13-1.52-.34-.36 1.23-1-.02-.3 1.35-.24.91-.4 1.6-.4 1.43-.14.23-.48 2.48-.65 1.04.04 1.24-.33.42.14 1.04-.83 1.05-.43h.74l2.18-.37 1.32.2-.4 14-.34 12.2v1.14l-.3 12.34-.28 12.03-.35 14.62-.04 1.05-.33 14.53-.2 8.33-.27 12.3-.26 11.41-.24 9.08-.22 10.67-.13 4.23-.46 18.9-.07 4.04-.12 3.44-.04 3.57-.61.23.42 1.02-.47.54-.73.15-.8.47-.8-.34-.67-1.35-.35.41.25.96-.2.69-.88.31-.91-.85.01-.45 1.88-1.69-.34-.5-.66-.08-1.58.67-1.2 1.13-1.48.3-.75-.5.24-1.02 1.1-.67 1.58-.6.33-.72-.08-.6-.74-.7-1.23.52-1.21.66-.85.94-.63.24-.89-.25.45-.64 1.33-1.3 1.44-.45.34-.55-.21-.34-.8.06-1.27.34-.05-1.78-.79-.98-.7.36.36 1.04-.23.42-.13 1.04-1.15.33-.55-.35-.47-.64-.19-.78-.5-.78-.56-.16-.67.19-.32 1.07-.83 1.24-2.09.62-.85-.13-.71-.46-.2-.56.25-.5.82-.45 1.23.66.67-.44-.39-1.47.4-.18.8-1.47-.67-.82-.5.52.16.74-.2.75-.47.02-1.01-.83-.72-.21-.46.18-.71.77-.8.49-2.42-.52-1.25.02-.13-.15.52-1.2 1.24.01.06-.84-1.13-.77-1.92-.93-.81.23.4.96 1.16.35.42.38.14.94-.48.86-1.76-.36-.7-1.35-1.19-.52-.15-.75 1.72-.6.67-.77-.28-.92-.76-.03-.26.26-.13 1-.82.56-.6-.6 1.05-.92-.36-1.27-.36.05-.72.89-1.46-.02-1.11-.43-.66-.71 1.27-1.39.42-.18 1.4-.04.46-.47.07-.66-.33-.48-1.22-.38-.51.4-.7 1.87-1.74 1.01-.75.67-1.03-.28-.58-.62.37-.87.08-.77-.52-.6.06-1.15-.28-.6-.79-.12-.56.68-.09.79.91 1.48.35 1.78-.28.3-.68-.32-.28-.78-2.17.13-1.33-.33-1.63-1.01-.08-.81 1-.97-.16-.99-.66-.2-.01 1.37-.3.44-.86-.82-.45-.8-1.17.02-.75-.62v-.56l-.85-.16-1.22-1.86.03-.6.54-1.75.51-.05.29-.52-.22-1.13-.32-.57-.84-.6-.47.04-.03.83.37 1-.25.95-1.72.43-.92-.38-.66-1.14 1.13-1.8-.66-.6-1.74-.49-.17-1.6-.35-1.75-.85.15-.64 1.06-.8.18-.48-.2-.57-1.13-.52-.36-1.21.7-2.9-.3-1.1-.33-.49-.97.03-1.13-.9-1.41-.21-2.02-.64-.23-.8.12.23-.8.53-.05.31-.64-.64-.6-.62.3-.12.91-.43.83-.21 2.92-.21.33-.84-.13-1.09-1.41-.15-.74.4-.5 1.17-.58.73-.55.48-1.08-.7-.9-.79 1.07-1.82.65-.91.7-.53.14-1.1-.49-.55-.73-.05-.53 1.04-1.22.18-.93-.4-.47-.75-.32-1.05.3-1.85-.3-.1-.84.03-4.55v-25.59l.6.02v-12.26h12.23V632.4l-.03-3.38V616.6h12.74V592z"/>
    <path region="26" short-name="67" long-name="State House District 67" value="1" d="M825.05 396.63h.97v-2.08h2.1l-.01 1.02 2.1-.01.92-.17.41-.4.73.25v7.67l-2.1.01h-2.07l.01-2.1h-2.1l.01-2.1h-.97l-.26-.98z"/>
    <path region="27" short-name="28" long-name="State House District 28" value="1" d="M683.7 532.13V528l10.77.02.02 1.02 3-.01-.01 1.03 4.6.02.03 8.95 2.54-1.7.01-1.09 3.64.02-.08-4.65h1v-1.51l5.12.01v2.07l8.19.01v-2.05l1.66-1.87.4-.2v-2.05h1.84l-.09-4.27-.07-16.47.04-6.22.02-10.3-3.24-.03-10.51.02-.03-2.08h-6.13l-.01 2.08h-8.27v2.07l-3.04-.05-5.27.01v1.03l2.12.1-.04.95 1.7.03.34.24.04 5.97-10.28-.01-.01-6.25.07-12.47 3.03-.02.78.09H704.34l14.41.01 12.35.07 12.96.03.05 8.31.07.57.74.7h1.23l.23-.51.6.35.28-.27.65-1.43.7-.38.82.61.23.75 1.14.37 1.17-.43.02 1.06.78.4.95-.05.79.17.4-1.31-.75-.68.11-.82-.8-.12-.7-.45.26-.51-.56-.64-.87.2-.07-.4.56-1.48-1.02-.2-.58-.5.17-.37.67-.28.13-.48.56.02.37-.36-.04-.64.93.24.62-.1.45.89.48.11 1.26 1.13.34 1.04.85.23 1.72.1 1.06-.52.53-1.04-.55-1.34.78-.67.5-.72.12-.65.49.06.7.7.38-.4.67-.05.46.44.74-.04.32-.38.26-.94.01 4.69-.02 17.63v11.4l.02 8.28-.02 8.3-5.73-.01-.01 13.48-.03 15.76-.84 1.12-.27 1.31-.68 1-.75 1.56-1.04.8-.83.04-.6-.37-1.17-1.13-.68-1-.73-1.56.07-1.33-.19-.96-.84-.44-1.52.1-2.18 1.51-2.03.78-1.01.22-1.32.05-1.5-.4-.82-1.27-.57-1.51-.48-.7-.66-.53-1.85-.49-.98-.04-.88.44-.81.89-.59 1.1.07.65.86.34.92.8.76 1.15.33 1-.02.76-.46 1.17-.52.62.08.3-2.12 1.25-1.23.42-1.26-.41-.98-1.38-.6-1.77-.18-1.2-.78-1.36-.6-.15-1.4.03-.86.25-1.23-.28-.94-.72-.16-.65.2-2.78-.65-.95-.93-.97-.66-.4-.47.03-1.57.95-.75.8-1.36.71-.93-.18-.83.1-.96.48-1.05-.03-.54-.46-.06-.45-.74-1.36-.74-.56-.87-1.79-.39-.05-.85-.7-1-.16.08-1.94-.26-1.03-12.45.02-.94-.57-2.65-3.18-.8-.38h-7.74l-.03-1z"/>
    <path region="28" short-name="81" long-name="State House District 81" value="1" d="M642.41 455.36h1.02l.02-4.18 3.1.04v-2.1l4.14.01v4.02l.03 4.3-2.1.01-.01 2.08-4.12.04v-2.09l-2.09-.02z"/>
    <path region="29" short-name="19" long-name="State House District 19" value="1" d="m754.85 713.1.85-1.51.95-1 .44-.68.17-1.04.9-.2v-.81h1.13l-.25.43.14.58 9.49.02v1.7l.41.33h2.76l.92-1.32.64-2.73v-13.83l2.28.03.88-.32.44-.45.3-.84.03-1.96.42-.75-.25-.22v-6.1h-.99l-.02-1.21.44-.75-.53-1.17-.55-.18-.1-.96-.72-.3-.23-.64.2-.75-.28-.6-1.01-.51-.2-.44.25-.77-.5-.75-1.05-.96-.81-1.01.31-.6-.8-.76.3-1.14-.19-.32-.85-.36-.15-.6-.6-.17-.7-1.24.32-.2.36.01h10.12l11.57.03 19.8.02 15.5.01.04-1.68-.01-4.1-.4-.45-.17-.68-.63-1.49.08-1-.17-.5-.7-.75-.4.42h-5.6l-.1-1.03v-3.08h-2.03v-2.03l-4.09-.03v-4.1h2.04l.02-2.05 2.04.01.03-3.86.96-.23.47-.47.55.48v-4.1l10.2.06-.01-2.05 3.96-.02.06-4.06 10.16-.04.01-12.6 12.53-.02v-12.31l.1-.02 11.72-.04h6.53V592l8.13-.01 15.12-.02 13.43.06h7.93l8.45-.03h14.24v24.58h-12.73v12.44l.01 3.38v21.43h-12.21v12.26l-.61-.02v25.59l-.03 4.55.1.85-.87-.56-.9-.8-1.62-.42-1.68-.62-.38-.42-1.34-.73-1.43.02-.5.3.03.57-.29.85-.8.31-.71.53-.5.74.22 2.58-.18 2.45-.34 1.2-.92.92-.4-.3-.22-.79.08-1.43-.1-.59-.54-.24-.92.18-.51.4-.3.56.14.58.46.35.28 1.3-.1 1.35-.24.35-.98.32-1.92-.23-.6-.4-.41-.56-1.4-.63-.4.08-.25.81-.34.41-1 .6-1.53.45-.7.4-1.48-.24-1.1-.03-.95.19-1.07.4-2.95-.87-1.59.56-2.06-.74h-.44l-.2-.62.54-1.43-.78-.04-.75.88-1.4.62-1.5.22-.96-.4.13-.91-.08-1.6-.64-.4-1.1 1.2-1.53 1.15-1.4.12-.36-.34-.3-1.44.28-.53v-1.66l-.46-1.59-.24-1.15-1.08-.69-2-.12-1-1.1-.84-.06-.23 1.13-.6.68-1.47.25-.7 1.28-.52 1.47-.62.4h-.93l-1.12-.34-.23-.25-.98-.12-.63.15-.52.44-.81 1.21-.92.99-1.53.58-1.47.15-.9-.65-1.72-.88-1.5-.06-1.23.52-.65 1.3-.07 1.27 1.27 1.86-.01.78-.67.77-.71.46-.82.21-1.38-.8-.87-.94-1.28-.5h-.5l-1.46.31-.47.34.32 1.7-.21.56-.88.63-1.08.06-1.03-.62-1.07-1.3-1.33-.3-.93-.63-1.37-1.25-.92-.37-3.64-2.47-.78.25-.49 1.77-.54 1.27-.35.25-.98.2-2.27.29-1.42.52v-1.65l-.57-.6-1.1-.5-.68.35.36.87.8.29-.45 1.46-.81.78-1.67.7-.42-.27.43-1.55-.51-.5-.65.1-.22 1.28-.68.84-1.36.67-1.76-.7-2.42-.73-1.8-.18-.16.17.45 1.23-.2 1.05-1.24-.27-1.52-1.06-1.86.11-1.07.2-.41.82.33 1.79-.23.3-.69-.17-.95.06-1.3.45-.35.57.44 1.2.56.37.07-.78.33-.87.58-.29.33.42-.23.62-.01 1.41-.18.98-.78 2.61-1 1.35-1 .58-1.55.6-2.4.67-1-.1-2.24-1.53-.86-.44-.93-.75-1.67-.42-1.21-.1-.64.25-.33.5-.75 2.1-.51 2.22.04 2.11-.34 1.33-.82 1.61-.48.55-1.26.23-.72.66-1.2.33-.89-.1-.73-.66-.12-1.3-.74-2.2-1.7-1.87-2.26-2.27-1.15-1.6-.32-1.18-.76-1.4-.88-.36-2.08-.34-1.3.82-1.62-.03-1.52.34-1.65.06-1.36-1.25-.47-.88-.08-2.16-.39-1.15-.78-1.34z"/>
    <path region="30" short-name="80" long-name="State House District 80" value="1" d="M832.27 402.91v-7.67l.01-.7h2.01l.04.68v5.6l6.24-.01h4.17v6.3h-2.03l.37.37.1.94-.37.1-.33.75-1.38-.6-.75-.11-1.18.26-.66-.13v-1.6l-6.25.02z"/>
    <path region="31" short-name="3" long-name="State House District 3" value="1" d="m955.34 500.49 1.49-.23.76-.3.45-.62.64-1.55.77-1.24 1.01-.64 2.28-.23 1.45.33.9.39 1.11.86.7.89 1.23 1.03 1.53.37.7.37.52.66.18.61.07 1.95.32.6.79.8.66.35 1.77.19 1.7-.37.95-.53 1.1-.94 1.4-2.52.58-.68.47-.22 2.14-.12.85.46 1.7 2.2 1.39.75 1.07.1 1.68-.56.93.53 1.17-.19.77.67 1.07-.52.5-.68-.26-1.22-1.02-1.05-.32-.63v-1.82l1.44-.93.22-.46-.62-1.16-.1-.64.37-.65 1.26-.91 1.42-.41.68.02 1.02-.23 1.22-.86.46 2.37-.07.85-.2 7.32-.14 2.99-.04 2.32-.13 3.6-.14 1.54.02 1.2-.17 4.8.02 1.44-.22 8.33-.3 9.46-.34 12-.35 11.72.03.76-.25 8.95-1.32-.2-2.18.37h-.73l-1.06.43-1.04.83-.42-.14-1.23.33-1.05-.04-2.48.65-.23.48-1.42.15-1.6.39-.92.4-1.35.25.02.3-1.23.99.34.36-.13 1.52-.95.8-.57-.88.03-.41.55-.86-.04-.74-.8-.13.17-.67-1.18.14-.52-1.01-.56-.75-.66-.24v-1.59l-1.52.02.02 1.6-1 .16-1.2-.31-.48.14-.48-.56-1.37-.53.27-.93.08-1.17-.1-1.88-.93-.4-2.1-1.2-.12-.24 1.42-.53.37-.97-.74-.08-1.2-1.03h-.84l-.93-.6.06-.48-.49-.7-.68-.55.7-.52-.14-.4-1.4-.33-.3-.3v-1.05l3.04-.04-.17-1.54.65-.05-.14-.53h-.75l-.02-3.28 3 .05.06-2.93 1.04-1.18-.74-.86-1.3-.02v-2.07h-1.03v-2.05l-1.02-.29v-5.62l.02-.61-.35-.65-.01-.7-.34-.47-.1-1.15-1.25-.64-.03-.72.49-.56.15-1.03.78-.4-1.5-1.65h-2.03l-.58-.35-.95-1.58 1.52-.15.09-2.26-.27-.6.45-.35-.26-.54-.02-3.48-.26-1.03.25-.1.12-1.38.19-.45.75-.01v-2.07l-4.12-.01v.52l-1.02.07-1.04-.29.03-14.84z"/>
    <path region="32" short-name="10" long-name="State House District 10" value="1" d="m795.39 258.3 5.07.04 16.38.02 10.58-.07 11.92.03 7.18-.02H886.03l-.01 8.26-2.79.01v35.5l-12.5-.03-8.48.02v-2.1h-18.71l-1.15-.8-1.38-1.3H828.7v-2.11l-6.31-.02-1.23-.52-1.35-.01-1.64-.15v1.22h.65l.64 2.99.34.7.84-.01.14 1.24.74.89h3l-.02 13.7.01.6.52 2.54.18 1.4.06 4.9-1.1.02v2.1h1.36l.58 1.8.12.84.01 12.08h-9.43l-.02-3.55h-3.45l.01 2.12-4.2-.05-.01 2.12-4.18-.01-.04 4.21h-5l-.67.14-1.53.76-1.11.38-1.73.76-2 1.1-1.17.09-.9-.21-1.02-.57-.66.02-1.55.47-1.24-.33-1.31-.6h-2.77l-1.5-.84-6.6-2.87-.7-.45-.67-1.4-.76-.66 2.1-.03-.52-.53v-3.72l-.55-.2-1.57.24.02-.98.24-.63 1.53-3.03.69-2.24.33-.6 3.96-4.51.52-1.07.04-.61h-.99v-1.05h.99l.16-.52.62-.71 1.44-3.25.33-1.64v-3.32l-.47-2.15v-1.93l-.52-1.87-.06-1.54.17-.63-.03-3.46-.12-1.02.21-.97.52-1.57 1.13-3.82 1.64-2.76.57-1.39 1.02-3.15.09-.61.8-1.9 1.03-1.53.11-.82-.1-1.3.3-.88 3.59-3.21.8-.83 1.04-2.99-.12-4.43-.1-1.32.57-3.3.65-1.43.04-1.26.42-1.28.16-1.1.53-.86z"/>
    <path region="33" short-name="35" long-name="State House District 35" value="1" d="m699.13 329.99.33 2.56.73 1.17.94.48 1.04 1.08.21.64 1.72.86h1.5l1.65.67.74-.11.97-.93.94-.18.59-.57 1.84-.13.73-.48.75-.07 1.01.23.86-.95.28-.53.95-.69.65-.75.5-1.13 1.13-1.87.02-1.31.39-.56.93-.71.67-1.43 2.62-2.06.85-.3.9-.71 1.6-.71 1.86.4 1.9 1.82.53 1 .52 1.63.15.85.4.86.04 1.64 1.06.3h1.13l3.62 1.57 4 2.34.84.67 3.42 1.67 2.43 1.78.63.28 1 .05 1.33.24 3.36 1.29 1.39.05.8.27 4.38 3.32.81.2 1.76-.3.66.05 1.36.62 1.04.2 1.37-.82.45-.1-.01-2.81h1.58l.5-.54v-1.58l1.57-.24.55.2v3.72l.52.53-2.1.03.76.66.68 1.4.7.45 6.6 2.87 1.5.84h2.76l1.31.6 1.24.33 1.55-.47.65-.02 1.03.57.9.2 1.17-.08-.1.99 1.8-.01-.04 4.2.28 1.03.43.6.19.7-.13.64-.47.64.14.81h-.52l.05 2.98v5.27l3.2.02.36 1.36-.43 1.02-.07 1.79h-1.62l-.82.9-.03 1.05-1.15.15-5.29-.01-.6 1.5-1.18 1.14-.8.6-.54.84-.12.88.23.81-3.46-.04-12-.09.26 5.13 1.1 1.82.19.57.04 9.22v6.32l-13.46.04-.5.09-2.56.98-1.8.87-.99.15h-2.4l-1.25.18v4.18l-.53-.16h-3.72l-.15-5.25-.1-11.17.03-7.72.1-4.82-4.67.04h-5.04l-9.25.06-2.15-.02-1.94.07.02-4.17-12.46-.25-9.47.1-2.32.05h-2.93v2.1h-2.1v-2.1l-8.27.03v4.19H667.3v-14.36l.11-.57V362h-.76v-.53h-1.5l.03-4.22 2.1-.01.02-18.54-.02-2.41 8.41-.01 1.67-.44.77.4 14.22.02v-2.11l4.19.02-.01-4.2z"/>
    <path region="34" short-name="52" long-name="State House District 52" value="1" d="M350.24 542.37h5.91l7.15-.05v.05l12.3-.03.04-12.38 20.09.02.44-.03 5.47.04.3-.04 13.63.02-.4.58.4.49 1.14.17.78-.84.94.33.77-.4v-.34l5.73.03h19.56l15.38.02.01 8.27-.04 12.33v2.82l1.68 5.43 2.39 8 .1 1.82.23.9h.41l.55 1.28 2.05 1.82.85 1.42.74.64 1.05.6 1.85 1.49.82 1 .31.94.04.76.03 10.33-.05 2.05.3 1.9.27.15V596h-.5v2.03l-4.12.06-13.92-.01.82.55.28.75.43.45.85.18.41.88-.3.61-.78-.2-.38.5.6.33.47 1.89-.07.8-.4.3-.86.17-.5-.38-.17-.62-.95.34-.43-.07-1.2.61-.33.7-.54-.2-.39-.52.04-.57-1.02-.07-1.8.65h-.8l-.91 1.38-.78 1.67-.79.59.13.68.41.4.01.61.93.56-.51.23-.2.66-1.24-.07-.55-.56-.41.31-.19 1.65-.33.4-.87 2.1.1 1.1-.26.52-1.24 1.01-.16.48.12.89-.41.53.5.44.63-.43-.28 1.4-.45.98.9.68-.11.61-1 .19-.65.34-.26 1.4.33 1.06.58.15.15 1.06-.22.55-.52.27-.7-1.26-.47.5.32 2.3.02 1.08.99-.03-.02.83-.24 1.09.67.07.65-.39.43-.68.43.2.12.67-1.33 1.65.19.46 1.32-.08.56.62.01.67.42.7.47.22.27.53.05 1.15-.7 1-1 .2-1.21-.47-1.4.71-.58-.61.66-1.09-.66-.7-.26-.71-.12-1.15-.8.42-.44-.53.62-.74-.72-.47-.66.5-.46-.02-.06-.6-1.42-.67-.42-.47.12-.37 1.1-.08.66-.56-.35-.42.05-1.2-.75-.2-.2.43-1.09.23-.5-.38.03-.64-.42-.78-.95-.33-1.6.75-.94.26-.38-.1-.53-.79-.52-1.12-.63-.72-.85-.5-1.8-1.57.24-1.38-.48-.56-1.26-.4-.67-.02-.66.27-1.63 2.1-.13 1 .36.43-.03.61-.41.42-.04.74.37.59.74.46-.97 2.3-.1 2.3-.72.85-.5.12-.68-.62-.9-.48-.34-.74-.44.07-.3.58.08.74-.2.66h-.84l-1.68-2.42-.33.3-.1.81-.55-.04-.16-1.48-.46-.67-.86.08-1.57-.37-1.48-1.65-.82.01-.49-.45-.76-.25-1.42.43-2.27-.18-1.5-.65-1.43-.14-.66.23-.52 1.27-.1 1.35.1.98-.36.76-.63.49-.39.74-.43.35-.84-.32-1.98.47-.9-.58-1.27-.54-.62-.11-.71.82-1 .4-1.81-.87-1.95.21-.72-.97-.64-.1-.7-.7-.44-1.69-.45-.5-1.17-.69-1.24-.5-1.55-.92-1.52-1.3.2-1-1.19-.95-.84-.02-.3-.8-.95-.54-2.41-3.16-.52-1.24.24-.67-.65-1.19-.35.07-.89-.35-2.35-1.63-1.85-2.27-.64-1.34-1.49-1.7-1.03-.91-.34-.04-1.97-1.44-.7-.6-.16-.62-.72-.3-1.91-.37-1.03.16-.35.77-.94.98-.7.52-1.66.3-1.36-.06h-.34V567.5z"/>
    <path region="35" short-name="58" long-name="State House District 58" value="1" d="m413.73 258.27 5.74-.02 3.69-.08 11.41.08 17.81.03 8.77.03 2.38-.06 18.65.05h9.04l3.54-.02 5.5.05h19.79l15.85.08 6.4.08h13.58l14.67-.02.06 8.19h.22l-.02 18.67-.05.4-.04 6.35.04 2.69.06 12.1.03.15.01 10.38 4.72.01h12.5l.03 11.53-.06 5.26.35 1.34-.36.78.01 4.2h2.1l-.01 1.06.03 3.15h-10.42l.03 12.62-.02 6.28v15.88h-7.5l-5.99.04-9.53-.04-10.14.02-18.65-.01-16.56-.07-12.53.31-19.63.3-7.13-.06-.01-10.02H466l-.46.22-.9-.27-2.11-.02-.5.1-1.04-.98-.27-.56-.9-.23-.66-1.24-.14-.94-.48-.47-1-.21-.65-1.94-.88-.72-.84.06-.59-.26-.26-.51.58-.93-1.03-.84-.25-.66-1.54.3-1.55-.73.58-.58.02-.8-1.3-.86-.31.84-.63.45-.47-.15-.72-1.14.18-.94-.6-.1-.29.5-.62.23-.1.62-.46.49-1.36-.01v-.5l-2.1-.05.03-2.06-2.1-.01-.05-6.3-10.93.05-.2.02-3.44-2.02-1.95-2.06-2.2.07-4.2-.05v-2.06h-2.11l.02-2.1h1.76l-.92-2.09h3.15l2.17.48.02-1.53 6.4-.11.01-3.1.07-.05-.07-4.2 4.2-.1v-4.19l-.05-8.54.54-.21-.01-12.37.05-13.22-.03-6.88-.45-.63-1.1-.73-.26-.85-.78-1.11-.1-1.12.57-.57-.1-.33-.92-.15-.95-.84-3.05-1.32-1.04-.8-1.04-.3-.4-.93-.7-.75-.54-1.53.15-.63-.7-1-.6-1.28-.79-.53-1.06-1.5-.76-.83-.7-1.43-.2-.64.12-.68-.8-1.47-.6-1.51-.09-1.51-.4-.7h-1.1z"/>
    <path region="36" short-name="5" long-name="State House District 5" value="1" d="m905.82 344.22 3.26-.03 1.31-4.18 2.25-1.88.56-.23 2.81-.01 1.68-.32h.64v-1.07l1.07.76 3.98-3.36.57-.2 3.88.03.05-.86.78-1.48 1.11-.43.39-.31.88.01.21-.3-.4-.83 2.08.03V316.8l.74-.05V306.2l13.17.03 5.33-.02.6.48 1.04 1.69 1.18.68.29.5v1.57l.53.8.04.87h9.31v3.97h13.02v14.3l.47 3.37.98 7.87.4 2.88 1.25 10.08-.55-.57-1.23.72-.26.5-1.44.1-.02-.42-1.3-.64-.16-.43-2.05.49-.67.64.03 1.06-3.16.29-.13-.38-1.02-.52-.65.36-1.8.34-.42-.54-.9.07-.07-.5-.7.01-1.04-.52-.18-.66-.85-.09-1.17-1.19-1 .44-1.03-.84-1.82-.54-.78-.44-.97.72-1.19-.1-.86.12-.81.56-2.44.74.01 1.71h-1.04v2.9l-.66.2-.35.89-.5-.35-.82.17-1.39 2.81-.77-.23-1.08.01-.3.45-.28 1.18-.57.37-.4.8 1 1.04-.1.83-.66 1.26-.57-.34-.8-.96-1.04-1.77-1.05.3-.34-.12-3.42.02-.4-.27-.76.35-1.41-.23.01 2.33-.54-.01-.06 2.09-6.33.03-6.27-.01.02 4.83-.79.76-.68 1.09-.63.18-2.66-.2-1.16.35-2.23.24-1.9.06-2.4.44v-7.41l-.19-2.32-.28-.21h-3.13V361l1.1.02 1.2-6.32-.2-.38z"/>
    <path region="37" short-name="71" long-name="State House District 71" value="1" d="M818.15 382.57v1.11l.73.4 2.49.01-.06 1.04-.48.5-.13.55h1.12l.03 8.38v2.07l-1.93.02-.21-.55-.29-1.43-.86-2.2-.22-2.12.25-2.07-.18-2.45-.56-1.53-1-1.19-.6-.39.63-.37z"/>
    <path region="38" short-name="15" long-name="State House District 15" value="1" d="m819.1 492.84 12.37.02.01-12.45 6.17-.02.01-12.6h20.57l.01 4.05.15.7 1.15 1.58 3.01 3.92.37.24h5.68v2.89l1.98-.04v1.3l4.13-.02.02-2.08 6.21-.03 11.4.02 1.03-.52v-12.02h-1.55v-12.51l8.3.01-.01-1.02h.94l.3-.54 3.06-3.84v-.2l1.4-2.05 1.09-1.39.55-1.32.3.07-.3 1.25-.25 1.87.2.51.64.51 1.82 2h1.12v1.22l.78.86h2.86l-.01-2.08 2.95.01.46-.7.74-.07v4.92l-.05 2.67.04 2.55v7.26h-.58v3.7l.55.68.34 1.33.44.9 1.54 1.8 1.34 1.07.44.86.47 2.13.88.82.42.04 1.36-.86.48-.04 1.34.89.76.27h.88l1.28.56.19.66-.15 1.9.1.7.44.76 1.57 1.5.73.36 1.57.52 1.38.06 1.05.18.8-.22 1.2.14 1.2 1.53 1.5.53 1-.13.7-.49 1.08-.1.65.88.46 1.06v.67l-.28.94-.9.85-1.5 1.22-.46.64.06.53.8.54h1.16l.75-.36 3.46-1.06.74-.49 1.15-1.22.88-.36 1.27.79.24.52.02 2.16.18 1.34.43 1.15.36.5.82.37-.04.67-.03 14.84 1.04.3 1.01-.08v-.52l4.13.01v2.07h-.75l-.2.46-.1 1.38-.26.1.26 1.03.02 3.48.26.54-.45.34.27.6-.09 2.27-1.52.15.95 1.58.58.35h2.03l1.5 1.65-.78.4-.15 1.03-.49.56.03.72 1.25.64.1 1.15.33.48.02.7.35.64-.02.61-2.46-.05-3.07 3.23-1.65.63-1.39-.02-.33-.17-1.2-1.12-.36-.63-1.96-2.78-.65.83-.28.92.04 3-3.64-.02-.84.87-2.34 1.49-2.43 1.06-.01-7.55-15.37.08h-13.93l-7.57-.02-9.27-.06-3.04-.04-.01-9.62-2.52.48-.18-.77-.41-.1-.82-.7-.87-1.33-.33-.92-.03-1.54-7.15-.02-.02-6.04h-6.15l-3.77.1h-3.98l.48-.27.17-.73-.74-.19v-1.03l2.09.01v-.52l-.52-.52-.53-.01-.25-.64-1.87.98-2.42.97-.7-.12.34-.56-1.02-.15-.65-.47.3-.81 1.53-.67.39-.62-.3-1.1-.5-.37h-.63l-1.44.42-.8.73-2.63 1.47-1.7.58-1.04.9-.21.66.26.58.74.49-.68.78-.8-.22-1.2.28-1.17.1-.6.74-.45 1.11-.7-.01-.89-.37-1.19-.11-.45.13-.67 1.17-.74.93h-.94l-.52-.26-1.58-2.07-.65-.42-.67-.12-1.27.14-1.06.4-1.28.86-1.7.45-1.04-.58-1.05.25-1.16-.1-.46.19-.45.82-1.06 2.52-.56.98-.95.95-1.09.72-1.4.22-1.24-.16-2.11-.91-.72-.2-1.5-.16-2.04.11v-7.3h.2l-.01-12.42z"/>
    <path region="39" short-name="2" long-name="State House District 2" value="1" d="m918.76 455.3 13.38.02h23.89l12.43.03 12.39.01h10.76l3.51-.03 1.1 8.02 1.56 12.14 2.22 14.97-.07.28-.48.77-1.22.86-1.02.23-.68-.02-1.43.4-1.26.92-.36.65.1.64.62 1.16-.22.46-1.44.93v1.82l.32.63 1.02 1.05.25 1.23-.49.67-1.07.52-.77-.67-1.17.19-.93-.53-1.68.56-1.07-.1-1.4-.75-1.69-2.2-.85-.46-2.14.13-.47.21-.59.68-1.4 2.52-1.09.94-.96.54-1.7.36-1.76-.2-.66-.34-.8-.8-.31-.6-.07-1.95-.18-.6-.52-.67-.7-.37-1.53-.37-1.23-1.03-.7-.9-1.1-.85-.91-.39-1.45-.33-2.28.23-1.01.64-.77 1.24-.64 1.55-.45.61-.76.3-1.49.24-.82-.37-.36-.5-.43-1.14-.18-1.35-.02-2.16-.24-.52-1.27-.8-.88.37-1.15 1.22-.74.5-3.46 1.05-.75.36h-1.16l-.8-.53-.06-.54.46-.64 1.5-1.22.9-.85.28-.94v-.67l-.46-1.06-.65-.88-1.08.1-.7.5-1 .13-1.5-.54-1.2-1.53-1.2-.14-.8.22-1.05-.18-1.38-.06-1.57-.52-.73-.37-1.57-1.49-.44-.76-.1-.7.15-1.9-.19-.66-1.28-.56h-.88l-.76-.27-1.34-.89-.48.04-1.36.86-.42-.04-.88-.82-.47-2.13-.44-.86-1.34-1.06-1.54-1.8-.44-.91-.34-1.33-.55-.68v-3.7h.58v-7.26l-.04-2.55z"/>
    <path region="40" short-name="94" long-name="State House District 94" value="1" d="M643.41 482.38h1.22l.03-2.02.71.12 1.36-.83.87-.92.8-.47h2.41l.05 6.22v8.29h-4.16v-4.15h-1.54v-1.1l.45-.22v-.76h-2.29l.24-.72.01-2.4z"/>
    <path region="41" short-name="69" long-name="State House District 69" value="1" d="m819.7 396.1.22.55 1.94-.02v-2.07l2.09-.01-.15 1.15.14.93h1.1l-.25 1.1.26 1h.97v2.1h2.09l-.01 2.1 2.06-.01.02 2.1h-2.1v3.3l-.9-.98-.6-.25-.63.03-6.2-.01v-4.2h-2.09v-3.14l1.37-.01.73.3z"/>
    <path region="42" short-name="96" long-name="State House District 96" value="1" d="M638.25 455.34h1.04l3.12.02v2.11l2.08.02v2.1l4.12-.05v-2.08h2.11l-.04-4.31.01-4.02h-4.14v-6.27l4.8.02 7.48-.02 6.37.03.02 14.6-6.22-.03v4.18l-8.31-.01v-.65l-.82-.28h-6.15l-1.42.23-1.34-.02-.62-.16-4.16-.19-.6.17.08.9-1.56-.01v-2.17l2.99.02 1.16.1z"/>
    <path region="43" short-name="95" long-name="State House District 95" value="1" d="M646.7 492.76h4.16v-8.28l-.05-6.23 5.1.02.07 2.08h-.4l-.63.69.02 3.44h1.1l-.02 1.07h.96v-1.07l6.17-.02.02 8.31h2.06l-.02 4.14-2.06-.03v1.06l-6.16-.02-.01-1.05-8.23-.02-2.07.02z"/>
    <path region="44" short-name="7" long-name="State House District 7" value="1" d="M886.03 258.3h3.56l12.76-.03H934.15l16.58.09 13.53.03 4.37-.02 8.7.02.84-.04-.03 14.87-.05 2.48.03 4.77.01 11.77.02 9.48.03 15.04h-13.02v-3.95l-9.3-.01-.05-.86-.52-.8-.01-1.58-.29-.5-1.18-.68-1.04-1.68-.6-.49-5.33.02-13.17-.03v-4.23l-12.62.01v4.23l-8.4.03v2.1l-8.4.03v-4.23l-10.5.03-.77-.03-9.74.06v-2.13l-.01-21.1v-14.4l2.79-.01z"/>
    <path region="45" short-name="42" long-name="State House District 42" value="1" d="m622.05 531.98 2.04.07 6.2-.01-.02 6.21h11.46l-.1 1.18h2.03l.98-.34.01-2.92 4.1.02v1l2.05.02v-2.08h1.04l-.07-1.02h1.47l1.34.75.72.05 1.41-.4 1.08.07.45.27.71.86.18.62-.2 1 .53 1.17-.07.84-.62 1.51-.26.98.15.69.46-.08h6.1l-.02 2.08h4.13l10.25-.03 4.12.03-.03.4v11.93l.76.54.4-.25-.3-.92.24-.29 1.04.08.84-.15.74.11 1.07.58-.37.31-.52 1.44-1.14.77-.31 1.12.36.85 1.32.02-.01 5.8-.09.4 20.46.06V598.24l-18.4-.03-6.13-.02v2.06l-6.7-.02h-1.47l-.03-14.75-.23-1.37-.64-.7-1 .87-1.14-.58-13.3.02-.83.1-1.75-1.17-3.56.04v3.08l-6.08.02-8.21-.02v6l-.05.19h-3.6l-.45.5v-.51l-12.3-.03.03-15.42.01-9.26-.27-.01-.02-2.07v-9.28l.01-15.5z"/>
    <path region="46" short-name="68" long-name="State House District 68" value="1" d="m811.41 383.01.48-.07 2-.68.66-.1 1.07.17.63.4.6.38 1 1.19.56 1.53.18 2.45-.25 2.07.22 2.13.86 2.19.29 1.43.05 3.96-.73-.3-1.36.01v3.14h2.08v4.2h-2.1v2.1h-2.07l-.03-.74H815l-.41.66-1.1.08v-10.5l-2.09.01v-2.1h2.09v-2.09h-1l.08-1.04.92-.15.01-5.09-3.99-.01-.18-.18v-3.63l.92-.38.02-.81z"/>
    <path region="47" short-name="33" long-name="State House District 33" value="1" d="m654.32 417.94.17-1.8.25-.27 4.24-.01.02-14.32-.02-.04v-14.24l-.02-6.9 8.34-.02h16.56v-4.19l8.27-.02v2.09h-1.06l-.63-.67h-.62l-.81.68h-1.06l.03 4.18h.53l.01 2.1-4.61-.03-.02 4.23h6.22v-1.05l4.1-.08 2.15.06-.06-9.44-2.06.01v-2.09h2.92l2.32-.06 9.47-.09 12.46.25-.02 4.17 1.94-.07 2.15.02 9.25-.05h5.04l4.67-.05-.1 4.82-.04 7.72.11 11.17.16 5.24.08 2.56-2.66-.05-2.06.03-2.07-.06h-10.43l-6.19-.03-6.24.03.04-4.2-.04-2.12-14.54.06v-2.06l-6.12-.02v2.1l-6.32-.02.1 1.54 1.18-.57.96.23.34.96-.67 1.35-.89.51-1.27.01-.64-.71-.58-.19-1.16-.7-.51.01-.85.78-.14.6-.01 8.72h-.1l-.01 4.24-.9.03-15.56-.14v4.18l-6.23-.06v1.05l-2.09-.03-.01-1.04-4.59-.04-.13-.39z"/>
    <path region="48" short-name="73" long-name="State House District 73" value="1" d="m816.78 367.21 1.96.1v2.08l3.05-.02.03 6.29v5.76l-2.57-.14-.24-.55-2.17.92-.15-1.3.31-.3-5.17.02.28-.14.47-.93-.18-.54.29-1.33.37-.2.1-.61-.57-.07v-4.12h2.98l.64-.2.56-.47z"/>
    <path region="49" short-name="9" long-name="State House District 9" value="1" d="m832.54 354.67 6.3.02 4.21.02h8.97l1.88-.06.62.07-1.34-3.63 1.27-.57.43-.72 1.17.72h10.01l.03 4.21-.04 4.21-3.26 1.9-.44.36-1.55 1.82-.47.08-5.95-.02-.37 1.02-.91 1.26-1-.58-.53-.81-1.14-.2-.83.45-.87.07-.46.5-1.12-.08-.4.4 1.22 1.2v.95l-2.84.03-.03-2.1h-2.04l-.05-6.29-4.16-.01v-2.1l-6.31-.01z"/>
    <path region="50" short-name="23" long-name="State House District 23" value="1" d="m834.3 382.28.36-.32h3.81l.02-11.05 1.54-.2 3.92-.71.98-.25-.05-1.05.24-.48v-.93l2.86-.03-.01-.96-1.22-1.2.4-.4 1.12.1.46-.5.87-.08.83-.44 1.14.19.53.8 1 .6.9-1.27.38-1.02 5.95.02.47-.08 1.83.16.12 1.14-.3.45.76.92h.56l-.24 1.57.23.84-.26.25.32 1.57-.8.82.08.62.69.3.04.47-.57 1.37-.2 1.34-1 .96-.75-.06.12.8-.14 1.1-.28.54.27.38v1.28l-6.16.05.03 8.38-6.26-.02v-1.04h-.96v-1.06h-3.18l-5.72.03-4.72-.03z"/>
    <path region="51" short-name="31" long-name="State House District 31" value="1" d="m632.02 426.04 4.1.02.01-4.18 2.2-.02 5.77.06.38-.08v-2l1.54.06 5.68-.05v-1.92l2.62.01-.06 7.81.13.39 4.59.04.01 1.04 2.09.03v-1.05l6.23.06h2.05l.01 2.09 1.88.01.2.76v13.81l-6.25-.04-6.37-.03-7.48.01h-4.8l-8.32-.05v4.78l-.1.4h-1.98v-1l-2.05-.03-8.32.04.01-4.23 6.28.02-.03-.83.01-9.63z"/>
    <path region="52" short-name="6" long-name="State House District 6" value="1" d="M839.14 297.85h1.87l1.38 1.31 1.15.8H862.24v2.1l8.49-.02 12.5.03.01 2.13 9.74-.06.77.03 10.5-.03v4.22l8.4-.02v-2.1l8.4-.03v-4.23l12.63-.01-.01 4.23v10.56l-.73.05v12.75l-2.1-.03.41.83-.2.3-.9-.01-.38.31-1.11.43-.78 1.48-.05.86-3.88-.02-.57.2-3.98 3.35-1.07-.76v1.07h-.64l-1.68.32-2.81.01-.56.23-2.25 1.88-1.31 4.18-3.27.03H893.6l-.34.15v1.94h-8.56l-1.16.03-5.48-.03h-14.24l-3.67.03-.37.43v3.75h-3.73l-1.17-.72-.43.72-1.27.57 1.34 3.63-.62-.07-1.88.07h-8.97l-4.2-.03-.01-8.4h2.1l-.01-4.21h-2.1l-.01-10.25.01-2.37v-12.63h.33V306.3z"/>
    <path region="53" short-name="99" long-name="State House District 99" value="1" d="M634.1 461.62h1.56l-.07-.9.59-.16 4.16.2v7.11l-.09 3.5-.24.61 1.6.02-.04 3.13 2.06.01v1.04h7.17l.01 2.08h-2.4l-.81.47-.87.92-1.36.83-.71-.13-.03 2.04h-2.06v-.66l-2.11-.26.1-3.74-.06-1.51-.16-.45-.1-1.69-.39-1.65.02-.45-1.4.02v-4.13h-.52v-1.07h-.36l-.36-1v-2.09l-3.12-.01z"/>
    <path region="54" short-name="13" long-name="State House District 13" value="1" d="m844.22 424.03 4.1-.03 9.4-.02-.08.42.36.9-.13.77 1.17 1.33-.06 1.61-.22.9.46 1.49-.26 2.03.17.48.79.74 1.17.7 1.42.16.87-.23.98 1.5.4.32.63-.02.86-.86 1.06-1.64.6-.71.79-.12.32.22 1.05-.15.7-.34 2.08-.24 2.7-1.04 2.34-.68 1.63-.07 2.01.69 2.34.22.7-.17 2.1-1.02-.11-4.72.04-.94v-5.7l.04-.15 1.06.58.3-.46h10v10.45l-3.06-.01-.36 3.13-.2 1.05h1.25l-.03 1.44.34.32v2.42l-3.73.01-.11.48-1.19-.33-.4.88-1.6-.7-.47 1.1.14.4 1.37.61-.59 1.47.38.26h7.74l-.02 2.1 6.79.01v-.67l3.2.72-.55 1.32-1.1 1.4-1.4 2.04v.2l-3.04 3.84-.31.54h-.94v1.02l-8.28-.01v12.5l1.55.01v12.02l-1.04.52-11.4-.02-6.21.03-.02 2.08-4.14.02v-1.3l-1.97.04v-2.88h-5.68l-.37-.25-3.01-3.92-1.15-1.59-.15-.69v-4.05h2.5l.02-12.47-2.05-.01-.03-6.25v-6.29l-14.47.03z"/>
    <path region="55" short-name="14" long-name="State House District 14" value="1" d="M894.78 400.85h.43l.64 1.43.58.66.38.02.01 3.2.36.35 1 .47.46 1.02 1.76-.2.94.11.63-.91 1-.73 1.2-1.2 1.5.02.09.4-.53.4-.01 1.44.66-.14h3.48v2.09h3.36l.82.32-.01 1.77h2.1l-.07 1.29h-.71l-.25.67 2.51.13.08.86h.51l-.2 1.01.2.45v.96l.38.25.11.66h.61v7.6l-.03.87v15.44l-.03 3.09.02 5.72-.74.07-.46.7-2.95-.01.01 2.08h-2.86l-.77-.86-.01-1.23-1.12.01-1.82-2-.63-.5-.2-.52.25-1.87.29-1.25-.3-.07-3.2-.72v.67l-6.8-.02.03-2.09h-7.74l-.38-.26.59-1.47-1.37-.6-.14-.4.48-1.11 1.58.7.41-.88 1.19.33.11-.47 3.73-.02v-2.42l-.34-.32.03-1.45h-1.25l.2-1.03.36-3.14 3.06.01v-10.45h-10l-.3.47-1.06-.58v-3.2l-.19-.94v-4.2h-2.05l-.03-4.19h2.07v-1.79l-.14-.31h2.22v-4.2z"/>
    <path region="56" short-name="24" long-name="State House District 24" value="1" d="m799.45 415.46 7.8.03h6.24v-4.2l2.07.04.02-2.12h2.08v-2.1h2.08l6.2.01.64-.03.6.26.9.96v-3.3h2.1l-.02-2.09h2.11l-.01 4.19-.02 6.27-4.15.02-.01 4.17h-.43l-.03 4.31-.01 14.65-4.14-.01v4.16l-12.47-.04v-2.1h-2.34l-10.1.02v2.08h-4.08l.01-16.71.05-3.15 3.04.02v-3.22l.7.38.6-.4.02-2.04z"/>
    <path region="57" short-name="29" long-name="State House District 29" value="1" d="m744.65 411.75-.08-2.56h3.71l.53.17v-4.18l1.25-.19 2.4.01 1-.15 1.79-.88 2.55-.97.51-.1 13.46-.03v-6.32l-.04-9.22-.19-.57-1.1-1.82-.26-5.13 12 .09 3.46.04 1.32 1.48.88.5.79 1.02.54.26 1.36-.03 1.12-.24 1.61-.61 1.46-.09.05 1.14-.02 4.82 10.4.04v4.2l3.13.02.07 2.45-.06.47-1 2.14-.66 1.2-3.58.02-8.3-.04v3.15l.13 1.57.01 1.58-.11.2-.04 2.32v5.86l2.1-.01v2.1h2.6l-.54.06-.01 2.03-.61.41-.7-.38v3.21h-3.04l-.05 3.14-.01 16.71v14.61l-10.38.04-13.17-.04-15.76.01H744.5v-2.35l.09-6.68-.04-1.13.1-10.73v-11.5l-.1-9.52z"/>
    <path region="58" short-name="32" long-name="State House District 32" value="1" d="m744.65 411.75-.09 1.6.1 9.53v11.5l-.1 10.72.04 1.13-.1 6.68.01 2.35-.1 12.52-.35 12.76-12.96-.03-12.35-.07-14.41-.02-7.21.01h-9.55l-.78-.09-3.03.02.02-4.1-.02-8.25.07-.13-.04-4.08v-11.46l.02-9.34-12.38-.07v-13.81l-.2-.76-1.87-.01v-2.1l-2.06.01v-4.18l15.55.14.9-.03.02-4.24h.1v-8.72l.15-.6.85-.78.5-.01 1.17.7.58.19.64.71h1.27l.89-.52.67-1.35-.34-.96-.96-.23-1.17.57-.11-1.53h6.33v-2.1l6.1.03v2.06l14.55-.06.04 2.12-.04 4.2 6.24-.03 6.19.03h10.43l2.07.06 2.06-.03z"/>
    <path region="59" short-name="34" long-name="State House District 34" value="1" d="M692.14 378.22h2.1l2.06-.02.06 9.44-2.15-.06-4.1.08v1.05h-6.22l.02-4.23 4.61.03-.01-2.1h-.53l-.03-4.17h1.06l.81-.7.62.01.63.68z"/>
    <path region="60" short-name="76" long-name="State House District 76" value="1" d="M834.3 392.45h5.06l1.22.65-.01 7.7-6.25.03v-5.6l-.03-.69v-1l-.4-.65z"/>
    <path region="61" short-name="72" long-name="State House District 72" value="1" d="m811.83 380.07 5.17-.02-.3.3.14 1.3 2.17-.92.24.55 2.56.14v-5.76l-.02-6.3-3.05.03v-2.08l-1.96-.1v-4.24l1.16.11H820v-1.05l4.2-.03 6.25-.01.03 5.29-.34.27v4.69l-1.14.95-3.02.45-.01 4.12-1.2-.01.09 1.58-.18.79h-.79v1.87h-2.08v.7l-2.41-.07-.33.25-.93-.3-1.27-.22-.63.37-.63-.4-1.07-.16-.66.1-2 .68-.48.07.02-1.05-1.05-.01v-1.88z"/>
    <path region="62" short-name="78" long-name="State House District 78" value="1" d="m818.15 382.57.93.3.33-.25 2.4.08v-.7l2.08-.01 9.35-.03.04 1.22 1.03-.9v3.87l-.63.47-.36-.47-2.18.01v.9l-.96.08v.52l-1.17-.74.86-.76-3.88.02v-2.1l-4.62.01-2.5-.01-.72-.4z"/>
    <path region="63" short-name="83" long-name="State House District 83" value="1" d="m625.78 459.6 2.08.01v2.02h2.07v-2.06l2.08.02v-2.12l2.1-.01v-2.13h4.14v4.24l-1.16-.1-2.98-.02v4.25l-1.91.03-.4-.31h-1.25l-1.98.29-.26.5-.45.03v1.55h-2.06l-.01-4.15z"/>
    <path region="64" short-name="85" long-name="State House District 85" value="1" d="M625.8 465.8h2.06v-1.56l.45-.02.26-.51 1.98-.29h1.25l.4.31 1.9-.03 3.13.01v2.09l.36 1h.36v1.07h.52V472l1.4-.02-.02.45.38 1.65h-3.39v-.84h.4l-.2-1.19-2.75-.61-.01-1.48-2.86-.04-1.28-.68-2.08-1.12-2.26-1.22z"/>
    <path region="65" short-name="87" long-name="State House District 87" value="1" d="M626 477.2h1.02v-.52l.51-.52h2.61v-6.92l1.28.68 2.86.04v1.48l2.76.61-.34.89-1.3.63h-1.11v1.7h-.78l-.76.37-.05 1.56h-2.55v1.04l-4.15-.01Z"/>
    <path region="66" short-name="88" long-name="State House District 88" value="1" d="m637.04 472.05.2 1.18h-.4v.85h3.4l.1 1.69.16.45.05 1.51-2.1-.01-.39.52h-7.91v-1.04h2.55l.05-1.56.76-.37h.77l.01-1.7h1.1l1.31-.63z"/>
    <path region="67" short-name="90" long-name="State House District 90" value="1" d="M621.94 477.2H626v1.03l4.15.01h2.6l-.08 1.05.2 1.05.52 1.3-1.16.72v4.73l.7 1.44-.01 1.1.57.53.8.21v2.43l.03 4.08h-2.47l-.98 3.03-.22.99-.26 2.45-2.19-.27-1.12-1.35-1.25-.93-.5-.7-1.18-1.05-1.22-.46-.98-.12v-15.8l-.02-2.34z"/>
    <path region="68" short-name="91" long-name="State House District 91" value="1" d="m630.4 503.35.26-2.45.2-1 1-3.01 2.46-.01-.02-4.08h4.13l.01 1.98 1.04-.01v2.07l-1.03.01v2.07h2.08V501h-1.04v2.07h-1.04l.02 2.08h-3.45L633 503.7l-.55-.23z"/>
    <path region="69" short-name="97" long-name="State House District 97" value="1" d="m640.34 460.75.62.16 1.34.02 1.42-.23h6.15l.81.28v.65h11.45v4.15l1.04-.01-.01 2.1h1.04v1.04h1.02v5.2l-5.62.02v1.03h.5l-.01 1.04h-1.01v2.07h-3.16l-5.1-.02-.02-2.08h-7.17v-1.03l-2.06-.01.04-3.13-1.6-.02.24-.6.09-3.5z"/>
    <path region="70" short-name="44" long-name="State House District 44" value="1" d="m648.8 511.34 2.07.01-.04 7.8.66 1.25-.68.36-1.43.3-1.23-.32-.83-.08-.64-.33-1.51-1.64-.5-.09v-3.1l2.06-.02v-2.08l1.05.01v-2.07z"/>
    <path region="71" short-name="46" long-name="State House District 46" value="1" d="M635.02 505.15h3.46l8.24-.01v4.13h2.08v2.07h-1.03l.02 2.07h-1.06v2.07l-2.06.01v3.11l.5.09 1.51 1.64.64.33.83.08 1.23.32 1.43-.3.04.9v2.06l-2.35.01-1.12-.45-.61-.91-3.43-2.52-2.89-1.94-.96-.7-.98-.9-1.4-.22-1.56-1.45-.02-.44-.84-1.04.65-.61-.21-.45-.58-.19-.36-.58.34-.94 1.02-1.13-.25-3.78z"/>
    <path region="72" short-name="47" long-name="State House District 47" value="1" d="m603.34 482.4 8.24-.02v2.07l6.23.04v-2.07h2.06l.02-2.1h2.04l.01 2.34v16.03l-1.59.23-1.33.98-1.14.35-.8-.07-.08-.35-.73-.08-.54.38-1.47.3-1.33-.8-.93-1.35-.84-.3-.46-.6-.54-.07-.26.88-.76.47-.83-.08-.43.57-.55-.92-1.22-.25-.58.37v.64l-.9-.22-.6.23-.65-.3z"/>
    <path region="73" short-name="60" long-name="State House District 60" value="1" d="m602.96 454.75 1.28.59 9.1 4.87v3.5H615l.43.18v1.9h.66l.32-.49v-1.5l1.1-.08v-2.09l4.13-.02v6.26h.3v12.46l-2.05-.01-.03 2.1h-2.06l.02-6.26-1.05-.01v-2.08h-5.18l-.01 8.3-8.24.02v-2.1l-14.45-.01-.01-6.2V472h.26v-1.3l-.27-.13v-3.32l-.5-1.9.01-1.67 14.61.02v-6.26z"/>
    <path region="74" short-name="64" long-name="State House District 64" value="1" d="m534.36 598.04 3.84.03 4.3.06 2.07-.04 6.07.04v-6.12l7.16-.05 9.27-.01-.02 3.1-.01 15.4v.02l-16.35-.03v-6.17l-5.11-.01v1.1h-1.02v-1.1l-5.48-.01-.61.03-.02 4.1-2.04-.01v-2.05l-4.1-.02v-6.18l2.05.05z"/>
    <path region="75" short-name="65" long-name="State House District 65" value="1" d="M537.58 494.82h3.07v.52l1.04.01v-.52l4.11-.01v-2.05h4l4 .07h5.32l4.56-.07 8.73-.07.08 10.38.04 8.27v6.23h.43l.02 16.34-.2.33-.02 8.27v10.6l-.01 14.14.41.01.06 2.02V591.95h-6.15l-9.27.01-7.16.05v6.12l-6.07-.04-2.07.04-4.3-.06-.02-.8-1.17-1.1.04-1.34.35-.57.92.22.69.4.14-1.1-1.05-3.9-.85-2.19-1.18-.85-2.07-.95-.4-.08h-4.06l-.1-.54-.63-.92-1.1-.65-.72-.98-.35-1.74-.42-1.22-.5-.77-.93-.92-.91-.64-.52-.69-1.1-3.24-.33-1.82-.69-1.26-.55-1.9-.71-1.3h-8.68l-.04-4.13.03-4.12-.03-4.13-.02-10.34-.04-11.8.3-.62-.01-2.15.02-12.41h-.65l-.02-2.07.03-10.31.02-10.31 3.94-.03 7.37.04 7.16-.03z"/>
    <path region="76" short-name="66" long-name="State House District 66" value="1" d="m792.87 350.04 2-1.1 1.73-.76 1.1-.38 1.54-.76.67-.14h5l.04-4.21h4.18v-2.11l4.21.05v-2.13h3.43l.03 3.56v7.48l.62.06.52.37v.5h4.12l.03 8.41 2.12.01V362l-4.2.03v1.05h-2.07l-1.16-.11v8.49l-.57.48-.64.2h-2.99l.01 4.11.57.07-.1.6-.37.21-.29 1.33.18.54-.47.93-.28.14h-1.45v1.88l1.05.01-.02 1.05-1.14.23-.02.8-.92.4v3.61l.18.19-4.36-.01-10.4-.04.02-4.82-.05-1.14-1.46.09-1.6.6-1.13.25-1.36.03-.54-.26-.79-1.01-.88-.51-1.32-1.48-.23-.81.12-.88.55-.83.8-.61 1.18-1.14.6-1.5 5.28.01 1.15-.15.03-1.05.82-.9h1.62l.07-1.8.43-1.01-.37-1.36-3.2-.02v-5.27l-.04-2.98h.52l-.14-.8.47-.65.13-.64-.19-.7-.43-.6-.28-1.02.03-4.21h-1.78z"/>
    <path region="77" short-name="101" long-name="State House District 101" value="1" d="M655.92 478.27h3.16v-2.07h1l.02-1.04h-.5v-1.03l5.62-.03v2.08h4.13v10.37l4.04.01v6.23l-8.13-.02h-2.06l-.02-8.31-6.16.02v1.07h-.97l.01-1.07h-1.1l-.01-3.44.64-.69h.39z"/>
    <path region="78" short-name="89" long-name="State House District 89" value="1" d="m632.87 480.34 5.56-.02v.9l1.04.23-.02 5.1-5.15.01v2.08l-1.36-.1-.72-1.45v-4.73l1.17-.73z"/>
    <path region="79" short-name="27" long-name="State House District 27" value="1" d="M646.72 505.13h2.07v-8.28l8.22.02v1.05l6.17.02-.02 3.08 6.2.02 6.13.06 8.23.05-.01-2.07 10.28.01v6.22l11.29-.02 7.2.01h10.3l-.01-6.2 3.54-.05-.04 6.22.07 16.47.1 4.26-1.86.01v2.06l-.39.19-1.66 1.87v2.05h-8.2l.01-2.08-5.12-.01v1.51h-1l.08 4.65-3.64-.02v1.1l-2.55 1.69-.03-8.95-4.6-.02.01-1.03h-3l-.02-1.01-10.77-.02v4.14l-10.27-.05-4.1.03h-8.2l-1.27.23-.78-.13-.01.54-2.07-1.44.05-9.63-.02-2.07 3.07.03 7.18-.03v-3.06l-.08-1.1.1-1.02-.02-7.2-4.12-.01H652.9l-6.19-.01z"/>
    <path region="80" short-name="30" long-name="State House District 30" value="1" d="M805.15 388.23h4.36l3.99.02v5.08l-.93.16-.08 1.04h1v2.1h-2.09v2.1l2.1-.02v10.5l1.09-.08.41-.66h.55l.03.74-.02 2.12-2.06-.04v4.2h-6.26l-7.8-.03h-2.6v-2.1l-2.1.01v-5.86l.04-2.32.11-.2-.01-1.58-.13-1.57v-3.15l8.3.04 3.58-.02.65-1.2 1-2.14.07-.47-.07-2.45-3.13-.03z"/>
    <path region="81" short-name="75" long-name="State House District 75" value="1" d="m833.32 386.15.36.47.63-.47 4.72.03 5.71-.03v4.15l-2.1.01.03 2.12-1.63-.18-.47.2v.65l-1.2-.66h-6.01l.1-1.77-.14-1.1z"/>
    <path region="82" short-name="51" long-name="State House District 51" value="1" d="M567.07 591.95h6.15V569.29l-.06-2.02h-.41l.01-14.14v-10.6l10.86-.04 1.44-.08-.03 3.1 3.93.04.89-1.43.56-.64 1.54-.66.87-.53.65-.69.57-1.15.41-2.53.57-1.27 1.33-1.68.96-.83 2.8-2.95 2.62-3.17 1.13-1.03 1.31-.77.81-.63 3.58-3.88h-.83v-3.32l-.7-.01-.02-.54-.43-.26v-10.36l2.06-.01v-2.08l8.24-.01v-2.08h4.14l-.01 14.53h.06l-.02 14.41v23.9l-.01 9.29.02 2.06h.27l-.01 9.27-.03 15.42 12.3.03v.5l.02 15.94-.03 5.18-1-.02-12.26-.03-.01-2.02h-2.07v-2.06l-2.06-.02.02 2.08h-2.06v2.04l-9.24-.02v-7.2h-8.2v-1.03h-5.12l-.01 2.07h-2.04v2.05l-6.64.01v-1.04h-4.6v2.06l-9.16.03-3.1-.01.02-15.4z"/>
    <path region="83" short-name="79" long-name="State House District 79" value="1" d="M830.17 387.66v-.52l.97-.07v-.9l2.18-.02v3.42l.15 1.1-.11 1.78h.94l-.42.44.42.65v1h-2.02v.7l-.74-.25-.4.4-.93.17-2.1.01v-1.03l-2.08.01-.02-4.19h.78l-.01-1.04.28-.6.54-.46h2.57z"/>
    <path region="84" short-name="62" long-name="State House District 62" value="1" d="M534.36 598.04v2.13l-2.05-.05v6.18h-4.1l.01-2.06-2.04-.04v-1.14l-1.54-.13-3.1-.59-1.53-.16v-4.11z"/>
    <path region="85" short-name="20" long-name="State House District 20" value="1" d="m621.95 498.47.98.12 1.22.46 1.19 1.06.5.7 1.24.92 1.12 1.35 2.2.27 2.05.12.55.23 2.02 1.45.28.33.25 3.78-1.02 1.14-.34.94.36.57.58.19.2.45-.65.61.85 1.04.02.44 1.56 1.45 1.4.21.98.9.96.71 2.89 1.94 3.42 2.52.62.92 1.12.44h2.34l.01-2.06 6.2.01-.05 9.63 2.06 1.44.02-.54.78.13 1.27-.23h8.2l4.1-.03 10.27.05-.03 11.39.03 1-4.12-.03-10.25.04h-4.13l.03-2.1h-6.1l-.47.09-.15-.7.26-.97.62-1.51.07-.84-.53-1.17.2-1-.18-.62-.71-.86-.45-.27-1.08-.07-1.4.4-.73-.05-1.34-.74h-1.47l.07 1.01h-1.04v2.08l-2.05-.02v-1l-4.1-.02v2.92l-1 .34h-2.02l.1-1.18h-11.46l.01-6.21-6.2.01-2.03-.07.02-14.4H622V499.2l-.06-.51z"/>
    <path region="86" short-name="45" long-name="State House District 45" value="1" d="m646.72 507.2 6.19.03 10.25-.01 4.12.01.02 7.2-.1 1.02.08 1.1v3.06l-7.18.03-3.07-.03.02 2.07-6.2-.01-.04-.91.68-.36-.66-1.24.04-7.8-2.07-.02v-2.07h-2.08z"/>
    <path region="87" short-name="100" long-name="State House District 100" value="1" d="m621.64 461.61 4.15.03V466.9l2.27 1.22v2.84h-.77l-.03 1.04-4.36.02-.96-1.12v-3.03h-.3z"/>
    <path region="88" short-name="16" long-name="State House District 16" value="1" d="M794.47 455.25v-14.6h4.09v-2.1l10.1-.02 2.34.02v2.09l12.47.04v-4.16l4.14.01.01-14.65.03-4.3h.43l.01-4.18 4.15-.02.02-6.27 6.24-.02.01 1.6.66.13 1.18-.26.75.11 1.38.6.33-.75.38-.1-.11-.94-.37-.38h2.04v5.84l-.05 4.63H838v6.47l6.22-.01-.01 18.77 14.47-.02v6.28l.03 6.25 2.05.01-.01 12.47h-23.09v12.6l-6.18.02v12.45l-12.38-.02-12.37-.01-.03-5.96v-19.12h-12.24z"/>
    <path region="89" short-name="74" long-name="State House District 74" value="1" d="M832.54 354.67v2.11h6.3v2.11l4.17.01.05 6.3h2.04l.03 2.1v.92l-.25.48.05 1.05-.98.25-3.92.72-1.54.2v-3.63l-8-.01-.03-5.29-.02-7.31z"/>
    <path region="90" short-name="4" long-name="State House District 4" value="1" d="m903.8 392.53 15.99.04 4.76-.02 3.75 5.33 3.28 4.6.5.5h2.3l-.02 4.18h1.56l.21.52.76.54 1.76 1.72 6 7.66 3.97.01.6.35.32-.81.42.18 1-.67.56-.07.04-.94 1-1.02.5 1.4.38.71.8.53 1.82.42v18.87l-.01 1.12-.02 17.65-23.89-.01-13.38-.03v-4.92l-.02-5.72.03-3.09v-15.44l.04-.87-.01-7.6h-.6l-.12-.66-.37-.25v-.96l-.2-.45.2-1-.52-.01-.08-.86-2.5-.13.24-.68.71.01.06-1.29h-2.1l.02-1.77-.82-.32h-3.36v-2.1h-3.48l-.66.15v-1.44l.54-.4-.08-.4-1.5-.01-1.21 1.2-1 .72-.63.91-.94-.1-1.76.19-.46-1.02-1-.47-.36-.34-.01-3.21-.38-.02-.58-.66-.64-1.43h-.43v-2.48l1.9-.4.5.26 1.16-.8 2.02-.53.69-.55.91-1.63.94-.86z"/>
    <path region="91" short-name="92" long-name="State House District 92" value="1" d="M632.75 478.25h5.31l.38-.53 2.11.01-.1 3.74 2.12.26v.65h.84l.16 1.04v2.4l-.25.72h2.29v.76l-.46.22.01 1.1h1.55l-.02 2.13-3.95-.03-.5-.07-2.78.1v-2.12h-1.04v-1.56h1.03v-.52l.02-5.1-1.04-.24v-.9l-5.56.03-.2-1.05z"/>
    <path region="92" short-name="26" long-name="State House District 26" value="1" d="m726.31 499.05-3.54.05v6.2h-28.79v-6.2l-.03-5.98-.34-.24-1.7-.03.04-.95-2.12-.1v-1.02l5.27-.01 3.04.04v-2.08l8.26.01.02-2.08h6.13l.03 2.08 10.5-.02 3.25.03z"/>
    <path region="93" short-name="41" long-name="State House District 41" value="1" d="m602.97 442.78 6.24.03v-8.35l.92-2.07-.93-.02v-6.25l12.4-.07h10.42l.03 6.3-.01 9.62.03.83-6.28-.02-.01 4.23 8.32-.04v3.14h1.05l-.01 3.14h-9.2l-.15.02V461.64l-4.15-.03-4.13.02v2.09l-1.1.07v1.52l-.32.48h-.66v-1.9l-.43-.17h-1.67v-3.5l-9.1-4.88-1.27-.59.04-6.7z"/>
    <path region="94" short-name="93" long-name="State House District 93" value="1" d="m632.94 488.53 1.35.1v-2.07h5.16v.5l-1.03.01v1.56h1.03l.01 2.11h-1.03v.99l-2.07.03v1.03h-2.06v-2.42l-.81-.2-.57-.54z"/>
    <path region="95" short-name="84" long-name="State House District 84" value="1" d="m621.94 470.9.96 1.12 4.37-.02.02-1.04h.77v-2.84l2.08 1.12v6.92h-2.61l-.51.52v.52h-5.08z"/>
    <path region="96" short-name="98" long-name="State House District 98" value="1" d="m840.58 393.1-.01-.65.47-.2 1.63.18-.03-2.12 2.1-.01v-4.14h3.18v1.05h.97v1.04l.01 6.3h2.1v2.1l2.08.01v2.09l-5.2-.03-.75-.69-.25.87-.57-.17h-1.56v2.08h-4.18z"/>
    <path region="97" short-name="77" long-name="State House District 77" value="1" d="M830.5 367.28h7.98V381.97h-3.82l-.35.3-1.03.9-.04-1.2-9.35.02.01-1.88h.8l.17-.78-.1-1.58 1.2.01.01-4.12 3.03-.45 1.15-.95-.02-4.69z"/>
    <path region="98" short-name="36" long-name="State House District 36" value="1" d="m665.2 442.9 6.24.03 12.38.07-.03 9.34v11.46l.05 4.08-.07.13.02 8.26-.02 4.1-.07 12.46v6.25l.02 2.07-8.23-.05-6.13-.07-6.2-.01.02-3.08v-1.06l2.06.03.02-4.14 8.13.02v-6.23l-4.03-.01v-10.38h-4.14v-7.26h-1.03v-1.05h-1.03v-2.1l-1.03.02v-4.15H659v-4.17l6.22.02z"/>
    <path region="99" short-name="54" long-name="State House District 54" value="1" d="m639.46 490.74 2.78-.09.5.07 3.95.03.01 2.01v4.11l-4.17-.02.05 2.07H638.46l-.01-2.07h1.04l-.01-2.08h-1.04v-1.98h-2.08v-1.03l2.07-.03v-.99z"/>
    <path region="100" short-name="11" long-name="State House District 11" value="1" d="M816.8 342.06h9.43l-.01-12.08-.12-.84-.58-1.8h-1.37v-2.1l1.11-.01-.06-4.92-.18-1.4-.52-2.53-.01-.6.02-13.7h-3l-.74-.9-.14-1.23-.84.01-.34-.7-.64-3h-.64v-1.21l1.63.14 1.35.02 1.23.52 6.31.02v2.11h10.45l.02 8.45v10.52h-.33v12.63l-.01 2.37.01 10.25h2.1l.01 4.21h-2.1v8.4l-6.3-.02h-2.1l.02 7.32-6.25.01v-3.11h-2.12l-.03-8.43-4.11.02v-.51l-.53-.37-.62-.06z"/>
  </g>
</svg>