<svg viewBox="0 0 1000 579.63" auto-border-stroke-width="1" auto-border-stroke-width-limit=".5" original-source='["https://www2.census.gov/geo/tiger/GENZ2022/shp/cb_2022_us_sldl_500k.zip"]' candidates="[{&quot;id&quot;:&quot;0&quot;, &quot;name&quot;:&quot;Democrats&quot;, &quot;margins&quot;: [{ &quot;color&quot;: &quot;#1C408C&quot; }, { &quot;color&quot;: &quot;#577CCC&quot; }, { &quot;color&quot;: &quot;#8AAFFF&quot; }, { &quot;color&quot;: &quot;#949BB3&quot; }]},{&quot;id&quot;:&quot;1&quot;, &quot;name&quot;:&quot;Republicans&quot;, &quot;margins&quot;: [{ &quot;color&quot;: &quot;#BF1D29&quot; }, { &quot;color&quot;: &quot;#FF5865&quot; }, { &quot;color&quot;: &quot;#FF8B98&quot; }, { &quot;color&quot;: &quot;#CF8980&quot; }]}]" version="1.1" xmlns="http://www.w3.org/2000/svg">
  <g regions transform="translate(0 -210.19)">
    <path region="0" short-name="Senate District 9" long-name="Senate District 9" value="1" d="m872 730.58-.4 1.15.63 1.9.66-.08.47 1.25.7.8-1.34 2.69 2.46 1.54-.23.67 1.27 1.57.4 1.44-.04 1.6.61.16 1.45 2.11-.03.84.98.83 1.22-2.49 1.13.2-.52-1.42 2.45-1.58.97.36.2 2.63.38.52-.07 1.3.5 1.3-.26 1.66.3 1.62.79.61-1.04 2.05.88.9.47 1.14 1.37-.86 1.12.54.89-.2.8.42.62 1.26.36 1.76-2.04.2-1.94.66-2.17 1.38-3 2.75-3.2 2.75-2.26 1.74-1.95 1.25-1.43-1.05-.8-.58-4.4-2.48-1.65-.78-3.07-1.19-3.02-.93-3.36-.67-2.46-.3-1.12-.13-5.34-.18-3.98.35-4.05.77-4.16 1.26-3.65 1.61-3.98 2.26-2.6 1.88-2.71 2.37-1.73 1.76-2.1 2.5-2.36 3.41-2.23 4.42-1.33 3.48h-2.54l-1.88.08h-7.25l-1.3-1.33.23-.6-1.13-.54.02-.9-1.43-.9-1.12.11 4.88-9.98-2.15-16.4.94-.1-.17-1.65 10.06-1.2.78.04.4 3.7.52 1.31 3.72-.47-.33-4.14.5-.06-.45-4.19-1.9.25-.42-5.32.6-.12 8.82 2.39 3.59.88 1.4-5.14 1.83-2.11-.14-.86 2.1-.15 1.33 2.15 1.66.37.97.83 1.95 1.02 3.21-1.97.78-1.32 6.4-3.9 1.8-1 7.88-4.75 2.44 4.11z"/>
    <path region="1" short-name="Senate District 30" long-name="Senate District 30" value="1" d="m461.13 560.35 1.12-.54 9.66 5.44 8.56-1.79 1.39 2.9 4.58-3.2 3.75-2.04 1.61-1.63 4.78-1.66 5.38-2.03 3.68-1.83 3.32-1.88 7.11-3.7 12.4-6.79 4.28-2.08 6.71-2.77 1.81-.37 1.21.56.09 8.42.22 10.85.21 13.07 11.35 1.83 8.05 1.34 11.95 1.95 3.57.45.24-.79 1.59-.69 2.45-.47 2.74-1.34 1.61.83.5 2.16.58.5 4.43-.83.4.35 2.14.7 2.54-1.02.5.63.02 1.9.52.87-.34 1.07.84.99.64-.11.56-1.1.57.32.92-.6.92.5.06 1.96.7 1.29-.35.67.5.88.96.64 1.63-1.74 1.85-.42.42.6 1.25.34-.02-.9 1-.1 2.65-1 .98.9.13 1.8-1.59 2.26-1.19.05-5.42 2.66-2.13 1.2-3.98 1.5-1.66.18-1.54-.18-.91.39-3.9.91-2.97.1-2.74.48-.6.7-2.08.04-1.57.4-6.48 1.01-2.93.96 2.64 5.11-.9.4-1.74.24-2.66 1-3.1 1.77-2.6 1.34-6.37 2.87-2.02 1.27-1.55.38-8.32 5.21-12.92 7.84-5.56 3.03-5.58 3.4-3.75 2.61-1.5 1.2-1.39.8-3.95 2.79 1.35 5.22-1.43.1-4.3 1.85-2.94 2.32-2.85 2-2.44 2.36-3.24 2.85-3.73 3.95-3 3.97-.7 1.15-1.5 1.79-2.46 2.46-1.62 1-.87 1.08-1.84 1.44-2.3 2.86-5.27 7.47-4.81 8.38-1.51 3.13-1.37 3.19-.46 1.4-2.08 3.51-5.38 11.56-2.97 2.36-1.59 2.18-1.32 2.66-1.92 2.3-.14.92-1.5 1.88-1.13 2.2.2 1.75-.87 1.87-.3 1.15-.97 1.47-.27 1.61-.47.96-.2 2.73-1.63 3.13-1.02.74-.51 1.03.27 1.46-1.39 4.2-.35.47-1.78 6.22-.94 2.23-3.8 7.87-2.8 4.35-1.62 1.6-3.07 4.6-1.15 2.01-1.68 2.33-1.1 2.58-5.11 5.8-17.8-.02-21.92-.06-8.56.03 1.01-1.15 1.73-2.69 2.49-3.6.56-.47 1.93-3.6 1.16-1.6 1.02-2.54 4.1-7.33 1.44-4.02 1.6-5.3.75-3.01 1.1-2.82.5-2.28 3.01-7.27 1.01-2.08.72-.94.35-1.72 2.12-5.96.98-2.12 2.6-3.9.62-.5-.53-1.1.24-2.58-.48-1 .23-1.84.83-.87 1.96-.25.68-.86.41-1.8-.64-.33-.93-1.38-2.06-.53-.4-.88.2-2.3-.48-.75 3.1-3.42 5.2-4.6.2-.62 3.82-9.01-2.77-2.23-14.61-11.1-.2-.5L389.3 666l-1.23-5.65-.44.75-1.34 3.74-1.1 2.52-1.94 3.28-.58 2.25-3.08-1.35-2.95-2.06-8.5-4.31-5.37-2.9-5.06-2.91-1.36 5.6-.01 2.58-.26 2.47-.7 2.37-1.9-1.7-8.02-7.95-4.11-1.25-3.86-1.87-11.7-5.81.4-1.14 2.71-4.85 7-3.6 1.47-14.68-.83-1.52 1.59-4.58 1.05-1.58.33-1.5-.65-1.6-.06-1.16.53-2.1.28-2.08 1.62-2.9 1.32-.93.77-1.25 3.54-2.34 1.96-.37 1.21-1.46 4.33-7.67.77-2.04 1.4-1.57-.41-2.83-.73-3.2 1.06-1.4.25-1.95-.31-.62.55-.96 1.14-.45 1.36.04 2.67.72 10.29-17.89-2.05-2.2 3.53-.08 23.47-1.5 12.24-.65 2.74.85 18 6.53 3.01 1.18 8.43 3.09 6.79-4.34 1.78-1.24 6-3.3z"/>
    <path region="2" short-name="Senate District 28" long-name="Senate District 28" value="1" d="m609.53 741.71.37-2.16.9-.76.44-1.18 1.3 1.04.8-1.14-2.55-1.23-.38-.74 4.15.09.72-1.03 5.05 2.84 2.28 1.18 3.17.12 6.3.69 1.06.42-1.2 3.34-.03 2.79.69 4.07.78-.07 1.73.8.67-.46-.18-1.21 1.08.2 1.22-.42.7-1.35-.97-1.44.62-1.41.85-.06 1.22 1.27.42 1.05.83-.83 1.72-.96 1.46.09 1.59-.84.23-1.25-.59-.33-.93-1.9.33-1.6 2 .12-.08-.92 1.66-.86.93 1.2 1.55-.34.82.59 2.27-1-.59-2.25 1.35-.12-.41-3.28-2.7.92-1.12.8-.37-1.17-1.09-.41-.94-1.35 1.03-.21 1.3.42.3-1.05-.04-2.63 1.72-.46.78-1.85-1-2.14.95-.66 2.2.52 1.88-.25 1.6-1.91 1.05-.33 1.06-3.2 1.43.07-.77-1.45.26-.57 1.53.02.7-.57.07-.8 1.5-.08 2.6.82 1.24.06 3.01.66 4.22 1.31 2.97-.24 2.14-.96 1.19-.07.5 1.16-.1 1.78.9 2.7 2.52 2.85.45.9 1.54 1.97.38.93.53 4.55 1.36 3.13 1.4 1.64.97 1.67 1.03.97 1.34.4 1.85 1.54 3.19 1.22 1.41.69 2.93 2.33 1.7.31.81.5.85 1.36.3 2.7.73 1.6-.38 1.65.17 1.2.7 1.8 1.2 1.17 1.37.75 1.87 2.23.03 2.08 1.65 2.45.46 1.06 1.7 1.62 2.17 1.06.9 1.56 3.48 4.03 1.02.97.75.23.64.9 1.48 3.63 1.19 1.63.68.45 1.2 2.24.69.63.86 1.53.32 1.16-.19.84-36.35.02h-20.2l-25.06.03-20.95.11-10.26.05-6.7-.07-10.76.2-.05-22.28-.12-2.59 1.66-.7 1.3-1.56.77-1.42.77-.44 1.59-.24 1.68-1.39-1.24-1.76-.23-2.05-1.53.25-.98-1.98.14-.79-1.08-1.85.28-.85-.3-1.05.41-.75 1.05-.74.4-1.1 1.03-.57-.03-1.32-.9-.9-.03-1.77z"/>
    <path region="3" short-name="Senate District 13" long-name="Senate District 13" value="1" d="m687.4 724.2 3.69-1.46.4.22 2.91-.6 2.56.2.84-.92 3.13-1.73 2.51-1.06 2.28-.1 2.61-.76 4.09.27 2.25.41 1.78.02-.42-1.37.56-2.02 2.6.65 1.21-.72-.94-.75-1.16-.14-1.9-1.74.24-1.67 1.7 1.58 2.1-1.12.73.94.47 1.48-.27.61 2.85.82h1.74l1.13-1 .48 1.32h.91l-.05-1.28 1.16-.95 1.5-.6.08-.5-.97-.91.57-1.37-.15-.86-.92-.78.72-.56 1.44.38.92-.5-.78-1.85 1.3-.23-.66-1.85.76-.55.62 1.03.84-1.75.86.8.73-1.81 1.99 1.15 5.26 2.54 1.12.4 4.28.94 3.94.25 2.13 1.9 2 2.3 1 .27 2.1 1.47 2.98 1.28 1.97.16 2.05 1.2-5.91-27.22 1.11-.27 1.17-.9.63.03 1.79 1.33.46-.37 1.53.5.62 1.18 2.09.85 2.62-.9.47.26 1.11-1.02.63.41 3.64.52.8-.64.36-1 1.69-.39.49.54 1.02-.44.93.47.72-1.72-17.52-14.74 1.85-1.4 1.66-4.06 4.4 3.41 3.88 1.64 4.22.92 1.16.06 3.95-4.17 4.24-4.64.86-2.97.4.59 1.92 1.12 2.85.4 2 1.01.6 1.08.93.56 1.9.13 1.67.97-1.04 3.21 2.17.39.76.6-1.92 3.26-4.36 5.84 2.1 2.39 4.3 5.28-6.63 5.35-1.38 1.01-3.23 2.74-2.93 1.7-9.01 4.54 1.18 6.88-.02 2.97.33 3.99-.27 2.26L780 730l-2.45 4.53.13.6-1.49 2.76 1.14 2.84.5.37.7.99-1.8 1-.97 1.55.39 1.23-.45 1.5.72 2.43 1.11 1.52-.76 1.03-.19 1.21.68.88.16 1.29-.65.83-1.22-.73-.99-.2-.3 1.4-.14 2.83-.32.45-1.94-.35-.15 1.9.74 3.03-1.1.15-.72 1.48-1.04-.4-.55.59.9 1.3.06 1.17-.75.92-.58 1.43-1.24.17.77.9-1.25 1.72-.2 1.22-1.5.87-1.11 2.14.42 1.16-.85 1.21-1.55-.48-.93.1-.67 1.22.54.63-.3 1.05-1.48 1.23-.67-.06-.88.72 1.63 1.36-1.7 2.18-.95-.3-.55-.7.45-1.41-.87-.51-1.2.44.41 2.17-2.71-.4-.26 1.26-17.88.06.2-.85-.33-1.16-.86-1.53-.69-.63-1.2-2.24-.68-.45-1.19-1.63-1.48-3.63-.64-.9-.75-.23-1.02-.97-3.49-4.03-.89-1.55-2.17-1.07-1.7-1.62-.46-1.06-1.65-2.45-.03-2.08-1.87-2.23-1.37-.74-1.2-1.18-.7-1.8-.17-1.2.38-1.64-.74-1.6-.3-2.71-.84-1.35-.8-.5-1.7-.32-2.94-2.33-1.41-.7-3.19-1.2-1.85-1.55-1.34-.4-1.03-.97-.96-1.67-1.4-1.63-1.37-3.14-.53-4.55-.38-.93-1.54-1.97z"/>
    <path region="4" short-name="Senate District 10" long-name="Senate District 10" value="1" d="m936.38 632.57.85 1.12 1.64.54 2.01 1.79 1.66.58 4.87-1.6 1.28.4 2.06 1.56 1.5.62.71.87 2.62 6.86.47 2 .38 3 .7 1.03 3.82 3.5 1.56 1.24 2.05.41 1.6 1.08 3.23 3.4 1.33 2.38 1.26 3.35 1.85 4.31 1.03.97 2.13 1.06.76.67 4.15 2.05 2.42 1.77 1.62 1.4.7 1.69 1.4 2.43.67 2.3.62.71 2.53 1.33.59.7 1.97 3.11.03 2.31-.38.87-2.78 2.46-3.15.33-1.81 1.1-2.17 1.86-1.13.1-2.04-.54-2.66-1.11-1.1.2-.64.62-1.18 2.72-.34 1.8-.5.68-2.85 1.71-.89 1.87-1.19.67-1.35.29-5.91 2.34-.1-2.8-.9-1.32.38-1.9 1.17-.64.57-.94-.48-2.89.43-.58.75-2.84 1.76.02 5.62-4.96-1.13-.57-1.38-1.72.23-.3-.43-2.1.32-1.96v-1.99l-.85-1.75-.4.12-1.87-5.56-2.55.77-1.4-.16-1.27.31-4.34 1.46-.32.56-1.55-.03-.51-1.42-1.4-.78.43-1.18-.55-.67-1.4-.49.74-1.84-.96.1-1.67-1.46 5.18-6.85-7.58-5.67-4.04 5.37-3.1 3.9-.58-.53-.8 1.36-1.44-.12.7-1.9-.84-.67-.63 1.35-.69-.1-1.14-1.27-.16-.97-2.69-2.1-1.15 1.35-1-.05-1.8 1.64-1.2.53-1.15 1.37-3.04-2.3-1.46 1.93-5.73-4.56-1.07.9-3.85 4.88-8.61-6.61 4.79-6.04.7.5 3.36-4.14 5.1-6.46-.89-1.28 4.5-5.8.32.23 1.85-2.1 2.3-3.15.12-.53 3.2-4.3 1.2.37 1.4-.99.9.47 1.68-1.6.56-.05.52 1.41.72.26.66 1.58.93.94z"/>
    <path region="5" short-name="Senate District 25" long-name="Senate District 25" value="1" d="m223.77 490.15.13-6.43h.54l.03-7.7.17-15.41.07-12.45.15-22.14 1.1 1.16 1.7.59 1.1-.99-.15-2 1.27-.43.77.73-.08 2.06.66.24.83-1.05-.39-2.1.47-.96 1.12.9-.43 1.85 1.32.73 1.11-.69 1.45-2.23 1.3.57 1.43 1.82 2.05 1.36 1.03-.38.24-1.06-.47-1.16.4-1.17.9-.24.79.44v-6.2l.25-12.7 4.88.03.28-6.87 14.9.33V402l3.04-.02.06-20.25.2-12.11.33-14.2h.14l.12-10.83.35-11.1.05-3.63.52-18.17 4.67-.1-.03-2.3h1.02l-.07-4.81h-.18l.27-21h-.51l-.07-10.43 7.57.13 21.44-.13 26.26-.4 13.19.02 22.96.05 13.34.03 6.33.1 25.13-.34 16.04.24 5.78.15 6.93.01 21.45.05 14.08-.06 24-.17.54 26.97.25 17.1.34 18.67.27 16.09.45 26.33-.04 1.15.38 22.02 2.16-.05.71 1.3.82 3.2.7 1.3 1.24.74 2.4 3.86 1.47 3.32.32 3.02.67.96 1.64 1.22 1.78.61 2.79.44 2.46 1.98 1.74 1.75.07 2.5.61 3.01.55.7 2.03 1.32.89 2.17.9 1.53.67.54 2.17.9.77 2.06 1.51.7.94.87 2 3 1.4 1.21 3.56 3.45 1.26-.2.8.67 1.45.4-.03 2.04 2.66-.13 2.3.35 2.49 2.48 1.26 1.62 1.44 1.33-.52.92.1 1.05.81.8 1.87.55.93 1.83 1.68 2.3 1.83 2.23 14.97 19.1 3.46-.02.05 5.9-10.33 11.4-12.9 18.86-14.57 14.24-1.8.37-6.72 2.77-4.28 2.08-12.4 6.79-7.1 3.7-3.34 1.88-3.67 1.83-5.38 2.03-4.78 1.66-1.61 1.63-3.75 2.04-4.58 3.2-1.4-2.9-8.55 1.8-9.66-5.45-1.12.54-4.09-6.95-1.31.77-1.24-1.64-.4-1.2.51-1.07-1.05-.41-1.22-1.44.12-1.28.88-.53.45-.9-1.5-2.27 5.36-5.05-7.88-8.43-5.37-4.5-5.6-1.13-2.37-3.57 1.95-1.77-3.74-3.8-12.78-14.5.76-.93-1.03-1.14-1.35-.32.34-1.09-1.33-.61-.8-1.93.7-.87 1.2.4.62-.7 1.43-.8-1.17-1.5.8-1.12-.5-.54-1 .74-.8-.44-.47-1.76-2.15.57-.44-.52.86-2.1-1.73-.51.53-1.97-.94-1.48-2.39-6.43 1.5-1.57 1.47.35.95.83.87-2.26 1.1.18.68.7.87-.5-.3-1.07.83-.77 1.16.33.69-.74.36-2.54 1.6-.27.9-1.62-3.92-4.77-5.56-9.66-9.66-1.23-14.94-1.8v-.06l-18.07-1.3-31.84-2.3-20.39-1.72-.22 8.29-10.68 3.55-9.63-.2-6.54 16.06v9.77l.05 11.2-15.45.05-8.5-.08-.17-6.99-9.73.1.06 4.55-9.27-.07-.04-1.05-4-.12-1.26-3.66-5.58.1v5.43l-1.18 1.87v2.79l-1.43.57-1.07-1.04-.93 1.39-.93.34-1.36-2.1-1.33.14-.38-.96-.82-.54-.57.69-1.35.22-3.07-1.65-1.33-.06.05-1.96z"/>
    <path region="6" short-name="Senate District 45" long-name="Senate District 45" value="1" d="m92.02 641.54.98-.05.78-1.57-1.14-2.42.54-1 1.25-.35 1.1-.95 1.7-.22.36 1.56 1.42 1.44-.22.71-1.54-1.7-.36-1.15-.7-.65-.83.22-1.07.9.18.96.88.17 1 .98.06 1.23 1.41-.3 1.27.68.96-.12.18 1.76-1.21.29.53 1.29 2.48-.26.74 2.2 1.19-.04 1.12.9 1.18-.85-.54-1.49-.88.3-.55-.5.5-.88-1.23-1.22-.41-1.43.88-1.92-.85-.52-1.95 2.15-.47-.4-.1-1.38.99-.74 1.04-1.66 1.66-1.47 1.7-.24.63.21 3.16 2.42.83-.75.87-1.46 1.54 1.13 1.3.01.68-.62 1.01.56.83.91.85-.03.12-1.02.88-.05.73-1.38 3.4-2.4.23-1.15-.42-.5.44-1.35.7-.4.27-1.78 1.56-.74.87-.85.9-2-.32-3.4-.91-1.38-.07-1.87-.72-.1-.1-1.19-.55-.56.11-1.01-.37-.88-.89.31-.54-.87-3.1-.85-.08-1.82-1.21.36-.03-.77-1.23-1.05 2.51-.84 2.68-.25 3.64.75 1.89-.5 1.14-.99.41-1.2-.23-.72.86-.41 1.98-.05 1 .62 1.2-.1.64.88 1.86.88 1.15 1.87.71.13 1.48 1.55-.08.83v7.27l-.2 7.55-.26 6.7-.37.9-1.56 1.1-.2.82-1.65-.15.76 1.33-1.38.02-.36 2-2.08.77-.58 1.22-.98.5-1.43-.95-.31 1.42-1.23 2.49-2.25 13.84-.77 3.64 1.32.92.99 1.29-.84 1.3-2.5.1-.31.5.25 1.63 1.07 1.55.18.78-1.53 2.02-.42 1.32-1.43 2.26.53 1.11 3.73.98-5.46 2.45-4.25 1.78-5.52 2.56-1.67.16-1.3.43-2-.02-1.78-.48-1.36-.74-1.82-1.53-3.62-1-1.3-.61-1.52-1.76-.76-1.37.21-1.15 1.28-1.23.99-.32 3.3-.3 2.11-.8 1.85-1.65.83-1.35 2.1-1.96-1.22-.6 3.13-1.6 1.73-1.5-2.09.1-.74.51-1.34-.52.02-2.79.86-.73-.72-.69.77-.91-.98-1.37.6-.49-.23-1.18-4.66-1.37-.22.25-6.33-4.61-.4.67-1.45 1.05-.57.03-1.47 1.35-3.25-2.65-1.97-3.61-1.95.44-.85.43-.63-.27.78-1.62-1-1.18 1.1-.37.7.55 1.61-.85-.68-.78-.05-1.25.44-.67 1.03-.45.27 1.1.85-.06.53 1.56 2.3-1.06.88.24z"/>
    <path region="7" short-name="Senate District 27" long-name="Senate District 27" value="1" d="m542.57 545.36 6.07-2.24 32.87-8.3 9.52-3.3 3.78-.23 2.04 1.5 1.42-.3 1.2 1.5 1.04-.2 1.47-2.56.93-.56 1.41.02.5-.7 3.52-.46.54-.86 3.92-1.1.92-.52 2.4.15 1.47.5 2.4.05 2.5-.84 2.15.95 3.43-1.09 1.42.65 1.56-.12 1.11-.6 1.5.37 3.01 2.13 1.09-.18.24-.6-1.07-.9-2.78-.84-5.39-5.84-1-1.94-1.47-3.68-1.32-2.48-.16-1.9-.9-2.7 1.11-2.89 1-1.79.43-1.48.03-2.15.4-2.42.66-2.26-.01-2.17.83-2.13-.2-1.8.1-2.56-.15-1.24-1.13-1.78-1.33-.55-2.08-2.61-1.17-2.49-.8-3.48-.34-3.24 1.46-4.05.87-1.17 4.69-1.49 4.93-.48 6.4-2.27 10.44.88 8.79 4.03 14.79-.83 12.16-12.86 3.77-4.47 6.67-7.07 9.06-9.95 16.76-.4-.45 4.9-.99 12.24-.23 5.43.35 1.32 16.27-7.02 7.62 17.23 3.64 1.26 1.05-1.09 1.92-.1 2.46-2.47 3.03-1.45 3 6.62 5.96-1.48 2.06-1.07.79 1.53 5.28-2.79 3.65-.46.84.15 5.04-1.36 11.43-2.53 2.43.46 3.72-1.56.33 8.36 6.25.07-.08 2.3-4-.09-.12 3.85-3.26-.06.04 1.4-7.75 4.88-4.68 2.07 1.5 6.7 1.27 6.2 1.18 4.65-5.22.15.06 2.67-1.7.05-.02-.85-1.31.04-.11-.65-1.53.06-5.41 1.63-3.1.7-.26.89-1.51.56 1.01 1.47-3.78.83.25 1.14-14.04 3 1.81 8.33-17.12-6.03-7.18 7.7-6 7.32-3.86 18.54-12.55 5.97-5.12 2.4-16.26 7.83-11.57 5.63-4.74 1.88-16.24 7.74-1-.06-.18 1.14-.4.61-1.65-.95-.81.27-1.12 1.2-1.36-.37-2.26.06-1.77 1.44-3.78.48-1.3.96-1.37.27-1.64-1.51-.97.86-.19 1.92-.52.36-2.44-.14-.99 1.43-1.19.49-2.68-.1-1.46-.39-.9.93v1.15l-.55.47-2.35-.32-.66.33.04 1.34-1.52-.02-.76-.33-3.8.68-1.97-.9-2.09-3.46 1.59-2.25-.13-1.82-.97-.89-2.66 1-1 .1.02.9-1.25-.35-.42-.6-1.85.43-1.63 1.74-.96-.64-.5-.88.34-.67-.7-1.3-.05-1.94-.92-.51-.92.6-.57-.31-.56 1.09-.64.11-.84-.99.34-1.07-.52-.87-.02-1.9-.5-.63-2.54 1.02-2.15-.7-.4-.35-4.42.83-.59-.5-.49-2.16-1.61-.83-2.74 1.34-2.45.47-1.58.7-.25.78-3.57-.45-11.95-1.95-8.05-1.34-11.35-1.83-.21-13.07z"/>
    <path region="8" short-name="Senate District 36" long-name="Senate District 36" value="1" d="m651.49 700.3.98-2.56.8-.4.95-2.19 1-.47.63-1.12.1-.9 2.13.52 1.02.66.76-1.94 1.84-1.34 1.54-.58 1.54.26 2.06-1.28.76-1.38 2.01-.86.51-1.08 1.1-1.03 1.15.39 2.95-.6.62-.88 1.35.1.83-.5 11.04-4.68 5.6-2.24 5.82-2.42 11.53-2.07 10.37-1.72 4.08-2.1.9.14-.4 1.3-.26 3.64.38 1.7.75 1.6 1.16-.01 1.96 1.56.32 1.02-.74 2.01.06.64-.64 1.95-.54.47.12 2.3 1.72.11 2.27-1.15 2.93-.23 2.37-2.74.5-.33 4.34-1.17 2.91-.9.65.42 1.9 3 .86.18.78.89 1.18.12.39.69 1.6 1.1.17.5 4.94 3.22 1.2-2.42 1.02.56 5.91 27.23-2.05-1.2-1.97-.17-2.98-1.28-2.1-1.47-1-.27-2-2.3-2.13-1.9-3.94-.25-4.28-.95-1.12-.39-5.26-2.54-2-1.15-.72 1.82-.86-.81-.84 1.75-.62-1.03-.76.55.66 1.85-1.3.23.78 1.84-.92.51-1.44-.38-.72.56.92.78.15.86-.57 1.37.97.91-.08.5-1.5.6-1.16.95.05 1.27h-.9l-.49-1.3-1.13 1-1.74-.02-2.85-.8.27-.62-.47-1.48-.72-.94-2.1 1.12-1.71-1.58-.24 1.67 1.9 1.74 1.16.14.94.75-1.21.72-2.6-.65-.56 2.02.42 1.37-1.78-.02-2.25-.4-4.09-.28-2.6.77-2.29.09-2.5 1.06-3.14 1.73-.84.93-2.56-.22-2.91.61-.4-.22-3.69 1.46-2.52-2.85-.9-2.7.1-1.78-.5-1.16-1.2.07-2.12.96-2.98.24-4.22-1.31-3-.66-1.25-.06-2.6-.82-1.5.07-1.41-.34-1.9-.82-2-2.32-.85-2.15-1.22-2.04-1.65-2.29-2.36-2.54z"/>
    <path region="9" short-name="Senate District 37" long-name="Senate District 37" value="1" d="m41.47 606.55 4.57-4.35 3.92-3.85 1.64-2.02.78.23 1.1-1.6.66-.11 1.87-1.89 1.16.18.3-1.68 1.18-1.34 2.08.78.85-.78 1 .34.7-.82 1-.41-.59-13.64 3.55.04 9.67-.3v.17l.7 17.87.99 20.16-1.19-.72-1.17.04-.89-.77-1.23.34.1-1.43-1.58.15-.47.4-1.44-.5-.16 1.43-.7-.3-4.33-1.01-1.64-.92-2.1-.14 1.7 1.38 1.97.81 2.16 1.23 1.65.43-1.71 3.15 1.78 4.7.59 1.28-.27.73.17 1.32 1.4 1.4 2.36-.73.26 1.82 1.9 1.06.47 1-1.88 1.3.32 1.78.84.1.05.9-2.2-.93-1.15.46-.2 1.47.25 2.63-.1 1.37 2-.15.13 1.2-.93 1.05-.38 1.46-.66 1.04.62 1.09-.04 1.3 1.25.13 1.05-.46 1.87.18 1.06.4 2.3 1.96-.04.44 3.04-.92.85-.43 1.95-.44 1.97 3.6 3.25 2.66 1.47-1.35.57-.02 1.46-1.06.39-.67 6.33 4.61.22-.25 4.66 1.37.23 1.18-.6.5.98 1.36-.77.91.72.69-.86.73-.02 2.8 1.34.51.74-.51 2.1-.1-1.74 1.5-3.13 1.6 1.23.6-2.11 1.96-.83 1.35-15.16-5.84-18.33-7.16-1.12-.54-11.72-4.6-2.68-3.16-3.9-4.22-12.56-13.42-11.08-11.78z"/>
    <path region="10" short-name="Senate District 42" long-name="Senate District 42" value="1" d="m78.6 613.53.56-.53 1.78 1.33-.58 1.3.9.37.25.72 2.89.13.4-.96.9-.13.55-.88 1.08.16 1.16.64 1.68.5 1.45-1.78.07 1.88 1.59-.02.84-.39.21 2.66-.49.45 1.37.84.7-.93 1.07 1.03 1.4-.05.96.9-1.15 1.19.16.67-1.09.42-.76 1.08-4.53 2.52 1.33 2.14v.86l-2.1.39-1.7-.1-.68-.46-.5 1.03v2.19l-.98.65-.13.64.98 1.43 1 2.32 1.37 1.94.66 1.8.8.06-.46.83-.88-.24-2.3 1.06-.53-1.56-.85.05-.27-1.1-1.03.46-.44.67.05 1.25.68.78-1.62.85-.69-.55-1.1.37 1 1.18-.78 1.62.63.27-3.05.92.05-.44-2.3-1.97-1.06-.39-1.87-.18-1.05.46-1.25-.12.04-1.31-.62-1.09.65-1.04.39-1.46.93-1.06-.14-1.2-1.99.16.1-1.37-.25-2.63.2-1.47 1.16-.46 2.2.93-.06-.9-.84-.1-.32-1.77 1.88-1.32-.47-1-1.9-1.05-.26-1.83-2.36.74-1.4-1.4-.17-1.32.27-.73-.6-1.29-1.78-4.69 1.72-3.15-1.65-.43-2.16-1.23-1.98-.82-1.68-1.38 2.1.15 1.63.92 4.32 1 .71.3.16-1.42 1.44.5.47-.4 1.58-.15-.1 1.43 1.23-.35.89.78 1.17-.04z"/>
    <path region="11" short-name="Senate District 46" long-name="Senate District 46" value="1" d="m.13 601.39 4.3-.08 3.48.23 10.74-.08 6.6-.11-.12-1.16 8.99-8.15 7.35 14.51-14.2 13.31 11.09 11.78 12.56 13.42 3.9 4.22 2.68 3.15 11.72 4.61 1.12.54 18.33 7.16 15.16 5.84-1.85 1.66-2.11.8-3.3.3-1 .31-1.27 1.23-.21 1.15.76 1.37 1.53 1.76 1.3.6 3.61 1.01 1.81 1.53 1.36.74 1.8.48 1.99.02 1.3-.43 1.67-.16.96.08 1.8 1.13.35.62.49 2.57-.42 1.87-1.13 1.42-1.47.28-3.31-.7h-1.03l-1.2.56-.76 1.18.46 1.93 1.51 1.76.95 2.17 1.7.93 3.05 1.83 1.29.61.58.78 1.7 4.52-.55 1.9-.92.85-2.72 1.07h-1.36l-1.26-.67-2.42-.43-1.44.8.5 1.23 2.3.61 1.06 1.24-.37 1.17-1.69 1.6.08 1.2 2.02 1.59.42 1-.64 1.22-1.71 1.3h-2.47l-1.71.33-1.8 1.1-.86.98-.8 2.71-2.1 1.2-1.35-.22-.76-1.07-.72-1.78-1.4-1.3-2.36.15-1.28.82-.53.98.24 1.76.58 2.39-.42.58-2.14.84-.8 1.4.2 3.4.7.86 1.75 1.2.75-.05 1.96-.92 1.54-.35 1.9.35.95.53 1.7 1.68 1.8 2.75 1.44 1.74.26 1.39-1.07 2.23.28 1.44 2.17 4.7-.26.82-1.86 1.04-.5 1.1 1 1.85.02.83-2.29 1.87.26 1.12 2.07.78.46 1.68.18 3.85 1.8 3.09.26 1.3-.5 1-.87.46-2.17.2-.88 1.12.25 2.2-.3 1.49.8 1.71 1.3.8 1.39.3 1.23 1.05.65.98-.09 1.17-1.2 2.48-.9 1.3-27.4-.1H59.24l-23.17.01-19.2.02-16.8-.05-.01-18.91.09-18.95-.06-10.28.05-31.6-.03-18.3.01-21.86v-19.14l.18-5.83.05-21.29-.22-2.52z"/>
    <path region="12" short-name="Senate District 16" long-name="Senate District 16" value="1" d="m842.33 549.88.74 2.41-.34 1.23.65 1.2-.12 2.08.32 1.64.86 1.35.7 1.7.8.5 2.02-.3.95.62.3 1.16.76.88 1.08.58 1.23-.26 1.57-1.33.26-1.84.5-.35 1.24.28.67.83.13 2.85 1.7 4.05-5.47 2.53 2.08 6.73 3.44 4.99.05.68-2.27.75-.73-.4-1.3.8.63 1.21.05 1.32.75 2.3-3.41 1.48-2.99 1.54-.1 1.13 3.29 1.12 1.65.72 10.14-3.67.34.93-.46.96-2.27.9-.95.64-1.73.4-3.26 3.86 4.95 4.2-1.26 1.42-1.43-.35-.29 1.12 1.4-.17.6.42-1.48 2.7-.11 1.05 2.06.61 1.83-1.98 1.58-1.26.48-.72 1.05.93.36-1.24.84-.32 3.42-5.67 2.31-1.02 3.07-1.65 1.4-1.19.91-.35 12.14 9.93 4.17-3.57 2.61-2.12 6.07-4.52 5.05-2.81 5.47-3.2.77 1.34.37 2.78-.77 1.9.1 1.29 1.26 1.55 1.96 1 2.13.2.76-.27 1.9-1.78 1.82-.58 3.34.57 2.9 1.22.8.77 2.95 3.63 1.7 1.37.38 1.3.22 2.33-.13 1.5.17 3.61.27.94.07 4-.83 1.79.12 1.88-.6 2.3.69 1.8.61 3.1.4 2.71-1.02-.4-.93-.94-.66-1.58-.72-.26-.52-1.4-.56.03-1.67 1.6-.9-.46-1.41.99-1.2-.37-3.2 4.3-.12.53-2.3 3.16-1.85 2.1-.32-.25-4.5 5.8.88 1.3-5.08 6.45-3.37 4.14-.7-.5-4.79 6.04-3.39-2.6-5.68-4.52-14.59-11.5-3.43-2.73-.58-.61-9.82-7.55-14.25-11.64-4.1-3.4-14.59-12.25-11.07-9.25-6.83-5.6-10.55-8.88-8.7-7.52 6.3-3.6 1.74.04 6.24-3.23 2.01-2.2 2.9-1.81.33-1.02 2.02-.32 1.4-1.02 2.22-1.1.95-.87 1.83-2.21 4.5-1.89 1.31-1.77 3.07-1.1z"/>
    <path region="13" short-name="Senate District 19" long-name="Senate District 19" value="1" d="m777.83 741.11 1.2-.26 8.72-2.28 3.61-1.05.23-.29 4.5-1.41.02-5.55.86-1.77 7.98-2.35 2.13.07 1.4 3.53 1.32.3.16 1.38 2.17-.64 6.05-.63-.06-.84 3.78-.44.75-.95-.54-.94.4-.48 1.37-.27-.33-1.81 2.17-.22-.03-1.98-.3-1.37 5.85-.8 3.52-1.48 2.29-.81 6.6-2.73 2.15 3.82-.1.26 2.42 4.42 4.22-2.26 7.49-4.25-4.03-6.6 2.04-.6 3.88-1.38 6.75-2.27.07 1.36 2.65-1.47.5 1.07 3.04-1.71 4.71 8.12 4.45-2.55.97 1.53-9.25 5.32 1.82 3.23-7.62 6.83 2.26 1.8-.08.87-11.33 6.84-2.44-4.1-7.88 4.73-1.8 1-6.4 3.9-.78 1.33-3.21 1.97-1.95-1.02-.97-.83-1.66-.37-1.34-2.15-2.09.15.14.86-1.83 2.1-1.4 5.15-3.59-.88-8.82-2.39-.6.12.43 5.32 1.89-.25.45 4.19-.5.06.33 4.14-3.72.47-.52-1.31-.4-3.7-.78-.04-10.06 1.2.17 1.65-.94.1 2.15 16.4-4.88 9.98 1.12-.1 1.43.9-.02.89 1.13.55-.22.59 1.29 1.33-5.72.02-21.18.04-4.96-.05-18.52.06.26-1.25 2.71.39-.41-2.17 1.2-.44.87.5-.45 1.42.55.7.94.3 1.72-2.18-1.64-1.36.89-.72.66.06 1.49-1.23.3-1.05-.55-.63.67-1.22.93-.1 1.55.48.85-1.21-.42-1.16 1.12-2.14 1.5-.87.19-1.22 1.25-1.72-.77-.9 1.24-.17.58-1.43.75-.92-.06-1.18-.9-1.3.56-.59 1.04.41.72-1.48 1.09-.15-.74-3.03.15-1.9 1.94.35.32-.45.15-2.82.3-1.4.98.19 1.22.73.65-.83-.16-1.29-.67-.88.18-1.21.76-1.03-1.11-1.52-.72-2.44.45-1.5-.39-1.22.98-1.55 1.8-1z"/>
    <path region="14" short-name="Senate District 21" long-name="Senate District 21" value="1" d="m130.1 306.98-.05-11.1.01-8.3-.07-3.46.68-.05-.54-11.25 15.61-.06 20.37.15 13.54.1 15.55-.05 22.64-.08 12.22-.15 20.12.05 13.41.07 11 .19.08 10.42h.51l-.27 21h.18l.07 4.82h-1.02l.03 2.3-4.67.1-.52 18.17-.05 3.62-.35 11.1-.12 10.84h-.14l-.33 14.2-.2 12.11-.06 20.25-3.04.02v-3.39l-14.9-.33-.28 6.87-4.88-.02-.24 12.7-.01 6.19-.79-.44-.9.24-.4 1.17.48 1.16-.24 1.06-1.04.38-2.05-1.36-1.43-1.82-1.3-.57-1.45 2.23-1.11.7-1.32-.73.43-1.86-1.12-.9-.47.97.39 2.1-.83 1.04-.66-.24.08-2.06-.77-.73-1.27.42.14 2.01-1.08.99-1.72-.6-1.1-1.15-.14 22.14-.07 12.45-.17 15.41-.03 7.7h-.54l-.13 6.43-2.6 1.06-1.12 1.02-.71 1.2-3.44 1.61-1.1 2-1.1.59-1.3 1.65-.63.24-2.45-.56-.53-.4-2.85 2.66-2.6.62-1.09-.66-.89.97-1.8-.47-.8-.9-.85.67-.86 2.42-.1 1.72.35 1.74-.8 1.37-.84.11-.53-.63.21-1.98 1.07-.87-.47-.44-1.27.07-.11-1 1.3-.23-.3-.98-1.83.38-.75-.3-1.04 1.5-.9-.66.3-1.05-.4-.66-1.18.07-.26-.56.85-1.04-.39-.72-1.36 1.02-.1 1.12-.65 2.29-1.03.82-1.54-.47-.88.22-1.2 1.09-1.3-.1-.23-.9.8-1.06-1.48.1-1.88-1.05-1.05.19-1.17-.3-1.07 2.1.2 1.87-1.67.34-.57-1.51-1.26-.85-.64.86.53.9-1.33.93-1.06-.78-1.24-.38-.62-.96-.59.05-1.67.98-1.5-1.24-1.96-.02-1.43 1.11-1.35 2.17-.7.43-1.4-.07-2.94-1.1-1.01-1.05.13-1.32.76-1 2.27-1.23h1.51l1.75.7.67-.27.2-1.25-.66-.84-1.68-.78-1.89-.01-.58-.8.27-1.2.97-1.56.56-2.15-.02-1.15-1.27-.24-.7.55-1.49.13-2.95-1.03-2.48-1.62-1.92-.52-.6-.46-.2-1.5.29-.59 1.54-1.43.16-.78-.6-1.19-1.2-1.22-1.74-1.31-.67-2.07-.21-2.87.34-2.26-.05-4.73-1.22-1.74.08-.89 1.03-1.64-.22-1.63-1.34-1.5.1 8.22-.26 6.87.06 33.24-.27 16.38-.11 16.2-.12 5.49-.08 10.82.16 8.27-.09 7.98-2.51-.05-3.7.13-8.84-.44-6.54-.11-1.83.13-3.8-.26-4.38-.04.07-11.65.08-4.44-8.43-.22-7.26-.06-.06-7.83-.35-8.38-5.05-.1-1.7 1.36-1.9.69h-.76v-1.31l-.61-.79-5.92-.05-.09-3.08-.25-2.83-.53-9.45-15.8-.44-.48-11.57-.6-14.32 11.7-15.95.25.29 8.54-11.57 8.11-11.67.09-6.3-.09-3.1v-63.28l.19-2.52 2.9.2.05-2.91h2.77l1.23-.17-.18-2.7 2.91.01-.18-2.86 3.42.06-.35-2.9 2.73.02.15-2.75h2.72v-2.75l3.9-.02-.51-1.59 3.93-1.35.08-2.46 3.4-.96.11-4.61 10.43.25v.75l3.48-.05 10.29.16h6.58l6.26.08.1-3.11V342.9l-.06-2.42.06-15.94.1-17.43-11.72-.27z"/>
    <path region="15" short-name="Senate District 44" long-name="Senate District 44" value="1" d="m806.21 666.41 1.6.74.87-.61 1.66-.29 1.74.39 2.4 2.61 2.4-.47 1.8.15 1.94-.2.52 1.07 1.3 1.41 2.18.54 2.65 1.2 1.14 1.22.78-.02 2.47-1.8 1.08-.11 1.52.87.88-.19 1.83 1.12.99.3 2.55 1.26.57 1.17.67.43 1.18-.41.3-1.07-.64-.72.1-.76.95-.43.74.27 1.6 5.04 1.02 1.55.44 1.46 1 1.29 1.09.23.71-.7.06-1.05-.4-.93.34-.83.88.43.42.87 1.05 3.27 1.42-.95.92.46.6-.78.91.84-1.04 1.13.47.4 6.86-8.96 3.4 2.63-3.34 2.32-1.08 1.13 6.1 4.71 1.56.72.68-1.99-.5-2.98.09-1.06 6.7 5.4 5.93 4.54-3.88 5.03-4.44 5.59-1.5-.4-1.78.3-3.08 1.33-.2 1.3 1.08.76-6.75 2.27-3.88 1.38-2.04.6 4.03 6.6-7.5 4.25-4.2 2.26-2.44-4.42.11-.26-2.15-3.82-6.6 2.73-2.29.8-3.52 1.5-5.86.8.31 1.36.03 1.98-2.17.22.33 1.81-1.37.27-.4.48.54.94-.75.95-3.78.44.06.84-6.05.64-2.17.63-.16-1.37-1.33-.3-1.39-3.54-2.13-.07-7.98 2.35-.86 1.77-.02 5.55-4.5 1.41-.23.29-3.61 1.05-8.71 2.28-1.22.26-.5-.37-1.14-2.84 1.49-2.75-.13-.6L780 730l6.27-11.2.27-2.25-.33-4 .02-2.96-1.18-6.88 9.01-4.54 2.93-1.7 3.23-2.74 1.38-1 6.63-5.36-4.3-5.28-2.1-2.4 4.36-5.83 1.92-3.26-.76-.6-2.17-.39z"/>
    <path region="16" short-name="Senate District 34" long-name="Senate District 34" value="1" d="m612.46 585.9 2.09 3.47 1.97.89 3.8-.68.76.33 1.52.02-.04-1.34.66-.33 2.35.32.55-.47v-1.15l.9-.93 1.46.4 2.68.09 1.2-.49.98-1.43 2.44.14.52-.36.19-1.92.97-.86 1.64 1.51 1.37-.27 1.3-.96 3.78-.48 1.77-1.44 2.26-.06 1.36.38 1.12-1.21.8-.27 1.66.95.4-.61 2.01 1.6 19.35 15.9 7.15 5.75-24.47 18.15-3.11 2.1-3.84 2.23-.94.41-7.63 3.83-2.06-5.15-2.32 1.2-.8.21-5.02 2.52-.87.22-2.03 1.08-5.91 2.5-8.75 3.08-3.92 1.54-5.37 1.85-3.05 1.35-4.23 2.17.67 1.02.24 1.8.43.81 1.88 1.43 1.75.4 2.75-.15 1.95.23 1.62-.39 4.05.13.93.64.93 2.85 1.61 2.07.77 1.58-.11 1.47-.76 1.62-.9 2.65-.2 2.38.71 1.49.66.63.44 2.04 1.58 2.37 2.38 2.35-1.07-.17-1.03-.95-.98.72-1.39.34.08.98 1.57 1.73-1.76 1.19-3.27.93.12.48-1.92.47-.46-.3-2.68.74.04.4-4.96 1.2-.55.26-1.85-2.22-.69.1-.4 1.1-2 .73-.9-.18.07 1.76 1.4-.05.66 5.12-.09 1.05.48 4.55.64 2.86-1.19.03-.52.56-1.05-.44-1.19 1.08-17.43 16.37-4.23 4.09-4.04 4.97-7.42 1-8.2 1.75-13.22 3.12-8.53 1.97-11.6 11.29 2.92-6.35-.96-.68-1.05-2-.89-.55-.58-1.14-1.24-.32-1.3-1.78-1.07-.85-.8-1.86-1.55-2.56.22-.92-1.86-2.07-.57-1.87-.73.2-1.07-.69.34-2.35-.75-2.47-1.2.1.15-2.21-.33-2.23-.88-.11-1-1.3-1.12.37-.21-.69.64-1.3-.53-1.17-.37-2.49-.9-1.45-1.07-.4-1.36-1.51-1.76-.18-.06-1.57-1.9-2.07-.75-.37-.73-1.83-.13-2-.47-.52-1.9-3.62 3.85-3.8.02-4.36.38-.73-1.11-1.03-1.2.04-4.07 3.35-.6-1.23-.73.15-.4-.85.19-1.58.6-1.26-.8-2.03.86-1.35-.77-.8-.67.02-2.07 1.2-.97-1.23 2.53-2.88-1.35-1.77.01-.5-1.3-2.1 3-3.97 3.73-3.95 3.24-2.85 2.44-2.35 2.85-2 2.94-2.33 4.3-1.84 1.43-.1-1.35-5.23 3.95-2.8 1.39-.79 1.5-1.2 3.75-2.6 5.58-3.41 5.56-3.03 12.92-7.84 8.33-5.21 1.54-.38 2.02-1.27 6.37-2.87 2.6-1.34 3.1-1.78 2.66-1 1.75-.22.89-.4-2.64-5.12 2.93-.96 6.48-1 1.57-.41 2.08-.03.6-.7 2.74-.5 2.97-.09 3.9-.91.91-.39 1.54.18 1.66-.19 3.98-1.5 2.14-1.2 5.41-2.65z"/>
    <path region="17" short-name="Senate District 18" long-name="Senate District 18" value="1" d="m892.56 534.2 2.67-.69 2.84-1.46 1.8-1.62 1.08-2.11 5.96-3.92-1.48-2.2 3.3-2.3.63-1.89 3.89-1.92 1.37-.18 1.62-.72.22-1.18 1.26-.57 2.84-.3 1.33-.5 2.73-1.68 1.54-2.22-.07 1.4.5 2.16 1.04 1.12.95 1.92.1.76 1.72 2.76 2.79 2.33.55 1.55.02 2.58.35.8 1.45 1.47 1.17 1.82.85.9.49 1.28-.13.9-1.25.84-.87 1.12.08 1.36-1.26.46-1-.56-2.45.16-.83.48-.3 1.38.44.88 1.62 1.59.27 1.27-1.13 1.94-1.67 1.89-.1 1.76-1.31 1.97-2.5.99-1.44 2.45-.5.5-2.57-.24-2.45-.82-1.36.15-.7 1.1-.31 1.96-.96 1.1-1.5.8-.81.95.2 1.4 1.64 1.85.56 1.67-.53.8-.13 1.38-1.38 1.42-.74 1.97-.89 3.12 1.2 2.31 1.09.43 1.04-.13 1.19.5.01 1.17-.9 1.5-1.39.9-1 1.55-.65 1.86.87.86.8 1.63.37 2.54-.36 1.06-1.24.14-.67.48.86 1.95-5.46 3.19-5.06 2.81-6.07 4.52-2.61 2.12-4.17 3.57-12.14-9.93 2.15-3.56.47-4.04-3.1.5-.84-.96-1.4.08-.4-4.12-.62-.84-.15-1.04-.81-.36.41-2.43 1.68-.76 1.4 1.86 2.56 2.38-.16-1.12 1.65-.31 1.33-.56-.36-.66.33-1.32-.26-.89.96-1.17h.48l-.64-6.22-1.18-10 6.42-.96-.09-.64 1.35-.9-.08-.88 10.8-1.27-.53-3.78-4.27-12.7z"/>
    <path region="18" short-name="Senate District 31" long-name="Senate District 31" value="1" d="m580.16 711.54 17.44-16.37 1.19-1.08 1.04.43.53-.56 1.19-.02-.64-2.86-.48-4.55.09-1.05-.66-5.12-1.4.05-.08-1.76.9.18 2.01-.73.4-1.1.69-.1 1.85 2.22.55-.25 4.96-1.21-.04-.4 2.68-.74.46.3 1.92-.47-.13-.48 3.28-.93 1.76-1.19-1.57-1.74-.08-.98 1.39-.34.98-.71 1.03.95 1.07.17 2.05 1.4 2.1 2.86 1.28 1.09 3.35 1.06.8.82 1.02 2.9 1.24.83 3.61.28 2.22 1.92 2.34 1.67 1.96 1.2 1.8.79.41 1.13.25 3.24.4 2.17.22 2.9.7 1.19 1.35 1.15 1.9.6 1.83 1.4 2.36 2.54 1.65 2.29 1.22 2.04.85 2.15 2 2.33 1.9.81 1.41.34-.06.8-.7.58-1.54-.02-.26.57.77 1.45-1.43-.07-1.06 3.2-1.05.33-1.6 1.9-1.89.26-2.18-.52-.97.66 1 2.14-.77 1.85-1.72.46.04 2.63-.3 1.05-1.3-.42-1.03.21.94 1.35 1.09.4.38 1.18 1.12-.8 2.69-.92.4 3.29-1.33.11.59 2.25-2.28 1-.82-.59-1.55.34-.93-1.2-1.66.86.08.92-2-.12-.33 1.6.93 1.9.6.33-.24 1.25-1.59.84-1.46-.09-1.71.96-.84.83-.42-1.05-1.21-1.27-.85.06-.63 1.4.97 1.45-.7 1.35-1.22.42-1.08-.2.18 1.21-.67.46-1.73-.8-.78.07-.69-4.07.03-2.79 1.2-3.34-1.05-.42-6.3-.7-3.18-.1-2.28-1.19-5.05-2.84-.72 1.03-4.15-.1.39.75 2.54 1.23-.8 1.14-1.3-1.04-.45 1.18-.89.76-.37 2.16-3.41-6.53-1.13-1.97-3.06-6.1-1.4-3.02-1.3-1-1.19-.07-1.28-.58-2.8-.57-2.28-1.42-.35-.86-1.07-.86-.38-1.2-1.92-2.33-2.12-.97-.34-.4-2.94-1.45-.71-.54z"/>
    <path region="19" short-name="Senate District 39" long-name="Senate District 39" value="1" d="m111.22 682.95 5.51-2.56 4.26-1.78 5.46-2.45-3.74-.97-.52-1.12 1.43-2.26.42-1.32 1.53-2.02-.18-.78-1.08-1.55-.25-1.63.31-.5 2.5-.1.85-1.3-1-1.28-1.3-.93.76-3.64 2.25-13.84 1.23-2.49.31-1.42 1.43.95.98-.5.58-1.22 2.08-.77.36-2 1.38-.02-.76-1.33 1.64.15.21-.81 1.56-1.1.37-.9.26-6.71.2-7.55v-7.27l.08-.83 1.3 1.02.15.72 1.86 1.82 1.85 2.6 1.78.17 3 1.73 1.22.38.45 1.14 1.39.52.71.66 1.18.39.28 1.42-.48.35.57 1.6.72 1.18 1.28 1.17.05 1.8.8.3 2.48-.36.56-.6.69-2.66 2.2-1.64 2.21-.28 1-1.3 2.27-.32 2.34 1.9.22.42 2.36 1.76.43.79 9.12 7.96.83.59.85-.24 1.05 1.48-.29.6-1.32.14.8 1.17.16 1.22 1.1.85.35.92-.43 1.4.91 1.1 1.12.02.13.83 1.41 2.13.21 1.31 1.81.84.91-.3 1.14.22-1.42 2.05-1.58 1.5.25 2.23.79.88 1.07-1.2.9.9 1.4.36.52.5.03 1.74.45 2.3-.45.56.18 1.84 1.02-.84 1.23.18.51.93 1.06-.28 3.25.03 1.17 1.24 1.3.1.54.48-.44 1.36.39 2.54-.92.55-1.6 1.7-.45 1.02-.86.2-2.7 2.3 6.04 4.37 10.74 7.7 13.6 13.81-.3 1.11-1.15 1.1-.72 1.31-1.1-.03-.64-.75-.2-1.15-1.49.43-.96-.53-1.73 1.38-.3 1.93-.7 1.32-1.7.39-1.1.95-.58-.32-1.64 1.18-.46 1.84-.98.35-.58 1 .07 1.9-.69.34-1.27 1.95.06 1.2-1 .43-.74 1.45-.83.32-2.81-.71-1.08-.07-1.3.69-2.67-.33-.6-.43-.3-1.51-1.16-3.8-.73-1.44-2.05-1.33-.87-.26-3.6-2.1-1.4-2.67-2.35-.44-1.32-1.43-2.52-1.11-.7-.74-1-1.7.03-1.44-2.36-1.82-.05-.62-3.7.01-.93.64-1.4-.12-1.46.26-2.17 2.06-1.56 1.83-.67-1.11-.54-.1-1.21 1.75.12 1.52-1.4.84-1.3-.58-.52.39-.25 1.33-1.9-.02-.52-.95-1.27.17-.67-.59-1.2.2-1.16.66-.74.86.81.4.35 2.25.67.3.16 1.83-1.36-.42-.56-1.46-1.61-.59-1.31.17-.97.8-1.6.72-.48.68-1.65-1.07-1.03-.37-.54-1.63-1.13-.04-.81-.47.4-.85-.95-.8-2.06-.54-.15-1h-1.2l-1.2.77-1.33.47-.83-.25-1.81-1.49.52-.52-.96-1.23-.56.56-1.24-.1-1.92-1.66-5.88.02-4.03-.09-1.07-.83-1.12-.07.08.99-9.13.05-1.02-.31-.44.58-1.69-.94-.95-2.16-1.51-1.77-.47-1.93.76-1.18 1.21-.56h1.03l3.3.7 1.48-.28 1.13-1.42.41-1.87-.48-2.57-.36-.62-1.8-1.13z"/>
    <path region="20" short-name="Senate District 33" long-name="Senate District 33" value="1" d="m415.2 789.26 5.13-5.8 1.1-2.58 1.67-2.32 1.15-2.01 3.07-4.6 1.62-1.6 2.8-4.36 3.8-7.87.94-2.23 1.78-6.22.35-.47L440 745l-.27-1.46.51-1.03 1.02-.74 1.62-3.13.22-2.73.46-.96.27-1.61.97-1.47.3-1.15.87-1.87-.2-1.74 1.14-2.2 1.49-1.9.14-.9 1.92-2.31 1.32-2.66 1.59-2.17 2.97-2.37 5.38-11.56 2.08-3.51.46-1.4 1.37-3.19 1.5-3.13 4.82-8.38 5.26-7.47 2.3-2.86 1.85-1.43.87-1.1 1.62-.99 2.46-2.46 1.5-1.8.7-1.14 1.3 2.1-.01.5 1.34 1.77-2.52 2.88.97 1.24 2.06-1.2.68-.04.77.82-.85 1.34.78 2.03-.6 1.26-.18 1.58.4.85.73-.15.6 1.23 4.07-3.36 1.2-.03 1.1 1.03-.37.73-.02 4.36-3.86 3.8 1.91 3.62.47.52.13 2 .73 1.83.76.37 1.88 2.07.07 1.57 1.76.18 1.36 1.5 1.06.41.9 1.45.38 2.49.53 1.18-.65 1.3.22.68 1.12-.36 1 1.29.88.11.33 2.23-.15 2.2 1.2-.1.75 2.48-.34 2.35 1.07.69.73-.2.57 1.87 1.86 2.07-.22.92 1.54 2.56.81 1.86 1.06.85 1.3 1.78 1.25.32.58 1.14.9.54 1.04 2 .96.7-2.92 6.34 11.6-11.29 8.53-1.97 13.23-3.12 8.19-1.76 7.42-.99 4.04-4.97 4.22-4.09 1.68.3.72.54 2.94 1.44.34.4 2.12.98 1.92 2.33.38 1.2 1.07.86.35.86 2.28 1.42 2.8.57 1.28.58 1.2.07 1.3 1 1.4 3.02 3.05 6.1 1.13 1.97 3.41 6.53-1.09.27.04 1.76.9.9.02 1.33-1.03.57-.4 1.1-1.05.73-.41.75.3 1.05-.28.85 1.08 1.85-.14.79.98 1.98 1.53-.25.23 2.05 1.24 1.76-1.68 1.39-1.59.25-.77.43-.76 1.42-1.31 1.57-1.66.7.12 2.58.05 22.27-10.22-.06-27.12.03h-43.24l-18.06-.07-25.26-.13-26.25-.3-20.73-.01z"/>
    <path region="21" short-name="Senate District 14" long-name="Senate District 14" value="1" d="m865.45 543.68 5.3-.8 3.91-1.18.64-.6 5.75-1.12 7.46-3.38 3.23-2.2.82-.2 2.06 5.74 4.27 12.7.54 3.78-10.8 1.27.07.88-1.35.9.09.64-6.42.95 1.18 10.01.64 6.22h-.48l-.96 1.17.26.9-.33 1.3.36.67-1.33.56-1.65.3.16 1.13-2.56-2.38-1.4-1.86-1.68.76-.41 2.43.8.36.16 1.04.61.84.42 4.12 1.4-.08.84.96 3.09-.5-.47 4.04-2.15 3.56-.9.35-1.4 1.2-3.08 1.65-2.3 1.01-3.43 5.67-.84.32-.36 1.24-1.05-.93-.48.72-1.58 1.26-1.83 1.98-2.06-.61.1-1.05 1.5-2.7-.6-.42-1.4.17.28-1.12 1.43.35 1.26-1.43-4.95-4.19 3.26-3.87 1.73-.4.95-.64 2.27-.89.46-.96-.34-.93-10.13 3.67-1.66-.72-3.3-1.12.11-1.13 2.99-1.54 3.41-1.48-.75-2.3-.05-1.32-.63-1.21 1.3-.8.73.4 2.27-.75-.05-.68-3.44-4.99-2.08-6.73 5.46-2.53-1.7-4.05-.11-2.85-.68-.83-1.23-.28-.51.35-.26 1.84-1.57 1.33-1.23.26-1.07-.58-.77-.88-.3-1.16-.95-.61-2.01.29-.8-.5-.71-1.7-.86-1.35-.32-1.64.12-2.07-.65-1.21.34-1.23-.74-2.42 1.1-.14 1.22-1.2 3.08-1.38 2.13-.38 1.3-.02 1.06-.76 1.68-.52 2.25.02 1.6-.47 1.9-.07 3.9-.77z"/>
    <path region="22" short-name="Senate District 35" long-name="Senate District 35" value="1" d="m294.27 492.5-.06-11.19.01-9.77 6.54-16.06 9.63.2 10.68-3.55.22-8.29 20.39 1.72 31.84 2.3 18.07 1.3v.07l14.94 1.8 9.67 1.22 5.55 9.66 3.91 4.77-.9 1.62-1.6.27-.35 2.54-.7.74-1.15-.33-.83.77.3 1.06-.87.52-.67-.71-1.11-.18-.87 2.26-.95-.83-1.46-.35-1.5 1.57 2.38 6.43.94 1.48-.53 1.97 1.73.51-.86 2.1.44.52 2.15-.57.47 1.76.8.44 1-.74.5.54-.8 1.12 1.17 1.5-1.43.8-.63.7-1.18-.4-.71.87.8 1.93 1.33.61-.34 1.1 1.35.31 1.03 1.14-.76.93 12.78 14.5 3.74 3.8-1.95 1.77 2.37 3.57 5.6 1.14 5.37 4.49 7.88 8.43-5.36 5.05 1.5 2.28-.45.9-.88.52-.12 1.28 1.22 1.44 1.05.4-.5 1.08.39 1.2 1.24 1.64 1.31-.77 4.09 6.95-4.77 2.33-6.02 3.31-1.77 1.24-6.8 4.34-8.42-3.09-3.02-1.18-17.99-6.53-2.74-.85-12.24.64-23.47 1.51-3.53.08 2.05 2.2-10.29 17.9-2.67-.73-1.36-.04-1.14.45-.55.96.31.62-.25 1.95-1.06 1.4.73 3.2.4 2.83-1.4 1.57-.77 2.04-4.32 7.67-1.21 1.46-1.96.37-3.54 2.34-.77 1.25-1.32.93-1.62 2.9-.28 2.08-.54 2.1.07 1.17.65 1.58-.33 1.52-1.05 1.57-1.6 4.58.84 1.53-1.47 14.66-7 3.61-2.72 4.85-.39 1.14-.9 1.73-1.67 2.21-1.26 5.95-1.55.34 1.36 5.03-2.48 3.58-28.7-.29-3.85-.09-.88-.18-.59.6-1.43-.37-.57-.9-1.98.33-.84.58-1.1-1.25-.48-2.45-.55-.59.46-1.05-.3-.71-1-.72-3.5-.7-.55-.24-.29-1.3-9.34-.16h-5.83l-6.9.13 1.7-2.63.18-.7 1.28-1.64.05-1.45.97-.95.33-1.2.74-.68.92-2.16.8-.8.87-.24.72-2.47 1.36-1.12 3.94-8.05.3-1 8.9-19.8 4.27-11 5.15-13.5 2.75-7.61 2.62-7.96 4.53-13.41 1.6.83-.63-2.61-.51-.21-.04-17.2.02-8.92.2-13.82.2-15.18z"/>
    <path region="23" short-name="Senate District 32" long-name="Senate District 32" value="1" d="m110.11 698.75.44-.57 1.02.31 9.13-.05-.08-1 1.13.08 1.06.83 4.03.1 5.88-.03 1.92 1.66 1.25.1.55-.56.96 1.22-.52.53 1.8 1.49.84.25 1.33-.47 1.2-.77h1.2l.15 1 2.07.53.95.8-.41.86.8.47 1.14.04.55 1.63 1.02.37 1.65 1.07.48-.68 1.6-.71.97-.81 1.3-.17 1.62.59.56 1.46 1.36.42-.16-1.82-.67-.31-.35-2.26-.8-.4.73-.85 1.17-.66 1.19-.2.67.58 1.27-.16.51.95 1.91.02.25-1.33.53-.4 1.3.59 1.4-.84-.13-1.52 1.21-1.75.54.1.67 1.11 1.56-1.83 2.17-2.06 1.47-.27 1.4.13.92-.64 3.7-.01.06.62 2.35 1.82-.04 1.45 1 1.69.71.74 2.52 1.11 1.32 1.43 2.36.44 1.39 2.66 3.6 2.1.87.27 2.05 1.33.73 1.44 1.17 3.8.3 1.5.6.44 2.66.33 1.3-.69 1.08.07 2.81.71.83-.32.73-1.45 1-.43-.05-1.2 1.27-1.95.69-.33-.07-1.92.58-.99.98-.36.46-1.83 1.64-1.18.58.32 1.1-.95 1.7-.39.7-1.32.3-1.93 1.73-1.38.96.53 1.48-.43.2 1.15.65.75 1.1.03.72-1.31 1.16-1.1.29-1.1.78-.6.4-2.44.6-.95-.1-2.42.31-1.59 1.92.18 1.55-.66-.06-2.19-.4-1.25 1.54-.02.82-.5 1-2.92-.4-1.45.72-.61.98-.14.33-1.46 1.1-.62.16-.63 1.46-2.43-.3-1.02.89-.55.62-1.55.87-.42.66-1.73.55-.25-.05-1.51 1.04-1.98.95-1.3 1.47-.73.47-.64.1-1.4 6.9-.13h5.84l9.34.15.3 1.3.53.24 3.5.7 1 .72.31.7-.46 1.06.55.6.48 2.44 1.1 1.25.84-.58 1.98-.33.57.9 1.43.37.6-.6.87.18 3.84.1 28.7.28 2.5-3.58-1.37-5.03 1.55-.35 1.26-5.94 1.66-2.2.91-1.74 11.7 5.82 3.86 1.86 4.11 1.25 8.02 7.95 1.9 1.7.7-2.36.26-2.48.01-2.58 1.36-5.6 5.06 2.91 5.37 2.9 8.5 4.3 2.95 2.07 3.08 1.35.58-2.25 1.94-3.28 1.1-2.52 1.34-3.74.44-.75 1.23 5.65 2.18 10.34.2.5 14.62 11.1 2.77 2.24-3.82 9.01-.2.62-5.2 4.6-3.1 3.43.48.75-.2 2.3.4.87 2.06.53.93 1.38.64.33-.41 1.8-.68.86-1.96.25-.83.88-.23 1.84.48 1-.24 2.58.53 1.08-.62.5-2.6 3.91-.98 2.12-2.12 5.96-.35 1.72-.72.94-1 2.08-3.01 7.27-.52 2.28-1.1 2.82-.75 3.02-1.6 5.3-1.43 4.01-4.1 7.33-1.02 2.54-1.16 1.6-1.93 3.6-.56.47-2.5 3.6-1.72 2.7-1.01 1.15h-9.99l-3.87-.08-13.09.08-1.5-.08-5.05.07-25.32-.11-15.76.02-19.86.04-19.62-.03-27.92.16-31.58.17-14.44.08-12.32.06-10.66-.1-26.27.1-15.29.02-10.85-.04.9-1.3 1.2-2.48.08-1.17-.64-.98-1.23-1.05-1.4-.3-1.3-.8-.78-1.71.29-1.5-.25-2.18.88-1.12 2.17-.2.87-.47.5-1-.26-1.3-1.8-3.09-.18-3.85-.46-1.68-2.07-.78-.26-1.12 2.29-1.87-.03-.83-.99-1.86.5-1.1 1.85-1.03.27-.82-2.17-4.7-.28-1.44 1.07-2.23-.26-1.4-1.45-1.73-1.8-2.75-1.69-1.68-.94-.52-1.91-.36-1.54.35-1.96.92-.75.06-1.75-1.21-.7-.87-.2-3.4.8-1.39 2.14-.84.42-.58-.58-2.39-.25-1.76.53-.98 1.29-.81 2.36-.16 1.4 1.3.72 1.78.76 1.07 1.35.23 2.1-1.2.8-2.72.85-.98 1.8-1.1 1.72-.34 2.47.02 1.7-1.3.65-1.23-.42-1-2.02-1.6-.08-1.19 1.69-1.6.37-1.17-1.06-1.24-2.3-.6-.5-1.23 1.44-.81 2.41.43 1.27.67h1.36l2.71-1.07.93-.85.54-1.9-1.69-4.52-.58-.78-1.3-.61z"/>
    <path region="24" short-name="Senate District 48" long-name="Senate District 48" value="1" d="m658.96 620.54 24.46-18.15 6.04 5.02 10.3 8.34 3.7.08 2.18-.7 3.7-1.58 1.06-.07 1.53-.8 2.42-.26 2.9-1.08 1.33-.09 1.36.4 1.36-.4 2.1.28 3.47-.33 1.71-.33 2.77.12 3.72-1.13 2.56-1.5 3.9-.57 1.9-.97 2.4.14 1.37-1.14.6-.1.86-1.08 3-1.34.49-.53 4.95-1.97 4.51-.87 2.44-3.07h1.26l.65 1.26.56-.24 1.45-1.99 1.88 1.57.86-.36.92 1.1 1.53-.9 3.27-14 17.45-8.5 8.69 7.52 10.55 8.89 6.83 5.59-12.32 13.73-2.16-3.1-.3-.72-1.8-.08-1.3-.63-.39 1.14-.94.55-1.29-.04.24 1.72-.56.24-2.37-.6-1.36 1.97.01 2.35-.3.88-.83.75-.64 1.15 5.42 5.13 3.63 3.28-2.1 2.39.41.34-1.8 1.94-3.05 1.04-.86.04-2.7 1.33-8 3.56-1.67-.04-1.06.46-1.52-.77-.81 1.56.97.25.64.71-1.33.92.62 1.15 1.46.53 1.49 1.2.28.72-.9 1.7.98 1.32 1.58.53-3.32 2.2-1.05-.57.37-.73-.73-.88-.95.06-.15-1.16-1.54.51-1.3-.42-.48.55.26.96-.51 1.22-1.3.2-.68 1.92-1.13.78-1.18.34-.3.93-1.43 2.4-1.69 1.22-.29 1.78-.6 1.17-1.48.36-.14.78-2.33 2.02-1.33 2.19-1.08 1.06-1.44.61 8.2 6.86 17.52 14.74-.72 1.72-.93-.47-1.02.44-.49-.54-1.69.39-.36 1-.8.64-3.64-.52-.63-.4-1.1 1.01-.48-.25-2.62.89-2.1-.85-.6-1.18-1.54-.5-.46.37-1.79-1.33-.63-.03-1.17.9-1.11.27-1.01-.56-1.21 2.42-4.94-3.23-.18-.5-1.6-1.1-.38-.68-1.18-.12-.78-.89-.86-.19-1.9-2.99-.65-.42-2.91.9-4.35 1.17-.5.33-2.36 2.74-2.93.23-2.27 1.15-1.72-.11-.12-2.3.54-.47.64-1.95-.06-.64.74-2.01-.32-1.02-1.96-1.56-1.16.02-.75-1.6-.38-1.7.25-3.64.4-1.3-.9-.14-4.07 2.1-10.37 1.7-11.53 2.08-5.82 2.42-5.6 2.24-11.04 4.67-.53.25-3.9-13.2-3.51-12.11-2.21-7-5.38-18.08z"/>
    <path region="25" short-name="Senate District 29" long-name="Senate District 29" value="1" d="M800.92 458.73v-2.04l7.14-7.37 5.1-5.41 21.75-.89.52 16.01.94 1.13.12 1.42.6-.05.5 1.1.82.4 1.34-.03 1.28-.66.83 1.93 1.32.22.55.74-.63.88.24.9-1.06.48-1.08-.15.24 1.26-2.4 1.81.02 2.04-.82.08-.23 1.07-1.04-.82-1.4.3.76 2.9 1.1-.14.79 1.1.8.38.6-1.03 1.52 1.51.56 2.4 1.47.2-.34 1.76.9.26 4.06 3.71.39 1.25.64.77.22 2.04 1.45.3 8.43 10.66 2.8 3.4-8.63 5.12-4.86 3.02 3.11 5.14 5.08 8.7 6.73 11.88 2.3 5.27-1.9.5-3.9.78-1.9.06-1.6.47-2.25-.02-1.68.52-1.06.76-1.3.02-2.13.38-3.08 1.39-1.22 1.19-1.1.15-11.64 2.82-3.07 1.1-1.31 1.77-4.5 1.89-1.83 2.2-.95.88-2.23 1.1-1.4 1.02-2 .32-.35 1.02-2.89 1.8-2.01 2.2-6.24 3.24-1.74-.04-6.3 3.6-17.44 8.5-3.26 14-1.54.9-.91-1.1-.87.36-1.88-1.57-1.45 1.99-.56.24-.65-1.25-1.25-.01-2.44 3.07-4.52.87-4.95 1.97-.49.53-3 1.34-.86 1.07-.6.1-1.38 1.15-2.4-.14-1.88.97-3.91.58-2.56 1.5-3.72 1.12-2.77-.12-1.7.33-3.47.33-2.1-.28-1.37.4-1.36-.4-1.33.09-2.9 1.08-2.42.26-1.53.8-1.06.07-3.7 1.58-2.18.7-3.7-.08-10.3-8.34-6.03-5.02-7.15-5.76-19.35-15.89-2.01-1.6.18-1.14 1 .06 16.24-7.74 4.74-1.88 11.57-5.63 16.26-7.84 5.12-2.39 12.55-5.97 3.86-18.54 6-7.31 7.18-7.71 17.12 6.03-1.8-8.34 14.03-2.99-.25-1.14 3.78-.83-1.01-1.47 1.51-.56.26-.89 3.1-.7 5.41-1.63 1.53-.06.1.65 1.32-.04.03.85 1.7-.05-.07-2.67 5.22-.15-1.18-4.65-1.27-6.2-1.5-6.7 4.68-2.07 7.75-4.87-.04-1.41 3.26.06.12-3.85 4 .09.08-2.3-6.25-.07z"/>
    <path region="26" short-name="Senate District 43" long-name="Senate District 43" value="1" d="m98.35 622.63 2.04.16 2.28 1.06 1.51 1.36.5-.6 1.1.49.75-2.28 1.5.63.59-3.69.47-1.13h1.13l2.01-.42 1.02-.45 1.45-1.48.39-2.26-.37-2.76.27-1.73 1.22-1.41 1.2-.64 1.24 1.05.03.77 1.2-.36.1 1.82 3.09.85.54.87.89-.31.37.88-.1 1 .53.57.11 1.2.72.1.07 1.86.91 1.38.33 3.4-.91 2-.87.85-1.56.74-.27 1.78-.7.4-.44 1.36.42.5-.23 1.13-3.4 2.41-.73 1.38-.88.06-.12 1.01-.85.04-.83-.92-1.02-.56-.67.62-1.3-.01-1.54-1.13-.87 1.46-.83.75-3.16-2.42-.63-.2-1.7.23-1.66 1.47-1.05 1.66-.99.74.11 1.39.47.4 1.95-2.16.85.52-.88 1.92.4 1.43 1.25 1.22-.51.88.55.5.88-.3.54 1.5-1.18.84-1.12-.9-1.19.03-.74-2.19-2.48.26-.53-1.3 1.21-.28-.18-1.76-.96.13-1.27-.69-1.4.3-.06-1.23-1-.97-.89-.17-.18-.97 1.07-.9.83-.22.7.65.36 1.16 1.54 1.7.22-.72-1.42-1.44-.36-1.56-1.7.22-1.1.95-1.25.35-.54 1 1.14 2.42-.78 1.57-.98.05-.8-.06-.66-1.8-1.37-1.93-1-2.33-.98-1.43.13-.64.98-.65v-2.2l.5-1.02.67.45 1.71.1 2.1-.38v-.86l-1.33-2.14 4.53-2.52.76-1.08z"/>
    <path region="27" short-name="Senate District 40" long-name="Senate District 40" value="1" d="m855.66 355.08 11.81.02.46 10.68 12.37-.66 6.28-.27 5.16-.4.56 2.91 2.83-.53 10.2-1.74 2.1 7.4 6.07 4.76 1.24 3.04-5.93 3.54-4.53 2.84-8.98 4.5.3 22.51.01 4.22-1.32-1.56-.51-.1-.9 1.38-1.6.59-1.21-.81-.95-1.5-.42.02-2.06 1.91.73 2.38.8.52-.06.7.74.77-.24.93-.9.84.34 1.1 2.24.1.4-.98.79-.04.84 1.23 1.1.73-.16 2.36-.72 1.18.4 1.22-1.43 2.45-.95.26.54 2.27-.87.74-.67 1.4.33.97-.5 1.25-2.24 1-.4 1.36.97.35.52.77-.79 1.52-2.27 1.96 20.08-1.53 1.39-.05 17.89-1.36-4.6 23.2 13.61 2.09 6.51 11.92.92.28.82 1.07 1.8-.46 1.06.16.1-.87.85-.12.67-.74 1.93-.12.59.93 1.2-.37 1.02-.96 1.41-.06-.22 1.48-.45.57-1.99 1.4-1.15.2-1.77.99-1.16 1.45-1.15.24-.68 2.21-1.6 2.35-.12 1.58-1.53.75-1 1.03-5.69 3.3-1.04.07-1.98 1.58-2.83 1.32-.25.44-2.2 1.37-1.23 1.15-.43 2.48-.42.75.3 1.34.8.45 1.52.06-1.54 2.22-2.73 1.67-1.33.52-2.84.3-1.27.56-.2 1.18-1.63.72-1.37.18-3.89 1.93-.62 1.88-3.31 2.3 1.48 2.2-5.96 3.92-1.08 2.11-1.8 1.62-2.84 1.47-2.67.67-.82.21-3.24 2.2-7.45 3.38-5.75 1.12-.64.6-3.9 1.18-5.3.8-2.31-5.27-6.73-11.89-5.08-8.7-3.1-5.13 4.85-3.02 8.62-5.12-2.8-3.4-8.42-10.66-1.45-.3-.23-2.04-.63-.77-.4-1.25-4.05-3.71-.9-.26.34-1.77-1.48-.2-.55-2.39-1.53-1.5-.58 1.02-.81-.38-.8-1.1-1.09.14-.76-2.9 1.4-.3 1.04.82.23-1.07.82-.08-.03-2.04 2.41-1.8-.24-1.27 1.07.15 1.07-.48-.24-.9.63-.88-.55-.74-1.32-.22-.83-1.93-1.28.66-1.34.02-.82-.38-.5-1.11-.6.05-.12-1.42-.94-1.13-.52-16-4.64-1.59v-5.4l-1.78.04-.2-3.78-.56.06-.15-3.08 1.22-.06-.13-4.93.51.14 7.94-.63 6-.23-8.17-5.38 2.55-3.96.55.24 1.56-2.36 7.3-.31 5.48-6.26-8.73-7.75-1.52-1.9.94-.91-.34-.71-4.37-3.83 1.67-1.68 2.79-3.12.14.12 3.42-3.55.14-.91 2.32-4.04z"/>
    <path region="28" short-name="Senate District 23" long-name="Senate District 23" value="1" d="m499.1 272.72 17.96-.13 30.07.07 18.9.05 16.32.04 10.46-.25 9.62-.1 14.9-.2 29.34.02 32.86.35 16.46.28 20.31.14 13.63-.06 20.37-.07 1.36 19.52.61 9.37 1.45 21.48-.05 2.23.22.85.93 13.9.69 12.54-8.62.6-5.59.32-2.66 17.72-1.78 10.55-.73 3.07-9.37 30.64-4.71 15.32-16.76.4-9.06 9.95-6.67 7.07-3.77 4.47-12.16 12.86-14.8.83-8.78-4.03-10.43-.88-6.4 2.27-4.94.48-4.69 1.5-.87 1.16-1.46 4.05.34 3.24.8 3.48 1.17 2.49 2.08 2.6 1.33.56 1.13 1.78.15 1.24-.1 2.55.2 1.81-.83 2.13v2.18l-.66 2.25-.39 2.42-.03 2.15-.43 1.49-1 1.78-1.1 2.89.89 2.7.16 1.9 1.32 2.48 1.47 3.68 1 1.94 5.4 5.84 2.77.84 1.07.9-.24.6-1.09.18-3.01-2.13-1.5-.36-1.11.6-1.56.11-1.42-.65-3.43 1.09-2.15-.95-2.5.84-2.4-.05-1.47-.5-2.4-.15-.92.52-3.92 1.1-.54.86-3.52.45-.5.7-1.41-.01-.93.56-1.47 2.56-1.04.2-1.2-1.5-1.42.3-2.04-1.5-3.78.24-9.52 3.3-32.87 8.3-6.07 2.23-.09-8.42-1.2-.56 14.56-14.24 12.9-18.85 10.33-11.4-.05-5.91-3.46.03-14.97-19.11-1.83-2.23-1.68-2.3-.93-1.83-1.86-.56-.82-.79-.1-1.05.53-.92-1.45-1.33-1.26-1.62-2.5-2.48-2.3-.35-2.65.13.03-2.05-1.45-.39-.8-.68-1.26.2-3.56-3.44-1.4-1.2-2-3-.94-.88-1.51-.7-.77-2.06-2.17-.9-.66-.54-.91-1.53-.9-2.17-2.02-1.32-.55-.7-.61-3.01-.07-2.5-1.74-1.75-2.46-1.98-2.78-.44-1.79-.6-1.64-1.23-.67-.96-.32-3.02-1.47-3.32-2.4-3.86-1.23-.74-.7-1.3-.83-3.2-.7-1.3-2.17.05-.38-22.02.04-1.15-.45-26.33-.27-16.09-.34-18.67-.25-17.1z"/>
    <path region="29" short-name="Senate District 11" long-name="Senate District 11" value="1" d="m819.95 596.8 11.07 9.25-1.15 2.38-1.9.45-1.1 1.62-5.54 7.05-1.95 2.83-1.07 1.12-7.75 3.67 3.7 2.88-4.15 5.31 6.43 1.85 3.4 1.14.1 1.68 3.06 1-4.1 16.09-2.15-.6-3.31-.7-.55.16-1.82 7.47-.83 4.8-1.66.29-.87.6-1.6-.73-1.68-.97-1.9-.13-.93-.56-.6-1.08-1.99-1.02-2.85-.39-1.92-1.12-.4-.59-.86 2.97-4.24 4.64-3.95 4.17-1.16-.06-4.22-.92-3.87-1.64-4.4-3.41-1.67 4.07-1.85 1.39-8.2-6.86 1.44-.61 1.08-1.06 1.33-2.19 2.33-2.02.14-.78 1.49-.36.59-1.17.3-1.78 1.68-1.21 1.42-2.41.31-.93 1.18-.34 1.13-.78.68-1.92 1.3-.2.5-1.22-.25-.96.48-.55 1.3.42 1.54-.5.15 1.15.95-.06.73.88-.37.73 1.05.58 3.32-2.2-1.58-.54-.97-1.32.89-1.7-.28-.72-1.49-1.2-1.46-.53-.62-1.15 1.33-.92-.64-.7-.97-.26.81-1.56 1.52.77 1.06-.46 1.67.04 8-3.56 2.7-1.33.86-.04 3.04-1.04 1.81-1.94-.4-.34 2.09-2.4-3.63-3.27-5.42-5.13.64-1.15.82-.75.31-.88-.01-2.35 1.36-1.97 2.38.6.55-.24-.24-1.72 1.3.04.93-.55.39-1.14 1.3.63 1.8.08.3.71 2.16 3.1z"/>
    <path region="30" short-name="Senate District 15" long-name="Senate District 15" value="1" d="m658.96 620.54 3.63 12.43 5.38 18.08 2.2 7 3.52 12.12 3.9 13.2.53-.26-.83.5-1.35-.1-.62.88-2.95.6-1.14-.38-1.11 1.03-.5 1.08-2.02.86-.76 1.38-2.06 1.28-1.54-.26-1.53.58-1.85 1.34-.76 1.94-1.01-.66-2.14-.51-.1.89-.63 1.12-1 .47-.95 2.19-.8.4-.98 2.56-1.9-.6-1.35-1.15-.7-1.2-.22-2.9-.4-2.16-.25-3.24-.4-1.13-1.8-.8-1.97-1.19-2.34-1.67-2.22-1.92-3.6-.28-1.25-.83-1.01-2.9-.8-.82-3.36-1.06-1.28-1.09-2.1-2.86-2.05-1.4-2.38-2.35-1.58-2.37-.44-2.04-.66-.63-.7-1.5.18-2.37.91-2.65.76-1.62.11-1.47-.77-1.58-1.61-2.07-.93-2.85-.93-.65-4.05-.12-1.62.39-1.95-.23-2.75.14-1.75-.4-1.88-1.42-.43-.8-.24-1.81-.67-1.02 4.23-2.17 3.05-1.35 5.37-1.85 3.92-1.54 8.75-3.08 5.9-2.5 2.04-1.08.87-.22 5.02-2.52.8-.21 2.31-1.2 2.07 5.15 7.63-3.83.94-.4 3.84-2.25z"/>
    <path region="31" short-name="Senate District 49" long-name="Senate District 49" value="1" d="m.07 277.88 2.4-1.08 1.93-1.17.88-.11 5.39-2.2 3.55-2 .46.05 2.44-1 3.01-.8 2.52-1.18 4.18-2.19 2.04-.38 3.6-1.44 6.27-3.31.45-.51 4.08-1.9 1.8-1.36 1.66-.98 1.2-1.33 1.23-.26 3.09-1.26 1.54-1.17 1.4-.43 1.71-1.04 3.8-2.68 2.03-2.06 1.04-2.3.82-2.79 1.31-2.9 1.08-1.59 2.02-2 2.27-1.21 3.01-.56 1.17.34 1.7-.02-.49.84-1.25.33.02.56 1.18 1.81-.9.67.7 1.44 2.27.42 6.83-4.12 1.54-.83 4.54-2.9.1-.52 2.01-1 7.24-4.95 1.27-.19.98-.77 2.94-1.35 4.78-3.54.5.4 4.4-1.2 1.65-1 .59-.67 2.16-.45 1.07-1.1 6.02-3.71.66.33 2.03-1.37-.03 6.2.07 18.62-.07 7.27.07 2.83-.01 23.1.11 4.61.54 11.25-.68.05.07 3.46-.01 8.3.05 11.1-25.5.05-31.85.21-8.72.17h-10.3l-10.36-.1H19.15l-19.06-.02z"/>
    <path region="32" short-name="Senate District 17" long-name="Senate District 17" value="1" d="m882.27 692.27 3.57-4.47 9.8 7.32-3.17 4.12-1.63 4.34.82 1.7.22 3.62.64 1.31 1.17 1.22 1.46.31 3.16-.89 4.28 5.7 1.48 1.29.6.93 2.3 2.17 2.41 1.58 1 1.23 1.11.85-1.37 1-6.9 4.23-1.66 1.26-2.84 1.72-3.8 2.26-5.03 2.83-.59-.61.42-.78-.13-2.23-.87-.94.4-.76-.43-2.06-.9-1.45-3.3-1.39-1.04.63-.83 1.1-5.19-8.33-1.82-3.23 9.24-5.32-.96-1.53-4.45 2.55-4.72-8.12-3.04 1.71-.49-1.07-2.65 1.47-.08-1.36-1.08-.76.2-1.3 3.09-1.33 1.78-.3 1.5.4 4.44-5.59z"/>
    <path region="33" short-name="Senate District 41" long-name="Senate District 41" value="1" d="m141.84 576.53.09-7.98-.16-8.27.08-10.82.12-5.48.1-16.21.28-16.39-.06-33.23.25-6.87-.1-8.21 1.35 1.49.22 1.63-1.03 1.64-.08.89 1.22 1.74.05 4.73-.34 2.26.21 2.87.67 2.07 1.74 1.3 1.2 1.23.6 1.19-.16.78-1.54 1.43-.3.6.21 1.5.6.45 1.92.52 2.48 1.62 2.95 1.03 1.5-.13.7-.55 1.26.24.02 1.15-.56 2.15-.97 1.56-.27 1.2.58.8 1.9.01 1.67.78.66.84-.2 1.25-.67.27-1.75-.7h-1.51l-2.27 1.23-.76 1-.13 1.32 1.01 1.05 2.94 1.1 1.4.07.7-.43 1.35-2.17 1.43-1.1h1.96l1.5 1.25 1.67-.98.6-.05.61.96 1.24.38 1.06.78 1.33-.92-.53-.92.64-.85 1.26.85.57 1.5 1.66-.33-.2-1.88 1.08-2.09 1.17.3 1.05-.19 1.88 1.04 1.48-.09-.8 1.06.23.9 1.3.1 1.2-1.09.88-.22 1.54.47 1.03-.82.65-2.29.1-1.12 1.36-1.02.39.72-.85 1.04.26.56 1.19-.07.4.66-.3 1.05.9.67 1.03-1.52.75.31 1.83-.39.3.99-1.3.23.11 1 1.27-.07.47.44-1.07.87-.2 1.98.52.63.83-.1.8-1.38-.34-1.74.1-1.72.86-2.42.85-.67.8.9 1.8.47.9-.97 1.08.66 2.6-.62 2.85-2.66.53.4 2.45.56.63-.24 1.3-1.65 1.1-.6 1.1-1.99 3.44-1.6.71-1.21 1.11-1.02 2.61-1.06.86.32-.05 1.96 1.33.06 3.07 1.65 1.35-.23.57-.68.82.54.39.96 1.32-.14 1.36 2.1.93-.35.93-1.38 1.07 1.04 1.43-.58v-2.78l1.17-1.87v-5.43l5.6-.1 1.26 3.66 4 .12.03 1.05 9.27.07-.06-4.55 9.73-.1.16 6.99 8.51.07 15.45-.05.03 15.3-.2 15.18-.2 13.83-.02 8.92.04 17.2.5.2.63 2.62-1.59-.83-4.53 13.41-2.62 7.96-2.75 7.6-5.15 13.51-4.27 11-8.9 19.8-.3 1-3.94 8.05-1.36 1.12-.72 2.47-.87.23-.8.8-.92 2.17-.74.68-.33 1.2-.97.95-.05 1.45-1.28 1.65-.18.69-1.7 2.63-.1 1.4-.48.65-1.47.74-.95 1.29-1.04 1.98.05 1.51-.55.25-.66 1.73-.87.42-.62 1.55-.88.55.3 1.02-1.47 2.43-.17.63-1.09.62-.33 1.46-.98.14-.72.61.4 1.45-1 2.92-.82.5-1.53.02.4 1.25.05 2.19-1.55.66-1.92-.18-.3 1.6.1 2.4-.6.96-.4 2.44-.8.6-13.59-13.81-10.74-7.71-6.04-4.37 2.7-2.3.86-.2.45-1.03 1.6-1.7.92-.54-.39-2.54.44-1.36-.53-.48-1.3-.1-1.18-1.24-3.25-.03-1.06.28-.5-.93-1.24-.18-1.02.84-.18-1.84.45-.56-.45-2.3-.03-1.74-.52-.5-1.4-.36-.9-.9-1.07 1.2-.8-.88-.24-2.23 1.58-1.5 1.42-2.05-1.14-.22-.9.3-1.82-.84-.2-1.3-1.42-2.14-.13-.83-1.12-.02-.9-1.1.42-1.4-.35-.92-1.1-.85-.16-1.22-.8-1.17 1.32-.15.3-.59-1.06-1.48-.85.24-.83-.59-9.12-7.96-.43-.8-2.36-1.75-.22-.41-2.34-1.91-2.28.32-.99 1.3-2.2.28-2.21 1.64-.69 2.65-.56.61-2.49.35-.79-.29-.05-1.8-1.28-1.17-.72-1.18-.57-1.6.48-.35-.28-1.42-1.18-.39-.71-.66-1.39-.52-.45-1.14-1.23-.38-2.99-1.73-1.78-.17-1.85-2.6-1.86-1.82-.15-.72-1.3-1.02-1.48-1.55-.7-.13-1.17-1.87-1.85-.88-.65-.89-1.19.11-1-.62-1.98.05-.87.41-.59-1.3-.96-3.02-.11-1 .25-2.1.9-1.68 1.04-1.08 2.16-1.03 2.29-.72 2.22-1.11 1.47-2.27 1.93-1.96 1.54-2.13.92-2.33-.36-1.6-.81-2.03z"/>
    <path region="34" short-name="Senate District 20" long-name="Senate District 20" value="1" d="m722.04 430.96 4.71-15.31 9.38-30.64.73-3.07 1.78-10.55 2.66-17.72 5.6-.31 8.6-.61-.69-12.53-.92-13.92-.22-.85.05-2.22-1.45-21.48-.61-9.38-1.36-19.51h6.8l21.55-.03 18.8.05 22.03.22 22.62-.26 21.71-.06 21.3-.05 3.17 1.54.6 1.4-.83 2.86.5.82 1.75.59 1.6 1.7.31 1.52 1.34 1.2 1.57.03-.06-.9 1.35-.4.74 2.7 1.77.9.31 1.23.12 2.63 1.54 3.5-.03 1.16-.86 1.12.25 2.25 1.83.82.53 1.54-1.07 1.46.17 1.05.85.94 1.14.02 1.35-1.11.79.27 1.22 1.44 1.35.46 1.5-2.3 1.89-.56 1.05.24 1.1.87.76 1.14.53-.1 1.25-2.73 1.04.18.43 1.05-.11 1.8.43 1.24.8.92 1.48.3 2.17-.81 1.59 1.6 2.1-.16.75.51.16 1.68-.27 1.38.29 1.73 2.28 1.02 1.11 1.15 1.33.4 1.03-.73 1.3.25v1.24l-.8 2.26-.78.46-1.18-.24-.78.27-1.48 1.94-.54 3.16.63 1.17 1.4.17 2.9-.72.55.62 2.05.96 1.25 2.78.1 1.8-.33 2.2.22 1.84.65 2.77-.43.85-2.47-.28-.38 1.02 1.55 1.94 1.21 2.6.26 1.37-.24.92-1.05.92.06 1.1.76.33.7 1.3.2 1.43-.1 3.32.19 2.26.8 1.92-.12 1.3-.71.45-.94-.6-1.34.72.33 1.07-1.38.15-1.17 1.02 1.31 1.44 1.2 1.98 1.22.7 1.05 1.03.5 1.87.57 1.24 1.26 1.06 1 .35 1.51 2.7.38 1.2-.23.87-1.23.67.3 1.53 1.1.24 2.2 1.84.5 1.47-.48 1.5.7.85 2.06-.31.56.49.33 2.32-.54 2.43.67 1.35 2.02.58 2 .24 1.74-.97.42-.6 2.24.2 1.46 1.2 1.98.35.58.72.39 2.59 2.03.67.8.66.22.93-1 1.18-.25.9.42.74.9.15 2.05-.47 2.07-.84 1.05-.1 1.7.97 2.01 1.96 1.43.21 1.82-2.24 1-.57 1.11.2.76.92.29 1.56.71 1.67.86.53 3.39-1.04 1.19.6 1.54-.32.7-.69 1.66-.72.73.44.34 1.5-.68 2.1-.41.48.02 1.43.83 1.54.98.63 1.63.22 1.28 1.11.85 2.5 2.98 2.65.23 1.31-.88.95-.98.65-1.36.42-2.12 1.22-1.62.32-3.93-.03-1.21 1.32-.55 2-1.38 1.49-3.52.6-.64.9.59 1-.03.8-2.45 1.7-.9 1.15-1.68.98-1.4 1.52-1.43 2.26-1.36 3.24.22 1.15-.68 1.56-1.4.5-.78 1.7-.06.9-.92 2.25 1.39 1.65-2.53 5.01-1.39 4.04-1.25 1.65-1.76 1.69-.95 2.4-3.07 3.98-1.37 1.09-2.39.98-.49 1.25-2.8 2.13-1.49.2-1.6 1.16-1.62 3.63-1.93.12-.67.74-.84.12-.11.87-1.05-.16-1.81.46-.82-1.07-.92-.28-6.5-11.92-13.62-2.1 4.6-23.2-17.9 1.37-1.38.05-20.08 1.53 2.27-1.96.79-1.52-.52-.77-.97-.35.4-1.36 2.24-1 .5-1.25-.33-.97.67-1.4.87-.74-.54-2.27.95-.26 1.42-2.45-.39-1.22.72-1.18.16-2.36-1.1-.73-.84-1.23-.79.04-.4.99-2.24-.1-.35-1.1.9-.85.25-.93-.74-.77.06-.7-.8-.52-.73-2.38 2.06-1.9.42-.03.95 1.5 1.2.8 1.6-.58.9-1.39.52.1 1.32 1.57-.01-4.22-.3-22.5 8.98-4.5 4.53-2.85 5.93-3.54-1.24-3.04-6.06-4.75-2.1-7.4-10.21 1.73-2.83.53-.56-2.91-5.16.4-6.28.27-12.37.66-.46-10.68-11.81-.02-15.6-.06-5.14-.06-11.61-.02.24 1.29-.55.48-1.18-.25-7.84 14.13.83 1.32-3.39 6.15-2.4 3.95 5.41 4.22-10.78 18.05.59 2.63-.27 3.55.43 1.26 1.7 1.5 2.34.61 1.21.58.76 1.27-.23.9-1.01 1.33-.8 1.72.15 1 1.78 2.62-1.6 1.42-.3 1.74-.59 1.21 1.03 1.33-.6.65-2.5 1.73-1.62-2.08-3.7 2.26-1.4 1.47 2.09 1.63-2.91 1.9-.71 1.47.86 2.48-1 1.68-1.19 1.29-1.45 1.1-.64-.85-1.98 1.5-1.7-.46-2.2 1.85-.77.08 5.94 4.45 7.56 5.59v2.04l-3.72 1.56-2.43-.46-11.43 2.53-5.04 1.36-.84-.15-3.65.46-5.28 2.8-.8-1.54-2.05 1.07-5.97 1.48-2.99-6.62-3.03 1.45-2.46 2.47-1.92.1-1.05 1.1-3.64-1.27-7.62-17.23-16.27 7.02-.35-1.32.23-5.43 1-12.24z"/>
    <path region="35" short-name="Senate District 38" long-name="Senate District 38" value="1" d="m76.92 575.5 6.03.02 8.3.11 4.78.3 7.78-.23 6.43.2 4.38.03 3.8.26 1.83-.13 6.54.1 8.84.45 3.7-.13 2.51.05-.5 1.84.8 2.04.37 1.59-.92 2.33-1.54 2.13-1.93 1.96-1.47 2.27-2.22 1.11-2.29.72-2.15 1.03-1.05 1.08-.9 1.68-.25 2.1.11 1 .96 3.02.6 1.3.23.72-.4 1.2-1.15 1-1.89.5-3.64-.76-2.68.25-2.51.84-1.2.64-1.23 1.4-.27 1.74.37 2.75-.39 2.27-1.45 1.48-1.02.45-2.01.43-1.13-.01-.47 1.13-.59 3.69-1.5-.63-.75 2.27-1.1-.48-.5.6-1.5-1.36-2.29-1.07-2.04-.15-.16-.67 1.15-1.2-.96-.89-1.4.05-1.08-1.03-.7.93-1.36-.84.5-.45-.22-2.66-.84.4-1.6.01-.06-1.88-1.45 1.78-1.68-.5-1.16-.64-1.08-.16-.54.88-.9.13-.41.96-2.9-.13-.23-.72-.91-.36.58-1.3-1.78-1.35-.56.54-1-20.16z"/>
    <path region="36" short-name="Senate District 1" long-name="Senate District 1" value="1" d="m915.76 737.73.3-1.12-.72-1.43.9-.06 2.03.35.16-.9.85.01-.17 1.03 2.26.24.69-4.86 1.93.33.34-2.07 1.06.14 2.13 2.33 1.54-1.18 1.65 2.4-1.47.45-2.9 1.56-1.87 1.5-.64 1-.32 1.6-.07 2.95.19 1.48 1.22 3.46-.5 2.6-1.11 2.29-.41.38-1.58 1.01-5.86.39-1.08.29-1.8 1.67-2 1.38-1.42-1.88-2.46-.38-1.09 1.07-1.37-.92-2.41-.02-.45-2.36 1.03-1.19 1.34-2.67.69.47 2.54-.71 1.24-2.07 1.84.91 1.32-.12.88-1.93 1.94-.41.3 1.65 2.8.45.94-5.73-3.53-.55-1.1-.4 1.8-1.65z"/>
    <path region="37" short-name="Senate District 3" long-name="Senate District 3" value="1" d="m917.77 721.34 1.45 1.03.24-.4 2.16-1.5 1.25-7.45 5.15 3.91 1.2-1.32.76 1.05-.53.46 1.55 1.08-1.78 2.3-1.79.66.48 1.06 1-.24.02.9-1.24.78-.14.84-2.37-.4.15-.95-1.56-.33-.6 3.57-.37.18-.74 4.42-.69 4.85-2.26-.23.17-1.03-.85-.02-.15.9-2.04-.34-.9.06-1.32-1.26.74-4.52 2.07.4.47-.53.48-2.88-.53-.95.92-.45-.56-1.3-.83-.94z"/>
    <path region="38" short-name="Senate District 6" long-name="Senate District 6" value="1" d="m962.38 711.48-2.02-.27-2 .58-5.9 3.61-1.16 1.02-1.82-1.72.67-1.01-.08-1.27 1.44-1.4.24-.84 1.28-.24.82-1.22.52-2.82-1-.6.08-1.27-.7-.97.36-1.62-.24-.76-.96.26-.53-.6h-1.17l-.6-.85-2.46-.93-2.95-2.28-19.68-15.26-4.98-3.96-5.85-4.75-3.63-2.85 3.85-4.88 1.07-.9 5.73 4.56 1.46-1.92 3.04 2.29 1.15-1.37 1.2-.53 1.8-1.64 1 .05 1.15-1.35 2.69 2.1.16.97 1.14 1.28.7.09.62-1.35.84.68-.7 1.9 1.44.11.8-1.36.58.52 3.1-3.9 4.04-5.36 7.58 5.67-5.18 6.85 1.67 1.46.96-.1-.74 1.84 1.4.49.55.67-.43 1.18 1.4.78.51 1.42 1.55.04.32-.57 4.34-1.46 1.27-.3 1.4.15 2.56-.76 1.85 5.55.4-.12.86 1.75v1.99l-.32 1.97.43 2.09-.23.3 1.38 1.72 1.13.58-5.62 4.95-1.75-.02-.75 2.84-.44.58.48 2.89-.57.94-1.17.65-.38 1.89.9 1.33z"/>
    <path region="39" short-name="Senate District 8" long-name="Senate District 8" value="1" d="m904.3 735.53 2.9.47-.23 1.45.96.5 2.03.33.52-1.05.93-.03 1.2.92.68.1.6-.79 1.87.3-.41.78-1.82 1.66 1.1.39 3.54.55-.93 5.73-2.8-.45-.31-1.65-1.94.4-.88 1.94-1.32.12-1.83-.9-1.25 2.06-2.54.71-.68-.47-1.35 2.68-1.03 1.18.45 2.36 2.42.02 1.36.92 1.09-1.07 2.46.38 1.42 1.88-1.7 1.23-2.34 1.1-1.44.45-4.92 1.23-3.64.07-2.8-.31-1.18.04.58-3.34-.1-1.05 1.55-1.5 1.05-.35-.85-1.44.56-.82-1.06-1.81 1.2.19 1.95.87 1.45-1.78-1.19-1.85-2.26.63-.95-.62.07-.95 1.74-1.03.35.26 3.77-2.21-.43-1.43 4.47-2.77-.75-1.83z"/>
    <path region="40" short-name="Senate District 50" long-name="Senate District 50" value="1" d="M.11 471.32v-8.65l.08-17.7-.05-4.44.04-8.5-.1-8.04.06-21.66-.03-6.2v-15.16l-.03-2.41v-29.93l-.01-15.99.03-5.93-.01-19.42 19.06.02h24.22l10.36.1h10.3l8.72-.17 31.85-.21 25.5-.05 13.89-.15 11.71.28-.09 17.43-.06 15.94.07 2.41v14.77l-.1 3.11-6.27-.09-6.58.01-10.3-.16-3.48.05v-.75l-10.42-.25-.1 4.61-3.41.96-.08 2.46-3.94 1.35.51 1.58-3.89.03v2.75h-2.72l-.15 2.75-2.73-.01.35 2.89-3.42-.06.18 2.86-2.9-.02.17 2.71-1.23.17h-2.77l-.05 2.91-2.9-.2-.19 2.52v63.28l.09 3.1-.09 6.3-8.11 11.67-8.54 11.57-.25-.29-11.7 15.95.6 14.32-1.68.78-1.05-1-.81.35-1.08 1.39.1 1.37-2.08 1.06-.95-.12-1.6 1.38-.2 1.17-16.63.41-6.86.12-9.95.3-9.26.35-9.15.49.12-4.23.03-21.43V485.5z"/>
    <path region="41" short-name="Senate District 22" long-name="Senate District 22" value="1" d="m855.66 355.08-6.81 22.18-2.32 4.04-.14.91-3.42 3.55-.14-.12-2.79 3.12-1.67 1.68 4.37 3.83.34.7-.94.91 1.52 1.9 8.73 7.76-5.47 6.26-7.31.3-1.56 2.37-.55-.25-2.55 3.96 8.16 5.4-5.99.22-7.94.62-.5-.14.13 4.94-1.23.06.15 3.07.56-.05.2 3.78 1.77-.04.01 5.4 4.64 1.58-21.74.89-5.11 5.41-7.14 7.37-7.56-5.6-5.94-4.44.76-.08 2.2-1.85 1.71.46 1.98-1.5.64.85 1.45-1.1 1.2-1.29.99-1.68-.86-2.48.7-1.47 2.92-1.9-2.08-1.63 1.38-1.47 3.7-2.26 1.63 2.08 2.5-1.73.6-.65-1.03-1.33.59-1.21.3-1.74 1.6-1.42-1.79-2.62-.15-1 .8-1.72 1.02-1.32.22-.91-.75-1.27-1.2-.58-2.36-.6-1.7-1.5-.42-1.27.27-3.55-.6-2.63 10.8-18.05-5.43-4.22 2.41-3.95 3.4-6.15-.84-1.32 7.84-14.12 1.18.24.54-.48-.23-1.29 11.61.02 5.13.06z"/>
    <path region="42" short-name="Senate District 26" long-name="Senate District 26" value="1" d="m877.43 721.08 5.2 8.33.82-1.1 1.03-.62 3.32 1.38.89 1.45.44 2.06-.41.76.87.94.12 2.23-.4.78.58.61 5.03-2.83 3.8-2.26.83 1.21 1.7.97.86-.24.58.58 1.16-.3.45.5-.66 2.4.75 1.83-4.47 2.77.43 1.43-3.77 2.21-.35-.26-1.74 1.03-.07.95.95.62 2.26-.63 1.2 1.85-1.46 1.78-1.95-.87-1.2-.2 1.06 1.82-.56.82.85 1.44-1.05.34-1.56 1.51.1 1.05-.57 3.34-.34.01-.36-1.76-.61-1.26-.81-.41-.9.2-1.11-.55-1.37.86-.47-1.13-.88-.9 1.04-2.06-.8-.61-.29-1.62.25-1.65-.5-1.31.08-1.3-.37-.52-.2-2.63-.98-.36-2.45 1.58.52 1.41-1.13-.19-1.22 2.5-.98-.83.03-.85-1.45-2.1-.61-.17.03-1.6-.4-1.43-1.26-1.58.23-.67-2.46-1.54 1.35-2.69-.71-.8-.47-1.25-.67.08-.63-1.9.4-1.15.08-.87-2.27-1.8z"/>
    <path region="43" short-name="Senate District 2" long-name="Senate District 2" value="1" d="m929.22 715.6 1.26-.96 1.31-1.68 5.69 4.3-.52.65.94.68.48-.66 1.4 1.05-.65.44.67 1-4.46 3.06-.66 1.37 1.94-.64 1.2 1.76-1 1.82-.33 1.3-.71 1.25-1.96 1.78-1.76.66-1.35.16-1.65-2.4-1.54 1.18-2.13-2.33-1.05-.14-.34 2.07-1.94-.33.74-4.42.37-.18.6-3.57 1.56.33-.15.95 2.37.4.14-.84 1.24-.78-.02-.9-1 .24-.48-1.06 1.79-.66 1.78-2.3-1.56-1.08.53-.46z"/>
    <path region="44" short-name="Senate District 24" long-name="Senate District 24" value="1" d="m831.02 606.05 14.6 12.25 4.1 3.4 14.24 11.64 9.81 7.55.6.61 3.42 2.72-1.84 1.43-.1 1.25-3.1 4.17-1.98 1.77 1.18 1.42.15 1.19.98 1.1 1.62.74.4.62 3.91 2.91 1.63.71 5.14 4.07 1.02-1.11 1.94 1.58.42-.13 6.63 5.27-1.05 1.35 2.3 1.9-.33.44 1.94 1.5.46.7 1.1-1.6.7-.3 3.77 2.97-5.23 6.8-.57.6-2.51-1.76-6.2-4.54-4.41-3.47-2.34 2.77-7.07 9.16-6.71-5.4-.08 1.06.5 2.98-.69 1.99-1.56-.72-6.1-4.7 1.08-1.14 3.33-2.32-3.4-2.63-6.85 8.96-.47-.4 1.04-1.13-.9-.84-.61.78-.92-.46-1.42.95-1.05-3.27-.42-.87-.88-.43-.35.83.4.93-.05 1.05-.71.7-1.08-.23-1.01-1.3-.44-1.45-1.03-1.55-1.59-5.04-.74-.27-.95.43-.1.76.65.72-.32 1.07-1.17.4-.67-.42-.57-1.17-2.55-1.27-1-.3-1.82-1.1-.88.18-1.52-.87-1.08.1-2.47 1.8-.78.03-1.14-1.21-2.64-1.2-2.2-.55-1.28-1.4-.53-1.08-1.95.2-1.79-.15-2.4.47-2.4-2.61-1.74-.39.83-4.8 1.82-7.47.55-.16 3.32.7 2.15.6 4.09-16.09-3.05-1-.11-1.68-3.4-1.14-6.43-1.85 4.16-5.3-3.7-2.89 7.74-3.67 1.07-1.12 1.95-2.83 5.54-7.05 1.1-1.62 1.9-.45z"/>
    <path region="45" short-name="Senate District 47" long-name="Senate District 47" value="1" d="m0 523.79 9.15-.49 9.26-.36 9.95-.3 6.86-.1 16.62-.42.2-1.17 1.6-1.38.96.12 2.09-1.06-.11-1.37 1.08-1.4.81-.33 1.05 1 1.68-.79.48 11.57 15.8.44.53 9.45.25 2.83.08 3.08 5.93.05.6.79.01 1.31h.76l1.9-.69 1.7-1.36 5.05.1.34 8.38.07 7.82 7.26.07 8.43.22-.08 4.43-.07 11.66-6.43-.19-7.78.23-4.78-.3-8.3-.11-6.03-.02-.01-.17-9.67.3-3.55-.04.58 13.64-.99.41-.7.82-1-.34-.85.78-2.08-.78-1.18 1.34-.3 1.68-1.16-.18-1.87 1.89-.66.11-1.1 1.6-.78-.23-1.65 2.02-3.91 3.85-4.57 4.35-7.35-14.5-8.99 8.14.13 1.15-6.62.12-10.73.08-3.48-.23-4.3.08.01-17.9v-21.47l-.01-26.15.01-6.43z"/>
    <path region="46" short-name="Senate District 4" long-name="Senate District 4" value="1" d="m913.12 698.56 3.46 2.81.85.3.71-.95.93-.57 1.8-2.44.29-.72 2.82-3.6 5.29 4.11 7.51 5.98-3.34 4.51-.58.37-2.66 3.4 1.6 1.2-1.32 1.68-1.26.97-1.2 1.32-5.15-3.91-1.25 7.44-2.16 1.5-.24.41-1.45-1.03.63-.9-1.58-1.25-1.52 1.91-4.02-4.43-1.1-.48-.58-.72-1.13-2.75.4-.73-.76-.8.43-.65-1.29-2.6-3.72 4.65-.67-.42 8.27-11.14z"/>
    <path region="47" short-name="Senate District 7" long-name="Senate District 7" value="1" d="m892.52 710.21 1.94-2.6 1.32 1.02 10.97-15.18 4.23 3.3 2.14 1.8-1.99 2.48-8.27 11.14.67.42 3.72-4.65 1.29 2.6-.43.66.76.8-.4.72 1.13 2.75.59.71 1.1.49 4.02 4.43 1.5-1.91 1.6 1.25-.64.9-1 1.41.84.94.56 1.3-.92.45.53.95-.48 2.88-.47.53-2.07-.4-.74 4.52 1.32 1.26.72 1.43-.3 1.12-1.87-.3-.6.8-.67-.11-1.21-.92-.93.03-.52 1.05-2.03-.33-.96-.5.23-1.45-2.9-.47-.45-.5-1.16.3-.58-.58-.85.24-1.71-.97-.83-1.2 2.84-1.73 1.66-1.26 6.9-4.22 1.37-1-1.1-.86-1-1.23-2.41-1.58-2.32-2.17-.59-.93-1.48-1.3-4.28-5.69-3.16.9-1.46-.32z"/>
    <path region="48" short-name="Senate District 12" long-name="Senate District 12" value="1" d="m877.8 644.22 14.58 11.5 5.68 4.53 3.39 2.6 8.6 6.61 3.64 2.85 5.85 4.75 4.98 3.96 19.68 15.26-.94 1.28-6.48 5.92-7.51-5.98-5.29-4.1-2.82 3.6-.29.71-1.8 2.44-.93.57-.7.95-.87-.3-3.45-2.81-2.14-1.8-4.23-3.3-10.97 15.18-1.32-1.03-1.94 2.6-.64-1.3-.22-3.62-.82-1.71 1.63-4.34 3.18-4.12-9.8-7.32-3.58 4.47-5.93-4.54 7.07-9.16 2.35-2.77 4.41 3.47 6.2 4.54 2.5 1.76.58-.6 5.23-6.8-3.76-2.96-.7.29-1.12 1.6-.45-.7-1.94-1.5.32-.44-2.3-1.9 1.06-1.35-6.63-5.27-.42.13-1.94-1.58-1.02 1.11-5.14-4.07-1.63-.7-3.9-2.92-.4-.62-1.63-.73-.98-1.11-.15-1.19-1.18-1.42 1.99-1.77 3.1-4.17.09-1.25z"/>
    <path region="49" short-name="Senate District 5" long-name="Senate District 5" value="1" d="m936.78 703.48 6.48-5.92.94-1.28 2.95 2.28 2.46.93.6.85h1.17l.53.6.96-.26.24.76-.35 1.62.69.97-.08 1.26 1 .61-.52 2.82-.82 1.21-1.28.25-.24.85-1.44 1.39.08 1.27-.67 1 1.82 1.73-5.98 5.44-.63.71-3.77 1.23-2.21 1.18-.89 1-1.2-1.77-1.94.64.66-1.37 4.46-3.05-.67-1 .65-.45-1.4-1.05-.48.66-.94-.68.52-.66-5.69-4.29-1.6-1.2 2.67-3.4.58-.37z"/>
  </g>
</svg>