<svg viewBox="0 0 1000 738.82" auto-border-stroke-width="1" auto-border-stroke-width-limit=".5" original-source="['https://www2.census.gov/geo/tiger/GENZ2022/shp/cb_2022_us_sldl_500k.zip']" candidates="[{&quot;id&quot;:&quot;0&quot;,&quot;name&quot;:&quot;Democrats&quot;,&quot;margins&quot;:[{&quot;color&quot;:&quot;#1C408C&quot;},{&quot;color&quot;:&quot;#577CCC&quot;},{&quot;color&quot;:&quot;#8AAFFF&quot;},{&quot;color&quot;:&quot;#949BB3&quot;}]},{&quot;id&quot;:&quot;1&quot;,&quot;name&quot;:&quot;Republicans&quot;,&quot;margins&quot;:[{&quot;color&quot;:&quot;#BF1D29&quot;},{&quot;color&quot;:&quot;#FF5865&quot;},{&quot;color&quot;:&quot;#FF8B98&quot;},{&quot;color&quot;:&quot;#CF8980&quot;}]},{&quot;id&quot;:&quot;2&quot;,&quot;name&quot;:&quot;Independent&quot;,&quot;margins&quot;:[{&quot;color&quot;:&quot;#DCDCDC&quot;},{&quot;color&quot;:&quot;#E3E3E3&quot;},{&quot;color&quot;:&quot;#EAEAEA&quot;},{&quot;color&quot;:&quot;#F1F1F1&quot;}]}]" version="1.1" xmlns="http://www.w3.org/2000/svg">
  <g regions transform="translate(0 -130.59)">
    <path region="0" short-name="6" long-name="State Senate District 6" value="1" d="m165.16 441.48.72-1.38-.51-1.93.48-.34 1.13.25.4.39 1.1-.04.65.25 6.01.04.7-.33 1.36-1.45v1.5l5.04.03-.15-3.78 10.18.05V432l1.46-.03.01-1.79-1.05.01-.02-.77 2.19.02v-4.7l-.07-2.84h.7l-.1-1.36.38-1.2-1.26-.4.98-2.81-.8-.88.01-.71-1.12-.57-.38-.95-.84-1.24-1.03-1.07-.35-.82.61-2.44-.15-1.2.6-1.4-.02-2.8-.66-.95 2.23-.03v-1.38l2.74.13 1.32-1.16 3.28.03-.22 1.75 1.2-.82 2.84.01v.76l3.17-2.14 1.9-.04.14 1.35 1.09-.15.8-.54.32-.91-.17-.9.7-.3.91.7.06 4.22 1.24-.03-.07 3.98h7.63l-.05-1.06 6.55-.09.03.6 1.76-.13.63.65h1.46l.3-1.12 1.04.08.7.35.82-.22 1.53 1.1 1.2.38 1.28 1.29.42.02v1.19l-1.07-.02-.05 2.22 3.8.06-.03 11.56-.08 11.24 7.62.06 1.52.07 24.98-.2-.17-2.63-.03-3.75-.21-2.46.07-.43.08-4.74-.05-1.94 7.65-.18.12 15.3.18.03 11.8.02.64.04 44.26-.05-.18 1.9-.47.6-.07.86-.73.59-.3 1.55.31.52.05 1.11.45 1.32-.05.65-1.64.45-.3.73-.84.69-.28.63-1.51 1.43-.3 1.13.77.95-.1 1.25-.7.6.25 2.35.79 1.7-.68 1.9.28 2.78-.14.56.51.62-.46.63-.2.9.44 1.65-.4 1.2.55 2.2-.5 1.05.44.88.62.6-.8 2.04.05.74.64.97-.3 2.68.24 1.47-.2.74.4.9-.49 2.33.5.45 1.53.73-.04 1.34.37.6.35 1.62 2.26.42.42.85.96.9-.1.67.33.81.02 1 .52 1.6.4.19.28.98-.76.54-.2 1.37.62 1-.1 1.24.92.8.08.78-.78 1.71 1 1.4-.1.69-.53.62-.66.03-.24 1.94 1.4 1.48.16 2.74.4 1.5-.23 1.21.09 1.17-.26.3-.14 1.47-.53.43-.36 1.45-1.17.87-.9 2.3-.62.83-.09.7-1.23-.07-.97.39-.16.51-1.7 1.87.87 1.35.1.76.65 2.12-.63 2.54-.77 1.11-.49 1.45-.72.61-.05.97.84.38-1.07.7-1.44.32-.32.64.2 1.2-.35 1.97-.08 1.24-.47.6-.06 1.95-.44 1.55-.93.7-1.79-.15-.86-.62-.38-.62-.54.44-2.76.71-.4.63-.97.8.97.32-.12.82-1.22 1.36-.36.72-.87.68-.08 1.1-1.54 1-.93.8-.27.61-.12 1.97.21.52-.1 1.23-.32 1.25.53.24-.25 2.5.96-.04.5.51-.08 1-.5.5.13 2.4.6 1.4-.79.69-.02 1.26.94.62-1.07 1.18-.69 1.68-.68.69.75 1.21.18.9-.56 1.05.63 1.47-.25.88.2.76.78.34-.64 1.21-.14.98-.58.58-.35 2.56-.64 1.93.08 1.56.63 2.2.73.69.77 1.57-1.07.1-2.85-.1-.37 2-.97.92-.74-.11-.38.56-2.34.86-1.08.63-.25.56-1.8 1.23-.89-.06.16 1.04-1.52.68-.51-.33-.84.06-.38.79-.86.02-.37.89-1.25 1.16-.94.09-.83.79-.65 2.17-.8 1.26.33 1.08-.6.4-.56 1.32.54 1.2 1.56.54.33.8-.1 1.02.24.49-.6 1.18.32.83-.54 2.83-.64.29.23 1.97-.83.04-.11.68-.82.55.7.88.81-.42 1.07.8-17.11.04v-.27l-29.35.06v.17h-14.12v.3l-14.67.18.05-2.48-.07-11.15v-4.61l-4.89.12-6.44-.13-7.29-.03-2.42.17-2.49-.08-4.73.45-2.06.12v.34l-14.8-.17-.02-.36.04-10.86h-3.69l-.04-12.15-.01-10.1-.04-2.97.08-4.45-6 .03-.14-9.93h2.38v-1.18l2.56-.05v-1.2l2.43-.06 2.44.04.02 2.48h.64l.01-1.23h.88l-.33.94.51.66-.06 2.7.6-.4.58 1.29.66-.12 1.34.72.82.7 1.45-.37.49-.85-.11-1.28.31-1.03-.52-2.78.95-1.34.46-1.22-.44-.27-.13-1.45 1.25-.05.5-1.28h-.52l.27-1.45.8-.92-.05-.57.52-2.09-.24-.85h-1.32l-.27-1.22v-1.48h1l.21-.7h.85l.45-5.65V536l-2.06-.18-.08-3.21-1.43-.57-.86.1v-.78l-3.61-.05.49-1.56-.13-1.02-.69-1.84v-.55l1.41.01.5.46h1.21l.75.87.75.27 2.42.23-.39-1.75.82-.08 1.15.27 1.46-.83 2.02-.28.5.79.92-.43.98.73.83-.25 1 .17.74.43.98-1.12 1.3 1.28 2.4.05 1.9-.21.01-1.8.31-1.16.62.05.41-.7-.01-1.46.49-.29.11-1.15.32-.3.09-1.46-1.02-.4-1.51.2-.87.42-.68-.51-1.5.04-1.1-.58-.8-.01-1.83.53-.85.74-.47-.54-.87-.38-.55-1.02-.4-1.27-.85.54-2.21.5-1.27.16-1.25.63-1.19-.48.97-1.03.13-.87-1.82-.93-.29-.55.18-1.98-1.48-.64-1.83-.87-.8.07-.8-.33-.86.39-2.51-1.36-.91.07-.43-1.3-1.07-.47-.07-.9-.68-.52-.03 1.88-2.17.21.14.52-6.41-.1-.56-1.14-.18-4.9-.23-4.68-.75-.51-5.17-.05-3.45.5.59.92-.96-.01-.15.4-1-.4v-.62l.54-.58-.07-1.83.05-2.19 5.76.05v-2.29l2.1-.2 2.05.02.9-1.06-.02-1.68.17-.72 1.35-2.34.63-.49.93-.18-.22-1.8-.49-1.01-1.38-.72-.31-.8.48-.63-.94-2.19-1.72-.1-.74-.78.05-1.94-.95-1.1-1.48.4-1.02-.34-.06-.46.57-.72 1.04-.35.46-.82-.8-2.14.68-.5h1.22l-.19-1.08-.59-.72-1.01-.3-.63-.49-.67-1.02-.03-.58 1.44-.33 1.2-1.28-.71-3.73 1.22-.75-1.02-1.82.35-.72 1.47-.08.66-.43.28-1.03-.74-1.25-.06-1.2-.58-1.95.3-.92-.03-1.01-.83-.89.77-.67-.04-.96.39-1.22-.08-.65-.67-.9-.57-.14z"/>
    <path region="1" short-name="10" long-name="State Senate District 10" value="1" d="m185.22 359.08.9.24 1.37-.3.82.44.31.72.11 2.97-.24 1.1.1.8-.41 1.47-.07 1.28 1.83.66.14-.39 1.46.53 1.3 1.22.63.22 4.07-.03h.83l.09.76.54.9-.67.43.22.87-.63.63-3.18-1.39.47 2.22-.15 1.08-1.34 1.37-.37 2.16-.32 1.03-1.13 1.82-.55.46-1.82-.14-.04-.35-2.49-.23V381l-1.31-.01.02-.64-4.3-.05-.33.13-.05 1.16-.66.89-.97.62.04 2.29-.19.67h-.9l-.1-1.14h-1.36l.15 2.77-1.48.2-.68-.2-.65-.65-1.48.26-.9-.3-.8-1.02-2.95-.02v-.82l-2.18.47-2.2.05.08-.9-.81.02.05-1.26-.22-1.4 1.1-.34-.04-.72 3.85.15.73-.62.26-.89 1.46.01.02-1.43 1.2-2.38 1.67-1.33.5-.66 1.72-4 .68-.68 3.32.27 2.16-.33 1.76.61.01-1.41-1.25-.06-.62-.28.18-1.17-2.1-.08v-2.22l.28-.32 2.27.04-.02-4.03 2.8-.06.53-.26z"/>
    <path region="2" short-name="5" long-name="State Senate District 5" value="1" d="m68.79 349.6 2.74.07 2.4-.19h6.93l15.59.17 7.41.06-.13 7.62h.14l-.03 15.53-.07 4.48.03 21.17.02 4.4h2.52l.02 3.1h12.57l2.67.3 4.9-.31 8.72.09 19 .13-.07 4.37-4.3-.01-.05 7.6h.12l.02 5-2.47.08.03 8.55.3-.27h1.56v.8l2.62.04.2 1.06-.35 1.22-.03 3.07h.21l.01 2.14-.4.76-.01 4.47 1.15-.31 2-.02.06-.95.93-.74.82-.28 1.15-.01.37-.5-.02-1.38 2.07-.01.08-1.01 1.23.12.58-.65.41.5 1.48-.35.86.93.38 1.04.66.97.57.14.67.9.08.65-.39 1.22.04.96-.77.67.83.89.04 1-.3.93.57 1.96.06 1.19.74 1.25-.28 1.03-.66.43-1.47.08-.35.72 1.02 1.82-1.22.75.7 3.73-1.19 1.28-1.44.33.03.58.67 1.02.63.49 1.01.3.6.72.18 1.07-1.22.02-.68.5.8 2.13-.46.82-1.04.35-.57.72.06.46 1.02.34 1.48-.4.95 1.1-.05 1.93.74.78 1.72.11.94 2.19-.48.63.31.8 1.38.72.49 1 .22 1.8-.93.2-.63.48-1.35 2.34-.17.72.02 1.68-.9 1.06-2.05-.02-2.1.2v2.29l-5.76-.05-.05 2.2.08 1.82-.55.58v.62l1 .4-.52 1.5-.89.58-1.31 1.47-.37 1.01-1.3 2.7-.35.45-1 5.32-.54 1.7-2.23 3.3-.54.37-1.12-.34-1.52.08v.73l.72.3.1 2.54-.1 1.48-.82-.03-1.4.97.77.12.54.97-.2 1.59 1.24.02.02 2.5 1.85-.02v1.29h1.04l.94-.5-.01-.8h6.96v-.77l2.33-.31.18 1.16-.48.91-.85.65v1.14l1.41-.02v.77l-.04 2.84h4.34l-.03 3.82-1.23.12v3.95l1.13.02.02 1.28 4.92.02-.07 6.09 3.6-.01 1.4.84 1.4-.08 1.13.68-2.39 4.43v1.18l-2.56.06v1.18h-2.37l.14 9.93-15.56-.07-4.47-.04v-4.97l-6.12.03-1.68-.14-7.27-.03.01-3.62-7.27.2.02-6.55h-6.25v.95l-4.78-.05-10.5.03-.18 29.01-3.77.09-7.03.01.03.56h1.4l-.19 1.24h-2.49v.63h-1.24l-.04 2.48.54-1.13 1.35-.6.55.74.03 1.44-.08 8.9.7.5.88-.35 1.97.1-.03 8.14 7.4.02v7.33l-13.77.02-9.22.13-4.02-.14-2.45.2-.03-1.13-14.76-.14.1 4.66-.05 2.77-4.88.08v2.66l.6-.58 1.2.1-.24 1.31.85.07-.1 2.62.12 2.27.02 6.04-1.3.32-.01 1.59-.73.85-1.76.23-1.51-.3-1.37.52-1.79 1.38-.55.72-.89.5-1.61-.68-.01.75-1.79.03-.2 1.67.17.84-.67.3.68 1.37-.15.39-1.46 1.19.29 2.28-1.04.96.28.83-1 .94-.77 1.22-.72-.03-.77-.5-2.16.7-.81.77-.45 2.3-.23.53-3.95-.02-.04 6.18-4.8-.02-.17-.36-.11-6.23-.09-.74-1.99.18-3.7-.2-.36-.8-.22-2.2-.82-1.99-.6.02-.3-.64 1.07-1.65.55-1.29.54-.76.09-.87.94-.24.49-.8 2.43-.63 1.24-1.5 1.55-2.55 1.94-3.71 3.47-8.14 3.86-11.2 2.9-10.25 2.17-11.12.49-4.39.52-2.26v-1.26l1.57-5.48-.05-.1 2.01-10.34 1.13-7.13 2.26-17.44.76-8.16.71-6.33.17-4.75.78-7.37.6-4.62.22-2.23-.18-.93.22-1.03-.5-.82.48-2.08-.62-.6.76-.85.7-5.06.04-2.41.28-2.1-.15-1.45.12-1.74.45-3.17-.53-1.88.45-1.62-.01-.88.35-.86-.1-.88-.77-.7.52-1.48-.42-.56.75-2.97.12-1.07-.12-1.46 1.05-2.34.98-6.67.71-5.97.4-4.36.04-8.22-.14-1.55.1-2.46 1.02-5.28 1.11-11.18-.1-2.06-.24-.85.34-1.6-.08-.98.25-.8.83-4.58-.22-1.82-.42-.54-1.31-.13.7-1.72 1.06-5.71.24-3.33-.28-1.72-.58-.18.07-1.32-.47-1.2.22-.36-.35-.9-.78-.62.3-3.41-.13-1.23.82-1.14.46-.11.03-1.2-.54-.33.15-2.87 1.54-1.33.66-2.05 2.04-8.85.88-4.77-.07-1.46.23-2.31 1.06-5.77.75-5.9-.37-1.64.06-1.3.67-.82.1-.82z"/>
    <path region="3" short-name="11" long-name="State Senate District 11" value="1" d="m192.34 327.58 3.22.01-.09 1.62h-.8l-.05 1.9.57.48-.02.98.84-.09v1.43l.77.01-.1-.7 1.8-2 1.06-1.53.3-.82 1.06-.31.02 1.3-.63 1.07 3.1.14.12-1.75 2.6 1.13 1.05-1.38.47.67h1.28l.62-.73.76.39 2.56.06.44-.24 1.95.01.13.72-.23 1.09-.88 1.58-.5.2-.42.82-.32 1.47-1.48.02-.82 1.26-.93.73-1.72 1-2.74 2.62-2.2 2.78-2.1 2.03-1.9 3.24.99.38-.01.61-1.29-.5-1.01 1.57.64.25v1.56l-.45.13-.22 2.44-1.53.63-.04.79 1.94.03.47 1.29h-1.35l-.31.6-.65-.07-.05 1.28.36.13-.01 2.34.32.46-.03 2.7-.32.1-.06 2.47.83.58.19 1.45-4.07.03-.63-.22-1.3-1.22-1.46-.53-.13.39-1.84-.67.07-1.27.42-1.48-.1-.8.23-1.1-.1-2.96-.32-.72-.82-.43-1.36.29-.9-.24-.81-3.17-.45-.98.25-2.93.57-1.78.37-4.64-.34-1.19.13-.71.67-.66 1.99-1.14 1.23-1.49 1.05-.5 1.17-.06 1-.79.55-.98 1.13-1.15-.57-.98-1.1-1.05-.63-1.31-1.61-.8-.54-.93-.09-1.26.53-1.23 1.35-.33 1.31.57.82-.88z"/>
    <path region="4" short-name="16" long-name="State Senate District 16" value="1" d="m111.26 137.88 1.95-.74-.21.78-1.53.27zm14.45-2.64 1.18-.27 2.7-.99 1.85-.87 2.66.34 1.35.82 2.6 2.62 2.47 3.66-.41 8.52 5 4.84 1.35.6 1 .83 3.1.23 1.72-.19 3.87.27 2.57-.04 3.57-2.07 1.14-.8 1.38-.6 2.2-1.46 5.75-2.93 6.23.66 1.35 1.35 6.66 4.3 1.2 1.28.92.36 1.45.93 2.2.94 5.13 5.17 3.98 2.06 3.25 1.7 2.43 4.16.78 5.16 2.71 2.99 2.29 5.98 2.91 3.52.97 5.07-.66 3.5 1.66 5.03 1.6 2.95-.07 4.16-1.27 3.4.04 2.66 3.22 5.2 1 3.8.06 1.55.1 2.82-1.53 6.15-.24 3.4 1.32 4.1.17.13-1.1 2.03-2.15 2.1-.44 2.34-.34.06-1.2-.18-.72 1.2-.64.06-.03 1.68h-1.26v-.42l-1.9-.07-.7.38-2.08-.7-.4.38-2.53-.02.01-2.5-2.61-.04-.01-2.56-2.47-.01v.62l.67.67-1.22 2.17-.7.86-.03.74-.66.65-.8 1.41-1.68.3-.51.53.33 1.24-.23.63-3.54-1.9-.13.36-2.25-.2-.68 2.82-1.21-.06-1.7.52-.7.8-1.62 2.63h-1.42l-2.55.66-3.03-.05-.58-.37-1.22.03-.88.9-1.51-.89-.5.28-.35 1.1-.82.07-.31.58-.15 1.27.97 1.01.67 1.45 1.28-.1 1.39.7.35.57 1.51.54.81.85-.54.88-1.76 4.68 1.16-.27.02 2.57-.26 1.2v1.85l7.78.06.09 6.22-6.39.1v-2.57h-2.47l-.53-2.19-1.4.32-.2-.69-7.08-.03-31.55.06-.1 2.8.2 7.54.22 6.37-.1 10.2-.05 11.19-2.4.03-15.23-.07-.93-.1h-3.75l-1.3.09-10.72.06h-5.29l.05 2.48v5.03l-.17 2.39.17 2.63-.04 9.8.06 2.1 7.36-.03-.04 5.66-7.41-.06-15.59-.16h-6.93l-2.4.18-2.74-.06-.11-.4-1.02-.44.27-2.61.45-2.13.9-1.28 1.9-1.71 1.74-9 .6-4.77.29-4.99-.54-2.61-.49-.56.64-1.32.87-7.82.77-1.15-.56-.53-.2-6.31-1.07-3.49-.72-.34-3.58.35.03-.5 3.43-1.41.78-1.24.94-5.53.64-7.83-.18-2.18-.25-1.04-1.31-3.2.56-1.03v-1.5l-1.05-.91.97-1.17.55.01.52-.66.56-2.33 1-6.16v-3.43l-.9-1.14.55-2.64 1.52-11.81.33-.56-.38-1.16.1-4.6-.44-6.72-.36-1.1-1.44-1.5-.64-.34-.56-1.3-.05-.84.43-.45-.73-1.04-1.41.3-.16-.99.52-.86 1.17-1.22.16-3.3-.12-.8.37-.6.55-5.44-.09-1.8-.29-1.7.26-1.25-.22-3.2-.36-.5.2-1.34-.25-2.75-.48-.42-.04-.91-.82-.5.07-1.85-.73-.45-.15-.7-.99-.67.22-.65-.3-.7 2.3-1.72v-.99l.63-1.32 1.55-.95 1.92-.2.54-.3 1.18-5.73-.18-5.76-.5-5.28-1.74-7.92-1.44-4.54-1.84-4.84-2.8-6.27-1.67-3.48-1.37-1.18 1.08-1.2.94-.27.6.35.49 1.18.9.47.06.54-.87 1.37.7 1.29 1.17.4.91-1.02 1.38.85.96.14.81.88 2.52 1.89.42.18 2.26 1.76.6 1.14-.25 1 1.32.66 1.04-.67.56.12.5.94 2.46.98.94-.25.94-.61.14-1.59-.64-.09-2-1.57-.84-1.3 1.1-.55.34.4 1.08-.74 3.01.42 4.77-1.47 2.01-1.38.44-.85.71-.35 1.64 1.62 1.06.48 1.29 1.1.88 1.08 3.05-.14 2.37-1.5-.14-2.53 1.06-1.04.73.35 2.05.55h1.47l1.58-.38 2.17-1.68 2.4-1.03 2.82-2.3 1.42-1zm-60.17-4.65.5.32.7-.22.63.29 1.42 2.8-.3.27-.9-1.11-1.2-.36-.97-1.35z"/>
    <path region="5" short-name="1" long-name="State Senate District 1" value="1" d="m22.48 654.51 3.7.2 1.98-.18.09.75.1 6.22.18.36 4.8.02.04-6.18 3.95.02.23-.53.45-2.3.81-.77 2.16-.7.77.5.72.03.77-1.22 1-.94-.28-.83 1.04-.96-.3-2.28 1.47-1.19.15-.39-.68-1.37.67-.3-.17-.84.2-1.67 1.79-.03v-.75l1.62.69.9-.51.54-.71 1.8-1.4 1.36-.5 1.51.3 1.76-.24.73-.85v-1.59l1.31-.32-.02-6.04-.11-2.27.09-2.62-.85-.06.24-1.33-1.2-.09-.6.58v-2.66l4.88-.08.06-2.77-.11-4.66 14.76.14.03 1.12 2.45-.19 4.02.14 9.22-.13 13.77-.02v-7.33l-7.4-.02.03-8.15-1.97-.1-.87.36-.71-.5.08-8.9-.03-1.44-.55-.75-1.35.6-.54 1.14.04-2.48h1.24v-.63h2.5l.17-1.23h-1.39l-.03-.57 7.03-.01 3.77-.09.19-29 10.5-.04 4.78.05-.01-.94 6.25-.01-.02 6.55 7.27-.2-.01 3.62 7.27.03 1.68.14 6.13-.03-.01 4.97 4.47.04 15.56.07 6-.03-.08 4.45.04 2.97v10.1l.05 12.14h3.7l-.05 10.87.02.36 14.8.17v-.34l2.06-.12 4.74-.45 2.48.08 2.42-.17 7.29.03 6.44.13 4.9-.12-.01 4.6.07 11.16-.05 2.48 14.66-.18v-.3h14.13v-.17l29.35-.06v.27l17.1-.04.44.85.98-.03 1.09 1.08.66-.12 1.2.76.4-.68.67.96.41.18.43 1.38 1.7 1.27.4.08.61 1.35-.4.56.77 2.35 1.44 1.05.3.51 1 .64.6.9.91.2.47 1.57.72 1.2.49 1.41-.13.92-.82 1.32.44 1.05 1.3.92.31.6-1.13 1.33-.04 1.72.31.86.6.72 1.68.69.9 2.11.64.72-1.22.61-.93 1.05v.47l-1.28 2.4-.93-.06-.65 1.3-.9.4-.61.79-1.55.55.82 1.48-.85 1.73.24 1.03-1.15 2.2-.72 1.1.22 1.27-.15 1.12-1.41.93-.26.42.35 1.12-.11 1.3-.44.77-.81.77-.24 1.5-.33.3-.44 1.25.1.64-.49.73-.04 1.51-.64.79-.2 1.78.34.45 1.82 1h-25.46l-.02 12.02-14.51-.02-.1 2.22h-2.43v2.45h-2.44v2.45h-2.42v2.45l-7.45.02-.02.11-4.88-.01v2.44h-2.44v2.34l-2.5-.05v2.6l-2.64-.2-2-.02.02 2.67h-4.87v2.45h-2.45v2.44h-2.42V728h-2.43v2.38l-2.43.05v-.92l-2.37-.02.02 3.7h-1.22l-.07 2.37h-1.15V738l-2.42-.39-2.41-.02-2.44-.19.1 1.2-1.95.02.4-.63-.51-2.24.34-1.54-.4-.44-.22-1.02 2.4-3.66-.3-.62.35-1.2-.83-1.67-1.3-1.5-1.51-.8-.51-1.06-.73-.22-.5-1.06-.56-.09-1.36-1.5-1.35-.25-1.27-1.04.13-1.22-.84-1.19.06-.84-.34-1.35-1.23-.17-.11-.37-1.55-.36-1.64.26-.97-.64-.8-.07-.2-1-1.15-.28-.6-.8-.4 1.03-1.68-.15-3.16 1.32-.66.13.75-1.94.05-2.6.64-.83-.22-1.67-.02-1.9.66-1.32.8-.84-.05-.6 1.07-1.13-.22-.38.49-.69.8-.04v-.6l.79-.47-.14-.8.98-1.06-.24-.63-2.16-.38.33-.82h-2.65l-2.5.35-.74.3.07.67-1.6-.06-.03 1.17-1.5.1-4.32-.07v1.96l-2.86-.01-3.35.27.09.74-.25 1.6-3.75.09-.38-1.09-1.3-.36-.68-.61-.9-.01-2.3-1.22-1.38 1.07-.13.6.48 1.52-.39.78-1.32.43-.19 1.7-.97 1.33-1.18.63-.78-.28-1.03.12-.77 1-1.04.8-1.1-.66-.34-.79.63-2.44 1.1-1.93 2.44-2.34.33-.84-.18-.65.5-1-.54-.88-1.95-.17-1.62-.9-2.37.38-1.42.83-.48-.13v-3.56l-.68.62h-.83l-.03-4.96-1.16-.53-1.36.1-.63-.46-1.7-.43-.9-.84-.65-1.23-.8-.43-.57-1.2-.4.41h-1.31v-.88l-1.83.7-.6.53-.91-.07-1.15-1.93-.99-.53-.8.42-4.76 1.64-2.17 1.15-.9.84-.19.9-1.2 1.46-2.34 1.33-.64-.01-1.54.63-.34.38h-.91l-.88-.73-.7.57-1.33.24-1.3 2.87-.56.48-1.88 3.42-1.62 2.06-.9.36-1.1 1.32-.8.25-.25.55-1.14.6-.03.75-.95.93-1.56 1.78 1.5.88.93.22.6 1.06.79 1.95-.38 1.01.4 1.56-.76.58-.04 1.28.81.77.6.02.64 1.24.69.47.1 11.63.14 2.29-.22.25-12.97-.14-.59.03.03 5.93.97.22 1.48-1.64 1.04-.36 1.2.34.45.48 1.04.36 1.36.79.86-.04.42.77.96.54 1.13-.64.35.51-.23.93-.88.4-.46.69-.6 1.95.05.7-1.24 1.78-.25.09-.82 2.35-.13 1.25-.9 1.19-.48 1.26-.76.94-7 11.43-.04 1.1.38.07.87.94.32.83-.33.95-.87.5-.2 1.86-2 1.47-.4.5-.04 1.46-.89 1.35-.44 1.1.74 1.71-1.3 1.3-.06.5-.66.65-1 2.2.5 1.39-1.17.89-.13.7-.6.61-1.23.36-.54-.13-1.77.74-1.08.03-.83-.42-.5-.68-.88-.03-1.5.52-.38-.1-1.42.58-.66-.38-2.56-.4-.3.53-.92.12-.35 1.09.58.13.57.7.1.64-.18 1.54.21.71-.53 1.47.5.6-.38.65.33.85-.84.69-.73 1.3.6 1.05-.39.65.52.73-.58 1.16-1.59.88-.3.69-.87.25-.01.9-.72 1.75.54.54.27 1.14-.15.95 1.15 1.83.61-.4.56.31 2.75.21 1.1-.15 2.92.45.81-.2.8.23 1.6-.85.24.98 1.26.79.5.76 1.65-.2.84-.26.93-.68.57.3.44.9.82.21-.13 1.6.26.77.89 1.31 1.2.71.74-.36.97.63.8.8-.98 1.44.02.72 1.16.75-.06 1.03 1.61 2.07-.1.86.49 1.1.89.3.14 1.3.47 1.17-.27.63 1.07.76.48-.13.92.43-.12 2.75-1.12.9-.75-.26-.5.77-.19 1.16-.62.35-.32 1.6.03.7.96.97-.27 2.99-.64.5-.37.9-2.02.78-.55 1.1-.6.08-.74.74-.37 1.04.46.75 1.06.9.86.1-.11 1.3.43 1.2.56.28.32 1.77.93 1.78-.35.36-.3 1.99-.85 1.07-.05.47-.7.44.2.48-.56 1.44-.66.39-.05.6.55 1.6 1.02.68-.3 2.33 1.04.62.35.52-.18.98 1.21.66-.37.49-1.5-.09H69.97l-10.58-.09-4.5-.06-11.13-.24-.9-1.57-2.27-1.79-.3-.85-1.09-.36-1.4-1.43-.5-1.05-.8-.77-2 .03-1.6-1.06-.54-1.52-.57-.65-.58-.08-.8-1.17-.12-.66-1-1.51-.78-.34-.93-1.14-.24-.96-.8-.03-.36-.55.4-.75-.24-.87-.54-.79.69-1.96-.03-.86-1.2-1.46-.56-1.43-.1-1.02.8-.64-.52-1.15.35-.46.09-1.46-.63-.48-.88-2.02-.37-.1.07-1.63-.3-.84.04-1.27-.72-1.4-1.74-2.12-1.64-1.77-.06-1.2.37-.48.03-3.3-.28-3.05-.3-.52.14-.94-.98-1.35-.1-.82-.9.26-.64-.85.19-1.13.53-.7.3-7.03-.17-3.1.08-2.3-1.28-4.66.1-.8 1.39-2.57.22-.65-.13-2.96.38-1.85-.27-1.08 1.34-2.84 1.42-4.17.08-.85.8-3.07.33-2.19-.6-.63.15-.6-.79-1.65-.2-.96.02-2.07.26-1.35-.24-.34.02-1.19-.54-.3-.09-1.26-.39-.29-.53-1.27.48-.62-.4-1.42-.45-.61-.74-.29-1.47-1.12-1.98-.98.4-1.5-.24-.85-.72-.76.03-.46-.57-.85-.02-.9-.58-1.64-.4-.38.02-.72-.78-1.49-2.2-1.53-1.48.34-.2.56-.74.56-.41-.62.13-1.52-.85-4.2-.5-3.19-1.43-4.1-1-1.48-1.86-1.9-.86-.36 1.7-.7.92-2.28.56-.46.5-.93.25-1.23-.02-.97 1.1-.77 3.15-6.32 2.37-5.73 2.26-6.74.86-2.85 1.08-3.96 1.32-6.67.19-1.72-.25-.73.55-1.96-.36-1.23.19-1.14-.1-.77 1.27-1.84 2.76-9.82.8-4.44-.26-1.44.22-.73 1.62-7.83z"/>
    <path region="6" short-name="2" long-name="State Senate District 2" value="1" d="m209.5 738.63-6.06-.04-.76.9-.4-.22-.56.88-.08 3.02.22 1.48-.4 1.52.2.92v5.3l1.27-.04.03 3.64 1.22.01.02 3.41-1.87.03.06 2.43 6-.1.13 2.42-3.66.05.06 2.46h1.22l.02 2.42 2.4-.12.05 13.2-7.19 3.92-1.33.12-.61.5.17 1.26-.74.01v.6h-4.88l-1.06.29-.48.81.21 1.6.36 1.06-.12.74.3.52 1.08.5.1.66.74.65.48-.22.7 1.03 1.86.17 1.34 1.37.37.8.18 1.27 1.03 1.02h.32l1.58 1.78 1.46-.02.01-.67h2.95v-.29l.01 5.72-.1.24-3.36.01.01 1.8h.76v1.83l-2.7.02-.2.73-1.58 1.82-2.66.81-2.27.13v.76l-.82 1.16.01 1.1-.78.96.33 1.23-.05.71-.5.6-1.64.47-1.47.85-.3.9-.35 2.32-.89-.34-.72.03-.28.92-.6-.02-1.44.68-.47-.64-.62 1.76-1.85-.22-1.07.23v1.02l-.77.2-.62-.2-1.18-1-1.33-.42-1.05.23-1.3-.32-1.85-2.04-1.3-.18-2.06.26-.79-.11-2.03-2-.69-.52-.45-1.3-1.5-1.67.1 26.51-.24.05.01 4.85-.02 15.78-14.3.78-12.05-.22-9.04-.03-6.34.02-6.76.15-4.1.77-8.75-.32-10.3.3-1.28-.07.37-.48-1.21-.66.18-.98-.35-.52-1.04-.62.3-2.33-1.02-.67-.56-1.6.06-.61.66-.39.56-1.44-.2-.48.7-.44.05-.47.85-1.08.3-1.99.35-.35-.93-1.78-.32-1.77-.56-.28-.43-1.2.11-1.3-.86-.1-1.06-.9-.46-.75.37-1.04.74-.74.6-.09.55-1.09 2.01-.79.38-.9.63-.5.28-2.98-.96-.98-.03-.68.32-1.6.62-.36.18-1.16.51-.77.75.26 1.12-.9.12-2.75-.92-.43-.48.13-1.07-.76.27-.63-.47-1.17-.15-1.3-.88-.3-.5-1.1.11-.86-1.62-2.07.07-1.03-1.16-.75-.02-.72.98-1.45-.8-.79-.97-.63-.74.36-1.2-.7-.89-1.32-.27-.77.14-1.6-.82-.2-.44-.9-.57-.3-.93.67-.84.26-1.65.2-.5-.76-1.26-.79-.24-.98-1.6.85-.8-.22-.82.19-2.92-.45-1.09.15-2.75-.21-.56-.32-.61.41-1.15-1.83.15-.95-.28-1.14-.53-.54.71-1.75.01-.9.89-.25.3-.69 1.58-.88.58-1.16-.52-.73.39-.65-.6-1.06.73-1.3.83-.68-.32-.85.39-.66-.5-.59.52-1.47-.21-.71.17-1.54-.1-.64-.56-.7-.58-.13.35-1.1.93-.11.3-.52 2.55.4.65.37 1.43-.58.38.1 1.5-.52.87.03.5.68.83.42 1.09-.03 1.77-.74.54.13 1.23-.36.6-.62.13-.7 1.17-.88-.5-1.4 1-2.2.66-.64.06-.5 1.3-1.3-.74-1.71.44-1.1.9-1.35.04-1.47.38-.49 2-1.47.21-1.85.87-.51.32-.95-.31-.83-.87-.94-.39-.08.06-1.09 7-11.43.75-.94.48-1.26.9-1.19.13-1.25.82-2.35.25-.1 1.24-1.76-.06-.7.61-1.96.46-.7.88-.4.23-.92-.35-.5-1.13.63-.96-.54-.42-.77-.86.04-1.36-.79-1.05-.36-.44-.48-1.2-.34-1.04.36-1.49 1.64-.96-.22-.03-5.93.59-.03 12.97.14.22-.25-.14-2.29-.1-11.63-.7-.47-.63-1.24-.6-.02-.81-.77.04-1.28.77-.58-.41-1.56.38-1.01-.78-1.95-.6-1.06-.94-.22-1.5-.88 1.55-1.78.96-.93.03-.76 1.14-.6.24-.54.8-.25 1.1-1.32.9-.36 1.63-2.06 1.88-3.42.56-.48 1.3-2.87 1.33-.25.7-.56.88.73h.91l.34-.38 1.54-.63h.64l2.34-1.33 1.2-1.45.2-.9.9-.84 2.16-1.15 4.76-1.64.8-.42.99.53 1.15 1.93.9.07.6-.54 1.84-.7v.9l1.3-.01.41-.4.57 1.18.8.44.65 1.23.9.84 1.7.42.63.46 1.36-.09 1.16.53.02 4.95.84.01.67-.62.01 3.56.48.13 1.42-.83 2.37-.37 1.62.9 1.95.16.54.88-.5 1 .18.64-.33.85-2.44 2.34-1.1 1.93-.63 2.44.33.8 1.11.65 1.03-.8.78-1 1.03-.12.78.28 1.18-.63.97-1.33.19-1.7 1.32-.43.39-.78-.48-1.52.13-.6 1.38-1.07 2.3 1.22h.9l.68.62 1.3.36.38 1.09 3.75-.1.25-1.59-.09-.75 3.35-.27 2.85.02v-1.97l4.33.08 1.5-.1.03-1.17 1.6.06-.07-.68.74-.29 2.5-.36 2.65.01-.33.82 2.16.38.24.63-.99 1.06.15.8-.78.46v.6l-.81.05-.49.69.22.38-1.07 1.13.05.6-.8.84-.66 1.31.02 1.91.22 1.66-.64.85-.05 2.6-.75 1.93.66-.13 3.15-1.32 1.7.15.4-1.03.59.8 1.15.28.2 1 .8.07.97.63 1.64-.25 1.55.35.11.38 1.23.16.34 1.36-.06.84.84 1.2-.13 1.2 1.27 1.05 1.35.25 1.36 1.5.57.1.49 1.05.73.22.5 1.06 1.52.8 1.3 1.5.83 1.66-.36 1.2.3.63-2.39 3.66.21 1.02.4.44-.33 1.54.52 2.24z"/>
    <path region="7" short-name="3" long-name="State Senate District 3" value="1" d="M207.45 801.68h1.22v.9l.45.37.78-.36 1.23-.06.15.68-.17 1.55.52.8.69.53v.77h1.2v.78l.87.33.96.06.61 1.27h1l.08 1.22 3.75.02.01 2.4-.8-.18v1.32l-1.62.08v1.2l2.92.06 2.66.15 1.9-.06.02 1.93h2.42l-.01 2.42h10.74l5.94.27.86-.26 1.42.12 2.78-.16 6.64.08 8.15-.06 11.4.06 5.05.06-.03 14.31v12.63h-.31l.02 19.8-10.95-.24-4.7.19-9.47.04-6.86.1-10.59.41-9.67.14-12.44.01-9.39.06-19.01.11-2.33-.28-2.23-.04-5.46-.52-2.54-.1-4.71.5-5.82.3.02-15.78-.02-4.85.24-.05-.1-26.5 1.5 1.67.45 1.29.69.52 2.03 2 .79.11 2.06-.26 1.3.18 1.85 2.04 1.3.32 1.06-.23 1.32.43 1.18 1 .62.18.77-.19v-1.02l1.07-.23 1.86.22.62-1.76.46.64 1.43-.68.6.02.3-.92.71-.03.89.34.35-2.32.3-.9 1.47-.85 1.65-.46.49-.6.05-.72-.33-1.23.79-.97-.01-1.09.8-1.16.01-.76 2.28-.13 2.65-.81 1.58-1.82.2-.73 2.7-.02v-1.83H204l-.01-1.8h3.35l.11-.25z"/>
    <path region="8" short-name="27" long-name="State Senate District 27" value="1" d="m336.07 462.92 8.25-.04v-.1h12.51l2.3 2.17 3.43 1.35.68.54 7.39 12.08 1.11-.02 1.28-.3v1.18h1.32l-.04 1.23 2.5.19 2.86-.88 8.46.1.95.37.56-.17 1.04-.83 5.53.01 8.47 1.48 1.35.45 2.2 1.73 3.16.11 1.34.62 1.57.02v-1.24l2.8-.01.6.12.34-1.08h1.2l-.08 1.63h.8l.87 1.08 1.06.72 1.76.01v2.5l-.35 1.26-4-.02-.03 3.75-4.99-.03-1.51 2.88-.23-.93-2.94 5.3-2.93 5.87-1.06 1.97h.76v1.19h1.26v2.56h.58l.01-1.17h.61v-.96l1.31-.35v2.45l6.95-.03-.67.76-1.11.21-.35 1.6-4.87-.01v1.24h-1.25l.02 6.2 1.23.02-.02 2.48 1.24.05-.05 4.94-2.18-.02-.94-.34-.44.33-3.25-.01-.46.17-.15 1.1-2.27.24-1.49-1.5-4.84.01-.02-2.43-.59-.07.02-2.48-1.89-.03v-2.2l-.83.17-1.46.64-.47-.33.64-1-1.25.26-1.64.05-48.82.04.97-.4 1.23.09.09-.71.62-.83.9-2.3 1.17-.87.36-1.45.53-.43.14-1.47.26-.3-.1-1.17.25-1.22-.4-1.49-.18-2.74-1.4-1.48.25-1.94.66-.03.53-.62.1-.7-1-1.39.78-1.71-.08-.78-.92-.8.1-1.24-.61-1 .2-1.37.75-.54-.28-.98-.4-.19-.52-1.6-.02-1-.33-.8.1-.67-.96-.91-.42-.85-2.26-.42-.35-1.62-.37-.6.04-1.34-1.52-.73-.5-.45.48-2.34-.4-.9.2-.73-.25-1.47.32-2.68-.64-.97-.06-.74.8-2.04-.62-.6-.44-.88.5-1.04-.56-2.2z"/>
    <path region="9" short-name="29" long-name="State Senate District 29" value="1" d="m348.95 325.93-.94-1.04-.28-.96.05-2.33 1.48-.32.72-.8 1.83.1.33-.25.46-1.33 1.2-.72.22-.58.81-.38.6-.66.18-1.18.4-.6.08-1.25-1.03-.13-.89-1.15 7.48-.03 2.63.12 16.38-.13.15-2.56-.03-3.78.09-3.73-.16-5.32-.04-10.15v-5.6l-.04-8.32.04-3.93-.05-2.56 5.13.04v-2.36l.8-.22.97-1.4 10.28-2.02 3.23.88 2.4-1.79 1.25-.71 1.96-.71 1.35.15.33-.38.97-.1.97-.63 1.96-1.65 1.52-.95 1.25.32-.1-1.17 1.87.82 1.68.05.18.27h2.18v-.56h.97v-.64l.84-.5 2.54-.13v-.93l-.61-.46.53-.52-.22-1.52.83-.55-.37-.88 4.34-4.37 2.53-.82 3.8.27 3.23-.4 2.96.87.68-.18 3.07-1.3 1.12.05 3.77 2.9 2.2-.52 4.93-5.05 8.24-2.6 7.99-3.56 4.3-1.67 2.52-2.52 4.19-2.78 5.4-.12 3.92 1.45 4.62 5.03 2 1.74 2.9.99 9.67-.85 9.24-2.09 4.99-1.6.8-.2 8.81-.83 4.98-6.37 3.59-1.98 8.79-2.12 8.51-4.74 4.37-2.2 7.2-.67 3.86-1.17.97-.22 8.1-2.05 3.67.35 12.71-2 5.74-8.65 2.82-2.47 3.58-1.05 5.8 3 4.53.4 4.64-1.96 10.6-.75 5.17-2.06 8.06-1.2 3.88 1.28 3.73.87 3.21.04 5.35-.93 4.06-1.75 3.92-2.8 4.25-1.89 2.28-1.8 2.65-3.65 5.66-.13 18.83-.04 18.63-.03 17.36.06 22.47.03 3.88-.06 6.74.07 10.23-.05 2.45.07 15.95-.09 34.44.16 14.16.18 12.13.1 3.67.07 4.34-.13h6.07l4.55.4 2-.4 15.44.06 17.6.14 2.3.12 8.08-.02 5.58.12 3.05.15.56 1.16 1.35 1.08.94 1.15-.22 1.18.46 1.72 1.29.27.55.73.04 1.67.64 2.23.1 1.53.39 1.21 1.14 2.27 1.7 2.11 1.67 1.04 1.96 1.57 2.23 3.38 1.02 2.52-.07 2.18.7 1.17 2.38 1.55 1.53-.34 1.82-1.36 3.01-.01 1.7.96 1.37 2.57.84 2.25 1.83 2.05.7.36 1.64.03.83-.26.94-.65 3.33.7 1.49.44 4.14 4.13 1.58.74 1.35 2.96-.29 3.42.33 4.1.88 1.8 1.96 2 3.02 3.6v.97l.67.78-.04 1.11.86.34.56.7-.2.5 1.16 1.6-.02 2.3-.99 1.61-1.12 1-.33.95.06.98-.9.45-1.54 1.39-.15 1-.8.73h-.87l-1.04.54-.3.67.58.58-1.46 3.8-1.03 1.91-1.58 1.4-.12.54.54 1.28-.7 2.6.48 1.47.02 1.74-1.13.48-2.15 1.97-.84 1.07-.52 2.74-.62 2.56-2.67 2.56-4.22 8.28-2.53 5.2-.1 1.25.3 4.46-.29 2.2-.8 1-.75.5-1.06 2.19-.37 1.72-.56.83-.13 2.25-.68 1.88.15 1.73-.12.76-1.81 5.52v1.5l-.4 1.2-.17 2.04-.3.78-1.77 1.2-.13 1.44-.77.54-.22 1.36-2.5 1.48-.94 1.7-.21 1.34.05 1.73-29.48-.16v-.1l-8.52-.08-21.51-.07h-12.61l-1.7.1-22.4.1v7.57l-.07 7.55-22.67.08-3.68.04-.85-.61.02-1.4.74-.69-.44-1.04-1.09-.22-.66-.63.32-1.28-.7-.6-1.66-.53.02.83-.7.28-1.2-1.3-.13-.74-.64-.79-.86-1.5-.3-1.36-1.28-.34-.54.12-.48.91-1.4-1.08-.96.2-.52.5-.14 1.27-1.01.74-.32.98-1.1 1.64-1.53 1-.38.94-1.26.96-.67.15-.4.6-1.5 1.1-1.97 1.24-2.1.23-2.18-.04-1.59-1-1.49-.5-1.09-.1-1.81-1.54-.71.04-1.48-.75-1.35-1.53-1.05-1.41-.39-1.31-.82-.64-1.43-.36-.63.3-1.83.03-.92.88-.42 1.08-.15 1.07-.74.17-.8.78-.03.6-.73.54-2.92-.64-1.26.36-1.49 1.24-.68.86-.17 2.81-.66.3-.56 1.45-.45.44-.55 1.17-.04 1.61h-1.6l-.76.76-1.13-.05-.33-.4-.86.28-.73-.1-.3-.67-.97-.58-1.57.77-.46-1.38-1.14-.52-.86-.76-.7.7-.6-.08-.28-.6-.9-.66-.94-1.3-1.2-.2-.38-.72-.59.27-.82 1.45-1.25.2-.68-.42-.5 1.07.09.9-1.9-.46-2.45 1.96-1.36.24-.4-.67.28-.94-.18-.95.15-1.34-1.06-.35-.27-.67-.59.23-1.4-.09-.6-.33.03-.6-6.15-.13-19.34-.3-33.47.03-6.87.16-19.83.05-17.66.1-.07-.06-29.37.06-1.03.06h-5l-1.26.14-7.83-.02-.64-.08.1 29.93h2.35l-.1 10.55-.02 19.18-.06 20.47.02 12.6v12.46h-.17l-.05 14.18-30.05.07-.04-14.32-7.54.02-1.25.09-3.71-.02-2.48-.1-.12-8.49-15.04.18-27.51.13-2.42.16.03-7.01h-.17l.08-15.13.1-2.53-.08-12.9.08-18.78-.3-.35.04-1.16-1.33-1.23.48-1.58-1.23-1.16.67-1.24.63-.5.39 1.2 1.19-.85.29-.98-.72-.12-.15-.69 1.02-.18-.36-1.03 1.14-.67-39.26-.12-28.85-.09-1.02 1.32-.4 1.78-.46.72-1 .9-2 2.2-.57 1.08-.88 2.97-.9.43-.69-.53-2.18-1.03-.8-.06-.76.85-1.25 2.07-.72 1.56-.87.79-.42.77-.49 1.93-.42 1-5.7 8.82-3.78-.04.04-2.52h-2.25l-.9-1.75.01-.77-8.5.05.4 3.12-.38.66-2.39-.3-.63.58-.16 1-1.04.96-1.16 2.25-.13 1.17-1.24 1.52-1.1.07.64 2.18.57 1.02-.17 1.65-.75.16-.93 1.36-.79.1-.95.75-1.3.55-1.23.12-1.96-.72-.67.2-2.6.16-1-.74-.35.07-2.2-.67-1.83.13-1.5-.26-.7.16-.31 1.42-.6.11-.4-.82-.86-.63-1.01-2.47-1.02-1.45-1.3-.63-.37-.66-2.14-1.37-1.1-.98-.95-1.31-.64-.3-.12-.8-.97-.51-.03-.7-.7-.22-.63-.91-1.05-.5-.17-.6-1.16-.81-1.24.27-2.28 1.5-.47.74-1.03.05-.87 1.35-1.35.71.09.79.81.82.35 1.47.86 1.88-1.15 1.48.22.85-.8 2.22-1.22 1.28.2 1.41-.58.79-2.06.97-1.5-.5-1.43-1.3-.6-1.3-.87-.78-.65-1.66.14-1.43-.23-1.35-.5-.87-.95-1.02-1.61-1.27-.7-1.14-1.94.3-.61-.22-1.83.58h-1.96l-1.7.84-.97-.9-.64-.96-.85-.15.01-.96-.43-1.38.09-4.43-.15-.98.34-1.6-.5-2.23.82-.8.23-1.84-1.05-.54.33-1.12 1.06-1.88.38-.27.14-3-1.22-.64-.23-.4-1.09.21-.74-.29-.07-.7-.57-.58-1.94-1.38.02-.48-1.1-.81-.8-1.26-1.64-1.55-.73.26-.22-1.31 3.46-3.39 3.05-.43-.22-1.69-.9-1.63-1.44-1.28.44-.67 1.28-.07-.87-.78 1.66-1.27 1.49-.85h5.1l.5-4.4 1.1-3.41-1.25-1.86-1.2.24-.93.82-1.22.08-.8-.48 1.16-1.36.14-.9-.68-1.08-.6-2.43-.51-1.04-.41-2.74.04-1.3-.31-1.13.15-1.18 1.38-.8 1.4.39.38-1.93-.37-1.3.39-.62.98-.45 2.3.64.33.36 1.04-.06 2.2-17.92-.84-.97-1.15-.6-.44-.57-.29-1.56-.42-1.27.97-.99.4.63.57-.25-.07-1.06z"/>
    <path region="10" short-name="7" long-name="State Senate District 7" value="1" d="m158.41 499.09.15-.41h.96l-.59-.9 3.45-.51 5.17.05.75.5.23 4.7.18 4.89.56 1.14 6.4.1-.13-.52 2.17-.2.03-1.89.68.51.07.91 1.07.47.43 1.3.91-.07 2.52 1.36.86-.39.8.33.79-.07 1.84.87.16.98-.68 7.56-.8-.09-2.74.06-.79.3-2.87-.86-1.17.55.97.74.56 1.22-1.63.04.04 5.4-1.71-.34-2.16.78-.9-.44-1.27-1.38-.85.88-.79.2-.7.58-.31.7-.85.17-.3 1.12-.95 1.01-2.36.35-.7-.36-1.05-.01-.23 1.14-.9.03-1.65-.84-.13 1.16.01-.76-1.4.01v-1.14l.84-.65.48-.9-.18-1.17-2.33.3v.79l-6.97-.02.02.81-.95.5h-1.04v-1.3l-1.84.03-.02-2.5-1.24-.02.2-1.59-.54-.97-.77-.12 1.4-.97.82.03.1-1.48-.1-2.54-.72-.3v-.73l1.52-.08 1.12.34.54-.36 2.23-3.31.55-1.7 1-5.32.35-.45 1.3-2.7.36-1.01 1.31-1.47.89-.58z"/>
    <path region="11" short-name="8" long-name="State Senate District 8" value="1" d="m154.22 406.22 9.42.01.63-.04 10.64-.01-.18-1.29.48-.69 1.6-1.23-.19-1.23-1.57-.99-.06-1.58.31-1.68 1-.88.6-.8.19-1 .63-1.06.51-.36 2.46-.65.8-.58.46-1-.17-1.3-1.54-1-1.57-.52-.95-.57-.68-.07-.15-2.77h1.35l.12 1.15h.89l.19-.68-.04-2.29.97-.62.66-.9.05-1.15.33-.13 4.3.05-.02.64-.26 1.25.28.86-.05 1.05h.5l.87.65 1.25-.1 1.15.51.17 1.31-.09 1.44.76 1.32-.82 2.64h2.6v4.95h1.22v-1.27l3.94.03.18.68.01 1.85.25.49-1.32 1.16-2.74-.13v1.38l-2.23.03.66.95.01 2.8-.6 1.4.16 1.2-.6 2.44.34.82 1.03 1.07.84 1.24.38.95 1.12.57v.71l.8.88-.99 2.8 1.26.42-.38 1.2.1 1.35h-.7l.07 2.85v4.69l-2.19-.02.02.77h1.05v1.78l-1.47.03v2.74l-10.18-.05.15 3.78-5.04-.02v-1.51l-1.36 1.45-.7.33-6-.04-.67-.25-1.1.04-.39-.39-1.13-.25-.48.34.5 1.93-.71 1.38-.38-1.04-.86-.93-1.48.35-.41-.5-.59.65-1.22-.12-.08 1-2.07.02.02 1.39-.37.49h-1.15l-.82.3-.93.73-.07.95-2 .02-1.14.3.01-4.46.4-.76v-2.14h-.22l.03-3.07.35-1.22-.2-1.06-2.62-.04v-.8h-1.56l-.3.27-.03-8.55 2.47-.08-.02-5h-.12l.05-7.6h4.3z"/>
    <path region="12" short-name="26" long-name="State Senate District 26" value="1" d="m228.13 305.13.5.36 1.09.12 1.12-.62 1.3.18.68 1.3 1.52 1.15.48-.15.36-.82.02-1.09.54-1.35.12-.94h6.02l.45-1.5.74-.22.53.5.63-.4.92-.1-.34 1.48 1.35-.38 2.3.15 1.22-.16v-1.27l-.64-.6-1.57-.02-.36-.8-.05-1.47-1.11.03-.54-.93-.09-1.23-.37-1.94.17-.63 2.26-.04.64-.86 1.04.15 2.42-.34 1.36-.92.02-1.73.83-.36.67.12 1.07-.4-.08-.77.8-.2.8.43.37-.33 1 .02.36 1.28.5.33 1.9-.06 1.25.17 1.04-1.09 1.49.29 1.3 1.75.66.06 1.12-1.32.93.81 1.48 1.61 4.53-2.75 4.55-2.95.12-.7-2.2-1.8-7.28.05.38-2.06-1-.1v-2.29h2.92l-1.95-1.91-1-1.24-.82-1.06.23-1.05.59-.1-1.25-1.58 2.04-.38.5-.9-1.27-.12.01-1.4-.82-1.05v-.4l1.5.08 1.11-.8-.57-.55.55-.87.14-2.29-.4-.87-1.15-.66-.9-1.34.55-1.11-.98-.73-1.28-2.16 1.16-.61 1.42-.25 3.4 1.15 2.62 3.73 4.52.83 3.48-.05 2.18-.69 5.84-2.89 2.22-2.39 5.3-1.2 3.5.55 1.33-.37 7.07-4.59 2.69-1 2.33-.13 2.55-1.22 2.4-1.76.97-1.9.48-.24 2.06.13 3.31-1.8.92-1.35-.12-1.53 4.28-3.99 6.9-2.38 9.4 2.25 3.42-.14 4.81-1.81 4.6.07 12.1-3.87 1.16.3 3.03.71 4.48 3.44 4.84 1.3 2.7.2 3.6-1.8 4.3-.33 3.15.89 3.07 2.28 4.46 1.52 4.37 1.27 1.9 3.78.63 3.58-.16 2.26 1.57 1.81 1.97.06 2.76-.31.74-.72.93.39 1.01-.93.22 1.52-.53.52.62.46v.93l-2.55.12-.84.51v.64h-.97v.56h-2.17l-.2-.27-1.67-.05-1.88-.82.11 1.17-1.25-.32-1.52.95-1.96 1.65-.96.63-.98.1-.33.38-1.35-.15-1.95.7-1.26.72-2.4 1.79-3.23-.88-10.28 2.03-.97 1.4-.8.21v2.36l-5.13-.04.05 2.56-.03 3.93.04 8.31-.01 5.6.04 10.16.16 5.32-.09 3.73.03 3.78-.15 2.56-16.38.13-2.63-.12-7.48.03.9 1.15 1.03.13-.08 1.25-.4.6-.19 1.18-.6.66-.8.38-.22.58-1.21.72-.46 1.33-.33.25-1.83-.1-.72.8-1.48.32-.05 2.33.28.96.94 1.04-7.1-.07-11.51.03-.3.28-.41 1.97-1.93-2.24-11.24.07-.18-24.96h-12.66v-3.77l-5.18.05.07 4.98-2.54.06-.05 5.04-4.43.05-.03-.64-.53-.59-7.1.02-1.47.1-.03 2.67-1.6-.02-.01.67-2.17.02-.3.78-.8-.52-.31-.76-1.43-1.09-1.66.25-.6.89.65 1.75.5.36 1.05 1.6.38 1.04.58 2.68-.21.65-1.86.86-1.34-.15-1.28.47-.26 1.74-.35.86-1.02.55-1.5-.3-1.81.5-1.13-.25-.46.28-.93-.14-.4-.37-1.74-.67-.46-.79-4.53-.1-.03-.65-.68-.53-1.06.76v.43l-3.88-.02-.65.44-1.42.36-1.22-.21.3-2.18-1.79-.08-.46.34-1.57.09.04-.7-.78-1.14.13-1.27.34-.76-4.92-.01-.49-.14-.36 1.28-.9.13-.73-1.27h-1.26l-.78.91-1.44-.43-.46-.6-1.4.23-.91-.7-1.16-.07-.2-.99-.91-1.06.38-.89.04-2.47-.76-.93-.88-1.13z"/>
    <path region="13" short-name="13" long-name="State Senate District 13" value="1" d="m204.55 296.86 2.2.02.71-.15-.28-1.73.11-.69.68-.11 1.65-1.75v-1.9l1.4.16.53-.48.03-6.06h-.62v-1.31l1.05-.18 1.06-.9 2.34-1.4v-2.6h1.9l.64 1.85 1.52-.68.68-1.54 1.02.63.43-.31 3.34.02-.04 8.57-.38 1.6-.84-.55-1.05.26-.26.93-2.22-.93-1.08.23-1.58.75-.3.58-.95.07-.48.9.44 1.33 1.1 1.3-.02.9 1.39-.02.14 1.04-.23.92.17.89h1.08l.02 1.35h2.52l.12.84h1.15l.01 1.92 1.27-.02v1.28h.7v.79h-.7l-.02 2.4 1.97-.48 1.26.53-.68 1.38.88 1.13-.2.3-1.5.13-.08 1.2-.87 1.58-.85.5-.01.61-4.96.1-.02-2.51h-6.15l-1.48 2.19-1.49 1.17-1.03.3-1.7-.32-1-.47-1.3.14-1.6-1.67-1.07-.34-1.34-.06-1.4.16-.18-2.17.04-1.78.73-.77h1.02l.58-.64v-1.46l-.29-.98 1.33-.3 1.03-.65z"/>
    <path region="14" short-name="4" long-name="State Senate District 4" value="1" d="m160.95 531.9.13-1.15 1.64.84.91-.03.23-1.14h1.04l.71.37 2.36-.35.94-1 .3-1.13.86-.17.31-.7.7-.57.79-.21.85-.88 1.27 1.38.9.44 2.16-.78 1.7.34-.03-5.4 1.63-.04-.56-1.22-.97-.74 1.17-.55 2.87.87.79-.31 2.73-.06.8.09.69-7.56-.16-.98 1.47.64-.18 1.98.29.55 1.82.93-.13.87-.97 1.03 1.19.48 1.25-.63 1.27-.17 2.21-.49.86-.54.4 1.27.54 1.02.87.38.48.54.84-.74 1.83-.53h.8l1.1.59 1.5-.04.68.5.87-.42 1.5-.18 1.03.4-.1 1.46-.3.3-.12 1.14-.5.3.03 1.44-.42.7-.62-.04-.3 1.15-.02 1.8-1.9.22-2.4-.05-1.3-1.28-.98 1.12-.74-.43-1-.17-.83.25-.98-.73-.91.43-.51-.8-2.02.29-1.46.83-1.15-.27-.82.08.39 1.75-2.42-.23-.75-.27-.75-.87h-1.22l-.49-.46h-1.4v.54l.68 1.84.13 1.02-.5 1.56 3.61.05.02.78.85-.1 1.43.57.08 3.21 2.07.18v.76l-.46 5.64h-.85l-.2.71h-1v1.48l.27 1.22h1.3l.25.85-.52 2.1.05.56-.8.92-.27 1.45h.52l-.5 1.28-1.25.05.13 1.45.45.26-.47 1.22-.95 1.35.53 2.78-.32 1.03.11 1.28-.49.85-1.45.37-.82-.7-1.34-.72-.66.12-.58-1.3-.6.4.06-2.69-.51-.66.33-.93-.87-.02-.02 1.24h-.64l-.02-2.48-2.44-.04-2.44.07 2.39-4.43-1.14-.68-1.4.08-1.38-.84H170l.07-6.08-4.92-.02-.02-1.28-1.12-.02-.01-3.95 1.23-.12.03-3.82h-4.34z"/>
    <path region="15" short-name="12" long-name="State Senate District 12" value="1" d="m185.54 286.54 1.26.03 2.53-.04-.02 2.48h2.6l-.05 2.55 2.5.16v2.52l2.6.06.01 2.51 7.58.05v5.04l-1.04.66-1.33.3.3.97v1.46l-.59.64h-1.02l-.73.76-.04 1.79.18 2.17-.77-.12-.94-1.83-.62-.9-.65-.22-.88.9-.29 1.17-1.72.98-1.02 1.08-.28 1.17.31 2.13.45 1.53-.53 1.8-.52.27-2.74-.18-1.18.07-.68.35-.97 1.07-.26.6.64 1.78.57.39 1.56-.53 1 .36.21 1.86.43 2.14.94 1.06.87 1.13-.82.88-1.31-.57-1.35.33-.53 1.23.1 1.26.53.93 1.61.8.64 1.3 1.09 1.06.57.98-1.13 1.15-.55.98-1 .79-1.17.07-1.05.5-1.23 1.49-2 1.14-.66.65-.13.71.34 1.2-.37 4.63-.57 1.78-.25 2.93.45.98.8 3.17.07.86-.52.26-2.81.06.02 4.03-2.27-.04-.28.32v2.22l2.1.08-.18 1.17.62.28 1.25.06v1.41l-1.77-.61-2.16.33-3.32-.27-.68.67-1.72 4.01-.5.66-1.66 1.33-1.2 2.38-.03 1.43h-1.46l-.26.88-.73.62-3.85-.15.04.72-1.1.33.23 1.41-.06 1.26.81-.01-.09.89 2.21-.05 2.18-.47v.82l2.96.02.78 1.03.91.3 1.48-.27.65.65.68.2 1.48-.2.68.07.95.57 1.57.52 1.54 1 .17 1.3-.46 1-.8.58-2.46.65-.5.35-.64 1.08-.2 1-.58.8-1 .87-.32 1.67.06 1.6 1.57.98.2 1.23-1.61 1.23-.48.7.18 1.28-10.64.01-.63.04-9.42-.01-19-.13-8.73-.1-4.9.33-2.66-.3h-12.57l-.02-3.1-2.52-.01-.02-4.4-.03-21.17.07-4.48.03-15.53h-.14l.13-7.62.04-5.66-7.36.03-.06-2.1.04-9.8-.17-2.63.17-2.4v-5.02l-.05-2.49h5.29l10.72-.05 1.3-.09h3.75l.93.1 15.23.07 2.4-.03.05-11.2.1-10.19-.22-6.37-.2-7.53.1-2.8 31.55-.07 7.08.03.2.7 1.4-.33.53 2.2h2.46l.01 2.55z"/>
    <path region="16" short-name="28" long-name="State Senate District 28" value="1" d="m209.5 738.63 1.95-.01-.1-1.21 2.44.19 2.41.02 2.43.39v-2.44h1.14l.07-2.38h1.22l-.02-3.7 2.36.03v.92l2.43-.05v-2.38h2.43v-2.44h2.43v-2.43h2.45v-2.44l4.87-.01-.01-2.67 1.99.03 2.64.19v-2.6l2.5.05v-2.33l2.43-.01v-2.44l4.89.01.02-.11 7.44-.02v-2.44l2.44-.01v-2.45h2.42v-2.45h2.44l.1-2.22 14.51.02.02-12.03h25.46l-1.82-1-.34-.44.2-1.78.64-.79.04-1.51.5-.73-.1-.64.43-1.25.32-.3.25-1.5.81-.77.44-.78.1-1.3-.34-1.1.26-.43 1.41-.93.15-1.12-.22-1.28.72-1.09 1.15-2.2-.24-1.03.85-1.73-.82-1.48 1.55-.55.6-.8.91-.4.64-1.3.94.07 1.28-2.4v-.47l.93-1.05 1.22-.62-.65-.7-.89-2.12-1.67-.69-.61-.72-.31-.86.04-1.72 1.13-1.33-.3-.6-1.3-.92-.45-1.05.82-1.32.13-.92-.49-1.4-.72-1.2-.47-1.59-.9-.19-.6-.9-1.02-.64-.29-.51-1.44-1.05-.76-2.35.4-.56-.62-1.35-.4-.08-1.7-1.27-.43-1.38-.41-.18-.67-.96-.4.68-1.2-.77-.66.13-1.09-1.08-.98.03-.43-.85-1.07-.8-.82.42-.7-.88.83-.55.11-.68.83-.04-.23-1.97.64-.3.54-2.82-.32-.83.6-1.18-.23-.5.1-1-.34-.8-1.56-.54-.54-1.21.56-1.32.6-.4-.33-1.08.8-1.26.66-2.17.82-.8.94-.08 1.25-1.16.37-.9.86-.01.38-.79.84-.06.5.33 1.53-.68-.16-1.04.89.06 1.8-1.23.25-.56 1.08-.63 2.34-.86.38-.56.74.1.97-.9.37-2 2.85.1 1.07-.1-.77-1.58-.73-.7-.63-2.19-.08-1.56.64-1.93.35-2.56.59-.58.13-.98.64-1.21-.78-.34-.2-.76.25-.88-.63-1.47.56-1.06-.18-.89-.75-1.21.69-.69.68-1.68 1.07-1.18-.94-.62.02-1.26.79-.68-.6-1.42-.13-2.39.5-.5.08-1-.5-.51-.96.03.25-2.5-.53-.23.32-1.25.1-1.23-.2-.52.11-1.97.27-.61.93-.8 1.54-1 .09-1.1.87-.68.35-.72 1.22-1.36.12-.82-.97-.32.97-.8.4-.63 2.76-.71.54-.44.38.62.86.62 1.8.14.92-.69.44-1.56.06-1.94.47-.6.08-1.24.36-1.97-.21-1.2.32-.64 1.44-.33 1.07-.7-.84-.37.05-.97.72-.61.49-1.45.77-1.11.63-2.54-.66-2.13-.08-.75-.89-1.35 1.7-1.87.17-.51 48.82-.04 1.64-.06 1.25-.25-.64 1 .47.33 1.46-.64.82-.18.01 2.21 1.9.03-.03 2.48.59.06.02 2.44 4.84-.01 1.49 1.5 2.27-.25.15-1.09.46-.17h3.25l.44-.32.94.34 2.18.02.05-4.94-1.24-.05.02-2.48-1.24-.02-.01-6.2h1.24v-1.24l4.87.01.36-1.6 1.1-.2.68-.77 3.07-3.44-.12 1.05 2.48.02 2.14-.1 2.37.12.68-1.33 1.02-1.16 12.98.64.04 14.85.04 14.89 8.46.25.1 13.83.15 15.34 5.26.01-.02 15.76.01 13.08.21.76-12.73.03v-.35l-44.19.13.05 24.45.02 19.78-1.98-.02-.1 41.51v3.68l-.25 28.68h.1l.06 14.5.04 14.67 26.88-.02 16.69.07v.45l12.02-.02 1.97-.07.15 43.21.2.55v9.15l.08 71.93-.01.52-7.44.05-4.96.08-5.15-.05-7.26-.33-11.5-.32-15.2-.02-5.88.19-11.18-.19-19.2-.3-12.79-.24-13.12-.26-17.13-.28-2.17.06-9.52-.2-1.57-.1-11.95-.21-2.4-.12-11.99-.06-3.59-.08-.02-19.8h.3v-12.62l.04-14.31-5.05-.06-11.4-.06-8.15.06-6.64-.08-2.78.16-1.43-.12-.85.26-5.94-.27H228.3l.01-2.42h-2.43l-.02-1.93-1.89.06-2.66-.15-2.92-.05v-1.2l1.61-.1v-1.3l.81.17v-2.4l-3.76-.02-.09-1.21-.99-.01-.6-1.27-.97-.06-.87-.33v-.78h-1.2v-.77l-.7-.52-.5-.8.16-1.56-.16-.69-1.22.07-.78.36-.45-.36v-.9h-1.22l-.01.29h-2.95v.66l-1.47.02-1.58-1.78h-.32l-1.03-1.02-.18-1.27-.37-.8-1.34-1.37-1.85-.17-.71-1.03-.48.22-.75-.66-.09-.65-1.08-.5-.3-.52.12-.74-.36-1.06-.2-1.6.47-.81 1.06-.29h4.88v-.6h.74l-.17-1.28.61-.5 1.33-.11 7.19-3.92-.05-13.2-2.4.12-.02-2.42h-1.22l-.06-2.46 3.66-.05-.13-2.42-6 .1-.06-2.43 1.87-.03-.02-3.4-1.22-.02-.03-3.64-1.27.04v-5.3l-.2-.92.4-1.52-.22-1.48.08-3.02.57-.88.4.22.75-.9z"/>
    <path region="17" short-name="14" long-name="State Senate District 14" value="1" d="m213.1 266.86-.08-2.26.26-.2 3.77 2.01.16-1.08 1.34-.26 1.38-1.24 2.44.03-.02 4.87.95.06 2.02-.5 1.81-.15 1.3.54.66-.15.43-.63 1.12-.88 1.24.23 1.01.52 1.08-.26.66 2.1-.97.1-.07 1.37-.68 1.14.18 2.66-.23.26-1.32.02-.39.48-2.84 2.26-.58-.11-2.8-.04-3.33-.02-.43.3-1.02-.62-.68 1.54-1.52.68-.64-1.86h-1.9l-.64.31v-2.22h-1.03l.27-1.02-1.13-.78-.07-1.42 1.95-.33v-.66l1.54.23 1.16-.03 1.47-.4.1-1.45-1.2-.16-1.9-1.02-1-1.22z"/>
    <path region="18" short-name="22" long-name="State Senate District 22" value="1" d="m218.6 248.76.33-.06.44-2.33 2.15-2.1 1.1-2.04 3 2.17 3.06 1.18 2.75 2.24 1.98 1.19 3.83 1.46 5.1.37 2.62.65 3.85 1.2.7 1.97-.04 1.63-.59 1.04-1.59 1.6-.67-.17-2.58.01-.54.48v.8l-4.62.04v3.75l-.8.64-1.36.07-1.54.74-1.03-.34-1.12-1.35-.63-.46-1.83-2.19-2.33-1.25-2.39-1.96-.17-.53-1.17-.96 1.38-1.65-2.34-.69-.7-1.1-.7-1.74-.51.97-.84.5-1.69-3.79z"/>
    <path region="19" short-name="25" long-name="State Senate District 25" value="1" d="m248.84 252.7 3.25 1.32 3.87 1.12 2.17.88 2.57 1.93 1.87.66 3.46-.71 1.17-.61 1.28 2.16.98.73-.54 1.11.89 1.34 1.16.66.4.87-.15 2.29-.55.87.57.55-1.11.8-1.5-.07v.4l.82 1.04-.01 1.4 1.28.13-.51.9-2.04.37 1.25 1.58-.6.1-.22 1.05.83 1.06-3.87-.05-3.64.1-2.8-.02-.1-3.69-.96-.83-.04-.63-1.12-.34v-4.73h-1.78l.09-2.56h.3l.03-1.54.46-.05.04-1.24 1.79.15.53-.19-.01-1.56-.29-.35-4.3-.94-1.95-.51-2.34-1.36.04-1.63-.7-1.98z"/>
    <path region="20" short-name="9" long-name="State Senate District 9" value="1" d="m185.69 381 1.3.01.01.62 2.49.23.04.35 1.82.14.55-.46 1.13-1.82.32-1.03.37-2.16 1.34-1.37.15-1.08-.47-2.22 3.19 1.4.62-.64-.22-.87.67-.43-.54-.9-.09-.76h-.83l-.2-1.45-.82-.58.05-2.48.33-.08.03-2.71-.32-.46v-2.34l-.36-.13.06-1.28.65.07.31-.6h1.35l-.48-1.3-1.93-.02.04-.79 1.53-.63.22-2.44.45-.12v-1.57l-.64-.25 1.01-1.57 1.29.5.01-.6-.99-.39 1.9-3.24 2.1-2.03 2.2-2.78 2.74-2.62 1.72-1 .93-.73.81-1.26 1.49-.02.32-1.47.43-.83.49-.19.88-1.58.23-1.1-.13-.7-1.96-.02-.43.24-2.56-.07-.76-.38-.62.73h-1.28l-.47-.67-1.04 1.38-2.62-1.13-.12 1.75-3.09-.14.63-1.06-.02-1.31-1.07.31-.29.83-1.07 1.53-1.79 1.99.1.7-.77-.01v-1.43l-.84.1.02-.99-.57-.48.05-1.9h.8l.1-1.62h-3.23l-.94-1.07-.43-2.14-.2-1.86-1.01-.36-1.56.53-.57-.39-.64-1.78.26-.6.97-1.07.68-.35 1.18-.07 2.74.18.52-.27.53-1.8-.45-1.53-.31-2.13.28-1.17 1.02-1.08 1.72-.98.3-1.17.87-.9.65.21.62.91.94 1.83.77.12 1.4-.16 1.34.05 1.06.35 1.62 1.67 1.3-.14.98.47 1.71.32 1.03-.3 1.5-1.17 1.47-2.18 6.15-.01.02 2.5 4.96-.09.01-.62.85-.49.87-1.59.09-1.2 1.49-.12.2-.3.77.93-.04 2.47-.38.9.92 1.05.18.99 1.16.08.92.7 1.4-.23.46.59 1.44.43.78-.9h1.26l.73 1.26.9-.13.36-1.28.5.14 4.9.01-.33.76-.13 1.27.78 1.15-.04.69 1.57-.09.46-.34 1.8.08-.3 2.18 1.21.21 1.42-.36.65-.44 3.88.02v-.43l1.06-.76.67.53.04.65 4.53.1.46.8 1.74.66.4.37.93.14.46-.28 1.12.24 1.81-.49 1.51.3 1.02-.55.35-.86.26-1.74 1.28-.47 1.34.15 1.86-.86.21-.65-.58-2.68-.38-1.04-1.05-1.6-.5-.36-.66-1.75.6-.89 1.67-.25 1.43 1.1.3.75.8.52.31-.78 2.17-.02v-.67l1.61.02.03-2.67 1.48-.1 7.1-.02.52.59.03.64 4.43-.05.05-5.04 2.54-.06-.07-4.98 5.18-.05v3.77h12.65l.19 24.96 11.24-.07 1.93 2.24.4-1.97.3-.28 11.51-.03 7.11.07.66.96.07 1.06-.57.25-.4-.63-.97 1 .42 1.26.29 1.56.44.58 1.15.59.83.97-2.2 17.92-1.03.06-.34-.36-2.3-.64-.97.45-.4.62.38 1.3-.39 1.93-1.39-.4-1.38.8-.15 1.19.3 1.13-.03 1.3.41 2.74.5 1.04.61 2.43.68 1.08-.14.9-1.16 1.36.8.48 1.22-.08.93-.82 1.2-.24 1.25 1.85-1.1 3.42-.5 4.4h-5.1l-1.49.85-1.66 1.27.87.78-1.28.07-.44.67 1.45 1.28.9 1.63.21 1.69-3.05.43-3.46 3.39.22 1.31.73-.26 1.64 1.55.8 1.26 1.1.81-.02.48 1.95 1.38.56.58.07.7.74.3 1.1-.21.22.4 1.22.63-.14 3-.38.27-1.06 1.88-.33 1.12 1.05.54-.23 1.85-.82.8.5 2.22-.34 1.6.15.98-.09 4.43.43 1.38-.3 1.8-1 1.9-.31 2.4.5.1.98 1.49-.2.85.63.45.16.63-.37.88-.39 2.18.1.57-.32 1.17-44.26.05-.64-.04-11.8-.02-.18-.03-.12-15.3-7.65.18.05 1.94-.08 4.74-.07.43.2 2.46.04 3.75.17 2.62-24.98.21-1.52-.07-7.62-.06.08-11.24.03-11.56-3.8-.06.05-2.22 1.07.02v-1.2l-.42-.01-1.27-1.29-1.2-.39-1.54-1.1-.81.23-.7-.35-1.06-.08-.29 1.11-1.46.01-.63-.65-1.76.12-.03-.59-6.55.09.06 1.05-7.63.01.06-3.98-1.24.03-.06-4.21-.92-.7-.7.3.18.89-.32.9-.8.55-1.09.15-.15-1.35-1.88.04-3.18 2.14v-.76h-2.83l-1.21.81.22-1.75-3.27-.03-.26-.49v-1.85l-.18-.68-3.95-.03v1.27h-1.22v-4.94l-2.6-.01.82-2.64-.76-1.32.1-1.44-.17-1.3-1.16-.52-1.25.1-.87-.64h-.5l.05-1.06-.28-.86z"/>
    <path region="21" short-name="20" long-name="State Senate District 20" value="1" d="m238.28 287.96.83-.16 1.38-1-.62-1.6 1.15-1.13.13-.55h.77l.76 1.04h.81l.01-1.22-1-.82.34-.6-.1-1.13.04-3.47-.08-.72 6.38.07 5.03-.04.12 2.27.93-.15 1.61.46v6.1l-1.36.27-.55.35v.69l.49 2.01.08.77-1.07.4-.67-.12-.83.36-.02 1.73-1.36.92-2.42.34-1.04-.15-.64.86-2.26.04-.17.64.37 1.93.09 1.23.54.93 1.1-.03.06 1.48.36.8 1.57.02.63.6.01 1.26-1.23.16-2.29-.15-1.35.38.34-1.48-.92.1-.63.4-.53-.5-.74.22-.45 1.5h-6.02l-.12.94-.54 1.35-.72-1.6.3-1.44-.21-.87.92-2 .9-1.13.41-.17 2.25-1.62 1.21-.74 1.79-1.97.27-.6-.62-1.16-1.52-.93-.54-2.03-.38-.68z"/>
    <path region="22" short-name="30" long-name="State Senate District 30" value="1" d="m341.17 432.87.32-1.17-.1-.57.4-2.18.36-.88-.16-.64-.62-.44.2-.85-.98-1.48-.51-.12.3-2.4 1-1.9.31-1.79v.96l.84.15.64.95.97.91 1.7-.83 1.96-.01 1.83-.58.6.21 1.94-.3.7 1.15 1.62 1.27.95 1.02.5.87.23 1.35-.14 1.43.65 1.65.87.8.6 1.3 1.43 1.3 1.5.49 2.06-.97.58-.79-.2-1.41 1.23-1.28.79-2.22-.22-.85 1.15-1.48-.86-1.88-.35-1.47-.81-.83-.09-.78 1.35-.71.87-1.35 1.03-.05.47-.75 2.28-1.5 1.24-.27 1.16.82.17.6 1.05.5.64.9.7.22.02.71.97.5.12.8.64.3.95 1.31 1.1 1 2.14 1.36.36.66 1.31.63 1.02 1.44 1.01 2.47.86.64.4.82.6-.12.3-1.4.71-.17 1.5.26 1.83-.13 2.2.66.34-.06 1 .74 2.61-.15.67-.21 1.96.71 1.23-.11 1.3-.56.95-.73.8-.1.93-1.37.74-.16.17-1.65-.56-1.02-.64-2.18 1.09-.07 1.24-1.52.13-1.17 1.16-2.25 1.04-.96.16-1 .64-.57 2.38.3.38-.68-.4-3.11 8.5-.05v.77l.9 1.75h2.25l-.05 2.51 3.78.05 5.7-8.83.42-.99.5-1.93.41-.77.87-.8.72-1.55 1.25-2.07.77-.85.79.06 2.18 1.03.69.53.9-.43.88-2.97.57-1.07 2-2.21 1-.9.46-.72.4-1.78 1.02-1.32 28.85.09 39.26.12-1.14.67.36 1.03-1.02.18.15.69.72.12-.3.98-1.18.85-.39-1.2-.63.5-.67 1.24 1.24 1.16-.49 1.57 1.33 1.24-.04 1.15.3.36-.08 18.77.07 12.91-.1 2.53-.07 15.13h.17l-.03 7 2.42-.15 27.5-.13 15.05-.18.12 8.48 2.48.1 3.71.03 1.25-.09 7.54-.02.04 14.32 30.05-.07.05-14.18h.17v-12.46l-.02-12.6.07-20.47.02-19.18.09-10.54-2.36-.01-.09-29.93.64.08 7.83.02 1.27-.14h5l1.02-.06 29.37-.06.07.06 17.66-.1 19.83-.06 6.87-.15 33.48-.04 19.33.31 6.15.13-.02.6.58.33 1.41.1.6-.24.26.67 1.06.35-.15 1.34.18.95-.28.94.4.67 1.36-.24 2.45-1.96 1.9.46-.1-.9.5-1.07.69.42 1.25-.2.82-1.45.6-.27.38.71 1.2.22.93 1.29.9.65.28.61.6.08.7-.7.86.76 1.14.52.46 1.38 1.57-.77.97.58.3.67.73.1.86-.27.33.39 1.13.05.76-.76h1.6l.04-1.6.55-1.18.45-.44.56-1.44.66-.3.17-2.82.68-.86 1.49-1.24 1.26-.36 2.92.64.74-.53.01-.61.8-.78.75-.17.15-1.07.42-1.08.92-.88 1.83-.02.63-.31 1.43.36.82.64.4 1.3 1.04 1.42 1.35 1.53 1.48.75.7-.04 1.82 1.54 1.1.1 1.48.5 1.6 1 2.16.04 2.1-.23 1.99-1.23 1.5-1.11.4-.6.66-.15 1.26-.96.38-.94 1.54-1 1.1-1.64.3-.98 1.02-.74.14-1.27.52-.5.96-.2 1.4 1.08.48-.91.54-.12 1.28.34.3 1.37.86 1.5.64.78.13.75 1.2 1.3.7-.3-.02-.82 1.66.52.7.61-.32 1.28.66.63 1.09.22.44 1.04-.74.69-.02 1.4.85.61 3.68-.04 22.67-.08.08-7.55-.01-7.57 22.4-.1 1.7-.1h12.6l21.52.07 8.52.08v.1l29.48.16.01.22-1.68 2.92-1.39 1.68-.74.45-1.42 1.89-2.05 1.36-.65 1.2.4 1.27.01 2.42-1.5 3-.19.96.17.63 1.1.57.46-.52.3-1.03.86-.87 1.07.57-.38 1.28-.88 1.03-1.4.78-.36 1.16.53 1.15 1.32 1.9.44 1.62-.78 1.35-.93 3.2-.79 3.08-1.6 2.95-1.3.69-.95 1.46-.77.54-.73-.1-.35.66.3.63-.43 1.35-.17.85-.58.16-1.82 3.55-.94 1.04-.69 1.67.36 1.36-.48 1.23-1.77 1.03-2.2.49-.75.45-.6.8-1.75 1.53-.86.49-1.83-.08-.94 1.05-1-.06-1.82 1.04-.44.62-.33 1.58-1 .38-.46.55.23.95-.17 2.6-.25.53-1.04.54-.85 1.45-.2 1.39.27.66-.3 1.16-1.26.84-.57.71-.12 1.28.23.93-.4 1.96-1.24 2.36-.8.38-.72 1.78-.58 3.6.06 1.74-1.14 1.49-1.48 1.15-.24 1.12.62.85-.15 2-1.02 2.4-1.07 1.15-.76.3-1.77.08-.47.64-.77 1.62-.33 1.74-.73 1.35-1.08 1.1-.92-.08-.95.42-.23.75 1.1 3.52.3 1.9-.06 3.61-1.46 3.73-.97 1.02-.97.54-.05.96.98 2.96 2.25 2.36.78.43 1.78 1.95.79 1.7-.22 1.2-1.46 2.86-1.46.67-.33.33-.59 1.66.7 1.59 2.32 2.5 3.44 2.58 1.63.24 2.3-.32.55-.62.38-1.12 1.22-1.4 1.16-.53.92.12.7.76.6 1.06.51 1.92 1.38 1.44 1.36 1.01.98 1.17.35 1.1 1.17.19.59-2.24 1.29-1.01.8.02 1.04.53 3.7-.01 1.36.45.49 1.24-.25 1.68.46 1.45-.43 1.63.25 1.85.77.54 2.2.5 1.5-.47 1.25.42.16.53 1.03.91 1.6.64.86 1.4.21 1.91-.23 1.02-.6.72-.31.98-.98.76-.37 2.18-1.4 1.44-.47 1.08.14.91-.67 1.26-1.16 1.02-1.72.4-1.25.14-1.26.96.41 5.44.2.84 2 1.01 1.59 1.25.74 1.07.35 1.4-.17 1.47-.97 1.63.16.64.82 1.47-.3 1.08-2.67.28-1.1.94-.91.47.65 1.1 1.14.02.23.75-1.32.7-.13.47 1.27.17-.12 1.35-.74 1.07.07 1.21.95.71.15 1.27-.48 1-2.1.37-.28.48.57 1.14.15 1.9-.96 2.38.2 1.64-.24.76-.9.5-.94-.13-1.44.4-1.14.57.02.88 1.13.7.04.85-.3.82-1.53-.23-.83 1.23-.12.7 1.15 1.07.25.75-.63 1.93v21.75l-.01 23.02V696.41l.06 36.68-.01.07-.04 30.6v32.56l.01 8.67.05 3.57v31.82l-.05 5.51.06 2.6-.02 19.58h-1.81l-.99.15-2.43-.18-15.94-.06-2.44.09-22.96.1-4.87-.07-22.3.2-.28.06-13.8-.01-16.74-.03-30.91.18-9.07.05-37.47.25-12.44.26-11.67.35-9.81-.15-2.44.05-25.35-.23-25.58.1-2.9-.17-2.37.06-13.47-.09-10.42-.18-34.7-.14-7.94-.2-10.61.05-13.67.25-1.53.13-10.98.01-12.32.07-11.85.28-5.15-.06-.08.09-20.07-.17-15.66.1-8.03-.1-12.98-.03h-11.57l.01-.52-.08-71.93v-9.15l-.2-.55-.15-43.2-1.97.06-12.02.02v-.45l-16.69-.07-26.88.02-.04-14.67-.07-14.5h-.09l.25-28.68v-3.68l.1-41.5h1.98l-.02-19.77-.05-24.45 44.19-.13v.35l12.73-.03-.21-.76-.01-13.07.02-15.77h-5.26l-.16-15.35-.1-13.83-8.45-.25-.04-14.9-.04-14.84-12.98-.64-1.03 1.16-.67 1.33-2.37-.12-2.14.1-2.48-.02.12-1.05-3.07 3.44-6.95.03v-2.45l-1.3.35v.95h-.62v1.17l-.6.01.01-2.56h-1.26v-1.2h-.76l1.06-1.96 2.93-5.88 2.94-5.29.22.93 1.52-2.88 5 .03.02-3.75 4 .02.36-1.26v-2.5h-1.77l-1.07-.73-.85-1.08h-.8l.07-1.63h-1.2l-.34 1.08-.6-.12h-2.8v1.25l-1.58-.02-1.33-.62-3.16-.11-2.2-1.74-1.36-.44-8.46-1.48-5.54-.02-1.03.84-.57.17-.94-.38-8.46-.1-2.87.89-2.49-.19.04-1.24-1.31.01-.01-1.18-1.28.3-1.11.02-7.4-12.08-.67-.54-3.43-1.35-2.3-2.17h-12.51v.1l-8.25.04-.44-1.66.2-.89.46-.63-.51-.63.14-.56-.28-2.76.68-1.9-.79-1.7-.24-2.36.68-.6.11-1.25-.78-.95.31-1.13 1.5-1.43.29-.63.83-.7.31-.72 1.64-.46.05-.64-.45-1.32-.05-1.11-.32-.52.3-1.55.74-.59.07-.85.47-.6z"/>
    <path region="23" short-name="15" long-name="State Senate District 15" value="1" d="m209.65 251.1.05 2.93-.69 1.36.62.13.02 7.34-.79.4.8.53.02 1.16-.02 1.98-2.49-1.14-.05 1.35-1.6-.02-.1 1.17h-2.57v1.03l-1.01.44-2.45-.38-2.57-1.5-.3-1.14-1.97-.02-.14 1.1-.02 5.02-.2.73.02 2.87.27 2.32.72 1.28-1.51 1.57-.66.46-1.74.72-1.32 1.23-3 .04-.15.45-.02 2.06-1.26-.03-.09-6.22-7.77-.06v-1.84l.25-1.21-.02-2.57-1.16.27 1.76-4.68.54-.88-.8-.85-1.52-.54-.35-.57-1.38-.7-1.29.1-.67-1.45-.97-1.01.15-1.27.31-.58.82-.08.34-1.09.5-.28 1.52.9.88-.91 1.22-.03.58.37 3.03.05 2.55-.65h1.42l1.61-2.64.7-.8 1.7-.51 1.22.05.68-2.82 2.25.2.13-.36 3.54 1.9.23-.62-.33-1.24.51-.54 1.69-.3.79-1.4.66-.66.03-.74.7-.86 1.22-2.16-.66-.68-.01-.62 2.47.01.01 2.56 2.61.05-.01 2.49z"/>
    <path region="24" short-name="18" long-name="State Senate District 18" value="1" d="m209.68 264.95 2.2 1.33 1.21.58 1.85.74 1 1.22 1.9 1.02 1.2.17-.1 1.44-1.48.4-1.16.03-1.54-.23v.66l-1.95.33.07 1.42 1.13.78-.27 1.02h1.02v2.22l.65-.3v2.6l-2.34 1.4-1.06.9-1.05.18v1.32h.62l-.03 6.05-.52.48-1.41-.17v1.9l-1.65 1.76-.68.11-.1.69.27 1.73-.7.15-2.2-.02-7.59-.05v-2.51l-2.61-.06v-2.52l-2.5-.16.05-2.56h-2.6l.02-2.47-2.53.04.02-2.06.15-.45 3-.04 1.32-1.23 1.74-.72.66-.46 1.5-1.57-.71-1.28-.27-2.32-.02-2.87.2-.73.02-5.01.14-1.12 1.96.03.31 1.14 2.57 1.5 2.45.38 1-.44v-1.03h2.58l.1-1.17 1.6.02.05-1.35 2.49 1.14z"/>
    <path region="25" short-name="19" long-name="State Senate District 19" value="1" d="m224.94 277.75 2.79.04.58.1 2.85-2.24.38-.48 1.33-.03.22-.26-.18-2.66.68-1.14.07-1.37.97-.1-.5 2.98.33 3.5 1.71 3.27.61.31.17.78-.6.62.23 1.16-.62.78-.42 1.86.09.88 1.94 1.37.71.84.98.66.38.68.54 2.03 1.52.94.62 1.14-.27.61-1.79 1.98-1.2.73-2.26 1.62-.42.17-.89 1.12-.92 2.01.21.87-.3 1.45.72 1.6-.02 1.08-.36.82-.48.15-1.52-1.16-.68-1.29-1.3-.18-1.12.62-1.1-.12-.49-.36-1.25-.53-1.98.48.03-2.4h.69v-.79h-.7v-1.28l-1.27.02-.01-1.91-1.15-.01-.11-.84h-2.53l-.02-1.36h-1.08l-.17-.88.23-.92-.14-1.04-1.39.01.01-.89-1.09-1.3-.44-1.33.48-.9.95-.07.3-.58 1.58-.75 1.08-.23 2.22.93.26-.93 1.05-.26.84.55.38-1.6z"/>
    <path region="26" short-name="23" long-name="State Senate District 23" value="1" d="m249.47 256.29 2.34 1.36 1.95.51 4.3.94.29.35v1.56l-.52.19-1.79-.15-.04 1.24-.46.05-.04-1.25-1.77-.51.01 1.64-4.45-.75-1.02.04-.5.43-.17 1.2-.56.66-.12 2.66.05 2.58-.07 2.54 1.22.03.81.48.15 2.33v2.25l-6.38-.07h-2.03l-.04-2.62 1.76.09.11-2.54-1.24-1.28-.01-2.55 1.18-.37.11-1.54h-1.14v-.63h-.87l-.06-.9-1.58-.42-.01-3.75 4.62-.04v-.8l.54-.48h2.58l.67.16 1.59-1.6z"/>
    <path region="27" short-name="24" long-name="State Senate District 24" value="1" d="m255.54 262.34-.02 1.54h-.31l-.09 2.56h1.79l-.01 4.73 1.12.34.04.63.95.83.11 3.68 2.8.03 3.64-.1 3.87.05.99 1.24 1.95 1.9-2.92.01v2.29l1 .1-.38 2.06 7.28-.05 2.2 1.8-.12.7-4.55 2.95-4.53 2.75-1.48-1.6-.93-.82-1.12 1.32-.66-.06-1.3-1.75-1.5-.29-1.03 1.1-1.25-.18-1.9.06-.5-.33-.35-1.29h-1.01l-.38.32-.8-.44-.8.21-.48-2.01v-.7l.54-.34 1.37-.27v-6.1l-1.62-.46-.92.15-.12-2.27-5.03.04v-2.25l-.15-2.33-.8-.48-1.23-.03.07-2.54-.05-2.58.12-2.66.56-.66.18-1.2.5-.43 1-.04 4.46.75v-1.64l1.76.51z"/>
    <path region="28" short-name="21" long-name="State Senate District 21" value="1" d="m234.15 264.95 1.03.34 1.54-.74 1.36-.07.8-.64 1.6.42.05.9h.87v.62h1.14l-.11 1.55-1.18.37.01 2.55 1.24 1.27-.11 2.55-1.76-.09.03 2.61h2.04l.08.73-.03 3.47.09 1.14-.33.59 1 .82-.02 1.22h-.81l-.76-1.04h-.77l-.13.55-1.15 1.14.62 1.6-1.38.99-.83.16-.7-.84-1.95-1.37-.09-.88.42-1.86.62-.78-.23-1.17.6-.62-.17-.77-.6-.3-1.72-3.28-.33-3.5.5-2.99-.66-2.09.41-1.75z"/>
    <path region="29" short-name="17" long-name="State Senate District 17" value="1" d="m209.65 251.1.4-.38 2.08.69.7-.38 1.91.07v.42H216l.03-1.68.64-.06.73-1.2 1.2.18h.51l1.69 3.79.84-.51.5-.97.7 1.74.71 1.1 2.34.69-1.38 1.65 1.17.96.17.53 2.39 1.96 2.33 1.25 1.83 2.2.63.45 1.12 1.35.23.8-.4 1.76-1.09.26-1.01-.52-1.24-.23-1.12.88-.43.63-.66.15-1.3-.54-1.81.15-2.02.5-.95-.06.02-4.87-2.44-.03-1.38 1.24-1.34.26-.16 1.09-3.77-2.02-.26.2.07 2.26-1.2-.58-2.21-1.33-.03-1.16-.79-.54.79-.39-.02-7.34-.62-.13.7-1.36z"/>
  </g>
</svg>