<svg viewBox="0 0 1000 1000" auto-border-stroke-width="1" auto-border-stroke-width-limit=".5" original-source="['https://www2.census.gov/geo/tiger/GENZ2022/shp/cb_2022_us_sldl_500k.zip']" candidates='[{"id":"0", "name":"Democrats", "margins": [{ "color": "#1C408C" }, { "color": "#577CCC" }, { "color": "#8AAFFF" }, { "color": "#949BB3" }]},{"id":"1", "name":"Republicans", "margins": [{ "color": "#BF1D29" }, { "color": "#FF5865" }, { "color": "#FF8B98" }, { "color": "#CF8980" }]}]'>
    <g regions>
    <path region="0" short-name="General Assembly District 25" long-name="General Assembly District 25" value="2" d="M500.175,39.688L507.958,42.75L522.617,47.626L530.094,49.98L530.131,52.42L527.928,56.867L526.064,59.057L525.53,61.76L519.79,95.784L519.294,116.074L521.498,115.411L523.054,116.441L523.989,119.056L526.686,117.657L530.757,118.64L530.455,119.759L531.092,124.095L534.896,138.424L532.046,141.617L523.637,138.648L512.976,140.499L513.348,142.807L512.638,143.957L516.053,150.996L516.299,153.483L518.079,153.544L519.663,156.026L517.087,160.517L515.275,157.521L510.923,161.772L510.185,163.403L510.222,166.027L507.564,165.609L505.856,164.382L506.357,163.39L496.843,159.608L500.106,154.243L496.768,155.209L495.218,158.286L493.721,158.744L491.95,158.212L490.982,161.146L489.3,162.613L489.649,164.008L488.722,166.78L487.004,168.507L489.934,172.258L489.959,173.138L485.873,176.831L483.095,181.738L484.734,200.808L486.039,201.086L490.185,199.633L492.553,199.586L494.675,200.164L496.336,201.354L503.615,201.793L505.081,204.06L506.759,205.39L509.497,206.537L513.556,205.772L514.599,204.527L517.75,205.871L518.641,210.86L517.968,216.846L521.914,218.521L524.833,217.338L531.438,217.28L530.917,218.887L533.552,220.903L533.218,223.01L535.04,223.989L532.929,228.774L532.081,229.539L524.123,228.801L522.766,227.383L520.322,225.996L520.338,221.143L517.676,219.382L516.711,227.493L516.646,230.958L520.943,241.709L512.7,247.797L503.42,254.103L503.067,252.774L501.123,250.994L498.652,250.274L498.815,248.514L496.109,246.452L495.916,243.594L492.17,241.354L489.505,241.999L489.551,240.597L488.187,236.631L486.302,233.295L485.208,232.671L480.923,234.95L456.724,248.869L454.706,242.624L454.894,240.134L455.741,238.96L459.242,232.254L458.609,230.233L455.065,228.793L455.161,226.059L454.135,224.288L455.487,222.066L458.679,220.148L458.344,217.219L459.099,212.91L456.451,210.826L456.728,208.413L451.302,207.388L451.533,204.895L453.028,200.663L453.183,197.568L455.38,191.89L455.907,189.523L459.668,177.767L458.886,176.307L455.499,171.849L448.362,163.884L449.831,167.071L447.626,168.227L446.06,174.258L446.439,176.816L449.155,181.358L449.15,182.792L447.465,183.107L445.226,184.585L442.431,185.407L442.029,181.418L444.42,182.002L445.564,176.621L442.638,177.041L443.009,174.853L445.194,174.002L440.103,171.395L440.372,169.39L443.112,167.59L443.825,163.604L443.495,160.27L440.803,157.172L440.836,154.784L442.172,150.765L447.633,139.153L460.666,114.93L464.666,107.063L470.5,96.569L475.089,87.956L478.341,80.765L488.077,60.759L495.065,48.398Z"/>
<path region="1" short-name="General Assembly District 23" long-name="General Assembly District 23" value="2" d="M297.112,293.18L298.649,290.862L298.336,288.342L298.947,286.698L297.297,283.945L293.673,281.266L292.762,278.853L293.812,276.836L296.135,274.826L297.371,272.477L297.147,268.833L297.927,266.611L300.261,265.818L304.885,266.317L309.49,265.724L310.177,264.642L311.726,259.71L315.725,256.97L317.259,252.93L316.713,249.746L318.897,245.717L320.106,241.81L319.12,239.646L315.649,237.441L314.507,236.054L314.492,233.46L315.753,232.284L319.987,231.044L321.974,231.655L323.993,230.325L323.324,227.94L324.39,225.59L326.259,223.621L326.115,221.943L324.759,219.871L322.895,218.592L320.128,215.801L316.989,213.744L316.058,212.458L314.99,207.876L313.412,205.32L307.599,202.261L303.495,198.021L303.001,196.697L300.576,193.653L298.305,192.074L296.565,188.425L296.147,185.896L293.466,186.378L291.871,185.886L290.816,183.619L291.249,182.115L291.018,177.531L292.711,175.014L296.017,171.708L296.288,170.829L300.712,167.369L303.547,163.796L305.352,163.268L314.001,155.142L315.327,152.923L317.698,150.987L317.282,148.145L319.143,143.337L319.453,139.141L321.373,138.26L322.819,135.218L325.506,132.755L327.45,131.956L330.373,128.698L330.924,127.51L330.716,124.778L341.332,133.079L361.627,149.425L371.756,157.461L386.295,169.255L370.861,182.194L359.475,198.107L361.166,201.372L368.112,216.754L387.774,221.631L388.462,220.715L390.095,214.298L390.633,211.06L392.977,206.563L396.289,207.563L396.641,205.887L395.853,203.019L396.178,201.314L397.568,199.351L399.045,202.1L398.927,204.929L401.347,206.826L401.081,208.022L399.494,208.745L399.805,211.109L398.852,212.71L396.976,213.802L396.582,216.249L398.082,217.223L398.861,218.777L396.643,221.248L395.802,222.848L396.43,224.18L395.35,225.85L393.866,230.773L392.702,231.286L392.285,234.197L390.898,234.501L389.982,235.886L388.127,235.567L387.933,238.309L386.166,239.599L384.386,241.707L383.253,241.651L381.882,243.539L398.323,252.211L398.872,253.176L404.646,256.948L405.88,257.393L407.891,256.715L410.714,256.819L413.695,255.698L415.171,256.149L422.398,256.333L428.298,257.084L433.861,259.863L437.568,259.906L450.512,252.448L451.561,256.894L452.882,259.349L454.676,265.302L457.236,265.99L462.31,264.083L465.312,268.463L467.805,268.865L474.255,280.794L474.69,281.326L480.04,284.158L489.04,289.75L496.599,292.788L499.808,294.336L502.754,294.125L505.483,292.825L507.524,296.74L513.201,299.351L514.643,300.741L512.789,304.498L511.785,307.291L512.787,309.73L512.359,310.883L509.751,311.802L506.813,315.433L504.766,316.906L503.296,319.219L500.535,321.195L498.429,322.034L498.234,323.789L496.38,327.948L493.723,329.012L490.411,329.563L490.643,328.293L492.59,326.918L490.272,323.312L491.565,322.653L490.744,319.046L490.816,316.596L489.22,316.43L484.289,318.208L482.765,316.425L480.646,315.998L478.54,316.386L476.316,318.76L474.641,322.668L467.983,326.049L463.99,323.151L464.06,321.651L466.714,318.659L464.971,316.407L462.624,311.177L463.528,308.746L463.84,305.312L465.249,303.286L465.628,301.456L463.636,297.825L460.37,295.87L458.601,292.93L454.994,292.751L453.432,294.689L454.421,297.306L452.724,298.104L450.524,297.141L449.488,295.005L445.322,295.191L444.634,293.722L445.855,291.234L444.774,289.171L438.615,287.22L434.921,300.497L433.388,299.104L433.98,296.536L435.073,294.447L434.043,292.671L432.18,291.671L431.95,289.556L432.445,287.129L430.621,285.804L429.911,284.119L428.581,283.662L427.104,284.782L424.87,290.526L411.904,287.543L409.482,283.528L406.78,282.104L404.653,278.786L391.386,286.87L385.638,289.902L385.958,292.625L384.249,292.663L382.912,294.597L384.175,297.293L384.541,300.554L386.061,299.966L386.576,301.582L385.574,302.928L385.858,306.535L383.677,307.291L384.336,309.026L388.004,308.545L388.442,311.084L390.739,310.509L391.174,311.565L390.145,314.389L390.786,316.209L392.739,315.988L393.84,317.604L394.724,321.209L399.32,321.716L399.444,323.784L401.113,325.806L402.138,328.015L404.422,326.993L392.302,355.253L388.544,362.985L372.185,342.573L366.523,347.835L356.564,356.181L355.101,355.804L351.469,357.145L350.283,354.986L346.744,353.198L344.644,351.507L338.384,346.774L332.77,345.734L326.664,346.027L323.688,347.786L321.05,351.716L319.82,352.496L315.981,352.969L312.13,351.952L309.304,349.671L308.608,347.411L309.212,343.7L307.455,338.859L305.56,336.772L303.272,333.624L304.264,332.493L306.382,331.757L306.599,329.724L304.946,325.307L302.879,322.711L301.004,321.507L301.408,317.924L302.552,314.774L304.632,312.598L305.624,309.564L305.132,307.491L302.84,307.05L301.063,307.697L298.977,307.345L297.393,305.914L295.947,303.687L296.274,297.752Z"/>
<path region="2" short-name="General Assembly District 11" long-name="General Assembly District 11" value="2" d="M608.647,401.792L609.854,401.952L614.833,399.515L617.006,399.197L625.818,401.33L628.806,401.832L630.039,401.466L628.754,393.683L625.477,383.369L625.906,381.057L623.996,378.698L627.189,376.159L630.349,374.539L633.198,374.404L633.868,376.275L638.294,377.902L639.34,377.215L640.688,379.402L642.362,379.737L646.473,378.991L649.795,379.5L650.828,378.849L653.955,379.715L655.206,380.688L658.526,380.179L658.488,378.79L660.429,378.068L660.118,376.769L664.504,374.995L663.753,372.089L666.402,371.185L664.821,369.049L667.055,368.803L666.325,367.36L667.329,361.476L670.104,360.565L673.269,355.543L676.958,352.275L678.498,350.51L684.387,355.6L682.476,358.081L675.854,362.923L675.859,364.319L672.98,367.738L678.803,369.975L680.406,371.224L681.563,373.327L678.987,376.231L686.149,381.477L686.411,383.532L685.028,384.834L686.715,386.954L688.561,387.402L690.029,391.285L690.673,391.728L693.228,390.208L697.249,388.386L697.128,386.176L696.234,382.268L694.013,380.844L693.092,378.66L691.756,377.776L693.076,374.586L695.09,371.635L694.953,369.331L693.88,366.434L697.726,366.749L698.922,367.923L701.295,367.929L702.76,377.299L703.379,385.66L703.84,403.341L703.383,421.382L700.26,422.238L699.192,421.56L699.021,426.789L696.287,426.535L696.054,428.815L694.522,429.459L689.265,427.878L687.857,426.012L685.111,425.52L684.647,424.642L680.238,423.294L679.139,423.719L676.142,423.214L673.432,421.4L671.047,421.561L667.047,420.179L665.502,419.074L664.73,417.253L664.816,414.233L664.15,410.849L662.95,407.902L636.878,410.015L631.804,410.214L629,418.059L625.123,429.579L623.174,436.669L627.58,450.48L629.274,450.905L584.719,458.955L594.615,444.258L602.485,433.58L604.014,420.557L604.059,416.206L606.607,407.685Z"/>
<path region="3" short-name="General Assembly District 13" long-name="General Assembly District 13" value="2" d="M614.258,333.092L618.512,334.003L620.447,337.01L623.912,335.473L625.156,332.451L625.309,330.069L626.306,327.681L627.546,327.676L631.942,330.503L634.164,330.682L638.484,328.052L639.289,325.833L640.239,325.499L648.645,328.633L656.114,329.036L666.39,333.31L670.103,334.056L683.378,334.255L685.023,333.679L685.873,330.103L684.791,320.372L683.481,318.863L680.955,318.565L680.772,317.567L678.38,312.629L676.265,311.279L674.34,311.081L673.388,309.52L673.856,308.28L675.612,307.534L678.345,307.657L685.392,315.322L687.268,319.996L689.881,328.936L692.951,334.156L695.63,342.613L699.232,354.737L701.295,367.929L698.922,367.923L697.726,366.749L693.88,366.434L694.953,369.331L695.09,371.635L693.076,374.586L691.756,377.776L693.092,378.66L694.013,380.844L696.234,382.268L697.128,386.176L697.249,388.386L693.228,390.208L690.673,391.728L690.029,391.285L688.561,387.402L686.715,386.954L685.028,384.834L686.411,383.532L686.149,381.477L678.987,376.231L681.563,373.327L680.406,371.224L678.803,369.975L672.98,367.738L675.859,364.319L675.854,362.923L682.476,358.081L684.387,355.6L678.498,350.51L676.958,352.275L673.269,355.543L670.104,360.565L667.329,361.476L666.325,367.36L667.055,368.803L664.821,369.049L666.402,371.185L663.753,372.089L664.504,374.995L660.118,376.769L660.429,378.068L658.488,378.79L658.526,380.179L655.206,380.688L653.955,379.715L650.828,378.849L649.795,379.5L646.473,378.991L642.362,379.737L640.688,379.402L639.34,377.215L638.294,377.902L633.868,376.275L633.198,374.404L630.349,374.539L627.189,376.159L623.996,378.698L625.906,381.057L625.477,383.369L628.754,393.683L630.039,401.466L628.806,401.832L625.818,401.33L617.006,399.197L614.833,399.515L609.854,401.952L608.647,401.792L609.168,393.34L607.718,392.75L596.182,386.027L592.633,383.804L607.997,358.062L610.842,353.167L613.462,353.594L612.398,355.965L612.916,358.458L616.835,358.53L616.197,356.537L617.578,354.768L615.349,351.857L617.38,348.544L617.271,345.08L616.422,343.621L611.844,343.314L611.684,345.209L609.803,344.857L608.621,343.07L610.868,337.473L612.349,336.174L613.743,336.282Z"/>
<path region="4" short-name="General Assembly District 14" long-name="General Assembly District 14" value="2" d="M501.115,405.515L501.439,404.221L500.832,396.176L507.822,396.595L512.062,396.635L514.72,396.191L516.479,393.383L518.853,393.491L520.716,394.367L523.645,394.175L522.904,398.954L524.411,399.988L525.684,399.496L526.239,402.611L529.476,401.49L531.153,402.069L540.051,402.849L540.46,397.902L545.627,397.207L550.565,382.032L551.894,379.2L556.471,380.827L560.002,381.96L559.378,379.804L561.499,377.645L563.222,377.796L564.925,374.737L566.214,374.479L567.387,372.222L569.107,373.3L572.66,372.004L575.166,375.522L576.637,375.27L578.526,378.99L579.396,382.471L578.652,384.423L578.588,387.155L580.443,391.591L583.785,391.907L586.864,393.497L581.119,403.149L577.661,411.205L578.735,414.683L560.908,430.939L560.131,430.697L553.447,431.721L553.655,433.591L555.475,435.696L539.179,450.595L538.398,454.608L536.494,458.564L535.903,462.49L533.815,465.007L532.52,464.742L529.892,466.302L527.346,469.171L525.686,466.691L524.855,466.606L520.73,469.426L523.292,473.253L525.479,475.534L532.933,485.411L530.628,486.135L528.202,486.337L524.2,485.898L521.728,486.08L521.247,483.668L518.193,484.17L516.056,482.422L513.114,482.579L511.541,481.489L508.36,480.845L507.944,479.776L505.855,479.48L503.086,479.885L503.744,478.586L499.924,476.065L498.177,476.92L495.917,474.935L492.338,476.113L491.581,479.143L493.221,480.191L494.802,484.108L493.308,486.873L493.335,488.331L491.043,489.844L490.043,485.696L485.272,480.868L483.954,479.849L478.922,478.48L480.51,477.198L478.524,475.306L477.348,472.523L482.333,470.359L482.99,469.101L480.934,466.881L482.617,463.539L482.53,461.813L478.305,458.206L478.386,456.212L479.653,453.354L479.459,451.852L482.83,449.576L483.051,443.486L484.499,442.368L484.803,440.873L487.633,439.935L490.279,440.008L491.181,438.744L495.783,437.971L497.728,438.569L504.513,447.869L516.26,440.327L519.4,442.305L526.13,427.276L525.056,424.009L523.576,423.112L522.235,418.647L520.11,417.894L518.327,416.442L517.978,414.941L514.751,413.991L513.59,414.813L511.272,412.435L506.529,411.983L505.057,412.193L504.179,410.894L504.025,408.552L501.157,406.789Z"/>
<path region="5" short-name="General Assembly District 17" long-name="General Assembly District 17" value="2" d="M496.38,327.948L498.234,323.789L498.429,322.034L500.535,321.195L503.296,319.219L504.766,316.906L506.813,315.433L509.751,311.802L512.359,310.883L514.785,311.98L516.946,309.502L518.171,309.247L520.737,306.705L523.42,303.246L525.264,301.808L524.324,300.21L527.133,296.379L527.814,298.284L530.503,297.31L532.01,293.679L529.914,292.05L530.549,291.171L535.855,289.302L535.008,290.94L537.924,299.728L539.58,303.699L538.622,304.854L540.57,306.073L543.535,309.231L549.449,308.993L549.146,314.926L546.207,317.315L542.609,322.794L541.638,327.032L543.39,327.89L545.551,330.065L546.62,332.221L548.685,332.911L550.856,332.042L552.297,329.901L557.345,329.275L559.789,331.531L557.516,334.393L555.728,334.498L554.182,333.363L553.613,336.77L552.699,338.298L553.287,340.591L551.252,341.478L549.102,345.3L545.955,344.105L544.981,346.204L546.415,349.233L544.742,350.178L545.351,352.286L543.453,354.621L541.444,355.06L541.277,357.366L539.27,360.127L539.687,362.074L537.667,364.03L536.166,365.703L534.672,365.254L533.1,367.134L529.908,369.317L529.424,368.764L530.563,364.087L527.381,362.945L527.447,361.806L521.871,358.96L520.741,360.508L516.063,364.979L510.142,369.759L508.055,371.775L507.794,373.145L508.982,378.068L509.214,381.957L508.206,383.086L507.58,385.907L506.008,388.4L503.317,391.127L501.224,389.641L498.174,386.712L496.705,383.017L494.606,382.072L492.805,378.853L493.666,375.55L494.804,374.431L495.372,370.55L496.91,368.823L497.099,367.232L495.952,365.854L496.729,363.585L499.952,360.78L503.024,354.8L505.783,351.647L506.694,349.84L505.325,348.519L505.093,346.907L502.649,342.734L499.42,338.169L499.335,337.393L501.455,335.581L501.383,332.402L500.164,331.568L498.082,331.37L496.878,330.205Z"/>
<path region="6" short-name="General Assembly District 40" long-name="General Assembly District 40" value="2" d="M548.035,109.254L548.967,109.845L555.573,116.773L555.72,114.058L564.957,91.961L571.811,94.774L573.646,96.154L575.306,96.349L576.197,97.841L577.916,98.817L580.278,96.611L580.896,98.254L582.967,97.743L583.304,101.278L582.946,102.518L587.336,102.668L585.375,105.632L582.426,106.485L584.637,109.596L584.082,111.028L585.513,111.859L587.383,111.379L588.673,113.314L589.865,113.123L590.886,111.204L591.509,107.373L589.892,107.307L589.474,102.743L593.309,102.062L595.824,105.701L603.447,105.602L606.736,106.283L607.876,110.336L603.908,110.346L603.43,110.936L604.209,113.672L603.195,115.167L603.654,117.447L604.696,119.158L603.569,121.312L601.487,120.27L600.793,118.009L599.469,117.034L595.596,115.651L591.145,116.72L590.217,119.642L590.176,124.035L590.446,130.107L589.033,132L586.807,132.723L585.511,134.521L583.404,131.625L583.685,129.603L582.575,123.146L580.185,117.426L567.666,119.03L572.808,122.212L576.711,135.929L575.795,137.829L576.032,141.24L575.36,144.144L579.376,147.172L586.435,148.253L586.486,148.987L585.879,152.48L586.151,153.944L585.094,158.96L583.643,162.784L583.52,166.713L580.911,166.654L581.023,169.857L579.529,174.675L579.636,176.17L578.441,180.601L577.157,182.59L577.593,184.921L577.171,187.41L570.649,184.667L566.405,185.346L564.979,184.945L563.888,190.401L562.526,189.282L560.895,189.134L558.731,187.169L555.889,185.873L555.185,187.204L553.651,186.247L545.833,184.399L545.073,179.715L545.409,176.13L546.942,175.667L545.526,173.609L541.415,172.93L540.13,172.311L539.772,170.28L538.652,168.595L538.457,165.193L537.864,164.806L537.606,160.66L537.982,157.734L539.896,157.337L542.478,155.783L542.884,157.541L544.557,156.234L547.467,156.013L550.517,154.676L551.039,156.763L552.234,156.97L553.809,155.843L554.882,157.028L557.451,156.675L557.219,154.231L556.124,153.078L558.059,152.104L555.838,149.344L552.414,149.521L549.312,145.173L550.312,143.839L550.884,140.16L550.362,133.744L549.199,132.867L548.857,129.78L547.53,127.506L546.546,122.421L546.918,121.538L545.91,119.196L546.982,117.914L545.883,114.418Z"/>
<path region="7" short-name="General Assembly District 02" long-name="General Assembly District 02" value="2" d="M513.484,735.205L523.804,716.06L542.706,726.826L563.11,738.586L564.937,735.258L566.868,734.752L575.368,739.474L589.466,713.407L603.901,711.913L605.811,710.481L606.883,708.572L608.739,709.933L610.7,709.613L614.354,711.814L616.296,714.309L618.92,712.512L621.65,714.835L622.772,714.349L623.677,712.577L625.349,712.009L626.842,714.867L628.718,714.435L628.194,711.004L630.197,709.836L631.164,711.237L631.285,714.789L633.168,716.163L635.149,715.769L634.777,713.888L633.082,712.262L634.031,710.205L636.121,710.771L638.162,708.44L638.939,708.378L639.992,711.309L642.292,711.925L645.552,715.084L655.63,729.528L661.373,726.711L663.109,724.799L667.772,723.171L671.557,722.516L673.097,724.904L678.049,730.709L678.688,734.781L677.677,738.909L675.923,743.65L677.332,745.913L677.145,749.627L673.113,758.756L668.895,767.572L663.744,775.459L659.798,782.121L659.703,785.437L658.734,787.474L655.885,790.438L651.475,792.63L645.726,797.206L637.256,805.654L631.218,812.241L626.248,819.338L622.561,821.239L622.452,820.987L620.256,822.738L616.777,823.427L614.938,822.768L611.083,820.569L608.558,820.941L601.964,829.187L600.039,830.091L597.277,829.577L594.951,829.741L593.244,827.487L588.838,826.283L588.906,822.147L586.061,821.573L584.8,820.27L582.459,822.042L581.934,819.899L581.017,819.115L579.539,820.097L577.784,819.292L575.312,819.747L573.475,819.453L572.384,817.612L572.277,815.49L568.98,813.879L565.435,809.078L565.546,806.775L563.029,805.719L563.214,803.297L560.903,799.04L560.894,797.043L561.808,795.412L560.849,789.587L560.112,788.033L560.695,783.061L560.486,782.023L557.383,779.823L557.207,778.102L555.767,776.339L555.45,774.851L522.47,791.566L505.378,757.394L503.485,753.525Z"/>
<path region="8" short-name="General Assembly District 07" long-name="General Assembly District 07" value="2" d="M408.242,566.168L414.709,562.234L415.529,560.696L420.301,553.924L423.927,548.474L425.589,546.175L434.559,537.311L437.883,535.459L441.568,535.134L451.094,528.539L453.379,527.483L455.217,525.8L456.032,522.06L460.379,517.827L460.985,516.413L460.856,513.013L461.838,507.647L462.705,506.269L464.726,505.48L469.736,506.391L473.572,506.541L475.541,505.924L478.608,501.682L481.38,498.971L483.036,498.171L485.74,497.817L486.813,497.117L490.723,491.568L491.043,489.844L493.335,488.331L493.308,486.873L494.802,484.108L493.221,480.191L491.581,479.143L492.338,476.113L495.917,474.935L498.177,476.92L499.924,476.065L503.744,478.586L503.086,479.885L501.967,481.637L502.865,486.079L505.088,492.387L506.11,496.986L502.943,498.213L500.929,501.571L497,503.737L494.158,504.836L487.087,500.622L485.424,502.94L482.581,504.155L481.454,504.109L479.949,507.878L482.169,508.34L482.49,510.742L484.032,512.209L486.14,513.29L484.912,514.987L483.39,528.252L481.346,527.828L479.177,529.227L478.123,528.279L476.655,530.273L474.688,528.528L473.702,526.675L470.912,529.176L472.303,529.86L472.023,532.395L473.823,536.083L477.941,537.996L477.825,539.48L476.365,540.826L471.348,542.783L471.432,547.728L465.312,546.439L460.563,546.968L460.123,553.198L460.423,555.621L459.753,557.196L459.357,561.954L460.852,562.309L462.863,561.672L465.69,562.742L467.013,566.746L465.852,567.57L465.108,569.921L466.36,571.205L465.634,575.557L469.474,592.791L441.109,601.524L438.844,599.51L435.023,599.789L431.777,598.091L436.057,592.594L434.785,589.673L432.158,587.104L429.771,587.392L427.867,585.174L425.335,584.135L421.115,581.064L417.405,584.277L418.12,582.885L417.885,578.694L417.09,576.728L415.713,575.506L411.018,574.446L409.956,573.86L406.262,575.444L406.053,576.691L402.787,577.27L402.856,574.796L403.632,571.576L405.068,568.97Z"/>
<path region="9" short-name="General Assembly District 08" long-name="General Assembly District 08" value="2" d="M441.109,601.524L469.474,592.791L465.634,575.557L466.36,571.205L465.108,569.921L465.852,567.57L467.013,566.746L465.69,562.742L462.863,561.672L460.852,562.309L459.357,561.954L459.753,557.196L460.423,555.621L460.123,553.198L460.563,546.968L465.312,546.439L471.432,547.728L471.348,542.783L476.365,540.826L477.825,539.48L477.941,537.996L473.823,536.083L472.023,532.395L472.303,529.86L470.912,529.176L473.702,526.675L474.688,528.528L476.655,530.273L478.123,528.279L479.177,529.227L481.346,527.828L483.39,528.252L484.912,514.987L486.14,513.29L484.032,512.209L482.49,510.742L482.169,508.34L479.949,507.878L481.454,504.109L482.581,504.155L485.424,502.94L487.087,500.622L494.158,504.836L497,503.737L500.929,501.571L502.943,498.213L506.11,496.986L505.088,492.387L502.865,486.079L501.967,481.637L503.086,479.885L505.855,479.48L507.944,479.776L508.36,480.845L511.541,481.489L513.114,482.579L516.056,482.422L518.193,484.17L521.247,483.668L521.728,486.08L524.2,485.898L528.202,486.337L530.628,486.135L529.557,491.693L528.596,499.636L529.119,502.557L530.091,513.481L531.037,519.155L530.521,525.707L529.934,528.061L537.234,525.944L538.712,526.581L541.97,525.308L544.325,522.372L545.16,520.267L547.061,520.213L549.59,519.279L551,518.181L554.286,517.169L554.924,514.807L560.437,522.332L571.32,539.146L575.918,545.821L588.73,564.417L605.981,589.123L608.357,592.728L627.202,619.085L640.689,678.247L643.555,690.723L643.126,691.521L642.725,697.169L643.053,698.682L642.608,701.147L641.528,702.525L638.134,702.94L637.431,704.223L639.507,706.661L638.939,708.378L638.162,708.44L636.121,710.771L634.031,710.205L633.082,712.262L634.777,713.888L635.149,715.769L633.168,716.163L631.285,714.789L631.164,711.237L630.197,709.836L628.194,711.004L628.718,714.435L626.842,714.867L625.349,712.009L623.677,712.577L622.772,714.349L621.65,714.835L618.92,712.512L616.296,714.309L614.354,711.814L610.7,709.613L608.739,709.933L606.883,708.572L605.811,710.481L603.901,711.913L589.466,713.407L575.368,739.474L566.868,734.752L564.937,735.258L563.11,738.586L542.706,726.826L523.804,716.06L513.484,735.205L491.865,722.864L506.347,696.192L525.477,660.949L518.357,657.277L514.718,656.251L512.62,655.08L510.464,652.44L509.088,652.414L507.24,649.842L505.013,647.928L498.972,644.125L495.34,643.859L494.721,643.158L487.283,644.026L484.245,645.93L479.773,648.101L477.99,649.727L473.799,650.455L472.087,650.226L470.383,647.942L469.12,647.654L465.599,640.496L461.187,631.029L451.801,611.21L444.932,607.49L443.335,604.565Z"/>
<path region="10" short-name="General Assembly District 16" long-name="General Assembly District 16" value="2" d="M392.302,355.253L404.422,326.993L402.138,328.015L401.113,325.806L399.444,323.784L399.32,321.716L394.724,321.209L393.84,317.604L392.739,315.988L390.786,316.209L390.145,314.389L391.174,311.565L390.739,310.509L388.442,311.084L388.004,308.545L384.336,309.026L383.677,307.291L385.858,306.535L385.574,302.928L386.576,301.582L386.061,299.966L384.541,300.554L384.175,297.293L382.912,294.597L384.249,292.663L385.958,292.625L385.638,289.902L391.386,286.87L404.653,278.786L406.78,282.104L409.482,283.528L411.904,287.543L424.87,290.526L427.104,284.782L428.581,283.662L429.911,284.119L430.621,285.804L432.445,287.129L431.95,289.556L432.18,291.671L434.043,292.671L435.073,294.447L433.98,296.536L433.388,299.104L434.921,300.497L438.615,287.22L444.774,289.171L445.855,291.234L444.634,293.722L445.322,295.191L449.488,295.005L450.524,297.141L452.724,298.104L454.421,297.306L453.432,294.689L454.994,292.751L458.601,292.93L460.37,295.87L463.636,297.825L465.628,301.456L465.249,303.286L463.84,305.312L463.528,308.746L462.624,311.177L464.971,316.407L466.714,318.659L464.06,321.651L463.99,323.151L467.983,326.049L474.641,322.668L476.316,318.76L478.54,316.386L480.646,315.998L482.765,316.425L484.289,318.208L489.22,316.43L490.816,316.596L490.744,319.046L491.565,322.653L490.272,323.312L492.59,326.918L490.643,328.293L490.411,329.563L493.723,329.012L496.38,327.948L496.878,330.205L498.082,331.37L500.164,331.568L501.383,332.402L501.455,335.581L499.335,337.393L499.42,338.169L502.649,342.734L505.093,346.907L505.325,348.519L506.694,349.84L505.783,351.647L503.024,354.8L499.952,360.78L496.729,363.585L495.952,365.854L497.099,367.232L496.91,368.823L495.372,370.55L494.804,374.431L493.666,375.55L492.805,378.853L494.606,382.072L496.705,383.017L498.174,386.712L501.224,389.641L503.317,391.127L506.008,388.4L507.58,385.907L508.206,383.086L509.214,381.957L508.982,378.068L507.794,373.145L508.055,371.775L510.142,369.759L516.063,364.979L520.741,360.508L521.871,358.96L527.447,361.806L527.381,362.945L530.563,364.087L529.424,368.764L529.908,369.317L533.1,367.134L534.672,365.254L536.166,365.703L537.667,364.03L538.628,365.344L540.208,364.819L542.646,365.27L544.568,367.019L549.062,368.241L550.755,367.063L555.059,372.237L554.303,374.572L551.894,379.2L550.565,382.032L545.627,397.207L540.46,397.902L540.051,402.849L531.153,402.069L529.476,401.49L526.239,402.611L525.684,399.496L524.411,399.988L522.904,398.954L523.645,394.175L520.716,394.367L518.853,393.491L516.479,393.383L514.72,396.191L512.062,396.635L507.822,396.595L500.832,396.176L501.439,404.221L501.115,405.515L497.122,407.172L495.921,409.254L495.153,413.425L493.212,416.929L491.084,419.35L490.1,422.05L488.168,424.748L483.142,417.274L474.572,405.044L464.247,390.136L457.957,380.888L441.725,357.512L440.359,359.021L435.494,360.929L432.015,363.856L430.211,367.405L429.683,369.968L429.901,371.82L427.817,374.626L423.649,381.215L422.668,379.638L418.725,382.742L417.813,380.377L415.555,376.099L412.664,372.883L411.04,371.914L408.202,371.32L406.781,369.26L402.501,368.964L401.641,367.567L399.776,367.972L397.863,365.82L395.959,362.254L394.672,357.78Z"/>
<path region="11" short-name="General Assembly District 12" long-name="General Assembly District 12" value="2" d="M530.628,486.135L532.933,485.411L525.479,475.534L523.292,473.253L520.73,469.426L524.855,466.606L525.686,466.691L527.346,469.171L529.892,466.302L532.52,464.742L533.815,465.007L535.903,462.49L536.494,458.564L538.398,454.608L539.179,450.595L555.475,435.696L553.655,433.591L553.447,431.721L560.131,430.697L560.908,430.939L578.735,414.683L577.661,411.205L581.119,403.149L586.864,393.497L583.785,391.907L580.443,391.591L578.588,387.155L578.652,384.423L579.396,382.471L578.526,378.99L576.637,375.27L575.166,375.522L572.66,372.004L569.107,373.3L567.387,372.222L566.214,374.479L564.925,374.737L563.222,377.796L561.499,377.645L559.378,379.804L560.002,381.96L556.471,380.827L559.519,373.618L560.951,374.528L566.538,369.533L564.14,368.534L562.566,366.823L565.579,365.033L570.34,361.502L572.204,362.497L572.889,361.395L575.172,361.661L574.107,359.517L577.062,357.684L575.558,357.111L583.697,346.704L586.11,341.913L588.296,336.276L598.227,339.443L600.373,336.132L599.696,335.109L600.655,332.799L602.436,330.841L605.007,331.157L606.897,332.191L609.215,331.78L611.512,333.508L614.258,333.092L613.743,336.282L612.349,336.174L610.868,337.473L608.621,343.07L609.803,344.857L611.684,345.209L611.844,343.314L616.422,343.621L617.271,345.08L617.38,348.544L615.349,351.857L617.578,354.768L616.197,356.537L616.835,358.53L612.916,358.458L612.398,355.965L613.462,353.594L610.842,353.167L607.997,358.062L592.633,383.804L596.182,386.027L607.718,392.75L609.168,393.34L608.647,401.792L606.607,407.685L604.059,416.206L604.014,420.557L602.485,433.58L594.615,444.258L584.719,458.955L629.274,450.905L630.796,453.388L630.73,455.232L631.464,458.053L633.492,458.165L635.238,459.411L636.784,462.518L638.62,464.093L639.386,471.421L634.538,469.596L641.612,493.793L638.553,496.22L614.414,515.263L595.825,530.126L575.918,545.821L571.32,539.146L560.437,522.332L554.924,514.807L554.286,517.169L551,518.181L549.59,519.279L547.061,520.213L545.16,520.267L544.325,522.372L541.97,525.308L538.712,526.581L537.234,525.944L529.934,528.061L530.521,525.707L531.037,519.155L530.091,513.481L529.119,502.557L528.596,499.636L529.557,491.693Z"/>
<path region="12" short-name="General Assembly District 26" long-name="General Assembly District 26" value="2" d="M530.094,49.98L542.621,53.919L553.402,57.084L548.534,89.164L546.044,107.993L548.035,109.254L545.883,114.418L546.982,117.914L545.91,119.196L546.918,121.538L546.546,122.421L547.53,127.506L548.857,129.78L549.199,132.867L550.362,133.744L550.884,140.16L550.312,143.839L549.312,145.173L552.414,149.521L555.838,149.344L558.059,152.104L556.124,153.078L557.219,154.231L557.451,156.675L554.882,157.028L553.809,155.843L552.234,156.97L551.039,156.763L550.517,154.676L547.467,156.013L544.557,156.234L542.884,157.541L542.478,155.783L539.896,157.337L537.982,157.734L537.606,160.66L537.864,164.806L538.457,165.193L538.652,168.595L539.772,170.28L540.13,172.311L541.415,172.93L545.526,173.609L546.942,175.667L545.409,176.13L545.073,179.715L545.833,184.399L546.351,187.812L545.074,189.136L546.459,191.414L545.403,195.352L543.754,195.47L542.117,196.718L542.229,198.471L540.194,202.168L538.999,202.687L538.641,205.32L539.913,210.471L538.762,212.291L539.941,214.337L540.152,217.419L539.039,219.039L545.04,220.131L544.859,221.785L543.288,222.766L538.14,221.703L535.04,223.989L533.218,223.01L533.552,220.903L530.917,218.887L531.438,217.28L524.833,217.338L521.914,218.521L517.968,216.846L518.641,210.86L517.75,205.871L514.599,204.527L513.556,205.772L509.497,206.537L506.759,205.39L505.081,204.06L503.615,201.793L496.336,201.354L494.675,200.164L492.553,199.586L490.185,199.633L486.039,201.086L484.734,200.808L483.095,181.738L485.873,176.831L489.959,173.138L489.934,172.258L487.004,168.507L488.722,166.78L489.649,164.008L489.3,162.613L490.982,161.146L491.95,158.212L493.721,158.744L495.218,158.286L496.768,155.209L500.106,154.243L496.843,159.608L506.357,163.39L505.856,164.382L507.564,165.609L510.222,166.027L510.185,163.403L510.923,161.772L515.275,157.521L517.087,160.517L519.663,156.026L518.079,153.544L516.299,153.483L516.053,150.996L512.638,143.957L513.348,142.807L512.976,140.499L523.637,138.648L532.046,141.617L534.896,138.424L531.092,124.095L530.455,119.759L530.757,118.64L526.686,117.657L523.989,119.056L523.054,116.441L521.498,115.411L519.294,116.074L519.79,95.784L525.53,61.76L526.064,59.057L527.928,56.867L530.131,52.42Z"/>
<path region="13" short-name="General Assembly District 24" long-name="General Assembly District 24" value="2" d="M352.528,42.478L354.138,37.549L355.973,34.313L358.521,31.9L359.609,29.529L363.197,25.54L362.934,24.13L361.498,22.574L362.243,20.727L368.135,18.278L369.955,15.107L370.099,11.354L371.682,8.53L376.906,7.174L378.522,7.033L381.215,5.825L384.427,2.82L386.623,1.546L388.055,0L406.251,6.278L417.857,10.044L454.712,23.025L469.044,27.854L487.399,34.655L500.175,39.688L495.065,48.398L488.077,60.759L478.341,80.765L475.089,87.956L470.5,96.569L464.666,107.063L460.666,114.93L447.633,139.153L442.172,150.765L440.836,154.784L440.803,157.172L443.495,160.27L443.825,163.604L443.112,167.59L440.372,169.39L440.103,171.395L445.194,174.002L443.009,174.853L442.638,177.041L445.564,176.621L444.42,182.002L442.029,181.418L442.431,185.407L445.226,184.585L447.465,183.107L449.15,182.792L449.155,181.358L446.439,176.816L446.06,174.258L447.626,168.227L449.831,167.071L448.362,163.884L455.499,171.849L458.886,176.307L459.668,177.767L455.907,189.523L455.38,191.89L453.183,197.568L453.028,200.663L451.533,204.895L451.302,207.388L456.728,208.413L456.451,210.826L459.099,212.91L458.344,217.219L458.679,220.148L455.487,222.066L454.135,224.288L455.161,226.059L455.065,228.793L458.609,230.233L459.242,232.254L455.741,238.96L454.894,240.134L454.706,242.624L456.724,248.869L450.512,252.448L437.568,259.906L433.861,259.863L428.298,257.084L422.398,256.333L415.171,256.149L413.695,255.698L410.714,256.819L407.891,256.715L405.88,257.393L404.646,256.948L398.872,253.176L398.323,252.211L381.882,243.539L383.253,241.651L384.386,241.707L386.166,239.599L387.933,238.309L388.127,235.567L389.982,235.886L390.898,234.501L392.285,234.197L392.702,231.286L393.866,230.773L395.35,225.85L396.43,224.18L395.802,222.848L396.643,221.248L398.861,218.777L398.082,217.223L396.582,216.249L396.976,213.802L398.852,212.71L399.805,211.109L399.494,208.745L401.081,208.022L401.347,206.826L398.927,204.929L399.045,202.1L397.568,199.351L396.178,201.314L395.853,203.019L396.641,205.887L396.289,207.563L392.977,206.563L390.633,211.06L390.095,214.298L388.462,220.715L387.774,221.631L368.112,216.754L361.166,201.372L359.475,198.107L370.861,182.194L386.295,169.255L371.756,157.461L361.627,149.425L341.332,133.079L330.716,124.778L328.282,125.438L326.861,127.548L324.926,128.678L323.521,127.268L324.92,120.173L327.244,117.492L329.746,116.542L333.807,111.667L334.159,109.255L337.937,106.562L339.892,104.099L343.659,95.805L344.364,91.179L346.764,87.485L348.284,84.067L349.093,76.36L350.179,71.776L351.445,67.793L351.487,66.487L348.406,64.097L348.373,62.251L349.109,59.758L348.857,58.13L349.534,54.832L351.773,53.384L352.328,50.342L351.484,48.4Z"/>
<path region="14" short-name="General Assembly District 15" long-name="General Assembly District 15" value="2" d="M351.469,357.145L355.101,355.804L356.564,356.181L366.523,347.835L372.185,342.573L388.544,362.985L392.302,355.253L394.672,357.78L395.959,362.254L397.863,365.82L399.776,367.972L401.641,367.567L402.501,368.964L406.781,369.26L408.202,371.32L411.04,371.914L412.664,372.883L415.555,376.099L417.813,380.377L418.725,382.742L422.668,379.638L423.649,381.215L427.817,374.626L429.901,371.82L429.683,369.968L430.211,367.405L432.015,363.856L435.494,360.929L440.359,359.021L441.725,357.512L457.957,380.888L464.247,390.136L474.572,405.044L483.142,417.274L488.168,424.748L490.1,422.05L491.084,419.35L493.212,416.929L495.153,413.425L495.921,409.254L497.122,407.172L501.115,405.515L501.157,406.789L504.025,408.552L504.179,410.894L505.057,412.193L506.529,411.983L511.272,412.435L513.59,414.813L514.751,413.991L517.978,414.941L518.327,416.442L520.11,417.894L522.235,418.647L523.576,423.112L525.056,424.009L526.13,427.276L519.4,442.305L516.26,440.327L504.513,447.869L497.728,438.569L495.783,437.971L491.181,438.744L490.279,440.008L487.633,439.935L484.803,440.873L484.499,442.368L483.051,443.486L482.83,449.576L479.459,451.852L479.653,453.354L478.386,456.212L478.305,458.206L482.53,461.813L482.617,463.539L480.934,466.881L482.99,469.101L482.333,470.359L477.348,472.523L478.524,475.306L480.51,477.198L478.922,478.48L477.532,477.439L475.411,473.582L471.934,469.759L470.016,466.99L466.301,465.009L461.563,462.902L453.387,460.886L451.777,459.975L447.585,458.925L445.371,457.598L440.338,450.571L436.738,445.059L433.427,441.29L426.318,436.476L423.061,435.17L419.289,435.256L416.03,433.653L412.508,431.447L407.849,428.864L406.202,427.297L404.306,422.058L402.68,418.651L400.083,414.49L395.278,407.359L393.673,406.07L390.78,405.562L386.508,403.581L384.084,403.38L376.13,408.172L372.97,407.771L370.524,406.412L368.701,405.369L364.488,404.572L363.255,402.815L361.864,398.639L359.529,393.31L357.579,390.351L357.735,386.006L356.766,382.669L357.507,381.175L357.51,379.116L355.783,371.973L354.931,370.401L353.177,363.997L352.805,361.253Z"/>
<path region="15" short-name="General Assembly District 05" long-name="General Assembly District 05" value="2" d="M387.869,624.556L388.438,623.693L389.487,619.103L389.323,614.209L385.758,608.416L385.023,606.367L383.756,600.446L383.682,597.442L384.414,595.368L387.202,591.851L391.66,587.941L396.426,585.716L399.276,583.829L402.033,579.817L402.787,577.27L406.053,576.691L406.262,575.444L409.956,573.86L411.018,574.446L415.713,575.506L417.09,576.728L417.885,578.694L418.12,582.885L417.405,584.277L418.637,587.392L420.411,589.228L416.439,590.714L413.541,592.66L412.563,594.003L410.702,594.549L406.902,604.313L410.804,608.91L410.559,610.522L408.139,611.001L408.005,612.456L405.762,611.28L402.074,613.822L400.335,612.691L398.972,613.659L400.371,616.132L398.66,617.624L398.602,620.378L400.33,620.036L401.519,621.338L403.215,620.877L402.028,618.892L403.819,618.733L404.219,617.142L405.768,617.901L407.168,615.912L409.391,614.139L411.569,616.703L414.624,617.876L416.915,620.159L419.291,619.065L420.297,622.992L417.712,625.494L420.292,628.339L418.132,630.358L418.866,633.604L409.39,639.906L408.466,641.117L410.068,642.809L409.788,644.195L410.766,645.45L409.599,648.52L411.304,651.477L415.114,654.243L413.334,658.635L411.372,659.413L411.3,662.397L405.954,667.112L405.219,670.591L404.082,670.339L401.941,672.303L400.889,672.204L398.763,669.952L396.717,670.057L394.087,667.529L398.074,667.98L394.111,659.567L391.62,660.439L391.357,663.573L390.284,665.036L389.088,664.242L386.4,664.508L387.276,651.927L385.507,649.926L385.621,648.615L383.039,648.097L383.105,643.201L387.384,644.583L388.764,640.849L390.294,639.708L391.688,635.838L393.6,636.851L397.792,633.692L396.881,631.911L395.28,632.249L393.538,629.284L391.38,628.404L392.198,626.462Z"/>
<path region="16" short-name="General Assembly District 03" long-name="General Assembly District 03" value="2" d="M282.634,757.597L283.163,755.315L285.438,752.433L286.531,749.864L288.539,748.916L290.411,745.15L292.92,738.866L293.302,736.361L293.061,731.741L292.336,727.992L292.694,726.874L295.642,724.337L296.28,720.077L297.73,717.762L299.836,718.15L300.062,716.179L299.387,713.618L299.37,709.051L300.154,705.421L300.703,699.608L300.256,698.113L301.177,695.766L303.063,693.992L303.03,691.429L305.986,686.812L314.969,679.741L311.528,678.152L314.49,675.124L317.828,671.074L322.443,664.831L326.669,658.671L329.976,655.321L333.174,653.37L336.722,652.192L337.331,652.034L339.408,651.495L344.51,650.96L350.966,649.399L359.237,645.225L361.621,643.839L365.346,640.916L370.86,634.726L373.4,630.977L377.751,629.275L385.463,627.009L386.919,626.144L387.869,624.556L392.198,626.462L391.38,628.404L393.538,629.284L395.28,632.249L396.881,631.911L397.792,633.692L393.6,636.851L391.688,635.838L390.294,639.708L388.764,640.849L387.384,644.583L383.105,643.201L383.039,648.097L385.621,648.615L385.507,649.926L387.276,651.927L386.4,664.508L389.088,664.242L390.284,665.036L391.357,663.573L391.62,660.439L394.111,659.567L398.074,667.98L394.087,667.529L396.717,670.057L398.763,669.952L400.889,672.204L401.941,672.303L402.63,672.843L405.734,673.016L406.764,674.83L406.324,678.171L406.475,681.413L409.049,683.307L410.642,685.741L412.779,686.66L415.997,689.252L416.564,690.678L418.177,691.559L418.869,694.428L421.078,696.889L433.269,703.992L441.294,708.51L436.646,712.484L420.161,723.547L413.796,732.643L440.576,748.615L439.968,752.268L440.238,754.015L439.536,755.493L438.906,759.272L440.364,760.848L440.232,762.585L441.429,767.332L440.865,769.751L440.768,772.71L441.765,775.499L441.207,777.098L443.823,780.443L444.649,783.262L443.672,789.054L443.85,792.161L444.52,792.986L443.936,795.233L444.865,796.076L443.945,799.291L444.938,800.643L440.537,803.611L438.802,806.096L430.92,809.377L429.097,809.234L426.222,811.547L416.082,811.232L415.065,810.111L411.832,811.079L410.971,812.109L407.858,812.619L404.782,804.655L403.652,805.157L401.081,809.175L399.337,810.71L398.038,810.243L394.576,810.469L393.202,812.188L396.254,823.335L399.11,824.11L399.948,825.231L402.745,824.216L403.356,827.49L405.123,828.076L406.113,831.128L405.907,833.434L406.553,835.584L404.398,837.376L401.763,838.12L400.79,839.206L398.685,838.364L397.627,839.903L396.532,839.864L396.069,837.908L393.924,839.433L393.367,837.303L391.373,838.155L391.379,840.521L389.187,839.557L388.368,840.541L388.482,842.517L386.029,842.447L385.347,840.678L382.619,841.123L380.991,838.176L378.203,838.472L378.36,841.093L376.918,842.407L374.69,840.568L373.607,841.722L375.065,843.489L374.203,844.615L372.234,844.685L369.699,843.366L367.931,845.927L369.926,846.57L370.564,848.789L368.338,849.908L369.21,851.846L368.73,853.324L366.709,854.36L366.812,856.58L369.249,856.499L368.001,858.643L368.83,860.236L370.124,859.798L369.574,861.689L368.165,861.286L366.146,857.825L363.341,856.879L361.391,857.293L358.789,856.262L356.976,854.327L356.032,851.286L354.042,848.285L353.014,847.76L349.86,848.595L349.423,846.943L348.146,846.126L346.408,846.977L344.534,846.849L338.765,841.957L334.86,836.848L332.544,834.664L328.491,828.645L326.326,829.885L321.033,828.398L320.554,826.547L318.794,826.286L317.256,826.905L314.818,825.696L313.435,823.364L304.693,824.67L301.831,821.096L300.567,817.483L299.578,810.492L304.001,808.861L302.727,806.299L302.217,803.862L302.715,801.099L301.368,795.287L300.754,793.791L298.329,792.017L298.613,790.86L301.623,785.053L302.948,779.357L301.989,775.722L298.967,773.804L296.778,773.384L291.886,770.68L286.919,768.474L285.713,766.875L283.913,762.363Z"/>
<path region="17" short-name="General Assembly District 36" long-name="General Assembly District 36" value="2" d="M607.368,177.965L608.987,176.361L609.099,173.331L608.535,171.68L601.109,168.802L599.628,167.436L599.613,158.851L602.604,156.892L605.577,154.186L606.393,154.666L608.757,158.289L611.755,158.263L613.098,158.941L613.932,157.196L616.682,158.461L616.033,160.158L621.21,162.522L620.625,165.294L621.878,167.247L626.909,168.023L627.317,166.823L629.174,167.007L635.28,169.333L634.97,167.788L636.11,166.141L634.744,160.234L635.749,160.048L638.029,162.279L640.66,162.065L640.571,158.712L652.62,163.964L653.054,161.559L652.889,157.8L653.371,155.444L657.502,154.225L656.805,163.373L655.945,166.154L655.388,168.206L653.094,176.692L650.196,175.844L649.816,174.028L644.034,171.659L642.972,170.979L642.912,169.232L640.739,168.678L640.406,170.757L638.364,172.513L637.33,175.141L636.225,176.45L629.948,178.524L628.741,179.673L627.754,182.349L626.019,183.518L625.298,186.626L623.35,192.072L625.024,196.303L624.64,198.595L623.039,198.598L621.717,196.829L621.343,194.88L618.83,193.496L617.597,193.501L615.115,196.406L612.812,197.383L611.272,195.095L605.268,192.699L606.925,187.317L605.872,184.539L605.458,181.256L605.733,179.044Z"/>
<path region="18" short-name="General Assembly District 19" long-name="General Assembly District 19" value="2" d="M564.807,279.084L575.246,275.406L575.281,278.845L580.455,281.319L589.383,276.959L589.48,274.823L594.353,274.881L596.102,273.175L598.226,274.254L603.056,271.427L603.771,273.176L606.104,274.523L605.661,275.068L605.65,281.383L606.015,286.833L604.802,289.73L601.039,289.147L599.385,291.455L595.776,294.449L595.449,296.293L597.246,301.412L599.477,306.123L597.554,311.738L597.385,314.997L596.464,317.212L595.66,321.869L598.252,325.212L599.276,328.383L601.149,330.683L602.436,330.841L600.655,332.799L599.696,335.109L600.373,336.132L598.227,339.443L588.296,336.276L586.11,341.913L583.697,346.704L575.558,357.111L574.914,355.337L576.603,353.944L575.689,352.079L576.52,350.421L574.986,349.589L574.803,347.901L572.177,345.202L570.624,345.094L567.618,342.481L564.124,341.484L564.482,337.788L565.53,336.669L565.218,333.45L566.464,331.651L567.825,331.594L568.419,334.929L569.419,335.458L571.127,334.241L571.69,332.8L571.699,329.818L576.227,328.896L578.953,325.972L575.743,316.505L576.452,313.075L576.115,311.1L577.832,310.532L578.757,308.52L573.194,302.151L570.848,294.693L569.983,294.44L568.583,292.129Z"/>
<path region="19" short-name="General Assembly District 06" long-name="General Assembly District 06" value="2" d="M417.405,584.277L421.115,581.064L425.335,584.135L427.867,585.174L429.771,587.392L432.158,587.104L434.785,589.673L436.057,592.594L431.777,598.091L435.023,599.789L438.844,599.51L441.109,601.524L443.335,604.565L444.932,607.49L451.801,611.21L461.187,631.029L465.599,640.496L469.12,647.654L466.814,653.938L462.739,655.327L460.467,654.617L458.968,655.448L455.81,653.303L451.127,661.895L449.417,660.397L446.272,658.854L444.555,658.632L439.307,658.997L437.898,659.541L434.352,653.187L430.876,650.651L429.198,645.306L427.109,642.533L425.279,641.151L426.979,639.807L425.681,635.833L423.198,636.081L422.051,633.466L420.844,632.384L418.866,633.604L418.132,630.358L420.292,628.339L417.712,625.494L420.297,622.992L419.291,619.065L416.915,620.159L414.624,617.876L411.569,616.703L409.391,614.139L407.168,615.912L405.768,617.901L404.219,617.142L403.819,618.733L402.028,618.892L403.215,620.877L401.519,621.338L400.33,620.036L398.602,620.378L398.66,617.624L400.371,616.132L398.972,613.659L400.335,612.691L402.074,613.822L405.762,611.28L408.005,612.456L408.139,611.001L410.559,610.522L410.804,608.91L406.902,604.313L410.702,594.549L412.563,594.003L413.541,592.66L416.439,590.714L420.411,589.228L418.637,587.392Z"/>
<path region="20" short-name="General Assembly District 18" long-name="General Assembly District 18" value="2" d="M537.667,364.03L539.687,362.074L539.27,360.127L541.277,357.366L541.444,355.06L543.453,354.621L545.351,352.286L544.742,350.178L546.415,349.233L544.981,346.204L545.955,344.105L549.102,345.3L551.252,341.478L553.287,340.591L552.699,338.298L553.613,336.77L554.182,333.363L555.728,334.498L557.516,334.393L559.789,331.531L557.345,329.275L552.297,329.901L550.856,332.042L548.685,332.911L546.62,332.221L545.551,330.065L543.39,327.89L541.638,327.032L542.609,322.794L546.207,317.315L549.146,314.926L549.449,308.993L543.535,309.231L540.57,306.073L538.622,304.854L539.58,303.699L537.924,299.728L535.008,290.94L535.855,289.302L564.807,279.084L568.583,292.129L569.983,294.44L570.848,294.693L573.194,302.151L578.757,308.52L577.832,310.532L576.115,311.1L576.452,313.075L575.743,316.505L578.953,325.972L576.227,328.896L571.699,329.818L571.69,332.8L571.127,334.241L569.419,335.458L568.419,334.929L567.825,331.594L566.464,331.651L565.218,333.45L565.53,336.669L564.482,337.788L564.124,341.484L567.618,342.481L570.624,345.094L572.177,345.202L574.803,347.901L574.986,349.589L576.52,350.421L575.689,352.079L576.603,353.944L574.914,355.337L575.558,357.111L577.062,357.684L574.107,359.517L575.172,361.661L572.889,361.395L572.204,362.497L570.34,361.502L565.579,365.033L562.566,366.823L564.14,368.534L566.538,369.533L560.951,374.528L559.519,373.618L556.471,380.827L551.894,379.2L554.303,374.572L555.059,372.237L550.755,367.063L549.062,368.241L544.568,367.019L542.646,365.27L540.208,364.819L538.628,365.344Z"/>
<path region="21" short-name="General Assembly District 39" long-name="General Assembly District 39" value="2" d="M553.402,57.084L563.212,59.96L580.44,65.335L597.502,70.743L633.417,82.188L658.69,90.34L661.306,89.774L662.121,96.098L662.02,99.125L661.781,106.303L661.844,119.13L661.605,123.556L661.509,125.317L658.863,124.259L646.467,118.563L644.356,120.441L641.552,121.276L641.396,120.108L634.304,122.237L632.088,122.583L631.385,118.538L633.536,118.073L632.836,114.364L629.861,114.889L625.192,114.433L627.233,111.951L627.445,110.351L624.905,110.006L620.914,110.105L621.485,114.054L617.915,113.593L618.029,110.173L616.79,110.071L616.601,112.438L615.429,113.206L611.204,110.496L607.876,110.336L606.736,106.283L603.447,105.602L595.824,105.701L593.309,102.062L589.474,102.743L589.892,107.307L591.509,107.373L590.886,111.204L589.865,113.123L588.673,113.314L587.383,111.379L585.513,111.859L584.082,111.028L584.637,109.596L582.426,106.485L585.375,105.632L587.336,102.668L582.946,102.518L583.304,101.278L582.967,97.743L580.896,98.254L580.278,96.611L577.916,98.817L576.197,97.841L575.306,96.349L573.646,96.154L571.811,94.774L564.957,91.961L555.72,114.058L555.573,116.773L548.967,109.845L548.035,109.254L546.044,107.993L548.534,89.164Z"/>
<path region="22" short-name="General Assembly District 34" long-name="General Assembly District 34" value="2" d="M607.368,177.965L605.733,179.044L605.458,181.256L605.872,184.539L606.925,187.317L605.268,192.699L605.647,195.423L604.241,195.443L599.727,193.915L597.852,193.692L596.712,195.999L596.138,198.502L594.625,200.3L593.673,207.018L592.548,210.886L591.115,211.78L586.994,213.019L586.871,214.629L584.575,214.582L584.897,212.501L582.459,213.327L575.537,211.72L576.65,207.228L577.675,207.522L579.218,202.218L581.637,199.001L583.008,196.501L583.767,196.99L588.832,170.019Z"/>
<path region="23" short-name="General Assembly District 30" long-name="General Assembly District 30" value="2" d="M703.383,421.382L703.84,425.071L703.738,433.276L702.107,432.949L700.216,434.437L694.305,438.152L693.519,438.925L694.439,440.739L694.318,445.277L696.633,446.599L698.388,446.584L697.893,450.105L696.016,449.932L694.772,453.237L693.578,457.757L692.143,459.01L692.087,460.83L690.755,464.403L688.977,466.286L685.616,463.094L684.895,460.603L682.234,455.25L680.299,452.878L678.743,452.136L669.414,470.569L668.02,470.855L668.575,472.668L669.965,474.069L669.707,476.424L671.038,478.785L669.438,479.118L670.243,485.445L670.141,487.559L671.294,489.597L673.833,501.472L641.612,493.793L634.538,469.596L639.386,471.421L638.62,464.093L636.784,462.518L635.238,459.411L633.492,458.165L631.464,458.053L630.73,455.232L630.796,453.388L629.274,450.905L627.58,450.48L623.174,436.669L625.123,429.579L629,418.059L631.804,410.214L636.878,410.015L662.95,407.902L664.15,410.849L664.816,414.233L664.73,417.253L665.502,419.074L667.047,420.179L671.047,421.561L673.432,421.4L676.142,423.214L679.139,423.719L680.238,423.294L684.647,424.642L685.111,425.52L687.857,426.012L689.265,427.878L694.522,429.459L696.054,428.815L696.287,426.535L699.021,426.789L699.192,421.56L700.26,422.238Z"/>
<path region="24" short-name="General Assembly District 33" long-name="General Assembly District 33" value="2" d="M624.64,198.595L625.024,196.303L623.35,192.072L625.298,186.626L626.019,183.518L627.754,182.349L628.741,179.673L629.948,178.524L636.225,176.45L637.33,175.141L638.364,172.513L640.406,170.757L640.739,168.678L642.912,169.232L642.972,170.979L644.034,171.659L649.816,174.028L650.196,175.844L653.094,176.692L652.52,178.816L649.399,190.318L648.151,195.337L642.663,195.637L641.678,199.561L640.231,199.109L639.32,197.445L636.379,196.304L634.14,193.381L633.545,194.911L629.809,199.015L630.189,201.158L629.356,202.336L625.932,203.906L624.054,202.401Z"/>
<path region="25" short-name="General Assembly District 35" long-name="General Assembly District 35" value="2" d="M590.446,130.107L591.837,130.246L593.256,131.845L593.279,134.587L594.947,136.907L596.98,136.757L599.484,135.344L600.432,136.933L602.233,135.762L603.06,137.277L608.099,144.688L608.354,147.289L610.06,149.869L612.496,148.368L612.479,151.917L611.765,154.33L612.824,155.898L611.755,158.263L608.757,158.289L606.393,154.666L605.577,154.186L604.152,152.737L601.184,151.657L600.812,147.908L591.959,152.301L591.04,151.133L586.486,148.987L586.435,148.253L579.376,147.172L575.36,144.144L576.032,141.24L575.795,137.829L576.711,135.929L572.808,122.212L567.666,119.03L580.185,117.426L582.575,123.146L583.685,129.603L583.404,131.625L585.511,134.521L586.807,132.723L589.033,132Z"/>
<path region="26" short-name="General Assembly District 21" long-name="General Assembly District 21" value="2" d="M450.512,252.448L456.724,248.869L480.923,234.95L485.208,232.671L486.302,233.295L488.187,236.631L489.551,240.597L489.505,241.999L492.17,241.354L495.916,243.594L496.109,246.452L498.815,248.514L498.652,250.274L501.123,250.994L503.067,252.774L503.42,254.103L512.7,247.797L520.943,241.709L516.646,230.958L516.711,227.493L517.676,219.382L520.338,221.143L520.322,225.996L522.766,227.383L524.123,228.801L532.081,229.539L532.929,228.774L535.04,223.989L538.14,221.703L543.288,222.766L543.733,224.212L542.253,227.315L546.447,227.903L550.078,229.511L552.792,231.344L558.251,233.211L560.762,231.694L563.319,232.993L565.258,233.238L566.969,231.989L567.482,233.792L566.219,235.329L566.805,236.527L564.911,237.526L566.172,241.201L564.948,243.151L566.444,247.739L562.96,249.241L563.187,251.173L562.81,255.369L563.92,257.796L565.631,256.585L568.1,257.712L566.273,261.013L567.027,262.989L569.475,264.135L567.028,270.301L564.044,270.121L563.382,271.536L560.982,270.439L557.152,268.035L554.878,267.093L550.751,261.282L543.328,253.009L540.535,255.518L539.517,259.01L540.262,259.849L540.696,263.089L540.157,266.242L540.301,268.86L538.456,269.929L531.488,276.73L530.646,278.507L526.161,285.664L529.281,288.762L527.788,290.432L529.651,291.867L530.549,291.171L529.914,292.05L532.01,293.679L530.503,297.31L527.814,298.284L527.133,296.379L524.324,300.21L525.264,301.808L523.42,303.246L520.737,306.705L518.171,309.247L516.946,309.502L514.785,311.98L512.359,310.883L512.787,309.73L511.785,307.291L512.789,304.498L514.643,300.741L513.201,299.351L507.524,296.74L505.483,292.825L502.754,294.125L499.808,294.336L496.599,292.788L489.04,289.75L480.04,284.158L474.69,281.326L474.255,280.794L467.805,268.865L465.312,268.463L462.31,264.083L457.236,265.99L454.676,265.302L452.882,259.349L451.561,256.894Z"/>
<path region="27" short-name="General Assembly District 22" long-name="General Assembly District 22" value="2" d="M566.444,247.739L566.425,249.557L568.166,250.072L572.791,248.492L574.628,250.018L575.225,251.322L578.017,249.615L577.542,248.677L582.47,246.529L585.93,247.859L587.057,249.463L576.471,254.04L577.969,257.234L584.188,261.167L585.191,258.481L587.255,257.101L589.935,254.486L592.065,251.841L603.417,258.062L602.704,261.443L603.905,264.385L604.722,269.686L606.628,271.009L606.839,272.881L606.104,274.523L603.771,273.176L603.056,271.427L598.226,274.254L596.102,273.175L594.353,274.881L589.48,274.823L589.383,276.959L580.455,281.319L575.281,278.845L575.246,275.406L564.807,279.084L535.855,289.302L530.549,291.171L529.651,291.867L527.788,290.432L529.281,288.762L526.161,285.664L530.646,278.507L531.488,276.73L538.456,269.929L540.301,268.86L540.157,266.242L540.696,263.089L540.262,259.849L539.517,259.01L540.535,255.518L543.328,253.009L550.751,261.282L554.878,267.093L557.152,268.035L560.982,270.439L563.382,271.536L564.044,270.121L567.028,270.301L569.475,264.135L567.027,262.989L566.273,261.013L568.1,257.712L565.631,256.585L563.92,257.796L562.81,255.369L563.187,251.173L562.96,249.241Z"/>
<path region="28" short-name="General Assembly District 27" long-name="General Assembly District 27" value="2" d="M545.833,184.399L553.651,186.247L555.185,187.204L555.889,185.873L558.731,187.169L560.895,189.134L562.526,189.282L563.888,190.401L564.979,184.945L566.405,185.346L570.649,184.667L577.171,187.41L577.593,184.921L577.157,182.59L578.441,180.601L579.636,176.17L579.529,174.675L581.023,169.857L580.911,166.654L583.52,166.713L583.643,162.784L585.094,158.96L586.151,153.944L585.879,152.48L586.486,148.987L591.04,151.133L591.959,152.301L600.812,147.908L601.184,151.657L604.152,152.737L605.577,154.186L602.604,156.892L599.613,158.851L599.628,167.436L601.109,168.802L608.535,171.68L609.099,173.331L608.987,176.361L607.368,177.965L588.832,170.019L583.767,196.99L583.008,196.501L581.637,199.001L579.218,202.218L577.675,207.522L576.65,207.228L575.537,211.72L571.383,210.906L565.105,214.421L564.77,216.641L569.934,228.335L567.569,229.818L566.969,231.989L565.258,233.238L563.319,232.993L560.762,231.694L558.251,233.211L552.792,231.344L550.078,229.511L546.447,227.903L542.253,227.315L543.733,224.212L543.288,222.766L544.859,221.785L545.04,220.131L539.039,219.039L540.152,217.419L539.941,214.337L538.762,212.291L539.913,210.471L538.641,205.32L538.999,202.687L540.194,202.168L542.229,198.471L542.117,196.718L543.754,195.47L545.403,195.352L546.459,191.414L545.074,189.136L546.351,187.812Z"/>
<path region="29" short-name="General Assembly District 32" long-name="General Assembly District 32" value="2" d="M629.356,202.336L630.189,201.158L629.809,199.015L633.545,194.911L634.14,193.381L636.379,196.304L639.32,197.445L640.231,199.109L641.678,199.561L642.663,195.637L648.151,195.337L648.424,200.587L648.944,210.588L648.955,210.808L647.182,211.619L646.575,215.441L644.296,215.639L642.196,213.146L636.765,212.233L636.418,213.977L632.092,211.169L629.293,210.892L626.459,209.995L627.325,208.009L630.546,205.188L630.707,203.384Z"/>
<path region="30" short-name="General Assembly District 20" long-name="General Assembly District 20" value="2" d="M566.444,247.739L564.948,243.151L566.172,241.201L564.911,237.526L566.805,236.527L566.219,235.329L567.482,233.792L566.969,231.989L567.569,229.818L569.934,228.335L579.53,229.821L583.229,229.863L582.799,234.296L584.123,235.781L586.048,235.838L587.808,239.439L589.228,239.225L593.254,242.926L594.489,237.747L595.744,235.709L598.352,236.761L599.47,236.471L607.973,233.744L609.098,232.823L611.659,234.017L612.866,233.749L616.523,235.625L618.529,237.54L616.7,243.896L614.163,243.311L611.206,248.335L608.549,250.995L607.204,251.623L604.417,255.886L603.417,258.062L592.065,251.841L589.935,254.486L587.255,257.101L585.191,258.481L584.188,261.167L577.969,257.234L576.471,254.04L587.057,249.463L585.93,247.859L582.47,246.529L577.542,248.677L578.017,249.615L575.225,251.322L574.628,250.018L572.791,248.492L568.166,250.072L566.425,249.557Z"/>
<path region="31" short-name="General Assembly District 04" long-name="General Assembly District 04" value="2" d="M401.941,672.303L404.082,670.339L405.219,670.591L405.954,667.112L411.3,662.397L411.372,659.413L413.334,658.635L415.114,654.243L411.304,651.477L409.599,648.52L410.766,645.45L409.788,644.195L410.068,642.809L408.466,641.117L409.39,639.906L418.866,633.604L420.844,632.384L422.051,633.466L423.198,636.081L425.681,635.833L426.979,639.807L425.279,641.151L427.109,642.533L429.198,645.306L430.876,650.651L434.352,653.187L437.898,659.541L439.307,658.997L444.555,658.632L446.272,658.854L449.417,660.397L451.127,661.895L455.81,653.303L458.968,655.448L460.467,654.617L462.739,655.327L466.814,653.938L469.12,647.654L470.383,647.942L472.087,650.226L473.799,650.455L477.99,649.727L479.773,648.101L484.245,645.93L487.283,644.026L494.721,643.158L495.34,643.859L498.972,644.125L505.013,647.928L507.24,649.842L509.088,652.414L510.464,652.44L512.62,655.08L514.718,656.251L518.357,657.277L525.477,660.949L506.347,696.192L491.865,722.864L513.484,735.205L503.485,753.525L505.378,757.394L522.47,791.566L516.948,794.376L516.492,792.689L510.974,789.336L501.745,784.237L481.514,772.449L440.576,748.615L413.796,732.643L420.161,723.547L436.646,712.484L441.294,708.51L433.269,703.992L421.078,696.889L418.869,694.428L418.177,691.559L416.564,690.678L415.997,689.252L412.779,686.66L410.642,685.741L409.049,683.307L406.475,681.413L406.324,678.171L406.764,674.83L405.734,673.016L402.63,672.843Z"/>
<path region="32" short-name="General Assembly District 09" long-name="General Assembly District 09" value="2" d="M575.918,545.821L595.825,530.126L614.414,515.263L638.553,496.22L641.282,497.711L643.148,500.519L644.277,504.301L648.684,508.172L650.31,510.898L652.007,512.121L653.903,515.223L653.84,516.862L643.938,522.611L643.114,524.058L649.894,526.337L653.015,528.591L663.096,533.876L665.458,533.878L665.452,537.679L660.74,537.403L664.192,541.882L668.302,540.603L671.613,535.277L673.472,535.839L676.097,535.735L678.576,534.619L681.904,534.863L688.039,536.543L690.776,536.065L703.402,528.697L705.099,527.488L705.401,533.813L706.337,533.715L707.069,536.282L706.533,540.732L709.375,540.524L711.637,561.287L715.44,586.918L716.677,600.195L716.504,603.104L717.366,605.09L716.744,607.595L715.073,610.345L713.846,615.075L710.619,635.243L701.625,664.836L693.143,696.44L691.161,700.104L688.637,707.843L687.749,708.519L683.533,717.258L682.168,719.002L672.199,721.738L671.557,722.516L667.772,723.171L663.109,724.799L661.373,726.711L655.63,729.528L645.552,715.084L642.292,711.925L639.992,711.309L638.939,708.378L639.507,706.661L637.431,704.223L638.134,702.94L641.528,702.525L642.608,701.147L643.053,698.682L642.725,697.169L643.126,691.521L643.555,690.723L640.689,678.247L627.202,619.085L608.357,592.728L605.981,589.123L588.73,564.417Z"/>
<path region="33" short-name="General Assembly District 28" long-name="General Assembly District 28" value="2" d="M575.537,211.72L582.459,213.327L584.897,212.501L584.575,214.582L586.871,214.629L586.994,213.019L591.115,211.78L590.8,214.377L591.596,215.481L593.624,215.599L593.435,220.604L597.605,221.145L598.343,221.618L598.379,225.554L600.718,225.189L598.637,235.821L599.47,236.471L598.352,236.761L595.744,235.709L594.489,237.747L593.254,242.926L589.228,239.225L587.808,239.439L586.048,235.838L584.123,235.781L582.799,234.296L583.229,229.863L579.53,229.821L569.934,228.335L564.77,216.641L565.105,214.421L571.383,210.906Z"/>
<path region="34" short-name="General Assembly District 29" long-name="General Assembly District 29" value="2" d="M591.115,211.78L592.548,210.886L593.673,207.018L594.625,200.3L596.138,198.502L596.712,195.999L597.852,193.692L599.727,193.915L604.241,195.443L605.647,195.423L604.263,199.609L604.14,201.646L603.246,203.868L603.077,206.741L606.091,207.37L606.316,206.183L609.133,206.531L610.946,209.477L612.748,210.123L616.902,208.878L619.115,210.478L619.319,217.297L619.931,218.801L619.608,220.968L621.1,223.915L619.544,230.36L617.916,231.248L616.523,235.625L612.866,233.749L611.659,234.017L609.098,232.823L607.973,233.744L599.47,236.471L598.637,235.821L600.718,225.189L598.379,225.554L598.343,221.618L597.605,221.145L593.435,220.604L593.624,215.599L591.596,215.481L590.8,214.377Z"/>
<path region="35" short-name="General Assembly District 38" long-name="General Assembly District 38" value="2" d="M607.876,110.336L611.204,110.496L615.429,113.206L616.601,112.438L616.79,110.071L618.029,110.173L617.915,113.593L621.485,114.054L620.914,110.105L624.905,110.006L627.445,110.351L627.233,111.951L625.192,114.433L629.861,114.889L632.836,114.364L633.536,118.073L631.385,118.538L632.088,122.583L634.304,122.237L641.396,120.108L641.552,121.276L641.418,124.066L642.177,126.501L642.329,130.518L639.931,131.531L637.087,131.58L636.459,133.415L632.402,132.825L630.718,131.113L629.672,131.772L627.192,135.293L623.389,134.547L621.904,137.298L621.443,139.621L621.639,143.908L620.658,146.262L620.581,150.971L623.363,152.223L624.575,150.884L626.769,150.748L631.224,155.78L633.014,155.464L634.512,156.833L634.744,160.234L636.11,166.141L634.97,167.788L635.28,169.333L629.174,167.007L627.317,166.823L626.909,168.023L621.878,167.247L620.625,165.294L621.21,162.522L616.033,160.158L616.682,158.461L613.932,157.196L613.098,158.941L611.755,158.263L612.824,155.898L611.765,154.33L612.479,151.917L612.496,148.368L610.06,149.869L608.354,147.289L608.099,144.688L603.06,137.277L602.233,135.762L600.432,136.933L599.484,135.344L596.98,136.757L594.947,136.907L593.279,134.587L593.256,131.845L591.837,130.246L590.446,130.107L590.176,124.035L590.217,119.642L591.145,116.72L595.596,115.651L599.469,117.034L600.793,118.009L601.487,120.27L603.569,121.312L604.696,119.158L603.654,117.447L603.195,115.167L604.209,113.672L603.43,110.936L603.908,110.346Z"/>
<path region="36" short-name="General Assembly District 10" long-name="General Assembly District 10" value="2" d="M638.553,496.22L641.612,493.793L673.833,501.472L671.294,489.597L670.141,487.559L670.243,485.445L669.438,479.118L671.038,478.785L669.707,476.424L669.965,474.069L668.575,472.668L668.02,470.855L669.414,470.569L678.743,452.136L680.299,452.878L682.234,455.25L684.895,460.603L685.616,463.094L688.977,466.286L690.755,464.403L692.087,460.83L692.143,459.01L693.578,457.757L694.772,453.237L696.016,449.932L697.893,450.105L698.388,446.584L696.633,446.599L694.318,445.277L694.439,440.739L693.519,438.925L694.305,438.152L700.216,434.437L702.107,432.949L703.738,433.276L703.496,452.433L704.21,460.379L704.653,461.574L704.584,469.732L706.919,512.898L708.613,527.941L709.375,540.524L706.533,540.732L707.069,536.282L706.337,533.715L705.401,533.813L705.099,527.488L703.402,528.697L690.776,536.065L688.039,536.543L681.904,534.863L678.576,534.619L676.097,535.735L673.472,535.839L671.613,535.277L668.302,540.603L664.192,541.882L660.74,537.403L665.452,537.679L665.458,533.878L663.096,533.876L653.015,528.591L649.894,526.337L643.114,524.058L643.938,522.611L653.84,516.862L653.903,515.223L652.007,512.121L650.31,510.898L648.684,508.172L644.277,504.301L643.148,500.519L641.282,497.711Z"/>
<path region="37" short-name="General Assembly District 01" long-name="General Assembly District 01" value="2" d="M440.576,748.615L481.514,772.449L501.745,784.237L510.974,789.336L516.492,792.689L516.948,794.376L522.47,791.566L555.45,774.851L555.767,776.339L557.207,778.102L557.383,779.823L560.486,782.023L560.695,783.061L560.112,788.033L560.849,789.587L561.808,795.412L560.894,797.043L560.903,799.04L563.214,803.297L563.029,805.719L565.546,806.775L565.435,809.078L568.98,813.879L572.277,815.49L572.384,817.612L573.475,819.453L575.312,819.747L577.784,819.292L579.539,820.097L581.017,819.115L581.934,819.899L582.459,822.042L584.8,820.27L586.061,821.573L588.906,822.147L588.838,826.283L593.244,827.487L594.951,829.741L597.277,829.577L600.039,830.091L601.964,829.187L608.558,820.941L611.083,820.569L614.938,822.768L616.777,823.427L620.256,822.738L622.452,820.987L622.561,821.239L621.442,821.904L622.499,824.473L622.758,827.432L621.079,831.5L615.756,835.776L611.55,841.911L606.484,850.779L603.111,859.634L600.896,864.935L599.654,871.205L598.307,873.049L596.053,878.954L591.784,893.515L589.564,904.435L588.378,906.245L588.918,908.324L592.538,910.382L592.54,912.477L585.416,926.015L582.787,934.783L578.87,945.551L577.089,947.182L573.793,946.312L571.049,950.015L572.635,951.587L573.654,954.723L575.281,956.365L576.857,959.453L575.481,962.665L568.326,972.649L561.493,982.691L558.552,989.369L556.4,988.522L552.349,989.919L546.164,995.748L542.295,997.837L538.286,999.003L536.895,998.151L533.745,998.541L530.775,999.793L528.806,1000L527.426,999.366L525.333,996.877L526.092,987.42L525.141,984.77L524.921,971.063L525.43,964.832L527.088,956.142L533.006,932.575L533.779,927.561L534.079,921.377L533.142,915.656L533.722,915.198L532.513,910.159L533.339,908.59L531.564,902.524L526.333,897.542L524.751,896.901L521.297,896.832L520.433,897.421L517.18,895.959L509.943,895.238L508.081,894.482L505.133,894.362L501.074,895.166L492.766,897.611L491.511,897.247L485.582,898.072L484.543,895.812L485.565,894.259L483.741,890.158L484.793,887.562L483.789,886.299L481.576,885.425L481.379,887.615L479.532,887.499L477.77,888.207L476.752,890.863L469.095,893.048L466.536,894.354L463.004,895.276L460.684,893.695L458.322,893.655L457.634,895.522L455.433,896.934L454.427,901.72L453.073,902.453L454.568,906.399L452.953,907.944L450.393,908.887L447.342,908.165L445.05,905.468L443.683,905.36L441.229,903.871L440.922,901.991L441.571,899.105L440.047,897.488L439.869,896.049L438.24,892.555L436.712,890.19L432.849,887.508L430.142,888.065L427.24,885.496L426.626,884.419L424.025,882.477L421.965,882.877L411.979,880.273L411.015,877.733L412.278,875.981L410.391,875.607L408.277,873.077L406.565,871.979L406.524,870.326L398.482,870.15L396.43,870.385L395.767,872.584L396.775,873.24L396.906,875.914L396.046,876.364L392.78,874.878L386.068,870.499L380.752,862.345L379.889,859.527L377.902,858.775L377.253,857.681L374.423,856.877L371.815,856.946L369.961,858.263L370.124,859.798L368.83,860.236L368.001,858.643L369.249,856.499L366.812,856.58L366.709,854.36L368.73,853.324L369.21,851.846L368.338,849.908L370.564,848.789L369.926,846.57L367.931,845.927L369.699,843.366L372.234,844.685L374.203,844.615L375.065,843.489L373.607,841.722L374.69,840.568L376.918,842.407L378.36,841.093L378.203,838.472L380.991,838.176L382.619,841.123L385.347,840.678L386.029,842.447L388.482,842.517L388.368,840.541L389.187,839.557L391.379,840.521L391.373,838.155L393.367,837.303L393.924,839.433L396.069,837.908L396.532,839.864L397.627,839.903L398.685,838.364L400.79,839.206L401.763,838.12L404.398,837.376L406.553,835.584L405.907,833.434L406.113,831.128L405.123,828.076L403.356,827.49L402.745,824.216L399.948,825.231L399.11,824.11L396.254,823.335L393.202,812.188L394.576,810.469L398.038,810.243L399.337,810.71L401.081,809.175L403.652,805.157L404.782,804.655L407.858,812.619L410.971,812.109L411.832,811.079L415.065,810.111L416.082,811.232L426.222,811.547L429.097,809.234L430.92,809.377L438.802,806.096L440.537,803.611L444.938,800.643L443.945,799.291L444.865,796.076L443.936,795.233L444.52,792.986L443.85,792.161L443.672,789.054L444.649,783.262L443.823,780.443L441.207,777.098L441.765,775.499L440.768,772.71L440.865,769.751L441.429,767.332L440.232,762.585L440.364,760.848L438.906,759.272L439.536,755.493L440.238,754.015L439.968,752.268Z"/>
<path region="38" short-name="General Assembly District 37" long-name="General Assembly District 37" value="2" d="M641.552,121.276L644.356,120.441L646.467,118.563L658.863,124.259L661.509,125.317L660.925,136.081L660.353,138.974L657.605,152.873L657.502,154.225L653.371,155.444L652.889,157.8L653.054,161.559L652.62,163.964L640.571,158.712L640.66,162.065L638.029,162.279L635.749,160.048L634.744,160.234L634.512,156.833L633.014,155.464L631.224,155.78L626.769,150.748L624.575,150.884L623.363,152.223L620.581,150.971L620.658,146.262L621.639,143.908L621.443,139.621L621.904,137.298L623.389,134.547L627.192,135.293L629.672,131.772L630.718,131.113L632.402,132.825L636.459,133.415L637.087,131.58L639.931,131.531L642.329,130.518L642.177,126.501L641.418,124.066Z"/>
<path region="39" short-name="General Assembly District 31" long-name="General Assembly District 31" value="2" d="M605.647,195.423L605.268,192.699L611.272,195.095L612.812,197.383L615.115,196.406L617.597,193.501L618.83,193.496L621.343,194.88L621.717,196.829L623.039,198.598L624.64,198.595L624.054,202.401L625.932,203.906L629.356,202.336L630.707,203.384L630.546,205.188L627.325,208.009L626.459,209.995L629.293,210.892L632.092,211.169L636.418,213.977L636.765,212.233L642.196,213.146L644.296,215.639L646.575,215.441L646.6,217.39L645.377,217.487L643.254,221.055L642.048,224.815L638.66,223.428L637.618,225.929L638.297,228.626L636.819,232.934L641.456,234.307L640.421,237.975L634.82,236.767L633.958,238.305L635.899,242.054L634.044,244.432L630.186,244.954L626.713,247.522L621.769,249.031L619.871,250.118L618.872,249.101L619.111,247.307L620.61,243.96L626.812,223.664L625.37,222.776L623.776,218.398L622.107,218.138L619.931,218.801L619.319,217.297L619.115,210.478L616.902,208.878L612.748,210.123L610.946,209.477L609.133,206.531L606.316,206.183L606.091,207.37L603.077,206.741L603.246,203.868L604.14,201.646L604.263,199.609Z"/>
    </g>
    </svg>