<svg viewBox="0 0 1000 1000" auto-border-stroke-width="1" auto-border-stroke-width-limit=".5" original-source="['https://www2.census.gov/geo/tiger/GENZ2022/shp/cb_2022_us_sldl_500k.zip']" candidates='[{"id":"0", "name":"Democrats", "margins": [{ "color": "#1C408C" }, { "color": "#577CCC" }, { "color": "#8AAFFF" }, { "color": "#949BB3" }]},{"id":"1", "name":"Republicans", "margins": [{ "color": "#BF1D29" }, { "color": "#FF5865" }, { "color": "#FF8B98" }, { "color": "#CF8980" }]}]'>
    <g regions>
    <path region="0" short-name="95" long-name="State House District 95" value="1" d="M628.267,649.766L630.75,649.781L631.339,650.222L633.116,650.476L633.968,650.719L634.356,651.458L634.472,652.591L633.968,655.05L633.621,656.496L633.871,657.274L633.605,657.274L628.428,657.255L626.894,658.045L626.595,656.426L626.603,653.441L626.168,652.259L625.768,651.633L628.254,651.636Z"/>
<path region="1" short-name="100" long-name="State House District 100" value="1" d="M616.17,642.337L621.038,642.31L623.473,642.313L623.422,647.278L620.99,647.252L620.925,652.282L618.481,652.286L618.573,644.814L616.112,644.832Z"/>
<path region="2" short-name="18" long-name="State House District 18" value="1" d="M976.655,417.986L984.371,417.831L984.42,421.591L983.487,421.585L983.553,424.745L982.328,424.775L982.34,425.486L981.12,425.428L981.145,426.684L979.403,426.674L978.689,426.281L978.642,423.101L978.607,421.439L978.128,420.116L977.704,419.864L977.193,418.465Z"/>
<path region="3" short-name="3" long-name="State House District 3" value="1" d="M998.962,691.063L999.03,698.612L999.143,706.653L999.195,711.083L992.678,711.204L977.694,711.256L977.618,703.845L977.383,691.322L983.422,691.23L983.039,689.297L983.479,689.509L983.887,691.218L984.744,691.197L984.783,693.548L985.974,693.086L985.97,691.183L986.598,691.849L986.619,693.066L987.715,693.058L987.726,693.693L990.924,693.686L990.909,692.031L992.168,691.792L992.426,691.162Z"/>
<path region="4" short-name="81" long-name="State House District 81" value="1" d="M643.605,657.668L643.851,657.673L645.18,657.691L645.151,658.925L648.838,658.991L648.938,660.248L659.706,660.34L659.594,672.851L647.334,672.789L647.333,673.931L644.948,674.019L644.967,672.76L643.08,672.734L642.108,668.007L641.486,666.491L641.206,665.238L640.654,661.91L640.431,661.326L639.011,659.329L638.697,657.632Z"/>
<path region="5" short-name="125" long-name="State House District 125" value="1" d="M190.272,688.701L192.802,688.833L192.346,696.312L211.785,697.272L211.418,704.782L218.701,705.124L218.483,710.12L218.252,714.023L217.458,732.561L216.517,755.377L216.423,756.522L200.626,755.859L190.099,755.453L175.992,754.924L165.257,754.38L159.687,754.175L153.098,753.848L147.58,753.632L138.553,753.154L131.309,752.814L132.371,730.726L133.119,715.754L134.213,694.611L134.661,685.829L156.433,686.979L175.26,687.956Z"/>
<path region="6" short-name="110" long-name="State House District 110" value="1" d="M273.631,242.444L286.174,242.998L297.775,243.498L303.302,243.676L305.592,243.822L320.714,244.458L325.595,244.61L328.023,244.759L329.345,244.729L344.631,245.315L360.988,245.901L363.709,246.015L371.099,246.228L373.705,246.373L388.269,246.889L403.894,247.425L411.173,247.619L417.182,247.819L416.695,262.637L416.651,265.044L416.273,277.557L415.813,292.531L415.35,307.514L414.878,322.42L417.716,322.527L417.662,325.311L417.231,337.562L416.887,343.744L416.64,352.465L416.37,357.451L416.061,364.829L415.724,367.392L415.628,374.847L415.312,382.396L414.889,397.295L416.223,397.32L416.137,398.713L415.617,413.177L415.04,427.397L414.47,442.342L414.501,443.611L413.613,463.194L413.15,472.316L398.7,471.803L376.706,471.091L362.313,470.607L341.755,469.872L340.014,469.81L340.283,464.842L341.178,447.402L342.05,428.445L342.309,422.489L343.201,404.127L343.708,394.921L341.954,394.833L327.322,394.305L312.433,393.753L302.515,393.373L293.229,392.963L285.641,392.707L268.838,391.914L269.791,372.034L271.081,347.1L271.943,327.161L272.445,317.147L270.014,317.107L270.722,302.165L271.215,291.036L271.367,286.951L271.701,279.797L272.232,269.862L272.319,267.368L272.802,257.44L273.551,243.187ZM370.205,442.336L370.186,444.995L371.333,445.923L377.71,446.139L377.617,448.629L382.522,448.819L392.244,449.098L402.037,449.444L402.489,448.465L403.615,449.004L403.699,449.503L404.466,449.534L404.695,444.529L404.733,441.488L403.602,440.923L402.669,440.723L398.843,440.581L394.131,440.09L391.049,440.102L389.648,440.241L387.741,440.203L387.802,438.991L385.396,438.926L385.626,433.93L380.747,433.777L380.86,431.263L371.202,430.943L371.089,432.255L370.247,433.771Z"/>
<path region="7" short-name="84" long-name="State House District 84" value="1" d="M637.842,645.104L640.406,645.122L640.389,646.37L642.844,646.383L642.833,647.634L642.779,652.962L641.394,652.945L640.32,653.254L640.332,651.395L637.89,651.388L636.671,651.382L636.712,647.599L637.582,647.61L637.272,646.261Z"/>
<path region="8" short-name="89" long-name="State House District 89" value="1" d="M638.055,637.918L638.057,637.513L640.511,637.552L640.536,635.046L645.413,635.109L645.343,642.642L646.435,642.65L646.427,645.16L645.312,645.147L645.28,647.656L642.833,647.634L642.844,646.383L640.389,646.37L640.406,645.122L637.842,645.104L638.054,643.369L638.008,641.991Z"/>
<path region="9" short-name="12" long-name="State House District 12" value="1" d="M680.968,752.812L688.243,752.914L688.248,749.184L690.718,749.168L690.71,745.637L690.775,741.704L690.73,733.004L690.838,718.024L688.407,718.038L688.46,716.738L688.591,703.029L688.925,703.032L688.763,694.348L688.562,688.353L688.214,688.188L680.24,688.11L680.083,687.13L681.022,686.584L681.691,684.424L682.152,683.925L682.319,682.833L683.283,682.589L682.975,681.848L681.249,681.834L681.27,678.07L680.31,678.057L681.284,675.603L681.347,673.102L681.427,665.574L688.749,665.669L688.903,654.557L688.883,652.176L689.06,643.148L703.564,643.291L703.615,643.267L718.245,643.456L718.325,628.364L736.761,628.481L743.701,628.508L743.646,632.947L743.636,642.404L743.672,643.552L743.562,647.765L743.554,657.639L743.512,658.525L743.549,666.027L747.826,666.008L760.464,666.148L763.6,666.119L779.937,666.34L783.788,666.33L797.101,666.478L807.285,666.611L809.042,666.698L813.211,666.706L818.973,666.78L818.891,676.546L818.775,684.274L818.783,693.919L818.908,704.135L822.785,704.127L828.925,704.202L837.964,704.264L838.001,719.249L837.985,726.732L850.547,726.805L850.551,727.431L852.608,727.437L853.211,728.088L853.178,731.424L852.069,731.416L852.063,732.176L850.816,732.164L850.72,733.677L849.583,733.676L849.585,734.298L847.769,734.291L847.78,741.774L847.845,759.253L847.927,770.733L839.637,770.775L825.865,770.759L813.651,770.846L794.731,770.813L788.868,770.762L786.804,770.789L776.517,770.721L760.628,770.674L746.341,770.706L731.912,770.572L714.498,770.388L712.712,770.426L707.022,770.346L689.068,770.193L673.652,770.056L673.732,764.424L673.801,763.186L675.286,763.091L676.159,763.269L677.031,764.577L677.657,764.445L678.605,763.557L679.157,762.075L679.118,761.369L679.759,761.372L681.282,761.988L681.943,762.692L683.638,762.961L684.102,763.914L686.928,765.059L688.21,765.084L688.232,761.649L683.551,761.581L683.372,760.509L683.046,760.336L681.424,760.323L681.387,759.064L680.954,759.059Z"/>
<path region="10" short-name="15" long-name="State House District 15" value="1" d="M962.065,450.731L962.067,448.24L966.145,448.153L965.882,446.828L966.863,446.672L966.843,445.633L968.663,445.648L968.656,444.473L968.923,443.118L971.7,443.091L971.734,445.584L974.067,445.553L974.938,445.547L975.407,446.222L975.43,446.872L974.492,447.267L974.599,448.054L972.539,448.036L971.925,447.714L969.358,450.574L969.386,457.136L968.472,458.368L968.24,459.03L968.26,460.602L964.554,460.669L964.5,455.676L964.103,455.859L962.131,455.486Z"/>
<path region="11" short-name="32" long-name="State House District 32" value="1" d="M986.366,405.305L994.256,405.215L996.114,406.499L996.147,408.291L995.456,408.437L993.719,409.409L991.651,409.289L990.636,408.749L989.427,408.614L988.267,408.25L986.901,407.268L986.28,406.138Z"/>
<path region="12" short-name="42" long-name="State House District 42" value="1" d="M920.556,354.004L935.441,353.908L935.467,355.953L935.756,356.752L936.388,357.351L936.701,358.151L936.652,359.613L936.859,361.066L937.613,362.601L936.671,362.909L936.698,375.102L936.697,380.082L936.77,385.103L935.561,385.124L935.557,387.068L935.843,388.027L936.516,388.058L936.605,389.309L937.855,389.209L938.372,390.153L938.372,391.475L938.877,392.218L938.111,393.321L938.235,394.036L938.959,394.247L938.349,394.994L938.353,397.823L938.836,397.876L939.046,399.076L939.723,399.155L940.513,400.344L940.532,401.296L941.74,401.289L942.278,402.675L943.259,403.326L942.373,403.708L942.182,404.406L942.991,404.448L943.241,404.955L943.246,406.754L942.606,406.992L941.999,408.732L941.369,408.928L941.647,409.739L941.253,410.444L942.13,411.023L940.494,412.866L941.561,413.711L941.605,414.205L940.491,414.393L939.303,414.922L937.76,415.898L937.415,415.928L937.52,427.45L935.903,428.191L936.961,428.435L937.551,429.033L937.627,435.743L936.073,435.776L935.555,436L933.111,437.842L931.745,438.232L926.843,437.276L923.108,437.181L921.809,437.797L920.809,438.922L919.983,439.26L918.13,439.286L918.107,434.733L916.883,434.75L916.929,433.543L917.481,433.541L917.169,432.539L917.15,431.467L916.843,431.206L916.789,428.545L914.472,428.565L915.144,427.244L918.797,427.158L920.43,426.671L920.298,418.528L913.061,418.573L913.015,415.574L912.392,414.54L912.36,412.619L911.643,411.042L911.671,406.963L911.444,406.212L911.485,404.009L911.339,403.527L911.211,388.994L911.104,376.508L918.57,376.4L920.847,376.452L920.838,371.427L920.706,361.608L920.704,356.492Z"/>
<path region="13" short-name="55" long-name="State House District 55" value="1" d="M848.921,414.351L850.265,414.202L852.229,413.766L853.985,413.76L855.652,414.701L856.42,415.514L855.423,418.592L854.274,418.361L854.196,420.155L854.717,420.152L854.54,421.398L849.818,421.447L849.85,414.882L848.88,414.865Z"/>
<path region="14" short-name="61" long-name="State House District 61" value="1" d="M738.247,328.932L748.751,329.047L768.078,329.109L782.667,329.143L797.244,329.168L809.083,329.202L809.052,331.805L809.135,344.367L811.595,344.396L826.178,344.35L834.477,344.366L845.293,344.347L849.057,344.402L849.506,345.63L849.529,346.886L849.842,347.895L848.705,347.901L847.833,348.145L847.875,359.345L847.915,364.386L847.914,371.796L847.952,381.801L840.719,381.79L840.715,389.29L826.151,389.308L809.109,389.327L809.093,401.786L809.061,404.246L808.647,404.806L808.289,404.246L808.506,402.956L808.004,402.286L806.299,402.249L805.745,402.072L804.707,401.292L803.6,400.736L802.215,400.362L801.867,399.264L802.787,398.483L804.491,398.628L805.465,399.449L806.216,399.362L806.072,398.22L805.257,397.14L804.464,395.415L802.832,393.282L801.17,393.566L800.105,392.138L799.163,392.153L798.652,393.748L798.25,394.176L797.26,394.367L794.999,393.573L793.77,393.43L791.896,393.73L790.913,394.081L790.31,393.478L790.377,391.7L789.788,390.946L788.827,390.79L788.027,391.011L787.595,391.719L786.923,392.18L784.939,391.972L784.008,390.54L782.988,389.826L780.328,390.46L778.909,390.538L777.49,390.428L773.811,390.316L773.738,389.173L768.856,389.121L768.461,389.651L767.718,389.154L765.291,389.113L765.261,390.278L762.482,390.314L759.838,390.451L759.81,388.348L758.607,388.377L753.389,388.232L753.119,387.615L748.239,387.571L748.219,388.831L746.241,388.816L745.033,390.332L743.27,389.416L742.753,390.49L740.864,390.225L739.389,390.063L739.167,389.738L739.629,388.739L738.068,388.657L737.348,386.864L737.759,386.842L738.947,386.029L738.454,385.522L737.959,386.031L737.042,385.323L736.876,384.608L737.864,384.045L738.634,384.403L739.166,383.896L739.14,383.317L738.373,382.862L738.222,383.546L736.524,383.394L735.984,382.915L736.07,381.556L735.756,380.94L734.341,380.591L733.779,380.2L731.97,378.011L730.817,376.919L730.239,375.951L731.14,375.547L731.032,374.927L729.614,373.39L728.837,373.072L728.027,371.747L728.913,371.321L729.353,370.178L728.125,370.478L726.715,369.768L726.074,368.726L726.363,368.157L727.182,367.983L727.475,367.225L726.268,367.135L723.577,364.318L724.365,363.299L724.548,362.567L723.994,361.922L723.21,362.154L722.36,361.161L722.288,360.66L720.173,358.654L719.046,356.743L719.901,356.641L720.598,355.477L720.547,354.063L719.584,353.723L718.887,352.788L720.184,352.283L720.816,351.137L720.079,350.685L719.671,349.828L721.423,347.042L721.793,346.84L722.592,347.434L723.101,347.477L724.128,346.669L723.882,345.698L724.905,343.217L725.408,343.482L725.024,344.228L725.769,344.981L726.78,344.493L727.598,341.479L728.236,340.241L729.167,339.117L729.871,339.323L730.451,338.601L729.818,337.423L729.873,336.889L730.896,335.877L732.533,334.004L733.622,334.847L734.39,334.233L737.092,332.456L736.839,331.227L737.522,329.941Z"/>
<path region="15" short-name="106" long-name="State House District 106" value="1" d="M489.906,249.924L504.464,250.285L519.7,250.641L522.803,250.75L530.112,250.869L542.241,251.209L563.943,251.7L571.126,251.835L576.023,251.964L583.941,252.07L584.765,252.118L597.894,252.359L618.306,252.711L636.705,252.962L651.26,253.248L666.014,253.446L666.607,253.398L678.012,253.614L695.286,253.761L709.887,253.917L733.267,254.129L734.825,254.186L739.933,254.182L753.799,254.279L774.373,254.42L782.824,254.433L782.776,266.416L782.691,286.79L782.657,299.215L782.609,314.174L782.667,329.143L768.078,329.109L748.751,329.047L738.247,328.932L718.008,328.763L708.359,328.696L688.9,328.526L668.369,328.263L660.145,328.177L657.834,328.108L650.324,328.027L635.696,327.763L635.745,326.058L635.899,312.798L616.443,312.579L606.528,312.449L598.025,312.286L581.663,311.952L568.933,311.735L562.769,311.576L562.418,326.507L547.76,326.163L533.112,325.839L523.872,325.582L504.585,325.116L490.157,324.729L487.968,324.66L487.843,324.52L488.239,311.49L488.263,309.706L488.735,294.777L488.983,285.147L489.18,279.835L489.511,264.884L489.707,258.038L489.801,252.73Z"/>
<path region="16" short-name="8" long-name="State House District 8" value="1" d="M981.371,443.732L982.158,444.029L983.343,443.906L983.807,443.517L984.429,444.16L984.484,447.913L983.892,448.771L983.897,449.3L984.771,449.54L985.428,449.331L986.007,449.653L986.367,450.393L987.362,450.692L986.834,452.462L986.907,452.874L986.409,452.879L986.44,455.403L981.517,455.422L981.497,452.934L979.037,452.964L978.963,446.645L980.153,446.644L980.155,445.476L981.395,445.456Z"/>
<path region="17" short-name="17" long-name="State House District 17" value="1" d="M968.347,424.036L970.154,424.03L971.451,423.784L973.278,423.742L975.373,424.129L976.947,423.867L978.642,423.101L978.689,426.281L978.757,430.453L973.847,430.534L969.479,430.626L968.21,429.592L967.636,429.404L964.061,429.458L964.16,426.93L964.587,425.672L965.945,425.781L965.933,424.252L967.055,424.05Z"/>
<path region="18" short-name="53" long-name="State House District 53" value="1" d="M842.55,415.013L843.785,414.376L846.178,414.368L848.921,414.351L848.88,414.865L849.85,414.882L849.818,421.447L849.814,423.52L849.2,424.878L847.053,424.037L844.233,424.03L844.286,423.088L843.315,422.711L843.383,421.545L842.478,421.559L842.563,419.071Z"/>
<path region="19" short-name="99" long-name="State House District 99" value="1" d="M655.003,645.255L659.903,645.283L659.942,642.77L667.483,642.835L670.225,642.871L670.218,645.429L669.61,645.543L669.521,652.897L662.168,652.843L659.797,652.811L659.781,655.329L654.898,655.293L654.926,652.768Z"/>
<path region="20" short-name="5" long-name="State House District 5" value="1" d="M879.352,448.713L879.422,448.808L887.168,448.76L898.343,448.725L906.006,448.61L911.527,448.568L910.324,452.086L909.959,453.63L909.863,454.883L912.92,454.84L913.389,455.168L913.896,456.079L918.254,456.08L918.244,453.557L930.487,453.435L930.578,463.481L930.576,465.975L944.222,465.861L945.169,465.586L945.455,465.849L951.83,465.808L952.431,465.488L955.448,462.809L958.829,459.488L957.222,459.188L957.211,458.215L960.095,457.453L960.727,456.994L962.131,455.486L964.103,455.859L964.5,455.676L964.554,460.669L968.26,460.602L968.319,464.723L967.988,465.597L966.617,467.955L966.485,468.423L966.603,471.122L967.258,472.139L967.199,473.147L963.59,473.196L962.558,474.004L962.417,475.02L961.838,474.716L961.29,477.038L960.855,477.489L960.382,478.813L959.827,479.313L959.793,480.107L959.117,480.337L957.946,482.195L958.529,482.588L959.114,484.248L957.478,485.754L956.275,485.948L956.486,486.985L956.235,487.992L955.817,488.352L954.508,488.381L953.84,489.034L953.979,498.342L951.522,498.335L951.657,505.848L951.715,511.278L952.11,511.263L952.467,512.819L952.461,514.012L953.023,514.62L953.028,516.78L952.777,517.502L947.925,521.262L946.36,522.022L938.993,527.599L937.259,528.621L937.221,520.956L937.123,509.133L937.114,502.152L936.985,492.162L937.02,490.475L936.934,485.876L922.535,485.925L922.509,478.568L923.368,478.559L923.321,471.081L913.576,471.127L907.445,471.183L891.579,471.249L879.469,471.33L879.429,471.173L879.431,460.133L879.405,451.958Z"/>
<path region="21" short-name="20" long-name="State House District 20" value="1" d="M988.64,435.365L993.533,435.224L993.47,432.702L996.382,432.677L996.469,436.051L996.503,439.008L996.589,445.218L993.631,445.269L993.599,442.768L991.149,442.806L990.505,442.201L990.299,441.578L988.691,441.576Z"/>
<path region="22" short-name="38" long-name="State House District 38" value="1" d="M936.698,375.102L945.017,375.048L945.716,375.372L947.12,375.536L947.826,375.223L948.228,374.256L948.938,373.734L950.15,373.721L951.28,374.009L951.584,373.732L954.687,373.629L954.678,374.887L953.803,374.905L953.805,376.148L952.239,376.168L950.876,377.432L949.811,378.687L948.485,379.933L947.736,382.336L947.738,388.718L947.99,389.315L947.832,390.168L948.047,391.251L956.562,391.128L957.582,390.836L973.664,390.968L973.887,391.034L974.492,392.593L972.499,393.163L972.042,393.469L970.31,395.164L969.309,395.971L962.371,396.062L957.579,396.089L957.613,401.116L957.573,403.604L956.672,403.62L956.687,410.227L956.879,427.229L956.229,428.082L955.496,428.596L955.297,427.708L955.884,426.594L955.779,425.96L954.944,425.319L953.823,425.594L952.917,426.713L952.713,427.52L951.711,428.524L950.63,428.921L949.536,428.904L948.649,428.389L947.487,427.16L945.457,426.613L943.398,425.759L942.038,425.976L941.496,427.235L941.819,427.937L941.24,429.606L940.34,430.248L939.609,430.382L938.398,429.727L937.551,429.033L936.961,428.435L935.903,428.191L937.52,427.45L937.415,415.928L937.76,415.898L939.303,414.922L940.491,414.393L941.605,414.205L941.561,413.711L940.494,412.866L942.13,411.023L941.253,410.444L941.647,409.739L941.369,408.928L941.999,408.732L942.606,406.992L943.246,406.754L943.241,404.955L942.991,404.448L942.182,404.406L942.373,403.708L943.259,403.326L942.278,402.675L941.74,401.289L940.532,401.296L940.513,400.344L939.723,399.155L939.046,399.076L938.836,397.876L938.353,397.823L938.349,394.994L938.959,394.247L938.235,394.036L938.111,393.321L938.877,392.218L938.372,391.475L938.372,390.153L937.855,389.209L936.605,389.309L936.516,388.058L935.843,388.027L935.557,387.068L935.561,385.124L936.77,385.103L936.697,380.082Z"/>
<path region="23" short-name="64" long-name="State House District 64" value="1" d="M598.025,312.286L606.528,312.449L616.443,312.579L635.899,312.798L635.745,326.058L635.696,327.763L650.324,328.027L657.834,328.108L660.145,328.177L668.369,328.263L688.9,328.526L708.359,328.696L718.008,328.763L738.247,328.932L737.522,329.941L736.839,331.227L737.092,332.456L734.39,334.233L733.622,334.847L732.533,334.004L730.896,335.877L729.873,336.889L729.818,337.423L730.451,338.601L729.871,339.323L729.167,339.117L728.236,340.241L727.598,341.479L726.78,344.493L725.769,344.981L725.024,344.228L725.408,343.482L724.905,343.217L723.882,345.698L724.128,346.669L723.101,347.477L722.592,347.434L721.793,346.84L721.423,347.042L719.671,349.828L720.079,350.685L720.816,351.137L720.184,352.283L718.887,352.788L719.584,353.723L720.547,354.063L720.598,355.477L719.901,356.641L719.046,356.743L720.173,358.654L722.288,360.66L722.36,361.161L723.21,362.154L723.994,361.922L724.548,362.567L724.365,363.299L723.577,364.318L726.268,367.135L727.475,367.225L727.182,367.983L726.363,368.157L726.074,368.726L726.715,369.768L728.125,370.478L729.353,370.178L728.913,371.321L728.027,371.747L728.837,373.072L729.614,373.39L731.032,374.927L731.14,375.547L730.239,375.951L730.817,376.919L731.97,378.011L733.779,380.2L734.341,380.591L735.756,380.94L736.07,381.556L735.984,382.915L736.524,383.394L738.222,383.546L738.373,382.862L739.14,383.317L739.166,383.896L738.634,384.403L737.864,384.045L736.876,384.608L737.042,385.323L737.959,386.031L738.454,385.522L738.947,386.029L737.759,386.842L737.348,386.864L738.068,388.657L734.338,388.782L730.684,388.736L730.685,388.22L729.768,387.482L729.486,388.174L728.266,389.42L728.243,391.207L729.436,391.261L729.427,393.753L728.82,393.732L728.811,394.993L729.117,396.237L724.55,396.183L724.531,399.916L724.441,402.065L723.741,402.843L723.792,403.633L716.211,403.554L715.128,403.133L714.09,403.122L713.414,403.776L712.785,404.784L711.474,405.225L710.915,405.031L709.465,405.248L709.213,407.759L709.484,409.642L709.039,409.619L707.615,408.635L707.349,409.139L707.253,410.944L705.513,410.942L702.244,410.904L702.282,408.743L703.823,406.204L704.802,405.514L704.996,402.147L702.551,402.116L702.646,388.402L688.029,388.08L688.076,392.033L687.918,403.173L687.682,403.175L687.643,411.047L687.507,420.624L675.4,420.418L663.266,420.154L655.959,420.178L648.618,420.082L638.837,420.074L634.022,420.037L634.281,402.578L634.557,387.61L634.885,372.646L620.439,372.343L605.831,372.095L596.068,371.918L596.272,364.583L596.409,362.989L596.36,360.892L596.509,353.042L596.691,341.098L597.071,339.833L597.684,338.736L598.073,337.251L598.108,334.432L599.23,334.461L599.292,327.815L600.531,327.294L606.461,327.378L606.461,326.132L602.318,326.059L601.606,325.546L601.296,326.063L599.291,326.024L599.136,325.275L598.445,325.392L598.127,324.811L597.941,322.074L597.926,319.807Z"/>
<path region="24" short-name="31" long-name="State House District 31" value="1" d="M996.182,411.183L996.213,412.796L996.253,417.651L989.886,417.752L987.289,417.783L986.9,416.976L986.826,415.281L986.619,411.495L987.194,411.499L991.556,412.887L992.878,412.819L993.995,412.502Z"/>
<path region="25" short-name="78" long-name="State House District 78" value="1" d="M974.599,448.054L976.539,448.031L976.571,452.989L976.598,455.491L974.435,455.469L974.031,454.617L974.155,453.023L973.537,453.034L973.398,452.42L972.553,452.181L972.869,450.554L969.358,450.574L971.925,447.714L972.539,448.036Z"/>
<path region="26" short-name="94" long-name="State House District 94" value="1" d="M608.895,642.353L616.17,642.337L616.112,644.832L618.573,644.814L618.481,652.286L618.48,654.785L617.888,654.831L617.873,657.271L615.951,657.283L616.055,652.297L616.091,649.803L608.841,649.766Z"/>
<path region="27" short-name="63" long-name="State House District 63" value="1" d="M899.131,254.295L903.219,254.266L903.385,256.136L903.986,256.95L905.65,258.081L907.592,259.028L908.226,259.49L909.828,261.973L910.794,263.038L911.947,263.665L913.278,263.854L914.688,263.731L915.528,263.935L916.739,264.657L917.154,265.471L917.238,266.509L917.076,267.493L916.603,268.747L916.614,269.932L917.112,270.654L918.168,271.224L920.029,271.316L920.953,270.97L922.559,270.103L923.879,270.27L924.643,270.956L924.829,272.072L924.714,273.115L925.089,274.43L925.855,275.255L926.712,275.709L929.603,276.542L931.654,277.559L932.774,277.792L938.438,277.079L939.702,276.038L940.054,274.777L939.933,273.417L940.126,272.649L940.847,271.581L941.566,271.13L942.774,271.04L944.127,271.474L944.962,271.658L946.156,271.508L948.54,270.76L950.542,271.347L951.766,272.152L952.634,273.39L952.729,274.395L952.198,275.718L951.26,276.7L950.802,277.717L950.79,278.485L951.44,279.65L952.947,281.088L954.154,281.966L955.942,282.339L957.3,282.232L958.047,282.444L958.823,283.153L959.412,284.529L959.473,286.933L958.897,288.583L958.494,289.122L957.349,289.675L953.118,289.954L952.201,290.562L951.819,291.834L952.026,292.737L953.082,293.955L954.318,294.896L955.689,295.142L956.605,294.815L958.886,293.068L960.216,292.754L960.738,292.971L961.586,294.44L961.774,296.055L961.628,296.891L961.342,297.9L960.424,299.355L959.719,300.069L958.623,300.718L957.64,301.056L956.231,301.192L954.182,300.425L952.653,299.312L951.445,298.258L950.203,297.581L949.352,297.574L948.062,298.727L947.413,299.928L947.344,301.473L947.714,304.176L947.673,306.661L947.381,307.79L946.74,308.664L945.73,309.28L944.734,309.47L942.503,309.672L941.301,310.183L940.102,311.47L937.307,316.242L936.82,317.541L936.603,319.038L936.894,320.358L937.571,321.671L937.769,322.475L937.422,324.546L936.446,326.106L935.46,326.71L933.878,326.785L932.202,326.068L931.394,326.147L930.424,326.643L929.88,327.326L929.172,329.863L929.118,330.756L929.69,332.755L930.54,334.285L931.881,335.838L933.885,337.657L936.239,338.908L937.198,339.956L937.512,340.913L937.898,344.253L938.741,345.721L939.711,346.659L942.016,348.023L944.638,348.793L945.371,349.126L946.428,350.084L946.872,350.821L947.175,352.459L948.201,353.76L947.851,353.809L935.441,353.908L920.556,354.004L914.723,354.054L901.715,354.03L898.794,354.063L893.908,354.002L884.158,353.972L869.779,354.366L869.715,333.198L869.665,329.116L870.45,329.115L870.406,314.151L878.321,314.133L899.566,313.964L899.45,295.211L899.321,281.455L899.281,271.438Z"/>
<path region="28" short-name="83" long-name="State House District 83" value="1" d="M640.32,653.254L641.394,652.945L642.779,652.962L642.833,647.634L645.28,647.656L645.251,650.798L646.386,650.808L646.367,652.72L647.591,652.738L647.577,653.958L646.352,654.259L645.211,654.247L645.179,656.668L643.851,657.673L643.605,657.668L644.318,656.425L642.739,656.403L642.756,655.151L640.3,655.133Z"/>
<path region="29" short-name="76" long-name="State House District 76" value="1" d="M767.352,471.38L769.701,471.353L778.777,471.441L796.501,471.446L808.687,471.476L820.878,471.449L820.916,478.975L820.391,478.971L820.394,481.488L835.055,481.487L835.053,482.713L838.726,482.721L838.731,481.47L849.915,481.327L849.921,482.577L855.505,482.58L855.502,481.352L861.577,481.377L861.638,479.119L861.185,478.899L861.188,476.209L862.834,476.393L862.312,475.318L862.547,473.908L864.824,473.869L872.102,473.878L879.474,473.834L879.445,478.822L878.547,478.826L878.451,485.071L878.531,490.604L878.526,493.918L878.69,516.495L878.776,526.262L878.781,531.295L878.867,538.812L879.01,553.837L877.781,553.835L877.707,574.372L877.655,580.603L877.68,591.87L874.07,591.925L866.952,591.859L865.615,591.886L861.339,591.775L853.41,591.835L848.455,591.828L838.752,591.749L836.307,591.762L819.202,591.692L819.258,571.724L819.217,569.198L808.78,569.069L799.992,569.031L792.957,568.958L793.062,554.717L792.317,554.978L791.955,554.187L791.072,554.242L791.133,538.916L789.905,538.911L789.905,533.557L789.637,532.778L789.916,532.02L789.935,530.159L794.382,530.173L796.042,528.314L796.051,526.45L797.348,525.714L798.133,523.951L792.508,523.918L790.698,523.967L786.532,523.91L786.306,523.791L786.321,517.645L786.38,511.241L786.462,506.454L786.452,503.944L786.524,494.006L767.207,493.766L767.183,491.258L767.266,478.871Z"/>
<path region="30" short-name="97" long-name="State House District 97" value="1" d="M615.951,657.283L617.873,657.271L617.888,654.831L618.48,654.785L618.481,652.286L620.925,652.282L626.168,652.259L626.603,653.441L626.595,656.426L626.894,658.045L628.428,657.255L633.605,657.274L634.162,658.529L631.097,658.525L631.084,659.765L630.619,659.76L630.579,664.758L630.548,667.254L617.041,667.181L615.907,667.265L615.975,659.15Z"/>
<path region="31" short-name="68" long-name="State House District 68" value="1" d="M687.405,426.886L693.208,425.879L698.827,425.98L700.791,426.178L700.81,425.117L701.227,424.316L701.98,424.323L702.475,423.146L703.353,422.852L704.758,422.852L704.793,418.94L705.186,417.905L705.289,414.486L704.617,413.83L705.513,410.942L707.253,410.944L707.349,409.139L707.615,408.635L709.039,409.619L709.484,409.642L709.213,407.759L709.465,405.248L710.915,405.031L711.474,405.225L712.785,404.784L713.414,403.776L714.09,403.122L715.128,403.133L716.211,403.554L723.792,403.633L723.741,402.843L724.441,402.065L724.531,399.916L724.55,396.183L729.117,396.237L729.42,396.232L729.467,401.058L730.619,400.484L731.461,399.846L732.568,400.738L733.456,400.696L736.554,404.167L737.525,403.813L739.959,403.918L745.763,403.954L745.68,413.85L748.131,413.896L747.938,433.785L747.891,441.388L747.85,456.297L753.024,456.361L757.513,456.466L760.06,456.382L762.441,456.422L762.431,469.14L762.465,471.367L767.352,471.38L767.266,478.871L767.183,491.258L767.207,493.766L767.123,500.248L767.06,508.774L752.736,508.715L743.271,508.659L734.881,508.558L720.156,508.449L705.583,508.258L691.003,508.13L691.107,493.172L691.174,486.096L690.81,484.923L691.208,481.124L691.237,478.266L691.636,478.271L691.654,474.018L691.85,458.29L696.723,458.335L696.806,448.375L692.016,448.28L692.264,429.602L691.592,430.084L689.631,430.279L688.117,431.653L687.352,431.968Z"/>
<path region="32" short-name="14" long-name="State House District 14" value="1" d="M959.996,434.743L962.809,435.714L972.724,435.623L973.346,436.172L973.354,436.797L972.13,436.826L972.14,438.077L972.755,438.063L972.765,439.939L973.8,439.915L973.994,440.533L971.659,440.59L971.7,443.091L968.923,443.118L966.526,443.175L966.287,443.335L964.453,440.679L962.91,440.749L962.576,440.584L960.711,440.701L960.711,441.976L958.273,442.002L958.21,436.47L958.872,436.036L958.927,435.475L959.913,435.132Z"/>
<path region="33" short-name="115" long-name="State House District 115" value="1" d="M397.402,591.773L412.037,592.181L411.454,609.675L411.015,622.251L412.255,622.294L411.72,638.177L397.08,637.62L395.795,637.615L387.425,637.284L382.572,637.163L363.211,636.392L353.1,635.974L339.025,635.326L338.889,635.837L338.483,653.295L338.379,655.71L337.659,681.278L337.25,694.576L337.148,696.17L338.834,696.23L338.119,709.91L337.853,716.957L337.511,728.713L337.282,741.4L336.667,761.835L322.186,761.282L320.977,761.133L305.292,760.409L291.666,759.719L275.537,759.056L259.315,758.264L248.809,757.817L238.544,757.418L216.423,756.522L216.517,755.377L217.458,732.561L218.252,714.023L218.483,710.12L218.701,705.124L211.418,704.782L211.785,697.272L192.346,696.312L192.802,688.833L190.272,688.701L191.018,673.714L191.79,658.725L192.901,636.276L193.271,628.793L194.116,612.912L192.33,612.804L192.924,601.679L193.93,582.962L214.832,584.192L222.954,584.669L230.196,584.97L252.026,585.942L251.297,600.892L261,601.364L268.125,601.739L280.246,602.328L294.827,602.874L300.918,603.123L309.386,603.516L324.101,604.045L333.925,604.503L353.369,605.138L353.915,590.144L368.436,590.631L375.884,590.929L382.995,591.27L390.132,591.537ZM271.067,629.099L273.507,629.372L273.444,630.558L275.743,630.837L275.557,632.52L280.658,632.766L285.824,635.301L286.274,635.032L287.177,635.15L288.971,634.269L288.949,633.76L285.485,632.332L285.539,630.866L284.465,631L283.094,630.614L283.096,629.82L280.788,629.748L280.876,627.792L278.234,627.647L278.363,625.148L279.172,624.971L279.285,623.047L278.635,622.627L277.433,622.572L277.508,620.071L276.307,620.022L276.186,623.05L275.575,623.115L275.55,623.741L273.726,623.661L273.64,625.945L272.945,626.135L271.205,626.051Z"/>
<path region="34" short-name="70" long-name="State House District 70" value="1" d="M618.309,492.272L632.885,492.468L633.121,475.013L633.328,462.526L633.405,455.002L633.613,440.043L632.421,439.993L632.458,437.485L633.702,437.498L633.789,432.523L634.022,420.037L638.837,420.074L648.618,420.082L655.959,420.178L663.266,420.154L675.4,420.418L687.507,420.624L687.405,426.886L687.352,431.968L688.117,431.653L689.631,430.279L691.592,430.084L692.264,429.602L692.016,448.28L696.806,448.375L696.723,458.335L691.85,458.29L691.654,474.018L691.636,478.271L691.237,478.266L691.208,481.124L690.81,484.923L691.174,486.096L691.107,493.172L691.003,508.13L705.583,508.258L705.474,515.754L705.33,538.183L702.925,538.139L702.777,552.897L702.358,553.163L702.238,563.386L702.285,565.898L702.112,583.384L689.98,583.245L675.365,582.964L675.419,579.339L675.56,564.961L675.696,552.925L675.916,552.93L676.015,547.932L676.129,537.946L661.5,537.807L661.598,531.755L661.67,523.994L661.6,522.815L647.081,522.669L632.456,522.453L617.889,522.263L618.088,507.301Z"/>
<path region="35" short-name="57" long-name="State House District 57" value="1" d="M863.307,412.316L863.294,413.841L864.521,413.837L864.495,415.091L865.508,415.005L865.695,416.34L863.228,416.351L863.199,418.862L864.412,418.851L864.363,421.436L866.427,421.369L866.408,422.136L867.299,423.157L868.038,423.138L868.034,423.855L862.37,423.868L861.886,423.066L861.916,421.369L858.247,421.369L858.315,418.88L857.108,418.879L856.099,419.08L855.423,418.592L856.42,415.514L855.652,414.701L853.985,413.76L852.229,413.766L850.265,414.202L848.921,414.351L846.178,414.368L846.165,412.767L849.04,412.619L849.059,411.248L849.732,410.913L856.569,410.822L862.626,410.776L863.101,410.856Z"/>
<path region="36" short-name="118" long-name="State House District 118" value="1" d="M17.309,467.435L17.932,458.089L18.22,453.289L18.906,453.289L43.252,454.799L58.973,455.668L70.003,456.221L91.964,457.32L92.696,447.308L93.033,442.328L93.587,434.937L94.315,423.317L95.081,412.422L95.491,405.857L95.556,405.623L96.578,390.048L97.084,382.731L118.78,383.845L137.586,385.11L147.739,385.809L152.246,386.075L166.767,386.851L176.799,387.324L191.377,388.065L196.004,388.281L196.476,378.333L197.118,365.917L197.974,349.613L198.315,343.504L199.086,328.467L199.86,314.101L199.857,313.623L214.409,314.37L221.415,314.706L234.434,315.371L236.121,315.494L240.859,315.657L255.399,316.332L260.908,316.664L270.014,317.107L272.445,317.147L271.943,327.161L271.081,347.1L269.791,372.034L268.838,391.914L285.641,392.707L293.229,392.963L302.515,393.373L312.433,393.753L327.322,394.305L341.954,394.833L343.708,394.921L343.201,404.127L342.309,422.489L342.05,428.445L341.178,447.402L340.283,464.842L340.014,469.81L341.755,469.872L340.646,494.548L340.14,509.847L339.875,519.558L339.054,544.55L326.881,544.106L323.49,544.021L300.857,543.129L300.502,543.154L283.956,542.471L277.864,542.194L253.954,541.041L245.277,540.619L222.578,539.443L217.851,539.171L200.691,538.27L193.421,537.874L164.336,536.222L138.05,534.948L123.533,534.206L109.024,533.446L93.269,532.638L93.174,532.613L79.967,531.924L51.564,530.355L13.554,528.008L14.831,507.056L15.24,501.672L15.217,501.002L15.538,495.167L16.537,479.689Z"/>
<path region="37" short-name="50" long-name="State House District 50" value="1" d="M840.715,389.29L850.415,389.284L861.34,389.247L867.436,389.287L867.466,399.23L867.523,404.238L866.815,404.221L866.841,411.596L866.121,411.293L864.383,412.358L863.307,412.316L863.101,410.856L862.626,410.776L856.569,410.822L849.732,410.913L849.059,411.248L849.04,412.619L846.165,412.767L846.178,414.368L843.785,414.376L842.55,415.013L840.646,415.575L837.823,415.979L836.917,415.915L835.354,415.214L833.618,415.084L832.694,414.293L832.384,412.719L831.362,412.022L830.368,411.919L829.532,412.159L827.154,412.089L825.595,411.695L825.191,411.338L824.35,411.302L824.436,410.719L823.118,409.201L822.061,409.123L820.734,409.594L819.488,409.533L818.694,409.007L818.322,408.294L817.347,407.379L816.258,407.089L815.016,407.629L814.116,407.694L812.558,406.592L813.077,405.62L813.968,405.475L814.901,404.685L814.67,403.627L814.216,403.494L813.265,403.866L812.598,404.537L812.117,405.429L811.098,405.889L809.909,405.522L808.647,404.806L809.061,404.246L809.093,401.786L809.109,389.327L826.151,389.308Z"/>
<path region="38" short-name="9" long-name="State House District 9" value="1" d="M877.68,591.87L877.655,580.603L877.707,574.372L877.781,553.835L879.01,553.837L878.867,538.812L878.781,531.295L885.588,531.286L891.037,531.233L905.798,531.157L918.224,530.997L927.61,531.008L928.167,530.955L937.297,530.913L937.259,528.621L938.993,527.599L946.36,522.022L947.925,521.262L952.777,517.502L953.028,516.78L953.023,514.62L953.549,514.44L953.834,513.357L954.277,512.794L955.32,512.1L965.044,512.044L966.614,511.066L967.58,510.814L968.014,511.09L968.37,512.002L968.34,513.23L976.197,513.027L976.231,515.542L983.615,515.433L987.295,515.484L996.977,515.435L997.094,527.864L997.143,530.394L987.34,530.516L981.293,530.56L965.685,530.802L956.829,530.844L957.072,550.828L937.564,551.001L937.615,553.5L936.243,553.502L936.271,554.739L936.199,566.587L936.341,581.421L936.302,581.516L936.277,596.504L936.292,606.547L936.263,619.022L936.414,629.018L935.314,629.047L935.424,639.075L935.44,644.052L931.808,644.103L930.563,643.854L925.749,643.844L924.564,644.092L920.601,644.178L908.73,644.258L896.65,644.291L890.77,644.347L890.501,644.306L884.357,644.399L877.075,644.429L877.137,639.443L877.084,629.37L877.825,629.371L877.82,620.595L877.702,606.863Z"/>
<path region="39" short-name="86" long-name="State House District 86" value="1" d="M633.968,655.05L636.974,655.114L636.64,653.86L637.863,653.864L637.89,651.388L640.332,651.395L640.32,653.254L640.3,655.133L642.756,655.151L642.739,656.403L644.318,656.425L643.605,657.668L638.697,657.632L637.527,657.627L634.542,657.596L633.871,657.274L633.621,656.496Z"/>
<path region="40" short-name="58" long-name="State House District 58" value="1" d="M855.423,418.592L856.099,419.08L857.108,418.879L858.315,418.88L858.247,421.369L861.916,421.369L861.886,423.066L862.37,423.868L868.034,423.855L868.011,428.849L866.79,428.864L861.906,428.855L861.85,427.619L856.981,427.631L856.024,427.913L854.72,427.935L854.722,423.893L855.011,422.644L854.545,422.647L854.54,421.398L854.717,420.152L854.196,420.155L854.274,418.361Z"/>
<path region="41" short-name="33" long-name="State House District 33" value="1" d="M957.573,403.604L971.143,403.455L971.244,410.55L978.051,410.428L979.248,410.47L978.093,411.373L978.044,412.056L976.891,412.688L976.109,413.614L976.614,414.209L978.811,414.162L979.357,414.467L980.172,414.163L980.375,415.354L980.276,416.006L984.044,415.957L985.876,416.012L985.905,416.818L986.815,416.229L986.826,415.281L986.9,416.976L987.289,417.783L984.371,417.831L976.655,417.986L970.594,418.098L968.331,416.972L967.159,416.091L965.847,415.331L965.061,415.1L962.77,415.212L961.598,415.49L960.986,415.872L960.064,416.993L959.758,418.574L959.111,420.446L959.491,422.237L959.496,422.942L958.679,424.479L956.879,427.229L956.687,410.227L956.672,403.62Z"/>
<path region="42" short-name="105" long-name="State House District 105" value="1" d="M623.473,642.313L630.316,642.43L630.187,642.803L628.7,644.519L629.507,645.357L629.323,646.76L628.284,646.732L628.267,649.766L628.254,651.636L625.768,651.633L626.168,652.259L620.925,652.282L620.99,647.252L623.422,647.278Z"/>
<path region="43" short-name="75" long-name="State House District 75" value="1" d="M660.048,627.756L660.222,627.757L660.242,624.027L660.437,605.162L661.037,604.56L662.258,604.296L662.343,603.479L661.65,603.609L661.155,602.922L660.454,603.475L660.499,597.616L660.668,582.591L675.365,582.964L689.98,583.245L702.112,583.384L706.16,583.431L709.408,583.395L728.849,583.467L731.152,583.524L744.339,583.558L744.163,600.233L744.086,606.004L743.814,618.498L743.701,628.508L736.761,628.481L718.325,628.364L718.245,643.456L703.615,643.267L703.564,643.291L689.06,643.148L679.693,643.079L670.225,642.871L667.483,642.835L667.327,641.924L667.352,639.139L667.219,639.034L667.253,635.337L660.002,635.258Z"/>
<path region="44" short-name="69" long-name="State House District 69" value="1" d="M560.199,457.283L570.908,461.418L575.393,463.273L582.262,459.328L590.762,454.4L592.057,454.337L602.234,454.521L602.177,456.701L602.444,457.018L604.164,457.061L604.055,461.877L604.105,462.067L607.674,462.095L618.67,462.255L633.328,462.526L633.121,475.013L632.885,492.468L618.309,492.272L599.976,492.022L589.167,491.804L566.688,491.3L566.523,491.207L560.001,491.113L560.256,476.159L559.822,476.123Z"/>
<path region="45" short-name="13" long-name="State House District 13" value="1" d="M705.583,508.258L720.156,508.449L734.881,508.558L743.271,508.659L752.736,508.715L767.06,508.774L766.858,528.737L769.754,528.762L771.997,528.696L774.857,529.087L777.608,529.178L778.712,529.4L786.88,529.536L789.936,529.552L789.935,530.159L789.916,532.02L789.637,532.778L789.905,533.557L789.905,538.911L791.133,538.916L791.072,554.242L791.955,554.187L792.317,554.978L793.062,554.717L792.957,568.958L799.992,569.031L808.78,569.069L819.217,569.198L819.258,571.724L819.202,591.692L836.307,591.762L838.752,591.749L848.455,591.828L853.41,591.835L861.339,591.775L865.615,591.886L866.952,591.859L874.07,591.925L877.68,591.87L877.702,606.863L877.82,620.595L877.825,629.371L877.084,629.37L877.137,639.443L877.075,644.429L877.092,656.915L877.107,664.367L877.275,674.376L877.255,679.096L877.34,683.226L877.294,692.441L877.366,704.434L871.211,704.469L858.57,704.412L837.964,704.264L828.925,704.202L822.785,704.127L818.908,704.135L818.783,693.919L818.775,684.274L818.891,676.546L818.973,666.78L813.211,666.706L809.042,666.698L807.285,666.611L797.101,666.478L783.788,666.33L779.937,666.34L763.6,666.119L760.464,666.148L747.826,666.008L743.549,666.027L743.512,658.525L743.554,657.639L743.562,647.765L743.672,643.552L743.636,642.404L743.646,632.947L743.701,628.508L743.814,618.498L744.086,606.004L744.163,600.233L744.339,583.558L731.152,583.524L728.849,583.467L709.408,583.395L706.16,583.431L702.112,583.384L702.285,565.898L702.238,563.386L702.358,553.163L702.777,552.897L702.925,538.139L705.33,538.183L705.474,515.754Z"/>
<path region="46" short-name="19" long-name="State House District 19" value="1" d="M988.53,429.037L994.036,428.931L994.023,428.305L994.771,427.989L996.301,427.927L996.382,432.677L993.47,432.702L993.533,435.224L988.64,435.365L988.584,432.793Z"/>
<path region="47" short-name="21" long-name="State House District 21" value="1" d="M987.893,427.794L988.04,427.482L988.021,425.285L987.871,424.033L989.676,424.013L993.341,423.934L993.474,425.183L996.288,425.139L996.301,427.927L994.771,427.989L994.023,428.305L994.036,428.931L988.53,429.037L988.506,427.777Z"/>
<path region="48" short-name="22" long-name="State House District 22" value="1" d="M983.611,428.025L983.801,427.872L987.893,427.794L988.506,427.777L988.53,429.037L988.584,432.793L987.361,432.812L987.381,433.979L986.161,434.165L983.706,434.133L983.688,432.882Z"/>
<path region="49" short-name="25" long-name="State House District 25" value="1" d="M989.886,417.752L996.253,417.651L996.254,417.869L996.288,425.139L993.474,425.183L993.341,423.934L989.676,424.013L989.603,418.456Z"/>
<path region="50" short-name="29" long-name="State House District 29" value="1" d="M983.706,434.133L986.161,434.165L987.381,433.979L987.361,432.812L988.584,432.793L988.64,435.365L988.691,441.576L988.741,445.344L986.284,445.379L986.242,441.674L985.365,441.148L984.594,440.388L984.199,439.799L983.784,438.542Z"/>
<path region="51" short-name="30" long-name="State House District 30" value="1" d="M964.061,429.458L967.636,429.404L968.21,429.592L969.479,430.626L973.847,430.534L973.907,433.04L975.835,433.006L975.604,431.825L977.18,431.801L978.15,432.838L977.563,434.391L977.581,436.495L975.903,439.269L976.435,439.266L976.459,442.39L975.816,441.949L974.774,442.53L974.879,443.037L974.932,444.324L974.046,444.177L974.067,445.553L971.734,445.584L971.7,443.091L971.659,440.59L973.994,440.533L973.8,439.915L972.765,439.939L972.755,438.063L972.14,438.077L972.13,436.826L973.354,436.797L973.346,436.172L972.724,435.623L962.809,435.714L959.996,434.743L958.178,434.731L958.291,434.292L959.671,434.109L961.222,432.67L962.171,432.71L962.954,433.18L964.219,433.165L964.18,430.715Z"/>
<path region="52" short-name="34" long-name="State House District 34" value="1" d="M976.047,405.096L977.134,403.822L977.966,403.377L982.647,403.319L982.47,402.001L988.015,402.012L988.014,403.264L990.337,403.189L991.002,403.018L992.419,403.105L993.057,403.66L994.234,403.891L994.256,405.215L986.366,405.305L978.995,405.385L976.041,405.493Z"/>
<path region="53" short-name="37" long-name="State House District 37" value="1" d="M971.143,403.455L974.79,403.408L974.808,404.783L976.019,404.557L976.047,405.096L976.041,405.493L978.995,405.385L986.366,405.305L986.28,406.138L986.901,407.268L988.267,408.25L989.427,408.614L990.636,408.749L991.651,409.289L993.719,409.409L995.456,408.437L996.147,408.291L996.182,411.183L993.995,412.502L992.878,412.819L991.556,412.887L987.194,411.499L986.619,411.495L986.826,415.281L986.815,416.229L985.905,416.818L985.876,416.012L984.044,415.957L980.276,416.006L980.375,415.354L980.172,414.163L979.357,414.467L978.811,414.162L976.614,414.209L976.109,413.614L976.891,412.688L978.044,412.056L978.093,411.373L979.248,410.47L978.051,410.428L971.244,410.55Z"/>
<path region="54" short-name="40" long-name="State House District 40" value="1" d="M954.687,373.629L955.622,373.613L955.598,372.322L956.694,372.09L957.407,374.105L958.05,375.126L959.132,376.443L960.283,377.349L963.074,378.573L964.49,379.475L965.608,380.505L966.455,381.551L966.99,382.643L967.245,384.043L966.984,385.376L966.076,387.134L966.062,387.682L966.514,388.489L967.558,389.519L969.151,390.063L970.721,390.143L972.328,389.839L973.093,390.091L973.887,391.034L973.664,390.968L957.582,390.836L956.562,391.128L948.047,391.251L947.832,390.168L947.99,389.315L947.738,388.718L947.736,382.336L948.485,379.933L949.811,378.687L950.876,377.432L952.239,376.168L953.805,376.148L953.803,374.905L954.678,374.887Z"/>
<path region="55" short-name="44" long-name="State House District 44" value="1" d="M910.761,428.588L910.665,430.648L910.788,431.203L910.806,434.801L910.816,436.746L910.491,437.221L909.595,437.334L909.14,438.572L908.382,438.623L908.446,439.554L905.664,438.27L904.722,437.254L905.919,437.351L905.914,436.095L904.683,436.111L904.679,431.138L909.074,431.101L909.334,430.422L909.511,429.012Z"/>
<path region="56" short-name="45" long-name="State House District 45" value="1" d="M913.061,418.573L920.298,418.528L920.43,426.671L918.797,427.158L915.144,427.244L911.367,427.95L910.761,428.588L909.511,429.012L909.334,430.422L909.074,431.101L904.679,431.138L904.683,436.111L905.914,436.095L905.919,437.351L904.722,437.254L903.996,436.389L901.937,435.287L901.721,434.699L902.253,434.277L902.263,433.661L901.055,433.685L901.075,430.315L900.808,429.275L900.085,428.342L899.828,427.499L899.808,426.198L891.14,426.243L891.112,418.811L892.571,418.028L892.579,416.335L893.467,417.503L893.992,417.914L896.864,419.436L897.865,420.222L898.694,420.248L899.606,420.738L901.823,420.811L902.886,420.335L903.541,420.279L905.773,418.955L906.573,419.087L907.47,420.056L907.783,419.577L907.398,418.874L907.538,418.19L908.173,418.095L908.811,418.623Z"/>
<path region="57" short-name="52" long-name="State House District 52" value="1" d="M835.354,415.214L836.917,415.915L837.823,415.979L840.646,415.575L842.55,415.013L842.563,419.071L842.478,421.559L843.383,421.545L843.315,422.711L844.286,423.088L844.233,424.03L847.053,424.037L849.2,424.878L849.121,425.088L849.163,429.754L849.845,430.254L849.877,433.956L842.54,434.061L835.321,434.037L835.389,424.075L835.333,417.366Z"/>
<path region="58" short-name="60" long-name="State House District 60" value="1" d="M767.06,508.774L767.123,500.248L767.207,493.766L786.524,494.006L786.452,503.944L786.462,506.454L786.38,511.241L786.321,517.645L786.306,523.791L786.532,523.91L790.698,523.967L792.508,523.918L798.133,523.951L797.348,525.714L796.051,526.45L796.042,528.314L794.382,530.173L789.935,530.159L789.936,529.552L786.88,529.536L778.712,529.4L777.608,529.178L774.857,529.087L771.997,528.696L769.754,528.762L766.858,528.737Z"/>
<path region="59" short-name="65" long-name="State House District 65" value="1" d="M687.507,420.624L687.643,411.047L687.682,403.175L687.918,403.173L688.076,392.033L688.029,388.08L702.646,388.402L702.551,402.116L704.996,402.147L704.802,405.514L703.823,406.204L702.282,408.743L702.244,410.904L705.513,410.942L704.617,413.83L705.289,414.486L705.186,417.905L704.793,418.94L704.758,422.852L703.353,422.852L702.475,423.146L701.98,424.323L701.227,424.316L700.81,425.117L700.791,426.178L698.827,425.98L693.208,425.879L687.405,426.886Z"/>
<path region="60" short-name="66" long-name="State House District 66" value="1" d="M734.338,388.782L738.068,388.657L739.629,388.739L739.167,389.738L739.389,390.063L740.864,390.225L740.446,391.034L740.654,392.215L740.388,392.518L740.744,394.882L741.306,395.579L741.018,396.872L739.191,396.927L738.326,396.63L736.571,396.672L736.407,395.696L736.743,394.717L735.832,394.986L735.528,393.758L735.55,390.006L734.33,389.946Z"/>
<path region="61" short-name="67" long-name="State House District 67" value="1" d="M734.338,388.782L734.33,389.946L735.55,390.006L735.528,393.758L735.832,394.986L736.743,394.717L736.407,395.696L736.571,396.672L738.326,396.63L739.191,396.927L741.018,396.872L740.774,398.781L739.457,398.772L739.068,399.326L740.498,401.493L740.445,401.945L738.533,402.043L737.722,402.991L737.525,403.813L736.554,404.167L733.456,400.696L732.568,400.738L731.461,399.846L730.619,400.484L729.467,401.058L729.42,396.232L729.117,396.237L728.811,394.993L728.82,393.732L729.427,393.753L729.436,391.261L728.243,391.207L728.266,389.42L729.486,388.174L729.768,387.482L730.685,388.22L730.684,388.736Z"/>
<path region="62" short-name="102" long-name="State House District 102" value="1" d="M553.613,582.251L554.852,582.302L556.051,582.049L556.021,583.24L557.189,583.26L557.182,583.663L563.348,583.688L564.784,583.805L565.761,584.985L565.771,586.257L566.348,586.575L568.203,586.319L568.105,591.338L562.211,591.163L561.991,591.992L561.058,591.975L560.463,591.624L559.578,593.022L558.818,592.575L558.026,591.603L556.972,589.273L556.056,588.537L554.728,588.503L554.748,587.052L554.009,586.725L552.651,586.695L552.689,582.347Z"/>
<path region="63" short-name="107" long-name="State House District 107" value="1" d="M490.157,324.729L504.585,325.116L523.872,325.582L533.112,325.839L547.76,326.163L562.418,326.507L562.769,311.576L568.933,311.735L581.663,311.952L598.025,312.286L597.926,319.807L597.941,322.074L598.127,324.811L598.445,325.392L599.136,325.275L599.291,326.024L601.296,326.063L601.606,325.546L602.318,326.059L606.461,326.132L606.461,327.378L600.531,327.294L599.292,327.815L599.23,334.461L598.108,334.432L598.073,337.251L597.684,338.736L597.071,339.833L596.691,341.098L596.509,353.042L596.36,360.892L596.409,362.989L596.272,364.583L596.068,371.918L605.831,372.095L620.439,372.343L634.885,372.646L634.557,387.61L634.281,402.578L634.022,420.037L633.789,432.523L619.234,432.253L602.249,432.01L601.975,446.019L601.72,447.636L601.309,448.269L600.999,449.958L600.563,450.36L600.027,451.434L599.432,451.971L601.855,452.019L602.289,452.212L602.234,454.521L592.057,454.337L590.762,454.4L582.262,459.328L575.393,463.273L570.908,461.418L560.199,457.283L560.448,444.028L560.722,431.161L561.005,418.692L560.981,416.199L561.242,403.716L561.345,401.293L561.138,401.216L561.477,386.293L557.327,386.293L550.529,386.075L529.067,385.621L527.303,385.541L520.084,385.37L517.582,385.272L502.9,384.943L488.23,384.502L488.636,369.532L489.07,354.609L489.325,346.863L489.618,339.727Z"/>
<path region="64" short-name="108" long-name="State House District 108" value="1" d="M973.847,430.534L978.757,430.453L981.813,430.408L980.062,432.941L978.828,434.882L979.449,435.442L979.467,436.679L981.286,436.614L981.32,437.928L978.878,437.962L978.914,442.982L977.72,443.071L974.879,443.037L974.774,442.53L975.816,441.949L976.459,442.39L976.435,439.266L975.903,439.269L977.581,436.495L977.563,434.391L978.15,432.838L977.18,431.801L975.604,431.825L975.835,433.006L973.907,433.04Z"/>
<path region="65" short-name="109" long-name="State House District 109" value="1" d="M417.182,247.819L434.275,248.353L447.246,248.719L463.281,249.219L465.884,249.229L470.768,249.419L472.292,249.419L480.759,249.653L482.651,249.74L489.906,249.924L489.801,252.73L489.707,258.038L489.511,264.884L489.18,279.835L488.983,285.147L488.735,294.777L488.263,309.706L488.239,311.49L487.843,324.52L487.968,324.66L490.157,324.729L489.618,339.727L489.325,346.863L489.07,354.609L488.636,369.532L488.23,384.502L502.9,384.943L517.582,385.272L520.084,385.37L527.303,385.541L529.067,385.621L550.529,386.075L557.327,386.293L561.477,386.293L561.138,401.216L561.345,401.293L561.242,403.716L560.981,416.199L561.005,418.692L560.722,431.161L560.448,444.028L560.199,457.283L559.822,476.123L560.256,476.159L560.001,491.113L559.767,506.1L547.537,505.905L547.371,505.93L523.17,505.418L515.846,505.234L501.01,504.939L499.503,504.882L486.375,504.557L486.829,489.57L487.216,474.449L472.718,474.071L458.058,473.692L438.586,473.115L427.805,472.773L414.42,472.364L413.15,472.316L413.613,463.194L414.501,443.611L414.47,442.342L415.04,427.397L415.617,413.177L416.137,398.713L416.223,397.32L414.889,397.295L415.312,382.396L415.628,374.847L415.724,367.392L416.061,364.829L416.37,357.451L416.64,352.465L416.887,343.744L417.231,337.562L417.662,325.311L417.716,322.527L414.878,322.42L415.35,307.514L415.813,292.531L416.273,277.557L416.651,265.044L416.695,262.637Z"/>
<path region="66" short-name="71" long-name="State House District 71" value="1" d="M633.789,432.523L633.702,437.498L632.458,437.485L632.421,439.993L633.613,440.043L633.405,455.002L633.328,462.526L618.67,462.255L607.674,462.095L604.105,462.067L604.055,461.877L604.164,457.061L602.444,457.018L602.177,456.701L602.234,454.521L602.289,452.212L601.855,452.019L599.432,451.971L600.027,451.434L600.563,450.36L600.999,449.958L601.309,448.269L601.72,447.636L601.975,446.019L602.249,432.01L619.234,432.253Z"/>
<path region="67" short-name="73" long-name="State House District 73" value="1" d="M559.767,506.1L560.001,491.113L566.523,491.207L566.688,491.3L589.167,491.804L599.976,492.022L618.309,492.272L618.088,507.301L617.889,522.263L617.704,534.708L617.398,552.21L607.765,552.078L588.29,551.74L576.054,551.526L559.096,551.224L558.73,551.209L559.137,536.178L559.408,521.55Z"/>
<path region="68" short-name="74" long-name="State House District 74" value="1" d="M588.29,551.74L607.765,552.078L617.398,552.21L617.704,534.708L617.889,522.263L632.456,522.453L647.081,522.669L661.6,522.815L661.67,523.994L661.598,531.755L661.5,537.807L676.129,537.946L676.015,547.932L675.916,552.93L675.696,552.925L675.56,564.961L675.419,579.339L675.365,582.964L660.668,582.591L658.134,582.691L645.938,582.574L642.608,582.583L641.091,585.071L635.846,585.006L635.114,585.205L635.1,586.007L633.995,584.977L626.633,584.794L626.485,597.328L626.329,606.883L625.415,608.258L624.799,609.79L623.854,609.597L623.682,610.48L622.899,611.325L622.575,612.237L616.499,612.163L601.852,611.907L587.243,611.643L587.223,611.837L587.548,594.158L587.713,584.159L587.796,581.67L588.048,566.684Z"/>
<path region="69" short-name="79" long-name="State House District 79" value="1" d="M571.734,686.772L586.448,686.988L601.165,687.129L615.846,687.263L630.461,687.222L642.669,687.643L642.706,688.281L644.534,688.31L645.031,689.677L644.795,690.534L645.184,690.894L647.038,691.712L647.545,692.229L659.49,692.56L659.334,687.903L665.431,687.985L673.989,688.027L680.24,688.11L688.214,688.188L688.562,688.353L688.763,694.348L688.925,703.032L688.591,703.029L688.46,716.738L688.407,718.038L690.838,718.024L690.73,733.004L690.775,741.704L690.71,745.637L690.718,749.168L688.248,749.184L688.243,752.914L680.968,752.812L678.457,752.816L678.607,747.773L673.786,747.713L659.161,747.592L659.195,741.306L659.272,735.029L659.237,733.131L658.972,732.471L658.123,732.477L648.517,732.093L644.723,732.103L644.922,717.08L630.314,716.97L626.535,717.002L625.827,719.48L625.386,718.863L624.772,719.5L624.16,719.511L624.155,721.555L622.948,722.027L622.625,723.073L622.793,724.049L623.155,724.611L622.944,725.444L622.886,736.967L622.824,739.491L617.92,739.554L616.661,739.64L613.122,739.532L600.869,739.57L600.996,732.105L601.002,717.217L601.246,702.218L601.076,702.216L601.083,699.725L591.294,699.559L576.644,699.469L571.552,699.38Z"/>
<path region="70" short-name="113" long-name="State House District 113" value="1" d="M341.755,469.872L362.313,470.607L376.706,471.091L398.7,471.803L413.15,472.316L414.42,472.364L414.22,479.276L413.921,487.391L413.482,502.379L413.291,507.384L413.019,517.373L412.845,519.793L412.582,532.279L424.781,532.88L427.225,532.943L426.744,547.716L427.97,547.778L444.899,548.323L456.019,548.648L456.414,534.679L456.957,534.093L458.394,533.406L458.832,532.614L459.784,532.555L460.739,532.125L461.332,532.463L461.489,526.403L485.762,527.05L485.949,519.547L486.375,504.557L499.503,504.882L501.01,504.939L515.846,505.234L523.17,505.418L547.371,505.93L547.537,505.905L559.767,506.1L559.408,521.55L559.137,536.178L558.73,551.209L559.096,551.224L559.099,552.427L558.834,566.144L551.509,566.101L534.461,565.602L529.645,565.485L529.6,567.958L525.923,567.959L519.817,567.87L519.862,565.333L499.259,564.827L485.813,564.62L485.461,579.611L485.098,594.564L484.758,609.541L484.326,624.519L469.658,624.162L459.651,623.872L448.177,623.445L440.347,623.167L425.686,622.705L412.255,622.294L411.015,622.251L411.454,609.675L412.037,592.181L397.402,591.773L397.93,576.754L398.459,561.772L398.88,546.789L384.348,546.367L368.237,545.617L355.372,545.16L339.054,544.55L339.875,519.558L340.14,509.847L340.646,494.548Z"/>
<path region="71" short-name="116" long-name="State House District 116" value="1" d="M412.255,622.294L425.686,622.705L440.347,623.167L448.177,623.445L448.675,624.36L448.119,646.694L447.945,651.728L450.311,651.803L450.21,653.093L450.695,653.716L450.281,654.169L447.843,654.235L447.332,671.877L447.495,672.737L448.21,673.535L450.252,674.761L453.239,677.84L454.358,678.855L454.56,679.41L455.444,679.624L455.431,680.187L458.621,681.075L461.635,682.18L464.203,682.932L470.06,685.031L483.761,685.34L483.334,700.289L498.061,700.664L517.398,701.095L517.527,701.061L527.546,701.321L542.22,701.485L559.706,701.776L571.519,701.892L571.552,699.38L576.644,699.469L591.294,699.559L601.083,699.725L601.076,702.216L601.246,702.218L601.002,717.217L600.996,732.105L600.869,739.57L600.679,747.391L600.712,756.86L600.525,769.099L597.268,769.047L593.148,768.907L585.067,768.81L560.901,768.394L548.931,768.175L529.165,767.809L512.226,767.449L496.549,767.072L489.153,766.792L470.85,766.232L447.998,765.588L441.657,765.343L437.569,765.253L427.128,764.936L405.594,764.214L402.85,764.191L392.724,763.828L372.169,763.108L358.989,762.543L354.727,762.494L348.102,762.274L336.667,761.835L337.282,741.4L337.511,728.713L337.853,716.957L338.119,709.91L338.834,696.23L337.148,696.17L337.25,694.576L337.659,681.278L338.379,655.71L338.483,653.295L338.889,635.837L339.025,635.326L353.1,635.974L363.211,636.392L382.572,637.163L387.425,637.284L395.795,637.615L397.08,637.62L411.72,638.177Z"/>
<path region="72" short-name="117" long-name="State House District 117" value="1" d="M910.864,441.509L911.962,441.293L912.99,441.726L913.511,441.059L914.59,440.727L914.89,441.048L915.695,440.795L916.105,439.77L918.134,439.734L918.13,439.286L919.983,439.26L920.809,438.922L921.809,437.797L923.108,437.181L926.843,437.276L931.745,438.232L933.111,437.842L935.555,436L936.073,435.776L937.627,435.743L937.551,429.033L938.398,429.727L939.609,430.382L940.34,430.248L941.24,429.606L941.819,427.937L941.496,427.235L942.038,425.976L943.398,425.759L945.457,426.613L947.487,427.16L948.649,428.389L949.536,428.904L950.63,428.921L951.711,428.524L952.713,427.52L952.917,426.713L953.823,425.594L954.944,425.319L955.779,425.96L955.884,426.594L955.297,427.708L955.496,428.596L956.229,428.082L956.879,427.229L957.42,426.872L959.149,424.305L959.664,423.215L961.607,423.199L961.635,424.782L962.427,424.437L964.051,424.436L964.041,422.942L965.142,421.893L965.891,420.655L968.564,420.539L968.157,422.184L968.347,424.036L967.055,424.05L965.933,424.252L965.945,425.781L964.587,425.672L964.16,426.93L964.061,429.458L964.18,430.715L964.219,433.165L962.954,433.18L962.171,432.71L961.222,432.67L959.671,434.109L958.291,434.292L958.178,434.731L956.484,433.51L955.748,433.184L953.496,432.651L949.015,432.708L947.164,432.639L946.718,433.677L946.032,434.318L946.067,438.703L945.116,438.768L944.823,439.51L943.633,439.681L943.297,439.333L941.109,439.375L940.119,439.58L940.159,443.318L937.735,443.382L937.806,453.377L930.487,453.435L918.244,453.557L918.254,456.08L913.896,456.079L913.389,455.168L912.92,454.84L909.863,454.883L909.959,453.63L910.324,452.086L911.527,448.568L906.006,448.61L905.972,446.138L906.653,446.214L908.441,445.609L908.405,441.079L909.78,441.068L910.538,441.799Z"/>
<path region="73" short-name="119" long-name="State House District 119" value="1" d="M271.067,629.099L271.205,626.051L272.945,626.135L273.64,625.945L273.726,623.661L275.55,623.741L275.575,623.115L276.186,623.05L276.307,620.022L277.508,620.071L277.433,622.572L278.635,622.627L279.285,623.047L279.172,624.971L278.363,625.148L278.234,627.647L280.876,627.792L280.788,629.748L283.096,629.82L283.094,630.614L284.465,631L285.539,630.866L285.485,632.332L288.949,633.76L288.971,634.269L287.177,635.15L286.274,635.032L285.824,635.301L280.658,632.766L275.557,632.52L275.743,630.837L273.444,630.558L273.507,629.372Z"/>
<path region="74" short-name="82" long-name="State House District 82" value="1" d="M643.08,672.734L644.967,672.76L644.948,674.019L647.333,673.931L647.334,672.789L659.594,672.851L659.334,687.903L659.49,692.56L647.545,692.229L647.038,691.712L645.184,690.894L644.795,690.534L645.031,689.677L644.534,688.31L642.706,688.281L642.669,687.643L644.94,687.721L645.23,684.852L645.246,683.69L645.03,683.026L644.193,681.972L643.126,681.924L642.425,681.339L642.933,680.106L642.792,677.989L643.103,677.401L643.268,676.629L642.727,675.477L641.988,674.838L641.887,673.725L641.509,672.689Z"/>
<path region="75" short-name="85" long-name="State House District 85" value="1" d="M645.485,627.598L645.573,627.6L660.048,627.756L660.002,635.258L667.253,635.337L667.219,639.034L667.352,639.139L667.327,641.924L667.483,642.835L659.942,642.77L659.903,645.283L655.003,645.255L646.427,645.16L646.435,642.65L645.343,642.642L645.413,635.109Z"/>
<path region="76" short-name="120" long-name="State House District 120" value="1" d="M31.649,229.154L50.696,230.339L58.843,230.908L70.789,231.65L86.461,232.605L98.824,233.336L114.49,234.28L125.587,234.848L129.465,235.088L145.643,235.982L159.638,236.777L175.507,237.64L198.576,238.791L203.444,239.074L208.314,239.287L213.218,239.588L236.039,240.711L246.206,241.17L271.154,242.352L273.631,242.444L273.551,243.187L272.802,257.44L272.319,267.368L272.232,269.862L271.701,279.797L271.367,286.951L271.215,291.036L270.722,302.165L270.014,317.107L260.908,316.664L255.399,316.332L240.859,315.657L236.121,315.494L234.434,315.371L221.415,314.706L214.409,314.37L199.857,313.623L199.86,314.101L199.086,328.467L198.315,343.504L197.974,349.613L197.118,365.917L196.476,378.333L196.004,388.281L191.377,388.065L176.799,387.324L166.767,386.851L152.246,386.075L147.739,385.809L137.586,385.11L118.78,383.845L97.084,382.731L96.578,390.048L95.556,405.623L95.491,405.857L95.081,412.422L94.315,423.317L93.587,434.937L93.033,442.328L92.696,447.308L91.964,457.32L70.003,456.221L58.973,455.668L43.252,454.799L18.906,453.289L18.22,453.289L19.128,438.542L19.463,433.403L21.863,393.282L22.694,379.087L23.591,363.53L24.419,349.304L25.614,328.666L26.48,314.443L26.854,308.823L27.206,302.793L27.914,290.432L28.04,289.102L28.215,285.36L28.899,273.997L29.952,256.544L29.994,255.456Z"/>
<path region="77" short-name="88" long-name="State House District 88" value="1" d="M643.851,657.673L645.179,656.668L645.211,654.247L646.352,654.259L647.577,653.958L648.712,653.685L649.017,653.965L650.02,654.007L650.003,655.247L654.898,655.293L659.781,655.329L659.797,652.811L662.168,652.843L662.056,660.323L659.706,660.34L648.938,660.248L648.838,658.991L645.151,658.925L645.18,657.691Z"/>
<path region="78" short-name="121" long-name="State House District 121" value="1" d="M958.178,434.731L959.996,434.743L959.913,435.132L958.927,435.475L958.872,436.036L958.21,436.47L958.273,442.002L960.711,441.976L960.711,440.701L962.576,440.584L962.91,440.749L964.453,440.679L966.287,443.335L966.526,443.175L968.923,443.118L968.656,444.473L968.663,445.648L966.843,445.633L966.863,446.672L965.882,446.828L966.145,448.153L962.067,448.24L962.065,450.731L952.259,450.785L952.298,453.304L937.806,453.377L937.735,443.382L940.159,443.318L940.119,439.58L941.109,439.375L943.297,439.333L943.633,439.681L944.823,439.51L945.116,438.768L946.067,438.703L946.032,434.318L946.718,433.677L947.164,432.639L949.015,432.708L953.496,432.651L955.748,433.184L956.484,433.51Z"/>
<path region="79" short-name="122" long-name="State House District 122" value="1" d="M79.967,531.924L93.174,532.613L93.269,532.638L109.024,533.446L123.533,534.206L138.05,534.948L164.336,536.222L193.421,537.874L200.691,538.27L217.851,539.171L222.578,539.443L245.277,540.619L253.954,541.041L277.864,542.194L283.956,542.471L300.502,543.154L300.857,543.129L323.49,544.021L326.881,544.106L339.054,544.55L355.372,545.16L368.237,545.617L384.348,546.367L398.88,546.789L398.459,561.772L397.93,576.754L397.402,591.773L390.132,591.537L382.995,591.27L375.884,590.929L368.436,590.631L353.915,590.144L353.369,605.138L333.925,604.503L324.101,604.045L309.386,603.516L300.918,603.123L294.827,602.874L280.246,602.328L268.125,601.739L261,601.364L251.297,600.892L252.026,585.942L230.196,584.97L222.954,584.669L214.832,584.192L193.93,582.962L192.924,601.679L192.33,612.804L194.116,612.912L193.271,628.793L178.736,628.016L173.863,627.778L154.415,626.743L147.131,626.373L134.985,625.793L134.709,625.754L120.49,625.022L76.715,622.539L77.641,606.856L75.54,606.739L76.747,588.521L78.233,564.252L79.171,546.843ZM163.346,586.166L166.163,586.308L165.906,587.21L164.22,586.796L164.175,587.522L165.646,588.123L171.63,589.922L171.984,582.907L170.721,582.816L170.683,582.015L170.265,581.617L164.819,581.33L164.707,583.734L163.479,583.638Z"/>
<path region="80" short-name="2" long-name="State House District 2" value="1" d="M877.075,644.429L884.357,644.399L890.501,644.306L890.77,644.347L896.65,644.291L908.73,644.258L920.601,644.178L924.564,644.092L925.749,643.844L930.563,643.854L931.808,644.103L935.44,644.052L935.545,654.023L937.977,654.016L942.831,653.885L959.805,653.754L962.355,653.676L964.745,653.736L969.587,653.742L977.136,653.62L982.037,653.576L986.386,653.667L996.814,653.476L998.344,653.508L998.414,656.867L998.717,674.085L998.85,679.585L998.962,691.063L992.426,691.162L992.168,691.792L990.909,692.031L990.924,693.686L987.726,693.693L987.715,693.058L986.619,693.066L986.598,691.849L985.97,691.183L985.974,693.086L984.783,693.548L984.744,691.197L983.887,691.218L983.479,689.509L983.039,689.297L983.422,691.23L977.383,691.322L977.618,703.845L977.694,711.256L960.67,711.322L937.82,711.566L937.773,704.016L926.658,704.033L912.05,704.207L896.977,704.314L896.899,689.335L896.837,679.585L896.692,664.335L886.93,664.424L886.866,656.885L888.095,656.849L888.102,654.486L887.983,653.176L883.263,653.124L883.285,656.925L877.092,656.915Z"/>
<path region="81" short-name="124" long-name="State House District 124" value="1" d="M13.554,528.008L51.564,530.355L79.967,531.924L79.171,546.843L78.233,564.252L76.747,588.521L75.54,606.739L77.641,606.856L76.715,622.539L120.49,625.022L134.709,625.754L134.985,625.793L147.131,626.373L154.415,626.743L173.863,627.778L178.736,628.016L193.271,628.793L192.901,636.276L191.79,658.725L191.018,673.714L190.272,688.701L175.26,687.956L156.433,686.979L134.661,685.829L134.213,694.611L133.119,715.754L132.371,730.726L131.309,752.814L111.785,751.895L102.13,751.439L84.389,750.561L74.924,750.079L65.516,749.566L55.116,749.032L43.576,748.411L29.003,747.611L14.381,746.792L0,745.977L0.482,738.756L1.637,720.444L2.915,700.456L3.386,693.679L3.945,684.24L4.251,680.397L4.874,670.122L5.648,657.895L5.936,652.88L6.783,640.417L7.582,627.958L8.375,614.263L8.744,606.81L9.412,595.751L9.987,585.414L11.165,565.245L11.954,553.662L13.433,530.137Z"/>
<path region="82" short-name="92" long-name="State House District 92" value="1" d="M630.316,642.43L630.363,639.733L632.281,639.94L632.436,640.281L633.273,640.883L632.529,642.022L633.095,642.764L632.28,643.762L632.487,645.034L633.341,644.997L634.183,646.012L635.517,646.023L635.496,647.585L635.151,647.68L635.126,649.391L634.014,649.771L633.097,649.462L633.116,650.476L631.339,650.222L630.75,649.781L628.267,649.766L628.284,646.732L629.323,646.76L629.507,645.357L628.7,644.519L630.187,642.803Z"/>
<path region="83" short-name="93" long-name="State House District 93" value="1" d="M572.199,657.08L579.548,657.135L591.827,657.087L594.152,657.155L601.481,657.127L608.746,657.187L608.762,655.777L611.194,655.463L611.202,654.761L613.615,654.779L613.654,652.309L616.055,652.297L615.951,657.283L615.975,659.15L615.907,667.265L617.041,667.181L630.548,667.254L630.486,672.25L634.665,672.291L634.752,673.816L634.567,674.793L637.785,674.833L637.746,677.35L643.103,677.401L642.792,677.989L642.933,680.106L642.425,681.339L643.126,681.924L644.193,681.972L645.03,683.026L645.246,683.69L645.23,684.852L644.94,687.721L642.669,687.643L630.461,687.222L615.846,687.263L601.165,687.129L586.448,686.988L571.734,686.772L572.005,671.697L572.036,667.106Z"/>
<path region="84" short-name="96" long-name="State House District 96" value="1" d="M633.605,657.274L633.871,657.274L634.542,657.596L637.527,657.627L637.434,660.921L637.929,661.973L637.883,665.522L637.226,665.674L636.745,666.268L636.74,667.296L635.417,667.289L635.463,664.804L630.579,664.758L630.619,659.76L631.084,659.765L631.097,658.525L634.162,658.529Z"/>
<path region="85" short-name="11" long-name="State House District 11" value="1" d="M837.964,704.264L858.57,704.412L871.211,704.469L877.366,704.434L877.96,704.429L878.208,712.068L878.261,717.169L878.485,724.661L878.493,727.183L878.254,734.036L878.087,737.158L878.136,742.495L878.048,744.623L878.113,749.795L878.128,757.227L878.024,759.76L878.12,770.612L863.611,770.67L847.927,770.733L847.845,759.253L847.78,741.774L847.769,734.291L849.585,734.298L849.583,733.676L850.72,733.677L850.816,732.164L852.063,732.176L852.069,731.416L853.178,731.424L853.211,728.088L852.608,727.437L850.551,727.431L850.547,726.805L837.985,726.732L838.001,719.249Z"/>
<path region="86" short-name="48" long-name="State House District 48" value="1" d="M984.594,440.388L985.365,441.148L986.242,441.674L986.284,445.379L988.741,445.344L988.812,450.355L988.856,452.835L986.907,452.874L986.834,452.462L987.362,450.692L986.367,450.393L986.007,449.653L985.428,449.331L984.771,449.54L983.897,449.3L983.892,448.771L984.484,447.913L984.429,444.16L983.807,443.517L983.77,440.406Z"/>
<path region="87" short-name="1" long-name="State House District 1" value="1" d="M937.82,711.566L960.67,711.322L977.694,711.256L992.678,711.204L999.195,711.083L999.477,736.825L999.471,738.131L999.652,746.532L999.681,749.83L999.867,759.526L1000,769.484L999.022,769.539L988.982,769.657L983.936,769.749L968.302,769.911L949.153,770.016L938.613,770.126L912.421,770.365L897.681,770.496L897.577,757.112L897.546,749.743L918.467,749.454L927.11,749.356L926.87,734.385L931.72,734.302L934.443,734.183L938.175,734.215L938.111,728.386L937.921,724.153Z"/>
<path region="88" short-name="6" long-name="State House District 6" value="1" d="M967.199,473.147L967.217,474.388L968.427,474.376L968.397,472.503L969.72,472.496L969.581,470.607L979.361,470.502L984.228,470.455L996.762,470.286L996.748,490.522L996.846,497.462L996.817,498.081L996.983,514.147L996.977,515.435L987.295,515.484L983.615,515.433L976.231,515.542L976.197,513.027L968.34,513.23L968.37,512.002L968.014,511.09L967.58,510.814L966.614,511.066L965.044,512.044L955.32,512.1L954.277,512.794L953.834,513.357L953.549,514.44L953.023,514.62L952.461,514.012L952.467,512.819L952.11,511.263L951.715,511.278L951.657,505.848L951.522,498.335L953.979,498.342L953.84,489.034L954.508,488.381L955.817,488.352L956.235,487.992L956.486,486.985L956.275,485.948L957.478,485.754L959.114,484.248L958.529,482.588L957.946,482.195L959.117,480.337L959.793,480.107L959.827,479.313L960.382,478.813L960.855,477.489L961.29,477.038L961.838,474.716L962.417,475.02L962.558,474.004L963.59,473.196Z"/>
<path region="89" short-name="62" long-name="State House District 62" value="1" d="M782.824,254.433L793.797,254.49L802.149,254.496L807.075,254.464L819.174,254.5L828.954,254.501L841.631,254.48L856.051,254.461L870.904,254.423L883.115,254.378L899.131,254.295L899.281,271.438L899.321,281.455L899.45,295.211L899.566,313.964L878.321,314.133L870.406,314.151L870.45,329.115L869.665,329.116L869.715,333.198L869.779,354.366L867.309,354.371L867.358,359.358L856.42,359.381L847.875,359.345L847.833,348.145L848.705,347.901L849.842,347.895L849.529,346.886L849.506,345.63L849.057,344.402L845.293,344.347L834.477,344.366L826.178,344.35L811.595,344.396L809.135,344.367L809.052,331.805L809.083,329.202L797.244,329.168L782.667,329.143L782.609,314.174L782.657,299.215L782.691,286.79L782.776,266.416Z"/>
<path region="90" short-name="90" long-name="State House District 90" value="1" d="M601.852,611.907L616.499,612.163L622.575,612.237L623.805,612.436L623.791,613.825L625,613.85L624.477,612.654L625.356,612.3L632.269,612.415L645.624,612.578L645.573,627.6L645.485,627.598L623.611,627.295L623.521,634.789L623.504,639.819L621.05,639.815L621.038,642.31L616.17,642.337L608.895,642.353L601.692,642.301L601.842,626.902L601.594,626.902Z"/>
<path region="91" short-name="91" long-name="State House District 91" value="1" d="M645.485,627.598L645.413,635.109L640.536,635.046L640.511,637.552L638.057,637.513L638.055,637.918L636.728,638.691L633.93,639.497L632.436,640.281L632.281,639.94L630.363,639.733L630.316,642.43L623.473,642.313L621.038,642.31L621.05,639.815L623.504,639.819L623.521,634.789L623.611,627.295Z"/>
<path region="92" short-name="98" long-name="State House District 98" value="1" d="M630.579,664.758L635.463,664.804L635.417,667.289L636.74,667.296L636.745,666.268L637.226,665.674L637.883,665.522L637.929,661.973L637.434,660.921L637.527,657.627L638.697,657.632L639.011,659.329L640.431,661.326L640.654,661.91L641.206,665.238L641.486,666.491L642.108,668.007L643.08,672.734L641.509,672.689L641.887,673.725L641.988,674.838L642.727,675.477L643.268,676.629L643.103,677.401L637.746,677.35L637.785,674.833L634.567,674.793L634.752,673.816L634.665,672.291L630.486,672.25L630.548,667.254Z"/>
<path region="93" short-name="56" long-name="State House District 56" value="1" d="M849.2,424.878L849.814,423.52L849.818,421.447L854.54,421.398L854.545,422.647L855.011,422.644L854.722,423.893L854.72,427.935L856.024,427.913L856.981,427.631L861.85,427.619L861.906,428.855L866.79,428.864L866.834,433.848L854.777,433.889L849.877,433.956L849.845,430.254L849.163,429.754L849.121,425.088Z"/>
<path region="94" short-name="7" long-name="State House District 7" value="1" d="M877.092,656.915L883.285,656.925L883.263,653.124L887.983,653.176L888.102,654.486L888.095,656.849L886.866,656.885L886.93,664.424L896.692,664.335L896.837,679.585L896.899,689.335L896.977,704.314L912.05,704.207L926.658,704.033L937.773,704.016L937.82,711.566L937.921,724.153L938.111,728.386L938.175,734.215L934.443,734.183L931.72,734.302L926.87,734.385L927.11,749.356L918.467,749.454L897.546,749.743L897.577,757.112L897.681,770.496L893.575,770.532L878.12,770.612L878.024,759.76L878.128,757.227L878.113,749.795L878.048,744.623L878.136,742.495L878.087,737.158L878.254,734.036L878.493,727.183L878.485,724.661L878.261,717.169L878.208,712.068L877.96,704.429L877.366,704.434L877.294,692.441L877.34,683.226L877.255,679.096L877.275,674.376L877.107,664.367Z"/>
<path region="95" short-name="114" long-name="State House District 114" value="1" d="M448.177,623.445L459.651,623.872L469.658,624.162L484.326,624.519L484.758,609.541L485.098,594.564L485.461,579.611L485.813,564.62L499.259,564.827L519.862,565.333L519.817,567.87L525.923,567.959L529.6,567.958L529.645,565.485L534.461,565.602L551.509,566.101L558.834,566.144L558.58,579.286L557.333,579.335L557.338,578.692L555.177,578.714L555.17,579.979L553.6,579.962L553.613,582.251L552.689,582.347L552.651,586.695L554.009,586.725L554.748,587.052L554.728,588.503L556.056,588.537L556.972,589.273L558.026,591.603L558.818,592.575L559.578,593.022L560.463,591.624L561.058,591.975L561.991,591.992L562.211,591.163L568.105,591.338L568.203,586.319L573.111,586.431L573.14,583.927L587.713,584.159L587.548,594.158L587.223,611.837L587.181,612.511L585.836,611.688L585.447,610.887L584.787,610.332L584.788,611.607L572.624,611.425L557.943,611.127L543.325,610.879L543,625.886L543.581,625.902L543.402,634.048L543.269,641.611L557.856,641.811L564.005,642.003L572.554,642.105L572.512,644.64L572.441,655.837L572.199,657.08L572.036,667.106L572.005,671.697L571.734,686.772L571.552,699.38L571.519,701.892L559.706,701.776L542.22,701.485L527.546,701.321L517.527,701.061L517.398,701.095L498.061,700.664L483.334,700.289L483.761,685.34L470.06,685.031L464.203,682.932L461.635,682.18L458.621,681.075L455.431,680.187L455.444,679.624L454.56,679.41L454.358,678.855L453.239,677.84L450.252,674.761L448.21,673.535L447.495,672.737L447.332,671.877L447.843,654.235L450.281,654.169L450.695,653.716L450.21,653.093L450.311,651.803L447.945,651.728L448.119,646.694L448.675,624.36Z"/>
<path region="96" short-name="101" long-name="State House District 101" value="1" d="M587.223,611.837L587.243,611.643L601.852,611.907L601.594,626.902L601.842,626.902L601.692,642.301L608.895,642.353L608.841,649.766L616.091,649.803L616.055,652.297L613.654,652.309L613.615,654.779L611.202,654.761L611.194,655.463L608.762,655.777L608.746,657.187L601.481,657.127L594.152,657.155L591.827,657.087L579.548,657.135L572.199,657.08L572.441,655.837L572.512,644.64L572.554,642.105L564.005,642.003L557.856,641.811L543.269,641.611L543.402,634.048L543.581,625.902L543,625.886L543.325,610.879L557.943,611.127L572.624,611.425L584.788,611.607L584.787,610.332L585.447,610.887L585.836,611.688L587.181,612.511Z"/>
<path region="97" short-name="10" long-name="State House District 10" value="1" d="M910.806,434.801L912.787,434.761L913.094,433.877L913.712,433.571L916.929,433.543L916.883,434.75L918.107,434.733L918.13,439.286L918.134,439.734L916.105,439.77L915.695,440.795L914.89,441.048L914.59,440.727L913.511,441.059L912.99,441.726L911.962,441.293L910.864,441.509L910.85,439.964L909.63,439.974L908.446,439.554L908.382,438.623L909.14,438.572L909.595,437.334L910.491,437.221L910.816,436.746Z"/>
<path region="98" short-name="27" long-name="State House District 27" value="1" d="M981.517,455.422L986.44,455.403L986.409,452.879L986.907,452.874L988.856,452.835L988.812,450.355L991.261,450.312L991.213,447.814L993.66,447.78L993.716,450.257L996.662,450.174L996.681,451.516L996.784,454.894L996.762,470.286L984.228,470.455L979.361,470.502L979.111,457.99L980.106,458.124L981.564,457.96Z"/>
<path region="99" short-name="36" long-name="State House District 36" value="1" d="M974.492,392.593L974.51,392.64L975.555,394.573L976.983,395.707L978.352,396.205L978.228,396.634L983.033,396.826L984.151,397.233L983.232,398.061L983.141,399.907L981.921,399.907L981.917,399.573L980.685,399.587L980.693,400.833L977.931,400.862L977.966,403.377L977.134,403.822L976.047,405.096L976.019,404.557L974.808,404.783L974.79,403.408L971.143,403.455L957.573,403.604L957.613,401.116L957.579,396.089L962.371,396.062L969.309,395.971L970.31,395.164L972.042,393.469L972.499,393.163Z"/>
<path region="100" short-name="24" long-name="State House District 24" value="1" d="M984.371,417.831L987.289,417.783L989.886,417.752L989.603,418.456L989.676,424.013L987.871,424.033L988.021,425.285L988.04,427.482L987.893,427.794L983.801,427.872L983.611,428.025L983.553,424.745L983.487,421.585L984.42,421.591Z"/>
<path region="101" short-name="43" long-name="State House District 43" value="1" d="M930.487,453.435L937.806,453.377L952.298,453.304L952.259,450.785L962.065,450.731L962.131,455.486L960.727,456.994L960.095,457.453L957.211,458.215L957.222,459.188L958.829,459.488L955.448,462.809L952.431,465.488L951.83,465.808L945.455,465.849L945.169,465.586L944.222,465.861L930.576,465.975L930.578,463.481Z"/>
<path region="102" short-name="47" long-name="State House District 47" value="1" d="M847.875,359.345L856.42,359.381L867.358,359.358L867.309,354.371L869.779,354.366L884.158,353.972L893.908,354.002L898.794,354.063L901.715,354.03L914.723,354.054L920.556,354.004L920.704,356.492L920.706,361.608L920.838,371.427L920.847,376.452L918.57,376.4L911.104,376.508L911.211,388.994L911.339,403.527L911.485,404.009L911.444,406.212L911.671,406.963L911.643,411.042L912.36,412.619L912.392,414.54L913.015,415.574L913.061,418.573L908.811,418.623L908.173,418.095L907.538,418.19L907.398,418.874L907.783,419.577L907.47,420.056L906.573,419.087L905.773,418.955L903.541,420.279L902.886,420.335L901.823,420.811L899.606,420.738L898.694,420.248L897.865,420.222L896.864,419.436L893.992,417.914L893.467,417.503L892.579,416.335L892.571,418.028L891.112,418.811L891.14,426.243L899.808,426.198L899.828,427.499L900.085,428.342L900.808,429.275L901.075,430.315L901.055,433.685L902.263,433.661L902.253,434.277L901.721,434.699L901.937,435.287L903.996,436.389L904.722,437.254L905.664,438.27L908.446,439.554L909.63,439.974L910.85,439.964L910.864,441.509L910.538,441.799L909.78,441.068L908.405,441.079L908.441,445.609L906.653,446.214L905.972,446.138L906.006,448.61L898.343,448.725L887.168,448.76L879.422,448.808L879.352,448.713L879.402,446.315L879.265,436.328L879.31,428.825L879.219,427.409L879.095,418.888L879.246,416.653L878.27,415.291L877.448,414.857L876.4,415.24L874.751,415.053L873.654,414.541L872.881,414.679L870.015,416.795L868.491,417.163L866.594,415.335L866.38,413.815L866.857,412.369L866.841,411.596L866.815,404.221L867.523,404.238L867.466,399.23L867.436,389.287L861.34,389.247L850.415,389.284L840.715,389.29L840.719,381.79L847.952,381.801L847.914,371.796L847.915,364.386Z"/>
<path region="103" short-name="59" long-name="State House District 59" value="1" d="M879.474,473.834L879.469,471.33L891.579,471.249L907.445,471.183L913.576,471.127L923.321,471.081L923.368,478.559L922.509,478.568L922.535,485.925L936.934,485.876L937.02,490.475L936.985,492.162L937.114,502.152L937.123,509.133L937.221,520.956L937.259,528.621L937.297,530.913L928.167,530.955L927.61,531.008L918.224,530.997L905.798,531.157L891.037,531.233L885.588,531.286L878.781,531.295L878.776,526.262L878.69,516.495L878.526,493.918L878.531,490.604L878.451,485.071L878.547,478.826L879.445,478.822Z"/>
<path region="104" short-name="41" long-name="State House District 41" value="1" d="M935.441,353.908L947.851,353.809L948.201,353.76L950.04,354.639L950.957,355.53L951.167,356.037L951.283,358.064L951.753,358.807L952.854,359.475L954.231,359.641L955.987,358.869L956.991,358.181L957.883,358.038L958.668,358.224L959.188,358.67L959.728,359.679L959.991,361.086L959.706,362.004L958.47,363.111L957.702,363.274L956.968,363.756L956.078,364.821L955.929,365.841L956.314,370.08L956.694,372.09L955.598,372.322L955.622,373.613L954.687,373.629L951.584,373.732L951.28,374.009L950.15,373.721L948.938,373.734L948.228,374.256L947.826,375.223L947.12,375.536L945.716,375.372L945.017,375.048L936.698,375.102L936.671,362.909L937.613,362.601L936.859,361.066L936.652,359.613L936.701,358.151L936.388,357.351L935.756,356.752L935.467,355.953Z"/>
<path region="105" short-name="72" long-name="State House District 72" value="1" d="M660.668,582.591L660.499,597.616L660.454,603.475L661.155,602.922L661.65,603.609L662.343,603.479L662.258,604.296L661.037,604.56L660.437,605.162L660.242,624.027L660.222,627.757L660.048,627.756L645.573,627.6L645.624,612.578L632.269,612.415L625.356,612.3L624.477,612.654L625,613.85L623.791,613.825L623.805,612.436L622.575,612.237L622.899,611.325L623.682,610.48L623.854,609.597L624.799,609.79L625.415,608.258L626.329,606.883L626.485,597.328L626.633,584.794L633.995,584.977L635.1,586.007L635.114,585.205L635.846,585.006L641.091,585.071L642.608,582.583L645.938,582.574L658.134,582.691Z"/>
<path region="106" short-name="51" long-name="State House District 51" value="1" d="M741.018,396.872L741.306,395.579L740.744,394.882L740.388,392.518L740.654,392.215L740.446,391.034L740.864,390.225L742.753,390.49L743.27,389.416L745.033,390.332L746.241,388.816L748.219,388.831L748.239,387.571L753.119,387.615L753.389,388.232L758.607,388.377L759.81,388.348L759.838,390.451L762.482,390.314L765.261,390.278L765.291,389.113L767.718,389.154L768.461,389.651L768.856,389.121L773.738,389.173L773.811,390.316L777.49,390.428L778.909,390.538L780.328,390.46L782.988,389.826L784.008,390.54L784.939,391.972L786.923,392.18L787.595,391.719L788.027,391.011L788.827,390.79L789.788,390.946L790.377,391.7L790.31,393.478L790.913,394.081L791.896,393.73L793.77,393.43L794.999,393.573L797.26,394.367L798.25,394.176L798.652,393.748L799.163,392.153L800.105,392.138L801.17,393.566L802.832,393.282L804.464,395.415L805.257,397.14L806.072,398.22L806.216,399.362L805.465,399.449L804.491,398.628L802.787,398.483L801.867,399.264L802.215,400.362L803.6,400.736L804.707,401.292L805.745,402.072L806.299,402.249L808.004,402.286L808.506,402.956L808.289,404.246L808.647,404.806L809.909,405.522L811.098,405.889L812.117,405.429L812.598,404.537L813.265,403.866L814.216,403.494L814.67,403.627L814.901,404.685L813.968,405.475L813.077,405.62L812.558,406.592L814.116,407.694L815.016,407.629L816.258,407.089L817.347,407.379L818.322,408.294L818.694,409.007L819.488,409.533L820.734,409.594L820.753,414.046L820.748,428.906L820.72,432.704L820.778,448.937L820.816,463.714L820.878,471.449L808.687,471.476L796.501,471.446L778.777,471.441L769.701,471.353L767.352,471.38L762.465,471.367L762.431,469.14L762.441,456.422L760.06,456.382L757.513,456.466L753.024,456.361L747.85,456.297L747.891,441.388L747.938,433.785L748.131,413.896L745.68,413.85L745.763,403.954L739.959,403.918L737.525,403.813L737.722,402.991L738.533,402.043L740.445,401.945L740.498,401.493L739.068,399.326L739.457,398.772L740.774,398.781Z"/>
<path region="107" short-name="80" long-name="State House District 80" value="1" d="M600.869,739.57L613.122,739.532L616.661,739.64L617.92,739.554L622.824,739.491L622.886,736.967L622.944,725.444L623.155,724.611L622.793,724.049L622.625,723.073L622.948,722.027L624.155,721.555L624.16,719.511L624.772,719.5L625.386,718.863L625.827,719.48L626.535,717.002L630.314,716.97L644.922,717.08L644.723,732.103L648.517,732.093L658.123,732.477L658.972,732.471L659.237,733.131L659.272,735.029L659.195,741.306L659.161,747.592L673.786,747.713L678.607,747.773L678.457,752.816L680.968,752.812L680.954,759.059L681.387,759.064L681.424,760.323L683.046,760.336L683.372,760.509L683.551,761.581L688.232,761.649L688.21,765.084L686.928,765.059L684.102,763.914L683.638,762.961L681.943,762.692L681.282,761.988L679.759,761.372L679.118,761.369L679.157,762.075L678.605,763.557L677.657,764.445L677.031,764.577L676.159,763.269L675.286,763.091L673.801,763.186L673.732,764.424L673.652,770.056L659.095,769.869L644.535,769.706L632.816,769.562L616.708,769.36L600.525,769.099L600.712,756.86L600.679,747.391Z"/>
<path region="108" short-name="87" long-name="State House District 87" value="1" d="M646.427,645.16L655.003,645.255L654.926,652.768L654.898,655.293L650.003,655.247L650.02,654.007L649.017,653.965L648.712,653.685L647.577,653.958L647.591,652.738L646.367,652.72L646.386,650.808L645.251,650.798L645.28,647.656L645.312,645.147Z"/>
<path region="109" short-name="123" long-name="State House District 123" value="1" d="M163.346,586.166L163.479,583.638L164.707,583.734L164.819,581.33L170.265,581.617L170.683,582.015L170.721,582.816L171.984,582.907L171.63,589.922L165.646,588.123L164.175,587.522L164.22,586.796L165.906,587.21L166.163,586.308Z"/>
<path region="110" short-name="16" long-name="State House District 16" value="1" d="M981.286,436.614L981.243,432.924L983.688,432.882L983.706,434.133L983.784,438.542L984.199,439.799L984.594,440.388L983.77,440.406L983.807,443.517L983.343,443.906L982.158,444.029L981.371,443.732L980.34,444.21L978.928,444.048L978.914,442.982L978.878,437.962L981.32,437.928Z"/>
<path region="111" short-name="28" long-name="State House District 28" value="1" d="M988.741,445.344L988.691,441.576L990.299,441.578L990.505,442.201L991.149,442.806L993.599,442.768L993.631,445.269L996.589,445.218L996.662,450.174L993.716,450.257L993.66,447.78L991.213,447.814L991.261,450.312L988.812,450.355Z"/>
<path region="112" short-name="39" long-name="State House District 39" value="1" d="M956.879,427.229L958.679,424.479L959.496,422.942L959.491,422.237L959.111,420.446L959.758,418.574L960.064,416.993L960.986,415.872L961.598,415.49L962.77,415.212L965.061,415.1L965.847,415.331L967.159,416.091L968.331,416.972L970.594,418.098L976.655,417.986L977.193,418.465L977.704,419.864L978.128,420.116L978.607,421.439L978.642,423.101L976.947,423.867L975.373,424.129L973.278,423.742L971.451,423.784L970.154,424.03L968.347,424.036L968.157,422.184L968.564,420.539L965.891,420.655L965.142,421.893L964.041,422.942L964.051,424.436L962.427,424.437L961.635,424.782L961.607,423.199L959.664,423.215L959.149,424.305L957.42,426.872Z"/>
<path region="113" short-name="49" long-name="State House District 49" value="1" d="M974.879,443.037L977.72,443.071L978.914,442.982L978.928,444.048L980.34,444.21L981.371,443.732L981.395,445.456L980.155,445.476L980.153,446.644L978.963,446.645L979.037,452.964L976.571,452.989L976.539,448.031L974.599,448.054L974.492,447.267L975.43,446.872L975.407,446.222L974.938,445.547L974.067,445.553L974.046,444.177L974.932,444.324Z"/>
<path region="114" short-name="104" long-name="State House District 104" value="1" d="M558.834,566.144L559.099,552.427L559.096,551.224L576.054,551.526L588.29,551.74L588.048,566.684L587.796,581.67L587.713,584.159L573.14,583.927L573.111,586.431L568.203,586.319L566.348,586.575L565.771,586.257L565.761,584.985L564.784,583.805L563.348,583.688L557.182,583.663L557.189,583.26L556.021,583.24L556.051,582.049L554.852,582.302L553.613,582.251L553.6,579.962L555.17,579.979L555.177,578.714L557.338,578.692L557.333,579.335L558.58,579.286Z"/>
<path region="115" short-name="54" long-name="State House District 54" value="1" d="M820.878,471.449L820.816,463.714L820.778,448.937L820.72,432.704L820.748,428.906L820.753,414.046L820.734,409.594L822.061,409.123L823.118,409.201L824.436,410.719L824.35,411.302L825.191,411.338L825.595,411.695L827.154,412.089L829.532,412.159L830.368,411.919L831.362,412.022L832.384,412.719L832.694,414.293L833.618,415.084L835.354,415.214L835.333,417.366L835.389,424.075L835.321,434.037L842.54,434.061L849.877,433.956L854.777,433.889L866.834,433.848L866.79,428.864L868.011,428.849L868.034,423.855L868.038,423.138L867.299,423.157L866.408,422.136L866.427,421.369L864.363,421.436L864.412,418.851L863.199,418.862L863.228,416.351L865.695,416.34L865.508,415.005L864.495,415.091L864.521,413.837L863.294,413.841L863.307,412.316L864.383,412.358L866.121,411.293L866.841,411.596L866.857,412.369L866.38,413.815L866.594,415.335L868.491,417.163L870.015,416.795L872.881,414.679L873.654,414.541L874.751,415.053L876.4,415.24L877.448,414.857L878.27,415.291L879.246,416.653L879.095,418.888L879.219,427.409L879.31,428.825L879.265,436.328L879.402,446.315L879.352,448.713L879.405,451.958L879.431,460.133L879.429,471.173L879.469,471.33L879.474,473.834L872.102,473.878L864.824,473.869L862.547,473.908L862.312,475.318L862.834,476.393L861.188,476.209L861.185,478.899L861.638,479.119L861.577,481.377L855.502,481.352L855.505,482.58L849.921,482.577L849.915,481.327L838.731,481.47L838.726,482.721L835.053,482.713L835.055,481.487L820.394,481.488L820.391,478.971L820.916,478.975Z"/>
<path region="116" short-name="26" long-name="State House District 26" value="1" d="M968.26,460.602L968.24,459.03L968.472,458.368L969.386,457.136L969.358,450.574L972.869,450.554L972.553,452.181L973.398,452.42L973.537,453.034L974.155,453.023L974.031,454.617L974.435,455.469L976.598,455.491L976.571,452.989L979.037,452.964L981.497,452.934L981.517,455.422L981.564,457.96L980.106,458.124L979.111,457.99L979.361,470.502L969.581,470.607L969.72,472.496L968.397,472.503L968.427,474.376L967.217,474.388L967.199,473.147L967.258,472.139L966.603,471.122L966.485,468.423L966.617,467.955L967.988,465.597L968.319,464.723Z"/>
<path region="117" short-name="35" long-name="State House District 35" value="1" d="M978.352,396.205L979.059,396.368L980.747,396.379L981.987,396.122L984.297,394.687L985.475,393.821L986.375,393.671L987.846,394.046L988.546,394.535L989.169,395.382L988.905,397.344L989.203,398.183L990.321,398.81L991.755,398.858L993.821,398.33L994.873,397.73L995.809,397.537L996.719,397.772L998.18,398.582L998.486,399.42L998.32,401.296L996.967,403.118L995.966,404.949L996.099,405.721L996.114,406.499L994.256,405.215L994.234,403.891L993.057,403.66L992.419,403.105L991.002,403.018L990.337,403.189L988.014,403.264L988.015,402.012L982.47,402.001L982.647,403.319L977.966,403.377L977.931,400.862L980.693,400.833L980.685,399.587L981.917,399.573L981.921,399.907L983.141,399.907L983.232,398.061L984.151,397.233L983.033,396.826L978.228,396.634Z"/>
<path region="118" short-name="112" long-name="State House District 112" value="1" d="M414.42,472.364L427.805,472.773L438.586,473.115L458.058,473.692L472.718,474.071L487.216,474.449L486.829,489.57L486.375,504.557L485.949,519.547L485.762,527.05L461.489,526.403L461.332,532.463L460.739,532.125L459.784,532.555L458.832,532.614L458.394,533.406L456.957,534.093L456.414,534.679L456.019,548.648L444.899,548.323L427.97,547.778L426.744,547.716L427.225,532.943L424.781,532.88L412.582,532.279L412.845,519.793L413.019,517.373L413.291,507.384L413.482,502.379L413.921,487.391L414.22,479.276Z"/>
<path region="119" short-name="111" long-name="State House District 111" value="1" d="M370.205,442.336L370.247,433.771L371.089,432.255L371.202,430.943L380.86,431.263L380.747,433.777L385.626,433.93L385.396,438.926L387.802,438.991L387.741,440.203L389.648,440.241L391.049,440.102L394.131,440.09L398.843,440.581L402.669,440.723L403.602,440.923L404.733,441.488L404.695,444.529L404.466,449.534L403.699,449.503L403.615,449.004L402.489,448.465L402.037,449.444L392.244,449.098L382.522,448.819L377.617,448.629L377.71,446.139L371.333,445.923L370.186,444.995Z"/>
<path region="120" short-name="23" long-name="State House District 23" value="1" d="M978.689,426.281L979.403,426.674L981.145,426.684L981.12,425.428L982.34,425.486L982.328,424.775L983.553,424.745L983.611,428.025L983.688,432.882L981.243,432.924L981.286,436.614L979.467,436.679L979.449,435.442L978.828,434.882L980.062,432.941L981.813,430.408L978.757,430.453Z"/>
<path region="121" short-name="46" long-name="State House District 46" value="1" d="M910.761,428.588L911.367,427.95L915.144,427.244L914.472,428.565L916.789,428.545L916.843,431.206L917.15,431.467L917.169,432.539L917.481,433.541L916.929,433.543L913.712,433.571L913.094,433.877L912.787,434.761L910.806,434.801L910.788,431.203L910.665,430.648Z"/>
<path region="122" short-name="103" long-name="State House District 103" value="1" d="M632.436,640.281L633.93,639.497L636.728,638.691L638.055,637.918L638.008,641.991L638.054,643.369L637.842,645.104L637.272,646.261L637.582,647.61L636.712,647.599L636.671,651.382L637.89,651.388L637.863,653.864L636.64,653.86L636.974,655.114L633.968,655.05L634.472,652.591L634.356,651.458L633.968,650.719L633.116,650.476L633.097,649.462L634.014,649.771L635.126,649.391L635.151,647.68L635.496,647.585L635.517,646.023L634.183,646.012L633.341,644.997L632.487,645.034L632.28,643.762L633.095,642.764L632.529,642.022L633.273,640.883Z"/>
<path region="123" short-name="77" long-name="State House District 77" value="1" d="M659.594,672.851L659.706,660.34L662.056,660.323L662.168,652.843L669.521,652.897L669.61,645.543L670.218,645.429L670.225,642.871L679.693,643.079L689.06,643.148L688.883,652.176L688.903,654.557L688.749,665.669L681.427,665.574L681.347,673.102L681.284,675.603L680.31,678.057L681.27,678.07L681.249,681.834L682.975,681.848L683.283,682.589L682.319,682.833L682.152,683.925L681.691,684.424L681.022,686.584L680.083,687.13L680.24,688.11L673.989,688.027L665.431,687.985L659.334,687.903Z"/>
<path region="124" short-name="4" long-name="State House District 4" value="1" d="M935.44,644.052L935.424,639.075L935.314,629.047L936.414,629.018L936.263,619.022L936.292,606.547L936.277,596.504L936.302,581.516L936.341,581.421L936.199,566.587L936.271,554.739L936.243,553.502L937.615,553.5L937.564,551.001L957.072,550.828L956.829,530.844L965.685,530.802L981.293,530.56L987.34,530.516L997.143,530.394L997.199,534.576L997.413,543.398L997.654,559.821L997.666,571.5L997.846,585.681L997.932,590.909L997.991,599.365L998.081,606.838L998.072,618.2L998.096,636.329L998.189,645.067L998.344,653.508L996.814,653.476L986.386,653.667L982.037,653.576L977.136,653.62L969.587,653.742L964.745,653.736L962.355,653.676L959.805,653.754L942.831,653.885L937.977,654.016L935.545,654.023Z"/>
    </g>
    </svg>