<svg viewBox="0 0 1000 1000" auto-border-stroke-width="1" auto-border-stroke-width-limit=".5" original-source="['https://www2.census.gov/geo/tiger/GENZ2022/shp/cb_2022_us_sldl_500k.zip']" candidates='[{"id":"0","name":"Democrats","margins":[{"color":"#1C408C"},{"color":"#577CCC"},{"color":"#8AAFFF"},{"color":"#949BB3"}]},{"id":"1","name":"Republicans","margins":[{"color":"#BF1D29"},{"color":"#FF5865"},{"color":"#FF8B98"},{"color":"#CF8980"}]},{"id":"2","name":"Progressive","margins":[{"color":"#1c8c28"},{"color":"#50c85e"},{"color":"#8aff97"},{"color":"#7a997e"}]},{"id":"3","name":"Libertarian","margins":[{"color":"#e6b700"},{"color":"#e8c84d"},{"color":"#ffe78a"},{"color":"#b8a252"}]},{"id":"4","name":"Independent","margins":[{"color":"#DCDCDC"},{"color":"#E3E3E3"},{"color":"#EAEAEA"},{"color":"#F1F1F1"}]}]'>
    <g regions>
    <path region="0" short-name="Bennington-4" long-name="Bennington-4 State House District" value="2" d="M436.257,867.36L435.579,863.811L425.931,816.751L428.681,816.099L447.402,812.378L462.26,809.165L463.588,808.598L498.32,801.433L500.234,810.695L505.694,838.245L482.705,842.897L481.04,845.284L479.219,846.054L479.071,849.554L478.551,852.419L480.061,858.357L479.021,860.451L478.05,864.863L478.236,868.917L475.811,869.643L474.55,869.416L477.16,882.511L476.614,882.516L464.574,885.053L440.564,889.708Z"/>
<path region="1" short-name="Chittenden-16" long-name="Chittenden-16 State House District" value="2" d="M320.917,321.112L321.14,323.612L320.614,325.523L320.875,328.232L316.405,329.508L316,328.654L318.38,327.568L317.195,323.524L317.303,321.974Z"/>
<path region="2" short-name="Chittenden-15" long-name="Chittenden-15 State House District" value="2" d="M320.917,321.112L321.699,320.941L325.242,321.623L327.218,320.503L327.787,321.818L329.294,321.73L326.663,327.342L325.479,326.969L323.265,326.013L321.935,326.455L320.614,325.523L321.14,323.612Z"/>
<path region="3" short-name="Chittenden-5" long-name="Chittenden-5 State House District" value="1" d="M301.289,386.281L324.556,376.488L335.705,371.682L343.843,368.198L352.566,388.549L353.454,386.629L357.359,385.11L358.765,389.746L358.896,392.279L360.28,394.922L360.915,399.638L353.362,402.93L344.223,407.17L335.165,410.684L324.638,414.621L312.435,415.921L312.15,411.887L311.257,409.741L309.292,407.089L306.503,402.113L305.167,398.965L302.996,389.761Z"/>
<path region="4" short-name="Washington-4" long-name="Washington-4 State House District" value="2" d="M505.279,370.523L510.531,346.811L513.513,347.501L512.41,351.926L515.552,352.707L514.929,355.438L516.521,355.846L515.933,358.704L518.598,359.34L519.376,360.565L519.35,362.612L525.926,364.186L525.311,366.789L530.136,368.122L529.173,372.061L526.178,371.857L524.769,372.535L523.798,375.568L512.793,374.734L512.957,372.69L510.048,372.578L508.652,371.864L507.901,370.127Z"/>
<path region="5" short-name="Chittenden-13" long-name="Chittenden-13 State House District" value="2" d="M308.534,330.65L316,328.654L316.405,329.508L320.875,328.232L321.744,329.328L324.067,329.06L324.209,330.627L326.531,329.677L328.358,334.299L323.207,335.237L323.851,338.88L317.726,339.962Z"/>
<path region="6" short-name="Rutland-3" long-name="Rutland-3 State House District" value="1" d="M388.396,636.224L398.434,634.054L424.508,629.092L426.727,633.723L432.127,644.949L427.885,646.151L429.624,655.214L430.664,664.75L429.884,665.095L395.438,672.4L389.256,641.359Z"/>
<path region="7" short-name="Rutland-Windsor" long-name="Rutland-Windsor State House District" value="1" d="M482.353,656.276L526.385,643.279L527.511,657.704L530.03,677.316L536.088,677.05L536.692,682.109L553.164,683.051L569.795,684.163L575.007,705.067L576.046,710.465L579.241,723.816L574.505,724.656L576.742,736.212L551.99,729.549L530.818,723.113L532.553,725.396L524.051,727.277L522.066,720.671L515.717,721.944L514.311,715.492L513.913,712.2L509.029,688.606L503.257,690.579L493.115,693.306L492.748,691.849Z"/>
<path region="8" short-name="Chittenden-11" long-name="Chittenden-11 State House District" value="1" d="M326.531,329.677L325.479,326.969L326.663,327.342L329.416,328.064L331.61,334.121L332.96,337.759L330.344,338.784L327.717,338.242L323.851,338.88L323.207,335.237L328.358,334.299Z"/>
<path region="9" short-name="Essex-Caledonia" long-name="Essex-Caledonia State House District" value="1" d="M665.319,137.854L669.21,127.367L674.253,116.169L672.878,114.292L680.979,96.009L692.439,100.651L702.669,65.783L705.165,66.733L735.861,79.473L732.993,81.75L732.618,84.082L733.118,85.086L735.62,86.467L735.37,90.432L736.326,92.07L734.915,95.973L731.66,97.671L731.187,98.827L731.682,100.643L730.189,102.832L729.873,104.262L728.274,106.073L728.517,108.201L727.754,109.508L724.011,112.063L724.632,113.521L725.888,113.805L726.816,115.31L727.896,120.648L730.476,120.295L730.598,122.633L732.608,123.453L732.87,124.414L737.945,128.577L737.939,130.439L739.848,130.678L739.331,132.932L741.146,135.717L741.262,138.22L744.29,138.773L744.462,140.319L745.708,143.009L746.06,145.055L747.512,145.678L748.643,147.214L751.372,146.78L752.853,145.543L753.721,147.585L755.319,149.463L754.309,151.604L758,153.327L757.866,157.672L759.797,161.79L759.787,163.542L758.065,164.367L758.807,165.549L760.695,165.795L761.39,167.577L765.383,167.84L766.592,169.454L766.146,171.384L764.8,172.978L762.97,171.999L762.346,172.882L764.874,175.069L764.853,176.319L762.486,176.685L762.744,179.005L760.042,180.401L758.636,180.06L754.822,180.533L753.837,181.055L753.01,183.019L753.449,185.795L756.766,187.56L760.957,189.244L762.007,190.471L761.83,192.662L760.385,196.486L757.473,197.936L760.074,199.881L761.94,202.302L763.999,203.443L761.259,206.576L759.656,205.835L760.063,208.855L759.659,211.885L757.091,213.414L754.66,213.378L753.904,217.95L752.05,218.912L751.179,217.422L752.91,216.142L752.151,214.707L750.783,215.196L749.88,217.893L748.359,219.397L748.809,221.852L751.055,223.116L750.203,224.906L747.749,225.579L747.247,227.909L747.748,230.467L747.714,233.405L747.062,235.085L743.093,237.539L744.555,239.464L742.863,240.47L742.862,241.849L738.905,247.048L735.942,249.573L733.628,249.64L731.341,250.322L729.575,252.094L714.392,232.417L704.214,218.658L695.735,227.961L689.031,225.159L688.522,226.359L669.14,210.215L671.053,205.636L663.808,202.684L659.995,202.696L659.688,199.422L654.629,199.744L640.195,200.386L638.566,164.294L658.956,172.314L663.338,161.714L671.91,140.453Z"/>
<path region="10" short-name="Orange-Washington-Addison" long-name="Orange-Washington-Addison State House District" value="2" d="M446.03,476.224L444.516,469.276L441.404,462.651L444.957,461.286L459.491,463.072L468.483,464.354L474.632,432.198L517.225,437.453L544.658,440.938L561.694,476.094L553.818,511.411L553.035,516.319L543.984,514.956L525.313,512.752L523.051,512.559L512.2,511.037L511.684,512.596L492.925,510.361L493.493,507.595L491.601,507.319L492.186,504.497L486.698,503.449L487.343,500.473L485.366,500.238L486.016,497.259L484.773,496.997L482.932,504.245L482.063,508.382L480.153,508.154L451.062,503.994L451.723,501.302Z"/>
<path region="11" short-name="Windsor-3" long-name="Windsor-3 State House District" value="2" d="M612.319,717.917L633.937,714.127L641.9,712.556L651.641,710.863L651.589,711.092L651.162,713.672L652.014,715.098L654.439,717.477L656.127,718.409L657.125,719.827L656.34,723.965L656.628,732.307L654.709,740.776L651.402,743.649L650.981,746.045L651.759,749.404L654.285,753.362L654.032,753.336L636.077,757.215L621.917,760.362L616.753,738.531L613.384,723.261Z"/>
<path region="12" short-name="Franklin-3" long-name="Franklin-3 State House District" value="1" d="M327.201,188.106L327.244,190.828L323.767,189.864L320.987,190.374L320.583,192.366L319.118,192.021L319.077,187.505L320.152,187.42L320.703,185.128L322.781,185.638L323.186,184.188L324.756,184.26L325.086,185.608L326.993,185.758Z"/>
<path region="13" short-name="Chittenden-4" long-name="Chittenden-4 State House District" value="1" d="M363.987,360.26L366.058,359.444L378.23,354.536L380.129,359.176L389.113,380.973L391.918,387.799L377.759,393.508L377.231,392.041L360.915,399.638L360.28,394.922L358.896,392.279L358.765,389.746L357.359,385.11L353.454,386.629L352.566,388.549L343.843,368.198L345.853,367.792Z"/>
<path region="14" short-name="Addison-4" long-name="Addison-4 State House District" value="2" d="M344.223,407.17L353.362,402.93L360.915,399.638L377.231,392.041L377.759,393.508L391.918,387.799L389.113,380.973L402.141,381.317L411.068,405.141L421.376,431.22L426.221,429.443L427.451,432.136L436.108,454.86L439.66,463.325L441.404,462.651L444.516,469.276L446.03,476.224L431.446,479.773L431.673,480.812L411.139,484.826L410.451,481.538L402.159,484.732L400.327,478.881L392.153,482.193L379.109,448.714L369.653,448.968L365.673,438.679L358.375,441.601Z"/>
<path region="15" short-name="Windham-9" long-name="Windham-9 State House District" value="1" d="M634.328,895.83L653.69,891.552L659.497,890.43L657.961,893.506L654.999,896.063L655.204,899.928L655.805,903.258L657.031,905.787L657.166,909.089L654.808,910.712L652.791,911.491L649.275,912.063L649.508,910.83L647.609,908.582L647.865,906.095L645.461,903.4L645.55,901.721L643.913,900.203L641.326,902.554L636.872,897.475L634.725,896.789Z"/>
<path region="16" short-name="Orleans-4" long-name="Orleans-4 State House District" value="1" d="M505.131,213.591L513.515,178.161L520.673,147.282L555.375,155.575L554.535,159.337L588.161,166.484L589.056,167.122L588.688,169.519L582.117,199.692L581.111,204.678L576.836,222.158L573.206,237.1L560.952,234.084L541.199,229.568L538.867,228.776L539.512,225.057L538.735,225.058L504.313,217.087Z"/>
<path region="17" short-name="Chittenden-1" long-name="Chittenden-1 State House District" value="1" d="M366.058,359.444L369.008,336.43L371.867,336.857L376.701,330.939L405.016,325.794L405.5,336.292L405.373,347.696L403.851,360.283L380.129,359.176L378.23,354.536Z"/>
<path region="18" short-name="Franklin-8" long-name="Franklin-8 State House District" value="1" d="M320.583,192.366L320.987,190.374L323.767,189.864L327.244,190.828L327.201,188.106L328.714,188.028L329.426,191.223L328.829,196.881L329.42,202.586L326.978,204.513L320.679,203.052L322.327,196.769L322.131,193.736Z"/>
<path region="19" short-name="Orange-1" long-name="Orange-1 State House District" value="1" d="M559.178,416.927L560.478,407.915L564.259,408.82L561.926,371.73L577.369,374.734L596.864,378.301L597.434,388.964L598.565,415.031L629.95,415.888L639.979,417.104L635.452,446.494L635.17,446.556L632.943,462.642L630.243,483.165L629.929,484.605L599.263,482.805L597.272,482.347L596.926,478.167L592.922,451.005L555.674,443.127Z"/>
<path region="20" short-name="Caledonia-2" long-name="Caledonia-2 State House District" value="1" d="M530.643,260.39L530.951,260.094L538.867,228.776L541.199,229.568L560.952,234.084L573.206,237.1L576.836,222.158L594.801,230.677L609.673,237.549L607.818,245.615L599.541,280.67L566.256,272.179L565.012,271.674L563.645,271.472L532.491,263.625L529.97,263.338Z"/>
<path region="21" short-name="Chittenden-3" long-name="Chittenden-3 State House District" value="2" d="M370.299,318.31L379.077,282.626L388.123,247.348L407.104,263.672L418.453,272.728L423.5,273.099L420.72,286.174L429.096,288.266L428.518,290.931L424.044,308.739L409.429,307.833L405.308,324.2L405.016,325.794L376.701,330.939L372.79,329.86L373.647,328.112L376.032,327.064L375.495,324.107L373.439,322.675L373.971,320.768L372.338,319.926L371.932,318.655Z"/>
<path region="22" short-name="Caledonia-Washington" long-name="Caledonia-Washington State House District" value="1" d="M565.012,271.674L566.256,272.179L599.541,280.67L607.818,245.615L609.673,237.549L625.285,236.922L629.577,244.656L645.491,275.002L646.779,277.031L637.486,296.562L619.755,334.137L582.345,334.592L591.048,315.331L558.521,306.813L556.569,306.496L556.724,306.056Z"/>
<path region="23" short-name="Washington-6" long-name="Washington-6 State House District" value="1" d="M513.763,332.854L521.791,298.671L521.698,297.937L540.704,302.53L556.569,306.496L558.521,306.813L591.048,315.331L582.345,334.592L584.995,344.797L582.362,355.591L582.003,356.215L577.369,374.734L561.926,371.73L559.57,371.274L543.925,370.927L551.388,341.71L521.848,334.606Z"/>
<path region="24" short-name="Chittenden-17" long-name="Chittenden-17 State House District" value="1" d="M303.824,311.552L305.535,311.961L305.531,310.396L306.95,309.083L308.987,311.123L309.308,313.629L312.561,314.499L313.255,316.404L314.362,316.604L315.691,314.383L317.452,316.116L320.348,317.224L321.441,320.368L321.699,320.941L320.917,321.112L317.303,321.974L317.195,323.524L318.38,327.568L316,328.654L308.534,330.65L301.385,323.426L302.02,320.396L305.644,320.182L308.593,315.71L308.371,313.381Z"/>
<path region="25" short-name="Chittenden-19" long-name="Chittenden-19 State House District" value="2" d="M271.204,303.678L272.471,303.167L283.436,296.882L288.308,293.44L292.517,289.26L294.246,286.838L297.746,287.862L303.314,288.532L306.94,289.794L308.832,290.887L310.769,290.765L318.235,289.233L320.148,289.123L320.897,292.479L320.2,296.122L318.159,300.577L318.001,303.028L319.764,305.373L322.25,305.068L324.229,303.915L326.277,304.384L326.657,307.085L322.684,306.829L321.016,307.869L322.484,311.733L323.915,313.325L327.274,314.391L328.625,315.939L322.929,314.548L321.441,320.368L320.348,317.224L317.452,316.116L315.691,314.383L314.362,316.604L313.255,316.404L312.561,314.499L309.308,313.629L308.987,311.123L306.95,309.083L305.531,310.396L305.535,311.961L303.824,311.552L302.672,312.497L300.402,311.32L300.851,308.187L299.658,306.538L297.539,308.052L299.121,309.797L297.773,310.965L297.747,311.195L286.8,319.725L285.578,315.796L283.505,314.998L281.963,312.332L279.248,309.979L279.016,308.589L277.365,306.923L273.013,305.526Z"/>
<path region="26" short-name="Windham-5" long-name="Windham-5 State House District" value="1" d="M582.903,898.805L588.684,897.347L589.146,893.315L589.036,885.817L589.206,878.515L588.659,866.373L588.386,844.87L588.212,814.003L593.158,814.37L592.53,810.477L594.971,809.54L606.631,804.429L608.62,816.8L621.569,814.339L622.108,827.511L623.024,849.335L614.626,851.081L615.142,853.159L618.345,854.896L619.253,856.139L620.185,859.215L622.084,859.359L621.859,860.927L623.526,863.707L622.169,865.341L620.231,866.286L620.441,870.036L623.707,869.354L623.805,874.42L624.273,882.203L624.254,886.372L623.883,888.858L616.883,890.279L618.749,899.138L624.835,927.319L590.416,935.149Z"/>
<path region="27" short-name="Windham-4" long-name="Windham-4 State House District" value="1" d="M623.707,869.354L631.472,867.747L629.932,860.733L629.906,858.951L631.749,858.661L631.655,852.441L632.008,850.91L631.625,845.092L649.227,841.261L664.55,838.067L667.855,837.203L668.87,838.238L672.986,839.956L673.652,841.562L672.765,843.87L669.735,845.084L669.04,847.927L669.259,849.524L670.943,851.829L668.597,856.882L666.207,856.689L663.784,859.903L660.715,861.43L659.849,862.324L657.008,863.451L653.964,867.596L653.794,869.712L655.916,871.055L656.981,873.011L657.951,877.413L659.73,881.104L659.845,882.774L658.734,884.198L658.78,885.998L659.71,889.546L659.497,890.43L653.69,891.552L634.328,895.83L618.749,899.138L616.883,890.279L623.883,888.858L624.254,886.372L624.273,882.203L623.805,874.42Z"/>
<path region="28" short-name="Orange-Caledonia" long-name="Orange-Caledonia State House District" value="1" d="M577.369,374.734L582.003,356.215L582.362,355.591L584.995,344.797L582.345,334.592L619.755,334.137L634.177,365.621L671.152,369.94L672.361,370.199L671.96,372.238L673.542,377.304L676.51,379.214L676.125,381.704L673.652,382.899L672.429,384.862L672.599,388.704L674.278,392.098L675.805,393.421L677.199,392.924L677.439,390.356L680.31,391.106L680.72,394.361L679.97,395.606L677.928,396.157L677.969,397.338L681.47,398.276L682.15,399.319L680.648,400.526L679,399.833L676.663,401.481L678.404,404.193L677.579,406.161L677.165,408.889L674.363,409.735L674.259,411.082L676.366,411.789L675.788,413.014L672.873,416.13L672.844,417.286L674.856,419.882L674.002,421.461L642.185,417.444L639.979,417.104L629.95,415.888L598.565,415.031L597.434,388.964L596.864,378.301Z"/>
<path region="29" short-name="Franklin-2" long-name="Franklin-2 State House District" value="1" d="M286.542,167.955L315.003,174.666L342.868,180.957L346.853,182.048L353.461,183.747L339.795,194.397L329.42,202.586L328.829,196.881L329.426,191.223L328.714,188.028L327.201,188.106L326.993,185.758L325.086,185.608L324.756,184.26L323.186,184.188L322.781,185.638L320.703,185.128L320.152,187.42L319.077,187.505L319.118,192.021L320.583,192.366L322.131,193.736L322.327,196.769L320.679,203.052L307.255,199.823L304.551,206.007L304.244,208.279L303.339,209.872L300.697,212.858L296.543,220.996L295.179,224.157L292.46,233.44L284.086,224.318L280.693,219.688L279.456,215.703L279.414,212.009L280.64,205.008L282.066,200.547L284.78,196.417L288.032,194.013L289.014,189.062L288.223,186.602L286.66,184.55L286.245,182.262L286.282,178.234L285.936,176.608L286.924,172.515Z"/>
<path region="30" short-name="Orleans-3" long-name="Orleans-3 State House District" value="1" d="M555.375,155.575L563.193,120.663L561.737,120.336L567.022,97.681L580.569,103.412L605.957,114.24L618.458,119.199L627.447,122.943L638.861,127.28L628.28,153.936L626.257,159.459L593.246,147.075L606.449,170.192L589.123,166.688L589.056,167.122L588.161,166.484L554.535,159.337Z"/>
<path region="31" short-name="Chittenden-20" long-name="Chittenden-20 State House District" value="2" d="M311.604,275.79L329.159,280.006L333.19,281.059L342.58,283.39L338.048,301.724L333.681,318.566L331.033,319.247L330.097,320.105L329.869,318.065L330.704,315.406L328.625,315.939L327.274,314.391L323.915,313.325L322.484,311.733L321.016,307.869L322.684,306.829L326.657,307.085L326.277,304.384L324.229,303.915L322.25,305.068L319.764,305.373L318.001,303.028L318.159,300.577L320.2,296.122L320.897,292.479L320.148,289.123L318.235,289.233L310.769,290.765L308.832,290.887L306.94,289.794L303.314,288.532L297.746,287.862L294.246,286.838L295.925,282.61L296.287,279.451L299.571,277.829L300.956,276.102L302.595,276.013L304.305,277.164L306.738,278.019L310.499,277.834Z"/>
<path region="32" short-name="Addison-5" long-name="Addison-5 State House District" value="1" d="M309.287,516.038L312.291,515.175L347.826,501.224L347.124,499.983L345.117,498.839L343.533,494.478L342.514,494.897L339.908,488.383L341.099,487.048L344.275,485.361L343.834,483.946L347.083,482.899L348.67,481.939L350.369,482.727L357.523,484.575L360.368,483.606L362.314,483.91L362.597,482.839L365.944,483.413L369.007,484.934L370.764,482.848L368.693,480.306L367.266,476.999L366.535,470.015L363.894,463.608L361.631,461.686L361.695,459.879L360.242,457.579L359.602,455.135L360.521,449.722L361.258,449.23L358.375,441.601L365.673,438.679L369.653,448.968L379.109,448.714L392.153,482.193L373.932,489.361L375.535,493.204L374.69,496.905L376.083,499.978L376.182,502.189L374.689,503.442L371.617,501.509L369.328,502.323L351.734,509.425L357.143,534.612L355.474,535.66L320.572,550.095L317.703,551.055L317.282,550.145L316.641,543.808L314.552,536.75L311.77,532.247L310.653,519.639Z"/>
<path region="33" short-name="Orleans-Lamoille" long-name="Orleans-Lamoille State House District" value="2" d="M458.155,166.154L458.792,164.667L463.87,167.235L471.17,143.648L460.066,108.873L461.378,108.486L448.709,78.096L454.543,76.792L468.393,72.884L477.142,70.809L490.219,68.293L504.594,65.039L515.202,63.078L520.068,61.563L525.785,60.233L532.282,58.397L538.172,64.631L542.799,76.567L541.055,78.301L538.96,78.314L539.05,79.846L540.501,81.158L539.769,84.272L541.184,84.85L540.48,86.581L558.376,94.18L559.846,94.599L567.022,97.681L561.737,120.336L563.193,120.663L555.375,155.575L520.673,147.282L513.515,178.161L505.131,213.591L469.339,205.241L468.836,207.534L449.095,203.238Z"/>
<path region="34" short-name="Chittenden-9" long-name="Chittenden-9 State House District" value="1" d="M331.61,334.121L334.986,332.798L333.687,331.81L332.283,328.21L337.177,328.549L340.178,329.656L342.783,329.185L342.496,331.56L342.939,333.558L344.456,335.376L342.594,334.907L337.814,334.673L338.401,338.414L336.974,338.935L335.734,337.776L334.387,337.97L333.616,339.539L332.96,337.759Z"/>
<path region="35" short-name="Windham-2" long-name="Windham-2 State House District" value="1" d="M508.643,838.007L508.408,836.596L522.093,833.847L536.352,831.478L544.799,829.676L540.749,809.27L569.128,812.229L588.212,814.003L588.386,844.87L588.659,866.373L589.206,878.515L589.036,885.817L589.146,893.315L588.684,897.347L582.903,898.805L570.675,900.955L560.097,902.925L547.149,905.571L523.655,910.308L523.636,910.122L523.234,909.94L520.126,894.513L515.776,873.864L516.491,873.735L515.005,867.725L510.499,848.017L508.85,840.473Z"/>
<path region="36" short-name="Chittenden-14" long-name="Chittenden-14 State House District" value="2" d="M320.614,325.523L321.935,326.455L323.265,326.013L325.479,326.969L326.531,329.677L324.209,330.627L324.067,329.06L321.744,329.328L320.875,328.232Z"/>
<path region="37" short-name="Lamoille-2" long-name="Lamoille-2 State House District" value="2" d="M418.998,180.521L417.347,175.135L420.836,168.562L434.779,165.711L452.595,162.087L452.185,164.06L458.155,166.154L449.095,203.238L468.836,207.534L469.339,205.241L505.131,213.591L504.313,217.087L538.735,225.058L539.512,225.057L538.867,228.776L530.951,260.094L530.643,260.39L497.293,252.409L496.598,252.04L498.605,243.69L495.704,243.475L488.383,241.449L486.996,246.279L473.436,243.209L470.393,245.105L465.833,241.576L465.447,240.591L461.608,240.209L461.158,242.147L458.376,241.561L455.354,252.975L447.672,253.18L441.563,251.855L441.329,252.913L435.609,251.635L438.825,237.543L427.453,235.079L435.108,199.974L423.828,197.093Z"/>
<path region="38" short-name="Chittenden-25" long-name="Chittenden-25 State House District" value="1" d="M336.451,244.341L351.267,248.291L384.166,247.588L388.123,247.348L379.077,282.626L359.014,283.092L342.58,283.39L333.19,281.059L331.509,277.282L331.949,271.413L331.962,266.471L334.76,267.208L334.224,263.047L334.312,258.065L335.248,257.291L335.142,254.859L336.412,249.874L336.051,246.765Z"/>
<path region="39" short-name="Chittenden-8" long-name="Chittenden-8 State House District" value="1" d="M333.616,339.539L334.387,337.97L335.734,337.776L336.974,338.935L338.401,338.414L337.814,334.673L342.594,334.907L344.456,335.376L346.899,335.543L350.289,335.17L349.696,339.959L355.819,341.574L358.493,341.275L360.329,342.688L360.37,355.374L362.68,359.211L354.107,352.247L346.586,351.387L325.499,348.73L325.406,348.146L329.896,347.724L329.737,343.437L331.858,342.942L333.142,343.666L334.875,342.956Z"/>
<path region="40" short-name="Addison-1" long-name="Addison-1 State House District" value="2" d="M369.328,502.323L371.617,501.509L374.689,503.442L376.182,502.189L376.083,499.978L374.69,496.905L375.535,493.204L373.932,489.361L392.153,482.193L400.327,478.881L402.159,484.732L411.119,514.987L381.365,526.828L378.863,520.973L374.28,516.395L373.328,513.769L371.886,512.755L370.583,505.558Z"/>
<path region="41" short-name="Windsor-6" long-name="Windsor-6 State House District" value="2" d="M627.591,564.93L644.928,567.248L645.657,570.894L646.955,572.608L647.347,577.244L646.085,581.822L647.217,587.685L644.289,590.231L644.945,592.624L644.064,595.09L644.438,599.323L647.135,602.221L626.378,602.066L608.858,602.143L608.487,600.599L609.604,599.016L610.941,598.494L612.02,596.295L610.862,592.96L612.413,589.874L613.769,589.913L616.319,593.036L618.151,593.219L619.417,591.94L620.762,587.597L620.884,586.048L624.269,582.947L624.083,579.141L620.972,577.393L619.566,576.067L622.251,574.071L622.609,571.251Z"/>
<path region="42" short-name="Addison-3" long-name="Addison-3 State House District" value="2" d="M312.435,415.921L324.638,414.621L335.165,410.684L344.223,407.17L358.375,441.601L361.258,449.23L360.521,449.722L359.602,455.135L360.242,457.579L361.695,459.879L361.631,461.686L363.894,463.608L366.535,470.015L367.266,476.999L368.693,480.306L370.764,482.848L369.007,484.934L365.944,483.413L362.597,482.839L362.314,483.91L360.368,483.606L357.523,484.575L350.369,482.727L348.67,481.939L347.083,482.899L343.834,483.946L344.275,485.361L341.099,487.048L339.908,488.383L342.514,494.897L343.533,494.478L345.117,498.839L347.124,499.983L347.826,501.224L312.291,515.175L309.287,516.038L307.884,513.991L303.938,512.57L302.134,510.984L299.229,509.696L298.765,508.816L298.626,501.312L297.892,494.965L299.58,486.38L299.717,480.926L299.151,479.079L296.61,473.448L298.101,470.411L299.073,467.526L298.545,460.956L299.061,459.247L298.04,457.258L298.067,455.54L299.261,453.017L298.214,450.075L299.706,448.043L299.807,446.376L301.469,444.874L302.298,442.761L304.305,440.639L305.125,435.942L304.891,434.346L305.755,433.178L305.593,431.414L307.283,429.297L306.701,428.001L308.332,426.988L309.616,424.757L311.546,424.434L312.058,422Z"/>
<path region="43" short-name="Chittenden-21" long-name="Chittenden-21 State House District" value="2" d="M321.441,320.368L322.929,314.548L328.625,315.939L330.704,315.406L329.869,318.065L330.097,320.105L329.294,321.73L327.787,321.818L327.218,320.503L325.242,321.623L321.699,320.941Z"/>
<path region="44" short-name="Windsor-4" long-name="Windsor-4 State House District" value="1" d="M529.958,639.27L534.036,615.872L536.686,597.776L537.477,594.022L530.7,592.861L537.233,552.65L541.713,553.262L560.286,555.767L577.09,558.138L598.351,560.887L605.434,562.154L607.062,564.051L608.594,564.329L609.333,562.406L627.591,564.93L622.609,571.251L622.251,574.071L619.566,576.067L620.972,577.393L624.083,579.141L624.269,582.947L620.884,586.048L620.762,587.597L619.417,591.94L618.151,593.219L616.319,593.036L613.769,589.913L612.413,589.874L610.862,592.96L612.02,596.295L610.941,598.494L609.604,599.016L608.487,600.599L608.858,602.143L606.46,602.167L605.622,602.033L604.339,599.845L601.062,600.419L577.906,597.747L576.118,597.44L575.734,599.218L573.147,599.051L566.004,641.933L563.927,642.053L530.803,639.265Z"/>
<path region="45" short-name="Rutland-6" long-name="Rutland-6 State House District" value="1" d="M459.261,649.911L460.851,649.522L467.08,646.414L469.002,644.612L470.485,647.693L469.511,648.245L470.651,650.425L472.611,651.99L465.656,655.512L461.772,652.926L458.606,651.954Z"/>
<path region="46" short-name="Chittenden-Franklin" long-name="Chittenden-Franklin State House District" value="2" d="M323.433,241.105L324.84,237.157L328.093,234.464L328.108,236.126L331.363,237.774L332.984,239.6L335.46,239.656L336.43,240.679L336.451,244.341L336.051,246.765L336.412,249.874L335.142,254.859L335.248,257.291L334.312,258.065L334.224,263.047L334.76,267.208L331.962,266.471L331.949,271.413L331.509,277.282L333.19,281.059L329.159,280.006L311.604,275.79L311.583,274.043L313.398,272.487L316.477,271.547L316.152,269.667L316.301,266.423L316.991,263.825L319.35,259.798L320.493,260.228L322.629,257.929L324.47,258.996L323.515,255.944L323.042,250.983L323.54,243.677Z"/>
<path region="47" short-name="Rutland-5" long-name="Rutland-5 State House District" value="1" d="M469.002,644.612L472.265,640.585L472.488,639.591L474.118,639.066L474.88,640.442L475.514,644.227L477.13,649.717L472.611,651.99L470.651,650.425L469.511,648.245L470.485,647.693Z"/>
<path region="48" short-name="Windsor-5" long-name="Windsor-5 State House District" value="1" d="M526.385,643.279L525.852,638.792L529.958,639.27L530.803,639.265L563.927,642.053L566.004,641.933L573.147,599.051L575.734,599.218L576.118,597.44L577.906,597.747L601.062,600.419L604.339,599.845L605.622,602.033L606.46,602.167L605.295,604.345L604.332,608.759L598.718,643.564L597.486,644.287L598.166,646.564L606.936,678.931L569.516,682.8L569.795,684.163L553.164,683.051L536.692,682.109L536.088,677.05L530.03,677.316L527.511,657.704Z"/>
<path region="49" short-name="Orleans-2" long-name="Orleans-2 State House District" value="1" d="M542.799,76.567L544.152,75.025L548.655,71.063L550.267,70.172L551.169,70.998L551.574,74.302L552.493,75.19L555.614,74.362L556.035,76.231L558.705,74.652L558.93,76.928L557.819,77.286L558.456,79.807L557.225,81.71L553.614,82.442L553.786,84.789L553.272,86.171L554.968,90.614L559.081,92.453L558.376,94.18L540.48,86.581L541.184,84.85L539.769,84.272L540.501,81.158L539.05,79.846L538.96,78.314L541.055,78.301Z"/>
<path region="50" short-name="Franklin-6" long-name="Franklin-6 State House District" value="1" d="M329.42,202.586L339.795,194.397L353.461,183.747L346.853,182.048L348.094,178.076L340.12,168.915L339.407,166.47L338.876,156.878L339.993,156.89L385.839,155.884L387.241,155.895L387.541,162.899L403.912,158.538L414.663,156.711L431.211,151.526L434.779,165.711L420.836,168.562L417.347,175.135L418.998,180.521L416.371,180.715L416.703,186.106L413.84,186.267L414.355,195.06L413.002,196.599L414.264,216.543L396.618,212.573L390.724,236.705L388.971,239.222L388.583,241.039L384.541,242.103L382.86,240.921L365.926,222.178L349.977,203.926L326.978,204.513Z"/>
<path region="51" short-name="Chittenden-10" long-name="Chittenden-10 State House District" value="1" d="M329.294,321.73L330.097,320.105L331.033,319.247L333.681,318.566L334.873,318.856L337.621,317.483L336.213,316.491L337.394,313.368L338.401,312.959L337.926,314.424L338.739,317.1L338.065,318.278L338.429,321.352L340.817,321.702L341.225,322.747L341.208,324.694L342.783,329.185L340.178,329.656L337.177,328.549L332.283,328.21L333.687,331.81L334.986,332.798L331.61,334.121L329.416,328.064L326.663,327.342Z"/>
<path region="52" short-name="Addison-2" long-name="Addison-2 State House District" value="1" d="M369.328,502.323L370.583,505.558L371.886,512.755L373.328,513.769L374.28,516.395L378.863,520.973L381.365,526.828L411.119,514.987L402.159,484.732L410.451,481.538L411.139,484.826L431.673,480.812L431.446,479.773L446.03,476.224L451.723,501.302L451.062,503.994L440.883,502.999L436.461,525.472L433.761,539.792L440.232,540.521L442.016,547.841L443.774,546.259L451.284,561.06L444.179,567.51L437.468,573.158L431.233,559.447L429.938,557.882L409.139,564.011L395.498,568.149L391.89,559.674L391.215,560.786L389.093,561.072L387.29,559.491L386.658,553.584L384.68,551.869L382.361,551.546L381.539,550.105L382.604,548.492L382.831,544.218L377.491,545.288L365.976,549.8L357.143,534.612L351.734,509.425Z"/>
<path region="53" short-name="Rutland-9" long-name="Rutland-9 State House District" value="1" d="M395.498,568.149L409.139,564.011L429.938,557.882L431.233,559.447L437.468,573.158L442.591,584.362L443.895,586.303L444.045,587.59L445.782,590.725L431.331,594.989L430.762,596.965L428.446,596.574L427.293,595.334L425.106,595.034L424.815,596.938L410.847,601.235L395.912,569.131Z"/>
<path region="54" short-name="Bennington-3" long-name="Bennington-3 State House District" value="1" d="M440.564,889.708L464.574,885.053L476.614,882.516L477.16,882.511L474.55,869.416L475.811,869.643L478.236,868.917L478.05,864.863L479.021,860.451L480.061,858.357L478.551,852.419L479.071,849.554L479.219,846.054L481.04,845.284L482.705,842.897L505.694,838.245L508.643,838.007L508.85,840.473L510.499,848.017L515.005,867.725L516.491,873.735L515.776,873.864L520.126,894.513L523.234,909.94L523.636,910.122L522.644,910.477L495.091,916.271L490.526,917.462L484.634,919.529L448.297,927.002Z"/>
<path region="55" short-name="Washington-Chittenden" long-name="Washington-Chittenden State House District" value="2" d="M380.129,359.176L403.851,360.283L405.373,347.696L405.5,336.292L405.016,325.794L405.308,324.2L409.429,307.833L424.044,308.739L433.986,309.27L445.604,310.087L459.786,313.788L480.311,319.618L477.874,329.407L480.34,330.05L479.515,332.943L482.043,333.393L480.457,340.393L478.463,339.988L476.201,350.864L473.138,350.029L471.541,356.913L469.042,356.509L468.17,355.298L465.968,354.258L463.924,354.344L462.54,352.962L459.715,353.313L456.596,351.678L456.253,348.748L455.19,348.182L453.176,348.785L451.781,346.333L444.977,345.989L443.291,344.495L441.536,345.669L440.451,345.12L438.092,346.875L436.318,346.096L435.341,346.874L428.344,346.087L424.642,364.591L422.698,382.153L425.943,382.353L425.074,392.297L422.686,416.885L421.688,426.44L421.376,431.22L411.068,405.141L402.141,381.317L389.113,380.973Z"/>
<path region="56" short-name="Rutland-7" long-name="Rutland-7 State House District" value="1" d="M462.051,638.747L465.355,637.637L467.264,642.565L465.931,643.469L467.08,646.414L460.851,649.522L459.261,649.911L459.298,648.109L456.965,640.055Z"/>
<path region="57" short-name="Washington-5" long-name="Washington-5 State House District" value="1" d="M480.311,319.618L480.878,319.799L513.763,332.854L521.848,334.606L551.388,341.71L543.925,370.927L532.687,370.693L532.381,370.88L531.375,372.452L529.173,372.061L530.136,368.122L525.311,366.789L525.926,364.186L519.35,362.612L519.376,360.565L518.598,359.34L515.933,358.704L516.521,355.846L514.929,355.438L515.552,352.707L512.41,351.926L513.513,347.501L510.531,346.811L505.279,370.523L500.231,369.125L498.931,367.835L496.681,367.224L492.887,366.688L490.913,367.39L489.547,364.823L486.94,363.776L486.463,362.594L483.342,362.545L478.503,360.657L477.264,356.119L475.76,355.446L473.054,355.82L471.541,356.913L473.138,350.029L476.201,350.864L478.463,339.988L480.457,340.393L482.043,333.393L479.515,332.943L480.34,330.05L477.874,329.407Z"/>
<path region="58" short-name="Windham-3" long-name="Windham-3 State House District" value="2" d="M622.108,827.511L631.342,825.705L630.305,802.618L629.965,802.727L621.325,766.939L620.212,761.038L621.917,760.362L636.077,757.215L654.032,753.336L654.285,753.362L653.783,759.231L654.136,760.699L656.148,765.322L653.655,770.166L654.214,771.386L656.474,773.666L656.568,775.387L655.009,778.184L656.189,782.308L656.943,784.657L656.105,787.179L656.296,788.349L658.407,790.949L661.799,791.376L661.781,793.68L665.585,797.043L666.216,799.173L666.014,800.932L664.782,802.792L664.614,805.012L668.193,809.943L668.392,811.901L666.893,816.541L665.01,820.247L663.065,823.236L662.539,825.321L663.45,827.202L665.691,829.441L666.111,834.319L667.829,837.168L667.855,837.203L664.55,838.067L649.227,841.261L631.625,845.092L632.008,850.91L631.655,852.441L631.749,858.661L629.906,858.951L629.932,860.733L631.472,867.747L623.707,869.354L620.441,870.036L620.231,866.286L622.169,865.341L623.526,863.707L621.859,860.927L622.084,859.359L620.185,859.215L619.253,856.139L618.345,854.896L615.142,853.159L614.626,851.081L623.024,849.335Z"/>
<path region="59" short-name="Chittenden-2" long-name="Chittenden-2 State House District" value="2" d="M342.783,329.185L341.208,324.694L341.225,322.747L344.24,321.402L346.935,318.051L351.758,321.196L352.292,318.331L353.445,317.418L354.817,317.904L355.851,316.418L357.424,315.763L359.286,316.714L361.363,316.608L363.026,318.194L364.08,316.741L365.381,318.222L369.048,317.647L370.299,318.31L371.932,318.655L372.338,319.926L373.971,320.768L373.439,322.675L375.495,324.107L376.032,327.064L373.647,328.112L372.79,329.86L376.701,330.939L371.867,336.857L369.008,336.43L366.058,359.444L363.987,360.26L362.68,359.211L360.37,355.374L360.329,342.688L358.493,341.275L355.819,341.574L349.696,339.959L350.289,335.17L346.899,335.543L344.456,335.376L342.939,333.558L342.496,331.56Z"/>
<path region="60" short-name="Windsor-1" long-name="Windsor-1 State House District" value="2" d="M606.46,602.167L608.858,602.143L626.378,602.066L647.135,602.221L647.244,604.49L646.576,604.997L642.864,610.715L639.392,613.268L637.166,615.468L635.882,618.273L636.648,620.961L636.125,622.107L637.424,625.557L639.019,630.91L638.766,633.309L637.84,636.384L636.507,637.077L636.669,642.766L637.819,644.678L641.777,646.876L643.523,649.249L644.594,654.436L644.404,656.903L642.984,659.485L643.04,660.99L644.966,666.185L644.794,671.433L645.516,675.188L645.523,675.289L642.822,675.377L628.696,676.887L615.764,678.723L606.936,678.931L598.166,646.564L597.486,644.287L598.718,643.564L604.332,608.759L605.295,604.345Z"/>
<path region="61" short-name="Essex-Orleans" long-name="Essex-Orleans State House District" value="1" d="M585.026,44.154L592.56,42.047L602.355,39.078L612.997,36.129L621.764,34.093L661.316,22.324L681.749,16.997L703.804,10.691L717.14,7.251L733.133,2.715L742.976,0L739.842,3.349L739.797,5.473L737.741,6.444L735.225,6.017L732.796,4.905L730.44,7.151L727.88,8.783L725.54,12.403L725.615,15.39L726.56,16.734L730.485,20.663L734.011,22.675L734.931,24.625L735.261,26.991L734.681,28.227L736.379,30.222L736.636,33.55L738.331,36L737.984,36.865L741.742,39.097L744.069,41.823L745.061,42.389L744.527,44.221L741.76,49.716L742.961,50.515L741.342,53.247L740.663,55.729L739.391,56.991L739.775,58.298L738.67,60.24L735.975,62.318L735.304,64.409L736.382,66.057L735.331,68.338L735.207,70.36L737.375,73.278L736.108,75.373L735.861,79.473L705.165,66.733L702.669,65.783L692.439,100.651L680.979,96.009L672.878,114.292L674.253,116.169L669.21,127.367L665.319,137.854L638.861,127.28L627.447,122.943L618.458,119.199L605.957,114.24L580.569,103.412L589.748,80.61L580.002,76.569L588.544,74.105Z"/>
<path region="62" short-name="Orleans-1" long-name="Orleans-1 State House District" value="1" d="M585.026,44.154L588.544,74.105L580.002,76.569L589.748,80.61L580.569,103.412L567.022,97.681L559.846,94.599L558.376,94.18L559.081,92.453L554.968,90.614L553.272,86.171L553.786,84.789L553.614,82.442L557.225,81.71L558.456,79.807L557.819,77.286L558.93,76.928L558.705,74.652L556.035,76.231L555.614,74.362L552.493,75.19L551.574,74.302L551.169,70.998L550.267,70.172L548.655,71.063L544.152,75.025L542.799,76.567L538.172,64.631L532.282,58.397L555.476,51.826L571.087,48.061Z"/>
<path region="63" short-name="Rutland-10" long-name="Rutland-10 State House District" value="1" d="M346.731,616.509L382.229,603.223L388.396,636.224L389.256,641.359L395.438,672.4L399.23,690.768L397.713,689.925L396.977,687.241L397.144,685.796L395.763,684.907L393.327,682.187L389.684,680.201L386.601,680.024L384.689,678.431L382.368,679.305L382.073,676.681L380.6,676.132L381.128,673.861L380.468,669.933L378.16,667.435L377.459,667.287L375.687,662.17L374.191,661.039L373.346,662.843L371.112,662.06L368.438,663.3L364.41,664.215L363.236,665.958L359.955,665.709L356.32,667.538L357.371,668.779L356.288,671.7L357.921,673.997L357.277,677.198L355.649,678.087L356.554,679.669L355.447,680.637L357.004,682.383L356.482,683.655L357.613,685.046L357.503,686.578L356.041,687.272L355.872,689.264L354.334,690.394L351.961,689.695L348.202,687.925L346.903,686.702L344.378,686.288L343.298,683.875L344.545,678.463L343.091,674.997L343.952,671.422L343.559,670.397L339.862,666.75L339.499,663.496L341.139,660.938L341.612,658.954L341.341,656.664L342.087,651.89L341.929,645.688L341.095,644.387L341.528,642.344L343.272,639.429L344.306,634.214L345.958,631.205L347.222,627.783L345.691,620.405Z"/>
<path region="64" short-name="Addison-Rutland" long-name="Addison-Rutland State House District" value="1" d="M317.703,551.055L320.572,550.095L355.474,535.66L357.143,534.612L365.976,549.8L377.491,545.288L382.831,544.218L382.604,548.492L381.539,550.105L382.361,551.546L384.68,551.869L386.658,553.584L387.29,559.491L389.093,561.072L391.215,560.786L391.89,559.674L395.498,568.149L395.912,569.131L410.847,601.235L424.508,629.092L398.434,634.054L388.396,636.224L382.229,603.223L346.731,616.509L348.012,611.705L348.39,608.434L346.789,606.867L345.154,603.496L343.383,602.176L338.748,599.802L337.543,597.138L335.478,594.647L333.15,593.551L332.021,591.852L332.271,587.617L333.614,585.283L334.879,584.141L335.52,581.54L332.422,579.308L331.661,576.793L332.293,570.535L331.122,568.313L328.141,564.678L323.588,560.837L320.883,555.767Z"/>
<path region="65" short-name="Caledonia-Essex" long-name="Caledonia-Essex State House District" value="2" d="M625.285,236.922L649.081,235.853L661.346,235.42L659.995,202.696L663.808,202.684L671.053,205.636L669.14,210.215L688.522,226.359L689.031,225.159L695.735,227.961L704.214,218.658L714.392,232.417L729.575,252.094L729.201,254.677L727.177,254.981L724.942,253.74L722.332,254.459L719.456,257.878L716.115,258.559L713.619,262.031L713.608,263.263L715.031,264.71L714.32,265.968L712.803,266.147L711.477,267.284L711.746,269.867L712.953,270.755L712.41,273L714.476,276.597L713.159,278.738L709.499,280.839L708.51,282.087L673.14,252.952L650.51,280.39L646.779,277.031L645.491,275.002L629.577,244.656Z"/>
<path region="66" short-name="Rutland-4" long-name="Rutland-4 State House District" value="1" d="M454.485,625.463L471.703,620.133L475.687,633.313L473.779,636.441L472.488,639.591L472.265,640.585L469.002,644.612L467.08,646.414L465.931,643.469L467.264,642.565L465.355,637.637L462.051,638.747L461.458,637.272L458.407,632.637L457.705,629.951L455.997,627.134Z"/>
<path region="67" short-name="Lamoille-Washington" long-name="Lamoille-Washington State House District" value="2" d="M435.609,251.635L441.329,252.913L441.563,251.855L447.672,253.18L455.354,252.975L458.376,241.561L461.158,242.147L461.608,240.209L465.447,240.591L465.833,241.576L470.393,245.105L473.436,243.209L486.996,246.279L488.383,241.449L495.704,243.475L498.605,243.69L496.598,252.04L497.293,252.409L530.643,260.39L529.97,263.338L532.491,263.625L563.645,271.472L565.012,271.674L556.724,306.056L556.569,306.496L540.704,302.53L521.698,297.937L521.791,298.671L513.763,332.854L480.878,319.799L480.311,319.618L487.779,286.774L488.073,284.488L480.069,282.324L477.605,282.389L479.282,284.263L479.274,285.657L480.662,286.852L480.945,289.392L478.092,290.438L476.769,291.732L474.434,291.948L472.63,291.221L471.189,292.501L468.168,291.378L469.266,289.396L469.097,284.663L469.608,282.81L468.804,280.503L466.72,278.535L453.668,275.044L455.772,265.742L444.113,265.576L438.182,264.463L437.981,265.204L432.898,263.934L435.623,252.312Z"/>
<path region="68" short-name="Rutland-8" long-name="Rutland-8 State House District" value="1" d="M410.847,601.235L424.815,596.938L425.106,595.034L427.293,595.334L428.446,596.574L430.762,596.965L431.331,594.989L445.782,590.725L447.927,593.379L471.703,620.133L454.485,625.463L451.609,626.353L451.967,628.399L453.712,628.955L454.791,632.478L454.125,633.687L452.628,634.155L453.931,637.52L451.696,638.097L452.532,642.888L450.486,643.377L452.037,645.664L454.021,645.668L454.768,646.931L453.886,648.53L450.35,649.475L448.293,648.185L447.182,648.611L446.49,646.316L447.654,645.997L446.926,643.566L445.698,643.939L444.102,639.452L444.909,639.201L443.524,636.28L441.91,631.529L440.864,631.781L440.201,629.699L426.727,633.723L424.508,629.092Z"/>
<path region="69" short-name="Lamoille-3" long-name="Lamoille-3 State House District" value="1" d="M382.86,240.921L384.541,242.103L388.583,241.039L388.971,239.222L390.724,236.705L396.618,212.573L414.264,216.543L413.002,196.599L414.355,195.06L413.84,186.267L416.703,186.106L416.371,180.715L418.998,180.521L423.828,197.093L435.108,199.974L427.453,235.079L438.825,237.543L435.609,251.635L435.623,252.312L432.898,263.934L431.026,273.539L423.5,273.099L418.453,272.728L407.104,263.672L388.123,247.348L384.166,247.588L383.334,244.143L382.012,242.92Z"/>
<path region="70" short-name="Windsor-Orange-1" long-name="Windsor-Orange-1 State House District" value="1" d="M541.713,553.262L545.285,541.268L553.294,516.363L553.035,516.319L553.818,511.411L561.694,476.094L597.272,482.347L588.143,521.915L587.699,522.534L577.09,558.138L560.286,555.767Z"/>
<path region="71" short-name="Windham-1" long-name="Windham-1 State House District" value="1" d="M624.835,927.319L632.547,925.526L650.793,921.792L660.782,919.637L662.973,918.966L666.495,926.07L673.824,930.046L677.528,933.519L678.182,935.534L676.419,938.418L677.907,940.034L679.283,939.443L681.011,937.676L681.122,935.872L683.222,935.143L685.646,937.375L687.429,937.919L688.914,939.768L690.867,944.116L695.489,948.167L696.805,950.445L680.34,953.94L632.499,964.036L630.352,953.151L628.963,947.374L625.65,932.105Z"/>
<path region="72" short-name="Bennington-1" long-name="Bennington-1 State House District" value="1" d="M456.367,964.79L464.566,962.947L464.597,961.991L478.663,959.254L478.778,960.255L475.935,973.593L476.03,977.465L479.029,976.025L483.731,975.084L484.855,972.534L486.573,972.627L488.032,971.877L495.637,972.234L499.449,972.195L496.17,955.801L491.812,956.446L488.088,938.269L487.634,936.668L484.634,919.529L490.526,917.462L495.091,916.271L522.644,910.477L523.636,910.122L523.655,910.308L547.149,905.571L549.224,912.093L555.869,943.468L559.224,959.685L563.357,978.787L537.147,984.453L503.345,991.791L468.791,999.246L465.565,1000L456.22,979.366L457.112,974.254L455.592,972.052L454.746,966.54L456.693,966.346Z"/>
<path region="73" short-name="Grand Isle-Chittenden" long-name="Grand Isle-Chittenden State House District" value="2" d="M234.336,130.082L259.682,123.363L261.871,122.595L275.02,119.03L273.565,128.108L271.757,134.765L270.807,139.937L269.979,142.422L267.993,145.393L267.907,147.18L269.496,150.158L270.843,151.31L271.662,153.147L274.69,157.476L275.481,157.99L281.044,159.392L283.906,158.902L285.471,160.551L286.52,165.636L286.542,167.955L286.924,172.515L285.936,176.608L286.282,178.234L286.245,182.262L286.66,184.55L288.223,186.602L289.014,189.062L288.032,194.013L284.78,196.417L282.066,200.547L280.64,205.008L279.414,212.009L279.456,215.703L280.693,219.688L284.086,224.318L292.46,233.44L323.433,241.105L323.54,243.677L323.042,250.983L323.515,255.944L324.47,258.996L322.629,257.929L320.493,260.228L319.35,259.798L316.991,263.825L316.301,266.423L316.152,269.667L316.477,271.547L313.398,272.487L311.583,274.043L311.604,275.79L310.499,277.834L306.738,278.019L304.305,277.164L302.595,276.013L300.956,276.102L299.571,277.829L296.287,279.451L295.925,282.61L294.246,286.838L292.517,289.26L288.308,293.44L283.436,296.882L272.471,303.167L271.204,303.678L269.245,302.51L266.56,299.932L265.595,297.478L263.224,295.082L263.88,293.073L263.629,290.786L262.042,288.868L260.789,286.337L258.437,284.855L258.215,279.262L257.476,277.267L259.244,274.754L257.588,273.405L258.334,270.304L257.673,268.891L259.263,264.709L258.288,263.857L257.911,260.36L258.878,259.724L257.485,257.474L258.555,256.115L258.99,253.162L257.432,252.301L255.052,241.414L253.408,235.226L253.566,233.772L255.197,229.278L255.528,221.977L257.771,217.719L257.843,214.978L255.736,209.024L250.612,205.457L249.347,204.136L245.455,202.606L243.515,201.326L241.901,199.447L240.623,199.062L239.449,196.486L238.744,191.755L240.379,189.164L240.76,187.331L240.29,174.979L240.729,171.912L242.371,168.732L243.89,167.007L244.183,165.692L243.716,163.181L241.609,155.837L240.462,149.111L239.737,147.107L237.676,145.738L234.51,142.357L233.408,139.888L233.965,136.917Z"/>
<path region="74" short-name="Franklin-4" long-name="Franklin-4 State House District" value="2" d="M275.02,119.03L280.921,117.428L282.386,119.696L285.761,120.495L288.095,122.927L288.526,126.247L288.318,128.909L285.517,133.55L286.832,136.124L287.298,138.422L288.887,140.763L291.387,142.341L294.384,142.836L296.064,143.667L321.937,149.538L344.471,138.315L361.957,129.828L384.322,130.09L386.514,130.108L385.776,145.966L385.839,155.884L339.993,156.89L338.876,156.878L339.407,166.47L340.12,168.915L348.094,178.076L346.853,182.048L342.868,180.957L315.003,174.666L286.542,167.955L286.52,165.636L285.471,160.551L283.906,158.902L281.044,159.392L275.481,157.99L274.69,157.476L271.662,153.147L270.843,151.31L269.496,150.158L267.907,147.18L267.993,145.393L269.979,142.422L270.807,139.937L271.757,134.765L273.565,128.108Z"/>
<path region="75" short-name="Orange-3" long-name="Orange-3 State House District" value="1" d="M529.012,403.744L544.92,405.868L544.415,409.191L545.201,410.437L544.938,415.255L553.104,416.223L556.014,415.476L559.178,416.927L555.674,443.127L592.922,451.005L596.926,478.167L597.272,482.347L561.694,476.094L544.658,440.938L517.225,437.453L521.9,406.62L528.627,407.171Z"/>
<path region="76" short-name="Washington-1" long-name="Washington-1 State House District" value="2" d="M496.681,367.224L498.931,367.835L500.231,369.125L505.279,370.523L507.901,370.127L508.652,371.864L510.048,372.578L512.957,372.69L512.793,374.734L523.798,375.568L524.769,372.535L526.178,371.857L529.173,372.061L531.375,372.452L532.381,370.88L531.32,381.37L530.838,386.063L529.063,402.404L529.012,403.744L528.627,407.171L521.9,406.62L517.225,437.453L474.632,432.198L470.828,431.686L474.212,422.84L471.885,421.8L475.641,411.462L473.805,410.43L476.021,403.054L473.536,401.982L475.301,396.687L492.824,403.676L495.66,376.432L496.201,372.83Z"/>
<path region="77" short-name="Lamoille-1" long-name="Lamoille-1 State House District" value="1" d="M423.5,273.099L431.026,273.539L432.898,263.934L437.981,265.204L438.182,264.463L444.113,265.576L455.772,265.742L453.668,275.044L466.72,278.535L468.804,280.503L469.608,282.81L469.097,284.663L469.266,289.396L468.168,291.378L471.189,292.501L472.63,291.221L474.434,291.948L476.769,291.732L478.092,290.438L480.945,289.392L480.662,286.852L479.274,285.657L479.282,284.263L477.605,282.389L480.069,282.324L488.073,284.488L487.779,286.774L480.311,319.618L459.786,313.788L445.604,310.087L433.986,309.27L424.044,308.739L428.518,290.931L429.096,288.266L420.72,286.174Z"/>
<path region="78" short-name="Chittenden-22" long-name="Chittenden-22 State House District" value="2" d="M338.401,312.959L340.66,313.038L341.048,311.205L344.099,310.283L345.732,312.394L347.35,312.726L349.8,312.188L352.002,310.338L353.974,310.404L353.571,312.051L353.922,314.433L353.445,317.418L352.292,318.331L351.758,321.196L346.935,318.051L344.24,321.402L341.225,322.747L340.817,321.702L338.429,321.352L338.065,318.278L338.739,317.1L337.926,314.424Z"/>
<path region="79" short-name="Chittenden-23" long-name="Chittenden-23 State House District" value="2" d="M333.681,318.566L338.048,301.724L339.125,302.273L341.352,305.662L342.467,304.965L348.19,305.604L351.188,307.202L352.239,305.673L357.027,304.195L358.663,303.399L359.963,304.191L365.073,304.804L363.024,309.449L363.899,313.935L364.56,315.393L359.666,316.21L359.286,316.714L357.424,315.763L355.851,316.418L354.817,317.904L353.445,317.418L353.922,314.433L353.571,312.051L353.974,310.404L352.002,310.338L349.8,312.188L347.35,312.726L345.732,312.394L344.099,310.283L341.048,311.205L340.66,313.038L338.401,312.959L337.394,313.368L336.213,316.491L337.621,317.483L334.873,318.856Z"/>
<path region="80" short-name="Rutland-11" long-name="Rutland-11 State House District" value="1" d="M437.468,573.158L444.179,567.51L451.284,561.06L471.757,542.893L473.695,549.96L484.496,551.525L485.668,547.193L495.936,548.717L498.597,553.287L500.865,553.766L500.499,556.884L502.216,557.566L497.722,582.205L502.472,583.209L500.365,593.678L536.686,597.776L534.036,615.872L529.958,639.27L525.852,638.792L526.385,643.279L482.353,656.276L475.687,633.313L471.703,620.133L447.927,593.379L445.782,590.725L444.045,587.59L443.895,586.303L442.591,584.362Z"/>
<path region="81" short-name="Windham-6" long-name="Windham-6 State House District" value="1" d="M563.357,978.787L559.224,959.685L555.869,943.468L549.224,912.093L547.149,905.571L560.097,902.925L570.675,900.955L582.903,898.805L590.416,935.149L624.835,927.319L625.65,932.105L628.963,947.374L630.352,953.151L632.499,964.036L597.583,971.348Z"/>
<path region="82" short-name="Bennington-2" long-name="Bennington-2 State House District" value="2" d="M448.297,927.002L484.634,919.529L487.634,936.668L488.088,938.269L484.759,938.585L480.31,940.417L475.531,938.852L476.11,941.853L473.673,942.853L473.828,947.41L472.902,948.543L474.346,950.372L474.894,952.845L476.416,954.754L478.663,959.254L464.597,961.991L464.566,962.947L456.367,964.79L451.478,941.456Z"/>
<path region="83" short-name="Bennington-Rutland" long-name="Bennington-Rutland State House District" value="1" d="M462.26,809.165L462.831,808.442L461.796,800.537L458.826,786.305L455.239,771.544L446.888,735.383L470.395,730.711L474.793,730.04L482.8,728.731L515.717,721.944L522.066,720.671L524.051,727.277L525.997,737.861L523.197,738.793L526.794,757.645L540.466,754.721L544.709,771.444L536.122,770.775L540.709,793.42L499.772,801.331L498.32,801.433L463.588,808.598Z"/>
<path region="84" short-name="Washington-3" long-name="Washington-3 State House District" value="2" d="M531.32,381.37L536.707,381.754L536.755,380.974L539.839,381.138L539.61,379.242L542.573,379.441L542.336,382.861L544.333,383.015L544.881,384.215L546.553,384.342L546.392,388.41L546.951,391.04L545.034,390.875L544.758,392.717L542.209,392.564L542.303,391.618L539.144,391.34L539.168,390.149L536.462,389.828L536.31,388.775L532.584,388.059L532.592,386.26L530.838,386.063Z"/>
<path region="85" short-name="Windsor-Orange-2" long-name="Windsor-Orange-2 State House District" value="2" d="M597.272,482.347L599.263,482.805L629.929,484.605L633.893,484.988L664.893,488.612L665.451,489.519L663.827,490.977L661.69,491.952L661.22,495.928L663.697,499.813L664.971,504.031L664.289,508.614L665.165,510.831L666.545,512.452L667.133,515.512L665.889,517.427L665.53,520.997L663.411,524.716L664.843,529.865L661.453,533.815L660.01,540.039L659.312,541.607L656.589,543.48L652.14,548.389L650.171,549.091L649.783,551.6L647.856,555.034L646.696,559.032L645.163,561.497L644.92,567.21L644.928,567.248L627.591,564.93L609.333,562.406L608.594,564.329L607.062,564.051L605.434,562.154L598.351,560.887L577.09,558.138L587.699,522.534L588.143,521.915Z"/>
<path region="86" short-name="Windsor-Windham" long-name="Windsor-Windham State House District" value="1" d="M576.742,736.212L574.505,724.656L579.241,723.816L594.917,721.107L612.319,717.917L613.384,723.261L616.753,738.531L621.917,760.362L620.212,761.038L621.325,766.939L629.965,802.727L630.305,802.618L631.342,825.705L622.108,827.511L621.569,814.339L608.62,816.8L606.631,804.429L594.971,809.54L592.53,810.477L593.158,814.37L588.212,814.003L569.128,812.229L567.564,808.276L567.151,802.944L568.128,801.029L567.952,798.685L567.034,796.67L567.99,794.038L569.288,792.618L572.543,783.938L571.276,781.499L571.605,778.125L573.114,776.496L571.772,774.007L585.278,775.026Z"/>
<path region="87" short-name="Chittenden-12" long-name="Chittenden-12 State House District" value="1" d="M286.8,319.725L297.747,311.195L297.773,310.965L299.583,312.851L300.95,315.82L299.733,320.297L301.423,321.834L301.385,323.426L308.534,330.65L317.726,339.962L323.851,338.88L327.717,338.242L330.344,338.784L332.96,337.759L333.616,339.539L334.875,342.956L333.142,343.666L331.858,342.942L329.737,343.437L329.896,347.724L325.406,348.146L325.499,348.73L323.622,348.497L323.574,346.977L322.401,345.336L322.337,343.991L321.084,341.244L318.07,341.499L317.703,340.213L312.59,340.877L308.082,341.982L307.052,342.559L306.273,346.114L301.567,348.359L300.367,344.628L298.197,341.551L297.71,337.893L296.2,333.075L294.106,329.874L292.11,324.398Z"/>
<path region="88" short-name="Caledonia-1" long-name="Caledonia-1 State House District" value="1" d="M619.755,334.137L637.486,296.562L646.779,277.031L650.51,280.39L673.14,252.952L708.51,282.087L705.133,285.773L702.665,286.727L700.134,288.811L690.892,286.749L688.867,286.905L686.862,288.189L685.219,290.464L684.563,292.458L683.025,293.597L680.159,293.528L675.365,295.255L670.355,296.162L669.524,296.892L669.513,298.955L665.464,302.923L661.741,305.471L658.747,305.348L657.914,306.363L658.638,308.142L659.719,313.267L658.511,316.255L657.044,318.256L655.261,319.323L654.172,321.35L653.269,325.274L653.036,327.769L653.694,328.854L655.958,327.927L655.806,330.303L656.83,332.701L659.401,336.123L660.747,336.957L661.906,338.936L661.58,344.126L662.585,346.804L662.398,349.331L661.506,350.593L662.329,352.123L662.337,354.425L661.448,356.088L661.722,358.96L665.12,362.321L667.489,366.444L669.581,368.408L671.025,368.077L671.152,369.94L634.177,365.621Z"/>
<path region="89" short-name="Windham-Windsor-Bennington" long-name="Windham-Windsor-Bennington State House District" value="1" d="M505.694,838.245L500.234,810.695L498.32,801.433L499.772,801.331L540.709,793.42L536.122,770.775L544.709,771.444L540.466,754.721L526.794,757.645L523.197,738.793L525.997,737.861L524.051,727.277L532.553,725.396L530.818,723.113L551.99,729.549L576.742,736.212L585.278,775.026L571.772,774.007L573.114,776.496L571.605,778.125L571.276,781.499L572.543,783.938L569.288,792.618L567.99,794.038L567.034,796.67L567.952,798.685L568.128,801.029L567.151,802.944L567.564,808.276L569.128,812.229L540.749,809.27L544.799,829.676L536.352,831.478L522.093,833.847L508.408,836.596L508.643,838.007Z"/>
<path region="90" short-name="Rutland-2" long-name="Rutland-2 State House District" value="2" d="M426.727,633.723L440.201,629.699L440.864,631.781L441.91,631.529L443.524,636.28L444.909,639.201L444.102,639.452L445.698,643.939L446.926,643.566L447.654,645.997L446.49,646.316L447.182,648.611L448.293,648.185L450.35,649.475L453.886,648.53L454.768,646.931L454.021,645.668L452.037,645.664L450.486,643.377L452.532,642.888L451.696,638.097L453.931,637.52L452.628,634.155L454.125,633.687L454.791,632.478L453.712,628.955L451.967,628.399L451.609,626.353L454.485,625.463L455.997,627.134L457.705,629.951L458.407,632.637L461.458,637.272L462.051,638.747L456.965,640.055L459.298,648.109L459.261,649.911L458.606,651.954L461.772,652.926L465.656,655.512L472.611,651.99L477.13,649.717L475.514,644.227L474.88,640.442L474.118,639.066L472.488,639.591L473.779,636.441L475.687,633.313L482.353,656.276L492.748,691.849L493.115,693.306L503.257,690.579L509.029,688.606L513.913,712.2L514.311,715.492L515.717,721.944L482.8,728.731L474.793,730.04L472.46,711.835L474.133,709.889L470.46,692.856L457.701,695.386L454.8,664.741L442.996,667.875L432.127,644.949Z"/>
<path region="91" short-name="Windham-8" long-name="Windham-8 State House District" value="1" d="M649.275,912.063L652.791,911.491L654.808,910.712L657.166,909.089L660.373,912.343L662.973,918.966L660.782,919.637L650.793,921.792L650.165,919.885L651.965,917.436L651.17,913.156Z"/>
<path region="92" short-name="Windsor-2" long-name="Windsor-2 State House District" value="1" d="M569.795,684.163L569.516,682.8L606.936,678.931L615.764,678.723L628.696,676.887L642.822,675.377L645.523,675.289L645.875,680.716L646.247,682.367L647.089,689.975L645.242,693.576L645.218,696.771L646.501,700.81L647.287,701.905L650.358,703.032L653.651,702.293L654.28,703.316L652.387,707.575L651.641,710.863L641.9,712.556L633.937,714.127L612.319,717.917L594.917,721.107L579.241,723.816L576.046,710.465L575.007,705.067Z"/>
<path region="93" short-name="Washington-2" long-name="Washington-2 State House District" value="2" d="M471.541,356.913L473.054,355.82L475.76,355.446L477.264,356.119L478.503,360.657L483.342,362.545L486.463,362.594L486.94,363.776L489.547,364.823L490.913,367.39L492.887,366.688L496.681,367.224L496.201,372.83L495.66,376.432L492.824,403.676L475.301,396.687L473.536,401.982L476.021,403.054L473.805,410.43L475.641,411.462L471.885,421.8L474.212,422.84L470.828,431.686L474.632,432.198L468.483,464.354L459.491,463.072L444.957,461.286L441.404,462.651L439.66,463.325L436.108,454.86L427.451,432.136L426.221,429.443L421.376,431.22L421.688,426.44L422.686,416.885L425.074,392.297L425.943,382.353L422.698,382.153L424.642,364.591L428.344,346.087L435.341,346.874L436.318,346.096L438.092,346.875L440.451,345.12L441.536,345.669L443.291,344.495L444.977,345.989L451.781,346.333L453.176,348.785L455.19,348.182L456.253,348.748L456.596,351.678L459.715,353.313L462.54,352.962L463.924,354.344L465.968,354.258L468.17,355.298L469.042,356.509Z"/>
<path region="94" short-name="Bennington-5" long-name="Bennington-5 State House District" value="2" d="M478.663,959.254L476.416,954.754L474.894,952.845L474.346,950.372L472.902,948.543L473.828,947.41L473.673,942.853L476.11,941.853L475.531,938.852L480.31,940.417L484.759,938.585L488.088,938.269L491.812,956.446L496.17,955.801L499.449,972.195L495.637,972.234L488.032,971.877L486.573,972.627L484.855,972.534L483.731,975.084L479.029,976.025L476.03,977.465L475.935,973.593L478.778,960.255Z"/>
<path region="95" short-name="Windham-7" long-name="Windham-7 State House District" value="1" d="M618.749,899.138L634.328,895.83L634.725,896.789L636.872,897.475L641.326,902.554L643.913,900.203L645.55,901.721L645.461,903.4L647.865,906.095L647.609,908.582L649.508,910.83L649.275,912.063L651.17,913.156L651.965,917.436L650.165,919.885L650.793,921.792L632.547,925.526L624.835,927.319Z"/>
<path region="96" short-name="Chittenden-7" long-name="Chittenden-7 State House District" value="1" d="M323.622,348.497L325.499,348.73L346.586,351.387L354.107,352.247L362.68,359.211L363.987,360.26L345.853,367.792L343.843,368.198L335.705,371.682L333.465,368.778L332.581,366.262L331.491,359.948L329.572,361.907L326.279,359.186L326.253,356.43L325.465,354.797L324.001,354.888L323.558,353.007L324.249,351.408Z"/>
<path region="97" short-name="Franklin-7" long-name="Franklin-7 State House District" value="1" d="M385.839,155.884L385.776,145.966L386.514,130.108L384.322,130.09L383.792,128.304L394.878,125.774L423.249,117.114L424.937,119.512L460.066,108.873L471.17,143.648L463.87,167.235L458.792,164.667L458.155,166.154L452.185,164.06L452.595,162.087L434.779,165.711L431.211,151.526L414.663,156.711L403.912,158.538L387.541,162.899L387.241,155.895Z"/>
<path region="98" short-name="Chittenden-24" long-name="Chittenden-24 State House District" value="1" d="M338.048,301.724L342.58,283.39L359.014,283.092L379.077,282.626L370.299,318.31L369.048,317.647L365.381,318.222L364.08,316.741L363.026,318.194L361.363,316.608L359.286,316.714L359.666,316.21L364.56,315.393L363.899,313.935L363.024,309.449L365.073,304.804L359.963,304.191L358.663,303.399L357.027,304.195L352.239,305.673L351.188,307.202L348.19,305.604L342.467,304.965L341.352,305.662L339.125,302.273Z"/>
<path region="99" short-name="Chittenden-6" long-name="Chittenden-6 State House District" value="1" d="M301.567,348.359L306.273,346.114L307.052,342.559L308.082,341.982L312.59,340.877L317.703,340.213L318.07,341.499L321.084,341.244L322.337,343.991L322.401,345.336L323.574,346.977L323.622,348.497L324.249,351.408L323.558,353.007L324.001,354.888L325.465,354.797L326.253,356.43L326.279,359.186L329.572,361.907L331.491,359.948L332.581,366.262L333.465,368.778L335.705,371.682L324.556,376.488L301.289,386.281L297.918,381.585L297.125,378.687L296.764,375.57L297.296,373.929L299.25,370.724L300.329,368.074L300.247,362.339L301.792,351.449Z"/>
<path region="100" short-name="Franklin-5" long-name="Franklin-5 State House District" value="2" d="M280.921,117.428L303.71,111.226L304.053,111.445L309.442,110.105L310.808,109.326L313.977,108.987L323.081,106.665L335.843,103.874L344.399,101.688L345.9,100.955L368.802,94.658L387.406,90.348L415.246,83.56L438.471,78.64L440.67,78.78L448.709,78.096L461.378,108.486L460.066,108.873L424.937,119.512L423.249,117.114L394.878,125.774L383.792,128.304L384.322,130.09L361.957,129.828L344.471,138.315L321.937,149.538L296.064,143.667L294.384,142.836L291.387,142.341L288.887,140.763L287.298,138.422L286.832,136.124L285.517,133.55L288.318,128.909L288.526,126.247L288.095,122.927L285.761,120.495L282.386,119.696Z"/>
<path region="101" short-name="Caledonia-3" long-name="Caledonia-3 State House District" value="2" d="M576.836,222.158L581.111,204.678L582.117,199.692L588.688,169.519L589.056,167.122L589.123,166.688L606.449,170.192L593.246,147.075L626.257,159.459L628.28,153.936L638.861,127.28L665.319,137.854L671.91,140.453L663.338,161.714L658.956,172.314L638.566,164.294L640.195,200.386L654.629,199.744L659.688,199.422L659.995,202.696L661.346,235.42L649.081,235.853L625.285,236.922L609.673,237.549L594.801,230.677Z"/>
<path region="102" short-name="Windsor-Addison" long-name="Windsor-Addison State House District" value="1" d="M451.062,503.994L480.153,508.154L482.063,508.382L482.932,504.245L484.773,496.997L486.016,497.259L485.366,500.238L487.343,500.473L486.698,503.449L492.186,504.497L491.601,507.319L493.493,507.595L492.925,510.361L511.684,512.596L512.2,511.037L523.051,512.559L525.313,512.752L543.984,514.956L553.035,516.319L553.294,516.363L545.285,541.268L541.713,553.262L537.233,552.65L530.7,592.861L537.477,594.022L536.686,597.776L500.365,593.678L502.472,583.209L497.722,582.205L502.216,557.566L500.499,556.884L500.865,553.766L498.597,553.287L495.936,548.717L485.668,547.193L484.496,551.525L473.695,549.96L471.757,542.893L451.284,561.06L443.774,546.259L442.016,547.841L440.232,540.521L433.761,539.792L436.461,525.472L440.883,502.999Z"/>
<path region="103" short-name="Rutland-Bennington" long-name="Rutland-Bennington State House District" value="1" d="M410.184,742.072L417.143,740.693L417.158,738.792L419.091,736.684L422.533,735.569L423.478,732.995L423.715,729.836L422.48,725.414L420.449,724.707L418.074,719.724L417.487,717.574L424.208,715.474L424.64,715.097L422.054,703.297L424.875,702.71L431.799,688.993L430.511,685.919L434.73,684.957L434.329,682.92L438.742,682.046L447.957,697.371L457.701,695.386L470.46,692.856L474.133,709.889L472.46,711.835L474.793,730.04L470.395,730.711L446.888,735.383L455.239,771.544L458.826,786.305L461.796,800.537L462.831,808.442L462.26,809.165L447.402,812.378L428.681,816.099L425.931,816.751L422.74,800.169L414.687,763.042Z"/>
<path region="104" short-name="Chittenden-18" long-name="Chittenden-18 State House District" value="2" d="M297.773,310.965L299.121,309.797L297.539,308.052L299.658,306.538L300.851,308.187L300.402,311.32L302.672,312.497L303.824,311.552L308.371,313.381L308.593,315.71L305.644,320.182L302.02,320.396L301.385,323.426L301.423,321.834L299.733,320.297L300.95,315.82L299.583,312.851Z"/>
<path region="105" short-name="Washington-Orange" long-name="Washington-Orange State House District" value="2" d="M530.838,386.063L532.592,386.26L532.584,388.059L536.31,388.775L536.462,389.828L539.168,390.149L539.144,391.34L542.303,391.618L542.209,392.564L544.758,392.717L545.034,390.875L546.951,391.04L546.392,388.41L546.553,384.342L544.881,384.215L544.333,383.015L542.336,382.861L542.573,379.441L539.61,379.242L539.839,381.138L536.755,380.974L536.707,381.754L531.32,381.37L532.381,370.88L532.687,370.693L543.925,370.927L559.57,371.274L561.926,371.73L564.259,408.82L560.478,407.915L559.178,416.927L556.014,415.476L553.104,416.223L544.938,415.255L545.201,410.437L544.415,409.191L544.92,405.868L529.012,403.744L529.063,402.404Z"/>
<path region="106" short-name="Orange-2" long-name="Orange-2 State House District" value="1" d="M639.979,417.104L642.185,417.444L674.002,421.461L673.905,423.962L673.095,425.145L670.686,424.634L670.881,427.599L669.056,428.799L668.537,430.484L669.807,432.975L667.086,437.673L669.16,440.272L670.16,445.317L670.29,447.576L671.655,447.67L672.77,446.302L674.87,446.314L676.984,447.038L674.712,448.552L675.671,450.686L674.843,453.563L673.393,455.262L671.748,455.75L671.521,457.483L673.038,460.793L673.768,465.03L672.824,467.967L670.769,470.146L670.385,471.657L666.801,475.802L665.685,479.756L665.437,482.283L663.036,483.133L662.849,485.853L664.688,488.279L664.893,488.612L633.893,484.988L629.929,484.605L630.243,483.165L632.943,462.642L635.17,446.556L635.452,446.494Z"/>
<path region="107" short-name="Rutland-1" long-name="Rutland-1 State House District" value="1" d="M399.23,690.768L395.438,672.4L429.884,665.095L430.664,664.75L429.624,655.214L427.885,646.151L432.127,644.949L442.996,667.875L454.8,664.741L457.701,695.386L447.957,697.371L438.742,682.046L434.329,682.92L434.73,684.957L430.511,685.919L431.799,688.993L424.875,702.71L422.054,703.297L424.64,715.097L424.208,715.474L417.487,717.574L418.074,719.724L420.449,724.707L422.48,725.414L423.715,729.836L423.478,732.995L422.533,735.569L419.091,736.684L417.158,738.792L417.143,740.693L410.184,742.072L405.076,718.005L400.296,696.519L401.321,694.779L400.76,692.662Z"/>
<path region="108" short-name="Franklin-1" long-name="Franklin-1 State House District" value="2" d="M292.46,233.44L295.179,224.157L296.543,220.996L300.697,212.858L303.339,209.872L304.244,208.279L304.551,206.007L307.255,199.823L320.679,203.052L326.978,204.513L349.977,203.926L365.926,222.178L382.86,240.921L382.012,242.92L383.334,244.143L384.166,247.588L351.267,248.291L336.451,244.341L336.43,240.679L335.46,239.656L332.984,239.6L331.363,237.774L328.108,236.126L328.093,234.464L324.84,237.157L323.433,241.105Z"/>
    </g>
    </svg>