<svg viewBox="0 0 864.19 1000" auto-border-stroke-width="1" auto-border-stroke-width-limit=".5" original-source="['https://www2.census.gov/geo/tiger/GENZ2022/shp/cb_2022_us_sldl_500k.zip']" candidates="[{&quot;id&quot;:&quot;0&quot;, &quot;name&quot;:&quot;Democrats&quot;, &quot;margins&quot;: [{ &quot;color&quot;: &quot;#1C408C&quot; }, { &quot;color&quot;: &quot;#577CCC&quot; }, { &quot;color&quot;: &quot;#8AAFFF&quot; }, { &quot;color&quot;: &quot;#949BB3&quot; }]},{&quot;id&quot;:&quot;1&quot;, &quot;name&quot;:&quot;Republicans&quot;, &quot;margins&quot;: [{ &quot;color&quot;: &quot;#BF1D29&quot; }, { &quot;color&quot;: &quot;#FF5865&quot; }, { &quot;color&quot;: &quot;#FF8B98&quot; }, { &quot;color&quot;: &quot;#CF8980&quot; }]}]" version="1.1" xmlns="http://www.w3.org/2000/svg">
  <g regions transform="translate(-67.9)">
    <path region="0" short-name="16" long-name="State Senate District 16" value="1" d="m696.8 945.53 10.83-.13 1.58-.04 6.21-.02 6.17-.06 12.49.03 7.32-.08 5.17.32 13.36-.29.24 6.72.14 5.27 5.8-.16.67.47.92-.01.28-.41.74-.1 4.4-.13-.04-1.06 12.38-.27-.24-11.6 6.7-.18.18 2.08 1.39-.04.5-.43.85-.12.27 1 .7.04.55-.54.94-.01-.06-1.59.11-.52 1.62.1 11.57-.26 6.42-.18 6.4-.13-.01-.85 13.55-.1 1.62 1.28.28.53.06.84.9.26-.13.42.6.3.2-.5.53-.13.3.73.36.14.31 1.03.6-.13 1.52 1.25-.18.5 1.19.05.2.64.54.4 1.04 1.01 1.04 1.23.85-.01.43 1.07-.44 1.5-.64-.36-.54-.8-.42-.22-.87.5.46.87-.4.41-.18 1.47.38.58-1.05.52-.1-.63-.48-.5-1.38.26-.24.5 1.23-.04-.19.44-1.2.95-.5.57-.85.58-.72 2.05-.19.96.56 1.15-1 .82-.3 1.25-.48-1.3-1.56-.68-1.33-.05-.47.12-1.43.98-.57.56-.75 1.33-.07 1.18-.46.3-.23 1-.25 2.53-.73 1.5-.43.36-1.23.38-1.4-.38-1.37 1.06-.78 1.55-.75 1.07-1.26 3.07-.05.37-1.02.94-1.58.4-.59.78-.5 3.3.27 1.81 1.41 3.91.13 1.29-.78-.65-.41.1-.07-1.78-.13-.13-2.45.1-.73-.66-.25.46-.84.32.05.87 1.02.85.08.68 1.77.04-.27 1.12-14.02.5-10.8.42-2.55.2-5.84.22-10.42.34-2.25.16-2.1.02-10.7.46-2.2.02-12.43.54-12.44.46-11.97.45-8.37.25-14.55.42-14.67.41-.02-5.64-.04-23.16v-10.25l-.02-4.54 9.17-.02 3.42.05z"/>
    <path region="1" short-name="20" long-name="State Senate District 20" value="1" d="m522 856.6.06-.17 8.25-.03 2.37-.04 10.61-.03-.22-9.06-.14-3.7 6.22.03 6.38.15 2.98.03 5.6-.04 4.26-.06-.02-8.62.07-4.35 1.5.03-.2.81.8-.12.02-.55 1.07-.1 3.19.07.6.28 1.46-.16.36.36h.77v-.46l7.4.08 8.53.03.03 12.7-6.41-.01-6.3.02.1 12.78-.07 12.74-4.77-.06h-7.97l.03 4.2.16 8.52-12.64.23.15 12.67 3.47-.06 10.6-.08v5.72l-.13 12.6-.02 7.4-12.16-.03.08 6.41.02 6.36 5.92.03 6.3-.04.17 12.8h-6.8l-11.82-.04-6.1-.07-7.36-.04-5.16-.06-12.42-.1.01 12.63h-1.98l-5.58-.1-5.04-.05v1.29l-.77.47-.32.47-.84.27-.23-1.37-.53-.2-.35-1-.56.04-.67.4-.2-.38-5.3-.02-9.9.05-4.42-.04 1.04-2.97 3.95-7.84 1.64-3.55 1.2-3 .25-1.25.29-.65 2.04-2.36 3.53-4.74 1.04-1.31 2.14-2.97 2.05-3.05 1.47-2.36 1.68-3.03 2.99-6.39 2.1-5.27 1.26-3.52.44-2.14.93-3.17-.05-1.06.87-1.68 1.62-4.21.5-1.68 1.15-5.35.02-1.18.62-6.13.31-1.6.36-2.55.54-1.56.41-2.31-.25-2.97-.12-3.33.26-1.06.95-2.13.43-1.75z"/>
    <path region="2" short-name="26" long-name="State Senate District 26" value="1" d="m729.41 738.17 12.99-.08 8.42.1.02 1.21-.43.9.5.82.94.39v.8l1.88 1.14.57.63.9-.08.55.74-.26 1.77.65.83-.46 1.33.66.8.93.44 1.22 1 .74.34 2.13.17 1.22 1.01.74.19 1.04-.29 1.73.04.6-.15.02.65.35.4h.62l-.01-.77-.35-.36-1.7.13v-.99h2.79l-.4.54.49.42.53-.62-.47-.34 3.37.06 1.11-.04 7.44.07-.02-6.42.04-6.42 12.83.01-.08-16.33 1.55.62.71-.68 1.16-.2.48-.65 1.76-1.49 1.37-1.74 1.03-1.08 2.65-3.45.52-.43 1.33-2.27.86-1.07.5-.29 1.01-1.87.82.2.02-.74.51-.58-.2-.66 1.15-1.49.56.16.3-.58.84-.9 1.23 1.33-.58.63-.2.98 2.47.01.72-.76 1.5-2.48.79-.76.2-.66.09 9.08h-2.14l.04 4.28 2.16-.01.15 10.77.1 10.72.1 12.97 12.8-.28 2.56-.1 5.95-.14 4.28-.13.3 12.98 11.08-.34.14 6.44 12.8-.19.09 5.42.11 4.95.26 9.01.25 5.19.54 12.71.26 7.47-.14.01-2.08.2-11.47.76-12.1.47-8.5.25-7.9.18-8.6.17.02.81-9.54.2-3.09.05-.22-6.4-1.02-.03.05 1.03-.65.3-.43-.21-1.02.04-.11-.55-.57-.5-.99.02-.01-.67-1.06.01-.01-.61-.54-.16-.01-.73h.52v-1.1l1.59-.01-.07-3.13-2.13.01-.02-.54-1.59.03.09-.48 1.48-.5.42-.37.4 1.31.75-.01-.14-1.6-.38-.54-.51.61-2.13.69-.02-1.89.51-1-5.17.11-.03-5.28.76-.12-.02-2.15-.75.03-.01-1.15-7.46.05-11.29.14-6.57.04-13.1.16-11.14.4v-4.3l-1.62.08-.09-8.57v-13.74l-.1-6.4V751l-8.55.46-4.4.28z"/>
    <path region="3" short-name="32" long-name="State Senate District 32" value="1" d="m536.84 543.12 4.95-.07 9.9.04 13.16.58-.18 8.74-.1 6.62v8.9l.08 2.2-.09 13.23-13.08-.04.02 4.44-.1 6.6.03 2.12-6.94-.19-6.1-.22v6.6l-.18 6.51v10.42l-.07 2.71-.02 9.75-.07 3.4 2.14.1.12 2.81.18 6.4.13 6.43v4.54l-.06 6.5.15 13.06v4.36l.1 8.65-.14 8.71-.03 8.17.01 11.32-.05 10.83.03 12.91.04 12.9.02 12.94h1.19v12.96l.1 11.95v1.05l-4.3.02-8.57.1-6.38-.05-7.2-.09-.95-2.61-1.82-4.44-3.02-6.53-.75-1.43-.51-.57-.54-1.18-.5-1.64-1.03-1.98-1.2-2.7-3.04-6.23-1.37-3.89-1.45-3.68-.56-1.15-.2-1.46-.68-1.77-1.47-5.25-1.28-5.52-.49-2.3-.74-2.4-.78-2.17-.83-1.97-.98-2.02-2.61-5.16-1-2.5-.98-3.58-.26-2.33.02-1.7.25-2.13 1-2.85 2.04-3.1 3.07-3.95 2.2-3.22.78-1.49.98-2.23.5-1.87.34-.79.41-1.86.27-2.12.1-1.74-.11-1.97-.3-2.23-.53-1.66-.71-3.44-.27-4.25-.66-3.31-.68-1.24-.07-1.9-.23-1.48-1.18-2.6-1-1.94-1.99-3.1-.76-1.64-.64-2.27v-1.54l.64-1.46.9-1.16 1.7-1.42 4.08-3.15 1.84-2.08 1.75-2.8 1.4-2.77.8-1.73.37-1.29.58-1.16 1.81-2.55 1.1-2.36.64-1.84.84-3.04 1.15-1.13.64-.9.51-1.16.7-2.03 1.7-3.62 1.76-2.88.93-1.27.72-1.45.26-.87.1-1.12.43-1.55.28-2.27.74-2.6.42-3.01-.03-2.09-.38-2.55.03-2.1.29-2.65.56-.9.54-1.93.4-2.23.12-1.17 1.09-3.77.37-2.9-.13-1.58-.42-2.42-.69-2.2-.57-1.43-.75-1.3-.4-1.45-.62-1.74-.6-2.36.25-3.5.2-.79.7-1.08 1.72-1.06 2.36-.87 3.24-1.05 1.65-.88 1.14-1.16 2.16.56 1.47.06 1.62-.47 1.13-.87.66-.78 1.26-2.48.42-1.77z"/>
    <path region="4" short-name="12" long-name="State Senate District 12" value="1" d="m874 892.36 1.17-2.04 1.32-.06.72-2.19.53-.8-.07-2.14.05-1.39-.14-2.17 1.63-.05-.1-4.31h-.54l1.01-2.18.86-2.17-.73-.26.09-2.3-.32-.45.25-3.53.41-.54.75-.03-.07-1 .17-.65 1.16-.15h2.16l-.18-6.47-.02-2.14-.15-4.3 6.7-.18 7.27-.22 5.3-.27 7.58-.3.32 8.7 6.48-.25.49.49 3.52 1.55.06 2.35-.95 3.43-.72 1.2-2.46 2.03-.66 1.06-2.73 2.83-.47 1.66-.69.45-1.66.4-.37-.12-.86-.83-.78-.36-1.01.05-1.01.36-2.08 1.92-.56 1.1-1.25 1.69-.26-1.2.21-.75.93-.36.71-1.21 1.42-1.04.36-.88-.53-.8-.92-.56-1.58 1.04-.8.88-.46-1.55.72-.62-.01-.64.64-.68.47.35.31-.62.67-.06.38-1.36-.28-.75-.95.4-.82-.61-1.1 1.19-1.5.48-1.07-.72-.2-1.03 1.31-1.28 1.48.04 1.18-1.44-.58-.36-.22-.64-.67-.6 1.56.06 1.07.37.09-1.17.3-.5.65-1.73.32-.47 1.14.92.36.63.87-.31.49-.78.36-1.25-.08-1.39-.76-1.17-.48-.32-1.37.05-.57.44-.7-.94-1.57-1.24-1.21-.44-1.67.07-.88.88-1.86.12-1 1.05.01.4-1.24.01-.68.45-.73.87-.02 1.07-2.22.63-1.25-.42-.53.16-.9.77-.85 1.17-.75 2.14-.02 1.6.9.68 2.13.87-.06.7.68 1.13-.22 1.12.78 2.05-.31 1.03-.5-.7-.82-.39-1.44-.04-.67.24-.51-.15-1.43.42-1.17.94-.46.84-.06.87-1.02 1.15-1.23 1.91-.4.78-.85 3.3-.11 3.12-.11.46.79.67.16 1.73.77.79-.65 1.92.07.91-.53.94-.77 3.03-.3 1.5-.58 1.26-1.06 1.08-1.22.57-.91 1.54-.11.77-.45.55-1.1-2.42-.86-1.73 1.45-.52 1.2-.63.39-.7.84-2.41.05-.43-4.41-2.45z"/>
    <path region="5" short-name="37" long-name="State Senate District 37" value="1" d="m790.18 348.05.57-.68.43.84zm-4.69-6.92.68-.2.38.52-.53.4zm-.28 6.14.53-.46.63-1.46.92-.36.41.22.47 1.3 1.26.43-.13 1.1-.4.1-.65.84-.15.89-1.38-.56-.19-.85-.46-.9zm-5.79-7.82 1.63-1.08.57.5 1.49-.3.1.85.99.62.59.94-.49.2-.65-.54-.68-.2-.23.57-.67-.13.11-1.08-1.11-.1-.13.84-.53.06-.19-.59zm-2.48 5.41.05-.72.95.6-.35.67zm-.72 1.43.51-.17.58.56-.85.27zm-1.27-3.16.46-.48 1.24 1.31-.8.31-.48-.1zm-1.5 15.96.55-.44-.25-.84.22-.84.54-.67.62-2.11.74-.12.64-1.23.38-.37.65-1.32 1 .3.88.72.27.58-.98.92.64.76.46 1.23-.1.85.83-.17 1.2 1.44.56-.13.55-.61.2-1.11.53-.46.86.04.74-1.55-.69-.7 1.12-.25.54-.59-.1-1 1.15-.15.73.43 1.16-.16.61-.5.5-1.2 1.73-.83.29.32 2.19.4.42-.77-.93-.87.33-1.15.43.43.81-.15.79-.49-.02-.88-.61-.43.27-.65-.26-.85-.9-.25-1.53-.12-2.12-.92-1.36-.87.96-1.08.37-1.12 1.62-.03.5-.41 4.21.56 1.28-.52 1.55-.06 1.02.27 1.1.98 1.43.56 1.02.59.64-.4.58.24.57.95.37 1.33v.78l.61.4.18.85.91.22.55.81.16.91.34.24.41 1.66.27 2.48-.11.43.9.75-.1.93.29.2 1.34-.36 1.4 2.1.62.07 1.33-.74.83.52.73 1.18.07.65-.92 1.94-1.03.6-.91 1.26.16 1.61-.62.5-.09.8-.81.49.04 1.7-1.01 1-.75.45-.97-.79-.25-.8-.57.56.1.68-.63.37-1.32-.7-.6-.07-.5.36-.98.04-.1.67-.78-.37-1.47-1.02-.59-.22v-.52l.46-1.45-1.25-.18-.08 1-1.67.5V365l1.23-1.1-.25-.89-.79-1.05-.6.01.44 1.75-1.02.75-.14-.98-.78.24-.35.46-.5-.43-.9.58-.94.1-1.41.88-.97-.96h-.48l-.5 1.14-.68-.27-.8.3-.48-1.62-.59.01-1.28 1.1-1.05-.67-.59-1.1-.06-.92-1.29.12-.29.6-.54.22-.2 1.32-.83 1.11-.72-.17-.06-.57-.83.02-.16-.59-1.46-1.35-.2-.64-.57.27-.24.96.17.58-.61.62-.9-.17.78-1.48-.61-.63-.84.04-.09-1.13-.98.08-.6-.57-1.18.17-1.42-1.1zm-.25-14.59.64-.05.27.74-.4.26zm-13.65-3.46.9-.6.87.08.85 1.67.76 1.14.42.22.01.99-2.1-1.09-1.81-1.75zM697.91 361l.57-1.03 1 .26.67.72-.05 1.03-.6.68-.85-.44-.55-.54zm-.82 23.32.13-.55 1.04-.54.61.06 2.52 1.3 1.34.5.6-.17.82.13 1.7-.47.7.12.91.7 2.14 1.1 1.45.44 1.66.69 1.28.73 1.04-.54.42-.75-.13-1.65-.65-.87h.76l.5 1.27.39.45.6 1.9.75.79.87-.16 1.96 1.16 1.4.41.49.47-.95 1.27-.17.64-.47.37.16 1.08-.42.69-.57-.04-1.39.83-.47 1.1.21.65-1.3.9-.67-.2-.84.54-.92-.56-.58-.7-.74-.03-1.2.3-1.52-.75-.96-.2-.75.4-1.42-.65-.67-.46-.69-1.22-.16-1.38-1.02-.83-.77-.36-.1-.67-1.4-1.8-.04-.5-.85-.8-.28-.62-1.33-1-2.11-.93-.72-.76zm-2.27-3.37 1.16.1 1.22 1.22-.34.65-1.62-.59zm-3.28-21.46.2-.85.43-.4.66.23 2.26 1.86-1.15 1.41-1.31.47-.93-.47.43-1.07zm-1.06 17.09.25-1.15.39-.7-.14-1.38.54-.3 1.37.51.72.73 2.2 3.95-.5.54-.94-.2-.47.67-1.14-.76-1-.34-1.22-1.11zm-24.71-.4.22-.3.98.44.1.45.68.2-.3.96-.45-.14-1.2-.97zm-17.13 15.64 2.1.02-1.56.5zm-3.83-.24 1.06-.1.51.73-1.42-.08zM708 286.85l1.05.93.83-.27 1-1.04.76-2.03.03-1.4-.87-.72 1.96-3.39 2.69-1.89 2.76.3 2.24-1.55 3.51.22 1.74 1.2 3.49 1.13h1.86l1.12-.25 1.18-1 3.06-5.2 3.47-.98 1.79 2.08 1.23.1 1.4-.32 1.47-.61 1.13.33.6 1.44.6.52.72 2.12-3.78 13.41.79 7.25 2.13 5.5 1.4 2.36-1.45 1.09.44 7.3 1.92 1.84-1.12 2.38-1 .35-.22.57-.75-.6-.69.47.05.46-.54.55-.96-.17-.24 2.18-.9-.15.52-.6.02-1-.47-.27-.72-1.1-1.42-1.43-.84.14.27.61-.1.8-.57.2-.15-1.4-2.21-.53-.45.34.26.72-.24 1.36h-1.14l-.27.57-1.1 1.2-.62-.49-1.7.82-.6.6.03.61-.68.35.17.54-.54.5 1.14 1.75 1.05.52 1.03-.7-.16 1.71-.73.71 1.75 1.07.56.05.97.88 2.63-.48.61-.8 1.36-.69-.37-.64.3-.9 1.02.61.17 1.01.3.26 1.1-.52.33-.78.7.43.27 1 .6.46.78-.05.28-.79.52-.58.85.74.18.82-.11.85.59.82.9.45.04.7.47.47.7.2.9-.49 1.03.89 1.2-.35 3.31 1.8.34.46-.41.54-.08.78-.83-.38-1.42.9-.19.97-.9.36-.77 1.14-.18 1.72.85 1.15.73.43 1.12 1.25.86 1.38.6-.02-.06.81.65 1.14.75.85.56.06.54.6.64-.27.45.71.67.45.48.95.82.72-.06.44.45.8 1.22.04.4-.5-.12-.86.54-.3 1.14.19.47-.46.76.2.15 1.53.7.48.92.26 1.28.64.87 1.95.55 1.94-1.18.99.14.97-.57 2.45-.63.42-.55-.42.84-.42-.95-1.02-.74.24-.22-.4-1.32.44h-.94l-.85-.26-1.01.3-1-.53-1.3.56-.63.56-.43 1.55-.76-.31-1.08-.86-1.06-.4-.78.02-1.99-.77-.77-.16-.87.13-1.32-.5-1.49.31-.08-.85-.7-.1-.8-.49-.88-.97-1.65.38.01.78-1.08-.62-.49.27-.3.74-1.27-.14-.94-.64-.42.15-.69-.75-.36.53-1 .28-.68-.38.08 1.03-1.47-1.28-.44-.68-.62.04-.03 1.28-.92-.52-.23.56-1.25-.47-.23-.38-1.26-.07-.98-1.26-.68.4 1.16 2.68.44.59-.13 1.2-.6.63-1.21-.62-.65.65-1.26.2-1.6-1.45-.17.5-.76-.07-.18.64-.82-.12-.66.3-.6-.37-.74.27-.8-.47-.35.23 1.13 1.46.06.4-1.06.87-1.48-.11-1.24-.5-.53-.91-.63.05-.33.49.64 1.32-1.33-.91-1.8-1.6-.34-.63.56-1.27-.24-1.3.52-.75-.62-.92-1.2-1.05.59-.08 1.3 1.03.3.56.97-.06.51-.67-.55-.64-1.06-.48-1.34-1.24-1.67-.75-.73-.02-.35.74-1.36-.59-.46.08-.44.76.41 1.18.03 1.02.63.7-.55.83.12 1.2-.96-.42-.5-.77-.52-.16-.27-1.66.14-.64-.62-.46-.76.1-1.11-.51-.84.82-.11.57.14 1.22-.36.63.27.9-.94.45-1.03-.16-.27-1.47.3-.63.18-1.3-.33-2.24-.18-.49-.74-.38.26-.47-.52-1.32-1.04-.57-1.07-.92-1.93.3-.52.61-2.1-.36-.63.26-.42-1.32-.62-.4-1.21-.24-1.6-1.53-.97-.46-1.1.33-.98.7-1.24 1.73-.34 1.08-.22 1.7.43 1.1.5.7-.35 2.02-.74 1.06 1.04 1.26-.36.97-.9.03-1.27-.32-.45.25.2.69-1.4-.03-.77.94-.93 2.4-.14.6.46.59.29 1 1.18.43.54.61.4 1.28-.73-.07-.52-.38-.86.38-.38.67.23 2.42.88.8.32 1.73.32.94-1 .18-.03.6.94.45.71.8.67.21.74 1.17-.5.61-1.6.11-.3.2-1.92-.18-.77.4-.4.9-.56-.5-1.89-1-.15-.24-1.76-1.2-.44-.47-.18-.75-.53-.6-1.92.34-1.1-.6-.76-1.46.1-1.17-.35-.92.15-.4-1.46-.4-.62-.32-.65-.8h-.42l-1.03-.97-.24-.74-.85-.94-.78-.12-.37.34-1.01-.01-.58-.43-1.89-3.6-1.2-1.9-3.38-3.86-3.25-3.1-1.12-.73-2.24-.71-1.27-.8-.9-.36-2.2-.33-1.25-.57-.77.13-.67-.3-1.38-1.25v-2.56l.06-10.73-.01-5.48-.11-18.17 4.31.02 7.5.08 1.6-.04 27.09.08 20.2-.04.02 4.56 2.39-.04 6.09.06 1.65-.04 7.93.11-.04-.88v-8.22l-11.25-.05-.03-2.3-2.28.05v-2.3h-2.19l-.06-4.53 4.52.01.05-4.62zm-97.76 103 .68-.42.65-.99 1.08-.92.7-1.05-1.06-.59.62-.28.19-.56-1.04-.92.99-.62.61.03.54.59.8 1.72.05 1.12-.36.55-.71.41.27 1.7-.7.12-.97 1.25-.43.1-1.59-.83zm-14.58-3.62 1.27-.4.05-.43-.87-.74-.37-1.27.5-.12-.19-1.28 1.02.06 2.62 1.26 2.28 1.99-.16.48.54.85 1.03.06.5.49-.05.5-1.19.33.07 1.06.78.43-.89.46-.22-.58-1.23.08-.63-.18-.75 1.02-.42.12-1.09-.73.3-.81.44-.1.6-.75-.77-.7-.25-.74-.75.36-1.06-.3-1.08-.06zm-5.76 143.86.21-.94.71-.35.43 1.17-1.03.45zm-1.22-149.63.8-.48.36.2-.34.87zm-2.49 4.17.6-.54.83.38-.74.69zm-.9 32.34.35-.22.18-1-.12-.65.24-1.67.78-.89.48-.2.47-1.31-.07-1.45-.35-.95-.06-1.3.37-.53.15-2.25.37-1.02.58-.36.52-1.11.88-.51 1.07-1.54-.07-2.51.51-.16.6-1.05-.06-1.17-.48-1.14-.09-1.27.17-.25 1.01.11.81.35.63.9 2 .15 2-.74.58.13.4 1.26-.66.54-.55.06-.03-.95-.65-.14-.59.72-.03 1.16.78.11.58.91 1.02.68-.34.85.61.87.25 2.58-.95 1.16-.36 1.52.25 1.65.36.95 1.1 1.88.02 1.04.3 1.24-.1 1.14.13 1.35-.5 2.12-.35.3-1.25.47-.3.93-.95.55-.95.2-.8 1.24.02.83-.76.49-2.21.43-1.64-.36-.97-.81-1.2.06-.58-.46-.75.28-1.15-.35-.7-1.88zm-7.6-26.7.87-.1.45.76-.98-.12zm-.49 5.55.32-.05.97-1.3.8-.04 1.91.6 1.11.51-.12 1.15.37.83.04.77-.43 1.03-.96 1.16-.9.82-.1.76-.81.32-1.85-.24.43-1.79-.3-.52.77-.24.23-.88-.65-.9-.18-1.34zm-9.58 38.69.75-.58.78.22.52.57.4 1.64-.34 2.05-.8-.76-.05-.55-.56-.93-1.07-.76zm-5.88-31.94.54-2.37.42.15.2 1.05-.16.93zm-4.4 38.56 2.73.83.8.38 2.17 2.53.59 2.25-.14 1.94-.27 1.39-.38.71-.5-.46-.4-1.3-2.49-4.02-1.07-1.26zm-19.4 46.84.55-1.94.96-.94.65-.18 4.16.59 1.78.71.52 1.1.84.85.12.72-.12 1.13.23.56-.5.95-.32 2.07-.2 2.42.15.96.61 1.19 1.46 1.44.3.47-1.73-.33-1.17.67-.69.14-.59.5-.86-.47-1-1.82-.98-1.18-.74-.67-.91-1.41-1.22-.75-.67-.84-.19-1.15.25-1-.31-1.27-.13-1.59zm200.8-74.8-5.13.04.42 26.39.1 8.93-.03 4.37-.2 13.24h.3v12.78l-16.73-.01-15.36-.2-5.1-.03-5.5-.13-9.96-.13-.1 8.87.04 4.46-5.05-.17-6.76-.14-1.43.03.02 13.3.84.02-.03.45v8.02l.05 4.44.14 4.44-.02 2.22.1 6.6-13.13-.14h-8.9l-6.68.04-6.75-.07-12.52-.07-2.3.92-1.58.43.49.72.34 1.98-.13.76.5.68-.17.62-.54.03-1.05 1.05-.04 16.61-.03 2.73.06 13.17-.12 13.04h-13.23l-10.83.03-10.72-.05-10.9-.09h-6.55l.09-13.22-.08-2.2v-8.9l.1-6.62.18-8.74-13.17-.58-9.89-.04-4.95.07-.43-2.47.73-1.57.57-2.31v-2.3l-.5-4.64-.14-2.95.16-1.69.46-1.5.85-.8 1.62-.57.9.52.46.6 1.05.7 1.31.5.83.11.99-.19 1.33-.93.8-1.32.6-2.24.6-.93.96-.79 1.15-2.07.38-1.56.75-.65 1.7.08 1.97.96.66.64 1.25 2.21 1.1.65 1.67.14 1.96-.32 1.91-.77 1.2-.7 1.15-1.82 1.13-1.37.63-1.1.23-.78.22-2.67-.41-1.38 1.84-1.98.28-.57.73-2.24.7-1.45.68-.78 3.09-1.54 1.49-1.37.64-1.35 1.23-1.41.59-1.97-.01-1.5.85-1.38.87-1.76.4-1.52 1.68-2.54.87-1.07.3-.8 1.32-1.9.62.9.51.4h1.5l.77-.28 1.1-1.03 1.2-.84.3-1.22.27-.1.9-1.47 1.11-.02.3.54.07 1 .57.46.58 1.3-.51 1.86-.6.68-.62.17-1.02.66-.28.74-.75.55.24.62.19 1.4-.45.36.4 1.36-.7-.46.2-1.33-.3-.86-.5-.51-1.77.18-1.42.72-.23 1.34-.9 1.07-.44.91.55 2.15.4.85.63.55.46.78-.33.53v.67l1.13 1.91.85 1.92.77-.15.74 1.3-.16 1.26.16.47-.18.87-.66-.23-.52-1.26-.04-.6-.81-.07-.42.54.04.75-.73.38-.09 1.3-.27 1.01.06 1.25-.98 1.21-.65.48-.93 1.02-.41-.01-.85.9-.07.73-.56.67-.08.67-.85 1.53.1.46.77.55 1.29.19.25-.58.69-.57 1.29-1.67.3-.86.7.16.06 1.3-.42 1.56.16 1.35-.27.55.18 1.2-.27 1.88.37 2.12-2.06.12-.46.24-.73 2.12.1.3-.76 1.77.07.2-.92 1.48-.38 1.46.13 1-.1 1-.4 1.8.16 2.08-.06.58 1.06 3.17.9 1.58-.02 1.21-.31.66-.48 1.91.2.5 1.17.77 1.64.35 1.48-.15.6-.44-.07-.92.43-1.1.54-2.36.34-.63.33-2.43 1.15-1.17 1.09-2.8.48-2.01.54-.95 1.17-.83.56-.69.17-1.31.25-.43-.18-.78.63-.73-.36-.72-.71-.36h-1.26l-.88 1.9-.55.21-.5-.92.35-.8 1.07-1.16.58-1 .66-.54.14-.8.52-.57.15-1 .33-.5v-1.73l.51-.58.45-1.47-.2-.97.22-1.11.89-.55 1.26-.53.59-1.08.42-.37 1.7-.18.49 1.68.02.72.51 1.65-.12.97-1.42-.53-.5.1-.32.73.3.66-.17 1.36-.32.88-.23 1.57.25 1.42-.37 1.32.4 1.2-.47 1.71-.03.97-.7 1.8.25.46-.35 1.09.1.92-.78.55-.17.7-1.12.36-.34.55-1.13.46-.79.72-1.72 2.43-.47 1.59.23.56-.36 1.82.2.71-.58 1.64-.57.6-.24 1.08-.44.83.56.74 1.84 1 1.73.3 1.2-.11 1.27-1.89.94-.89.3-1.1-.27-1.62-.3-.56.2-1.22.86-1.37.87-.4 2.14-1.46.93-1.3-.05-.77 1.13-2.36.16-1.26.9-.9.85-1.27 1.01-2.05.2-.8.03-1.2 1.13-.84.78-1.56.22-1.33.88-1.8.2-1.31.5-1.28-.17-.82.35-1.4.3-.45.31-1.86-.27-1.7.93-2.2-.01-.63-.61-1.68.03-2.23.22-1.07-.1-.88.37-1.52 1.1-1.93.07-.48-.45-.72.33-1 .39-4.42-.98-2.24-.47-2.4-.44-.55.23-.93.01-2.79-.18-1.69-.4-1.15-.43-.48.19-.89-.05-1.25-.25-.74.25-3.22-.2-.6.33-.5.78-2.72.38-.72.35-1.52.58-.86.64-.1.66-.81 1.33-.66.54-.58.34-1.05.68-.84.87-.04.7-.47.98-1.91.54-.5.76 1.17 1.94-.2 1.17-.62.86-.95.49-1.37.08-.78.67-.14.63.27 1.57-1.17 2.1-2.37 1.18.26 1.11-.1 1.04-.37 1.13-.72.57.13.4-.42.52.16 1.15-.72 1.03.26.69.47 1.37.31 1.53.03 4.26.28 1.36.49.57-.09 1.44-.9 1.24-.48 1.34.1.73.35.7-.1.65-.47 1.3-.59.94-.02.83-.65 1.7-1.05.78-.02.58-.61.94-.33.3-.94v-1.62l-.34-1.2-.63-.67-2.27-.4-1.38-.47-1.75.04-.76-.37-1.27.25-.1.97-.89-.8h-.4l-1-.7-2.59-.51-1.12-1.12-1.63-1.4-2-3-1.38-1.67-.48-2.8-.41-1.27-.74-1.61-.32-1.88-.4-1.35-.23-2.13.05-1.32-.27-1.11.3-1.64.54-.96 1.99-2.2.22-.9 1.29-1.72.41-1.02.08-.86 1.45-1.58.77-.05 2.32-1.27 1.9-.54 1.53-1.5.52-1.3.36-1.6.55-.46.77.25.54-.28.8-.9.73-1.4.78-.58.36-.86.69-.25.44-1.98-.17-1.03-.94-1.36-1.1-1.2h-.95l-.76-1.18-.77.1-1.69-.51-.33.18-.82-.31.21-.85 1.17.5 5.86-.03.53-.2 1.5.48 1.51 1.05.52.56.9-.12.6-.39.6-.84.8-.17 2.15 1.05 2.33.72.54-.29.56-.82.5-.09 1.57 1.18 1.28-.47.81-.64.75-1.25.29-.92-.2-.79-.65-.01-.1-.75-.5-.4.08-.52 1.4-.89.63-.23 2.3 1.02.85-.14 1.2-.71.68.2.34.48-.28 1.43.47 1.26.57.04 1.85.87 1.88.72.12 1 1.1.6.9.29 1.35.14 1.82 1.57.76.3 2.13 1.38 3.22 1.74 1.97.23.23 1.04.41.83 1.35.95.19.43 1.53.56.71.9 1.4.82 1.48 1.56.78.2.39.78 1.04-.06 1.09.82 1.81-.45.32.65.77.87.88-.2.92-1.04-.1-.42-.86-.94-.82-.24.43-.85 1.64-.05 1.4.9 2.61 1.22.8-.37 1.65-.17 2.03-.81.55-.03 2.76 1.12.97.51.8.2 1.8 1.22 3.27 1.04 1.22.08 1.45.4zM528.1 507.1l.11-.56.77-1.44.63-1.95.38-.42 2.18-.83.52.42 1.1.41 1.38.24.53.3.8 1.08-1.07.04-1.01.3-.52 1.13.07.72.39.72.58.5-.4.57-.57.12-.6.52-.96.47-1-.08-1.07.4-2.1-.88-.16-.33z"/>
    <path region="6" short-name="38" long-name="State Senate District 38" value="1" d="m473.57 420.52.61-1.32.5.58.45-.08.8 1.65.54.26.75-.22.5 1.44.01.64-.6 1.02.02.52-.77.72-.7.28-.85-.2-.21-1.35-.5-.52-.06-.8zm-1.03 7.56.97-.53.14 1.62-.77.12zm-3.4-11.75.38-1.21.62-.55 1.63.54.85.83-.85 1.27-.54.13-.35.52-.5.02-1.23-1.15zm-.8-146.21 1.22-1.49 2.08-.97.27.59 1.01.06 1.14-.31.3-.31.79 1.07.07.48.76.68.65 1.35.64.47-.3 1.04-.03 1.67-.54 1.98-.58.53-.76 2.21 1.19 1.4.82.13.93-1.6.78-.97.3.1.28 2.8-.29 1.09-1.45 1.91-.7.08-.6.4-.6-.15-.77-1.28.72-.28.57-1.1-2.22.05-.37.13-.5 1.62-.77 1.45-.56-.1-1.16-.78-.1-1.17.24-2.23v-1.37l.26-1.08-.1-.95-1.26-.61-.56-1.2v-.79l-.34-1.5.07-.5-.57-2.03zm-4.22 4.64.5-.03.67.73.04 1.13-.78-.2-.42-1.04zM460.3 432.3l.22-1.15.83-.22.98.79.78.29-.12 1.81.04 2.02-.8.05-1-1.34-.52-.22-.5-1.52zm-12.57-153.17.5-.19.52.44-.46.62zm-56.16-18.07.44-.36.65.4-.7.82zm-24.89-128.97 1.2-.11.18-.36.9-.31.64-.62.73.52.74-.09 1.38.29.22.84-.55.9v.5h-1.86l-.95-1.01-.7-.28-.75.1zm-35.36 73.58 1 .08-.32.54zm-32.16-18.73.77-.55.1.76zm-9.72-184.9.55-.77.92-.72 1.26-.54.49.27-2.32 1.5zm-96.8 57.56.82-1 1.02-.31 1.11.05 1.22-.41.95-1.31-.18-.62-.8-.14-.48.6-1.53.66-.44-.52 2.24-1.12.4-.8.2-1.7 1.9-1.1.16-.77 1.45-.97.99-1.03 9.06-5.3 7.27-3.58 1.03-.4 1.12-.67.68-.15.8-.75 1.08-.52 3.62-1.42 1.02-.78 1.23-.47.65.2 1.57-.52 1.54-.81.14-.92 6.25-3.6-1.44 2.09 1.49-.46 1.41-.8-.1-.42.77-.4.61.28.57-.45 1.9-.8 1.07-.8.6-1.77.85-1.02 2.14-1.22 3.96-2 1.34-.88 2.13-1.6.15-1.08.83-1.37 3.65-2.1 2.02-1 2.54-.92 1.3-.31 3.39-2.03 2.4 1.56 2.56-.47.99-1.18 1.07-.72 2.4-.63 1.35.14.93-.55 1.73-.75.47 1.72-.17 1.56-2.84 2.5-2.38 1.9-1.8 1.23-2.92 2.3-5.94 4.52-1.05 1.41-.19 1.13.43 1.01-.02 1.44-1.22 1.39-3.78 2.92-1.73 1.09-.28.46-3.3 2.44-2.58 1.4-2.65 1.23-2.3.7-1.43.64-.44.57-.94-.19-.7.61-2.11.29-1.86 1.13-2.72 1.24-2-.18-1.46.57-.67.58-1.86 1.03-1-.24-2.76 1.62.02 1.06-2.42 1.02-1.7 1.1-.3.34-2.23 1.05-1.84 1.02.15 1.18-.36.41.14.97.3.33 2.55-.74.93.31 1.22-.19.76.63 1.09-.46 4.39-1.46.07.29-.96.65-.4.85-3.48 1.42-.82.54-2.71.9-2.22 1.15-1.87.61-.9.66-1.39.4-.95.05-1.73.72-.23.33-1.08.28-1.53.85-2.3 1.05-.92.55-.28.73-.53-.14-1.64.24-.78-.07-1.68.64-.8-.22-1.11-.98-1.12-.1-.28-.29.06-1.23-.67-1.14-1.09-.54-.8.1-2.01-.13v-.59l.61-.47.78-1.25-.11-.36 1.47-1.32.95-1.1-.39-.48-.71.1-1.63 1.42-3.33 1.36zM67.9 266.84l.4-.14 3.08-2.5 1.7-1.01 2.5-1.8 1.04-1 .74-.26 2.16.9.42.05 4.46-2.48 3-.93 1.87-.79 1.02-.55 5.05-1.97 1.29-.18 2.54-.66.5-.02 2.5-.65 3.43-1.26 2.2-.58 2.24-1.09 3.32-2.83 1.22-1.8 1.54-1.29 1.56-.88 4-3.19 7.65-9.13 2.16-1.49 4.36-2.14 3.3-.89.8-.29 3.3-.76 1.41-.12.88.16 1.3-.09 1.47-.4 1.38.35 2.32 1.12.24.6.77.26 1.79-.15 1.33-.54.61-.55 1.26-.46 2.95-.84.5-.33.77.26.94-.13 1.66-.52.7-.42 1.21.28.74-.15.5.4 1.12-.07 1 .25 3.72-.34 2.37-.71 2.82-1.37 3.96-1.63 2.1-1.64.76-.44 1.5-.5 1.85-1.35 1.21-.31 2.9-1.93.82-.2 2.3-1.52.98-.88 1.86-2 2.12-3.21.5-1.3.43-.67 1.69-.85.96-1.17.05-.47.61-.82 1.5-1.23 1.12-.26.56.77.74.46 1.34.21 1.7-.1 1.62-.43 1.26-.95 1.3-.78 1.13-.27.64.95.72.17 1.94-.2 1.21-.3 1.55-.77 1.45-1.02.93-.88 1.85-2.65.99-1.8 1.11-2.7.25-.93.02-1.38.35-.08.64-1.35-.13-.53 1.25-1.55.33-.74 1.81-1.14 1.16-.43.67-.6 1.03-.06.55-.47 1.1-1.45.94-1.66.76-.66 1.05-.31.47-.55 1.18-.66 1.57.1 1.5-1.02.79-.93.4-.87 2.23-2.82 3.24-3.02 2.95-2.27 2.01-1.06 1.51-.07 1.53-.51 1.36-1.42 2.2-.37 1.68-.53 1.62-1.48 1.03-1.3 2.98-2.51 2.6-2.58 2.5-3.18.77-2.26 1.22-1.95 1.48-1.45.96-1.18 1.16-1.9.63-.52.63-.03 2.67-2.02.9-.3.9-.9 1.91-.28 1.18-.47 2.17-1.1 2.23-1.38 1.97-1.62.94-.27 1.47-.16 1.86-.47 1.96-1.13.98-1.04.18-1.04.33-.29 1.44-.34 2-.9.6.1 1.7-.5.13.8 1.9-.36.22-.84 2.43-.34 2.88-.52 2.66.03 1.9-.33.02-.8.84-.16 6.62-.55.34-.12 2.6.16 1.45-.1 3.87.44 1.09.94 1.42.53 1.46-.18 1.49.15.49-.34.02-.59 3.26.3.83-.3.87.09 4.8 2 2.8 1.86 1.25.98.36.5.31 2.15-.41.73.18 1.14.5 1.35-.2.77-.96.06-1.18-.26-1.1-.51-1.8.45-.64.7-.26.74-1.26.27-1.08-.24-1.21.26-1.63 1.18-1.27-.22-.38-.6-.84-.02-.53-.54-1.44-.31-1.05.24-1.7-.28-1.55.62-1.47-.2-3.4.46-1.66.45-.55 1.02-.32 1.03-.06.92.33.97.84.92.8.21.93 1.38.06.72-.88 1.28-1.3-.03-1.1.3-1.8 1.48-.42.1-2.95 2.6-1.9.7-2.24.58-.57.4-1.23 1.43-1.2 1.84-.7.76-.84 1.45-1.3.35-.92.63-2.12 3.2-2.18 1.44-.98 1.66-.88.58-.56-.17-1.57.59-1.96-.03-.82 1.1-.97.55-1.08 2.04-.33 1.82-.07 2.6.35 1.15.82.24-.04.58-.83 1.04-.84.55-.48-.9-.6-.5h-1.1l-1.5 1.04-.79 1.35.2 1.47-.12.94-1 2.54-2.86 1.85-2.8 1.66-.34 1.16-.06 2.25-.57 2.4-.88 1.98-.05 1.27-.68 1.1-1.26 1.22-1.94 3.12-1.3 1.13h-1.08l-.74.33-.11-1h-.57l-.83 1.86-.23 3.7-.74 3.7-.3 1.1-.86 2.15-.37 1.27-.68 1.38.17 1.47-.5 2.37.11 1.76-.38 1.1-.12 2.75 1 2.12.06 1.33 1.1 2.42-.04.37-.75.94-.93-.64-.39.33-1.06 2.07-.47.58-.36 1.06.49.62 1.55.81.47.08.96-.38 1.82-1.77.17-1.2 1.01-1.77.14-.74.5-1.08 1.78-2.41.22-.46 3.65-4.22-.07-1.1-.8-1.01-1.46.74-.1-.67.47-.95 1.06-1.53 1.06-.78.82.03-.37 1.6.76.7 1.47.19.34-.15 1.02-1.36.89-.83 1.31-1.5.8-.65.48-.83 3.13-2.66 2.13-1.4.7-1 1.15-1.24 2.96-1.59 1.97-.67.96-1.33 1.25-.4 1.2-.63 1.27-.98.52.19.63-.5 1.28 1.04-.84.3-.69.73v1.06l-.33.57-4.04 3.9-1.4.7-.74 1-.5-.13-2.39 2.25-.92 1.53-1.3 3.02-.61 2.05-1.2 2.38-1.23.93-.06 1.42 1.13-.19.87-.85.3-1.07.82-.44 1.28-3.5 1.11-1.79.66-.64 1.62-1.16-.44-1.15 1.41-.93.64-.17 1.25-1 2.47-.05.75-.3 1.6-.33 1.43-.14 1.44-.47 1.32-.7 2.1-.5 1.24.14 3.8 1.72 1.21-.05.75-.24 1.05.27.93.54 1.36-.1 3.25-.49 3.7.08.55-.16 1.64-.04.4.15 2.5 2.58 1.45.78 1.61.59 2.06-.92 1.12-.23.38.8 1.03.75 2.3.24.6.49-.2 1 .2.56 1.17.87 1.1.14.62-.6.98-.16.43 1.87.03.98.45 2.42.57.95 2.05.23 1.56-.4.73-.48.26-.7-.27-1.16.7-.11.67.87.14 1.48-.12.56.7 1.1 1.14.59.9.19.76-.26.93.26.56 1.1.84.88 1.33 1.76 1.67 1.14-.32 1.08.3 1.05.21 2.3.49 1-.13.3.5 1.09v1.16l1 1.62 1.23.84.48.73.95.84.57.26.33 1 1.2.46.44.55.32 1.5-.27.73 1.46 2.26.22.82.68 1.46 1.1.77 2.69 1.1.04 1.47.53 1.35-.16.45 1.38 1.4.95.49-.07.61.4.65.52-.03.38.7 2-.19.51.6 1.36.55.96-.17.02-.89.67-.38.33.5-.28 1.37-.7-.1-.7.78-.03 1.01.56 1.49.72.9-.04.85.53.63-.83.5-.67.07-.4 1.48.51 1.36.86 1.13 1.57 1.57.8.6 2.77 1.14 2.48.65 2.72.39 2.9.2 3.29-.08 2.79-.32 2.44-.74.7-.53.22-.8.94-.2.45 1.06.7.29 1.87.44 1.94-.14 1.29-.49.24-.68 1.89-1.38.5-1.1.33.43 1.61-.24 1.98-.57.66-.93 1.38.06.56-.32-.19-.97 1.4.24.37-.2.61.84.58.26 1.27-.22.6.28.67 1.07.67.5.18 1.09.81 1.27.28 1.12.94 2.26-.57.27.24.97.48.44 1.61.74h1.03l.98-.31 2.13 1.2v.62l.59.62-.25 1.06.67.82.53.26 2.7.5 1.37-.01 1.67-.3.64-.28.48-1.3-.07-1.03.37-1.23.57-.95 1.69-1.74 3.6-.29 1.38.63.63.06.52.54-.13.97.5.7 1 .87.85 1.67.79.86.55.12 1.6-.08 1.52-1.01 1.5.49.28 1.71-1.06 1.5.04.52 1.18 1.03.7.2.72-.14 1.36-2.3 1.94-2.65-.09-1.47.35-.24 1.01.2.53-.67.91-1.68 1.52-1.46 1.84-2.87.34.06 1.75-.78.76-.82.18-.6.98-1.1.93-.41 1.13-.95.6-1.25.6-.5.22-1.05 1.2-.79.33-.74.67-.16.9.23 1.01.74 2.77-1.22 1.22-.69 1.78-.58 4.38-2.34 3.23-2.1 14.24-9.84 2.85-2.43 2.52-.54.75.92.51.28.73 1.26 1.52.46 1.93-.15 3.21-.96 2.29-.98 1.17-.2 3.36-.75 2.52-.99.02.5-1.3.51.5.5 3.21-.87 1.79-.83 2.53-.9 3.37-.63 3.98.31 4.98 1.23 4.79.59 3.9.03 4.93-.51 4.77.24 4.02.67 4.49.13 2.38-.07 2.5-.28 2.2-.7 3.65-1.66 1.87-1.05 2.4-.76 3.9-1.87.81-.34 3.74-2.14 1.9-1.16 2.26-1.03 3.58-1.47 2-.36 2.27-.17 2.84-.72 2.2-.45 1.38-.16 1.37.16 3.52.59 3.28.39 2.01.01 2.94-.4 1.23-.39 2.97-1.33 2.72-.31 1.73.22.31.63-1.4 1.25-2.3 2.28-2.16 2.7-1.35 2.5-.8 2.37-.27 2 .19 1.51-.78 7.88-.17 3.78.17 3.05.78 3.43.3 2.1-.17.52-1.54.5-1.25 1.1-.35 1 .13 1.84.55 1.69.85.88.89 1.68.88.72 1.12.52 1.06.17 2.08.08 2.36.21.97-.54.87-1.12.43.35.57-.17.44.36-.06.57.6.51.75 1.11.73.39 2.35.33 1.98-.22 1.47-.5.8.84.85 1.62.05.56.7.7 1.06.27 1.3.03 1.86-.3 3.35-1.14 4.94-2.31 1.66-.99 2.15-1.55 1.04-.5 1 .24.6.4 1.05.2 2.47-.4 1.02 1.04.55 1 .92 2.36.95.78.78 1.01 1.25 1.32.05.63-.73.25-.08-.97-.49-.64h-.73l-.63 1.15.13 1.32.76 1.67 1.4.26 2.58-.48 1.82-.81 2.67-2.04.76.25.84-1.17-.1-.76.73-.21.47 1.17.38.13.11 7.53-.05 4.62-4.52-.01.06 4.53h2.2v2.3l2.27-.04.03 2.3 11.25.04v8.22l.04.88-7.93-.1-1.65.04-6.09-.07-2.39.04-.01-4.56-20.21.04-27.08-.08-1.62.04-7.49-.08-4.31-.02.1 18.17.02 5.48-.07 10.73v2.56l-1.88-1.3-1.12-.55-1.21-.17-1.11.46-.58-.27-.08-.94-1.28-.96-.97.17-.42.78.48.33-.2.91-.79-.95-.84.02-.55-.61-.45.27-.41-.57-.94-.23-.77.34-1.06-.37-1.13-.6-.46.34-1.8-1.02-.53-.16-.46-.59-1 .14-.23-.67-.78-.52-.61-.02-.25-.53-1.51-.9-1.12-.37-1-.13-1.2.21-1.12.83-.33.73-1.14.96-.32-1.26-.72-.49-.1-1-1.34-.82-.65.01-.3-.41-1.6-.09-1.63.96.16.74-1.36.68-.53-.59-1.2-.35-1.25-.57-2.1-.08-1.36.34-.96.54-2.08 1.82-1.57 1.92-1.06 1.02-.98 2.15-1.38.86-1.13 1.27-1.57 2.5-.6 1.37-.01.42-.74.4-.46.63-.18.75-.57.64-.74.29-.93 1.19-.4 1 .15.74-.57.54-.55-.2h-1.65l-.74.22-.3.66-.78.34-1.59-.68-1.92-.37-1.05.27-2.25-.74-.78-.07-1.02-.65-1.53-.65-2.17-.37-.74.03-.95.58-.76 1.31-.98.43-1.1-.5h-2.48l-.77-.1-1.32.3-.55.69-1.04.54-1.13 1.09-.4.7.13.46-.44 1.01.02.93.96.57.36 1.4-.76-.2-1.48-1.14-1.02-.23-1.4-1.33-4.53-2-2-.7-4.83-1.37-3.52-.37-1.73.29-1.38.01-1.4.7-.14.56-.85-.11-.53.56-1.34-.05-.38-.37-.87-.25-.52.14-.51-.42-.7-.07-.65-.45-1.25.04-1.33.63-.11.48-.93 1.31-.68.27-.42-.38-1.3-.22-1 .26-1.52.66-.64.77.45.82-.88 1.13h-.71l-1.51.7-1.05.98-.9 1.42-.12.61.31.76-.44.7.16.89-1.05 2.75.01.85.6.6.23.75-1.43 1.26v.72l-.82.98-.16.58.4 1.7-.77 1.12-.24 1.34.64.86-.68.77-1.17.5-.46.55-2.16-1.22-.8.74-.19-.56-.99-.07-.77.22-.95.63-.5 1.22.4.87-.42.2-.28 1.04-.32.07-.16.94-.38.05-.64-.63-.5.78-.76.5-1.33-.69-.31-.47-.6.11-.36.66.2.53-.48.4-.03.62-.62.35-1.26-.82-1.27.13-.24.65-.5-.1-1.26.26-.1 1.1 1.25.58-.14.69-1.07.32v1.02l.84.29-1.09.83.22.7-.43.4-.85-.21-.3-.52-1.1.08-1.69-.51-.78.6-.44 1.09-.05 1.08.25.6.08 1.33-.25.52-.7.38.2.85-.26 1.35-2.1-.68-1 .4-.75 1.12.24 1.23.07 1.42.48 1.78.36 2.22.56.42.58 1.58-.87.58-.28-1.03-1.76-1.77-1.84.34-.2-.32-1.52-.55-2.27-1.94-.17-.88-.68-1.08-.03-1.06-.74-.34-.53.5-.6-.72-.5-1.23-.15-1.39.31-1.48.61-.77.91-.33 1.36.5 1.4-.62 1.13-1.6.02-1.05-.4-.29-.25-1.54.47-.2.48-1.05 1.22.13.44-.7.4-1.14 1.14-1.19-.14-.96.82-.13.71-.88-.27-.55-.89.17-.65-.29.41-1 1.04-.16-.67-.73-.14-.8.87-.25.87.18.08.65.76.06.3.97.64-.17.25-.66 1.06-.27.7.29.63.65 1.26.36.3-.7-.9-1.1-.22-.53-1.08-.68.2-1.64.75-.77.84.15.66-.57.18-.83-.48-1.01.52-1.8.66-.75.87-.13.48-1.37.93-1.1-.15-.45-.02-2.92-.61-1.68-.68-.68-1.94-1.4-.9-.2-1.57.69-.54.56-.3.92-.94 1.55-1.59.09-.52.87-.65.09-.95 1.5.15 1.7-.07.9-1.29.05-.34 1.46-.73-.65-.6.08-.21.47-1.22-.63-1.4-.3-1.4-.49-.85-.07-1.08.28-.45-.53-1.15-.49-.1-1-.83-.83-.23-.67-.77-.47-.95.08-1.83.7-.72.4-.22.6.32 1.15-.15 1.2-.6.86.2.47.97.83.28.85.15 1.6-.62 1.89-.53.7-2.03.17-.4.9.96 1.99-1.06-.22-1.53.92-.24.75.47.74-.16.72-1.2.77-.72 1.44-.7.77.5 1.06-.24 1.59-2.04.7-.52.76-1.08-.16-2.05.04-.85.3-.66 1.1-.8.84-.3-.01-.62-.92-.88-.2-.86.26-.4 1.26-.48.36-.27 1.06-.53.17-.78 1.7-.44-.83.1-1.06-.26-1.07-1.2-.5-.4-1.65.32-2.88.43-.67v-.97l.22-3.22-.56-.7-.3-1.4-.05-1.21.33-1.31-.19-1.3-.45-.47-.16-2.1-.26-.47-1.06-.62.09-.58-.62-1.14.48-.52 1.45-.68.42-1.68.84-.52.55-.62.63-1.45 1.32-1.13.5-.83.09-1.52-.1-1.68-1.74-1.1-1.46-.18-.67.67.02.7.52.43-1.27.6-.97 2.03-.77 1.24-.75.33-.87 1.06 1.1 1.22 1 .31.39.39-2.15 1.37-1.35.25-.91.47-.63 1.12-.71.73-.56 1.52-.15 1.7.03 1.74-.27 1 .5 1.23-.69.5-.16 2.14.2.85.74.27.04.42 1.93.81-.1.32-1.09.59-.98.14-.46.62.08.42-1.1 1.78-1.44 1.05.34.68.82-.1.66-.43.36.48-2.5.67-.87.36-.53.54v1.66l-1.35.16-2.04.73-1.96 1.33-.34.46-1.4.62-.91.93-.23 1.46-.97.46-.14.45-1.12.83.02.78-.39 1-.5.49-1.35 2.67-.39.47-.65 1.44-.77.85-.5 1.96-.43.55-.97.75-1.22 2.42-.24 1.83-.74 1.13-.68 2.13-.64.98-.37 1.8-.43.37-.71 1.5-.66.9-.13 1.15-.41.8-.67.44-.57.73-.4 1.46-.34.08-.53.84-.07 1.63.8 1.03-.14.71-.91 1.53-1.6.85-.84.85-.36 1.91-.74.71-.53 1.16-.35.1-1.63 1.49-.28.75.15 1.4-.25.9-1.04.36-.5.75.21 1.45-1.5 1.06-1.06 1.47-.6 1.67.08 1.76-.68.43-1.95 2.11-.73 1.02-.12.75-1.55 1.84-1.35 2-.4.37-1.4 2.18-.02.67-.49.22-.4.65-1.32 1.21-.73 1.87-.54.12-2.02 1.42-1.08 1.9-.52.09-.8.72-.3.8.26.39-1.49 1.25-.1.55.52 1.18-1.21.55-.28.72.2.73-.45.41.22 1.42 1.07 1.7.98.97-.12.29-3.83-1.31-.42-.44-1.8-.02-.35-.34-1.06-.08v-.53l-1.05-1.15-.81-1.7.29-.6-.88-1.38-1.2-.98-.6-.1-.73-.54-.09-.46-1.05-.53-.72-.96-1.29-.91.15-.65-.27-.94-.2-1.52-.24-.7.77-1.14.9-.57-.07-1.46.6-1.21-.3-.98.63-.78.75-.25-.01-.81.25-1.45-.14-.71.5-1 .76-.55.06-1.86.85-1.34.3-1.2.78-.72.13-.47.7-.67 1.2-1.72-.05-.77.67-.68.83-1.31.04-1.74-.63-.54-.33-.68v-1.33l-.22-.37-1.6-1.11-.12-.72-.9-.51-.33-.58-.86-.18-1.38.93-.17.4-1.14.58-1.57 2-.67 1.23-1.22.21-.34.86-.87.16-.76-.43-1.5.23-.79-.57-1.09-.03-1.04.36-1.4-.2-.2.29-.83-.24-.6 1.1-1.1.68-.34-.25.12-.8-1.41-.85-.25-.5-.03-1.06-.45-.5-.59.34.6.8-.03.43-1.16.76-.75-.52.35-1.25.61-.45.82-1.19-.44-.55.52-.93 1.24-.79.27-.75-.24-.9.88-.45.14-1.17-.7-1.01-.46-1.14-.14-1.69.7-1.06.84-.43.28-.65.95-.38.36-.78 1.39-.72.74-.55.16-.59.62-.79-.12-.92.85-.93.11-1.37.56-.91-.05-.78-.6-.2-.37-1.04-.27-2.8.14-1.08-.4-.81-1.26-1.32-1.53-1.14-.07-.47.46-.97 2.05.54.46.38.93.11.94-.59.14-2.38.2-.4.91-.7-.03-.82.3-1.26-.3-.31-.36-1.64-1.2-.33-.42-.32-.12-.74-.81-.82-.62-1.51-1.5-1.3-.06-.94.21-.44-.05-1.03.96-.37 1.19-.2.85-.76 1.48-.3.1-1.09-.75-1.05-1.53-1.04-.79-1 .44-.5-.08-.5-.7-.7-1.28-.2-1.42-.66-1.41-1.3-.55-.25-.95-1.58.22-1.22-.63-.69-.57-.15-.7-.68-2.18.21-.5-.88-.58.38-.9-.38-.39.34-.77-.52-.59.35-1.28.21-.87-.26-.97.03-.38-.9-.59-.35-1.5-.51-.37-.52.96-.62-.19-.93-.57-1.57-.58-.39-1.48.53-1.14-.04-1.04.5-1.35-.06-.22.91-.96.43-2.15.16-.84-.67-1.7-.22-.99-.88-.55-1.87-.83-.1-1.45-.8-.72-1.52.27-.63 2.37-2.5.55-.28.9-1.4 1.02-.9.67-1.4.55.17.7-1.68-.59-.2-.9-.73-1.26.13-.57-.57-.08-1.35-.48-1.17.14-.85.4-.82.75-.83-.85-.93-2.54.06-.16-.8-1.41-.62-.77-1.07-1.71-.13-.94-.41-.58-.95-.79-.29-.48-.5-.85-.14-.66.8-1.66.07-.5-.19-1.01.2-1.01-.45-.44-.97.1-.96-1-.12-.48.63-2.6.68-.97.62-.5-.48-1.35-.8-1.19-.1-.69.76-.15-1.4-2.44-2.03-3.16-2.25-.83 1.32-.8.43-.81-.12-.9.32-.62.59-.66-.5-.34-.86-.83-.24-.75-.81-.86.16-.6-.56.06-.56-.53-.37-1.32-.25-.41.35.02.8-1.32.41-1.15-.65-.63-1.88-.35-.6.03-.94-.36-.32-1.47-.05-1-.26-.94 1.16-1.04.13-.46-.32-1.13-.12-.66.3-.98 1.06-.9.3-.47-1.46-.51-.5-.64.23-.32 1.2-.5.74v.76l-.47.85-.05.88-.81-.15-1.1.1-.37.47-1.12-.57-1.06-.1-.6.25-.86-1.76v-.88l-.85-1.38-2.76-.72-.9.86-.98-.73.1-.73-1.03-.7-1-.12-1.32.58-.85.58-.51-.44-1.23 1.05-.64-.1-.16-1.21.53-.7-.62-.6-.32.6-.95-.76-.48.58.47.49-1.02.82-.84.14-.6-.88-.57-.03-.78-.48-.76-.08-.92-.96-.34-.62-8.9-5.2-6.27-3.67-10.89-6.42-3.61-.94-4.51-1.3-2.98-.79-2.75-.84-6.15-1.68-10.35-2.92-1.43-.36-11.84-3.3-4.11-1.22-11.3-3.07-3.15-.94-10.46-2.85-15.51-4.37-2.27-.58-20.65-5.8.19-.37-.16-1.63.37-.16-.22-1.34-.45-.68-1.18-1.29-.04-1.14.22-.33-.77-.6-.49-.73-.3-1.47-.68-.34-.11-.84-.42-.41-.08-2.1-.4-.75-.12-1.12-.63-.83-.93-.05.12-1.17-.23-.4.1-.88-1.23-.46-.42-.68-.01-1.46-.9-.57-.42-.73-.01-.58-.66-.92-.52-1.8-.62-.25-.69.29-.3-1.3-.51.43-1.06.35-2.07.16-.14-.63-.88-1.19.23-.9-.5-.52-.67.88-1.23-.43.04.44-2.1.41-.42-.85.36-.34.41-1.37-.02-1.07-.6-.24-.46-.9-.65.07-.56-1.12-.55-.12-.8.3-.11.92-.53.9-.76.24-.36-.37-.7.03-2.03 1.16-.8.19-.72-1.85-.6-.5-.25-1.1-.72-.43z"/>
    <path region="7" short-name="25" long-name="State Senate District 25" value="1" d="m820.27 688.2.25-.98 1.5.52zm-.01-6.36.47-.39.9-.07.55.8-.67.17-.15.77.12 1.62-1.37-2.4zm-1.22 6.36.25-.96h.56l-.55 1.21zm-2.22 8.7.45-.5.95.6-.72.21zm1.5 4.41.65-.99-.17-.45 1.97-2.65.73-1.88-.23-.32.9-2.03.84.06v-1.12l.76-.8-.16-.26.58-.86 1.08-.56.79-1.7.4-1.96.5-1.55-.33-.83.58-.7 1.4.16.71-.19 1.12-.74 1.69-2.09.22-.57.83-.56.5-.65-.15-.47.03-1.41-.35-1-1.52-.34-2.13-.21-1.47-.43-1.54.1-.57.21-.79-.57.3-.83 1.45.47 1.22.17 1.02-.04 4.3-.37 1.9-.7 1.44-1.09 1.04-1.04.8-1.03-.11-.63 1.19-1.6.76-1.93-.06-.95 1.6-.08 1.97-.68.92-.04 2.44-.44 1.42.3 1.02-.23.6-.58.62.12 1.41-.23 1.77-.81 2.43-1.73 1.76.43 1.81.1 1.44-.33.78-.43 1.32-1.43.3-.49.75-1.94.41-.58.58-1.57.33.16 2.45-.29 1.2-.26 1.08-.96 1.24-1.49.59-.47.55.02.1.69 1.13.2 1-.6.87-.3.92.04.14.36.87.48 1.21.32 1.2 1.39 1.5.89 1.92.4 2.7.83.67.47 1.4.2.29.6 1.95.77.53 1.43.55.65.5.19 1.33-.07.68.84.4.16.86 1.6.7.13.52.68.33 1.13.33.34.47 1.26.3.34.36 1.5.36.68.69.49.48 1.32.56.6.07 1.26.65.61.26 1.06 1 1.2-.36.65.07.82.46.88.31 1.64.78.71 1.68 1.22.09.86.81 1.44-.25.41.2 1.25.29.55.8.41.33 1.46.32.76.33 1.7.7 1.8-.34.97.08.48 1.01 1.15.11 1.14-.46.5.07 1.4-.2.47.27 1.45.5.64.18.92-.16 1.52.58 2.15-.23.52-.13 1.39.35 1.2-.08.82.27.9-.14 2.6.21.58.02 1.23.3 1.05-.15 1.17.35.88.28 2-.41.52-.03 1.04.34 2.16.38.78.33 1.63.18 1.73.5 1.33-.05 1.47.97 2.26.03.57.49 1.2-.03.93.6 1.08.16 1.83.56 1.15.5.59-.1.44.27 1.76.7 1.15-.05 1.31.54.77.42 1.52-.17 1.29.15.57.07 1.72-.1 1.52.57 2.13v1.61l-.23.74-.16 2.16.07.69.65 1.54.15 3.25-.32 1.55.45 2.44.06 2.6.18.31-.16 1.47.34 1.22-.13.26.23 1.31.03 2.31.43 1.87.84 1.59.27.78.01.9.77 4.3.8 2.65.39 3.78.36.8.13 1.52 1.03 1.58.59.62.86 2.7.63 1.19 1.82 3.85 1.5 2.66.46 1.7.31.44-.55.85-.05.53.48 1.35.76 1.08-.36 1.52-1.28 2.15-2 2.1-.91 1.63-.93 3.78-.62 2-.01.9.2 3.29-.08 1.1-.4 2.18-.65 1.71-.42 2.43.1.58 1.02 2.76.55 2.53-.08 1.08-1.68 4.11-.05 2.28-1.15 2.52-1.78 5.33.05 1.65-3.52-1.55-.5-.49-6.47.25-.32-8.7-7.57.3-5.31.27-7.28.22-6.69.17-.12-4.34-.1-2.05-.18-6.62-12.64.25-.08-4.27-.18-3.97-.01-2.46-.11-2.38-.44-13.07h.13l-.26-7.48-.54-12.71-.25-5.19-.26-9.01-.11-4.95-.08-5.42-12.8.19-.15-6.44-11.08.34-.3-12.98-4.28.13-5.94.13-2.56.11-12.82.28-.09-12.97-.1-10.72-.15-10.77-2.15.01-.05-4.28h2.14z"/>
    <path region="8" short-name="36" long-name="State Senate District 36" value="1" d="m845.88 501.32 1.08.95 1.01 1.56-.54.16-.78-.9-.1-.57zm-1.82.87.64-.62.53.18-.03 1.22-.93.16-.38-.34zm-7.54-2.92.84-.36-.08 1.18-.74-.43zM832.46 480l.7-.94.61.26.47 1-.54.37-.78-.23zm-11.32 174.96 1.38.8.13.6-.84.26-.7-.12.15-.69zm-256.58-71.61h6.54l10.91.08 10.72.04 10.83-.02h13.23l.12-13.04-.06-13.17.03-2.73.04-16.61 1.05-1.05.54-.03.17-.62-.5-.68.13-.76-.34-1.98-.49-.72 1.59-.43 2.29-.92 12.52.07 6.75.07 6.69-.03 8.9-.01 13.12.14-.1-6.6.02-2.22-.14-4.44-.05-4.44v-8.02l.03-.46-.84-.01-.02-13.3 1.43-.03 6.76.14 5.05.17-.03-4.46.09-8.87 9.95.13 5.52.13 5.1.03 15.35.2h16.73v-12.77h-.3l.2-13.24.02-4.37-.09-8.93-.41-26.4 5.13-.03 1.86 2.13.78 1.3 1.04 1.14.48.81.78.3.13.64 2.06 1.92 1.03 1.69.2.89v2.1l.4 2.65.36 1.17.78 1.45.98 1.1.74.58 1.96 1.02 1.95.29 1-.19 1.56-.7.11-.48.85.24 2.01.23.58.4.86.16.8-.1 1.8-.53.83.29 1.05-.12 2 .26 1.45.65 1.42.36 1.31 1.56 1.67 1.2 2.32 3.05.7.77 1.62 1.39.85.08.68 1.01 1.13.42.37.56 1.49.59.86.17.12.6 1.65.74.95-.1.4-.72.82.33.86 1 .47-.03.36-1.15.35.09 1.75-.56.77.51.49 1.28.58.76 1.69 1.13.35-.02 1.1.9.9.22 1.31 1.06.44.51.8.4.9.83.86.2.8-.1 1.13.6.67 1.3 1.8-.34.22.5.87.55.7-.55 1.16.25.97-.61-.01-.68.85-.05.92.6 1.15 1.16.48.04 2.17 1.07.4-.35v-1.24l-.64-1.13.82.14.55 1.2.73.5-.06.5-1.09.01-.24.87.48.94.68.65.4-.13.05-.9.89.02.23.65.03.99.55.57.81-.22.75 1.83 1.2.52.92 1.16.38.99 1.56.51.59.55.13.7 1.4.35.66 1-.55 1.17-.12 1.02-.42.45-1.21-.41-1.52-.25-.05.8.86.47-.39.58.06.86.45.56.42 1.52.99.88-.22.62.46.33.96 1.57.43-.04.74 1.46.47 1.45.1 1.88.89 1.45 1.21.23.47 1.2.47.48.55 1.25.63-.52 1.4.58-.72.75.04.54.74 1.15-.53.77.07.75.36.54.54.05-.2 1.75 1.2.89-.67.82-1.14.02.64.66-.6.75-.07.7.88.65-.4.44.44.44-.5.95v1.05l.74.53 2.61.58.64-.07.73 1 .14.75.66 1.64-.91.01-1.63-.48-1.73-1.08-1.22-.16-.5-.54-.88-.03-1.4-.58-.88-1.14-.95-.19-1.04-1.72.38-.5-.32-1.63-.61-.14-1.74.08-.37 1.15-.76-.24-1.36.75-.74.03v.6l-.65-.01-1.44 1.02-1.08 1.54-.74 1.82.18.73-.44.53.07 1.15.7-.07 1.6.89.43.59-.3.39-2.16-.88-.9.78-.2 1.52.42.63 1 .4.55 1.31.04 2.65.2 1.7.53 1.75.62 1.21.84.94.53.12.68.6 1.02.5.6 1.1v.85l.95.63 1.5.2.22.54.87.98 1.45.75.81.27h1.48l1.73.85-.38.57.3 1.38-.55 1.06.02.84.68 1.63 1.12 1.27.42.76.1 2.04.65 1.1.06 1.85-.38 1.38.08 1.37.54 1.91-.79 1.61.08 1.03.35 1.72.4 1.15.7 1.14 1.16 1.2.15.8-.25.4-.17 2.08-.6 1.96-.32 1.35-.3 2-.4 1.26-.37.38-1.42 2.53-.76 3.2-.12 2.07.28 5.34.65 2.67-.16.35-1.06 3.86-.08.9.25 2.25-.1 1.14-.75 4.54-.24 1.76-.04 2.3.28 2.14.44 1.23-.58 1.76-.15 1.04-.7 2.4-.16 2.19.3 2.65-.13.58-.74.84-.4.05-1.46-.36-.7.07-1.01.73-1.17 1.5-.8.84-1.08 1.58-1.34 1.1-.54 1.01-.7 2.31-.81 1.24-1.72 1.88-.23-.17.86-1.43.44-.37-.08-.53-.63-.75-1.86-.83-1.78-.19-2.25.53-.91.44-.52.78-1.2 1.05-.1.45-1.3 1.57-.49 1.07-.74 2.07-.4 2.5-.26 3.13-.31.92-1.04 4.2-.11 1.48.12.71-.14 2.2.49 3.19-.5.1-1.23 1.85-.87 1.03-.31.97.1 1.45 1.14 3.03-2.3-.8-1-.22h-1.15l-2.8.45-.8.34-1.84 1.37-.88.82v.78l-.34.53-.69.13-.03.44.48 1.8.53 2.65.32.55-.37.44-1.78-.72-.22-.6-.78-.58-1.19.25-1.2-.71-1.28-.28-.98.4-.1 1.73-.77.18-.58.6-1.53-.08-1.46-.49-.82.46-.36-.54.02-.76-.8-.26-.67.04-.56.8-.65.05-1.16-.82-1.23 1.04-.29.76.31.38-.58.54-.58 1.02-.28.85-.44.5-1.09.09-.45 1.59-.62.74-.46 1.68-.1 1.7-.98.05.14.64-.85.16-.25.4-.63 3.22-.1 1.02-.3.58-.01.95.19 1.4-.69.88-.13.46.3 1.63-.11.35.16 1.87-.16.88.12 1.51-.67 2.48.17 1.9-.31 1.59-.53.6-.48-.08-.6 1.53-1.13-.09-.26.48.28 1.58.58 1.6.19.13-10.84-.09.2-17.83.05-7.9-.06-12.86h-13.06l-.02-18.55.05-6.22-8.69.02-13.11.16-12.88.01h-13.04l-8.33-.04-11-.02-6.23-.08h-3.68l-7.9-.1-7.05-.17-10.28-.2-10.13-.05h-17.24l-2.12-.03-19.3.03-5.12-.02-7.75.06-12.54.02-2.3.04-10.8-.08-2.72-.06-7.56-.28-2.92-.01-2.13-.12.06-3.39.03-9.75.07-2.7-.01-10.43.18-6.51v-6.6l6.1.22 6.94.2-.03-2.14.1-6.6-.02-4.43z"/>
    <path region="9" short-name="33" long-name="State Senate District 33" value="1" d="M540.2 635.57h2.91l7.56.29 2.71.06 10.82.08 2.29-.04 12.54-.02.02 3.82.1 9.7.08 13.02-12.9.04-.04 13.01.16 12.99 9.37-.2 16.31.01-.03 13-.01 10.71.06 2.2-.04 7.84.03 18.07h21.95l3.84.04 12.87.07 8.65.15 4.23.03 8.61.02 4.26-.03 12.93.01.1 12.93-.06 12.9 1.11.01-.15 17.85-.02 9.84-.08 10.73v13.12l.06 18.07v7.45h-12.82l-12.78-.05-.08-12.7h-12.8l-.02-12.8h-12.77l-.02-9.5-.02-3.16-6.93.1-5.86.05-8.6.07h-3.8l.3-.67-.61-1.63-.24-.22v-9.28l.06-.5h.61l.2-1.32-.35-1.23.61-1.01-.02-1.08h-2.16l-.58.53v1.42l-.76-.32-.87.21v1.67l.3.28-9.94.09-12.84-.21-12.77-.13-11.84.05-1.07.04.01-1.04-.1-11.95v-12.96h-1.2l-.01-12.93-.04-12.9-.03-12.92.05-10.83V705.2l.02-8.17.13-8.7-.09-8.66v-4.37l-.15-13.06.06-6.49v-4.54l-.13-6.44-.18-6.39z"/>
    <path region="10" short-name="14" long-name="State Senate District 14" value="1" d="m696 894.45 12.75-.02h12.68v-.38h11.5l6.26-.02 20 .14 7.6-.04 14.34-.54 5.04-.22 2.2.13 8.63-.4 12.19-.58.47 12.56-7.54.26-4.82.21.08 4.98h-.83l-1.95.77.02 1.02 1.03 1.63-5.1.2-.5-.53-.64.65-.64.24-1.14-.01-.03.6-.73-.03.02 1.05-.85-.02-.02-.37-1.92.54-.03 1.18.57 1.21.1 5.38-1.56-.24.03.66-1.05-.03v.5l-1.3.03.28-.52-.05-1.6-1.55.06-.04-1.07h.49l-.01-1.08-1.1.03-.52-.4-.04-.65-4.42.18-1.89.18.32 11.4-1.07-.02-2.91.26-2.67.08-6.1.1.01.42-5.52.16-7.73.17.23 12.9-5.17-.33-7.32.08-12.49-.03-6.17.06-6.2.02-1.6.04-10.82.13-.12-8.45-.11-4.4-.5-12.75-.09-12.46z"/>
    <path region="11" short-name="17" long-name="State Senate District 17" value="1" d="m455.84 990.72 5.14-3.54 6.5-5.01 1.2-1.24 2.32-1.78.82-1.23.84-1.02 1.98-1.84 3.12-3.42 1.5-2.12 1.08-1.7 1.7-3.48 1-2.71 1.1-3.6 4.42.04 9.9-.05 5.3.02.2.39.67-.41.56-.04.36 1 .52.2.23 1.37.84-.27.32-.47.77-.47v-1.3l5.04.06 5.58.1h1.99l-.02-12.63 12.42.1 5.17.06 7.35.04 6.1.07 11.82.05h6.8l12.7-.15h5.16l7.38-.06 12.74-.08 12.7-.04 12.6-.15h5.18l8.44-.04 11.7.04v-5.94l-.1-13.08-.07-4.48.85-.69.02-1.15-.5-.02-.4.5-.04-4.45.62-1.25-.64-.14-.14-10.6-.05-1.06-.05-8.63 16.18.08 8.48.02 12.75-.07v13.02l.08 12.46.5 12.76.1 4.4.13 8.44.01 10.47-3.43-.05-9.16.02.02 4.54v10.25l.04 23.16.02 5.64-4.45.13-6.05.31-.02-6.8.03-2.47-2.09.03-11.58.04-4.35.05-7.2-.09-8.4.04-5.93.01-14.68-.07-22.43.11-.25-.02-9.64.06h-19.84l-8.71-.04-12.88-.08-5.37-.09h-9.37l-9.69.08-5.92-.03-15.35.06-11.84.05-12.62-.03-11.55-.05-7.33-.04z"/>
    <path region="12" short-name="9" long-name="State Senate District 9" value="1" d="m869.54 864.45-2.14.08.1 1.95-.47 1.03-1.15.77-.4 1.24.18 6.01-.05 2.14-4.24.17-.03-1-.9-.08-1.1.3.05.88-1.1.05-.04-1.08-3.95.12-1.36.05-.04-1.12-2.1.05.03 1.12-2.12.06-.82-.75.77-.36-.04-1-1.82-.04-.3-.59-.63-18.3-.2-3.85-.13-4.31 6.9-.22.04 1.28 1.64-.25-.04-1.08 1.55-.03.06-1.07 2.1-.06.53.8.5 15.33 3.34-.1.24.1 1.16 1.45.46-.6.8-.25.42.22 1.06-.02v-.57h1.02l.03.53 2.15-.06z"/>
    <path region="13" short-name="1" long-name="State Senate District 1" value="1" d="m835.41 916.9 9.03-.27.14.46.95-.2 1.57-1.02 1.79-2.86.55.08.53-.45.31.32.18.82 1.27-.4.06-.4.67-.16.4.54.51-.27.25-.68-.22-.9 1.95-1.08-1.43-2.7h1.1l-.31-.6.58-.3-1.17-2.16-2.35.05-.05-1.05-1.98.05-.05-2.12-.67.02v-1.06l.5-.01.22-.51.85.46-.07-2.11 3.15-.06-.04-1.06 3.04-.05.67 1.45.78 1.35.91.6 1.54 3.03-1 .65.24.56-.68.3 1.76.96.54-.16.66 1.7h1.47l.34-.45.5 1.03-2.1.78-2 1.38-2.72 3.64.41.18-.92 2.44-.4 1.36-1.54 3.24-.06.54-2.22-.01-1.44.08-.87 1.59-.6.3-2.8.06-.46-.29-.4-.76-2.32.07.12 4.21-6.31.24.04 2.11-2.07.19z"/>
    <path region="14" short-name="28" long-name="State Senate District 28" value="1" d="m670.38 804.7.05.02 12.7.04 12.74.13.11-12.76h12.61l12.52-.04-.02-1.55 8.91-.07 12.63.04 1.6-.05 11.14-.4 13.1-.16.08 13.05-.05 12.98h-.12l.3 13-12.55.3-.52.04-12.26.17.39 13 .4 5.48.45 7.95-12.23-.17.06.95.35 11.58-11.25.07.04-12.12-13.01.05-1.57-.01-.01-.94-1.26-.1-.3.18-1.1-.21.01-3.2h1.48v-1.08l-.72-.5-1.96-.6-.4.12.03-2.6-.73-.04v-1.33l1.32-.95-.01-1.51-14.75-.04-5.48-.05-12.66-.03v-7.45l-.06-18.07z"/>
    <path region="15" short-name="3" long-name="State Senate District 3" value="1" d="m854.3 877.03 3.95-.12.04 1.08 1.1-.05-.05-.87 1.1-.3.9.08.03 1 .11 4.35 4.24-.13.05 2.17-1.14.06.03 1.54-.09 1.76.81-.02.1 2.23-.45.1.02.74-2.11.07.04.99.46.02.13.67-1.63.04.06 1.44 2.6-.08.04 1.06 2.65-.07.69 1.01 1.36 1.46.59.82 1.14 1.01.82.4 1.32 2.56 1.05-.14 1.1-.61 1.1 2.43-.4.2-2.51.36-.94-.07-.28.4 1.42.8-.63 1-3.12 1.12-2.66.15-1.4.36-4.04 1.76-1.8 1.47-1.83 2.44-.28.5-.4-.18 2.71-3.64 2-1.38 2.1-.78-.5-1.03-.33.44-1.48.02-.66-1.7-.54.15-1.76-.96.68-.3-.23-.56.99-.65-1.54-3.02-.91-.6-.78-1.36-.67-1.45-1.06-2.11 2.17-.05-.06-2.12-1.1-2.1.32-.06-.19-3.15-.28-.94.33-.13-.6-2.42-.05-1.76-.87.02-.08-2.22-1.48.04.23-1.28h-.71l-.24-.63.35-.46.8-.03z"/>
    <path region="16" short-name="8" long-name="State Senate District 8" value="1" d="m846.5 874.45.3.6 1.82.04.04 1-.77.35.82.75 2.12-.06-.04-1.12 2.11-.05.04 1.12 1.36-.05-.15.8-.8.02-.35.46.24.62.7.01-.22 1.28 1.48-.04.08 2.22.87-.02.06 1.76.59 2.42-.33.13.28.94.19 3.15-.32.05 1.1 2.11.06 2.12-2.17.05 1.06 2.11-3.04.05.04 1.06-3.15.06.07 2.11-.85-.46-.21.5-.51.02-1.63.14-.2-7.48 1.38-.06-.78-1.03.82-.04-.03-1.04-1.45.06-.35-10.63-2.11.05-.07-2.09-.52.01-.06-.64h-1.15l-1 .7-.11-.97.47.04.03-1.26.53-.57-.01-1.27.48-.21 1.3-.05.59.9.86-.27-.02-.69-.52-.05-.05-.81z"/>
    <path region="17" short-name="31" long-name="State Senate District 31" value="1" d="M541.97 792.04v10.8l.06 3.15.39 12 8.63-.1h4.27l-.05-2.13 3-.03.44.95 1.32.9 2.45.2 1.61-.5.85-.1.68.43.92 1.01-.17 1.6.94 1.66 1.1.72v8.11l-.06 4.34.02 8.62-4.25.07-5.61.04-2.98-.03-6.38-.15-6.22-.03.14 3.7.22 9.06-10.61.03-2.37.04-8.25.03-.06.18.36-1.75.23-2.56-.06-5.55-.13-2.28-.3-2.02.07-2.16-.08-5.9.1-3.58-.09-2-.33-2.12-.04-2.06-.18-3.16-.75-7.47-.34-2.75-.7-4.06-1.24-5-.76-1.55.08-1.01-.44-2.43-1.87-5.17 7.2.09 6.38.05 8.56-.1z"/>
    <path region="18" short-name="19" long-name="State Senate District 19" value="1" d="m570.3 894.63 6.71-.04 4.55.02 14.58-.1 7.6.12 3.21.08 13.56.1.12 6.29.07 6.38.09 12.66-12.58.11.1 12.73.15 12.62-12.74.08-7.38.07-5.16-.01-12.7.14-.18-12.8-6.29.04-5.92-.03-.02-6.36-.08-6.4 12.16.01.02-7.39.13-12.6z"/>
    <path region="19" short-name="10" long-name="State Senate District 10" value="1" d="m861.37 877.84 4.24-.18.05-2.13-.18-6 .4-1.25 1.15-.77.47-1.03-.1-1.95 2.14-.08 2.12-.06.24 8.37.42 13.16-.06 1.13-.45.1.09 3.25-1.58.06.03 1.03 1.36-.04-.53 1.08 2.74-.08.08-.1.03.08 4.41 2.45-.05.43-.84 2.42-.4.69-1.19.63-1.45.52.86 1.73-1.11.6-1.05.15-1.32-2.55-.82-.4-1.14-1.02-.59-.82-1.36-1.46-.69-1.01-2.65.07-.04-1.06-2.6.08-.06-1.44 1.63-.04-.13-.67-.46-.02-.04-1 2.1-.06-.01-.75.45-.1-.1-2.22-.8.02.08-1.76-.03-1.54 1.14-.06-.05-2.17-4.24.13z"/>
    <path region="20" short-name="34" long-name="State Senate District 34" value="1" d="m579.03 635.94 7.75-.06 5.12.02 19.3-.03 2.12.04 17.24-.01 10.13.06 10.28.19 7.05.17 7.9.1h3.68l6.23.08 11 .02 8.33.04h25.92l13.11-.17 8.69-.02-.05 6.22.02 18.56 13.06-.01.06 12.87-.06 7.89-.2 17.83-12.92-.17-15.34-.25-6.35-.05-.05 8.73-.1 9.97-.05 9.55v10.64l8.52.02.05 13.57 4.4-.27 8.55-.47v6.53l.1 6.4v13.74l.1 8.57 1.6-.09v4.3l-1.6.06-12.62-.04-8.9.07v1.55l-12.5.05-12.62-.01-.1 12.76-12.75-.13-12.7-.04-.05-.02.08-10.73.02-9.84.15-17.85h-1.1l.06-12.9-.1-12.94h-12.94l-4.26.02-8.61-.02-4.23-.03-8.65-.15-12.86-.07-3.85-.04h-21.95l-.03-18.07.04-7.85-.06-2.19v-10.7l.04-13-16.3-.02-9.38.2-.16-12.99.05-13 12.89-.05-.07-13.02-.11-9.7z"/>
    <path region="21" short-name="35" long-name="State Senate District 35" value="1" d="m778.94 710.63.33-1.02.73-.34.65.62-.2.8-.63-.1-.37.39zm-23.23-10.9 10.85.09.05.86.76 2.62 2.84 5.64.82 1.13 1.5 1.14 3.82 2.35.63.63.41-.05-.14-.93.4-.59.82-.03.23.58 1.3.75.63.1.19 1.23 1.55.34.48-.12 2.77.81.94.6 2.86 1.05.65.69 2.07 1.68.93 1.83.18.08.08 16.33-12.83-.01-.04 6.43.02 6.41-7.44-.07-1.1.05-3.38-.06.47.33-.53.62-.49-.42.4-.54h-2.8l.02 1 1.69-.14.35.36.01.77h-.62l-.35-.4-.02-.65-.6.15-1.73-.04-1.04.29-.74-.19-1.22-1.01-2.13-.17-.74-.35-1.22-.99-.93-.43-.66-.8.46-1.33-.65-.84.26-1.77-.55-.74-.9.08-.57-.63-1.88-1.15v-.8l-.94-.38-.5-.82.43-.9-.02-1.21-8.42-.1-12.99.08-8.52-.02v-10.64l.06-9.55.1-9.97.05-8.73 6.35.05 15.34.25z"/>
    <path region="22" short-name="15" long-name="State Senate District 15" value="1" d="m809.66 905.09.23 6.33.18 6.33-.07 2 .09 4.37.27 10.9.18 8.5-11.57.24-1.62-.09-.1.52.05 1.59-.94.01-.55.54-.7-.05-.27-.99-.84.12-.51.43-1.4.04-.17-2.08-6.7.18.24 11.6-12.38.27.03 1.06-4.4.12-.73.11-.28.4-.92.02-.66-.47-5.8.16-.15-5.26-.24-6.73-13.36.3-.23-12.9 7.73-.17 5.52-.16-.01-.43 6.1-.09 2.67-.08 2.91-.26 1.07.01-.32-11.4 1.89-.17 4.42-.18.04.64.53.41 1.09-.03v1.08h-.48l.04 1.07 1.55-.06.05 1.6-.28.52 1.3-.03v-.5l1.05.03-.03-.66 1.56.24-.1-5.38-.57-1.21.03-1.18 1.92-.54.02.37.85.02-.02-1.05.73.03.03-.6 1.14.01.64-.24.64-.65.5.53 5.1-.2-1.03-1.63-.02-1.02 1.95-.77h.83l-.08-4.98 4.82-.2z"/>
    <path region="23" short-name="18" long-name="State Senate District 18" value="1" d="m593.92 830.98 4.6-.12 8.01-.15-.27-12.1.06-5.07.02-8.26 5.86-.05 6.93-.1.03 3.15.02 9.5 12.76.01.01 12.8h12.81l.08 12.7-.15 12.82.08 14.93.07 7.74.11 7.25.17 8.5 7.09-.07 6.38-.04.05 8.63.04 1.06.14 10.6.64.15-.62 1.24.05 4.45.38-.5.5.02-.01 1.15-.85.69.07 4.48.1 13.08v5.94l-11.7-.04-8.44.05h-5.18l-12.6.14-12.7.04-.14-12.62-.11-12.73 12.58-.1-.09-12.67-.07-6.38-.12-6.28-13.56-.1-3.21-.09-7.6-.11-14.58.09-4.55-.02-6.72.05-10.59.08-3.47.05-.15-12.66 12.64-.23-.16-8.53-.03-4.2h7.97l4.77.06.07-12.74-.1-12.78 6.3-.02 6.41.01z"/>
    <path region="24" short-name="21" long-name="State Senate District 21" value="1" d="m644.84 843.3 12.78.04h12.82l12.66.03 5.48.05 14.75.04.01 1.51-1.32.95v1.33l.73.04-.02 2.6.39-.11 1.96.59.71.5.01 1.09-1.48-.01-.01 3.2 1.1.21.3-.18 1.26.1.01.94h1.57l13-.04-.03 12.12 11.25-.07.17 12.98-.01 12.84h-11.5v.38h-12.68l-12.76.02-12.75.07-8.47-.02-16.18-.08-6.38.04-7.09.07-.17-8.5-.1-7.25-.08-7.75-.08-14.92z"/>
    <path region="25" short-name="23" long-name="State Senate District 23" value="1" d="m807.42 841.06 2.1-.17 4.43-.11 6.27-.21-.01-.48 8.36-.24.14 4.04.55-.02 1.02-.57 1.6-.04.06 1.08 1.04-.07.28 8.56-4.63.18.28.44-.4 1-.11 1.95.4.35 1.93.53v.77l.86-.26 1.24 1.2-.14.8.63.7.22.76.1 2.8-.95-.12.02.68h-.66l.05 1.13-1.86.09-.23.53-1.58.05-.12-.51-7.09.27-.29.08-4.23.12.1 2.23-1.06.06.04 1.04 1.05-.04.18 3.18.53-.02.05 2.1-.49.09.07 1.52-1.4.09.05.9-.33.61-.6.11-.02 1.06.17.74-1.57.08.16 3.71-4.8.2.36 8.5-12.19.57-.3-6.45-.46-8.54-.4-6.92-.59-12.29-.19-4.55-.25-7.23-.15-5.66z"/>
    <path region="26" short-name="24" long-name="State Senate District 24" value="1" d="m806.83 815.2 3.1-.04 9.53-.2-.01-.8 8.6-.18 7.88-.18 8.5-.25 12.11-.46 11.47-.78 2.08-.19.45 13.07.11 2.38v2.47l.19 3.96.08 4.27 12.64-.25.18 6.62.1 2.05.12 4.35.15 4.3h-.35v1.12l-.8 1.09-3.19.1-.02-.96h-4.95l-.87-.2-.62.33-.1-2.2-1.84.13.29 9.64-2.12.06-.04-1.06-2.15.06-.03-.53h-1.02v.57l-1.06.02-.42-.22-.8.25-.46.6-1.16-1.44-.24-.1-3.33.09-.51-15.32-.53-.8-2.1.05-.06 1.07-1.55.03.04 1.08-1.64.25-.05-1.28-6.9.22.14 4.31-2.75.12-7.3.24-2.36.17-.28-8.56-1.04.07-.06-1.08-1.6.04-1.02.57-.55.02-.14-4.04-8.36.24.01.48-6.27.2-4.43.12-2.1.17-.3-12.85-.26-10.45z"/>
    <path region="27" short-name="2" long-name="State Senate District 2" value="1" d="m835 904.21 2-.17 3.06-.1-.08-3.18h.6l.26-1h1.31l.6.23.85.8 3.8-.09 1.62-.14v1.06l.67-.02.05 2.12 1.98-.05.05 1.05 2.35-.05 1.17 2.15-.58.32.31.59h-1.1l1.43 2.7-1.95 1.08.22.9-.25.68-.52.27-.39-.54-.67.16-.06.4-1.27.4-.18-.82-.31-.32-.53.45-.55-.08-1.79 2.86-1.57 1.02-.95.2-.14-.46-9.03.28-.03-1.06 2.11-.06-.14-5.28-2.14.05z"/>
    <path region="28" short-name="6" long-name="State Senate District 6" value="1" d="m834.33 884.41.24 7.1 5.22-.16-.56.27v.79l.6-.05.03 1.04h1.03l6.3-.19.2 7.49-3.8.1-.84-.81-.6-.22-1.31-.01-.25 1h-.6l.07 3.18-3.06.1-2 .17-5.28.17-.05-1.4 1.08-.04-.13-2.85-4.26.13v-2.1l-2.15.07-.07-2.1-1.13.02-.03.4-.83 1.66-.47-14.72 4.15-.15.03.62 5.11-.32 2.05.81z"/>
    <path region="29" short-name="29" long-name="State Senate District 29" value="1" d="m568.4 822.6.93.04.52-.35.42-.92.1-1.02 1.34-.6 1.28-.03 1.01-.68.92-.3 1.29-1.51 1.38-.27.93-.43.67-.54.65-1.05 2.1.05 1.32-.73h.53v.76h3.35l.39.28 1.04-.26 1.94.1.89 1.05.23.75.08 1.27 1.68.01.4 8.47.13 4.29-8.53-.03-7.4-.08v.46h-.77l-.36-.36-1.46.16-.6-.28-3.2-.07-1.06.1-.01.55-.8.12.2-.8-1.51-.04z"/>
    <path region="30" short-name="11" long-name="State Senate District 11" value="1" d="m871.66 864.39-.29-9.64 1.83-.14.1 2.2.63-.31.88.2 4.94-.02.02.97 3.18-.1.8-1.09v-1.11l.36-.01.02 2.14.18 6.46-2.16.01-1.16.15-.17.64.07 1.01-.75.03-.41.54-.25 3.53.32.45-.09 2.3.73.26-.86 2.17-1.01 2.19.54-.01.1 4.31-1.63.05.14 2.17-.05 1.39.07 2.14-.53.8-.72 2.19-1.32.06-1.17 2.04-.08.09-2.74.08.53-1.08-1.36.04-.03-1.03 1.58-.06-.09-3.25.45-.1.06-1.13-.42-13.16z"/>
    <path region="31" short-name="7" long-name="State Senate District 7" value="1" d="m833.26 852.83 2.35-.17 7.31-.24 2.75-.12.2 3.85.62 18.3-1.08-1.15.06.81.52.05.02.69-.86.27-.6-.9-1.29.05-.48.21.01 1.27-.53.57-.03 1.25-.47-.03.11.97 1-.7h1.15l.06.64h.52l.07 2.08 2.1-.06.35 10.64 1.46-.06.03 1.04-.82.04.78 1.03-1.38.05-6.3.2-1.03-.01-.04-1.04-.6.05v-.79l.57-.27-5.22.17-.24-7.1-.26-7.82-.36-9.79-.05-2.21h-.95l-.02-.67.95.12-.1-2.8-.22-.76-.63-.7.14-.8-1.24-1.2-.85.26-.01-.77-1.92-.53-.41-.35.11-1.94.4-1-.28-.45z"/>
    <path region="32" short-name="13" long-name="State Senate District 13" value="1" d="M832.7 864.6h.96l.05 2.21.36 9.79.26 7.81h-1.3l-2.06-.81-5.11.32-.03-.62-4.15.15.47 14.72.2 6.44-10.6.35-2.09.12-.47-12.56-.36-8.49 4.8-.2-.16-3.71 1.57-.08-.17-.74.02-1.06.6-.1.33-.62-.06-.9 1.4-.09-.06-1.52.49-.09-.05-2.1-.53.02-.18-3.18-1.05.04-.04-1.04 1.05-.06-.1-2.22 4.24-.13.3-.08 7.08-.27.12.51 1.58-.05.23-.53 1.86-.09-.05-1.13z"/>
    <path region="33" short-name="30" long-name="State Senate District 30" value="1" d="m541.97 792.04 1.07-.04 11.84-.05 12.77.13 12.84.21 9.94-.09-.3-.28v-1.66l.87-.22.76.32v-1.41l.58-.53h2.16l.02 1.07-.6 1.02.34 1.22-.2 1.32h-.6l-.08.5v9.28l.25.22.61 1.63-.3.68h3.8l8.6-.08-.02 8.26-.06 5.06.27 12.11-8.02.15-4.59.12-.14-4.29-.39-8.47-1.68-.01-.08-1.27-.23-.75-.9-1.06-1.93-.1-1.04.27-.39-.28h-3.35v-.76h-.53l-1.32.73-2.1-.05-.65 1.05-.67.54-.93.43-1.38.27-1.3 1.51-.9.3-1.02.68-1.28.03-1.34.6-.1 1.02-.42.92-.53.35-.91-.04-1.1-.72-.94-1.65.16-1.6-.91-1.02-.68-.43-.85.1-1.61.5-2.45-.2-1.32-.9-.44-.95-3 .03.04 2.13h-4.27l-8.62.1-.39-12-.05-3.15z"/>
    <path region="34" short-name="27" long-name="State Senate District 27" value="1" d="m768.47 789.9 6.57-.04 11.3-.14 7.45-.05v1.15l.76-.03.02 2.15-.76.12.03 5.28 5.17-.1-.51 1 .02 1.88 2.13-.68.51-.62.38.54.14 1.6-.74.01-.41-1.3-.42.36-1.48.5-.09.48 1.6-.03v.54l2.14-.01.07 3.13-1.6.02v1.1h-.51v.72l.55.16.01.61h1.06l.01.66 1-.01.56.49.11.55 1.02-.04.43.2.65-.3-.05-1.02 1.02.04.22 6.39.03 2.55.26 10.45-13.57.32-7.79.15-4.3.1-10.2.04-2.58.12-.3-13h.12l.05-13z"/>
    <path region="35" short-name="4" long-name="State Senate District 4" value="1" d="m810.07 917.75 12.65-.42-.1-3.23 8.48-.25.1 3.17 4.21-.11.33 12.68 2.07-.19-.04-2.11 6.31-.24-.12-4.2 2.33-.08.4.76.45.29 2.8-.05.6-.31.88-1.6 1.43-.07h2.22l-.4 3.46-.4 5.3.41 1.85.57 3.55.65 1.8-.22 1.13-.67 1.82-.49 2.15-1.14-.09-1.06.26-.62.48-.35-.6-1.23.39.37 1.56-.4.16-.54-1.02-.46-.15-.37.57-.57.3-.12 1.66.59 2.04-.1 1.1-.84.65-.48.14-1.1-.69-.3.25-.53-.4-.21-.64-1.19-.06.19-.5-1.54-1.24-.59.13-.31-1.02-.36-.15-.3-.73-.54.14-.18.5-.61-.3.13-.43-.9-.26-.06-.84-.28-.52-1.62-1.28-13.55.1.01.84-6.4.13-6.42.18-.18-8.48-.27-10.9-.1-4.39z"/>
    <path region="36" short-name="5" long-name="State Senate District 5" value="1" d="m809.66 905.09 2.1-.12 10.59-.36-.2-6.44.83-1.67.03-.39 1.13-.01.07 2.1 2.15-.08v2.1l4.26-.13.13 2.85-1.08.04.05 1.4 5.28-.17.21 6.35 2.14-.05.14 5.28-2.11.06.03 1.06-4.22.11-.09-3.17-8.47.25.1 3.23-12.66.42-.18-6.33z"/>
    <path region="37" short-name="22" long-name="State Senate District 22" value="1" d="m768.68 828.93 2.57-.1 10.2-.04 4.31-.11 7.79-.15 13.57-.32.3 12.85-12.76.4.15 5.66.25 7.23.2 4.55.59 12.29.39 6.92.45 8.54.31 6.45-8.64.4-2.18-.13-5.05.22-14.34.54-7.6.04-20-.14-6.26.01v-12.83l-.16-12.98-.35-11.58-.06-.95 12.23.17-.44-7.95-.41-5.49-.4-12.98 12.27-.18.52-.04z"/>
  </g>
</svg>