<svg viewBox="0 0 1000 1000" default-mode="split" auto-border-stroke-width="1" auto-border-stroke-width-limit=".5" original-source="['https://www2.census.gov/geo/tiger/GENZ2022/shp/cb_2022_us_sldl_500k.zip']" candidates='[{"id":"0", "name":"Democrats", "margins": [{ "color": "#1C408C" }, { "color": "#577CCC" }, { "color": "#8AAFFF" }, { "color": "#949BB3" }]},{"id":"1", "name":"Republicans", "margins": [{ "color": "#BF1D29" }, { "color": "#FF5865" }, { "color": "#FF8B98" }, { "color": "#CF8980" }]}]'>
    <g regions>
    <path region="0" short-name="41" long-name="State House District 41" value="2" d="M960.341,644.474L963.272,644.496L963.125,638.971L965.894,639.002L965.871,639.895L966.983,639.87L967.081,641.194L965.832,641.799L965.962,647.388L965.259,647.371L965.315,648.515L964.916,648.904L964.839,650.084L963.281,650.016L963.255,648.573L960.368,648.55Z"/>
<path region="1" short-name="7" long-name="State House District 7" value="2" d="M428.301,613.39L434.504,613.796L453.892,614.796L453.251,626.34L451.842,626.899L450.444,627.007L444.872,626.716L445.132,622.665L442.328,622.512L442.487,619.787L435.6,619.327L435.474,618.404L434.709,615.654L434.373,615.141L432.045,615.026L431.921,616.378L431.228,616.341L430.154,616.775Z"/>
<path region="2" short-name="15" long-name="State House District 15" value="2" d="M625.442,307.694L642.204,308.345L661.807,309.036L679.075,309.616L706.394,310.579L726.015,311.157L742.744,311.67L759.516,312.12L776.284,312.508L775.873,329.044L775.433,345.571L778.848,345.659L778.417,362.288L778.289,366.408L778.005,378.833L761.238,378.493L760.794,395.003L760.342,411.528L746.994,411.179L746.261,438.941L745.965,450.875L746.313,451.871L746.162,457.865L745.73,458.321L744.752,458.786L744.269,458.569L742.375,458.704L740.959,457.507L740.167,457.19L738.94,456.107L738.863,454.877L737.482,453.99L736.228,454.035L735.964,453.513L734.093,454.028L732.274,453.977L730.946,453.202L730.674,453.739L729.583,453.673L729.433,453.22L727.591,453.02L727.115,452.263L724.699,451.86L722.995,452.091L721.52,452.049L720.784,451.61L720.131,452.485L718.204,453.203L717.712,452.719L716.732,452.687L716.371,452.228L715.475,452.58L715.132,453.742L715.546,454.037L715.038,455.124L713.917,455.143L713.177,455.709L711.967,455.647L711.599,456.15L709.096,456.564L708.155,457.246L708.215,457.753L707.096,457.868L706.701,458.401L706.398,459.856L705.378,459.939L704.905,461.534L703.462,461.364L703.027,461.798L701.825,461.289L701.077,460.483L699.917,459.721L699.554,459.073L699.917,458.179L698.593,457.227L697.842,456.428L698.175,456.055L697.404,455.352L696.768,453.964L697.337,453.261L697.04,452.687L697.466,451.924L697.721,450.648L695.897,447.211L694.315,446.161L693.406,446.125L692.907,445.355L691.559,445.039L691.414,444.019L690.337,442.791L683.601,442.612L673.781,442.232L671.716,442.064L670.241,443.063L668.064,443.506L665.814,443.274L663.307,442.419L662.682,441.741L657.129,441.631L645.99,441.287L646.588,424.053L646.537,423.83L647.137,408.147L642.98,408L643.534,391.463L651.471,391.706L658.241,392.056L657.815,392.763L660.019,392.973L663.261,392.77L664.702,393.165L665.105,394.087L665.255,395.565L666.112,395.321L669.421,395.555L669.57,394.07L670.416,393.238L671.836,392.276L670.991,391.79L671.228,390.437L670.468,388.456L669.706,387.789L669.292,386.874L669.657,386.176L668.99,385.501L668.336,385.501L667.012,386.456L663.796,384.656L662.334,384.175L661.491,384.31L660.59,383.027L661.259,362.617L661.351,358.989L661.918,342.096L645.272,341.5L624.262,340.715L624.225,340.194L624.742,326.932L624.822,324.2Z"/>
<path region="3" short-name="31" long-name="State House District 31" value="2" d="M225.065,652.317L239.285,653.193L257.159,654.252L268.128,654.961L268.902,644.144L269.258,638.406L283.085,639.295L299.705,640.341L319.093,641.496L318.076,658.053L329.19,658.758L351.041,660.096L351.188,660.082L372.098,661.301L372.338,656.528L372.888,655.813L376.189,655.987L376.578,655.216L377.675,628.382L377.906,624.232L378.452,623.747L379.396,623.804L380.714,622.961L380.139,622.155L380.791,621.618L380.889,620.752L381.819,619.786L381.89,618.556L380.68,617.627L381.078,617.231L383.39,617.622L386.499,617.722L389.484,617.411L390.297,617.494L392.623,618.317L395.063,618.42L397.442,618.272L400.992,618.432L405.404,618.126L409.727,618.848L416.965,619.125L421.215,619.197L421.382,617.81L424.133,617.925L424.485,619.544L425.202,620.446L425.695,621.743L426.531,622.542L428.733,623.649L433.323,623.8L434.269,625.262L436.724,628.093L437.678,628.873L438.56,630.855L438.569,630.876L437.975,630.951L436.668,630.43L432.523,627.02L432.198,625.641L431.572,624.78L429.159,624.009L429.166,625.052L425.104,624.921L425.039,626.232L426.405,626.331L426.529,627.145L427.406,627.281L427.13,630.504L429.951,630.625L429.939,631.741L431.504,632.304L431.61,630.973L432.097,630.651L433.107,632.604L433.468,634.27L434.054,635.929L434.371,637.615L434.239,638.483L434.756,639.382L436.102,644.745L438.535,644.878L439.63,644.798L441.054,644.56L443.082,644.761L443.746,646.295L443.527,647.48L443.055,647.928L441.394,648.086L440.445,648.645L441.079,651.051L441.425,653.27L441.888,653.901L442.775,654.337L443.904,654.245L445.719,653.448L446.775,653.377L447.822,654.948L447.922,656.524L447.331,657.175L446.893,658.508L447.046,659.171L447.949,660.049L449.103,660.55L451.225,660.309L452.598,659.808L456.173,657.446L459.359,656.422L459.834,656.482L460.715,656.777L460.956,657.299L460.577,659.195L459.131,660.571L458.09,662.062L457.447,664.044L457.618,665.012L460.282,667.417L462.246,669.532L465.289,671.31L467.502,672.222L469.646,673.369L470.528,674.594L470.491,675.277L469.869,676.363L469.062,676.472L467.838,675.844L467.183,676.083L466.959,677.183L468.281,679.314L472.212,685.035L471.966,686.666L471.273,687.697L469.595,689.074L467.43,690.211L466.27,692.619L465.574,695.23L465.209,697.837L464.365,700.46L464.371,702.799L465.43,705.629L466.331,707.321L467.753,711.452L468.852,714.016L469.773,717.549L469.838,718.683L469.725,724.103L468.216,728.114L467.107,730.131L465.901,731.684L465.142,733.066L464.945,734.111L465.138,734.811L466.777,737.824L467.796,739.349L467.805,740.826L467.397,742.295L466.079,745.135L464.956,747.152L463.887,748.04L462.675,749.401L462.037,750.463L459.468,754.213L458.828,755.313L457.777,757.623L457.35,759.205L457.311,760.945L457.603,762.315L458.859,764.542L459.077,765.819L458.996,768.04L458.467,769.856L458.437,771.025L458.664,772.954L459.414,775.389L460.393,777.24L461.486,778.675L462.982,781.165L463.56,781.922L464.374,783.899L465.316,785.441L466.63,786.464L469.093,787.234L470.253,789.319L471.559,792.357L472.028,793.793L471.838,795.937L471.219,797.345L471.163,798.145L455.713,797.404L443.278,796.719L436.75,796.442L420.677,795.606L414.616,795.313L408.598,794.939L392.495,794.128L378.823,793.375L369.787,792.817L357.275,792.138L356.144,792.041L349.985,791.787L331.658,790.663L315.046,789.614L309.498,789.33L287.698,787.925L276.104,787.22L272.772,786.991L274.141,766.197L276.031,737.124L276.959,722.146L256.52,720.864L235.417,719.344L220.565,718.447L205.17,717.559L187.309,716.381L188.228,699.754L188.289,699.138L189.313,683.092L197.574,683.737L205.89,684.259L219.883,685.058L222.827,685.254L223.984,668.62Z"/>
<path region="4" short-name="32" long-name="State House District 32" value="2" d="M438.569,630.876L438.56,630.855L440.665,630.782L441.062,630.242L441.116,629.211L441.92,629.268L441.858,630.299L442.276,631.326L443.878,631.431L443.974,629.988L445.96,630.096L445.745,635.026L445.242,635.837L444.317,635.761L444.114,639.233L441.337,639.094L441.58,634.947L441,634.912L441.05,633.535L439.164,633.359L438.37,633.06L438.744,631.403Z"/>
<path region="5" short-name="33" long-name="State House District 33" value="2" d="M264.346,492.212L274.779,493.003L278.187,493.087L278.141,493.779L286.42,494.35L286.376,495.063L291.929,495.417L291.886,496.653L298.772,497.097L298.672,498.618L302.924,498.877L312.702,492.305L314.251,492.605L315.818,492.204L317.789,491.032L318.835,490.644L325.338,486.626L326.427,486.129L329.113,485.391L331.204,485.109L332.78,485.397L335.438,486.2L338.368,487.569L339.232,487.766L340.346,487.545L342.315,487.725L346.739,486.98L349.696,486.049L350.474,485.534L355.439,484.253L357.299,483.336L358.318,483.335L359.769,483.658L363.171,482.375L364.178,482.2L365.516,482.333L366.56,482.793L367.866,484.258L376.188,478.204L388.656,478.87L388.477,483.466L388.802,484.399L392.496,487.722L395.79,490.553L397.75,493.147L400.837,499.712L401.187,500.237L404.631,504.162L405.194,505.199L405.329,506.177L405.167,509.144L405.648,511.27L406.431,513.105L407.465,518.618L407.377,521.028L408.138,521.848L409.779,525.085L409.931,526.104L409.789,528.642L409.98,529.924L411.509,533.407L412.598,534.43L415.065,534.456L415.65,535.168L417.202,535.257L417.114,536.64L417.86,536.682L417.796,538.057L423.213,538.338L423.909,538.629L424.678,538.407L448.148,539.568L452.346,539.756L451.948,548.04L451.069,564.668L447.922,564.512L446.804,563.85L446.467,563.021L445.284,563.035L445.216,564.397L426,563.447L422.755,563.241L423.351,564.218L424.297,564.974L425.295,566.748L425.79,569.803L425.788,575.545L425.955,576.3L427.2,578.818L430.112,582.157L431.269,583.283L432.317,584.747L432.967,586.506L432.661,589.57L432.273,590.899L430.37,593.174L429.568,593.653L427.477,594.426L425.959,595.302L425.368,595.861L424.514,597.645L424.483,599.273L425.047,600.227L427.707,602.517L428.091,602.967L428.414,604.21L428.574,606.753L428.401,608.401L427.775,611.621L428.301,613.39L430.154,616.775L431.685,619.568L433.323,623.8L428.733,623.649L426.531,622.542L425.695,621.743L425.202,620.446L424.485,619.544L424.133,617.925L421.382,617.81L421.215,619.197L416.965,619.125L409.727,618.848L405.404,618.126L400.992,618.432L397.442,618.272L395.063,618.42L392.623,618.317L390.297,617.494L389.484,617.411L386.499,617.722L383.39,617.622L381.078,617.231L378.192,617.471L378.375,613.403L379.318,594.589L366.064,593.831L352.801,593.055L329.915,591.709L302.137,590.009L299.957,589.855L272.531,588.129L266.103,587.696L267.946,560.101L268.313,554.443L270.09,527.08L270.435,521.639L262.456,521.121L262.964,512.959L263.369,507.353Z"/>
<path region="6" short-name="37" long-name="State House District 37" value="2" d="M179.238,593.644L179.035,596.399L181.713,596.661L181.619,597.97L183.099,598.063L182.82,601.928L180.048,601.446L177.284,601.225L176.094,601.218L174.46,601.564L174.678,598.688L172.055,598.647L172.441,593.142Z"/>
<path region="7" short-name="39" long-name="State House District 39" value="2" d="M11.295,633.808L12.573,618.592L14.273,597.731L16.102,576.7L17.779,557.737L18.349,550.555L19.212,541.264L20.541,524.467L21.582,512.81L22.416,502.695L39.127,504.148L55.538,505.549L62.523,506.184L73.052,507.067L79.242,507.702L93.176,508.799L93.446,508.794L124.077,511.239L144.033,512.672L154.529,513.475L153.676,524.639L152.218,543.942L151.007,560.475L153.781,560.597L154.047,557.885L157.749,558.178L158.158,557.838L158.269,556.237L160.144,554.868L160.299,554.444L159.791,552.908L160.072,552.006L160.082,550.031L176.747,551.203L176.702,551.879L177.6,553.126L177.791,554.059L184.852,554.552L185.675,553.781L185.495,551.818L204.364,553.096L204.567,550.337L207.772,550.62L212.895,550.951L215.711,551.237L220.987,551.453L226.788,551.81L236.754,552.494L239.793,552.651L251.614,553.461L259.908,553.911L268.313,554.443L267.946,560.101L265.774,559.285L264.165,560.017L263.906,560.536L261.28,561.701L260.62,561.417L260.04,562.283L259.279,562.346L256.604,562.145L256.221,568.879L251.924,570.71L251.783,572.503L251.314,572.923L249.02,572.747L248.756,572.06L247.387,572.643L244.821,572.462L244.99,569.709L242.216,569.528L241.476,580.543L232.121,579.902L229.951,580.994L229.85,582.542L224.657,582.189L224.476,584.949L204.409,583.568L203.989,583.568L192.345,582.732L191.74,591.771L189.093,591.608L189.316,588.82L186.547,588.623L186.351,591.368L181.037,590.995L180.794,591.135L180.615,593.745L179.238,593.644L172.441,593.142L172.055,598.647L174.678,598.688L174.46,601.564L176.094,601.218L177.284,601.225L177.233,602.858L178.551,603.21L178.416,604.681L180.355,604.818L180.22,606.883L181.009,607.639L182.358,607.739L182.3,609.27L185.074,609.445L199.63,610.515L204.331,611.579L208.311,611.776L207.966,616.754L208.113,618.096L207.804,619.599L207.796,621.205L208.675,623.252L208.773,624.456L207.798,640.014L207.197,650.501L207.349,651.122L225.065,652.317L223.984,668.62L222.827,685.254L219.883,685.058L205.89,684.259L197.574,683.737L189.313,683.092L188.289,699.138L188.228,699.754L187.309,716.381L205.17,717.559L220.565,718.447L235.417,719.344L256.52,720.864L276.959,722.146L276.031,737.124L274.141,766.197L272.772,786.991L272.512,786.983L248.998,785.454L228.832,784.09L209.13,782.688L199.138,782.035L185.722,781.018L178.617,780.59L163.546,779.517L149.875,778.533L132.913,777.227L117.79,776.1L101.415,774.883L90.084,774.008L89.238,774.01L84.466,773.549L64.828,772.024L62.382,771.8L51.232,770.914L40.307,770.022L0,766.656L0.706,756.156L2.853,732.538L2.939,732.342L5.427,702.738L6.824,686.177L7.017,682.919L9.194,658.922Z"/>
<path region="8" short-name="45" long-name="State House District 45" value="2" d="M933.722,563.877L950.369,564.052L962.95,564.372L964.758,564.297L965.328,565.058L964.961,565.616L964.21,564.912L963.504,565.599L964.625,566.037L964.895,566.641L964.544,567.311L964.7,567.987L964.391,568.819L965.088,569.456L964.334,569.955L964.64,571.052L964.038,572.28L965.304,572.973L965.593,573.687L964.758,573.952L964.849,574.751L966.205,574.6L965.545,575.92L965.945,576.572L965.783,577.989L966.515,578.31L965.809,579.026L965.712,580.213L964.24,580.457L963.758,581.04L964.777,581.208L965.212,581.828L964.494,582.571L965.097,582.873L965.912,584.718L965.595,586.236L964.351,586.147L965.866,587.357L966.212,588.083L965.933,588.862L966.703,588.965L966.811,589.917L966.129,590.709L966.623,591.077L966.78,592.91L966.192,593.942L966.667,594.822L965.01,595.54L965.684,596.301L966.083,598.166L965.576,599.233L966.51,599.951L966.054,600.489L966.496,601.049L965.793,602.607L967.125,602.502L966.642,603.355L965.631,603.354L966.818,604.988L965.308,605.365L964.73,606.199L964.347,607.859L963.791,608.103L964.359,608.946L964.826,608.771L965.683,610.179L965.74,612.494L966.082,614.132L965.633,615.374L966.11,616.025L967.386,616.715L968.508,616.336L969.339,616.439L968.261,618.144L968.714,618.558L968.902,620.423L969.758,620.45L969.944,621.751L969.706,623.507L970.589,623.381L971.691,623.925L971.895,623.067L973.665,622.355L974.226,623.104L974.01,623.676L974.769,624.294L973.643,625.145L974.731,626.185L973.664,626.236L973.261,627.55L971.635,627.554L971.647,626.599L968.863,626.629L968.806,630.787L966.505,630.756L963.385,630.711L963.177,633.442L959.101,633.357L954.903,633.136L954.924,631.707L954.434,630.595L951.921,630.379L952.026,627.603L952.372,614.056L949.597,613.977L933.131,613.812L933.433,597.085L933.549,580.457L933.641,569.451Z"/>
<path region="9" short-name="5" long-name="State House District 5" value="2" d="M388.143,354.669L389.221,354.968L390.928,354.844L390.872,356.275L392.282,356.316L393.607,357.334L393.435,360.416L390.609,360.974L390.499,363.093L384.902,362.764L385.067,360.011L384.517,359.665L384.667,357.853L385.185,356.01L388.069,355.923Z"/>
<path region="10" short-name="19" long-name="State House District 19" value="2" d="M776.284,312.508L793.035,313.003L793.432,296.522L793.851,279.893L790.687,279.821L791.078,263.327L791.448,247.768L791.511,244.016L791.742,235.882L792.062,226.203L825.314,226.914L842.034,227.237L858.74,227.546L875.427,227.835L896.712,228.169L917.276,228.443L916.658,228.889L916.826,229.496L917.517,229.895L916.547,230.632L916,231.826L916.065,235.106L917.08,235.367L916.466,238.473L917.425,238.862L917.361,240.239L917.895,241.32L918.727,241.339L918.226,243.345L919.312,244.382L919.095,245.992L919.722,247.046L921.417,247.801L921.993,248.62L921.437,249.208L920.458,249.124L920.999,250.084L920.842,251.305L922.006,252.019L923.249,251.944L923.17,252.787L922.083,253.773L921.888,254.493L923.239,254.592L923.273,255.696L923.994,257.029L923.484,257.922L923.898,259.3L922.525,260.215L922.59,260.807L923.363,261.853L923.116,262.739L921.959,263.325L923.806,264.27L925.758,264.517L925.751,265.361L924.829,265.579L923.14,266.35L923.533,267.027L924.312,266.35L925.245,266.563L925.134,267.303L924.113,267.229L924.119,268.092L925.923,268.486L925.599,269.321L925.856,269.881L926.817,269.915L926.989,270.549L925.843,270.968L927.297,273.138L927.12,273.871L926.141,274.678L926.848,276.026L928.243,276.066L928.392,277.644L927.721,278.484L928.275,279.109L929.241,279.121L929.186,280.02L928.365,280.66L929.695,281.613L930.623,283.476L931.766,284.167L931.465,284.601L930.415,284.902L930.461,285.355L931.768,287.221L933.962,288.281L933.791,289.078L932.761,289.224L932.99,291.091L932.111,292.77L932.873,292.74L933.015,293.426L932.219,294.381L931.912,295.569L930.892,296.172L931.657,297.244L931.682,298.432L931.144,298.853L929.879,298.193L928.932,298.5L928.922,299.047L930.273,300.496L929.804,301.17L929.005,300.313L928.409,300.753L929.026,301.354L928.614,302.052L927.059,301.8L926.449,302.151L926.635,302.983L928.019,302.901L928.361,303.384L927.183,304.888L926.26,304.929L926.042,305.717L926.993,305.701L927.453,306.323L927.266,307.667L926.552,308.172L925.267,307.914L925.039,308.527L926.39,308.95L926.603,309.388L926.109,310.711L923.633,311.154L923.056,311.656L923.455,312.296L924.283,312.677L926.802,312.677L927.786,313.246L927.445,313.826L925.538,313.831L924.682,313.262L924.219,314.192L925.014,315.692L927.219,316.633L927.202,317.472L925.77,317.949L925.607,318.962L926.128,319.864L927.148,319.885L927.934,319.389L929.101,319.549L928.999,320.238L927.603,321.361L926.198,321.283L926.198,323.183L926.87,324.033L928.429,325.035L928.42,325.784L927.465,325.845L927.377,326.477L926.691,326.803L925.167,327.049L924.623,327.372L924.697,328.139L925.474,328.319L927.317,327.856L928.818,328.201L928.736,329.008L927.132,328.388L926.323,329.122L927.098,330.536L928.21,330.46L928.832,331.135L928.716,332.322L927.935,333.294L926.278,334.193L925.959,334.73L926.483,335.332L927.169,335.243L928.024,334.35L929.047,334.401L929.383,335.024L929.273,336.212L928.38,336.671L927.494,336.209L926.629,336.38L926.95,337.318L928.97,338.155L929.521,339.13L929.054,339.534L928.098,338.612L927.222,338.476L925.858,338.858L925.351,339.235L925.542,340.076L926.24,340.051L926.815,339.144L928.32,340.779L928.333,341.338L926.164,343.18L925.486,343.132L924.364,343.538L925.068,344.331L924.973,345.261L925.818,345.908L926.624,346.067L927.668,345.636L927.887,346.239L926.998,346.669L927.464,347.604L927.246,348.203L925.893,348.054L925.246,348.261L925.145,349.439L926.039,350.03L926.62,351.218L927.58,351.631L927.036,352.635L927.146,353.174L928.687,353.491L928.896,354.323L927.862,356.301L929.347,356.409L929.946,356.696L930.076,357.419L927.837,358.114L927.288,359.31L927.828,359.894L928.701,359.348L929.31,359.736L928.715,360.733L928.965,361.146L930.458,362.053L930.161,362.791L928.499,361.827L927.219,363.329L927.538,364.053L928.864,363.157L929.271,363.503L929.958,365.294L926.716,365.272L912.168,364.99L901.673,364.838L895.58,364.613L895.736,350.812L895.679,348.05L878.999,347.772L862.314,347.481L861.999,364.097L861.697,380.638L844.913,380.328L828.204,380.005L814.311,379.743L797.491,379.343L794.719,379.307L786.506,379.053L778.005,378.833L778.289,366.408L778.417,362.288L778.848,345.659L775.433,345.571L775.873,329.044Z"/>
<path region="11" short-name="26" long-name="State House District 26" value="2" d="M23.527,489.973L25.692,465.933L27.374,446.667L29.406,423.486L30.422,412.835L30.478,411.888L31.465,401.639L33.301,376.225L35.348,377.206L36.097,377.779L36.913,379.686L37.107,381.26L37.814,382.147L38.622,382.097L39.909,381.409L40.438,380.667L40.499,379.432L41.198,379.005L43.036,379.065L44.641,379.926L46.069,381.192L46.847,382.308L47.605,383.823L48.712,385.19L51.897,384.429L52.907,384.379L54.609,383.566L55.491,382.537L56.386,379.709L57.574,378.44L57.484,377.173L56.699,375.785L57.394,374.619L57.841,374.655L61.056,377.795L61.406,378.385L61.308,380.323L60.839,381.579L61.439,381.844L62.358,381.401L64.677,379.193L65.27,378.143L66.164,375.677L66.208,372.961L65.714,371.394L66.171,369.159L66.952,367.653L67.812,366.994L69.556,367.712L71.373,370.388L72.279,370.935L75.161,369.602L76.725,368.636L77.251,368.043L77.569,366.65L77.165,365.853L76.172,365.282L73.866,362.923L73.472,362.097L73.777,361.006L74.517,360.628L76.512,359.079L77.26,358.296L80.187,356.751L81.848,356.256L83.599,356.413L84.696,356.964L86.058,358.238L87.226,358.733L88.026,358.778L89.144,358.269L90.911,356.777L91.848,355.424L93.04,354.739L94.24,355.198L94.424,356.728L93.505,357.424L92.047,357.975L91.371,358.474L91.364,359.371L93.525,362.35L94.072,362.814L96.13,363.857L98.654,364.096L98.806,364.471L98.13,365.944L97.159,366.898L95.159,368.209L94.015,369.205L93.477,370.098L93.339,371.977L93.634,372.516L95.184,373.748L96.749,374.159L98.025,374.28L100.025,374.114L100.813,374.654L101.754,377.363L102.487,378.93L103.538,380.102L104.134,380.282L105.628,380.114L106.965,379.165L108.24,377.628L109.202,376.959L111.301,376.36L112.639,375.357L113.383,375.148L115.065,375.547L117.392,377.008L119.495,377.688L120.379,377.68L122.543,377.237L127.07,375.449L128.857,375.167L131.128,375.857L132.162,375.23L132.713,374.318L133.205,372.466L133.695,372.007L135.478,371.762L137.3,372.379L138.166,372.426L138.998,371.898L139.751,371.039L140.071,369.727L139.562,368.581L138.929,368.037L137.081,367.264L136.81,366.239L139.103,363.203L140.504,361.84L142.413,359.702L144.042,358.562L146.224,358.925L149.827,358.812L151.377,358.502L153.177,357.786L154.001,357.849L156.421,357.343L157.737,357.58L158.31,358.124L158.338,359.109L157.953,361.034L158.961,361.629L161.119,360.379L164.371,360.104L166.527,360.195L168.868,361.042L169.534,361.026L170.869,360.442L173.597,360.236L176.022,360.555L177.957,361.606L179.097,363.382L180.203,363.818L181.88,363.936L183.796,363.222L186.243,361.538L187.505,361.458L188.751,361.968L190.605,363.036L192.015,364.312L194.787,365.413L196.296,365.485L197.558,365.071L200.124,363.617L201.199,363.977L202.804,365.046L203.642,366.489L203.338,368.5L202.903,369.46L200.81,370.271L200.728,370.72L203.828,371.9L207.629,372.245L209.476,373.182L210.968,373.483L212.161,374.095L212.662,374.749L212.707,376.298L212.394,378.13L211.73,379.604L212.448,381.181L213.3,381.929L215.198,382.469L217.094,381.903L218.342,380.94L219.375,380.999L220.411,382.809L220.209,386.149L220.333,387.124L220.789,387.725L223.436,389.323L225.447,390.12L225.9,390.555L200.277,388.673L195.947,388.39L195.69,392.462L195.416,395.129L194.172,413.486L192.699,433.588L191.611,450.12L190.391,465.265L191.803,464.631L192.876,464.748L193.879,465.324L194.845,466.645L195.932,466.12L195.128,467.98L195.629,468.533L196.56,468.66L197.713,468.483L197.983,468.892L197.728,470.783L201.016,468.693L202.024,469.335L204.202,472.918L203.571,473.726L202.331,474.154L201.791,475.353L202.259,476.98L203.435,478.669L204.045,479.242L205.52,478.882L207.331,477.565L208.375,476.49L208.898,476.507L209.65,477.852L210.399,477.775L213.5,476.045L214.774,476.221L215.373,476.927L215.644,478.567L216.472,479.334L219.497,480.326L221.267,481.061L223.438,482.169L224.018,483.529L224.697,483.831L227.513,482.494L229.7,483.077L231.147,484.008L231.558,483.799L231.049,492.687L233.84,492.792L233.762,493.768L241.986,494.132L242.165,492.765L253.238,493.563L253.28,492.093L258.456,492.447L261.523,492.743L261.585,492.03L264.346,492.212L263.369,507.353L262.964,512.959L262.456,521.121L270.435,521.639L270.09,527.08L268.313,554.443L259.908,553.911L251.614,553.461L239.793,552.651L236.754,552.494L226.788,551.81L220.987,551.453L215.711,551.237L212.895,550.951L207.772,550.62L204.567,550.337L204.364,553.096L185.495,551.818L185.675,553.781L184.852,554.552L177.791,554.059L177.6,553.126L176.702,551.879L176.747,551.203L160.082,550.031L160.072,552.006L159.791,552.908L160.299,554.444L160.144,554.868L158.269,556.237L158.158,557.838L157.749,558.178L154.047,557.885L153.781,560.597L151.007,560.475L152.218,543.942L153.676,524.639L154.529,513.475L144.033,512.672L124.077,511.239L93.446,508.794L93.176,508.799L79.242,507.702L73.052,507.067L62.523,506.184L55.538,505.549L39.127,504.148L22.416,502.695L23.198,494.167Z"/>
<path region="12" short-name="8" long-name="State House District 8" value="2" d="M451.069,564.668L450.178,581.289L449.573,595.132L449.381,597.916L468.885,598.947L471.557,599.124L470.553,615.649L487.169,616.604L486.239,633.138L502.868,633.945L519.488,634.799L536.203,635.581L535.148,653.901L534.825,660.375L534.343,668.774L542.353,669.187L556.224,669.785L555.458,686.838L554.098,717.308L554.07,717.392L553.388,733.717L553.311,736.669L558.41,736.944L557.976,746.851L557.914,747.194L557.552,757.532L557.485,757.899L556.511,780.057L555.515,802.253L544.071,801.751L530.287,801.101L516.696,800.445L502.822,799.746L500.24,799.567L484.72,798.821L482.023,798.66L472.844,798.229L471.163,798.145L471.219,797.345L471.838,795.937L472.028,793.793L471.559,792.357L470.253,789.319L469.093,787.234L466.63,786.464L465.316,785.441L464.374,783.899L463.56,781.922L462.982,781.165L461.486,778.675L460.393,777.24L459.414,775.389L458.664,772.954L458.437,771.025L458.467,769.856L458.996,768.04L459.077,765.819L458.859,764.542L457.603,762.315L457.311,760.945L457.35,759.205L457.777,757.623L458.828,755.313L459.468,754.213L462.037,750.463L462.675,749.401L463.887,748.04L464.956,747.152L466.079,745.135L467.397,742.295L467.805,740.826L467.796,739.349L466.777,737.824L465.138,734.811L464.945,734.111L465.142,733.066L465.901,731.684L467.107,730.131L468.216,728.114L469.725,724.103L469.838,718.683L469.773,717.549L468.852,714.016L467.753,711.452L466.331,707.321L465.43,705.629L464.371,702.799L464.365,700.46L465.209,697.837L465.574,695.23L466.27,692.619L467.43,690.211L469.595,689.074L471.273,687.697L471.966,686.666L472.212,685.035L468.281,679.314L466.959,677.183L467.183,676.083L467.838,675.844L469.062,676.472L469.869,676.363L470.491,675.277L470.528,674.594L469.646,673.369L467.502,672.222L465.289,671.31L462.246,669.532L460.282,667.417L457.618,665.012L457.447,664.044L458.09,662.062L459.131,660.571L460.577,659.195L460.956,657.299L460.715,656.777L459.834,656.482L460.297,648.405L454.747,648.112L455.082,642.595L452.293,642.436L453.142,627.938L451.756,627.525L450.422,627.458L450.444,627.007L451.842,626.899L453.251,626.34L453.892,614.796L434.504,613.796L428.301,613.39L427.775,611.621L428.401,608.401L428.574,606.753L428.414,604.21L428.091,602.967L427.707,602.517L425.047,600.227L424.483,599.273L424.514,597.645L425.368,595.861L425.959,595.302L427.477,594.426L429.568,593.653L430.37,593.174L432.273,590.899L432.661,589.57L432.967,586.506L432.317,584.747L431.269,583.283L430.112,582.157L427.2,578.818L425.955,576.3L425.788,575.545L425.79,569.803L425.295,566.748L424.297,564.974L423.351,564.218L422.755,563.241L426,563.447L445.216,564.397L445.284,563.035L446.467,563.021L446.804,563.85L447.922,564.512Z"/>
<path region="13" short-name="25" long-name="State House District 25" value="2" d="M903.686,746.401L903.895,729.638L904.088,720.18L904.131,715.925L904.454,696.505L904.662,679.996L920.929,680.161L937.409,680.286L951.424,680.364L968.208,680.532L968.4,680.506L969.565,680.726L970.121,680.518L970.263,681.289L969.84,682.645L971.363,682.276L971.155,683.663L971.753,684.532L970.952,684.821L971.74,685.624L971.812,686.922L972.402,686.557L972.852,687.362L973.709,687.219L973.779,688.866L974.502,689.775L974.367,690.884L975.087,691.006L975.474,692.648L974.902,694.321L975.186,694.802L974.734,695.993L975.834,697.696L975.487,699.045L975.444,700.461L976.35,700.89L975.935,701.696L976.63,703.369L976.577,704.109L976.059,705.255L976.568,706.375L976.317,707.02L976.641,707.694L976.116,708.322L976.826,708.854L977.582,710.029L977.573,710.87L978.439,711.233L979.338,712.208L978.647,712.785L979.573,713.192L979.227,715.18L978.337,715.19L978.625,717.015L979.886,717.921L980.326,719.164L980.943,719.472L980.447,720.967L980.648,721.335L981.941,720.461L982.133,721.522L981.08,721.415L981.371,722.275L982.776,721.909L982.395,722.878L982.671,723.626L983.441,723.202L983.902,723.783L984.675,725.577L984.323,726.272L985.255,727.169L985.031,727.655L985.517,729.588L986.77,730.588L986.943,731.245L988.459,731.948L987.858,732.992L988.229,734.148L989.842,733.795L990.466,734.408L992.097,735.122L991.527,735.989L992.783,736.869L993.161,737.679L994.244,738.32L994.08,740.179L994.614,740.558L993.739,743.371L994.541,744.207L993.504,744.942L994.587,745.49L994.749,746.795L994.122,747.613L994.763,748.392L994.578,750.072L994.184,751.178L994.872,751.72L994.781,752.757L995.323,753.573L996.119,753.953L994.376,754.821L994.245,756.196L994.433,757.767L995.206,759.601L995.049,760.418L995.85,761.19L995.54,762.174L996.159,762.294L996.076,763.62L995.706,763.995L995.581,765.062L995.177,766.019L995.755,766.393L995.579,767.056L996.75,767.623L996.683,768.512L997.186,770.84L996.747,773.133L997.364,773.99L998.172,776.073L998.023,777.25L998.334,778.468L999.269,779.085L998.38,779.437L999.402,781.307L999.726,782.802L999.646,784.278L1000,785.344L999.509,787.618L999.658,789.011L999.109,790.812L998.391,791.575L997.395,794.157L996.808,796.269L997.287,798.252L997.063,799.888L997.359,800.981L997.496,805.214L997.749,808.404L998.412,809.61L998.475,810.948L998.933,811.851L998.609,813.846L988.531,813.767L980.212,813.615L968.157,813.51L966.332,813.577L940.47,813.28L940.24,813.367L926.494,813.069L920.91,813.14L909.772,813.027L892.962,812.812L876.079,812.548L872.529,794.242L889.139,797.667L898.802,799.734L905.754,801.158L905.829,793.455L906.135,774.06L906.405,754.777L906.498,746.446Z"/>
<path region="14" short-name="2" long-name="State House District 2" value="2" d="M48.836,186.154L58.901,187.071L73.794,188.307L89.652,189.64L106.278,191.015L123.028,192.377L134.392,193.288L136.941,193.365L156.466,194.872L173.217,196.14L189.904,197.38L206.61,198.606L223.273,199.825L241.356,201.121L256.636,202.195L282.459,203.965L290.028,204.411L306.654,205.436L305.376,225.331L304.295,241.756L292.459,241.003L287.637,240.671L286.521,257.125L276.162,256.45L274.856,275.682L273.96,289.406L257.206,288.285L256.15,304.217L256.144,304.796L255.03,321.262L262.03,321.73L260.89,338.561L244.232,337.444L227.562,336.286L220.317,335.738L209.428,335.017L197.139,334.067L194.242,333.869L193.055,350.377L192.074,364.058L192.015,364.312L190.605,363.036L188.751,361.968L187.505,361.458L186.243,361.538L183.796,363.222L181.88,363.936L180.203,363.818L179.097,363.382L177.957,361.606L176.022,360.555L173.597,360.236L170.869,360.442L169.534,361.026L168.868,361.042L166.527,360.195L164.371,360.104L161.119,360.379L158.961,361.629L157.953,361.034L158.338,359.109L158.31,358.124L157.737,357.58L156.421,357.343L154.001,357.849L153.177,357.786L151.377,358.502L149.827,358.812L146.224,358.925L144.042,358.562L142.413,359.702L140.504,361.84L139.103,363.203L136.81,366.239L137.081,367.264L138.929,368.037L139.562,368.581L140.071,369.727L139.751,371.039L138.998,371.898L138.166,372.426L137.3,372.379L135.478,371.762L133.695,372.007L133.205,372.466L132.713,374.318L132.162,375.23L131.128,375.857L128.857,375.167L127.07,375.449L122.543,377.237L120.379,377.68L119.495,377.688L117.392,377.008L115.065,375.547L113.383,375.148L112.639,375.357L111.301,376.36L109.202,376.959L108.24,377.628L106.965,379.165L105.628,380.114L104.134,380.282L103.538,380.102L102.487,378.93L101.754,377.363L100.813,374.654L100.025,374.114L98.025,374.28L96.749,374.159L95.184,373.748L93.634,372.516L93.339,371.977L93.477,370.098L94.015,369.205L95.159,368.209L97.159,366.898L98.13,365.944L98.806,364.471L98.654,364.096L96.13,363.857L94.072,362.814L93.525,362.35L91.364,359.371L91.371,358.474L92.047,357.975L93.505,357.424L94.424,356.728L94.24,355.198L96.334,355.313L96.576,352.592L97.967,352.27L98.172,349.844L96.056,352.012L95.202,351.807L95.909,342.883L96.542,334.64L94.274,334.46L93.226,333.696L89.353,333.515L87.972,333.976L84.973,333.773L83.297,333.509L79.349,333.24L78.377,333.699L77.351,335.459L76.329,335.838L75.19,335.871L74.466,336.266L73.914,337.307L73.603,341.021L73.569,343.614L74.072,344.679L75.37,345.297L75.996,346.247L75.889,349.129L77.017,351.183L76.927,352.268L75.613,352.236L58.933,350.83L40.05,349.246L39.517,348.964L38.041,349.093L35.48,348.867L37.045,329.693L37.247,326.781L39.092,304.537L39.587,297.54L39.771,295.647L40.869,281.804L40.899,280.685L41.384,275.79L42.47,261.94L42.977,256.916L43.328,252.322L44.831,233.928L46.369,214.967L46.695,211.502L48.013,195.645L48.662,188.588Z"/>
<path region="15" short-name="14" long-name="State House District 14" value="2" d="M451.069,564.668L451.948,548.04L452.346,539.756L452.699,532.171L462.648,532.672L463.105,524.155L464.292,499.503L465.123,482.896L465.993,466.71L477.35,467.233L477.921,455.961L478.374,445.19L478.686,439.663L478.936,434.179L506.31,435.551L512.355,435.826L529.146,436.521L530.15,414.884L530.667,403.384L525.563,403.156L525.913,394.84L526.304,386.613L526.485,381.05L527.028,370.026L528.013,348.242L527.987,347.992L528.36,339.316L528.515,336.762L523.432,336.517L524.187,320.044L524.914,303.587L541.694,304.255L566.787,305.366L589.124,306.313L607.453,306.993L625.442,307.694L624.822,324.2L624.742,326.932L624.225,340.194L624.262,340.715L645.272,341.5L661.918,342.096L661.351,358.989L661.259,362.617L660.59,383.027L661.491,384.31L662.334,384.175L663.796,384.656L667.012,386.456L668.336,385.501L668.99,385.501L669.657,386.176L669.292,386.874L669.706,387.789L670.468,388.456L671.228,390.437L670.991,391.79L671.836,392.276L670.416,393.238L669.57,394.07L669.421,395.555L666.112,395.321L665.255,395.565L665.105,394.087L664.702,393.165L663.261,392.77L660.019,392.973L657.815,392.763L658.241,392.056L651.471,391.706L643.534,391.463L642.98,408L647.137,408.147L646.537,423.83L646.588,424.053L645.99,441.287L657.129,441.631L662.682,441.741L663.307,442.419L665.814,443.274L668.064,443.506L670.241,443.063L671.716,442.064L673.781,442.232L683.601,442.612L690.337,442.791L691.414,444.019L691.559,445.039L692.907,445.355L693.406,446.125L694.315,446.161L695.897,447.211L697.721,450.648L697.466,451.924L697.04,452.687L697.337,453.261L696.768,453.964L697.404,455.352L698.175,456.055L697.842,456.428L698.593,457.227L699.917,458.179L699.554,459.073L699.917,459.721L701.077,460.483L701.825,461.289L703.027,461.798L703.462,461.364L704.905,461.534L705.378,459.939L706.398,459.856L706.701,458.401L707.096,457.868L708.215,457.753L708.155,457.246L709.096,456.564L711.599,456.15L711.967,455.647L713.177,455.709L713.917,455.143L715.038,455.124L715.546,454.037L715.132,453.742L715.475,452.58L716.371,452.228L716.732,452.687L717.712,452.719L718.204,453.203L720.131,452.485L720.784,451.61L721.52,452.049L722.995,452.091L724.699,451.86L727.115,452.263L727.591,453.02L729.433,453.22L729.583,453.673L730.674,453.739L730.946,453.202L732.274,453.977L734.093,454.028L735.964,453.513L736.228,454.035L737.482,453.99L738.863,454.877L738.94,456.107L740.167,457.19L740.959,457.507L742.375,458.704L744.269,458.569L744.752,458.786L745.73,458.321L745.499,466.593L745.257,477.597L748.538,477.665L748.425,482.962L748.123,493.9L728.557,493.364L714.797,492.913L695.381,492.388L681.646,491.94L664.995,491.32L648.367,490.802L647.752,507.351L647.166,523.817L646.605,540.483L629.884,539.902L618.503,539.48L617.957,554.165L617.943,555.907L617.282,572.482L616.66,589.064L616.091,605.572L620.706,605.839L619.8,626.336L618.882,647.428L618.25,662.826L617.784,672.42L597.753,671.613L584.421,671.018L574.171,670.595L567.749,670.3L564.556,670.201L556.224,669.785L542.353,669.187L534.343,668.774L534.825,660.375L535.148,653.901L536.203,635.581L519.488,634.799L502.868,633.945L486.239,633.138L487.169,616.604L470.553,615.649L471.557,599.124L468.885,598.947L449.381,597.916L449.573,595.132L450.178,581.289Z"/>
<path region="16" short-name="35" long-name="State House District 35" value="2" d="M436.724,628.093L440.515,626.598L440.971,626.525L444.872,626.716L450.444,627.007L450.422,627.458L450.374,628.474L447.331,628.319L447.496,629.162L446.848,629.241L445.96,630.096L443.974,629.988L443.878,631.431L442.276,631.326L441.858,630.299L441.92,629.268L441.116,629.211L441.062,630.242L440.665,630.782L438.56,630.855L437.678,628.873Z"/>
<path region="17" short-name="6" long-name="State House District 6" value="2" d="M304.295,241.756L305.376,225.331L306.654,205.436L323.342,206.474L340.016,207.487L357.029,208.498L372.947,209.335L378.507,209.722L390.13,210.369L407.896,211.336L420.686,212.119L441.966,213.174L456.942,213.928L473.76,214.784L490.508,215.612L509.043,216.504L523.958,217.206L540.769,217.975L540.339,227.232L539.564,244.901L539.489,245.972L538.375,271.096L543.179,271.313L542.435,287.753L541.694,304.255L524.914,303.587L524.187,320.044L523.432,336.517L528.515,336.762L528.36,339.316L527.987,347.992L528.013,348.242L527.028,370.026L526.485,381.05L526.304,386.613L525.913,394.84L525.563,403.156L530.667,403.384L530.15,414.884L529.146,436.521L512.355,435.826L506.31,435.551L478.936,434.179L478.686,439.663L478.374,445.19L477.921,455.961L477.35,467.233L465.993,466.71L465.123,482.896L464.292,499.503L463.105,524.155L462.648,532.672L452.699,532.171L452.346,539.756L448.148,539.568L424.678,538.407L423.909,538.629L423.213,538.338L417.796,538.057L417.86,536.682L417.114,536.64L417.202,535.257L415.65,535.168L415.065,534.456L412.598,534.43L411.509,533.407L409.98,529.924L409.789,528.642L409.931,526.104L409.779,525.085L408.138,521.848L407.377,521.028L407.465,518.618L406.431,513.105L405.648,511.27L405.167,509.144L405.329,506.177L405.194,505.199L404.631,504.162L401.187,500.237L400.837,499.712L397.75,493.147L395.79,490.553L392.496,487.722L388.802,484.399L388.477,483.466L388.656,478.87L387.869,472.779L387.237,471.697L385.772,470.559L385.168,469.577L385.272,465.918L385.926,463.83L385.764,461.876L385.354,460.445L385.273,458.656L385.666,456.672L386.757,436.942L386.93,436.212L388.179,436.287L388.33,433.516L386.961,433.438L387.677,420.611L387.804,419.749L387.628,417.234L388.186,415.191L387.929,413.961L388.138,412.239L388.466,405.542L388.798,404.463L388.991,401.237L389.2,400.241L388.952,398.338L389.018,396.508L388.697,394.956L389.55,379.563L392.372,379.695L396.523,379.963L409.145,380.673L425.865,381.593L426.55,369.164L427.67,348.554L427.997,343.056L428.563,331.858L422.689,331.543L423.579,315.033L402.862,313.874L390.071,313.135L373.302,312.147L356.554,311.145L345.359,310.462L323.064,309.057L324.074,292.56L324.94,278.84L326.181,259.675L303.279,258.202Z"/>
<path region="18" short-name="20" long-name="State House District 20" value="2" d="M828.204,380.005L844.913,380.328L861.697,380.638L861.999,364.097L862.314,347.481L878.999,347.772L895.679,348.05L895.736,350.812L895.58,364.613L901.673,364.838L912.168,364.99L926.716,365.272L929.958,365.294L929.839,365.798L928.813,366.142L928.815,367.226L926.88,367.081L926.417,368.092L927.553,368.091L928.95,368.54L928.853,369.195L928.134,369.664L928.838,370.514L928.8,371.119L927.726,371.127L926.29,371.822L926.286,372.763L927.408,372.831L927.387,373.587L926.285,373.929L926.492,374.668L928.837,375.227L928.709,376.184L927.693,375.488L927.189,375.48L925.572,376.184L925.889,377.006L926.738,376.39L928.761,377.314L929.443,378.062L929.648,378.779L928.777,379.102L928.365,377.879L927.919,377.347L926.939,377.356L926.871,377.88L927.985,378.539L928.128,379.101L927.071,379.429L926.646,380.091L927.317,381.155L926.599,381.803L917.577,381.684L917.026,398.232L916.903,414.776L911.379,414.701L909.192,414.597L897.422,414.42L888.979,414.219L888.641,430.87L897.029,430.948L907.539,431.159L913.303,431.238L913.334,432.452L913.052,447.776L929.839,448.054L933.408,448.094L934.038,449.866L933.882,464.631L951.44,464.794L952.131,464.733L953.163,466.506L953.224,467.544L952.629,468.479L952.65,469.015L953.605,470.34L953.78,471.122L954.357,471.818L952.893,472.748L953.463,473.238L954.395,473.359L954.251,474.13L955.205,474.532L955.173,475.218L954.146,475.84L954.521,476.259L955.35,476.021L955.893,477.272L956.915,478.14L957.33,480.276L957.23,480.948L957.852,481.259L958.661,483.119L958.388,483.991L958.461,485.098L959.052,485.871L958.977,487.264L958.226,487.879L959.022,488.832L959.135,489.493L959.93,489.755L959.408,490.523L959.377,491.297L960.496,491.791L961.262,492.882L962.276,493.195L962.568,494.043L962.289,494.803L962.889,495.289L963.041,497.428L962.723,499.163L961.855,500.173L962.606,500.587L962.909,501.259L962.025,501.509L961.22,501.062L960.731,501.76L961.496,502.388L963.234,501.593L963.465,501.938L962.608,502.781L961.584,502.964L962.134,503.776L963.118,504.309L961.929,505.705L962.343,506.277L961.353,506.909L962.585,507.46L961.691,508.679L960.525,508.803L961.315,511.015L962.49,511.579L963.59,511.089L964.09,511.427L963.595,512.328L963.845,512.925L962.627,513.018L962.628,514.155L963.136,514.742L961.245,516.275L962.582,516.731L962.193,517.531L961.238,517.424L960.574,518.306L961.087,518.668L961.604,518.001L962.633,518.137L962.617,518.745L961.53,519.539L961.71,520.633L962.409,521.618L962.193,523.335L961.675,524.677L962.147,525.787L961.291,526.269L961.481,527.618L962.12,528.812L961.192,529.128L961.321,530.65L962.75,532.492L963.496,532.82L964.164,533.746L963,534.363L964.466,535.461L963.902,535.889L964.362,536.808L963.803,537.092L963.31,538.223L964.392,538.984L963.442,539.504L962.49,539.171L963.021,540.496L962.495,541.048L963.574,542.062L963.69,542.773L963.108,543.056L963.974,544.677L964.711,544.674L965.275,545.13L964.716,546.303L963.792,546.346L963.238,546.781L963.96,547.393L964.528,546.683L965.449,547.377L964.411,547.82L964.715,548.637L963.095,549.464L964.558,550.43L965.105,551.172L963.456,553.822L963.914,556.887L963.176,557.629L963.424,558.482L964.333,558.399L964.634,558.797L963.865,559.602L964.356,561.626L964.877,562.434L964.315,563.481L964.758,564.297L962.95,564.372L950.369,564.052L933.722,563.877L917.098,563.675L903.109,563.509L883.752,563.16L883.983,546.859L881.029,546.785L881.408,524.951L881.466,524.6L881.594,518.145L881.681,510.553L881.859,502.605L882.249,480.53L859.645,480.142L843.412,479.84L843.35,479.865L828.949,479.564L829.206,465.749L829.626,446.451L829.903,432.75L830.291,413.163L827.504,413.098L827.799,399.289Z"/>
<path region="19" short-name="29" long-name="State House District 29" value="2" d="M745.73,458.321L746.162,457.865L746.313,451.871L745.965,450.875L746.261,438.941L746.994,411.179L760.342,411.528L760.794,395.003L761.238,378.493L778.005,378.833L786.506,379.053L794.719,379.307L797.491,379.343L814.311,379.743L828.204,380.005L827.799,399.289L827.504,413.098L830.291,413.163L829.903,432.75L829.626,446.451L829.206,465.749L828.949,479.564L843.35,479.865L843.412,479.84L859.645,480.142L882.249,480.53L881.859,502.605L881.681,510.553L881.594,518.145L881.466,524.6L881.408,524.951L881.029,546.785L883.983,546.859L883.752,563.16L879.662,563.059L867.125,562.903L850.42,562.432L833.586,562.068L828.066,561.897L816.976,561.72L805.806,561.384L800.278,561.181L786.298,560.933L783.701,560.85L767.271,560.548L753.427,560.202L750.708,560.161L750.663,559.93L751.015,549.086L751.115,543.726L730.184,543.162L717.908,542.797L717.423,559.245L716.721,584.166L716.444,592.476L716.377,596.115L716.045,604.496L715.969,609.087L717.418,609.121L717.716,613.898L717.37,616.175L717.505,617.163L717.341,618.379L716.621,618.908L714.01,618.839L713.975,620.188L714.738,620.429L713.987,621.191L713.934,622.737L714.321,623.103L715.46,623.069L716.254,623.799L716.667,624.795L716.015,625.814L711.021,625.587L710.984,627.007L715.183,627.158L715.149,628.53L722.006,628.735L722.056,626.558L723.589,626.095L723.844,626.655L724.835,626.686L724.826,627.445L725.493,628.157L727.646,628.223L727.702,626.043L735.977,626.324L735.636,642.082L735.594,643.026L746.676,643.247L752.257,643.414L751.926,654.445L751.615,668.354L751.389,676.658L734.696,676.257L717.965,675.801L694.166,675.139L672.66,674.501L670.902,674.464L655.8,673.909L634.464,673.071L617.784,672.42L618.25,662.826L618.882,647.428L619.8,626.336L620.706,605.839L616.091,605.572L616.66,589.064L617.282,572.482L617.943,555.907L617.957,554.165L618.503,539.48L629.884,539.902L646.605,540.483L647.166,523.817L647.752,507.351L648.367,490.802L664.995,491.32L681.646,491.94L695.381,492.388L714.797,492.913L728.557,493.364L748.123,493.9L748.425,482.962L748.538,477.665L745.257,477.597L745.499,466.593Z"/>
<path region="20" short-name="43" long-name="State House District 43" value="2" d="M937.018,434.299L936.986,438.447L938.31,439.156L938.371,438.083L938.308,441.234L935.535,441.203L935.564,439.816L932.799,439.784L932.136,437.716L932.17,434.231Z"/>
<path region="21" short-name="28" long-name="State House District 28" value="2" d="M556.224,669.785L564.556,670.201L567.749,670.3L574.171,670.595L584.421,671.018L597.753,671.613L617.784,672.42L634.464,673.071L655.8,673.909L670.902,674.464L672.66,674.501L694.166,675.139L717.965,675.801L734.696,676.257L751.389,676.658L771.748,677.146L788.387,677.557L804.965,677.994L804.659,694.671L803.928,722.39L803.723,730.718L803.447,744.602L820.103,745.011L836.786,745.301L853.501,745.634L867.425,745.848L886.92,746.16L903.686,746.401L906.498,746.446L906.405,754.777L906.135,774.06L905.829,793.455L905.754,801.158L898.802,799.734L889.139,797.667L872.529,794.242L876.079,812.548L855.547,812.177L836.437,811.819L822.356,811.501L797.221,810.874L781.838,810.529L769.455,810.213L751.255,809.728L738.9,809.263L723.089,808.65L709.865,808.19L685.675,807.313L660.646,806.396L638.62,805.683L622.495,805.054L607.566,804.523L594.412,803.89L572.826,803.089L561.039,802.549L555.515,802.253L556.511,780.057L557.485,757.899L557.552,757.532L557.914,747.194L557.976,746.851L558.41,736.944L553.311,736.669L553.388,733.717L554.07,717.392L554.098,717.308L555.458,686.838Z"/>
<path region="22" short-name="4B" long-name="State House District 4B" value="1" d="M304.295,241.756L303.279,258.202L326.181,259.675L324.94,278.84L324.074,292.56L323.064,309.057L345.359,310.462L356.554,311.145L355.585,326.899L355.488,327.632L345.168,327.022L343.816,349.273L342.283,374.708L342.239,376.804L355.667,377.623L375.633,378.77L389.55,379.563L388.697,394.956L389.018,396.508L388.952,398.338L389.2,400.241L388.991,401.237L388.798,404.463L388.466,405.542L388.138,412.239L387.929,413.961L388.186,415.191L387.628,417.234L387.804,419.749L387.677,420.611L386.961,433.438L388.33,433.516L388.179,436.287L386.93,436.212L386.757,436.942L385.666,456.672L385.273,458.656L385.354,460.445L385.764,461.876L385.926,463.83L385.272,465.918L385.168,469.577L385.772,470.559L387.237,471.697L387.869,472.779L388.656,478.87L376.188,478.204L367.866,484.258L366.56,482.793L365.516,482.333L364.178,482.2L363.171,482.375L359.769,483.658L358.318,483.335L357.299,483.336L355.439,484.253L350.474,485.534L349.696,486.049L346.739,486.98L342.315,487.725L340.346,487.545L339.232,487.766L338.368,487.569L335.438,486.2L332.78,485.397L331.204,485.109L329.113,485.391L331.315,481.067L331.83,480.941L332.148,475.714L315.579,474.714L316.561,458.437L317.558,444.698L317.788,441.946L318.742,425.438L319.64,408.92L320.381,396.712L313.963,396.33L312.138,396.298L297.341,395.389L288.987,394.762L280.732,394.239L265.992,393.183L264.136,393.168L247.482,392.01L230.905,390.908L225.9,390.555L225.447,390.12L223.436,389.323L220.789,387.725L220.333,387.124L220.209,386.149L220.411,382.809L219.375,380.999L218.342,380.94L217.094,381.903L215.198,382.469L213.3,381.929L212.448,381.181L211.73,379.604L212.394,378.13L212.707,376.298L212.662,374.749L212.161,374.095L210.968,373.483L209.476,373.182L207.629,372.245L203.828,371.9L200.728,370.72L200.81,370.271L202.903,369.46L203.338,368.5L203.642,366.489L202.804,365.046L201.199,363.977L200.124,363.617L197.558,365.071L196.296,365.485L194.787,365.413L192.015,364.312L192.074,364.058L193.055,350.377L194.242,333.869L197.139,334.067L209.428,335.017L220.317,335.738L227.562,336.286L244.232,337.444L260.89,338.561L262.03,321.73L255.03,321.262L256.144,304.796L256.15,304.217L257.206,288.285L273.96,289.406L274.856,275.682L276.162,256.45L286.521,257.125L287.637,240.671L292.459,241.003Z"/>
<path region="23" short-name="23" long-name="State House District 23" value="2" d="M35.48,348.867L38.041,349.093L39.517,348.964L40.05,349.246L58.933,350.83L75.613,352.236L76.927,352.268L77.017,351.183L75.889,349.129L75.996,346.247L75.37,345.297L74.072,344.679L73.569,343.614L73.603,341.021L73.914,337.307L74.466,336.266L75.19,335.871L76.329,335.838L77.351,335.459L78.377,333.699L79.349,333.24L83.297,333.509L84.973,333.773L87.972,333.976L89.353,333.515L93.226,333.696L94.274,334.46L96.542,334.64L95.909,342.883L93.178,342.67L92.706,348.078L92.302,348.125L84.363,347.497L84.085,350.239L83.894,353.476L83.599,356.413L81.848,356.256L80.187,356.751L77.26,358.296L76.512,359.079L74.517,360.628L73.777,361.006L73.472,362.097L73.866,362.923L76.172,365.282L77.165,365.853L77.569,366.65L77.251,368.043L76.725,368.636L75.161,369.602L72.279,370.935L71.373,370.388L69.556,367.712L67.812,366.994L66.952,367.653L66.171,369.159L65.714,371.394L66.208,372.961L66.164,375.677L65.27,378.143L64.677,379.193L62.358,381.401L61.439,381.844L60.839,381.579L61.308,380.323L61.406,378.385L61.056,377.795L57.841,374.655L57.394,374.619L56.699,375.785L57.484,377.173L57.574,378.44L56.386,379.709L55.491,382.537L54.609,383.566L52.907,384.379L51.897,384.429L48.712,385.19L47.605,383.823L46.847,382.308L46.069,381.192L44.641,379.926L43.036,379.065L41.198,379.005L40.499,379.432L40.438,380.667L39.909,381.409L38.622,382.097L37.814,382.147L37.107,381.26L36.913,379.686L36.097,377.779L35.348,377.206L33.301,376.225L33.302,376.22Z"/>
<path region="24" short-name="11" long-name="State House District 11" value="2" d="M963.039,636.239L965.947,636.282L965.947,635.462L969.186,635.489L969.171,636.283L970.628,636.283L971.504,637.132L971.393,637.762L971.941,638.531L971.036,638.974L969.647,638.725L968.686,638.785L968.67,639.712L966.983,639.87L965.871,639.895L965.894,639.002L963.125,638.971Z"/>
<path region="25" short-name="9A" long-name="State House District 9A" value="1" d="M540.769,217.975L557.71,218.726L557.342,219.128L556.945,229.987L557.276,232.31L557.248,234.382L557.414,236.601L556.535,239.559L556.483,241.693L556.145,249.525L555.865,250.351L554.951,251.713L554.796,252.554L553.253,252.489L553.134,255.229L555.947,255.354L556.048,252.608L558.788,252.73L559.027,247.237L573.051,247.848L573.399,239.641L592.422,240.48L606.948,241.01L606.622,249.242L606.254,257.469L623.097,258.156L622.467,274.608L626.676,274.768L626.057,291.197L625.442,307.694L607.453,306.993L589.124,306.313L566.787,305.366L541.694,304.255L542.435,287.753L543.179,271.313L538.375,271.096L539.489,245.972L539.564,244.901L540.339,227.232Z"/>
<path region="26" short-name="30" long-name="State House District 30" value="2" d="M438.37,633.06L439.164,633.359L441.05,633.535L441,634.912L441.58,634.947L441.337,639.094L444.114,639.233L444.317,635.761L445.242,635.837L445.745,635.026L445.96,630.096L446.848,629.241L447.496,629.162L447.331,628.319L450.374,628.474L450.422,627.458L451.756,627.525L453.142,627.938L452.293,642.436L455.082,642.595L454.747,648.112L460.297,648.405L459.834,656.482L459.359,656.422L456.173,657.446L452.598,659.808L451.225,660.309L449.103,660.55L447.949,660.049L447.046,659.171L446.893,658.508L447.331,657.175L447.922,656.524L447.822,654.948L446.775,653.377L445.719,653.448L443.904,654.245L442.775,654.337L441.888,653.901L441.425,653.27L441.079,651.051L440.445,648.645L441.394,648.086L443.055,647.928L443.527,647.48L443.746,646.295L443.082,644.761L441.054,644.56L439.63,644.798L438.064,644.356L436.449,642.959L435.911,641.993L435.789,640.448L435.442,639.165L435.899,637.85L436.769,636.922L438.344,634.015Z"/>
<path region="27" short-name="34" long-name="State House District 34" value="2" d="M438.569,630.876L438.744,631.403L438.37,633.06L438.344,634.015L436.769,636.922L435.899,637.85L435.442,639.165L435.789,640.448L435.911,641.993L436.449,642.959L438.064,644.356L439.63,644.798L438.535,644.878L436.102,644.745L434.756,639.382L434.239,638.483L434.371,637.615L434.054,635.929L433.468,634.27L433.107,632.604L432.097,630.651L431.61,630.973L431.504,632.304L429.939,631.741L429.951,630.625L427.13,630.504L427.406,627.281L426.529,627.145L426.405,626.331L425.039,626.232L425.104,624.921L429.166,625.052L429.159,624.009L431.572,624.78L432.198,625.641L432.523,627.02L436.668,630.43L437.975,630.951Z"/>
<path region="28" short-name="36" long-name="State House District 36" value="2" d="M177.284,601.225L180.048,601.446L182.82,601.928L183.099,598.063L181.619,597.97L181.713,596.661L179.035,596.399L179.238,593.644L180.615,593.745L180.794,591.135L181.037,590.995L186.351,591.368L186.547,588.623L189.316,588.82L189.093,591.608L191.74,591.771L192.345,582.732L203.989,583.568L204.409,583.568L224.476,584.949L224.657,582.189L229.85,582.542L229.951,580.994L232.121,579.902L241.476,580.543L242.216,569.528L244.99,569.709L244.821,572.462L247.387,572.643L248.756,572.06L249.02,572.747L251.314,572.923L251.783,572.503L251.924,570.71L256.221,568.879L256.604,562.145L259.279,562.346L260.04,562.283L260.62,561.417L261.28,561.701L263.906,560.536L264.165,560.017L265.774,559.285L267.946,560.101L266.103,587.696L272.531,588.129L299.957,589.855L302.137,590.009L329.915,591.709L352.801,593.055L366.064,593.831L379.318,594.589L378.375,613.403L378.192,617.471L381.078,617.231L380.68,617.627L381.89,618.556L381.819,619.786L380.889,620.752L380.791,621.618L380.139,622.155L380.714,622.961L379.396,623.804L378.452,623.747L377.906,624.232L377.675,628.382L376.578,655.216L376.189,655.987L372.888,655.813L372.338,656.528L372.098,661.301L351.188,660.082L351.041,660.096L329.19,658.758L318.076,658.053L319.093,641.496L299.705,640.341L283.085,639.295L269.258,638.406L268.902,644.144L268.128,654.961L257.159,654.252L239.285,653.193L225.065,652.317L207.349,651.122L207.197,650.501L207.798,640.014L208.773,624.456L208.675,623.252L207.796,621.205L207.804,619.599L208.113,618.096L207.966,616.754L208.311,611.776L204.331,611.579L199.63,610.515L185.074,609.445L182.3,609.27L182.358,607.739L181.009,607.639L180.22,606.883L180.355,604.818L178.416,604.681L178.551,603.21L177.233,602.858Z"/>
<path region="29" short-name="40" long-name="State House District 40" value="2" d="M390.071,313.135L402.862,313.874L423.579,315.033L422.689,331.543L428.563,331.858L427.997,343.056L427.67,348.554L410.974,347.623L396.967,346.897L396.661,352.405L391.404,352.041L391.012,353.478L390.928,354.844L389.221,354.968L388.143,354.669L388.272,352.616L387.719,351.913L388.009,351.13L385.556,351.032L386.77,329.506L389.141,329.643L389.129,329.03L389.536,322.594L388.03,321.424L389.715,319.381Z"/>
<path region="30" short-name="42" long-name="State House District 42" value="2" d="M916.903,414.776L928.096,414.936L929.402,416.74L931.495,418.45L932.225,419.528L932.432,420.52L932.02,423.3L932.226,425.013L932.153,431.478L937.144,431.522L937.127,433.012L937.889,433.022L937.871,434.311L937.018,434.299L932.17,434.231L932.136,437.716L932.799,439.784L932.89,440.337L932.814,446.371L933.408,448.094L929.839,448.054L913.052,447.776L913.334,432.452L913.303,431.238L907.539,431.159L897.029,430.948L888.641,430.87L888.979,414.219L897.422,414.42L909.192,414.597L911.379,414.701Z"/>
<path region="31" short-name="47" long-name="State House District 47" value="2" d="M430.154,616.775L431.228,616.341L431.921,616.378L432.045,615.026L434.373,615.141L434.709,615.654L435.474,618.404L435.6,619.327L442.487,619.787L442.328,622.512L445.132,622.665L444.872,626.716L440.971,626.525L440.515,626.598L436.724,628.093L434.269,625.262L433.323,623.8L431.685,619.568Z"/>
<path region="32" short-name="3" long-name="State House District 3" value="2" d="M390.928,354.844L391.012,353.478L391.404,352.041L396.661,352.405L396.967,346.897L410.974,347.623L427.67,348.554L426.55,369.164L425.865,381.593L409.145,380.673L396.523,379.963L392.372,379.695L393.435,360.416L393.607,357.334L392.282,356.316L390.872,356.275Z"/>
<path region="33" short-name="10" long-name="State House District 10" value="2" d="M958.945,637.509L958.998,634.737L960.378,634.78L960.37,636.173L963.039,636.239L963.125,638.971L963.272,644.496L960.341,644.474L960.292,642.27L957.51,642.329L957.51,640.937L958.743,640.528Z"/>
<path region="34" short-name="12" long-name="State House District 12" value="2" d="M750.708,560.161L750.36,572.595L749.812,593.35L749.354,609.956L753.01,610.044L752.936,614.106L752.257,643.414L746.676,643.247L735.594,643.026L735.636,642.082L735.977,626.324L727.702,626.043L727.646,628.223L725.493,628.157L724.826,627.445L724.835,626.686L723.844,626.655L723.589,626.095L722.056,626.558L722.006,628.735L715.149,628.53L715.183,627.158L710.984,627.007L711.021,625.587L716.015,625.814L716.667,624.795L716.254,623.799L715.46,623.069L714.321,623.103L713.934,622.737L713.987,621.191L714.738,620.429L713.975,620.188L714.01,618.839L716.621,618.908L717.341,618.379L717.505,617.163L717.37,616.175L717.716,613.898L717.418,609.121L715.969,609.087L716.045,604.496L716.377,596.115L716.444,592.476L716.721,584.166L717.423,559.245L717.908,542.797L730.184,543.162L751.115,543.726L751.015,549.086L750.663,559.93Z"/>
<path region="35" short-name="13" long-name="State House District 13" value="2" d="M951.921,630.379L954.434,630.595L954.924,631.707L954.903,633.136L959.101,633.357L958.998,634.737L958.945,637.509L957.557,637.471L957.515,638.87L955.588,638.909L954.319,638.435L951.88,636.149L950.249,634.1L949.238,633.308L948.062,632.999L946.318,632.987L946.355,630.342Z"/>
<path region="36" short-name="18" long-name="State House District 18" value="2" d="M926.599,381.803L925.735,382.945L925.461,383.726L927.104,384.188L927.173,385.165L925.88,385.686L926.132,387.731L926.933,388.302L928.309,387.708L929.109,388.03L928.78,388.803L926.615,389.943L925.879,391.036L926.169,391.821L926.906,391.403L928.36,391.747L928.806,392.618L927.976,393.339L928.114,394.472L928.956,396.434L929.016,397.319L928.724,398.387L930.487,398.774L930.619,399.708L931.411,400.313L931.175,400.86L931.704,402.374L931.56,403.977L931.252,405.074L931.934,405.194L933.301,407.657L934.757,408.72L935.185,409.611L935.41,410.813L935.6,413.494L935.125,415.123L935.501,415.686L936.275,415.92L935.814,416.949L936.11,419.056L937.309,420.132L937.481,421.082L936.698,423.732L936.975,424.402L936.403,425.709L937.354,426.463L937.538,427.398L937.193,428.156L937.261,429.013L938.494,430.017L939.644,430.353L939.463,431.513L939.664,432.106L940.45,432.609L941.977,434.111L941.191,434.846L942.028,435.388L942.301,436.514L941.117,436.864L941.626,437.783L941.127,438.239L940.48,438.248L940.501,437.1L938.412,437.09L938.371,438.083L938.31,439.156L936.986,438.447L937.018,434.299L937.871,434.311L937.889,433.022L937.127,433.012L937.144,431.522L932.153,431.478L932.226,425.013L932.02,423.3L932.432,420.52L932.225,419.528L931.495,418.45L929.402,416.74L928.096,414.936L916.903,414.776L917.026,398.232L917.577,381.684Z"/>
<path region="37" short-name="21" long-name="State House District 21" value="2" d="M959.101,633.357L963.177,633.442L963.385,630.711L966.505,630.756L967.149,631.468L968.31,632.152L969.338,632.424L969.31,633.769L971.073,633.954L971.309,633.574L970.897,634.543L971.058,635.235L970.628,636.283L969.171,636.283L969.186,635.489L965.947,635.462L965.947,636.282L963.039,636.239L960.37,636.173L960.378,634.78L958.998,634.737Z"/>
<path region="38" short-name="27" long-name="State House District 27" value="2" d="M957.553,644.412L957.51,642.329L960.292,642.27L960.341,644.474L960.368,648.55L963.255,648.573L963.281,650.016L964.839,650.084L964.816,651.474L964.478,652.172L967.313,652.239L967.344,652.793L968.54,652.951L968.441,650.874L970.049,650.907L968.81,652.367L969.514,652.62L970.242,652.171L970.601,652.635L969.895,653.737L971.506,654.236L971.111,655.688L969.975,656.111L970.41,656.678L970.258,659.03L970.608,659.398L970.993,661.471L970.962,662.742L969.462,663.782L970.441,665.01L969.7,665.509L969.648,666.292L970.236,668.269L969.583,669.402L969.835,670.143L969.762,671.276L968.317,671.338L968.35,672.08L969.008,673.072L968.025,673.197L968.512,674.449L968.225,674.704L968.318,675.955L969.406,676.92L968.945,677.387L969.374,678.173L969.078,679.759L968.4,680.506L968.208,680.532L951.424,680.364L951.596,666.474L950.202,666.462L950.213,665.772L951.602,665.774L951.665,657.462L951.837,657.08L951.687,653.975L950.298,653.958L950.309,652.566L948.915,652.55L948.931,651.158L951.703,651.193L951.717,649.106L953.45,649.173L953.473,647.147L957.637,647.197Z"/>
<path region="39" short-name="17" long-name="State House District 17" value="2" d="M932.799,439.784L935.564,439.816L935.535,441.203L938.308,441.234L938.371,438.083L938.412,437.09L940.501,437.1L940.48,438.248L941.127,438.239L940.992,438.824L941.762,439.575L940.975,440.366L940.918,440.861L941.688,441.631L941.426,443.095L943.484,443.574L943.972,444.113L943.446,444.755L944.398,445.735L944.466,447.434L945.117,448.929L945.028,449.737L945.843,449.797L946.473,451.179L946.135,452.157L946.661,452.713L946.617,453.992L946.927,454.765L945.846,455.644L946.759,456.212L947.418,457.426L948.31,457.021L948.767,458.027L949.498,458.525L948.511,459.865L949.511,460.019L949.355,460.751L950.148,460.865L949.749,461.819L950.906,461.765L951.077,462.285L952.45,463.426L951.966,464.192L952.131,464.733L951.44,464.794L933.882,464.631L934.038,449.866L933.408,448.094L932.814,446.371L932.89,440.337Z"/>
<path region="40" short-name="4A" long-name="State House District 4A" value="1" d="M225.9,390.555L230.905,390.908L247.482,392.01L264.136,393.168L265.992,393.183L280.732,394.239L288.987,394.762L297.341,395.389L312.138,396.298L313.963,396.33L320.381,396.712L319.64,408.92L318.742,425.438L317.788,441.946L317.558,444.698L316.561,458.437L315.579,474.714L332.148,475.714L331.83,480.941L331.315,481.067L329.113,485.391L326.427,486.129L325.338,486.626L318.835,490.644L317.789,491.032L315.818,492.204L314.251,492.605L312.702,492.305L302.924,498.877L298.672,498.618L298.772,497.097L291.886,496.653L291.929,495.417L286.376,495.063L286.42,494.35L278.141,493.779L278.187,493.087L274.779,493.003L264.346,492.212L261.585,492.03L261.523,492.743L258.456,492.447L253.28,492.093L253.238,493.563L242.165,492.765L241.986,494.132L233.762,493.768L233.84,492.792L231.049,492.687L231.558,483.799L231.147,484.008L229.7,483.077L227.513,482.494L224.697,483.831L224.018,483.529L223.438,482.169L221.267,481.061L219.497,480.326L216.472,479.334L215.644,478.567L215.373,476.927L214.774,476.221L213.5,476.045L210.399,477.775L209.65,477.852L208.898,476.507L208.375,476.49L207.331,477.565L205.52,478.882L204.045,479.242L203.435,478.669L202.259,476.98L201.791,475.353L202.331,474.154L203.571,473.726L204.202,472.918L202.024,469.335L201.016,468.693L197.728,470.783L197.983,468.892L197.713,468.483L196.56,468.66L195.629,468.533L195.128,467.98L195.932,466.12L194.845,466.645L193.879,465.324L192.876,464.748L191.803,464.631L190.391,465.265L191.611,450.12L192.699,433.588L194.172,413.486L195.416,395.129L195.69,392.462L195.947,388.39L200.277,388.673Z"/>
<path region="41" short-name="9B" long-name="State House District 9B" value="1" d="M557.71,218.726L575.017,219.469L586.781,219.916L607.503,220.722L624.458,221.355L643.536,222.039L657.978,222.508L674.52,223.024L691.491,223.529L708.161,224.002L724.974,224.49L741.692,224.952L758.428,225.391L775.249,225.809L792.062,226.203L791.742,235.882L791.511,244.016L791.448,247.768L791.078,263.327L790.687,279.821L793.851,279.893L793.432,296.522L793.035,313.003L776.284,312.508L759.516,312.12L742.744,311.67L726.015,311.157L706.394,310.579L679.075,309.616L661.807,309.036L642.204,308.345L625.442,307.694L626.057,291.197L626.676,274.768L622.467,274.608L623.097,258.156L606.254,257.469L606.622,249.242L606.948,241.01L592.422,240.48L573.399,239.641L573.051,247.848L559.027,247.237L558.788,252.73L556.048,252.608L555.947,255.354L553.134,255.229L553.253,252.489L554.796,252.554L554.951,251.713L555.865,250.351L556.145,249.525L556.483,241.693L556.535,239.559L557.414,236.601L557.248,234.382L557.276,232.31L556.945,229.987L557.342,219.128Z"/>
<path region="42" short-name="24" long-name="State House District 24" value="2" d="M750.708,560.161L753.427,560.202L767.271,560.548L783.701,560.85L786.298,560.933L800.278,561.181L805.806,561.384L816.976,561.72L828.066,561.897L833.586,562.068L850.42,562.432L850.346,568.19L850.066,584.633L849.841,598.744L849.492,612.353L852.736,612.426L852.544,623.99L852.12,645.788L851.818,662.418L851.492,679.056L871.285,679.464L889.328,679.765L904.662,679.996L904.454,696.505L904.131,715.925L904.088,720.18L903.895,729.638L903.686,746.401L886.92,746.16L867.425,745.848L853.501,745.634L836.786,745.301L820.103,745.011L803.447,744.602L803.723,730.718L803.928,722.39L804.659,694.671L804.965,677.994L788.387,677.557L771.748,677.146L751.389,676.658L751.615,668.354L751.926,654.445L752.257,643.414L752.936,614.106L753.01,610.044L749.354,609.956L749.812,593.35L750.36,572.595Z"/>
<path region="43" short-name="38" long-name="State House District 38" value="2" d="M356.554,311.145L373.302,312.147L390.071,313.135L389.715,319.381L388.03,321.424L389.536,322.594L389.129,329.03L389.141,329.643L386.77,329.506L385.556,351.032L388.009,351.13L387.719,351.913L388.272,352.616L388.143,354.669L388.069,355.923L385.185,356.01L384.667,357.853L384.517,359.665L385.067,360.011L384.902,362.764L390.499,363.093L390.609,360.974L393.435,360.416L392.372,379.695L389.55,379.563L375.633,378.77L355.667,377.623L342.239,376.804L342.283,374.708L343.816,349.273L345.168,327.022L355.488,327.632L355.585,326.899Z"/>
<path region="44" short-name="44" long-name="State House District 44" value="2" d="M973.261,627.55L972.477,627.678L972.064,628.286L971.656,629.792L972.572,630.507L972.032,630.969L972.034,631.879L972.849,632.096L972.524,633.259L971.131,632.751L971.309,633.574L971.073,633.954L969.31,633.769L969.338,632.424L968.31,632.152L967.149,631.468L966.505,630.756L968.806,630.787L968.863,626.629L971.647,626.599L971.635,627.554Z"/>
<path region="45" short-name="46" long-name="State House District 46" value="2" d="M964.839,650.084L964.916,648.904L965.315,648.515L965.259,647.371L965.962,647.388L965.832,641.799L967.081,641.194L966.983,639.87L968.67,639.712L968.686,638.785L969.647,638.725L971.036,638.974L971.546,640.019L970.747,640.987L970.19,642.28L969.572,642.736L969.433,643.614L968.719,643.781L968.458,644.556L968.097,645.848L968.891,646.393L968.711,647.188L968.945,648.004L968.242,648.401L969.162,649.086L968.9,649.993L970.049,650.907L968.441,650.874L968.54,652.951L967.344,652.793L967.313,652.239L964.478,652.172L964.816,651.474Z"/>
<path region="46" short-name="1" long-name="State House District 1" value="2" d="M95.909,342.883L95.202,351.807L96.056,352.012L98.172,349.844L97.967,352.27L96.576,352.592L96.334,355.313L94.24,355.198L93.04,354.739L91.848,355.424L90.911,356.777L89.144,358.269L88.026,358.778L87.226,358.733L86.058,358.238L84.696,356.964L83.599,356.413L83.894,353.476L84.085,350.239L84.363,347.497L92.302,348.125L92.706,348.078L93.178,342.67Z"/>
<path region="47" short-name="16" long-name="State House District 16" value="2" d="M951.88,636.149L954.319,638.435L955.588,638.909L957.515,638.87L957.557,637.471L958.945,637.509L958.743,640.528L957.51,640.937L957.51,642.329L957.553,644.412L953.387,644.284L953.373,643.803L951.778,643.017Z"/>
<path region="48" short-name="22" long-name="State House District 22" value="2" d="M850.42,562.432L867.125,562.903L879.662,563.059L883.752,563.16L903.109,563.509L917.098,563.675L933.722,563.877L933.641,569.451L933.549,580.457L933.433,597.085L933.131,613.812L949.597,613.977L952.372,614.056L952.026,627.603L951.921,630.379L946.355,630.342L946.318,632.987L948.062,632.999L949.238,633.308L950.249,634.1L951.88,636.149L951.778,643.017L953.373,643.803L953.387,644.284L957.553,644.412L957.637,647.197L953.473,647.147L953.45,649.173L951.717,649.106L951.703,651.193L948.931,651.158L948.915,652.55L950.309,652.566L950.298,653.958L951.687,653.975L951.837,657.08L951.665,657.462L951.602,665.774L950.213,665.772L950.202,666.462L951.596,666.474L951.424,680.364L937.409,680.286L920.929,680.161L904.662,679.996L889.328,679.765L871.285,679.464L851.492,679.056L851.818,662.418L852.12,645.788L852.544,623.99L852.736,612.426L849.492,612.353L849.841,598.744L850.066,584.633L850.346,568.19Z"/>
    </g>
    </svg>