<svg viewBox="0 0 1000 1000" default-mode="split" auto-border-stroke-width="1" auto-border-stroke-width-limit=".5" original-source="['https://www2.census.gov/geo/tiger/GENZ2022/shp/cb_2022_us_sldl_500k.zip']" candidates="[{&quot;id&quot;:&quot;0&quot;, &quot;name&quot;:&quot;Democrats&quot;, &quot;margins&quot;: [{ &quot;color&quot;: &quot;#1C408C&quot; }, { &quot;color&quot;: &quot;#577CCC&quot; }, { &quot;color&quot;: &quot;#8AAFFF&quot; }, { &quot;color&quot;: &quot;#949BB3&quot; }]},{&quot;id&quot;:&quot;1&quot;, &quot;name&quot;:&quot;Republicans&quot;, &quot;margins&quot;: [{ &quot;color&quot;: &quot;#BF1D29&quot; }, { &quot;color&quot;: &quot;#FF5865&quot; }, { &quot;color&quot;: &quot;#FF8B98&quot; }, { &quot;color&quot;: &quot;#CF8980&quot; }]}]" version="1.1" xmlns="http://www.w3.org/2000/svg">
  <g regions="y">
    <path region="0" short-name="State House District Hillsborough 24" long-name="State House District Hillsborough 24" value="2" d="m550.72 838.4 5.19-1.23 2.72-2.86 2.79-.25-.1 2.47.86 2.04-1.07.46-3.64.92-1.56-.35-4.43 1.17z"/>
    <path region="1" short-name="State House District Strafford 01" long-name="State House District Strafford 01" value="2" d="m605.34 662.04 2.51.7 6.19 3.07.15-.43 17.33 7.18 2.48.86-4.55 10.95-5.74 14.66-2.8 6.1-5.38-2.82-22.44-10.82z"/>
    <path region="2" short-name="State House District Rockingham 26" long-name="State House District Rockingham 26" value="1" d="m718.48 764.98-.73 1.97 1.17 1.56 1.13 1.1-1.5 2.26.33 1.19 2.02 1.2-.51 3.66-1.5 1.71-2.42 5.39-.13 1.26-2.5-.59-4.2-10.27-1.96-4.2-3.14-6.55 1.5-1.24 4.73-4.99 5.4 5.4z"/>
    <path region="3" short-name="State House District Grafton 09" long-name="State House District Grafton 09" value="1" d="m328.52 578.79 7.63.94 8.17 1.36 17.6 1.83 1.67 26.93.96 9.32 12.74.47.08 1.38-2.4 11.09.6.16-.74 4.11 1.62.38-.63 2.74 1.61.44-.57 2.6 2.97.72-.7 2.67 3.27.8-.55 5.8-19.86-.72-8.93-.04-2.18 6.62-26.6-5-10.42-1.83-2.83-.7.63-2.04L325 616.04l4.81.35-.6-16.3z"/>
    <path region="4" short-name="State House District Hillsborough 09" long-name="State House District Hillsborough 09" value="3" d="m556.36 947.85.07-3.63-.34-4.05.29-.97-.41-3.37.6-1.93 1.5-.87.68-1.92 1.64-.96 1.18-2.05-.17-1.4 1.66-2.56.23-1.34 1.84 5.99.58.96-.92 1.41-.68 1.75.46 1.84 2.4 2.52-.83 1.66 1.9.62.68 1.47-.73 1.56 1.95.92.56 1.1z"/>
    <path region="5" short-name="State House District Hillsborough 42" long-name="State House District Hillsborough 42" value="3" d="m465.45 878.02 14.71-6.86-9.07-18.65 30.05-14.96-.01 2.71 2.68.38 4.48 8.7 4.4 9.21 4.31 10.06-7.52 3.58 1.9 3.68-1.2.58 3.28 7.29-1 .43 3.2 5.12-6.9 3.21 1.02 2.43-1 .5.57 2.84-6.9 2.88 1.18 2.53-5.38 2.91-3.55 1.52-3.55-8.31-22.97 9.76-2.82-6.48-5 2.2-1.46-2.91 5.1-2.14-2.94-5.74 3.29-1.72-1.14-2.34 2.18-.92-.84-1.93 2.64-1.25-1.87-3.93 2.46-1.08-1.49-1.33z"/>
    <path region="6" short-name="State House District Merrimack 21" long-name="State House District Merrimack 21" value="1" d="m508.1 777.24 3.07-3.28 1.84-1.11 1.21 4.32 1.42 2.5-14.06 12.87-1.4-1.57.6-2.35 2.36-3.32 3.73-6.37z"/>
    <path region="7" short-name="State House District Rockingham 23" long-name="State House District Rockingham 23" value="1" d="m698.61 808.39 1.78-13.4 3.76-1.72 14.78-1.06-2.3 5.59 1.16-.24 5.23.32 2.22 1.84 3.52 1.06.68 1.74-.82 2.96-.85.38-.78 2-13.45.96-6.87-.08-4.35-.33z"/>
    <path region="8" short-name="State House District Rockingham 05" long-name="State House District Rockingham 05" value="2" d="m627.96 792.78.55-7.27 12.42-3.45 15.36-4.25 4.26 17.04 1.99 4.57-17.72 4.6-17.87 4.65-.07-.78z"/>
    <path region="9" short-name="State House District Rockingham 07" long-name="State House District Rockingham 07" value="1" d="m625.9 822.85.49-8.1.56-6.08 17.87-4.65 3.1 18.3.74 3.98-1.07.31-6.28 1.72-8.4 1.96-7.65 1.82z"/>
    <path region="10" short-name="State House District Hillsborough 16" long-name="State House District Hillsborough 16" value="2" d="m561.22 844.66-.17-4.1.06-1.53 1.07-.46-.85-2.04.09-2.47-2.8.25 2-2.34 5.67-2.53 6.35 13.55 3.3 7.28 1.17 2.64-2.11.93-1-1.09-5.35-3.29-1.92-1.53-3.14-.15z"/>
    <path region="11" short-name="State House District Grafton 02" long-name="State House District Grafton 02" value="1" d="m366.35 382.83 2.08-2.23 28 4.65 7.44 16.95 16.4-7.45 1.07 2.49 8.66-3.94 7.61 2.05 10.34 11.22-2.55 1.15 7.4 14.42-34.05-2.34-3.1 33.02-40.9-6.8-16.62-2.23 2.76-28.61-.95-1.38-12.46-3.13 8.26-12.92 4.8-7.23z"/>
    <path region="12" short-name="State House District Hillsborough 28" long-name="State House District Hillsborough 28" value="2" d="m448.87 816.73 3.3-2.1 15.1-8.55 15.35-8.83 9 18.5 6.87 14.5 3.54 6.84-.9.46-30.04 14.96-1.37-2.81-3.66 2.06-7.08-14.43-5.96-12.6z"/>
    <path region="13" short-name="State House District Strafford 07" long-name="State House District Strafford 07" value="1" d="m637.39 706.51.93 1.6 1.45 1.03 3.22-.52 2.57-1.12.2-1.04-1.97-1.03-.93.32-2.98-1.4 2.77-1.42 3.06 1.93 3.45.97 3.5 2.36.68-1.53 3.44.7 5.13 2.28-.43 1.35-.64 2.48-2.99 9.54-9.98-4.73-11.3-5.52.47-1.15z"/>
    <path region="14" short-name="State House District Strafford 11" long-name="State House District Strafford 11" value="3" d="m647.38 759.04 7.85-27.56 1.34-4.36 19.66 13.21 2.9-1.18 2.14-5.5 1.16 1 3.42 1.48.93 1.1 3.2 2.14 2.86 3.35 1.19 3.32 1.4 2.2-.55 1.6-2.38.1-15.1-3.11-15.55-1.13 2.5 29.8-8.06 2.31-15.36 4.25z"/>
    <path region="15" short-name="State House District Coos 01" long-name="State House District Coos 01" value="2" d="m348.93 359 1.62-1.63 2.1-.62 2.12-.06 2.72-2.32 3.63-4.77v-1.27l1.56-.92-1.35-1.77 3.65-2.25.6-1.54.03-2.7-.46-2.35.46-2.14 2.25-.61.78-1.65-2.06-1.16-.41-2.25 1.4-1.38.82-2.48 1.26-.45.7 1.32-1.6 1.18.8 1.36 1.7-.88.7-4.2 2.23.04 2.36-1.4.37-2.79-.37-2.77 1.47.68 2.51-2.88-1.89-1.04-1.71-2.22-2.39-1.79 2.68-1.33 1.32-3.51.16-2.01-.96-1.13-3.85-1.54-3.04-1.62-.4-2.55.76-1.8.9-.48 3.5-.44 1.3.32 2.47-1.29-.24-2.13 2.18-.33.02-1.15-2.32-2 .57-.82 1.68.9 1.23-1.46.41-1.77-1.1-1.48-3.67-.25-.64-1.63-1.73-.23-.68-1.08 1.58-.76v-1.6l-1.77-3.79.13-3.99-3.4-1.58.94-1.96-1.47-1.73-.8-1.87-1.36 1.14-2.5.4-1.04-1.42-1.33-.57-.33-1.88-1.14-2.47-.16-1.41-2.78-.51-.1-2.3-1.67-2.56.48-2.06-1.76-.22v-1.71l-4.65-3.82-.24-.89-1.84-.75-.12-2.14-2.36.32-1-4.9-.85-1.38-1.15-.26-.57-1.34 3.44-2.35.7-1.2-.23-1.95 1.47-1.66.29-1.31.07.04 37.75-15.96 5.59 12.38.47.62 13.11 29.7 1.25 2.96-17.73 7.7 1.44.36 11.54 38.53 5.27-1.83 1.8 5.74 2.21-.63 1.71-1.67 1.42 4.63 3.39 8.35 2.52 7-24.54 10.62-20.5 20.27 7.29 6.48-2.8 4.1-12.32 19.21-2.08 2.23-14.07-12.5-4.38-4.17-5.62-4.99 2.4-.66 2.05 1.14 1.85-.28z"/>
    <path region="16" short-name="State House District Rockingham 06" long-name="State House District Rockingham 06" value="1" d="m644.82 804.02 17.72-4.6 4.72 10.36 2.9 6.73-1.84 1.2 1.46 3.17-4.9 1.1-16.22 4.32-.75-3.97z"/>
    <path region="17" short-name="State House District Rockingham 08" long-name="State House District Rockingham 08" value="1" d="m632.92 830.3 8.4-1.97 6.26-1.72.44 2.58 4.57 19.66-2.6 1.23-6.69 1.4-3.68.54-1.34-3.98z"/>
    <path region="18" short-name="State House District Cheshire 03" long-name="State House District Cheshire 03" value="1" d="m320.9 905.35 3.71-2.09 2.19 3.29 1.7 2.02 3.65 3.43 2.67.64 3.8 1.97 2.21 1.64 3.35-.21 2.26-1.01.05-.02-2.17 4.76-4.47.7-.15 1.74 1.02 2.86-9.64 2.5-4.2 1.08L316.23 908z"/>
    <path region="19" short-name="State House District Rockingham 28" long-name="State House District Rockingham 28" value="1" d="m718.48 764.98 1-2.58 1.56.26.31 1.76 1.14 1.66-1.62 1.64-1.95.8-1.17-1.57z"/>
    <path region="20" short-name="State House District Cheshire 13" long-name="State House District Cheshire 13" value="1" d="m418.8 901.82 4.78 11.94 13.9 32.32-10.13 2.16-20.14 4.17-9.98 2.28-2.2-5.69-5.1-12.2-3.3-7.66 1.83-.4-2.24-5.53-1.96.38-5.45-12.63z"/>
    <path region="21" short-name="State House District Merrimack 13" long-name="State House District Merrimack 13" value="2" d="m529.48 749.94 4.93-12.76 11.3-29.84 34.51 14.1-1.96 4.2-.15 4.3-1.31 5.28-26.9.68-2.19 13.45-2.5 13.1-17.59-7.01z"/>
    <path region="22" short-name="State House District Merrimack 20" long-name="State House District Merrimack 20" value="1" d="m509.95 770.25 2.48-2.12.88 2.15 2.55 1.44-.14 1.74 3.95 3.27.25 1.5-2.67-.02-1.61 1.47-1.42-2.5-1.21-4.33-1.84 1.11-3.07 3.28-2.01-2.55 4.35-3.43z"/>
    <path region="23" short-name="State House District Hillsborough 02" long-name="State House District Hillsborough 02" value="7" d="m512.7 858.55 15.62-6.72 13.83-6.06.48-.2 2.66 6.3 3.62-1.76 2.3 3.99 3.37 1.75 1.11 2.38 2.57 4.11.59 2.87 1.18 2.9-28.78 13.18-7.33-15.83-6.92 3.15z"/>
    <path region="24" short-name="State House District Grafton 11" long-name="State House District Grafton 11" value="1" d="m343.65 682.19 7.23-23.8 2.18-6.62 8.93.04 19.85.71.56-5.78-3.27-.8.7-2.68-2.97-.72.57-2.6-1.61-.44.63-2.74-1.62-.38.74-4.1-.6-.17 2.4-11.09-.08-1.38-12.74-.47-.96-9.32-1.68-26.93 36.05 3.15-.55 6.1 4.93.52-1.05 7.7 6.43 1.4 8.95 11.62L404.1 626l4.58 6.25 13.45 19.68-1.8 4.32.27.52-2.78 6.47-1.4-2.1-1.48-.57-1.68 1.65-1.14-.1-1.11 2.8-3.09 2.54.41 1.38-14.08-21.6-7.53 15.74-1.94 6.14-4.2 10.82-.63 2.04-34.85 3.3z"/>
    <path region="25" short-name="State House District Hillsborough 06" long-name="State House District Hillsborough 06" value="3" d="m567.3 920.38.9-2.03-3.02-3.4 2.45-1.9-.93-1.57 1.21-.96-1.8-2.06.17-.25 1.7 1.12 2.07 1.56 1.3 4.67.81 1.03 3.9 2.96-2.1.58-1.1.77-2.12.05-2.1 1.14z"/>
    <path region="26" short-name="State House District Grafton 03" long-name="State House District Grafton 03" value="1" d="m349.7 443.18 8.43.61 16.61 2.22 40.9 6.8 3.12-33.01 34.04 2.34 7.68 2.59 6.06 12.1 1.4 5.2-.72 2.53 6.58 9.33 4.93-1.42-.36 1.99-3.47 13.78-1.15 2.98 2.99 7.16L448.02 492l-.33-1.24-24.84 12.38-11.18-17.83-.17 3.26-2.66-.58-2.43 24.09-1.74 16.17-29.47-4.13.14-11.04-8.86.93.12-6.25-.55-25.72-18.08-4.35z"/>
    <path region="27" short-name="State House District Coos 02" long-name="State House District Coos 02" value="1" d="m428.08 0 7.25 20.09 7.28 22.88 4.27 12.75 15.7 48.18.74 1.64 7.81 23.97 10.1 29.62 10.23 30.96 2 6.66 9.08 28.12 4.67 15.4-10.08 3.66-5.73 31.97-10 2.77-18.43 5.37-12.46 3.85-16.8 5.07 1.67-18.07-20.3 19.93.94 3.1-2.05 2.02-1.7 1.67-2.22.63-1.8-5.74-5.27 1.83-11.54-38.53-1.44-.36 17.73-7.7-1.25-2.95-13.11-29.71-.47-.61-5.6-12.4 20.18-8.51.29 4.01 9.03-1.38-3.87-12.78-6.2.32-1.19-15.38 4.9-4.49-2.63-34.3.67-.05-.25-3.28-51.58 3.66-.23-.36 1.89-.9.04-1.95 2.88-3.07-9.04 2.5-.92-4.65.73-3.2.02-2.8-.87-1.28-1.85.74-1.42-1.01 1.3-2.59-.66-.94.11-2.8-.99-1.45 1.93-1.99.23-1.92 1.83-2.15 2.13-1 .03-3.36 1-1.03.54-2.55 1.25-1.48-.42-2.75 1.5-.76.32-1.87 1.86-2.77-.03-2.17-1.08-1.98-2.09-.94-.23-3.51 1.2-1.86.06-2.96-.7-1.62.95-1.98.32-3.37-.62-1.98.92-.72.7-2.76-.57-1.77 1.43-2.42-.8-1.7-1.65-2.09-3.28-.13-.72-1.04-6.34-2.64-1.72-1.16 1.14-1.04 1.5.12 1.22.96 2.37-.06 1.5-2.7 1.95-1.92 2.16-.06 1 1.24 1.92 1 .45-.76.67-3.94 3.07-2.05.95-2.18-.26-1.38-2.44-2.83.32-1.37 2.28-.36 3.4-2.36.52-2.73 2.45-1.54 1.19-2.09 1.29-.42 1.08-3.8 3.8-3.04.64 1.51 1.1.66 1.55-1.06 2.13.66 1.97 5.5L391 24l.94-.3 1.86 1.85 1.13.29 2.8 3.26 1.7-1 2.24-.34 1.8-1.93 1.65-.17.73.96 2.1.5 2.78 1.63.82-2.08 2.23-2.1 4.37 1.82 3.33-1.56.6-3.73 1.17-3.56-.37-1.2.48-1.61-.27-1.77 1.19-.65.54-1.34-1.4-1.87.43-3.9L425 2.16z"/>
    <path region="28" short-name="State House District Rockingham 21" long-name="State House District Rockingham 21" value="1" d="m691.38 768.94 2.45-3.75-.11-2.26-1.87-5.86.16-1.61-1.53-1.31.01-1.6 2.07-1.6 1.73-.08 2.94 1.7 1.14.25 2.07-.57 1.03-2 3.4 1.16 4.76 2.63 3.12 1.36 1.69 1.43 3.52.24 1.2.9 2.2 2.66 1.4.2-1.72 1.83-1.56-.26-1 2.58-2.3-1.14-5.41-5.4-4.73 4.99-1.5 1.24 3.14 6.56-2.34.63-1.47 1.8-6.15.14-1.91-.31-3.41-1.74-1.86-1.34z"/>
    <path region="29" short-name="State House District Hillsborough 10" long-name="State House District Hillsborough 10" value="3" d="m564.79 931.16 4.88 1.57 2.4.03-.75 2.46.35.9-.8 1.74-.1 2 3.25-.14 2.55.75 1.96 2.17 1.37-.19-1.54.36-7.86 1.8-.56-1.1-1.95-.93.73-1.56-.68-1.47-1.9-.62.82-1.66-2.39-2.52-.46-1.84z"/>
    <path region="30" short-name="State House District Grafton 04" long-name="State House District Grafton 04" value="1" d="m375.2 524.12 29.47 4.13 1.74-16.17 2.43-24.1 2.66.6.17-3.27 11.18 17.83 24.84-12.38.33 1.24 28.72-13.62 12.43 29-3.13 1.32-45.85 20.2 2.7 6.13-26.17 10.1 1.59 1.28-5.51 2.26-1.42-.84-1.81-2.14-2.35-.58-1.9-2.5-1.75.85-3.02.03 3.23 9.13-7.52-1.06-6.5-.69-6.45-1.13-8.4-.98z"/>
    <path region="31" short-name="State House District Hillsborough 03" long-name="State House District Hillsborough 03" value="3" d="m562.25 918.33 2.01.7.25 1.26 1.94-.46.85.55 1.34 1.71 2.1-1.14 2.12-.05 1.1-.77-.45 1.7-2.1 1.18 1.06 1.6-1.79-.26-1.62.42-3.18 2.64-.75 1.38-1.84-5.99z"/>
    <path region="32" short-name="State House District Hillsborough 13" long-name="State House District Hillsborough 13" value="6" d="m567.97 909.33 7.46-3.53 2.7-1.1-3.52-7.85 10.33-2.25 9.1 6.89-.45 2.83.77 2.27.83 3.59 1.47 28.42-11.75 2.7-1.45-1.83-2.28-6.2.42-2.69-2.12-2.7-1.29-3-.12-2.05-2-3.29-3.9-2.95-.81-1.03-1.3-4.66z"/>
    <path region="33" short-name="State House District Hillsborough 32" long-name="State House District Hillsborough 32" value="3" d="m445.38 944.41 11.25-2.7-2.47-6.01 2.14-2.97.03-2.77.57-3.38-1.38-2.79-.3-2.16-1.38-1.54 1.44-.74-1.73-3.2 2.97-1.6-2.7-6.4 6.53-2.86 5-2.2 2.83 6.47 22.97-9.76 3.55 8.31 7.68 18.25-22.66 9.37-2.61 1.27 11.23 26.3-24.22 5.33-7.84 1.72-8.94-21.78z"/>
    <path region="34" short-name="State House District Hillsborough 34" long-name="State House District Hillsborough 34" value="3" d="m509.35 898.27-.57-2.84 1-.5-1.01-2.43 6.89-3.21-3.2-5.12 1-.43-3.28-7.28 1.2-.59-1.9-3.68 7.52-3.58 6.92-3.15 7.33 15.83-1.74.76 9.28 20.84 4.27 10.32-12.2 5.06-1 .43-3.53-9.06-1.54-.12-2.84-1.54-1.42.33-1.73-3.25-2.82.2-1.64-2.97-3.04 1.29z"/>
    <path region="35" short-name="State House District Rockingham 04" long-name="State House District Rockingham 04" value="3" d="m599.07 818.08 1.84-24.73 4.77-.08 22.28-.5-1.08 15.12.07.78-.56 6.08-.5 8.1-4.81.2-4.38-.36-4.68 1.45-.05-.62-13.25-.24z"/>
    <path region="36" short-name="State House District Cheshire 02" long-name="State House District Cheshire 02" value="1" d="m327.11 901.87 10.05-5.7.22-.13 5.06 5.07 5.17 3.98-1.25.98-1.44 2.19 1.53 4.93.08 1.8-.04.02-.05.02-3.7-4.13-1.2 1.15-6.82-1.79 1.27-2.66.01-1-2.24-.45-4.16-1.6-1.72-.98z"/>
    <path region="37" short-name="State House District Merrimack 07" long-name="State House District Merrimack 07" value="2" d="m360.85 758.65 3.47-15.04-.16-3.6-1.79-9-3.98-3.64-.54-6.6 11.16-1.28 1.47-6.72 1.33-4.57 5.47 1.64 4.35 2.55 7.92 1.28 2.83 1.25-2.04 7.24 8.32 2.53-16.77 9.19-8.77 4.73 2.6 3.15 22.8 29.95-7.65 4.59-19.07 11.02-12.43-22.24z"/>
    <path region="38" short-name="State House District Sullivan 05" long-name="State House District Sullivan 05" value="1" d="m343.76 742.02-2.12-19.2-1.05-8.41 1.87-12.9-5.02.32 3-9.65 3.21-10 1.44 3.1 34.85-3.3-8.13 26.22-1.33 4.57-1.46 6.72-11.17 1.29.54 6.59 3.98 3.64 1.8 9 .15 3.6-3.47 15.04-3.53.06-8.09 6.3z"/>
    <path region="39" short-name="State House District Rockingham 19" long-name="State House District Rockingham 19" value="1" d="m675.81 819.96 12.37-3.98 7.22-5.28 2.12 2.05 1.95.63 4.13 2.82.26 1.26 1.68 2.11 5.52 1.54-.1.86 3.86 3.89 1.12-1.27.95.98 1.23-.29 3.15 1.49 1.09 2.98-2.1.35.3 1.47-2.08-.5-.74-1.48-2.83.9-2.62-.69-2.02 1.06-2.67.72-4.45.52-1.9 1.62-4.08-.6 1.1 2.86-9.26 1.53-6.18 2.53-2.06-6.64-3.43-8.91z"/>
    <path region="40" short-name="State House District Merrimack 17" long-name="State House District Merrimack 17" value="1" d="m496.3 751.47 1.4-1.04.22-2.06 3.57 2.96-.32 2.01.12 4.65.48.8 2.18.55 1.13 3.23 2.18.89 1.47-1.94-.63 1.9-1.87 2.2-.97-1.4-1.92-1.36-2.95-3.34-1.42-.74-.87-2.08-1.95-1.83-.43-1.59z"/>
    <path region="41" short-name="State House District Rockingham 09" long-name="State House District Rockingham 09" value="2" d="m625.26 832.11 7.66-1.82 5.36 17.75 1.34 3.98-4.5.8-9.26-1.43-.18-.55-6.14 1.02-.82-2.68-5.26-15.69z"/>
    <path region="42" short-name="State House District Coos 05" long-name="State House District Coos 05" value="2" d="m433.72 292.96 16.79-5.07 12.46-3.85 18.43-5.37 10-2.77-1.23 18.05-.91 12-22.03 6.38L433 322.7l-2.17.65z"/>
    <path region="43" short-name="State House District Rockingham 13" long-name="State House District Rockingham 13" value="10" d="m593.93 849.8 24.79-.62.81 2.68.56 1.88 7.23 16.12 1.08 2.35-8.73 3.9-.38-.9-2.47 1.17-19.56 8.37-3.93-11.68-3.14-8.48-5.96-14.52z"/>
    <path region="44" short-name="State House District Belknap 04" long-name="State House District Belknap 04" value="1" d="m490.05 652.46 1.24.05 2.57 1.18 1.51 2.13 9.96 3.93.34-1.3.41-1.5 14.91 6.07-3.78 9.04-3.4 9.77-1.86 4.58-1.74 5.03-1.64 1.29-5.34-2.24-18.28-7.05 2.03-2.38-.27-1.02.67-1.95.03-2.5-1.76-3.36 2.94-.6.76-1.8-.12-1.56-.99-.9 1.28-1.89.84-2.78-.95-2.2.09-1.3 1.15-4.2z"/>
    <path region="45" short-name="State House District Hillsborough 36" long-name="State House District Hillsborough 36" value="2" d="m502.38 926.36 4.06 9.64 5.61-2.24-2.69-6.67 12.16-4.97 2.83 7.2 9.24 23.72-29.8 6.84-15.45 3.41L477.1 937l2.62-1.26z"/>
    <path region="46" short-name="State House District Cheshire 11" long-name="State House District Cheshire 11" value="1" d="m325.78 952.55 10.3-1.84 4.64 11.49 6.2-.09-3.67 5.92 5.9 14.37 4.06 10.4-32.46 6.8-18.03-43.1z"/>
    <path region="47" short-name="State House District Sullivan 01" long-name="State House District Sullivan 01" value="1" d="m315.95 681.45 18.3 3.03-2.11 6.27 3.14.68 5.16.75-3 9.65 5.02-.32-1.87 12.9-6.98-.9-1.11 3.32-20-2.49 1.78-4.6 2.06-6.18-3.06-12.63z"/>
    <path region="48" short-name="State House District Belknap 05" long-name="State House District Belknap 05" value="4" d="m494.29 618.49 5.43 2.62 1.97 1.37 1.26 13.12-2.92.28.2 6.23-1.37-.22-.18 1.61-2.32.74-1.49-.66-1.45-2.1-.94.96.58 1.75 1.83 1.82-.1.93 3.3 2.08 1.04 1.03 3.71-.53.05 3.14 2.6-.4.18 6.2-.34 1.3-9.96-3.94-1.51-2.13-2.57-1.18-1.24-.05-2.9-2.81-1.11-1.94-.5-2.43-1.85-3.88-4.81-2.6-2.05-2.57-1.34-3.45 1.07-1.74 4.27-3.73 2.81-5.73 4.93-5.94z"/>
    <path region="49" short-name="State House District Rockingham 11" long-name="State House District Rockingham 11" value="4" d="m660.55 794.85 11.37-.4 3.75.15 3.16.89.33-.94 3.16-.67.29.89-1 1.88v1.25l1.37 2.9.52 2.17 15.11 5.42-3.2 2.31-7.23 5.27-12.37 3.99-6.03.93-1.46-3.18 1.85-1.2-2.9-6.73-4.73-10.36z"/>
    <path region="50" short-name="State House District Grafton 07" long-name="State House District Grafton 07" value="1" d="m401.94 573.13 1.84-20.51-3.23-9.13 3.02-.03 1.75-.85 1.9 2.5 2.35.58 1.8 2.14 1.43.84 5.5-2.26-1.58-1.28 26.16-10.1 11.58 26.75-31.4 13.4-12.63 3.2-.7-2.4-2.08.35-.58-1.56-1.6-.91z"/>
    <path region="51" short-name="State House District Merrimack 23" long-name="State House District Merrimack 23" value="1" d="m516.87 761.26-1.4-2.17.66-1.67 1.47-.04 2.35 1.41 3.2-3.25 2.1-.59-1.13.84-2.6 4.07-3.6 3.9.48 1.15-1.31.64-1.2-1.68 1.3-1.95z"/>
    <path region="52" short-name="State House District Carroll 03" long-name="State House District Carroll 03" value="2" d="m460.26 572.04 41.7-16.83 8.03-3.08-13.51-29.1-6.13-13.1 8.42-3.46-1.3-3.27 3.34-1.35 1.3 3.25 7.29-2.78 16.64-7.96 7.44-16.21 7.17-2.2 6.87-2.13 2.57 9.66 1.23 4.13 2.66-.86 4.61 7.36 2.83 11.47 1.78-.47 2.19 4.99-3.25 1.31-4.11 2.8-1.26-1-1.2.72-14.99 11.76-12.02 9.82-5.49 16.1 9.16-.74-3.42 8.58-.74 2.38-4.72 12.63-4.75 11.2 2.47 1.98 2.15-.74 2.6.85 2.53 4.2-.65 2.85-2.19 1-1.1 1.4-1.38.43.92 2.32-1.94 2.65 1.97 3.32-.55 1.4-1.86.6-.9-.52-.2-.1-30.4-17-6.5-3.62-22.79-13.34z"/>
    <path region="53" short-name="State House District Strafford 05" long-name="State House District Strafford 05" value="1" d="m639.66 677.9.8 1.1.93 1.27 1.56 2.12 1.98.5 1.6 1.97 1.27-.34 3.4-1.93 1.17-.09 1.18 2.4 2.3 1.27 2.53 1.1.87-.22 1.04 3.45 1.56 1.53 1.29-.38.81 2.1-1.03 2.23 2 .26.84 1.42-1.99 6.16-2.75-1.26.59-1.67-4.92-2.32-2.73-.32-1.25-1.44-4.32-1.84.48-3.83 1.03-2.42-2.25-.7-1.15.62-2.96-1.24-1.23.34-.23-2.27-1.39-3.89-1.54-.66-.37-1.7z"/>
    <path region="54" short-name="State House District Grafton 08" long-name="State House District Grafton 08" value="3" d="m397.96 586.07 2.63.24-.27-2.95.62-6.28 1-3.95 3.52.73 1.61.9.58 1.57 2.08-.35.7 2.4 12.63-3.2 31.4-13.4 1.42-.54 4.38 10.8.52 1.3 8.43 21.55-24.35 10.25-6.5 2.94-.24-2.17-.87-1.28-2.73-2.4-.14-3.1-1.65-2.04-5.6 6.02-4.25 3.99-6.2 6.31-8.96-11.61-6.43-1.4 1.05-7.71-4.93-.52z"/>
    <path region="55" short-name="State House District Rockingham 15" long-name="State House District Rockingham 15" value="2" d="m619.53 851.86 6.15-1.02.18.55 9.25 1.44 4.5-.8 3.7-.56 6.69-1.4-3.12 7.56-1.24 6.83-1.2 2.99-3.22-.07-1.78.68-3.16.37-1.62.67-1.76-1.16-.57 2.06-2.96-3.54-1.08.54-.97 2.86-7.23-16.11z"/>
    <path region="56" short-name="State House District Hillsborough 05" long-name="State House District Hillsborough 05" value="3" d="m544.55 917.07 1.02-3.63 1.17-1.41 10.28 4.35 5.23 1.95 1.04 4.47-.23 1.34-1.66 2.57.17 1.39-1.18 2.05-1.64.96-.68 1.92-1.5.87-.39-3.93-1.66-7.72-2.54-2.58-1.62 1.1-3.37 1.44.82-1.97-2.24-1.34-2-.44z"/>
    <path region="57" short-name="State House District Rockingham 29" long-name="State House District Rockingham 29" value="4" d="m695.4 810.7 3.21-2.31 3.71.02 4.35.33 6.87.08 13.45-.96.2 3-1.6 2-.04 3.74.79 3.23 1.14.76-2.72 1.33-.28 3.73 1.31 5.14-.08 1.18-3.35-2.22-1.09-2.98-3.15-1.49-1.23.29-.95-.98-1.12 1.27-3.87-3.9.11-.85-5.52-1.54-1.68-2.11-.26-1.26-4.13-2.82-1.95-.63z"/>
    <path region="58" short-name="State House District Merrimack 14" long-name="State House District Merrimack 14" value="1" d="m545.22 762.45 2.49-13.1 2.2-13.45 26.89-.69-1.73 12.68-3.53 22.31-.6.03-20.72.66-5.96.3z"/>
    <path region="59" short-name="State House District Coos 06" long-name="State House District Coos 06" value="1" d="m432.99 322.7 34.24-10.37 22.03-6.37.91-12.01 1.23-18.05 5.73-31.97 10.08-3.65 5.62 18.51 6.41 20.19 3.05 9.1 11.15 35.6 3.44 10.64 4.06 13.6 1.85 5.9-8.43 2.7 1.4 2.95 3.5 13.18-7.04 1.88-6.84 2.63-39.31 7.18-3.54 41.3.88-.29 1.94 16.7-3.09.89-2.41 2.84-2.53-1.7-2.84-11.1-7.3-14.04-8.18-2.74-6.01-11.92-5.33-3.56-11.35-13.01 4-2.26-10.58-25.68 8.01-3.64 3.04 6.7 4.56-2.2-1.85-4.17z"/>
    <path region="60" short-name="State House District Merrimack 15" long-name="State House District Merrimack 15" value="1" d="m472.61 759.25 4.06-3.37 13.7-11.57 2.9-2.61 2.23 2.38 2.3 3.08.12 1.21-.21 2.06-1.4 1.04-5.34.14-2.51-.23-.94.68-1.88 2.8-1.2.66-.07 1.44 1.76 2.07-.43.64-.28 3.27-1.5 1.28-1.86.33-1.2 1.89-1.17-1.8-.55-2.6-1.39-.7-1.53.92-1.33-.24z"/>
    <path region="61" short-name="State House District Hillsborough 25" long-name="State House District Hillsborough 25" value="2" d="m551.49 840.77 4.42-1.17 1.56.35 3.64-.92-.06 1.53-2.96 1.5-5.85 1.55z"/>
    <path region="62" short-name="State House District Strafford 16" long-name="State House District Strafford 16" value="1" d="m677.9 729.58.9 1.68 2.28.08.78-.99 2.17.53 1.13-3.73 4.02 1.15 2.07 1.48 1.46.17 2.17 1.95.52 1.01-.48 1.55.86 3.97-.15 4.2 1.78 2.73 1.9 3.77 2.16 1.11-1.03 2.01-2.07.57-1.14-.25-2.94-1.7-1.8-.93 2.39-.1.55-1.6-1.4-2.2-1.19-3.32-2.85-3.35-3.2-2.13-.94-1.1-3.41-1.49-1.17-1-2.69-.79-1.83-1.67z"/>
    <path region="63" short-name="State House District Strafford 09" long-name="State House District Strafford 09" value="1" d="m643.34 696.76.77-.65-1.06-3.04.1-1.3-.84-4.03 1.23-.34 2.96 1.24 1.15-.61 2.25.69-1.03 2.42-.48 3.83-2.48 5.41-.98-2.26-.9.1z"/>
    <path region="64" short-name="State House District Merrimack 18" long-name="State House District Merrimack 18" value="1" d="m506.23 765.62 1.87-2.2.63-1.9 1.38-.48 2.16.28 1.03 2.58.95 1.37-1.82 2.86-2.48 2.12-1.72.8-.96-1.88-1 .84-.6-2.65z"/>
    <path region="65" short-name="State House District Strafford 10" long-name="State House District Strafford 10" value="4" d="m692.5 749.94 1.79.93-1.73.08-2.07 1.6-.01 1.6 1.53 1.3-.16 1.62 1.87 5.86.1 2.26-2.44 3.75-4.61-.08-11.25.7-11.17 5.94-2.5-29.8 15.55 1.13z"/>
    <path region="66" short-name="State House District Merrimack 22" long-name="State House District Merrimack 22" value="1" d="m512.43 768.13 1.82-2.86-.95-1.37 3.57-2.64.31.66-1.28 1.95 1.19 1.68 1.31-.64-.47-1.15 3.6-3.9 2.59-4.07 1.14-.84-.5-1.83.98-4.72 1.65.68-.39 1.98.24 2.67-1.6 5.14-1.12.52.72 5.28 1.25-.25.39 1.96-1.42 1.82-2.24-.03-.9 1.9 2.56 4.19-.66 1.45-1.3.73.67 1.72 1.65-1 1.16 2.2-.4 1.67.14 2.6-3.52-1.63-3.56.2-1.73-1-.08-3 2.67.03-.25-1.5-3.95-3.27.14-1.74-2.55-1.44z"/>
    <path region="67" short-name="State House District Hillsborough 17" long-name="State House District Hillsborough 17" value="2" d="m549.18 834.75 4.08-1.7 1.37-2.16-1.56-1.5 13.16-.05.06.1-5.66 2.53-2 2.34-2.72 2.86-5.19 1.23z"/>
    <path region="68" short-name="State House District Merrimack 05" long-name="State House District Merrimack 05" value="2" d="m420.6 656.77 1.6.44 1.31-1.15 1.41.53.51-1.4 1.36-.63 1.53.2 1.15 1.33-.14 1 2.47 2.33 1.83.17 1.92 1.9 1.68 2.3 5.26 1.77.7 1.5-.25 2.66-9.45 8.07 4.64 2.95 4.55 6.12.45-.44 5.4 9.47 2.83 5.61-1.57 1.29 1.29 7.74 2.02-1.55 1.57 4.21 1 1.32 1.27-.52.52 1.27 2.88.24.98 2.33-10.31 9.2 2.04 1.97.28 2.07 1.83.98 1.83 1.6.88 1.86.11 2.06 1.05.12 1.82 1.92 2 1.1 3.33 4.14 1.2 2.23 1.36-.74 7.93 9.54-4.06 3.37-12.27 10.63-.96-1.14-23.67-27.84-10.8 9.19-8.09-27.28-3.98 3.4-5.24-5.88-9.92-12.9 6.93-5.12-4.75-6.82-3.52 7.08-15.76-22.63 4.19-10.82 1.94-6.14 7.53-15.74 14.08 21.6-.4-1.38 3.08-2.54 1.1-2.8 1.15.1 1.68-1.65 1.48.57 1.4 2.1z"/>
    <path region="69" short-name="State House District Grafton 06" long-name="State House District Grafton 06" value="1" d="m299.45 541.28 25.38 4.8 10.7 1.63.31-1.52 2.63.39.54 1.89 35.9.29 8.4.98 6.45 1.13 6.5.69 7.52 1.06-1.84 20.5-1 3.96-.63 6.28.28 2.95-2.63-.24-36.05-3.15-17.59-1.83-8.17-1.36-7.63-.94-39.15-3-1.69-2.23.17-2.5 2.2-.77.23-2.32 1.03-3.63 3.29-3.8.35-1.4 1.89-2 .86-2.69-.67-3.89-1.39-3.04.2-1.59 1.52-.45 1.33-1.55z"/>
    <path region="70" short-name="State House District Strafford 02" long-name="State House District Strafford 02" value="3" d="m605.34 662.04 4.97-12.2 4.97-12.6 4-10.3 4.95-12.01 1.26-2.41.25 2.11 1.64.95.88 2.25 1.4 1.97-.14 2.33.68 4.87-.55.75-.83 4.6.92 1.8-1.27 1.61 1.17 1.01 1.71-.22 1.64 2.08-.1 6.13 2.04 2.26.58 1.63-1.61 1.73.64 1.94-1 2.64-1.74 1.87-.52 2.05 1.06 3.77 1.38 1.23.41 1.59-1.02.78 1.2 2.22.44 2.42.78 1.26 2.86 2.58.98 1.38.3 1.8-.9 1.3.38 1.7 1.54.67 1.4 3.89.22 2.27.84 4.03-.1 1.3 1.06 3.04-.77.65-.37-1.5-3.1-.9-.69-1.96-1 .72v1.43l1.4 3.43-2.86.93-3.52 1.75-1.92 1.75 3.9 1.81 2.2 2.29-.34 5.1-.47 1.14-8.02-3.9-2.6-1.43-5.04-2.3 2.8-6.09 5.74-14.66 4.55-10.95-2.48-.86-17.33-7.19-.15.44-6.19-3.07z"/>
    <path region="71" short-name="State House District Strafford 03" long-name="State House District Strafford 03" value="1" d="m574.91 626.88 1.72-3.73 3.92-10.56 10.37 22.2.74-2.3 1.63 1.6.85-2.05 1.34 1.28.45-2.14 1.75 1.8 2.43-8.42 1.42.77 1.32-1.84 1.3.94 1.08-2.17.94 1.6 1.2-2.23 7.91 15.6-4.97 12.61-4.97 12.2-12.25 29.45-1.84-3.79-8.32-19.21-7.4-17.79-5.49-13.48z"/>
    <path region="72" short-name="State House District Strafford 04" long-name="State House District Strafford 04" value="3" d="m580.22 721.43 5.07-10.04 2.12-6.68 5.68-13.22 22.44 10.82 5.38 2.81 5.04 2.3 2.6 1.43 8.02 3.9 11.3 5.53 9.98 4.73-1 3.22-.28.89-1.34 4.36-7.85 27.56-18.5-8.81-13.16-6.18-37.46-18.4z"/>
    <path region="73" short-name="State House District Strafford 06" long-name="State House District Strafford 06" value="1" d="m644.04 698.22.89-.1.98 2.26 2.48-5.41 4.32 1.84 1.25 1.44 2.73.32 4.92 2.32-.59 1.67 2.75 1.26-1.86 5.82-5.13-2.28-3.44-.7-.67 1.53-3.51-2.36-3.45-.97.17-2.53-1.7-1.94z"/>
    <path region="74" short-name="State House District Strafford 08" long-name="State House District Strafford 08" value="1" d="m643.34 696.76.7 1.46.14 2.17 1.7 1.94-.17 2.53-3.06-1.93-2.77 1.42 2.98 1.4.93-.32 1.97 1.03-.2 1.04-2.57 1.12-3.22.52-1.45-1.04-.93-1.59-2.22-2.29-3.9-1.81 1.93-1.75 3.52-1.75 2.86-.93-1.4-3.43v-1.43l1-.72.69 1.96 3.1.9z"/>
    <path region="75" short-name="State House District Grafton 10" long-name="State House District Grafton 10" value="1" d="m416.67 613.41 6.21-6.31 4.24-4 5.61-6 1.65 2.03.14 3.1 2.73 2.4.87 1.28.24 2.17-.33 1.7 1.25 2.3.17 2.43-.65 2.23.94 2.64 1.66 2.79-.38 1.55.78 1.5-.71 1.97 2.42 3.45-2.82 3.59 1.02 1.82-.06 1.37-1.49.34-3.6 4.57-2.37.87-1.83.08-1.32-1.8-1.37.55-1.25 2.33-1.28.11-1.13 1.5.16 1.52 3.36 1.26 1.61 1.43-.32 1.7-1.3 1.49.53 1.45-.58 1.26-1.15-1.32-1.53-.2-1.35.63-.51 1.4-1.42-.54-1.3 1.16-1.62-.44-.27-.52 1.8-4.32-13.45-19.68-4.58-6.25z"/>
    <path region="76" short-name="State House District Hillsborough 31" long-name="State House District Hillsborough 31" value="1" d="m396.25 875.31 23.6-10.4 5-2.12 1.8 4.25.54 2.43 1.12 1.6-2.46 1.12.43.8 2.55-1.04.38 1.4 4.33.7 11.83-4.98 3.66 8.25 12.45-5.24.53 1.16-1.66.8 1.25 2.92 1.45-.73 1.6 2.16.8-.37.84 1.97 1.5 1.33-2.47 1.08 1.87 3.93-2.64 1.25.84 1.93-2.18.92 1.14 2.34-3.29 1.72 2.94 5.74-5.1 2.14 1.45 2.91-6.53 2.88-5.5-12.82-4.14-9.98-17.4 7.73-8.65 4.34-.88.72-1.94-4.62-14.44 3.35-1.66-7.5z"/>
    <path region="77" short-name="State House District Grafton 12" long-name="State House District Grafton 12" value="4" d="m289.56 576.1-.2-.31 39.16 3 .69 21.3.59 16.3-4.81-.35-13.33 32.78-.63 2.05-16.49-1.18-13.32-.86-3.56-.21-6.44-.38.23-5.25 1.4-2.26 1.07-3.67 1.77-3.15.35-2.3 1.81-.65 4.08-4.5 2.5-1.72.64-1.44 1.33-5.71 3.11-3.63-1.31-4.73 1.94-3.4.33-3.29 1.14-1.75-.54-2.81-1.26-1.5-.8-2.03.62-4.2-1.17-3.87-2.27-3.57.43-3.65 1.96-.9 1.49-1.33z"/>
    <path region="78" short-name="State House District Grafton 13" long-name="State House District Grafton 13" value="1" d="M271.23 648.27v-.03l6.43.38.7 1.05-2.34 5.21-.72 2.1 2.43 1.4 5.8 10.87 1.47 1.54 1.64-.3 1.34 2.12 2.07 1.34.7 2.4-.38 1.26-3.38 1.8-1.68.16.98 2.06-12.93.83-.1-2.09-2.48-2.66-.34-3.88.8-2.27-.6-2.2 2.7-2.33-1.05-5.38 1.16-4.2-.36-4.26-1.19-1.57z"/>
    <path region="79" short-name="State House District Grafton 14" long-name="State House District Grafton 14" value="1" d="m277.66 648.62 3.56.21 1.51 3.11 4.2 3.78 2.02 2.1 1.3.66-1.7 3.98 1.62-.42.67 2.26 1.5.36 3.37 2.42 1.8-2.17v-2.6l2.56.1 1.84 2.49 1.94.66 3.51 3.47-1.84 10.87-19.23 1.73-.98-2.06 1.68-.15 3.38-1.81.38-1.25-.7-2.4-2.07-1.35-1.34-2.12-1.64.3-1.47-1.54-5.8-10.86-2.43-1.4.72-2.11 2.35-5.21z"/>
    <path region="80" short-name="State House District Strafford 17" long-name="State House District Strafford 17" value="1" d="m656.85 726.23 5.23 1.86 1.36 1.04 7.24-.22 2.27-.82 1.02-2.19 1.6.93 2.08-.37 1.64 2.05 1.18.05-2.57 1.02-1.15 1.62 1.83 1.66 2.7.8-2.16 5.49-2.89 1.18-19.66-13.21z"/>
    <path region="81" short-name="State House District Rockingham 01" long-name="State House District Rockingham 01" value="3" d="m575.07 747.9 1.73-12.68 1.31-5.28.15-4.3 37.46 18.4 13.15 6.19 18.51 8.81-6.45 23.02-12.42 3.45-.55 7.27-22.28.5 1.04-6.22h.3l1.5-6.9-4.5.2 2.71-8.08 4.96 2.53 2.08-5.85-5.3-1.76 3.05-9.5-25.55.5-1.52-.6-.33-2.4-1.66-1.06-1.74-1.8-1.07.47 1.22-4.34-1.8-.47z"/>
    <path region="82" short-name="State House District Rockingham 12" long-name="State House District Rockingham 12" value="2" d="m682.32 793.88-1.11-2.68-.96-1.2 2.06-4.12 1.95-1.68.3-4.03.59-1.78 11.79 4.5-.4 1.78 4.04 1.64-.72 1.74 1.38.36-.85 6.59-1.78 13.39-15.11-5.42-.52-2.16-1.37-2.9v-1.26l1-1.88z"/>
    <path region="83" short-name="State House District Rockingham 14" long-name="State House District Rockingham 14" value="2" d="m646.88 857.63 3.12-7.55 2.58-1.23-4.56-19.66-.43-2.58 1.07-.31 16.22-4.32 4.9-1.1 6.03-.92 1.53 4.53 3.43 8.9 2.06 6.65-8.07 3.94-2.53.54-9.13 2.8-1.75 5.78.84 3.53-1.64 4.95-3.27.05-8.38-5.36z"/>
    <path region="84" short-name="State House District Cheshire 01" long-name="State House District Cheshire 01" value="1" d="m346.49 915 .04-.01 1.09-.63.98 1.32 1.5-.55 1.67 2.83 1.56 1.52 2.58-.02 2.98-.5 2.09-1.37 1.75.64.2.81-2.28.8-.39 1.66-3.66.98-.16-1.55-15.72 4.14-1.02-2.86.15-1.74 4.47-.7z"/>
    <path region="85" short-name="State House District Cheshire 04" long-name="State House District Cheshire 04" value="1" d="m324.61 903.26 2.5-1.4.77 1.71 1.72.98 4.16 1.6 2.24.44v1.01l-1.27 2.66 6.8 1.78 1.22-1.14 3.69 4.13-2.26 1-3.35.22-2.21-1.64-3.8-1.97-2.67-.64-3.66-3.43-1.7-2.02z"/>
    <path region="86" short-name="State House District Cheshire 05" long-name="State House District Cheshire 05" value="1" d="m281.57 845.67 5.25-.75 2.28 8.53 15.55-2.62 9.5 24.1 12.79-4.6 10.22 25.84-10.05 5.7-2.5 1.4-3.72 2.08-2.63-13.95-4.22.73-8.95 1.1-12.84 2.8-1.58-2.62-.38-4.48-2.06-2.05-.83-1.73.48-1.91 1.78-2.75 1.73-3.4 1.38-4.26-.18-1.8-3.29-4.52.15-2.04 1.13-1.7.2-1.62-.59-1.95-3.49-3.1.02-2.1-3.12-.4-1.94-2.38-.17-1.08.77-2.31z"/>
    <path region="87" short-name="State House District Cheshire 07" long-name="State House District Cheshire 07" value="1" d="m337.38 896.04 10.52-6.42 2.83 6.8 8.04 1.1-1.62 1.49-.56 1.83.42 3.42-1.22 1.54.4 2.28-1 1 1 5.29 1 2.04 4.65-1.69.88 3.5-1.74-.63-2.1 1.36-2.97.5-2.58.03-1.56-1.52-1.67-2.83-1.5.55-.98-1.32-1.09.63-.08-1.8-1.53-4.93 1.44-2.19 1.25-.98-5.17-3.98z"/>
    <path region="88" short-name="State House District Cheshire 08" long-name="State House District Cheshire 08" value="1" d="m395.21 870.37 1.04 4.94 2.96 14.07 1.66 7.5 14.44-3.34 1.94 4.62 1.56 3.66-40 9.14 5.45 12.63 1.96-.37 2.24 5.52-1.82.4 3.3 7.66-1.84 1.02-1.17-2.5-10.07 4.52-.77-1.18-2.3-1.46-3.98-3.58-3.28 1.25-1.8-7.91-3.62-.22.9-5.17-1.75-.07.39-1.66 2.28-.8-.2-.81-.89-3.5-4.65 1.68-1-2.04-1-5.3 1-1-.4-2.27 1.22-1.54-.42-3.42.56-1.83 1.62-1.5-8.04-1.09-2.83-6.8-6.77-15.81.72-.56 14.01-5.79 6.55-1.28 2.03 7.6 5.46-1.05.19 2.96z"/>
    <path region="89" short-name="State House District Merrimack 08" long-name="State House District Merrimack 08" value="3" d="m371.8 787.32 19.07-11.02 7.65-4.59 6.77-3.54 18.23-9.2-4.45-6.83-10.99-15.45.9-2.77 4.16-5.63-.3-2.09 3.98-3.39 8.09 27.28 10.8-9.19 23.67 27.83-14.68 8.48 13.02 16.45 9.55 12.42-15.1 8.54-3.3 2.11L438 823l-7.62-9.58L415 794.26l-20.46 11.71-2.24 1.41-11.46-10.19-3.87-11.08z"/>
    <path region="90" short-name="State House District Cheshire 14" long-name="State House District Cheshire 14" value="1" d="m437.48 946.08 7.9-1.67 1.96 4.16 8.94 21.78-13.56 3.1-25 5.35-.25.05-10.26-26.44 20.14-4.17z"/>
    <path region="91" short-name="State House District Merrimack 10" long-name="State House District Merrimack 10" value="4" d="m482.62 797.25 9.4-5.37 4.3 1.98 11.11 4.63-.59.95 2.48.85-1.17 3.14.84 2.06 20.34 8.41 7.48-19.46.54 1.63 2.16-1.46 27.3-.47-1.6 12.16-1.74 12.44-2.9.1 2.84 5.21 1.11 2.88 1.71 2.41-13.16.05-2.55.04-3.46-8.13-4.09 4.38-3.05-1.63-2.35-3.18-5.84 2.35-3-6.5-20.44 9.21-9.8 4.31-6.88-14.5z"/>
    <path region="92" short-name="State House District Merrimack 19" long-name="State House District Merrimack 19" value="1" d="m496.15 754.87 1.95 1.83.87 2.08 1.42.74 2.95 3.34 1.92 1.35.97 1.41-.56 1.74.6 2.66 1-.85.96 1.89 1.72-.81.49 1.01-4.35 3.43 2.01 2.55-1.23 1.69-3.73 6.37-2.35 3.32-.6 2.35-16.03-18.12 7.7-3.1 1.52-1.9-1.94-2.94-1.98-1.32-.1-1.47 1.5-.17 1.18-1.75 1.86-1.2-.56-2.18z"/>
    <path region="93" short-name="State House District Carroll 01" long-name="State House District Carroll 01" value="3" d="m565.77 428.94 3.1 9.9 12.28 40.4-14.5 3.89-4.31-13.48-7.52 2.1 3.94 13.46-4.78 1.54-2.66.86-1.23-4.13-2.57-9.66-6.87 2.14-4.68-10.25-8.8-18.3-4.01-9.69 7.07-2 4.42-.55 5.9-1.56 22.04-6.38.98 2.72z"/>
    <path region="94" short-name="State House District Carroll 02" long-name="State House District Carroll 02" value="2" d="m476.74 478.38-3-7.16 1.16-2.98 3.46-13.78.36-1.99-4.92 1.42-6.58-9.33.71-2.52-1.39-5.22-6.06-12.1-7.68-2.58-7.4-14.42 2.55-1.15 5.04-2.28L459 416.2l8.19 2.74 7.29 14.04 2.84 11.1 2.53 1.7 2.41-2.84 3.1-.88-1.95-16.7-.88.28 3.54-41.3 39.31-7.18 6.84-2.62 7.04-1.89-3.5-13.18-1.4-2.96 8.43-2.69 2.86 9.07 1.3 4.68 14.39 47.04 4.43 14.34-2.2 1-.98-2.72-22.03 6.38-5.9 1.56-4.43.56-7.07 2 4.02 9.69 8.79 18.29 4.68 10.25-7.17 2.19-7.44 16.21-16.64 7.96-7.3 2.78-1.29-3.25-3.35 1.35 1.31 3.27-8.42 3.45 6.13 13.12 13.5 29.09-8.03 3.09-41.7 16.82-4.37-10.8-1.42.54-11.58-26.75-2.68-6.13 45.84-20.2 3.13-1.32z"/>
    <path region="95" short-name="State House District Carroll 04" long-name="State House District Carroll 04" value="2" d="m553.98 486.75 4.78-1.54-3.94-13.46 7.52-2.1 4.3 13.48 14.5-3.9 2.92 10.22 6.1 19.9 4.69 16.52 4.76 13.52 4.31 13.17 1.37 4.95 3.21 9.62 5.57 16.7 1.16 3.71 4.8 15.4 1.2.2 2.25 1.63 1.82.7.74 1.9 1.36.85-.02 2.52-1 1.69-.9.09-1.25 2.4-4.94 12.03-4 10.29-7.92-15.6-1.2 2.21-.94-1.6-1.07 2.18-1.31-.94-1.32 1.84-1.42-.77-2.43 8.42-1.75-1.8-.45 2.14-1.34-1.28-.85 2.04-1.64-1.59-.73 2.3-10.37-22.2 3.54-8.73 3.7-8.5 4.11-9.84 7.44-18-36.29-16.72v-.49l8.26-20.16-.78-.05-2.8-2.2-2.48.39.95 3.51-.56 1.97-.8.35v2.76l-5.17.38-3.4-.26-2.45-3.43-.97-.86-3.26-.99-1.78.3-.59-3.12-1.15-1.34-1.95-1.15-.17-.87-2.04-.6-1.33.75 15-11.76 1.19-.72 1.26 1 4.1-2.8 3.26-1.31-2.19-4.99-1.77.47-2.84-11.47z"/>
    <path region="96" short-name="State House District Hillsborough 01" long-name="State House District Hillsborough 01" value="4" d="m594.36 906.6 1.64-.4 2.1 1.15-.09 1.06 1 1.88 18.25-.28 6.6-.1 4.97 3.66-1.91 2.75-2.25 4.66-1.45 5.93-2.58 6.08-9.25 2.38-5.65 1.14-9.07 2.09-1.48-28.43z"/>
    <path region="97" short-name="State House District Carroll 06" long-name="State House District Carroll 06" value="2" d="m521.57 607.93 1.86-.6.55-1.4-1.97-3.33 1.94-2.65-.92-2.32 1.37-.44 1.11-1.38 2.19-1.01.65-2.85-2.52-4.2-2.6-.85-2.16.74-2.47-1.98 4.75-11.2 4.72-12.63.74-2.38 3.42-8.58 5.16 6.3 18.37 22 6.63 2.33 1.8-4.93 9.07 3.4 1.16-1.17 17.48 6.72-4.1 9.83-3.71 8.51-3.54 8.73-3.92 10.56-1.72 3.73-11.21-4.62-.5 2.66-1.1 1.02-6.06-3.7-8.3-.32-22.92-12.35-.67.3z"/>
    <path region="98" short-name="State House District Hillsborough 08" long-name="State House District Hillsborough 08" value="3" d="m565.13 928.79.75-1.38 3.18-2.65 1.62-.4 1.78.26 2.46 5.1-.47 1.26-2.39 1.78-2.39-.03-4.88-1.57.92-1.41z"/>
    <path region="99" short-name="State House District Sullivan 04" long-name="State House District Sullivan 04" value="1" d="m286.82 844.92 6.77-.98-5.76-12.07 2.5-.94-.38-1 15.86-6.65-5.36-11.66-3.08-6.31 25.86-11 2.73-1.12 19.46-8.83-3.98-9.35.88.06.24-2.6 2.2.2.6-6.35 4.12-.29-.25-1.02 8.09-6.3 3.53-.06-1.48 6.42 12.43 22.25 5.17-1.21 3.87 11.08 11.46 10.19-6.59 3.74 5.45 7.02-.9 12.05-21.79 5.26-14.33 2.86-.2-6.4 1.23-12.75-25.93 11.16-1.93.88-15.22 6.17 1.15 2.6-12.01 2.1 3.42 8.76-15.55 2.62z"/>
    <path region="100" short-name="State House District Sullivan 06" long-name="State House District Sullivan 06" value="3" d="m312.5 714.34 20 2.49 1.1-3.32 7 .9 1.04 8.4 2.12 19.2h-4.73l-11.71-.3-22.77-.73-3.56-11.42-1.19-7.44 1.64-1.02 5.05.77 1.74-8.06zm-40.72 33.1v-.1l1.27-.12 17.05-3.32 14.45-2.92 4.53 17.18 4.3 15.3-11.07 2.36-6.87 1.96-.63 1.62.76 1.97-3.6 1.14-.36-4.72-14.27 2.51.05-.2.69-3.02 1.73-3.91-.57-.94-3.02.68-2.82-1.04-.72-1-1.18-3.71.02-2.93 1.7-3.3-.78-7-.34-1.5z"/>
    <path region="101" short-name="State House District Belknap 07" long-name="State House District Belknap 07" value="3" d="m520.66 607.4.91.53 2.58 1.94.67-.3 22.92 12.35 8.3.32 6.07 3.7 1.09-1.01.5-2.67 11.21 4.62-4.87 10.34 5.49 13.48 7.4 17.79 8.32 19.21 1.84 3.79-5.68 13.22-2.12 6.68-5.07 10.04-34.51-14.09 1.8-4.96 6.53-18.78 4.58-12.87-11.87-4.29-8.25-18.68-3.43-8.32-4.7-10.55 1.48-.49 1.55.33 1.21-1.4-1.04-2.88-.96-1.3-3.3.77-1.3-.06z"/>
    <path region="102" short-name="State House District Hillsborough 14" long-name="State House District Hillsborough 14" value="2" d="m560.42 870.46 4.17 4.26 10.02 22.13 3.51 7.86-2.69 1.1-7.46 3.52-1.7-1.12-1.76-1.64-1.27-3.78-1.77-1.08-.22-1.54-2.73-4.21.07-2.92-.45-1.54-2.1-3.63-.07-1.75 2-6.1 1.42-2.93.35-3.07.73-1.89z"/>
    <path region="103" short-name="State House District Hillsborough 19" long-name="State House District Hillsborough 19" value="2" d="m539.62 840.43 1.69.72.48 1.31 1.6.75 2.8.6 2.58-.77.68 2.22-.22 1.87-.32 2.98-3.62 1.76-2.66-6.3-.48.2z"/>
    <path region="104" short-name="State House District Belknap 02" long-name="State House District Belknap 02" value="2" d="m490.07 590.3 30.4 17-2.53.52-2.24-1.87-1.78-.86-2.93.57-1.02.84.7 1.73.6 3.08-1.36 1.15-2.4-2.22-2.35 1.52-1.1 3.26-1.28.68-1.9-.02-1.65.72-2.34-.2-1.73.9-.87 1.39-5.72-2.85-4.93 5.94-2.8 5.73-4.28 3.73-1.07 1.74 1.34 3.45 2.05 2.56 4.8 2.61 1.86 3.88-5.7-.07-5.31-.3-4.74.08-20.54-1.1 4.97-8.26 12.35-21.7 5.58-9.14 4.07-6.99 3.67-5.97 1.96 1.27 3.73 1.78 1.51-.87z"/>
    <path region="105" short-name="State House District Hillsborough 21" long-name="State House District Hillsborough 21" value="2" d="m542.97 825.68 4.09-4.38 3.46 8.13 2.55-.04 1.56 1.5-1.37 2.17-4.08 1.69-2 .89-1.44-.68-3.26-4.8-.2-1.5z"/>
    <path region="106" short-name="State House District Hillsborough 22" long-name="State House District Hillsborough 22" value="2" d="m539.07 839.29 2.9.4.4.76 2.2-1.5-.62-2.08.85-.5 2.25.22-.74 1.54 1.42.84 1.04 4.07-2.57.77-2.82-.6-1.6-.75-.47-1.3-1.7-.73z"/>
    <path region="107" short-name="State House District Hillsborough 33" long-name="State House District Hillsborough 33" value="2" d="m417.25 898.15.88-.72 8.66-4.34 17.39-7.73 4.14 9.98 5.5 12.82 2.7 6.38-2.97 1.6 1.73 3.21-1.44.74 1.39 1.54.29 2.16 1.38 2.79-.57 3.38-.03 2.77-2.14 2.96 2.47 6.01-11.25 2.71-7.9 1.67-13.9-32.32-4.77-11.94z"/>
    <path region="108" short-name="State House District Merrimack 24" long-name="State House District Merrimack 24" value="1" d="m493.28 741.7 10-9.13 9.09 10.44 13.37 5.39-.99 4.72.5 1.83-2.1.6-3.2 3.24-2.36-1.41-1.46.04-.65 1.67 1.4 2.17-3.59 2.64-1.02-2.58-2.16-.28-1.38.48-1.47 1.94-2.18-.9-1.13-3.22-2.18-.56-.48-.8-.12-4.64.32-2.01-3.57-2.96-.12-1.2-2.3-3.09z"/>
    <path region="109" short-name="State House District Cheshire 09" long-name="State House District Cheshire 09" value="1" d="m390.27 830.19 1.04-.25 1.85 17.16.37-.19 1.68 23.46-25.12 5.32-.2-2.96-5.45 1.06-2.03-7.6-6.55 1.27-14 5.78-.74.57 6.78 15.8-10.52 6.43-.22.13-10.22-25.83-12.8 4.59-9.49-24.1-3.42-8.76 12-2.1-1.15-2.6 15.23-6.17 1.93-.88 25.93-11.16-1.23 12.76.2 6.4 14.33-2.87z"/>
    <path region="110" short-name="State House District Hillsborough 18" long-name="State House District Hillsborough 18" value="2" d="m531.73 823.23 5.84-2.36 2.35 3.18 3.05 1.63-.7 2.98.2 1.5 3.27 4.8 1.3 1.63-2.24-.22-.85.5.62 2.08-2.2 1.5-.4-.75-2.9-.41z"/>
    <path region="111" short-name="State House District Rockingham 24" long-name="State House District Rockingham 24" value="2" d="m690.54 770.4 1.86 1.35 3.4 1.74 1.92.3 6.15-.14 1.47-1.8 2.34-.62 1.96 4.19 4.2 10.27 2.5.6 5.3-.23 6.21-17.1 1.36-2.2 1.12-.31 1.73.74 2.37-.49 1.51 1.52.57 2.35-.65 4.49-1.97 2.33-.44 2.08.39 1.98-.26 1.86-1.15.7-.61 2.87.85.66-.94 2.6.12 1.4-1.68.6-.77 1.97-.17 2.5.68 2.25-1.15 1.92-3.52-1.06-2.22-1.84-5.23-.32-1.17.24 2.31-5.6-14.78 1.07-3.76 1.73.85-6.6-1.38-.35.72-1.74-4.04-1.64.4-1.78-11.8-4.5 2.73-3.43z"/>
    <path region="112" short-name="State House District Belknap 01" long-name="State House District Belknap 01" value="1" d="m438.36 608.08 6.5-2.94 24.35-10.25-8.43-21.54 22.79 13.33 6.5 3.63-2.98 3.7-1.5.88-3.73-1.79-1.97-1.27-3.67 5.97-4.07 6.99-5.58 9.14-12.35 21.7-4.97 8.27-12.02 19.89-1.68-2.3-1.92-1.9-1.83-.17-2.47-2.33.14-1 .58-1.27-.54-1.45 1.3-1.5.33-1.69-1.61-1.42-3.36-1.27-.16-1.52 1.13-1.5 1.28-.11 1.25-2.33 1.37-.54 1.31 1.79 1.84-.08 2.38-.87 3.6-4.57 1.48-.34.06-1.37-1.02-1.82 2.82-3.59-2.42-3.45.71-1.96-.78-1.5.38-1.56-1.66-2.79-.95-2.64.66-2.23-.17-2.42-1.25-2.3z"/>
    <path region="113" short-name="State House District Hillsborough 20" long-name="State House District Hillsborough 20" value="2" d="m549.23 847.13 3.65-.76-1.16-1.12 1.4-.36.33 1.26 2.32-.6.37 1.42-.07 1.58 2.7.86 1.15 1.35-3.09 2.67-2.25 2.42-3.38-1.75-2.3-3.99z"/>
    <path region="114" short-name="State House District Grafton 01" long-name="State House District Grafton 01" value="3" d="m329.6 386.53.9-1.14 3.36-1.93 1.2-1.97-1.89-3.3.5-2.06-1.1-.82-.26-2.37 1.22-1.04 1.4-.16.65-1.16-1.3-1.33v-1.13l2.3-3.18 3.06-.63 2.64-3.14 5.62 5 4.38 4.16 14.07 12.5-5.8 7.7-4.8 7.22-8.26 12.92 12.45 3.13.95 1.38-2.76 28.61-8.44-.6-14.05-.94-13.61-1.01-.76 2.5-2.33.67 13.3 29.87-6.3-1.33-12.3-2.2-17.23-3.34-1.1-.24-.13-1.71-1.32.3-1.92-1.8-2.18-3.78-3.11-3.09-.26-2.63.82-1.53v-2.11l-.76-1.4.82-1.17.17-2.32-.93-2.45.3-4.77-1.06-1.81-1.24-.77-2.35-3.14-.94-2.2.13-2.18-2.07.85-.6-1 .2-2.29.84-3.6 1-1.86 1.63-.98 1.35-1.84 1.1-2.74-.99-4.7-.66-1.64.76-.93 2.75.12 3.42-2.34 3.72-3.65v-1.89l.77-.67 4.6-.83 4.4-1.59 2.63.07 1.41-1.05.6-1.83 1.51-2.09 1.84-1.18 1.86-.14 8.48 1.9 2.33-1.92 2.26-.88z"/>
    <path region="115" short-name="State House District Belknap 06" long-name="State House District Belknap 06" value="4" d="m494.29 618.49.87-1.39 1.73-.9 2.34.2 1.64-.72 1.92.02 1.27-.68 1.1-3.26 2.35-1.52 2.4 2.22 1.35-1.15-.58-3.08-.71-1.73 1.02-.84 2.93-.57 1.78.86 2.24 1.87 2.52-.52.2.1 7.34 16.46 1.3.06 3.3-.77.97 1.3 1.04 2.88-1.21 1.4-1.55-.33-1.48.49 4.7 10.55 3.43 8.32 8.25 18.68 11.87 4.29-4.58 12.87-6.53 18.78-1.8 4.96-37.14-14.61 1.64-1.29 1.73-5.03 1.88-4.58 3.4-9.77 3.77-9.04-14.9-6.06-.42 1.5-.18-6.2-2.6.4-.05-3.14-3.7.53-1.05-1.03-3.3-2.08.1-.93-1.83-1.82-.59-1.75.95-.97 1.45 2.1 1.48.67 2.33-.74.18-1.61 1.37.22-.2-6.23 2.92-.28-1.26-13.13-1.97-1.36z"/>
    <path region="116" short-name="State House District Hillsborough 26" long-name="State House District Hillsborough 26" value="2" d="m552.24 843.61 5.85-1.55 2.96-1.5.17 4.1-.63-.46-2.07.87-.34 1.07-2.04.83-.37-1.42-2.32.6-.33-1.26-1.4.36z"/>
    <path region="117" short-name="State House District Strafford 15" long-name="State House District Strafford 15" value="1" d="m677.9 729.58 2.57-1.03.99-5.09 5.05.47 2.29-1.54 1.4 2.58 1.27.2 2.9-1.1.32 1.87-1.45 1.22-.01 1.06 2.38 3.93-.21.76-.52-1.01-2.17-1.95-1.46-.17-2.07-1.48-4.02-1.15-1.13 3.73-2.17-.53-.78.99-2.28-.08z"/>
    <path region="118" short-name="State House District Merrimack 03" long-name="State House District Merrimack 03" value="2" d="m442.94 669.72 1.08 1.61 2.75 1.93 1.26 1.71 2.13.73 1.6-.07 2.75.85.76 1.45 3.53-2.48 3.37 4.55.55-.41 1.65 2.66-.98.72 1.7 3-.7.54 3.43 4.65-2 .8 1.1 2.28.71-.46 1.28 2.21-2.22.9 3.23 7.62-4.05 1.55.86 3.1-.02 3.53-.67 1.01-4.72 4.13-.98-2.33-2.88-.24-.52-1.27-1.27.52-1-1.32-1.57-4.21-2.02 1.55-1.28-7.74 1.56-1.29-2.83-5.61-5.4-9.47-.45.44-4.55-6.12-4.64-2.96z"/>
    <path region="119" short-name="State House District Rockingham 03" long-name="State House District Rockingham 03" value="1" d="m593.93 849.8-.41-12.78.42-.04-.04-4.79-1.1.1.1-2.98-.5-6.93-.68-4.36 7.35.06-.36 5.2 13.26.24.05.62 4.68-1.45 4.38.37 4.82-.21-.64 9.26-11.8 1.38 5.26 15.69z"/>
    <path region="120" short-name="State House District Merrimack 04" long-name="State House District Merrimack 04" value="2" d="m468.69 721.26 39.88-28.53 37.14 14.61-11.3 29.84-4.93 12.76-2.09-.86-1.65-.69-13.38-5.38-9.09-10.44-10 9.13-2.9 2.61-.18-1.5-1.13-1.65.83-1.69-.84-1-2.79 1.6-.8-1.46.85-3.73h-1.22l-2.14 1.13-3.57-.84 1.24-1.46.17-1.25-1.5-.8-1.6 1.83-1.18-1.11.06-1.98-2.32-1.65-.73-1.43v-2.2l-1.2-1.74-3.33-1.4z"/>
    <path region="121" short-name="State House District Sullivan 03" long-name="State House District Sullivan 03" value="3" d="m279.82 819.1-2.32-3.63-.71-3.08.38-2.2 3.04-2.64 1.76-7.77-.27-7.66.73-3.8-.92-1.3-1.55-.86-2.22-2.18-.79-1.3.4-2.38 14.26-2.5.36 4.71 3.6-1.14-.76-1.97.63-1.62 6.87-1.96 11.06-2.35-4.3-15.31-4.52-17.18 22.77.73 11.7.3h4.74l5.47 23 .25 1.02-4.13.3-.6 6.34-2.19-.2-.24 2.6-.88-.06 3.98 9.35-19.46 8.83-2.73 1.11-25.86 11 3.08 6.32 5.36 11.66-15.86 6.66.38 1-2.5.93 5.76 12.07-6.77.98-5.25.75-1.09-3.78 1.44-2.57-.1-1.58-2.07-2.1-.5-1.11 2.28-4.45-1.85-4.24-.32-1.35z"/>
    <path region="122" short-name="State House District Rockingham 27" long-name="State House District Rockingham 27" value="1" d="m718.92 768.51 1.95-.79-.4 1.58.43 2.84 1.96-.49 2.67-1.33.81-1.36h1.51l-6.22 17.1-5.3.22.14-1.26 2.41-5.39 1.5-1.71.52-3.66-2.03-1.2-.33-1.19 1.5-2.25z"/>
    <path region="123" short-name="State House District Hillsborough 35" long-name="State House District Hillsborough 35" value="2" d="m524.35 929.32 3.37-2.34.33-3.24 1.19-.51 2.65-2.55-1.04-2.4 12.21-5.07 1.5 3.86-.99 1.4 2 .43 2.24 1.34-.82 1.97 3.37-1.44 1.62-1.1 2.54 2.58 1.66 7.72.4 3.93-.61 1.94.4 3.36-.28.97.34 4.05-.07 3.63-22.77 5.19z"/>
    <path region="124" short-name="State House District Strafford 14" long-name="State House District Strafford 14" value="1" d="m673.97 725.9.53-2.43 1.6-.72.92-1.28-1.2-1.8 5.64 3.8-1 5.08-1.17-.04-1.64-2.05-2.08.37z"/>
    <path region="125" short-name="State House District Hillsborough 43" long-name="State House District Hillsborough 43" value="4" d="m494.7 908.11 3.55-1.52 5.38-2.9-1.17-2.53 6.9-2.9 1.94 5.32 3.04-1.3 1.64 2.98 2.82-.2 1.73 3.25 1.42-.33 2.84 1.54 1.54.12 3.53 9.06 1-.43 1.03 2.4-2.65 2.56-1.2.51-.32 3.24-3.37 2.34-2.83-7.2-12.16 4.97 2.7 6.67-5.62 2.24-4.06-9.64z"/>
    <path region="126" short-name="State House District Rockingham 10" long-name="State House District Rockingham 10" value="3" d="m656.29 777.81 8.06-2.3 11.17-5.95 11.25-.7 4.61.08-.84 1.47-2.68 4.55-2.71 3.43-.6 1.78-.29 4.03-1.95 1.68-2.06 4.11.96 1.21 1.1 2.68-3.15.67-.33.94-3.16-.9-3.76-.14-11.36.4z"/>
    <path region="127" short-name="State House District Rockingham 16" long-name="State House District Rockingham 16" value="7" d="m575 853.84 2.12-.93-1.19-2.64 8.3-.2 5.96 14.52 3.14 8.48 3.93 11.68-4.14 1.77.97.7.62 4.46 1.36.3.37 1.97-.65 1.83.66.92-1.33 1.94-.3 2.49-.78.36-9.1-6.89-10.33 2.25-10.02-22.13-6.03-13.54.31-.33z"/>
    <path region="128" short-name="State House District Rockingham 20" long-name="State House District Rockingham 20" value="3" d="m646.88 857.63 2.02-1.36 8.38 5.36 3.27-.05 1.64-4.95-.84-3.53 1.75-5.78 9.13-2.8 2.53-.54 8.07-3.94 6.18-2.53 9.26-1.53 1.63 4.03-3.97 1.82-3.9 4.26-3.74 3.7-15.6 7.95-2.4 4.54-.86 6.17-.17 10.2-14.28-.49.38-2.23-1.01-1.86-1.58-1.15.27-1.51-1.17-1.71-6.23-5.24z"/>
    <path region="129" short-name="State House District Merrimack 01" long-name="State House District Merrimack 01" value="1" d="m461.32 717.83 4.72-4.13v3.9l.87 1.74 1.78 1.92.3.72 3.33 1.4 1.2 1.73v2.2l.73 1.44 2.32 1.65-.06 1.98 1.18 1.1 1.6-1.81 1.5.8-.17 1.24-1.24 1.46 3.57.84 2.14-1.13h1.22l-.84 3.73.8 1.47 2.78-1.61.84 1-.83 1.7 1.13 1.63.18 1.51-13.7 11.57-7.93-9.54-1.36.74-1.2-2.23-3.34-4.13-2-1.11-1.81-1.92-1.05-.12-.1-2.06-.9-1.85-1.82-1.6-1.82-1-.29-2.06-2.04-1.96z"/>
    <path region="130" short-name="State House District Merrimack 02" long-name="State House District Merrimack 02" value="1" d="m466.04 713.7.67-1.01.02-3.53-.86-3.1 4.04-1.55-3.22-7.61 2.22-.9-1.28-2.22-.7.46-1.1-2.29 2-.8 1.36.08 1.25 1.52.8-1.27 1.23-.07.97 1.61 1.25-1.48.02-1.9 1.3.2.71-1.29 2.2-1.32.75-2.17 2.28-.13-.2-1.56 1.43-.44 1.77.51 18.28 7.05 5.34 2.24-39.88 28.53-1.78-1.92-.86-1.73z"/>
    <path region="131" short-name="State House District Rockingham 25" long-name="State House District Rockingham 25" value="9" d="m617.26 910.01 5.23-18.72 1.03-6.42-3.85-8.77 8.73-3.9.19.6 7.1 5.93-.26.18.5 6.17 4.6-2.17 2.41 2.03-3.41 7.57 6.1 18.46-11.64-.34-2.32 1.08-2.84 1.86-4.96-3.66z"/>
    <path region="132" short-name="State House District Merrimack 09" long-name="State House District Merrimack 09" value="4" d="m459.38 768.74.96 1.14 12.27-10.63 2.28 2.77 4.82 5.8 4.45 5.03 16.03 18.12 1.39 1.57 14.06-12.86 1.6-1.47.09 3 1.73.99 3.56-.2 3.52 1.63 1.4.74 1.96-.02 5.08 2.8 2.32 3-.3 2.37.2 1.92-7.47 19.46-20.34-8.41-.84-2.06 1.17-3.14-2.48-.85.59-.95-11.12-4.63-4.3-1.98-9.39 5.37-15.35 8.83-9.55-12.42-13.02-16.45z"/>
    <path region="133" short-name="State House District Cheshire 12" long-name="State House District Cheshire 12" value="1" d="m366.53 934.87 3.28-1.25 3.97 3.58 2.31 1.46.77 1.18 10.08-4.52 1.16 2.5 1.84-1.02 5.09 12.2 2.2 5.69 9.98-2.29 10.26 26.45-11.92 2.54-20.5 4.51-10.29-24.23-1.44-4.03-3.85.76-1.93-4.02.15-3.79-.87-2.45 1.34-.84-1.3-3.4 2.15-.45-1.73-5.5z"/>
    <path region="134" short-name="State House District Rockingham 30" long-name="State House District Rockingham 30" value="2" d="m722.36 829.75 3.36 2.22-.39 1.92.78 4.42-3.13 2.13-1.3 1.84-2.5 2.2-11.65-5.04-4.62-.23-3.01.8-1.63-4.03-1.1-2.86 4.09.6 1.9-1.62 4.44-.52 2.67-.72 2.02-1.06 2.62.69 2.83-.9.74 1.47 2.08.51-.3-1.47z"/>
    <path region="135" short-name="State House District Merrimack 11" long-name="State House District Merrimack 11" value="1" d="m536.6 792.52 1.09-1.04 3.21-.68 2.52-2.23 1.6-2.71.16-5.26 1.81 1.32 1.04-.5.93-2.53-.64-1.36.61-1.8-.4-.92 1.67-2.63.02-1.28 20.72-.67-.93 8.36-3.2 15.55-27.3.47-2.16 1.46-.54-1.63z"/>
    <path region="136" short-name="State House District Rockingham 18" long-name="State House District Rockingham 18" value="2" d="m627.32 869.86.97-2.86 1.08-.54 2.96 3.54.57-2.06 1.76 1.16 1.62-.67 3.16-.37 1.78-.68 3.22.07 1.2-2.99 6.23 5.23 1.17 1.72-.27 1.5 1.58 1.16 1.01 1.86-.38 2.23-4.63-.16-3.45 2.92-3.96 4.02-2.4-2.03-4.61 2.17-.5-6.17.27-.18-7.11-5.94-.2-.58z"/>
    <path region="137" short-name="State House District Grafton 16" long-name="State House District Grafton 16" value="1" d="m307.36 669.03 2.45-14.2 1.22-3.96 2.83.69 10.42 1.82 26.6 5-7.23 23.8-3.21 10-5.16-.75-3.14-.68 2.12-6.27-18.3-3.03-10.44-1.55z"/>
    <path region="138" short-name="State House District Belknap 03" long-name="State House District Belknap 03" value="1" d="m437.23 663.79 12.02-19.9 20.54 1.1 4.74-.08 5.3.3 5.71.07.5 2.43 1.11 1.94 2.9 2.81.6 2.55-1.16 4.19-.08 1.3.95 2.2-.84 2.78-1.28 1.88 1 .9.1 1.57-.75 1.8-2.94.6 1.76 3.36-.04 2.5-.66 1.95.27 1.02-2.03 2.38-1.77-.5-1.44.43.2 1.56-2.27.13-.75 2.17-2.2 1.32-.71 1.3-1.3-.22-.02 1.91-1.25 1.48-.97-1.61-1.24.07-.8 1.27-1.24-1.52-1.37-.07-3.43-4.65.7-.54-1.7-3 .98-.72-1.65-2.66-.55.4-3.37-4.54-3.53 2.48-.76-1.45-2.76-.85-1.6.07-2.12-.73-1.26-1.7-2.75-1.94-1.08-1.6.26-2.68-.7-1.49z"/>
    <path region="139" short-name="State House District Hillsborough 12" long-name="State House District Hillsborough 12" value="8" d="m531.25 881.29 28.78-13.18.39 2.35.05 1.67-.73 1.89-.35 3.07-1.42 2.92-2 6.11.06 1.75 2.11 3.63.45 1.54-.07 2.92 2.73 4.21.22 1.54 1.77 1.08 1.27 3.78 1.77 1.64-.18.25.5 2.19-1.62 1.63-1.16-.6-3.34.35-.82-.76.17-1.87-.88-1.02-3.27.8-1.51 2.16-3.61.26-1.15.58-1.97-.68-.7.53-1.17 1.4-1.02 3.64-1.49-3.86-4.26-10.32-9.29-20.84z"/>
    <path region="140" short-name="State House District Hillsborough 07" long-name="State House District Hillsborough 07" value="3" d="m573.97 920.13 2.1-.58 2 3.28.12 2.05 1.29 3 2.12 2.7-.42 2.69 2.28 6.2 1.45 1.83-4.35 1-1.06-2.6 1.98-1.35-1.63-4.25-1.64.32-1.85-2.94-1.91-.5.47-1.26-2.45-5.1-1.07-1.6 2.11-1.2z"/>
    <path region="141" short-name="State House District Hillsborough 27" long-name="State House District Hillsborough 27" value="1" d="m438 823 10.87-6.27 4.15 8 5.96 12.6 7.08 14.43 3.66-2.06 1.37 2.81 9.07 18.65-14.71 6.86-.8.37-1.6-2.16-1.45.73-1.25-2.92 1.66-.8-.53-1.16-12.45 5.24-3.66-8.25-1.87-4.2-1.04.38-1.49-.95.3-2.42 2.02-1.17-1.34-1.54-2.41-5.5-1.29.42-1.15-2.65-3.03.9-.32-.86-4.07-2.24.37-.85-.95-1.7.21-2.07-1.26-1.19v-1.37l-1.33-.88-.68-2.9-.41-3.6-.86-.79 1-2.56-.8-1.98.72-.88 2.01.51z"/>
    <path region="142" short-name="State House District Hillsborough 29" long-name="State House District Hillsborough 29" value="4" d="m498.49 830.24 9.8-4.31 20.44-9.2 3 6.5 7.34 16.06.54 1.14 2.54 5.34-13.83 6.06-15.63 6.72-4.4-9.2-4.48-8.7-2.68-.39v-2.7l.9-.47z"/>
    <path region="143" short-name="State House District Hillsborough 30" long-name="State House District Hillsborough 30" value="3" d="m395.21 870.37-1.68-23.46-.37.19-1.85-17.16-1.04.25.89-12.05-5.45-7.02 6.6-3.74 2.23-1.4L415 794.25l15.4 19.16L438 823l-10.3 5.98-2-.5-.73.87.8 1.99-1 2.55.86.79.4 3.6.68 2.9 1.33.88.01 1.37 1.26 1.2-.2 2.06.94 1.7-.37.85 4.07 2.24.32.86 3.03-.9 1.15 2.65 1.29-.42 2.41 5.5 1.33 1.54-2.01 1.17-.3 2.42 1.5.95 1.03-.38 1.87 4.2-11.83 4.98-4.33-.7-.39-1.4-2.54 1.05-.43-.81 2.46-1.11-1.12-1.61-.55-2.43-1.78-4.25-5 2.12-23.6 10.4z"/>
    <path region="144" short-name="State House District Rockingham 02" long-name="State House District Rockingham 02" value="3" d="m566.81 794.14 3.2-15.55.93-8.36.6-.02 3.53-22.31 4 .1 1.8.47-1.22 4.34 1.07-.47 1.74 1.8 1.66 1.06.33 2.4 1.52.6 25.55-.5-3.05 9.5 5.3 1.76-2.08 5.85-4.96-2.53-2.71 8.08 4.5-.2-1.5 6.9h-.3l-1.04 6.21-4.77.08-1.84 24.73-7.35-.06.67 4.36.5 6.93-.1 2.98 1.11-.1.04 4.79-.42.04.41 12.79-9.7.27-8.3.19-3.29-7.28-6.35-13.55-.06-.1-1.7-2.41-1.12-2.88-2.84-5.2 2.9-.1 1.74-12.45z"/>
    <path region="145" short-name="State House District Rockingham 17" long-name="State House District Rockingham 17" value="4" d="m594.04 901.49.78-.36.3-2.5 1.33-1.94-.66-.9.65-1.84-.37-1.97-1.36-.3-.62-4.45-.97-.7 4.14-1.78 19.56-8.37 2.47-1.17.38.9 3.85 8.76-1.03 6.42-5.23 18.72-18.24.29-1-1.9.08-1.05-2.1-1.15-1.64.4-.77-2.28z"/>
    <path region="146" short-name="State House District Cheshire 06" long-name="State House District Cheshire 06" value="2" d="m284.6 944.91.2-.8-.85-3.26-.05-1.66 1.02-1.3-.1-1.54-1.64-3.38-.89-4.05-.97-1.79-1.95-1.23.16-1.95 2.79-3.8 2.6-1.03.8-.82 2.82-1.4 2.22-2.96 2.2.18 2.15-4.64-1.55-2.11-.2-1.47.64-2.6 2.78-1.12.82-2.12-.61-1.48-3.78-1.57-.93-.95-.03-.03 12.84-2.8 8.95-1.1 4.22-.73 2.63 13.95-4.67 2.64 10.67 20.66 4.19-1.09-5.3 24.99-23.06 3.94 18.03 43.11-1.9.4-1.21-2.1-4.24-3.7-1.8-4-1.36-1.7-1.64-.5-2.22-2.05-1.93.67-.1 1.66-1.58 1.62-1.27.54-1.36-1.48 1.61-2.65-.6-1.85-3.4-3.18-6.72-3.65-3.24-6.52-2.38-6.08-2.95-2.99-.12-3.03-1.12-2.32-.56-3.06-.18-3.55 2.71-2.34z"/>
    <path region="147" short-name="State House District Merrimack 16" long-name="State House District Merrimack 16" value="1" d="m496.3 751.47-.58 1.81.43 1.6-2.82 1.94.57 2.19-1.86 1.18-1.18 1.76-1.5.16.1 1.48 1.98 1.31 1.94 2.95-1.51 1.9-7.7 3.1-4.46-5.03-4.82-5.8 1.33.24 1.53-.93 1.39.7.55 2.62 1.18 1.79 1.19-1.9 1.85-.32 1.5-1.28.29-3.27.42-.64-1.75-2.07.06-1.44 1.21-.66 1.88-2.8.94-.68 2.5.23z"/>
    <path region="148" short-name="State House District Carroll 05" long-name="State House District Carroll 05" value="1" d="m540.58 525.69 1.33-.75 2.04.6.17.87 1.95 1.15 1.15 1.34.59 3.11 1.78-.29 3.26.99.97.86 2.45 3.43 3.4.26 5.17-.38v-2.76l.8-.35.56-1.97-.95-3.51 2.49-.38 2.79 2.19.78.05-8.26 20.16v.5l36.3 16.7-7.45 18-17.48-6.71-1.16 1.17-9.08-3.4-1.79 4.93-6.63-2.33-18.37-22-5.16-6.3-9.16.74 5.49-16.1z"/>
    <path region="149" short-name="State House District Sullivan 02" long-name="State House District Sullivan 02" value="1" d="m273.36 682.46 12.93-.83 19.23-1.73 10.43 1.55-2.67 9.48 3.06 12.63-2.06 6.18-1.78 4.6-4.27-.53-1.74 8.06-5.05-.77-1.64 1.02 1.19 7.44 3.56 11.42-14.45 2.92-17.05 3.32-1.28.13-.66-3.45.16-4.81-1.77-4.77-.05-1.38 1.3-2.37.17-2.27-.98-4.76-1.6-2.18-3.63-2.02-1.06-1.75-.15-5.22 1.22-.64.85-2.82.24-2.2-1.47-4.92-1.19-3.16.48-1.05-.7-2.47 1.18-2.58 2.04-2.02 3.19-2.34 3.4-5.25z"/>
    <path region="150" short-name="State House District Hillsborough 04" long-name="State House District Hillsborough 04" value="3" d="m566.1 908.46 1.81 2.06-1.2.96.92 1.57-2.45 1.9 3.03 3.4-.9 2.03-.86-.55-1.94.46-.25-1.27-2-.7-5.24-1.94-10.28-4.35.7-.53 1.97.68 1.15-.58 3.6-.26 1.52-2.15 3.27-.8.88 1.01-.17 1.87.83.76 3.33-.35 1.16.6 1.63-1.63z"/>
    <path region="151" short-name="State House District Grafton 05" long-name="State House District Grafton 05" value="2" d="m297.92 514.46.78-1.45-1.85-2.38.03-1.06 2.68-2.86.53-1.13-1.94-.65.1-1.23 2.57-.78.38-2.5.76-1.81-1.6-2.49 2.15-1.51 1.5.63 1.39-1.1-.63-.96-3.21-.86-.04-1.09 1.88-.5.68-1.15-.37-2.98-2.64-.7-.22 2.37-1.28.45-1.4-1.21-1.54-3.12-.16-3.52 1.13-1.8 2.27-1.1.35-2.29-2.72-1.75-1.46-4.65.37-1.87 17.23 3.33 12.3 2.21 6.3 1.33-13.3-29.87 2.33-.68.76-2.5 13.61 1.02 14.05.93-1.72 34.5 18.08 4.36.55 25.71-.12 6.26 8.86-.93-.14 11.04-.3 24.64-35.88-.3-.55-1.88-2.63-.39-.3 1.52-10.7-1.64-25.39-4.79-.88-1.95 2.08-1.4-1.94-.66-1.92-.01-1.03 1.26-1.25-.1-.12-2.06-.92-4.63-1.9-2.39 2.5-4.31-1.17-2.29.48-1.55 1.67-1.1-.18-2.72 2.21.47.75-1.09z"/>
    <path region="152" short-name="State House District Coos 03" long-name="State House District Coos 03" value="1" d="m349.49 222 1.37-2.01-.45-1.67.43-1.06 2.99-1.56 1.3-3.58-.88-1.5.22-3.64-2.3-1.27-.45-.92.34-2.14 2.64-2.1.22-3.76 1.17-1.92-2-2.68.12-1.85.96-2.1-.99-1.51.62-1.92 2.47-1.9 1.02-1.79-.35-1.2 1.16-1.16.63-2.27 1.48-2.51-1.1-.74 2.54-5.04.49-1.68-.91-.52-2.14-2.5-3.45-2.05.32-.8-1.55-2.24-.24-3.06-1.56-1.83.53-1.14-.3-2.17-.84-1.79-3.24-1.84-3.6-3.61-.87-1.23-.07-2.74 2.15-3.33 2.35-1.5 2.16-2.06 2.23 1.02 2.31.4.23.36 51.58-3.66.24 3.28-.67.05 2.64 34.3-4.9 4.49 1.19 15.38 6.2-.32 3.87 12.78-9.03 1.38-.29-4.01-20.18 8.52-37.75 15.96z"/>
    <path region="153" short-name="State House District Rockingham 22" long-name="State House District Rockingham 22" value="1" d="m720.87 767.72 1.62-1.64-1.14-1.66-.3-1.76 1.72-1.82 2.92-.07 1.31 1 7.9-2.73 2.17 5.28-1.79 1.19.66 2.71-1.51-1.52-2.37.49-1.73-.74-1.12.31-1.36 2.2h-1.5l-.82 1.36-2.67 1.33-1.96.5-.43-2.85z"/>
    <path region="154" short-name="State House District Hillsborough 23" long-name="State House District Hillsborough 23" value="2" d="m547.05 836.6-1.31-1.64 1.44.68 2-.9 1.54 3.66.76 2.37.76 2.84-.52 1.64 1.16 1.12-3.65.76.22-1.87-.68-2.22-1.04-4.07-1.43-.84z"/>
    <path region="155" short-name="State House District Strafford 12" long-name="State House District Strafford 12" value="4" d="m661.9 709.64 1.87-5.82 1.99-6.16.77.49 2.73.2 2.2 3.3 1.94-.29 1.55 1.68 1.9-.06 1.67 2.5 1.98-.34 2.45.27 1.34.81-.28 1.05 1.2 1.84 3.65-.23 2.15.63 1.44 2.9 1.24.27.65.9-.17 2.82-.71 1.2.43 5.48.48.99-2.9 1.1-1.27-.2-1.4-2.58-2.29 1.54-5.05-.47-5.65-3.78-14.33-8.7z"/>
    <path region="156" short-name="State House District Merrimack 12" long-name="State House District Merrimack 12" value="2" d="m527.4 749.08 2.08.86-1.86 5.5 17.6 7.01-.96 8.73 5.96-.28-.02 1.28-1.67 2.63.4.92-.61 1.8.64 1.36-.93 2.52-1.04.5-1.81-1.3-.17 5.25-1.59 2.7-2.51 2.24-3.22.68-1.09 1.04.3-2.38-2.32-3-5.08-2.8-1.95.03-1.41-.74-.14-2.6.4-1.66-1.16-2.21-1.65 1-.67-1.72 1.3-.73.66-1.45-2.56-4.19.9-1.9 2.24.03 1.42-1.82-.38-1.96-1.26.25-.72-5.28 1.12-.52 1.6-5.14-.24-2.67Z"/>
    <path region="157" short-name="State House District Hillsborough 11" long-name="State House District Hillsborough 11" value="3" d="m572.06 932.76 2.39-1.78 1.91.5 1.85 2.94 1.64-.32 1.63 4.25-1.98 1.35 1.06 2.6-.66.15-1.37.2-1.96-2.18-2.55-.75-3.25.13.1-2 .8-1.72-.35-.91z"/>
    <path region="158" short-name="State House District Cheshire 10" long-name="State House District Cheshire 10" value="2" d="m325.78 952.55 5.3-24.99 9.64-2.49 15.72-4.14.16 1.55 3.66-.98 1.75.07-.9 5.17 3.62.22 1.8 7.9.75 3.1 1.73 5.49-2.14.45 1.29 3.4-1.34.84.87 2.45-.15 3.79 1.93 4.02 3.85-.76 1.44 4.03 10.3 24.23-21.37 4.69-10.48 2.2-4.06-10.4-5.9-14.36 3.68-5.92-6.21.09-4.63-11.49z"/>
    <path region="159" short-name="State House District Coos 04" long-name="State House District Coos 04" value="1" d="m413.97 299.94 2.05-2.02-.94-3.1 20.3-19.93-1.66 18.07-2.9 30.39 2.17-.65 10.5 33.76 1.85 4.17-4.55 2.2-3.05-6.7-8 3.64 10.56 25.69-4 2.25 11.36 13 5.33 3.58-5.04 2.28-10.34-11.22-7.61-2.05-8.66 3.94-1.07-2.49-16.4 7.45-7.45-16.95-27.99-4.65 12.33-19.2 2.79-4.11-7.28-6.48 20.5-20.27 24.53-10.62-2.52-7-3.39-8.35z"/>
    <path region="160" short-name="State House District Grafton 15" long-name="State House District Grafton 15" value="1" d="m281.22 648.83 13.32.86 16.5 1.18-1.23 3.96-2.45 14.2-3.5-3.47-1.95-.66-1.84-2.48-2.56-.1v2.6l-1.8 2.16-3.38-2.42-1.5-.36-.67-2.26-1.6.42 1.69-3.98-1.3-.65-2.02-2.11-4.2-3.78z"/>
    <path region="161" short-name="State House District Hillsborough 15" long-name="State House District Hillsborough 15" value="2" d="m554.58 855.85 2.25-2.42 3.09-2.67-1.14-1.36-2.71-.85.07-1.58 2.04-.83.34-1.07 2.07-.88.63.47 2.37 3.12 3.14.15 1.92 1.53 5.35 3.29 1 1.09-16.13 7.01-.3.33 6.02 13.54-4.17-4.26-.39-2.35-1.18-2.9-.59-2.87-2.57-4.11z"/>
    <path region="162" short-name="State House District Strafford 13" long-name="State House District Strafford 13" value="1" d="m656.85 726.23 1-3.22 3-9.54.63-2.48 14.33 8.69 1.2 1.79-.92 1.28-1.6.72-.52 2.44-1.02 2.18-2.27.82-7.24.22-1.36-1.04z"/>
    <path region="163" short-name="State House District Merrimack 06" long-name="State House District Merrimack 06" value="1" d="m371.8 708.2 8.14-26.22.64-2.04 15.76 22.63 3.52-7.08 4.76 6.82-6.94 5.12 9.92 12.9 5.24 5.87.3 2.09-4.15 5.63-.9 2.77 10.98 15.45 4.45 6.82-18.23 9.2-6.77 3.56-22.8-29.95-2.6-3.16 8.77-4.73 16.77-9.2-8.32-2.52 2.04-7.24-2.83-1.25-7.92-1.28-4.35-2.55z"/>
    <path d="M629.22 351.01h270c8.3 0 15 6.7 15 15v25c0 8.3-6.7 15-15 15h-270c-8.3 0-15-6.7-15-15v-25c0-8.3 6.7-15 15-15z" long-name="Floterial Districts" region="FD" short-name="FD" value="58"/>
  </g>
  <g region-texts fill="currentColor">
    <text xml:space="preserve" x="763.23" y="391.54" for-region="FD" font-family="Roboto" font-size="35" text-anchor="middle">Floterial Districts</text>
  </g>
</svg>
