<?xml version="1.0" encoding="UTF-8" standalone="no"?>
<svg
   xmlns:svg="http://www.w3.org/2000/svg"
   xmlns="http://www.w3.org/2000/svg"
   xmlns:sodipodi="http://sodipodi.sourceforge.net/DTD/sodipodi-0.dtd"
   xmlns:inkscape="http://www.inkscape.org/namespaces/inkscape"
   id="svgdata"
   version="1.1"
   sodipodi:docname="yapmg.svg"
   inkscape:version="1.0.1 (3bc2e813f5, 2020-09-07)">
  <defs
     id="defs235" />
  <sodipodi:namedview
     pagecolor="#ffffff"
     bordercolor="#666666"
     borderopacity="1"
     objecttolerance="10"
     gridtolerance="10"
     guidetolerance="10"
     inkscape:pageopacity="0"
     inkscape:pageshadow="2"
     inkscape:window-width="1920"
     inkscape:window-height="1027"
     id="namedview233"
     showgrid="false"
     inkscape:zoom="0.86833333"
     inkscape:cx="494.02368"
     inkscape:cy="370.39994"
     inkscape:window-x="-8"
     inkscape:window-y="-8"
     inkscape:window-maximized="1"
     inkscape:current-layer="text"
     inkscape:document-rotation="0" />
  <g
     id="outlines"
     style="fill:#8e0000;fill-opacity:1">
    <path
       id="South"
       inkscape:label=""
       d="M 736.69922 224.90039 L 735.90039 225.59961 L 735 226.90039 L 736.09961 229.90039 L 736.09961 234.80078 L 735.59961 239.59961 L 735.40039 245.19922 L 733 249.30078 L 729.90039 252.69922 L 727.30078 254.5 L 725.30078 254 L 724.09961 255.30078 L 721 259.90039 L 721 261.5 L 722 264.59961 L 720.90039 265.90039 L 719.19922 265.40039 L 718.19922 264.30078 L 717.80078 264 L 716.69922 264.69922 L 715.80078 268.30078 L 715.69922 273.5 L 714 275 L 714 277.19922 L 712.19922 278.19922 L 709.80078 278.40039 L 709.5 278.30078 L 709.5 278.30859 L 708.5 278 L 705.90039 276 L 704 274.90039 L 703.5 272.59961 L 702.19922 272.80078 L 700.19922 274 L 697.69922 276.69922 L 695.80078 275 L 693.30078 274.5 L 690.90039 275.90039 L 688.59961 275.90039 L 686.80078 273.90039 L 681.19922 273.80078 L 679.40039 269.30078 L 676.5 267.80078 L 674.40039 268.59961 L 670.19922 268.80078 L 669.69922 270.90039 L 670.90039 272.40039 L 671.19922 274.5 L 668.40039 276.5 L 664.59961 278.30078 L 662 278.69922 L 661.5 283.19922 L 656.59961 286.80078 L 654 290.5 L 654.19922 292.69922 L 653.30078 295 L 648.80078 294.90039 L 647.5 293.59961 L 643.59961 295.80078 L 643.80078 299.09961 L 641.40039 299.69922 L 640.59961 298.30078 L 638.90039 297.09961 L 636.19922 298.19922 L 634.40039 301.69922 L 632.19922 300.69922 L 630.80078 299.09961 L 627.09961 299.5 L 621.5 300.5 L 618.69922 301.80078 L 617.5 305.19922 L 616.5 306.19922 L 618 309.90039 L 613.80078 311.30078 L 611.90039 312.69922 L 611.5 314.90039 L 612.69922 317.30078 L 612.69922 319.5 L 611.09961 319.90039 L 605 317.40039 L 602.69922 318.30078 L 600.69922 319.69922 L 599.90039 321.5 L 601.59961 323.90039 L 600.69922 325.69922 L 600.59961 329 L 598.19922 330.30078 L 596.09961 332 L 594.90039 333 L 594.59961 333.19922 L 594.09961 338.80078 L 592.0918 345.16016 L 591 345.09961 L 587.30078 346.09961 L 580.90039 345.40039 L 581.80078 342.30078 L 584.90039 339.69922 L 585.5 337.40039 L 583.69922 334.5 L 551.80078 335.69922 L 528.5 336.40039 L 504.90039 336.69922 L 506.40039 343.59961 L 506.5 352.09961 L 507.90039 363 L 508.19922 401.19922 L 510.30078 402.80078 L 513.30078 401.59961 L 516.19922 402.80078 L 516.59961 412.90039 L 516.59961 413.80078 L 517 423.5 L 517.69922 433 L 518.19922 436.69922 L 520.80078 441.19922 L 521.69922 445.59961 L 526 451.59961 L 526.30078 454.69922 L 526.90039 455.5 L 526.19922 463.80078 L 523.40039 468.40039 L 524.59961 470.80078 L 524.09961 473.40039 L 523.30078 480.69922 L 522 483.69922 L 522.19922 487.40039 L 526.90039 485.90039 L 535 485.59961 L 545.30078 489.19922 L 551.80078 490.30078 L 555.5 488.80078 L 558.69922 489.90039 L 561.90039 490.90039 L 562.69922 488.80078 L 559.5 487.69922 L 556.90039 488.19922 L 554.19922 486.59961 L 555 485.09961 L 558.09961 484.09961 L 559.90039 485.59961 L 561.69922 484.59961 L 564.90039 485.19922 L 566.40039 487.59961 L 566.69922 489.90039 L 571.19922 490.19922 L 573 492 L 572.19922 493.59961 L 570.90039 494.40039 L 572.5 496 L 580.90039 499.59961 L 584.5 498.30078 L 585.5 495.90039 L 588.09961 495.30078 L 589.90039 493.80078 L 591.19922 494.80078 L 592 497.69922 L 589.69922 498.5 L 590.30078 499.09961 L 593.69922 497.80078 L 596 494.40039 L 596.80078 493.90039 L 594.69922 493.59961 L 595.5 492 L 595.30078 490.5 L 597.40039 490 L 598.5 488.69922 L 599.09961 489.5 L 599.69922 492.59961 L 603.90039 493.19922 L 607.90039 495.09961 L 608.90039 496.59961 L 611.80078 496.59961 L 612.90039 497.59961 L 615.19922 494.5 L 615.19922 493 L 613.90039 493 L 610.5 490.30078 L 604.69922 489.5 L 601.5 487.19922 L 602.59961 484.5 L 604.90039 484.80078 L 605.09961 484.19922 L 603.30078 483.19922 L 603.30078 482.69922 L 606.5 482.69922 L 608.30078 479.59961 L 607 477.69922 L 606.69922 475 L 605.19922 475.19922 L 603.30078 477.30078 L 602.69922 479.90039 L 599.59961 479.30078 L 598.59961 477.5 L 600.40039 475.59961 L 602.30078 473.90039 L 603.19922 473.30078 L 604.30078 472.5 L 606.90039 468.30078 L 608.69922 469.09961 L 615.5 467.19922 L 617.59961 467.5 L 619.09961 468.30078 L 624.30078 468.30078 L 624.69922 466.69922 L 625.59961 466.40039 L 628.5 466.40039 L 629.09961 466.59961 L 630.40039 463.90039 L 631.90039 459.5 L 634.19922 460.09961 L 637.30078 466.09961 L 637.30078 467.09961 L 634.59961 469 L 637.30078 469.30078 L 642.5 466.80078 L 643.5 467 L 646.80078 466.40039 L 652.80078 464.30078 L 658.80078 463.80078 L 663.19922 463.19922 L 670.80078 465 L 678.90039 468.90039 L 680.5 470.40039 L 683.40039 471.5 L 685 473.40039 L 685.30078 476.09961 L 688.5 474.80078 L 692.40039 474.80078 L 696 472.90039 L 699.69922 469.30078 L 702.80078 469.5 L 703.30078 468.40039 L 702.5 467.40039 L 702.69922 465.5 L 706.69922 464.69922 L 709.30078 464.69922 L 712.19922 466.19922 L 716.40039 467.69922 L 718.80078 471.40039 L 721.5 472.40039 L 722.59961 475.80078 L 726 477.40039 L 727.59961 480 L 729.5 480.59961 L 734.69922 481.90039 L 736 485 L 739 488.69922 L 739 498.19922 L 737.5 502.90039 L 737.80078 505.59961 L 739.09961 510.40039 L 740.90039 514.40039 L 741.69922 513.90039 L 743.19922 509.40039 L 740.59961 508.40039 L 740.30078 507.80078 L 741.90039 507.19922 L 746.40039 508.19922 L 746.59961 509.80078 L 743.40039 515.30078 L 741.30078 517.69922 L 744.90039 521.40039 L 747.5 524.5 L 750.40039 529.80078 L 753.30078 533.69922 L 755.40039 538.69922 L 757.19922 539 L 758.80078 536.90039 L 760.59961 538 L 763.19922 542 L 763.80078 545.59961 L 766.90039 550 L 767.69922 548.69922 L 771.59961 549 L 775.19922 551.30078 L 778.59961 556.5 L 779.40039 559.90039 L 779.69922 562.80078 L 780.80078 563.80078 L 782.09961 564.30078 L 784.5 563.30078 L 786 561.69922 L 789.90039 561.5 L 793 560 L 795.69922 556.80078 L 795.19922 554.90039 L 794.90039 552.5 L 795.5 550.59961 L 795.19922 548.69922 L 797.59961 547.40039 L 797.90039 544 L 797.30078 542.19922 L 796.80078 530.19922 L 795.5 522.59961 L 791 514.40039 L 787.40039 508.59961 L 784.80078 503.30078 L 781.90039 500.40039 L 779 493 L 779.69922 491.59961 L 780.80078 490.30078 L 779.19922 487.40039 L 775.19922 483.69922 L 770.40039 478.19922 L 766.69922 471.90039 L 761.40039 462.5 L 757.69922 452.80078 L 755.40039 445.5 L 755.30078 444.5 L 754.5 438.19922 L 756.80078 428.19922 L 758.30078 424 L 757.80078 421.40039 L 761.09961 415.19922 L 760.69922 414 L 761.19922 412.69922 L 763.5 411.09961 L 768.5 405.80078 L 767.5 402.59961 L 770.40039 402.40039 L 774 399 L 775.59961 398.19922 L 777.90039 394.80078 L 780.59961 392.09961 L 782.69922 388.5 L 785.09961 387.90039 L 786.19922 385.19922 L 787.80078 384.40039 L 788.30078 378.09961 L 790.90039 372 L 796.19922 366.59961 L 796.90039 366 L 802 364.5 L 806.69922 364 L 807.19922 361.59961 L 809.09961 355.09961 L 812.5 350.40039 L 819 345.09961 L 824.19922 342.69922 L 826.90039 342.09961 L 828 342.59961 L 829.30078 342.59961 L 832.40039 337.80078 L 834.30078 334.19922 L 833 334.69922 L 830.69922 337 L 830.09961 335.40039 L 825.90039 335.40039 L 827.80078 329.09961 L 827 327.80078 L 825.09961 327.80078 L 825.09961 326.80078 L 824.80078 325.5 L 826.40039 326.80078 L 827.90039 327 L 830.30078 327.30078 L 834 325.69922 L 835.30078 322.80078 L 835.90039 320.69922 L 838.5 319.40039 L 838.80078 315.19922 L 838 314.59961 L 840.40039 314.40039 L 839.80078 312.09961 L 837.40039 309.69922 L 833.80078 303.19922 L 831.80078 298.40039 L 831.30078 297.5 L 827.59961 291.30078 L 821.80078 293 L 820.19922 291.5 L 822.80078 290.09961 L 822.30078 287.59961 L 820.5 285.80078 L 820.40039 284.40039 L 818.09961 282.90039 L 818 281.30078 L 820.69922 281.40039 L 820.90039 280 L 819.69922 279.19922 L 820.19922 277.30078 L 818.80078 276.19922 L 819.19922 271.5 L 818.30078 270.30078 L 815.09961 269.90039 L 812.90039 267.80078 L 808 266.90039 L 805.09961 265.90039 L 801.19922 264.5 L 799.19922 263.19922 L 798.69922 260.80078 L 799.19922 259.09961 L 800.5 257.80078 L 801.30078 254.5 L 799.90039 252.69922 L 791.30078 249.59961 L 791.90039 246.69922 L 788.5 245.5 L 787.59961 245 L 784.59961 242 L 782 240.80078 L 780.69922 239.80078 L 779.19922 240.30078 L 774.59961 243.90039 L 771.5 244.09961 L 770.40039 243.80078 L 768.90039 246 L 767.30078 247.5 L 764.69922 248.30078 L 758.90039 254.30078 L 756.5 242.09961 L 745.30078 243.40039 L 741 244.19922 L 736.69922 224.90039 z M 834.69922 265.19922 L 828.80078 267.5 L 828.90039 269.19922 L 828.19922 272.5 L 826.59961 276.69922 L 826.19922 282.09961 L 827.69922 286.69922 L 829.90039 284.80078 L 831.69922 279.80078 L 831.19922 276.40039 L 831.59961 271.80078 L 834.5 268 L 834.69922 265.19922 z M 841.5 313.30078 L 840.80078 313.5 L 841.40039 315.40039 L 842.90039 317.69922 L 843.5 323.80078 L 843.30078 325.80078 L 841.80078 326.40039 L 838.59961 329 L 836 331.5 L 837.09961 331.69922 L 838.19922 330.5 L 841 328.09961 L 844.40039 326.59961 L 844.59961 323.19922 L 844.19922 318.80078 L 841.5 313.30078 z M 798 552.09961 L 797.30078 552.59961 L 796.30078 555.40039 L 794.80078 560 L 791.59961 565.30078 L 787.19922 569.5 L 783.80078 571.40039 L 781.40039 572.90039 L 782.59961 574 L 785.30078 571.90039 L 790.59961 567.69922 L 794.30078 563.80078 L 796.80078 557.19922 L 797.80078 555.5 L 798 552.09961 z M 775.40039 573.19922 L 773.09961 574.80078 L 771.59961 577.09961 L 770.30078 577.30078 L 767.90039 577.90039 L 768.80078 579 L 771.09961 577.80078 L 775.30078 576.30078 L 778.80078 575.09961 L 778.40039 574 L 776.69922 573.69922 L 775.40039 573.19922 z "
       style="fill:#8e0000;fill-opacity:1" />
    <path
       id="North"
       d="M 891.5 36.900391 L 889.69922 38.699219 L 885.69922 41.599609 L 885.69922 42.599609 L 884.90039 43.400391 L 882.19922 42.800781 L 880.90039 40.5 L 880.90039 39.400391 L 879.59961 39.199219 L 878.30078 39.199219 L 876.19922 43.400391 L 873.30078 52.300781 L 871.5 57.099609 L 871.69922 61.900391 L 871.90039 63.400391 L 871.09961 66.099609 L 870.30078 67.099609 L 870.30078 73.099609 L 872.19922 75.5 L 870.69922 79.5 L 868.09961 84.199219 L 867.30078 89.699219 L 867.30078 92.300781 L 865.80078 91.900391 L 864.5 92.070312 L 863.5 92.220703 L 862.80078 92.300781 L 862.19922 93.900391 L 861.59961 93.400391 L 860.59961 92.400391 L 859.09961 94.300781 L 858.90039 96.589844 L 859.06445 99.34375 L 858.09961 99.609375 L 832 106.40039 L 831 106.59961 L 823.59961 108.80078 L 819.09961 110.30078 L 815.90039 110.09961 L 810.40039 111.40039 L 807.30078 112.59961 L 804.90039 114.40039 L 802.80078 116.80078 L 800.09961 120.5 L 797.19922 125 L 795.69922 127.90039 L 795.09961 128.69922 L 789.30078 134.19922 L 789.5 136.80078 L 790.30078 137.90039 L 792.09961 138.69922 L 793.90039 138.69922 L 793.90039 140.19922 L 792.80078 142.30078 L 793.09961 143.80078 L 794.59961 145.90039 L 794.40039 148.19922 L 792.5 149.30078 L 790.40039 149.30078 L 788.80078 151.19922 L 787 154.40039 L 784.90039 156.19922 L 779.69922 156.69922 L 777.09961 157.80078 L 775 159.09961 L 773.40039 158.90039 L 771.5 157.59961 L 765.19922 157.80078 L 762 158.30078 L 758 159.59961 L 753.59961 161.09961 L 750.69922 162.90039 L 752.59961 169 L 754.40039 169.19922 L 755.69922 172.30078 L 755.90039 173.30078 L 754.80078 174.30078 L 752.69922 177 L 752.19922 178.59961 L 750.30078 180.40039 L 748.5 181.5 L 747.5 183.09961 L 746.19922 184.19922 L 744.59961 185.40039 L 743.59961 186.19922 L 737.90039 191.69922 L 736.59961 192.19922 L 732.40039 194.80078 L 731.5 195.40039 L 725.30078 199.09961 L 721.40039 201.40039 L 718 205.09961 L 714 209 L 710.80078 209.80078 L 707.90039 210.30078 L 702.40039 212.90039 L 700.30078 213.09961 L 696.90039 210 L 691.69922 210.59961 L 689.09961 209.09961 L 686.90039 207.80078 L 685.69922 207 L 685.80078 206.40039 L 686 204.90039 L 688.09961 201.19922 L 690.09961 199.5 L 689.90039 194.40039 L 691.5 192.80078 L 692.59961 192.5 L 692.80078 188.90039 L 694.30078 185.90039 L 695.40039 186.5 L 695.59961 187.09961 L 696.40039 187.30078 L 698.30078 186.30078 L 697.90039 177.19922 L 694.69922 169 L 692.40039 159.90039 L 690 156.69922 L 687.40039 154.90039 L 685.80078 156 L 681.90039 157.80078 L 680 162.80078 L 677.30078 166.5 L 676.19922 167.09961 L 674.69922 166.5 C 674.69922 166.5 672.10078 165.00039 672.30078 164.40039 C 672.50078 163.80039 672.80078 159.40039 672.80078 159.40039 L 676.19922 158.09961 L 677 154.69922 L 677.59961 152.09961 L 680 150.5 L 679.69922 140.5 L 678.09961 138.19922 L 676.80078 137.40039 L 676 135.30078 L 676.80078 134.5 L 678.40039 134.80078 L 678.59961 133.19922 L 676 131 L 674.69922 128.40039 L 672.09961 128.40039 L 667.59961 126.90039 L 662.09961 123.5 L 659.40039 123.5 L 658.80078 124.09961 L 657.80078 123.59961 L 654.69922 121.30078 L 651.80078 123.09961 L 648.90039 125.40039 L 649.19922 129 L 650.19922 129.30078 L 652.30078 129.80078 L 652.80078 130.59961 L 650.19922 131.40039 L 647.59961 131.69922 L 646.09961 133.5 L 645.80078 135.59961 L 646.09961 137.19922 L 646.40039 142.69922 L 642.80078 144.80078 L 642.19922 144.59961 L 642.19922 140.40039 L 643.5 138 L 644.09961 135.59961 L 643.30078 134.80078 L 641.40039 135.59961 L 640.40039 139.80078 L 637.69922 140.90039 L 635.90039 142.80078 L 635.69922 143.80078 L 636.30078 144.59961 L 635.69922 147.19922 L 633.40039 147.69922 L 633.40039 148.80078 L 634.19922 151.19922 L 633.09961 157.30078 L 631.5 161.30078 L 632.09961 166 L 632.59961 167.09961 L 631.80078 169.5 L 631.5 170.30078 L 631.19922 173 L 634.80078 179 L 637.69922 185.5 L 639.19922 190.30078 L 638.40039 195 L 637.40039 201 L 635 206.19922 L 634.69922 208.90039 L 631.5 212 L 630.09961 213.09961 L 627.59961 214.90039 L 625.5 216.80078 L 624.40039 217.09961 L 622.90039 216.09961 L 619.90039 215.30078 L 618.90039 215.19922 L 618.69922 214.30078 L 617.90039 211.69922 L 616.59961 208 L 615 206.19922 L 613.5 203.59961 L 613.09961 198.09961 L 613.09961 197.19922 L 613.30078 194.19922 L 611.69922 189.69922 L 611.09961 183.59961 L 610 181.19922 L 611 178.09961 L 611.80078 175.19922 L 613.30078 172.59961 L 612.69922 169.19922 L 612.09961 165.59961 L 612.59961 163.80078 L 614.5 161.40039 L 614.69922 158.69922 L 613.90039 157.40039 L 614.5 154.80078 L 615 151.59961 L 617.69922 145.90039 L 620.59961 139.09961 L 620.80078 136.80078 L 620.5 135.80078 L 619.69922 136.30078 L 615.5 142.59961 L 612.80078 146.59961 L 610.90039 148.40039 L 610.09961 150.69922 L 608.59961 151.5 L 607.5 153.40039 L 606 153.09961 L 605.80078 151.30078 L 607.09961 148.90039 L 609.19922 144.19922 L 611 142.59961 L 612.09961 140.30078 L 612.5 139.40039 L 615.69922 132.5 L 616.69922 128.5 L 618.59961 124.09961 L 619.40039 123.90039 L 620.5 125.5 L 621.09961 125.5 L 625.59961 123.09961 L 627.09961 124.69922 L 627.59961 124.90039 L 628.90039 123.80078 L 630 120.69922 L 632.40039 119.90039 L 639.40039 119.30078 L 641.30078 116.69922 L 646.5 116.5 L 652.30078 117.80078 L 654.09961 117.80078 L 657.30078 116.30078 L 659.59961 116.5 L 661.69922 115.90039 L 665.40039 116.40039 L 666.19922 116.69922 L 667.5 116.40039 L 666.19922 115.40039 L 664.90039 114.80078 L 661.69922 111.69922 L 661.69922 104.69922 L 660.19922 104.19922 L 659.09961 105.30078 L 653 106.90039 L 651.09961 107.40039 L 648.19922 106.59961 L 647.69922 106.30078 L 647.69922 100.59961 L 646.19922 100.40039 L 643.59961 101.69922 L 639.09961 103.59961 L 632.5 103.90039 L 629.09961 105 L 625.09961 108.59961 L 623.5 109.59961 L 622.40039 109.59961 L 621.09961 110.40039 L 619.5 109.90039 L 617.90039 108.59961 L 616.40039 109.59961 L 612.5 109.80078 L 609.80078 107.09961 L 608.30078 104 L 606.80078 102.90039 L 603.59961 101.90039 L 601.30078 101.90039 L 600 100.59961 L 596.40039 103.5 L 595.40039 104.59961 L 594.59961 104.09961 L 594.90039 101.5 L 597.30078 98.300781 L 597.80078 95.900391 L 600.09961 95.099609 L 601.59961 92 L 605.30078 91 L 605.59961 90 L 604.5 88.900391 L 599.80078 89.400391 L 595.40039 91.800781 L 593.09961 94.099609 L 591.80078 95.900391 L 590 96.699219 L 588.09961 99.599609 L 587.90039 100.90039 L 583.5 103 L 581.09961 104.90039 L 575.09961 105.90039 L 574.5 106.5 L 574.5 107.5 L 570.90039 109.80078 L 568.19922 110.59961 L 567.5 111.09961 L 566.80078 111.90039 L 566.19922 113 L 565.09961 112.80078 L 564.5 111.69922 L 561.80078 110.90039 L 560.69922 111.09961 L 558.90039 112.09961 L 557.90039 111.5 L 558.5 109.59961 L 560.40039 106.5 L 561.5 105.40039 L 559.59961 103.90039 L 557.5 104.69922 L 554.59961 106.59961 L 547.19922 109.80078 L 544.30078 110.40039 L 541.40039 109.90039 L 540.40039 109.19922 L 543.40039 105.69922 L 544.69922 105.5 L 549.19922 100.5 L 551 99.699219 L 553.30078 95.800781 L 555.69922 92.199219 L 558.80078 89.599609 L 563.59961 87.599609 L 572.80078 83.5 L 576.69922 81.699219 L 577.30078 79.400391 L 572.90039 79.800781 L 572.19922 80.900391 L 571.59961 80.900391 L 569.80078 77.800781 L 560.90039 78.099609 L 559.90039 78.900391 L 558.90039 78.900391 L 558.40039 77.599609 L 557.59961 75.800781 L 555 76.300781 L 551.80078 79.5 L 550.19922 80.300781 L 547.09961 80.300781 L 544.5 79.300781 L 544.5 77.199219 L 543.19922 77 L 542.69922 77.5 L 540.09961 76.199219 L 539.59961 73.300781 L 538.09961 73.800781 L 537.59961 74.800781 L 535.19922 74.300781 L 529.90039 71.900391 L 526 69.300781 L 523.09961 69.300781 L 521.80078 68.300781 L 519.5 68.900391 L 518.40039 70 L 518.09961 71.300781 L 513.30078 71.300781 L 513.30078 69.199219 L 507 68.900391 L 506.69922 67.400391 L 501.90039 67.400391 L 500.30078 65.800781 L 498.80078 59.699219 L 498 54.199219 L 496.09961 53.400391 L 493.80078 52.900391 L 493.19922 53.099609 L 492.90039 61.300781 L 462.80078 61.269531 L 461.80078 61.289062 L 433.19922 60.699219 L 414.59961 60.099609 L 388.09961 58.800781 L 362.90039 56.640625 L 362 71.060547 L 357.30078 122 L 357.20117 123 L 356.80078 128 L 354 162 L 352.5 186.79883 L 352.40039 187.69922 L 348.09961 231.40039 L 381.15039 234.69922 C 381.17519 234.67722 381.2168 234.69922 381.25 234.69922 L 379.80078 255.80078 L 379.80078 256.80078 L 375.5 321.59961 L 399.80078 322.59961 L 444.5 324.69922 L 490.80078 325.30078 L 503.40039 325 L 504.39844 325.10156 L 504.30078 330 L 504.80078 335.69922 L 528.5 335.5 L 551.80078 334.80078 L 584.30078 333.5 L 586.5 337.19922 L 585.69922 340.30078 L 582.59961 342.80078 L 582.09961 344.59961 L 587.30078 345.09961 L 591.40039 344 L 593.09961 338.69922 L 593.59961 332.80078 L 597.80078 329.40039 L 599.69922 328.40039 L 599.69922 325.5 L 600.40039 323.90039 L 599.30078 322.30078 L 598.90039 321.30078 L 599.90039 319.09961 L 602.30078 317.40039 L 605.09961 316.40039 L 611.19922 318.90039 L 611.69922 318.69922 L 611.69922 317.59961 L 610.5 314.90039 L 610.90039 312.09961 L 613.30078 310.5 L 616.69922 309.30078 L 616.19922 308 L 615.40039 306 L 616.59961 304.69922 L 617.59961 302 L 618.59961 300.80078 L 621.09961 299.5 L 626.80078 298.5 L 631.19922 298 L 632.80078 299.80078 L 634 300.40039 L 635.40039 297.5 L 639 296 L 641.40039 297.69922 L 641.90039 298.59961 L 642.80078 298.40039 L 642.59961 295.30078 L 647.80078 292.30078 L 649.19922 294 L 652.69922 294 L 653.19922 292.59961 L 653 290.19922 L 655.90039 286.19922 L 660.59961 282.59961 L 661.09961 277.80078 L 664.30078 277.40039 L 667.90039 275.69922 L 670.19922 274.09961 L 670 272.80078 L 668.69922 271.19922 L 669.30078 268.30078 L 670.30078 267.80078 L 674.19922 267.59961 L 676.5 266.80078 L 680.09961 268.59961 L 681.80078 272.80078 L 687.19922 272.90039 L 689 274.90039 L 690.69922 274.90039 L 693.09961 273.5 L 696.19922 274 L 697.69922 275.30078 L 699.5 273.30078 L 701.80078 271.90039 L 704.19922 271.5 L 704.80078 274.19922 L 706.40039 275.19922 L 709 277.19922 L 709.80078 277.40039 L 711.80078 277.30078 L 713 276.69922 L 713 274.59961 L 714.69922 273.09961 L 714.80078 268.30078 L 715.90039 264.09961 L 717.80078 262.80078 L 718.80078 263.5 L 719.80078 264.59961 L 720.5 264.80078 L 720.90039 264.40039 L 720 261.69922 L 720 259.5 L 721.09961 258.09961 L 723.59961 254.5 L 724.90039 253 L 727.09961 253.5 L 729.19922 252 L 732.19922 248.69922 L 734.40039 245 L 734.59961 239.59961 L 735.09961 234.59961 L 735.09961 230 L 733.90039 226.80078 L 735.09961 225 L 736.40039 223.80078 L 737.49414 224.18555 L 741.80078 243.09961 L 745.69922 242.40039 L 757 241 L 757.32227 240.93555 L 757.5 241.90039 L 759.5 252.30078 L 764.30078 247.40039 L 766.80078 246.69922 L 768.19922 245.19922 L 770 242.5 L 771.59961 243.19922 L 774.19922 243 L 776.80078 240.90039 L 778.80078 239.40039 L 780.90039 238.80078 L 782.40039 239.90039 L 785.09961 241.30078 L 787 243.09961 L 788.30078 244.5 L 793.09961 246.09961 L 792.5 249 L 798.30078 251.09961 L 800.64844 252.22656 L 802.1543 253.99414 L 801.29883 257.59961 L 799.5 260.20117 L 799.5 262.30078 L 799.79883 263.09961 L 801.79883 264.40039 L 805.19922 265.5 L 809.5 265.40039 L 812.59961 266.40039 L 814.69922 266.70117 L 815.69922 264.59961 L 814.19922 262.5 L 814.19922 260.70117 L 811.79883 258.59961 L 809.69922 253.09961 L 811 247.80078 L 810.79883 245.70117 L 809.5 244.40039 C 809.5 244.40039 811 242.79961 811 242.09961 C 811 241.49961 811.5 240 811.5 240 L 813.39844 238.70117 L 815.29883 237.09961 L 815.79883 238.09961 L 814.29883 239.70117 L 813 243.40039 L 813.29883 244.5 L 815.09961 244.80078 L 815.59961 250.30078 L 813.5 251.30078 L 813.79883 254.90039 L 814.29883 254.70117 L 815.39844 252.80078 L 817 254.59961 L 815.39844 255.90039 L 815.09961 259.30078 L 817.69922 262.70117 L 821.59961 263.20117 L 823.19922 262.40039 L 826.39844 266.59961 L 827.39844 267 L 834.80078 264.09961 L 836.5 260.30078 L 837 255.5 L 836.69922 254.5 L 834.40039 247.19922 L 833.40039 247.69922 L 829.80078 245.30078 L 828 240.59961 L 826.09961 237 L 823.80078 236 L 821.69922 232.40039 L 822.19922 230.40039 L 822.69922 228.09961 L 823 230.90039 L 824 232.90039 L 827.19922 235.80078 L 832 238.09961 L 836 238.69922 L 836.19922 240.19922 L 835.40039 241.19922 L 835.69922 243.90039 L 836.5 243.90039 L 838.59961 241.5 L 839.40039 236.69922 L 842.09961 232.69922 L 845.19922 226.19922 L 846.30078 220.69922 L 845.69922 219.59961 L 845.5 210.19922 L 843.90039 206.80078 L 842.80078 207.59961 L 840.09961 207.90039 L 839.59961 207.40039 L 840.69922 206.40039 L 842.80078 204.5 L 844.69922 204.19922 L 848.69922 203.09961 L 854.5 201.19922 L 857.09961 200.19922 L 864.19922 194.90039 L 868.09961 192 L 871.5 188.40039 L 867.30078 186.80078 L 866 188.30078 L 863.09961 191 L 855.19922 194.90039 L 852.90039 194.69922 L 851.30078 194.09961 L 850.19922 194.69922 L 847.90039 197.30078 L 846.40039 198.59961 L 845.09961 198.90039 L 844.80078 197.59961 L 846.69922 195.80078 L 847 194.30078 L 852 190.90039 L 855.59961 187.69922 L 857.5 185.59961 L 858.30078 186.19922 L 861 184.69922 L 866.19922 183.59961 L 873.19922 180.09961 L 874.19922 179.80078 L 877 178.69922 L 879.40039 176.80078 L 880.5 175 L 881.80078 175.19922 L 884.59961 173.80078 L 885.40039 173.40039 L 887.5 172.5 L 887 170.19922 L 887.80078 168.69922 L 890.69922 167.19922 L 891.5 170.30078 L 891 172.09961 L 888.59961 173.59961 L 888.59961 174.59961 L 890.5 173.09961 L 894.40039 168.59961 L 898.30078 166.69922 L 902.5 165.19922 L 902.19922 162.80078 L 901.19922 159.90039 L 899.30078 157.5 L 897.5 156.69922 L 895.40039 156.90039 L 894.90039 157.40039 L 895.90039 158.69922 L 897.40039 157.90039 L 899.5 159.5 L 900.30078 162.19922 L 898.5 164 L 896.19922 165 L 892.59961 164.5 L 888.69922 158.5 L 886.40039 155.90039 L 884.59961 155.90039 L 883.5 156.69922 L 881.59961 154.09961 L 881.90039 152.59961 L 884.30078 147.40039 L 881.40039 143 L 881.69922 141.30078 L 882.80078 138.09961 L 883.0957 137.10352 L 884.19531 130.80469 L 884.39648 126.4043 L 885.89648 125.10352 L 884.89648 121.9043 L 887.99609 118.30469 L 889.5957 119.80469 L 890.89648 119.30469 L 896.19531 116.20312 L 896.49609 113.30469 L 899.39648 112.80469 L 900.99609 110.20312 L 900.79688 108.60352 L 900.6875 107.54102 L 900.5 105.5 L 901.30078 104.19922 L 901 103.09961 L 899.69922 101.59961 L 901.80078 100.30078 L 903.59961 103.5 L 905.09961 103.19922 L 905.40039 104.5 L 905.40039 106.09961 L 907.30078 106.30078 L 907.80078 103.59961 L 908.30078 103 L 906.69922 101.5 L 907.69922 100 L 910.09961 98.5 L 911.09961 97 L 912.90039 96.800781 C 912.90039 96.800781 913.30039 98.900391 913.90039 98.900391 L 915.19922 98.900391 L 920 93.400391 L 923.40039 90.300781 L 925.30078 89.699219 L 927.40039 85 L 927.40039 83.099609 L 925.09961 79.400391 L 923.19922 77.300781 L 920.40039 77.800781 L 920.90039 78.900391 L 920.69922 79.400391 L 919.90039 79.400391 L 917 77.099609 L 916.80078 72.300781 L 916 70.400391 L 910 70.400391 L 900.90039 40.5 L 899 39.5 L 893 37.099609 L 891.5 36.900391 z M 593.30078 74.699219 L 591 75.300781 L 585.59961 79.199219 L 583.40039 80 L 581.59961 82.099609 L 583.30078 83.099609 L 585.40039 82.199219 L 588.69922 80.300781 L 593.80078 75.199219 L 593.30078 74.699219 z M 912.40039 98.699219 L 910.40039 99.400391 L 909 101.59961 L 910.80078 103.5 C 910.80078 103.5 912.09961 103.60078 912.09961 103.30078 C 912.09961 103.00078 912.30078 101.30078 912.30078 101.30078 L 913.19922 100.5 L 912.40039 98.699219 z M 903.80078 106 L 902.30078 107.5 L 904.09961 110.40039 L 905.80078 109.5 L 905.19922 107.09961 L 903.80078 106 z M 670.90039 112.19922 L 668.69922 112.40039 L 667.09961 112.59961 L 666.80078 113.69922 L 667.80078 114.19922 L 668.40039 116.69922 L 671.59961 116.90039 L 672.90039 115.69922 C 672.90039 115.69922 672.8 114.19961 672.5 114.09961 C 672.2 113.89961 670.90039 112.19922 670.90039 112.19922 z M 902.69922 171.5 L 902.19922 173.19922 L 900 173.90039 L 899.5 174.5 L 903.40039 174.40039 L 904.69922 173.90039 L 903.69922 171.59961 L 902.69922 171.5 z M 892.90039 172.09961 L 890.59961 174.69922 L 891.69922 175.59961 L 893.90039 174.59961 L 896.30078 173.59961 L 894.5 172.09961 L 892.90039 172.09961 z M 822.19922 263.90039 L 820.30078 264.30078 L 821.40039 266.80078 L 821.59961 268.59961 L 822.69922 270.5 C 822.69922 270.5 823.59961 269.60078 823.59961 269.30078 C 823.59961 269.00078 822.90039 266.19922 822.90039 266.19922 L 822.19922 263.90039 z "
       style="fill:#8e0000;fill-opacity:1" />
    <path
       id="West"
       d="M 93.599609 6.4003906 L 92.199219 7.1992188 L 91.900391 8 L 94.300781 12.800781 L 95.400391 15.400391 L 93.599609 19 L 93.599609 21.599609 L 94.199219 23.099609 L 93.400391 24.900391 L 93.900391 28.099609 L 94.900391 29.400391 L 94.699219 30.699219 L 93.199219 30.900391 L 92.599609 29 L 91.5 26.599609 L 89.699219 25.099609 L 90 23 L 92.300781 22.5 L 92 20.699219 L 91.699219 19.599609 L 89.599609 20.900391 L 88.300781 22 L 88.300781 24.400391 L 86 24.599609 L 82.599609 23.599609 L 79.699219 22.099609 L 76.599609 21.5 L 72.099609 19.400391 L 68.900391 17.5 L 66.199219 14.900391 L 63.800781 12 L 61.699219 11.5 L 59.400391 20.900391 L 61.199219 24.099609 L 61.199219 32 L 60.599609 34.900391 L 62.099609 42 L 64.800781 44.699219 L 60.400391 45.300781 L 60.199219 49 L 62.800781 50.099609 L 61.199219 54.099609 L 58.5 54.400391 L 58.199219 57.300781 L 60.5 60.199219 L 58.5 62.699219 L 56.199219 69.199219 L 53 79.199219 L 49.800781 85.699219 L 44.800781 99.800781 L 38.300781 113.40039 L 30.199219 126 L 28.300781 128.90039 L 27.5 137.5 L 26.199219 143.5 L 28.910156 147 L 28.589844 148 L 26.900391 152.90039 L 26.699219 160.30078 L 21.5 172.09961 L 18.400391 174.69922 L 18.099609 175.80078 L 16.300781 176.59961 L 14.800781 180.80078 L 14 184 L 16.699219 188.19922 L 18.300781 192.40039 L 19.400391 196 L 19.099609 202.5 L 17.300781 205.59961 L 16.699219 211.40039 L 15.699219 215.09961 L 17.5 219 L 20.199219 223.5 L 22.5 228.30078 L 23.800781 232.30078 L 23.5 235.5 L 23.199219 236 L 23.199219 238.09961 L 28.900391 244.40039 L 28.400391 246.80078 L 27.800781 249.09961 L 27.199219 251 L 27.400391 259.19922 L 29.5 262.90039 L 31.400391 265.5 L 34.099609 266 L 35.099609 268.69922 L 34 272.30078 L 31.900391 273.90039 L 30.800781 273.90039 L 30 277.80078 L 30.5 280.69922 L 33.699219 285.09961 L 35.300781 290.40039 L 36.800781 295.09961 L 38.099609 298.19922 L 41.5 304 L 43 306.59961 L 43.5 309.5 L 45.099609 310.5 L 45.099609 312.90039 L 44.300781 314.80078 L 42.5 321.90039 L 42 323.80078 L 44.400391 326.5 L 48.599609 327 L 53.099609 328.80078 L 57 330.90039 L 59.900391 330.90039 L 62.800781 334 L 65.400391 338.80078 L 66.5 341.09961 L 70.400391 343.19922 L 75.199219 344 L 76.699219 346.09961 L 77.300781 349.30078 L 75.800781 349.90039 L 76.099609 350.90039 L 79.300781 351.69922 L 82 351.90039 L 84.900391 356.59961 L 88.800781 360.80078 L 89.599609 363.09961 L 92.199219 367.30078 L 92.5 370.5 L 92.5 379.90039 L 93 381.69922 L 103 383.19922 L 122.69922 385.90039 L 136.90039 386.80078 L 137.69922 387.5 L 135.09961 389.69922 L 134.80078 391.19922 L 135.30078 392.19922 L 154.19922 402.90039 L 166.30078 410.5 L 181 419.09961 L 197.80078 429.09961 L 210.09961 431.5 L 235.5 434.19922 L 236.5 434.40039 L 252.30078 436.40039 L 253.5 426.80078 L 270.19922 429.40039 L 282.40039 430.90039 L 283.40039 431 L 285.09961 431.5 L 287.69922 434.40039 L 289.19922 438.80078 L 293.90039 441.09961 L 295.19922 444.30078 L 302.30078 452.19922 L 303.59961 453.80078 L 308.59961 455.90039 L 309.69922 458 L 311.30078 459 L 311.80078 461.69922 L 315 468.19922 L 315 476.30078 L 317.30078 481 L 324.69922 488.80078 L 329.90039 490.90039 L 331.69922 492.80078 L 331.69922 493.40039 L 335.59961 495.69922 L 337.5 496.30078 L 339.30078 497.40039 L 341.90039 498.40039 L 344.30078 496 L 348.69922 489.90039 L 349.69922 486.19922 L 352 483 L 355.59961 481.5 L 360.09961 479.69922 L 363.19922 482 L 370.59961 482.59961 L 377.40039 483.69922 L 380 485.80078 L 380 486.90039 L 382.59961 490 L 388.59961 495.30078 L 388.80078 496.80078 L 390.59961 498.69922 L 391.40039 502.90039 L 396.69922 515.19922 L 396.5 517.09961 L 400.69922 519.69922 L 404.30078 526.30078 L 407.69922 530.69922 L 410.90039 532 L 412.5 534.30078 L 411.19922 538.69922 L 411.80078 539.69922 L 413.09961 540.30078 L 412.80078 543.69922 L 412.19922 544.30078 L 412.80078 546.59961 L 416 548.5 L 417.30078 555 L 419.40039 558.90039 L 427 562.30078 L 432.19922 563.40039 L 436.40039 566.5 L 439.59961 567.09961 L 440.90039 566.59961 L 446.40039 567.69922 L 452.09961 571.59961 L 455.19922 569.69922 L 456.19922 568.19922 L 454.40039 565.5 L 453.40039 559.40039 L 451.59961 552.40039 L 450.80078 550 L 451.59961 545.5 L 452.69922 541.59961 L 454 537.09961 L 455.5 531.59961 L 453.19922 529.69922 L 454.19922 527.80078 L 458.19922 527.5 L 462.09961 522 L 465.5 521.40039 L 471.30078 517.80078 L 473.09961 516.30078 L 479.40039 512.90039 L 485.09961 510.5 L 490.40039 507.30078 L 493.09961 505.19922 L 498.80078 499.90039 L 500.09961 499.09961 L 502.19922 497.59961 L 504.80078 495.69922 L 505.80078 493.80078 L 515.69922 489.30078 L 521.30078 487.69922 L 521 483.5 L 522.30078 480.5 L 523.09961 473.30078 L 523.59961 470.90039 L 522.30078 468.30078 L 525.19922 463.5 L 525.90039 455.80078 L 525.30078 455 L 525 451.90039 L 520.80078 446 L 519.90039 441.5 L 517.30078 437.09961 L 516.69922 433 L 516 423.5 L 515.30078 403.5 L 513.19922 402.69922 L 510.09961 403.90039 L 507.40039 401.90039 L 507.19922 400.69922 L 506.90039 363.09961 L 505.5 352.19922 L 505.40039 343.59961 L 503.90039 337 L 503.30078 330.19922 L 503.40039 325.90039 L 490.80078 326.19922 L 444.5 325.69922 L 399.80078 323.59961 L 374.43359 322.5 L 374.5 321.5 L 380.19922 235.5 L 346.89844 232.26172 L 347.09961 231.30078 L 351.5 187.30078 L 353 161.90039 L 354.5 144 L 354.5 143.09961 L 355.80078 127.90039 L 361.09961 70.769531 L 362 56.570312 L 331.19922 53.5 L 302 50 L 272.69922 46 L 240.40039 40.699219 L 222 37.300781 L 189.30078 30.410156 L 188.30078 30.199219 L 175.30078 27.630859 L 174.30078 27.390625 L 159.30078 23.900391 L 136.30078 18.199219 L 116.30078 12.5 L 107.69922 10.599609 L 98 7.9003906 L 93.599609 6.4003906 z M 88.099609 11.900391 L 86.599609 13.5 L 86.099609 12.099609 L 84.099609 12.300781 L 84.599609 14.699219 L 86.099609 17 L 86.800781 16.400391 L 87.099609 14.900391 L 88.800781 15.5 C 88.800781 15.5 87.300781 17.799609 87.300781 18.099609 C 87.300781 18.399609 88.199219 18.300781 88.199219 18.300781 L 89.599609 17.900391 L 90.300781 15.900391 L 89.699219 15.099609 L 91.199219 13.400391 L 90.400391 11.900391 L 88.099609 11.900391 z M 51.900391 336.40039 L 50.699219 337 L 51.599609 338.5 L 53.199219 340.09961 L 57.699219 340.30078 L 58.599609 339.69922 L 55.5 338.5 L 51.900391 336.40039 z M 45.5 337 L 46.099609 338.5 L 46.699219 339.69922 L 49.900391 339.80078 L 50.099609 338.5 L 48.800781 337 L 45.5 337 z M 72.400391 355.40039 L 71.300781 355.59961 L 71.300781 356.80078 L 71.400391 356.80078 L 73.199219 359.09961 L 74 360.09961 L 75.5 360.69922 L 76.099609 359.19922 L 75.099609 357.40039 L 72.400391 355.40039 z M 69.5 365.5 L 69.5 367.69922 C 69.5 368.09922 70.199219 369.59961 70.199219 369.59961 L 71.5 370.80078 L 73 370.59961 L 71.800781 368.69922 L 70 365.5 L 69.5 365.5 z M 113.30078 433.5 L 110.59961 436.59961 L 106.09961 436.80078 L 105.09961 436 L 104 436.19922 L 100.30078 438.30078 L 97.599609 438.90039 L 96 437.90039 L 92.300781 440.30078 L 91.199219 443.40039 L 87.5 447 L 83.300781 447.19922 L 81.5 446.59961 L 78.300781 446.59961 L 75.400391 448.5 L 77.800781 452.69922 L 80.699219 457.40039 L 81.5 461.30078 L 81 462.90039 L 81.5 464 L 84.900391 465.90039 L 83.900391 466.69922 L 84.900391 469.90039 L 87.199219 474.30078 L 85.400391 475.30078 L 80.400391 473.5 L 77.699219 471.90039 L 78.199219 470.40039 L 79.699219 468.30078 L 78.199219 467.19922 L 75.599609 466.90039 L 71.699219 467.5 L 71.900391 469.09961 L 71.300781 469.09961 L 70.300781 468.09961 L 68.199219 468.09961 L 61.400391 468.59961 L 60.900391 469.40039 L 62.800781 473.09961 L 64.900391 474.90039 L 64.300781 477.30078 L 63.800781 481.19922 L 67.400391 484.90039 L 72.400391 485.09961 L 76 486.90039 L 77.900391 487.40039 L 81.099609 486.59961 L 83.699219 485.80078 L 84.800781 487.69922 C 84.800781 487.69922 84.400781 488.19922 83.800781 488.69922 C 83.100781 489.19922 82.800781 492.09961 82.800781 492.09961 L 82 496.5 L 79.699219 497.80078 L 78.099609 497.80078 L 77.099609 497.19922 L 75.5 496.59961 L 72.300781 499 L 69.900391 499.30078 L 69.599609 496.90039 L 67 495.80078 L 64.300781 497.09961 L 62.400391 500.80078 L 59.800781 502.40039 L 55.300781 505.59961 L 54.300781 510.59961 L 55.400391 513.30078 L 56.699219 512.80078 L 57.5 513.30078 L 56.400391 514.40039 L 56.199219 516.5 L 54.099609 517.30078 L 54.099609 518.30078 L 56.199219 521.90039 L 56.800781 525.80078 L 58.300781 527.09961 L 64.400391 527.09961 L 65.199219 525.59961 L 66.199219 526.59961 L 66.199219 531 L 66.800781 532.80078 L 65.5 533 L 64 534 L 64.599609 535.90039 L 64.099609 538.5 L 62.599609 540 L 65.199219 540.30078 L 67.300781 539.19922 L 71.300781 539 L 71.599609 540.90039 L 72.699219 541.40039 L 74 540.09961 L 75.5 545.90039 L 77 546.09961 L 77.199219 543.19922 L 78.199219 542.19922 L 79.5 542.5 L 80.099609 544.90039 L 83.5 544.30078 L 85.099609 543 L 84.800781 545.59961 L 83.199219 547.09961 L 80.900391 551.59961 L 79 555.30078 L 75 556.80078 L 73.699219 560.5 L 72.900391 560.5 L 72.300781 560 L 71 560.30078 L 67.599609 560.90039 L 64.5 561.90039 L 62.199219 564.59961 L 61.199219 564.90039 L 59.599609 563.59961 L 56.900391 563.40039 L 55.099609 564.19922 L 52.199219 564.80078 L 50.099609 566.90039 L 45.699219 568.5 L 39.400391 567.90039 L 36.300781 569.19922 L 36.300781 571.09961 L 37.900391 572.19922 L 38.900391 571.19922 L 41.199219 570.59961 L 43.800781 571.69922 L 45.900391 572 L 47.5 571.19922 L 49.599609 569.90039 L 52.800781 569.90039 L 55.699219 568 L 59.099609 569.30078 L 62 568.30078 L 65.599609 567 L 65.300781 569.40039 L 66.300781 569.40039 L 67.099609 567.09961 L 70.300781 566.90039 L 73 567.90039 L 73.5 566.80078 L 75 565.30078 L 73.199219 564 L 78.5 561.69922 L 83.800781 560.59961 L 85.900391 559.5 L 93.699219 555.30078 L 100.19922 551.09961 L 102.90039 547.90039 L 102.09961 545.80078 L 99.800781 544.80078 L 100.09961 543.19922 L 103.19922 540.59961 L 107.40039 539.09961 L 108.5 536.80078 L 110.30078 534.19922 L 112.69922 530.80078 L 117.69922 528.09961 L 121.40039 528.40039 L 122.69922 531 L 120 531 L 119 529.69922 L 114.59961 532 L 114.40039 532.80078 L 114.40039 534.59961 L 112.09961 538.5 L 111.09961 540.90039 L 113.40039 541.5 L 113.40039 542.80078 L 109.69922 543.40039 L 110.19922 545.5 L 114.90039 545.69922 L 118.30078 543.59961 L 120.09961 541.5 L 123.19922 539.40039 L 125.90039 541.19922 L 127.19922 540.09961 L 128.5 540.90039 L 129 542.80078 L 130.30078 543.09961 L 134.19922 538.69922 L 133.59961 537.09961 L 130.40039 539.80078 L 131.90039 535.40039 L 130.90039 535.09961 L 129.80078 538 L 129.30078 533.5 L 132.90039 532 L 136.5 531.69922 L 139.19922 537.5 L 141.30078 537.80078 L 147.80078 541.69922 L 148.40039 541.19922 L 153.90039 541.19922 L 159.59961 543.59961 L 163.30078 544.69922 L 166.19922 543.59961 L 168 542 L 168 543.59961 L 166.69922 546.80078 L 170.69922 549.40039 L 175.5 552 L 178.09961 554.90039 L 181.5 557.30078 L 184.09961 556.69922 L 184.59961 557 L 182.5 558.30078 L 182.5 560.59961 L 184.09961 561.69922 L 185.69922 564.59961 L 186.30078 568.30078 L 188.40039 568.80078 L 192 574.80078 L 193.5 576.09961 L 193.5 575 L 193.19922 569.30078 L 194 569.80078 L 194.59961 573.5 L 195.59961 577.19922 L 196.69922 576.69922 L 197.5 573.30078 L 198.30078 573.30078 L 198.30078 578.30078 L 199.80078 579.80078 L 198 581.69922 C 198 581.69922 198.70078 582.89922 199.30078 583.19922 C 200.00078 583.49922 200.30078 582.19922 200.30078 582.19922 L 201.30078 584.5 C 201.30078 584.5 202.90039 587.30039 203.40039 587.90039 C 203.90039 588.60039 204.69922 588.90039 204.69922 588.90039 L 205.5 588.09961 L 204.19922 586.30078 L 203.69922 584.69922 L 205.80078 586 L 207.69922 587.90039 L 208.80078 587.40039 L 208.59961 583.69922 L 207.09961 581 L 207.90039 580.19922 L 209.69922 581.30078 L 212.40039 582.80078 L 213.90039 585.90039 L 215.5 586.69922 L 217.30078 584.40039 L 218.30078 581 L 217.80078 577.90039 L 216.80078 573.5 L 211.59961 571.40039 L 206.59961 569.59961 L 205.09961 565.90039 L 202.80078 563.19922 L 200.09961 559.30078 L 196.69922 553.30078 L 192.80078 551.5 L 191.69922 549.09961 L 189.80078 548 L 189.19922 545.09961 L 186.09961 543 L 184.19922 544.5 L 183.09961 544.69922 L 181.59961 546.30078 L 181.30078 549.40039 L 180.69922 549.59961 L 177.30078 551.5 L 176.80078 548.90039 L 169.80078 542.09961 L 169.59961 539.19922 L 167 539.19922 L 165.5 540.30078 L 162.40039 540.09961 L 160.80078 539.09961 L 161.09961 453.69922 L 156.59961 451 L 151.80078 449.09961 L 149.90039 449.90039 L 147.80078 450.5 L 142.59961 447.90039 L 141.09961 448.90039 L 134.80078 444.69922 L 127.69922 444.09961 L 125.80078 442.59961 L 125.5 438.90039 L 121.59961 438.59961 L 120 440.19922 L 119.40039 439.09961 L 119.90039 438 L 118 435.90039 L 114.40039 433.5 L 113.30078 433.5 z M 40.599609 478.09961 L 38.800781 480.5 L 39 483.09961 L 41.400391 483.09961 L 43.199219 484.59961 L 45 488.59961 L 47.900391 488.90039 L 48.099609 487.90039 L 46 482.59961 L 43.199219 482 L 41.699219 480.5 L 40.599609 478.09961 z M 248.30078 510.09961 L 244.30078 511.90039 L 243.30078 515.59961 L 249.40039 518.19922 L 251.5 517.90039 L 253.09961 514 L 252.5 510.59961 L 248.30078 510.09961 z M 237.30078 515.40039 L 235 515.69922 L 233.09961 519.30078 L 235.5 519.30078 L 237.59961 516.19922 L 237.30078 515.40039 z M 43.400391 516.09961 L 43.5 518.80078 L 46.900391 522.40039 L 50 522.59961 L 51.599609 518.90039 L 50.800781 517.90039 L 47.099609 516.90039 L 43.400391 516.09961 z M 280.5 520.80078 L 274.69922 523.69922 L 274 525.59961 L 277.69922 531.09961 L 280.09961 530.80078 L 281.19922 530.30078 L 282.69922 531.59961 L 286.40039 531.40039 L 287.40039 529.90039 L 284.5 528.09961 L 282.59961 524.40039 L 280.5 520.80078 z M 464.80078 521.90039 L 461.59961 525.5 L 458.09961 530.90039 L 454.80078 537.80078 L 453.30078 546 L 453.90039 553 L 456.59961 560.19922 L 457.19922 567.30078 L 458.09961 567 L 457.90039 565.5 L 457.40039 560.30078 L 454.80078 553.09961 L 453.90039 547 L 454.19922 541.80078 L 456.19922 535.19922 L 460.59961 528.69922 L 465.40039 522.09961 L 464.80078 521.90039 z M 295.5 532.59961 L 294.19922 534.5 L 299.59961 536.19922 L 304 536.5 L 306.59961 535 L 306.90039 533.69922 L 300.80078 533.09961 L 300.19922 533.59961 L 295.5 532.59961 z M 308.80078 535.59961 L 306.5 538.5 L 311.5 545 L 313.90039 546.5 L 318.69922 545.5 L 322.30078 543.69922 L 322.30078 541.80078 L 317.90039 539.09961 L 313.5 538 L 308.80078 535.59961 z M 136.90039 536.09961 L 135.09961 537.09961 L 135.5 539.40039 L 137.90039 537.90039 L 136.90039 536.09961 z M 299.5 538.5 L 299.5 539.69922 L 301.40039 543.59961 L 304.5 542.5 L 304.80078 540.90039 L 303.19922 538.80078 L 299.5 538.5 z M 106.80078 549.69922 L 104.09961 551.59961 L 99.400391 555.19922 L 94.599609 558.09961 L 93.199219 559.19922 L 94.300781 565 L 97.199219 565.80078 L 102.19922 562.90039 L 106.59961 560.30078 L 105 557.90039 L 105.5 555.5 L 103.40039 556.80078 L 100.5 556 L 102.09961 554.90039 L 104 555.69922 L 107.90039 553.90039 L 108.40039 552.40039 L 106 551.59961 L 106.80078 549.69922 z M 324.69922 552.80078 L 323.09961 554.09961 L 323.19922 556.09961 L 324.80078 557.90039 L 324.30078 558.90039 L 322.19922 562 L 319.90039 563 L 320.09961 565.59961 L 322.19922 567.40039 L 323.80078 573.09961 L 323.19922 575.5 L 323.5 580 L 327.09961 582.59961 L 328.90039 582.80078 L 331.19922 579.90039 L 333.59961 576.69922 L 336.69922 574.90039 L 338.19922 575.5 L 342.40039 574 L 346.30078 570.80078 L 346.59961 569.5 L 342.59961 566.90039 L 340.69922 562.5 L 339.09961 560.09961 L 335.69922 558 L 328.09961 554.40039 L 324.69922 552.80078 z M 60.099609 569.59961 L 57.900391 570.59961 L 59.5 572.5 L 61.599609 570.90039 L 60.099609 569.59961 z M 25.099609 570.09961 L 22.400391 570.69922 L 22.699219 572.30078 L 20.800781 574.19922 L 18.900391 573.69922 L 18.400391 572.09961 L 15.800781 571.80078 L 12.400391 572.80078 L 9 575.09961 L 10.099609 575.80078 L 11.699219 575.5 L 16.099609 574 L 19.800781 575.09961 L 22.5 575.59961 L 26.900391 574.5 L 28 572.69922 L 25.099609 570.09961 z "
       style="fill:#8e0000;fill-opacity:1" />
    <circle
       style="fill:#8e0000;fill-opacity:1"
       id="Overseas"
       cx="1012.2841"
       cy="461.22842"
       r="150" />
  </g>
  <g
     id="text"
     transform="matrix(4.9999963,0,0,5,-2025.4408,-846.90177)">
    <text
       id="South-text"
       x="536.29767"
       y="250.68819"
       xml:space="preserve"
       style="font-style:normal;font-variant:normal;font-weight:normal;font-stretch:normal;font-size:8px;font-family:sans-serif;-inkscape-font-specification:'sans-serif, Normal';font-variant-ligatures:normal;font-variant-caps:normal;font-variant-numeric:normal;font-variant-east-asian:normal"><tspan
         id="tspan8988-2-88"
         x="536.29767"
         y="250.68819"
         style="font-style:normal;font-variant:normal;font-weight:normal;font-stretch:normal;font-size:8px;font-family:sans-serif;-inkscape-font-specification:'sans-serif, Normal';font-variant-ligatures:normal;font-variant-caps:normal;font-variant-numeric:normal;font-variant-east-asian:normal">South 6</tspan></text>
    <text
       id="North-text"
       x="501.21243"
       y="213.08919"
       xml:space="preserve"
       style="font-style:normal;font-variant:normal;font-weight:normal;font-stretch:normal;font-size:8px;font-family:sans-serif;-inkscape-font-specification:'sans-serif, Normal';font-variant-ligatures:normal;font-variant-caps:normal;font-variant-numeric:normal;font-variant-east-asian:normal"><tspan
         id="tspan8988-2-87"
         x="501.21243"
         y="213.08919"
         style="font-style:normal;font-variant:normal;font-weight:normal;font-stretch:normal;font-size:8px;font-family:sans-serif;-inkscape-font-specification:'sans-serif, Normal';font-variant-ligatures:normal;font-variant-caps:normal;font-variant-numeric:normal;font-variant-east-asian:normal">North 8</tspan></text>
    <text
       id="West-text"
       x="443.91458"
       y="219.18977"
       xml:space="preserve"
       style="font-style:normal;font-variant:normal;font-weight:normal;font-stretch:normal;font-size:8px;font-family:sans-serif;-inkscape-font-specification:'sans-serif, Normal';font-variant-ligatures:normal;font-variant-caps:normal;font-variant-numeric:normal;font-variant-east-asian:normal"><tspan
         id="tspan8988-2-72"
         x="443.91458"
         y="219.18977"
         style="font-style:normal;font-variant:normal;font-weight:normal;font-stretch:normal;font-size:8px;font-family:sans-serif;-inkscape-font-specification:'sans-serif, Normal';font-variant-ligatures:normal;font-variant-caps:normal;font-variant-numeric:normal;font-variant-east-asian:normal">West 11</tspan></text>
    <text
       id="Overseas-text"
       x="605.58105"
       y="263.85092"
       xml:space="preserve"
       style="font-style:normal;font-variant:normal;font-weight:normal;font-stretch:normal;font-size:8px;font-family:sans-serif;-inkscape-font-specification:'sans-serif, Normal';font-variant-ligatures:normal;font-variant-caps:normal;font-variant-numeric:normal;font-variant-east-asian:normal"><tspan
         id="tspan8988-2-106"
         x="605.58105"
         y="263.85092"
         style="font-style:normal;font-variant:normal;font-weight:normal;font-stretch:normal;font-size:8px;font-family:sans-serif;-inkscape-font-specification:'sans-serif, Normal';font-variant-ligatures:normal;font-variant-caps:normal;font-variant-numeric:normal;font-variant-east-asian:normal">Overseas 5</tspan></text>
  </g>
</svg>
