<svg xmlns="http://www.w3.org/2000/svg" xml:space="preserve" candidates="[{&quot;id&quot;:&quot;d826a0b8-2975-490c-85b3-e4ec37092acd&quot;,&quot;defaultCount&quot;:0,&quot;name&quot;:&quot;Red&quot;,&quot;margins&quot;:[{&quot;color&quot;:&quot;#912B2B&quot;},{&quot;color&quot;:&quot;#AC5050&quot;},{&quot;color&quot;:&quot;#C57878&quot;},{&quot;color&quot;:&quot;#DBA3A3&quot;}]},{&quot;id&quot;:&quot;6f2a6691-ef78-4f4b-9a3b-11be30852c6d&quot;,&quot;defaultCount&quot;:0,&quot;name&quot;:&quot;Teal&quot;,&quot;margins&quot;:[{&quot;color&quot;:&quot;#11806A&quot;},{&quot;color&quot;:&quot;#3B9F8B&quot;},{&quot;color&quot;:&quot;#68BBAB&quot;},{&quot;color&quot;:&quot;#99D5C8&quot;}]},{&quot;id&quot;:&quot;2c604b98-2f5d-4317-b2e8-32b4ebee1fba&quot;,&quot;defaultCount&quot;:0,&quot;name&quot;:&quot;Pink&quot;,&quot;margins&quot;:[{&quot;color&quot;:&quot;#9B59B6&quot;},{&quot;color&quot;:&quot;#B176C9&quot;},{&quot;color&quot;:&quot;#C694DA&quot;},{&quot;color&quot;:&quot;#DAB6E9&quot;}]},{&quot;id&quot;:&quot;7ef2cfe5-00df-40e4-89aa-34d25b3c054b&quot;,&quot;defaultCount&quot;:0,&quot;name&quot;:&quot;Orange&quot;,&quot;margins&quot;:[{&quot;color&quot;:&quot;#C9782C&quot;},{&quot;color&quot;:&quot;#DC934E&quot;},{&quot;color&quot;:&quot;#EAAE75&quot;},{&quot;color&quot;:&quot;#F5C99F&quot;}]}]" country="yap" date="2025285" original-source="[&quot;https://discord.gg/smVhkhZw8e&quot;]" style="--region-stroke-color:var(--color-base-100);transform-origin:0 0 0;transform:matrix(.525735,0,0,.525735,221.076,8)" tossup-candidate="{&quot;id&quot;:&quot;&quot;,&quot;name&quot;:&quot;Tossup&quot;,&quot;defaultCount&quot;:0,&quot;margins&quot;:[{&quot;color&quot;:&quot;#cccccc&quot;}]}" type="presidential" variant="blank" title="Yapmeria Presidential" viewBox="0 0 530 270">
  <g map-type="regions" style="display:inline;stroke:none">
    <path d="M129.52 182.4q-.19 0-.2.16c0 .2-.16.25-.36.13s-.35-.04-.35.17-.16.3-.35.18c-.2-.12-.36-.03-.36.2 0 .25-.4.35-1.06.25-.85-.12-1.05-.03-1.05.51 0 .37-.14.59-.3.49s-.57.46-.91 1.24c-.62 1.39-.66 1.41-2.27 1.31-1.35-.08-1.66.02-1.76.54-.1.5-.36.61-1.15.5-.85-.13-1.02-.03-1.03.58 0 1.33-.43 2.36-.89 2.18-.26-.1-.63.28-.89.9-.39.94-.58 1.05-1.62.93-.65-.08-1.18 0-1.18.16 0 .17-.16.2-.35.09-.2-.12-.35-.04-.35.17s-.16.3-.36.18-.35-.04-.35.18c0 .21-.16.3-.35.17-.2-.12-.36.05-.36.37q0 .6-.55.38-.55-.2-.4.22c.09.25.34.4.56.36s.4.1.4.32c0 .23.1.3.22.18.38-.37 1.16.92 1.17 1.93.01.76.15.9.72.75.5-.13.7 0 .7.41 0 .33.17.49.38.36.69-.42 1.37 1.04 1.38 2.97.01 1.83-.02 1.88-.87 1.72q-.89-.18-.88.33c0 .28-.18.4-.4.26-.28-.17-.32.36-.14 1.9.26 2.26-.02 4.43-.53 4.12-.16-.1-.44.07-.62.38s-.46.55-.64.54-.3.12-.28.32.06.76.08 1.25c.03.5.21.8.41.69s.35-.07.35.12c0 .5 1.48.06 2.31-.7.96-.86 2.98-1.28 3-.61.01 1.1 1.38-1.38 1.39-2.53 0-1.56.53-2.1 2.02-2.1 1.1 0 1.16.07 1.16 1.25 0 1.23.02 1.24.79.7 1.1-.76 2.39-.71 2.39.1 0 .51.2.62 1 .5.9-.13 1.04-.02 1.24.99.12.62.23 1.92.23 2.87 0 1.6-.07 1.74-.8 1.64-.57-.08-.82.08-.9.6-.09.63.07.68 1.68.57 1.04-.07 1.78.03 1.78.24 0 .19.32.27.7.16.4-.1.71 0 .71.2 0 .7 1.02 0 1.13-.76.06-.43.41-.82.81-.9a3.5 3.5 0 0 0 1.48-.97c.82-.88 2.22-1.15 2.22-.42 0 .33.1.33.43 0 .23-.23.95-.42 1.59-.42 1 0 1.16.12 1.16.87 0 .63.15.81.53.67.29-.12.53-.02.53.2 0 .23.16.32.35.2.2-.13.36.2.36.77l.01 1 .7-.89a19 19 0 0 0 1.59-2.73l.89-1.86h1.89c1.17 0 2.04-.18 2.29-.48a3 3 0 0 1 1.45-.7c.77-.15 1.05-.41 1.05-.95 0-1.32.66-2.1 1.78-2.1.76 0 1.04.17 1.04.62 0 .52.28.6 1.92.5l1.92-.12.11 1.53c.07.99.27 1.5.55 1.44.24-.05.44.08.44.28s.14.3.32.18c.17-.1.39.1.48.47.13.5.4.62 1.1.49.88-.17.93-.1.93 1.3 0 .88.13 1.38.35 1.25.2-.12.35-.04.35.17s.16.3.35.18c.2-.12.36 0 .36.25 0 .34.4.44 1.4.34 1.41-.13 1.42-.13 1.42 1.12 0 .68.16 1.35.35 1.47.2.12.35.54.35.94 0 .6-.17.7-1.05.57-.75-.11-1.06-.01-1.06.33 0 .27-.16.4-.36.27-.19-.12-.35-.04-.35.18s-.16.3-.35.17c-.2-.12-.36-.08-.38.07-.03.5-.68 5.86-.9 7.52l-.21 1.59.85-.8c.48-.43 1.2-.79 1.6-.79.84 0 1.16-.63 1.16-2.31 0-.97.39-1.61 2.11-3.46l2.12-2.26v-2.7c0-2.07.12-2.75.53-2.9.8-.31.65-2-.23-2.55-.7-.44-.74-.67-.55-3.67.19-2.82.31-3.29 1.07-3.93a4 4 0 0 0 1.07-1.36c.11-.34.43-.61.7-.61.55 0 1.02-.86.68-1.2-.12-.12-.56-.21-.98-.21-.43 0-1.27-.25-1.88-.56-1.4-.7-1.5-2.1-.25-3.45l.86-.93h-.88c-.48 0-1.35-.25-1.92-.54q-1.05-.54-1.04-.13c0 .27-.63.35-1.99.24-1.56-.13-2.12-.35-2.64-1.02-.57-.74-.65-.76-.66-.19q0 .67-.62.5c-.55-.15-.6.08-.5 1.94.15 2.6-.53 5.32-1.26 5.03-.32-.12-.58.08-.7.52-.17.64-.48.7-3.43.7-3 0-3.31-.07-4.06-.86-.69-.73-.79-1.13-.63-2.51.1-.9.5-2.08.9-2.62l.73-.98-1.08-.22c-.6-.12-1.6-.22-2.23-.22-1.29 0-1.82-.46-2-1.76a1.9 1.9 0 0 0-1.04-1.31c-.77-.37-.96-.75-1.14-2.3a10 10 0 0 1 0-2.65c.19-.73.08-.8-1.2-.8a7 7 0 0 1-2.5-.55c-.93-.46-1.12-.76-1.12-1.76v-1.21h-3.48c-4.18 0-5.73-.27-5.93-1.03-.13-.5-1.2-1.18-1.67-1.2m56.28 26.8a2.2 2.2 0 0 0-2.19 2.19v24.83a2.2 2.2 0 0 0 2.2 2.19h24.83a2.2 2.2 0 0 0 2.19-2.2V211.4a2.2 2.2 0 0 0-2.2-2.2zm-20.76 26.12c-.62 0-.62.2-.51.9.08.54.28 1.07.46 1.17s.3.57.3 1.02c0 .64.16.8.66.66.47-.12.73.07.89.65.18.68.28.73.56.3.23-.37.18-.61-.18-.81-.58-.33-.7-2.22-.16-2.55.86-.53.29-1.17-1.16-1.29q-.55-.05-.86-.05m-2.31 7.68q-.24.03-.38.37c-.22.57.3.73.64.2a.4.4 0 0 0-.12-.53.2.2 0 0 0-.14-.04m.22 1.3q-.11.02-.12.3.02.4.23.23a.33.33 0 0 0 0-.47q-.05-.05-.1-.05m0 1.07q-.11 0-.12.29.02.4.23.23a.33.33 0 0 0 0-.47q-.05-.05-.1-.05m-9.32 4.21a1 1 0 0 0-.4.07q-.4.18.22.21c.37.02.58-.07.46-.18q-.1-.1-.28-.1" candidates="[{&quot;candidate&quot;:&quot;&quot;,&quot;count&quot;:0,&quot;margin&quot;:0}]" long-name="Blesna" region="BL" short-name="BL" style="display:inline;fill:#ccc;fill-opacity:1;stroke:none;stroke-width:1.1553px;visibility:visible;cursor:pointer;transition:fill .2s ease-in-out" value="1"/>
    <path d="M650.41 273.71a2.9 2.9 0 0 0-2.89 2.9v32.74a2.9 2.9 0 0 0 2.9 2.89h32.74a2.9 2.9 0 0 0 2.89-2.9V276.6a2.9 2.9 0 0 0-2.9-2.89zM597.7 293q-1.32 0-1.89 1.71a7 7 0 0 1-1.05 2.07c-.89.89-.67 1.16 1.19 1.47.96.16 2.27.59 2.9.95 1.4.78 3.56.93 3.96.28.16-.26.75-.47 1.32-.47a2.4 2.4 0 0 0 1.7-.93c.4-.55 1.2-.93 1.97-.93 1.44 0 1.73-.66.48-1.12a21 21 0 0 1-2.2-1.06c-.77-.42-2.45-.85-3.73-.95s-2.77-.4-3.32-.67a3 3 0 0 0-1.33-.35m18.83 5.1a.4.4 0 0 0-.3.14c-.18.17-.04.3.3.3s.48-.13.31-.3a.4.4 0 0 0-.3-.13m7.09 1.11c-.64 0-1.35.82-1.35 1.8 0 1.02 1.18.87 1.88-.24.37-.59.36-.95-.04-1.34a.7.7 0 0 0-.5-.22m-31.89 2.82q-.65 0 .94 1.5c.98.91 1.48 1.92 1.7 3.4l.6 3.94c.44 2.94 1.46 3.82 2.27 1.98.36-.82.94-1.1 2.74-1.28 2.19-.22 3.68-1.4 1.78-1.4-1.59 0-3.83-1.4-3.83-2.39s-1.02-2.26-1.83-2.26c-.27 0-.5-.41-.5-.92q.01-.91-1.94-1.85a6 6 0 0 0-1.93-.72m18.9.73q-.5.02-1.3.1c-1.3.14-3.28.72-4.39 1.3-1.86.97-1.95 1.1-1.17 1.67.47.35 1.26.62 1.77.62 1.05 0 2.62 1.27 2.62 2.11 0 .31.31.83.7 1.15s.7 1.18.7 1.9c0 1.09-.35 1.51-1.85 2.28a9 9 0 0 1-2.48.94c-.53 0-1.72 1.79-1.72 2.58 0 .11.76.2 1.68.2 1.31 0 2 .35 3.14 1.57a5.9 5.9 0 0 0 6.37 1.63c1.98-.66 3.7-2.16 3.7-3.22 0-.44.33-.93.73-1.08 1.23-.48 2.99-.32 2.99.26 0 .87 1.93 2.7 2.85 2.7.46 0 1.52.58 2.36 1.29.85.7 1.94 1.5 2.43 1.77.5.28 1.12.9 1.4 1.4 1.07 1.92 2.2 2.53 4.73 2.53 1.9 0 2.42-.15 2.23-.64-.26-.7-2.17-1.69-3.23-1.69-.92 0-.91-3.24 0-4.45.95-1.25.9-3.33-.1-3.86-.46-.25-2.3-.75-4.08-1.12a26 26 0 0 1-5.2-1.67c-2.3-1.17-3.6-1.24-5.42-.3-1.9 1-2.87.87-3.74-.44-.82-1.27-1.02-3.98-.28-3.98 1.4 0-.1-1.91-2.22-2.8a3.7 3.7 0 0 1-1.6-1.66c-.4-.86-.6-1.11-1.61-1.09" candidates="[{&quot;candidate&quot;:&quot;&quot;,&quot;count&quot;:3,&quot;margin&quot;:0}]" long-name="KO" region="KO" short-name="KO" style="display:inline;fill-opacity:1;stroke:none;stroke-width:.8336px;stroke-opacity:1;fill:#ccc;visibility:visible;cursor:pointer;transition:fill .2s ease-in-out" transform="matrix(0.75838883,0,0,0.75838883,-419.3898,1.6121032)" value="1"/>
    <path d="M86.8 85.14c.12-.19.74-.35 1.37-.35.62 0 1.29-.15 1.47-.33.19-.18.9-.38 1.57-.44.9-.08 1.27-.3 1.36-.82.07-.38.33-1.18.58-1.76.6-1.4 1.46-4.28 1.73-5.86.13-.7.54-1.92.93-2.71.38-.8.7-1.58.7-1.73 0-.16.63-1.6 1.4-3.2.78-1.6 1.43-3.1 1.44-3.35.02-.24.33-.91.7-1.5a67 67 0 0 0 3.37-6.7c.73-1.68 3.37-4.26 6.4-6.25 1.22-.8 2.2-1.61 2.2-1.81s.43-.8.95-1.35c.93-.97.94-.99.26-1.73-.54-.6-.67-1.29-.67-3.52 0-1.74.16-2.93.44-3.2.24-.25.44-.8.44-1.22s.24-.96.53-1.2c.8-.66.67-1.2-1.06-4.66a23 23 0 0 1-1.59-3.64c0-.33-.75-.5-2.64-.58-1.46-.07-2.65.02-2.65.18 0 .17-.24.21-.53.1-.4-.15-.53.06-.53.87 0 .59-.13.99-.29.89s-.57.45-.92 1.23q-.63 1.42-1.12 1.23-.48-.18-.49.55.01.75-.53.52c-.29-.1-.53-.02-.53.2q-.02.35-.23.17c-.37-.36-1.53.85-1.53 1.58 0 .53-.28.65-1.54.65-1.38 0-1.75-.2-3.6-1.94-1.12-1.07-2.31-1.94-2.63-1.94-.33 0-1.25-.48-2.06-1.06-1.66-1.2-1.87-2.2-.76-3.61.61-.78.63-.95.18-1.33-.6-.49-.7-2.67-.2-3.99.26-.67.67-.9 1.94-1.1.89-.13 1.61-.37 1.61-.53s-.71-.63-1.59-1.04c-1.68-.8-2.05-1.68-1.03-2.52.47-.4.36-.55-.89-1.12-1.6-.73-1.8-1.43-.7-2.59.6-.65.65-.9.3-1.67-.4-.9-1.73-1.57-1.73-.88 0 .2-.41.28-.91.18-.58-.1-.98 0-1.1.31q-.18.5-2.02.49c-1 0-1.98.13-2.16.3-.19.15-1 .48-1.81.7-1.09.31-1.51.63-1.6 1.2-.08.58-.5.88-1.7 1.22-2.85.81-3.12 1.07-3.24 3.07-.08 1.32-.25 1.82-.68 1.9-.84.16-4.15-3.2-4.4-4.47-.17-.81-.43-1.08-1.15-1.17s-.95-.32-1.04-1.07c-.08-.7-.31-.97-.8-.97-.38 0-1.04-.19-1.47-.41l-1.32-.66c-.3-.13-.58-.57-.64-.96-.08-.5-.46-.8-1.29-.95a3.3 3.3 0 0 1-1.6-.73c-.3-.37-.6-.42-1.07-.17-1.51.81-5.55.3-6.8-.85-.77-.72-.94-.74-2.91-.33-2.51.53-4.83.59-5.29.15s-7.39.09-8.02.61c-.3.25-.44.78-.34 1.3.1.49-.01 1.1-.24 1.38q-.42.5-.04.72c.2.13.37.85.37 1.6 0 1.15-.26 1.63-1.7 3.1a10 10 0 0 1-3.6 2.46l-1.93.71.12 2.67c.11 2.48.06 2.73-.8 3.58-1.05 1.06-1.1 1.24-.4 1.24.28 0 1.09.53 1.8 1.18 1.14 1.04 1.27 1.34 1.17 2.65-.1 1.34 0 1.54.94 2.03 1.57.8 2.28 1.57 2.28 2.43 0 .46.36.96.91 1.25a4.7 4.7 0 0 1 2.33 3.44c.11 1.12.12 1.12 1.12.6a5 5 0 0 1 1.47-.53c.24 0 .54-.24.65-.53q.2-.53 1.63-.53c1.2 0 1.49-.14 1.77-.88.31-.82.49-.88 2.72-.85 2.66.03 4.97.99 5.54 2.3.18.41.96.97 1.72 1.25 1.05.38 1.6.9 2.2 2.02.45.83 1.07 1.8 1.4 2.15.86.96.61 4.56-.35 5.09-1.07.6-1.25 1.02-.69 1.64.62.68.66 1.75.11 2.95-.3.67-.3 1.13.03 1.93.39.94.94 1.3 2.93 1.94.76.24.8 1.39.08 1.99-.57.47-.48 1.15.4 2.96.27.56.49 1.64.49 2.4 0 1.18-.16 1.46-1.23 2.09-.68.4-1.24.8-1.24.9 0 .28 2.47 2.5 3.02 2.72.29.1.67.6.86 1.08l.33.88h6.95l6.94-.02 1.46 1.43a7 7 0 0 0 1.78 1.43c.63 0 2.3 1.91 2.3 2.64 0 .41.56 1.3 1.25 1.96.7.67 1.51 1.75 1.82 2.4s.91 1.3 1.34 1.47.88.54 1 .85c.23.62 2.17.78 2.52.2" candidates="[{&quot;candidate&quot;:&quot;&quot;,&quot;count&quot;:4,&quot;margin&quot;:0}]" long-name="Cambira" region="CM" short-name="CM" style="stroke:none;fill:#ccc;visibility:visible;fill-opacity:1;cursor:pointer;transition:fill .2s ease-in-out" value="1"/>
    <path d="M423.36 100.9c.25.09.56 0 .68-.21.13-.2.54-.38.91-.38s1.22-.47 1.88-1.06a6 6 0 0 1 1.51-1.06c.17 0 1.26-.72 2.42-1.6 4.64-3.52 6.17-3.51 12 .03 1.27.77 1.8.86 5.35.87 4.5 0 5.2.2 7.62 2.13 1.36 1.08 2.07 1.4 3.1 1.4.74 0 1.45-.16 1.57-.35.12-.2 1.04-.36 2.05-.36 1.98 0 2.46-.2 2.8-1.12.13-.35.79-.7 1.57-.84a17 17 0 0 0 3.2-1.08 11 11 0 0 1 2.36-.84c.27 0 .6-.16.72-.35.12-.2.52-.35.9-.35s.68-.16.68-.36-.23-.35-.5-.35c-.29 0-.65-.2-.8-.46-.16-.25-.8-.82-1.43-1.26-1.05-.73-1.15-.95-1.15-2.69 0-1.7-.1-1.97-1.07-2.65a8 8 0 0 0-2.03-1.02c-.89-.24-.96-.4-1.06-2.36-.13-2.77-.48-2.96-5.87-3.32-6-.39-8.66-1.26-8.66-2.83 0-.92-1.25-2.3-2.73-3q-3.61-1.72-3.62-3.56-.01-1.1-.74-1.6c-.6-.39-.76-.92-.86-2.77l-.13-2.28-3.1-.61c-3.83-.77-9.98-1.3-10.23-.89-.1.17-.6.26-1.12.2a3 3 0 0 0-1.37.18c-.24.15-1.41.23-2.6.19-1.79-.07-2.26.04-2.74.62-.77.93-2.46 1.97-2.84 1.73-.16-.1-.5.05-.74.34-.3.38-1.16.52-3 .52-2.9 0-3.47-.37-3.28-2.16.14-1.44.33-1.38-8.33-2.75-2.6-.42-3.37-.82-3.37-1.75 0-.45-.73-.7-3.27-1.18-1.8-.33-4.45-.7-5.9-.83-3.08-.26-3.89-.6-3.89-1.6 0-.86-2.51-3.34-4.05-4-.59-.26-1.78-.58-2.65-.72a6 6 0 0 1-2.12-.7c-.29-.23-1.8-.64-3.35-.9a47 47 0 0 1-4.23-.88c-1.3-.38-1.42-.52-1.52-1.8-.08-1.09.13-1.7.96-2.86.6-.82.92-1.56.73-1.68s-.35-.67-.35-1.22c0-1.03 1.68-2.83 2.63-2.83.25 0 .65-.23.88-.5.54-.67-.5-1.27-2.18-1.27-.65 0-1.34-.13-1.52-.3-.19-.16-1.53-.49-2.98-.72l-4.77-.75c-1.16-.19-2.88-.43-3.83-.55-1.25-.15-1.76-.38-1.88-.85-.21-.8-2.11-1.16-2.39-.43-.1.27-.39.42-.63.33-.24-.1-.66.06-.92.34-.4.43-.36.54.27.7.4.11.74.34.74.5 0 .18.12.3.27.28.9-.15 1.14.15 1.14 1.44 0 1.57-.55 2.05-2.52 2.21-.65.05-1.26.2-1.37.34-.1.13-.93.28-1.85.33s-1.67.2-1.67.33c0 .14-.4.35-.88.47-.48.13-.88.39-.88.6s-.14.27-.31.17c-.48-.3-1.03 1.53-1.09 3.66-.05 1.89-.5 3-1.08 2.66-.15-.1-.33-.02-.4.18s-.8.4-1.62.44c-.82.05-1.5.2-1.5.35s-1.03.27-2.29.27h-2.3V51c-.01.63-.25 1.46-.53 1.83-.9 1.2-.64 3.17.71 5.3a12 12 0 0 1 1.24 2.25c0 .18.28.43.62.54s1.31.62 2.17 1.1 1.9.89 2.3.89c.42 0 .92.15 1.1.33s1.1.37 2.03.42 1.78.22 1.87.37c.1.16.57.29 1.05.29s1.27.26 1.75.57.87.45.87.3c0-.13.2-.08.47.14.25.21.8.44 1.2.5s.98.32 1.3.58c.3.26.55.35.55.2s.2-.1.45.1c.24.2 1.07.41 1.85.47.77.05 1.83.38 2.35.74.51.35 1.15.63 1.4.63.27 0 1 .32 1.64.71.64.4 1.44.77 1.77.83.78.16 1.85.55 2.62.96.34.18.79.33 1 .33s1.07.47 1.92 1.05a8 8 0 0 0 1.87 1.06c.18 0 1.07.41 1.96.91.9.5 1.64.8 1.64.65 0-.14.33.05.74.42s.76.62.8.56c.05-.13 1.14.2 2.16.67.39.17 1.06.37 1.5.43 1.33.18 4.99 4.58 6.8 8.18 1.27 2.5 2.29 4 3.27 4.77.52.41.95.63.95.5 0-.15.28-.02.62.27.76.67 2.84 1.64 3.8 1.78.38.06.9.24 1.16.4.25.15.65.11.9-.1.6-.49 9.63-.57 10.22-.09.24.2 1.12.41 1.95.46 1.06.06 1.62.29 1.87.75.2.37.44.58.55.48.27-.27 2.22.78 2.22 1.2 0 .19.3.34.66.34.86 0 3.31 2.4 4.78 4.67.57.87.7.92 1.34.47.39-.28.91-.42 1.16-.33" candidates="[{&quot;candidate&quot;:&quot;&quot;,&quot;count&quot;:7,&quot;margin&quot;:0}]" long-name="Matatheste" region="MA" short-name="MA" style="stroke:none;fill:#ccc;visibility:visible;fill-opacity:1;cursor:pointer;transition:fill .2s ease-in-out" value="1"/>
    <path d="M221.07 107.5c.25-.3.83-.7 1.28-.87s.92-.59 1.04-.93.45-.9.74-1.23c.78-.9 2.2-3.84 2.2-4.55 0-.34.16-.72.35-.84.2-.12.35-.93.35-1.8 0-1.5-.35-2.48-1.36-3.74-2.05-2.56-2.78-6.32-1.46-7.51.63-.58.7-1.1.7-4.99 0-3.69-.1-4.53-.7-5.6-.39-.69-.7-1.72-.7-2.3 0-.56.31-1.6.7-2.28.39-.7.7-1.5.7-1.81 0-1.14 3.12-4.91 4.51-5.45.44-.18.94-.68 1.12-1.12.17-.44 1.36-1.82 2.64-3.08 1.27-1.25 2.32-2.46 2.32-2.68s.3-.67.67-1c.52-.47.73-1.33.92-3.82l.26-3.2-1.16-1.01a6 6 0 0 0-2.07-1.24 3.4 3.4 0 0 1-1.48-.87c-.32-.36-.75-.65-.96-.65-.22 0-1.1-.34-1.95-.76-1.33-.65-1.6-.95-1.77-2.06-.25-1.54-1.12-2.63-2.34-2.93a2 2 0 0 1-1.23-1.03c-.2-.44-.71-.86-1.15-.92s-.8-.26-.8-.44-.43-.33-.96-.34c-.54 0-1.2-.15-1.49-.32-.35-.23-.64-.14-.96.31-.58.84-2.13 1.12-2.75.5-.27-.26-.66-.48-.88-.48s-.79-.4-1.27-.88a4.5 4.5 0 0 0-1.84-1.08l-1.84-.42q-2.12-.53-2.11-.04c0 .17-.12.28-.27.26-.14-.02-1.02-.02-1.94 0q-1.69.04-1.67.52c0 .3-.35.43-.97.37-1.31-.13-3.62-.95-3.62-1.29 0-.49-1.08-.27-1.28.27-.11.29-.35.43-.52.33-.18-.11-.32-.05-.32.12 0 .18-.47.34-1.06.35-1.07.03-2.11.76-2.11 1.49 0 .22-.15.3-.33.2-.18-.12-.56.11-.84.51-.35.5-.88.72-1.7.71-1.97-.03-2.42.09-2.42.6 0 .27-.16.4-.36.27-.2-.12-.35.22-.35.82v1.03l-3.09.1c-4.38.12-4.32.12-4.32.42 0 .15-1.5.28-3.35.28-2.96 0-3.4-.08-3.79-.7-.24-.4-.8-.71-1.26-.71-1.06 0-2.13-.58-3.3-1.79-1.04-1.07-3.47-1.57-3.73-.77-.2.58-8.85.61-10.11.04a2.1 2.1 0 0 1-1.1-1.43c-.13-.56-.61-1.4-1.08-1.87a3 3 0 0 1-.85-1.7c0-.67-.23-.9-1.06-1.07-.62-.13-1.06-.44-1.06-.75 0-.3-.3-.54-.66-.54-.4 0-.84-.41-1.1-1.06l-.44-1.06h-3.29c-1.81 0-3.39-.15-3.5-.35-.13-.2-.7-.35-1.28-.35-1.8 0-2.55-1.05-2.47-3.52.04-1.26-.09-2.13-.3-2.13s-.37-.28-.37-.64c0-.47-.46-.75-1.76-1.09l-1.76-.45V17.8c0-1.46-.12-1.73-.9-2.09-.5-.22-1.29-.4-1.77-.4-.47 0-.86-.17-.86-.36 0-.2-.42-.35-.93-.35s-1.22-.34-1.59-.76c-.36-.42-.66-.56-.66-.32s-.23.36-.52.25c-.33-.13-.82.19-1.3.83-.41.56-.9.95-1.05.85-.17-.1-.3 0-.3.23 0 .25-.35.34-.9.24-.5-.1-1.11.04-1.37.3-.26.25-.57.36-.69.24s-.22.06-.22.39-.2.58-.44.54c-1.64-.2-2.22.1-2.86 1.47-.58 1.26-.8 1.42-1.76 1.37-1.78-.1-2-.02-2 .66 0 .74-1.16 1.95-1.52 1.59-.13-.13-.24.04-.24.37 0 .34-.15.51-.35.4-.56-.36-.4.74.18 1.23.29.24.53.71.53 1.05s.23.82.52 1.06c.29.23.93 1.32 1.43 2.42s1.22 2.63 1.6 3.4q1.23 2.56.15 4.64a5 5 0 0 0-.53 1.56c0 .3-.23.86-.52 1.23-.8 1.06-.7 3.58.17 4.04.53.28.7.74.7 1.83 0 1.2-.26 1.76-1.6 3.33-.9 1.04-1.82 1.9-2.06 1.9s-.88.46-1.43 1.04c-.55.57-1.14 1-1.3.97s-.5.32-.76.8c-.24.5-.8 1.05-1.23 1.24s-.79.53-.79.75-.23.6-.52.83c-.63.53-1.6 2.4-1.6 3.1 0 .27-.32.97-.73 1.53-1 1.4-3.5 6.3-3.5 6.86 0 .24-.47 1.35-1.06 2.45a11 11 0 0 0-1.05 2.5c0 .26-.32 1.05-.7 1.74-.4.69-.71 1.8-.71 2.46s-.16 1.3-.36 1.42-.35.6-.35 1.07c0 .46-.32 1.41-.7 2.1-.94 1.66-.9 2.3.1 2.3.45 0 1.28.47 1.83 1.05.56.59 1.3 1.06 1.65 1.06s1.17.3 1.83.68c1.26.7 3.5 1 9.98 1.3l3.94.18 1.58-1.17c.88-.64 1.67-1.45 1.78-1.81.15-.53.5-.63 1.89-.55.93.05 2.01.25 2.4.43l1.32.64c1.07.53 1.81.32 3.62-1.02 2.21-1.64 7.48-4.32 8.49-4.32 1.18 0 2.9-1 3.86-2.27.9-1.17 1.19-3.15.53-3.55-.2-.12-.36-1.21-.36-2.42 0-1.67.23-2.66.93-4.06l.92-1.85 3.75.06c3.7.06 3.76.07 4.65 1.12.74.88 1.15 1.05 2.37 1.04.82-.01 1.57.13 1.69.3.1.19.74.34 1.4.34s1.28.16 1.4.35c.14.21 2.63.35 6.3.35 4.26 0 6.21.13 6.51.43.54.54.54 2.54 0 4.05-.45 1.23-.18 1.85.86 2 .29.04.8.35 1.13.68.53.53 1.25.76 2.03.66.13-.02.59.53 1.01 1.22.73 1.17.75 1.42.38 3.67-.22 1.33-.4 3.06-.4 3.84 0 1.18-.19 1.56-1.1 2.23a9 9 0 0 0-1.9 2.21c-.97 1.69-1.46 3.7-.9 3.7.7 0 .9.07 1.26.37.2.17 1.52.34 2.93.38 1.4.04 2.64.2 2.74.37.27.43 2.88.37 3.15-.07.27-.42 7.54-.42 8.1 0 .71.53 3.72 1.18 7.6 1.66.86.1 1.73.33 1.91.5.19.18.9.33 1.6.33 1.78 0 3.16 1 4.73 3.4 1.17 1.79 2.86 3.38 3.83 3.6.15.03.83.38 1.51.76.69.39 1.62.7 2.06.7.45 0 .93.12 1.07.26 1.13 1.13 7.18 1.58 8 .59" candidates="[{&quot;candidate&quot;:&quot;&quot;,&quot;count&quot;:1,&quot;margin&quot;:0}]" long-name="Cerbska" region="CE" short-name="CE" style="stroke:none;fill:#ccc;visibility:visible;fill-opacity:1;cursor:pointer;transition:fill .2s ease-in-out" value="1"/>
    <path d="M382.97 114.95c.38-.35.7-.92.7-1.28 0-.35.31-1.2.7-1.9.39-.68.7-1.55.7-1.93s.33-.85.71-1.06c.4-.2.7-.67.7-1.04 0-.36.3-1.27.67-2.01 2.85-5.8 2.94-6.09 3.45-11 .18-1.74.1-1.99-.85-3-1.4-1.5-3.26-4.3-3.26-4.92 0-.27-.32-.79-.7-1.14-.4-.35-.71-.82-.71-1.06 0-.23-.32-.7-.7-1.05-.4-.36-.71-.82-.71-1.05 0-1.17-5.1-4.77-6.77-4.77-.36 0-.93-.15-1.26-.33-.34-.18-1.19-.57-1.9-.87-.7-.3-1.47-.8-1.71-1.1a1.8 1.8 0 0 0-1.2-.54c-.4 0-1.3-.49-1.97-1.06s-1.5-1.04-1.83-1.04-.7-.16-.83-.36c-.12-.19-.66-.35-1.2-.35-.55 0-2.23-.63-3.73-1.41-1.51-.78-3.03-1.41-3.38-1.41s-.74-.16-.86-.35c-.12-.2-.84-.36-1.6-.36a6.4 6.4 0 0 1-2.63-.7c-.7-.4-1.55-.7-1.9-.7s-.93-.33-1.28-.71c-.45-.5-1.08-.7-2.15-.7-.83 0-1.6-.17-1.73-.36-.12-.2-.75-.35-1.4-.35-.66 0-1.3-.16-1.42-.36s-.69-.35-1.26-.35c-1.1 0-2.13-.47-3.38-1.53q-.75-.63-.99-.26c-.13.2-1.24.38-2.48.38s-2.35.16-2.47.35c-.12.2-.66.35-1.2.35-1.12 0-1.95.85-3.22 3.29-1.06 2.06-5.1 6.34-6.12 6.5-.4.06-.9.27-1.08.45-.45.46-4.33.45-4.61 0-.25-.4-2.05-.49-2.42-.11-.14.13-.5.28-.8.32-2.05.3-3.85 1.96-5.32 4.9-2.42 4.82-3.06 6.05-3.4 6.48-.2.26-.58.81-.82 1.23-1.2 2.07-1.3 2.35-.93 3.14l1.1 2.38c.75 1.62 3.98 5.3 4.65 5.3.2 0 .53.4.72.9s.49.8.67.7c.18-.12.6.26.94.83s.87 1.1 1.17 1.19c1 .26 2.15 2.97 2.15 5.03 0 1.03.16 1.98.35 2.1.2.12.35.62.35 1.11 0 .55.42 1.3 1.06 1.89a5 5 0 0 1 1.06 1.21c0 .12.51.73 1.15 1.34s1.4 1.7 1.72 2.4a5.6 5.6 0 0 0 1.85 2.08c.7.43 1.28.93 1.28 1.11s.31.64.7 1.02c.38.39.87 1.42 1.1 2.3l.4 1.6h3.26c2.57 0 3.37-.13 3.74-.57.26-.32.82-.7 1.24-.86.81-.31 1.9-2.14 1.9-3.19 0-.6 3.11-2.44 4.13-2.44.64 0 1.8-.68 3.33-1.94 6.2-5.12 6.87-5.35 9.1-3.1 1.81 1.83 2.5 2.16 4.6 2.26 1 .04 1.9.21 1.99.37s.62.29 1.16.29c.97 0 1.24.21 3.77 2.91a5.5 5.5 0 0 0 1.84 1.43c.33.06 1.15.36 1.83.68s2.03.66 3 .77c4.4.47 5.34.67 6 1.28.4.36 1.32.7 2.06.75 1.07.07 1.45.3 1.86 1.07.28.54.74.99 1.01.99.28 0 .72.35.97.8.38.67.46-.03.55-4.72.08-4.97.16-5.58.79-6.14" candidates="[{&quot;candidate&quot;:&quot;&quot;,&quot;count&quot;:3,&quot;margin&quot;:0}]" long-name="Larimer" region="LA" short-name="LA" style="stroke:none;fill:#ccc;visibility:visible;fill-opacity:1;cursor:pointer;transition:fill .2s ease-in-out" value="1"/>
    <path d="M450.21 153.58q2.76-1.41 5.15-3.78c1.31-1.3 2.39-2.52 2.39-2.7 0-.17.56-1.09 1.23-2.03.78-1.08 1.24-2.13 1.24-2.81 0-.6.32-1.5.7-1.99.4-.49.71-1.24.71-1.67 0-1.22 2.09-2.66 3.85-2.66.75 0 1.32-.33 2.03-1.19 1.43-1.7 2.43-1.92 3.36-.75 1.13 1.45 1.88 1.56 4.48.65 1.28-.45 2.57-.82 2.86-.81s1.14.7 1.89 1.56c.8.92 1.56 1.48 1.85 1.36.27-.1.5 0 .5.22s.2.38.44.35 1.05-.04 1.8-.02l1.36.04-.14 2.3c-.08 1.26-.02 2.3.13 2.3.16 0 .28.55.28 1.23 0 .86-.15 1.23-.52 1.23-.3 0-.53.15-.53.33s-.3.3-.68.28c-1.1-.08-3.2 1.23-3.2 2 0 .38-.7 1.35-1.55 2.17s-1.28 1.41-.94 1.32c.37-.1 1.07.3 1.76 1 .98.97 1.25 1.08 1.82.72.96-.6 4.37-.53 4.89.1.33.4.57.43 1.08.1.36-.22.57-.53.48-.68-.1-.16-.01-.28.2-.28.2 0 1.04-.64 1.87-1.42.82-.77 1.7-1.4 1.94-1.4.28 0 .44-.53.44-1.45 0-1.22.24-1.7 1.5-3.02 1.72-1.8 1.86-2.37.62-2.54-2.19-.3-2.39-1.84-.37-2.87a7 7 0 0 1 1.85-.72c.25 0 .85-.32 1.34-.7.48-.37 1.13-.69 1.44-.7.92 0 2.13-1.61 2.33-3.08.16-1.2.06-1.5-.73-2.12-.51-.4-.92-.98-.92-1.29s-.28-.57-.6-.57c-.34 0-.94-.3-1.33-.67l-3.03-2.81a17 17 0 0 1-3.07-3.65c-.74-1.47-1.99-2.84-2.3-2.53-.09.09-.36-.09-.6-.38-.25-.3-.8-.54-1.22-.54-.43 0-1.11-.32-1.53-.7-.42-.4-.92-.71-1.11-.71-.76 0-2.85-1.21-2.85-1.65 0-.33-.5-.45-1.73-.4-2.08.1-2.9-.45-2.66-1.77.13-.78-.05-1.08-1.1-1.74-.7-.43-1.71-.8-2.26-.8a7 7 0 0 1-2.3-.54l-1.3-.54.11-2.04q.18-3.2-1.6-3.22c-.6 0-3.15-1.41-3.33-1.84-.07-.15-.33-.28-.58-.28-.26 0-.56-.25-.68-.56-.17-.45-.5-.52-1.54-.33-.72.14-2.64.33-4.26.42-3.15.19-4.58-.21-5.86-1.63-1.33-1.47-2.55-1.78-7.02-1.78-3.7 0-4.33-.08-4.97-.68-1.27-1.19-4.65-2.8-5.18-2.46-.27.17-.81.31-1.22.31s-1.35.54-2.11 1.2c-.77.65-1.95 1.48-2.63 1.85s-1.88 1.2-2.67 1.86a6 6 0 0 1-2.64 1.33c-1.36.15-2.5 1.3-2.36 2.41.05.4.33.72.62.73.3.02 1.14.3 1.9.62.75.33 1.58.6 1.85.6s.77.14 1.1.32c1.26.66 4.6 1.83 5.51 1.93.53.05 1.5.63 2.18 1.28 1.05 1.02 1.22 1.42 1.22 2.84 0 1.48.15 1.8 1.54 3.14 1.51 1.47 1.54 1.54 1.74 4.37.12 1.58.47 3.58.79 4.46.73 2 .44 4.77-.62 5.9-.4.43-.87.7-1.03.6-.17-.11-.3-.04-.3.15 0 .18-.8.9-1.77 1.6-1.65 1.19-1.76 1.37-1.76 2.8 0 .83.23 1.82.52 2.2.28.37.52 1.43.52 2.34.01 1.44.18 1.8 1.34 2.9a7 7 0 0 0 1.58 1.26c.15 0 .75.85 1.33 1.9.59 1.03 1.4 2.18 1.8 2.54.4.37.93 1.14 1.17 1.73.36.86 2.9 4.06 3.23 4.06.04 0 1.32-.63 2.84-1.4" candidates="[{&quot;candidate&quot;:&quot;&quot;,&quot;count&quot;:12,&quot;margin&quot;:0}]" long-name="New Queria" region="NQ" short-name="NQ" style="stroke:none;fill:#ccc;visibility:visible;fill-opacity:1;cursor:pointer;transition:fill .2s ease-in-out" value="1"/>
    <path d="M233.54 156.04c.6 0 1.47-.31 1.96-.7.49-.37 1.07-.69 1.3-.7.53 0 1.87-1.7 1.87-2.35 0-.7 1.46-2.59 2-2.59.84 0 2.37-2.5 2.66-4.35.6-3.83.73-6.48.33-6.73-.22-.14-.4-.58-.4-.98 0-.8-.97-2.56-2.53-4.57q-1.76-2.27-.47-6.5c.87-2.89.68-3.36-2-5.02-1.46-.9-3.36-2.97-5.5-6-1.44-2.02-3.6-3.57-5.04-3.6-.28-.01-.82-.25-1.2-.54a3 3 0 0 0-1.6-.51c-.5 0-1.07-.14-1.26-.3-.61-.57-3.61-1.11-6.04-1.11-2.53 0-6.7-.82-8.28-1.64a4 4 0 0 0-1.51-.48c-.72 0-5.5-4.73-5.5-5.43 0-.94-1.73-1.9-4.14-2.3-2.22-.37-3.66-.66-9.08-1.85-1.31-.28-4.67-.47-8.82-.48-6.86-.01-12.09-.6-12.4-1.4-.08-.24.09-1.13.38-1.98s.55-1.76.55-2.02c0-.67 2.07-3.65 3.05-4.41.66-.52.84-1 .84-2.3 0-.9.15-2.26.33-3.01.17-.75.23-1.58.13-1.84s-1.4-1.07-2.88-1.8l-2.7-1.34-.1-1.73c-.07-.95.05-1.9.26-2.1.2-.2.37-.66.37-1 0-.59-.43-.64-5.2-.65-3.28-.01-6.06-.21-7.5-.54-1.26-.28-3.22-.7-4.35-.91a6.5 6.5 0 0 1-2.96-1.23c-.76-.7-1.28-.84-3.14-.84h-2.24l-.74 1.46a4.2 4.2 0 0 0-.52 2.91c.55 3.63.6 4.9.18 5.88-.61 1.49-2.55 3.06-4.3 3.5-2.06.51-7.94 3.4-9.44 4.64-1.42 1.17-3.52 1.34-6.6.54l-1.82-.47-2 1.7-2 1.71h-4.65c-2.7 0-4.82-.15-5.03-.36s-1.46-.45-2.8-.56c-3-.24-5.63-1.07-7.03-2.2l-1.06-.87-.18 2.44c-.15 2.1-.34 2.64-1.35 3.9-1.36 1.7-1.38 2.8-.04 3.62 3.14 1.95 3.43 2.2 3.64 3.26.51 2.54.34 3.6-1.32 8.23-.83 2.31-1 2.53-2.68 3.4-.98.52-2.09 1.01-2.46 1.11-.65.17-1.67 2.08-3 5.62-.5 1.3-.6 2.4-.49 4.94.13 2.85.27 3.46 1.1 4.68.53.78.96 1.7.96 2.07 0 .56.19.63 1.14.47 3.28-.57 13.12-1.38 13.21-1.09.06.18.9.27 1.87.2s1.77.03 1.77.22c0 .18.4.26.88.17.49-.1.88-.02.88.16 0 .59 2.13.05 2.49-.63.44-.82 3.28-2.8 4.01-2.8.63 0 1.5-.79 2.39-2.16.85-1.3 3.48-2.07 7.14-2.07 1.66 0 3.02.14 3.02.3 0 .17.4.23.88.14.49-.1.89-.03.89.14s2.62.26 5.82.2c3.77-.07 5.82.02 5.82.25 0 .2.24.27.53.16s.53-.06.53.12.55.25 1.23.17 1.24.01 1.24.2c0 .34 1.1.18 4.05-.59.78-.2 2.55-.37 3.93-.37 2.25-.01 2.54.06 2.7.72.17.61.32.67.9.35 1.18-.63 3.01-.46 3.5.31.4.65.51.66 1.66.18 1.58-.66 2.3-.65 2.3.04 0 .3.16.45.36.33s.35-.08.35.1c0 .16.44.24.97.17.75-.11 1.05.04 1.32.66.32.72.56.79 2.56.7 1.84-.08 2.2 0 2.2.48 0 .32.17.48.36.36.2-.12.35-.04.35.17s.16.3.36.18.35-.05.35.15.24.27.53.15c.29-.1.53-.05.53.12 0 .92 7.8-.96 9.2-2.21.86-.78 2.09-.64 2.09.22 0 .4.15.63.35.51s.35-.06.35.12c0 .2.32.26.7.16.42-.1.71-.01.71.23 0 .23.16.32.35.2.2-.12.36-.04.36.17s.14.3.32.2c.18-.11.38-.02.45.2.08.23.56.04 1.18-.49a6 6 0 0 1 2.19-1.12c.63-.14 1.23-.4 1.34-.58.36-.57 1.04-.34 1.4.47.2.45.61.75.95.7.47-.08.62.22.7 1.4.09 1.22.23 1.5.73 1.41.34-.05.62.03.62.2 0 .16.55.23 1.23.15.79-.1 1.23 0 1.23.27 0 .23.16.31.36.2.2-.13.35.22.35.83 0 .59-.16 1.16-.35 1.28-.67.41-.35.78.53.61.48-.09.88 0 .88.18 0 .2.4.27.88.18.49-.1.88 0 .88.19 0 .2.3.28.66.19.8-.2 1.16 1.07.68 2.36-.35.96-.1 1.9.42 1.58.2-.12.36-.05.36.15s.24.27.53.16.53-.02.53.2c0 .23.15.32.34.2.46-.28.79 1.15.65 2.85-.1 1.15 0 1.36.5 1.28.35-.06.62.04.62.23 0 .18.28.26.62.17.44-.11.76.18 1.1 1 .27.65.73 1.36 1.03 1.6.4.31.52 1.04.47 2.76q-.06 2.32.3 2.1c.2-.12.36-.04.36.18 0 .21.15.3.33.19.41-.25 2.05 1.33 1.89 1.82-.07.2.19.73.56 1.2l.68.84 1.47-.83c.86-.48 2.33-.9 3.51-1l2.04-.2 1.02 1.73 1.03 1.72 2.8.02c1.94.01 2.84.15 2.95.47q.14.48.53.07c.21-.22.87-.4 1.46-.4" candidates="[{&quot;candidate&quot;:&quot;&quot;,&quot;count&quot;:1,&quot;margin&quot;:0}]" long-name="Armallos" region="AR" short-name="AR" style="stroke:none;fill:#ccc;visibility:visible;fill-opacity:1;cursor:pointer;transition:fill .2s ease-in-out" value="1"/>
    <path d="M314.3 157.44c.83-.66.93-.97.93-2.98 0-1.24.16-2.35.35-2.46.2-.12.35-.6.35-1.06s.16-.94.36-1.06.35-.6.35-1.06.16-.94.35-1.06c.2-.12.35-.6.35-1.06s.16-.94.36-1.05.35-.76.35-1.42.16-1.29.35-1.4c.2-.13.37-.73.39-1.35.04-1.42 1.7-4.53 2.68-5.02 2.21-1.1 2.93-2.62 2.93-6.2 0-2.1-.17-3.06-.7-4.02a6 6 0 0 1-.71-1.76c0-.28-.3-1.05-.68-1.72s-.57-1.33-.44-1.48q.18-.22-.2-.01-.45.22-.78-.62a3 3 0 0 0-1.32-1.35 4.4 4.4 0 0 1-1.7-1.96c-.38-.82-.9-1.5-1.15-1.5s-.55-.28-.67-.62a10 10 0 0 0-1.5-2.03c-1.52-1.65-2.12-3.22-2.17-5.65-.06-2.38-.64-3.53-2.95-5.8-1.08-1.06-1.96-2.14-1.96-2.39 0-.24-.21-.45-.47-.45-.52 0-2.36-1.8-2.36-2.31 0-.2-.35-.5-.78-.7-.46-.2-1.34-1.43-2.12-2.95-1.55-3.05-1.77-5.17-.62-6.2.38-.36.7-.81.7-1.01s.32-.7.7-1.1.75-1.1.81-1.51c.07-.42.35-1.05.63-1.4.8-1 1.39-2.16 1.39-2.75 0-.7.64-1.83 1.85-3.28.54-.63.97-1.3.97-1.47 0-.4 2.04-1.42 2.86-1.42.34 0 .74-.18.87-.39.15-.25 1.4-.33 3.63-.23 2.74.13 3.68.04 4.81-.47 1.58-.7 5.06-4.16 5.84-5.8 1.02-2.14 2.52-3.7 3.55-3.7.54 0 1.08-.16 1.2-.35.12-.2 1.4-.35 2.84-.35s2.62-.08 2.62-.17c0-.25-1.43-2.79-1.8-3.17-.17-.18-.31-.92-.31-1.63 0-.93-.25-1.55-.88-2.14-.48-.46-.88-.96-.88-1.1 0-.16-.32-.63-.71-1.05-.39-.41-.7-.96-.7-1.22 0-.25-.17-.46-.36-.46-.2 0-.35-.32-.35-.7q-.01-.7-.67-.71c-.4 0-.83-.4-1.09-1.03-.23-.57-.69-1.16-1-1.3-.62-.28-4.04-.65-10.17-1.1-2.77-.21-3.75-.43-4.33-.95-.4-.37-.67-.74-.58-.83.21-.22-.38-.76-2-1.85-.73-.48-1.33-1-1.33-1.14 0-.15-.32-.27-.7-.27-.4 0-.71-.16-.71-.35 0-.2-.2-.35-.46-.35s-.8-.32-1.22-.7c-.84-.78-1.5-.93-1.5-.33 0 .38-.57.35-5.02-.23-.92-.12-1.68-.38-1.68-.57 0-.2-1.47-.3-3.76-.23l-3.76.1-1.26 1.29c-1.18 1.18-1.44 1.28-3.55 1.34a10 10 0 0 0-2.45.23c-.1.1-.13.89-.08 1.76l.1 1.57-5.4.06c-2.98.03-5.61.05-5.86.04-.24-.01-.44.12-.44.3s-.23.3-.53.3c-.29 0-.53.14-.53.3s-.23.32-.52.35l-.97.12c-.25.04-.84.45-1.33.93-.48.48-.68.76-.44.63.24-.14.44-.2.44-.14s.15.62.32 1.23c.26.9.2 1.25-.35 1.83-.66.71-.97 2.74-.36 2.36.18-.1.41.05.52.34s.6.52 1.1.52c.8 0 .89.14.88 1.33-.01 1.32-.74 2.75-1.17 2.31q-.21-.16-.23.2c0 .24-.16.34-.36.22s-.45.03-.56.33-.52.55-.88.55c-.37 0-.67.16-.67.36s-.32.35-.7.35c-.4 0-.71.16-.71.35 0 .2-.2.31-.42.27-.56-.12-.92 1.65-.73 3.61.18 1.83-.45 3.3-1.5 3.48-.39.06-.79.25-.89.42s-.87.28-1.71.27c-.94-.01-1.66.17-1.84.46-.17.27-.31.35-.32.18 0-.17-.21-.13-.47.08s-.58.3-.71.16c-.13-.12-.23.05-.23.38 0 .34-.16.51-.35.4-.32-.2-.51.26-.4.96.02.15-.4.27-.95.27-.9 0-1.04-.18-1.48-1.77-.26-.97-.6-1.76-.77-1.76-.15 0-.29-.32-.29-.7 0-.4-.14-.71-.32-.71-.19 0-.43-.3-.54-.65-.12-.37-.85-.86-1.7-1.13a12 12 0 0 1-4.47-2.72c-.5-.44-1.01-.8-1.15-.8s-.58-.34-.97-.77a3 3 0 0 1-.3-3.43c.32-.53.3-.77-.16-1.22a2 2 0 0 0-1.28-.57c-.39 0-.8-.16-.92-.35-.12-.2-.45-.36-.73-.36-.36 0-.5.42-.5 1.44 0 1.16-.3 1.83-1.56 3.44a82 82 0 0 1-7.74 8.12 10 10 0 0 0-2.03 2.83c-.4.9-.98 2.15-1.3 2.77-.55 1.09-.54 1.21.2 2.75.7 1.43.78 2.16.78 6.65 0 4.6-.06 5.11-.7 5.7-1.13 1.01-.95 1.75 1.32 5.3 1.03 1.62 1.2 2.56 1.06 5.63-.13 2.49-.37 3.6-1.1 5.17-.52 1.1-1.2 2.19-1.49 2.44-.3.24-.85.88-1.23 1.42l-.7.98.78.73a3 3 0 0 0 1.75.73c.54 0 1.07.15 1.2.35.11.2.56.35.98.36.43 0 1.17.32 1.66.7.48.38 1.16.69 1.5.7.36 0 1.63 1.36 3.1 3.34 1.36 1.84 3.06 3.77 3.79 4.3.72.52 1.89 1.4 2.6 1.93 1.23.95 1.44.98 5.73 1.04 2.45.03 4.54.2 4.64.37.11.17.66.31 1.22.31s1.11.16 1.23.35c.12.2.65.36 1.19.36q1.82-.01 1.8 1.78c0 .67.66 1.64 2.3 3.37 1.38 1.48 2.28 2.74 2.29 3.22 0 .83 2.27 3.62 2.93 3.62.21 0 .72.32 1.13.7.41.4 1.16.74 1.67.78.9.08 1.96 1 5.18 4.46.78.84 1.57 1.43 1.76 1.32a.4.4 0 0 1 .56.14c.14.23 3.14.36 8.08.36 9.04 0 8.64-.14 9.55 3.34q.77 2.97 1.65 2.45c.14-.08.35 0 .48.2.12.2.81.36 1.54.36.72 0 1.47.15 1.65.34.19.18 1.29.38 2.44.44 2.08.1 2.12.12 2.47 1.34.53 1.8.82 2.12 1.96 2.12q1.75 0 1.76 2.37c0 1.6.55 1.86 3.9 1.86 2.56 0 3.21-.12 3.99-.73" candidates="[{&quot;candidate&quot;:&quot;&quot;,&quot;count&quot;:5,&quot;margin&quot;:0}]" long-name="Settigan" region="ST" short-name="ST" style="stroke:none;fill:#ccc;visibility:visible;fill-opacity:1;cursor:pointer;transition:fill .2s ease-in-out" value="1"/>
    <path d="M478.9 152.98q-.23 0-.5.24c-.3.25-.54.33-.54.19s-.21-.09-.48.13c-.26.21-.58.28-.72.14s-.13.06.01.44c.33.87 1.25 1.58 1.68 1.31.18-.1.69.25 1.12.8.57.7 1.13 1 1.97 1.02 1.05.03 1.2.16 1.29 1.1.07.76-.17 1.4-.8 2.13l-.91 1.04.89.78c.49.42.89.93.89 1.13 0 .55 1.09 1.01 1.9.8a3 3 0 0 0 1.35-.97c.34-.43.99-.87 1.44-.98.71-.18.82-.43.83-1.9 0-1.57.09-1.72 1.3-2.36 1.22-.64 1.26-.71.7-1.33a6 6 0 0 0-2.14-1.1c-1-.3-1.7-.76-1.98-1.32q-.45-.85-1.13-.75c-3.12.51-4.8.47-5.45-.12-.32-.28-.53-.42-.73-.42m15.85 1.89a2.2 2.2 0 0 0-2.2 2.19v24.83a2.2 2.2 0 0 0 2.2 2.2h24.83a2.2 2.2 0 0 0 2.2-2.2v-24.83a2.2 2.2 0 0 0-2.2-2.2z" candidates="[{&quot;candidate&quot;:&quot;&quot;,&quot;count&quot;:3,&quot;margin&quot;:0}]" long-name="Yapburgh DF" region="DF" short-name="DF" style="stroke:none;stroke-width:1.1553px;fill:#ccc;visibility:visible;fill-opacity:1;cursor:pointer;transition:fill .2s ease-in-out" value="1"/>
    <path d="M81.36 165.56c.37-.2.68-.66.68-1.03s.17-.78.38-.9c.2-.13.5-.59.67-1.01.23-.61.85-.9 2.88-1.38 1.43-.34 3.23-.6 4-.6h1.4l-1.16-1.06a8 8 0 0 0-1.32-1.06c-.09 0-.8-.42-1.56-.93-1.08-.7-1.4-1.15-1.4-1.9 0-1.4 1.65-2.67 4.13-3.18 3.27-.67 4.68-1.68 4.68-3.33 0-1.14-1.7-3.07-3.4-3.87a15 15 0 0 1-3.04-1.97c-1.13-1-1.32-1.39-1.32-2.66 0-.88.21-1.65.53-1.91.45-.38.41-.52-.32-1.1a3 3 0 0 0-1.27-.67c-.23 0-.84-.29-1.35-.65a9 9 0 0 0-1.56-.87c-.4-.14-.62-.59-.62-1.27 0-.91.31-1.23 2.47-2.57 2.54-1.56 2.85-2 1.95-2.75-1.25-1.04-1.6-2.5-1.6-6.91 0-2.51.16-4.43.36-4.56s.35-.5.35-.83c0-.66 2.07-4.96 2.82-5.86.24-.3.74-.54 1.11-.54 1.35 0 3.83-1.86 3.83-2.87 0-.35.32-1.2.7-1.9.4-.68.71-1.48.71-1.77s.19-.82.42-1.18c.32-.53.28-.93-.2-1.96-.34-.71-.89-1.39-1.21-1.5a9 9 0 0 1-1.92-1.46c-1.22-1.16-1.32-1.41-1.32-3.24 0-1.74.13-2.1 1.06-3 .97-.92 1.06-1.2 1.06-3.41v-2.4h-1.04c-.57 0-1.12.14-1.23.31-.23.37-2.04.73-4.98.97l-2.13.18-2.64-2.76a24 24 0 0 1-3.61-4.77c-.82-1.66-1.27-2.15-2.65-2.82-.9-.45-1.81-1.17-2-1.6-.34-.77-.52-.8-4.83-.8-4.86 0-5.68.3-4.05 1.5.72.52.94.97.94 1.97 0 1.08.16 1.37.99 1.73.56.25 1.59 1.38 2.38 2.6.76 1.18 1.75 2.3 2.18 2.46q1.65.64-.3 2.65l-1.1 1.13 1.01.63c1.82 1.13 3.65 3.08 3.65 3.9 0 .46-.71 1.52-1.76 2.6-1.83 1.88-2.13 2.6-1.23 2.94.65.26.73 3.77.11 4.93-.23.42-.46 1.6-.51 2.62-.11 2.16-.3 2.56-1.17 2.56-.35 0-.87.34-1.15.77-.48.71-.9.78-5.55.99-4.2.19-5.1.32-5.37.82-.18.32-.63.6-1 .6-.99 0-1.24.63-1.24 3.14v2.27l-1.94.5c-1.07.26-2.18.7-2.47.94-.29.26-1.16.66-1.94.9-.77.24-2 .77-2.73 1.17-1.25.69-1.33.83-1.33 2.43 0 1.49-.11 1.76-.89 2.12a5 5 0 0 0-1.61 1.58c-.55.88-.97 1.17-1.74 1.17-.55 0-1.1.16-1.22.35-.12.2-1.14.36-2.26.36-1.9 0-2.13.09-3.3 1.32-2.29 2.38-3.27 3.26-3.63 3.26-.48 0-2.28 2.08-2.28 2.62 0 .5-2.58 2.67-3.15 2.67-.2 0-.38.16-.38.36s.25.35.54.35.63.23.74.5c.1.29.65.62 1.22.74 1.25.28 3.15 1.88 3.15 2.68 0 .32-.84 1.09-1.92 1.74-1.05.64-2 1.49-2.1 1.9a9 9 0 0 0 .1 4.15c.36.96 3.94 4.87 4.45 4.87.4 0 2.05 2 2.4 2.92.12.34.5.71.85.82s.86.31 1.15.47c.32.16 1.08-.04 1.95-.53 2.01-1.12 4.49-1.44 5.52-.72.62.44 1.71.57 4.7.58 3.87 0 3.9.01 4.95 1.09 2 2.06 6.7 3.82 10.16 3.83 1.27 0 2.47.24 3.17.62.92.5 2.4.65 7.83.82 3.69.1 7 .23 7.35.26.35.04.94-.1 1.32-.3" candidates="[{&quot;candidate&quot;:&quot;&quot;,&quot;count&quot;:5,&quot;margin&quot;:0}]" long-name="Calleoria" region="CA" short-name="CA" style="stroke:none;fill:#ccc;visibility:visible;fill-opacity:1;cursor:pointer;transition:fill .2s ease-in-out" value="1"/>
    <path d="M347.86 207.2c.13-.2 2.52-.35 6-.35s5.86-.14 6-.35c.11-.2.73-.35 1.37-.35.71 0 1.4-.28 1.8-.7.35-.4.98-.71 1.4-.71.43 0 .9-.12 1.04-.27.26-.26.44-.31 1.44-.4.3-.02.53-.27.53-.55s.6-.79 1.32-1.12a10 10 0 0 0 2.12-1.31c.44-.4.8-.58.8-.42s.31 0 .7-.34c.39-.36.7-.86.7-1.13s.28-.58.62-.7c.82-.29 3.62-2.98 3.62-3.48 0-.23.31-.7.7-1.04.39-.36.7-.5.7-.35 0 .17.44-.09.98-.56 1.4-1.25 2.41-1.74 3.55-1.74.56 0 1.3-.31 1.65-.7.35-.4.8-.71 1-.71.7 0 2.7-2.25 2.7-3.01 0-.42.32-1.05.71-1.4s.7-1 .7-1.45.17-.9.36-1.02c.21-.13.35-2.51.35-5.95v-5.74l1-.94c.54-.53 1.14-.95 1.33-.95s.97-.64 1.73-1.41c.76-.78 1.55-1.41 1.77-1.41s.61-.56.88-1.25a6 6 0 0 1 1.12-1.82c.53-.48.64-1.14.64-4.02 0-1.93-.16-3.55-.35-3.67-.2-.12-.36-.6-.36-1.06s-.16-.94-.35-1.06c-.2-.12-.35-.91-.35-1.76 0-.86-.16-1.65-.36-1.77s-.35-.75-.35-1.41-.16-1.3-.35-1.41c-.2-.12-.35-.57-.35-1 0-.46-.6-1.38-1.41-2.18-.78-.75-1.42-1.54-1.42-1.75s-.51-.59-1.14-.86a8 8 0 0 1-1.8-1.05c-.36-.31-.76-.55-.88-.52-.64.13-1.82-.7-3.4-2.4-2.15-2.28-2.65-3.14-2.65-4.5 0-.58-.16-1.14-.36-1.26s-.35-.9-.35-1.72c0-1.66-.47-2.34-1.61-2.34-.43 0-.98-.25-1.24-.57-.26-.3-.83-.7-1.28-.87-.44-.17-.8-.5-.81-.76 0-.5-1.56-1.33-2.48-1.33-.32 0-.87-.32-1.22-.7-.45-.5-1.09-.7-2.15-.7-.83 0-1.61-.17-1.73-.36-.12-.2-.92-.35-1.77-.35s-1.64-.16-1.76-.36-.66-.35-1.2-.35c-1.5 0-2.85-.83-4.9-2.98-1.42-1.5-2.09-1.96-2.88-1.96-.57 0-1.13-.16-1.25-.35-.12-.2-.9-.35-1.73-.35-1.57 0-3.35-.7-4.1-1.6-.24-.29-.64-.52-.9-.52s-.6-.25-.77-.55c-.26-.45-.67-.26-2.42 1.15a45 45 0 0 0-3.3 2.92 4.3 4.3 0 0 1-2.28 1.35 3 3 0 0 0-1.42.45c-.18.18-.82.32-1.43.32-.99 0-1.15.17-1.73 1.77a7.6 7.6 0 0 1-2.25 3.2l-1.63 1.42-3.52-.06c-3.29-.07-4.46.24-3.4.9.53.33.47 7.3-.08 8.34-.66 1.26-2.1 2.78-2.6 2.78-.26 0-.71.47-1.01 1.06-.3.58-.7 1.05-.87 1.05-.3 0-1.11 2.9-1.82 6.53-.2.97-.56 2.24-.83 2.82a18.6 18.6 0 0 0-1.26 12.17c.5 2.15.3 8.66-.3 9.76-.18.36-.43.94-.54 1.29-.1.35-.36.54-.55.42s-.5.17-.7.65a3.4 3.4 0 0 1-1 1.34c-.78.55-2.19 3.16-2.19 4.05 0 .33-.21.86-.47 1.16s-.68 1.31-.93 2.23c-.47 1.74-.16 2.74.86 2.74.24 0 .72.32 1.07.7.35.4.86.71 1.13.71s.88.26 1.35.57.87.46.87.33.46.09 1.03.49c.56.4 1.17.73 1.35.73.9 0 1.8 1.7 2.04 3.86.14 1.26.37 2.53.51 2.83l.9 1.85c.66 1.39 4.35 5.4 4.67 5.07.1-.1.64.14 1.2.54.57.4 1.26.76 1.53.8.28.05.62.19.76.32.13.14 1 .25 1.93.25s1.78.16 1.9.35c.12.2.6.36 1.08.36s1.22.18 1.66.4 1.06.54 1.4.7c.34.17 1.53.32 2.64.33 1.33.02 2.4.26 3.1.68 1.13.7 3.87.93 4.23.35" candidates="[{&quot;candidate&quot;:&quot;&quot;,&quot;count&quot;:3,&quot;margin&quot;:0}]" long-name="Estellia" region="ES" short-name="ES" style="stroke:none;fill:#ccc;visibility:visible;fill-opacity:1;cursor:pointer;transition:fill .2s ease-in-out" value="1"/>
    <path d="M468.51 207.91c.12-.2.53-.35.9-.35.38 0 .69-.24.69-.53s-.24-.53-.53-.53q-.54.01-.53-1.17c0-.93.27-1.39 1.3-2.2.7-.58 1.38-1.01 1.5-.98.1.03.36-.07.55-.23s.99-.34 1.76-.4c1.62-.1 2.3-.5 2.3-1.33 0-.31.48-.95 1.06-1.4.81-.65 1.05-1.12 1.05-2.08 0-.73.26-1.47.62-1.81.34-.31.84-1 1.1-1.51.41-.8.41-1.1 0-2.03-.26-.6-.68-1.09-.93-1.09-.55 0-1.14-1.45-1.14-2.82 0-.87-.26-1.14-1.94-1.96-1.18-.57-1.94-1.17-1.94-1.53 0-.32-.34-.73-.76-.93-.64-.29-.8-.7-.91-2.52-.13-2-.07-2.22.68-2.62a6 6 0 0 0 1.44-1.14c.59-.68.59-.73-.1-1.37-.87-.81-.91-2.45-.08-3.18.33-.3 1.29-.88 2.11-1.3 1.46-.73 1.5-.8 1.5-2.48 0-2.02-.25-2.84-.88-2.84-.25 0-.56-.6-.7-1.33-.3-1.59-.75-2.2-1.64-2.2-.36 0-.66-.16-.66-.35 0-.2-.2-.36-.46-.36s-.8-.31-1.22-.7-.89-.7-1.04-.7a4 4 0 0 1-1.25-.84 2.4 2.4 0 0 1-.97-2.09c0-.69.15-1.3.34-1.37.22-.07.22-.94.02-2.37-.26-1.8-.53-2.45-1.4-3.3-.59-.58-1.07-1.28-1.07-1.54 0-.27-.3-.5-.66-.5s-1.06-.3-1.56-.7-1.03-.7-1.2-.7-.75-.4-1.31-.89l-1.03-.88-1.2 1.99a35 35 0 0 1-2.64 3.7c-1.5 1.77-5.18 4.78-5.67 4.62-.7-.22-2.47 1.16-3.93 3.06-1.82 2.36-7.02 6.83-8.25 7.1-.46.1-1.08.6-1.39 1.1-.52.87-.52 1.1.07 3a10 10 0 0 0 1.65 3.14 3.2 3.2 0 0 1 1.01 2.21c0 .7.27 1.37.7 1.74 1.14.97.92 2.57-.52 3.97-.68.66-1.24 1.07-1.24.91s-.25-.08-.57.18c-.3.26-.96.53-1.45.6-1.28.17-2.36.97-3.5 2.62-.97 1.4-1 1.61-1.04 5.9-.04 5.5.03 5.1-1.02 6.23q-.9.95-.9 2.22c0 .7-.24 1.58-.53 1.96a3 3 0 0 0-.51 1.5c0 .78.11.81 2.62.81 1.45 0 2.72-.15 2.84-.35s.5-.35.85-.35c.97 0 2.59-.92 3.74-2.12 1.77-1.85 2.7-2.11 7.3-2.11 3.41 0 4.23.1 4.4.53.1.3.03.73-.17.98-.47.56-.18.98 1.13 1.66 1.05.54 1.3.97 1.94 3.38l.38 1.43h2.39c2.68 0 4.86.51 5.69 1.34.63.63 4.45.79 4.81.2" candidates="[{&quot;candidate&quot;:&quot;&quot;,&quot;count&quot;:6,&quot;margin&quot;:0}]" long-name="Percole" region="PR" short-name="PR" style="stroke:none;fill:#ccc;visibility:visible;fill-opacity:1;cursor:pointer;transition:fill .2s ease-in-out" value="1"/>
    <path d="M412.68 210.58c1.48-.16 2.68-.5 3.22-.93.47-.38 1-.68 1.16-.69.28 0 1.02-1.43 2.59-5 .77-1.76.7-1.72 4.23-2.18 3.76-.49 4.44-.7 5.2-1.59.48-.58.78-1.4.79-2.22q0-1.3.93-2.39c.88-1.04.93-1.3.97-5.4.04-3.73.16-4.52.84-5.82.43-.82.7-1.5.57-1.5-.11 0 0-.25.26-.57.42-.5 1.71-1.17 5.49-2.82 1.34-.59 1.62-1.18.97-2.07a3.5 3.5 0 0 1-.5-1.77c0-.76-.32-1.41-1.03-2.1-1.14-1.09-1.77-3.04-2.04-6.3q-.29-3.44 1.86-3.42c.7 0 1.82-.77 4.22-2.91.39-.35 1.28-1.1 1.98-1.68 1.93-1.58 1.94-2.25.11-4.2a13 13 0 0 1-2.07-2.9 5 5 0 0 0-1.07-1.7c-.31-.26-1.05-1.19-1.64-2.06-.6-.88-1.86-2.3-2.81-3.16-1.66-1.49-1.74-1.64-1.74-3.4 0-1-.19-2.03-.42-2.26-.24-.24-.47-1.6-.52-3.1l-.1-2.66 1.44-1.55c.79-.86 1.54-1.52 1.67-1.49.47.14 2.15-1.24 2.4-1.97.45-1.35.44-1.75-.11-3.03-.3-.7-.62-2.53-.73-4.08-.18-2.73-.23-2.88-1.64-4.34-1.3-1.34-1.46-1.71-1.5-3.32-.04-1.45-.22-1.93-.89-2.45a3 3 0 0 0-1.28-.65c-.24 0-.72-.14-1.06-.32a26 26 0 0 0-3.78-1.5 8 8 0 0 1-1.75-.73c-.18-.15-.7-.28-1.13-.28s-.88-.15-1-.35-.72-.35-1.32-.35c-1.4 0-2.39-.9-2.39-2.18 0-.75-.7-1.85-2.7-4.21-1.48-1.76-2.95-3.28-3.26-3.37s-.88-.35-1.27-.56c-4.58-2.52-5.17-2.7-10.19-2.97-1.98-.1-3.27-.03-3.5.21-.49.48-4.01.5-4.3.03-.12-.2-.6-.36-1.06-.36s-.94-.16-1.06-.35c-.48-.77-1.23-.34-1.23.7 0 2.53-1.14 7.62-1.97 8.84a5 5 0 0 0-.86 1.78c0 .28-.22.83-.49 1.22-.26.38-.7 1.39-.94 2.23-.26.84-.67 1.61-.93 1.7-.25.1-.46.4-.46.67 0 .26-.4 1.35-.88 2.4a16 16 0 0 0-.88 2.2c0 .14-.28.56-.62.94-.54.6-.6 1.33-.5 5.98.06 2.91.25 5.55.41 5.87.17.31.46 1.63.65 2.93.47 3.12 1.28 4.75 2.71 5.43.64.3 1.44.86 1.78 1.23.34.38.8.68 1.04.68s.7.32 1.05.7c.34.38.96.8 1.37.93q1.04.31 3.92 3.22c.73.74 1.36 2.66 2.32 7.15.23 1.06.54 2.26.69 2.64a17 17 0 0 1 1.05 6.18c0 2.98-.51 5.03-1.65 6.56-.45.6-.82 1.22-.82 1.39 0 .44-1.47 1.92-1.92 1.92-.21 0-.8.44-1.28.97-.5.54-1.38 1.38-1.97 1.87l-1.07.89.16 4.57c.18 4.99-.38 8.05-1.71 9.38-.75.74-.88 1.37-.29 1.37.21 0 1.2.84 2.2 1.86 1 1.03 2.44 2.34 3.19 2.91 1.26.98 1.37 1.22 1.6 3.35.21 2.12 1.14 4.19 1.9 4.22.3.01 3.84 2.4 4.13 2.78.1.13.8.76 1.54 1.4 1.76 1.5 3.05 3.94 3.05 5.73v1.4l1.16-.48c.64-.27 2.22-.6 3.51-.74" candidates="[{&quot;candidate&quot;:&quot;&quot;,&quot;count&quot;:1,&quot;margin&quot;:0}]" long-name="Opplica" region="OP" short-name="OP" style="stroke:none;fill:#ccc;visibility:visible;fill-opacity:1;cursor:pointer;transition:fill .2s ease-in-out" value="1"/>
    <path d="M260.2 242.68a23 23 0 0 1 2.86-1.54c1.3-.61 2.44-1.35 2.55-1.65.24-.63 3.76-.78 3.76-.16 0 .2.14.28.32.17s.43.1.55.47c.15.48.43.62.95.48q.72-.18 1.07.4c.18.32.47.5.66.38.18-.1.33-.05.33.14s.31.26.7.16c.5-.13.7-.01.7.4 0 .33.17.5.36.38.2-.12.35-.04.35.17s.16.3.36.18.35-.1.35.07c0 .15.63.28 1.41.28h1.41v-1.46c0-2.26.78-2.6 6.13-2.6 3.16 0 4.44.13 4.54.44.1.27.7.39 1.67.32 1.6-.12 2.5-.5 3.6-1.55a2.5 2.5 0 0 1 1.5-.62c.6 0 1.73-.86 3.74-2.85 2.69-2.66 2.86-2.92 2.5-3.72a4.9 4.9 0 0 1 .13-4.01 4 4 0 0 0 .52-1.72c0-.46.3-1.34.67-1.94.36-.6.85-1.9 1.09-2.87.23-.97.88-2.63 1.44-3.7s1.11-2.5 1.23-3.2c.2-1.1.12-1.3-.69-1.66-.5-.23-.9-.57-.9-.76s-.4-.77-.89-1.3c-.48-.52-.88-1.14-.88-1.38s-.24-.63-.53-.87-.53-.67-.53-.94a7 7 0 0 0-.7-1.97c-.88-1.81-.94-5.28-.13-8.03.3-1.07.71-3.05.9-4.4.87-6.52.65-5.9 2.31-6.45.83-.27 1.5-.72 1.5-1 0-.27.3-.8.67-1.17s.79-1.2.93-1.85c.24-1.11.71-2.32 2.31-5.86.85-1.9 3.16-5.02 3.71-5.02 1.04 0 1.55-6.4.74-9.19l-.56-1.92h-4.39c-5.02 0-5.75-.32-5.94-2.6-.1-1.09-.28-1.34-1.2-1.64-1.52-.49-2.14-1.08-2.38-2.26-.19-.93-.38-1.04-2.6-1.42-1.32-.23-3.15-.5-4.06-.6-1.95-.23-3.45-1.42-3.45-2.74 0-1.43-1.1-3.38-2.06-3.62-.46-.12-3.89-.1-7.6.03-5.62.2-6.96.16-8.01-.28-1.25-.52-3.85-3.06-3.85-3.75 0-.2-.17-.35-.38-.35s-1.07-.48-1.92-1.06a11 11 0 0 0-1.72-1.06c-.1 0-.89-.47-1.75-1.06-1.95-1.31-3.76-3.34-3.76-4.2 0-.74-1.2-2.3-3.44-4.48q-1.5-1.45-1.5-2.37c0-.98.26-.87-4.81-2.15a24 24 0 0 0-4.85-.55h-2.68v1.19c0 .65-.24 1.86-.53 2.69-.77 2.17-.66 3.08.53 4.58a7 7 0 0 1 1.05 1.61c0 .15.22.53.49.83 1.06 1.24 1.73 4.49 1.5 7.34-.4 5.12-.7 6.25-2.17 8.18-.76 1-1.57 1.74-1.79 1.66s-.6.27-.84.78c-.25.52-.58 1.18-.76 1.48-.17.29-.45.86-.63 1.27-.28.62-1 1.17-1.8 1.35-.09.02-.6.32-1.11.67-.75.5-.95.91-.94 1.93 0 .72-.16 1.91-.35 2.66-.2.74-.3 1.9-.24 2.56s-.02 1.2-.17 1.2-.38.51-.5 1.14c-.41 2.05-.4 2.56.05 2.47.25-.05.44.08.44.29s.16.27.36.15.35-.04.35.18.16.3.35.18c.65-.4.51 2.4-.17 3.5-.58.93-1.2 2.88-1.36 4.32-.1.9.1 1.35 1.02 2.25 1.12 1.09 1.36 2.07.73 3.09-.14.23-.16.74-.04 1.12.5 1.59.5 2.4 0 2.82-.29.24-.44.58-.33.75s.02.31-.2.31c-.23 0-.35.43-.29.97s.3.94.53.9c.23-.05.51.2.62.55.16.48.47.6 1.26.48.62-.09 1.05 0 1.05.23 0 .2.22.3.49.2.3-.12.56.12.69.6.11.45.31.7.44.57.5-.49 1.2.81 1.2 2.2 0 1.5.55 2.97 1 2.7.13-.08.45.07.7.34s.35.5.22.5-.02.25.23.56c.26.3.52.9.58 1.31.07.42.27.91.46 1.1.45.45.45 1.72 0 1.43-.35-.2-.4.21-.54 4.92-.03 1.25-.23 2.16-.48 2.24-.22.08-.63.36-.9.62-.26.27-.56.4-.67.28-.12-.11-.31.22-.44.74q-.24.94-.81.82c-.32-.07-.86.19-1.2.57s-.61.54-.62.36c0-.36-.68.61-.7 1 0 .14.24.16.53.05q.52-.2.53.38c0 .33.14.5.32.4.17-.11.4.02.5.3.12.3.48.43.92.3.4-.1.73-.02.73.18s.3.28.66.19c.78-.2.96.35.94 2.97 0 1.02.09 1.85.21 1.85s.31.34.42.74c.1.41.36.64.57.51s.37-.08.37.11.32.26.71.16c.67-.18.7-.01.7 3.02 0 2.57.1 3.17.49 3.02.27-.1.57.04.68.32q.2.5 1.15.32.96-.18 1.27.38c.17.31.55.48.84.37.43-.17.51.28.51 2.66 0 3.08.6 5.68 1.33 5.68.24 0 .44.25.44.55s.13.47.3.36.6.43.97 1.19c.36.75.78 1.29.93 1.2s.27.09.27.4.14.49.31.38.39.09.48.44c.13.5.45.6 1.71.48a5 5 0 0 0 2.08-.57" candidates="[{&quot;candidate&quot;:&quot;&quot;,&quot;count&quot;:5,&quot;margin&quot;:0}]" long-name="Acalliana" region="AC" short-name="AC" style="stroke:none;fill:#ccc;visibility:visible;fill-opacity:1;cursor:pointer;transition:fill .2s ease-in-out" value="1"/>
    <path d="M420.6 255.89q1.44 0 1.64.52c.12.3.44.43.75.32.3-.12.54-.04.54.18 0 .21.17.39.37.39.21 0 .28-.15.17-.34-.11-.18.1-.5.49-.7.8-.43 3.2-.5 3.2-.1 0 .14.32.46.71.7.39.25.69.33.66.18q-.2-1.41.84-1.83a6 6 0 0 0 1.65-1.22c.47-.51 1.21-.92 1.65-.92s.9-.16 1.02-.36.75-.35 1.4-.35c1.38 0 1.72-.59 1.17-2.04-.63-1.67-.2-2.2 1.8-2.2.97 0 1.86-.15 1.98-.35s.53-.35.9-.35c.5 0 .69-.24.69-.9 0-1 .2-1.11 2.64-1.42 3.5-.45 6.53-.55 6.53-.23 0 .18.44.34.98.36s1.2.07 1.46.14c.94.23.7-.61-.3-1.06-1.15-.5-1.44-1.52-1.02-3.59.21-1.03.11-1.38-.6-2.14-.99-1.02-1.15-2.62-.31-2.94.3-.12 1.56-.21 2.8-.21 1.92 0 2.27-.1 2.46-.7.14-.45.53-.71 1.06-.71 1.06 0 1.38-.5.74-1.15-.28-.28-.55-1.2-.6-2.06a4.6 4.6 0 0 0-.59-2.15 5 5 0 0 1-.68-1.99c-.18-1.35-.14-1.43 1.17-2.04a7 7 0 0 0 1.94-1.27c.31-.35.83-.63 1.14-.63.32 0 .58-.15.58-.33s.31-.43.69-.55a10 10 0 0 0 2.35-1.79c.91-.86 1.94-1.57 2.29-1.57.34 0 .72-.16.84-.35.12-.2 1-.35 1.97-.35 1.7 0 2.06-.23 1.42-.9a4.4 4.4 0 0 1-.45-1.8c-.12-1.38-.05-1.5 1.03-1.92 1.02-.4 1.15-.6 1.15-1.8q0-1.35-.49-1.34c-.26 0-.69-.25-.93-.55q-.46-.56-.82-.17c-.2.2-1.92.36-3.9.36-3.09 0-3.61-.09-4.3-.74-.7-.65-1.2-.73-4.33-.71l-3.53.02-.55-1.1a6 6 0 0 1-.55-2.05c0-.52-.32-1.24-.7-1.59-.4-.35-.71-.5-.71-.34s-.48-.16-1.06-.72-1.06-1.38-1.06-1.83c0-.77-.12-.81-2.5-.81-1.97 0-2.73.15-3.53.73-.57.4-1.03.61-1.03.48 0-.14-.33.17-.73.68s-.95.93-1.22.93-.66.32-.87.71c-.21.4-.51.64-.66.55-.15-.1-.69.05-1.2.31-.64.34-2.17.46-5.09.43l-4.16-.06-.11-.97c-.11-.95-.55-1.27-.91-.68-.1.16-1.18.33-2.39.38a10 10 0 0 0-2.57.31c-.35.23-.51.28-1.18.39-.16.02-.58.87-.94 1.9-1.02 2.86-1.8 4.15-3.08 5.01-1.1.74-1.87.96-5.38 1.48-.76.11-1.86.47-2.45.8l-1.06.59.1 3.65c.08 3.22 0 3.83-.71 5.22-.45.86-1.18 1.71-1.62 1.88s-.8.5-.8.76c0 .54 2 4.46 2.68 5.24.27.3.49 1.23.49 2.07 0 1.16.27 1.89 1.19 3.14 1.25 1.72 1.68 3.3 1.72 6.22.03 2.88-.44 4.68-1.37 5.3-.64.41-.84.86-.84 1.92 0 1.05-.24 1.62-1.06 2.43-1.22 1.22-1.36 1.83-.36 1.57.71-.19 1.78.6 1.78 1.3 0 .23.23.65.52.94s.53.43.53.3c0-.12.2-.1.44.06.25.15.9.22 1.45.16.69-.07 1.16.12 1.5.61.74 1.06 2.58 1.13 3.69.15.62-.56 1.34-.8 2.34-.8" candidates="[{&quot;candidate&quot;:&quot;&quot;,&quot;count&quot;:5,&quot;margin&quot;:0}]" long-name="Rorcia" region="RO" short-name="RO" style="stroke:none;fill:#ccc;visibility:visible;fill-opacity:1;cursor:pointer;transition:fill .2s ease-in-out" value="1"/>
    <path d="M346.56 257.83c.12-2.32.74-3.35 2.03-3.35.43 0 1.4-.31 2.15-.7a59 59 0 0 1 2.59-1.23c.68-.3 1.7-.85 2.3-1.22a5 5 0 0 1 1.65-.7c.6-.03 2.1-1.8 2.51-2.94.28-.8 2.78-.86 3.42-.1.24.3.85.54 1.36.54s1.33.32 1.81.7c.72.57 1.45.7 3.98.7 3.03 0 3.1.03 3.52.98.83 1.85 3 3.23 5.13 3.25 1.12 0 1.84.27 2.74.98.9.73 1.6.97 2.8.98 1.33 0 1.73.19 2.55 1.13.54.62 1.37 1.17 1.86 1.23q.9.08 1 .92c.1.67.3.8 1.2.7.87-.09 1.17-.34 1.47-1.23.21-.61.81-1.45 1.34-1.86.71-.56.97-1.1 1.05-2.23.1-1.41.17-1.5 1.31-1.6.68-.07 1.7.15 2.35.5 1.13.6 1.15.6 2.29-.35.9-.76 1.43-.94 2.58-.85 1.28.1 1.61-.06 2.95-1.36 1.17-1.14 1.5-1.73 1.5-2.63 0-.71.32-1.5.82-2.06 1.04-1.15 1.8-4.03 1.3-4.95-.19-.37-.35-1.1-.35-1.61 0-.53-.55-1.7-1.23-2.63-.96-1.3-1.24-2.02-1.24-3.2 0-.83-.22-1.76-.48-2.07-1.22-1.4-2.7-4.85-2.7-6.3 0-1.3.15-1.6 1.04-2.1a5 5 0 0 0 1.59-1.77c.61-1.3.75-4.86.2-5.2-.2-.12-.35-.75-.35-1.41s-.16-1.29-.35-1.4c-.19-.13-.25-.9-.13-1.77a3.6 3.6 0 0 0-.6-2.9c-1.24-2.03-3.98-4.48-7.08-6.3a9 9 0 0 1-1.71-1.73 4 4 0 0 1-1.07-3.04c0-.93-.17-1.8-.38-1.93a2 2 0 0 1-.61-.81 19 19 0 0 0-2.57-2.79c-2.17-2.05-3.14-2.64-3.14-1.88 0 .17-.67.66-1.49 1.09a8 8 0 0 0-1.85 1.22c-.2.26-1.03.56-1.85.68-1.82.27-4.23 1.87-5.35 3.55a5 5 0 0 1-1.06 1.26 24 24 0 0 0-2.67 2.3c-1.35 1.25-2.62 2.28-2.82 2.28-.21 0-.58.32-.82.7-.24.4-.67.71-.96.71s-.66.29-.85.64c-.2.35-1.03.86-1.87 1.11-.83.26-2.13.88-2.88 1.38-1.32.87-1.57.9-8.12 1.04-3.7.07-6.9.28-7.08.45-.45.42-5.6.41-6.03-.01-.19-.19-2.09-.61-4.22-.95s-4.1-.77-4.37-.98c-.67-.52-3.5-1.23-4.94-1.25-1.24-.02-5.68-2-5.68-2.55 0-.17-.4-.46-.88-.64-.49-.19-.89-.58-.89-.87s-.32-.74-.71-.98c-.62-.39-1.29-1.55-2.47-4.33-.17-.39-.4-1.66-.53-2.84-.17-1.65-.4-2.24-.97-2.6a89 89 0 0 0-6.08-3.25c-.58-.3-1.4-.75-1.84-1.03-.68-.43-.84-.42-1.23.06-.25.3-.97.76-1.6 1-1.24.5-1.31.71-1.65 5.13-.11 1.36-.51 3.35-.9 4.41a13 13 0 0 0-.7 3.53c-.01 1.54 1.26 5.3 2.06 6.1.22.22.4.59.4.82 0 .24.8 1.24 1.8 2.23l1.8 1.8-.14 2.06c-.1 1.3-.52 2.83-1.16 4.14l-1.3 2.7c-.17.33-.3.96-.3 1.4a5 5 0 0 1-.7 1.95c-.39.63-.88 1.9-1.1 2.82a8 8 0 0 1-.77 2.13q-.37.46.05.87c.22.22.4 1.14.4 2.05 0 1.67-.52 2.5-2.43 3.86-.67.47-.71.67-.38 1.85.21.73.56 1.32.78 1.32s.8.47 1.3 1.05c1.07 1.23 6.55 4.12 8.42 4.44 1.2.21 6.6 2.51 7.84 3.34 1.29.87 2.81 1.35 5.05 1.59 2.58.27 3.06.72 3.06 2.86 0 1.44 2.76 4.76 5.05 6.06 1.4.8 3.22 1.02 3.6.42.33-.55 3.81-.42 5.02.18.6.3 1.17.78 1.29 1.08.15.4.6.51 1.7.43l1.5-.1z" candidates="[{&quot;candidate&quot;:&quot;&quot;,&quot;count&quot;:1,&quot;margin&quot;:0},{&quot;candidate&quot;:&quot;&quot;,&quot;count&quot;:0,&quot;margin&quot;:0},{&quot;candidate&quot;:&quot;&quot;,&quot;count&quot;:0,&quot;margin&quot;:0},{&quot;candidate&quot;:&quot;&quot;,&quot;count&quot;:0,&quot;margin&quot;:0},{&quot;candidate&quot;:&quot;&quot;,&quot;count&quot;:0,&quot;margin&quot;:0},{&quot;candidate&quot;:&quot;&quot;,&quot;count&quot;:0,&quot;margin&quot;:0},{&quot;candidate&quot;:&quot;&quot;,&quot;count&quot;:0,&quot;margin&quot;:0}]" long-name="Taclima" region="TL" short-name="TL" style="fill-opacity:1;stroke:none;fill:#ccc;visibility:visible;cursor:pointer;transition:fill .2s ease-in-out" value="1"/>
  </g>
  <g fill="currentColor" map-type="region-texts" style="display:inline;fill-opacity:1;stroke:none;stroke-opacity:1" transform="matrix(0.75838884,0,0,0.75838884,-413.03978,1.6121032)">
    <text xml:space="preserve" x="659.78" y="290.22" for-region="KO" style="text-align:center;text-anchor:middle;white-space:pre;display:inline;fill-opacity:1;stroke:none;stroke-opacity:1;visibility:visible;color:#000;pointer-events:none;transition:fill .2s ease-in-out" transform="translate(-1.9510604,-0.45455087)"><tspan x="659.78" y="290.22" style="transition:color .2s ease-in-out">KO
</tspan><tspan x="659.78" y="305.22" map-type="value-text" style="transition:color .2s ease-in-out">3</tspan></text>
    <text xml:space="preserve" x="659.78" y="290.22" for-region="CA" style="text-align:center;text-anchor:middle;white-space:pre;display:inline;fill-opacity:1;stroke:none;stroke-opacity:1;visibility:visible;color:#000;pointer-events:none;transition:fill .2s ease-in-out" transform="translate(-25.192228,-117.0496)"><tspan x="659.78" y="290.22" style="transition:color .2s ease-in-out">CA
</tspan><tspan x="659.78" y="305.22" map-type="value-text" style="transition:color .2s ease-in-out">5</tspan></text>
    <text xml:space="preserve" x="659.78" y="290.22" for-region="CM" style="text-align:center;text-anchor:middle;white-space:pre;display:inline;fill-opacity:1;stroke:none;stroke-opacity:1;visibility:visible;color:#000;pointer-events:none;transition:fill .2s ease-in-out" transform="translate(-11.996299,-228.10106)"><tspan x="659.78" y="290.22" style="transition:color .2s ease-in-out">CM
</tspan><tspan x="659.78" y="305.22" map-type="value-text" style="transition:color .2s ease-in-out">4</tspan></text>
    <text xml:space="preserve" x="659.78" y="290.22" for-region="CE" style="text-align:center;text-anchor:middle;white-space:pre;display:inline;fill-opacity:1;stroke:none;stroke-opacity:1;visibility:visible;color:#000;pointer-events:none;transition:fill .2s ease-in-out" transform="translate(130.41691,-213.02)"><tspan x="659.78" y="290.22" style="transition:color .2s ease-in-out">CE
</tspan><tspan x="659.78" y="305.22" map-type="value-text" style="transition:color .2s ease-in-out">1</tspan></text>
    <text xml:space="preserve" x="659.78" y="290.22" for-region="AR" style="text-align:center;text-anchor:middle;white-space:pre;display:inline;fill-opacity:1;stroke:none;stroke-opacity:1;visibility:visible;color:#000;pointer-events:none;transition:fill .2s ease-in-out" transform="translate(85.042031,-159.95978)"><tspan x="659.78" y="290.22" style="transition:color .2s ease-in-out">AR
</tspan><tspan x="659.78" y="305.22" map-type="value-text" style="transition:color .2s ease-in-out">1</tspan></text>
    <text xml:space="preserve" x="659.78" y="290.22" for-region="ST" style="text-align:center;text-anchor:middle;white-space:pre;display:inline;fill-opacity:1;stroke:none;stroke-opacity:1;visibility:visible;color:#000;pointer-events:none;transition:fill .2s ease-in-out" transform="translate(236.02402,-168.69995)"><tspan x="659.78" y="290.22" style="transition:color .2s ease-in-out">ST
</tspan><tspan x="659.78" y="305.22" map-type="value-text" style="transition:color .2s ease-in-out">5</tspan></text>
    <text xml:space="preserve" x="659.78" y="290.22" for-region="AC" style="text-align:center;text-anchor:middle;white-space:pre;display:inline;fill-opacity:1;stroke:none;stroke-opacity:1;visibility:visible;color:#000;pointer-events:none;transition:fill .2s ease-in-out" transform="translate(235.85265,-56.106115)"><tspan x="659.78" y="290.22" style="transition:color .2s ease-in-out">AC
</tspan><tspan x="659.78" y="305.22" map-type="value-text" style="transition:color .2s ease-in-out">5</tspan></text>
    <text xml:space="preserve" x="659.78" y="290.22" for-region="BL" style="text-align:center;text-anchor:middle;white-space:pre;display:inline;fill-opacity:1;stroke:none;stroke-opacity:1;visibility:visible;color:#000;pointer-events:none;transition:fill .2s ease-in-out" transform="translate(145.83253,-0.52054895)"><tspan x="659.78" y="290.22" style="transition:color .2s ease-in-out">BL
</tspan><tspan x="659.78" y="305.22" map-type="value-text" style="transition:color .2s ease-in-out">0</tspan></text>
    <text xml:space="preserve" x="659.78" y="290.22" for-region="TL" style="text-align:center;text-anchor:middle;white-space:pre;display:inline;fill-opacity:1;stroke:none;stroke-opacity:1;visibility:visible;color:#000;pointer-events:none;transition:fill .2s ease-in-out" transform="translate(354.23357,3.4275118)"><tspan x="659.78" y="290.22" style="transition:color .2s ease-in-out">TL
</tspan><tspan x="659.78" y="305.22" map-type="value-text" style="transition:color .2s ease-in-out">1</tspan></text>
    <text xml:space="preserve" x="659.78" y="290.22" for-region="RO" style="text-align:center;text-anchor:middle;white-space:pre;display:inline;fill-opacity:1;stroke:none;stroke-opacity:1;visibility:visible;color:#000;pointer-events:none;transition:fill .2s ease-in-out" transform="translate(458.47158,1.1910156)"><tspan x="659.78" y="290.22" style="transition:color .2s ease-in-out">RO
</tspan><tspan x="659.78" y="305.22" map-type="value-text" style="transition:color .2s ease-in-out">5</tspan></text>
    <text xml:space="preserve" x="659.78" y="290.22" for-region="PR" style="text-align:center;text-anchor:middle;white-space:pre;display:inline;fill-opacity:1;stroke:none;stroke-opacity:1;visibility:visible;color:#000;pointer-events:none;transition:fill .2s ease-in-out" transform="translate(485.85847,-60.368892)"><tspan x="659.78" y="290.22" style="transition:color .2s ease-in-out">PR
</tspan><tspan x="659.78" y="305.22" map-type="value-text" style="transition:color .2s ease-in-out">6</tspan></text>
    <text xml:space="preserve" x="659.78" y="290.22" for-region="OP" style="text-align:center;text-anchor:middle;white-space:pre;display:inline;fill-opacity:1;stroke:none;stroke-opacity:1;visibility:visible;color:#000;pointer-events:none;transition:fill .2s ease-in-out" transform="translate(428.43594,-100.86307)"><tspan x="659.78" y="290.22" style="transition:color .2s ease-in-out">OP
</tspan><tspan x="659.78" y="305.22" map-type="value-text" style="transition:color .2s ease-in-out">1</tspan></text>
    <text xml:space="preserve" x="659.78" y="290.22" for-region="ES" style="text-align:center;text-anchor:middle;white-space:pre;display:inline;fill-opacity:1;stroke:none;stroke-opacity:1;visibility:visible;color:#000;pointer-events:none;transition:fill .2s ease-in-out" transform="translate(346.07702,-87.547871)"><tspan x="659.78" y="290.22" style="transition:color .2s ease-in-out">ES
</tspan><tspan x="659.78" y="305.22" map-type="value-text" style="transition:color .2s ease-in-out">3</tspan></text>
    <text xml:space="preserve" x="659.78" y="290.22" for-region="LA" style="text-align:center;text-anchor:middle;white-space:pre;display:inline;fill-opacity:1;stroke:none;stroke-opacity:1;visibility:visible;color:#000;pointer-events:none;transition:fill .2s ease-in-out" transform="translate(340.25025,-172.55022)"><tspan x="659.78" y="290.22" style="transition:color .2s ease-in-out">LA
</tspan><tspan x="659.78" y="305.22" map-type="value-text" style="transition:color .2s ease-in-out">3</tspan></text>
    <text xml:space="preserve" x="659.78" y="290.22" for-region="MA" style="text-align:center;text-anchor:middle;white-space:pre;display:inline;fill-opacity:1;stroke:none;stroke-opacity:1;visibility:visible;color:#000;pointer-events:none;transition:fill .2s ease-in-out" transform="translate(411.54254,-189.51641)"><tspan x="659.78" y="290.22" style="transition:color .2s ease-in-out">MA
</tspan><tspan x="659.78" y="305.22" map-type="value-text" style="transition:color .2s ease-in-out">7</tspan></text>
    <text xml:space="preserve" x="659.78" y="290.22" for-region="NQ" style="text-align:center;text-anchor:middle;white-space:pre;display:inline;fill-opacity:1;stroke:none;stroke-opacity:1;visibility:visible;color:#000;pointer-events:none;transition:fill .2s ease-in-out" transform="translate(480.60694,-134.67619)"><tspan x="659.78" y="290.22" style="transition:color .2s ease-in-out">NQ
</tspan><tspan x="659.78" y="305.22" map-type="value-text" style="transition:color .2s ease-in-out">12</tspan></text>
    <text xml:space="preserve" x="659.78" y="290.22" for-region="DF" style="text-align:center;text-anchor:middle;white-space:pre;display:inline;fill-opacity:1;stroke:none;stroke-opacity:1;visibility:visible;color:#000;pointer-events:none;transition:fill .2s ease-in-out" transform="translate(553.00532,-72.089664)"><tspan x="659.78" y="290.22" style="transition:color .2s ease-in-out">DF
</tspan><tspan x="659.78" y="305.22" map-type="value-text" style="transition:color .2s ease-in-out">3</tspan></text>
  </g>
</svg>